<?xml version="1.0" encoding="UTF-8" standalone="no"?>
<svg
   height="960"
   viewBox="0 0 960 960"
   width="960"
   version="1.1"
   id="svg4"
   sodipodi:docname="learnmode.svg"
   inkscape:version="1.1.1 (3bf5ae0d25, 2021-09-20)"
   xmlns:inkscape="http://www.inkscape.org/namespaces/inkscape"
   xmlns:sodipodi="http://sodipodi.sourceforge.net/DTD/sodipodi-0.dtd"
   xmlns="http://www.w3.org/2000/svg"
   xmlns:svg="http://www.w3.org/2000/svg">
  <defs
     id="defs8" />
  <sodipodi:namedview
     id="namedview6"
     pagecolor="#505050"
     bordercolor="#ffffff"
     borderopacity="1"
     inkscape:pageshadow="0"
     inkscape:pageopacity="0"
     inkscape:pagecheckerboard="1"
     showgrid="false"
     inkscape:zoom="0.97968464"
     inkscape:cx="772.18726"
     inkscape:cy="440.95822"
     inkscape:window-width="1440"
     inkscape:window-height="890"
     inkscape:window-x="-6"
     inkscape:window-y="-6"
     inkscape:window-maximized="1"
     inkscape:current-layer="svg4" />
  <path
     d="m 585.02621,186.24571 c 38.97935,22.68902 72.39449,69.73845 73.15649,117.72818 l 0.017,2.14638 v 302.72727 c 0,69.28745 -51.42539,127.80977 -120.13402,136.70785 l -4.52682,0.58624 c -16.63673,2.15453 -33.30354,0.80326 -49.10047,-3.84932 l -0.0408,-0.0126 -0.32551,-0.0846 c -0.23774,-0.0645 -0.47543,-0.13123 -0.71305,-0.20031 l -0.71265,-0.21415 -5.68378,-1.76412 c -6.92103,-2.15905 -12.57727,-3.96709 -17.02664,-5.44491 l -0.96891,-0.32298 c -0.31636,-0.10585 -0.62613,-0.2099 -0.92932,-0.31216 l -0.31855,-0.10761 c -3.442,-1.1645 -6.81573,-2.38092 -10.12111,-3.6498 l -0.38248,-0.14838 -1.26026,-0.41764 C 405.56202,715.97354 364.89764,670.74982 356.05639,570.53035 355.6306,396.75103 342.83222,324.6634 382.7,248.21035 437.84536,142.46002 566.3376,178.2853 585.02621,186.24571 Z M 439.79469,295.00353 v 330.83885 c 0,44.89981 35.74851,80.60877 79.84653,79.7582 l 17.39366,-0.33354 c 46.6968,-8.0514 81.16438,-48.62702 81.16438,-96.4195 V 306.12027 c 0,-35.59927 -20.09272,-66.62567 -49.69014,-82.1525 l -0.57785,-0.30055 c -0.10001,-0.0516 -0.20012,-0.10296 -0.30034,-0.15417 -0.18869,-0.0949 -0.37722,-0.19044 -0.56612,-0.28538 l 0.56612,0.28538 c -0.31184,-0.15935 -0.6247,-0.31699 -0.93858,-0.47291 l 0.37246,0.18753 c -0.30193,-0.15173 -0.6048,-0.30186 -0.90862,-0.45039 l 0.53616,0.26286 c -0.3349,-0.16636 -0.67096,-0.33076 -1.00816,-0.49318 l 0.472,0.23032 c -0.49228,-0.24065 -0.98704,-0.47707 -1.48422,-0.70922 -0.13614,-0.0647 -0.27263,-0.12796 -0.40931,-0.19094 l 0.40931,0.19094 c -0.28667,-0.13386 -0.57415,-0.26629 -0.86243,-0.3973 l 0.45312,0.20636 c -0.32685,-0.15063 -0.65473,-0.29942 -0.98364,-0.44634 l 0.53052,0.23998 c -0.34879,-0.1585 -0.69874,-0.3149 -1.04984,-0.46919 l 0.51932,0.22921 c -0.37205,-0.1662 -0.7454,-0.33002 -1.12004,-0.49145 l 0.60072,0.26224 c -0.39795,-0.17488 -0.79738,-0.34705 -1.19827,-0.51648 -0.22484,-0.0957 -0.45058,-0.19007 -0.67677,-0.28353 l 0.67677,0.28353 c -0.40016,-0.16913 -0.80177,-0.33553 -1.20482,-0.49918 l 0.52805,0.21565 c -0.35182,-0.14537 -0.70475,-0.28864 -1.05876,-0.42979 l 0.53071,0.21414 c -0.34976,-0.14202 -0.7006,-0.28197 -1.05249,-0.41983 l 0.52178,0.20569 c -0.32295,-0.12878 -0.64681,-0.25579 -0.97156,-0.38103 l 0.44978,0.17534 c -0.4623,-0.18111 -0.92643,-0.35862 -1.39236,-0.5325 -0.18165,-0.0682 -0.36417,-0.13565 -0.54696,-0.20254 l 0.54696,0.20254 c -0.32886,-0.12273 -0.65862,-0.24365 -0.98926,-0.36274 l 0.4423,0.1602 c -0.37809,-0.13835 -0.75734,-0.27431 -1.13774,-0.40787 l 0.69544,0.24767 c -0.34906,-0.12573 -0.6991,-0.24943 -1.05012,-0.37108 l 0.35468,0.12341 c -0.3679,-0.12917 -0.73688,-0.25609 -1.10692,-0.38074 l 0.75224,0.25733 c -0.43515,-0.15081 -0.87181,-0.29848 -1.30992,-0.44298 -0.2548,-0.0843 -0.51062,-0.16739 -0.76693,-0.24943 l 0.76693,0.24943 c -0.42415,-0.13989 -0.84966,-0.2768 -1.27653,-0.41072 l 0.5096,0.16129 c -0.35089,-0.11231 -0.70271,-0.2226 -1.05543,-0.33084 l 0.54583,0.16955 c -0.34194,-0.10728 -0.68474,-0.21263 -1.0284,-0.31605 l 0.48257,0.1465 c -0.47596,-0.14607 -0.95358,-0.28841 -1.43282,-0.42701 l 0.95025,0.28051 c -0.34694,-0.1044 -0.69475,-0.20683 -1.04341,-0.30727 l 0.0932,0.0268 c -0.41232,-0.11924 -0.82585,-0.2357 -1.24055,-0.34937 l 1.14739,0.32261 c -0.44446,-0.12804 -0.89031,-0.25285 -1.33753,-0.37441 l 0.19014,0.0518 c -0.36339,-0.0996 -0.72769,-0.19705 -1.09287,-0.29233 l 0.90273,0.24053 c -0.40015,-0.10876 -0.8014,-0.21492 -1.20372,-0.31846 l 0.30099,0.0779 c -0.83651,-0.21826 -1.6777,-0.42517 -2.52339,-0.62054 -0.0437,-0.0101 -0.0873,-0.0201 -0.13097,-0.0301 -0.018,0.002 -0.0404,0.002 -0.0628,0.002 l -26.61551,-0.51336 c -44.09802,-0.85057 -79.84653,34.85839 -79.84653,79.7582 z m 4.45018,-66.03347 -0.2937,0.19281 c -16.07031,10.5816 -28.52321,26.2106 -35.10329,44.63124 1.3e-4,0.004 -6.4e-4,0.008 -10e-4,0.0122 -0.92683,2.59297 -1.73702,5.24153 -2.42434,7.93929 -0.0205,0.0771 -0.0401,0.15447 -0.0596,0.2319 l 0.0596,-0.2319 c -0.0591,0.2319 -0.11726,0.46416 -0.17452,0.69677 l 0.11494,-0.46487 c -0.0695,0.27592 -0.13764,0.55235 -0.20453,0.82928 l 0.0896,-0.36441 c -0.16187,0.65762 -0.31647,1.31811 -0.46368,1.98137 -0.0172,0.0751 -0.0338,0.15052 -0.0503,0.22596 l 0.0503,-0.22596 c -0.12739,0.57394 -0.24925,1.14996 -0.36553,1.728 -0.1022,0.50653 -0.19974,1.01443 -0.29296,1.52383 -0.0958,0.52462 -0.18721,1.05059 -0.274,1.57811 -0.0188,0.11359 -0.0372,0.22678 -0.0554,0.34005 l 0.0554,-0.34005 c -0.0519,0.31521 -0.10207,0.63099 -0.15062,0.94731 l 0.0952,-0.60726 c -0.10805,0.67321 -0.20859,1.34893 -0.30152,2.02708 -0.0193,0.14114 -0.0384,0.28284 -0.0571,0.42464 l 0.0571,-0.42464 c -0.0391,0.28558 -0.0769,0.57159 -0.11336,0.85803 l 0.0563,-0.43339 c -0.0376,0.28454 -0.0739,0.5695 -0.10881,0.85489 l 0.0525,-0.4215 c -0.0391,0.30759 -0.0767,0.61566 -0.11267,0.92422 l 0.0601,-0.50272 c -0.0394,0.32217 -0.0771,0.64487 -0.11314,0.9681 l 0.053,-0.46538 c -0.0345,0.29588 -0.0676,0.59221 -0.0992,0.88897 l 0.0462,-0.42359 c -0.0295,0.265 -0.0579,0.53036 -0.085,0.79606 l 0.0389,-0.37247 c -0.0379,0.35563 -0.0737,0.71189 -0.10739,1.06875 l 0.0685,-0.69628 c -0.036,0.35214 -0.07,0.70488 -0.10194,1.05823 l 0.0334,-0.36195 c -0.0277,0.29363 -0.054,0.58767 -0.0789,0.88211 l 0.0455,-0.52016 c -0.0269,0.29795 -0.0524,0.59632 -0.0764,0.8951 l 0.0309,-0.37494 c -0.0277,0.32817 -0.0537,0.65685 -0.0779,0.98603 l 0.047,-0.61109 c -0.0244,0.30393 -0.0473,0.60828 -0.0686,0.91305 l 0.0217,-0.30196 c -0.0205,0.27981 -0.0398,0.55998 -0.0578,0.84051 l 0.0361,-0.53855 c -0.0278,0.39729 -0.0531,0.79528 -0.0757,1.19398 l 0.0396,-0.65543 c -0.0215,0.33581 -0.0412,0.67212 -0.059,1.00893 l 0.0194,-0.3535 c -0.0149,0.26292 -0.0287,0.52615 -0.0414,0.78967 l 0.022,-0.43617 c -0.0838,1.58682 -0.12626,3.18461 -0.12626,4.79231 l -5e-5,155.68258 10e-4,84.12108 -0.002,0.002 4.3e-4,71.29503 c 0,3.42387 0.21714,6.84429 0.65011,10.24066 2.79494,21.92427 14.11136,40.67683 30.19782,53.35416 -9.33524,-15.26994 -14.71517,-33.32475 -14.71517,-52.7238 V 295.00353 c 0,-25.39002 9.21599,-48.47732 24.45018,-66.03347 z m 97.7494,318.19713 c 27.33879,4.33004 44.47358,33.7785 39.51734,65.07093 -4.95623,31.29243 -30.35246,54.00465 -57.69125,49.67461 -27.33879,-4.33004 -44.47358,-33.7785 -39.51735,-65.07093 4.95624,-31.29243 30.35247,-54.00465 57.69126,-49.67461 z m -37.93749,52.80329 c -3.35301,21.17009 7.45393,39.74329 22.89227,42.18849 15.43833,2.44519 31.45579,-11.87945 34.8088,-33.04953 3.35301,-21.17008 -7.45394,-39.74329 -22.89227,-42.18848 -15.43834,-2.4452 -31.45579,11.87944 -34.8088,33.04952 z m 37.93749,-196.59452 c 27.33879,4.33004 44.47358,33.77851 39.51734,65.07094 -4.95623,31.29243 -30.35246,54.00465 -57.69125,49.67461 -27.33879,-4.33004 -44.47358,-33.77851 -39.51735,-65.07094 4.95624,-31.29243 30.35247,-54.00465 57.69126,-49.67461 z m -37.93749,52.8033 c -3.35301,21.17008 7.45393,39.74329 22.89227,42.18848 15.43833,2.44519 31.45579,-11.87945 34.8088,-33.04953 3.35301,-21.17008 -7.45394,-39.74329 -22.89227,-42.18848 -15.43834,-2.44519 -31.45579,11.87945 -34.8088,33.04953 z m 37.93749,-196.59452 c 27.33879,4.33004 44.47358,33.77851 39.51734,65.07094 -4.95623,31.29243 -30.35246,54.00464 -57.69125,49.6746 -27.33879,-4.33004 -44.47358,-33.7785 -39.51735,-65.07093 4.95624,-31.29243 30.35247,-54.00465 57.69126,-49.67461 z m -37.93749,52.80329 c -3.35301,21.17008 7.45393,39.74329 22.89227,42.18849 15.43833,2.44519 31.45579,-11.87945 34.8088,-33.04953 3.35301,-21.17008 -7.45394,-39.74329 -22.89227,-42.18848 -15.43834,-2.4452 -31.45579,11.87944 -34.8088,33.04952 z"
     id="path2"
     sodipodi:nodetypes="cccsssccccccccssccccsccsccsscccccccccccccccccccccccccccccccccccccccccccccccccccccccccccccccccsccssccccccccccccccsccccsccccccccccccccccccccccccccccccccccsccccscssccccccsccssssssssssssssssssssccccc" />
</svg>
