<?xml version="1.0" encoding="UTF-8" standalone="no"?>
<!-- Created with Inkscape (http://www.inkscape.org/) -->

<svg
   width="165.58182mm"
   height="139.1916mm"
   viewBox="0 0 165.58182 139.1916"
   version="1.1"
   id="svg3720"
   inkscape:version="1.1 (c68e22c387, 2021-05-23)"
   sodipodi:docname="icon.svg"
   xmlns:inkscape="http://www.inkscape.org/namespaces/inkscape"
   xmlns:sodipodi="http://sodipodi.sourceforge.net/DTD/sodipodi-0.dtd"
   xmlns="http://www.w3.org/2000/svg"
   xmlns:svg="http://www.w3.org/2000/svg"
   xmlns:rdf="http://www.w3.org/1999/02/22-rdf-syntax-ns#"
   xmlns:cc="http://creativecommons.org/ns#"
   xmlns:dc="http://purl.org/dc/elements/1.1/">
  <defs
     id="defs3714" />
  <sodipodi:namedview
     id="base"
     pagecolor="#ffffff"
     bordercolor="#666666"
     borderopacity="1.0"
     inkscape:pageopacity="0.0"
     inkscape:pageshadow="2"
     inkscape:zoom="1.4"
     inkscape:cx="631.78571"
     inkscape:cy="225.71428"
     inkscape:document-units="mm"
     inkscape:current-layer="layer1"
     showgrid="false"
     inkscape:window-width="2560"
     inkscape:window-height="1378"
     inkscape:window-x="2729"
     inkscape:window-y="-615"
     inkscape:window-maximized="1"
     inkscape:pagecheckerboard="0" />
  <metadata
     id="metadata3717">
    <rdf:RDF>
      <cc:Work
         rdf:about="">
        <dc:format>image/svg+xml</dc:format>
        <dc:type
           rdf:resource="http://purl.org/dc/dcmitype/StillImage" />
      </cc:Work>
    </rdf:RDF>
  </metadata>
  <g
     inkscape:label="Laag 1"
     inkscape:groupmode="layer"
     id="layer1"
     transform="translate(-19.644666,-81.600464)">
    <rect
       style="fill:#cccccc;fill-opacity:1;stroke:#000000;stroke-width:0.0282744;stroke-miterlimit:4;stroke-dasharray:none;stroke-opacity:0"
       id="rect12435"
       width="17.3589"
       height="1.2743081"
       x="151.56206"
       y="100.71255" />
    <rect
       style="fill:#cccccc;fill-opacity:1;stroke:#000000;stroke-width:0.0237757;stroke-miterlimit:4;stroke-dasharray:none;stroke-opacity:0"
       id="rect12435-92"
       width="17.363398"
       height="0.90083063"
       x="151.19214"
       y="120.64857" />
    <rect
       style="fill:#cccccc;fill-opacity:1;stroke:#000000;stroke-width:0.0237757;stroke-miterlimit:4;stroke-dasharray:none;stroke-opacity:0"
       id="rect12435-92-8"
       width="17.363398"
       height="0.90083063"
       x="151.19214"
       y="144.0831" />
    <rect
       style="fill:#cccccc;fill-opacity:1;stroke:#000000;stroke-width:0.0237757;stroke-miterlimit:4;stroke-dasharray:none;stroke-opacity:0"
       id="rect12435-92-8-8"
       width="17.363398"
       height="0.90083063"
       x="151.00314"
       y="167.13963" />
    <rect
       style="fill:#cccccc;fill-opacity:1;stroke:#000000;stroke-width:0.0261212;stroke-miterlimit:4;stroke-dasharray:none;stroke-opacity:0"
       id="rect12435-92-8-8-5"
       width="17.361053"
       height="1.0874733"
       x="151.00432"
       y="188.87442" />
    <rect
       style="fill:#cccccc;fill-opacity:1;stroke:#000000;stroke-width:0.0282744;stroke-miterlimit:4;stroke-dasharray:none;stroke-opacity:0"
       id="rect12435-8"
       width="17.358898"
       height="1.2743081"
       x="38.079861"
       y="101.89374" />
    <rect
       style="fill:#cccccc;fill-opacity:1;stroke:#000000;stroke-width:0.0282744;stroke-miterlimit:4;stroke-dasharray:none;stroke-opacity:0"
       id="rect12435-92-89"
       width="17.3589"
       height="1.2743081"
       x="37.712185"
       y="121.832" />
    <rect
       style="fill:#cccccc;fill-opacity:1;stroke:#000000;stroke-width:0.0261212;stroke-miterlimit:4;stroke-dasharray:none;stroke-opacity:0"
       id="rect12435-92-8-2"
       width="17.361052"
       height="1.0874733"
       x="37.711105"
       y="145.26546" />
    <rect
       style="fill:#cccccc;fill-opacity:1;stroke:#000000;stroke-width:0.0261212;stroke-miterlimit:4;stroke-dasharray:none;stroke-opacity:0"
       id="rect12435-92-8-8-0"
       width="17.361053"
       height="1.0874733"
       x="37.900089"
       y="168.69995" />
    <rect
       style="fill:#cccccc;fill-opacity:1;stroke:#000000;stroke-width:0.0282744;stroke-miterlimit:4;stroke-dasharray:none;stroke-opacity:0"
       id="rect12435-92-8-8-5-3"
       width="17.3589"
       height="1.2743081"
       x="37.90118"
       y="190.05669" />
    <rect
       style="fill:none;fill-opacity:0.28;stroke:#000000;stroke-width:0.323;stroke-miterlimit:4;stroke-dasharray:none;stroke-opacity:0"
       id="rect12435-9"
       width="23.28771"
       height="123.82937"
       x="149.17491"
       y="82.618813" />
    <path
       style="fill:#000000;stroke-width:0.264583"
       id="path2127"
       d="" />
    <path
       style="fill:#000000;stroke-width:0.264583"
       id="path2068"
       d="" />
    <path
       style="fill:#000000;stroke-width:0.264583"
       id="path2009"
       d="" />
    <path
       style="color:#000000;fill:#000000;stroke-width:0.710338;-inkscape-stroke:none"
       d="m 80.896957,221.28807 c -0.08838,-2.06976 0,-12.76576 0,-12.76576 v -12.76577 h 8.802208 9.610856 c 2.216459,-13.25723 1.719819,-24.55329 2.234929,-34.96338 l 0.67778,-17.80109 -2.568488,-1.4205 c -2.425145,-1.34124 -3.070315,-4.92345 -2.571348,-8.97575 0.135773,-1.10209 0.57302,-3.41759 1.45914,-4.32138 0.18746,-0.19128 1.135308,-0.24353 1.188003,-1.59825 0.06145,-1.57864 2.357383,-1.76064 6.630343,-1.80568 2.90412,0.24906 4.20074,0.52313 5.11823,0.85755 1.44095,0.67362 2.53433,1.49675 2.30674,2.44809 -0.11795,0.49298 -0.74473,1.23549 -0.23785,2.1826 0.40443,0.75571 1.00356,2.85656 0.83048,4.87817 -0.23426,2.73599 -1.06035,4.9604 -2.1486,5.87858 -1.08821,0.9182 -2.05343,1.51818 -2.05343,1.51818 l -0.44435,17.50461 c -0.24436,9.62756 -0.63457,21.58019 -0.86712,26.56144 l -0.42281,9.05681 h 8.95846 8.95844 v 12.0575 c 0,0 0.285,9.44028 -0.23784,11.62939 -0.51128,4.05792 -16.76333,3.31614 -22.54053,3.35293 -7.579344,-0.13716 -22.594922,0.56146 -22.683243,-1.50829 z m 27.463993,-83.7039 c 1.35173,-1.89928 0.47692,-4.90501 -2.71976,-4.90501 -3.19669,0 -4.17531,2.84476 -3.01641,4.76108 1.15891,1.9163 4.38447,2.04323 5.73617,0.14396 z"
       id="path7144"
       sodipodi:nodetypes="zccccccssssccssszcsscccccczzzzzz" />
    <path
       d="m 25.532502,220.02442 -0.05125,-3.18477 3.807085,-0.205 4.114584,0.0512 -0.358753,-15.40411 c -0.24882,-10.68383 0.504038,-16.53161 0.860267,-16.53161 0.364427,0 -0.06225,-17.06615 -0.06225,-49.99045 0,-47.678334 1.685764,-50.031915 2.65087,-50.905307 0.863994,-0.781907 2.497782,-0.914808 11.245923,-0.914808 9.213583,0 10.326382,0.100879 11.149905,1.010849 0.837153,0.925081 0.914808,5.288552 0.914808,51.406816 0,33.22879 0.188292,50.39595 0.552765,50.39595 0.355792,0 0.55275,5.71184 0.55275,16.03006 v 16.03011 h 3.592954 3.592957 v 2.21102 2.21105 H 46.813806 25.532502 Z M 55.88321,206.80273 c 0.687767,-1.88688 -0.135564,-40.12788 -0.135564,-59.58921 0,-50.717701 0.701237,-59.535991 0.03656,-60.446254 -0.70834,-0.970108 -1.009368,-1.03846 -8.939705,-1.196331 -8.179095,-0.162786 -7.711028,0.463525 -8.640174,1.49019 -0.948041,1.047579 -0.993261,2.738148 -0.931307,59.936675 0.04418,40.83957 0.04133,58.76326 0.02687,60.39039 -0.01739,1.96193 4.462424,1.53975 10.108106,1.53359 5.64565,-0.006 7.787426,-0.23218 8.475208,-2.11905 z"
       style="color:#000000;fill:#000000;stroke-width:0.146252;-inkscape-stroke:none"
       id="path9235"
       sodipodi:nodetypes="ccccssscscsssccccccccssccccccs" />
    <g
       id="g12594">
      <g
         id="g12590">
        <path
           d="m 137.7628,218.84951 0.10252,-3.54355 4.01208,-0.1025 4.21708,-0.205 -0.3075,-14.21619 c -0.21915,-10.1316 -0.6228,-14.31871 1.37278,-15.65121 0.3031,-0.20239 -0.2616,-13.4402 -0.18756,-48.38569 0.074,-34.94548 -0.66088,-51.101898 0.88836,-53.290224 1.54925,-2.188325 8.81651,-1.623809 12.19012,-1.690444 4.31758,0.148381 10.64866,0.390085 12.35307,1.385477 1.70445,0.995392 0.88123,34.314571 0.88123,51.144201 0,16.82964 -0.5881,51.00016 -0.22604,51.04168 0.89371,0.10251 0.75777,5.83153 0.75777,15.95872 v 13.39617 h 3.25432 l 3.15184,0.1025 0.10251,4.05606 v 2.21105 h -21.28134 -21.2813 z m 31.19966,-12.8365 c 2.13915,-2.08106 -0.0521,-33.9439 0.3181,-61.01179 0.37015,-27.06786 1.33419,-56.896696 -0.58511,-58.865026 -1.37669,-1.411854 -17.33571,-1.519837 -18.14071,-0.50274 -0.80499,1.016719 -0.19922,40.297906 -0.19922,59.433636 0,53.2474 -0.11052,60.26279 0.65549,61.3563 0.82781,1.18186 3.75655,1.43351 9.33448,1.22853 4.41681,0.037 6.87066,0.06 8.61697,-1.63891 z"
           style="color:#000000;fill:#000000;stroke-width:0.146252;-inkscape-stroke:none"
           id="path9252"
           sodipodi:nodetypes="ccccsscscssssccccccccssscsccs" />
      </g>
    </g>
  </g>
</svg>
