<?xml version="1.0" encoding="UTF-8" standalone="no"?>
<!-- Created with Inkscape (http://www.inkscape.org/) -->

<svg
   width="165.58182mm"
   height="139.1916mm"
   viewBox="0 0 165.58182 139.1916"
   version="1.1"
   id="svg3720"
   inkscape:version="1.1 (c68e22c387, 2021-05-23)"
   sodipodi:docname="icon.svg"
   xmlns:inkscape="http://www.inkscape.org/namespaces/inkscape"
   xmlns:sodipodi="http://sodipodi.sourceforge.net/DTD/sodipodi-0.dtd"
   xmlns="http://www.w3.org/2000/svg"
   xmlns:svg="http://www.w3.org/2000/svg"
   xmlns:rdf="http://www.w3.org/1999/02/22-rdf-syntax-ns#"
   xmlns:cc="http://creativecommons.org/ns#"
   xmlns:dc="http://purl.org/dc/elements/1.1/">
  <defs
     id="defs3714" />
  <sodipodi:namedview
     id="base"
     pagecolor="#ffffff"
     bordercolor="#666666"
     borderopacity="1.0"
     inkscape:pageopacity="0.0"
     inkscape:pageshadow="2"
     inkscape:zoom="0.7"
     inkscape:cx="1130"
     inkscape:cy="507.14285"
     inkscape:document-units="mm"
     inkscape:current-layer="layer1"
     showgrid="false"
     inkscape:window-width="2560"
     inkscape:window-height="1378"
     inkscape:window-x="2729"
     inkscape:window-y="-615"
     inkscape:window-maximized="1"
     inkscape:pagecheckerboard="0" />
  <metadata
     id="metadata3717">
    <rdf:RDF>
      <cc:Work
         rdf:about="">
        <dc:format>image/svg+xml</dc:format>
        <dc:type
           rdf:resource="http://purl.org/dc/dcmitype/StillImage" />
      </cc:Work>
    </rdf:RDF>
  </metadata>
  <g
     inkscape:label="Laag 1"
     inkscape:groupmode="layer"
     id="layer1"
     transform="translate(-19.644666,-81.600464)">
    <path
       style="color:#000000;fill:#000000;stroke-width:1.28729;stroke-dashoffset:5.47045;-inkscape-stroke:none"
       d="m 67.104152,94.488012 c -1.151461,27.758678 -1.415963,87.358068 -0.677599,108.218638 23.341489,4.6054 40.309457,4.94761 65.305917,0.0189 1.87616,-26.54719 1.64977,-82.49261 0.80842,-107.666331 -13.44554,-2.824193 -40.168387,-6.039195 -65.436738,-0.571211 z m 1.762744,1.934162 c 22.722904,-4.85863 48.991104,-2.277452 61.901184,0.01671 0.15695,25.979672 0.61089,83.139102 -0.76829,104.885102 -22.81478,3.24907 -39.518483,3.26595 -61.67327,-0.72885 -0.285439,-23.75585 0.523078,-76.44923 0.540376,-104.172966 z"
       id="rect7933"
       sodipodi:nodetypes="ccccccccccc" />
    <path
       style="fill:#000000;stroke-width:0.264583"
       id="path2127"
       d="" />
    <path
       style="fill:#000000;stroke-width:0.264583"
       id="path2068"
       d="" />
    <path
       style="fill:#000000;stroke-width:0.264583"
       id="path2009"
       d="" />
    <path
       style="fill:#000000;stroke-width:0.340595"
       d="m 84.480728,217.78649 c -5.026589,-0.48238 -9.02932,-0.89644 -13.3084,-4.58965 -2.355669,-2.66316 -4.530824,-6.21091 -4.745775,-10.49019 22.231058,1.40946 44.624817,1.59942 65.305917,0.0189 -0.98173,4.63839 -2.88411,9.39206 -7.07391,12.06234 -4.44662,2.73644 -9.98087,2.71366 -15.03946,3.29859 -8.371,0.28999 -16.783666,0.3592 -25.138372,-0.29993 z m 36.925582,-4.46645 c 5.19649,-2.13268 7.78126,-6.93898 8.10899,-9.21609 -4.9404,0.90575 -19.82621,2.25738 -31.758438,2.71799 -11.430555,-0.69286 -22.272983,-1.92386 -28.433013,-2.76902 1.27086,2.79668 2.288939,5.8363 6.408278,8.91524 6.093703,3.48861 11.758367,2.76949 21.884399,3.20484 10.498404,-0.24427 16.604824,-0.16557 23.789784,-2.85296 z M 132.54089,95.059219 c -11.35663,-1.721582 -53.312969,-2.562111 -65.436738,-0.571211 2.491245,-7.803726 16.297935,-8.814241 31.449561,-9.355379 14.096467,0.708698 21.843097,1.078918 29.661557,4.520685 2.22195,1.331504 3.63644,1.962098 4.32562,5.405905 z m -2.00161,-0.711631 c -1.52338,-1.860344 -3.09121,-4.034536 -12.01379,-5.83408 -14.2815,-1.872038 -31.014528,-2.335912 -41.366352,0.449769 -5.312499,1.349461 -6.271636,2.99987 -7.78729,4.890049 18.517699,-3.927749 44.055452,-2.534502 61.167432,0.494262 z"
       id="path4228"
       sodipodi:nodetypes="ccccccccccccccccccccccccc" />
    <path
       style="fill:none;stroke:#000000;stroke-width:0.937147;stroke-linecap:butt;stroke-linejoin:miter;stroke-miterlimit:4;stroke-dasharray:none;stroke-opacity:1"
       d="m 66.885598,112.69841 c 18.796845,-3.9917 41.022912,-3.76777 64.518142,0"
       id="path6638"
       sodipodi:nodetypes="cc" />
    <path
       style="fill:none;stroke:#000000;stroke-width:0.937147;stroke-linecap:butt;stroke-linejoin:miter;stroke-miterlimit:4;stroke-dasharray:none;stroke-opacity:1"
       d="m 67.404595,100.76152 c 18.796846,-3.99171 41.022915,-3.767774 64.518155,0"
       id="path6638-1"
       sodipodi:nodetypes="cc" />
    <path
       style="fill:none;stroke:#000000;stroke-width:0.937147;stroke-linecap:butt;stroke-linejoin:miter;stroke-miterlimit:4;stroke-dasharray:none;stroke-opacity:1"
       d="m 67.529536,103.91053 c 18.796845,-3.991704 41.022914,-3.76776 64.518154,0"
       id="path6638-1-6"
       sodipodi:nodetypes="cc" />
    <path
       style="fill:none;stroke:#000000;stroke-width:0.937147;stroke-linecap:butt;stroke-linejoin:miter;stroke-miterlimit:4;stroke-dasharray:none;stroke-opacity:1"
       d="m 67.443519,108.08218 c 18.796844,-3.9917 41.022921,-3.76776 64.518151,0"
       id="path6638-1-6-2"
       sodipodi:nodetypes="cc" />
    <path
       style="fill:none;stroke:#000000;stroke-width:0.937147;stroke-linecap:butt;stroke-linejoin:miter;stroke-miterlimit:4;stroke-dasharray:none;stroke-opacity:1"
       d="m 67.916592,118.4898 c 18.796844,-3.9917 41.022908,-3.76777 64.518138,0"
       id="path6638-1-6-2-3"
       sodipodi:nodetypes="cc" />
    <path
       style="fill:none;stroke:#000000;stroke-width:0.937147;stroke-linecap:butt;stroke-linejoin:miter;stroke-miterlimit:4;stroke-dasharray:none;stroke-opacity:1"
       d="m 67.423623,98.428366 c 18.796846,-3.991704 41.022917,-3.767767 64.518237,0"
       id="path6638-1-8"
       sodipodi:nodetypes="cc" />
    <path
       style="fill:none;stroke:#000000;stroke-width:0.937147;stroke-linecap:butt;stroke-linejoin:miter;stroke-miterlimit:4;stroke-dasharray:none;stroke-opacity:1"
       d="m 131.0161,178.64316 c -18.79683,3.9917 -41.022902,3.76777 -64.518138,0"
       id="path6638-7"
       sodipodi:nodetypes="cc" />
    <path
       style="fill:none;stroke:#000000;stroke-width:0.937147;stroke-linecap:butt;stroke-linejoin:miter;stroke-miterlimit:4;stroke-dasharray:none;stroke-opacity:1"
       d="m 131.21192,191.43698 c -18.79685,3.9917 -41.022914,3.76776 -64.51815,0"
       id="path6638-1-9"
       sodipodi:nodetypes="cc" />
    <path
       style="fill:none;stroke:#000000;stroke-width:0.937147;stroke-linecap:butt;stroke-linejoin:miter;stroke-miterlimit:4;stroke-dasharray:none;stroke-opacity:1"
       d="m 131.24042,195.21075 c -18.79684,3.9917 -41.022917,3.76776 -64.518153,0"
       id="path6638-1-6-5"
       sodipodi:nodetypes="cc" />
    <path
       style="fill:none;stroke:#000000;stroke-width:0.937147;stroke-linecap:butt;stroke-linejoin:miter;stroke-miterlimit:4;stroke-dasharray:none;stroke-opacity:1"
       d="m 131.68091,198.31535 c -18.79684,3.99171 -41.02291,3.76777 -64.518145,0"
       id="path6638-1-6-2-8"
       sodipodi:nodetypes="cc" />
    <path
       style="fill:none;stroke:#000000;stroke-width:0.937147;stroke-linecap:butt;stroke-linejoin:miter;stroke-miterlimit:4;stroke-dasharray:none;stroke-opacity:1"
       d="m 131.16177,170.5241 c -18.79684,3.9917 -41.022906,3.76776 -64.518142,0"
       id="path6638-1-6-2-3-8"
       sodipodi:nodetypes="cc" />
    <path
       style="fill:none;stroke:#000000;stroke-width:0.937147;stroke-linecap:butt;stroke-linejoin:miter;stroke-miterlimit:4;stroke-dasharray:none;stroke-opacity:1"
       d="m 131.15978,185.4528 c -18.79685,3.99171 -41.022925,3.76778 -64.518238,0"
       id="path6638-1-8-3"
       sodipodi:nodetypes="cc" />
  </g>
</svg>
