<?xml version="1.0" encoding="UTF-8" standalone="no"?>
<!-- Created with Inkscape (http://www.inkscape.org/) -->

<svg
   width="165.58182mm"
   height="139.1916mm"
   viewBox="0 0 165.58182 139.1916"
   version="1.1"
   id="svg3720"
   inkscape:version="1.1 (c68e22c387, 2021-05-23)"
   sodipodi:docname="icon.svg"
   xmlns:inkscape="http://www.inkscape.org/namespaces/inkscape"
   xmlns:sodipodi="http://sodipodi.sourceforge.net/DTD/sodipodi-0.dtd"
   xmlns="http://www.w3.org/2000/svg"
   xmlns:svg="http://www.w3.org/2000/svg"
   xmlns:rdf="http://www.w3.org/1999/02/22-rdf-syntax-ns#"
   xmlns:cc="http://creativecommons.org/ns#"
   xmlns:dc="http://purl.org/dc/elements/1.1/">
  <defs
     id="defs3714">
    <filter
       id="mask-powermask-path-effect2939_inverse"
       inkscape:label="filtermask-powermask-path-effect2939"
       style="color-interpolation-filters:sRGB"
       height="100"
       width="100"
       x="-50"
       y="-50">
      <feColorMatrix
         id="mask-powermask-path-effect2939_primitive1"
         values="1"
         type="saturate"
         result="fbSourceGraphic" />
      <feColorMatrix
         id="mask-powermask-path-effect2939_primitive2"
         values="-1 0 0 0 1 0 -1 0 0 1 0 0 -1 0 1 0 0 0 1 0 "
         in="fbSourceGraphic" />
    </filter>
    <clipPath
       id="clipPath22"
       clipPathUnits="userSpaceOnUse">
      <path
         id="path20"
         d="M 0,0 H 1299 V 1300 H 0 Z" />
    </clipPath>
    <clipPath
       id="clipPath28"
       clipPathUnits="userSpaceOnUse">
      <path
         style="clip-rule:evenodd"
         id="path26"
         d="M 649.672,1300 C 290.871,1300 -0.00390625,1008.98 -0.00390625,650 -0.00390625,320.398 245.207,48.1289 563.055,5.76172 V 136.738 c 0,36.934 -23.282,70.133 -58.274,81.871 -183.39,61.629 -314.582,237.016 -309.754,442.352 5.883,249.992 209.418,446.539 459.336,444.019 249.004,-2.52 450.087,-205.257 450.087,-454.98 0,-5.691 -0.14,-11.355 -0.35,-16.992 -0.05,-1.262 -0.09,-2.528 -0.14,-3.797 -0.24,-5.234 -0.56,-10.461 -0.97,-15.656 -0.13,-1.653 -0.29,-3.301 -0.44,-4.942 -0.32,-3.633 -0.69,-7.226 -1.1,-10.82 -0.46,-4.094 -0.99,-8.145 -1.56,-12.188 -0.25,-1.843 -0.5,-3.691 -0.78,-5.527 C 1043.43,213.121 565.727,6.87109 563.109,5.75 591.434,1.98047 620.324,0 649.672,0 c 358.808,0 649.678,291.012 649.678,650 0,358.98 -290.87,650 -649.678,650" />
    </clipPath>
  </defs>
  <sodipodi:namedview
     id="base"
     pagecolor="#ffffff"
     bordercolor="#666666"
     borderopacity="1.0"
     inkscape:pageopacity="0.0"
     inkscape:pageshadow="2"
     inkscape:zoom="1.979899"
     inkscape:cx="393.45441"
     inkscape:cy="268.1955"
     inkscape:document-units="mm"
     inkscape:current-layer="layer1"
     showgrid="false"
     inkscape:window-width="2560"
     inkscape:window-height="1378"
     inkscape:window-x="2729"
     inkscape:window-y="-615"
     inkscape:window-maximized="1"
     inkscape:pagecheckerboard="0" />
  <metadata
     id="metadata3717">
    <rdf:RDF>
      <cc:Work
         rdf:about="">
        <dc:format>image/svg+xml</dc:format>
        <dc:type
           rdf:resource="http://purl.org/dc/dcmitype/StillImage" />
      </cc:Work>
    </rdf:RDF>
  </metadata>
  <g
     inkscape:label="Laag 1"
     inkscape:groupmode="layer"
     id="layer1"
     transform="translate(-19.644666,-81.600464)">
    <path
       style="fill:#000000;stroke-width:0.264583"
       id="path2127"
       d="" />
    <path
       style="fill:#000000;stroke-width:0.264583"
       id="path2068"
       d="" />
    <path
       style="fill:#000000;stroke-width:0.264583"
       id="path2009"
       d="" />
    <path
       sodipodi:type="spiral"
       style="fill:none;fill-rule:evenodd;stroke:#000000;stroke-width:2.51339;stroke-miterlimit:4;stroke-dasharray:60.3213, 2.51339;stroke-dashoffset:7.03748"
       id="path7563"
       sodipodi:cx="374.28571"
       sodipodi:cy="54.285713"
       sodipodi:expansion="0.28"
       sodipodi:revolution="15"
       sodipodi:radius="153.27213"
       sodipodi:argument="-18.32752"
       sodipodi:t0="0"
       d="m 374.28571,54.285713 c 41.95406,24.134824 6.06321,53.147257 -24.28695,42.218492 -28.69541,-10.332918 -39.22708,-45.211636 -26.97453,-71.707571 14.56176,-31.4895652 53.86118,-43.116201 84.2959,-27.9353473 33.97016,16.9443283 46.42574,59.9530953 29.207,93.2299163 C 417.84655,126.19317 371.75397,139.35497 336.17172,120.54005 298.20411,100.46382 284.42013,51.724774 304.56126,14.175482 325.81872,-25.454993 376.88653,-39.797768 416.16509,-18.514084 457.29981,3.7753896 472.15142,56.930879 449.85892,97.760555 426.64814,140.2721 371.5946,155.592 329.35319,132.39283 285.56952,108.34664 269.81503,51.548466 293.84003,8.0079012 318.65273,-36.960209 377.06857,-53.120816 421.81515,-28.335709 467.89307,-2.8131774 484.43537,57.113313 458.94477,102.98735 432.75997,150.1107 371.41444,167.01349 324.48025,140.86357 276.36763,114.05709 259.12297,51.371928 285.89256,3.4359813 313.28563,-45.616413 377.24085,-63.186464 426.1273,-35.831607 c 49.9482,27.9489618 67.82892,93.112665 39.91902,142.904247 -28.47774,50.80462 -94.79505,68.9828 -145.45125,40.54461 C 268.96953,118.63487 250.50586,51.213272 279.44844,-0.27111569 308.91378,-52.685409 377.39513,-71.423696 429.67474,-41.998198 c 53.17372,29.92874 72.17668,99.42933 42.2877,152.474198 -30.37437,53.90628 -100.85722,73.16479 -154.63991,42.82999 C 262.70837,122.50221 243.20271,51.071055 273.9672,-3.4242993 305.18549,-58.723525 377.5337,-78.468551 432.71849,-47.289212 c 55.96318,31.619121 75.94035,104.855447 44.35982,160.708202 -32.00728,56.60749 -106.1049,76.81009 -162.60566,44.841 C 257.23914,125.87631 236.81739,50.942377 269.16331,-6.1878217 301.91246,-64.03023 377.6594,-84.665255 435.40167,-51.953433 493.83695,-18.849012 514.67974,57.689105 481.61221,116.0272 448.16207,175.04029 370.85324,196.08566 311.93459,162.67195 252.35787,128.88505 231.1148,50.824768 264.86572,-8.6600885 298.98096,-68.787061 377.77456,-90.223207 437.81208,-56.143503 498.47667,-21.707855 520.10153,57.80193 485.70097,118.37933 450.95241,179.56956 370.74265,201.379 309.63746,166.66509 247.93295,131.6107 225.94286,50.71631 260.96303,-10.905177 c 35.35351,-62.208014 116.91795,-84.375027 179.04484,-49.055311 62.70126,35.646245 85.04164,117.866879 49.42876,180.488828 -35.93293,63.18472 -118.79657,85.69507 -181.9037,49.7951 -63.65886,-36.21385 -86.33596,-119.707916 -50.15466,-183.290814 36.48927,-64.124102 120.60176,-86.964849 184.65145,-50.507729 64.58082,36.759445 87.58226,121.47889 50.85457,185.986773 -37.0246,65.02938 -122.34003,88.18868 -187.29788,51.19545 -65.47014,-37.28497 -88.78458,-123.185858 -51.53061,-188.585808 37.54074,-65.90339 124.01701,-89.370362 189.8515,-51.860262 66.32945,37.792108 89.94645,124.834089 52.18463,191.09587 -38.03925,66.74857 -125.63764,90.51319 -192.31973,52.50388 -67.16105,-38.28232 -91.07097,-126.428181 -52.81825,-193.52388 38.52149,-67.567114 127.20622,-91.6201 194.70907,-53.127873 67.967,38.756897 92.1609,127.972209 53.43294,195.875993 -38.98869,68.36093 -128.72659,92.69365 -197.02531,53.73359 -68.7491,-39.21698 -93.21865,-129.469764 -54.02998,-198.157628 39.44191,-69.131729 130.20213,-93.736172 199.27355,-54.322267 69.50898,39.663589 94.24644,130.924057 54.61056,200.373635 -39.88212,69.88105 -131.63589,94.7497 -201.4584,54.895 -70.24809,-40.09762 -95.24619,-132.337956 -55.1757,-202.528349 40.31018,-70.610263 133.03058,-95.736111 203.58395,-55.452786 70.96773,40.5199 96.21967,133.714047 55.72636,204.625675 -40.72686,71.32061 -134.38865,96.69706 -205.65392,55.99652 C 227.27799,144.31728 201.7786,50.193774 242.68369,-21.420697 283.81654,-93.43393 378.39601,-119.05477 450.35535,-77.947722 522.70856,-36.615678 548.44938,58.414171 507.1429,130.71418"
       transform="matrix(0.28181061,0,0,0.28181061,-7.2649353,124.22346)" />
    <path
       style="fill:#000000;stroke-width:0.0652098"
       d="m 153.29528,216.77212 c -4.09475,-0.42369 -8.70415,-2.2984 -10.24283,-6.43908 -0.36386,-4.73018 -0.10983,-9.50269 -0.191,-14.24966 0.0441,-10.73626 -0.0978,-21.47533 0.0896,-32.20972 0.49154,-3.46137 3.95949,-5.56361 7.03381,-6.51168 3.66452,-1.04844 7.68587,-0.98585 11.30282,0.23129 2.94814,1.09531 6.27955,3.38769 6.3279,6.85355 0.0814,15.15942 0.12761,30.32163 -0.0275,45.48011 -1.01714,3.83115 -5.04347,5.8656 -8.65328,6.58619 -1.8485,0.32638 -3.76983,0.42197 -5.63953,0.259 z m 3.84738,-0.90079 c 3.6142,-0.40314 7.56232,-1.83904 9.28819,-5.28766 0.72795,-1.81122 0.23041,-3.85545 0.39261,-5.77139 0.0205,-13.65167 0.0949,-27.3058 -0.0747,-40.95611 -0.98923,-3.84857 -5.17769,-5.52535 -8.73349,-6.11949 -4.46202,-0.66165 -9.59264,0.12094 -12.8205,3.5179 -1.7905,1.67655 -1.46927,4.1597 -1.48674,6.35997 -0.0171,14.12057 -0.0866,28.24579 0.16437,42.3635 1.38701,3.77162 5.64708,5.44234 9.36456,5.86709 1.29079,0.19399 2.60922,0.11259 3.90569,0.0262 z m -2.96704,-4.84816 c -3.9309,-0.73624 -6.76911,-4.94023 -5.74903,-8.84683 0.88613,-4.68496 6.82552,-7.35012 10.89569,-4.84776 3.60783,1.88839 4.995,6.91745 2.68677,10.32898 -1.62269,2.64701 -4.80794,3.91067 -7.83343,3.36561 z m 2.61999,-0.86696 c 4.15767,-0.52921 6.80056,-5.60934 4.72909,-9.283 -1.7581,-3.63958 -6.99212,-4.73886 -10.04294,-2.07658 -3.17222,2.4262 -3.09406,7.73556 0.1559,10.05843 1.43523,1.13658 3.35377,1.63412 5.15795,1.30115 z m -2.78302,-15.42173 c -4.69605,-0.61731 -7.58193,-6.38702 -5.34277,-10.5329 1.52042,-3.17199 5.36214,-4.80552 8.72199,-3.8377 4.081,1.01923 6.57864,5.90461 4.90258,9.79095 -0.58624,2.21907 -2.87322,3.59583 -4.88291,4.41109 -1.09605,0.29641 -2.27539,0.22382 -3.39889,0.16856 z m 2.31102,-0.85576 c 3.85857,-0.4672 6.63959,-4.80058 5.22708,-8.48173 -1.24614,-4.11917 -6.9299,-5.83784 -10.21463,-3.01959 -3.2217,2.31994 -3.38485,7.60606 -0.19277,10.02332 1.42163,1.17098 3.34439,1.80647 5.18032,1.478 z m -2.44144,-16.49133 c -4.41432,-0.84043 -7.22519,-6.18515 -5.16972,-10.24589 1.68337,-3.75119 6.7097,-5.60597 10.30057,-3.40456 2.98308,1.3926 4.54494,4.92193 3.76366,8.08057 -0.65157,3.91803 -5.16583,6.39486 -8.89451,5.56988 z m 2.80402,-0.83903 c 3.88819,-0.57274 6.55985,-5.13407 4.90219,-8.77464 -1.51737,-4.26962 -7.73712,-5.44558 -10.76022,-2.11309 -2.45856,2.41138 -2.50161,6.75496 0.0818,9.09866 1.47879,1.5328 3.70025,2.14873 5.77626,1.78907 z"
       id="path2423" />
    <g
       transform="matrix(0.24895383,0,0,-0.24895383,24.571763,215.27746)"
       id="g10">
      <g
         transform="scale(0.1)"
         id="g12">
        <path
           id="path14"
           style="fill:#5fcaf4;fill-opacity:1;fill-rule:evenodd;stroke:none"
           d="M 649.672,1300 C 290.871,1300 -0.00390625,1008.98 -0.00390625,650 -0.00390625,320.398 245.207,48.1289 563.055,5.76172 V 136.738 c 0,36.934 -23.282,70.133 -58.274,81.871 -183.39,61.629 -314.582,237.016 -309.754,442.352 5.883,249.992 209.418,446.539 459.336,444.019 249.004,-2.52 450.087,-205.257 450.087,-454.98 0,-5.691 -0.14,-11.355 -0.35,-16.992 -0.05,-1.262 -0.09,-2.528 -0.14,-3.797 -0.24,-5.234 -0.56,-10.461 -0.97,-15.656 -0.13,-1.653 -0.29,-3.301 -0.44,-4.942 -0.32,-3.633 -0.69,-7.226 -1.1,-10.82 -0.46,-4.094 -0.99,-8.145 -1.56,-12.188 -0.25,-1.843 -0.5,-3.691 -0.78,-5.527 C 1043.43,213.121 565.727,6.87109 563.109,5.75 591.434,1.98047 620.324,0 649.672,0 c 358.808,0 649.678,291.012 649.678,650 0,358.98 -290.87,650 -649.678,650" />
        <g
           id="g16">
          <g
             clip-path="url(#clipPath22)"
             id="g18">
            <g
               clip-path="url(#clipPath28)"
               id="g24">
              <path
                 id="path30"
                 style="fill:#5fcaf4;fill-opacity:1;fill-rule:nonzero;stroke:none"
                 d="M -98.6406,-98.6406 H 1397.99 V 1398.64 H -98.6406 V -98.6406" />
            </g>
          </g>
        </g>
      </g>
    </g>
  </g>
</svg>
