<?xml version="1.0" encoding="UTF-8" standalone="no"?>
<!-- Created with Inkscape (http://www.inkscape.org/) -->

<svg
   width="165.58182mm"
   height="139.1916mm"
   viewBox="0 0 165.58182 139.1916"
   version="1.1"
   id="svg3720"
   inkscape:version="1.1 (c68e22c387, 2021-05-23)"
   sodipodi:docname="icon.svg"
   xmlns:inkscape="http://www.inkscape.org/namespaces/inkscape"
   xmlns:sodipodi="http://sodipodi.sourceforge.net/DTD/sodipodi-0.dtd"
   xmlns="http://www.w3.org/2000/svg"
   xmlns:svg="http://www.w3.org/2000/svg"
   xmlns:rdf="http://www.w3.org/1999/02/22-rdf-syntax-ns#"
   xmlns:cc="http://creativecommons.org/ns#"
   xmlns:dc="http://purl.org/dc/elements/1.1/">
  <defs
     id="defs3714" />
  <sodipodi:namedview
     id="base"
     pagecolor="#ffffff"
     bordercolor="#666666"
     borderopacity="1.0"
     inkscape:pageopacity="0.0"
     inkscape:pageshadow="2"
     inkscape:zoom="0.49497475"
     inkscape:cx="1496.0359"
     inkscape:cy="84.852813"
     inkscape:document-units="mm"
     inkscape:current-layer="layer1"
     showgrid="false"
     inkscape:window-width="2560"
     inkscape:window-height="1378"
     inkscape:window-x="2729"
     inkscape:window-y="-615"
     inkscape:window-maximized="1"
     inkscape:pagecheckerboard="0" />
  <metadata
     id="metadata3717">
    <rdf:RDF>
      <cc:Work
         rdf:about="">
        <dc:format>image/svg+xml</dc:format>
        <dc:type
           rdf:resource="http://purl.org/dc/dcmitype/StillImage" />
      </cc:Work>
    </rdf:RDF>
  </metadata>
  <g
     inkscape:label="Laag 1"
     inkscape:groupmode="layer"
     id="layer1"
     transform="translate(-19.644666,-81.600464)">
    <path
       style="fill:#000000;stroke-width:0.264583"
       id="path2127"
       d="" />
    <path
       style="fill:#000000;stroke-width:0.264583"
       id="path2068"
       d="" />
    <path
       style="fill:#000000;stroke-width:0.264583"
       id="path2009"
       d="" />
    <path
       style="color:#000000;fill:#000000;stroke-width:0.492822;-inkscape-stroke:none"
       d="m 145.35931,218.45596 c 0.0613,-1.43597 0,-8.85672 0,-8.85672 v -8.85671 h -6.10686 -6.66787 c -1.53775,-9.19769 -1.19319,-17.03474 -1.55057,-24.25712 l -0.47023,-12.35016 1.78199,-0.98553 c 1.68252,-0.93053 2.13013,-3.41581 1.78396,-6.22725 -0.0942,-0.76461 -0.39756,-2.37108 -1.01234,-2.99812 -0.13005,-0.1327 -0.78766,-0.16895 -0.82422,-1.10884 -0.0426,-1.09524 -1.63551,-1.22151 -4.60004,-1.25275 -2.01484,0.17279 -2.91441,0.36294 -3.55095,0.59495 -0.99971,0.46735 -1.75828,1.03843 -1.60039,1.69846 0.0819,0.34202 0.51669,0.85715 0.16501,1.51426 -0.28058,0.52429 -0.69624,1.98184 -0.57617,3.3844 0.16253,1.89819 0.73566,3.44145 1.49068,4.07848 0.75498,0.63704 1.42463,1.0533 1.42463,1.0533 l 0.30829,12.14446 c 0.16954,6.67947 0.44025,14.97204 0.6016,18.42797 l 0.29333,6.28349 h -6.21525 -6.21525 v 8.36532 c 0,0 -0.19773,6.54955 0.16502,8.06832 0.35472,2.81533 11.63017,2.30069 15.63831,2.32622 5.25843,-0.0952 15.67604,0.38952 15.73732,-1.04643 z m -19.05414,-58.07264 c -0.93781,-1.3177 -0.33088,-3.40302 1.88692,-3.40302 2.21783,0 2.89677,1.97365 2.09275,3.30316 -0.80403,1.3295 -3.04189,1.41757 -3.97967,0.0999 z"
       id="path7144"
       sodipodi:nodetypes="zccccccssssccssszcsscccccczzzzzz" />
    <path
       style="fill:#000000;stroke-width:0.45697"
       d="m 36.599595,82.983707 c 37.566144,3.756879 41.273742,4.678516 65.627095,7.655899 1.77298,-0.149103 5.01458,-2.17582 5.52036,-2.867524 0.3209,-0.438851 0.58345,-0.640014 0.58345,-0.447025 0,0.192987 0.5141,-0.260077 1.14243,-1.006808 0.62834,-0.746732 1.14242,-1.585054 1.14242,-1.86294 0,-0.277885 0.22963,-0.505246 0.51026,-0.505246 0.28065,0 0.40954,0.385205 0.28642,0.856009 -0.16973,0.649093 -0.0246,0.803899 0.60053,0.640426 0.47898,-0.12526 0.72143,-0.483918 0.57865,-0.856008 -0.14794,-0.385525 0.0465,-0.640427 0.48859,-0.640427 0.47866,0 0.73434,0.397779 0.73434,1.142425 0,0.954256 -0.21686,1.142423 -1.31668,1.142423 -0.96024,0 -1.63729,0.420374 -2.50113,1.552916 l -1.18447,1.552915 1.13023,0.28367 c 0.62163,0.156018 2.10945,1.421674 2.10945,1.765349 18.66254,2.703613 21.77518,2.73521 49.28744,5.457166 v 72.868513 c -58.85341,1.03346 -60.94348,1.19674 -126.833545,2.18495 1.485877,-44.8817 1.0818,-47.36611 2.09416,-88.916683 z M 158.83381,167.3307 c 0.94407,-32.33225 0.88739,-34.33836 0.5957,-68.448553 -47.90494,-5.297313 -52.20722,-5.659078 -119.920197,-13.390611 -0.629626,38.491494 -0.266731,39.908284 -1.306571,83.482484 54.975017,-0.92605 56.252001,-0.9089 120.631068,-1.64332 z"
       id="path17433"
       sodipodi:nodetypes="ccsssssssssssscscccccccccc" />
    <path
       d="m 69.123191,219.73079 c -6.742818,-0.18717 -11.492629,-1.76293 -16.87596,-4.02542 -2.779484,-1.30864 -4.368298,-2.27465 -5.887312,-3.91371 -0.842649,-0.90922 -1.035479,-1.60992 -0.977754,-2.86837 0.04391,-0.95739 0.242152,-1.6721 1.852475,-1.80537 1.741076,0.34234 1.713628,-0.77821 1.713628,-0.77821 -0.556392,-1.44248 1.266163,-3.09166 4.068542,-4.96632 2.612456,-1.74763 3.593474,-2.11247 7.355705,-2.73553 6.491462,-1.07501 15.61382,-1.05731 19.918008,-0.76801 5.835932,1.01896 9.406177,2.47594 13.7835,5.26017 1.202517,1.11425 1.760561,0.74981 1.485154,4.70995 -0.1419,2.04043 -0.134101,3.50772 -0.36233,4.36642 -0.744265,2.80025 -2.475577,4.69076 -8.6995,6.35395 -4.798162,1.2822 -11.745112,1.21115 -17.374156,1.17045 z m -4.185277,-3.73348 c -0.742422,0.37368 -0.796863,1.16316 -0.391744,2.15499 1.487616,0.49289 6.756568,0.84745 8.165071,0.58707 0.563995,-0.70761 0.787612,-1.35898 0.214026,-2.0626 -1.604652,-0.88589 -5.94866,-0.71151 -7.987353,-0.67946 z m 21.186344,1.09754 c 2.035747,-0.50764 1.212825,-1.79968 0.983452,-2.47217 -0.362473,-1.06272 -1.487393,-0.40591 -2.346895,-0.14218 -1.335246,0.51366 -2.491419,0.84261 -4.368204,1.28282 -1.772767,0.29982 -2.895477,0.31543 -4.88544,0.51193 -1.689676,0.16687 -0.725217,1.0851 -0.696699,2.18814 4.017119,0.26041 7.01653,-0.49978 11.313786,-1.36854 z m -23.545599,-1.51394 c -1.732141,-0.59427 -4.329859,-1.62574 -6.505392,-2.05995 -0.830759,0.28523 -1.245792,0.61855 -0.969298,1.79638 1.362667,0.89616 5.223014,2.45948 7.175346,2.35142 0.850187,-0.33309 0.855406,-1.45911 0.299344,-2.08785 z m 28.97099,-1.28676 c 1.515849,-1.65519 2.561123,-1.74999 2.624102,-3.75946 -0.01347,-0.92037 -0.271459,-1.9742 -0.835789,-1.23082 -0.765044,0.81442 -2.078034,2.0772 -3.648231,3.1908 -0.959803,0.56288 -0.809619,1.60866 -0.377148,2.70651 0,0.6743 0.532106,0.18984 2.23708,-0.90703 z m -14.644553,-0.61662 c 4.110522,-0.53941 6.24747,-1.37473 9.303151,-2.47619 1.837431,-0.63544 3.338201,-1.52141 3.166271,-2.45644 -0.07977,-1.13129 -2.560825,-1.14074 -4.449444,-0.86645 -2.625931,0.28765 -4.277059,0.89182 -7.366245,1.36371 -2.921845,0.87568 -4.334074,-0.18352 -6.389577,3.3839 -0.932465,2.04842 1.836759,1.62603 5.735844,1.05147 z m -23.412676,1.04202 c 0.538632,-0.72754 1.105782,-1.52584 0.438249,-2.22781 -1.515852,-0.81675 -3.053696,-2.26965 -4.045401,-3.3613 -1.007227,-0.29849 -1.7273,0.89763 -1.575049,1.68077 0.07043,1.49499 0.802847,1.6675 1.741922,2.24007 1.6275,0.99233 2.103234,1.47061 3.440279,1.66827 z m 14.446157,-3.42487 c 0.401955,-1.9782 -2.995162,-3.67147 -4.577558,-4.01768 -1.856594,-0.55038 -5.243288,-0.92027 -8.530451,-0.67126 -2.201638,1.30571 -0.728382,2.2347 0.315966,3.26453 1.346176,1.32746 5.081805,2.48892 6.547438,2.48892 3.065616,0.54796 5.050992,0.82503 6.244605,-1.06451 z m 21.356334,-6.91555 c -0.797023,-1.94427 -6.410539,-3.5502 -8.972525,-4.18405 -3.682152,-0.84843 -5.051542,0.25269 -2.984494,2.39981 2.056297,1.23579 4.205682,3.06081 7.258031,3.20219 2.412794,0.48823 3.852313,-0.17252 4.698988,-1.41795 z m -16.76686,-2.70949 c 2.135894,-4.75412 -10.344863,-0.9524 -11.713459,-1.08286 -1.825596,0.51542 -6.937576,1.99145 -5.857321,3.23974 4.879093,1.77693 14.261221,0.61676 17.57078,-2.15688 z"
       style="fill:#000000;stroke-width:0.120907"
       id="path17558"
       sodipodi:nodetypes="ccsscsscccssscccccccsccsccccccccccccsccccccccccccsccccsccccccccccc" />
  </g>
</svg>
