<?xml version="1.0" encoding="UTF-8" standalone="no"?>
<!-- Created with Inkscape (http://www.inkscape.org/) -->

<svg
   width="165.58182mm"
   height="139.1916mm"
   viewBox="0 0 165.58182 139.1916"
   version="1.1"
   id="svg3720"
   inkscape:version="1.1 (c68e22c387, 2021-05-23)"
   sodipodi:docname="icon.svg"
   xmlns:inkscape="http://www.inkscape.org/namespaces/inkscape"
   xmlns:sodipodi="http://sodipodi.sourceforge.net/DTD/sodipodi-0.dtd"
   xmlns="http://www.w3.org/2000/svg"
   xmlns:svg="http://www.w3.org/2000/svg"
   xmlns:rdf="http://www.w3.org/1999/02/22-rdf-syntax-ns#"
   xmlns:cc="http://creativecommons.org/ns#"
   xmlns:dc="http://purl.org/dc/elements/1.1/">
  <defs
     id="defs3714" />
  <sodipodi:namedview
     id="base"
     pagecolor="#ffffff"
     bordercolor="#666666"
     borderopacity="1.0"
     inkscape:pageopacity="0.0"
     inkscape:pageshadow="2"
     inkscape:zoom="0.7"
     inkscape:cx="110"
     inkscape:cy="241.42857"
     inkscape:document-units="mm"
     inkscape:current-layer="layer1"
     showgrid="false"
     inkscape:window-width="1368"
     inkscape:window-height="850"
     inkscape:window-x="-6"
     inkscape:window-y="-6"
     inkscape:window-maximized="1"
     inkscape:pagecheckerboard="0" />
  <metadata
     id="metadata3717">
    <rdf:RDF>
      <cc:Work
         rdf:about="">
        <dc:format>image/svg+xml</dc:format>
        <dc:type
           rdf:resource="http://purl.org/dc/dcmitype/StillImage" />
      </cc:Work>
    </rdf:RDF>
  </metadata>
  <g
     inkscape:label="Laag 1"
     inkscape:groupmode="layer"
     id="layer1"
     transform="translate(-19.644666,-81.600464)">
    <path
       style="color:#000000;fill:#000000;stroke-width:1.13514;stroke-dashoffset:5.47045;-inkscape-stroke:none"
       d="m 66.975165,109.12196 c -1.015362,24.47769 -1.248601,77.03261 -0.597509,95.42752 20.582594,4.06105 35.544994,4.36282 57.586954,0.0167 1.6544,-23.4094 1.45477,-72.74223 0.71286,-94.94049 -11.85631,-2.49039 -35.420599,-5.32538 -57.702305,-0.5037 z m 1.554392,1.70555 c 20.037124,-4.28435 43.200503,-2.00826 54.584643,0.0147 0.1384,22.90895 0.53869,73.3123 -0.67748,92.48799 -20.11814,2.86504 -34.847511,2.87993 -54.383668,-0.6427 -0.251701,-20.94798 0.461252,-67.41316 0.476505,-91.86003 z"
       id="rect7933"
       sodipodi:nodetypes="ccccccccccc" />
    <path
       style="fill:#000000;stroke-width:0.23331"
       id="path2127"
       d="" />
    <path
       style="fill:#000000;stroke-width:0.23331"
       id="path2068"
       d="" />
    <path
       style="fill:#000000;stroke-width:0.23331"
       id="path2009"
       d="" />
    <path
       style="fill:#000000;stroke-width:0.300338"
       d="m 82.297881,217.84693 c -4.432461,-0.42537 -7.962081,-0.79049 -11.735387,-4.04717 -2.077236,-2.34838 -3.995294,-5.4768 -4.184838,-9.25028 19.603412,1.24287 39.350294,1.41037 57.586954,0.0167 -0.8657,4.09014 -2.54322,8.28194 -6.2378,10.6366 -3.92104,2.413 -8.80116,2.39292 -13.26184,2.90871 -7.381571,0.25571 -14.799885,0.31674 -22.167089,-0.26448 z m 32.561089,-3.93853 c 4.58228,-1.88061 6.86154,-6.11882 7.15053,-8.12678 -4.35646,0.7987 -17.48281,1.99057 -28.004685,2.39673 -10.079497,-0.61096 -19.640382,-1.69646 -25.072315,-2.44173 1.120648,2.46612 2.018393,5.14647 5.650838,7.86149 5.373446,3.07627 10.368563,2.44214 19.297728,2.82604 9.257524,-0.2154 14.642184,-0.146 20.977904,-2.51575 z m 9.8185,-104.28274 c -10.01431,-1.5181 -47.01153,-2.25928 -57.702305,-0.5037 2.196787,-6.88135 14.371567,-7.77242 27.732316,-8.2496 12.430309,0.62493 19.261309,0.95139 26.155649,3.98635 1.95932,1.17413 3.20662,1.73019 3.81434,4.76695 z m -1.76502,-0.62752 c -1.34332,-1.64046 -2.72584,-3.55767 -10.5938,-5.14451 -12.593466,-1.65077 -27.3487,-2.05982 -36.476969,0.39661 -4.684577,1.18996 -5.530347,2.64529 -6.866855,4.31206 16.328961,-3.4635 38.848224,-2.23494 53.937624,0.43584 z"
       id="path4228"
       sodipodi:nodetypes="ccccccccccccccccccccccccc" />
  </g>
</svg>
