<?xml version="1.0" encoding="UTF-8" standalone="no"?>
<!-- Created with Inkscape (http://www.inkscape.org/) -->

<svg
   width="100mm"
   height="100mm"
   viewBox="0 0 100 100"
   version="1.1"
   id="svg12933"
   inkscape:version="1.1.1 (3bf5ae0d25, 2021-09-20)"
   sodipodi:docname="add_list_type_device_6008.svg"
   xmlns:inkscape="http://www.inkscape.org/namespaces/inkscape"
   xmlns:sodipodi="http://sodipodi.sourceforge.net/DTD/sodipodi-0.dtd"
   xmlns="http://www.w3.org/2000/svg"
   xmlns:svg="http://www.w3.org/2000/svg">
  <sodipodi:namedview
     id="namedview12935"
     pagecolor="#ffffff"
     bordercolor="#666666"
     borderopacity="1.0"
     inkscape:pageshadow="2"
     inkscape:pageopacity="0.0"
     inkscape:pagecheckerboard="true"
     inkscape:document-units="mm"
     showgrid="false"
     width="100mm"
     inkscape:zoom="0.58974467"
     inkscape:cx="378.97757"
     inkscape:cy="100.0433"
     inkscape:window-width="1440"
     inkscape:window-height="890"
     inkscape:window-x="-6"
     inkscape:window-y="-6"
     inkscape:window-maximized="1"
     inkscape:current-layer="layer1" />
  <defs
     id="defs12930" />
  <g
     inkscape:label="Laag 1"
     inkscape:groupmode="layer"
     id="layer1">
    <g
       id="g12949"
       transform="translate(-4.0377639)">
      <path
         style="fill:#d0d0d0;fill-opacity:1;stroke-width:0.605218"
         d="m 19.157304,93.618088 c 0,-0.322418 0.408522,-0.429457 0.907827,-0.237857 0.499305,0.191606 0.907827,0.455402 0.907827,0.586226 0,0.130818 -0.408522,0.237857 -0.907827,0.237857 -0.499305,0 -0.907827,-0.263802 -0.907827,-0.586226 z M 49.55211,89.9122 c 1.238698,-0.28792 2.839925,-0.306064 3.558283,-0.04031 0.91595,0.338831 0.243189,0.495201 -2.252179,0.523483 -3.29461,0.03734 -3.391394,0.0018 -1.306104,-0.483158 z M 14.238364,88.908658 c -0.752813,-0.959911 -0.731407,-0.981318 0.228503,-0.228506 0.582522,0.456849 1.059131,0.933458 1.059131,1.059132 0,0.498118 -0.496997,0.177516 -1.287634,-0.830626 z m 42.745051,-0.756522 c -0.205725,-0.33287 -0.08562,-0.605218 0.266891,-0.605218 0.352515,0 0.640936,0.272348 0.640936,0.605218 0,0.33287 -0.120101,0.605218 -0.266891,0.605218 -0.14679,0 -0.435211,-0.272348 -0.640936,-0.605218 z m -11.310007,-0.41343 c 0.436892,-0.174829 0.958892,-0.153332 1.160001,0.04775 0.201109,0.201107 -0.156348,0.344151 -0.794348,0.317872 -0.705044,-0.02905 -0.848455,-0.172451 -0.365653,-0.365648 z m 7.141165,-0.08228 c -0.168501,-0.272639 0.496296,-0.377898 1.477326,-0.233917 0.981029,0.143987 1.78369,0.367052 1.78369,0.49571 0,0.461163 -2.961122,0.223446 -3.261016,-0.261793 z M 9.6142322,84.52083 c 0,-1.165045 0.1245508,-1.641654 0.27678,-1.059132 0.1522288,0.582523 0.1522288,1.535741 0,2.118263 -0.1522292,0.582522 -0.27678,0.105913 -0.27678,-1.059131 z m 18.7617508,0 c 0,-1.165045 0.124551,-1.641654 0.27678,-1.059132 0.152229,0.582523 0.152229,1.535741 0,2.118263 -0.152229,0.582522 -0.27678,0.105913 -0.27678,-1.059131 z m 25.12743,0.809611 c 0.416087,-0.167893 1.096957,-0.167893 1.513045,0 0.416087,0.167894 0.07565,0.305266 -0.756523,0.305266 -0.832174,0 -1.172609,-0.137372 -0.756522,-0.305266 z M 42.922775,83.663157 c 0.07735,-0.63816 0.549154,-1.271677 1.048458,-1.407815 0.5839,-0.159215 0.670269,-0.06913 0.242053,0.252455 -0.366175,0.274992 -0.837981,0.90851 -1.048458,1.407815 -0.268888,0.637869 -0.340866,0.562798 -0.242053,-0.252455 z m 4.377156,-0.973795 c -0.808245,-0.357878 -0.305507,-0.416305 1.513044,-0.175852 1.497914,0.198057 2.836959,0.458386 2.975655,0.578497 0.525709,0.455275 -3.332816,0.109157 -4.488699,-0.402645 z m 5.423104,0.05441 c 0.218846,-0.354095 1.380437,-0.643813 2.581315,-0.643813 2.670826,0 2.440527,0.30684 -0.650076,0.86614 -1.585937,0.287 -2.202175,0.216062 -1.931239,-0.222321 z m -9.58486,-3.390696 c -0.207558,-0.540883 -0.349499,-1.573936 -0.315427,-2.29567 0.03916,-0.829566 0.244735,-0.534601 0.558886,0.80192 0.528671,2.249182 0.384907,3.131251 -0.243459,1.49375 z m 3.711019,-0.581814 c 0.159081,-0.832175 0.393662,-1.513045 0.521291,-1.513045 0.127631,0 0.232055,0.68087 0.232055,1.513045 0,0.832174 -0.234581,1.513044 -0.521291,1.513044 -0.286711,0 -0.391135,-0.68087 -0.232055,-1.513044 z m 6.603785,1.109564 C 53.231065,79.658915 53.0495,78.864567 53.0495,78.11561 c 0,-0.748957 -0.279157,-1.500183 -0.620348,-1.669396 -0.341192,-0.169207 -0.273105,-0.238989 0.151304,-0.155063 0.424409,0.08392 0.856209,0.863742 0.959555,1.732932 0.103346,0.86919 0.648042,1.701727 1.210436,1.850078 0.85843,0.226442 0.868745,0.280997 0.06427,0.339939 -0.527045,0.03861 -1.139828,-0.11136 -1.36174,-0.333275 z M 18.098173,75.025368 c 0.582522,-0.152224 1.53574,-0.152224 2.118262,0 0.582523,0.152231 0.105914,0.276784 -1.059131,0.276784 -1.165044,0 -1.641653,-0.124553 -1.059131,-0.276784 z M 47.60254,58.874796 v -7.451512 l 2.732968,0.09634 c 1.503133,0.05299 3.010716,0.374084 3.350184,0.713553 0.366567,0.366566 0.547045,3.299738 0.444424,7.222863 -0.160689,6.143069 -0.258406,6.609989 -1.395395,6.667648 -1.132106,0.05737 -1.221704,-0.300987 -1.210435,-4.841744 0.0081,-3.249675 0.267349,-5.066991 0.768692,-5.387726 1.114346,-0.712905 0.920424,-2.109188 -0.390363,-2.810699 -1.702068,-0.91092 -2.419035,0.362923 -2.375987,4.221444 0.07649,6.855798 -0.09502,8.319469 -1.016261,8.672982 -0.776664,0.298034 -0.907827,-0.728234 -0.907827,-7.103147 z M 42.923621,37.49965 c 0.588857,-0.153449 1.405901,-0.143357 1.815653,0.02242 0.409752,0.165786 -0.07204,0.291335 -1.07065,0.279001 C 42.670015,37.78874 42.334763,37.6531 42.923621,37.49965 Z m 8.915443,-5.351452 c 0,-1.411301 -1.733339,-3.771618 -5.864237,-7.985428 -3.910786,-3.989282 -5.068724,-6.048895 -3.83087,-6.81393 0.445447,-0.275302 1.784677,0.687966 3.487591,2.508519 1.520456,1.625491 3.460898,3.290432 4.312094,3.699869 0.851195,0.409438 2.139127,1.623169 2.86207,2.69718 l 1.314441,1.952747 2.188153,-2.808592 c 1.203485,-1.544725 2.188154,-3.139071 2.188154,-3.54299 0,-0.403919 0.413631,-1.077682 0.919179,-1.497249 0.749855,-0.622325 1.12408,-0.577419 2.031485,0.243771 0.89242,0.807629 1.239482,0.853383 1.755642,0.231446 1.284763,-1.548043 1.511205,-4.057237 0.504764,-5.593263 -1.354689,-2.067512 -1.253103,-3.18006 0.172554,-1.889857 2.064083,1.867973 2.556113,6.631711 0.939752,9.098589 -0.912657,1.392884 -1.159719,1.498559 -1.612403,0.689661 -0.822358,-1.469481 -1.540661,-1.159681 -3.123029,1.34695 -1.651364,2.615928 -7.057226,8.591697 -7.772311,8.591697 -0.260166,0 -0.473029,-0.418103 -0.473029,-0.92912 z M 36.418595,18.791469 c -0.8549,-2.046064 -0.857895,-2.376925 -0.02902,-3.205799 0.828874,-0.828874 0.924265,-0.799852 0.924265,0.281196 0,0.663004 0.403517,1.781562 0.896704,2.485686 0.777616,1.110202 0.78147,1.375861 0.02902,2.000338 -0.712765,0.591542 -1.037884,0.312763 -1.820969,-1.561421 z m 2.105678,-6.498765 c 0,-1.042989 1.471486,-2.3560888 2.022643,-1.804932 0.695989,0.695988 0.433918,1.345236 -0.812207,2.012142 -0.944933,0.505713 -1.210436,0.460262 -1.210436,-0.20721 z m 31.394123,-2.062357 c -0.752812,-0.959909 -0.731406,-0.9813155 0.228506,-0.228503 0.582522,0.456845 1.059131,0.933454 1.059131,1.059131 0,0.498115 -0.496999,0.177513 -1.287637,-0.830628 z"
         id="path12965" />
      <path
         style="fill:#b9b9b9;fill-opacity:1;stroke-width:0.605218"
         d="m 59.706895,94.581026 c 0,-0.125674 0.476609,-0.602283 1.059132,-1.059131 0.959911,-0.752813 0.981318,-0.731406 0.228503,0.228506 -0.790638,1.008141 -1.287635,1.328743 -1.287635,0.830625 z M 16.736433,93.972292 c 0,-0.127611 0.545072,-0.374558 1.211271,-0.548776 0.666199,-0.174211 1.058648,-0.06981 0.872109,0.232023 -0.32576,0.52709 -2.08338,0.794312 -2.08338,0.316753 z m 29.857355,-3.00274 c -3.5e-5,-0.458816 1.386906,-0.699154 4.034689,-0.699154 2.420421,0 4.034783,0.254858 4.03484,0.63698 5.7e-5,0.375925 -1.653492,0.662465 -4.034688,0.69916 -2.683634,0.04134 -4.034804,-0.171961 -4.034841,-0.636986 z m -3.83299,-2.781696 c 0,-0.313224 0.269228,-0.735896 0.598285,-0.939262 0.343074,-0.212032 0.444537,0.03093 0.237858,0.569498 -0.402344,1.048492 -0.836143,1.240328 -0.836143,0.369764 z m 0,-2.420871 c 0,-0.313224 0.269228,-0.735896 0.598285,-0.939262 0.343074,-0.212032 0.444537,0.03093 0.237858,0.569498 -0.402344,1.048492 -0.836143,1.240327 -0.836143,0.369764 z M 12.547689,84.773006 c 0.02904,-0.705049 0.172451,-0.848455 0.365653,-0.365655 0.174829,0.436889 0.153328,0.958889 -0.04778,1.160003 -0.201109,0.201108 -0.344152,-0.156352 -0.317873,-0.794348 z m 36.056189,0.504346 c -0.154294,-0.249653 0.782851,-0.453914 2.082544,-0.453914 1.299693,0 2.363078,0.204261 2.363078,0.453914 0,0.249652 -0.937145,0.453913 -2.082544,0.453913 -1.1454,0 -2.208784,-0.204261 -2.363078,-0.453913 z m 9.124689,-1.918444 c -0.263254,-1.006689 -0.184489,-1.242984 0.264624,-0.79387 0.351693,0.351692 0.520363,0.996685 0.374819,1.433313 -0.151091,0.453278 -0.425432,0.178933 -0.639443,-0.639443 z M 41.904025,81.343436 c 0.630565,-0.748957 1.183428,-1.441175 1.228584,-1.538264 0.04516,-0.09708 0.0821,0.544775 0.0821,1.426359 0,1.127467 -0.154318,1.359332 -0.520298,0.781736 -0.382845,-0.604207 -0.522746,-0.621274 -0.529565,-0.06461 -0.0051,0.416087 -0.323826,0.756522 -0.708287,0.756522 -0.395965,0 -0.201971,-0.590372 0.447464,-1.36174 z m 7.968082,-0.854737 c 0.416087,-0.167893 1.096957,-0.167893 1.513044,0 0.416087,0.167894 0.07565,0.305266 -0.756522,0.305266 -0.832175,0 -1.17261,-0.137372 -0.756522,-0.305266 z m 2.804604,-1.07687 c -0.18414,-0.479859 -0.228134,-1.36499 -0.09777,-1.966958 0.148009,-0.683418 0.355172,-0.355734 0.551584,0.872476 0.329601,2.061076 0.115365,2.57775 -0.453818,1.094482 z m -5.236846,-1.499881 c -0.263254,-1.006689 -0.184489,-1.242984 0.264624,-0.79387 0.351693,0.351692 0.520362,0.996685 0.374819,1.433313 -0.151091,0.453278 -0.425432,0.178933 -0.639443,-0.639443 z m 1.524415,-1.676144 c 0.582522,-0.152225 1.53574,-0.152225 2.118262,0 0.582522,0.15223 0.105913,0.276784 -1.059131,0.276784 -1.165044,0 -1.641653,-0.124554 -1.059131,-0.276784 z m 4.16694,-24.339675 c -0.454359,-0.284414 -1.771961,-0.453739 -2.928004,-0.376277 -2.512504,0.168351 -3.2321,-1.006019 -1.67245,-2.729413 1.365544,-1.508909 3.424721,-1.520708 4.776175,-0.02737 1.248362,1.379424 1.105042,3.934775 -0.175721,3.133058 z M 39.280795,37.501868 c 0.582523,-0.152228 1.535741,-0.152228 2.118263,0 0.582522,0.15223 0.105913,0.27678 -1.059131,0.27678 -1.165045,0 -1.641654,-0.12455 -1.059132,-0.27678 z m 17.891751,0.0038 c 0.436892,-0.17483 0.958892,-0.153329 1.160001,0.04778 0.201108,0.201109 -0.156348,0.344151 -0.794348,0.317872 -0.705045,-0.02904 -0.848455,-0.172451 -0.365653,-0.365652 z m -6.348278,-1.930264 c -0.611423,-2.458856 -2.428725,-5.394877 -5.109831,-8.25541 -1.344898,-1.434901 -3.291086,-3.759044 -4.324862,-5.164761 l -1.879593,-2.555849 -1.380075,1.604433 -1.380075,1.604432 -0.965158,-1.86641 c -0.530837,-1.026526 -0.859305,-2.460759 -0.729928,-3.187187 0.201579,-1.131834 0.383228,-0.991136 1.269801,0.98354 l 1.034572,2.304316 1.873145,-1.576148 1.873144,-1.576147 1.167888,1.920437 c 0.642338,1.056241 2.580802,3.317229 4.307697,5.024418 3.487087,3.447295 5.258071,5.910465 5.258071,7.313177 0,0.511017 0.212863,0.92912 0.473029,0.92912 0.715085,0 6.120947,-5.975769 7.772311,-8.591697 1.582368,-2.506631 2.300671,-2.816431 3.123029,-1.34695 0.452684,0.808898 0.699746,0.703223 1.612403,-0.689661 1.15185,-1.757951 1.289925,-3.12105 0.609309,-6.01518 -0.342753,-1.457453 -0.274817,-1.672474 0.344351,-1.089905 1.435128,1.350307 1.681857,5.134422 0.492586,7.554932 -1.252631,2.549475 -2.056288,3.231266 -2.659103,2.255888 -0.30394,-0.491784 -0.547474,-0.473581 -0.880852,0.06584 -0.253423,0.410048 -2.946045,3.265417 -5.983602,6.345264 -5.352045,5.426557 -5.53506,5.550547 -5.918257,4.00951 z M 36.318325,15.110226 c 0.612748,-0.727981 0.957658,-1.576714 0.766464,-1.886072 -0.191194,-0.309358 0.154738,-1.017102 0.768737,-1.572764 1.059062,-0.958437 1.101774,-0.933977 0.832138,0.476533 -0.156324,0.817755 -1.003596,2.12112 -1.882827,2.896367 -1.457044,1.284724 -1.499948,1.292333 -0.484512,0.08594 z m 26.974068,-2.459008 -1.467235,-1.664348 1.664349,1.467237 c 0.915391,0.806982 1.664348,1.555939 1.664348,1.664349 0,0.474657 -0.490105,0.08835 -1.861462,-1.467238 z"
         id="path12963" />
      <path
         style="fill:#a3a3a3;fill-opacity:1;stroke-width:0.605218"
         d="M 15.417394,98.215243 C 2.971586,94.80489 1.2123933,77.803348 12.693943,71.89474 c 8.17918,-4.209157 18.397781,0.605151 20.321251,9.573982 2.22866,10.391886 -7.388678,19.543988 -17.5978,16.746521 z m 9.378795,-6.003736 C 30.692358,87.714279 29.756391,78.948565 23.039703,75.761289 16.58399,72.697852 8.82442,78.340346 9.6325976,85.510476 10.456743,92.822275 19.028889,96.610442 24.796189,92.211507 Z m -6.84932,0.367797 c 0,-0.539987 -1.089392,-1.987517 -2.420871,-3.216732 -2.090666,-1.930094 -2.420871,-2.584171 -2.420871,-4.795328 0,-5.5597 6.416954,-8.247799 10.335257,-4.329492 3.770221,3.770216 1.359309,10.802078 -4.434384,12.933679 -0.733577,0.269897 -1.059131,0.08789 -1.059131,-0.592127 z m 35.707849,1.396504 c 0,-0.125674 0.476609,-0.602283 1.059131,-1.059131 0.959909,-0.752812 0.981316,-0.731406 0.228503,0.228506 -0.790638,1.008141 -1.287634,1.328743 -1.287634,0.830625 z M 38.189073,91.73071 c -0.22365,-0.361878 -0.16191,-0.902682 0.137201,-1.201793 0.321639,-0.321637 0.543838,-0.05284 0.543838,0.657957 0,1.375194 -0.111972,1.464602 -0.681039,0.543836 z m 12.288251,-0.348091 c 0.416088,-0.167893 1.096958,-0.167893 1.513045,0 0.416087,0.167894 0.07565,0.305266 -0.756522,0.305266 -0.832175,0 -1.17261,-0.137372 -0.756523,-0.305266 z m -4.690437,-0.809612 c -0.545478,-0.352515 -0.620127,-0.590384 -0.187023,-0.595952 0.396442,-0.0048 0.889124,0.263083 1.094849,0.595952 0.464387,0.751396 0.254871,0.751396 -0.907826,0 z m 8.916875,-0.0751 c 0.410539,-0.413618 0.898894,-0.599571 1.085233,-0.413231 0.186339,0.186341 -0.149557,0.524754 -0.746436,0.752032 -0.862555,0.328439 -0.932072,0.258924 -0.338797,-0.338801 z m 7.840316,0.259075 c -0.170563,-0.275973 0.07673,-1.179224 0.549537,-2.007223 l 0.859646,-1.505448 -0.392672,1.815653 c -0.461974,2.13611 -0.601338,2.36878 -1.016511,1.697018 z M 58.333027,86.5524 c -0.173105,-0.28519 0.0652,-0.869698 0.529565,-1.298912 0.935624,-0.86479 1.114679,-0.280791 0.30547,0.996303 -0.286164,0.451626 -0.66193,0.5878 -0.835035,0.302609 z M 41.286664,84.94864 c 0.227279,-0.596878 0.565693,-0.932774 0.752031,-0.746433 0.186339,0.18634 3.84e-4,0.67469 -0.413233,1.085234 -0.597722,0.593271 -0.66724,0.523755 -0.338798,-0.338801 z m 17.150715,-1.451222 c -0.222774,-1.84621 -0.308462,-6.3381 -0.104589,-5.48268 0.138834,0.582523 0.498062,1.059132 0.798285,1.059132 0.30738,0 0.277746,0.705199 -0.06783,1.614134 -0.438027,1.152098 -0.415243,1.736787 0.07959,2.04261 0.502411,0.310506 0.508869,0.54245 0.02345,0.842457 -0.368409,0.227689 -0.69642,0.193645 -0.728914,-0.07565 z M 41.18644,80.133001 c -0.239448,-0.416088 -0.212492,-0.554622 0.0599,-0.307863 0.272393,0.246766 0.866988,0.140157 1.321323,-0.236906 0.652851,-0.541821 0.746128,-0.477263 0.444847,0.307862 -0.45392,1.182892 -1.224172,1.282826 -1.82607,0.236907 z m 10.885053,-0.721172 c -0.18414,-0.479859 -0.228134,-1.36499 -0.09777,-1.966958 0.148009,-0.683418 0.355172,-0.355734 0.551584,0.872476 0.329601,2.061076 0.115365,2.57775 -0.453818,1.094482 z M 40.992924,76.905175 c 0.02904,-0.705049 0.172452,-0.848455 0.365653,-0.365655 0.17483,0.436889 0.153328,0.958889 -0.04778,1.160003 -0.201109,0.201108 -0.344152,-0.156352 -0.317873,-0.794348 z M 37.200359,37.505628 c 0.436892,-0.17483 0.958892,-0.153328 1.160001,0.04778 0.201109,0.201109 -0.156348,0.344151 -0.794348,0.317872 -0.705044,-0.02904 -0.848455,-0.172451 -0.365653,-0.365652 z m 12.213846,-1.250916 c -0.0053,-1.409012 -1.381036,-3.393091 -5.745581,-8.286273 -1.997218,-2.239124 -3.882202,-4.60418 -4.188854,-5.25568 -0.340186,-0.722749 -0.91682,-1.04668 -1.479111,-0.830908 -0.688696,0.264278 -0.638807,0.04119 0.197435,-0.882843 0.61545,-0.680065 1.189402,-1.236481 1.275449,-1.236481 0.08605,0 0.975265,1.113415 1.976038,2.474254 1.000772,1.36084 2.919958,3.648265 4.264856,5.083166 3.989107,4.256068 6.64339,9.993896 4.623113,9.993896 -0.505646,0 -0.921151,-0.476609 -0.923345,-1.059131 z m 2.424859,0.647196 c 0,-0.282042 2.451132,-2.941265 5.44696,-5.909384 2.995828,-2.968119 5.44696,-5.653054 5.44696,-5.966523 0,-0.313468 0.397707,-0.239877 0.883788,0.163537 0.727199,0.603523 1.102107,0.375383 2.115998,-1.287635 0.677717,-1.111612 1.233235,-2.225374 1.234475,-2.475027 0.0012,-0.249652 0.274612,-0.453913 0.607482,-0.453913 1.07506,0 0.646511,1.752878 -1.123993,4.597448 -1.361564,2.187546 -1.812815,2.560351 -2.122444,1.753474 -0.325516,-0.848295 -0.727091,-0.623548 -2.332128,1.305212 -1.748946,2.10169 -8.494096,8.083503 -9.679264,8.583876 -0.262809,0.110957 -0.477834,-0.02902 -0.477834,-0.311065 z M 34.568383,21.907478 c -0.568078,-1.48749 -0.842116,-3.191406 -0.608973,-3.786479 0.337467,-0.861353 0.60736,-0.588362 1.323722,1.338919 1.478553,3.97786 1.557553,4.386077 0.924529,4.777307 -0.333525,0.20613 -1.0712,-0.842256 -1.639278,-2.329747 z m 32.410392,-3.204082 c 0.0072,-1.296943 0.138782,-1.463946 0.595952,-0.756522 0.765243,1.184129 0.765243,2.420871 0,2.420871 -0.33287,0 -0.601048,-0.748957 -0.595952,-1.664349 z M 35.498184,14.783584 c 0,-1.103277 1.072945,-2.017682 1.66859,-1.422037 0.207693,0.207692 -0.08277,0.83802 -0.645484,1.400729 -0.943498,0.943499 -1.023106,0.945157 -1.023106,0.02131 z M 60.396369,10.058908 C 59.610536,9.4042426 58.589231,8.8686073 58.126803,8.8686073 c -0.462429,0 -0.840779,-0.4017811 -0.840779,-0.8928469 0,-0.7017046 0.323116,-0.7699986 1.509309,-0.3190091 2.397612,0.9115706 4.562351,2.5063597 4.199348,3.0937107 -0.482861,0.781278 -0.993532,0.645359 -2.598312,-0.691554 z"
         id="path12961" />
      <path
         style="fill:#8c8c8c;fill-opacity:1;stroke-width:0.605218"
         d="m 37.975532,89.869647 c -0.71421,-2.048783 -0.544315,-2.695664 0.533094,-2.029791 0.368556,0.22778 0.493672,0.970031 0.278035,1.649442 -0.259329,0.817075 -0.16756,1.09654 0.271058,0.825457 0.41558,-0.256842 0.528577,-0.05919 0.302697,0.529426 -0.497956,1.297654 -0.623623,1.209219 -1.384884,-0.974534 z m 23.888535,0.880768 c -0.328439,-0.862557 -0.258924,-0.932072 0.338801,-0.338801 0.413618,0.410543 0.599571,0.898894 0.413231,1.085234 -0.186341,0.186341 -0.524754,-0.149555 -0.752032,-0.746433 z M 44.576451,90.573007 c -0.499305,-0.322678 -0.635479,-0.58668 -0.302609,-0.58668 0.33287,0 1.01374,0.264002 1.513045,0.58668 0.499304,0.322678 0.635478,0.58668 0.302608,0.58668 -0.332869,0 -1.013739,-0.264002 -1.513044,-0.58668 z m 10.89392,0 c 0.499305,-0.322678 1.180175,-0.58668 1.513044,-0.58668 0.33287,0 0.196696,0.264002 -0.302608,0.58668 -0.499305,0.322678 -1.180175,0.58668 -1.513045,0.58668 -0.33287,0 -0.196696,-0.264002 0.302609,-0.58668 z m 6.657396,-2.046828 c 0,-0.499305 0.272348,-1.076144 0.605217,-1.281869 0.33287,-0.205726 0.605218,0.0345 0.605218,0.533783 0,0.499305 -0.272348,1.076144 -0.605218,1.28187 -0.332869,0.205725 -0.605217,-0.0345 -0.605217,-0.533784 z M 41.953841,88.353873 c -0.68042,-0.680416 -0.447179,-3.227826 0.29554,-3.227826 0.394054,0 0.196023,-0.594094 -0.453913,-1.36174 l -1.152933,-1.36174 1.376041,1.165874 c 0.938536,0.795189 1.179068,1.362847 0.756522,1.785392 -0.794116,0.794118 -0.811926,2.383439 -0.02123,1.894761 0.343074,-0.212032 0.444537,0.03093 0.237858,0.569498 -0.407527,1.062 -0.476211,1.097454 -1.037882,0.535781 z m 16.278921,-0.629547 c -0.328442,-0.862556 -0.258925,-0.932072 0.338798,-0.338801 0.413617,0.410543 0.599572,0.898894 0.413233,1.085234 -0.186339,0.186341 -0.524753,-0.149555 -0.752031,-0.746433 z m -8.046528,0.0084 c 0.588857,-0.153446 1.405901,-0.143357 1.815653,0.02245 0.409752,0.165787 -0.07204,0.291334 -1.070649,0.278999 -0.99861,-0.01235 -1.333862,-0.147975 -0.745004,-0.301422 z m 8.033463,-2.564858 c -0.19151,-0.309872 -0.07141,-0.734468 0.266891,-0.943547 0.338299,-0.20909 0.61509,0.04443 0.61509,0.563385 0,1.063084 -0.363164,1.219611 -0.881981,0.38015 z M 50.51515,84.712617 c 0.436892,-0.174829 0.958892,-0.153332 1.160001,0.04775 0.201109,0.201107 -0.156348,0.344151 -0.794348,0.317872 -0.705044,-0.02905 -0.848455,-0.172451 -0.365653,-0.365648 z m -8.623268,-3.040469 c -0.328442,-0.862556 -0.258925,-0.932072 0.338798,-0.338801 0.413617,0.410544 0.599572,0.898894 0.413233,1.085234 -0.186339,0.186341 -0.524753,-0.149555 -0.752031,-0.746433 z m 7.689134,0.613618 c 0.588857,-0.153447 1.405901,-0.143358 1.815654,0.02245 0.409751,0.165787 -0.07204,0.291334 -1.07065,0.278999 -0.998609,-0.01235 -1.333861,-0.147975 -0.745004,-0.301422 z m 8.915444,-0.185808 c 0,-0.332869 0.288421,-0.605217 0.640936,-0.605217 0.352514,0 0.472616,0.272348 0.266891,0.605217 -0.205725,0.33287 -0.494146,0.605218 -0.640936,0.605218 -0.14679,0 -0.266891,-0.272348 -0.266891,-0.605218 z m -9.885224,-2.219133 c -0.650977,-0.650973 -0.465684,-3.33771 0.201739,-2.925218 0.33287,0.205726 0.605218,0.902671 0.605218,1.548765 0,1.82803 1.707706,1.397296 1.941235,-0.489634 0.201801,-1.630571 0.212772,-1.624434 0.540598,0.302609 0.307923,1.810043 0.206184,1.966958 -1.275347,1.966958 -0.88548,0 -1.79153,-0.181565 -2.013443,-0.40348 z m -6.682613,-0.68455 c -0.164116,-0.265546 -0.04819,-0.878329 0.257623,-1.36174 0.434115,-0.686226 0.558049,-0.58038 0.565284,0.482812 0.0095,1.399887 -0.297961,1.728309 -0.822907,0.878928 z M 29.595296,37.105286 c -0.06874,-0.928117 0.192372,-1.041312 1.54836,-0.67122 0.897077,0.244839 2.584266,0.633791 3.749311,0.864337 1.908294,0.377623 1.754816,0.444157 -1.548361,0.67122 -3.229834,0.222021 -3.676474,0.119057 -3.74931,-0.864337 z m 17.720547,-1.758401 c -0.634091,-1.081827 -2.29684,-3.192524 -3.694998,-4.690438 -1.398158,-1.497914 -3.316739,-3.676698 -4.263514,-4.841742 -0.946774,-1.165044 -1.942942,-2.278477 -2.213707,-2.474294 -0.270765,-0.195818 -0.06431,-0.711237 0.458801,-1.145375 1.020169,-0.846666 1.067165,-0.829751 1.891722,0.680851 0.298744,0.547303 2.177259,2.83303 4.174477,5.079392 4.372343,4.917771 5.740289,6.893754 5.745581,8.299433 0.0061,1.624706 -0.824629,1.265296 -2.098362,-0.907827 z m 7.54931,-0.01991 c 1.165044,-1.074766 2.799132,-2.498172 3.631307,-3.163124 0.832174,-0.664952 2.401593,-2.242729 3.487598,-3.506172 1.605939,-1.868332 2.045763,-2.111596 2.35601,-1.303105 0.527162,1.373759 4.05304,-4.29067 3.644119,-5.854385 -0.162701,-0.622179 -0.04902,-1.283752 0.252575,-1.470163 0.301623,-0.186411 0.5484,0.669891 0.5484,1.902894 0,2.131206 -2.708168,7.509453 -3.782611,7.512015 -1.010508,0.0024 -1.545085,0.360628 -6.028275,4.039543 -4.80496,3.942963 -7.881288,5.322363 -4.109123,1.842497 z M 33.806475,23.884873 c -0.786285,-1.861083 -1.107868,-3.42414 -0.812916,-3.95119 0.352445,-0.629784 0.782404,-0.101127 1.547847,1.903157 0.582915,1.526342 1.283604,2.636876 1.557088,2.467854 0.273483,-0.169022 0.353593,0.242004 0.178022,0.91339 -0.558837,2.136994 -1.1354,1.825792 -2.470041,-1.333211 z m 0.490541,-7.56663 c -0.0051,-0.729312 0.263081,-1.494342 0.595951,-1.700067 0.770555,-0.476229 0.770555,0.925913 0,2.118262 -0.476964,0.738049 -0.588416,0.65984 -0.595951,-0.418195 z m 32.681759,0.678438 c -0.0048,-0.356171 -0.999039,-1.803912 -2.208761,-3.217202 -2.992505,-3.496067 -1.878935,-4.7093463 1.197218,-1.304415 1.21699,1.347064 2.208542,2.652684 2.203446,2.901378 -0.01513,0.73943 -1.181808,2.32535 -1.191903,1.620239 z M 54.41124,7.586284 C 52.018732,6.8954722 51.753857,5.6681725 54.108631,6.1841461 c 2.737376,0.5998087 3.177393,0.8013067 3.177393,1.4550309 0,0.7199749 -0.21157,0.7160822 -2.874784,-0.05289 z"
         id="path12959" />
      <path
         style="fill:#767676;fill-opacity:1;stroke-width:0.605218"
         d="m 50.477324,97.434797 c 0.416088,-0.167893 1.096958,-0.167893 1.513045,0 0.416087,0.167893 0.07565,0.305266 -0.756522,0.305266 -0.832175,0 -1.17261,-0.137373 -0.756523,-0.305266 z m 10.88255,-5.699868 c 0.214009,-0.818376 0.488349,-1.092721 0.639441,-0.639443 0.145543,0.436628 -0.02312,1.081621 -0.374817,1.433313 -0.449113,0.449114 -0.527878,0.212819 -0.264624,-0.79387 z M 49.418193,78.771261 c 0,-0.499305 0.340435,-0.92697 0.756522,-0.950368 0.416088,-0.02342 0.211827,-0.276596 -0.453913,-0.562677 -1.154971,-0.496309 -1.148038,-0.522091 0.151305,-0.562677 1.060387,-0.0331 1.36174,0.292296 1.36174,1.470504 0,0.941452 -0.342957,1.513044 -0.907827,1.513044 -0.499305,0 -0.907827,-0.408522 -0.907827,-0.907826 z M 31.906389,36.627513 c -0.810444,-0.312296 -1.813523,-0.437345 -2.229065,-0.277886 -0.756902,0.290451 -1.876786,-3.039015 -1.237288,-3.678513 0.175808,-0.175808 1.302349,0.0047 2.503424,0.401059 4.270511,1.409396 4.638992,-0.119223 1.877212,-7.787473 -1.099169,-3.051909 -1.169571,-3.706519 -0.398633,-3.706519 0.305339,0 1.02111,1.220068 1.590603,2.711264 0.569493,1.491195 1.210991,2.602769 1.425551,2.470163 0.214561,-0.132606 0.390411,0.758023 0.390779,1.979173 3.68e-4,1.221151 0.348853,3.060015 0.774411,4.086363 0.759103,1.830783 1.040783,1.98957 3.981359,2.24435 0.800388,0.06935 1.329012,0.330348 1.174718,0.58 -0.154294,0.249652 -0.02125,0.453913 0.29565,0.453913 0.578299,0 1.310905,-1.400541 1.310905,-2.506088 0,-0.325291 -0.272348,-0.423117 -0.605217,-0.217392 -0.33287,0.205725 -0.605218,0.103111 -0.605218,-0.228031 0,-0.331141 -1.157479,-1.871286 -2.572176,-3.422542 -2.916179,-3.197678 -3.59442,-4.565908 -2.855785,-5.761044 0.398281,-0.644432 0.824345,-0.428959 1.901957,0.961877 1.175911,1.517706 6.162692,7.183069 7.17129,8.147131 0.519414,0.496479 2.406892,3.562914 2.406892,3.910286 0,0.559675 -14.760625,0.233619 -16.301369,-0.360091 z M 44.273842,35.49819 c 0.205725,-0.33287 0.08562,-0.605218 -0.266891,-0.605218 -0.352514,0 -0.640936,0.272348 -0.640936,0.605218 0,0.332869 0.120101,0.605217 0.266891,0.605217 0.14679,0 0.435211,-0.272348 0.640936,-0.605217 z m 10.591311,1.538822 c 0,-0.517461 8.745252,-7.257365 9.574618,-7.379091 0.45375,-0.0666 0.894234,-0.209606 0.978849,-0.317801 3.284111,-4.199168 3.987211,-7.011306 2.686132,-10.743569 -0.493392,-1.415358 -0.498064,-2.13416 -0.01701,-2.615233 1.022697,-1.022696 3.297766,4.34874 2.333841,5.510197 -0.390704,0.470767 -0.741077,1.159463 -0.778606,1.530434 -0.03752,0.370972 -0.109726,1.123756 -0.160431,1.672854 -0.123501,1.33757 -4.693404,7.368412 -5.694827,7.515389 -0.436332,0.06404 -2.395215,1.23856 -4.353073,2.610043 -3.282444,2.299369 -4.569496,2.923748 -4.569496,2.216777 z M 23.581367,28.538185 c 0.0034,-1.997219 0.116384,-2.741298 0.251082,-1.65351 0.134698,1.087788 0.131919,2.721876 -0.0062,3.631307 -0.138098,0.90943 -0.248306,0.01942 -0.244909,-1.977797 z m 9.514482,-10.288702 c 0,-0.66574 0.264007,-1.618958 0.586682,-2.118262 0.485813,-0.751743 0.586682,-0.699714 0.586682,0.302609 0,0.665739 -0.264007,1.618957 -0.586682,2.118262 -0.485813,0.751742 -0.586682,0.699714 -0.586682,-0.302609 z m 3.310162,-5.749569 c 0.602486,-0.66574 1.231603,-1.210436 1.398038,-1.210436 0.166435,0 -0.190334,0.544696 -0.79282,1.210436 -0.602486,0.66574 -1.231603,1.210436 -1.398038,1.210436 -0.166435,0 0.190334,-0.544696 0.79282,-1.210436 z m 9.578835,-5.7495689 c 0.258295,-0.7824354 6.459436,-1.1570804 6.459436,-0.3902501 0,0.3194584 -1.498326,0.6741262 -3.329614,0.7881505 -2.038316,0.1269154 -3.25213,-0.027399 -3.129822,-0.3979004 z"
         id="path12957" />
      <path
         style="fill:#606060;fill-opacity:1;stroke-width:0.605218"
         d="m 59.149458,93.851272 c 0.02904,-0.705048 0.172451,-0.848455 0.365652,-0.365654 0.17483,0.436888 0.153329,0.958889 -0.04778,1.160003 -0.201109,0.201107 -0.344151,-0.156352 -0.317872,-0.794349 z m 1.767873,-3.242545 c 0,-0.313224 0.269229,-0.735896 0.598286,-0.939261 0.343076,-0.212032 0.444534,0.03093 0.237859,0.569497 -0.402345,1.048492 -0.836145,1.240328 -0.836145,0.369764 z m 0.605218,-2.420871 c 0,-0.313224 0.269231,-0.735896 0.598288,-0.939262 0.343074,-0.212032 0.444532,0.03093 0.237856,0.569498 -0.402342,1.048492 -0.836144,1.240328 -0.836144,0.369764 z m 0.983479,-2.334186 c -0.164117,-0.265545 -0.04818,-0.878328 0.257623,-1.36174 0.434116,-0.686226 0.558047,-0.580379 0.565285,0.482813 0.0095,1.399887 -0.297961,1.728308 -0.822908,0.878927 z M 37.469422,80.140632 c -0.08017,-1.064214 0.01984,-1.161394 0.467157,-0.453913 0.699643,1.106574 0.742812,1.808022 0.111269,1.808022 -0.262033,0 -0.522325,-0.609352 -0.578426,-1.354109 z m 24.986802,0.790711 c -0.191515,-0.309871 -0.07141,-0.734468 0.266889,-0.943546 0.338299,-0.209079 0.615089,0.04442 0.615089,0.563397 0,1.063083 -0.363167,1.219611 -0.881978,0.380149 z m -3.950496,-3.521822 c -0.0051,-0.748957 0.26308,-1.36174 0.59595,-1.36174 0.75829,0 0.75829,0.642281 0,1.815653 -0.474415,0.734105 -0.588457,0.647244 -0.59595,-0.453913 z m 0.928933,-42.589286 c 1.957858,-1.371483 3.916741,-2.546003 4.353073,-2.610043 1.001423,-0.146977 5.571326,-6.177819 5.694827,-7.515389 0.178666,-1.934933 0.246856,-2.215885 0.722158,-2.97519 0.715409,-1.142892 1.42119,-0.411312 1.860058,1.928051 0.363857,1.939513 0.129087,2.353261 -3.411395,6.012172 -3.700332,3.824114 -9.561102,7.654007 -11.712689,7.654007 -0.614016,0 0.443122,-1.056985 2.493968,-2.493608 z M 41.75946,35.649494 c 0.154294,-0.249652 -0.37433,-0.510653 -1.174718,-0.58 -2.917906,-0.252816 -3.218295,-0.405361 -3.823638,-1.941741 -1.092084,-2.771739 -1.29126,-4.549371 -0.717681,-6.405221 0.308636,-0.99861 0.58918,-1.407132 0.623431,-0.907827 0.03425,0.499305 1.283226,2.209463 2.7755,3.800352 1.492274,1.590889 2.713226,3.172962 2.713226,3.51572 0,0.342758 0.272348,0.454875 0.605218,0.24915 0.332869,-0.205725 0.605217,-0.107899 0.605217,0.217392 0,1.105547 -0.732606,2.506088 -1.310905,2.506088 -0.316901,0 -0.449944,-0.204261 -0.29565,-0.453913 z m 1.606555,-0.151304 c 0,-0.33287 0.288422,-0.605218 0.640936,-0.605218 0.352515,0 0.472616,0.272348 0.266891,0.605218 -0.205725,0.332869 -0.494146,0.605217 -0.640936,0.605217 -0.14679,0 -0.266891,-0.272348 -0.266891,-0.605217 z M 29.89992,32.904789 c -1.950245,-0.555253 -2.269567,-0.892345 -2.269567,-2.395865 0,-1.455961 0.197019,-1.687167 1.173576,-1.37722 1.49607,0.474835 2.457731,-1.210049 2.457731,-4.306082 0,-2.677904 0.718761,-2.178978 1.860832,1.291692 1.068205,3.246197 1.241005,3.974875 1.363463,5.749569 0.122321,1.772729 -1.062921,2.040971 -4.586035,1.037906 z m 46.243413,-5.879648 c 0,-0.832175 0.137373,-1.17261 0.305266,-0.756523 0.167894,0.416088 0.167894,1.096958 0,1.513045 -0.167893,0.416087 -0.305266,0.07565 -0.305266,-0.756522 z M 31.951954,20.670354 c 0,-0.66574 0.234063,-1.755132 0.520141,-2.420871 l 0.520142,-1.210436 v 1.210436 c 0,0.665739 -0.234064,1.755131 -0.520142,2.420871 L 31.951954,21.88079 Z M 39.455697,9.5982918 c -0.934253,-0.9342523 0.522028,-1.8504389 4.929889,-3.1015299 1.559158,-0.4425385 1.86477,-0.3838507 1.599598,0.3071766 -0.18029,0.4698286 -0.649599,0.8542333 -1.042907,0.8542333 -0.393309,0 -1.715292,0.5099232 -2.937741,1.1331631 -1.222448,0.6232394 -2.369425,0.98637 -2.548839,0.8069569 z"
         id="path12955" />
      <path
         style="fill:#494949;fill-opacity:1;stroke-width:0.605218"
         d="m 48.411768,97.974512 c -0.3871,-0.246281 0.633362,-0.446372 2.267692,-0.444647 1.634331,0.0018 2.972353,0.207408 2.973384,0.45706 0.0024,0.585373 -4.317583,0.575145 -5.241076,-0.01241 z m -6.659667,-4.130508 c 0,-0.952958 0.75988,-1.137132 1.272111,-0.308323 0.184168,0.297986 -0.02671,0.680544 -0.46863,0.85012 -0.441914,0.169582 -0.803481,-0.07423 -0.803481,-0.541797 z m 16.44175,-0.244908 c 0.205725,-0.33287 0.494146,-0.605218 0.640936,-0.605218 0.14679,0 0.266891,0.272348 0.266891,0.605218 0,0.33287 -0.288422,0.605218 -0.640936,0.605218 -0.352515,0 -0.472616,-0.272348 -0.266891,-0.605218 z M 40.04028,92.393454 c -0.204096,-0.330231 -0.109244,-1.068306 0.210781,-1.640158 0.477478,-0.853206 0.564785,-0.745568 0.486669,0.6 -0.105679,1.82032 -0.162713,1.905383 -0.69745,1.040158 z m 20.638228,-0.964632 c -0.202578,-0.527914 -0.140934,-1.366165 0.136988,-1.862788 0.356399,-0.636847 0.505314,-0.353986 0.505314,0.959839 0,2.108924 -0.116616,2.272859 -0.642302,0.902949 z M 38.782765,87.475533 c -0.664231,-1.074746 -1.383749,-4.770357 -0.928766,-4.770357 0.226978,0 0.454162,-0.550585 0.504853,-1.223514 0.05069,-0.672936 -0.160581,-1.067314 -0.469492,-0.876398 -0.308912,0.190922 -0.390702,-0.09838 -0.181757,-0.64288 0.560364,-1.460282 1.460748,0.142807 1.370542,2.440183 -0.03921,0.99861 -0.02157,1.951828 0.03919,2.118263 0.177994,0.487496 0.36773,3.631306 0.219158,3.631306 -0.07456,0 -0.323745,-0.304473 -0.553735,-0.676603 z m 23.28448,-1.13905 c -0.08532,-0.8532 -0.07519,-3.434442 0.0184,-4.690438 0.07468,-1.002216 0.112444,-1.001557 0.702646,0.01223 0.343183,0.589477 0.417649,1.678336 0.165551,2.420872 -0.251988,0.742239 -0.392834,1.689961 -0.312982,2.106049 0.07985,0.416087 -0.003,0.756522 -0.183956,0.756522 -0.181027,0 -0.356376,-0.272348 -0.389663,-0.605218 z m -2.947032,-7.867831 c 0,-0.499305 0.264007,-1.316349 0.586682,-1.815654 0.521496,-0.806955 0.586683,-0.806955 0.586683,0 0,0.499305 -0.264007,1.316349 -0.586683,1.815654 -0.521495,0.806955 -0.586682,0.806955 -0.586682,0 z m 4.823207,-0.833724 c 0,-0.125674 0.476609,-0.602283 1.059131,-1.059131 0.959912,-0.752812 0.981318,-0.731406 0.228506,0.228506 -0.790638,1.008141 -1.287637,1.328743 -1.287637,0.830625 z m -0.113478,-40.1293 c 0.436888,-0.17483 0.958888,-0.153328 1.160002,0.04778 0.201108,0.201109 -0.156352,0.344151 -0.794348,0.317872 -0.705048,-0.02904 -0.848455,-0.172451 -0.365654,-0.365652 z m -3.654505,-1.404483 c 1.089872,-0.664495 2.264241,-1.208173 2.609705,-1.208173 0.34547,0 2.519491,-1.906436 4.831157,-4.236525 2.311672,-2.330088 4.337396,-4.236524 4.501604,-4.236524 0.546378,0 0.307941,4.298588 -0.301617,5.437554 -0.330104,0.616801 -1.416373,1.300719 -2.413935,1.519821 -0.997556,0.219101 -1.971521,0.653651 -2.164356,0.965668 -0.689318,1.115335 -5.097767,2.970836 -7.053076,2.968615 l -1.991068,-0.0023 z m 15.990326,-6.352524 c 0.01235,-0.99861 0.147975,-1.333862 0.301422,-0.745004 0.153447,0.588857 0.143358,1.405901 -0.02239,1.815653 -0.165817,0.409752 -0.291364,-0.07204 -0.279029,-1.070649 z m -47.870195,-0.85794 c -0.633625,-0.401173 -0.754113,-1.328085 -0.476896,-3.668747 0.668072,-5.640823 4.375193,-11.928102 8.956552,-15.190318 2.960561,-2.1081047 3.20257,-0.6217564 0.312915,1.921821 -3.371712,2.967899 -5.032757,6.380252 -5.568886,11.440397 -0.582921,5.501764 -1.295861,6.71743 -3.223685,5.496847 z"
         id="path12953" />
      <path
         style="fill:#333333;fill-opacity:1;stroke-width:0.605218"
         d="m 46.173242,98.13823 c -0.191602,-0.499305 -0.723225,-0.907827 -1.181386,-0.907827 -0.458161,0 -1.341011,-0.561321 -1.961887,-1.247384 -0.950011,-1.04975 -0.992094,-1.331915 -0.265613,-1.780902 0.672259,-0.415482 0.490563,-0.675217 -0.821223,-1.173959 -1.308413,-0.497459 -1.598741,-0.910562 -1.300449,-1.850405 0.211216,-0.665479 0.138719,-1.209963 -0.161104,-1.209963 -0.299822,0 -0.595835,-0.340435 -0.657807,-0.756523 -0.06197,-0.416087 -0.22141,-1.573566 -0.354309,-2.572175 -0.1329,-0.99861 -0.291355,-1.951828 -0.352123,-2.118262 -0.06077,-0.166435 -0.06444,-1.159695 -0.0082,-2.207236 0.081,-1.507882 -0.392532,-2.362486 -2.273241,-4.102583 -2.700082,-2.498206 -3.664807,-5.707343 -5.280928,-17.566882 -1.219043,-8.945687 -2.447732,-13.570116 -5.057437,-19.034742 -2.189413,-4.58455 -2.19591,-4.622362 -2.19591,-12.781319 0,-8.030773 0.03711,-8.25854 1.99253,-12.230569 2.40357,-4.882344 8.246334,-10.4854438 13.80705,-13.2406988 7.686181,-3.80839246 16.361941,-2.80670632 24.144794,2.7877103 5.131175,3.6883576 7.847368,6.7069395 9.80316,10.8945365 1.594749,3.414565 1.695978,4.118977 1.695978,11.801747 0,7.887602 -0.06659,8.317198 -1.923715,12.409881 -2.672733,5.89011 -4.235351,11.898237 -5.660227,21.763063 -1.502048,10.39907 -2.091487,12.424147 -4.329534,14.874498 -1.523636,1.668168 -1.770892,2.433012 -1.824187,5.642899 -0.03389,2.042247 -0.427314,4.444877 -0.874237,5.339183 -0.446923,0.894306 -0.667818,2.003277 -0.490877,2.46438 0.196001,0.510768 -0.325442,1.133222 -1.33446,1.592964 -1.335039,0.60828 -1.486263,0.866272 -0.779906,1.330528 0.72912,0.479224 0.63634,0.777124 -0.552526,1.774075 -0.785833,0.658974 -1.807138,1.198138 -2.269567,1.198138 -0.462428,0 -0.840778,0.408522 -0.840778,0.907827 0,0.719156 -0.867009,0.907826 -4.171773,0.907826 -3.149935,0 -4.257101,-0.222363 -4.520138,-0.907826 z m 7.481476,-0.260516 c 0,-0.691329 -2.132783,-1.039129 -4.449145,-0.725548 -1.236213,0.167355 -1.493701,0.380616 -0.907827,0.751881 1.104371,0.699831 5.356972,0.678927 5.356972,-0.02633 z m 3.130106,-6.630585 3.014533,-3.014535 0.176252,-6.311145 c 0.149063,-5.337621 0.376951,-6.582608 1.477343,-8.070966 1.337032,-1.808433 2.237263,-5.745944 3.994688,-17.47228 0.548763,-3.661568 1.878536,-9.312789 2.955055,-12.558269 l 1.957304,-5.900873 -2.451767,-0.06033 c -2.298424,-0.05656 -6.273724,-0.958011 -4.805792,-1.08978 0.369636,-0.03318 1.670352,-0.737781 2.890471,-1.565779 1.220125,-0.827998 2.899405,-1.67637 3.731731,-1.885271 C 71.987151,32.750049 72.598694,31.01549 72.281106,26.0668 71.782188,18.292591 67.069927,11.395494 59.827385,7.8389128 56.747233,6.3263491 55.729666,6.1451273 50.316713,6.1451273 c -5.614812,0 -6.356158,0.144943 -10.06028,1.9669172 -4.740302,2.3316475 -8.457598,6.1273315 -10.713345,10.9392635 -1.409384,3.00648 -1.609229,4.189252 -1.60293,9.486877 0.0066,5.528083 0.173381,6.405424 1.926289,10.131416 2.393282,5.087175 4.194504,12.184323 5.35746,21.10938 1.150403,8.828718 2.371871,13.021256 4.271835,14.662552 1.396253,1.206162 1.523894,1.768367 1.707029,7.518753 l 0.197935,6.215115 2.949613,2.9439 c 3.217304,3.21108 4.334705,3.720673 7.395228,3.372619 1.448608,-0.164741 2.882521,-1.088037 5.039277,-3.244791 z"
         id="path12951" />
    </g>
  </g>
</svg>
