<?xml version="1.0" encoding="UTF-8" standalone="no"?>
<!-- Created with Inkscape (http://www.inkscape.org/) -->

<svg
   width="100mm"
   height="100mm"
   viewBox="0 0 100 100"
   version="1.1"
   id="svg190"
   inkscape:version="1.1.1 (3bf5ae0d25, 2021-09-20)"
   sodipodi:docname="add_list_type_device_70b1.svg"
   xmlns:inkscape="http://www.inkscape.org/namespaces/inkscape"
   xmlns:sodipodi="http://sodipodi.sourceforge.net/DTD/sodipodi-0.dtd"
   xmlns="http://www.w3.org/2000/svg"
   xmlns:svg="http://www.w3.org/2000/svg">
  <sodipodi:namedview
     id="namedview192"
     pagecolor="#ffffff"
     bordercolor="#666666"
     borderopacity="1.0"
     inkscape:pageshadow="2"
     inkscape:pageopacity="0.0"
     inkscape:pagecheckerboard="0"
     inkscape:document-units="mm"
     showgrid="false"
     width="100mm"
     inkscape:zoom="0.58974467"
     inkscape:cx="378.97757"
     inkscape:cy="55.956419"
     inkscape:window-width="1440"
     inkscape:window-height="890"
     inkscape:window-x="-6"
     inkscape:window-y="-6"
     inkscape:window-maximized="1"
     inkscape:current-layer="layer1" />
  <defs
     id="defs187" />
  <g
     inkscape:label="Laag 1"
     inkscape:groupmode="layer"
     id="layer1">
    <g
       id="g206"
       transform="translate(3.5891224,-6.2809663)">
      <path
         style="fill:#d0d0d0;fill-opacity:1;stroke-width:0.341056"
         d="m 19.156828,89.801586 c 0.2462,-0.09852 0.540361,-0.08641 0.653691,0.02691 0.11333,0.113329 -0.08811,0.193938 -0.447636,0.179129 -0.397311,-0.01637 -0.478127,-0.09718 -0.206055,-0.206052 z m 3.751618,0 c 0.2462,-0.09852 0.54036,-0.08641 0.653691,0.02691 0.11333,0.113329 -0.08811,0.193938 -0.447637,0.179129 -0.39731,-0.01637 -0.478126,-0.09718 -0.206054,-0.206052 z m -0.618165,-0.914269 c 0,-0.09379 0.460426,-0.498382 1.023169,-0.899089 0.562742,-0.400706 1.023168,-0.651823 1.023168,-0.558032 0,0.09379 -0.460426,0.498382 -1.023168,0.899089 -0.562743,0.400706 -1.023169,0.651823 -1.023169,0.558032 z m 3.751618,-0.345745 c 0,-0.07082 0.268582,-0.339402 0.596848,-0.596849 0.540934,-0.424229 0.552997,-0.412166 0.128767,0.128769 -0.445545,0.568115 -0.725615,0.748782 -0.725615,0.46808 z m -1.364225,-1.705281 c 0,-0.07082 0.268582,-0.339402 0.596849,-0.596848 0.540934,-0.42423 0.552997,-0.412167 0.128767,0.128769 -0.445545,0.568114 -0.725616,0.748782 -0.725616,0.468079 z m 3.069505,0 c 0,-0.07082 0.268582,-0.339402 0.596849,-0.596848 0.540934,-0.42423 0.552997,-0.412167 0.128767,0.128769 -0.445545,0.568114 -0.725616,0.748782 -0.725616,0.468079 z m -10.939609,-1.491248 -0.826827,-0.937904 0.937904,0.826826 c 0.876613,0.772796 1.094309,1.048983 0.826828,1.048983 -0.06109,0 -0.48315,-0.422057 -0.937905,-0.937905 z M 12.8584,84.392429 c -0.111076,-0.289461 -0.125751,-0.602499 -0.03261,-0.695638 0.09314,-0.09314 0.251207,0.14369 0.35126,0.526294 0.212529,0.812713 -0.02361,0.938208 -0.31865,0.169344 z m 13.535,-0.326346 c 0,-0.187581 0.148775,-0.571269 0.330611,-0.85264 0.181836,-0.281372 0.330611,-0.358109 0.330611,-0.170528 0,0.18758 -0.148775,0.571269 -0.330611,0.85264 -0.181836,0.281371 -0.330611,0.358109 -0.330611,0.170528 z m 9.120002,-0.496022 c -0.468777,-0.54749 -0.483439,-0.714246 -0.09141,-1.039604 0.349237,-0.289843 0.655966,-0.286347 1.216918,0.01385 0.544148,0.291221 0.632689,0.473881 0.322601,0.665523 -0.235064,0.14528 -0.531426,0.43248 -0.658583,0.638222 -0.152215,0.24629 -0.421932,0.15132 -0.78953,-0.278005 z m 3.829686,0.183386 c 0,-0.297002 -0.186363,-0.540004 -0.414141,-0.540004 -0.259172,0 -0.196275,-0.217867 0.168093,-0.582231 0.679162,-0.679162 1.407705,-0.215691 1.215936,0.773532 -0.149553,0.771449 -0.969888,1.066384 -0.969888,0.348703 z m 3.069505,-0.540004 c 0,-0.454741 0.227372,-0.682113 0.682112,-0.682113 0.454741,0 0.682113,0.227372 0.682113,0.682113 0,0.45474 -0.227372,0.682112 -0.682113,0.682112 -0.45474,0 -0.682112,-0.227372 -0.682112,-0.682112 z m 3.410561,0 c 0,-0.378951 0.227372,-0.682113 0.511584,-0.682113 0.574015,0 0.597084,0.06247 0.304567,0.824746 -0.292428,0.762056 -0.816151,0.67053 -0.816151,-0.142633 z m 3.525098,0.147602 c -0.24614,-0.641435 0.35741,-1.340917 0.878916,-1.018609 0.562163,0.347438 0.444543,1.553119 -0.151514,1.553119 -0.287262,0 -0.61459,-0.24053 -0.727402,-0.53451 z m 3.151949,-0.03114 c -0.270942,-0.706051 0.05104,-1.139633 0.846317,-1.139633 0.921016,0 0.928127,1.540077 0.0074,1.609431 -0.360002,0.02711 -0.744188,-0.184283 -0.853745,-0.469785 z m 3.69106,0.08817 c -0.124847,-0.325347 -0.05817,-0.76036 0.148165,-0.966699 0.272845,-0.272845 0.43707,-0.213836 0.602158,0.216376 0.124847,0.325347 0.05817,0.760361 -0.148165,0.9667 -0.272845,0.272844 -0.43707,0.213835 -0.602158,-0.216377 z m -21.861813,-2.25097 c 0,-1.031695 0.06394,-1.453752 0.142081,-0.937904 0.07814,0.515847 0.07814,1.359961 0,1.875808 -0.07814,0.515848 -0.142081,0.09379 -0.142081,-0.937904 z m -19.134857,0.170528 c 0.007,-0.562743 0.08339,-0.751667 0.169861,-0.41983 0.08647,0.331837 0.08079,0.792263 -0.01264,1.023168 -0.09342,0.230906 -0.164174,-0.04059 -0.157224,-0.603338 z m -2.741086,-0.170528 c 0,-0.468952 0.07741,-0.660796 0.172024,-0.42632 0.09461,0.234476 0.09461,0.618164 0,0.85264 -0.09461,0.234476 -0.172024,0.04263 -0.172024,-0.42632 z M 35.350078,79.64919 c -0.527959,-0.600866 0.22659,-1.325682 1.050805,-1.0094 0.660425,0.253429 0.698743,0.541679 0.145545,1.094879 -0.512245,0.512246 -0.681793,0.500132 -1.19635,-0.08548 z m 3.857863,-0.04762 c -0.258858,-0.674578 0.02118,-1.162919 0.66686,-1.162919 0.296849,0 0.491455,0.337628 0.491455,0.85264 0,0.953753 -0.82644,1.17513 -1.158315,0.310279 z m 6.84573,0.06412 c -0.192567,-0.501823 0.02789,-0.885985 0.508439,-0.885985 0.156317,0 0.284213,0.306951 0.284213,0.682112 0,0.782015 -0.519521,0.915637 -0.792652,0.203873 z m 3.615382,-0.197157 c -0.028,-0.371468 0.09283,-0.764215 0.268476,-0.87277 0.175644,-0.108555 0.319355,0.195374 0.319355,0.675397 0,1.02013 -0.512884,1.192336 -0.587831,0.197373 z m -7.248087,-0.167152 c -0.23582,-0.284147 -0.257191,-0.538429 -0.05571,-0.662948 0.39302,-0.2429 1.411564,0.105134 1.411564,0.482328 0,0.509951 -0.974763,0.639801 -1.355852,0.18062 z m -15.881507,-0.20331 c -0.123644,-0.20006 -0.151662,-0.436893 -0.06226,-0.526294 0.0894,-0.0894 0.253427,0.07428 0.364504,0.363746 0.230616,0.600979 0.03405,0.706689 -0.302243,0.162548 z m 26.003736,-0.01265 c 0.269758,-0.269758 0.554809,-0.272698 1.006115,-0.01037 0.552044,0.320876 0.505613,0.367304 -0.376396,0.376397 -0.733724,0.0076 -0.904212,-0.09153 -0.629719,-0.366025 z M 29.324066,78.595996 c -0.329112,-0.85765 -0.232024,-1.078948 0.170028,-0.387555 0.199071,0.342335 0.290102,0.694274 0.20229,0.782086 -0.08781,0.08781 -0.255354,-0.08973 -0.372318,-0.394531 z M 16.833383,77.24496 c 0.440558,-0.468952 0.877752,-0.85264 0.971542,-0.85264 0.09379,0 -0.189928,0.383688 -0.630486,0.85264 -0.440557,0.468953 -0.877751,0.852641 -0.971542,0.852641 -0.09379,0 0.189929,-0.383688 0.630486,-0.852641 z m 8.50059,-0.08526 -0.826827,-0.937904 0.937905,0.826826 c 0.876612,0.772795 1.094308,1.048983 0.826827,1.048983 -0.06109,0 -0.48315,-0.422057 -0.937905,-0.937905 z m 8.238086,0.05684 c 0.01636,-0.397313 0.09718,-0.478126 0.206055,-0.206056 0.09852,0.246199 0.0864,0.540359 -0.02693,0.653692 -0.11333,0.11333 -0.193938,-0.08811 -0.179129,-0.447636 z m 1.511548,-0.949851 c -0.618061,-0.451941 -0.61544,-0.478891 0.08292,-0.852641 0.396636,-0.212273 0.961459,-0.385952 1.255162,-0.385952 0.698595,0 0.694102,1.22981 -0.0055,1.498263 -0.687991,0.264008 -0.59044,0.283015 -1.33261,-0.25967 z m 14.491165,-0.357533 c 0,-0.573145 0.187079,-0.88106 0.535304,-0.88106 0.355497,0 0.498696,0.248786 0.426321,0.740661 -0.160665,1.091891 -0.961625,1.208832 -0.961625,0.140399 z M 27.10412,75.112463 c -0.635054,-0.649549 -0.863549,-1.025208 -0.507768,-0.8348 0.753153,0.403074 2.007184,1.722756 1.802427,1.896787 -0.07701,0.06546 -0.659605,-0.412443 -1.294659,-1.061987 z m 11.962085,0.686924 c 0.171213,-0.889041 1.300051,-0.988193 1.300051,-0.114185 0,0.488082 -0.219036,0.707118 -0.707118,0.707118 -0.488086,0 -0.671751,-0.183665 -0.592933,-0.592933 z m 6.989836,0.120867 c -0.111703,-0.291091 -0.06693,-0.613413 0.0995,-0.716272 0.435075,-0.268892 0.694404,0.289584 0.374684,0.806898 -0.211755,0.342628 -0.315542,0.322792 -0.474184,-0.09063 z m -3.900949,-0.29531 c 0.166889,-0.506752 1.621726,-0.790237 1.621726,-0.316002 0,0.330763 -0.787578,0.742322 -1.42054,0.742322 -0.187871,0 -0.278404,-0.191844 -0.201186,-0.42632 z M 20.179997,75.477229 c 0.246199,-0.09852 0.54036,-0.08641 0.653691,0.02691 0.11333,0.11333 -0.08811,0.193938 -0.447637,0.17913 -0.39731,-0.01637 -0.478126,-0.09718 -0.206054,-0.206053 z M 15.810215,74.55827 c 0,-0.07082 0.268582,-0.339402 0.596848,-0.596848 0.540934,-0.424229 0.552997,-0.412166 0.128768,0.128769 -0.445546,0.568114 -0.725616,0.748782 -0.725616,0.468079 z m 16.222094,-0.453369 c -0.185086,-0.486073 -0.145911,-0.525247 0.190921,-0.190923 0.233084,0.231352 0.337875,0.50655 0.232868,0.611558 -0.105007,0.105007 -0.295712,-0.08428 -0.423789,-0.420635 z m -1.418557,-1.890518 -0.649708,-0.767377 0.767377,0.649709 c 0.721144,0.610565 0.922639,0.885044 0.649707,0.885044 -0.06472,0 -0.410037,-0.34532 -0.767376,-0.767376 z m 1.789801,0.142851 c -0.618563,-0.683504 -0.439231,-1.080756 0.48789,-1.080756 0.645316,0 0.988779,0.595634 0.73749,1.278961 -0.21687,0.589727 -0.562973,0.533746 -1.22538,-0.198205 z m 3.017389,-0.05759 c -0.281568,-0.45559 0.09682,-1.023169 0.682113,-1.023169 0.69572,0 1.012743,0.71232 0.470014,1.056077 -0.616235,0.390318 -0.895488,0.382341 -1.152127,-0.03291 z m 4.06172,-0.128207 c -0.288947,-0.752987 0.09547,-1.137402 0.616435,-0.616432 0.307598,0.307599 0.308908,0.498256 0.0055,0.80167 -0.303411,0.30341 -0.45132,0.259356 -0.62193,-0.185238 z m 6.340492,-0.21285 c 0,-0.37895 0.227372,-0.682112 0.511584,-0.682112 0.284213,0 0.511585,0.303162 0.511585,0.682112 0,0.378951 -0.227372,0.682113 -0.511585,0.682113 -0.284212,0 -0.511584,-0.303162 -0.511584,-0.682113 z m 3.58109,0.341057 c -0.248698,-0.402402 0.0739,-1.023169 0.531713,-1.023169 0.17651,0 0.320927,0.306951 0.320927,0.682112 0,0.719315 -0.496196,0.917796 -0.85264,0.341057 z m -7.197311,-0.3979 c -0.09661,-0.156317 0.140355,-0.284213 0.526587,-0.284213 0.386232,0 0.702241,0.127896 0.702241,0.284213 0,0.156319 -0.236962,0.284215 -0.526587,0.284215 -0.289621,0 -0.60563,-0.127896 -0.702241,-0.284215 z M 26.041899,69.230141 c -0.307391,-0.198651 -0.349458,-0.332696 -0.105392,-0.335834 0.223405,-0.0027 0.501045,0.148254 0.616976,0.335834 0.261694,0.423432 0.143627,0.423432 -0.511584,0 z m 2.618277,-0.382313 c -0.587101,-0.341418 -0.589313,-0.397419 -0.03968,-1.004755 0.708326,-0.782693 1.173023,-0.563002 1.173023,0.554557 0,0.913771 -0.199744,0.993115 -1.13334,0.450198 z M 39.57046,68.661713 c -0.463086,-0.463082 -0.238109,-1.46062 0.284212,-1.260188 0.281371,0.107975 0.511584,0.486844 0.511584,0.841938 0,0.647877 -0.37112,0.842927 -0.795796,0.41825 z m 2.842133,-0.45474 c 0,-0.378951 0.227372,-0.682112 0.511584,-0.682112 0.284212,0 0.511584,0.303161 0.511584,0.682112 0,0.378951 -0.227372,0.682112 -0.511584,0.682112 -0.284212,0 -0.511584,-0.303161 -0.511584,-0.682112 z m 40.690104,0.462622 c -0.609348,-0.247886 -0.128169,-1.144734 0.614177,-1.144734 0.418251,0 0.645623,0.240223 0.645623,0.682112 0,0.658743 -0.408749,0.808842 -1.2598,0.462622 z M 18.630419,68.311681 c 0.331836,-0.08647 0.792262,-0.08079 1.023168,0.01265 0.230906,0.09343 -0.0406,0.164174 -0.603339,0.157223 -0.562742,-0.007 -0.751666,-0.08339 -0.419829,-0.169859 z m 4.256711,0.01047 c 0.234476,-0.09461 0.618164,-0.09461 0.85264,0 0.234476,0.09461 0.04263,0.172026 -0.42632,0.172026 -0.468952,0 -0.660796,-0.07741 -0.42632,-0.172026 z m 3.069505,-0.248892 C 25.628368,67.82407 25.359787,67.522 25.359787,67.401996 c 0,-0.377843 1.209301,-0.236697 1.637069,0.191073 0.921604,0.921605 0.06325,1.317844 -1.040221,0.48019 z m 6.56533,0.128489 c -0.454741,-0.298519 -0.454741,-0.373149 0,-0.671669 0.766803,-0.503371 1.023169,-0.419226 1.023169,0.335835 0,0.755061 -0.256366,0.839206 -1.023169,0.335834 z m 3.069505,-0.165306 c 0,-0.281371 0.153476,-0.511584 0.341057,-0.511584 0.18758,0 0.341056,0.230213 0.341056,0.511584 0,0.281371 -0.153476,0.511584 -0.341056,0.511584 -0.187581,0 -0.341057,-0.230213 -0.341057,-0.511584 z m 10.231684,-0.02841 c 0,-0.602281 0.734212,-0.497393 0.945009,0.135 0.07425,0.222751 -0.107999,0.405004 -0.405004,0.405004 -0.297002,-1e-5 -0.540005,-0.243012 -0.540005,-0.540014 z M 15.980743,67.865917 c 0.115931,-0.187581 0.278464,-0.341056 0.361184,-0.341056 0.08272,0 0.1504,0.153475 0.1504,0.341056 0,0.187581 -0.162533,0.341056 -0.361184,0.341056 -0.198651,0 -0.266331,-0.153475 -0.1504,-0.341056 z m 2.387393,-0.341056 c 0.115931,-0.187581 0.355202,-0.341056 0.531712,-0.341056 0.176511,0 0.320928,0.153475 0.320928,0.341056 0,0.187581 -0.23927,0.341056 -0.531712,0.341056 -0.292442,0 -0.43686,-0.153475 -0.320928,-0.341056 z m 0.233138,-2.984241 c 0.06375,-0.554077 0.315367,-0.937905 0.614831,-0.937905 0.662745,0 0.886612,1.198386 0.294021,1.573927 -0.787413,0.499006 -1.020669,0.335769 -0.908852,-0.636022 z m 3.516593,0.593795 c -0.316873,-0.512709 0.169461,-1.75973 0.627676,-1.609437 0.625765,0.205251 0.714457,1.953546 0.0991,1.953546 -0.28276,0 -0.609811,-0.15485 -0.72678,-0.344109 z m 3.66824,0.118234 c -0.234476,-0.09461 -0.42632,-0.466186 -0.42632,-0.825714 0,-0.4699 0.239728,-0.653692 0.85264,-0.653692 0.876939,0 1.004556,0.230438 0.645623,1.165802 -0.215059,0.560437 -0.357184,0.602015 -1.071943,0.313604 z m 13.429085,-0.0462 c -0.09248,-0.149641 -0.03121,-0.493675 0.136197,-0.764525 0.230056,-0.372235 0.400472,-0.396327 0.698105,-0.09869 0.216563,0.216563 0.290634,0.560597 0.1646,0.764525 -0.269318,0.435764 -0.760582,0.484303 -0.998902,0.09869 z M 79.79362,64.936163 c -0.260304,-0.678351 0.02202,-1.16292 0.677563,-1.16292 0.696917,0 1.024839,1.026392 0.445187,1.393423 -0.676757,0.42852 -0.886371,0.385485 -1.12275,-0.230503 z m 2.75113,0.0591 c -0.250424,-0.652587 0.692088,-1.632824 1.432824,-1.49017 0.335613,0.06463 0.555451,0.442582 0.555451,0.95494 0,0.661304 -0.196871,0.870798 -0.894335,0.951683 -0.560365,0.06498 -0.968875,-0.09053 -1.09394,-0.416453 z M 15.810215,64.455356 c 0,-0.375162 0.153475,-0.682113 0.341056,-0.682113 0.187581,0 0.341056,0.306951 0.341056,0.682113 0,0.375161 -0.153475,0.682112 -0.341056,0.682112 -0.187581,0 -0.341056,-0.306951 -0.341056,-0.682112 z m 13.130661,0.341056 c -0.248699,-0.402402 0.0739,-1.023169 0.531712,-1.023169 0.176511,0 0.320928,0.306951 0.320928,0.682113 0,0.719314 -0.496196,0.917795 -0.85264,0.341056 z m 13.642245,0 c 0.115932,-0.187581 0.278466,-0.341056 0.361185,-0.341056 0.08272,0 0.150399,0.153475 0.150399,0.341056 0,0.187581 -0.162533,0.341056 -0.361185,0.341056 -0.198652,0 -0.266331,-0.153475 -0.150399,-0.341056 z m 37.176087,-3.407509 c -0.259148,-0.816506 0.02765,-1.367277 0.711975,-1.367277 0.697163,0 0.984711,0.927519 0.477148,1.539094 -0.572054,0.689281 -0.932342,0.637223 -1.189123,-0.171817 z m 3.081827,0.219371 c -0.60578,-0.442961 -0.601947,-0.486408 0.105342,-1.193697 1.187036,-1.187035 2.010847,-0.767976 1.612258,0.820131 -0.234647,0.93491 -0.785937,1.054812 -1.7176,0.373566 z M 15.675069,61.184545 c -0.258858,-0.674578 0.02117,-1.162919 0.666858,-1.162919 0.296849,0 0.491456,0.337628 0.491456,0.85264 0,0.953753 -0.826438,1.17513 -1.158314,0.310279 z m 6.485598,0.01443 c -0.26712,-0.696116 0.01289,-1.177346 0.685047,-1.177346 0.334838,0 0.477027,0.259271 0.406193,0.740661 -0.135123,0.918297 -0.803751,1.185856 -1.09124,0.436671 z m 6.725212,-0.04728 c -0.121389,-0.340169 -0.282838,-0.733584 -0.358775,-0.87427 -0.07594,-0.140686 0.17794,-0.255792 0.564172,-0.255792 0.467752,0 0.70224,0.221045 0.70224,0.661983 0,0.902977 -0.635484,1.230694 -0.907637,0.468065 z m 6.613764,-0.08014 c -0.217447,-0.831519 0.325286,-1.293929 0.874304,-0.744911 0.281945,0.281945 0.241727,0.522246 -0.153563,0.917533 -0.486695,0.486698 -0.552443,0.470951 -0.720741,-0.172622 z m 41.230004,0.127422 c -0.267119,-0.696116 0.01289,-1.177346 0.685049,-1.177346 0.334835,0 0.477025,0.259271 0.406191,0.740661 -0.135123,0.918297 -0.80375,1.185856 -1.09124,0.436671 z M 18.543887,60.95953 c 0.0029,-0.234476 0.139851,-0.638897 0.304397,-0.898717 0.240953,-0.380465 0.370345,-0.339412 0.66489,0.21095 0.201143,0.375841 0.268798,0.780262 0.150344,0.898717 -0.374439,0.374439 -1.12507,0.233013 -1.119631,-0.21095 z m 6.71228,-0.0339 c -0.250698,-0.653293 0.0372,-0.904003 1.03811,-0.904003 0.597684,0 0.789883,0.162244 0.70705,0.596848 -0.141694,0.743431 -1.486893,0.980202 -1.74516,0.307169 z m 57.766859,-2.484764 c -0.836921,-1.063972 -0.88813,-1.760303 -0.20155,-2.740536 0.446384,-0.637305 0.446384,-0.770351 0,-1.140816 -0.673917,-0.559301 -0.641384,-1.590038 0.06262,-1.984019 0.517679,-0.289707 0.503256,-0.400059 -0.163021,-1.247092 -0.599881,-0.762625 -0.662216,-1.06033 -0.347619,-1.660186 0.210835,-0.40201 0.591146,-0.85366 0.845131,-1.003667 0.680458,-0.401884 0.564799,-0.700127 -0.455198,-1.173775 -0.766704,-0.356029 -1.008946,-0.33532 -1.523388,0.130245 -0.509593,0.461177 -0.775224,0.485866 -1.591153,0.147896 -0.538692,-0.223133 -1.388713,-0.302974 -1.88894,-0.177424 -0.8547,0.214528 -1.923815,-0.263756 -1.923815,-0.860631 0,-0.135911 0.310299,-0.604887 0.689557,-1.042172 0.529224,-0.610204 0.782983,-0.701638 1.09138,-0.393242 0.556163,0.556164 1.858449,0.504112 2.083856,-0.08329 0.225537,-0.587739 1.465007,-0.338034 1.728336,0.348191 0.100878,0.262886 0.338785,0.477977 0.528678,0.477977 0.568568,0 0.788048,-1.584325 0.336391,-2.428255 l -0.420925,-0.786506 -0.279199,0.75474 c -0.335449,0.906807 -1.511411,0.99982 -2.405922,0.190295 -0.581883,-0.526594 -0.671622,-0.521075 -1.338349,0.0823 -0.704288,0.637372 -0.724059,0.635121 -1.364224,-0.15545 -0.783423,-0.967491 -0.80168,-1.198986 -0.137995,-1.749799 0.281371,-0.233518 0.511584,-0.64696 0.511584,-0.918761 0,-0.271801 -0.230213,-0.7244 -0.511584,-1.005771 -0.281371,-0.281371 -0.511584,-0.73565 -0.511584,-1.00951 0,-0.27386 0.230213,-0.586268 0.511584,-0.694241 0.281371,-0.107972 0.511584,-0.468051 0.511584,-0.800175 0,-0.332125 -0.230213,-0.794923 -0.511584,-1.02844 -0.673354,-0.558833 -0.647584,-1.330765 0.07093,-2.12471 0.471421,-0.520914 0.503528,-0.753684 0.168359,-1.220551 -0.763461,-1.063444 -0.860952,-1.515988 -0.463639,-2.152188 0.532583,-0.852804 0.496875,-1.533066 -0.130757,-2.490954 -0.475439,-0.725613 -0.473274,-0.854591 0.02268,-1.350547 0.469106,-0.469106 0.486755,-0.718581 0.122159,-1.726847 -0.326905,-0.904048 -0.33432,-1.380088 -0.03182,-2.043974 0.450917,-0.989655 0.259305,-1.751682 -0.515196,-2.048885 -0.293714,-0.112709 -0.550431,-0.162944 -0.570478,-0.111634 -0.02005,0.05131 -0.249203,0.470011 -0.509234,0.930444 -0.337131,0.596952 -0.361598,0.874215 -0.08526,0.966326 0.580211,0.193404 0.466858,1.806765 -0.176923,2.518133 -0.52522,0.580362 -0.52522,0.667044 0,1.247406 0.701576,0.775232 0.72104,1.550207 0.05286,2.104746 -0.281371,0.233518 -0.511584,0.617206 -0.511584,0.852641 0,0.235434 0.230213,0.619122 0.511584,0.85264 1.406795,1.167537 -0.01381,2.644322 -1.908417,1.983864 -0.942389,-0.328519 -1.178192,-0.30414 -1.46562,0.151525 -0.309154,0.490112 -0.430921,0.480098 -1.249456,-0.102749 -0.762059,-0.542634 -1.07006,-0.584204 -1.928301,-0.260255 -0.56176,0.212041 -1.274226,0.288503 -1.583261,0.169916 -0.702466,-0.269562 -0.739754,-1.801064 -0.05029,-2.065636 0.281371,-0.107973 0.511584,-0.412551 0.511584,-0.676841 0,-0.26429 -0.230213,-0.671587 -0.511584,-0.905105 -0.597929,-0.496237 -0.674084,-1.747414 -0.138932,-2.282566 0.269499,-0.269498 0.269499,-0.565396 0,-1.068958 -0.473158,-0.884105 -0.481483,-2.338912 -0.01504,-2.627194 0.244469,-0.15109 0.231256,-0.373272 -0.04176,-0.70224 -0.219661,-0.264671 -0.273156,-0.481221 -0.118879,-0.481221 0.154273,0 0.09633,-0.18417 -0.128769,-0.409267 -1.159294,-1.159294 0.167598,-2.273354 2.236588,-1.877842 0.510387,0.09757 1.217373,0.02251 1.571085,-0.166789 0.452694,-0.242275 0.882077,-0.21629 1.450205,0.08776 0.640575,0.342826 0.995945,0.345897 1.722439,0.01488 0.787144,-0.358647 1.045068,-0.321154 1.841519,0.267687 0.917748,0.678521 0.931639,0.678702 1.527819,0.01993 0.657737,-0.726794 1.527874,-0.860673 2.070051,-0.318496 0.234387,0.234387 0.693298,0.173222 1.419884,-0.189246 0.83537,-0.416738 1.232526,-0.45049 1.79003,-0.152123 0.483792,0.258917 0.850713,0.272025 1.129847,0.04036 1.080453,-0.896693 3.577768,0.462517 3.049912,1.659968 -0.124035,0.281372 -0.269492,1.355699 -0.323243,2.387393 -0.104953,2.014515 -0.112446,2.558269 -0.08905,6.461805 0.0084,1.396813 -0.07431,2.896346 -0.18372,3.332296 -0.109418,0.43595 -0.03709,1.095051 0.160723,1.46467 0.27044,0.505321 0.222051,0.938138 -0.19505,1.744726 -0.411775,0.796286 -0.465685,1.258459 -0.209211,1.793625 0.384882,0.803112 0.332574,5.17724 -0.07254,6.065916 -0.14296,0.313608 -0.09464,0.879052 0.107389,1.25654 0.532951,0.995829 0.45017,2.331691 -0.158973,2.565441 -0.384889,0.147698 -0.440263,0.363678 -0.206097,0.803866 0.176111,0.331049 0.267105,2.105578 0.202215,3.943393 -0.06489,1.837815 0.0027,3.667874 0.150328,4.066798 0.229817,0.621257 -0.393617,2.652874 -0.814077,2.652874 -0.06644,0 -0.438885,-0.404387 -0.827662,-0.898635 z m 0.998415,-12.061484 c 0,-0.187581 -0.153476,-0.341056 -0.341056,-0.341056 -0.187581,0 -0.341057,0.153475 -0.341057,0.341056 0,0.187581 0.153476,0.341056 0.341057,0.341056 0.18758,0 0.341056,-0.153475 0.341056,-0.341056 z m -6.480067,-3.751618 c 0,-0.187581 -0.162533,-0.341056 -0.361185,-0.341056 -0.198652,0 -0.266331,0.153475 -0.150399,0.341056 0.115932,0.187581 0.278466,0.341056 0.361185,0.341056 0.08272,0 0.150399,-0.153475 0.150399,-0.341056 z m 3.240033,0 c 0.115932,-0.187581 -0.02848,-0.341056 -0.320927,-0.341056 -0.292442,0 -0.531713,0.153475 -0.531713,0.341056 0,0.187581 0.144417,0.341056 0.320927,0.341056 0.17651,0 0.415782,-0.153475 0.531713,-0.341056 z m 3.240034,0 c 0,-0.187581 -0.153476,-0.341056 -0.341056,-0.341056 -0.187581,0 -0.341057,0.153475 -0.341057,0.341056 0,0.187581 0.153476,0.341056 0.341057,0.341056 0.18758,0 0.341056,-0.153475 0.341056,-0.341056 z m -4.500962,-1.576607 c 0.125034,-0.876323 -0.678286,-1.259534 -1.452934,-0.693101 -0.355868,0.260219 -0.477679,0.635002 -0.330797,1.017777 0.324222,0.844901 1.651322,0.603341 1.783731,-0.324676 z m 3.023551,0.356465 c 0.113555,-0.295917 -0.02896,-0.773457 -0.316708,-1.061199 -0.470187,-0.470187 -0.546215,-0.450549 -0.750764,0.193921 -0.384032,1.209989 0.622237,2.027541 1.067472,0.867278 z m 1.818467,-2.381075 c 0,-0.578745 -0.878868,-0.659804 -1.217264,-0.112269 -0.257101,0.416003 0.508877,1.041533 0.945186,0.771877 0.149642,-0.09248 0.272078,-0.389307 0.272078,-0.659608 z m -6.991651,0.190656 c 0.115932,-0.187581 0.04825,-0.341056 -0.150399,-0.341056 -0.198651,0 -0.361185,0.153475 -0.361185,0.341056 0,0.187581 0.06768,0.341056 0.150399,0.341056 0.08272,0 0.245253,-0.153475 0.361185,-0.341056 z m 3.58109,-0.170528 c 0,-0.281371 -0.230213,-0.511584 -0.511585,-0.511584 -0.281371,0 -0.511584,0.230213 -0.511584,0.511584 0,0.281371 0.230213,0.511584 0.511584,0.511584 0.281372,0 0.511585,-0.230213 0.511585,-0.511584 z m -1.5508,-0.907385 c 1.044444,-0.475881 1.071974,-0.678734 0.199279,-1.468512 -1.120482,-1.014022 -2.66653,0.209801 -1.71438,1.357072 0.504835,0.608287 0.435788,0.603208 1.515101,0.11144 z m 3.25608,-0.819528 c 0,-0.740059 -0.710433,-0.948855 -1.282391,-0.376896 -0.442568,0.442569 -0.458533,0.626745 -0.09255,1.067729 0.337031,0.406098 0.55324,0.440812 0.908607,0.145885 0.256485,-0.212862 0.466333,-0.589386 0.466334,-0.836718 z m -5.115842,-1.854176 c 0,-0.375162 -0.153475,-0.682113 -0.341056,-0.682113 -0.187581,0 -0.341056,0.306951 -0.341056,0.682113 0,0.375161 0.153475,0.682112 0.341056,0.682112 0.187581,0 0.341056,-0.306951 0.341056,-0.682112 z m 6.821123,0 c 0,-0.500216 -0.227372,-0.682113 -0.85264,-0.682113 -0.802509,0 -1.143019,0.619106 -0.625269,1.136854 0.508869,0.508869 1.477909,0.210703 1.477909,-0.454741 z m -3.069505,0.04176 c 0,-0.164613 -0.209849,-0.473456 -0.466333,-0.686318 -0.352287,-0.292371 -0.560086,-0.274057 -0.849684,0.07488 -0.21084,0.254048 -0.28236,0.562891 -0.158935,0.686318 0.330985,0.330983 1.474952,0.272903 1.474952,-0.07488 z m -1.766825,-2.002833 c 0.08819,-0.620963 -0.05438,-0.767376 -0.747247,-0.767376 -0.971597,0 -1.391372,0.471424 -1.098763,1.233949 0.308349,0.803543 1.71616,0.447724 1.84601,-0.466573 z m 2.935211,0.36929 c 0.290403,-0.756778 -0.350899,-1.408464 -0.872616,-0.886746 -0.417544,0.417543 -0.175698,1.45536 0.33915,1.45536 0.173396,0 0.413459,-0.255876 0.533466,-0.568614 z m 1.901119,-2.159835 c 0,-0.773555 -0.156221,-1.023168 -0.640354,-1.023168 -1.036674,0 -1.534459,0.84597 -0.88181,1.498619 0.877946,0.877947 1.522164,0.676724 1.522164,-0.475451 z m -13.642245,0 c 0,-0.375162 -0.153476,-0.682112 -0.341056,-0.682112 -0.187581,0 -0.341057,0.30695 -0.341057,0.682112 0,0.375162 0.153476,0.682112 0.341057,0.682112 0.18758,0 0.341056,-0.30695 0.341056,-0.682112 z m 6.821122,0 c 0,-0.375162 -0.153475,-0.682112 -0.341056,-0.682112 -0.187581,0 -0.341056,0.30695 -0.341056,0.682112 0,0.375162 0.153475,0.682112 0.341056,0.682112 0.187581,0 0.341056,-0.30695 0.341056,-0.682112 z m 3.690074,-0.08178 c -0.130522,-0.914864 -1.12863,-1.204778 -1.431402,-0.41577 -0.28793,0.750336 0.02312,1.179662 0.854683,1.179662 0.515244,0 0.65861,-0.189898 0.576719,-0.763892 z M 67.30969,31.734095 c 0,-0.17651 -0.153475,-0.415781 -0.341056,-0.531712 -0.187581,-0.115931 -0.341056,0.02848 -0.341056,0.320928 0,0.292442 0.153475,0.531712 0.341056,0.531712 0.187581,0 0.341056,-0.144417 0.341056,-0.320928 z m 6.480067,-0.02013 c 0,-0.187581 -0.162534,-0.341056 -0.361185,-0.341056 -0.198652,0 -0.266331,0.153475 -0.150399,0.341056 0.115931,0.187581 0.278465,0.341056 0.361185,0.341056 0.08272,0 0.150399,-0.153475 0.150399,-0.341056 z m -4.428345,-1.203761 c 0.395639,-0.739255 0.387682,-0.936732 -0.0556,-1.380019 -0.46238,-0.462381 -0.60457,-0.446659 -1.339017,0.14806 -0.810097,0.655976 -0.812567,0.675468 -0.174955,1.380019 0.829308,0.916376 1.00898,0.899427 1.569577,-0.14806 z m 3.149384,0.04688 c 0.792332,-0.601465 0.739925,-0.940296 -0.257685,-1.666101 -0.819605,-0.596296 -0.8366,-0.592165 -1.049235,0.255029 -0.2298,0.915608 0.0014,1.892988 0.443578,1.874991 0.146572,-0.006 0.535076,-0.214729 0.863342,-0.463919 z m 6.906387,-0.71893 c 0,-0.447714 -0.263698,-0.719564 -0.767376,-0.791098 -0.629481,-0.0894 -0.767377,0.05276 -0.767377,0.791098 0,0.738339 0.137896,0.880497 0.767377,0.791097 0.503678,-0.07153 0.767376,-0.343384 0.767376,-0.791097 z m 2.898977,0 c 0,-0.281372 -0.153475,-0.511585 -0.341056,-0.511585 -0.187581,0 -0.341056,0.230213 -0.341056,0.511585 0,0.281371 0.153475,0.511584 0.341056,0.511584 0.187581,0 0.341056,-0.230213 0.341056,-0.511584 z m -1.026773,-1.359882 c 0.566699,-0.682828 0.189214,-1.539096 -0.678508,-1.539096 -0.773777,0 -1.20593,0.737079 -0.899832,1.534753 0.251246,0.654735 1.03677,0.656897 1.57834,0.0043 z m 3.254535,-0.209203 c 0.303403,-0.955936 -0.272893,-1.466481 -1.350149,-1.196107 -0.941309,0.236252 -1.129933,0.841697 -0.468346,1.503284 0.638744,0.638744 1.568095,0.48176 1.818495,-0.307177 z m -13.832186,-0.79272 c -0.458745,-0.458742 -0.799924,0.0059 -0.526854,0.717521 0.195934,0.510601 0.277845,0.526212 0.539514,0.102824 0.18609,-0.301098 0.181066,-0.626619 -0.01265,-0.820345 z m 6.948783,0.667446 c 0.215701,-0.562109 -0.286886,-1.010932 -0.786363,-0.70224 -0.361963,0.223706 -0.09646,1.202902 0.326162,1.202902 0.147442,0 0.354531,-0.225298 0.460201,-0.500662 z M 67.30969,27.791822 c 0,-0.281372 -0.153475,-0.511584 -0.341056,-0.511584 -0.187581,0 -0.341056,0.230212 -0.341056,0.511584 0,0.281371 0.153475,0.511584 0.341056,0.511584 0.187581,0 0.341056,-0.230213 0.341056,-0.511584 z m 6.480067,0 c 0,-0.281372 -0.153475,-0.511584 -0.341056,-0.511584 -0.187581,0 -0.341056,0.230212 -0.341056,0.511584 0,0.281371 0.153475,0.511584 0.341056,0.511584 0.187581,0 0.341056,-0.230213 0.341056,-0.511584 z m -1.214924,-1.050665 c 0.603008,-0.603007 0.47104,-0.992732 -0.514821,-1.520349 -0.555976,-0.297549 -0.717561,-0.226053 -0.959357,0.424487 -0.555379,1.494205 0.380288,2.189753 1.474178,1.095862 z m -2.697989,-0.157972 c 0.257521,-0.416674 -0.430389,-1.351646 -0.988896,-1.344062 -0.744413,0.01011 -1.334276,0.614094 -1.127074,1.154053 0.23318,0.607658 1.772424,0.745878 2.11597,0.190009 z m 9.369811,-0.269273 c 0,-0.804611 -0.286668,-1.079474 -0.885985,-0.849495 -0.754458,0.289513 -0.590607,1.474764 0.203873,1.474764 0.434072,0 0.682112,-0.22737 0.682112,-0.625269 z M 81.22478,25.16569 c 1.002491,-1.00249 0.117528,-2.511638 -1.210749,-2.064724 -0.929327,0.312683 -0.431514,2.297006 0.613901,2.447066 0.10317,0.01481 0.371751,-0.157245 0.596848,-0.382342 z m 3.252891,-0.332051 c 0.54774,-0.868344 0.01496,-1.646075 -1.12764,-1.646075 -0.91562,0 -1.033871,0.114168 -1.033871,0.998161 0,1.3605 1.439792,1.792078 2.161511,0.647914 z M 73.888489,24.210393 c -0.09806,-0.374975 -0.313864,-0.681773 -0.479566,-0.681773 -0.345704,0 -0.410352,1.141465 -0.08318,1.468638 0.39541,0.395411 0.744335,-0.09247 0.562746,-0.786865 z m 3.652885,0.170867 c 0,-0.468952 -0.135576,-0.85264 -0.301278,-0.85264 -0.357192,0 -0.731781,1.240649 -0.457425,1.515004 0.42837,0.42837 0.758703,0.139982 0.758703,-0.662364 z m -10.37785,-0.170528 c 0,-0.375161 -0.120587,-0.682112 -0.267975,-0.682112 -0.147384,0 -0.267971,0.306951 -0.267971,0.682112 0,0.375162 0.120587,0.682113 0.267971,0.682113 0.147388,0 0.267975,-0.306951 0.267975,-0.682113 z m 3.556728,0.170528 c 0,-0.281371 0.01149,-0.622853 0.02558,-0.758849 0.01409,-0.135997 -0.139407,-0.302261 -0.341056,-0.369478 -0.20165,-0.06722 -0.366636,0.274266 -0.366636,0.75885 0,0.484584 0.153476,0.881062 0.341057,0.881062 0.18758,0 0.341056,-0.230213 0.341056,-0.511585 z m -1.511186,-1.572883 c 0.128892,-0.208553 0.0311,-0.504795 -0.217287,-0.658315 -0.543282,-0.335767 -1.78475,0.254418 -1.500984,0.713558 0.275259,0.445381 1.431849,0.408196 1.718271,-0.05524 z m 3.557522,0.07462 c 0,-0.304621 -0.801986,-0.718601 -1.392119,-0.718601 -0.172237,0 -0.313161,0.230212 -0.313161,0.511584 0,0.318319 0.322107,0.511584 0.85264,0.511584 0.468952,0 0.85264,-0.137055 0.85264,-0.304567 z m 6.387699,-0.242544 c -0.113333,-0.11333 -0.407494,-0.125447 -0.653692,-0.02693 -0.272071,0.108874 -0.191258,0.189689 0.206056,0.206054 0.359527,0.01481 0.560965,-0.0658 0.447636,-0.179129 z m 2.2065,-1.341296 c 0.318181,-0.698331 0.294928,-0.964543 -0.12055,-1.380019 -0.459003,-0.459003 -0.596476,-0.4484 -1.268776,0.09786 -0.73132,0.594218 -0.735607,0.635586 -0.142555,1.375502 0.786707,0.981521 1.049433,0.965512 1.531881,-0.09334 z m 3.342766,-0.721979 c 0,-0.98797 -0.710376,-1.332631 -1.678631,-0.814438 -0.94405,0.505241 -0.910599,1.66504 0.05861,2.032312 0.965199,0.36575 1.620017,-0.126521 1.620017,-1.217874 z m -6.973285,0.534332 c 0.351465,-0.568683 -0.439011,-1.220814 -0.909501,-0.750323 -0.393551,0.393553 -0.147241,1.121096 0.379551,1.121096 0.16544,0 0.403916,-0.166848 0.52995,-0.370773 z M 67.650747,20.649771 c 0,-0.700565 -0.706072,-1.044785 -1.038796,-0.506427 -0.154232,0.249552 -0.204753,0.576165 -0.112269,0.725807 0.28663,0.46378 1.151065,0.299029 1.151065,-0.21938 z m 3.004134,0.124821 c -0.06722,-0.20165 -0.268012,-0.366635 -0.446214,-0.366635 -0.178201,0 -0.378998,0.164985 -0.446213,0.366635 -0.06722,0.201649 0.133578,0.366635 0.446213,0.366635 0.312636,0 0.513433,-0.164986 0.446214,-0.366635 z m 3.305404,0.02558 c 0.115932,-0.187581 -0.114281,-0.341056 -0.511584,-0.341056 -0.397303,0 -0.627516,0.153475 -0.511584,0.341056 0.115931,0.187581 0.346144,0.341056 0.511584,0.341056 0.165439,0 0.395652,-0.153475 0.511584,-0.341056 z m 2.765726,37.03169 c -0.225438,-0.898208 0.03531,-1.902909 0.49385,-1.902909 0.59605,0 0.933528,1.144919 0.571613,1.939235 -0.461398,1.012664 -0.805124,1.000945 -1.065463,-0.03633 z m 2.602204,0.140891 -0.726098,-0.587957 1.00663,-0.964411 c 1.242611,-1.190498 1.869176,-0.732985 1.724653,1.259336 -0.05886,0.811454 -1.165283,0.973145 -2.005185,0.293032 z M 22.162997,57.794468 c -0.285921,-0.745099 0.422255,-2.048025 0.869868,-1.600409 0.428552,0.42855 0.235043,1.857224 -0.274243,2.024724 -0.211365,0.06951 -0.479396,-0.121426 -0.595625,-0.424315 z m -6.429373,-0.0095 c -0.258591,-0.258592 0.0905,-1.515006 0.420936,-1.515006 0.366597,0 0.723148,1.016586 0.489274,1.395002 -0.216381,0.350114 -0.626085,0.404128 -0.91021,0.120004 z m 2.80504,-0.293414 c 0,-0.70779 0.373154,-1.562648 0.682112,-1.562648 0.400548,0 0.688346,0.951138 0.464391,1.534753 -0.249187,0.649371 -1.146503,0.671202 -1.146503,0.0279 z m 54.568981,-0.198423 c 0,-0.439584 0.172714,-0.681383 0.42632,-0.596848 0.234476,0.07816 0.42632,0.346741 0.42632,0.596848 0,0.250107 -0.191844,0.518688 -0.42632,0.596848 -0.253606,0.08453 -0.42632,-0.157264 -0.42632,-0.596848 z m -46.72469,-0.170528 c 0,-0.281371 0.153475,-0.511584 0.341056,-0.511584 0.187581,0 0.341056,0.230213 0.341056,0.511584 0,0.281371 -0.153475,0.511584 -0.341056,0.511584 -0.187581,0 -0.341056,-0.230213 -0.341056,-0.511584 z m 2.304312,0.314818 c -0.345385,-0.345384 0.116656,-1.167459 0.656162,-1.167459 0.283544,0 0.452352,0.246216 0.389831,0.568585 -0.118367,0.610327 -0.700974,0.943894 -1.045993,0.598874 z m 4.175754,-0.294689 c 0,-0.292442 0.153476,-0.531713 0.341057,-0.531713 0.18758,0 0.341056,0.144416 0.341056,0.320927 0,0.17651 -0.153476,0.415781 -0.341056,0.531713 -0.187581,0.115932 -0.341057,-0.02848 -0.341057,-0.320927 z m 40.147682,-2.684136 c -0.625146,-0.954094 -0.465214,-1.940251 0.314662,-1.940251 0.678272,0 0.925377,0.833913 0.566303,1.911129 l -0.303486,0.910463 z m 3.598084,-0.12383 c -0.309362,-0.666267 -0.320896,-1.027323 -0.0435,-1.361561 0.941939,-1.134967 1.915348,-0.02817 1.253249,1.42499 -0.488925,1.073072 -0.686864,1.062694 -1.209747,-0.06343 z m 2.837481,0.05591 c -0.428434,-0.653872 -0.475149,-1.016432 -0.197754,-1.534752 0.19976,-0.373252 0.51127,-0.678637 0.692252,-0.678637 0.608826,0 0.335844,-0.599215 -0.532048,-1.167882 -0.772946,-0.506451 -0.936424,-0.511461 -1.596774,-0.04894 -0.5422,0.37977 -0.853895,0.41716 -1.185231,0.142176 -0.525885,-0.436446 -0.605757,-1.653808 -0.108507,-1.653808 0.187581,0 0.341056,-0.230213 0.341056,-0.511584 0,-0.716338 0.439775,-0.636895 0.944019,0.170528 0.534623,0.856068 0.942212,0.857558 2.023016,0.0074 l 0.857756,-0.674715 0.613287,0.757376 c 0.476295,0.588203 0.5329,0.91032 0.253412,1.442088 -0.197932,0.376594 -0.494999,0.773365 -0.660149,0.881719 -0.165149,0.108353 -0.0775,0.626401 0.194781,1.151218 0.377535,0.727701 0.40746,1.146457 0.126058,1.764068 -0.475088,1.042698 -1.061735,1.027326 -1.765174,-0.04626 z m -60.92181,-0.354698 c -0.362468,-0.436746 -0.340072,-0.62741 0.128768,-1.09625 0.529363,-0.529363 0.605738,-0.529363 1.135101,0 0.468839,0.46884 0.491235,0.659504 0.128768,1.09625 -0.241331,0.290788 -0.554674,0.528702 -0.696319,0.528702 -0.141644,0 -0.454987,-0.237914 -0.696318,-0.528702 z m -2.903137,-0.183127 c -0.297632,-0.481578 0.359711,-1.138922 0.841289,-0.84129 0.203925,0.126034 0.370773,0.450307 0.370773,0.720608 0,0.574209 -0.877754,0.661604 -1.212062,0.120682 z m 6.811916,-0.0149 c -0.29069,-0.470343 0.376947,-1.119063 0.850496,-0.826392 0.203925,0.12604 0.370773,0.357154 0.370773,0.513596 0,0.45369 -0.979192,0.704492 -1.221269,0.312803 z m 3.078711,0.0149 c -0.322307,-0.521505 0.377173,-1.125055 1.01861,-0.878915 0.29398,0.112811 0.534509,0.44014 0.534509,0.727401 0,0.596057 -1.205682,0.713677 -1.553119,0.151514 z m 3.067645,-0.0031 c -0.360419,-0.583172 0.776759,-1.564029 1.256774,-1.084013 0.213828,0.213829 0.296478,0.629307 0.183667,0.923287 -0.236039,0.615112 -1.100034,0.711514 -1.440441,0.160726 z m 4.193242,0.169911 c -0.30744,-0.307439 0.115891,-1.18472 0.46698,-0.967737 0.167925,0.103783 0.305319,0.409854 0.305319,0.680155 0,0.502236 -0.406338,0.653545 -0.772299,0.287582 z M 69.702305,53.8223 c 0.0027,-0.248228 0.156347,-0.681539 0.341056,-0.962911 0.29852,-0.45474 0.373112,-0.45474 0.671345,0 0.184532,0.281372 0.28692,0.66506 0.227532,0.852641 -0.166162,0.524813 -1.24584,0.620834 -1.239933,0.11027 z M 22.263572,50.720159 c -0.3283,-0.720539 -0.325133,-1.017858 0.01521,-1.427947 0.236413,-0.284861 0.565928,-0.433824 0.732255,-0.331026 0.392226,0.242409 0.380016,1.542222 -0.02043,2.175194 -0.25048,0.395922 -0.394585,0.313424 -0.727032,-0.416221 z m 47.255627,-0.27129 c -0.150812,-0.475152 -0.06889,-0.849959 0.226652,-1.037018 0.707306,-0.447677 1.144929,-0.163724 1.144929,0.742898 0,1.076326 -1.051739,1.301859 -1.371581,0.29412 z m 3.137218,0.322984 c -0.589914,-0.343055 -0.591575,-0.394923 -0.0324,-1.012797 0.661079,-0.730488 0.800895,-0.763918 1.456749,-0.348321 0.359992,0.228119 0.37611,0.45207 0.07326,1.017947 -0.436948,0.816444 -0.614004,0.857016 -1.497608,0.343171 z M 15.584643,50.281066 c -0.256073,-0.667314 0.05183,-0.971829 0.722447,-0.714488 0.674665,0.258892 0.675563,0.775217 0.0018,1.033765 -0.302025,0.115897 -0.609221,-0.01951 -0.724247,-0.319277 z m 3.190664,-0.02711 c -0.272481,-0.272476 0.03553,-0.805066 0.465597,-0.805066 0.176511,0 0.320928,0.230213 0.320928,0.511584 0,0.527413 -0.402433,0.677576 -0.786525,0.293486 z m 6.81185,-0.0093 c -0.432387,-0.432381 -0.224725,-0.79579 0.454742,-0.79579 0.378951,0 0.682112,0.227372 0.682112,0.511584 0,0.519227 -0.721471,0.699595 -1.136854,0.284212 z m 41.040421,-0.264077 c 0,-0.292442 0.153475,-0.531713 0.341056,-0.531713 0.187581,0 0.341056,0.144417 0.341056,0.320927 0,0.17651 -0.153475,0.415781 -0.341056,0.531713 -0.187581,0.115932 -0.341056,-0.02848 -0.341056,-0.320927 z M 29.111404,49.769813 c 0,-0.198652 0.153475,-0.266331 0.341056,-0.150399 0.187581,0.115932 0.341056,0.278465 0.341056,0.361185 0,0.08272 -0.153475,0.150399 -0.341056,0.150399 -0.187581,0 -0.341056,-0.162534 -0.341056,-0.361185 z m 37.058849,-2.775048 c -0.125386,-0.479473 -0.0058,-0.980516 0.309293,-1.295477 0.45648,-0.456344 0.550622,-0.456569 0.844431,-0.002 0.474747,0.734471 0.250506,1.850888 -0.396512,1.974105 -0.339818,0.06471 -0.631513,-0.19593 -0.757212,-0.676608 z m 3.185774,-0.237839 c 0,-1.15103 0.899208,-1.67084 1.628598,-0.941451 0.637325,0.637325 -0.0043,1.92813 -0.958484,1.92813 -0.511693,0 -0.670114,-0.233258 -0.670114,-0.986679 z m 2.898104,0.425502 c -0.520868,-0.520868 -0.504241,-0.615698 0.231431,-1.320136 0.5818,-0.557095 0.951355,-0.676782 1.389459,-0.44999 0.685397,0.354805 0.741746,0.74118 0.243794,1.671612 -0.432224,0.807618 -1.119282,0.843916 -1.864684,0.09851 z M 22.349305,46.528115 c 0.06133,-0.521822 0.315157,-1.015702 0.564065,-1.097505 0.318967,-0.104827 0.419645,0.131338 0.341056,0.800036 -0.06133,0.521823 -0.315156,1.015703 -0.564065,1.097505 -0.318967,0.104827 -0.419645,-0.131337 -0.341056,-0.800036 z m -6.53909,-0.120314 c 0,-0.41893 0.220216,-0.710533 0.536592,-0.710533 0.317605,0 0.491589,0.232045 0.42632,0.568585 -0.165941,0.855632 -0.962912,0.973119 -0.962912,0.141948 z m 2.868024,-0.156627 c -0.123113,-0.320828 -0.125587,-0.68158 -0.0055,-0.801669 0.120091,-0.120089 0.399959,-0.03674 0.621929,0.185238 0.307601,0.307598 0.308908,0.498255 0.0055,0.801669 -0.303411,0.303411 -0.451322,0.259356 -0.621929,-0.185238 z m 7.36366,0.128207 c 0,-0.187581 0.23927,-0.341056 0.531712,-0.341056 0.292442,0 0.43686,0.153475 0.320928,0.341056 -0.115931,0.187581 -0.355202,0.341056 -0.531712,0.341056 -0.176511,0 -0.320928,-0.153475 -0.320928,-0.341056 z M 66.105101,43.29784 c -0.611122,-0.675285 -0.609655,-0.712692 0.05391,-1.376264 0.674667,-0.674667 0.688647,-0.674892 1.280744,-0.02063 0.510486,0.564083 0.532904,0.766728 0.152241,1.376264 -0.553422,0.886169 -0.701737,0.888226 -1.486899,0.02063 z m 3.664457,0.289144 c -0.575952,-0.575952 -0.515817,-1.472923 0.134959,-2.013019 0.464972,-0.385892 0.617223,-0.361209 0.999857,0.162073 0.281498,0.38497 0.351615,0.886933 0.186316,1.333789 -0.32679,0.88339 -0.778195,1.060094 -1.321132,0.517157 z m 2.633737,-0.318659 c -0.320643,-0.59913 -0.264018,-0.846945 0.329055,-1.440018 l 0.716351,-0.716347 0.713029,0.713025 c 0.623597,0.623598 0.656083,0.804207 0.259015,1.440014 -0.580792,0.929996 -1.520681,0.931544 -2.01745,0.0034 z m -53.63726,0.155235 c -0.499699,-0.499699 -0.212033,-1.477909 0.434613,-1.477909 0.920901,0 1.151009,0.525677 0.510486,1.166201 -0.613721,0.61372 -0.635804,0.621005 -0.945099,0.311708 z m 40.828966,-0.267879 c -0.242904,-0.633004 0.111488,-1.21003 0.743168,-1.21003 0.296848,0 0.491455,0.337629 0.491455,0.85264 0,0.937124 -0.910968,1.200822 -1.234623,0.35739 z m 2.925699,-0.03346 c -0.360517,-0.434396 -0.348352,-0.619136 0.06821,-1.035699 0.283517,-0.28352 0.759195,-0.410225 1.079136,-0.287452 0.724106,0.277869 0.745815,1.371172 0.03264,1.644835 -0.713957,0.273971 -0.677382,0.283943 -1.180006,-0.321684 z m -40.230419,-0.32393 c 0,-0.281371 0.153476,-0.511584 0.341057,-0.511584 0.18758,0 0.341056,0.230213 0.341056,0.511584 0,0.281372 -0.153476,0.511585 -0.341056,0.511585 -0.187581,0 -0.341057,-0.230213 -0.341057,-0.511585 z m 43.878573,-2.840567 c -0.747192,-0.825638 -0.712064,-1.319631 0.12572,-1.768 1.044089,-0.558778 1.928066,0.420091 1.408719,1.559935 -0.453168,0.994595 -0.782257,1.039218 -1.534439,0.208065 z m 6.267091,0.04692 c -0.551867,-0.386543 -0.850536,-0.424796 -1.130533,-0.144799 -0.59043,0.590429 -1.547263,0.449785 -1.940647,-0.285259 -0.283776,-0.530237 -0.207898,-0.804065 0.372686,-1.344958 0.648221,-0.603912 0.785728,-0.622443 1.240932,-0.16724 0.281563,0.281562 0.683988,0.447428 0.894277,0.368591 1.470654,-0.551345 1.885611,-0.560766 2.392069,-0.05431 0.398302,0.398305 0.45696,0.714796 0.215939,1.165148 -0.481687,0.900042 -1.191217,1.060645 -2.044723,0.462825 z M 59.247679,39.728786 c -0.300501,-0.783087 0.121045,-1.534752 0.860707,-1.534752 0.796485,0 1.084674,0.629912 0.663153,1.449488 -0.376124,0.731306 -1.257038,0.780596 -1.52386,0.08526 z m 3.154408,-0.02469 c -0.226492,-0.590246 0.320173,-1.851116 0.80257,-1.851116 0.365701,0 1.376584,0.969605 1.376584,1.320374 0,0.96877 -1.839176,1.416696 -2.179154,0.530728 z m -46.702412,-0.28302 c -0.192567,-0.501821 0.02789,-0.885984 0.508439,-0.885984 0.156317,0 0.284213,0.30695 0.284213,0.682112 0,0.782014 -0.519522,0.915637 -0.792652,0.203872 z m 6.742768,0.107467 c -0.126032,-0.203925 -0.05835,-0.541571 0.1504,-0.750323 0.278697,-0.278697 0.379551,-0.180175 0.379551,0.370773 0,0.823483 -0.177165,0.95037 -0.529951,0.37955 z m 33.730087,-0.15552 c -0.257341,-0.670614 0.04717,-0.97852 0.714489,-0.722447 0.29975,0.115025 0.435173,0.422221 0.319276,0.724246 -0.258548,0.673764 -0.774873,0.672867 -1.033765,-0.0018 z M 18.87972,38.856018 c 0,-0.198651 0.153475,-0.266332 0.341056,-0.1504 0.187581,0.115931 0.341056,0.278464 0.341056,0.361184 0,0.08272 -0.153475,0.1504 -0.341056,0.1504 -0.187581,0 -0.341056,-0.162533 -0.341056,-0.361184 z m 6.991651,0.02013 c -0.115932,-0.187581 -0.04825,-0.341056 0.1504,-0.341056 0.198651,0 0.361184,0.153475 0.361184,0.341056 0,0.187581 -0.06768,0.341056 -0.1504,0.341056 -0.08272,0 -0.245253,-0.153475 -0.361184,-0.341056 z m 43.903954,-2.392617 c -0.938883,-0.760263 -0.964012,-1.410028 -0.08529,-2.205265 0.652041,-0.590087 0.69703,-0.583805 1.318891,0.184158 l 0.643822,0.795086 0.904716,-0.976205 0.904717,-0.976205 0.675369,0.724926 c 0.864741,0.928191 0.860205,1.838163 -0.01187,2.382789 -0.562752,0.351445 -0.868287,0.33558 -1.68658,-0.08758 -0.923809,-0.47772 -1.033489,-0.468002 -1.451371,0.128609 -0.436719,0.623506 -0.477813,0.624512 -1.212397,0.02968 z m 0.944927,-1.017944 c 0,-0.187581 -0.153476,-0.341056 -0.341056,-0.341056 -0.187581,0 -0.341057,0.153475 -0.341057,0.341056 0,0.187581 0.153476,0.341056 0.341057,0.341056 0.18758,0 0.341056,-0.153475 0.341056,-0.341056 z m 3.069505,-0.170528 c 0,-0.281372 -0.153475,-0.511585 -0.341056,-0.511585 -0.187581,0 -0.341056,0.230213 -0.341056,0.511585 0,0.281371 0.153475,0.511584 0.341056,0.511584 0.187581,0 0.341056,-0.230213 0.341056,-0.511584 z m -14.423656,0.980712 c -0.451685,-0.451684 -0.244213,-1.759432 0.313055,-1.973276 0.755852,-0.290048 1.546871,0.434837 1.422719,1.303776 -0.10086,0.705913 -1.254424,1.150851 -1.735774,0.6695 z m 2.887367,-0.5004 c -0.382852,-0.613045 -0.358415,-0.780101 0.173752,-1.187734 0.764211,-0.585373 1.456678,-0.49464 1.927161,0.252513 0.259401,0.411945 0.234517,0.716849 -0.09047,1.108432 -0.621507,0.748868 -1.480832,0.674832 -2.010445,-0.173211 z m 3.886888,0.177439 c -0.697034,-0.697035 -0.676243,-0.936651 0.145839,-1.680623 0.66069,-0.597918 0.702896,-0.592662 1.364224,0.169853 0.850045,0.980112 0.853657,1.24897 0.02275,1.693659 -0.853173,0.456604 -0.898758,0.451165 -1.532813,-0.182889 z M 53.241125,35.89327 c -0.802045,-0.183617 -0.759777,-0.98763 0.06324,-1.202853 0.404462,-0.10577 0.738983,0.03299 0.86382,0.358309 0.253899,0.66165 -0.143721,1.023878 -0.92706,0.844544 z m 2.602258,-0.24082 c -0.259625,-0.676579 0.124772,-1.210029 0.871934,-1.210029 0.890494,0 1.479485,0.79312 0.968477,1.304129 -0.556229,0.556227 -1.611562,0.502268 -1.840411,-0.0941 z m -39.86264,-0.18686 c 0.115931,-0.187581 0.278464,-0.341056 0.361184,-0.341056 0.08272,0 0.1504,0.153475 0.1504,0.341056 0,0.187581 -0.162533,0.341056 -0.361184,0.341056 -0.198651,0 -0.266331,-0.153475 -0.1504,-0.341056 z m 6.309538,-0.341056 c 0,-0.187581 0.153476,-0.341057 0.341057,-0.341057 0.18758,0 0.341056,0.153476 0.341056,0.341057 0,0.18758 -0.153476,0.341056 -0.341056,0.341056 -0.187581,0 -0.341057,-0.153476 -0.341057,-0.341056 z m 30.01294,-2.898978 c -0.339334,-0.408873 -0.336592,-0.617599 0.01368,-1.039626 0.576968,-0.695206 1.822536,-0.495758 1.977488,0.316646 0.211932,1.111255 -1.233385,1.636047 -1.991164,0.72298 z m 3.666353,0.14321 c -0.872848,-0.508386 -0.728704,-1.290817 0.284659,-1.545154 0.604734,-0.151779 1.059836,-0.04019 1.449489,0.355403 0.530219,0.538308 0.523964,0.609274 -0.09405,1.067386 -0.775044,0.574509 -0.853732,0.58038 -1.640095,0.122365 z m 3.382141,0.141004 c -0.361171,-0.36117 -0.264775,-1.427274 0.195725,-2.16465 0.336756,-0.539234 0.336756,-0.815735 0,-1.354969 -0.565399,-0.905349 -0.533203,-1.535008 0.105605,-2.065171 0.43663,-0.36237 0.626953,-0.34053 1.092894,0.125412 0.487908,0.487908 0.505793,0.725706 0.132268,1.75867 -0.36421,1.007204 -0.35095,1.31009 0.08458,1.931894 0.37198,0.531077 0.422255,0.913531 0.179672,1.366802 -0.331517,0.619441 -1.345651,0.847108 -1.790746,0.402012 z m 2.925003,-0.16724 c -0.658252,-0.658251 -0.503791,-1.288904 0.418616,-1.709181 1.043188,-0.475309 1.970462,0.147929 1.817103,1.221307 -0.118981,0.832742 -1.573459,1.150136 -2.235719,0.487874 z M 49.404244,32.055023 c -0.285478,-0.461912 0.09974,-1.023168 0.702241,-1.023168 0.270301,0 0.491455,0.30695 0.491455,0.682112 0,0.706091 -0.822801,0.941177 -1.193696,0.341056 z m 13.012993,-3.352152 c -0.770132,-0.850987 -0.710625,-1.229137 0.276569,-1.757467 0.682013,-0.365003 0.939934,-0.368003 1.364225,-0.01587 0.626404,0.519867 0.6782,1.423516 0.113943,1.987774 -0.574325,0.574326 -1.098937,0.510216 -1.754737,-0.214436 z m -13.297206,0.05528 c -0.474572,-0.474572 -0.199286,-1.440857 0.471108,-1.653632 1.034242,-0.328257 1.770763,0.394971 1.250544,1.227976 -0.403927,0.646791 -1.283142,0.864166 -1.721652,0.425656 z m 3.213431,-0.398231 c -0.268237,-0.501206 -0.235656,-0.767673 0.131068,-1.072029 0.783577,-0.65031 1.714499,-0.281561 1.714499,0.679134 0,1.096183 -1.318908,1.37696 -1.845567,0.392895 z m 3.19633,0.05184 c -0.537651,-0.537653 -0.535082,-0.602055 0.04082,-1.023169 0.745528,-0.545144 1.011064,-0.556497 1.899164,-0.0812 0.655745,0.350946 0.66021,0.398892 0.09525,1.023169 -0.729519,0.806106 -1.288046,0.82839 -2.035236,0.0812 z M 46.0208,28.080565 c -0.109923,-0.286454 -0.117709,-0.653749 -0.01729,-0.81621 0.256699,-0.415362 1.183871,-0.0023 1.183871,0.527467 0,0.656385 -0.936547,0.888193 -1.166579,0.288743 z m 13.512811,-2.573819 c -0.590832,-0.590833 -0.507338,-2.208571 0.126542,-2.451813 0.466742,-0.179106 0.442592,-0.336522 -0.187342,-1.221187 -0.577292,-0.810733 -0.648553,-1.154975 -0.353283,-1.706688 0.386781,-0.722707 1.848473,-0.953919 2.220906,-0.351306 0.132531,0.214439 0.572388,0.152415 1.192223,-0.168114 1.888063,-0.976357 3.02378,0.508319 1.728752,2.259934 -0.627417,0.848628 -0.656727,1.018229 -0.205872,1.191239 0.799262,0.306705 0.670275,2.07372 -0.18478,2.53133 -0.558978,0.299156 -0.837433,0.265351 -1.305816,-0.158529 -0.74431,-0.673594 -1.193011,-0.680622 -1.735317,-0.02718 -0.513385,0.618591 -0.760248,0.63808 -1.296013,0.102317 z m 0.954957,-1.145614 c 0,-0.292441 -0.155979,-0.435312 -0.346619,-0.317489 -0.19064,0.117822 -0.258323,0.357092 -0.150399,0.531712 0.292364,0.47306 0.497018,0.384851 0.497018,-0.214223 z m 3.069505,-0.320928 c 0,-0.281371 -0.153475,-0.511584 -0.341056,-0.511584 -0.187581,0 -0.341056,0.230213 -0.341056,0.511584 0,0.281372 0.153475,0.511585 0.341056,0.511585 0.187581,0 0.341056,-0.230213 0.341056,-0.511585 z m -1.25242,-0.938054 c 0.534719,-0.390995 0.538532,-0.49029 0.04585,-1.193697 -0.683078,-0.975227 -0.980663,-0.966227 -1.440758,0.04358 -0.268189,0.58861 -0.264499,0.915731 0.01347,1.193696 0.486145,0.486146 0.664708,0.480513 1.381444,-0.04358 z m 1.593476,-2.301979 c 0,-0.187581 -0.153475,-0.341056 -0.341056,-0.341056 -0.187581,0 -0.341056,0.153475 -0.341056,0.341056 0,0.187581 0.153475,0.341056 0.341056,0.341056 0.187581,0 0.341056,-0.153475 0.341056,-0.341056 z M 45.73789,25.316476 c -0.405955,-0.09018 -0.596848,-0.459082 -0.596848,-1.153405 0,-0.905916 0.102559,-1.008668 0.911179,-0.912897 0.691652,0.08192 0.939716,0.324498 1.029618,1.006858 0.124011,0.941221 -0.315723,1.287865 -1.343949,1.059444 z m 10.231684,0.02338 c -0.823204,-0.215126 -0.755091,-1.548334 0.106597,-2.086467 0.879905,-0.549511 2.025004,-0.217909 2.025004,0.586408 0,0.542475 -1.028042,1.795562 -1.391079,1.695594 -0.07902,-0.02176 -0.412255,-0.109751 -0.740522,-0.195536 z m -6.849543,-0.333328 c -0.415866,-0.415867 -0.234738,-1.496491 0.284213,-1.695632 0.906343,-0.347795 1.461855,0.104253 1.282309,1.043481 -0.15958,0.834778 -1.024024,1.19465 -1.566522,0.652151 z m 2.724466,-0.396333 c -0.796469,-0.880088 -0.72324,-1.020878 0.666601,-1.281614 1.300164,-0.243913 1.822918,0.129202 1.833238,1.308469 0.0072,0.818327 -1.752063,0.799428 -2.499839,-0.02686 z m -8.848613,-0.399466 c 0.09811,-0.375161 0.313953,-0.682112 0.479655,-0.682112 0.165702,0 0.301279,0.306951 0.301279,0.682112 0,0.375162 -0.215845,0.682113 -0.479655,0.682113 -0.311742,0 -0.417211,-0.238786 -0.301279,-0.682113 z m 2.744312,-2.377541 c -0.6592,-0.769891 -1.620464,-0.898455 -2.221769,-0.297151 -0.469921,0.469921 -1.44689,-0.177521 -1.44689,-0.958862 0,-0.670821 0.933157,-0.9584 1.522577,-0.469225 0.381307,0.316457 0.760504,0.309706 1.700714,-0.03028 1.654521,-0.598283 2.229272,-0.06824 1.529111,1.410161 -0.487789,1.029971 -0.495462,1.032417 -1.083743,0.345355 z m 3.441372,-0.15863 c -0.653211,-1.433641 -0.211615,-1.835454 1.990134,-1.810844 1.091288,0.0122 2.214372,-0.04069 2.495743,-0.117532 0.365053,-0.09969 0.542245,0.178445 0.618632,0.971067 0.13646,1.415982 -0.556362,1.720462 -2.002399,0.880009 -1.067782,-0.620608 -1.082928,-0.61927 -1.594011,0.140814 -0.662208,0.984847 -1.037636,0.969035 -1.508099,-0.06351 z m 6.758454,-0.04459 c -0.765586,-1.058351 -0.5473,-1.759394 0.640663,-2.057553 0.613257,-0.153918 1.072704,-0.04831 1.45559,0.334571 0.518603,0.518604 0.518201,0.627738 -0.0055,1.493707 -0.740937,1.225115 -1.324099,1.289066 -2.090722,0.229275 z M 39.343088,20.820299 c 0,-0.364091 0.136085,-0.746089 0.302411,-0.848885 0.415362,-0.256706 1.172674,0.714516 0.900518,1.154873 -0.373317,0.60404 -1.202929,0.393012 -1.202929,-0.305988 z"
         id="path212" />
      <path
         style="fill:#b9b9b9;fill-opacity:1;stroke-width:0.341056"
         d="m 29.45246,91.611077 c 0,-0.07082 0.268582,-0.339402 0.596848,-0.596848 0.540934,-0.42423 0.552998,-0.412167 0.128768,0.128769 -0.445545,0.568114 -0.725616,0.748782 -0.725616,0.468079 z M 17.515496,89.585203 C 15.993462,88.840327 13.770869,86.958232 13.756294,86.401905 13.752123,86.24269 13.448586,85.728732 13.081766,85.259779 12.64381,84.699885 12.431902,83.938746 12.46457,83.042915 l 0.04975,-1.364225 0.137291,1.337796 c 0.239809,2.336763 2.4977,5.051048 5.397768,6.488835 0.92564,0.458908 1.529507,0.833616 1.341926,0.832682 -0.187581,-0.001 -1.031694,-0.339695 -1.875808,-0.7528 z m 4.011385,0.549203 c 0.424245,-0.08158 1.038146,-0.07848 1.364225,0.0069 0.32608,0.08536 -0.02103,0.152111 -0.771353,0.148326 -0.750323,-0.0038 -1.017115,-0.07363 -0.592872,-0.155208 z m -1.623993,-1.444727 c 0,-1.003139 -0.192613,-1.479795 -0.757999,-1.875809 -0.4169,-0.292006 -0.581337,-0.530922 -0.365417,-0.530922 0.588788,0 1.436482,0.963425 1.671462,1.899659 0.114407,0.455835 0.40855,0.82879 0.653651,0.82879 0.903072,0 4.92043,-3.829153 4.964239,-4.731676 0.0167,-0.344007 0.09151,-0.395042 0.196953,-0.134363 0.298099,0.736941 -1.655281,3.010308 -3.843557,4.473183 -1.165009,0.778812 -2.208453,1.416024 -2.318765,1.416024 -0.110311,0 -0.200567,-0.605197 -0.200567,-1.344886 z m 4.945314,0.636001 c 1.982191,-1.061547 3.565492,-2.66286 4.301038,-4.34997 0.906308,-2.078778 0.885992,-5.965893 -0.03911,-7.483201 -0.37446,-0.61417 -0.676047,-1.228071 -0.670193,-1.364224 0.0059,-0.136153 0.388756,0.366352 0.850893,1.116675 1.627254,2.642002 0.94902,7.878537 -1.313461,10.141018 -1.222852,1.222853 -2.651139,2.181716 -3.64075,2.444172 -0.510426,0.135372 -0.305098,-0.0671 0.511583,-0.50447 z m -7.865746,-4.117519 -1.001713,-1.074784 1.108432,0.797866 c 0.609638,0.438827 1.108433,0.922482 1.108433,1.074788 0,0.442015 -0.1535,0.34123 -1.215152,-0.79787 z m 16.562678,-0.724052 c 0,-0.489143 0.159627,-0.988009 0.354726,-1.108586 0.232665,-0.143796 0.274834,0.113333 0.122549,0.747247 -0.313913,1.306726 -0.477275,1.430406 -0.477275,0.361339 z m -6.991651,-3.144432 c 0,-1.183226 0.115106,-2.080732 0.255792,-1.994459 0.328654,0.201544 0.324435,3.2321 -0.0052,3.751212 -0.137815,0.217014 -0.250571,-0.573524 -0.250571,-1.756753 z M 15.571361,81.167106 c 0,-1.031695 0.06394,-1.453752 0.142081,-0.937904 0.07814,0.515847 0.07814,1.359961 0,1.875808 -0.07815,0.515848 -0.142081,0.09379 -0.142081,-0.937904 z m 18.40772,-1.023168 c 0,-0.844114 0.06651,-1.189434 0.147803,-0.767377 0.08129,0.422057 0.08129,1.112696 0,1.534753 -0.08129,0.422057 -0.147803,0.07674 -0.147803,-0.767376 z M 12.438875,79.540312 c -0.07995,-2.27321 3.886659,-6.86873 5.929261,-6.869358 0.99657,-3.03e-4 0.98908,0.01184 -0.288128,0.46723 -2.55925,0.912499 -4.803293,3.559467 -5.361048,6.323641 l -0.240864,1.193697 z m 3.655374,-0.931127 c 0.563914,-1.133405 2.210975,-2.495862 3.297055,-2.727344 0.859443,-0.183175 0.800528,-0.112037 -0.368179,0.444556 -0.765241,0.364443 -1.813652,1.180638 -2.329801,1.813761 -0.51615,0.633126 -0.785733,0.844189 -0.599075,0.469027 z m 8.843456,-1.254684 c -0.701098,-0.690076 -1.621949,-1.321446 -2.046337,-1.403044 -0.731176,-0.140583 -0.733697,-0.150791 -0.0481,-0.194804 0.673525,-0.04324 3.922487,2.465536 3.539688,2.733265 -0.09379,0.0656 -0.744153,-0.445341 -1.445251,-1.135417 z m 8.137978,-0.804838 c -0.329112,-0.857651 -0.232024,-1.078948 0.170028,-0.387556 0.199071,0.342335 0.290102,0.694275 0.202291,0.782086 -0.08781,0.08781 -0.255355,-0.08973 -0.372319,-0.39453 z M 21.203165,75.477229 c 0.2462,-0.09852 0.540361,-0.08641 0.653691,0.02691 0.11333,0.11333 -0.08811,0.193938 -0.447636,0.17913 -0.397311,-0.01637 -0.478127,-0.09718 -0.206055,-0.206053 z m 6.341082,-0.534397 -0.649708,-0.767377 0.767376,0.649709 c 0.721145,0.610565 0.922639,0.885044 0.649708,0.885044 -0.06472,0 -0.410037,-0.34532 -0.767376,-0.767376 z m -2.101838,-1.319871 c -0.698626,-0.4474 -2.027983,-0.807893 -3.58109,-0.971116 -1.913163,-0.201059 -2.124013,-0.269175 -0.935262,-0.302135 2.382165,-0.06605 3.916463,0.293581 4.986761,1.168881 1.219277,0.997136 0.999731,1.045846 -0.470409,0.10437 z m 4.882436,-1.256904 c -1.663846,-1.917223 -1.66679,-1.924662 -0.228794,-0.577995 1.211761,1.1348 2.381038,2.610683 2.011594,2.539068 -0.05349,-0.01037 -0.855755,-0.892855 -1.7828,-1.961073 z M 12.310307,71.558013 c 0.489628,-0.585624 2.646669,-1.855577 2.357772,-1.388129 -0.12095,0.195701 -0.785969,0.689803 -1.47782,1.098006 -0.691851,0.4082 -1.087829,0.538756 -0.879952,0.290123 z m 14.833984,-1.457868 c -1.068838,-0.590573 -1.3902,-0.956461 -0.580412,-0.66083 0.840772,0.306943 2.132787,1.166705 1.685508,1.12161 -0.182424,-0.01838 -0.679717,-0.225741 -1.105096,-0.46078 z M 15.128103,69.781503 c 0,-0.07191 0.30695,-0.211018 0.682112,-0.309127 0.375162,-0.09811 0.682112,-0.03927 0.682112,0.130751 0,0.17002 -0.30695,0.309127 -0.682112,0.309127 -0.375162,0 -0.682112,-0.05884 -0.682112,-0.130751 z m 1.70528,-0.682112 c 0,-0.07191 0.307163,-0.211073 0.682583,-0.30925 0.375421,-0.09817 0.596576,-0.03934 0.491456,0.130751 -0.183573,0.297029 -1.174039,0.447616 -1.174039,0.178499 z m 7.503235,-0.210306 c -0.623439,-0.402896 -0.08495,-0.402896 0.85264,0 0.449765,0.19327 0.507852,0.299499 0.170529,0.311862 -0.281372,0.0103 -0.741798,-0.130024 -1.023169,-0.311862 z m -3.836881,-0.581749 c 0.422057,-0.0813 1.112695,-0.0813 1.534752,0 0.422057,0.08129 0.07674,0.147803 -0.767376,0.147803 -0.844114,0 -1.189433,-0.06651 -0.767376,-0.147803 z M 83.339328,46.379381 c 0,-0.187581 0.153476,-0.341056 0.341057,-0.341056 0.18758,0 0.341056,0.153475 0.341056,0.341056 0,0.187581 -0.153476,0.341056 -0.341056,0.341056 -0.187581,0 -0.341057,-0.153475 -0.341057,-0.341056 z M 77.02979,42.627763 c -0.115932,-0.187581 -0.04825,-0.341056 0.150399,-0.341056 0.198652,0 0.361185,0.153475 0.361185,0.341056 0,0.187581 -0.06768,0.341056 -0.150399,0.341056 -0.08272,0 -0.245253,-0.153475 -0.361185,-0.341056 z m 2.898977,0 c 0,-0.187581 0.239271,-0.341056 0.531713,-0.341056 0.292442,0 0.436859,0.153475 0.320927,0.341056 -0.115931,0.187581 -0.355203,0.341056 -0.531713,0.341056 -0.17651,0 -0.320927,-0.153475 -0.320927,-0.341056 z m 3.410561,0 c 0,-0.187581 0.153476,-0.341056 0.341057,-0.341056 0.18758,0 0.341056,0.153475 0.341056,0.341056 0,0.187581 -0.153476,0.341056 -0.341056,0.341056 -0.187581,0 -0.341057,-0.153475 -0.341057,-0.341056 z m 0.02527,-3.053878 c -0.538344,-0.332723 -0.194126,-1.038795 0.506441,-1.038795 0.518409,0 0.683159,0.864432 0.219377,1.151064 -0.149641,0.09248 -0.476254,0.04196 -0.725805,-0.112269 z m -6.505339,-0.356683 c 0,-0.187581 0.162534,-0.341056 0.361185,-0.341056 0.198652,0 0.266331,0.153475 0.150399,0.341056 -0.115932,0.187581 -0.278465,0.341056 -0.361185,0.341056 -0.08272,0 -0.150399,-0.153475 -0.150399,-0.341056 z m 3.069505,-0.170528 c 0,-0.281371 0.230213,-0.511584 0.511584,-0.511584 0.281372,0 0.511585,0.230213 0.511585,0.511584 0,0.281371 -0.230213,0.511584 -0.511585,0.511584 -0.281371,0 -0.511584,-0.230213 -0.511584,-0.511584 z m -3.069505,-3.581089 c 0,-0.375162 0.153475,-0.682113 0.341056,-0.682113 0.187581,0 0.341056,0.306951 0.341056,0.682113 0,0.375161 -0.153475,0.682112 -0.341056,0.682112 -0.187581,0 -0.341056,-0.306951 -0.341056,-0.682112 z m 6.025326,0.454741 c -0.51775,-0.517748 -0.17724,-1.136854 0.625269,-1.136854 0.625268,0 0.85264,0.181897 0.85264,0.682113 0,0.665444 -0.96904,0.96361 -1.477909,0.454741 z M 70.038139,35.465585 c 0,-0.187581 0.153476,-0.341056 0.341057,-0.341056 0.18758,0 0.341056,0.153475 0.341056,0.341056 0,0.187581 -0.153476,0.341056 -0.341056,0.341056 -0.187581,0 -0.341057,-0.153475 -0.341057,-0.341056 z m 3.069506,-0.170528 c 0,-0.281372 0.153475,-0.511585 0.341056,-0.511585 0.187581,0 0.341056,0.230213 0.341056,0.511585 0,0.281371 -0.153475,0.511584 -0.341056,0.511584 -0.187581,0 -0.341056,-0.230213 -0.341056,-0.511584 z m 6.710395,0.287172 c -0.123425,-0.123427 -0.0519,-0.43227 0.158935,-0.686318 0.289598,-0.348941 0.497397,-0.367255 0.849684,-0.07488 0.256484,0.212862 0.466333,0.521705 0.466333,0.686318 0,0.347787 -1.143967,0.405867 -1.474952,0.07488 z m 3.022293,-3.392811 c -0.652649,-0.652649 -0.154864,-1.498619 0.88181,-1.498619 0.484133,0 0.640354,0.249613 0.640354,1.023168 0,1.152175 -0.644218,1.353398 -1.522164,0.475451 z M 70.038139,31.713967 c 0,-0.375162 0.153476,-0.682112 0.341057,-0.682112 0.18758,0 0.341056,0.30695 0.341056,0.682112 0,0.375162 -0.153476,0.682112 -0.341056,0.682112 -0.187581,0 -0.341057,-0.30695 -0.341057,-0.682112 z m 6.821123,0 c 0,-0.375162 0.153475,-0.682112 0.341056,-0.682112 0.187581,0 0.341056,0.30695 0.341056,0.682112 0,0.375162 -0.153475,0.682112 -0.341056,0.682112 -0.187581,0 -0.341056,-0.30695 -0.341056,-0.682112 z m 2.917998,0.371834 c -0.328997,-0.532328 0.21009,-1.433677 0.79127,-1.322997 0.304663,0.05802 0.602977,0.449243 0.662918,0.869383 0.08189,0.573994 -0.06148,0.763892 -0.576719,0.763892 -0.37714,0 -0.771998,-0.139625 -0.877469,-0.310278 z m -13.149682,-0.56249 c 0,-0.292442 0.153475,-0.436859 0.341056,-0.320928 0.187581,0.115931 0.341056,0.355202 0.341056,0.531712 0,0.176511 -0.153475,0.320928 -0.341056,0.320928 -0.187581,0 -0.341056,-0.23927 -0.341056,-0.531712 z m 6.650595,0.190656 c -0.115932,-0.187581 -0.04825,-0.341056 0.150399,-0.341056 0.198651,0 0.361185,0.153475 0.361185,0.341056 0,0.187581 -0.06768,0.341056 -0.150399,0.341056 -0.08272,0 -0.245254,-0.153475 -0.361185,-0.341056 z m 6.432874,-3.240033 c -0.306098,-0.797674 0.126055,-1.534753 0.899832,-1.534753 0.867722,0 1.245207,0.856268 0.678508,1.539096 -0.54157,0.652554 -1.327094,0.650392 -1.57834,-0.0043 z m 3.01438,0.102317 c -0.661587,-0.661587 -0.472963,-1.267032 0.468346,-1.503284 1.077256,-0.270374 1.653552,0.240171 1.350149,1.196107 -0.2504,0.788937 -1.179751,0.945921 -1.818495,0.307177 z M 70.184882,28.193875 c -0.27307,-0.711609 0.06811,-1.176263 0.526854,-0.717521 0.193726,0.193726 0.19875,0.519247 0.01265,0.820345 -0.261669,0.423388 -0.34358,0.407777 -0.539514,-0.102824 z m 6.555235,-0.05007 c -0.2157,-0.562109 0.286887,-1.010932 0.786363,-0.70224 0.361963,0.223706 0.09646,1.202902 -0.326162,1.202902 -0.147442,0 -0.354531,-0.225298 -0.460201,-0.500662 z M 66.627578,27.791822 c 0,-0.281372 0.153475,-0.511584 0.341056,-0.511584 0.187581,0 0.341056,0.230212 0.341056,0.511584 0,0.281371 -0.153475,0.511584 -0.341056,0.511584 -0.187581,0 -0.341056,-0.230213 -0.341056,-0.511584 z m 6.480067,0 c 0,-0.281372 0.153475,-0.511584 0.341056,-0.511584 0.187581,0 0.341056,0.230212 0.341056,0.511584 0,0.281371 -0.153475,0.511584 -0.341056,0.511584 -0.187581,0 -0.341056,-0.230213 -0.341056,-0.511584 z m 6.906386,-2.44274 c -0.234476,-0.09461 -0.42632,-0.606871 -0.42632,-1.13835 0,-1.014571 0.452022,-1.357109 1.449489,-1.098409 0.685454,0.177778 0.800779,1.440168 0.18758,2.053367 -0.4362,0.436202 -0.54382,0.452503 -1.210749,0.183392 z m 2.898977,-0.01135 c -0.397426,-0.102444 -0.596848,-0.487361 -0.596848,-1.15201 0,-0.883993 0.118251,-0.998161 1.033871,-0.998161 1.142596,0 1.67538,0.777731 1.12764,1.646075 -0.38469,0.609862 -0.726787,0.720078 -1.564663,0.504097 z m -9.587265,-0.340477 c -0.327172,-0.327173 -0.262524,-1.468638 0.08318,-1.468638 0.393808,0 0.735693,1.315438 0.396386,1.525141 -0.143806,0.08888 -0.359613,0.06345 -0.479566,-0.0565 z m 3.456928,0.04637 c -0.274356,-0.274355 0.100233,-1.515004 0.457425,-1.515004 0.165702,0 0.301278,0.383688 0.301278,0.85264 0,0.802346 -0.330333,1.090734 -0.758703,0.662364 z M 59.99155,24.575355 c -0.107924,-0.17462 -0.04024,-0.41389 0.150399,-0.531712 0.19064,-0.117823 0.346619,0.02505 0.346619,0.317489 0,0.599074 -0.204654,0.687283 -0.497018,0.214223 z m 6.636028,-0.364623 c 0,-0.375161 0.120587,-0.682112 0.267971,-0.682112 0.147388,0 0.267975,0.306951 0.267975,0.682112 0,0.375162 -0.120587,0.682113 -0.267975,0.682113 -0.147384,0 -0.267971,-0.306951 -0.267971,-0.682113 z m 3.410561,-0.198949 c 0,-0.484584 0.164986,-0.826067 0.366636,-0.75885 0.201649,0.06722 0.355124,0.233481 0.341056,0.369478 -0.01405,0.135996 -0.02558,0.477478 -0.02558,0.758849 0,0.281372 -0.153476,0.511585 -0.341056,0.511585 -0.187581,0 -0.341057,-0.396478 -0.341057,-0.881062 z m -7.162178,0.02842 c 0,-0.281371 0.153475,-0.511584 0.341056,-0.511584 0.187581,0 0.341056,0.230213 0.341056,0.511584 0,0.281372 -0.153475,0.511585 -0.341056,0.511585 -0.187581,0 -0.341056,-0.230213 -0.341056,-0.511585 z m 16.952945,-2.647702 c -0.593052,-0.739916 -0.588765,-0.781284 0.142555,-1.375502 0.6723,-0.546262 0.809773,-0.556865 1.268776,-0.09786 0.415478,0.415476 0.438731,0.681688 0.12055,1.380019 -0.482448,1.058857 -0.745174,1.074866 -1.531881,0.09334 z m 3.25463,0.40255 c -0.969213,-0.367272 -1.002664,-1.527071 -0.05861,-2.032312 0.968255,-0.518193 1.678631,-0.173532 1.678631,0.814438 0,1.091353 -0.654818,1.583624 -1.620017,1.217874 z M 76.670368,21.11151 c -0.351465,-0.568683 0.439011,-1.220814 0.909501,-0.750323 0.393552,0.393553 0.147241,1.121096 -0.379551,1.121096 -0.165439,0 -0.403916,-0.166848 -0.52995,-0.370773 z M 63.217017,20.800171 c 0,-0.187581 0.153475,-0.341056 0.341056,-0.341056 0.187581,0 0.341056,0.153475 0.341056,0.341056 0,0.187581 -0.153475,0.341056 -0.341056,0.341056 -0.187581,0 -0.341056,-0.153475 -0.341056,-0.341056 z m 3.282665,0.06898 c -0.269656,-0.436311 0.355875,-1.20229 0.771878,-0.945187 0.547535,0.338395 0.466476,1.217263 -0.112269,1.217263 -0.2703,0 -0.567125,-0.122434 -0.659609,-0.272076 z m 3.262772,-0.09456 c 0.06721,-0.20165 0.268012,-0.366635 0.446213,-0.366635 0.178202,0 0.378999,0.164985 0.446214,0.366635 0.06722,0.201649 -0.133578,0.366635 -0.446214,0.366635 -0.312635,0 -0.513432,-0.164986 -0.446213,-0.366635 z m 3.174663,0.02558 c -0.115932,-0.187581 0.114281,-0.341056 0.511584,-0.341056 0.397303,0 0.627516,0.153475 0.511584,0.341056 -0.115932,0.187581 -0.346145,0.341056 -0.511584,0.341056 -0.16544,0 -0.395653,-0.153475 -0.511584,-0.341056 z"
         id="path210" />
      <path
         style="fill:#a3a3a3;fill-opacity:1;stroke-width:0.341056"
         d="M 17.030745,93.771077 C 11.40501,91.780299 8.2175965,87.235521 8.1911332,81.167106 8.1779139,78.135557 8.7224407,76.34476 10.45529,73.72093 c 0.8605,-1.302944 4.399378,-3.808676 5.379042,-3.808676 0.361897,0 0.657995,-0.153476 0.657995,-0.341056 0,-0.187581 0.297893,-0.341057 0.661984,-0.341057 0.364092,0 0.756837,-0.153475 0.872769,-0.341056 0.289634,-0.468638 5.374473,-0.431187 6.549283,0.04824 4.467695,1.823211 6.746452,3.742951 8.256698,6.95586 0.880877,1.873988 1.596292,6.836314 1.075972,7.463263 -0.191206,0.230387 -0.327057,0.966612 -0.30189,1.63605 0.09526,2.533931 -3.199516,6.47699 -6.867651,8.218938 -2.952462,1.402085 -6.715176,1.61898 -9.708747,0.559641 z m 8.013166,-4.183108 c 3.314631,-1.624225 5.090661,-4.587225 5.090661,-8.492887 0,-2.052541 -0.151287,-2.667288 -1.03767,-4.216525 -0.633184,-1.10669 -1.726848,-2.319373 -2.805693,-3.111019 l -1.768023,-1.297363 -3.463314,0.0206 -3.463315,0.0206 -1.660547,1.459714 c -0.913301,0.802839 -2.082605,2.136024 -2.598452,2.962631 -0.839514,1.345259 -0.937109,1.816087 -0.930321,4.488169 0.0062,2.436973 0.130076,3.141844 0.674529,3.837888 0.36682,0.468952 0.670357,0.98291 0.674528,1.142125 0.01465,0.559135 2.240006,2.439578 3.71506,3.139252 1.91023,0.906094 5.770288,0.929957 7.572557,0.04681 z m -4.747002,-1.75222 c -0.233816,-0.646608 -0.729278,-1.272187 -1.101027,-1.390175 -0.371749,-0.117989 -1.239369,-0.730723 -1.928045,-1.361633 -1.153882,-1.057093 -1.263323,-1.322762 -1.394669,-3.385517 -0.129389,-2.032013 -0.05579,-2.352128 0.798169,-3.47173 1.260358,-1.652417 3.559352,-2.660323 5.397601,-2.366374 2.625979,0.419912 4.655073,2.671281 4.655073,5.165016 0,2.781094 -1.09682,4.650252 -4.235913,7.218685 -1.277831,1.045531 -1.693492,0.968081 -2.191189,-0.408272 z"
         id="path208" />
    </g>
  </g>
</svg>
