<?xml version="1.0" encoding="UTF-8" standalone="no"?>
<!-- Created with Inkscape (http://www.inkscape.org/) -->

<svg
   width="100mm"
   height="100mm"
   viewBox="0 0 100 100"
   version="1.1"
   id="svg2796"
   inkscape:version="1.1.1 (3bf5ae0d25, 2021-09-20)"
   sodipodi:docname="add_list_type_device_6117.svg"
   xmlns:inkscape="http://www.inkscape.org/namespaces/inkscape"
   xmlns:sodipodi="http://sodipodi.sourceforge.net/DTD/sodipodi-0.dtd"
   xmlns="http://www.w3.org/2000/svg"
   xmlns:svg="http://www.w3.org/2000/svg">
  <sodipodi:namedview
     id="namedview2798"
     pagecolor="#505050"
     bordercolor="#ffffff"
     borderopacity="1"
     inkscape:pageshadow="0"
     inkscape:pageopacity="0"
     inkscape:pagecheckerboard="1"
     inkscape:document-units="mm"
     showgrid="false"
     inkscape:zoom="0.90028971"
     inkscape:cx="253.36396"
     inkscape:cy="163.32685"
     inkscape:window-width="1440"
     inkscape:window-height="890"
     inkscape:window-x="-6"
     inkscape:window-y="-6"
     inkscape:window-maximized="1"
     inkscape:current-layer="layer1"
     inkscape:rotation="1" />
  <defs
     id="defs2793" />
  <g
     inkscape:label="Laag 1"
     inkscape:groupmode="layer"
     id="layer1">
    <g
       id="g3033"
       transform="translate(0.29384176,-0.00512907)">
      <path
         style="fill:#d0d0d0;fill-opacity:1;stroke-width:0.607521"
         d="m 13.795107,89.352094 c -0.755678,-0.963564 -0.73419,-0.985052 0.229372,-0.229375 0.584739,0.458587 1.063161,0.93701 1.063161,1.063161 0,0.500014 -0.498887,0.178192 -1.292533,-0.833786 z m 14.20494,-16.010103 c -1.528435,-0.756563 -2.411345,-1.548643 -2.166975,-1.944042 0.290506,-0.470045 0.48464,-0.450543 0.656818,0.06599 0.134432,0.403297 0.494456,0.578737 0.800053,0.389865 0.305598,-0.188867 0.555633,-0.03775 0.555633,0.335831 0,0.373577 0.273384,0.510269 0.60752,0.30376 0.334137,-0.206508 0.607521,-0.05668 0.607521,0.332903 0,0.389603 0.387452,0.559697 0.861003,0.377976 0.473552,-0.181716 1.011741,0.06242 1.195975,0.542522 0.449187,1.170564 -0.07153,1.102947 -3.117548,-0.404804 z M 23.964172,65.957389 C 19.02023,61.013447 17.572194,55.055004 19.630358,48.124414 c 0.962848,-3.242258 4.033501,-7.270525 7.182607,-9.422574 1.186645,-0.810935 0.712484,-0.163684 -1.217195,1.661524 -5.341895,5.05269 -7.274469,11.607083 -5.36205,18.185575 0.837066,2.879406 1.698475,4.192101 4.639135,7.069532 1.986159,1.943459 3.31302,3.533559 2.948578,3.533559 -0.364441,0 -2.100209,-1.437588 -3.857261,-3.194641 z m 0.891762,-9.917681 c 0.02915,-0.707727 0.173107,-0.851683 0.367044,-0.367044 0.175495,0.438554 0.153912,0.962541 -0.04796,1.164415 -0.201874,0.201874 -0.345461,-0.156943 -0.319082,-0.797371 z m 0,-5.467686 c 0.02915,-0.707727 0.173107,-0.851684 0.367044,-0.367044 0.175495,0.438554 0.153912,0.96254 -0.04796,1.164414 -0.201874,0.201874 -0.345461,-0.156943 -0.319082,-0.79737 z m 36.251401,-0.07436 c 0.751807,-0.144804 1.982037,-0.144804 2.733844,0 0.751807,0.144804 0.136692,0.263281 -1.366922,0.263281 -1.503614,0 -2.118728,-0.118477 -1.366922,-0.263281 z m -8.35341,-9.520957 c 0,-0.126155 0.478423,-0.604578 1.063162,-1.063161 0.963562,-0.755677 0.98505,-0.734189 0.229372,0.229372 -0.793646,1.011977 -1.292534,1.3338 -1.292534,0.833789 z"
         id="path3049" />
      <path
         style="fill:#b9b9b9;fill-opacity:1;stroke-width:0.607521"
         d="m 16.302682,94.434996 c 0,-0.128096 0.547146,-0.375983 1.21588,-0.550864 0.668734,-0.174875 1.062675,-0.07007 0.875427,0.232906 -0.326999,0.529095 -2.091307,0.797334 -2.091307,0.317958 z m 16.89667,-7.472347 c 0.438554,-0.175495 0.962541,-0.153916 1.164415,0.04793 0.201874,0.201873 -0.156943,0.345461 -0.797371,0.319082 -0.707727,-0.02916 -0.851683,-0.173107 -0.367044,-0.36704 z m 5.467687,0 c 0.438554,-0.175495 0.96254,-0.153916 1.164415,0.04793 0.201873,0.201873 -0.156944,0.345461 -0.797371,0.319082 -0.707727,-0.02916 -0.851684,-0.173107 -0.367044,-0.36704 z m -26.521078,-2.01508 c 0,-0.835341 0.137891,-1.177071 0.306425,-0.759401 0.168534,0.417671 0.168534,1.101132 0,1.518802 -0.168534,0.417671 -0.306425,0.07594 -0.306425,-0.759401 z m 12.757935,0 c 0,-0.835341 0.137891,-1.177071 0.306425,-0.759401 0.168534,0.417671 0.168534,1.101132 0,1.518802 -0.168534,0.417671 -0.306425,0.07594 -0.306425,-0.759401 z m -6.930532,-6.477556 c 0.41767,-0.168532 1.101131,-0.168532 1.518802,0 0.41767,0.168532 0.07594,0.306427 -0.759401,0.306427 -0.835341,0 -1.177072,-0.137895 -0.759401,-0.306427 z m 71.231805,-6.722265 c 2.128771,-0.387428 3.630581,-1.899384 3.727857,-3.753039 0.07935,-1.511997 0.09383,-1.518139 0.353808,-0.150148 0.364239,1.916618 -1.960622,4.372053 -4.035682,4.262341 L 87.686367,72.02417 Z M 75.287118,59.051072 c -0.432105,-1.194958 -1.872154,-3.259163 -3.200115,-4.587123 -1.327955,-1.327959 -1.838425,-2.106182 -1.134375,-1.729386 2.144415,1.147658 6.209992,7.3993 5.362841,8.246451 -0.133491,0.13349 -0.596252,-0.734984 -1.028351,-1.929942 z M 92.933026,58.158935 C 92.83575,56.305282 91.33394,54.793327 89.205169,54.405897 l -1.518802,-0.276418 1.564785,-0.08273 c 2.07506,-0.109712 4.399921,2.345719 4.035682,4.262338 -0.259977,1.367996 -0.27446,1.36185 -0.353808,-0.150148 z M 6.6303121,56.039708 c 0.029149,-0.707727 0.1731075,-0.851683 0.3670439,-0.367044 0.1754952,0.438554 0.1539118,0.962541 -0.047964,1.164415 -0.201874,0.201874 -0.3454609,-0.156943 -0.3190818,-0.797371 z m 5.4676869,-0.607521 c 0.02915,-0.707727 0.173107,-0.851683 0.367044,-0.367044 0.175495,0.438554 0.153911,0.962541 -0.04796,1.164415 -0.201874,0.201874 -0.345461,-0.156943 -0.319082,-0.797371 z m 45.971733,-0.655483 c 0.41767,-0.168533 1.101131,-0.168533 1.518802,0 0.41767,0.168534 0.07594,0.306425 -0.759401,0.306425 -0.835341,0 -1.177072,-0.137891 -0.759401,-0.306425 z m -33.213798,-2.38212 c 0.02915,-0.707727 0.173107,-0.851684 0.367044,-0.367044 0.175495,0.438554 0.153912,0.96254 -0.04796,1.164415 -0.201874,0.201873 -0.345461,-0.156944 -0.319082,-0.797371 z m 64.349235,-0.695019 c 2.128771,-0.38743 3.630581,-1.899385 3.727857,-3.753038 0.07935,-1.511998 0.09383,-1.518144 0.353808,-0.150148 0.364239,1.916619 -1.960622,4.37205 -4.035682,4.262337 l -1.564785,-0.08273 z M 65.067781,51.112923 c 0.5911,-0.154033 1.411253,-0.143903 1.822563,0.02251 0.411309,0.166414 -0.07231,0.292441 -1.074723,0.28006 -1.002409,-0.01238 -1.338939,-0.148537 -0.74784,-0.302571 z m -7.290247,-0.607521 c 0.591097,-0.154033 1.41125,-0.143903 1.822562,0.02251 0.411311,0.166416 -0.07231,0.292443 -1.074724,0.280062 -1.002409,-0.01238 -1.338936,-0.148538 -0.747838,-0.302572 z m -2.745419,-0.842704 c -1.148491,-0.668935 -3.162221,-4.129972 -2.682216,-4.609977 0.161197,-0.161197 0.486709,0.316967 0.72336,1.062588 0.236651,0.745621 1.121686,1.996452 1.966745,2.779626 1.660348,1.53876 1.658299,1.738227 -0.0079,0.767763 z m -3.445269,-6.380925 c 0.02915,-0.707727 0.173108,-0.851684 0.367044,-0.367044 0.175495,0.438554 0.153912,0.96254 -0.04796,1.164415 -0.201874,0.201873 -0.345461,-0.156944 -0.319082,-0.797371 z M 23.224088,42.134942 c 0.169019,-1.151601 0.773345,-1.739103 1.969487,-1.914659 0.716155,-0.10511 0.608313,0.231579 -0.427244,1.333879 -1.622162,1.726712 -1.715594,1.761897 -1.542243,0.58078 z M 52.146405,41.41635 c 0,-0.683671 1.58131,-2.191662 3.037603,-2.896762 0.501205,-0.242671 0.364513,-0.0049 -0.30376,0.528271 -0.668273,0.53322 -1.556772,1.425898 -1.974442,1.98373 -0.417671,0.557832 -0.759401,0.730974 -0.759401,0.384761 z M 26.996873,38.877248 c -0.17209,-0.278448 0.07313,-0.506268 0.544942,-0.506268 0.471808,0 0.717033,0.22782 0.544943,0.506268 -0.17209,0.278446 -0.417314,0.506267 -0.544943,0.506267 -0.127628,0 -0.372853,-0.227821 -0.544942,-0.506267 z"
         id="path3047" />
      <path
         style="fill:#a3a3a3;fill-opacity:1;stroke-width:0.607521"
         d="M 14.978623,98.694093 C 3.0061052,95.413426 0.69768879,79.90734 11.133317,72.864419 c 1.540107,-1.039401 3.486084,-1.889827 4.324394,-1.889827 0.83831,0 1.373301,-0.244156 1.188869,-0.542576 -0.196083,-0.317272 0.608922,-0.323286 1.938589,-0.01452 3.139129,0.729019 3.928282,0.683133 3.479762,-0.202329 -0.211567,-0.41767 0.04568,-0.228725 0.571667,0.419876 0.525982,0.648626 0.956333,0.972866 0.956333,0.72055 0,-0.252309 1.093537,0.155859 2.430082,0.907041 1.336546,0.751181 2.430083,1.60496 2.430083,1.897287 0,0.292327 0.280158,0.358358 0.622574,0.146734 0.342415,-0.211623 0.572397,-0.159413 0.511071,0.116025 -0.201311,0.904167 0.803879,2.62712 1.532692,2.62712 0.392578,0 0.772364,0.707883 0.843969,1.573071 0.183259,2.21428 0.585503,2.668007 2.448875,2.762306 1.431864,0.07247 1.465125,0.115423 0.267907,0.346013 -1.363662,0.262656 -1.604784,0.741042 -1.396881,2.771431 0.215474,2.10433 -1.780591,7.467311 -3.59356,9.65509 -3.37897,4.077527 -9.498761,5.964659 -14.71112,4.536382 z m 7.599025,-4.854869 c 6.242043,-2.608086 7.763723,-10.791451 2.909318,-15.645858 -3.940714,-3.940713 -9.567688,-3.940713 -13.508402,0 -7.5129366,7.512936 0.776813,19.749867 10.599084,15.645858 z m -5.059925,-0.744577 c 0,-0.573907 -1.093537,-2.053019 -2.430083,-3.286912 -2.098621,-1.937438 -2.430083,-2.594004 -2.430083,-4.813575 0,-5.580856 6.441372,-8.279183 10.374585,-4.345966 3.434406,3.434405 1.874082,9.337362 -3.225781,12.203645 -2.068961,1.162819 -2.288638,1.186124 -2.288638,0.242808 z m 18.377502,-3.705694 c 0.584739,-0.152804 1.541584,-0.152804 2.126323,0 0.584739,0.152809 0.106316,0.277837 -1.063161,0.277837 -1.169478,0 -1.6479,-0.125028 -1.063162,-0.277837 z M 56.85469,85.760262 c 0.417671,-0.168532 1.101132,-0.168532 1.518802,0 0.417671,0.168532 0.07594,0.306427 -0.759401,0.306427 -0.835341,0 -1.177071,-0.137895 -0.759401,-0.306427 z m 7.328219,-0.01264 c 0.438551,-0.175494 0.962538,-0.153915 1.164417,0.04793 0.201873,0.201873 -0.156947,0.34546 -0.797371,0.319082 -0.707731,-0.02916 -0.851683,-0.173107 -0.367046,-0.36704 z m -4.594375,-3.648921 c 0.584738,-0.152804 1.541584,-0.152804 2.126322,0 0.584739,0.15281 0.106316,0.277837 -1.063161,0.277837 -1.169477,0 -1.6479,-0.125027 -1.063161,-0.277837 z m -19.954026,-3.985743 -1.15732,-1.366922 1.366922,1.157321 c 1.284569,1.087596 1.64349,1.576523 1.15732,1.576523 -0.115282,0 -0.730396,-0.615115 -1.366922,-1.366922 z m 0.969003,-4.404525 c -1.475686,-1.503614 -2.546372,-2.733844 -2.379304,-2.733844 0.167068,0 1.511139,1.23023 2.986825,2.733844 1.475685,1.503614 2.546372,2.733843 2.379304,2.733843 -0.167069,0 -1.51114,-1.230229 -2.986825,-2.733843 z m -4.614127,0.759401 -1.15732,-1.366922 1.366922,1.157321 c 1.284569,1.087596 1.64349,1.576522 1.157319,1.576522 -0.115281,0 -0.730396,-0.615114 -1.366921,-1.366921 z m -4.903698,-0.125156 c 0,-0.486508 0.23228,-0.740999 0.516178,-0.565541 0.283896,0.175458 0.358891,0.573506 0.166652,0.884557 -0.491256,0.794867 -0.68283,0.705368 -0.68283,-0.319016 z m 28.806608,-0.15171 c 0.751807,-0.144808 1.982036,-0.144808 2.733843,0 0.751807,0.144803 0.136692,0.263281 -1.366921,0.263281 -1.503614,0 -2.118729,-0.118478 -1.366922,-0.263281 z m 6.531984,-0.78813 c 0.205883,-0.333128 0.716012,-0.605686 1.133621,-0.605686 0.417604,0 2.348985,-0.957271 4.291958,-2.127265 1.942973,-1.169999 3.175408,-1.696787 2.738746,-1.170643 -1.273351,1.534299 -8.97621,5.217248 -8.164325,3.903594 z m -23.125142,-2.580129 -1.784344,-1.974442 1.974442,1.784343 c 1.840457,1.663258 2.253691,2.164542 1.784344,2.164542 -0.104554,0 -0.993053,-0.888499 -1.974442,-1.974443 z m 2.726081,-2.733843 -1.472821,-1.670682 1.670682,1.472819 c 1.561503,1.376575 1.949283,1.868545 1.472821,1.868545 -0.108824,0 -0.860631,-0.751807 -1.670682,-1.670682 z m 20.701685,0.710951 c 3.026237,-1.375062 5.467687,-3.876511 5.467687,-5.602064 0,-2.112136 -2.255555,-5.831072 -4.251764,-7.010261 -0.938936,-0.554643 -2.758509,-1.010025 -4.0435,-1.01196 -4.127872,-0.0062 -9.3087,-1.118719 -11.078513,-2.378937 -2.61103,-1.859217 -5.241152,-7.26672 -4.620409,-9.49951 0.482205,-1.734474 0.510125,-1.704219 0.945462,1.024551 0.548239,3.436454 1.617949,5.564987 2.517368,5.009116 0.370307,-0.228863 0.501139,-0.139953 0.292003,0.198436 -0.485598,0.785713 1.814533,2.948277 4.027723,3.786832 0.940627,0.356394 3.264393,0.649514 5.163926,0.651377 1.899529,0.0019 4.466833,0.284769 5.705106,0.62868 3.987663,1.107504 7.397446,6.70025 6.263411,10.273275 -0.478878,1.508815 -4.318537,4.089095 -6.793661,4.565403 -1.538547,0.296076 -1.495558,0.228708 0.405161,-0.634938 z m -43.495454,-2.837274 -1.157319,-1.366921 1.366921,1.157321 c 1.28457,1.087595 1.64349,1.576522 1.15732,1.576522 -0.115281,0 -0.730396,-0.615115 -1.366922,-1.366922 z m 5.317573,-8.96093 c 0,-0.835341 0.137891,-1.177072 0.306425,-0.759401 0.168533,0.41767 0.168533,1.101131 0,1.518802 -0.168534,0.41767 -0.306425,0.07594 -0.306425,-0.759401 z m -1.263004,-0.354387 c 0.02915,-0.707727 0.173107,-0.851683 0.367044,-0.367044 0.175495,0.438554 0.153912,0.962541 -0.04796,1.164415 -0.201874,0.201873 -0.345461,-0.156943 -0.319082,-0.797371 z M 40.16975,53.660252 c 0.0046,-1.670682 0.122544,-2.282038 0.262186,-1.358569 0.139641,0.92347 0.135909,2.290391 -0.0083,3.037604 -0.144202,0.747212 -0.258454,-0.0084 -0.253893,-1.679035 z m 31.663358,0.759401 -1.157321,-1.366922 1.366922,1.15732 c 1.284566,1.087594 1.643489,1.576523 1.157321,1.576523 -0.115284,0 -0.730398,-0.615114 -1.366922,-1.366921 z M 32.239167,53.356491 c 0,-1.169477 0.125025,-1.6479 0.277834,-1.063161 0.152807,0.584739 0.152807,1.541584 0,2.126323 -0.152809,0.584738 -0.277834,0.106316 -0.277834,-1.063162 z m 6.637706,0.607521 c 0,-0.835341 0.137891,-1.177071 0.306425,-0.759401 0.168534,0.417671 0.168534,1.101131 0,1.518802 -0.168534,0.41767 -0.306425,0.07594 -0.306425,-0.759401 z M 18.173206,53.609625 c 0.02915,-0.707727 0.173107,-0.851683 0.367044,-0.367044 0.175495,0.438554 0.153912,0.962541 -0.04796,1.164415 -0.201874,0.201874 -0.345461,-0.156943 -0.319082,-0.797371 z m 50.983779,-0.860654 c -0.547552,-0.353857 -0.622484,-0.592628 -0.187736,-0.598218 0.39795,-0.0051 0.892509,0.264081 1.099017,0.598218 0.466151,0.754252 0.255839,0.754252 -0.911281,0 z m -2.543993,-1.022527 c 0.438551,-0.175495 0.962538,-0.153912 1.164417,0.04796 0.201873,0.201874 -0.156947,0.345461 -0.797371,0.319082 -0.707731,-0.02915 -0.851683,-0.173108 -0.367046,-0.367044 z M 6.6303121,50.572022 c 0.029149,-0.707727 0.1731075,-0.851684 0.3670439,-0.367044 0.1754952,0.438554 0.1539118,0.96254 -0.047964,1.164414 -0.201874,0.201874 -0.3454609,-0.156943 -0.3190818,-0.79737 z M 59.295653,51.09364 c 1.091928,-0.135211 2.732234,-0.132421 3.645125,0.0062 0.912891,0.13862 0.0195,0.249247 -1.985323,0.245837 -2.004818,-0.0034 -2.751729,-0.116827 -1.659802,-0.252037 z M 28.549021,49.711367 c 0,-0.835341 0.137891,-1.177071 0.306425,-0.759401 0.168533,0.417671 0.168533,1.101131 0,1.518802 -0.168534,0.41767 -0.306425,0.07594 -0.306425,-0.759401 z m 26.943048,0.614479 c -0.212838,-0.344379 0.03102,-0.446228 0.571667,-0.238762 1.052479,0.403874 1.245045,0.839324 0.371168,0.839324 -0.314417,0 -0.738692,-0.270253 -0.942835,-0.600562 z M 24.339171,47.452644 c -1.210007,-3.234149 -1.355299,-3.930022 -0.955586,-4.576771 0.221164,-0.357852 0.773643,0.801098 1.227731,2.575442 0.899769,3.515843 0.738419,4.702399 -0.272145,2.001329 z m 20.213225,-6.854088 c 0.604778,-0.668273 1.236289,-1.215041 1.403357,-1.215041 0.167069,0 -0.191058,0.546768 -0.795837,1.215041 -0.604778,0.668273 -1.236289,1.215042 -1.403357,1.215042 -0.167069,0 0.191058,-0.546769 0.795837,-1.215042 z m -18.15692,-0.718684 c 0.175459,-0.283897 0.573509,-0.358891 0.884557,-0.166653 0.79487,0.491257 0.705367,0.68283 -0.319014,0.68283 -0.486507,0 -0.741001,-0.23228 -0.565543,-0.516177 z m 25.750929,0.489312 c 0,-0.126156 0.478422,-0.604578 1.063161,-1.063162 0.963562,-0.755677 0.98505,-0.734189 0.229373,0.229373 -0.793647,1.011976 -1.292534,1.333799 -1.292534,0.833789 z m 29.527336,-0.276895 c -0.172093,-0.278447 0.07313,-0.506268 0.54494,-0.506268 0.471806,0 0.717032,0.227821 0.54494,0.506268 -0.172086,0.278447 -0.417312,0.506267 -0.54494,0.506267 -0.127628,0 -0.372854,-0.22782 -0.54494,-0.506267 z m -6.519044,-1.771936 c -0.755677,-0.963562 -0.734189,-0.98505 0.229376,-0.229372 1.011977,0.793646 1.333799,1.292534 0.833785,1.292534 -0.126151,0 -0.604574,-0.478423 -1.063161,-1.063162 z m -28.475979,0.226268 c 0,-0.126155 0.478423,-0.604578 1.063161,-1.063161 0.963562,-0.755677 0.98505,-0.734189 0.229373,0.229373 -0.793646,1.011976 -1.292534,1.333799 -1.292534,0.833788 z m 8.343285,-0.453534 c 0.412102,-0.415191 0.902314,-0.601853 1.089362,-0.414805 0.187048,0.187047 -0.150126,0.526749 -0.749275,0.754892 -0.865838,0.329693 -0.93562,0.25991 -0.340087,-0.340087 z m 23.20181,-2.202817 -1.472819,-1.670682 1.670682,1.472821 c 1.561505,1.376574 1.949285,1.868543 1.472819,1.868543 -0.108819,0 -0.860626,-0.751806 -1.670682,-1.670682 z M 60.815137,35.317384 c 0.591099,-0.154033 1.411252,-0.143903 1.822561,0.02251 0.41131,0.166414 -0.07231,0.292442 -1.074722,0.28006 -1.002409,-0.01238 -1.338937,-0.148537 -0.747839,-0.302571 z m 20.150283,-2.160957 -1.784343,-1.974442 1.974443,1.784343 c 1.085943,0.981389 1.974442,1.869888 1.974442,1.974443 0,0.469347 -0.501284,0.05611 -2.164542,-1.784344 z m -35.501743,1.137549 c 0,-0.126155 0.478422,-0.604578 1.063161,-1.063161 0.963562,-0.755677 0.98505,-0.734189 0.229373,0.229372 -0.793647,1.011977 -1.292534,1.333799 -1.292534,0.833789 z m 39.734887,-2.35259 -1.157321,-1.366922 1.366922,1.15732 c 1.284566,1.087594 1.643489,1.576523 1.157321,1.576523 -0.115284,0 -0.730398,-0.615114 -1.366922,-1.366921 z m -3.037604,-3.037604 -1.157321,-1.366922 1.366922,1.15732 c 1.284566,1.087595 1.643489,1.576524 1.157321,1.576524 -0.115283,0 -0.730398,-0.615115 -1.366922,-1.366922 z M 60.537785,28.640656 c 0.438554,-0.175495 0.962537,-0.153911 1.164417,0.04796 0.201873,0.201874 -0.156947,0.345461 -0.797373,0.319082 -0.707727,-0.02915 -0.851684,-0.173107 -0.367044,-0.367044 z M 56.89266,24.995532 c 0.438554,-0.175495 0.962541,-0.153912 1.164415,0.04796 0.201874,0.201874 -0.156943,0.345461 -0.797371,0.319082 -0.707727,-0.02915 -0.851683,-0.173108 -0.367044,-0.367044 z M 35.906788,21.344407 c 0.591097,-0.154033 1.41125,-0.143903 1.822562,0.02251 0.411311,0.166416 -0.07231,0.292443 -1.074724,0.280062 -1.002409,-0.01238 -1.338937,-0.148538 -0.747838,-0.302571 z m 30.706204,0.006 c 0.438551,-0.175496 0.962538,-0.153912 1.164417,0.04796 0.201873,0.201875 -0.156947,0.345461 -0.797371,0.319082 -0.707731,-0.02915 -0.851683,-0.173107 -0.367046,-0.367044 z m -6.405375,-0.613536 c 0.591097,-0.154032 1.411251,-0.143902 1.822561,0.02251 0.411309,0.166414 -0.07231,0.292441 -1.074723,0.28006 -1.002409,-0.01238 -1.338936,-0.148538 -0.747838,-0.302571 z"
         id="path3045" />
      <path
         style="fill:#8c8c8c;fill-opacity:1;stroke-width:0.607521"
         d="m 33.059785,88.376969 c 0.284828,-0.742251 3.765301,-1.261571 12.040827,-1.796603 3.085454,-0.199479 2.456857,1.245952 -0.850291,1.955208 -4.600191,0.986566 -11.591953,0.887467 -11.190536,-0.158605 z m 27.59191,-0.291312 c 0,-0.31921 1.096022,-0.684907 2.435611,-0.812656 1.490352,-0.14213 2.356294,0.01 2.231242,0.391832 -0.261265,0.797845 -4.666853,1.195115 -4.666853,0.420824 z m 7.646639,-0.486163 c -0.365698,-0.952987 0.198051,-1.436883 1.673986,-1.436883 1.776476,0 9.553319,-3.982353 11.820294,-6.052918 2.889812,-2.639434 2.526223,-0.460695 -0.413739,2.479268 -1.504708,1.504707 -2.918639,2.358608 -3.90549,2.358608 -0.850784,0 -1.908144,0.357028 -2.349678,0.793392 -0.44154,0.43637 -1.341903,0.997847 -2.000808,1.247726 -0.920777,0.349191 -1.011304,0.569727 -0.391177,0.952981 0.494285,0.305486 -0.155331,0.473429 -1.676939,0.433527 -1.366077,-0.03584 -2.606477,-0.384883 -2.756449,-0.775701 z M 48.3494,86.02881 c -1.980619,-0.681638 -2.248361,-1.730249 -0.348358,-1.364339 1.362276,0.262351 2.748447,1.300082 2.282299,1.708603 -0.144792,0.126893 -1.015066,-0.02802 -1.933941,-0.344264 z m 11.542894,-0.294945 c 0.751807,-0.144809 1.982036,-0.144809 2.733843,0 0.751807,0.144803 0.136692,0.263281 -1.366921,0.263281 -1.503614,0 -2.118729,-0.118478 -1.366922,-0.263281 z m 18.985023,0.189984 c 0,-0.131322 0.424274,-0.401571 0.942836,-0.600565 0.540644,-0.207462 0.784503,-0.105617 0.571664,0.238762 -0.356772,0.577272 -1.5145,0.85384 -1.5145,0.361803 z M 33.313262,84.269224 c 0,-1.054638 0.281859,-1.231979 1.56744,-0.986225 0.862092,0.164796 2.453419,0.09981 3.536282,-0.144414 1.459209,-0.329106 2.306033,-0.171005 3.271492,0.610777 l 1.30265,1.05482 -1.877269,0.375454 c -1.032497,0.206502 -3.210016,0.375454 -4.838931,0.375454 -2.611024,0 -2.961664,-0.152239 -2.961664,-1.285866 z m 21.149316,0.870862 c 0.438554,-0.175494 0.96254,-0.153915 1.164414,0.04793 0.201874,0.201873 -0.156943,0.34546 -0.79737,0.319082 -0.707728,-0.02916 -0.851684,-0.173107 -0.367044,-0.36704 z m 12.38253,0.0024 c 0.619889,-0.163387 0.890637,-0.633195 0.680496,-1.180814 -0.227298,-0.592327 0.112276,-1.030082 0.973813,-1.255381 2.02856,-0.530481 9.281009,-4.214997 10.976344,-5.576396 2.038979,-1.637354 1.042506,-2.446353 -1.080196,-0.876975 -2.632363,1.946193 -6.830003,3.944086 -10.149861,4.830902 -3.438652,0.918541 -4.931513,1.021686 -2.885723,0.199382 0.751806,-0.302193 1.366921,-0.914319 1.366921,-1.360281 0,-0.445969 1.354328,-1.297859 3.009621,-1.89309 1.655294,-0.595236 4.512968,-2.135344 6.350384,-3.422456 3.058181,-2.142263 3.37191,-2.242067 3.709012,-1.179938 0.202541,0.638151 1.103907,1.739508 2.003032,2.447458 l 1.634771,1.28719 -1.822562,1.482296 c -4.017498,3.267453 -12.552113,7.121571 -15.146403,6.839924 -0.357028,-0.03876 -0.185865,-0.192578 0.380351,-0.341821 z M 60.432,84.036288 c -0.269418,-0.702087 0.134043,-0.911281 1.757561,-0.911281 2.184474,0 2.823343,0.810257 1.146288,1.453803 -1.573576,0.603839 -2.532712,0.424645 -2.903849,-0.542522 z M 48.61413,81.876594 c -0.773273,-0.310127 -1.235104,-0.84031 -1.026291,-1.178177 0.409942,-0.663297 2.36315,0.116766 3.041783,1.214817 0.450033,0.728168 -0.135056,0.717531 -2.015492,-0.03663 z M 34.438288,81.480795 c -0.88485,-0.135915 -1.733857,-0.725271 -1.886683,-1.309675 -0.230654,-0.882023 0.04236,-1.015562 1.606806,-0.78595 1.548457,0.227268 1.776652,0.119797 1.279162,-0.60243 -0.33303,-0.483471 -0.0067,-0.19858 0.725258,0.633086 1.20669,1.371138 1.366411,2.633474 0.304061,2.403115 -0.230883,-0.05006 -1.143754,-0.202232 -2.028604,-0.338146 z m 21.846852,0.01416 c 0.438554,-0.175495 0.96254,-0.153915 1.164415,0.04793 0.201873,0.201873 -0.156944,0.345461 -0.797371,0.319082 C 55.944457,81.832807 55.8005,81.68886 56.28514,81.494928 Z m 3.151513,-1.407547 c 0,-0.334136 1.383057,-0.60752 3.07346,-0.60752 1.894268,0 2.929398,0.233087 2.697987,0.60752 -0.206508,0.334137 -1.589565,0.607521 -3.073459,0.607521 -1.483893,0 -2.697988,-0.273384 -2.697988,-0.607521 z M 38.7865,79.182811 c -0.412909,-0.497523 -0.951318,-0.780628 -1.196463,-0.629124 -0.245146,0.15151 -1.222162,-0.534959 -2.171148,-1.525491 -1.171004,-1.222265 -1.435707,-1.800958 -0.823782,-1.800958 0.495907,0 1.969458,1.093537 3.274561,2.430082 1.305102,1.336546 2.214212,2.430083 2.020244,2.430083 -0.193967,0 -0.690502,-0.407069 -1.103412,-0.904592 z m 10.451094,-1.426617 c -1.098641,-0.58588 -1.815787,-1.246978 -1.593658,-1.469106 0.518049,-0.518045 3.894948,1.210181 3.894948,1.993354 0,0.733733 0.100678,0.756667 -2.30129,-0.524248 z m 10.35094,0.07351 c 0.918875,-0.139201 2.422489,-0.139201 3.341364,0 0.918875,0.139196 0.167068,0.253088 -1.670682,0.253088 -1.837751,0 -2.589557,-0.113892 -1.670682,-0.253088 z M 31.79446,77.192379 c -0.334136,-0.245487 -0.95924,-0.896464 -1.389118,-1.446616 -0.681961,-0.872759 -0.588812,-0.988929 0.730699,-0.911282 1.575759,0.09273 3.535331,2.832517 2.012316,2.813538 -0.410506,-0.0049 -1.01976,-0.210153 -1.353897,-0.45564 z m 34.324922,-0.658911 c 0,-0.878402 0.781897,-1.504349 2.880122,-2.305663 1.584067,-0.604963 4.317911,-2.271028 6.075207,-3.702365 l 3.195085,-2.60243 v 1.800363 c 0,1.450754 -0.532194,2.166528 -2.740556,3.68592 -2.629423,1.809093 -5.115118,3.018241 -8.042937,3.912433 -1.098622,0.335534 -1.366921,0.18081 -1.366921,-0.788258 z m -22.55576,-0.54683 c -0.755677,-0.963564 -0.734189,-0.985052 0.229373,-0.229375 0.584738,0.458587 1.063161,0.93701 1.063161,1.063161 0,0.500014 -0.498888,0.178192 -1.292534,-0.833786 z m 15.687041,0.674664 c -0.866837,-0.866834 0.422402,-1.434064 3.25945,-1.434064 3.111581,0 4.02042,0.800335 1.634826,1.439648 -1.805394,0.483829 -4.407833,0.480858 -4.894276,-0.0055 z M 40.609062,75.537687 c -0.412909,-0.497523 -0.956616,-0.777359 -1.208236,-0.621846 -0.59316,0.36659 -2.753881,-2.009752 -2.268621,-2.495009 0.202882,-0.202888 1.408653,0.616573 2.679492,1.821013 1.270839,1.20444 2.139052,2.192269 1.929363,2.195167 -0.209689,0.003 -0.719088,-0.401802 -1.131998,-0.899325 z M 5.4625315,71.430233 C 2.5114535,66.248646 1.0952012,61.167939 0.85326144,54.894798 0.64148028,49.403625 1.1975634,46.73859 2.65523,46.258843 c 0.4156871,-0.136811 0.5498403,1.805906 0.395231,5.723472 -0.2799316,7.093039 0.8019981,12.006846 3.8897049,17.665902 1.9379449,3.551809 2.1852332,4.9715 0.8659582,4.9715 -0.2898943,0 -1.344511,-1.435268 -2.3435926,-3.189484 z m 29.5958005,1.518802 c -0.755677,-0.963564 -0.734189,-0.985053 0.229373,-0.229376 0.584738,0.458587 1.063161,0.93701 1.063161,1.063162 0,0.500013 -0.498888,0.178191 -1.292534,-0.833786 z m 13.452025,-0.123837 c -0.830349,-0.637994 -1.293906,-1.375804 -1.030129,-1.639583 0.263778,-0.263774 0.669771,-0.182627 0.902205,0.18033 0.232434,0.362957 1.041692,0.853148 1.798351,1.089309 0.756659,0.236156 1.218947,0.683078 1.027307,0.993163 -0.496941,0.804066 -0.987653,0.690702 -2.697734,-0.623219 z m 16.242103,0.784649 c 1.748378,-0.705483 0.530384,-1.103367 -2.800537,-0.914853 -2.554198,0.14456 -3.650365,-0.02734 -3.873891,-0.607521 -0.241933,-0.627945 0.432794,-0.761746 3.013339,-0.597545 5.782806,0.367957 11.710417,-2.796315 15.250659,-8.1411 1.881607,-2.840709 1.927766,-2.867501 1.927766,-1.118859 0,0.98535 -0.400423,2.363226 -0.889829,3.061954 -0.489413,0.698727 -0.743582,1.416665 -0.564831,1.595422 0.727269,0.727269 -10.421994,7.207201 -12.176374,7.076887 -0.355138,-0.02637 -0.303973,-0.185852 0.113698,-0.354385 z m -22.080348,-1.572093 -1.15732,-1.366922 1.366922,1.157321 c 1.284569,1.087596 1.64349,1.576522 1.157319,1.576522 -0.115281,0 -0.730396,-0.615114 -1.366921,-1.366921 z M 25.527676,70.345487 c -6.02497,-4.023319 -9.386939,-10.548873 -9.151218,-17.762436 0.09563,-2.92638 0.23925,-3.293929 1.081409,-2.767444 0.700528,0.437942 1.007651,1.697791 1.102173,4.521228 0.07717,2.305015 0.621706,5.023352 1.324584,6.612326 1.235796,2.793723 5.956627,7.870483 7.888999,8.483793 1.140781,0.36207 2.881555,3.364201 1.950719,3.364201 -0.288897,0 -2.177397,-1.103252 -4.196666,-2.451668 z M 8.6536434,69.043436 C 5.1336492,62.097062 4.1782937,57.298679 4.7792596,49.583902 c 0.096561,-1.239582 0.4050665,-2.111947 0.6855677,-1.938588 0.2805011,0.173359 0.5100021,-0.111012 0.5100021,-0.631936 0,-0.520924 0.3810165,-0.947135 0.8467035,-0.947135 0.6852408,0 0.7322666,0.492367 0.2466017,2.581963 -1.2963032,5.577406 0.6330433,15.418262 4.0288664,20.549698 0.819657,1.238583 1.323841,2.418419 1.120408,2.621853 -0.977303,0.9773 -2.108044,0.09641 -3.5637656,-2.776321 z m 29.4422926,1.475516 c -0.755678,-0.963564 -0.73419,-0.985052 0.229372,-0.229376 0.584739,0.458587 1.063161,0.93701 1.063161,1.063162 0,0.500014 -0.498887,0.178192 -1.292533,-0.833786 z m 1.267627,-0.794382 c -1.595303,-2.240391 -0.988209,-3.316747 0.660469,-1.170984 1.061166,1.381113 1.564121,3.028527 0.924608,3.028527 -0.144316,0 -0.8576,-0.835894 -1.585077,-1.857543 z m 48.778445,1.438761 c 0.584739,-0.152804 1.541584,-0.152804 2.126322,0 0.584739,0.15281 0.106317,0.277837 -1.063161,0.277837 -1.169477,0 -1.6479,-0.125027 -1.063161,-0.277837 z M 12.656637,68.141456 C 9.9612061,63.891205 8.8576708,59.871651 8.7788802,54.016996 c -0.057376,-4.263443 0.096343,-5.21691 0.8410736,-5.21691 0.6929002,0 0.9455172,0.873523 1.0541462,3.645124 0.07858,2.004819 0.292913,4.757309 0.476304,6.116645 0.35795,2.653213 3.383824,9.568921 4.484346,10.249077 0.94398,0.583414 0.828438,1.364552 -0.263836,1.783699 -0.643488,0.246927 -1.483257,-0.512061 -2.714277,-2.453175 z m 4.302681,-0.530682 c -2.726073,-3.795983 -4.358264,-8.795561 -4.492573,-13.761223 -0.08497,-3.141356 0.112818,-4.319455 0.798333,-4.755272 0.501205,-0.318641 1.047973,-0.583534 1.215042,-0.588651 0.167068,-0.0051 0.30376,2.38281 0.30376,5.306504 0,4.456785 0.255361,5.860242 1.58023,8.684891 0.869126,1.852999 2.469407,4.381804 3.556178,5.619567 1.973842,2.248082 1.974372,2.250482 0.4972,2.250482 -1.058504,0 -2.041281,-0.783313 -3.45817,-2.756298 z m 75.4244,0.326215 c 0,-1.169478 0.125027,-1.6479 0.277837,-1.063161 0.152804,0.584738 0.152804,1.541583 0,2.126322 -0.15281,0.584739 -0.277837,0.106316 -0.277837,-1.063161 z m -44.3042,-0.284563 c -1.113456,-0.979572 -1.388548,-1.499252 -0.793279,-1.498589 0.918947,0.0012 3.645124,1.97542 3.645124,2.639932 0,0.777706 -1.230097,0.285407 -2.851845,-1.141343 z m 37.576448,0.284563 c 0,-0.835341 0.137895,-1.177072 0.306428,-0.759401 0.168532,0.41767 0.168532,1.101131 0,1.518802 -0.168533,0.41767 -0.306428,0.07594 -0.306428,-0.759401 z M 44.778664,66.266307 c -0.755678,-0.963565 -0.73419,-0.985053 0.229372,-0.229376 1.011977,0.793647 1.333799,1.292537 0.833789,1.292537 -0.126155,0 -0.604578,-0.478422 -1.063161,-1.063161 z M 27.403859,63.605506 c -0.162636,-2.771862 0.777913,-3.147027 1.350776,-0.538798 0.218944,0.99685 0.445705,1.995979 0.503912,2.220288 0.05821,0.224314 -0.304246,0.46677 -0.805451,0.538798 -0.656558,0.09435 -0.949843,-0.526265 -1.049237,-2.220288 z m 12.940688,0.165464 c -1.098044,-2.123381 -1.164037,-2.516709 -0.422261,-2.516709 0.664786,0 2.1849,3.558996 1.719076,4.024825 -0.187406,0.187402 -0.770973,-0.491248 -1.296815,-1.508116 z m 32.746366,-0.93142 c -0.01166,-2.11961 -0.429092,-3.238741 -1.880222,-5.040624 -2.239589,-2.780913 -4.740582,-3.754817 -9.760046,-3.800624 -2.0666,-0.01886 -4.527059,-0.325885 -5.467686,-0.682279 -2.21319,-0.838555 -4.513321,-3.001119 -4.027723,-3.786832 0.21769,-0.35223 0.07507,-0.425297 -0.335216,-0.171729 -0.90238,0.557701 -2.511219,-3.130126 -2.511219,-5.756289 0,-2.000762 1.253737,-3.439982 4.556406,-5.230501 l 1.822562,-0.988088 -1.974443,1.851729 c -2.370636,2.2233 -2.588291,4.663017 -0.713583,7.998611 1.806423,3.214096 3.207867,3.854028 9.493661,4.335032 6.458954,0.494254 8.744277,1.54374 11.234134,5.15904 2.386894,3.465794 2.6076,5.108613 0.958935,7.137806 L 73.10587,65.564061 73.09093,62.83955 Z m 15.354855,1.657486 c 0.417671,-0.168532 1.101132,-0.168532 1.518802,0 0.417671,0.168533 0.07594,0.306428 -0.759401,0.306428 -0.835341,0 -1.177071,-0.137895 -0.759401,-0.306428 z m -57.19383,-1.773662 c -0.202817,-0.528531 -0.368759,-1.540054 -0.368759,-2.247825 0,-1.67457 0.992879,-0.683984 1.541672,1.538113 0.440958,1.785461 -0.533782,2.37526 -1.172913,0.709712 z m 57.19383,-1.263942 c 0.417671,-0.168533 1.101132,-0.168533 1.518802,0 0.417671,0.168534 0.07594,0.306425 -0.759401,0.306425 -0.835341,0 -1.177071,-0.137891 -0.759401,-0.306425 z M 29.156542,59.431699 c 0,-0.835341 0.13789,-1.177072 0.306425,-0.759401 0.168533,0.41767 0.168533,1.101131 0,1.518802 -0.168535,0.41767 -0.306425,0.07594 -0.306425,-0.759401 z m 6.186923,0.748705 c -0.984322,-0.626328 -1.756543,-5.00135 -0.882773,-5.00135 0.371323,0 0.681654,0.205038 0.689626,0.45564 0.008,0.250602 0.252565,1.480832 0.543542,2.733843 0.290977,1.253012 0.489493,2.274017 0.441147,2.2689 -0.04835,-0.0051 -0.40454,-0.210781 -0.791542,-0.457033 z m 57.040253,-1.963747 c 0,-1.169477 0.125027,-1.6479 0.277837,-1.063161 0.152804,0.584739 0.152804,1.541584 0,2.126322 -0.15281,0.584739 -0.277837,0.106317 -0.277837,-1.063161 z m -6.727752,0 c 0,-0.835341 0.137895,-1.177071 0.306428,-0.759401 0.168532,0.417671 0.168532,1.101132 0,1.518802 -0.168533,0.417671 -0.306428,0.07594 -0.306428,-0.759401 z m -52.8543,-0.607521 c 0,-0.835341 0.137891,-1.177071 0.306425,-0.7594 0.168533,0.41767 0.168533,1.101131 0,1.518801 -0.168534,0.417671 -0.306425,0.07594 -0.306425,-0.759401 z m 9.385645,0.254074 c -0.568374,-1.481158 -0.437047,-3.291677 0.238762,-3.291677 0.334136,0 0.611254,0.34173 0.615817,0.759401 0.0046,0.41767 0.173139,1.374515 0.374616,2.126322 0.41313,1.541589 -0.657702,1.895241 -1.229195,0.405954 z m -1.535838,-0.60846 c 0.02915,-0.707727 0.173107,-0.851684 0.367044,-0.367044 0.175495,0.438554 0.153912,0.96254 -0.04796,1.164415 -0.201874,0.201873 -0.345461,-0.156944 -0.319082,-0.797371 z m -4.118555,-3.898259 c 0,-1.83775 0.113889,-2.589557 0.253087,-1.670682 0.139198,0.918875 0.139198,2.422489 0,3.341364 -0.139198,0.918875 -0.253087,0.167069 -0.253087,-1.670682 z m -7.914355,0 c 0,-1.503613 0.118476,-2.118728 0.263281,-1.366921 0.144804,0.751807 0.144804,1.982036 0,2.733843 -0.144805,0.751807 -0.263281,0.136692 -0.263281,-1.366922 z m 59.523445,1.403783 c 0.584739,-0.152808 1.541584,-0.152808 2.126322,0 0.584739,0.152808 0.106317,0.277833 -1.063161,0.277833 -1.169477,0 -1.6479,-0.125025 -1.063161,-0.277833 z M 30.979104,53.356491 c 0,-0.835341 0.137891,-1.177071 0.306425,-0.759401 0.168533,0.417671 0.168533,1.101132 0,1.518802 -0.168534,0.417671 -0.306425,0.07594 -0.306425,-0.759401 z m 6.935251,-0.535214 c -0.519125,-0.839963 0.298526,-4.210095 1.095654,-4.515982 0.47647,-0.182839 0.628316,0.48545 0.475174,2.091293 -0.226027,2.37012 -0.931524,3.459105 -1.570828,2.424689 z m 50.227653,-1.706128 c 0.584739,-0.152808 1.541584,-0.152808 2.126322,0 0.584739,0.152809 0.106317,0.277834 -1.063161,0.277834 -1.169477,0 -1.6479,-0.125025 -1.063161,-0.277834 z M 26.459946,50.511187 c -0.516288,-0.876318 0.270732,-4.353378 1.053349,-4.653695 0.568544,-0.218171 0.647653,0.306676 0.317971,2.109567 -0.467065,2.554179 -0.896268,3.350454 -1.37132,2.544128 z m 6.293757,-1.154207 c 0.02915,-0.707727 0.173108,-0.851683 0.367044,-0.367044 0.175495,0.438554 0.153912,0.962541 -0.04796,1.164415 -0.201875,0.201874 -0.345462,-0.156943 -0.319082,-0.797371 z m -2.468742,-0.708774 c 0.01159,-1.324407 1.013374,-2.976835 1.506033,-2.484176 0.515332,0.515331 -0.316895,3.547337 -0.973675,3.547337 -0.297913,0 -0.537474,-0.478423 -0.532358,-1.063161 z m 62.098757,-0.759401 c 0,-1.169478 0.125027,-1.6479 0.277837,-1.063161 0.152804,0.584738 0.152804,1.541583 0,2.126322 -0.15281,0.584739 -0.277837,0.106316 -0.277837,-1.063161 z m -6.727752,0 c 0,-0.835341 0.137895,-1.177072 0.306428,-0.759401 0.168532,0.41767 0.168532,1.101131 0,1.518802 -0.168533,0.41767 -0.306428,0.07594 -0.306428,-0.759401 z M 29.108579,47.534418 c 0.02915,-0.707727 0.173108,-0.851683 0.367044,-0.367044 0.175495,0.438554 0.153912,0.962541 -0.04796,1.164415 -0.201874,0.201874 -0.345461,-0.156943 -0.319082,-0.797371 z M 10.575324,47.23417 c -0.477511,-1.151479 0.582504,-4.205531 1.459676,-4.205531 0.768667,0 0.737317,0.357927 -0.266058,3.037604 -0.588035,1.570443 -0.90008,1.875771 -1.193618,1.167927 z m 14.217611,-0.903717 c -1.084139,-2.851502 -0.703484,-4.28798 1.602333,-6.046712 l 2.194816,-1.674068 -1.049646,1.601962 c -0.577305,0.88108 -0.848037,1.601963 -0.601627,1.601963 0.246411,0 0.117625,0.398101 -0.28619,0.884668 -0.403816,0.486568 -0.569523,1.151138 -0.368239,1.476824 0.201285,0.325684 0.07701,0.770743 -0.276171,0.98902 -0.353178,0.218276 -0.475907,0.920627 -0.272731,1.56078 0.553258,1.743161 -0.259079,1.403214 -0.942545,-0.394437 z m 9.735369,0.737727 c 0,-1.143119 1.502228,-4.039541 2.095106,-4.039541 0.5917,0 0.613005,0.473485 0.09567,2.126323 -0.366041,1.169477 -1.00871,2.126322 -1.428155,2.126322 -0.419445,0 -0.762626,-0.0959 -0.762626,-0.213104 z m 9.112811,-0.973352 c 0,-1.013526 1.390354,-3.67371 1.920078,-3.67371 0.70181,0 0.638697,0.87542 -0.195032,2.705258 -0.693785,1.52269 -1.725046,2.101647 -1.725046,0.968452 z m -24.692202,-1.48909 c 0.04819,-0.803277 0.328117,-1.311992 0.622067,-1.130477 0.293951,0.181515 0.412167,-0.03684 0.262703,-0.485231 -0.378245,-1.134735 4.087459,-5.569543 7.556252,-7.503973 3.00116,-1.673647 3.50567,-1.51064 1.995891,0.644872 -0.489408,0.698728 -0.694446,1.486848 -0.455641,1.75138 0.238806,0.264532 0.08065,0.277007 -0.351463,0.02772 -1.087187,-0.627193 -4.542235,2.128676 -6.820886,5.440582 -2.092553,3.041421 -2.938762,3.419536 -2.808923,1.255123 z M 76.50832,44.169292 c -1.272586,-1.365958 -1.703585,-2.963215 -0.799594,-2.963215 0.62362,0 2.769851,3.638852 2.377587,4.031112 -0.166024,0.166026 -0.876124,-0.314528 -1.577993,-1.067897 z m 11.937448,0.27956 c 0.417671,-0.168534 1.101132,-0.168534 1.518802,0 0.417671,0.168534 0.07594,0.306425 -0.759401,0.306425 -0.835341,0 -1.177071,-0.137891 -0.759401,-0.306425 z m -46.271741,-3.1591 c -0.59723,-0.966338 1.047322,-2.836391 3.539774,-4.025146 l 1.876198,-0.894839 -2.185573,1.962514 c -1.202066,1.079383 -2.313897,2.359126 -2.470735,2.843873 -0.22192,0.685894 -0.390396,0.711088 -0.759664,0.113598 z m 5.112212,0.294473 c 0,-0.126155 0.478423,-0.604578 1.063161,-1.063161 0.963562,-0.755678 0.98505,-0.73419 0.229373,0.229372 -0.793647,1.011977 -1.292534,1.333799 -1.292534,0.833789 z M 16.613488,40.609956 c -0.619737,-1.002755 5.535784,-6.76673 9.200465,-8.615234 1.900628,-0.958696 4.57054,-1.915932 5.933138,-2.127193 2.438454,-0.378062 2.460563,-0.365035 1.404506,0.827583 -0.59012,0.66643 -2.122779,1.526229 -3.405909,1.910664 -3.174068,0.950974 -8.678818,4.659502 -10.128766,6.823709 -1.21038,1.806626 -2.34165,2.25126 -3.003434,1.180471 z m -2.64631,-2.023762 c -0.647679,-0.780405 -0.606522,-1.149525 0.237567,-2.130596 3.261541,-3.79084 5.957579,-6.184894 6.965047,-6.184894 0.330317,0 0.600576,-0.239719 0.600576,-0.532709 0,-0.621206 5.031146,-2.87661 7.630282,-3.420566 0.98246,-0.205612 3.388293,-0.523821 5.346298,-0.70713 3.532006,-0.330668 3.550671,-0.323952 2.372978,0.853741 -0.765895,0.765895 -2.381071,1.310266 -4.55261,1.534388 -6.174355,0.63725 -14.377274,5.628097 -17.192566,10.460357 -0.560582,0.962203 -0.703983,0.975183 -1.407572,0.127409 z m 62.877976,-0.313677 c -1.645604,-1.818367 -1.209872,-2.937977 0.513361,-1.319085 1.536402,1.443377 1.94465,2.430083 1.005441,2.430083 -0.282352,0 -0.965812,-0.499949 -1.518802,-1.110998 z m -3.189484,-0.863445 -1.157321,-1.366921 1.366922,1.157319 c 1.284566,1.087595 1.643489,1.576524 1.157321,1.576524 -0.115283,0 -0.730398,-0.615115 -1.366922,-1.366922 z m -31.837118,0.569302 c 0,-0.104554 0.888499,-0.993053 1.974443,-1.974442 l 1.974442,-1.784344 -1.784344,1.974443 c -1.663258,1.840456 -2.164541,2.25369 -2.164541,1.784343 z M 10.621439,37.144889 c -1.9241993,-1.924199 4.400717,-8.525385 11.487343,-11.989108 5.678063,-2.77526 8.661313,-3.453065 14.702484,-3.340454 5.172957,0.09642 5.628521,0.196739 4.774042,1.051218 -0.665281,0.665281 -1.9055,0.900109 -4.193961,0.794103 -1.787137,-0.08278 -5.116294,0.282459 -7.398126,0.811651 -7.129548,1.653453 -11.828809,4.742805 -17.813302,11.710682 -0.640483,0.74573 -1.3418,1.178589 -1.55848,0.961908 z m 24.927551,-0.01443 c -0.508303,-0.822453 1.35543,-3.319686 2.123346,-2.845089 0.3839,0.237264 0.406756,0.538487 0.05839,0.769565 -0.314833,0.208835 -0.852957,0.89323 -1.195833,1.520877 -0.342875,0.627647 -0.786532,0.877239 -0.985905,0.554647 z m 16.870027,-0.227421 c -0.383566,-0.620621 2.57647,-1.936257 3.593574,-1.597222 0.354493,0.118164 -0.231253,0.651744 -1.301658,1.185731 -1.098861,0.548185 -2.096712,0.727339 -2.291916,0.411491 z m 13.600075,-0.854025 c -1.22464,-0.450346 -2.368,-0.677426 -2.540804,-0.504622 -0.172803,0.172804 -0.168344,-0.243512 0.0099,-0.925146 0.282935,-1.081944 -0.0116,-1.272487 -2.319367,-1.500376 -1.453896,-0.143572 -0.866453,-0.180373 1.305433,-0.08178 3.71146,0.168482 10.329511,2.294632 9.554588,3.069555 -0.185743,0.185743 -0.889921,0.04218 -1.564846,-0.319028 -1.641898,-0.878718 -1.942359,-0.828624 -1.526712,0.254539 0.416474,1.08531 0.01701,1.086248 -2.918195,0.0069 z M 6.4061023,35.130031 c -0.1748778,-0.668734 -0.070071,-1.062676 0.2329046,-0.875427 0.3029748,0.187249 0.550864,-0.0973 0.550864,-0.632323 0,-1.418059 4.2382971,-6.170434 8.2612341,-9.263269 2.558299,-1.966821 8.405992,-4.778877 11.179429,-5.375997 0.835341,-0.179849 2.338955,-0.508125 3.341364,-0.729503 2.896536,-0.639687 12.502695,-0.36195 15.444271,0.446531 4.399591,1.209211 1.773785,1.799939 -6.304196,1.418255 C 30.69012,19.720367 27.252289,20.435595 20.437912,24.003367 16.36154,26.137615 8.7670615,33.032774 8.0684892,35.233782 7.6035493,36.698677 6.8032513,36.64873 6.4061023,35.130031 Z m 34.8049297,0.820158 c 0,-0.334136 0.68346,-1.249599 1.518801,-2.034361 0.835341,-0.784762 1.518802,-1.153456 1.518802,-0.819319 0,0.334136 -0.683461,1.249599 -1.518802,2.03436 -0.835341,0.784762 -1.518801,1.153456 -1.518801,0.81932 z m 37.460937,-1.42684 c -0.946117,-1.002409 -1.970421,-1.822562 -2.276235,-1.822562 -0.305807,0 -0.556021,-0.443422 -0.556021,-0.985382 0,-0.882061 0.141522,-0.891414 1.349717,-0.0892 1.073732,0.71293 3.912822,4.71971 3.344256,4.71971 -0.07784,0 -0.915607,-0.820153 -1.861717,-1.822562 z M 31.4907,35.394188 c 0,-0.88508 2.08371,-3.300922 2.847109,-3.300922 0.745083,0 0.73405,0.150754 -0.06987,0.954676 -0.525072,0.525071 -0.954676,1.179282 -0.954676,1.453803 0,0.274521 -0.410076,0.65649 -0.911281,0.84882 -0.501205,0.192331 -0.911281,0.211961 -0.911281,0.04363 z m 9.416571,-2.085881 c 1.305102,-1.336545 2.509605,-2.430083 2.676673,-2.430083 0.167069,0 -0.76405,1.093538 -2.069152,2.430083 -1.305102,1.336546 -2.509605,2.430083 -2.676673,2.430083 -0.167068,0 0.76405,-1.093537 2.069152,-2.430083 z m 34.854947,0.759401 c -0.755677,-0.963562 -0.734189,-0.98505 0.229375,-0.229372 1.011978,0.793646 1.3338,1.292533 0.833786,1.292533 -0.126152,0 -0.604574,-0.478422 -1.063161,-1.063161 z m 7.77276,-0.253134 c -0.612588,-0.668272 -0.955995,-1.372839 -0.763125,-1.565703 0.40922,-0.409225 2.788192,1.611765 2.788192,2.368636 0,0.829868 -0.830007,0.500774 -2.025067,-0.802933 z M 51.695883,33.148355 c 0.164977,-0.828204 3.494491,-2.466272 3.995193,-1.96557 0.429178,0.429179 -0.440989,1.130114 -2.476391,1.994778 -1.291105,0.548477 -1.632568,0.541911 -1.518802,-0.02921 z M 36.654626,32.093266 c 0.604779,-0.668273 1.23629,-1.215042 1.403358,-1.215042 0.167068,0 -0.191059,0.546769 -0.795837,1.215042 -0.604778,0.668273 -1.23629,1.215041 -1.403358,1.215041 -0.167068,0 0.191059,-0.546768 0.795837,-1.215041 z m 30.43106,0.300924 c -1.501524,-0.432088 -2.555682,-1.171722 -2.866149,-2.010995 -0.570335,-1.541762 -0.298809,-1.592703 3.453384,-0.64789 2.606714,0.656378 3.174211,1.341765 2.234164,2.698274 -0.313256,0.452032 -1.154508,0.440287 -2.821399,-0.03939 z m 11.106615,-1.364085 c -0.755677,-0.963562 -0.734189,-0.98505 0.229375,-0.229373 1.011978,0.793646 1.3338,1.292534 0.833786,1.292534 -0.126152,0 -0.604574,-0.478423 -1.063161,-1.063161 z m 7.672792,-0.401239 c -0.869058,-0.80542 -1.335057,-1.615852 -1.035543,-1.80096 0.299507,-0.185108 1.321005,0.473871 2.269995,1.4644 2.060248,2.150437 1.026783,2.432201 -1.234452,0.33656 z M 38.224055,30.112349 c 0.139223,-0.08709 0.936594,-0.702209 1.771935,-1.366922 l 1.518802,-1.208567 -1.15732,1.366922 c -0.636525,0.751807 -1.433896,1.366922 -1.771935,1.366922 -0.338039,0 -0.500706,-0.07126 -0.361482,-0.158355 z m 22.88328,-0.851516 c 0.417671,-0.168533 1.101132,-0.168533 1.518802,0 0.417671,0.168535 0.07594,0.306425 -0.759401,0.306425 -0.835341,0 -1.177071,-0.13789 -0.759401,-0.306425 z m 7.442129,-0.581692 C 67.379987,28.255673 65.808027,27.89377 65.05622,27.87491 c -1.399005,-0.0351 -1.981465,-1.241802 -0.60752,-1.258634 2.06218,-0.02526 -1.384795,-1.199665 -3.797005,-1.293661 -2.482845,-0.09675 -2.538845,-0.130048 -0.609947,-0.362701 1.168143,-0.140896 3.765294,0.06423 5.771449,0.455832 3.71129,0.724447 9.67704,2.976856 9.185756,3.468143 -0.148618,0.148619 -0.862807,-0.04693 -1.587081,-0.434548 -1.041157,-0.557209 -1.465437,-0.52633 -2.026477,0.147488 -0.590534,0.709246 -1.066399,0.723057 -2.835931,0.08231 z m 17.572118,-0.68664 -1.472818,-1.670682 1.670682,1.472821 c 0.918875,0.810052 1.670682,1.561859 1.670682,1.670682 0,0.476463 -0.491971,0.08868 -1.868546,-1.472821 z m -34.582698,0.488723 c 0,-0.647824 3.573162,-1.522593 4.09358,-1.002176 0.519665,0.519665 0.109558,0.746167 -2.119138,1.170402 -1.085943,0.20671 -1.974442,0.131008 -1.974442,-0.168226 z m -6.075207,-1.226749 c 0,-0.84203 2.484251,-2.053987 2.961072,-1.444578 0.220298,0.281557 0.295094,0.456594 0.166213,0.388971 -0.128881,-0.06762 -0.631388,0.274108 -1.116681,0.759401 -1.010179,1.01018 -2.010604,1.157563 -2.010604,0.296206 z m 14.732377,0.167366 c 0.584739,-0.152808 1.541584,-0.152808 2.126323,0 0.584739,0.152808 0.106316,0.277833 -1.063161,0.277833 -1.169478,0 -1.6479,-0.125025 -1.063162,-0.277833 z m 9.568452,-2.324131 c -2.171887,-0.744961 -4.181201,-1.219724 -4.465138,-1.05503 -0.283937,0.164694 -0.216113,-0.26137 0.150726,-0.94681 0.546167,-1.020529 0.47462,-1.293525 -0.395034,-1.507248 -0.584101,-0.143548 -0.105156,-0.149226 1.064322,-0.01262 3.064371,0.357953 9.720331,2.61619 9.720331,3.297919 0,0.330761 -0.586537,0.277598 -1.366921,-0.123896 -1.128075,-0.580377 -1.234227,-0.562881 -0.607521,0.100129 0.84203,0.890803 1.009717,1.823052 0.30376,1.688725 -0.250602,-0.04768 -2.232639,-0.696211 -4.404525,-1.441171 z m 6.682728,0.276974 c 0,-0.353856 0.273384,-0.474414 0.607521,-0.267907 0.334136,0.206508 0.60752,0.496027 0.60752,0.643375 0,0.147349 -0.273384,0.267907 -0.60752,0.267907 -0.334137,0 -0.607521,-0.289519 -0.607521,-0.643375 z M 42.139318,24.830533 c -0.198271,-0.32081 0.455023,-1.00501 1.451764,-1.520445 2.299532,-1.189134 2.836254,-1.187012 1.845067,0.0073 C 44.258308,24.7366 42.56234,25.515 42.139318,24.830537 Z m 15.171013,-1.445265 c 1.343075,-1.076293 4.556405,-1.36178 4.556405,-0.404813 0,0.334136 -0.797793,0.607521 -1.772874,0.607521 -0.975081,0 -2.273657,0.173471 -2.885724,0.385492 -0.977976,0.338771 -0.965591,0.267484 0.102193,-0.5882 z M 72.80211,21.956547 c -1.837751,-0.752866 -3.888133,-1.381432 -4.556406,-1.396814 -1.834542,-0.04223 -2.752901,-0.818102 -2.140733,-1.808603 1.094291,-1.770603 11.044144,2.252786 10.228353,4.136004 -0.104415,0.241042 -1.693464,-0.177722 -3.531214,-0.930587 z M 56.24717,21.363064 c 0.41767,-0.168534 1.101131,-0.168534 1.518801,0 0.417671,0.168534 0.07594,0.306425 -0.7594,0.306425 -0.835341,0 -1.177072,-0.137891 -0.759401,-0.306425 z m 0.15188,-2.027733 c 0,-0.334137 1.109672,-0.607521 2.465937,-0.607521 1.489256,0 2.317225,0.24062 2.090468,0.607521 -0.206508,0.334136 -1.316179,0.60752 -2.465937,0.60752 -1.149758,0 -2.090468,-0.273384 -2.090468,-0.60752 z m 5.923327,-1.617391 c 0.41767,-0.168534 1.101131,-0.168534 1.518802,0 0.41767,0.168534 0.07594,0.306425 -0.759401,0.306425 -0.835341,0 -1.177072,-0.137891 -0.759401,-0.306425 z"
         id="path3043" />
      <path
         style="fill:#767676;fill-opacity:1;stroke-width:0.607521"
         d="m 63.233658,90.603994 c 0.584739,-0.152803 1.541584,-0.152803 2.126323,0 0.584738,0.15281 0.106316,0.277838 -1.063162,0.277838 -1.169477,0 -1.6479,-0.125028 -1.063161,-0.277838 z m 19.136903,0.01646 c 0.41767,-0.168532 1.101131,-0.168532 1.518802,0 0.41767,0.168532 0.07594,0.306427 -0.759401,0.306427 -0.835341,0 -1.177072,-0.137895 -0.759401,-0.306427 z M 51.842644,88.062729 c -8.439815,-2.135332 -14.85096,-6.676938 -20.589336,-14.585327 -4.860621,-6.6987 -7.077812,-19.369619 -4.955939,-28.32244 0.841512,-3.550593 3.407952,-9.964684 4.571083,-11.424134 2.704887,-3.393981 6.455841,-7.507038 7.247929,-7.947618 1.540265,-0.856736 3.686019,-2.944654 3.439409,-3.346705 -0.123923,-0.202032 0.547205,-0.395391 1.491395,-0.429686 0.944191,-0.0343 2.167073,-0.512718 2.717516,-1.063162 0.550443,-0.550443 1.186316,-1.023588 1.413052,-1.051432 1.37787,-0.169212 3.357917,-0.557261 7.315448,-1.433676 3.053566,-0.676227 5.615622,-0.861335 8.073229,-0.583288 4.181365,0.473067 4.523156,1.663755 0.560778,1.953536 -1.716282,0.125516 -2.459023,-0.02865 -2.19513,-0.455641 0.256461,-0.414962 -0.481478,-0.645346 -2.067091,-0.645346 -1.356265,0 -2.465937,0.240929 -2.465937,0.535399 0,0.294469 -1.298576,0.860639 -2.885724,1.258156 -1.587148,0.397516 -4.056736,1.238789 -5.487974,1.869497 -1.431238,0.630707 -2.440294,0.884689 -2.242348,0.564406 0.197946,-0.320283 0.138729,-0.572646 -0.131593,-0.560806 -0.924372,0.04049 -3.529098,1.701724 -3.529098,2.25078 0,0.723914 -7.277487,7.448024 -8.060978,7.448024 -0.334582,0 -1.04985,0.673842 -1.589483,1.497427 -1.104744,1.686053 -1.259106,2.39119 -0.408354,1.865396 0.31504,-0.194705 -0.06453,0.814352 -0.843486,2.242349 -0.778957,1.427997 -1.750342,3.689895 -2.158635,5.026441 -0.408292,1.336545 -1.07618,2.703467 -1.484196,3.037603 -0.980385,0.802867 -1.63557,4.231995 -0.941245,4.92632 0.300909,0.300909 0.657386,3.58473 0.792171,7.29738 0.239375,6.593562 0.615844,8.452819 1.589688,7.850948 0.264407,-0.163411 0.989967,0.832151 1.612355,2.21236 0.622387,1.380208 1.892492,3.559834 2.822455,4.84361 0.929962,1.283777 1.364594,2.334138 0.965847,2.334138 -0.398746,0 0.04838,0.807231 0.993621,1.793844 0.945237,0.986614 1.884884,1.751665 2.088104,1.700104 0.20322,-0.05158 2.120527,1.054906 4.260683,2.458801 2.140156,1.403895 4.122192,2.552541 4.404525,2.552541 0.282333,0 0.513333,0.383333 0.513333,0.851847 0,0.46852 0.820153,1.137759 1.822562,1.487205 1.00241,0.34944 1.822563,0.422512 1.822563,0.162378 0,-0.260128 1.708652,-0.114913 3.797004,0.322703 2.088353,0.437621 4.412119,0.801368 5.163926,0.80833 0.751807,0.007 1.366922,0.286045 1.366922,0.620182 0,0.334136 -0.478423,0.611251 -1.063161,0.615813 -0.584739,0.0049 -1.60993,0.127409 -2.278203,0.272996 -0.668273,0.14558 -3.128732,-0.219485 -5.467687,-0.811253 z M 65.30449,87.649293 c 0.417822,-1.088829 2.722051,-0.951894 3.096138,0.184 0.163435,0.496265 -0.392367,0.759401 -1.604031,0.759401 -1.426574,0 -1.770643,-0.217541 -1.492107,-0.943401 z M 52.822166,84.594873 C 38.147859,80.648461 28.321156,66.867272 29.247987,51.533929 29.966233,39.651381 36.368169,29.990844 46.982479,24.772537 c 7.469335,-3.672145 18.876537,-4.827317 18.876537,-1.911569 0,0.840701 -0.413199,1.011912 -1.996143,0.827113 -1.097875,-0.128171 -1.996137,-0.476512 -1.996137,-0.774092 0,-0.819296 -2.719347,-0.647755 -4.659052,0.293902 -2.590788,1.257733 -9.308794,3.293362 -8.949336,2.711746 0.424637,-0.687077 -0.197963,-0.641024 -1.619569,0.119797 -0.646306,0.345892 -1.175102,1.029353 -1.175102,1.518801 0,0.489449 -0.251353,0.889906 -0.558563,0.889906 -0.307209,0 -2.084207,1.394354 -3.948884,3.098565 -1.864678,1.704209 -3.399418,2.866093 -3.410534,2.581963 -0.01112,-0.284131 -0.55642,0.12699 -1.211785,0.913602 -0.655366,0.786612 -1.057569,1.647028 -0.893785,1.912036 0.353044,0.571238 -3.23413,8.45331 -4.374005,9.610971 -0.969955,0.985088 -1.043453,3.146089 -0.107002,3.146089 0.425554,0 0.554277,0.645921 0.34112,1.711707 -0.188288,0.941439 -0.133326,3.251948 0.122137,5.134465 0.255462,1.882516 0.238651,3.283188 -0.03736,3.112604 -0.583735,-0.360769 -0.671395,1.650403 -0.133078,3.053231 0.202817,0.528536 0.749585,0.96097 1.215041,0.96097 0.465459,0 0.846286,0.357811 0.846286,0.795141 0,0.437324 0.905746,2.299278 2.012767,4.137672 1.107022,1.838388 1.920523,3.619262 1.807781,3.957487 -0.112743,0.338231 0.348434,1.115797 1.024836,1.727935 0.676403,0.612138 1.229823,0.910941 1.229823,0.664008 0,-0.246933 1.025192,0.349507 2.278203,1.325428 1.253012,0.975915 3.151835,2.279278 4.219607,2.896361 1.067772,0.617083 1.803129,1.345701 1.634125,1.619158 -0.169004,0.273451 0.41043,0.770057 1.287629,1.103568 1.96664,0.747718 2.288674,0.757888 1.85652,0.05863 -0.186185,-0.301251 0.934668,-0.164559 2.490783,0.303761 1.556115,0.468319 3.751277,0.851495 4.878137,0.851495 1.260755,0 2.183343,0.350521 2.398527,0.911281 0.433968,1.130906 2.289609,1.184665 3.376452,0.09782 1.296917,-1.296917 3.97858,-1.608691 3.897385,-0.453114 -0.03724,0.529552 -0.47773,1.14864 -0.978935,1.375755 -1.627967,0.737707 -10.545707,0.441486 -13.904736,-0.461873 z M 81.61116,82.517486 c 0.604781,-0.668272 1.236293,-1.215041 1.403361,-1.215041 0.167068,0 -0.191059,0.546769 -0.79584,1.215041 -0.604781,0.668273 -1.236293,1.215042 -1.403361,1.215042 -0.167068,0 0.191059,-0.546769 0.79584,-1.215042 z M 53.968967,80.807753 C 43.218252,77.99769 35.103891,68.956068 33.24814,57.719063 c -1.374636,-8.323735 1.437479,-17.185364 7.481538,-23.576065 3.739087,-3.953533 7.006744,-6.002655 12.100126,-7.587894 5.397589,-1.679918 13.017414,-1.494163 11.361453,0.276968 -0.397665,0.42532 -2.494797,0.684238 -5.288746,0.652963 -5.691125,-0.06371 -7.363627,0.238997 -7.363627,1.332727 0,0.464982 -0.34173,0.846592 -0.759401,0.848022 -0.41767,0.0015 -1.971465,0.806704 -3.452878,1.789497 -1.481412,0.982792 -2.880143,1.671529 -3.10829,1.530527 -0.793137,-0.490186 -3.014927,2.570559 -5.856831,8.068389 -0.56134,1.085943 -1.353316,1.974442 -1.759947,1.974442 -0.907722,0 -2.352167,3.855907 -1.545209,4.124893 0.709365,0.236455 0.108192,7.58636 -0.661601,8.088676 -0.809755,0.528395 0.09401,4.651833 1.104575,5.039622 0.46836,0.179727 0.851564,0.687628 0.851564,1.128669 0,0.441041 0.537913,1.856976 1.195362,3.146524 0.657449,1.289548 1.050238,2.579448 0.872864,2.866447 -0.177373,0.286999 0.27816,1.365354 1.012298,2.396359 1.014932,1.425341 1.458656,1.679115 1.851675,1.059012 0.358032,-0.564897 0.51974,-0.590698 0.526184,-0.08396 0.0051,0.402367 1.307879,1.729423 2.895027,2.949015 1.587148,1.219585 2.83194,2.418649 2.766206,2.66458 -0.06573,0.24593 0.822764,0.896488 1.974442,1.445686 1.151678,0.549199 2.09396,0.776776 2.09396,0.505731 0,-0.615996 7.519438,1.155814 7.796516,1.8371 0.377328,0.927781 5.580677,0.566714 5.956763,-0.413351 0.455331,-1.186567 1.434739,-1.1763 1.434739,0.01507 0,2.224777 -6.223638,2.717027 -12.757935,1.009073 z m 34.29994,0.454273 c -0.220245,-0.356365 -0.270152,-0.778234 -0.110903,-0.937483 0.159243,-0.159249 0.451424,0.132324 0.649288,0.647939 0.410793,1.070518 0.06069,1.25882 -0.538385,0.289544 z m 0.772967,-2.340965 c -0.264254,-1.01052 -0.185191,-1.247714 0.265632,-0.796891 0.35303,0.35303 0.52234,1.000477 0.376244,1.438767 -0.151668,0.455002 -0.427051,0.179613 -0.641876,-0.641876 z M 52.888869,76.459672 c -6.298206,-2.26638 -10.88443,-6.605524 -13.993694,-13.239802 -1.44744,-3.08842 -1.633028,-4.209358 -1.633028,-9.863379 0,-5.966165 0.127995,-6.640599 1.977883,-10.421916 4.130991,-8.444073 13.517392,-14.242776 22.019186,-13.602946 1.837805,0.138309 2.794856,0.507553 2.919993,1.126575 0.148667,0.735418 -0.64645,0.962758 -3.948884,1.129056 -2.274269,0.114524 -4.292157,-0.0051 -4.484195,-0.26585 -0.399733,-0.542741 -4.322663,0.957795 -4.226662,1.616715 0.07265,0.498641 -5.764383,4.622827 -6.542767,4.622827 -0.890997,0 -3.303301,2.91877 -2.922088,3.535585 0.422968,0.684376 -2.519428,7.399789 -3.24226,7.399789 -0.726412,0 -1.331477,3.714671 -0.731598,4.491497 0.700651,0.907324 1.984155,7.663429 1.580082,8.317231 -0.394952,0.639047 1.504434,4.450121 1.980578,3.973977 0.187434,-0.187432 1.147155,0.67566 2.132712,1.917985 0.985558,1.242326 2.178966,2.477397 2.652017,2.744603 0.473053,0.267206 0.860095,0.850881 0.860095,1.297051 0,0.975787 2.854252,2.958553 3.597596,2.499139 0.28912,-0.178684 1.682691,0.08334 3.096825,0.582273 1.414134,0.498938 3.220242,0.907156 4.013573,0.907156 0.829925,0 1.377927,0.322465 1.29054,0.7594 -0.223299,1.116502 5.54924,0.938644 6.26538,-0.193039 0.424389,-0.670642 0.552753,-0.55675 0.559927,0.4968 0.0089,1.309596 -0.200889,1.366004 -5.002745,1.345002 -3.344599,-0.01464 -6.078783,-0.405775 -8.218466,-1.175729 z m -23.582213,-1.384315 -1.15732,-1.366921 1.366922,1.157321 c 1.284569,1.087595 1.64349,1.576522 1.157319,1.576522 -0.115281,0 -0.730396,-0.615115 -1.366921,-1.366922 z m 58.236185,0.930977 c 0.923468,-0.139644 2.290389,-0.135908 3.037603,0.0083 0.747214,0.144201 -0.0083,0.258451 -1.679035,0.253895 -1.670682,-0.0049 -2.282036,-0.122549 -1.358568,-0.262188 z M 7.7973916,74.997862 c 0,-0.126152 0.4784226,-0.604574 1.0631613,-1.063161 0.9635619,-0.755677 0.9850499,-0.734189 0.2293724,0.229375 -0.7936462,1.011978 -1.2925337,1.3338 -1.2925337,0.833786 z M 54.758645,72.900366 c -4.618942,-1.624407 -7.790497,-4.072983 -10.466856,-8.080864 -3.600836,-5.392292 -4.49661,-10.950614 -2.725784,-16.91363 2.523717,-8.49828 9.116973,-13.907947 17.628534,-14.463947 3.861516,-0.252246 4.346032,-0.160456 4.616713,0.87464 0.258598,0.988876 0.02157,1.123672 -1.635828,0.930183 -1.066038,-0.124454 -2.941553,0.05075 -4.167811,0.389331 -1.283592,0.354417 -2.082609,0.377838 -1.883208,0.0552 0.450255,-0.728529 -0.464128,-0.711414 -2.456206,0.04597 -0.8772,0.333511 -1.446558,0.84642 -1.26524,1.139798 0.181318,0.293378 -0.775417,1.299239 -2.126077,2.235247 -1.350659,0.936008 -2.716959,2.189916 -3.036221,2.786464 -0.319263,0.59655 -0.947311,0.943866 -1.395665,0.771817 -0.807388,-0.309824 -2.090877,2.116797 -2.117366,4.003187 -0.03901,2.77838 -0.937786,7.89777 -1.386551,7.89777 -0.852486,0 -0.594753,2.695535 0.380279,3.9772 2.594118,3.40993 5.00484,7.565694 4.388793,7.565694 -1.297918,0 1.866971,2.58271 3.366616,2.74733 0.81597,0.08957 2.332021,0.601603 3.369003,1.137844 1.036981,0.536246 2.295489,0.974991 2.796683,0.974991 0.501194,0 1.156274,0.43781 1.455732,0.972915 0.423787,0.757262 1.305936,0.925588 3.979902,0.7594 1.889486,-0.117433 3.435056,-0.03773 3.4346,0.177129 -0.003,1.348575 -6.935906,1.359103 -10.754042,0.01634 z M 80.348604,58.216657 c 0,-6.849796 0.0886,-9.651985 0.196892,-6.227087 0.10829,3.424898 0.10829,9.029277 0,12.454175 -0.108291,3.424898 -0.196892,0.622708 -0.196892,-6.227088 z m 17.010581,0 c 0,-6.849796 0.0886,-9.651985 0.196891,-6.227087 0.108291,3.424898 0.108291,9.029277 0,12.454175 -0.10829,3.424898 -0.196891,0.622708 -0.196891,-6.227088 z m -11.191619,8.275915 c 0,-0.126152 0.478422,-0.604574 1.063161,-1.063161 0.963564,-0.755677 0.985052,-0.734189 0.229375,0.229375 -0.793647,1.011978 -1.292536,1.3338 -1.292536,0.833786 z M 86.697591,60.1911 c -0.755677,-0.963562 -0.734189,-0.98505 0.229375,-0.229373 1.011978,0.793646 1.3338,1.292534 0.833786,1.292534 -0.126151,0 -0.604574,-0.478423 -1.063161,-1.063161 z M 0.555105,51.179542 C 0.58425623,50.471815 0.72821214,50.327859 0.92214878,50.812498 1.0976437,51.251052 1.0760607,51.775039 0.8741866,51.976913 0.67231252,52.178787 0.5287258,51.81997 0.555105,51.179542 Z M 17.206622,49.69949 c -0.469885,-0.760291 0.766009,-4.712408 1.991098,-6.367091 0.905819,-1.223456 0.861322,-0.86492 -0.226193,1.822563 -0.202817,0.501204 -0.09171,0.911281 0.246896,0.911281 0.408824,0 0.396416,0.714343 -0.03693,2.126322 -0.661835,2.156458 -1.2813,2.629141 -1.974868,1.506925 z M 9.7068219,48.562869 c -0.952669,-0.603638 -0.689488,-1.754825 1.5777211,-6.901152 1.512733,-3.433745 2.154519,-4.078696 2.884056,-2.898279 0.492474,0.79684 -0.742079,3.112835 -2.332353,4.375442 -0.958648,0.761126 -1.270101,1.65159 -1.221811,3.493244 0.03565,1.359447 0.03151,2.467536 -0.0092,2.462419 -0.0407,-0.0051 -0.444991,-0.244369 -0.8984186,-0.531674 z m 3.6742511,-1.737225 c 0.513208,-1.868996 2.021787,-5.391214 2.608157,-6.089508 0.07675,-0.0914 0.595728,0.0089 1.153285,0.222828 0.671689,0.257751 0.821791,0.621304 0.444859,1.077462 -0.312884,0.378649 -1.052845,1.918682 -1.644357,3.422296 -1.620716,4.119835 -3.609197,5.180786 -2.561944,1.366922 z M 5.7440442,45.762482 c 0.1812244,-1.336545 1.1614347,-4.1807 2.1782451,-6.320344 1.4984025,-3.153045 1.9567095,-3.697342 2.4184627,-2.872234 0.406408,0.726211 0.123537,1.961176 -0.9868212,4.308281 -0.856097,1.80964 -1.5565392,3.71726 -1.5565392,4.239156 0,0.521896 -0.3900308,0.948902 -0.8667353,0.948902 -0.4767042,0 -1.0128446,0.478422 -1.191423,1.063161 -0.1785784,0.584739 -0.1764134,-0.03038 0.00481,-1.366922 z M 1.4885067,45.625279 C 2.2149222,42.5976 4.1144837,37.914254 5.6206197,35.437603 l 1.4760083,-2.42711 -0.2279145,2.12335 c -0.1253534,1.167842 -0.9180379,3.763655 -1.7615213,5.768473 -0.8434834,2.004819 -1.540095,3.921094 -1.5480259,4.258388 -0.00793,0.337295 -0.5680547,0.959015 -1.2447195,1.381599 -1.1477217,0.716764 -1.2031589,0.655214 -0.8259401,-0.917024 z M 77.429133,45.72744 c -0.206411,-0.537897 -0.103801,-0.780719 0.240098,-0.568178 0.885328,0.54716 0.734135,-0.198239 -0.445142,-2.194586 -0.575134,-0.973631 -1.326941,-1.670558 -1.670682,-1.548728 -0.343735,0.12183 -1.650956,-0.695705 -2.904927,-1.816744 -1.253978,-1.121038 -2.520665,-2.038252 -2.814869,-2.038252 -0.294204,0 -0.677896,-0.546768 -0.852655,-1.215041 -0.373722,-1.429126 -0.374883,-1.428821 1.818127,-0.479291 3.798657,1.644749 8.078234,6.287087 8.078234,8.762996 0,1.666712 -0.952732,2.388949 -1.448184,1.097824 z m 8.738433,0.716951 c 0,-0.126155 0.478422,-0.604578 1.063161,-1.063161 0.963564,-0.755678 0.985052,-0.73419 0.229375,0.229372 -0.793647,1.011976 -1.292536,1.333799 -1.292536,0.833789 z M 79.150258,40.750436 C 78.89474,40.165698 78.729653,39.394003 78.7834,39.035561 c 0.05377,-0.358443 -0.586598,-1.294597 -1.422983,-2.080342 -0.836386,-0.785745 -1.520704,-1.105874 -1.520704,-0.711397 0,0.394477 -1.111265,-0.08776 -2.469468,-1.071644 -1.35821,-0.983882 -2.768819,-1.888657 -3.13468,-2.010612 -0.47793,-0.15931 -0.472043,-0.554701 0.0209,-1.404419 0.380089,-0.655164 0.694366,-0.827971 0.704596,-0.387428 0.01015,0.43739 0.263598,0.643762 0.56319,0.458603 0.756102,-0.467298 7.447257,4.554959 8.781451,6.591201 1.066327,1.627399 0.999026,3.394075 -0.12928,3.394075 -0.30887,0 -0.770646,-0.478423 -1.026163,-1.063162 z m 9.003311,-1.180407 c 0.591099,-0.154033 1.411252,-0.143903 1.822562,0.02251 0.41131,0.166413 -0.07231,0.292441 -1.074722,0.280059 C 87.899,39.860216 87.56247,39.72406 88.153569,39.570026 Z m -6.824505,-2.478636 c -1.014323,-1.23055 -1.844226,-2.565309 -1.844226,-2.966131 0,-0.984934 -3.156854,-3.415449 -3.598115,-2.77025 -0.591506,0.864875 -4.902455,-1.931516 -4.351628,-2.822774 0.80474,-1.302095 5.951425,1.562708 9.898554,5.509838 3.707723,3.707722 4.071464,4.391875 2.629258,4.945301 -0.549454,0.210844 -1.594809,-0.514134 -2.733843,-1.895984 z m 9.637654,-0.246253 c -0.801781,-1.061968 -2.098134,-2.703376 -2.880772,-3.64757 -1.206664,-1.45574 -1.252841,-1.65592 -0.30376,-1.316788 0.80302,0.286941 0.616821,-0.13967 -0.659051,-1.510018 -0.978048,-1.050472 -1.90479,-1.783427 -2.059429,-1.628788 -0.154638,0.154637 -1.268108,-0.487028 -2.474377,-1.425923 -1.206263,-0.938895 -3.081709,-2.220749 -4.167653,-2.848565 -1.085943,-0.627817 -1.974442,-1.394132 -1.974442,-1.702925 0,-0.308792 -0.478423,-0.934903 -1.063161,-1.391358 -0.935965,-0.730627 -0.862789,-0.758422 0.611645,-0.232323 3.290618,1.174138 5.284799,2.486182 9.020808,5.935114 3.378909,3.119268 8.441288,9.828095 8.441288,11.186665 0,1.06349 -1.083391,0.447003 -2.491096,-1.417521 z m -4.730849,0.04165 c -0.656736,-0.704925 -1.06502,-1.61797 -0.907296,-2.02899 0.307776,-0.802052 -0.616311,-1.734173 -3.27173,-3.30017 -4.665552,-2.751449 -7.300157,-4.749981 -7.879173,-5.976911 -0.565887,-1.199102 -0.514843,-1.292468 0.4301,-0.786749 0.589703,0.315599 1.244823,0.401179 1.455827,0.190178 0.210998,-0.211002 0.383637,-0.06469 0.383637,0.325134 0,0.389826 0.385526,0.708775 0.856726,0.708775 1.422661,0 6.837366,4.642531 9.44877,8.101308 1.348841,1.786529 2.452439,3.42843 2.452439,3.64867 0,0.874708 -1.84295,0.327745 -2.9693,-0.881245 z"
         id="path3041" />
      <path
         style="fill:#606060;fill-opacity:1;stroke-width:0.607521"
         d="m 69.916386,90.57227 c 2.255421,-0.116894 5.946109,-0.116894 8.20153,0 2.255421,0.116893 0.410076,0.212528 -4.100765,0.212528 -4.510841,0 -6.356186,-0.09564 -4.100765,-0.212528 z m 1.063161,-2.005032 c 5.017216,-0.693563 12.757936,-0.67812 12.757936,0.02546 0,0.378752 -3.031207,0.57531 -8.04965,0.521981 -6.453395,-0.06858 -7.387051,-0.177134 -4.708286,-0.547437 z m 13.365456,-0.582065 c 0,-0.334137 0.273385,-0.607521 0.607521,-0.607521 0.334136,0 0.607521,0.273384 0.607521,0.607521 0,0.334136 -0.273385,0.607521 -0.607521,0.607521 -0.334136,0 -0.607521,-0.273385 -0.607521,-0.607521 z m 3.645125,-1.762758 c 0,-0.630874 1.155632,-1.544148 1.497945,-1.183803 0.11114,0.116997 -0.180433,0.565225 -0.647939,0.996073 -0.467505,0.430842 -0.850006,0.515323 -0.850006,0.18773 z M 80.396119,85.55509 c 0.206508,-0.334136 0.63272,-0.607521 0.947137,-0.607521 0.314416,0 0.571664,0.273385 0.571664,0.607521 0,0.334136 -0.426212,0.607521 -0.947137,0.607521 -0.520924,0 -0.778173,-0.273385 -0.571664,-0.607521 z m 10.631612,-6.075207 c 0,-1.00241 0.273385,-1.822563 0.607521,-1.822563 0.334136,0 0.607521,0.820153 0.607521,1.822563 0,1.002409 -0.273385,1.822562 -0.607521,1.822562 -0.334136,0 -0.607521,-0.820153 -0.607521,-1.822562 z m -5.467686,-0.303761 c 0,-0.835341 0.273384,-1.518802 0.607521,-1.518802 0.334136,0 0.60752,0.683461 0.60752,1.518802 0,0.835341 -0.273384,1.518802 -0.60752,1.518802 -0.334137,0 -0.607521,-0.683461 -0.607521,-1.518802 z m 2.478046,-0.05061 c 0.02916,-0.707731 0.173107,-0.851683 0.36704,-0.367046 0.175495,0.438551 0.153916,0.962538 -0.04793,1.164417 -0.201879,0.201873 -0.345461,-0.156947 -0.319082,-0.797371 z M 93.57625,78.56862 c 0.01239,-1.002409 0.148539,-1.338939 0.30257,-0.74784 0.154031,0.591099 0.143904,1.411252 -0.02254,1.822562 -0.166418,0.41131 -0.292442,-0.07231 -0.280061,-1.074722 z M 80.092358,42.191746 c 0,-0.126156 0.478423,-0.604578 1.063162,-1.063162 0.963564,-0.755677 0.985052,-0.734189 0.229375,0.229373 -0.793647,1.011976 -1.292537,1.333799 -1.292537,0.833789 z"
         id="path3039" />
      <path
         style="fill:#494949;fill-opacity:1;stroke-width:0.607521"
         d="m 86.977591,87.100617 c 0,-0.486509 0.23228,-0.741 0.51618,-0.565541 0.283895,0.175458 0.358893,0.573505 0.166649,0.884556 C 87.169167,88.2145 86.977591,88.125 86.977591,87.100617 Z m -3.037603,-3.037604 c 0,-0.486509 0.232279,-0.740999 0.51618,-0.565541 0.283894,0.175458 0.358892,0.573506 0.166649,0.884556 -0.491254,0.794868 -0.682829,0.705368 -0.682829,-0.319015 z m 5.631522,0.378291 c -0.172092,-0.278451 0.07313,-0.506271 0.54494,-0.506271 0.471807,0 0.717033,0.22782 0.54494,0.506271 -0.172086,0.278445 -0.417312,0.506265 -0.54494,0.506265 -0.127628,0 -0.372853,-0.22782 -0.54494,-0.506265 z M 77.662275,65.542762 c 0,-0.314416 0.270256,-0.738697 0.600565,-0.942836 0.344379,-0.212839 0.446224,0.03104 0.238762,0.571665 -0.403874,1.052481 -0.839327,1.245047 -0.839327,0.371171 z m 0.303761,-11.88251 c 0,-1.773936 0.205038,-3.098618 0.45564,-2.943737 0.250603,0.154881 0.455641,1.479563 0.455641,2.943737 0,1.464174 -0.205038,2.788855 -0.455641,2.943737 -0.250602,0.15488 -0.45564,-1.169802 -0.45564,-2.943737 z m 4.556405,-11.542894 c 0.784765,-0.835341 1.563534,-1.518802 1.730602,-1.518802 0.167068,0 -0.338316,0.683461 -1.123081,1.518802 -0.784765,0.835341 -1.563534,1.518802 -1.730602,1.518802 -0.167068,0 0.338316,-0.683461 1.123081,-1.518802 z m 12.104431,-0.15188 -1.472818,-1.670682 1.670682,1.472821 c 1.561504,1.376573 1.949285,1.868543 1.472819,1.868543 -0.10882,0 -0.860627,-0.751807 -1.670683,-1.670682 z"
         id="path3037" />
      <path
         style="fill:#333333;fill-opacity:1;stroke-width:0.607521"
         d="m 59.879574,89.971936 c -1.285061,-0.134098 -2.130098,-0.499285 -1.924633,-0.831733 0.232068,-0.375496 4.646731,-0.440367 12.047567,-0.177037 6.424702,0.228598 12.695974,0.225275 13.936155,-0.0074 4.285822,-0.803999 8.30411,-5.691187 8.30411,-10.099734 0,-2.601495 -0.980533,-1.75435 -1.375196,1.188122 -0.411456,3.067627 -2.27341,5.693386 -4.931744,6.954849 -2.171097,1.030257 -12.526203,1.451567 -12.526203,0.509649 0,-0.262097 0.791472,-0.944069 1.758834,-1.515503 1.598623,-0.944337 1.792817,-0.950394 2.131978,-0.06655 0.392416,1.022609 1.946679,0.888305 5.368509,-0.463897 2.901695,-1.146665 5.398891,-6.934697 3.498615,-8.109132 -0.362466,-0.224017 -0.607521,0.515536 -0.607521,1.833443 0,1.631394 -0.464286,2.673188 -1.775832,3.984735 -0.976705,0.976711 -2.070242,1.775831 -2.430083,1.775831 -0.89458,0 -0.863171,-0.08828 0.864551,-2.430083 1.938276,-2.627187 2.059355,-5.821761 0.242504,-6.398408 -1.508991,-0.478939 -4.140509,-5.837958 -4.171778,-8.49574 -0.01172,-0.996972 -0.03123,-3.316286 -0.04326,-5.154036 -0.01209,-1.83775 -0.159498,-3.796779 -0.327611,-4.353398 -0.168119,-0.556619 -0.02114,-1.187868 0.326566,-1.402776 0.783174,-0.484027 0.838446,-5.332116 0.06978,-6.120856 -0.345357,-0.354381 -0.282861,-1.805332 0.161923,-3.759176 1.030543,-4.526957 5.997918,-9.147643 9.393631,-8.738012 0.769498,0.09283 1.791451,-0.156861 2.27101,-0.55486 0.691012,-0.573488 0.949931,-0.520357 1.247878,0.256067 0.206745,0.538837 0.747323,0.979703 1.201257,0.979703 1.248394,0 4.475465,3.408449 5.461574,5.768547 0.655807,1.569565 0.873342,4.975052 0.873342,13.672116 0,12.73505 -0.348292,14.447013 -3.474326,17.077396 -1.469538,1.236535 -1.874596,2.128558 -2.118316,4.664981 -0.395046,4.111379 -2.64735,7.495226 -6.101974,9.167579 -2.445939,1.184058 -3.570886,1.280356 -13.861181,1.186519 -6.159568,-0.0562 -12.230123,-0.209711 -13.49013,-0.341196 z M 89.620088,79.823873 c 0.298189,-1.83755 0.198519,-2.269776 -0.47188,-2.046312 -0.467463,0.155823 -1.009092,1.262513 -1.203632,2.459323 -0.194534,1.19681 -0.842619,2.951354 -1.440189,3.898989 l -1.086496,1.722977 1.912074,-1.852683 c 1.214234,-1.176512 2.050049,-2.702908 2.290123,-4.182294 z m 4.055644,-4.534601 c 3.828699,-2.524213 4.026319,-3.364292 4.030724,-17.134653 0.0036,-12.004478 -0.05237,-12.600613 -1.375026,-14.580498 -3.62428,-5.425215 -11.235762,-5.425215 -14.860042,0 -1.322646,1.979885 -1.378866,2.57602 -1.375026,14.580498 0.0036,11.237601 0.120969,12.693627 1.149004,14.252933 1.812738,2.749547 4.241047,4.02672 7.656043,4.02672 1.956332,0 3.65581,-0.407574 4.774323,-1.145 z m -7.032684,-5.880661 c -1.242289,-2.726535 1.307208,-5.276032 4.033743,-4.033744 1.715456,0.781618 2.186248,3.521409 0.836957,4.870701 -1.349291,1.349291 -4.089082,0.878499 -4.8707,-0.836957 z m 0.419153,-9.387789 c -1.599839,-1.7678 -0.611914,-4.462879 1.735249,-4.733787 2.200057,-0.253928 3.445323,0.824107 3.445323,2.982635 0,2.86261 -3.196799,3.943204 -5.180572,1.751152 z M 86.643048,49.360427 c -1.242289,-2.726535 1.307208,-5.276035 4.033743,-4.033742 1.715456,0.781614 2.186248,3.521406 0.836957,4.870699 -1.349291,1.349292 -4.089082,0.8785 -4.8707,-0.836957 z"
         id="path3035" />
    </g>
  </g>
</svg>
