<?xml version="1.0" encoding="UTF-8" standalone="no"?>
<!-- Created with Inkscape (http://www.inkscape.org/) -->

<svg
   width="100mm"
   height="100mm"
   viewBox="0 0 100 100"
   version="1.1"
   id="svg897"
   inkscape:version="1.1.1 (3bf5ae0d25, 2021-09-20)"
   sodipodi:docname="add_list_type_device_6054.svg"
   xmlns:inkscape="http://www.inkscape.org/namespaces/inkscape"
   xmlns:sodipodi="http://sodipodi.sourceforge.net/DTD/sodipodi-0.dtd"
   xmlns="http://www.w3.org/2000/svg"
   xmlns:svg="http://www.w3.org/2000/svg">
  <sodipodi:namedview
     id="namedview899"
     pagecolor="#505050"
     bordercolor="#ffffff"
     borderopacity="1"
     inkscape:pageshadow="0"
     inkscape:pageopacity="0"
     inkscape:pagecheckerboard="1"
     inkscape:document-units="mm"
     showgrid="false"
     width="100mm"
     inkscape:zoom="0.58974467"
     inkscape:cx="378.97757"
     inkscape:cy="232.30392"
     inkscape:window-width="1440"
     inkscape:window-height="890"
     inkscape:window-x="-6"
     inkscape:window-y="-6"
     inkscape:window-maximized="1"
     inkscape:current-layer="layer1" />
  <defs
     id="defs894" />
  <g
     inkscape:label="Laag 1"
     inkscape:groupmode="layer"
     id="layer1">
    <g
       id="g913"
       transform="translate(-3.5891265,-1.3459217)">
      <path
         style="fill:#d0d0d0;fill-opacity:1;stroke-width:0.675837"
         d="m 68.368617,95.067143 c 0.487869,-0.195229 1.070776,-0.171223 1.295356,0.05332 0.224574,0.224574 -0.174595,0.384308 -0.887038,0.354963 -0.787312,-0.03244 -0.947456,-0.192573 -0.408318,-0.408314 z m 2.512282,-0.803104 c 0.1179,-0.605361 0.247309,-2.013035 0.287569,-3.128166 0.06974,-1.931454 0.120218,-1.965354 1.065464,-0.715624 1.402781,1.854639 1.25609,4.206086 -0.287569,4.609764 -0.916496,0.239672 -1.218974,0.02224 -1.065464,-0.765974 z M 11.638814,92.318588 c -0.840654,-1.071918 -0.81675,-1.095823 0.255166,-0.255169 0.650493,0.510156 1.182715,1.042377 1.182715,1.182715 0,0.556241 -0.554988,0.19823 -1.437881,-0.927546 z m 2.027511,-2.027511 c -0.840654,-1.071918 -0.816749,-1.095823 0.255166,-0.255169 0.650493,0.510155 1.182715,1.042377 1.182715,1.182715 0,0.556241 -0.554988,0.198229 -1.437881,-0.927546 z m 29.696319,0.04521 c 0.48787,-0.195229 1.07078,-0.171223 1.295355,0.05332 0.224574,0.224574 -0.174592,0.384308 -0.887036,0.354963 -0.787312,-0.03244 -0.947456,-0.192573 -0.408319,-0.408314 z M 72.127332,80.32248 c 0.0014,-4.088815 0.112838,-5.674376 0.247363,-3.52347 0.134525,2.150905 0.133275,5.496299 -0.0027,7.434208 -0.136053,1.937908 -0.24612,0.178076 -0.244593,-3.910738 z m 2.169869,-2.979759 C 74.451569,71.615035 74.57787,64.087899 74.57787,60.61575 v -6.312998 h 6.082534 6.082533 v 6.312998 c 0,3.472149 0.126301,10.999285 0.280669,16.726971 0.154361,5.727678 0.136005,9.273492 -0.04082,7.879578 l -0.321441,-2.53439 h -6.00094 -6.00094 l -0.321462,2.53439 c -0.176806,1.393914 -0.195162,-2.1519 -0.04082,-7.879578 z m -43.099624,7.586866 c 0.48787,-0.195229 1.070779,-0.171224 1.295354,0.05332 0.224575,0.224581 -0.174591,0.384308 -0.887036,0.354963 -0.787312,-0.03244 -0.947456,-0.19257 -0.408318,-0.40831 z M 30.4795,78.185294 c 0.464638,-0.187484 1.224954,-0.187484 1.689592,0 0.464638,0.187483 0.08448,0.340885 -0.844796,0.340885 -0.929276,0 -1.309434,-0.153402 -0.844796,-0.340885 z M 12.582679,74.109516 c 0.657568,-0.171352 1.569948,-0.160086 2.027512,0.02501 0.457563,0.185132 -0.08045,0.325328 -1.195578,0.311554 -1.115131,-0.01379 -1.489502,-0.165242 -0.831934,-0.336594 z m 11.161105,-2.734038 c 1.96394,-0.136959 5.005207,-0.135519 6.758371,0.0034 1.753164,0.138533 0.146304,0.25058 -3.5708,0.248823 -3.717104,-0.0018 -5.151511,-0.11525 -3.187571,-0.252202 z M 19.159228,57.681937 v -3.379185 h 6.420453 6.420452 v 3.379185 3.379186 h -6.420452 -6.420453 z m 26.947278,-8.616923 c -0.840654,-1.071915 -0.81675,-1.09582 0.255165,-0.255165 0.650494,0.510151 1.182715,1.042373 1.182715,1.182714 0,0.556237 -0.554988,0.198225 -1.43788,-0.927549 z m -26.947278,-2.19647 v -2.027512 h 6.420453 6.420452 v 2.027512 2.027511 H 25.579681 19.159228 Z M 74.335819,46.361666 C 73.800873,43.125259 73.91067,17.409348 74.482259,12.062933 l 0.433529,-4.055022 h 5.744616 5.744615 l 0.427886,4.392941 c 0.569805,5.850018 0.681352,30.758756 0.152084,33.960814 l -0.418905,2.534389 h -5.90568 -5.905681 z M 86.742937,33.68972 V 22.538408 H 80.660404 74.57787 V 33.68972 44.841032 h 6.082534 6.082533 z M 49.687641,46.802731 C 49.200762,46.023114 48.975542,45.21211 49.187152,45.0005 c 0.21161,-0.211611 0.384746,-0.01198 0.384746,0.443616 0,0.455599 0.351116,0.61136 0.780259,0.346135 0.483426,-0.298773 0.596807,-0.185393 0.298033,0.298033 -0.306532,0.49598 0.03931,0.78026 0.949219,0.78026 0.787295,0 1.274812,-0.253439 1.083371,-0.563198 -0.191442,-0.309759 0.06566,-0.563198 0.571333,-0.563198 0.722368,0 0.753576,0.265541 0.145619,1.239035 -1.02772,1.645641 -2.620753,1.569059 -3.712091,-0.178452 z m 3.743456,-3.313373 c -0.194409,-0.743421 -0.24058,-1.351674 -0.102602,-1.351674 0.137977,0 0.576395,0.608253 0.974262,1.351674 0.399648,0.746748 0.445566,1.351674 0.102602,1.351674 -0.341435,0 -0.779853,-0.608253 -0.974262,-1.351674 z M 48.90641,43.74107 c -0.01505,-1.108085 1.82776,-2.460631 2.839235,-2.083883 0.574476,0.213977 0.410932,0.504276 -0.484155,0.859394 -0.743421,0.294946 -1.575112,0.862576 -1.848203,1.261399 -0.346776,0.506435 -0.49965,0.495303 -0.506877,-0.03691 z m -1.351675,-1.965441 c 0.01848,-1.16348 1.25399,-2.653907 1.771227,-2.13667 0.276869,0.276868 -0.01072,1.017515 -0.639089,1.645883 -0.628368,0.628367 -1.13783,0.849222 -1.132138,0.490787 z M 19.159228,15.514426 c 0,-5.7814997 0.189103,-7.0965482 1.069031,-7.434208 1.929803,-0.7405348 10.11899,-0.4411011 10.96087,0.4007789 0.52044,0.5204405 0.811004,3.1839431 0.811004,7.4342081 v 6.623203 h -6.420452 -6.420453 z"
         id="path927" />
      <path
         style="fill:#b9b9b9;fill-opacity:1;stroke-width:0.675837"
         d="m 16.45588,95.263203 c 0,-0.656231 1.90407,-0.90283 2.764636,-0.358045 0.693185,0.438821 0.446528,0.605773 -0.906084,0.613309 -1.022204,0.0054 -1.858552,-0.109181 -1.858552,-0.255264 z m 53.39113,0.01048 c 0,-0.140338 0.532222,-0.672559 1.182715,-1.182715 1.071918,-0.840654 1.095823,-0.816749 0.255169,0.255169 -0.882893,1.125742 -1.437884,1.483753 -1.437884,0.927512 z m 2.134219,-6.503236 c 0,-0.929276 0.153402,-1.309434 0.340886,-0.844796 0.187484,0.464638 0.187484,1.224955 0,1.689593 -0.187484,0.464638 -0.340886,0.08448 -0.340886,-0.844797 z M 75.422666,88.32285 C 74.948648,88.131581 74.57787,86.8202 74.57787,85.33494 v -2.647031 h 6.082534 6.082533 v 2.631041 c 0,1.775715 -0.347535,2.764403 -1.069032,3.041267 -1.260517,0.48371 -9.030069,0.455386 -10.251239,-0.03737 z M 9.1534259,86.405013 c 0.013773,-1.115131 0.1652408,-1.489504 0.3365952,-0.831935 0.1713538,0.657569 0.1600849,1.56995 -0.02504,2.027512 -0.18513,0.457562 -0.325329,-0.08044 -0.3115552,-1.195577 z m 14.7900171,-0.0563 c 0.03243,-0.787316 0.192574,-0.947456 0.408319,-0.40832 0.19523,0.487866 0.171219,1.070776 -0.05336,1.295356 -0.224576,0.224574 -0.384309,-0.174595 -0.354964,-0.887036 z m -6.262608,-6.149989 c 0.48787,-0.195229 1.070779,-0.171223 1.295354,0.05332 0.224575,0.22458 -0.174591,0.384308 -0.887036,0.354963 -0.787311,-0.03244 -0.947456,-0.192573 -0.408318,-0.408314 z m 22.429343,-1.903759 c 0,-0.619519 0.326936,-1.017418 0.726525,-0.884218 0.399589,0.133194 0.726525,0.531093 0.726525,0.884218 0,0.353125 -0.326936,0.751024 -0.726525,0.884218 -0.399589,0.133201 -0.726525,-0.264698 -0.726525,-0.884218 z m 0,-6.737163 c 0,-0.602901 0.396444,-0.84041 1.009874,-0.605016 0.555431,0.213139 0.841609,0.659786 0.635951,0.992541 -0.589746,0.954235 -1.645825,0.705567 -1.645825,-0.387525 z M 23.345753,64.612206 c 3.975285,-0.119277 10.666072,-0.119695 14.868416,-9.46e-4 4.202343,0.118784 0.949837,0.216374 -7.227791,0.216885 -8.177629,5.11e-4 -11.615911,-0.09666 -7.640625,-0.215939 z m -3.00381,-2.694261 c 1.57977,-0.142287 4.164846,-0.142287 5.744616,0 1.579769,0.142288 0.28723,0.258705 -2.872308,0.258705 -3.159538,0 -4.452077,-0.116417 -2.872308,-0.258705 z m 18.923439,0.01789 c 0.836348,-0.161088 2.204918,-0.161088 3.041267,0 0.836348,0.161088 0.152063,0.292887 -1.520634,0.292887 -1.672696,0 -2.356982,-0.131799 -1.520633,-0.292887 z M 48.9327,46.574773 c -0.901975,-1.086814 -0.712349,-5.450845 0.236852,-5.450845 0.336276,0 0.689736,0.53367 0.785468,1.185934 0.09573,0.652264 -0.103371,1.014474 -0.442451,0.804911 -0.919824,-0.568483 -0.745285,2.678823 0.194496,3.618603 0.446052,0.446053 0.635354,0.811005 0.420671,0.811005 -0.214683,0 -0.752449,-0.436323 -1.195036,-0.969608 z m 4.945842,-0.317596 c 1.26533,-1.985306 0.372944,-4.27163 -1.444646,-3.701235 -0.956274,0.300097 -0.923227,0.164624 0.179268,-0.734873 1.204863,-0.983017 1.375409,-0.98901 1.570189,-0.05517 0.120183,0.576193 0.500341,1.047624 0.844796,1.047624 1.087785,0 0.680026,1.816774 -0.779546,3.473273 l -1.405828,1.595502 z M 19.159228,33.68972 V 22.538408 h 6.420453 6.420452 V 33.68972 44.841032 h -6.420452 -6.420453 z m 55.418642,0 V 22.538408 h 6.082534 6.082533 V 33.68972 44.841032 H 80.660404 74.57787 Z"
         id="path925" />
      <path
         style="fill:#a3a3a3;fill-opacity:1;stroke-width:0.675837"
         d="M 9.9572638,97.284679 C 7.1631918,96.039463 6.3020598,93.35124 6.3856912,86.135206 6.504358,75.896172 7.4226688,74.857742 16.973535,74.162387 c 5.191291,-0.377949 6.709473,-0.254264 8.877168,0.723227 3.651778,1.646724 4.209364,3.344596 4.075227,12.40922 -0.106645,7.206829 -0.230226,7.879321 -1.69789,9.239511 -1.401957,1.29929 -2.416225,1.47963 -8.873987,1.577856 -4.974578,0.07567 -7.960131,-0.187254 -9.3967892,-0.827522 z M 22.17084,94.191495 c 8.658671,-4.191589 5.607674,-16.910282 -4.056488,-16.910282 -3.439543,0 -6.174599,1.833012 -7.826408,5.245192 -2.2973607,4.745714 -0.3873113,9.948213 4.421023,12.041768 2.865703,1.247723 4.250731,1.177808 7.461873,-0.376678 z m -5.039123,-0.380301 c 0,-0.592073 -1.064443,-2.080395 -2.36543,-3.307384 -2.571924,-2.425633 -2.90427,-4.137671 -1.37667,-7.091728 2.580344,-4.989833 10.504381,-2.881438 10.497945,2.793255 -0.0032,2.881101 -2.094396,6.271823 -4.698446,7.618428 -1.876829,0.970549 -2.057399,0.969441 -2.057399,-0.01257 z m 51.19466,0.59419 c 0.464638,-0.187484 1.224954,-0.187484 1.689592,0 0.464638,0.187484 0.08448,0.340885 -0.844796,0.340885 -0.929276,0 -1.309434,-0.153401 -0.844796,-0.340885 z M 32.549251,90.336283 c 0.48787,-0.195229 1.070779,-0.171223 1.295354,0.05332 0.224575,0.224574 -0.174591,0.384308 -0.887036,0.354963 -0.787311,-0.03244 -0.947456,-0.192573 -0.408318,-0.408314 z m 16.260603,-43.29878 c -0.840654,-1.071916 -0.81675,-1.09582 0.255166,-0.255166 0.650493,0.510152 1.182715,1.042374 1.182715,1.182715 0,0.556237 -0.554988,0.198225 -1.437881,-0.927549 z m 4.141229,0.927549 c 0,-0.140341 0.532222,-0.672563 1.182715,-1.182715 1.071915,-0.840654 1.09582,-0.81675 0.255166,0.255166 -0.882893,1.125774 -1.437881,1.483786 -1.437881,0.927549 z"
         id="path923" />
      <path
         style="fill:#767676;fill-opacity:1;stroke-width:0.675837"
         d="m 45.753022,71.198679 c 0,-3.159538 0.116417,-4.452077 0.258704,-2.872308 0.142288,1.579769 0.142288,4.164846 0,5.744616 -0.142287,1.579769 -0.258704,0.28723 -0.258704,-2.872308 z M 15.320524,69.847005 c 0,-2.416118 0.122661,-3.40453 0.27258,-2.196471 0.149918,1.208059 0.149918,3.184882 0,4.392941 -0.149919,1.208059 -0.27258,0.219647 -0.27258,-2.19647 z"
         id="path921" />
      <path
         style="fill:#606060;fill-opacity:1;stroke-width:0.675837"
         d="m 56.711639,48.697948 c 0.253797,-0.666525 0.631699,-1.041614 0.839781,-0.833532 0.208081,0.208081 4.28e-4,0.753419 -0.461451,1.211862 -0.667468,0.662501 -0.745097,0.584872 -0.37833,-0.37833 z M 50.416694,37.59859 c 1.022203,-0.154851 2.6949,-0.154851 3.717104,0 1.022203,0.154851 0.185855,0.281547 -1.858552,0.281547 -2.044407,0 -2.880756,-0.126696 -1.858552,-0.281547 z"
         id="path919" />
      <path
         style="fill:#494949;fill-opacity:1;stroke-width:0.675837"
         d="m 42.57817,96.373611 c -0.17332,-0.278783 3.230156,-0.427265 7.563282,-0.329958 14.53584,0.326416 16.075822,0.575415 4.37015,0.706615 -6.390067,0.07162 -11.760111,-0.09788 -11.933432,-0.376657 z m -3.637844,-1.313145 c 0.657567,-0.171352 1.569947,-0.160086 2.027511,0.02507 0.457563,0.185132 -0.08045,0.325328 -1.195577,0.311554 -1.115131,-0.01379 -1.489502,-0.165242 -0.831934,-0.336593 z m 29.110857,-5.952104 c 0.0024,-2.973683 0.121273,-4.106123 0.26404,-2.516527 0.142768,1.589596 0.140759,4.022609 -0.0045,5.406697 -0.145225,1.384087 -0.262035,0.08351 -0.25958,-2.89017 z m -38.068212,1.182715 c 0.0066,-0.750592 0.191763,-0.902621 0.506878,-0.4161 0.273091,0.421635 1.104782,0.918578 1.848203,1.104318 1.036016,0.258839 0.917645,0.356011 -0.506878,0.4161 -1.352885,0.05704 -1.855737,-0.24339 -1.848203,-1.104318 z m 0.84731,-6.044005 c 0.657567,-0.171351 1.569947,-0.160085 2.027511,0.02501 0.457563,0.185132 -0.08045,0.325328 -1.195577,0.311554 -1.115132,-0.01379 -1.489502,-0.165242 -0.831934,-0.336593 z m 17.700071,-4.307474 c -0.245013,-0.39644 -0.300533,-0.865748 -0.123377,-1.042905 0.177156,-0.177157 0.502191,0.147204 0.722301,0.720801 0.45699,1.190899 0.06748,1.400375 -0.598924,0.322104 z m 4.082812,-0.415309 c 0.743421,-0.204562 1.602923,-0.716908 1.910005,-1.138542 0.368908,-0.506533 0.465593,-0.422682 0.284981,0.24714 -0.150341,0.557565 -1.009843,1.069911 -1.910004,1.138542 -1.290506,0.0984 -1.350779,0.04616 -0.284982,-0.24714 z M 30.141581,77.491175 c 0.650493,-0.169987 1.714937,-0.169987 2.36543,0 0.650493,0.169993 0.118271,0.309081 -1.182715,0.309081 -1.300986,0 -1.833208,-0.139088 -1.182715,-0.309081 z m 24.388397,-4.940822 c 0,-2.787828 0.119297,-3.928303 0.265105,-2.534389 0.145808,1.393914 0.145808,3.674864 0,5.068778 -0.145808,1.393914 -0.265105,0.253439 -0.265105,-2.534389 z M 20.170034,71.869745 c -0.695313,-1.125039 1.149425,-1.414649 7.490646,-1.175957 l 6.029046,0.226939 -6.758371,0.269862 -6.758371,0.269862 6.758371,0.414065 6.758371,0.414065 -6.549526,0.130883 c -3.815335,0.07625 -6.725128,-0.15324 -6.970166,-0.549719 z m 28.832738,-0.671066 c 0,-0.929276 0.153396,-1.309434 0.340882,-0.844796 0.187486,0.464638 0.187486,1.224954 0,1.689592 -0.187486,0.464638 -0.340882,0.08448 -0.340882,-0.844796 z M 49.15865,59.37153 c 0.0011,-4.832235 0.108831,-6.720379 0.239218,-4.195875 0.130388,2.524504 0.129421,6.478151 -0.0022,8.785882 -0.131556,2.307731 -0.238237,0.242228 -0.237055,-4.590007 z m 5.197462,2.647029 c 0.03243,-0.787312 0.192574,-0.947456 0.408319,-0.408319 0.19523,0.48787 0.171219,1.07078 -0.05336,1.295355 -0.224576,0.224574 -0.384309,-0.174592 -0.354964,-0.887036 z M 53.680275,51.881002 c 0.03243,-0.787311 0.192574,-0.947456 0.408319,-0.408318 0.19523,0.48787 0.171219,1.070779 -0.05336,1.295354 -0.224575,0.224575 -0.384308,-0.174591 -0.354963,-0.887036 z m -2.925663,-3.432541 c 0.464638,-0.187485 1.224955,-0.187485 1.689593,0 0.464638,0.187486 0.08448,0.340883 -0.844796,0.340883 -0.929276,0 -1.309435,-0.153397 -0.844797,-0.340883 z m -5.044438,-3.945347 c 0.0051,-1.858552 0.136325,-2.538656 0.291669,-1.511341 0.155344,1.027314 0.151193,2.547948 -0.0092,3.379186 -0.160418,0.831237 -0.287518,-0.0093 -0.282444,-1.867845 z m 11.377619,1.013755 c -0.07767,-1.794405 -0.260538,-2.120705 -0.757525,-1.351674 -0.393648,0.609127 -0.659269,0.692485 -0.665488,0.208845 -0.0163,-1.267856 1.309076,-1.75511 1.737463,-0.63875 0.212625,0.554092 0.251894,1.713844 0.08726,2.577225 -0.213229,1.118249 -0.328778,0.889388 -0.401714,-0.795646 z m -7.766989,-6.27339 c -1.021682,-0.747073 -0.806831,-0.830605 1.556656,-0.60521 1.508062,0.143817 2.573613,0.53383 2.367891,0.866694 -0.54163,0.876377 -2.551574,0.742457 -3.924547,-0.261484 z m 6.643756,0.145893 c -0.245013,-0.396441 -0.300533,-0.865748 -0.123377,-1.042904 0.177156,-0.177156 0.502191,0.147204 0.722301,0.720802 0.45699,1.190897 0.06748,1.400373 -0.598924,0.322102 z"
         id="path917" />
      <path
         style="fill:#333333;fill-opacity:1;stroke-width:0.675837"
         d="m 45.009997,95.712324 2.534389,-0.265104 v -7.055496 -7.055489 h 10.137557 10.137556 v 6.365176 c 0,3.50085 -0.184602,6.846243 -0.410226,7.434208 -0.355496,0.92641 -2.046082,1.053873 -12.671945,0.955424 -6.743946,-0.06249 -11.121245,-0.232907 -9.727331,-0.378719 z M 30.41617,93.361857 c -0.214465,-0.820114 -0.297083,-1.583972 -0.183595,-1.697459 0.113487,-0.113487 2.458406,-0.46747 5.210931,-0.786634 l 5.004591,-0.580287 -4.055023,-0.165634 c -2.230262,-0.0911 -4.511212,-0.20659 -5.068778,-0.256643 -0.655615,-0.05887 -1.013756,-0.80728 -1.013756,-2.118512 0,-1.588055 0.329591,-2.07432 1.520634,-2.243475 2.090674,-0.296923 1.923182,-1.473629 -0.209756,-1.473629 -1.586294,0 -1.712923,-0.211051 -1.520634,-2.534389 0.168488,-2.03577 0.50893,-2.576879 1.73039,-2.750353 2.412657,-0.34265 1.764296,-1.473629 -0.844796,-1.473629 -1.300987,0 -2.36543,-0.247796 -2.36543,-0.550666 0,-1.238025 -4.953248,-2.82852 -8.808812,-2.82852 h -4.032093 v -4.392941 -4.392941 h 14.868416 14.868416 v 12.458097 12.458097 l -1.858552,0.281547 -1.858552,0.281547 1.858552,0.101261 c 1.474846,0.08036 1.858552,0.431116 1.858552,1.698993 0,1.388413 -0.410791,1.654031 -3.135594,2.027512 -1.724577,0.236374 -5.0345,0.429778 -7.355385,0.429778 -3.782949,0 -4.260156,-0.154361 -4.609726,-1.49112 z m 11.456001,-8.328076 c 0.08501,-0.579186 -0.393352,-0.994197 -1.145956,-0.994197 -1.430313,0 -1.781282,1.740084 -0.447077,2.216583 1.027964,0.367128 1.401849,0.08024 1.593033,-1.222386 z m 0.55611,-6.324315 c 0.2037,-0.329592 -0.01665,-0.92045 -0.489659,-1.313016 -1.04308,-0.86568 -2.872467,0.09393 -2.213061,1.160878 0.555973,0.89958 2.18413,0.99123 2.70272,0.152138 z m -9.068948,-7.172869 c 6.76e-4,-0.715556 -11.041239,-1.333169 -12.668819,-0.708608 -0.517616,0.198629 -0.745209,0.678135 -0.505762,1.065565 0.565856,0.915577 13.173682,0.573975 13.174581,-0.356957 z m 8.778357,0 c 0,-0.563195 -0.600745,-1.013755 -1.351675,-1.013755 -0.75093,0 -1.351674,0.45056 -1.351674,1.013755 0,0.563196 0.600744,1.013756 1.351674,1.013756 0.75093,0 1.351675,-0.45056 1.351675,-1.013756 z m 7.229544,-6.012964 0.36946,-14.460928 -1.771991,-1.161053 c -1.628093,-1.066767 -1.771991,-1.53892 -1.771991,-5.814185 0,-5.198394 0.98053,-6.426388 1.195081,-1.496692 0.146571,3.367742 2.108701,6.30528 4.211616,6.30528 1.161126,0 3.328858,-2.062083 4.618009,-4.392941 0.645145,-1.166457 0.750401,-0.969384 0.768136,1.4382 0.01581,2.146552 -0.325573,3.019693 -1.480475,3.786519 -1.482893,0.984604 -1.498577,1.168154 -1.298308,15.193615 l 0.202717,14.196974 -2.165356,0.433069 c -1.190946,0.238186 -2.408582,0.43307 -2.705857,0.43307 -0.297275,0 -0.374244,-6.507419 -0.171041,-14.460928 z M 16.45588,63.426552 c 0,-0.868933 2.027511,-1.013755 14.192579,-1.013755 12.165068,0 14.192579,0.144822 14.192579,1.013755 0,0.868934 -2.027511,1.013756 -14.192579,1.013756 -12.165068,0 -14.192579,-0.144822 -14.192579,-1.013756 z m 34.083074,-18.66108 c -0.509477,-0.824351 1.008389,-2.063901 1.872983,-1.529553 0.29653,0.183266 0.539146,0.771452 0.539146,1.307081 0,1.146841 -1.741565,1.307467 -2.412129,0.222472 z m 4.019379,-2.936584 c -0.259231,-0.675546 -0.969379,-0.866326 -2.262253,-0.607751 -1.051137,0.210228 -2.087722,0.04792 -2.344184,-0.367041 -0.287736,-0.465566 0.172433,-0.743923 1.229822,-0.743923 2.753241,0 2.692327,-1.245558 -0.07504,-1.534342 -2.190438,-0.22858 -2.066028,-0.281912 0.885402,-0.379559 2.994418,-0.09907 3.545265,0.0944 4.303696,1.511539 0.869878,1.625384 0.535061,3.10571 -0.702446,3.10571 -0.361439,0 -0.827189,-0.443085 -1.035001,-0.984633 z"
         id="path915" />
    </g>
  </g>
</svg>
