<?xml version="1.0" encoding="UTF-8" standalone="no"?>
<!-- Created with Inkscape (http://www.inkscape.org/) -->

<svg
   version="1.1"
   id="svg2213"
   width="216"
   height="216"
   viewBox="0 0 216 216"
   sodipodi:docname="add_list_type_device_7132.svg"
   inkscape:version="1.1.1 (3bf5ae0d25, 2021-09-20)"
   xmlns:inkscape="http://www.inkscape.org/namespaces/inkscape"
   xmlns:sodipodi="http://sodipodi.sourceforge.net/DTD/sodipodi-0.dtd"
   xmlns="http://www.w3.org/2000/svg"
   xmlns:svg="http://www.w3.org/2000/svg">
  <defs
     id="defs2217" />
  <sodipodi:namedview
     id="namedview2215"
     pagecolor="#505050"
     bordercolor="#ffffff"
     borderopacity="1"
     inkscape:pageshadow="0"
     inkscape:pageopacity="0"
     inkscape:pagecheckerboard="1"
     showgrid="false"
     inkscape:zoom="3.0648148"
     inkscape:cx="107.83686"
     inkscape:cy="108"
     inkscape:window-width="1440"
     inkscape:window-height="890"
     inkscape:window-x="-6"
     inkscape:window-y="-6"
     inkscape:window-maximized="1"
     inkscape:current-layer="g2219" />
  <g
     inkscape:groupmode="layer"
     inkscape:label="Image"
     id="g2219">
    <g
       id="g2223"
       transform="translate(13.703928,-3.2628404)">
      <path
         style="fill:#d0d0d0;fill-opacity:1"
         d="m 96.75,206.33772 c 0.6875,-0.27741 1.8125,-0.27741 2.5,0 0.6875,0.27741 0.125,0.50439 -1.25,0.50439 -1.375,0 -1.9375,-0.22698 -1.25,-0.50439 z M 114,206.05831 c 0,-0.46438 0.675,-1.10335 1.5,-1.41994 2.33737,-0.89693 1.79376,-3.62245 -0.75,-3.76031 -1.2375,-0.0671 0.45,-0.50633 3.75,-0.97614 7.79624,-1.10992 10.5,-2.37258 10.5,-4.90353 0,-1.87397 0.18766,-1.92615 2.25,-0.62557 4.48485,2.82831 6.68685,2.95615 7.69314,0.44664 0.61088,-1.52341 0.95184,-1.76088 0.99347,-0.6919 0.0983,2.52445 -2.75555,4.28202 -7.29714,4.49398 -5.71464,0.2667 -8.12532,1.47762 -8.21887,4.12846 -0.0696,1.97121 0.41574,2.25 3.91667,2.25 6.63319,0 3.71415,0.68589 -5.58727,1.31285 -4.8125,0.32439 -8.75,0.20984 -8.75,-0.25454 z m -36.156997,-2.08636 c -1.018494,-0.59452 -1.456729,-1.73306 -1.137276,-2.95465 0.285846,-1.09308 0.173302,-2.78164 -0.250097,-3.75236 -0.639908,-1.4671 -0.905934,-1.25868 -1.576423,1.23506 -0.666825,2.48011 -0.739542,2.23965 -0.41961,-1.38758 0.213484,-2.42037 1.157086,-5.11053 2.104567,-6 0.944663,-0.88683 1.448528,-1.1242 1.119699,-0.52748 -0.414167,0.75158 0.799638,0.87285 3.95037,0.39469 l 4.548241,-0.69025 -0.360322,3.77834 c -0.198178,2.07808 -0.126734,3.75968 0.158763,3.73689 1.90546,-0.15216 3.242383,0.30543 2.643154,0.90465 -0.390096,0.3901 -2.546822,0.57659 -4.792725,0.41443 -4.042366,-0.29186 -4.078903,-0.26378 -3.630595,2.79074 0.486284,3.31327 0.20862,3.55558 -2.357746,2.05752 z m 35.863107,-17.41333 c 0.54898,-5.31918 0.50806,-5.43045 -1.82226,-4.95458 -1.33473,0.27257 -0.49678,-0.47006 1.90401,-1.68742 2.35832,-1.19583 4.08764,-2.37445 3.84293,-2.61916 -0.24471,-0.24471 -1.90234,0.30873 -3.68363,1.22986 -3.10431,1.60531 -3.2072,1.59799 -2.47948,-0.17626 0.41758,-1.01808 0.98433,-2.6335 1.25946,-3.58981 0.27513,-0.95632 0.86305,-1.51453 1.30648,-1.24047 0.44342,0.27405 1.79021,-0.74351 2.99286,-2.26125 1.89712,-2.39416 2.124,-3.65324 1.71359,-9.50953 -0.26016,-3.7125 -0.34002,-6.75 -0.17745,-6.75 0.16257,0 0.80356,2.44692 1.42443,5.43761 0.94227,4.53892 0.87136,5.93552 -0.42911,8.45034 -1.68546,3.25932 -2.07308,7.11205 -0.71554,7.11205 1.34101,0 1.42164,12.97693 0.0906,14.58073 -0.64784,0.7806 -2.21528,1.41927 -3.48319,1.41927 -2.19344,0 -2.27805,-0.26405 -1.7437,-5.44138 z M 87.162297,126.66637 C 86.864869,70.005884 87.003439,62.333333 88.32418,62.333333 c 1.168037,0 1.298642,0.52852 0.590726,2.390482 -0.592884,1.559403 -0.562249,2.176265 0.08812,1.774317 0.624898,-0.386209 1.032396,2.111612 1.091882,6.692851 0.09663,7.442094 0.494403,24.354915 1.368837,58.201597 0.268451,10.39093 0.72393,19.12843 1.012175,19.41667 C 92.764163,151.0975 93,139.35569 93,124.71636 93,100.46217 93.155347,97.999497 94.75,96.974185 96.416667,95.90257 96.416667,95.8749 94.75,96.39311 93.420367,96.806527 93,96.364263 93,94.551949 c 0,-1.311905 0.5625,-2.612256 1.25,-2.889668 1,-0.403509 1,-0.520176 0,-0.583334 C 93.5625,91.035526 93,89.913918 93,88.586483 c 0,-2.144531 0.306486,-2.33156 2.75,-1.678147 l 2.75,0.735369 0.171199,18.928145 c 0.09416,10.41048 0.213551,24.32815 0.265313,30.92815 0.0605,7.71369 0.422267,11.48127 1.012818,10.54775 0.50529,-0.79874 0.70002,-1.80609 0.43275,-2.23855 -0.26728,-0.43246 0.23828,-0.50838 1.12345,-0.1687 0.91473,0.35101 1.36389,1.2574 1.0406,2.09988 -0.42538,1.10853 -0.12467,1.28988 1.19253,0.7192 0.96874,-0.4197 2.88634,-0.84408 4.26134,-0.94305 1.90584,-0.13719 2.5752,-0.81411 2.81642,-2.84825 0.19761,-1.66633 0.92651,-2.66828 1.94113,-2.66828 1.35211,0 1.29949,-0.2378 -0.31359,-1.41732 -1.49495,-1.09313 -2.26767,-1.15031 -3.37836,-0.25 -1.17214,0.95015 -1.31804,0.84174 -0.78422,-0.58268 0.45112,-1.20371 0.164,-1.75 -0.91975,-1.75 -0.9897,0 -1.36156,0.5578 -1,1.5 0.31658,0.825 0.16628,1.5 -0.334,1.5 -1.49093,0 -2.08238,-1.69066 -1.27957,-3.65765 0.86313,-2.11478 5.25194,-2.67613 5.25194,-0.67175 0,0.73117 0.49814,1.3294 1.10699,1.3294 0.60884,0 0.83667,-0.70443 0.50629,-1.56539 -0.47397,-1.23515 -0.12735,-1.42429 1.64301,-0.89657 2.20803,0.65818 2.21191,0.64383 0.24371,-0.90281 -1.72961,-1.35914 -1.77138,-1.57592 -0.30902,-1.60343 2.46496,-0.0464 2.6786,0.71394 2.88951,10.28296 0.10528,4.77688 0.58024,8.68524 1.05547,8.68524 0.47522,0 0.86404,0.47656 0.86404,1.05902 0,0.58246 -0.45,0.7809 -1,0.44098 -0.55515,-0.3431 -1.00681,0.40913 -1.01531,1.69098 -0.008,1.26996 -0.43259,2.96877 -0.94259,3.77514 -0.74865,1.1837 -1.1162,0.96919 -1.90808,-1.11362 -0.53945,-1.41885 -1.71881,-2.86293 -2.6208,-3.20905 -0.90199,-0.34613 -1.37912,-1.05141 -1.06029,-1.56729 0.31883,-0.51588 0.0227,-1.28221 -0.65809,-1.70296 C 107.09703,150.3239 99,150.24909 99,151.2827 c 0,0.45944 0.422343,0.57431 0.93854,0.25528 0.5162,-0.31902 1.37265,0.19566 1.90322,1.14375 0.76688,1.37033 1.25971,1.47895 2.40347,0.52971 1.6366,-1.35825 2.85715,-0.64182 2.1309,1.25077 -0.30057,0.78327 -1.99164,1.18174 -4.4311,1.04409 C 99.775262,155.38388 98,155.66987 98,156.14185 98,156.61383 98.932996,157 100.07332,157 c 1.44049,0 1.96712,0.53415 1.72535,1.75 -0.23156,1.16456 -1.09244,1.64534 -2.57332,1.43714 -1.223943,-0.17207 -2.22535,0.16543 -2.22535,0.75 0,0.58457 0.45,1.11911 1,1.18786 0.55,0.0687 1.556337,0.18125 2.2363,0.25 1.87827,0.18991 2.19764,3.625 0.33702,3.625 C 99.707996,166 99,165.52344 99,164.94098 c 0,-0.58246 -0.45,-0.7809 -1,-0.44098 -1.842167,1.13852 -1.026346,2.3353 2.05297,3.01163 1.68131,0.36928 2.86972,1.19123 2.64511,1.82946 -0.62113,1.7649 -5.984295,0.83064 -7.846648,-1.36687 -1.408235,-1.66168 -1.734576,-1.72113 -2.238545,-0.4078 -0.324488,0.8456 -0.257633,1.33227 0.148567,1.08148 0.4062,-0.25079 0.806944,0.68209 0.890542,2.07307 l 0.151997,2.52906 -1.80446,-2.75074 c -1.586146,-2.41794 -1.856045,-2.52381 -2.230834,-0.87502 -0.234506,1.03165 -0.212961,6.26323 0.04788,11.62573 0.384356,7.90188 0.209749,9.74994 -0.921163,9.74971 -1.17592,-2.5e-4 -1.448532,-10.11961 -1.733116,-64.33334 z M 115,144 c 0,-0.55 -0.675,-1 -1.5,-1 -0.825,0 -1.5,0.45 -1.5,1 0,0.55 0.675,1 1.5,1 0.825,0 1.5,-0.45 1.5,-1 z m 13.56429,45.70687 c 0.37553,-0.98622 0.93469,-1.54122 1.24258,-1.23333 0.30789,0.30789 6.4e-4,1.11479 -0.68278,1.79313 -0.98762,0.98026 -1.10248,0.8654 -0.5598,-0.5598 z m -45.342843,-1.33211 c 1.493388,-0.44279 1.764578,-2.2568 2.047007,-13.69259 L 85.594013,161.5 l -0.04701,13.48765 c -0.04438,12.73514 -0.158593,13.49909 -2.047007,13.69259 -1.501008,0.1538 -1.570505,0.0776 -0.278553,-0.30548 z M 128.6351,150.25 c -0.34035,-14.7125 -0.90482,-51.813716 -1.25438,-82.447147 l -0.63557,-55.697147 -2.12257,-0.457528 C 123.45516,11.396538 124.075,11.260255 126,11.345326 L 129.5,11.5 v 82.74993 c 0,45.51246 -0.0554,82.74996 -0.12304,82.75 -0.0677,4e-5 -0.40151,-12.03743 -0.74186,-26.74993 z M 103.5,174 c 0.33992,-0.55 1.29303,-1 2.11803,-1 0.825,0 1.22189,0.45 0.88197,1 -0.33992,0.55 -1.29303,1 -2.11803,1 -0.825,0 -1.22189,-0.45 -0.88197,-1 z m -4,-1 c -0.339919,-0.55 -0.168034,-1 0.381966,-1 0.550004,0 1.278114,0.45 1.618034,1 0.33992,0.55 0.16803,1 -0.38197,1 -0.55,0 -1.278111,-0.45 -1.61803,-1 z m 4.5,-3.5 c 0,-0.91667 0.48375,-1.50542 1.075,-1.30833 0.59125,0.19708 1.075,0.78583 1.075,1.30833 0,0.5225 -0.48375,1.11125 -1.075,1.30833 C 104.48375,171.00542 104,170.41667 104,169.5 Z m -0.30615,-4.13948 C 102.76822,164.43489 103.88293,163 105.52763,163 c 0.84214,0 1.17788,0.60386 0.834,1.5 -0.61037,1.59059 -1.61398,1.91432 -2.66778,0.86052 z m 4.84886,-0.29142 c -0.31644,-0.512 -0.19299,-1.1672 0.27431,-1.45601 0.46731,-0.28881 0.84965,0.13009 0.84965,0.9309 0,1.68617 -0.31534,1.83349 -1.12396,0.52511 z M 104,159.5 c 0,-0.825 0.45,-1.5 1,-1.5 0.55,0 1,0.675 1,1.5 0,0.825 -0.45,1.5 -1,1.5 -0.55,0 -1,-0.675 -1,-1.5 z m 4.5,-0.5 c 0.33992,-0.55 0.81648,-1 1.05902,-1 0.24254,0 0.44098,0.45 0.44098,1 0,0.55 -0.47656,1 -1.05902,1 -0.58246,0 -0.7809,-0.45 -0.44098,-1 z M 105,145.48199 c 0,-0.80943 2.86585,-1.18293 3.94745,-0.51447 0.80953,0.50032 0.32608,0.78248 -1.34069,0.78248 -1.43372,0 -2.60676,-0.12061 -2.60676,-0.26801 z m -3.37646,-7.02065 c -0.96498,-2.51469 -0.68031,-3.16355 0.49853,-1.13634 0.58369,1.00375 0.8506,2.03566 0.59313,2.29313 -0.25747,0.25747 -0.74872,-0.26309 -1.09166,-1.15679 z M 105.5,134 c -0.35191,-0.5694 0.50929,-1 2,-1 1.49071,0 2.35191,0.4306 2,1 -0.33992,0.55 -1.23992,1 -2,1 -0.76008,0 -1.66008,-0.45 -2,-1 z m 7.86163,-3.5 c 0.37311,-0.97233 -0.029,-1.50539 -1.14301,-1.51531 -1.4752,-0.0131 -1.50616,-0.15261 -0.21862,-0.98469 0.825,-0.53316 1.0125,-0.97627 0.41667,-0.98469 -0.59584,-0.008 -1.08334,-1.36531 -1.08334,-3.01531 0,-2.24242 0.46297,-3 1.83334,-3 2.60134,0 2.27896,-1.77507 -0.41667,-2.29427 -2.02018,-0.3891 -1.98206,-0.44728 0.37318,-0.56955 2.45017,-0.1272 2.62913,0.16061 2.7135,4.36382 0.0583,2.90314 -0.3403,4.50543 -1.12318,4.51531 -0.81827,0.0103 -0.75892,0.30315 0.18222,0.89908 1.55124,0.98224 0.81344,4.08561 -0.97132,4.08561 -0.62611,0 -0.87936,-0.675 -0.56277,-1.5 z m 1.30504,-7 c 0,-0.825 -0.58588,-1.5 -1.30195,-1.5 -0.74645,0 -1.05636,0.64001 -0.72635,1.5 0.31659,0.825 0.90246,1.5 1.30195,1.5 0.39949,0 0.72635,-0.675 0.72635,-1.5 z m -10.06201,4.83004 c 0.60756,-0.2199 0.8926,-1.50911 0.63342,-2.86493 C 104.8507,123.43864 105.16525,123 107.00587,123 c 1.89182,0 2.04303,-0.23615 0.97513,-1.52289 -1.05801,-1.27482 -0.99393,-1.4193 0.3934,-0.88694 1.20161,0.46111 1.58419,1.64158 1.39144,4.29347 -0.24084,3.31362 -0.54791,3.66638 -3.26584,3.75186 -1.65,0.0519 -2.5029,-0.0856 -1.89534,-0.30546 z M 108.5,125 c 0.33992,-0.55 -0.11008,-1 -1,-1 -0.88992,0 -1.33992,0.45 -1,1 0.33992,0.55 0.78992,1 1,1 0.21008,0 0.66008,-0.45 1,-1 z m -7.5,1 c 0,-0.55 0.47656,-1 1.05902,-1 0.58246,0 0.7809,0.45 0.44098,1 -0.33992,0.55 -0.81648,1 -1.05902,1 C 101.19844,127 101,126.55 101,126 Z m 5,-9.38337 c 0,-0.21085 0.90062,-0.61888 2.00138,-0.90674 1.10076,-0.28785 1.7492,-0.11534 1.44098,0.38337 C 108.90411,116.96417 106,117.4057 106,116.61663 Z m 6.46654,-0.38289 c -1.796,-1.27514 -1.10811,-5.47693 1.03346,-6.31267 1.82258,-0.71126 1.77822,-0.79558 -0.5,-0.95046 l -2.5,-0.16997 2.5,-0.70223 c 2.41979,-0.6797 2.43583,-0.7397 0.5,-1.86991 l -2,-1.16768 2,-0.13009 c 1.67646,-0.10905 1.59557,-0.25961 -0.5,-0.93073 -1.375,-0.44035 -1.825,-0.85239 -1,-0.91563 1.31682,-0.10095 1.31976,-0.22897 0.0241,-1.04833 -1.20526,-0.76218 -1.02188,-1.11452 1,-1.9213 1.64274,-0.655502 1.90689,-1.009298 0.78495,-1.051354 -0.93004,-0.03486 -1.94316,-0.47142 -2.25138,-0.970127 -0.30822,-0.498708 0.26522,-0.690837 1.27431,-0.426953 2.05893,0.53842 2.68008,-2.621655 0.7668,-3.900993 -0.71422,-0.477566 -0.57379,-0.752448 0.40125,-0.785436 0.92845,-0.03141 0.54742,-0.62469 -1,-1.557028 -2.30891,-1.391143 -2.32802,-1.459721 -0.25,-0.897177 1.30847,0.354218 2.25,0.162444 2.25,-0.458284 C 115,89.480324 114.325,89 113.5,89 c -0.825,0 -1.5,-0.435877 -1.5,-0.968615 0,-0.532739 0.675,-0.709594 1.5,-0.393011 0.96343,0.369702 1.5,-0.02035 1.5,-1.090402 0,-0.916303 -0.3375,-1.461681 -0.75,-1.211949 -0.86852,0.525809 -3.36023,-1.892459 -2.66563,-2.587061 0.25528,-0.255282 -2.08587,-0.727334 -5.20256,-1.049005 -3.11669,-0.32167 -6.11236,-1.030506 -6.657042,-1.575189 C 98.207753,78.607753 99.679038,76 102.05195,76 c 1.25821,0 1.93769,-0.506275 1.67764,-1.25 -0.24039,-0.6875 -1.17789,-1.117773 -2.08333,-0.956163 C 100.66407,73.969144 100,73.421757 100,72.436848 c 0,-1.018963 0.54615,-1.441249 1.42689,-1.103278 1.78144,0.683603 4.15575,-1.855442 2.62167,-2.803559 -1.46864,-0.907669 -1.30741,-2.128301 0.52287,-3.958582 C 105.43571,63.707143 105.66071,63 105.07143,63 104.48214,63 104,61.875 104,60.5 c 0,-1.375 0.47656,-2.5 1.05902,-2.5 0.58246,0 0.7809,-0.45 0.44098,-1 -0.37425,-0.605542 1.02528,-1 3.54797,-1 3.38801,0 4.05265,-0.295397 3.55902,-1.581787 C 112.27314,53.548229 112,52.465358 112,52.011832 c 0,-0.453526 -1.0125,-0.632485 -2.25,-0.397687 -2.06468,0.391744 -2.08527,0.354248 -0.25,-0.455234 1.1,-0.485177 2.48782,-0.699924 3.08405,-0.477216 0.59623,0.222708 1.04623,-0.627065 1,-1.888386 -0.0728,-1.985515 -0.75512,-2.377513 -5.08405,-2.920692 l -5,-0.627383 6.00876,0.04168 c 3.30481,0.02292 7.12981,-0.50708 8.5,-1.177783 2.38502,-1.167467 2.40597,-1.151315 0.49124,0.378831 -1.30449,1.042476 -1.88199,2.499895 -1.66064,4.190925 0.18664,1.425948 -0.26336,2.974651 -1,3.441562 -0.99863,0.632964 -1.02136,0.852825 -0.0894,0.864242 0.71882,0.0088 1.25,1.290146 1.25,3.015313 0,1.65 -0.41985,3 -0.93299,3 -0.51432,0 -0.76876,2.692447 -0.56701,6 0.21725,3.561661 -0.0387,6 -0.62987,6 -0.54771,0 -0.88132,0.7875 -0.74134,1.75 0.13997,0.9625 -0.11189,2.840712 -0.5597,4.173804 -0.59861,1.782029 -0.37818,2.742624 0.8325,3.627893 1.43834,1.051745 1.612,3.39162 1.37255,18.493816 -0.26334,16.608583 -0.7274,19.020133 -3.3076,17.188223 z M 114.72505,113 c 0.0829,-1.1 -0.17562,-2 -0.57439,-2 -0.39878,0 -0.79285,0.9 -0.87571,2 -0.0829,1.1 0.17562,2 0.57439,2 0.39878,0 0.79285,-0.9 0.87571,-2 z M 101,112.94098 c 0,-0.58246 0.45,-0.7809 1,-0.44098 0.55,0.33992 1,0.81648 1,1.05902 0,0.24254 -0.45,0.44098 -1,0.44098 -0.55,0 -1,-0.47656 -1,-1.05902 z M 105,112 c 0,-1.1 0.35424,-2 0.7872,-2 0.43295,0 0.85499,0.9 0.93785,2 0.0829,1.1 -0.27138,2 -0.7872,2 C 105.42203,114 105,113.1 105,112 Z m 3.27495,0 c 0.0829,-1.1 0.47693,-2 0.87571,-2 0.39877,0 0.65725,0.9 0.57439,2 -0.0829,1.1 -0.47693,2 -0.87571,2 -0.39877,0 -0.65725,-0.9 -0.57439,-2 z M 105,100.925 c 0,-0.37125 1.125,-0.675 2.5,-0.675 1.375,0 2.5,0.30375 2.5,0.675 0,0.37125 -1.125,0.675 -2.5,0.675 -1.375,0 -2.5,-0.30375 -2.5,-0.675 z m 1.8125,-2.608114 c 0.72187,-0.288871 1.58437,-0.253344 1.91667,0.07895 0.33229,0.332292 -0.25834,0.568641 -1.3125,0.52522 -1.16495,-0.04798 -1.4019,-0.284941 -0.60417,-0.604167 z M 105,87.940983 c 0,-0.582459 0.45,-0.780902 1,-0.440983 0.55,0.339919 1,0.816476 1,1.059017 C 107,88.801558 106.55,89 106,89 c -0.55,0 -1,-0.476558 -1,-1.059017 z m 3,0 c 0,-0.582459 0.45,-0.780902 1,-0.440983 0.55,0.339919 1,0.816476 1,1.059017 C 110,88.801558 109.55,89 109,89 c -0.55,0 -1,-0.476558 -1,-1.059017 z M 94.25,85.337719 C 93.5625,85.060307 93,83.970833 93,82.916667 c 0,-2.406401 4.493782,-2.678234 5.396256,-0.326425 1.088406,2.836342 -0.809421,4.09392 -4.146256,2.747477 z M 93,77.532224 C 93,75.393603 93.300107,75.175239 95.25,75.89508 98.568809,77.120284 98.79563,80 95.573324,80 93.504072,80 93,79.516603 93,77.532224 Z m 0,-5.091241 c 0,-0.857459 0.45734,-1.276365 1.016312,-0.930902 0.558971,0.345464 0.757414,1.047021 0.440983,1.559017 C 93.600055,74.456142 93,74.197509 93,72.440983 Z M 87.349414,53 c 0,-4.675 0.172256,-6.5875 0.382791,-4.25 0.210535,2.3375 0.210535,6.1625 0,8.5 C 87.52167,59.5875 87.349414,57.675 87.349414,53 Z M 100.08761,34.75 c 0.0891,-10.430278 1.50372,-23.838412 1.77878,-16.860243 0.0751,1.906143 0.89954,3.991442 1.88361,4.764484 1.24528,0.978237 1.33397,1.298446 0.30751,1.110243 -1.73985,-0.319005 -2.81546,5.737231 -2.66153,14.985738 0.0572,3.437622 -0.23348,6.250122 -0.64598,6.25 C 100.3375,45.0001 100.03942,40.3875 100.08761,34.75 Z m -13.008663,7.666667 c 0.04798,-1.164943 0.284941,-1.4019 0.604167,-0.604167 0.288871,0.721875 0.253344,1.584375 -0.07895,1.916667 -0.332292,0.332291 -0.568641,-0.258334 -0.52522,-1.3125 z m 18.491083,-0.30336 c -0.30141,-0.487681 0.11671,-1.438362 0.92915,-2.112624 1.19315,-0.990232 1.59931,-0.907594 2.11253,0.429821 0.34945,0.910664 0.35477,1.936345 0.0118,2.279291 C 108.28059,43.052741 108,42.808333 108,42.166667 108,41.525 107.52344,41 106.94098,41 c -0.58246,0 -0.7809,0.45 -0.44098,1 0.33992,0.55 0.39303,1 0.11803,1 -0.275,0 -0.7466,-0.399012 -1.048,-0.886693 z M 94.701324,40.335955 C 95.083732,39.339415 94.935207,38.92201 94.331061,39.295393 92.986122,40.126611 92.658525,22.011056 93.982129,20 c 0.686528,-1.043097 0.996069,1.393721 1.016213,8 0.01593,5.225 0.300307,10.5125 0.631944,11.75 0.354166,1.321567 0.155164,2.25 -0.48227,2.25 -0.60137,0 -0.800536,-0.741944 -0.446692,-1.664045 z M 116.5,38 c -0.71387,-1.15507 0.20667,-3 1.49687,-3 0.48336,0 0.81104,0.9 0.72818,2 -0.16178,2.147667 -1.22142,2.623901 -2.22505,1 z M 113.01531,27.75 C 113.0277,25.930562 113.21613,25.787041 114,27 c 1.25292,1.938759 1.25292,3 0,3 -0.55,0 -0.99311,-1.0125 -0.98469,-2.25 z m 3.65136,-3.416667 c -1.11666,-1.116658 -0.7486,-2 0.83333,-2 0.825,0 1.5,0.6 1.5,1.333334 0,1.419438 -1.22933,1.770674 -2.33333,0.666666 z M 110.5,23 c 0.33992,-0.55 0.81648,-1 1.05902,-1 0.24254,0 0.44098,0.45 0.44098,1 0,0.55 -0.47656,1 -1.05902,1 -0.58246,0 -0.7809,-0.45 -0.44098,-1 z m 5.08895,-7.856083 c -0.291,-0.470846 -2.68006,-0.757199 -5.30902,-0.63634 -3.07332,0.141287 -3.44105,0.06937 -1.02993,-0.201415 4.17475,-0.46886 5.18381,-2.890897 1.5,-3.600429 -1.2375,-0.238353 0.225,-0.48776 3.25,-0.554238 3.5229,-0.07742 4.99911,0.196304 4.1066,0.76146 -0.81636,0.516934 -1.16572,1.752969 -0.84362,2.984687 0.5391,2.061523 -0.63155,2.933045 -1.67403,1.246275 z M 97.269032,10.307009 c 0.972967,-0.253543 2.322967,-0.236869 2.999998,0.03705 0.67703,0.273923 -0.11903,0.481368 -1.76903,0.460988 -1.65,-0.02038 -2.203936,-0.244498 -1.230968,-0.498042 z"
         id="path2239" />
      <path
         style="fill:#b9b9b9;fill-opacity:1"
         d="m 34.8125,215.31689 c 0.721875,-0.28887 1.584375,-0.25335 1.916667,0.0789 0.332291,0.33229 -0.258334,0.56864 -1.3125,0.52522 -1.164943,-0.048 -1.4019,-0.28494 -0.604167,-0.60416 z m 9,0 c 0.721875,-0.28887 1.584375,-0.25335 1.916667,0.0789 0.332291,0.33229 -0.258334,0.56864 -1.3125,0.52522 -1.164943,-0.048 -1.4019,-0.28494 -0.604167,-0.60416 z m 55.619818,-9.4264 C 99.129625,205.40072 99.567691,205 100.4058,205 c 0.83811,0 1.97524,-0.84346 2.52696,-1.87436 0.87871,-1.64189 0.54201,-1.95059 -2.71482,-2.48899 -2.044866,-0.33805 -5.72044,-0.61959 -8.16794,-0.62564 -2.525504,-0.006 -4.039152,-0.37903 -3.5,-0.86199 0.833891,-0.74697 11.076367,-0.12942 24.2,1.4591 4.65842,0.56386 5.35395,2.00217 2.25239,4.65781 -1.47398,1.26206 -3.70435,1.6848 -8.50867,1.61273 -3.58108,-0.0537 -6.758708,-0.4984 -7.061402,-0.98817 z M 87.8125,205.31689 c 0.721875,-0.28887 1.584375,-0.25335 1.916667,0.0789 0.332291,0.33229 -0.258334,0.56864 -1.3125,0.52522 -1.164943,-0.048 -1.4019,-0.28494 -0.604167,-0.60416 z m -7.145833,-0.98356 C 80.3,203.96667 80,202.61667 80,201.33333 c 0,-2.05384 0.449186,-2.31702 3.75,-2.19715 2.321376,0.0843 2.892826,0.30128 1.5,0.56955 -1.597291,0.30765 -2.25,1.13843 -2.25,2.86382 0,2.36703 -0.985297,3.11182 -2.333333,1.76378 z M 75,198.94098 c 0,-1.7847 0.416577,-2.80156 1,-2.44098 0.55,0.33992 1,1.71648 1,3.05902 C 77,200.90156 76.55,202 76,202 c -0.55,0 -1,-1.37656 -1,-3.05902 z m 40.76166,0.35176 c 1.24391,-0.23919 3.04391,-0.23011 4,0.0202 0.95609,0.25029 -0.0617,0.446 -2.26166,0.4349 -2.2,-0.0111 -2.98225,-0.21589 -1.73834,-0.45508 z m -29.302779,-2.35927 c -0.362533,-0.58659 -0.444683,-1.281 -0.182555,-1.54313 0.262128,-0.26213 0.743066,0.21781 1.068751,1.06653 0.676184,1.76211 0.09985,2.07206 -0.886196,0.4766 z m 41.260899,-1.71373 c 0.23698,-1.49586 0.9005,-3.69017 1.47449,-4.87625 0.92355,-1.90839 1.40388,-2.03552 4.17468,-1.10491 4.18739,1.40639 5.63105,2.64336 5.63105,4.82485 0,2.90637 -1.79502,3.24699 -6.04088,1.14631 -3.7724,-1.86644 -3.95912,-1.8732 -3.95912,-0.1433 0,0.99854 -0.38499,2.05347 -0.85554,2.34428 -0.47055,0.29082 -0.66166,-0.69513 -0.42468,-2.19098 z m -23.99208,0.0585 c 1.77523,-0.22091 4.92523,-0.22454 7,-0.008 2.07476,0.21648 0.6223,0.39722 -3.2277,0.40166 -3.85,0.004 -5.54754,-0.17268 -3.7723,-0.39359 z m -17.62802,-3.36973 c -0.08244,-1.31628 -0.886264,-1.4721 -4.648563,-0.90112 -5.182958,0.78658 -4.66069,-0.80811 0.618254,-1.88777 l 3.25467,-0.66565 0.08798,-87.79735 C 85.494716,18.132771 85.605112,12.800486 87.25,11.879965 88.895739,10.958967 89,12.363235 89,35.45031 89,52.93548 89.322999,60 90.122445,60 c 0.779195,0 0.744545,0.455341 -0.113307,1.48899 -0.679663,0.818944 -1.680892,1.213877 -2.224953,0.877629 -0.649929,-0.401678 -0.848781,21.123822 -0.579784,62.761011 0.225179,34.8548 0.09116,64.49737 -0.297812,65.87237 -0.388976,1.375 -0.752085,1.78384 -0.806909,0.90854 z M 87.732205,48.75 C 87.52167,46.4125 87.349414,48.325 87.349414,53 c 0,4.675 0.172256,6.5875 0.382791,4.25 0.210535,-2.3375 0.210535,-6.1625 0,-8.5 z m -0.04909,-6.9375 c -0.319226,-0.797733 -0.556183,-0.560776 -0.604167,0.604167 -0.04342,1.054166 0.192928,1.644791 0.52522,1.3125 0.332291,-0.332292 0.367818,-1.194792 0.07895,-1.916667 z m 17.104445,150.47487 c -2.83172,-0.43113 -2.85706,-0.59151 -1.33726,-8.4629 0.20564,-1.06505 -0.70383,-2.10106 -2.49614,-2.84346 -1.940013,-0.80358 -2.655225,-1.68473 -2.292576,-2.82447 0.386154,-1.21363 0.279954,-1.31327 -0.3972,-0.37267 -0.508355,0.70613 -1.612561,1.01975 -2.453791,0.69694 -1.352574,-0.51903 -1.389805,0.22753 -0.321843,6.4536 l 1.207665,7.04052 -3.225284,-0.23747 -3.225284,-0.23746 -0.490023,-10 c -0.269513,-5.5 -0.128352,-10.9 0.313691,-12 0.564377,-1.40442 0.857854,-1.55332 0.985521,-0.5 0.09999,0.825 0.117368,1.87095 0.03861,2.32433 -0.07876,0.45338 0.317952,0.53932 0.881579,0.19098 C 92.538851,171.16697 93,171.43352 93,172.10765 c 0,0.67413 0.261459,0.96422 0.58102,0.64466 0.319561,-0.31956 0.155369,-1.40706 -0.364872,-2.41666 -1.519544,-2.94891 -0.336142,-4.6896 1.619044,-2.38149 1.874915,2.21335 7.239048,3.15952 7.862888,1.38693 0.22461,-0.63823 -0.9638,-1.46018 -2.64511,-1.82946 C 96.973654,166.8353 96.157833,165.63852 98,164.5 c 0.55,-0.33992 1,-0.14148 1,0.44098 0,0.58246 0.707996,1.05902 1.57332,1.05902 1.86062,0 1.54125,-3.43509 -0.33702,-3.625 -0.679963,-0.0687 -1.6863,-0.18125 -2.2363,-0.25 -0.55,-0.0687 -1,-0.60329 -1,-1.18786 0,-0.58457 1.001407,-0.92207 2.22535,-0.75 1.48088,0.2082 2.34176,-0.27258 2.57332,-1.43714 0.24177,-1.21585 -0.28486,-1.75 -1.72535,-1.75 C 98.932996,157 98,156.61383 98,156.14185 c 0,-0.47198 1.775262,-0.75797 3.94503,-0.63555 2.43946,0.13765 4.13053,-0.26082 4.4311,-1.04409 0.72625,-1.89259 -0.4943,-2.60902 -2.1309,-1.25077 -1.14376,0.94924 -1.63659,0.84062 -2.40347,-0.52971 -0.53057,-0.94809 -1.38702,-1.46277 -1.90322,-1.14375 C 99.422343,151.85701 99,151.74214 99,151.2827 c 0,-1.03361 8.09703,-0.9588 9.79484,0.0905 0.68078,0.42075 0.97692,1.18708 0.65809,1.70296 -0.31883,0.51588 0.1583,1.22116 1.06029,1.56729 0.90199,0.34612 2.08135,1.7902 2.6208,3.20905 0.79188,2.08281 1.15943,2.29732 1.90808,1.11362 0.51,-0.80637 0.93417,-2.56862 0.94259,-3.91612 0.0114,-1.81919 0.30584,-2.15947 1.14371,-1.3216 0.62062,0.62062 1.34356,4.19812 1.60655,7.95 0.41589,5.93319 0.19338,7.18099 -1.70847,9.58113 -1.20265,1.51774 -2.54944,2.5353 -2.99286,2.26125 -0.44343,-0.27406 -1.03135,0.28415 -1.30648,1.24047 -0.27513,0.95631 -0.84188,2.57173 -1.25946,3.58981 -0.72772,1.77425 -0.62483,1.78157 2.47948,0.17626 1.78129,-0.92113 3.43892,-1.47457 3.68363,-1.22986 0.24471,0.24471 -1.48461,1.42333 -3.84293,2.61916 -2.40079,1.21736 -3.23874,1.95999 -1.90401,1.68742 2.32779,-0.47536 2.37079,-0.36018 1.82817,4.8973 -0.3759,3.64208 -0.17655,5.53887 0.61614,5.86243 1.39485,0.56937 -5.67074,0.51278 -9.5406,-0.0764 z M 106.5,174 c 0.33992,-0.55 -0.057,-1 -0.88197,-1 -0.825,0 -1.77811,0.45 -2.11803,1 -0.33992,0.55 0.057,1 0.88197,1 0.825,0 1.77811,-0.45 2.11803,-1 z m -5,-1 c -0.33992,-0.55 -1.06803,-1 -1.618034,-1 -0.55,0 -0.721885,0.45 -0.381966,1 0.339919,0.55 1.06803,1 1.61803,1 0.55,0 0.72189,-0.45 0.38197,-1 z m 4.65,-3.5 c 0,-0.5225 -0.48375,-1.11125 -1.075,-1.30833 -0.59125,-0.19709 -1.075,0.39166 -1.075,1.30833 0,0.91667 0.48375,1.50542 1.075,1.30833 0.59125,-0.19708 1.075,-0.78583 1.075,-1.30833 z m 0.21163,-5 c 0.34388,-0.89614 0.008,-1.5 -0.834,-1.5 -1.6447,0 -2.75941,1.43489 -1.83378,2.36052 1.0538,1.0538 2.05741,0.73007 2.66778,-0.86052 z m 3.30504,0.044 c 0,-0.80081 -0.38234,-1.21971 -0.84965,-0.9309 -0.4673,0.28881 -0.59075,0.94401 -0.27431,1.45601 0.80862,1.30838 1.12396,1.16106 1.12396,-0.52511 z M 106,159.5 c 0,-0.825 -0.45,-1.5 -1,-1.5 -0.55,0 -1,0.675 -1,1.5 0,0.825 0.45,1.5 1,1.5 0.55,0 1,-0.675 1,-1.5 z m 4,-0.5 c 0,-0.55 -0.19844,-1 -0.44098,-1 -0.24254,0 -0.7191,0.45 -1.05902,1 -0.33992,0.55 -0.14148,1 0.44098,1 C 109.52344,160 110,159.55 110,159 Z M 8.0789474,188.41667 c 0.047984,-1.16495 0.2849403,-1.4019 0.6041666,-0.60417 0.2888706,0.72187 0.2533443,1.58437 -0.078947,1.91667 -0.3322917,0.33229 -0.5686404,-0.25834 -0.5252196,-1.3125 z m 62.9999996,0 c 0.04798,-1.16495 0.284941,-1.4019 0.604167,-0.60417 0.288871,0.72187 0.253344,1.58437 -0.07895,1.91667 -0.332292,0.33229 -0.568641,-0.25834 -0.52522,-1.3125 z m -62.9999996,-9 c 0.047984,-1.16495 0.2849403,-1.4019 0.6041666,-0.60417 0.2888706,0.72187 0.2533443,1.58437 -0.078947,1.91667 -0.3322917,0.33229 -0.5686404,-0.25834 -0.5252196,-1.3125 z m 62.9999996,0 c 0.04798,-1.16495 0.284941,-1.4019 0.604167,-0.60417 0.288871,0.72187 0.253344,1.58437 -0.07895,1.91667 -0.332292,0.33229 -0.568641,-0.25834 -0.52522,-1.3125 z M 34.8125,152.31689 c 0.721875,-0.28887 1.584375,-0.25335 1.916667,0.0789 0.332291,0.33229 -0.258334,0.56864 -1.3125,0.52522 -1.164943,-0.048 -1.4019,-0.28494 -0.604167,-0.60416 z m 9,0 c 0.721875,-0.28887 1.584375,-0.25335 1.916667,0.0789 0.332291,0.33229 -0.258334,0.56864 -1.3125,0.52522 -1.164943,-0.048 -1.4019,-0.28494 -0.604167,-0.60416 z M 92.21504,150.5 c -0.254985,-1.01876 -0.807556,-20.5655 -1.696154,-60 -0.272656,-12.1 -0.741303,-23.144631 -1.041439,-24.543625 -0.396095,-1.846277 0.102101,-3.152204 1.817209,-4.763464 l 2.362911,-2.21984 -0.429079,3.263465 L 92.79941,65.5 95.816331,61.939471 c 1.659307,-1.958291 4.854439,-4.389135 7.100299,-5.401875 4.6313,-2.088427 5.07064,-3.03005 1.83337,-3.929429 -2.12505,-0.590382 -2.06207,-0.718469 1.13413,-2.306495 2.95239,-1.466889 3.14375,-1.775789 1.5,-2.421251 -1.79154,-0.703492 -1.78584,-0.743976 0.11587,-0.82379 1.1,-0.04617 2.9,-0.32586 4,-0.621541 1.61951,-0.435324 2,-0.05013 2,2.02471 0,1.40927 -0.45,2.394608 -1,2.18964 -0.55,-0.204968 -1.9,0.02429 -3,0.509471 -1.83527,0.809482 -1.81468,0.846978 0.25,0.455234 1.2375,-0.234798 2.25,-0.05584 2.25,0.397687 0,0.453526 0.27314,1.536397 0.60699,2.406381 C 113.10062,55.704603 112.43598,56 109.04797,56 c -2.52269,0 -3.92222,0.394458 -3.54797,1 0.33992,0.55 0.14148,1 -0.44098,1 C 104.47656,58 104,59.125 104,60.5 c 0,1.375 0.48214,2.5 1.07143,2.5 0.58928,0 0.36428,0.707143 -0.5,1.571429 -1.83028,1.830281 -1.99151,3.050913 -0.52287,3.958582 1.53408,0.948117 -0.84023,3.487162 -2.62167,2.803559 C 100.54615,70.995599 100,71.417885 100,72.436848 c 0,0.984909 0.66407,1.532296 1.64626,1.356989 0.90544,-0.16161 1.84294,0.268663 2.08333,0.956163 0.26005,0.743725 -0.41943,1.25 -1.67764,1.25 -2.372912,0 -3.844197,2.607753 -2.327182,4.124768 0.544682,0.544683 3.517822,1.251194 6.606982,1.570023 3.08915,0.318829 5.3767,0.967931 5.08343,1.442449 -0.29327,0.474518 -0.008,0.86276 0.63421,0.86276 0.74591,0 0.94087,0.902661 0.53997,2.5 -0.46304,1.844865 -0.22939,2.5 0.89159,2.5 0.83548,0 1.51905,0.480324 1.51905,1.067388 0,0.627778 -0.92668,0.806726 -2.25,0.434493 -1.53899,-0.432898 -1.82801,-0.339862 -0.91459,0.294416 0.73448,0.51002 1.33541,1.276687 1.33541,1.703703 0,0.427016 -0.60093,1.203241 -1.33541,1.724943 -0.96202,0.683331 -0.72604,0.815831 0.844,0.473883 1.63398,-0.355874 2.14564,-0.02646 2.0445,1.316261 -0.0814,1.07989 -0.78119,1.666464 -1.76274,1.477435 -0.89531,-0.172421 -1.62784,0.259484 -1.62784,0.959789 0,0.766181 0.82972,1.095819 2.08334,0.82769 1.71888,-0.367642 1.64599,-0.201664 -0.41667,0.948799 -1.66394,0.92807 -2.73264,1.04905 -3.19563,0.36176 -0.38259,-0.56795 -1.02167,-0.706593 -1.42017,-0.30809 -0.3985,0.3985 -1.7317,0.0646 -2.96267,-0.741926 -1.98659,-1.301667 -2.38802,-1.28585 -3.57198,0.140738 -1.17418,1.414798 -1.06544,1.522018 0.90829,0.895578 C 104.12479,100.14301 105,100.28187 105,100.93261 105,101.51968 104.51786,102 103.92857,102 102.95995,102 100,104.39487 100,105.17857 c 0,0.17679 1.55534,0.32143 3.45631,0.32143 3.00304,0 3.38773,-0.27321 2.93342,-2.08333 -0.33704,-1.34289 -0.0416,-2.08334 0.83127,-2.08334 1.01916,0 1.34486,1.81382 1.31658,7.3321 -0.027,5.27456 -0.39716,7.33244 -1.31896,7.33333 -2.42617,0.002 -2.47192,2.97467 -0.0765,4.97032 1.29684,1.08041 1.88539,1.97935 1.30789,1.99765 -0.5775,0.0183 -1.49469,-0.41142 -2.03819,-0.95492 -0.65093,-0.65093 -1.06259,-0.0119 -1.20617,1.87244 -0.11988,1.57334 0.4598,3.42313 1.2882,4.11063 0.82839,0.68751 1.51305,0.85741 1.52147,0.37756 0.008,-0.47984 0.40045,-0.26469 0.87116,0.47811 0.55145,0.87019 0.88869,-0.28574 0.94819,-3.25 0.0599,-2.98309 -0.3343,-4.60593 -1.12116,-4.61586 -0.82139,-0.0104 -0.86792,-0.25271 -0.14401,-0.75 0.58821,-0.40408 1.00337,-2.30969 0.92256,-4.23469 -0.0808,-1.925 0.0486,-4.0625 0.2875,-4.75 0.78869,-2.26934 1.91467,-1.29995 1.7423,1.5 -0.0931,1.5125 0.31388,3.0875 0.90443,3.5 0.72412,0.50581 0.59317,1.05887 -0.40221,1.69865 -1.2089,0.77702 -1.02798,1.12739 1,1.93661 2.16161,0.86255 2.2179,0.99601 0.44341,1.05135 -1.69965,0.053 -2.0643,0.79374 -2.2266,4.52303 -0.15602,3.58475 0.0978,4.34762 1.29385,3.88866 1.05725,-0.40571 1.30897,-0.10457 0.86962,1.04036 -0.34008,0.88624 -1.13268,1.62631 -1.76134,1.64461 -0.62865,0.0183 -0.018,0.97822 1.35699,2.13315 2.40161,2.01725 2.41169,2.0724 0.25629,1.40134 -1.77769,-0.55345 -2.11894,-0.37341 -1.64301,0.86685 C 111.94366,137.29557 111.71583,138 111.10699,138 110.49814,138 110,137.40177 110,136.6706 c 0,-2.00438 -4.38881,-1.44303 -5.25194,0.67175 -0.80281,1.96699 -0.21136,3.65765 1.27957,3.65765 0.50028,0 0.65058,-0.675 0.334,-1.5 -0.36156,-0.9422 0.0103,-1.5 1,-1.5 1.08375,0 1.37087,0.54629 0.91975,1.75 -0.53382,1.42442 -0.38792,1.53283 0.78422,0.58268 1.11069,-0.90031 1.88341,-0.84313 3.37836,0.25 1.61308,1.17952 1.6657,1.41732 0.31359,1.41732 -1.01462,0 -1.74352,1.00195 -1.94113,2.66828 -0.24122,2.03414 -0.91058,2.71106 -2.81642,2.84825 -1.375,0.099 -3.2926,0.52335 -4.26134,0.94305 -1.36033,0.58936 -1.62056,0.39624 -1.14301,-0.84824 0.83403,-2.17346 -1.2353,-2.05939 -2.51555,0.13866 -0.736505,1.2645 -1.048533,-1.57914 -1.124718,-10.25 -0.05799,-6.6 -0.200902,-14.7 -0.317584,-18 -0.116681,-3.3 0.130943,-7.0125 0.550276,-8.25 0.419333,-1.2375 0.436062,-2.25 0.03718,-2.25 C 98.826362,109 98.5,107.65 98.5,106 c 0,-1.65 0.364058,-3 0.809017,-3 0.444959,0 0.483246,-0.52711 0.08508,-1.17135 C 98.995934,101.1844 98.631876,97.729147 98.585081,94.150298 98.503694,87.92584 98.380593,87.61138 95.75,86.908134 93.326445,86.260236 93,86.449576 93,88.50315 c 0,1.281601 0.5625,2.557157 1.25,2.834569 1,0.403509 1,0.520176 0,0.583334 -0.6875,0.04342 -1.25,1.189824 -1.25,2.547562 0,1.914166 0.393049,2.333149 1.75,1.865468 1.662245,-0.572903 1.662643,-0.53372 0.0079,0.781384 C 93.193692,98.358673 92.987772,101.205 92.7406,125 c -0.151399,14.575 -0.387901,26.05 -0.52556,25.5 z m 9.75248,-6.43931 c 0.7412,-1.38494 0.70709,-2.14376 -0.11932,-2.65451 -0.71794,-0.44371 -0.88637,-0.27695 -0.44369,0.43931 0.39244,0.63498 0.23697,1.15451 -0.34549,1.15451 -0.58246,0 -1.05902,0.675 -1.05902,1.5 0,2.04487 0.72462,1.88307 1.96752,-0.43931 z m 7.24074,1.19733 c -0.99223,-0.34759 -1.0218,-0.77776 -0.12755,-1.85527 C 109.92092,142.39036 109.93253,142 109.12244,142 108.5051,142 108,142.5051 108,143.12244 c 0,0.73469 -0.60455,0.64833 -1.75,-0.25 -1.56363,-1.22628 -1.61243,-1.19643 -0.45826,0.28031 1.05565,1.35069 1.05565,1.73546 0,2.10527 -0.71046,0.24888 0.0583,0.45251 1.70826,0.45251 1.65,0 2.41872,-0.20363 1.70826,-0.45251 z m -7.08619,-7.93302 c -1.17884,-2.02721 -1.46351,-1.37835 -0.49853,1.13634 0.34294,0.8937 0.83419,1.41426 1.09166,1.15679 0.25747,-0.25747 -0.009,-1.28938 -0.59313,-2.29313 z m 7.58673,-3.95 c 0.2119,-0.63649 -0.72914,-1.125 -2.16713,-1.125 -2.52102,0 -3.1893,0.76904 -1.84043,2.1179 0.98814,0.98814 3.56018,0.3509 4.00756,-0.9929 z m -6.83068,-0.27851 c 0.75796,-0.48009 1.0689,-1.37319 0.69098,-1.98469 -0.39192,-0.63414 -0.0173,-1.1118 0.87188,-1.1118 2.25138,0 1.91915,-2.09306 -0.42973,-2.70731 -1.09382,-0.28604 -1.74226,-0.91891 -1.44099,-1.40638 C 102.87154,125.39884 102.6556,125 102.0904,125 c -0.5652,0 -0.75052,-0.7875 -0.41184,-1.75 0.47625,-1.35341 0.33483,-1.49105 -0.62402,-0.60736 -0.92458,0.85211 -0.962,1.66175 -0.14718,3.18426 1.28213,2.39569 1.46741,6.52275 0.25931,5.77611 -0.45834,-0.28327 -0.83334,0.14017 -0.83334,0.94098 0,1.6643 0.58794,1.79194 2.54479,0.5525 z M 103,120 c 0,-0.55 -0.70156,-1 -1.55902,-1 -0.85746,0 -1.2809,0.45 -0.94098,1 0.33992,0.55 1.04148,1 1.55902,1 0.51754,0 0.94098,-0.45 0.94098,-1 z m -0.27083,-2.60417 c -0.3323,-0.33229 -1.1948,-0.36781 -1.91667,-0.0789 -0.79773,0.31922 -0.56078,0.55618 0.60417,0.60416 1.05416,0.0434 1.64479,-0.19292 1.3125,-0.52522 z m 0.0285,-3.55345 c 0.87682,-0.87682 1.51639,-0.85986 2.63674,0.0699 1.27017,1.05416 1.44888,0.62868 1.2651,-3.01197 -0.18996,-3.76304 -0.5117,-4.27939 -2.8627,-4.59423 -1.45678,-0.19509 -2.93357,0.10622 -3.28174,0.66958 -0.37043,0.59936 0.53229,1.06565 2.17596,1.12398 2.8066,0.0996 2.80686,0.10028 0.30902,0.79496 -1.86069,0.51748 -2.51188,1.38702 -2.54647,3.40032 -0.0506,2.94727 0.52061,3.3309 2.30409,1.54742 z m -1.13267,-1.55076 c -0.31382,-0.31382 -0.33125,-0.95781 -0.0387,-1.4311 0.70205,-1.13593 3.4138,-1.11012 3.4138,0.0325 0,1.10376 -2.59467,2.17899 -3.37505,1.39861 z M 102,98 c 0,-0.55 -0.70156,-1 -1.55902,-1 -0.857456,0 -1.280899,0.45 -0.94098,1 0.339919,0.55 1.04148,1 1.55902,1 C 101.57656,99 102,98.55 102,98 Z m 7,0 c 0,-0.55 -0.675,-1 -1.5,-1 -0.825,0 -1.5,0.45 -1.5,1 0,0.55 0.675,1 1.5,1 0.825,0 1.5,-0.45 1.5,-1 z m 1,-3.448388 c 0,-0.128925 -2.3625,-0.248038 -5.25,-0.264694 -5.033188,-0.02903 -5.08481,-0.003 -1.25,0.630046 3.45898,0.571018 6.5,0.400088 6.5,-0.365352 z m -3.49691,-2.546614 c -0.33822,-0.547252 -2.12093,-0.884752 -3.96157,-0.75 C 98.18797,91.573716 99.067859,93 103.61803,93 c 2.06697,0 3.24822,-0.407391 2.88506,-0.995002 z m -4.93306,-3.891691 c -0.30141,-0.487681 0.13234,-1.451331 0.96387,-2.141444 1.27371,-1.057081 1.40274,-0.970319 0.81905,0.550738 -0.47674,1.242366 -0.32793,1.579969 0.47711,1.082427 C 104.47353,87.207344 105,87.358524 105,87.940983 105,88.523442 105.375,89 105.83333,89 c 0.45834,0 0.83334,-0.655205 0.83334,-1.456011 0,-0.800807 -0.375,-1.224249 -0.83334,-0.940983 C 105.375,86.886271 105,86.416476 105,85.559017 105,84.701558 104.325,84 103.5,84 c -0.825,0 -1.5,0.45 -1.5,1 0,1.938975 -2.056836,0.969365 -3.181954,-1.5 C 97.39626,80.379519 93,79.950786 93,82.932612 c 0,1.809915 2.735468,3.488899 4.646442,2.851907 0.469457,-0.156485 0.927623,0.115169 1.018148,0.603678 0.09052,0.488508 0.765524,1.269117 1.5,1.734687 1.7219,1.09148 2.0844,1.08901 1.40544,-0.0096 z M 109.36163,87.5 C 109.04504,86.675 108.60917,86 108.39301,86 108.17686,86 108,86.675 108,87.5 c 0,0.825 0.43588,1.5 0.96862,1.5 0.53273,0 0.70959,-0.675 0.39301,-1.5 z M 97.823324,78.362856 C 97.645496,77.462427 96.4875,76.351928 95.25,75.89508 93.300107,75.175239 93,75.393603 93,77.532224 93,79.516603 93.504072,80 95.573324,80 c 1.848203,0 2.482217,-0.461321 2.25,-1.637144 z M 94.457295,73.069098 C 94.773726,72.557102 94.575283,71.855545 94.016312,71.510081 93.45734,71.164618 93,71.583524 93,72.440983 c 0,1.756526 0.600055,2.015159 1.457295,0.628115 z M 112,144 c 0,-0.55 0.675,-1 1.5,-1 0.825,0 1.5,0.45 1.5,1 0,0.55 -0.675,1 -1.5,1 -0.825,0 -1.5,-0.45 -1.5,-1 z m -5.5,-19 c -0.33992,-0.55 0.11008,-1 1,-1 0.88992,0 1.33992,0.45 1,1 -0.33992,0.55 -0.78992,1 -1,1 -0.21008,0 -0.66008,-0.45 -1,-1 z m 6.3125,-2.68311 c 0.72187,-0.28887 1.58437,-0.25335 1.91667,0.0789 0.33229,0.3323 -0.25834,0.56864 -1.3125,0.52522 -1.16495,-0.048 -1.4019,-0.28494 -0.60417,-0.60416 z m -6.25971,-3.23148 c -0.32198,-0.52097 -0.15917,-1.21065 0.3618,-1.53262 0.52097,-0.32198 1.21065,-0.15917 1.53262,0.3618 0.32198,0.52097 0.15917,1.21065 -0.3618,1.53262 -0.52097,0.32198 -1.21065,0.15917 -1.53262,-0.3618 z M 113.5,112 c -0.33992,-0.55 -0.14148,-1 0.44098,-1 0.58246,0 1.05902,0.45 1.05902,1 0,0.55 -0.19844,1 -0.44098,1 -0.24254,0 -0.7191,-0.45 -1.05902,-1 z m -3.71262,-4.14054 c -0.28084,-0.7477 -0.17118,-2.25946 0.24367,-3.35946 0.67327,-1.78519 0.8285,-1.81857 1.4453,-0.31074 0.38005,0.9291 0.2704,2.44085 -0.24368,3.35946 -0.73095,1.30614 -1.04598,1.37387 -1.44529,0.31074 z M 113.63837,86.5 c 0.31659,-0.825 0.75246,-1.5 0.96862,-1.5 0.21615,0 0.39301,0.675 0.39301,1.5 0,0.825 -0.43588,1.5 -0.96862,1.5 -0.53273,0 -0.70959,-0.675 -0.39301,-1.5 z M 99.087606,34.916667 C 99.135789,29.1875 99.513127,22.25 99.926134,19.5 c 0.422516,-2.813311 0.543216,1.560066 0.275996,10 -0.261203,8.25 -0.63854,15.1875 -0.838524,15.416667 -0.199983,0.229166 -0.324183,-4.270834 -0.276,-10 z M 95.5,40.595492 c 0,-1.32248 0.3375,-2.195923 0.75,-1.940984 0.4125,0.25494 0.75,1.336968 0.75,2.404509 C 97,42.126558 96.6625,43 96.25,43 95.8375,43 95.5,41.917971 95.5,40.595492 Z M 106.5,42 c -0.33992,-0.55 -0.14148,-1 0.44098,-1 0.58246,0 1.05902,0.45 1.05902,1 0,0.55 -0.19844,1 -0.44098,1 -0.24254,0 -0.7191,-0.45 -1.05902,-1 z M 92.309869,31.5 c 0.0056,-3.3 0.192301,-4.529441 0.414862,-2.732091 0.222562,1.79735 0.217969,4.49735 -0.0102,6 C 92.486352,36.270559 92.304256,34.8 92.309869,31.5 Z m 2.72054,1.95 c 0.02666,-2.586113 0.162791,-2.722247 1.103624,-1.103625 0.769152,1.323261 0.760537,2.159055 -0.03041,2.95 C 95.29879,36.101208 95.008231,35.601326 95.030407,33.45 Z m 0.16454,-6.95 c 0.02038,-1.65 0.244498,-2.203936 0.498042,-1.230968 0.253543,0.972967 0.236869,2.322967 -0.03705,3 C 95.382014,28.946064 95.174569,28.15 95.194949,26.5 Z M 95.157895,20 c 0,-1.375 0.226973,-1.9375 0.504386,-1.25 0.277412,0.6875 0.277412,1.8125 0,2.5 -0.277413,0.6875 -0.504386,0.125 -0.504386,-1.25 z M 110.19143,13.649157 C 108.37172,12.989879 107.20922,12.124114 107.6081,11.725235 108.00698,11.326356 107.28333,11 106,11 c -1.28333,0 -2.06366,-0.269677 -1.73405,-0.599282 1.1038,-1.1038056 8.73405,0.734158 8.73405,2.103846 0,0.730823 0.5625,1.555743 1.25,1.833155 2.60354,1.050552 -0.89806,0.456482 -4.05857,-0.688562 z"
         id="path2237" />
      <path
         style="fill:#a3a3a3;fill-opacity:1"
         d="m 36.947608,215.62245 c -0.303815,-0.30831 -2.025526,-0.67282 -3.826023,-0.81001 -1.800498,-0.13719 -3.490979,-0.60112 -3.756626,-1.03094 C 29.099313,213.35167 28.203499,213 27.374261,213 26.023958,213 20.101152,209.10115 17.5,206.5 14.984541,203.98454 11,197.99755 11,196.73339 11,195.96336 10.686975,195.02031 10.304389,194.63772 9.196562,193.5299 8.8431636,190.95715 8.8431636,184 c 0,-6.95715 0.3533984,-9.5299 1.4612254,-10.63772 C 10.686975,172.97969 11,172.03664 11,171.26661 c 0,-1.26416 3.984541,-7.25115 6.5,-9.76661 2.515459,-2.51546 8.502453,-6.5 9.766611,-6.5 0.770031,0 1.713081,-0.31302 2.095667,-0.69561 1.107827,-1.10783 3.680567,-1.46123 10.637722,-1.46123 6.957155,0 9.529895,0.3534 10.637722,1.46123 0.382586,0.38259 1.325636,0.69561 2.095667,0.69561 1.264158,0 7.251152,3.98454 9.766611,6.5 2.515459,2.51546 6.5,8.50245 6.5,9.76661 0,0.77003 0.313025,1.71308 0.695611,2.09567 1.107827,1.10782 1.461225,3.68057 1.461225,10.63772 0,6.95715 -0.353398,9.5299 -1.461225,10.63772 C 69.313025,195.02031 69,195.96336 69,196.73339 c 0,1.26416 -3.984541,7.25115 -6.5,9.76661 -2.515459,2.51546 -8.502453,6.5 -9.766611,6.5 -0.770031,0 -1.713081,0.31302 -2.095667,0.69561 -0.382586,0.38259 -1.470086,0.82067 -2.416666,0.97351 -6.761,1.09172 -10.800467,1.43331 -11.273448,0.95333 z M 37,201.59878 c 0,-2.82543 -0.59099,-3.74992 -3.490937,-5.46093 -9.684014,-5.71371 -9.824021,-18.317 -0.268203,-24.14325 8.679071,-5.2917 20.786998,1.71923 20.73344,12.0054 -0.03715,7.13517 -6.531507,16.16904 -13.835391,19.24551 L 37.5,204.35705 l 2.456052,0.41803 c 3.791395,0.64531 9.701396,-1.53542 13.717508,-5.06161 11.771054,-10.33512 8.62759,-29.09548 -5.891441,-35.16042 -10.152095,-4.24077 -22.108434,0.62734 -26.886256,10.94695 -4.7646,10.29105 2.68e-4,22.69471 10.604137,27.60414 5.335212,2.47012 5.5,2.42502 5.5,-1.50536 z m 49.75,3.72364 C 83.6079,204.95111 83,204.49886 83,202.5326 c 0,-2.24215 0.322934,-2.34876 7.25,-2.39342 3.9875,-0.0257 8.732041,0.26996 10.54342,0.65704 3.02681,0.64681 3.18061,0.85802 1.89986,2.60908 -1.46909,2.00856 -8.25972,2.82511 -15.94328,1.91712 z m 16.5,-6.05089 c 2.0625,-0.21574 5.4375,-0.21574 7.5,0 2.0625,0.21575 0.375,0.39226 -3.75,0.39226 -4.125,0 -5.8125,-0.17651 -3.75,-0.39226 z m 18.5625,-0.95464 c 0.72187,-0.28887 1.58437,-0.25335 1.91667,0.0789 0.33229,0.33229 -0.25834,0.56864 -1.3125,0.52522 -1.16495,-0.048 -1.4019,-0.28494 -0.60417,-0.60416 z M 97.75,195.33772 c 0.6875,-0.27741 1.8125,-0.27741 2.5,0 0.6875,0.27741 0.125,0.50439 -1.25,0.50439 -1.375,0 -1.9375,-0.22698 -1.25,-0.50439 z m 17,0 c 0.6875,-0.27741 1.8125,-0.27741 2.5,0 0.6875,0.27741 0.125,0.50439 -1.25,0.50439 -1.375,0 -1.9375,-0.22698 -1.25,-0.50439 z M 96.542562,190.75 c -0.272548,-1.2375 -0.899491,-4.63891 -1.393206,-7.5587 -0.778239,-4.60243 -0.692223,-5.22986 0.646541,-4.71613 0.849312,0.32591 1.960131,0.0148 2.468486,-0.6913 0.677154,-0.9406 0.783354,-0.84096 0.3972,0.37267 -0.362649,1.13974 0.352563,2.02089 2.292577,2.82447 1.79231,0.7424 2.70178,1.77841 2.49614,2.84346 -1.5198,7.87139 -1.49446,8.03177 1.33726,8.4629 1.49184,0.22713 0.35851,0.48039 -2.51851,0.5628 -4.670123,0.13377 -5.284074,-0.0914 -5.726488,-2.10017 z M 115.75,192.33772 c 0.6875,-0.27741 1.8125,-0.27741 2.5,0 0.6875,0.27741 0.125,0.50439 -1.25,0.50439 -1.375,0 -1.9375,-0.22698 -1.25,-0.50439 z M 100,144 c 0,-0.55 0.45,-1 1,-1 0.55,0 1,0.45 1,1 0,0.55 -0.45,1 -1,1 -0.55,0 -1,-0.45 -1,-1 z m 1.75384,-13.16667 c 0.29034,-1.11027 1.32082,-1.78758 2.61279,-1.71733 1.60537,0.0873 1.71397,0.22655 0.4388,0.56265 -0.93202,0.24566 -1.47516,1.01846 -1.20697,1.71733 0.26818,0.69888 -0.14502,1.27069 -0.91822,1.27069 -0.8709,0 -1.22341,-0.6976 -0.9264,-1.83334 z m 10.05866,1.48356 c 0.72187,-0.28887 1.58437,-0.25335 1.91667,0.0789 0.33229,0.33229 -0.25834,0.56864 -1.3125,0.52522 -1.16495,-0.048 -1.4019,-0.28494 -0.60417,-0.60416 z m -9,-5 c 0.72187,-0.28887 1.58437,-0.25335 1.91667,0.0789 0.33229,0.3323 -0.25834,0.56864 -1.3125,0.52522 -1.16495,-0.048 -1.4019,-0.28494 -0.60417,-0.60416 z m -2,-10 c 0.72187,-0.28887 1.58437,-0.25335 1.91667,0.0789 0.33229,0.3323 -0.25834,0.56864 -1.3125,0.52522 -1.16495,-0.048 -1.4019,-0.28494 -0.60417,-0.60416 z m 10,-8 c 0.72187,-0.28887 1.58437,-0.25335 1.91667,0.0789 0.33229,0.3323 -0.25834,0.56864 -1.3125,0.52522 -1.16495,-0.048 -1.4019,-0.28494 -0.60417,-0.60416 z m -10.14214,-2.59119 c 0.26274,-0.42586 1.55238,-0.63037 2.86586,-0.45448 3.72006,0.49819 3.72437,1.29218 0.007,1.25883 -1.84271,-0.0165 -3.13542,-0.37848 -2.87268,-0.80435 z M 108,106.94098 c 0,-0.58246 0.45,-0.7809 1,-0.44098 0.55,0.33992 1,0.81648 1,1.05902 0,0.24254 -0.45,0.44098 -1,0.44098 -0.55,0 -1,-0.47656 -1,-1.05902 z m 3.51008,0.0427 c 0.34546,-0.55897 1.04702,-0.75742 1.55902,-0.44098 1.38704,0.85723 1.12841,1.45729 -0.62812,1.45729 -0.85746,0 -1.27636,-0.45734 -0.9309,-1.01631 z m -8.24105,-2.67668 c 0.97297,-0.25354 2.32297,-0.23687 3,0.037 0.67703,0.27393 -0.11903,0.48137 -1.76903,0.46099 -1.65,-0.0204 -2.20394,-0.2445 -1.23097,-0.49804 z m -0.75895,-5.323322 c 0.34546,-0.558971 1.04702,-0.757414 1.55902,-0.440983 1.38704,0.85724 1.12841,1.457295 -0.62812,1.457295 -0.85746,0 -1.27636,-0.45734 -0.9309,-1.016312 z m 4.30242,-1.666802 c 0.72187,-0.288871 1.58437,-0.253344 1.91667,0.07895 0.33229,0.332292 -0.25834,0.568641 -1.3125,0.52522 -1.16495,-0.04798 -1.4019,-0.284941 -0.60417,-0.604167 z m 5,-3 c 0.72187,-0.288871 1.58437,-0.253344 1.91667,0.07895 0.33229,0.332292 -0.25834,0.568641 -1.3125,0.52522 -1.16495,-0.04798 -1.4019,-0.284941 -0.60417,-0.604167 z M 99.55535,92.086387 c -0.198246,-0.322513 1.14553,-0.696638 2.98617,-0.831389 1.84064,-0.134752 3.61531,0.189741 3.9437,0.721095 0.34671,0.560976 -0.90551,0.90961 -2.98617,0.83139 -1.97079,-0.07409 -3.745454,-0.398583 -3.9437,-0.721096 z m -0.222017,-5.491046 c 0,-0.772563 0.6,-1.174418 1.333337,-0.893011 C 101.4,85.983736 102,85.715833 102,85.106989 102,84.498145 102.675,84 103.5,84 c 1.77397,0 2.00903,2.567369 0.33006,3.605028 -0.81115,0.501319 -0.95129,0.153272 -0.45696,-1.134916 0.67363,-1.755474 0.6097,-1.764524 -1.15881,-0.164045 -2.277374,2.060998 -2.880957,2.121603 -2.880957,0.289274 z M 85.424763,50 c 0,-11.825 0.144653,-16.6625 0.32145,-10.75 0.176798,5.9125 0.176798,15.5875 0,21.5 -0.176797,5.9125 -0.32145,1.075 -0.32145,-10.75 z m 7.787532,12.310701 c 0.232926,-1.754115 0.100447,-3.104115 -0.294397,-3 C 92.523054,59.414815 92.254201,59.05 92.320447,58.5 c 0.06624,-0.55 0.757344,-0.853743 1.535775,-0.674984 0.837412,0.192304 1.206865,-0.21823 0.904798,-1.005404 -0.280791,-0.731731 0.67061,-2.207033 2.114225,-3.278448 1.798986,-1.335163 2.216218,-1.440124 1.326197,-0.333624 -1.00097,1.244434 -1.022853,1.7848 -0.09549,2.357941 0.762714,0.471383 0.941899,0.320957 0.489542,-0.410973 C 98.203052,54.519529 98.358524,54 98.940983,54 99.523442,54 100,53.355324 100,52.567388 c 0,-0.787937 0.9,-1.718262 2,-2.067388 2.26321,-0.718314 2.61155,-2.060782 0.75,-2.890425 -0.6875,-0.306401 -0.16025,-0.456401 1.17167,-0.333334 3.25725,0.300965 3.80315,2.499925 0.91208,3.673942 l -2.33375,0.947695 2.25,0.667692 c 1.2375,0.367231 2.25,1.010614 2.25,1.429741 0,1.160557 -6.23492,3.500096 -8.5,3.189467 -1.228701,-0.168503 -1.55847,0.03222 -0.8551,0.520472 0.7921,0.549848 0.220295,1.873276 -1.855603,4.29475 l -3.000504,3.5 z M 90.404508,61.154508 C 90.796948,60.519529 90.641476,60 90.059017,60 89.336434,60 89.073274,52.296134 89.230649,35.75 l 0.230649,-24.25 0.2882,23.420248 c 0.174177,14.154302 0.695592,23.911126 1.317909,24.660973 0.717078,0.864026 0.664445,1.466469 -0.173357,1.98426 -0.762714,0.471383 -0.941899,0.320957 -0.489542,-0.410973 z M 108.8125,46.316886 c 0.72187,-0.288871 1.58437,-0.253344 1.91667,0.07895 0.33229,0.332292 -0.25834,0.568641 -1.3125,0.52522 -1.16495,-0.04798 -1.4019,-0.284941 -0.60417,-0.604167 z M 97,44 c -0.888225,-0.574015 -1.017278,-0.97562 -0.316422,-0.984687 0.650967,-0.0084 1.371043,-1.252813 1.600168,-2.765313 0.335098,-2.212053 0.4459,-2.016435 0.566422,1 0.08241,2.0625 0.03733,3.743109 -0.100168,3.734687 C 98.6125,44.976265 97.825,44.533156 97,44 Z m -1.417051,-5.865785 c -0.430771,-0.697003 -0.513159,-1.537338 -0.183085,-1.867413 0.894961,-0.894961 1.870768,0.421303 1.387387,1.871444 -0.338725,1.016175 -0.574267,1.015386 -1.204302,-0.004 z m 2.495998,-4.717548 c 0.04798,-1.164943 0.284941,-1.4019 0.604167,-0.604167 0.288871,0.721875 0.253344,1.584375 -0.07895,1.916667 -0.332292,0.332291 -0.568641,-0.258334 -0.52522,-1.3125 z m 10.654383,0.459245 c 0.67834,-0.683418 1.48524,-0.990671 1.79313,-0.682784 0.30789,0.307887 -0.24711,0.867048 -1.23333,1.242579 -1.4252,0.542685 -1.54006,0.427821 -0.5598,-0.559795 z m 3.34562,-1.459245 c 0.048,-1.164943 0.28494,-1.4019 0.60416,-0.604167 0.28887,0.721875 0.25335,1.584375 -0.0789,1.916667 -0.3323,0.332291 -0.56864,-0.258334 -0.52522,-1.3125 z M 95.623539,31.461341 c -0.964979,-2.514694 -0.680311,-3.163555 0.498534,-1.136338 0.58369,1.003751 0.850598,2.035659 0.593129,2.293128 -0.257468,0.257469 -0.748717,-0.263087 -1.091663,-1.15679 z m 0.455408,-5.044674 c 0.04798,-1.164943 0.284941,-1.4019 0.604167,-0.604167 0.288871,0.721875 0.253344,1.584375 -0.07895,1.916667 -0.332292,0.332291 -0.568641,-0.258334 -0.52522,-1.3125 z m -11,-2 c 0.04798,-1.164943 0.284941,-1.4019 0.604167,-0.604167 0.288871,0.721875 0.253344,1.584375 -0.07895,1.916667 -0.332292,0.332291 -0.568641,-0.258334 -0.52522,-1.3125 z m 7,0 c 0.04798,-1.164943 0.284941,-1.4019 0.604167,-0.604167 0.288871,0.721875 0.253344,1.584375 -0.07895,1.916667 -0.332292,0.332291 -0.568641,-0.258334 -0.52522,-1.3125 z M 99.272364,19 c 0,-2.475 0.195016,-3.4875 0.433369,-2.25 0.238353,1.2375 0.238353,3.2625 0,4.5 -0.238353,1.2375 -0.433369,0.225 -0.433369,-2.25 z m -3.156363,0.690983 C 96.042831,18.549907 95.538464,18.142539 94.75,18.587687 c -0.992366,0.560267 -0.995801,0.431591 -0.01667,-0.624316 1.533059,-1.653265 2.600588,-0.728018 1.971066,1.70836 -0.450452,1.743342 -0.477785,1.744236 -0.588398,0.01925 z M 105.25,12.968838 C 102.27888,11.774594 102.40046,11 105.55902,11 c 1.40746,0 2.30195,0.415943 1.98775,0.924318 -0.31419,0.508375 0.22175,1.131174 1.19099,1.383999 1.18639,0.309471 1.27209,0.476873 0.26224,0.512295 -0.825,0.02894 -2.5125,-0.35436 -3.75,-0.851774 z"
         id="path2235" />
      <path
         style="fill:#8c8c8c;fill-opacity:1"
         d="m 91.322621,198.35383 c -1.197559,-0.26065 -2.772559,-1.23438 -3.5,-2.16386 -1.212136,-1.5488 -1.163763,-1.56467 0.579074,-0.18997 1.436783,1.13329 5.348345,1.5765 16.000005,1.81292 17.93363,0.39806 21.86992,-0.35658 22.72784,-4.35724 0.61858,-2.88458 0.63668,-2.89247 0.75215,-0.32812 0.21446,4.76287 -1.80451,5.3579 -18.78489,5.5363 -8.57824,0.0901 -16.576621,-0.0494 -17.774179,-0.31003 z m 13.445289,-2.07856 c 1.79735,-0.22256 4.49735,-0.21797 6,0.0102 1.50265,0.22818 0.0321,0.41027 -3.26791,0.40466 -3.3,-0.006 -4.52944,-0.1923 -2.73209,-0.41486 z m -9.95541,-0.95838 c 0.721875,-0.28887 1.584375,-0.25335 1.916667,0.0789 0.332291,0.33229 -0.258334,0.56864 -1.3125,0.52522 -1.164943,-0.048 -1.4019,-0.28494 -0.604167,-0.60416 z m 6,-76 c 0.72187,-0.28887 1.58437,-0.25335 1.91667,0.0789 0.33229,0.3323 -0.25834,0.56864 -1.3125,0.52522 -1.16495,-0.048 -1.4019,-0.28494 -0.60417,-0.60416 z m 1,-12 c 0.72187,-0.28887 1.58437,-0.25335 1.91667,0.0789 0.33229,0.3323 -0.25834,0.56864 -1.3125,0.52522 -1.16495,-0.048 -1.4019,-0.28494 -0.60417,-0.60416 z M 90.483272,58.75 C 90.233595,58.0625 89.910218,47.03712 89.764657,34.249156 L 89.5,10.998311 l 6.135693,8.45e-4 c 3.374631,4.64e-4 7.332537,0.621774 8.795347,1.380689 l 2.65965,1.379845 -2.88536,0.423482 C 100.7314,14.693037 98.782129,14.16154 99.552786,12.91459 99.863673,12.411565 98.066476,12 95.559017,12 H 91 v 3.940983 c 0,2.167541 0.45,4.219098 1,4.559017 0.55,0.339919 0.993109,1.153976 0.984687,1.809017 -0.01085,0.843751 -0.253807,0.815073 -0.833333,-0.09836 -0.458958,-0.723399 -0.818021,2.65908 -0.818021,7.706012 0,5.668451 0.365351,8.769557 0.987842,8.384836 0.565445,-0.349464 0.671165,-0.09813 0.247244,0.587793 -0.40733,0.659073 -0.139358,1.966102 0.595491,2.904509 1.227876,1.568004 1.180959,1.584705 -0.579258,0.206195 -1.845764,-1.445506 -1.891176,-1.322364 -1.25,3.389571 C 91.700593,48.078835 92,51.596978 92,53.207665 v 2.928523 l 2.862878,-2.038549 c 1.574583,-1.121202 3.154271,-1.747157 3.510417,-1.391011 0.356146,0.356146 0.342001,-0.894649 -0.03143,-2.779545 -0.373434,-1.884896 -1.337662,-3.914583 -2.142729,-4.510416 -1.260836,-0.933151 -1.237469,-1.083334 0.168555,-1.083334 0.897771,0 1.632312,0.394727 1.632312,0.87717 0,0.482444 0.5625,0.804127 1.25,0.714851 0.6875,-0.08928 3.049997,-0.04976 5.249997,0.08781 l 4,0.250123 L 105,47 c -1.925,0.405195 -2.9375,0.795956 -2.25,0.868359 1.95607,0.205999 1.46514,1.928582 -0.75,2.631641 -1.1,0.349126 -2,1.279451 -2,2.067388 C 100,53.355324 99.523442,54 98.940983,54 c -0.582459,0 -0.721078,0.5625 -0.308042,1.25 0.588728,0.979939 0.432196,0.992297 -0.724521,0.0572 -1.647085,-1.33151 -4.538084,-0.135037 -3.547297,1.46809 0.339544,0.549394 -0.165304,0.937206 -1.121885,0.861803 C 92.282657,57.561693 91.6125,58.0625 91.75,58.75 91.8875,59.4375 91.760877,60 91.468615,60 91.176354,60 90.732949,59.4375 90.483272,58.75 Z M 97.8125,57.316886 c 0.721875,-0.288871 1.584375,-0.253344 1.916667,0.07895 0.332293,0.332292 -0.258334,0.568641 -1.3125,0.52522 -1.164943,-0.04798 -1.4019,-0.284941 -0.604167,-0.604167 z M 96.949723,39.916667 c -0.02765,-1.879167 -0.215957,-5.333045 -0.418454,-7.675286 -0.246865,-2.855432 -0.01464,-4.040123 0.704785,-3.595491 0.701269,0.433407 0.77469,0.180511 0.211944,-0.730031 C 96.342201,26.126641 96.214223,16 97.297409,16 c 0.451344,0 0.499539,-0.519529 0.107099,-1.154508 -0.442079,-0.7153 -0.274316,-0.883063 0.440984,-0.440984 0.634979,0.39244 1.147617,2.599468 1.139195,4.904509 C 98.973454,22.383342 98.711091,23.100335 98,22 c -0.779876,-1.206772 -0.972368,-1.048621 -0.984687,0.809017 -0.0092,1.388788 0.411351,2.045324 1.055262,1.647365 0.745482,-0.460733 0.907774,2.142628 0.53445,8.5732 -0.53217,9.166712 -1.558896,13.438528 -1.655302,6.887085 z M 110.21057,31.399141 C 109.50139,30.629613 109.36233,30 109.90156,30 c 1.03844,0 2.54172,1.902213 1.94858,2.465672 -0.19258,0.182935 -0.93038,-0.297004 -1.63957,-1.066531 z M 103.5,26 c -0.33992,-0.55 0.11008,-1 1,-1 0.88992,0 1.33992,0.45 1,1 -0.33992,0.55 -0.78992,1 -1,1 -0.21008,0 -0.66008,-0.45 -1,-1 z m 5.5,0 c 0,-0.55 0.45,-1 1,-1 0.55,0 1,0.45 1,1 0,0.55 -0.45,1 -1,1 -0.55,0 -1,-0.45 -1,-1 z"
         id="path2233" />
      <path
         style="fill:#767676;fill-opacity:1"
         d="m 91.5,197.27639 c -2.354466,-0.57874 -4.5,-2.1781 -4.5,-3.35448 0,-0.45825 1.9125,-0.12157 4.25,0.74818 5.988847,2.22838 25.66788,2.22866 31.5695,4.5e-4 4.05664,-1.53162 4.29932,-1.52604 3.98779,0.0916 -0.18766,0.97444 -1.62923,2.00013 -3.3195,2.36185 -3.50062,0.74914 -29.064607,0.87094 -31.98779,0.15241 z M 91.903647,52.759193 C 91.850653,50.966637 91.674085,45.675 91.511274,41 c -0.196961,-5.655606 -0.0489,-7.237843 0.44247,-4.728253 0.406169,2.074461 1.820237,4.959524 3.142373,6.411251 1.322135,1.451726 1.771854,2.272411 0.999375,1.823744 -0.963145,-0.559408 -1.172385,-0.440174 -0.665844,0.379427 0.418301,0.676824 1.678009,0.932279 2.904509,0.589002 1.566184,-0.43835 1.781843,-0.340627 0.778932,0.352955 -0.805353,0.556954 -1.191824,1.979668 -0.921663,3.392922 0.365861,1.913877 -0.245754,2.899856 -2.863089,4.615561 L 92,56.018386 Z M 102.5,34 c -0.78218,-1.265597 0.54163,-1.265597 2.5,0 1.29269,0.835399 1.26629,0.971491 -0.19098,0.984687 C 103.87898,34.993109 102.83992,34.55 102.5,34 Z M 102,30 c 0,-0.55 0.45,-1 1,-1 0.55,0 1,0.45 1,1 0,0.55 -0.45,1 -1,1 -0.55,0 -1,-0.45 -1,-1 z m 3.5,0 c 0.33992,-0.55 0.81648,-1 1.05902,-1 0.24254,0 0.44098,0.45 0.44098,1 0,0.55 -0.47656,1 -1.05902,1 -0.58246,0 -0.7809,-0.45 -0.44098,-1 z M 91.078947,25.416667 c 0.04798,-1.164943 0.284941,-1.4019 0.604167,-0.604167 0.288871,0.721875 0.253344,1.584375 -0.07895,1.916667 -0.332292,0.332291 -0.568641,-0.258334 -0.52522,-1.3125 z M 97,23.059017 c 0,-2.414565 0.556111,-2.658155 1.349337,-0.591042 0.309823,0.807386 0.132968,1.733944 -0.393011,2.059017 C 97.430347,24.852065 97,24.191476 97,23.059017 Z M 91,16 v -4 h 4.559017 c 2.784701,0 4.318485,0.389188 3.940983,1 -0.339919,0.55 -0.02898,1.017614 0.69098,1.039142 0.71996,0.02153 -0.0412,0.627575 -1.691367,1.346772 C 96.8494,16.10511 94.8818,17.437496 94.127168,18.346772 91.933576,20.989889 91,20.28929 91,16 Z"
         id="path2231" />
      <path
         style="fill:#606060;fill-opacity:1"
         d="m 98.75,194.25601 c 4.5375,-0.18529 11.9625,-0.18529 16.5,0 4.5375,0.1853 0.825,0.3369 -8.25,0.3369 -9.075,0 -12.7875,-0.1516 -8.25,-0.3369 z m 7.32895,-161.839343 c 0.048,-1.164943 0.28494,-1.4019 0.60416,-0.604167 0.28887,0.721875 0.25335,1.584375 -0.0789,1.916667 -0.3323,0.332291 -0.56864,-0.258334 -0.52522,-1.3125 z m 0,-5 c 0.048,-1.164943 0.28494,-1.4019 0.60416,-0.604167 0.28887,0.721875 0.25335,1.584375 -0.0789,1.916667 -0.3323,0.332291 -0.56864,-0.258334 -0.52522,-1.3125 z"
         id="path2229" />
      <path
         style="fill:#494949;fill-opacity:1"
         d="m 108.07895,27.416667 c 0.048,-1.164943 0.28494,-1.4019 0.60416,-0.604167 0.28887,0.721875 0.25335,1.584375 -0.0789,1.916667 -0.3323,0.332291 -0.56864,-0.258334 -0.52522,-1.3125 z"
         id="path2227" />
      <path
         style="fill:#333333;fill-opacity:1"
         d="M 89.345492,193.23469 C 88.710512,192.83061 96.880041,192.5 107.5,192.5 c 10.61996,0 18.78949,0.33061 18.15451,0.73469 -0.63498,0.40408 -8.80451,0.73468 -18.15451,0.73468 -9.35,0 -17.519529,-0.3306 -18.154508,-0.73468 z"
         id="path2225" />
    </g>
  </g>
</svg>
