<?xml version="1.0" encoding="UTF-8" standalone="no"?>
<!-- Created with Inkscape (http://www.inkscape.org/) -->

<svg
   version="1.1"
   id="svg2627"
   width="192"
   height="192"
   viewBox="0 0 192 192"
   sodipodi:docname="add_list_type_device_7143.svg"
   inkscape:version="1.1.1 (3bf5ae0d25, 2021-09-20)"
   xmlns:inkscape="http://www.inkscape.org/namespaces/inkscape"
   xmlns:sodipodi="http://sodipodi.sourceforge.net/DTD/sodipodi-0.dtd"
   xmlns="http://www.w3.org/2000/svg"
   xmlns:svg="http://www.w3.org/2000/svg">
  <defs
     id="defs2631" />
  <sodipodi:namedview
     id="namedview2629"
     pagecolor="#505050"
     bordercolor="#ffffff"
     borderopacity="1"
     inkscape:pageshadow="0"
     inkscape:pageopacity="0"
     inkscape:pagecheckerboard="1"
     showgrid="false"
     inkscape:zoom="3.4479167"
     inkscape:cx="95.854985"
     inkscape:cy="96"
     inkscape:window-width="1440"
     inkscape:window-height="890"
     inkscape:window-x="-6"
     inkscape:window-y="-6"
     inkscape:window-maximized="1"
     inkscape:current-layer="g2633" />
  <g
     inkscape:groupmode="layer"
     inkscape:label="Image"
     id="g2633">
    <g
       id="g2637">
      <path
         style="fill:#d0d0d0;fill-opacity:1"
         d="m 62,177 c 0.825,-0.53316 4.875,-0.92302 9,-0.86637 5.553431,0.0763 6.721372,0.30113 4.5,0.86637 -4.620173,1.17563 -15.319165,1.17563 -13.5,0 z m 85,0.27143 c 0,-0.47929 0.52224,-1.39367 1.16053,-2.03196 0.86428,-0.86428 1.11073,-21.10279 0.96541,-79.280399 -0.13391,-53.614214 0.12942,-77.919282 0.83947,-77.480449 C 150.66348,18.910053 151,43.784428 151,94.952028 151,177.66105 150.60213,172 156.41512,172 c 1.33471,0 2.25155,0.61081 2.25155,1.5 0,1.0987 -1.14021,1.5 -4.26191,1.5 -2.54112,0 -4.89638,0.63448 -5.83333,1.57143 -0.86429,0.86428 -1.57143,1.17928 -1.57143,0.7 z M 25.872445,170.25 c -1.243871,-1.58606 -1.208501,-1.62143 0.377555,-0.37756 0.9625,0.75485 1.75,1.54235 1.75,1.75 0,0.82304 -0.821186,0.29331 -2.127555,-1.37244 z m 136.512005,-1.06304 c 0.27637,-0.44718 0.59192,-4.52319 0.70121,-9.05782 0.10929,-4.53462 0.48213,-7.88125 0.82852,-7.43695 1.00666,1.29119 0.0356,17.30781 -1.04934,17.30781 -0.54058,0 -0.75675,-0.36587 -0.48039,-0.81304 z m -54.05112,-9.6828 c 0,-0.82272 0.9375,-2.28522 2.08334,-3.25 2.03844,-1.71637 2.04716,-1.71107 0.40459,0.24584 -0.92331,1.1 -1.67331,2.375 -1.66667,2.83333 0.007,0.45834 -0.17542,1.02084 -0.40459,1.25 -0.22917,0.22917 -0.41667,-0.25646 -0.41667,-1.07917 z M 70.25,159.33772 c -1.822046,-0.73521 -1.530265,-5.29294 0.385923,-6.02825 1.741169,-0.66815 4.511782,0.63364 5.099201,2.3959 0.368637,1.10591 -2.371257,4.35358 -3.556553,4.21568 -0.373214,-0.0434 -1.241071,-0.30592 -1.928571,-0.58333 z m 52.24958,-1.17147 c -1.10849,-1.1085 -0.39854,-3.99105 1.12717,-4.57651 2.01541,-0.77339 4.5605,1.20337 4.16614,3.23583 -0.27628,1.42389 -4.21301,2.42098 -5.29331,1.34068 z m 3.61292,-3.45375 c -0.81667,-0.81667 -1.4449,-0.77764 -2.3625,0.14675 -1.00225,1.00966 -0.90315,1.12719 0.5,0.59301 1.26651,-0.48217 1.77181,-0.15319 1.82895,1.19075 0.0509,1.1978 0.26834,1.38221 0.6125,0.51949 0.29345,-0.73563 0.0329,-1.83813 -0.57895,-2.45 z m -37.653619,-4.77903 c -1.026063,-1.66021 -0.105112,-1.89043 1.330546,-0.33261 0.709184,0.76953 0.848242,1.39914 0.309017,1.39914 -0.539226,0 -1.277029,-0.47994 -1.639563,-1.06653 z M 92.157895,148 c 0,-1.375 0.226973,-1.9375 0.504386,-1.25 0.277412,0.6875 0.277412,1.8125 0,2.5 -0.277413,0.6875 -0.504386,0.125 -0.504386,-1.25 z M 70.25,148.33772 c -2.110864,-0.85175 -1.483471,-5.12884 0.861507,-5.87311 3.097876,-0.98323 5.440055,1.63627 3.95093,4.41873 -1.114041,2.0816 -2.339897,2.45207 -4.812437,1.45438 z m 25.314293,-1.04459 c -0.542685,-1.4252 -0.427821,-1.54006 0.559795,-0.5598 0.683418,0.67834 0.990671,1.48524 0.682784,1.79313 -0.307887,0.30789 -0.867048,-0.24711 -1.242579,-1.23333 z M 82.232003,145 c 0,-1.925 0.205795,-2.7125 0.457323,-1.75 0.251527,0.9625 0.251527,2.5375 0,3.5 -0.251528,0.9625 -0.457323,0.175 -0.457323,-1.75 z m 40.099867,1.42246 c -0.33295,-0.86765 0.10859,-2.29149 0.9812,-3.1641 1.30772,-1.30773 1.85899,-1.36045 3.13674,-0.30001 1.76019,1.46082 2.0286,3.62794 0.56164,4.53457 -0.56686,0.35034 -0.7345,-0.0511 -0.39301,-0.94098 C 127.01391,145.52136 126.63819,145 125.5,145 c -1.11269,0 -1.51205,0.52622 -1.13837,1.5 0.31658,0.825 0.1256,1.5 -0.4244,1.5 -0.55,0 -1.27241,-0.70989 -1.60536,-1.57754 z M 163.80559,133.75 c -0.16807,-7.2875 -0.0732,-36.425 0.21091,-64.75 l 0.51651,-51.5 0.21272,64.75 c 0.11701,35.6125 0.0221,64.75 -0.2109,64.75 -0.23301,0 -0.56116,-5.9625 -0.72924,-13.25 z m -106.615364,9.29342 c -1.20224,-1.62611 -4.211867,-4.14387 -6.688059,-5.59502 L 46,134.80996 v -6.40498 c 0,-4.44915 0.381701,-6.40966 1.25,-6.42029 0.922623,-0.0113 0.94528,-0.20919 0.08651,-0.75555 C 45.511796,120.06821 45.054864,108.87026 43.746538,33.250316 43.542318,21.446552 43.242529,18.97252 42,18.836855 c -0.825,-0.09008 5.423663,-0.461755 13.885917,-0.825951 13.4015,-0.57677 15.561852,-0.902779 16.75,-2.527669 C 73.386163,14.457213 74,14.153749 74,14.80887 c 0,0.837551 3.042641,1.220719 10.25,1.29081 13.563835,0.131907 9.023095,1.632578 -5.75,1.90032 -14.57997,0.264242 -14.970833,0.419332 -15.121452,6 -0.0668,2.475 -0.415519,17.775 -0.774933,34 -1.147303,51.7926 -1.636572,62.40071 -2.915566,63.21396 -0.875548,0.55671 -0.836297,0.75944 0.149223,0.77073 1.060168,0.0121 1.267384,2.501 1,12.01098 -0.1855,6.59762 -0.590146,11.99762 -0.899214,12 -0.309067,0.002 -1.545592,-1.32613 -2.747832,-2.95225 z M 92.157895,143 c 0,-1.375 0.226973,-1.9375 0.504386,-1.25 0.277412,0.6875 0.277412,1.8125 0,2.5 -0.277413,0.6875 -0.504386,0.125 -0.504386,-1.25 z m -22.491228,-6.66667 c -1.457062,-1.45706 -0.51822,-2.13546 2.333333,-1.68605 1.743968,0.27485 3,0.029 3,-0.58724 C 75,133.47702 73.65,133 72,133 68.799373,133 67.968745,131.60971 70.572442,130.61057 72.511162,129.86662 76,131.618 76,133.33518 c 0,2.73473 -4.477256,4.85423 -6.333333,2.99815 z M 123.98469,135.25 c -0.0132,-1.50521 -0.15914,-1.54018 -1.04347,-0.25 -0.8127,1.18566 -0.96666,0.97611 -0.73469,-1 0.20179,-1.71904 0.99773,-2.60001 2.54794,-2.82014 2.69717,-0.383 4.02015,2.18185 2.23496,4.33287 -1.65582,1.99515 -2.986,1.87883 -3.00474,-0.26273 z m -14.25057,-2.16667 c -1.0631,-1.36391 -1.0135,-1.41131 0.35789,-0.34201 0.8756,0.68273 1.84304,0.99029 2.14986,0.68347 0.30682,-0.30682 0.80813,-0.15291 1.11401,0.34201 0.98066,1.58674 -2.34081,0.95994 -3.62176,-0.68347 z M 97.8125,128.31689 c 0.721875,-0.28887 1.584375,-0.25335 1.916667,0.0789 0.332293,0.33229 -0.258334,0.56864 -1.3125,0.52522 -1.164943,-0.048 -1.4019,-0.28494 -0.604167,-0.60416 z M 38.761659,15.292739 c 1.243913,-0.239193 3.043913,-0.230112 4,0.02018 C 43.717747,15.563212 42.7,15.758916 40.5,15.747817 c -2.2,-0.0111 -2.982253,-0.215885 -1.738341,-0.455078 z m 10.507373,0.01427 c 0.972967,-0.253543 2.322967,-0.236869 3,0.03705 C 52.946064,15.617986 52.15,15.825431 50.5,15.805051 48.85,15.784672 48.296064,15.560553 49.269032,15.307009 Z M 56,15 c -1.979583,-0.633973 -2.083666,-0.80064 -0.5,-0.80064 1.1,0 3.125,0.360288 4.5,0.80064 1.979583,0.633973 2.083666,0.80064 0.5,0.80064 -1.1,0 -3.125,-0.360288 -4.5,-0.80064 z m 12.5,0 c 0.339919,-0.55 0.816476,-1 1.059017,-1 C 69.801558,14 70,14.45 70,15 70,15.55 69.523442,16 68.940983,16 68.358524,16 68.160081,15.55 68.5,15 Z"
         id="path2653" />
      <path
         style="fill:#b9b9b9;fill-opacity:1"
         d="m 14.872445,181.25 c -1.243871,-1.58606 -1.208501,-1.62143 0.377555,-0.37756 0.9625,0.75485 1.75,1.54235 1.75,1.75 0,0.82304 -0.821186,0.29331 -2.127555,-1.37244 z M 34.8125,180.31689 c 0.721875,-0.28887 1.584375,-0.25335 1.916667,0.0789 0.332291,0.33229 -0.258334,0.56864 -1.3125,0.52522 -1.164943,-0.048 -1.4019,-0.28494 -0.604167,-0.60416 z m 24.660508,-3.36056 C 59.147935,176.43035 59.808524,176 60.940983,176 c 2.414565,0 2.658155,0.55611 0.591042,1.34934 -0.807386,0.30982 -1.733944,0.13297 -2.059017,-0.39301 z M 159,175.61663 c 0,-0.21085 0.90062,-0.61888 2.00138,-0.90674 1.10076,-0.28785 1.7492,-0.11534 1.44098,0.38337 C 161.90411,175.96417 159,176.4057 159,175.61663 Z m -6.73752,-4.43325 C 150.66554,170.16911 149.90506,18.024832 151.5,18.64022 c 0.65023,0.250883 1.11757,26.701395 1.33613,75.622809 0.18487,41.380331 0.49315,75.395261 0.68507,75.588711 0.19193,0.19346 1.50285,0.41846 2.91317,0.5 1.41032,0.0815 2.56454,0.48576 2.56492,0.89826 9.4e-4,0.98902 -5.15501,0.93804 -6.73681,-0.0666 z M 160,169.60699 c 0,-0.21616 0.69837,-0.661 1.55194,-0.98855 0.88992,-0.34149 1.29132,-0.17385 0.94098,0.39301 C 161.90566,169.96166 160,170.4169 160,169.60699 Z M 7.0789474,159.41667 c 0.047984,-1.16495 0.2849403,-1.4019 0.6041666,-0.60417 0.2888706,0.72187 0.2533443,1.58437 -0.078947,1.91667 -0.3322917,0.33229 -0.5686404,-0.25834 -0.5252196,-1.3125 z M 85.872445,158.25 c -1.214319,-1.54837 -1.189022,-1.60698 0.219564,-0.50868 0.875605,0.68273 1.960252,0.90773 2.410326,0.5 0.450073,-0.40772 0.494612,-0.17882 0.09897,0.50868 -0.929787,1.61569 -1.09309,1.58577 -2.728863,-0.5 z M 110,158.62244 c 0,-0.20765 0.7875,-0.99515 1.75,-1.75 1.58606,-1.24387 1.62143,-1.2085 0.37756,0.37756 C 110.82119,158.91575 110,159.44548 110,158.62244 Z M 163.40249,137 c 0,-8.525 0.15337,-12.0125 0.34082,-7.75 0.18745,4.2625 0.18745,11.2375 0,15.5 -0.18745,4.2625 -0.34082,0.775 -0.34082,-7.75 z M 60.564293,149.29313 c -0.542685,-1.4252 -0.427821,-1.54006 0.559795,-0.5598 0.683418,0.67834 0.990671,1.48524 0.682784,1.79313 -0.307887,0.30789 -0.867048,-0.24711 -1.242579,-1.23333 z m 21,0.41374 c 0.375531,-0.98622 0.934692,-1.54122 1.242579,-1.23333 0.307887,0.30789 6.34e-4,1.11479 -0.682784,1.79313 -0.987616,0.98026 -1.10248,0.8654 -0.559795,-0.5598 z M 21,149.62244 c 0,-0.20765 0.7875,-0.99515 1.75,-1.75 1.586056,-1.24387 1.621426,-1.2085 0.377555,0.37756 C 21.821186,149.91575 21,150.44548 21,149.62244 Z m -10,-3 c 0,-0.20765 0.7875,-0.99515 1.75,-1.75 1.586056,-1.24387 1.621426,-1.2085 0.377555,0.37756 C 11.821186,146.91575 11,147.44548 11,146.62244 Z M 80.157895,145 c 0,-1.375 0.226973,-1.9375 0.504386,-1.25 0.277412,0.6875 0.277412,1.8125 0,2.5 -0.277413,0.6875 -0.504386,0.125 -0.504386,-1.25 z m 35.999995,0 c 0,-1.375 0.22698,-1.9375 0.50439,-1.25 0.27741,0.6875 0.27741,1.8125 0,2.5 -0.27741,0.6875 -0.50439,0.125 -0.50439,-1.25 z m -21.699009,-1.06653 c -0.362533,-0.58659 -0.444683,-1.281 -0.182555,-1.54313 0.262128,-0.26213 0.743066,0.21781 1.068751,1.06653 0.676184,1.76211 0.09985,2.07206 -0.886196,0.4766 z M 69.361117,133.77528 C 69.097584,133.34888 70.258524,133 71.940983,133 73.623442,133 75,133.44496 75,133.9888 c 0,1.13807 -4.918662,0.95182 -5.638883,-0.21352 z m 16.064505,-0.46947 c 0.14577,-0.9932 0.597138,-1.73081 1.003041,-1.63914 1.518627,0.34295 1.576618,1.08406 0.175796,2.24664 -1.174214,0.97451 -1.394375,0.86105 -1.178837,-0.6075 z M 163.46502,69.5 c 1.7e-4,-28.6 0.12814,-40.15594 0.28439,-25.679868 0.15624,14.476073 0.1561,37.876073 -3.1e-4,52 C 163.59269,109.94406 163.46485,98.1 163.46502,69.5 Z M 31.26375,17.282419 c 1.520062,-0.229855 3.770062,-0.223712 5,0.01365 1.229937,0.237362 -0.01375,0.425424 -2.76375,0.417917 -2.75,-0.0075 -3.756313,-0.201713 -2.23625,-0.431567 z M 60,17.090748 c 0.825,-0.583067 3.4125,-1.067013 5.75,-1.075435 C 68.0875,16.006891 70,15.55 70,15 c 0,-0.55 0.675,-1 1.5,-1 1.581497,0 2.047863,1.543368 0.715239,2.366975 -0.431619,0.266755 -3.694119,0.777258 -7.25,1.134452 C 60.285725,17.971492 58.914306,17.858061 60,17.090748 Z M 44.75,15.337719 c 0.6875,-0.277412 1.8125,-0.277412 2.5,0 0.6875,0.277413 0.125,0.504386 -1.25,0.504386 -1.375,0 -1.9375,-0.226973 -1.25,-0.504386 z m 9.519032,-0.03071 c 0.972967,-0.253543 2.322967,-0.236869 3,0.03705 C 57.946064,15.617986 57.15,15.825431 55.5,15.805051 53.85,15.784672 53.296064,15.560553 54.269032,15.307009 Z"
         id="path2651" />
      <path
         style="fill:#a3a3a3;fill-opacity:1"
         d="M 26.444154,188.57698 C 19.883129,186.26466 14.198044,181.22065 10.801996,174.6987 8.1828551,169.66876 8.0370908,169.0457 7.8311245,162 c -0.2522804,-8.63002 1.5124581,-13.11295 7.5950125,-19.29346 7.819192,-7.94513 18.145986,-11.05218 26.837781,-8.07478 2.070155,0.70914 3.870155,1.3198 4,1.35703 0.129845,0.0372 1.248582,0.33247 2.486082,0.65608 1.2375,0.32362 2.25,0.91368 2.25,1.31125 0,0.39757 1.072863,1.21168 2.38414,1.80914 2.168581,0.98807 8.53695,10.60045 9.430764,14.23474 1.742755,7.08613 -0.165321,20.03079 -3.277451,22.23469 -0.570599,0.40408 -0.648804,0.74158 -0.173789,0.75 2.254809,0.04 -10.114988,10.02558 -14.006238,11.30663 -5.113599,1.68346 -14.54302,1.82588 -18.913272,0.28566 z M 44,178.45563 c 1.375,-0.70239 3.708872,-2.55475 5.186382,-4.11635 7.65797,-8.09383 6.072226,-21.83092 -3.23072,-27.98732 -14.275148,-9.44685 -31.761748,2.87678 -28.529511,20.10608 1.579903,8.42161 15.584398,18.13002 15.567526,10.79196 -0.0046,-2.00037 -0.816686,-3.21109 -2.979129,-4.44151 C 16.75627,165.2646 25.09334,145.45791 39.525029,150.21409 44.056239,151.70741 48,156.81032 48,161.18 48,167.59149 42.694788,175.64114 36.88252,178.04866 35.297134,178.70535 34,179.65844 34,180.16663 c 0,1.15109 6.611764,0.0198 10,-1.711 z m 109.76166,-3.16289 c 1.24391,-0.23919 3.04391,-0.23011 4,0.0202 0.95609,0.25029 -0.0617,0.446 -2.26166,0.4349 -2.2,-0.0111 -2.98225,-0.21589 -1.73834,-0.45508 z M 152.96235,145.75 C 152.82159,55.087912 152.41101,19.434621 151.5,18.765313 c -0.61465,-0.451573 -0.50621,-0.740588 0.28138,-0.75 0.70477,-0.0084 1.4915,0.547187 1.7483,1.234687 0.79746,2.134975 1.01467,150.7503 0.22032,150.75014 -0.4125,-7e-5 -0.76694,-10.91264 -0.78765,-24.25014 z m 8.8129,-49.595273 C 161.92664,56.194627 162.19672,22.375 162.37542,21 c 0.1787,-1.375 0.39234,31.110942 0.47475,72.190983 0.0824,41.080037 -0.18767,74.899667 -0.60017,75.154727 -0.4125,0.25506 -0.62614,-32.23088 -0.47475,-72.190983 z M 93.507079,162.01145 c -0.350339,-0.56686 0.05106,-0.7345 0.940983,-0.39301 1.732417,0.66479 2.049387,1.38156 0.610955,1.38156 -0.517541,0 -1.215913,-0.44485 -1.551938,-0.98855 z M 101,162.60699 c 0,-0.21616 0.69837,-0.661 1.55194,-0.98855 0.88992,-0.34149 1.29132,-0.17385 0.94098,0.39301 C 102.90566,162.96166 101,163.4169 101,162.60699 Z m 4.73333,-1.73108 c 0.67834,-0.68342 1.48524,-0.99067 1.79313,-0.68278 0.30789,0.30789 -0.24711,0.86705 -1.23333,1.24258 -1.4252,0.54268 -1.54006,0.42782 -0.5598,-0.5598 z m 5.30187,-4.49195 c 1.35564,-1.71382 3.0337,-3.96382 3.72902,-5 0.74617,-1.11196 0.68568,-0.65367 -0.14762,1.1184 -0.77651,1.6513 -2.45457,3.9013 -3.72902,5 -2.23802,1.92939 -2.23297,1.89118 0.14762,-1.1184 z M 83.5,155 c -0.339919,-0.55 -0.141476,-1 0.440983,-1 C 84.523442,154 85,154.45 85,155 c 0,0.55 -0.198442,1 -0.440983,1 -0.242541,0 -0.719098,-0.45 -1.059017,-1 z m -2.047243,-5.40014 c -0.350828,-1.87007 -0.42342,-4.23257 -0.161315,-5.25 0.271021,-1.05203 0.526586,-0.41981 0.592557,1.46588 0.0638,1.82366 0.581834,4.18616 1.151185,5.25 0.666728,1.24579 0.682856,1.93426 0.04531,1.93426 -0.544429,0 -1.276912,-1.53006 -1.62774,-3.40014 z M 103.81218,147.75 c -0.23153,-1.2375 -0.12311,-3.375 0.24095,-4.75 0.4843,-1.82914 0.67779,-1.22536 0.72106,2.25 0.064,5.13854 -0.29419,6.06933 -0.96201,2.5 z m -5.696179,0.61431 C 98.052201,147.73968 98.63,146.01429 99.4,144.53011 l 1.4,-2.6985 -0.0232,3.83419 c -0.017,2.8143 -0.22057,3.3022 -0.76521,1.8342 l -0.742026,-2 -0.51879,2 c -0.285335,1.1 -0.570992,1.48894 -0.634793,0.86431 z M 115.232,145 c 0,-1.925 0.2058,-2.7125 0.45733,-1.75 0.25152,0.9625 0.25152,2.5375 0,3.5 -0.25153,0.9625 -0.45733,0.175 -0.45733,-1.75 z M 81,139.94098 c 0,-0.58246 0.45,-0.7809 1,-0.44098 0.55,0.33992 1,0.81648 1,1.05902 C 83,140.80156 82.55,141 82,141 c -0.55,0 -1,-0.47656 -1,-1.05902 z M 33.5,17 l -5,-0.685793 5,-0.141791 C 36.25,16.094431 39.175,16.466844 40,17 c 1.73959,1.124209 1.696425,1.124209 -6.5,0 z m 20,-0.05737 c 2.2,-0.455055 4.9,-0.846414 6,-0.869689 1.652018,-0.03495 1.739014,0.126346 0.5,0.927058 -0.825,0.533156 -3.525,0.924516 -6,0.869688 l -4.5,-0.09969 4,-0.827371 z m 100.25,-1.666027 c 1.7875,-0.221826 4.7125,-0.221826 6.5,0 1.7875,0.221827 0.325,0.403322 -3.25,0.403322 -3.575,0 -5.0375,-0.181495 -3.25,-0.403322 z"
         id="path2649" />
      <path
         style="fill:#8c8c8c;fill-opacity:1"
         d="m 154.68021,169.34687 c -0.35922,-0.35922 -0.65945,-34.15255 -0.66717,-75.09629 -0.008,-40.943741 -0.26536,-74.849833 -0.57255,-75.346872 -0.30719,-0.49704 -0.19447,-0.896817 0.25049,-0.888395 3.06136,0.05794 3.22097,1.872093 3.45467,39.265867 C 157.2753,78.026531 157.70375,95 158.09776,95 c 0.39401,0 0.7697,-16.968045 0.83485,-37.706767 0.11557,-36.783242 0.30312,-39.185011 3.06739,-39.279742 0.275,-0.0094 0.39083,2.571185 0.25741,5.734687 -0.13343,3.163502 -0.35843,36.930842 -0.5,75.038534 -0.22406,60.310498 -0.45174,69.409528 -1.75741,70.234688 -1.74501,1.10282 -4.38116,1.2641 -5.31979,0.32547 z M 159,97 c 0,-0.55 -0.47656,-1 -1.05902,-1 -0.58246,0 -0.7809,0.45 -0.44098,1 0.33992,0.55 0.81648,1 1.05902,1 C 158.80156,98 159,97.55 159,97 Z m -61.730968,65.30701 c 0.972967,-0.25354 2.322967,-0.23687 2.999998,0.0371 0.67703,0.27393 -0.11903,0.48137 -1.76903,0.46099 -1.65,-0.0204 -2.203936,-0.2445 -1.230968,-0.49804 z M 86.404988,157.75 84.5,155.5 l 2.25,1.90499 C 88.864445,159.19521 89.455241,160 88.654988,160 c -0.189757,0 -1.202257,-1.0125 -2.25,-2.25 z m -2.840695,-22.04313 c 0.375531,-0.98622 0.934692,-1.54122 1.242579,-1.23333 0.307887,0.30789 6.34e-4,1.11479 -0.682784,1.79313 -0.987616,0.98026 -1.10248,0.8654 -0.559795,-0.5598 z M 109.69424,132.4684 C 108.15107,131.11078 107.28512,130 107.76992,130 c 0.4848,0 1.93833,1.125 3.23008,2.5 2.98862,3.18124 2.32802,3.16525 -1.30576,-0.0316 z M 91.333333,115.33333 C 91.333333,114.6 91.660188,114 92.059678,114 c 0.399489,0 0.956586,0.6 1.237992,1.33333 0.281407,0.73334 -0.04545,1.33334 -0.726344,1.33334 -0.680896,0 -1.237993,-0.6 -1.237993,-1.33334 z M 40.351003,17.234687 c -0.631948,-0.404078 2.743052,-0.788103 7.5,-0.85339 6.822889,-0.09364 7.804456,0.05254 4.648997,0.69237 -5.09437,1.032977 -10.669754,1.106872 -12.148997,0.16102 z"
         id="path2647" />
      <path
         style="fill:#767676;fill-opacity:1"
         d="m 153.77643,177.2665 c 2.35204,-0.21124 5.95204,-0.20827 8,0.007 2.04796,0.21487 0.12357,0.38771 -4.27643,0.38408 -4.4,-0.004 -6.07561,-0.17944 -3.72357,-0.39069 z M 94.5,150 c 0.339919,-0.55 1.041476,-1 1.559017,-1 C 96.576558,149 97,149.45 97,150 c 0,0.55 -0.701558,1 -1.559017,1 -0.857459,0 -1.280902,-0.45 -0.940983,-1 z m 6.5,0 c 0,-0.55 0.45,-1 1,-1 0.55,0 1,0.45 1,1 0,0.55 -0.45,1 -1,1 -0.55,0 -1,-0.45 -1,-1 z m -6.5,-9 c -0.339919,-0.55 0.08352,-1 0.940983,-1 C 96.298442,140 97,140.45 97,141 c 0,0.55 -0.423442,1 -0.940983,1 -0.517541,0 -1.219098,-0.45 -1.559017,-1 z m 6,0 c -0.33992,-0.55 0.33508,-1 1.5,-1 1.16492,0 1.83992,0.45 1.5,1 -0.33992,0.55 -1.01492,1 -1.5,1 -0.48508,0 -1.16008,-0.45 -1.5,-1 z M 85,133.62244 c 0,-0.20765 0.7875,-0.99515 1.75,-1.75 1.586056,-1.24387 1.621426,-1.2085 0.377555,0.37756 C 85.821186,133.91575 85,134.44548 85,133.62244 Z m 11.8125,-18.30555 c 0.721875,-0.28887 1.584375,-0.25335 1.916667,0.0789 0.332291,0.3323 -0.258334,0.56864 -1.3125,0.52522 -1.164943,-0.048 -1.4019,-0.28494 -0.604167,-0.60416 z m 5,0 c 0.72187,-0.28887 1.58437,-0.25335 1.91667,0.0789 0.33229,0.3323 -0.25834,0.56864 -1.3125,0.52522 -1.16495,-0.048 -1.4019,-0.28494 -0.60417,-0.60416 z M 157.5,97 c -0.33992,-0.55 -0.14148,-1 0.44098,-1 0.58246,0 1.05902,0.45 1.05902,1 0,0.55 -0.19844,1 -0.44098,1 -0.24254,0 -0.7191,-0.45 -1.05902,-1 z m -0.35435,-39.71882 c -0.17571,-28.114189 -0.54256,-37.913838 -1.44069,-38.484687 -0.68932,-0.438126 0.29281,-0.765867 2.29504,-0.765867 2.04989,0 2.99269,0.322304 2.27554,0.77792 -0.92704,0.588965 -1.25324,9.936806 -1.34293,38.484687 C 158.86746,78.031955 158.49177,95 158.09776,95 157.70375,95 157.2753,78.026531 157.14565,57.28118 Z M 43.25,16.310674 c 0.9625,-0.251527 2.5375,-0.251527 3.5,0 0.9625,0.251528 0.175,0.457323 -1.75,0.457323 -1.925,0 -2.7125,-0.205795 -1.75,-0.457323 z"
         id="path2645" />
      <path
         style="fill:#606060;fill-opacity:1"
         d="m 93,146.05902 c 0,-2.16754 0.3375,-4.14957 0.75,-4.40451 0.4125,-0.25494 0.75,1.5185 0.75,3.94098 C 94.5,148.01797 94.1625,150 93.75,150 93.3375,150 93,148.22656 93,146.05902 Z M 99,148 c 0,-1.1 0.172516,-2 0.383369,-2 0.210852,0 0.618721,0.9 0.906381,2 0.28766,1.1 0.11514,2 -0.38337,2 C 99.407871,150 99,149.1 99,148 Z m 0,-5.5 c 0,-0.825 0.435877,-1.5 0.968615,-1.5 0.532735,0 0.709595,0.675 0.393015,1.5 -0.31659,0.825 -0.752463,1.5 -0.968619,1.5 C 99.176855,144 99,143.325 99,142.5 Z"
         id="path2643" />
      <path
         style="fill:#494949;fill-opacity:1"
         d="m 152.8125,176.31689 c 0.72187,-0.28887 1.58437,-0.25335 1.91667,0.0789 0.33229,0.33229 -0.25834,0.56864 -1.3125,0.52522 -1.16495,-0.048 -1.4019,-0.28494 -0.60417,-0.60416 z m 8,0 c 0.72187,-0.28887 1.58437,-0.25335 1.91667,0.0789 0.33229,0.33229 -0.25834,0.56864 -1.3125,0.52522 -1.16495,-0.048 -1.4019,-0.28494 -0.60417,-0.60416 z M 95.5,146 c -1.630408,-0.70061 -1.687513,-0.87242 -0.309017,-0.92971 C 96.121024,145.03163 97.160081,145.45 97.5,146 c 0.710664,1.14988 0.675913,1.14988 -2,0 z M 151.65688,17.25 c -0.25364,-0.4125 2.41054,-0.804542 5.9204,-0.871204 3.50985,-0.06666 6.13926,0.270838 5.84312,0.75 -0.65699,1.063029 -11.11814,1.170814 -11.76352,0.121204 z"
         id="path2641" />
      <path
         style="fill:#333333;fill-opacity:1"
         d="m 156.26903,176.30701 c 0.97297,-0.25354 2.32297,-0.23687 3,0.0371 0.67703,0.27393 -0.11903,0.48137 -1.76903,0.46099 -1.65,-0.0204 -2.20394,-0.2445 -1.23097,-0.49804 z M 153.75,16.337719 c 0.6875,-0.277412 1.8125,-0.277412 2.5,0 0.6875,0.277413 0.125,0.504386 -1.25,0.504386 -1.375,0 -1.9375,-0.226973 -1.25,-0.504386 z"
         id="path2639" />
    </g>
  </g>
</svg>
