<?xml version="1.0" encoding="UTF-8" standalone="no"?>
<!-- Created with Inkscape (http://www.inkscape.org/) -->

<svg
   width="100mm"
   height="100mm"
   viewBox="0 0 100 100"
   version="1.1"
   id="svg6795"
   inkscape:version="1.1.1 (3bf5ae0d25, 2021-09-20)"
   sodipodi:docname="add_list_type_device_7014.svg"
   xmlns:inkscape="http://www.inkscape.org/namespaces/inkscape"
   xmlns:sodipodi="http://sodipodi.sourceforge.net/DTD/sodipodi-0.dtd"
   xmlns="http://www.w3.org/2000/svg"
   xmlns:svg="http://www.w3.org/2000/svg">
  <sodipodi:namedview
     id="namedview6797"
     pagecolor="#505050"
     bordercolor="#ffffff"
     borderopacity="1"
     inkscape:pageshadow="0"
     inkscape:pageopacity="0"
     inkscape:pagecheckerboard="1"
     inkscape:document-units="mm"
     showgrid="false"
     inkscape:zoom="0.58974467"
     inkscape:cx="397.62971"
     inkscape:cy="228.91262"
     inkscape:window-width="1440"
     inkscape:window-height="890"
     inkscape:window-x="-6"
     inkscape:window-y="-6"
     inkscape:window-maximized="1"
     inkscape:current-layer="layer1" />
  <defs
     id="defs6792" />
  <g
     inkscape:label="Laag 1"
     inkscape:groupmode="layer"
     id="layer1">
    <g
       id="g6811"
       transform="translate(1.7945648,0.89728098)">
      <path
         style="fill:#d0d0d0;fill-opacity:1;stroke-width:0.59691"
         d="m 19.04214,93.251288 c 0.19404,-0.313963 0.747111,-0.419526 1.229047,-0.234592 1.23388,0.473487 1.088479,0.805434 -0.352798,0.805434 -0.675976,0 -1.070288,-0.25688 -0.876249,-0.570842 z m -4.536849,-4.652117 c -0.742478,-0.946734 -0.721366,-0.967847 0.225367,-0.225369 0.574525,0.450577 1.044591,0.920643 1.044591,1.044592 0,0.49128 -0.490173,0.175079 -1.269958,-0.819223 z M 9.9446381,84.271576 c 0,-1.149051 0.1228409,-1.619117 0.2729809,-1.044591 0.150138,0.574525 0.150138,1.514658 0,2.089183 -0.15014,0.574526 -0.2729809,0.104459 -0.2729809,-1.044592 z m 18.5041979,0 c 0,-1.149051 0.122841,-1.619117 0.27298,-1.044591 0.150139,0.574525 0.150139,1.514658 0,2.089183 -0.150139,0.574526 -0.27298,0.104459 -0.27298,-1.044592 z M 18.312115,74.906465 c 0.574526,-0.150135 1.514658,-0.150135 2.089184,0 0.574525,0.15014 0.104459,0.272984 -1.044592,0.272984 -1.149051,0 -1.619117,-0.122844 -1.044592,-0.272984 z"
         id="path6823" />
      <path
         style="fill:#b9b9b9;fill-opacity:1;stroke-width:0.59691"
         d="m 16.969069,93.593293 c 0,-0.125858 0.537589,-0.369415 1.194642,-0.541242 0.657054,-0.17182 1.044115,-0.06885 0.860137,0.228837 -0.321287,0.519855 -2.054779,0.783408 -2.054779,0.312405 z m 30.90585,-3.790454 c 1.403954,-0.126091 3.552828,-0.124318 4.775277,0.0042 1.222448,0.128258 0.07376,0.231428 -2.552644,0.229261 -2.626403,-0.0024 -3.626587,-0.10711 -2.222633,-0.233207 z m -5.387965,-0.554397 c 0.410375,-0.165589 1.081899,-0.165589 1.492274,0 0.410376,0.165588 0.07461,0.301075 -0.746137,0.301075 -0.820751,0 -1.156512,-0.135487 -0.746137,-0.301075 z m 13.728921,0 c 0.410375,-0.165589 1.081899,-0.165589 1.492274,0 0.410375,0.165588 0.07461,0.301075 -0.746137,0.301075 -0.820751,0 -1.156512,-0.135487 -0.746137,-0.301075 z M 12.837826,84.520291 c 0.02864,-0.69537 0.170084,-0.836808 0.360633,-0.360635 0.172429,0.430891 0.151223,0.945726 -0.04713,1.144079 -0.198349,0.198347 -0.339428,-0.154206 -0.313509,-0.783444 z M 10.497312,57.410644 c 0,-0.82075 0.135482,-1.156512 0.301073,-0.746137 0.16559,0.410376 0.16559,1.081899 0,1.492274 -0.165591,0.410376 -0.301073,0.07461 -0.301073,-0.746137 z m 78.195155,0 c 0,-0.82075 0.135487,-1.156512 0.301075,-0.746137 0.165589,0.410376 0.165589,1.081899 0,1.492274 -0.165588,0.410376 -0.301075,0.07461 -0.301075,-0.746137 z M 10.01078,50.546184 c 0.0021,-2.626402 0.10711,-3.626587 0.233205,-2.222633 0.126094,1.403954 0.12432,3.552829 -0.0039,4.775277 -0.128265,1.222448 -0.231433,0.07376 -0.229265,-2.552644 z m 79.388977,0 c 0.0024,-2.626402 0.10711,-3.626587 0.233207,-2.222633 0.126091,1.403954 0.124318,3.552829 -0.0042,4.775277 -0.128026,1.222448 -0.231195,0.07376 -0.229029,-2.552644 z M 10.497312,43.681723 c 0,-0.82075 0.135482,-1.156512 0.301073,-0.746137 0.16559,0.410376 0.16559,1.081899 0,1.492274 -0.165591,0.410376 -0.301073,0.07461 -0.301073,-0.746137 z m 78.195155,0 c 0,-0.82075 0.135487,-1.156512 0.301075,-0.746137 0.165589,0.410376 0.165589,1.081899 0,1.492274 -0.165588,0.410376 -0.301075,0.07461 -0.301075,-0.746137 z M 42.486954,11.053283 c 0.410375,-0.16559 1.081899,-0.16559 1.492274,0 0.410376,0.16559 0.07461,0.301073 -0.746137,0.301073 -0.820751,0 -1.156512,-0.135483 -0.746137,-0.301073 z m 13.728921,0 c 0.410375,-0.16559 1.081899,-0.16559 1.492274,0 0.410375,0.16559 0.07461,0.301073 -0.746137,0.301073 -0.820751,0 -1.156512,-0.135483 -0.746137,-0.301073 z m -8.340956,-0.639419 c 1.403954,-0.126094 3.552828,-0.12432 4.775277,0.0039 1.222448,0.128265 0.07376,0.231433 -2.552644,0.229265 -2.626403,-0.0021 -3.626587,-0.10711 -2.222633,-0.233204 z"
         id="path6821" />
      <path
         style="fill:#a3a3a3;fill-opacity:1;stroke-width:0.59691"
         d="M 15.668136,97.777999 C 6.3976205,95.237725 2.4187905,84.477665 7.7510568,76.367622 c 1.7648575,-2.684237 5.5778262,-5.331836 7.8594742,-5.457348 0.911346,-0.05014 1.996619,-0.305904 2.411719,-0.568377 1.262642,-0.798385 7.071501,0.759323 9.563586,2.56458 1.291031,0.93522 2.907688,2.607081 3.592572,3.715243 1.644891,2.661489 2.566848,6.751466 1.714127,7.604187 -0.458834,0.458832 -0.45416,0.831 0.01635,1.301508 0.480631,0.480631 0.42767,1.337632 -0.195728,3.167208 -2.385658,7.001517 -9.943722,11.029248 -17.045019,9.083376 z M 24.918183,91.85668 C 30.733412,87.421188 29.810294,78.775806 23.18581,75.632283 16.818718,72.6109 9.1656681,78.175936 9.9627513,85.247637 10.775583,92.459063 19.230054,96.195228 24.918183,91.85668 Z m -6.755295,0.362748 c 0,-0.532575 -1.074438,-1.960233 -2.387639,-3.172575 -2.061966,-1.903598 -2.387638,-2.548696 -2.387638,-4.7295 0,-5.483378 6.328865,-8.134576 10.193379,-4.270058 3.718465,3.71846 1.34065,10.653792 -4.37351,12.756131 -0.723507,0.266192 -1.044592,0.08668 -1.044592,-0.583998 z m 13.373752,-20.632181 -1.137105,-1.343046 1.343046,1.137107 c 1.262133,1.068599 1.614785,1.548986 1.137106,1.548986 -0.113268,0 -0.717639,-0.604371 -1.343047,-1.343047 z m 35.87129,0.149228 c 0.594218,-0.656601 1.214699,-1.193819 1.378849,-1.193819 0.164151,0 -0.187722,0.537218 -0.781939,1.193819 -0.594218,0.6566 -1.214699,1.193819 -1.378849,1.193819 -0.164151,0 0.187722,-0.537219 0.781939,-1.193819 z m -32.886742,-1.939956 -1.137105,-1.343047 1.343046,1.137107 c 1.262133,1.068599 1.614785,1.548986 1.137106,1.548986 -0.113268,0 -0.717639,-0.604371 -1.343047,-1.343046 z m 29.902194,0.149227 c 0.594218,-0.656601 1.214699,-1.193819 1.378849,-1.193819 0.164151,0 -0.187722,0.537218 -0.781939,1.193819 -0.594218,0.656601 -1.214699,1.193819 -1.37885,1.193819 -0.16415,0 0.187723,-0.537218 0.78194,-1.193819 z M 27.955183,68.00579 26.818077,66.662743 28.161124,67.79985 c 1.262132,1.068599 1.614784,1.548986 1.137105,1.548986 -0.113268,0 -0.717638,-0.604371 -1.343046,-1.343046 z m 43.034205,0.149227 c 0.594217,-0.6566 1.214699,-1.193819 1.378849,-1.193819 0.16415,0 -0.187722,0.537219 -0.78194,1.193819 -0.594217,0.656601 -1.214699,1.193819 -1.378849,1.193819 -0.16415,0 0.187722,-0.537218 0.78194,-1.193819 z M 31.81567,67.707335 c -0.742479,-0.946735 -0.721366,-0.967847 0.225366,-0.225369 0.574526,0.450577 1.044592,0.920643 1.044592,1.044592 0,0.49128 -0.490174,0.175079 -1.269958,-0.819223 z m 34.696896,0.819223 c 0,-0.123949 0.470066,-0.594015 1.044592,-1.044592 0.946734,-0.742478 0.967847,-0.721366 0.225369,0.225369 -0.779785,0.994302 -1.269961,1.310503 -1.269961,0.819223 z m -36.766655,-3.505316 -1.137105,-1.343047 1.343046,1.137107 c 1.262133,1.068599 1.614785,1.548986 1.137106,1.548986 -0.113268,0 -0.717639,-0.604371 -1.343047,-1.343046 z m 39.452748,0.149227 c 0.594218,-0.6566 1.214699,-1.193819 1.378849,-1.193819 0.16415,0 -0.187722,0.537219 -0.781939,1.193819 -0.594218,0.656601 -1.2147,1.193819 -1.37885,1.193819 -0.16415,0 0.187722,-0.537218 0.78194,-1.193819 z M 29.802625,35.324989 c 0.594215,-0.656601 1.214696,-1.193819 1.378846,-1.193819 0.16415,0 -0.187721,0.537218 -0.781936,1.193819 -0.594216,0.6566 -1.214696,1.193819 -1.378847,1.193819 -0.16415,0 0.187722,-0.537219 0.781937,-1.193819 z m 39.339322,-0.149228 -1.137107,-1.343046 1.343046,1.137105 c 1.26213,1.068599 1.614784,1.548988 1.137107,1.548988 -0.113269,0 -0.71764,-0.604371 -1.343046,-1.343047 z m -41.130051,-2.83532 c 0.594215,-0.656601 1.214696,-1.193819 1.378846,-1.193819 0.164151,0 -0.187721,0.537218 -0.781936,1.193819 -0.594215,0.6566 -1.214696,1.193819 -1.378846,1.193819 -0.164151,0 0.187721,-0.537219 0.781936,-1.193819 z m 3.283003,0.968453 c 0,-0.123952 0.470066,-0.594018 1.044592,-1.044592 0.946732,-0.742479 0.967845,-0.721366 0.225366,0.225366 -0.779784,0.994301 -1.269958,1.310503 -1.269958,0.819226 z m 35.738435,-0.819226 c -0.742478,-0.946732 -0.721366,-0.967845 0.225369,-0.225366 0.994302,0.779784 1.310503,1.269958 0.819222,1.269958 -0.123948,0 -0.594014,-0.470066 -1.044591,-1.044592 z m 3.899341,-0.298455 -1.137106,-1.343046 1.343046,1.137105 c 0.738676,0.625408 1.343047,1.229779 1.343047,1.343047 0,0.477679 -0.480387,0.125027 -1.548987,-1.137106 z M 34.577902,30.549712 c 0.594215,-0.656601 1.214696,-1.193819 1.378846,-1.193819 0.16415,0 -0.187721,0.537218 -0.781937,1.193819 -0.594215,0.656601 -1.214696,1.193819 -1.378846,1.193819 -0.16415,0 0.187722,-0.537218 0.781937,-1.193819 z m 29.788768,-0.149227 -1.137107,-1.343047 1.343047,1.137106 c 1.262129,1.068598 1.614783,1.548987 1.137106,1.548987 -0.113269,0 -0.71764,-0.604371 -1.343046,-1.343046 z M 31.593354,28.758983 c 0.594215,-0.6566 1.214696,-1.193819 1.378846,-1.193819 0.16415,0 -0.187721,0.537219 -0.781937,1.193819 -0.594215,0.656601 -1.214696,1.193819 -1.378846,1.193819 -0.16415,0 0.187722,-0.537218 0.781937,-1.193819 z m 35.757864,-0.149227 -1.137107,-1.343047 1.343047,1.137106 c 1.262129,1.068598 1.614783,1.548987 1.137106,1.548987 -0.113269,0 -0.71764,-0.604371 -1.343046,-1.343046 z"
         id="path6819" />
      <path
         style="fill:#767676;fill-opacity:1;stroke-width:0.59691"
         d="m 38.720102,54.724551 0.03617,-4.775277 h 2.089184 2.089183 l 0.03861,4.926292 0.03861,4.926292 -0.211975,-4.777065 -0.211977,-4.777064 h -1.742448 -1.742448 l -0.209535,4.626049 -0.209534,4.62605 z m 17.907289,0 0.03617,-4.775277 h 2.089184 2.089183 l 0.03861,4.926292 0.03861,4.926292 -0.211975,-4.777065 -0.211977,-4.777064 H 58.752748 57.0103 l -0.209535,4.626049 -0.209534,4.62605 z M 45.805693,40.398721 c 0.0033,-1.969802 0.114787,-2.703667 0.247635,-1.630812 0.13285,1.072856 0.130108,2.684512 -0.0061,3.581458 -0.136202,0.896946 -0.244897,0.01915 -0.241547,-1.950646 z m 7.759825,0 c 0.0033,-1.969802 0.114787,-2.703667 0.247635,-1.630812 0.13285,1.072856 0.130108,2.684512 -0.0061,3.581458 -0.136202,0.896946 -0.244897,0.01915 -0.241547,-1.950646 z"
         id="path6817" />
      <path
         style="fill:#606060;fill-opacity:1;stroke-width:0.59691"
         d="m 47.282241,87.412276 c 1.734581,-0.120964 4.420675,-0.119692 5.969096,0.003 1.548421,0.122354 0.129217,0.221316 -3.153785,0.219764 -3.283003,-0.0016 -4.549893,-0.101791 -2.815311,-0.222749 z m -5.392196,-0.551473 c 0.410375,-0.165588 1.081898,-0.165588 1.492274,0 0.410375,0.165589 0.07461,0.301075 -0.746137,0.301075 -0.820751,0 -1.156513,-0.135486 -0.746137,-0.301075 z m 14.92274,0 c 0.410375,-0.165588 1.081898,-0.165588 1.492274,0 0.410375,0.165589 0.07461,0.301075 -0.746137,0.301075 -0.820751,0 -1.156513,-0.135486 -0.746137,-0.301075 z M 39.539713,86.25146 c 0.430894,-0.172429 0.945729,-0.151227 1.144077,0.0471 0.198348,0.198347 -0.154202,0.339427 -0.783444,0.313509 -0.695366,-0.02865 -0.836808,-0.170083 -0.360633,-0.360629 z m 34.434223,-4.964432 c 0.594217,-0.6566 1.214699,-1.193819 1.378849,-1.193819 0.16415,0 -0.187722,0.537219 -0.78194,1.193819 -0.594217,0.656601 -1.214699,1.19382 -1.378849,1.19382 -0.16415,0 0.187722,-0.537219 0.78194,-1.19382 z m 2.089183,-1.380598 c 0,-0.102728 0.872981,-0.975708 1.939957,-1.939956 l 1.939956,-1.753177 -1.753177,1.939956 c -1.634208,1.808314 -2.126736,2.214326 -2.126736,1.753177 z m 4.476822,-5.185407 c 0.594218,-0.656601 1.2147,-1.193819 1.37885,-1.193819 0.16415,0 -0.187722,0.537218 -0.78194,1.193819 -0.594217,0.6566 -1.214699,1.193819 -1.378849,1.193819 -0.16415,0 0.187722,-0.537219 0.781939,-1.193819 z m -65.43774,-5.222959 c -0.742479,-0.946735 -0.721366,-0.967847 0.225366,-0.225369 0.994301,0.779784 1.310503,1.269961 0.819226,1.269961 -0.123952,0 -0.594018,-0.470067 -1.044592,-1.044592 z m 24.69866,-9.514337 c 0.574525,-0.150139 1.514658,-0.150139 2.089184,0 0.574525,0.150139 0.104459,0.27298 -1.044592,0.27298 -1.149051,0 -1.619118,-0.122841 -1.044592,-0.27298 z m 17.907288,0 c 0.574526,-0.150139 1.514658,-0.150139 2.089184,0 0.574525,0.150139 0.104459,0.27298 -1.044592,0.27298 -1.149051,0 -1.619117,-0.122841 -1.044592,-0.27298 z M 12.88495,58.007554 c 0,-0.820751 0.135483,-1.156512 0.301073,-0.746137 0.16559,0.410375 0.16559,1.081899 0,1.492274 -0.16559,0.410375 -0.301073,0.07461 -0.301073,-0.746137 z m 73.419879,0 c 0,-0.820751 0.135486,-1.156512 0.301075,-0.746137 0.165589,0.410375 0.165589,1.081899 0,1.492274 -0.165589,0.410375 -0.301075,0.07461 -0.301075,-0.746137 z m -73.893027,-7.46137 c 0.0016,-3.283003 0.101792,-4.549893 0.22275,-2.815311 0.120959,1.734581 0.119688,4.420675 -0.0028,5.969096 -0.122533,1.548421 -0.2215,0.129218 -0.219945,-3.153785 z m 74.6137,0 c 0.0018,-3.283003 0.101791,-4.549893 0.222748,-2.815311 0.120964,1.734581 0.119693,4.420675 -0.003,5.969096 -0.122355,1.548421 -0.221316,0.129218 -0.219764,-3.153785 z M 12.88495,43.084814 c 0,-0.820751 0.135483,-1.156513 0.301073,-0.746137 0.16559,0.410375 0.16559,1.081898 0,1.492274 -0.16559,0.410375 -0.301073,0.07461 -0.301073,-0.746137 z m 73.419879,0 c 0,-0.820751 0.135486,-1.156513 0.301075,-0.746137 0.165589,0.410375 0.165589,1.081898 0,1.492274 -0.165589,0.410375 -0.301075,0.07461 -0.301075,-0.746137 z M 13.434735,40.348978 c 0.02864,-0.695365 0.170084,-0.836807 0.360633,-0.360633 0.17243,0.430894 0.151224,0.945729 -0.04713,1.144077 -0.198348,0.198348 -0.339427,-0.154202 -0.313509,-0.783444 z m 72.226064,0 c 0.02865,-0.695365 0.170084,-0.836807 0.360629,-0.360633 0.172429,0.430894 0.151227,0.945729 -0.0471,1.144077 -0.198353,0.198348 -0.339427,-0.154202 -0.313509,-0.783444 z M 47.859141,36.683916 c 1.066976,-0.13241 2.812936,-0.13241 3.879912,0 1.066976,0.13241 0.193996,0.240746 -1.939956,0.240746 -2.133952,0 -3.006932,-0.108336 -1.939956,-0.240746 z M 21.744345,22.491432 c 2.114984,-2.133951 3.97973,-3.879912 4.14388,-3.879912 0.16415,0 -1.431986,1.745961 -3.54697,3.879912 -2.114984,2.133952 -3.979729,3.879913 -4.14388,3.879913 -0.16415,0 1.431987,-1.745961 3.54697,-3.879913 z m 57.855052,2.238411 -1.447094,-1.641501 1.641501,1.447096 c 0.902826,0.795903 1.641502,1.534579 1.641502,1.641502 0,0.46814 -0.483378,0.08713 -1.835909,-1.447097 z m -4.775277,-4.775276 -1.447094,-1.641502 1.641502,1.447096 c 1.53423,1.35253 1.915238,1.835907 1.447094,1.835907 -0.106919,0 -0.845595,-0.738676 -1.641502,-1.641501 z m -3.01551,-2.387639 c -0.742478,-0.946732 -0.721365,-0.967845 0.22537,-0.225366 0.994302,0.779784 1.310503,1.269958 0.819222,1.269958 -0.123948,0 -0.594014,-0.470066 -1.044592,-1.044592 z M 39.539713,14.025395 c 0.430894,-0.172429 0.945729,-0.151223 1.144077,0.04713 0.198348,0.198349 -0.154202,0.339428 -0.783444,0.313509 -0.695366,-0.02864 -0.836808,-0.170084 -0.360633,-0.360633 z m 2.350332,-0.584474 c 0.410375,-0.16559 1.081898,-0.16559 1.492274,0 0.410375,0.165591 0.07461,0.301073 -0.746137,0.301073 -0.820751,0 -1.156513,-0.135482 -0.746137,-0.301073 z m 14.92274,0 c 0.410375,-0.16559 1.081898,-0.16559 1.492274,0 0.410375,0.165591 0.07461,0.301073 -0.746137,0.301073 -0.820751,0 -1.156513,-0.135482 -0.746137,-0.301073 z m -9.530544,-0.642348 c 1.734581,-0.120959 4.420675,-0.119687 5.969096,0.0028 1.548421,0.122533 0.129217,0.221499 -3.153785,0.219945 -3.283003,-0.0016 -4.549893,-0.101793 -2.815311,-0.222751 z"
         id="path6815" />
      <path
         style="fill:#333333;fill-opacity:1;stroke-width:0.59691"
         d="m 41.740817,88.80212 c -5.111251,-1.178216 -8.655189,-2.721716 -8.655189,-3.769609 0,-0.981397 -0.0073,-0.9828 5.670641,1.084352 4.946447,1.800822 14.132255,2.229971 19.403344,0.906497 7.08711,-1.779448 12.302895,-4.821018 17.948495,-10.466619 C 83.864776,68.800073 87.414072,60.62866 87.39558,50.570001 87.375416,39.602882 83.07316,30.11579 74.598261,22.350086 67.794369,16.115552 59.101126,12.642424 50.299977,12.642424 c -6.442424,0 -10.07123,0.874172 -16.564575,3.990371 -7.925771,3.80363 -13.747609,9.625468 -17.551239,17.551239 -3.1162,6.493345 -3.990371,10.122151 -3.990371,16.564575 0,5.491644 1.146042,10.357934 3.652245,15.508051 1.879531,3.862339 1.929161,5.098139 0.145577,3.624918 -1.44227,-1.1913 -3.782513,-6.755083 -4.743389,-11.277115 -1.8176532,-8.554161 -0.641615,-17.400631 3.412151,-25.667113 3.516299,-7.170472 10.65787,-14.312043 17.828342,-17.828342 19.968415,-9.7922305 42.571665,-1.99785 52.56666,18.126797 3.160982,6.364553 4.340135,12.143985 3.963575,19.426793 -0.518106,10.020376 -4.09517,17.882851 -11.50865,25.296337 -7.674019,7.674013 -15.414576,11.09455 -25.920477,11.4542 -3.966795,0.135797 -7.582269,-0.0885 -9.849009,-0.611015 z M 44.42691,77.650972 C 40.074627,76.807264 33.580364,73.254488 30.186353,69.860471 26.363171,66.037289 23.136133,59.711913 22.235276,54.27542 20.355309,42.930179 26.824287,30.7249 37.518801,25.439384 c 2.323703,-1.148436 6.037375,-2.3884 8.252605,-2.755476 11.345241,-1.879967 23.550521,4.589011 28.836036,15.283526 4.083912,8.263234 4.083912,16.297356 0,24.560588 C 69.08253,73.706927 56.529398,79.997083 44.42691,77.650972 Z m 9.615723,-2.942311 C 64.63165,72.700496 72.452085,64.694643 74.350043,53.919776 76.13094,43.809451 70.169407,32.439307 60.784997,28.04781 c -7.497627,-3.508563 -14.474174,-3.508563 -21.9718,0 -9.384412,4.391497 -15.345943,15.761641 -13.565044,25.871966 1.452386,8.245325 6.593725,15.265597 13.571069,18.530692 5.696971,2.665936 9.835977,3.279899 15.223411,2.258193 z M 39.054724,55.023006 v -4.775277 h 1.790729 1.790729 v 4.775277 4.775277 h -1.790729 -1.790729 z m 17.907288,0 v -4.775277 h 1.790729 1.790729 v 4.775277 4.775277 h -1.790729 -1.790729 z m -9.550554,-9.550554 c -0.928526,-0.928526 -1.193819,-1.989698 -1.193819,-4.775277 v -3.581457 h 3.581458 3.581457 v 3.581457 c 0,3.892724 -1.245823,5.969096 -3.581457,5.969096 -0.656601,0 -1.731038,-0.537218 -2.387639,-1.193819 z"
         id="path6813" />
    </g>
  </g>
</svg>
