<?xml version="1.0" encoding="UTF-8" standalone="no"?>
<!-- Created with Inkscape (http://www.inkscape.org/) -->

<svg
   width="100mm"
   height="100mm"
   viewBox="0 0 100 100"
   version="1.1"
   id="svg4778"
   inkscape:version="1.1.1 (3bf5ae0d25, 2021-09-20)"
   sodipodi:docname="add_list_type_device_618ac.svg"
   xmlns:inkscape="http://www.inkscape.org/namespaces/inkscape"
   xmlns:sodipodi="http://sodipodi.sourceforge.net/DTD/sodipodi-0.dtd"
   xmlns="http://www.w3.org/2000/svg"
   xmlns:svg="http://www.w3.org/2000/svg">
  <sodipodi:namedview
     id="namedview4780"
     pagecolor="#ffffff"
     bordercolor="#666666"
     borderopacity="1.0"
     inkscape:pageshadow="2"
     inkscape:pageopacity="0.0"
     inkscape:pagecheckerboard="0"
     inkscape:document-units="mm"
     showgrid="false"
     width="100mm"
     inkscape:zoom="0.58974467"
     inkscape:cx="378.97757"
     inkscape:cy="249.26041"
     inkscape:window-width="1440"
     inkscape:window-height="890"
     inkscape:window-x="-6"
     inkscape:window-y="-6"
     inkscape:window-maximized="1"
     inkscape:current-layer="layer1" />
  <defs
     id="defs4775" />
  <g
     inkscape:label="Laag 1"
     inkscape:groupmode="layer"
     id="layer1">
    <g
       id="g4794"
       transform="translate(-3.6589057,0.03809895)">
      <path
         style="fill:#d0d0d0;fill-opacity:1;stroke-width:0.591371"
         d="m 19.490415,93.281847 c -0.20718,-0.335224 0.0302,-0.434362 0.55647,-0.232414 1.024501,0.393137 1.211948,0.817014 0.361301,0.817014 -0.306058,0 -0.719055,-0.263071 -0.917771,-0.5846 z m -6.880383,-2.224412 c -0.735589,-0.937949 -0.714672,-0.958866 0.223275,-0.223278 0.569195,0.446397 1.034899,0.912101 1.034899,1.034899 0,0.486722 -0.485625,0.173455 -1.258174,-0.811621 z m 34.966313,0.471169 c -1.880204,-0.420872 -1.758323,-0.470447 1.330584,-0.541163 1.87021,-0.04282 3.400382,-0.343965 3.400382,-0.669219 0,-0.921728 2.726424,-0.694524 3.548226,0.295685 0.404905,0.487881 0.637077,0.896649 0.515938,0.90837 -3.81756,0.369417 -7.162332,0.371824 -8.79513,0.0063 z m -33.1922,-2.836652 c -0.735589,-0.93795 -0.714673,-0.958866 0.223275,-0.223278 0.569194,0.446396 1.034899,0.912101 1.034899,1.034899 0,0.486722 -0.485626,0.173455 -1.258174,-0.811621 z m 18.918372,-0.622607 c 0.680591,-0.476846 0.680591,-0.61473 0,-0.885389 -0.542417,-0.215708 -0.451457,-0.335857 0.278051,-0.367271 1.240344,-0.0534 1.049552,1.240608 -0.234084,1.587642 -0.702752,0.18999 -0.710372,0.131929 -0.04397,-0.334982 z m 12.067442,-0.526421 c 0.575384,-0.149936 1.373735,-0.140078 1.774112,0.02194 0.400377,0.161994 -0.07039,0.284668 -1.046153,0.272616 -0.975762,-0.01206 -1.303344,-0.14459 -0.727959,-0.294526 z m 3.684813,-0.181556 c -0.201331,-0.325757 0.218532,-0.591371 0.934803,-0.591371 0.71516,0 1.616813,-0.432872 2.003672,-0.96193 0.572756,-0.783288 0.941791,-0.834341 1.98715,-0.274881 1.867281,0.99934 1.581199,1.624265 -0.933872,2.039981 -3.032386,0.501222 -3.568667,0.472772 -3.991753,-0.211799 z m -5.324919,-1.186917 c -0.440823,-0.71327 1.128672,-1.415996 2.200713,-0.985354 0.417297,0.16763 0.144254,0.325792 -0.606763,0.351469 -0.751208,0.02568 -1.201067,0.312723 -0.999998,0.63806 0.201018,0.325254 0.232429,0.591371 0.0698,0.591371 -0.162627,0 -0.461317,-0.267998 -0.663754,-0.595546 z m 3.550806,0.0042 c 0.201018,-0.325254 0.48284,-0.591371 0.626272,-0.591371 0.143432,0 0.260784,0.266117 0.260784,0.591371 0,0.325254 -0.281822,0.591371 -0.626271,0.591371 -0.34445,0 -0.461803,-0.266117 -0.260785,-0.591371 z m 0.295686,-3.540691 c -1.778467,-0.380825 -1.544652,-0.454167 1.66117,-0.521057 2.491416,-0.05198 3.600578,-0.288826 3.3385,-0.712874 -0.216638,-0.350529 0.148002,-0.297501 0.813904,0.118363 0.663504,0.414362 1.107599,0.913207 0.986877,1.108542 -0.319683,0.517255 -4.397973,0.521471 -6.800451,0.007 z m -1.921956,-3.947412 c 0.406568,-0.164053 1.07186,-0.164053 1.478428,0 0.406567,0.164052 0.07392,0.298281 -0.739214,0.298281 -0.813135,0 -1.145781,-0.134229 -0.739214,-0.298281 z m 1.62627,-1.118342 c -1.695552,-1.07801 -1.946776,-1.389976 -0.887056,-1.101546 0.813135,0.22132 1.567133,0.63334 1.67555,0.915596 0.108419,0.282261 1.439003,0.531908 2.956855,0.55477 2.085733,0.0314 2.470874,0.165691 1.576989,0.549804 -1.919931,0.825021 -2.82572,0.668687 -5.322338,-0.918624 z m 30.849464,0.17941 c 0.255023,-0.406567 0.393959,-1.164178 0.308755,-1.683579 -0.235739,-1.437014 1.335883,-2.527661 2.178799,-1.512011 0.517662,0.623742 0.389453,1.171044 -0.555829,2.372775 -1.222394,1.554028 -2.816197,2.232904 -1.931725,0.822815 z m -3.493606,-3.291534 c -0.332912,-1.273068 1.617452,-3.912007 2.491847,-3.371601 0.895371,0.55337 0.711094,1.613449 -0.541471,3.11491 -1.343263,1.610173 -1.588008,1.642385 -1.950376,0.256691 z M 29.168416,73.907681 c -0.735589,-0.93795 -0.714672,-0.958867 0.223275,-0.223278 0.569194,0.446396 1.034899,0.912101 1.034899,1.034899 0,0.486722 -0.485626,0.173455 -1.258174,-0.811621 z m 6.627199,0.626273 c -0.06914,-1.043 0.778745,-1.371069 1.755661,-0.679307 0.709904,0.502683 0.685997,0.552949 -0.137871,0.289884 -0.548181,-0.17504 -1.125935,-5.56e-4 -1.283898,0.387744 -0.221419,0.54428 -0.297899,0.544664 -0.333892,0.0018 z m 11.189359,-1.365487 -1.478427,-1.156443 1.330584,-0.01313 c 0.731822,-0.0072 1.330584,0.252947 1.330584,0.578201 0,0.325254 0.782646,0.591371 1.739212,0.591371 0.956567,0 1.903681,0.266117 2.104699,0.591371 0.671425,1.08639 -3.510775,0.594363 -5.026652,-0.591371 z m 25.371205,-2.284394 c 0.663045,-0.931161 1.082563,-1.864788 0.932255,-2.074725 -0.150309,-0.209936 0.03016,-0.127032 0.401067,0.18423 0.759823,0.637664 -0.819226,3.583518 -1.920855,3.583518 -0.339902,0 -0.07551,-0.761863 0.587533,-1.693023 z M 25.186581,70.191938 c -0.767855,-0.639686 -1.141746,-1.163067 -0.830869,-1.163067 0.310876,0 1.046895,0.532234 1.635597,1.182742 1.352394,1.494376 1.002409,1.485819 -0.804728,-0.01969 z m -3.267992,-0.08853 c 0.170794,-0.276348 0.558263,-0.349352 0.861042,-0.162219 0.773739,0.478194 0.686616,0.664677 -0.310534,0.664677 -0.473574,0 -0.721302,-0.226105 -0.550508,-0.502458 z m 7.670677,-1.453862 c -0.311455,-0.811644 -0.224919,-0.848227 0.528101,-0.223278 1.026173,0.851651 1.132972,1.193978 0.372493,1.193978 -0.290455,0 -0.695723,-0.436816 -0.900594,-0.9707 z m 37.781994,0.353427 c -0.534316,-0.864537 0.826387,-2.339581 2.158214,-2.339581 1.404547,0 1.415103,0.723619 0.02886,1.978141 -1.259999,1.140281 -1.664426,1.207118 -2.187085,0.36144 z M 12.574582,67.442158 c 0.426896,-0.170829 0.936954,-0.149824 1.133461,0.04666 0.196508,0.196513 -0.152771,0.336277 -0.776174,0.3106 -0.688913,-0.02839 -0.829043,-0.168505 -0.357287,-0.357282 z M 33.82093,66.34377 c -0.891125,-0.826299 -1.620228,-1.674437 -1.620228,-1.884753 0,-0.210315 0.798351,0.382475 1.774113,1.317315 1.630208,1.56184 2.027836,2.069798 1.620227,2.069798 -0.08464,0 -0.882987,-0.676062 -1.774112,-1.50236 z m 30.478241,0.222071 c -0.513552,-0.618787 -0.428927,-1.133303 0.357975,-2.176523 0.880699,-1.167567 1.133847,-1.241654 1.74138,-0.509625 0.564676,0.68039 0.49105,1.128022 -0.357975,2.176523 -0.8843,1.09206 -1.184971,1.180056 -1.74138,0.509625 z M 27.469736,66.072017 c -0.532998,-0.34445 -0.605938,-0.576876 -0.182744,-0.582317 0.387372,-0.0047 0.868782,0.257063 1.0698,0.582317 0.453762,0.734205 0.24904,0.734205 -0.887056,0 z m 47.603224,-0.0035 c -0.606823,-0.981859 0.98879,-4.652178 1.87467,-4.312233 0.969948,0.372207 1.001687,1.426928 0.10233,3.4008 -0.726114,1.593656 -1.371483,1.891186 -1.977,0.911433 z M 16.122807,64.485203 c 0.426896,-0.170829 0.936954,-0.149823 1.133461,0.04666 0.196508,0.196512 -0.152771,0.336277 -0.776174,0.310599 -0.688913,-0.02839 -0.829043,-0.168505 -0.357287,-0.357282 z m 55.555578,-1.071439 c -0.160598,-0.840126 0.06057,-2.515081 0.491494,-3.722116 0.430926,-1.207035 0.816187,-3.126018 0.85614,-4.264407 0.03998,-1.138389 0.206873,-1.737152 0.370925,-1.330584 0.408845,1.013217 1.38246,0.933676 1.38246,-0.112942 0,-0.468686 0.2952,-1.034598 0.655996,-1.257583 1.322092,-0.817096 -0.997945,8.683054 -2.723967,11.154194 -0.68418,0.979534 -0.763448,0.943733 -1.033048,-0.466562 z M 20.577354,62.2025 c -0.192601,-0.501908 -0.218046,-1.044696 -0.05655,-1.206196 0.1615,-0.1615 0.435579,0.249152 0.609064,0.912561 0.368513,1.409197 -0.04094,1.626798 -0.552517,0.293635 z m 46.908478,-0.07306 c -0.633352,-0.633349 -0.453233,-2.077489 0.208133,-1.668743 0.814223,0.503216 2.437932,-3.382187 1.720428,-4.116833 -0.301783,-0.308891 -0.548698,-1.614191 -0.548698,-2.900566 0,-2.334979 0.0018,-2.337006 1.235965,-1.220332 1.397841,1.265027 1.267391,3.723372 -0.42157,7.9445 -0.925945,2.314159 -1.409651,2.746688 -2.194258,1.962075 z M 14.816177,61.242488 c 0.167515,-0.271045 0.554984,-0.492809 0.861043,-0.492809 0.306058,0 0.556469,0.221764 0.556469,0.492809 0,0.271045 -0.387469,0.49281 -0.861042,0.49281 -0.473574,0 -0.723985,-0.221765 -0.55647,-0.49281 z m -4.201111,-0.49378 C 10.38697,60.379641 9.8724416,60.203505 9.471669,60.357296 9.0708969,60.511087 8.7046568,60.329644 8.6578031,59.954084 7.7332782,52.543574 7.7206944,52.872245 8.9035952,53.534229 c 0.7281502,0.407494 1.3534808,1.816494 1.8051188,4.067308 0.696461,3.470937 0.669359,4.381742 -0.09365,3.147171 z m 3.25314,-1.477456 c -0.813135,-0.46483 -1.297416,-0.854575 -1.07618,-0.866101 0.221236,-0.01153 0.162509,-0.856876 -0.130506,-1.878556 -0.294613,-1.027258 -0.308944,-2.257525 -0.03206,-2.752292 0.416656,-0.744523 0.650751,-0.656066 1.394714,0.527016 0.779453,1.239519 1.973237,5.893167 1.497097,5.836034 -0.09605,-0.01153 -0.839932,-0.401271 -1.653067,-0.866101 z m 10.324673,0.256341 c -0.214391,-0.346893 -0.262972,-0.757546 -0.107957,-0.912561 0.155015,-0.155015 0.439427,0.128807 0.632028,0.630716 0.399875,1.042058 0.05905,1.225354 -0.524071,0.281845 z m -1.815942,-1.00461 c -0.818587,-0.540904 -1.392095,-4.221057 -0.72231,-4.635006 0.271024,-0.167503 0.499119,-0.08926 0.506879,0.173879 0.0078,0.263136 0.245852,1.476368 0.529093,2.69607 0.283242,1.219702 0.476481,2.213566 0.42942,2.208585 -0.04706,-0.005 -0.381448,-0.204568 -0.743082,-0.443528 z m 5.954938,-0.179103 c -0.214722,-0.347428 -0.776482,-0.483535 -1.248357,-0.302459 -0.471874,0.181075 -0.706732,0.08455 -0.521907,-0.214507 0.184825,-0.299054 0.06559,-0.710886 -0.264971,-0.915184 -0.624814,-0.386156 -0.856727,-3.258501 -0.26309,-3.258501 0.753446,0 2.139915,1.878006 2.618541,3.546879 0.518127,1.806603 0.384476,2.283987 -0.320216,1.143772 z m -10.79717,-0.669329 c -0.390304,-0.390305 -0.709645,-1.780026 -0.709645,-3.08827 0,-2.352393 0.01241,-2.365763 1.124959,-1.21231 1.477776,1.532103 2.248413,5.010225 1.110101,5.010225 -0.448673,0 -1.13511,-0.31934 -1.525415,-0.709645 z m 59.656871,-0.818063 c 0.02839,-0.688913 0.168505,-0.829043 0.357283,-0.357287 0.170829,0.426896 0.149823,0.936953 -0.04666,1.133461 -0.196512,0.196507 -0.336277,-0.152771 -0.310599,-0.776174 z m -1.705514,-7.63854 c 0.01206,-0.975762 0.144591,-1.303344 0.294527,-0.727959 0.149936,0.575384 0.140078,1.373735 -0.02188,1.774113 -0.162024,0.400377 -0.284698,-0.07039 -0.272646,-1.046154 z m 1.705514,-2.736601 c -0.02567,-0.52937 0.419016,-1.32772 0.98821,-1.774113 0.899298,-0.705278 0.948447,-0.695394 0.375089,0.07543 -0.362895,0.487881 -0.807588,1.286232 -0.98821,1.774113 -0.27471,0.742022 -0.336035,0.729689 -0.375089,-0.07543 z m -9.72248,-1.994366 c -0.187216,-0.487881 -0.08263,-0.887056 0.232415,-0.887056 0.315047,0 0.572813,0.399175 0.572813,0.887056 0,0.487881 -0.104589,0.887056 -0.232414,0.887056 -0.127831,0 -0.385592,-0.399175 -0.572814,-0.887056 z m 3.466397,-3.25254 c -0.504587,-0.975762 -0.78437,-1.774112 -0.621743,-1.774112 0.162627,0 0.708527,0.79835 1.213114,1.774112 0.504587,0.975762 0.784371,1.774113 0.621744,1.774113 -0.162627,0 -0.708528,-0.798351 -1.213115,-1.774113 z M 30.219456,37.92975 c 0.753948,-1.15067 1.118441,-1.305573 1.780046,-0.75649 1.182993,0.981798 0.701715,1.837768 -1.143946,2.034547 -1.55153,0.16542 -1.564642,0.139077 -0.6361,-1.278057 z m 31.808271,-1.574118 -1.736909,-1.921956 1.921955,1.73691 c 1.057076,0.955301 1.921955,1.820181 1.921955,1.921956 0,0.45687 -0.487957,0.05462 -2.107001,-1.73691 z m 11.90264,0.912561 c -0.320925,-0.842821 -0.253,-0.910748 0.331049,-0.331047 0.404155,0.401147 0.585854,0.878328 0.403776,1.060404 -0.182077,0.182076 -0.512748,-0.146135 -0.734825,-0.729357 z m 9.990968,0.378679 c -0.21439,-0.346894 -0.262971,-0.757546 -0.107955,-0.912561 0.15501,-0.155016 0.439424,0.128806 0.632028,0.630715 0.399873,1.042059 0.05908,1.225355 -0.524073,0.281846 z M 26.050871,37.19122 c -0.382098,-0.618248 1.275662,-3.053229 2.07867,-3.053229 0.326006,0 0.428269,0.266117 0.227251,0.591371 -0.201018,0.325254 -0.0743,0.591371 0.281591,0.591371 0.463826,0 0.467818,0.334952 0.01409,1.182741 -0.646178,1.207394 -2.050937,1.578748 -2.601606,0.687746 z m 7.650662,-1.485293 c -1.00956,-0.738208 -0.949789,-0.885613 0.945188,-2.330982 1.112595,-0.848618 3.19784,-2.068978 4.633878,-2.711911 2.428813,-1.087412 2.661712,-1.099803 3.338132,-0.177591 0.60765,0.828451 0.515945,1.109421 -0.557998,1.709637 -1.499283,0.837933 -2.882069,1.00399 -1.597965,0.191897 0.478461,-0.302588 0.70278,-0.717311 0.498485,-0.921606 -0.565761,-0.565761 -4.029584,1.411716 -4.029584,2.300466 0,0.429118 -0.484295,1.218496 -1.076212,1.754173 -0.911814,0.825181 -1.24084,0.853581 -2.153924,0.185917 z M 62.876552,35.468575 C 62.140963,34.530628 62.16188,34.509711 63.09983,35.2453 c 0.985076,0.772549 1.298342,1.258174 0.811621,1.258174 -0.122799,0 -0.588503,-0.465704 -1.034899,-1.034899 z m 1.497676,-0.295685 -1.126556,-1.330584 1.330585,1.126554 c 0.731821,0.619605 1.330584,1.218368 1.330584,1.330584 0,0.473247 -0.475929,0.123867 -1.534613,-1.126554 z m 8.303533,0.09631 c -0.218536,-0.353594 -0.13122,-0.909015 0.194034,-1.234269 0.394249,-0.394247 0.742644,-0.346614 1.045177,0.142899 0.313309,0.506945 0.211321,0.584406 -0.329435,0.250202 -0.568703,-0.351479 -0.679804,-0.214525 -0.405615,0.499999 0.424504,1.106239 0.1031,1.323736 -0.504161,0.341169 z M 23.193169,34.230001 c -0.933898,-0.360731 -0.903476,-0.54673 0.34565,-2.113283 1.231731,-1.544739 2.748175,-1.751567 2.748175,-0.374824 0,1.168354 -2.112412,2.867191 -3.093825,2.488107 z M 69.973002,31.92035 c -0.735589,-0.937947 -0.714672,-0.958864 0.223278,-0.223275 0.985076,0.772549 1.298343,1.258174 0.811621,1.258174 -0.122798,0 -0.588503,-0.465704 -1.034899,-1.034899 z M 19.351505,31.8845 c -0.542638,-0.344721 -0.393221,-0.937519 0.591371,-2.346208 1.294719,-1.852399 2.430864,-2.383069 3.029231,-1.414891 0.295024,0.47736 -2.008476,4.218878 -2.598822,4.221202 -0.162627,6.5e-4 -0.622428,-0.206406 -1.02178,-0.460103 z m 12.036562,-0.05864 c -0.998052,-0.374635 -0.917454,-0.576629 0.810107,-2.030276 1.970278,-1.65788 4.193083,-2.944386 6.79928,-3.93526 1.167126,-0.443741 1.48244,-0.378059 1.48244,0.308796 0,0.479831 -0.427646,0.87242 -0.950326,0.87242 -0.564678,0 -0.823344,0.330909 -0.637414,0.815437 0.201471,0.525023 -0.460491,1.147968 -1.858685,1.749132 -1.194379,0.513532 -2.703831,1.316664 -3.354339,1.784737 -0.691344,0.497457 -1.64322,0.678195 -2.291063,0.435016 z m 40.359047,-1.679623 c -0.735588,-0.937948 -0.714671,-0.958864 0.223278,-0.223275 0.985076,0.772548 1.298343,1.258174 0.811621,1.258174 -0.122798,0 -0.588502,-0.465705 -1.034899,-1.034899 z m -4.139596,-0.591371 c -0.735588,-0.937947 -0.714671,-0.958864 0.223278,-0.223275 0.985076,0.772548 1.298343,1.258174 0.811621,1.258174 -0.122798,0 -0.588502,-0.465705 -1.034899,-1.034899 z M 15.73065,29.217772 c -0.950808,-1.145655 2.449369,-5.150882 3.502251,-4.125465 0.577982,0.562904 0.396173,1.150922 -0.868514,2.809011 -1.822467,2.389379 -1.766504,2.361406 -2.633737,1.316454 z m 12.330457,-0.428379 c -0.741069,-0.500855 -0.546419,-0.893805 1.182741,-2.387668 2.691448,-2.325207 9.08417,-5.381734 10.288951,-4.919416 0.517166,0.198455 0.793067,0.599059 0.613112,0.890232 -0.179954,0.291172 0.02117,0.542411 0.446925,0.558309 0.425763,0.0159 -0.955645,0.714641 -3.069796,1.552762 -2.114151,0.838121 -4.340651,1.504607 -4.947779,1.48108 -1.586054,-0.06146 -4.036837,1.700761 -3.675361,2.642751 0.364348,0.949475 0.313246,0.96056 -0.838793,0.18195 z m 41.320524,-1.008639 c -0.735589,-0.937947 -0.714672,-0.958864 0.223278,-0.223275 0.985076,0.772549 1.298343,1.258174 0.811621,1.258174 -0.122798,0 -0.588503,-0.465704 -1.034899,-1.034899 z m 2.956854,0 c -0.735588,-0.937947 -0.714672,-0.958864 0.223278,-0.223275 0.985076,0.772549 1.298343,1.258174 0.811621,1.258174 -0.122798,0 -0.588503,-0.465704 -1.034899,-1.034899 z m 1.025147,-0.64929 -1.120086,-1.56835 1.382921,1.314157 c 0.760604,0.722786 1.264641,1.428544 1.12008,1.568351 -0.144554,0.139806 -0.766866,-0.451565 -1.382915,-1.314158 z M 63.951498,26.78382 c -0.588656,-0.446312 -0.841509,-0.952869 -0.561891,-1.125683 0.279618,-0.172812 0.830031,0.200815 1.223138,0.830285 0.839658,1.344501 0.765908,1.377447 -0.661247,0.295398 z M 50.692297,26.631726 c 0.575384,-0.149938 1.373735,-0.140077 1.774112,0.02191 0.400377,0.161993 -0.07039,0.28467 -1.046154,0.272618 -0.975762,-0.01205 -1.303343,-0.144589 -0.727958,-0.294528 z m -9.140543,-0.58553 c 0.426896,-0.17083 0.936953,-0.14982 1.133461,0.04669 0.196507,0.196508 -0.152771,0.336278 -0.776174,0.3106 -0.688913,-0.02837 -0.829043,-0.168506 -0.357287,-0.357287 z m -15.26476,-0.819603 c 0,-0.37652 -0.535659,-0.471017 -1.330584,-0.234731 -1.069253,0.317829 -0.924069,0.03562 0.739213,-1.436868 2.879137,-2.548877 11.308676,-6.728698 12.583413,-6.239535 1.053652,0.404324 1.434518,2.038261 0.475112,2.038261 -0.298651,0 -1.030473,0.158162 -1.62627,0.35147 -0.879353,0.285311 -0.91951,0.235704 -0.213335,-0.263531 1.249654,-0.883449 0.565354,-1.228169 -1.15138,-0.580012 -1.082089,0.408545 -1.260125,0.678929 -0.682221,1.036093 0.55678,0.344109 0.235409,0.673817 -1.115952,1.144903 -1.043858,0.363891 -3.198439,1.595948 -4.787959,2.737904 -1.58952,1.141957 -2.890037,1.792678 -2.890037,1.446046 z m 24.726694,0.228232 c 0.426896,-0.17083 0.936953,-0.14982 1.133461,0.04669 0.196507,0.196508 -0.152771,0.336278 -0.776175,0.3106 -0.688913,-0.02837 -0.829042,-0.168506 -0.357286,-0.357287 z M 78.843565,24.8239 c -0.735589,-0.937947 -0.714672,-0.958864 0.223278,-0.223275 0.985076,0.772549 1.298342,1.258174 0.811621,1.258174 -0.122799,0 -0.588503,-0.465705 -1.034899,-1.034899 z m -4.481403,-1.227896 c -1.552059,-1.329108 -1.691149,-1.623357 -0.767375,-1.623357 0.620561,0 1.005473,0.122821 0.855359,0.272935 -0.150113,0.150113 0.308122,0.891439 1.018305,1.64739 1.722729,1.833763 1.226226,1.700484 -1.106289,-0.296968 z m -29.262183,0.67608 c 0.426896,-0.17083 0.936953,-0.149821 1.133461,0.04669 0.196507,0.196508 -0.152771,0.336278 -0.776174,0.3106 -0.688913,-0.02837 -0.829043,-0.168506 -0.357287,-0.357287 z m -2.365483,-1.774113 c 0.426896,-0.17083 0.936953,-0.14982 1.133461,0.04669 0.196507,0.196508 -0.152771,0.336277 -0.776174,0.3106 -0.688914,-0.02837 -0.829043,-0.168506 -0.357287,-0.357287 z m 10.644675,0 c 0.426896,-0.17083 0.936953,-0.14982 1.133461,0.04669 0.196507,0.196508 -0.152771,0.336277 -0.776174,0.3106 -0.688913,-0.02837 -0.829043,-0.168506 -0.357287,-0.357287 z M 21.556027,21.710183 c 0,-0.823034 4.11897,-3.954796 7.739372,-5.884451 3.379896,-1.801465 8.81539,-3.959088 8.052908,-3.196606 -0.219039,0.219039 0.03759,0.716954 0.570298,1.106476 0.849442,0.621127 0.736734,0.789034 -0.9165,1.365354 -1.076085,0.375125 -1.73449,0.413519 -1.534213,0.08946 0.45751,-0.740268 -0.424928,-0.719664 -2.46944,0.05766 -1.162739,0.442073 -1.422279,0.762808 -0.885644,1.094465 0.532227,0.328935 0.209754,0.696681 -1.079023,1.23051 -1.010959,0.418753 -2.94856,1.565777 -4.305781,2.548942 -2.40038,1.738826 -5.171977,2.589915 -5.171977,1.588187 z m 41.39596,-0.582351 c -0.644577,-0.416556 -0.675446,-0.575735 -0.11294,-0.582315 0.451003,-0.0053 0.596557,-0.317597 0.348713,-0.748269 -0.23397,-0.406568 -0.197618,-0.531924 0.08078,-0.278569 0.419897,0.382128 0.978795,2.221122 0.666019,2.191468 -0.05254,-0.005 -0.494693,-0.267022 -0.982574,-0.582315 z m 11.751982,-0.443528 c -0.735589,-0.937947 -0.714672,-0.958864 0.223278,-0.223275 0.985076,0.772549 1.298342,1.258174 0.811621,1.258174 -0.122799,0 -0.588503,-0.465704 -1.034899,-1.034899 z m -29.64095,-2.90498 c 0.406567,-0.164053 1.071859,-0.164053 1.478427,0 0.406567,0.164054 0.07392,0.298279 -0.739214,0.298279 -0.813135,0 -1.145781,-0.134225 -0.739213,-0.298279 z m 5.037907,-0.01816 c 0.575384,-0.149938 1.373735,-0.140077 1.774112,0.02191 0.400377,0.161992 -0.07039,0.284669 -1.046154,0.272617 -0.975762,-0.01205 -1.303343,-0.144589 -0.727958,-0.294528 z m -5.629278,-2.347322 c 0.406567,-0.164054 1.071859,-0.164054 1.478427,0 0.406567,0.164054 0.07392,0.298279 -0.739214,0.298279 -0.813135,0 -1.145781,-0.134225 -0.739213,-0.298279 z m 7.133411,-0.01232 c 0.426895,-0.17083 0.936953,-0.149821 1.133461,0.04669 0.196507,0.196508 -0.152772,0.336278 -0.776175,0.3106 -0.688913,-0.02837 -0.829042,-0.168506 -0.357286,-0.357287 z m -5.489684,-2.524635 c -0.213459,-0.345383 0.0054,-0.778994 0.486476,-0.963579 1.283465,-0.492514 4.227033,-0.04708 4.227033,0.639646 0,0.812364 -4.231897,1.103197 -4.713509,0.323933 z m 3.685505,-0.434565 c -0.565402,-0.148016 -1.629869,-0.153386 -2.365483,-0.01193 -0.735614,0.14145 -0.273012,0.262553 1.028004,0.269118 1.301016,0.0066 1.902882,-0.10917 1.337479,-0.257186 z m -7.657755,-1.180398 c 0.426896,-0.17083 0.936953,-0.14982 1.133461,0.04669 0.196507,0.196507 -0.152771,0.336277 -0.776174,0.310599 -0.688914,-0.02837 -0.829043,-0.168505 -0.357287,-0.357286 z"
         id="path4800" />
      <path
         style="fill:#b9b9b9;fill-opacity:1;stroke-width:0.591371"
         d="m 16.82506,93.639733 c 0,-0.12469 0.532601,-0.365987 1.183558,-0.536219 0.650957,-0.170227 1.034427,-0.06821 0.852155,0.226713 -0.318305,0.515031 -2.035713,0.776139 -2.035713,0.309506 z M 42.254007,91.686731 C 41.440872,91.552241 38.84218,90.883218 36.479136,90.200019 32.601451,89.07891 32.311241,88.893751 33.5016,88.300293 c 1.022011,-0.509531 2.321983,-0.40681 5.774871,0.456296 2.45078,0.612613 4.60832,1.353464 4.794535,1.646341 0.186214,0.292876 1.516798,0.763649 2.956854,1.046159 l 2.618283,0.513658 -2.956855,-0.01573 c -1.626269,-0.0086 -3.622146,-0.125779 -4.435281,-0.260274 z m 3.548225,-4.119241 c -3.262541,-0.308897 -8.218873,-1.424015 -10.423484,-2.345158 -1.624855,-0.678906 -1.87714,-0.99423 -1.294494,-1.617955 0.594967,-0.636918 1.342664,-0.582063 4.203722,0.3084 1.91402,0.595705 3.98856,1.083107 4.610089,1.083107 0.62153,0 1.063525,0.332646 0.982212,0.739214 -0.09395,0.469755 0.714428,0.807511 2.217641,0.926577 1.301015,0.103047 2.618294,0.435693 2.927285,0.739214 0.352061,0.345822 0.241671,0.516515 -0.295685,0.457206 -0.471618,-0.05204 -1.788897,-0.182822 -2.927286,-0.290605 z m -4.883903,-5.269493 c -4.298864,-1.041723 -6.838251,-2.320959 -8.717627,-4.391567 -1.98146,-2.183075 -2.16809,-3.306544 -0.326562,-1.965835 0.809675,0.589484 1.480499,1.397593 1.49072,1.79581 0.02609,1.016478 3.621542,2.80544 4.095876,2.037953 0.243617,-0.394185 1.653944,-0.251215 4.084144,0.414018 2.041616,0.558863 3.537208,1.190932 3.323538,1.404601 -0.213669,0.213668 0.241675,0.524138 1.011876,0.689934 0.770201,0.165791 1.932599,0.413989 2.583107,0.551548 0.650508,0.137565 -0.01478,0.258814 -1.478427,0.269447 -1.463643,0.01064 -4.193633,-0.352026 -6.066645,-0.805909 z m 3.788457,-3.823751 C 34.292906,76.95958 25.471608,69.501436 22.458561,59.664025 c -0.383026,-1.250556 -0.308095,-1.3198 0.791421,-0.731357 1.178963,0.630961 3.728604,5.347507 3.859345,7.139349 0.108858,1.491946 1.768049,3.548225 2.863027,3.548225 1.313492,0 6.216879,3.705737 5.952571,4.498659 -0.298499,0.895495 4.050576,2.822548 4.549215,2.015729 0.545745,-0.883029 4.426817,0.03117 7.102205,1.672964 2.201383,1.35091 2.060302,1.383684 -2.869559,0.666652 z M 41.366951,73.13373 C 35.025544,71.07657 29.269966,65.613308 27.227937,59.712828 c -0.841497,-2.431522 -0.832476,-2.494937 0.270908,-1.904424 1.327754,0.710592 2.879915,3.508741 2.513659,4.531483 -0.33401,0.932705 1.530009,3.73213 2.485064,3.73213 1.343021,0 6.718898,3.819043 6.609852,4.695662 -0.138097,1.110163 3.658137,2.304058 4.25507,1.338201 0.300392,-0.486048 0.898963,-0.421825 2.166615,0.23245 4.398281,2.270096 1.871977,2.752879 -4.162154,0.7954 z M 11.578439,68.458618 C 10.949434,66.983361 10.015646,64.350649 9.5033534,62.608151 l -0.931441,-3.168182 1.3175624,0.893968 c 0.9263602,0.628538 1.2747982,1.393627 1.1735332,2.576812 -0.177423,2.073021 0.921594,4.935381 1.894963,4.935381 0.396213,0 1.02922,0.677811 1.406682,1.506251 0.864857,1.898158 0.894165,1.78853 -0.478137,1.78853 -0.819085,0 -1.503616,-0.795518 -2.308077,-2.682293 z m 10.747303,1.004408 C 19.792678,65.73658 16.511475,57.163729 17.961194,58.059705 c 0.325693,0.201289 0.765151,1.288055 0.976574,2.415034 0.211422,1.126979 0.733975,2.049053 1.161229,2.049053 1.164991,0 4.221929,6.004229 3.844387,7.550889 -0.301994,1.23716 -0.381283,1.207183 -1.617642,-0.611655 z m -5.28173,0.923881 c 0.142938,-0.142934 -0.481219,-1.904084 -1.387017,-3.913657 -0.905797,-2.009573 -1.838178,-4.542086 -2.071957,-5.627803 -0.408225,-1.895877 -0.373401,-1.946387 0.879603,-1.275799 0.884384,0.473308 1.110901,0.891986 0.703179,1.299707 -0.768936,0.768936 0.290385,4.01992 1.309877,4.01992 0.395821,0 1.227726,0.997939 1.848677,2.217641 0.62095,1.219702 1.213598,2.384076 1.316995,2.587502 0.103398,0.203425 -0.497633,0.500926 -1.335624,0.661117 -0.837992,0.160196 -1.406671,0.174312 -1.263733,0.03134 z M 69.844408,51.980394 c -1.118601,-1.236041 -1.301897,-3.443214 -0.313302,-3.772744 1.088749,-0.362917 -0.02274,-4.113668 -1.319532,-4.452786 -0.615995,-0.161086 -1.119991,-0.487918 -1.119991,-0.726293 0,-0.238374 -0.772473,-1.583593 -1.716608,-2.989374 -0.944129,-1.40578 -1.592526,-2.879314 -1.440869,-3.274518 0.151651,-0.395205 -0.53952,-1.299063 -1.535932,-2.008575 -0.996419,-0.709512 -1.811671,-1.001301 -1.811671,-0.64842 0,0.352881 -1.321737,-0.02817 -2.937194,-0.846787 -1.615458,-0.818614 -3.336865,-1.488389 -3.825351,-1.488389 -0.546512,0 -0.757216,-0.341222 -0.54776,-0.887057 0.257562,-0.671197 -0.106719,-0.887056 -1.496987,-0.887056 -2.17178,0 -2.770452,0.157648 -2.595203,0.683393 0.257524,0.772573 -5.834521,0.811655 -6.473427,0.04153 -1.080169,-1.302021 0.06392,-1.611981 5.949943,-1.611981 4.964709,0 6.161338,0.208455 9.098082,1.584907 7.3969,3.466926 12.709284,10.839343 13.323399,18.489947 0.171108,2.131616 0.182858,3.875665 0.02611,3.875665 -0.156748,0 -0.725416,-0.486658 -1.263706,-1.081464 z m 4.934996,0.017 c 0,-0.715559 -0.254059,-1.301016 -0.564576,-1.301016 -0.310511,0 -0.730219,-0.997939 -0.932669,-2.217641 -0.202456,-1.219702 -0.594363,-2.933729 -0.870906,-3.808947 -0.335739,-1.062572 -0.281758,-1.664987 0.162468,-1.813062 0.477396,-0.159132 0.441399,-0.762227 -0.12747,-2.135599 -0.494942,-1.194896 -1.094214,-1.798155 -1.595276,-1.60588 -0.441394,0.169379 -0.802538,0.08766 -0.802538,-0.181589 0,-0.269254 -1.02335,-1.658016 -2.274117,-3.086137 -1.250761,-1.428122 -2.169704,-2.900109 -2.042086,-3.271082 0.127612,-0.370972 -0.5059,-1.254948 -1.407811,-1.964389 -0.921001,-0.724462 -1.730564,-1.017691 -1.846822,-0.668929 -0.12268,0.36804 -1.385002,0.02402 -3.09918,-0.844622 -1.590707,-0.806073 -3.300217,-1.465586 -3.79891,-1.465586 -0.498694,0 -0.840187,-0.304531 -0.758873,-0.676735 0.186296,-0.852753 -3.731584,-1.985393 -4.22794,-1.222277 -0.569459,0.875507 -7.74732,1.502432 -7.74732,0.676663 0,-0.398559 -0.499275,-0.559145 -1.182742,-0.380415 -0.650508,0.170112 -1.182742,0.09213 -1.182742,-0.173282 0,-0.265416 1.872369,-0.798392 4.160821,-1.184389 14.562012,-2.456201 28.832516,8.314023 30.706913,23.175098 0.339619,2.692669 0.335379,4.539441 -0.01124,4.889029 C 74.986527,53.0895 74.7794,52.814617 74.7794,51.997394 Z m 1.455523,-10.009499 c -0.624215,-1.878041 -1.075171,-3.891463 -1.002131,-4.474272 0.162201,-1.294176 -1.570852,-4.077148 -2.269924,-3.645097 -0.27743,0.171461 -1.796099,-1.02835 -3.374823,-2.666247 -1.578724,-1.637896 -2.653209,-2.977994 -2.387749,-2.977994 0.265461,0 0.482654,-0.20874 0.482654,-0.463866 0,-0.675205 -3.136336,-2.420995 -4.156539,-2.313668 -1.467712,0.154406 -7.079508,-2.185985 -7.079508,-2.952498 0,-0.97008 -4.298718,-1.776106 -4.603056,-0.863091 -0.285283,0.855847 -7.815731,0.933944 -7.815731,0.08105 0,-0.359407 -1.003687,-0.471826 -2.513327,-0.281509 -2.290229,0.288724 -2.382092,0.252825 -1.034899,-0.404421 0.898591,-0.438389 4.145674,-0.724066 8.279192,-0.728401 5.983924,-0.0063 7.280951,0.182293 10.798642,1.569954 8.749524,3.451519 15.782786,10.483795 18.510147,18.507554 0.982202,2.889583 1.003338,3.325764 0.200096,4.129005 -0.803235,0.80324 -1.018003,0.537401 -2.033044,-2.516504 z m 4.687501,-1.680793 c 0.531696,-1.385583 -0.250729,-3.921947 -1.108341,-3.592852 -0.407591,0.156408 -1.310709,-0.746412 -2.033985,-2.033308 -0.715493,-1.273044 -1.953369,-3.090047 -2.750838,-4.037785 -1.020162,-1.212391 -1.22826,-1.805748 -0.702058,-2.001787 0.524647,-0.195461 0.344905,-0.696461 -0.602169,-1.678441 -1.031309,-1.069321 -1.462496,-1.218678 -1.826313,-0.632607 -0.374693,0.603593 -0.654304,0.551187 -1.311116,-0.245736 -0.45917,-0.557119 -2.239605,-1.91336 -3.956514,-3.01387 -1.716915,-1.10051 -2.964956,-2.254482 -2.773429,-2.564383 0.191528,-0.3099 -0.394066,-0.845676 -1.301323,-1.190614 -1.015662,-0.386155 -1.721569,-0.411122 -1.836952,-0.06497 -0.110894,0.332677 -1.301053,0.227028 -2.915297,-0.258788 -1.500346,-0.451538 -3.331891,-0.820978 -4.070101,-0.820978 -0.73821,0 -1.741374,-0.399175 -2.229255,-0.887056 -0.941749,-0.941749 -3.928392,-1.233013 -3.928392,-0.383106 0,0.277172 -1.762216,0.795958 -3.916035,1.152858 -3.214101,0.532594 -4.064855,0.500088 -4.746288,-0.181345 -0.712758,-0.712758 -0.472403,-0.930502 1.698394,-1.538626 3.849947,-1.07852 13.146228,-0.911557 17.312919,0.310943 9.377048,2.751211 18.063085,9.703427 22.333504,17.875508 2.442232,4.673573 2.668437,5.819839 1.255486,6.362038 -0.697025,0.267474 -0.855962,0.113049 -0.591897,-0.575093 z m 3.611502,-1.44315 c -0.164981,-0.266939 0.0204,-0.59213 0.411943,-0.722646 0.545208,-0.181735 0.526279,-0.685447 -0.08083,-2.151144 -0.476314,-1.149923 -1.100991,-1.795555 -1.565004,-1.617497 -0.424746,0.16299 -0.934136,-0.213669 -1.131979,-0.837019 -0.197843,-0.62335 -1.541502,-2.738706 -2.985908,-4.70079 -1.4444,-1.962084 -2.310829,-3.567425 -1.925397,-3.567425 0.385432,0 -0.055,-0.788888 -0.978772,-1.753084 -0.923763,-0.964197 -1.926964,-1.600183 -2.22935,-1.413301 -0.30238,0.186881 -1.658771,-0.451187 -3.014199,-1.417931 -1.355434,-0.966743 -3.337999,-2.20491 -4.405713,-2.751481 -1.067708,-0.546571 -1.790831,-1.237216 -1.606932,-1.534766 0.183898,-0.29755 -0.508011,-0.976604 -1.537564,-1.509009 -1.425322,-0.737062 -1.977527,-0.797141 -2.314555,-0.251819 -0.333628,0.53982 -0.933239,0.559033 -2.434852,0.07802 -1.095722,-0.350995 -3.378391,-0.814075 -5.072598,-1.029069 -1.786528,-0.226708 -3.028494,-0.670743 -2.956854,-1.05715 0.07371,-0.397604 -0.770681,-0.666253 -2.094118,-0.666253 -1.219703,0 -2.151112,0.257703 -2.069798,0.572673 0.222898,0.863404 -7.317075,1.945186 -8.560118,1.228145 -1.450201,-0.836538 -0.663424,-1.318201 3.346391,-2.048654 18.418414,-3.355213 36.745845,6.440172 44.333524,23.694753 1.422057,3.233786 1.432288,3.349882 0.320771,3.64055 -0.631472,0.165133 -1.283109,0.08184 -1.448084,-0.185102 z"
         id="path4798" />
      <path
         style="fill:#a3a3a3;fill-opacity:1;stroke-width:0.591371"
         d="M 15.472879,97.76953 C 1.9720292,94.076147 2.0598086,74.967896 15.595822,71.00693 25.767275,68.030513 35.55037,77.878659 32.562717,88.086643 30.372704,95.569317 22.902272,99.801965 15.472879,97.76953 Z m 7.460339,-4.709731 c 6.076109,-2.538755 7.557338,-10.504579 2.831978,-15.22994 -3.835957,-3.835956 -9.313347,-3.835956 -13.149305,0 -7.2932837,7.293288 0.782224,19.213964 10.317327,15.22994 z m -4.925416,-0.781183 c 0,-0.527633 -1.064467,-1.942044 -2.365483,-3.143136 -2.042834,-1.885935 -2.365484,-2.525047 -2.365484,-4.685614 0,-3.505836 2.434558,-5.959061 5.913709,-5.959061 6.609031,0 8.147799,8.415485 2.352562,12.866101 -2.227907,1.710983 -3.535304,2.051844 -3.535304,0.92171 z"
         id="path4796" />
    </g>
  </g>
</svg>
