<?xml version="1.0" encoding="UTF-8" standalone="no"?>
<!-- Created with Inkscape (http://www.inkscape.org/) -->

<svg
   width="100mm"
   height="100mm"
   viewBox="0 0 100 100"
   version="1.1"
   id="svg4074"
   inkscape:version="1.1.1 (3bf5ae0d25, 2021-09-20)"
   sodipodi:docname="add_list_type_device_6144.svg"
   xmlns:inkscape="http://www.inkscape.org/namespaces/inkscape"
   xmlns:sodipodi="http://sodipodi.sourceforge.net/DTD/sodipodi-0.dtd"
   xmlns="http://www.w3.org/2000/svg"
   xmlns:svg="http://www.w3.org/2000/svg">
  <sodipodi:namedview
     id="namedview4076"
     pagecolor="#505050"
     bordercolor="#ffffff"
     borderopacity="1"
     inkscape:pageshadow="0"
     inkscape:pageopacity="0"
     inkscape:pagecheckerboard="1"
     inkscape:document-units="mm"
     showgrid="false"
     inkscape:zoom="0.58974467"
     inkscape:cx="397.62971"
     inkscape:cy="171.26056"
     inkscape:window-width="1440"
     inkscape:window-height="890"
     inkscape:window-x="-6"
     inkscape:window-y="-6"
     inkscape:window-maximized="1"
     inkscape:current-layer="layer1" />
  <defs
     id="defs4071" />
  <g
     inkscape:label="Laag 1"
     inkscape:groupmode="layer"
     id="layer1">
    <g
       id="g4090">
      <path
         style="fill:#d0d0d0;fill-opacity:1;stroke-width:0.59691"
         d="m 33.570609,88.19046 c 0.430894,-0.17243 0.945729,-0.151228 1.144077,0.0471 0.198348,0.198347 -0.154202,0.339426 -0.783444,0.313509 -0.695366,-0.02865 -0.836807,-0.170084 -0.360633,-0.360629 z m 54.430695,-0.375934 c 0,-0.102728 0.87298,-0.975709 1.939956,-1.939956 l 1.939956,-1.753178 -1.753177,1.939957 c -1.634207,1.808313 -2.126735,2.214325 -2.126735,1.753177 z M 35.958247,85.802821 c 0.430895,-0.172429 0.945729,-0.151227 1.144077,0.0471 0.198348,0.198347 -0.154202,0.339427 -0.783443,0.313509 -0.695366,-0.02865 -0.836808,-0.170083 -0.360634,-0.360629 z m 51.744602,-1.382974 c 0.202901,-0.3283 0.487365,-0.596909 0.632139,-0.596909 0.144774,0 0.263225,0.268609 0.263225,0.596909 0,0.3283 -0.284463,0.59691 -0.632139,0.59691 -0.347676,0 -0.466127,-0.26861 -0.263225,-0.59691 z m -5.829819,-0.67098 c 0.404907,-0.40794 0.886554,-0.59134 1.070336,-0.407558 0.183783,0.183783 -0.147502,0.517551 -0.736186,0.741708 -0.850716,0.323931 -0.919277,0.25537 -0.33415,-0.33415 z m -5.461264,-2.09954 c -0.314374,-0.819246 -0.227028,-0.856171 0.533047,-0.225369 1.035781,0.859627 1.143583,1.20516 0.375981,1.20516 -0.293178,0 -0.70224,-0.440907 -0.909028,-0.979791 z m 10.395718,0.418111 c 0,-0.308924 0.265536,-0.725794 0.590075,-0.926368 0.338365,-0.209121 0.438431,0.0305 0.234592,0.56168 -0.39682,1.034099 -0.824667,1.223301 -0.824667,0.364688 z M 34.764428,78.042996 c 0.430894,-0.172429 0.945729,-0.151227 1.144077,0.0471 0.198348,0.198347 -0.154202,0.339427 -0.783444,0.313509 -0.695365,-0.02865 -0.836807,-0.170083 -0.360633,-0.360629 z m 38.911045,-3.208932 c 0,-0.347676 0.268609,-0.466127 0.59691,-0.263225 0.3283,0.202901 0.596909,0.487364 0.596909,0.632139 0,0.144774 -0.268609,0.263225 -0.596909,0.263225 -0.328301,0 -0.59691,-0.284463 -0.59691,-0.632139 z m -29.921619,-5.18773 c -0.742479,-0.946734 -0.721366,-0.967847 0.225366,-0.225369 0.574526,0.450577 1.044592,0.920644 1.044592,1.044592 0,0.491281 -0.490174,0.17508 -1.269958,-0.819223 z m 41.783669,0 c -0.742478,-0.946734 -0.721365,-0.967847 0.22537,-0.225369 0.574525,0.450577 1.044591,0.920644 1.044591,1.044592 0,0.491281 -0.490176,0.17508 -1.269961,-0.819223 z m 4.851419,0.819223 c 0,-0.123948 0.470066,-0.594015 1.044592,-1.044592 0.946734,-0.742478 0.967847,-0.721365 0.225369,0.225369 -0.779785,0.994303 -1.269961,1.310504 -1.269961,0.819223 z m -19.95467,-3.288453 c -0.179915,-0.2911 0.139999,-0.895471 0.710907,-1.343046 0.916955,-0.718858 0.9516,-0.702939 0.297064,0.136513 -0.407528,0.522654 -0.564217,1.127025 -0.348201,1.343047 0.216022,0.216015 0.229542,0.39276 0.03002,0.39276 -0.199488,0 -0.50991,-0.238173 -0.689819,-0.529274 z M 85.91212,64.72183 c 0.594218,-0.6566 1.214699,-1.193819 1.378849,-1.193819 0.16415,0 -0.187722,0.537219 -0.781939,1.193819 -0.594218,0.656601 -1.2147,1.193819 -1.37885,1.193819 -0.16415,0 0.187722,-0.537218 0.78194,-1.193819 z m 4.99759,-0.447682 c -0.742478,-0.946734 -0.721365,-0.967847 0.225369,-0.225369 0.994302,0.779785 1.310503,1.269961 0.819223,1.269961 -0.123949,0 -0.594015,-0.470066 -1.044592,-1.044592 z m -5.054302,-4.476822 -1.137107,-1.343047 1.343046,1.137106 c 1.26213,1.068598 1.614784,1.548988 1.137107,1.548988 -0.113269,0 -0.71764,-0.604371 -1.343046,-1.343047 z m 4.533534,1.11768 c 0,-0.123951 0.470066,-0.594018 1.044592,-1.044591 0.946734,-0.742479 0.967847,-0.721366 0.225369,0.225366 -0.779785,0.994301 -1.269961,1.310503 -1.269961,0.819225 z M 85.016756,55.54282 c 0,-0.123952 0.470066,-0.594018 1.044591,-1.044592 0.946735,-0.742478 0.967848,-0.721366 0.22537,0.225366 -0.779785,0.994301 -1.269961,1.310503 -1.269961,0.819226 z m 5.892954,-0.819226 c -0.742478,-0.946732 -0.721365,-0.967844 0.225369,-0.225366 0.994302,0.779784 1.310503,1.269958 0.819223,1.269958 -0.123949,0 -0.594015,-0.470066 -1.044592,-1.044592 z M 64.124919,52.186729 c -0.537988,-0.347676 -0.611611,-0.582277 -0.184457,-0.58777 0.391,-0.005 0.87692,0.259469 1.079822,0.58777 0.458009,0.741078 0.25137,0.741078 -0.895365,0 z m -38.752,-2.138926 c 0.02864,-0.695366 0.170084,-0.836808 0.360633,-0.360633 0.17243,0.430894 0.151224,0.945728 -0.04713,1.144076 -0.198348,0.198348 -0.339427,-0.154202 -0.313508,-0.783443 z m 60.164604,-0.09949 c -0.742478,-0.946733 -0.721365,-0.967845 0.22537,-0.225367 0.574525,0.450574 1.044591,0.92064 1.044591,1.044592 0,0.491277 -0.490176,0.175075 -1.269961,-0.819225 z m 4.851419,0.819225 c 0,-0.123952 0.470066,-0.594018 1.044592,-1.044592 0.946734,-0.742478 0.967847,-0.721366 0.225369,0.225367 -0.779785,0.9943 -1.269961,1.310502 -1.269961,0.819225 z m -4.476822,-5.74373 c 0.594218,-0.6566 1.214699,-1.193819 1.378849,-1.193819 0.16415,0 -0.187722,0.537219 -0.781939,1.193819 -0.594218,0.656601 -1.2147,1.193819 -1.37885,1.193819 -0.16415,0 0.187722,-0.537218 0.78194,-1.193819 z m 4.99759,-0.447682 c -0.742478,-0.946732 -0.721365,-0.967845 0.225369,-0.225366 0.994302,0.779784 1.310503,1.269958 0.819223,1.269958 -0.123949,0 -0.594015,-0.470066 -1.044592,-1.044592 z M 82.330662,42.03926 c 0.594218,-0.6566 1.214699,-1.193819 1.37885,-1.193819 0.16415,0 -0.187722,0.537219 -0.78194,1.193819 -0.594218,0.656601 -1.214699,1.193819 -1.378849,1.193819 -0.16415,0 0.187722,-0.537218 0.781939,-1.193819 z m 11.28457,-0.149227 -1.137106,-1.343047 1.343046,1.137106 c 1.26213,1.068598 1.614784,1.548987 1.137107,1.548987 -0.113269,0 -0.71764,-0.604371 -1.343047,-1.343046 z m 1.503807,-1.492274 -1.447094,-1.641502 1.641501,1.447097 c 0.902826,0.795903 1.641502,1.534579 1.641502,1.641501 0,0.468141 -0.483378,0.08713 -1.835909,-1.447096 z M 74.793151,38.607035 c -0.742478,-0.946732 -0.721366,-0.967845 0.225369,-0.225366 0.574525,0.450573 1.044592,0.92064 1.044592,1.044592 0,0.491277 -0.490177,0.175075 -1.269961,-0.819226 z M 50.123035,37.305234 c -0.598068,-0.967693 0.701541,-1.26176 1.472237,-0.333128 0.599755,0.72266 0.563195,0.888792 -0.195593,0.888792 -0.513274,0 -1.087764,-0.250049 -1.276644,-0.555664 z M 19.058244,34.27944 c 0.594215,-0.6566 1.214696,-1.193819 1.378847,-1.193819 0.16415,0 -0.187722,0.537219 -0.781937,1.193819 -0.594215,0.656601 -1.214696,1.19382 -1.378846,1.19382 -0.164151,0 0.187721,-0.537219 0.781936,-1.19382 z m 36.451107,0.657924 c -0.698586,-0.273568 -0.902004,-0.607852 -0.515316,-0.846838 0.351385,-0.217168 0.970817,0.0051 1.376514,0.493941 0.81756,0.9851 0.78611,0.997988 -0.861198,0.352897 z m 4.287974,0.140574 c 0.410375,-0.16559 1.081898,-0.16559 1.492274,0 0.410375,0.16559 0.07461,0.301073 -0.746137,0.301073 -0.820751,0 -1.156513,-0.135483 -0.746137,-0.301073 z M 42.337719,33.682531 c 0.594215,-0.656601 1.214696,-1.193819 1.378846,-1.193819 0.16415,0 -0.187721,0.537218 -0.781937,1.193819 -0.594215,0.6566 -1.214696,1.193819 -1.378846,1.193819 -0.16415,0 0.187722,-0.537219 0.781937,-1.193819 z m 5.944552,0.557196 c -0.2164,-0.350142 -0.250123,-0.779953 -0.07494,-0.955136 0.427574,-0.427574 1.591759,0.325807 1.591759,1.030077 0,0.762834 -1.030511,0.71192 -1.516818,-0.07494 z M 21.738883,30.989866 c -0.599755,-0.72266 -0.563194,-0.888793 0.195593,-0.888793 1.114372,0 1.842992,0.973551 1.081052,1.444456 -0.296457,0.183221 -0.870948,-0.06683 -1.276645,-0.555663 z m 24.132038,0.226947 c -0.644464,-1.042764 0.671661,-1.864208 1.461681,-0.912292 0.554365,0.66797 0.514529,0.924516 -0.185255,1.193048 -0.490316,0.188152 -1.064708,0.06181 -1.276426,-0.280756 z m -16.665213,-0.51883 c 0.2029,-0.328301 0.487362,-0.59691 0.632137,-0.59691 0.144775,0 0.263227,0.268609 0.263227,0.59691 0,0.3283 -0.284462,0.596909 -0.632137,0.596909 -0.347676,0 -0.466128,-0.268609 -0.263227,-0.596909 z m 24.473293,0 c 0.202901,-0.328301 0.487363,-0.59691 0.632138,-0.59691 0.144775,0 0.263227,0.268609 0.263227,0.59691 0,0.3283 -0.284462,0.596909 -0.632138,0.596909 -0.347675,0 -0.466128,-0.268609 -0.263227,-0.596909 z m 4.924505,-1.589141 c 0.410375,-0.16559 1.081898,-0.16559 1.492274,0 0.410375,0.16559 0.07461,0.301072 -0.746137,0.301072 -0.820751,0 -1.156513,-0.135482 -0.746137,-0.301072 z m 4.215674,-0.01243 c 0.430891,-0.17243 0.945725,-0.151223 1.144078,0.04713 0.198347,0.198348 -0.154205,0.339427 -0.783443,0.313509 -0.69537,-0.02864 -0.836808,-0.170084 -0.360635,-0.360633 z M 30.757906,26.940151 c -0.755042,-1.257276 -0.742322,-1.269996 0.285521,-0.285521 0.591672,0.566709 0.947283,1.158865 0.790247,1.315901 -0.157036,0.157036 -0.641131,-0.306635 -1.075768,-1.03038 z m 12.889345,0.988482 c -0.457282,-0.457283 0.05,-1.409017 0.751017,-1.409017 0.2738,0 0.652431,0.402913 0.841402,0.895364 0.340558,0.887478 -0.83833,1.267742 -1.592419,0.513653 z M 28.011888,27.116525 c 0.202901,-0.3283 0.63752,-0.596909 0.96582,-0.596909 0.328301,0 0.4309,0.268609 0.228,0.596909 -0.202901,0.3283 -0.63752,0.59691 -0.965821,0.59691 -0.3283,0 -0.4309,-0.26861 -0.227999,-0.59691 z m 23.876385,0 c 0.2029,-0.3283 0.637519,-0.596909 0.96582,-0.596909 0.3283,0 0.4309,0.268609 0.227999,0.596909 -0.202901,0.3283 -0.63752,0.59691 -0.96582,0.59691 -0.328301,0 -0.4309,-0.26861 -0.227999,-0.59691 z M 26.917554,24.330947 c -0.666638,-0.666638 -0.445404,-1.392789 0.424336,-1.392789 0.452252,0 1.156665,0.402914 1.565363,0.895364 0.617442,0.743973 0.545693,0.895365 -0.424337,0.895365 -0.642082,0 -1.346495,-0.179073 -1.565362,-0.39794 z m 23.80239,-0.157725 c -0.650525,-1.052572 0.844971,-1.286176 2.497221,-0.390078 l 1.655656,0.897945 -1.904729,0.0239 c -1.047601,0.01314 -2.059267,-0.22615 -2.248148,-0.531765 z m 6.727049,-0.449002 c 0.430894,-0.17243 0.945729,-0.151224 1.144077,0.04713 0.198348,0.198348 -0.154202,0.339427 -0.783444,0.313509 -0.695365,-0.02864 -0.836807,-0.170084 -0.360633,-0.360633 z m 2.656994,-2.408212 c 0.90734,-0.137203 2.250385,-0.133536 2.984548,0.0081 0.734163,0.141684 -0.0082,0.25394 -1.649709,0.249459 -1.641501,-0.0045 -2.242179,-0.120404 -1.334839,-0.257606 z M 25.342523,20.57349 c -0.736165,-0.465559 -0.68777,-0.624184 0.298455,-0.978263 0.6474,-0.232432 1.4457,-0.558556 1.774001,-0.72472 0.3283,-0.166164 0.397783,-0.08231 0.154406,0.186345 -0.243377,0.268653 -0.143335,0.848937 0.222316,1.289519 0.516095,0.621857 0.414788,0.799013 -0.452861,0.791918 -0.614724,-0.005 -1.513067,-0.259187 -1.996317,-0.564799 z M 49.498029,20.5463 c -0.660505,-1.068719 1.547902,-1.3924 2.564438,-0.375863 0.904711,0.904714 0.859734,0.976991 -0.607967,0.976991 -0.871725,0 -1.752138,-0.270506 -1.956471,-0.601126 z m 9.739693,-1.000448 c 0.430894,-0.17243 0.945729,-0.151224 1.144077,0.04713 0.198348,0.198348 -0.154202,0.339427 -0.783444,0.313508 -0.695366,-0.02864 -0.836807,-0.170084 -0.360633,-0.360633 z"
         id="path4106" />
      <path
         style="fill:#b9b9b9;fill-opacity:1;stroke-width:0.59691"
         d="m 37.748976,88.19046 c 0.430894,-0.17243 0.945729,-0.151228 1.144077,0.0471 0.198348,0.198347 -0.154202,0.339426 -0.783444,0.313509 -0.695365,-0.02865 -0.836807,-0.170084 -0.360633,-0.360629 z m 36.826088,-6.151417 c -0.209122,-0.338364 0.0305,-0.43843 0.56168,-0.234591 1.034098,0.396819 1.2233,0.824666 0.364688,0.824666 -0.308925,0 -0.725795,-0.265535 -0.926368,-0.590075 z M 57.719502,81.618556 c 0.580773,-0.15134 1.386601,-0.14139 1.790728,0.02215 0.404127,0.163511 -0.07105,0.287334 -1.055952,0.275169 -0.984901,-0.01218 -1.31555,-0.145944 -0.734776,-0.297285 z m 7.959179,-0.68068 c -0.169086,-0.273587 0.07186,-0.497428 0.535422,-0.497428 0.463566,0 0.704509,0.223841 0.535422,0.497428 -0.169081,0.273582 -0.410023,0.497423 -0.535422,0.497423 -0.125399,0 -0.366341,-0.223841 -0.535422,-0.497423 z M 47.932221,70.243244 c -0.742478,-0.946734 -0.721366,-0.967847 0.225366,-0.225369 0.574526,0.450577 1.044592,0.920643 1.044592,1.044592 0,0.49128 -0.490174,0.175079 -1.269958,-0.819223 z M 21.071289,67.855606 c -0.742478,-0.946735 -0.721366,-0.967847 0.225366,-0.22537 0.574526,0.450578 1.044592,0.920644 1.044592,1.044592 0,0.491281 -0.490174,0.17508 -1.269958,-0.819222 z m 56.185642,-7.312143 c 0,-0.3283 0.268609,-0.59691 0.596909,-0.59691 0.328301,0 0.59691,0.26861 0.59691,0.59691 0,0.3283 -0.268609,0.59691 -0.59691,0.59691 -0.3283,0 -0.596909,-0.26861 -0.596909,-0.59691 z M 35.520383,54.823079 c 0.02864,-0.695365 0.170084,-0.836807 0.360633,-0.360633 0.17243,0.430895 0.151223,0.945729 -0.04713,1.144077 -0.198349,0.198348 -0.339428,-0.154202 -0.313509,-0.783444 z M 7.5690374,53.082093 c 0.00663,-1.313201 0.1288638,-1.780136 0.2716404,-1.037633 0.1427766,0.742504 0.1373561,1.816941 -0.012046,2.387639 -0.1494023,0.570698 -0.2662199,-0.03681 -0.2595944,-1.350006 z m 20.2607626,0 c 0.01216,-0.984901 0.145944,-1.315551 0.297287,-0.734777 0.151342,0.580774 0.141389,1.386602 -0.02212,1.790729 -0.16351,0.404127 -0.287336,-0.07105 -0.275171,-1.055952 z M 5.077993,50.644712 c 0.028642,-0.695365 0.1700836,-0.836807 0.3606328,-0.360633 0.1724297,0.430894 0.1512237,0.945729 -0.047124,1.144077 C 5.1931535,51.626504 5.0520747,51.273954 5.077993,50.644712 Z m 28.054751,0 c 0.02864,-0.695365 0.170084,-0.836807 0.360633,-0.360633 0.17243,0.430894 0.151224,0.945729 -0.04713,1.144077 -0.198348,0.198348 -0.339427,-0.154202 -0.313509,-0.783444 z m -8.065783,-12.7228 c -0.860641,-0.337029 -0.959935,-0.572048 -0.390402,-0.924039 0.452237,-0.279498 1.157834,-0.07802 1.72979,0.493941 1.023961,1.023962 0.558658,1.173379 -1.339388,0.430098 z M 49.47609,37.821185 c -0.642436,-1.039484 0.08925,-1.259623 0.907937,-0.273167 0.470812,0.567294 0.516094,0.90979 0.120288,0.90979 -0.349124,0 -0.811825,-0.286481 -1.028225,-0.636623 z M 18.759789,37.038622 c 0,-0.123952 0.470067,-0.594018 1.044592,-1.044592 0.946732,-0.742478 0.967845,-0.721365 0.225366,0.225367 -0.779784,0.994301 -1.269958,1.310502 -1.269958,0.819225 z m 28.418415,-1.909129 c -0.504669,-1.315148 0.04958,-1.869395 0.959487,-0.959486 0.500554,0.500554 0.520747,0.891939 0.06931,1.343375 -0.451436,0.451437 -0.75117,0.339593 -1.028797,-0.383889 z M 22.679322,34.937364 c -0.86064,-0.337029 -0.959935,-0.572048 -0.390401,-0.924039 0.452237,-0.279498 1.157834,-0.07802 1.729789,0.493941 1.023962,1.023962 0.558658,1.173378 -1.339388,0.430098 z m 33.746281,-0.28656 c -0.536332,-0.646241 -0.423924,-0.890097 0.524645,-1.138153 0.663972,-0.173633 1.066898,-0.08864 0.89539,0.18886 -0.171508,0.277507 0.163883,0.781507 0.745313,1.120001 0.964877,0.561728 0.946302,0.61703 -0.212812,0.633596 -0.698477,0.01 -1.577118,-0.351954 -1.952536,-0.804304 z M 16.969061,33.384076 c 0.771055,-0.820751 1.536223,-1.492274 1.700373,-1.492274 0.16415,0 -0.332409,0.671523 -1.103464,1.492274 -0.771055,0.820751 -1.536223,1.492274 -1.700373,1.492274 -0.16415,0 0.332409,-0.671523 1.103464,-1.492274 z m 27.821505,-1.239131 c -0.50467,-1.315148 0.04958,-1.869395 0.959486,-0.959486 0.500554,0.500554 0.520747,0.891939 0.06931,1.343375 -0.451437,0.451437 -0.751171,0.339593 -1.028796,-0.383889 z M 20.252063,31.881179 c -1.123801,-0.431277 -1.1302,-0.484058 -0.109104,-0.899931 0.596593,-0.242981 1.358673,-0.167825 1.693511,0.167014 0.838938,0.838937 -0.13463,1.289293 -1.584407,0.732917 z m -5.670641,-1.481651 c 0.771055,-0.820751 1.536223,-1.492274 1.700374,-1.492274 0.16415,0 -0.332409,0.671523 -1.103464,1.492274 -0.771055,0.820751 -1.536223,1.492274 -1.700374,1.492274 -0.16415,0 0.332409,-0.671523 1.103464,-1.492274 z m 17.310379,0.939132 c 0,-0.304228 -0.470067,-0.665572 -1.044592,-0.802988 -0.950548,-0.227352 -0.940336,-0.2947 0.113431,-0.748067 0.765092,-0.329169 1.240499,-0.250791 1.401093,0.230992 0.189199,0.567595 0.461722,0.560603 1.229616,-0.03155 0.684688,-0.52799 0.63862,-0.352974 -0.150561,0.571996 -1.247427,1.462067 -1.548987,1.613844 -1.548987,0.77962 z m 24.473294,0.03523 c 0,-0.323603 -0.470067,-0.711211 -1.044592,-0.86135 -0.806595,-0.210785 -0.746622,-0.288757 0.263227,-0.342223 1.448043,-0.07667 2.336781,0.830642 1.388011,1.417014 -0.333656,0.206209 -0.606646,0.11016 -0.606646,-0.213443 z M 11.571928,28.161117 c 2.473573,-2.635469 3.009494,-3.109358 3.009494,-2.661147 0,0.09579 -1.275894,1.37169 -2.83532,2.83532 l -2.835321,2.661148 z m 30.8355,1.011007 c -0.516248,-1.345321 -0.478012,-1.458689 0.491973,-1.458689 1.257994,0 1.639754,0.95448 0.695274,1.73833 -0.630651,0.523393 -0.903781,0.459061 -1.187247,-0.279641 z M 18.157425,28.602227 c -0.599754,-0.72266 -0.563194,-0.888792 0.195593,-0.888792 1.114373,0 1.842992,0.973551 1.081052,1.444456 -0.296457,0.183221 -0.870947,-0.06683 -1.276645,-0.555664 z m 13.452033,-1.459632 c -0.194039,-0.313962 -0.747111,-0.419529 -1.229047,-0.234592 -0.481937,0.184936 -0.876249,0.201943 -0.876249,0.03779 0,-0.767064 1.658813,-0.805078 2.675959,-0.06132 0.62352,0.45593 0.829577,0.828963 0.457905,0.828963 -0.371673,0 -0.834529,-0.256879 -1.028568,-0.57084 z m 24.158727,-0.06629 c 0,-0.371586 -0.559762,-0.484099 -1.343047,-0.269953 -1.217101,0.332749 -1.239182,0.302445 -0.23546,-0.323145 0.879968,-0.548457 1.304934,-0.492979 2.067866,0.269953 0.623888,0.623888 0.70637,0.960279 0.23546,0.960279 -0.39865,0 -0.724819,-0.28671 -0.724819,-0.637134 z M 15.84034,25.70269 c -0.532158,-0.641211 -0.543134,-0.976816 -0.04208,-1.286488 0.973513,-0.601664 2.181256,0.734806 1.38426,1.531802 -0.43167,0.43167 -0.842685,0.356549 -1.342186,-0.245314 z m 24.048451,-0.07858 c -1.095296,-0.829076 -1.089533,-0.857884 0.175289,-0.876244 1.395959,-0.02026 2.337109,0.880699 1.475949,1.412925 -0.28529,0.176318 -1.028347,-0.06519 -1.651238,-0.536681 z M 28.310343,23.236613 c -0.59908,-0.721848 -0.584325,-0.896944 0.07614,-0.903516 0.450574,-0.0045 1.490749,-0.162088 2.3115,-0.350234 1.141149,-0.261594 1.28498,-0.196663 0.611278,0.275953 -0.733131,0.514307 -0.632947,0.717015 0.59691,1.207763 1.390315,0.554775 1.349574,0.591969 -0.687418,0.627562 -1.237272,0.02162 -2.483807,-0.345914 -2.90841,-0.857528 z m 24.572473,0.372382 c -1.506893,-0.955218 1.07081,-1.3204 2.777783,-0.393527 l 1.59986,0.868712 -1.790729,0.01476 c -0.984901,0.0081 -2.149012,-0.212357 -2.586914,-0.489943 z m -15.13384,-2.272414 c 0.430894,-0.17243 0.945729,-0.151223 1.144077,0.04713 0.198348,0.198349 -0.154202,0.339428 -0.783444,0.313509 -0.695365,-0.02864 -0.836807,-0.170084 -0.360633,-0.360633 z M 27.433488,19.983559 c -0.430801,-0.697051 1.492121,-1.759793 2.518357,-1.391822 0.410375,0.147146 0.746137,0.648069 0.746137,1.11316 0,0.951525 -2.70589,1.182503 -3.264494,0.278662 z m 23.992101,-0.274934 c -0.978456,-0.742368 -0.932748,-0.828277 0.59691,-1.121914 1.616841,-0.310374 3.148776,0.390206 3.148776,1.439987 0,0.802882 -2.554106,0.585994 -3.745686,-0.318073 z m 5.424495,-1.953501 c 0.430894,-0.17243 0.945728,-0.151224 1.144077,0.04713 0.198347,0.198348 -0.154202,0.339427 -0.783444,0.313509 -0.695366,-0.02864 -0.836808,-0.170084 -0.360633,-0.360633 z"
         id="path4104" />
      <path
         style="fill:#a3a3a3;fill-opacity:1;stroke-width:0.59691"
         d="m 34.167519,85.802821 c 0.430894,-0.172429 0.945728,-0.151227 1.144077,0.0471 0.198347,0.198347 -0.154202,0.339427 -0.783444,0.313509 -0.695366,-0.02865 -0.836808,-0.170083 -0.360633,-0.360629 z m 1.466327,-5.378084 c 0.580774,-0.15134 1.386601,-0.14139 1.790729,0.02215 0.404127,0.163511 -0.07105,0.287334 -1.055952,0.275169 -0.984901,-0.01218 -1.315551,-0.145945 -0.734777,-0.297285 z m 41.623085,-0.417848 c 0,-0.129028 0.416863,-0.394558 0.926368,-0.590075 0.531201,-0.203839 0.770801,-0.103773 0.56168,0.234591 -0.350542,0.567189 -1.488048,0.838927 -1.488048,0.355484 z m 3.826513,-2.651013 c 1.092607,-1.245578 1.701556,-1.359289 1.595414,-0.297912 -0.02734,0.273582 -0.251198,0.501535 -0.497423,0.506561 -0.246225,0.0048 -0.850596,0.25266 -1.343047,0.550291 -0.539743,0.326217 -0.442417,0.02477 0.245056,-0.75894 z m -2.787962,-2.512351 c 0.40705,-0.4388 1.170337,-0.860965 1.696196,-0.938145 0.525854,-0.07718 0.774801,0.04095 0.55321,0.262569 -0.221591,0.22159 -0.581969,0.407002 -0.800832,0.412028 -0.218869,0.0048 -0.800856,0.245891 -1.293306,0.535255 -0.725669,0.426397 -0.755097,0.374901 -0.155268,-0.271707 z M 77.549369,62.324456 C 77.34316,61.990802 76.882889,61.898 76.526546,62.11823 c -0.38669,0.238991 -0.476184,0.122593 -0.221979,-0.288719 0.614889,-0.994913 2.146183,-0.847771 2.146183,0.206226 0,1.038169 -0.365786,1.15533 -0.901381,0.288719 z M 76.399942,44.601875 c -0.323931,-0.850715 -0.25537,-0.919278 0.33415,-0.334147 0.40794,0.404904 0.59134,0.886554 0.407558,1.070335 -0.183783,0.183781 -0.517551,-0.147504 -0.741708,-0.736188 z M 48.441839,40.276746 c 0.506581,-0.578244 0.543602,-1.062405 0.120243,-1.572522 -0.371582,-0.447728 -0.392556,-0.872477 -0.05343,-1.082067 0.307043,-0.189763 0.856356,0.01416 1.220696,0.453162 0.505538,0.609136 0.344834,1.063306 -0.678503,1.917546 -0.737516,0.615648 -1.011568,0.743394 -0.609006,0.283881 z M 24.131976,38.457808 c -0.724027,-0.467902 -0.638358,-0.580379 0.447682,-0.58777 0.738676,-0.005 1.343047,0.259469 1.343047,0.58777 0,0.747881 -0.633465,0.747881 -1.790729,0 z m 21.384409,-0.683166 c 1.374086,-1.562776 0.972166,-2.811428 -0.6418,-1.99389 -0.410376,0.207871 -0.236499,-0.03628 0.386392,-0.542561 0.622892,-0.50628 1.361567,-0.778956 1.641502,-0.605947 0.944926,0.583996 0.517674,1.819063 -1.13253,3.273832 l -1.641501,1.447096 z m -23.777502,-2.0095 c -0.613844,-0.739636 -0.525021,-0.888792 0.529275,-0.888792 0.6968,0 1.266908,0.252757 1.266908,0.561682 0,1.034122 -1.050623,1.225456 -1.796183,0.32711 z M 57.88286,34.320686 c -0.578406,-0.935881 0.522015,-1.163211 1.34109,-0.277049 0.632174,0.683955 0.611809,0.832713 -0.114,0.832713 -0.486019,0 -1.03821,-0.250049 -1.22709,-0.555664 z m 25.645848,-0.03441 c -0.209122,-0.338364 0.0305,-0.438435 0.56168,-0.234592 1.034098,0.396817 1.2233,0.824662 0.364688,0.824662 -0.308925,0 -0.725795,-0.265533 -0.926368,-0.590073 z m -65.017175,-1.41468 c 0.411687,-1.07284 2.635895,-1.366197 2.635895,-0.347657 0,0.347676 -0.280376,0.458856 -0.623057,0.247067 -0.342682,-0.211789 -1.020354,-0.05535 -1.505939,0.347656 -0.727859,0.60407 -0.816864,0.560688 -0.506899,-0.247066 z M 43.011615,32.06015 c 0.546839,-0.399859 1.223291,-0.585463 1.503225,-0.412454 0.971399,0.600357 0.500991,1.13947 -0.994253,1.13947 -1.327771,0 -1.387178,-0.08486 -0.508972,-0.727016 z M 16.53682,31.555351 c 0.721453,-0.87742 0.8285,-1.416164 0.37208,-1.872584 -0.456419,-0.45642 -0.439111,-0.765401 0.06016,-1.073968 0.385511,-0.238259 1.003519,-0.130609 1.373351,0.239223 0.498621,0.498621 0.221282,1.094593 -1.07301,2.305782 -0.959987,0.898349 -1.289649,1.079046 -0.732582,0.401547 z m 16.34983,-0.658399 c -0.556399,-0.556398 -0.496657,-1.392788 0.09948,-1.392788 0.273584,0 0.497425,0.402914 0.497425,0.895364 0,1.014359 -0.04362,1.050711 -0.59691,0.497424 z m 24.075354,-0.497424 c -0.604352,-0.728201 -0.575922,-0.895364 0.152278,-0.895364 0.492451,0 1.229754,0.402914 1.638451,0.895364 0.604352,0.7282 0.575922,0.895364 -0.152278,0.895364 -0.492451,0 -1.229753,-0.402914 -1.638451,-0.895364 z m -16.481315,-1.06842 c 0.730433,-0.676984 1.361138,-0.860055 1.721501,-0.499692 0.84939,0.84939 -0.08919,2.07394 -1.006252,1.312845 -0.405375,-0.336431 -0.991514,-0.416626 -1.302534,-0.178212 -0.311019,0.238413 -0.04674,-0.04731 0.587285,-0.634941 z M 13.575808,29.142805 c 0.568919,-0.691197 0.875305,-1.671313 0.680858,-2.178033 -0.450439,-1.173823 0.80964,-1.989765 1.699151,-1.100255 0.500013,0.500014 0.147047,1.170738 -1.370471,2.604238 -1.124164,1.061925 -1.578456,1.365248 -1.009538,0.67405 z m 18.579307,-2.305751 c -1.498133,-1.133131 -0.357834,-1.155031 2.20502,-0.04234 1.880115,0.816266 1.910863,0.873494 0.481074,0.895364 -0.840078,0.01285 -2.04882,-0.371006 -2.686094,-0.853016 z m 6.586916,0.256446 c -0.571823,-0.925228 0.4404,-1.829683 1.390521,-1.242476 0.61574,0.380549 0.595554,0.619798 -0.101076,1.197949 -0.643055,0.533688 -0.979937,0.545321 -1.289445,0.04453 z m 17.623064,-0.27543 c -0.449931,-0.542133 -0.498025,-0.895364 -0.121908,-0.895364 0.341647,0 1.113213,-0.159644 1.71459,-0.354763 0.888119,-0.288155 0.928444,-0.238147 0.214775,0.266344 -0.773575,0.54684 -0.773575,0.657565 0,0.926008 0.483249,0.167696 1.684464,0.410509 2.669365,0.539585 1.245559,0.163235 0.94979,0.26191 -0.971504,0.324119 C 58.053405,27.68283 56.8539,27.407045 56.365095,26.81807 Z M 31.035093,23.000705 c -0.573406,-0.92779 1.332575,-1.226081 2.079974,-0.325521 0.582045,0.701322 0.486519,0.859883 -0.51804,0.859883 -0.677425,0 -1.380295,-0.240463 -1.561934,-0.534362 z m 24.235361,0.01138 c -0.625702,-0.396632 -0.564233,-0.593709 0.287068,-0.920384 0.602893,-0.231352 1.177085,-0.134192 1.29485,0.219105 0.116378,0.349134 0.498766,0.457309 0.849752,0.240388 0.377187,-0.233115 0.463982,-0.112585 0.212245,0.294736 -0.500024,0.809055 -1.52782,0.873646 -2.643915,0.166155 z m -24.78833,-3.953843 c -0.233704,-0.60902 0.03222,-0.895364 0.831501,-0.895364 0.64658,0 1.175085,0.402698 1.175085,0.895364 0,0.492451 -0.374175,0.895365 -0.831501,0.895365 -0.457326,0 -0.986115,-0.402914 -1.175085,-0.895365 z m 24.490182,0.497425 c -0.686825,-0.686824 -0.434694,-1.392789 0.497424,-1.392789 0.492451,0 0.895365,0.402914 0.895365,0.895364 0,0.932119 -0.705965,1.184249 -1.392789,0.497425 z M 36.070168,18.759791 c -0.53799,-0.347676 -0.611613,-0.582277 -0.184455,-0.587769 0.391,-0.005 0.876918,0.259468 1.079819,0.587769 0.458012,0.741078 0.251373,0.741078 -0.895364,0 z"
         id="path4102" />
      <path
         style="fill:#8c8c8c;fill-opacity:1;stroke-width:0.59691"
         d="m 17.613094,91.831477 c 0.02864,-0.69537 0.170084,-0.836808 0.360634,-0.360635 0.172429,0.430891 0.151223,0.945726 -0.04713,1.144079 -0.198349,0.198347 -0.339428,-0.154206 -0.313509,-0.783444 z m 20.695485,-6.016222 c 0.410375,-0.165589 1.081899,-0.165589 1.492274,0 0.410375,0.165588 0.07461,0.301075 -0.746137,0.301075 -0.820751,0 -1.156512,-0.135487 -0.746137,-0.301075 z m 24.510601,-0.01242 c 0.430891,-0.172429 0.945725,-0.151227 1.144078,0.0471 0.198347,0.198347 -0.154205,0.339427 -0.783443,0.313509 -0.69537,-0.02865 -0.836808,-0.170083 -0.360635,-0.360629 z M 37.711669,82.233797 c 0.410376,-0.165589 1.081899,-0.165589 1.492274,0 0.410376,0.165589 0.07461,0.301075 -0.746137,0.301075 -0.82075,0 -1.156512,-0.135486 -0.746137,-0.301075 z m 23.913691,-0.01242 c 0.430892,-0.172429 0.945726,-0.151227 1.144079,0.0471 0.198347,0.198347 -0.154205,0.339426 -0.783444,0.313508 -0.69537,-0.02865 -0.836807,-0.170083 -0.360635,-0.360629 z m -25.631331,-7.20286 c -0.742478,-0.946735 -0.721366,-0.967847 0.225366,-0.225369 0.574526,0.450577 1.044592,0.920643 1.044592,1.044592 0,0.49128 -0.490174,0.175079 -1.269958,-0.819223 z m 2.387639,0 c -0.742479,-0.946735 -0.721366,-0.967847 0.225366,-0.225369 0.574525,0.450577 1.044592,0.920643 1.044592,1.044592 0,0.49128 -0.490174,0.175079 -1.269958,-0.819223 z m 0.914789,-2.089184 -1.137105,-1.343046 1.343046,1.137107 c 1.262133,1.068599 1.614785,1.548986 1.137106,1.548986 -0.113268,0 -0.717639,-0.604371 -1.343047,-1.343047 z m 37.761506,-9.799268 c -0.218869,-0.218863 -0.397942,-0.675498 -0.397942,-1.014746 0,-0.374024 0.278023,-0.338782 0.706341,0.08954 0.388493,0.388493 0.567566,0.845129 0.397942,1.014747 -0.169624,0.169624 -0.487478,0.129332 -0.706341,-0.08954 z m -64.220145,-8.30699 c 0.02864,-0.695365 0.170084,-0.836807 0.360633,-0.360633 0.17243,0.430895 0.151223,0.945729 -0.04713,1.144077 -0.198349,0.198348 -0.339428,-0.154202 -0.313509,-0.783444 z M 5.1472353,53.082093 c 0.012165,-0.984901 0.1459435,-1.315551 0.297286,-0.734777 0.1513425,0.580774 0.1413895,1.386602 -0.022118,1.790729 -0.1635073,0.404127 -0.287333,-0.07105 -0.275168,-1.055952 z m 20.2256837,-0.04974 c 0.02864,-0.695365 0.170084,-0.836807 0.360633,-0.360633 0.17243,0.430894 0.151224,0.945729 -0.04713,1.144077 -0.198348,0.198348 -0.339427,-0.154202 -0.313508,-0.783444 z m 26.73767,-2.487125 c -0.742479,-0.946732 -0.721366,-0.967845 0.225366,-0.225366 0.574525,0.450574 1.044592,0.92064 1.044592,1.044592 0,0.491277 -0.490174,0.175075 -1.269958,-0.819226 z M 15.225456,49.450893 c 0.02864,-0.695366 0.170084,-0.836808 0.360633,-0.360633 0.17243,0.430894 0.151224,0.945729 -0.04713,1.144077 -0.198348,0.198348 -0.339427,-0.154202 -0.313509,-0.783444 z m 38.675861,-0.696395 c -0.742478,-0.946732 -0.721366,-0.967844 0.225367,-0.225366 0.574525,0.450574 1.044591,0.92064 1.044591,1.044592 0,0.491277 -0.490173,0.175075 -1.269958,-0.819226 z M 45.023812,40.62008 c 0,-0.123952 0.470066,-0.594018 1.044592,-1.044592 0.946732,-0.742479 0.967845,-0.721366 0.225366,0.225366 -0.779784,0.994301 -1.269958,1.310503 -1.269958,0.819226 z M 23.535066,39.054717 c -0.771617,-0.498657 -0.755862,-0.579892 0.114,-0.587769 0.55515,-0.005 1.175373,0.259469 1.378274,0.587769 0.466892,0.755447 -0.323303,0.755447 -1.492274,0 z m 24.174839,0 c -0.202901,-0.3283 -0.100301,-0.596909 0.227999,-0.596909 0.328301,0 0.76292,0.268609 0.96582,0.596909 0.202901,0.3283 0.100302,0.59691 -0.227999,0.59691 -0.3283,0 -0.762919,-0.26861 -0.96582,-0.59691 z m -5.670641,-0.749188 c 0,-0.16415 0.379001,-0.612997 0.842223,-0.997437 0.648892,-0.538533 0.944899,-0.521055 1.289519,0.07614 0.246013,0.426317 0.227488,0.575995 -0.04116,0.332618 -0.268653,-0.243376 -0.848937,-0.143334 -1.289519,0.222316 -0.440584,0.36565 -0.80106,0.530515 -0.80106,0.366364 z m -20.879865,-1.92248 c -0.470811,-0.567293 -0.516094,-0.909789 -0.120288,-0.909789 0.721399,0 1.562469,1.132456 1.148513,1.546412 -0.150242,0.150241 -0.612943,-0.136239 -1.028225,-0.636623 z m 24.144342,0.254054 c -0.567195,-0.91774 0.209724,-1.509864 0.975849,-0.743739 0.428688,0.428689 0.438988,0.762568 0.0313,1.014534 -0.334221,0.20656 -0.787437,0.0847 -1.007147,-0.270795 z m -5.733709,-1.306499 c 0.850402,-1.084744 1.906243,-0.895517 1.825198,0.327111 -0.03235,0.48795 -0.144153,0.469088 -0.356502,-0.06014 -0.252833,-0.630127 -0.489685,-0.630127 -1.295922,0 -0.880096,0.687854 -0.898738,0.659047 -0.172774,-0.266969 z m 19.796897,-1.027848 c -0.482942,-0.305423 -0.678004,-0.755387 -0.43347,-0.999921 0.244534,-0.244534 0.898685,0.0095 1.453669,0.564454 1.078846,1.078844 0.43302,1.354511 -1.020199,0.435467 z M 15.502278,30.739228 c -0.441439,-0.714263 0.681447,-1.421974 1.476519,-0.930592 0.667559,0.412574 0.229313,1.486256 -0.606646,1.486256 -0.289549,0 -0.680993,-0.250049 -0.869873,-0.555664 z m 24.473293,0 c -0.407731,-0.659723 0.533881,-1.372087 1.085072,-0.820897 0.567532,0.567533 0.461761,1.376561 -0.17997,1.376561 -0.308926,0 -0.716221,-0.250049 -0.905102,-0.555664 z m 18.777162,-0.3397 c -0.604352,-0.728201 -0.575922,-0.895364 0.152278,-0.895364 0.492451,0 1.229753,0.402914 1.638451,0.895364 0.604353,0.7282 0.575922,0.895364 -0.152278,0.895364 -0.492451,0 -1.229754,-0.402914 -1.638451,-0.895364 z M 13.089148,28.310344 c -0.238259,-0.385511 -0.164589,-0.969539 0.163712,-1.297839 0.397939,-0.39794 0.741308,-0.363266 1.030107,0.10402 0.238259,0.385512 0.164589,0.969539 -0.163711,1.29784 -0.397939,0.397939 -0.741309,0.363266 -1.030108,-0.104021 z m 24.195835,-0.273156 c -0.420245,-0.506365 -1.217072,-0.920663 -1.770726,-0.920663 -0.553654,0 -1.475848,-0.34309 -2.049321,-0.762424 -0.954588,-0.698012 -0.919137,-0.772648 0.419625,-0.883447 0.804265,-0.06656 1.792239,0.276527 2.195497,0.762423 0.795706,0.958767 2.068896,1.235535 1.507875,0.327784 -0.188881,-0.305616 -0.0033,-0.751594 0.412454,-0.991064 0.415731,-0.23947 0.556748,-0.215593 0.313371,0.05306 -0.243377,0.268654 -0.133887,0.860321 0.243311,1.314817 0.45721,0.550905 0.486845,1.025327 0.08891,1.423266 -0.39794,0.39794 -0.851603,0.290022 -1.360991,-0.323752 z m 20.611042,-1.455025 c -0.573406,-0.92779 1.332576,-1.226081 2.079974,-0.325521 0.582045,0.701322 0.486519,0.859883 -0.51804,0.859883 -0.677424,0 -1.380294,-0.240463 -1.561934,-0.534362 z M 32.771053,22.315179 c -0.194039,-0.313962 0.200273,-0.57084 0.876249,-0.57084 1.441277,0 1.586678,0.331948 0.352798,0.805432 -0.481936,0.184936 -1.035007,0.07937 -1.229047,-0.234592 z m 24.190951,-0.02981 c 0,-0.297565 0.537219,-0.541027 1.193819,-0.541027 0.656601,0 1.19382,0.102976 1.19382,0.228836 0,0.12586 -0.537219,0.369323 -1.19382,0.541027 -0.6566,0.171705 -1.193819,0.06873 -1.193819,-0.228836 z M 32.489896,18.312108 c 6.57e-4,-0.246225 0.816118,-0.504777 1.812145,-0.57456 1.036549,-0.07262 1.659109,0.118818 1.45586,0.447683 -0.416166,0.673368 -3.269746,0.784157 -3.268005,0.126877 z m 24.770563,-0.149227 c 1.649083,-0.708636 2.686093,-0.708636 2.686093,0 0,0.3283 -0.87298,0.578031 -1.939956,0.554956 -1.625699,-0.03516 -1.746568,-0.125056 -0.746137,-0.554956 z M 38.345886,17.755124 c 0.430894,-0.17243 0.945729,-0.151224 1.144077,0.04713 0.198347,0.198348 -0.154202,0.339427 -0.783444,0.313509 -0.695366,-0.02864 -0.836808,-0.170084 -0.360633,-0.360633 z m 23.876384,0 c 0.430891,-0.17243 0.945726,-0.151224 1.144079,0.04713 0.198347,0.198348 -0.154206,0.339427 -0.783444,0.313509 -0.69537,-0.02864 -0.836808,-0.170084 -0.360635,-0.360633 z"
         id="path4100" />
      <path
         style="fill:#767676;fill-opacity:1;stroke-width:0.59691"
         d="m 19.058244,92.776582 c 0.202901,-0.328301 0.487363,-0.59691 0.632138,-0.59691 0.144775,0 0.263227,0.268609 0.263227,0.59691 0,0.3283 -0.284462,0.596909 -0.632138,0.596909 -0.347675,0 -0.466128,-0.268609 -0.263227,-0.596909 z M 36.070168,78.152296 c -0.408697,-0.49245 -0.534261,-0.895364 -0.27903,-0.895364 0.255232,0 -0.04572,-0.604371 -0.668778,-1.343047 l -1.132835,-1.343046 1.537747,1.353635 c 0.84576,0.744502 1.537746,1.751787 1.537746,2.238412 0,1.099782 -0.07398,1.098994 -0.99485,-0.01057 z M 61.62536,75.655358 c 0.430892,-0.172429 0.945726,-0.151227 1.144079,0.0471 0.198347,0.198353 -0.154205,0.339427 -0.783444,0.313509 -0.69537,-0.02865 -0.836807,-0.170084 -0.360635,-0.360629 z m -1.828035,-1.181386 c 0.410375,-0.165588 1.081898,-0.165588 1.492274,0 0.410375,0.165589 0.07461,0.301075 -0.746137,0.301075 -0.820751,0 -1.156513,-0.135486 -0.746137,-0.301075 z M 35.711241,71.735518 c -0.23616,-0.410375 -0.209574,-0.547008 0.05908,-0.303636 0.268653,0.243378 0.916089,0.109073 1.438746,-0.298455 0.840799,-0.655586 0.855899,-0.620601 0.13106,0.303636 -0.976408,1.245016 -1.073886,1.262876 -1.628884,0.298455 z m 10.925618,-0.845624 c 0.167974,-0.437732 0.382236,-0.795877 0.476137,-0.795877 0.0939,0 0.308163,0.358145 0.476137,0.795877 0.167974,0.437738 -0.04629,0.795884 -0.476137,0.795884 -0.42985,0 -0.644112,-0.358146 -0.476137,-0.795884 z m 17.687028,0.125745 c 0,-0.478011 0.228223,-0.728056 0.507165,-0.555663 0.278935,0.172393 0.352624,0.563489 0.163738,0.869106 -0.482673,0.780985 -0.670903,0.693048 -0.670903,-0.313443 z M 22.182543,66.5623 c -0.634574,-0.814131 -0.60497,-0.842425 0.213625,-0.20415 0.522657,0.407529 1.100131,0.591114 1.283275,0.40797 0.183144,-0.183144 0.482375,-0.09127 0.664959,0.204149 0.585365,0.947141 -1.397248,0.572998 -2.161859,-0.407969 z m 53.078662,-2.110625 c -0.405779,-1.057431 1.11837,-2.457262 1.682187,-1.544981 0.214308,0.346762 -0.0042,1.024428 -0.485789,1.505919 -0.74246,0.74246 -0.924201,0.748393 -1.196398,0.03904 z M 40.995975,52.485183 c 0.0066,-1.313201 0.128864,-1.780135 0.271641,-1.037632 0.142776,0.742504 0.137356,1.816941 -0.01205,2.387638 -0.149402,0.570698 -0.26622,-0.03681 -0.259595,-1.350006 z m -28.111033,0.298455 c 0,-0.820751 0.135483,-1.156512 0.301073,-0.746137 0.16559,0.410375 0.16559,1.081899 0,1.492274 -0.16559,0.410375 -0.301073,0.07461 -0.301073,-0.746137 z m 20.247802,-0.348197 c 0.02864,-0.695366 0.170084,-0.836808 0.360633,-0.360633 0.17243,0.430894 0.151224,0.945729 -0.04713,1.144077 -0.198348,0.198348 -0.339427,-0.154202 -0.313509,-0.783444 z m 5.969096,-1.193819 c 0.02864,-0.695366 0.170084,-0.836808 0.360633,-0.360633 0.17243,0.430894 0.151224,0.945728 -0.04713,1.144077 -0.198348,0.198347 -0.339427,-0.154202 -0.313509,-0.783444 z M 27.807683,50.396 c 0,-0.820751 0.135482,-1.156513 0.301072,-0.746137 0.16559,0.410375 0.16559,1.081898 0,1.492274 -0.16559,0.410375 -0.301072,0.07461 -0.301072,-0.746137 z M 23.218085,40.21856 c -0.567194,-0.917739 0.209724,-1.509864 0.97585,-0.743738 0.428688,0.428688 0.438988,0.762567 0.0313,1.014534 -0.334221,0.20656 -0.787437,0.0847 -1.007146,-0.270796 z m 23.894911,-0.566933 c -0.202901,-0.3283 -0.100301,-0.59691 0.227999,-0.59691 0.3283,0 0.762919,0.26861 0.96582,0.59691 0.202901,0.3283 0.100301,0.596909 -0.227999,0.596909 -0.328301,0 -0.762919,-0.268609 -0.96582,-0.596909 z M 21.147428,37.328246 c 0,-0.402393 -0.268609,-0.565613 -0.59691,-0.362712 -0.3283,0.202901 -0.596909,0.08445 -0.596909,-0.263227 0,-0.347676 0.252756,-0.632138 0.561681,-0.632138 0.736953,0 1.448943,1.172894 0.990365,1.631472 -0.197025,0.197025 -0.358227,0.029 -0.358227,-0.373395 z m 22.682565,-0.760652 c 0,-0.273584 0.252756,-0.497425 0.561682,-0.497425 0.308925,0 0.700023,0.223841 0.869107,0.497425 0.169084,0.273584 -0.08367,0.497425 -0.561682,0.497425 -0.478009,0 -0.869107,-0.223841 -0.869107,-0.497425 z M 63.826465,34.87635 c 0.202901,-0.3283 0.487364,-0.59691 0.632139,-0.59691 0.144774,0 0.263225,0.26861 0.263225,0.59691 0,0.3283 -0.284463,0.59691 -0.632139,0.59691 -0.347676,0 -0.466127,-0.26861 -0.263225,-0.59691 z M 16.969061,34.349896 c 0,-0.3283 0.268609,-0.762919 0.596909,-0.96582 0.328301,-0.202901 0.59691,-0.100301 0.59691,0.227999 0,0.3283 -0.268609,0.762919 -0.59691,0.96582 -0.3283,0.202901 -0.596909,0.100301 -0.596909,-0.227999 z m 43.574401,-0.36891 c -0.952414,-1.147588 0.0193,-1.159666 1.527414,-0.01898 0.973416,0.736253 1.003339,0.879415 0.187173,0.895364 -0.534324,0.01044 -1.30589,-0.383932 -1.714587,-0.876382 z M 41.1439,33.682531 c 0.202901,-0.328301 0.487362,-0.59691 0.632137,-0.59691 0.144775,0 0.263227,0.268609 0.263227,0.59691 0,0.3283 -0.284462,0.596909 -0.632137,0.596909 -0.347676,0 -0.466128,-0.268609 -0.263227,-0.596909 z M 15.023926,33.14769 c 0.07923,-0.137875 -0.135274,-0.587244 -0.476667,-0.998598 -0.433456,-0.522282 -0.416203,-0.874313 0.05719,-1.166885 1.071021,-0.661928 1.876419,0.554059 1.023803,1.545733 -0.411606,0.478737 -0.683552,0.757624 -0.604325,0.61975 z m 66.93214,-0.509751 c -0.742478,-0.946732 -0.721365,-0.967845 0.225369,-0.225366 0.994302,0.779784 1.310503,1.269958 0.819223,1.269958 -0.123949,0 -0.594015,-0.470067 -1.044592,-1.044592 z M 38.106557,31.390323 c 0.484428,-0.484428 1.301146,-0.684612 1.882673,-0.461459 1.323258,0.507782 0.577786,1.253376 -1.28901,1.28922 -1.258278,0.02416 -1.336507,-0.08492 -0.593663,-0.827761 z M 11.866895,29.703229 c 0.01564,-0.930237 0.290328,-1.644333 0.610421,-1.58688 0.930488,0.16701 0.988183,1.053111 0.143761,2.207927 -0.71231,0.974142 -0.780062,0.918349 -0.754182,-0.621047 z m 48.676567,0.696299 c -0.604353,-0.728201 -0.575922,-0.895364 0.152278,-0.895364 0.49245,0 1.229753,0.402914 1.638451,0.895364 0.604353,0.7282 0.575922,0.895364 -0.152278,0.895364 -0.49245,0 -1.229754,-0.402914 -1.638451,-0.895364 z m 23.831204,-0.746137 -1.447094,-1.641501 1.641501,1.447096 c 0.902826,0.795903 1.641502,1.534579 1.641502,1.641501 0,0.468141 -0.483378,0.08713 -1.835909,-1.447096 z m -48.128752,-0.04061 c -0.458167,-0.283163 -0.518088,-0.748515 -0.169093,-1.313201 0.430495,-0.696556 0.691436,-0.72373 1.281692,-0.133473 0.890203,0.890202 -0.04514,2.106398 -1.112599,1.446674 z M 85.537523,27.86266 c -0.742478,-0.946732 -0.721365,-0.967845 0.22537,-0.225366 0.994302,0.779784 1.310503,1.269958 0.819222,1.269958 -0.123948,0 -0.594014,-0.470066 -1.044592,-1.044592 z M 59.946552,26.221161 C 59.3422,25.49296 59.37063,25.325796 60.09883,25.325796 c 0.492451,0 1.229753,0.402914 1.638451,0.895365 0.604353,0.7282 0.575922,0.895364 -0.152278,0.895364 -0.492451,0 -1.229753,-0.402914 -1.638451,-0.895364 z M 35.771713,25.922706 c -0.202901,-0.3283 0.04985,-0.59691 0.561682,-0.59691 0.511825,0 0.930592,0.26861 0.930592,0.59691 0,0.3283 -0.252756,0.59691 -0.561682,0.59691 -0.308925,0 -0.727691,-0.26861 -0.930592,-0.59691 z m 1.492274,-2.984548 c 0,-0.3283 -0.604371,-0.628069 -1.343046,-0.666152 -0.99313,-0.0512 -1.073783,-0.139807 -0.309564,-0.340083 0.568415,-0.148962 1.635467,0.150806 2.371227,0.666152 1.094853,0.766865 1.15106,0.936992 0.309564,0.936992 -0.565499,0 -1.028181,-0.268609 -1.028181,-0.596909 z m 24.473294,0.04151 c 0,-0.305466 -0.604371,-0.6718 -1.343047,-0.814076 -1.286352,-0.247762 -1.289438,-0.262113 -0.07309,-0.33997 0.698477,-0.04471 1.604347,0.321626 2.013045,0.814076 0.513402,0.618615 0.535995,0.895364 0.07309,0.895364 -0.368496,0 -0.669995,-0.249927 -0.669995,-0.555394 z M 36.965532,18.759791 c -0.830595,-0.917798 -0.885183,-1.19382 -0.236098,-1.19382 0.464361,0 1.179792,0.537219 1.589846,1.19382 0.410053,0.6566 0.516298,1.193819 0.236098,1.193819 -0.2802,0 -0.99563,-0.537219 -1.589846,-1.193819 z m 23.876385,0 c -0.830596,-0.917798 -0.885184,-1.19382 -0.236098,-1.19382 0.464361,0 1.179794,0.537219 1.589847,1.19382 0.410053,0.6566 0.516297,1.193819 0.236095,1.193819 -0.280201,0 -0.995627,-0.537219 -1.589844,-1.193819 z"
         id="path4098" />
      <path
         style="fill:#606060;fill-opacity:1;stroke-width:0.59691"
         d="m 67.55715,89.347294 c 3.036777,-0.108333 8.00605,-0.108333 11.042827,0 3.036778,0.108333 0.552142,0.196974 -5.521414,0.196974 -6.073555,0 -8.558191,-0.08864 -5.521413,-0.196974 z M 14.505283,88.150532 c -0.742478,-0.946734 -0.721365,-0.967847 0.225367,-0.225369 0.574525,0.450577 1.044591,0.920644 1.044591,1.044592 0,0.49128 -0.490173,0.175079 -1.269958,-0.819223 z m 57.081006,-0.780381 c 3.385588,-0.700283 11.49861,-0.677015 11.938193,0.03426 0.239145,0.386947 -2.215514,0.572765 -6.978459,0.528265 -5.53916,-0.05175 -6.759768,-0.190187 -4.959734,-0.56251 z m 12.535102,-0.562665 c -0.202901,-0.328301 -0.08445,-0.59691 0.263225,-0.59691 0.347676,0 0.63214,0.268609 0.63214,0.59691 0,0.3283 -0.118451,0.596909 -0.263226,0.596909 -0.144774,0 -0.429237,-0.268609 -0.632139,-0.596909 z M 49.684669,86.220204 c -3.523078,-1.062768 -8.231171,-3.793551 -11.381825,-6.601683 -1.825647,-1.627175 -3.544921,-2.961579 -3.820609,-2.965345 -0.275688,-0.0036 -1.00259,-1.053659 -1.615338,-2.333087 -0.850563,-1.775991 -1.721337,-2.558146 -3.681311,-3.306664 -3.138399,-1.198571 -7.461132,-4.912041 -9.231819,-7.930661 l -1.314452,-2.240846 1.403283,1.254101 c 0.771807,0.689753 1.852501,1.411996 2.401543,1.604988 0.635906,0.223519 0.888691,0.76987 0.696407,1.505162 -0.211639,0.809308 0.24819,1.545942 1.538608,2.464801 1.012252,0.720786 1.840458,1.017426 1.840458,0.659203 0,-0.37477 0.666864,-0.214368 1.57057,0.37776 1.564807,1.0253 1.568896,1.023712 1.114489,-0.433924 -0.441971,-1.417737 -0.419813,-1.430643 0.716282,-0.417102 0.644799,0.575242 1.395085,0.843851 1.667303,0.59691 0.272218,-0.246942 0.315899,-0.136162 0.09707,0.246171 -0.218831,0.382333 -0.18504,0.785247 0.07509,0.895364 1.009633,0.427388 3.103491,4.014904 2.801945,4.800724 -0.33954,0.884822 2.45294,3.905424 3.054425,3.303936 0.196628,-0.196628 2.094931,0.831985 4.218451,2.2858 2.123519,1.453821 4.104145,2.643306 4.40139,2.643306 0.297245,0 0.391308,0.388648 0.209029,0.863663 -0.242649,0.63233 0.561774,1.123318 3.003281,1.833085 1.834085,0.533184 3.3347,1.084669 3.3347,1.225522 0,0.363959 -1.230477,0.23246 -3.098968,-0.331184 z m 5.971595,-1.014293 c 0.430895,-0.172429 0.945729,-0.151227 1.144077,0.0471 0.198348,0.198347 -0.154202,0.339426 -0.783444,0.313509 -0.695365,-0.02865 -0.836807,-0.170084 -0.360633,-0.360629 z m 22.048349,0.01242 c 0.410375,-0.165588 1.081899,-0.165588 1.492274,0 0.410375,0.165589 0.07461,0.301075 -0.746137,0.301075 -0.820751,0 -1.156512,-0.135486 -0.746137,-0.301075 z M 49.038377,81.780295 C 42.96148,79.281357 36.233048,73.215687 33.346863,67.634421 l -0.860918,-1.664835 1.793648,1.017624 c 1.618454,0.918226 2.591775,2.360264 2.70131,4.002171 0.08218,1.231825 1.566076,3.315158 2.254215,3.164833 0.964016,-0.210596 8.176332,4.942268 8.176332,5.841608 0,0.873959 2.289363,1.504809 4.156228,1.145284 0.75762,-0.145902 1.209172,-0.09696 1.003449,0.108763 -0.205723,0.205725 -0.07487,0.734521 0.290777,1.1751 0.929294,1.119731 0.145944,0.987653 -3.823527,-0.644674 z m 41.350565,-3.329544 c 0,-0.984901 0.268609,-1.790729 0.59691,-1.790729 0.3283,0 0.596909,0.805828 0.596909,1.790729 0,0.984901 -0.268609,1.790729 -0.596909,1.790729 -0.328301,0 -0.59691,-0.805828 -0.59691,-1.790729 z m 2.481885,0.59691 c 0,-0.820751 0.135486,-1.156513 0.301075,-0.746137 0.165588,0.410375 0.165588,1.081898 0,1.492274 -0.165589,0.410375 -0.301075,0.07461 -0.301075,-0.746137 z m -40.08719,0.03753 C 46.882102,77.278803 39.82244,71.544286 37.250301,66.46757 c -1.231141,-2.429941 -1.24442,-2.557483 -0.166098,-1.595211 0.644616,0.575242 1.333489,0.884435 1.530828,0.687097 0.19734,-0.197339 0.226292,0.147908 0.06434,0.767225 -0.3228,1.234386 1.949023,4.568848 2.767984,4.062698 0.278473,-0.1721 1.532858,0.629883 2.787523,1.782193 1.254666,1.152311 2.482667,2.096389 2.728892,2.097959 0.246225,0.0018 0.447682,0.398867 0.447682,0.882889 0,1.083665 3.587757,3.047396 4.108351,2.248678 0.202659,-0.310931 1.034346,0.06665 1.848192,0.839069 0.813846,0.772425 1.351064,1.381315 1.193819,1.353099 -0.157246,-0.02822 -0.957424,-0.25685 -1.778175,-0.508078 z m 32.233119,-0.932892 c 0,-0.82075 0.268609,-1.492274 0.596909,-1.492274 0.3283,0 0.59691,0.671524 0.59691,1.492274 0,0.820751 -0.26861,1.492274 -0.59691,1.492274 -0.3283,0 -0.596909,-0.671523 -0.596909,-1.492274 z m 2.434764,0.547169 c 0.02865,-0.695369 0.170083,-0.836807 0.360629,-0.360634 0.172429,0.430891 0.151227,0.945725 -0.0471,1.144078 -0.198353,0.198347 -0.339427,-0.154205 -0.313509,-0.783444 z m 1.193819,0 c 0.02865,-0.695369 0.170084,-0.836807 0.360629,-0.360634 0.172429,0.430891 0.151227,0.945725 -0.0471,1.144078 -0.198353,0.198347 -0.339427,-0.154205 -0.313509,-0.783444 z M 57.558914,76.425431 c 0,-0.129028 0.416865,-0.394557 0.926366,-0.590075 0.531205,-0.203839 0.770803,-0.103773 0.561682,0.234591 -0.35054,0.56719 -1.488048,0.838927 -1.488048,0.355484 z M 50.54343,73.994725 c -3.447153,-1.604875 -8.193575,-6.065067 -9.889578,-9.293196 -0.627932,-1.195186 -0.719276,-1.618305 -0.216301,-1.00193 0.47886,0.586821 1.102295,0.989837 1.385411,0.895591 0.74976,-0.249592 5.460697,5.080053 5.182748,5.863413 -0.310882,0.87618 2.567277,2.733309 3.889021,2.50939 0.57091,-0.09672 1.80291,0.425812 2.737779,1.161174 2.227767,1.752366 0.833275,1.691672 -3.08908,-0.134442 z m 36.421489,1.043148 c 0.907339,-0.137206 2.250385,-0.133535 2.984548,0.0081 0.734163,0.141682 -0.0082,0.253937 -1.649709,0.24946 -1.641501,-0.0048 -2.242177,-0.120408 -1.334839,-0.257608 z M 7.5487819,72.040993 c -2.2723137,-3.243727 -2.5395057,-4.078797 -1.305065,-4.078797 0.6148678,0 1.0039177,0.114021 0.8645553,0.253388 -0.1393624,0.13936 0.4106469,1.042544 1.2222434,2.007073 1.5853107,1.884031 1.7937194,2.588862 0.9243641,3.126153 C 8.951683,73.536197 8.1839391,72.947674 7.5487819,72.040993 Z M 59.834632,72.67081 c 0.430894,-0.17243 0.945728,-0.151227 1.144077,0.0471 0.198348,0.198353 -0.154202,0.339427 -0.783444,0.313509 -0.695366,-0.02865 -0.836808,-0.170084 -0.360633,-0.360629 z m -6.334538,-1.412557 c -2.82687,-1.134301 -6.711956,-4.270518 -8.48797,-6.851866 -1.010016,-1.468009 -1.570732,-2.669105 -1.246035,-2.669105 0.324697,0 0.759076,0.272991 0.965286,0.606645 0.20621,0.333655 0.666479,0.426456 1.02282,0.206227 0.373693,-0.230957 0.477235,-0.124289 0.244655,0.252033 -0.22178,0.35885 0.07024,0.917426 0.648936,1.241279 0.578696,0.323854 0.849194,0.791807 0.601107,1.039888 -0.730755,0.730761 2.514818,3.71433 3.702609,3.403716 0.632767,-0.165475 1.869586,0.462916 3.071085,1.560316 2.05315,1.875257 1.917386,2.189894 -0.522493,1.210867 z M 10.111571,69.03868 C 9.2869868,67.825193 8.6123262,66.60659 8.6123262,66.330675 c 0,-0.649378 2.9678758,1.683177 3.9797358,3.127812 0.650738,0.92906 0.634105,1.166666 -0.10143,1.448915 -0.565404,0.216964 -1.415586,-0.45084 -2.379061,-1.868722 z m 4.668821,0.922512 c 0,-0.423238 -0.737836,-1.938338 -1.639636,-3.36688 l -1.639636,-2.597351 1.47865,1.108569 c 0.813257,0.609719 1.345707,1.32696 1.183222,1.593868 -0.162485,0.266914 0.181175,1.011935 0.763689,1.655606 0.712863,0.787706 0.862077,1.367353 0.456413,1.773013 -0.405663,0.405665 -0.602702,0.351126 -0.602702,-0.166825 z M 78.450129,59.051189 c -0.16381,-6.566006 -0.551413,-12.475411 -0.861346,-13.132011 -0.53085,-1.124634 -0.504186,-1.135031 0.460139,-0.179409 0.911344,0.903121 1.005841,2.343825 0.861347,13.132012 l -0.1623,12.1176 z M 18.942838,68.15406 c -2.00701,-2.211484 -3.299424,-4.539032 -2.972384,-5.353061 0.198233,-0.493417 0.324188,-0.406179 0.354573,0.245581 0.02592,0.555967 0.7858,1.458936 1.688625,2.006607 0.902826,0.547664 2.266303,1.771592 3.029948,2.719836 1.293032,1.605603 1.310438,1.724084 0.253277,1.724084 -0.624343,0 -1.68366,-0.604371 -2.354039,-1.343047 z M 79.89634,57.558915 c 0,-6.730156 0.08705,-9.483401 0.193452,-6.118323 0.106399,3.365077 0.106399,8.871569 0,12.236646 -0.106399,3.365078 -0.193452,0.611833 -0.193452,-6.118323 z m 16.713469,0 c 0,-6.730156 0.08705,-9.483401 0.193452,-6.118323 0.106399,3.365077 0.106399,8.871569 0,12.236646 -0.106399,3.365078 -0.193452,0.611833 -0.193452,-6.118323 z m -11.476686,9.849008 c 0.01218,-0.9849 0.145945,-1.315553 0.297285,-0.734777 0.15134,0.580775 0.14139,1.386603 -0.02214,1.790728 -0.163512,0.404126 -0.287335,-0.07105 -0.27517,-1.055951 z M 74.714884,67.054547 c 0.407528,-0.522654 0.541832,-1.170092 0.298455,-1.438743 -0.243372,-0.268657 -0.06442,-0.269093 0.397661,-0.0012 0.640621,0.371708 0.762993,0.19239 0.515246,-0.755007 -0.232013,-0.887217 -0.09135,-1.152865 0.491949,-0.929036 C 77.380921,64.3 76.728433,65.84057 75.051111,67.158332 74.090713,67.912855 74.05426,67.90158 74.714884,67.05432 Z M 4.918948,64.910985 c 0.4308941,-0.172429 0.9457286,-0.151227 1.1440767,0.0471 C 6.2613728,65.156434 5.9088231,65.297508 5.2795809,65.27159 4.5842152,65.242938 4.4427737,65.101507 4.918948,64.910961 Z M 88.16189,63.711268 c 0.580775,-0.15134 1.386603,-0.14139 1.790729,0.02209 0.404126,0.163511 -0.07105,0.287334 -1.055951,0.275169 -0.984901,-0.01218 -1.315553,-0.145944 -0.734778,-0.297285 z m 0,-2.984548 c 0.580775,-0.151343 1.386603,-0.14139 1.790729,0.02211 0.404126,0.163507 -0.07105,0.287333 -1.055951,0.275168 -0.984901,-0.01217 -1.315553,-0.145943 -0.734778,-0.297286 z m -3.028767,-3.46626 c 0.01218,-0.984901 0.145945,-1.31555 0.297285,-0.734776 0.15134,0.580773 0.14139,1.386601 -0.02214,1.790728 -0.163482,0.404127 -0.287305,-0.07105 -0.27514,-1.055952 z M 71.806477,56.160947 c 0.365649,-0.440582 0.465691,-1.020866 0.222314,-1.289519 -0.243372,-0.268653 -0.0937,-0.287177 0.332621,-0.04116 0.597191,0.34462 0.614674,0.640627 0.07614,1.289519 -0.384439,0.463223 -0.833286,0.842223 -0.997436,0.842223 -0.16415,0 5.97e-4,-0.360476 0.366365,-0.801058 z M 39.10184,54.22617 c 0.02864,-0.695366 0.170084,-0.836808 0.360633,-0.360633 0.17243,0.430894 0.151224,0.945728 -0.04713,1.144077 -0.198348,0.198347 -0.339427,-0.154202 -0.313509,-0.783444 z m 46.031283,-6.516264 c 0.01218,-0.9849 0.145945,-1.31555 0.297285,-0.734776 0.15134,0.580773 0.14139,1.386601 -0.02214,1.790729 -0.163482,0.404127 -0.287305,-0.07105 -0.27514,-1.055953 z m 3.028767,-3.696655 c 0.580775,-0.151343 1.386603,-0.14139 1.790729,0.02212 0.404126,0.163507 -0.07105,0.287333 -1.055951,0.275168 -0.984901,-0.01216 -1.315553,-0.145943 -0.734778,-0.297286 z M 21.417774,40.383656 c 0.853574,-1.021513 1.25336,-1.169136 1.616523,-0.596909 0.755014,1.189656 0.583155,1.870159 -0.289416,1.14599 -0.578448,-0.480069 -1.014058,-0.459667 -1.625663,0.07614 -0.459513,0.402564 -0.325163,0.121215 0.298556,-0.62522 z M 46.49756,40.81547 c -0.567194,-0.91774 0.209724,-1.509864 0.975849,-0.743739 0.428689,0.428689 0.438988,0.762568 0.0313,1.014535 -0.334221,0.20656 -0.787437,0.0847 -1.007146,-0.270796 z M 17.913729,39.134492 c -0.175784,-0.284423 0.211278,-0.997578 0.860136,-1.584787 0.648859,-0.58721 1.179744,-0.786151 1.179744,-0.442093 0,0.344059 -0.419939,0.786706 -0.933198,0.983662 -0.513259,0.196956 -0.766016,0.628609 -0.561682,0.959227 0.204334,0.33062 0.237211,0.601126 0.07306,0.601126 -0.16415,0 -0.442278,-0.232711 -0.618061,-0.517135 z m 69.651252,0.103482 c 0.580775,-0.151342 1.386603,-0.14139 1.790728,0.02211 0.404126,0.163508 -0.07105,0.287334 -1.055951,0.275168 -0.9849,-0.01217 -1.315553,-0.145943 -0.734777,-0.297286 z M 53.380547,38.223216 c 0,-0.129026 0.416864,-0.394559 0.926366,-0.590073 0.531205,-0.203842 0.770803,-0.103772 0.561682,0.234592 -0.35054,0.567186 -1.488048,0.838925 -1.488048,0.355481 z m -36.964293,-2.39836 c -0.412462,-0.496987 -0.47024,-0.983594 -0.14095,-1.187106 0.306917,-0.189685 0.697727,0.189315 0.868466,0.842223 0.367818,1.406536 0.214069,1.479422 -0.727516,0.344883 z m 45.654622,-1.862854 c -0.637273,-0.48201 -0.860702,-0.876381 -0.496504,-0.876381 1.132332,0 2.550547,0.699328 2.550547,1.257682 0,0.762161 -0.718625,0.628759 -2.054043,-0.381301 z M 13.542773,33.349574 c -0.515265,-0.555333 -0.544808,-0.918508 -0.09722,-1.195134 0.852725,-0.527013 1.797153,0.46055 1.260238,1.317797 -0.305315,0.487469 -0.628541,0.453379 -1.163021,-0.122663 z m 24.04516,-0.222708 c -0.441439,-0.714263 0.681447,-1.421974 1.47652,-0.930592 0.667558,0.412575 0.229313,1.486257 -0.606647,1.486257 -0.289549,0 -0.680992,-0.250049 -0.869873,-0.555665 z M 8.3393624,32.529957 C 8.1504817,32.224341 8.224166,31.833243 8.5031042,31.66085 c 0.2789389,-0.172394 0.5071619,0.07766 0.5071619,0.555664 0,1.006489 -0.1882277,1.094429 -0.6709037,0.313443 z m 2.4491456,-1.522049 c -0.505509,-1.317336 0.133691,-2.417184 0.937592,-1.613282 0.379777,0.379776 0.387493,0.955741 0.02156,1.609621 -0.535746,0.957324 -0.593117,0.957543 -0.959155,0.0036 z m 23.843735,-0.221987 c -0.173009,-0.279935 0.09967,-1.01861 0.605946,-1.641502 0.506281,-0.622891 0.764612,-0.81971 0.57407,-0.437375 -0.190541,0.382335 -0.0286,0.801102 0.359873,0.930593 0.388472,0.12949 0.508598,0.555346 0.266946,0.946346 -0.513878,0.831474 -1.35936,0.925968 -1.806835,0.201938 z m 27.644811,-0.45524 c -0.692331,-0.834203 -0.648488,-0.934808 0.325131,-0.746137 0.618942,0.119941 1.237149,0.553836 1.373788,0.964211 0.35454,1.064821 -0.752101,0.922772 -1.698919,-0.218074 z m -0.539773,-4.10952 c -0.61568,-0.741849 -0.551455,-0.893798 0.374597,-0.886224 0.614721,0.005 1.47596,0.236255 1.913865,0.513841 0.635124,0.402605 0.595059,0.581881 -0.198049,0.886225 -1.304146,0.500447 -1.234397,0.517592 -2.090413,-0.513842 z m 2.580213,-2.504763 c -0.714835,-0.13915 -1.620705,-0.639789 -2.013041,-1.11253 -1.130398,-1.36204 1.392434,-1.105935 3.097387,0.314431 1.416998,1.180478 1.304672,1.26315 -1.084346,0.798099 z M 38.124212,22.658687 c -1.114007,-0.842592 -1.09821,-0.877113 0.409733,-0.895365 0.862628,-0.01044 1.902802,0.383931 2.3115,0.876381 0.616896,0.743315 0.547316,0.895364 -0.409734,0.895364 -0.634052,0 -1.674226,-0.394371 -2.311499,-0.87638 z m 0.333594,-3.600442 c -0.62682,-0.755272 -0.509599,-0.895364 0.749188,-0.895364 0.820751,0 1.826663,0.402914 2.23536,0.895364 0.626821,0.755273 0.509599,0.895365 -0.749187,0.895365 -0.820751,0 -1.826663,-0.402914 -2.235361,-0.895365 z m 23.876385,0 c -0.625866,-0.754124 -0.514154,-0.895364 0.708191,-0.895364 0.7982,0 1.972679,0.394371 2.609951,0.876381 1.098983,0.83123 1.0625,0.877359 -0.708191,0.895364 -1.026774,0.01044 -2.201253,-0.38393 -2.609951,-0.876381 z"
         id="path4096" />
      <path
         style="fill:#494949;fill-opacity:1;stroke-width:0.59691"
         d="m 33.472518,87.090707 c 0.284865,-0.742352 0.529558,-0.773559 1.324312,-0.168907 0.536186,0.407928 1.086804,0.8177 1.223596,0.910597 0.136791,0.0929 -0.45915,0.168908 -1.324313,0.168908 -1.164705,0 -1.482322,-0.23637 -1.223595,-0.910598 z m 18.714209,-0.880131 c -1.43799,-1.12481 -1.445951,-1.167758 -0.218845,-1.180544 0.778355,-0.0081 1.394798,0.450846 1.585618,1.180544 0.171705,0.656601 0.270186,1.187844 0.218846,1.180544 -0.05134,-0.0073 -0.764868,-0.538544 -1.585619,-1.180544 z m 8.659415,0.603744 c -0.209121,-0.338364 0.03048,-0.43843 0.561681,-0.234591 1.034098,0.396819 1.2233,0.824666 0.364688,0.824666 -0.308925,0 -0.725792,-0.265535 -0.926369,-0.590075 z m -26.49023,-2.931489 c -0.45039,-0.285304 -0.712129,-0.839016 -0.581643,-1.230475 0.153274,-0.459823 0.634322,-0.272985 1.359087,0.527871 1.139839,1.259509 0.712037,1.646134 -0.777444,0.702604 z m 3.504985,-0.05989 c -0.795879,-0.51434 -0.795879,-0.578627 0,-0.578627 0.49245,0 1.298278,0.260378 1.790729,0.578627 0.795879,0.514339 0.795879,0.578626 0,0.578626 -0.492451,0 -1.298279,-0.260378 -1.790729,-0.578626 z m 15.105253,-1.473149 -1.674787,-1.473155 1.790729,0.485914 c 0.984901,0.267248 2.133205,0.413091 2.551788,0.324098 0.418583,-0.08899 0.474524,-0.02155 0.124314,0.149926 -0.441021,0.215908 -0.423142,0.569105 0.05817,1.149051 1.232358,1.484896 -1.00719,0.985294 -2.85021,-0.635834 z M 33.08562,79.346116 c 0,-1.114055 0.562911,-1.10885 2.054044,0.01898 1.111241,0.840503 1.092912,0.876383 -0.447683,0.876383 -1.029937,0 -1.606361,-0.321293 -1.606361,-0.895363 z m 20.378026,-0.915224 c -1.044609,-0.870246 -1.165861,-1.17396 -0.468684,-1.17396 0.51727,0 1.228002,0.537219 1.579404,1.193819 0.784378,1.465622 0.669937,1.463581 -1.11072,-0.01988 z m 39.36006,-1.522155 c 0.02865,-0.69537 0.170084,-0.836808 0.360629,-0.360635 0.17243,0.430891 0.151227,0.945731 -0.0471,1.144079 -0.198353,0.198347 -0.339426,-0.154206 -0.313509,-0.783444 z M 57.332884,76.225072 c -0.945068,-0.140841 -2.422419,-0.941105 -3.283003,-1.778367 -1.161282,-1.1298 -1.281081,-1.424811 -0.464654,-1.14421 0.605025,0.20794 1.813767,0.549092 2.686094,0.758111 1.375964,0.329703 4.5093,2.748984 3.250802,2.509981 -0.259014,-0.04919 -1.244172,-0.204674 -2.189239,-0.345515 z M 30.786993,75.105777 c -0.443495,-0.501565 -0.646087,-1.072199 -0.450205,-1.268081 0.499592,-0.499589 3.345742,0.874855 3.345742,1.615709 0,0.92401 -1.981468,0.686118 -2.895537,-0.347628 z m 24.614008,-3.920108 c -2.944936,-2.216379 -2.949639,-2.326229 -0.0574,-1.340743 1.546721,0.527024 2.812219,1.181887 2.812219,1.455254 0,0.273367 0.470067,0.619873 1.044592,0.770007 0.676732,0.176853 0.494875,0.297369 -0.516411,0.342227 -0.858552,0.03808 -2.335903,-0.513952 -3.283003,-1.226745 z m 20.861078,-0.793198 c 0,-0.49245 0.131977,-0.763387 0.29328,-0.60209 0.161303,0.161303 0.720906,-0.03552 1.24356,-0.437392 0.582255,-0.447694 0.509904,-0.214517 -0.186821,0.602085 -1.348938,1.581046 -1.350019,1.581399 -1.350019,0.437397 z M 6.1169291,68.264799 C 4.6633859,67.179671 2.1150558,61.469574 2.7852329,60.7994 c 0.1449987,-0.144999 0.5860621,0.812537 0.9801408,2.127851 0.3940789,1.315321 1.052675,2.391489 1.4635471,2.391489 0.4108721,0 1.1731633,0.940132 1.6939805,2.089183 0.5208173,1.149051 0.9125422,2.080672 0.8705001,2.070274 -0.04204,-0.01039 -0.7964543,-0.556427 -1.6764723,-1.213398 z M 30.001796,67.855606 c -1.514514,-1.639407 -1.956621,-2.50757 -2.929021,-5.751708 -0.675631,-2.254049 0.145434,-1.431097 1.016934,1.019271 0.371102,1.043416 0.975473,1.829964 1.343047,1.747889 0.367574,-0.08208 0.668316,-0.04775 0.668316,0.07633 0,0.124056 0.406519,1.198493 0.903375,2.387639 0.496856,1.189139 0.81572,2.162078 0.708586,2.162078 -0.107134,0 -0.87719,-0.738676 -1.711237,-1.641501 z M 77.58088,67.747625 c -0.188887,-0.305618 -0.07043,-0.724386 0.263225,-0.930594 0.333654,-0.206209 0.606645,0.04381 0.606645,0.555663 0,1.048489 -0.358182,1.202868 -0.86987,0.374931 z M 9.4786629,66.610404 C 8.2453915,65.60873 7.7035259,64.592343 6.8010976,61.588055 c -0.6292539,-2.094858 -0.141314,-2.144821 0.6488838,-0.06644 0.3293598,0.866283 0.769204,1.404689 0.9774317,1.196463 0.2082272,-0.208232 0.8770089,0.734647 1.4861808,2.095278 0.6091721,1.360626 1.0356601,2.545056 0.9477511,2.632067 -0.08791,0.08701 -0.710116,-0.288749 -1.3826821,-0.835017 z m 24.0925441,-0.0573 c -1.341318,-1.055079 -3.319918,-5.761928 -2.68783,-6.394016 0.147478,-0.147477 0.439822,0.415892 0.649655,1.251932 0.209832,0.836038 0.712158,1.522806 1.116278,1.526143 0.40412,0.0036 1.184884,1.077774 1.735029,2.387638 0.550145,1.309865 0.922131,2.381568 0.826636,2.381568 -0.0955,0 -0.833392,-0.518971 -1.639768,-1.153265 z M 13.226136,65.319838 C 12.39218,64.663846 11.284582,62.879027 10.764807,61.353571 l -0.9450455,-2.773554 1.2241875,1.107875 c 0.986001,0.89233 4.314626,6.824667 3.829304,6.824667 -0.07196,0 -0.813161,-0.536717 -1.647117,-1.192709 z M 37.065453,64.82611 c -0.888639,-0.927538 -1.860276,-2.539193 -2.159193,-3.581457 -0.559449,-1.950683 -0.06437,-2.479644 1.056618,-1.128934 0.652146,0.785801 3.181741,6.39684 2.883847,6.39684 -0.09106,0 -0.892634,-0.758893 -1.781272,-1.686437 z m 7.876442,-2.12581 c -1.674853,-1.475554 -2.902631,-3.412134 -2.902631,-4.578322 0,-1.201356 1.602828,0.47718 3.22199,3.374177 0.808085,1.445822 1.421003,2.620278 1.362039,2.609903 -0.05896,-0.01039 -0.815593,-0.642961 -1.681398,-1.405746 z m 28.140602,-0.153029 c -0.0024,-1.101716 0.357746,-2.014884 0.872312,-2.212343 1.410038,-0.54108 1.531759,0.447442 0.287519,2.334942 l -1.155897,1.753493 -0.0042,-1.876092 z M 20.13225,62.184964 c -1.330776,-1.46107 -2.782587,-4.011802 -2.464476,-4.329913 0.421466,-0.421466 2.085395,1.294325 3.330737,3.434549 1.451336,2.494241 1.007691,2.952792 -0.866261,0.895364 z m -5.564027,-1.38304 c -0.84986,-2.575102 -0.547568,-3.061286 0.905252,-1.45594 0.67915,0.750453 0.811321,1.197479 0.354056,1.197479 -0.458009,0 -0.588587,0.444444 -0.350744,1.193819 0.208396,0.656601 0.247329,1.193819 0.08652,1.193819 -0.160814,0 -0.608599,-0.958129 -0.99508,-2.129177 z M 39.022232,61.2896 c -1.29456,-3.542612 -1.290821,-3.496514 -0.195726,-2.413046 0.566567,0.56055 1.060018,1.70214 1.096559,2.536863 0.08541,1.951202 -0.154626,1.918211 -0.900833,-0.123817 z m 30.702547,-5.56924 c -1.696507,-1.696502 -2.27644,-1.876071 -7.505941,-2.324124 -5.966703,-0.511215 -8.378454,-1.372772 -10.316136,-3.685262 -0.647115,-0.772287 -0.794216,-1.068396 -0.326891,-0.658021 1.162495,1.020832 2.006275,0.938493 1.586724,-0.154839 -0.236692,-0.61681 0.226415,-0.477965 1.468328,0.440221 1.420936,1.050543 2.942762,1.421011 7.022343,1.709498 5.972624,0.422352 8.844571,1.559627 10.847083,4.295385 0.810735,1.107595 0.977088,1.571285 0.393919,1.098017 -0.918805,-0.745654 -1.26934,-0.528222 -1.08015,0.669998 0.114291,0.723861 -0.151472,0.546934 -2.089279,-1.390873 z m -4.40604,-3.533631 c 0,-0.328301 -1.074438,-0.59691 -2.387639,-0.59691 -1.313201,0 -2.387638,0.268609 -2.387638,0.59691 0,0.3283 1.074437,0.596909 2.387638,0.596909 1.313201,0 2.387639,-0.268609 2.387639,-0.596909 z m -35.767452,3.23326 c 0.02864,-0.695366 0.170084,-0.836807 0.360633,-0.360633 0.17243,0.430894 0.151223,0.945729 -0.04713,1.144077 -0.198349,0.198348 -0.339428,-0.154202 -0.313509,-0.783444 z M 1.4965353,54.823079 c 0.028642,-0.695365 0.1700836,-0.836807 0.3606329,-0.360633 0.1724297,0.430895 0.1512237,0.945729 -0.047124,1.144077 -0.1983481,0.198348 -0.3394269,-0.154202 -0.3135089,-0.783444 z m 9.6197967,-1.740986 c 0.01216,-0.984901 0.145943,-1.315551 0.297286,-0.734777 0.151342,0.580774 0.141389,1.386602 -0.02212,1.790729 -0.16351,0.404127 -0.287336,-0.07105 -0.27517,-1.055952 z m 20.225683,-0.04974 c 0.02864,-0.695365 0.170084,-0.836807 0.360633,-0.360633 0.17243,0.430894 0.151224,0.945729 -0.04713,1.144077 -0.198348,0.198348 -0.339427,-0.154202 -0.313508,-0.783444 z m -12.535101,-1.19382 c 0.02864,-0.695365 0.170084,-0.836807 0.360633,-0.360633 0.17243,0.430894 0.151223,0.945729 -0.04713,1.144077 -0.198349,0.198348 -0.339428,-0.154202 -0.313509,-0.783444 z m 30.784684,-6.316578 c -0.667931,-2.494564 -0.413558,-3.849769 0.953628,-5.080569 2.039552,-1.836093 3.350263,-2.435834 2.029493,-0.928633 -1.118389,1.276253 -1.492765,4.80332 -0.65391,6.160616 0.30196,0.48858 0.201286,0.574775 -0.3055,0.261563 -0.427061,-0.263938 -0.95048,-0.152277 -1.203233,0.256687 -0.299574,0.48472 -0.570619,0.263496 -0.820478,-0.669664 z M 25.105166,44.368351 c -0.415395,-2.076974 0.315069,-3.808898 1.982931,-4.70151 1.059053,-0.566789 1.095545,-0.474533 0.525825,1.329366 -0.336714,1.066132 -0.752752,2.546763 -0.924529,3.29029 -0.479104,2.073769 -1.178616,2.109911 -1.584227,0.08185 z M 12.790693,43.268312 c 0,-0.308925 0.265533,-0.72579 0.590073,-0.926366 0.338364,-0.209121 0.438434,0.03048 0.234592,0.561681 -0.39682,1.034097 -0.824665,1.223299 -0.824665,0.364685 z m 63.877279,-1.214195 c -0.377128,-0.704667 -1.003262,-1.169526 -1.391408,-1.03302 -0.388153,0.136506 -1.713787,-0.652999 -2.945857,-1.754457 -1.232075,-1.101458 -2.507969,-2.002652 -2.83532,-2.002652 -0.327357,0 -0.595191,-0.402914 -0.595191,-0.895364 0,-0.49245 -0.06715,-0.899408 -0.149227,-0.904351 -0.08208,-0.005 -1.223665,-0.396068 -2.536866,-0.869165 -1.624131,-0.585114 -1.967145,-0.868555 -1.072676,-0.886377 1.520788,-0.0303 4.181936,1.068693 5.718077,2.361438 0.585169,0.492451 1.390997,0.907574 1.790729,0.922497 0.399733,0.01492 0.657968,0.355684 0.573857,0.757247 -0.08412,0.401562 0.516488,1.035123 1.334672,1.407913 1.518753,0.69199 3.630834,3.341562 3.092678,3.879717 -0.16378,0.163783 -0.606347,-0.278758 -0.983468,-0.983426 z m -30.450341,-0.07871 c 0,-0.367423 -0.434978,-0.493855 -0.979793,-0.28479 -0.822357,0.315568 -0.857588,0.228734 -0.219258,-0.540407 0.575718,-0.693698 0.957276,-0.75311 1.570131,-0.244485 0.445277,0.369547 0.662395,0.910078 0.482485,1.201179 -0.448932,0.726387 -0.853565,0.664051 -0.853565,-0.131497 z m -24.955795,-0.57782 c 0.11764,-0.352922 0.469071,-0.641677 0.780956,-0.641677 0.311886,0 0.663316,0.288755 0.780957,0.641677 0.117641,0.352923 -0.233789,0.641678 -0.780957,0.641678 -0.547167,0 -0.898598,-0.288755 -0.780956,-0.641678 z M 78.545659,40.17869 c -0.540424,-0.865354 -0.537732,-1.123973 0.01171,-1.123973 0.392504,0 -0.07529,-0.857989 -1.039536,-1.906642 l -1.753177,-1.906643 2.089183,1.6823 c 2.628498,2.116576 3.051862,2.853003 2.128622,3.70264 -0.556141,0.511804 -0.905596,0.40292 -1.436802,-0.447682 z m -36.20794,-1.720882 c 0.202901,-0.328301 0.487362,-0.59691 0.632137,-0.59691 0.144775,0 0.263227,0.268609 0.263227,0.59691 0,0.3283 -0.284462,0.596909 -0.632137,0.596909 -0.347676,0 -0.466128,-0.268609 -0.263227,-0.596909 z M 80.366692,36.57975 C 79.286507,35.369656 78.6517,34.225701 78.95601,34.037628 c 0.304311,-0.188074 0.885223,0.058 1.290925,0.546839 0.405695,0.488836 1.098206,0.888793 1.538904,0.888793 1.176342,0 2.064209,1.951614 1.22739,2.697922 -0.483324,0.431045 -1.255857,-0.0335 -2.646537,-1.591432 z m -64.944079,0.459854 c -0.505711,-1.317862 0.167081,-1.990655 1.078869,-1.078868 0.538356,0.538356 0.540644,0.872041 0.0096,1.403066 -0.531025,0.531025 -0.789895,0.453922 -1.088488,-0.324198 z m 24.296565,0.0073 c -0.533688,-0.643055 -0.545321,-0.979938 -0.04453,-1.289446 0.925229,-0.571822 1.829683,0.440401 1.242476,1.390521 -0.380548,0.61574 -0.619797,0.595554 -1.197949,-0.101075 z M 91.389536,36.58955 c -0.196539,-0.751566 -0.661508,-1.145082 -1.137268,-0.962514 -0.4687,0.179856 -1.358364,-0.535623 -2.130281,-1.713202 -0.805291,-1.22848 -1.045237,-2.022032 -0.611403,-2.022032 0.392737,0 -0.07229,-0.87298 -1.033394,-1.939956 -0.971804,-1.078851 -0.557704,-0.817147 0.932916,0.589585 2.702497,2.550412 5.86712,7.319467 4.857006,7.319467 -0.29981,0 -0.694725,-0.572106 -0.877576,-1.271346 z m -5.029734,0.25318 c -1.238814,-0.238606 -1.632386,-0.859307 -1.388829,-2.190316 0.157578,-0.861171 -1.856503,-2.760612 -2.927227,-2.760612 -0.548494,0 -1.595641,-0.636949 -2.326999,-1.415441 -0.731351,-0.778492 -2.255524,-1.914012 -3.38705,-2.523378 -1.131525,-0.609365 -2.057314,-1.458424 -2.057314,-1.886797 0,-0.956529 -2.49177,-1.991487 -3.199275,-1.328818 -0.656648,0.615037 -3.823958,-0.457952 -5.754369,-1.949405 l -1.492274,-1.152945 2.387638,0.424898 c 3.416275,0.607952 8.918277,2.577102 9.153854,3.276136 0.110117,0.326751 0.452535,0.438148 0.760928,0.24755 0.308393,-0.190598 0.486905,-0.09002 0.3967,0.223511 -0.173796,0.60403 5.037296,5.472738 5.896673,5.509246 0.827114,0.03513 3.547482,2.543229 4.670585,4.306128 0.57517,0.902826 0.947719,1.604922 0.827884,1.560213 -0.119836,-0.04471 -0.822249,-0.197695 -1.560925,-0.33997 z M 72.183199,34.472298 c -1.641501,-1.088178 -3.375267,-2.31541 -3.852813,-2.727182 -0.477545,-0.411774 -1.820592,-1.077453 -2.984548,-1.479289 l -2.116283,-0.730609 2.342942,0.329585 c 2.949718,0.414942 6.909157,1.975958 6.909157,2.723949 0,0.312028 0.275265,0.397202 0.611701,0.189274 0.33643,-0.207928 0.537887,-0.02232 0.447682,0.412454 -0.09213,0.444019 0.359244,0.796713 1.029801,0.804667 0.857329,0.01017 1.135763,0.346661 0.987843,1.193819 -0.113287,0.648812 -0.247592,1.198148 -0.298455,1.220747 -0.05086,0.0226 -1.435526,-0.849238 -3.077027,-1.937415 z M 36.070168,34.338203 c 0,-0.619856 1.135449,-1.517182 1.471783,-1.163127 0.109196,0.11495 -0.177284,0.555352 -0.636622,0.978671 -0.459339,0.423319 -0.835161,0.506324 -0.835161,0.184456 z M 12.193784,33.663797 c 0,-0.317997 0.402914,-0.578176 0.895364,-0.578176 0.492451,0 0.895365,0.105567 0.895365,0.234592 0,0.129026 -0.402914,0.389205 -0.895365,0.578176 -0.49245,0.188971 -0.895364,0.0834 -0.895364,-0.234592 z m 20.755419,-1.900871 c 0.875467,-0.875467 1.51651,-1.117434 1.912177,-0.721766 0.395668,0.395667 -0.04584,0.837171 -1.316972,1.316972 l -1.912177,0.721766 z M 9.2866382,31.150265 c 0.6068744,-1.133955 1.7133268,-0.907669 1.7133268,0.350401 0,0.402725 -0.515865,0.732227 -1.1463665,0.732227 -0.9221507,0 -1.033041,-0.211748 -0.5669603,-1.082628 z M 71.916912,30.011898 c -1.787965,-0.941306 -3.422513,-1.989238 -3.632338,-2.328739 -0.20982,-0.3395 -1.164428,-0.851401 -2.121346,-1.137557 -1.355253,-0.405273 -1.459557,-0.531626 -0.471857,-0.57159 1.912767,-0.07739 6.287715,1.619952 7.773691,3.015955 0.723718,0.6799 1.579298,1.073364 1.901283,0.874365 0.341199,-0.210873 0.455102,0.136568 0.273026,0.832827 -0.171826,0.657054 -0.348231,1.156744 -0.392014,1.110423 -0.04381,-0.04632 -1.542486,-0.854379 -3.330445,-1.795684 z m 9.805273,-2.904564 c -1.245697,-0.989956 -3.16457,-2.355944 -4.264161,-3.03553 -1.099591,-0.679586 -1.866698,-1.450104 -1.704673,-1.712263 0.430599,-0.696725 -2.622934,-1.686303 -5.210889,-1.688724 -1.244551,-0.0012 -3.098958,-0.553693 -4.178368,-1.244959 -1.716335,-1.099167 -1.788066,-1.244027 -0.620415,-1.252921 3.014005,-0.02296 10.053712,2.829811 12.649517,5.126084 1.445697,1.278877 3.460267,3.056032 4.476822,3.949234 2.503319,2.199557 1.668273,2.097037 -1.147833,-0.140921 z M 40.54699,22.341248 c -0.202901,-0.3283 -0.100301,-0.596909 0.227999,-0.596909 0.3283,0 0.762919,0.268609 0.96582,0.596909 0.202901,0.328301 0.100301,0.59691 -0.227999,0.59691 -0.3283,0 -0.762919,-0.268609 -0.96582,-0.59691 z m 1.409175,-2.964689 c -1.638983,-1.365409 -1.114988,-1.45802 3.115789,-0.55068 2.154548,0.462067 2.841831,0.8211 2.267792,1.184678 -1.404004,0.889254 -3.909278,0.59422 -5.383581,-0.633998 z"
         id="path4094" />
      <path
         style="fill:#333333;fill-opacity:1;stroke-width:0.59691"
         d="M 14.589652,96.979452 C 8.086712,94.734863 4.0963236,87.74695 5.5663831,81.178031 5.940219,79.507556 6.8458939,77.146957 7.5789939,75.932264 9.078888,73.447043 12.489634,70.690926 14.065252,70.690926 c 0.573444,0 1.179903,-0.222122 1.347689,-0.493602 0.167785,-0.271487 1.778338,-0.55321 3.579005,-0.626063 2.502423,-0.101242 3.975793,0.223203 6.252253,1.376772 5.360407,2.716321 7.762858,6.139914 8.285537,11.80723 0.588176,6.377484 -3.742336,12.586102 -10.094597,14.472515 -3.920262,1.164195 -4.826941,1.138743 -8.845487,-0.248326 z m 9.840779,-5.41985 c 7.701745,-4.680237 4.009596,-16.919892 -5.103965,-16.919892 -9.117603,0 -12.6911508,12.204629 -4.973043,16.984281 4.137716,2.562396 5.253321,0.41382 1.467646,-2.826576 -2.842588,-2.433147 -3.486819,-4.727536 -2.130168,-7.586464 1.918622,-4.043197 6.91569,-4.928969 10.061223,-1.783441 3.710967,3.710969 2.028423,9.045706 -4.166233,13.20961 -1.849766,1.243368 2.685134,0.234716 4.84454,-1.077518 z m 34.578442,-2.957633 c -3.268333,-0.479665 -5.628326,-1.491194 -5.628326,-2.412392 0,-0.660439 0.481993,-0.727633 4.151008,-0.578686 1.462304,0.05933 2.939655,0.470556 3.283003,0.913767 0.670403,0.865393 3.907271,0.547551 3.907271,-0.38367 0,-0.290026 0.470066,-0.534258 1.044592,-0.542734 0.574525,-0.0085 2.924857,-0.658308 5.222959,-1.444079 2.298102,-0.785766 4.266572,-1.185737 4.37438,-0.888817 0.259393,0.7144 3.717338,-1.08976 3.530315,-1.841919 -0.07968,-0.320439 0.929567,-1.498273 2.242768,-2.617401 1.313201,-1.119134 2.195201,-2.229864 1.960007,-2.468293 -0.235201,-0.23843 -1.347082,0.373779 -2.470848,1.360458 -6.203323,5.446592 -20.542834,8.714379 -24.344007,5.547684 l -1.409174,-1.17396 2.83532,-0.01988 c 1.559427,-0.0109 2.835321,0.248768 2.835321,0.577068 0,0.328301 0.821682,0.59691 1.825958,0.59691 1.004277,0 1.684849,-0.228312 1.512396,-0.507355 -0.172459,-0.279044 1.6248,-1.045326 3.99391,-1.702858 2.369111,-0.657526 4.821603,-1.414992 5.449982,-1.683267 0.810054,-0.345826 1.016919,-0.284547 0.710913,0.210584 -0.600246,0.971219 0.373761,0.872866 1.763176,-0.178035 0.794725,-0.6011 0.897346,-0.88234 0.326706,-0.895364 -0.457585,-0.01045 0.420995,-0.975697 1.952408,-2.145019 1.531413,-1.169316 2.624337,-2.384994 2.428724,-2.701499 -0.195691,-0.316631 -1.179237,0.117531 -2.186725,0.96528 -4.681293,3.939049 -13.600764,6.681448 -19.25935,5.921517 -4.721416,-0.634068 -6.342355,-2.65617 -2.129216,-2.65617 1.562703,0 2.542342,0.32944 2.904617,0.976788 0.42465,0.75881 1.034407,0.885289 2.73234,0.566754 1.20214,-0.225524 2.028084,-0.665083 1.835432,-0.976795 -0.192647,-0.311712 0.07521,-0.566747 0.595238,-0.566747 0.520028,0 2.453466,-0.530008 4.296525,-1.177793 1.843066,-0.647784 3.576766,-1.038276 3.852664,-0.867757 0.761454,0.470598 3.018405,-0.924088 2.758277,-1.704481 -0.125518,-0.376555 0.52968,-1.322382 1.456,-2.101832 L 79.04766,70.584802 V 58.436446 c 0,-7.455025 -0.230605,-12.290881 -0.59691,-12.517268 -0.3283,-0.202901 -0.59691,-0.881847 -0.59691,-1.508768 0,-0.817913 0.280548,-1.032202 0.993282,-0.758699 0.67135,0.25762 0.852327,0.153082 0.558385,-0.32253 -0.694176,-1.123201 0.216278,-3.080645 1.432881,-3.080645 0.612352,0 1.291671,-0.561775 1.509597,-1.248389 0.273587,-0.861997 0.748345,-1.156306 1.533902,-0.950879 0.678269,0.177371 1.367246,-0.101894 1.706171,-0.691567 0.523454,-0.91072 0.703643,-0.9136 2.27453,-0.03636 1.626155,0.90811 1.704284,0.896964 1.668511,-0.238043 -0.04602,-1.461239 1.320657,-2.057132 1.807616,-0.788134 0.194419,0.506652 1.506683,2.074379 2.916148,3.483838 1.529599,1.529599 2.829638,3.524362 3.224947,4.948322 0.898684,3.237148 0.868963,22.471432 -0.0394,25.503291 -0.389597,1.300356 -1.598339,3.203739 -2.686093,4.229738 -1.465467,1.382269 -1.977735,2.377526 -1.977735,3.842456 0,2.260228 -1.357133,5.832225 -2.858086,7.522535 -0.562003,0.632909 -2.096263,1.644122 -3.409464,2.24715 -2.061905,0.94683 -3.894167,1.088035 -13.430467,1.035047 -6.073555,-0.03373 -12.404915,-0.261255 -14.06969,-0.505576 z m 27.249329,-2.195308 c 3.81291,-2.523262 6.761428,-8.788151 4.72765,-10.045093 -0.356009,-0.220021 -0.59691,0.504305 -0.59691,1.79474 0,3.681386 -2.541951,7.071379 -6.05868,8.079959 -1.095443,0.314171 -4.730885,0.571219 -8.078754,0.571219 -3.414144,0 -6.249029,0.262109 -6.455947,0.596909 -0.238167,0.385359 2.186736,0.59691 6.842028,0.59691 6.815848,0 7.342973,-0.08737 9.620613,-1.594644 z M 81.171034,84.92312 c 2.280822,-0.824756 5.039541,-4.779277 5.039541,-7.223991 0,-0.985647 -0.252141,-1.55064 -0.59691,-1.337561 -0.3283,0.202901 -0.596909,1.01194 -0.596909,1.797867 0,2.93556 -2.074255,5.525646 -3.967324,4.953932 -0.71354,-0.215496 -4.389411,1.500506 -4.389411,2.049101 0,0.670402 2.338238,0.546334 4.511013,-0.239348 z m 7.189836,-4.202907 c 0.458838,-0.887294 0.834253,-2.186211 0.834253,-2.886469 0,-2.201731 -1.344718,-0.936092 -2.079311,1.957033 -0.387078,1.524448 -1.080233,3.256775 -1.540355,3.849626 -0.672496,0.86648 -0.56319,0.844018 0.557287,-0.114512 0.766629,-0.655824 1.769288,-1.918377 2.228126,-2.805678 z m 4.16594,-6.477919 c 1.089175,-0.673147 2.531081,-2.115054 3.204228,-3.204229 1.124303,-1.81916 1.22391,-2.926839 1.22391,-13.61056 0,-11.078351 -0.06373,-11.723877 -1.343047,-13.603581 -2.102339,-3.088977 -4.362305,-4.470752 -7.312143,-4.470752 -2.949837,0 -5.209803,1.381775 -7.312142,4.470752 -1.279315,1.879704 -1.343047,2.52523 -1.343047,13.603581 0,10.65375 0.101952,11.795197 1.214281,13.594987 2.614996,4.231152 7.742246,5.64603 11.66796,3.219802 z m -5.570098,-4.166877 c -1.01609,-0.408418 -1.343047,-1.024064 -1.343047,-2.528879 0,-2.513455 0.906974,-3.421617 3.417158,-3.421617 1.581077,0 2.102937,0.311306 2.566712,1.531132 0.806257,2.120617 0.74896,2.480411 -0.611683,3.841054 -1.300654,1.300654 -1.986969,1.399162 -4.02914,0.57831 z M 86.329957,59.827171 c -0.393961,-0.39396 -0.716292,-1.60935 -0.716292,-2.700867 0,-1.610745 0.306018,-2.100924 1.624585,-2.60224 3.186721,-1.211591 5.595216,1.237529 4.374488,4.448284 -0.479838,1.26207 -0.987712,1.571115 -2.581915,1.571115 -1.091514,0 -2.306906,-0.322331 -2.700866,-0.716292 z m 0.626755,-9.449772 c -1.01609,-0.408417 -1.343047,-1.024063 -1.343047,-2.528876 0,-2.513459 0.906974,-3.421619 3.417158,-3.421619 1.581077,0 2.102937,0.311307 2.566712,1.531132 0.806257,2.12062 0.74896,2.480408 -0.611683,3.841054 -1.300654,1.300654 -1.986969,1.399162 -4.02914,0.578309 z M 35.174804,87.178465 c -1.06695,-0.831095 -1.082809,-0.931937 -0.149228,-0.948907 0.574526,-0.01045 1.044592,0.249627 1.044592,0.577928 0,0.3283 1.074437,0.596909 2.387638,0.596909 1.618665,0 2.387639,-0.262234 2.387639,-0.814232 0,-1.014735 4.782376,-1.755571 6.699816,-1.037859 1.249833,0.467816 1.167533,0.562337 -1.029175,1.181947 -4.456924,1.257145 -10.018029,1.474963 -11.341282,0.444214 z m 0,-3.952437 c -0.97159,-1.073596 -0.980907,-1.193819 -0.09251,-1.193819 0.543333,0 0.987878,0.277264 0.987878,0.616142 0,0.338883 0.604371,0.859072 1.343047,1.155987 1.297296,0.521448 1.300448,0.541128 0.09251,0.577671 -0.687793,0.02081 -1.736709,-0.49938 -2.330925,-1.155981 z m 4.727471,-0.335923 c 0.845837,-0.845833 1.057036,-0.845833 2.264636,0 1.307693,0.915946 1.290804,0.932833 -0.932831,0.932833 -2.053437,0 -2.177641,-0.08699 -1.331805,-0.932833 z m -3.347118,-3.05638 c 0.430894,-0.172429 0.945729,-0.151227 1.144077,0.0471 0.198348,0.198347 -0.154202,0.339427 -0.783444,0.313509 -0.695366,-0.02865 -0.836807,-0.170083 -0.360633,-0.360629 z m 25.643684,-3.807257 c 1.402911,-0.276512 2.966599,-0.918608 3.474868,-1.42687 0.508268,-0.508269 1.251057,-0.924124 1.65064,-0.924124 0.399583,0 1.712557,-0.502717 2.917724,-1.117146 1.205166,-0.614423 2.272202,-0.874174 2.371188,-0.577211 0.09899,0.296962 1.006902,-0.07331 2.017596,-0.822816 1.010687,-0.749504 1.732231,-1.673884 1.603424,-2.054175 -0.298246,-0.880573 0.819092,-1.594006 1.671437,-1.067233 0.949379,0.58675 -2.818643,4.287429 -6.044975,5.936935 -2.644125,1.351845 -8.508851,2.751783 -10.979227,2.620791 -0.67838,-0.03599 -0.08558,-0.291638 1.317325,-0.568151 z m 0.433804,-4.061002 c 1.44476,-0.229441 2.328706,-0.673828 2.238411,-1.125312 -0.08207,-0.410376 0.26439,-0.746137 0.769918,-0.746137 0.505529,0 2.050033,-0.591514 3.432231,-1.314479 1.382197,-0.722965 2.74579,-1.249767 3.030211,-1.170671 0.284422,0.07909 1.224554,-0.308262 2.089184,-0.860785 l 1.572057,-1.004593 -1.492274,1.637436 c -2.325656,2.551896 -6.926515,4.614702 -10.707025,4.800514 -2.681244,0.131792 -2.860774,0.09022 -0.932713,-0.215973 z m -35.86301,-11.50037 c -0.264897,-0.428613 -0.585077,-3.742482 -0.71151,-7.364153 -0.189547,-5.429578 -0.01764,-7.235824 0.979845,-10.295245 1.097773,-3.367026 4.974951,-10.316986 5.755542,-10.316986 0.175796,0 -0.104072,0.64665 -0.62193,1.437 -0.558247,0.851993 -0.707582,1.581607 -0.366821,1.792208 0.334094,0.206482 -0.03747,1.624252 -0.887422,3.386117 -0.804187,1.667 -1.619019,3.815209 -1.810736,4.773798 -0.191718,0.958588 -0.688528,1.742888 -1.104023,1.742888 -0.418969,0 -0.864078,0.930525 -0.999345,2.089183 -0.134146,1.149051 -0.06912,2.089184 0.144489,2.089184 0.213614,0 0.553919,2.345574 0.756232,5.212385 0.351368,4.978927 -0.0966,7.132685 -1.134321,5.453621 z M 2.3931856,59.200416 C 1.3183033,53.908354 1.7785866,47.051359 3.5678404,41.701188 c 1.1433044,-3.418674 4.4271242,-9.431899 4.8951611,-8.963862 0.1756943,0.175695 0.025124,0.674078 -0.3345965,1.107516 -0.3597222,0.43344 -0.6327075,1.312911 -0.6066327,1.954382 0.062152,1.529048 -2.9932613,9.394152 -3.856725,9.927802 -0.8435187,0.521323 -1.2901832,4.072064 -0.5122442,4.072064 0.3167383,0 0.5938361,1.91703 0.6157727,4.260065 0.021936,2.343036 0.1987228,4.76052 0.3928583,5.372187 0.2405869,0.758022 0.058704,1.112121 -0.5712429,1.112121 -0.508319,0 -1.0469715,-0.604371 -1.1970056,-1.343047 z m 8.9052334,0.746137 c -0.202901,-0.3283 -0.08445,-0.596909 0.263227,-0.596909 0.347676,0 0.632138,0.268609 0.632138,0.596909 0,0.328301 -0.118452,0.59691 -0.263227,0.59691 -0.144775,0 -0.429237,-0.268609 -0.632138,-0.59691 z M 5.9955171,58.054563 C 5.3542456,54.848206 5.5969638,48.974395 6.5166304,45.443557 7.487906,41.714579 10.557773,35.220095 11.675744,34.529151 c 0.455109,-0.281273 0.542899,-0.175934 0.249295,0.299127 -0.24926,0.403311 -0.526502,1.452098 -0.616093,2.330639 -0.212975,2.088449 -2.785098,8.029018 -3.7412116,8.640694 -0.7812764,0.499823 -1.0777451,3.676656 -0.2984549,3.198116 0.7367387,-0.452411 0.5151993,9.384782 -0.2291706,10.176042 -0.516275,0.548796 -0.764096,0.283273 -1.0445918,-1.119206 z m 24.3988119,1.286672 c -0.249083,-0.403027 -0.479861,-3.319254 -0.512838,-6.480507 -0.06772,-6.491926 1.285086,-11.508651 4.348149,-16.124583 l 1.736619,-2.617028 -0.22618,2.020118 c -0.282815,2.525953 -3.307143,10.114383 -3.887967,9.755413 -0.630948,-0.389946 -1.318084,2.832391 -0.69323,3.250911 0.684545,0.458502 0.84454,9.057658 0.188283,10.119504 -0.387202,0.626507 -0.602093,0.643685 -0.952836,0.07617 z m 8.405153,-0.540743 C 36.349549,56.093347 37.17968,47.080546 40.41201,41.293128 c 1.428224,-2.557203 2.006002,-2.826019 1.924448,-0.895364 -0.08954,2.119734 -2.295878,7.610597 -3.058088,7.610597 -0.77629,0 -1.481785,4.31061 -0.781869,4.777255 0.434039,0.289381 1.802366,6.7034 1.496615,7.01537 -0.08241,0.08409 -0.619547,-0.366135 -1.193634,-1.000494 z M 14.301489,58.176291 c -1.477985,-1.633155 -1.026877,-10.47392 0.732033,-14.346297 1.300037,-2.862134 3.453561,-5.996262 2.768505,-4.02914 -0.20008,0.574526 -0.07879,1.044592 0.269529,1.044592 0.348322,0 -0.02323,1.410199 -0.82567,3.133775 -0.80244,1.723577 -1.461606,3.48539 -1.464813,3.915141 -0.0032,0.42975 -0.246295,0.63275 -0.540194,0.451111 -0.2939,-0.181641 -0.696814,0.09309 -0.895364,0.610501 -0.526644,1.372411 -0.441201,3.696604 0.144371,3.927149 0.455037,0.179152 1.477203,6.466521 1.051291,6.466521 -0.0978,0 -0.65566,-0.528009 -1.239688,-1.173353 z m 19.632269,-0.95764 c -0.219877,-1.172045 -0.276943,-4.252867 -0.126813,-6.846269 0.226475,-3.912232 0.65131,-5.480811 2.494519,-9.21029 2.150031,-4.350292 2.882495,-5.137714 3.639604,-3.912686 0.453829,0.734312 -2.154644,5.37598 -3.024613,5.382171 -0.355292,0.0025 -0.934522,0.94473 -1.287175,2.093781 -0.352654,1.149051 -0.423194,2.089184 -0.156754,2.089184 0.675654,0 -0.04144,7.374524 -0.762711,7.843688 -0.335871,0.218472 -0.41454,1.30567 -0.183566,2.536866 0.222307,1.185001 0.269891,2.154548 0.105741,2.154548 -0.164151,0 -0.478355,-0.958947 -0.698232,-2.130993 z M 9.5698885,55.469731 C 8.8661148,49.754904 10.877967,41.963168 14.193609,37.562443 c 0.786287,-1.04361 0.946247,-1.073239 1.271309,-0.235485 0.414336,1.067834 -1.691023,5.033257 -2.923379,5.506156 -0.962691,0.36942 -1.814658,3.430073 -1.092512,3.924807 0.285061,0.195292 0.07811,3.041169 -0.459898,6.324172 l -0.978189,5.969096 z m 7.6497475,-0.04529 c -0.220236,-1.17396 -0.231327,-3.368204 -0.02465,-4.876099 0.398375,-2.90646 3.140132,-9.520355 3.710269,-8.950219 0.185658,0.185658 -0.13273,1.055313 -0.707529,1.932566 -0.820127,1.251673 -0.881371,1.696189 -0.284521,2.065063 0.541838,0.334874 0.591115,0.792298 0.171348,1.590559 -0.324071,0.616277 -0.77809,2.260685 -1.008931,3.654241 -0.230842,1.393556 -0.680675,2.695022 -0.99963,2.892147 -0.318955,0.197124 -0.408545,1.138664 -0.199089,2.092311 0.209455,0.953646 0.237353,1.733902 0.06199,1.733902 -0.175359,0 -0.499028,-0.960512 -0.719264,-2.134472 z m 24.620658,1.736532 c -0.758911,-0.758911 -0.393277,-8.356722 0.532976,-11.075124 0.512003,-1.502646 1.493716,-3.229305 2.181585,-3.837017 1.25001,-1.104349 1.250157,-1.104131 0.277023,0.410247 -0.535507,0.83335 -0.962028,2.310701 -0.947824,3.283003 0.04971,3.403055 -0.793915,8.017485 -1.397579,7.6444 -0.371933,-0.229867 -0.501349,0.449105 -0.343432,1.801781 0.139376,1.193857 0.217811,2.170649 0.174301,2.170649 -0.04351,0 -0.258183,-0.179073 -0.47705,-0.39794 z M 72.938755,37.80709 70.98938,35.962555 l 2.238411,1.616926 c 1.231126,0.88931 2.238411,1.71935 2.238411,1.844535 0,0.555924 -0.713504,0.09946 -2.527447,-1.616926 z m 3.019921,-2.232903 c -3.384262,-2.656101 -4.169897,-3.453881 -2.581658,-2.621571 1.238803,0.649189 6.196537,4.876454 5.670642,4.835135 -0.164151,-0.0129 -1.554192,-1.009001 -3.088984,-2.213564 z m 3.490829,-1.881189 c -0.872419,-0.979142 -2.662778,-2.459863 -3.978582,-3.290491 -2.81918,-1.779672 -3.236605,-2.646123 -0.520934,-1.081321 2.406351,1.386574 7.582005,6.0973 6.733206,6.12837 -0.356111,0.01304 -1.361271,-0.777416 -2.23369,-1.756558 z m 4.373431,-1.502744 C 83.414238,31.697803 82.776978,31.28326 82.406804,31.269047 82.036625,31.254837 80.256401,29.884153 78.45075,28.22309 75.729558,25.7198 75.515071,25.392242 77.197359,26.308976 c 2.02501,1.103494 8.453649,6.710733 7.743255,6.753887 -0.206024,0.01252 -0.70898,-0.380159 -1.117678,-0.872609 z m 2.984548,-2.387639 c -0.771058,-0.82075 -1.633538,-1.492274 -1.916629,-1.492274 -0.706908,0 -8.284448,-6.114452 -7.968761,-6.430137 0.467864,-0.467866 6.574649,3.945033 9.263536,6.694039 1.463628,1.496355 2.517735,2.720646 2.342458,2.720646 -0.175276,0 -0.949546,-0.671523 -1.720604,-1.492274 z"
         id="path4092" />
    </g>
  </g>
</svg>
