<?xml version="1.0" encoding="UTF-8" standalone="no"?>
<!-- Created with Inkscape (http://www.inkscape.org/) -->

<svg
   width="100mm"
   height="100mm"
   viewBox="0 0 100 100"
   version="1.1"
   id="svg3472"
   inkscape:version="1.1.1 (3bf5ae0d25, 2021-09-20)"
   sodipodi:docname="add_list_type_device_613bc.svg"
   xmlns:inkscape="http://www.inkscape.org/namespaces/inkscape"
   xmlns:sodipodi="http://sodipodi.sourceforge.net/DTD/sodipodi-0.dtd"
   xmlns="http://www.w3.org/2000/svg"
   xmlns:svg="http://www.w3.org/2000/svg">
  <sodipodi:namedview
     id="namedview3474"
     pagecolor="#ffffff"
     bordercolor="#666666"
     borderopacity="1.0"
     inkscape:pageshadow="2"
     inkscape:pageopacity="0.0"
     inkscape:pagecheckerboard="0"
     inkscape:document-units="mm"
     showgrid="false"
     width="100mm"
     inkscape:zoom="0.58974467"
     inkscape:cx="378.97757"
     inkscape:cy="337.43417"
     inkscape:window-width="1440"
     inkscape:window-height="890"
     inkscape:window-x="-6"
     inkscape:window-y="-6"
     inkscape:window-maximized="1"
     inkscape:current-layer="layer1" />
  <defs
     id="defs3469" />
  <g
     inkscape:label="Laag 1"
     inkscape:groupmode="layer"
     id="layer1">
    <path
       style="fill:#d0d0d0;fill-opacity:1;stroke-width:0.59414"
       d="m 34.090697,96.97029 c -8.27253,-1.77673 -18.01216,-8.00628 -22.97519,-14.69513 -11.40527011,-15.371306 -11.40527011,-34.787828 0,-50.159131 3.4148,-4.602245 8.20343,-8.435662 14.36016,-11.495649 10.82448,-5.379932 24.25315,-5.513208 35.03723,-0.347734 8.95995,4.291734 14.84124,10.079993 19.36923,19.062842 2.03521,4.037554 2.24556,4.791234 1.45996,5.230884 -1.15852,0.648341 -2.57004,-0.07922 -1.47121,-0.758327 0.60592,-0.374482 0.60243,-0.827009 -0.0179,-2.324686 -0.42367,-1.022829 -1.0679,-1.75839 -1.43163,-1.634582 -0.36373,0.123809 -1.30675,-0.868726 -2.0956,-2.205633 -0.78886,-1.336906 -2.19633,-3.4098 -3.12771,-4.606429 -0.93139,-1.196629 -1.40923,-2.270423 -1.06187,-2.386208 0.34735,-0.115786 -0.18356,-0.991448 -1.17981,-1.945916 -1.00043,-0.958487 -1.81135,-1.388075 -1.81135,-0.95958 0,0.496894 -0.69421,0.249007 -1.93095,-0.689492 -1.06203,-0.80592 -3.40145,-2.305641 -5.19873,-3.332714 -1.79727,-1.027072 -2.91778,-1.869914 -2.49003,-1.87298 1.27589,-0.0091 0.25028,-1.029921 -1.72755,-1.719395 -1.44989,-0.505434 -1.78127,-0.48116 -1.55298,0.113756 0.21879,0.570159 -0.68046,0.502988 -3.65369,-0.272918 -2.16915,-0.566071 -4.67915,-1.044633 -5.57779,-1.06347 -0.89864,-0.01884 -1.63388,-0.301613 -1.63388,-0.62839 0,-0.326777 -0.95155,-0.59414 -2.11456,-0.59414 -1.25841,0 -1.96588,0.240557 -1.74736,0.59414 0.21524,0.348251 -0.44645,0.608315 -1.59882,0.62839 -1.08131,0.01884 -3.74077,0.497399 -5.90992,1.06347 -2.97323,0.775906 -3.87248,0.843077 -3.65369,0.272918 0.22829,-0.594916 -0.10309,-0.61919 -1.55298,-0.113756 -1.97783,0.689474 -3.00344,1.710248 -1.72755,1.719395 0.42776,0.0031 -0.69276,0.845908 -2.49003,1.87298 -1.79728,1.027073 -4.1367,2.526794 -5.19873,3.332714 -1.23674,0.938499 -1.93095,1.186386 -1.93095,0.689492 0,-0.428495 -0.81092,0.0011 -1.81137,0.95958 -0.99625,0.954468 -1.52716,1.83013 -1.1798,1.945916 0.34735,0.115785 -0.13049,1.189579 -1.06187,2.386208 -0.93139,1.196629 -2.33886,3.269523 -3.12772,4.606429 -0.7888501,1.336907 -1.7318701,2.329442 -2.0956001,2.205633 -0.36372,-0.123808 -1.01812,0.636291 -1.45421,1.68911 -0.50323,1.214912 -0.57358,1.987322 -0.19255,2.114331 0.37748,0.125825 0.21321,1.684302 -0.44249,4.198114 -0.57356,2.198899 -1.05825,4.615345 -1.07709,5.369879 -0.0189,0.757002 -0.30054,1.207301 -0.62839,1.004681 -0.36312,-0.224419 -0.5779,0.628281 -0.55238,2.192961 0.0322,1.975469 0.15837,2.28878 0.55238,1.37188 0.39099,-0.909882 0.52381,-0.561885 0.56691,1.485351 0.0511,2.428269 0.71759,6.237437 1.59831,9.135043 0.22014,0.724256 0.10845,0.971882 -0.31915,0.707609 -0.81174,-0.501686 -0.839,0.29789 -0.0784,2.298544 0.31869,0.838219 0.96908,1.524029 1.44532,1.524029 0.47623,0 1.01514,0.47028 1.19757,1.045075 0.18243,0.574789 1.2823101,2.488515 2.4441901,4.252731 1.16187,1.764216 1.98571,3.538055 1.83075,3.941875 -0.32077,0.8359 2.39965,3.63878 2.97414,3.0643 0.20663,-0.20664 1.47766,0.50954 2.82451,1.59151 1.34684,1.08197 3.32302,2.46932 4.39151,3.08301 1.06848,0.61368 1.82689,1.41758 1.68534,1.78645 -0.14155,0.36887 0.68824,1.12159 1.84396,1.67272 1.7599,0.83923 2.04655,0.85932 1.76423,0.1236 -0.2931,-0.76382 -0.0454,-0.77556 1.89762,-0.09 1.2291,0.43364 3.75408,1.10387 5.61107,1.48938 1.85699,0.38551 3.37635,0.94933 3.37635,1.25294 0,0.30361 1.73786,0.55202 3.86191,0.55202 2.12405,0 3.86191,-0.24841 3.86191,-0.55202 0,-0.30361 1.51936,-0.86743 3.37635,-1.25294 1.857,-0.38551 4.38198,-1.05574 5.61107,-1.48938 1.94307,-0.68556 2.19073,-0.67382 1.89763,0.09 -0.28233,0.73572 0.004,0.71563 1.76422,-0.1236 1.15573,-0.55113 1.98551,-1.30385 1.84397,-1.67272 -0.14155,-0.36887 0.61686,-1.17277 1.68534,-1.78645 1.06848,-0.61369 3.07899,-2.02917 4.4678,-3.14552 1.3888,-1.11635 2.52509,-1.69445 2.52509,-1.28466 0,0.40979 0.77162,0.006 1.7147,-0.8977 1.02485,-0.98187 1.60581,-2.05917 1.44404,-2.67776 -0.40363,-1.543494 1.22683,-2.704878 2.18185,-1.554147 1.6963,2.043907 -7.09654,9.953147 -15.34402,13.802097 -7.78189,3.63166 -17.54358,4.67675 -26.23912,2.80917 z m 3.0646,-3.86346 C 23.373107,90.6497 12.356817,80.598854 8.1774869,66.668566 c -1.43503,-4.783131 -1.43503,-14.162815 0,-18.945946 2.0673601,-6.890805 4.5470501,-11.057505 9.5694801,-16.079935 7.42941,-7.429416 15.12147,-10.629013 25.55291,-10.629013 6.60147,0 10.53569,0.930038 16.89972,3.995041 5.39457,2.598097 12.71197,9.940617 15.33726,15.389918 2.14356,4.449377 2.30026,5.349325 1.10425,6.341923 -0.63609,0.527914 -0.90464,0.466236 -1.18828,-0.272914 -0.50973,-1.328336 -0.46012,-1.579941 0.22769,-1.154852 0.9017,0.557283 0.70994,-1.105133 -0.27818,-2.411537 -0.67212,-0.888627 -0.883,-0.948776 -0.91887,-0.262094 -0.0256,0.490166 -0.73715,-0.445605 -1.5812,-2.07949 -1.80939,-3.502541 -9.75682,-11.573026 -12.52086,-12.714728 -1.06203,-0.438674 -1.93096,-1.156791 -1.93096,-1.595815 0,-1.107418 -2.40209,-2.354204 -2.92028,-1.515749 -0.27226,0.440513 -1.27977,0.368251 -3.28664,-0.235729 -3.32031,-0.999264 -13.82038,-1.178571 -16.92222,-0.288975 -1.15025,0.329889 -2.30672,0.359528 -2.66971,0.06842 -0.85973,-0.689479 -3.31402,0.287853 -3.31402,1.319685 0,0.451067 -1.13629,1.327468 -2.5251,1.947556 -3.08121,1.375736 -11.11453,9.160857 -12.81719,12.42119 -0.68261,1.307109 -1.26144,1.975517 -1.28627,1.485351 -0.0348,-0.686301 -0.24572,-0.62604 -0.91747,0.262093 -0.95308,1.260075 -1.19247,2.976599 -0.3418,2.450862 0.29178,-0.180331 0.0244,1.298207 -0.59415,3.285642 -0.61855,1.987434 -1.1457601,4.458625 -1.1715501,5.491537 -0.0258,1.032911 -0.18232,1.542151 -0.34782,1.131644 -0.1655,-0.410507 -0.54544,-0.595251 -0.8443,-0.410541 -0.70486,0.435625 -0.70919,3.236409 -0.005,3.236409 0.29611,0 0.71763,1.403656 0.9367,3.119236 0.21908,1.71558 0.6198401,3.974343 0.8905901,5.019472 0.31474,1.21495 0.2699,1.974358 -0.12433,2.105771 -0.8336901,0.277896 0.0163,2.826606 0.94269,2.826606 0.40007,0 1.42943,1.43142 2.28747,3.180926 1.83995,3.751579 7.16517,9.69104 10.91682,12.17603 1.50666,0.99797 2.33036,1.87343 1.89952,2.01888 -0.42738,0.14428 0.12337,0.71562 1.25685,1.30385 1.5382,0.79826 1.94231,0.85092 1.70081,0.2216 -0.2385,-0.62153 0.65738,-0.4934 3.62677,0.51875 5.23935,1.78589 14.88572,1.91205 20.18112,0.26394 2.85591,-0.88887 3.50551,-0.94432 3.24959,-0.27741 -0.26629,0.69395 -0.0554,0.71302 1.25956,0.1139 0.86868,-0.3958 1.45856,-1.03458 1.31086,-1.41951 -0.14772,-0.38494 0.5772,-1.10749 1.61092,-1.60569 2.50443,-1.20699 7.1633,-5.379586 9.96742,-8.927072 2.21625,-2.80376 2.28121,-2.837739 2.64601,-1.384216 1.04435,4.160996 -10.07866,13.113318 -19.92432,16.036038 -4.0868,1.21318 -11.81609,1.65719 -15.96668,0.91721 z m 5.25336,-1.15403 c 0,-0.32678 -0.80208,-0.59414 -1.78242,-0.59414 -0.98033,0 -1.78242,0.26736 -1.78242,0.59414 0,0.32677 0.80209,0.59414 1.78242,0.59414 0.98034,0 1.78242,-0.26737 1.78242,-0.59414 z m 4.15899,0 c 0,-0.32678 -0.80209,-0.59414 -1.78242,-0.59414 -0.98034,0 -1.78243,0.26736 -1.78243,0.59414 0,0.32677 0.80209,0.59414 1.78243,0.59414 0.98033,0 1.78242,-0.26737 1.78242,-0.59414 z m 22.47557,-10.75238 c 1.13549,-1.818205 0.5222,-1.951631 -1.08872,-0.236877 -0.97334,1.036067 -1.13649,1.483007 -0.54136,1.483007 0.46852,0 1.20206,-0.56076 1.63008,-1.24613 z m -51.29137,-1.130428 c -0.59146,-0.653554 -1.34275,-1.188281 -1.66952,-1.188281 -0.32678,0 -0.11022,0.534727 0.48123,1.188281 0.59146,0.653554 1.34275,1.188278 1.66952,1.188278 0.32678,0 0.11022,-0.534724 -0.48123,-1.188278 z m 50.82622,-47.480333 c -0.6237,-1.165398 -1.80966,-1.716115 -1.80966,-0.840344 0,0.593358 1.93327,2.619087 2.22302,2.329338 0.1374,-0.137405 -0.0486,-0.807452 -0.41336,-1.488994 z m -48.64498,-0.44004 c 0.59759,-0.540812 1.08653,-1.221702 1.08653,-1.513088 0,-0.629145 -2.92488,1.402771 -2.95203,2.050778 -0.0304,0.724807 0.70451,0.512994 1.8655,-0.53769 z m 26.04042,-9.711229 c 0,-0.326777 -0.80209,-0.594141 -1.78242,-0.594141 -0.98034,0 -1.78243,0.267364 -1.78243,0.594141 0,0.326777 0.80209,0.59414 1.78243,0.59414 0.98033,0 1.78242,-0.267363 1.78242,-0.59414 z M 35.576047,88.18361 C 23.648227,85.09079 14.412557,75.391316 12.073167,63.500449 9.5317369,50.58258 15.206087,37.32407 26.331497,30.184915 c 8.39866,-5.389408 20.72405,-6.269832 29.98219,-2.141682 6.72048,2.99662 13.14775,9.448913 16.18375,16.246751 1.58203,3.542287 1.72588,5.297407 0.56013,6.834079 -0.72963,0.961769 -0.84078,0.855402 -1.22033,-1.16775 -0.22967,-1.224246 -0.81504,-2.994521 -1.30084,-3.933944 -0.48579,-0.939423 -0.73213,-2.101891 -0.54741,-2.583262 0.42878,-1.117365 -1.3017,-4.519249 -2.06036,-4.050377 -0.31437,0.194296 -1.88981,-1.000096 -3.50096,-2.654205 -1.61116,-1.654109 -2.61253,-3.01592 -2.22527,-3.026246 0.38726,-0.01033 -0.0461,-0.678735 -0.96291,-1.485351 -1.72088,-1.513956 -2.78904,-1.86863 -2.78904,-0.926077 0,0.297273 -1.3355,-0.103771 -2.96779,-0.891211 -1.63228,-0.787439 -3.36175,-1.431708 -3.84326,-1.431708 -0.49532,0 -0.74044,-0.351912 -0.56449,-0.810429 0.20927,-0.545349 -0.32973,-0.938574 -1.64789,-1.202206 -1.15971,-0.231943 -2.04157,-0.143703 -2.16157,0.21629 -0.25918,0.777536 -8.42163,0.805429 -8.42163,0.02878 0,-0.332858 -0.82143,-0.422927 -1.93095,-0.211728 -2.42301,0.461222 -2.71379,0.714531 -1.61668,1.408362 0.7271,0.459834 0.69364,0.554266 -0.19907,0.561835 -0.59019,0.005 -2.67287,0.802845 -4.62819,1.772979 -1.95532,0.970135 -3.39504,1.504861 -3.19938,1.188281 0.61116,-0.98888 -1.1348,-0.590241 -2.53656,0.579147 -1.48524,1.239038 -1.77057,2.109535 -0.5362,1.635863 0.44033,-0.168972 -0.5463,1.072397 -2.19252,2.7586 -1.64622,1.686202 -3.19491,3.003886 -3.44154,2.928186 -0.24663,-0.0757 -1.03575,0.687193 -1.7536,1.695318 -0.97812,1.373646 -1.12116,1.946684 -0.57081,2.286819 0.57236,0.353735 0.53663,0.836253 -0.16193,2.187124 -0.49297,0.953293 -1.07919,2.708153 -1.30273,3.89969 -0.28503,1.519342 -0.65517,2.070979 -1.23922,1.84686 -0.61719,-0.236841 -0.83279,0.222412 -0.83279,1.773973 0,1.151449 0.22923,2.182666 0.5094,2.291592 0.69477,0.270112 1.27422,8.21894 0.59915,8.21894 -0.29538,0 -0.3613,0.735248 -0.14651,1.633885 0.5426,2.270097 0.89818,2.766418 1.4001,1.954294 0.27061,-0.437852 0.7227,0.03636 1.21397,1.273379 0.43053,1.08408 1.52005,3.091341 2.42114,4.460579 1.143,1.736821 1.35277,2.37993 0.69379,2.127058 -0.6927,-0.265813 -0.81526,-0.137508 -0.45966,0.481176 0.98792,1.718782 2.26137,2.88524 2.79192,2.55734 0.30059,-0.185776 1.77923,0.622623 3.28587,1.796431 1.50664,1.17381 2.95444,2.13421 3.21734,2.13421 0.26289,0 0.32552,0.39733 0.13916,0.88295 -0.22313,0.58148 0.20217,1.08863 1.24561,1.48535 2.05506,0.78133 2.86525,0.76382 2.36165,-0.051 -0.28394,-0.45942 -0.0738,-0.48273 0.70761,-0.0785 0.61129,0.31619 2.5151,0.90426 4.23068,1.30681 1.71558,0.40255 3.11923,0.97261 3.11923,1.26679 0,0.29419 1.60418,0.53489 3.56485,0.53489 1.96066,0 3.56484,-0.25707 3.56484,-0.57125 0,-0.31418 1.13629,-0.85803 2.52509,-1.20856 1.38881,-0.35053 3.12667,-0.88983 3.86191,-1.19845 0.85787,-0.36008 1.33682,-0.35281 1.33682,0.0203 0,0.95855 1.55756,0.65906 3.05342,-0.58711 0.99819,-0.83158 1.14566,-1.17942 0.51142,-1.20635 -0.63692,-0.027 -0.55215,-0.23049 0.29707,-0.71304 0.65356,-0.37136 2.25773,-1.530592 3.56484,-2.576059 1.30711,-1.045467 2.68323,-1.789847 3.05805,-1.654169 0.37482,0.135672 1.26195,-0.568509 1.97141,-1.564859 1.28404,-1.803257 0.95709,-2.483815 -0.51347,-1.068858 -0.42454,0.408471 0.0118,-0.460459 0.96949,-1.930956 0.95775,-1.470497 2.07869,-3.524582 2.49099,-4.564631 0.48487,-1.22312 1.04478,-1.777738 1.5853,-1.570319 1.44337,0.55387 0.91922,2.850781 -1.50726,6.605016 -4.11425,6.365541 -9.69555,10.875225 -16.46254,13.301675 -4.32664,1.55142 -13.95188,2.0122 -18.32828,0.87742 z m 0.84298,-4.44972 c -10.56037,-2.756723 -18.40281,-11.452055 -20.25178,-22.454223 -2.44299,-14.536923 8.00584,-28.688704 23.04855,-31.216694 17.77778,-2.98763 34.20432,13.438917 31.21669,31.216694 -1.84895,11.002168 -9.6914,19.6975 -20.25177,22.454223 -4.94924,1.29197 -8.81245,1.29197 -13.76169,0 z m 10.74276,-0.6932 c 0,-0.32677 -0.93577,-0.59414 -2.07949,-0.59414 -1.14372,0 -2.0795,0.26737 -2.0795,0.59414 0,0.32678 0.93578,0.59414 2.0795,0.59414 1.14372,0 2.07949,-0.26736 2.07949,-0.59414 z m -12.15628,-1.74423 c -0.21333,-0.34518 0.39134,-0.34518 1.5949,0 3.44704,0.98859 12.0273,0.67137 15.28107,-0.564964 1.94865,-0.74043 3.02299,-0.901994 3.165,-0.475966 0.12812,0.384379 0.98204,0.09876 2.11353,-0.706938 1.04421,-0.743537 1.77374,-1.553843 1.62118,-1.800678 -0.15255,-0.246836 1.04744,-1.753677 2.66665,-3.348539 1.61921,-1.594863 2.94996,-2.642433 2.95723,-2.327943 0.0198,0.85539 2.3348,-2.273804 2.35013,-3.176636 0.007,-0.427757 -0.22842,-0.628404 -0.52374,-0.445884 -0.29532,0.18252 -0.028,-1.007701 0.59414,-2.644938 1.23964,-3.262456 1.56991,-11.839292 0.58777,-15.263808 -0.37415,-1.304595 -0.3376,-1.963035 0.1174,-2.114701 0.46849,-0.156163 0.429,-0.779665 -0.13573,-2.143045 -0.49183,-1.187388 -1.10137,-1.805797 -1.59369,-1.616878 -0.43848,0.16826 -1.09074,-0.242498 -1.44947,-0.912795 -0.35873,-0.670297 -1.63279,-2.314888 -2.83123,-3.654647 -1.19844,-1.33976 -1.84478,-2.236097 -1.43631,-1.991861 1.55354,0.928907 0.65985,-0.792398 -1.03975,-2.002624 -0.98033,-0.698058 -1.78242,-0.995926 -1.78242,-0.661931 0,0.333995 -1.40366,-0.04623 -3.11924,-0.844949 -1.71558,-0.798717 -3.45344,-1.454825 -3.86191,-1.458017 -0.40847,-0.0032 -0.67583,-0.317468 -0.59414,-0.698391 0.0817,-0.380923 -0.78542,-0.895181 -1.92693,-1.142796 -2.29317,-0.497434 -3.12023,-0.184085 -1.76924,0.670309 0.58689,0.371158 -0.52509,0.555727 -3.38492,0.561835 -2.3424,0.005 -4.61499,0.09896 -5.05019,0.208792 -0.4352,0.109832 -0.58908,0.087 -0.34196,-0.05074 0.24712,-0.137742 0.30805,-0.478999 0.1354,-0.758349 -0.47926,-0.77546 -3.96786,0.640021 -3.64581,1.479268 0.15974,0.416275 -0.8145,1.259733 -2.27419,1.968907 -1.40451,0.682361 -3.58595,2.121159 -4.84765,3.197328 -1.2617,1.07617 -1.82612,1.407221 -1.25426,0.735668 1.56464,-1.837406 1.24884,-2.422214 -0.44746,-0.82862 -0.81797,0.768439 -1.42051,1.687621 -1.33899,2.042625 0.25886,1.127242 -3.37703,7.482629 -4.11951,7.200735 -0.40358,-0.153224 -1.01435,0.662016 -1.42249,1.898708 -0.53283,1.614497 -0.54187,2.225017 -0.0354,2.393828 0.43261,0.144204 0.6765,1.882973 0.67071,4.781679 -0.006,3.160342 -0.18545,4.282193 -0.58504,3.663865 -0.63048,-0.975596 -0.79255,-0.494259 -0.60015,1.782421 0.17098,2.023194 0.64673,2.664337 1.25946,1.697318 0.40764,-0.643335 0.51261,-0.613065 0.51987,0.149911 0.005,0.52581 0.76267,2.449987 1.68371,4.27595 0.92103,1.82596 1.45576,3.184675 1.18828,3.019362 -1.03324,-0.638576 -0.41667,0.970759 0.98025,2.558599 0.91514,1.040221 1.47363,1.345977 1.48535,0.813182 0.0129,-0.58767 0.52811,-0.380131 1.65266,0.665764 0.89864,0.835777 2.36913,1.985997 3.26777,2.556051 0.89864,0.570047 1.63389,1.415366 1.63389,1.878475 0,0.463114 0.60156,1.083825 1.33681,1.379358 1.78178,0.71619 2.97266,0.74269 2.5487,0.0567 z m 1.6317,-2.054349 c -6.1753,-2.013963 -11.54516,-6.784155 -14.33401,-12.733283 -1.38197,-2.948007 -1.58065,-4.120212 -1.58065,-9.325728 0,-5.513256 0.14252,-6.243403 1.92577,-9.8657 2.31928,-4.711126 6.56885,-8.883309 11.31282,-11.106807 2.97646,-1.395065 4.13492,-1.592329 9.35123,-1.592329 5.51325,0 6.2434,0.142525 9.8657,1.925775 4.71113,2.31928 8.88331,6.56885 11.1068,11.312819 1.39437,2.97497 1.59233,4.135979 1.59233,9.338735 0,5.202757 -0.19796,6.363765 -1.59233,9.338735 -2.21098,4.717268 -6.39836,8.994858 -11.04394,11.28187 -3.27019,1.609912 -4.61964,1.920962 -8.97449,2.068636 -3.19933,0.10849 -6.06645,-0.133052 -7.62923,-0.642723 z m 10.73943,-1.25161 c 0.1881,-0.490166 0.76208,-0.89121 1.27552,-0.89121 0.51344,0 1.97686,-0.532273 3.25205,-1.182821 1.27519,-0.650553 2.66819,-1.059518 3.09557,-0.90882 0.86652,0.30556 3.81768,-1.898379 3.27229,-2.44377 -0.1907,-0.190696 0.57351,-1.684513 1.69825,-3.319587 1.12473,-1.635073 2.04497,-3.201837 2.04497,-3.481689 0,-0.279853 0.36591,-0.368412 0.81313,-0.196798 0.49746,0.190893 0.95562,-0.219994 1.18017,-1.058392 0.50045,-1.868523 0.47423,-2.982499 -0.0623,-2.648625 -0.62998,0.391999 -0.15415,-7.494081 0.50011,-8.288618 0.63403,-0.769958 -0.51344,-4.549162 -1.24413,-4.097569 -0.26386,0.16307 -1.15818,-0.861173 -1.98738,-2.276097 -0.8292,-1.414924 -1.93674,-2.928718 -2.46121,-3.363988 -0.75935,-0.630202 -0.79658,-0.893735 -0.18278,-1.293821 0.58556,-0.381684 0.41385,-0.783758 -0.71455,-1.67312 -1.56096,-1.230293 -2.68128,-1.576693 -2.11005,-0.652426 0.18515,0.299581 -1.06905,-0.230301 -2.7871,-1.177518 -1.71806,-0.947216 -3.59163,-1.727054 -4.16349,-1.732974 -0.57186,-0.0059 -0.9729,-0.344966 -0.89121,-0.753438 0.0935,-0.467308 -0.6996,-0.81236 -2.13891,-0.930618 -1.50771,-0.123878 -2.15398,0.02802 -1.89589,0.445605 0.2472,0.39998 -0.3347,0.633548 -1.57839,0.633548 -1.08347,0 -2.89028,0.263949 -4.01514,0.586554 -1.41878,0.406901 -2.16683,0.38974 -2.44233,-0.05603 -0.27061,-0.437859 -1.03744,-0.310284 -2.40693,0.400432 -1.10539,0.573657 -1.67258,1.156882 -1.26042,1.296056 0.89123,0.300942 -5.09551,5.865385 -6.07699,5.648315 -0.88003,-0.194633 -3.09838,3.575377 -2.2669,3.852534 0.4256,0.141868 0.36229,1.096318 -0.1957,2.950384 -0.45365,1.507372 -0.82892,3.567114 -0.83392,4.577205 -0.007,1.404236 -0.14467,1.626749 -0.58505,0.945316 -0.4284,-0.662913 -0.57827,-0.320468 -0.58504,1.336815 -0.005,1.225415 0.25317,2.228026 0.57373,2.228026 0.32055,0 0.75953,0.735249 0.97551,1.633886 0.21599,0.898637 0.88442,2.615907 1.48541,3.816155 0.76884,1.535486 0.88684,2.25089 0.39813,2.413791 -0.46849,0.15617 -0.31979,0.745124 0.45688,1.809508 1.28272,1.7579 2.37382,2.147056 1.79569,0.640459 -0.20575,-0.53617 0.50089,-0.114288 1.57032,0.937524 1.06942,1.051812 2.66061,2.338981 3.53596,2.860375 0.87535,0.5214 1.70938,1.398582 1.8534,1.949303 0.28999,1.108939 3.36754,2.134942 3.92544,1.308683 0.46461,-0.688098 5.49578,-0.175254 5.06818,0.516611 -0.18085,0.292632 0.59412,0.532052 1.72216,0.532052 1.27502,0 2.18038,-0.33718 2.39298,-0.89121 z m 9.85736,-8.243874 c 1.11852,-2.941924 -1.94595,-9.023282 -5.46509,-10.845345 -1.20981,-0.626387 -4.15729,-1.148116 -7.87489,-1.393924 -6.20241,-0.410102 -8.52771,-1.202564 -10.77357,-3.67162 -2.6302,-2.891603 -4.17235,-7.71898 -3.24477,-10.15709 0.27967,-0.735108 1.67667,-1.98016 3.10443,-2.766781 l 2.59594,-1.43022 -1.26257,1.43022 c -3.06691,3.474149 -3.01789,6.856191 0.154,10.625772 2.29693,2.729741 3.52831,3.171744 10.02068,3.596914 7.90131,0.517439 11.24766,2.384265 14.02202,7.822451 1.12921,2.213434 1.65182,6.382197 0.5899,4.705474 -0.38304,-0.604786 -0.62803,-0.332036 -0.92783,1.032931 -0.22405,1.020091 -0.65335,2.006738 -0.95399,2.19255 -0.32384,0.200142 -0.31742,-0.265052 0.0157,-1.141332 z m -1.75425,-10.134016 c 0,-0.141136 -0.81748,-0.838711 -1.81663,-1.550166 -2.19105,-1.560166 -3.2437,-0.966444 -1.14519,0.645922 1.35069,1.037795 2.96182,1.529672 2.96182,0.904244 z m -11.8828,-3.308228 c 0,-0.326777 -1.08524,-0.594141 -2.41163,-0.594141 -1.45646,0 -2.26619,0.235321 -2.04443,0.594141 0.20196,0.326777 1.28719,0.59414 2.41163,0.59414 1.12443,0 2.04443,-0.267363 2.04443,-0.59414 z m -11.28078,-7.110632 c -0.4104,-0.99081 -0.99914,-1.801472 -1.30829,-1.801472 -0.63369,0 -0.0607,2.276131 0.86364,3.430665 0.99142,1.238322 1.24602,0.305473 0.44465,-1.629193 z m 37.42295,9.190122 c 0,-1.143719 -0.26737,-2.07949 -0.59415,-2.07949 -0.32677,0 -0.59414,0.935771 -0.59414,2.07949 0,1.14372 0.26737,2.079491 0.59414,2.079491 0.32678,0 0.59415,-0.935771 0.59415,-2.079491 z"
       id="path3488" />
  </g>
</svg>
