<?xml version="1.0" encoding="UTF-8" standalone="no"?>
<svg
   height="960"
   viewBox="0 0 960 960"
   width="960"
   version="1.1"
   id="svg4"
   sodipodi:docname="add_list_type_device_604a.svg"
   inkscape:version="1.1.1 (3bf5ae0d25, 2021-09-20)"
   xmlns:inkscape="http://www.inkscape.org/namespaces/inkscape"
   xmlns:sodipodi="http://sodipodi.sourceforge.net/DTD/sodipodi-0.dtd"
   xmlns="http://www.w3.org/2000/svg"
   xmlns:svg="http://www.w3.org/2000/svg">
  <defs
     id="defs8" />
  <sodipodi:namedview
     id="namedview6"
     pagecolor="#505050"
     bordercolor="#ffffff"
     borderopacity="1"
     inkscape:pageshadow="0"
     inkscape:pageopacity="0"
     inkscape:pagecheckerboard="1"
     showgrid="false"
     inkscape:zoom="0.68958333"
     inkscape:cx="480.72508"
     inkscape:cy="459.69789"
     inkscape:window-width="1440"
     inkscape:window-height="890"
     inkscape:window-x="-6"
     inkscape:window-y="-6"
     inkscape:window-maximized="1"
     inkscape:current-layer="svg4" />
  <path
     d="m 420.68589,253.59131 c 10.88114,1.44421 22.17606,5.17478 34.05494,10.99811 19.72885,9.67159 29.15293,32.65897 21.96671,53.51259 l -0.074,0.21194 -0.0708,0.20072 c -0.0233,0.0661 -0.0469,0.13197 -0.0706,0.19783 l -0.72185,1.99978 c -0.94315,2.61676 -1.87384,5.21454 -2.78229,7.76573 l -1.37754,3.88061 c -21.13719,59.73301 -35.45586,109.0133 -42.96457,147.60681 -5.59783,28.77179 -8.98235,61.30826 -10.29548,94.20097 l -0.004,0.062 0.21519,-0.42895 c 12.29398,-24.7299 23.34668,-53.44419 32.51182,-84.78042 l 0.59505,-2.04737 c 3.93997,-13.64237 7.83507,-27.61192 12.40785,-44.3914 l 1.67098,-6.14449 1.6483,-6.08191 5.61805,-20.78298 1.56656,-5.77817 1.54614,-5.68056 c 11.5181,-42.21366 18.88066,-66.22271 26.99778,-85.93101 5.29779,-12.86301 10.72745,-23.1613 16.90112,-31.35912 8.6812,-11.52744 19.20314,-19.4367 32.44205,-22.00094 12.85919,-2.49068 28.51471,-1.60079 46.38023,1.34674 15.07029,2.48635 27.66133,5.49449 33.77287,9.2779 17.09409,10.58227 26.30654,30.66296 22.84325,50.83603 -1.5945,9.41752 -3.05808,18.01739 -4.39104,25.80123 l -0.0305,0.17247 0.89658,-0.95503 c 16.36014,-17.40829 32.33828,-33.20927 46.82544,-46.18958 l 1.11144,-0.99291 c 0.79308,-0.70638 1.60732,-1.37723 2.57166,-2.13915 19.51274,-15.41721 48.06934,-1.21538 47.76941,23.7544 l -0.7438,60.55296 c -0.0785,6.43132 -2.22641,12.66361 -6.12149,17.76178 -0.81376,1.0651 -1.45285,1.89112 -1.95774,2.52776 -1.25614,1.58395 -2.71335,3.42145 -4.37161,5.5125 l -0.59362,0.74855 c -5.4588,6.8835 -12.97717,16.3643 -22.55504,28.44228 l -0.064,0.0895 c -1.19562,1.64889 -6.72604,9.32807 -13.03818,18.10108 l -0.54288,0.75454 c -0.63539,0.88315 -1.27759,1.77583 -1.92303,2.67309 l -0.97324,1.35302 -0.26367,0.36656 -0.5276,0.73356 c -0.35179,0.48911 -0.70358,0.97825 -1.05481,1.46665 l -0.52635,0.73191 c -0.2629,0.36557 -0.52532,0.7305 -0.78703,1.09446 l -0.52239,0.72648 c -6.77681,9.42484 -12.96268,18.03729 -14.35046,19.9922 l -0.13859,0.19569 c -0.039,0.0552 -0.0705,0.10014 -0.0946,0.13461 l -0.0371,0.0537 c -23.14753,33.9642 -55.46998,106.03054 -95.85976,214.70339 -3.13518,8.43548 -8.10461,17.44842 -14.89232,27.41315 -0.64149,0.94175 -1.33634,1.84551 -2.08109,2.7068 -10.615,12.27585 -26.42485,18.92774 -42.88756,17.65424 l -1.01916,-0.082 -0.18103,-0.0151 -1.00208,-0.0868 -0.18701,-0.0168 -0.98497,-0.0918 -0.19328,-0.0187 -0.96786,-0.0965 -0.0991,-0.0101 c -4.37715,-0.45165 -8.43667,-1.04181 -12.20205,-1.78684 l -0.1498,-0.03 -0.76264,-0.15502 -0.30841,-0.0644 -0.74555,-0.1599 -0.15875,-0.0345 c -1.99534,-0.4395 -3.91573,-0.92864 -5.84283,-1.49567 l -0.29867,-0.0887 c -0.0749,-0.0223 -0.14976,-0.0447 -0.22451,-0.0676 l -0.60726,-0.18573 c -0.0954,-0.0292 -0.19068,-0.0588 -0.28581,-0.089 l -0.62049,-0.19672 c -0.0906,-0.0287 -0.18102,-0.0578 -0.27132,-0.0874 l -0.63372,-0.20769 -0.13056,-0.0431 c -0.29788,-0.0992 -0.59733,-0.20039 -0.8984,-0.30366 l -0.12112,-0.0418 -0.6602,-0.22967 -0.11819,-0.0413 c -0.14972,-0.0528 -0.29986,-0.1061 -0.45042,-0.1599 l -0.11262,-0.0405 -0.68005,-0.24613 c -0.0726,-0.0263 -0.14503,-0.0528 -0.21738,-0.0796 l -0.69329,-0.2571 -0.10493,-0.0391 c -0.15096,-0.0567 -0.30233,-0.11376 -0.45416,-0.17136 l -0.10021,-0.0383 -0.71315,-0.27358 c -0.0647,-0.0248 -0.12926,-0.0499 -0.19378,-0.0751 l -0.72636,-0.28457 -0.18535,-0.0733 -0.73962,-0.29556 -0.0897,-0.0361 c -0.15372,-0.062 -0.30789,-0.1245 -0.46252,-0.18746 l -0.0859,-0.0351 -0.84354,-0.34671 c -0.15522,-0.0643 -0.3109,-0.12914 -0.54768,-0.22825 l -0.8583,-0.36193 c -0.15686,-0.0666 -0.3142,-0.13379 -0.54785,-0.23398 l -0.87348,-0.37718 c -0.15865,-0.0691 -0.31779,-0.13847 -0.54883,-0.23981 l -0.81901,-0.36143 -0.13875,-0.0617 -0.83225,-0.37241 -0.13349,-0.0601 -0.84548,-0.38339 -0.12853,-0.0586 -0.92121,-0.42317 c -0.16472,-0.0761 -0.32995,-0.15269 -0.5559,-0.25782 l -0.93771,-0.43858 c -0.16695,-0.0786 -0.33439,-0.15751 -0.5594,-0.26401 l -0.89842,-0.42732 -0.11114,-0.0532 -0.99251,-0.47733 -0.48727,-0.23611 c -5.10232,-2.47855 -9.65336,-5.69009 -13.57408,-9.45777 l -0.22806,-0.22246 -0.25612,0.23227 c -7.17713,6.44388 -14.82317,11.84235 -22.96006,16.08685 l -0.6495,0.33466 -0.0279,0.0185 c -21.41233,12.82869 -53.7025,8.98731 -89.79529,-10.45119 l -1.12914,-0.61251 c -19.89304,-10.86922 -32.75119,-30.89625 -40.47842,-57.68186 -0.27249,-0.94455 -0.5388,-1.89856 -0.799,-2.86199 l -0.0141,-0.0508 c -23.06157,22.2215 -43.1439,38.79574 -61.44688,51.15447 l -0.75118,0.50551 c -0.61412,0.41191 -1.46299,0.97447 -2.5704,1.70384 -19.63198,12.93036 -45.68082,-1.23601 -45.70149,-24.85466 l -0.0433,-49.44796 c -0.007,-7.36894 2.70551,-14.47775 7.60995,-19.94791 1.04699,-1.16777 1.82569,-2.03815 2.32807,-2.60211 29.51056,-33.12773 51.00141,-62.8035 64.48915,-88.75664 10.11702,-19.46719 19.20036,-39.43432 27.44269,-60.66009 3.41413,-8.79211 8.84245,-25.57779 15.61432,-48.02729 0.7515,-2.4913 1.51704,-5.04396 2.29613,-7.65571 3.90264,-13.08286 7.92042,-26.88223 12.27038,-42.04871 0.59735,-2.08268 1.93099,-6.75237 3.26439,-11.41872 l 0.22845,-0.79943 0.19054,-0.66675 c 1.48907,-5.21033 2.88023,-10.0732 3.12871,-10.91397 l 6.38392,-21.60138 0.42343,-1.43274 0.33943,-1.14856 0.49343,-1.66963 0.16643,-0.56316 0.16414,-0.55536 11.818,-39.98882 c 0.0531,-0.17964 0.10787,-0.35878 0.16433,-0.53739 5.73641,-18.14749 21.73946,-31.04997 40.5835,-32.71943 9.45162,-0.83737 18.33438,-0.73705 26.66719,0.36893 z m -16.91583,29.78095 c -7.57328,0.23338 -14.16123,5.28846 -16.39226,12.57813 l -0.0195,0.0595 -0.7575,2.48324 c -25.27463,82.93296 -41.16912,151.54634 -47.69436,205.77084 l -0.19682,1.65543 c -12.13008,103.28108 -4.18025,179.61081 25.53768,196.25746 15.94044,8.92912 29.54081,13.47773 40.32755,14.28503 l 0.12873,0.009 -0.22152,-0.13933 c -11.51337,-7.3504 -18.83413,-20.56856 -20.72825,-41.00119 l -0.0586,-0.65456 c -5.28177,-61.13601 -2.83065,-139.76832 9.06637,-202.45832 8.34307,-43.9629 24.33277,-99.65491 47.96714,-167.13959 l 0.0148,-0.0437 0.083,-0.2436 c 1.96488,-6.06885 -0.88331,-12.66836 -6.6295,-15.36327 l -0.27581,-0.12536 c -6.50651,-2.86284 -12.3949,-4.636 -17.64422,-5.35028 -3.83811,-0.52225 -8.00738,-0.71741 -12.50696,-0.5788 z m 155.54672,23.13521 c -0.46247,3.41229 -0.97896,7.21089 -1.54943,11.39587 -0.0868,0.6362 -1.63575,12.60106 -2.40969,18.38447 -1.51675,11.33423 -3.141,22.82536 -4.98541,35.0423 -5.13266,33.99772 -11.0716,67.65418 -17.96315,100.00078 -12.78179,59.9934 -29.74449,128.17217 -50.88866,204.54646 -3.54524,12.80184 2.78044,26.2602 14.80818,31.63892 l 0.36649,0.16028 c 3.44022,1.4775 6.44189,2.60683 8.98602,3.3882 l 0.47165,0.14242 c 2.11275,0.62684 4.60307,1.17775 7.4625,1.64379 12.69706,2.07049 24.80572,-6.15187 27.65533,-18.77925 l 0.65021,-2.88104 c 21.38167,-94.8403 36.40462,-164.71572 45.06294,-209.59253 9.80715,-50.83134 19.73473,-105.61051 29.78234,-164.33621 0.006,-0.035 0.006,-0.035 0.0118,-0.07 1.96938,-11.73873 -5.88657,-22.8621 -17.54677,-24.84474 l -0.0528,-0.0104 -2.76551,-0.46463 c -0.93922,-0.15665 -1.87794,-0.31176 -2.81614,-0.46531 l -2.81308,-0.45599 c -3.91289,-0.62813 -7.84299,-1.00992 -11.79205,-1.1456 -9.84305,-0.33807 -18.34344,6.87792 -19.67487,16.70216 z m -11.29602,-12.81512 -0.0115,0.0119 c -15.65571,15.00167 -28.34853,57.1062 -43.40375,112.28336 l -1.54122,5.66252 -1.55881,5.74957 -5.61225,20.76156 -1.65335,6.10061 -1.67779,6.16954 c -3.94435,14.47351 -8.09852,29.48327 -12.53394,44.84115 -19.08938,66.09805 -47.75176,126.41781 -82.75587,162.79459 0.32419,5.21419 0.70276,10.32764 1.13405,15.31983 1.41657,16.39673 6.44637,25.5772 13.98406,30.3895 2.10205,1.34201 4.36517,2.32213 6.95092,3.09751 1.56269,0.4686 6.4168,1.59846 6.4091,1.59642 1.52305,0.40296 2.69915,0.79645 3.72529,1.41452 15.70578,-9.85327 28.97503,-26.12287 39.8021,-45.17622 20.14824,-73.19902 36.37926,-138.69896 48.69301,-196.49555 6.82293,-32.02447 12.71143,-65.39504 17.80244,-99.1169 1.83106,-12.1285 3.44375,-23.53785 4.94996,-34.79334 0.22566,-1.68626 0.51921,-3.91374 0.82364,-6.23594 l 0.0915,-0.69906 0.18378,-1.40446 c 0.0306,-0.23388 0.0611,-0.46738 0.0915,-0.70004 l 0.0909,-0.69501 c 0.57194,-4.38013 1.08014,-8.29636 1.13329,-8.6863 0.56999,-4.18136 1.08595,-7.97622 1.54789,-11.38442 0.52333,-3.86154 1.6727,-7.49531 3.33506,-10.80537 z m -219.64573,179.87358 -0.34457,1.01609 c -1.4744,4.32402 -2.83482,8.12184 -4.03513,11.21291 -9.10878,23.45707 -18.81552,44.44283 -28.78072,63.61789 -14.7504,28.38277 -37.64058,59.99082 -68.67052,94.82416 -0.37707,0.42329 -0.89152,0.99882 -1.54333,1.7266 l -0.40758,0.45493 c -0.14135,0.15774 -0.28819,0.32157 -0.44054,0.49149 l 0.0433,49.44795 c 1.04436,-0.68784 1.83249,-1.21015 2.3644,-1.5669 15.63488,-10.48652 35.03832,-25.96641 59.9754,-50.15687 2.44138,-2.36828 4.9116,-4.92923 7.41063,-7.68287 l 0.9385,-1.04164 c 3.28945,-3.67735 6.62855,-7.68662 10.01732,-12.02777 l 0.96957,-1.24937 0.48579,-0.63146 0.9293,-1.21803 c 3.25689,-4.29197 6.55902,-8.88634 9.90639,-13.78313 0.54028,-0.82143 1.05544,-1.60476 1.54551,-2.34998 -0.87563,-29.74429 1.01775,-63.96014 5.30647,-100.47617 1.1456,-9.75429 2.58892,-19.95676 4.32986,-30.60783 z M 720.68154,319.36796 c -0.54722,0.43236 -0.95912,0.77171 -1.23571,1.01806 -32.26206,28.73559 -73.64884,73.58404 -109.43553,118.99689 -2.85302,15.34449 -5.69683,30.3611 -8.53079,45.04978 -8.02135,41.57536 -21.45317,104.38029 -40.30013,188.4413 38.57199,-102.43627 69.738,-171.08561 93.49843,-205.9491 1.44261,-2.11673 35.24947,-49.06407 35.80361,-49.80195 13.08732,-16.50353 22.36506,-28.20285 27.83321,-35.09797 0.37105,-0.46788 0.91368,-1.16923 1.62791,-2.10407 z"
     id="path2"
     sodipodi:nodetypes="ssccsscccscccccccccccsssssccccccsccssssccsssccsssssccccsssccccccccccccccccssssssccccccccssccccssccccccccccccccccccccccccccccccccccsccccsscsssssssscsscccccccsssccccccscccccscccccscsssssccccccscsscccccccsccccccccscssscccssssccsssscccsssssccssccccccccsccscscscscc"
     style="stroke-width:0.92602" />
  <path
     d="m 831.73206,0.99999987 c 14.0972,0 25.8073,1.29490503 35.9485,4.50587903 16.6265,5.2643421 27.9259,20.6941641 27.9259,38.1341641 l -7e-4,723.494957 37.082,67.915 0.5892,0.39485 c 1.6038,1.08872 3.1512,2.24698 4.644,3.48451 l 0.6364,0.53525 c 10.3186,8.80431 17.3294,20.9522 17.3294,36.19136 0,1.07001 -0.037,2.13051 -0.1102,3.18066 l -0.029,0.36437 0.01,0.0664 c 0.07,0.86562 0.113,1.73903 0.1273,2.61936 l 0.01,0.66152 v 17.0108 c 0,6.17048 -1.3975,12.01549 -3.8935,17.23521 l -0.065,0.13371 -0.086,0.19452 c -2.5441,5.66462 -6.1331,10.57822 -10.4344,14.80362 l -0.4325,0.4203 c -4.3212,4.1533 -9.1712,7.4654 -14.5491,10.2759 -7.8002,4.0762 -16.9837,7.2019 -27.5171,9.6692 -18.6091,4.359 -41.9728,6.7085 -66.5214,6.7085 -24.5487,0 -47.9124,-2.3495 -66.5223,-6.7085 -10.5334,-2.4673 -19.717,-5.593 -27.5171,-9.6692 -5.378,-2.8105 -10.22795,-6.1226 -14.54911,-10.2759 -4.49339,-4.319 -8.23798,-9.3705 -10.86689,-15.22392 l -0.0857,-0.19452 -0.0655,-0.13371 c -2.40692,-5.0333 -3.79228,-10.64803 -3.88817,-16.57534 l -0.005,-0.65987 v -17.0108 c 0,-1.10466 0.0448,-2.19885 0.13262,-3.28088 l 0.006,-0.0664 -0.0289,-0.36437 c -0.0584,-0.84012 -0.0938,-1.68686 -0.10568,-2.5398 l -0.004,-0.64086 c 0,-9.80371 3.11818,-18.81302 8.38009,-26.37513 3.71625,-5.34079 8.22688,-9.62288 13.34836,-13.22034 6.8735,-4.82803 14.8469,-8.4076 24.0646,-11.30968 0.833,-0.26226 1.6791,-0.51948 2.5379,-0.77164 l 0.7871,-0.22918 -0.1432,-0.53721 c -3.0642,-11.57551 -4.5456,-22.84259 -4.8926,-36.19454 l -0.01,-0.41625 -0.015,-0.25967 c -0.037,-0.69832 -0.056,-1.40158 -0.057,-2.10937 l 0.01,-0.70927 0.01,-0.48369 -0.01,-0.46299 c 0,-0.36042 0,-0.72302 -0.01,-1.08788 v -1.10152 c 0,-0.91201 0.024,-1.82526 0.073,-2.73927 l 0.034,-0.55234 11.8998,-734.104207 c 0.2944,-18.15997 12.7815,-33.8169741 30.3659,-38.1755541 l 0.5344,-0.128611 c 10.7649,-2.513349 22.7049,-3.68762803 35.9382,-3.68762803 z m 82.1964,901.81172013 -0.4524,0.19784 c -4.9887,2.16384 -10.8029,4.00535 -17.3873,5.58243 -17.2057,4.12114 -39.779,6.40801 -63.702,6.40801 -23.9231,0 -46.4964,-2.28687 -63.7021,-6.40801 -6.7843,-1.62498 -12.7511,-3.53069 -17.8395,-5.78047 8.2536,9.26042 41.627,16.18848 81.5416,16.18848 39.9145,0 73.2879,-6.92806 81.5417,-16.18828 z m -55.4415,-102.41541 -4.0633,1.30198 c -2.8175,0.90282 -5.6905,1.35344 -8.5321,1.38437 l 38.8932,84.45634 25.646,-8.789 -44.6635,-81.86745 c -2.2121,1.48041 -4.6538,2.67215 -7.2803,3.51376 z m -101.216,66.22745 -0.3098,0.15936 c -4.9954,2.594 -7.8685,5.4863 -8.0638,8.53948 L 748.88636,875 c 0,3.9912 4.881,7.70934 13.2912,10.83065 -3.2755,-4.10083 -5.2912,-9.13626 -5.2912,-14.83065 0,-1.52509 0.1323,-2.98331 0.3842,-4.37624 z m 46.1078,-674.83976 -9.3623,585.06068 c -0.7435,1.26063 -1.12,2.72519 -1.1296,4.39368 l -10e-5,-0.85075 c 0,0.94686 0,1.87569 0.016,2.78798 l -0.01,0.349 c 0,0.21622 0,0.4315 0.01,0.64588 l 0.013,-5.8e-4 c 0.2787,16.77785 2.5181,27.99389 8.3203,43.10721 0.1211,0.31563 0.2444,0.63796 0.3698,0.96699 0.072,0.18832 0.1444,0.37939 0.2177,0.57267 0.056,0.14694 0.112,0.29551 0.1687,0.44537 0.032,0.085 0.064,0.17014 0.097,0.25565 l 0.041,0.10769 c 0.2423,0.64205 0.4917,1.30702 0.7483,1.99491 0.2266,0.60744 0.4588,1.23279 0.6965,1.87601 0.085,0.22991 0.1708,0.46234 0.2572,0.69705 0.4225,1.14654 0.8621,2.34766 1.3186,3.60337 0.027,0.074 0.054,0.14863 0.081,0.22342 l -0.081,-0.22342 c 0.1049,0.28846 0.2107,0.5798 0.3173,0.87403 l 0.037,0.10183 c 0.053,0.14761 0.1073,0.29594 0.1612,0.44499 0.063,0.17387 0.1259,0.34809 0.1893,0.52328 0.1054,0.29174 0.2118,0.58643 0.319,0.88384 0.097,0.26922 0.1949,0.54082 0.2934,0.81464 0.073,0.20229 0.1462,0.40674 0.2201,0.61241 0.3618,1.00743 0.7329,2.0446 1.1132,3.11116 v 0.012 c 0.1432,0.40156 0.2877,0.80729 0.4334,1.21718 0.288,0.80961 0.581,1.63561 0.8792,2.47787 0.1657,0.46833 0.333,0.94178 0.502,1.42025 0.077,0.21813 0.1544,0.43723 0.232,0.65737 l 0.049,0.13901 c 0.138,0.39132 0.277,0.78593 0.417,1.18382 0.2952,0.8389 0.5948,1.69183 0.8989,2.55935 l 0.024,0.067 c 0.4567,1.30292 0.9237,2.63869 1.401,4.00731 l -0.3297,0.0308 c 2.5448,7.29427 5.3868,15.54197 8.5262,24.74309 4.0352,0.2107 8.2351,0.32188 12.5479,0.32188 5.0238,0 9.8944,-0.15086 14.531,-0.43397 l 13.8122,1.72405 -55.2844,-120.05159 -0.025,-0.0551 c -0.3322,-0.72708 -0.62,-1.4724 -0.8623,-2.23182 -0.032,-0.0991 -0.062,-0.19829 -0.092,-0.29766 -0.021,-0.0704 -0.042,-0.1408 -0.062,-0.21133 -0.013,-0.0432 -0.025,-0.0868 -0.037,-0.13047 -0.079,-0.27854 -0.1513,-0.55837 -0.2178,-0.83971 -0.011,-0.0453 -0.021,-0.0912 -0.032,-0.13726 -0.024,-0.10537 -0.047,-0.21032 -0.07,-0.31547 -0.015,-0.0707 -0.03,-0.14171 -0.044,-0.2128 -0.017,-0.0848 -0.033,-0.16977 -0.049,-0.2549 -0.014,-0.0727 -0.027,-0.14543 -0.04,-0.21821 -0.017,-0.0973 -0.034,-0.19469 -0.049,-0.2922 -0.01,-0.0593 -0.019,-0.11868 -0.028,-0.17808 -0.015,-0.0997 -0.029,-0.19965 -0.043,-0.29972 -0.01,-0.0689 -0.018,-0.13788 -0.027,-0.20694 -0.01,-0.0823 -0.02,-0.16469 -0.029,-0.24713 -0.01,-0.078 -0.017,-0.15612 -0.025,-0.23427 -0.01,-0.0883 -0.017,-0.17669 -0.025,-0.26511 -0.01,-0.0785 -0.013,-0.15719 -0.019,-0.23594 0,-0.0724 -0.01,-0.14466 -0.015,-0.21694 -0.027,-0.41244 -0.04,-0.82642 -0.041,-1.24114 z m -11.1493,670.30899 -0.329,0.0818 c -9.3188,2.31799 -15.0137,5.41858 -15.0137,8.82521 0,4.19049 8.6172,7.91788 21.9968,10.29525 -2.4234,-7.06007 -4.6422,-13.46206 -6.6541,-19.20226 z m 42.6665,-821.064247 -0.5348,0.0137 c -3.2033,0.0821 -6.973,0.28339 -11.3092,0.60381 l 1.5596,715.226397 13.2676,21.87591 c 2.1588,3.55953 6.4771,5.17394 10.4416,3.90361 l 4.0633,-1.30198 c 1.4246,-0.45648 2.674,-1.24487 3.674,-2.26332 l -0.4516,-0.82878 -0.1747,-0.0441 0.455,-0.0499 V 777.859 l -0.2803,-0.51479 V 43.640043 c -4.9787,-1.57638 -11.8822,-2.44681 -20.7105,-2.6113 z"
     id="path73" />
  <path
     d="m 118.24897,2.4501351 c 14.0972,0 25.8073,1.2949 35.9485,4.50588 16.6265,5.2643399 27.9259,20.6941599 27.9259,38.1341599 l -7e-4,723.494965 37.082,67.915 0.5892,0.39485 c 1.6038,1.08872 3.1512,2.24698 4.644,3.48451 l 0.6364,0.53525 c 10.3186,8.80431 17.3294,20.9522 17.3294,36.19136 0,1.07001 -0.037,2.13051 -0.1102,3.18066 l -0.029,0.36437 0.01,0.0664 c 0.07,0.86562 0.113,1.73903 0.1273,2.61936 l 0.01,0.66152 v 17.0108 c 0,6.17048 -1.3975,12.01549 -3.8935,17.23521 l -0.065,0.13371 -0.086,0.19452 c -2.5441,5.66462 -6.1331,10.57822 -10.4344,14.80362 l -0.4325,0.4203 c -4.3212,4.1533 -9.1712,7.4654 -14.5491,10.2759 -7.8002,4.0762 -16.9837,7.2019 -27.5171,9.6692 -18.6091,4.359 -41.9728,6.7085 -66.5214,6.7085 -24.548697,0 -47.912397,-2.3495 -66.522297,-6.7085 -10.5334,-2.4673 -19.717,-5.593 -27.5171,-9.6692 -5.378,-2.8105 -10.22795,-6.1226 -14.54911,-10.2759 -4.4933905,-4.319 -8.2379805,-9.3705 -10.86689046,-15.22392 l -0.0857,-0.19452 -0.0655,-0.13371 C -3.1007475,913.21113 -4.4861075,907.5964 -4.5819975,901.66909 l -0.005,-0.65987 v -17.0108 c 0,-1.10466 0.0448,-2.19885 0.13262,-3.28088 l 0.006,-0.0664 -0.0289,-0.36437 c -0.0584,-0.84012 -0.0938,-1.68686 -0.10568,-2.5398 l -0.004,-0.64086 c 0,-9.80371 3.11818,-18.81302 8.38009,-26.37513 3.71625,-5.34079 8.2268805,-9.62288 13.3483605,-13.22034 6.8735,-4.82803 14.8469,-8.4076 24.0646,-11.30968 0.833,-0.26226 1.6791,-0.51948 2.5379,-0.77164 l 0.7871,-0.22918 -0.1432,-0.53721 c -3.0642,-11.57551 -4.5456,-22.84259 -4.8926,-36.19454 l -0.01,-0.41625 -0.015,-0.25967 c -0.037,-0.69832 -0.056,-1.40158 -0.057,-2.10937 l 0.01,-0.70927 0.01,-0.48369 -0.01,-0.46299 c 0,-0.36042 0,-0.72302 -0.01,-1.08788 v -1.10152 c 0,-0.91201 0.024,-1.82526 0.073,-2.73927 l 0.034,-0.55234 11.8998,-734.104215 c 0.2944,-18.15997 12.7815,-33.81697 30.3659,-38.1755499 l 0.5344,-0.12861 c 10.7649,-2.51335 22.704897,-3.68763 35.938197,-3.68763 z m 82.1964,901.8117249 -0.4524,0.19784 c -4.9887,2.16384 -10.8029,4.00535 -17.3873,5.58243 -17.2057,4.12114 -39.779,6.40801 -63.702,6.40801 -23.923097,0 -46.496397,-2.28687 -63.702097,-6.40801 -6.7843,-1.62498 -12.7511,-3.53069 -17.8395,-5.78047 8.2536,9.26042 41.627,16.18848 81.541597,16.18848 39.9145,0 73.2879,-6.92806 81.5417,-16.18828 z m -55.4415,-102.41541 -4.0633,1.30198 c -2.8175,0.90282 -5.6905,1.35344 -8.5321,1.38437 l 38.8932,84.45634 25.646,-8.789 -44.6635,-81.86745 c -2.2121,1.48041 -4.6538,2.67215 -7.2803,3.51376 z m -101.215997,66.22745 -0.3098,0.15936 c -4.9954,2.594 -7.8685,5.4863 -8.0638,8.53948 l -0.011,-0.3226 c 0,3.9912 4.881,7.70934 13.2912,10.83065 -3.2755,-4.10083 -5.2912,-9.13626 -5.2912,-14.83065 0,-1.52509 0.1323,-2.98331 0.3842,-4.37624 z m 46.1078,-674.83976 -9.3623,585.06068 c -0.7435,1.26063 -1.12,2.72519 -1.1296,4.39368 l -1e-4,-0.85075 c 0,0.94686 0,1.87569 0.016,2.78798 l -0.01,0.349 c 0,0.21622 0,0.4315 0.01,0.64588 l 0.013,-5.8e-4 c 0.2787,16.77785 2.5181,27.99389 8.3203,43.10721 0.1211,0.31563 0.2444,0.63796 0.3698,0.96699 0.072,0.18832 0.1444,0.37939 0.2177,0.57267 0.056,0.14694 0.112,0.29551 0.1687,0.44537 0.032,0.085 0.064,0.17014 0.097,0.25565 l 0.041,0.10769 c 0.2423,0.64205 0.4917,1.30702 0.7483,1.99491 0.2266,0.60744 0.4588,1.23279 0.6965,1.87601 0.085,0.22991 0.1708,0.46234 0.2572,0.69705 0.4225,1.14654 0.8621,2.34766 1.3186,3.60337 0.027,0.074 0.054,0.14863 0.081,0.22342 l -0.081,-0.22342 c 0.1049,0.28846 0.2107,0.5798 0.3173,0.87403 l 0.037,0.10183 c 0.053,0.14761 0.1073,0.29594 0.1612,0.44499 0.063,0.17387 0.1259,0.34809 0.1893,0.52328 0.1054,0.29174 0.2118,0.58643 0.319,0.88384 0.097,0.26922 0.1949,0.54082 0.2934,0.81464 0.073,0.20229 0.1462,0.40674 0.2201,0.61241 0.3618,1.00743 0.7329,2.0446 1.1132,3.11116 v 0.012 c 0.1432,0.40156 0.2877,0.80729 0.4334,1.21718 0.288,0.80961 0.581,1.63561 0.8792,2.47787 0.1657,0.46833 0.333,0.94178 0.502,1.42025 0.077,0.21813 0.1544,0.43723 0.232,0.65737 l 0.049,0.13901 c 0.138,0.39132 0.277,0.78593 0.417,1.18382 0.2952,0.8389 0.5948,1.69183 0.8989,2.55935 l 0.024,0.067 c 0.4567,1.30292 0.9237,2.63869 1.401,4.00731 l -0.3297,0.0308 c 2.544797,7.29427 5.386797,15.54197 8.526197,24.74309 4.0352,0.2107 8.2351,0.32188 12.5479,0.32188 5.0238,0 9.8944,-0.15086 14.531,-0.43397 l 13.8122,1.72405 -55.284397,-120.05159 -0.025,-0.0551 c -0.3322,-0.72708 -0.62,-1.4724 -0.8623,-2.23182 -0.032,-0.0991 -0.062,-0.19829 -0.092,-0.29766 -0.021,-0.0704 -0.042,-0.1408 -0.062,-0.21133 -0.013,-0.0432 -0.025,-0.0868 -0.037,-0.13047 -0.079,-0.27854 -0.1513,-0.55837 -0.2178,-0.83971 -0.011,-0.0453 -0.021,-0.0912 -0.032,-0.13726 -0.024,-0.10537 -0.047,-0.21032 -0.07,-0.31547 -0.015,-0.0707 -0.03,-0.14171 -0.044,-0.2128 -0.017,-0.0848 -0.033,-0.16977 -0.049,-0.2549 -0.014,-0.0727 -0.027,-0.14543 -0.04,-0.21821 -0.017,-0.0973 -0.034,-0.19469 -0.049,-0.2922 -0.01,-0.0593 -0.019,-0.11868 -0.028,-0.17808 -0.015,-0.0997 -0.029,-0.19965 -0.043,-0.29972 -0.01,-0.0689 -0.018,-0.13788 -0.027,-0.20694 -0.01,-0.0823 -0.02,-0.16469 -0.029,-0.24713 -0.01,-0.078 -0.017,-0.15612 -0.025,-0.23427 -0.01,-0.0883 -0.017,-0.17669 -0.025,-0.26511 -0.01,-0.0785 -0.013,-0.15719 -0.019,-0.23594 0,-0.0724 -0.01,-0.14466 -0.015,-0.21694 -0.027,-0.41244 -0.04,-0.82642 -0.041,-1.24114 z m -11.1493,670.30899 -0.329,0.0818 c -9.3188,2.31799 -15.0137,5.41858 -15.0137,8.82521 0,4.19049 8.6172,7.91788 21.9968,10.29525 -2.4234,-7.06007 -4.6422,-13.46206 -6.6541,-19.20226 z m 42.666497,-821.064255 -0.5348,0.0137 c -3.2033,0.0821 -6.973,0.28339 -11.3092,0.60381 l 1.5596,715.226405 13.2676,21.87591 c 2.1588,3.55953 6.4771,5.17394 10.4416,3.90361 l 4.0633,-1.30198 c 1.4246,-0.45648 2.674,-1.24487 3.674,-2.26332 l -0.4516,-0.82878 -0.1747,-0.0441 0.455,-0.0499 v -0.30509 l -0.2803,-0.51479 V 45.090175 c -4.9787,-1.57638 -11.8822,-2.44681 -20.7105,-2.6113 z"
     id="path73-6" />
</svg>
