<?xml version="1.0" encoding="UTF-8" standalone="no"?>
<!-- Created with Inkscape (http://www.inkscape.org/) -->

<svg
   width="100mm"
   height="100mm"
   viewBox="0 0 100 100"
   version="1.1"
   id="svg5279"
   inkscape:version="1.1.1 (3bf5ae0d25, 2021-09-20)"
   sodipodi:docname="add_list_type_device_6195.svg"
   xmlns:inkscape="http://www.inkscape.org/namespaces/inkscape"
   xmlns:sodipodi="http://sodipodi.sourceforge.net/DTD/sodipodi-0.dtd"
   xmlns="http://www.w3.org/2000/svg"
   xmlns:svg="http://www.w3.org/2000/svg">
  <sodipodi:namedview
     id="namedview5281"
     pagecolor="#505050"
     bordercolor="#ffffff"
     borderopacity="1"
     inkscape:pageshadow="0"
     inkscape:pageopacity="0"
     inkscape:pagecheckerboard="1"
     inkscape:document-units="mm"
     showgrid="false"
     inkscape:zoom="0.58974467"
     inkscape:cx="397.62971"
     inkscape:cy="157.69536"
     inkscape:window-width="1440"
     inkscape:window-height="890"
     inkscape:window-x="-6"
     inkscape:window-y="-6"
     inkscape:window-maximized="1"
     inkscape:current-layer="layer1" />
  <defs
     id="defs5276" />
  <g
     inkscape:label="Laag 1"
     inkscape:groupmode="layer"
     id="layer1">
    <g
       id="g5503">
      <path
         style="fill:#d0d0d0;fill-opacity:1;stroke-width:0.610757"
         d="m 53.935298,89.121256 -1.163484,-1.374202 1.374202,1.163485 c 1.291411,1.093388 1.652244,1.584919 1.163484,1.584919 -0.115895,0 -0.734286,-0.618391 -1.374202,-1.374202 z m 35.176529,-0.649179 c 0,-0.105112 0.893232,-0.998343 1.984959,-1.984959 l 1.984959,-1.793847 -1.793847,1.984959 c -1.672117,1.850262 -2.176071,2.265693 -2.176071,1.793847 z M 38.915275,85.192192 c 0.44089,-0.176429 0.967667,-0.154735 1.170617,0.04819 0.202949,0.202949 -0.157779,0.347301 -0.801618,0.320782 -0.711497,-0.02932 -0.85622,-0.174029 -0.368999,-0.368995 z M 35.82332,84.594157 c 0.419895,-0.16943 1.106996,-0.16943 1.526891,0 0.419895,0.16943 0.07634,0.30806 -0.763445,0.30806 -0.839791,0 -1.183341,-0.13863 -0.763446,-0.30806 z m 52.066994,-1.820005 c 0,-0.327702 0.42742,-1.12932 0.949831,-1.781376 0.895595,-1.117873 0.908311,-1.098384 0.222645,0.341334 -0.890367,1.869544 -1.172476,2.216032 -1.172476,1.440042 z m 8.85597,-8.158364 c 0.608002,-0.671832 1.242877,-1.221513 1.410835,-1.221513 0.167958,0 -0.192076,0.549681 -0.800078,1.221513 -0.608002,0.671832 -1.242878,1.221513 -1.410836,1.221513 -0.167958,0 0.192077,-0.549681 0.800079,-1.221513 z M 11.992341,55.022622 c 0.215969,-0.825868 0.492821,-1.10272 0.645295,-0.645296 0.146875,0.440625 -0.02334,1.091519 -0.37825,1.44643 -0.453222,0.453223 -0.532708,0.214764 -0.267045,-0.801134 z m 3.266164,-2.139587 c 0.0293,-0.711496 0.174029,-0.856219 0.368998,-0.368999 0.17643,0.44089 0.154732,0.967668 -0.04822,1.170617 -0.202949,0.202949 -0.347301,-0.157779 -0.320781,-0.801618 z m -3.266164,-2.64855 c -0.265663,-1.015899 -0.186177,-1.254358 0.267045,-0.801135 0.354912,0.354912 0.525125,1.005805 0.37825,1.44643 -0.152474,0.457424 -0.429326,0.180572 -0.645295,-0.645295 z m 64.215691,-2.950052 c -0.759702,-0.968694 -0.738099,-0.990296 0.230597,-0.230594 0.587854,0.461026 1.068824,0.941997 1.068824,1.068824 0,0.502674 -0.501547,0.179137 -1.299421,-0.83823 z m -27.619496,-5.32456 c -0.189226,-0.493116 -0.138264,-1.023757 0.11325,-1.179201 0.251514,-0.155444 0.49727,0.248015 0.546124,0.896575 0.105658,1.402643 -0.182231,1.52604 -0.659374,0.282626 z m 48.119325,-1.69914 -1.793847,-1.984958 1.984959,1.793847 c 1.850263,1.672118 2.265693,2.17607 1.793847,2.17607 -0.105111,0 -0.998343,-0.893231 -1.984959,-1.984959 z M 21.317852,38.961315 c 0,-0.126827 0.480971,-0.607798 1.068824,-1.068824 0.968694,-0.759702 0.990297,-0.7381 0.230595,0.230594 -0.797874,1.017367 -1.299419,1.340904 -1.299419,0.83823 z m -3.35916,-4.655458 c 0.607999,-0.671832 1.242874,-1.221513 1.410832,-1.221513 0.167958,0 -0.192076,0.549681 -0.800076,1.221513 -0.608,0.671832 -1.242874,1.221513 -1.410832,1.221513 -0.167958,0 0.192076,-0.549681 0.800076,-1.221513 z M 15.210287,32.85375 c 0,-0.126827 0.480971,-0.607798 1.068824,-1.068824 0.968694,-0.759702 0.990297,-0.7381 0.230594,0.230594 -0.797873,1.017367 -1.299418,1.340903 -1.299418,0.83823 z m 19.39152,-12.389029 c 0.419895,-0.169431 1.106996,-0.169431 1.526891,0 0.419895,0.169432 0.07635,0.308057 -0.763445,0.308057 -0.839791,0 -1.183341,-0.138625 -0.763446,-0.308057 z"
         id="path5519" />
      <path
         style="fill:#b9b9b9;fill-opacity:1;stroke-width:0.610757"
         d="m 33.418466,88.245974 c 0.44089,-0.176429 0.967668,-0.154735 1.170617,0.04819 0.202949,0.202948 -0.157779,0.347301 -0.801618,0.320782 -0.711496,-0.02932 -0.856219,-0.174029 -0.368999,-0.368995 z m 5.496809,0 c 0.44089,-0.176429 0.967667,-0.154735 1.170617,0.04819 0.202949,0.202948 -0.157779,0.347301 -0.801618,0.320782 -0.711497,-0.02932 -0.85622,-0.174029 -0.368999,-0.368995 z m -2.443026,-6.718321 c 0.44089,-0.17643 0.967667,-0.154736 1.170617,0.04819 0.202949,0.202949 -0.157779,0.347301 -0.801618,0.320782 -0.711497,-0.02932 -0.85622,-0.174029 -0.368999,-0.368995 z M 97.911052,57.514605 c 0,-5.542615 0.09259,-7.810049 0.205764,-5.038741 0.113167,2.771308 0.113167,7.306175 0,10.077483 -0.113174,2.771307 -0.205764,0.503874 -0.205764,-5.038742 z M 7.4121496,52.628553 c 0,-1.175706 0.1256906,-1.656677 0.279313,-1.068824 0.1536218,0.587853 0.1536218,1.549795 0,2.137648 -0.1536224,0.587853 -0.279313,0.106882 -0.279313,-1.068824 z m 70.8477554,0 c 0,-1.175706 0.125694,-1.656677 0.279318,-1.068824 0.153617,0.587853 0.153617,1.549795 0,2.137648 -0.153624,0.587853 -0.279318,0.106882 -0.279318,-1.068824 z m -66.006965,0 c 0,-0.83979 0.138625,-1.183341 0.308057,-0.763446 0.169431,0.419895 0.169431,1.106997 0,1.526892 -0.169432,0.419895 -0.308057,0.07634 -0.308057,-0.763446 z m 28.705557,0 c 0,-0.83979 0.138625,-1.183341 0.308057,-0.763446 0.169431,0.419895 0.169431,1.106997 0,1.526892 -0.169432,0.419895 -0.308057,0.07634 -0.308057,-0.763446 z M 15.258505,51.050766 c 0.0293,-0.711497 0.174029,-0.85622 0.368998,-0.368999 0.17643,0.440889 0.154732,0.967667 -0.04822,1.170616 -0.202949,0.202949 -0.347301,-0.157779 -0.320781,-0.801617 z m 5.448591,-12.700207 c 0,-0.126828 0.480971,-0.607798 1.068824,-1.068824 0.968694,-0.759703 0.990296,-0.7381 0.230594,0.230594 -0.797873,1.017366 -1.299418,1.340903 -1.299418,0.83823 z m -2.095748,-3.480244 c 1.298208,-1.434504 1.417199,-1.449738 1.227489,-0.157162 -0.08218,0.559929 -0.631285,1.088775 -1.220231,1.175215 -1.018105,0.149425 -1.018462,0.09931 -0.0073,-1.018053 z m -4.229171,-1.317642 c 0.186819,-0.302278 0.495976,-0.393292 0.687016,-0.202252 0.191039,0.191039 0.919329,-0.134226 1.618421,-0.722812 1.252895,-1.054848 1.255752,-1.051955 0.199715,0.202253 -1.03022,1.223547 -3.201876,1.850135 -2.505152,0.722811 z M 11.462262,31.10611 c 0.457957,-0.584155 1.045206,-0.930731 1.304999,-0.77017 0.559666,0.345892 1.964418,-1.191158 1.506833,-1.648743 -0.173161,-0.173161 0.172774,-0.697554 0.768744,-1.165317 0.985307,-0.773345 1.00756,-0.753541 0.245354,0.218344 -0.461026,0.587854 -0.624559,1.068824 -0.363407,1.068824 0.261152,0 -0.02416,0.551366 -0.634021,1.225258 -0.609864,0.673892 -1.245564,1.088537 -1.412667,0.921434 -0.167103,-0.167103 -0.741372,0.03734 -1.276154,0.454323 -0.858925,0.669722 -0.875216,0.634271 -0.139681,-0.303953 z m 23.292234,-3.138412 c 0,-0.126828 0.480971,-0.607798 1.068824,-1.068824 0.968694,-0.759703 0.990297,-0.7381 0.230594,0.230594 -0.797873,1.017366 -1.299418,1.340903 -1.299418,0.83823 z m 3.359161,-4.044702 c -0.995782,-0.427902 -1.03066,-0.532835 -0.188734,-0.567829 0.568029,-0.02361 1.202639,0.231913 1.410247,0.567829 0.434043,0.702296 0.412818,0.702296 -1.221513,0 z m -3.51185,-0.404492 c 0.419895,-0.169432 1.106996,-0.169432 1.526891,0 0.419895,0.169431 0.07635,0.308057 -0.763445,0.308057 -0.839791,0 -1.183341,-0.138626 -0.763446,-0.308057 z m 23.361437,-1.427778 c 0,-0.335916 0.291061,-0.610756 0.646802,-0.610756 0.35574,0 0.476941,0.27484 0.269333,0.610756 -0.207608,0.335917 -0.498668,0.610757 -0.646801,0.610757 -0.148134,0 -0.269334,-0.27484 -0.269334,-0.610757 z"
         id="path5517" />
      <path
         style="fill:#a3a3a3;fill-opacity:1;stroke-width:0.610757"
         d="m 35.517942,88.242176 c 0.587853,-0.153618 1.549794,-0.153618 2.137648,0 0.587853,0.153623 0.106882,0.279317 -1.068824,0.279317 -1.175707,0 -1.656677,-0.125694 -1.068824,-0.279317 z m -0.877963,-6.714523 c 0.44089,-0.17643 0.967668,-0.154736 1.170617,0.04819 0.202949,0.202949 -0.157779,0.347301 -0.801618,0.320782 -0.711496,-0.02932 -0.856219,-0.174029 -0.368999,-0.368995 z m 3.664539,0 c 0.44089,-0.17643 0.967668,-0.154736 1.170617,0.04819 0.202949,0.202949 -0.157779,0.347301 -0.801618,0.320782 -0.711496,-0.02932 -0.856219,-0.174029 -0.368999,-0.368995 z m 12.777536,-3.323114 c 0.414297,-0.417404 0.90712,-0.605059 1.095164,-0.417013 0.188045,0.188046 -0.150925,0.529557 -0.753266,0.758914 -0.870449,0.331445 -0.940603,0.261294 -0.341898,-0.341901 z M 39.972009,70.993452 c -0.193262,-0.312707 -0.117869,-0.712875 0.16754,-0.889267 0.28541,-0.176393 0.518927,0.07945 0.518927,0.568553 0,1.029839 -0.192594,1.119816 -0.686467,0.320714 z m -23.007357,-2.33254 c -0.759703,-0.968697 -0.7381,-0.990299 0.230594,-0.230597 1.017366,0.797874 1.340903,1.299421 0.83823,1.299421 -0.126828,0 -0.607798,-0.480971 -1.068824,-1.068824 z m 4.320322,-1.221513 -2.104769,-2.290337 2.290337,2.104771 c 2.131796,1.959068 2.571154,2.475903 2.104769,2.475903 -0.102063,0 -1.132714,-1.030652 -2.290337,-2.290337 z m 16.86795,0.279036 c 0.229358,-0.60234 0.57087,-0.94131 0.758914,-0.753264 0.188044,0.188046 3.87e-4,0.680865 -0.417015,1.095166 -0.603193,0.5987 -0.673347,0.528548 -0.341899,-0.341902 z m 8.361174,-1.296966 -1.071363,-1.272407 1.438325,1.221513 c 0.791078,0.671832 1.569792,1.1299 1.730476,1.01793 0.160684,-0.111977 0.40667,-0.08907 0.546635,0.05088 0.139965,0.139967 -0.156637,0.254483 -0.659115,0.254483 -0.502478,0 -1.395709,-0.572584 -1.984958,-1.272413 z M 49.7871,65.95344 c 0.176392,-0.285406 0.576563,-0.360804 0.889268,-0.167536 0.799103,0.49387 0.709124,0.686466 -0.320714,0.686466 -0.489098,0 -0.744947,-0.233517 -0.568554,-0.51893 z m -25.778872,-1.262445 -1.163484,-1.374203 1.374202,1.163485 c 1.291411,1.093389 1.652244,1.58492 1.163484,1.58492 -0.115895,0 -0.734286,-0.618391 -1.374202,-1.374202 z M 8.5401827,55.326061 c 0.029304,-0.711496 0.1740296,-0.856219 0.3689989,-0.368999 0.1764299,0.44089 0.1547315,0.967668 -0.048219,1.170617 C 8.6580129,56.330628 8.5136612,55.9699 8.5401809,55.326061 Z M 0.64856564,54.460823 c 0,-0.839791 0.13862566,-1.183341 0.30805702,-0.763446 0.16943134,0.419895 0.16943134,1.106996 0,1.526891 -0.16943136,0.419895 -0.30805702,0.07634 -0.30805702,-0.763445 z M 28.084392,54.104548 c 0.0293,-0.711496 0.174029,-0.856219 0.368999,-0.368999 0.176429,0.44089 0.154731,0.967668 -0.04822,1.170617 -0.202949,0.202949 -0.347301,-0.157779 -0.320781,-0.801618 z M 0.64856564,50.796283 c 0,-0.83979 0.13862566,-1.18334 0.30805702,-0.763445 0.16943134,0.419895 0.16943134,1.106996 0,1.526891 -0.16943136,0.419895 -0.30805702,0.07635 -0.30805702,-0.763446 z M 28.084392,51.050766 c 0.0293,-0.711497 0.174029,-0.85622 0.368999,-0.368999 0.176429,0.440889 0.154731,0.967667 -0.04822,1.170616 -0.202949,0.202949 -0.347301,-0.157779 -0.320781,-0.801617 z M 7.3186696,49.829252 c 0.029304,-0.711496 0.1740296,-0.856219 0.368999,-0.368998 0.1764298,0.440889 0.1547315,0.967667 -0.048219,1.170616 C 7.4364998,50.833819 7.2921481,50.473091 7.3186678,49.829252 Z M 77.704062,38.757145 c 0.470337,-0.761021 -1.645036,-2.799278 -2.263409,-2.180899 -0.242434,0.24243 -0.254887,-0.04366 -0.02767,-0.635766 0.227207,-0.592101 0.447862,-0.995985 0.490346,-0.897518 0.04245,0.09847 0.716295,0.905847 1.497373,1.794178 1.044681,1.188139 1.221568,1.737866 0.669078,2.079325 -0.446634,0.276036 -0.594871,0.211459 -0.365715,-0.15932 z M 17.042557,33.389722 c 0.788941,-0.83979 1.57186,-1.526891 1.739818,-1.526891 0.167958,0 -0.34012,0.687101 -1.129062,1.526891 -0.788941,0.839791 -1.57186,1.526892 -1.739818,1.526892 -0.167958,0 0.34012,-0.687101 1.129062,-1.526892 z m 66.776045,0.02687 c 0,-0.489098 0.233517,-0.744947 0.518929,-0.568554 0.285407,0.176393 0.360805,0.576563 0.167537,0.889268 -0.49387,0.799103 -0.686466,0.709124 -0.686466,-0.320714 z M 67.572478,31.787044 c 0.414301,-0.417402 0.90712,-0.605059 1.095166,-0.417015 0.188046,0.188044 -0.150924,0.529555 -0.753264,0.758913 -0.87045,0.331449 -0.940602,0.261295 -0.341902,-0.341898 z M 86.97418,28.809048 c -0.207609,-0.335916 -0.18123,-0.610756 0.05863,-0.610756 0.239844,0 -0.08552,-0.618391 -0.723032,-1.374202 -1.06897,-1.267332 -1.030297,-1.260428 0.497272,0.08878 0.911017,0.80464 1.511219,1.697872 1.333789,1.984959 -0.420537,0.680413 -0.704636,0.658794 -1.166661,-0.08878 z m -76.649945,-0.84135 c 0,-0.126828 0.480971,-0.607798 1.068824,-1.068824 0.968694,-0.759703 0.990296,-0.7381 0.230594,0.230594 -0.797873,1.017366 -1.299418,1.340903 -1.299418,0.83823 z m 63.355809,-2.28822 c 0.4143,-0.417402 0.90712,-0.605059 1.095166,-0.417015 0.188045,0.188044 -0.150925,0.529556 -0.753265,0.758914 -0.87045,0.331448 -0.940602,0.261294 -0.341901,-0.341899 z M 42.892617,22.910367 c 0.22103,-0.221029 0.06071,-0.83942 -0.356274,-1.374202 -0.669722,-0.858925 -0.634271,-0.875216 0.303953,-0.139681 0.95548,0.749063 0.96862,1.915756 0.02157,1.915756 -0.204119,0 -0.190283,-0.180843 0.03075,-0.401873 z m 28.955157,-2.116941 c 0.414301,-0.417402 0.90712,-0.605059 1.095166,-0.417015 0.188046,0.188044 -0.150924,0.529555 -0.753264,0.758913 -0.870451,0.331449 -0.940602,0.261295 -0.341902,-0.341898 z M 34.029223,16.787458 c 0.44089,-0.17643 0.967667,-0.154732 1.170617,0.04822 0.202949,0.20295 -0.15778,0.347301 -0.801618,0.320782 -0.711497,-0.0293 -0.85622,-0.17403 -0.368999,-0.368999 z m 4.886052,0 c 0.44089,-0.17643 0.967667,-0.154732 1.170617,0.04822 0.202949,0.20295 -0.157779,0.347301 -0.801618,0.320782 -0.711497,-0.0293 -0.85622,-0.17403 -0.368999,-0.368999 z m 18.933452,0 c 0.44089,-0.17643 0.967668,-0.154732 1.170617,0.04822 0.202949,0.20295 -0.157779,0.347301 -0.801618,0.320782 -0.711496,-0.0293 -0.856219,-0.17403 -0.368999,-0.368999 z"
         id="path5515" />
      <path
         style="fill:#8c8c8c;fill-opacity:1;stroke-width:0.610757"
         d="m 33.532983,86.830919 c 0,-1.089663 0.412028,-1.223089 3.817228,-1.236086 2.099476,-0.008 4.84788,-0.25391 6.107566,-0.546438 1.259685,-0.292522 2.290337,-0.304486 2.290337,-0.02657 0,0.277907 0.618391,0.715117 1.374202,0.97158 1.170401,0.397138 0.92131,0.575705 -1.679581,1.204039 -1.67958,0.405756 -5.046375,0.76413 -7.481767,0.796372 -4.040357,0.05348 -4.427985,-0.04832 -4.427985,-1.162899 z m 7.329078,0 c 0,-0.335916 -0.945721,-0.610757 -2.101602,-0.610757 -1.155882,0 -2.271464,0.274841 -2.479072,0.610757 -0.227964,0.368854 0.604415,0.610756 2.101603,0.610756 1.363489,0 2.479071,-0.27484 2.479071,-0.610756 z m -7.329078,-3.839723 c 0,-1.332787 0.160692,-1.381055 3.51185,-1.054856 1.931518,0.18801 3.884743,0.576035 4.340502,0.862279 1.41578,0.889206 -0.45338,1.569571 -4.340502,1.579923 -3.254231,0.0087 -3.51185,-0.0931 -3.51185,-1.387346 z m 6.718322,0.175184 c 0,-0.335917 -0.961942,-0.610757 -2.137648,-0.610757 -1.175706,0 -2.137648,0.27484 -2.137648,0.610757 0,0.335916 0.961942,0.610756 2.137648,0.610756 1.175706,0 2.137648,-0.27484 2.137648,-0.610756 z m -1.272409,-2.071033 c -0.139966,-0.131319 -1.491264,-0.392191 -3.002887,-0.579718 -1.511622,-0.187527 -2.785059,-0.354923 -2.82986,-0.371993 -0.0448,-0.01704 -0.229432,-0.596899 -0.410292,-1.288507 -0.27886,-1.066369 -0.08084,-1.228806 1.302969,-1.068824 0.897493,0.103755 1.631805,0.509291 1.631805,0.901195 0,1.152437 0.942842,1.759352 1.452377,0.93491 0.350494,-0.567112 0.753917,-0.44628 1.588342,0.475755 0.923921,1.020916 1.136223,1.8122 0.267546,0.997182 z M 38.1075,76.438096 c -0.210994,-0.341394 -0.593668,-0.490907 -0.850387,-0.332245 -0.256719,0.158662 -0.466762,-0.112837 -0.466762,-0.60333 0,-0.737714 0.193474,-0.716717 1.119721,0.121522 1.11252,1.00682 1.366167,1.434771 0.850387,1.434771 -0.148134,0 -0.441965,-0.279323 -0.652959,-0.620718 z m -8.271935,-2.219471 c -1.483106,-1.570945 -1.743984,-2.086045 -0.883256,-1.743984 0.671832,0.266998 1.682852,0.504613 2.246711,0.528041 0.56386,0.02339 1.001197,0.189824 0.971862,0.369783 -0.147486,0.904732 0.960815,2.407468 1.520466,2.061584 0.374383,-0.231385 0.459814,-0.10287 0.205336,0.308884 -0.748046,1.210367 -1.880733,0.785219 -4.061119,-1.524308 z m 8.537245,0.549852 -1.480666,-1.67958 1.67958,1.480663 c 0.92377,0.814371 1.679581,1.570182 1.679581,1.67958 0,0.479005 -0.49459,0.08916 -1.878495,-1.480663 z m 19.183263,-0.4312 c 0,-0.4891 0.233517,-0.744946 0.518927,-0.568553 0.285409,0.176392 0.360803,0.57656 0.16754,0.889267 -0.493873,0.799102 -0.686467,0.709125 -0.686467,-0.320714 z m 3.122686,0.225296 c -0.225697,-0.36519 -0.163392,-0.910943 0.138457,-1.212792 0.324582,-0.32458 0.548815,-0.05332 0.548815,0.663978 0,1.38778 -0.112997,1.478007 -0.687272,0.548814 z m 9.703199,-0.225296 c 0,-0.4891 0.233517,-0.744946 0.51893,-0.568553 0.285406,0.176392 0.360804,0.57656 0.167536,0.889267 -0.49387,0.799102 -0.686466,0.709125 -0.686466,-0.320714 z m 3.122689,0.225296 c -0.225699,-0.36519 -0.16339,-0.910943 0.138458,-1.212792 0.324581,-0.32458 0.548814,-0.05332 0.548814,0.663978 0,1.38778 -0.112996,1.478007 -0.687272,0.548814 z M 6.0701257,71.192253 C 2.9950966,66.344386 1.0928684,59.374499 1.0796029,52.906654 1.0656965,46.126327 2.3514886,40.820994 5.2916193,35.52737 11.636725,24.103183 23.27494,17.169947 36.287472,17.062207 c 6.460377,-0.05349 12.158733,1.137451 11.072627,2.314149 -0.382718,0.414639 -0.901981,0.629097 -1.153918,0.476573 -0.251937,-0.152526 -0.458067,-0.0152 -0.458067,0.305163 0,0.360474 -0.872945,0.379766 -2.290337,0.05062 -3.111581,-0.722577 -9.661753,-0.69427 -13.65866,0.05903 -5.725959,1.079173 -11.821979,4.426586 -16.401931,9.006537 -10.4458155,10.44581 -12.76659533,24.960848 -6.1242901,38.303627 2.0933594,4.205053 2.3067932,4.9904 1.5593732,5.73782 -0.7474207,0.747419 -1.1254796,0.456778 -2.7621434,-2.123473 z M 4.8274261,64.578066 c 0,-0.482009 -0.2743257,-1.597904 -0.6096128,-2.479776 -0.9061488,-2.383354 -1.839785,-1.312442 -1.0628321,1.219101 0.6570892,2.140995 1.6724449,2.906358 1.6724449,1.260675 z M 3.2017969,47.927261 c 0.398115,-2.453294 0.2277019,-2.968315 -0.7767625,-2.347522 -0.7765739,0.47995 -0.8845594,4.605788 -0.1205473,4.605788 0.2919641,0 0.6957535,-1.01622 0.8973098,-2.258266 z M 8.725168,33.652816 c 0.6090293,-1.031005 0.9243306,-2.057551 0.7006685,-2.281212 -0.4821783,-0.482178 -2.7329828,2.291767 -2.75256,3.39232 -0.023685,1.331458 0.90661,0.827698 2.0518915,-1.111108 z M 21.620546,22.09507 c 0.55599,-0.899611 -0.710366,-0.751488 -2.796019,0.327046 -1.00205,0.51818 -1.659905,1.204273 -1.4619,1.524651 0.383368,0.620304 3.592726,-0.775392 4.257919,-1.851697 z m 14.849158,-3.714689 c -0.12037,-0.36111 -0.418114,-0.635951 -0.661653,-0.610757 -0.243539,0.02519 -1.26732,0.04581 -2.275068,0.04581 -1.007748,0 -1.83227,0.27484 -1.83227,0.610756 0,0.335916 1.122266,0.610757 2.493923,0.610757 1.507164,0 2.40733,-0.259779 2.275068,-0.656563 z m 4.925209,53.94507 c -0.759702,-0.968696 -0.7381,-0.990299 0.230594,-0.230597 0.587853,0.461029 1.068824,0.942 1.068824,1.068824 0,0.502677 -0.501545,0.179141 -1.299418,-0.838227 z M 9.377423,68.816349 C 6.5729731,64.030919 5.3102363,59.902928 4.9861224,54.460823 4.4170183,44.905155 7.3905288,37.168885 14.263872,30.322626 c 4.585276,-4.567207 8.723151,-6.957857 14.768481,-8.532466 3.993929,-1.040286 13.051221,-1.255552 13.051221,-0.31019 0,0.335916 -0.29106,0.610756 -0.646801,0.610756 -0.355741,0 -0.505695,0.228315 -0.333232,0.507368 0.172464,0.279051 -1.254228,0.567737 -3.170427,0.641524 -5.316828,0.204733 -11.415951,1.658778 -14.911275,3.55488 C 8.1580751,34.857621 2.9612722,53.815026 11.78359,67.79048 c 1.540757,2.440718 1.552004,2.529741 0.397687,3.147509 -1.030215,0.551355 -1.402436,0.269704 -2.803854,-2.12164 z M 8.2519313,62.045325 C 8.0480339,61.51398 7.8812088,60.689458 7.8812088,60.213058 c 0,-0.476401 -0.4122607,-0.866183 -0.9161348,-0.866183 -1.0823756,0 -1.0926187,0.06705 -0.320495,2.097887 0.3276017,0.861662 0.9066875,1.566652 1.2868572,1.566652 0.3801696,0 0.5243925,-0.434736 0.3204951,-0.966089 z M 7.2704522,47.095699 c 0,-0.987924 -0.2428001,-1.796224 -0.5395563,-1.796224 -0.6122598,0 -1.3338622,3.103846 -0.8889612,3.823711 0.578572,0.936149 1.4285175,-0.270173 1.4285175,-2.027487 z M 12.440441,35.169 c 0.569348,-0.868935 0.85214,-1.762167 0.628426,-1.984959 -0.43428,-0.432488 -2.744632,2.111132 -2.744632,3.021748 0,1.058121 1.095114,0.521594 2.116206,-1.036789 z m 10.439298,-9.05842 c 0.651529,-0.476409 1.014416,-1.036381 0.806416,-1.24438 -0.477403,-0.477403 -3.589816,0.907959 -3.589816,1.597858 0,0.793278 1.470509,0.606531 2.7834,-0.353478 z m 14.317783,-4.019854 c 0,-0.335916 -0.808301,-0.610756 -1.796224,-0.610756 -0.987924,0 -1.966085,0.27484 -2.173693,0.610756 -0.224638,0.363473 0.502621,0.610757 1.796224,0.610757 1.195531,0 2.173693,-0.27484 2.173693,-0.610757 z m -9.954756,48.16266 c -5.505178,-2.83369 -9.957805,-9.534974 -10.623943,-15.989229 -0.68987,-6.684202 3.020485,-14.233675 8.974325,-18.260088 3.526416,-2.384815 5.673211,-3.142903 3.053783,-1.078369 -1.111057,0.875693 -1.321537,1.337645 -0.772857,1.696228 0.58431,0.38187 0.540536,0.797603 -0.194478,1.846982 -0.521682,0.744805 -1.204982,1.195685 -1.518444,1.001955 -0.793143,-0.490189 -4.016118,3.171459 -5.517352,6.268308 -3.211767,6.625454 -0.283547,17.13647 5.825871,20.912301 1.671699,1.033162 3.82907,4.086749 3.268951,4.626933 -0.09656,0.09312 -1.219691,-0.36814 -2.495856,-1.025021 z m -2.099855,-3.698802 c -1.074501,-1.074498 -2.146758,-1.760518 -2.382792,-1.524479 -0.592615,0.592611 2.216314,3.478118 3.385815,3.478118 0.651269,0 0.33542,-0.615197 -1.003023,-1.953639 z M 18.934824,55.920005 c -0.401896,-2.472514 -1.69253,-2.689674 -1.41253,-0.237669 0.257393,2.254029 0.667648,3.171686 1.255527,2.808357 0.287309,-0.177567 0.35796,-1.334376 0.157003,-2.570688 z m 1.951454,-11.941563 c 0.698421,-1.226866 0.883239,-2.136145 0.510042,-2.509342 -0.373197,-0.373196 -0.936077,0.0931 -1.553385,1.286841 -1.7681,3.419128 -0.831722,4.516296 1.043343,1.222501 z M 21.447126,69.89693 C 19.895245,69.705238 18.965474,68.998642 17.356528,66.788198 12.482192,60.091622 11.401631,50.031635 14.76708,42.680526 17.667172,36.34589 24.735824,30.629785 31.48988,29.15754 c 1.9579,-0.426782 3.28812,0.408937 1.958698,1.230564 -0.474208,0.293077 -0.565174,0.152992 -0.270048,-0.415865 0.24477,-0.471797 0.0212,-0.336352 -0.496825,0.300989 -0.518025,0.637341 -0.770781,1.435618 -0.561682,1.773948 0.217247,0.351511 0.07451,0.42623 -0.333055,0.174341 -1.207181,-0.746079 -7.196972,2.444591 -10.169539,5.417158 -2.790779,2.790779 -5.778893,8.12219 -5.790419,10.331299 -0.0046,0.88725 -0.189701,0.991121 -0.825607,0.463366 -1.119415,-0.929032 -1.623385,-0.258673 -1.623385,2.159358 0,2.437916 1.187204,2.763091 1.300749,0.356275 0.04358,-0.92377 0.315289,0.381722 0.603795,2.901093 0.635267,5.54743 3.32871,11.283104 6.749951,14.37399 1.288452,1.164041 2.135719,2.07245 1.882814,2.018691 -0.252905,-0.05375 -1.363595,-0.20938 -2.468201,-0.345817 z m -3.793813,-5.635267 c 0,-1.018925 -1.39776,-3.693275 -1.930305,-3.693275 -0.705548,0 -0.642099,0.880082 0.196071,2.719668 0.69748,1.5308 1.734234,2.112839 1.734234,0.973607 z M 19.29353,39.085446 c 0.777461,-0.730387 1.413566,-1.743749 1.413566,-2.251915 0,-0.639972 -0.563136,-0.38442 -1.83227,0.831487 -1.756545,1.682877 -2.30457,2.748404 -1.413566,2.748404 0.230287,0 1.054809,-0.597589 1.83227,-1.327976 z m 10.483775,-7.282362 c 1.748465,-0.609518 2.669533,-1.772523 1.403791,-1.772523 -1.179018,0 -4.366435,1.381138 -4.366435,1.892017 0,0.720289 0.626078,0.695037 2.962644,-0.119494 z M 13.806585,68.644348 C 11.936616,66.578055 9.7425718,60.813896 9.0476933,56.14186 8.462034,52.204166 8.5097218,50.741522 9.3442492,47.046122 12.120042,34.754532 21.637758,26.24415 34.157571,24.858985 l 3.956086,-0.437692 -1.526891,1.517387 c -1.068271,1.061621 -2.444131,1.616456 -4.580674,1.847222 -1.679581,0.18141 -2.572812,0.190838 -1.984959,0.02095 0.587853,-0.169884 1.068824,-0.681805 1.068824,-1.1376 0,-0.644221 -0.441011,-0.702237 -1.980927,-0.260594 -1.089509,0.312467 -2.051451,0.568122 -2.137647,0.568122 -0.0862,0 -0.156722,0.27484 -0.156722,0.610756 0,0.335916 0.480971,0.617826 1.068824,0.626467 0.587853,0.0086 -0.305378,0.71869 -1.984959,1.577887 -4.403606,2.252686 -6.717168,4.160382 -9.47441,7.812322 -3.317722,4.394291 -4.861583,9.158449 -4.949216,15.272645 -0.03897,2.71872 -0.203065,4.393447 -0.364662,3.721614 C 10.54858,54.2634 9.7134784,54.168817 9.7134784,56.440275 c 0,2.284964 1.0166566,3.615534 1.7973596,2.35233 0.261491,-0.423102 0.719799,0.225535 1.1324,1.602675 0.381217,1.272391 1.664231,3.961876 2.851141,5.97664 1.488421,2.526565 1.692778,3.102075 0.658613,1.854794 -1.601092,-1.931047 -2.924604,-1.687075 -1.677855,0.309287 0.929164,1.487827 0.624539,1.537195 -0.668552,0.108348 z M 11.882291,45.013713 c 1.090074,-2.608913 1.092377,-2.768021 0.04007,-2.768021 -0.838493,0 -1.573775,1.765485 -1.589784,3.817228 -0.01302,1.668347 0.582794,1.264963 1.549716,-1.049207 z m 6.800482,-10.814319 c 1.551006,-1.457095 1.810524,-2.336563 0.689485,-2.336563 -0.838677,0 -3.551214,2.413903 -3.551214,3.160246 0,0.929727 1.434945,0.51671 2.861729,-0.823683 z m 20.550604,33.419561 c 0,-0.4891 0.233517,-0.744946 0.518927,-0.568553 0.285409,0.176393 0.360803,0.57656 0.16754,0.889268 -0.493873,0.799101 -0.686467,0.709125 -0.686467,-0.320715 z M 26.814661,63.658217 c 0,-0.316091 0.271693,-0.742631 0.603761,-0.947857 0.346214,-0.213973 0.448605,0.03121 0.240034,0.57471 -0.406025,1.058086 -0.843795,1.251678 -0.843795,0.373147 z m 0.36829,-14.18524 c 0.173006,-0.279929 0.573177,-0.508963 0.889268,-0.508963 0.316092,0 0.574712,0.229034 0.574712,0.508963 0,0.279931 -0.400171,0.508965 -0.889268,0.508965 -0.489099,0 -0.747718,-0.229034 -0.574712,-0.508965 z M 25.593148,42.55107 c 0,-1.623594 0.111808,-2.837473 0.248461,-2.697508 0.472311,0.483756 0.629887,4.77115 0.19147,5.209568 -0.241962,0.241962 -0.439931,-0.888465 -0.439931,-2.51206 z m 52.161656,-6.565632 -1.163486,-1.374203 1.374203,1.163484 c 0.755811,0.639916 1.374202,1.258307 1.374202,1.374202 0,0.48876 -0.491531,0.127928 -1.584919,-1.163483 z m -24.05813,-0.100339 c 0.395537,-0.395538 0.808525,-0.395538 1.204062,0 0.395538,0.395537 0.189044,0.602032 -0.602031,0.602032 -0.791075,0 -0.997569,-0.206495 -0.602031,-0.602032 z m -14.056126,-1.19908 c 0,-0.126827 0.480971,-0.607798 1.068824,-1.068823 0.968694,-0.759703 0.990297,-0.7381 0.230594,0.230594 -0.797873,1.017366 -1.299418,1.340903 -1.299418,0.838229 z m 0.916135,-2.823188 c 0.608,-0.671832 1.242874,-1.221513 1.410832,-1.221513 0.167959,0 -0.192076,0.549681 -0.800075,1.221513 -0.608,0.671832 -1.242875,1.221513 -1.410833,1.221513 -0.167958,0 0.192077,-0.549681 0.800076,-1.221513 z M 35.976009,31.02148 c 0,-0.126827 0.480971,-0.607798 1.068824,-1.068824 0.968694,-0.759702 0.990297,-0.7381 0.230594,0.230595 -0.797873,1.017366 -1.299418,1.340903 -1.299418,0.838229 z m 50.004128,-1.448986 c -0.759702,-0.968694 -0.7381,-0.990297 0.230597,-0.230594 1.017368,0.797873 1.340904,1.299418 0.838227,1.299418 -0.126824,0 -0.607795,-0.480971 -1.068824,-1.068824 z M 59.490136,17.204674 c -0.207608,-0.335916 0.05101,-0.610756 0.574711,-0.610756 0.523699,0 0.95218,0.27484 0.95218,0.610756 0,0.335916 -0.25862,0.610757 -0.574712,0.610757 -0.316091,0 -0.744572,-0.274841 -0.952179,-0.610757 z m 3.244644,-0.417216 c 0.440887,-0.17643 0.967664,-0.154732 1.170618,0.04822 0.202949,0.20295 -0.157782,0.347301 -0.801618,0.320782 -0.7115,-0.0293 -0.856219,-0.17403 -0.369,-0.368999 z"
         id="path5513" />
      <path
         style="fill:#767676;fill-opacity:1;stroke-width:0.610757"
         d="m 46.563061,85.048456 c -2.07115,-0.979818 -3.926322,-1.620899 -4.122607,-1.424614 -0.196284,0.196285 -0.35688,0.09952 -0.35688,-0.215029 0,-0.314545 -1.408833,-1.665844 -3.13074,-3.002882 -1.721907,-1.337044 -4.300648,-3.99775 -5.730536,-5.912691 -1.429888,-1.914936 -2.769459,-3.357848 -2.976825,-3.206472 -0.207366,0.151382 -0.264142,0.116545 -0.126168,-0.07742 C 30.257279,71.01539 29.696977,69.334496 28.87419,67.474028 26.812177,62.811452 25.612889,57.35 25.602176,52.573562 c -0.01007,-4.488834 1.711573,-12.014246 3.591715,-15.699629 0.678136,-1.329255 1.107329,-2.588278 0.953763,-2.797829 -0.153565,-0.209552 -0.09377,-0.241369 0.132883,-0.0707 0.594013,0.447284 2.642434,-2.868766 2.20717,-3.573038 -0.200734,-0.324795 -0.07773,-0.41301 0.273345,-0.196035 0.351075,0.216976 1.085097,-0.287371 1.631162,-1.120772 0.546065,-0.833399 2.347903,-2.586384 4.004085,-3.89552 1.656181,-1.309137 2.888507,-2.548787 2.738501,-2.754778 -0.150006,-0.205993 -0.102249,-0.249849 0.106128,-0.09746 0.208376,0.15239 1.948106,-0.515076 3.866067,-1.48326 4.096162,-2.067736 10.048062,-3.717678 12.944409,-3.588355 1.847863,0.08251 1.884255,0.116542 0.369908,0.345946 -2.541979,0.385078 -2.011472,1.496018 0.610756,1.278992 1.716278,-0.142046 2.249611,-0.438924 2.127849,-1.184462 -0.136062,-0.833106 0.310905,-0.951167 2.748407,-0.725959 1.600988,0.147919 4.185423,0.546903 5.743188,0.886629 2.276051,0.496374 2.776169,0.832342 2.546482,1.710674 -0.182158,0.696565 0.11969,1.209124 0.832235,1.413185 0.614934,0.176107 1.599034,0.518202 2.186887,0.76021 0.738191,0.3039 1.068824,0.156884 1.068824,-0.475253 0,-0.503398 -0.719532,-1.095859 -1.59896,-1.316582 -0.879429,-0.220722 -1.432218,-0.568055 -1.228421,-0.771851 0.203797,-0.203796 2.228822,0.563433 4.500054,1.704953 4.616397,2.320199 12.375925,9.625368 14.618488,13.762507 l 1.327626,2.449236 -1.633004,-0.245788 C 91.166553,36.72228 90.145185,35.849051 89.111827,34.187039 86.894763,30.621191 81.002092,25.384637 76.845241,23.286266 63.887015,16.744973 48.304759,19.075665 38.196138,29.067145 c -4.375303,4.324601 -8.018403,10.793214 -9.23684,16.400743 -0.454308,2.090828 -0.847863,3.061913 -0.874569,2.157969 -0.07,-2.369548 -1.055209,-2.637234 -1.501084,-0.407855 -0.546444,2.732221 -0.480496,3.136877 0.452855,2.778717 0.640179,-0.24566 0.924402,0.781352 1.229851,4.44395 1.093595,13.113161 9.292576,24.521122 20.685738,28.781882 2.564591,0.959089 3.514347,1.624264 3.514347,2.461324 0,1.610223 -1.497185,1.449069 -5.903375,-0.635419 z m 5.292618,0.545833 c 0,-0.664839 -2.542666,-1.817153 -4.009678,-1.817153 -1.44815,0 -0.990004,0.940809 0.803206,1.649397 2.22383,0.878744 3.206472,0.930152 3.206472,0.167756 z M 38.419035,77.948296 c 0,-0.758865 -3.045524,-3.544349 -3.441877,-3.147998 -0.237085,0.237083 0.213416,1.117079 1.001113,1.955544 1.335662,1.42175 2.440764,1.961653 2.440764,1.192454 z M 29.868444,64.934821 c 0,-1.179017 -1.381137,-4.366433 -1.892017,-4.366433 -0.665388,0 -0.736168,2.05428 -0.09294,2.69751 0.251937,0.251937 0.492423,0.710004 0.534412,1.017923 0.143268,1.05063 0.229347,1.170619 0.83979,1.170619 0.335916,0 0.610757,-0.233828 0.610757,-0.519619 z m 3.62295,-31.181314 c 1.469529,-2.063763 1.553277,-2.501433 0.478651,-2.501433 -0.695451,0 -2.880088,2.966968 -2.880088,3.911464 0,0.932902 1.259866,0.193157 2.401437,-1.410031 z M 88.555905,30.133019 C 87.730498,28.590727 86.234272,27.427 85.424,27.697092 c -0.914351,0.304782 1.679892,3.554982 2.837508,3.554982 0.676773,0 0.748134,-0.271243 0.294397,-1.119055 z m -43.97085,-6.647085 c 1.749204,-1.033281 2.327101,-2.005964 1.191797,-2.005964 -1.272862,0 -3.693278,1.465171 -3.693278,2.235683 0,1.065966 0.364769,1.032468 2.501481,-0.229719 z M 49.356211,82.01186 C 42.879964,79.478058 35.849087,72.816725 32.820909,66.345656 31.790053,64.142767 31.116295,62.170732 31.32367,61.963362 c 0.207373,-0.207376 0.377043,-0.0564 0.377043,0.335501 0,0.391904 0.273116,0.712551 0.606925,0.712551 0.333808,0 0.491652,-0.618391 0.350764,-1.374202 -0.140889,-0.755811 -0.276584,-1.580333 -0.301547,-1.83227 -0.09292,-0.937787 -1.266898,-0.418988 -1.266898,0.559861 0,2.321658 -0.752218,0.01779 -1.216491,-3.725834 -0.780164,-6.290784 0.195159,-12.072033 2.994916,-17.752438 10.415183,-21.131285 38.621843,-24.298227 53.601013,-6.018128 2.167954,2.645705 2.229097,2.836376 1.160169,3.617995 -1.010466,0.738871 -1.302701,0.584485 -2.796196,-1.477223 C 78.912774,26.836027 67.548073,22.178915 57.368775,23.754524 42.691209,26.026399 32.31147,37.987178 32.31147,52.628553 c 0,11.24451 6.113765,21.132243 15.970098,25.828295 3.243386,1.545312 4.123408,2.252495 4.150494,3.335329 0.0189,0.755812 -0.03434,1.361346 -0.118316,1.345637 -0.08398,-0.0157 -1.41487,-0.522392 -2.957535,-1.125954 z m 2.499468,-0.579711 c 0,-0.443978 -2.608677,-1.930309 -3.387899,-1.930309 -0.813904,0 -0.114555,1.785058 0.792184,2.022014 1.80518,0.471748 2.595715,0.443812 2.595715,-0.09171 z M 40.251305,74.099693 c 0,-0.816496 -2.406542,-2.777758 -2.85641,-2.327887 -0.223243,0.223238 0.121993,0.938129 0.76719,1.588639 1.263731,1.274136 2.08922,1.566224 2.08922,0.739248 z M 31.87872,47.898669 c 0.358979,-1.877879 0.02278,-2.795378 -0.830965,-2.267734 -0.723767,0.447313 -0.749477,3.943835 -0.029,3.943835 0.296755,0 0.683739,-0.754245 0.859963,-1.676101 z m 5.929559,-13.99285 c 0,-1.212997 -1.084336,-0.997489 -1.810781,0.359886 -1.056135,1.973407 -0.752371,2.78121 0.589268,1.567043 0.671832,-0.607999 1.221513,-1.475118 1.221513,-1.926929 z m 47.346689,-2.028556 c -1.250689,-1.381996 -2.150706,-1.59985 -2.150706,-0.520591 0,1.264457 1.989607,3.036149 2.658464,2.367291 0.407174,-0.407171 0.237921,-1.022737 -0.507758,-1.8467 z M 47.841176,26.04753 c 0.64731,-0.489719 0.992022,-1.075305 0.766026,-1.3013 -0.544915,-0.544916 -3.469845,0.809461 -3.469845,1.606698 0,0.887527 1.324806,0.737889 2.703819,-0.305398 z m 27.223251,-0.881532 c 0,-0.642364 -1.969348,-1.853758 -3.013631,-1.853758 -1.133876,0 -0.703836,1.009322 0.723294,1.6976 1.763346,0.85043 2.290337,0.886361 2.290337,0.156158 z M 61.627783,22.090726 c 0,-0.335916 -0.824521,-0.610756 -1.832269,-0.610756 -1.007748,0 -1.83227,0.27484 -1.83227,0.610756 0,0.335917 0.824522,0.610757 1.83227,0.610757 1.007748,0 1.832269,-0.27484 1.832269,-0.610757 z M 48.19114,77.022047 C 41.406989,73.292028 36.362091,66.898134 34.469217,59.6309 29.29734,39.774722 46.976782,21.147538 66.987569,25.369335 c 5.79892,1.223433 9.985759,3.521969 14.458268,7.937451 3.407277,3.363837 3.562165,3.63848 2.492901,4.420347 -1.023915,0.748702 -1.353046,0.584883 -3.229613,-1.607463 -2.678718,-3.129473 -6.75592,-5.926213 -10.626773,-7.289382 -2.334721,-0.822199 -2.794663,-1.174651 -1.95392,-1.497273 0.935239,-0.358885 0.965209,-0.506921 0.200554,-0.990496 -1.202891,-0.760722 -4.258176,-0.743859 -4.258176,0.0235 0,0.335916 0.618391,0.653855 1.374202,0.706531 0.755811,0.05268 -1.374202,0.277671 -4.733363,0.499989 -6.672104,0.441576 -10.486381,1.740859 -14.469654,4.928894 -2.433893,1.947981 -3.557724,2.372241 -2.313902,0.873527 1.392165,-1.677456 -0.01734,-1.799541 -1.560625,-0.135174 -1.71447,1.848979 -1.922415,2.578291 -0.589272,2.066716 1.264442,-0.485212 1.148784,0.431758 -0.2095,1.660988 -1.840343,1.665487 -4.353603,7.22812 -5.114613,11.320241 -0.914285,4.916317 0.0465,10.934852 2.531447,15.857513 2.051522,4.064041 8.052194,9.974393 11.330315,11.15978 1.182825,0.427713 2.150591,1.004346 2.150591,1.28141 0,0.277057 -0.808924,0.08543 -1.797609,-0.425832 -1.072272,-0.554493 -1.943095,-0.69418 -2.158169,-0.346183 -0.198308,0.320867 0.679326,1.132233 1.950298,1.803039 1.270972,0.6708 2.036017,1.226802 1.700101,1.235567 -0.335916,0.0087 -2.122379,-0.815183 -3.969917,-1.830981 z m -6.107566,-6.647499 c 0,-0.945634 -2.914543,-4.039208 -3.373831,-3.581073 -0.23318,0.232601 0.174415,1.263252 0.905766,2.290337 1.301666,1.828025 2.468065,2.438024 2.468065,1.290736 z M 35.976009,57.869935 c 0,-1.786544 -0.57279,-3.409112 -1.203467,-3.409112 -0.254112,0 -0.397204,0.618391 -0.31798,1.374202 0.07922,0.755811 0.179117,1.855173 0.221988,2.443026 0.119569,1.639565 1.299459,1.269003 1.299459,-0.408116 z M 36.535035,45.18534 c 0.395803,-1.135403 0.452314,-2.172611 0.135625,-2.489299 -0.479566,-0.479567 -1.916164,2.456423 -1.916164,3.916086 0,1.273049 1.16473,0.339724 1.780539,-1.426787 z M 79.950479,33.029555 c 0,-0.837408 -2.492564,-2.951545 -3.51185,-2.978674 -1.214245,-0.03232 -0.895521,0.741788 0.916135,2.22511 1.872964,1.533517 2.595715,1.743339 2.595715,0.753564 z M 54.601075,27.588679 c 2.383352,-0.906149 1.312439,-1.839785 -1.219104,-1.062832 -1.175377,0.360733 -2.137049,0.884606 -2.137049,1.164162 0,0.683527 1.403256,0.64116 3.356153,-0.10133 z m 12.445609,47.179798 c -0.759702,-0.968696 -0.738099,-0.990299 0.230597,-0.230597 0.587854,0.46103 1.068824,0.942 1.068824,1.068824 0,0.502677 -0.501547,0.179141 -1.299421,-0.838227 z M 48.768782,72.882431 c -4.335837,-2.767864 -9.942555,-9.392391 -6.990586,-8.259615 1.154855,0.443159 1.151805,0.0049 -0.01568,-2.252489 -0.958089,-1.85274 -2.083529,-2.390897 -2.171785,-1.038493 -0.142351,2.181317 -1.777092,-3.668194 -2.031073,-7.267686 -0.162372,-2.301199 -0.151666,-3.549768 0.0238,-2.774598 0.475635,2.10135 1.724396,1.26258 1.941281,-1.303924 0.191591,-2.267195 -0.779737,-3.147694 -1.295439,-1.174301 -0.213648,0.817547 -0.295969,0.75114 -0.350162,-0.282467 -0.03897,-0.74321 0.502136,-2.882728 1.202449,-4.754484 1.785744,-4.772837 6.865816,-10.110244 12.053587,-12.664176 3.799554,-1.870514 4.457281,-1.995771 10.479775,-1.995771 5.871378,0 6.741956,0.154849 10.090325,1.794752 3.423724,1.67681 10.077483,7.479378 10.077483,8.788311 0,0.321885 -0.443397,0.755392 -0.985327,0.963349 -0.673879,0.258592 -1.745824,-0.485868 -3.391312,-2.355238 -1.466945,-1.666541 -3.997444,-3.516816 -6.483595,-4.740745 -3.708539,-1.825709 -4.583087,-2.007403 -9.662196,-2.007403 -4.535242,0 -5.522941,-0.160628 -5.256538,-0.854862 0.256349,-0.668034 -0.06097,-0.758698 -1.451963,-0.414848 -2.173939,0.537392 -3.343046,1.602921 -2.212299,2.016298 0.465315,0.170109 -0.286668,0.97554 -1.832269,1.9625 -6.685902,4.269355 -9.73798,9.440088 -10.117355,17.140499 -0.362883,7.365679 1.124714,11.208054 6.329561,16.348877 2.131826,2.105608 3.311527,3.526252 2.621556,3.156989 -1.877946,-1.005043 -2.27105,-0.04966 -0.529991,1.288049 1.860737,1.429677 3.314757,1.556616 2.81162,0.245463 -0.208571,-0.543525 -0.10618,-0.788683 0.240034,-0.57471 0.721054,0.445632 0.81535,2.74408 0.112579,2.74408 -0.270151,0 -1.713063,-0.780009 -3.206472,-1.733357 z M 44.496068,38.624032 c 0.700788,-0.984166 1.016351,-1.948726 0.701252,-2.143468 -0.57618,-0.356099 -3.113746,2.418392 -3.113746,3.404468 0,1.086352 1.180349,0.469389 2.412494,-1.261 z M 79.209394,37.24063 c -1.113287,-1.676704 -2.726088,-2.724968 -3.303741,-2.147317 -0.580683,0.580685 2.177951,3.48784 3.309653,3.48784 0.769919,0 0.769156,-0.173209 -0.0061,-1.340523 z M 68.956862,30.946696 c 0,-0.503874 -0.240486,-0.916135 -0.534412,-0.916135 -0.293927,0 -1.393288,-0.171775 -2.443026,-0.381722 -2.58248,-0.516497 -2.517734,0.781676 0.07634,1.53069 2.78268,0.80347 2.901094,0.793967 2.901094,-0.232833 z m -20.569908,36.70546 c -1.644543,-1.478587 -3.804282,-4.158281 -4.799418,-5.954876 -1.649982,-2.978839 -1.809081,-3.777567 -1.806405,-9.068727 0.0026,-5.096517 0.200203,-6.176575 1.624921,-8.880489 1.983878,-3.765124 6.347843,-7.890943 10.174605,-9.61937 4.353673,-1.966414 11.541637,-1.85918 16.01483,0.238919 4.021661,1.886311 7.179877,4.54592 8.740152,7.360288 l 1.13357,2.044682 -1.536889,-1.832269 c -1.993772,-2.376965 -2.775156,-1.593109 -1.105292,1.108789 2.021921,3.271537 1.512141,3.315138 -0.729439,0.06239 -2.622753,-3.80587 -6.888515,-6.707611 -11.16612,-7.595637 -4.24751,-0.88178 -5.847348,-0.488269 -9.206874,2.26461 -3.037903,2.489334 -3.726459,4.303182 -2.63438,6.939693 0.833428,2.012074 0.25995,3.358275 -0.699937,1.643054 -0.855267,-1.528279 -1.899881,-1.311771 -1.497947,0.310466 0.218544,0.882062 0.02442,0.718015 -0.542052,-0.458068 -0.485392,-1.007748 -0.906097,-2.794211 -0.9349,-3.969917 l -0.05237,-2.137648 -1.828184,2.137648 c -5.10427,5.968288 -4.653754,15.6125 1.02433,21.927894 1.53943,1.712219 3.147642,3.113124 3.573805,3.113124 0.497163,0 0.67024,0.547189 0.482958,1.526891 -0.160536,0.83979 -0.504959,1.526891 -0.765385,1.526891 -0.260425,0 -1.819036,-1.209749 -3.463579,-2.688336 z m 2.857968,0.289639 c 0,-0.311535 -0.749237,-1.155777 -1.664971,-1.876097 -1.175696,-0.924802 -1.739613,-1.085742 -1.918967,-0.547684 -0.139696,0.419089 0.365149,1.263331 1.121878,1.876097 1.504359,1.218154 2.46206,1.431198 2.46206,0.547684 z M 43.907504,57.361916 c -0.01634,-1.495917 -0.753638,-3.51185 -1.284406,-3.51185 -0.619324,0 -0.715459,1.884641 -0.168801,3.309209 0.440574,1.148118 1.465096,1.290981 1.453207,0.202641 z m 1.556642,-13.325358 c 1.392826,-2.693429 0.71479,-3.714721 -0.812123,-1.223261 -1.10912,1.809748 -1.279712,3.096934 -0.41044,3.096934 0.139507,0 0.68966,-0.843153 1.222563,-1.873673 z m 8.524857,-6.669923 c 0.213972,-0.346213 -0.03118,-0.448605 -0.574711,-0.240034 -1.058085,0.406026 -1.251677,0.843795 -0.373145,0.843795 0.316092,0 0.742627,-0.271692 0.947856,-0.603761 z m 1.131184,-1.381197 c -0.155548,-0.251938 0.145666,-0.458068 0.669364,-0.458068 0.523699,0 0.95218,-0.41226 0.95218,-0.916135 0,-1.13141 -0.133311,-1.132017 -2.811976,-0.0128 -2.352648,0.982998 -2.351957,2.074557 0.0012,1.933381 0.809614,-0.04857 1.344758,-0.294443 1.18921,-0.54638 z m 14.447431,-0.473185 c 0,-0.664837 -2.542665,-1.817152 -4.009677,-1.817152 -1.592353,0 -0.910846,1.03375 1.108584,1.681566 2.65927,0.853072 2.901093,0.864374 2.901093,0.135586 z M 57.274583,64.385616 c -0.759703,-0.968696 -0.7381,-0.990299 0.230594,-0.230597 1.017366,0.797874 1.340903,1.299421 0.83823,1.299421 -0.126828,0 -0.607798,-0.480971 -1.068824,-1.068824 z m 9.824571,-3.542502 c -0.652648,-0.786389 -0.59338,-1.12267 0.349829,-1.984959 1.072269,-0.980272 1.09072,-0.978563 0.330823,0.03065 -0.643988,0.855277 -0.652875,1.251864 -0.04446,1.984958 0.418179,0.503875 0.622904,0.916135 0.454946,0.916135 -0.167958,0 -0.65897,-0.426051 -1.091141,-0.946787 z m -3.106252,-1.34355 c -0.759702,-0.968694 -0.7381,-0.990297 0.230597,-0.230594 0.587853,0.461026 1.068824,0.941996 1.068824,1.068824 0,0.502673 -0.501547,0.179136 -1.299421,-0.83823 z"
         id="path5511" />
      <path
         style="fill:#606060;fill-opacity:1;stroke-width:0.610757"
         d="m 77.067812,90.045776 c 1.60574,-0.126231 4.079304,-0.124704 5.496809,0.0037 1.417511,0.128088 0.103725,0.231367 -2.91952,0.229504 -3.023245,-0.0018 -4.183022,-0.106663 -2.577289,-0.232888 z m 11.667814,-9.592127 c -0.452198,-1.178405 -0.0754,-2.819765 0.68158,-2.969028 0.335916,-0.06624 0.666152,0.566673 0.73386,1.406463 l 0.123098,1.526891 -0.566238,-1.526891 c -0.52508,-1.415886 -0.55282,-1.382588 -0.38157,0.458067 0.196504,2.112137 -0.03671,2.548211 -0.59073,1.104498 z m 5.428599,-1.562565 c 0,-1.511623 0.11911,-2.130014 0.264684,-1.374202 0.14558,0.755811 0.14558,1.992593 0,2.748404 -0.145574,0.755811 -0.264684,0.13742 -0.264684,-1.374202 z m -2.609372,-8.170432 c 0,-0.126824 0.480971,-0.607795 1.068824,-1.068824 0.968697,-0.759702 0.990299,-0.738099 0.230598,0.230597 -0.797874,1.017368 -1.299422,1.340904 -1.299422,0.838227 z m -38.2423,-10.763021 c 0,-4.198951 0.09758,-5.916703 0.216841,-3.817228 0.119263,2.099476 0.119263,5.534981 0,7.634457 -0.119263,2.099475 -0.216841,0.381723 -0.216841,-3.817229 z m 24.395314,-6.412943 c 0.0024,-2.351413 0.1131,-3.238514 0.245316,-1.971337 0.132211,1.267179 0.129994,3.191062 -0.0049,4.275296 -0.134965,1.084235 -0.243142,0.04745 -0.24043,-2.303959 z m 14.379835,1.068824 c -0.759702,-0.968694 -0.738099,-0.990297 0.230597,-0.230594 1.017368,0.797873 1.340904,1.299418 0.838227,1.299418 -0.126824,0 -0.607795,-0.480971 -1.068824,-1.068824 z M 60.40627,54.230228 c 0,-0.126827 0.480971,-0.607798 1.068824,-1.068823 0.968697,-0.759703 0.990299,-0.7381 0.230598,0.230594 -0.797877,1.017366 -1.299422,1.340903 -1.299422,0.838229 z m 0.532852,-3.892012 c -0.759702,-0.968694 -0.7381,-0.990296 0.230594,-0.230594 0.587853,0.461026 1.068824,0.941997 1.068824,1.068824 0,0.502673 -0.501547,0.179137 -1.299418,-0.83823 z m 30.615731,0.227473 c 0,-0.126827 0.480971,-0.607798 1.068824,-1.068824 0.968697,-0.759702 0.990299,-0.7381 0.230598,0.230595 -0.797874,1.017366 -1.299422,1.340903 -1.299422,0.838229 z M 53.576765,46.998625 c 0.325705,-0.325705 1.102355,-0.484054 1.725889,-0.351887 0.83968,0.177983 0.686097,0.331565 -0.592191,0.592192 -1.114521,0.227236 -1.516115,0.142112 -1.133698,-0.240305 z m 7.287573,-0.931128 c 2.435391,-0.115929 6.420578,-0.115929 8.85597,0 2.435391,0.115929 0.442798,0.21078 -4.427985,0.21078 -4.870784,0 -6.863377,-0.09485 -4.427985,-0.21078 z"
         id="path5509" />
      <path
         style="fill:#494949;fill-opacity:1;stroke-width:0.610757"
         d="m 61.197631,90.040976 c 2.618701,-0.114761 6.741307,-0.114065 9.161351,0.0018 2.420037,0.115616 0.27746,0.209514 -4.761281,0.208659 -5.038741,-6.11e-4 -7.018773,-0.09546 -4.40007,-0.210216 z M 57.885339,73.59966 c -0.755253,-0.915542 -0.710146,-0.9479 0.455669,-0.326864 0.711643,0.37909 1.467455,0.515704 1.67958,0.303576 0.212126,-0.212128 0.385682,-0.06503 0.385682,0.326865 0,1.052535 -1.556903,0.865045 -2.520931,-0.303577 z m 12.825884,0 c -0.755249,-0.915542 -0.710145,-0.9479 0.455674,-0.326864 0.711641,0.37909 1.467452,0.515704 1.67958,0.303576 0.212122,-0.212128 0.385681,-0.06503 0.385681,0.326865 0,1.052535 -1.556904,0.865045 -2.520935,-0.303577 z M 56.741731,70.720652 c 0,-0.126824 0.480971,-0.607795 1.068824,-1.068824 0.968694,-0.759702 0.990297,-0.738099 0.230594,0.230597 -0.797873,1.017368 -1.299418,1.340904 -1.299418,0.838227 z m 12.825887,0 c 0,-0.126824 0.480971,-0.607795 1.068824,-1.068824 0.968697,-0.759702 0.990299,-0.738099 0.230598,0.230597 -0.797874,1.017368 -1.299422,1.340904 -1.299422,0.838227 z M 67.831781,52.017796 c 0,-0.83979 0.13863,-1.18334 0.30806,-0.763445 0.16943,0.419895 0.16943,1.106996 0,1.526891 -0.16943,0.419895 -0.30806,0.07635 -0.30806,-0.763446 z m 1.83227,0 c 0,-0.83979 0.138629,-1.18334 0.308059,-0.763445 0.16943,0.419895 0.16943,1.106996 0,1.526891 -0.16943,0.419895 -0.308059,0.07635 -0.308059,-0.763446 z m -3.875489,-2.249485 c 0.440887,-0.17643 0.967665,-0.154732 1.170619,0.04822 0.202948,0.202949 -0.157783,0.347301 -0.801618,0.320781 -0.711501,-0.0293 -0.856219,-0.174029 -0.369001,-0.368999 z m 5.496809,0 c 0.440887,-0.17643 0.967664,-0.154732 1.170619,0.04822 0.202948,0.202949 -0.157783,0.347301 -0.801618,0.320781 -0.711501,-0.0293 -0.85622,-0.174029 -0.369001,-0.368999 z"
         id="path5507" />
      <path
         style="fill:#333333;fill-opacity:1;stroke-width:0.610757"
         d="M 14.398065,98.054669 C 7.7994089,96.027342 3.2369063,88.334345 4.7487607,81.784635 c 0.3780666,-1.637878 1.4138787,-4.217604 2.3018045,-5.732738 1.6905656,-2.884732 5.7953618,-6.112342 6.9029568,-5.427812 0.355304,0.219591 0.646009,0.108196 0.646009,-0.247546 0,-0.823483 6.277057,-0.847406 9.201262,-0.03506 2.29201,0.636701 7.289164,4.508751 7.289164,5.648008 0,0.367272 0.41889,1.130632 0.930867,1.696357 0.52656,0.581844 1.096247,2.799605 1.311632,5.106108 0.342483,3.667581 0.20952,4.415972 -1.322567,7.44409 -2.064641,4.080691 -5.096911,6.710168 -9.123309,7.911411 -3.644571,1.087329 -4.684399,1.075963 -8.488515,-0.09279 z m 2.644492,-5.991161 c 0,-0.96585 -0.442177,-1.626078 -1.263654,-1.886804 -1.537639,-0.488025 -3.616988,-3.742765 -3.620116,-5.666452 -0.0056,-3.409463 3.428932,-6.843943 6.838398,-6.838397 2.135838,0.0037 5.073585,2.072163 5.95107,4.190596 1.241051,2.996164 0.3374,6.047442 -2.686528,9.071371 -2.839921,2.83992 -2.162451,3.540018 1.352045,1.397204 7.944614,-4.843892 4.548069,-17.099913 -4.738946,-17.099913 -9.2870145,0 -12.6835598,12.256021 -4.738945,17.099913 2.563108,1.562748 2.906676,1.531123 2.906676,-0.267518 z m 36.831164,-3.553009 c -1.380937,-1.51977 -1.774965,-7.122881 -0.556566,-7.914403 0.470242,-0.305488 0.443093,-0.6555 -0.09238,-1.190975 -0.918662,-0.918663 -1.005584,-2.957063 -0.126095,-2.957063 0.416745,0 0.434093,-0.370253 0.05089,-1.086261 -0.766522,-1.432261 -0.747155,-6.956658 0.02766,-7.89026 0.36,-0.433772 0.526483,-3.96745 0.407172,-8.642382 -0.165492,-6.48443 -0.394307,-8.120894 -1.270662,-9.087637 -0.587853,-0.648486 -1.060466,-1.569685 -1.050251,-2.047109 0.0134,-0.626262 0.19197,-0.570336 0.641105,0.200781 0.752959,1.292752 1.783349,1.402596 1.783349,0.190112 0,-1.278844 3.899114,-1.695923 13.661884,-1.461377 10.079517,0.242155 10.147775,0.288337 10.176193,6.884808 0.01472,3.412884 0.15738,4.072293 0.68472,3.164494 0.40432,-0.696032 0.552789,-3.096567 0.377746,-6.107565 -0.241878,-4.160509 -0.08893,-5.343989 0.948078,-7.33602 0.680059,-1.306365 1.7385,-2.506492 2.352084,-2.666948 0.613585,-0.160456 1.115608,-0.662274 1.115608,-1.115151 0,-0.998126 2.232407,-2.290163 3.066407,-1.774724 0.328972,0.203317 0.598132,0.06239 0.598132,-0.313179 0,-0.375566 0.255852,-0.524723 0.568554,-0.331461 0.312707,0.193262 0.749434,0.05872 0.97051,-0.29899 0.281204,-0.454997 0.652031,-0.442831 1.234406,0.0405 0.457848,0.37998 1.379565,0.517227 2.048258,0.304992 0.878304,-0.278763 1.929618,0.258246 3.787215,1.934498 3.973259,3.585378 4.216944,4.635261 4.216944,18.168073 0,13.190249 -0.532885,15.81936 -3.657295,18.044133 -1.404184,0.999869 -1.732234,1.757049 -1.962086,4.528741 -0.339147,4.089663 -2.573166,7.310273 -6.219468,8.966126 -2.233916,1.014466 -4.185771,1.143116 -17.523692,1.155038 -14.796739,0.01319 -15.02748,-0.0061 -16.258426,-1.36079 z M 74.920466,88.15433 c 0.601662,-0.381918 0.736535,-4.796839 0.610756,-19.992925 L 75.369805,48.658636 h -9.772104 -9.772105 l -0.161419,19.502769 c -0.125775,15.196086 0.0091,19.611007 0.610756,19.992925 0.424697,0.269582 4.619943,0.490151 9.322768,0.490151 4.702825,0 8.898069,-0.220569 9.322765,-0.490151 z M 58.286579,83.560415 c -1.689129,-1.23512 -0.953547,-3.14244 1.211921,-3.14244 1.409565,0 1.867012,0.302795 2.013658,1.332879 0.253412,1.780025 -1.738072,2.897251 -3.225579,1.809561 z m 5.893825,-0.567362 c -0.958967,-1.155478 0.478827,-3.091943 2.068424,-2.785819 1.703174,0.328006 1.624973,3.201109 -0.09382,3.446688 -0.701222,0.100189 -1.589799,-0.197201 -1.974606,-0.660869 z m 6.218839,-0.132052 c -0.534601,-1.393148 0.213667,-2.748404 1.517449,-2.748404 1.514395,0 2.661585,1.407641 2.176791,2.670991 -0.47898,1.248209 -3.222901,1.305706 -3.69424,0.07741 z M 57.668234,77.681029 c -0.896176,-0.990263 -0.955255,-1.378545 -0.325254,-2.137648 1.132861,-1.365017 3.514146,-1.172048 3.988728,0.32323 0.42442,1.33724 -0.59183,3.024473 -1.821697,3.024473 -0.41068,0 -1.23948,-0.544526 -1.841777,-1.210055 z m 6.451387,0.352736 c -0.969527,-1.168206 -0.655317,-2.792037 0.706145,-3.649417 1.543107,-0.971762 4.112889,1.595504 3.144107,3.141023 -0.873467,1.393466 -2.894259,1.660293 -3.850252,0.508394 z m 6.374503,-0.352736 c -0.896182,-0.990263 -0.95526,-1.378545 -0.325259,-2.137648 1.132862,-1.365017 3.514147,-1.172048 3.988729,0.32323 0.424421,1.33724 -0.591829,3.024473 -1.821697,3.024473 -0.410679,0 -1.239476,-0.544526 -1.841773,-1.210055 z M 57.86727,72.811858 56.436353,71.63642 57.736144,70.316386 c 1.080217,-1.097041 1.518711,-1.202867 2.595715,-0.626471 1.611551,0.862473 1.682265,2.843865 0.131126,3.674005 -0.892826,0.477826 -1.498906,0.348926 -2.595715,-0.552062 z m 12.825887,0 -1.430917,-1.175438 1.299794,-1.320034 c 1.080214,-1.097041 1.518707,-1.202867 2.595715,-0.626471 1.611548,0.862473 1.682262,2.843865 0.131123,3.674005 -0.892828,0.477826 -1.498906,0.348926 -2.595715,-0.552062 z M 64.09516,70.064455 c -1.62245,-1.954928 0.760533,-4.957981 2.876743,-3.625292 1.506034,0.948432 1.705177,2.759563 0.407747,3.708269 -1.423136,1.040626 -2.371873,1.016659 -3.28449,-0.08298 z M 57.645976,64.21979 c -1.418942,-1.567916 -0.601219,-3.346024 1.538781,-3.346024 1.844629,0 2.980144,1.759736 2.069061,3.206472 -0.976622,1.550802 -2.284883,1.601404 -3.607842,0.139552 z m 12.55675,0.347856 c -1.622451,-1.954928 0.760532,-4.957983 2.876742,-3.625293 2.114641,1.331701 1.361273,4.512087 -1.068823,4.512087 -0.58957,0 -1.403134,-0.399056 -1.807919,-0.886794 z M 64.216365,64.13418 c -1.047075,-1.047075 -0.946324,-2.788 0.198417,-3.428631 0.865796,-0.484525 0.865796,-0.608096 0,-1.326645 -1.882273,-1.562145 -0.513702,-4.670294 1.851563,-4.20507 1.874186,0.368636 2.468342,2.120591 1.195977,3.526533 -1.109903,1.226433 -1.109903,1.288095 0,2.514531 0.869547,0.96083 0.985157,1.50083 0.490352,2.290337 -0.813442,1.297919 -2.74259,1.622664 -3.736309,0.628945 z M 57.474639,53.727915 c -1.506628,-1.506628 -0.399368,-4.153145 1.73761,-4.153145 0.552586,0 1.502157,0.549681 2.110156,1.221513 1.066766,1.178765 1.066766,1.264262 0,2.443027 -1.249501,1.380683 -2.763442,1.572929 -3.847766,0.488605 z m 6.731673,0.01335 c -1.736845,-1.736846 -0.402098,-4.164822 2.033593,-3.699211 1.1749,0.224597 1.495444,0.663349 1.495444,2.046942 0,0.968588 -0.252365,1.761069 -0.560803,1.761069 -0.308444,0 -0.934567,0.143427 -1.391395,0.318726 -0.456821,0.1753 -1.166398,-0.01709 -1.576839,-0.427529 z m 7.040887,0.298546 c -0.698095,-0.182431 -1.068824,-0.874616 -1.068824,-1.995598 0,-1.336075 0.331286,-1.779616 1.495443,-2.002159 1.656543,-0.316668 2.779853,0.48171 2.779853,1.975741 0,0.974251 -1.163931,2.506697 -1.801732,2.372178 -0.184754,-0.03897 -0.816887,-0.196539 -1.40474,-0.350162 z m 14.65542,33.683947 c 3.028657,-1.265451 4.390699,-2.567645 5.725079,-5.473514 1.214191,-2.64413 1.5284,-5.498208 0.537912,-4.886052 -0.335916,0.207608 -0.611783,1.117061 -0.613041,2.021005 -0.0031,2.251249 -2.023613,5.377094 -4.420118,6.838262 -1.424071,0.86827 -3.076851,1.2143 -5.807769,1.215931 -2.136127,0.0012 -3.817229,0.271261 -3.817229,0.613041 0,0.949317 5.888237,0.718793 8.395166,-0.328673 z m -1.461625,-3.858985 c 2.242691,-1.984074 3.821051,-6.80596 2.227807,-6.80596 -0.335916,0 -0.610756,0.845666 -0.610756,1.879249 0,1.262727 -0.585697,2.464953 -1.78529,3.664539 -2.257063,2.257063 -3.643084,2.39857 -2.219984,0.226646 l 1.021258,-1.558638 -2.477907,1.639802 c -1.362854,0.901891 -2.477912,1.90228 -2.477912,2.22308 0,0.8911 5.020058,-0.116215 6.322784,-1.268718 z m 5.302038,-3.190782 c 0.779863,-1.882761 0.390316,-3.941132 -0.626893,-3.312468 -0.338286,0.209074 -0.616094,1.11973 -0.617352,2.023674 -0.0012,0.903944 -0.582577,2.605475 -1.29183,3.781182 l -1.289551,2.137647 1.548103,-1.434532 c 0.851455,-0.788988 1.876341,-2.226965 2.277523,-3.195503 z m -9.792553,1.224701 c 0,-0.289437 -0.41226,-0.368048 -0.916134,-0.174694 -0.503875,0.193359 -0.916135,0.588366 -0.916135,0.877797 0,0.289438 0.41226,0.368048 0.916135,0.174695 0.503874,-0.193359 0.916134,-0.588366 0.916134,-0.877798 z m 1.577823,-3.287562 c 1.315655,-1.161726 2.117254,-2.113345 1.781338,-2.11472 -0.335916,-0.0012 -1.710118,0.945042 -3.053782,2.10314 -1.343665,1.158099 -2.145264,2.109718 -1.781339,2.114714 0.363925,0.0049 1.738128,-0.941414 3.053783,-2.103134 z m -0.66035,-5.11373 c -0.405457,-0.40545 -2.749742,1.760891 -2.749742,2.541022 0,0.342409 0.68602,-0.02193 1.524485,-0.809619 0.838465,-0.787692 1.389831,-1.566828 1.225257,-1.731403 z m 12.824549,0.603904 c 1.007749,-0.572193 2.464531,-2.270848 3.237291,-3.774787 1.337105,-2.602238 1.396153,-3.265904 1.221513,-13.728048 -0.209508,-12.551323 -0.662176,-14.092359 -4.752437,-16.179055 -3.084803,-1.573751 -5.496113,-1.554007 -8.24437,0.06751 -3.723728,2.197054 -3.98278,3.293386 -3.980221,16.844665 0.0024,13.907262 0.371034,15.171082 5.049075,17.32064 2.775992,1.275571 4.472772,1.150415 7.469149,-0.550921 z m -6.025198,-3.805141 c -1.933918,-1.521218 -2.092269,-3.747957 -0.387745,-5.45248 1.704524,-1.704524 3.931262,-1.546173 5.45248,0.387745 1.643802,2.089758 1.606094,2.41975 -0.519449,4.545286 -2.125536,2.125543 -2.455528,2.163251 -4.545286,0.519449 z M 87.279558,59.957631 c -1.698526,-1.698524 -1.38963,-4.107943 0.728486,-5.682245 1.55054,-1.152449 1.73274,-1.164639 3.184985,-0.213092 2.57771,1.688982 3.127916,3.337817 1.737932,5.208162 -1.546112,2.080427 -3.964133,2.374445 -5.651403,0.687175 z m 0.387745,-9.816433 c -1.933918,-1.521219 -2.092269,-3.747956 -0.387745,-5.45248 1.704524,-1.704524 3.931262,-1.546173 5.45248,0.387744 1.643802,2.089759 1.606094,2.419751 -0.519449,4.54529 -2.125536,2.125539 -2.455528,2.163251 -4.545286,0.519446 z M 39.869146,63.336941 c -0.64316,-1.67605 0.119443,-2.304067 0.850223,-0.700177 0.456403,1.001695 0.49753,1.596163 0.11043,1.596163 -0.339257,0 -0.771551,-0.403191 -0.960653,-0.895986 z"
         id="path5505" />
    </g>
  </g>
</svg>
