<?xml version="1.0" encoding="UTF-8" standalone="no"?>
<!-- Created with Inkscape (http://www.inkscape.org/) -->

<svg
   width="100mm"
   height="100mm"
   viewBox="0 0 100 100"
   version="1.1"
   id="svg4518"
   inkscape:version="1.1.1 (3bf5ae0d25, 2021-09-20)"
   sodipodi:docname="add_list_type_device_6159.svg"
   xmlns:inkscape="http://www.inkscape.org/namespaces/inkscape"
   xmlns:sodipodi="http://sodipodi.sourceforge.net/DTD/sodipodi-0.dtd"
   xmlns="http://www.w3.org/2000/svg"
   xmlns:svg="http://www.w3.org/2000/svg">
  <sodipodi:namedview
     id="namedview4520"
     pagecolor="#505050"
     bordercolor="#ffffff"
     borderopacity="1"
     inkscape:pageshadow="0"
     inkscape:pageopacity="0"
     inkscape:pagecheckerboard="1"
     inkscape:document-units="mm"
     showgrid="false"
     inkscape:zoom="0.58974467"
     inkscape:cx="397.62971"
     inkscape:cy="354.39066"
     inkscape:window-width="1440"
     inkscape:window-height="890"
     inkscape:window-x="-6"
     inkscape:window-y="-6"
     inkscape:window-maximized="1"
     inkscape:current-layer="layer1" />
  <defs
     id="defs4515" />
  <g
     inkscape:label="Laag 1"
     inkscape:groupmode="layer"
     id="layer1">
    <g
       id="g4534"
       transform="translate(-1.7945631,-0.44864012)">
      <path
         style="fill:#d0d0d0;fill-opacity:1;stroke-width:0.605218"
         d="m 48.699497,93.029091 c 0.436892,-0.174829 0.958892,-0.153332 1.160001,0.04775 0.201108,0.201108 -0.156348,0.344152 -0.794348,0.317873 -0.705044,-0.02905 -0.848455,-0.172451 -0.365653,-0.365648 z M 47.489062,90.60822 c 0.436891,-0.17483 0.958891,-0.153332 1.16,0.04775 0.201109,0.201108 -0.156348,0.344151 -0.794348,0.317873 -0.705044,-0.02905 -0.848455,-0.172451 -0.365652,-0.365649 z m 2.420871,0 c 0.436891,-0.17483 0.958892,-0.153332 1.160001,0.04775 0.201108,0.201108 -0.156349,0.344151 -0.794349,0.317873 -0.705044,-0.02905 -0.848455,-0.172451 -0.365652,-0.365649 z m -2.420871,-9.078267 c 0.436891,-0.174829 0.958891,-0.153332 1.16,0.04775 0.201109,0.201108 -0.156348,0.344151 -0.794348,0.317872 -0.705044,-0.02905 -0.848455,-0.172451 -0.365652,-0.365648 z m 0.881519,-1.216415 c 0.588857,-0.153447 1.405901,-0.143358 1.815653,0.02245 0.409752,0.165787 -0.07204,0.291333 -1.07065,0.278999 -0.998609,-0.01235 -1.333861,-0.147976 -0.745003,-0.301423 z m 28.282412,-1.019532 c 0,-0.125673 0.476609,-0.602282 1.059131,-1.059131 0.959912,-0.752812 0.981319,-0.731406 0.228506,0.228506 -0.790638,1.008142 -1.287637,1.328744 -1.287637,0.830625 z m -26.74306,-6.84232 c 0.436891,-0.174829 0.958892,-0.153332 1.160001,0.04775 0.201108,0.201114 -0.156349,0.344151 -0.794349,0.317873 -0.705044,-0.02905 -0.848455,-0.172451 -0.365652,-0.365649 z m -1.539352,-1.216415 c 0.588857,-0.153447 1.405901,-0.143358 1.815653,0.02239 0.409752,0.165788 -0.07204,0.291334 -1.07065,0.279 -0.998609,-0.01235 -1.333861,-0.147976 -0.745003,-0.301423 z m 42.807639,0.190904 c 0,-0.125673 0.476609,-0.602282 1.059131,-1.059131 0.959912,-0.752812 0.981318,-0.731406 0.228506,0.228506 -0.790638,1.008142 -1.287637,1.328744 -1.287637,0.830625 z m -4.539133,-5.823672 c 0.602488,-0.665739 1.231606,-1.210435 1.398041,-1.210435 0.166434,0 -0.190335,0.544696 -0.792824,1.210435 -0.602488,0.66574 -1.231606,1.210436 -1.398041,1.210436 -0.166435,0 0.190335,-0.544696 0.792824,-1.210436 z M 63.615924,63.141367 c -0.219409,-0.355015 -0.269128,-0.775284 -0.110482,-0.93393 0.15864,-0.158645 0.449713,0.131823 0.646826,0.645483 0.409237,1.066461 0.06046,1.254048 -0.536344,0.288447 z m 22.965661,-2.53191 -1.152934,-1.36174 1.36174,1.152932 c 1.279697,1.083472 1.637259,1.570548 1.152934,1.570548 -0.114846,0 -0.727629,-0.612783 -1.36174,-1.36174 z m 5.124651,-5.144351 c -0.752812,-0.95991 -0.731406,-0.981316 0.228506,-0.228503 1.008142,0.790637 1.328744,1.287634 0.830625,1.287634 -0.125673,0 -0.602282,-0.476609 -1.059131,-1.059131 z m -80.903994,-4.08522 c 0.01233,-0.99861 0.147975,-1.333862 0.301424,-0.745004 0.153449,0.588857 0.143357,1.405901 -0.02242,1.815653 -0.165786,0.409752 -0.291335,-0.07204 -0.279001,-1.070649 z m 9.078267,0 c 0.01233,-0.99861 0.147974,-1.333862 0.301424,-0.745004 0.153448,0.588857 0.143357,1.405901 -0.02242,1.815653 -0.165785,0.409752 -0.291335,-0.07204 -0.279,-1.070649 z m 9.078266,0 c 0.01234,-0.99861 0.147975,-1.333862 0.301424,-0.745004 0.153449,0.588857 0.143358,1.405901 -0.02242,1.815653 -0.165786,0.409752 -0.291335,-0.07204 -0.279001,-1.070649 z m 39.944374,0 c 0.01235,-0.99861 0.147976,-1.333862 0.301423,-0.745004 0.153447,0.588857 0.143358,1.405901 -0.02239,1.815653 -0.165818,0.409752 -0.291364,-0.07204 -0.27903,-1.070649 z M 7.1007289,51.329451 C 7.1297669,50.624407 7.2731803,50.480996 7.4663815,50.963798 7.6412114,51.40069 7.6197098,51.92269 7.4185995,52.123799 7.2174904,52.324908 7.0744478,51.967451 7.100727,51.329451 Z m 84.0774911,0.12454 c 0,-0.125677 0.476609,-0.602286 1.059131,-1.059131 0.959912,-0.752812 0.981318,-0.731406 0.228506,0.228503 -0.790638,1.008141 -1.287637,1.328743 -1.287637,0.830628 z M 9.5693807,49.866841 c 0,-0.832174 0.1373681,-1.172609 0.3052634,-0.756522 0.1678949,0.416087 0.1678949,1.096957 0,1.513044 -0.1678953,0.416088 -0.3052634,0.07565 -0.3052634,-0.756522 z M 86.639087,45.630317 c 0.602488,-0.66574 1.231606,-1.210436 1.398041,-1.210436 0.166434,0 -0.190335,0.544696 -0.792824,1.210436 -0.602488,0.665739 -1.231606,1.210435 -1.398041,1.210435 -0.166435,0 0.190335,-0.544696 0.792824,-1.210435 z M 73.997957,33.415219 c 0.174793,-0.282821 0.571332,-0.357531 0.881203,-0.166021 0.791855,0.489394 0.702695,0.680242 -0.317805,0.680242 -0.484665,0 -0.738191,-0.2314 -0.563398,-0.514221 z M 48.370581,31.290897 c 0.588857,-0.153448 1.405901,-0.143357 1.815653,0.02242 0.409752,0.165785 -0.07204,0.291335 -1.07065,0.279 -0.998609,-0.01233 -1.333861,-0.147974 -0.745003,-0.301424 z M 21.275567,23.237259 c 0.602485,-0.66574 1.231603,-1.210436 1.398037,-1.210436 0.166435,0 -0.190334,0.544696 -0.79282,1.210436 -0.602485,0.665739 -1.231603,1.210435 -1.398038,1.210435 -0.166434,0 0.190335,-0.544696 0.792821,-1.210435 z m 55.017316,-0.151305 -1.152934,-1.36174 1.36174,1.152933 c 0.748957,0.634113 1.36174,1.246896 1.36174,1.36174 0,0.484327 -0.487073,0.126767 -1.570546,-1.152933 z M 48.370581,22.212631 c 0.588857,-0.153449 1.405901,-0.143358 1.815653,0.02242 0.409752,0.165785 -0.07204,0.291335 -1.07065,0.279001 -0.998609,-0.01233 -1.333861,-0.147975 -0.745003,-0.301424 z m 0,-9.078267 c 0.588857,-0.153449 1.405901,-0.143357 1.815653,0.02242 0.409752,0.165786 -0.07204,0.291335 -1.07065,0.279001 -0.998609,-0.01233 -1.333861,-0.147975 -0.745003,-0.301424 z m 1.539352,-1.204458 c 0.436891,-0.17483 0.958892,-0.153328 1.160001,0.04778 0.201108,0.201109 -0.156349,0.344152 -0.794349,0.317873 -0.705044,-0.02904 -0.848455,-0.172452 -0.365652,-0.365653 z M 48.699497,9.5090351 C 49.136389,9.3342052 49.658389,9.3557068 49.859498,9.556817 50.060606,9.757926 49.70315,9.9009686 49.06515,9.8746895 48.360106,9.8456511 48.216695,9.7022381 48.699497,9.5090369 Z"
         id="path4550" />
      <path
         style="fill:#b9b9b9;fill-opacity:1;stroke-width:0.605218"
         d="m 48.370581,91.812676 c 0.588857,-0.153447 1.405901,-0.143358 1.815653,0.02245 0.409752,0.165788 -0.07204,0.291334 -1.07065,0.279 -0.998609,-0.01235 -1.333861,-0.147976 -0.745003,-0.301423 z m 27.071977,-8.282145 c 0,-0.125674 0.476609,-0.602283 1.059131,-1.059131 0.959911,-0.752813 0.981318,-0.731406 0.228506,0.228506 -0.790639,1.008141 -1.287637,1.328743 -1.287637,0.830625 z M 48.370581,82.734409 c 0.588857,-0.153447 1.405901,-0.143358 1.815653,0.02245 0.409752,0.165787 -0.07204,0.291333 -1.07065,0.278999 -0.998609,-0.01235 -1.333861,-0.147976 -0.745003,-0.301423 z m -2.091955,-2.414892 c 0.436892,-0.174829 0.958892,-0.153331 1.160001,0.04775 0.201108,0.201108 -0.156348,0.344151 -0.794348,0.317873 -0.705045,-0.02905 -0.848455,-0.172451 -0.365653,-0.365649 z m 4.841742,0 c 0.436892,-0.174829 0.958892,-0.153331 1.160001,0.04775 0.201109,0.201108 -0.156348,0.344151 -0.794348,0.317873 -0.705044,-0.02905 -0.848455,-0.172451 -0.365653,-0.365649 z m 28.558714,-1.025511 c 0,-0.125673 0.476609,-0.602282 1.059131,-1.059131 0.959912,-0.752812 0.981318,-0.731406 0.228506,0.228506 -0.790638,1.008142 -1.287637,1.328744 -1.287637,0.830625 z m -8.473049,-4.236524 c 0,-0.125674 0.476609,-0.602283 1.059131,-1.059131 0.959912,-0.752813 0.981319,-0.731406 0.228506,0.228506 -0.790638,1.008141 -1.287637,1.328743 -1.287637,0.830625 z m -43.003043,-3.251496 -2.085681,-2.269567 2.269566,2.085683 c 2.112464,1.941303 2.547838,2.45345 2.085682,2.45345 -0.101137,0 -1.122442,-1.021305 -2.269567,-2.269566 z m 20.333222,1.706169 c -0.191509,-0.309871 -0.02933,-0.760474 0.360403,-1.001339 0.425857,-0.263197 0.54696,-0.176403 0.303505,0.217521 -0.233691,0.378116 0.174885,0.766932 0.965619,0.918915 1.360402,0.261478 1.360738,0.26408 0.0447,0.345882 -0.729312,0.04533 -1.482712,-0.171114 -1.674221,-0.480979 z M 69.39038,71.95729 c 1.129203,-1.165044 2.189272,-2.118262 2.355707,-2.118262 0.166435,0 -0.621286,0.953218 -1.750489,2.118262 -1.129204,1.165044 -2.189273,2.118262 -2.355708,2.118262 -0.166435,0 0.621287,-0.953218 1.75049,-2.118262 z m 3.026089,-1.74155 c 0,-0.125674 0.476609,-0.602283 1.059131,-1.059132 0.959912,-0.752812 0.981318,-0.731405 0.228506,0.228506 -0.790638,1.008142 -1.287637,1.328744 -1.287637,0.830626 z M 63.59758,62.531979 c 0,-0.641299 0.213987,-1.166 0.475532,-1.166 0.261539,0 0.475526,0.392449 0.475526,0.872107 0,0.479659 -0.213987,1.004365 -0.475526,1.166 -0.261545,0.161642 -0.475532,-0.230806 -0.475532,-0.872107 z m 1.556275,-0.45096 c 0,-0.731437 1.14822,-1.584214 1.567938,-1.164497 0.152333,0.152333 -0.138135,0.621474 -0.645483,1.042536 -0.575193,0.477364 -0.922455,0.523281 -0.922455,0.121961 z M 10.779816,54.103366 c 0,-0.832175 0.137368,-1.17261 0.305264,-0.756523 0.167894,0.416088 0.167894,1.096958 0,1.513045 -0.167896,0.416087 -0.305264,0.07565 -0.305264,-0.756522 z m 1.162655,0.252174 c 0.02904,-0.705044 0.172451,-0.848455 0.365653,-0.365653 0.17483,0.436892 0.153328,0.958892 -0.04778,1.160001 -0.201109,0.201109 -0.344152,-0.156348 -0.317873,-0.794348 z m 7.867831,-0.605218 c 0.02904,-0.705044 0.172452,-0.848455 0.365653,-0.365653 0.17483,0.436892 0.153328,0.958892 -0.04778,1.160001 -0.201109,0.201109 -0.344152,-0.156348 -0.317873,-0.794348 z m 41.352135,-1.008696 -1.152933,-1.36174 1.36174,1.152932 c 1.279697,1.083472 1.63726,1.570548 1.152934,1.570548 -0.114846,0 -0.727629,-0.612783 -1.361741,-1.36174 z M 8.3813709,50.774668 c 0.012334,-0.99861 0.1479746,-1.333861 0.3014239,-0.745004 0.1534487,0.588857 0.1433573,1.405901 -0.022423,1.815653 -0.1657855,0.409752 -0.2913349,-0.07204 -0.2790009,-1.070649 z m 18.0863271,0.554783 c 0.02904,-0.705044 0.172451,-0.848455 0.365652,-0.365653 0.17483,0.436892 0.153329,0.958892 -0.04778,1.160001 -0.201109,0.201109 -0.344151,-0.156348 -0.317872,-0.794348 z M 10.779816,48.656406 c 0,-0.832175 0.137368,-1.17261 0.305264,-0.756523 0.167894,0.416088 0.167894,1.096958 0,1.513045 -0.167896,0.416087 -0.305264,0.07565 -0.305264,-0.756522 z m 9.030486,0.252174 c 0.02904,-0.705044 0.172452,-0.848455 0.365653,-0.365653 0.17483,0.436892 0.153328,0.958892 -0.04778,1.160001 C 19.927064,49.904037 19.784021,49.54658 19.8103,48.90858 Z m -7.867831,-0.605218 c 0.02904,-0.705044 0.172451,-0.848455 0.365653,-0.365653 0.17483,0.436892 0.153328,0.958892 -0.04778,1.160001 -0.201109,0.201109 -0.344152,-0.156348 -0.317873,-0.794348 z m 25.419147,-8.473049 c 0.02904,-0.705044 0.172451,-0.848455 0.365652,-0.365652 0.17483,0.436891 0.153329,0.958891 -0.04778,1.160001 -0.201109,0.201108 -0.344151,-0.156349 -0.317872,-0.794349 z m -6.705176,-6.606961 c 0.781787,-0.832174 1.557606,-1.513044 1.72404,-1.513044 0.166435,0 -0.337035,0.68087 -1.118822,1.513044 -0.781787,0.832175 -1.557606,1.513045 -1.72404,1.513045 -0.166435,0 0.337035,-0.68087 1.118822,-1.513045 z m 8.473049,0.66997 c 0,-0.130822 0.422667,-0.400051 0.93926,-0.598286 0.538599,-0.206679 0.781531,-0.105216 0.5695,0.237857 -0.355419,0.575081 -1.50876,0.850602 -1.50876,0.360429 z m -10.89392,-3.090841 c 1.129205,-1.165044 2.189275,-2.118262 2.35571,-2.118262 0.166435,0 -0.621287,0.953218 -1.750492,2.118262 -1.129205,1.165044 -2.189275,2.118262 -2.35571,2.118262 -0.166435,0 0.621287,-0.953218 1.750492,-2.118262 z m 41.12223,-0.151304 -2.085683,-2.269567 2.269566,2.085682 c 2.112465,1.941306 2.54784,2.453451 2.085684,2.453451 -0.101138,0 -1.122443,-1.021305 -2.269567,-2.269566 z m 5.540297,-3.96144 c -0.765552,-1.274776 -0.752655,-1.287673 0.289494,-0.289495 0.59991,0.574597 0.960468,1.174994 0.801247,1.334216 -0.15922,0.159222 -0.650052,-0.310903 -1.090741,-1.044721 z M 19.157304,27.24528 c 0,-0.125677 0.476609,-0.602286 1.059131,-1.059131 0.95991,-0.752813 0.981316,-0.731406 0.228503,0.228503 -0.790637,1.008141 -1.287634,1.328743 -1.287634,0.830628 z m 58.628923,-0.830628 c -0.752812,-0.959909 -0.731405,-0.981316 0.228506,-0.228503 1.008142,0.790638 1.328744,1.287634 0.830625,1.287634 -0.125673,0 -0.602282,-0.476609 -1.059131,-1.059131 z m -53.78718,-0.985025 c 0,-0.125677 0.476609,-0.602286 1.059131,-1.059131 0.959909,-0.752813 0.981316,-0.731406 0.228503,0.228503 -0.790638,1.00814 -1.287634,1.328743 -1.287634,0.830628 z m -7.262614,-0.605218 c 0,-0.125677 0.476609,-0.602286 1.059131,-1.059131 0.95991,-0.752813 0.981316,-0.731406 0.228503,0.228503 -0.790637,1.00814 -1.287634,1.328743 -1.287634,0.830628 z m 63.470665,-0.830628 c -0.752812,-0.959909 -0.731405,-0.981316 0.228506,-0.228503 1.008142,0.790638 1.328744,1.287634 0.830625,1.287634 -0.125673,0 -0.602282,-0.476609 -1.059131,-1.059131 z M 23.393829,23.008756 c 0,-0.125677 0.476609,-0.602286 1.059131,-1.059131 0.959909,-0.752813 0.981316,-0.731406 0.228503,0.228503 -0.790638,1.00814 -1.287634,1.328743 -1.287634,0.830628 z m 50.155874,-0.830628 c -0.752812,-0.959909 -0.731406,-0.981316 0.228506,-0.228503 1.008141,0.790638 1.328743,1.287634 0.830625,1.287634 -0.125674,0 -0.602283,-0.476609 -1.059131,-1.059131 z m -27.271077,0.04048 c 0.436892,-0.17483 0.958892,-0.153328 1.160001,0.04778 0.201108,0.201109 -0.156348,0.344151 -0.794348,0.317872 -0.705045,-0.02904 -0.848455,-0.172451 -0.365653,-0.365652 z m 4.841742,0 c 0.436892,-0.17483 0.958892,-0.153328 1.160001,0.04778 0.201109,0.201109 -0.156348,0.344151 -0.794348,0.317872 -0.705044,-0.02904 -0.848455,-0.172451 -0.365653,-0.365652 z m -30.14741,-1.630726 c 0,-0.125677 0.476609,-0.602286 1.059131,-1.059131 0.959909,-0.752813 0.981316,-0.731407 0.228503,0.228503 -0.790638,1.00814 -1.287634,1.328743 -1.287634,0.830628 z m 54.997616,-0.830628 c -0.752812,-0.95991 -0.731406,-0.981316 0.228506,-0.228503 1.008141,0.790637 1.328743,1.287634 0.830625,1.287634 -0.125673,0 -0.602282,-0.476609 -1.059131,-1.059131 z m -30.297166,-5.40648 c 0.436892,-0.17483 0.958892,-0.153328 1.160001,0.04778 0.201109,0.201109 -0.156348,0.344152 -0.794348,0.317873 -0.705044,-0.02904 -0.848455,-0.172452 -0.365653,-0.365653 z m 6.052178,0 c 0.436892,-0.17483 0.958892,-0.153328 1.160001,0.04778 0.201108,0.201109 -0.156348,0.344152 -0.794348,0.317873 -0.705045,-0.02904 -0.848455,-0.172452 -0.365653,-0.365653 z M 45.635582,13.15295 c 0.416087,-0.167894 1.096957,-0.167894 1.513045,0 0.416087,0.167895 0.07565,0.305264 -0.756523,0.305264 -0.832174,0 -1.172609,-0.137369 -0.756522,-0.305264 z m 5.44696,0 c 0.416087,-0.167894 1.096957,-0.167894 1.513045,0 0.416087,0.167895 0.07565,0.305264 -0.756523,0.305264 -0.832174,0 -1.172609,-0.137369 -0.756522,-0.305264 z m -1.966958,-2.020047 -2.420871,-0.43345 2.233849,-0.08588 c 1.228617,-0.04724 2.402168,0.186465 2.607893,0.519334 0.205725,0.33287 0.289885,0.566571 0.187023,0.519335 -0.102862,-0.04724 -1.276415,-0.280937 -2.607894,-0.519335 z"
         id="path4548" />
      <path
         style="fill:#a3a3a3;fill-opacity:1;stroke-width:0.605218"
         d="m 39.129491,91.541139 c -2.496523,-0.663882 -4.974984,-1.246888 -5.507689,-1.295572 -0.657963,-0.06016 -0.866548,-0.4786 -0.65045,-1.304958 0.176875,-0.676367 0.428314,-0.885815 0.566335,-0.471755 0.136525,0.409575 0.510539,0.582564 0.831142,0.384422 0.352209,-0.217673 0.271868,-0.743081 -0.202997,-1.327521 -0.674141,-0.829699 -0.632093,-0.909588 0.295666,-0.561715 7.520254,2.819758 18.216188,3.422815 24.942789,1.406326 6.163858,-1.847796 11.771467,-5.185003 16.483227,-9.809521 4.139671,-4.063032 4.432179,-4.238884 5.354876,-3.219316 0.906634,1.001817 0.841017,1.246458 -0.923078,3.441643 -1.968205,2.449165 -5.013897,4.975865 -5.997932,4.975865 -0.310737,0 -0.721735,0.408522 -0.913341,0.907826 -0.191599,0.499305 -0.850252,0.907827 -1.46367,0.907827 -0.613425,0 -1.699972,0.544696 -2.414565,1.210436 -1.548486,1.442639 -2.04278,1.537991 -1.568725,0.302608 0.433942,-1.130825 0.11228,-1.13241 -2.567612,-0.01271 -1.178304,0.492332 -1.99533,1.133077 -1.815599,1.423884 1.277833,2.067581 -6.691159,4.366464 -14.884366,4.293814 -2.959835,-0.02622 -6.890296,-0.540581 -9.564011,-1.251584 z m 12.243642,0.304436 c 1.241652,-0.205247 2.110711,-0.610773 1.93124,-0.901163 -0.438755,-0.70992 -7.958768,-0.67765 -8.399856,0.03607 -0.300423,0.486093 0.394027,0.708401 3.60585,1.154284 0.332869,0.04624 1.621115,-0.08391 2.862766,-0.289167 z M 79.896325,76.963512 c -0.45677,-0.739067 -3.243332,1.907459 -3.243332,3.080341 0,0.636604 0.546633,0.391848 1.794132,-0.80333 0.986777,-0.945392 1.638912,-1.970044 1.4492,-2.277011 z m -33.80683,11.258219 c -6.65489,-0.809455 -13.2234,-2.978846 -11.759245,-3.883743 0.681095,-0.420941 0.702216,-0.681536 0.103744,-1.280011 -1.313404,-1.313402 -0.811168,-1.781768 0.939723,-0.87635 3.062331,1.583595 8.99834,2.787845 13.741867,2.787845 9.583255,0 16.962082,-3.166221 24.018667,-10.306302 l 4.651698,-4.706736 0.64098,1.838724 c 0.617001,1.769935 0.484198,1.992728 -3.550044,5.955597 -6.291935,6.180611 -14.296545,9.713455 -23.643038,10.434887 -1.830784,0.141312 -4.145742,0.15755 -5.144352,0.03607 z m 2.118263,-1.436605 c 0,-0.33287 -0.969292,-0.605218 -2.153981,-0.605218 -1.281872,0 -2.002536,0.24504 -1.779935,0.605218 0.205725,0.332869 1.175016,0.605217 2.15398,0.605217 0.978965,0 1.779936,-0.272348 1.779936,-0.605217 z m 4.236524,0 c 0,-0.33287 -0.817044,-0.605218 -1.815653,-0.605218 -0.99861,0 -1.815654,0.272348 -1.815654,0.605218 0,0.332869 0.817044,0.605217 1.815654,0.605217 0.998609,0 1.815653,-0.272348 1.815653,-0.605217 z m 12.763855,-3.394098 c 0.844673,-1.017777 0.09664,-1.099953 -2.16956,-0.238341 -0.87388,0.332247 -1.436031,0.851372 -1.249236,1.153618 0.443213,0.717128 2.527014,0.159251 3.418796,-0.915277 z m 10.217535,-7.176866 c 1.357243,-1.635383 0.314126,-2.230415 -1.159742,-0.661552 -1.106907,1.178251 -1.230426,1.549031 -0.516021,1.549031 0.516571,0 1.270661,-0.399365 1.675763,-0.887479 z m 0.176512,8.926236 c 0.919967,-0.139116 2.281707,-0.135393 3.026089,0.0082 0.744381,0.143654 -0.0083,0.257472 -1.672671,0.252932 -1.664349,-0.0048 -2.273385,-0.122084 -1.353418,-0.261193 z M 41.096857,82.82389 c -4.832596,-1.301309 -7.868955,-3.091246 -9.471357,-5.583376 -2.128176,-3.309839 -7.626453,-8.520443 -7.626453,-7.227432 0,2.025767 -1.090056,0.980138 -3.236547,-3.10464 -2.771274,-5.273743 -4.026067,-10.113486 -4.026067,-15.528556 0,-17.706987 14.672165,-32.379152 32.379151,-32.379152 12.066291,0 23.377106,6.966066 28.754103,17.708973 2.256421,4.508185 2.335196,4.847881 1.440775,6.212937 -0.520384,0.794203 -0.77043,1.728332 -0.555656,2.07584 0.214773,0.347508 0.123192,0.631833 -0.203505,0.631833 -0.326702,0 -0.924894,-1.021305 -1.329324,-2.269567 C 73.571188,32.092638 64.516101,24.242459 53.137719,22.48125 41.056535,20.611257 28.342091,27.409162 23.040357,38.573106 c -4.155126,8.749515 -4.162177,16.849197 -0.02225,25.566695 4.060533,8.550329 12.389617,14.63951 22.075348,16.138719 12.02845,1.861831 24.741578,-4.901852 30.055559,-15.990271 1.160061,-2.420642 2.1092,-4.749285 2.1092,-5.174762 0,-0.425479 0.21717,-0.773597 0.482595,-0.773597 0.26543,0 0.374968,1.838349 0.243418,4.08522 -0.295043,5.039467 -1.700704,7.667437 -6.600626,12.340282 -7.982925,7.612967 -20.033777,10.819381 -30.286741,8.058498 z m 10.061337,-0.04833 c 3.110785,-0.622158 2.144179,-1.437392 -1.704283,-1.437392 -4.897074,0 -5.485097,1.174316 -0.867892,1.733234 0.374478,0.04533 1.531957,-0.0878 2.572175,-0.295842 z M 37.919055,80.143272 c 0,-0.52585 -3.061292,-2.436413 -3.90386,-2.436413 -0.94833,0 -0.123299,1.285361 1.331685,2.074705 1.977217,1.072657 2.572175,1.156323 2.572175,0.361708 z m 25.693281,-0.717909 c 0.847837,-0.386299 1.541519,-1.062763 1.541519,-1.503252 0,-0.624519 -0.466483,-0.578437 -2.118262,0.209242 -1.165044,0.555571 -2.118262,1.232035 -2.118262,1.503252 0,0.684652 0.883703,0.616045 2.695005,-0.209242 z m 9.962393,-8.144428 c 0.685366,-0.871296 1.069625,-1.869754 0.853901,-2.218795 -0.373407,-0.604189 -3.212974,2.349564 -3.219589,3.349063 -0.0063,0.952329 1.169354,0.390626 2.365688,-1.130268 z M 20.972958,62.254366 c 0,-0.177123 -0.449525,-1.334604 -0.998944,-2.572175 -1.126476,-2.537396 -1.87938,-1.413856 -0.856109,1.27755 0.521297,1.371118 1.855053,2.301931 1.855053,1.294625 z M 19.157304,47.712861 c 0,-1.1454 -0.272348,-2.082544 -0.605217,-2.082544 -0.33287,0 -0.605218,1.105465 -0.605218,2.456589 0,1.483611 0.239708,2.308442 0.605218,2.082544 0.332869,-0.205725 0.605217,-1.31119 0.605217,-2.456589 z m 3.86431,-11.442127 c 1.054675,-1.609637 1.262575,-2.744773 0.502705,-2.744773 -0.465898,0 -2.551361,3.168207 -2.551361,3.875991 0,0.871868 1.153531,0.234915 2.048656,-1.131218 z m 53.862125,0.130012 c -1.55797,-2.643247 -2.243228,-3.42979 -2.727426,-3.13054 -0.742742,0.459038 1.338802,3.887062 2.360276,3.887062 0.484786,0 0.633022,-0.305448 0.36715,-0.756522 z M 31.319584,27.040685 c 1.76361,-1.04179 2.301958,-1.987773 1.131218,-1.987773 -0.910822,0 -3.610013,1.862119 -3.610013,2.490477 0,0.770034 0.493725,0.669906 2.478795,-0.502704 z m 37.465578,-0.04163 c 0,-0.716984 -3.655606,-2.728798 -4.118077,-2.266327 -0.221637,0.221633 0.273831,0.922983 1.10103,1.558555 1.55498,1.194755 3.017047,1.537743 3.017047,0.707772 z m -24.831456,-5.55381 c 0.489664,-0.309673 0.737425,-0.715916 0.55058,-0.902761 -0.502279,-0.50228 -4.164359,0.337336 -4.164359,0.954774 0,0.698799 2.483084,0.663061 3.613779,-0.05201 z m 13.332318,0.04695 c 0,-0.571952 -2.042431,-1.259181 -3.782611,-1.272759 -0.582522,-0.0045 -1.059131,0.244114 -1.059131,0.552577 0,0.308462 0.476609,0.685391 1.059131,0.83762 1.87848,0.490898 3.782611,0.431781 3.782611,-0.117438 z M 44.044727,78.867188 C 35.931452,77.452619 27.6606,71.156333 24.091201,63.67733 c -8.153836,-17.084824 2.2519,-36.953074 20.866306,-39.841198 15.085789,-2.34064 29.341933,8.175775 31.701829,23.385676 2.91028,18.757183 -13.760589,34.932627 -32.614609,31.64538 z m 9.307382,-1.160329 c 0.225897,-0.365509 -0.598933,-0.605218 -2.082544,-0.605218 -1.351124,0 -2.45659,0.272348 -2.45659,0.605218 0,0.33287 0.937145,0.605218 2.082545,0.605218 1.145399,0 2.250864,-0.272348 2.456589,-0.605218 z M 40.945144,76.209356 c 0,-0.157889 -0.825042,-0.713715 -1.833427,-1.23517 -2.217591,-1.146761 -3.858901,-0.501744 -1.72834,0.679217 1.417677,0.785809 3.561767,1.120482 3.561767,0.555953 z m 18.459143,-2.432164 c 4.635302,-2.219491 9.854537,-7.423117 12.144929,-12.108604 1.635637,-3.346042 1.775079,-4.154293 1.775079,-10.288702 0,-6.13441 -0.139442,-6.942661 -1.775079,-10.288703 -2.269307,-4.642352 -7.502576,-9.875623 -12.144929,-12.144929 -3.346042,-1.635634 -4.154293,-1.77508 -10.288703,-1.77508 -6.13441,0 -6.94266,0.139446 -10.288702,1.77508 -4.642353,2.269306 -9.875623,7.502577 -12.144929,12.144929 -1.635635,3.346042 -1.77508,4.154293 -1.77508,10.288703 0,6.021736 0.157296,6.977379 1.647394,10.008651 3.102551,6.311451 8.227723,11.006791 14.589902,13.3663 4.856526,1.80111 13.413635,1.342966 18.260118,-0.977645 z m -17.075591,0.06028 c -6.29044,-2.051531 -11.76042,-6.910661 -14.601262,-12.970709 -1.407739,-3.002972 -1.610125,-4.197032 -1.610125,-9.499603 0,-5.61605 0.145181,-6.35981 1.96168,-10.049643 2.362522,-4.798963 6.691324,-9.048936 11.523743,-11.313889 3.031954,-1.421077 4.212016,-1.622018 9.525578,-1.622018 5.61605,0 6.35981,0.145181 10.049643,1.96168 4.798966,2.362522 9.048938,6.691324 11.313887,11.523743 1.420367,3.030438 1.62202,4.213092 1.62202,9.512853 0,5.29976 -0.201653,6.482415 -1.62202,9.512852 -2.252203,4.80522 -6.517657,9.162564 -11.249853,11.492217 -3.331166,1.639928 -4.705776,1.956778 -9.141815,2.107205 -3.258979,0.110513 -6.179559,-0.135533 -7.771476,-0.654706 z M 51.68776,73.69409 c 2.068832,-0.554422 1.626675,-1.434191 -0.720804,-1.434191 -2.036699,0 -3.111497,0.656395 -2.339266,1.428629 0.477476,0.477474 1.293598,0.478963 3.06007,0.0054 z m -7.716527,-1.374983 c 0,-0.671404 -3.690445,-2.017463 -4.182409,-1.525499 -0.515807,0.515808 1.803013,2.071509 3.087649,2.071509 0.602118,0 1.09476,-0.245707 1.09476,-0.54601 z m 12.733353,-2.360561 c 3.328194,-1.426631 6.617227,-4.118828 6.681398,-5.468972 0.03238,-0.681608 0.149798,-0.75056 0.364601,-0.214138 0.538445,1.344661 4.332095,-5.275181 5.075665,-8.856933 1.864458,-8.98105 -2.800923,-18.093971 -11.422819,-22.312272 -4.28345,-2.095697 -11.493744,-2.406903 -14.231395,-0.614248 -0.910725,0.596356 -1.865435,0.954762 -2.121578,0.796456 -0.256144,-0.158305 -0.861234,-0.0078 -1.344646,0.334548 -0.683448,0.483954 -0.609946,0.533773 0.330485,0.224 1.038298,-0.34201 0.985105,-0.157419 -0.375953,1.304648 -2.442394,2.623655 -2.66309,4.674978 -0.892351,8.294239 2.133686,4.361097 4.058601,5.334512 11.615539,5.873889 3.444138,0.245826 6.912826,0.83812 7.887001,1.346742 4.58476,2.393727 9.552684,10.699474 6.399687,10.699474 -0.689095,0 -1.362255,-0.756072 -1.833538,-2.059375 -1.885723,-5.214882 -5.784485,-7.587731 -12.510662,-7.614193 -5.681626,-0.02235 -8.605061,-0.928712 -11.125666,-3.449317 -1.65629,-1.656289 -1.924709,-2.215127 -1.260989,-2.625329 0.706863,-0.436865 0.663087,-0.893901 -0.270724,-2.826466 -0.994557,-2.058281 -1.165985,-2.175617 -1.599656,-1.094898 -0.337067,0.839977 -0.499664,0.191674 -0.531269,-2.118262 l -0.04554,-3.328698 -1.5021,1.815653 c -2.341715,2.830533 -4.458584,7.570135 -4.887152,10.942178 -1.18984,9.361842 5.453198,19.216986 14.7143,21.829106 3.638914,1.026365 9.353084,0.637143 12.887366,-0.877832 z M 36.381125,44.379615 c -0.219411,-0.355016 -0.26913,-0.775284 -0.110485,-0.933928 0.158644,-0.158645 0.449716,0.131822 0.646827,0.645483 0.409238,1.066459 0.06043,1.254047 -0.536342,0.288445 z m 28.167513,22.924724 c 0,-0.831672 -0.973299,-0.549531 -2.647628,0.767495 -0.880236,0.6924 -1.44717,1.506884 -1.259853,1.809965 0.36328,0.587799 3.907481,-1.750036 3.907481,-2.57746 z M 33.13165,65.098817 c -0.772414,-1.443269 -2.408999,-2.790351 -2.85192,-2.347428 -0.506041,0.506041 1.751426,3.414911 2.667573,3.437316 0.567307,0.01386 0.617198,-0.281099 0.184347,-1.089888 z m 37.232894,-6.521734 c 1.02901,-2.462764 0.582625,-3.56778 -0.721038,-1.784915 -0.829596,1.134543 -1.204407,3.968593 -0.524851,3.968593 0.183418,0 0.744067,-0.982655 1.245889,-2.183678 z M 28.235571,52.590321 c 0,-1.547342 -0.263705,-2.118262 -0.978414,-2.118262 -0.719301,0 -0.881769,0.360629 -0.613482,1.36174 0.200713,0.748957 0.368651,1.702175 0.373196,2.118262 0.0045,0.416087 0.280612,0.756522 0.613482,0.756522 0.33287,0 0.605218,-0.953218 0.605218,-2.118262 z m 31.839515,-0.09711 c -1.633375,-1.404969 -2.789062,-1.813018 -2.789062,-0.984758 0,0.760302 3.307675,3.097535 3.881643,2.742803 0.304448,-0.188159 -0.187213,-0.979279 -1.092581,-1.758045 z M 49.418193,50.472059 c 0,-0.33287 -1.105465,-0.605218 -2.456589,-0.605218 -1.483611,0 -2.308442,0.239708 -2.082544,0.605218 0.205725,0.33287 1.31119,0.605218 2.456589,0.605218 1.1454,0 2.082544,-0.272348 2.082544,-0.605218 z M 70.887749,46.08423 c -0.426224,-2.022808 -1.250119,-3.323772 -1.773488,-2.800406 -0.162961,0.162961 -0.01852,1.302283 0.320972,2.531828 0.773214,2.800355 2.035153,3.033694 1.452516,0.268578 z m -39.94424,-5.2656 c 1.08096,-2.090347 1.130053,-2.450927 0.333693,-2.450927 -0.52585,0 -2.436413,3.061293 -2.436413,3.903861 0,0.992864 1.303833,0.09194 2.10272,-1.452934 z m 34.210346,-4.827871 c 0,-1.000453 -3.273756,-3.234832 -3.545438,-2.419801 -0.135128,0.405389 0.403057,1.23592 1.195965,1.845624 1.604862,1.234057 2.349473,1.416029 2.349473,0.574177 z M 39.764764,32.602592 c 1.544878,-0.798887 2.445798,-2.10272 1.452934,-2.10272 -0.842568,0 -3.90386,1.910564 -3.90386,2.436413 0,0.79636 0.360579,0.747268 2.450926,-0.333693 z m 14.495171,-2.641723 c 0,-0.296452 -0.96975,-0.652216 -2.155002,-0.790588 -2.094039,-0.244467 -3.054479,0.154896 -2.266808,0.942567 0.591952,0.591952 4.42181,0.460319 4.42181,-0.151979 z m 9.136193,44.286801 c 1.76361,-1.041792 2.301957,-1.987771 1.131218,-1.987771 -0.910822,0 -3.610015,1.862116 -3.610015,2.490477 0,0.770037 0.493725,0.669904 2.478797,-0.502706 z M 28.610393,66.912661 c -1.021087,-1.021087 -1.585258,-1.28095 -1.585258,-0.73019 0,1.196147 2.638165,3.912503 2.935002,3.021992 0.129533,-0.388598 -0.477852,-1.419907 -1.349744,-2.291802 z m 43.469151,-1.444825 c 1.026123,-1.464996 1.240261,-2.891422 0.434074,-2.891422 -0.430225,0 -0.968403,0.849024 -2.397733,3.782612 -0.522515,1.072421 1.10595,0.33336 1.963659,-0.89119 z M 24.060448,56.428412 c -0.217318,-1.062566 -0.740437,-2.047043 -1.162487,-2.187727 -0.722194,-0.240731 -0.637198,1.173746 0.239534,3.98626 0.505205,1.620674 1.303928,0.06423 0.922953,-1.798533 z m 51.987327,-3.873809 c 0,-1.145399 -0.272348,-2.082544 -0.605217,-2.082544 -0.33287,0 -0.605218,1.105465 -0.605218,2.456589 0,1.483611 0.239708,2.308442 0.605218,2.082544 0.332869,-0.205725 0.605217,-1.31119 0.605217,-2.456589 z M 24.545059,44.329569 c 0.807144,-2.315376 0.832167,-2.935777 0.118411,-2.935777 -0.506247,0 -1.874859,3.158511 -1.874859,4.326837 0,1.254264 1.152458,0.341548 1.756448,-1.39106 z m 49.687063,-2.302082 c 0,-1.009684 -1.385083,-3.659784 -1.912803,-3.659784 -0.699147,0 -0.636271,0.872102 0.194299,2.695003 0.691153,1.516918 1.718504,2.093681 1.718504,0.964781 z M 31.201677,33.2872 c 0.748798,-0.797058 1.110295,-1.604418 0.80333,-1.794133 -0.306966,-0.189715 -1.33162,0.462423 -2.277009,1.449197 -1.195182,1.2475 -1.439938,1.794133 -0.803329,1.794133 0.503557,0 1.528212,-0.652139 2.277008,-1.449197 z m 35.767832,-1.532966 c 0,-0.30871 -0.742445,-1.145296 -1.649872,-1.859081 -2.045231,-1.608778 -2.682368,-0.47346 -0.673662,1.200395 1.559918,1.299878 2.323534,1.516352 2.323534,0.658686 z M 43.004145,26.262087 c 0.321081,-0.321081 0.451917,-0.71565 0.290746,-0.876821 -0.471735,-0.471735 -4.770618,1.024566 -4.770618,1.660496 0,0.693944 3.638796,0.0574 4.479872,-0.783675 z m 12.738574,-0.540195 c -0.896275,-0.844054 -4.508872,-1.458991 -4.508872,-0.767503 0,0.786281 1.087266,1.202003 3.298436,1.261179 1.073524,0.02873 1.556147,-0.168109 1.210436,-0.493676 z M 11.019294,67.782407 C 3.830926,50.551259 8.5886453,31.054212 22.873666,19.20341 27.030167,15.755191 34.596578,12.11342 40.156791,10.884911 58.572432,6.8160384 77.767193,15.93287 86.12631,32.718803 c 2.178354,4.374352 2.240897,5.6489 0.277208,5.6489 -0.730286,0 -1.825228,-1.494995 -3.435289,-4.690437 C 78.032381,23.881234 67.70707,16.146814 56.555017,13.891824 c -5.871076,-1.187157 -9.007789,-1.187157 -14.878865,0 -11.438957,2.313004 -21.61244,10.05656 -26.590464,20.239355 -2.59777,5.313868 -4.401433,12.382213 -4.401433,17.248707 0,3.935817 1.637841,11.365166 3.367956,15.277264 1.816796,4.108097 1.816637,4.185662 -0.0093,4.534709 -1.326457,0.253568 -1.645724,-0.106434 -3.023651,-3.409452 z m 2.085833,-0.27394 c 0,-1.168324 -1.368613,-4.326835 -1.874859,-4.326835 -0.752625,0 -0.683612,1.456705 0.156352,3.300223 0.673502,1.478177 1.718507,2.102447 1.718507,1.026612 z M 10.079038,50.133732 c 0,-1.1454 -0.2671598,-2.082544 -0.5936875,-2.082544 -0.7723729,0 -1.4572978,2.750304 -0.9889029,3.970922 0.5917275,1.542017 1.5825904,0.3597 1.5825904,-1.888378 z M 13.00798,36.220964 c 0.830569,-1.822902 0.893442,-2.695003 0.194293,-2.695003 -0.527715,0 -1.9128,2.6501 -1.9128,3.659784 0,1.1289 1.027353,0.552137 1.718507,-0.964781 z m 73.933715,0.964781 c 0,-1.009684 -1.385083,-3.659784 -1.912802,-3.659784 -0.699148,0 -0.636272,0.872101 0.194299,2.695003 0.691152,1.516918 1.718503,2.093681 1.718503,0.964781 z M 22.123411,22.998498 c 0.748797,-0.797058 1.110295,-1.604418 0.803329,-1.794133 -0.306966,-0.189715 -1.33162,0.462423 -2.277009,1.449196 -1.195181,1.247501 -1.439938,1.794133 -0.803329,1.794133 0.503558,0 1.528212,-0.652138 2.277009,-1.449196 z M 77.58144,22.653561 c -0.945393,-0.986773 -1.970045,-1.638911 -2.277011,-1.449196 -0.739068,0.456768 1.907459,3.243329 3.08034,3.243329 0.636605,0 0.391849,-0.546632 -0.803329,-1.794133 z M 35.86251,14.059133 c 0.199154,-0.32224 0.223964,-0.724027 0.05513,-0.89286 -0.436443,-0.436444 -4.050761,1.515111 -4.050761,2.187214 0,0.67497 3.474053,-0.450423 3.995631,-1.294354 z m 30.501781,1.023228 c 0,-0.561684 -3.750746,-2.216102 -4.140513,-1.826339 -0.548242,0.548245 1.707398,2.113406 3.045753,2.113406 0.602119,0 1.09476,-0.12918 1.09476,-0.287067 z M 51.536455,11.435512 c 0,-0.33287 -1.021305,-0.689745 -2.269566,-0.793056 -1.766319,-0.146188 -2.269567,0.02966 -2.269567,0.793056 0,0.763394 0.503248,0.939244 2.269567,0.793056 1.248261,-0.103311 2.269566,-0.460186 2.269566,-0.793056 z M 15.883381,67.526249 C 12.327187,60.508439 11.283732,49.887304 13.375501,41.99901 16.728273,29.355333 27.091032,18.992574 39.734709,15.639802 c 5.134891,-1.361638 13.626859,-1.361638 18.761751,0 9.64101,2.556544 18.691594,9.728817 23.227011,18.406603 l 2.328061,4.45436 -1.261588,1.261586 c -0.69387,0.693872 -1.345508,1.140542 -1.448081,0.9926 -0.102566,-0.147942 -0.995262,-2.037984 -1.983764,-4.200093 -2.361124,-5.164389 -9.397525,-12.422423 -14.555246,-15.013715 -10.01923,-5.03376 -21.388254,-5.030871 -31.374535,0.008 -4.841046,2.442678 -11.700825,9.302457 -14.143503,14.143503 -5.010857,9.930814 -5.038592,21.391522 -0.07556,31.223231 l 1.781129,3.528396 h -1.81417 c -1.560107,0 -2.021247,-0.40865 -3.292831,-2.917997 z m 0.844788,-2.982877 c -0.02692,-1.478529 -0.852392,-3.177393 -1.543885,-3.177393 -0.632459,0 -0.669627,0.390499 -0.172815,1.815653 0.562913,1.614776 1.738281,2.547114 1.7167,1.36174 z m -2.412607,-14.97914 c 0,-1.165044 -0.272348,-2.118262 -0.605218,-2.118262 -0.332869,0 -0.605217,0.953218 -0.605217,2.118262 0,1.165044 0.272348,2.118262 0.605217,2.118262 0.33287,0 0.605218,-0.953218 0.605218,-2.118262 z M 82.418976,37.915031 C 81.9379,35.998268 81.645441,35.594386 81.11944,36.120386 c -0.573262,0.573264 0.309042,3.457753 1.057654,3.457753 0.416905,0 0.505835,-0.611452 0.241882,-1.663108 z M 17.946869,35.528548 c 0,-0.435683 -0.24321,-0.792151 -0.540466,-0.792151 -0.638739,0 -1.283087,1.500276 -1.25594,2.924283 0.01661,0.870935 0.141316,0.848245 0.907827,-0.165174 0.488719,-0.646143 0.888579,-1.531274 0.888579,-1.966958 z m 58.100906,-7.960963 c 0,-0.802769 -2.383008,-2.754275 -2.824351,-2.312934 -0.21783,0.217832 0.0984,0.942424 0.70273,1.610204 1.141871,1.261751 2.121621,1.586267 2.121621,0.70273 z m -50.686988,-1.54151 c 1.037988,-0.787946 1.455274,-2.183598 0.652873,-2.183598 -0.610366,0 -2.619831,1.928806 -2.619831,2.514672 0,0.726414 0.737395,0.602297 1.966958,-0.331074 z m 39.391888,-7.050823 c -0.278655,-0.271745 -1.296225,-0.689248 -2.261263,-0.927784 -2.064791,-0.51037 -1.700685,0.714368 0.454809,1.529836 1.445962,0.547038 2.592825,0.164814 1.806454,-0.602052 z m -27.769924,-0.07166 c 1.434568,-0.653633 2.118441,-1.72901 1.087609,-1.710243 -1.50163,0.02734 -3.177393,0.858191 -3.177393,1.575368 0,1.016301 0.136,1.025078 2.089784,0.134875 z M 51.839064,15.97465 c 0,-0.33287 -0.817044,-0.605218 -1.815653,-0.605218 -0.998609,0 -1.815653,0.272348 -1.815653,0.605218 0,0.332869 0.817044,0.605217 1.815653,0.605217 0.998609,0 1.815653,-0.272348 1.815653,-0.605217 z"
         id="path4546" />
      <path
         style="fill:#8c8c8c;fill-opacity:1;stroke-width:0.605218"
         d="m 17.389431,93.089479 c 0.02904,-0.705048 0.172451,-0.848454 0.365653,-0.365654 0.17483,0.436889 0.153328,0.958889 -0.04778,1.160003 -0.201109,0.201108 -0.344152,-0.156352 -0.317873,-0.794349 z m 66.526176,-8.348513 c 0,-0.125673 0.476609,-0.602282 1.059131,-1.059131 0.959911,-0.752812 0.981318,-0.731406 0.228506,0.228506 -0.790639,1.008142 -1.287637,1.328744 -1.287637,0.830625 z"
         id="path4544" />
      <path
         style="fill:#767676;fill-opacity:1;stroke-width:0.605218"
         d="m 82.553867,90.620826 c 0.416087,-0.167893 1.096957,-0.167893 1.513044,0 0.416087,0.167894 0.07565,0.305266 -0.756522,0.305266 -0.832175,0 -1.17261,-0.137372 -0.756522,-0.305266 z M 76.804298,83.94706 c 0.582522,-0.152225 1.53574,-0.152225 2.118262,0 0.582522,0.15223 0.105913,0.276784 -1.059131,0.276784 -1.165044,0 -1.641653,-0.124554 -1.059131,-0.276784 z m 12.596779,-4.424548 c -0.04545,-1.205805 -0.176179,-1.328701 -0.643728,-0.605218 -0.352515,0.545477 -0.590384,0.620125 -0.595952,0.187025 -0.0048,-0.396442 0.265007,-0.890318 0.600225,-1.097496 0.729971,-0.451141 1.449151,1.1551 1.008426,2.252245 -0.171555,0.427066 -0.337591,0.09562 -0.368971,-0.736556 z m -5.389913,-1.210435 c 0,-0.832175 0.137373,-1.17261 0.305266,-0.756523 0.167894,0.416088 0.167894,1.096958 0,1.513045 -0.167893,0.416087 -0.305266,0.07565 -0.305266,-0.756522 z m 9.683485,0 c 0,-0.832175 0.137372,-1.17261 0.305266,-0.756523 0.167893,0.416088 0.167893,1.096958 0,1.513045 -0.167894,0.416087 -0.305266,0.07565 -0.305266,-0.756522 z m -12.560024,-3.177394 -1.152934,-1.36174 1.36174,1.152934 c 1.279697,1.083473 1.637259,1.570546 1.152934,1.570546 -0.114846,0 -0.727629,-0.612783 -1.36174,-1.36174 z m 6.571914,0.927448 c 0.919968,-0.139115 2.281708,-0.135393 3.026089,0.0082 0.744382,0.143655 -0.0083,0.257472 -1.67267,0.252933 -1.664349,-0.0048 -2.273386,-0.122085 -1.353419,-0.261194 z M 97.485672,58.33989 c 0,-6.82383 0.08827,-9.615397 0.196146,-6.203482 0.10788,3.411915 0.10788,8.995049 0,12.406964 -0.107881,3.411915 -0.196146,0.620348 -0.196146,-6.203482 z m -11.658854,9.683484 c 0,-0.832174 0.137372,-1.172609 0.305266,-0.756522 0.167893,0.416087 0.167893,1.096957 0,1.513045 -0.167894,0.416087 -0.305266,0.07565 -0.305266,-0.756523 z m 2.779226,-3.426912 c 0.416088,-0.167894 1.096958,-0.167894 1.513045,0 0.416087,0.167893 0.07565,0.305266 -0.756522,0.305266 -0.832175,0 -1.17261,-0.137373 -0.756523,-0.305266 z m 0,-3.02609 c 0.416088,-0.167894 1.096958,-0.167894 1.513045,0 0.416087,0.167896 0.07565,0.305264 -0.756522,0.305264 -0.832175,0 -1.17261,-0.137368 -0.756523,-0.305264 z M 85.826818,58.33989 c 0,-0.832174 0.137372,-1.172609 0.305266,-0.756522 0.167893,0.416087 0.167893,1.096957 0,1.513044 -0.167894,0.416087 -0.305266,0.07565 -0.305266,-0.756522 z m -7.790291,-6.960004 c 0.0048,-1.664349 0.122085,-2.273388 0.261194,-1.353419 0.139115,0.919969 0.135393,2.281709 -0.0082,3.026089 -0.143685,0.74438 -0.257502,-0.0083 -0.252963,-1.67267 z m 7.790291,-3.328698 c 0,-0.832175 0.137372,-1.17261 0.305266,-0.756522 0.167893,0.416087 0.167893,1.096957 0,1.513044 -0.167894,0.416087 -0.305266,0.07565 -0.305266,-0.756522 z m 2.779226,-3.426913 c 0.416088,-0.167895 1.096958,-0.167895 1.513045,0 0.416087,0.167895 0.07565,0.305263 -0.756522,0.305263 -0.832175,0 -1.17261,-0.137368 -0.756523,-0.305263 z m -6.203482,-4.440918 c 0.602488,-0.66574 1.231606,-1.210436 1.398041,-1.210436 0.166435,0 -0.190335,0.544696 -0.792823,1.210436 -0.602488,0.665739 -1.231606,1.210435 -1.398041,1.210435 -0.166435,0 0.190335,-0.544696 0.792823,-1.210435 z m 5.912391,-0.419411 c 0.588858,-0.153449 1.405902,-0.143357 1.815653,0.02242 0.409751,0.165783 -0.07204,0.291332 -1.070648,0.278998 -0.99861,-0.01234 -1.333864,-0.147975 -0.745005,-0.301424 z"
         id="path4542" />
      <path
         style="fill:#606060;fill-opacity:1;stroke-width:0.605218"
         d="m 68.331249,90.571786 c 2.579741,-0.113448 6.801135,-0.113448 9.380875,0 2.579741,0.113448 0.469044,0.20627 -4.690437,0.20627 -5.159482,0 -7.270179,-0.09282 -4.690438,-0.20627 z M 14.238364,89.357301 c -0.752813,-0.959912 -0.731407,-0.981318 0.228503,-0.228506 0.582522,0.456849 1.059131,0.933458 1.059131,1.059131 0,0.498119 -0.496997,0.177517 -1.287634,-0.830625 z m 74.681807,-18.12203 c 0.588858,-0.153447 1.405902,-0.143358 1.815653,0.02239 0.40975,0.165788 -0.07204,0.291334 -1.070649,0.279 -0.998609,-0.01235 -1.333863,-0.147976 -0.745004,-0.301423 z M 16.017737,70.636033 c 0.436892,-0.174829 0.958892,-0.153332 1.160001,0.04775 0.201108,0.201114 -0.156348,0.344151 -0.794348,0.317872 -0.705044,-0.02905 -0.848455,-0.172451 -0.365653,-0.365648 z m 61.893474,-1.150047 c 0.02905,-0.705048 0.17245,-0.848455 0.365648,-0.365654 0.174829,0.436888 0.153332,0.958889 -0.04775,1.160002 -0.201107,0.201108 -0.344151,-0.156352 -0.317872,-0.794348 z m 14.595432,-1.160003 c 0.01235,-0.998609 0.147975,-1.333863 0.301422,-0.745005 0.153447,0.588859 0.143358,1.405903 -0.02245,1.815654 -0.165788,0.40975 -0.291334,-0.07204 -0.279,-1.070649 z M 77.981416,63.484241 c 0.01235,-0.998609 0.147976,-1.333864 0.301423,-0.745005 0.153447,0.588859 0.143358,1.405903 -0.02239,1.815654 -0.165788,0.40975 -0.291334,-0.07204 -0.279,-1.070649 z m 14.525227,-5.44696 c 0.01235,-0.998609 0.147975,-1.333861 0.301422,-0.745004 0.153447,0.588857 0.143358,1.405901 -0.02245,1.815654 -0.165757,0.409752 -0.291304,-0.07204 -0.278969,-1.07065 z M 78.003839,55.919019 c 0,-1.165044 0.124554,-1.641653 0.276785,-1.059131 0.152224,0.582522 0.152224,1.53574 0,2.118262 -0.152231,0.582522 -0.276785,0.105913 -0.276785,-1.059131 z m 10.916332,-1.024628 c 0.588858,-0.153449 1.405902,-0.143358 1.815653,0.02242 0.40975,0.165783 -0.07204,0.291332 -1.070649,0.278998 -0.998609,-0.01233 -1.333863,-0.147974 -0.745004,-0.301424 z m 0,-3.631307 c 0.588858,-0.153449 1.405902,-0.143357 1.815653,0.02242 0.40975,0.165783 -0.07204,0.291333 -1.070649,0.278998 -0.998609,-0.01233 -1.333863,-0.147974 -0.745004,-0.301423 z m 3.586472,-2.909287 c 0.01235,-0.99861 0.147975,-1.333862 0.301422,-0.745004 0.153447,0.588857 0.143358,1.405901 -0.02245,1.815653 -0.165757,0.409752 -0.291304,-0.07204 -0.278969,-1.070649 z M 77.958987,47.44597 c 0,-0.832174 0.137372,-1.172609 0.305265,-0.756522 0.167894,0.416087 0.167894,1.096957 0,1.513044 -0.167893,0.416087 -0.305265,0.07565 -0.305265,-0.756522 z"
         id="path4540" />
      <path
         style="fill:#494949;fill-opacity:1;stroke-width:0.605218"
         d="m 89.967784,87.087734 c 0.78179,-0.832174 1.557607,-1.513044 1.724042,-1.513044 0.166435,0 -0.337034,0.68087 -1.118824,1.513044 -0.78179,0.832175 -1.557607,1.513045 -1.724041,1.513045 -0.166435,0 0.337033,-0.68087 1.118823,-1.513045 z m -4.14067,-2.536364 c 0.375017,-0.451874 0.822243,-0.681191 0.993834,-0.5096 0.171592,0.171592 0.745568,-0.02136 1.275497,-0.428857 0.719876,-0.553514 0.695062,-0.424657 -0.09814,0.509599 -0.583902,0.68774 -1.464712,1.250441 -1.957347,1.250441 -0.685772,0 -0.73589,-0.192562 -0.213848,-0.821583 z m -3.424552,-2.002769 c 0.602488,-0.665739 1.231606,-1.210435 1.398041,-1.210435 0.166435,0 -0.190335,0.544696 -0.792823,1.210435 -0.602488,0.66574 -1.231606,1.210436 -1.398041,1.210436 -0.166435,0 0.190335,-0.544696 0.792823,-1.210436 z m 11.196529,-5.675466 c 0,-0.125673 0.476609,-0.602282 1.059131,-1.059131 0.959912,-0.752812 0.981318,-0.731406 0.228506,0.228506 -0.790638,1.008142 -1.287637,1.328744 -1.287637,0.830625 z m 1.164627,-34.722821 -1.467236,-1.664348 1.664349,1.467237 c 1.555585,1.371356 1.941896,1.86146 1.467236,1.86146 -0.108407,0 -0.857364,-0.748957 -1.664349,-1.664349 z M 83.00778,41.99901 c 0.602488,-0.66574 1.231606,-1.210436 1.398041,-1.210436 0.166435,0 -0.190335,0.544696 -0.792823,1.210436 -0.602489,0.66574 -1.231606,1.210436 -1.398041,1.210436 -0.166435,0 0.190335,-0.544696 0.792823,-1.210436 z m 12.652071,-0.756522 -1.152933,-1.36174 1.36174,1.152932 c 1.279696,1.083472 1.637259,1.570548 1.152933,1.570548 -0.114846,0 -0.727629,-0.612783 -1.36174,-1.36174 z"
         id="path4538" />
      <path
         style="fill:#333333;fill-opacity:1;stroke-width:0.605218"
         d="M 14.721141,98.512309 C 12.829961,97.931276 10.864344,96.680551 9.1532403,94.969449 2.5440855,88.360296 3.7047178,78.291766 11.710686,72.783515 c 2.56053,-1.761692 3.276374,-1.953637 7.410046,-1.986893 5.068467,-0.04079 7.128051,0.841416 10.740937,4.600744 7.134138,7.423311 3.38489,20.163484 -6.839349,23.240526 -3.46604,1.043123 -4.550616,1.026716 -8.301179,-0.125583 z m 9.580514,-5.698488 c 7.808943,-4.74538 4.065405,-17.155394 -5.175004,-17.155394 -9.2445082,0 -12.867795,12.3745 -5.042262,17.220679 4.195308,2.59806 5.326441,0.419579 1.488074,-2.865918 -2.882153,-2.467013 -3.535351,-4.793337 -2.159817,-7.692058 1.945327,-4.099473 7.011947,-4.997574 10.201262,-1.808264 3.762619,3.762621 2.056655,9.17161 -4.224222,13.39347 -1.875512,1.260675 2.722508,0.237984 4.911969,-1.092515 z m 39.369417,-2.887658 c 1.149272,-0.979986 3.903655,-1.906012 3.903655,-1.312408 0,0.357326 3.285097,0.592242 8.281969,0.592242 9.950888,0 12.554365,-0.88432 15.027467,-5.104353 1.503276,-2.565136 2.07301,-7.000003 0.899275,-7.000003 -0.33287,0 -0.605218,0.848049 -0.605218,1.884557 0,2.944216 -2.291173,6.41773 -5.144242,7.798873 -2.095627,1.014478 -3.719124,1.208311 -10.025977,1.19703 l -7.525448,-0.01344 1.503258,-1.155022 c 0.981004,-0.75375 1.641702,-0.931012 1.901764,-0.510228 0.251789,0.407408 2.151967,0.543291 5.161243,0.369092 5.27158,-0.305169 7.559267,-1.366733 9.015983,-4.183707 1.001769,-1.937224 1.175751,-5.387159 0.271677,-5.387159 -0.33287,0 -0.605218,0.698772 -0.605218,1.552832 0,4.226841 -2.650751,6.283958 -8.120007,6.301539 -2.302346,0.0074 -4.005925,-0.166701 -3.785722,-0.386903 0.220196,-0.220203 2.028454,-0.424464 4.018343,-0.453914 4.332821,-0.06413 5.9689,-1.325869 6.666589,-5.14124 0.415736,-2.273482 0.333905,-2.525168 -0.923623,-2.840783 C 82.82797,75.9427 81.434014,74.925207 80.489166,73.872074 L 78.771255,71.95729 78.620036,59.550326 c -0.08317,-6.823831 0.02669,-12.815487 0.244114,-13.314792 0.405514,-0.931213 0.561546,-1.551826 0.722751,-2.874784 0.05072,-0.416087 0.382111,-0.756522 0.736472,-0.756522 0.354361,0 1.341465,-0.828547 2.193569,-1.841215 0.852104,-1.012668 1.694598,-1.695901 1.872199,-1.518295 0.177607,0.177606 0.62033,0.09227 0.983824,-0.189635 0.968367,-0.751002 3.384384,-1.256474 3.384384,-0.708071 0,0.259163 1.048425,0.638856 2.32984,0.843761 3.025538,0.483804 5.41331,2.406366 6.811169,5.484147 0.959634,2.11291 1.123024,4.075354 1.134402,13.625193 0.01192,10.02518 -0.112491,11.416582 -1.226867,13.71857 -0.682086,1.409002 -1.907652,2.999181 -2.72348,3.533734 -1.107827,0.72588 -1.483322,1.509522 -1.483322,3.095658 0,4.464807 -2.767594,8.689548 -6.960004,10.624471 -2.056434,0.949103 -4.010736,1.119302 -12.981922,1.130596 -5.808577,0.0073 -10.302319,-0.20733 -9.986093,-0.476979 z M 88.584759,83.21143 c 1.544322,-2.291615 1.866836,-5.504571 0.552552,-5.504571 -0.495486,0 -0.980756,0.9398 -1.203034,2.32984 -0.204903,1.28141 -0.962393,3.079693 -1.683305,3.996187 -1.208952,1.536932 -1.222933,1.64943 -0.179991,1.448582 0.621915,-0.119772 1.753116,-1.141289 2.513778,-2.270038 z m 5.231424,-7.863643 c 3.814185,-2.514644 4.011056,-3.351539 4.015444,-17.0697 0.0036,-11.958972 -0.05217,-12.552847 -1.369814,-14.525227 -3.630459,-5.434464 -11.8284,-5.399483 -14.484096,0.0618 -0.862042,1.77274 -1.034801,4.102627 -1.059131,14.28361 -0.01731,7.240694 0.23592,12.925499 0.625535,14.043148 1.39234,3.994057 8.328517,5.806302 12.272062,3.206366 z M 87.09041,70.350873 c -0.959488,-0.959488 -0.975751,-3.679246 -0.02766,-4.627326 0.998525,-0.998525 3.812055,-0.913286 4.68789,0.142032 0.396339,0.47756 0.633947,1.771213 0.528016,2.874785 -0.17397,1.812439 -0.397707,2.0238 -2.313451,2.185465 -1.166472,0.09843 -2.460125,-0.160298 -2.874784,-0.574956 z m -0.02767,-9.711155 c -0.998525,-0.998527 -0.913286,-3.812054 0.142033,-4.687888 0.477559,-0.396339 1.771212,-0.633948 2.874784,-0.528019 1.782681,0.171116 2.027976,0.416407 2.199089,2.199092 0.105931,1.103571 -0.131677,2.397224 -0.528016,2.874784 -0.875835,1.055316 -3.689365,1.140558 -4.68789,0.142031 z M 87.0904,50.378684 c -0.959475,-0.959486 -0.975738,-3.679244 -0.02766,-4.627324 0.998525,-0.998527 3.812055,-0.913285 4.68789,0.14203 0.396339,0.477561 0.633947,1.771214 0.528016,2.874785 -0.17397,1.812445 -0.397707,2.023801 -2.313451,2.185466 -1.166473,0.09844 -2.460126,-0.160296 -2.874784,-0.574957 z"
         id="path4536" />
    </g>
  </g>
</svg>
