<?xml version="1.0" encoding="UTF-8" standalone="no"?>
<!-- Created with Inkscape (http://www.inkscape.org/) -->

<svg
   width="100mm"
   height="100mm"
   viewBox="0 0 100 100"
   version="1.1"
   id="svg5"
   inkscape:version="1.1.1 (3bf5ae0d25, 2021-09-20)"
   sodipodi:docname="add_list_type_device_6061.svg"
   xmlns:inkscape="http://www.inkscape.org/namespaces/inkscape"
   xmlns:sodipodi="http://sodipodi.sourceforge.net/DTD/sodipodi-0.dtd"
   xmlns="http://www.w3.org/2000/svg"
   xmlns:svg="http://www.w3.org/2000/svg">
  <sodipodi:namedview
     id="namedview7"
     pagecolor="#505050"
     bordercolor="#ffffff"
     borderopacity="1"
     inkscape:pageshadow="0"
     inkscape:pageopacity="0"
     inkscape:pagecheckerboard="1"
     inkscape:document-units="mm"
     showgrid="false"
     width="100mm"
     inkscape:zoom="0.58974467"
     inkscape:cx="397.62971"
     inkscape:cy="191.60835"
     inkscape:window-width="1440"
     inkscape:window-height="890"
     inkscape:window-x="-6"
     inkscape:window-y="-6"
     inkscape:window-maximized="1"
     inkscape:current-layer="layer1" />
  <defs
     id="defs2" />
  <g
     inkscape:label="Laag 1"
     inkscape:groupmode="layer"
     id="layer1">
    <g
       id="g259"
       transform="translate(-1.3459194,-1.3459215)">
      <path
         style="fill:#a3a3a3;fill-opacity:1;stroke-width:0.44944"
         d="M 5.5650435,97.180023 4.2294613,95.844441 V 84.180839 72.517237 l 1.3429975,-1.342998 1.3429981,-1.342998 11.6571861,0.09612 11.657186,0.09612 1.245876,1.246108 1.245876,1.246104 0.09055,11.662532 0.09055,11.662532 -1.337423,1.33742 -1.337423,1.337425 H 18.564226 6.9006259 Z M 16.766467,93.852928 c 0,-1.889198 -0.108517,-2.068704 -1.75991,-2.911184 -2.534529,-1.29302 -3.781213,-3.267567 -3.966361,-6.282072 -0.121937,-1.985337 0.0607,-2.870266 0.885363,-4.289912 2.922147,-5.030409 10.402283,-5.030409 13.25135,0 2.613435,4.614367 -0.170521,11.126651 -6.050883,14.154348 -1.050566,0.540914 -1.910119,1.092485 -1.910119,1.225703 0,0.5486 4.956482,-0.321803 6.571887,-1.154081 2.052395,-1.057419 4.233156,-3.270407 5.39139,-5.471053 1.147391,-2.180044 1.147391,-7.707632 0,-9.887676 -1.155006,-2.194516 -3.325896,-4.400564 -5.4464,-5.534604 -1.378145,-0.737032 -2.584536,-0.961438 -5.168558,-0.961438 -2.584021,0 -3.790413,0.224406 -5.168558,0.961438 -7.7165238,4.126783 -8.670717,14.480169 -1.816359,19.708242 1.226977,0.935859 3.935254,2.235837 5.074798,2.435909 0.0618,0.01083 0.11236,-0.886277 0.11236,-1.99362 z"
         id="path267" />
      <path
         style="fill:#767676;fill-opacity:1;stroke-width:0.44944"
         d="m 41.415181,78.899921 -2.510243,-4.382038 -2.979319,-0.132895 c -3.826962,-0.170706 -3.898569,-0.990705 -0.08651,-0.990705 h 2.892804 l 2.476817,-4.35784 2.476816,-4.357845 -1.57314,-2.720833 C 41.247174,60.461306 40.209122,58.579623 39.805618,57.776249 L 39.071974,56.31557 h -5.056761 -5.056761 l -2.479906,4.363279 -2.479906,4.363278 1.360736,2.378319 c 0.748405,1.308076 1.194207,2.375406 0.990672,2.371842 -0.203536,-0.0036 -0.926188,-1.014799 -1.605893,-2.247199 L 23.508326,65.304366 H 18.435419 13.362513 L 10.794811,60.822907 C 9.3825755,58.358103 8.2271102,56.122652 8.2271102,55.85524 c 0,-0.267412 1.1031177,-2.396836 2.4513728,-4.732053 l 2.451373,-4.245853 -2.451373,-4.245852 C 9.3302279,40.296264 8.2271102,38.166839 8.2271102,37.899426 c 0,-0.267413 1.1519844,-2.496787 2.5599648,-4.954164 l 2.559966,-4.467958 5.13744,-0.125862 5.13744,-0.125861 2.503537,-4.368541 2.503537,-4.368541 5.13694,-0.125858 5.13694,-0.125857 2.511275,-4.382038 2.511275,-4.382038 h 5.200709 5.200711 l 2.511272,4.382038 2.511277,4.382038 5.136939,0.125857 5.13694,0.125858 2.503537,4.368541 2.503538,4.368541 5.137438,0.125861 5.137444,0.125862 2.559964,4.467958 c 1.407978,2.457377 2.559964,4.677622 2.559964,4.933877 0,0.256255 -1.011239,2.244483 -2.247199,4.418285 -1.235959,2.173802 -2.247199,4.234762 -2.247199,4.57991 0,0.345147 1.01124,2.406107 2.247199,4.579908 1.23596,2.173801 2.247199,4.162033 2.247199,4.418286 0,0.256257 -1.151986,2.476499 -2.559964,4.933878 l -2.559964,4.467958 -5.137444,0.125861 -5.137438,0.125861 -2.503538,4.368542 -2.503537,4.368541 -5.13694,0.125857 -5.136939,0.125857 -2.511277,4.382038 -2.511272,4.382038 H 49.126134 43.925425 Z M 55.086574,80.9224 c 0.403502,-0.803373 1.441555,-2.685057 2.306781,-4.181516 l 1.573138,-2.720832 -2.476813,-4.357845 -2.476818,-4.357841 h -4.886728 -4.886728 l -2.476816,4.357841 -2.476816,4.357845 1.573139,2.720832 c 0.865227,1.496459 1.90328,3.378143 2.306784,4.181516 l 0.733643,1.46068 h 5.226794 5.226797 z m 15.280954,-8.988796 c 0.403502,-0.803374 1.441555,-2.685057 2.306781,-4.181516 l 1.573138,-2.720833 -2.476813,-4.357845 -2.476818,-4.35784 h -5.05676 -5.056764 l -0.733643,1.460679 c -0.403503,0.803374 -1.441556,2.685057 -2.306782,4.181516 l -1.573138,2.720833 2.476814,4.357845 2.476817,4.35784 h 5.05676 5.056765 z M 25.92777,60.047646 28.404587,55.689801 26.831447,52.968969 C 25.96622,51.47251 24.928168,49.590826 24.524664,48.787453 l -0.733644,-1.46068 -5.197676,0.0098 -5.197676,0.0098 -2.383171,4.259862 -2.3831718,4.259863 2.3831718,4.259863 2.383171,4.259862 5.027643,0.0098 5.027643,0.0098 2.476816,-4.357841 z m 30.759659,-0.235421 2.503474,-4.368541 5.142522,-0.125857 5.142522,-0.125857 2.264174,-3.98307 c 2.589138,-4.554745 2.60614,-4.24984 -0.537107,-9.631825 l -1.891737,-3.239098 h -5.05245 -5.05245 L 56.694171,33.955939 54.181959,29.5739 h -5.055825 -5.055823 l -2.504473,4.368541 -2.504473,4.368542 -5.142523,0.125857 -5.142522,0.125857 -2.264171,3.98307 c -2.589139,4.554745 -2.606141,4.24984 0.537107,9.631824 l 1.891736,3.239099 h 5.051831 c 5.039874,0 5.053505,0.0031 5.759623,1.23596 0.389285,0.679777 1.557976,2.70876 2.597088,4.508852 l 1.889296,3.272897 4.972563,-0.126818 4.972562,-0.126814 z m 30.552344,0.313768 2.383168,-4.259863 -2.383168,-4.259863 -2.383173,-4.259862 -5.197677,-0.0098 -5.197677,-0.0098 -0.733643,1.46068 c -0.403503,0.803373 -1.441556,2.685057 -2.306782,4.181516 l -1.573138,2.720832 2.476814,4.357845 2.476818,4.357841 5.02764,-0.0098 5.027645,-0.0098 2.383173,-4.259862 z M 24.524664,44.967214 c 0.403504,-0.803373 1.441556,-2.685055 2.306783,-4.181514 l 1.57314,-2.720835 -2.476817,-4.357842 -2.476816,-4.357843 -5.027643,0.0098 -5.027643,0.0098 -2.383171,4.259862 -2.3831718,4.259862 2.3831718,4.259862 2.383171,4.259862 5.197676,0.0098 5.197676,0.0098 z m 62.715109,-2.818815 2.383168,-4.259862 -2.383168,-4.259862 -2.383173,-4.259862 -5.027645,-0.0098 -5.02764,-0.0098 -2.476818,4.357843 -2.476814,4.357842 1.573138,2.720835 c 0.865226,1.496459 1.903279,3.378141 2.306782,4.181514 l 0.733643,1.46068 5.197677,-0.0098 5.197677,-0.0098 2.383173,-4.259861 z M 39.805618,35.978418 c 0.403504,-0.803374 1.441556,-2.685055 2.306783,-4.181515 l 1.57314,-2.720834 -2.476816,-4.357843 -2.476817,-4.357842 h -5.056761 -5.056761 l -0.733643,1.460679 c -0.403504,0.803374 -1.441557,2.685055 -2.306784,4.181515 l -1.573139,2.720834 2.476816,4.357843 2.476816,4.357842 h 5.056761 5.056761 z m 31.965016,-2.897163 2.476813,-4.357843 -1.573138,-2.720834 C 71.809083,24.506118 70.77103,22.624437 70.367528,21.821063 L 69.633885,20.360384 H 64.57712 59.52036 l -2.476817,4.357842 -2.476814,4.357843 1.573138,2.720834 c 0.865226,1.49646 1.903279,3.378141 2.306782,4.181515 l 0.733643,1.460679 h 5.056764 5.05676 z M 56.48968,24.092459 58.966493,19.734616 57.393355,17.013781 c -0.865226,-1.496459 -1.903279,-3.37814 -2.306781,-4.181514 l -0.733643,-1.46068 H 49.126134 43.89934 l -0.733643,1.46068 c -0.403504,0.803374 -1.441557,2.685055 -2.306784,4.181514 l -1.573139,2.720835 2.476816,4.357843 2.476816,4.357842 h 4.886728 4.886728 z"
         id="path265" />
      <path
         style="fill:#606060;fill-opacity:1;stroke-width:0.44944"
         d="m 43.104992,82.457988 c -0.127311,-0.205996 0.0541,-0.374536 0.403144,-0.374536 0.349041,0 0.530456,0.16854 0.403145,0.374536 -0.12731,0.205992 -0.308726,0.374531 -0.403145,0.374531 -0.09442,0 -0.275834,-0.168539 -0.403144,-0.374531 z m 11.235997,0 c -0.127313,-0.205996 0.0541,-0.374536 0.403143,-0.374536 0.349039,0 0.530456,0.16854 0.403143,0.374536 -0.127308,0.205992 -0.308725,0.374531 -0.403143,0.374531 -0.09442,0 -0.275835,-0.168539 -0.403143,-0.374531 z M 41.239026,79.201549 c -0.1139,-0.184293 0.09139,-0.291273 0.456202,-0.237731 0.939146,0.137839 1.276926,0.572811 0.444819,0.572811 -0.381662,0 -0.787121,-0.150787 -0.901021,-0.33508 z m 14.899722,0.11036 c -0.127313,-0.205996 0.0541,-0.374536 0.403143,-0.374536 0.34904,0 0.530456,0.16854 0.403143,0.374536 -0.127308,0.205992 -0.308724,0.374532 -0.403143,0.374532 -0.09442,0 -0.275834,-0.16854 -0.403143,-0.374532 z M 39.441267,76.05547 c -0.1139,-0.184293 0.09139,-0.291273 0.456202,-0.237731 0.939146,0.137839 1.276926,0.572811 0.444818,0.572811 -0.381661,0 -0.78712,-0.150787 -0.90102,-0.33508 z m 18.495241,0.11036 c -0.127313,-0.205996 0.0541,-0.374536 0.403143,-0.374536 0.349039,0 0.530455,0.16854 0.403143,0.374536 -0.127309,0.205992 -0.308725,0.374532 -0.403143,0.374532 -0.09442,0 -0.275835,-0.16854 -0.403143,-0.374532 z m 11.685435,-2.696639 c -0.127313,-0.205996 0.0541,-0.374536 0.403143,-0.374536 0.349039,0 0.530456,0.16854 0.403143,0.374536 -0.127308,0.205992 -0.308725,0.374532 -0.403143,0.374532 -0.09442,0 -0.275835,-0.16854 -0.403143,-0.374532 z m 1.797759,-3.146078 c -0.127313,-0.205997 0.0541,-0.374537 0.403143,-0.374537 0.34904,0 0.530456,0.16854 0.403143,0.374537 -0.127308,0.205991 -0.308724,0.374531 -0.403143,0.374531 -0.09442,0 -0.275834,-0.16854 -0.403143,-0.374531 z M 24.228519,67.177034 c -0.127311,-0.205996 0.0541,-0.374536 0.403145,-0.374536 0.34904,0 0.530456,0.16854 0.403145,0.374536 -0.127311,0.205992 -0.308726,0.374531 -0.403145,0.374531 -0.09442,0 -0.275834,-0.168539 -0.403145,-0.374531 z m 48.988943,0 c -0.127313,-0.205996 0.0541,-0.374536 0.403143,-0.374536 0.349039,0 0.530455,0.16854 0.403143,0.374536 -0.127309,0.205992 -0.308725,0.374531 -0.403143,0.374531 -0.09442,0 -0.275835,-0.168539 -0.403143,-0.374531 z M 12.543084,64.480395 c -0.127311,-0.205996 0.0541,-0.374536 0.403144,-0.374536 0.349041,0 0.530456,0.16854 0.403145,0.374536 -0.12731,0.205992 -0.308726,0.374531 -0.403145,0.374531 -0.09442,0 -0.275834,-0.168539 -0.403144,-0.374531 z m 72.359813,0 c -0.127313,-0.205996 0.0541,-0.374536 0.403143,-0.374536 0.34904,0 0.530456,0.16854 0.403143,0.374536 -0.127308,0.205992 -0.308725,0.374531 -0.403143,0.374531 -0.09442,0 -0.275835,-0.168539 -0.403143,-0.374531 z M 42.137906,62.572276 c -0.1139,-0.184293 0.09139,-0.291273 0.456201,-0.237732 0.939147,0.137839 1.276927,0.572811 0.444819,0.572811 -0.381661,0 -0.78712,-0.150787 -0.90102,-0.335079 z m 12.657053,-0.04679 c 0.129803,-0.210023 0.424276,-0.265507 0.654389,-0.123286 0.588038,0.363426 0.521827,0.505152 -0.236005,0.505152 -0.359916,0 -0.548187,-0.171838 -0.418384,-0.381866 z m -44.049635,-1.19117 c -0.127311,-0.205996 0.0541,-0.374536 0.403145,-0.374536 0.34904,0 0.530456,0.16854 0.403145,0.374536 -0.127311,0.205992 -0.308726,0.374532 -0.403145,0.374532 -0.09442,0 -0.275834,-0.16854 -0.403145,-0.374532 z m 75.955332,0 c -0.127313,-0.205996 0.0541,-0.374536 0.403143,-0.374536 0.34904,0 0.530456,0.16854 0.403143,0.374536 -0.127308,0.205992 -0.308724,0.374532 -0.403143,0.374532 -0.09442,0 -0.275834,-0.16854 -0.403143,-0.374532 z M 40.340147,59.426197 c -0.1139,-0.184293 0.09139,-0.291273 0.456201,-0.237731 0.939147,0.137838 1.276927,0.572811 0.444819,0.572811 -0.381661,0 -0.787121,-0.150787 -0.90102,-0.33508 z m 16.252571,-0.04679 c 0.129803,-0.210023 0.424276,-0.265506 0.654389,-0.123286 0.588038,0.363426 0.521827,0.505153 -0.236005,0.505153 -0.359916,0 -0.548186,-0.171839 -0.418384,-0.381867 z M 8.947565,58.188237 c -0.1273111,-0.205996 0.054104,-0.374536 0.4031448,-0.374536 0.3490403,0 0.5304558,0.16854 0.4031448,0.374536 -0.1273106,0.205992 -0.3087261,0.374532 -0.4031448,0.374532 -0.094419,0 -0.2758343,-0.16854 -0.4031448,-0.374532 z m 79.550851,0 c -0.127313,-0.205996 0.0541,-0.374536 0.403143,-0.374536 0.349039,0 0.530455,0.16854 0.403143,0.374536 -0.127309,0.205992 -0.308725,0.374532 -0.403143,0.374532 -0.09442,0 -0.275835,-0.16854 -0.403143,-0.374532 z M 39.064564,56.233331 c 0.129803,-0.210023 0.424278,-0.265506 0.654389,-0.123286 0.588039,0.363427 0.521826,0.505153 -0.236005,0.505153 -0.359914,0 -0.548187,-0.171839 -0.418384,-0.381867 z m 19.325914,0 c 0.129802,-0.210023 0.424275,-0.265506 0.654389,-0.123286 0.588038,0.363427 0.521826,0.505153 -0.236006,0.505153 -0.359916,0 -0.548186,-0.171839 -0.418383,-0.381867 z M 8.9520958,53.536692 c 0.1298027,-0.210023 0.4242779,-0.265506 0.6543893,-0.123285 0.5880389,0.363426 0.5218259,0.505152 -0.2360049,0.505152 -0.3599146,0 -0.5481872,-0.171839 -0.4183844,-0.381867 z m 18.4270332,0 c 0.129802,-0.210023 0.424277,-0.265506 0.654389,-0.123285 0.588039,0.363426 0.521826,0.505152 -0.236005,0.505152 -0.359915,0 -0.548187,-0.171839 -0.418384,-0.381867 z m 42.696784,0 c 0.129803,-0.210023 0.424276,-0.265506 0.654389,-0.123285 0.588038,0.363426 0.521827,0.505152 -0.236005,0.505152 -0.359916,0 -0.548187,-0.171839 -0.418384,-0.381867 z m 18.427033,0 c 0.129803,-0.210023 0.424276,-0.265506 0.654389,-0.123285 0.588038,0.363426 0.521826,0.505152 -0.236006,0.505152 -0.359915,0 -0.548186,-0.171839 -0.418383,-0.381867 z M 10.749855,50.390614 c 0.129803,-0.210024 0.424278,-0.265507 0.654389,-0.123286 0.588039,0.363426 0.521826,0.505152 -0.236005,0.505152 -0.359914,0 -0.548187,-0.171839 -0.418384,-0.381866 z m 14.831514,0 c 0.129803,-0.210024 0.424278,-0.265507 0.65439,-0.123286 0.588039,0.363426 0.521825,0.505152 -0.236005,0.505152 -0.359915,0 -0.548187,-0.171839 -0.418385,-0.381866 z m 46.292303,0 c 0.129803,-0.210024 0.424276,-0.265507 0.654389,-0.123286 0.588038,0.363426 0.521827,0.505152 -0.236005,0.505152 -0.359916,0 -0.548186,-0.171839 -0.418384,-0.381866 z m 14.831515,0 c 0.129802,-0.210024 0.424275,-0.265507 0.654389,-0.123286 0.588038,0.363426 0.521826,0.505152 -0.236006,0.505152 -0.359916,0 -0.548186,-0.171839 -0.418383,-0.381866 z m -74.240501,-3.51328 c 0,-0.411988 0.216694,-0.749067 0.481542,-0.749067 0.264849,0 0.481543,0.337079 0.481543,0.749067 0,0.411988 -0.216694,0.749067 -0.481543,0.749067 -0.264848,0 -0.481542,-0.337079 -0.481542,-0.749067 z m -1.719362,-3.520612 c -0.127311,-0.205994 0.0541,-0.374534 0.403145,-0.374534 0.34904,0 0.530456,0.16854 0.403145,0.374534 -0.127311,0.205993 -0.308726,0.374533 -0.403145,0.374533 -0.09442,0 -0.275834,-0.16854 -0.403145,-0.374533 z m 14.831514,0 c -0.127311,-0.205994 0.0541,-0.374534 0.403145,-0.374534 0.349041,0 0.530456,0.16854 0.403145,0.374534 -0.12731,0.205993 -0.308726,0.374533 -0.403145,0.374533 -0.09442,0 -0.275834,-0.16854 -0.403145,-0.374533 z m 46.292304,0 c -0.127313,-0.205994 0.0541,-0.374534 0.403143,-0.374534 0.34904,0 0.530456,0.16854 0.403143,0.374534 -0.127308,0.205993 -0.308725,0.374533 -0.403143,0.374533 -0.09442,0 -0.275835,-0.16854 -0.403143,-0.374533 z m 14.831514,0 c -0.127313,-0.205994 0.0541,-0.374534 0.403143,-0.374534 0.34904,0 0.530456,0.16854 0.403143,0.374534 -0.127308,0.205993 -0.308724,0.374533 -0.403143,0.374533 -0.09442,0 -0.275834,-0.16854 -0.403143,-0.374533 z M 8.947565,40.210643 c -0.1273111,-0.205994 0.054104,-0.374534 0.4031448,-0.374534 0.3490403,0 0.5304558,0.16854 0.4031448,0.374534 -0.1273106,0.205993 -0.3087261,0.374533 -0.4031448,0.374533 -0.094419,0 -0.2758343,-0.16854 -0.4031448,-0.374533 z m 18.427033,0 c -0.127311,-0.205994 0.0541,-0.374534 0.403145,-0.374534 0.34904,0 0.530455,0.16854 0.403144,0.374534 -0.12731,0.205993 -0.308726,0.374533 -0.403144,0.374533 -0.09442,0 -0.275835,-0.16854 -0.403145,-0.374533 z m 42.696785,0 c -0.127313,-0.205994 0.0541,-0.374534 0.403143,-0.374534 0.349039,0 0.530456,0.16854 0.403143,0.374534 -0.127308,0.205993 -0.308725,0.374533 -0.403143,0.374533 -0.09442,0 -0.275835,-0.16854 -0.403143,-0.374533 z m 18.427033,0 c -0.127313,-0.205994 0.0541,-0.374534 0.403143,-0.374534 0.349039,0 0.530455,0.16854 0.403143,0.374534 -0.127309,0.205993 -0.308725,0.374533 -0.403143,0.374533 -0.09442,0 -0.275835,-0.16854 -0.403143,-0.374533 z M 39.060033,37.514004 c -0.127311,-0.205994 0.0541,-0.374533 0.403145,-0.374533 0.34904,0 0.530456,0.168539 0.403145,0.374533 -0.127311,0.205993 -0.308726,0.374533 -0.403145,0.374533 -0.09442,0 -0.275834,-0.16854 -0.403145,-0.374533 z m 19.325914,0 c -0.127312,-0.205994 0.0541,-0.374533 0.403143,-0.374533 0.34904,0 0.530456,0.168539 0.403143,0.374533 -0.127308,0.205993 -0.308724,0.374533 -0.403143,0.374533 -0.09442,0 -0.275834,-0.16854 -0.403143,-0.374533 z M 8.9520958,35.5591 c 0.1298027,-0.210025 0.4242779,-0.265505 0.6543893,-0.123289 0.5880389,0.363429 0.5218259,0.505154 -0.2360049,0.505154 -0.3599146,0 -0.5481872,-0.17184 -0.4183844,-0.381865 z m 79.5508502,0 c 0.129803,-0.210025 0.424276,-0.265505 0.654389,-0.123289 0.588038,0.363429 0.521826,0.505154 -0.236006,0.505154 -0.359915,0 -0.548186,-0.17184 -0.418383,-0.381865 z M 40.333884,34.396099 c 0.153401,-0.153401 0.594961,-0.325298 0.981245,-0.381992 0.386284,-0.05669 0.576824,0.02243 0.423422,0.175831 -0.153401,0.153401 -0.594962,0.325297 -0.981245,0.381992 -0.386284,0.05669 -0.576824,-0.02243 -0.423422,-0.175831 z m 16.254304,-0.02817 c -0.127313,-0.205994 0.0541,-0.374534 0.403143,-0.374534 0.34904,0 0.530456,0.16854 0.403143,0.374534 -0.127308,0.205994 -0.308725,0.374534 -0.403143,0.374534 -0.09442,0 -0.275835,-0.16854 -0.403143,-0.374534 z M 10.749855,32.413021 c 0.129803,-0.210025 0.424278,-0.265505 0.654389,-0.123288 0.588039,0.363428 0.521826,0.505153 -0.236005,0.505153 -0.359914,0 -0.548187,-0.171839 -0.418384,-0.381865 z m 75.955332,0 c 0.129802,-0.210025 0.424275,-0.265505 0.654389,-0.123288 0.588038,0.363428 0.521826,0.505153 -0.236006,0.505153 -0.359916,0 -0.548186,-0.171839 -0.418383,-0.381865 z m -44.573544,-1.163 c 0.153401,-0.153402 0.594962,-0.325298 0.981245,-0.381993 0.386284,-0.05669 0.576824,0.02243 0.423422,0.175831 -0.153401,0.153401 -0.594961,0.325298 -0.981245,0.381992 -0.386284,0.05669 -0.576824,-0.02243 -0.423422,-0.17583 z m 12.658786,-0.02818 c -0.127313,-0.205993 0.0541,-0.374533 0.403143,-0.374533 0.349039,0 0.530456,0.16854 0.403143,0.374533 -0.127308,0.205995 -0.308725,0.374535 -0.403143,0.374535 -0.09442,0 -0.275835,-0.16854 -0.403143,-0.374534 z M 12.547614,29.266942 c 0.129803,-0.210025 0.424278,-0.265505 0.65439,-0.123288 0.588039,0.363428 0.521825,0.505153 -0.236005,0.505153 -0.359915,0 -0.548187,-0.171839 -0.418385,-0.381865 z m 72.359813,0 c 0.129803,-0.210025 0.424276,-0.265505 0.654389,-0.123288 0.588038,0.363428 0.521827,0.505153 -0.236005,0.505153 -0.359916,0 -0.548186,-0.171839 -0.418384,-0.381865 z M 24.23305,26.570303 c 0.129802,-0.210025 0.424278,-0.265505 0.654389,-0.123288 0.588039,0.363428 0.521826,0.505153 -0.236005,0.505153 -0.359914,0 -0.548187,-0.171839 -0.418384,-0.381865 z m 48.988942,0 c 0.129803,-0.210025 0.424276,-0.265505 0.654389,-0.123288 0.588038,0.363428 0.521826,0.505153 -0.236006,0.505153 -0.359915,0 -0.548186,-0.171839 -0.418383,-0.381865 z M 26.030809,23.424225 c 0.129803,-0.210025 0.424278,-0.265506 0.654389,-0.123289 0.588039,0.363428 0.521826,0.505153 -0.236004,0.505153 -0.359915,0 -0.548188,-0.171839 -0.418385,-0.381864 z m 45.393424,0 c 0.129802,-0.210025 0.424275,-0.265506 0.654389,-0.123289 0.588038,0.363428 0.521826,0.505153 -0.236006,0.505153 -0.359916,0 -0.548186,-0.171839 -0.418383,-0.381864 z M 27.828568,20.278146 c 0.129803,-0.210025 0.424278,-0.265505 0.65439,-0.123289 0.588039,0.363429 0.521825,0.505154 -0.236005,0.505154 -0.359915,0 -0.548187,-0.17184 -0.418385,-0.381865 z m 41.797905,0 c 0.129803,-0.210025 0.424276,-0.265505 0.654389,-0.123289 0.588038,0.363429 0.521827,0.505154 -0.236005,0.505154 -0.359916,0 -0.548186,-0.17184 -0.418384,-0.381865 z m -30.191469,-2.51132 c 0.153401,-0.153402 0.594962,-0.325298 0.981245,-0.381993 0.386284,-0.05669 0.576824,0.02243 0.423422,0.175831 -0.153401,0.153402 -0.594961,0.325298 -0.981245,0.381993 -0.386283,0.05669 -0.576823,-0.02243 -0.423422,-0.175831 z m 18.506034,-0.185319 c 0.129803,-0.210025 0.424276,-0.265505 0.654389,-0.123289 0.588038,0.363429 0.521826,0.505154 -0.236006,0.505154 -0.359915,0 -0.548186,-0.17184 -0.418383,-0.381865 z m -16.708275,-2.96076 c 0.153402,-0.153401 0.594962,-0.325298 0.981246,-0.381992 0.386283,-0.05669 0.576823,0.02243 0.423422,0.17583 -0.153402,0.153402 -0.594962,0.325298 -0.981246,0.381993 -0.386283,0.05669 -0.576823,-0.02243 -0.423422,-0.175831 z m 14.910516,-0.185319 c 0.129802,-0.210025 0.424275,-0.265505 0.654389,-0.123288 0.588038,0.363428 0.521826,0.505153 -0.236006,0.505153 -0.359916,0 -0.548186,-0.171839 -0.418383,-0.381865 z M 43.109522,11.289349 c 0.129803,-0.210025 0.424278,-0.265505 0.65439,-0.123288 0.588039,0.363428 0.521825,0.505153 -0.236005,0.505153 -0.359915,0 -0.548187,-0.171839 -0.418385,-0.381865 z m 11.235997,0 c 0.129803,-0.210025 0.424276,-0.265505 0.654389,-0.123288 0.588038,0.363428 0.521827,0.505153 -0.236005,0.505153 -0.359916,0 -0.548186,-0.171839 -0.418384,-0.381865 z"
         id="path263" />
      <path
         style="fill:#333333;fill-opacity:1;stroke-width:0.44944"
         d="m 17.463099,95.446745 c 0.249859,-0.245507 1.079471,-0.26459 2.000007,-0.04601 l 1.573039,0.373525 -2.000007,0.046 c -1.243123,0.02858 -1.838425,-0.112765 -1.573039,-0.373525 z m -3.955071,-0.736416 c -0.679778,-0.368788 -1.235959,-0.770381 -1.235959,-0.892431 0,-0.122049 0.556181,0.05891 1.235959,0.402128 0.679778,0.343223 1.539332,0.736946 1.910119,0.874942 0.599253,0.223026 0.599253,0.252846 0,0.268392 -0.370787,0.0096 -1.230341,-0.284248 -1.910119,-0.653031 z m 6.144201,-0.298343 c 2.343147,-1.542199 4.549959,-3.936342 5.49501,-5.961469 0.576776,-1.235959 1.050659,-1.984344 1.053074,-1.66308 0.01397,1.858101 -3.620542,6.383506 -6.063047,7.549232 -0.741576,0.353929 -0.959843,0.387821 -0.485037,0.07532 z m 2.994409,0.391565 c 0.102997,-0.09011 0.692886,-0.404639 1.310866,-0.69895 1.05945,-0.504564 1.073791,-0.495207 0.251178,0.163838 -0.715956,0.573602 -2.178821,1.074737 -1.562044,0.535112 z m -12.425322,-2.645155 -1.320046,-1.46068 1.460679,1.320046 c 0.803374,0.726025 1.46068,1.38333 1.46068,1.460679 0,0.347219 -0.370846,0.04153 -1.601313,-1.320045 z m 15.084508,1.320045 c 0,-0.07735 0.657305,-0.734654 1.460679,-1.460679 l 1.460679,-1.320046 -1.320045,1.46068 c -1.230468,1.36156 -1.601313,1.667264 -1.601313,1.320045 z m -9.213517,-1.240629 c -0.247192,-0.240594 -1.136585,-0.887788 -1.976428,-1.438208 -0.839844,-0.550424 -1.822659,-1.506387 -2.184035,-2.124367 -0.566506,-0.968772 -0.519642,-0.951095 0.340097,0.128257 0.548427,0.688524 1.784053,1.653309 2.745833,2.143976 0.961781,0.490663 1.748693,1.090251 1.748693,1.332418 0,0.531211 -0.09098,0.52553 -0.67416,-0.04207 z m -7.8857978,-2.70219 c -0.2759165,-0.515552 -0.4170095,-1.022026 -0.31354,-1.125496 0.1034696,-0.10347 0.4188919,0.318347 0.7009383,0.93737 0.61936,1.359349 0.3177949,1.505794 -0.3873983,0.188126 z m 20.2814778,0.03849 c 0.655199,-1.375749 0.862795,-1.630721 0.862795,-1.059689 0,0.241147 -0.314529,0.831036 -0.698954,1.310867 -0.659048,0.822614 -0.668402,0.808273 -0.163841,-0.251178 z M 7.0134717,84.180839 c 0,-1.359556 0.084255,-1.915737 0.1872321,-1.23596 0.1029779,0.679778 0.1029779,1.792142 0,2.471919 -0.1029774,0.679778 -0.1872321,0.123596 -0.1872321,-1.235959 z m 22.9214313,0 c 0,-1.359556 0.08425,-1.915737 0.187232,-1.23596 0.102978,0.679778 0.102978,1.792142 0,2.471919 -0.102978,0.679778 -0.187232,0.123596 -0.187232,-1.235959 z m -19.338182,0 c 0,-1.112364 0.08765,-1.567421 0.194773,-1.01124 0.107125,0.556182 0.107125,1.466298 0,2.02248 -0.107125,0.556181 -0.194773,0.101123 -0.194773,-1.01124 z m 15.730393,0 c 0,-1.112364 0.08765,-1.567421 0.194774,-1.01124 0.107125,0.556182 0.107125,1.466298 0,2.02248 -0.107126,0.556181 -0.194774,0.101123 -0.194774,-1.01124 z m 15.658615,-5.839176 c -1.263807,-2.222781 -2.297831,-4.178105 -2.297831,-4.345162 0,-0.167057 1.061801,-2.191078 2.359559,-4.497818 L 44.407016,65.3046 h 4.719118 4.719118 l 2.359559,4.194083 c 1.297758,2.30674 2.35956,4.355728 2.35956,4.553301 0,0.197574 -1.02644,2.152898 -2.280975,4.345162 L 54.002421,82.38308 H 49.142988 44.28356 Z m 13.35241,-0.139628 c 1.032853,-1.805193 1.877912,-3.766431 1.877912,-4.358312 0,-0.591881 -0.845059,-2.553119 -1.877912,-4.358312 l -1.877913,-3.282165 h -4.313809 -4.313813 l -1.998069,3.369855 c -1.098938,1.853422 -1.998068,3.7752 -1.998068,4.270622 0,0.495422 0.89913,2.4172 1.998068,4.270622 l 1.998069,3.369855 h 4.313813 4.313809 z M 10.932822,81.70892 c -0.0196,-1.541588 3.617899,-5.179084 5.159485,-5.159484 0.247192,0.0031 -0.355429,0.461566 -1.339159,1.018718 -1.002856,0.567989 -2.233619,1.798753 -2.801605,2.801606 -0.557154,0.983729 -1.015578,1.586352 -1.018721,1.33916 z m 14.137535,-1.47596 c -0.493171,-0.914714 -1.687615,-2.098772 -2.685892,-2.66254 -0.988768,-0.558398 -1.574859,-1.018597 -1.302424,-1.022665 1.440124,-0.02148 5.791212,4.417711 5.053292,5.155628 -0.09726,0.09726 -0.576503,-0.564429 -1.064976,-1.470423 z M 7.7776704,79.84725 c 0,-0.241147 0.3145292,-0.831036 0.6989535,-1.310867 0.6590487,-0.822615 0.6684029,-0.808273 0.1638415,0.251178 -0.6551988,1.375749 -0.862795,1.630721 -0.862795,1.059689 z M 28.51674,78.899921 c -0.490429,-1.14609 -0.479335,-1.172526 0.152578,-0.363538 0.374805,0.479831 0.681464,1.036012 0.681464,1.235959 0,0.683108 -0.304869,0.364208 -0.834042,-0.872421 z M 9.1259899,77.298607 c 0,-0.07735 0.6573057,-0.734654 1.4606791,-1.460679 l 1.46068,-1.320045 -1.320046,1.460679 c -1.2304677,1.36156 -1.6013131,1.667265 -1.6013131,1.320045 z m 17.2751591,-1.320045 -1.320045,-1.460679 1.460679,1.320045 c 1.361558,1.230467 1.667265,1.601314 1.320046,1.601314 -0.07735,0 -0.734655,-0.657306 -1.46068,-1.46068 z m -8.848162,0.244617 c 0.556181,-0.107129 1.466297,-0.107129 2.022479,0 0.556182,0.107124 0.101124,0.194773 -1.01124,0.194773 -1.112363,0 -1.567421,-0.08765 -1.011239,-0.194773 z M 12.91977,74.093238 c 0.479831,-0.384428 1.069721,-0.698955 1.310866,-0.698955 0.571032,0 0.316062,0.207596 -1.059688,0.862794 -1.05945,0.504564 -1.073791,0.495207 -0.251178,-0.163839 z m 10.588294,-0.02479 c -0.61798,-0.353269 -0.909445,-0.649477 -0.647701,-0.658232 0.261744,-0.0088 0.868488,0.281013 1.348319,0.64394 1.109657,0.839302 0.755232,0.846533 -0.700618,0.01429 z m 9.438237,-1.1236 c 0,-0.249007 1.186373,-0.449439 2.660242,-0.449439 h 2.660241 l 2.082414,-3.820239 2.082414,-3.820239 -2.082414,-3.820238 -2.082414,-3.820239 h -4.452351 -4.452351 l -1.581801,3.033719 c -0.869991,1.668546 -1.832176,3.387653 -2.138191,3.820239 -0.441491,0.624096 -0.44182,0.948943 -0.0016,1.573039 1.47223,2.087149 2.365337,4.157319 1.793538,4.157319 -0.322684,0 -1.171989,-1.081986 -1.887344,-2.404418 l -1.300646,-2.404418 2.440009,-4.337063 2.439988,-4.337062 4.780846,-1.17e-4 4.780847,-1.17e-4 2.29783,4.041417 c 1.263808,2.222781 2.297831,4.178105 2.297831,4.345161 0,0.167057 -1.061801,2.191078 -2.359559,4.497819 l -2.359559,4.194082 -2.808999,1.17e-4 c -1.573118,6.3e-5 -2.808998,-0.197623 -2.808998,-0.449323 z m 24.38211,-3.744876 c -1.297757,-2.306741 -2.359559,-4.355728 -2.359559,-4.553302 0,-0.197574 1.02644,-2.152898 2.280974,-4.345162 l 2.280975,-3.985933 4.797703,1.17e-4 4.797702,1.17e-4 2.359559,4.194082 c 1.297758,2.306741 2.35956,4.355728 2.35956,4.553302 0,0.197574 -1.02644,2.152898 -2.280975,4.345162 l -2.280975,3.985933 -4.797702,-1.17e-4 -4.797703,-1.17e-4 z m 13.051535,0.20796 c 0.951684,-1.761975 1.667619,-3.716651 1.667619,-4.553001 0,-0.836349 -0.715935,-2.791025 -1.667619,-4.553 l -1.667615,-3.087477 -4.287463,0.0013 -4.287458,0.0013 -2.185968,3.818769 -2.185967,3.818773 2.185967,3.818774 2.185968,3.818768 4.287458,0.0013 4.287463,0.0013 1.667615,-3.087476 z m -53.051679,3.215005 c 0.679777,-0.10298 1.792141,-0.10298 2.471919,0 0.679777,0.102976 0.123596,0.187232 -1.23596,0.187232 -1.359555,0 -1.915737,-0.08426 -1.235959,-0.187232 z M 11.406965,60.419553 C 10.152429,58.227289 9.1259899,56.178248 9.1259899,55.86613 c 0,-0.312118 1.0264391,-2.361159 2.2809751,-4.553423 l 2.280976,-3.985934 h 4.867355 4.867355 l 1.225463,2.13484 c 0.674005,1.174161 1.619834,2.792144 2.101842,3.595518 0.482008,0.803374 0.666668,1.46068 0.410354,1.46068 -0.256314,0 -1.307098,-1.415736 -2.335076,-3.146079 l -1.869051,-3.146079 -4.330818,0.01524 -4.330817,0.01524 -2.006428,3.456012 c -1.103535,1.900807 -2.006428,3.770113 -2.006428,4.154006 0,0.383894 0.902893,2.2532 2.006428,4.154006 l 2.006428,3.456013 4.330817,0.01524 4.330818,0.01524 1.855795,-3.123764 c 2.275883,-3.830881 3.480814,-4.799559 1.375897,-1.106125 -0.832788,1.461268 -1.826994,3.21175 -2.209346,3.889969 -0.689924,1.223784 -0.731491,1.233137 -5.492886,1.235959 l -4.797702,0.0028 z m 70.078837,3.536494 c 0,-0.247192 0.59615,-0.44944 1.324782,-0.44944 1.199519,0 1.521682,-0.361219 3.407194,-3.820238 l 2.082417,-3.820239 -2.082417,-3.820238 c -1.885512,-3.45902 -2.207675,-3.820239 -3.407194,-3.820239 -0.728632,0 -1.324782,-0.202248 -1.324782,-0.44944 0,-0.247192 0.692667,-0.44944 1.539264,-0.44944 1.465551,0 1.648491,0.190873 3.820238,3.985934 1.254535,2.192264 2.280975,4.241305 2.280975,4.553423 0,0.312118 -1.02644,2.361159 -2.280975,4.553423 -2.171747,3.795061 -2.354687,3.985934 -3.820238,3.985934 -0.846597,0 -1.539264,-0.202248 -1.539264,-0.44944 z M 11.406965,42.441958 c -1.254536,-2.192264 -2.2809751,-4.241304 -2.2809751,-4.553421 0,-0.312117 1.0264391,-2.361157 2.2809751,-4.553421 l 2.280976,-3.985936 4.797702,0.0028 c 4.761395,0.0028 4.802962,0.01217 5.492886,1.235959 0.382352,0.678215 1.376558,2.428701 2.209346,3.889969 2.104917,3.693434 0.899986,2.724755 -1.375897,-1.106124 L 22.956183,30.24806 h -4.398658 -4.398659 l -0.831038,2.020795 c -0.457072,1.111437 -0.978615,2.021552 -1.158985,2.022479 -0.18037,9.44e-4 -0.745968,0.821076 -1.256884,1.822555 l -0.9289395,1.820871 1.1251475,1.887008 c 0.618831,1.037854 1.578664,2.746561 2.132962,3.797127 l 1.007815,1.910119 h 4.353619 4.35362 l 1.869051,-3.146079 c 1.027978,-1.730343 2.078762,-3.146078 2.335076,-3.146078 0.256314,0 0.07165,0.657305 -0.410354,1.460679 -0.482008,0.803374 -1.427837,2.421357 -2.101842,3.595519 l -1.225463,2.134839 h -4.867355 -4.867355 z m 45.842861,-8.988796 c -1.254534,-2.192265 -2.280974,-4.147586 -2.280974,-4.34516 0,-0.845578 4.770372,-8.747393 5.280918,-8.7475 0.30899,-6.5e-5 0.5618,0.180492 0.5618,0.401237 0,0.220745 -0.25281,0.499169 -0.5618,0.618719 -0.30899,0.119551 -1.435506,1.860297 -2.503371,3.868324 l -1.941567,3.650959 1.941567,3.650958 c 1.067865,2.008027 2.194381,3.748773 2.503371,3.868324 0.766834,0.296694 0.711108,1.020074 -0.07858,1.020074 -0.352208,0 -1.666819,-1.793671 -2.921359,-3.985935 z m 7.606702,3.536495 c 0,-0.247192 0.899522,-0.449439 1.998942,-0.449439 h 1.998942 l 2.082412,-3.820239 2.082417,-3.820238 -2.082417,-3.820239 -2.082412,-3.820238 H 66.85547 c -1.09942,0 -1.998942,-0.202248 -1.998942,-0.44944 0,-0.247192 0.99604,-0.44944 2.213424,-0.44944 h 2.213423 l 2.280975,3.985935 c 1.254535,2.192265 2.280975,4.147586 2.280975,4.34516 0,0.197573 -1.061802,2.246559 -2.35956,4.553303 l -2.359559,4.194079 -2.134839,1.18e-4 c -1.174161,6.5e-5 -2.134839,-0.20213 -2.134839,-0.449322 z m -24.71919,-3.104601 c 0,-0.22438 0.53177,-1.432927 1.181712,-2.685662 l 1.181712,-2.277698 -1.228517,-2.510999 c -1.693289,-3.460959 -1.195113,-3.524843 0.644054,-0.08259 l 1.497744,2.803234 -1.456536,2.580839 c -1.424665,2.524368 -1.820169,2.996512 -1.820169,2.172877 z M 56.163944,23.057023 c 0.43806,-0.741576 0.966547,-1.34832 1.174418,-1.34832 0.20787,0 0.01955,0.606744 -0.418523,1.34832 -0.43806,0.741576 -0.966548,1.348319 -1.174418,1.348319 -0.20787,0 -0.01955,-0.606743 0.418523,-1.348319 z m 0.004,-6.285664 c -0.420069,-0.711119 -0.603414,-1.392046 -0.407426,-1.513171 0.195982,-0.121125 0.692816,0.366055 1.104067,1.082622 0.411255,0.716566 0.594595,1.397493 0.407426,1.51317 -0.187169,0.115677 -0.684003,-0.371503 -1.104067,-1.082621 z"
         id="path261" />
    </g>
  </g>
</svg>
