<?xml version="1.0" encoding="UTF-8" standalone="no"?>
<!-- Created with Inkscape (http://www.inkscape.org/) -->

<svg
   width="100mm"
   height="100mm"
   viewBox="0 0 100 100"
   version="1.1"
   id="svg4666"
   inkscape:version="1.1.1 (3bf5ae0d25, 2021-09-20)"
   sodipodi:docname="add_list_type_device_6160.svg"
   xmlns:inkscape="http://www.inkscape.org/namespaces/inkscape"
   xmlns:sodipodi="http://sodipodi.sourceforge.net/DTD/sodipodi-0.dtd"
   xmlns="http://www.w3.org/2000/svg"
   xmlns:svg="http://www.w3.org/2000/svg">
  <sodipodi:namedview
     id="namedview4668"
     pagecolor="#505050"
     bordercolor="#ffffff"
     borderopacity="1"
     inkscape:pageshadow="0"
     inkscape:pageopacity="0"
     inkscape:pagecheckerboard="1"
     inkscape:document-units="mm"
     showgrid="false"
     inkscape:zoom="0.58974467"
     inkscape:cx="397.62971"
     inkscape:cy="235.69522"
     inkscape:window-width="1440"
     inkscape:window-height="890"
     inkscape:window-x="-6"
     inkscape:window-y="-6"
     inkscape:window-maximized="1"
     inkscape:current-layer="layer1" />
  <defs
     id="defs4663" />
  <g
     inkscape:label="Laag 1"
     inkscape:groupmode="layer"
     id="layer1">
    <g
       id="g4682"
       transform="translate(-2.2432033,0.44864018)">
      <path
         style="fill:#d0d0d0;fill-opacity:1;stroke-width:0.605218"
         d="m 49.148144,92.580448 c 0.436891,-0.174829 0.958892,-0.153332 1.160001,0.04775 0.201108,0.201108 -0.156348,0.344151 -0.794348,0.317872 -0.705045,-0.02905 -0.848455,-0.17245 -0.365653,-0.365648 z m -0.635988,-2.435487 c 0.752839,-0.144762 1.842231,-0.139267 2.420871,0.01223 0.578642,0.15148 -0.03732,0.269928 -1.368796,0.26321 -1.331479,-0.0067 -1.804912,-0.130661 -1.052075,-0.275423 z M 33.854415,88.193957 c -0.402453,-0.651184 0.782112,-1.553867 1.325725,-1.010254 0.199767,0.19977 0.0294,0.363215 -0.378593,0.363215 -0.407993,0 -0.573485,0.272348 -0.36776,0.605218 0.205725,0.33287 0.237871,0.605218 0.07144,0.605218 -0.166435,0 -0.459299,-0.253532 -0.650808,-0.563397 z m 55.351581,0.374018 c 0,-0.104158 0.885131,-0.989289 1.966957,-1.966957 l 1.966958,-1.77758 -1.777579,1.966958 c -1.656953,1.833483 -2.156336,2.245146 -2.156336,1.777579 z M 63.786849,87.309062 c 0,-0.130824 0.422666,-0.400049 0.939262,-0.598288 0.538595,-0.206676 0.781529,-0.105217 0.569497,0.237856 -0.35542,0.575084 -1.508759,0.850604 -1.508759,0.360432 z M 87.99556,82.740896 c 0,-0.313224 0.269231,-0.735896 0.598288,-0.939262 0.343074,-0.212032 0.444533,0.03093 0.237857,0.569498 -0.402343,1.048492 -0.836145,1.240328 -0.836145,0.369764 z M 81.943382,82.47667 c 0,-0.125673 0.476609,-0.602282 1.059131,-1.059131 0.959912,-0.752812 0.981319,-0.731406 0.228506,0.228506 -0.790638,1.008142 -1.287637,1.328744 -1.287637,0.830625 z M 48.512156,81.066694 c 0.752839,-0.144762 1.842231,-0.139266 2.420871,0.01223 0.578642,0.15148 -0.03732,0.269927 -1.368796,0.263209 -1.331479,-0.0067 -1.804912,-0.130661 -1.052075,-0.275423 z m 25.563395,0.199541 c 0,-0.125674 0.476609,-0.602283 1.059131,-1.059131 0.959912,-0.752813 0.981319,-0.731406 0.228506,0.228506 -0.790638,1.008141 -1.287637,1.328743 -1.287637,0.830625 z m 4.225243,-3.856714 c 1.496898,-2.257674 1.571563,-2.294968 2.057862,-1.027696 0.212074,0.55266 0.107214,0.782764 -0.254767,0.559045 -0.338359,-0.209115 -1.175907,0.25335 -1.86122,1.027702 -1.15665,1.306926 -1.15248,1.266824 0.0581,-0.559051 z m -42.959181,0.453913 c -0.545478,-0.352515 -0.620126,-0.590384 -0.187022,-0.595952 0.396442,-0.0048 0.889124,0.263082 1.094849,0.595952 0.464387,0.751396 0.254871,0.751396 -0.907827,0 z m 27.678625,-0.0751 c 0.410543,-0.413618 0.898893,-0.599572 1.085234,-0.413231 0.18634,0.18634 -0.149556,0.524754 -0.746433,0.752031 -0.862557,0.32844 -0.932072,0.258925 -0.338801,-0.3388 z M 28.19312,72.392895 c -0.728505,-0.678704 -1.324556,-1.407047 -1.324556,-1.61854 0,-0.211494 0.68087,0.255111 1.513045,1.036901 1.418981,1.333065 1.77104,1.815654 1.324556,1.815654 -0.103668,0 -0.784538,-0.555306 -1.513045,-1.234015 z m 42.251124,-0.27903 c 0.781791,-0.832174 1.557607,-1.513044 1.724042,-1.513044 0.166435,0 -0.337034,0.68087 -1.118824,1.513044 -0.78179,0.832175 -1.557606,1.513045 -1.724041,1.513045 -0.166435,0 0.337033,-0.68087 1.118823,-1.513045 z M 50.358579,72.003044 c 0.436892,-0.17483 0.958892,-0.153332 1.160001,0.04775 0.201109,0.201114 -0.156348,0.344151 -0.794348,0.317873 -0.705044,-0.02905 -0.848455,-0.172451 -0.365653,-0.365649 z m 36.349344,-1.856137 c -0.752812,-0.959911 -0.731406,-0.981318 0.228506,-0.228506 0.582522,0.456849 1.059131,0.933458 1.059131,1.059131 0,0.498119 -0.496999,0.177517 -1.287637,-0.830625 z M 64.089458,65.759078 c 0.602488,-0.665739 1.231606,-1.210435 1.398041,-1.210435 0.166435,0 -0.190335,0.544696 -0.792823,1.210435 -0.602489,0.66574 -1.231606,1.210436 -1.398041,1.210436 -0.166435,0 0.190335,-0.544696 0.792823,-1.210436 z m 28.065425,-1.059131 c -0.752812,-0.959911 -0.731406,-0.981318 0.228506,-0.228506 1.008141,0.790639 1.328743,1.287637 0.830625,1.287637 -0.125673,0 -0.602282,-0.476609 -1.059131,-1.059131 z m -27.964554,-1.76522 c -0.221915,-0.221909 -0.40348,-0.684901 -0.40348,-1.02887 0,-0.37923 0.281892,-0.343498 0.716172,0.09078 0.3939,0.3939 0.575466,0.856892 0.403481,1.02887 -0.171985,0.171985 -0.494263,0.131133 -0.716173,-0.09078 z m 27.436538,-1.640676 c 0,-0.125677 0.476609,-0.602286 1.059131,-1.059131 0.959912,-0.752813 0.981318,-0.731406 0.228506,0.228503 -0.790639,1.00814 -1.287637,1.328743 -1.287637,0.830628 z m -5.44696,-5.44696 c 0,-0.125677 0.476609,-0.602286 1.059131,-1.059131 0.959912,-0.752813 0.981318,-0.731406 0.228506,0.228503 -0.790639,1.00814 -1.287637,1.328743 -1.287637,0.830628 z M 28.12678,51.486026 c 0.02904,-0.705044 0.172452,-0.848455 0.365653,-0.365653 0.17483,0.436892 0.153328,0.958892 -0.04778,1.160001 -0.201109,0.201109 -0.344152,-0.156348 -0.317873,-0.794348 z M 7.5493757,50.880808 c 0.029038,-0.705044 0.1724514,-0.848455 0.3656526,-0.365652 0.1748299,0.436891 0.1533283,0.958892 -0.047782,1.160001 -0.201109,0.201108 -0.3441516,-0.156349 -0.3178724,-0.794349 z M 86.707923,50.174721 c -0.752812,-0.95991 -0.731406,-0.981316 0.228506,-0.228503 0.582522,0.456845 1.059131,0.933454 1.059131,1.059131 0,0.498115 -0.496999,0.177512 -1.287637,-0.830628 z M 10.018028,49.418198 c 0,-0.832174 0.137368,-1.172609 0.305263,-0.756522 0.167895,0.416087 0.167895,1.096957 0,1.513045 -0.167895,0.416087 -0.305263,0.07565 -0.305263,-0.756523 z m 82.136855,-4.690437 c -0.752812,-0.95991 -0.731406,-0.981316 0.228506,-0.228503 1.008141,0.790637 1.328743,1.287634 0.830625,1.287634 -0.125673,0 -0.602282,-0.476609 -1.059131,-1.059131 z M 29.781175,41.742152 c 0.436892,-0.17483 0.958892,-0.153328 1.160001,0.04778 0.201108,0.201109 -0.156348,0.344152 -0.794348,0.317873 -0.705045,-0.02904 -0.848455,-0.172452 -0.365653,-0.365653 z m 66.641625,-1.250916 -1.467236,-1.664349 1.664349,1.467238 c 0.915392,0.806981 1.664349,1.555938 1.664349,1.664349 0,0.474657 -0.490105,0.08835 -1.861462,-1.467238 z M 74.345569,34.23502 c -0.223652,-0.361873 -0.134292,-0.9303 0.198578,-1.26317 0.403481,-0.403478 0.760033,-0.354729 1.06965,0.146246 0.320644,0.518814 0.216268,0.598089 -0.337149,0.25606 -0.58202,-0.359709 -0.695722,-0.219548 -0.415113,0.511706 0.434444,1.132142 0.105514,1.354731 -0.515966,0.349158 z M 39.416746,32.397 c 0.41054,-0.413616 0.898894,-0.599571 1.085233,-0.413233 0.186339,0.186339 -0.149556,0.524753 -0.746435,0.752031 -0.862555,0.328443 -0.932073,0.258925 -0.338798,-0.338798 z M 28.079,29.748621 c 0.781787,-0.832175 1.557605,-1.513045 1.72404,-1.513045 0.166435,0 -0.337035,0.68087 -1.118822,1.513045 -0.781787,0.832174 -1.557606,1.513044 -1.724041,1.513044 -0.166434,0 0.337036,-0.68087 1.118823,-1.513044 z m 42.319436,-0.151305 -1.467236,-1.664349 1.664349,1.467238 c 1.555585,1.371355 1.941896,1.86146 1.467235,1.86146 -0.108406,0 -0.857363,-0.748957 -1.664348,-1.664349 z m 4.205131,-4.236524 c -0.752812,-0.95991 -0.731405,-0.981316 0.228506,-0.228503 1.008142,0.790638 1.328744,1.287634 0.830625,1.287634 -0.125673,0 -0.602282,-0.476609 -1.059131,-1.059131 z M 21.724213,22.788616 c 0.602486,-0.665739 1.231603,-1.210435 1.398038,-1.210435 0.166435,0 -0.190334,0.544696 -0.79282,1.210435 -0.602486,0.66574 -1.231603,1.210436 -1.398038,1.210436 -0.166435,0 0.190335,-0.544696 0.79282,-1.210436 z m 55.017316,-0.151304 -1.152933,-1.36174 1.36174,1.152932 c 0.748957,0.634113 1.36174,1.246896 1.36174,1.36174 0,0.484328 -0.487074,0.126767 -1.570547,-1.152932 z M 50.358579,11.481263 c 0.436892,-0.174829 0.958892,-0.153328 1.160001,0.04778 0.201109,0.201109 -0.156348,0.344152 -0.794348,0.317873 -0.705044,-0.02904 -0.848455,-0.172451 -0.365653,-0.365653 z M 49.148144,9.0603924 c 0.436891,-0.1748299 0.958892,-0.1533283 1.160001,0.047782 0.201108,0.201109 -0.156348,0.3441516 -0.794348,0.3178725 -0.705045,-0.029038 -0.848455,-0.1724514 -0.365653,-0.3656526 z"
         id="path4698" />
      <path
         style="fill:#b9b9b9;fill-opacity:1;stroke-width:0.605218"
         d="m 48.512156,91.355397 c 0.752839,-0.144762 1.842231,-0.139267 2.420871,0.01223 0.578642,0.15148 -0.03732,0.269927 -1.368796,0.263209 -1.331479,-0.0067 -1.804912,-0.13066 -1.052075,-0.275422 z M 44.88496,85.629316 c 0.351693,-0.351692 0.996684,-0.52036 1.433313,-0.374817 0.453275,0.151092 0.178934,0.425432 -0.639444,0.639443 -1.006686,0.263251 -1.242982,0.184488 -0.793869,-0.264626 z m 31.006244,-2.547428 c 0,-0.125674 0.476609,-0.602283 1.059132,-1.059131 0.959911,-0.752812 0.981318,-0.731406 0.228506,0.228506 -0.790639,1.008141 -1.287638,1.328743 -1.287638,0.830625 z M 48.819227,82.285766 c 0.588857,-0.153447 1.405901,-0.143358 1.815654,0.02245 0.409752,0.165787 -0.07204,0.291334 -1.07065,0.278999 -0.998609,-0.01235 -1.333861,-0.147975 -0.745004,-0.301422 z m 31.308502,-3.440402 c 0,-0.125674 0.476609,-0.602283 1.059131,-1.059132 0.959912,-0.752812 0.981318,-0.731405 0.228506,0.228506 -0.790638,1.008142 -1.287637,1.328744 -1.287637,0.830626 z m 8.328801,-3.22563 c 0.752837,-0.144762 1.842229,-0.139266 2.420871,0.01223 0.578643,0.15148 -0.03734,0.269927 -1.368797,0.263209 -1.331479,-0.0067 -1.80491,-0.130661 -1.052074,-0.275423 z M 48.984859,73.063512 c -0.191509,-0.309871 -0.02933,-0.760474 0.360403,-1.001339 0.425857,-0.263197 0.54696,-0.176402 0.303505,0.217522 -0.233691,0.378116 0.174885,0.766932 0.965619,0.918914 1.360402,0.261478 1.360738,0.264081 0.0447,0.345882 -0.729313,0.04533 -1.482712,-0.171113 -1.674222,-0.480979 z M 80.987253,57.588638 c -5.38e-4,-6.657395 0.08789,-9.463449 0.196496,-6.235676 0.108607,3.227774 0.109048,8.674734 0.0012,12.104358 -0.108074,3.429618 -0.196938,0.788714 -0.197471,-5.868682 z m 16.946098,0 c -5.39e-4,-6.657395 0.08789,-9.463449 0.196496,-6.235676 0.108606,3.227774 0.109048,8.674734 0.0012,12.104358 -0.108073,3.429618 -0.196937,0.788714 -0.19747,-5.868682 z M 33.262262,64.72605 c -0.328442,-0.862556 -0.258924,-0.932071 0.338798,-0.338801 0.413617,0.410544 0.599572,0.898894 0.413233,1.085235 -0.186338,0.18634 -0.524753,-0.149556 -0.752031,-0.746434 z m 30.827196,-3.203496 c -0.205726,-0.33287 -0.08563,-0.605218 0.266889,-0.605218 0.352515,0 0.640937,0.272348 0.640937,0.605218 0,0.33287 -0.120099,0.605218 -0.266888,0.605218 -0.14679,0 -0.435213,-0.272348 -0.640938,-0.605218 z m 1.513044,0 c 0,-0.33287 0.288423,-0.605218 0.640938,-0.605218 0.352515,0 0.472615,0.272348 0.266889,0.605218 -0.205726,0.33287 -0.494148,0.605218 -0.640938,0.605218 -0.146789,0 -0.266889,-0.272348 -0.266889,-0.605218 z m 13.103365,-2.09888 c -0.187509,-0.488645 -0.08048,-1.049414 0.237856,-1.246154 0.318333,-0.19674 0.578788,0.20306 0.578788,0.888445 0,1.461337 -0.336568,1.608762 -0.816644,0.357709 z M 8.8524435,50.023416 c 0,-1.165044 0.1245508,-1.641653 0.27678,-1.059131 0.1522286,0.582522 0.1522286,1.53574 0,2.118262 -0.1522292,0.582522 -0.27678,0.105913 -0.27678,-1.059131 z m 18.0639015,0.857392 c 0.02904,-0.705044 0.172451,-0.848455 0.365652,-0.365652 0.17483,0.436891 0.153328,0.958892 -0.04778,1.160001 -0.201109,0.201108 -0.344151,-0.156349 -0.317872,-0.794349 z m 10.89392,-12.104355 c 0.02904,-0.705045 0.172451,-0.848455 0.365652,-0.365653 0.17483,0.436892 0.153328,0.958892 -0.04778,1.160001 -0.201109,0.201108 -0.344151,-0.156348 -0.317872,-0.794348 z m 51.282252,0.544828 c 0.436889,-0.17483 0.958889,-0.153328 1.160003,0.04778 0.201108,0.201109 -0.156352,0.344152 -0.794348,0.317873 -0.705049,-0.02904 -0.848455,-0.172452 -0.365655,-0.365653 z M 35.341613,37.08534 c 0,-0.125677 0.476609,-0.602286 1.059131,-1.059131 0.95991,-0.752813 0.981316,-0.731407 0.228503,0.228503 -0.790637,1.00814 -1.287634,1.328743 -1.287634,0.830628 z M 63.10443,35.044276 c -0.752813,-0.959909 -0.731406,-0.981316 0.228506,-0.228503 1.008141,0.790638 1.328743,1.287634 0.830625,1.287634 -0.125674,0 -0.602283,-0.476609 -1.059131,-1.059131 z M 37.762484,33.077318 c 0,-0.332869 0.288422,-0.605217 0.640936,-0.605217 0.352515,0 0.472616,0.272348 0.266891,0.605217 -0.205725,0.33287 -0.494146,0.605218 -0.640936,0.605218 -0.14679,0 -0.266891,-0.272348 -0.266891,-0.605218 z M 26.263347,27.932967 c 0.781787,-0.832174 1.557605,-1.513044 1.72404,-1.513044 0.166435,0 -0.337035,0.68087 -1.118823,1.513044 -0.781787,0.832175 -1.557605,1.513045 -1.72404,1.513045 -0.166435,0 0.337036,-0.68087 1.118823,-1.513045 z m 45.950742,-0.151304 -1.467236,-1.664349 1.664349,1.467238 c 1.555585,1.371355 1.941896,1.86146 1.467236,1.86146 -0.108407,0 -0.857364,-0.748957 -1.664349,-1.664349 z M 24.447693,24.980984 c 0,-0.125677 0.476609,-0.602286 1.059131,-1.059131 0.95991,-0.752813 0.981316,-0.731406 0.228503,0.228503 -0.790637,1.008141 -1.287634,1.328743 -1.287634,0.830628 z M 17.18508,24.375767 c 0,-0.125678 0.476609,-0.602287 1.059131,-1.059132 0.959909,-0.752812 0.981316,-0.731406 0.228503,0.228503 -0.790638,1.008141 -1.287634,1.328743 -1.287634,0.830629 z m 63.470665,-0.830629 c -0.752812,-0.959909 -0.731406,-0.981315 0.228506,-0.228503 1.008142,0.790638 1.328744,1.287635 0.830625,1.287635 -0.125673,0 -0.602282,-0.476609 -1.059131,-1.059132 z M 21.421604,20.139242 c 0,-0.125677 0.476609,-0.602286 1.059132,-1.059131 0.959909,-0.752813 0.981315,-0.731406 0.228503,0.228503 -0.790638,1.00814 -1.287635,1.328743 -1.287635,0.830628 z m 54.997617,-0.830628 c -0.752813,-0.959909 -0.731406,-0.981316 0.228506,-0.228503 1.008141,0.790638 1.328743,1.287634 0.830625,1.287634 -0.125674,0 -0.602283,-0.476609 -1.059131,-1.059131 z M 49.564231,10.684261 47.14336,10.25081 49.377209,10.16493 c 1.228616,-0.04724 2.402168,0.186465 2.607893,0.519335 0.205725,0.332869 0.289885,0.56657 0.187023,0.519334 -0.102862,-0.04724 -1.276415,-0.280937 -2.607894,-0.519334 z"
         id="path4696" />
      <path
         style="fill:#a3a3a3;fill-opacity:1;stroke-width:0.605218"
         d="m 39.578138,91.092496 c -2.496524,-0.663882 -4.9848,-1.246888 -5.529503,-1.295572 -0.556772,-0.04975 -0.855254,-0.440622 -0.681755,-0.89275 0.169739,-0.442336 0.454173,-0.658683 0.632075,-0.480779 0.177903,0.177898 0.646347,0.0555 1.040986,-0.272033 0.477562,-0.396345 1.609406,-0.30914 3.384383,0.260758 1.466772,0.470938 3.695731,1.027381 4.953244,1.236538 1.257512,0.209157 2.145026,0.609013 1.972253,0.888569 -0.475023,0.768602 3.741989,1.3813 6.407529,0.930958 1.293137,-0.218472 2.206258,-0.631678 2.029159,-0.91823 -0.1771,-0.286553 0.706874,-0.69214 1.964385,-0.901297 1.257513,-0.209157 3.477871,-0.762671 4.934131,-1.230026 2.796274,-0.897411 3.707042,-0.736798 3.707042,0.65372 0,0.819749 -1.435105,1.347136 -7.262614,2.668962 -4.372845,0.991873 -12.513114,0.690953 -17.551315,-0.648818 z m 5.13016,-3.511516 c -4.154576,-0.647274 -9.830231,-2.341291 -10.279426,-3.068103 -0.203022,-0.328494 -0.05157,-0.597265 0.336557,-0.597265 0.388128,0 0.557748,-0.385524 0.376934,-0.856716 -0.255743,-0.66646 0.239614,-0.605303 2.230525,0.275374 1.407604,0.622648 3.694173,1.313564 5.081265,1.535371 1.387093,0.221806 2.464915,0.710671 2.395161,1.086366 -0.184191,0.992061 3.273829,1.23928 3.883457,0.277637 0.383206,-0.604479 0.512625,-0.616553 0.519584,-0.04848 0.01331,1.086433 3.435963,0.95225 3.859436,-0.151304 0.191602,-0.499305 0.9945,-0.907827 1.784218,-0.907827 0.789718,0 2.683321,-0.375435 4.208006,-0.834299 1.524685,-0.458858 3.000861,-0.605587 3.280387,-0.326061 0.661049,0.661049 3.565356,-0.845967 3.373823,-1.750647 -0.08078,-0.381583 0.684441,-1.123683 1.700504,-1.649109 1.016064,-0.525426 2.971819,-1.96122 4.346124,-3.190648 1.374304,-1.229433 2.295179,-1.894894 2.046386,-1.478807 -0.585966,0.979999 0.945042,1.004141 1.918922,0.03026 0.943758,-0.943758 0.955064,-2.512671 0.01392,-1.931008 -0.391794,0.242142 0.08482,-0.561176 1.059131,-1.785144 1.571042,-1.973603 1.853903,-2.11336 2.4999,-1.235135 0.597217,0.811918 0.441458,1.366485 -0.864813,3.079094 -7.218584,9.464057 -21.95594,15.367048 -33.769989,13.526436 z m 23.574454,-1.244497 c 0,-0.66574 0.199564,-1.210436 0.443479,-1.210436 0.243909,0 2.228164,-1.350822 4.409441,-3.001831 2.181284,-1.651004 3.965968,-2.689443 3.965968,-2.307641 0,0.381807 0.786002,-0.05883 1.746665,-0.979219 1.082879,-1.037464 1.637846,-2.089544 1.460317,-2.768411 -0.375477,-1.435831 0.693041,-2.063696 1.61713,-0.950234 0.58366,0.703269 0.356667,1.331273 -1.166073,3.226119 -2.01244,2.504216 -5.013509,4.965564 -6.054405,4.965564 -0.346348,0 -0.629723,0.274551 -0.629723,0.61012 0,0.335563 -1.089392,1.046004 -2.420871,1.578759 -1.331479,0.532749 -2.420871,1.211416 -2.420871,1.508142 0,0.296726 -0.213987,0.539503 -0.475526,0.539503 -0.261545,0 -0.475531,-0.544696 -0.475531,-1.210435 z M 42.746976,82.668966 C 41.327574,82.389119 38.604094,81.457943 36.694799,80.599684 34.026775,79.400366 32.92389,78.490355 31.929434,76.667699 l -1.293918,-2.371521 1.747831,1.292224 c 0.961307,0.710726 1.747831,1.642537 1.747831,2.070698 0,1.040109 3.673103,2.92923 4.165533,2.142381 0.238542,-0.381167 1.735987,-0.263349 4.142256,0.325909 2.072761,0.507584 3.641145,1.129197 3.485298,1.381361 -0.821714,1.329561 6.733153,1.219605 7.61182,-0.110791 0.485904,-0.735709 7.206378,-2.406836 7.915835,-1.968368 0.951625,0.588139 4.148361,-1.015131 4.174186,-2.093496 0.02657,-1.110926 5.345041,-5.287237 6.427606,-5.047287 0.884278,0.196 3.332341,-2.852101 2.87933,-3.585086 -0.419828,-0.679296 3.11042,-7.853262 3.615825,-7.347858 1.738573,1.738579 -1.549951,8.049275 -6.797516,13.044483 -7.567019,7.203108 -18.540896,10.331557 -29.004375,8.268618 z m 1.746397,-4.25042 C 36.380099,77.003976 28.109246,70.70769 24.539847,63.228687 16.386012,46.143864 26.791748,26.275613 45.406154,23.387489 c 15.085789,-2.34064 29.341933,8.175775 31.701829,23.385677 2.91028,18.757182 -13.760589,34.932626 -32.61461,31.64538 z m 9.127018,-1.425185 c -0.182239,-0.573365 4.953844,-2.179807 7.745587,-2.422632 1.837441,-0.15982 4.264425,-1.602272 4.117811,-2.447374 -0.130854,-0.754247 4.672705,-5.759059 5.527478,-5.759059 0.898458,0 2.414462,-2.53697 2.35348,-3.938454 -0.08421,-1.935527 1.52809,-7.213992 2.364804,-7.742061 0.842638,-0.531806 1.06485,-4.438308 0.270829,-4.761235 -0.821051,-0.333919 -2.397092,-7.710409 -1.697231,-7.943697 0.395776,-0.131924 0.327375,-0.904318 -0.190885,-2.155503 -0.444224,-1.072448 -1.107724,-1.849891 -1.474444,-1.72765 -0.679974,0.226658 -5.219664,-5.638433 -5.219664,-6.743589 0,-1.079883 -3.188857,-3.227212 -3.660128,-2.464677 -0.282987,0.457877 -0.553635,0.479822 -0.809611,0.06564 -0.211488,-0.342192 -1.675358,-1.108882 -3.253047,-1.703755 -1.577689,-0.594873 -3.140874,-1.407899 -3.473743,-1.806723 -0.773116,-0.926302 -4.539134,-1.731482 -4.539134,-0.970473 0,0.74586 -7.447644,1.417239 -7.884284,0.71074 -0.458246,-0.741456 -4.911783,0.674968 -4.644397,1.477126 0.238327,0.71498 -6.119266,4.743446 -6.811132,4.315849 -0.245931,-0.151993 -1.220646,0.531008 -2.166035,1.517782 -0.945389,0.986773 -1.418855,1.794133 -1.052146,1.794133 0.891153,0 -2.965246,6.605677 -3.873348,6.63471 -0.956787,0.03059 -2.408948,4.430134 -1.556093,4.714419 0.767497,0.255832 0.237689,7.540037 -0.587596,8.078732 -0.778869,0.508397 0.381888,4.517215 1.252869,4.326937 0.380919,-0.08322 0.698562,0.18913 0.705872,0.605218 0.0073,0.416087 0.591404,1.982088 1.297985,3.480002 0.706581,1.497914 1.313383,3.132002 1.348448,3.631306 0.08839,1.258581 1.907788,3.720474 2.590651,3.505494 0.920154,-0.289687 6.850399,4.000212 6.579673,4.759687 -0.308013,0.864076 2.949448,2.287693 4.166222,1.820774 1.185396,-0.454876 8.21244,0.876991 8.21244,1.556541 0,0.294209 1.021305,0.450403 2.269567,0.347093 1.248262,-0.103317 2.188403,-0.443201 2.089202,-0.755306 z m -9.354283,-3.4183 C 37.640394,72.013496 31.579299,66.964563 28.49017,60.433593 c -2.795408,-5.909993 -2.795408,-13.094707 0,-19.0047 1.060486,-2.242057 3.169766,-5.306969 4.717254,-6.854457 1.547488,-1.547488 4.612401,-3.656768 6.854457,-4.717254 3.618664,-1.711617 4.641974,-1.918187 9.50235,-1.918187 4.860376,0 5.883686,0.20657 9.50235,1.918187 5.162301,2.441753 9.129957,6.40941 11.571708,11.571711 1.714231,3.624184 1.9175,4.634561 1.911684,9.50235 -0.0054,4.669432 -0.245065,5.959276 -1.677761,9.035982 -0.919193,1.973964 -2.606473,4.730332 -3.749518,6.125262 -5.169685,6.308923 -14.657499,9.414949 -22.856586,7.482574 z m 9.39586,-1.472816 c 0.275849,-0.492914 0.909688,-0.896207 1.408532,-0.896207 0.498844,0 1.982611,-0.519682 3.297259,-1.154852 1.339787,-0.647317 2.542452,-0.908613 2.736546,-0.594566 0.415464,0.672234 3.584294,-1.697248 3.604605,-2.695331 0.0078,-0.38478 0.892963,-1.974239 1.966958,-3.53213 1.074001,-1.557885 1.956893,-3.191974 1.961989,-3.631303 0.0069,-0.593182 0.155402,-0.567665 0.577021,0.09914 0.446118,0.705546 0.781705,0.385857 1.5664,-1.492171 0.679321,-1.625848 0.785095,-2.461273 0.330806,-2.612704 -0.900733,-0.300244 -0.888556,-7.815133 0.01313,-8.115701 1.114243,-0.371415 -0.0233,-4.209989 -1.350428,-4.557048 -0.630401,-0.164858 -1.146198,-0.499342 -1.146198,-0.743299 0,-0.243956 -0.79056,-1.620673 -1.756802,-3.05937 -0.966236,-1.438697 -1.630553,-2.944804 -1.476253,-3.346905 0.1543,-0.4021 -0.478449,-1.328121 -1.406115,-2.057821 -0.946233,-0.744309 -1.779661,-1.04775 -1.898501,-0.691226 -0.125551,0.376658 -1.417431,0.02458 -3.171747,-0.864399 -1.627954,-0.824947 -3.368944,-1.499903 -3.868867,-1.499903 -0.559309,0 -0.774947,-0.349211 -0.560586,-0.907826 0.263593,-0.686914 -0.109218,-0.907827 -1.532039,-0.907827 -2.275972,0 -2.835585,0.16055 -2.636928,0.756522 0.08322,0.249653 -0.920357,0.453914 -2.230167,0.453914 -1.30981,0 -3.125562,0.282902 -4.035006,0.628672 -1.187811,0.451605 -1.772903,0.43553 -2.077349,-0.05707 -0.530257,-0.857974 -4.215248,0.903902 -4.216742,2.016118 -0.0014,1.031815 -4.975811,5.612983 -5.871476,5.407302 -0.942744,-0.216492 -3.013797,3.668988 -2.115299,3.968487 0.4351,0.145033 0.362593,1.016282 -0.222613,2.674932 -0.477336,1.352913 -0.867883,3.106471 -0.867883,3.896795 0,0.90594 -0.353249,1.436952 -0.955914,1.436952 -0.76013,0 -0.868974,0.39584 -0.531429,1.932673 0.233468,1.06297 0.799803,2.30799 1.258523,2.766709 0.458721,0.458721 0.834038,1.233956 0.834038,1.722746 0,0.488789 0.539531,1.946275 1.198957,3.238858 0.833412,1.633622 0.983246,2.422054 0.491442,2.585989 -0.888887,0.296297 1.288181,3.441922 2.401334,3.469671 1.272675,0.03171 6.666573,3.881722 6.983349,4.984501 0.330752,1.151439 3.362883,2.156978 3.969018,1.316246 0.213924,-0.296726 1.478345,-0.372233 2.809824,-0.167796 1.331479,0.20443 2.200537,0.410343 1.93124,0.457575 -0.269297,0.04721 -0.304354,0.385668 -0.0779,0.752073 0.553359,0.895354 4.023672,0.16606 4.665272,-0.980416 z m 9.861181,-7.73101 c 0.227278,-0.596877 0.565691,-0.932773 0.752032,-0.746433 0.18634,0.186341 3.87e-4,0.674691 -0.413231,1.085234 -0.597725,0.593271 -0.66724,0.523756 -0.338801,-0.338801 z m 0.2637,-4.243235 c 0,-1.587048 -3.616908,-6.43519 -5.563765,-7.45773 -1.288389,-0.676696 -4.157695,-1.193788 -8.053635,-1.451387 -3.800724,-0.251303 -6.788339,-0.78132 -8.031068,-1.424748 -1.975609,-1.02288 -5.622911,-5.410021 -5.545371,-6.670224 0.02253,-0.366145 0.336496,-0.05293 0.697704,0.696023 0.679364,1.408646 1.682206,1.841727 1.682206,0.726467 0,-0.3494 -0.449794,-1.505077 -0.999541,-2.568172 -0.914036,-1.767551 -1.039829,-1.829696 -1.470506,-0.726467 -0.336887,0.862973 -0.483076,0.418044 -0.513504,-1.562855 -0.04502,-2.930952 0.976454,-4.394531 4.193987,-6.009183 l 1.513044,-0.75929 -1.575629,1.742791 c -0.866595,0.958535 -1.754371,2.248565 -1.972833,2.866733 -0.941694,2.664643 2.055841,8.454523 5.27809,10.194882 0.713054,0.385125 4.054447,0.899322 7.42532,1.142662 3.431279,0.2477 6.894258,0.843107 7.867831,1.352755 4.775701,2.499995 9.586559,10.697079 6.278105,10.697079 -0.665739,0 -1.210435,-0.355202 -1.210435,-0.789336 z m -3.263116,-8.083429 c -1.633375,-1.40497 -2.789062,-1.813019 -2.789062,-0.984759 0,0.760303 3.307675,3.097535 3.881642,2.742804 0.304449,-0.18816 -0.187212,-0.97928 -1.09258,-1.758045 z M 49.86684,50.023416 c 0,-0.33287 -1.105465,-0.605218 -2.456589,-0.605218 -1.483611,0 -2.308442,0.239708 -2.082544,0.605218 0.205725,0.33287 1.311189,0.605218 2.456589,0.605218 1.145399,0 2.082544,-0.272348 2.082544,-0.605218 z m 33.241169,23.14958 -1.467236,-1.664349 1.664349,1.467236 c 0.915392,0.806985 1.664349,1.555942 1.664349,1.664349 0,0.47466 -0.490105,0.08835 -1.861462,-1.467236 z m 12.150164,0.151305 c 0.78179,-0.832175 1.557607,-1.513045 1.724042,-1.513045 0.166435,0 -0.337034,0.68087 -1.118824,1.513045 -0.78179,0.832174 -1.557606,1.513044 -1.724041,1.513044 -0.166435,0 0.337033,-0.68087 1.118823,-1.513044 z M 11.506047,67.423427 C 6.7080107,55.927228 7.0059918,43.896942 12.36427,32.77471 16.492566,24.205562 22.838551,17.859578 31.407698,13.731282 52.867399,3.3927961 78.089755,12.677689 87.660251,34.439058 l 1.530481,3.480003 -1.656717,-0.0093 c -1.207016,-0.0068 -1.425149,-0.15586 -0.803614,-0.549321 0.716208,-0.453396 0.726612,-0.845424 0.06481,-2.443162 -0.433566,-1.046711 -1.104298,-1.781849 -1.490524,-1.63364 -0.386226,0.148208 -1.025317,-0.450374 -1.42021,-1.330181 -0.394892,-0.87981 -1.806049,-3.02948 -3.1359,-4.777046 -1.329851,-1.747566 -2.098792,-3.177393 -1.708753,-3.177393 0.390032,0 -0.06435,-0.80736 -1.009734,-1.794133 -0.945392,-0.986774 -1.944994,-1.654394 -2.221342,-1.4836 -0.276349,0.170793 -2.073023,-0.75381 -3.99261,-2.054675 -1.919581,-1.300864 -4.138921,-2.569455 -4.931859,-2.819089 -1.027273,-0.323408 -1.219405,-0.591269 -0.668391,-0.931817 0.544763,-0.336681 0.18691,-0.781179 -1.21078,-1.503953 -1.268906,-0.656176 -2.121397,-0.80386 -2.364998,-0.409707 -0.253089,0.409505 -1.596959,0.330287 -4.00491,-0.236081 -1.993203,-0.468816 -4.372962,-0.856647 -5.288354,-0.861847 -1.005033,-0.0057 -1.604411,-0.309143 -1.513044,-0.765976 0.09462,-0.473096 -0.698975,-0.826895 -2.118262,-0.944361 -1.733192,-0.143446 -2.269567,0.03534 -2.269567,0.756523 0,0.624441 -0.563829,0.947563 -1.664349,0.953814 -0.915392,0.0052 -3.295151,0.393031 -5.288354,0.861847 -2.407951,0.566368 -3.75182,0.645586 -4.004908,0.236081 -0.529895,-0.857389 -4.172834,1.095417 -4.172834,2.236858 0,0.490757 -0.287291,0.892285 -0.638425,0.892285 -0.351135,0 -2.262138,1.102642 -4.246676,2.450315 -1.984537,1.347674 -3.834353,2.310576 -4.110703,2.139783 -0.276349,-0.170794 -1.275953,0.496826 -2.221342,1.4836 -0.945389,0.986773 -1.399769,1.794133 -1.009732,1.794133 0.390035,0 -0.378905,1.429827 -1.708758,3.177393 -1.329852,1.747566 -2.741007,3.897236 -3.135898,4.777044 -0.394892,0.879807 -1.033987,1.478389 -1.420213,1.330181 -0.386224,-0.148209 -1.067312,0.611925 -1.513528,1.689185 -0.614653,1.483904 -0.636791,2.016825 -0.09133,2.198644 0.475331,0.158444 0.536346,0.583281 0.179568,1.250298 -0.297221,0.55567 -0.886505,2.78057 -1.309522,4.944224 -0.423017,2.163653 -1.1542427,4.219694 -1.6249466,4.568979 -0.9932701,0.737054 -0.8009161,4.271063 0.2222711,4.083666 0.6565505,-0.120248 1.4611435,4.887253 1.7215525,10.714324 0.148736,3.328213 0.832919,5.01061 1.875044,4.610706 0.465367,-0.178576 1.028496,0.402633 1.387268,1.431806 0.551611,1.582354 0.06292,2.430536 -1.400388,2.430536 -0.101756,0 -0.895428,-1.702175 -1.763716,-3.782611 z m 9.7051,-0.963627 C 18.439873,61.186056 17.18508,56.346313 17.18508,50.931243 c 0,-17.706987 14.672164,-32.379151 32.379151,-32.379151 12.267472,0 23.846845,7.29751 29.086537,18.330812 1.896456,3.993405 2.051863,4.677048 1.392255,6.124733 -0.73632,1.616042 -0.753902,1.598056 -2.116483,-2.165035 -0.755699,-2.087038 -1.129512,-3.945717 -0.830692,-4.130399 0.29882,-0.184681 -0.01271,-1.213928 -0.692248,-2.287214 -0.679557,-1.073287 -1.471115,-1.805849 -1.759017,-1.627917 -0.287902,0.177934 -1.845382,-1.04796 -3.461071,-2.724208 -1.615689,-1.676248 -2.715334,-3.047723 -2.443658,-3.047723 0.271677,0 0.493955,-0.213628 0.493955,-0.474728 0,-0.691016 -3.209773,-2.477683 -4.253864,-2.367843 -1.502078,0.158021 -7.245274,-2.23717 -7.245274,-3.02163 0,-0.992795 -4.399373,-1.817694 -4.710837,-0.8833 -0.291905,0.875712 -7.814247,0.946181 -8.104334,0.07592 -0.121984,-0.365953 -1.019055,-0.456886 -2.192338,-0.222229 -1.09223,0.218446 -1.88679,0.694419 -1.765689,1.057719 0.24601,0.738032 -5.895266,3.551238 -7.657402,3.507715 -1.479126,-0.03653 -4.076992,1.682679 -3.87458,2.564114 0.228159,0.993549 -4.415837,6.368603 -5.231864,6.055464 -0.37689,-0.144626 -1.202145,0.612069 -1.8339,1.681546 -0.701665,1.187824 -0.899652,2.027501 -0.508785,2.15779 0.40979,0.136597 0.229304,1.293786 -0.501956,3.218306 -0.627999,1.65276 -1.141817,3.538246 -1.141817,4.189968 0,0.804638 -0.291368,1.07314 -0.907827,0.836582 -0.717429,-0.275303 -0.907826,0.180433 -0.907826,2.172976 0,1.526778 0.238733,2.373796 0.605217,2.147295 0.371051,-0.229322 0.608415,0.752069 0.613482,2.536458 0.0045,1.600776 0.18362,3.565873 0.397945,4.366881 0.29662,1.108578 0.199819,1.339038 -0.405346,0.965026 -1.170234,-0.723245 -0.260982,3.424475 0.948596,4.327191 1.037441,0.774249 5.363688,7.706746 4.461433,7.149123 -0.313032,-0.193464 -0.56915,0.07284 -0.56915,0.591788 0,1.933586 -1.123513,0.823635 -3.236546,-3.197474 z m -4.550799,1.266236 c -5.661488,-11.12912 -4.994469,-25.978905 1.62709,-36.223744 3.481854,-5.387105 5.809767,-7.786475 10.779636,-11.110526 12.614836,-8.437317 28.672347,-8.36409 41.246056,0.188095 2.58155,1.755876 5.902961,4.712454 7.446872,6.62888 4.052823,5.030705 7.571559,11.920755 6.087904,11.920755 -0.328851,0 -0.781585,-0.836259 -1.006078,-1.858353 -0.252479,-1.149536 -0.700891,-1.746022 -1.175629,-1.563848 -0.440369,0.168985 -1.350538,-0.742931 -2.135511,-2.139599 -0.752425,-1.338758 -2.182694,-3.361943 -3.17838,-4.495967 -1.036079,-1.180023 -1.392388,-1.90148 -0.833113,-1.686865 1.371049,0.526121 1.217081,-0.560274 -0.270157,-1.906205 -0.954156,-0.863499 -1.357957,-0.949951 -1.717771,-0.367763 -0.360268,0.582923 -0.670412,0.518413 -1.324792,-0.275556 -0.469921,-0.570164 -2.292044,-1.958161 -4.049155,-3.08444 -1.757117,-1.126278 -3.03438,-2.30727 -2.838368,-2.624427 0.196012,-0.317156 -0.358598,-0.848486 -1.232478,-1.180733 -1.973603,-0.750364 -2.895906,-0.772316 -2.454697,-0.05843 0.185479,0.300111 -0.931125,0.163937 -2.481341,-0.302609 -1.550217,-0.466546 -3.436708,-0.848266 -4.192203,-0.848266 -0.755495,0 -1.782149,-0.408522 -2.281453,-0.907826 -0.964291,-0.964291 -3.782588,-1.245183 -4.121245,-0.410754 -0.29238,0.720405 -9.52912,2.386893 -9.739046,1.757113 -0.270991,-0.812972 -3.474876,0.190373 -3.474876,1.08821 0,0.434667 -1.429827,1.66041 -3.177393,2.723874 -1.747566,1.063464 -3.805298,2.510244 -4.572736,3.215067 -1.126429,1.034524 -1.318068,1.080123 -0.994379,0.236605 0.220529,-0.574691 0.141687,-1.044893 -0.175206,-1.044893 -0.96991,0 -2.723742,2.302944 -2.28924,3.005985 0.224818,0.363763 -0.424279,1.610167 -1.442438,2.769786 -1.01816,1.159619 -2.276413,2.930671 -2.796118,3.935671 -0.522143,1.009713 -1.234449,1.648333 -1.592028,1.427338 -0.355909,-0.219964 -0.884836,-0.02461 -1.175393,0.434125 -0.67436,1.064684 -0.707684,3.123178 -0.04392,2.712948 0.276595,-0.170945 0.01314,1.106635 -0.58546,2.839067 -0.598596,1.732431 -1.09725,3.898833 -1.108116,4.814224 -0.01267,1.067162 -0.345497,1.664349 -0.927585,1.664349 -0.634038,0 -0.907827,0.638842 -0.907827,2.118263 0,1.165044 0.223519,2.118262 0.49671,2.118262 0.733576,0 2.077583,9.329735 1.377618,9.563057 -0.357282,0.119093 -0.336749,0.878245 0.05408,1.999368 0.34653,0.994052 0.920518,1.710551 1.275528,1.592213 0.523276,-0.174424 3.453464,4.353501 3.453464,5.336526 0,0.148823 -0.539161,0.270587 -1.198135,0.270587 -0.77578,0 -1.605127,-0.800044 -2.352686,-2.269567 z"
         id="path4694" />
      <path
         style="fill:#8c8c8c;fill-opacity:1;stroke-width:0.605218"
         d="m 17.838078,92.640837 c 0.02904,-0.705049 0.172451,-0.848455 0.365653,-0.365655 0.174829,0.436889 0.153328,0.958889 -0.04778,1.160003 -0.201109,0.201108 -0.344152,-0.156352 -0.317873,-0.794348 z m 66.526175,-8.348513 c 0,-0.125674 0.476609,-0.602283 1.059131,-1.059132 0.959912,-0.752812 0.981319,-0.731405 0.228506,0.228506 -0.790638,1.008142 -1.287637,1.328744 -1.287637,0.830626 z"
         id="path4692" />
      <path
         style="fill:#767676;fill-opacity:1;stroke-width:0.605218"
         d="m 83.645557,90.159577 c 0.436889,-0.174829 0.958889,-0.153332 1.160003,0.04775 0.201108,0.201107 -0.156352,0.344151 -0.794348,0.317872 -0.705049,-0.02905 -0.848455,-0.172451 -0.365655,-0.365648 z m 6.00298,-11.642411 c -0.263252,-1.006689 -0.184489,-1.242984 0.264625,-0.79387 0.351692,0.351692 0.52036,0.996685 0.374818,1.433313 -0.151093,0.453278 -0.425432,0.178932 -0.639443,-0.639443 z m -5.188726,-0.653732 c 0,-0.832174 0.137373,-1.172609 0.305266,-0.756522 0.167893,0.416087 0.167893,1.096957 0,1.513044 -0.167893,0.416087 -0.305266,0.07565 -0.305266,-0.756522 z m -2.59363,-2.874784 c -0.752813,-0.959912 -0.731406,-0.981319 0.228506,-0.228506 1.008141,0.790638 1.328743,1.287637 0.830625,1.287637 -0.125674,0 -0.602283,-0.476609 -1.059131,-1.059131 z M 77.933385,54.582515 c -0.187388,-0.488324 -0.223913,-1.237281 -0.08116,-1.664349 0.142753,-0.427068 0.403027,-0.02753 0.578382,0.887861 0.342396,1.787343 0.05992,2.228436 -0.497222,0.776488 z m -0.226527,-6.339034 c 0,-0.646095 0.233003,-1.318723 0.517788,-1.494729 0.284785,-0.176007 0.389209,0.352616 0.232058,1.174717 -0.341354,1.785671 -0.749846,1.960003 -0.749846,0.320012 z"
         id="path4690" />
      <path
         style="fill:#606060;fill-opacity:1;stroke-width:0.605218"
         d="m 69.385113,90.123143 c 2.579741,-0.113448 6.801135,-0.113448 9.380876,0 2.579741,0.113448 0.469044,0.20627 -4.690438,0.20627 -5.159481,0 -7.270178,-0.09282 -4.690438,-0.20627 z M 14.68701,88.908658 c -0.752812,-0.959911 -0.731406,-0.981318 0.228503,-0.228506 0.582522,0.456849 1.059131,0.933458 1.059131,1.059132 0,0.498118 -0.496996,0.177516 -1.287634,-0.830626 z m 62.270382,-5.421093 c 0.752837,-0.144762 1.842229,-0.139266 2.420872,0.01223 0.578642,0.15148 -0.03734,0.269927 -1.368797,0.263209 -1.331479,-0.0067 -1.804911,-0.13066 -1.052075,-0.275422 z M 88.64856,78.720828 c 0.02905,-0.705049 0.17245,-0.848455 0.365648,-0.365655 0.174829,0.436889 0.153332,0.958889 -0.04775,1.160003 -0.201113,0.201108 -0.344151,-0.156352 -0.317872,-0.794348 z m 5.517165,-0.554785 c 0.01235,-0.998609 0.147976,-1.333864 0.301423,-0.745005 0.153447,0.588859 0.143358,1.405903 -0.02245,1.815653 -0.165787,0.409751 -0.291334,-0.07204 -0.278999,-1.070648 z M 86.297894,67.877341 c 0.01235,-0.99861 0.147976,-1.333864 0.301423,-0.745005 0.153446,0.588858 0.143357,1.405902 -0.02245,1.815653 -0.165787,0.409751 -0.291334,-0.07204 -0.278999,-1.070648 z m 3.070923,-3.748108 c 0.588859,-0.153447 1.405903,-0.143358 1.815654,0.02239 0.40975,0.165787 -0.07204,0.291334 -1.070649,0.278999 -0.998609,-0.01235 -1.333863,-0.147975 -0.745005,-0.301422 z m 0,-3.026089 c 0.588859,-0.153449 1.405903,-0.143358 1.815654,0.02242 0.40975,0.165783 -0.07204,0.291332 -1.070649,0.278998 -0.998609,-0.01233 -1.333863,-0.147975 -0.745005,-0.301424 z m -3.070923,-3.514506 c 0.01235,-0.998609 0.147976,-1.333861 0.301423,-0.745003 0.153446,0.588857 0.143357,1.405901 -0.02245,1.815653 -0.165757,0.409752 -0.291303,-0.07204 -0.278969,-1.07065 z m 0,-9.683484 c 0.01235,-0.998609 0.147976,-1.333861 0.301423,-0.745004 0.153446,0.588857 0.143357,1.405901 -0.02245,1.815654 -0.165757,0.409751 -0.291303,-0.07204 -0.278969,-1.07065 z m 3.070923,-3.748108 c 0.588859,-0.153449 1.405903,-0.143358 1.815654,0.02242 0.40975,0.165783 -0.07204,0.291333 -1.070649,0.278998 -0.998609,-0.01233 -1.333863,-0.147974 -0.745005,-0.301424 z m 0.605218,-6.052178 c 0.588859,-0.153449 1.405903,-0.143357 1.815653,0.02242 0.409751,0.165783 -0.07204,0.291333 -1.070648,0.278998 -0.998609,-0.01233 -1.333864,-0.147974 -0.745005,-0.301423 z"
         id="path4688" />
      <path
         style="fill:#494949;fill-opacity:1;stroke-width:0.605218"
         d="m 90.416431,86.639092 c 0.78179,-0.832175 1.557607,-1.513045 1.724042,-1.513045 0.166435,0 -0.337034,0.68087 -1.118824,1.513045 -0.78179,0.832174 -1.557607,1.513044 -1.724042,1.513044 -0.166434,0 0.337034,-0.68087 1.118824,-1.513044 z M 86.508364,84.56265 c -0.191515,-0.309871 -0.07141,-0.734468 0.266889,-0.943547 0.338299,-0.209078 0.615089,-0.194553 0.615089,0.03232 0,0.226836 0.476609,0.04333 1.059131,-0.407765 0.862218,-0.667713 0.844781,-0.568966 -0.0938,0.531108 -1.308723,1.533907 -1.370086,1.560082 -1.847307,0.787915 z m -3.657155,-2.462692 c 0.602488,-0.665739 1.231606,-1.210435 1.398041,-1.210435 0.166435,0 -0.190335,0.544696 -0.792823,1.210435 -0.602489,0.66574 -1.231606,1.210436 -1.398041,1.210436 -0.166435,0 0.190335,-0.544696 0.792823,-1.210436 z m 11.196529,-5.675466 c 0,-0.125673 0.476609,-0.602282 1.059131,-1.059131 0.959912,-0.752812 0.981318,-0.731405 0.228506,0.228506 -0.790638,1.008142 -1.287637,1.328744 -1.287637,0.830625 z m -4.350003,-5.026666 c 0.436889,-0.174829 0.958889,-0.153332 1.160003,0.04775 0.201108,0.201113 -0.156352,0.344151 -0.794349,0.317872 -0.705048,-0.02905 -0.848454,-0.172451 -0.365654,-0.365648 z m 3.792567,-3.570918 c 0.02905,-0.705049 0.172451,-0.848455 0.365648,-0.365655 0.17483,0.436889 0.153332,0.958889 -0.04775,1.160003 -0.201114,0.201108 -0.344151,-0.156352 -0.317873,-0.794348 z m 0,-10.288704 c 0.02905,-0.705044 0.172451,-0.848455 0.365648,-0.365653 0.17483,0.436892 0.153332,0.958892 -0.04775,1.160001 -0.201114,0.201109 -0.344151,-0.156348 -0.317873,-0.794348 z m -3.792567,-3.691696 c 0.436889,-0.17483 0.958889,-0.153328 1.160003,0.04778 0.201108,0.201109 -0.156352,0.344151 -0.794349,0.317872 -0.705048,-0.02904 -0.848454,-0.172451 -0.365654,-0.365652 z m 0,-2.420871 c 0.436889,-0.17483 0.958889,-0.153328 1.160003,0.04778 0.201108,0.201109 -0.156352,0.344151 -0.794349,0.317872 -0.705048,-0.02904 -0.848454,-0.172451 -0.365654,-0.365652 z m 3.792567,-3.570918 c 0.02905,-0.705044 0.172451,-0.848454 0.365648,-0.365652 0.17483,0.436891 0.153332,0.958892 -0.04775,1.160001 -0.201114,0.201108 -0.344151,-0.156349 -0.317873,-0.794349 z m 2.295888,-7.363483 c -0.752813,-0.959909 -0.731406,-0.981316 0.228506,-0.228503 1.008141,0.790638 1.328743,1.287634 0.830625,1.287634 -0.125674,0 -0.602283,-0.476609 -1.059131,-1.059131 z"
         id="path4686" />
      <path
         style="fill:#333333;fill-opacity:1;stroke-width:0.605218"
         d="M 15.169788,98.063667 C 8.532989,96.024621 4.1359283,88.487142 5.6462464,81.738329 c 0.9130437,-4.079913 3.4739472,-7.59023 7.0783566,-9.702555 3.770429,-2.20962 9.535643,-2.372823 13.322411,-0.377136 11.628929,6.128629 10.015916,22.740986 -2.576047,26.530611 -3.466041,1.043123 -4.550616,1.026716 -8.301179,-0.125582 z m 9.580514,-5.698489 c 7.808943,-4.745379 4.065405,-17.155394 -5.175005,-17.155394 -9.244507,0 -12.8677942,12.374501 -5.042261,17.220679 4.195308,2.598061 5.326441,0.419579 1.488073,-2.865918 -2.882153,-2.467013 -3.53535,-4.793337 -2.159817,-7.692058 1.945328,-4.099473 7.011948,-4.997573 10.201263,-1.808263 3.762619,3.76262 2.056655,9.171609 -4.224222,13.393469 -1.875512,1.260675 2.722508,0.237984 4.911969,-1.092515 z m 40.246982,-2.905457 c 0,-0.279441 0.68087,-0.818296 1.513045,-1.197465 0.920415,-0.419368 1.513044,-0.457418 1.513044,-0.09714 0,0.357654 3.318464,0.592242 8.377861,0.592242 7.578531,0 8.629304,-0.132966 11.013305,-1.393659 1.801328,-0.952565 3.07654,-2.227777 4.029104,-4.029104 1.397073,-2.641903 1.947512,-7.095332 0.788441,-6.378984 -0.332869,0.205726 -0.605217,1.06985 -0.605217,1.920272 0,2.425646 -2.341951,5.982922 -4.876839,7.407611 -2.086452,1.172646 -3.07349,1.283497 -10.066055,1.130474 L 68.9312,87.24431 70.898158,86.169636 c 1.26919,-0.69344 1.966958,-0.826878 1.966958,-0.376148 0,1.154979 9.05476,0.377637 11.083262,-0.951488 2.772581,-1.816664 4.570453,-6.814903 2.836746,-7.886393 -0.348454,-0.215354 -0.60618,0.347208 -0.607481,1.32602 -0.0036,2.857161 -2.048323,5.487625 -4.852031,6.242586 -2.789055,0.751008 -7.027698,0.593579 -6.797049,-0.252461 0.08272,-0.303432 1.80862,-0.57578 3.835325,-0.605218 3.25376,-0.04727 3.855794,-0.252224 5.145253,-1.751627 1.999168,-2.324672 2.017826,-5.685125 0.03577,-6.438712 C 82.76139,75.178301 81.468033,73.89139 80.67078,72.61639 79.387415,70.563987 79.211939,69.53496 79.140226,63.640816 79.095686,59.979249 78.919273,54.727854 78.748215,51.97105 c -0.242154,-3.902586 -0.115319,-5.208065 0.57285,-5.896231 0.486123,-0.486123 0.720385,-1.148364 0.520585,-1.471645 -0.199795,-0.323282 0.12327,-1.074329 0.717939,-1.668991 0.594645,-0.594664 1.081185,-1.625903 1.081185,-2.291642 0,-0.66574 0.345301,-1.140727 0.767338,-1.055527 0.42203,0.0852 1.726958,-0.246048 2.899828,-0.736106 2.645994,-1.105567 7.43038,-0.359965 10.297787,1.604815 3.232577,2.214995 3.895405,5.229145 3.891968,17.698356 -0.0024,9.700203 -0.134843,11.126495 -1.243154,13.415962 -0.682086,1.409001 -1.907652,2.999181 -2.72348,3.533733 -1.107827,0.72588 -1.483322,1.509522 -1.483322,3.095659 0,4.464806 -2.767595,8.689547 -6.960005,10.624471 -2.034421,0.938947 -3.990824,1.119423 -12.25566,1.130595 -5.409134,0.0073 -9.834789,-0.215343 -9.83479,-0.494778 z m 24.057407,-6.739402 c 1.578723,-2.330046 1.839003,-5.462103 0.453913,-5.462103 -0.542505,0 -0.907826,0.557376 -0.907826,1.385077 0,0.761794 -0.544696,2.453462 -1.210436,3.759274 -1.423823,2.792747 -1.442839,2.900658 -0.453913,2.575952 0.416087,-0.136615 1.369305,-1.152806 2.118262,-2.2582 z m 6.700693,-9.3069 2.226269,-2.22498 0.183551,-12.866031 c 0.179828,-12.605167 0.155044,-12.908695 -1.222498,-14.970339 -1.613214,-2.414353 -4.794801,-4.220692 -7.434102,-4.220692 -2.6393,0 -5.820887,1.806339 -7.434101,4.220692 -1.377331,2.061328 -1.402302,2.366503 -1.222498,14.940748 l 0.183551,12.836437 1.815653,1.916931 c 2.433938,2.5697 3.654928,3.026755 7.457215,2.791494 2.772684,-0.171555 3.530368,-0.50877 5.44696,-2.42426 z m -7.911128,-2.861076 c -1.232647,-0.717952 -1.449781,-4.160528 -0.33287,-5.277439 1.182662,-1.182662 4.586461,-0.897514 5.304625,0.444387 1.960385,3.663014 -1.38955,6.919498 -4.971755,4.833052 z m -0.33287,-10.361268 c -0.399444,-0.399444 -0.726262,-1.630848 -0.726262,-2.736455 0,-1.540599 0.343032,-2.16649 1.468416,-2.679249 3.40967,-1.55355 6.227098,1.26388 4.673546,4.673551 -0.512758,1.125382 -1.138644,1.468414 -2.679244,1.468414 -1.105606,0 -2.337012,-0.326817 -2.736456,-0.726261 z m 0.33287,-9.610918 c -1.232647,-0.717951 -1.449781,-4.160526 -0.33287,-5.277439 1.182662,-1.182662 4.586461,-0.897514 5.304625,0.444386 1.960385,3.663015 -1.38955,6.919496 -4.971755,4.833053 z"
         id="path4684" />
    </g>
  </g>
</svg>
