<?xml version="1.0" encoding="UTF-8" standalone="no"?>
<!-- Created with Inkscape (http://www.inkscape.org/) -->

<svg
   width="100mm"
   height="100mm"
   viewBox="0 0 100 100"
   version="1.1"
   id="svg14347"
   inkscape:version="1.1.1 (3bf5ae0d25, 2021-09-20)"
   sodipodi:docname="add_list_type_device_6051.svg"
   xmlns:inkscape="http://www.inkscape.org/namespaces/inkscape"
   xmlns:sodipodi="http://sodipodi.sourceforge.net/DTD/sodipodi-0.dtd"
   xmlns="http://www.w3.org/2000/svg"
   xmlns:svg="http://www.w3.org/2000/svg">
  <sodipodi:namedview
     id="namedview14349"
     pagecolor="#ffffff"
     bordercolor="#666666"
     borderopacity="1.0"
     inkscape:pageshadow="2"
     inkscape:pageopacity="0.0"
     inkscape:pagecheckerboard="true"
     inkscape:document-units="mm"
     showgrid="false"
     width="100mm"
     inkscape:zoom="0.58974467"
     inkscape:cx="378.97757"
     inkscape:cy="269.6082"
     inkscape:window-width="1440"
     inkscape:window-height="890"
     inkscape:window-x="-6"
     inkscape:window-y="-6"
     inkscape:window-maximized="1"
     inkscape:current-layer="layer1" />
  <defs
     id="defs14344" />
  <g
     inkscape:label="Laag 1"
     inkscape:groupmode="layer"
     id="layer1">
    <g
       id="g14363"
       transform="translate(-0.44863825,-0.44864089)">
      <path
         style="fill:#d0d0d0;fill-opacity:1;stroke-width:0.455671"
         d="m 37.609899,97.783106 c -1.622614,-0.131056 -2.392272,-0.393244 -2.392272,-0.81494 0,-0.341945 -0.153789,-0.707726 -0.341754,-0.812844 -0.187964,-0.105119 -0.03417,-0.09001 0.341754,0.03358 4.431886,1.456926 20.720037,1.917746 27.209653,0.76981 3.883456,-0.686942 6.655667,-1.642885 7.860333,-2.710486 0.385101,-0.341288 1.78988,-1.258645 3.121733,-2.03858 l 2.42155,-1.418062 -0.143195,1.440417 c -0.08571,0.862161 -0.508264,1.641791 -1.052582,1.942038 -0.500162,0.275895 -1.422896,0.829767 -2.050519,1.230831 -3.328599,2.127031 -5.048552,2.348318 -19.140135,2.462518 -7.393261,0.05992 -14.518816,0.02201 -15.834566,-0.08427 z M 17.674295,96.270502 c 0.154891,-0.250619 0.372044,-0.455671 0.482563,-0.455671 0.110519,0 0.200943,0.205052 0.200943,0.455671 0,0.250619 -0.217153,0.455671 -0.482563,0.455671 -0.26541,0 -0.355834,-0.205052 -0.200943,-0.455671 z m 1.965081,0.144397 c 0.328937,-0.131629 0.721953,-0.115444 0.873369,0.03595 0.151416,0.151415 -0.117715,0.259112 -0.598068,0.239327 -0.530831,-0.02187 -0.638805,-0.129839 -0.275301,-0.275298 z m 38.27636,-2.278355 c 0.328936,-0.131629 0.721956,-0.115444 0.873371,0.03595 0.151415,0.151415 -0.117718,0.259113 -0.598068,0.239327 -0.530834,-0.02187 -0.638805,-0.129838 -0.275303,-0.275298 z m 2.363793,-0.742652 c 0,-1.208626 2.594135,-2.970792 5.87452,-3.990497 1.85258,-0.575873 3.938988,-1.527223 4.636465,-2.114109 1.521085,-1.279911 2.252523,-0.596628 0.80497,0.751976 -0.918824,0.856014 -1.259041,1.009521 -1.998723,0.901841 -0.138524,-0.02019 -0.75368,0.292135 -1.367013,0.69401 -0.613337,0.40187 -1.115154,0.59984 -1.115154,0.439927 0,-0.159908 -0.530419,0.0568 -1.178712,0.481576 -0.648292,0.424777 -1.276106,0.674935 -1.395137,0.5559 -0.31233,-0.31233 -2.438532,1.745653 -2.438532,2.360294 0,0.284535 -0.410104,0.517337 -0.911342,0.517337 -0.501238,0 -0.911342,-0.269215 -0.911342,-0.598255 z M 33.551151,89.663273 c 0.0016,-2.004952 0.08177,-2.768479 0.178025,-1.696723 0.09626,1.071756 0.0949,2.712172 -0.003,3.645368 -0.09792,0.933196 -0.176673,0.05631 -0.175018,-1.948645 z M 30.24122,85.979934 c 0.02186,-0.530834 0.129839,-0.638805 0.275301,-0.275303 0.13163,0.328936 0.115442,0.721952 -0.03598,0.873371 -0.151416,0.151415 -0.259113,-0.117718 -0.239327,-0.598068 z M 10.647369,85.068592 c 0.02186,-0.530834 0.129839,-0.638805 0.275301,-0.275303 0.13163,0.328936 0.115442,0.721952 -0.03598,0.873371 -0.151416,0.151415 -0.259113,-0.117718 -0.239328,-0.598068 z m 15.948483,0 c 0.02186,-0.530834 0.12984,-0.638805 0.275302,-0.275303 0.13163,0.328936 0.115441,0.721952 -0.03598,0.873371 -0.151415,0.151415 -0.259113,-0.117718 -0.239327,-0.598068 z M 7.0020011,83.701579 c 0.021863,-0.530834 0.1298394,-0.638805 0.2753014,-0.275302 0.1316301,0.328935 0.1154415,0.721951 -0.035975,0.87337 C 7.0899117,84.451062 6.9822143,84.181929 7.002,83.701579 Z m 23.2392189,0 c 0.02186,-0.530834 0.129839,-0.638805 0.275301,-0.275302 0.13163,0.328935 0.115442,0.721951 -0.03598,0.87337 -0.151416,0.151415 -0.259113,-0.117718 -0.239327,-0.598068 z m 10.35902,-2.779492 c 0.328937,-0.13163 0.721954,-0.115445 0.873369,0.03595 0.151416,0.151415 -0.117715,0.259113 -0.598068,0.239328 -0.53083,-0.02187 -0.638805,-0.129839 -0.275301,-0.275299 z M 17.361021,73.17568 c 0.328937,-0.131629 0.721954,-0.115444 0.87337,0.03595 0.151415,0.151415 -0.117716,0.259113 -0.598069,0.239327 -0.53083,-0.02187 -0.638805,-0.129839 -0.275301,-0.275298 z m 2.278355,0 c 0.328937,-0.131629 0.721953,-0.115444 0.873369,0.03595 0.151416,0.151415 -0.117715,0.259113 -0.598068,0.239327 -0.530831,-0.02187 -0.638805,-0.129839 -0.275301,-0.275298 z m 3.161217,-2.288662 c 0.563893,-0.108613 1.486627,-0.108613 2.050519,0 0.563893,0.108609 0.102526,0.197474 -1.025259,0.197474 -1.127786,0 -1.589153,-0.08886 -1.02526,-0.197474 z m -6.835064,-0.455671 c 0.563893,-0.108613 1.486626,-0.108613 2.050519,0 0.563893,0.10861 0.102526,0.197474 -1.02526,0.197474 -1.127785,0 -1.589152,-0.08886 -1.025259,-0.197474 z M 27.799034,60.52964 c 0.120902,-3.241925 0.409365,-6.317704 0.641029,-6.835064 0.271719,-0.606813 0.313794,0.433958 0.118552,2.932552 -0.627569,8.03126 -0.981338,9.848822 -0.759581,3.902512 z m 44.913938,0.426362 c 0.0036,-1.253095 0.09192,-1.711641 0.196654,-1.018994 0.10474,0.692647 0.101938,1.717907 -0.0062,2.278355 -0.108159,0.560448 -0.193852,-0.0062 -0.190434,-1.259361 z M 71.904188,52.43995 c -0.17552,-3.335981 -0.246892,-6.7831 -0.158606,-7.660267 0.08829,-0.877166 0.320177,1.763987 0.515314,5.869229 0.195137,4.105245 0.266508,7.552364 0.158601,7.660266 -0.107903,0.107903 -0.339789,-2.533252 -0.515309,-5.869228 z M 38.677666,38.272046 c -0.145614,-2.059728 -0.364611,-7.032613 -0.486661,-11.050857 -0.211847,-6.97458 -0.284299,-7.434693 -1.597644,-10.145938 -1.559937,-3.220304 -1.739156,-5.109457 -0.57831,-6.09597 1.246781,-1.0595432 5.245016,-2.5964471 7.451782,-2.8644322 1.437336,-0.174547 1.681518,-0.1341304 0.864213,0.1430438 -2.506736,0.8501138 -4.846799,2.3248244 -5.436014,3.4257844 -0.733763,1.371048 -0.326874,8.481607 0.515122,9.001989 0.728395,0.450173 1.784939,-0.05361 1.413273,-0.67388 -0.207913,-0.346983 -0.08293,-0.336009 0.372989,0.03275 0.958582,0.775323 4.316979,0.53057 4.134179,-0.301292 -0.102594,-0.466865 0.01827,-0.508884 0.455671,-0.158418 0.865065,0.693133 4.349221,0.380417 5.792003,-0.519854 0.476805,-0.297517 0.541643,-0.236156 0.254283,0.24065 -0.303627,0.503794 -0.24588,0.532163 0.271347,0.133304 0.361384,-0.278678 1.542661,-0.429188 2.625057,-0.334465 1.082401,0.09472 1.869135,0.01225 1.748295,-0.183261 -0.120834,-0.195517 0.402659,-0.38092 1.163319,-0.412005 0.760656,-0.03109 1.511812,-0.233239 1.669232,-0.449228 0.361334,-0.495768 4.647721,-0.480112 5.45681,0.01993 0.356449,0.220298 0.822245,0.138098 1.134589,-0.200222 0.403474,-0.437024 0.401515,-0.501875 -0.0082,-0.271833 -0.295958,0.166165 -0.655774,0.111722 -0.799593,-0.120985 -0.143823,-0.232707 0.09833,-0.362602 0.538102,-0.288657 0.439777,0.07395 0.74833,0.363524 0.685675,0.643506 -0.06267,0.279984 0.103223,0.509061 0.368634,0.509061 0.26541,0 0.335059,0.256315 0.154777,0.569589 -0.190438,0.330928 -0.153976,0.410482 0.08702,0.189863 0.434683,-0.397916 0.492767,-0.81483 0.585688,-4.203877 0.03326,-1.213217 0.240817,-1.96378 0.498932,-1.804256 0.705616,0.436095 -0.107638,26.674995 -0.82625,26.658238 -1.036596,-0.02417 -1.607238,-1.096963 -1.796318,-3.377027 -0.292204,-3.523602 -0.839182,-3.557805 -1.119156,-0.06998 -0.128171,1.59675 -0.372994,3.129639 -0.544057,3.40642 -0.171059,0.27678 -1.132602,0.503237 -2.136764,0.503237 -1.004162,0 -2.179638,0.189396 -2.61217,0.42088 -0.835592,0.447195 -6.018179,0.862462 -14.720683,1.179527 l -5.314422,0.193625 z M 71.345959,23.590984 c 0.0036,-1.253095 0.09192,-1.711643 0.196654,-1.018994 0.10474,0.692648 0.101938,1.717907 -0.0062,2.278354 -0.108181,0.560447 -0.193875,-0.0063 -0.190457,-1.25936 z M 28.987757,17.21159 c 0.002,-1.754333 0.08438,-2.416178 0.183024,-1.470767 0.09864,0.945412 0.09699,2.380775 -0.0037,3.189697 -0.100648,0.808922 -0.181354,0.0354 -0.179333,-1.71893 z m -4.706233,-1.280045 c 0,-0.949467 0.350631,-1.779498 0.978994,-2.317519 0.977163,-0.836674 0.978441,-0.835479 0.683506,0.639196 -0.162518,0.812591 -0.295487,1.737446 -0.295487,2.055234 0,0.317787 -0.307578,0.695824 -0.683507,0.840081 -0.521061,0.19995 -0.683506,-0.08929 -0.683506,-1.216992 z m 49.991774,-3.5045 c -0.131078,-0.501238 -0.05247,-0.911342 0.174691,-0.911342 0.227157,0 0.413011,0.410104 0.413011,0.911342 0,0.501238 -0.07861,0.911342 -0.174691,0.911342 -0.09608,0 -0.281932,-0.410104 -0.413011,-0.911342 z m -7.614375,-0.911342 c -0.268254,-0.501238 -0.385211,-0.911341 -0.259901,-0.911341 0.125309,0 0.447318,0.410103 0.715572,0.911341 0.268253,0.501238 0.38521,0.911342 0.259901,0.911342 -0.12531,0 -0.447319,-0.410104 -0.715572,-0.911342 z m -9.113419,-0.911341 c -0.410692,-0.265411 -0.466894,-0.444501 -0.140812,-0.448694 0.298483,-0.0038 0.669426,0.198074 0.824318,0.448694 0.349636,0.565726 0.191892,0.565726 -0.683506,0 z M 46.523962,7.5590606 C 46.852898,7.4274304 47.245914,7.4436191 47.397333,7.5950358 47.548748,7.7464516 47.279615,7.854149 46.799265,7.8343633 46.268431,7.8125002 46.16046,7.7045239 46.523962,7.5590619 Z M 59.73842,4.3693639 c 0.328935,-0.13163 0.721952,-0.1154417 0.873371,0.035974 0.151415,0.1514157 -0.117718,0.2591129 -0.598068,0.2393272 C 59.482889,4.6228 59.374918,4.5148259 59.73842,4.3693639 Z M 55.153231,3.923186 c 0.313274,-0.1264087 0.825904,-0.1264087 1.139178,0 0.313273,0.1264088 0.05696,0.2298341 -0.569589,0.2298341 -0.626548,0 -0.882863,-0.1034253 -0.569589,-0.2298341 z"
         id="path14379" />
      <path
         style="fill:#b9b9b9;fill-opacity:1;stroke-width:0.455671"
         d="m 43.191868,97.367721 c 1.834773,-0.293297 19.095293,-0.426144 17.771168,-0.136774 -0.751857,0.16431 -5.263,0.295079 -10.024761,0.290599 -4.761762,-0.0046 -8.247645,-0.0737 -7.746407,-0.153825 z m -3.750613,-0.501653 c 0.443353,-0.115531 1.058509,-0.107935 1.367013,0.01691 0.308504,0.124822 -0.05424,0.219346 -0.806096,0.210059 -0.751857,-0.0093 -1.00427,-0.111411 -0.560917,-0.226942 z m -2.942054,-0.451169 c 0.328938,-0.131629 0.721954,-0.115444 0.87337,0.03595 0.151415,0.151415 -0.117716,0.259112 -0.598068,0.239327 -0.530831,-0.02187 -0.638805,-0.129839 -0.275302,-0.275298 z m 28.687836,-0.355815 c 3.608723,-1.030741 4.625179,-1.691423 7.771391,-5.051304 2.87224,-3.067299 2.881472,-3.072607 2.734026,-1.571773 -0.125829,1.2808 -0.556666,1.766869 -2.881973,3.251463 -3.800314,2.426316 -6.37126,3.613808 -8.342151,3.853153 -1.31868,0.160141 -1.163227,0.05599 0.718707,-0.481539 z m -17.768169,-1.48983 c 1.071757,-0.09626 2.712172,-0.0949 3.645368,0.0032 0.933196,0.09791 0.05631,0.176668 -1.948645,0.175014 -2.004952,-0.0018 -2.768479,-0.08177 -1.696723,-0.178026 z M 62.102213,93.47481 c 0,-0.614641 2.126202,-2.672624 2.438532,-2.360294 0.119031,0.119035 0.746845,-0.131123 1.395137,-0.5559 0.648293,-0.424776 1.178712,-0.641484 1.178712,-0.481576 0,0.159913 0.51263,-0.04516 1.139177,-0.455671 0.626548,-0.410527 1.139178,-0.596724 1.139178,-0.413767 0,0.182956 0.530419,-0.0149 1.178711,-0.439673 0.648292,-0.424776 1.292798,-0.658239 1.432233,-0.518804 0.139435,0.139436 -0.08223,0.382358 -0.492589,0.539829 -0.410359,0.157466 -0.653779,0.435699 -0.540936,0.618286 0.112846,0.182588 -0.09525,0.331979 -0.462443,0.331979 -0.867214,0 -5.344049,2.055569 -5.778627,2.653295 -0.186169,0.256064 -0.337871,0.270614 -0.341754,0.03276 -0.0036,-0.235222 -0.425068,0.0211 -0.936071,0.569588 -1.046129,1.122906 -1.34926,1.230731 -1.34926,0.479945 z M 38.635159,81.340301 c -0.477589,-0.35088 -0.837002,-1.473954 -0.471703,-1.473954 0.116491,0 0.431284,0.410104 0.699538,0.911342 0.525084,0.981128 0.483061,1.084898 -0.227835,0.562612 z M 19.610896,70.431347 c 0.563893,-0.108613 1.486627,-0.108613 2.05052,0 0.563892,0.10861 0.102526,0.197474 -1.02526,0.197474 -1.127786,0 -1.589152,-0.08886 -1.02526,-0.197474 z m 8.196357,-16.993915 c 0.122813,-3.884595 0.377392,-11.163939 0.56573,-16.176319 0.329534,-8.770092 0.33742,-8.632761 0.209358,3.645367 -0.07319,7.017333 -0.327771,14.296677 -0.565731,16.176319 -0.355892,2.811189 -0.393036,2.164424 -0.209357,-3.645367 z m 44.916591,2.961861 c 0.0027,-1.503714 0.08763,-2.063934 0.18904,-1.244934 0.101414,0.819 0.09932,2.049312 -0.0046,2.734026 -0.103975,0.684713 -0.186948,0.01463 -0.184392,-1.489092 z M 71.959369,43.504331 c -0.217491,-5.087277 -0.288941,-9.356095 -0.158774,-9.486262 0.411521,-0.411519 0.84943,8.044385 0.698909,13.49564 -0.134291,4.863477 -0.173124,4.575228 -0.540135,-4.009378 z M 71.820827,29.970377 c 0.0018,-1.754333 0.08438,-2.416178 0.183025,-1.470767 0.09864,0.945411 0.09699,2.380775 -0.0036,3.189697 -0.100695,0.808922 -0.181403,0.0354 -0.17938,-1.71893 z M 71.361479,18.806439 c 0,-1.629024 0.0827,-2.295443 0.183786,-1.480931 0.101077,0.814512 0.101077,2.14735 0,2.961861 -0.101082,0.814512 -0.183786,0.148093 -0.183786,-1.48093 z m -31.951325,1.879227 c -0.280155,-0.173145 -0.650579,-2.007996 -0.823165,-4.077446 -0.386235,-4.631299 0.06013,-5.638733 3.223964,-7.2763647 2.528312,-1.3086797 3.174518,-1.3417683 14.823209,-0.759008 7.808787,0.3906577 7.470201,0.3067477 9.37121,2.3224077 1.560391,1.654493 1.606331,1.804841 1.481482,4.848013 -0.07087,1.727313 -0.317826,3.257363 -0.548796,3.40011 -0.230971,0.142748 -0.273635,0.02281 -0.09481,-0.266534 0.178824,-0.289342 0.107981,-0.526076 -0.157429,-0.526076 -0.265411,0 -0.431302,-0.229077 -0.368647,-0.509059 0.06265,-0.279982 -0.245899,-0.56956 -0.685676,-0.643506 -0.439777,-0.07394 -0.681925,0.05595 -0.538102,0.288657 0.143819,0.232706 0.503635,0.28715 0.799594,0.120985 0.40973,-0.230042 0.411689,-0.165192 0.0082,0.271833 -0.312345,0.33832 -0.778141,0.420519 -1.134589,0.200222 -0.753097,-0.465437 -5.081647,-0.53126 -5.418206,-0.08239 -0.136186,0.181635 -0.648816,0.407144 -1.139177,0.501132 -0.490357,0.09399 -1.199139,0.298841 -1.575068,0.455231 -0.375928,0.156389 -1.401188,0.216067 -2.278355,0.132619 -0.877166,-0.08345 -1.890524,0.07572 -2.251907,0.3537 -0.516886,0.397601 -0.574775,0.368893 -0.271348,-0.134567 0.28736,-0.476806 0.222522,-0.538167 -0.254282,-0.24065 -1.442782,0.900271 -4.926938,1.212987 -5.792004,0.519854 -0.437401,-0.350466 -0.558264,-0.308447 -0.455671,0.158418 0.1828,0.831861 -3.175596,1.076615 -4.134179,0.301291 -0.455921,-0.368759 -0.580902,-0.379733 -0.372989,-0.03275 0.371666,0.620269 -0.684878,1.124053 -1.413272,0.67388 z M 61.190871,10.604362 c 0,-0.25062 -0.973996,-0.452531 -2.164437,-0.448694 -1.565444,0.005 -1.975283,0.129219 -1.48093,0.448694 0.900888,0.5822 3.645367,0.5822 3.645367,0 z m -36.82925,8.18962 c 0.08126,-0.831714 0.404053,-1.59635 0.717327,-1.69919 0.824762,-0.270749 0.711907,1.634424 -0.147738,2.49407 -0.652656,0.652655 -0.704008,0.580992 -0.569589,-0.79488 z m 50.115654,-4.544253 c 0,-0.626547 0.103428,-0.882862 0.229836,-0.569589 0.126408,0.313274 0.126408,0.825904 0,1.139178 -0.126408,0.313274 -0.229836,0.05696 -0.229836,-0.569589 z M 45.242388,7.4146648 42.736198,7.1075394 45.329413,7.0332669 c 1.426267,-0.040851 2.719944,0.1307789 2.874836,0.3813979 0.154892,0.250619 0.115731,0.4222484 -0.08702,0.381398 -0.202755,-0.04085 -1.496433,-0.2124789 -2.874837,-0.381398 z M 45.156948,3.9136929 C 45.485886,3.782063 45.878902,3.7982513 46.030318,3.9496669 46.181734,4.1010825 45.912603,4.2087798 45.43225,4.188994 44.901419,4.167129 44.793445,4.0591552 45.156948,3.9136929 Z m 8.657749,0 C 54.143633,3.782063 54.536649,3.7982513 54.688069,3.9496668 54.839483,4.1010824 54.570351,4.2087797 54.09,4.1889939 53.559167,4.167129 53.451195,4.0591549 53.814697,3.9136929 Z"
         id="path14377" />
      <path
         style="fill:#a3a3a3;fill-opacity:1;stroke-width:0.455671"
         d="M 5.3278847,97.589674 C 4.521502,96.698632 4.459837,95.795665 4.459837,84.878728 c 0,-10.916938 0.061665,-11.819904 0.8680477,-12.710946 0.8426659,-0.931136 1.2369762,-0.959183 13.4855873,-0.959183 12.248611,0 12.642922,0.02807 13.485588,0.959183 0.806382,0.891042 0.868047,1.794008 0.868047,12.710946 0,10.916937 -0.06167,11.819904 -0.868047,12.710946 -0.842666,0.931136 -1.236977,0.959182 -13.485588,0.959182 -12.2486111,0 -12.6429214,-0.02805 -13.4855873,-0.959182 z M 16.990788,94.709792 c 0,-1.898585 -0.112324,-2.078338 -1.922829,-3.077068 -5.2173746,-2.878068 -5.2847146,-10.53232 -0.118402,-13.458361 3.701417,-2.096368 8.503158,-0.805799 10.568278,2.840448 2.649668,4.678342 -0.172886,11.280914 -6.134774,14.350587 -1.065131,0.548414 -1.936602,1.107631 -1.936602,1.242697 0,0.556205 5.025201,-0.326265 6.663002,-1.170081 2.080849,-1.07208 4.291845,-3.315749 5.466137,-5.546906 1.163299,-2.210268 1.163299,-7.814492 0,-10.024761 -1.171019,-2.224941 -3.372007,-4.461574 -5.52191,-5.611337 -1.397251,-0.74725 -2.620369,-0.974767 -5.240216,-0.974767 -2.619847,0 -3.842964,0.227517 -5.240216,0.974767 -7.8235075,4.183998 -8.7909298,14.680925 -1.841542,19.981481 1.243988,0.948835 3.989814,2.266836 5.145157,2.469682 0.06265,0.01098 0.113917,-0.887369 0.113917,-1.996381 z m 24.72015,2.157944 c 0.438583,-0.11461 1.156265,-0.11461 1.594848,0 0.438584,0.114615 0.07974,0.208392 -0.797424,0.208392 -0.877167,0 -1.236007,-0.09378 -0.797424,-0.208392 z m 15.27029,-0.0082 c 0.566814,-0.108992 1.387021,-0.104854 1.822684,0.0092 0.435662,0.11405 -0.02811,0.203229 -1.030573,0.198171 -1.002476,-0.0051 -1.358925,-0.09837 -0.792111,-0.207366 z m -19.115014,-0.44468 c 0.328938,-0.131629 0.721954,-0.115444 0.87337,0.03595 0.151415,0.151415 -0.117716,0.259112 -0.598069,0.239327 -0.53083,-0.02187 -0.638805,-0.129839 -0.275301,-0.275298 z m 23.666411,0.0095 c 0.313273,-0.126407 0.825903,-0.126407 1.139177,0 0.313274,0.126408 0.05696,0.229836 -0.569589,0.229836 -0.626547,0 -0.882862,-0.103428 -0.569588,-0.229836 z m 2.762505,-0.465162 c 0.328935,-0.13163 0.721951,-0.115445 0.873371,0.03595 0.151414,0.151415 -0.117718,0.259113 -0.598069,0.239328 -0.530833,-0.02187 -0.638805,-0.129839 -0.275302,-0.275299 z M 53.330547,94.601707 c 0.313274,-0.126408 0.825904,-0.126408 1.139178,0 0.313273,0.126408 0.05696,0.229836 -0.569589,0.229836 -0.626548,0 -0.882862,-0.103428 -0.569589,-0.229836 z m 10.26557,-1.616784 c 0.118174,-0.323194 0.445546,-0.536361 0.727492,-0.473707 0.281947,0.06265 0.51263,-0.09113 0.51263,-0.341753 0,-0.250619 0.201785,-0.455671 0.448412,-0.455671 0.246627,0 1.718326,-0.615156 3.270446,-1.367013 3.149507,-1.525641 3.446436,-1.617472 2.578351,-0.797424 -1.047962,0.989973 -7.762114,4.050327 -7.537331,3.435568 z m 10.680376,-5.070465 c 0.84737,-2.478864 1.495849,-3.130031 1.495849,-1.50206 0,1.4908 -0.638208,2.820726 -1.515092,3.157216 -0.530073,0.203407 -0.527043,-0.05707 0.01923,-1.655156 z M 23.261577,70.43065 c 0.566815,-0.108992 1.387022,-0.104854 1.822684,0.0092 0.435661,0.11405 -0.0281,0.203229 -1.030573,0.198171 -1.002476,-0.0051 -1.358926,-0.09837 -0.792111,-0.207367 z m 4.388139,-22.005599 c 0,-3.383357 0.07173,-4.767457 0.159407,-3.075779 0.08767,1.691679 0.08767,4.45988 0,6.151558 -0.08767,1.691678 -0.159407,0.307578 -0.159407,-3.075779 z m 45.04784,3.873203 c 0.0051,-1.002476 0.09837,-1.358925 0.207367,-0.792111 0.108992,0.566814 0.104855,1.387022 -0.0092,1.822684 -0.11405,0.435662 -0.20323,-0.02811 -0.198172,-1.030573 z M 27.650479,38.286372 c 0.143588,-2.067607 0.389941,-8.426264 0.54745,-14.130349 0.157509,-5.704084 0.417276,-10.452454 0.57726,-10.551931 0.159984,-0.09948 0.161657,3.644767 0.0037,8.320544 -0.157957,4.675777 -0.311745,11.115824 -0.341771,14.311217 -0.03622,3.855079 -0.221666,5.809805 -0.551168,5.809805 -0.33929,0 -0.413885,-1.190721 -0.235507,-3.759286 z M 72.116945,36.008017 C 72.091327,31.060719 71.654375,18.747227 71.414191,16.204092 70.942467,11.209302 68.55528,9.3641373 62.03672,8.9558155 59.69186,8.8089341 57.363235,8.6223765 56.861997,8.5412434 56.360759,8.4601102 53.900136,8.364079 51.393946,8.3278408 48.518143,8.2862563 47.173416,8.1237184 47.748578,7.8872184 48.706872,7.4931787 48.51005,7.3326832 46.381565,6.7725028 45.310241,6.4905486 58.294458,6.87996 60.963036,7.2098179 c 2.282925,0.2821879 6.287589,1.5655014 6.658173,2.133641 0.153333,0.2350693 0.414724,0.4012912 0.580871,0.3693819 0.624839,-0.1200009 3.013552,1.5675232 3.013552,2.1289442 0,0.321893 0.208957,0.58526 0.464352,0.58526 0.274747,0 0.340641,0.49291 0.16138,1.207142 -0.1953,0.778139 -0.136505,1.104261 0.165432,0.917651 0.315442,-0.194954 0.493478,3.577417 0.545169,11.551644 0.04221,6.512626 -0.03614,11.841137 -0.174116,11.841137 -0.137982,0 -0.255386,-0.871471 -0.260904,-1.936602 z M 24.281524,21.791267 c 0,-1.382207 0.435394,-2.529157 0.960093,-2.529157 0.713742,0 0.460476,3.071642 -0.276587,3.354479 -0.48991,0.187996 -0.683506,-0.04577 -0.683506,-0.825322 z M 74.52024,16.755919 c 0.0051,-1.002476 0.09838,-1.358926 0.207367,-0.792111 0.108992,0.566815 0.104854,1.387023 -0.0092,1.822684 -0.11404,0.435661 -0.20322,-0.0281 -0.198162,-1.030573 z M 25.68451,16.262276 c 0.02186,-0.530831 0.12984,-0.638805 0.275302,-0.275301 0.13163,0.328937 0.115441,0.721953 -0.03598,0.873369 -0.151416,0.151416 -0.259114,-0.117715 -0.239328,-0.598068 z M 41.263939,7.0988889 c 0.443353,-0.1155321 1.058509,-0.1079343 1.367013,0.016883 0.308504,0.1248205 -0.05424,0.2193472 -0.806096,0.2100606 -0.751857,-0.00929 -1.00427,-0.1114106 -0.560917,-0.2269436 z m 16.651797,-2.729525 c 0.328936,-0.13163 0.721956,-0.1154417 0.873371,0.035974 0.151415,0.1514157 -0.117718,0.2591129 -0.598068,0.2393272 C 57.660205,4.6228 57.552234,4.5148259 57.915736,4.3693639 Z M 47.862496,3.8913235 c 1.065131,-0.095935 2.808072,-0.095935 3.873203,0 1.065131,0.095935 0.19366,0.1744266 -1.936602,0.1744266 -2.130261,0 -3.001732,-0.078492 -1.936601,-0.1744266 z"
         id="path14375" />
      <path
         style="fill:#8c8c8c;fill-opacity:1;stroke-width:0.455671"
         d="m 44.900635,96.855469 c 0.689202,-0.104408 1.816988,-0.104408 2.50619,0 0.689202,0.104404 0.125309,0.189828 -1.253095,0.189828 -1.378405,0 -1.942298,-0.08542 -1.253095,-0.189828 z m 7.746406,0 c 0.689202,-0.104408 1.816988,-0.104408 2.50619,0 0.689202,0.104404 0.12531,0.189828 -1.253095,0.189828 -1.378405,0 -1.942297,-0.08542 -1.253095,-0.189828 z m -13.413814,-0.44057 c 0.328937,-0.131629 0.721954,-0.115444 0.87337,0.03595 0.151415,0.151415 -0.117716,0.259112 -0.598069,0.239327 -0.53083,-0.02187 -0.638805,-0.129839 -0.275301,-0.275298 z m 20.960864,0 c 0.328935,-0.131629 0.721951,-0.115444 0.873371,0.03595 0.151415,0.151415 -0.117718,0.259112 -0.598068,0.239327 -0.530834,-0.02187 -0.638805,-0.129839 -0.275303,-0.275298 z m -0.911342,-2.278355 c 0.328935,-0.131629 0.721952,-0.115444 0.873371,0.03595 0.151415,0.151415 -0.117718,0.259113 -0.598068,0.239327 -0.530834,-0.02187 -0.638805,-0.129838 -0.275303,-0.275298 z m 7.831845,-2.422752 c 2.722502,-1.438293 3.413308,-1.641801 2.932539,-0.863893 -0.385334,0.623477 -3.826324,2.215017 -4.755223,2.199401 -0.375929,-0.0063 0.444279,-0.6073 1.822684,-1.335508 z m 7.753382,-6.922088 c 0.0038,-0.578684 0.205749,-1.359732 0.448695,-1.73566 0.336107,-0.520089 0.443386,-0.335871 0.448695,0.77053 0.0036,0.799721 -0.198076,1.580768 -0.448695,1.73566 -0.254096,0.157038 -0.452586,-0.183822 -0.448695,-0.77053 z m -1.673451,-4.697521 c 0.0018,-2.004953 0.08177,-2.768479 0.178026,-1.696723 0.09626,1.071756 0.0949,2.712172 -0.0032,3.645368 -0.09791,0.933196 -0.176668,0.05631 -0.175014,-1.948645 z m -36.289854,1.89863 c -0.128229,-0.334162 0.03534,-0.607564 0.363475,-0.607564 0.32814,0 0.491704,0.273402 0.363475,0.607564 -0.128228,0.334157 -0.291792,0.60756 -0.363475,0.60756 -0.07168,0 -0.235247,-0.273403 -0.363475,-0.60756 z m 7.198539,0.151889 c 0.154892,-0.250619 0.372045,-0.455671 0.482564,-0.455671 0.110519,0 0.200943,0.205052 0.200943,0.455671 0,0.250619 -0.217154,0.455671 -0.482563,0.455671 -0.26541,0 -0.355835,-0.205052 -0.200944,-0.455671 z m -3.417532,-0.531618 c 0,-0.208847 0.19295,-0.379724 0.428779,-0.379724 0.235828,0 0.534386,0.170877 0.663462,0.379724 0.129076,0.208853 -0.06387,0.379729 -0.428779,0.379729 -0.364904,0 -0.663462,-0.170876 -0.663462,-0.379729 z m -16.033922,-11.6271 c 0.328938,-0.13163 0.721954,-0.115445 0.87337,0.03595 0.151415,0.151415 -0.117715,0.259113 -0.598068,0.239328 -0.530831,-0.02187 -0.638805,-0.129839 -0.275302,-0.275299 z m 48.0458,-20.877426 c 0.0051,-1.002477 0.09837,-1.358925 0.207367,-0.792112 0.108992,0.566814 0.104855,1.387022 -0.0092,1.822684 -0.11405,0.435663 -0.20323,-0.02811 -0.198172,-1.030572 z M 27.641672,33.615745 c 0.001,-2.756809 0.07608,-3.825845 0.16678,-2.375635 0.0907,1.45021 0.08986,3.705782 -0.0019,5.012381 -0.09173,1.306599 -0.16594,0.120063 -0.164912,-2.636746 z m -3.278668,-9.109398 c 0.08049,-0.965942 0.40267,-1.84046 0.715944,-1.943372 0.844975,-0.27758 0.7194,2.386936 -0.146356,3.105449 -0.63281,0.525186 -0.69895,0.39025 -0.569588,-1.162077 z m 3.659987,-5.772908 -0.0961,-5.313215 1.7978,-2.274387 c 1.366845,-1.7291887 2.322606,-2.4453262 3.98712,-2.987488 2.833787,-0.9230149 7.5639,-1.6634519 10.163564,-1.5909724 1.482715,0.041338 1.057878,0.1619003 -1.534219,0.4353863 -4.691491,0.494988 -7.810934,1.4315003 -10.322165,3.0988971 -2.982502,1.98031 -3.600658,3.485108 -3.763021,9.16045 l -0.136879,4.784545 z m -2.259542,-0.154836 c 0.0051,-1.002476 0.09837,-1.358926 0.207366,-0.792111 0.108993,0.566815 0.104855,1.387023 -0.0092,1.822684 -0.114051,0.435661 -0.203227,-0.0281 -0.19817,-1.030573 z m 48.713826,0.683507 c 0,-0.626548 0.103428,-0.882863 0.229836,-0.569589 0.126408,0.313274 0.126408,0.825904 0,1.139177 -0.126408,0.313274 -0.229836,0.05696 -0.229836,-0.569588 z M 72.16295,15.806605 c 0.02187,-0.530831 0.129838,-0.638805 0.275298,-0.275301 0.131629,0.328937 0.115444,0.721953 -0.03595,0.873369 -0.151419,0.151416 -0.259112,-0.117715 -0.239327,-0.598068 z m -0.491647,-1.811604 c 0,-0.390719 0.208397,-0.581602 0.463103,-0.424185 0.254707,0.157418 0.345135,0.477097 0.200942,0.710399 -0.390615,0.632036 -0.664045,0.514184 -0.664045,-0.286214 z M 69.405689,10.174197 C 68.78615,9.6981336 68.119731,9.4072169 67.924759,9.5277154 c -0.194973,0.120499 -0.354494,0.028584 -0.354494,-0.204255 0,-0.2328392 -0.962865,-0.6929297 -2.139703,-1.022424 -1.176839,-0.3294938 -1.922741,-0.6714011 -1.657563,-0.7597939 0.804328,-0.2681086 5.44073,1.6541448 6.3121,2.6169975 1.022558,1.129915 0.777753,1.135664 -0.67941,0.01596 z M 61.561104,7.1033896 C 61.890039,6.9717595 62.283055,6.9879481 62.434475,7.1393648 62.58589,7.2907806 62.316757,7.398478 61.836407,7.3786923 61.305573,7.3568292 61.197602,7.248853 61.561104,7.103391 Z M 55.617063,6.628755 c 0.819,-0.1014151 2.049312,-0.099322 2.734026,0.00465 0.684714,0.1039723 0.01463,0.1869481 -1.489092,0.1843904 -1.503714,-0.00255 -2.063934,-0.087626 -1.244934,-0.1890404 z"
         id="path14373" />
      <path
         style="fill:#767676;fill-opacity:1;stroke-width:0.455671"
         d="m 49.234822,96.859566 c 0.566813,-0.108992 1.387021,-0.104855 1.822684,0.0092 0.435662,0.11405 -0.02811,0.20323 -1.030573,0.198172 -1.002476,-0.0051 -1.358925,-0.09838 -0.792111,-0.207367 z M 40.60024,96.414899 c 0.328937,-0.131629 0.721954,-0.115444 0.873369,0.03595 0.151416,0.151415 -0.117715,0.259112 -0.598068,0.239327 -0.53083,-0.02187 -0.638805,-0.129839 -0.275301,-0.275298 z m 17.742688,0.0095 c 0.313274,-0.126407 0.825903,-0.126407 1.139177,0 0.313274,0.126408 0.05696,0.229836 -0.569588,0.229836 -0.626548,0 -0.882863,-0.103428 -0.569589,-0.229836 z m 3.673847,-0.465162 c 0.328935,-0.13163 0.721951,-0.115445 0.873371,0.03595 0.151415,0.151415 -0.117718,0.259113 -0.598068,0.239328 -0.530834,-0.02187 -0.638805,-0.129839 -0.275303,-0.275299 z m 2.278355,-0.455671 c 0.328935,-0.13163 0.721951,-0.115445 0.873371,0.03595 0.151414,0.151415 -0.117718,0.259113 -0.598069,0.239328 -0.530833,-0.02187 -0.638805,-0.129839 -0.275302,-0.275299 z m 10.146174,-9.979295 c 0.02187,-0.530833 0.129839,-0.638805 0.275298,-0.275302 0.13163,0.328935 0.115445,0.721951 -0.03595,0.873371 -0.151419,0.151414 -0.259113,-0.117718 -0.239327,-0.598069 z m 0.472094,-2.923876 c 0.02114,-0.626548 0.202618,-1.651807 0.403273,-2.278355 0.33428,-1.043796 0.368045,-1.005643 0.403273,0.455671 0.02114,0.877167 -0.160327,1.902426 -0.403273,2.278355 -0.347285,0.537382 -0.433498,0.439964 -0.403273,-0.455671 z m -1.769366,-8.657748 c 0,-0.877167 0.09378,-1.236008 0.208392,-0.797424 0.11461,0.438583 0.11461,1.156265 0,1.594848 -0.114615,0.438583 -0.208392,0.07974 -0.208392,-0.797424 z M 24.651756,69.530313 c 0.328938,-0.13163 0.721954,-0.115445 0.87337,0.03595 0.151415,0.151415 -0.117715,0.259113 -0.598068,0.239328 -0.530831,-0.02187 -0.638805,-0.129839 -0.275302,-0.275299 z M 72.741861,43.868341 c 0,-2.130261 0.07849,-3.001732 0.174431,-1.936601 0.09593,1.065131 0.09593,2.808072 0,3.873203 -0.09594,1.065131 -0.174431,0.19366 -0.174431,-1.936602 z M 24.281524,28.031447 c 0,-1.064267 0.284406,-2.05872 0.683506,-2.389944 0.588187,-0.488151 0.683507,-0.313075 0.683507,1.255424 0,1.064267 -0.284407,2.05872 -0.683507,2.389944 -0.588187,0.488151 -0.683506,0.313074 -0.683506,-1.255424 z m 3.348914,-2.845615 c 0,-2.130262 0.07849,-3.001732 0.174427,-1.936601 0.09594,1.06513 0.09594,2.808072 0,3.873203 -0.09594,1.065131 -0.174427,0.19366 -0.174427,-1.936602 z m 47.472624,0.777772 c -0.195055,-0.449392 -0.226788,-0.944934 -0.07052,-1.101205 0.462729,-0.46273 0.835742,0.187257 0.622765,1.085192 -0.188807,0.796032 -0.213372,0.796744 -0.552245,0.01601 z M 25.763449,21.7683 c 0.0051,-1.002476 0.09837,-1.358926 0.207366,-0.792112 0.108993,0.566816 0.104855,1.387023 -0.0092,1.822684 -0.114051,0.435662 -0.203227,-0.0281 -0.19817,-1.030572 z m 48.756791,0 c 0.0051,-1.002476 0.09838,-1.358926 0.207367,-0.792112 0.108992,0.566816 0.104854,1.387023 -0.0092,1.822684 -0.11404,0.435662 -0.20322,-0.0281 -0.198162,-1.030572 z M 29.284092,11.073812 c 0.529973,-0.744278 1.196295,-1.4970541 1.480715,-1.6728356 0.284421,-0.1757814 -0.05704,0.4331736 -0.758806,1.3532326 -1.523161,1.996968 -2.097288,2.251145 -0.721909,0.319603 z M 47.63466,6.1665875 c 1.44106,-0.090428 3.799157,-0.090428 5.240216,0 1.44106,0.090428 0.262011,0.1644148 -2.620108,0.1644148 -2.882118,0 -4.061167,-0.073987 -2.620108,-0.1644148 z M 43.334266,4.3693639 c 0.328937,-0.13163 0.721953,-0.1154417 0.873369,0.035974 0.151415,0.1514155 -0.117715,0.2591127 -0.598068,0.239327 -0.530831,-0.021865 -0.638805,-0.1298389 -0.275301,-0.275301 z m 12.758786,0 c 0.328936,-0.13163 0.721952,-0.1154417 0.873371,0.035974 0.151415,0.1514157 -0.117718,0.2591129 -0.598068,0.2393272 C 55.837521,4.6228 55.72955,4.5148259 56.093052,4.3693639 Z"
         id="path14371" />
      <path
         style="fill:#606060;fill-opacity:1;stroke-width:0.455671"
         d="m 41.938773,96.424391 c 0.313274,-0.126408 0.825904,-0.126408 1.139178,0 0.313274,0.126408 0.05696,0.229836 -0.569589,0.229836 -0.626548,0 -0.882862,-0.103428 -0.569589,-0.229836 z m 13.897965,-0.01235 c 0.438583,-0.11461 1.156265,-0.11461 1.594848,0 0.438583,0.114615 0.07974,0.208392 -0.797424,0.208392 -0.877167,0 -1.236008,-0.09378 -0.797424,-0.208392 z M 37.866214,95.959206 c 0.328938,-0.13163 0.721954,-0.115445 0.87337,0.03595 0.151415,0.151415 -0.117716,0.259113 -0.598069,0.239327 -0.53083,-0.02187 -0.638805,-0.129838 -0.275301,-0.275298 z m 22.783548,0 c 0.328935,-0.13163 0.721951,-0.115445 0.873371,0.03595 0.151415,0.151415 -0.117718,0.259113 -0.598068,0.239327 -0.530834,-0.02187 -0.638805,-0.129838 -0.275303,-0.275298 z M 43.305786,94.601707 c 0.313274,-0.126408 0.825904,-0.126408 1.139178,0 0.313273,0.126408 0.05696,0.229836 -0.569589,0.229836 -0.626548,0 -0.882863,-0.103428 -0.569589,-0.229836 z m 11.875925,-0.0095 c 0.328935,-0.13163 0.721951,-0.115444 0.87337,0.03595 0.151415,0.151414 -0.117718,0.259112 -0.598068,0.239327 -0.530834,-0.02187 -0.638805,-0.129839 -0.275302,-0.275298 z m 12.388554,-2.146178 c 0,-0.0985 0.318227,-0.301199 0.707174,-0.450454 0.40551,-0.155607 0.588417,-0.07922 0.428777,0.179083 -0.267597,0.432984 -1.135951,0.640423 -1.135951,0.271371 z m 2.50619,-1.643601 c 0.453616,-0.501238 0.927281,-0.911342 1.052591,-0.911342 0.125309,0 -0.143304,0.410104 -0.59692,0.911342 -0.453616,0.501238 -0.927281,0.911342 -1.052591,0.911342 -0.125309,0 0.143304,-0.410104 0.59692,-0.911342 z M 42.499223,82.361524 c -0.317019,-0.381985 -0.449479,-0.821434 -0.294356,-0.976558 0.155124,-0.155124 0.410882,0.05371 0.568352,0.464065 0.15747,0.410359 0.501557,0.613078 0.764637,0.450485 0.279318,-0.172631 0.343056,-0.07675 0.153196,0.230451 -0.418033,0.676394 -0.500332,0.66476 -1.191829,-0.168443 z m 2.562266,0.162902 c 0.129076,-0.208847 0.427634,-0.379724 0.663462,-0.379724 0.235828,0 0.428779,0.170877 0.428779,0.379724 0,0.208852 -0.298558,0.379729 -0.663462,0.379729 -0.364905,0 -0.557855,-0.170877 -0.428779,-0.379729 z m -5.70685,-0.493642 c -0.01979,-0.438583 0.271604,-0.797424 0.647533,-0.797424 0.375928,0 0.683506,0.217155 0.683506,0.482565 0,0.26541 -0.187538,0.366655 -0.416752,0.224996 -0.229213,-0.141663 -0.520603,2.3e-5 -0.647532,0.31486 -0.139227,0.345335 -0.245052,0.256078 -0.266755,-0.224997 z m 35.597204,-2.392272 c 0,-1.002476 0.164173,-2.335314 0.364828,-2.961862 0.311715,-0.973331 0.364828,-0.873826 0.364828,0.683507 0,1.002476 -0.164173,2.335314 -0.364828,2.961861 -0.311715,0.973332 -0.364828,0.873827 -0.364828,-0.683506 z m -1.877552,-3.683339 c 0.02187,-0.530834 0.129839,-0.638805 0.275299,-0.275303 0.131629,0.328935 0.115444,0.721952 -0.03595,0.873371 -0.151419,0.151415 -0.259113,-0.117718 -0.239327,-0.598068 z m -48.792767,-7.01063 c 0,-0.242749 0.307578,-0.323339 0.683506,-0.179083 0.375929,0.144261 0.683507,0.342874 0.683507,0.441372 0,0.09849 -0.307578,0.179083 -0.683507,0.179083 -0.375928,0 -0.683506,-0.198618 -0.683506,-0.441372 z M 72.697556,38.628125 c 0.0051,-1.002476 0.09837,-1.358926 0.207367,-0.792111 0.108992,0.566815 0.104855,1.387023 -0.0092,1.822684 -0.114041,0.435661 -0.203221,-0.0281 -0.198163,-1.030573 z m 0.05367,-6.607228 c 0,-2.6315 0.07531,-3.708023 0.167359,-2.392273 0.09205,1.31575 0.09205,3.468795 0,4.784545 -0.09204,1.31575 -0.167359,0.239227 -0.167359,-2.392272 z m -48.469701,0.142886 c 0,-1.497128 0.240454,-2.509211 0.683506,-2.876912 0.590108,-0.489746 0.681526,-0.295006 0.669015,1.425136 -0.008,1.095818 -0.315549,2.390428 -0.683507,2.876913 -0.616583,0.815195 -0.669014,0.703505 -0.669014,-1.425137 z m 50.921229,-2.116756 c -0.545593,-1.332552 -0.432172,-4.22254 0.143145,-3.647225 0.26669,0.266693 0.420479,1.384226 0.341753,2.483406 -0.101519,1.417358 -0.242522,1.755788 -0.484898,1.163819 z M 25.778865,25.413668 c 0.0034,-1.253095 0.09192,-1.711643 0.196652,-1.018995 0.104739,0.692649 0.101939,1.717908 -0.0062,2.278355 -0.108158,0.560447 -0.193853,-0.0063 -0.190432,-1.25936 z m 48.715297,-0.911342 c 0.0093,-0.751857 0.111412,-1.00427 0.226943,-0.560917 0.11553,0.443353 0.107934,1.058509 -0.01691,1.367013 -0.124799,0.308504 -0.219323,-0.05424 -0.210037,-0.806096 z M 27.627429,18.122932 c 0.0016,-2.004952 0.08177,-2.768476 0.178025,-1.696721 0.09626,1.071755 0.0949,2.712171 -0.003,3.645368 -0.09792,0.933196 -0.176672,0.05631 -0.175017,-1.948647 z m 42.405733,-8.088159 -0.868049,-1.0252598 1.02526,0.8680477 c 0.963489,0.8157501 1.232699,1.1824711 0.868048,1.1824711 -0.08647,0 -0.547835,-0.461366 -1.025259,-1.025259 z M 43.761457,6.2015407 c 0.313274,-0.1264086 0.825904,-0.1264086 1.139178,0 0.313273,0.126409 0.05696,0.229834 -0.569589,0.229834 -0.626548,0 -0.882863,-0.103425 -0.569589,-0.229834 z"
         id="path14369" />
      <path
         style="fill:#494949;fill-opacity:1;stroke-width:0.455671"
         d="m 46.267647,96.38827 c 1.691679,-0.08768 4.45988,-0.08768 6.151558,0 1.691679,0.08767 0.307578,0.159407 -3.075779,0.159407 -3.383356,0 -4.767457,-0.07173 -3.075779,-0.159407 z m -7.03442,-0.429042 c 0.328937,-0.131629 0.721954,-0.115444 0.87337,0.03595 0.151415,0.151415 -0.117716,0.259112 -0.598069,0.239327 -0.53083,-0.02187 -0.638805,-0.129839 -0.275301,-0.275298 z m 19.346208,-0.0046 c 0.443354,-0.115531 1.05851,-0.107935 1.367013,0.0169 0.308503,0.124822 -0.05424,0.219346 -0.806096,0.21006 -0.751857,-0.0093 -1.004271,-0.111412 -0.560917,-0.226943 z m 3.43734,-0.451169 c 0.328935,-0.13163 0.721951,-0.115445 0.873371,0.03595 0.151415,0.151415 -0.117718,0.259113 -0.598068,0.239328 -0.530834,-0.02187 -0.638805,-0.129839 -0.275303,-0.275299 z m -28.1753,-0.838918 c -0.31702,-0.381984 -0.488154,-0.782761 -0.380299,-0.890618 0.107856,-0.107853 0.446391,0.204678 0.752302,0.69452 0.661549,1.059307 0.44092,1.175613 -0.372003,0.196098 z m 30.453655,0.383247 c 0.328935,-0.13163 0.721951,-0.115445 0.873371,0.03595 0.151414,0.151415 -0.117718,0.259113 -0.598069,0.239328 -0.530833,-0.02187 -0.638805,-0.129839 -0.275302,-0.275299 z m 6.692667,-2.878369 c 0.453616,-0.501238 0.927281,-0.911342 1.052591,-0.911342 0.125309,0 -0.143304,0.410104 -0.59692,0.911342 -0.453616,0.501238 -0.927281,0.911342 -1.052591,0.911342 -0.125309,0 0.143304,-0.410104 0.59692,-0.911342 z M 42.964033,81.613084 c 0,-0.208847 0.19295,-0.379724 0.428779,-0.379724 0.235828,0 0.534386,0.170877 0.663462,0.379724 0.129076,0.208853 -0.06388,0.379729 -0.428779,0.379729 -0.364904,0 -0.663462,-0.170876 -0.663462,-0.379729 z m 31.968649,-6.303446 c -0.01053,-1.378405 0.150494,-3.326398 0.357847,-4.328874 0.337661,-1.63246 0.377738,-1.489794 0.38399,1.367012 0.0036,1.754334 -0.157193,3.702327 -0.357848,4.328874 -0.279144,0.871626 -0.36933,0.550569 -0.383989,-1.367012 z m -1.858391,-3.911175 c 0.02187,-0.530833 0.129839,-0.638805 0.275299,-0.275302 0.131629,0.328935 0.115444,0.721951 -0.03595,0.873371 -0.151419,0.151414 -0.259113,-0.117719 -0.239327,-0.598069 z M 24.585304,68.626462 c -0.167079,-0.167076 -0.28818,-1.448651 -0.269114,-2.847943 l 0.03467,-2.544162 0.614173,1.594849 c 1.012581,2.629408 0.77984,4.956825 -0.379726,3.797256 z M 24.334382,38.6013 c -0.0383,-2.990608 0.13146,-4.371555 0.616156,-5.01238 0.606378,-0.801703 0.670372,-0.541084 0.683507,2.783634 0.008,2.017483 -0.170657,3.862951 -0.39695,4.101039 -0.226293,0.238088 -0.510084,0.842991 -0.630648,1.344229 -0.120564,0.501238 -0.242993,-0.946197 -0.272065,-3.216522 z m 50.879216,-3.390707 c -0.165436,-0.877166 -0.400279,-3.440315 -0.521875,-5.695887 -0.197593,-3.665345 -0.17424,-3.834781 0.21982,-1.594848 0.688255,3.912193 0.955556,6.613678 0.771629,7.798426 -0.140994,0.908188 -0.218294,0.824612 -0.469574,-0.507691 z M 25.789735,29.970377 c 0.0026,-1.503714 0.08763,-2.063934 0.18904,-1.244934 0.101415,0.819 0.09932,2.049312 -0.0046,2.734025 -0.103975,0.684714 -0.186951,0.01462 -0.184393,-1.489091 z M 45.61262,4.3693639 c 0.328938,-0.13163 0.721952,-0.1154417 0.873371,0.035974 0.151415,0.1514157 -0.117718,0.2591129 -0.598069,0.2393272 C 45.357091,4.6228002 45.249117,4.514826 45.61262,4.3693639 Z m 8.202078,0 c 0.328935,-0.13163 0.721951,-0.1154417 0.873371,0.035974 C 54.839483,4.5567534 54.570351,4.6644506 54.09,4.6446649 53.559167,4.6228 53.451195,4.5148259 53.814698,4.3693639 Z"
         id="path14367" />
      <path
         style="fill:#333333;fill-opacity:1;stroke-width:0.455671"
         d="m 37.744879,95.790097 c -2.516151,-0.390793 -4.426246,-1.417861 -3.800538,-2.043566 0.147023,-0.147027 1.570181,-0.0041 3.162573,0.31794 1.852938,0.374557 6.504265,0.579837 12.920019,0.570213 8.786885,-0.01317 10.527803,-0.139677 14.098582,-1.024344 4.775528,-1.183149 6.581461,-2.395262 8.06873,-5.415608 L 73.266152,86.017905 73.098497,58.449812 C 73.006283,43.287361 72.801231,26.780681 72.642826,21.7683 72.369013,13.1043 72.300703,12.579018 71.257622,11.11651 69.160233,8.1757611 63.651394,6.6835727 53.12375,6.2045604 45.871101,5.8745617 38.543823,6.5358783 34.007243,7.9299038 30.800392,8.9153228 28.728665,10.879176 27.95429,13.667685 27.645431,14.77988 27.475404,25.022518 27.473762,42.615246 l -0.0025,27.22634 h 1.822684 c 1.316383,0 1.822684,0.189865 1.822684,0.683507 0,0.46863 -0.465563,0.681551 -1.480931,0.677286 -2.787414,-0.01171 -3.489314,-0.423236 -3.766728,-2.208427 -0.141755,-0.912204 -0.572497,-2.786342 -0.957204,-4.164746 -0.898533,-3.219443 -0.763433,-23.122632 0.164531,-24.238979 0.402477,-0.484182 0.675909,-4.502038 0.942754,-13.852993 0.346651,-12.147522 0.451535,-13.317046 1.349724,-15.050294 2.308117,-4.4540036 6.052693,-6.0136536 16.834241,-7.0116137 8.914706,-0.8251618 20.168598,0.4100897 24.673243,2.7081888 2.298614,1.1726633 4.475317,3.7070509 5.011473,5.8349719 0.237628,0.943112 0.5428,6.020839 0.678162,11.283839 0.135361,5.262999 0.473729,10.344905 0.751934,11.293123 0.559943,1.9085 0.343326,29.495871 -0.335319,42.703885 -0.323594,6.297988 -0.553717,7.888444 -1.417496,9.796926 -2.803776,6.194796 -6.647246,7.498767 -22.854533,7.753838 -5.638928,0.08875 -11.47343,-0.02825 -12.96556,-0.260001 z"
         id="path14365" />
    </g>
  </g>
</svg>
