<?xml version="1.0" encoding="UTF-8" standalone="no"?>
<!-- Created with Inkscape (http://www.inkscape.org/) -->

<svg
   width="100mm"
   height="100mm"
   viewBox="0 0 100 100"
   version="1.1"
   id="svg7218"
   inkscape:version="1.1.1 (3bf5ae0d25, 2021-09-20)"
   sodipodi:docname="add_list_type_device_7022.svg"
   xmlns:inkscape="http://www.inkscape.org/namespaces/inkscape"
   xmlns:sodipodi="http://sodipodi.sourceforge.net/DTD/sodipodi-0.dtd"
   xmlns="http://www.w3.org/2000/svg"
   xmlns:svg="http://www.w3.org/2000/svg">
  <sodipodi:namedview
     id="namedview7220"
     pagecolor="#505050"
     bordercolor="#ffffff"
     borderopacity="1"
     inkscape:pageshadow="0"
     inkscape:pageopacity="0"
     inkscape:pagecheckerboard="1"
     inkscape:document-units="mm"
     showgrid="false"
     inkscape:zoom="0.58974467"
     inkscape:cx="397.62971"
     inkscape:cy="222.13003"
     inkscape:window-width="1440"
     inkscape:window-height="890"
     inkscape:window-x="-6"
     inkscape:window-y="-6"
     inkscape:window-maximized="1"
     inkscape:current-layer="layer1" />
  <defs
     id="defs7215" />
  <g
     inkscape:label="Laag 1"
     inkscape:groupmode="layer"
     id="layer1">
    <g
       id="g7234"
       transform="translate(-0.89728211,-2.2432024)">
      <path
         style="fill:#d0d0d0;fill-opacity:1;stroke-width:0.605218"
         d="m 18.83837,94.074165 c 0.19674,-0.318332 0.757509,-0.425365 1.246153,-0.237857 1.251054,0.480077 1.103629,0.816645 -0.357709,0.816645 -0.685384,0 -1.085184,-0.260456 -0.888444,-0.578788 z m -6.698563,-2.598605 -1.152932,-1.36174 1.36174,1.152933 c 1.279699,1.083473 1.63726,1.570547 1.152932,1.570547 -0.114844,0 -0.727627,-0.612783 -1.36174,-1.36174 z m 2.098567,-2.118263 c -0.752813,-0.959911 -0.731406,-0.981318 0.228503,-0.228506 0.582522,0.456849 1.059131,0.933458 1.059131,1.059131 0,0.498119 -0.496996,0.177517 -1.287634,-0.830625 z M 9.6142426,84.969468 c 0,-1.165044 0.1245508,-1.641653 0.27678,-1.059131 0.1522284,0.582522 0.1522284,1.53574 0,2.118263 -0.1522292,0.582522 -0.27678,0.105913 -0.27678,-1.059132 z m 18.7617514,0 c 0,-1.165044 0.124551,-1.641653 0.27678,-1.059131 0.152228,0.582522 0.152228,1.53574 0,2.118263 -0.152229,0.582522 -0.27678,0.105913 -0.27678,-1.059132 z m -10.27781,-9.495461 c 0.582522,-0.152224 1.53574,-0.152224 2.118262,0 0.582522,0.15223 0.105913,0.276784 -1.059131,0.276784 -1.165044,0 -1.641653,-0.124554 -1.059131,-0.276784 z M 52.936032,46.427316 c 0.436892,-0.17483 0.958892,-0.153329 1.160001,0.04778 0.201108,0.201109 -0.156348,0.344151 -0.794348,0.317872 -0.705045,-0.02904 -0.848455,-0.172451 -0.365653,-0.365652 z M 51.374269,43.81466 c 0,-1.165045 0.124551,-1.641654 0.27678,-1.059132 0.152229,0.582523 0.152229,1.535741 0,2.118263 -0.152229,0.582522 -0.27678,0.105913 -0.27678,-1.059131 z m 3.581576,-0.109211 c -0.07298,-1.792681 -0.356487,-2.27867 -1.452421,-2.489756 l -1.36174,-0.262283 1.380734,-0.08242 c 1.59953,-0.09548 2.143727,0.926958 1.781169,3.346458 -0.220287,1.470063 -0.270034,1.396818 -0.347742,-0.511999 z M 18.790578,30.248384 c -0.180811,-0.471186 -0.21307,-1.628665 -0.07169,-2.572175 0.220287,-1.470063 0.270034,-1.396818 0.347743,0.511999 0.07298,1.792681 0.356486,2.27867 1.452421,2.489756 l 1.36174,0.262283 -1.380735,0.08242 c -0.759404,0.04533 -1.528671,-0.303096 -1.709482,-0.774282 z m 60.537331,0.04053 c -0.189367,-0.493479 -0.228621,-1.669198 -0.08724,-2.612708 0.216171,-1.442603 0.271488,-1.354466 0.347746,0.554093 0.07964,1.993211 0.274914,2.269567 1.603724,2.269567 1.35728,0 1.513044,-0.244894 1.513044,-2.378778 0,-1.890715 -0.250251,-2.434979 -1.219713,-2.652701 -1.014611,-0.227862 -0.989168,-0.260383 0.151304,-0.193398 1.209504,0.07104 1.371018,0.401374 1.371018,2.804006 0,2.522543 -0.123047,2.737634 -1.667792,2.915317 -1.053346,0.12116 -1.794634,-0.13872 -2.012089,-0.705398 z M 22.323816,28.078997 c 0,-1.165044 0.124551,-1.641653 0.27678,-1.059131 0.152229,0.582522 0.152229,1.53574 0,2.118262 -0.152229,0.582523 -0.27678,0.105914 -0.27678,-1.059131 z M 49.20908,27.019866 c -0.154307,-0.249652 0.987099,-0.374302 2.536458,-0.276999 4.802578,0.301612 5.402304,0.562456 1.490995,0.648493 -2.060791,0.04533 -3.873145,-0.121841 -4.027453,-0.371494 z M 20.254272,25.244693 c 0.436892,-0.174829 0.958892,-0.153328 1.160001,0.04778 0.201108,0.201109 -0.156348,0.344152 -0.794348,0.317873 -0.705045,-0.02904 -0.848455,-0.172451 -0.365653,-0.365653 z m 32.352843,-2.426848 c 0.588857,-0.153449 1.405901,-0.143358 1.815654,0.02242 0.409752,0.165785 -0.07204,0.291335 -1.07065,0.279 -0.998609,-0.01233 -1.333861,-0.147974 -0.745004,-0.301423 z M 15.870999,11.806693 c -0.182415,-0.295153 0.141947,-0.907936 0.720804,-1.36174 0.946262,-0.7418375 0.970956,-0.721001 0.244702,0.206485 -0.742595,0.948356 -0.449627,1.048517 3.631307,1.241485 l 4.439072,0.209902 -4.352111,0.120255 c -2.393661,0.06614 -4.501359,-0.121234 -4.683774,-0.416387 z m 61.17608,0.08273 c -0.155414,-0.249653 1.78768,-0.362466 4.317999,-0.250696 4.390425,0.193935 4.560661,0.152467 3.726858,-0.907827 -0.799638,-1.0168533 -0.784483,-1.0410946 0.178758,-0.285946 0.578854,0.453804 0.90322,1.066587 0.720802,1.36174 -0.401429,0.64953 -8.544671,0.724848 -8.944417,0.08273 z M 20.254272,7.0881601 c 0.436892,-0.1748296 0.958892,-0.1533284 1.160001,0.04778 0.201108,0.2011088 -0.156348,0.3441512 -0.794348,0.317872 -0.705045,-0.02904 -0.848455,-0.1724505 -0.365653,-0.365652 z m 60.521778,0 c 0.436888,-0.1748296 0.958889,-0.1533284 1.160002,0.04778 0.201108,0.2011088 -0.156351,0.3441512 -0.794348,0.317872 -0.705048,-0.029041 -0.848455,-0.1724507 -0.365654,-0.365652 z"
         id="path7250" />
      <path
         style="fill:#b9b9b9;fill-opacity:1;stroke-width:0.605218"
         d="m 17.228183,94.239523 c 0.436892,-0.17483 0.958892,-0.153332 1.160001,0.04775 0.201108,0.201108 -0.156348,0.344151 -0.794348,0.317873 -0.705045,-0.02905 -0.848455,-0.172451 -0.365653,-0.365649 z m 35.21611,-69.186615 c 0,-0.332869 0.272348,-0.605217 0.605217,-0.605217 0.33287,0 0.605218,0.272348 0.605218,0.605217 0,0.33287 -0.272348,0.605218 -0.605218,0.605218 -0.332869,0 -0.605217,-0.272348 -0.605217,-0.605218 z M 23.921858,10.678986 c -0.752812,-0.9599091 -0.731406,-0.9813156 0.228503,-0.228503 0.582523,0.456845 1.059132,0.933454 1.059132,1.059131 0,0.498115 -0.496997,0.177513 -1.287635,-0.830628 z M 19.762533,9.3172462 c 0,-0.3328698 0.272348,-0.6052178 0.605217,-0.6052178 0.33287,0 0.605218,0.272348 0.605218,0.6052178 0,0.3328698 -0.272348,0.6052178 -0.605218,0.6052178 -0.332869,0 -0.605217,-0.272348 -0.605217,-0.6052178 z m 61.126995,0 c 0,-0.3328698 0.272348,-0.6052178 0.605218,-0.6052178 0.33287,0 0.605218,0.272348 0.605218,0.6052178 0,0.3328698 -0.272348,0.6052178 -0.605218,0.6052178 -0.33287,0 -0.605218,-0.272348 -0.605218,-0.6052178 z m -2.420871,-0.228503 c 0,-0.1256771 0.476609,-0.6022861 1.059131,-1.0591311 0.959912,-0.7528128 0.981318,-0.731406 0.228506,0.228503 -0.790638,1.0081403 -1.287637,1.3287429 -1.287637,0.8306281 z"
         id="path7248" />
      <path
         style="fill:#a3a3a3;fill-opacity:1;stroke-width:0.605218"
         d="M 14.721151,98.543632 C 8.0605905,96.425914 3.6906865,88.920608 5.19761,82.186968 7.726437,70.886977 21.061186,66.869299 29.159335,74.967446 c 3.585883,3.585885 4.991822,8.16351 3.94456,12.843169 -1.85547,8.291114 -10.390202,13.274235 -18.382744,10.733017 z M 24.796199,92.660146 C 30.692368,88.162918 29.756402,79.397204 23.039714,76.209928 16.584,73.146491 8.8244304,78.788984 9.632608,85.959114 c 0.824146,7.3118 9.396291,11.099967 15.163591,6.701032 z m -6.84932,0.386795 c 0,-0.55044 -1.089392,-2.006515 -2.420871,-3.23573 -2.090666,-1.930094 -2.420871,-2.584171 -2.420871,-4.795328 0,-3.587925 2.491563,-6.098592 6.052178,-6.098592 7.184793,0 8.280169,9.737693 1.562405,13.8895 -2.429473,1.501496 -2.772841,1.531237 -2.772841,0.24015 z m 32.568282,-9.701338 c 0.436891,-0.17483 0.958892,-0.153332 1.160001,0.04775 0.201108,0.201108 -0.156349,0.344151 -0.794349,0.317873 -0.705044,-0.02905 -0.848454,-0.172451 -0.365652,-0.365649 z m 6.052178,0 c 0.436891,-0.17483 0.958892,-0.153332 1.160001,0.04775 0.201108,0.201108 -0.156349,0.344151 -0.794349,0.317873 -0.705044,-0.02905 -0.848455,-0.172451 -0.365652,-0.365649 z M 17.833401,68.215158 c 0.436891,-0.174829 0.958892,-0.153332 1.160001,0.04775 0.201108,0.201114 -0.156349,0.344151 -0.794349,0.317872 -0.705044,-0.02905 -0.848454,-0.17245 -0.365652,-0.365648 z m 6.052178,0 c 0.436891,-0.174829 0.958892,-0.153332 1.160001,0.04775 0.201108,0.201114 -0.156349,0.344151 -0.794349,0.317872 -0.705044,-0.02905 -0.848455,-0.17245 -0.365652,-0.365648 z m 17.155137,-2.007441 c 0,-0.832174 0.137368,-1.172609 0.305263,-0.756522 0.167895,0.416087 0.167895,1.096957 0,1.513045 -0.167895,0.416087 -0.305263,0.07565 -0.305263,-0.756523 z m 0.557437,-3.37913 c 0.02904,-0.705049 0.172451,-0.848455 0.365652,-0.365655 0.17483,0.436889 0.153329,0.958889 -0.04778,1.160003 -0.201109,0.201108 -0.344151,-0.156352 -0.317872,-0.794348 z m 0.605217,-3.026091 c 0.02904,-0.705044 0.172452,-0.848455 0.365653,-0.365653 0.17483,0.436892 0.153328,0.958892 -0.04778,1.160001 -0.201109,0.201109 -0.344152,-0.156348 -0.317873,-0.794348 z m 26.769341,-4.18609 c 0.0036,-1.997218 0.116384,-2.741298 0.251081,-1.65351 0.134697,1.087788 0.131919,2.721876 -0.0062,3.631307 -0.138099,0.90943 -0.248303,0.01942 -0.244908,-1.977797 z m 25.98945,0 c 0.0067,-1.331479 0.13066,-1.804912 0.275422,-1.052075 0.144762,0.752839 0.139267,1.842231 -0.01223,2.420871 -0.151468,0.578642 -0.269915,-0.03732 -0.263197,-1.368796 z M 8.3111749,51.329447 c 0.029038,-0.705044 0.1724513,-0.848455 0.3656526,-0.365652 0.1748298,0.436891 0.1533283,0.958891 -0.047782,1.16 C 8.4279365,52.324904 8.2848939,51.967447 8.311173,51.329447 Z M 69.438172,48.908576 c 0.02905,-0.705044 0.172451,-0.848455 0.365649,-0.365653 0.174829,0.436892 0.153332,0.958892 -0.04775,1.160001 -0.201114,0.201109 -0.344151,-0.156348 -0.317873,-0.794348 z m -18.93712,-1.306109 c 2.09348,-0.11852 5.361656,-0.117541 7.262613,0.0022 1.900957,0.119714 0.188109,0.216684 -3.806328,0.215488 -3.994437,-0.0012 -5.549766,-0.09915 -3.456285,-0.217667 z m 19.542338,-1.71998 c 0.02905,-0.705044 0.172451,-0.848455 0.365648,-0.365652 0.17483,0.436891 0.153332,0.958891 -0.04775,1.16 -0.201114,0.201109 -0.344151,-0.156348 -0.317873,-0.794348 z m 3.583525,-12.320812 c 0,-0.313225 0.269231,-0.735892 0.598288,-0.93926 0.343074,-0.212031 0.444532,0.0309 0.237856,0.5695 -0.402342,1.048489 -0.836144,1.240325 -0.836144,0.36976 z"
         id="path7246" />
      <path
         style="fill:#8c8c8c;fill-opacity:1;stroke-width:0.605218"
         d="m 13.570217,32.818791 c 0.351693,-0.351694 0.996684,-0.520363 1.433313,-0.37482 0.453275,0.151092 0.178934,0.425433 -0.639444,0.639443 -1.006686,0.263254 -1.242982,0.184489 -0.793869,-0.264623 z"
         id="path7244" />
      <path
         style="fill:#767676;fill-opacity:1;stroke-width:0.605218"
         d="m 53.54125,83.345603 c 0.436891,-0.17483 0.958892,-0.153332 1.160001,0.04775 0.201108,0.201108 -0.156349,0.344151 -0.794349,0.317873 -0.705044,-0.02905 -0.848454,-0.172451 -0.365652,-0.365649 z M 19.913837,68.211394 c 0.582522,-0.152225 1.53574,-0.152225 2.118262,0 0.582522,0.15223 0.105913,0.276784 -1.059131,0.276784 -1.165044,0 -1.641653,-0.124554 -1.059131,-0.276784 z m 61.126996,0 c 0.582522,-0.152225 1.53574,-0.152225 2.118262,0 0.582522,0.15223 0.105913,0.276784 -1.059131,0.276784 -1.165045,0 -1.641654,-0.124554 -1.059131,-0.276784 z m -69.506243,-3.365417 -1.152933,-1.36174 1.36174,1.152934 c 1.2797,1.083473 1.63726,1.570546 1.152933,1.570546 -0.114845,0 -0.727628,-0.612783 -1.36174,-1.36174 z m 6.886491,-32.372133 c 1.758724,-0.122642 4.482204,-0.121353 6.052177,0.0028 1.569973,0.124238 0.131017,0.224582 -3.197681,0.223006 -3.328698,-0.0016 -4.613221,-0.103209 -2.854496,-0.225851 z m 60.501489,7.27e-4 c 1.747567,-0.122256 4.607221,-0.122256 6.354787,0 1.747566,0.122255 0.317739,0.222282 -3.177393,0.222282 -3.495133,0 -4.92496,-0.100027 -3.177394,-0.222282 z"
         id="path7242" />
      <path
         style="fill:#606060;fill-opacity:1;stroke-width:0.605218"
         d="m 41.063141,71.352068 c 0.01234,-0.998609 0.147975,-1.333863 0.301424,-0.745004 0.153449,0.588858 0.143358,1.405902 -0.02242,1.815653 -0.165786,0.40975 -0.291335,-0.07204 -0.279001,-1.070649 z M 8.3813813,55.011188 c 0.012334,-0.998609 0.1479746,-1.333861 0.3014239,-0.745003 0.1534487,0.588857 0.1433573,1.405901 -0.022423,1.815653 C 8.4945964,56.49159 8.369047,56.009798 8.3813813,55.011188 Z M 94.252101,51.934665 c 0.02905,-0.705044 0.172451,-0.848455 0.365648,-0.365653 0.17483,0.436892 0.153332,0.958892 -0.04775,1.160001 -0.201114,0.201109 -0.344151,-0.156348 -0.317873,-0.794348 z"
         id="path7240" />
      <path
         style="fill:#494949;fill-opacity:1;stroke-width:0.605218"
         d="m 65.970553,69.839024 c 0,-2.829393 0.104255,-3.986872 0.231677,-2.572176 0.127417,1.414697 0.127417,3.729655 0,5.144352 -0.127422,1.414696 -0.231677,0.257217 -0.231677,-2.572176 z M 33.284798,55.011188 c 0.0022,-2.662958 0.108601,-3.677064 0.236451,-2.253569 0.127849,1.423496 0.126051,3.60228 -0.004,4.841743 -0.130051,1.239463 -0.234655,0.07478 -0.232457,-2.588174 z m -0.694706,-6.657395 c 0.01234,-0.998609 0.147975,-1.333861 0.301424,-0.745004 0.153449,0.588857 0.143358,1.405901 -0.02242,1.815653 -0.165785,0.409752 -0.291335,-0.07204 -0.279001,-1.070649 z M 31.30945,43.461616 c 0.02904,-0.705044 0.172452,-0.848455 0.365653,-0.365653 0.17483,0.436892 0.153328,0.958892 -0.04778,1.160001 -0.201109,0.201109 -0.344152,-0.156348 -0.317872,-0.794348 z m -0.557437,-2.673045 c 0,-0.832175 0.137368,-1.17261 0.305264,-0.756523 0.167894,0.416088 0.167894,1.096958 0,1.513045 -0.167896,0.416087 -0.305264,0.07565 -0.305264,-0.756522 z"
         id="path7238" />
      <path
         style="fill:#333333;fill-opacity:1;stroke-width:0.605218"
         d="M 47.834901,81.995961 C 46.46478,81.373767 44.561476,79.839055 43.605337,78.585492 40.527655,74.550439 40.862897,65.347897 44.516855,53.563931 l 1.615554,-5.210138 7.614746,-0.168787 7.614745,-0.168787 1.282715,3.497485 c 2.422239,6.604565 3.114469,10.540119 3.114469,17.706763 0,6.436328 -0.119065,7.170191 -1.490888,9.18901 -3.021226,4.446129 -10.801277,6.144092 -16.433295,3.586484 z M 15.153141,66.865516 C 13.78302,66.243322 11.876584,64.70291 10.916616,63.442374 9.2303143,61.228096 9.1722563,60.92363 9.2017885,54.449538 c 0.0293,-6.423359 1.3983405,-13.506222 3.8395805,-19.86445 l 0.639026,-1.664348 h 7.211879 7.211879 l 0.902028,2.269566 c 2.400621,6.040129 3.756546,13.183095 3.762531,19.820882 0.0054,5.946409 -0.139878,6.861913 -1.359962,8.572408 -2.981545,4.179979 -10.801421,5.758768 -16.255609,3.28192 z m 60.391267,-0.140779 c -3.588542,-1.776278 -5.713988,-5.125416 -6.028132,-9.498713 -0.295867,-4.118825 1.095825,-12.482571 3.21347,-19.312238 l 1.548171,-4.993046 h 7.573211 7.573211 l 0.949285,2.269566 c 2.951955,7.057605 5.007305,19.990418 3.856302,24.264914 -0.821898,3.052293 -3.825031,6.631629 -6.502805,7.750477 -3.067467,1.28167 -9.103147,1.04339 -12.182713,-0.48096 z M 52.091992,45.416449 c -0.696655,-1.815454 0.0062,-3.713888 1.450783,-3.918606 1.281178,-0.181562 1.384773,-7.26e-4 1.210435,2.113229 -0.200077,2.42602 -1.963886,3.622593 -2.661218,1.805377 z M 19.269268,28.277552 c 0.152222,-1.849787 0.434659,-2.316817 1.401091,-2.316817 0.979877,0 1.210436,0.403479 1.210436,2.118262 0,1.753687 -0.241143,2.152436 -1.401092,2.316817 -1.281581,0.181619 -1.384828,9.08e-4 -1.210435,-2.118262 z m 60.524592,-0.04725 c 0.150887,-1.823046 0.455753,-2.307616 1.549581,-2.462965 1.220779,-0.173378 1.36174,0.06156 1.36174,2.269567 0,2.239169 -0.140804,2.462964 -1.549581,2.462964 -1.420537,0 -1.533937,-0.188995 -1.36174,-2.269566 z M 50.628639,25.052908 c 1.419885,-1.994044 3.600875,-2.402979 4.841742,-0.907826 0.414386,0.499304 0.55056,0.907826 0.302609,0.907826 -0.247951,0 -0.111777,0.408522 0.302609,0.907827 0.655916,0.79033 0.268517,0.907827 -2.993195,0.907827 H 49.33578 Z m 3.328698,0 c 0.205725,-0.332869 -0.05055,-0.605217 -0.5695,-0.605217 -0.518949,0 -0.943544,0.272348 -0.943544,0.605217 0,0.33287 0.256274,0.605218 0.569499,0.605218 0.313225,0 0.73782,-0.272348 0.943545,-0.605218 z M 16.863886,10.801236 c 3.431492,-4.1196393 4.478358,-4.2331494 6.709189,-0.727468 l 1.059104,1.664349 H 20.35784 c -3.790928,0 -4.186079,-0.105957 -3.493954,-0.936881 z m 4.411691,-1.4839898 c -0.205725,-0.3328698 -0.63032,-0.6052178 -0.943545,-0.6052178 -0.313225,0 -0.569499,0.272348 -0.569499,0.6052178 0,0.3328698 0.424595,0.6052178 0.943544,0.6052178 0.51895,0 0.775225,-0.272348 0.5695,-0.6052178 z m 57.34252,0.4539133 c 2.347162,-3.0473564 3.152223,-2.9191936 6.380515,1.0157515 0.696454,0.848908 0.313854,0.951206 -3.557567,0.951206 H 77.103092 Z M 82.402573,9.3172462 C 82.196847,8.9843764 81.77225,8.7120284 81.459026,8.7120284 c -0.313225,0 -0.569498,0.272348 -0.569498,0.6052178 0,0.3328698 0.424597,0.6052178 0.943547,0.6052178 0.51895,0 0.775223,-0.272348 0.569498,-0.6052178 z"
         id="path7236" />
    </g>
  </g>
</svg>
