<?xml version="1.0" encoding="UTF-8" standalone="no"?>
<!-- Created with Inkscape (http://www.inkscape.org/) -->

<svg
   width="100mm"
   height="100mm"
   viewBox="0 0 100 100"
   version="1.1"
   id="svg7508"
   inkscape:version="1.1.1 (3bf5ae0d25, 2021-09-20)"
   sodipodi:docname="add_list_type_device_7050.svg"
   xmlns:inkscape="http://www.inkscape.org/namespaces/inkscape"
   xmlns:sodipodi="http://sodipodi.sourceforge.net/DTD/sodipodi-0.dtd"
   xmlns="http://www.w3.org/2000/svg"
   xmlns:svg="http://www.w3.org/2000/svg">
  <sodipodi:namedview
     id="namedview7510"
     pagecolor="#505050"
     bordercolor="#ffffff"
     borderopacity="1"
     inkscape:pageshadow="0"
     inkscape:pageopacity="0"
     inkscape:pagecheckerboard="1"
     inkscape:document-units="mm"
     showgrid="false"
     inkscape:zoom="0.58974467"
     inkscape:cx="397.62971"
     inkscape:cy="313.69508"
     inkscape:window-width="1440"
     inkscape:window-height="890"
     inkscape:window-x="-6"
     inkscape:window-y="-6"
     inkscape:window-maximized="1"
     inkscape:current-layer="layer1" />
  <defs
     id="defs7505" />
  <g
     inkscape:label="Laag 1"
     inkscape:groupmode="layer"
     id="layer1">
    <g
       id="g7524"
       transform="translate(-0.44863761,-0.44864043)">
      <path
         style="fill:#d0d0d0;fill-opacity:1;stroke-width:0.59414"
         d="m 10.879866,92.210405 c -0.739034,-0.942342 -0.718019,-0.963357 0.224321,-0.224324 0.571859,0.448487 1.039745,0.916373 1.039745,1.039746 0,0.489001 -0.4879,0.174267 -1.264066,-0.815422 z"
         id="path7536" />
      <path
         style="fill:#b9b9b9;fill-opacity:1;stroke-width:0.59414"
         d="m 18.38661,95.633514 c -0.20815,-0.336794 0.03034,-0.436396 0.559076,-0.233503 1.029299,0.394979 1.217623,0.82084 0.362993,0.82084 -0.307492,0 -0.722423,-0.264303 -0.922069,-0.587337 z m 4.748916,-3.571644 c 0.591458,-0.653554 1.209061,-1.188281 1.372449,-1.188281 0.163389,0 -0.18685,0.534727 -0.778309,1.188281 -0.591458,0.653554 -1.20906,1.18828 -1.372449,1.18828 -0.163388,0 0.186851,-0.534726 0.778309,-1.18828 z m -9.562694,-2.525096 -1.13183,-1.336816 1.336816,1.131832 c 1.256276,1.063641 1.607292,1.541799 1.13183,1.541799 -0.112743,0 -0.71431,-0.601567 -1.336816,-1.336815 z m 43.131617,-39.95593 c 0.767478,-0.816943 1.529096,-1.485351 1.692485,-1.485351 0.163388,0 -0.330867,0.668408 -1.098345,1.485351 -0.767477,0.816942 -1.529096,1.48535 -1.692484,1.48535 -0.163389,0 0.330866,-0.668408 1.098344,-1.48535 z"
         id="path7534" />
      <path
         style="fill:#a3a3a3;fill-opacity:1;stroke-width:0.59414"
         d="M 7.8826495,97.922267 C 5.5094974,97.053313 5.0142492,94.707909 5.0142492,84.338047 c 0,-10.671543 0.4623928,-12.701797 3.1024582,-13.622126 2.3747586,-0.827846 19.9390556,-0.827846 22.3138146,0 2.640066,0.920329 3.102458,2.950583 3.102458,13.622126 0,10.671543 -0.462392,12.701797 -3.102458,13.622126 -2.271721,0.79193 -20.364632,0.76151 -22.5478725,-0.03791 z M 24.492948,94.582225 C 29.003244,92.518657 31.561481,86.912676 30.424853,81.583381 29.613621,77.779767 25.831897,73.99804 22.02828,73.186807 13.560981,71.380912 6.2183357,78.557579 8.0756809,86.824013 c 0.9183857,4.087435 4.1456171,7.608857 7.8178671,8.530535 1.442126,0.36195 1.597646,0.242955 1.597646,-1.222408 0,-1.175174 -0.725826,-2.26229 -2.628858,-3.937403 -3.996338,-3.51772 -4.331396,-7.717133 -0.89028,-11.158251 3.107625,-3.107621 7.505857,-3.097259 10.628163,0.02507 3.284947,3.284948 2.914023,8.138883 -0.948674,12.414429 -1.10781,1.226211 -2.810004,2.559111 -3.782654,2.961997 -0.97265,0.402887 -1.627804,0.960095 -1.455899,1.238242 0.394215,0.637851 3.526618,0.07423 6.079956,-1.093979 z M 77.452366,55.07718 c -0.176845,-1.277244 -0.08606,-2.005135 0.212804,-1.706266 0.286672,0.286672 0.425458,1.289041 0.308418,2.227488 -0.1959,1.570679 -0.237318,1.529261 -0.521222,-0.521222 z M 15.161539,54.878594 c 0.02851,-0.692139 0.169295,-0.832925 0.35896,-0.35896 0.171629,0.428895 0.150521,0.941341 -0.04691,1.138769 -0.197428,0.197428 -0.337852,-0.153486 -0.312054,-0.779809 z m 3.220865,-2.029979 c -0.968691,-0.416261 -1.002619,-0.518339 -0.183599,-0.552381 0.552575,-0.02297 1.16992,0.225604 1.37188,0.552381 0.422234,0.683189 0.401587,0.683189 -1.188281,0 z m 17.972742,0.200652 c 0.408472,-0.164821 1.076879,-0.164821 1.485351,0 0.408471,0.164822 0.07427,0.299676 -0.742675,0.299676 -0.816943,0 -1.151147,-0.134854 -0.742676,-0.299676 z m 2.662939,-2.577213 c 0,-1.14372 0.122271,-1.611605 0.271713,-1.039745 0.149443,0.571859 0.149443,1.50763 0,2.07949 -0.149442,0.57186 -0.271713,0.103975 -0.271713,-1.039745 z m 35.807641,0 c -0.968692,-0.416261 -1.002618,-0.518339 -0.183601,-0.552381 0.552574,-0.02297 1.169921,0.225604 1.371881,0.552381 0.422232,0.683189 0.401586,0.683189 -1.18828,0 z M 32.985745,49.531332 c 0.02851,-0.692139 0.169295,-0.832925 0.35896,-0.35896 0.17163,0.428895 0.150522,0.941341 -0.04691,1.138769 -0.197428,0.197428 -0.337852,-0.153487 -0.312054,-0.779809 z m 2.812395,-2.435845 c 0.428895,-0.17163 0.941341,-0.150522 1.138769,0.04691 0.197427,0.197428 -0.153487,0.337852 -0.779809,0.312054 -0.69214,-0.02851 -0.832926,-0.169295 -0.35896,-0.35896 z m 14.604883,-1.029296 c -0.177502,-0.462562 -0.226583,-1.598855 -0.109069,-2.525096 0.174363,-1.374323 0.26736,-1.219634 0.505613,0.841022 0.300367,2.59789 0.168698,3.157073 -0.396544,1.684074 z M 30.562279,44.268646 c 0,-0.797658 0.218985,-1.585627 0.486634,-1.751042 0.267649,-0.165417 0.370985,0.487212 0.229636,1.450286 -0.311648,2.12339 -0.71627,2.293288 -0.71627,0.300756 z m 27.377356,-1.866997 c 0.02851,-0.692139 0.169295,-0.832925 0.35896,-0.35896 0.17163,0.428895 0.150522,0.941341 -0.04691,1.138769 -0.197428,0.197428 -0.337853,-0.153486 -0.312055,-0.779809 z"
         id="path7532" />
      <path
         style="fill:#8c8c8c;fill-opacity:1;stroke-width:0.59414"
         d="m 16.897054,56.189136 c 0,-0.123377 0.467885,-0.591263 1.039745,-1.039746 0.94234,-0.739034 0.963355,-0.718019 0.224321,0.224321 -0.776167,0.989688 -1.264066,1.304422 -1.264066,0.815425 z M 51.654257,38.589249 c 0.591458,-0.653554 1.209061,-1.18828 1.372449,-1.18828 0.163389,0 -0.18685,0.534726 -0.778309,1.18828 -0.591458,0.653555 -1.20906,1.188281 -1.372449,1.188281 -0.163388,0 0.186851,-0.534726 0.778309,-1.188281 z m 4.696671,-0.742675 -1.13183,-1.336815 1.336816,1.13183 c 1.256277,1.06364 1.607292,1.541801 1.13183,1.541801 -0.112742,0 -0.714309,-0.601567 -1.336816,-1.336816 z"
         id="path7530" />
      <path
         style="fill:#494949;fill-opacity:1;stroke-width:0.59414"
         d="m 20.01629,69.653128 c 0.898637,-0.136135 2.369134,-0.136135 3.267771,0 0.898637,0.13613 0.163389,0.247513 -1.633885,0.247513 -1.797275,0 -2.532523,-0.111383 -1.633886,-0.247513 z m 57.037462,0 c 0.898637,-0.136135 2.369134,-0.136135 3.267771,0 0.898637,0.13613 0.163389,0.247513 -1.633886,0.247513 -1.797274,0 -2.532522,-0.111383 -1.633885,-0.247513 z M 37.257664,64.319686 c 0.578079,-0.150638 1.380168,-0.140734 1.782421,0.02198 0.402252,0.162753 -0.07072,0.286002 -1.051053,0.273893 -0.980332,-0.01212 -1.309447,-0.145267 -0.731368,-0.295906 z m 21.117804,0.0059 c 0.428895,-0.17163 0.941341,-0.150526 1.138769,0.04688 0.197428,0.197433 -0.153486,0.337852 -0.779809,0.312055 -0.692139,-0.02852 -0.832925,-0.169295 -0.35896,-0.358956 z m 4.158982,0 c 0.428892,-0.17163 0.941338,-0.150526 1.138771,0.04688 0.197427,0.197433 -0.15349,0.337852 -0.779809,0.312055 -0.692144,-0.02852 -0.832925,-0.169295 -0.358962,-0.358956 z M 19.162213,27.488931 c 0.428895,-0.17163 0.941341,-0.150522 1.138769,0.04691 0.197428,0.197428 -0.153486,0.337853 -0.779809,0.312055 -0.692139,-0.02851 -0.832925,-0.169295 -0.35896,-0.35896 z m 3.527708,0.01238 c 0.408471,-0.164822 1.076879,-0.164822 1.485351,0 0.408471,0.164822 0.07427,0.299676 -0.742676,0.299676 -0.816943,0 -1.151146,-0.134854 -0.742675,-0.299676 z m 53.472621,0 c 0.408471,-0.164822 1.076879,-0.164822 1.48535,0 0.408471,0.164822 0.07427,0.299676 -0.742675,0.299676 -0.816943,0 -1.151147,-0.134854 -0.742675,-0.299676 z m 4.196115,-0.01238 c 0.428892,-0.17163 0.941338,-0.150522 1.138771,0.04691 0.197426,0.197428 -0.153491,0.337853 -0.779809,0.312055 -0.692144,-0.02851 -0.832926,-0.169295 -0.358962,-0.35896 z M 40.514128,22.153975 c 0.408471,-0.164821 1.076879,-0.164821 1.48535,0 0.408472,0.164823 0.07427,0.299676 -0.742675,0.299676 -0.816943,0 -1.151147,-0.134853 -0.742675,-0.299676 z m 21.103284,-0.01825 c 0.578081,-0.15064 1.38017,-0.140733 1.782421,0.02201 0.402251,0.162749 -0.07072,0.286 -1.051052,0.273892 -0.980331,-0.01211 -1.309449,-0.145266 -0.731369,-0.295907 z"
         id="path7528" />
      <path
         style="fill:#333333;fill-opacity:1;stroke-width:0.59414"
         d="m 47.495276,78.097335 c -1.307109,-0.461653 -3.228443,-1.763771 -4.269632,-2.893594 -1.867408,-2.026381 -3.751262,-6.931133 -3.751262,-9.766685 0,-1.326341 -0.180956,-1.425889 -2.042697,-1.123769 -2.398391,0.389204 -3.034632,-0.191782 -3.615821,-3.301806 -0.229675,-1.229024 -0.597939,-2.34605 -0.818365,-2.48228 -0.220425,-0.136231 -1.455324,0.637657 -2.744218,1.719749 -1.924681,1.615868 -2.507569,2.6336 -3.261899,5.695329 l -0.918453,3.727886 h -4.195813 c -2.307696,0 -4.460673,-0.163692 -4.784393,-0.363763 -0.32372,-0.20007 -0.924184,-1.863396 -1.334365,-3.696277 C 15.1952,63.095668 14.352507,61.536411 12.317074,59.244621 8.9137507,55.412661 7.9816148,53.170875 7.9979988,48.857251 8.0136544,44.735583 9.285225,41.687493 12.574387,37.887163 c 1.641295,-1.896369 2.634866,-3.773742 3.142202,-5.937258 0.911051,-3.885139 1.538874,-4.731124 3.201402,-4.313856 1.18927,0.298488 1.347791,-0.0082 2.014774,-3.897725 1.350017,-7.872693 4.571849,-11.885385 9.5429,-11.885385 4.37029,0 7.110651,2.36433 8.806196,7.597814 0.953225,2.942229 1.130656,3.130898 2.793773,2.970701 1.721113,-0.165783 1.805019,-0.05405 2.719619,3.621547 0.77218,3.103239 1.372713,4.163447 3.303867,5.832798 l 2.360151,2.040189 1.8512,-2.020009 c 1.170706,-1.277461 2.128755,-3.203171 2.606256,-5.238657 0.851323,-3.629011 1.62642,-4.893029 2.738687,-4.466212 0.473225,0.181593 1.025672,-0.537735 1.462218,-1.903917 1.85187,-5.795488 4.920516,-8.428438 9.827365,-8.432033 5.60096,-0.0041 9.118805,4.051478 10.497906,12.10261 0.63144,3.686343 0.771544,3.93398 2.145321,3.791896 1.340624,-0.138655 1.551823,0.175899 2.40382,3.580165 0.785834,3.1399 1.381982,4.14331 3.756583,6.322908 3.577116,3.283364 5.168301,6.721616 5.185329,11.204512 0.01747,4.596049 -1.211304,7.266707 -4.915893,10.684513 -2.639183,2.434877 -3.224892,3.385454 -3.999811,6.491494 l -0.907858,3.638907 h -4.195813 c -2.3077,0 -4.460674,-0.163692 -4.784397,-0.363763 -0.323717,-0.20007 -0.928309,-1.881826 -1.343529,-3.737231 -0.565652,-2.527597 -1.370426,-4.041187 -3.209582,-6.036432 l -2.454636,-2.662963 -0.944333,3.781287 c -0.883944,3.539477 -1.045033,3.770515 -2.519042,3.612824 -1.2986,-0.138928 -1.638341,0.121507 -1.937628,1.48535 -1.29864,5.917869 -3.515599,10.087996 -6.178106,11.621104 -2.380381,1.370652 -5.439641,1.646238 -8.048052,0.724994 z m 7.197112,-2.615554 c 2.118441,-1.291786 4.149254,-5.099488 4.750147,-8.906364 0.405956,-2.571879 0.389116,-2.606238 -1.094911,-2.233771 -1.902588,0.477522 -2.474654,-0.237746 -3.422503,-4.279235 -0.444955,-1.897223 -1.466944,-4.004012 -2.529209,-5.213867 l -1.782548,-2.030209 -2.436223,2.011442 c -2.038708,1.683239 -2.591438,2.630921 -3.387481,5.808007 -0.834485,3.330504 -1.112969,3.778616 -2.268547,3.650341 -1.212037,-0.134543 -1.285419,0.03161 -0.918432,2.079491 0.842795,4.703012 3.192555,8.562969 5.892595,9.67978 2.066941,0.854944 5.281824,0.602286 7.197112,-0.565615 z M 28.546798,58.750457 c 3.499907,-2.163062 3.581118,-2.617169 0.993729,-5.5566 -3.414206,-3.878741 -4.584676,-8.963517 -3.185968,-13.840528 0.539188,-1.880038 0.517186,-1.907476 -1.930955,-2.407947 -5.441486,-1.112398 -10.89149,1.603818 -13.21013,6.583768 -1.8342061,3.939488 -1.8192795,6.554864 0.05892,10.323918 3.274438,6.570942 11.015532,8.765583 17.274405,4.897389 z m -12.63046,-3.247214 c -0.421172,-1.097556 1.104168,-2.654628 2.600528,-2.654628 0.942398,0 0.195012,1.711077 -1.283274,2.937945 -0.761599,0.632072 -0.984373,0.584157 -1.317254,-0.283317 z m 70.094571,2.92228 c 2.633134,-1.73113 5.138844,-6.485568 5.147869,-9.767769 0.0084,-3.064407 -2.70013,-8.095887 -5.265948,-9.78215 -2.805263,-1.843631 -6.293853,-2.562047 -9.378653,-1.931375 l -2.47053,0.505087 0.602607,2.182449 c 0.594051,2.151477 0.377226,6.894291 -0.434459,9.503473 -0.308775,0.992562 -0.177309,1.336816 0.510521,1.336816 0.599256,0 0.847452,0.409896 0.70285,1.160753 -0.144709,0.751409 0.181611,1.289342 0.925326,1.525388 1.367378,0.433988 1.588178,3.339303 0.332962,4.381043 -0.787141,0.653265 -2.745849,0.335337 -2.751891,-0.446673 -0.0018,-0.210121 -0.603189,-1.109316 -1.336816,-1.998212 -1.165857,-1.412612 -1.466118,-1.515661 -2.383928,-0.818164 -1.387181,1.054204 -0.839235,2.289862 1.83824,4.145353 4.280662,2.966501 9.453466,2.967975 13.96185,0.004 z M 46.7526,53.108075 c 1.225414,-0.80553 2.228026,-1.560874 2.228026,-1.678542 0,-0.117667 -0.401045,-1.350622 -0.89121,-2.7399 -1.10994,-3.145903 -1.103114,-7.287926 0.01713,-10.397454 1.145024,-3.178301 1.182363,-3.048259 -1.353948,-4.715511 -6.469359,-4.252656 -14.581858,-2.123122 -17.73863,4.656397 -1.810685,3.888647 -1.789553,6.515758 0.08263,10.272741 3.376082,6.774914 11.234663,8.823357 17.656,4.602269 z M 34.776197,51.582427 c -1.619811,-1.738663 -1.571509,-2.768689 0.166979,-3.560798 2.223322,-1.013013 4.054538,0.250721 3.823231,2.638435 -0.23303,2.405505 -2.18754,2.857303 -3.99021,0.922363 z m -3.223684,-5.665448 c -0.700737,-0.700737 -0.421863,-3.031727 0.400461,-3.347282 2.019351,-0.774898 3.46683,2.139437 1.567478,3.15594 -1.299196,0.695309 -1.449371,0.70991 -1.967939,0.191342 z m 36.634189,7.161282 c 2.633135,-1.73113 5.138844,-6.485568 5.147869,-9.767769 0.0084,-3.064407 -2.70013,-8.095887 -5.265948,-9.782151 -6.396264,-4.20365 -14.525679,-2.038616 -17.665605,4.704724 -1.810685,3.888647 -1.789553,6.515758 0.08263,10.272741 3.386985,6.796793 11.234396,8.8239 17.701054,4.572455 z M 53.019943,48.074852 c -3.61291,-3.775592 -3.206932,-8.575568 0.911749,-10.77982 0.844268,-0.451838 1.410266,-0.300834 2.416848,0.644801 1.148728,1.079173 1.309316,1.823966 1.274078,5.90904 -0.0369,4.278274 -0.796594,6.737542 -2.030664,6.573669 -0.20507,-0.02723 -1.362476,-1.083692 -2.572011,-2.34769 z M 30.642165,32.352036 c 1.367507,-1.644406 2.430964,-3.754833 2.899974,-5.75499 0.891959,-3.80388 1.583024,-4.784178 3.045425,-4.32003 1.49652,0.474978 1.446169,-1.024941 -0.14473,-4.311298 -3.692495,-7.627677 -11.821264,-4.646515 -13.303119,4.878815 -0.203347,1.307109 -0.497712,2.996532 -0.654145,3.754274 -0.256703,1.243443 -0.09622,1.359252 1.646645,1.188281 1.915468,-0.187902 1.938075,-0.159436 2.798527,3.523944 0.477102,2.042357 1.021491,3.696331 1.209753,3.675499 0.188261,-0.02083 1.314013,-1.206355 2.50167,-2.634495 z m 42.386952,-1.331512 c 0.564671,-3.02162 1.269256,-3.736289 3.285922,-3.332955 1.676795,0.335359 1.681602,0.327399 1.360962,-2.253244 -0.55586,-4.473796 -2.639147,-8.941094 -4.869092,-10.441035 -3.900572,-2.623663 -8.688659,-1.04373 -10.776694,3.556002 -1.661142,3.659331 -1.538896,4.124212 1.024536,3.8961 l 2.191319,-0.194999 0.940976,3.792608 c 0.763494,3.077277 1.374092,4.167009 3.237316,5.77764 1.262987,1.091767 2.496779,1.861156 2.741755,1.709751 0.244976,-0.151404 0.633329,-1.280845 0.863,-2.509868 z"
         id="path7526" />
    </g>
  </g>
</svg>
