<?xml version="1.0" encoding="UTF-8" standalone="no"?>
<!-- Created with Inkscape (http://www.inkscape.org/) -->

<svg
   width="100mm"
   height="100mm"
   viewBox="0 0 100 100"
   version="1.1"
   id="svg5131"
   inkscape:version="1.1.1 (3bf5ae0d25, 2021-09-20)"
   sodipodi:docname="add_list_type_device_6188.svg"
   xmlns:inkscape="http://www.inkscape.org/namespaces/inkscape"
   xmlns:sodipodi="http://sodipodi.sourceforge.net/DTD/sodipodi-0.dtd"
   xmlns="http://www.w3.org/2000/svg"
   xmlns:svg="http://www.w3.org/2000/svg">
  <sodipodi:namedview
     id="namedview5133"
     pagecolor="#505050"
     bordercolor="#ffffff"
     borderopacity="1"
     inkscape:pageshadow="0"
     inkscape:pageopacity="0"
     inkscape:pagecheckerboard="1"
     inkscape:document-units="mm"
     showgrid="false"
     inkscape:zoom="0.58974467"
     inkscape:cx="397.62971"
     inkscape:cy="198.39094"
     inkscape:window-width="1440"
     inkscape:window-height="890"
     inkscape:window-x="-6"
     inkscape:window-y="-6"
     inkscape:window-maximized="1"
     inkscape:current-layer="layer1" />
  <defs
     id="defs5128" />
  <g
     inkscape:label="Laag 1"
     inkscape:groupmode="layer"
     id="layer1">
    <g
       id="g5147"
       transform="translate(0.44863737,-0.44864008)">
      <path
         style="fill:#d0d0d0;fill-opacity:1;stroke-width:0.602448"
         d="m 85.042322,84.433487 c 1.294204,-1.325386 2.488654,-2.409793 2.654328,-2.409793 0.165673,0 -0.757675,1.084407 -2.051879,2.409793 -1.294204,1.325387 -2.488654,2.409794 -2.654328,2.409794 -0.165673,0 0.757676,-1.084407 2.051879,-2.409794 z m -3.915914,-2.637254 c 0,-0.125098 0.474428,-0.599526 1.054284,-1.054284 0.95552,-0.749368 0.976828,-0.728059 0.227461,0.22746 -0.787021,1.003529 -1.281745,1.322664 -1.281745,0.826824 z M 80.222735,79.6139 c 0.599731,-0.662693 1.225971,-1.204897 1.391644,-1.204897 0.165673,0 -0.189464,0.542204 -0.789196,1.204897 -0.599731,0.662693 -1.22597,1.204897 -1.391643,1.204897 -0.165674,0 0.189464,-0.542204 0.789195,-1.204897 z m -3.61469,-3.61469 c 0.599731,-0.662694 1.22597,-1.204897 1.391643,-1.204897 0.165674,0 -0.189464,0.542203 -0.789195,1.204897 -0.599731,0.662693 -1.22597,1.204897 -1.391644,1.204897 -0.165673,0 0.189464,-0.542204 0.789196,-1.204897 z m -0.378073,-3.464079 c -0.749367,-0.955519 -0.728059,-0.976828 0.227461,-0.22746 0.579856,0.454758 1.054284,0.929186 1.054284,1.054285 0,0.495839 -0.494724,0.176704 -1.281745,-0.826825 z m 14.53561,0.826825 c 0,-0.125099 0.474428,-0.599527 1.054285,-1.054285 0.955519,-0.749368 0.976828,-0.728059 0.22746,0.22746 -0.78702,1.003529 -1.281745,1.322664 -1.281745,0.826825 z m -9.113574,-5.043963 c -0.749368,-0.95552 -0.728059,-0.976828 0.22746,-0.227461 1.003529,0.787021 1.322664,1.281745 0.826824,1.281745 -0.125098,0 -0.599526,-0.474428 -1.054284,-1.054284 z m -0.5256,-4.595212 c 0,-0.125098 0.474428,-0.599526 1.054284,-1.054285 0.95552,-0.749365 0.976828,-0.728056 0.227461,0.227461 -0.787021,1.003528 -1.281745,1.322663 -1.281745,0.826824 z m 5.947635,-0.826824 c -0.749367,-0.955517 -0.728058,-0.976826 0.227461,-0.227461 1.003528,0.787021 1.322663,1.281746 0.826824,1.281746 -0.125098,0 -0.599526,-0.474429 -1.054285,-1.054285 z M 81.652008,58.07637 c -0.749368,-0.955517 -0.728059,-0.976826 0.22746,-0.227458 1.003529,0.78702 1.322664,1.281742 0.826824,1.281742 -0.125098,0 -0.599526,-0.474428 -1.054284,-1.054284 z m 4.896435,0.826827 c 0,-0.125102 0.474428,-0.59953 1.054285,-1.054285 0.955519,-0.749368 0.976828,-0.728059 0.22746,0.227458 -0.78702,1.003527 -1.281745,1.322662 -1.281745,0.826827 z m -5.422035,-5.422036 c 0,-0.125102 0.474428,-0.59953 1.054284,-1.054284 0.95552,-0.749369 0.976828,-0.72806 0.227461,0.227457 -0.787021,1.003527 -1.281745,1.322663 -1.281745,0.826827 z M 17.916886,51.549845 c 0.02891,-0.701818 0.171663,-0.844572 0.36398,-0.363979 0.17403,0.434892 0.152627,0.954504 -0.04756,1.154693 -0.200189,0.200188 -0.342577,-0.155633 -0.316418,-0.790714 z m 63.735122,-3.11265 c -0.749368,-0.955517 -0.728059,-0.976825 0.22746,-0.227457 0.579857,0.454754 1.054285,0.929182 1.054285,1.054284 0,0.495836 -0.494725,0.1767 -1.281745,-0.826827 z m -0.5256,-4.595208 c 0,-0.125102 0.474428,-0.59953 1.054284,-1.054285 0.95552,-0.749368 0.976828,-0.72806 0.227461,0.227457 -0.787021,1.003528 -1.281745,1.322663 -1.281745,0.826828 z m 5.947635,-0.826828 c -0.749367,-0.955517 -0.728058,-0.976825 0.227461,-0.227457 1.003528,0.78702 1.322663,1.281742 0.826824,1.281742 -0.125098,0 -0.599526,-0.474428 -1.054285,-1.054285 z m 3.954863,-4.518363 -1.769445,-1.957957 1.957958,1.769446 c 1.825093,1.649372 2.234872,2.146469 1.769445,2.146469 -0.103682,0 -0.984762,-0.881081 -1.957958,-1.957958 z M 44.226443,24.392105 c 0.414183,-0.167126 1.091937,-0.167126 1.506121,0 0.414183,0.167127 0.07531,0.303866 -0.753061,0.303866 -0.828366,0 -1.167244,-0.136739 -0.75306,-0.303866 z"
         id="path5163" />
      <path
         style="fill:#b9b9b9;fill-opacity:1;stroke-width:0.602448"
         d="m 43.059199,87.636639 c 0.434892,-0.174029 0.954504,-0.15263 1.154693,0.04753 0.200188,0.200187 -0.155633,0.342576 -0.790714,0.316417 -0.701818,-0.02892 -0.844572,-0.171661 -0.363979,-0.363975 z m 2.974589,0.01253 c 0.414183,-0.167125 1.091938,-0.167125 1.506121,0 0.414183,0.167125 0.07531,0.303869 -0.753061,0.303869 -0.828366,0 -1.167243,-0.136744 -0.75306,-0.303869 z m -1.204897,-3.61469 c 0.414183,-0.167125 1.091938,-0.167125 1.506121,0 0.414183,0.167125 0.07531,0.303869 -0.75306,0.303869 -0.828367,0 -1.167244,-0.136744 -0.753061,-0.303869 z m -1.807345,-1.807345 c 0.414183,-0.167126 1.091938,-0.167126 1.506121,0 0.414183,0.167125 0.07531,0.303869 -0.753061,0.303869 -0.828366,0 -1.167243,-0.136744 -0.75306,-0.303869 z m 3.012242,0 c 0.414183,-0.167126 1.091938,-0.167126 1.506121,0 0.414183,0.167125 0.07531,0.303869 -0.753061,0.303869 -0.828366,0 -1.167243,-0.136744 -0.75306,-0.303869 z m -3.577037,-3.62724 c 0.434892,-0.174029 0.954504,-0.15263 1.154693,0.04753 0.200188,0.200194 -0.155633,0.342577 -0.790714,0.316418 -0.701818,-0.02892 -0.844572,-0.171661 -0.363979,-0.363975 z m 32.890423,-23.08393 c 0,-5.467219 0.09133,-7.703809 0.202965,-4.9702 0.111628,2.73361 0.111628,7.20679 0,9.940399 -0.111633,2.73361 -0.202965,0.49702 -0.202965,-4.970199 z m 17.471004,0 c 0,-5.467219 0.09133,-7.703809 0.202965,-4.9702 0.111628,2.73361 0.111628,7.20679 0,9.940399 -0.111634,2.73361 -0.202965,0.49702 -0.202965,-4.970199 z M 8.8801603,53.357191 c 0.028906,-0.701818 0.1716622,-0.844573 0.3639794,-0.36398 0.1740299,0.434893 0.1526267,0.954504 -0.047563,1.154693 -0.2001888,0.200188 -0.3425768,-0.155633 -0.3164179,-0.790713 z m 3.6146907,-1.807346 c 0.0289,-0.701818 0.171662,-0.844572 0.363979,-0.363979 0.17403,0.434892 0.152627,0.954504 -0.04756,1.154693 -0.200189,0.200188 -0.342577,-0.155633 -0.316419,-0.790714 z m 63.257084,-7.831829 c 0.02892,-0.701818 0.171662,-0.844572 0.363976,-0.363979 0.174029,0.434892 0.15263,0.954504 -0.04753,1.154693 -0.200193,0.200188 -0.342576,-0.155633 -0.316418,-0.790714 z m 16.266107,0 c 0.02892,-0.701818 0.171662,-0.844572 0.363976,-0.363979 0.174029,0.434892 0.15263,0.954504 -0.04753,1.154693 -0.200193,0.200188 -0.342576,-0.155633 -0.316418,-0.790714 z m -9.234901,-6.098224 c 0.74553,-0.143595 1.965488,-0.143595 2.711018,0 0.74553,0.143596 0.135551,0.261083 -1.355509,0.261083 -1.49106,0 -2.101039,-0.117487 -1.355509,-0.261083 z M 43.059199,20.764864 c 0.434892,-0.17403 0.954504,-0.152627 1.154693,0.04756 0.200188,0.200189 -0.155633,0.342577 -0.790714,0.316418 -0.701818,-0.02891 -0.844572,-0.171662 -0.363979,-0.363979 z m 1.807345,-1.807346 c 0.434893,-0.174029 0.954504,-0.152626 1.154693,0.04756 0.200188,0.200189 -0.155633,0.342577 -0.790713,0.316418 -0.701818,-0.02891 -0.844573,-0.171663 -0.36398,-0.36398 z m -1.807345,-3.61469 c 0.434892,-0.17403 0.954504,-0.152627 1.154693,0.04756 0.200188,0.200189 -0.155633,0.342577 -0.790714,0.316418 -0.701818,-0.0289 -0.844572,-0.171662 -0.363979,-0.363978 z"
         id="path5161" />
      <path
         style="fill:#a3a3a3;fill-opacity:1;stroke-width:0.602448"
         d="m 45.74403,86.42579 c 0.586162,-0.152744 1.399467,-0.142702 1.807345,0.02235 0.407877,0.165029 -0.07171,0.290001 -1.065751,0.277723 -0.99404,-0.01229 -1.327757,-0.147299 -0.741594,-0.300044 z m 0.289758,-6.608431 c 0.414183,-0.167125 1.091938,-0.167125 1.506121,0 0.414183,0.167125 0.07531,0.303869 -0.753061,0.303869 -0.828366,0 -1.167243,-0.136744 -0.75306,-0.303869 z m 23.093854,-3.386176 c 0.138063,-0.09376 0.793225,-0.568187 1.455919,-1.054284 1.114535,-0.817529 1.142886,-0.804745 0.378072,0.170474 -0.454758,0.579857 -1.109921,1.054285 -1.455919,1.054285 -0.345998,0 -0.51613,-0.07672 -0.378072,-0.170475 z m 14.257947,-2.638308 c 0.414183,-0.167125 1.091938,-0.167125 1.506121,0 0.414184,0.167125 0.07531,0.303869 -0.75306,0.303869 -0.828367,0 -1.167244,-0.136744 -0.753061,-0.303869 z M 10.085057,53.357191 c 0.02891,-0.701818 0.171662,-0.844573 0.36398,-0.36398 0.174029,0.434893 0.152626,0.954504 -0.04756,1.154693 -0.200189,0.200188 -0.342577,-0.155633 -0.316418,-0.790713 z m 2.409794,0 c 0.0289,-0.701818 0.171662,-0.844573 0.363979,-0.36398 0.17403,0.434893 0.152627,0.954504 -0.04756,1.154693 -0.200189,0.200188 -0.342577,-0.155633 -0.316419,-0.790713 z M 8.9277224,51.298825 c 0,-0.828367 0.1367395,-1.167244 0.3038665,-0.753061 0.1671264,0.414184 0.1671264,1.091938 0,1.506122 -0.167127,0.414183 -0.3038665,0.07531 -0.3038665,-0.753061 z M 63.578556,31.56864 c -0.749368,-0.955517 -0.728059,-0.976826 0.22746,-0.227458 1.003528,0.78702 1.322663,1.281742 0.826824,1.281742 -0.125098,0 -0.599526,-0.474428 -1.054284,-1.054284 z M 44.828891,20.777415 c 0.414183,-0.167127 1.091938,-0.167127 1.506121,0 0.414183,0.167127 0.07531,0.303866 -0.75306,0.303866 -0.828367,0 -1.167244,-0.136739 -0.753061,-0.303866 z m -1.769692,-1.819897 c 0.434892,-0.174029 0.954504,-0.152626 1.154693,0.04756 0.200188,0.200189 -0.155633,0.342577 -0.790714,0.316418 -0.701818,-0.02891 -0.844572,-0.171663 -0.363979,-0.36398 z m 0.715407,-1.998252 c -1.402052,-0.449016 -1.414915,-0.486494 -0.186166,-0.542397 0.725975,-0.03303 1.487504,0.21105 1.692287,0.542397 0.204784,0.331346 0.288559,0.575425 0.186167,0.542396 -0.102391,-0.03303 -0.863921,-0.277107 -1.692288,-0.542396 z m 1.054285,-1.603887 c 0.414183,-0.167127 1.091938,-0.167127 1.506121,0 0.414183,0.167127 0.07531,0.303866 -0.75306,0.303866 -0.828367,0 -1.167244,-0.136739 -0.753061,-0.303866 z"
         id="path5159" />
      <path
         style="fill:#8c8c8c;fill-opacity:1;stroke-width:0.602448"
         d="m 17.314438,93.118787 c 0.02891,-0.701822 0.171662,-0.844572 0.363979,-0.363981 0.17403,0.434889 0.152627,0.954501 -0.04756,1.154695 -0.200189,0.200187 -0.342577,-0.155637 -0.316418,-0.790714 z M 43.384185,81.492551 c -1.41977,-0.278879 -1.7162,-0.538486 -1.179163,-1.032687 0.525271,-0.483374 1.272632,-0.362379 2.790816,0.451837 2.107661,1.130349 1.782484,1.247544 -1.611653,0.58085 z m 34.390856,-10.463541 -1.769445,-1.957957 1.957958,1.769445 c 1.825093,1.649371 2.234872,2.14647 1.769445,2.14647 -0.103682,0 -0.984762,-0.881081 -1.957958,-1.957958 z m 10.580748,1.769446 c 0,-0.103682 0.88108,-0.984763 1.957957,-1.957958 l 1.957957,-1.769445 -1.769445,1.957957 c -1.649371,1.825094 -2.146469,2.234873 -2.146469,1.769446 z M 24.419412,69.522889 c -0.749368,-0.955519 -0.728059,-0.976828 0.227457,-0.22746 0.579857,0.454758 1.054285,0.929186 1.054285,1.054285 0,0.495839 -0.494722,0.176704 -1.281742,-0.826825 z m 42.009068,-0.05018 c -0.170656,-0.276126 0.07252,-0.502044 0.54039,-0.502044 0.467868,0 0.711046,0.225918 0.54039,0.502044 -0.170649,0.276102 -0.413828,0.502021 -0.54039,0.502021 -0.126562,0 -0.369741,-0.225919 -0.54039,-0.502039 z m 11.384461,-29.6204 c 0.599732,-0.662693 1.225971,-1.204897 1.391644,-1.204897 0.165674,0 -0.189464,0.542204 -0.789195,1.204897 -0.599732,0.662694 -1.225971,1.204897 -1.391644,1.204897 -0.165673,0 0.189464,-0.542203 0.789195,-1.204897 z m 11.99173,-0.150612 -1.147658,-1.355509 1.355509,1.147657 c 1.273841,1.078514 1.629767,1.563361 1.147658,1.563361 -0.114321,0 -0.7243,-0.609979 -1.355509,-1.355509 z M 21.25092,36.127379 c 0.173993,-0.281526 0.568721,-0.355894 0.877172,-0.165261 0.788232,0.487155 0.699477,0.677129 -0.316351,0.677129 -0.482445,0 -0.734814,-0.23034 -0.560821,-0.511868 z m 2.642889,-1.924567 c 0,-0.125102 0.474428,-0.59953 1.054285,-1.054285 0.955517,-0.749368 0.976825,-0.728059 0.227457,0.227458 -0.78702,1.003527 -1.281742,1.322663 -1.281742,0.826827 z m -1.204897,-3.61469 c 0,-0.125102 0.474428,-0.59953 1.054285,-1.054285 0.955517,-0.749368 0.976825,-0.728059 0.227457,0.227457 -0.78702,1.003528 -1.281742,1.322663 -1.281742,0.826828 z"
         id="path5157" />
      <path
         style="fill:#767676;fill-opacity:1;stroke-width:0.602448"
         d="m 18.772998,94.072662 c 0.204783,-0.331347 0.491884,-0.602448 0.638003,-0.602448 0.146118,0 0.265669,0.271101 0.265669,0.602448 0,0.331347 -0.287101,0.602448 -0.638003,0.602448 -0.350901,0 -0.470453,-0.271101 -0.265669,-0.602448 z m 25.001608,-8.074911 c 0,-1.303391 0.294496,-1.468818 2.949332,-1.656733 2.547687,-0.180325 2.921528,-0.06487 2.745172,0.847795 -0.36478,1.88779 -0.907818,2.256916 -3.320265,2.256916 -2.105465,0 -2.374239,-0.163914 -2.374239,-1.447978 z m 4.672719,-0.208755 c 0.161212,-0.490953 -0.386873,-0.75306 -1.574718,-0.75306 -1.838283,0 -2.811406,0.688225 -2.049883,1.44975 0.653322,0.653325 3.351611,0.134683 3.624601,-0.69669 z m -13.40822,0.113959 c -1.616357,-0.746801 -1.654106,-0.820817 -0.357224,-0.700418 1.976189,0.183464 2.289508,-1.133916 0.383463,-1.612303 -0.842799,-0.211531 -1.532361,-0.660072 -1.532361,-0.996769 0,-0.410628 0.383628,-0.406851 1.165292,0.01151 0.64091,0.343004 1.793092,0.627794 2.560405,0.632866 0.823153,0.0054 1.111279,0.190687 0.70279,0.451836 -0.380778,0.243438 -0.787431,1.028904 -0.903672,1.74548 -0.198412,1.223121 -0.32197,1.251756 -2.018693,0.467826 z m 21.836294,-2.832356 c -0.257555,-0.772665 4.162444,-3.053769 4.960942,-2.560268 0.2578,0.15933 0.618148,0.861074 0.800768,1.559426 0.319864,1.223151 0.288929,1.230718 -0.843066,0.206278 -1.126397,-1.019379 -1.24767,-1.009824 -2.925242,0.230461 -1.204344,0.890413 -1.825993,1.066328 -1.993402,0.564103 z M 39.400383,81.591564 c -1.399464,-0.211701 -1.642853,-0.518721 -1.534853,-1.936089 0.12364,-1.622634 0.20569,-1.663137 2.234299,-1.103011 1.15827,0.319816 3.982004,0.475471 6.274966,0.345908 2.292962,-0.129562 3.881138,-0.139611 3.529278,-0.02229 -0.723916,0.241304 -0.225531,2.015346 0.754746,2.686582 0.355516,0.243437 -0.438015,0.41531 -1.763401,0.381952 -1.325387,-0.03337 -1.935366,-0.184644 -1.355509,-0.336178 0.579857,-0.151528 1.054285,-0.629046 1.054285,-1.06114 0,-0.578652 -1.269749,-0.791172 -4.819588,-0.806673 -2.650773,-0.01157 -4.819587,0.205604 -4.819587,0.482628 0,0.277017 1.423285,0.763248 3.162854,1.080503 2.447048,0.446288 2.68565,0.572597 1.054285,0.558132 -1.159713,-0.0103 -2.857012,-0.131918 -3.771775,-0.270294 z m 16.198488,-1.800737 c -1.031028,-1.031024 -0.197748,-2.654062 1.916348,-3.732589 2.285512,-1.165985 2.296963,-1.165762 3.061704,0.0588 0.422186,0.676031 0.542027,1.454141 0.266313,1.729141 -0.86556,0.863309 -4.848722,2.340313 -5.244365,1.944667 z m 2.907374,-1.478529 c 1.713887,-0.780893 2.035202,-1.71064 0.59119,-1.71064 -1.436212,0 -3.352788,1.192246 -2.953955,1.83757 0.445793,0.721312 0.508479,0.717944 2.362765,-0.12693 z M 31.725638,77.212215 c 0,-0.326888 -1.016631,-1.57889 -2.259181,-2.782227 -1.936943,-1.875813 -1.980372,-1.968837 -0.304475,-0.65218 1.075089,0.844632 2.484539,1.703856 3.132112,1.909388 0.712989,0.226297 1.045292,0.717974 0.842468,1.246526 -0.377855,0.984677 -1.410924,1.188588 -1.410924,0.278493 z M 68.87283,74.092918 c 1.781,-1.8239 2.411233,-2.139553 3.310749,-1.658149 0.611046,0.327028 1.110999,0.949688 1.110999,1.383698 0,0.915264 -2.266145,3.127653 -2.729272,2.664533 -0.171649,-0.17165 0.101115,-0.655018 0.606142,-1.074154 0.98172,-0.814757 1.253231,-2.421878 0.409159,-2.421878 -0.707498,0 -2.503167,2.059988 -2.503167,2.871624 0,0.3675 -0.540981,0.627432 -1.202174,0.577628 -1.04808,-0.07895 -0.920216,-0.379314 0.997564,-2.343302 z m -3.929066,-1.557787 c -0.760886,-1.428959 2.276701,-5.18261 3.739656,-4.621219 1.490307,0.57188 1.205692,2.237385 -0.693231,4.056671 -1.989104,1.905683 -2.301486,1.963572 -3.046425,0.564548 z m 3.531227,-2.955003 c 0,-0.445661 -0.239925,-0.810299 -0.533161,-0.810299 -0.74168,0 -2.499799,2.79071 -2.044776,3.245727 0.51237,0.512376 2.577937,-1.439002 2.577937,-2.435428 z M 13.190583,67.892851 c -0.931239,-1.916774 -1.080865,-2.761612 -0.578137,-3.264337 1.23051,-1.230513 2.122076,-0.713251 3.730331,2.164236 0.873789,1.563378 1.393036,2.646833 1.153882,2.407679 -0.239154,-0.239154 -1.023165,-0.04934 -1.742247,0.421828 -1.237463,0.810817 -1.37465,0.718281 -2.563829,-1.729406 z m 2.268948,0.02258 c 0,-1.514103 -0.709068,-2.760292 -1.570576,-2.760292 -1.017844,0 -1.026861,0.133925 -0.140067,2.080225 0.760294,1.668661 1.710643,2.046475 1.710643,0.680067 z m 4.872424,1.306235 c -0.461695,-0.74553 -1.272438,-2.022781 -1.80165,-2.838327 -0.565831,-0.871984 -0.653951,-1.29286 -0.213915,-1.02168 0.411559,0.253624 1.20373,0.206266 1.760379,-0.105254 0.798055,-0.446613 1.30868,-0.12934 2.414565,1.500271 0.771361,1.136664 1.402475,2.461273 1.402475,2.943581 0,1.390276 -2.622731,1.037874 -3.561854,-0.478591 z m 2.356957,-0.03547 c 0,-1.169003 -1.638161,-3.196164 -2.160628,-2.673696 -0.514867,0.514864 0.898259,3.462223 1.659981,3.462223 0.275356,0 0.500647,-0.354836 0.500647,-0.788527 z M 71.150705,62.88673 c -0.434696,-0.301688 -0.310441,-1.305773 0.390267,-3.15363 l 1.028012,-2.711018 -0.08904,3.162199 c -0.0909,3.228357 -0.213201,3.476999 -1.329243,2.702449 z M 15.84633,59.281266 c -1.124253,-3.992938 -1.098255,-4.970199 0.132227,-4.970199 1.42297,0 1.885562,0.619204 2.500917,3.347609 0.339664,1.50603 0.233373,2.084189 -0.429968,2.338736 -1.430051,0.548762 -1.889035,0.399569 -2.203176,-0.716146 z m 2.014768,-0.602448 c -0.02241,-1.230938 -0.796272,-3.162854 -1.266934,-3.162854 -0.618275,0 -0.724686,2.618924 -0.130552,3.213058 0.540969,0.54097 1.407683,0.509833 1.397486,-0.0502 z m -8.4260508,-4.43876 c 0,-2.149077 0.2630477,-3.07999 0.9441678,-3.341359 1.336954,-0.513038 1.93977,0.342156 2.163538,3.069333 0.175734,2.141765 0.03657,2.410164 -1.456706,2.809528 -1.6366435,0.437706 -1.6509998,0.415641 -1.6509998,-2.537502 z m 2.3101878,-0.565379 c -0.254809,-1.741292 -1.707739,-2.309608 -1.707739,-0.667986 0,0.663206 0.171548,1.652877 0.381219,2.199269 0.53633,1.397654 1.578993,0.194045 1.32652,-1.531283 z m 60.39201,2.092305 c 0.02892,-0.701818 0.171662,-0.844572 0.363975,-0.363979 0.174029,0.434892 0.15263,0.954504 -0.04753,1.154693 -0.200194,0.200188 -0.342576,-0.155633 -0.316418,-0.790714 z m 0.650006,-6.877953 c 0,-0.828366 0.136743,-1.167243 0.303869,-0.75306 0.167125,0.414183 0.167125,1.091938 0,1.506121 -0.167126,0.414183 -0.303869,0.07531 -0.303869,-0.753061 z M 15.667116,48.427626 c -0.512274,-0.325985 -0.532423,-1.270692 -0.0763,-3.577539 0.615524,-3.113036 0.628985,-3.127645 1.958004,-2.125164 1.095214,0.826122 1.260248,1.355136 0.908834,2.913259 -0.701824,3.111798 -1.317241,3.726973 -2.790535,2.789444 z m 1.864994,-2.320701 c 0.438476,-1.747027 0.148415,-2.364239 -0.8276,-1.761029 -0.775222,0.479114 -0.865488,3.338239 -0.105392,3.338239 0.295426,0 0.715272,-0.709744 0.932992,-1.57721 z m -4.519799,-1.913637 c -0.154904,-0.428906 -0.852397,-0.822823 -1.549987,-0.875371 -1.234793,-0.09301 -1.244201,-0.168001 -0.355646,-2.834861 1.13039,-3.392691 0.907012,-3.172326 2.747464,-2.710403 1.515871,0.38046 1.531063,0.435895 0.709744,2.589726 -0.461608,1.21052 -0.936182,2.743148 -1.05461,3.405841 -0.129905,0.72692 -0.32705,0.895542 -0.496965,0.425068 z m 0.399525,-3.465366 c 0.21178,-0.843798 0.202204,-1.717028 -0.02128,-1.940511 -0.523468,-0.523468 -1.52453,1.053483 -1.53649,2.420403 -0.01406,1.606523 1.121947,1.256562 1.557769,-0.479892 z m 55.931627,-2.158574 c -2.091617,-4.638385 0.505701,-5.690022 2.952051,-1.195266 l 1.602224,2.943812 -1.766012,0.259196 C 70.574,40.805715 70.245141,40.56889 69.343463,38.569348 Z m 2.746219,0.212109 c 0,-0.936018 -1.903906,-3.157724 -2.428295,-2.833631 -0.757013,0.467861 0.634589,3.302031 1.621327,3.302031 0.44383,0 0.806968,-0.21078 0.806968,-0.4684 z m -52.215258,-1.281507 -1.247703,-0.961111 1.7806,-2.592072 c 1.443416,-2.101222 1.942118,-2.458022 2.633544,-1.88419 1.191997,0.989269 1.068841,1.996042 -0.532896,4.356334 -1.314911,1.937629 -1.4497,1.992959 -2.633545,1.081039 z m 2.322817,-2.168554 c 0.378067,-0.829766 0.485641,-1.710421 0.239053,-1.95701 -0.519842,-0.519841 -2.157175,1.512162 -2.157175,2.677151 0,1.32501 1.189823,0.878302 1.918122,-0.720141 z m 52.294234,1.48935 c -0.839006,-2.02554 -0.819234,-2.07953 0.96164,-2.625514 0.957742,-0.293628 1.418278,-0.02606 1.945041,1.130056 0.793792,1.742178 0.309502,2.013031 -0.825053,0.461438 -1.080064,-1.477081 -1.809677,-0.470002 -0.979509,1.352015 0.378066,0.829767 0.454993,1.508667 0.170951,1.508667 -0.284043,0 -0.856923,-0.821998 -1.27307,-1.826662 z M 17.266877,30.780024 c 0,-0.350901 -0.324419,-0.437501 -0.720931,-0.192443 -1.108375,0.685014 1.596151,-2.893482 3.470194,-4.591589 0.914191,-0.828367 1.465614,-1.165164 1.225386,-0.748439 -0.51421,0.891998 1.063682,2.689545 1.827502,2.081905 0.287957,-0.229076 -0.410705,0.597139 -1.552581,1.836034 -1.967095,2.134228 -4.24957,3.001405 -4.24957,1.614532 z m 3.227585,-1.893506 c 0.355142,-0.563964 0.453637,-1.217465 0.218878,-1.452224 -0.476815,-0.476815 -2.844015,1.449175 -2.844015,2.313935 0,0.88877 1.919619,0.258648 2.625137,-0.861711 z m 41.211075,0.793456 c -2.203595,-1.668569 -2.226524,-1.72677 -1.086659,-2.758333 1.111583,-1.005966 1.243531,-0.997475 2.907048,0.18705 2.950702,2.101085 3.402417,2.922527 2.015328,3.664874 -1.516754,0.811743 -1.200276,0.901974 -3.835717,-1.093591 z m 3.154764,0.128758 c 0,-0.756544 -1.990827,-2.607843 -2.804392,-2.607843 -1.230935,0 -0.969751,1.024889 0.528649,2.074408 1.42317,0.996827 2.275743,1.196671 2.275743,0.533435 z m -37.018357,0.236449 c 0.186064,-0.484874 -0.05572,-1.27561 -0.537305,-1.757191 -0.765837,-0.765838 -0.713538,-0.97745 0.41719,-1.68805 2.72928,-1.715199 5.492093,-3.211062 5.096557,-2.759416 -0.227356,0.259607 -0.171766,1.107491 0.123533,1.884186 0.435394,1.145171 0.313601,1.483047 -0.644161,1.787029 -0.649589,0.206171 -1.994003,1.058896 -2.98759,1.894944 -0.993586,0.836048 -1.654287,1.123372 -1.468224,0.638498 z m 2.349226,-2.338546 c 1.4029,-0.639204 2.174368,-2.313092 1.066068,-2.313092 -0.781484,0 -3.14629,1.836919 -3.14629,2.443955 0,0.72968 0.222217,0.715701 2.080222,-0.130863 z m 37.421651,0.139203 c -1.478661,-1.514283 -2.180773,-2.708228 -1.948523,-3.313466 0.602961,-1.571276 2.455315,-1.072238 4.650468,1.25287 1.141875,1.209473 1.767981,2.025764 1.391343,1.813978 -0.854652,-0.480572 -2.268809,1.131556 -1.741305,1.985072 0.744506,1.204634 -0.05567,0.613205 -2.351983,-1.738454 z m 1.960626,-1.032213 c -0.23287,-1.183233 -2.069253,-2.457447 -2.672395,-1.854303 -0.476813,0.476815 1.449172,2.844015 2.313933,2.844015 0.30429,0 0.465596,-0.445371 0.358462,-0.989712 z M 53.41342,25.380572 c -0.496822,-0.314065 -1.581066,-0.575178 -2.409433,-0.580252 -1.264808,-0.0077 -1.506121,-0.294582 -1.506121,-1.790247 0,-1.943959 0.04433,-1.947255 5.187363,-0.385574 l 2.175121,0.660475 -1.271809,1.333312 c -0.918577,0.962998 -1.522695,1.174715 -2.175121,0.762286 z m 0.793105,-1.845057 c -0.770829,-0.770829 -2.873964,-0.941493 -3.08748,-0.250541 -0.102392,0.331347 0.439812,0.76307 1.204897,0.959384 1.620121,0.415709 2.62774,0.03632 1.882583,-0.708843 z m -16.094173,1.156871 c 0.162766,-0.263361 0.01903,-0.996248 -0.319416,-1.628638 -0.561674,-1.049498 -0.323188,-1.186303 2.733879,-1.568258 3.720202,-0.464809 4.12199,-0.317024 3.600988,1.324509 -0.246442,0.776469 -1.293874,1.3234 -3.335328,1.741587 -1.636834,0.335301 -2.842889,0.394162 -2.680123,0.1308 z m 4.732854,-1.667008 c 0.190634,-0.308451 0.137313,-0.69017 -0.118489,-0.848265 -0.710073,-0.438849 -3.771698,0.272937 -3.771698,0.876868 0,0.710678 3.448959,0.685319 3.890187,-0.0286 z M 27.910132,22.582117 c -1.049789,-1.049788 -0.192643,-2.47205 2.18639,-3.627873 l 2.588022,-1.257358 0.131068,1.720114 c 0.103886,1.363368 -0.239238,1.911607 -1.654432,2.643432 -1.964997,1.016139 -2.647134,1.1256 -3.251048,0.521685 z m 3.548801,-1.65768 c 0.642666,-0.469928 0.966729,-1.05617 0.72014,-1.302759 -0.568826,-0.568827 -3.465677,0.719924 -3.465677,1.541811 0,0.879643 1.379947,0.759493 2.745537,-0.239052 z m 24.879062,-0.153449 c -1.656076,-0.662269 -2.257082,-1.290534 -2.442398,-2.553173 l -0.245801,-1.674748 2.894235,0.925539 c 2.82002,0.901807 3.485132,1.856479 2.433172,3.492466 -0.325547,0.506284 -1.023576,0.45601 -2.639208,-0.190084 z m 1.570269,-1.795112 c -1.265562,-0.925402 -3.289586,-1.085048 -3.289586,-0.259469 0,0.688405 3.118644,1.806834 3.856567,1.383067 0.298706,-0.171537 0.04356,-0.677156 -0.566981,-1.123598 z M 40.198985,17.414828 39.620146,15.754369 h 3.282127 c 3.062571,0 3.282127,0.09669 3.282127,1.445458 0,1.278948 -0.311407,1.470225 -2.703288,1.66046 -2.491723,0.198175 -2.748589,0.08505 -3.282127,-1.445459 z m 4.93113,-0.154338 c -0.22378,-0.89512 -3.321192,-0.729884 -3.629018,0.193595 -0.192458,0.577373 0.290223,0.742864 1.757141,0.602448 1.112369,-0.106477 1.954714,-0.464696 1.871877,-0.796043 z"
         id="path5155" />
      <path
         style="fill:#606060;fill-opacity:1;stroke-width:0.602448"
         d="m 58.38398,88.201501 c 3.23063,-0.108326 8.517115,-0.108326 11.747744,0 3.23063,0.108326 0.587387,0.196952 -5.873872,0.196952 -6.461259,0 -9.104501,-0.08863 -5.873872,-0.196952 z m 19.579574,-0.552313 c 0.414183,-0.167125 1.091937,-0.167125 1.506121,0 0.414183,0.167126 0.07531,0.303869 -0.753061,0.303869 -0.828367,0 -1.167244,-0.136743 -0.75306,-0.303869 z m -37.569786,-0.6969 c 0.16773,-0.271391 -0.494025,-0.376169 -1.470566,-0.232846 -1.5793,0.231792 -1.775528,0.08658 -1.775528,-1.313904 0,-1.707658 0.970511,-1.952722 4.744281,-1.197969 1.474413,0.294881 1.882651,0.686791 1.882651,1.807345 0,1.194294 -0.304637,1.430815 -1.842899,1.430815 -1.013595,0 -1.705667,-0.22205 -1.537939,-0.493441 z m 9.070297,-1.807122 c 0.08177,-0.557096 0.597247,-1.012903 1.145517,-1.012903 1.39638,0 1.327117,1.056128 -0.103982,1.58553 -0.910147,0.336684 -1.155218,0.201947 -1.041535,-0.572627 z m 4.985534,-0.690719 c -0.213699,-0.817192 0.05853,-1.300783 0.878809,-1.561131 1.520224,-0.482501 1.909973,-0.07027 1.413249,1.494771 -0.502333,1.58271 -1.885054,1.622743 -2.292058,0.06636 z m 11.488596,-0.467621 c 2.0839,-0.117977 5.337121,-0.117007 7.229381,0.0024 1.892255,0.11917 0.187247,0.215695 -3.788912,0.214508 -3.97616,-0.0012 -5.524374,-0.09869 -3.440469,-0.216671 z M 77.398758,83.4195 c 0.43489,-0.174029 0.954501,-0.15263 1.154695,0.04753 0.200188,0.200187 -0.155637,0.342576 -0.790714,0.316418 -0.701822,-0.02892 -0.844572,-0.171662 -0.363981,-0.363976 z M 62.149283,81.375321 c 0,-1.091884 0.478247,-2.073194 1.286167,-2.639086 0.922035,-0.645818 1.278932,-0.691743 1.260605,-0.162215 -0.09858,2.848087 -0.110296,2.842358 6.038118,2.951389 l 5.873872,0.104157 -6.626933,0.347679 c -3.644813,0.191217 -6.898034,0.525112 -7.229381,0.741981 -0.353541,0.231395 -0.602448,-0.323858 -0.602448,-1.343905 z M 49.624965,80.218005 c -0.262438,-1.003558 0.150799,-1.340062 2.490141,-2.027745 2.68869,-0.79037 2.819287,-0.771736 3.154846,0.45018 0.2652,0.965707 -0.02686,1.450635 -1.204897,2.000574 -2.378213,1.110204 -4.081582,0.947929 -4.44009,-0.423009 z M 34.436656,80.078454 c -2.305565,-0.823083 -2.825968,-1.640563 -1.737373,-2.729157 0.735833,-0.735837 1.166674,-0.743699 2.898612,-0.0529 1.118872,0.446263 2.060844,1.014716 2.09327,1.263225 0.315273,2.416186 -0.1425,2.62982 -3.254509,1.518839 z m 31.414208,-1.961488 c -0.373518,-0.973363 1.268468,-2.117612 2.435862,-1.69747 0.479061,0.172408 0.329792,0.643083 -0.451836,1.424712 -1.402223,1.402223 -1.543178,1.421603 -1.984026,0.272758 z m 22.552488,-0.0594 c 0.02892,-0.701822 0.171662,-0.844572 0.363975,-0.363981 0.174029,0.434889 0.15263,0.954507 -0.04753,1.154695 -0.200194,0.200187 -0.342576,-0.155637 -0.316418,-0.790714 z M 70.661373,77.33 c -0.161987,-0.262101 0.703099,-0.378 1.922407,-0.257559 3.334052,0.329323 3.731005,0.633156 0.896967,0.686539 -1.388668,0.02615 -2.657388,-0.166879 -2.819374,-0.42898 z m -9.897721,-0.848832 c -1.08588,-1.085877 -0.916116,-1.478191 1.406114,-3.249444 2.064314,-1.574529 2.155591,-1.589204 3.001519,-0.482501 0.792846,1.037266 0.696852,1.29259 -1.052014,2.79815 -2.185092,1.881097 -2.359724,1.929691 -3.355619,0.933795 z m 22.009446,-1.159165 c 0.408665,-0.411725 0.89478,-0.596827 1.080268,-0.411339 0.185488,0.185488 -0.148871,0.522353 -0.743017,0.74859 -0.85861,0.326937 -0.927807,0.25774 -0.337251,-0.337251 z M 89.0058,75.045335 c 0.02892,-0.701822 0.171662,-0.844572 0.363976,-0.363981 0.174029,0.434889 0.15263,0.954501 -0.04753,1.154695 -0.200193,0.200187 -0.342576,-0.155637 -0.316418,-0.790714 z M 77.851673,73.766012 c -0.326937,-0.85861 -0.25774,-0.927807 0.33725,-0.337251 0.411726,0.408665 0.596828,0.894781 0.41134,1.080268 -0.185488,0.185488 -0.522353,-0.148871 -0.74859,-0.743017 z m -5.31186,-1.045887 c -1.240393,-0.906992 -1.288384,-1.481059 -0.23922,-2.861443 0.70634,-0.929331 0.864278,-0.868652 1.781801,0.684592 1.23126,2.084363 0.241353,3.481297 -1.542581,2.176851 z m -45.92909,-0.326063 c -0.201541,-0.326105 -1.137966,-0.800533 -2.080945,-1.054285 -1.358805,-0.365662 -1.554965,-0.608683 -0.945503,-1.171412 0.600926,-0.554843 1.138452,-0.324413 2.459327,1.054284 0.929677,0.970376 1.520051,1.764319 1.311941,1.764319 -0.208111,0 -0.543279,-0.266807 -0.74482,-0.592906 z m -12.01968,-1.381788 c 0.635611,-1.669354 2.410101,-2.384864 3.288789,-1.326115 0.61803,0.74468 0.499797,0.891015 -0.719923,0.891015 -0.802669,0 -1.800782,0.338877 -2.218029,0.753061 -0.608322,0.603858 -0.677833,0.54086 -0.350837,-0.317961 z m 54.374016,-2.76175 c -0.950543,-0.826523 -0.940043,-1.032464 0.16286,-3.194332 0.648397,-1.270967 1.2913,-2.310847 1.428664,-2.310847 1.068478,0 3.338655,1.324157 3.33122,1.943046 -0.0064,0.531806 -0.188813,0.49008 -0.593225,-0.135701 -0.514099,-0.795509 -0.585104,-0.791491 -0.593225,0.03356 -0.0048,0.515485 -0.619202,1.749607 -1.364732,2.742496 -1.215964,1.619406 -1.460106,1.714297 -2.371562,0.92177 z m 14.733219,0.704263 c 0.586164,-0.152745 1.39947,-0.142702 1.807345,0.02229 0.407876,0.165029 -0.07171,0.290001 -1.065749,0.277723 -0.99404,-0.01229 -1.32776,-0.147299 -0.741596,-0.300044 z M 94.03372,55.515964 c 0,-7.123953 0.08715,-10.038297 0.193657,-6.476321 0.106513,3.561977 0.106513,9.390665 0,12.952641 -0.106507,3.561976 -0.193657,0.647632 -0.193657,-6.47632 z m -6.162933,9.940399 c 0.01229,-0.99404 0.147299,-1.327761 0.300044,-0.741596 0.152745,0.586164 0.142702,1.399469 -0.02235,1.807345 -0.165029,0.407876 -0.290001,-0.07171 -0.277723,-1.065749 z m -70.13438,-1.054285 c -1.101899,-1.70908 -1.719215,-4.066527 -1.064851,-4.066527 0.273226,0 0.879351,-0.146808 1.346944,-0.32624 0.564461,-0.216604 1.226077,0.507377 1.968747,2.154328 0.957027,2.122305 0.993623,2.559634 0.25339,3.028032 -1.261229,0.798063 -1.536591,0.711244 -2.50423,-0.789593 z m -6.370111,-0.957815 c -0.53584,-1.537109 -0.455956,-1.668128 1.088845,-1.785838 1.078505,-0.08218 1.801839,0.224071 2.048706,0.8674 0.209879,0.546932 0.307441,1.023397 0.216805,1.058809 -0.09064,0.03542 -0.752335,0.391543 -1.470442,0.791412 -1.16995,0.651464 -1.365751,0.55462 -1.883914,-0.931783 z m 0.327933,-4.142666 C 9.5557206,58.97764 9.4050615,56.982221 11.489032,56.583845 c 1.219671,-0.233155 1.491705,-0.0038 1.703006,1.43589 0.138307,0.942352 0.230646,1.672748 0.205196,1.623102 -0.02545,-0.04965 -0.791802,-0.203205 -1.703005,-0.34124 z m 60.912414,-1.662143 c -0.473218,-0.47322 0.208772,-5.135732 0.751217,-5.135732 0.690701,0 0.709708,4.643076 0.02072,5.068878 -0.285133,0.17622 -0.632517,0.206305 -0.771966,0.06685 z m 15.264144,-1.822266 c 0.01229,-0.99404 0.147299,-1.327758 0.300044,-0.741595 0.152745,0.586163 0.142702,1.399468 -0.02235,1.807346 -0.164999,0.407876 -0.28997,-0.07171 -0.277694,-1.065751 z m -71.658195,-1.32884 c -1.182334,-0.227728 -1.355509,-0.63242 -1.355509,-3.167693 0,-2.721707 0.09578,-2.901083 1.505696,-2.819729 1.403671,0.08099 1.505724,0.301193 1.506121,3.249735 2.33e-4,1.73957 -0.06735,3.125935 -0.150187,3.080812 -0.08284,-0.04512 -0.760591,-0.19953 -1.506121,-0.343125 z M 83.698278,52.08623 c 0.586164,-0.152746 1.39947,-0.142701 1.807345,0.02232 0.407876,0.165025 -0.07171,0.29 -1.065749,0.277722 -0.99404,-0.01228 -1.32776,-0.147298 -0.741596,-0.300045 z M 9.4350472,49.642092 c 0,-1.044244 0.34585,-1.355509 1.5061208,-1.355509 1.160271,0 1.506121,0.311265 1.506121,1.355509 0,1.044244 -0.34585,1.355509 -1.506121,1.355509 -1.1602708,0 -1.5061208,-0.311265 -1.5061208,-1.355509 z M 83.698278,49.073988 c 0.586164,-0.152746 1.39947,-0.142701 1.807345,0.02232 0.407876,0.165025 -0.07171,0.29 -1.065749,0.277722 -0.99404,-0.01228 -1.32776,-0.147298 -0.741596,-0.300045 z M 72.993354,47.684135 c -0.204784,-0.331347 -0.08523,-0.602449 0.265668,-0.602449 0.350902,0 0.638005,0.271102 0.638005,0.602449 0,0.331346 -0.11955,0.602448 -0.265668,0.602448 -0.146118,0 -0.433221,-0.271102 -0.638005,-0.602448 z m 14.877433,-2.10857 c 0.01229,-0.99404 0.147299,-1.327758 0.300044,-0.741595 0.152745,0.586163 0.142702,1.399468 -0.02235,1.807346 -0.164999,0.407876 -0.28997,-0.07171 -0.277694,-1.065751 z M 71.568606,43.841787 c -0.884491,-3.512624 -0.91086,-3.387033 0.711106,-3.387033 1.24996,0 1.382529,0.255602 1.275648,2.459532 -0.178614,3.682992 -1.175708,4.148477 -1.986754,0.927501 z m -61.53111,0.930514 c 0,-1.481103 0.444771,-1.836185 1.84223,-1.470742 1.787797,0.46752 1.512707,2.57523 -0.336109,2.57523 -1.058849,0 -1.506121,-0.327999 -1.506121,-1.104488 z m 7.277206,-2.151352 c -0.795183,-0.958137 -0.398166,-3.102619 0.897864,-4.849805 0.814123,-1.097522 0.941418,-1.10951 1.874403,-0.176526 0.932984,0.932985 0.92637,1.166378 -0.09739,3.43667 -1.190731,2.640569 -1.600564,2.884131 -2.674878,1.589661 z m -4.050398,-4.953661 c -0.379008,-0.155401 -0.545,-0.833609 -0.36887,-1.507128 0.236042,-0.902628 0.654795,-1.134779 1.592778,-0.883012 0.699899,0.187861 1.485408,0.345268 1.745576,0.349792 0.260168,0.0045 0.182854,0.55043 -0.171808,1.213123 -0.628678,1.174695 -1.396515,1.401731 -2.797676,0.827225 z M 67.320073,35.11666 c -0.46953,-0.543188 -1.376094,-1.574417 -2.014587,-2.29162 -1.150839,-1.292714 -1.149002,-1.310368 0.212291,-2.038911 1.228217,-0.657322 1.558612,-0.527375 3.129629,1.230899 1.258328,1.408313 1.548202,2.09451 1.022132,2.419638 -0.403876,0.249609 -0.905643,0.726933 -1.115042,1.060721 -0.231412,0.368873 -0.71554,0.219556 -1.234423,-0.380727 z m 15.463068,0.695787 c 0.74553,-0.143595 1.965488,-0.143595 2.711018,0 0.74553,0.143595 0.135551,0.261083 -1.355509,0.261083 -1.49106,0 -2.101039,-0.117488 -1.355509,-0.261083 z M 72.349795,33.33963 c -0.569645,-0.891208 -0.825559,-1.42659 -0.568706,-1.189738 0.642994,0.592909 2.836864,-0.655225 2.39848,-1.364539 -0.194506,-0.314723 -0.209062,-0.572222 -0.03235,-0.572222 0.575181,0 2.168356,3.539202 1.705549,3.788832 -1.8169,0.980004 -2.5407,0.84315 -3.502978,-0.662333 z m -55.924733,0.159983 c -0.628671,-0.460951 -1.394215,-0.682857 -1.701209,-0.493124 -0.306993,0.189733 -0.205111,-0.22037 0.226406,-0.911338 0.846624,-1.35566 2.316618,-2.183636 2.316618,-1.304838 0,0.296652 0.387787,0.627021 0.861748,0.734153 0.696913,0.157527 0.725723,0.445215 0.150612,1.504012 -0.630788,1.161303 -0.840283,1.214534 -1.854175,0.471135 z m 6.961976,-0.947359 c -0.703889,-1.127106 -0.605516,-1.466185 0.873139,-3.009567 1.895705,-1.978689 2.944939,-2.194019 3.51041,-0.720425 0.263437,0.686506 -0.258439,1.668363 -1.599644,3.009567 -1.972112,1.972113 -1.998025,1.978819 -2.783905,0.720425 z m 46.648138,-2.716707 c -0.579676,-1.510609 0.731089,-2.740481 2.125426,-1.994255 0.920288,0.492524 1.023499,0.850128 0.517991,1.794685 -0.767049,1.433244 -2.130517,1.536182 -2.643417,0.19957 z M 21.6125,26.837242 c -0.588695,-0.636222 -0.613394,-1.140086 -0.102666,-2.094389 0.641475,-1.198607 0.725932,-1.208283 1.829472,-0.209592 1.432117,1.296047 1.454728,1.864764 0.102667,2.582269 -0.728013,0.386338 -1.294184,0.300216 -1.829473,-0.278288 z M 56.620639,26.7238 c -1.724292,-0.927061 -1.831817,-1.140744 -1.085075,-2.156355 0.908881,-1.23613 2.726012,-1.071452 4.783633,0.433518 1.00572,0.735596 1.062145,1.009247 0.37807,1.833509 -1.000565,1.205607 -1.661798,1.187656 -4.076628,-0.110672 z m -23.85887,-1.308106 c -0.363321,-1.389341 0.427635,-2.17155 2.797205,-2.766275 1.190356,-0.29876 1.880367,-0.17486 2.246586,0.403403 0.858256,1.355192 0.659705,1.675017 -1.635132,2.633861 -2.799469,1.169693 -3.036848,1.150821 -3.408659,-0.270989 z m -6.970894,-0.456218 c 0.193838,-0.896232 -0.821308,-2.569472 -1.357745,-2.237935 -0.296626,0.183325 -0.539321,0.188729 -0.539321,0.01201 0,-0.176719 0.750977,-0.709653 1.668837,-1.184297 1.567396,-0.810532 1.709728,-0.776344 2.341525,0.562422 0.581803,1.232831 0.477625,1.55322 -0.771089,2.371408 -0.794075,0.520299 -1.398069,0.734675 -1.342207,0.476392 z M 63.698937,24.51317 c -1.205216,-0.645014 -1.238809,-0.787425 -0.358108,-1.518342 0.534523,-0.443612 0.817764,-1.208132 0.629426,-1.698932 -0.295555,-0.770193 -0.19653,-0.777599 0.723276,-0.05409 2.236993,1.759588 2.348778,2.013426 1.326868,3.013155 -0.807274,0.789757 -1.238615,0.837733 -2.321462,0.258211 z M 44.011375,23.235702 c 0.201124,-0.524121 0.36568,-1.217463 0.36568,-1.540761 0,-0.323298 1.152182,-0.504452 2.560406,-0.402564 2.128464,0.154 2.592882,0.413927 2.752918,1.540761 0.178371,1.255935 -0.03657,1.355509 -2.926085,1.355509 -2.596242,0 -3.057348,-0.159616 -2.752919,-0.952945 z m 15.826269,-1.024311 c -0.618315,-0.461531 -0.855478,-1.210699 -0.63924,-2.019282 0.47679,-1.782868 2.649655,-1.194248 2.649655,0.717781 0,1.764418 -0.744521,2.246405 -2.010415,1.301501 z M 32.774102,19.623289 c -0.227131,-1.188156 0.0041,-1.665756 0.984053,-2.032465 1.766463,-0.661036 2.758837,1.675747 1.19673,2.817988 -1.496771,1.094466 -1.845406,0.968886 -2.180783,-0.785523 z m 4.865461,-1.581414 c 0.17058,-1.162234 0.599943,-1.685058 1.383833,-1.685058 0.625086,0 1.13652,0.24893 1.13652,0.553176 0,0.304246 0.151831,0.948842 0.337403,1.432433 0.236622,0.616628 -0.176725,0.954716 -1.383834,1.131882 -1.587002,0.232923 -1.701948,0.121212 -1.473922,-1.432433 z m 14.719933,1.435896 c -1.58486,-0.225087 -1.884792,-2.353216 -0.411341,-2.918632 1.217841,-0.467329 2.22622,0.550736 1.968469,1.987377 -0.139831,0.779379 -0.617027,1.06477 -1.557128,0.931255 z M 46.1844,17.26049 c 0,-1.104489 0.321306,-1.506121 1.204897,-1.506121 0.883591,0 1.204897,0.401632 1.204897,1.506121 0,1.104489 -0.321306,1.506121 -1.204897,1.506121 -0.883591,0 -1.204897,-0.401632 -1.204897,-1.506121 z"
         id="path5153" />
      <path
         style="fill:#494949;fill-opacity:1;stroke-width:0.602448"
         d="m 51.799672,84.757454 c 0.127689,-0.739246 1.720652,-1.490716 2.367169,-1.116698 1.099196,0.635896 0.370718,1.977416 -1.01166,1.863011 -0.804924,-0.06662 -1.414903,-0.40246 -1.355509,-0.746313 z m 12.765477,-5.133728 c -0.444336,-0.718944 0.119628,-1.817171 0.933157,-1.817171 0.733059,0 0.737812,1.630599 0.0061,2.082839 -0.308453,0.190639 -0.731107,0.07108 -0.939229,-0.265668 z m 8.937322,-9.976208 c -0.196211,-0.51131 -0.222134,-1.064267 -0.05759,-1.22879 0.164523,-0.164529 0.44374,0.253817 0.620474,0.929656 0.375416,1.435593 -0.04169,1.657269 -0.562868,0.299134 z M 10.677421,60.74059 c -0.353245,-0.940537 -0.248271,-1.365416 0.37314,-1.510275 2.363207,-0.550892 3.691191,1.884677 1.360004,2.494295 -0.896197,0.234361 -1.378366,-0.0394 -1.733144,-0.98402 z M 9.6718161,47.333638 c 0.2011237,-0.524121 0.3656799,-1.066324 0.3656799,-1.204897 0,-0.138573 0.706759,-0.251952 1.570576,-0.251952 1.184649,0 1.48072,0.234161 1.204897,0.952945 -0.201124,0.524121 -0.36568,1.066324 -0.36568,1.204897 0,0.138574 -0.706759,0.251952 -1.570576,0.251952 -1.1846487,0 -1.4807201,-0.234161 -1.2048969,-0.952945 z m 4.7334749,-12.19506 c -0.601706,-0.382062 -0.600281,-0.687015 0.0071,-1.517645 0.65975,-0.902262 0.910519,-0.929523 1.89934,-0.206479 1.85401,1.355685 0.06351,2.974965 -1.90643,1.724124 z m 57.241928,-3.281373 c -0.382801,-0.498133 -0.210887,-1.080859 0.525384,-1.780879 1.038199,-0.98708 1.126379,-0.980649 1.718273,0.125317 0.496592,0.927891 0.38938,1.291314 -0.525377,1.780878 -0.823776,0.440869 -1.310452,0.405375 -1.71828,-0.125316 z M 23.63405,24.836914 c -0.9939,-1.098247 -0.98943,-1.184619 0.09124,-1.762976 0.883033,-0.472585 1.291047,-0.36043 1.830347,0.503127 1.083672,1.735234 -0.532461,2.794817 -1.921588,1.259849 z m 38.043239,-1.702552 c -0.133033,-0.24851 -0.08126,-1.07381 0.115061,-1.834 0.32419,-1.255363 0.465386,-1.302795 1.539087,-0.517028 1.005716,0.73601 1.062147,1.00974 0.378073,1.833999 -0.865574,1.042952 -1.644582,1.241144 -2.032221,0.517029 z m -25.96151,-4.090337 c -0.596621,-1.55477 -0.456187,-1.923117 0.864915,-2.268593 1.045713,-0.27346 1.211164,-0.07906 1.054285,1.238784 -0.217108,1.823787 -1.375916,2.445583 -1.9192,1.029809 z m 13.631475,-0.07396 c -0.414183,-0.167126 -0.75306,-0.988034 -0.75306,-1.824238 0,-1.138869 0.23912,-1.428613 0.952945,-1.154693 0.52412,0.201124 1.16428,0.365679 1.422579,0.365679 0.258298,0 0.340072,0.677755 0.181719,1.506121 -0.293093,1.533221 -0.473644,1.644015 -1.804183,1.107131 z"
         id="path5151" />
      <path
         style="fill:#333333;fill-opacity:1;stroke-width:0.602448"
         d="M 14.658357,98.516803 C 8.023019,96.478208 3.6744096,88.986678 5.1914588,82.20779 6.13627,77.985928 8.9267127,74.433621 13.035552,72.222057 c 2.942431,-1.583753 3.703274,-1.740317 7.034447,-1.447521 4.410237,0.38764 6.450856,1.337074 9.400278,4.373655 2.15151,2.215088 4.062706,6.655784 4.062706,9.439764 0,6.004537 -4.626868,12.279857 -10.295219,13.963176 -3.811746,1.131964 -4.796112,1.12803 -8.579407,-0.03434 z m 9.536676,-5.672413 c 7.773211,-4.723665 4.046802,-17.076894 -5.151325,-17.076894 -9.2022063,0 -12.8089135,12.317877 -5.019188,17.14188 4.17611,2.586173 5.302067,0.41766 1.481264,-2.852804 -2.868965,-2.455724 -3.519174,-4.771403 -2.149934,-7.65686 1.936425,-4.080714 6.979861,-4.974706 10.154583,-1.799989 3.745401,3.745403 2.047244,9.129641 -4.204893,13.332183 -1.86693,1.254906 2.710051,0.236895 4.889493,-1.087516 z m 26.055894,-5.184183 c -1.222734,-0.351209 -1.397122,-1.341695 -0.301224,-1.710887 1.931355,-0.650644 3.153774,-0.568868 2.99248,0.200187 -0.139864,0.666875 2.179628,0.774755 12.952642,0.602449 12.936766,-0.206923 13.161582,-0.232575 15.840507,-1.807556 1.603766,-0.942886 3.237902,-2.547767 3.987287,-3.915915 1.430279,-2.611252 2.27937,-6.234172 1.461082,-6.234172 -0.296736,0 -0.729264,0.881081 -0.96117,1.957957 -0.701256,3.256306 -1.990917,5.192768 -4.615809,6.930729 -2.468936,1.634702 -2.632567,1.656607 -13.908901,1.862325 -9.360195,0.170758 -11.362075,0.0625 -11.140675,-0.602448 0.148445,-0.445836 0.801029,-0.838669 1.450187,-0.87296 0.649158,-0.03428 1.764411,-0.374958 2.478342,-0.757043 1.056882,-0.565627 1.399127,-0.514087 1.842065,0.277404 0.465626,0.832023 1.62046,0.941108 8.014606,0.757042 6.196562,-0.178379 7.829841,-0.426093 9.577117,-1.452527 2.499088,-1.468076 4.943438,-4.863289 4.696326,-6.523197 -0.31143,-2.091984 -1.583253,-1.722912 -2.890072,0.838663 -1.725255,3.381777 -3.915511,4.210987 -11.122806,4.210987 -3.158438,0 -5.74261,-0.237906 -5.74261,-0.528684 0,-0.956243 1.664294,-1.997508 2.09049,-1.307916 0.214724,0.347438 2.339903,0.630691 4.722611,0.62945 4.799616,-0.0024 7.875452,-1.319018 8.800644,-3.766856 0.817734,-2.163531 0.01928,-2.523765 -1.189239,-0.536535 -1.566209,2.575431 -2.903217,3.100748 -7.891845,3.100748 h -4.39062 l 1.33208,-1.33208 c 1.04285,-1.04285 1.490499,-1.17366 2.061711,-0.602448 1.331784,1.331784 4.797706,0.866995 6.630782,-0.889202 0.929337,-0.890359 1.689699,-1.817105 1.689699,-2.059434 0,-0.242329 -0.924879,-1.01221 -2.055283,-1.710839 -2.202877,-1.361449 -3.545583,-4.080293 -2.732543,-5.533115 0.291814,-0.521443 0.184373,-1.501229 -0.259252,-2.364134 -0.526931,-1.024946 -0.592008,-2.095153 -0.21373,-3.514924 0.38491,-1.444649 0.333985,-2.171011 -0.174216,-2.4851 -0.515359,-0.318507 -0.529848,-0.56015 -0.05133,-0.855891 0.835367,-0.516285 0.878129,-4.708222 0.05639,-5.529939 -0.412171,-0.412176 -0.385711,-1.254756 0.08149,-2.594979 0.548945,-1.574707 0.527468,-2.08621 -0.10397,-2.47646 -0.60425,-0.373447 -0.629932,-0.691706 -0.1067,-1.322163 0.379013,-0.456679 0.539354,-1.402986 0.356324,-2.102904 -0.233641,-0.893452 0.04308,-1.473741 0.928885,-1.947804 0.693937,-0.371375 1.26169,-1.012091 1.26169,-1.423814 0,-1.906019 4.572957,-4.029225 8.674787,-4.027671 3.227389,0.0012 6.32801,1.605242 8.03115,4.154682 1.315602,1.969341 1.367515,2.537631 1.367515,14.970163 0,13.921032 -0.37118,15.941536 -3.278524,17.846502 -0.987449,0.646999 -1.568276,1.917093 -2.090424,4.571125 -0.512334,2.60415 -1.281064,4.310735 -2.637838,5.856016 -3.350336,3.815823 -4.489488,4.0512 -20.308289,4.196209 -7.786646,0.07138 -14.631966,-0.0065 -15.211822,-0.173041 z M 88.868858,72.542029 c 0.836578,-0.6246 2.080007,-1.884663 2.763172,-2.80015 1.160809,-1.555546 1.242122,-2.47993 1.242122,-14.12031 0,-12.077331 -0.04265,-12.515566 -1.403006,-14.422845 -1.794236,-2.515567 -4.216103,-3.756212 -7.332496,-3.756212 -3.116394,0 -5.53826,1.240645 -7.332496,3.756212 -1.32173,1.853093 -1.414633,2.591771 -1.603718,12.750841 -0.232196,12.475143 -0.02193,14.105236 2.152771,16.689727 3.04069,3.613655 8.101805,4.450046 11.513651,1.902737 z m -7.249617,-5.278321 c -1.416616,-3.109122 1.855601,-6.163306 4.87309,-4.548395 0.884413,0.473325 1.261009,1.26228 1.261009,2.641754 0,2.496299 -0.92562,3.412762 -3.446872,3.412762 -1.549769,0 -2.155741,-0.33963 -2.687227,-1.506121 z m 0.712064,-9.337951 c -2.268032,-2.268031 -1.099234,-5.422035 2.009273,-5.422035 2.487727,0 3.412762,0.925036 3.412762,3.412759 0,3.10851 -3.154004,4.277308 -5.422035,2.009276 z M 81.619241,47.38291 c -1.416616,-3.109123 1.855601,-6.163305 4.87309,-4.548393 0.884413,0.473323 1.261009,1.262276 1.261009,2.641755 0,2.496298 -0.92562,3.412759 -3.446872,3.412759 -1.549769,0 -2.155741,-0.339633 -2.687227,-1.506121 z"
         id="path5149" />
    </g>
  </g>
</svg>
