<?xml version="1.0" encoding="UTF-8" standalone="no"?>
<!-- Created with Inkscape (http://www.inkscape.org/) -->

<svg
   version="1.1"
   id="svg1941"
   width="162"
   height="162"
   viewBox="0 0 162 162"
   sodipodi:docname="add_list_type_device_7130.svg"
   inkscape:version="1.1.1 (3bf5ae0d25, 2021-09-20)"
   xmlns:inkscape="http://www.inkscape.org/namespaces/inkscape"
   xmlns:sodipodi="http://sodipodi.sourceforge.net/DTD/sodipodi-0.dtd"
   xmlns="http://www.w3.org/2000/svg"
   xmlns:svg="http://www.w3.org/2000/svg">
  <defs
     id="defs1945" />
  <sodipodi:namedview
     id="namedview1943"
     pagecolor="#505050"
     bordercolor="#ffffff"
     borderopacity="1"
     inkscape:pageshadow="0"
     inkscape:pageopacity="0"
     inkscape:pagecheckerboard="1"
     showgrid="false"
     inkscape:zoom="4.0864198"
     inkscape:cx="81.122356"
     inkscape:cy="81"
     inkscape:window-width="1440"
     inkscape:window-height="890"
     inkscape:window-x="-6"
     inkscape:window-y="-6"
     inkscape:window-maximized="1"
     inkscape:current-layer="g1947" />
  <g
     inkscape:groupmode="layer"
     inkscape:label="Image"
     id="g1947">
    <g
       id="g1951"
       transform="translate(14.438066,-3.6706951)">
      <path
         style="fill:#d0d0d0;fill-opacity:1"
         d="m 29.510081,152.98369 c 0.345464,-0.55897 1.047021,-0.75742 1.559017,-0.44098 1.387044,0.85723 1.128411,1.45729 -0.628115,1.45729 -0.857459,0 -1.276365,-0.45734 -0.930902,-1.01631 z M 55.75,153.33772 c 0.6875,-0.27741 1.8125,-0.27741 2.5,0 0.6875,0.27741 0.125,0.50439 -1.25,0.50439 -1.375,0 -1.9375,-0.22698 -1.25,-0.50439 z m 47.0625,-0.0208 c 0.72187,-0.28887 1.58437,-0.25335 1.91667,0.0789 0.33229,0.33229 -0.25834,0.56864 -1.3125,0.52522 -1.16495,-0.048 -1.4019,-0.28494 -0.60417,-0.60416 z M 21.872445,145.25 c -1.243871,-1.58606 -1.208501,-1.62143 0.377555,-0.37756 0.9625,0.75485 1.75,1.54235 1.75,1.75 0,0.82304 -0.821186,0.29331 -2.127555,-1.37244 z M 59,143 c -0.901292,-0.58246 -1.024633,-0.97549 -0.309017,-0.98469 0.655041,-0.008 1.469098,0.43469 1.809017,0.98469 0.767305,1.24153 0.421123,1.24153 -1.5,0 z m 22.25,0.25845 c 3.7125,-0.19241 9.7875,-0.19241 13.5,0 3.7125,0.19241 0.675,0.34983 -6.75,0.34983 -7.425,0 -10.4625,-0.15742 -6.75,-0.34983 z m 26.5625,0.0584 c 0.72187,-0.28887 1.58437,-0.25335 1.91667,0.0789 0.33229,0.33229 -0.25834,0.56864 -1.3125,0.52522 -1.16495,-0.048 -1.4019,-0.28494 -0.60417,-0.60416 z M 71.404988,140.75 69.5,138.5 l 2.25,1.90499 C 73.864445,142.19521 74.455241,143 73.654988,143 c -0.189757,0 -1.202257,-1.0125 -2.25,-2.25 z m 3.055672,-1.40199 c -1.101634,-1.01641 -1.565951,-1.51051 -1.031815,-1.09801 0.534135,0.4125 8.431027,0.75 17.548649,0.75 13.385456,0 17.005446,-0.29975 18.799996,-1.5567 1.22238,-0.85619 2.22251,-2.03629 2.22251,-2.62245 0,-0.6305 -0.67439,-0.50524 -1.65132,0.30671 -2.26577,1.88312 -32.748089,2.61578 -34.889475,0.83858 C 74.212089,134.93113 74,126.62496 74,78.818538 c 0,-44.483111 0.255948,-55.782804 1.25,-55.185597 0.727207,0.436892 0.622648,-0.03497 -0.25,-1.128213 -1.360753,-1.704743 -1.337546,-1.818307 0.25,-1.223344 1.169984,0.438474 1.75,0.169092 1.75,-0.812769 0,-1.747483 0.434976,-1.740716 5,0.07778 l 3.5,1.394241 -4,-0.602979 c -4.495761,-0.677712 -4.07133,0.528931 0.82177,2.336263 2.96084,1.093626 3.007231,1.180173 0.67823,1.265313 -2.001902,0.07318 -2.201141,0.287579 -1,1.076078 1.333333,0.875277 1.333333,1.094097 0,1.969374 -1.333333,0.875278 -1.333333,0.9914 0,1.045104 0.825,0.03323 2.85,0.721906 4.5,1.530393 1.65,0.808488 2.2125,1.252314 1.25,0.986281 -2.830793,-0.782424 -2.001945,1.187069 1,2.376184 L 91.5,35.011964 88.75,34.48693 C 87.205579,34.192067 86,34.408641 86,34.980948 86,35.541427 86.873442,36 87.940983,36 c 1.067541,0 2.219098,0.45 2.559017,1 0.339919,0.55 -0.169532,1 -1.132113,1 -1.612149,0 -1.603338,0.107349 0.111734,1.36144 1.731592,1.266171 1.640002,1.394004 -1.308871,1.826807 C 86.426838,41.444199 85,41.226451 85,40.704362 85,40.182274 84.325,40.315311 83.5,41 82.293423,42.00137 82,45.068904 82,56.681462 c 0,7.940114 0.352332,14.218819 0.782959,13.952677 0.430628,-0.266143 0.918135,-6.2552 1.08335,-13.309017 C 84.418613,33.744648 85,43.321631 85,76 c 0,17.783333 0.186233,32.14583 0.413851,31.91667 0.227618,-0.22917 0.553572,-13.82846 0.724343,-30.220648 0.170771,-16.392188 0.652647,-30.342188 1.070836,-31 0.41819,-0.657812 0.767235,2.591478 0.775657,7.220645 0.01848,10.154998 0.712085,10.280425 1.353829,0.244817 0.98181,-15.353558 1.666645,-7.387184 1.798564,20.921849 0.07539,16.179167 0.134012,30.204167 0.130264,31.166667 -0.0037,0.9625 0.384565,1.75 0.86292,1.75 C 92.608619,108 93,94.05 93,77 c 0,-20 0.354839,-31 1,-31 0.599148,0 1.055869,4.509583 1.139375,11.25 0.07666,6.1875 0.28055,12.825 0.453097,14.75 0.172547,1.925 0.600757,8.45 0.951578,14.5 0.350821,6.05 0.821927,11.1875 1.046903,11.416667 0.224976,0.229166 0.467576,-6.070834 0.539111,-14 C 98.201599,75.9875 98.378385,68.15 98.52292,66.5 c 0.144536,-1.65 0.311007,-5.830242 0.369936,-9.289427 0.09058,-5.317113 0.321928,-6.090087 1.496484,-5 0.85956,0.797751 1.0095,1.527748 0.39323,1.914427 -0.62573,0.392616 -0.54489,0.90386 0.21743,1.375 0.93698,0.579088 0.91623,0.93374 -0.0911,1.556292 -0.90285,0.557989 -0.3968,1.003398 1.64323,1.446337 1.62132,0.352025 3.84785,1.051207 4.94785,1.553739 1.55538,0.71057 1.24773,0.82057 -1.38386,0.494804 -4.21337,-0.521576 -2.85874,1.150308 1.66511,2.055078 L 111,63.25 110.98469,41.375 c -0.008,-12.03125 -0.34592,-22.385443 -0.75,-23.009318 C 109.83061,17.741807 108.6,17.006508 107.5,16.731684 c -1.79486,-0.448429 -1.766,-0.51158 0.28138,-0.615683 1.25477,-0.0638 2.50309,0.461746 2.77406,1.167882 0.27097,0.706136 1.69947,1.383761 3.17445,1.505834 1.47498,0.122073 3.15165,0.735342 3.72594,1.362821 0.74481,0.813789 0.6858,0.938544 -0.20583,0.435149 -0.99005,-0.558959 -1.20889,5.701348 -1.05233,30.103296 0.14159,22.066824 0.38932,27.829596 0.87308,20.309017 0.42788,-6.651994 0.53867,-2.836517 0.30232,10.411237 C 117.16788,92.912417 117,109.41777 117,118.08981 c 0,11.69144 -0.33987,16.10892 -1.31477,17.08876 -0.72313,0.72679 -1.79604,2.18491 -2.38425,3.24028 -0.97739,1.75364 -2.60924,1.9558 -18.95341,2.34801 -16.354051,0.39244 -18.055284,0.27106 -19.88691,-1.41885 z M 97.25,133.15749 c 1.967631,-0.11268 2.75,-0.69165 2.75,-2.03505 0,-2.98328 -2.464925,-4.26311 -7.569873,-3.9304 -4.852503,0.31625 -7.254292,2.2179 -6.216568,4.92204 0.500778,1.30494 2.752601,1.51784 11.036441,1.04341 z M 112.7404,114.75 c -0.19527,-3.4375 -0.35504,-0.625 -0.35504,6.25 0,6.875 0.15977,9.6875 0.35504,6.25 0.19527,-3.4375 0.19527,-9.0625 0,-12.5 z m -1.75571,-49.886501 c 0.008,-0.350075 -1.31092,-0.83115 -2.93188,-1.069056 -1.62095,-0.237905 -2.71939,-0.06398 -2.44098,0.386501 0.27841,0.450481 1.49215,0.854582 2.69719,0.898003 1.20504,0.04342 1.62568,0.306856 0.93475,0.585411 -0.69093,0.278554 -0.97218,0.966071 -0.625,1.527815 0.59231,0.958381 2.32794,-0.749921 2.36592,-2.328674 z M 85,31.616631 C 85,31.405779 84.1,30.997907 83,30.710251 81.9,30.422595 81,30.59511 81,31.09362 81,31.592129 81.9,32 83,32 c 1.1,0 2,-0.172516 2,-0.383369 z M 14.157895,138 c 0,-1.375 0.226973,-1.9375 0.504386,-1.25 0.277412,0.6875 0.277412,1.8125 0,2.5 -0.277413,0.6875 -0.504386,0.125 -0.504386,-1.25 z m 31,0 c 0,-1.375 0.226973,-1.9375 0.504386,-1.25 0.277412,0.6875 0.277412,1.8125 0,2.5 -0.277413,0.6875 -0.504386,0.125 -0.504386,-1.25 z M 28.75,122.33772 c 0.6875,-0.27741 1.8125,-0.27741 2.5,0 0.6875,0.27741 0.125,0.50439 -1.25,0.50439 -1.375,0 -1.9375,-0.22698 -1.25,-0.50439 z M 43.461666,71.5 c -2.02e-4,-25.85 0.129057,-36.568487 0.287244,-23.81886 0.158187,12.749628 0.158353,33.899628 3.68e-4,47 C 43.591294,107.78151 43.461868,97.35 43.461666,71.5 Z M 69.449558,49 c 0,-18.975 0.134476,-26.7375 0.298835,-17.25 0.164359,9.4875 0.164359,25.0125 0,34.5 C 69.584034,75.7375 69.449558,67.975 69.449558,49 Z M 74.015313,16.285184 C 73.988503,14.158286 77.300469,13.466386 84.5,14.094838 l 7,0.611034 -7.849136,-0.0015 c -5.636684,-0.0011 -8.098748,0.392682 -8.734687,1.397064 -0.597115,0.943063 -0.890539,1.002928 -0.900864,0.183795 z m 20.712383,-1.006916 c 1.775232,-0.220912 4.925232,-0.224542 7.000004,-0.0081 2.07476,0.216475 0.6223,0.397221 -3.2277,0.401658 -3.85,0.0044 -5.547537,-0.17268 -3.772304,-0.393592 z M 71.311131,11.35371 c 1.397757,-1.6564186 1.511878,-2.2660616 0.5,-2.6710523 C 70.954779,8.3399142 71.107006,8.130511 72.25,8.0789474 74.637377,7.9712462 74.446747,9.3117816 71.75,11.595012 L 69.5,13.5 Z m 6.19895,-3.3700219 C 77.855545,7.4247166 78.557102,7.2262742 79.069098,7.5427051 80.456142,8.399945 80.197509,9 78.440983,9 77.583524,9 77.164618,8.5426596 77.510081,7.9836881 Z"
         id="path1967" />
      <path
         style="fill:#b9b9b9;fill-opacity:1"
         d="m 26.8125,153.31689 c 0.721875,-0.28887 1.584375,-0.25335 1.916667,0.0789 0.332291,0.33229 -0.258334,0.56864 -1.3125,0.52522 -1.164943,-0.048 -1.4019,-0.28494 -0.604167,-0.60416 z m 33.4375,-0.006 c 0.9625,-0.25152 2.5375,-0.25152 3.5,0 0.9625,0.25153 0.175,0.45733 -1.75,0.45733 -1.925,0 -2.7125,-0.2058 -1.75,-0.45733 z m 37,0 c 0.9625,-0.25152 2.5375,-0.25152 3.5,0 0.9625,0.25153 0.175,0.45733 -1.75,0.45733 -1.925,0 -2.7125,-0.2058 -1.75,-0.45733 z m 14.5625,-0.99378 c 0.72187,-0.28887 1.58437,-0.25335 1.91667,0.0789 0.33229,0.33229 -0.25834,0.56864 -1.3125,0.52522 -1.16495,-0.048 -1.4019,-0.28494 -0.60417,-0.60416 z M 73.313654,143.25 c -1.049353,-0.9625 -1.257446,-1.3 -0.462429,-0.75 0.795016,0.55 7.116225,1.25147 14.04713,1.55883 L 99.5,144.61765 87.360784,144.80883 c -10.340847,0.16285 -12.421865,-0.0681 -14.04713,-1.55883 z m -20.234707,-0.83333 c 0.04798,-1.16495 0.284941,-1.4019 0.604167,-0.60417 0.288871,0.72187 0.253344,1.58437 -0.07895,1.91667 -0.332292,0.33229 -0.568641,-0.25834 -0.52522,-1.3125 z m 49.171053,0.894 c 0.9625,-0.25152 2.5375,-0.25152 3.5,0 0.9625,0.25153 0.175,0.45733 -1.75,0.45733 -1.925,0 -2.7125,-0.2058 -1.75,-0.45733 z M 19.157895,138 c 0,-1.375 0.226973,-1.9375 0.504386,-1.25 0.277412,0.6875 0.277412,1.8125 0,2.5 -0.277413,0.6875 -0.504386,0.125 -0.504386,-1.25 z m 21,0 c 0,-1.375 0.226973,-1.9375 0.504386,-1.25 0.277412,0.6875 0.277412,1.8125 0,2.5 -0.277413,0.6875 -0.504386,0.125 -0.504386,-1.25 z m 51.111137,-5.69299 c 0.972967,-0.25354 2.322967,-0.23687 3,0.0371 0.677032,0.27393 -0.119032,0.48137 -1.769032,0.46099 -1.65,-0.0204 -2.203936,-0.2445 -1.230968,-0.49804 z M 89,130 c -1.827966,-1.18132 -0.249085,-1.18132 2.5,0 1.31874,0.56668 1.489055,0.87815 0.5,0.9144 -0.825,0.0302 -2.175,-0.38124 -3,-0.9144 z m 5.75,0.33772 c 0.6875,-0.27741 1.8125,-0.27741 2.5,0 0.6875,0.27741 0.125,0.50439 -1.25,0.50439 -1.375,0 -1.9375,-0.22698 -1.25,-0.50439 z m -66,-3 c 0.6875,-0.27741 1.8125,-0.27741 2.5,0 0.6875,0.27741 0.125,0.50439 -1.25,0.50439 -1.375,0 -1.9375,-0.22698 -1.25,-0.50439 z M 85,76 C 85,43.321631 84.418613,33.744648 83.866309,57.325122 83.701094,64.378939 83.213587,70.367996 82.782959,70.634139 82.352332,70.900281 82,64.621576 82,56.681462 82,45.068904 82.293423,42.00137 83.5,41 84.325,40.315311 85,40.182274 85,40.704362 c 0,0.522089 1.426838,0.739837 3.17075,0.483885 2.948873,-0.432803 3.040463,-0.560636 1.308871,-1.826807 C 87.764549,38.107349 87.755738,38 89.367887,38 90.330468,38 90.839919,37.55 90.5,37 90.160081,36.45 89.008524,36 87.940983,36 86.873442,36 86,35.541427 86,34.980948 c 0,-0.572307 1.205579,-0.788881 2.75,-0.494018 l 2.75,0.525034 -2.75,-1.089315 c -3.001945,-1.189115 -3.830793,-3.158608 -1,-2.376184 0.9625,0.266033 0.4,-0.177793 -1.25,-0.986281 -1.65,-0.808487 -3.675,-1.497164 -4.5,-1.530393 -1.333333,-0.0537 -1.333333,-0.169826 0,-1.045104 1.333333,-0.875277 1.333333,-1.094097 0,-1.969374 -1.201141,-0.788499 -1.001902,-1.002896 1,-1.076078 2.329001,-0.08514 2.28261,-0.171687 -0.67823,-1.265313 C 77.42867,21.86659 77.004239,20.659947 81.5,21.337659 l 4,0.602979 -3.5,-1.394241 c -4.565024,-1.818498 -5,-1.825265 -5,-0.07778 0,0.894657 -0.586281,1.243638 -1.500146,0.892955 -1.629692,-0.625371 -1.331805,-5.229362 0.407917,-6.304569 0.538408,-0.332755 8.25334,-0.0916 17.144295,0.535888 11.681944,0.824472 16.408314,1.524498 17.041344,2.524004 0.48178,0.760709 0.88286,11.226857 0.89128,23.258107 L 111,63.25 107.78125,62.60625 c -4.52385,-0.90477 -5.87848,-2.576654 -1.66511,-2.055078 2.63159,0.325766 2.93924,0.215766 1.38386,-0.494804 -1.1,-0.502532 -3.32653,-1.201714 -4.94785,-1.553739 -2.04003,-0.442939 -2.54608,-0.888348 -1.64323,-1.446337 C 101.91623,56.43374 101.93698,56.079088 101,55.5 c -0.76232,-0.47114 -0.84316,-0.982384 -0.21743,-1.375 0.61627,-0.386679 0.46633,-1.116676 -0.39323,-1.914427 -1.174556,-1.090087 -1.405904,-0.317113 -1.496484,5 -0.05893,3.459185 -0.2254,7.639427 -0.369936,9.289427 -0.144535,1.65 -0.321321,9.4875 -0.392856,17.416667 -0.07154,7.929166 -0.314135,14.229166 -0.539111,14 C 97.365977,97.6875 96.894871,92.55 96.54405,86.5 96.193229,80.45 95.765019,73.925 95.592472,72 95.419925,70.075 95.216031,63.4375 95.139375,57.25 95.055869,50.509583 94.599148,46 94,46 c -0.645161,0 -1,11 -1,31 0,17.05 -0.391381,31 -0.869736,31 -0.478355,0 -0.866669,-0.7875 -0.86292,-1.75 0.0037,-0.9625 -0.05487,-14.9875 -0.130264,-31.166667 C 91.005161,46.7743 90.320326,38.807926 89.338516,54.161484 88.696772,64.197092 88.003163,64.071665 87.984687,53.916667 87.976265,49.2875 87.62722,46.03821 87.20903,46.696022 c -0.418189,0.657812 -0.900065,14.607812 -1.070836,31 C 85.967423,94.08821 85.641469,107.6875 85.413851,107.91667 85.186233,108.14583 85,93.783333 85,76 Z m 31.74578,-21 c 0.27448,-14.575 0.66896,-26.6875 0.87664,-26.916667 0.61392,-0.677472 0.16808,28.417841 -0.63465,41.416667 -0.45448,7.359484 -0.54806,1.752194 -0.24199,-14.5 z m -8.12701,12.192173 c -0.34718,-0.561744 -0.0659,-1.249261 0.625,-1.527815 0.69093,-0.278555 0.27029,-0.54199 -0.93475,-0.585411 -1.20504,-0.04342 -2.41878,-0.447522 -2.69719,-0.898003 -0.27841,-0.450481 0.82003,-0.624406 2.44098,-0.386501 3.1305,0.459459 3.4267,0.900456 2.05688,3.06232 -0.54278,0.856607 -1.09239,0.980253 -1.49092,0.33541 z M 81,31.09362 c 0,-0.49851 0.9,-0.671025 2,-0.383369 1.1,0.287656 2,0.695528 2,0.90638 C 85,31.827484 84.1,32 83,32 81.9,32 81,31.592129 81,31.09362 Z M 45,17.622445 c 0,-0.207656 0.7875,-0.995156 1.75,-1.75 C 48.336056,14.628574 48.371426,14.663944 47.127555,16.25 45.821186,17.915748 45,18.445479 45,17.622445 Z"
         id="path1965" />
      <path
         style="fill:#a3a3a3;fill-opacity:1"
         d="M 20.545154,159.47236 C 14.440667,156.53027 11.524763,153.70741 8.7814143,148.084 3.0652275,136.36676 7.9529985,122.62403 19.916005,116.77736 c 13.14553,-6.4246 28.546509,0.68618 32.74171,15.11716 5.430597,18.6806 -14.701081,35.96942 -32.112561,27.57784 z m 18.771962,-8.76507 c 9.742227,-7.43076 8.195732,-21.91433 -2.902237,-27.18066 -10.622562,-5.04073 -23.487907,4.26114 -22.162107,16.0236 1.36332,12.09534 15.553022,18.4117 25.064344,11.15706 z M 28,151.34639 C 28,150.4369 26.2,148.03103 24,146 20.545597,142.81091 20,141.73018 20,138.07669 20,132.14837 24.116804,128 30,128 c 11.871418,0 13.681306,16.08957 2.581559,22.94959 C 28.567346,153.43051 28,153.47965 28,151.34639 Z m 39.767909,1.92888 c 1.79735,-0.22256 4.49735,-0.21797 6,0.0102 1.50265,0.22818 0.03209,0.41027 -3.267909,0.40466 -3.3,-0.006 -4.529441,-0.1923 -2.732091,-0.41486 z m 21.495841,0.007 c 1.520062,-0.22986 3.770062,-0.22371 5,0.0136 1.229937,0.23736 -0.01375,0.42542 -2.76375,0.41792 -2.75,-0.008 -3.756313,-0.20172 -2.23625,-0.43157 z M 114,145 c -0.90129,-0.58246 -1.02463,-0.97549 -0.30902,-0.98469 0.65504,-0.008 1.4691,0.43469 1.80902,0.98469 0.7673,1.24153 0.42112,1.24153 -1.5,0 z m -58.730968,-0.69299 c 0.972967,-0.25354 2.322967,-0.23687 3,0.0371 0.677032,0.27393 -0.119032,0.48137 -1.769032,0.46099 -1.65,-0.0204 -2.203936,-0.2445 -1.230968,-0.49804 z m 15.578612,0.2073 c -0.267129,-0.26713 -4.279629,-1.15699 -8.916667,-1.97746 L 53.5,141.04508 l 8.925799,0.54389 c 5.304978,0.32326 9.756062,1.12543 10.972506,1.97746 L 75.445012,145 h -2.055839 c -1.130712,0 -2.2744,-0.21856 -2.541529,-0.48569 z M 99.8125,144.31689 c 0.72187,-0.28887 1.58437,-0.25335 1.91667,0.0789 0.33229,0.33229 -0.25834,0.56864 -1.3125,0.52522 -1.164946,-0.048 -1.401903,-0.28494 -0.60417,-0.60416 z M 68.453654,97.5 c -2.96e-4,-20.9 0.132331,-29.59212 0.294727,-19.315822 0.162396,10.276298 0.162638,27.376302 5.38e-4,38.000002 C 68.586819,126.80788 68.45395,118.4 68.453654,97.5 Z m 19.922343,34.29936 C 88.05905,131.28653 88.06979,130.59688 88.399864,130.2668 88.729939,129.93673 89,130.12926 89,130.69466 c 0,0.5654 1.125,0.81294 2.5,0.55009 1.375,-0.26285 2.5,-0.2529 2.5,0.0221 0,0.97251 -5.056183,1.45126 -5.624003,0.53251 z M 116.19726,42 c 0.0216,-8.525 0.35084,-16.85 0.73154,-18.5 0.38069,-1.65 0.518,4.875 0.30513,14.5 -0.48838,22.082468 -1.08848,24.397959 -1.03667,4 z"
         id="path1963" />
      <path
         style="fill:#8c8c8c;fill-opacity:1"
         d="m 78.767909,153.27527 c 1.79735,-0.22256 4.49735,-0.21797 6,0.0102 1.50265,0.22818 0.03209,0.41027 -3.267909,0.40466 -3.3,-0.006 -4.529441,-0.1923 -2.732091,-0.41486 z m -28.498877,-0.96826 c 0.972967,-0.25354 2.322967,-0.23687 3,0.0371 0.677032,0.27393 -0.119032,0.48137 -1.769032,0.46099 -1.65,-0.0204 -2.203936,-0.2445 -1.230968,-0.49804 z m 58.543468,0.01 c 0.72187,-0.28887 1.58437,-0.25335 1.91667,0.0789 0.33229,0.33229 -0.25834,0.56864 -1.3125,0.52522 -1.16495,-0.048 -1.4019,-0.28494 -0.60417,-0.60416 z M 65.75,145.26496 c -2.6125,-0.206 -4.75,-0.85914 -4.75,-1.45142 0,-0.71725 1.419323,-0.82779 4.25,-0.33102 2.3375,0.41022 9.425,1.06561 15.75,1.45642 l 11.5,0.71058 -11,-0.005 c -6.05,-0.003 -13.1375,-0.17355 -15.75,-0.37955 z m 39.01791,-0.98969 c 1.79735,-0.22256 4.49735,-0.21797 6,0.0102 1.50265,0.22818 0.0321,0.41027 -3.26791,0.40466 -3.3,-0.006 -4.52944,-0.1923 -2.73209,-0.41486 z M 59.25,141.26276 c -8.086472,-0.56571 -6.215556,-1.77658 2.733706,-1.76928 5.456561,0.004 8.137198,0.40219 8.468615,1.25652 0.498496,1.28502 0.09846,1.30333 -11.202321,0.51276 z m 35.5,-9.92504 c 0.6875,-0.27741 1.8125,-0.27741 2.5,0 0.6875,0.27741 0.125,0.50439 -1.25,0.50439 -1.375,0 -1.9375,-0.22698 -1.25,-0.50439 z M 68.427512,38 c 0,-12.375 0.143548,-17.4375 0.318995,-11.25 0.175447,6.1875 0.175447,16.3125 0,22.5 C 68.57106,55.4375 68.427512,50.375 68.427512,38 Z M 116.19495,23.5 c 0.0204,-1.65 0.2445,-2.203936 0.49804,-1.230968 0.25354,0.972967 0.23687,2.322967 -0.037,3 C 116.38201,25.946064 116.17457,25.15 116.19495,23.5 Z"
         id="path1961" />
      <path
         style="fill:#767676;fill-opacity:1"
         d="m 105.8125,152.31689 c 0.72187,-0.28887 1.58437,-0.25335 1.91667,0.0789 0.33229,0.33229 -0.25834,0.56864 -1.3125,0.52522 -1.16495,-0.048 -1.4019,-0.28494 -0.60417,-0.60416 z m 8.91871,-2.39705 c 0.35361,-1.3522 0.8069,-1.8055 1.05655,-1.05655 0.24048,0.72144 -0.0382,1.78716 -0.61931,2.36826 -0.74207,0.74207 -0.87221,0.35164 -0.43724,-1.31171 z M 60.75,145.2766 c 1.7875,-0.22182 4.7125,-0.22182 6.5,0 1.7875,0.22183 0.325,0.40333 -3.25,0.40333 -3.575,0 -5.0375,-0.1815 -3.25,-0.40333 z m 33.5,0.007 c 1.5125,-0.22913 3.9875,-0.22913 5.5,0 1.5125,0.22912 0.275,0.41659 -2.75,0.41659 -3.025,0 -4.2625,-0.18747 -2.75,-0.41659 z m -38.5,-5.97308 C 54.7875,139.05915 54,138.1551 54,137.30168 c 0,-1.20455 0.699108,-1.41186 3.125,-0.92668 1.71875,0.34375 5.09375,0.625 7.5,0.625 3.222222,0 4.375,0.39524 4.375,1.5 0,1.17287 -1.253999,1.4747 -5.75,1.384 -3.1625,-0.0638 -6.5375,-0.3218 -7.5,-0.57333 z M 44.463083,70.5 c 1.88e-4,-26.95 0.129001,-37.831271 0.28625,-24.180603 0.15725,13.650668 0.157097,35.700668 -3.41e-4,49 C 44.591555,108.61873 44.462896,97.45 44.463083,70.5 Z"
         id="path1959" />
      <path
         style="fill:#606060;fill-opacity:1"
         d="m 55.75,152.33772 c 0.6875,-0.27741 1.8125,-0.27741 2.5,0 0.6875,0.27741 0.125,0.50439 -1.25,0.50439 -1.375,0 -1.9375,-0.22698 -1.25,-0.50439 z m 47.0625,-0.0208 c 0.72187,-0.28887 1.58437,-0.25335 1.91667,0.0789 0.33229,0.33229 -0.25834,0.56864 -1.3125,0.52522 -1.16495,-0.048 -1.4019,-0.28494 -0.60417,-0.60416 z m -32.54875,-6.03447 c 1.520062,-0.22986 3.770062,-0.22371 5,0.0136 1.229937,0.23736 -0.01375,0.42542 -2.76375,0.41792 -2.75,-0.008 -3.756313,-0.20172 -2.23625,-0.43157 z m -15.994718,-0.97541 c 0.972967,-0.25354 2.322967,-0.23687 3,0.0371 0.677032,0.27393 -0.119032,0.48137 -1.769032,0.46099 -1.65,-0.0204 -2.203936,-0.2445 -1.230968,-0.49804 z m 48.980968,0.004 c 0.9625,-0.25152 2.5375,-0.25152 3.5,0 0.9625,0.25153 0.175,0.45733 -1.75,0.45733 -1.925,0 -2.7125,-0.2058 -1.75,-0.45733 z m -47,-9.0164 c -3.582341,-0.68999 -2.788587,-3.29609 1,-3.28326 5.895737,0.02 10.75,1.20297 10.75,2.61983 0,1.35937 -6.292247,1.71464 -11.75,0.66343 z"
         id="path1957" />
      <path
         style="fill:#494949;fill-opacity:1"
         d="m 61.767909,152.27527 c 1.79735,-0.22256 4.49735,-0.21797 6,0.0102 1.50265,0.22818 0.03209,0.41027 -3.267909,0.40466 -3.3,-0.006 -4.529441,-0.1923 -2.732091,-0.41486 z m 34.99375,0.0175 c 1.243913,-0.23919 3.043913,-0.23011 4.000001,0.0202 0.95609,0.25029 -0.0617,0.446 -2.26166,0.4349 -2.2,-0.0111 -2.982253,-0.21589 -1.738341,-0.45508 z M 50.416023,150.75 c 0.32048,-0.6875 0.860464,-2.0375 1.199965,-3 0.526734,-1.49331 1.810261,-1.72437 8.750643,-1.57529 4.844815,0.10407 6.370471,0.33165 3.773307,0.56287 -3.195444,0.28449 -4.488914,0.8809 -4.842454,2.23284 -0.498068,1.90462 -3.069437,2.99216 -7.130817,3.01593 -1.513693,0.009 -2.12865,-0.42544 -1.750644,-1.23635 z m 60.396477,0.56689 c 0.72187,-0.28887 1.58437,-0.25335 1.91667,0.0789 0.33229,0.33229 -0.25834,0.56864 -1.3125,0.52522 -1.16495,-0.048 -1.4019,-0.28494 -0.60417,-0.60416 z m 3.26645,-3.00353 c -0.0612,-1.69592 -0.80831,-2.27716 -3.32895,-2.58996 l -3.25,-0.40333 3.28138,-0.16003 c 3.33705,-0.16275 4.92291,1.49037 3.8919,4.05697 -0.28346,0.70564 -0.55091,0.299 -0.59433,-0.90365 z M 80.75,146.26779 c 2.3375,-0.21053 6.1625,-0.21053 8.5,0 2.3375,0.21054 0.425,0.3828 -4.25,0.3828 -4.675,0 -6.5875,-0.17226 -4.25,-0.3828 z M 58.318499,133.26513 c -4.75704,-0.33501 -5.232471,-0.59696 -5.8037,-3.19775 -0.34221,-1.55807 -2.173034,-4.64466 -4.068499,-6.85908 L 45,119.18207 45.015313,69.841036 c 0.0084,-27.13757 0.350765,-49.868401 0.760762,-50.512958 0.615183,-0.967131 19.170672,-6.327684 21.905145,-6.328246 0.450329,-9.3e-5 0.699389,27.224907 0.553467,60.5 L 67.969373,134 65.734687,133.81502 c -1.229078,-0.10174 -4.566362,-0.34919 -7.416188,-0.54989 z"
         id="path1955" />
      <path
         style="fill:#333333;fill-opacity:1"
         d="m 63,152.07453 c -4.125,-0.39282 -6.764984,-0.79528 -5.866631,-0.89437 0.898352,-0.0991 1.868724,-1.08016 2.15638,-2.18016 0.484169,-1.85146 1.365481,-2.00025 11.866631,-2.00333 6.238991,-0.002 18.365709,-0.29459 26.948261,-0.65056 l 15.604639,-0.64723 0.4866,2.54548 c 0.43394,2.26999 0.0979,2.6101 -3.10464,3.14256 -5.85029,0.97266 -39.974415,1.46057 -48.09124,0.68761 z M 47.711225,16.909538 C 49.427164,15.164184 70.219597,9.8412077 69.743626,11.269123 69.420676,12.237973 65.185232,13.514789 49,17.522489 47.026883,18.011062 46.755269,17.88188 47.711225,16.909538 Z"
         id="path1953" />
    </g>
  </g>
</svg>
