<?xml version="1.0" encoding="UTF-8" standalone="no"?>
<!-- Created with Inkscape (http://www.inkscape.org/) -->

<svg
   width="100mm"
   height="100mm"
   viewBox="0 0 100 100"
   version="1.1"
   id="svg2388"
   inkscape:version="1.1.1 (3bf5ae0d25, 2021-09-20)"
   sodipodi:docname="add_list_type_device_610b.svg"
   xmlns:inkscape="http://www.inkscape.org/namespaces/inkscape"
   xmlns:sodipodi="http://sodipodi.sourceforge.net/DTD/sodipodi-0.dtd"
   xmlns="http://www.w3.org/2000/svg"
   xmlns:svg="http://www.w3.org/2000/svg">
  <sodipodi:namedview
     id="namedview2390"
     pagecolor="#ffffff"
     bordercolor="#666666"
     borderopacity="1.0"
     inkscape:pageshadow="2"
     inkscape:pageopacity="0.0"
     inkscape:pagecheckerboard="0"
     inkscape:document-units="mm"
     showgrid="false"
     width="100mm"
     inkscape:zoom="0.58974467"
     inkscape:cx="378.97757"
     inkscape:cy="303.52118"
     inkscape:window-width="1440"
     inkscape:window-height="890"
     inkscape:window-x="-6"
     inkscape:window-y="-6"
     inkscape:window-maximized="1"
     inkscape:current-layer="layer1" />
  <defs
     id="defs2385" />
  <g
     inkscape:label="Laag 1"
     inkscape:groupmode="layer"
     id="layer1">
    <g
       id="g2520"
       transform="translate(-3.829693,-0.27928439)">
      <path
         style="fill:#d0d0d0;fill-opacity:1;stroke-width:0.443209"
         d="m 34.571384,88.704131 c -0.676436,-0.504926 -0.836914,-1.281973 -0.898978,-4.352908 -0.05219,-2.582467 -0.313086,-4.179929 -0.84383,-5.166782 -0.644954,-1.199212 -0.660724,-1.387252 -0.09824,-1.171405 0.368521,0.141415 0.670038,0.02455 0.670038,-0.259667 0,-0.28423 0.189018,-0.399965 0.420041,-0.257185 0.233096,0.144065 0.33791,-0.166868 0.235503,-0.698626 -0.101495,-0.527023 -0.05622,-0.829908 0.100608,-0.673078 0.15683,0.156829 0.624084,-0.231537 1.038344,-0.863039 0.414258,-0.631501 0.836002,-1.181581 0.937207,-1.222396 0.329583,-0.132923 2.788551,2.625715 3.584022,4.020799 0.569597,0.998952 0.775615,2.351665 0.775615,5.092698 0,3.347645 -0.107678,3.833592 -1.044468,4.713663 -1.322317,1.242252 -3.77055,1.662985 -4.875861,0.837926 z m 3.600548,-2.994265 c 0.785436,-1.492085 0.507757,-6.18711 -0.452612,-7.652819 -0.900653,-1.374572 -2.208374,-1.197125 -2.935294,0.398294 -0.758433,1.664577 -0.626976,6.428853 0.210373,7.624334 0.900244,1.285278 2.398053,1.11096 3.177533,-0.369809 z m 49.254646,1.646657 c -1.408894,-0.947318 -1.514475,-1.190161 -1.637922,-3.767274 -0.07257,-1.515073 0.05281,-2.754679 0.278636,-2.754679 0.401197,0 1.518486,-2.293211 1.693315,-3.475479 0.125769,-0.850531 0.340251,-0.991906 2.110639,-1.391193 0.916303,-0.206659 1.480171,-0.190336 1.338584,0.03874 -0.13455,0.217708 0.0663,0.395829 0.446333,0.395829 0.380034,0 0.661666,0.149583 0.625851,0.332407 -0.169922,0.867368 0.665101,4.055103 1.006895,3.843865 0.563571,-0.348304 0.476188,4.45232 -0.10423,5.726199 -0.513315,1.126601 -2.081295,2.064165 -3.452108,2.064165 -0.440009,0 -1.477707,-0.455667 -2.305993,-1.012594 z m 4.425204,-2.374025 c 0.543113,-1.191992 0.680769,-4.223921 0.15616,-3.439348 -0.43578,0.65172 -1.845942,0.613001 -1.59392,-0.04375 0.109131,-0.284394 -0.13669,-0.517079 -0.546273,-0.517079 -0.409582,0 -0.839729,0.363405 -0.955877,0.807567 -0.116151,0.444161 -0.387954,0.698315 -0.604005,0.564789 -0.650253,-0.401879 -0.441684,2.20179 0.256193,3.19815 0.847065,1.209353 2.616722,0.902378 3.287722,-0.570312 z M 5.9349092,68.78329 C 5.9264947,61.950975 6.0879277,57.737128 6.3646405,57.566111 6.6084053,57.415456 6.83501,55.857994 6.8682063,54.105085 c 0.033196,-1.752908 0.1471777,-2.7354 0.2532916,-2.183312 0.1061134,0.552087 0.3781186,0.889342 0.6044556,0.749457 0.2263374,-0.139881 0.4115219,-2.642149 0.4115219,-5.560591 0,-4.298753 -0.1257454,-5.354511 -0.6622673,-5.560394 C 7.110961,41.41047 6.9219223,41.119773 7.0551225,40.904251 7.1883227,40.688728 6.9820383,39.848017 6.5967126,39.036004 6.0376773,37.857924 5.9210658,36.267392 6.0195785,31.16414 l 0.1234576,-6.395475 h 3.7672743 3.7672746 l 0.122762,6.836187 c 0.08911,4.962348 -0.02338,6.926506 -0.410391,7.165693 -0.293234,0.181229 -0.601751,0.779004 -0.685593,1.32839 -0.08384,0.549386 -0.346185,1.232331 -0.582984,1.517656 -0.236799,0.285325 -0.299311,0.650005 -0.138916,0.8104 0.160395,0.160395 0.108804,0.291193 -0.114647,0.290662 -0.228536,-5.32e-4 -0.344923,1.938425 -0.266038,4.432087 0.127225,4.021729 0.515723,5.370316 1.117465,3.879042 0.122952,-0.304706 0.239294,1.091402 0.258538,3.102461 0.01924,2.01106 0.224682,3.656473 0.456526,3.656473 0.24275,0 0.477723,2.913942 0.554011,6.870373 0.109999,5.704726 0.0256,6.870263 -0.497439,6.869735 -0.346453,-3.5e-4 -1.005037,0.338842 -1.463521,0.753765 -0.803381,0.727049 -0.816584,0.709631 -0.364134,-0.480402 0.258209,-0.679142 0.353248,-1.422855 0.211198,-1.652699 -0.14205,-0.229844 -0.272145,-3.55379 -0.2891,-7.386552 -0.03301,-7.46356 -0.137172,-8.251417 -1.04482,-7.903121 -0.386471,0.148302 -0.494682,-0.01099 -0.318812,-0.469296 0.226321,-0.589782 0.11951,-0.615276 -0.7124197,-0.170042 -0.5382615,0.288068 -1.0556248,0.760019 -1.1496972,1.048779 -0.094072,0.288763 -0.2683957,5.174825 -0.3873853,10.857918 -0.1599801,7.64083 -0.3687049,10.516474 -0.8011441,11.037533 -0.3216392,0.38755 -0.4971237,0.723848 -0.3899656,0.74732 0.1071586,0.02349 -0.036361,0.441574 -0.318929,0.929103 C 6.062301,79.530007 5.9453983,77.300144 5.9349092,68.78329 Z M 10.495369,40.589886 c 0.145453,0.363039 0.244372,0.279753 0.266369,-0.22427 0.01924,-0.440975 0.19773,-0.701193 0.396635,-0.578263 0.198905,0.12293 0.399814,-0.712936 0.446464,-1.85748 0.131736,-3.232081 0.560142,-5.433497 1.004001,-5.159177 0.222163,0.137304 0.403933,-0.713048 0.403933,-1.889672 0,-2.479465 -1.686783,-5.447546 -3.0958834,-5.447546 -0.4663358,0 -1.3566438,0.667019 -1.9784612,1.482263 -0.868549,1.138727 -1.1305772,2.003289 -1.1305772,3.730341 0,1.324795 0.2133488,2.319193 0.5194784,2.421236 0.3017391,0.10058 0.6278845,1.555781 0.7781127,3.471802 0.1716322,2.18901 0.4350107,3.264418 0.7829544,3.196904 0.3170321,-0.06152 0.4541258,0.288925 0.3467687,0.886418 -0.1657308,0.922369 -0.1373938,0.934955 0.4256377,0.189048 0.4512459,-0.59781 0.6614739,-0.653633 0.8345679,-0.221604 z m 35.346,33.707355 c 0.01713,-1.401648 0.166716,-2.216097 0.332406,-1.809887 0.682898,1.674198 2.755737,3.471919 4.003259,3.471919 3.130751,0 4.036652,-4.639482 2.111535,-10.814013 -0.646314,-2.07295 -1.401941,-3.909181 -1.679168,-4.080521 -0.33936,-0.209735 -0.381474,-0.10813 -0.128894,0.310968 0.312729,0.518896 0.257194,0.526927 -0.333687,0.04828 -0.616627,-0.49951 -0.778846,-0.355352 -1.246835,1.108021 -1.17105,3.661813 -2.330396,5.960799 -2.70669,5.367396 -0.648538,-1.022722 -0.445286,-5.554071 0.281736,-6.281092 0.365647,-0.365648 0.678832,-1.127812 0.695966,-1.693692 0.01715,-0.565884 0.202555,-1.427766 0.412056,-1.915295 0.363985,-0.847034 0.382289,-0.848678 0.412055,-0.03692 0.03328,0.907071 0.471503,0.734042 0.645494,-0.254863 0.05754,-0.327044 0.259831,-1.057137 0.449529,-1.622432 0.329122,-0.980768 0.375025,-0.990909 1.003012,-0.221605 0.36196,0.443413 0.515833,0.531027 0.34194,0.194698 -0.209775,-0.405736 -0.108981,-0.543197 0.299538,-0.408493 0.338638,0.111658 0.681438,0.651389 0.761774,1.199403 0.0837,0.570946 0.379258,0.906907 0.692199,0.78682 0.661361,-0.253786 1.608706,8.379822 1.603055,14.609467 -0.0043,4.727322 0.135826,4.590295 -4.693616,4.590295 h -3.287815 l 0.03115,-2.54845 z M 61.97896,74.48365 c -0.09633,-0.285347 -0.17536,-1.117148 -0.175622,-1.848442 -2.57e-4,-0.731294 -0.004,-1.901552 -0.008,-2.600572 -0.004,-0.699019 -0.243193,-1.554873 -0.531194,-1.901892 -0.288006,-0.34702 -0.54817,-1.07148 -0.578148,-1.609912 -0.02996,-0.538432 -0.201434,-1.214489 -0.381018,-1.502349 -0.179584,-0.287864 -0.093,-0.667707 0.192406,-0.844095 0.345942,-0.213804 0.399393,-0.127321 0.160353,0.259458 -0.220337,0.356513 -0.184349,0.472496 0.09336,0.300864 0.665793,-0.411484 0.26511,-3.361566 -0.53657,-3.95055 -0.270677,-0.198863 -0.217363,-0.328263 0.13696,-0.332407 0.319093,-0.0035 0.465423,-0.19245 0.325178,-0.419368 -0.140249,-0.226923 -0.07153,-0.525974 0.152708,-0.664556 0.224237,-0.138587 0.354739,-1.149586 0.290004,-2.24667 -0.06473,-1.097083 0.06599,-1.994696 0.290501,-1.994696 0.224508,0 0.303328,-0.169678 0.175157,-0.37706 -0.128172,-0.207386 0.285661,-1.055023 0.919627,-1.883637 0.63397,-0.828618 1.023267,-1.133515 0.865108,-0.677546 -0.231883,0.668505 -0.11453,0.783779 0.606057,0.595344 0.491487,-0.12853 0.795812,-0.07544 0.676278,0.117969 -0.119533,0.193412 0.06191,0.583414 0.403214,0.866668 0.41573,0.345025 0.594427,1.324853 0.541402,2.968621 -0.04352,1.349487 0.04716,2.531675 0.201536,2.627084 0.421482,0.260488 0.215138,8.299514 -0.231329,9.012304 -0.380463,0.607422 -0.514286,1.614264 -0.683627,5.143415 -0.04678,0.97506 -0.186072,1.52229 -0.309533,1.216063 -0.123455,-0.306226 -0.45674,-0.411554 -0.740624,-0.234067 -0.859576,0.537413 -1.668929,0.528699 -1.854159,-0.01999 z m 13.541835,-1.597701 c -0.901482,-1.684437 -0.331334,-4.075149 1.103137,-4.62561 0.404131,-0.155079 0.585661,-0.08343 0.429363,0.169461 -0.148927,0.240972 0.05193,0.438134 0.446347,0.438134 0.39442,0 0.602383,0.185664 0.462138,0.412583 -0.140249,0.226923 -0.05071,0.53884 0.198974,0.693152 0.452827,0.279859 0.358995,1.524265 -0.225748,2.993946 -0.411972,1.035433 -1.84225,0.987048 -2.414211,-0.08167 z M 25.64422,71.631203 c -0.243764,-0.179092 -0.485801,-1.420138 -0.537858,-2.757884 -0.05206,-1.337746 -0.301363,-2.501169 -0.554011,-2.585387 -0.252649,-0.08422 -0.462415,-0.485527 -0.466148,-0.891798 -0.0059,-0.63889 -0.06483,-0.648867 -0.436422,-0.07387 -0.286424,0.443209 -0.431898,0.480141 -0.436422,0.110802 -0.0037,-0.304706 -0.218001,-0.554011 -0.476152,-0.554011 -0.258151,0 -0.353679,0.187185 -0.212283,0.415969 0.141396,0.228785 -0.06071,0.593816 -0.449136,0.811188 -0.388935,0.217659 -0.817583,1.225503 -0.954096,2.243283 -0.197156,1.46991 -0.429243,1.848065 -1.134223,1.848065 -0.824035,0 -0.871654,-0.225895 -0.677367,-3.213263 0.141866,-2.181323 0.524786,-3.78261 1.192339,-4.986099 0.540849,-0.975059 0.885622,-1.443194 0.766165,-1.040299 -0.119457,0.402894 0.08306,1.100948 0.450044,1.55123 0.366982,0.450283 0.55497,0.592065 0.417753,0.315073 -0.29735,-0.600242 1.401873,-1.143381 1.760698,-0.562791 0.462106,0.747702 1.082294,0.407114 1.084577,-0.595619 0.0019,-0.825521 0.190273,-0.691977 1.09419,0.775615 0.938099,1.523096 1.093867,2.319143 1.10575,5.650912 0.01369,3.836795 -0.263487,4.474808 -1.537398,3.538884 z m -3.850376,-1.293195 c 0.319942,-0.128029 0.702209,-0.112287 0.849484,0.03497 0.147274,0.147273 -0.114496,0.252026 -0.581711,0.232782 -0.516313,-0.02127 -0.621335,-0.126288 -0.267773,-0.267769 z m 66.694059,-6.328781 c -0.538104,-0.436131 -0.85389,-0.917446 -0.701745,-1.069591 0.152144,-0.152145 0.03218,-0.276624 -0.266608,-0.276624 -0.298781,0 -0.452676,-0.149583 -0.341993,-0.332407 0.110682,-0.182824 -0.06232,-0.57587 -0.384444,-0.873431 -0.461057,-0.425897 -0.632339,-0.425897 -0.804907,0 -0.120575,0.297561 -0.228625,-1.054527 -0.240117,-3.004645 -0.01369,-2.325286 0.185602,-3.817885 0.579052,-4.336559 0.355644,-0.468839 0.515656,-1.416339 0.392953,-2.326845 -0.206238,-1.530382 0.426957,-2.135198 0.912022,-0.871145 0.439379,1.145003 1.169349,0.725599 1.169349,-0.671851 0,-1.207106 0.126695,-1.327016 1.30708,-1.237071 1.09387,0.08335 1.220388,0.206819 0.775615,0.75693 -0.362558,0.448425 -0.370421,0.56084 -0.02473,0.353716 0.309923,-0.1857 0.635872,0.168561 0.839242,0.912141 l 0.332518,1.215761 0.335398,-1.108021 c 0.265172,-0.876025 0.344648,-0.661755 0.379577,1.023377 0.0269,1.298389 0.217398,2.024343 0.487388,1.857479 0.285249,-0.176295 0.432106,1.354468 0.412055,4.295127 -0.01764,2.586509 -0.177633,4.194723 -0.368745,3.706364 -0.321246,-0.820893 -0.350059,-0.815034 -0.594826,0.120961 -0.141476,0.541003 -0.224844,1.04814 -0.185261,1.126969 0.03958,0.07883 -0.208778,0.481599 -0.551906,0.895047 -0.423503,0.510288 -0.768856,0.606726 -1.075313,0.300269 -0.2676,-0.267601 -0.645258,-0.290904 -0.927365,-0.05722 -0.293081,0.242781 -0.851772,0.0896 -1.454288,-0.398733 z m 2.290321,-3.147659 c -0.120114,-0.194343 -0.01569,-0.478626 0.232055,-0.631737 0.591325,-0.365461 0.582377,-5.799532 -0.01139,-6.908973 -0.37737,-0.705127 -0.626103,-0.774994 -1.360256,-0.382085 -0.82838,0.443337 -0.88164,0.798015 -0.683003,4.548522 0.284984,5.380847 0.270743,5.329652 1.238871,4.453512 0.441152,-0.399238 0.703824,-0.884897 0.583714,-1.079239 z m -1.349801,-7.123983 c -0.191151,-0.309288 -0.129293,-0.400616 0.153124,-0.226071 0.260612,0.161066 0.574847,0.04228 0.698302,-0.263927 0.160664,-0.398507 0.234418,-0.406728 0.259459,-0.02894 0.05056,0.762709 -0.733776,1.129092 -1.110885,0.518917 z m -54.99699,3.870972 C 33.304407,55.514626 32.898469,50.761164 32.67728,37.067707 L 32.475035,24.547061 h 4.008339 4.008339 V 36.40582 c 0,6.522318 -0.190353,12.522481 -0.423007,13.333699 -0.232654,0.811218 -0.466651,2.431426 -0.519993,3.600464 -0.2128,4.663664 -3.450848,7.36468 -5.11728,4.268574 z m 3.878147,-6.826092 c 0.01865,-0.900525 0.116365,-2.036208 0.217143,-2.523737 0.100778,-0.48753 0.412766,-5.11882 0.693306,-10.291755 l 0.510074,-9.405338 -1.192981,-1.564079 c -1.5031,-1.970665 -2.560896,-1.976669 -4.051037,-0.02299 l -1.175443,1.541084 0.288236,8.098706 c 0.396503,11.140735 1.011968,16.164346 2.071266,16.906304 0.454878,0.318609 0.778459,0.671581 0.719069,0.784373 -0.05939,0.112797 0.340766,-0.265238 0.889237,-0.84008 0.644592,-0.675587 1.00921,-1.624143 1.03113,-2.682485 z M 50.008269,50.23305 c -0.130658,-0.211411 -0.52199,-0.275233 -0.86962,-0.141831 -0.635251,0.243764 -1.07132,-0.756793 -1.224976,-2.810693 -0.04024,-0.538014 -0.180967,-0.87042 -0.312702,-0.738683 -0.240914,0.240914 -0.303722,0.504544 -0.405726,1.702977 -0.03298,0.387555 -0.324376,0.547686 -0.720214,0.39579 -0.569092,-0.218383 -0.664813,-2.046007 -0.664813,-12.693444 0,-11.212766 0.07642,-12.525698 0.775615,-13.325029 0.573109,-0.655187 0.602037,-0.798906 0.110802,-0.550449 -0.365647,0.184937 -0.166203,-0.09725 0.443209,-0.627088 0.609412,-0.529836 0.847136,-0.827382 0.528278,-0.661213 -0.318862,0.16617 -0.02194,-0.481336 0.659796,-1.438902 0.681748,-0.957565 1.482334,-1.741028 1.779075,-1.741028 0.296742,0 0.436809,0.166203 0.311261,0.369341 -0.125543,0.203137 0.08267,0.36934 0.462706,0.36934 0.618799,0 0.772721,0.275567 0.653117,1.169272 -0.02083,0.15557 0.183298,0.419533 0.453593,0.586585 0.270295,0.167051 0.568783,0.68796 0.66331,1.157574 0.09452,0.469614 0.389018,1.415298 0.654429,2.101521 0.562073,1.453238 0.596244,22.497942 0.03936,24.236825 -0.318999,0.996076 -0.4281,0.923341 -0.609412,-0.406276 -0.03045,-0.22345 -0.190017,-0.540891 -0.354549,-0.705424 -0.164537,-0.164533 -0.247142,0.05523 -0.183568,0.488362 0.222911,1.518819 -0.416244,3.421536 -1.187379,3.534714 -0.420219,0.06167 -0.870936,-0.06083 -1.001589,-0.272241 z m 0.561284,-3.603869 c 0.03386,-0.449348 0.358839,-1.114295 0.722204,-1.477659 0.363364,-0.363364 0.89475,-1.788264 1.180858,-3.166444 0.694189,-3.343885 0.166217,-13.516168 -0.760351,-14.649451 -0.357102,-0.43677 -0.522995,-0.544822 -0.368647,-0.240116 0.154347,0.304706 0.06941,0.554011 -0.188736,0.554011 -0.258152,0 -0.472421,-0.249305 -0.476153,-0.554011 -0.0045,-0.369341 -0.149999,-0.332407 -0.436423,0.110802 -0.286424,0.443209 -0.431898,0.480143 -0.436423,0.110802 -0.0035,-0.304706 -0.218001,-0.554011 -0.476153,-0.554011 -0.258151,0 -0.346101,0.199444 -0.195446,0.443209 0.150656,0.243765 0.07933,0.443209 -0.158514,0.443209 -0.237839,0 -0.533029,-0.249305 -0.655979,-0.554011 -0.122951,-0.304706 -0.251185,0.542931 -0.284957,1.883637 -0.03377,1.340706 -0.263829,3.434868 -0.511228,4.653692 -0.68989,3.398767 -0.843657,7.693527 -0.287749,8.037095 0.310539,0.191923 0.355573,0.09118 0.125592,-0.280943 -0.237258,-0.383893 -0.185456,-0.473181 0.153124,-0.263927 0.281429,0.173933 0.511689,0.816192 0.511689,1.427243 0,1.279635 0.719395,2.786942 1.734427,3.634045 0.38677,0.322783 0.487157,0.48114 0.22308,0.351903 -0.264082,-0.129236 -0.480146,0.02218 -0.480146,0.336474 0,0.897399 0.997136,0.667697 1.065931,-0.245549 z m 23.439333,2.846186 c -0.1857,-0.549668 -0.401441,-2.872194 -0.479428,-5.161165 -0.115886,-3.401528 0.0018,-4.380358 0.643202,-5.358414 0.509921,-0.777324 0.894754,-1.01905 1.098227,-0.689827 0.234134,0.378838 0.471149,0.375763 0.938588,-0.01217 0.48659,-0.403834 0.626861,-0.384023 0.632139,0.08928 0.0053,0.477773 0.09896,0.465644 0.436424,-0.05653 0.381899,-0.590945 0.431144,-0.590945 0.443208,0 0.01121,0.550159 0.08029,0.559476 0.400444,0.05402 0.968885,-1.529686 1.372391,0.172119 1.372391,5.788116 0,4.588597 -0.115203,5.694217 -0.555265,5.328995 -0.39181,-0.325173 -0.807198,-0.276615 -1.41107,0.164945 -0.739095,0.540439 -0.991627,0.536783 -1.851779,-0.02681 -0.89713,-0.587823 -1.01252,-0.576588 -1.16271,0.113192 -0.136801,0.628314 -0.227344,0.586374 -0.504371,-0.233625 z m 3.001892,-0.03475 c 0.125548,-0.20314 -0.05335,-0.369343 -0.397554,-0.369343 -0.3442,0 -0.523101,0.166203 -0.397553,0.369343 0.125543,0.203136 0.304444,0.369339 0.397553,0.369339 0.09311,0 0.272011,-0.166203 0.397554,-0.369339 z M 88.537077,42.981515 C 88.271015,41.782784 88.191663,41.721931 87.905305,42.497014 87.634102,43.231078 87.522652,43.100482 87.25686,41.73719 87.080334,40.831757 86.657602,39.859977 86.317452,39.57768 85.900038,39.231257 85.702208,38.109567 85.70886,36.127021 l 0.0099,-2.93739 0.866766,1.108022 c 0.476719,0.609412 1.194855,2.105241 1.595852,3.324065 0.401002,1.218824 0.933278,2.415488 1.182845,2.659253 0.307197,0.300062 0.337694,0.239949 0.09442,-0.186121 -0.266878,-0.467407 -0.169571,-0.556512 0.37819,-0.346317 0.405634,0.155657 0.737517,0.07806 0.737517,-0.172442 0,-0.250501 0.174541,-0.347586 0.387861,-0.215744 0.213326,0.131842 0.63292,-0.704024 0.932432,-1.85748 0.299511,-1.153456 0.773168,-2.795246 1.052567,-3.648423 l 0.507997,-1.551231 0.13837,1.926332 c 0.07611,1.059483 -0.07348,2.914156 -0.332407,4.121496 -0.258927,1.207341 -0.470776,2.821799 -0.470776,3.587686 0,1.335834 -0.02841,1.357499 -0.697681,0.532196 -0.383722,-0.47318 -0.608123,-0.660882 -0.498668,-0.417117 0.42506,0.946623 -0.449245,2.175584 -1.591146,2.236582 -0.957641,0.05116 -1.214888,-0.178556 -1.465771,-1.308873 z m -66.210135,0.06951 c -0.0037,-0.426588 -0.162892,-0.775615 -0.353687,-0.775615 -0.440421,0 -1.45883,-8.823239 -1.571015,-13.610877 -0.05147,-2.196526 -0.303107,-3.856526 -0.634904,-4.188322 -0.748208,-0.748208 -0.707516,-7.636719 0.0581,-9.835795 0.718786,-2.064564 1.315839,-2.487567 3.523594,-2.496413 2.954347,-0.01184 3.846419,1.847715 3.846419,8.017981 0,3.24798 -0.137513,4.352403 -0.513025,4.120324 -0.351548,-0.217269 -0.434309,-0.01606 -0.262937,0.639268 0.137548,0.525984 0.06924,0.844566 -0.151789,0.707961 -0.230188,-0.142264 -0.401875,1.656258 -0.401875,4.209872 0,2.733702 -0.174796,4.458244 -0.451877,4.458244 -0.248532,0 -0.364536,0.481652 -0.257787,1.070337 0.106749,0.588685 0.07888,1.18555 -0.06194,1.326365 -0.140815,0.140816 -0.30274,1.304576 -0.359833,2.586135 -0.05709,1.281559 -0.14866,2.429829 -0.203482,2.551711 -0.05482,0.121883 -0.07606,0.371187 -0.04719,0.554011 0.02887,0.182824 -0.158729,0.332407 -0.41688,0.332407 -0.258151,0 -0.346103,0.199444 -0.195448,0.443208 0.150655,0.243765 0.0627,0.443209 -0.195447,0.443209 -0.258151,0 -0.47242,-0.249305 -0.476153,-0.554011 -0.0045,-0.36934 -0.149998,-0.332406 -0.436421,0.110802 -0.367166,0.568148 -0.430622,0.552038 -0.436422,-0.110802 z M 24.442359,23.48936 c 0.02964,-0.271442 0.129237,-1.942772 0.221319,-3.714067 0.187453,-3.605861 -0.242557,-4.382096 -2.160837,-3.900638 -1.149441,0.288491 -1.157241,0.319371 -1.002975,3.970688 0.171879,4.068188 0.800171,5.44179 2.113843,4.621388 0.426114,-0.266112 0.799007,-0.70593 0.82865,-0.977371 z m -1.854947,0.68836 c -0.125546,-0.203137 0.05335,-0.369341 0.397556,-0.369341 0.344201,0 0.523101,0.166204 0.397556,0.369341 -0.125546,0.203137 -0.304446,0.369341 -0.397556,0.369341 -0.09311,0 -0.27201,-0.166204 -0.397556,-0.369341 z m 39.385742,10.719568 c -0.691747,-0.505816 -0.857202,-1.177831 -0.863921,-3.508893 -0.006,-2.087204 0.175236,-2.999499 0.656499,-3.304278 0.931248,-0.589754 2.823244,-0.536527 3.457028,0.09726 0.694114,0.694112 0.71096,6.396479 0.02017,6.823417 -0.347334,0.214663 -0.391185,0.116295 -0.136526,-0.30625 0.306031,-0.507786 0.22874,-0.503567 -0.419439,0.0229 -1.077246,0.874953 -1.702334,0.915458 -2.713803,0.175853 z M 93.098236,27.74856 c -0.39341,-1.967057 -1.963144,-3.644708 -3.410256,-3.644708 -0.921635,0 -1.635002,0.448649 -2.627085,1.652213 l -1.361892,1.652213 v -1.873817 -1.873818 h 3.988879 3.988879 v 2.659253 c 0,2.88598 -0.192158,3.360507 -0.578525,1.428664 z M 76.04586,27.84754 c 0.160623,-0.16062 -0.194485,-0.778558 -0.789125,-1.373197 -0.963132,-0.963134 -1.308042,-1.863707 -1.127319,-2.943486 0.03235,-0.193262 -0.342919,-0.136384 -0.833932,0.126397 -0.87087,0.466075 -0.892742,0.352518 -0.892742,-4.634713 0,-6.153218 0.415224,-6.889706 3.878076,-6.878542 2.550622,0.0082 2.922492,0.232825 3.583874,2.164592 0.64728,1.89057 0.70413,9.963961 0.06739,9.570435 -0.249008,-0.153893 -0.568646,0.324012 -0.718779,1.074672 -0.148696,0.743493 -0.445522,1.243551 -0.659605,1.111239 -0.214087,-0.132312 -0.389248,-0.02935 -0.389248,0.228798 0,0.258151 -0.310938,0.469365 -0.690971,0.469365 -0.380034,0 -0.580621,0.178546 -0.445753,0.396767 0.134868,0.218223 -0.09659,0.527929 -0.514344,0.688238 -0.417759,0.160309 -0.628146,0.160055 -0.467527,-5.76e-4 z m 1.121375,-3.115813 c -0.308105,-0.308104 1.096171,-1.880283 1.495254,-1.674036 0.441263,0.228048 0.886878,-4.113511 0.56178,-5.473391 -0.440115,-1.841031 -1.009244,-2.344627 -2.649719,-2.344627 -1.92295,0 -2.398974,0.914549 -2.398974,4.608961 0,2.45412 0.136726,2.967573 0.898832,3.37544 0.52866,0.28293 0.767416,0.700044 0.579735,1.012813 -0.178737,0.297864 0.02176,0.255082 0.455805,-0.09726 0.426194,-0.345969 0.740025,-0.445691 0.697402,-0.221605 -0.12354,0.649547 0.004,1.072243 0.322953,1.072243 0.162507,0 0.179127,-0.116342 0.03692,-0.258538 z"
         id="path2526" />
      <path
         style="fill:#b9b9b9;fill-opacity:1;stroke-width:0.443209"
         d="m 17.804966,98.260158 c 0.319941,-0.128029 0.702209,-0.112286 0.849483,0.03497 0.147275,0.147273 -0.114495,0.252026 -0.581711,0.232782 -0.516313,-0.02127 -0.621334,-0.126288 -0.267772,-0.267769 z m 3.102461,0 c 0.319941,-0.128029 0.702209,-0.112286 0.849484,0.03497 0.147274,0.147273 -0.114496,0.252026 -0.581712,0.232782 -0.516313,-0.02127 -0.621334,-0.126288 -0.267772,-0.267769 z M 34.994399,86.079675 c -0.837349,-1.195481 -0.968806,-5.959757 -0.210373,-7.624334 0.72692,-1.595419 2.034641,-1.772866 2.935294,-0.398294 0.960369,1.465709 1.238048,6.160734 0.452612,7.652819 -0.77948,1.480769 -2.277289,1.655087 -3.177533,0.369809 z M 88.56406,85.55281 c -0.697877,-0.99636 -0.906446,-3.600029 -0.256193,-3.19815 0.216051,0.133526 0.487854,-0.120628 0.604005,-0.564789 0.116148,-0.444162 0.546295,-0.807567 0.955877,-0.807567 0.409583,0 0.655404,0.232685 0.546273,0.517079 -0.252022,0.656768 1.15814,0.695487 1.59392,0.04374 0.524609,-0.784572 0.386953,2.247357 -0.15616,3.439349 -0.671,1.472689 -2.440657,1.779665 -3.287722,0.570312 z M 47.788125,74.740449 c -0.638234,-0.670353 -1.344358,-1.680554 -1.569167,-2.244896 -0.517137,-1.298185 -0.54008,-5.407373 -0.02566,-4.596154 0.376294,0.593403 1.53564,-1.705583 2.70669,-5.367396 0.467989,-1.463373 0.630207,-1.607531 1.246835,-1.108021 0.590881,0.478652 0.646415,0.470621 0.333687,-0.04828 -0.25258,-0.419098 -0.210466,-0.520703 0.128894,-0.310968 0.277227,0.17134 1.032854,2.007571 1.679168,4.080521 1.344083,4.310949 1.310461,8.422286 -0.08146,9.96034 -1.123423,1.241366 -3.040243,1.082976 -4.418986,-0.365151 z m 4.386991,-3.574106 c 0.303487,-2.17182 0.220789,-3.184827 -0.259999,-3.184827 -0.217527,0 -0.272237,-0.199444 -0.121582,-0.443208 0.150656,-0.243765 0.08027,-0.443209 -0.156421,-0.443209 -0.236687,0 -0.376213,-0.493052 -0.310065,-1.095674 0.06615,-0.602622 -0.05113,-0.989738 -0.260628,-0.860259 -0.209501,0.129474 -0.380907,-0.07552 -0.380907,-0.455557 0,-0.740314 -0.89694,-0.756677 -1.433643,-0.02615 -0.179092,0.243765 -0.328675,1.07963 -0.332407,1.857479 -0.0035,0.777849 -0.206229,1.537535 -0.449994,1.688191 -0.62211,0.384488 -0.527237,4.285824 0.124896,5.1358 1.395966,1.81947 3.173619,0.740899 3.58075,-2.172578 z M 7.9283323,75.011968 C 7.8075345,74.67981 7.8550354,70.044072 8.03389,64.710335 8.3571323,55.070709 8.3655839,55.008327 9.4450733,54.294929 c 1.0104147,-0.667751 1.0659637,-0.665287 0.7981867,0.03537 -0.196954,0.515332 -0.103123,0.682174 0.297242,0.52854 0.900102,-0.345401 1.010862,0.432142 1.080128,7.582592 0.03542,3.656472 0.124844,7.483527 0.198719,8.504564 0.07387,1.021034 -0.0103,1.767051 -0.187057,1.657809 -0.176757,-0.109242 -0.687676,0.252026 -1.135378,0.80282 C 9.0758139,75.15496 8.1832115,75.712836 7.9283323,75.01199 Z M 22.606208,70.495272 c -1.677349,-0.468033 -1.704101,-0.508644 -1.472513,-2.235265 0.129731,-0.967215 0.553673,-1.936424 0.942093,-2.153795 0.388421,-0.217372 0.590532,-0.582403 0.449136,-0.811188 -0.141396,-0.228784 -0.04587,-0.415969 0.212283,-0.415969 0.258151,0 0.472419,0.249305 0.476152,0.554011 0.0045,0.369339 0.149998,0.332407 0.436422,-0.110802 0.371592,-0.574997 0.430552,-0.56502 0.436422,0.07387 0.0037,0.406271 0.200524,0.805159 0.437315,0.886417 0.23679,0.08125 0.537135,1.194815 0.667433,2.474581 0.260368,2.557301 0.286945,2.539426 -2.584743,1.73814 z m 66.675535,-8.384428 c -0.06087,-0.305721 -0.207616,-2.386315 -0.326104,-4.623549 -0.198637,-3.750507 -0.145377,-4.105185 0.683003,-4.548522 0.734153,-0.392909 0.982886,-0.323042 1.360256,0.382085 0.593758,1.109441 0.602706,6.543512 0.01139,6.908973 -0.24774,0.153111 -0.352169,0.437394 -0.232055,0.631737 0.12011,0.194342 -0.142562,0.680001 -0.583715,1.079239 -0.58176,0.526484 -0.832501,0.573193 -0.912766,0.170037 z m 1.257565,-8.892176 c -0.02504,-0.377809 -0.0988,-0.369588 -0.259459,0.02894 -0.123455,0.306227 -0.43769,0.424993 -0.698302,0.263927 -0.282417,-0.174545 -0.344275,-0.08322 -0.153124,0.226072 0.377109,0.610174 1.161446,0.243791 1.110885,-0.518918 z M 36.389213,54.30503 c 0.05939,-0.112792 -0.264191,-0.465764 -0.719069,-0.784373 -1.059298,-0.741958 -1.674763,-5.765569 -2.071266,-16.906304 l -0.288236,-8.098706 1.175443,-1.541084 c 1.490141,-1.953676 2.547937,-1.947672 4.051037,0.02299 l 1.192981,1.564079 -0.510074,9.405338 c -0.28054,5.172935 -0.592528,9.804225 -0.693306,10.291755 -0.100778,0.487529 -0.198493,1.623212 -0.217143,2.523737 -0.02192,1.058342 -0.386538,2.006898 -1.03113,2.682485 -0.548471,0.574842 -0.948628,0.952877 -0.889237,0.84008 z m 0.95626,-14.492602 c 0.791578,-1.341624 0.930196,-2.296985 0.930196,-6.410933 0,-4.153857 -0.109179,-4.89158 -0.775615,-5.240798 -1.16446,-0.610189 -2.764648,0.165918 -2.800313,1.35818 -0.193754,6.477012 0.41934,10.983698 1.494234,10.983698 0.198645,0 0.23791,0.199444 0.08725,0.443209 -0.150655,0.243765 -0.182126,0.443208 -0.06994,0.443208 0.11219,0 0.622571,-0.709454 1.134178,-1.576564 z m 12.158149,7.062302 c 0,-0.314297 0.216064,-0.46571 0.480146,-0.336474 0.264077,0.129237 0.16369,-0.02912 -0.22308,-0.351903 -1.015032,-0.847103 -1.734427,-2.35441 -1.734427,-3.634045 0,-0.611051 -0.23026,-1.25331 -0.511689,-1.427243 -0.33858,-0.209254 -0.390382,-0.119966 -0.153124,0.263927 0.229981,0.372121 0.184947,0.472866 -0.125592,0.280943 -0.555908,-0.343568 -0.402141,-4.638328 0.287749,-8.037095 0.247399,-1.218824 0.477451,-3.312986 0.511228,-4.653692 0.03377,-1.340706 0.162006,-2.188343 0.284957,-1.883637 0.12295,0.304706 0.41814,0.554011 0.655979,0.554011 0.23784,0 0.30917,-0.199444 0.158514,-0.443209 -0.150655,-0.243765 -0.06271,-0.443209 0.195446,-0.443209 0.258152,0 0.472421,0.249305 0.476153,0.554011 0.0045,0.369341 0.149999,0.332407 0.436423,-0.110802 0.286424,-0.443209 0.431898,-0.480143 0.436423,-0.110802 0.0035,0.304706 0.218001,0.554011 0.476153,0.554011 0.258151,0 0.343083,-0.249305 0.188736,-0.554011 -0.154348,-0.304706 0.01152,-0.196654 0.368647,0.240116 0.926568,1.133283 1.45454,11.305566 0.760351,14.649451 -0.286108,1.37818 -0.817494,2.80308 -1.180858,3.166444 -0.363365,0.363364 -0.688357,1.028311 -0.722204,1.477659 -0.0688,0.913246 -1.065931,1.142948 -1.065931,0.245549 z m 1.576503,-4.266914 c 0.489856,-2.737472 0.339125,-4.765283 -0.404216,-5.437997 -0.750662,-0.67934 -0.836157,-0.673635 -1.239628,0.08272 -1.033904,1.938174 -0.772145,4.95153 0.473617,5.452266 0.548471,0.220459 1.01384,0.413476 1.034153,0.428927 0.0203,0.01545 0.08155,-0.221212 0.136074,-0.525918 z m -0.894356,-5.0969 c -0.551294,-0.702954 -0.535618,-0.71863 0.167338,-0.167336 0.426589,0.334554 0.775615,0.683581 0.775615,0.775616 0,0.364776 -0.363958,0.129994 -0.942953,-0.60828 z M 9.2351634,40.622442 C 9.3425205,40.024949 9.2054285,39.674508 8.8883947,39.736024 8.540451,39.803538 8.2770725,38.72813 8.1054403,36.53912 7.9552121,34.623099 7.6290667,33.167898 7.3273276,33.067318 7.021198,32.965275 6.8078492,31.970877 6.8078492,30.646082 c 0,-1.727052 0.2620282,-2.591614 1.1305772,-3.730341 0.6218174,-0.815244 1.5121254,-1.482263 1.9784612,-1.482263 1.4091004,0 3.0958834,2.968081 3.0958834,5.447546 0,1.176624 -0.18177,2.026976 -0.403933,1.889672 -0.443859,-0.27432 -0.872265,1.927096 -1.004001,5.159177 -0.04665,1.144544 -0.247559,1.98041 -0.446464,1.85748 -0.198905,-0.12293 -0.377391,0.137288 -0.396635,0.578263 -0.022,0.504023 -0.120916,0.587309 -0.266369,0.22427 C 10.322275,40.157857 10.112047,40.21368 9.6608011,40.81149 9.0977696,41.557397 9.0694326,41.544811 9.2351634,40.622442 Z m 1.1913036,-6.982301 c -0.08176,-0.193273 0.04789,-0.473426 0.288108,-0.622562 0.495688,-0.307738 0.653787,-1.070973 0.577874,-2.78974 -0.05545,-1.255554 -1.552415,-2.142116 -2.320334,-1.374197 -0.5510019,0.551002 -0.8923914,4.202391 -0.3622739,3.87476 0.3649053,-0.225523 0.5936125,0.343819 0.4802818,1.19561 -0.021305,0.160145 0.304101,0.240854 0.7231301,0.179354 0.419029,-0.0615 0.694975,-0.269952 0.613214,-0.463225 z m 78.590082,6.308423 c -0.110168,-0.304706 -0.498601,-1.414825 -0.86318,-2.466931 -0.364579,-1.052106 -1.065961,-2.479002 -1.558619,-3.170879 -0.673375,-0.94567 -0.895747,-1.958588 -0.895747,-4.080218 0,-2.505604 0.155039,-3.010348 1.381832,-4.498659 1.137806,-1.380356 1.624484,-1.652562 2.755908,-1.541411 2.825167,0.277547 4.601237,5.250714 3.279536,9.18303 -0.375668,1.117698 -0.926763,2.975915 -1.224648,4.129371 -0.297885,1.153456 -0.716145,1.989322 -0.929471,1.85748 -0.21332,-0.131842 -0.387861,-0.03476 -0.387861,0.215744 0,0.2505 -0.331883,0.328099 -0.737517,0.172442 -0.495901,-0.190294 -0.632534,-0.113137 -0.417055,0.235515 0.17626,0.28519 0.202715,0.518527 0.0588,0.518527 -0.143919,0 -0.351806,-0.249305 -0.461975,-0.554011 z m 2.643284,-4.647728 c 0.08315,-0.431768 0.37195,-1.604886 0.641771,-2.606928 0.502501,-1.866142 0.261134,-4.389447 -0.514313,-5.376793 -0.239311,-0.304706 -1.113682,-0.554011 -1.943045,-0.554011 -1.210855,0 -1.593087,0.223975 -1.940168,1.136875 -0.5372,1.412943 -0.573229,6.093915 -0.04439,5.767073 0.213317,-0.131838 0.512505,0.539825 0.664853,1.492585 0.399402,2.497716 2.661845,2.599607 3.13529,0.141199 z M 22.247149,24.237926 c -0.35426,-0.426595 -0.654214,-2.189747 -0.747283,-4.392583 -0.154266,-3.651317 -0.146466,-3.682197 1.002975,-3.970688 1.91828,-0.481458 2.34829,0.294777 2.160837,3.900638 -0.226727,4.361336 -0.178851,4.147416 -1.049969,4.691438 -0.597437,0.373106 -0.910199,0.32074 -1.36656,-0.228805 z m 1.135375,-0.06021 c 0.125545,-0.203137 -0.05335,-0.369341 -0.397556,-0.369341 -0.344201,0 -0.523102,0.166204 -0.397556,0.369341 0.125546,0.203137 0.304446,0.369341 0.397556,0.369341 0.09311,0 0.27201,-0.166204 0.397556,-0.369341 z m 53.39982,0.480143 c -0.02885,-0.182824 -0.0176,-0.51575 0.025,-0.739837 0.04264,-0.224086 -0.271208,-0.124364 -0.697402,0.221605 -0.434048,0.352342 -0.634542,0.395124 -0.455805,0.09726 0.187681,-0.312769 -0.05107,-0.729883 -0.579735,-1.012813 -0.762097,-0.407867 -0.898823,-0.92132 -0.898823,-3.37544 0,-3.694412 0.476024,-4.608961 2.398974,-4.608961 1.640475,0 2.209604,0.503596 2.649719,2.344627 0.325098,1.35988 -0.120517,5.701439 -0.56178,5.473391 -0.399083,-0.206247 -1.803359,1.365932 -1.495254,1.674036 0.142195,0.142196 0.125575,0.258538 -0.03693,0.258538 -0.162512,0 -0.319093,-0.149583 -0.347959,-0.332406 z"
         id="path2524" />
      <path
         style="fill:#a3a3a3;fill-opacity:1;stroke-width:0.443209"
         d="M 17.888068,98.265933 C 14.615943,97.691003 12.395106,96.581058 10.169743,94.408409 7.3743502,91.679231 6.6222387,90.334456 5.879165,86.736851 4.8535113,81.771127 7.069388,76.45096 11.603772,72.99247 c 3.763,-2.870136 9.633178,-3.419369 13.953661,-1.305556 2.831537,1.385342 5.749657,4.413526 7.106778,7.374821 1.28824,2.810993 1.266036,7.862664 -0.04735,10.77256 -1.338441,2.965408 -5.261749,6.691911 -7.944605,7.546085 -2.516447,0.801189 -5.240564,1.156775 -6.784188,0.885553 z m 0.443208,-6.085761 c 0,-1.252255 -0.261932,-1.661997 -1.547213,-2.420332 -4.29204,-2.532366 -4.354092,-8.118254 -0.11887,-10.700499 3.84664,-2.345327 9.212979,0.761978 9.189241,5.320898 -0.01647,3.16237 -2.894821,7.16626 -6.131966,8.529778 l -1.169587,0.492645 1.088543,0.185274 c 1.68038,0.286007 4.299744,-0.680511 6.07972,-2.24335 5.217034,-4.580615 3.823823,-12.89537 -2.611138,-15.583405 -4.499498,-1.879546 -9.798651,0.278043 -11.916224,4.851784 -2.1117122,4.561083 1.19e-4,10.058494 4.699846,12.234396 2.364613,1.094779 2.437648,1.07479 2.437648,-0.667189 z M 49.799096,74.26677 c -0.365647,-0.123274 -0.907775,-0.540808 -1.20473,-0.927848 -0.652133,-0.849977 -0.747006,-4.751313 -0.124896,-5.135801 0.243765,-0.150656 0.446262,-0.910342 0.449994,-1.688191 0.0035,-0.777849 0.153315,-1.613714 0.332407,-1.857479 0.536703,-0.730519 1.433643,-0.714156 1.433643,0.02615 0,0.380034 0.171406,0.585031 0.380907,0.455557 0.209495,-0.129479 0.326782,0.257637 0.260628,0.860259 -0.06615,0.602622 0.07338,1.095674 0.310065,1.095674 0.236687,0 0.307077,0.199444 0.156421,0.443209 -0.150655,0.243765 -0.09595,0.443208 0.121582,0.443208 0.907102,0 0.348579,4.457107 -0.709746,5.663907 -0.407805,0.465014 -1.040628,0.744621 -1.406275,0.621347 z m 0.110802,-31.561963 c -1.245762,-0.500736 -1.507521,-3.514092 -0.473617,-5.452266 0.403471,-0.756357 0.488966,-0.762062 1.239628,-0.08272 0.6131,0.554844 0.769982,1.227328 0.65481,2.806825 -0.140741,1.930186 -0.299161,3.223651 -0.386668,3.15709 -0.0203,-0.01545 -0.485682,-0.208468 -1.034153,-0.428927 z m 1.218824,-4.585611 c 0,-0.09204 -0.349026,-0.441062 -0.775615,-0.775616 -0.702956,-0.551294 -0.718632,-0.535618 -0.167338,0.167336 0.578995,0.738274 0.942953,0.973056 0.942953,0.60828 z M 36.28123,40.945784 c 0.150655,-0.243765 0.11139,-0.443209 -0.08725,-0.443209 -1.074894,0 -1.687988,-4.506686 -1.494234,-10.983698 0.03566,-1.192262 1.635853,-1.968369 2.800313,-1.35818 0.666436,0.349218 0.775615,1.086941 0.775615,5.240798 0,4.113948 -0.138618,5.069309 -0.930196,6.410933 -0.511607,0.86711 -1.021988,1.576564 -1.134178,1.576564 -0.112191,0 -0.08072,-0.199443 0.06994,-0.443208 z m 53.295894,-3.895759 c -0.515212,-0.105024 -0.868565,-0.739639 -1.052581,-1.890388 -0.152348,-0.95276 -0.451536,-1.624423 -0.664853,-1.492585 -0.528841,0.326842 -0.492812,-4.35413 0.04439,-5.767073 0.347081,-0.9129 0.729313,-1.136875 1.940168,-1.136875 0.829363,0 1.703734,0.249305 1.943045,0.554011 0.775447,0.987346 1.016814,3.510651 0.514313,5.376793 -0.269821,1.002042 -0.558621,2.17516 -0.641771,2.606928 -0.216401,1.12369 -1.180216,1.933161 -2.082709,1.749189 z M 9.0901229,33.924012 c 0.1133307,-0.851791 -0.1153765,-1.421133 -0.4802818,-1.19561 -0.5301175,0.327631 -0.188728,-3.323758 0.3622739,-3.87476 0.767919,-0.767919 2.26488,0.118643 2.320334,1.374197 0.07591,1.718767 -0.08219,2.482002 -0.577874,2.78974 -0.240221,0.149136 -0.36987,0.429289 -0.288108,0.622562 0.08176,0.193273 -0.194185,0.401724 -0.613214,0.463225 -0.4190291,0.0615 -0.7444373,-0.01921 -0.7231301,-0.179354 z"
         id="path2522" />
    </g>
  </g>
</svg>
