<?xml version="1.0" encoding="UTF-8" standalone="no"?>
<!-- Created with Inkscape (http://www.inkscape.org/) -->

<svg
   width="100mm"
   height="100mm"
   viewBox="0 0 100 100"
   version="1.1"
   id="svg4911"
   inkscape:version="1.1.1 (3bf5ae0d25, 2021-09-20)"
   sodipodi:docname="add_list_type_device_618e.svg"
   xmlns:inkscape="http://www.inkscape.org/namespaces/inkscape"
   xmlns:sodipodi="http://sodipodi.sourceforge.net/DTD/sodipodi-0.dtd"
   xmlns="http://www.w3.org/2000/svg"
   xmlns:svg="http://www.w3.org/2000/svg">
  <sodipodi:namedview
     id="namedview4913"
     pagecolor="#ffffff"
     bordercolor="#666666"
     borderopacity="1.0"
     inkscape:pageshadow="2"
     inkscape:pageopacity="0.0"
     inkscape:pagecheckerboard="0"
     inkscape:document-units="mm"
     showgrid="false"
     width="100mm"
     inkscape:zoom="0.58974467"
     inkscape:cx="378.97757"
     inkscape:cy="259.43431"
     inkscape:window-width="1440"
     inkscape:window-height="890"
     inkscape:window-x="-6"
     inkscape:window-y="-6"
     inkscape:window-maximized="1"
     inkscape:current-layer="layer1" />
  <defs
     id="defs4908" />
  <g
     inkscape:label="Laag 1"
     inkscape:groupmode="layer"
     id="layer1">
    <g
       id="g4927"
       transform="translate(-0.90397324,-0.40624663)">
      <path
         style="fill:#d0d0d0;fill-opacity:1;stroke-width:0.599679"
         d="m 12.766825,91.400145 c -0.745924,-0.951127 -0.724713,-0.972337 0.226411,-0.226415 0.577191,0.452668 1.049439,0.924915 1.049439,1.049439 0,0.493559 -0.492448,0.175891 -1.27585,-0.823024 z m 1.799037,-2.398716 c -0.745924,-0.951127 -0.724713,-0.972337 0.226411,-0.226415 0.577191,0.452668 1.049439,0.924915 1.049439,1.049439 0,0.493559 -0.492448,0.175891 -1.27585,-0.823024 z m 24.66333,-0.589118 c 0.824558,-0.151725 1.712474,-0.650178 1.973145,-1.107668 0.381812,-0.670099 0.701965,-0.689402 1.646884,-0.09929 1.087718,0.679292 1.096853,0.762635 0.125731,1.147186 -0.575963,0.228069 -1.991699,0.396891 -3.146081,0.375153 -1.595484,-0.03004 -1.73931,-0.105682 -0.599679,-0.315383 z m 16.078893,0.02956 c 0.432893,-0.17323 0.950116,-0.151929 1.149384,0.04731 0.199268,0.199268 -0.154917,0.341002 -0.787078,0.314964 -0.698592,-0.02878 -0.84069,-0.170873 -0.362306,-0.362302 z m 7.908266,-0.01429 c 0.824559,-0.143329 1.828079,-0.686332 2.23005,-1.20668 0.619265,-0.801621 0.879939,-0.822351 1.707256,-0.135737 0.895501,0.7432 0.884635,0.846453 -0.131173,1.246193 -0.609166,0.239722 -2.052072,0.418072 -3.206454,0.396334 -1.553013,-0.02926 -1.708977,-0.107289 -0.599679,-0.30011 z M 48.224377,86.816793 c 0,-0.129627 0.418799,-0.396388 0.930664,-0.592813 0.533669,-0.204784 0.774379,-0.104254 0.564288,0.23568 -0.352166,0.569821 -1.494952,0.842819 -1.494952,0.357133 z m 8.882744,-0.173967 c 0.432894,-0.17323 0.950117,-0.151929 1.149385,0.04731 0.199268,0.199268 -0.154917,0.341002 -0.787078,0.314964 -0.698592,-0.02878 -0.84069,-0.170873 -0.362307,-0.362302 z m -10.842967,-2.03714 c 0.212052,-0.810886 0.483882,-1.08272 0.633591,-0.633591 0.144211,0.432633 -0.02291,1.071723 -0.371389,1.420196 -0.445003,0.445004 -0.523047,0.210871 -0.262202,-0.786605 z m -8.833999,0.04653 c -1.345261,-0.429442 -1.271828,-0.484726 0.715166,-0.538361 1.871693,-0.05049 2.178882,-0.244022 1.985074,-1.250385 -0.222183,-1.153704 -0.174877,-1.150376 1.526255,0.107324 0.965549,0.713858 1.691399,1.348762 1.613,1.410895 -0.593432,0.47028 -4.628201,0.6572 -5.839495,0.270527 z m 20.550418,0.185649 c 0.583468,-0.152043 1.393035,-0.142046 1.799037,0.02225 0.406002,0.16427 -0.07138,0.288668 -1.060851,0.276446 -0.989471,-0.01223 -1.321654,-0.146621 -0.738186,-0.298664 z m 2.814655,-0.71438 c -0.812235,-0.675874 -1.139471,-1.237839 -0.727192,-1.248813 0.41228,-0.01097 0.749599,0.249904 0.749599,0.579728 0,0.329823 0.809567,0.599679 1.799037,0.599679 0.98947,0 1.799037,-0.269856 1.799037,-0.599679 0,-0.910757 1.555363,-0.716341 2.398716,0.299839 0.607061,0.731465 0.578762,0.899519 -0.151455,0.899519 -0.49389,0 -1.683899,0.157181 -2.64447,0.349295 -1.252514,0.250503 -2.16417,0.0018 -3.223272,-0.879568 z m -25.27655,-1.078732 c 0.432893,-0.173229 0.950117,-0.151929 1.149385,0.04731 0.199268,0.199267 -0.154917,0.341001 -0.787079,0.314963 -0.698591,-0.02878 -0.84069,-0.170873 -0.362306,-0.362302 z m 0.862039,-1.792333 c 1.364625,-0.370175 1.325173,-0.960673 -0.153597,-2.298941 -0.661669,-0.598803 -1.068793,-1.222973 -0.904721,-1.387045 0.164072,-0.164073 -0.0285,-0.727927 -0.427936,-1.253006 -0.399437,-0.525085 0.0066,-0.301482 0.902357,0.496894 0.895733,0.798377 1.492274,1.58792 1.325646,1.754547 -0.166628,0.166627 0.232794,0.873247 0.887605,1.570259 l 1.190564,1.267296 -1.934678,0.06734 c -1.064073,0.03706 -1.462431,-0.06077 -0.88524,-0.217342 z m 24.914558,-0.26645 c 0.698187,-0.618563 4.919471,-1.092771 4.919471,-0.552646 0,0.275876 -1.201805,0.597172 -2.670676,0.713996 -1.468872,0.116829 -2.480829,0.0442 -2.248795,-0.16135 z M 47.329103,79.863191 c -0.210091,-0.339934 0.03062,-0.440464 0.564288,-0.23568 1.038894,0.398661 1.228974,0.828493 0.366377,0.828493 -0.310359,0 -0.729158,-0.266768 -0.930665,-0.592813 z m -8.456727,-1.356144 -1.142382,-1.349278 1.349278,1.142383 c 1.267988,1.073557 1.622276,1.556173 1.142381,1.556173 -0.113793,0 -0.720968,-0.607175 -1.349277,-1.349278 z m 18.234745,0.339952 c 0.432894,-0.173229 0.950117,-0.151929 1.149385,0.04731 0.199268,0.199267 -0.154917,0.341001 -0.787078,0.314963 -0.698592,-0.02878 -0.84069,-0.170872 -0.362307,-0.362302 z M 33.119962,77.047962 c 0.432893,-0.173229 0.950117,-0.151929 1.149385,0.04731 0.199268,0.199273 -0.154917,0.341001 -0.787079,0.314963 -0.698591,-0.02878 -0.84069,-0.170872 -0.362306,-0.362302 z M 58.11908,76.85793 c 0.659647,-0.283462 1.604141,-0.515382 2.098876,-0.515382 0.566984,0 0.456139,0.190524 -0.299839,0.515382 -0.659647,0.283462 -1.604142,0.515382 -2.098877,0.515382 -0.566984,0 -0.456139,-0.190524 0.29984,-0.515382 z m 3.899106,0.14992 c 6e-4,-0.247368 0.877685,-0.509854 1.948957,-0.583302 1.435512,-0.09842 1.711196,0.01745 1.048245,0.440578 -1.073791,0.685343 -2.998887,0.777016 -2.997202,0.142724 z m -21.035345,-1.799037 -1.45381,-1.649118 1.649118,1.453808 c 0.907014,0.7996 1.649117,1.541703 1.649117,1.649117 0,0.470317 -0.48562,0.08754 -1.844425,-1.453807 z m -9.062237,-0.559567 c 0.432894,-0.173229 0.950117,-0.151929 1.149385,0.04731 0.199268,0.199273 -0.154917,0.341001 -0.787079,0.314963 -0.698591,-0.02878 -0.840689,-0.170872 -0.362306,-0.362302 z m 16.665383,-0.689763 c -0.169869,-0.274856 0.07219,-0.499736 0.537908,-0.499736 0.465718,0 0.707777,0.22488 0.537908,0.499736 -0.169868,0.274851 -0.411927,0.499731 -0.537908,0.499731 -0.125981,0 -0.36804,-0.22488 -0.537908,-0.499731 z m -5.496607,-2.048905 -1.761312,-1.948957 1.948957,1.761312 c 1.8167,1.641789 2.2246,2.136602 1.761312,2.136602 -0.103205,0 -0.980236,-0.877031 -1.948957,-1.948957 z m 17.728255,1.349278 c 0.494735,-0.319725 1.709085,-0.558547 2.698556,-0.530722 1.76296,0.04959 1.768975,0.06022 0.299839,0.530722 -0.824559,0.264069 -2.038908,0.502897 -2.698555,0.530722 -0.988056,0.04168 -1.040882,-0.05181 -0.29984,-0.530722 z m -24.94743,-0.749599 c -0.237256,-0.412279 -0.210547,-0.549546 0.05935,-0.305045 0.2699,0.244508 0.92034,0.10958 1.445422,-0.299839 0.8447,-0.658627 0.85987,-0.62348 0.131668,0.305045 -0.980939,1.250792 -1.078868,1.268735 -1.636442,0.299839 z m 10.935979,0.280992 c -0.165939,-0.268501 -0.08721,-0.835239 0.17495,-1.259422 0.372329,-0.602444 0.554817,-0.567566 0.83376,0.159347 0.377375,0.983425 -0.493692,1.933389 -1.00871,1.100075 z m -7.851222,-2.48835 c -0.189757,-0.307036 -0.115731,-0.699946 0.164501,-0.873139 0.280233,-0.173193 0.509515,0.07801 0.509515,0.558241 0,1.011161 -0.189101,1.099506 -0.674016,0.314898 z M 18.763614,69.212023 c -0.745923,-0.951127 -0.724712,-0.972338 0.226412,-0.226415 0.998914,0.783403 1.316583,1.275853 0.823027,1.275853 -0.124527,0 -0.596775,-0.472247 -1.049439,-1.049438 z m 26.70523,-0.29984 -1.142381,-1.349277 1.349278,1.142382 c 1.267988,1.073557 1.622276,1.556173 1.142381,1.556173 -0.113793,0 -0.720968,-0.607175 -1.349278,-1.349278 z m 3.686706,0.800818 c -0.193082,-0.312415 -0.09545,-0.726002 0.216966,-0.91908 0.312413,-0.193085 0.726,-0.09545 0.919082,0.216963 0.193082,0.312415 0.09545,0.726002 -0.216966,0.91908 -0.312413,0.193085 -0.726,0.09545 -0.919082,-0.216963 z M 13.78139,68.28664 c 0.225198,-0.591415 0.560515,-0.924237 0.745149,-0.739602 0.184633,0.184635 3.8e-4,0.668516 -0.409451,1.075302 -0.592253,0.587842 -0.661135,0.518963 -0.335698,-0.3357 z m 8.59404,-0.87399 c -0.790046,-0.886865 -1.006835,-1.285676 -0.481753,-0.886236 0.525082,0.399435 1.093803,0.58714 1.263824,0.417119 0.17002,-0.170021 0.630542,0.07815 1.023381,0.551495 1.341318,1.616189 -0.361537,1.538494 -1.805452,-0.08238 z m 55.233217,1.085167 c 0,-0.310358 0.269855,-0.731069 0.599679,-0.934911 0.329823,-0.203843 0.599679,0.05007 0.599679,0.564286 0,0.5142 -0.269856,0.934911 -0.599679,0.934911 -0.329824,0 -0.599679,-0.253928 -0.599679,-0.564286 z m -58.245354,-1.68451 c -0.745923,-0.951127 -0.724712,-0.972338 0.226412,-0.226415 0.998914,0.783403 1.316583,1.275853 0.823027,1.275853 -0.124527,0 -0.596775,-0.472247 -1.049439,-1.049438 z m 21.390706,-0.708161 c -0.189757,-0.307036 -0.115731,-0.699945 0.164501,-0.873139 0.280233,-0.173193 0.509515,0.07801 0.509515,0.558242 0,1.01116 -0.189101,1.099505 -0.674016,0.314897 z m 4.395491,-0.491197 c -0.745924,-0.951127 -0.724713,-0.972338 0.226411,-0.226415 0.577191,0.452668 1.049439,0.924915 1.049439,1.049438 0,0.49356 -0.492448,0.175892 -1.27585,-0.823023 z m 30.66012,-0.14992 c 0,-1.119403 0.159916,-1.279313 0.719614,-0.719615 0.559699,0.559699 0.559699,0.879532 0,1.43923 -0.559698,0.559698 -0.719614,0.399788 -0.719614,-0.719615 z M 4.9350501,65.654061 c 0.4328932,-0.173229 0.9501164,-0.151928 1.1493847,0.04731 0.1992683,0.199273 -0.1549171,0.341002 -0.7870786,0.314963 -0.6985919,-0.02878 -0.8406897,-0.170872 -0.3623061,-0.362302 z m 17.8534009,-0.57469 c -0.315831,-0.823047 -0.228079,-0.860143 0.53552,-0.226415 1.04059,0.863616 1.148889,1.210752 0.377726,1.210752 -0.294536,0 -0.705497,-0.442953 -0.913246,-0.984337 z m 9.844272,-1.414379 c -0.768727,-0.496792 -0.746928,-0.582648 0.14992,-0.590498 0.577191,-0.005 1.049438,0.260675 1.049438,0.590498 0,0.731375 -0.06764,0.731375 -1.199358,0 z M 14.980748,62.28985 c 0.225198,-0.591414 0.560515,-0.924236 0.745149,-0.739602 0.184633,0.184633 3.8e-4,0.668516 -0.409451,1.075303 -0.592253,0.587841 -0.661135,0.518962 -0.335698,-0.335701 z M 6.2468479,61.901348 c 0,-0.31036 0.2667644,-0.729159 0.59281,-0.930666 0.3399341,-0.210091 0.4404687,0.03062 0.2356805,0.564288 -0.3986611,1.038894 -0.8284905,1.228975 -0.8284905,0.366378 z M 77.650798,61.716036 c 0.02321,-0.41228 0.274065,-1.28931 0.557528,-1.948957 0.431894,-1.005072 0.522212,-0.883643 0.557527,0.749599 0.02318,1.071926 -0.227704,1.948956 -0.557527,1.948956 -0.329824,0 -0.580712,-0.337319 -0.557528,-0.749598 z M 3.2484529,61.350821 c 0,-0.415253 -0.2158748,-0.621588 -0.4797218,-0.458522 -0.263847,0.163067 -0.5442963,-0.662355 -0.6232206,-1.83427 -0.078924,-1.171915 -0.2003689,-2.436293 -0.2698769,-2.809729 -0.069508,-0.373436 0.2709368,-0.678974 0.7565439,-0.678974 1.0806402,0 2.1050598,5.047716 1.2067326,5.946044 -0.3874902,0.387489 -0.5904572,0.330927 -0.5904572,-0.164549 z M 27.349352,60.918639 c -1.024985,-0.717927 -1.313098,-1.520482 -1.313098,-3.657708 0,-2.309163 0.134619,-2.626255 0.859538,-2.024626 0.730604,0.606348 2.335813,6.032908 1.910408,6.458314 -0.07906,0.07906 -0.734644,-0.270128 -1.456848,-0.77598 z M 10.046284,59.608592 C 10.015681,59.036113 9.7891954,57.69069 9.5429828,56.618764 9.2633213,55.401216 9.3248645,54.669807 9.7069746,54.669807 c 0.6879734,0 1.3684604,4.853863 0.7764654,5.538464 -0.209832,0.242656 -0.406552,-0.0272 -0.437156,-0.599679 z m 20.348418,0.226128 c -0.02156,-0.367026 -0.221303,-1.699392 -0.443878,-2.960813 -0.378265,-2.143777 -0.327908,-2.252405 0.771415,-1.664065 1.562484,0.836216 2.085021,4.671551 0.686301,5.037325 -0.536052,0.14018 -0.992278,-0.04542 -1.013838,-0.412447 z M 5.6471689,57.23986 c 0,-2.49396 0.1044083,-2.722649 0.8861328,-1.940925 0.487373,0.487373 1.0608161,1.759549 1.274318,2.827058 0.3401955,1.70098 0.2306486,1.940925 -0.886133,1.940925 -1.1190979,0 -1.2743178,-0.344353 -1.2743178,-2.827058 z m 33.0846551,1.436766 c -1.408945,-1.499753 -1.805327,-4.271908 -0.55207,-3.860981 0.715476,0.234595 2.503533,4.59675 2.064272,5.036011 -0.115794,0.115794 -0.796284,-0.41297 -1.512202,-1.17503 z M 13.442996,56.812407 c 0,-2.092436 0.110093,-2.287201 0.860056,-1.521504 0.473031,0.482956 1.03827,1.605357 1.256087,2.494223 0.338798,1.382572 0.21451,1.602448 -0.860057,1.521503 -1.049962,-0.07909 -1.256086,-0.488395 -1.256086,-2.494222 z m 5.101516,2.062022 c -0.210091,-0.339934 0.03062,-0.440468 0.564288,-0.23568 1.038894,0.398661 1.228974,0.82849 0.366377,0.82849 -0.310359,0 -0.729158,-0.266764 -0.930665,-0.59281 z m 15.287569,-1.905852 c 0,-2.94602 0.284517,-2.862101 0.847138,0.249866 0.257394,1.423694 0.176569,2.248796 -0.220286,2.248796 -0.344768,0 -0.626852,-1.124398 -0.626852,-2.498662 z M 41.679452,56.7387 c 0.05094,-2.340951 0.05779,-2.347801 0.584068,-0.584068 0.32931,1.103629 0.30964,2.007548 -0.05154,2.368732 -0.378972,0.378971 -0.565969,-0.247718 -0.532525,-1.784664 z M 17.083218,55.719246 c 0.03532,-1.633242 0.125636,-1.754671 0.55753,-0.749599 0.711924,1.656734 0.711924,2.698555 0,2.698555 -0.329823,0 -0.580712,-0.87703 -0.55753,-1.948956 z m 59.664464,-10.46852 c -0.325434,-0.854661 -0.256555,-0.923542 0.3357,-0.335697 0.409832,0.406783 0.594084,0.890668 0.409449,1.075301 -0.184636,0.184634 -0.519952,-0.148188 -0.745149,-0.739604 z M 20.831783,41.798469 c 0.284108,-0.852325 1.751769,-0.785002 2.0447,0.09379 0.139137,0.417408 -0.280062,0.676176 -1.006717,0.621438 -0.684821,-0.05158 -1.151913,-0.37344 -1.037983,-0.71523 z m 24.586838,0 c 0.284108,-0.852325 1.751769,-0.785002 2.044701,0.09379 0.139136,0.417408 -0.280063,0.676176 -1.006718,0.621438 -0.684821,-0.05158 -1.151913,-0.37344 -1.037983,-0.71523 z m 30.752601,0.378027 c -0.169871,-0.274854 0.07219,-0.499733 0.537906,-0.499733 0.465717,0 0.707777,0.224879 0.537906,0.499733 -0.169865,0.274852 -0.411925,0.499732 -0.537906,0.499732 -0.12598,0 -0.368041,-0.22488 -0.537906,-0.499732 z m 2.30465,-1.351556 c -0.221605,-0.358562 -0.160426,-0.894418 0.135948,-1.190792 0.318693,-0.318694 0.538859,-0.05233 0.538859,0.651931 0,1.362609 -0.110946,1.451204 -0.674807,0.538861 z M 17.640748,39.786652 c 0,-0.724745 1.137711,-1.569717 1.553587,-1.153841 0.150939,0.150938 -0.136871,0.615786 -0.639576,1.032995 -0.569925,0.472996 -0.914011,0.518489 -0.914011,0.120846 z m 24.586839,-0.03804 c 0,-0.329823 0.269855,-0.766458 0.599679,-0.970301 0.329823,-0.203842 0.599679,-0.100766 0.599679,0.229057 0,0.329824 -0.269856,0.766459 -0.599679,0.970301 -0.329824,0.203843 -0.599679,0.100767 -0.599679,-0.229057 z m 6.747793,-0.415566 c -0.587113,-0.628507 -0.406051,-1.015602 0.906823,-1.938709 3.457342,-2.430925 5.483186,-3.185322 6.743095,-2.51104 1.437862,0.76952 1.473227,0.960971 0.263278,1.425272 -0.53367,0.204788 -0.774379,0.104253 -0.564288,-0.235681 0.464924,-0.752263 -0.398632,-0.755175 -2.363922,-0.008 -0.84603,0.32166 -1.546717,0.928835 -1.557081,1.349277 -0.01036,0.420443 -0.620827,1.200878 -1.356582,1.734301 -1.098941,0.796731 -1.468688,0.829675 -2.071323,0.184553 z M 24.332207,39.149551 c -0.583508,-0.369832 0.152684,-1.108656 2.679793,-2.689372 1.916377,-1.198702 3.711083,-2.179457 3.988234,-2.179457 0.942276,0 -0.276894,1.270997 -1.760083,1.834904 -0.812367,0.308862 -1.328181,0.802409 -1.146254,1.096773 0.181926,0.294363 -0.332052,0.969508 -1.142175,1.50032 -1.706372,1.118058 -1.578376,1.096713 -2.619515,0.436832 z m -9.459514,-0.935788 c -0.224551,-0.58517 -0.0141,-1.407891 0.48877,-1.910761 0.754502,-0.754502 0.984475,-0.760986 1.579083,-0.04453 0.544189,0.655709 0.437598,1.07241 -0.48877,1.910762 -1.110828,1.005285 -1.209339,1.008063 -1.579083,0.04453 z m 24.356499,0.27521 c -0.786934,-0.495862 -0.768706,-0.69765 0.145636,-1.612228 1.344012,-1.344359 2.635286,-0.338411 1.505728,1.173013 -0.530378,0.70968 -1.016813,0.839058 -1.651364,0.439215 z m 47.109365,0.04543 c -0.184833,-0.299065 0.204023,-0.402519 0.864126,-0.229899 1.400244,0.366172 1.577245,0.773652 0.33606,0.773652 -0.47527,0 -1.015353,-0.244689 -1.200186,-0.543753 z M 21.947131,36.15902 c -0.969994,-0.614359 3.714392,-3.774845 7.656422,-5.165675 3.376444,-1.191278 3.833319,-0.752258 0.6697,0.643528 -1.340879,0.591594 -2.437962,1.378496 -2.437962,1.74867 0,0.370173 -1.011958,1.188231 -2.248796,1.817905 -1.236838,0.629674 -2.383724,1.214979 -2.548636,1.300677 -0.164911,0.0857 -0.655739,-0.0696 -1.090728,-0.345105 z m 24.185098,-0.06837 c -0.580484,-0.939242 8.126198,-6.007677 10.320134,-6.007677 0.869051,0 -1.64554,1.672537 -3.041257,2.022839 -1.153162,0.289426 -1.590077,0.706564 -1.36216,1.300505 0.190618,0.496745 -0.0099,0.874409 -0.464284,0.874409 -0.439904,0 -1.485957,0.539711 -2.324562,1.199358 -1.685406,1.32574 -2.578166,1.500008 -3.127871,0.610566 z M 11.586675,34.987437 c 0.789926,-1.47599 1.666283,-2.101837 2.052937,-1.466096 0.153719,0.252748 -0.394575,0.964926 -1.21843,1.582617 -1.484954,1.113355 -1.492177,1.112347 -0.834507,-0.116521 z m 24.063515,0.735506 c -0.02622,-0.902842 2.08323,-2.7381 2.578229,-2.243101 0.648982,0.648983 0.458818,1.507017 -0.238485,1.07606 -0.351768,-0.217404 -1.017825,0.103989 -1.480125,0.714208 -0.462301,0.610219 -0.84913,0.813993 -0.859619,0.452833 z m 24.417846,-0.0664 c 0.742103,-0.142935 1.956453,-0.142935 2.698556,0 0.742103,0.142935 0.134928,0.259882 -1.349278,0.259882 -1.484205,0 -2.09138,-0.116947 -1.349278,-0.259882 z m 22.600156,-2.125423 -1.761311,-1.948956 2.095878,1.799037 c 1.152739,0.98947 2.209673,1.8665 2.348745,1.948956 0.139077,0.08246 -0.01145,0.14992 -0.334567,0.14992 -0.323089,0 -1.380023,-0.87703 -2.348745,-1.948957 z M 57.7068,33.871073 c 0.432894,-0.17323 0.950117,-0.151925 1.149385,0.04734 0.199268,0.199268 -0.154917,0.341002 -0.787078,0.314963 -0.698592,-0.02877 -0.84069,-0.170873 -0.362307,-0.362306 z M 8.5506094,32.665003 c 0.3855954,-0.723734 0.9694872,-1.481763 1.2975368,-1.684508 0.8958848,-0.553687 1.7897398,0.219564 1.4069448,1.217111 -0.185067,0.482278 -0.589886,0.72026 -0.899597,0.528848 -0.30971,-0.191412 -1.0002527,0.01253 -1.5345391,0.453204 -0.8697798,0.717386 -0.8980685,0.663533 -0.2703455,-0.514655 z m 11.2820386,0.448992 c -1.835457,-0.643843 4.061556,-4.466947 9.320673,-6.042702 1.738571,-0.520918 3.59816,0.697838 2.294306,1.503665 -0.354011,0.218791 -0.569507,0.134873 -0.478879,-0.186484 0.237097,-0.840722 -0.21477,-0.872228 -2.120104,-0.147822 -0.926861,0.352393 -1.51811,0.911074 -1.313886,1.241515 0.204224,0.330441 0.0034,0.600802 -0.446188,0.600802 -0.449628,0 -2.025812,0.766286 -3.502633,1.702858 -1.649271,1.045937 -3.097199,1.558312 -3.753289,1.328168 z m 12.601025,-0.28606 c -0.382634,-0.997129 2.37556,-2.390295 2.936239,-1.483097 0.209718,0.33933 0.286818,0.666473 0.171336,0.726985 -0.115484,0.06051 -0.793147,0.434642 -1.505918,0.831399 -1.034514,0.57585 -1.357621,0.560663 -1.601657,-0.07529 z m 11.231459,-0.246494 c 1.412619,-2.285667 10.348855,-6.397822 11.793004,-5.426743 0.739855,0.497495 0.734529,0.566813 -0.03761,0.489503 -1.454063,-0.145585 -3.597956,0.723569 -3.599498,1.459271 -0.0017,0.818444 -5.870871,3.977892 -7.389539,3.977892 -0.591429,0 -0.936289,-0.224965 -0.766355,-0.499923 z m 12.355071,-0.643293 c 0,-0.298946 0.539711,-0.402399 1.199358,-0.229898 0.659647,0.172501 1.199358,0.417093 1.199358,0.543537 0,0.126444 -0.539711,0.229898 -1.199358,0.229898 -0.659647,0 -1.199358,-0.244592 -1.199358,-0.543537 z m 27.228418,-0.805741 -1.142382,-1.349277 1.349278,1.142381 c 0.742102,0.628309 1.349277,1.235484 1.349277,1.349278 0,0.479895 -0.482615,0.125607 -1.556173,-1.142382 z m 1.523893,-0.899518 -2.066596,-2.248796 2.248796,2.066594 c 1.236838,1.136626 2.248796,2.148585 2.248796,2.248796 0,0.457927 -0.50746,0.02654 -2.430996,-2.066594 z m -67.658638,0.237646 c -0.837962,-1.009682 3.413403,-4.186287 8.213777,-6.137305 2.891471,-1.175181 3.406749,-1.232645 4.173918,-0.465476 1.024455,1.024455 1.185229,0.879938 -2.379919,2.139265 -1.873442,0.661761 -2.88415,0.77857 -3.027059,0.349842 -0.282044,-0.846133 -2.842657,0.48198 -2.88895,1.498411 -0.01825,0.400675 -0.798138,1.331621 -1.733086,2.068769 -1.382086,1.089688 -1.823073,1.191863 -2.358681,0.546494 z m 24.145071,0.100272 c -0.606312,-0.981033 2.33973,-3.241398 7.471919,-5.732867 3.611733,-1.75335 4.500465,-1.986421 4.938169,-1.29504 0.293571,0.463715 0.537898,0.980174 0.542948,1.147685 0.01826,0.605405 -5.346315,2.218989 -5.53139,1.663761 -0.10922,-0.327659 -0.884908,-0.248092 -1.844711,0.189224 -0.910933,0.415048 -1.541244,1.054311 -1.400692,1.420583 0.374444,0.975785 -3.636817,3.479463 -4.176243,2.606654 z M 87.553321,30.232889 C 87.305954,29.985521 86.856194,29.78313 86.55386,29.78313 c -0.30234,0 -0.482244,-0.174061 -0.399788,-0.3868 0.08246,-0.212741 -0.38404,-1.022307 -1.036653,-1.799037 -0.652619,-0.776731 -0.180371,-0.48227 1.049438,0.654357 1.229804,1.136627 2.236011,2.148585 2.236011,2.248796 0,0.318378 -0.384802,0.197188 -0.849547,-0.267557 z M 60.978968,29.667397 c 0.583468,-0.152044 1.393035,-0.142045 1.799036,0.02222 0.406,0.164266 -0.07138,0.288666 -1.06085,0.276445 -0.989471,-0.01222 -1.321654,-0.14662 -0.738186,-0.298665 z m 7.309996,-0.823683 c -0.217402,-0.351767 -0.266666,-0.768189 -0.109472,-0.925381 0.157188,-0.157194 0.445598,0.130616 0.640907,0.639576 0.405491,1.056698 0.05991,1.242569 -0.531435,0.285805 z M 34.881519,27.886776 c 0.41228,-0.166358 1.086918,-0.166358 1.499198,0 0.412279,0.166359 0.07496,0.30247 -0.749599,0.30247 -0.824559,0 -1.161878,-0.136111 -0.749599,-0.30247 z m 4.048497,-0.201448 c -0.210857,-0.341175 -0.702049,-0.461468 -1.091538,-0.267319 -0.38949,0.194149 0.101404,-0.339819 1.090874,-1.186597 0.989471,-0.846778 1.529182,-1.567836 1.199358,-1.602351 -0.329823,-0.03452 0.07496,-0.262136 0.899519,-0.505825 0.824558,-0.243689 1.420698,-0.789606 1.324754,-1.213151 -0.10631,-0.469308 0.179686,-0.63419 0.732245,-0.422153 0.498678,0.191361 1.31928,-0.06466 1.82356,-0.568943 0.50428,-0.504281 0.916873,-0.731634 0.916873,-0.50523 0,0.226404 0.607175,0.0175 1.349277,-0.46423 1.979629,-1.28506 4.335604,-1.572925 5.557979,-0.679103 1.024326,0.749006 1.021224,0.801254 -0.06882,1.15933 -0.627818,0.206236 -2.145428,0.74798 -3.372467,1.203876 -1.22704,0.455895 -2.62198,0.67886 -3.099868,0.495477 -1.010039,-0.387589 -4.099055,1.453039 -3.652137,2.176168 0.165958,0.268526 -0.492053,1.05346 -1.462245,1.744298 -1.10644,0.787854 -1.906896,1.024839 -2.147365,0.635753 z m 20.838181,0.18523 c 0.577191,-0.150835 1.521685,-0.150835 2.098876,0 0.577191,0.150836 0.104944,0.274247 -1.049438,0.274247 -1.154382,0 -1.626629,-0.123411 -1.049438,-0.274247 z M 14.042675,27.157601 c 0,-0.882446 6.147463,-4.821858 9.912351,-6.352023 2.607929,-1.059942 3.754529,-1.270348 4.328197,-0.794245 0.429225,0.356224 0.626556,0.801536 0.438511,0.989581 -0.725139,0.725139 -5.898632,2.423642 -6.413318,2.105548 -0.79676,-0.492424 -4.067989,1.002507 -4.067989,1.859046 0,0.403602 -0.493495,1.18043 -1.096657,1.726284 -1.165796,1.055031 -3.101095,1.345729 -3.101095,0.465809 z M 57.7068,26.075246 c 0.432894,-0.17323 0.950117,-0.151925 1.149385,0.04734 0.199268,0.199268 -0.154917,0.341002 -0.787078,0.314963 -0.698592,-0.02877 -0.84069,-0.170873 -0.362307,-0.362306 z m -0.360963,-2.228423 c 0.425284,-0.461469 0.867729,-0.749279 0.983212,-0.639576 0.355698,0.337894 -0.545791,1.478611 -1.168523,1.478611 -0.323361,0 -0.239971,-0.377565 0.185311,-0.839035 z m -20.627801,-1.96933 c 0.432893,-0.17323 0.950116,-0.151925 1.149385,0.04734 0.199268,0.199269 -0.154917,0.341002 -0.787079,0.314963 -0.698591,-0.02877 -0.84069,-0.170873 -0.362306,-0.362306 z m -0.1874,-1.989066 c 0.203843,-0.329824 0.489624,-0.599679 0.635071,-0.599679 0.145446,0 0.264448,0.269855 0.264448,0.599679 0,0.329823 -0.285782,0.599679 -0.63507,0.599679 -0.349289,0 -0.468291,-0.269856 -0.264449,-0.599679 z m -3.448154,-1.596514 c 0.41228,-0.166359 1.086918,-0.166359 1.499198,0 0.412279,0.166358 0.07496,0.302469 -0.749599,0.302469 -0.824559,0 -1.161878,-0.136111 -0.749599,-0.302469 z m 6.596469,0 c 0.412279,-0.166359 1.086918,-0.166359 1.499198,0 0.412279,0.166358 0.07496,0.302469 -0.749599,0.302469 -0.824559,0 -1.161878,-0.136111 -0.749599,-0.302469 z m 17.390691,0 c 0.412279,-0.166359 1.086918,-0.166359 1.499197,0 0.412279,0.166358 0.07496,0.302469 -0.749599,0.302469 -0.824558,0 -1.161878,-0.136111 -0.749598,-0.302469 z m 7.233627,-0.01249 c 0.432891,-0.17323 0.950114,-0.151925 1.149387,0.04734 0.199267,0.199268 -0.154921,0.341002 -0.787079,0.314963 -0.698596,-0.02877 -0.84069,-0.170873 -0.362308,-0.362306 z"
         id="path4933" />
      <path
         style="fill:#b9b9b9;fill-opacity:1;stroke-width:0.599679"
         d="m 17.528309,93.838974 c 0.432893,-0.17323 0.950116,-0.151929 1.149385,0.04731 0.199268,0.199268 -0.154918,0.341002 -0.787079,0.314964 -0.698592,-0.02878 -0.84069,-0.170873 -0.362306,-0.362302 z M 33.68417,87.750985 c -0.231606,-0.88566 -0.0111,-1.047634 1.129416,-0.829614 0.779466,0.149008 1.417211,0.48953 1.417211,0.756717 0,0.267193 0.472247,0.609213 1.049438,0.760045 0.577191,0.150837 0.06895,0.305554 -1.129417,0.343814 -1.645089,0.05253 -2.249357,-0.200041 -2.466648,-1.030962 z m 19.937317,0.247439 C 46.771336,86.435409 42.591831,84.211301 36.993794,79.150065 35.171866,77.502843 33.920493,76.85793 32.546175,76.85793 c -1.05181,0 -1.73482,-0.177565 -1.517799,-0.394583 0.217021,-0.217024 0.07994,-0.7737 -0.304616,-1.237066 -0.584026,-0.703711 -0.410304,-0.770497 1.054641,-0.405467 1.617781,0.403116 1.686841,0.355724 0.890202,-0.610905 -0.475001,-0.576357 -2.373872,-1.810287 -4.219715,-2.742062 -3.853714,-1.945352 -7.984421,-6.13889 -9.640957,-9.787607 -1.461891,-3.219987 -1.502184,-4.347039 -0.105477,-2.950332 1.473413,1.473413 4.335405,6.457285 4.335405,7.549673 0,0.496 0.809567,1.47828 1.799037,2.182843 0.989471,0.704563 1.799037,0.985866 1.799037,0.625111 0,-0.416591 0.644025,-0.322873 1.765083,0.256849 l 1.765082,0.912759 -1.376148,-3.146156 c -1.536557,-3.512883 -2.517619,-7.007409 -1.753002,-6.244159 0.274177,0.273685 0.789301,1.487482 1.14472,2.697328 0.355419,1.209841 0.938943,2.140135 1.296721,2.06731 0.357778,-0.07282 0.935401,0.684857 1.283608,1.683724 0.348206,0.998861 1.44257,3.015522 2.431919,4.481461 0.98935,1.465933 1.664645,3.014982 1.500656,3.442331 -0.33555,0.874428 2.517031,3.836429 3.116951,3.23651 0.212353,-0.212352 1.360303,0.372173 2.551,1.298953 1.190697,0.926773 3.041934,2.192084 4.11386,2.811792 1.071926,0.619715 1.948957,1.452423 1.948957,1.850472 0,0.833883 3.894378,2.27436 4.738464,1.752687 0.866944,-0.535801 9.250813,1.031286 10.146425,1.896539 0.646856,0.624932 0.316349,0.756339 -1.799037,0.715315 -1.425309,-0.02764 -4.075676,-0.388909 -5.889705,-0.802826 z M 34.662505,84.794495 c -0.367825,-0.242318 -0.870721,-1.08702 -1.117546,-1.877121 -0.47422,-1.517997 -0.426721,-1.498952 2.2993,0.922108 0.424159,0.376707 1.291824,0.817651 1.928145,0.979876 0.774322,0.197402 0.56197,0.314921 -0.642089,0.355334 -0.98947,0.03322 -2.099984,-0.137879 -2.46781,-0.380197 z M 56.913199,84.629757 C 47.420889,83.387864 38.779536,77.455276 33.875857,68.813818 32.030702,65.562209 29.903585,59.192245 30.860402,59.78359 c 0.31513,0.194761 0.572963,0.867384 0.572963,1.494717 0,0.627335 0.491949,1.623366 1.093219,2.213402 1.279836,1.255932 4.966894,7.74805 4.778072,8.41316 -0.27205,0.958269 1.452941,3.233193 2.226522,2.93634 0.445325,-0.170884 1.12001,0.06322 1.4993,0.520234 0.379288,0.457015 2.018151,1.683455 3.641918,2.725421 1.623766,1.041972 2.952302,2.266001 2.952302,2.720066 0,0.814544 1.558106,1.348456 3.897913,1.335683 3.210727,-0.01751 7.945739,1.010159 9.225977,2.002394 0.786581,0.609634 1.056437,1.074211 0.599679,1.032389 -0.45676,-0.0418 -2.45254,-0.288259 -4.435068,-0.547639 z M 33.249208,80.479079 c -0.749323,-0.473878 -0.717522,-0.621627 0.210442,-0.977716 0.601236,-0.230715 1.268311,-0.141525 1.482392,0.198206 0.21408,0.33973 0.928948,0.752531 1.588594,0.917341 0.846618,0.211518 0.670248,0.317404 -0.599679,0.360029 -0.98947,0.03322 -2.196257,-0.19083 -2.681749,-0.49786 z M 54.221166,80.196361 C 49.709684,78.93902 45.19082,76.301308 41.885279,72.995769 38.85117,69.961657 35.636851,64.559233 34.798599,61.084921 c -0.357238,-1.480647 -0.278338,-1.612016 0.663284,-1.104376 1.006157,0.542431 3.254101,5.743187 3.467972,8.02337 0.107196,1.142869 2.121723,3.633449 2.573513,3.181657 0.155429,-0.15543 1.375031,0.652487 2.710227,1.795361 1.335195,1.14288 2.648909,2.07796 2.919365,2.07796 0.270455,0 0.491738,0.397851 0.491738,0.884119 0,1.030662 3.355097,2.934906 4.22441,2.397642 0.655006,-0.404819 7.294333,0.910031 7.769169,1.538596 0.164912,0.218308 0.704623,0.551003 1.199358,0.739333 1.785622,0.679724 -3.962768,0.311779 -6.596469,-0.422222 z m 2.425883,-3.393818 c -8.44117,-1.654682 -15.882018,-8.684431 -18.34907,-17.335304 -0.42639,-1.495162 -0.424075,-1.496102 0.859992,-0.349144 0.766823,0.684942 1.155344,1.566543 0.960676,2.179887 -0.388413,1.223782 0.834215,4.166047 1.731159,4.166047 0.861985,0 5.54937,5.174156 5.317515,5.869724 -0.272704,0.818112 2.574789,2.520205 4.177536,2.497123 2.50058,-0.03598 7.673741,1.451223 7.673741,2.206129 0,0.407692 0.742103,0.853679 1.649117,0.991084 1.524354,0.230918 1.5357,0.251643 0.14992,0.273963 -0.824558,0.01325 -2.701322,-0.211501 -4.170586,-0.499509 z M 6.0790681,70.411381 C 4.0818049,66.589567 1.4571977,59.152843 2.5429952,60.392056 c 0.2767997,0.31591 0.8294518,1.721267 1.2281159,3.123016 0.3986641,1.40175 1.0923961,2.548636 1.5416266,2.548636 0.4492305,0 1.1031597,0.8215 1.453176,1.825561 0.3500163,1.004054 1.2030461,2.621347 1.8956213,3.593978 1.168766,1.641381 1.1790439,2.975967 0.02292,2.975967 -0.2695036,0 -1.4419271,-1.821525 -2.6053855,-4.047833 z M 54.87489,72.276772 c -5.409899,-1.893978 -9.93134,-6.209844 -12.026287,-11.479484 -0.960291,-2.415523 -0.486474,-3.10476 0.839478,-1.221143 2.624041,3.727655 3.964253,6.060142 3.658021,6.366374 -0.487455,0.487455 2.762979,3.737097 3.365523,3.364709 0.648173,-0.400592 7.707294,2.158244 7.707294,2.79379 0,0.263721 0.742103,0.591913 1.649117,0.729318 1.396671,0.211573 1.32782,0.259187 -0.449759,0.311041 -1.154382,0.0337 -3.288906,-0.355399 -4.743387,-0.864605 z M 9.0823873,67.712825 C 7.924749,65.321605 6.8242612,62.555586 6.636859,61.566116 l -0.3407313,-1.799037 0.8162638,1.799037 c 0.4489449,0.98947 0.9906151,1.725006 1.203711,1.634527 0.5404038,-0.229461 4.5154055,7.794129 4.1523505,8.381569 -0.668863,1.082241 -1.385146,0.263715 -3.3860657,-3.869387 z m 10.4275237,1.616099 c -1.006755,-0.847124 -2.677103,-3.259999 -3.711884,-5.361939 -2.015978,-4.095033 -2.17045,-6.028533 -0.334994,-4.193076 0.764364,0.764363 0.868292,1.18977 0.366437,1.499933 -0.859674,0.531308 0.832427,4.16184 1.976598,4.24095 1.07628,0.07441 4.780662,4.584078 4.107335,5.000219 -0.315165,0.194782 -1.396737,-0.338956 -2.403492,-1.186087 z m -5.92497,-1.06043 C 12.527614,66.476455 9.8449217,59.901439 9.8449217,59.10207 c 0,-0.176098 0.4722473,0.150968 1.0494383,0.726812 1.599001,1.595271 4.23808,7.368681 3.489019,7.632792 -0.377405,0.133069 -0.171248,0.75454 0.501837,1.512816 0.62831,0.707837 0.857357,1.286971 0.508993,1.286971 -0.348363,0 -1.162534,-0.896838 -1.809268,-1.992967 z m 64.59932,-20.494995 c -0.09128,-0.659647 -0.124392,-1.682901 -0.07358,-2.273897 0.121075,-1.408092 -1.681224,-4.133058 -2.534477,-3.831973 -0.366362,0.129279 -1.678856,-0.670322 -2.916641,-1.77689 -1.237791,-1.106569 -2.519605,-2.011943 -2.848475,-2.011943 -0.328876,0 -0.597952,-0.378385 -0.597952,-0.840855 0,-0.898968 -3.779339,-2.513684 -4.041339,-1.726655 -0.23033,0.691899 -6.922245,0.469207 -8.251331,-0.274586 -1.828092,-1.023052 5.025292,-1.666976 8.480906,-0.796841 7.905592,1.99065 14.469631,8.337461 13.376638,12.933961 -0.318916,1.341176 -0.470029,1.493796 -0.593754,0.599679 z m 1.307282,-6.052215 c -0.384329,-0.843506 -0.568736,-1.744054 -0.409797,-2.001219 0.358158,-0.579514 -2.49136,-3.322525 -3.462306,-3.332892 -0.858003,-0.0092 -6.465008,-3.279272 -7.305818,-4.260889 -0.816894,-0.953695 -3.897913,-1.629813 -3.897913,-0.855382 0,0.763653 -7.166989,0.800879 -8.364229,0.04345 -1.423246,-0.900416 1.857617,-1.415775 7.05393,-1.108035 6.910923,0.409285 12.510743,3.327491 16.815887,8.763176 1.491905,1.883682 1.651641,2.394599 1.019118,3.259627 -0.685877,0.937988 -0.80992,0.894509 -1.448872,-0.507831 z m 1.69125,-4.046181 C 80.042768,36.317204 79.183206,34.887508 79.272654,34.498 c 0.193474,-0.84251 -3.053236,-3.545575 -3.315097,-2.76 -0.197343,0.59204 -6.771222,-2.52714 -7.370823,-3.497317 -0.478382,-0.774032 -4.770092,-1.479761 -4.772641,-0.784813 -0.0012,0.290523 -1.755128,0.570377 -3.897914,0.621899 -2.293004,0.05513 -3.895976,-0.156314 -3.895976,-0.513918 0,-0.334177 -0.418799,-0.446886 -0.930664,-0.250465 -0.511866,0.196421 -0.782788,0.11786 -0.60205,-0.17458 0.556085,-0.899764 8.242714,-1.348224 11.727257,-0.684202 5.465534,1.041525 11.424358,4.352437 15.228644,8.461516 3.522232,3.804435 3.857303,4.443101 2.586793,4.930642 -0.426042,0.163486 -1.707364,-0.81376 -2.84739,-2.171659 z m 10.71639,1.253131 c -1.499725,-1.207937 -4.816262,-6.446549 -4.081278,-6.446549 0.369607,0 0.08734,-0.742103 -0.62727,-1.649117 -0.714607,-0.907015 -1.62862,-1.653665 -2.031142,-1.659224 -1.076256,-0.01487 -9.354525,-5.79386 -9.036551,-6.308351 0.390079,-0.631166 -2.697332,-1.707006 -4.810925,-1.676416 -3.490371,0.05052 -9.600123,-0.885093 -10.020362,-1.534456 -0.45948,-0.709995 -4.179249,-0.53992 -4.671773,0.213603 -0.633797,0.96966 -2.805475,1.193507 -3.889424,0.400905 -1.008303,-0.737289 -0.591482,-0.89979 3.929371,-1.531888 11.577232,-1.61871 22.460506,2.345197 30.543681,11.124625 4.695727,5.100196 8.220256,11.905708 4.695673,9.066868 z m -6.115629,-1.717961 c -0.488552,-0.697512 -0.76143,-1.598772 -0.606389,-2.0028 0.307545,-0.801462 -0.654945,-1.754202 -3.288214,-3.254898 -4.199719,-2.39341 -7.242317,-4.630214 -7.259743,-5.337084 -0.02279,-0.92332 -2.519875,-1.988375 -3.192751,-1.361755 -0.261382,0.243414 -1.871862,0.08029 -3.578842,-0.362493 -1.706981,-0.442785 -3.719431,-0.805064 -4.472112,-0.805064 -0.752682,0 -1.36851,-0.269855 -1.36851,-0.599679 0,-0.952932 -3.588436,-0.694984 -4.615174,0.331753 -1.021008,1.021007 -3.257844,0.959162 -3.606037,-0.0997 -0.464633,-1.41296 8.853471,-1.912524 14.338404,-0.768712 7.126627,1.486167 14.856184,6.706492 19.132057,12.921257 1.653171,2.402808 1.700228,2.60738 0.599757,2.60738 -0.656787,0 -1.593887,-0.570691 -2.082446,-1.268202 z M 31.77204,31.345165 c -0.182483,-0.295264 0.09352,-0.700047 0.613334,-0.899519 1.651237,-0.633639 2.237553,-0.41607 1.446707,0.536842 -0.846865,1.020409 -1.574381,1.148491 -2.060041,0.362677 z m -0.01873,-3.62838 c -0.22155,-0.358476 -0.721491,-0.472856 -1.11098,-0.254177 -0.501069,0.281324 -0.525117,0.197592 -0.08223,-0.286327 0.344262,-0.376158 2.368179,-0.853985 4.497592,-1.061839 3.466281,-0.338346 3.777475,-0.282106 2.97214,0.537138 -1.155624,1.175583 -5.728651,1.951682 -6.276524,1.065205 z m -2.101617,-3.607182 c -0.485183,-0.30684 -0.676954,-0.763087 -0.426157,-1.013885 0.69359,-0.693589 12.675407,-0.608875 12.862712,0.09094 0.08828,0.329823 -0.923681,0.682659 -2.248796,0.784079 -1.409994,0.107916 -2.409299,-0.07863 -2.409299,-0.449759 0,-0.957312 -2.957949,-0.760274 -3.983582,0.265359 -1.019313,1.019313 -2.495436,1.145056 -3.794878,0.323263 z m 14.674768,-3.057149 c -0.98947,-0.232346 -2.945923,-0.454375 -4.347672,-0.493397 -1.40175,-0.03902 -2.548636,-0.340807 -2.548636,-0.67063 0,-0.329824 -1.230276,-0.599679 -2.733947,-0.599679 -1.50367,0 -2.584957,0.241069 -2.40286,0.535708 0.611181,0.988912 -2.783447,1.395907 -3.731919,0.447434 -0.781179,-0.781178 -0.54009,-0.943231 2.042545,-1.372937 4.166961,-0.693313 12.053058,-0.409769 15.221687,0.547292 2.392969,0.722779 2.562739,0.883792 1.499197,1.421867 -0.659647,0.333733 -2.008925,0.416687 -2.998395,0.184342 z"
         id="path4931" />
      <path
         style="fill:#a3a3a3;fill-opacity:1;stroke-width:0.599679"
         d="M 15.044221,98.103693 C 8.4446155,96.005356 4.1147038,88.568737 5.6078363,81.89672 8.1196171,70.672901 21.634183,66.655891 29.464755,74.805594 c 3.453453,3.5942 4.810158,8.122526 3.793975,12.663308 -1.838489,8.215236 -10.295113,13.152748 -18.214509,10.634791 z m 9.982843,-5.829642 c 5.842209,-4.45607 4.914808,-13.141563 -1.74041,-16.29967 -6.396633,-3.035401 -14.085189,2.555454 -13.284408,9.659965 0.816604,7.244883 9.310299,10.998382 15.024818,6.639705 z m -6.786637,0.383255 c 0,-0.545402 -1.079422,-1.988152 -2.398715,-3.206118 -2.071533,-1.91243 -2.398716,-2.560521 -2.398716,-4.751442 0,-3.555089 2.46876,-6.042779 5.996789,-6.042779 7.11904,0 8.204392,9.648577 1.548107,13.762386 -2.407239,1.487756 -2.747465,1.517224 -2.747465,0.237953 z"
         id="path4929" />
    </g>
  </g>
</svg>
