<?xml version="1.0" encoding="UTF-8" standalone="no"?>
<!-- Created with Inkscape (http://www.inkscape.org/) -->

<svg
   width="100mm"
   height="100mm"
   viewBox="0 0 100 100"
   version="1.1"
   id="svg14495"
   inkscape:version="1.1.1 (3bf5ae0d25, 2021-09-20)"
   sodipodi:docname="add_list_type_device_6052.svg"
   xmlns:inkscape="http://www.inkscape.org/namespaces/inkscape"
   xmlns:sodipodi="http://sodipodi.sourceforge.net/DTD/sodipodi-0.dtd"
   xmlns="http://www.w3.org/2000/svg"
   xmlns:svg="http://www.w3.org/2000/svg">
  <sodipodi:namedview
     id="namedview14497"
     pagecolor="#ffffff"
     bordercolor="#666666"
     borderopacity="1.0"
     inkscape:pageshadow="2"
     inkscape:pageopacity="0.0"
     inkscape:pagecheckerboard="true"
     inkscape:document-units="mm"
     showgrid="false"
     width="100mm"
     inkscape:zoom="0.58974467"
     inkscape:cx="378.97757"
     inkscape:cy="272.9995"
     inkscape:window-width="1440"
     inkscape:window-height="890"
     inkscape:window-x="-6"
     inkscape:window-y="-6"
     inkscape:window-maximized="1"
     inkscape:current-layer="layer1" />
  <defs
     id="defs14492" />
  <g
     inkscape:label="Laag 1"
     inkscape:groupmode="layer"
     id="layer1">
    <g
       id="g14511"
       transform="translate(0.4486432,1.3459219)">
      <path
         style="fill:#d0d0d0;fill-opacity:1;stroke-width:0.591371"
         d="m 13.577632,96.219027 c 3.333853,-0.105412 8.789249,-0.105412 12.123102,0 3.333854,0.105412 0.606156,0.191657 -6.061551,0.191657 -6.667706,0 -9.395404,-0.08625 -6.061551,-0.191657 z m 19.367395,-0.74165 c 0.201019,-0.325254 0.482841,-0.591371 0.626272,-0.591371 0.143432,0 0.260785,0.266117 0.260785,0.591371 0,0.325254 -0.281823,0.591371 -0.626272,0.591371 -0.344449,0 -0.461803,-0.266117 -0.260785,-0.591371 z M 11.284559,90.894253 c -0.735589,-0.93795 -0.714672,-0.958867 0.223275,-0.223278 0.569194,0.446396 1.034899,0.912101 1.034899,1.034899 0,0.486722 -0.485625,0.173455 -1.258174,-0.811621 z m 34.352804,-6.061551 c -0.07084,-1.463643 -0.191569,-3.259932 -0.268277,-3.991754 -0.158946,-1.516393 0.578461,-1.791274 1.107427,-0.412812 0.201951,0.526273 0.10281,0.763649 -0.232415,0.556468 -0.765964,-0.473392 -0.741881,0.06407 0.06044,1.348787 0.447637,0.716783 0.463959,1.664449 0.05334,3.096672 L 45.76617,87.49387 Z M 45.426551,71.6747 C 45.20176,68.015593 44.895909,63.292018 44.746882,61.177868 44.574078,58.726402 44.6611,57.762402 44.98711,58.516699 c 0.281153,0.650508 0.717652,3.976969 0.969999,7.392135 0.738349,9.99253 0.802109,12.418788 0.326354,12.418788 -0.246511,0 -0.632121,-2.993815 -0.856912,-6.652922 z m -16.82343,-3.991753 c 0,-0.813135 0.134225,-1.145781 0.298279,-0.739214 0.164053,0.406568 0.164053,1.07186 0,1.478427 -0.164054,0.406568 -0.298279,0.07392 -0.298279,-0.739213 z m 0.566686,-7.697851 c 0.02261,-2.415245 0.248671,-3.981553 0.51293,-3.553974 0.432073,0.69911 0.143903,7.098781 -0.344029,7.640187 -0.115134,0.127754 -0.191139,-1.711043 -0.168901,-4.086213 z m 15.011267,-3.538195 c -0.201019,-0.325254 -0.08367,-0.591371 0.260784,-0.591371 0.344449,0 0.626272,0.266117 0.626272,0.591371 0,0.325254 -0.117353,0.591371 -0.260785,0.591371 -0.143431,0 -0.425253,-0.266117 -0.626271,-0.591371 z m -0.344967,-2.809012 c -0.0271,-0.894448 -0.140523,-2.291562 -0.252042,-3.104697 -0.111519,-0.813135 -0.257319,-3.014474 -0.324001,-4.891865 -0.06668,-1.877391 -0.334317,-3.545129 -0.594747,-3.706083 -0.26043,-0.160955 -0.09409,-1.019959 0.369638,-1.908899 0.46373,-0.888941 0.844786,-1.948901 0.84679,-2.355469 0.002,-0.406567 0.251183,-0.739213 0.553733,-0.739213 0.335989,0 0.329884,0.748046 -0.01568,1.921955 -0.323828,1.100056 -0.400438,5.019884 -0.179148,9.166248 0.212644,3.984361 0.219702,7.244293 0.01568,7.244293 -0.204018,0 -0.393118,-0.731821 -0.420223,-1.62627 z M 30.011296,48.444424 c 0.208687,-3.242106 0.386414,-6.160855 0.394951,-6.486109 0.02239,-0.853071 -0.535343,-3.35528 -1.054514,-4.730967 -0.270104,-0.715713 0.448628,-0.249043 1.820177,1.181833 1.382178,1.441966 2.362556,2.076503 2.512634,1.62627 0.135356,-0.406068 0.480706,-0.738305 0.767444,-0.738305 0.491292,0 0.276429,8.762724 -0.227212,9.266365 -0.129355,0.129355 -0.428029,-0.90472 -0.663719,-2.297946 -0.402043,-2.37658 -0.463553,-2.442797 -0.995265,-1.071405 -0.311706,0.803953 -0.886127,1.664758 -1.276493,1.9129 -0.447778,0.284637 -0.218625,0.45451 0.620829,0.460222 0.731822,0.005 1.330585,0.290878 1.330585,0.635328 0,0.344449 -0.212294,0.495067 -0.471764,0.334706 -0.951764,-0.588223 -1.877579,0.63047 -2.161073,2.844716 -0.590774,4.614281 -0.96429,2.775059 -0.59658,-2.937608 z m 2.046675,-3.233569 c 0,-0.325254 -0.266117,-0.591371 -0.591371,-0.591371 -0.325254,0 -0.591371,0.266117 -0.591371,0.591371 0,0.325254 0.266117,0.59137 0.591371,0.59137 0.325254,0 0.591371,-0.266116 0.591371,-0.59137 z M 44.867186,34.270494 c 0.566271,-3.24671 0.562529,-9.09118 -0.0072,-11.236046 -0.83715,-3.151668 -1.208407,-16.2626988 -0.4605,-16.2626988 0.439559,0 0.669409,1.5702019 0.670889,4.5831238 0.0024,4.792245 1.224717,13.518447 2.269556,16.201892 0.335245,0.861005 0.43341,1.74159 0.218145,1.956855 -0.215265,0.215265 -1.001608,1.905858 -1.74743,3.756874 -1.236915,3.06983 -1.319798,3.157679 -0.943469,1 z M 28.273948,32.235489 c -1.072479,-3.356513 -1.079057,-3.732885 -0.147265,-8.427035 0.536443,-2.702481 0.975146,-7.6413 0.974893,-10.975154 -3.11e-4,-4.1140347 0.214368,-6.0615508 0.668179,-6.0615508 0.484913,0 0.549848,2.0717938 0.236323,7.5399788 -0.237774,4.146988 -0.472011,10.666851 -0.520527,14.488585 -0.04852,3.821735 -0.08839,6.948608 -0.0886,6.948608 -2.12e-4,0 -0.505564,-1.581044 -1.123005,-3.513432 z"
         id="path14527" />
      <path
         style="fill:#b9b9b9;fill-opacity:1;stroke-width:0.591371"
         d="m 23.483094,90.74641 c 0.588701,-0.650508 1.203425,-1.182742 1.366052,-1.182742 0.162627,0 -0.18598,0.532234 -0.774681,1.182742 -0.588702,0.650508 -1.203425,1.182742 -1.366052,1.182742 -0.162627,0 0.185979,-0.532234 0.774681,-1.182742 z m -9.518121,-2.513326 -1.126555,-1.330584 1.330585,1.126555 c 1.250421,1.058684 1.599801,1.534613 1.126554,1.534613 -0.112217,0 -0.710979,-0.598763 -1.330584,-1.330584 z m 32.568511,-3.25254 c 0.446253,-2.38902 0.711221,-2.899355 1.233948,-2.37663 0.531424,0.531423 -0.403152,4.594271 -1.056818,4.594271 -0.362758,0 -0.431232,-0.857298 -0.17713,-2.217641 z m 28.809847,-1.62627 c 0.01206,-0.975761 0.14459,-1.303345 0.294526,-0.727959 0.149937,0.575386 0.140078,1.373736 -0.02188,1.774112 -0.161995,0.400376 -0.284668,-0.07039 -0.272616,-1.046153 z m -28.541678,-5.47018 c -0.480028,-5.245347 -0.436223,-9.159465 0.09244,-8.260179 0.801971,1.364186 1.223145,8.703707 0.499458,8.703707 -0.303222,0 -0.569578,-0.199587 -0.591902,-0.443528 z M 28.230991,64.389082 c 0.180691,-2.579305 0.316578,-5.33351 0.30197,-6.120459 -0.01461,-0.78695 0.149533,-1.254727 0.364754,-1.039506 0.425017,0.425017 0.359443,4.985867 -0.127393,8.860588 -0.53405,4.25049 -0.879847,3.16012 -0.539331,-1.700623 z m 17.778646,2.047923 c -0.147992,-0.45312 -0.423557,-2.553616 -0.612367,-4.667767 -0.863775,-9.6719 -1.018012,-12.685297 -0.630122,-12.310937 0.229966,0.221944 0.762853,4.213697 1.184193,8.870562 0.710196,7.849441 0.726771,10.154883 0.0583,8.108142 z M 29.174493,50.93412 c 0.08968,-2.864521 0.3741,-5.338648 0.632035,-5.498061 0.476801,-0.294679 -0.03926,9.881588 -0.528165,10.415033 -0.146813,0.160186 -0.193554,-2.052451 -0.10387,-4.916972 z m 15.079638,-3.084958 c -0.57066,-1.487117 -0.402316,-1.870835 0.294818,-0.671998 0.345178,0.593589 0.503019,1.20383 0.35076,1.356089 -0.152259,0.15226 -0.44277,-0.155582 -0.645578,-0.684091 z M 44.181382,42.254 c 0.264661,-4.490202 0.721061,-6.948816 1.529544,-8.239601 0.424571,-0.677847 0.51529,-0.347945 0.337883,1.228714 -0.133388,1.185447 -0.453419,2.496596 -0.71118,2.913662 -0.257762,0.417067 -0.674342,2.37444 -0.925736,4.349719 l -0.457078,3.591417 z m -14.44733,-0.147842 c 0.0294,-1.778072 0.172422,-2.179213 0.488872,-1.371225 0.418476,1.068489 0.198318,3.884551 -0.303691,3.884551 -0.12471,0 -0.208041,-1.130997 -0.185181,-2.513326 z m -0.361566,-3.439727 c -0.214392,-0.346894 -0.262973,-0.757546 -0.107958,-0.912561 0.155015,-0.155016 0.439428,0.128806 0.632028,0.630715 0.399876,1.042059 0.05905,1.225355 -0.52407,0.281846 z m -0.688692,-2.129326 c 0.196236,-0.317516 -0.02876,-1.320462 -0.499999,-2.228768 -0.471235,-0.908306 -0.839922,-2.21981 -0.819306,-2.914453 0.03456,-1.164485 0.08538,-1.147682 0.65162,0.215441 1.294826,3.117078 1.591642,4.713535 0.950068,5.11005 -0.351546,0.217267 -0.478618,0.135246 -0.282383,-0.18227 z m 17.862832,-4.99198 C 46.782328,30.7673 47.19195,29.89752 47.456894,29.612281 47.72184,29.327042 47.666765,28.395633 47.334507,27.542483 46.2176,24.674568 45.071714,15.977596 45.1822,11.207031 c 0.0945,-4.0801775 0.134057,-4.242875 0.287595,-1.182742 0.277662,5.533987 1.357017,12.533103 2.269585,14.717185 0.456543,1.092662 0.663219,2.153516 0.45928,2.357456 -0.20394,0.20394 0.08843,0.370799 0.649719,0.370799 0.561286,0 0.870283,0.243088 0.68666,0.540196 -0.196456,0.317872 2.018036,0.441744 5.380703,0.300981 7.111136,-0.297676 7.010496,0.210416 -0.136035,0.68681 -4.908879,0.32723 -5.394165,0.477411 -6.968964,2.156679 -1.575333,1.679837 -1.662961,1.706922 -1.264117,0.39073 z m 22.596087,-3.011236 c -0.418773,-0.266143 0.08152,-0.458433 1.206521,-0.463734 1.057075,-0.005 1.921955,0.240523 1.921955,0.545563 0,0.641495 -2.075753,0.587201 -3.128476,-0.08183 z M 27.317571,25.399931 c -0.132035,-1.195479 -0.106565,-1.417874 0.406367,-3.548225 0.156625,-0.650508 0.426531,-2.247209 0.599792,-3.548225 0.402189,-3.020046 0.784901,-3.446648 0.751582,-0.837776 -0.03247,2.542146 -1.581179,9.532848 -1.757741,7.934226 z"
         id="path14525" />
      <path
         style="fill:#a3a3a3;fill-opacity:1;stroke-width:0.591371"
         d="M 19.545223,96.205207 6.7367901,96.04598 6.0915365,94.195007 C 5.2575206,91.802545 5.2488949,74.339376 6.0805506,71.953685 6.9851571,69.358732 9.0224401,68.865689 18.840373,68.865689 h 8.486631 V 66.20452 c 0,-1.463643 0.222512,-2.661169 0.494472,-2.661169 0.271959,0 0.391862,1.147378 0.266451,2.549731 -0.225089,2.516939 -0.199317,2.556863 2.004171,3.104697 1.44862,0.360157 2.493775,1.073941 2.977371,2.033393 1.009507,2.002849 1.006802,21.559063 -0.0033,23.654834 l -0.712559,1.478427 z m 5.288965,-2.95019 c 4.489273,-2.053949 7.035586,-7.633799 5.904256,-12.938254 -0.807451,-3.785885 -4.571548,-7.549984 -8.357435,-8.357436 -8.427832,-1.797478 -15.7362521,5.345738 -13.8875643,13.57364 0.914105,4.068384 4.1262933,7.573391 7.7814273,8.490773 1.435403,0.360263 1.590199,0.241823 1.590199,-1.21671 0,-1.169696 -0.722443,-2.251745 -2.616605,-3.91905 -3.97771,-3.501324 -4.311206,-7.681162 -0.88613,-11.10624 3.093139,-3.093136 7.470871,-3.082823 10.578624,0.02496 3.269635,3.269637 2.90044,8.100947 -0.944253,12.356564 -1.102646,1.220495 -2.796906,2.547182 -3.765022,2.948191 -0.968116,0.401009 -1.620217,0.95562 -1.449112,1.23247 0.392377,0.634878 3.510179,0.07389 6.051615,-1.088879 z m 22.827736,-7.937598 c 0.199683,-0.998418 0.36306,-2.150272 0.36306,-2.559678 0,-0.757144 2.783853,-0.832733 3.957382,-0.107452 0.332035,0.205211 1.240686,0.236666 2.019227,0.06991 0.778539,-0.166761 2.346936,-0.404805 3.485325,-0.528987 4.292572,-0.468271 5.942431,-1.103339 5.044251,-1.941636 -0.261362,-0.243941 -0.60405,-0.08077 -0.76152,0.362599 -0.241723,0.680591 -0.365846,0.680591 -0.797036,0 -0.374002,-0.590319 -0.513154,-0.608231 -0.519785,-0.06691 -0.005,0.406567 -0.399879,0.739213 -0.877552,0.739213 -0.529036,0 -0.73545,-0.346714 -0.528101,-0.887056 0.264798,-0.690053 -0.166164,-0.896814 -1.940515,-0.931001 -1.254501,-0.02419 -2.870122,-0.154099 -3.590268,-0.288737 -1.023754,-0.191391 -1.239752,-0.02058 -0.990248,0.783159 0.299523,0.964857 0.278998,0.965732 -0.334388,0.01431 -0.508471,-0.788676 -0.973072,-0.892119 -2.093514,-0.466125 -1.869401,0.710745 -2.05739,0.334835 -2.349571,-4.698305 -0.132992,-2.290947 -0.429276,-4.468694 -0.658408,-4.839436 -0.483301,-0.781999 -1.094459,-11.016487 -0.630251,-10.554233 0.468025,0.466057 1.00647,3.450331 1.268188,7.028799 0.128649,1.759015 0.580701,3.418171 1.004559,3.687008 0.597896,0.379235 0.603821,0.490838 0.02643,0.497864 -0.566426,0.0069 -0.586584,0.261474 -0.08438,1.065638 0.487006,0.779823 1.202589,0.993225 2.731836,0.81469 1.476803,-0.172408 1.840786,-0.394633 1.267118,-0.773631 -0.520261,-0.343717 -0.177528,-0.406301 0.969243,-0.176997 2.036555,0.407218 4.925607,0.707664 10.234749,1.064349 3.65608,0.245632 4.549588,0.0059 1.888354,-0.506568 -0.738528,-0.142225 -1.500361,-0.416178 -1.692965,-0.608787 -0.192603,-0.192604 0.442168,-0.17274 1.410603,0.04412 0.968435,0.21688 3.224432,0.465699 5.013329,0.552932 4.732942,0.2308 4.835296,0.25154 4.435281,0.898777 -0.201019,0.325254 -0.06829,0.591371 0.294946,0.591371 0.757511,0 0.618876,8.192852 -0.146642,8.665966 -0.254804,0.157476 -0.323125,0.513103 -0.151823,0.790279 0.171303,0.277169 0.402369,1.284735 0.513482,2.23903 l 0.202018,1.735088 -14.172735,0.05287 -14.17274,0.05287 0.36306,-1.815301 z m 14.99105,0.935986 c -0.159487,-0.159481 -1.054444,-0.417058 -1.988801,-0.572388 -0.966751,-0.160711 -1.390525,-0.07709 -0.983392,0.194053 0.77369,0.515267 3.44976,0.855908 2.972193,0.378335 z m -4.663292,-1.726342 c 0.196706,-0.196707 -0.40083,-0.220114 -1.327858,-0.05204 -0.927028,0.168103 -1.846447,0.466585 -2.043154,0.663287 -0.196706,0.196708 0.40083,0.220114 1.327858,0.05204 0.927028,-0.168103 1.846447,-0.466586 2.043154,-0.663287 z m 9.394259,0.5436 c -0.159487,-0.159481 -1.054444,-0.417058 -1.988804,-0.572388 -0.96675,-0.16071 -1.39052,-0.07709 -0.983391,0.194053 0.773691,0.515267 3.449762,0.855909 2.972195,0.378335 z m 7.09645,0 c -0.159487,-0.159481 -1.054444,-0.417058 -1.988804,-0.572388 -0.966749,-0.16071 -1.39052,-0.07709 -0.983391,0.194053 0.773691,0.515267 3.449762,0.855909 2.972195,0.378335 z M 62.070042,83.24231 c -0.569195,-0.148741 -1.500604,-0.148741 -2.069798,0 -0.569195,0.148748 -0.10349,0.270452 1.034899,0.270452 1.138389,0 1.604093,-0.121704 1.034899,-0.270452 z m 9.461934,0 c -0.569195,-0.148741 -1.500604,-0.148741 -2.069798,0 -0.569195,0.148748 -0.10349,0.270452 1.034899,0.270452 1.138388,0 1.604093,-0.121704 1.034899,-0.270452 z m -1.750837,-1.636145 c 0.176933,-0.176927 0.07775,-0.341464 -0.220398,-0.365633 -0.298151,-0.02419 -1.207384,-0.14038 -2.020519,-0.258246 -0.813135,-0.117866 -1.115668,-0.06588 -0.6723,0.11553 0.680591,0.278471 0.680591,0.412759 0,0.862355 -0.538348,0.355627 -0.241817,0.438702 0.892698,0.250102 0.93436,-0.155329 1.843593,-0.427176 2.020519,-0.604108 z M 62.72065,78.021984 c 0.196708,-0.196708 -0.400831,-0.220114 -1.327858,-0.05204 -0.927029,0.168103 -1.846448,0.466586 -2.043155,0.663288 -0.196706,0.196708 0.40083,0.220114 1.327858,0.05204 0.927026,-0.168104 1.846448,-0.466586 2.043155,-0.663288 z m -4.730968,-0.591371 c 0.196706,-0.196707 -0.40083,-0.220114 -1.327858,-0.05204 -0.927028,0.168103 -1.846447,0.466585 -2.043154,0.663287 -0.196706,0.196708 0.40083,0.220114 1.327858,0.05204 0.927028,-0.168103 1.846447,-0.466586 2.043154,-0.663287 z m 16.942676,0.305638 c -0.201019,-0.325254 -0.68243,-0.587296 -1.069802,-0.582317 -0.423191,0.0053 -0.350251,0.237868 0.182746,0.582317 1.136094,0.734205 1.340815,0.734205 0.887056,0 z m -12.279384,-0.94478 c -0.159487,-0.15948 -1.054444,-0.417058 -1.988801,-0.572387 -0.966751,-0.160711 -1.390525,-0.07709 -0.983392,0.194052 0.77369,0.515267 3.44976,0.855909 2.972193,0.378335 z M 57.989682,75.06513 c 0.196706,-0.196708 -0.40083,-0.220114 -1.327858,-0.05204 -0.927028,0.168103 -1.846447,0.466586 -2.043154,0.663288 -0.196706,0.196707 0.40083,0.220114 1.327858,0.05204 0.927028,-0.168103 1.846447,-0.466585 2.043154,-0.663288 z m 9.394259,0.5436 c -0.159487,-0.159481 -1.054444,-0.417059 -1.988804,-0.572388 -0.96675,-0.160711 -1.39052,-0.07709 -0.983391,0.194052 0.773691,0.515268 3.449762,0.855909 2.972195,0.378336 z m 7.09645,0 c -0.159487,-0.159481 -1.054444,-0.417059 -1.988804,-0.572388 -0.966749,-0.160711 -1.39052,-0.07709 -0.983391,0.194052 0.773691,0.515268 3.449762,0.855909 2.972195,0.378336 z M 62.070042,73.780377 c -0.569195,-0.148742 -1.500604,-0.148742 -2.069798,0 -0.569195,0.148747 -0.10349,0.270451 1.034899,0.270451 1.138389,0 1.604093,-0.121704 1.034899,-0.270451 z m 9.461934,0 c -0.569195,-0.148742 -1.500604,-0.148742 -2.069798,0 -0.569195,0.148747 -0.10349,0.270451 1.034899,0.270451 1.138388,0 1.604093,-0.121704 1.034899,-0.270451 z M 55.515183,72.80866 c 0.725667,-0.725666 -1.504892,-0.725754 -2.48832,-9.5e-5 -1.09092,0.804974 -1.059603,0.836908 0.54086,0.551589 0.934355,-0.166577 1.810712,-0.414746 1.94746,-0.551494 z m -9.855682,6.07543 c 0,-0.344449 0.266117,-0.461801 0.591371,-0.260782 0.325254,0.201018 0.59137,0.482842 0.59137,0.626273 0,0.143431 -0.266116,0.260783 -0.59137,0.260783 -0.325254,0 -0.591371,-0.281824 -0.591371,-0.626274 z M 28.17522,56.169751 c 0.217808,-2.91709 0.54561,-5.445201 0.728448,-5.618023 0.182837,-0.172821 0.192924,2.034732 0.02241,4.905675 -0.170509,2.870943 -0.498311,5.399054 -0.728448,5.618021 -0.230137,0.218973 -0.240225,-1.988582 -0.02242,-4.905673 z m 17.878528,2.248386 c -0.216836,-0.216836 -0.394247,-1.591773 -0.394247,-3.055416 0,-3.359921 0.376996,-3.030279 0.732684,0.640652 0.287975,2.972096 0.279483,3.032684 -0.338437,2.414764 z M 45.3428,51.681931 c -0.212576,-0.343956 -0.523582,-2.938596 -0.691123,-5.765866 -0.23188,-3.912996 -0.08317,-5.634738 0.622766,-7.21029 0.85866,-1.91641 0.896335,-1.938322 0.508379,-0.295685 -0.230453,0.975762 -0.34171,3.237755 -0.247237,5.026652 0.09447,1.788897 0.242497,4.516595 0.328942,6.061551 0.16517,2.951945 0.106047,3.199397 -0.521727,2.183638 z m -16.499348,-4.27894 c 0.222079,-0.583223 0.55275,-0.911434 0.734825,-0.729358 0.182076,0.182076 3.75e-4,0.659257 -0.403778,1.060404 -0.584047,0.579701 -0.651975,0.511774 -0.331047,-0.331046 z m 0.361409,-4.55762 c -0.06594,-1.788897 -0.256825,-3.917832 -0.424186,-4.730967 l -0.304292,-1.478427 0.633939,1.452078 c 0.348667,0.798642 0.53955,2.927577 0.424186,4.730966 l -0.209753,3.27889 z m -1.286486,-7.048084 c 0,-0.298651 -0.178282,-1.007599 -0.396182,-1.575438 -0.249131,-0.649224 -0.165876,-0.890097 0.224303,-0.648953 0.817444,0.505208 1.396101,2.767396 0.707886,2.767396 -0.294804,0 -0.536007,-0.244352 -0.536007,-0.543005 z m 18.327772,-1.472079 c 0.86815,-3.906347 2.453035,-4.893299 8.53356,-5.314084 7.14251,-0.494276 7.240293,-0.997606 0.136035,-0.700218 -3.362667,0.140763 -5.577159,0.01689 -5.380703,-0.300981 0.183623,-0.297108 -0.125374,-0.540196 -0.68666,-0.540196 -0.561285,0 -0.857321,-0.163197 -0.657858,-0.362661 0.199464,-0.199463 -0.0146,-1.33046 -0.475693,-2.513326 -1.660616,-4.260048 -2.869198,-17.8219928 -1.58822,-17.8219928 0.256909,0 0.405231,1.7962889 0.329604,3.9917528 -0.148135,4.300385 0.72571,9.115749 2.033348,11.204868 0.447334,0.714673 0.725392,1.513024 0.617908,1.774112 -0.107485,0.261089 5.70519,0.546273 12.917056,0.633742 12.113244,0.146916 13.135246,0.07932 13.411173,-0.887056 0.164277,-0.57535 0.13821,0.01837 -0.05795,1.319392 -0.19614,1.301016 -0.336401,3.230363 -0.3117,4.287439 l 0.04489,1.921955 -12.508102,0.01967 C 51.25181,31.055483 49.9717,31.159982 48.764198,32.16732 c -0.731822,0.610509 -1.330585,1.349143 -1.330585,1.64141 0,0.292266 -0.382728,1.04796 -0.850506,1.679319 -0.768481,1.037217 -0.800978,0.925067 -0.33696,-1.162841 z m 26.025042,-5.70949 c 0,-0.30504 -0.86488,-0.550543 -1.921955,-0.545563 -1.125,0.0053 -1.625294,0.197591 -1.206521,0.463734 1.052723,0.66903 3.128476,0.723324 3.128476,0.08183 z M 26.735633,21.654582 c 0,-1.355225 0.266117,-2.464045 0.591371,-2.464045 0.3567,0 0.591371,-2.464045 0.591371,-6.209394 0,-3.4151666 0.24032,-6.2093938 0.534044,-6.2093938 0.549244,0 0.381104,10.4759608 -0.20644,12.8623158 -0.180182,0.731822 -0.452317,1.898826 -0.604744,2.593343 -0.488694,2.22668 -0.905602,1.962971 -0.905602,-0.572826 z"
         id="path14523" />
      <path
         style="fill:#8c8c8c;fill-opacity:1;stroke-width:0.591371"
         d="m 59.680781,85.87507 c -0.407133,-0.271144 0.01664,-0.354764 0.983392,-0.194053 0.934357,0.15533 1.829314,0.412907 1.988801,0.572388 0.477567,0.477573 -2.198503,0.136932 -2.972193,-0.378335 z M 54.61867,85.13834 c 0.196707,-0.196702 1.116126,-0.495185 2.043154,-0.663288 0.927028,-0.168103 1.524564,-0.144696 1.327858,0.05204 -0.196707,0.196702 -1.116126,0.495184 -2.043154,0.663287 -0.927028,0.168104 -1.524564,0.144697 -1.327858,-0.05204 z m 9.793076,-0.446012 c -0.407129,-0.271144 0.01662,-0.354763 0.983391,-0.194053 0.93436,0.15533 1.829317,0.412907 1.988804,0.572388 0.477567,0.477574 -2.198504,0.136932 -2.972195,-0.378335 z m 7.09645,0 c -0.407129,-0.271144 0.01662,-0.354763 0.983391,-0.194053 0.93436,0.15533 1.829317,0.412907 1.988804,0.572388 0.477567,0.477574 -2.198504,0.136932 -2.972195,-0.378335 z M 60.000244,83.24231 c 0.569194,-0.148741 1.500603,-0.148741 2.069798,0 0.569194,0.148748 0.10349,0.270452 -1.034899,0.270452 -1.138389,0 -1.604094,-0.121704 -1.034899,-0.270452 z m 9.461934,0 c 0.569194,-0.148741 1.500603,-0.148741 2.069798,0 0.569194,0.148748 0.103489,0.270452 -1.034899,0.270452 -1.138389,0 -1.604094,-0.121704 -1.034899,-0.270452 z m -18.11224,-0.89226 c 0.167748,-0.271422 0.534337,-0.351753 0.814642,-0.178517 0.280305,0.173236 0.67948,0.04015 0.887056,-0.295686 0.207576,-0.335863 0.62514,-0.457561 0.927919,-0.270428 1.076479,0.665298 0.524968,1.238124 -1.192053,1.238124 -0.958408,0 -1.605312,-0.222072 -1.437564,-0.493493 z m -5.099066,-0.410932 c 0,-0.652731 1.534412,-1.288591 1.995905,-0.827097 0.185582,0.185584 0.195894,0.566421 0.02291,0.846311 -0.415169,0.671756 -2.01882,0.656492 -2.01882,-0.01921 z m 20.61705,0.02105 c 0.680591,-0.449596 0.680591,-0.583884 0,-0.862355 -0.443368,-0.181409 -0.140835,-0.233396 0.6723,-0.11553 0.813135,0.117866 1.722368,0.234076 2.020519,0.258246 1.021351,0.0828 -0.100616,0.687208 -1.800121,0.969741 -1.134515,0.1886 -1.431046,0.105525 -0.892698,-0.250102 z m -7.606892,-0.48538 c 0.487881,-0.202213 1.082569,-0.660401 1.321529,-1.018198 0.282116,-0.422416 0.440824,-0.339477 0.452584,0.236513 0.01585,0.776363 0.08677,0.778498 0.568272,0.01715 0.302587,-0.47846 0.74204,-0.678048 0.97656,-0.443528 0.653796,0.65379 -0.05529,1.08005 -2.228286,1.339562 -1.087743,0.129877 -1.57854,0.07072 -1.090659,-0.131498 z M 46.628387,79.214679 c -0.211027,-0.549928 0.003,-0.887057 0.563002,-0.887057 0.496868,0 0.752975,0.243391 0.569126,0.540862 -0.183849,0.297471 3.4e-5,0.675641 0.408627,0.840368 0.47352,0.190906 0.390581,0.316436 -0.22873,0.346194 -0.534396,0.02567 -1.124807,-0.352487 -1.312025,-0.840367 z m 5.831879,0.295685 c -0.201019,-0.325254 -0.08366,-0.591371 0.260784,-0.591371 0.344449,0 0.626272,0.266117 0.626272,0.591371 0,0.325254 -0.117353,0.591371 -0.260785,0.591371 -0.143431,0 -0.425253,-0.266117 -0.626271,-0.591371 z m 6.889371,-0.877104 c 0.196707,-0.196701 1.116126,-0.495184 2.043155,-0.663287 0.927027,-0.168103 1.524566,-0.144697 1.327858,0.05204 -0.196707,0.196701 -1.116129,0.495184 -2.043155,0.663287 -0.927028,0.168103 -1.524564,0.144697 -1.327858,-0.05204 z M 54.61867,78.04189 c 0.196707,-0.196702 1.116126,-0.495185 2.043154,-0.663288 0.927028,-0.168103 1.524564,-0.144696 1.327858,0.05204 -0.196707,0.196702 -1.116126,0.495184 -2.043154,0.663287 -0.927028,0.168103 -1.524564,0.144697 -1.327858,-0.05204 z m 19.426632,-0.305639 c -0.532997,-0.344449 -0.605937,-0.576876 -0.182746,-0.582317 0.387372,-0.0047 0.868783,0.257063 1.069802,0.582317 0.453759,0.734205 0.249038,0.734205 -0.887056,0 z M 59.680781,76.413136 c -0.407133,-0.271144 0.01664,-0.354763 0.983392,-0.194052 0.934357,0.155329 1.829314,0.412907 1.988801,0.572387 0.477567,0.477574 -2.198503,0.136932 -2.972193,-0.378335 z m -5.062111,-0.73673 c 0.196707,-0.196702 1.116126,-0.495184 2.043154,-0.663287 0.927028,-0.168103 1.524564,-0.144697 1.327858,0.05204 -0.196707,0.196702 -1.116126,0.495185 -2.043154,0.663288 -0.927028,0.168103 -1.524564,0.144696 -1.327858,-0.05204 z m 9.793076,-0.446012 c -0.407129,-0.271143 0.01662,-0.354763 0.983391,-0.194052 0.93436,0.155329 1.829317,0.412907 1.988804,0.572388 0.477567,0.477573 -2.198504,0.136932 -2.972195,-0.378336 z m 7.09645,0 c -0.407129,-0.271143 0.01662,-0.354763 0.983391,-0.194052 0.93436,0.155329 1.829317,0.412907 1.988804,0.572388 0.477567,0.477573 -2.198504,0.136932 -2.972195,-0.378336 z M 60.000244,73.780377 c 0.569194,-0.148742 1.500603,-0.148742 2.069798,0 0.569194,0.148747 0.10349,0.270451 -1.034899,0.270451 -1.138389,0 -1.604094,-0.121704 -1.034899,-0.270451 z m 9.461934,0 c 0.569194,-0.148742 1.500603,-0.148742 2.069798,0 0.569194,0.148747 0.103489,0.270451 -1.034899,0.270451 -1.138389,0 -1.604094,-0.121704 -1.034899,-0.270451 z m -16.706227,-0.80051 c 0.686528,-0.49707 0.400082,-0.595315 -1.267119,-0.43458 -1.583089,0.152627 -2.329104,-0.07242 -2.814022,-0.848901 -0.502207,-0.804164 -0.482049,-1.058749 0.08438,-1.065639 0.58512,-0.0071 0.58839,-0.108043 0.01529,-0.472073 -0.400912,-0.254662 -0.872657,-1.647701 -1.048322,-3.095643 -0.175664,-1.447942 -0.431168,-3.430974 -0.567787,-4.406736 -0.136618,-0.975762 -0.394161,-3.503873 -0.572318,-5.618023 -0.270004,-3.20408 -0.210086,-3.597822 0.35997,-2.365484 0.37614,0.813135 0.733491,2.276778 0.794113,3.25254 0.06062,0.975762 0.175736,2.040229 0.255809,2.365483 0.08007,0.325254 0.185893,1.256663 0.235157,2.069798 0.04926,0.813135 0.38423,1.424559 0.744372,1.358722 0.362239,-0.06622 0.585646,0.5103 0.500019,1.290348 -0.110253,1.004378 0.08417,1.318354 0.675781,1.091333 0.456811,-0.175294 0.834641,-0.622891 0.839621,-0.994662 0.005,-0.371765 0.267022,-0.276767 0.582315,0.211113 0.382174,0.591371 0.576279,0.64065 0.582315,0.147843 0.01409,-1.150352 1.186575,-0.869262 1.233362,0.295686 0.03554,0.884951 0.115205,0.863531 0.549807,-0.147843 0.432505,-1.006496 0.514435,-1.029074 0.549806,-0.151551 0.02987,0.741071 0.415915,0.961404 1.372149,0.783159 0.731821,-0.136418 3.725636,-0.318749 6.652922,-0.405178 l 5.322338,-0.157139 -5.618023,-0.364977 -5.618024,-0.364976 7.983507,-0.10414 c 5.715576,-0.07456 7.731512,0.07212 7.09645,0.516326 -0.670496,0.468992 -0.345662,0.567958 1.330585,0.405378 l 2.21764,-0.215093 v 3.466651 c 0,2.947428 -0.155004,3.45088 -1.034899,3.361376 -0.569194,-0.0579 -1.301016,-0.04181 -1.62627,0.03572 -0.325253,0.07753 -4.317007,0.192053 -8.870562,0.254484 -4.553556,0.06243 -9.077543,0.301481 -10.053305,0.531235 -1.354306,0.318873 -1.564209,0.265744 -0.887056,-0.224538 z m 2.759232,-0.960699 c -0.136748,-0.136749 -1.013105,-0.384918 -1.94746,-0.551495 -1.600463,-0.285319 -1.63178,-0.253385 -0.54086,0.551589 0.983428,0.72566 3.213987,0.725571 2.48832,-9.4e-5 z m 11.868758,0.04134 c -0.159487,-0.159481 -1.054444,-0.417059 -1.988804,-0.572388 -0.96675,-0.160711 -1.39052,-0.07709 -0.983391,0.194052 0.773691,0.515268 3.449762,0.855909 2.972195,0.378336 z m -4.730967,-4.730967 c -0.159487,-0.159481 -1.054444,-0.417059 -1.988801,-0.572388 -0.966751,-0.160711 -1.390525,-0.07709 -0.983392,0.194052 0.77369,0.515268 3.44976,0.855909 2.972193,0.378336 z m 7.252732,-0.237962 c 0,-0.325254 -0.266117,-0.591371 -0.591371,-0.591371 -0.325254,0 -0.591371,0.266117 -0.591371,0.591371 0,0.325254 0.266117,0.591371 0.591371,0.591371 0.325254,0 0.591371,-0.266117 0.591371,-0.591371 z M 27.578591,56.151215 c 0.620039,-9.721935 0.93535,-12.917267 1.310143,-13.276894 0.317859,-0.304998 0.134007,3.283455 -0.74083,14.459636 -0.203679,2.602032 -0.508445,4.864025 -0.677258,5.026652 -0.168813,0.162627 -0.120238,-2.6316 0.107945,-6.209394 z m 18.21383,-4.763434 c -0.07247,-0.875589 0.12196,-1.358237 0.462388,-1.147841 0.692502,0.42799 0.797418,2.658736 0.125045,2.658736 -0.254313,0 -0.518659,-0.679903 -0.587433,-1.510895 z m -0.225468,-5.733398 c -0.187454,-5.090709 -0.06925,-6.278798 0.928058,-9.327883 1.725419,-5.275165 1.698076,-5.26622 16.166402,-5.288872 10.025758,-0.0157 12.56663,0.138193 12.56663,0.761102 0,0.564283 -0.901858,0.753013 -3.252539,0.680652 -2.025723,-0.06236 -3.255958,0.145023 -3.261594,0.549808 -0.005,0.357463 -0.267022,0.250758 -0.582317,-0.237123 -0.393912,-0.60954 -0.576096,-0.652174 -0.582317,-0.136278 -0.0062,0.514573 -0.520702,0.633155 -1.635324,0.376911 -0.894448,-0.205627 -5.085789,-0.322338 -9.314091,-0.259356 -8.615202,0.128326 -8.15785,-0.106588 -9.822833,5.045375 -0.648846,2.007728 -0.860669,4.143262 -0.659903,6.652922 0.162622,2.032837 0.126184,3.696068 -0.08097,3.696068 -0.207157,0 -0.418296,-1.130997 -0.469198,-2.513326 z M 28.280561,39.825316 c -0.650601,-2.085403 -0.803511,-3.485024 -0.380743,-3.485024 0.530623,0 1.355185,3.591462 0.92364,4.023007 -0.157229,0.15723 -0.401533,-0.08486 -0.542897,-0.537983 z M 62.364379,24.529982 C 54.222992,24.336465 49.194539,23.991686 49.17752,23.625818 49.162391,23.300564 48.81841,22.502214 48.413119,21.851706 46.577958,18.906205 45.622609,7.4737637 47.16858,6.9585937 c 0.404118,-0.134666 0.580002,1.2982562 0.50207,4.0903773 -0.06597,2.36371 0.04655,4.563772 0.250059,4.889026 0.203507,0.325254 0.460405,1.250031 0.570885,2.05506 0.385307,2.807589 0.612128,2.8533 14.013685,2.824181 l 12.660871,-0.02751 0.239553,-1.834494 c 0.131757,-1.008972 0.212207,-0.03921 0.178789,2.155025 -0.03341,2.194236 -0.06076,3.931695 -0.06076,3.861019 0,-0.07068 -5.92171,-0.269259 -13.15935,-0.441295 z m -5.468832,-4.748074 c 0,-0.325254 0.266117,-0.591371 0.591371,-0.591371 0.325254,0 0.591371,0.266117 0.591371,0.591371 0,0.325254 -0.266117,0.591371 -0.591371,0.591371 -0.325254,0 -0.591371,-0.266117 -0.591371,-0.591371 z m -29.867738,-6.79823 c 0.0019,-3.4137731 0.203098,-6.2080002 0.447038,-6.2093943 0.243941,-0.00139 0.443528,2.7916927 0.443528,6.2068593 0,3.415167 -0.201167,6.209394 -0.447038,6.209394 -0.245871,0 -0.445459,-2.793086 -0.443528,-6.206859 z"
         id="path14521" />
      <path
         style="fill:#767676;fill-opacity:1;stroke-width:0.591371"
         d="m 48.966214,82.028581 c -0.57265,-0.572648 -0.396651,-2.02557 0.200649,-1.656418 0.30278,0.187133 0.71766,0.06978 0.921958,-0.260783 0.204296,-0.330559 0.770624,-0.601016 1.258505,-0.601016 0.487881,0 0.719904,0.270457 0.515607,0.601016 -0.204297,0.330559 -0.660295,0.422499 -1.013329,0.204313 -0.395879,-0.244662 -0.470615,-0.119587 -0.195005,0.32636 0.245781,0.397679 0.885661,0.556089 1.421956,0.352019 0.697409,-0.265378 0.794315,-0.188718 0.340299,0.26921 -0.761376,0.767936 -2.960315,1.255628 -3.45064,0.765299 z m 2.015624,-0.51208 c 0,-0.489436 -1.148282,-0.76621 -1.41155,-0.340234 -0.170794,0.276354 0.07693,0.502459 0.550508,0.502459 0.473573,0 0.861042,-0.073 0.861042,-0.162225 z M 25.233151,42.549686 c 1.35e-4,-14.311175 0.07727,-20.081129 0.171414,-12.82212 0.09414,7.259008 0.09403,18.968151 -2.45e-4,26.020317 -0.09428,7.052168 -0.171304,1.112977 -0.171169,-13.198197 z m 34.44763,24.401516 c -0.407133,-0.271143 0.01664,-0.354763 0.983392,-0.194052 0.934357,0.155329 1.829314,0.412907 1.988801,0.572388 0.477567,0.477573 -2.198503,0.136932 -2.972193,-0.378336 z m 9.042183,0.140374 c 0,-0.325254 0.266117,-0.591371 0.591371,-0.591371 0.325254,0 0.591371,0.266117 0.591371,0.591371 0,0.325254 -0.266117,0.591371 -0.591371,0.591371 -0.325254,0 -0.591371,-0.266117 -0.591371,-0.591371 z M 49.475492,65.009679 c 0.08563,-0.780048 -0.13778,-1.35657 -0.500019,-1.290348 -0.360142,0.06584 -0.668635,-0.552263 -0.685541,-1.373553 -0.01691,-0.821296 -0.200479,-1.76791 -0.407941,-2.10359 -0.207462,-0.33568 -0.294335,-1.127356 -0.193052,-1.75928 0.101283,-0.631923 -0.114319,-1.53268 -0.479115,-2.001683 -0.530908,-0.682564 -0.48625,-0.74842 0.223789,-0.33001 0.748763,0.44123 0.767665,0.375336 0.121237,-0.422661 -0.456807,-0.563916 -0.863805,-3.174909 -1.008653,-6.470756 -0.176437,-4.014614 -0.09083,-5.04029 0.313089,-3.751258 0.305757,0.975762 0.644773,3.16723 0.753368,4.869929 0.108594,1.702698 0.378853,3.277223 0.600573,3.498944 0.22172,0.22172 0.403128,1.024067 0.403128,1.782993 0,1.330585 0.168963,1.379866 4.730967,1.379866 2.602032,0 4.730967,0.223412 4.730967,0.496471 0,0.273059 -1.929348,0.444623 -4.287439,0.381254 -2.493126,-0.067 -2.975457,-0.01455 -1.152511,0.125312 2.104805,0.161494 3.249197,0.538314 3.482679,1.146758 0.235286,0.613144 0.480071,0.692131 0.756887,0.244233 0.518943,-0.839668 3.565867,-1.421359 3.565867,-0.680763 0,0.304511 -0.332646,0.687882 -0.739214,0.851935 -0.406567,0.164054 0.125667,0.319289 1.182742,0.344967 1.439231,0.03496 1.932393,-0.21324 1.963523,-0.988212 0.03554,-0.884951 0.115205,-0.863529 0.549803,0.147843 0.476734,1.109413 0.510821,1.113613 0.549804,0.06774 0.03856,-1.03479 0.435089,-1.09038 5.511748,-0.772721 3.008599,0.188255 5.137534,0.202125 4.730966,0.03082 -0.974945,-0.410782 -0.950173,-1.395638 0.03511,-1.395638 0.570206,0 0.765062,1.130186 0.739214,4.287438 l -0.03513,4.287439 -2.069798,0.166826 c -1.556299,0.125441 -1.849725,0.01762 -1.182742,-0.434469 0.618687,-0.419382 -1.528273,-0.569797 -7.09645,-0.497159 l -7.983506,0.10414 5.618023,0.364977 5.618023,0.364976 -5.322338,0.157139 c -2.927285,0.08643 -5.9211,0.26876 -6.652922,0.405178 -0.956233,0.178245 -1.342278,-0.04211 -1.372149,-0.783159 -0.03535,-0.877523 -0.117283,-0.854945 -0.549788,0.151551 -0.434602,1.011374 -0.514264,1.032794 -0.549807,0.147843 -0.04679,-1.164948 -1.219269,-1.446038 -1.233362,-0.295686 -0.006,0.492807 -0.200141,0.443528 -0.582315,-0.147843 -0.315293,-0.48788 -0.577334,-0.582878 -0.582315,-0.211113 -0.005,0.371771 -0.38281,0.819368 -0.839621,0.994662 -0.591612,0.227021 -0.786034,-0.08696 -0.675781,-1.091333 z m 1.506346,-5.96488 c 0,-0.127828 -0.547939,-0.232415 -1.217642,-0.232415 -0.669703,0 -1.060357,0.254495 -0.868118,0.565543 0.315564,0.510593 2.08576,0.227865 2.08576,-0.333128 z m 4.730967,0.358956 c 0,-0.325254 -0.266117,-0.591371 -0.591371,-0.591371 -0.325254,0 -0.59137,0.266117 -0.59137,0.591371 0,0.325254 0.266116,0.591371 0.59137,0.591371 0.325254,0 0.591371,-0.266117 0.591371,-0.591371 z m 18.84806,0.320262 c -0.499224,-0.495087 -8.203361,-0.990745 -8.203077,-0.527759 1.72e-4,0.276751 1.895409,0.557775 4.211631,0.624499 2.316228,0.06672 4.112381,0.02319 3.991446,-0.09674 z M 62.957098,57.206071 c 0.894449,-0.135498 2.358091,-0.135498 3.25254,0 0.894448,0.135497 0.162627,0.246359 -1.62627,0.246359 -1.788897,0 -2.520718,-0.110862 -1.62627,-0.246359 z M 27.477158,45.454948 c 0.08004,-4.850434 0.23756,-8.153679 0.350038,-7.340544 0.112479,0.813135 0.408804,1.744544 0.6585,2.069798 0.249695,0.325254 0.374746,1.256663 0.277891,2.069798 -0.09686,0.813135 -0.353887,3.740421 -0.571181,6.50508 -0.217293,2.764658 -0.499861,5.136494 -0.62793,5.270746 -0.128067,0.134251 -0.167361,-3.724443 -0.08732,-8.574878 z m 18.221461,-3.940161 c 0.05495,-1.038458 1.914254,-6.452523 2.623705,-7.639927 0.496334,-0.83071 1.807102,-1.005137 8.277537,-1.101516 4.228302,-0.06298 8.419643,0.05373 9.314091,0.259356 1.114622,0.256244 1.629121,0.137662 1.635324,-0.376911 0.0062,-0.515896 0.188405,-0.473262 0.582317,0.136278 0.315295,0.487881 0.577338,0.601139 0.582317,0.251685 0.0053,-0.378165 1.265871,-0.613164 3.113751,-0.580515 3.011012,0.0532 3.104697,0.106041 3.104697,1.75114 v 1.696286 l -12.867467,0.108833 c -14.300836,0.120956 -14.135675,0.07339 -14.974135,4.312549 -0.359417,1.817172 -1.475907,2.765728 -1.392137,1.182742 z m 3.569818,-21.364041 c -0.316783,-0.3817 -0.666362,-1.352661 -0.776843,-2.157689 -0.11048,-0.805029 -0.363875,-1.729806 -0.563099,-2.05506 -0.199225,-0.325254 -0.32346,-2.454189 -0.276079,-4.730966 L 47.738563,7.0674346 61.778987,6.9088888 75.819414,6.7503431 v 4.3634459 c 0,2.399895 -0.163839,5.558794 -0.364089,7.019774 l -0.364089,2.656328 -12.623414,0.02743 c -8.96845,0.01949 -12.79018,-0.17351 -13.199385,-0.666572 z m 8.809852,-0.368838 c 0,-0.325254 -0.266117,-0.591371 -0.591371,-0.591371 -0.325254,0 -0.591371,0.266117 -0.591371,0.591371 0,0.325254 0.266117,0.591371 0.591371,0.591371 0.325254,0 0.591371,-0.266117 0.591371,-0.591371 z M 26.938361,11.798401 c 0.0021,-2.6020313 0.106116,-3.5929353 0.231041,-2.2020086 0.124924,1.3909266 0.123167,3.5198616 -0.0039,4.7309666 -0.127075,1.211105 -0.229286,0.07307 -0.227138,-2.528958 z M 25.008208,7.0181537 c 0.02837,-0.6889133 0.168506,-0.8290424 0.357287,-0.3572866 0.17083,0.4268959 0.14982,0.9369532 -0.04669,1.133461 -0.196508,0.1965072 -0.336278,-0.1527712 -0.3106,-0.7761744 z"
         id="path14519" />
      <path
         style="fill:#606060;fill-opacity:1;stroke-width:0.591371"
         d="m 51.340429,81.245056 c -0.615911,-0.609473 -1.347732,-0.967288 -1.62627,-0.79514 -0.278538,0.172142 -0.506433,0.03117 -0.506433,-0.313278 0,-0.849824 0.662003,-0.758883 2.034924,0.279546 0.718414,0.543382 1.284789,0.646664 1.513837,0.276052 0.598965,-0.969144 5.192721,-1.188489 5.547148,-0.264869 0.210858,0.549484 -0.0061,0.680059 -0.698992,0.420583 -0.83713,-0.313503 -0.883007,-0.226252 -0.274957,0.522926 0.621946,0.766304 0.472819,0.899221 -1.008885,0.899221 -0.956291,0 -1.6157,-0.199038 -1.465354,-0.442304 0.481062,-0.778375 -1.18922,-0.971635 -1.803811,-0.208713 -0.459424,0.570312 -0.841229,0.486858 -1.711207,-0.374024 z M 47.76732,81.111128 c 0.222078,-0.583222 0.552749,-0.911433 0.734825,-0.729355 0.182075,0.182077 3.75e-4,0.659254 -0.403779,1.060404 -0.584047,0.579698 -0.651974,0.511773 -0.331046,-0.331049 z m 1.128758,-21.733201 c -0.192239,-0.311048 0.198415,-0.565543 0.868118,-0.565543 1.427903,0 1.571955,0.328868 0.349525,0.797959 -0.477465,0.18322 -1.025404,0.07863 -1.217643,-0.232416 z m 5.633986,0.02583 c 0,-0.325254 0.266116,-0.591371 0.59137,-0.591371 0.325254,0 0.591371,0.266117 0.591371,0.591371 0,0.325254 -0.266117,0.591371 -0.591371,0.591371 -0.325254,0 -0.59137,-0.266117 -0.59137,-0.591371 z m 1.590954,-0.215688 C 55.887536,58.579625 54.743144,58.202805 52.638339,58.041311 50.815393,57.901444 51.297724,57.849 53.79085,57.915999 c 2.358091,0.06337 4.287439,-0.108195 4.287439,-0.381254 0,-0.273059 -2.128935,-0.496471 -4.730967,-0.496471 -4.562004,0 -4.730967,-0.04928 -4.730967,-1.379866 0,-0.758926 -0.184755,-1.56462 -0.410567,-1.790432 -0.225812,-0.225812 -0.45551,-1.293267 -0.51044,-2.372121 -0.05493,-1.078853 -0.320396,-3.266974 -0.589926,-4.862489 -0.26953,-1.595515 -0.43439,-3.6688 -0.366355,-4.607301 0.177675,-2.450943 1.847876,-5.674695 2.979568,-5.751041 0.532135,-0.0359 6.503229,-0.130738 13.269096,-0.210754 l 12.301584,-0.145484 -0.178481,2.132709 -0.178476,2.132709 H 67.09751 c -4.822398,0 -7.838641,-0.227378 -7.844717,-0.591371 -0.0054,-0.325254 -0.267841,-0.192195 -0.583134,0.295686 -0.393914,0.609539 -0.576092,0.652174 -0.582315,0.136277 -0.0062,-0.513737 -0.522515,-0.633814 -1.635325,-0.380319 -0.894449,0.203754 -2.823796,0.440605 -4.287439,0.526337 -1.463643,0.08573 -2.794227,0.22186 -2.956854,0.302507 -0.162627,0.08065 -0.474752,0.121957 -0.693611,0.0918 -0.810945,-0.111739 -0.102747,7.701549 0.746816,8.239358 0.704514,0.445986 0.696261,0.532319 -0.0532,0.556593 -0.639617,0.02072 -0.513202,0.340545 0.453194,1.146573 1.15534,0.963619 1.201958,1.144481 0.337892,1.31091 -0.551298,0.106187 2.17205,0.199356 6.051885,0.207043 3.879834,0.0077 6.189364,-0.0757 5.132289,-0.185311 -1.057076,-0.109608 -1.921956,-0.475018 -1.921956,-0.812021 0,-0.85166 5.328051,-0.259945 5.893194,0.654477 0.329335,0.53287 0.545185,0.468622 0.818499,-0.243623 0.214585,-0.559196 0.127405,-0.816676 -0.206613,-0.61024 -0.334018,0.206435 -0.421198,-0.05105 -0.206613,-0.610241 0.292007,-0.760961 0.473487,-0.801864 0.85058,-0.191711 0.294834,0.477049 1.799837,0.808981 3.909458,0.862241 4.827561,0.121879 5.569206,0.337879 2.83871,0.826767 l -2.365483,0.423533 2.217641,0.08392 c 2.179012,0.08246 2.21764,0.125121 2.21764,2.449402 0,1.708405 -0.246406,2.365484 -0.887056,2.365484 -0.487881,0 -0.887056,0.294588 -0.887056,0.654641 0,0.360052 0.372924,0.511536 0.828717,0.336631 0.534032,-0.204925 0.776488,0.03544 0.681839,0.675943 -0.121669,0.823297 -0.873165,0.996123 -4.376948,1.00659 -2.32653,0.007 -4.230058,-0.215889 -4.230058,-0.495199 0,-0.279311 1.929347,-0.324373 4.287438,-0.100139 2.358091,0.224234 4.133659,0.248944 3.945709,0.05491 -0.187949,-0.194034 -2.64953,-0.524097 -5.47018,-0.733473 -4.758513,-0.353224 -5.131449,-0.300135 -5.170018,0.735976 -0.03905,1.049214 -0.07226,1.045223 -0.549804,-0.06608 -0.434598,-1.011372 -0.514262,-1.032794 -0.549803,-0.147843 -0.03111,0.774972 -0.524292,1.023173 -1.963523,0.988212 -1.057075,-0.02568 -1.589309,-0.180913 -1.182742,-0.344967 0.406568,-0.164053 0.739214,-0.547424 0.739214,-0.851935 0,-0.740596 -3.046924,-0.158905 -3.565867,0.680763 -0.276816,0.447898 -0.521601,0.368911 -0.756887,-0.244233 z m 10.08862,-1.981996 c -0.894449,-0.135498 -2.358091,-0.135498 -3.25254,0 -0.894448,0.135497 -0.162627,0.246359 1.62627,0.246359 1.788897,0 2.520718,-0.110862 1.62627,-0.246359 z m 1.330584,-5.490137 c 0,-0.325254 -0.266117,-0.591371 -0.591371,-0.591371 -0.325254,0 -0.59137,0.266117 -0.59137,0.591371 0,0.325254 0.266116,0.591371 0.59137,0.591371 0.325254,0 0.591371,-0.266117 0.591371,-0.591371 z M 54.530064,51.378007 c 0,-0.185859 0.399175,-0.737101 0.887056,-1.224982 0.683161,-0.683161 0.889138,-0.707435 0.896112,-0.105602 0.0075,0.643768 0.09691,0.642867 0.507695,-0.0051 0.274253,-0.432612 1.140019,-0.698729 1.923926,-0.591371 1.410351,0.193152 1.41325,0.207117 0.276693,1.332764 -0.896374,0.887769 -1.067731,0.926848 -0.780356,0.177959 0.259217,-0.675509 0.114534,-0.862251 -0.488704,-0.630768 -0.471316,0.180862 -0.861014,0.633014 -0.865995,1.004783 -0.005,0.371741 -0.267022,0.27674 -0.582315,-0.211141 -0.382173,-0.591371 -0.576278,-0.640652 -0.582315,-0.147843 -0.005,0.406568 -0.275173,0.739214 -0.600427,0.739214 -0.325254,0 -0.59137,-0.152067 -0.59137,-0.337927 z m -4.64236,-1.130545 c 0.196706,-0.196707 1.116125,-0.495186 2.043153,-0.663289 0.927029,-0.168102 1.524564,-0.144699 1.327858,0.05201 -0.196707,0.196707 -1.116126,0.495187 -2.043154,0.663289 -0.927028,0.168102 -1.524564,0.144699 -1.327857,-0.05201 z m 14.104293,-0.305641 c 0,-0.325254 0.266117,-0.591371 0.591371,-0.591371 0.325254,0 0.591371,0.266117 0.591371,0.591371 0,0.325254 -0.266117,0.591371 -0.591371,0.591371 -0.325254,0 -0.591371,-0.266117 -0.591371,-0.591371 z m 8.870563,0 -2.069798,-0.435673 1.887053,-0.07785 c 1.037879,-0.04282 2.051524,0.188268 2.252543,0.513522 0.201019,0.325254 0.283255,0.556339 0.182745,0.513523 -0.100509,-0.04282 -1.114154,-0.273902 -2.252543,-0.513522 z M 27.496145,42.549686 c 0.0044,-1.62627 0.119287,-2.221374 0.255216,-1.322453 0.135929,0.89892 0.132297,2.229504 -0.0081,2.956854 -0.140369,0.727349 -0.251584,-0.0081 -0.247144,-1.634401 z M 25.164249,12.389772 c 0.0021,-2.6020315 0.106116,-3.5929354 0.231041,-2.202009 0.124924,1.390927 0.123166,3.519862 -0.0039,4.730967 -0.127075,1.211105 -0.229286,0.07307 -0.227138,-2.528958 z"
         id="path14517" />
      <path
         style="fill:#494949;fill-opacity:1;stroke-width:0.591371"
         d="m 57.585176,81.357718 c -0.649142,-0.411494 -0.640417,-0.556959 0.04928,-0.821621 0.478065,-0.183449 0.838079,0.03525 0.838079,0.509075 0,0.45687 -0.02218,0.826601 -0.04928,0.821621 -0.0271,-0.0047 -0.40424,-0.234064 -0.838079,-0.509075 z M 49.998812,51.818553 c 0.864066,-0.166429 0.817448,-0.347291 -0.337892,-1.31091 -0.966396,-0.806028 -1.092811,-1.125858 -0.453194,-1.146573 0.749466,-0.02427 0.757719,-0.110607 0.0532,-0.556593 -0.849563,-0.537809 -1.557761,-8.351097 -0.746816,-8.239358 0.218859,0.03016 0.530984,-0.01115 0.693611,-0.0918 0.162627,-0.08065 1.493211,-0.216774 2.956854,-0.302507 1.463643,-0.08573 3.39299,-0.322583 4.287439,-0.526337 1.11281,-0.253495 1.629129,-0.133418 1.635325,0.380319 0.0062,0.515897 0.188401,0.473262 0.582315,-0.136277 0.315293,-0.487881 0.57788,-0.62094 0.583527,-0.295686 0.0063,0.361427 3.000985,0.60613 7.701816,0.629326 4.648251,0.02294 7.397115,-0.170366 6.947401,-0.48855 -0.555386,-0.392944 -0.519135,-0.465474 0.142899,-0.285916 0.681868,0.184937 0.926187,1.399582 1.056229,5.251101 l 0.169168,5.010514 -1.94328,-0.09959 c -1.259898,-0.06457 -1.423371,-0.0077 -0.464859,0.161761 3.243811,0.573436 2.217309,1.201993 -1.777253,1.088266 -2.647821,-0.07538 -4.407357,-0.39939 -4.694822,-0.864516 -0.347927,-0.56296 -0.550087,-0.508609 -0.830988,0.223411 -0.214585,0.559196 -0.127405,0.816676 0.206613,0.610241 0.334018,-0.206436 0.421198,0.05105 0.206613,0.61024 -0.273314,0.712245 -0.489164,0.776493 -0.818499,0.243623 -0.565143,-0.914422 -5.893194,-1.506137 -5.893194,-0.654477 0,0.337003 0.86488,0.702413 1.921956,0.812021 1.057075,0.109608 -1.252455,0.192998 -5.132289,0.185311 -3.879835,-0.0077 -6.603183,-0.100856 -6.051885,-0.207043 z m 5.723049,-0.841833 c 0.006,-0.492809 0.200142,-0.443528 0.582315,0.147843 0.315293,0.487881 0.577335,0.582882 0.582315,0.211113 0.005,-0.371769 0.394679,-0.823921 0.865995,-1.004782 0.603238,-0.231484 0.747921,-0.04474 0.488704,0.630768 -0.287375,0.748888 -0.116018,0.70981 0.780356,-0.17796 1.136557,-1.125646 1.133658,-1.139612 -0.276693,-1.332763 -0.783907,-0.107359 -1.649673,0.158758 -1.923926,0.59137 -0.410783,0.647981 -0.500235,0.648882 -0.507695,0.0051 -0.007,-0.601805 -0.212951,-0.577531 -0.896112,0.10563 -1.030338,1.030338 -1.131095,1.562909 -0.295686,1.562909 0.325254,0 0.595446,-0.332646 0.600427,-0.739214 z m -2.463146,-1.340539 c 0.196706,-0.196707 -0.400829,-0.22011 -1.327858,-0.05201 -0.927028,0.168102 -1.846447,0.466582 -2.043153,0.663288 -0.196707,0.196707 0.400829,0.22011 1.327857,0.05201 0.927028,-0.168102 1.846447,-0.466582 2.043154,-0.663288 z m 11.916024,0.30564 c 0,-0.325254 -0.266117,-0.591371 -0.591371,-0.591371 -0.325254,0 -0.591371,0.266117 -0.591371,0.591371 0,0.325254 0.266117,0.591371 0.591371,0.591371 0.325254,0 0.591371,-0.266117 0.591371,-0.591371 z m 1.182742,1.774113 c 0,-0.325254 0.266116,-0.591371 0.59137,-0.591371 0.325254,0 0.591371,0.266117 0.591371,0.591371 0,0.325254 -0.266117,0.591371 -0.591371,0.591371 -0.325254,0 -0.59137,-0.266117 -0.59137,-0.591371 z m 5.772761,0.173117 c 0.735612,-0.141452 1.800079,-0.136081 2.365483,0.01193 0.565404,0.148015 -0.03649,0.263749 -1.33748,0.257185 -1.301016,-0.0066 -1.763615,-0.127668 -1.028003,-0.269119 z M 28.285317,1.9254868 c 0.161827,-0.2618414 3.006223,-0.4452054 6.320881,-0.4074755 7.036446,0.080094 6.530375,0.3671692 -1.181287,0.670099 C 30.436307,2.3055089 28.12349,2.1873282 28.285317,1.9254868 Z M 67.835908,2.0407824 62.51357,1.672915 68.244533,1.5611632 c 3.309447,-0.064533 5.8854,0.1381219 6.096454,0.4796192 0.201019,0.3252539 0.01715,0.5410825 -0.408625,0.4796191 C 73.506598,2.458938 70.763193,2.2431094 67.835908,2.0407824 Z"
         id="path14515" />
      <path
         style="fill:#333333;fill-opacity:1;stroke-width:0.591371"
         d="m 33.832084,96.660119 c 0,-0.381174 6.338629,-0.591371 17.833148,-0.591371 h 17.833149 l 1.978396,-1.508995 C 75.616781,91.402016 75.407767,93.860664 75.49044,47.346496 75.56156,7.3304113 75.51502,5.3615402 74.466517,4.0285817 73.396367,2.6681024 73.396361,2.6321532 74.466245,2.6321532 c 0.603991,0 1.554714,0.7728811 2.11272,1.7175137 0.932391,1.578411 1.014095,5.0388634 1.008784,42.7265441 l -0.0059,41.00903 -1.388142,2.981024 c -0.763478,1.639558 -2.244939,3.701964 -3.292138,4.583124 l -1.903853,1.6021 H 52.414893 c -11.994292,0 -18.582809,-0.20967 -18.582809,-0.59137 z M 25.552892,37.493666 c 0,-26.964294 0.126764,-31.617157 0.902242,-33.1167677 0.496234,-0.9596098 1.313899,-1.7447451 1.817035,-1.7447451 0.748964,0 0.694651,0.2798631 -0.299617,1.5438699 -1.201685,1.5276953 -1.210416,1.8746474 -0.833371,33.1167679 0.352417,29.201412 0.307153,31.572898 -0.602626,31.572898 -0.904942,0 -0.983663,-2.510654 -0.983663,-31.372023 z M 35.606196,2.0140657 C 43.627438,1.4718683 59.698829,1.4712047 67.244537,2.0127594 71.010345,2.2830309 65.211008,2.4365692 51.277524,2.4354883 37.201795,2.4343964 31.611733,2.2840723 35.606196,2.0140657 Z"
         id="path14513" />
    </g>
  </g>
</svg>
