<?xml version="1.0" encoding="UTF-8" standalone="no"?>
<!-- Created with Inkscape (http://www.inkscape.org/) -->

<svg
   width="100mm"
   height="100mm"
   viewBox="0 0 100 100"
   version="1.1"
   id="svg2654"
   inkscape:version="1.1.1 (3bf5ae0d25, 2021-09-20)"
   sodipodi:docname="add_list_type_device_6110.svg"
   xmlns:inkscape="http://www.inkscape.org/namespaces/inkscape"
   xmlns:sodipodi="http://sodipodi.sourceforge.net/DTD/sodipodi-0.dtd"
   xmlns="http://www.w3.org/2000/svg"
   xmlns:svg="http://www.w3.org/2000/svg">
  <sodipodi:namedview
     id="namedview2656"
     pagecolor="#505050"
     bordercolor="#ffffff"
     borderopacity="1"
     inkscape:pageshadow="0"
     inkscape:pageopacity="0"
     inkscape:pagecheckerboard="1"
     inkscape:document-units="mm"
     showgrid="false"
     inkscape:zoom="0.58974467"
     inkscape:cx="397.62971"
     inkscape:cy="171.26056"
     inkscape:window-width="1440"
     inkscape:window-height="890"
     inkscape:window-x="-6"
     inkscape:window-y="-6"
     inkscape:window-maximized="1"
     inkscape:current-layer="layer1" />
  <defs
     id="defs2651" />
  <g
     inkscape:label="Laag 1"
     inkscape:groupmode="layer"
     id="layer1">
    <g
       id="g2670"
       transform="translate(-9.9697888e-7,-0.44864048)">
      <path
         style="fill:#d0d0d0;fill-opacity:1;stroke-width:0.599679"
         d="m 20.192511,93.655804 c -0.210091,-0.339934 0.03062,-0.440464 0.564288,-0.23568 1.038894,0.398661 1.228974,0.828492 0.366377,0.828492 -0.310359,0 -0.729158,-0.266767 -0.930665,-0.592812 z m -6.977045,-2.255663 c -0.745923,-0.951127 -0.724713,-0.972337 0.226412,-0.226415 0.577191,0.452668 1.049438,0.924915 1.049438,1.049439 0,0.493559 -0.492448,0.175892 -1.27585,-0.823024 z m 1.799037,-2.398716 c -0.745924,-0.951126 -0.724713,-0.972337 0.226412,-0.226414 0.577191,0.452667 1.049438,0.924914 1.049438,1.049438 0,0.49356 -0.492448,0.175892 -1.27585,-0.823024 z m 21.215176,0.03638 c 0.577191,-0.150831 1.521685,-0.150831 2.098876,0 0.577191,0.150837 0.104944,0.274251 -1.049438,0.274251 -1.154382,0 -1.626629,-0.123414 -1.049438,-0.274251 z m -2.098877,-7.779606 c 0.41228,-0.166357 1.086919,-0.166357 1.499198,0 0.412279,0.166357 0.07496,0.302473 -0.749599,0.302473 -0.824558,0 -1.161878,-0.136116 -0.749599,-0.302473 z m 27.023035,-10.80671 c 0.432893,-0.173229 0.950113,-0.151928 1.149386,0.04732 0.199268,0.199273 -0.154921,0.341002 -0.78708,0.314964 -0.698592,-0.02878 -0.84069,-0.170873 -0.362306,-0.362303 z M 22.530005,68.3125 l -1.142381,-1.349277 1.349278,1.142382 c 1.267988,1.073558 1.622276,1.556173 1.142381,1.556173 -0.113793,0 -0.720968,-0.607175 -1.349278,-1.349278 z m 19.884939,-7.470124 c -0.325437,-0.854661 -0.256556,-0.923543 0.335697,-0.335697 0.409831,0.406783 0.594084,0.890668 0.409451,1.075301 -0.184633,0.184634 -0.51995,-0.148188 -0.745148,-0.739604 z M 4.9477834,56.76868 c 0.062445,-1.135926 1.0618867,-3.048677 1.0966953,-2.098876 0.018131,0.494735 -0.2286252,1.304301 -0.5483476,1.799037 -0.3197224,0.494735 -0.5664788,0.629663 -0.5483477,0.299839 z M 25.932559,54.91967 c 0.02877,-0.698592 0.170873,-0.84069 0.362307,-0.362306 0.173229,0.432893 0.151925,0.950116 -0.04734,1.149385 -0.199269,0.199268 -0.341002,-0.154918 -0.314963,-0.787079 z m 18.590049,-1.199358 c 0.02877,-0.698592 0.170873,-0.84069 0.362306,-0.362306 0.17323,0.432893 0.151925,0.950116 -0.04734,1.149385 -0.199268,0.199268 -0.341002,-0.154918 -0.314963,-0.787079 z M 25.932559,52.520954 c 0.02877,-0.698592 0.170873,-0.84069 0.362307,-0.362306 0.173229,0.432893 0.151925,0.950116 -0.04734,1.149385 -0.199269,0.199268 -0.341002,-0.154918 -0.314963,-0.787079 z m -20.3890848,-0.0509 c -0.026039,-0.385303 -0.2026464,-1.19487 -0.3924615,-1.799037 -0.328055,-1.044172 -0.3111316,-1.04548 0.3422815,-0.02645 0.37807,0.589617 0.5546777,1.399184 0.3924615,1.799037 -0.2128723,0.524717 -0.3081116,0.532077 -0.3422815,0.02645 z m 7.4871998,-1.822219 c -0.325437,-0.854662 -0.256556,-0.923543 0.335697,-0.335698 0.409831,0.406783 0.594084,0.890668 0.409451,1.075301 -0.184633,0.184634 -0.51995,-0.148187 -0.745148,-0.739603 z m 49.58488,0.01052 c 0.577191,-0.150835 1.521685,-0.150835 2.098877,0 0.577191,0.150837 0.104943,0.274247 -1.049439,0.274247 -1.154382,0 -1.626629,-0.12341 -1.049438,-0.274247 z M 53.47045,41.250454 c 0,-0.124527 0.472247,-0.596774 1.049438,-1.049438 0.951124,-0.745923 0.972335,-0.724713 0.226412,0.226412 -0.783402,0.998914 -1.27585,1.316582 -1.27585,0.823026 z m -2.998395,-4.8067 c 0,-0.129624 0.418799,-0.396389 0.930664,-0.59281 0.53367,-0.204788 0.774379,-0.104254 0.564288,0.23568 -0.352166,0.569817 -1.494952,0.842818 -1.494952,0.35713 z M 34.280722,21.68746 c -1.096193,-0.708414 -0.149371,-0.708414 1.499198,0 0.79082,0.339827 0.892955,0.526611 0.299839,0.548347 -0.494735,0.01813 -1.304302,-0.228625 -1.799037,-0.548347 z m 4.497593,0 c 1.648568,-0.708414 2.59539,-0.708414 1.499197,0 -0.494735,0.319722 -1.304302,0.566479 -1.799037,0.548347 -0.593115,-0.02174 -0.490981,-0.20852 0.29984,-0.548347 z"
         id="path2682" />
      <path
         style="fill:#b9b9b9;fill-opacity:1;stroke-width:0.599679"
         d="m 17.489711,94.018718 c 0,-0.126443 0.540083,-0.37113 1.200185,-0.543753 0.660102,-0.172618 1.048959,-0.06917 0.864127,0.229899 -0.322777,0.522266 -2.064312,0.787042 -2.064312,0.313854 z M 36.829358,81.241981 c 0.577191,-0.150831 1.521685,-0.150831 2.098876,0 0.577191,0.150837 0.104944,0.274251 -1.049438,0.274251 -1.154382,0 -1.626629,-0.123414 -1.049438,-0.274251 z m 51.122633,-9.898073 c -1.619757,-0.918505 -2.078823,-1.695766 -2.089695,-3.538142 -0.01121,-1.901606 1.679922,-3.544289 3.636111,-3.531918 1.787919,0.01133 2.57095,0.50908 3.461083,2.200193 0.985345,1.872 0.873871,2.458156 -0.782491,4.114511 -1.624524,1.62453 -2.436309,1.769665 -4.225008,0.755356 z m 3.777978,-1.202387 c 1.331875,-1.331875 0.867159,-4.036301 -0.826154,-4.80783 -2.691341,-1.226253 -5.20793,1.290335 -3.981677,3.981677 0.771529,1.693313 3.475956,2.158028 4.807831,0.826153 z m -47.579202,-5.91675 c -0.217403,-0.351766 -0.266667,-0.768189 -0.109474,-0.925383 0.157192,-0.157194 0.445601,0.130616 0.640907,0.639576 0.405494,1.0567 0.05988,1.242571 -0.531433,0.285807 z m 42.69481,-3.455477 c -1.949538,-2.154217 -0.918768,-5.471067 1.986833,-6.393267 2.369565,-0.752071 5.262699,2.141066 4.510629,4.510631 -0.937262,2.953045 -4.574897,4.007047 -6.497462,1.882636 z m 4.444071,-0.1238 c 1.386698,-0.742137 1.570883,-3.688741 0.29668,-4.746236 -2.731928,-2.267299 -6.62132,1.529716 -4.250447,4.149497 1.231477,1.360771 2.24136,1.513192 3.953767,0.596739 z M 75.712789,59.091522 C 75.286261,57.911988 73.8648,55.874427 72.55398,54.563609 c -1.310814,-1.310818 -1.814695,-2.078997 -1.119733,-1.707064 2.116735,1.132844 6.129835,7.303791 5.293619,8.140008 -0.131768,0.131766 -0.588555,-0.725498 -1.015077,-1.905031 z M 13.339301,54.91967 c 0.02877,-0.698592 0.170873,-0.84069 0.362306,-0.362306 0.17323,0.432893 0.151925,0.950116 -0.04734,1.149385 -0.199268,0.199268 -0.341002,-0.154918 -0.314963,-0.787079 z m 2.998395,0 c 0.02877,-0.698592 0.170873,-0.84069 0.362306,-0.362306 0.17323,0.432893 0.151925,0.950116 -0.04734,1.149385 -0.199268,0.199268 -0.341002,-0.154918 -0.314963,-0.787079 z m 42.379945,-0.04734 c 0.412279,-0.166358 1.086918,-0.166358 1.499197,0 0.412279,0.166358 0.07496,0.302469 -0.749599,0.302469 -0.824558,0 -1.161878,-0.136111 -0.749598,-0.302469 z m -45.37834,-2.351373 c 0.02877,-0.698592 0.170873,-0.84069 0.362306,-0.362306 0.17323,0.432893 0.151925,0.950116 -0.04734,1.149385 -0.199268,0.199268 -0.341002,-0.154918 -0.314963,-0.787079 z m 2.998395,0 c 0.02877,-0.698592 0.170873,-0.84069 0.362306,-0.362306 0.17323,0.432893 0.151925,0.950116 -0.04734,1.149385 -0.199268,0.199268 -0.341002,-0.154918 -0.314963,-0.787079 z m 71.614295,-0.96645 c -1.619757,-0.918505 -2.078823,-1.695769 -2.089695,-3.538146 -0.01121,-1.901603 1.679922,-3.544286 3.636111,-3.531914 1.787919,0.0113 2.57095,0.509076 3.461083,2.20019 0.985345,1.872 0.873871,2.458158 -0.782491,4.114515 -1.624524,1.624528 -2.436309,1.76966 -4.225008,0.755355 z m 3.777978,-1.202389 c 1.331875,-1.331876 0.867159,-4.036304 -0.826154,-4.807829 -2.691341,-1.226257 -5.20793,1.290335 -3.981677,3.981676 0.771529,1.693314 3.475956,2.158029 4.807831,0.826153 z m -25.816181,0.922138 c 0.41228,-0.166358 1.086919,-0.166358 1.499198,0 0.412279,0.166359 0.07496,0.302469 -0.749599,0.302469 -0.824558,0 -1.161878,-0.13611 -0.749599,-0.302469 z M 58.724632,50.6476 c 0.745949,-0.143439 1.825371,-0.137993 2.398716,0.0121 0.573346,0.150095 -0.03697,0.267455 -1.356269,0.260799 -1.319294,-0.0067 -1.788395,-0.129462 -1.042447,-0.272901 z m -2.952954,-0.925148 c -1.18008,-0.954865 -2.901591,-3.527146 -2.898666,-4.331185 0.0013,-0.338892 0.575103,0.323556 1.275266,1.472105 0.700164,1.14855 1.711113,2.421781 2.246555,2.829404 0.535442,0.407622 0.822716,0.749714 0.638387,0.760203 -0.184328,0.01049 -0.752022,-0.318248 -1.261542,-0.730527 z m -3.453243,-6.196683 c 0.02877,-0.698591 0.170873,-0.840689 0.362306,-0.362306 0.17323,0.432893 0.151925,0.950117 -0.04734,1.149385 -0.199268,0.199268 -0.341002,-0.154917 -0.314963,-0.787079 z m 0.552336,-1.983218 c 0,-0.668344 1.811097,-2.178031 3.598074,-2.999267 1.280007,-0.588249 1.328998,-0.577597 0.33509,0.07286 -0.640259,0.419014 -1.787145,1.356752 -2.548636,2.083863 -0.76149,0.727111 -1.384528,1.106255 -1.384528,0.842542 z M 13.665473,32.001213 c -0.189878,-0.30723 0.161324,-1.017027 0.78045,-1.577328 0.619125,-0.5603 1.281036,-0.767358 1.470914,-0.46013 0.189878,0.30723 -0.161324,1.017027 -0.780449,1.577327 -0.619125,0.560301 -1.281037,0.767359 -1.470915,0.460131 z m 1.502014,-1.168649 c 0.745923,-0.951124 0.724712,-0.972335 -0.226412,-0.226412 -0.577191,0.452664 -1.049438,0.924912 -1.049438,1.049439 0,0.493556 0.492448,0.175887 1.27585,-0.823027 z"
         id="path2680" />
      <path
         style="fill:#a3a3a3;fill-opacity:1;stroke-width:0.599679"
         d="M 16.182743,98.209502 C 6.5487062,95.615411 2.7534619,84.412622 8.683185,76.072341 c 1.0506196,-1.477717 2.045145,-2.648639 2.210057,-2.602038 0.164912,0.04659 1.186215,-0.546433 2.269563,-1.317842 2.754199,-1.961166 8.988895,-2.077066 12.709473,-0.236274 1.435765,0.710362 2.835602,1.152433 3.110747,0.982382 0.275146,-0.170044 0.500265,0.09812 0.500265,0.595931 0,0.497812 0.356595,1.120914 0.792433,1.384671 0.435838,0.263757 1.430168,1.814593 2.209623,3.446295 4.028698,8.433664 -0.642549,18.144169 -9.658409,20.077726 -3.509589,0.75267 -3.083429,0.765095 -6.644194,-0.19369 z m 9.292962,-5.935455 c 5.842209,-4.45607 4.914808,-13.141563 -1.74041,-16.29967 -6.396633,-3.035401 -14.0851888,2.555454 -13.284407,9.659965 0.816603,7.244884 9.310298,10.998382 15.024817,6.639705 z m -6.786636,0.364431 c 0,-0.535045 -1.079422,-1.969327 -2.398716,-3.187293 -2.071533,-1.912431 -2.398716,-2.560522 -2.398716,-4.751443 0,-5.508819 6.358228,-8.172317 10.240672,-4.289869 3.735717,3.735712 1.346869,10.70322 -4.393802,12.815313 -0.726864,0.267427 -1.049438,0.08709 -1.049438,-0.586708 z M 36.53651,86.028661 c 0.745949,-0.143437 1.825371,-0.137992 2.398716,0.01211 0.573346,0.150094 -0.03698,0.267457 -1.356269,0.260801 -1.319294,-0.0067 -1.788395,-0.129465 -1.042447,-0.272902 z m 41.374594,0.02573 c 0.414336,-0.167041 0.564928,-0.617987 0.334645,-1.002094 -0.230277,-0.384106 0.105358,-0.302496 0.745863,0.181367 0.640505,0.483863 1.276992,0.95611 1.414421,1.049439 0.137422,0.09333 -0.537217,0.148384 -1.499198,0.122346 -0.961987,-0.02603 -1.410067,-0.184011 -0.995731,-0.351058 z m 6.142974,-1.627049 c 0,-0.124523 0.472247,-0.596771 1.049438,-1.049438 0.951127,-0.745923 0.972337,-0.724712 0.226415,0.226415 -0.783403,0.998915 -1.275853,1.316583 -1.275853,0.823023 z M 35.180241,78.057284 c 0.203842,-0.329823 0.489623,-0.599679 0.63507,-0.599679 0.145447,0 0.264448,0.269856 0.264448,0.599679 0,0.329823 -0.285782,0.599679 -0.63507,0.599679 -0.349289,0 -0.468291,-0.269856 -0.264448,-0.599679 z m 50.672874,-0.599679 c 0,-0.329823 0.285783,-0.599679 0.635072,-0.599679 0.349289,0 0.468289,0.269856 0.264446,0.599679 -0.203843,0.329823 -0.489626,0.599679 -0.635072,0.599679 -0.145446,0 -0.264446,-0.269856 -0.264446,-0.599679 z m -18.590049,-8.74317 c 2.987175,-1.357313 5.397111,-3.826473 5.397111,-5.529753 0,-2.056345 -2.220605,-5.756972 -4.104359,-6.839887 -0.875927,-0.503545 -3.886363,-1.096857 -6.689863,-1.31847 -2.973734,-0.23507 -5.971669,-0.84989 -7.196147,-1.475793 -2.544643,-1.300718 -6.005471,-6.713581 -5.977213,-9.348583 0.01698,-1.583321 0.160612,-1.41751 1.082427,1.249552 2.33637,6.759757 4.006802,7.960579 12.387103,8.904705 3.470276,0.390962 6.699242,1.079327 7.302069,1.556686 3.199605,2.533666 4.787855,6.041956 3.85091,8.506307 -0.731266,1.92338 -3.995667,4.441216 -6.351877,4.899221 -1.736569,0.337559 -1.726152,0.316583 0.299839,-0.603985 z m -44.133382,-1.001613 -1.142381,-1.349278 1.349278,1.142382 c 1.267988,1.073558 1.622276,1.556173 1.142381,1.556173 -0.113793,0 -0.720968,-0.607175 -1.349278,-1.349277 z m 22.245099,-1.649118 c -0.596972,-0.659647 -0.838637,-1.199358 -0.537033,-1.199358 0.301604,0 0.885426,0.539711 1.297383,1.199358 0.411956,0.659647 0.653621,1.199358 0.537032,1.199358 -0.116587,0 -0.70041,-0.539711 -1.297382,-1.199358 z M 1.9454003,56.718707 c 0.028775,-0.698592 0.1708727,-0.84069 0.362306,-0.362306 0.1732297,0.432893 0.1519253,0.950116 -0.047343,1.149385 -0.1992683,0.199268 -0.3410016,-0.154918 -0.314963,-0.787079 z m 6.643812,-1.449224 c 0,-0.824559 0.1361109,-1.161878 0.3024697,-0.749599 0.1663581,0.412279 0.1663581,1.086918 0,1.499197 -0.1663588,0.41228 -0.3024697,0.07496 -0.3024697,-0.749598 z m 63.7141497,-0.749599 -1.142382,-1.349278 1.349277,1.142381 c 1.267985,1.073557 1.622276,1.556175 1.142383,1.556175 -0.113795,0 -0.72097,-0.607175 -1.349278,-1.349278 z M 41.615997,53.470446 c 0,-1.154382 0.123411,-1.62663 0.274247,-1.049439 0.150836,0.577192 0.150836,1.521686 0,2.098877 -0.150836,0.577191 -0.274247,0.104944 -0.274247,-1.049438 z M 8.5418689,51.921275 c 0.028773,-0.698592 0.1708731,-0.84069 0.3623062,-0.362306 0.1732299,0.432893 0.1519251,0.950116 -0.047345,1.149385 -0.1992685,0.199268 -0.341002,-0.154918 -0.3149633,-0.787079 z M 1.9454003,50.721917 c 0.028775,-0.698592 0.1708727,-0.84069 0.362306,-0.362306 0.1732297,0.432893 0.1519253,0.950116 -0.047343,1.149385 -0.1992683,0.199268 -0.3410016,-0.154918 -0.314963,-0.787079 z m 58.8711167,0.519969 c 0.907015,-0.137401 2.39122,-0.137401 3.298235,0 0.907014,0.137401 0.164911,0.249821 -1.649118,0.249821 -1.814029,0 -2.556131,-0.11242 -1.649117,-0.249821 z M 25.386905,47.642804 c -1.148905,-2.905312 -1.42304,-4.820203 -0.749637,-5.236389 0.39607,-0.244785 0.648269,0.161542 0.648269,1.04445 0,0.794806 0.301057,2.308713 0.669014,3.364237 0.831946,2.386521 0.335214,3.110822 -0.567646,0.827702 z M 19.588587,36.079755 c 0.596972,-0.659647 1.220332,-1.199358 1.385244,-1.199358 0.164911,0 -0.188593,0.539711 -0.785565,1.199358 -0.596972,0.659647 -1.220332,1.199358 -1.385243,1.199358 -0.164912,0 0.188592,-0.539711 0.785564,-1.199358 z m -4.497592,-0.826091 c 0,-0.124526 0.472247,-0.596774 1.049438,-1.049438 0.951124,-0.745923 0.972335,-0.724712 0.226412,0.226412 -0.783402,0.998914 -1.27585,1.316583 -1.27585,0.823026 z m 2.398716,-2.398715 c 0,-0.124527 0.472247,-0.596775 1.049438,-1.049439 0.951124,-0.745923 0.972335,-0.724712 0.226412,0.226412 -0.783402,0.998914 -1.27585,1.316583 -1.27585,0.823027 z m -5.99679,-3.598074 c 0,-0.124527 0.472247,-0.596774 1.049438,-1.049439 0.951125,-0.745923 0.972335,-0.724712 0.226412,0.226412 -0.783402,0.998914 -1.27585,1.316583 -1.27585,0.823027 z M 35.36764,24.875884 c 0.432894,-0.173229 0.950117,-0.151925 1.149385,0.04734 0.199268,0.199269 -0.154917,0.341002 -0.787078,0.314964 -0.698592,-0.02877 -0.84069,-0.170874 -0.362307,-0.362307 z m 2.960915,0.01249 c 0.41228,-0.166358 1.086918,-0.166358 1.499198,0 0.412279,0.166359 0.07496,0.302469 -0.749599,0.302469 -0.824559,0 -1.161878,-0.13611 -0.749599,-0.302469 z m -4.160273,-6.60896 c 0.432894,-0.17323 0.950117,-0.151925 1.149385,0.04734 0.199268,0.199269 -0.154917,0.341002 -0.787078,0.314964 -0.698592,-0.02877 -0.84069,-0.170873 -0.362307,-0.362307 z m 5.99679,0 c 0.432893,-0.17323 0.950117,-0.151925 1.149385,0.04734 0.199268,0.199269 -0.154917,0.341002 -0.787079,0.314964 -0.698591,-0.02877 -0.84069,-0.170873 -0.362306,-0.362307 z"
         id="path2678" />
      <path
         style="fill:#8c8c8c;fill-opacity:1;stroke-width:0.599679"
         d="m 69.661782,88.307969 c 0,-0.298946 0.539711,-0.402403 1.199358,-0.229899 0.659647,0.172503 1.198806,0.07977 1.198135,-0.206062 -6e-4,-0.285837 2.900275,-0.444224 6.446549,-0.351982 5.605823,0.145818 6.702984,0.0095 8.40221,-1.043957 2.359311,-1.462683 4.33689,-4.531282 4.339949,-6.734275 0.0012,-0.887549 0.272098,-1.780507 0.601921,-1.98435 0.900155,-0.556322 0.721792,1.845141 -0.322711,4.344987 -2.234901,5.348872 -5.247053,6.718011 -14.819183,6.735906 -3.875425,0.0073 -7.046228,-0.231422 -7.046228,-0.530368 z M 36.679438,87.652148 c 0,-0.329824 1.079422,-0.599679 2.398716,-0.599679 1.319294,0 2.398716,0.269855 2.398716,0.599679 0,0.329823 -1.079422,0.599679 -2.398716,0.599679 -1.319294,0 -2.398716,-0.269856 -2.398716,-0.599679 z m 24.586838,0 c 0,-0.329824 1.011959,-0.580711 2.248797,-0.557528 1.803954,0.03382 2.011545,0.144097 1.049438,0.557528 -1.666442,0.716094 -3.298235,0.716094 -3.298235,0 z M 49.122777,85.755795 c -0.907014,-0.331269 -1.649117,-0.835641 -1.649117,-1.120818 0,-0.619577 3.455385,0.502105 3.934407,1.277184 0.410244,0.663785 -0.143445,0.625903 -2.28529,-0.156366 z m 32.303208,-1.05032 c 2.749875,-1.248765 4.42713,-3.236641 4.42713,-5.247035 0,-0.731704 0.269855,-1.497153 0.599679,-1.700996 0.904148,-0.558792 0.719494,1.926739 -0.287858,3.874742 -1.206291,2.332704 -3.740894,4.223701 -5.639885,4.207756 -1.37847,-0.01157 -1.269449,-0.148859 0.900934,-1.134467 z m -46.658024,0.13831 c 0.432894,-0.173229 0.950117,-0.151929 1.149385,0.04731 0.199268,0.199267 -0.154917,0.341001 -0.787078,0.314963 -0.698592,-0.02878 -0.84069,-0.170872 -0.362307,-0.362302 z m 4.197753,0 c 0.432894,-0.173229 0.950117,-0.151929 1.149385,0.04731 0.199268,0.199267 -0.154917,0.341001 -0.787079,0.314963 -0.698591,-0.02878 -0.840689,-0.170872 -0.362306,-0.362302 z m -1.973546,-0.676876 c -0.581979,-0.581976 0.411983,-1.312193 1.786147,-1.312193 2.133521,0 2.357537,1.025271 0.290307,1.328673 -0.987982,0.145002 -1.922386,0.13759 -2.076454,-0.01649 z m 39.266083,-0.01658 c 0,-0.488031 2.624645,-1.908904 3.476369,-1.88196 0.547381,0.01733 -2.434745,2.354495 -3.02661,2.372042 -0.247367,0.0073 -0.449759,-0.213204 -0.449759,-0.490082 z M 62.015875,83.640697 c 0.577191,-0.150831 1.521686,-0.150831 2.098877,0 0.577191,0.150837 0.104943,0.274251 -1.049439,0.274251 -1.154382,0 -1.626629,-0.123414 -1.049438,-0.274251 z M 49.422616,81.636672 c -0.742102,-0.298292 -1.349277,-0.685967 -1.349277,-0.861511 0,-0.629369 1.591733,-0.302574 2.733858,0.561288 1.301196,0.984175 0.66188,1.122797 -1.384581,0.300223 z m 25.900813,-1.499581 c 0.64023,-0.484247 1.449796,-0.871868 1.799037,-0.861379 0.349241,0.01049 0.111157,0.415277 -0.529073,0.899518 -0.640229,0.484247 -1.449795,0.871867 -1.799036,0.861379 -0.349241,-0.01049 -0.111157,-0.415278 0.529072,-0.899518 z m -39.24367,-0.28077 c 0,-0.329824 0.253929,-0.599679 0.564288,-0.599679 0.310358,0 0.731067,0.269855 0.93491,0.599679 0.203842,0.329823 -0.05009,0.599679 -0.564288,0.599679 -0.5142,0 -0.93491,-0.269856 -0.93491,-0.599679 z m 0.599679,-2.698556 c -0.772189,-0.821956 -1.269052,-1.629393 -1.10414,-1.794305 0.164912,-0.164912 0.93163,0.372671 1.703819,1.194626 0.772189,0.821956 1.269052,1.629394 1.10414,1.794306 -0.164911,0.164912 -0.93163,-0.372671 -1.703819,-1.194627 z m 13.192938,0.29984 c -1.154382,-0.631996 -1.774255,-1.160397 -1.377495,-1.174219 1.084429,-0.03778 3.776211,1.295306 3.776211,1.870158 0,0.638467 0.08224,0.662322 -2.398716,-0.695939 z m 23.987159,-0.558601 c 0,-0.485824 2.624573,-2.439794 3.277138,-2.439794 0.89264,0 0.109105,1.015742 -1.481891,1.921066 -0.987389,0.561851 -1.795247,0.795276 -1.795247,0.518728 z M 59.517212,76.038195 c 0.57963,-0.510459 5.946817,-0.786605 5.946817,-0.305962 0,0.289309 -1.394253,0.526014 -3.098343,0.526014 -1.704086,0 -2.9859,-0.09902 -2.848474,-0.220052 z M 8.856136,74.559159 c -0.1698686,-0.274857 0.072191,-0.499737 0.5379085,-0.499737 0.4657179,0 0.7077775,0.22488 0.5379084,0.499737 -0.169868,0.27485 -0.4119273,0.49973 -0.5379084,0.49973 -0.1259812,0 -0.3680404,-0.22488 -0.5379085,-0.49973 z m 29.922179,-0.699628 c -0.600632,-0.663689 -0.957131,-1.341638 -0.79222,-1.506549 0.164912,-0.164912 0.791267,0.243181 1.391899,0.90687 0.600631,0.663689 0.95713,1.341638 0.792219,1.50655 -0.164912,0.164911 -0.791267,-0.243182 -1.391898,-0.906871 z m 10.494382,-1.199358 c -0.824559,-0.644979 -1.191774,-1.178687 -0.816034,-1.186021 0.37574,-0.0073 1.320235,0.517397 2.098877,1.16607 1.842294,1.534788 0.676932,1.55291 -1.282843,0.01995 z m 25.186517,-1.199358 c 1.959775,-1.532959 3.125137,-1.514837 1.282845,0.01997 -0.778647,0.648673 -1.723141,1.173404 -2.098876,1.16607 -0.375741,-0.0074 -0.0085,-0.54106 0.816031,-1.186039 z M 24.685858,70.825743 c 0,-0.349289 0.269856,-0.468289 0.599679,-0.264446 0.329824,0.203843 0.599679,0.489626 0.599679,0.635072 0,0.145446 -0.269855,0.264446 -0.599679,0.264446 -0.329823,0 -0.599679,-0.285783 -0.599679,-0.635072 z m -8.628272,-0.905581 c -0.197143,-0.513745 -0.605036,-0.781676 -0.90643,-0.595403 -0.301395,0.186272 -0.405267,-0.2071 -0.230829,-0.874152 0.228606,-0.874188 0.521411,-1.04331 1.048689,-0.605706 0.402341,0.333913 0.852537,0.486106 1.000435,0.338207 0.147899,-0.147899 0.30829,0.25391 0.356425,0.892916 0.111191,1.476098 -0.794474,2.078889 -1.26829,0.844138 z m 24.070006,-0.539951 c -1.516639,-2.085756 -1.288669,-2.550962 0.44976,-0.917791 1.476514,1.387112 1.930565,2.41679 1.049438,2.379874 -0.247368,-0.01037 -0.922007,-0.668306 -1.499198,-1.462083 z M 24.750826,67.827798 c -1.734555,-1.444507 -1.314645,-2.164349 0.633271,-1.085599 0.770351,0.426618 1.593318,0.721576 1.828816,0.655461 0.235497,-0.06611 0.27409,0.281334 0.08576,0.772117 -0.443008,1.15446 -0.810099,1.105184 -2.547848,-0.341979 z m 24.521871,0.03494 c -0.814703,-0.614533 -1.321147,-1.27746 -1.125431,-1.473177 0.195716,-0.195717 1.001251,0.167382 1.790077,0.806886 1.871312,1.517074 1.266742,2.123139 -0.664646,0.666291 z M 71.760659,66.66338 c 0.596974,-0.659647 1.220334,-1.199358 1.385246,-1.199358 0.164912,0 -0.188593,0.539711 -0.785567,1.199358 -0.596975,0.659647 -1.220335,1.199358 -1.385247,1.199358 -0.164912,0 0.188593,-0.539711 0.785568,-1.199358 z M 45.157892,66.463492 c -0.495879,-0.597502 -0.463918,-0.799576 0.126466,-0.799576 0.434528,0 0.790051,0.359808 0.790051,0.799576 0,0.439763 -0.05691,0.79957 -0.126466,0.79957 -0.06956,0 -0.425079,-0.359807 -0.790051,-0.79957 z M 4.5838135,66.084411 c 0.5046027,-0.816463 -0.3160579,-3.67163 -0.9438202,-3.28365 -0.2908622,0.17976 -0.375198,-0.07355 -0.187413,-0.562907 0.1877849,-0.489357 0.8116207,-0.854324 1.3863016,-0.811034 0.7728915,0.05822 0.9717923,0.461014 0.7641152,1.547404 -0.1780124,0.931212 -0.049948,1.326046 0.349941,1.078901 0.389636,-0.240807 0.5148857,0.05307 0.3276927,0.768914 -0.1666542,0.637285 -0.6952145,1.309201 -1.1745786,1.493153 -0.4793641,0.183951 -0.7143715,0.0801 -0.5222387,-0.230781 z M 16.893188,63.67261 c -0.429148,-1.036053 -1.028754,-1.631103 -1.42203,-1.411224 -0.374002,0.209108 -0.324517,0.003 0.109967,-0.457379 0.673748,-0.714349 0.903036,-0.68455 1.558491,0.202545 0.422688,0.572064 0.958495,0.850141 1.190683,0.617957 0.232187,-0.232189 0.22711,0.08613 -0.01129,0.707376 -0.299603,0.780752 -0.218926,0.996954 0.261276,0.700173 0.453892,-0.280524 0.570918,-0.106743 0.337589,0.501302 -0.539908,1.406978 -1.201948,1.125531 -2.024692,-0.86075 z m 12.042209,0.351298 c -0.379969,-0.956973 -0.579228,-2.036396 -0.442799,-2.398714 0.136429,-0.362319 0.558937,0.124219 0.938906,1.081196 0.37997,0.956973 0.579229,2.036395 0.4428,2.398715 -0.13643,0.362315 -0.558938,-0.124217 -0.938907,-1.081197 z m 12.285851,-0.273411 c -1.08387,-2.095974 -1.149011,-2.484225 -0.41681,-2.484225 0.656205,0 2.156698,3.513058 1.696886,3.972874 -0.184986,0.184983 -0.76102,-0.484907 -1.280076,-1.488649 z M 7.7717494,62.27191 c 0.2226653,-0.851473 0.096098,-1.059733 -0.4419467,-0.727204 -0.6014148,0.371696 -0.6001977,0.178652 0.00602,-0.954068 0.4631362,-0.865378 0.8578628,-1.126419 1.0105663,-0.66831 0.1378182,0.413456 0.4485574,0.629381 0.6905309,0.479833 0.2419735,-0.149548 0.3298258,0.478434 0.1952267,1.395515 -0.1345991,0.917079 -0.588456,1.667421 -1.0085713,1.667421 -0.467289,0 -0.6427049,-0.463246 -0.4518213,-1.193187 z m 24.7099356,0.242768 c 0,-0.30285 -0.163799,-0.977488 -0.363998,-1.499199 -0.2002,-0.521711 -0.09673,-0.948564 0.22993,-0.948564 0.326661,0 0.722895,0.674638 0.880519,1.499197 0.157625,0.824559 0.05416,1.499197 -0.22993,1.499197 -0.284086,0 -0.516521,-0.247787 -0.516521,-0.550631 z M 10.797179,57.597767 c 0.23861,-2.502062 1.295421,-2.631469 1.295421,-0.158625 0,1.025282 0.236958,1.365416 0.749599,1.075991 0.59691,-0.337002 0.598147,-0.259943 0.0061,0.378313 -1.504364,1.621698 -2.282433,1.130189 -2.051089,-1.295679 z m 25.050175,1.80538 c -0.659741,-2.114701 -0.814799,-3.533985 -0.386092,-3.533985 0.538078,0 1.374225,3.641918 0.936617,4.079526 -0.159439,0.159439 -0.407175,-0.08605 -0.550525,-0.545541 z M 18.58278,57.520838 c 0.182932,-1.246392 0.05467,-1.69056 -0.405956,-1.405875 -0.433865,0.268145 -0.54289,0.07613 -0.30652,-0.53984 0.571274,-1.488718 1.698663,-0.709767 1.900488,1.313111 0.11265,1.129078 -0.130372,1.946173 -0.636612,2.140436 -0.612963,0.235216 -0.751588,-0.143862 -0.5514,-1.507832 z m 24.464083,-0.5481 c -0.341923,-1.709616 -0.108488,-2.897479 0.442746,-2.252961 0.523597,0.612207 0.903722,4.14778 0.445945,4.14778 -0.28035,0 -0.680261,-0.852669 -0.888691,-1.894819 z M 1.9454003,54.91967 C 1.9741752,54.221078 2.116273,54.07898 2.3077063,54.557364 2.480936,54.990257 2.4596316,55.50748 2.2603632,55.706749 2.0610949,55.906017 1.9193616,55.551831 1.9454003,54.91967 Z M 62.922386,54.245674 c 0.745947,-0.143439 1.825369,-0.137993 2.398716,0.0121 0.573347,0.150094 -0.037,0.267454 -1.35627,0.260798 -1.319294,-0.0067 -1.788393,-0.129461 -1.042446,-0.2729 z M 1.9454003,52.520954 c 0.028775,-0.698592 0.1708727,-0.84069 0.362306,-0.362306 0.1732297,0.432893 0.1519253,0.950116 -0.047343,1.149385 -0.1992684,0.199268 -0.3410017,-0.154918 -0.314963,-0.787079 z M 14.395572,51.145502 c -0.157684,-1.653472 0.0021,-2.292097 0.553179,-2.211213 0.426194,0.06255 0.767478,0.29921 0.75841,0.525907 -0.0091,0.226697 -0.01649,1.221742 -0.01649,2.211213 0,2.623296 -1.034852,2.20307 -1.295102,-0.525907 z M 39.13793,51.55688 c -0.03288,-1.217373 0.21008,-2.380184 0.539903,-2.584027 0.693666,-0.428709 0.693666,1.132261 0,3.298235 -0.431268,1.346633 -0.48621,1.273954 -0.539903,-0.714208 z m 13.687453,-0.33523 -1.45381,-1.649118 1.649117,1.45381 c 1.541349,1.358805 1.924123,1.844425 1.453811,1.844425 -0.107419,0 -0.849522,-0.742103 -1.649118,-1.649117 z M 8.494526,50.571997 c 0,-0.384794 -0.388857,-0.699625 -0.8641272,-0.699625 -0.47527,0 -1.0566761,-0.311551 -1.2920135,-0.692334 -0.2651056,-0.428951 -0.1645017,-0.529555 0.2644483,-0.264449 0.4351772,0.268955 0.6923344,-0.0176 0.6923344,-0.771472 0,-2.197037 1.0650443,-1.894045 1.3490433,0.383787 0.1538788,1.234192 0.1831497,2.356426 0.065047,2.493853 -0.118103,0.137426 -0.2147323,-0.06497 -0.2147323,-0.44976 z M 3.0974152,49.321739 c 0,-0.632671 -0.1603839,-1.644629 -0.3564086,-2.248796 -0.2964164,-0.913583 -0.2474918,-0.947074 0.2906568,-0.198966 0.4399969,0.611662 0.6500038,0.659638 0.656248,0.14992 0.014685,-1.198726 1.0384649,-0.865058 1.3825135,0.450586 0.1726206,0.660102 0.069166,1.04896 -0.2298981,0.864128 -0.2990645,-0.184832 -0.5437537,0.219579 -0.5437537,0.898691 0,0.679111 -0.2698555,1.234749 -0.599679,1.234749 -0.3298234,0 -0.5996789,-0.517641 -0.5996789,-1.150312 z M 27.726402,48.858325 c -0.02318,-1.052461 0.227707,-2.080345 0.55753,-2.284188 0.719233,-0.44451 0.719233,1.324651 0,2.998395 -0.434436,1.010988 -0.522001,0.898816 -0.55753,-0.714207 z m 26.866914,0.564288 c -0.745924,-0.951125 -0.724713,-0.972336 0.226411,-0.226412 0.577191,0.452664 1.049439,0.924911 1.049439,1.049438 0,0.493556 -0.492448,0.175888 -1.27585,-0.823026 z m -23.26884,0 c 0.02318,-0.247368 0.27407,-0.989471 0.55753,-1.649118 0.456693,-1.062781 0.520182,-1.011565 0.557531,0.44976 0.02318,0.907014 -0.227707,1.649117 -0.557531,1.649117 -0.329823,0 -0.580712,-0.202392 -0.55753,-0.449759 z M 11.685471,45.493242 c 0.07635,-1.409359 0.409896,-2.003826 1.156728,-2.061607 1.241038,-0.09602 1.218514,-0.220039 0.391095,2.153498 -0.859272,2.464909 -1.683687,2.415965 -1.547823,-0.09189 z m 24.412524,1.045592 c -0.01003,-0.679064 0.400521,-1.758486 0.912333,-2.398716 0.89414,-1.118485 0.914776,-1.105364 0.52714,0.335143 -0.221886,0.824559 -0.632435,1.903981 -0.912333,2.398716 -0.406434,0.718396 -0.512577,0.650913 -0.52714,-0.335143 z M 19.888427,45.770782 c 0,-0.724317 1.834767,-3.094558 2.39545,-3.094558 0.290623,0 0.489159,0.521016 0.44119,1.157813 -0.04797,0.636798 -0.346911,0.997313 -0.664318,0.801145 -0.317407,-0.196169 -0.425965,0.03719 -0.241241,0.518572 0.216529,0.564266 -0.06686,0.905578 -0.79761,0.960623 -0.623409,0.04696 -1.133471,-0.107658 -1.133471,-0.343595 z m 56.99409,-1.860673 c -0.718086,-1.00846 -1.023604,-1.833564 -0.678927,-1.833564 0.75502,0 2.747921,2.903744 2.300189,3.351476 -0.173607,0.173608 -0.903177,-0.509452 -1.621262,-1.517912 z m -27.540257,0.04197 c -0.06172,-1.262298 -0.187885,-1.331076 -1.119001,-0.610013 -0.776215,0.601105 -0.737183,0.446854 0.149919,-0.592471 0.984946,-1.153959 1.234021,-1.232515 1.393249,-0.439425 0.10664,0.531156 0.07048,1.437985 -0.08036,2.015176 -0.19592,0.749712 -0.294115,0.643104 -0.343811,-0.373267 z M 18.818193,40.079016 c 0.07026,-0.848961 0.250445,-1.420868 0.400407,-1.270907 0.149961,0.149962 0.732509,-0.143502 1.29455,-0.652142 0.928577,-0.84035 1.050579,-0.815103 1.336035,0.276482 0.172778,0.660706 -0.06278,1.514102 -0.523469,1.896438 -0.460686,0.382335 -0.83761,0.494142 -0.83761,0.248461 0,-0.245682 -0.404474,-0.111011 -0.898832,0.299269 -0.762184,0.632557 -0.879409,0.5113 -0.771081,-0.797601 z m 24.457714,0.672146 c 0,-0.488096 0.539711,-1.375879 1.199358,-1.972851 0.659647,-0.596972 1.199358,-0.883753 1.199358,-0.637289 0,0.246463 -0.539711,1.134246 -1.199358,1.972851 -0.771753,0.981126 -1.199358,1.208337 -1.199358,0.637289 z m 9.594864,-0.100387 c 0,-0.124527 0.472247,-0.596774 1.049438,-1.049438 0.951124,-0.745923 0.972335,-0.724713 0.226412,0.226412 -0.783402,0.998914 -1.27585,1.316582 -1.27585,0.823026 z m -5.769258,-1.200478 c 0.07565,-0.515411 0.305005,-1.104577 0.509686,-1.309257 0.20468,-0.204681 0.310253,0.04955 0.234607,0.564964 -0.07565,0.515411 -0.305004,1.104576 -0.509685,1.309257 -0.20468,0.20468 -0.310253,-0.04955 -0.234608,-0.564964 z M 22.886822,38.252059 c 0,-0.124527 0.472247,-0.596774 1.049438,-1.049438 0.951124,-0.745923 0.972335,-0.724712 0.226412,0.226412 -0.783402,0.998914 -1.27585,1.316583 -1.27585,0.823026 z m 5.950907,-0.523187 c -0.49224,-1.608391 -0.306642,-2.07188 0.721948,-1.802897 0.899255,0.23516 0.999547,0.479447 0.462503,1.126545 -0.642724,0.774436 -1.07831,1.023167 -1.184451,0.676352 z m -17.65383,-1.064296 c -0.208893,-0.337995 -0.02243,-0.540387 0.414368,-0.449759 0.449132,0.09319 0.794516,-0.356301 0.794963,-1.03458 4.36e-4,-0.659647 0.202827,-1.131894 0.44976,-1.049438 0.246932,0.08245 0.689952,0.149919 0.984488,0.149919 0.294536,0 0.696228,0.418799 0.89265,0.930665 0.206168,0.537266 0.104754,0.774688 -0.239916,0.56167 -0.328376,-0.202947 -0.758939,0.05289 -0.956809,0.568533 -0.407125,1.060952 -1.767357,1.248744 -2.339504,0.32299 z m 25.477665,-0.551422 c 0.644158,-1.20362 1.816911,-2.190255 1.816911,-1.528564 0,0.823878 -1.278258,2.694523 -1.841235,2.694523 -0.391445,0 -0.382999,-0.404869 0.02432,-1.165959 z m -19.171853,0.07113 c 0,-0.272331 0.711657,-1.149361 1.581459,-1.948957 1.08931,-1.001385 1.665109,-1.219372 1.850256,-0.700475 0.147838,0.414334 0.557298,0.575031 0.909912,0.357104 0.382125,-0.236167 0.46582,-0.112599 0.207184,0.305884 -0.238663,0.386165 -0.649075,0.569151 -0.912029,0.406637 -0.262954,-0.162514 -0.96077,0.237867 -1.550704,0.889736 -1.111596,1.228301 -2.086078,1.550658 -2.086078,0.690071 z m 49.023756,0.08177 c -0.577191,-0.150836 -1.049438,-0.505478 -1.049438,-0.788094 0,-0.499567 3.441702,0.245525 4.079305,0.883125 0.366829,0.366833 -1.484716,0.308759 -3.029867,-0.09503 z M 8.0596412,34.881588 c 0.046301,-0.614656 0.3654821,-1.068766 0.7092931,-1.009133 0.3438104,0.05963 0.5911869,-0.342483 0.5497251,-0.893592 -0.048034,-0.638472 0.2364337,-0.88236 0.7840626,-0.672215 0.523581,0.200917 0.700891,0.709674 0.453717,1.301855 -0.223152,0.53463 -0.418565,1.255336 -0.43425,1.601568 -0.01569,0.346232 -0.5051167,0.665414 -1.0876251,0.709294 C 8.346539,35.971189 8.0049535,35.607584 8.0596412,34.881588 Z M 32.49502,35.722939 c 0.0073,-0.298487 0.541044,-1.217341 1.186023,-2.0419 0.853683,-1.091371 1.176317,-1.239002 1.186024,-0.542702 0.0073,0.526073 -0.526377,1.444928 -1.186024,2.0419 -0.659647,0.596972 -1.193357,0.841188 -1.186023,0.542702 z m 45.238993,-2.346711 c -0.976583,-0.798101 -1.505746,-1.454797 -1.175923,-1.459325 0.844912,-0.0116 3.646492,2.215452 3.26584,2.596103 -0.172875,0.172873 -1.113334,-0.338677 -2.089917,-1.136778 z m 6.020225,0.304811 c -0.596974,-0.659647 -0.815551,-1.199358 -0.485728,-1.199358 0.329824,0 1.088112,0.539711 1.685086,1.199358 0.596975,0.659647 0.815552,1.199358 0.485728,1.199358 -0.329823,0 -1.088111,-0.539711 -1.685086,-1.199358 z m -54.630003,0.140737 c -1.187824,-0.79425 -0.756157,-2.405165 0.552775,-2.062872 0.750396,0.196234 1.046809,0.07518 0.798744,-0.326192 -0.248415,-0.401944 0.04988,-0.522025 0.805746,-0.324361 1.246926,0.326078 1.677863,1.37333 0.565115,1.37333 -0.349288,0 -0.483844,0.24469 -0.299012,0.543754 0.184832,0.299065 -0.246223,0.391484 -0.9579,0.205376 -0.88668,-0.231872 -1.158928,-0.119894 -0.864955,0.355764 0.492877,0.797491 0.333666,0.859849 -0.600513,0.235201 z m 57.328559,-2.839292 c -0.772189,-0.821958 -1.269053,-1.629396 -1.104141,-1.794308 0.164911,-0.164912 0.931631,0.372671 1.70382,1.194629 0.772188,0.821958 1.269052,1.629396 1.104141,1.794308 -0.164912,0.164912 -0.931632,-0.372671 -1.70382,-1.194629 z m 1.722541,-0.749599 c -0.745922,-0.951124 -0.724712,-0.972335 0.226415,-0.226412 0.998916,0.783402 1.316583,1.27585 0.823024,1.27585 -0.124524,0 -0.596771,-0.472247 -1.049439,-1.049438 z m -60.654385,-1.5172 c -0.186431,-0.490961 0.550844,-0.780373 2.241518,-0.879892 1.693054,-0.09966 2.518484,0.09702 2.516764,0.599679 -0.0034,0.996344 -4.388296,1.254569 -4.758282,0.280213 z m -4.993184,-0.29102 c -1.022064,-0.683413 -0.79894,-2.485939 0.257537,-2.08053 0.579633,0.222426 0.745742,0.0983 0.468586,-0.350145 -0.276273,-0.44702 -0.112125,-0.572984 0.460386,-0.353291 0.489359,0.187785 0.852965,0.829683 0.808013,1.426442 -0.05192,0.689269 -0.400965,0.962513 -0.956973,0.749153 -0.5639,-0.216389 -0.720999,-0.08629 -0.441637,0.365726 0.497328,0.804693 0.340281,0.86864 -0.595912,0.242645 z m 44.135621,-0.01772 c -0.824558,-0.123515 -1.769053,-0.507264 -2.098876,-0.852774 -0.415446,-0.435202 0.03172,-0.5098 1.455469,-0.242814 3.064755,0.574708 3.633706,1.543522 0.643407,1.095588 z m 17.913875,-1.772134 c -0.745923,-0.951124 -0.724712,-0.972335 0.226414,-0.226412 0.577191,0.452665 1.049439,0.924912 1.049439,1.049439 0,0.493556 -0.492451,0.175887 -1.275853,-0.823027 z M 73.409776,26.434317 c -1.473244,-0.557354 -1.787289,-1.154149 -0.599679,-1.139601 0.952302,0.01166 2.605623,1.039709 2.231429,1.38751 -0.155359,0.144401 -0.889648,0.03284 -1.63175,-0.247909 z M 19.738507,25.471838 c -1.132405,-0.295928 -1.458278,-1.385662 -0.414368,-1.385662 0.349288,0 0.510508,-0.202392 0.358267,-0.44976 -0.152242,-0.247367 0.573934,-0.504746 1.613726,-0.571952 l 1.890529,-0.122193 -1.323776,1.097186 c -0.728078,0.603452 -1.155349,1.265614 -0.949492,1.471471 0.205856,0.205856 0.261845,0.342981 0.124419,0.304721 -0.137427,-0.03826 -0.722114,-0.192975 -1.299305,-0.343811 z m 23.5374,-0.689726 c 0,-0.491552 2.638664,-1.914991 3.476371,-1.875344 0.604819,0.02863 -2.302891,2.378766 -2.943127,2.378766 -0.293284,0 -0.533244,-0.22654 -0.533244,-0.503422 z m -8.995185,-1.295615 c 0,-0.329824 0.809567,-0.599679 1.799037,-0.599679 0.98947,0 1.799037,0.269855 1.799037,0.599679 0,0.329823 -0.809567,0.599679 -1.799037,0.599679 -0.98947,0 -1.799037,-0.269856 -1.799037,-0.599679 z m 39.658972,-0.978622 c -1.110294,-0.484433 -1.86105,-1.038453 -1.668349,-1.231158 0.469759,-0.469754 3.986906,1.014819 3.986906,1.682854 0,0.289809 -0.06746,0.504913 -0.14992,0.478007 -0.08246,-0.02691 -1.058343,-0.445271 -2.168637,-0.929703 z m -40.85833,-2.619452 c 0,-0.329824 0.944495,-0.599679 2.098877,-0.599679 1.154382,0 2.098876,0.269855 2.098876,0.599679 0,0.329823 -0.944494,0.599679 -2.098876,0.599679 -1.154382,0 -2.098877,-0.269856 -2.098877,-0.599679 z m 24.586838,0 c 0,-0.329824 1.011959,-0.580713 2.248797,-0.557531 1.803953,0.03381 2.011545,0.144098 1.049438,0.557531 -1.666442,0.716094 -3.298235,0.716094 -3.298235,0 z M 35.967319,18.279416 c 0.432894,-0.17323 0.950117,-0.151925 1.149385,0.04734 0.199268,0.199269 -0.154917,0.341002 -0.787078,0.314964 -0.698592,-0.02877 -0.84069,-0.170873 -0.362307,-0.362307 z m 2.398716,0 c 0.432894,-0.17323 0.950117,-0.151925 1.149385,0.04734 0.199268,0.199269 -0.154917,0.341002 -0.787078,0.314964 -0.698592,-0.02877 -0.84069,-0.170873 -0.362307,-0.362307 z m 26.385875,0 c 0.432891,-0.17323 0.950114,-0.151925 1.149387,0.04734 0.199267,0.199269 -0.154921,0.341002 -0.787079,0.314964 -0.698596,-0.02877 -0.840689,-0.170873 -0.362308,-0.362307 z"
         id="path2676" />
      <path
         style="fill:#767676;fill-opacity:1;stroke-width:0.599679"
         d="m 33.852404,87.73813 c -0.07365,-0.977765 0.531787,-1.156817 4.970898,-1.470089 6.899172,-0.486886 8.984238,-1.77517 2.353728,-1.454288 -5.816316,0.281483 -6.685665,0.110587 -7.078463,-1.391477 -0.277695,-1.061906 0.0234,-1.167239 3.336638,-1.167239 4.44525,0 4.021699,-0.778276 -0.652459,-1.198896 -2.500254,-0.224994 -3.353431,-0.529109 -3.219968,-1.147762 0.09987,-0.462916 -0.169989,-1.078798 -0.599679,-1.368629 -0.474667,-0.320169 0.16007,-0.385978 1.617463,-0.167695 2.248005,0.33669 2.325579,0.30041 1.234661,-0.57743 -0.64023,-0.515185 -1.719652,-0.951631 -2.398716,-0.969879 -0.679063,-0.01823 -1.873122,-0.84081 -2.653463,-1.827912 l -1.418801,-1.794731 1.658165,0.416171 c 2.55982,0.642478 1.356868,-0.583847 -2.353378,-2.399105 -9.195605,-4.49899 -13.527659,-16.420382 -9.282506,-25.54455 1.938764,-4.167012 5.9093,-8.163512 9.966847,-10.032018 1.731573,-0.797392 3.148314,-1.718062 3.148314,-2.045934 0,-1.633644 -7.736996,2.508352 -10.595361,5.67222 -7.214449,7.985533 -7.300406,20.409626 -0.194993,28.184082 2.910261,3.184289 3.762942,4.553536 2.255472,3.621869 -0.406481,-0.251218 -1.21829,-0.492067 -1.804021,-0.53522 -1.738855,-0.128109 -3.998174,-2.696084 -6.037256,-6.862036 -1.763976,-3.6039 -1.91405,-4.380692 -1.91405,-9.907297 0,-5.492632 0.16004,-6.334611 1.903619,-10.015066 3.177556,-6.707382 8.919882,-11.371027 16.163176,-13.126967 3.573601,-0.866322 4.720674,-1.742383 2.292307,-1.750714 -2.816207,-0.0097 -8.963045,2.418691 -12.073916,4.769891 -10.317647,7.798088 -13.015992,23.021207 -5.943463,33.530941 1.488861,2.212437 1.810976,3.087117 1.220347,3.313766 -0.474694,0.182152 -0.683805,-0.0012 -0.511985,-0.448974 0.159746,-0.416297 -0.258781,-1.253941 -0.930059,-1.861439 -1.055912,-0.955589 -1.220507,-0.97548 -1.220507,-0.147474 0,0.526387 0.269855,1.123847 0.599679,1.32769 0.329823,0.203843 0.591096,0.692017 0.580607,1.084831 -0.03077,1.152319 -1.782866,-1.403345 -3.621603,-5.282584 C 7.698535,54.718601 9.846525,42.523583 18.08939,34.280718 c 4.615149,-4.615149 9.694111,-7.03305 16.630011,-7.916917 6.056796,-0.771839 7.843607,-1.677946 3.308848,-1.677946 -17.792685,0 -31.7487481,15.850498 -29.0885141,33.03707 0.4134678,2.67123 1.4980011,6.017155 2.8124431,8.676749 2.368581,4.792497 2.560083,5.66082 1.248449,5.66082 -2.463061,0 -6.2465515,-9.290586 -6.7158493,-16.491172 C 5.0496012,36.617624 20.580775,21.293146 39.816864,22.483496 c 5.316295,0.328979 7.68289,-0.337333 3.597055,-1.012745 C 32.548087,19.674566 22.0665,22.983388 14.42928,30.620609 8.1183582,36.931531 4.8964521,44.585587 4.8964521,53.267081 c 0,6.037194 0.9161256,9.942427 3.5927116,15.314903 1.8557283,3.72484 2.1477823,4.743719 1.5111923,5.272042 C 9.3972426,74.354566 8.9100502,74.085892 7.9332199,72.71406 6.2376647,70.332873 4.053672,65.262065 3.1598598,61.631244 2.2603836,57.977414 2.2245842,49.869205 3.090861,46.003705 6.044655,32.823285 16.636599,22.234943 29.824094,19.279563 c 4.086993,-0.915914 12.526105,-0.77054 16.428386,0.282998 2.951699,0.796901 3.605449,0.785804 6.596468,-0.111973 4.48086,-1.344965 13.564049,-1.299789 18.312032,0.09108 8.882289,2.601958 17.312048,9.168089 21.246044,16.549021 l 1.936849,3.633903 -1.696743,-0.413713 C 91.713921,39.083331 90.761355,38.580938 90.530323,38.194443 83.071426,25.716636 69.103679,19.069836 55.758907,21.647852 46.280516,23.47894 36.742374,30.688322 32.698311,39.07815 26.487951,51.962184 28.875837,66.588975 38.81163,76.524768 50.422678,88.135819 68.893174,89.28806 81.658462,79.197681 l 2.995295,-2.367646 v 1.572388 c 0,4.54047 -12.784748,10.449083 -22.609169,10.449083 -2.104999,0 -5.864491,-0.420801 -8.354428,-0.93511 -4.100723,-0.847028 -4.914427,-0.847028 -8.638524,0 -2.261251,0.514309 -5.687265,0.93511 -7.613365,0.93511 -2.981947,0 -3.514454,-0.165338 -3.585867,-1.113376 z m 7.624466,-0.08598 c 0,-0.329824 -1.079422,-0.599679 -2.398716,-0.599679 -1.319294,0 -2.398716,0.269855 -2.398716,0.599679 0,0.329823 1.079422,0.599679 2.398716,0.599679 1.319294,0 2.398716,-0.269856 2.398716,-0.599679 z m 23.087641,0 c 0.962107,-0.413431 0.754516,-0.523718 -1.049438,-0.557528 -1.236838,-0.02318 -2.248797,0.227704 -2.248797,0.557528 0,0.716094 1.631793,0.716094 3.298235,0 z M 51.408067,85.912161 C 50.929045,85.137082 47.47366,84.0154 47.47366,84.634977 c 0,0.285177 0.742103,0.789549 1.649117,1.120818 2.141845,0.782269 2.695534,0.820151 2.28529,0.156366 z m -10.872226,-2.52493 c -0.421743,-0.682399 -3.085569,-0.69492 -3.504869,-0.01649 -0.517606,0.837505 0.124216,1.093472 2.03765,0.812637 0.987982,-0.145003 1.64823,-0.503275 1.467219,-0.796158 z m 38.121126,0.06716 c 0.824558,-0.644979 1.309501,-1.178687 1.077653,-1.186021 -0.851724,-0.02693 -3.476369,1.393929 -3.476369,1.88196 0,0.79671 0.779649,0.570517 2.398716,-0.695939 z m -41.07801,-3.598074 c -0.203843,-0.329824 -0.624552,-0.599679 -0.93491,-0.599679 -0.310359,0 -0.564288,0.269855 -0.564288,0.599679 0,0.329823 0.42071,0.599679 0.93491,0.599679 0.5142,0 0.76813,-0.269856 0.564288,-0.599679 z m -0.29984,-3.298235 c -0.772189,-0.821955 -1.538907,-1.359538 -1.703819,-1.194626 -0.164912,0.164912 0.331951,0.972349 1.10414,1.794305 0.772189,0.821956 1.538908,1.359539 1.703819,1.194627 0.164912,-0.164912 -0.331951,-0.97235 -1.10414,-1.794306 z M 27.084574,68.476243 c 0,-0.774677 -2.932205,-2.678622 -3.401901,-2.208924 -0.201342,0.201343 0.279327,0.903555 1.068153,1.560479 1.591689,1.32553 2.333748,1.531718 2.333748,0.648445 z M 29.57185,68.012661 C 27.966748,64.968373 26.930067,60.219453 26.462766,53.770285 26.175981,49.812404 25.72632,45.539524 25.463519,44.274998 l -0.477821,-2.29914 -1.329008,1.416695 c -3.362125,3.583956 -4.280576,11.768251 -1.933039,17.22525 0.820803,1.908005 2.462169,4.103952 4.307862,5.763389 3.128612,2.812891 4.495308,3.442697 3.540337,1.631469 z M 5.7804403,64.114748 C 5.3591342,62.115292 4.5420085,60.821144 4.0264062,61.336746 c -0.4552575,0.455258 1.0069,4.726958 1.6179874,4.726958 0.301256,0 0.3623366,-0.875015 0.1360467,-1.948956 z m 12.9086287,1.019658 c 0,-0.181289 -0.411714,-1.125784 -0.914919,-2.098877 -1.297382,-2.508859 -2.272587,-2.206517 -1.063188,0.32962 0.861702,1.807007 1.978107,2.805544 1.978107,1.769257 z M 29.431504,62.70639 c -0.379969,-0.956977 -0.802477,-1.443515 -0.938906,-1.081196 -0.136429,0.362318 0.06283,1.441741 0.442799,2.398714 0.379969,0.95698 0.802477,1.443512 0.938907,1.081197 0.136429,-0.36232 -0.06283,-1.441742 -0.4428,-2.398715 z M 8.8197211,60.853959 c -0.2562194,-1.02086 -0.595116,-1.356674 -0.980354,-0.971436 -0.3852379,0.385238 -0.3490528,1.192605 0.1046758,2.335536 0.8041353,2.025602 1.4671986,0.992703 0.8756782,-1.3641 z m 3.4035929,-3.166697 c -0.147947,-1.008029 -0.507737,-1.980331 -0.799534,-2.160671 -0.600288,-0.370999 -0.739449,3.53184 -0.147055,4.124234 0.76168,0.76168 1.21006,-0.16842 0.946589,-1.963563 z m 7.665113,-0.583351 c 0,-0.970005 -0.28781,-1.941522 -0.639577,-2.158926 -0.924049,-0.571094 -1.053875,-0.21546 -0.72048,1.973615 0.370227,2.43091 1.360057,2.565777 1.360057,0.185311 z m -4.079688,-5.768745 c 0.24223,-2.074875 -0.153478,-3.026525 -0.93394,-2.246063 -0.586535,0.586535 -0.456107,4.381343 0.150587,4.381343 0.293739,0 0.646247,-0.960876 0.783353,-2.13528 z M 4.5258172,48.577232 c 0.2084301,-1.04215 0.2274891,-2.046294 0.042353,-2.23143 -0.5155791,-0.515578 -1.4512638,1.262211 -1.4615728,2.776971 -0.013698,2.012737 0.9842877,1.629116 1.4192198,-0.545541 z M 28.841463,47.288345 c 0.02318,-0.596656 -0.227707,-0.91805 -0.557531,-0.714208 -0.329823,0.203843 -0.580712,1.231727 -0.55753,2.284188 0.03553,1.613023 0.123094,1.725195 0.55753,0.714207 0.28346,-0.659647 0.534349,-1.687531 0.557531,-2.284187 z M 8.494526,48.037944 c 0,-2.12081 -0.9192883,-1.897648 -1.344436,0.326368 -0.1937645,1.013614 -0.020625,1.50806 0.5280761,1.50806 0.5107803,0 0.8163599,-0.686663 0.8163599,-1.834428 z m 4.741472,-2.460568 c 0.363576,-1.042953 0.520405,-2.036921 0.348508,-2.208817 -0.503314,-0.503316 -1.374817,0.676406 -1.814321,2.45598 -0.570333,2.309313 0.646125,2.104196 1.465813,-0.247163 z M 21.96625,44.72307 c 0.559022,-0.853175 0.836685,-1.730206 0.617028,-1.948957 -0.426403,-0.424644 -2.694851,2.072841 -2.694851,2.966941 0,1.038929 1.075252,0.512133 2.077823,-1.017984 z m -0.278786,-6.753503 c 0,-0.663865 -0.392758,-0.530542 -1.499198,0.508904 -0.824558,0.774632 -1.499197,1.813206 -1.499197,2.307941 0,0.663865 0.392757,0.530542 1.499197,-0.508904 0.824559,-0.774632 1.499198,-1.813206 1.499198,-2.307941 z m 8.7357,-1.74951 c -0.54353,-0.54353 -2.2157,0.450177 -1.824013,1.08394 0.26868,0.434734 0.66083,0.409292 1.251859,-0.08122 0.473342,-0.392839 0.730811,-0.844064 0.572154,-1.002721 z m -16.766629,0.0096 c 0.934645,-1.231241 1.046621,-1.948957 0.304071,-1.948957 -0.291891,0 -0.97275,0.674639 -1.513022,1.499198 -1.137349,1.735813 -0.06901,2.133262 1.208951,0.449759 z m 6.22967,-1.047074 c 0.773411,-0.823258 1.22417,-1.678865 1.001687,-1.901348 -0.438135,-0.438134 -3.398181,2.090606 -3.398181,2.903035 0,0.915607 0.980179,0.505912 2.396494,-1.001687 z m -9.825075,-0.62074 c 0.547017,-0.834852 0.82984,-1.682647 0.628498,-1.883989 -0.374748,-0.374748 -2.7388213,2.14039 -2.7748303,2.952142 -0.043762,0.986539 1.2083322,0.363417 2.1463323,-1.068153 z m 24.805937,-1.423506 c -0.0097,-0.6963 -0.332341,-0.548669 -1.186024,0.542702 -1.530685,1.956869 -1.530685,2.884449 0,1.499198 0.659647,-0.596972 1.193358,-1.515827 1.186024,-2.0419 z m -4.273905,-0.11564 c 1.750638,-0.610276 2.612888,-1.740374 1.327883,-1.740374 -1.191679,0 -3.637113,1.199614 -3.637113,1.784195 0,0.760271 0.0028,0.760219 2.30923,-0.04382 z m 56.459311,-2.639892 c -0.772189,-0.821958 -1.538909,-1.359541 -1.70382,-1.194629 -0.164912,0.164912 0.331952,0.97235 1.104141,1.794308 0.772188,0.821958 1.538908,1.359541 1.70382,1.194629 0.164911,-0.164912 -0.331953,-0.97235 -1.104141,-1.794308 z M 31.026618,28.86683 c 0.891772,-0.339052 1.461634,-0.776228 1.266358,-0.971504 -0.537419,-0.537419 -4.608723,0.359624 -4.608723,1.015455 0,0.744746 1.313355,0.727476 3.342365,-0.04395 z M 23.8207,27.43344 c 0.639712,-0.467768 0.984257,-1.029343 0.765656,-1.247944 -0.505406,-0.505405 -2.898892,0.749469 -2.898892,1.519853 0,0.817561 0.779109,0.718253 2.133236,-0.271909 z m -2.049752,-3.327314 c 0.778642,-0.648674 1.091091,-1.188385 0.694331,-1.199358 -1.091359,-0.03018 -3.77621,1.303169 -3.77621,1.875344 0,0.89298 1.626902,0.536132 3.081879,-0.675986 z m 23.98716,0 c 0.778642,-0.648674 1.226018,-1.188385 0.99417,-1.199358 -0.837707,-0.03965 -3.476371,1.383792 -3.476371,1.875344 0,0.83823 0.987367,0.569336 2.482201,-0.675986 z m -7.879312,-0.619629 c 0,-0.329824 -0.809567,-0.599679 -1.799037,-0.599679 -0.98947,0 -1.799037,0.269855 -1.799037,0.599679 0,0.329823 0.809567,0.599679 1.799037,0.599679 0.98947,0 1.799037,-0.269856 1.799037,-0.599679 z m 38.379455,-0.526926 c 0,-0.668035 -3.517147,-2.152608 -3.986906,-1.682854 -0.263829,0.26383 2.095908,1.592755 3.836986,2.160861 0.08246,0.02691 0.14992,-0.188198 0.14992,-0.478007 z M 37.279117,19.888423 c 0,-0.329824 -0.944494,-0.599679 -2.098876,-0.599679 -1.154382,0 -2.098877,0.269855 -2.098877,0.599679 0,0.329823 0.944495,0.599679 2.098877,0.599679 1.154382,0 2.098876,-0.269856 2.098876,-0.599679 z m 23.68732,0 c 0.962107,-0.413433 0.754515,-0.52372 -1.049438,-0.557531 -1.236838,-0.02318 -2.248797,0.227707 -2.248797,0.557531 0,0.716094 1.631793,0.716094 3.298235,0 z m -6.13127,64.45863 C 42.354264,81.635125 32.450907,70.792647 30.551461,57.760558 c -2.714665,-18.6253 12.170064,-35.4964 31.290567,-35.466302 10.319252,0.01625 20.042543,5.102767 25.827676,13.511174 l 1.748748,2.541719 -1.332906,0.362202 c -1.044689,0.28388 -1.719748,-0.123359 -3.121857,-1.883296 -9.866794,-12.384882 -26.099232,-15.421849 -38.815203,-7.262033 -15.22348,9.768881 -17.454582,31.320646 -4.575667,44.19956 10.339924,10.339923 26.441243,11.330365 37.877337,2.329951 2.159438,-1.69952 2.350718,-1.744688 3.298235,-0.778815 0.943199,0.961477 0.893797,1.117382 -0.79319,2.503168 -3.396174,2.789809 -7.978231,5.055864 -12.627626,6.244979 -5.332082,1.363718 -9.177158,1.439116 -14.492408,0.284188 z m 9.279585,-0.706356 c -0.577191,-0.150831 -1.521686,-0.150831 -2.098877,0 -0.577191,0.150837 -0.104944,0.274251 1.049438,0.274251 1.154382,0 1.62663,-0.123414 1.049439,-0.274251 z M 50.807197,81.336449 c -1.142125,-0.863862 -2.733858,-1.190657 -2.733858,-0.561288 0,0.36289 2.390556,1.394128 3.298234,1.422792 0.329824,0.01044 0.07586,-0.377264 -0.564376,-0.861504 z M 76.593393,80.17523 c 0.64023,-0.484241 0.878314,-0.889024 0.529073,-0.899518 -0.349241,-0.01049 -1.158807,0.377132 -1.799037,0.861379 -0.640229,0.48424 -0.878313,0.889024 -0.529072,0.899518 0.349241,0.01049 1.158807,-0.377132 1.799036,-0.861379 z M 39.377994,73.259852 c -0.600632,-0.663689 -1.226987,-1.071782 -1.391899,-0.90687 -0.164911,0.164911 0.191588,0.84286 0.79222,1.506549 0.600631,0.663689 1.226986,1.071782 1.391898,0.906871 0.164911,-0.164912 -0.191588,-0.842861 -0.792219,-1.50655 z m -6.149858,-11.69374 c -0.157624,-0.824559 -0.553858,-1.499197 -0.880519,-1.499197 -0.32666,0 -0.43013,0.426853 -0.22993,0.948564 0.200199,0.521711 0.363998,1.196349 0.363998,1.499199 0,0.302844 0.232435,0.550631 0.516521,0.550631 0.284086,0 0.387555,-0.674638 0.22993,-1.499197 z M 32.439537,48.223255 c -0.03735,-1.461325 -0.100838,-1.512541 -0.557531,-0.44976 -0.703851,1.637952 -0.703851,2.098877 0,2.098877 0.329824,0 0.580713,-0.742103 0.557531,-1.649117 z m 5.41816,-12.104076 c 0.782351,-1.461836 0.791076,-2.014493 0.02432,-1.540614 -0.963076,0.595214 -1.933501,2.700548 -1.24478,2.700548 0.329823,0 0.879029,-0.52197 1.220457,-1.159934 z m 47.095899,-2.43814 c -0.596974,-0.659647 -1.355262,-1.199358 -1.685086,-1.199358 -0.329823,0 -0.111246,0.539711 0.485728,1.199358 0.596975,0.659647 1.355263,1.199358 1.685086,1.199358 0.329824,0 0.111247,-0.539711 -0.485728,-1.199358 z M 48.97485,26.481667 c 0.47388,-0.766752 -0.07878,-0.758027 -1.540614,0.02432 -0.637964,0.341428 -1.159934,0.890634 -1.159934,1.220458 0,0.688721 2.105334,-0.281704 2.700548,-1.244781 z m 25.466997,-0.619878 c -0.965663,-0.610704 -2.381349,-0.763542 -2.381349,-0.257092 0,0.445672 2.635793,1.398411 2.981028,1.077529 0.155359,-0.144401 -0.114496,-0.513597 -0.599679,-0.820437 z M 61.865955,23.486497 c 0,-0.329824 -0.674639,-0.599679 -1.499197,-0.599679 -0.824559,0 -1.499198,0.269855 -1.499198,0.599679 0,0.329823 0.674639,0.599679 1.499198,0.599679 0.824558,0 1.499197,-0.269856 1.499197,-0.599679 z M 53.349133,79.930429 C 48.477553,78.326336 45.210176,76.251675 41.684608,72.523908 36.15908,66.681476 34.007821,60.636933 34.384976,52.013617 c 0.20988,-4.798747 0.514406,-6.059681 2.445535,-10.126089 4.014427,-8.453243 11.334138,-13.943082 20.687008,-15.515414 8.749426,-1.470885 18.154816,1.825988 24.374512,8.544003 1.848774,1.996895 3.361405,3.820278 3.361405,4.051964 0,0.231685 -0.502525,0.735077 -1.116717,1.118647 -0.971965,0.607001 -1.35988,0.352422 -2.992626,-1.963976 C 78.944909,35.00275 73.107975,31.040175 68.84776,29.775027 57.378735,26.369093 44.206768,32.260143 39.29305,42.993116 c -4.485287,9.797156 -2.595903,20.663507 4.895412,28.154823 5.579025,5.579023 14.080223,8.3897 21.309323,7.04531 4.507577,-0.838273 9.25884,-2.978761 12.048139,-5.427796 l 2.132458,-1.87233 0.655047,1.437664 c 0.583962,1.281664 0.430582,1.608861 -1.413581,3.015474 -1.137741,0.867802 -3.888642,2.432874 -6.113103,3.477946 -3.566981,1.675797 -4.75248,1.919735 -10.041271,2.066164 -4.597314,0.127294 -6.794814,-0.09673 -9.416341,-0.959942 z m 12.414736,-0.07411 c 0.228423,-0.3696 -0.793346,-0.599679 -2.663163,-0.599679 -1.668584,0 -3.033788,0.269855 -3.033788,0.599679 0,0.329823 1.198424,0.599679 2.663163,0.599679 1.46474,0 2.829945,-0.269856 3.033788,-0.599679 z M 52.271092,78.153544 c 0,-0.574852 -2.691782,-1.907944 -3.776211,-1.870158 -0.39676,0.01382 0.223113,0.542223 1.377495,1.174219 2.480952,1.358261 2.398716,1.334406 2.398716,0.695939 z m 25.182727,-3.244575 c 0.0054,-0.672174 -0.480529,-0.552994 -2.116183,0.518729 -2.103266,1.37811 -1.836865,2.178274 0.317146,0.952578 0.987383,-0.561852 1.79695,-1.223939 1.799037,-1.471307 z m -35.37727,-4.542982 c 0,-0.272326 -0.674639,-1.128931 -1.499197,-1.903567 -1.738429,-1.633171 -1.966399,-1.167965 -0.44976,0.917791 1.056166,1.452488 1.948957,1.904059 1.948957,0.985776 z M 36.308803,57.763981 c -0.20843,-1.042151 -0.589823,-1.894819 -0.847541,-1.894819 -0.428707,0 -0.273649,1.419284 0.386092,3.533985 0.483638,1.550227 0.843597,0.271574 0.461449,-1.639166 z m 1.228665,-13.28872 c 0.387636,-1.440507 0.367,-1.453628 -0.52714,-0.335143 -0.511812,0.64023 -0.922363,1.719652 -0.912333,2.398716 0.01456,0.986056 0.120706,1.053539 0.52714,0.335143 0.279898,-0.494735 0.690447,-1.574157 0.912333,-2.398716 z m 6.335897,-9.29266 c 0.77341,-0.823258 1.224169,-1.678865 1.001686,-1.901348 -0.438134,-0.438134 -3.398181,2.090606 -3.398181,2.903035 0,0.915607 0.980179,0.505912 2.396495,-1.001687 z m 34.774643,-2.12892 c -2.180469,-1.675341 -3.003343,-1.38495 -0.913995,0.322547 0.976583,0.798101 1.917042,1.309651 2.089917,1.136778 0.172876,-0.172873 -0.356293,-0.82957 -1.175922,-1.459325 z M 55.013777,28.86683 c 0.891772,-0.339052 1.468347,-0.769515 1.281277,-0.956585 -0.508716,-0.508715 -4.023962,0.383217 -4.023962,1.02101 0,0.71491 0.738505,0.697562 2.742685,-0.06442 z m 13.354947,-0.876494 c -0.161475,-0.161476 -1.218409,-0.467017 -2.348744,-0.678979 -1.423758,-0.266986 -1.870915,-0.192388 -1.455469,0.242814 0.329823,0.34551 1.274318,0.729259 2.098876,0.852774 1.568724,0.234988 2.202183,0.08024 1.705337,-0.416609 z M 56.169005,76.66426 C 42.034768,73.048825 34.573807,58.554487 39.739741,44.747289 41.506026,40.02647 46.893439,34.389357 51.8078,32.11989 c 3.393672,-1.567209 4.377297,-1.737085 10.058155,-1.737085 5.750934,0 6.608457,0.152721 9.894704,1.7622 4.474246,2.191314 10.059848,7.577675 9.786191,9.437107 -0.310946,2.112766 -1.392491,1.888484 -3.154545,-0.654164 -3.673754,-5.301228 -12.148087,-8.985014 -18.855893,-8.196643 -6.743002,0.792507 -12.951224,5.065402 -16.27889,11.204169 -1.935794,3.571089 -2.080492,4.213388 -2.080492,9.235132 0,4.681267 0.229033,5.892977 1.72679,9.135696 2.00461,4.34008 6.217969,8.597603 10.436363,10.545756 2.277408,1.051759 3.939312,1.306503 8.525772,1.306863 5.351865,4.2e-4 5.926742,-0.12414 9.490526,-2.056353 2.086469,-1.131241 4.717561,-3.136267 5.84687,-4.455615 l 2.053295,-2.398812 v 2.155852 c 0,1.810539 -0.442132,2.545037 -2.760269,4.585541 -4.990162,4.392517 -13.647344,6.383427 -20.327372,4.674726 z m 9.295024,-0.932027 c 0,-0.480643 -5.367187,-0.204497 -5.946817,0.305962 -0.137426,0.121027 1.144388,0.220052 2.848474,0.220052 1.70409,0 3.098343,-0.236705 3.098343,-0.526014 z M 50.55554,72.640222 c -0.778642,-0.648673 -1.723137,-1.173404 -2.098877,-1.16607 -0.37574,0.0073 -0.0085,0.541042 0.816034,1.186021 1.959775,1.532959 3.125137,1.514837 1.282843,-0.01997 z m 25.186519,-1.159456 c 1.842292,-1.534788 0.67693,-1.55291 -1.282845,-0.01995 -0.824559,0.644979 -1.191772,1.178687 -0.816031,1.186021 0.375735,0.0073 1.320229,-0.517397 2.098876,-1.166071 z M 42.084514,63.084535 c -0.414233,-1.000043 -0.990267,-1.818263 -1.280076,-1.818263 -0.732201,0 -0.66706,0.388251 0.41681,2.484225 1.189392,2.300032 1.873286,1.772447 0.863266,-0.665962 z M 40.217736,49.687061 c 0.03288,-0.596656 -0.21008,-0.91805 -0.539903,-0.714208 -0.329823,0.203843 -0.57278,1.366654 -0.539903,2.584027 0.05369,1.988162 0.108635,2.060841 0.539903,0.714208 0.26407,-0.824559 0.507026,-1.987371 0.539903,-2.584027 z m 5.456887,-11.546039 c 0,-0.246464 -0.539711,0.04032 -1.199358,0.637289 -0.659647,0.596972 -1.199358,1.484755 -1.199358,1.972851 0,0.571048 0.427605,0.343837 1.199358,-0.637289 0.659647,-0.838605 1.199358,-1.726388 1.199358,-1.972851 z m 32.685833,-0.258553 c -0.598804,-0.661669 -1.363802,-1.203035 -1.7,-1.203035 -0.336198,0 0.02153,0.673575 0.794934,1.496833 1.649999,1.756348 2.508283,1.477736 0.905066,-0.293798 z M 56.468845,31.854533 c 0,-0.2804 -0.809567,-0.227603 -1.799037,0.117328 -0.989471,0.344931 -1.799037,0.856567 -1.799037,1.136968 0,0.280401 0.809566,0.227604 1.799037,-0.117328 0.98947,-0.344931 1.799037,-0.856566 1.799037,-1.136968 z m 12.593258,0.691307 c 0,-0.667843 -1.493231,-1.263517 -3.167378,-1.263517 -2.13328,0 -0.100596,1.293585 2.717619,1.729474 0.247367,0.03826 0.449759,-0.171421 0.449759,-0.465957 z M 58.336636,73.121926 C 52.13027,72.208597 46.779259,68.102091 43.728524,61.911269 c -1.11841,-2.269576 -1.350601,-3.728629 -1.343257,-8.440823 0.0078,-4.989041 0.206027,-6.072526 1.595449,-8.71942 5.681057,-10.822605 18.884856,-14.154731 29.034645,-7.327217 1.597797,1.074799 3.680841,3.064049 4.628982,4.420555 l 1.723897,2.466374 -0.07535,9.527205 c -0.07005,8.857568 -0.170458,9.661732 -1.428489,11.441159 -4.188266,5.924115 -11.79794,8.980343 -19.527765,7.842824 z m 7.427233,-1.061432 c 0.231506,-0.374583 -0.993237,-0.599679 -3.262842,-0.599679 -2.022526,0 -3.633467,0.265874 -3.633467,0.599679 0,0.329824 1.46828,0.599679 3.262842,0.599679 1.794563,0 3.429624,-0.269855 3.633467,-0.599679 z m 2.504427,-2.952495 c 4.438032,-2.099554 5.887834,-3.982666 5.396631,-7.00957 -0.386253,-2.380198 -2.762871,-5.844233 -4.733044,-6.89864 -0.704461,-0.377013 -3.773468,-0.874004 -6.820017,-1.104423 -3.524305,-0.266554 -6.088877,-0.779118 -7.05037,-1.409113 -2.758619,-1.807516 -4.750374,-5.055191 -5.056934,-8.245633 -0.242233,-2.520963 -0.421065,-2.870861 -1.155681,-2.261184 -0.478006,0.39671 -1.546012,2.057108 -2.373346,3.689774 -4.704688,9.284254 -0.179647,20.503347 9.6386,23.89732 4.52613,1.564593 7.833738,1.385379 12.154161,-0.658531 z M 49.937343,67.19645 c -0.788826,-0.639504 -1.594361,-1.002603 -1.790077,-0.806886 -0.195716,0.195717 0.310728,0.858644 1.125431,1.473177 1.931388,1.456848 2.535958,0.850783 0.664646,-0.666291 z m 26.320908,-1.941491 c 0,-0.329823 -0.674639,0.03412 -1.499198,0.808745 -0.824558,0.774636 -1.499197,1.67828 -1.499197,2.008103 0,0.329824 0.674639,-0.03412 1.499197,-0.808745 0.824559,-0.774635 1.499198,-1.678279 1.499198,-2.008103 z m 1.529799,-5.468623 c 0.477902,-1.143789 0.866278,-3.909808 0.863058,-6.146709 -0.01385,-9.625237 -7.208723,-16.939699 -16.677102,-16.954335 -3.247141,-0.005 -4.169594,0.2554 -6.441482,1.8185 -2.818832,1.939407 -3.627945,3.689145 -3.047645,6.590646 0.898444,4.492223 4.00354,6.574713 9.811574,6.580315 1.907081,0.0019 4.546838,0.301547 5.866132,0.666016 2.869014,0.792598 6.485102,4.363302 7.484041,7.390111 0.387549,1.174289 0.832409,2.135071 0.988571,2.135071 0.156163,0 0.674945,-0.935827 1.152853,-2.079615 z M 74.467178,58.886785 C 74.052943,57.886739 73.47691,57.06852 73.187103,57.06852 c -0.732202,0 -0.667059,0.38825 0.416813,2.484224 1.189391,2.30003 1.873283,1.772445 0.863262,-0.665959 z M 44.074296,56.9186 c -0.407944,-2.143111 -0.644246,-2.602833 -1.102393,-2.144685 -0.467359,0.467358 0.386275,4.093642 0.963651,4.093642 0.28035,0 0.342784,-0.877031 0.138742,-1.948957 z m 21.989412,-4.047833 c 0,-0.329824 -1.079422,-0.599679 -2.398716,-0.599679 -1.319293,0 -2.398716,0.269855 -2.398716,0.599679 0,0.329823 1.079423,0.599679 2.398716,0.599679 1.319294,0 2.398716,-0.269856 2.398716,-0.599679 z M 54.070129,50.186706 c 0,-0.770759 -2.25185,-3.859381 -2.576846,-3.534385 -0.493542,0.493541 1.241567,3.81973 1.992566,3.81973 0.321354,0 0.58428,-0.128406 0.58428,-0.285345 z m -7.892085,-5.439822 c 0.829679,-1.820946 0.852896,-2.07066 0.192515,-2.07066 -0.435921,0 -1.895294,2.561362 -1.895294,3.326451 0,0.863109 1.110499,0.04412 1.702779,-1.255791 z m 31.646814,-1.152427 c -0.547021,-0.834851 -1.276584,-1.517912 -1.621268,-1.517912 -0.344677,0 -0.03916,0.825104 0.678927,1.833564 1.545211,2.170051 2.38641,1.888279 0.942341,-0.315652 z m -21.805773,-6.75316 c 0.577191,-0.16596 1.049438,-0.675829 1.049438,-1.133042 0,-0.697564 -0.306958,-0.706046 -1.908068,-0.05272 -1.049437,0.428215 -2.030753,1.146629 -2.180702,1.596476 -0.198011,0.594031 0.03701,0.691055 0.85863,0.354469 0.622195,-0.254889 1.603511,-0.599219 2.180702,-0.765179 z m 13.524249,-0.480206 c -0.637603,-0.6376 -4.079305,-1.382692 -4.079305,-0.883125 0,0.282616 0.472247,0.637258 1.049438,0.788094 1.545151,0.40379 3.396696,0.461864 3.029867,0.09503 z"
         id="path2674" />
      <path
         style="fill:#333333;fill-opacity:1;stroke-width:0.599679"
         d="m 61.566116,89.451185 c -2.138278,-0.382853 -1.94295,-0.44498 1.799037,-0.572208 2.308764,-0.0785 7.910803,-0.09395 12.448976,-0.0343 9.934486,0.130508 12.636369,-0.770569 15.14473,-5.050778 1.470773,-2.509674 2.12744,-7.400236 0.891045,-6.636102 -0.329823,0.203843 -0.599679,1.060059 -0.599679,1.902698 0,2.610211 -2.395585,6.084463 -5.097163,7.392273 -1.90521,0.9223 -3.646222,1.190632 -7.535506,1.161398 -4.006641,-0.0301 -4.746267,-0.163125 -3.558663,-0.639989 0.824559,-0.331089 2.744035,-0.688318 4.265505,-0.793843 3.229163,-0.223969 5.638211,-1.623397 6.859206,-3.984537 0.9926,-1.919507 1.16499,-5.337869 0.26919,-5.337869 -0.329824,0 -0.599679,0.688042 -0.599679,1.528977 0,1.924634 -1.464033,4.810619 -2.676374,5.275838 -1.234547,0.473741 -1.160972,-0.01481 0.277658,-1.843749 1.744514,-2.217793 1.581251,-5.172579 -0.355934,-6.441871 C 82.243053,74.816633 81.01304,73.1596 80.365098,71.694818 79.298929,69.28457 79.20457,67.897705 79.371754,57.095309 c 0.169601,-10.958515 0.286011,-12.071764 1.421143,-13.590381 1.745912,-2.335738 3.977305,-3.877436 6.333216,-4.375703 1.784405,-0.377394 3.007594,-0.260084 6.510649,0.624402 1.357163,0.34267 4.134517,4.030873 4.860476,6.454491 0.39887,1.331644 0.571608,6.446552 0.44874,13.2876 -0.17155,9.551457 -0.35477,11.358812 -1.297118,12.795211 -0.603547,0.919967 -1.238247,1.531772 -1.410445,1.359574 -0.172198,-0.172198 0.119216,-0.930294 0.647594,-1.68466 0.805758,-1.150382 0.960685,-3.366628 0.960685,-13.742713 0,-11.863294 -0.05589,-12.454792 -1.361229,-14.408783 -3.577499,-5.355188 -11.090733,-5.355188 -14.668232,0 -1.305573,1.954328 -1.361067,2.542769 -1.357277,14.392295 0.0042,13.592616 0.199417,14.421852 3.978696,16.913482 2.168757,1.429839 7.1881,1.527539 9.115636,0.177439 0.754366,-0.528377 1.515329,-0.81693 1.691029,-0.64123 0.1757,0.175699 -0.194998,0.640739 -0.823767,1.033408 -0.823551,0.514315 -1.071333,1.203766 -0.886128,2.465628 0.627966,4.278626 -3.474924,9.971013 -8.115677,11.259759 -2.492446,0.692161 -20.041068,0.718685 -23.853629,0.03604 z m 24.263827,-3.885932 c 2.505657,-1.295727 4.220924,-3.770386 4.220924,-6.089644 0,-2.973497 -1.548814,-2.624214 -2.04208,0.460529 -0.267901,1.675353 -1.05062,3.132819 -2.415393,4.497593 -2.260388,2.260388 -2.229763,2.406901 0.236549,1.131522 z m 1.092195,-16.249885 c -1.226253,-2.691342 1.290336,-5.20793 3.981677,-3.981677 1.693313,0.771529 2.158029,3.475955 0.826154,4.80783 -1.331875,1.331875 -4.036302,0.86716 -4.807831,-0.826153 z m 0.413743,-9.266613 c -1.579189,-1.744982 -0.604015,-4.405274 1.712851,-4.672684 2.171659,-0.250651 3.400851,0.813469 3.400851,2.944135 0,2.825661 -3.155534,3.892306 -5.113702,1.728549 z M 86.922138,49.525962 c -1.226253,-2.691341 1.290336,-5.207933 3.981677,-3.981676 1.693313,0.771525 2.158029,3.475953 0.826154,4.807829 -1.331875,1.331876 -4.036302,0.867161 -4.807831,-0.826153 z"
         id="path2672" />
    </g>
  </g>
</svg>
