<?xml version="1.0" encoding="UTF-8" standalone="no"?>
<!-- Created with Inkscape (http://www.inkscape.org/) -->

<svg
   width="100mm"
   height="100mm"
   viewBox="0 0 100 100"
   version="1.1"
   id="svg7082"
   inkscape:version="1.1.1 (3bf5ae0d25, 2021-09-20)"
   sodipodi:docname="add_list_type_device_7021.svg"
   xmlns:inkscape="http://www.inkscape.org/namespaces/inkscape"
   xmlns:sodipodi="http://sodipodi.sourceforge.net/DTD/sodipodi-0.dtd"
   xmlns="http://www.w3.org/2000/svg"
   xmlns:svg="http://www.w3.org/2000/svg">
  <sodipodi:namedview
     id="namedview7084"
     pagecolor="#505050"
     bordercolor="#ffffff"
     borderopacity="1"
     inkscape:pageshadow="0"
     inkscape:pageopacity="0"
     inkscape:pagecheckerboard="1"
     inkscape:document-units="mm"
     showgrid="false"
     inkscape:zoom="0.58974467"
     inkscape:cx="397.62971"
     inkscape:cy="272.9995"
     inkscape:window-width="1440"
     inkscape:window-height="890"
     inkscape:window-x="-6"
     inkscape:window-y="-6"
     inkscape:window-maximized="1"
     inkscape:current-layer="layer1" />
  <defs
     id="defs7079" />
  <g
     inkscape:label="Laag 1"
     inkscape:groupmode="layer"
     id="layer1">
    <g
       id="g7098"
       transform="translate(-1.345921,-0.0805262)">
      <path
         style="fill:#d0d0d0;fill-opacity:1;stroke-width:0.610757"
         d="m 19.001606,94.024555 c 0.19854,-0.321246 0.764441,-0.429258 1.257558,-0.240033 1.262502,0.48447 1.113728,0.824118 -0.360983,0.824118 -0.691657,0 -1.095116,-0.262839 -0.896575,-0.584085 z m -6.759866,-2.622387 -1.163484,-1.374202 1.374202,1.163485 c 1.291412,1.093389 1.652244,1.584919 1.163484,1.584919 -0.115895,0 -0.734286,-0.618391 -1.374202,-1.374202 z m 13.494673,0.152689 c 0.608,-0.671832 1.242874,-1.221513 1.410832,-1.221513 0.167958,0 -0.192076,0.549681 -0.800075,1.221513 -0.608,0.671832 -1.242875,1.221513 -1.410833,1.221513 -0.167958,0 0.192076,-0.549681 0.800076,-1.221513 z M 14.359512,89.26452 c -0.759702,-0.968696 -0.7381,-0.990299 0.230594,-0.230597 0.587853,0.46103 1.068824,0.942 1.068824,1.068824 0,0.502677 -0.501544,0.179141 -1.299418,-0.838227 z M 9.6930623,84.836535 c 0,-1.175706 0.1256906,-1.656677 0.279313,-1.068824 0.1536217,0.587854 0.1536217,1.549795 0,2.137648 -0.1536224,0.587853 -0.279313,0.106883 -0.279313,-1.068824 z m 18.9334527,0 c 0,-1.175706 0.12569,-1.656677 0.279313,-1.068824 0.153622,0.587854 0.153622,1.549795 0,2.137648 -0.153623,0.587853 -0.279313,0.106883 -0.279313,-1.068824 z M 12.299769,78.118214 c 0.608,-0.671833 1.242875,-1.221514 1.410833,-1.221514 0.167958,0 -0.192077,0.549681 -0.800076,1.221514 -0.608,0.671832 -1.242874,1.221513 -1.410832,1.221513 -0.167959,0 0.192076,-0.549681 0.800075,-1.221513 z m 13.378615,-0.15269 -1.163484,-1.374202 1.374202,1.163485 c 1.291411,1.093389 1.652244,1.58492 1.163484,1.58492 -0.115895,0 -0.734286,-0.618391 -1.374202,-1.374203 z m -7.423739,-2.711349 c 0.587854,-0.153618 1.549795,-0.153618 2.137648,0 0.587854,0.153623 0.106883,0.279317 -1.068824,0.279317 -1.175706,0 -1.656677,-0.125694 -1.068824,-0.279317 z"
         id="path7106" />
      <path
         style="fill:#b9b9b9;fill-opacity:1;stroke-width:0.610757"
         d="m 17.376683,94.191426 c 0.44089,-0.176429 0.967667,-0.154735 1.170617,0.04819 0.202949,0.202948 -0.157779,0.3473 -0.801618,0.320781 -0.711497,-0.02932 -0.85622,-0.174029 -0.368999,-0.368994 z"
         id="path7104" />
      <path
         style="fill:#a3a3a3;fill-opacity:1;stroke-width:0.610757"
         d="M 14.846708,98.534925 C 8.1251916,96.397827 3.7152957,88.823835 5.2360101,82.02857 7.7879801,70.625165 21.244764,66.570719 29.417025,74.742977 c 3.618699,3.618702 5.037506,8.23822 3.980659,12.960706 -1.87245,8.366992 -10.485289,13.395717 -18.550976,10.831242 z M 25.013959,92.597596 C 30.964088,88.059211 30.019556,79.213276 23.241399,75.99683 16.7536,72.918171 8.8960061,78.599349 9.7057471,85.783348 10.538404,93.170656 19.204857,97.028414 25.013959,92.597596 Z m -6.912003,0.390334 c 0,-0.555477 -1.099361,-2.024878 -2.443026,-3.265342 -2.109799,-1.947758 -2.443026,-2.607821 -2.443026,-4.839214 0,-3.62076 2.514365,-6.154404 6.107565,-6.154404 7.250547,0 8.355947,9.82681 1.576704,14.016612 -2.451706,1.515238 -2.798217,1.545251 -2.798217,0.242348 z"
         id="path7102" />
      <path
         style="fill:#333333;fill-opacity:1;stroke-width:0.610757"
         d="M 45.255355,84.943454 C 42.302132,83.562003 39.857103,80.810825 38.837814,77.722346 37.842149,74.705453 38.448653,67.629545 40.269693,61.017031 l 1.429684,-5.191431 8.94524,-0.168892 8.94524,-0.168892 0.940551,3.235382 c 1.335187,4.592879 2.768582,12.389443 2.761565,15.020759 -0.0095,3.562207 -2.560354,8.309636 -5.515727,10.265406 -3.36791,2.228779 -8.874875,2.639611 -12.520891,0.934091 z M 13.521282,64.944562 C 11.171261,63.724838 8.4368882,61.134667 7.4408176,59.184761 5.4946449,55.374938 5.7853885,49.89787 8.4539826,40.098619 l 1.28902,-4.733363 h 8.7752674 8.775268 l 0.64747,1.679581 c 1.324715,3.436399 2.960828,12.186933 2.973618,15.904001 0.02021,5.874318 -2.5041,9.939392 -7.457269,12.008959 -2.899362,1.211429 -7.588563,1.205187 -9.936075,-0.01325 z m 64.129436,0 c -2.35002,-1.219724 -5.084395,-3.809895 -6.080466,-5.759801 -1.946169,-3.809823 -1.655425,-9.286891 1.013166,-19.086142 l 1.28902,-4.733363 h 7.521057 7.521058 l 1.288647,4.427985 c 0.708753,2.435392 1.538789,5.115086 1.844515,5.954876 0.680047,1.867985 1.071762,4.034453 1.131909,6.260255 0.02498,0.923769 0.344382,1.67958 0.709828,1.67958 0.813637,0 0.412725,-2.837805 -1.625706,-11.507361 -0.816765,-3.473762 -1.330655,-6.565717 -1.141974,-6.871011 0.199815,-0.323307 -3.400375,-0.55508 -8.622184,-0.55508 h -8.965247 l 0.416555,-7.176389 c 0.395214,-6.808852 0.500624,-7.245926 2.058188,-8.534127 0.9029,-0.746756 2.122605,-1.777407 2.710458,-2.290337 0.587853,-0.51293 1.343664,-0.9326 1.679581,-0.9326 0.850533,0 0.765363,-2.044118 -0.122152,-2.931631 -1.050849,-1.05085 -3.47121,-0.882397 -6.290792,0.437829 -2.916643,1.365675 -20.766134,19.240517 -21.24439,21.274566 -0.17771,0.755811 -0.05437,1.374202 0.274094,1.374202 0.328462,0 1.009464,0.412261 1.513338,0.916135 0.814342,0.814342 0.756074,0.916134 -0.52441,0.916134 -1.023994,0 -1.468387,0.369604 -1.536829,1.278187 -0.0877,1.164323 0.175152,1.259537 2.950694,1.068824 l 3.046976,-0.209363 -0.179571,3.053783 -0.179572,3.053783 -5.496809,-0.09459 c -4.036216,-0.06946 -4.704271,0.01168 -2.514165,0.305379 2.821679,0.378386 2.99076,0.50544 3.133049,2.354286 0.106007,1.377405 -0.143434,2.032594 -0.844995,2.219489 -0.547471,0.145845 0.836868,0.297055 3.076309,0.336022 2.742547,0.04772 4.172271,-0.17837 4.379767,-0.692598 0.169431,-0.419895 0.329755,0.404627 0.356275,1.83227 l 0.04822,2.595715 h -9.542356 -9.542356 l 0.382435,-3.51185 c 0.210339,-1.931517 0.554803,-5.348294 0.765474,-7.592838 0.378986,-4.037803 0.413638,-4.101869 3.27459,-6.054169 2.245513,-1.532329 2.825161,-2.258024 2.594406,-3.24809 C 47.71979,32.543616 29.795727,14.656005 26.957929,13.327249 24.138348,12.007023 21.717987,11.83857 20.667137,12.88942 c -0.90969,0.90969 -0.963849,2.931631 -0.07853,2.931631 0.35991,0 1.066643,0.412261 1.570517,0.916135 0.814341,0.814342 0.775563,0.916135 -0.349004,0.916135 -0.857967,0 -1.265139,0.393131 -1.265139,1.221513 0,1.020888 0.407172,1.221513 2.479072,1.221513 1.497188,0 2.329567,-0.241902 2.101602,-0.610756 -0.207607,-0.335917 -0.115812,-0.610757 0.203989,-0.610757 0.883033,0 1.322903,1.619851 1.322903,4.871685 v 2.939511 l -2.290336,-0.53187 c -1.259686,-0.292527 -3.93938,-0.487583 -5.954876,-0.433458 l -3.66454,0.09841 3.206472,0.224317 c 3.190321,0.223187 3.206472,0.234698 3.206472,2.285264 0,1.44923 -0.317241,2.14385 -1.068824,2.340259 -0.587853,0.153623 0.766197,0.311195 3.009,0.350162 3.406276,0.05918 4.123821,-0.105168 4.357136,-0.997975 0.153622,-0.587853 0.311606,0.305378 0.351075,1.984958 l 0.07176,3.053783 -9.233532,-0.184045 -9.233531,-0.184044 0.4145913,-7.145034 c 0.3931647,-6.775771 0.4994327,-7.215203 2.0562287,-8.502771 0.9029,-0.746756 2.122607,-1.777407 2.71046,-2.290337 0.587853,-0.51293 1.343665,-0.9326 1.679581,-0.9326 0.850533,0 0.765361,-2.044118 -0.122152,-2.931631 C 15.660308,12.402193 12.998743,12.15651 8.2076976,12.15651 H 1.0007735 V 10.629617 9.1027255 h 7.8176836 c 5.3545729,0 8.0534029,0.2357197 8.5658349,0.7481517 0.590366,0.5903648 1.00081,0.5903648 1.946135,0 1.744317,-1.0893441 6.036332,-0.8920245 8.849012,0.4068218 1.411402,0.65176 6.634,5.22393 12.36782,10.827515 l 9.924794,9.699368 9.924793,-9.699368 c 5.733819,-5.603585 10.956417,-10.175755 12.36782,-10.827515 2.792525,-1.2895402 7.6409,-1.5149839 8.749063,-0.4068218 0.590363,0.5903648 1.00081,0.5903648 1.946133,0 0.779307,-0.4866831 3.869008,-0.7481517 8.840725,-0.7481517 h 7.642744 v 1.5268915 1.526891 h -7.206927 c -4.791043,0 -7.45261,0.245683 -7.939834,0.732908 -0.909692,0.90969 -0.963848,2.931631 -0.07852,2.931631 0.359906,0 1.066643,0.412261 1.570517,0.916135 0.81434,0.814342 0.775563,0.916135 -0.349004,0.916135 -0.857967,0 -1.26514,0.393131 -1.26514,1.221513 0,1.020888 0.407173,1.221513 2.479073,1.221513 1.497184,0 2.329566,-0.241902 2.101601,-0.610756 -0.207608,-0.335917 -0.115811,-0.610757 0.203987,-0.610757 0.883038,0 1.322905,1.619851 1.322905,4.871685 v 2.939511 L 88.491647,26.15416 c -1.259686,-0.292527 -3.93938,-0.487583 -5.954877,-0.433458 l -3.664539,0.09841 3.206472,0.224317 c 3.190323,0.223187 3.206472,0.234698 3.206472,2.285264 0,1.44923 -0.317239,2.14385 -1.068824,2.340259 -0.587853,0.153623 0.766194,0.311195 3.009002,0.350162 3.399678,0.05907 4.127437,-0.106897 4.37618,-0.997975 0.164092,-0.587853 0.289126,0.580218 0.277852,2.595715 -0.0113,2.015497 0.583675,5.863263 1.322129,8.550591 0.738453,2.687329 1.492945,7.233542 1.676649,10.102695 0.364572,5.693957 -0.534205,8.549712 -3.58701,11.397322 -3.328666,3.104933 -9.924128,4.205962 -13.640435,2.277102 z M 54.729661,43.939704 c 1.512008,-0.956224 0.09427,-1.550748 -3.697997,-1.550748 -4.280853,0 -5.078351,1.324711 -1.017679,1.690449 1.427643,0.128586 2.870556,0.2776 3.206472,0.331143 0.335916,0.05354 1.015058,-0.158336 1.509204,-0.470844 z M 22.865215,23.031309 c 0.173176,-0.899226 -0.302603,-1.010442 -3.627971,-0.848056 -6.297942,0.307543 -4.926668,1.92429 1.604752,1.892019 1.224033,-0.006 1.889459,-0.349401 2.023219,-1.043963 z m 64.129437,0 c 0.173174,-0.899226 -0.302606,-1.010442 -3.627973,-0.848056 -6.297945,0.307543 -4.926668,1.92429 1.60475,1.892019 1.224036,-0.006 1.889461,-0.349401 2.023223,-1.043963 z"
         id="path7100" />
    </g>
  </g>
</svg>
