<?xml version="1.0" encoding="UTF-8" standalone="no"?>
<!-- Created with Inkscape (http://www.inkscape.org/) -->

<svg
   width="100mm"
   height="100mm"
   viewBox="0 0 100 100"
   version="1.1"
   id="svg1766"
   inkscape:version="1.1.1 (3bf5ae0d25, 2021-09-20)"
   sodipodi:docname="add_list_type_device_6085.svg"
   xmlns:inkscape="http://www.inkscape.org/namespaces/inkscape"
   xmlns:sodipodi="http://sodipodi.sourceforge.net/DTD/sodipodi-0.dtd"
   xmlns="http://www.w3.org/2000/svg"
   xmlns:svg="http://www.w3.org/2000/svg">
  <sodipodi:namedview
     id="namedview1768"
     pagecolor="#505050"
     bordercolor="#ffffff"
     borderopacity="1"
     inkscape:pageshadow="0"
     inkscape:pageopacity="0"
     inkscape:pagecheckerboard="1"
     inkscape:document-units="mm"
     showgrid="false"
     inkscape:zoom="0.58974467"
     inkscape:cx="397.62971"
     inkscape:cy="274.69515"
     inkscape:window-width="1440"
     inkscape:window-height="890"
     inkscape:window-x="-6"
     inkscape:window-y="-6"
     inkscape:window-maximized="1"
     inkscape:current-layer="layer1" />
  <defs
     id="defs1763" />
  <g
     inkscape:label="Laag 1"
     inkscape:groupmode="layer"
     id="layer1">
    <g
       id="g1782"
       transform="translate(4.1691842e-6,-0.4486403)">
      <path
         style="fill:#d0d0d0;fill-opacity:1;stroke-width:0.599679"
         d="m 41.927748,90.201904 c -0.469058,-0.758954 0.324803,-0.758954 1.499198,0 0.775197,0.500971 0.759369,0.582582 -0.114529,0.590498 -0.557726,0.005 -1.180826,-0.260675 -1.384669,-0.590498 z m 15.760171,-0.935002 c 0.969073,-0.678764 1.195925,-1.212875 0.827783,-1.948957 -0.349652,-0.699111 -0.164102,-1.339814 0.597569,-2.063393 0.607578,-0.577191 1.104686,-0.79551 1.104686,-0.485152 0,0.310358 -0.298666,0.748873 -0.663702,0.974478 -0.481921,0.297843 -0.477042,0.525553 0.01782,0.831395 0.791497,0.48917 -1.396783,3.626631 -2.529465,3.626631 -0.379273,0 -0.08888,-0.420753 0.645313,-0.935002 z M 39.395991,88.32979 c -0.887343,-0.887339 -0.298481,-2.328062 0.946799,-2.316458 0.802647,0.0075 0.830136,0.10742 0.148297,0.539159 -0.46034,0.291486 -0.671201,0.961993 -0.46858,1.490017 0.435062,1.133753 0.287578,1.201379 -0.626516,0.287282 z m 8.978307,-1.539658 c 0.577191,-0.150831 1.521685,-0.150831 2.098876,0 0.577191,0.150837 0.104944,0.274251 -1.049438,0.274251 -1.154382,0 -1.62663,-0.123414 -1.049438,-0.274251 z m -9.145105,-3.203515 c 0,-0.319473 0.404783,-0.580861 0.899519,-0.580861 0.494735,0 0.899518,0.106059 0.899518,0.23568 0,0.129626 -0.404783,0.391008 -0.899518,0.580861 -0.494736,0.189846 -0.899519,0.08379 -0.899519,-0.23568 z m 9.444944,0.221341 c 0.412279,-0.166356 1.086918,-0.166356 1.499197,0 0.41228,0.166357 0.07496,0.302473 -0.749598,0.302473 -0.824559,0 -1.161878,-0.136116 -0.749599,-0.302473 z m -1.349278,-7.99835 c 0,-1.845842 0.563979,-2.382896 1.102042,-1.049438 0.241976,0.599679 0.311938,0.599679 0.349813,0 0.02604,-0.412279 0.452126,-0.749599 0.946861,-0.749599 0.599679,0 0.899519,0.599679 0.899519,1.799037 0,1.5628 -0.216551,1.799037 -1.649118,1.799037 -1.432566,0 -1.649117,-0.236237 -1.649117,-1.799037 z m -8.172158,0.14992 c -0.745923,-0.951127 -0.724713,-0.972338 0.226412,-0.226415 0.577191,0.452668 1.049438,0.924915 1.049438,1.049438 0,0.49356 -0.492448,0.175892 -1.27585,-0.823023 z m 19.33717,-1.449226 0.07095,-1.998928 0.430019,1.799037 0.430019,1.799037 0.335429,-1.799037 0.335428,-1.799037 -0.0868,1.752789 c -0.04774,0.964038 -0.424119,1.863557 -0.836398,1.998928 -0.507443,0.166627 -0.726678,-0.399608 -0.678647,-1.752789 z m -22.21173,-6.846331 c 0.02877,-0.698596 0.170873,-0.84069 0.362306,-0.362308 0.17323,0.43289 0.151925,0.950113 -0.04734,1.149386 -0.199269,0.199268 -0.341002,-0.154921 -0.314964,-0.787078 z M 67.414105,11.344118 C 65.957467,9.8599121 64.900599,8.6455622 65.06551,8.6455622 c 0.164912,0 1.491636,1.2143499 2.948274,2.6985558 1.456638,1.484205 2.513507,2.698555 2.348595,2.698555 -0.164912,0 -1.491636,-1.21435 -2.948274,-2.698555 z M 63.139857,7.596124 c -0.745922,-0.9511242 -0.724712,-0.9723351 0.226415,-0.226412 0.998915,0.7834022 1.316583,1.2758502 0.823023,1.2758502 -0.124523,0 -0.59677,-0.4722472 -1.049438,-1.0494382 z"
         id="path1798" />
      <path
         style="fill:#b9b9b9;fill-opacity:1;stroke-width:0.599679"
         d="m 43.553222,90.478931 c -1.068264,-1.211207 0.40523,-1.208461 2.007903,0.0036 1.148481,0.868665 1.148009,0.880395 -0.0353,0.876707 -0.659647,-0.0018 -1.547317,-0.398259 -1.9726,-0.880449 z m 4.829321,0.492013 c 0.911549,-0.137842 2.260827,-0.134154 2.998395,0.0082 0.737567,0.142339 -0.0082,0.255115 -1.657363,0.250617 -1.649117,-0.0048 -2.252582,-0.120967 -1.341032,-0.258803 z m 5.503482,-0.488271 c 1.328276,-1.00466 2.733858,-1.158687 2.733858,-0.299587 0,0.319467 -0.404783,0.425526 -0.899518,0.23568 -0.494735,-0.189853 -0.899518,-0.04648 -0.899518,0.318657 0,0.365115 -0.472248,0.655257 -1.049439,0.644769 -0.949566,-0.01727 -0.938657,-0.102863 0.114617,-0.899519 z M 40.72839,89.602225 c -0.203842,-0.329824 -0.08484,-0.599679 0.264449,-0.599679 0.349288,0 0.63507,0.269855 0.63507,0.599679 0,0.329823 -0.119002,0.599679 -0.264448,0.599679 -0.145447,0 -0.431228,-0.269856 -0.635071,-0.599679 z m -0.899518,-2.098877 c 0,-0.494735 0.261386,-0.899518 0.580858,-0.899518 0.319472,0 0.425529,0.404783 0.235681,0.899518 -0.189848,0.494735 -0.451234,0.899519 -0.580859,0.899519 -0.129624,0 -0.23568,-0.404784 -0.23568,-0.899519 z m 17.816613,-0.299839 c -0.172501,-0.659647 -0.213469,-1.199358 -0.09104,-1.199358 0.122429,0 0.511443,0.539711 0.864475,1.199358 0.354613,0.662597 0.395357,1.199358 0.09104,1.199358 -0.302961,0 -0.691975,-0.539711 -0.864476,-1.199358 z M 38.825549,86.358255 c 0.233386,-0.608188 0.154497,-1.430936 -0.175308,-1.828325 -0.435258,-0.524455 -0.277047,-0.698764 0.577116,-0.635834 1.302162,0.09593 2.434577,0.910697 1.265749,0.910697 -0.404259,0 -0.612487,0.202391 -0.462728,0.449759 0.149758,0.247368 -0.155539,0.845703 -0.678438,1.329632 -0.845857,0.782821 -0.90392,0.757899 -0.526391,-0.225929 z M 58.12741,84.8209 c -0.842941,-1.630071 -0.838281,-1.750805 0.05436,-1.408268 0.818068,0.31392 0.871244,0.178267 0.328009,-0.83678 -0.356589,-0.666291 -0.470123,-1.38966 -0.252299,-1.607481 0.6492,-0.649201 0.700252,-2.160368 0.07299,-2.160368 -0.320104,0 -0.415228,-0.269856 -0.211386,-0.599679 0.203842,-0.329823 0.122262,-0.599679 -0.18129,-0.599679 -0.303551,0 -0.416726,-0.707177 -0.2515,-1.571501 l 0.300411,-1.5715 0.801688,1.906655 c 0.696588,1.656697 1.024408,5.815801 0.723731,9.182093 C 59.384145,86.987175 59.196133,86.88758 58.12741,84.8209 Z M 46.91258,83.795467 c 0.432893,-0.173229 0.950116,-0.151929 1.149385,0.04731 0.199268,0.199267 -0.154918,0.341001 -0.787079,0.314963 -0.698592,-0.02878 -0.84069,-0.170872 -0.362306,-0.362302 z m 2.810995,-0.190032 -1.199358,-0.515382 1.199358,-0.03298 c 0.659647,-0.01811 1.604141,0.228622 2.098877,0.548347 0.799571,0.516725 0.799571,0.577653 0,0.548346 -0.494736,-0.01811 -1.43923,-0.264884 -2.098877,-0.548346 z M 38.929354,79.783873 c 0,-2.135823 0.226892,-3.134816 0.673092,-2.963596 0.442317,0.169733 0.562498,-0.319059 0.350526,-1.425629 -0.177411,-0.926156 -0.435327,-1.346597 -0.573146,-0.934318 -0.391679,1.171695 -1.349991,0.878884 -1.349991,-0.412489 0,-0.783924 0.381919,-1.133321 1.173628,-1.073683 0.645496,0.04863 1.074942,0.187094 0.954326,0.307713 -0.120617,0.120614 0.01693,1.043022 0.305675,2.049793 0.324912,1.132901 0.29417,2.261761 -0.08067,2.96215 -0.4593,0.858213 -0.385765,1.216041 0.304322,1.480848 0.80436,0.308666 0.806722,0.452433 0.02035,1.23881 -0.489291,0.48929 -0.736285,1.137717 -0.548877,1.440951 0.18741,0.303234 -0.0125,0.551333 -0.444245,0.551333 -0.549463,0 -0.78499,-0.966695 -0.78499,-3.221883 z m 9.087128,0.766959 c 1.157279,-0.335203 2.436994,-0.328966 3.298234,0.01607 1.129419,0.452482 0.756082,0.560622 -1.89098,0.547723 -2.98276,-0.01451 -3.117364,-0.06847 -1.407254,-0.563793 z m -0.03504,-2.320566 c -1.489358,-0.27509 -1.750389,-0.608368 -1.799037,-2.296962 -0.04531,-1.572754 0.218004,-2.04418 1.292373,-2.313807 2.615832,-0.656487 4.19508,0.207968 4.455527,2.438888 0.267192,2.288693 -0.633742,2.784207 -3.948863,2.171881 z m 2.641652,-2.380551 c 0,-1.530411 -0.214251,-1.752838 -1.649118,-1.712036 -1.402995,0.03988 -1.649117,0.3024 -1.649117,1.758925 0,1.467894 0.235173,1.712041 1.649117,1.712041 1.42421,0 1.649118,-0.239884 1.649118,-1.75893 z M 36.278141,65.864934 c 0.02877,-0.698596 0.170873,-0.84069 0.362306,-0.362308 0.17323,0.43289 0.151925,0.950113 -0.04734,1.149386 -0.199269,0.199268 -0.341002,-0.154921 -0.314964,-0.787078 z M 27.952573,40.65627 c 0.671259,-0.200092 1.098828,-1.106958 1.25818,-2.668574 l 0.241379,-2.365482 -0.05882,2.547913 c -0.04814,2.085254 -0.276606,2.569824 -1.258179,2.668575 -0.872453,0.08777 -0.922213,0.03805 -0.18256,-0.182432 z m 0.221114,-6.648408 c -0.325437,-0.854661 -0.256555,-0.923543 0.335697,-0.335697 0.409832,0.406782 0.594085,0.890668 0.409452,1.075301 -0.184634,0.184634 -0.519951,-0.148188 -0.745149,-0.739604 z M 41.420725,7.596124 c -0.152882,-0.2473676 3.448473,-0.4497593 8.003011,-0.4497593 4.554537,0 8.155892,0.2023917 8.003011,0.4497593 -0.363037,0.5874047 -15.642986,0.5874047 -16.006022,0 z"
         id="path1796" />
      <path
         style="fill:#a3a3a3;fill-opacity:1;stroke-width:0.599679"
         d="M 13.742793,97.06857 C 10.10941,95.317435 8.3533792,93.614485 6.7361255,90.273679 3.3302414,83.238066 6.2621993,74.942868 13.371219,71.501454 c 7.035617,-3.405882 15.330812,-0.473926 18.772229,6.635094 3.405884,7.035614 0.473926,15.330812 -6.635094,18.772225 -3.750645,1.81566 -8.204344,1.876144 -11.765561,0.159797 z m 11.284272,-5.243161 c 5.842209,-4.456071 4.914808,-13.141564 -1.74041,-16.299671 -6.396633,-3.035401 -14.0851888,2.555454 -13.284407,9.659965 0.816603,7.244884 9.310298,10.998382 15.024817,6.639706 z m -6.786636,0.383254 c 0,-0.545402 -1.079422,-1.988151 -2.398716,-3.206117 -2.071533,-1.912431 -2.398716,-2.560522 -2.398716,-4.751443 0,-3.555089 2.468761,-6.042779 5.99679,-6.042779 7.119039,0 8.204391,9.648577 1.548106,13.762387 -2.407239,1.487755 -2.747464,1.517224 -2.747464,0.237952 z m 35.680899,0.991636 c 0.596972,-0.659647 1.220332,-1.199358 1.385244,-1.199358 0.164911,0 -0.188593,0.539711 -0.785565,1.199358 -0.596972,0.659646 -1.220332,1.199358 -1.385243,1.199358 -0.164912,0 0.188592,-0.539712 0.785564,-1.199358 z m -7.912775,-2.338173 c -1.314484,-1.097388 -1.311991,-1.099343 1.799036,-1.408982 1.713439,-0.170536 3.965666,-0.180047 5.004949,-0.02111 1.856812,0.283912 1.86982,0.308709 0.749599,1.428927 -1.507589,1.507593 -5.748381,1.508258 -7.553584,0.0012 z m 5.372385,0.117004 c -0.737568,-0.14234 -2.086846,-0.146028 -2.998395,-0.0082 -0.91155,0.137836 -0.308085,0.2543 1.341032,0.258803 1.649117,0.0042 2.39493,-0.108278 1.657363,-0.250617 z M 40.485077,88.103027 c -0.07961,-1.251134 0.863102,-2.042866 1.758338,-1.476727 0.751935,0.475521 0.734674,0.560214 -0.115774,0.568028 -0.549705,0.0048 -1.135576,0.3465 -1.301934,0.758779 -0.166359,0.41228 -0.319642,0.479744 -0.34063,0.14992 z m 10.025577,-0.709486 c 0.432893,-0.173229 0.950116,-0.151929 1.149385,0.04731 0.199268,0.199267 -0.154918,0.341001 -0.787079,0.314963 -0.698592,-0.02878 -0.84069,-0.170872 -0.362306,-0.362302 z m 2.398716,-0.599679 c 0.432893,-0.173229 0.950116,-0.151929 1.149385,0.04731 0.199268,0.199267 -0.154918,0.341001 -0.787079,0.314963 -0.698592,-0.02878 -0.84069,-0.170872 -0.362306,-0.362302 z m 3.598074,0 c 0.432893,-0.173229 0.950116,-0.151929 1.149385,0.04731 0.199268,0.199267 -0.154918,0.341001 -0.787079,0.314963 -0.698592,-0.02878 -0.84069,-0.170872 -0.362306,-0.362302 z m -7.826315,-0.614161 c 0.745948,-0.143437 1.82537,-0.137992 2.398716,0.01211 0.573345,0.150094 -0.03698,0.267457 -1.35627,0.260801 -1.319294,-0.0067 -1.788394,-0.129465 -1.042446,-0.272902 z m 4.190761,-2.371743 c 0.412279,-0.166356 1.086918,-0.166356 1.499197,0 0.41228,0.166357 0.07496,0.302473 -0.749598,0.302473 -0.824559,0 -1.161878,-0.136116 -0.749599,-0.302473 z m -5.359631,-0.61217 c 0.432893,-0.173229 0.950116,-0.151929 1.149385,0.04732 0.199268,0.199267 -0.154918,0.341001 -0.787079,0.314963 -0.698592,-0.02878 -0.84069,-0.170872 -0.362306,-0.362302 z m 10.007143,-0.789711 c -0.203842,-0.329824 -0.08484,-0.599679 0.264448,-0.599679 0.349289,0 0.63507,0.269855 0.63507,0.599679 0,0.329823 -0.119001,0.599679 -0.264448,0.599679 -0.145447,0 -0.431228,-0.269856 -0.63507,-0.599679 z M 40.211691,81.506558 c 0.189848,-0.494735 0.451234,-0.899518 0.580859,-0.899518 0.129624,0 0.23568,0.404783 0.23568,0.899518 0,0.494736 -0.261386,0.899519 -0.580858,0.899519 -0.319472,0 -0.425529,-0.404783 -0.235681,-0.899519 z m 4.901852,-0.709486 c 0.432893,-0.173229 0.950116,-0.151928 1.149385,0.04731 0.199268,0.199267 -0.154918,0.341001 -0.787079,0.314963 -0.698592,-0.02878 -0.84069,-0.170872 -0.362306,-0.362302 z m 7.758347,0.01247 c 0.412279,-0.166357 1.086918,-0.166357 1.499197,0 0.41228,0.166356 0.07496,0.302472 -0.749598,0.302472 -0.824559,0 -1.161878,-0.136116 -0.749599,-0.302472 z m -5.359631,-0.612171 c 0.432893,-0.173229 0.950116,-0.151928 1.149385,0.04732 0.199268,0.199267 -0.154918,0.341001 -0.787079,0.314963 -0.698592,-0.02878 -0.84069,-0.170872 -0.362306,-0.362302 z m -7.262915,-1.78916 c 0.504253,-0.769586 1.174919,-1.399249 1.490369,-1.399249 0.315449,0 0.147004,0.42654 -0.374321,0.947865 -0.521326,0.521325 -0.822327,1.150988 -0.668892,1.399249 0.153435,0.248267 -0.09069,0.45139 -0.542504,0.45139 -0.668274,0 -0.650492,-0.260956 0.09535,-1.399255 z m 17.359086,0.715387 c -0.185068,-0.48228 -0.03672,-1.062133 0.329657,-1.288566 0.384384,-0.237563 0.49855,-0.140529 0.269913,0.229413 -0.217927,0.352617 -0.07052,0.749689 0.327567,0.882386 0.508524,0.169505 0.528324,0.362074 0.06657,0.647449 -0.361474,0.223405 -0.808644,0.01157 -0.993711,-0.470682 z m -9.496492,-0.725246 c 0.432893,-0.173229 0.950116,-0.151928 1.149385,0.04731 0.199268,0.199267 -0.154918,0.341001 -0.787079,0.314963 -0.698592,-0.02878 -0.84069,-0.170872 -0.362306,-0.362302 z m -2.988734,-2.588748 c 0.167788,-1.759422 0.491659,-2.386099 1.215204,-2.351371 0.542549,0.02603 0.71199,0.162501 0.376538,0.303251 -0.335452,0.140745 -0.565562,1.198867 -0.511356,2.351372 0.05926,1.259925 -0.182093,2.095464 -0.605292,2.095464 -0.459496,0 -0.624433,-0.83275 -0.475094,-2.398716 z m 7.099034,1.998928 c -0.219883,-0.219878 -0.399786,-1.141885 -0.399786,-2.048899 0,-0.907015 -0.33732,-1.785232 -0.749599,-1.951589 -0.447805,-0.180696 -0.327088,-0.32153 0.299839,-0.349811 0.773027,-0.0349 1.049439,0.418654 1.049439,1.721894 0,1.052347 0.425228,2.016912 1.049438,2.38048 0.88878,0.517667 0.904081,0.614035 0.09995,0.629477 -0.522221,0.01001 -1.129396,-0.161668 -1.349278,-0.381552 z m 7.196148,0 c -0.219883,-0.219878 -0.399787,-0.678633 -0.399787,-1.019454 0,-0.375759 0.279314,-0.340354 0.70962,0.08995 0.390292,0.390295 0.570196,0.849049 0.399787,1.019454 -0.170409,0.170411 -0.489738,0.129932 -0.70962,-0.08995 z m -1.873375,-3.756527 c -0.189757,-0.307036 -0.115731,-0.699945 0.164502,-0.873139 0.280233,-0.173193 0.509515,0.07801 0.509515,0.558242 0,1.01116 -0.189101,1.099505 -0.674017,0.314897 z M 35.631119,10.744439 c 0.774632,-0.824559 1.543351,-1.4991978 1.708262,-1.4991978 0.164912,0 -0.333951,0.6746388 -1.108583,1.4991978 -0.774632,0.824558 -1.54335,1.499197 -1.708262,1.499197 -0.164912,0 0.333951,-0.674639 1.108583,-1.499197 z m 26.30938,-0.7495991 c -0.74592,-0.9511245 -0.724709,-0.9723351 0.226415,-0.2264118 0.577191,0.4526639 1.049438,0.9249109 1.049438,1.0494379 0,0.493556 -0.49245,0.175888 -1.275853,-0.8230261 z"
         id="path1794" />
      <path
         style="fill:#8c8c8c;fill-opacity:1;stroke-width:0.599679"
         d="m 45.713222,91.591294 c 0.432893,-0.173229 0.950116,-0.151929 1.149385,0.04731 0.199268,0.199267 -0.154918,0.341001 -0.787079,0.314963 -0.698592,-0.02878 -0.84069,-0.170873 -0.362306,-0.362302 z m 1.761557,-2.386225 c 0.412279,-0.166357 1.086918,-0.166357 1.499197,0 0.41228,0.166357 0.07496,0.302472 -0.749598,0.302472 -0.824559,0 -1.161878,-0.136115 -0.749599,-0.302472 z m -4.102214,-2.047861 c -0.615072,-0.389372 -0.39621,-0.537511 0.80398,-0.544197 1.790781,-0.01 2.113235,0.28408 0.845137,0.770695 -0.442189,0.169685 -1.184292,0.06776 -1.649117,-0.226498 z m 3.802375,0.232603 c 0.577191,-0.150831 1.521685,-0.150831 2.098876,0 0.577191,0.150837 0.104944,0.274251 -1.049438,0.274251 -1.154382,0 -1.626629,-0.123414 -1.049438,-0.274251 z m 6.446549,-0.186302 c 0.494735,-0.319725 1.304301,-0.581311 1.799037,-0.581311 0.799571,0 0.799571,0.06459 0,0.581311 -0.494736,0.319725 -1.304302,0.581311 -1.799037,0.581311 -0.799572,0 -0.799572,-0.06459 0,-0.581311 z m 3.214472,-2.263189 c 0.233791,-0.378283 -0.165707,-0.735092 -0.956782,-0.854548 l -1.358172,-0.20509 1.310549,-0.371196 c 1.418991,-0.401905 2.442349,0.943529 1.269161,1.668595 -0.387683,0.239602 -0.498356,0.140217 -0.264756,-0.237761 z M 41.334115,83.595654 c 0.207167,-0.335202 0.627876,-0.454209 0.93491,-0.264446 0.831781,0.514062 0.676684,0.873906 -0.376668,0.873906 -0.5142,0 -0.765409,-0.274257 -0.558242,-0.60946 z m 15.624163,-1.96504 c 0.225198,-0.591415 0.560515,-0.924237 0.745149,-0.739602 0.184633,0.184635 3.8e-4,0.668516 -0.409452,1.075302 -0.592252,0.587842 -0.661134,0.518963 -0.335697,-0.3357 z m -9.183659,-0.237593 c 0.577191,-0.150831 1.521685,-0.150831 2.098876,0 0.577191,0.150837 0.104944,0.274251 -1.049438,0.274251 -1.154382,0 -1.62663,-0.123414 -1.049438,-0.274251 z m -5.547031,-0.729839 c 0,-0.298946 0.539711,-0.402403 1.199358,-0.229899 0.659647,0.172504 1.199358,0.417095 1.199358,0.543537 0,0.126442 -0.539711,0.229899 -1.199358,0.229899 -0.659647,0 -1.199358,-0.244591 -1.199358,-0.543537 z m 12.593259,0.307857 c 0,-0.129627 0.404783,-0.391009 0.899518,-0.580861 0.494735,-0.189846 0.899518,-0.08379 0.899518,0.23568 0,0.319473 -0.404783,0.580861 -0.899518,0.580861 -0.494735,0 -0.899518,-0.106059 -0.899518,-0.23568 z m -3.148315,-2.560191 c 0.412279,-0.166357 1.086918,-0.166357 1.499197,0 0.41228,0.166357 0.07496,0.302472 -0.749598,0.302472 -0.824559,0 -1.161878,-0.136115 -0.749599,-0.302472 z m -8.129635,-0.574223 c 0.645262,-0.192431 1.108577,-1.109034 1.27086,-2.514208 l 0.255389,-2.211364 -0.0715,2.393726 c -0.05753,1.926157 -0.305776,2.417264 -1.27086,2.514208 -0.870073,0.0874 -0.92056,0.03736 -0.183889,-0.182362 z m 10.678271,0.1418 c 0,-0.126442 0.540083,-0.371129 1.200185,-0.543753 0.660102,-0.172617 1.048959,-0.06917 0.864127,0.229899 -0.322778,0.522267 -2.064312,0.787043 -2.064312,0.313854 z m -1.399251,-0.769568 c -0.219883,-0.219878 -0.399786,-1.209349 -0.399786,-2.198819 0,-0.98947 0.202391,-1.596645 0.449759,-1.349278 0.334515,0.334513 0.700426,3.947885 0.399786,3.947885 -0.02748,0 -0.229877,-0.179904 -0.449759,-0.399788 z M 40.653002,76.129231 c -0.185672,-0.483857 -0.221858,-1.22596 -0.08041,-1.649117 0.141445,-0.423158 0.399335,-0.02729 0.573088,0.879735 0.33926,1.770984 0.05939,2.208042 -0.492676,0.769382 z m 16.661247,-0.919302 c 0,-0.824558 0.136111,-1.161878 0.302469,-0.749599 0.166359,0.41228 0.166359,1.086919 0,1.499198 -0.166358,0.412279 -0.302469,0.07496 -0.302469,-0.749599 z"
         id="path1792" />
      <path
         style="fill:#767676;fill-opacity:1;stroke-width:0.599679"
         d="m 48.642813,94.618198 c -0.230139,-0.230139 -0.418435,-0.913168 -0.418435,-1.517848 0,-0.821782 0.454302,-1.099409 1.799037,-1.099409 1.152324,0 1.799037,0.305392 1.799037,0.849547 0,0.467246 0.337319,0.979456 0.749598,1.138239 0.41228,0.158777 0.209888,0.280164 -0.449759,0.269741 -0.659647,-0.01043 -1.618237,0.160402 -2.1302,0.379609 -0.511963,0.219207 -1.119138,0.210259 -1.349278,-0.01991 z M 46.312901,93.99001 c 0.432893,-0.173229 0.950116,-0.151929 1.149385,0.04731 0.199268,0.199268 -0.154918,0.341002 -0.787079,0.314964 -0.698592,-0.02878 -0.84069,-0.170873 -0.362306,-0.362302 z m -2.136356,-4.801162 c 0.577191,-0.150831 1.521685,-0.150831 2.098876,0 0.577191,0.150837 0.104944,0.274251 -1.049438,0.274251 -1.154382,0 -1.626629,-0.123414 -1.049438,-0.274251 z m -2.948422,-1.059441 c 0,-0.480229 0.229282,-0.731434 0.509515,-0.558241 0.280232,0.173193 0.354258,0.566103 0.164501,0.873139 -0.484915,0.784608 -0.674016,0.696263 -0.674016,-0.314898 z m 7.296094,0.27346 c -1.677748,-0.426918 -1.624826,-0.462563 0.78499,-0.528731 1.585723,-0.04354 2.440842,0.160732 2.213405,0.528731 -0.406761,0.658153 -0.411894,0.658153 -2.998395,0 z m -3.410674,-1.009326 c 0.432893,-0.173229 0.950116,-0.151929 1.149385,0.04731 0.199268,0.199267 -0.154918,0.341001 -0.787079,0.314963 -0.698592,-0.02878 -0.84069,-0.170872 -0.362306,-0.362302 z M 42.9886,86.188258 c 0.583468,-0.152042 1.393034,-0.142046 1.799037,0.02225 0.406002,0.16427 -0.07138,0.288668 -1.060852,0.276446 -0.98947,-0.01223 -1.321654,-0.146621 -0.738185,-0.298664 z m 11.3939,0 c 0.583468,-0.152042 1.393035,-0.142046 1.799037,0.02225 0.406002,0.16427 -0.07138,0.288668 -1.060851,0.276446 -0.98947,-0.01223 -1.321654,-0.146621 -0.738186,-0.298664 z m -4.059246,-0.783786 c 0.203842,-0.329824 0.640478,-0.599679 0.970301,-0.599679 0.329824,0 0.432899,0.269855 0.229057,0.599679 -0.203842,0.329823 -0.640477,0.599679 -0.970301,0.599679 -0.329823,0 -0.432899,-0.269856 -0.229057,-0.599679 z m 2.548636,-0.996835 c 0.412279,-0.166357 1.086918,-0.166357 1.499197,0 0.41228,0.166357 0.07496,0.302473 -0.749598,0.302473 -0.824559,0 -1.161878,-0.136116 -0.749599,-0.302473 z m -9.587872,-1.226331 c 0.745948,-0.143437 1.82537,-0.137992 2.398716,0.01211 0.573346,0.150094 -0.03698,0.267457 -1.35627,0.260801 -1.319293,-0.0067 -1.788394,-0.129465 -1.042446,-0.272902 z m 10.194543,0 c 0.745948,-0.143437 1.82537,-0.137992 2.398715,0.01211 0.573346,0.150094 -0.03698,0.267457 -1.356269,0.260801 -1.319294,-0.0067 -1.788394,-0.129465 -1.042446,-0.272902 z m -5.853862,-0.775229 c 0,-0.329824 0.809566,-0.599679 1.799037,-0.599679 0.98947,0 1.799037,0.269855 1.799037,0.599679 0,0.329823 -0.809567,0.599679 -1.799037,0.599679 -0.989471,0 -1.799037,-0.269856 -1.799037,-0.599679 z M 41.428016,82.006289 C 40.818438,81.396715 40.951222,80.60704 41.6633,80.60704 c 0.349289,0 0.482536,0.24681 0.296103,0.54846 -0.186432,0.301651 3.4e-5,0.685134 0.414368,0.852174 0.41659,0.167952 0.462937,0.324882 0.103683,0.351058 -0.357309,0.02603 -0.829556,-0.132559 -1.049438,-0.352443 z M 52.90937,81.396751 c 0.432893,-0.173229 0.950116,-0.151928 1.149385,0.04732 0.199268,0.199267 -0.154918,0.341001 -0.787079,0.314963 -0.698592,-0.02878 -0.84069,-0.170872 -0.362306,-0.362302 z m -9.321091,-1.205283 c 0.583468,-0.152042 1.393034,-0.142046 1.799037,0.02225 0.406002,0.16427 -0.07138,0.288667 -1.060852,0.276446 -0.98947,-0.01223 -1.321654,-0.146622 -0.738185,-0.298665 z m 9.58345,0.0024 c 0.577191,-0.150831 1.521686,-0.150831 2.098877,0 0.577191,0.150837 0.104944,0.274251 -1.049438,0.274251 -1.154382,0 -1.62663,-0.123414 -1.049439,-0.274251 z m -4.786018,-0.601874 c 0.583467,-0.152042 1.393034,-0.142046 1.799037,0.02225 0.406001,0.16427 -0.07138,0.288668 -1.060852,0.276446 -0.98947,-0.01223 -1.321654,-0.146621 -0.738185,-0.298664 z m -6.870242,-0.593958 c 0.432893,-0.173229 0.950117,-0.151928 1.149385,0.04731 0.199268,0.199267 -0.154917,0.341001 -0.787079,0.314963 -0.698591,-0.02878 -0.84069,-0.170872 -0.362306,-0.362302 z m 3.560594,-0.587187 c 0.412279,-0.166357 1.086918,-0.166357 1.499198,0 0.412279,0.166357 0.07496,0.302472 -0.749599,0.302472 -0.824559,0 -1.161878,-0.136115 -0.749599,-0.302472 z m -3.448154,-0.802203 c 0.494735,-0.319725 1.43923,-0.566481 2.098876,-0.548346 l 1.199358,0.03298 -1.199358,0.515382 c -0.659646,0.283462 -1.604141,0.530218 -2.098876,0.548346 -0.799572,0.02933 -0.799572,-0.0316 0,-0.548346 z m 13.196086,0.06385 c -0.822826,-0.228952 -1.537461,-0.881978 -1.588077,-1.451175 -0.0673,-0.756873 -0.01606,-0.790083 0.190742,-0.123624 0.155524,0.5012 0.735231,0.915404 1.288238,0.920453 0.553007,0.005 1.41025,0.270773 1.904985,0.590498 1.014548,0.655653 0.408422,0.6772 -1.795888,0.06385 z M 44.073968,75.459797 c 0.02877,-0.698596 0.170873,-0.84069 0.362306,-0.362308 0.17323,0.432891 0.151925,0.950114 -0.04734,1.149387 -0.199268,0.199267 -0.341002,-0.154921 -0.314963,-0.787079 z m 4.750089,-2.048905 -4.497593,-0.383602 4.312282,-0.108039 c 2.371755,-0.05942 4.479061,0.161818 4.682903,0.491641 0.203842,0.329824 0.287232,0.551063 0.185311,0.491641 -0.101921,-0.05942 -2.209227,-0.280656 -4.682903,-0.491641 z M 38.364238,72.26746 c -0.184832,-0.299066 0.204025,-0.402516 0.864127,-0.229899 1.400243,0.36617 1.577244,0.773652 0.336059,0.773652 -0.47527,0 -1.015354,-0.244687 -1.200186,-0.543753 z m 19.904763,0.146598 c 0.412279,-0.166357 1.086918,-0.166357 1.499197,0 0.412279,0.166357 0.07496,0.302472 -0.749599,0.302472 -0.824558,0 -1.161878,-0.136115 -0.749598,-0.302472 z m 3.842677,-7.398672 c 0,-0.824558 0.136115,-1.161878 0.302472,-0.749598 0.166357,0.412279 0.166357,1.086918 0,1.499197 -0.166357,0.412279 -0.302472,0.07496 -0.302472,-0.749599 z M 27.35252,29.334487 c 0.01222,-0.98947 0.146621,-1.321654 0.298666,-0.738186 0.152044,0.583468 0.142045,1.393035 -0.02222,1.799037 -0.164268,0.406002 -0.288668,-0.07138 -0.276447,-1.060851 z m 0.530115,-4.247726 c 0.02877,-0.698592 0.170873,-0.84069 0.362306,-0.362306 0.17323,0.432893 0.151926,0.950116 -0.04734,1.149385 -0.199269,0.199268 -0.341002,-0.154918 -0.314964,-0.787079 z"
         id="path1790" />
      <path
         style="fill:#606060;fill-opacity:1;stroke-width:0.599679"
         d="m 46.637884,93.916393 c -0.707659,-0.100878 -1.750644,-0.696125 -2.317744,-1.32276 -0.999518,-1.104458 -0.960118,-1.128374 1.286653,-0.781142 2.726725,0.421413 2.784421,0.455541 2.520675,1.49079 -0.111611,0.438096 -0.781924,0.713996 -1.489584,0.613112 z m 5.006981,-0.70145 c 0.271636,-1.038734 3.175982,-2.140009 3.175982,-1.20427 0,0.555849 -1.193856,1.49485 -2.480761,1.951188 -0.7284,0.258288 -0.907711,0.06565 -0.695221,-0.746918 z m 0.263483,-4.146619 c -0.56718,-0.359387 -0.61259,-0.639785 -0.14992,-0.92573 0.365037,-0.225605 0.663703,-0.171142 0.663703,0.121021 0,0.292164 0.806813,0.412795 1.792917,0.268069 0.986105,-0.144733 1.672615,-0.457801 1.525577,-0.695718 -0.147038,-0.23791 0.110579,-0.432566 0.572483,-0.432566 1.234689,0 0.800958,1.236112 -0.592743,1.689289 -1.744588,0.567273 -2.889846,0.559951 -3.812017,-0.02435 z m -9.891746,-0.980601 c 0.231926,-0.604392 0.58207,-0.723098 1.031848,-0.349816 0.374438,0.310759 1.984545,0.565011 3.578015,0.565011 1.593469,0 3.054633,0.157416 3.24703,0.349817 0.192397,0.192395 -1.575683,0.349811 -3.929066,0.349811 -3.588891,0 -4.22227,-0.147521 -3.927827,-0.914823 z m 1.128354,-2.083572 -2.380866,-0.29984 1.659484,-0.749598 c 1.964602,-0.887423 2.876172,-0.972674 1.603051,-0.14992 -0.690153,0.446011 -0.480787,0.581311 0.899518,0.581311 1.443167,0 1.621102,-0.127996 0.899519,-0.647066 -0.748108,-0.538146 -0.714617,-0.587068 0.198966,-0.290652 0.604166,0.196023 1.901906,0.356407 2.883866,0.356407 0.98196,0 1.63622,0.241353 1.45391,0.536335 -0.431193,0.697684 -4.196006,1.043537 -7.217448,0.663023 z m 8.603976,-0.05811 c -0.927755,-0.587638 -0.419261,-0.722122 2.09019,-0.552796 1.00893,0.06807 1.564974,-0.129867 1.348542,-0.480061 -0.208572,-0.337476 0.263247,-0.297867 1.087958,0.09133 0.800936,0.377984 1.408442,0.720406 1.350013,0.760939 -0.630012,0.43707 -5.247744,0.578966 -5.876703,0.180587 z m -5.565577,-3.633557 c 0.306914,-0.496594 -0.116833,-0.584225 -1.493617,-0.308871 -1.200966,0.240196 -1.785137,0.162825 -1.557051,-0.206229 0.659616,-1.067297 4.492012,-0.493236 4.492012,0.672852 0,0.294532 -0.42071,0.535519 -0.93491,0.535519 -0.554724,0 -0.760668,-0.281927 -0.506434,-0.693289 z m 5.039418,0.09359 c 0,-0.329824 0.269855,-0.599679 0.599679,-0.599679 0.329823,0 0.599679,0.269855 0.599679,0.599679 0,0.329823 -0.269856,0.599679 -0.599679,0.599679 -0.329824,0 -0.599679,-0.269856 -0.599679,-0.599679 z m 2.852211,0.201276 c 0.414334,-0.16704 0.6008,-0.550523 0.414368,-0.852174 -0.511719,-0.827976 0.482271,-0.62306 1.795389,0.370128 1.094395,0.827761 1.040567,0.877618 -0.899519,0.833104 -1.134965,-0.02603 -1.724572,-0.184011 -1.310238,-0.351058 z m -7.256605,-3.349591 c 0.378785,-0.614089 5.603752,-0.573245 5.603752,0.0438 0,0.271462 -1.323265,0.473854 -2.940588,0.449759 -1.617323,-0.02411 -2.815748,-0.246192 -2.663164,-0.493559 z M 43.127106,78.808 c 0.203843,-0.329823 0.640478,-0.599679 0.970301,-0.599679 0.329824,0 0.4329,0.269856 0.229057,0.599679 -0.203842,0.329823 -0.640477,0.599679 -0.970301,0.599679 -0.329823,0 -0.432899,-0.269856 -0.229057,-0.599679 z m 11.393901,0 c -0.203842,-0.329823 -0.100766,-0.599679 0.229057,-0.599679 0.329823,0 0.766459,0.269856 0.970301,0.599679 0.203842,0.329823 0.100766,0.599679 -0.229057,0.599679 -0.329823,0 -0.766459,-0.269856 -0.970301,-0.599679 z M 41.428016,76.609178 C 41.208134,76.3893 41.02823,75.438125 41.02823,74.49546 c 0,-1.257935 -0.383369,-1.859689 -1.440945,-2.26178 -2.662811,-1.012396 -2.136916,-1.604243 1.024913,-1.153446 4.011907,0.571998 13.618575,0.570876 17.639122,-0.0018 2.555822,-0.364209 3.010292,-0.301117 2.475208,0.343616 -0.360484,0.434359 -1.146168,0.789741 -1.745965,0.789741 -0.599797,0 -1.257319,0.269856 -1.461161,0.599679 -0.203842,0.329823 -1.029335,0.599679 -1.834428,0.599679 -1.235495,0 -1.476119,0.303983 -1.542749,1.948957 l -0.07894,1.948699 -0.370817,-2.098877 -0.370817,-2.098876 -4.347673,-0.176192 c -3.52413,-0.14282 -4.347672,-0.0076 -4.347672,0.714206 0,1.533283 -1.184382,1.703136 -1.744046,0.250108 -0.474609,-1.232197 -0.582475,-1.269131 -0.962044,-0.329404 -0.235125,0.582121 -0.287418,1.594079 -0.116205,2.248796 0.332466,1.271356 0.259073,1.425677 -0.375993,0.790611 z m 15.23921,-1.149381 c 0.02877,-0.698596 0.170873,-0.84069 0.362307,-0.362308 0.173229,0.432891 0.151925,0.950114 -0.04734,1.149387 -0.199269,0.199267 -0.341002,-0.154921 -0.314963,-0.787079 z m 4.797434,-6.596468 c 0.02878,-0.698596 0.170873,-0.84069 0.362302,-0.362308 0.173229,0.43289 0.151929,0.950113 -0.04732,1.149386 -0.199273,0.199268 -0.341001,-0.154921 -0.314963,-0.787078 z"
         id="path1788" />
      <path
         style="fill:#494949;fill-opacity:1;stroke-width:0.599679"
         d="m 19.743871,93.207165 c -0.210091,-0.339934 0.03062,-0.440464 0.564288,-0.23568 1.038894,0.398661 1.228974,0.828493 0.366377,0.828493 -0.310359,0 -0.729158,-0.266768 -0.930665,-0.592813 z m -7.257369,-2.555502 -1.142382,-1.349278 1.349278,1.142383 c 1.267988,1.073557 1.622276,1.556173 1.142381,1.556173 -0.113793,0 -0.720968,-0.607175 -1.349277,-1.349278 z m 13.249914,0.14992 c 0.596972,-0.659647 1.220332,-1.199358 1.385243,-1.199358 0.164912,0 -0.188592,0.539711 -0.785564,1.199358 -0.596972,0.659647 -1.220332,1.199358 -1.385244,1.199358 -0.164911,0 0.188593,-0.539711 0.785565,-1.199358 z M 14.565863,88.552786 c -0.745924,-0.951126 -0.724713,-0.972337 0.226412,-0.226414 0.577191,0.452667 1.049438,0.924915 1.049438,1.049438 0,0.49356 -0.492448,0.175892 -1.27585,-0.823024 z m 37.856268,-0.188173 c 0,-0.236615 0.925565,-0.538266 2.056811,-0.670327 1.131246,-0.132067 1.944116,-0.05781 1.806377,0.165086 -0.352009,0.569563 -3.863188,1.028767 -3.863188,0.505241 z m -8.234173,-0.377318 c 0.583468,-0.152042 1.393034,-0.142046 1.799037,0.02225 0.406002,0.16427 -0.07138,0.288668 -1.060852,0.276446 -0.98947,-0.01223 -1.321654,-0.146621 -0.738185,-0.298664 z M 25.553483,84.504953 c 0.01222,-0.98947 0.146621,-1.321656 0.298666,-0.738187 0.152044,0.58347 0.142045,1.393037 -0.02222,1.799037 -0.164268,0.406001 -0.288668,-0.07138 -0.276447,-1.06085 z M 12.938004,84.205114 c 0,-0.824559 0.136111,-1.161878 0.30247,-0.749599 0.166358,0.412279 0.166358,1.086918 0,1.499198 -0.166359,0.412279 -0.30247,0.07496 -0.30247,-0.749599 z m 29.589423,0.571674 c -0.835892,-0.378709 -0.472425,-0.432693 1.199358,-0.178135 1.319294,0.200887 2.511156,0.464374 2.648583,0.585533 0.515232,0.454239 -2.696731,0.114173 -3.847941,-0.407398 z m 9.944677,0.413982 c 0.137426,-0.117537 1.194361,-0.387015 2.348743,-0.598839 1.476664,-0.270965 1.832214,-0.210338 1.199358,0.204514 -0.812947,0.532911 -4.142838,0.902985 -3.548101,0.394325 z m -9.344998,-2.784693 c 1.673745,-0.719231 3.442906,-0.719231 2.998395,0 -0.203842,0.329823 -1.231726,0.580711 -2.284187,0.557527 -1.613023,-0.03553 -1.725196,-0.12309 -0.714208,-0.557527 z m 9.295025,0 c 0,-0.329824 0.607175,-0.595547 1.349277,-0.590498 1.091079,0.0074 1.177146,0.120428 0.44976,0.590498 -1.162633,0.75135 -1.799037,0.75135 -1.799037,0 z M 14.042676,80.380625 c 0,-0.124523 0.472247,-0.59677 1.049438,-1.049438 0.951124,-0.745923 0.972335,-0.724712 0.226412,0.226415 -0.783402,0.998915 -1.27585,1.316583 -1.27585,0.823023 z m 9.518371,-0.823023 c -0.745923,-0.951127 -0.724712,-0.972338 0.226412,-0.226415 0.577191,0.452668 1.049438,0.924915 1.049438,1.049438 0,0.49356 -0.492448,0.175892 -1.27585,-0.823023 z m 19.566059,-0.14992 c 1.683945,-0.723615 4.045293,-0.723615 3.598074,0 -0.203842,0.329823 -1.366654,0.580711 -2.584027,0.557528 -1.783851,-0.03397 -1.980646,-0.142166 -1.014047,-0.557528 z m 9.295025,0 c 0,-0.716095 1.631792,-0.716095 3.298234,0 0.962109,0.413431 0.754516,0.523718 -1.049438,0.557528 -1.236838,0.02318 -2.248796,-0.227705 -2.248796,-0.557528 z M 12.543478,77.608645 c 0.596972,-0.659647 1.220332,-1.199358 1.385244,-1.199358 0.164912,0 -0.188593,0.539711 -0.785565,1.199358 -0.596972,0.659647 -1.220331,1.199358 -1.385243,1.199358 -0.164912,0 0.188592,-0.539711 0.785564,-1.199358 z m 13.135961,-0.14992 -1.142381,-1.349277 1.349278,1.142382 c 1.267988,1.073557 1.622276,1.556173 1.142381,1.556173 -0.113793,0 -0.720968,-0.607175 -1.349278,-1.349278 z m -6.989251,0.352444 c 0.412279,-0.166357 1.086918,-0.166357 1.499197,0 0.41228,0.166357 0.07496,0.302472 -0.749598,0.302472 -0.824559,0 -1.161878,-0.136115 -0.749599,-0.302472 z m 24.137079,-2.036954 c 0,-0.679112 0.269855,-1.067968 0.599679,-0.864125 0.329823,0.203843 0.599679,0.759481 0.599679,1.234751 0,0.475269 -0.269856,0.864125 -0.599679,0.864125 -0.329824,0 -0.599679,-0.555638 -0.599679,-1.234751 z m 11.533028,-0.564286 c 0,-1.154382 0.123411,-1.626629 0.274247,-1.049438 0.150835,0.577191 0.150835,1.521685 0,2.098876 -0.150836,0.577191 -0.274247,0.104944 -0.274247,-1.049438 z m 1.799037,0 c 0,-1.154382 0.123411,-1.626629 0.274247,-1.049438 0.150835,0.577191 0.150835,1.521685 0,2.098876 -0.150836,0.577191 -0.274247,0.104944 -0.274247,-1.049438 z M 41.670057,75.095402 c -0.02318,-0.887548 0.227708,-1.780506 0.557531,-1.984349 0.715923,-0.442467 0.715923,0.732675 0,2.398716 -0.460193,1.070924 -0.519895,1.026554 -0.557531,-0.414367 z m 7.277162,-3.891077 c 4.819658,-0.193372 5.761837,-0.385377 5.481095,-1.11698 -0.18646,-0.485908 0.06132,-1.494448 0.55061,-2.24121 0.489295,-0.746756 1.082157,-2.497321 1.317473,-3.890141 0.235315,-1.392815 0.648886,-2.669007 0.919047,-2.835976 1.184987,-0.732361 -0.32725,-2.794171 -2.915149,-3.974566 -2.103511,-0.959455 -3.93794,-1.262194 -7.558102,-1.247323 -4.185661,0.01719 -4.913071,0.183454 -5.84661,1.336326 -1.027806,1.269286 -1.053299,2.051962 -0.177907,5.461925 0.222932,0.868401 0.45147,3.094727 0.507862,4.947393 0.100656,3.306852 0.07209,3.368481 -1.561428,3.368445 -1.934585,-4.8e-5 -2.833633,-1.704785 -2.833633,-5.373021 0,-3.261684 -2.10214,-9.648387 -4.55094,-13.826627 -1.714276,-2.924968 -3.844566,-7.779397 -3.844566,-8.760862 0,-0.123444 0.920422,-0.224444 2.045382,-0.224444 1.809785,0 2.189861,0.293562 3.299718,2.548636 1.680889,3.415325 5.179408,5.770266 10.102641,6.80034 3.513646,0.735151 4.47621,0.722201 7.91875,-0.106536 7.193138,-1.731634 11.41489,-4.593423 11.41489,-7.737784 0,-1.441095 0.153704,-1.504656 3.638487,-1.504656 3.49328,0 3.622342,0.05385 3.23408,1.349278 -0.754882,2.518641 -2.716905,6.698462 -3.604844,7.679623 -1.610132,1.779172 -3.845357,8.484181 -4.458511,13.374176 -0.332288,2.650042 -0.848055,5.062155 -1.146148,5.360249 -0.298091,0.298088 -4.414308,0.610671 -9.147147,0.694614 -4.732839,0.08395 -5.986112,0.04756 -2.78505,-0.08088 z"
         id="path1786" />
      <path
         style="fill:#333333;fill-opacity:1;stroke-width:0.599679"
         d="m 17.688093,92.250809 c 0.02877,-0.698596 0.170873,-0.84069 0.362306,-0.362308 0.17323,0.43289 0.151925,0.950113 -0.04734,1.149387 -0.199268,0.199267 -0.341002,-0.154922 -0.314963,-0.787079 z M 42.322274,75.809608 c 0,-0.824558 0.136111,-1.161878 0.30247,-0.749599 0.166358,0.41228 0.166358,1.086919 0,1.499198 -0.166359,0.412279 -0.30247,0.07496 -0.30247,-0.749599 z m 12.498573,-0.599679 c 0,-0.98947 0.269855,-1.799037 0.599679,-1.799037 0.329823,0 0.599679,0.809567 0.599679,1.799037 0,0.98947 -0.269856,1.799037 -0.599679,1.799037 -0.329824,0 -0.599679,-0.809567 -0.599679,-1.799037 z m -13.579196,-5.10623 c -0.191739,-0.499665 -0.214119,-1.422805 -0.04973,-2.051412 0.260955,-0.997896 0.05437,-2.539335 -1.10137,-8.217979 -0.143635,-0.70574 0.218631,-1.875674 0.805035,-2.599853 0.933539,-1.152872 1.660949,-1.319132 5.84661,-1.336326 3.620162,-0.01487 5.454592,0.287868 7.558103,1.247323 2.587899,1.180395 4.100135,3.242205 2.915148,3.974566 -0.27016,0.166969 -0.683732,1.443161 -0.919047,2.835976 -0.235316,1.39282 -0.828178,3.143385 -1.317473,3.890141 -0.489295,0.746762 -0.733498,1.764609 -0.542673,2.261893 0.296233,0.771973 -0.617351,0.904148 -6.249517,0.904148 -5.33925,0 -6.662912,-0.173145 -6.945085,-0.908477 z m 2.031131,-17.99148 c -4.767975,-1.040731 -8.694065,-4.043111 -9.985075,-7.635838 l -0.592593,-1.649117 h 15.26062 15.260618 v 1.504656 c 0,1.822668 -2.538169,4.576354 -5.397111,5.85538 -2.158734,0.96577 -9.532343,2.895508 -10.532695,2.756499 -0.308751,-0.04291 -2.114945,-0.417115 -4.013764,-0.83158 z M 26.96752,39.880236 c -0.186381,-0.301571 -0.844428,-2.258024 -1.462326,-4.347673 -1.205392,-4.076472 -1.273667,-9.804698 -0.150712,-12.644625 0.358648,-0.907014 0.509742,-1.649117 0.335763,-1.649117 -0.788234,0 3.692484,-7.161657 5.939211,-9.492808 2.655666,-2.7554561 6.564268,-5.3349928 8.891701,-5.868203 5.044833,-1.1557607 12.100324,-1.4147862 16.549696,-0.6075823 5.613254,1.018355 11.800988,6.3357613 14.99104,12.8824923 2.122072,4.354995 2.23465,4.886495 2.241408,10.582088 0.0076,6.40103 -1.368743,11.69374 -3.040882,11.69374 -0.991647,0 -1.086468,-0.836205 -0.2682,-2.36516 0.978358,-1.828075 1.315713,-8.35314 0.617051,-11.93492 -0.725311,-3.718422 -4.651835,-12.085795 -5.671452,-12.085795 -0.352011,0 -0.906408,-0.598447 -1.231986,-1.329882 -0.722913,-1.62408 -5.580193,-5.4047594 -6.340295,-4.9349907 -0.301562,0.186376 -0.54821,0.1205475 -0.548107,-0.1462851 1.05e-4,-0.2668328 -4.054901,-0.4300319 -9.011124,-0.3626648 -8.807964,0.1197215 -9.065012,0.1603187 -11.39094,1.7990369 -1.308796,0.922103 -2.70816,2.3991917 -3.1097,3.2824187 -0.40154,0.883227 -0.947104,1.471734 -1.212365,1.307794 -0.834088,-0.515495 -4.66526,8.39688 -5.297689,12.323904 -0.477362,2.96415 -0.410739,4.513436 0.316096,7.350548 1.175243,4.587423 1.195328,7.095996 0.05682,7.095996 -0.47527,0 -1.016621,-0.24674 -1.203003,-0.548312 z m 14.21063,0.151156 c -1.134135,-0.457633 -0.89393,-3.856372 0.425482,-6.020279 0.643828,-1.055914 2.05956,-2.387226 3.146072,-2.958471 2.662305,-1.399736 9.084474,-1.399736 11.746779,0 3.718483,1.955032 5.685927,7.403946 3.161219,8.755128 -1.153424,0.617294 -17.027863,0.809392 -18.479552,0.223622 z"
         id="path1784" />
    </g>
  </g>
</svg>
