<?xml version="1.0" encoding="UTF-8" standalone="no"?>
<!-- Created with Inkscape (http://www.inkscape.org/) -->

<svg
   width="100mm"
   height="100mm"
   viewBox="0 0 100 100"
   version="1.1"
   id="svg2222"
   inkscape:version="1.1.1 (3bf5ae0d25, 2021-09-20)"
   sodipodi:docname="add_list_type_device_6091.svg"
   xmlns:inkscape="http://www.inkscape.org/namespaces/inkscape"
   xmlns:sodipodi="http://sodipodi.sourceforge.net/DTD/sodipodi-0.dtd"
   xmlns="http://www.w3.org/2000/svg"
   xmlns:svg="http://www.w3.org/2000/svg">
  <sodipodi:namedview
     id="namedview2224"
     pagecolor="#505050"
     bordercolor="#ffffff"
     borderopacity="1"
     inkscape:pageshadow="0"
     inkscape:pageopacity="0"
     inkscape:pagecheckerboard="1"
     inkscape:document-units="mm"
     showgrid="false"
     inkscape:zoom="0.58974467"
     inkscape:cx="397.62971"
     inkscape:cy="188.21705"
     inkscape:window-width="1440"
     inkscape:window-height="890"
     inkscape:window-x="-6"
     inkscape:window-y="-6"
     inkscape:window-maximized="1"
     inkscape:current-layer="layer1" />
  <defs
     id="defs2219" />
  <g
     inkscape:label="Laag 1"
     inkscape:groupmode="layer"
     id="layer1">
    <g
       id="g2238">
      <path
         style="fill:#d0d0d0;fill-opacity:1;stroke-width:0.453594"
         d="m 45.946031,92.207652 c 0.374214,-0.241838 0.986566,-0.428483 1.360781,-0.414766 0.448632,0.01642 0.371376,0.157724 -0.226797,0.414766 -1.246968,0.53584 -1.963139,0.53584 -1.133984,0 z m 6.350314,0 c -0.60479,-0.390848 -0.60479,-0.4397 0,-0.4397 0.374215,0 0.986567,0.197862 1.360782,0.4397 0.604791,0.390848 0.604791,0.439701 0,0.439701 -0.374215,0 -0.986567,-0.197863 -1.360782,-0.439701 z m 11.831241,-3.340515 c 0.10395,-0.09095 0.699292,-0.40838 1.322983,-0.705411 1.069244,-0.509227 1.083718,-0.499783 0.2535,0.165353 -0.722575,0.578904 -2.198959,1.08467 -1.576483,0.540058 z m -31.062259,-0.66623 c -0.128488,-0.2079 0.0546,-0.377998 0.406871,-0.377998 0.352266,0 0.535358,0.170098 0.406871,0.377998 -0.128488,0.207896 -0.31158,0.377994 -0.406871,0.377994 -0.09529,0 -0.278384,-0.170098 -0.406871,-0.377994 z m 16.878,-63.435012 c 0.327436,-0.13103 0.718661,-0.114915 0.86939,0.03581 0.150725,0.150726 -0.117182,0.257932 -0.595342,0.238237 -0.528414,-0.02176 -0.635894,-0.129248 -0.274048,-0.274047 z m 10.43266,0 c 0.327436,-0.13103 0.718661,-0.114915 0.86939,0.03581 0.150725,0.150726 -0.117181,0.257932 -0.595342,0.238237 -0.528414,-0.02176 -0.635893,-0.129248 -0.274048,-0.274047 z"
         id="path2254" />
      <path
         style="fill:#b9b9b9;fill-opacity:1;stroke-width:0.453594"
         d="m 48.787229,91.882162 c 0.68949,-0.104263 1.710077,-0.101473 2.26797,0.0062 0.557893,0.107665 -0.0063,0.192968 -1.25362,0.189566 -1.247383,-0.0036 -1.70384,-0.0915 -1.01435,-0.195757 z m 18.477716,-4.874883 c 0,-0.115961 0.459264,-0.455553 1.020586,-0.754653 0.925432,-0.493111 0.962545,-0.473452 0.398056,0.21084 -0.579616,0.702626 -1.418642,1.024256 -1.418642,0.543813 z M 19.413997,69.986743 c -0.158912,-0.257124 0.02316,-0.333164 0.426824,-0.178266 0.785814,0.301544 0.929589,0.626667 0.277125,0.626667 -0.234753,0 -0.55153,-0.201781 -0.703949,-0.448401 z M 18.312611,65.63461 c 0.02176,-0.528415 0.129247,-0.635894 0.274046,-0.274048 0.131031,0.327436 0.114916,0.71866 -0.03581,0.86939 -0.150725,0.150724 -0.257932,-0.117182 -0.238236,-0.595342 z m 44.78494,-41.322309 c 0.327436,-0.13103 0.71866,-0.114915 0.86939,0.03581 0.150724,0.150726 -0.117182,0.257932 -0.595342,0.238237 -0.528415,-0.02176 -0.635894,-0.129248 -0.274048,-0.274047 z"
         id="path2252" />
      <path
         style="fill:#a3a3a3;fill-opacity:1;stroke-width:0.453594"
         d="M 16.068587,98.532412 C 9.2903782,97.167312 4.5191881,91.368934 4.5191881,84.496555 c 0,-4.045821 1.2788195,-7.098318 4.195853,-10.015353 2.9170339,-2.917036 5.9695309,-4.195853 10.0153539,-4.195853 4.045823,0 7.09832,1.278817 10.015354,4.195853 2.917033,2.917035 4.195853,5.969532 4.195853,10.015353 0,8.895594 -8.263666,15.769745 -16.873015,14.035857 z m 6.19173,-5.214838 c 7.885992,-3.294167 7.885992,-14.34787 0,-17.642037 -6.011299,-2.511064 -13.0118254,2.169494 -13.0454327,8.722189 -0.034296,6.687086 6.9531227,11.46475 13.0454327,8.919848 z m -4.890704,-1.065116 c 0,-1.022509 -0.353119,-1.524325 -1.583468,-2.250247 -4.39261,-2.591705 -4.456116,-8.30848 -0.121655,-10.951232 2.8845,-1.758702 6.626093,-0.712614 8.511482,2.379672 2.178077,3.572328 -0.0093,8.893457 -4.633717,11.272135 -2.159043,1.110561 -2.172642,1.10774 -2.172642,-0.450328 z m 32.573714,2.366903 c 0.327436,-0.131029 0.718661,-0.114918 0.86939,0.03579 0.150725,0.150725 -0.117182,0.257931 -0.595342,0.238236 -0.528414,-0.02177 -0.635894,-0.129247 -0.274048,-0.274043 z m 18.412289,-8.378515 c -0.200525,-0.324455 -0.12443,-0.40055 0.200026,-0.200025 0.288023,0.178008 0.523679,0.130961 0.523679,-0.104545 0,-0.23551 0.561322,-0.785942 1.247383,-1.223184 l 1.247383,-0.794987 -1.332246,1.42321 c -1.521712,1.625613 -1.456658,1.594587 -1.886225,0.899531 z M 18.579197,67.411183 c -0.166318,-0.166315 -0.302396,-0.513314 -0.302396,-0.77111 0,-0.284222 0.211271,-0.257442 0.536753,0.06804 0.295214,0.295217 0.431292,0.642217 0.302396,0.77111 -0.128897,0.128898 -0.370435,0.09828 -0.536753,-0.06804 z M 18.106041,64.29409 C 17.950482,63.888713 17.851135,62.502117 17.88527,61.212767 l 0.06206,-2.344268 0.339889,2.94836 c 0.352525,3.057981 0.302763,3.738367 -0.18118,2.477231 z m 0.24238,-7.01317 c 0,-0.623692 0.102954,-0.878838 0.228787,-0.566992 0.125832,0.311845 0.125832,0.822138 0,1.133984 -0.125833,0.311846 -0.228787,0.0567 -0.228787,-0.566992 z m 0,-22.226102 c 0,-0.623692 0.102954,-0.878839 0.228787,-0.566993 0.125832,0.311846 0.125832,0.822139 0,1.133985 -0.125833,0.311846 -0.228787,0.0567 -0.228787,-0.566992 z m 47.102148,-9.525473 c 0,-0.249477 0.498246,-0.453594 1.107214,-0.453594 0.608968,0 1.233367,0.204117 1.387553,0.453594 0.163557,0.264637 -0.297685,0.453594 -1.107214,0.453594 -0.763153,0 -1.387553,-0.204117 -1.387553,-0.453594 z M 52.863338,25.216671 c 0.436584,-0.114091 1.150994,-0.114091 1.587579,0 0.436584,0.114092 0.07938,0.207439 -0.79379,0.207439 -0.873168,0 -1.230373,-0.09335 -0.793789,-0.207439 z m -5.329729,-0.594514 c -0.161783,-0.261769 0.258503,-0.450656 0.993815,-0.446648 0.989339,0.0054 1.122065,0.105234 0.593764,0.446648 -0.871485,0.563197 -1.239504,0.563197 -1.587579,0 z m 14.515006,0 c -0.354792,-0.574067 0.24568,-0.574067 1.133985,0 0.586356,0.378932 0.574381,0.440663 -0.08663,0.446648 -0.42186,0.0038 -0.893171,-0.197171 -1.047357,-0.446648 z m -19.362791,-3.03142 c 0.327438,-0.13103 0.718663,-0.114915 0.869389,0.03581 0.150725,0.150725 -0.117179,0.257932 -0.595342,0.238236 -0.528411,-0.02176 -0.635894,-0.129247 -0.274047,-0.274046 z m 12.332085,-3.318895 c -0.501335,-0.323988 -0.202911,-0.439702 1.133985,-0.439702 1.336895,0 1.635319,0.115714 1.133985,0.439702 -0.374215,0.241837 -0.884509,0.439702 -1.133985,0.439702 -0.249477,0 -0.75977,-0.197865 -1.133985,-0.439702 z"
         id="path2250" />
      <path
         style="fill:#8c8c8c;fill-opacity:1;stroke-width:0.453594"
         d="m 49.00779,92.814434 c 0.311845,-0.125832 0.822138,-0.125832 1.133984,0 0.311846,0.125831 0.0567,0.228788 -0.566992,0.228788 -0.623692,0 -0.878838,-0.102957 -0.566992,-0.228788 z m 20.978719,-8.077378 c 0,-0.07306 0.765439,-0.715422 1.700977,-1.427488 l 1.700977,-1.294661 -1.043379,1.330971 c -0.843653,1.076193 -2.358575,1.96975 -2.358575,1.391178 z M 18.312611,62.913046 c 0.02176,-0.528414 0.129247,-0.635893 0.274046,-0.274048 0.131031,0.327436 0.114916,0.718661 -0.03581,0.86939 -0.150725,0.150725 -0.257932,-0.117181 -0.238236,-0.595342 z M 12.41589,59.284295 c 0.02176,-0.528415 0.129247,-0.635894 0.274046,-0.274048 0.13103,0.327436 0.114916,0.71866 -0.03581,0.86939 -0.150726,0.150724 -0.257932,-0.117182 -0.238236,-0.595342 z m 5.734112,0.114097 c -0.505426,-1.285064 -0.42303,-1.94155 0.169337,-1.349184 0.272873,0.272873 0.41993,0.875019 0.326795,1.338102 -0.163327,0.812083 -0.180939,0.812473 -0.496132,0.01107 z m 0.403627,-4.158645 c 0.373068,-1.667833 0.632685,-2.029882 0.623414,-0.86939 -0.0038,0.478165 -0.214138,1.175566 -0.467373,1.549781 -0.336252,0.496894 -0.378335,0.313397 -0.156041,-0.680391 z M 12.41589,54.294761 c 0.02176,-0.528414 0.129247,-0.635893 0.274046,-0.274047 0.13103,0.327435 0.114916,0.71866 -0.03581,0.869389 -0.150726,0.150725 -0.257932,-0.117181 -0.238236,-0.595342 z m 9.943256,-23.010628 c 0,-0.07806 0.663381,-0.741445 1.474181,-1.474181 l 1.47418,-1.332246 -1.332247,1.47418 c -1.241841,1.374142 -1.616114,1.682675 -1.616114,1.332247 z m 41.048268,-5.757992 c -0.155269,-0.251238 0.0239,-0.574307 0.398188,-0.71793 0.414417,-0.159027 0.568603,-0.55683 0.394323,-1.017382 -0.238328,-0.629814 -0.142129,-0.613382 0.575384,0.09829 0.473856,0.469996 0.931486,0.644753 1.016953,0.388348 0.08547,-0.256405 0.585766,-0.353647 1.111767,-0.216094 0.684514,0.179004 0.857547,0.0902 0.608719,-0.312415 -0.222189,-0.35951 0.1668,-0.296477 1.077884,0.174663 0.784046,0.405445 1.302699,0.935928 1.152569,1.178849 -0.150135,0.242921 -0.462984,0.324241 -0.695224,0.180709 -0.232235,-0.143531 -0.42225,-0.004 -0.42225,0.310117 0,0.444175 -0.12096,0.450124 -0.544313,0.02677 -0.658128,-0.658128 -2.630845,-0.726153 -2.630845,-0.09072 0,0.591748 -1.677077,0.589119 -2.043155,-0.0032 z M 50.604,25.215009 c 0.441333,-0.115006 1.053685,-0.107443 1.360782,0.01681 0.307097,0.12425 -0.05399,0.218346 -0.802421,0.209102 -0.74843,-0.0092 -0.999694,-0.110903 -0.558361,-0.225909 z m 4.980901,0.0017 c 0.436585,-0.114091 1.150995,-0.114091 1.587579,0 0.436584,0.114091 0.07938,0.207439 -0.793789,0.207439 -0.873169,0 -1.230374,-0.09335 -0.79379,-0.207439 z m -8.95848,-0.59453 c -0.154185,-0.249476 -0.07622,-0.453594 0.17326,-0.453594 0.249476,0 0.579743,0.204118 0.733928,0.453594 0.154186,0.249477 0.07622,0.453594 -0.173259,0.453594 -0.249477,0 -0.579743,-0.204117 -0.733929,-0.453594 z m 4.649338,-0.332123 c 1.060276,-0.0955 2.795273,-0.0955 3.855549,0 1.060275,0.0955 0.192777,0.173631 -1.927775,0.173631 -2.120551,0 -2.98805,-0.07813 -1.927774,-0.173631 z M 34.336071,23.191292 c -0.191297,-0.309525 -0.12534,-0.401116 0.161286,-0.223971 0.266715,0.164839 0.588314,0.04329 0.714664,-0.270112 0.138592,-0.343763 0.243936,-0.25491 0.265539,0.223971 0.0405,0.897639 -0.652333,1.061583 -1.141489,0.270112 z m 3.33187,-1.137511 c 0.311846,-0.125832 0.822139,-0.125832 1.133985,0 0.311846,0.125833 0.0567,0.228786 -0.566992,0.228786 -0.623692,0 -0.878838,-0.102953 -0.566993,-0.228786 z m 6.577112,-0.465861 c 0.436584,-0.114092 1.150995,-0.114092 1.587579,0 0.436584,0.114091 0.07938,0.207439 -0.793789,0.207439 -0.873169,0 -1.230374,-0.09335 -0.79379,-0.207439 z m 9.638871,-3.316078 c -0.354792,-0.574067 0.24568,-0.574067 1.133985,0 0.586356,0.378932 0.574381,0.440663 -0.08663,0.446648 -0.421861,0.0038 -0.893172,-0.197171 -1.047358,-0.446648 z m 3.401955,0 c 0.507158,-0.327752 0.25413,-0.44147 -0.993816,-0.446648 -1.877162,-0.0078 -2.718093,-0.671846 -1.02793,-0.811728 1.365255,-0.112992 3.382527,0.630782 3.382527,1.247149 0,0.255652 -0.459263,0.461695 -1.020586,0.457875 -0.825287,-0.0056 -0.890387,-0.09109 -0.340195,-0.446648 z"
         id="path2248" />
      <path
         style="fill:#767676;fill-opacity:1;stroke-width:0.453594"
         d="m 47.193414,92.814434 c 0.311846,-0.125832 0.822139,-0.125832 1.133985,0 0.311845,0.125831 0.0567,0.228788 -0.566993,0.228788 -0.623691,0 -0.878838,-0.102957 -0.566992,-0.228788 z m 3.86418,-0.01393 c 0.441333,-0.115005 1.053685,-0.107443 1.360782,0.01683 0.307097,0.124253 -0.05399,0.218346 -0.802421,0.209102 -0.74843,-0.0093 -0.999694,-0.110904 -0.558361,-0.225908 z m -4.743018,-1.356301 c 0.327435,-0.131029 0.71866,-0.114918 0.869389,0.03579 0.150725,0.150725 -0.117181,0.257931 -0.595342,0.238236 -0.528414,-0.02177 -0.635893,-0.129247 -0.274047,-0.274043 z m 6.350315,0 c 0.327435,-0.131029 0.71866,-0.114918 0.869389,0.03579 0.150725,0.150725 -0.117181,0.257931 -0.595342,0.238236 -0.528414,-0.02177 -0.635893,-0.129247 -0.274047,-0.274043 z m 16.868024,-5.304536 c 0,-0.09419 0.357205,-0.451394 0.793789,-0.793789 0.719427,-0.564212 0.735471,-0.548168 0.171259,0.171259 -0.592562,0.755574 -0.965048,0.995856 -0.965048,0.62253 z m 2.139648,-2.39097 c -0.15649,-0.253201 0.751029,-1.464252 2.01671,-2.691219 2.470622,-2.395062 2.358806,-1.559818 -0.18308,1.367559 -0.853927,0.983428 -1.676791,1.577436 -1.83363,1.32366 z m 1.09337,-0.953124 c 0.564211,-0.719427 0.548168,-0.735471 -0.171259,-0.171259 -0.436585,0.342396 -0.79379,0.699601 -0.79379,0.79379 0,0.373326 0.372487,0.133043 0.965049,-0.622531 z m 16.640066,-5.412786 c 0.327435,-0.13103 0.71866,-0.114918 0.869389,0.03579 0.150725,0.150724 -0.117181,0.257931 -0.595342,0.238236 -0.528414,-0.02177 -0.635893,-0.129247 -0.274047,-0.274043 z M 52.117607,64.469449 c 0.472522,-0.661625 0.949848,-1.115219 1.060725,-1.007985 0.110881,0.107234 -0.275727,0.648566 -0.859125,1.202958 l -1.06073,1.007986 z m 7.831975,0.182372 c -0.564212,-0.719427 -0.548168,-0.735471 0.171259,-0.171259 0.436584,0.342396 0.793789,0.699601 0.793789,0.79379 0,0.373326 -0.372487,0.133043 -0.965048,-0.622531 z m -0.744094,-2.381368 c 0,-0.873168 0.09335,-1.230373 0.207442,-0.793789 0.114088,0.436584 0.114088,1.150994 0,1.587578 -0.114092,0.436585 -0.207442,0.07938 -0.207442,-0.793789 z M 45.528246,62.005858 c 0.02176,-0.528414 0.129248,-0.635893 0.274047,-0.274048 0.13103,0.327436 0.114915,0.718661 -0.03581,0.86939 -0.150726,0.150725 -0.257932,-0.117181 -0.238237,-0.595342 z m -27.163017,-0.86939 c 0.0092,-0.74843 0.110903,-0.999694 0.225909,-0.55836 0.115005,0.441333 0.107442,1.053685 -0.01681,1.360782 -0.124252,0.307096 -0.218348,-0.05399 -0.209103,-0.802422 z m 27.580802,-0.85165 c 0,-0.09419 0.357205,-0.451394 0.793789,-0.793789 0.719427,-0.564212 0.735471,-0.548168 0.171259,0.171259 -0.592562,0.755574 -0.965048,0.995856 -0.965048,0.62253 z M 32.791807,59.831225 c 0,-0.09419 0.357205,-0.451394 0.793789,-0.79379 0.719425,-0.564212 0.735469,-0.548168 0.171257,0.171259 -0.592561,0.755574 -0.965046,0.995856 -0.965046,0.622531 z M 12.503623,56.827326 c 0,-1.122645 0.08846,-1.581909 0.196573,-1.020586 0.108116,0.561322 0.108116,1.47985 0,2.041172 -0.108115,0.561323 -0.196573,0.102059 -0.196573,-1.020586 z m 22.896349,1.51397 c 0.311846,-0.125832 0.822139,-0.125832 1.133985,0 0.311845,0.125831 0.0567,0.228788 -0.566993,0.228788 -0.623692,0 -0.878838,-0.102957 -0.566992,-0.228788 z M 18.766205,56.52423 c -0.01969,-0.291443 -0.15328,-0.903795 -0.296856,-1.360782 -0.248139,-0.789807 -0.235338,-0.790795 0.2589,-0.02 0.28597,0.445982 0.419555,1.058334 0.296856,1.360781 -0.161016,0.396891 -0.233054,0.402461 -0.2589,0.02 z m 0.266586,-2.720865 c -0.166318,-0.166315 -0.302396,-0.513314 -0.302396,-0.77111 0,-0.284222 0.211271,-0.257441 0.536753,0.06804 0.295214,0.295217 0.431292,0.642217 0.302396,0.77111 -0.128897,0.128898 -0.370435,0.09828 -0.536753,-0.06804 z m 0.355431,-1.548488 c -0.331439,-0.53628 2.285461,-6.010291 3.25988,-6.818986 0.332997,-0.276363 -0.171476,1.007922 -1.121052,2.853963 -0.949576,1.846045 -1.644101,3.603649 -1.543388,3.905784 0.227215,0.681647 -0.1854,0.722697 -0.59544,0.05924 z m 58.629385,-4.285311 c -0.669532,-1.365149 -1.120931,-2.482088 -1.003105,-2.482088 0.305319,0 2.593228,4.591386 2.389451,4.795163 -0.09296,0.09296 -0.716814,-0.947925 -1.386346,-2.313075 z M 15.763383,37.746203 c -0.164443,-0.266075 -0.201705,-0.581054 -0.08281,-0.699953 0.1189,-0.118901 0.33705,0.0988 0.484779,0.483772 0.306713,0.799281 0.04529,0.939872 -0.401973,0.216181 z m 3.240532,-0.347817 c -0.128488,-0.207897 0.0546,-0.377995 0.406871,-0.377995 0.352266,0 0.535359,0.170098 0.406871,0.377995 -0.128487,0.207897 -0.31158,0.377995 -0.406871,0.377995 -0.09529,0 -0.278384,-0.170098 -0.406871,-0.377995 z M 53.118484,31.11621 c 0.327436,-0.13103 0.718661,-0.114916 0.86939,0.03581 0.150725,0.150726 -0.117181,0.257932 -0.595342,0.238237 -0.528414,-0.02176 -0.635893,-0.129248 -0.274048,-0.274047 z m 8.986667,-5.001137 C 61.928344,25.93827 60.822709,25.659366 59.648182,25.495288 l -2.135506,-0.298325 2.744243,-0.06061 c 1.509334,-0.03333 2.938155,0.128959 3.175157,0.360648 0.237003,0.23169 1.145325,0.5052 2.018493,0.607799 1.25646,0.147638 1.106665,0.201686 -0.718189,0.259137 -1.268176,0.03993 -2.450427,-0.07207 -2.627229,-0.248868 z M 48.554196,25.228938 c 0.311845,-0.125832 0.822139,-0.125832 1.133984,0 0.311846,0.125833 0.0567,0.228787 -0.566992,0.228787 -0.623692,0 -0.878838,-0.102954 -0.566992,-0.228787 z m 9.304912,-0.932271 c 0.68949,-0.104261 1.710076,-0.101475 2.26797,0.0062 0.557893,0.107666 -0.0062,0.19297 -1.253621,0.189565 -1.247383,-0.0034 -1.703839,-0.0915 -1.014349,-0.195756 z m 8.330588,-0.81899 c -0.216296,-0.563662 -0.09994,-0.602487 0.631865,-0.210838 1.051458,0.562724 1.151127,0.901724 0.265117,0.901724 -0.347525,0 -0.751165,-0.310899 -0.896982,-0.690886 z M 35.51337,22.793545 c 0,-0.241646 0.306176,-0.439357 0.680391,-0.439357 0.374215,0 0.680391,0.08022 0.680391,0.178267 0,0.09805 -0.306176,0.295758 -0.680391,0.439358 -0.374215,0.1436 -0.680391,0.06338 -0.680391,-0.178268 z M 61.4727,20.601948 c -1.090204,-1.356611 -1.225284,-1.725712 -0.632092,-1.727177 1.099117,-0.0027 3.160751,2.746598 2.408316,3.211629 -0.21435,0.132475 -1.013651,-0.535529 -1.776224,-1.484452 z M 48.894391,19.17903 c 0.451548,-0.498953 0.923055,-0.907188 1.047793,-0.907188 0.124738,0 -0.142651,0.408235 -0.594199,0.907188 -0.451548,0.498953 -0.923055,0.907188 -1.047793,0.907188 -0.124738,0 0.142651,-0.408235 0.594199,-0.907188 z m 7.60633,-0.314336 c 0.441333,-0.115006 1.053685,-0.107443 1.360782,0.01681 0.307097,0.12425 -0.05399,0.218346 -0.802421,0.209102 -0.74843,-0.0092 -0.999694,-0.110903 -0.558361,-0.225909 z m -3.525967,-0.596055 c -0.15527,-0.251239 0.08783,-0.588888 0.540226,-0.750332 0.452396,-0.161443 1.026655,-0.379256 1.276132,-0.484027 0.249477,-0.104772 0.09956,0.09997 -0.333147,0.454985 -0.432705,0.355014 -0.653833,0.778386 -0.491391,0.940826 0.162441,0.16244 0.06925,0.295345 -0.20708,0.295345 -0.276329,0 -0.629466,-0.205559 -0.78474,-0.456797 z"
         id="path2246" />
      <path
         style="fill:#606060;fill-opacity:1;stroke-width:0.453594"
         d="M 45.492437,94.16374 C 40.20137,93.284974 32.120919,90.364768 32.428346,89.442485 c 0.224671,-0.674014 0.403964,-0.635735 4.570273,0.975748 4.150301,1.605292 8.921709,2.651674 13.710148,3.00667 4.752607,0.352338 4.73635,1.06136 -0.02268,0.988948 -2.232816,-0.03397 -4.569959,-0.146524 -5.19365,-0.250111 z m 31.29798,-10.801169 c 0.846307,-0.873169 1.640799,-1.587579 1.765538,-1.587579 0.124738,0 -0.465637,0.71441 -1.311944,1.587579 -0.846306,0.873168 -1.640799,1.587578 -1.765537,1.587578 -0.124738,0 0.465637,-0.71441 1.311943,-1.587578 z m -6.803908,0.962726 c 0,-0.09419 0.357205,-0.451394 0.793789,-0.79379 0.719427,-0.564212 0.735471,-0.548168 0.171259,0.171259 -0.592562,0.755574 -0.965048,0.995856 -0.965048,0.622531 z m 2.494766,-0.735929 c 0.451548,-0.498954 0.923055,-0.907188 1.047793,-0.907188 0.124738,0 -0.142651,0.408234 -0.594199,0.907188 -0.451548,0.498953 -0.923054,0.907187 -1.047793,0.907187 -0.124738,0 0.142651,-0.408234 0.594199,-0.907187 z m 1.587579,-1.985635 c 0,-0.09419 0.357205,-0.451394 0.793789,-0.793789 0.719427,-0.564212 0.735471,-0.548169 0.171259,0.171259 -0.592561,0.755574 -0.965048,0.995856 -0.965048,0.62253 z m 2.191802,-3.936456 c 0.898207,-1.208701 1.712979,-2.117766 1.810606,-2.020144 0.382448,0.382452 -2.00478,4.016756 -2.702471,4.114228 -0.529857,0.07403 -0.275513,-0.523166 0.891865,-2.094084 z M 18.077912,68.978953 c -0.172757,-0.571215 -0.429641,-3.408395 -0.570852,-6.304847 -0.290213,-5.95269 0.411205,-10.187932 2.395078,-14.461772 1.346037,-2.899754 3.266072,-5.560603 3.782258,-5.241583 0.197413,0.122008 0.989753,-0.56314 1.760757,-1.522551 1.830954,-2.278377 6.35898,-5.659425 10.107273,-7.547035 3.585453,-1.805606 10.43939,-3.730469 9.328837,-2.619916 -0.169827,0.169828 -1.749709,0.674706 -3.510848,1.121953 -6.174895,1.568133 -13.021373,5.973775 -16.029906,10.315091 -0.70364,1.015352 -1.455844,1.737013 -1.671564,1.603691 -0.215721,-0.133323 -0.278584,0.05373 -0.139695,0.415663 0.138889,0.361938 0.0029,0.812311 -0.302077,1.000831 -0.377437,0.233269 -0.448725,0.139252 -0.223162,-0.294315 0.182292,-0.350392 -0.09235,-0.155199 -0.610306,0.433761 -0.517961,0.588963 -0.941746,1.291353 -0.941746,1.560874 0,0.269521 0.317436,0.09382 0.705413,-0.390444 0.675736,-0.843441 0.68432,-0.837012 0.204039,0.152806 -0.275756,0.568308 -0.686558,0.918841 -0.912893,0.778957 -0.61177,-0.378093 -1.748163,2.106341 -2.743441,5.997841 -0.990059,3.871093 -1.15794,9.682135 -0.383977,13.291 0.506299,2.360793 0.329539,3.6037 -0.243188,1.709995 z m 68.335283,-0.69838 c 0.380329,-0.436585 0.804086,-1.099966 0.941679,-1.474181 0.137598,-0.374215 0.266291,-0.01701 0.285986,0.79379 0.02957,1.218203 -0.133919,1.47418 -0.941679,1.47418 -0.891974,0 -0.916994,-0.06944 -0.285986,-0.793789 z M 48.440797,65.899205 c -0.684233,-0.294025 -0.40554,-0.389833 1.133985,-0.389833 1.539525,0 1.818218,0.09581 1.133985,0.389833 -0.498954,0.214409 -1.009247,0.389832 -1.133985,0.389832 -0.124738,0 -0.635032,-0.175423 -1.133985,-0.389832 z m 12.633648,0.0032 c -0.535794,-0.216179 -1.103839,-0.602858 -1.262316,-0.859284 -0.158481,-0.256426 0.279895,-0.16993 0.97417,0.192215 1.595322,0.832145 2.299368,0.827274 3.937967,-0.02726 0.723178,-0.377136 1.405528,-0.595047 1.516332,-0.484243 0.314935,0.31493 -2.464171,1.632489 -3.375668,1.600383 -0.448972,-0.01583 -1.254691,-0.205623 -1.790485,-0.421806 z m -27.690352,-1.179453 -1.272677,-1.176278 1.720606,0.998609 c 1.020738,0.592417 2.173879,0.911956 2.834962,0.785584 0.612896,-0.117163 1.114356,-0.03719 1.114356,0.177668 0,0.922987 -3.159338,0.358557 -4.397247,-0.785583 z m 4.850841,0.351399 c 0,-0.548191 0.860558,-1.187323 1.175124,-0.87276 0.114169,0.114169 -0.103528,0.465777 -0.483772,0.781352 -0.431088,0.357772 -0.691352,0.392186 -0.691352,0.09141 z m 8.17379,-0.298143 c -0.357773,-0.431091 -0.392187,-0.691354 -0.09141,-0.691354 0.548191,0 1.187323,0.860558 0.87276,1.175126 -0.114169,0.114169 -0.465777,-0.103529 -0.781351,-0.483772 z m 5.434028,0.498169 c 0,-0.09419 0.357205,-0.451394 0.793789,-0.79379 0.719427,-0.564212 0.735471,-0.548168 0.171259,0.171259 -0.592562,0.755574 -0.965048,0.995857 -0.965048,0.622531 z M 45.492437,63.15087 c 0,-0.2642 0.204117,-0.354212 0.453594,-0.200026 0.249476,0.154186 0.453593,0.37035 0.453593,0.480365 0,0.110015 -0.204117,0.200026 -0.453593,0.200026 -0.249477,0 -0.453594,-0.216165 -0.453594,-0.480365 z M 32.187015,62.875243 c -0.470545,-0.470544 -0.355543,-1.965572 0.151198,-1.965572 0.249476,0 0.453594,0.510293 0.453594,1.133985 0,1.187536 -0.104777,1.331602 -0.604792,0.831587 z M 12.869484,62.005858 c 0.02176,-0.528414 0.129247,-0.635893 0.274046,-0.274048 0.13103,0.327436 0.114916,0.718661 -0.03581,0.86939 -0.150726,0.150725 -0.257932,-0.117181 -0.238236,-0.595342 z m 26.762041,0 c 0.02176,-0.528414 0.129248,-0.635893 0.274047,-0.274048 0.13103,0.327436 0.114915,0.718661 -0.03581,0.86939 -0.150726,0.150725 -0.257932,-0.117181 -0.238237,-0.595342 z m 41.763206,-0.86939 c -0.04627,-0.997906 -0.386756,-3.243119 -0.75664,-4.989365 -0.793703,-3.747126 -0.764999,-3.402122 -0.283088,-3.402122 0.560429,0 1.538355,6.24626 1.31379,8.391487 l -0.189933,1.814376 z m -28.417995,0.226797 c -0.154185,-0.249476 -0.06417,-0.453594 0.200026,-0.453594 0.264201,0 0.480365,0.204118 0.480365,0.453594 0,0.249477 -0.09001,0.453594 -0.200026,0.453594 -0.110014,0 -0.326179,-0.204117 -0.480365,-0.453594 z m -7.484299,-0.453594 c 0,-0.249476 0.204117,-0.453594 0.453594,-0.453594 0.249476,0 0.453593,0.204118 0.453593,0.453594 0,0.249477 -0.204117,0.453594 -0.453593,0.453594 -0.249477,0 -0.453594,-0.204117 -0.453594,-0.453594 z m 19.728818,-0.909968 c -0.452932,-0.500482 -0.737362,-0.996115 -0.632074,-1.101403 0.105288,-0.105288 0.632904,0.304198 1.172481,0.909968 0.539573,0.60577 0.824008,1.101403 0.632074,1.101403 -0.191933,0 -0.719549,-0.409486 -1.172481,-0.909968 z m -13.387603,-0.23498 c -0.876511,-1.056134 -0.251086,-1.255162 0.686973,-0.218614 0.452932,0.500482 0.612751,0.909968 0.355155,0.909968 -0.257596,0 -0.726553,-0.311106 -1.042128,-0.691354 z M 87.7651,59.322093 c 0.0093,-0.74843 0.110904,-0.999694 0.225908,-0.558361 0.115004,0.441333 0.107443,1.053685 -0.01683,1.360782 -0.124253,0.307097 -0.218346,-0.05399 -0.209102,-0.802421 z m -49.265223,-0.06416 c -0.238893,-0.622548 -0.172518,-0.650608 0.405064,-0.171259 0.787097,0.653235 0.869013,0.915806 0.28571,0.915806 -0.222785,0 -0.533634,-0.335047 -0.690774,-0.744547 z m -4.51132,-0.389437 c 0.1436,-0.374215 0.468363,-0.680391 0.721695,-0.680391 0.265491,0 0.221406,0.288218 -0.10407,0.680391 -0.31057,0.374215 -0.635333,0.680391 -0.721695,0.680391 -0.08636,0 -0.03953,-0.306176 0.10407,-0.680391 z m 13.318255,0.291284 c 0,-0.23156 0.322868,-0.54492 0.717491,-0.696348 1.154324,-0.442957 2.911261,-0.316926 2.911261,0.208834 0,0.274633 -0.385183,0.361909 -0.890056,0.201668 -0.489528,-0.155369 -1.305997,-0.05989 -1.814376,0.212187 -0.515636,0.275962 -0.92432,0.30853 -0.92432,0.07366 z m 13.381021,-0.06449 c 0.154186,-0.249477 0.37035,-0.453594 0.480365,-0.453594 0.110015,0 0.200026,0.204117 0.200026,0.453594 0,0.249476 -0.216165,0.453594 -0.480365,0.453594 -0.2642,0 -0.354212,-0.204118 -0.200026,-0.453594 z M 37.100949,58.641702 c -0.154185,-0.249477 -0.06417,-0.453594 0.200027,-0.453594 0.2642,0 0.480364,0.204117 0.480364,0.453594 0,0.249476 -0.09001,0.453594 -0.200027,0.453594 -0.110015,0 -0.326179,-0.204118 -0.480364,-0.453594 z m 24.947666,0 c 0.154186,-0.249477 0.56242,-0.453594 0.907188,-0.453594 0.344767,0 0.753002,0.204117 0.907188,0.453594 0.159624,0.258276 -0.231011,0.453594 -0.907188,0.453594 -0.676177,0 -1.066812,-0.195318 -0.907188,-0.453594 z m 25.73329,-4.082346 c 0,-0.873168 0.09335,-1.230373 0.207443,-0.793789 0.114088,0.436584 0.114088,1.150995 0,1.587579 -0.114093,0.436584 -0.207443,0.07938 -0.207443,-0.79379 z m -8.043127,-2.721563 c 0.154186,-0.249477 0.37035,-0.453594 0.480365,-0.453594 0.110015,0 0.200026,0.204117 0.200026,0.453594 0,0.249476 -0.216165,0.453594 -0.480365,0.453594 -0.2642,0 -0.354212,-0.204118 -0.200026,-0.453594 z m -0.680391,-0.85365 c 0,-0.249477 0.204117,-0.579743 0.453594,-0.733929 0.249477,-0.154186 0.453594,-0.07622 0.453594,0.173259 0,0.249477 -0.204117,0.579743 -0.453594,0.733929 -0.249477,0.154186 -0.453594,0.07622 -0.453594,-0.173259 z M 23.719928,47.958181 c 0,-1.02197 7.121719,-9.108001 7.600302,-8.629418 0.09886,0.09886 -0.735254,1.02317 -1.85359,2.054017 -1.118336,1.030846 -2.800717,2.988465 -3.738624,4.350264 -1.628152,2.364005 -2.008088,2.785008 -2.008088,2.225137 z m 52.655614,-2.398359 c -0.253218,-0.473139 -0.3315,-0.989149 -0.173957,-1.146689 0.157542,-0.157541 0.07841,-0.286437 -0.175845,-0.286437 -0.254253,0 -1.430304,-1.275733 -2.61345,-2.834962 l -2.151164,-2.834962 2.795426,2.87978 c 1.537484,1.58388 2.682691,2.992518 2.544898,3.130308 -0.137788,0.13779 0.0834,0.494699 0.491528,0.793131 0.498659,0.364627 0.578201,0.643873 0.242505,0.851344 -0.274751,0.169807 -0.706726,-0.07837 -0.959941,-0.551513 z M 18.460283,36.345515 c -0.200524,-0.324455 -0.124428,-0.400552 0.200028,-0.200027 0.288023,0.178008 0.52527,0.158516 0.527217,-0.04331 0.002,-0.201831 0.512239,-0.602907 1.133985,-0.891281 1.335499,-0.619423 1.400121,-0.481403 0.349247,0.745928 -0.875794,1.022854 -1.726133,1.172379 -2.210477,0.388694 z m 43.134738,-2.674799 c -1.746337,-0.709335 -4.045164,-1.426058 -5.108511,-1.592717 -1.977347,-0.309913 -3.11277,-1.105527 -1.577699,-1.105527 2.000793,0 10.088164,3.097 10.088164,3.86319 0,0.120536 -0.05103,0.197916 -0.113398,0.171955 -0.06237,-0.02596 -1.542219,-0.627565 -3.288556,-1.336901 z M 47.647008,33.365908 c 0.810799,-0.100619 2.137561,-0.100619 2.94836,0 0.810799,0.100619 0.147418,0.182944 -1.47418,0.182944 -1.621598,0 -2.284979,-0.08232 -1.47418,-0.182944 z m -1.700977,-2.393436 c 0,-0.264873 1.520904,-0.453594 3.655522,-0.453594 2.321507,0 3.553214,0.165531 3.375183,0.453594 -0.154185,0.249477 -1.799171,0.453594 -3.655522,0.453594 -1.947728,0 -3.375183,-0.191837 -3.375183,-0.453594 z m 30.589054,-1.020586 -1.332246,-1.47418 1.47418,1.332246 c 0.810799,0.732736 1.47418,1.396117 1.47418,1.474181 0,0.350428 -0.374274,0.04189 -1.616114,-1.332247 z M 37.327746,26.436533 c -1.372122,-0.168149 -2.162554,-0.338996 -1.756518,-0.37966 0.406038,-0.04066 0.992353,-0.38011 1.302924,-0.754325 0.630126,-0.759255 4.082345,-0.951045 4.082345,-0.226797 0,0.249477 -0.346999,0.453594 -0.771109,0.453594 -0.487681,0 -0.612529,0.158582 -0.339666,0.431444 0.237294,0.237294 1.962085,0.502913 3.832869,0.590263 l 3.401424,0.158819 -3.628751,0.01619 c -1.995813,0.0089 -4.751396,-0.121383 -6.123518,-0.289532 z m 19.20225,-0.324122 c 1.335848,-0.748915 4.362354,-0.694582 5.745416,0.103144 1.044182,0.602267 0.822679,0.645895 -2.797055,0.550919 -3.352445,-0.08796 -3.786403,-0.184232 -2.948361,-0.654063 z m -12.51174,-0.911194 c 0.810799,-0.100619 2.137562,-0.100619 2.948361,0 0.810799,0.100619 0.147418,0.182944 -1.47418,0.182944 -1.621599,0 -2.28498,-0.08232 -1.474181,-0.182944 z m 7.082729,-2.196648 c -0.601334,-0.917753 -0.674703,-1.312209 -0.269222,-1.447371 0.306566,-0.102188 0.557395,-0.44997 0.557395,-0.772849 0,-0.322878 0.294042,-0.831085 0.653429,-1.129348 0.359387,-0.298264 0.527561,-0.870298 0.37373,-1.271186 -0.252362,-0.657641 -0.174893,-0.655478 0.792532,0.02214 0.589732,0.413062 1.12363,1.101185 1.186443,1.529161 0.336336,2.2916 0.676146,2.87267 1.67994,2.87267 1.102437,0 3.025022,-2.150474 3.025022,-3.383588 0,-1.167905 0.790175,-0.79117 2.311692,1.102156 0.795989,0.990502 1.600688,1.706085 1.788221,1.590183 0.18753,-0.115901 0.464413,0.110969 0.615296,0.504155 0.434538,1.1324 0.325544,1.547875 -0.406066,1.547875 -0.374215,0 -0.680391,-0.294793 -0.680391,-0.655096 0,-0.360304 -0.526759,-1.227802 -1.170576,-1.927775 -0.643823,-0.699972 -1.059315,-1.048765 -0.923318,-0.775096 0.135992,0.27367 -0.364676,1.083853 -1.112598,1.800407 -1.172295,1.123132 -1.78985,1.327123 -4.477385,1.478983 -2.994173,0.169186 -3.150237,0.126237 -3.944144,-1.085417 z m -14.875384,-0.04936 c 0.467124,-0.34157 1.127015,-0.514474 1.466423,-0.38423 0.339408,0.130243 1.246784,0.236806 2.016389,0.236806 2.398459,0 1.011158,0.519059 -1.729159,0.646965 -2.298691,0.107293 -2.503688,0.0489 -1.753653,-0.499541 z"
         id="path2244" />
      <path
         style="fill:#494949;fill-opacity:1;stroke-width:0.453594"
         d="m 51.162361,93.601732 -3.175158,-0.260095 3.855549,-0.324401 c 7.070549,-0.594907 13.538082,-3.18955 18.701282,-7.502575 2.73499,-2.28464 5.626198,-5.718953 6.883923,-8.177042 0.453494,-0.886309 0.968859,-1.361091 1.273238,-1.172972 0.338046,0.208921 0.410127,0.05223 0.212673,-0.462321 -0.164274,-0.428097 -0.128141,-0.672956 0.0803,-0.544135 0.592525,0.366204 2.691585,-2.100961 2.860613,-3.362265 0.09566,-0.713867 0.444063,-1.135777 0.940404,-1.138821 0.43364,-0.0027 1.108597,-0.461921 1.499899,-1.020586 0.391302,-0.558664 0.517642,-1.015751 0.280752,-1.015751 -0.250202,0 -0.403558,-2.138623 -0.365919,-5.102932 0.0688,-5.418487 0.09488,-5.336151 -2.585304,-8.161397 -0.468925,-0.494304 -0.736418,-1.260715 -0.609457,-1.746205 0.124448,-0.475888 0.01746,-0.865253 -0.237765,-0.865253 -0.255219,0 -0.357206,-0.408516 -0.226634,-0.907814 0.151024,-0.577511 0.05971,-0.797994 -0.250978,-0.605979 -0.304947,0.188464 -0.383813,0.02935 -0.209978,-0.423666 0.15312,-0.399022 0.120461,-0.789711 -0.07258,-0.868197 -0.19304,-0.07849 -1.040454,-1.44466 -1.883149,-3.035936 -1.770355,-3.343001 -5.920082,-8.124577 -9.243855,-10.65135 -10.886485,-8.276047 -26.583863,-8.570393 -38.284056,-0.717876 -2.620467,1.758711 -6.554378,5.492898 -7.499411,7.118665 -0.286448,0.492787 -1.186321,1.995559 -1.999717,3.339493 -2.330343,3.850312 -3.366261,7.670121 -3.614985,13.329772 -0.121503,2.764763 0.004,6.186726 0.281532,7.6745 0.275444,1.47673 0.450319,2.728622 0.388611,2.781974 -0.06171,0.05336 -0.743143,0.232008 -1.5143,0.397003 L 15.245787,70.475564 14.2026,66.96158 c -2.27255,-7.655109 -1.651671,-17.262542 1.608818,-24.894718 1.776436,-4.158294 1.80348,-4.290481 0.877795,-4.290481 -0.374215,0 -0.680391,-0.306176 -0.680391,-0.680391 0,-0.374215 0.153088,-0.656219 0.340196,-0.626676 1.564151,0.246972 2.288505,-0.156392 2.540126,-1.414496 0.167239,-0.836197 0.553843,-1.360782 1.002854,-1.360782 0.401884,0 1.986778,-1.275733 3.521987,-2.834962 1.535208,-1.559229 2.962948,-2.834962 3.172754,-2.834962 0.209807,0 0.640342,-0.354033 0.956745,-0.786739 0.316402,-0.432707 0.703378,-0.658638 0.859946,-0.50207 0.156568,0.156567 0.41337,-0.05072 0.570672,-0.460645 0.157302,-0.409922 0.570341,-0.745313 0.917865,-0.745313 0.347523,0 0.631861,-0.188473 0.631861,-0.418828 0,-0.230356 0.576259,-0.131353 1.280575,0.220007 1.584962,0.790683 9.417458,1.676382 12.780837,1.445258 2.159175,-0.148374 2.025487,-0.182722 -0.993817,-0.255342 -1.918721,-0.04615 -3.600392,-0.264818 -3.737048,-0.485932 -0.411301,-0.665499 0.962401,-0.750185 9.489147,-0.584991 6.530419,0.126519 7.964519,0.263522 7.180292,0.685954 -0.838278,0.451545 -0.542535,0.540893 2.045622,0.618016 3.974767,0.118441 10.444481,-0.605196 11.228545,-1.255911 0.803982,-0.667245 3.866199,1.535009 7.727862,5.557644 4.809293,5.009764 7.873488,10.734264 9.45478,17.663325 0.802231,3.515308 1.065106,10.660324 0.509086,13.837074 -0.313197,1.7894 -0.267162,1.893877 1.034476,2.347629 1.477079,0.514911 2.36879,1.92313 3.738258,5.903562 1.124092,3.267232 1.083953,3.978898 -0.302615,5.365471 -1.357113,1.357113 -2.704386,1.312905 -6.429985,-0.210971 l -2.37362,-0.970881 -1.639461,2.598494 c -3.402553,5.392955 -9.455052,10.601779 -15.508,13.346317 -3.216557,1.458458 -9.197882,3.135563 -10.723214,3.006688 -0.521416,-0.04404 -2.376851,-0.197141 -4.123187,-0.340196 z M 90.76111,75.333958 c 1.418692,-1.418692 -0.104589,-3.331688 -2.063852,-2.591863 -1.681518,0.63495 -1.048437,3.136176 0.793789,3.136176 0.399163,0 0.970691,-0.244941 1.270063,-0.544313 z m -3.12025,-7.733776 c -0.01969,-0.810799 -0.148388,-1.168005 -0.285986,-0.79379 -0.137593,0.374215 -0.56135,1.037596 -0.941679,1.474181 -0.631008,0.724348 -0.605988,0.793789 0.285986,0.793789 0.80776,0 0.971272,-0.255977 0.941679,-1.47418 z M 20.143122,36.755795 c 0.295602,-0.561323 0.756136,-1.162576 1.02341,-1.336119 0.267366,-0.173603 0.310904,-0.479648 0.09679,-0.680391 -0.214038,-0.200672 -0.480282,-0.109712 -0.591656,0.202134 -0.111374,0.311846 -0.469825,0.566992 -0.796559,0.566992 -0.562514,0 -1.144715,0.941659 -1.144715,1.851474 0,0.789101 0.876401,0.414347 1.412727,-0.60409 z m 24.21533,52.533933 c -3.888994,-0.767576 -6.388991,-1.657296 -9.06759,-3.227062 -1.637285,-0.95951 -2.045461,-1.447278 -2.045461,-2.444309 0,-5.288411 -5.018553,-11.564908 -10.409596,-13.018858 -1.135331,-0.306194 -1.843852,-0.570494 -1.574491,-0.587336 0.336265,-0.021 0.287109,-0.990137 -0.156854,-3.092372 -1.414267,-6.696784 0.238691,-14.769649 4.21605,-20.590715 4.020468,-5.884161 9.461016,-9.657872 16.769972,-11.632105 3.63259,-0.981204 10.484946,-0.960687 14.288209,0.04278 7.10817,1.875452 14.147839,6.965171 17.634453,12.749806 2.994491,4.968155 3.83647,8.031279 3.875901,14.100502 0.02894,4.45334 -0.150734,6.034968 -0.988001,8.697827 -1.242865,3.952822 -4.768093,9.368692 -7.856904,12.07071 -2.964046,2.592875 -8.424605,5.618632 -11.664372,6.463356 -3.814611,0.994609 -9.345377,1.193292 -13.021316,0.467773 z m 6.821363,-23.59538 c 2.701329,-1.128687 3.251261,-4.080508 1.151421,-6.180349 -1.690309,-1.690313 -3.552897,-1.742182 -5.443213,-0.151586 -2.28768,1.924957 -1.773055,5.113541 1.021498,6.329154 1.78378,0.775932 1.42062,0.775623 3.270294,0.0027 z m 13.784719,-0.0052 c 3.461521,-1.790018 1.950191,-7.228913 -2.008731,-7.228913 -2.138192,0 -3.855549,1.644636 -3.855549,3.692282 0,3.50346 2.736755,5.153943 5.86428,3.53664 z M 38.935943,64.785836 c 2.509705,-2.509704 0.717283,-6.597728 -2.892821,-6.597728 -1.759887,0 -3.104228,0.870428 -2.453591,1.588635 0.184943,0.204154 0.09136,0.230685 -0.207974,0.05896 -0.806683,-0.462793 -1.603715,1.369591 -1.265512,2.90942 0.654875,2.981627 4.675803,4.184807 6.819898,2.04071 z m 39.464034,8.144074 c 0.826712,-2.446731 1.555383,-5.571421 1.560214,-6.69051 0.0032,-0.686061 0.209501,-1.247383 0.458978,-1.247383 0.249477,0 0.453594,0.263293 0.453594,0.58509 0,1.160657 -1.382037,5.858143 -2.072902,7.045711 -0.388526,0.667854 -0.568471,0.806046 -0.399884,0.307092 z m 2.962191,-5.934519 c 0.02177,-0.528414 0.129247,-0.635893 0.274043,-0.274048 0.13103,0.327436 0.114918,0.718661 -0.03579,0.86939 -0.15073,0.150725 -0.257932,-0.117181 -0.238237,-0.595342 z m 0.573279,-5.405329 c 0.0018,-1.995813 0.08139,-2.75586 0.177215,-1.688989 0.09582,1.066872 0.09447,2.69981 -0.0032,3.628752 -0.09746,0.928942 -0.175863,0.05605 -0.174217,-1.939763 z m -1.464119,0.680391 c 0.02105,-0.873168 0.201695,-2.097872 0.401435,-2.721563 0.301073,-0.940101 0.369706,-0.78499 0.401435,0.907187 0.02105,1.122645 -0.159597,2.347349 -0.401435,2.721564 -0.32735,0.506537 -0.429926,0.274737 -0.401435,-0.907188 z m -0.466925,-4.082345 c -0.0137,-0.623692 0.172928,-1.440161 0.414766,-1.814376 0.362916,-0.561572 0.435346,-0.521964 0.414766,0.226797 -0.0137,0.498953 -0.200357,1.315422 -0.414766,1.814376 -0.357019,0.83083 -0.391932,0.811742 -0.414766,-0.226797 z m 1.393572,-1.814376 c 0,-0.623692 0.102956,-0.878838 0.228788,-0.566992 0.125831,0.311845 0.125831,0.822139 0,1.133984 -0.125832,0.311846 -0.228788,0.0567 -0.228788,-0.566992 z m -1.879049,-0.993815 c -0.0036,-0.421861 0.197172,-0.893172 0.446649,-1.047358 0.574068,-0.354792 0.574068,0.24568 0,1.133985 -0.378932,0.586357 -0.440662,0.574382 -0.446649,-0.08663 z m -0.453594,-1.587579 c 0.0038,-0.201831 0.204811,-0.673142 0.446649,-1.047357 0.378932,-0.586357 0.440662,-0.574382 0.446649,0.08663 0.0036,0.421861 -0.197172,0.893172 -0.446649,1.047357 -0.249477,0.154186 -0.450469,0.115204 -0.446649,-0.08663 z m -0.460539,-1.47418 c 0,-0.234753 0.201781,-0.551534 0.4484,-0.703951 0.257125,-0.158912 0.333165,0.02318 0.178267,0.426823 -0.301544,0.785815 -0.626667,0.929591 -0.626667,0.277128 z m -0.621632,-1.624792 c -0.158676,-0.413501 -0.173731,-0.937515 -0.03347,-1.164475 0.140287,-0.226965 0.02684,-0.412662 -0.252081,-0.412662 -0.278924,0 -0.380982,-0.204117 -0.226797,-0.453594 0.154186,-0.249476 0.06832,-0.453594 -0.190808,-0.453594 -0.25913,0 -0.891811,-0.824574 -1.40596,-1.832386 -0.514144,-1.007812 -2.406379,-3.396974 -4.204961,-5.309248 l -3.270149,-3.476862 2.835606,2.201509 c 2.779338,2.157824 4.892151,4.858254 6.893834,8.811151 0.632491,1.249044 0.844496,2.140764 0.573402,2.411859 -0.271091,0.271091 -0.536779,0.152149 -0.718611,-0.321698 z M 47.036702,23.644886 c -0.214392,-0.346895 -0.122747,-0.399512 0.27148,-0.155869 0.443311,0.273983 0.529879,0.118293 0.339343,-0.610306 -0.140678,-0.537965 -0.05873,-0.978117 0.182118,-0.978117 0.240845,0 0.311746,-0.204118 0.15756,-0.453594 -0.154185,-0.249477 -0.03016,-0.453594 0.275627,-0.453594 0.305781,0 0.418018,-0.137945 0.249417,-0.306545 -0.51604,-0.516038 1.608925,-2.415019 2.702413,-2.415019 1.315119,0 1.716948,0.645336 0.849894,1.364927 -0.371466,0.308291 -0.675396,0.824702 -0.675396,1.14758 0,0.322879 -0.250829,0.670661 -0.557395,0.772849 -0.408425,0.136142 -0.345017,0.509922 0.237257,1.398582 l 0.794647,1.212783 h -2.251659 c -1.238411,0 -2.397298,-0.235655 -2.575306,-0.523677 z m 4.352456,-4.7787 c 0,-0.138507 -0.319634,0.01344 -0.710301,0.337666 -1.032344,0.856771 -2.097927,3.096742 -1.74489,3.667962 0.251699,0.407258 2.455191,-3.187725 2.455191,-4.005628 z m 6.350315,4.98318 c 1.161853,-0.422769 3.155784,-2.51526 2.895639,-3.03877 -0.135997,-0.273669 0.279495,0.07512 0.923318,0.775096 1.917432,2.084673 1.588431,2.588149 -1.664386,2.547061 -1.559229,-0.0197 -2.528786,-0.147219 -2.154571,-0.283387 z M 37.67323,23.39416 c 0.564231,-0.108496 1.3807,-0.104377 1.814376,0.0092 0.433675,0.113531 -0.02797,0.202301 -1.025875,0.197267 -0.997907,-0.005 -1.352732,-0.09792 -0.788501,-0.206421 z"
         id="path2242" />
      <path
         style="fill:#333333;fill-opacity:1;stroke-width:0.453594"
         d="m 78.604793,76.162815 c 0,-0.09442 0.497053,-1.295587 1.10456,-2.669273 2.154481,-4.871654 3.02657,-11.815841 2.092216,-16.659643 -0.352306,-1.826392 -0.326193,-1.942435 0.255165,-1.133985 0.356193,0.495338 1.000959,1.30885 1.432808,1.807803 0.653824,0.755424 0.774334,1.760856 0.720379,6.010119 -0.03765,2.964309 0.115717,5.102932 0.365919,5.102932 0.23689,0 0.11055,0.457087 -0.280752,1.015751 -0.391302,0.558665 -1.066259,1.017928 -1.499899,1.020586 -0.493419,0.0032 -0.84803,0.427576 -0.947694,1.134602 -0.124157,0.880766 -3.242702,5.084516 -3.242702,4.371108 z m 1.91961,-17.067519 c 0,-0.873169 0.09335,-1.230374 0.207442,-0.79379 0.114088,0.436584 0.114088,1.150995 0,1.587579 -0.114093,0.436584 -0.207442,0.07938 -0.207442,-0.793789 z m -0.48721,-3.175158 c 0,-0.623692 0.102957,-0.878838 0.228788,-0.566992 0.125832,0.311846 0.125832,0.822139 0,1.133985 -0.125831,0.311845 -0.228788,0.0567 -0.228788,-0.566993 z m -0.942995,-3.024659 c -0.01969,-0.291444 -0.153283,-0.903795 -0.296859,-1.360782 -0.248138,-0.789807 -0.235338,-0.790796 0.258903,-0.02 0.285968,0.445983 0.419556,1.058335 0.296854,1.360782 -0.161017,0.39689 -0.233052,0.40246 -0.258898,0.02 z M 23.719928,30.292081 c 0.585928,-0.623691 1.167382,-1.133984 1.29212,-1.133984 0.124739,0 -0.252598,0.510293 -0.838526,1.133984 -0.585928,0.623692 -1.167382,1.133985 -1.29212,1.133985 -0.124739,0 0.252598,-0.510293 0.838526,-1.133985 z m 2.721564,-2.212429 c 0,-0.09419 0.357205,-0.451397 0.793789,-0.793789 0.719425,-0.564213 0.735469,-0.548169 0.171257,0.171256 -0.592561,0.755573 -0.965046,0.995856 -0.965046,0.622533 z m 20.901132,-5.082873 c 0.02177,-0.528411 0.129247,-0.635893 0.274043,-0.274046 0.13103,0.327438 0.114918,0.718663 -0.03579,0.869388 -0.150729,0.150725 -0.257931,-0.117179 -0.238236,-0.595342 z m 1.591343,-0.124965 c -0.353037,-0.57122 0.712546,-2.811191 1.74489,-3.667962 0.959088,-0.79597 0.898125,-0.456358 -0.365574,2.036555 -0.59893,1.181516 -1.210393,1.904733 -1.379316,1.631407 z"
         id="path2240" />
    </g>
  </g>
</svg>
