<?xml version="1.0" encoding="UTF-8" standalone="no"?>
<!-- Created with Inkscape (http://www.inkscape.org/) -->

<svg
   width="100mm"
   height="100mm"
   viewBox="0 0 100 100"
   version="1.1"
   id="svg13229"
   inkscape:version="1.1.1 (3bf5ae0d25, 2021-09-20)"
   sodipodi:docname="add_list_type_device_6046.svg"
   xmlns:inkscape="http://www.inkscape.org/namespaces/inkscape"
   xmlns:sodipodi="http://sodipodi.sourceforge.net/DTD/sodipodi-0.dtd"
   xmlns="http://www.w3.org/2000/svg"
   xmlns:svg="http://www.w3.org/2000/svg">
  <sodipodi:namedview
     id="namedview13231"
     pagecolor="#ffffff"
     bordercolor="#666666"
     borderopacity="1.0"
     inkscape:pageshadow="2"
     inkscape:pageopacity="0.0"
     inkscape:pagecheckerboard="true"
     inkscape:document-units="mm"
     showgrid="false"
     width="100mm"
     inkscape:zoom="0.58974467"
     inkscape:cx="378.97757"
     inkscape:cy="242.47782"
     inkscape:window-width="1440"
     inkscape:window-height="890"
     inkscape:window-x="-6"
     inkscape:window-y="-6"
     inkscape:window-maximized="1"
     inkscape:current-layer="layer1" />
  <defs
     id="defs13226" />
  <g
     inkscape:label="Laag 1"
     inkscape:groupmode="layer"
     id="layer1">
    <g
       id="g13245"
       transform="translate(-1.9821256,-1.0114752)">
      <path
         style="fill:#d0d0d0;fill-opacity:1;stroke-width:0.468314"
         d="m 9.8495595,84.883282 c 0.00954,-0.772718 0.1145017,-1.032136 0.2332395,-0.576481 0.118738,0.455656 0.110929,1.087879 -0.01735,1.404942 -0.1282834,0.317062 -0.2254328,-0.05574 -0.2158895,-0.828461 z M 38.793718,75.815368 v -8.833756 l 1.287863,0.05287 1.287862,0.05287 0.250567,-8.429648 0.250566,-8.429648 0.09896,10.53706 c 0.05443,5.795383 -0.03843,13.540123 -0.206335,17.210532 L 41.45791,84.64912 h -1.332094 -1.332094 z m 23.415689,0 v -8.833756 l 1.287863,0.05287 1.287863,0.05287 0.249832,-8.897962 0.249826,-8.897962 0.101409,10.579682 c 0.05577,5.818822 -0.03686,13.774303 -0.205871,17.678846 L 64.873055,84.64912 H 63.541231 62.209407 Z M 41.678548,46.832786 c -0.07089,-1.882618 -0.150983,-1.990334 -1.479889,-1.990334 -1.352907,0 -1.404941,-0.07805 -1.404941,-2.107412 0,-2.017851 0.05828,-2.107412 1.371243,-2.107412 1.30304,0 1.386499,0.122288 1.677964,2.458647 0.168697,1.352256 0.217587,3.196242 0.108646,4.097746 -0.189442,1.567654 -0.201342,1.552344 -0.273023,-0.351235 z m 23.415691,0 c -0.07089,-1.882618 -0.150984,-1.990334 -1.47989,-1.990334 -1.352907,0 -1.404942,-0.07805 -1.404942,-2.107412 0,-2.017851 0.05828,-2.107412 1.371242,-2.107412 1.303041,0 1.386499,0.122288 1.677964,2.458647 0.1687,1.352256 0.217588,3.196242 0.108648,4.097746 -0.189442,1.567654 -0.201342,1.552344 -0.273022,-0.351235 z M 39.105927,34.227339 c -0.171715,-0.171715 -0.312209,-6.28321 -0.312209,-13.5811 0,-13.8318314 -0.04922,-13.4973399 1.956932,-13.2990404 0.522555,0.051652 0.86186,-0.362082 1.011953,-1.2339346 0.124193,-0.7214029 0.114998,5.221336 -0.02043,13.206086 -0.135431,7.98475 -0.33982,14.675784 -0.454199,14.868963 -0.257711,0.43526 -1.75896,0.46211 -2.182044,0.03903 z m 23.415691,0 c -0.171716,-0.171715 -0.312211,-6.28321 -0.312211,-13.5811 0,-13.8318314 -0.04922,-13.4973399 1.956934,-13.2990404 0.523411,0.051737 0.860147,-0.3606555 1.007572,-1.2339346 0.121781,-0.7214029 0.110892,5.221336 -0.0242,13.206086 -0.135095,7.98475 -0.337514,14.675784 -0.44982,14.868963 -0.253039,0.435257 -1.755133,0.462169 -2.178273,0.03903 z"
         id="path13251" />
      <path
         style="fill:#b9b9b9;fill-opacity:1;stroke-width:0.468314"
         d="m 28.490814,95.711839 c 0,-0.09725 0.368797,-0.466042 0.819549,-0.819549 0.742772,-0.582521 0.759336,-0.565957 0.176814,0.176817 -0.61179,0.780093 -0.996363,1.028173 -0.996363,0.642732 z M 17.672425,92.961695 c 0.25518,-1.50001 0.26124,-1.503283 0.419077,-0.226219 0.09726,0.786945 0.359958,1.17232 0.668953,0.981351 0.303863,-0.187798 0.374208,-0.09668 0.174646,0.226214 -0.727359,1.176892 -1.524446,0.557397 -1.262676,-0.981346 z m 4.964467,-1.756177 c 0.466199,-0.515145 0.953006,-0.936628 1.081793,-0.936628 0.128786,0 -0.14728,0.421483 -0.61348,0.936628 -0.466199,0.515145 -0.953007,0.936627 -1.081793,0.936627 -0.128786,0 0.14728,-0.421482 0.61348,-0.936627 z M 14.675557,80.434301 c 0.4662,-0.515146 0.953007,-0.936628 1.081793,-0.936628 0.128786,0 -0.147279,0.421482 -0.613479,0.936628 -0.4662,0.515145 -0.953007,0.936627 -1.081793,0.936627 -0.128787,0 0.147279,-0.421482 0.613479,-0.936627 z m 4.106659,-5.007675 c 0.455654,-0.118737 1.087877,-0.11093 1.404941,0.01737 0.317064,0.128285 -0.05574,0.225432 -0.828462,0.215888 -0.772718,-0.0096 -1.032134,-0.114503 -0.576479,-0.233239 z M 39.027677,66.931058 C 38.898999,66.802379 38.793718,61.779802 38.793718,55.769772 v -10.92732 h 1.345358 c 1.267985,0 1.355518,0.127933 1.52202,2.22449 0.09716,1.22347 0.07129,6.211532 -0.0575,11.084581 -0.232003,8.778603 -0.24385,8.860796 -1.28806,8.936794 -0.579647,0.04219 -1.159185,-0.02857 -1.287863,-0.157259 z m 23.415691,0 C 62.314689,66.802379 62.209407,61.779802 62.209407,55.769772 v -10.92732 h 1.357787 c 1.259423,0 1.369682,0.144186 1.52202,1.990334 0.09033,1.094683 0.05886,6.08267 -0.06992,11.084416 -0.232279,9.021232 -0.2426,9.094701 -1.288059,9.170947 -0.579646,0.04229 -1.159185,-0.02843 -1.287863,-0.157091 z M 38.793718,6.1352957 c 0,-0.9094758 0.24283,-1.0995165 1.404941,-1.0995165 1.176096,0 1.404941,0.1856022 1.404941,1.1394622 0,0.9627366 -0.2179,1.133267 -1.404941,1.0995165 -1.150768,-0.032721 -1.404941,-0.2388634 -1.404941,-1.1394622 z m 23.415689,0 c 0,-0.9094758 0.24283,-1.0995165 1.404942,-1.0995165 1.176095,0 1.404941,0.1856022 1.404941,1.1394622 0,0.9627366 -0.217902,1.133267 -1.404941,1.0995165 C 62.46358,7.2420369 62.209407,7.0358945 62.209407,6.1352957 Z"
         id="path13249" />
      <path
         style="fill:#a3a3a3;fill-opacity:1;stroke-width:0.468314"
         d="M 15.046998,98.488425 C 13.963428,98.149754 12.192807,97.222512 11.112284,96.427886 -0.01732347,88.243077 5.5804494,70.931619 19.37539,70.873716 27.236836,70.8407 33.361189,76.980547 33.349642,84.883282 33.335592,94.49812 24.142965,101.3314 15.046998,98.488425 Z m 8.062224,-4.878106 c 4.013521,-1.823305 6.500202,-6.714098 5.420535,-10.661084 -2.047685,-7.485814 -10.277695,-9.933877 -15.732594,-4.679748 -2.9151325,2.807841 -3.7726502,6.526435 -2.311587,10.024112 2.122011,5.079935 7.841933,7.489007 12.623646,5.31672 z M 18.18791,92.807418 c 0,-0.784664 -0.550803,-1.484803 -1.838517,-2.33697 -3.556449,-2.353549 -4.30511,-6.821375 -1.613759,-9.630541 4.988575,-5.206952 12.862253,0.05957 10.263285,6.864862 -0.816739,2.138602 -4.148383,5.526651 -5.879904,5.979454 -0.737636,0.192899 -0.931105,0.01071 -0.931105,-0.876805 z"
         id="path13247" />
    </g>
  </g>
</svg>
