<?xml version="1.0" encoding="UTF-8" standalone="no"?>
<!-- Created with Inkscape (http://www.inkscape.org/) -->

<svg
   width="100mm"
   height="100mm"
   viewBox="0 0 100 100"
   version="1.1"
   id="svg1222"
   inkscape:version="1.1.1 (3bf5ae0d25, 2021-09-20)"
   sodipodi:docname="add_list_type_device_6073.svg"
   xmlns:inkscape="http://www.inkscape.org/namespaces/inkscape"
   xmlns:sodipodi="http://sodipodi.sourceforge.net/DTD/sodipodi-0.dtd"
   xmlns="http://www.w3.org/2000/svg"
   xmlns:svg="http://www.w3.org/2000/svg">
  <sodipodi:namedview
     id="namedview1224"
     pagecolor="#505050"
     bordercolor="#ffffff"
     borderopacity="1"
     inkscape:pageshadow="0"
     inkscape:pageopacity="0"
     inkscape:pagecheckerboard="1"
     inkscape:document-units="mm"
     showgrid="false"
     inkscape:zoom="0.58974467"
     inkscape:cx="397.62971"
     inkscape:cy="384.91234"
     inkscape:window-width="1440"
     inkscape:window-height="890"
     inkscape:window-x="-6"
     inkscape:window-y="-6"
     inkscape:window-maximized="1"
     inkscape:current-layer="layer1" />
  <defs
     id="defs1219" />
  <g
     inkscape:label="Laag 1"
     inkscape:groupmode="layer"
     id="layer1">
    <g
       id="g1238"
       transform="translate(1.6132581,-2.9819729)">
      <path
         style="fill:#d0d0d0;fill-opacity:1;stroke-width:0.453594"
         d="m 18.045042,96.285043 c 0.154185,-0.249477 0.370348,-0.453594 0.480363,-0.453594 0.110015,0 0.200028,0.204117 0.200028,0.453594 0,0.249476 -0.216164,0.453593 -0.480364,0.453593 -0.2642,0 -0.354213,-0.204117 -0.200027,-0.453593 z M 7.4213942,85.587787 c 0.021764,-0.528414 0.1292475,-0.635893 0.2740465,-0.274048 0.1310302,0.327436 0.1149153,0.718661 -0.035811,0.86939 -0.1507256,0.150725 -0.2579321,-0.117181 -0.2382366,-0.595342 z m 3.6645618,-0.642593 c 0,-0.623691 0.102954,-0.878838 0.228786,-0.566992 0.125833,0.311846 0.125833,0.822139 0,1.133985 -0.125832,0.311846 -0.228786,0.0567 -0.228786,-0.566993 z m 15.875787,0 c 0,-0.623691 0.102954,-0.878838 0.228787,-0.566992 0.125832,0.311846 0.125832,0.822139 0,1.133985 -0.125833,0.311846 -0.228787,0.0567 -0.228787,-0.566993 z m -8.349709,-8.011503 c 0.311846,-0.125831 0.822139,-0.125831 1.133985,0 0.311846,0.125832 0.0567,0.228789 -0.566993,0.228789 -0.623691,0 -0.878838,-0.102957 -0.566992,-0.228789 z"
         id="path1246" />
      <path
         style="fill:#b9b9b9;fill-opacity:1;stroke-width:0.453594"
         d="m 22.807778,93.39222 c 0,-0.09419 0.357205,-0.451394 0.793789,-0.793789 0.719426,-0.564212 0.735469,-0.548169 0.171257,0.171259 -0.592561,0.755574 -0.965046,0.995856 -0.965046,0.62253 z"
         id="path1244" />
      <path
         style="fill:#a3a3a3;fill-opacity:1;stroke-width:0.453594"
         d="M 8.0089467,99.161717 C 7.4786274,99.049829 6.5600997,98.442417 5.967774,97.811917 4.8914641,96.666238 4.8908178,96.6585 4.8908178,84.918958 V 73.172368 L 6.1485099,71.914679 7.4062025,70.656986 H 19.179026 30.95185 l 1.257693,1.257693 1.257692,1.257689 v 11.772826 11.772827 l -1.256856,1.257689 -1.256856,1.257693 -10.99018,0.06588 C 13.918744,99.335521 8.5392656,99.273605 8.0089467,99.161717 Z m 9.3557043,-4.43027 c 0,-1.889931 -0.111813,-2.068865 -1.914065,-3.063043 -5.193593,-2.864949 -5.260626,-10.484311 -0.117863,-13.397014 3.684546,-2.086813 8.464399,-0.802127 10.520107,2.8275 2.615145,4.617391 -0.109555,11.15124 -5.880014,14.100312 -1.185014,0.605616 -2.154571,1.228301 -2.154571,1.383738 0,0.583581 4.942844,-0.25599 6.63263,-1.126591 2.071364,-1.067193 4.272282,-3.300635 5.441222,-5.521621 1.157995,-2.200194 1.157995,-7.778873 0,-9.979067 -1.165682,-2.214799 -3.356637,-4.441238 -5.49674,-5.58576 -1.390883,-0.743844 -2.608425,-0.970323 -5.216331,-0.970323 -3.865177,0 -6.042683,0.889788 -8.454104,3.454576 -2.4300691,2.584623 -3.0935705,4.322001 -3.1035364,8.126611 -0.00796,3.039306 0.148635,3.691021 1.3517775,5.625762 1.8890619,3.037751 5.3587929,5.599654 8.2780889,6.112201 0.06237,0.01093 0.113399,-0.883324 0.113399,-1.987281 z"
         id="path1242" />
      <path
         style="fill:#333333;fill-opacity:1;stroke-width:0.453594"
         d="m 44.580286,97.361933 c -4.140935,-0.804335 -5.896721,-1.935349 -5.896721,-3.798454 0,-2.040905 2.067385,-3.201321 6.917308,-3.882664 l 2.154571,-0.302688 V 57.286729 25.195332 L 44.83509,23.757647 c -6.424206,-3.162626 -7.045261,-7.305135 -1.095205,-7.305135 6.003189,0 14.901813,4.50304 14.901813,7.54088 0,2.059664 -1.183721,2.577107 -5.307008,2.319864 l -3.764871,-0.234882 v 31.652913 31.652914 l 2.768361,0.487636 c 3.760171,0.662342 5.586055,1.775298 5.758534,3.510082 0.156508,1.574089 -0.707371,2.503984 -3.083767,3.319432 -1.709396,0.58657 -8.575484,1.021321 -10.432661,0.660582 z"
         id="path1240" />
    </g>
  </g>
</svg>
