<?xml version="1.0" encoding="UTF-8" standalone="no"?>
<!-- Created with Inkscape (http://www.inkscape.org/) -->

<svg
   width="100mm"
   height="100mm"
   viewBox="0 0 100 100"
   version="1.1"
   id="svg1049"
   inkscape:version="1.1.1 (3bf5ae0d25, 2021-09-20)"
   sodipodi:docname="add_list_type_device_6056.svg"
   xmlns:inkscape="http://www.inkscape.org/namespaces/inkscape"
   xmlns:sodipodi="http://sodipodi.sourceforge.net/DTD/sodipodi-0.dtd"
   xmlns="http://www.w3.org/2000/svg"
   xmlns:svg="http://www.w3.org/2000/svg">
  <sodipodi:namedview
     id="namedview1051"
     pagecolor="#505050"
     bordercolor="#ffffff"
     borderopacity="1"
     inkscape:pageshadow="0"
     inkscape:pageopacity="0"
     inkscape:pagecheckerboard="1"
     inkscape:document-units="mm"
     showgrid="false"
     width="100mm"
     inkscape:zoom="0.58974467"
     inkscape:cx="378.97757"
     inkscape:cy="232.30392"
     inkscape:window-width="1440"
     inkscape:window-height="890"
     inkscape:window-x="-6"
     inkscape:window-y="-6"
     inkscape:window-maximized="1"
     inkscape:current-layer="layer1" />
  <defs
     id="defs1046" />
  <g
     inkscape:label="Laag 1"
     inkscape:groupmode="layer"
     id="layer1">
    <g
       id="g1065"
       transform="translate(-3.1404815)">
      <path
         style="fill:#d0d0d0;fill-opacity:1;stroke-width:0.59691"
         d="m 69.776228,93.951323 c -0.412286,-0.496766 -0.583348,-1.069471 -0.380142,-1.272677 0.203206,-0.203206 0.547473,0.09441 0.765035,0.661382 0.313533,0.817043 0.500252,0.865709 0.900277,0.234663 0.344238,-0.543051 0.507606,-0.570162 0.513844,-0.08528 0.01504,1.168892 -0.99669,1.428662 -1.799014,0.461912 z M 10.026552,92.629275 c -0.7424784,-0.946734 -0.7213657,-0.967847 0.225366,-0.225369 0.574526,0.450577 1.044592,0.920644 1.044592,1.044592 0,0.49128 -0.490174,0.17508 -1.269958,-0.819223 z m 25.941402,-2.220659 c -4.98e-4,-0.37425 1.186297,-0.515706 3.034291,-0.361655 3.092647,0.257799 2.909105,0.416804 -0.894545,0.774932 -1.199255,0.112911 -2.139286,-0.06865 -2.139746,-0.413277 z m 27.856601,0.32269 -2.089183,-0.397763 2.138924,-0.287549 c 1.48951,-0.200239 2.13893,-0.05563 2.13893,0.476346 0,0.42014 -0.02238,0.728528 -0.04972,0.685312 -0.02734,-0.04322 -0.989873,-0.257573 -2.138924,-0.476346 z m -6.715233,-0.463244 c 0.738676,-0.142279 1.947418,-0.142279 2.686094,0 0.738675,0.142274 0.134304,0.258683 -1.343047,0.258683 -1.477351,0 -2.081722,-0.116409 -1.343047,-0.258683 z m 12.845913,-9.219567 -0.02346,-7.3711 0.485192,6.545974 c 0.266861,3.60029 0.277402,6.917281 0.02346,7.371099 -0.253967,0.453819 -0.472305,-2.491871 -0.485192,-6.545973 z M 72.778199,69.797483 V 56.068562 h 6.267551 6.267551 V 69.797483 83.526404 H 79.04575 72.778199 Z M 71.25691,52.18865 c -1.91e-4,-11.818811 0.07954,-16.738381 0.177174,-10.932379 0.09764,5.806002 0.0978,15.475938 3.53e-4,21.488743 -0.09745,6.012814 -0.17733,1.262446 -0.177527,-10.556364 z M 23.980839,70.546079 17.862516,70.352627 v -7.14203 -7.142035 h 6.267551 6.267551 v 7.46137 c 0,4.103754 -0.06715,7.404723 -0.149228,7.335482 -0.08207,-0.06924 -2.902473,-0.212936 -6.267551,-0.319335 z M 17.862516,47.413373 v -2.089184 h 6.267551 6.267551 l 0.129064,-9.102871 0.129065,-9.102872 0.205857,7.46137 c 0.113222,4.103754 0.03376,9.140179 -0.176575,11.192055 l -0.382432,3.730685 h -6.220041 -6.22004 z m 54.915683,0 v -2.089184 h 6.267551 6.267551 l 0.122749,-6.416778 0.122742,-6.416778 0.213389,5.372186 c 0.117365,2.954703 0.0428,6.782385 -0.165696,8.505962 L 85.2274,49.502556 H 79.002797 72.778199 Z M 17.862516,16.09662 c 0,-7.67834 0.08392,-7.7856373 6.079082,-7.7726755 6.73502,0.014561 6.45602,-0.3105432 6.45602,7.5228375 v 6.794842 h -6.267551 -6.267551 z m 54.915683,0 c 0,-7.70522 0.0609,-7.7808264 6.267551,-7.7808264 6.206648,0 6.267551,0.075606 6.267551,7.7808264 v 6.545004 H 79.04575 72.778199 Z"
         id="path1079" />
      <path
         style="fill:#b9b9b9;fill-opacity:1;stroke-width:0.59691"
         d="m 17.568287,96.06834 c -0.209121,-0.338364 0.03048,-0.43843 0.561681,-0.234591 1.034097,0.396819 1.223299,0.824666 0.364685,0.824666 -0.308925,0 -0.72579,-0.265535 -0.926366,-0.590075 z m 15.813879,-1.200654 c 0,-0.3283 0.671523,-0.596909 1.492274,-0.596909 0.82075,0 1.492274,0.268609 1.492274,0.596909 0,0.328301 -0.671524,0.59691 -1.492274,0.59691 -0.820751,0 -1.492274,-0.268609 -1.492274,-0.59691 z m 31.869433,0.105546 c 0.500831,-0.810359 4.614386,-1.220644 4.356867,-0.434556 -0.113054,0.345103 -1.218937,0.712435 -2.457518,0.816286 -1.324692,0.111067 -2.106775,-0.04608 -1.899349,-0.38173 z M 22.339338,92.480048 c 0.594215,-0.656601 1.214696,-1.193819 1.378846,-1.193819 0.16415,0 -0.187721,0.537218 -0.781937,1.193819 -0.594215,0.656601 -1.214696,1.193819 -1.378846,1.193819 -0.16415,0 0.187722,-0.537218 0.781937,-1.193819 z m -9.607267,-2.536866 -1.137106,-1.343046 1.343047,1.137106 c 1.262132,1.0686 1.614784,1.548987 1.137105,1.548987 -0.113268,0 -0.717639,-0.604371 -1.343046,-1.343047 z m 57.070719,0.09949 c 0.0048,-0.793394 0.273265,-1.845447 0.59608,-2.337898 0.412936,-0.629931 0.473284,-0.276023 0.20357,1.193819 -0.472388,2.574346 -0.811785,3.059932 -0.79965,1.144079 z m 3.691701,-1.86037 C 73.100531,87.788341 72.778199,86.5796 72.778199,85.496209 v -1.969802 h 6.267551 6.267551 v 2.323775 c 0,1.568338 -0.306949,2.441563 -0.944185,2.686093 -1.735282,0.665889 -10.127945,0.392707 -10.874625,-0.353973 z m -2.892051,-9.72963 c -0.0018,-2.954702 0.09912,-4.238703 0.224301,-2.853329 0.125184,1.385367 0.126676,3.802851 0.0036,5.372186 -0.123638,1.569329 -0.226067,0.435846 -0.227882,-2.518857 z M 43.380401,72.947136 c 1.066976,-0.132406 2.812937,-0.132406 3.879913,0 1.066976,0.132413 0.193995,0.240752 -1.939956,0.240752 -2.133952,0 -3.006933,-0.108339 -1.939957,-0.240752 z m 18.653426,-9.084701 -3.283003,-0.36827 3.127639,-0.280571 c 2.170083,-0.19467 3.215152,-0.05211 3.413493,0.465566 0.157226,0.410375 0.227136,0.702353 0.15537,0.64884 -0.07177,-0.05348 -1.607848,-0.263016 -3.413499,-0.465565 z M 17.862516,33.982907 V 22.641624 h 6.267551 6.267551 v 11.341283 11.341282 h -6.267551 -6.267551 z m 54.915683,0 V 22.641624 h 6.267551 6.267551 V 33.982907 45.324189 H 79.04575 72.778199 Z"
         id="path1077" />
      <path
         style="fill:#a3a3a3;fill-opacity:1;stroke-width:0.59691"
         d="M 7.0153652,98.367761 C 6.0424294,98.011508 5.1693856,97.063902 4.7769544,95.938172 3.9339095,93.519811 3.9413033,75.899421 4.7863802,73.475234 c 0.9632424,-2.76316 3.2325804,-3.205225 15.2818478,-2.97689 13.600058,0.257722 12.605975,-0.864862 12.605975,14.235483 0,12.347588 -0.04094,12.524906 -3.165855,13.713001 -2.005029,0.762307 -20.3714623,0.697751 -22.4929828,-0.07907 z M 23.703086,95.01215 c 4.53132,-2.073186 7.101482,-7.705297 5.959556,-13.059433 -0.815014,-3.821343 -4.614365,-7.620697 -8.435711,-8.435711 -8.506767,-1.814313 -15.8836371,5.395806 -14.0176346,13.70077 0.9226664,4.106488 4.1649406,7.644323 7.8543076,8.570297 1.448847,0.363638 1.605093,0.244088 1.605093,-1.228105 0,-1.180652 -0.729209,-2.272835 -2.641112,-3.955756 -4.014965,-3.534117 -4.3515847,-7.753104 -0.89443,-11.210261 3.12211,-3.122106 7.540843,-3.111696 10.677703,0.02519 3.300258,3.300259 2.927606,8.176819 -0.953096,12.472294 -1.112974,1.231926 -2.823102,2.571039 -3.800286,2.975804 -0.977183,0.404764 -1.635391,0.96457 -1.462684,1.244013 0.396052,0.640824 3.543055,0.07458 6.108294,-1.099078 z M 43.713605,64.575933 c 4.204941,-0.102752 10.920174,-0.102454 14.92274,5.97e-4 4.002569,0.103181 0.562161,0.18725 -7.645346,0.186886 -8.207507,-3.64e-4 -11.482334,-0.08473 -7.277394,-0.187483 z"
         id="path1075" />
      <path
         style="fill:#8c8c8c;fill-opacity:1;stroke-width:0.59691"
         d="m 43.518425,90.892024 c 0.338553,-0.167571 0.463721,-0.550339 0.27815,-0.850597 -0.185571,-0.300257 -0.03056,-0.545927 0.344478,-0.545927 0.885413,0 0.43215,1.374014 -0.514426,1.559426 -0.398064,0.07797 -0.446755,0.0048 -0.108202,-0.162902 z m 2.104613,-0.19587 c -0.209121,-0.338364 0.03048,-0.43843 0.561682,-0.234592 1.034096,0.39682 1.223299,0.824667 0.364685,0.824667 -0.308926,0 -0.72579,-0.265536 -0.926367,-0.590075 z m 2.084958,-0.0068 c 0,-0.3283 0.268609,-0.596909 0.59691,-0.596909 0.3283,0 0.596909,0.268609 0.596909,0.596909 0,0.3283 -0.268609,0.59691 -0.596909,0.59691 -0.328301,0 -0.59691,-0.26861 -0.59691,-0.59691 z m 2.158051,-0.111431 c 0.165023,-0.26701 1.134787,-0.485478 2.155029,-0.485478 1.020242,0 1.653698,0.201457 1.40768,0.447682 -0.609818,0.610328 -3.938378,0.645641 -3.562709,0.03778 z m 9.481686,-4.663846 c -0.506301,-0.81921 0.1796,-1.790729 1.264273,-1.790729 0.49245,0 0.726648,0.272991 0.520439,0.606646 -0.206208,0.333654 -0.670622,0.423895 -1.032031,0.200537 -0.422842,-0.261333 -0.521217,-0.05199 -0.275943,0.587174 0.41782,1.088817 0.109598,1.345083 -0.476738,0.396372 z m 0.736189,-14.99681 c 0.404906,-0.40794 0.886552,-0.591341 1.070334,-0.407558 0.183783,0.183782 -0.147502,0.51755 -0.736186,0.741708 -0.850716,0.323931 -0.919279,0.25537 -0.334148,-0.33415 z"
         id="path1073" />
      <path
         style="fill:#606060;fill-opacity:1;stroke-width:0.59691"
         d="m 65.66241,92.131853 c 0.02865,-0.69537 0.170084,-0.836808 0.360629,-0.360635 0.172429,0.430891 0.151227,0.945725 -0.0471,1.144079 -0.198353,0.198347 -0.339427,-0.154206 -0.313509,-0.783444 z M 35.920334,87.406316 c 0.0066,-1.313201 0.128864,-1.780133 0.271641,-1.037632 0.142776,0.742502 0.137356,1.81694 -0.01205,2.387639 -0.149402,0.570699 -0.26622,-0.03681 -0.259595,-1.350007 z m 29.845479,0 c 0.0066,-1.313201 0.128867,-1.780133 0.271641,-1.037632 0.142775,0.742502 0.137355,1.81694 -0.01206,2.387639 -0.149401,0.570699 -0.266222,-0.03683 -0.259596,-1.350007 z M 35.98168,79.646491 c -0.0018,-2.954702 0.09912,-4.238702 0.224304,-2.853329 0.125187,1.385368 0.126675,3.802851 0.0033,5.372186 -0.123343,1.56933 -0.225768,0.435846 -0.227587,-2.518857 z m 29.854437,-0.895364 c 0,-3.447153 0.09866,-4.857352 0.219233,-3.133775 0.120576,1.723576 0.120576,4.543974 0,6.26755 -0.120576,1.723577 -0.219233,0.313378 -0.219233,-3.133775 z M 35.948676,69.797483 c 0,-1.805652 0.111901,-2.544327 0.248667,-1.641501 0.136767,0.902825 0.136767,2.380177 0,3.283002 -0.136766,0.902826 -0.248667,0.164151 -0.248667,-1.641501 z m 29.83733,-0.298455 c 0.0048,-1.641501 0.120409,-2.242177 0.257609,-1.334839 0.137205,0.907338 0.133534,2.250385 -0.0081,2.984548 -0.141683,0.734163 -0.253938,-0.0082 -0.249461,-1.649709 z M 53.22941,61.596549 c 1.887727,-0.118457 4.976734,-0.118457 6.86446,0 1.887727,0.118457 0.343223,0.215376 -3.43223,0.215376 -3.775453,0 -5.319957,-0.09692 -3.43223,-0.215376 z"
         id="path1071" />
      <path
         style="fill:#494949;fill-opacity:1;stroke-width:0.59691"
         d="m 35.975784,92.752758 c -0.194405,-0.506609 -0.185975,-1.088596 0.01873,-1.2933 0.20471,-0.20471 0.372199,0.07079 0.372199,0.61222 0,0.883516 1.514388,1.001907 14.773512,1.154996 l 14.773513,0.170573 -14.792247,0.13831 C 38.255372,93.655858 36.28322,93.553947 35.975784,92.752758 Z m 24.752303,-1.874284 c 0.430891,-0.172429 0.945725,-0.151227 1.144079,0.0471 0.198347,0.198347 -0.154206,0.339427 -0.783444,0.313509 -0.69537,-0.02865 -0.836808,-0.170084 -0.360635,-0.360629 z M 44.297561,85.472281 c 1.899714,-0.118814 4.854416,-0.11771 6.566005,0.0024 1.71159,0.120164 0.157278,0.217377 -3.454025,0.216028 -3.611303,-0.0012 -5.011694,-0.09966 -3.11198,-0.218475 z M 42.79927,84.28239 c 1.403954,-0.126091 3.552829,-0.124318 4.775277,0.0042 1.222448,0.128258 0.07376,0.231428 -2.552644,0.229261 -2.626402,-0.0024 -3.626587,-0.107109 -2.222633,-0.233206 z m 1.498291,-5.376114 c 1.899714,-0.118815 4.854416,-0.117711 6.566005,0.0024 1.71159,0.120164 0.157278,0.217377 -3.454025,0.216028 -3.611303,-0.0012 -5.011694,-0.09966 -3.11198,-0.218475 z m 0,-1.193819 c 1.899714,-0.118815 4.854416,-0.117711 6.566005,0.0024 1.71159,0.120164 0.157278,0.217377 -3.454025,0.216028 -3.611303,-0.0012 -5.011694,-0.09966 -3.11198,-0.218475 z"
         id="path1069" />
      <path
         style="fill:#333333;fill-opacity:1;stroke-width:0.59691"
         d="m 36.366714,91.830885 c 0,-1.214078 0.172373,-1.235484 6.715233,-0.833662 3.693378,0.226826 6.983842,0.373248 7.312142,0.325387 0.328301,-0.04787 3.887374,-0.198782 7.909053,-0.335385 6.947102,-0.235965 7.312142,-0.190003 7.312142,0.920685 0,1.128977 -0.501231,1.169048 -14.624285,1.169048 -14.430755,0 -14.624285,-0.01649 -14.624285,-1.246073 z m 0,-14.273577 V 65.022206 H 50.990999 65.615284 V 77.543698 90.06519 l -10.29669,-0.05062 c -6.226301,-0.03062 -10.601648,-0.298378 -11.068126,-0.677379 -0.543505,-0.441588 -0.975598,-0.422612 -1.462429,0.06422 -0.380046,0.380052 -1.980318,0.691001 -3.556159,0.691001 h -2.865166 z m 25.728845,7.879887 c -0.366341,-0.122116 -0.51425,-0.467696 -0.328676,-0.767954 0.185567,-0.300257 -0.199822,-0.545928 -0.856422,-0.545928 -1.530434,0 -2.214796,1.095771 -1.244075,1.991965 0.584281,0.539422 0.660858,0.49457 0.343579,-0.201236 -0.253335,-0.555579 -0.125409,-0.51096 0.337091,0.117574 0.579903,0.788075 0.930641,0.859173 1.579977,0.320271 0.556487,-0.46184 0.612645,-0.766652 0.168526,-0.914692 z m -8.120012,-0.418517 c 0,-0.352565 -2.748869,-0.665996 -6.715233,-0.765686 -6.137756,-0.154265 -7.464576,0.11583 -6.298301,1.282102 0.654614,0.654613 13.013534,0.164174 13.013534,-0.516416 z m 0,-6.566006 c 0,-0.629901 -11.224772,-1.182328 -12.679675,-0.624027 -0.454552,0.174429 -0.653793,0.596516 -0.442758,0.937978 0.50219,0.812561 13.122433,0.510626 13.122433,-0.313951 z m 8.05828,-0.34222 c 0,-0.854237 -0.321448,-1.175685 -1.03774,-1.037739 -1.555984,0.299654 -1.729514,2.275324 -0.199845,2.275324 0.854231,0 1.237585,-0.383354 1.237585,-1.237585 z M 49.20027,73.390664 c 0,-0.06044 0.805828,-0.230348 1.790729,-0.377569 2.656319,-0.397065 3.400914,-0.751187 2.987153,-1.420669 -0.212785,-0.344292 -3.161787,-0.601124 -6.902293,-0.601124 -5.307749,0 -6.530778,0.162121 -6.530778,0.865704 0,1.375268 1.596272,1.91405 5.255365,1.77383 1.869903,-0.07165 3.399824,-0.179735 3.399824,-0.240172 z m 14.008394,-0.558893 c -0.05671,-1.040264 -1.831635,-2.542124 -2.638436,-2.232525 -1.253028,0.480835 -1.171797,2.042517 0.120552,2.317579 1.576772,0.335607 2.539044,0.303099 2.517884,-0.08505 z M 37.677125,63.178997 c 0.227876,-0.684572 2.709796,-0.8731 13.214003,-1.003751 8.494477,-0.105659 12.933427,0.04799 12.933427,0.447682 0,0.354158 -1.707018,0.608549 -4.083462,0.608549 -2.245904,0 -8.192205,0.177838 -13.214002,0.395202 -7.720298,0.334156 -9.087204,0.26501 -8.849966,-0.447682 z"
         id="path1067" />
    </g>
  </g>
</svg>
