<?xml version="1.0" encoding="UTF-8" standalone="no"?>
<!-- Created with Inkscape (http://www.inkscape.org/) -->

<svg
   width="100mm"
   height="100mm"
   viewBox="0 0 100 100"
   version="1.1"
   id="svg3596"
   inkscape:version="1.1.1 (3bf5ae0d25, 2021-09-20)"
   sodipodi:docname="add_list_type_device_613de.svg"
   xmlns:inkscape="http://www.inkscape.org/namespaces/inkscape"
   xmlns:sodipodi="http://sodipodi.sourceforge.net/DTD/sodipodi-0.dtd"
   xmlns="http://www.w3.org/2000/svg"
   xmlns:svg="http://www.w3.org/2000/svg">
  <sodipodi:namedview
     id="namedview3598"
     pagecolor="#ffffff"
     bordercolor="#666666"
     borderopacity="1.0"
     inkscape:pageshadow="2"
     inkscape:pageopacity="0.0"
     inkscape:pagecheckerboard="0"
     inkscape:document-units="mm"
     showgrid="false"
     width="100mm"
     inkscape:zoom="0.58974467"
     inkscape:cx="378.97757"
     inkscape:cy="306.91248"
     inkscape:window-width="1440"
     inkscape:window-height="890"
     inkscape:window-x="-6"
     inkscape:window-y="-6"
     inkscape:window-maximized="1"
     inkscape:current-layer="layer1" />
  <defs
     id="defs3593" />
  <g
     inkscape:label="Laag 1"
     inkscape:groupmode="layer"
     id="layer1">
    <path
       style="fill:#d0d0d0;fill-opacity:1;stroke-width:0.602448"
       d="m 52.657524,98.550889 c -3.91784,-1.12848 -4.13091,-1.13086 -11.21328,-0.12547 -4.76962,0.67708 -6.13695,0.65189 -10.42024,-0.19196 -24.5897,-4.84443 -36.8253,-31.143981 -24.59689,-52.869225 4.2118,-7.482751 13.67404,-14.536306 22.19459,-16.544775 5.09057,-1.199952 12.66728,-1.168777 17.1317,0.07049 4.22008,1.171438 4.36806,1.17353 11.49046,0.162453 4.76962,-0.677082 6.13696,-0.651893 10.42025,0.191961 8.85202,1.743944 16.04135,6.035495 21.69757,12.952009 2.74181,3.35273 2.89298,3.92959 0.8927,3.406506 -1.43145,-0.374335 -3.10137,-2.648437 -1.94479,-2.648437 0.39614,0 -0.0497,-0.803666 -0.99076,-1.785924 -0.94107,-0.982258 -1.94872,-1.639021 -2.23923,-1.459473 -0.29052,0.179549 -1.50057,-0.527292 -2.68902,-1.570755 -1.18843,-1.043465 -3.07807,-2.334626 -4.19918,-2.869248 -1.12112,-0.534622 -2.03839,-1.312481 -2.03839,-1.728577 0,-1.103641 -1.08079,-1.600742 -3.86205,-1.776325 -6.40953,-0.404637 -11.13433,-1.078631 -10.84484,-1.547022 0.17558,-0.284097 -0.75858,-0.516541 -2.07591,-0.516541 -1.31733,0 -2.48551,0.269633 -2.59596,0.599184 -0.20946,0.624985 -7.52514,2.96844 -10.14121,3.24857 -1.89843,0.203283 -4.34125,1.488525 -3.97023,2.088855 0.33149,0.536362 -7.10339,7.317256 -8.02298,7.317256 -0.85598,0 -2.65298,2.824045 -2.23122,3.50646 0.186,0.300963 -0.34395,1.961223 -1.17769,3.689468 -0.83373,1.728245 -1.67419,3.933841 -1.86769,4.901324 -0.19349,0.967484 -0.69491,1.759061 -1.11426,1.759061 -0.42286,0 -0.8721,0.939159 -1.00862,2.108569 -0.14305,1.22528 0.0186,2.109954 0.38592,2.111873 0.36968,0.0019 0.64615,1.56508 0.66596,3.765303 0.0186,2.0691 0.21787,4.656556 0.44276,5.749905 0.28186,1.370285 0.20453,1.861595 -0.2489,1.581365 -0.45559,-0.28157 -0.52589,0.2185 -0.22868,1.62678 0.46483,2.20259 1.49812,3.76882 1.5203,2.30443 0.007,-0.48045 0.5358,0.27768 1.17449,1.68472 0.63869,1.40705 2.00127,3.77919 3.02795,5.27143 1.06449,1.54718 1.54692,2.71315 1.1226,2.71315 -0.40926,0 0.0259,0.80367 0.96692,1.78592 0.94106,0.98226 1.92776,1.65197 2.19266,1.48826 0.2649,-0.16372 1.78225,0.69557 3.37189,1.90953 1.58963,1.21395 3.50023,2.48547 4.24576,2.82558 0.74553,0.34011 1.3555,0.94863 1.3555,1.35227 0,0.94494 3.76114,2.5493 4.03691,1.722 0.23539,-0.70619 9.3138,0.87174 9.88258,1.71771 0.55753,0.82922 4.48108,0.28079 4.30458,-0.60169 -0.0888,-0.4438 0.47572,-0.75306 1.37452,-0.75306 0.83881,0 3.15692,-0.54971 5.15133,-1.22159 1.99442,-0.67186 3.87798,-1.06598 4.18569,-0.87581 0.3077,0.19017 1.10727,0.0526 1.77681,-0.30573 2.31605,-1.23952 1.20746,-0.0516 -1.35121,1.44782 -5.47278,3.20726 -17.00068,4.329951 -23.93917,2.3314 z m -11.44652,-1.32822 c 0,-0.30502 0.8494,-0.74114 1.88756,-0.96916 3.28764,-0.72209 0.64825,-1.46933 -5.22506,-1.47928 -9.94882,-0.0169 -16.04853,-2.5061 -22.8793,-9.33687 -6.7101,-6.7101 -9.32766,-12.97308 -9.32766,-22.318126 0,-17.434084 13.67003,-31.21976 31.0261,-31.288587 2.98212,-0.01183 6.10204,0.170545 6.93316,0.405268 1.44694,0.408643 3.62084,-0.315209 2.95283,-0.983217 -0.17641,-0.176406 -2.40515,-0.630754 -4.95275,-1.009664 -2.54761,-0.378909 -4.63202,-0.927072 -4.63202,-1.21814 0,-0.873265 -3.62679,-0.596228 -3.97201,0.303407 -0.17573,0.457943 -1.44344,1.012346 -2.81713,1.232008 -1.37369,0.219662 -3.64606,0.907395 -5.04971,1.528295 -1.60134,0.708351 -2.63072,0.89302 -2.76315,0.495708 -0.27039,-0.811175 -4.0739,1.097375 -4.0739,2.044229 0,0.805626 -7.26105,7.485303 -7.91653,7.282667 -0.69914,-0.216136 -3.0497,3.370432 -2.64163,4.030702 0.19916,0.322244 -0.16206,1.613352 -0.80271,2.86913 -0.64065,1.255776 -1.47686,3.442069 -1.85825,4.858427 -0.38138,1.416358 -0.93818,2.423931 -1.23732,2.239052 -0.75224,-0.464914 -1.51925,3.947167 -0.77052,4.432285 0.69396,0.449629 1.44351,10.787626 0.80131,11.051916 -0.73507,0.30251 0.5555,4.09394 1.39353,4.09394 0.43436,0 1.12418,0.74553 1.53292,1.65673 0.40874,0.9112 1.46136,2.87669 2.33916,4.36775 0.87779,1.49106 1.52336,2.95147 1.43459,3.24536 -0.25377,0.84025 2.46525,3.44838 3.27218,3.13873 0.39896,-0.15309 1.22527,0.27872 1.83626,0.95959 0.61099,0.68086 2.52691,2.03987 4.25761,3.02001 1.7307,0.98015 3.0862,2.04493 3.01224,2.3662 -0.18347,0.79692 3.65246,2.41704 3.90796,1.65054 0.12866,-0.38598 1.13922,-0.37576 2.89716,0.0293 1.48477,0.34211 3.73221,0.62866 4.99432,0.63675 1.37328,0.009 2.14522,0.25665 1.9224,0.61718 -0.22487,0.36384 0.59619,0.60245 2.07301,0.60245 1.34494,2e-5 2.44535,-0.24955 2.44535,-0.55456 z m -1.00277,-3.46306 c 0.87433,-0.87433 -1.64146,-2.6093 -3.78361,-2.6093 -6.35773,0 -13.57421,-3.2354 -18.7411,-8.40228 -4.14065,-4.14066 -6.03016,-7.44406 -7.51195,-13.133011 -3.22953,-12.399022 3.17665,-25.625234 15.17053,-31.321105 3.99748,-1.898394 5.39475,-2.244264 9.94555,-2.46184 3.50079,-0.167374 5.5282,-0.534555 5.98399,-1.083749 0.56711,-0.683325 0.24265,-0.83061 -1.82977,-0.83061 -1.526,0 -2.37233,-0.237504 -2.14678,-0.602448 0.21722,-0.351482 -0.39538,-0.602448 -1.47057,-0.602448 -1.01359,0 -1.8429,0.211055 -1.8429,0.469013 0,0.602632 -8.37336,2.874503 -9.87009,2.677964 -1.29906,-0.170584 -2.92116,0.958958 -2.4566,1.710645 0.17131,0.277177 -0.27744,0.819136 -0.99723,1.204352 -0.71978,0.385216 -2.42176,1.686552 -3.78217,2.891857 -1.36042,1.205306 -3.01569,2.491776 -3.67838,2.858823 -0.66269,0.367048 -1.23152,1.330414 -1.26406,2.140815 -0.0326,0.810401 -0.48355,2.1367 -1.00225,2.947332 -0.51869,0.810631 -1.2805,2.626058 -1.69292,4.034281 -0.41242,1.408223 -1.11359,2.560406 -1.55817,2.560406 -0.94313,0 -0.93783,-0.171055 -0.22368,7.214929 0.35729,3.695293 0.3433,5.837778 -0.0397,6.074469 -0.38349,0.237007 -0.36555,0.960369 0.051,2.055965 0.35346,0.92966 0.79783,1.53512 0.98749,1.34546 0.42905,-0.42906 4.75838,8.06555 4.56996,8.96675 -0.17427,0.83349 2.15792,2.98126 2.67537,2.46382 0.21291,-0.21291 1.44576,0.56931 2.73966,1.73828 1.29391,1.16897 3.01576,2.42757 3.82634,2.7969 0.81058,0.36932 1.47378,1.04337 1.47378,1.49788 0,0.92857 2.54501,2.09462 3.01224,1.38013 0.36218,-0.55386 9.25207,1.25353 9.53877,1.93932 0.24309,0.58148 3.35172,0.64291 3.91722,0.0774 z m -4.95932,-5.84758 c -0.37817,-0.45568 -1.71263,-0.9924 -2.96545,-1.19274 -6.40652,-1.02444 -13.78762,-6.93617 -16.86927,-13.51105 -1.44453,-3.081997 -1.61459,-4.142863 -1.61459,-10.071777 0,-6.054852 0.14717,-6.926773 1.70486,-10.100267 3.32968,-6.783584 9.46022,-11.520955 16.97104,-13.114345 1.98808,-0.421763 4.02134,-1.1643 4.51836,-1.650082 0.79572,-0.777722 0.53235,-0.837047 -2.20448,-0.496584 -1.97697,0.245937 -3.18517,0.155591 -3.31978,-0.248247 -0.14604,-0.438109 -0.8261,-0.420702 -2.19403,0.05616 -1.09031,0.380086 -1.84172,0.831733 -1.66979,1.003659 0.45391,0.453921 -6.23087,4.367685 -7.46009,4.367685 -1.25766,0 -3.28997,2.10845 -2.79863,2.903469 0.19362,0.31328 -0.14814,1.211444 -0.75947,1.99592 -0.61133,0.784475 -1.56803,2.316263 -2.12602,3.403974 -0.55798,1.08771 -1.24766,1.833562 -1.53262,1.657448 -0.28495,-0.176114 -0.81561,0.533231 -1.17924,1.576323 -0.78182,2.242753 -0.84034,3.103496 -0.18338,2.697474 0.26275,-0.162394 0.36568,1.515993 0.22873,3.729748 -0.13696,2.213756 -0.4875,4.115378 -0.77897,4.225826 -0.9032,0.342251 -0.59456,3.728126 0.37371,4.099687 0.49702,0.190724 0.91215,0.656644 0.92252,1.035376 0.0104,0.378733 0.67366,2.025603 1.474,3.659723 0.80035,1.63412 1.3228,3.1853 1.16102,3.44707 -0.44453,0.71926 1.6333,3.60138 2.4002,3.32927 0.36806,-0.13059 1.81532,0.80825 3.21614,2.08632 1.40082,1.27807 2.8156,2.32376 3.14395,2.32376 0.32835,0 0.45582,0.36791 0.28327,0.81757 -0.33983,0.88558 2.8954,2.55526 3.83088,1.9771 0.2969,-0.18349 1.32989,-0.0974 2.29554,0.19141 0.96565,0.28878 2.67001,0.54835 3.78745,0.57683 1.65862,0.0423 1.90546,-0.10036 1.34414,-0.77671 z m -3.45937,-4.29271 c -0.19081,-0.49723 -1.51766,-1.42192 -2.94856,-2.05488 -3.74055,-1.65463 -7.82909,-5.68015 -9.75763,-9.60722 -1.42631,-2.904408 -1.66906,-4.143498 -1.66906,-8.519533 0,-4.281835 0.2617,-5.679014 1.59731,-8.527888 1.91862,-4.092441 5.58149,-7.801645 9.43182,-9.551129 4.12674,-1.87507 4.54022,-2.121302 4.78245,-2.847982 0.30516,-0.915484 -1.83244,-1.492978 -3.74731,-1.012375 -0.98416,0.247007 -1.47614,0.705165 -1.28687,1.198393 0.16852,0.439177 -0.19817,0.958651 -0.81488,1.154385 -0.6167,0.195736 -2.12622,1.15451 -3.35449,2.130611 -1.22826,0.9761 -2.47958,1.622456 -2.78071,1.436347 -0.82247,-0.508314 -2.91702,2.315645 -2.57234,3.468134 0.16509,0.551971 0.0387,1.165139 -0.28074,1.362595 -0.31949,0.197456 -1.0222,1.687671 -1.56158,3.311589 -0.53938,1.623918 -1.37341,3.103281 -1.85341,3.287473 -0.93035,0.357011 -1.24727,3.987399 -0.34808,3.987399 0.5314,0 1.57654,6.665714 1.34233,8.561231 -0.15472,1.25215 0.97118,3.48774 1.75651,3.48774 0.84976,0 5.73642,5.48813 5.57431,6.26042 -0.18151,0.86477 3.65363,3.07997 3.92465,2.26692 0.12684,-0.38052 0.92072,-0.29511 2.12491,0.2286 2.48508,1.08077 2.86285,1.07755 2.44137,-0.0208 z m -4.17338,-5.18474 c 0.22665,0.36672 0.65259,0.66677 0.94653,0.66677 0.29395,0 -0.0218,-1.55884 -0.70169,-3.46408 -0.87416,-2.44971 -1.36608,-5.845642 -1.67992,-11.597134 -0.24409,-4.47318 -0.65132,-8.608088 -0.90496,-9.188685 -0.78338,-1.793191 0.17257,-3.905941 2.3864,-5.274162 3.1691,-1.958609 4.58061,-5.25956 1.55711,-3.641428 -0.68778,0.368085 -1.18553,0.864478 -1.10612,1.103095 0.24106,0.72431 -5.22517,5.400975 -5.99491,5.12898 -0.39474,-0.139489 -1.1761,0.632811 -1.73636,1.716222 -0.66417,1.284367 -0.79179,2.045455 -0.36674,2.187139 0.44243,0.147477 0.46802,0.700962 0.0796,1.722495 -0.31475,0.827857 -0.57394,2.097525 -0.57598,2.821485 -0.002,0.723959 -0.3498,1.994044 -0.77279,2.82241 -0.88091,1.725131 -0.42041,5.196211 0.65938,4.9702 0.39576,-0.08284 0.71957,0.202964 0.71957,0.635112 0,0.432149 0.76682,1.994881 1.70405,3.472741 0.93723,1.47785 1.60228,2.99232 1.47789,3.36548 -0.3347,1.00412 2.94283,3.43019 3.47368,2.57125 0.30725,-0.49714 0.53601,-0.50203 0.83523,-0.0179 z m 27.09627,16.68138 c -21.59018,-4.93311 -31.69776,-30.176039 -19.43556,-48.538838 9.16271,-13.721264 28.37515,-18.082608 42.34909,-9.61351 3.64379,2.208361 9.84383,8.128726 9.19364,8.778914 -0.22445,0.224455 -0.98673,-0.327521 -1.69396,-1.226614 -0.70723,-0.899093 -1.62876,-1.503136 -2.04784,-1.342318 -0.41908,0.160817 -1.49114,-0.468693 -2.38234,-1.398911 -0.89121,-0.93022 -2.54895,-2.191375 -3.68387,-2.802568 -1.13491,-0.611192 -2.06348,-1.464998 -2.06348,-1.897346 0,-0.895022 -2.55347,-2.037345 -3.01224,-1.347558 -0.38383,0.577117 -9.27015,-1.178164 -9.53876,-1.884159 -0.34061,-0.895174 -3.56341,-0.587159 -3.93297,0.375888 -0.19072,0.49702 -0.99895,0.903672 -1.79605,0.903672 -0.79711,0 -2.62349,0.414281 -4.05862,0.920625 -1.43513,0.506344 -2.96348,0.784721 -3.39635,0.618617 -1.1985,-0.45991 -3.87613,0.968941 -3.52594,1.881533 0.16808,0.438 0.0971,0.796364 -0.15769,0.796364 -0.2548,0 -1.9731,1.345681 -3.81844,2.990403 -1.84533,1.644721 -3.48743,2.858128 -3.6491,2.696459 -0.49075,-0.490749 -1.96545,1.64309 -2.06663,2.99034 -0.13817,1.83973 -3.35047,9.38586 -3.8611,9.070269 -0.23863,-0.147477 -0.61405,0.4498 -0.83429,1.327283 -0.22023,0.877483 -0.13631,1.758654 0.18649,1.958158 0.32281,0.199505 0.67741,2.572388 0.788,5.273075 0.11059,2.700686 -0.002,4.783761 -0.25076,4.629056 -1.13069,-0.703897 -0.2931,2.194956 1.05429,3.648806 0.82836,0.89383 1.50728,1.95004 1.5087,2.34715 10e-4,0.39711 0.79997,1.92397 1.77455,3.39302 0.97459,1.46904 1.62463,2.90941 1.44453,3.20081 -0.44683,0.72298 1.61761,2.92264 2.32984,2.48246 0.31399,-0.19406 1.29439,0.31671 2.17867,1.13503 0.88428,0.81833 2.68734,2.20346 4.00681,3.07806 1.31947,0.8746 2.14633,1.59018 1.83747,1.59018 -0.30886,0 -0.22983,0.33174 0.17562,0.73719 0.40546,0.40545 1.74741,0.791 2.98212,0.85677 4.89753,0.26088 9.77554,1.01036 9.77554,1.50196 0,0.28533 0.8133,0.51878 1.80734,0.51878 0.99404,0 1.80735,-0.21106 1.80735,-0.46902 0,-0.55104 8.08154,-2.79563 10.16977,-2.82457 0.79254,-0.011 1.73595,-0.55897 2.10857,-1.22478 0.37086,-0.66269 1.06579,-1.45114 1.54428,-1.7521 0.4785,-0.30096 2.03733,-1.62322 3.46408,-2.93836 2.58417,-2.38201 2.5941,-2.38515 2.5941,-0.82231 0,2.60009 -6.25393,7.11245 -13.20135,9.5251 -4.43269,1.53934 -11.98764,1.92766 -16.67351,0.85699 z m 25.05527,-2.38576 c 0,-0.1251 0.41286,-0.5701 0.91746,-0.98888 0.76713,-0.63666 0.85529,-0.59939 0.53799,0.22746 -0.32405,0.84447 -1.45545,1.43637 -1.45545,0.76142 z m -26.62961,-2.10788 c -4.89408,-1.6115 -8.17654,-3.69575 -11.71839,-7.44073 -5.55105,-5.86941 -7.71224,-11.94187 -7.33334,-20.60501 0.21084,-4.820909 0.51678,-6.087667 2.45682,-10.172854 4.03297,-8.492282 11.38649,-14.007474 20.78255,-15.587067 5.69207,-0.956906 10.94621,-0.08942 16.68444,2.754689 4.98382,2.47019 10.03023,7.183203 8.90074,8.312696 -0.55498,0.554975 -1.0505,0.40458 -2.18804,-0.664085 -0.80882,-0.759847 -1.33814,-1.726694 -1.17626,-2.148548 0.34299,-0.893818 -2.83027,-3.601337 -3.34698,-2.855745 -0.19132,0.276053 -2.11001,-0.383699 -4.26376,-1.466116 -2.15375,-1.082417 -3.64481,-1.997034 -3.31347,-2.032482 1.03241,-0.11045 -1.73175,-1.097675 -3.19841,-1.142319 -0.87844,-0.02674 -1.23772,0.205773 -0.97493,0.630958 0.29738,0.481187 -1.11063,0.626837 -4.93465,0.510459 -6.87383,-0.209195 -7.45934,-0.143785 -7.45934,0.833313 0,0.446697 -1.08596,1.301879 -2.41326,1.900404 -1.32729,0.598526 -2.72107,1.459126 -3.09729,1.912444 -0.37623,0.453319 -1.13835,0.680025 -1.69361,0.503791 -1.08719,-0.345059 -3.82114,2.10403 -3.5168,3.150367 0.2526,0.868436 -3.3028,6.755665 -4.08856,6.770073 -0.81791,0.015 -2.18333,4.229094 -1.37028,4.229094 0.64896,0 0.0356,7.159998 -0.69671,8.133053 -0.65692,0.872884 0.0197,4.518363 0.8386,4.518363 0.74707,0 3.11953,5.755672 2.96847,7.201632 -0.12226,1.17038 2.38978,4.65533 2.69521,3.73904 0.26456,-0.79369 6.55027,4.58409 6.3121,5.40037 -0.23163,0.79387 3.55995,2.54496 3.99308,1.84415 0.43017,-0.69604 7.37789,0.87755 7.96059,1.80299 0.45891,0.72883 5.39705,0.38598 5.34403,-0.37103 -0.0406,-0.57994 5.15998,-2.17755 7.85013,-2.41154 1.8726,-0.16288 4.30004,-1.63537 4.02961,-2.44438 -0.11098,-0.33203 0.80077,-1.48561 2.02613,-2.56351 1.85428,-1.63115 2.34499,-1.81875 2.92602,-1.11865 0.998,1.20251 -3.24262,4.7481 -8.98176,7.50967 -4.1347,1.98953 -5.02993,2.18788 -10.54285,2.33591 -4.60889,0.12376 -6.8317,-0.10402 -9.45983,-0.9694 z m 1.97824,-3.44122 c -12.28757,-3.30363 -19.97835,-16.595483 -16.70108,-28.864224 1.86213,-6.971058 6.48161,-12.62676 12.87751,-15.766141 3.17349,-1.557688 4.04541,-1.704863 10.10026,-1.704863 5.91689,0 6.99326,0.171727 10.04592,1.602758 3.95783,1.855364 8.93121,6.185657 8.93121,7.776366 0,1.424551 -0.98019,2.015821 -1.42409,0.859039 -0.18999,-0.495117 -0.0321,-0.900213 0.35081,-0.900213 0.38294,0 -0.0956,-0.826511 -1.06341,-1.836692 -0.96781,-1.010181 -1.84779,-1.57232 -1.95549,-1.249196 -0.10771,0.323122 -1.37139,-0.205875 -2.80818,-1.17555 -1.43678,-0.969675 -2.90236,-1.763046 -3.25683,-1.763046 -0.35447,0 -0.91761,-0.510329 -1.25143,-1.134067 -0.57539,-1.075127 -4.25504,-2.148805 -4.25504,-1.241569 0,0.624079 -8.07071,1.062687 -8.47429,0.46054 -0.46425,-0.692664 -4.17323,0.653924 -4.19266,1.522195 -0.019,0.848056 -5.45315,4.61004 -6.65918,4.61004 -0.97869,0 -2.64009,2.243164 -2.67722,3.614691 -0.047,1.734949 -2.38307,7.229381 -3.07375,7.229381 -0.383,0 -0.80905,0.965313 -0.94679,2.145141 -0.24926,2.135061 0.34178,3.367456 0.92326,1.925139 0.16782,-0.416248 0.32652,0.648821 0.35268,2.366821 0.0262,1.717999 0.30509,3.800973 0.61984,4.628829 0.38838,1.021531 0.3628,1.575021 -0.0796,1.722491 -0.42673,0.14225 -0.30771,0.88291 0.34459,2.14432 0.54808,1.05986 1.19389,1.86132 1.43514,1.78103 0.59285,-0.1973 5.55945,5.23625 5.55945,6.08214 0,0.83396 2.7846,2.7158 3.43759,2.32314 0.26308,-0.1582 2.37604,0.20946 4.69547,0.81702 2.31942,0.60755 3.95959,1.12028 3.64481,1.13938 -0.31884,0.0193 -0.28432,0.32273 0.0779,0.68499 0.72254,0.72254 6.39352,0.12169 5.93,-0.6283 -0.15144,-0.24503 0.86796,-0.78028 2.26534,-1.18945 1.39737,-0.40917 3.1304,-1.12015 3.85118,-1.57997 0.83981,-0.53575 1.38594,-0.60973 1.52053,-0.20596 0.2583,0.7749 3.48669,-1.67112 3.51471,-2.66296 0.0219,-0.77321 2.06267,-3.42035 2.63693,-3.42035 0.1954,0 0.35527,0.6596 0.35527,1.46579 0,0.99751 -0.81798,2.12833 -2.5604,3.53967 -6.54244,5.29925 -14.22406,6.99673 -22.09096,4.88164 z m 33.1048,-0.32477 c -0.0105,-0.53928 0.3875,-1.31801 0.88452,-1.7305 1.15824,-0.96125 1.17042,0.0195 0.0192,1.54159 -0.74308,0.98245 -0.88758,1.01265 -0.90367,0.18891 z m -35.41703,-4.7646 c -6.02589,-3.01117 -9.86429,-8.19028 -10.88256,-14.683732 -1.41159,-9.001625 3.07486,-17.519882 11.24482,-21.350128 2.84887,-1.33561 4.24605,-1.597307 8.52789,-1.597307 4.38915,0 5.61167,0.241046 8.55634,1.687074 2.006,0.985081 4.57547,2.954961 6.17509,4.734133 2.52133,2.804316 2.73653,3.293831 2.70138,6.144754 -0.0324,2.630958 -0.12648,2.876691 -0.6242,1.630906 -0.32231,-0.806735 -0.43979,-1.847826 -0.26108,-2.313538 0.40508,-1.055613 -1.53027,-4.44107 -2.37269,-4.150476 -0.34086,0.117584 -1.68518,-0.693124 -2.98738,-1.801575 -1.30219,-1.10845 -2.58992,-2.015364 -2.86163,-2.015364 -0.2717,0 -0.494,-0.380132 -0.494,-0.844738 0,-1.009596 -3.67561,-2.44127 -4.17851,-1.627558 -0.18845,0.304908 -2.28251,0.647032 -4.65346,0.760276 -2.37096,0.113245 -4.18427,0.0026 -4.02959,-0.245937 0.41396,-0.665039 -1.49353,-0.549713 -2.84171,0.171809 -0.64091,0.343004 -1.16529,0.879624 -1.16529,1.192489 0,0.899041 -5.51095,5.732042 -6.33431,5.55507 -0.79944,-0.171831 -1.96742,2.415737 -1.97549,4.37654 -0.0109,2.65439 -0.92605,7.530605 -1.41329,7.530605 -1.01355,0 -0.49894,3.040811 0.68636,4.055699 0.6627,0.567416 1.2049,1.337392 1.2049,1.711058 0,0.37367 0.81501,1.80448 1.81113,3.17958 0.99611,1.3751 1.49106,2.50018 1.09988,2.50018 -0.39119,0 -0.0659,0.68688 0.72273,1.5264 0.78869,0.83953 1.85258,1.42999 2.3642,1.31215 0.51162,-0.11783 1.93605,0.2797 3.1654,0.8834 1.22935,0.6037 2.63916,1.09764 3.13292,1.09764 0.49375,0 1.13417,0.42249 1.42315,0.93887 0.67011,1.19741 7.15624,1.02311 6.91445,-0.18581 -0.0828,-0.41418 0.26684,-0.75306 0.77706,-0.75306 0.51022,0 2.06906,-0.59638 3.46408,-1.32528 1.39502,-0.7289 2.82722,-1.27025 3.18267,-1.203 0.84872,0.16056 3.5925,-2.77172 3.07644,-3.28779 -0.21934,-0.21932 -0.12016,-0.73451 0.2204,-1.14485 0.34055,-0.41034 1.1407,-1.79079 1.77811,-3.06767 l 1.15893,-2.321603 0.024,2.463393 c 0.0277,2.8422 -1.77086,5.53305 -5.72952,8.57203 -3.50245,2.68876 -6.92292,3.72456 -12.29942,3.72456 -3.97099,0 -5.18054,-0.2663 -8.30818,-1.8292 z m 20.81353,-8.20033 c 0.17515,-1.85427 -0.16093,-2.84454 -1.67231,-4.927413 -2.28747,-3.152449 -4.85256,-4.321403 -9.48264,-4.321403 -6.32439,0 -9.32866,-1.583355 -11.67113,-6.151096 -1.65764,-3.232333 -1.51582,-6.123016 0.35985,-7.334705 4.80484,-3.103949 4.94408,-3.160529 2.86163,-1.162878 -2.33252,2.237538 -2.5451,4.509056 -0.75109,8.025604 1.61226,3.160301 2.92296,3.748995 9.45786,4.247959 6.40514,0.489056 8.67089,1.529366 11.14034,5.115031 2.43092,3.529721 2.65505,5.206111 0.95961,7.177181 l -1.42133,1.65239 z m 0.73603,-4.409911 c -0.41614,-1.004665 -0.99484,-1.826663 -1.28598,-1.826663 -0.73559,0 -0.67014,0.390044 0.41874,2.495697 1.19488,2.310657 1.88193,1.780637 0.86724,-0.669034 z m -8.44227,-6.043802 c 0,-0.331346 -1.08441,-0.602448 -2.4098,-0.602448 -1.32538,0 -2.40979,0.271102 -2.40979,0.602448 0,0.331347 1.08441,0.602449 2.40979,0.602449 1.32539,0 2.4098,-0.271102 2.4098,-0.602449 z m -12.04897,-2.732213 c 0,-0.686394 -1.97447,-3.292271 -2.49455,-3.292271 -0.30175,0 -0.12806,0.813306 0.38598,1.807346 0.80408,1.554916 2.10857,2.473582 2.10857,1.484925 z"
       id="path3612" />
  </g>
</svg>
