<?xml version="1.0" encoding="UTF-8" standalone="no"?>
<!-- Created with Inkscape (http://www.inkscape.org/) -->

<svg
   width="100mm"
   height="100mm"
   viewBox="0 0 100 100"
   version="1.1"
   id="svg5931"
   inkscape:version="1.1.1 (3bf5ae0d25, 2021-09-20)"
   sodipodi:docname="add_list_type_device_6601.svg"
   xmlns:inkscape="http://www.inkscape.org/namespaces/inkscape"
   xmlns:sodipodi="http://sodipodi.sourceforge.net/DTD/sodipodi-0.dtd"
   xmlns="http://www.w3.org/2000/svg"
   xmlns:svg="http://www.w3.org/2000/svg">
  <sodipodi:namedview
     id="namedview5933"
     pagecolor="#505050"
     bordercolor="#ffffff"
     borderopacity="1"
     inkscape:pageshadow="0"
     inkscape:pageopacity="0"
     inkscape:pagecheckerboard="1"
     inkscape:document-units="mm"
     showgrid="false"
     inkscape:zoom="0.58974467"
     inkscape:cx="397.62971"
     inkscape:cy="69.521612"
     inkscape:window-width="1440"
     inkscape:window-height="890"
     inkscape:window-x="-6"
     inkscape:window-y="-6"
     inkscape:window-maximized="1"
     inkscape:current-layer="layer1" />
  <defs
     id="defs5928" />
  <g
     inkscape:label="Laag 1"
     inkscape:groupmode="layer"
     id="layer1">
    <g
       id="g5947"
       transform="translate(0.44863647,-0.44864043)">
      <path
         style="fill:#d0d0d0;fill-opacity:1;stroke-width:0.451517"
         d="m 18.562647,94.185076 c 0.325939,-0.130429 0.715372,-0.114392 0.865408,0.03563 0.150035,0.150034 -0.116642,0.25675 -0.592616,0.237146 -0.525991,-0.02167 -0.632982,-0.128656 -0.272792,-0.272789 z m -6.745686,-2.739303 c -0.561629,-0.716133 -0.545659,-0.732103 0.170472,-0.170475 0.434585,0.340828 0.790155,0.696397 0.790155,0.790155 0,0.371616 -0.37078,0.132434 -0.960627,-0.61968 z M 9.236745,85.011658 c 0,-0.620836 0.1024822,-0.874814 0.2277388,-0.564396 0.1252562,0.310418 0.1252562,0.818374 0,1.128792 -0.1252566,0.310418 -0.2277388,0.05644 -0.2277388,-0.564396 z m 2.709101,0 c 0,-0.620836 0.102482,-0.874814 0.227739,-0.564396 0.125256,0.310418 0.125256,0.818374 0,1.128792 -0.125257,0.310418 -0.227739,0.05644 -0.227739,-0.564396 z m 13.093989,0 c 0,-0.620836 0.102482,-0.874814 0.227739,-0.564396 0.125256,0.310418 0.125256,0.818374 0,1.128792 -0.125257,0.310418 -0.227739,0.05644 -0.227739,-0.564396 z m 2.709101,0 c 0,-0.620836 0.102482,-0.874814 0.227739,-0.564396 0.125256,0.310418 0.125256,0.818374 0,1.128792 -0.125257,0.310418 -0.227739,0.05644 -0.227739,-0.564396 z m -9.666025,-6.620267 c 0.310418,-0.125255 0.818374,-0.125255 1.128792,0 0.310418,0.125256 0.05644,0.227741 -0.564396,0.227741 -0.620836,0 -0.874814,-0.102485 -0.564396,-0.227741 z m 0,-2.709101 c 0.310418,-0.125255 0.818374,-0.125255 1.128792,0 0.310418,0.125255 0.05644,0.227741 -0.564396,0.227741 -0.620836,0 -0.874814,-0.102486 -0.564396,-0.227741 z"
         id="path5959" />
      <path
         style="fill:#8c8c8c;fill-opacity:1;stroke-width:0.451517"
         d="m 72.377813,82.073087 c 0,-1.768014 0.0041,-1.771933 0.732184,-0.732184 0.675239,0.964033 0.675239,1.102288 0,1.777527 -0.675235,0.675234 -0.732184,0.593929 -0.732184,-1.045343 z m 8.127303,-6.284419 c 0,-0.708001 1.137087,-1.088865 2.370464,-0.793975 1.481011,0.354093 0.885406,1.438145 -0.790155,1.438145 -1.067612,0 -1.580309,-0.208989 -1.580309,-0.64417 z m 3.35952,-23.286224 c 0,-7.077526 0.06242,-9.972878 0.138706,-6.434115 0.07629,3.538763 0.07629,9.329467 0,12.86823 -0.07629,3.538764 -0.138706,0.643412 -0.138706,-6.434115 z m -6.032974,1.542684 c 0.02167,-0.525994 0.128655,-0.632981 0.272789,-0.272793 0.130429,0.325937 0.114391,0.71537 -0.03562,0.865409 -0.150039,0.150035 -0.256751,-0.116645 -0.237146,-0.592616 z M 73.76801,53.142095 c 0.02167,-0.525995 0.128656,-0.632982 0.272789,-0.272793 0.13043,0.325936 0.114392,0.715369 -0.03563,0.865408 -0.150039,0.150035 -0.25675,-0.116644 -0.237145,-0.592615 z m 5.306728,-6.050715 c -0.08246,-1.73441 -0.01779,-3.613849 0.1437,-4.176528 0.161498,-0.56268 0.313885,0.856385 0.338637,3.153477 0.02474,2.297092 -0.03991,4.176531 -0.1437,4.176531 -0.10379,0 -0.256177,-1.419063 -0.338637,-3.15348 z M 31.015713,45.467005 c 0.150736,-0.392813 0.274066,-0.811169 0.274066,-0.929681 0,-0.118513 0.194309,-0.09539 0.431797,0.05139 0.524194,0.32397 0.10328,1.592496 -0.528412,1.592496 -0.248334,0 -0.328187,-0.321391 -0.177451,-0.714203 z m -3.007275,-0.829569 c -0.475573,-0.357024 -0.684094,-0.895903 -0.516089,-1.33372 0.336716,-0.877467 0.611538,-0.896583 1.641673,-0.114192 0.633629,0.481244 0.675782,0.727594 0.225758,1.319361 -0.467554,0.614818 -0.677065,0.634748 -1.351342,0.128551 z m -4.394446,-2.323804 c 0,-0.71072 1.003581,-1.993296 1.378426,-1.761629 0.511262,0.315977 -0.283842,2.01707 -0.942795,2.01707 -0.239597,0 -0.435631,-0.114949 -0.435631,-0.255441 z M 20.324336,39.93916 c 0.480261,-1.354187 0.623171,-1.442703 1.538427,-0.952873 1.187077,0.635304 0.881618,1.422714 -0.613761,1.582147 -0.947952,0.101068 -1.13785,-0.02817 -0.924666,-0.629274 z m 58.955368,-3.917081 c 0.0036,-1.241671 0.09108,-1.696039 0.194861,-1.009705 0.103786,0.686334 0.101009,1.702247 -0.0061,2.257585 -0.107194,0.555337 -0.192107,-0.0062 -0.18872,-1.24788 z"
         id="path5957" />
      <path
         style="fill:#767676;fill-opacity:1;stroke-width:0.451517"
         d="m 80.505116,74.130102 c 0,-0.679425 0.328736,-0.857882 1.580309,-0.857882 1.251573,0 1.580309,0.178457 1.580309,0.857882 0,0.679424 -0.328736,0.857882 -1.580309,0.857882 -1.251573,0 -1.580309,-0.178458 -1.580309,-0.857882 z M 30.458037,56.566096 c 0,-0.620836 0.102482,-0.874814 0.227739,-0.564396 0.125256,0.310418 0.125256,0.818374 0,1.128792 -0.125257,0.310418 -0.227739,0.05644 -0.227739,-0.564396 z M 13.407021,55.92696 c -0.134892,-0.351524 -0.172192,-1.21505 -0.08289,-1.918946 0.132507,-1.044418 0.203181,-0.926861 0.384241,0.639135 0.228264,1.974267 0.128202,2.399216 -0.301354,1.279811 z m 71.942496,-0.08517 c -0.181081,-0.181076 -0.329232,-0.640775 -0.329232,-1.021557 0,-0.508223 0.133572,-0.558752 0.502312,-0.190012 0.27627,0.276275 0.424426,0.735973 0.329233,1.021557 -0.0952,0.285585 -0.321236,0.371093 -0.502313,0.190012 z M 76.69607,54.79191 c -0.468101,-0.517249 -0.767357,-1.024181 -0.665016,-1.126521 0.350693,-0.350698 1.859454,1.036922 1.687697,1.552188 -0.104002,0.312007 -0.506832,0.144337 -1.022681,-0.425667 z m -8.12319,-0.26733 c -0.47854,-0.36204 -0.78028,-0.748046 -0.67053,-0.857792 0.109751,-0.10975 0.704466,0.188405 1.32159,0.66257 0.617125,0.47416 0.918864,0.860166 0.67053,0.857791 -0.248334,-0.0023 -0.84305,-0.300534 -1.32159,-0.662569 z m 4.063652,0 c -0.47854,-0.36204 -0.765136,-0.763185 -0.636883,-0.891443 0.128258,-0.128254 0.602075,0.174421 1.052933,0.672611 0.960096,1.060893 0.804888,1.142527 -0.41605,0.218832 z M 31.044996,48.408013 c -0.163942,-0.265267 -0.573498,-0.376611 -0.910125,-0.247436 -0.493201,0.189258 -0.514098,0.01987 -0.107612,-0.872249 0.581404,-1.276045 1.050784,-1.40712 1.436782,-0.401226 0.148982,0.38824 0.495765,0.566905 0.770629,0.397026 0.355676,-0.219817 0.352015,-0.03283 -0.0127,0.648659 -0.581331,1.086227 -0.755815,1.156677 -1.176978,0.475226 z m -4.639747,-2.90408 c 0.554698,-1.217431 1.245089,-1.427008 2.049841,-0.622256 0.814472,0.814472 0.13648,1.751048 -1.26759,1.751048 -1.21914,0 -1.265852,-0.06741 -0.782251,-1.128792 z m -2.791257,-0.225758 c 0,-0.248335 -0.152387,-0.400722 -0.338637,-0.338638 -0.456282,0.152094 -0.608635,-0.616744 -0.30918,-1.560245 0.16469,-0.51889 0.658266,-0.739814 1.513132,-0.677275 l 1.268715,0.09282 -0.699125,1.46743 c -0.673338,1.413306 -1.434905,1.952495 -1.434905,1.015913 z m -3.612135,-1.354551 c 0,-0.248334 0.215174,-0.451517 0.478164,-0.451517 0.26299,0 0.352591,0.203183 0.199112,0.451517 -0.15348,0.248334 -0.368653,0.451517 -0.478164,0.451517 -0.109512,0 -0.199112,-0.203183 -0.199112,-0.451517 z m 0,-2.483343 c 0,-0.372501 0.196806,-0.677275 0.437346,-0.677275 0.240541,0 0.320394,0.304774 0.177451,0.677275 -0.142942,0.372502 -0.339748,0.677276 -0.437346,0.677276 -0.0976,0 -0.177451,-0.304774 -0.177451,-0.677276 z M 45.67546,35.811342 c -1.402696,-1.168563 -0.641064,-1.18214 0.842686,-0.01502 0.631411,0.496668 0.939946,0.903033 0.685633,0.903033 -0.254312,0 -0.942053,-0.399605 -1.528319,-0.888013 z M 44.609526,31.732669 C 44.160047,31.236 43.995474,30.829635 44.243809,30.829635 c 0.248334,0 0.819272,0.406365 1.268751,0.903034 0.44948,0.496668 0.614054,0.903034 0.365719,0.903034 -0.248336,0 -0.819274,-0.406366 -1.268753,-0.903034 z m 28.613725,-1.241672 c -0.561628,-0.716131 -0.545658,-0.732101 0.170475,-0.170472 0.752114,0.589848 0.991296,0.960627 0.619679,0.960627 -0.09376,0 -0.449327,-0.35557 -0.790154,-0.790155 z M 43.259527,27.210135 c 0.155983,-0.252385 0.472748,-0.341985 0.703923,-0.199111 0.626273,0.387058 0.509496,0.657993 -0.283605,0.657993 -0.387157,0 -0.5763,-0.206497 -0.420318,-0.458882 z m -0.456068,-3.153253 c -0.529928,-0.585563 -0.619251,-0.903033 -0.254077,-0.903033 0.309737,0 1.079768,0.406365 1.71118,0.903033 1.035368,0.814421 1.060299,0.903034 0.254076,0.903034 -0.49167,0 -1.261701,-0.406365 -1.711179,-0.903034 z m -0.790155,-3.648301 c -0.434585,-0.253122 -0.790154,-0.653309 -0.790154,-0.889303 0,-0.74226 1.18034,-0.466928 2.031825,0.473953 0.913844,1.009786 0.19294,1.250935 -1.241671,0.41535 z m 3.612135,0.188652 c 0.310418,-0.125256 0.818374,-0.125256 1.128792,0 0.310418,0.125257 0.05644,0.227739 -0.564396,0.227739 -0.620836,0 -0.874814,-0.102482 -0.564396,-0.227739 z"
         id="path5955" />
      <path
         style="fill:#606060;fill-opacity:1;stroke-width:0.451517"
         d="m 39.078445,95.961339 c 5.897938,-0.07129 15.549111,-0.07129 21.44705,0 5.897939,0.0713 1.072353,0.129626 -10.723525,0.129626 -11.795878,0 -16.621464,-0.05833 -10.723525,-0.129626 z m 33.021847,-6.434513 c 0,-3.104178 0.07214,-4.374069 0.160307,-2.82198 0.08817,1.552089 0.08817,4.091872 0,5.643961 -0.08817,1.552089 -0.160307,0.282198 -0.160307,-2.821981 z m 8.404824,-17.330761 c 0,-0.76272 0.300855,-1.133668 1.032953,-1.27362 1.547114,-0.295748 2.127665,0.04767 2.127665,1.258607 0,0.946037 -0.21019,1.091168 -1.580309,1.091168 -1.364041,0 -1.580309,-0.147276 -1.580309,-1.076155 z M 41.561787,64.807308 c 3.538764,-0.07629 9.329467,-0.07629 12.868231,0 3.538763,0.07629 0.643411,0.138706 -6.434116,0.138706 -7.077526,0 -9.972878,-0.06242 -6.434115,-0.138706 z M 12.397363,57.017613 c 0,-0.620836 0.102482,-0.874814 0.227739,-0.564396 0.125256,0.310418 0.125256,0.818374 0,1.128792 -0.125257,0.310418 -0.227739,0.05644 -0.227739,-0.564396 z m 61.423023,-2.031826 c 0.0092,-0.745003 0.110396,-0.995116 0.224874,-0.555804 0.114477,0.439313 0.106951,1.04886 -0.01675,1.354551 -0.123684,0.30569 -0.217347,-0.05374 -0.208145,-0.798747 z M 12.414094,53.17972 c 0.0092,-0.745003 0.110394,-0.995117 0.224874,-0.555804 0.114479,0.439312 0.10695,1.04886 -0.01673,1.35455 -0.123682,0.305691 -0.217347,-0.05374 -0.208145,-0.798746 z m 57.290265,0.413891 c 0.02167,-0.525994 0.128655,-0.632981 0.272788,-0.272792 0.13043,0.325936 0.114392,0.715369 -0.03562,0.865408 -0.15004,0.150035 -0.256751,-0.116645 -0.237146,-0.592616 z M 29.783952,51.681713 c -1.365369,-1.508716 -0.07712,-4.567861 1.330722,-3.160017 0.540045,0.540045 0.548425,0.909454 0.05308,2.340216 -0.575482,1.662241 -0.605377,1.679954 -1.383804,0.819801 z M 25.779961,50.86277 c -0.559401,-0.559403 -0.607802,-1.041808 -0.247102,-2.462853 0.246709,-0.971958 0.649055,-1.767192 0.894104,-1.767192 0.264535,0 0.312316,0.504448 0.117609,1.241671 -0.51938,1.96656 -0.489278,2.60463 0.117159,2.483343 0.310418,-0.06208 0.564396,0.07831 0.564396,0.311989 0,0.792128 -0.747324,0.891886 -1.446166,0.193042 z m -3.028629,-0.505031 c -0.02221,-0.310418 -0.345147,-0.564396 -0.717649,-0.564396 -1.204188,0 -0.265195,-4.602482 0.988398,-4.844634 0.894767,-0.172839 1.054671,1.332445 0.39473,3.715842 -0.343808,1.241671 -0.643274,2.003606 -0.665479,1.693188 z m -9.250615,-2.29627 c -0.12826,-0.207531 -0.05612,-0.969465 0.160302,-1.693189 0.39098,-1.307433 0.39375,-1.305016 0.43231,0.377324 0.03826,1.669335 -0.135584,2.05535 -0.592612,1.315865 z M 49.471925,24.195502 c 0.439312,-0.114479 1.04886,-0.10695 1.35455,0.01673 0.305691,0.123681 -0.05374,0.217345 -0.798747,0.208144 -0.745003,-0.0092 -0.995116,-0.110395 -0.555803,-0.224875 z m -0.451517,-0.903034 c 0.439312,-0.114479 1.04886,-0.10695 1.35455,0.01673 0.305691,0.123681 -0.05374,0.217346 -0.798747,0.208144 -0.745002,-0.0092 -0.995116,-0.110395 -0.555803,-0.224875 z m -2.915232,-0.898574 c 0.325936,-0.13043 0.715369,-0.114389 0.865408,0.03565 0.150035,0.150036 -0.116644,0.256751 -0.592615,0.237146 -0.525995,-0.02166 -0.632982,-0.128656 -0.272793,-0.272791 z"
         id="path5953" />
      <path
         style="fill:#494949;fill-opacity:1;stroke-width:0.451517"
         d="m 13.86348,89.413947 -0.860134,-1.015913 1.015913,0.860135 c 0.954708,0.808315 1.221462,1.171691 0.860134,1.171691 -0.08568,0 -0.542839,-0.457161 -1.015913,-1.015913 z m 1.786979,-19.075309 c -0.333288,-0.868538 0.483235,-1.557499 1.58993,-1.341543 0.401303,0.07831 0.882029,0.157928 1.06828,0.176927 0.630956,0.06437 0.343227,1.389096 -0.301709,1.389096 -0.352191,0 -0.960026,0.122673 -1.350745,0.272604 -0.434902,0.166889 -0.824939,-0.02587 -1.005756,-0.497084 z m 4.580353,0.22965 c -0.158184,-0.255946 0.02305,-0.331639 0.42487,-0.17745 0.782215,0.300164 0.925332,0.623797 0.275856,0.623797 -0.233678,0 -0.549005,-0.200857 -0.700726,-0.446347 z m 60.274304,-0.470435 c 0,-0.870556 0.207535,-1.002164 1.580309,-1.002164 1.363861,0 1.580309,0.129124 1.580309,0.942753 0,0.636102 -0.368998,0.843745 -1.580309,0.889285 -1.291261,0.04854 -1.580309,-0.103243 -1.580309,-0.829874 z M 21.351975,55.750264 c -0.920669,-0.745513 -0.979542,-1.056789 -0.683045,-3.611431 0.374863,-3.229835 1.281128,-3.361656 1.058707,-0.153994 -0.103808,1.497076 0.01617,2.065586 0.418925,1.985035 0.35118,-0.07024 0.564396,0.398838 0.564396,1.241671 0,1.588947 -0.04163,1.60545 -1.358983,0.538719 z m 3.912306,-0.0099 c -0.803431,-0.887781 -0.911865,-1.850501 -0.461856,-4.100545 0.272189,-1.360948 0.324435,-1.391665 1.128792,-0.663734 0.62312,0.563917 0.843393,1.393571 0.843393,3.176624 0,2.573493 -0.316789,2.9065 -1.510329,1.587655 z m 3.655034,-0.33782 c -0.410797,-0.414289 -0.445031,-2.548998 -0.05709,-3.559948 0.513463,-1.338066 1.985206,0.515713 1.923662,2.423006 -0.02881,0.892762 -0.145296,1.267638 -0.258865,0.833053 -0.257767,-0.986375 -0.928396,-1.029594 -1.123081,-0.07237 -0.08029,0.394779 -0.298373,0.564098 -0.484624,0.376262 z M 12.62903,53.06684 c 0.367734,-4.107029 0.635893,-5.224352 1.134242,-4.726004 0.447248,0.44725 0.344212,2.113686 -0.334085,5.40328 -0.459106,2.226565 -1.017818,1.753655 -0.800157,-0.677276 z m 56.480821,1.208603 c -0.431537,-0.251419 -1.016626,-0.905581 -1.300192,-1.4537 -0.424584,-0.820699 -0.266197,-0.762539 0.897498,0.329572 1.781767,1.672161 1.8974,1.994955 0.402694,1.124128 z m 3.634882,-0.302801 c -1.306491,-1.52103 -1.382621,-2.138113 -0.113434,-0.919483 0.703413,0.675393 1.169939,1.336982 1.036728,1.470198 -0.133216,0.133215 -0.548697,-0.114609 -0.923294,-0.550715 z m 12.604784,0.514594 c -0.181081,-0.181077 -0.329232,-0.640775 -0.329232,-1.021557 0,-0.508223 0.133572,-0.558752 0.502312,-0.190012 0.27627,0.276274 0.424426,0.735972 0.329233,1.021557 -0.0952,0.285584 -0.321236,0.371092 -0.502313,0.190012 z m -8.682294,-0.630241 c -0.15348,-0.248334 0.0377,-0.451517 0.424868,-0.451517 0.387158,0 0.703924,0.203183 0.703924,0.451517 0,0.248334 -0.19119,0.451517 -0.424868,0.451517 -0.233678,0 -0.550445,-0.203183 -0.703924,-0.451517 z M 17.092736,39.4501 c -0.154229,-0.249547 -0.578683,-0.339266 -0.943232,-0.199376 -0.548703,0.210557 -0.662815,-0.367528 -0.662815,-3.357789 0,-3.714634 0.52885,-4.750803 1.817287,-3.560586 0.440643,0.407052 0.500006,0.400105 0.257328,-0.03011 -0.211664,-0.375235 -0.08491,-0.470756 0.385277,-0.29033 0.957201,0.367313 1.010879,6.577056 0.06365,7.363188 -0.41422,0.343772 -0.735171,0.37001 -0.917493,0.075 z m 65.018426,0 c -0.15423,-0.249547 -0.578683,-0.339266 -0.943233,-0.199376 -0.548701,0.210557 -0.662813,-0.367528 -0.662813,-3.357789 0,-3.714634 0.528853,-4.750803 1.817288,-3.560586 0.440644,0.407052 0.500005,0.400105 0.257328,-0.03011 -0.211666,-0.375235 -0.08491,-0.470756 0.385275,-0.29033 0.957202,0.367313 1.010879,6.577056 0.06365,7.363188 -0.414221,0.343772 -0.735173,0.37001 -0.917495,0.075 z M 67.805049,36.360717 c -0.561629,-0.716131 -0.545659,-0.732102 0.170474,-0.170473 0.752115,0.589848 0.991297,0.960627 0.61968,0.960627 -0.09376,0 -0.449327,-0.355569 -0.790154,-0.790154 z M 46.578492,35.811342 c -1.402695,-1.168563 -0.641064,-1.18214 0.842688,-0.01502 0.63141,0.496669 0.939945,0.903034 0.685633,0.903034 -0.254312,0 -0.942054,-0.399606 -1.528321,-0.888012 z M 45.51256,31.732669 c -1.042999,-1.1525 -0.344595,-1.1525 1.128792,0 0.821729,0.642764 0.932883,0.885685 0.408618,0.892994 -0.396098,0.0055 -1.08793,-0.396326 -1.53741,-0.892994 z m -0.677276,-4.063652 c -0.821727,-0.642764 -0.932883,-0.885685 -0.408617,-0.892994 0.396096,-0.0055 1.087931,0.396326 1.53741,0.892994 1.042999,1.1525 0.344593,1.1525 -1.128793,0 z m -0.912089,-3.848805 c -0.930435,-1.121105 -0.05267,-1.380282 1.024969,-0.302641 0.796308,0.79631 0.849023,0.990828 0.268502,0.990828 -0.39728,0 -0.979342,-0.309684 -1.293471,-0.688187 z m -0.625842,-3.780155 c -0.574115,-0.634389 -0.62711,-0.905455 -0.204561,-1.046305 0.591885,-0.197294 2.194009,0.935536 2.194009,1.551341 0,0.660328 -1.213622,0.352242 -1.989448,-0.505036 z M 16.051085,19.664353 c -0.420561,-0.14746 -0.564396,-2.086926 -0.564396,-7.610294 V 4.6416574 h 1.580309 1.580309 v 7.4500286 c 0,4.097515 -0.152387,7.465573 -0.338638,7.484574 -0.186251,0.019 -0.643411,0.09112 -1.015913,0.160266 -0.372501,0.06914 -0.931253,0.03667 -1.241671,-0.07217 z m 64.954194,-0.09257 c -0.370767,-0.229146 -0.487435,-2.42544 -0.39915,-7.514074 l 0.124746,-7.1902891 1.467429,-0.1414867 1.46743,-0.1414866 v 7.4786354 c 0,4.11325 -0.152387,7.494181 -0.338638,7.513182 -0.18625,0.019 -0.666976,0.09862 -1.068279,0.176925 -0.401304,0.07831 -0.965393,-0.0033 -1.253538,-0.181406 z"
         id="path5951" />
      <path
         style="fill:#333333;fill-opacity:1;stroke-width:0.451517"
         d="M 15.366796,98.995347 C 11.184406,97.944988 7.2810237,94.65096 5.4843221,90.655619 4.7226055,88.961785 4.4690884,87.552411 4.4690884,85.011658 c 0,-4.202367 1.1506621,-7.006973 4.1115214,-10.021358 2.9228572,-2.975699 5.7862142,-4.142315 10.2313902,-4.168566 1.953088,-0.01151 3.070592,-0.133568 2.483342,-0.271186 -1.166156,-0.273271 -1.563167,-1.560564 -1.07776,-3.494578 0.271843,-1.083107 0.360446,-1.006891 1.374871,1.18264 0.596367,1.287194 1.12983,2.489177 1.185474,2.67107 0.10216,0.333951 3.216502,1.862607 3.440011,1.688506 0.06633,-0.05167 -0.593839,-1.280389 -1.467045,-2.730494 -2.015649,-3.347315 -3.245357,-6.634182 -3.830069,-10.237327 -0.713843,-4.398885 -0.683851,-4.581429 0.613125,-3.731615 1.244832,0.815642 2.107881,4.607205 1.179336,5.181079 -0.392578,0.242622 -0.397517,0.791396 -0.01975,2.194313 0.468282,1.739062 1.364583,2.588912 1.377785,1.306378 0.0032,-0.310418 0.506436,0.451517 1.118313,1.693188 0.611878,1.241672 1.071495,1.851219 1.021373,1.354551 -0.05012,-0.496669 0.06181,-1.146717 0.248742,-1.444547 0.186932,-0.297834 -0.05402,-1.720112 -0.535447,-3.160618 -0.481427,-1.44051 -1.022167,-3.817372 -1.201644,-5.281925 l -0.326322,-2.662821 1.174949,0.856753 c 1.356785,0.989346 1.466145,1.336562 0.533664,1.694389 -0.368315,0.141334 -0.588468,0.518644 -0.489229,0.838463 0.09924,0.319818 0.307504,1.158709 0.462811,1.864209 0.178948,0.812893 0.501438,1.198664 0.880453,1.053222 0.388618,-0.149127 0.778216,0.371743 1.112433,1.48726 0.342652,1.14367 0.846057,1.803507 1.508004,1.97661 0.546507,0.142914 1.050745,0.202749 1.12053,0.132963 0.06978,-0.06978 -0.264589,-1.240687 -0.743054,-2.602002 -1.116846,-3.177626 -1.721522,-7.435372 -0.991916,-6.984451 0.285302,0.176327 0.518731,0.918151 0.518731,1.648497 0,0.821454 0.235231,1.327902 0.616776,1.327902 0.339228,0 1.049526,1.1683 1.578441,2.596222 0.528915,1.427922 1.158832,2.900996 1.399816,3.273497 0.378,0.584295 3.038448,0.677276 19.379098,0.677276 10.417523,0 19.110433,0.171043 19.317579,0.380091 0.391118,0.394712 0.344264,28.942068 -0.04918,29.967377 -0.177731,0.463157 -4.669502,0.581436 -22.08057,0.581436 -18.112271,0 -21.946727,0.10757 -22.378471,0.627789 -1.622776,1.955326 -8.418175,3.394012 -11.900401,2.519496 z m -0.353031,-8.954663 c -2.129867,-1.907636 -2.36624,-2.312132 -2.545573,-4.356122 -0.244884,-2.791123 0.838467,-4.985003 3.046339,-6.169097 4.292979,-2.302352 9.473957,0.708967 9.444096,5.489149 -0.02,3.201259 -2.485366,6.828443 -5.85121,8.608625 -1.472909,0.779016 -1.506498,0.841637 -0.46011,0.857801 4.917214,0.07596 9.476818,-4.475255 9.476818,-9.459382 0,-4.980312 -4.496505,-9.47682 -9.476818,-9.47682 -4.980313,0 -9.476818,4.496508 -9.476818,9.47682 0,3.585486 3.23417,8.100664 6.395616,8.928827 1.377174,0.360762 1.513037,0.302909 1.648218,-0.70186 0.11333,-0.842355 -0.39444,-1.580269 -2.200558,-3.197941 z m 0.472924,-35.759119 c 0,-12.574871 0.09876,-14.814392 0.662815,-15.030841 0.364549,-0.13989 0.789003,-0.05017 0.943232,0.199376 0.182322,0.295004 0.503273,0.268766 0.917493,-0.075 0.546267,-0.453362 0.637078,1.624506 0.637078,14.57712 v 15.105849 h -1.580309 -1.580309 z m 65.018427,0 c 0,-12.574871 0.09876,-14.814392 0.662813,-15.030841 0.36455,-0.13989 0.789003,-0.05017 0.943233,0.199376 0.182322,0.295004 0.503274,0.268766 0.917495,-0.075 0.546268,-0.453362 0.637077,1.624506 0.637077,14.57712 v 15.105849 h -1.580309 -1.580309 z m -67.136468,7.928492 c -1.127123,-6.624868 -1.050756,-8.416004 0.254813,-5.976526 0.345018,0.644671 0.498211,2.520033 0.414935,5.079565 L 13.90638,65.370675 Z M 68.42704,52.854262 c -0.558752,-0.598012 -1.012802,-1.277382 -1.009,-1.50971 0.0036,-0.232328 0.19594,-0.123526 0.426968,0.241783 0.710565,1.123568 0.899151,0.306575 0.391176,-1.694683 -0.449584,-1.77121 -1.266162,-2.622893 -1.284755,-1.33998 -0.0045,0.310418 -0.622818,-0.553108 -1.374047,-1.918947 -0.751225,-1.365838 -2.32221,-3.45731 -3.491074,-4.647715 -2.108236,-2.147089 -6.709907,-4.834139 -8.278634,-4.834139 -0.525105,0 -0.727719,-0.232003 -0.567417,-0.649736 0.177311,-0.462071 -0.209558,-0.735822 -1.339425,-0.947787 -1.804401,-0.338507 -3.033276,0.110961 -2.034187,0.744015 0.450086,0.285188 0.349772,0.389998 -0.378136,0.395077 -0.544904,0.0038 -1.560817,-0.494621 -2.257584,-1.10761 l -1.266848,-1.114523 2.952875,-0.01427 c 3.544312,-0.01713 7.487337,0.945415 10.426928,2.545341 2.340031,1.273604 6.214227,4.952035 7.571102,7.188532 1.410232,2.324443 2.830767,6.722832 2.674872,8.2822 l -0.146901,1.469441 z M 62.062391,40.242025 c -0.830624,-0.742161 -1.643075,-1.216534 -1.805449,-1.054161 -0.16237,0.162372 0.384381,0.902445 1.215,1.644606 0.830624,0.742161 1.643075,1.216534 1.805449,1.054161 0.16237,-0.162372 -0.384381,-0.902445 -1.215,-1.644606 z m 10.491563,12.641337 c -0.523958,-0.582005 -1.160096,-1.870923 -1.413636,-2.86426 -0.253545,-0.993338 -0.609408,-2.16394 -0.790809,-2.601343 -0.253292,-0.610734 -0.160998,-0.730491 0.397723,-0.516089 0.912931,0.350324 0.909152,0.142518 -0.03337,-1.833935 -0.725588,-1.521569 -1.891865,-2.333445 -1.319233,-0.918353 0.84374,2.085063 0.677867,1.994386 -0.825946,-0.451516 -0.916101,-1.490006 -2.414853,-3.482958 -3.330551,-4.428783 -0.915704,-0.945824 -1.309345,-1.58443 -0.87476,-1.419122 1.313002,0.499438 0.882115,-0.406527 -0.708299,-1.489244 -1.893869,-1.289301 -2.501999,-1.301309 -1.393508,-0.02752 0.822913,0.945626 0.793848,0.942314 -0.671617,-0.07655 -0.842463,-0.58572 -2.671106,-1.528014 -4.063652,-2.093987 -1.392546,-0.565973 -2.463751,-1.169153 -2.380456,-1.340402 0.262706,-0.540115 -0.997563,-1.075507 -2.548555,-1.082684 -0.882508,-0.0041 -1.379853,0.177904 -1.215023,0.444603 0.526613,0.852075 -3.550182,0.479034 -4.737978,-0.433543 -1.034294,-0.794638 -1.058475,-0.890832 -0.297351,-1.182903 0.455671,-0.174858 2.491668,-0.200552 4.524438,-0.0571 10.653184,0.751806 19.157124,7.676022 22.174444,18.055238 0.409829,1.409776 0.681163,3.196026 0.60296,3.969447 l -0.142187,1.406222 -0.952651,-1.058188 z m 4.332115,-0.945314 c -0.008,-1.695662 -0.593285,-2.836677 -1.24765,-2.432262 -0.250876,0.155055 -0.576966,-0.372412 -0.731864,-1.183823 -0.153655,-0.804915 -0.770518,-2.51807 -1.370809,-3.807014 -0.781039,-1.677045 -0.908281,-2.273249 -0.447408,-2.096397 0.883997,0.339222 0.808477,-0.154076 -0.297573,-1.943703 -0.51788,-0.837945 -1.137294,-1.402591 -1.376476,-1.254768 -0.239182,0.147823 -0.272626,0.513797 -0.07431,0.813276 0.198311,0.299478 -0.246144,-0.175771 -0.987679,-1.056111 -0.741531,-0.880339 -2.265401,-2.469862 -3.386377,-3.532274 -1.120972,-1.062411 -1.682564,-1.802608 -1.247979,-1.644881 1.347033,0.488888 0.859155,-0.435175 -0.795744,-1.507177 -1.27167,-0.823756 -1.574719,-0.886923 -1.574719,-0.328229 0,0.613246 -0.125138,0.609841 -1.101616,-0.02997 -0.60589,-0.396994 -2.485329,-1.210123 -4.176531,-1.806953 -1.691206,-0.596831 -2.678709,-1.089431 -2.194457,-1.094669 1.384084,-0.01497 0.245015,-0.801411 -1.670613,-1.153431 -1.127478,-0.207188 -1.693188,-0.143499 -1.693188,0.190623 0,0.315291 -1.064699,0.501767 -2.864879,0.501767 -2.268366,0 -3.031024,-0.183587 -3.662818,-0.881711 -0.771145,-0.852105 -0.756494,-0.892113 0.436319,-1.19149 0.678842,-0.170379 2.784274,-0.189677 4.678731,-0.04289 10.919045,0.846057 19.928577,7.1744 24.426448,17.157265 1.861757,4.132109 2.913543,9.792248 1.819626,9.792248 -0.248334,0 -0.454628,-0.660343 -0.458429,-1.46743 z m 8.472853,1.206923 C 85.172672,52.95714 85.044039,51.56743 85.073067,50.056726 L 85.125857,47.31 85.53662,49.789889 c 0.438901,2.649718 0.372172,3.909626 -0.177695,3.355082 z m -6.983846,-7.16656 c -0.612681,-1.987292 -0.58484,-2.164948 0.257663,-1.644251 0.347207,0.214585 0.525344,0.984278 0.438441,1.894397 l -0.146373,1.53296 z m 0.196979,-3.0707 c -0.343586,-1.248416 -1.221534,-1.730072 -1.234519,-0.677275 -0.0036,0.310418 -0.747667,-0.756291 -1.652972,-2.370464 -0.932703,-1.663029 -3.1498,-4.427839 -5.116137,-6.380042 -4.276199,-4.24545 -9.887095,-7.2459 -15.671405,-8.380347 -2.040243,-0.400142 -3.606595,-0.894078 -3.480789,-1.097637 0.316017,-0.511331 -1.888144,-1.012878 -2.842272,-0.646744 -0.666759,0.25586 -0.683108,0.359074 -0.113886,0.719056 0.482514,0.305149 0.219866,0.422208 -0.958588,0.427227 -1.031752,0.0044 -1.907934,-0.307702 -2.404611,-0.856525 -0.75997,-0.839757 -0.701119,-0.872036 2.145783,-1.176914 8.920759,-0.955332 19.19838,3.153501 25.955081,10.376437 3.318879,3.547891 6.077471,8.274162 5.865728,10.049702 l -0.149687,1.255197 z M 72.82933,34.068959 c 0,-0.615495 -2.074522,-2.368847 -2.408089,-2.035279 -0.1701,0.170099 0.134367,0.781505 0.676598,1.35868 1.001916,1.066494 1.731491,1.351583 1.731491,0.676599 z m -9.933371,-7.2305 c 0,-0.328219 -1.928528,-1.427026 -2.504587,-1.427026 -0.603895,0 -0.06611,0.831786 0.811398,1.254993 1.270072,0.612533 1.693189,0.655523 1.693189,0.172033 z m 15.80309,10.358573 c 0,-0.222945 -1.090341,-1.79761 -2.42298,-3.499255 -2.790509,-3.563202 -6.177671,-6.419799 -10.543221,-8.891739 -1.684456,-0.953803 -2.707078,-1.620523 -2.272493,-1.481601 1.500557,0.47968 0.785382,-0.670178 -0.838959,-1.34887 -1.688253,-0.705398 -2.683198,-0.481048 -1.518429,0.342391 0.531986,0.376091 0.49321,0.413704 -0.194802,0.188959 -1.313002,-0.428902 -6.159011,-1.531655 -8.058456,-1.833776 -0.931254,-0.148122 -1.693189,-0.463288 -1.693189,-0.70037 0,-0.237082 -0.914321,-0.431057 -2.031825,-0.431057 -1.117505,0 -2.031826,0.203182 -2.031826,0.451517 0,0.640691 -1.434373,0.533578 -2.370464,-0.177016 -0.434585,-0.329897 -0.790154,-0.701741 -0.790154,-0.826322 0,-0.549755 5.988432,-0.763822 9.48394,-0.339019 7.167279,0.871024 14.023888,3.79586 19.442726,8.293719 4.369306,3.626703 6.291649,6.284911 6.291649,8.700068 0,1.076749 -0.101592,1.957727 -0.225759,1.957727 -0.124167,0 -0.225758,-0.18241 -0.225758,-0.405356 z m -4.28941,-7.270431 c -0.713758,-0.745002 -1.500924,-1.35455 -1.749258,-1.35455 -0.248334,0 0.132466,0.609548 0.846224,1.35455 0.713758,0.745003 1.500923,1.354551 1.749257,1.354551 0.248335,0 -0.132466,-0.609548 -0.846223,-1.354551 z m -21.080194,2.852181 c 0.325937,-0.13043 0.71537,-0.114389 0.865409,0.03565 0.150035,0.150036 -0.116645,0.256751 -0.592616,0.237146 -0.525994,-0.02166 -0.632981,-0.128656 -0.272793,-0.272792 z M 17.066998,32.184186 c -0.140073,-0.226643 -0.552945,-0.297622 -0.917494,-0.157732 -0.563439,0.216212 -0.662815,-0.700642 -0.662815,-6.115197 0,-3.907724 0.17451,-6.391357 0.451517,-6.425983 0.248334,-0.03104 0.75629,-0.05644 1.128792,-0.05644 0.372501,0 0.880458,0.0254 1.128792,0.05644 0.276637,0.03458 0.451517,2.486054 0.451517,6.329368 0,5.098596 -0.124084,6.320545 -0.662816,6.527275 -0.364548,0.139891 -0.77742,0.06891 -0.917493,-0.157731 z m 65.018427,0 c -0.140074,-0.226643 -0.552946,-0.297622 -0.917496,-0.157732 -0.563439,0.216212 -0.662813,-0.700642 -0.662813,-6.115197 0,-3.907724 0.174511,-6.391357 0.451517,-6.425983 0.248334,-0.03104 0.756291,-0.05644 1.128792,-0.05644 0.372501,0 0.880458,0.0254 1.128792,0.05644 0.276636,0.03458 0.451517,2.486054 0.451517,6.329368 0,5.098596 -0.124081,6.320545 -0.662813,6.527275 -0.36455,0.139891 -0.777422,0.06891 -0.917496,-0.157731 z M 53.329445,28.71513 c 0.325937,-0.13043 0.71537,-0.114389 0.865409,0.03565 0.150035,0.150036 -0.116645,0.256751 -0.592616,0.237146 -0.525994,-0.02166 -0.632981,-0.128656 -0.272793,-0.272791 z"
         id="path5949" />
    </g>
  </g>
</svg>
