<?xml version="1.0" encoding="UTF-8" standalone="no"?>
<!-- Created with Inkscape (http://www.inkscape.org/) -->

<svg
   width="100mm"
   height="100mm"
   viewBox="0 0 100 100"
   version="1.1"
   id="svg7798"
   inkscape:version="1.1.1 (3bf5ae0d25, 2021-09-20)"
   sodipodi:docname="add_list_type_device_7060.svg"
   xmlns:inkscape="http://www.inkscape.org/namespaces/inkscape"
   xmlns:sodipodi="http://sodipodi.sourceforge.net/DTD/sodipodi-0.dtd"
   xmlns="http://www.w3.org/2000/svg"
   xmlns:svg="http://www.w3.org/2000/svg">
  <sodipodi:namedview
     id="namedview7800"
     pagecolor="#505050"
     bordercolor="#ffffff"
     borderopacity="1"
     inkscape:pageshadow="0"
     inkscape:pageopacity="0"
     inkscape:pagecheckerboard="1"
     inkscape:document-units="mm"
     showgrid="false"
     inkscape:zoom="0.58974467"
     inkscape:cx="397.62971"
     inkscape:cy="218.73873"
     inkscape:window-width="1440"
     inkscape:window-height="890"
     inkscape:window-x="-6"
     inkscape:window-y="-6"
     inkscape:window-maximized="1"
     inkscape:current-layer="layer1" />
  <defs
     id="defs7795" />
  <g
     inkscape:label="Laag 1"
     inkscape:groupmode="layer"
     id="layer1">
    <g
       id="g7814"
       transform="translate(0.8972806,-1.3459217)">
      <path
         style="fill:#b9b9b9;fill-opacity:1;stroke-width:0.451517"
         d="m 33.580125,82.945077 c 0.02166,-0.525994 0.128656,-0.632981 0.272792,-0.272793 0.13043,0.325937 0.114389,0.71537 -0.03565,0.865409 -0.150035,0.150035 -0.256751,-0.116645 -0.237145,-0.592616 z"
         id="path7820" />
      <path
         style="fill:#a3a3a3;fill-opacity:1;stroke-width:0.451517"
         d="M 16.897838,98.534595 C 10.150667,97.175746 5.401325,91.403921 5.401325,84.563011 c 0,-3.626904 1.229561,-6.821738 3.6700927,-9.536198 8.8337373,-9.825242 24.5057203,-3.947314 24.6086903,9.229731 0.03357,4.296079 -1.180854,7.293655 -4.163159,10.275959 -3.437368,3.437367 -8.092525,4.913732 -12.619111,4.002092 z m 1.295068,-6.025438 c 0,-1.275729 -0.266842,-1.693152 -1.576217,-2.465702 -4.372495,-2.579836 -4.435711,-8.270434 -0.121098,-10.901084 3.918747,-2.389292 9.38568,0.776261 9.361498,5.42064 -0.01677,3.22165 -2.949086,7.300594 -6.246913,8.689672 l -1.191511,0.50188 1.108948,0.188747 c 1.711879,0.291368 4.380344,-0.693268 6.193687,-2.285402 5.314829,-4.666481 3.895502,-13.1371 -2.660085,-15.875522 -4.583842,-1.91478 -9.982331,0.283254 -12.139598,4.942732 -2.1512974,4.646583 1.21e-4,10.247044 4.787946,12.463735 2.408939,1.1153 2.483343,1.094937 2.483343,-0.679696 z m 48.043647,-58.628913 -0.860135,-1.015913 1.015913,0.860134 c 0.954705,0.808314 1.221461,1.171692 0.860135,1.171692 -0.08568,0 -0.542841,-0.457161 -1.015913,-1.015913 z m 14.491438,0.112879 c 0.44948,-0.496668 0.918828,-0.903033 1.042995,-0.903033 0.124167,0 -0.141998,0.406365 -0.591478,0.903033 -0.449481,0.496669 -0.918828,0.903034 -1.042995,0.903034 -0.124167,0 0.141997,-0.406365 0.591478,-0.903034 z m -14.44854,-5.418202 c 0.449481,-0.496668 0.918828,-0.903034 1.042995,-0.903034 0.124167,0 -0.141997,0.406366 -0.591478,0.903034 -0.44948,0.496669 -0.918828,0.903034 -1.042995,0.903034 -0.124167,0 0.141998,-0.406365 0.591478,-0.903034 z m 14.405641,-0.112879 -0.860135,-1.015913 1.015913,0.860134 c 0.954705,0.808314 1.221461,1.171692 0.860135,1.171692 -0.08568,0 -0.542841,-0.457161 -1.015913,-1.015913 z"
         id="path7818" />
      <path
         style="fill:#333333;fill-opacity:1;stroke-width:0.451517"
         d="m 33.86517,81.85391 c -0.22299,-0.852712 -0.01385,-0.903034 3.752981,-0.903034 3.024459,0 4.16071,-0.17158 4.698656,-0.709527 1.061487,-1.061489 1.061487,-20.998333 0,-22.059822 C 41.700575,57.565297 39.656571,57.472 26.771726,57.472 c -12.884844,0 -14.928848,0.0933 -15.54508,0.709527 -0.584215,0.584213 -0.709526,1.950133 -0.709526,7.733942 v 7.024415 l -1.5803094,1.749212 -1.580309,1.749213 V 65.826362 55.214416 H 26.771726 46.186951 V 68.98568 82.756944 h -6.042816 c -5.663089,0 -6.057656,-0.05675 -6.278965,-0.903034 z M 54.314255,68.98568 V 55.214416 H 73.729479 93.144704 V 68.98568 82.756944 H 73.729479 54.314255 Z m 34.960304,11.255669 c 1.061489,-1.061489 1.061489,-20.998333 0,-22.059822 -0.61623,-0.61623 -2.660233,-0.709527 -15.54508,-0.709527 -12.884846,0 -14.928849,0.0933 -15.545079,0.709527 -1.061489,1.061489 -1.061489,20.998333 0,22.059822 0.61623,0.616231 2.660233,0.709527 15.545079,0.709527 12.884847,0 14.92885,-0.0933 15.54508,-0.709527 z M 67.182485,79.744383 c -5.522408,-1.215177 -8.514032,-4.916197 -8.514032,-10.532945 0,-3.415188 1.553259,-7.017719 3.64775,-8.46036 2.725442,-1.877227 4.174793,-2.150286 11.413276,-2.150286 9.21732,0 11.589323,0.914457 13.864223,5.344953 2.309233,4.497351 1.0978,11.281749 -2.450946,13.726053 -2.834,1.951998 -5.543557,2.385509 -5.543557,0.886924 0,-0.429442 -0.679678,-0.629907 -2.257585,-0.665852 -1.241748,-0.02827 -2.257584,0.15222 -2.257584,0.401146 0,0.255865 -0.245314,0.293802 -0.564396,0.08729 -0.310418,-0.200907 -1.173944,-0.39696 -1.918947,-0.435673 -3.211084,-0.166854 -3.261694,-0.179261 -2.287556,-0.560734 0.681759,-0.266978 0.739937,-0.424173 0.265515,-0.717384 -0.953098,-0.589049 -2.382397,1.418698 -1.793412,2.519225 0.485422,0.90702 0.291549,0.974477 -1.602749,0.557646 z m 13.19754,-5.098407 c 4.929494,-2.237731 4.929494,-8.631345 0,-10.869076 -1.494724,-0.678526 -2.939664,-0.866867 -6.650546,-0.866867 -5.575515,0 -8.008653,0.829152 -9.470836,3.227415 -1.897735,3.112649 -0.628047,6.943165 2.820291,8.508528 2.728155,1.238439 10.572936,1.238439 13.301091,0 z m -48.423461,2.364933 c -0.693032,-0.937196 -1.878218,-2.364337 -2.633745,-3.171423 l -1.373687,-1.46743 h 1.607991 c 3.521812,0 5.297842,-3.4188 2.797673,-5.385431 -1.018436,-0.801099 -1.822084,-0.935805 -5.58307,-0.935805 -3.760986,0 -4.564634,0.134706 -5.583069,0.935805 -0.701489,0.55179 -1.189683,1.385565 -1.189683,2.031826 0,0.943806 -0.21159,1.096021 -1.523542,1.096021 -0.837948,0 -2.387362,0.304774 -3.443144,0.677275 -1.055781,0.372502 -1.995648,0.677275 -2.088594,0.677275 -0.539294,0 -0.01878,-5.02796 0.67971,-6.565673 1.835993,-4.041929 5.536864,-5.625282 13.148322,-5.625282 5.494859,0 8.71274,0.765683 10.879244,2.588677 4.717184,3.969249 3.9155,12.966869 -1.39739,15.683456 -2.559836,1.308898 -2.968229,1.257642 -4.297016,-0.539291 z M 7.3565016,31.058264 V 17.287 H 26.771726 46.186951 V 31.058264 44.829528 H 26.771726 7.3565016 Z m 34.9603054,11.25567 c 1.061487,-1.061487 1.061487,-20.998336 0,-22.059823 -0.616232,-0.616232 -2.660236,-0.709527 -15.545081,-0.709527 -12.884844,0 -14.928848,0.0933 -15.54508,0.709527 -1.061487,1.061487 -1.061487,20.998336 0,22.059823 0.616232,0.616232 2.660236,0.709526 15.54508,0.709526 12.884845,0 14.928849,-0.09329 15.545081,-0.709526 z M 19.879081,42.08067 C 17.71736,41.571375 15.028378,40.204261 14.041202,39.112614 11.316576,36.09965 10.602566,30.108606 12.489361,26.091578 c 1.263547,-2.690119 2.075013,-3.468403 5.042766,-4.83656 2.029697,-0.935706 2.901224,-1.033159 9.239599,-1.033159 6.338376,0 7.209903,0.09745 9.239599,1.033159 2.967754,1.368157 3.77922,2.146441 5.042767,4.83656 1.458966,3.106172 1.458966,7.278717 0,10.384888 -1.246955,2.654795 -2.076947,3.467104 -4.808631,4.706184 -2.675407,1.213553 -3.500192,1.195983 -3.43232,-0.07312 0.0488,-0.912524 -0.17661,-1.021545 -2.316401,-1.120341 -1.410655,-0.06513 -2.370463,0.08074 -2.370463,0.360267 0,0.269578 -0.240478,0.314073 -0.564396,0.104429 -0.310418,-0.200907 -1.173944,-0.396959 -1.918947,-0.435671 -3.211085,-0.166856 -3.261693,-0.179261 -2.287554,-0.560737 0.681757,-0.266978 0.739936,-0.42417 0.265513,-0.71738 -0.9531,-0.589049 -2.382397,1.418697 -1.793413,2.519223 0.521049,0.973589 1.786445,1.1292 2.596359,0.319286 0.421415,-0.421416 0.54182,-0.421416 0.54182,0 0,0.298001 0.406365,0.54182 0.903034,0.54182 0.496668,0 0.906145,-0.253978 0.909947,-0.564396 0.0049,-0.402365 0.102148,-0.418017 0.338638,-0.05452 0.182448,0.280432 1.177617,0.460725 2.211486,0.400652 1.033869,-0.06007 2.151373,0.06294 2.483343,0.273364 0.801652,0.508139 -9.728894,0.42443 -11.933026,-0.09486 z m 13.069211,-7.450879 c 1.923116,-1.425036 2.59231,-3.058712 1.862496,-4.546833 -1.134358,-2.313005 -2.775294,-3.073179 -7.016827,-3.250588 -2.133398,-0.08923 -4.619804,0.05974 -5.525348,0.331044 -3.352877,1.004546 -4.83261,4.277059 -2.909288,6.434055 1.575893,1.767357 3.28003,2.216098 7.945006,2.092117 3.609355,-0.09593 4.592278,-0.280493 5.643961,-1.059795 z M 54.314255,31.058264 V 17.287 H 73.729479 93.144704 V 31.058264 44.829528 H 73.729479 54.314255 Z m 11.712094,11.348964 c -4.303493,-1.160495 -6.250605,-2.965494 -7.687508,-7.126422 l -0.834489,-2.416475 -0.01472,4.370038 c -0.01946,5.765139 0.01513,5.798303 6.000108,5.758617 4.475751,-0.02968 4.542007,-0.04498 2.536626,-0.585758 z m 23.24821,-0.09329 c 0.549632,-0.549631 0.706204,-1.694337 0.694785,-5.079565 l -0.01474,-4.370038 -0.834489,2.416475 c -1.436903,4.160928 -3.384015,5.965927 -7.687508,7.126422 -2.005381,0.540779 -1.939125,0.55608 2.536626,0.585758 3.605629,0.02391 4.748666,-0.122394 5.305323,-0.679052 z M 71.381592,41.578607 c 0.421414,-0.421416 0.54182,-0.421416 0.54182,0 0,0.822466 1.248227,0.647328 1.769901,-0.248335 0.43831,-0.752528 0.460877,-0.752528 0.473953,0 0.0158,0.910219 0.731547,1.061157 1.070524,0.225759 0.158468,-0.390553 0.343902,-0.415793 0.602021,-0.08194 0.205155,0.265349 1.134946,0.499216 2.066199,0.519707 1.472546,0.0324 1.693189,-0.09694 1.693189,-0.992555 0,-0.939999 -0.196884,-1.026382 -2.257585,-0.99051 -1.241671,0.02161 -2.257584,0.212357 -2.257584,0.423871 0,0.211514 -0.253978,0.220193 -0.564396,0.01929 -0.310418,-0.200906 -1.173944,-0.396958 -1.918947,-0.43567 -0.745002,-0.03871 -1.760915,-0.113078 -2.257584,-0.165256 -0.780384,-0.08198 -0.794963,-0.12306 -0.107353,-0.302424 0.437629,-0.114155 0.679276,-0.395908 0.536994,-0.62612 -0.455897,-0.737662 -2.00995,0.465663 -2.00995,1.556333 0,0.570709 0.135455,1.173109 0.301013,1.338664 0.479208,0.479209 1.727458,0.34952 2.317785,-0.240808 z m 8.976268,-6.95433 c 2.514908,-1.874888 2.514673,-4.806186 -4.52e-4,-6.68051 -1.040258,-0.775195 -2.069301,-0.978353 -5.614648,-1.108467 -2.420857,-0.08884 -5.09213,0.06575 -6.039228,0.349505 -3.088424,0.925314 -4.450258,3.971524 -2.817587,6.302491 1.293822,1.847185 3.119124,2.326866 8.376519,2.201306 4.083974,-0.09754 5.017246,-0.260494 6.095477,-1.064325 z M 60.064484,23.675104 c 1.124864,-1.509221 3.315949,-2.800781 5.961865,-3.514288 2.005381,-0.540779 1.939125,-0.556079 -2.536626,-0.585757 -5.985001,-0.03969 -6.019555,-0.0065 -6.000108,5.758616 l 0.01472,4.370038 0.834489,-2.416475 c 0.458967,-1.329061 1.235508,-2.954522 1.725643,-3.612134 z m 29.919602,1.545692 c 0,-5.636636 -0.05182,-5.685278 -6.01485,-5.645737 -4.475751,0.02968 -4.542007,0.04498 -2.536626,0.585757 4.297244,1.15881 6.721104,3.465601 7.773653,7.398192 0.282478,1.055421 0.573051,1.918947 0.645709,1.918947 0.07266,0 0.132114,-1.915722 0.132114,-4.257159 z"
         id="path7816" />
    </g>
  </g>
</svg>
