<?xml version="1.0" encoding="UTF-8" standalone="no"?>
<!-- Created with Inkscape (http://www.inkscape.org/) -->

<svg
   width="100mm"
   height="100mm"
   viewBox="0 0 100 100"
   version="1.1"
   id="svg2512"
   inkscape:version="1.1.1 (3bf5ae0d25, 2021-09-20)"
   sodipodi:docname="add_list_type_device_6109.svg"
   xmlns:inkscape="http://www.inkscape.org/namespaces/inkscape"
   xmlns:sodipodi="http://sodipodi.sourceforge.net/DTD/sodipodi-0.dtd"
   xmlns="http://www.w3.org/2000/svg"
   xmlns:svg="http://www.w3.org/2000/svg">
  <sodipodi:namedview
     id="namedview2514"
     pagecolor="#505050"
     bordercolor="#ffffff"
     borderopacity="1"
     inkscape:pageshadow="0"
     inkscape:pageopacity="0"
     inkscape:pagecheckerboard="1"
     inkscape:document-units="mm"
     showgrid="false"
     inkscape:zoom="0.58974467"
     inkscape:cx="397.62971"
     inkscape:cy="188.21705"
     inkscape:window-width="1440"
     inkscape:window-height="890"
     inkscape:window-x="-6"
     inkscape:window-y="-6"
     inkscape:window-maximized="1"
     inkscape:current-layer="layer1" />
  <defs
     id="defs2509" />
  <g
     inkscape:label="Laag 1"
     inkscape:groupmode="layer"
     id="layer1">
    <g
       id="g2528"
       transform="translate(2.6918464,-0.44864043)">
      <path
         style="fill:#d0d0d0;fill-opacity:1;stroke-width:0.599679"
         d="m 17.329191,93.226483 c 0.194939,-0.315419 0.750577,-0.421473 1.234749,-0.23568 1.239604,0.475683 1.093528,0.809171 -0.354435,0.809171 -0.679112,0 -1.075254,-0.258072 -0.880314,-0.573491 z m -6.356935,-2.274984 c -0.745923,-0.951127 -0.724713,-0.972338 0.226412,-0.226415 0.577191,0.452667 1.049438,0.924915 1.049438,1.049438 0,0.49356 -0.492448,0.175892 -1.27585,-0.823023 z m 1.799037,-2.398716 c -0.745923,-0.951127 -0.724713,-0.972338 0.226412,-0.226415 0.577191,0.452668 1.049438,0.924915 1.049438,1.049438 0,0.49356 -0.492448,0.175892 -1.27585,-0.823023 z m 21.826268,0.03418 c 0.583468,-0.152042 1.393035,-0.142046 1.799037,0.02225 0.406002,0.164271 -0.07138,0.288668 -1.060851,0.276446 -0.98947,-0.01223 -1.321654,-0.146621 -0.738186,-0.298664 z M 8.1894805,84.20511 c 0,-1.154382 0.1234109,-1.626629 0.274247,-1.049438 0.1508354,0.577191 0.1508354,1.521685 0,2.098876 -0.1508361,0.577191 -0.274247,0.104944 -0.274247,-1.049438 z m 18.5900485,0 c 0,-1.154382 0.123411,-1.626629 0.274247,-1.049438 0.150835,0.577191 0.150835,1.521685 0,2.098876 -0.150836,0.577191 -0.274247,0.104944 -0.274247,-1.049438 z m 5.419316,-3.413966 c 0.583468,-0.152043 1.393035,-0.142046 1.799037,0.02225 0.406002,0.16427 -0.07138,0.288667 -1.060851,0.276446 -0.98947,-0.01223 -1.321654,-0.146622 -0.738186,-0.298664 z M 16.595779,74.796549 c 0.577191,-0.150832 1.521685,-0.150832 2.098876,0 0.577191,0.150837 0.104944,0.274251 -1.049438,0.274251 -1.154382,0 -1.626629,-0.123414 -1.049438,-0.274251 z m 41.977528,-4.797432 c 0.577191,-0.150831 1.521686,-0.150831 2.098877,0 0.577191,0.150837 0.104944,0.274251 -1.049438,0.274251 -1.154382,0 -1.62663,-0.123414 -1.049439,-0.274251 z M 2.9413958,53.392492 c 0.00643,-2.116922 0.2099455,-3.538589 0.4522625,-3.159258 0.5467126,0.855841 0.5191906,4.521896 -0.044652,5.947827 -0.2306131,0.58321 -0.4140379,-0.671646 -0.4076105,-2.788569 z M 10.5004,56.919716 c 0.06244,-1.135925 1.061887,-3.048677 1.096696,-2.098876 0.01813,0.494735 -0.228625,1.304302 -0.548348,1.799037 -0.319722,0.494735 -0.566479,0.629663 -0.548348,0.299839 z m 13.258514,-3.598074 c 0.01222,-0.98947 0.14662,-1.321654 0.298665,-0.738185 0.152044,0.583468 0.142045,1.393034 -0.02222,1.799037 -0.164269,0.406002 -0.288669,-0.07138 -0.276447,-1.060852 z m 18.612268,-0.299839 c 0,-1.154382 0.123411,-1.626629 0.274247,-1.049438 0.150836,0.577191 0.150836,1.521685 0,2.098876 -0.150836,0.577191 -0.274247,0.104944 -0.274247,-1.049438 z m -28.229353,0 c 0,-0.824559 0.136111,-1.161878 0.30247,-0.749599 0.166358,0.41228 0.166358,1.086918 0,1.499198 -0.166359,0.412279 -0.30247,0.07496 -0.30247,-0.749599 z m -3.254267,-2.350646 c -0.260845,-0.997473 -0.182801,-1.231607 0.262202,-0.786605 0.348475,0.348475 0.5156,0.987563 0.371389,1.420196 -0.149709,0.449127 -0.421539,0.177297 -0.633591,-0.633591 z m 49.191935,-0.472199 c 0.745947,-0.143439 1.825369,-0.137994 2.398716,0.0121 0.573347,0.150095 -0.037,0.267454 -1.35627,0.260799 -1.319294,-0.0067 -1.788394,-0.129462 -1.042446,-0.2729 z M 51.22724,40.801812 c 0,-0.124527 0.472247,-0.596775 1.049438,-1.049439 0.951125,-0.745923 0.972335,-0.724712 0.226412,0.226412 -0.783402,0.998914 -1.27585,1.316583 -1.27585,0.823027 z M 15.246501,33.532236 c 0.774632,-0.824558 1.543351,-1.499197 1.708262,-1.499197 0.164912,0 -0.333951,0.674639 -1.108583,1.499197 -0.774632,0.824559 -1.543351,1.499198 -1.708262,1.499198 -0.164912,0 0.333951,-0.674639 1.108583,-1.499198 z m 16.495417,-4.490724 c -0.210091,-0.339934 0.03062,-0.440468 0.564288,-0.23568 1.038894,0.398661 1.228974,0.828491 0.366377,0.828491 -0.310359,0 -0.729158,-0.266765 -0.930665,-0.592811 z m 0.50542,-7.661958 c -0.37933,-0.242317 1.042336,-0.445835 3.159259,-0.452262 2.116922,-0.0064 3.371779,0.176997 2.788569,0.40761 -1.425932,0.563843 -5.091986,0.591365 -5.947828,0.04465 z"
         id="path2540" />
      <path
         style="fill:#b9b9b9;fill-opacity:1;stroke-width:0.599679"
         d="m 15.73374,93.390327 c 0.432893,-0.173229 0.950117,-0.151929 1.149385,0.04731 0.199268,0.199267 -0.154917,0.341001 -0.787079,0.314963 -0.698591,-0.02878 -0.84069,-0.170872 -0.362306,-0.362302 z m 18.552569,-7.783335 c 0.412279,-0.166357 1.086918,-0.166357 1.499197,0 0.412279,0.166357 0.07496,0.302472 -0.749599,0.302472 -0.824558,0 -1.161878,-0.136115 -0.749598,-0.302472 z m -1.349278,-7.998351 c 0.203842,-0.329823 0.489623,-0.599679 0.63507,-0.599679 0.145447,0 0.264448,0.269856 0.264448,0.599679 0,0.329824 -0.285781,0.599679 -0.63507,0.599679 -0.349288,0 -0.46829,-0.269855 -0.264448,-0.599679 z m 52.005666,-6.93031 c -1.680222,-1.176876 -1.811654,-4.444017 -0.236135,-5.869844 3.813364,-3.451048 9.058061,1.979523 5.311243,5.499476 -1.638533,1.539322 -3.2394,1.656146 -5.075108,0.370368 z m 4.544062,-0.985452 c 1.331875,-1.331875 0.86716,-4.036302 -0.826154,-4.807831 -2.691341,-1.226253 -5.20793,1.290336 -3.981676,3.981677 0.771529,1.693313 3.475955,2.158029 4.80783,0.826154 z m -4.884391,-9.372228 c -3.451051,-3.813363 1.979522,-9.058058 5.499476,-5.311241 1.539322,1.638533 1.656145,3.239398 0.370367,5.075109 -1.176876,1.68022 -4.444017,1.811651 -5.869843,0.236132 z m 4.444071,-0.123799 c 1.386697,-0.742138 1.570883,-3.688741 0.296679,-4.746237 -2.731928,-2.267299 -6.62132,1.529716 -4.250447,4.149497 1.231477,1.360771 2.24136,1.513192 3.953768,0.59674 z m -14.984053,-0.01142 c -0.09597,-1.889362 -3.620694,-6.523226 -5.861173,-7.705531 -1.255008,-0.662273 -1.984427,-1.21606 -1.62092,-1.230637 2.346868,-0.09411 8.613237,7.15942 7.844629,9.080421 -0.227369,0.568266 -0.328384,0.52807 -0.362536,-0.144253 z M 6.3904436,53.021803 c 0,-1.154382 0.1234109,-1.626629 0.2742469,-1.049438 0.1508355,0.577191 0.1508355,1.521685 0,2.098876 -0.150836,0.577191 -0.2742469,0.104944 -0.2742469,-1.049438 z M 57.07411,54.397627 c 0.742103,-0.142936 1.956453,-0.142936 2.698555,0 0.742103,0.142935 0.134928,0.259882 -1.349277,0.259882 -1.484206,0 -2.091381,-0.116947 -1.349278,-0.259882 z M 11.143434,53.021803 c 0,-0.824559 0.136111,-1.161878 0.30247,-0.749599 0.166358,0.41228 0.166358,1.086918 0,1.499198 -0.166359,0.412279 -0.30247,0.07496 -0.30247,-0.749599 z m 73.799263,-2.132881 c -1.680222,-1.176872 -1.811654,-4.444017 -0.236135,-5.869842 3.813364,-3.451047 9.058061,1.979523 5.311243,5.499475 -1.638533,1.539322 -3.2394,1.656149 -5.075108,0.370367 z m 4.544062,-0.98545 c 1.331875,-1.331876 0.86716,-4.036303 -0.826154,-4.807829 -2.691341,-1.226257 -5.20793,1.290335 -3.981676,3.981676 0.771529,1.693314 3.475955,2.15803 4.80783,0.826153 z m -26.715699,0.90592 c 0.577191,-0.150836 1.521686,-0.150836 2.098877,0 0.577191,0.150836 0.104943,0.274247 -1.049439,0.274247 -1.154382,0 -1.626629,-0.123411 -1.049438,-0.274247 z m -6.596469,-0.599679 c 0.577191,-0.150836 1.521686,-0.150836 2.098877,0 0.577191,0.150836 0.104944,0.274247 -1.049438,0.274247 -1.154382,0 -1.62663,-0.123411 -1.049439,-0.274247 z m -2.698568,-0.834025 c -0.577198,-0.336187 -1.454229,-1.394002 -1.948957,-2.3507 -1.339899,-2.59108 -1.082673,-3.006354 0.378002,-0.610259 0.700164,1.14855 1.711114,2.421781 2.246555,2.829404 1.178424,0.897114 0.773994,0.975866 -0.6756,0.131555 z m -31.58571,-5.099203 c 0.02877,-0.698592 0.170873,-0.84069 0.362306,-0.362307 0.17323,0.432894 0.151925,0.950117 -0.04734,1.149385 -0.199268,0.199268 -0.341002,-0.154917 -0.314963,-0.787078 z m 28.191653,-1.038889 c -0.02974,-0.598874 0.20285,-1.568948 0.516881,-2.15572 0.660131,-1.233467 4.829809,-4.549469 4.818722,-3.832165 -0.0041,0.264153 -0.940056,1.084349 -2.079942,1.822658 -1.271201,0.823361 -2.29079,2.098591 -2.637049,3.298234 -0.31049,1.07572 -0.588866,1.465867 -0.618612,0.866993 z M 14.047143,33.605664 c 0,-0.124527 0.472247,-0.596774 1.049438,-1.049438 0.951125,-0.745924 0.972335,-0.724713 0.226412,0.226411 -0.783402,0.998914 -1.27585,1.316583 -1.27585,0.823027 z M 9.8493901,28.135125 c 0.7746319,-0.824558 1.5433509,-1.499197 1.7082619,-1.499197 0.164912,0 -0.333951,0.674639 -1.108583,1.499197 -0.7746322,0.824559 -1.5433505,1.499198 -1.7082622,1.499198 -0.1649118,0 0.333951,-0.674639 1.1085833,-1.499198 z m 74.3148039,-0.149919 -1.453808,-1.649118 1.649118,1.45381 c 0.907014,0.799596 1.649117,1.541699 1.649117,1.649118 0,0.470312 -0.48562,0.08754 -1.844427,-1.45381 z M 33.986469,24.423517 c 0.577191,-0.150836 1.521686,-0.150836 2.098877,0 0.577191,0.150836 0.104943,0.274247 -1.049439,0.274247 -1.154382,0 -1.626629,-0.123411 -1.049438,-0.274247 z"
         id="path2538" />
      <path
         style="fill:#a3a3a3;fill-opacity:1;stroke-width:0.599679"
         d="M 13.249652,97.624007 C 6.664239,95.60075 2.3165862,88.135952 3.8174828,81.429238 c 0.6228283,-2.783092 4.512713,-9.27244 5.4232625,-9.047429 0.1698429,0.04198 1.1183717,-0.347886 2.1078427,-0.866356 0.98947,-0.518464 2.818494,-1.127295 4.064498,-1.352954 1.36005,-0.246312 2.109459,-0.662699 1.875122,-1.041864 -0.214687,-0.34737 0.250061,-0.225299 1.032773,0.271271 1.389042,0.88124 5.17319,1.962449 6.070624,1.734505 0.247368,-0.06283 0.44976,0.171544 0.44976,0.520833 0,0.34929 0.269855,0.46829 0.599679,0.264447 0.329823,-0.203843 0.599679,-0.06892 0.599679,0.299839 0,0.368755 0.337319,0.476343 0.749598,0.239086 0.41228,-0.237257 0.553349,-0.214349 0.313489,0.05091 -0.239861,0.265256 0.360125,1.389145 1.333302,2.497531 0.973177,1.108387 2.21715,3.565721 2.764384,5.460737 0.547233,1.89501 1.296525,3.643739 1.665092,3.886058 0.444833,0.292457 0.367712,0.457831 -0.229397,0.491904 -0.605967,0.0346 -0.508116,0.219525 0.29984,0.566715 1.144401,0.491767 1.137532,0.517313 -0.14992,0.557528 -0.996677,0.03112 -1.349278,0.403248 -1.349278,1.423943 0,1.893385 -3.042906,6.536729 -5.369238,8.193222 -2.067397,1.472122 -6.644959,3.043881 -8.668605,2.976477 -0.689684,-0.02297 -2.557336,-0.442209 -4.150338,-0.931631 z m 9.982844,-5.798602 C 29.074704,87.369334 28.147304,78.683842 21.492085,75.525734 15.095453,72.490333 7.4068964,78.081188 8.2076778,85.185699 9.024281,92.430583 17.517976,96.184081 23.232496,91.825405 Z m -6.786637,0.383255 c 0,-0.545402 -1.079422,-1.988152 -2.398716,-3.206118 -2.071533,-1.91243 -2.398716,-2.560521 -2.398716,-4.751443 0,-3.555088 2.468761,-6.042779 5.99679,-6.042779 7.11904,0 8.204392,9.648577 1.548107,13.762387 -2.40724,1.487756 -2.747465,1.517224 -2.747465,0.237953 z m 49.773355,-4.041477 c 0,-0.129627 0.418798,-0.396388 0.930666,-0.592813 0.533667,-0.204784 0.774378,-0.104254 0.564286,0.23568 -0.352167,0.569821 -1.494952,0.842819 -1.494952,0.357133 z m 3.298235,-0.963678 c 0.203843,-0.329823 0.489626,-0.599679 0.635072,-0.599679 0.145446,0 0.264446,0.269856 0.264446,0.599679 0,0.329823 -0.285783,0.599679 -0.635072,0.599679 -0.349289,0 -0.468289,-0.269856 -0.264446,-0.599679 z M 36.722504,85.5945 c 0.432894,-0.173229 0.950117,-0.151928 1.149385,0.04731 0.199268,0.199267 -0.154917,0.341001 -0.787078,0.314963 -0.698592,-0.02878 -0.84069,-0.170872 -0.362307,-0.362302 z m 38.491895,0.173967 c 0,-0.582282 1.689506,-0.801093 2.453095,-0.317698 0.615073,0.389372 0.396214,0.53751 -0.803978,0.544197 -0.907014,0.0048 -1.649117,-0.09688 -1.649117,-0.226499 z M 37.322183,84.395142 c 0.432894,-0.173229 0.950117,-0.151928 1.149385,0.04731 0.199268,0.199267 -0.154917,0.341001 -0.787078,0.314963 -0.698592,-0.02878 -0.84069,-0.170872 -0.362307,-0.362302 z m 44.488685,-0.416447 c 0,-0.124523 0.472247,-0.59677 1.049438,-1.049438 0.951127,-0.745923 0.972338,-0.724712 0.226415,0.226415 -0.783403,0.998915 -1.275853,1.316583 -1.275853,0.823023 z m 1.799037,-6.669893 c 0,-0.494735 0.261388,-0.899519 0.580861,-0.899519 0.319467,0 0.425526,0.404784 0.23568,0.899519 -0.189853,0.494735 -0.451235,0.899518 -0.580861,0.899518 -0.129621,0 -0.23568,-0.404783 -0.23568,-0.899518 z m 5.397111,0.335232 c 0,-0.310358 0.266767,-0.729161 0.592812,-0.930665 0.339934,-0.210092 0.440465,0.03064 0.23568,0.564285 -0.39866,1.038896 -0.828492,1.228977 -0.828492,0.36638 z M 58.880139,72.986759 c 0.745947,-0.143437 1.825369,-0.137992 2.398716,0.01211 0.573347,0.150094 -0.037,0.267457 -1.35627,0.2608 -1.319294,-0.0067 -1.788394,-0.129464 -1.042446,-0.272902 z m 31.026395,-2.574266 c 0.596975,-0.659646 1.220335,-1.199357 1.385247,-1.199357 0.164911,0 -0.188593,0.539711 -0.785568,1.199357 -0.596974,0.659647 -1.220335,1.199358 -1.385246,1.199358 -0.164912,0 0.188593,-0.539711 0.785567,-1.199358 z M 63.220819,69.510318 c 0,-0.150045 1.069126,-0.818232 2.375833,-1.484865 4.935855,-2.518088 5.848513,-4.915256 3.47749,-9.133921 -1.766084,-3.142319 -3.501777,-3.949639 -9.533458,-4.434273 -2.948291,-0.23689 -5.931344,-0.862453 -7.238135,-1.517878 -2.392521,-1.199976 -4.997247,-4.985054 -5.639152,-8.194578 -0.235005,-1.175026 -0.637353,-1.748296 -1.056201,-1.504889 -0.372122,0.216254 -0.136874,-0.223478 0.522773,-0.97718 l 1.199357,-1.370368 0.356218,2.616564 c 0.513148,3.769287 1.346691,5.442891 3.77098,7.571444 2.256311,1.981068 3.50848,2.318959 10.187266,2.748983 4.543012,0.292509 6.360249,1.258413 8.623258,4.583459 2.407585,3.537475 1.466982,7.379619 -2.281131,9.317841 -2.348547,1.214482 -4.765098,2.117011 -4.765098,1.779661 z m 8.395506,-0.484828 c 0,-0.103205 0.877031,-0.980235 1.948957,-1.948957 l 1.948957,-1.761311 -1.761312,1.948957 c -1.641789,1.816703 -2.136602,2.224599 -2.136602,1.761311 z m 11.510808,-1.311552 c 0.01223,-0.98947 0.146622,-1.321656 0.298664,-0.738187 0.152043,0.58347 0.142046,1.393037 -0.02225,1.799037 -0.16427,0.406001 -0.288667,-0.07138 -0.276446,-1.06085 z M 46.952995,65.165302 c -0.745923,-0.951126 -0.724713,-0.972337 0.226412,-0.226414 0.577191,0.452667 1.049438,0.924914 1.049438,1.049438 0,0.49356 -0.492448,0.175892 -1.27585,-0.823024 z m 36.65691,0.223345 c 0,-0.124524 0.472247,-0.596771 1.049438,-1.049438 0.951127,-0.745923 0.972338,-0.724712 0.226415,0.226414 -0.783403,0.998916 -1.275853,1.316584 -1.275853,0.823024 z m 3.159726,-1.988194 c 0.58347,-0.152042 1.393037,-0.142046 1.799037,0.02219 0.406001,0.16427 -0.07138,0.288668 -1.06085,0.276446 -0.98947,-0.01223 -1.321656,-0.146621 -0.738187,-0.298664 z m 0,-1.799037 c 0.58347,-0.152042 1.393037,-0.142046 1.799037,0.02219 0.406001,0.16427 -0.07138,0.288668 -1.06085,0.276446 -0.98947,-0.01223 -1.321656,-0.146621 -0.738187,-0.298664 z m -2.636542,-1.233545 c -0.745923,-0.951125 -0.724712,-0.972336 0.226415,-0.226412 0.998915,0.783402 1.316583,1.27585 0.823023,1.27585 -0.124523,0 -0.596771,-0.472247 -1.049438,-1.049438 z m -1.005956,-2.848476 c 0.01223,-0.98947 0.146622,-1.321654 0.298664,-0.738185 0.152043,0.583468 0.142046,1.393034 -0.02225,1.799037 -0.16424,0.406002 -0.288637,-0.07138 -0.276416,-1.060852 z M 6.2986591,55.670385 c 0.028773,-0.698591 0.1708731,-0.84069 0.3623062,-0.362306 0.1732299,0.432893 0.1519251,0.950117 -0.047345,1.149385 -0.1992685,0.199268 -0.3410021,-0.154917 -0.3149634,-0.787079 z m -6.59646858,-0.599679 c 0.028775,-0.698591 0.17087271,-0.84069 0.36230605,-0.362306 0.17322963,0.432893 0.15192525,0.950117 -0.04734309,1.149385 -0.19926833,0.199268 -0.34100167,-0.154917 -0.31496296,-0.787079 z M 89.849559,54.67092 l -1.142383,-1.349278 1.349278,1.142382 c 1.267985,1.073556 1.622275,1.556174 1.142382,1.556174 -0.113795,0 -0.72097,-0.607175 -1.349277,-1.349278 z m -19.789407,-0.599679 -1.142382,-1.349277 1.349278,1.142381 c 1.267985,1.073556 1.622275,1.556174 1.142382,1.556174 -0.113795,0 -0.72097,-0.607175 -1.349278,-1.349278 z M -0.2504664,51.222766 c 0,-0.824559 0.13611134,-1.161878 0.30246966,-0.749599 0.16635831,0.41228 0.16635831,1.086918 0,1.499198 -0.16635832,0.412279 -0.30246966,0.07496 -0.30246966,-0.749599 z m 65.1578834,0.19003 c 0.43289,-0.17323 0.950113,-0.151925 1.149386,0.04734 0.199268,0.199268 -0.154921,0.341002 -0.787078,0.314963 -0.698596,-0.02877 -0.84069,-0.170873 -0.362308,-0.362306 z m 24.999117,-0.789709 c 0.596975,-0.659647 1.220335,-1.199358 1.385247,-1.199358 0.164911,0 -0.188593,0.539711 -0.785568,1.199358 -0.596974,0.659647 -1.220335,1.199358 -1.385246,1.199358 -0.164912,0 0.188593,-0.539711 0.785567,-1.199358 z m -32.532585,0.170157 c 0.907015,-0.137402 2.39122,-0.137402 3.298235,0 0.907014,0.1374 0.164912,0.24982 -1.649117,0.24982 -1.814029,0 -2.556132,-0.11242 -1.649118,-0.24982 z m -4.431157,-1.405106 -1.415713,-1.234949 1.799037,1.05345 c 2.367791,1.386492 2.403016,1.416448 1.665579,1.416448 -0.348255,0 -1.270261,-0.555727 -2.048903,-1.234949 z m 30.184341,-1.463606 c 0.01223,-0.989471 0.146622,-1.321654 0.298664,-0.738186 0.152043,0.583468 0.142046,1.393035 -0.02225,1.799037 -0.16424,0.406002 -0.288637,-0.07138 -0.276416,-1.060851 z m -59.955344,-0.73037 c -1.076919,-2.844402 -1.359255,-4.876988 -0.731341,-5.26506 0.33912,-0.209587 0.60188,0.258901 0.60188,1.073121 0,0.794806 0.301056,2.308713 0.669014,3.364237 0.827195,2.372893 0.332688,3.131494 -0.539553,0.827702 z m 27.730953,-0.209046 c -0.217403,-0.351767 -0.266667,-0.768189 -0.109474,-0.925381 0.157192,-0.157194 0.445601,0.130616 0.640907,0.639576 0.405494,1.056698 0.05988,1.242569 -0.531433,0.285805 z m 32.707163,-1.385873 c 0,-0.124527 0.472247,-0.596774 1.049438,-1.049438 0.951127,-0.745923 0.972338,-0.724712 0.226415,0.226412 -0.783403,0.998914 -1.275853,1.316583 -1.275853,0.823026 z m 3.159726,-1.988197 c 0.58347,-0.152044 1.393037,-0.142045 1.799037,0.02222 0.406001,0.164266 -0.07138,0.288667 -1.06085,0.276445 -0.98947,-0.01222 -1.321656,-0.14662 -0.738187,-0.298665 z m -36.14207,-3.408913 c 0,-0.124527 0.472247,-0.596775 1.049438,-1.049439 0.951125,-0.745923 0.972335,-0.724712 0.226412,0.226412 -0.783402,0.998914 -1.27585,1.316583 -1.27585,0.823027 z M 20.043933,38.329668 c 0.774632,-0.824559 1.54335,-1.499197 1.708262,-1.499197 0.164912,0 -0.333951,0.674638 -1.108583,1.499197 -0.774633,0.824559 -1.543351,1.499197 -1.708263,1.499197 -0.164911,0 0.333951,-0.674638 1.108584,-1.499197 z m 65.252569,1.089548 c 0.43289,-0.17323 0.950113,-0.151925 1.149387,0.04734 0.199267,0.199268 -0.154921,0.341002 -0.787079,0.314963 -0.698596,-0.02877 -0.84069,-0.170873 -0.362308,-0.362306 z m 2.398716,0 c 0.43289,-0.17323 0.950113,-0.151925 1.149387,0.04734 0.199267,0.199268 -0.154921,0.341002 -0.787079,0.314963 -0.698596,-0.02877 -0.84069,-0.170873 -0.362308,-0.362306 z M 37.322183,24.427242 c 0.432894,-0.17323 0.950117,-0.151925 1.149385,0.04734 0.199268,0.199269 -0.154917,0.341002 -0.787078,0.314964 -0.698592,-0.02877 -0.84069,-0.170873 -0.362307,-0.362306 z m -4.834911,-6.583976 c 0.412279,-0.166358 1.086918,-0.166358 1.499197,0 0.412279,0.166359 0.07496,0.30247 -0.749599,0.30247 -0.824558,0 -1.161878,-0.136111 -0.749598,-0.30247 z m 4.235232,-0.01249 c 0.432894,-0.17323 0.950117,-0.151925 1.149385,0.04734 0.199268,0.199269 -0.154917,0.341002 -0.787078,0.314964 -0.698592,-0.02877 -0.84069,-0.170873 -0.362307,-0.362306 z m 20.351606,0.01249 c 0.412279,-0.166358 1.086918,-0.166358 1.499197,0 0.41228,0.166359 0.07496,0.30247 -0.749598,0.30247 -0.824559,0 -1.161878,-0.136111 -0.749599,-0.30247 z m 3.598074,0 c 0.412279,-0.166358 1.086918,-0.166358 1.499197,0 0.41228,0.166359 0.07496,0.30247 -0.749598,0.30247 -0.824559,0 -1.161878,-0.136111 -0.749599,-0.30247 z"
         id="path2536" />
      <path
         style="fill:#8c8c8c;fill-opacity:1;stroke-width:0.599679"
         d="m 31.842266,87.285685 c 0.242627,-0.927811 1.112744,-1.185613 5.133164,-1.520906 6.84658,-0.570984 8.319024,-1.735777 1.658551,-1.312014 -5.435008,0.345793 -6.228228,0.139138 -6.705068,-1.746852 -0.281824,-1.114672 -0.04522,-1.186933 3.350836,-1.023383 2.64373,0.127318 3.405357,0.0054 2.754553,-0.440578 -0.494735,-0.3391 -2.181332,-0.620685 -3.747993,-0.625735 -1.566662,-0.0048 -2.848476,-0.256968 -2.848476,-0.559812 0,-0.30285 -0.163395,-0.976433 -0.3631,-1.496859 -0.300287,-0.782539 -0.015,-0.887315 1.649117,-0.6057 1.90533,0.322442 1.950384,0.290461 0.848163,-0.602017 -0.64023,-0.518399 -1.736367,-0.942546 -2.435861,-0.942546 -0.717757,0 -1.851243,-0.783732 -2.601892,-1.799037 -1.470975,-1.989603 -1.434273,-2.050614 0.736954,-1.225114 2.85958,1.087212 1.096329,-0.814154 -1.889423,-2.037421 -1.624742,-0.665656 -4.296376,-2.614517 -6.2427,-4.553818 -2.893711,-2.883269 -3.599934,-4.04038 -4.723338,-7.738945 -3.001894,-9.883081 1.21604,-19.160107 10.956815,-24.098686 2.070984,-1.049991 3.416947,-2.028537 2.991028,-2.174548 -1.312185,-0.449837 -7.421238,2.917806 -10.035605,5.532173 -1.363906,1.363906 -3.266147,4.084263 -4.227201,6.045237 -1.512048,3.085245 -1.747805,4.25187 -1.75059,8.662679 -0.0028,4.33091 0.249298,5.638232 1.676333,8.695345 0.923753,1.978941 2.806948,4.750549 4.184878,6.159129 l 2.505326,2.561049 -2.086001,-0.392778 C 17.798204,69.511206 16.138464,67.85515 13.919897,63.348605 12.452201,60.367287 11.986721,58.529221 11.77553,54.881017 11.068043,42.659613 18.169934,33.05019 30.034919,30.174609 c 4.123546,-0.999377 4.858029,-1.992647 1.116843,-1.51035 -4.413182,0.568926 -10.06077,3.463966 -13.535101,6.938297 -8.1956755,8.195676 -9.6006724,21.804046 -3.228749,31.272683 l 1.90272,2.827432 -1.442676,0.275787 C 13.654551,70.206588 13.13973,69.801115 11.868398,67.631752 6.7057434,58.822347 6.3367135,48.733814 10.86728,40.263241 c 2.145273,-4.010908 7.39789,-9.264122 11.407222,-11.408517 3.291134,-1.760267 9.736368,-3.390151 13.475613,-3.407741 1.217373,-0.0057 2.406939,-0.323557 2.64348,-0.706289 0.685409,-1.109016 -8.426459,-0.160219 -12.818916,1.334803 -13.31393,4.531546 -21.6755034,19.550909 -18.4725976,33.181152 1.0335227,4.398242 4.2688686,11.130472 5.3794946,11.193858 0.366327,0.02093 0.02409,0.294934 -0.760532,0.60895 -1.9049241,0.762378 -2.6907314,0.03202 -4.8143362,-4.474445 -8.5050459,-18.048536 1.5092996,-38.904641 21.0981592,-43.93951 2.716603,-0.69824 5.241414,-0.870231 9.274351,-0.631769 5.574019,0.329584 8.056798,-0.303075 3.891491,-0.991624 -3.850144,-0.636452 -9.878188,-0.401668 -13.874817,0.540405 -5.587774,1.317132 -10.612737,4.204414 -15.063798,8.655476 -6.943843,6.943843 -9.9478012,14.891137 -9.4128436,24.902689 0.3043031,5.69493 2.1773847,11.845435 4.6760903,15.354541 1.0172258,1.428561 1.1229984,1.951445 0.5374707,2.656968 -0.400946,0.483107 -0.9323791,0.878379 -1.1809628,0.878379 -0.798541,0 -4.7329616,-8.089627 -5.7141842,-11.74903 C 0.59059432,60.221276 0.18421059,56.302631 0.17945647,53.021803 0.1567851,37.376274 10.015794,24.120834 25.141204,19.460726 c 5.093573,-1.569319 13.876452,-1.747747 18.950811,-0.384994 2.968326,0.797164 3.735813,0.799527 6.596469,0.02031 1.780521,-0.484997 5.835859,-0.893518 9.01186,-0.907827 9.119804,-0.04108 16.821619,2.947785 23.629841,9.170119 3.158395,2.886596 8.075547,9.636219 8.075547,11.085055 0,1.509941 -3.333334,-0.428415 -4.51725,-2.626808 C 83.680379,29.859486 74.558434,23.400053 66.75706,21.561108 49.993772,17.609657 33.245668,27.612507 28.207024,44.58522 c -1.261801,4.250388 -1.269861,13.178387 -0.01577,17.472846 3.028677,10.371304 12.02393,19.366554 22.395233,22.395233 4.293331,1.253755 13.222063,1.245977 17.472846,-0.01523 4.336914,-1.286761 8.688976,-3.514274 11.802581,-6.040914 2.354778,-1.910859 2.548636,-1.970893 2.548636,-0.789243 0,0.703411 -0.265544,1.775097 -0.59009,2.381529 -0.828229,1.547549 -6.18612,4.748822 -10.803811,6.45513 -3.311115,1.223507 -3.53681,1.390044 -1.499197,1.106234 1.319294,-0.18376 4.854971,-0.337074 7.857066,-0.340702 4.680518,-0.0054 5.748715,-0.201522 7.495987,-1.374446 2.085612,-1.400052 3.766284,-4.130852 4.509706,-7.327501 0.313968,-1.350046 0.483383,-1.520834 0.678819,-0.684324 0.364029,1.55814 -1.416544,5.951298 -3.024241,7.461656 -2.946133,2.767746 -4.907227,3.090781 -18.512756,3.049445 -8.920466,-0.0271 -14.006817,-0.305974 -16.790183,-0.920585 -3.552413,-0.784422 -4.492498,-0.778533 -8.520144,0.05343 -2.489939,0.514285 -6.132406,0.935086 -8.094373,0.935086 -3.184508,0 -3.535871,-0.119858 -3.275065,-1.117178 z M 26.162059,64.265784 C 25.191306,61.387361 24.522016,57.587577 24.181557,53.021803 23.898724,49.228833 23.49626,45.105751 23.287193,43.859398 22.958606,41.900525 22.78135,41.697272 21.979751,42.3602 c -2.055771,1.700135 -3.72339,6.619501 -3.715827,10.961442 0.0081,4.644569 1.084563,7.680471 3.910524,11.028583 1.271876,1.506885 4.724311,4.226231 5.409672,4.260989 0.02431,0.0012 -0.615618,-1.95421 -1.422061,-4.34543 z M 35.035907,19.43978 c 0,-0.329823 -0.944494,-0.599679 -2.098876,-0.599679 -1.154382,0 -2.098877,0.269856 -2.098877,0.599679 0,0.329823 0.944495,0.599679 2.098877,0.599679 1.154382,0 2.098876,-0.269856 2.098876,-0.599679 z m 23.387481,0 c 1.337973,-0.428493 1.257359,-0.486555 -0.749599,-0.539903 -1.236838,-0.03288 -2.248796,0.21008 -2.248796,0.539903 0,0.686495 0.854814,0.686495 2.998395,0 z m 20.274288,65.154618 c 1.091242,-0.395357 1.833345,-0.914541 1.649118,-1.153741 -0.184228,-0.239194 -0.154472,-0.299389 0.06613,-0.133758 0.776303,0.582864 2.610157,-1.718296 3.302762,-4.14437 0.466125,-1.632776 0.783919,-2.086517 0.950096,-1.356533 0.651359,2.86135 -3.363828,7.637805 -6.349084,7.552848 -1.546824,-0.04402 -1.533451,-0.07086 0.380976,-0.764446 z M 52.673023,83.954774 C 31.182093,79.044339 21.120972,53.917452 33.32681,35.639065 40.676055,24.633483 54.708328,19.374514 67.697447,22.757749 c 6.637439,1.728835 13.706167,6.751977 17.72837,12.59805 l 1.748064,2.540729 -1.490892,0.285002 C 84.449497,38.417328 83.826155,37.968023 82.072514,35.579078 76.343121,27.774084 65.198633,23.27971 55.359692,24.806274 40.590325,27.09782 30.102786,40.00282 30.994567,54.787755 c 0.375928,6.232552 1.965752,10.70445 5.523958,15.537929 8.261629,11.222632 23.529243,14.652466 36.335975,8.162806 1.533733,-0.777202 3.655014,-2.142131 4.713963,-3.033176 1.816056,-1.528108 1.982617,-1.56172 2.933959,-0.591991 0.946857,0.965153 0.898469,1.119259 -0.790431,2.517206 -7.250688,6.001594 -18.051662,8.627738 -27.038968,6.574245 z m 6.949723,-60.91692 c 0,-0.329824 -0.674639,-0.599679 -1.499198,-0.599679 -0.824558,0 -1.499197,0.269855 -1.499197,0.599679 0,0.329823 0.674639,0.599679 1.499197,0.599679 0.824559,0 1.499198,-0.269856 1.499198,-0.599679 z m -8.53826,56.442229 C 42.267514,76.565326 35.473609,69.490889 32.908468,60.55355 c -0.765926,-2.668601 -0.948947,-4.967259 -0.729515,-9.162378 0.258151,-4.935357 0.558035,-6.136487 2.526484,-10.119375 4.13764,-8.371944 11.342461,-13.751527 20.526516,-15.326418 9.69018,-1.661682 20.964067,2.99976 26.68444,11.033288 1.1701,1.643253 1.17714,1.757544 0.154334,2.505439 -0.950066,0.694703 -1.436933,0.389143 -4.289732,-2.692216 -3.377716,-3.648336 -6.65285,-5.858831 -10.662262,-7.196299 -1.545853,-0.515668 -2.02559,-0.879884 -1.349278,-1.024368 2.288543,-0.48892 0.571212,-1.935295 -2.297844,-1.935295 -1.830112,0 -1.921755,1.16887 -0.100872,1.286585 0.742103,0.04797 -1.268861,0.286332 -4.468802,0.529682 -7.350701,0.55901 -12.250546,2.680324 -16.870928,7.304018 -9.553118,9.559962 -9.698344,24.467288 -0.33481,34.367847 8.770006,9.272986 22.773368,10.34565 32.998362,2.527683 l 2.778397,-2.124339 0.625171,1.372101 c 0.558895,1.22665 0.345487,1.572958 -2.013104,3.266776 -5.272474,3.786403 -8.955552,5.030431 -15.544561,5.250471 -4.702626,0.15705 -6.765752,-0.04731 -9.455978,-0.936669 z m 1.686081,-51.061896 c 0.891772,-0.339051 1.468348,-0.769515 1.281277,-0.956585 -0.508715,-0.508715 -4.023962,0.383217 -4.023962,1.02101 0,0.71491 0.738505,0.697562 2.742685,-0.06442 z m 0.366286,47.692732 C 42.051849,72.993188 34.864619,62.571031 35.831494,51.016528 36.512357,42.879964 41.755159,35.317271 49.269069,31.63295 c 3.15752,-1.548237 4.030284,-1.695415 10.063308,-1.697025 6.252071,-0.0017 6.819751,0.103413 10.597345,1.961654 2.629251,1.293359 5.027151,3.096687 7.026367,5.284148 2.969088,3.24866 3.013854,3.35294 2.062596,4.804751 l -0.972368,1.48402 -1.044623,-1.670897 C 74.122006,37.193457 67.698245,33.149153 61.943065,32.318912 53.842301,31.150299 45.19419,35.778196 40.990624,43.531276 c -1.932215,3.563784 -2.056776,4.138664 -2.056354,9.490527 3.61e-4,4.586461 0.255104,6.248364 1.306864,8.525774 1.831502,3.965809 6.333717,8.553161 10.311744,10.506736 2.966461,1.456806 4.059433,1.656067 9.069868,1.65353 5.021855,-0.0024 6.0599,-0.194026 8.759774,-1.615895 4.094872,-2.156535 6.718078,-4.437192 7.712987,-6.705784 l 0.820091,-1.869979 0.04893,3.097924 c 0.04594,2.910086 -0.0934,3.210645 -2.298293,4.956946 -5.93455,4.700254 -14.521311,6.510931 -21.529374,4.539864 z M 76.085931,37.400937 c -0.963367,-1.005537 -1.851114,-1.529634 -1.97277,-1.164658 -0.299318,0.897946 1.664517,2.992907 2.805574,2.992907 0.643131,0 0.393281,-0.548492 -0.832804,-1.828249 z m -9.884083,-5.991001 c -0.910463,-0.575792 -3.580708,-0.794711 -3.580708,-0.293562 0,0.390586 3.831302,1.392873 4.180387,1.09361 0.155358,-0.133187 -0.114497,-0.493208 -0.599679,-0.800048 z M 54.605254,72.444878 c -5.585568,-1.424892 -10.23046,-5.177419 -13.113883,-10.594481 -1.137106,-2.136274 -1.348544,-3.469133 -1.35296,-8.528755 -0.0044,-5.062205 0.210892,-6.435565 1.381537,-8.812205 1.876613,-3.809896 5.72109,-7.541163 9.707292,-9.421438 2.788653,-1.315395 4.085769,-1.547319 8.395506,-1.501114 7.145361,0.07661 12.400593,2.753135 16.015536,8.156831 1.638347,2.449031 1.708168,2.815586 1.3486,7.080334 -0.208556,2.473676 -0.422833,3.66083 -0.476163,2.638122 -0.31816,-6.101357 -5.511038,-12.618005 -11.629658,-14.594292 -1.230715,-0.397516 -3.717704,-0.722757 -5.526643,-0.722757 -2.700241,0 -3.774766,0.334232 -6.002847,1.867192 -2.882497,1.98321 -3.693836,3.713811 -3.109902,6.63348 0.898445,4.492223 4.00354,6.574713 9.811574,6.580315 6.897736,0.0067 10.428574,2.000449 12.954565,7.315182 1.412082,2.97106 1.48399,3.026848 2.19326,1.701569 0.40332,-0.753611 0.944357,-2.619181 1.202303,-4.14571 0.446778,-2.644013 0.472337,-2.568118 0.539531,1.601944 0.0442,2.742672 -0.248201,4.993821 -0.782941,6.027895 -1.197487,2.315685 -5.827848,6.447173 -8.550991,7.629716 -3.22403,1.400053 -9.667483,1.939254 -13.003716,1.088172 z m 11.238855,-3.753715 c 2.087974,-0.946731 4.240894,-2.356055 4.784269,-3.13183 1.375832,-1.964272 1.232196,-4.805143 -0.36133,-7.146517 C 68.004039,55.08777 66.186802,54.121866 61.64379,53.829357 54.975394,53.400003 53.712985,53.061574 51.485973,51.10623 49.038617,48.957424 47.639484,46.000567 47.604794,42.903945 l -0.02437,-2.175561 -1.795026,2.098876 c -3.235356,3.783018 -4.440723,10.857386 -2.687444,15.772763 2.480425,6.953955 8.987258,11.720834 16.088201,11.786151 1.914087,0.01763 4.118692,-0.543651 6.657954,-1.695011 z m 6.080517,-10.643335 c -1.391531,-2.123743 -1.728107,-1.454441 -0.50328,1.00079 0.555272,1.113065 1.121525,1.687935 1.258336,1.277488 0.136817,-0.410446 -0.202955,-1.435671 -0.755056,-2.278278 z m -8.104128,-5.625704 c 0,-0.329823 -1.079422,-0.599679 -2.398715,-0.599679 -1.319294,0 -2.398716,0.269856 -2.398716,0.599679 0,0.329823 1.079422,0.599679 2.398716,0.599679 1.319293,0 2.398715,-0.269856 2.398715,-0.599679 z M 51.826919,49.70247 c 0,-0.176516 -0.435819,-0.986083 -0.968488,-1.799037 -1.387034,-2.116881 -2.306611,-1.831733 -1.034997,0.320938 0.940365,1.591911 2.003485,2.376243 2.003485,1.478099 z"
         id="path2534" />
      <path
         style="fill:#767676;fill-opacity:1;stroke-width:0.599679"
         d="m 31.485176,86.853694 c 0.02877,-0.698596 0.170873,-0.84069 0.362307,-0.362308 0.173229,0.43289 0.151925,0.950114 -0.04734,1.149387 -0.199269,0.199267 -0.341002,-0.154921 -0.314963,-0.787079 z M 27.482943,73.860648 26.340562,72.51137 27.68984,73.653752 c 1.267988,1.073558 1.622276,1.556173 1.142381,1.556173 -0.113793,0 -0.720968,-0.607175 -1.349278,-1.349277 z M 6.8509952,74.383832 c 0,-0.124524 0.4722472,-0.596771 1.0494382,-1.049439 0.9511245,-0.745922 0.9723351,-0.724712 0.2264118,0.226415 -0.783402,0.998915 -1.27585,1.316583 -1.27585,0.823024 z m 7.6833868,-4.380985 c 0.432893,-0.17323 0.950117,-0.151929 1.149385,0.04731 0.199268,0.199274 -0.154917,0.341002 -0.787079,0.314964 -0.698591,-0.02878 -0.84069,-0.170873 -0.362306,-0.362302 z m 5.397111,0 c 0.432893,-0.17323 0.950116,-0.151929 1.149385,0.04731 0.199268,0.199274 -0.154918,0.341002 -0.787079,0.314964 -0.698592,-0.02878 -0.84069,-0.170873 -0.362306,-0.362302 z"
         id="path2532" />
      <path
         style="fill:#333333;fill-opacity:1;stroke-width:0.599679"
         d="m 59.023067,89.002542 c -1.804559,-0.379843 -1.552286,-0.460757 1.799037,-0.577023 2.143852,-0.07438 7.746719,-0.08746 12.45081,-0.02908 10.266996,0.127438 12.915533,-0.738882 15.442736,-5.051234 1.470772,-2.509674 2.127439,-7.400236 0.891045,-6.636101 -0.329824,0.203843 -0.599679,1.060058 -0.599679,1.902697 0,2.610211 -2.395586,6.084463 -5.097164,7.392273 -1.90521,0.9223 -3.646222,1.190633 -7.535506,1.161398 -4.006641,-0.0301 -4.746267,-0.163124 -3.558663,-0.639989 0.824559,-0.331089 2.744035,-0.688318 4.265505,-0.793843 3.229163,-0.223968 5.638212,-1.623397 6.859206,-3.984537 0.992601,-1.919453 1.16499,-5.337815 0.26919,-5.337815 -0.329824,0 -0.599679,0.688042 -0.599679,1.528978 0,2.082703 -1.622588,5.067491 -2.754787,5.067491 -0.761131,0 -0.705295,-0.308487 0.315239,-1.74169 1.869787,-2.625874 1.58735,-4.507619 -1.076376,-7.171345 -2.942823,-2.942822 -3.175888,-4.239058 -3.109731,-17.295128 0.05985,-11.81069 0.425232,-13.326228 3.904204,-16.193887 5.005028,-4.125567 12.027395,-2.378851 14.777199,3.675622 0.950851,2.093572 1.112747,4.038057 1.12402,13.500498 0.01181,9.933432 -0.111462,11.3121 -1.215639,13.593021 -0.675844,1.396107 -1.890194,2.971734 -2.698555,3.501394 -1.097689,0.719237 -1.469747,1.495707 -1.469747,3.067328 0,4.423946 -2.742266,8.610023 -6.896309,10.527239 -2.063537,0.95238 -3.865135,1.097886 -12.893098,1.041306 -5.77191,-0.03616 -11.438876,-0.264584 -12.593258,-0.507568 z m 27.609508,-6.775503 c 1.367436,-2.242662 1.568268,-5.218077 0.352209,-5.218077 -0.495407,0 -0.974526,0.948363 -1.203945,2.383071 -0.229132,1.432915 -1.15178,3.260862 -2.314072,4.584641 l -1.932999,2.201566 1.964105,-1.015676 c 1.080262,-0.558625 2.490874,-1.87961 3.134702,-2.935525 z m 4.988261,-7.555559 c 3.779279,-2.491631 3.974349,-3.320867 3.978697,-16.913483 0.0036,-11.849526 -0.05169,-12.437967 -1.357278,-14.392295 -3.577499,-5.355188 -11.090733,-5.355188 -14.668232,0 -1.305573,1.954328 -1.361067,2.542769 -1.357277,14.392295 0.0036,11.092549 0.119408,12.529781 1.134173,14.068959 1.78934,2.714057 4.186305,3.974745 7.55722,3.974745 1.931081,0 3.608622,-0.402313 4.712697,-1.130221 z m -6.941907,-5.804755 c -1.226254,-2.691341 1.290335,-5.20793 3.981676,-3.981677 1.693314,0.771529 2.158029,3.475956 0.826154,4.807831 -1.331875,1.331875 -4.036301,0.867159 -4.80783,-0.826154 z m 0.413742,-9.266613 c -1.579189,-1.744982 -0.604015,-4.405273 1.712851,-4.672684 2.17166,-0.250651 3.400852,0.813469 3.400852,2.944135 0,2.825661 -3.155535,3.892306 -5.113703,1.728549 z M 84.678929,49.077319 c -1.226254,-2.691341 1.290335,-5.207933 3.981676,-3.981676 1.693314,0.771526 2.158029,3.475953 0.826154,4.807829 -1.331875,1.331877 -4.036301,0.867161 -4.80783,-0.826153 z"
         id="path2530" />
    </g>
  </g>
</svg>
