<?xml version="1.0" encoding="UTF-8" standalone="no"?>
<!-- Created with Inkscape (http://www.inkscape.org/) -->

<svg
   width="100mm"
   height="100mm"
   viewBox="0 0 100 100"
   version="1.1"
   id="svg1914"
   inkscape:version="1.1.1 (3bf5ae0d25, 2021-09-20)"
   sodipodi:docname="add_list_type_device_6086.svg"
   xmlns:inkscape="http://www.inkscape.org/namespaces/inkscape"
   xmlns:sodipodi="http://sodipodi.sourceforge.net/DTD/sodipodi-0.dtd"
   xmlns="http://www.w3.org/2000/svg"
   xmlns:svg="http://www.w3.org/2000/svg">
  <sodipodi:namedview
     id="namedview1916"
     pagecolor="#505050"
     bordercolor="#ffffff"
     borderopacity="1"
     inkscape:pageshadow="0"
     inkscape:pageopacity="0"
     inkscape:pagecheckerboard="1"
     inkscape:document-units="mm"
     showgrid="false"
     inkscape:zoom="0.58974467"
     inkscape:cx="397.62971"
     inkscape:cy="308.60813"
     inkscape:window-width="1440"
     inkscape:window-height="890"
     inkscape:window-x="-6"
     inkscape:window-y="-6"
     inkscape:window-maximized="1"
     inkscape:current-layer="layer1" />
  <defs
     id="defs1911" />
  <g
     inkscape:label="Laag 1"
     inkscape:groupmode="layer"
     id="layer1">
    <g
       id="g1930"
       transform="translate(0.89727982)">
      <path
         style="fill:#d0d0d0;fill-opacity:1;stroke-width:0.605218"
         d="m 44.367648,93.859321 c -1.241841,-1.372217 -1.268578,-1.919303 -0.0938,-1.919303 1.421321,0 1.062913,-1.096376 -0.453913,-1.388533 -0.748957,-0.144254 0.817044,-0.280228 3.480002,-0.302161 2.662958,-0.02191 5.386438,0.194178 6.052178,0.480258 0.665739,0.286081 0.938087,0.558429 0.605218,0.605218 -0.33287,0.04678 -0.06052,0.319137 0.605217,0.605218 1.010043,0.434032 0.859748,0.542021 -0.907826,0.652292 -1.165044,0.07268 -3.888524,0.06067 -6.052178,-0.02669 l -3.933916,-0.158833 1.152933,1.27966 c 0.634113,0.703808 1.016758,1.279655 0.850323,1.279655 -0.166435,0 -0.753341,-0.498052 -1.304236,-1.106786 z M 18.838364,93.176883 c 0.196739,-0.318332 0.757509,-0.425365 1.246153,-0.237856 1.251054,0.480077 1.103629,0.816644 -0.357709,0.816644 -0.685384,0 -1.085184,-0.260455 -0.888444,-0.578788 z m -6.41565,-2.295996 c -0.752813,-0.959912 -0.731406,-0.981318 0.228503,-0.228506 0.582522,0.456848 1.059131,0.933457 1.059131,1.059131 0,0.498118 -0.496996,0.177516 -1.287634,-0.830625 z m 42.934183,-0.564735 c 0.436891,-0.174829 0.958892,-0.153332 1.160001,0.04775 0.201108,0.201108 -0.156349,0.344151 -0.794349,0.317872 -0.705044,-0.02905 -0.848454,-0.172451 -0.365652,-0.365648 z M 40.339931,88.913929 c 0,-0.66574 0.340435,-1.218715 0.756522,-1.22884 0.418081,-0.01017 0.280915,-0.295377 -0.30661,-0.637531 -0.839907,-0.489124 -0.929338,-0.869123 -0.425925,-1.809758 0.350463,-0.654846 0.470858,-1.459785 0.267544,-1.788758 -0.203314,-0.328966 -0.21351,-1.090112 -0.02266,-1.691438 0.3083,-0.971362 0.768313,-1.039728 4.124285,-0.612922 4.053735,0.515542 11.670721,0.07457 13.158157,-0.76177 0.649885,-0.365412 0.682727,-0.515669 0.115586,-0.528845 -0.435732,-0.01011 -0.605526,-0.320517 -0.37732,-0.689761 0.293425,-0.474769 -0.360685,-0.551668 -2.233848,-0.262622 -5.167904,0.797459 -7.024387,0.950586 -5.372249,0.443104 1.210169,-0.371724 1.551093,-0.921795 1.703119,-2.74793 0.11917,-1.431462 0.457825,-2.193043 0.907827,-2.041557 0.394763,0.132893 0.630174,0.966817 0.523134,1.853164 -0.178822,1.480762 -0.0192,1.611544 1.966959,1.611544 2.055055,0 2.161575,-0.101471 2.161575,-2.059054 0,-1.748873 0.276639,-2.155495 1.836379,-2.699223 1.088333,-0.379399 1.69012,-0.403516 1.477327,-0.05919 -0.197479,0.319513 -0.751502,0.580943 -1.231161,0.580943 -0.56573,0 -0.897301,0.691007 -0.943817,1.966957 -0.103572,2.840983 0.07639,3.66552 1.034158,4.738093 0.469262,0.525517 0.844922,1.206387 0.834799,1.513044 -0.01012,0.306658 -0.299209,0.07523 -0.642414,-0.514296 -0.845486,-1.452286 -1.950011,-0.716547 -1.154835,0.76925 0.407843,0.76206 0.407843,1.260984 0,1.513045 -0.407843,0.252061 -0.407843,0.750984 0,1.513044 0.407843,0.76206 0.407843,1.260984 0,1.513045 -0.397562,0.245706 -0.40551,0.755342 -0.02293,1.470201 0.579184,1.082208 0.293832,1.858497 -0.683156,1.858497 -0.277391,0 -0.504348,-0.537888 -0.504348,-1.195306 0,-1.231709 -0.444462,-1.252244 -5.368765,-0.247988 -1.245384,0.25398 -1.320368,0.178134 -0.567861,-0.574369 0.476845,-0.476845 1.595055,-0.787068 2.484913,-0.689392 2.550772,0.280004 3.982233,-0.312008 3.884713,-1.606617 -0.07811,-1.036889 -0.397012,-1.121553 -2.832683,-0.752062 -3.264941,0.495298 -2.733871,0.494397 -8.893706,0.01513 -4.280223,-0.333009 -4.920012,-0.257563 -4.799151,0.565921 0.0767,0.522581 0.528808,1.196545 1.004688,1.497702 0.603409,0.381856 0.636306,0.550355 0.108712,0.556818 -0.416087,0.0051 -0.756522,0.553986 -0.756522,1.219726 0,0.66574 -0.272348,1.210436 -0.605218,1.210436 -0.332869,0 -0.605217,-0.544696 -0.605217,-1.210436 z m 15.786828,-4.841742 c 1.338019,0 1.669536,-0.261842 1.5944,-1.259289 -0.08663,-1.150047 -0.332746,-1.219732 -2.83717,-0.803318 -2.953245,0.491044 -6.518524,0.456885 -11.017908,-0.105562 -2.503259,-0.312922 -2.810279,-0.225958 -2.669047,0.755984 0.192635,1.339335 4.203075,2.025307 9.671683,1.654302 1.962831,-0.133166 4.328949,-0.242117 5.258042,-0.242117 z m -6.545739,-0.41941 c 0.588857,-0.153447 1.405901,-0.143358 1.815654,0.02245 0.409751,0.165788 -0.07204,0.291334 -1.07065,0.279 -0.998609,-0.01235 -1.333861,-0.147976 -0.745004,-0.301423 z m -35.342652,4.807239 c -0.752813,-0.959912 -0.731407,-0.981319 0.228503,-0.228506 0.582522,0.456848 1.059131,0.933457 1.059131,1.059131 0,0.498118 -0.496997,0.177516 -1.287634,-0.830625 z m 29.619391,-0.564735 c 0.436892,-0.174829 0.958892,-0.153332 1.160001,0.04775 0.201108,0.201107 -0.156348,0.344151 -0.794348,0.317872 -0.705045,-0.02905 -0.848455,-0.172451 -0.365653,-0.365648 z M 46.0895,87.703493 c -0.47623,-0.770557 0.925913,-0.770557 2.118262,0 0.738048,0.476967 0.659839,0.588417 -0.418195,0.595952 -0.729313,0.0051 -1.494342,-0.263082 -1.700067,-0.595952 z M 9.6142363,84.072187 c 0,-1.165044 0.1245508,-1.641653 0.27678,-1.059131 0.1522287,0.582522 0.1522287,1.53574 0,2.118262 -0.1522292,0.582522 -0.27678,0.105913 -0.27678,-1.059131 z m 18.7617507,0 c 0,-1.165044 0.124551,-1.641653 0.27678,-1.059131 0.152229,0.582522 0.152229,1.53574 0,2.118262 -0.152229,0.582522 -0.27678,0.105913 -0.27678,-1.059131 z m 10.166826,0.907826 c 0,-0.332869 0.264007,-1.013739 0.586682,-1.513044 0.322676,-0.499305 0.586682,-0.635479 0.586682,-0.302609 0,0.33287 -0.264006,1.01374 -0.586682,1.513045 -0.322675,0.499304 -0.586682,0.635478 -0.586682,0.302608 z m 0.60593,-4.382702 c 0.01058,-0.252473 0.400403,-0.962121 0.866258,-1.576998 0.465856,-0.614877 0.737416,-1.431921 0.603467,-1.815653 -0.611234,-1.751041 -0.758862,-4.020644 -0.240695,-3.700399 0.312056,0.192865 0.567375,1.160409 0.567375,2.150097 0,1.300425 0.377632,1.951228 1.36174,2.346792 l 1.36174,0.547353 -1.397458,0.03837 c -0.768601,0.02112 -1.262827,0.256201 -1.098278,0.522448 0.164548,0.266248 -0.2279,0.81325 -0.872109,1.215562 -0.644209,0.402319 -1.162626,0.524911 -1.15204,0.272439 z m -0.615198,-1.78506 c 0.0051,-0.269298 0.273275,-0.898155 0.59595,-1.39746 0.505598,-0.782359 0.587964,-0.766381 0.59595,0.115585 0.0051,0.562876 -0.26308,1.191734 -0.59595,1.39746 -0.33287,0.205725 -0.601047,0.153713 -0.59595,-0.115585 z m 5.915252,-0.338329 c 0.344174,-0.416087 0.717956,-1.573566 0.830628,-2.572175 0.187868,-1.665081 0.405621,-1.822045 2.625728,-1.892728 1.955599,-0.06226 2.042837,-0.02578 0.453913,0.189651 -1.776378,0.240883 -1.966958,0.463948 -1.966958,2.302261 0,1.429693 0.315235,2.117923 1.059132,2.312319 0.582522,0.15223 0.0045,0.308376 -1.284542,0.346989 C 44.35663,79.214467 43.9655,79.0582 44.448797,78.473922 Z m 14.652885,-0.187024 c 0,-0.51895 0.272348,-0.775224 0.605218,-0.569498 0.332869,0.205726 0.605217,0.630322 0.605217,0.943547 0,0.313224 -0.272348,0.569498 -0.605217,0.569498 -0.33287,0 -0.605218,-0.424597 -0.605218,-0.943547 z M 38.642264,74.691311 c 0.01233,-0.998609 0.147974,-1.333863 0.301424,-0.745005 0.153449,0.588859 0.143357,1.405903 -0.02242,1.815654 -0.165785,0.40975 -0.291334,-0.07204 -0.279,-1.070649 z M 18.098177,74.576725 c 0.582522,-0.152224 1.53574,-0.152224 2.118263,0 0.582522,0.152231 0.105913,0.276785 -1.059132,0.276785 -1.165044,0 -1.641653,-0.124554 -1.059131,-0.276785 z m 44.125151,-5.634983 c 0,-0.832174 0.137373,-1.172609 0.305266,-0.756522 0.167894,0.416087 0.167894,1.096957 0,1.513045 -0.167893,0.416087 -0.305266,0.07565 -0.305266,-0.756523 z M 31.564273,11.446053 c 0.602486,-0.665739 1.231603,-1.210435 1.398038,-1.210435 0.166435,0 -0.190335,0.544696 -0.79282,1.210435 -0.602486,0.66574 -1.231603,1.210436 -1.398038,1.210436 -0.166435,0 0.190334,-0.544696 0.79282,-1.210436 z"
         id="path1942" />
      <path
         style="fill:#b9b9b9;fill-opacity:1;stroke-width:0.605218"
         d="m 47.440978,95.133728 c -0.966259,-0.144254 -1.509469,-0.517201 -1.284202,-0.881693 0.214724,-0.347432 0.01508,-0.86614 -0.443652,-1.15268 -0.496514,-0.310144 1.309101,-0.471671 4.461596,-0.399129 2.91261,0.06702 5.295655,0.162392 5.295655,0.211935 0,0.04957 -0.460801,0.463863 -1.024003,0.920712 -0.695795,0.564396 -0.878328,0.58815 -0.5695,0.0741 0.284419,-0.473414 0.108517,-0.756523 -0.470046,-0.756523 -0.573174,0 -0.792153,0.345023 -0.576184,0.907827 0.238987,0.622793 -0.03647,0.907827 -0.877323,0.907827 -0.674128,0 -1.588397,0.09397 -2.031709,0.208812 -0.443312,0.11484 -1.559596,0.09631 -2.480632,-0.04122 z M 17.228177,93.342241 c 0.436891,-0.174829 0.958892,-0.153332 1.160001,0.04775 0.201108,0.201107 -0.156349,0.344151 -0.794349,0.317872 -0.705044,-0.02905 -0.848454,-0.172451 -0.365652,-0.365648 z m 32.19002,-3.217876 c -1.830783,-0.224355 -2.920175,-0.463216 -2.420871,-0.530801 0.560564,-0.07588 0.242335,-0.483381 -0.831929,-1.065316 -1.297021,-0.702597 -2.067103,-0.783866 -3.026088,-0.319337 -0.707484,0.342704 -0.945899,0.641531 -0.529812,0.664057 1.083065,0.05864 0.938851,1.251397 -0.151304,1.251397 -0.501438,0 -0.907827,-0.536689 -0.907827,-1.198907 0,-1.522201 2.724503,-2.30669 4.392767,-1.264844 0.651192,0.406676 2.993132,0.766811 5.20431,0.800297 2.86228,0.04333 3.497329,0.177136 2.20467,0.464481 -1.766831,0.39275 -1.667208,0.547026 0.907827,1.405848 1.179725,0.393464 -0.543807,0.319821 -4.841743,-0.206875 z m 6.657396,-0.605218 c 0,-0.33287 0.272348,-0.605218 0.605218,-0.605218 0.332869,0 0.605217,0.272348 0.605217,0.605218 0,0.33287 -0.272348,0.605218 -0.605217,0.605218 -0.33287,0 -0.605218,-0.272348 -0.605218,-0.605218 z m -0.605218,-1.815654 c -0.499305,-0.322677 -0.635479,-0.58668 -0.302609,-0.58668 0.33287,0 1.01374,0.264003 1.513045,0.58668 0.499304,0.322678 0.635478,0.58668 0.302609,0.58668 -0.33287,0 -1.01374,-0.264002 -1.513045,-0.58668 z M 52.85248,87.304728 c -0.219321,-0.219319 -1.830713,-0.383975 -3.580872,-0.365909 -2.630997,0.02717 -2.867654,-0.0486 -1.366455,-0.437451 l 1.815653,-0.470315 -1.628631,-0.07161 c -0.895747,-0.0394 -1.822957,-0.386032 -2.060469,-0.770333 -0.247519,-0.400497 -0.167913,-0.535612 0.186508,-0.316571 0.34009,0.210186 2.083767,0.434026 3.874837,0.497422 1.791071,0.06339 2.875405,0.242287 2.409632,0.397544 -0.599189,0.199728 -0.421812,0.517836 0.606503,1.087691 0.799349,0.442971 1.158319,0.815059 0.79771,0.826849 -0.360609,0.0118 -0.835096,-0.157993 -1.054416,-0.377317 z M 41.50406,86.927979 c -0.595696,-1.702084 -0.307485,-2.244286 1.158989,-2.180369 1.176009,0.05126 1.301204,0.149483 0.463821,0.363905 -0.811559,0.207808 -0.92946,0.428131 -0.403169,0.753393 0.553798,0.342269 0.498936,0.553666 -0.214763,0.827539 -0.527214,0.202312 -0.979409,0.308298 -1.004878,0.235532 z m 14.571533,-0.434921 c -0.806957,-0.521498 -0.806957,-0.588744 0,-0.605218 0.806957,-0.01646 0.806957,-0.08372 0,-0.605218 -0.749387,-0.484289 -0.692645,-0.588302 0.32512,-0.595952 0.802641,-0.0061 1.264769,0.413183 1.324127,1.20117 0.100898,1.339456 -0.290717,1.483165 -1.649247,0.605218 z M 41.50406,83.901891 c -0.02547,-0.07277 -0.139775,-0.624119 -0.254014,-1.225221 -0.177079,-0.931745 -0.05869,-0.979309 0.802828,-0.322563 0.555795,0.423694 1.09037,0.813769 1.187943,0.866835 0.09757,0.05308 -0.242861,0.257762 -0.756522,0.454876 -0.513661,0.197107 -0.954766,0.298838 -0.980235,0.226073 z m 5.345733,-0.267374 c 0.418161,-0.14901 0.605889,-0.520759 0.417175,-0.82611 -0.194942,-0.315421 1.002136,-0.496641 2.771957,-0.419633 1.713292,0.07454 2.788399,0.244429 2.389127,0.377516 -0.459823,0.153278 -0.501513,0.38153 -0.113721,0.622636 0.336724,0.209357 -0.926112,0.411221 -2.806302,0.448588 -1.880191,0.0374 -3.076397,-0.05399 -2.658236,-0.202997 z m 9.401246,-0.0463 c -0.536736,-0.341106 -0.448437,-0.642765 0.330538,-1.129245 0.867759,-0.541924 1.078665,-0.454767 1.14868,0.474708 0.09188,1.219665 -0.310103,1.397539 -1.479218,0.654537 z m -15.350344,-3.18762 c -0.655912,-0.415101 -0.673004,-0.548624 -0.07113,-0.555669 0.443806,-0.0054 0.602314,-0.316571 0.360402,-0.707996 -0.273188,-0.442027 -0.165396,-0.534056 0.293402,-0.250505 1.185989,0.732979 2.487871,-0.867659 2.487871,-3.058783 0,-1.676024 -0.229915,-2.044159 -1.27665,-2.044159 -1.09768,0 -1.242677,0.291 -1.034311,2.075806 0.133287,1.141695 0.02691,1.94267 -0.236394,1.779939 -0.263303,-0.162731 -0.478734,-1.103584 -0.478734,-2.090791 0,-1.357691 -0.368559,-1.935039 -1.513044,-2.370172 -0.832174,-0.31639 -1.513044,-0.654319 -1.513044,-0.750948 0,-0.09662 4.996391,-0.171453 11.103091,-0.166284 8.901024,0.0076 11.331679,-0.168577 12.25566,-0.887994 1.1233,-0.874606 1.124541,-0.864456 0.0489,0.399486 -0.60702,0.71328 -1.748123,1.458624 -2.535784,1.656312 -1.124322,0.282189 -1.483104,0.8467 -1.669373,2.626609 l -0.23726,2.26717 -0.101739,-2.269567 c -0.08213,-1.832176 -0.335015,-2.269566 -1.312175,-2.269566 -0.979877,0 -1.210435,0.40348 -1.210435,2.118262 0,1.165044 -0.291839,2.118262 -0.648531,2.118262 -0.356692,0 -0.560953,-0.748957 -0.453914,-1.664349 0.183727,-1.571212 0.01888,-1.694168 -2.94576,-2.197219 -3.94927,-0.670121 -5.030062,-0.266695 -5.030062,1.877579 0,2.129374 -2.99232,5.180132 -4.280978,4.364577 z m 5.945327,0.244677 c 0.416087,-0.167893 1.096957,-0.167893 1.513044,0 0.416087,0.167894 0.07565,0.305266 -0.756522,0.305266 -0.832174,0 -1.172609,-0.137372 -0.756522,-0.305266 z m 2.874784,-0.204394 c -0.442414,-0.715839 0.149801,-0.715839 1.815654,0 1.167002,0.501478 1.162855,0.521668 -0.115587,0.562677 -0.729312,0.0234 -1.494342,-0.229807 -1.700067,-0.562677 z m 6.475349,0.07451 c -0.443064,-0.273831 -0.245092,-0.688763 0.572129,-1.199125 0.687294,-0.42922 1.083256,-0.511209 0.879915,-0.182194 -0.203342,0.329008 -0.04135,0.707657 0.35998,0.841434 0.487984,0.162658 0.420934,0.361714 -0.202417,0.600915 -0.51266,0.196726 -1.236983,0.169261 -1.609607,-0.06103 z m -9.350133,-1.080556 c 0.416087,-0.167894 1.096957,-0.167894 1.513044,0 0.416087,0.167893 0.07565,0.305265 -0.756522,0.305265 -0.832174,0 -1.172609,-0.137372 -0.756522,-0.305265 z m 4.841742,0 c 0.416087,-0.167894 1.096957,-0.167894 1.513044,0 0.416088,0.167893 0.07565,0.305265 -0.756522,0.305265 -0.832174,0 -1.172609,-0.137372 -0.756522,-0.305265 z M 36.756404,68.588701 c 0.02904,-0.705049 0.172451,-0.848455 0.365653,-0.365655 0.17483,0.436889 0.153328,0.958889 -0.04778,1.160003 -0.201109,0.201108 -0.344152,-0.156352 -0.317873,-0.794348 z m 5.802659,0.554779 c -0.559214,-0.55921 -0.507136,-2.017391 0.07205,-2.017391 0.261541,0 0.475529,0.544696 0.475529,1.210436 0,1.364675 0.0041,1.358635 -0.547579,0.806955 z m 4.438263,-0.07205 c 0,-0.261544 0.544696,-0.475531 1.210436,-0.475531 0.665739,0 1.210435,0.213987 1.210435,0.475531 0,0.261539 -0.544696,0.475526 -1.210435,0.475526 -0.66574,0 -1.210436,-0.213987 -1.210436,-0.475526 z m 3.026089,-0.129692 c 0,-0.332869 0.272348,-0.605217 0.605218,-0.605217 0.33287,0 0.605218,0.272348 0.605218,0.605217 0,0.33287 -0.272348,0.605218 -0.605218,0.605218 -0.33287,0 -0.605218,-0.272348 -0.605218,-0.605218 z m 4.123046,0.191788 c 0.436892,-0.174829 0.958892,-0.153332 1.160001,0.04775 0.201109,0.201114 -0.156348,0.344152 -0.794348,0.317873 -0.705044,-0.02905 -0.848455,-0.172451 -0.365653,-0.365648 z M 44.019017,67.983483 c 0.02904,-0.705049 0.172452,-0.848455 0.365653,-0.365655 0.17483,0.436889 0.153328,0.958889 -0.04778,1.160003 -0.201109,0.201108 -0.344152,-0.156352 -0.317873,-0.794348 z m 18.204311,-1.462612 c 0,-0.832174 0.137373,-1.172609 0.305266,-0.756522 0.167894,0.416087 0.167894,1.096957 0,1.513044 -0.167893,0.416088 -0.305266,0.07565 -0.305266,-0.756522 z M 74.419665,29.299978 c 0.0036,-1.997219 0.116383,-2.741298 0.251081,-1.65351 0.134697,1.087788 0.131919,2.721876 -0.0062,3.631307 -0.138098,0.90943 -0.248302,0.01942 -0.244907,-1.977797 z"
         id="path1940" />
      <path
         style="fill:#a3a3a3;fill-opacity:1;stroke-width:0.605218"
         d="M 15.417398,97.766601 C 2.9715901,94.356247 1.2123974,77.354705 12.693948,71.446097 c 8.179179,-4.209156 18.39778,0.605151 20.32125,9.573983 2.22866,10.391885 -7.388677,19.54399 -17.5978,16.746521 z m 9.378795,-6.003736 C 30.692362,87.265637 29.756395,78.499922 23.039707,75.312646 16.610744,72.261907 8.8244084,77.891564 9.6268061,85.010414 10.451912,92.330728 19.039772,96.153502 24.796193,91.762865 Z m -6.84932,0.386794 c 0,-0.550439 -1.089392,-2.006515 -2.420871,-3.23573 -2.090666,-1.930094 -2.420871,-2.584171 -2.420871,-4.795328 0,-3.587925 2.491563,-6.098592 6.052177,-6.098592 7.184794,0 8.28017,9.737694 1.562406,13.8895 -2.429473,1.501497 -2.772841,1.531237 -2.772841,0.24015 z m 26.629582,1.303403 c -0.817827,-0.985421 -0.622204,-1.108601 0.858328,-0.540465 0.526529,0.202046 0.957325,0.610568 0.957325,0.907826 0,0.837156 -0.980664,0.638741 -1.815653,-0.367361 z m 8.212965,0.371416 c -0.182336,-0.295025 0.225678,-0.682122 0.906697,-0.860214 1.015524,-0.265563 1.109821,-0.169092 0.524305,0.536411 -0.83577,1.007046 -0.987515,1.04138 -1.431002,0.323803 z m -9.901176,-4.630963 c -0.666104,-0.755233 -0.488847,-0.883448 1.210436,-0.875538 2.522984,0.01174 4.066933,0.855596 2.597283,1.419557 -1.591566,0.610737 -2.961922,0.414955 -3.807719,-0.544019 z m 9.253433,0.325632 c -0.205725,-0.33287 0.0165,-0.605218 0.493848,-0.605218 0.47734,0 1.785851,-0.183593 2.907801,-0.407983 1.90754,-0.381505 1.974162,-0.342233 1.026708,0.605217 -1.113215,1.11322 -3.837387,1.364192 -4.428357,0.407984 z M 42.67798,86.557054 c 0.696527,-0.441289 0.696527,-0.573783 0,-0.850779 -1.171688,-0.465963 3.049226,-0.362072 5.227173,0.128657 l 1.815653,0.409097 -2.420871,0.420463 c -3.454016,0.599904 -5.657564,0.548678 -4.621955,-0.107438 z m 9.866866,0.01095 c -0.643964,-0.408207 -0.603343,-0.589978 0.200804,-0.898561 1.574959,-0.604364 4.408083,-0.476197 3.412765,0.154391 -0.696527,0.441289 -0.696527,0.573783 0,0.850779 0.453752,0.180452 0.008,0.345422 -0.990649,0.366605 -0.998609,0.02118 -2.178924,-0.191763 -2.62292,-0.473214 z m -9.90327,-2.907345 c 0.589737,-0.236277 0.513428,-0.522497 -0.302609,-1.135013 -0.9617,-0.72185 -0.80389,-0.780302 1.329661,-0.492496 1.33148,0.17961 2.821761,0.454173 3.311737,0.610138 1.502819,0.478358 -0.554907,1.416464 -3.009128,1.371841 -1.165044,-0.02118 -1.763392,-0.180694 -1.329661,-0.35447 z m 9.874048,-0.136804 c -0.901124,-0.57072 -0.489205,-0.763312 3.25736,-1.52297 1.650257,-0.334612 1.71625,-0.290171 0.724444,0.487836 -0.818339,0.641937 -0.89401,0.934989 -0.302609,1.171938 0.43373,0.173776 -0.02845,0.333287 -1.027053,0.35447 -0.998609,0.02118 -2.192073,-0.199891 -2.652142,-0.491274 z M 42.500012,80.373217 c 0.228726,-0.370091 0.04054,-0.932623 -0.418195,-1.250084 -0.620341,-0.429299 -0.523899,-0.49833 0.376376,-0.269418 0.665739,0.169279 2.572175,0.512698 4.236524,0.763149 2.815273,0.423646 2.8996,0.484301 1.210436,0.870697 -3.04222,0.695897 -5.868942,0.636102 -5.405141,-0.114344 z m 9.05845,0.123156 c -0.947317,-0.370382 -0.681773,-0.545671 1.308832,-0.863985 1.373495,-0.219628 2.997682,-0.558326 3.609304,-0.752649 1.068803,-0.339588 1.069614,-0.318484 0.02083,0.542777 -0.820696,0.673959 -0.895713,0.974437 -0.302609,1.212064 0.433728,0.173776 -0.164619,0.318314 -1.329664,0.321201 -1.165044,0.003 -2.653057,-0.203849 -3.306695,-0.459408 z m -9.604617,-2.879845 c -0.221913,-0.221909 -0.403479,-1.175127 -0.403479,-2.118262 0,-1.311301 0.284808,-1.714781 1.210436,-1.714781 0.979876,0 1.210435,0.40348 1.210435,2.118262 0,1.993557 -0.939795,2.792384 -2.017392,1.714781 z M 54.25994,75.901747 c 0,-1.714782 0.230558,-2.118262 1.210435,-2.118262 0.979877,0 1.210436,0.40348 1.210436,2.118262 0,1.714781 -0.230559,2.118262 -1.210436,2.118262 -0.979877,0 -1.210435,-0.403481 -1.210435,-2.118262 z M 40.64254,72.065973 37.616451,71.665222 37.13814,67.731307 c -0.696901,-5.731733 -2.059608,-10.027601 -4.726827,-14.901094 -1.297288,-2.370381 -2.755457,-5.434296 -3.240375,-6.8087 l -0.881669,-2.498917 h 3.841458 c 3.600985,0 3.865422,0.09548 4.224263,1.525216 0.57871,2.305761 2.744414,4.461333 5.155146,5.131025 2.809528,0.780477 10.754607,0.781293 11.236759,0.0012 0.205725,-0.33287 0.855194,-0.605218 1.443265,-0.605218 1.402194,0 3.504225,-2.291833 4.024441,-4.387828 l 0.413084,-1.664349 h 5.986568 c 4.843371,0 5.986567,0.168634 5.986567,0.883086 0,0.485697 -1.230184,3.27382 -2.733745,6.195828 -3.799721,7.384366 -5.065703,11.037977 -5.520591,15.932398 -0.215675,2.320562 -0.751892,4.517775 -1.191602,4.882703 -0.932,0.773492 -15.97828,1.249811 -20.512342,0.649362 z m 8.775657,-1.308577 c 0.687797,-0.44449 0.394424,-0.606301 -1.210435,-0.667622 -1.165044,-0.04448 -2.333557,-0.04503 -2.596693,-0.0012 -1.108827,0.185046 -2.78411,-1.220343 -2.46037,-2.063992 0.189653,-0.494112 0.03402,-0.898482 -0.345851,-0.898482 -0.416298,0 -0.582005,0.661176 -0.417127,1.664349 0.15045,0.915392 0.295942,1.86861 0.323313,2.118262 0.0727,0.663101 5.641345,0.537482 6.707163,-0.151304 z m 0,-1.779934 c 0,-0.313224 -0.314428,-0.763827 -0.698728,-1.001339 -0.464908,-0.287327 -0.532949,-0.163602 -0.203327,0.36974 0.359709,0.58202 0.219548,0.695722 -0.511706,0.415113 -0.553911,-0.212553 -1.00711,-0.12266 -1.00711,0.199758 0,0.322424 0.544696,0.586226 1.210436,0.586226 0.665739,0 1.210435,-0.256273 1.210435,-0.569498 z m 1.815654,-0.03572 c 0,-0.332869 -0.272348,-0.605217 -0.605218,-0.605217 -0.33287,0 -0.605218,0.272348 -0.605218,0.605217 0,0.33287 0.272348,0.605218 0.605218,0.605218 0.33287,0 0.605218,-0.272348 0.605218,-0.605218 z m 4.072611,0.239564 c -0.201109,-0.201108 -0.723109,-0.222605 -1.160001,-0.04775 -0.482802,0.193198 -0.339391,0.33661 0.365653,0.365648 0.638,0.02627 0.995457,-0.116758 0.794348,-0.317872 z M 44.38467,67.617828 c -0.193201,-0.4828 -0.336612,-0.339394 -0.365653,0.365655 -0.02628,0.637996 0.116764,0.995456 0.317873,0.794348 0.201108,-0.201114 0.22261,-0.723114 0.04778,-1.160003 z m 1.70483,0.718697 c 0.205725,-0.33287 0.08562,-0.605218 -0.266891,-0.605218 -0.352515,0 -0.640936,0.272348 -0.640936,0.605218 0,0.332869 0.120101,0.605217 0.266891,0.605217 0.14679,0 0.435211,-0.272348 0.640936,-0.605217 z m 5.44696,-2.420872 c 0.205725,-0.332869 -0.03448,-0.605217 -0.533782,-0.605217 -0.499305,0 -1.076147,0.272348 -1.281872,0.605217 -0.205725,0.33287 0.03448,0.605218 0.533782,0.605218 0.499304,0 1.076147,-0.272348 1.281872,-0.605218 z m 0.01178,-3.007036 c -0.177059,-0.286486 0.02021,-0.680319 0.438367,-0.875187 0.607085,-0.282903 0.607845,-0.425444 0.0038,-0.707343 -0.416071,-0.194178 -0.756506,-0.738872 -0.756506,-1.210437 0,-0.658055 -0.984963,-0.857392 -4.236525,-0.857392 -2.420871,0 -4.236524,0.259379 -4.236524,0.605218 0,0.332869 0.82237,0.605217 1.827489,0.605217 1.564701,0 1.79206,0.195816 1.581099,1.36174 -0.22596,1.248825 1.73e-4,1.371581 2.727189,1.480405 1.63547,0.06527 2.828715,-0.115735 2.651656,-0.402221 z m -1.801583,-0.58245 c -0.191509,-0.309871 -0.116799,-0.70641 0.166021,-0.881203 0.282822,-0.174793 0.514221,0.07873 0.514221,0.563397 0,1.0205 -0.190847,1.109661 -0.680242,0.317806 z M 66.62883,11.294749 64.851251,9.3277912 66.818208,11.105371 c 1.081827,0.977669 1.966958,1.8628 1.966958,1.966958 0,0.467567 -0.499383,0.0559 -2.156336,-1.77758 z M 33.077317,10.612333 c 0,-0.125677 0.476609,-0.602286 1.059131,-1.0591314 0.95991,-0.7528129 0.981316,-0.7314063 0.228503,0.228503 -0.790637,1.0081404 -1.287634,1.3287424 -1.287634,0.8306284 z M 38.362886,7.1344287 C 38.773426,6.720812 39.26178,6.534857 39.448119,6.7211957 39.634458,6.9075344 39.298562,7.2459486 38.701684,7.4732266 37.839128,7.8016692 37.769611,7.7321515 38.362886,7.1344287 Z m 5.494873,-2.1539858 c 0.436892,-0.1748296 0.958892,-0.1533284 1.160001,0.04778 0.201108,0.2011088 -0.156348,0.3441512 -0.794348,0.317872 -0.705045,-0.02904 -0.848455,-0.1724505 -0.365653,-0.365652 z M 48.367388,4.354365 c 0.919969,-0.139112 2.281709,-0.1353944 3.026089,0.00826 0.74438,0.1436556 -0.0083,0.2574745 -1.672671,0.2529309 -1.664349,-0.00454 -2.273387,-0.1220802 -1.353418,-0.2611921 z"
         id="path1938" />
      <path
         style="fill:#8c8c8c;fill-opacity:1;stroke-width:0.605218"
         d="m 42.535943,70.43916 c -0.288892,-0.752842 0.06254,-0.872627 1.902207,-0.648358 1.241112,0.151299 3.073611,0.298675 4.072221,0.327502 3.025136,0.08732 0.438155,1.224331 -2.810033,1.235044 -1.966933,0.0065 -2.916353,-0.267797 -3.164395,-0.914188 z m 2.64573,-2.102635 c 0,-0.33287 0.288421,-0.605218 0.640936,-0.605218 0.352514,0 0.472616,0.272348 0.266891,0.605218 -0.205725,0.332869 -0.494146,0.605217 -0.640936,0.605217 -0.14679,0 -0.266891,-0.272348 -0.266891,-0.605217 z m 4.539133,-2.420872 c 0.205725,-0.332869 0.782567,-0.605217 1.281872,-0.605217 0.499305,0 0.739507,0.272348 0.533782,0.605217 -0.205725,0.33287 -0.782568,0.605218 -1.281872,0.605218 -0.499305,0 -0.739507,-0.272348 -0.533782,-0.605218 z m -3.551416,-4.08522 c 0.210961,-1.165924 -0.0164,-1.36174 -1.581099,-1.36174 -1.005119,0 -1.827489,-0.272348 -1.827489,-0.605217 0,-0.345839 1.815653,-0.605218 4.236524,-0.605218 3.251562,0 4.236525,0.199337 4.236525,0.857392 0,0.471565 0.340435,1.016259 0.756522,1.210437 0.604073,0.281899 0.603314,0.42444 -0.0038,0.707343 -0.418161,0.194868 -0.615427,0.588701 -0.438368,0.875187 0.177059,0.286486 -1.016185,0.467488 -2.651655,0.402221 -2.727016,-0.108824 -2.95315,-0.23158 -2.727189,-1.480405 z m 4.257504,0.177928 c 0,-0.484664 -0.2314,-0.73819 -0.514221,-0.563397 -0.282821,0.174793 -0.357531,0.571332 -0.166021,0.881203 0.489394,0.791855 0.680242,0.702694 0.680242,-0.317806 z M 41.284663,50.149718 c -2.158611,-0.644946 -4.386217,-2.936605 -4.919358,-5.06081 l -0.39312,-1.566312 h 11.32775 11.32775 l -0.413084,1.664349 c -0.520216,2.095995 -2.622247,4.387828 -4.024441,4.387828 -0.588071,0 -1.23754,0.272348 -1.443265,0.605218 -0.453563,0.733881 -8.98001,0.71136 -11.462232,-0.03027 z m 0.06396,-9.451472 c -1.436784,-1.436785 1.380481,-5.279706 4.348478,-5.931588 0.900678,-0.197822 1.990315,-0.924469 2.421416,-1.61477 0.4311,-0.690301 0.489298,-1.07307 0.129329,-0.850597 -0.463557,0.286494 -0.460931,-0.02032 0.009,-1.051711 0.580977,-1.275105 1.032931,-1.443209 3.634074,-1.351686 1.633819,0.05749 3.134203,0.268143 3.334185,0.468125 0.199982,0.199981 0.719639,0.226979 1.154794,0.05999 0.503076,-0.193048 0.93927,0.37059 1.197829,1.547805 0.223652,1.018277 0.686392,2.024309 1.028313,2.235627 0.34192,0.211319 1.15505,1.508095 1.806955,2.881725 l 1.185279,2.497509 -0.381796,-2.420871 c -0.209987,-1.331479 -0.504026,-3.101741 -0.653418,-3.933916 -0.171322,-0.954329 0.160124,-0.586486 0.897582,0.996149 1.083018,2.324237 1.504583,4.249014 1.339328,6.11516 -0.05078,0.573545 -2.604288,0.756523 -10.557433,0.756523 -5.769743,0 -10.672007,-0.181566 -10.89392,-0.403479 z m 24.107841,-3.201447 c 0,-2.011728 0.171041,-3.657688 0.380095,-3.657688 0.209049,0 0.807548,0.612783 1.329997,1.36174 l 0.949901,1.36174 0.03177,-1.326022 c 0.01743,-0.729312 0.346172,-1.520348 0.730474,-1.75786 0.434425,-0.268491 0.534383,-0.165921 0.26425,0.271165 -0.242989,0.393161 -0.019,0.862443 0.508225,1.064756 0.518497,0.198964 0.766025,0.647642 0.550071,0.997063 -0.229287,0.370988 -0.101937,0.455644 0.306083,0.203474 0.384271,-0.237512 0.698699,-0.960461 0.698699,-1.606556 0,-0.646095 0.31774,-1.174718 0.70609,-1.174718 0.388344,0 0.556274,-0.149809 0.373177,-0.332908 -0.307311,-0.307311 0.01773,-1.940772 1.318836,-6.627096 0.399093,-1.437485 0.512523,-0.93326 0.544605,2.420871 0.02754,2.8757 -0.389996,5.500147 -1.299783,8.17044 l -1.340316,3.933916 -3.026089,0.177685 -3.026089,0.177686 z m 6.126947,-18.50892 c -0.584023,-1.521938 -0.411736,-1.91464 0.301719,-0.687732 0.35326,0.607488 0.514798,1.232017 0.358973,1.387841 -0.155826,0.155825 -0.453139,-0.159225 -0.660692,-0.700109 z M 63.79212,13.4661 c 0.416087,-0.167894 1.096957,-0.167894 1.513044,0 0.416087,0.167896 0.07565,0.305264 -0.756522,0.305264 -0.832175,0 -1.17261,-0.137368 -0.756522,-0.305264 z M 31.564273,12.051271 c 0.602486,-0.665739 1.231603,-1.210435 1.398038,-1.210435 0.166435,0 -0.190335,0.544696 -0.79282,1.210435 -0.602486,0.66574 -1.231603,1.210436 -1.398038,1.210436 -0.166435,0 0.190334,-0.544696 0.79282,-1.210436 z M 61.704699,9.4219667 C 60.639835,8.7044308 59.631604,7.7887164 59.464185,7.387046 c -0.536922,-1.2881839 2.550428,0.4674672 3.576877,2.034025 0.511645,0.780871 0.855899,1.394057 0.765008,1.362636 -0.09089,-0.03142 -1.036508,-0.644204 -2.101371,-1.3617403 z M 45.673412,4.9804429 c 0.436892,-0.1748296 0.958892,-0.1533284 1.160001,0.04778 0.201109,0.2011088 -0.156348,0.3441512 -0.794348,0.317872 -0.705044,-0.02904 -0.848455,-0.1724505 -0.365653,-0.365652 z m 7.867831,0 c 0.436892,-0.1748296 0.958892,-0.1533284 1.160001,0.04778 0.201109,0.2011088 -0.156348,0.3441512 -0.794348,0.317872 -0.705044,-0.029041 -0.848455,-0.1724507 -0.365653,-0.365652 z"
         id="path1936" />
      <path
         style="fill:#767676;fill-opacity:1;stroke-width:0.605218"
         d="m 26.631973,38.860077 c -3.653525,-8.744114 -1.792331,-18.863808 4.780943,-25.994968 1.373019,-1.48955 3.058156,-2.9981928 3.744748,-3.3525412 1.024306,-0.5286407 0.96072,-0.3314856 -0.354292,1.0985212 -2.152252,2.340463 -4.141887,5.732416 -4.144663,7.065871 -0.0019,0.914859 0.333511,1.023564 2.122634,0.687922 2.989498,-0.560833 4.119005,0.444561 2.970762,2.644331 -0.468925,0.898353 -1.020547,2.5185 -1.225827,3.600327 -0.205279,1.081827 -0.576787,1.966958 -0.825573,1.966958 -0.666986,0 -4.254694,9.373746 -4.254694,11.116406 0,1.909283 -0.574539,3.408821 -1.306069,3.408821 -0.314242,0 -0.992828,-1.008742 -1.507969,-2.241648 z m 12.901001,1.838169 c -0.221914,-0.221913 -0.403479,-1.034661 -0.403479,-1.806105 0,-2.192086 2.942027,-4.847922 6.461701,-5.833128 3.002171,-0.840349 3.103991,-0.830515 2.438254,0.235499 -0.382111,0.611858 -1.431667,1.274324 -2.332345,1.472146 -2.378774,0.522467 -4.903896,3.252321 -4.579261,4.950539 0.252323,1.319947 -0.673116,1.892803 -1.58487,0.981049 z m 23.321802,-1.573965 c -0.04206,-1.119604 -0.636059,-3.243396 -1.319931,-4.719538 -0.725024,-1.564978 -1.130158,-2.053106 -0.971775,-1.17085 0.149392,0.832175 0.443431,2.602437 0.653418,3.933916 L 61.598284,39.58868 60.3342,37.167809 c -0.695246,-1.331479 -1.661489,-3.101741 -2.147206,-3.933916 -1.008742,-1.728268 -1.200625,-3.887942 -0.295748,-3.328697 0.33287,0.205725 0.605218,-0.109967 0.605218,-0.701536 0,-0.59157 0.618968,-1.628948 1.375483,-2.305285 1.543815,-1.380195 2.861041,-4.033483 2.861041,-5.762996 0,-0.631202 0.476609,-1.503518 1.059132,-1.938481 1.290403,-0.963528 1.640206,-2.300474 0.605217,-2.313152 -0.504346,-0.0062 -0.453913,-0.204828 0.151305,-0.59595 0.605218,-0.391122 0.65565,-0.589772 0.151304,-0.59595 -0.948733,-0.01162 -0.715924,-1.414799 0.304195,-1.833398 0.543298,-0.222937 0.322744,-0.951783 -0.778341,-2.572176 -1.871224,-2.7537539 -1.072488,-2.9178381 1.823982,-0.374702 2.748832,2.413505 5.037614,5.524954 3.681309,5.004489 -0.746717,-0.286541 -0.945925,0.08311 -0.945925,1.755278 0,1.324592 -0.340144,2.248788 -0.907826,2.466628 -1.114751,0.42777 -1.189405,2.425325 -0.123695,3.309785 0.609757,0.506053 0.961522,0.04997 1.581852,-2.050967 0.438752,-1.485956 1.043904,-2.853882 1.344788,-3.039837 0.786408,-0.486028 2.917621,4.525418 2.933333,6.8976 0.0073,1.10371 -0.252424,2.503235 -0.577184,3.110054 -0.32476,0.606821 -0.65504,1.950656 -0.733954,2.986302 -0.07891,1.035645 -0.357895,1.882991 -0.619961,1.882991 -0.262065,0 -0.476482,0.528623 -0.476482,1.174718 0,0.646095 -0.314428,1.369044 -0.69873,1.606556 -0.408019,0.25217 -0.535369,0.167514 -0.306082,-0.203474 0.215953,-0.349421 -0.03159,-0.798099 -0.550071,-0.997063 -0.527217,-0.202313 -0.751214,-0.671595 -0.508225,-1.064756 0.270132,-0.437086 0.170175,-0.539656 -0.264251,-0.271165 -0.384301,0.237512 -0.713013,1.028548 -0.730473,1.75786 l -0.03174,1.326022 -0.949901,-1.36174 c -0.522449,-0.748957 -1.120948,-1.362237 -1.329997,-1.362846 -0.209054,-6.05e-4 -0.380095,1.565394 -0.380095,3.480003 0,3.067904 -0.14987,3.502521 -1.262581,3.661512 -1.053684,0.150555 -1.275248,-0.1564 -1.339111,-1.855239 z M 55.772984,6.5498986 c -1.922438,-0.7007491 -2.522356,-1.1127031 -1.64491,-1.1295323 1.458804,-0.02798 5.578826,1.4940089 5.578826,2.0608891 0,0.4497791 -0.413418,0.3519021 -3.933916,-0.9313568 z M 48.367388,4.9595828 c 0.919969,-0.139112 2.281709,-0.1353945 3.026089,0.00826 0.74438,0.1436556 -0.0083,0.2574745 -1.672671,0.2529308 -1.664349,-0.00454 -2.273387,-0.1220801 -1.353418,-0.261192 z"
         id="path1934" />
      <path
         style="fill:#606060;fill-opacity:1;stroke-width:0.605218"
         d="m 67.689189,23.422778 c -1.004903,-1.004903 -0.898191,-2.867945 0.188151,-3.284813 0.560135,-0.214945 0.907826,-1.134842 0.907826,-2.401877 0,-1.12943 0.262768,-2.05351 0.583926,-2.05351 0.879884,0 1.856996,2.154587 1.261674,2.782067 -0.285233,0.300647 -0.901853,1.701145 -1.370262,3.112218 -0.658059,1.982411 -1.015228,2.402001 -1.571315,1.845915 z"
         id="path1932" />
    </g>
  </g>
</svg>
