<?xml version="1.0" encoding="UTF-8" standalone="no"?>
<!-- Created with Inkscape (http://www.inkscape.org/) -->

<svg
   width="100mm"
   height="100mm"
   viewBox="0 0 100 100"
   version="1.1"
   id="svg944"
   inkscape:version="1.1.1 (3bf5ae0d25, 2021-09-20)"
   sodipodi:docname="add_list_type_device_6071.svg"
   xmlns:inkscape="http://www.inkscape.org/namespaces/inkscape"
   xmlns:sodipodi="http://sodipodi.sourceforge.net/DTD/sodipodi-0.dtd"
   xmlns="http://www.w3.org/2000/svg"
   xmlns:svg="http://www.w3.org/2000/svg">
  <sodipodi:namedview
     id="namedview946"
     pagecolor="#505050"
     bordercolor="#ffffff"
     borderopacity="1"
     inkscape:pageshadow="0"
     inkscape:pageopacity="0"
     inkscape:pagecheckerboard="1"
     inkscape:document-units="mm"
     showgrid="false"
     inkscape:zoom="0.58974467"
     inkscape:cx="397.62971"
     inkscape:cy="127.17368"
     inkscape:window-width="1440"
     inkscape:window-height="890"
     inkscape:window-x="-6"
     inkscape:window-y="-6"
     inkscape:window-maximized="1"
     inkscape:current-layer="layer1" />
  <defs
     id="defs941" />
  <g
     inkscape:label="Laag 1"
     inkscape:groupmode="layer"
     id="layer1">
    <g
       id="g960"
       transform="translate(0.89727882)">
      <path
         style="fill:#d0d0d0;fill-opacity:1;stroke-width:0.591371"
         d="m 17.126883,97.596229 c 0.575384,-0.149936 1.373735,-0.140078 1.774112,0.02194 0.400377,0.161994 -0.07039,0.284668 -1.046154,0.272616 -0.975762,-0.01206 -1.303343,-0.14459 -0.727958,-0.294527 z m 14.74046,-14.078772 c 0.01205,-0.975762 0.144589,-1.303346 0.294528,-0.72796 0.149938,0.575386 0.140077,1.373737 -0.02191,1.774113 -0.161993,0.400376 -0.28467,-0.07039 -0.272618,-1.046153 z M 65.179465,37.710414 c -0.125784,-0.203526 0.285094,-0.408752 0.913071,-0.456055 0.627977,-0.0473 1.141771,0.119218 1.141771,0.370048 0,0.544026 -1.727092,0.616315 -2.054842,0.08601 z M 31.160685,9.5961006 c 0.763901,-0.8131349 1.521969,-1.4784271 1.684596,-1.4784271 0.162627,0 -0.329324,0.6652922 -1.093225,1.4784271 -0.7639,0.8131354 -1.521968,1.4784274 -1.684595,1.4784274 -0.162627,0 0.329324,-0.665292 1.093224,-1.4784274 z M 54.148716,8.856887 C 53.413127,7.91894 53.434044,7.898023 54.371991,8.6336118 c 0.985075,0.7725488 1.298343,1.2581742 0.811624,1.2581742 -0.122801,0 -0.588506,-0.4657045 -1.034899,-1.034899 z"
         id="path972" />
      <path
         style="fill:#a3a3a3;fill-opacity:1;stroke-width:0.591371"
         d="M 11.941133,95.868527 C 10.640117,95.108237 9.1099448,94.3157 8.5407504,94.107336 7.9715559,93.898978 7.5058514,93.517308 7.5058514,93.259174 c 0,-0.258127 -0.717273,-1.564868 -1.5939398,-2.903867 -0.8766669,-1.339 -1.685303,-2.893052 -1.796969,-3.453452 -0.4787556,-2.402663 -0.3023279,-5.320321 0.4549678,-7.523994 0.4470963,-1.301016 0.7583522,-2.565071 0.69168,-2.809011 -0.066672,-0.243941 0.1448944,-0.443529 0.4701484,-0.443529 0.325254,0 0.5913709,-0.254023 0.5913709,-0.564493 0,-0.73353 2.8415718,-3.575103 3.5751058,-3.575103 0.3104695,0 0.5644905,-0.266116 0.5644905,-0.59137 0,-0.325254 0.199587,-0.536823 0.443528,-0.470146 0.24394,0.06667 1.507995,-0.244585 2.809011,-0.691685 2.203673,-0.757292 5.121331,-0.933722 7.523993,-0.454965 0.560402,0.111668 2.114456,0.920303 3.453454,1.796969 1.338997,0.876665 2.645737,1.593939 2.903868,1.593939 0.258129,0 0.638935,0.465705 0.846234,1.034899 0.207299,0.569195 1.003199,2.121998 1.768666,3.450673 1.064876,1.848377 1.38581,3.278341 1.366432,6.088293 -0.01393,2.019892 -0.250899,3.811935 -0.526598,3.982327 -0.2757,0.170391 -0.348168,0.557532 -0.161039,0.860314 0.187128,0.302776 0.04271,0.550507 -0.32094,0.550507 -0.363646,0 -0.535165,0.203887 -0.381155,0.453079 0.375392,0.607397 -5.837079,6.733094 -6.329289,6.240884 -0.212303,-0.212302 -0.386007,-0.05983 -0.386007,0.338826 0,0.398661 -0.247728,0.571732 -0.550508,0.384604 -0.302779,-0.187133 -0.688289,-0.117298 -0.856689,0.155176 -0.1684,0.272474 -1.983077,0.506083 -4.032616,0.519123 -2.866569,0.01821 -4.272264,-0.295265 -6.091918,-1.358645 z m 10.12342,-4.144788 c 2.974806,-1.411638 4.560234,-3.994929 4.831191,-7.871921 0.28748,-4.113404 -1.294801,-6.788642 -5.201765,-8.794873 -7.865483,-4.038945 -16.3385921,4.43417 -12.2996522,12.29965 2.5146322,4.897024 7.7504942,6.70171 12.6702262,4.367144 z M 16.376414,90.65376 c 0,-0.912888 -0.426585,-1.573969 -1.167377,-1.809086 -1.717002,-0.544961 -3.56359,-3.459981 -3.56359,-5.625487 0,-1.374127 0.569296,-2.459097 2.086312,-3.976111 1.875086,-1.875089 2.328776,-2.05379 4.481181,-1.765094 2.869864,0.384929 4.39344,1.639889 5.290385,4.357658 0.576446,1.746649 0.479711,2.395164 -0.716952,4.806449 -1.216323,2.450895 -4.466504,5.450245 -5.906042,5.450245 -0.277154,0 -0.503917,-0.647361 -0.503917,-1.438574 z"
         id="path970" />
      <path
         style="fill:#767676;fill-opacity:1;stroke-width:0.591371"
         d="m 75.560188,92.338741 c 0.02839,-0.688918 0.168505,-0.829043 0.357283,-0.357289 0.170829,0.426893 0.149823,0.936951 -0.04666,1.133463 -0.196513,0.196507 -0.336278,-0.152775 -0.3106,-0.776174 z"
         id="path968" />
      <path
         style="fill:#606060;fill-opacity:1;stroke-width:0.591371"
         d="m 65.731581,63.706534 c 0,-14.148548 0.07719,-19.93659 0.171527,-12.862316 0.09434,7.074273 0.09434,18.650358 0,25.724632 -0.09434,7.074273 -0.171527,1.286231 -0.171527,-12.862316 z m -48.283307,5.509737 c 0.426896,-0.17083 0.936953,-0.149824 1.133461,0.04666 0.196507,0.196512 -0.152771,0.336277 -0.776174,0.3106 -0.688914,-0.02839 -0.829043,-0.168506 -0.357287,-0.357283 z M 65.118176,36.891659 C 64.95048,36.454653 64.895217,34.12613 64.995366,31.717164 l 0.182094,-4.379938 0.28921,5.175875 c 0.288187,5.157529 0.230162,5.886519 -0.348494,4.378558 z"
         id="path966" />
      <path
         style="fill:#494949;fill-opacity:1;stroke-width:0.591371"
         d="m 63.851767,95.205151 c 1.554773,-0.122225 3.949825,-0.120746 5.322337,0.0035 1.372519,0.124022 0.100433,0.224023 -2.826853,0.22222 -2.927286,-0.0018 -4.050252,-0.103277 -2.495484,-0.225496 z m 3.627321,-4.886929 c 0.03584,-0.505007 0.697137,-0.928778 1.535376,-0.983923 1.234025,-0.08119 1.262866,-0.05139 0.178156,0.184206 -0.711821,0.15459 -1.402737,0.597362 -1.53537,0.983923 -0.132627,0.386567 -0.212799,0.303675 -0.178162,-0.184206 z m -4.22528,-1.001185 c 0.575386,-0.149936 1.373737,-0.140078 1.774113,0.02194 0.400375,0.161994 -0.07039,0.284668 -1.046153,0.272616 -0.975762,-0.01206 -1.303346,-0.14459 -0.72796,-0.294526 z m 3.435817,-19.450388 c 0.02839,-0.688918 0.168505,-0.829043 0.357283,-0.357289 0.170829,0.426893 0.149824,0.93695 -0.04666,1.133463 -0.196513,0.196506 -0.336277,-0.152775 -0.3106,-0.776174 z m 0,-2.956855 c 0.02839,-0.688917 0.168505,-0.829043 0.357283,-0.357288 0.170829,0.426893 0.149824,0.93695 -0.04666,1.133463 -0.196513,0.196506 -0.336277,-0.152775 -0.3106,-0.776175 z m -0.04766,-15.741356 c -0.162089,-7.383832 -0.08979,-13.219775 0.160652,-12.96876 0.250451,0.251015 0.383066,6.292333 0.294709,13.425151 L 66.936659,64.59359 66.641955,51.168438 Z m 0.888032,-18.80456 c 0,-2.865167 0.199587,-5.086044 0.443528,-4.93528 0.24394,0.150764 0.443528,2.37164 0.443528,4.93528 0,2.563641 -0.199588,4.784517 -0.443528,4.935281 -0.243941,0.150764 -0.443528,-2.070113 -0.443528,-4.935281 z m -1.284375,-0.295685 c 0.0024,-2.276778 0.10951,-3.135722 0.23753,-1.908765 0.128014,1.226957 0.125868,3.089775 -0.0047,4.139596 -0.130681,1.049821 -0.235425,0.04595 -0.232799,-2.230831 z M 39.883406,13.593533 c 2.032837,-0.115478 5.359298,-0.115478 7.392135,0 2.032837,0.115477 0.369607,0.209959 -3.696068,0.209959 -4.065674,0 -5.728905,-0.09448 -3.696067,-0.209959 z m 14.045057,-0.153522 c 0.201018,-0.325254 0.48284,-0.591371 0.626272,-0.591371 0.143432,0 0.260785,0.266117 0.260785,0.591371 0,0.325254 -0.281823,0.591371 -0.626272,0.591371 -0.34445,0 -0.461803,-0.266117 -0.260785,-0.591371 z M 28.795202,13.019612 c 0,-0.339637 0.465705,-0.982753 1.034899,-1.429146 0.957285,-0.750754 0.969835,-0.722922 0.167339,0.371118 -0.477158,0.650508 -0.942863,1.293624 -1.034899,1.429146 -0.09204,0.135523 -0.167339,-0.03148 -0.167339,-0.371118 z m 4.864729,-5.2441782 c 0.56145,-0.5861824 1.148111,-0.9384942 1.30369,-0.7829151 0.155579,0.1555791 -0.303789,0.6351829 -1.020818,1.0657862 -1.24561,0.7480359 -1.258212,0.7354338 -0.282872,-0.2828711 z m 3.562306,-1.8395199 c 0.569194,-0.1487461 1.500603,-0.1487461 2.069798,0 0.569194,0.148746 0.10349,0.2704474 -1.034899,0.2704474 -1.138389,0 -1.604094,-0.1217014 -1.034899,-0.2704474 z m 9.757619,0.015994 c 0.406567,-0.1640535 1.071859,-0.1640535 1.478427,0 0.406567,0.1640536 0.07392,0.2982792 -0.739214,0.2982792 -0.813135,0 -1.145781,-0.1342256 -0.739213,-0.2982792 z m -5.018521,-0.624074 c 0.89892,-0.1359292 2.229505,-0.1322967 2.956854,0.00807 0.727349,0.1403689 -0.0081,0.2515837 -1.634401,0.247144 -1.62627,-0.00444 -2.221374,-0.1192871 -1.322453,-0.2552162 z"
         id="path964" />
      <path
         style="fill:#333333;fill-opacity:1;stroke-width:0.591371"
         d="m 59.102958,94.167532 c -3.659172,-1.590427 -2.007066,-3.805685 3.260405,-4.371774 l 3.392517,-0.364592 0.30513,-25.724632 c 0.233934,-19.722561 0.352563,-22.689102 0.508437,-12.714474 0.186069,11.906957 0.336821,19.730202 0.678036,35.186566 0.06821,3.089913 0.245727,5.152318 0.394474,4.583124 0.317679,-1.215651 3.113562,-1.395097 6.009185,-0.385674 2.581293,0.899841 2.492599,2.696018 -0.188446,3.816234 -2.686077,1.122315 -11.756577,1.106662 -14.359738,-0.02478 z M 12.7678,91.348349 c -2.245162,-1.492029 -4.7019725,-5.809823 -4.611174,-8.10404 0.045678,-1.154143 0.1811103,-0.984106 0.5861225,0.735896 0.8109947,3.444114 2.1861185,5.687592 4.2619935,6.953326 2.333189,1.422632 2.780306,1.442555 2.780284,0.123904 -10e-6,-0.569194 -0.931419,-1.778062 -2.069798,-2.686379 -1.138379,-0.908316 -2.069781,-1.934397 -2.069781,-2.280184 0,-0.34578 0.772061,0.197796 1.715691,1.207952 0.94363,1.010162 2.008098,1.836656 2.365484,1.836656 0.357385,0 0.649792,0.665292 0.649792,1.478427 0,0.813135 0.226763,1.478427 0.503917,1.478427 1.38197,0 4.680044,-2.971289 5.912996,-5.32711 1.145232,-2.18822 1.323957,-2.343715 1.014063,-0.882284 -0.206908,0.975762 -1.459503,2.807983 -2.783544,4.071601 -2.354809,2.247345 -2.370487,2.288528 -0.718378,1.886946 0.928933,-0.225792 2.596906,-1.307155 3.706605,-2.403024 1.686715,-1.665685 2.061135,-2.517022 2.282849,-5.190598 0.441395,-5.322645 -1.718041,-8.119711 -7.463504,-9.667287 -1.86541,-0.502458 -2.26762,-0.753755 -1.249725,-0.780828 2.334299,-0.06207 6.623613,2.40488 8.156375,4.691055 1.785536,2.663191 1.611832,7.691393 -0.361441,10.462598 -2.673606,3.754732 -8.809031,4.920111 -12.608827,2.394946 z m -1.643506,-7.830892 c -0.149357,-4.027212 3.79936,-7.315872 7.867785,-6.552631 2.176958,0.4084 5.072839,3.247459 5.071237,4.971737 -5.05e-4,0.544239 -0.46621,0.06182 -1.034899,-1.072049 -2.756195,-5.495361 -10.191741,-4.127378 -11.389528,2.095434 -0.398641,2.07104 -0.456152,2.133347 -0.514595,0.557509 z M 8.7117405,80.947531 c -0.066328,-2.280379 4.8932345,-7.091311 6.6033175,-6.405422 0.507485,0.203544 0.432,0.322841 -0.223855,0.353782 -1.46046,0.06891 -4.669275,2.9743 -5.5707901,5.044021 C 9.088374,80.9318 8.7244715,81.385228 8.7117405,80.947531 Z M 65.460195,32.363878 c 0,-4.336719 0.09856,-4.730966 1.182742,-4.730966 1.084177,0 1.182741,0.394247 1.182741,4.730966 0,4.33672 -0.09856,4.730967 -1.182741,4.730967 -1.084178,0 -1.182742,-0.394247 -1.182742,-4.730967 z m 1.022953,-2.20445 c -0.12802,-1.226957 -0.234904,-0.368013 -0.23753,1.908765 -0.0024,2.276778 0.102118,3.280652 0.232758,2.230831 0.13064,-1.049821 0.132786,-2.912639 0.0047,-4.139596 z M 29.922235,12.033409 c 0.630804,-1.015266 2.400667,-2.7613181 3.933029,-3.8801165 2.729001,-1.9924822 2.908738,-2.034876 8.768486,-2.0681861 5.268405,-0.029949 6.327541,0.1434666 8.874526,1.4530507 1.700908,0.8745567 3.291381,2.2314689 3.861422,3.2943719 0.5331,0.994022 1.294039,1.699058 1.690974,1.566746 0.396936,-0.132312 0.721702,0.180784 0.721702,0.69577 0,0.604512 -0.523934,0.936337 -1.478427,0.936337 -0.813135,0 -1.478427,-0.281823 -1.478427,-0.626272 0,-0.344449 -0.272074,-0.458121 -0.604609,-0.252603 -0.332535,0.205518 -6.19158,0.453132 -13.020101,0.550254 L 28.775317,13.879346 Z M 51.732256,10.41104 C 51.857048,9.7603893 51.126408,9.1358455 49.46075,8.4693818 45.55153,6.9052218 42.454147,6.7126139 38.711594,7.8009555 c -3.599605,1.0467724 -4.311045,1.6170094 -3.771527,3.0229725 0.278513,0.725793 1.727241,0.847357 8.472093,0.710895 6.951351,-0.140639 8.162919,-0.304284 8.320096,-1.123783 z M 35.300281,10.229434 c 0,-1.2422402 6.22399,-2.9017538 9.302063,-2.4802255 3.095455,0.4239085 6.66495,1.8719467 6.66495,2.7037725 0,0.403788 -2.79702,0.621547 -7.983506,0.621547 -6.526018,0 -7.983507,-0.154282 -7.983507,-0.845094 z"
         id="path962" />
    </g>
  </g>
</svg>
