<?xml version="1.0" encoding="UTF-8" standalone="no"?>
<!-- Created with Inkscape (http://www.inkscape.org/) -->

<svg
   version="1.1"
   id="svg1388"
   width="207"
   height="207"
   viewBox="0 0 207 207"
   sodipodi:docname="add_list_type_device_7120.svg"
   inkscape:version="1.1.1 (3bf5ae0d25, 2021-09-20)"
   xmlns:inkscape="http://www.inkscape.org/namespaces/inkscape"
   xmlns:sodipodi="http://sodipodi.sourceforge.net/DTD/sodipodi-0.dtd"
   xmlns="http://www.w3.org/2000/svg"
   xmlns:svg="http://www.w3.org/2000/svg">
  <defs
     id="defs1392" />
  <sodipodi:namedview
     id="namedview1390"
     pagecolor="#505050"
     bordercolor="#ffffff"
     borderopacity="1"
     inkscape:pageshadow="0"
     inkscape:pageopacity="0"
     inkscape:pagecheckerboard="1"
     showgrid="false"
     inkscape:zoom="3.1980676"
     inkscape:cx="103.34366"
     inkscape:cy="103.5"
     inkscape:window-width="1440"
     inkscape:window-height="890"
     inkscape:window-x="-6"
     inkscape:window-y="-6"
     inkscape:window-maximized="1"
     inkscape:current-layer="g1394" />
  <g
     inkscape:groupmode="layer"
     inkscape:label="Image"
     id="g1394">
    <g
       id="g1398"
       transform="translate(7.1918433,-7.5045317)">
      <path
         style="fill:#d0d0d0;fill-opacity:1"
         d="m 98.8125,194.31689 c 0.721875,-0.28887 1.58437,-0.25335 1.91667,0.0789 0.33229,0.33229 -0.25834,0.56864 -1.312503,0.52522 -1.164943,-0.048 -1.4019,-0.28494 -0.604167,-0.60416 z M 7.0789474,176.41667 c 0.047984,-1.16495 0.2849403,-1.4019 0.6041666,-0.60417 0.2888706,0.72187 0.2533443,1.58437 -0.078947,1.91667 -0.3322917,0.33229 -0.5686404,-0.25834 -0.5252196,-1.3125 z M 156.46563,92.5 c 1.6e-4,-29.15 0.12787,-40.930838 0.2838,-26.179639 0.15592,14.751198 0.15579,38.601199 -3e-4,52.999999 -0.15609,14.3988 -0.28367,2.32964 -0.2835,-26.82036 z M 99.25,19.261012 c 3.1625,-0.198451 8.3375,-0.198451 11.5,0 3.1625,0.19845 0.575,0.360819 -5.75,0.360819 -6.325,0 -8.9125,-0.162369 -5.75,-0.360819 z"
         id="path1414" />
      <path
         style="fill:#b9b9b9;fill-opacity:1"
         d="m 60,197.62244 c 0,-0.20765 0.7875,-0.99515 1.75,-1.75 1.586056,-1.24387 1.621426,-1.2085 0.377555,0.37756 C 60.821186,197.91575 60,198.44548 60,197.62244 Z m -25.083642,-3.98885 0.535801,-3.13359 0.341979,2.76695 c 0.22072,1.78586 0.76107,2.52681 1.52392,2.08968 0.650068,-0.3725 0.831417,-0.29211 0.402998,0.17866 -1.933068,2.12413 -3.330991,1.17628 -2.804698,-1.9017 z m 68.851552,0.64168 c 1.79735,-0.22256 4.49735,-0.21797 6,0.0102 1.50265,0.22818 0.0321,0.41027 -3.26791,0.40466 -3.3,-0.006 -4.52944,-0.1923 -2.73209,-0.41486 z M 45.5,190 c 0.995486,-1.1 2.034975,-2 2.309975,-2 0.275,0 -0.314489,0.9 -1.309975,2 -0.995486,1.1 -2.034975,2 -2.309975,2 -0.275,0 0.314489,-0.9 1.309975,-2 z m 106,-9 c 0.99549,-1.1 2.03498,-2 2.30998,-2 0.275,0 -0.31449,0.9 -1.30998,2 -0.99549,1.1 -2.03498,2 -2.30998,2 -0.275,0 0.31449,-0.9 1.30998,-2 z m -93.305051,-4.5 c 0.02038,-1.65 0.244498,-2.20394 0.498042,-1.23097 0.253543,0.97297 0.236869,2.32297 -0.03705,3 C 58.382014,178.94606 58.174569,178.15 58.194949,176.5 Z M 28.5,167 c 0.995486,-1.1 2.034975,-2 2.309975,-2 0.275,0 -0.314489,0.9 -1.309975,2 -0.995486,1.1 -2.034975,2 -2.309975,2 -0.275,0 0.314489,-0.9 1.309975,-2 z m 9.3125,-10.68311 c 0.721875,-0.28887 1.584375,-0.25335 1.916667,0.0789 0.332291,0.33229 -0.258334,0.56864 -1.3125,0.52522 -1.164943,-0.048 -1.4019,-0.28494 -0.604167,-0.60416 z M 156.34941,32 c 0,-4.675 0.17226,-6.5875 0.3828,-4.25 0.21053,2.3375 0.21053,6.1625 0,8.5 -0.21054,2.3375 -0.3828,0.425 -0.3828,-4.25 z M 88.077424,27.914905 c -7.176881,-0.92914 -10.186704,-2.873379 -8.183953,-5.286545 1.85376,-2.233645 7.95816,-2.895441 26.606529,-2.884493 18.74732,0.01101 25.5,1.130439 25.5,4.227289 0,2.264556 -1.29849,2.734862 -11.04164,3.999225 -8.78662,1.140235 -23.841194,1.114835 -32.880936,-0.05548 z M 122.5,26 c 1.66867,-0.424606 -5.8755,-0.757456 -17,-0.750044 C 94.393898,25.257356 87.056432,25.590897 89,26 c 4.622743,0.973044 29.67599,0.973044 33.5,0 z"
         id="path1412" />
      <path
         style="fill:#a3a3a3;fill-opacity:1"
         d="m 27.334811,205.25323 c -5.727781,-1.91136 -13.887434,-9.99277 -16.847459,-16.68591 -3.2769885,-7.40986 -2.9992246,-18.98772 0.605672,-25.24585 5.468166,-9.49279 14.500751,-15.87204 24.022654,-16.96596 4.547987,-0.5225 13.436167,1.07363 17.614591,3.1632 4.384689,2.19271 10.968695,9.52913 13.444832,14.98129 3.326214,7.32392 3.183447,17.1673 -0.355345,24.5 -3.564249,7.38546 -7.485891,11.46935 -14.327602,14.92038 -4.776956,2.40955 -6.874697,2.86682 -12.850519,2.8012 -3.927899,-0.0431 -9.01597,-0.70389 -11.306824,-1.46835 z m 18.58216,-9.83669 c 8.646261,-3.45954 14.470709,-14.54937 12.156063,-23.14531 -4.204376,-15.61386 -22.140482,-20.91565 -33.557365,-9.91932 -6.252435,6.02212 -8.087941,13.94843 -4.962621,21.43021 4.384643,10.49651 16.188809,15.7057 26.363923,11.63442 z M 36,193.45442 c 0,-1.66719 -1.309298,-3.25916 -4.467566,-5.4321 -7.782308,-5.35437 -8.699431,-15.03448 -1.983112,-20.93148 4.374872,-3.84119 7.586165,-4.66643 12.467575,-3.20392 11.636659,3.48642 12.901624,17.73342 2.395611,26.98118 C 38.738032,195.86297 36,196.70475 36,193.45442 Z M 91.8125,28.316886 c 0.721875,-0.288871 1.584375,-0.253344 1.916667,0.07895 0.332291,0.332292 -0.258334,0.568641 -1.3125,0.52522 -1.164943,-0.04798 -1.4019,-0.284941 -0.604167,-0.604167 z m 25,0 c 0.72187,-0.288871 1.58437,-0.253344 1.91667,0.07895 0.33229,0.332292 -0.25834,0.568641 -1.3125,0.52522 -1.16495,-0.04798 -1.4019,-0.284941 -0.60417,-0.604167 z M 89,26 c -1.943568,-0.409103 5.393898,-0.742644 16.5,-0.750044 11.1245,-0.0074 18.66867,0.325438 17,0.750044 -3.82401,0.973044 -28.877257,0.973044 -33.5,0 z m -9.747818,-3.508523 c 0.4137,-0.456046 0.004,-1.655951 -0.910536,-2.666456 -0.914495,-1.010506 -1.426433,-2.073567 -1.13764,-2.36236 0.288792,-0.288793 1.256032,0.5905 2.14942,1.953983 1.249759,1.907373 1.338648,2.643362 0.385459,3.191534 -0.681387,0.39186 -0.900403,0.339344 -0.486703,-0.116701 z M 65.872445,20.25 C 64.628574,18.663944 64.663944,18.628574 66.25,19.872445 67.915748,21.178814 68.445479,22 67.622445,22 c -0.207656,0 -0.995156,-0.7875 -1.75,-1.75 z m 9.051869,-1 L 72.5,16.5 l 2.75,2.424314 c 1.5125,1.333373 2.75,2.570873 2.75,2.75 0,0.784274 -0.809799,0.145975 -3.075686,-2.424314 z m 56.590586,0.468792 c 0.96581,-1.529665 2.00756,-2.529665 2.315,-2.222223 0.30745,0.307443 -0.48276,1.558987 -1.75601,2.781209 L 129.75889,22.5 Z M 134.5,20 c 0.99549,-1.1 2.03498,-2 2.30998,-2 0.275,0 -0.31449,0.9 -1.30998,2 -0.99549,1.1 -2.03498,2 -2.30998,2 -0.275,0 0.31449,-0.9 1.30998,-2 z m 8.5,1.622445 c 0,-0.207656 0.7875,-0.995156 1.75,-1.75 1.58606,-1.243871 1.62143,-1.208501 0.37756,0.377555 C 143.82119,21.915748 143,22.445479 143,21.622445 Z M 71.458881,19.933469 c -0.362533,-0.586592 -0.444683,-1.281 -0.182555,-1.543128 0.262128,-0.262129 0.743066,0.21781 1.068751,1.066531 0.676184,1.762107 0.09985,2.072058 -0.886196,0.476597 z M 81.5,19 c -0.995486,-1.1 -1.390239,-2 -0.877228,-2 0.51301,0 1.70335,0.9 2.6452,2 0.941849,1.1 1.336602,2 0.877228,2 -0.459374,0 -1.649714,-0.9 -2.6452,-2 z m 46.5,0 c 1.1,-1.1 2.29474,-2 2.65499,-2 0.36024,0 -0.1595,0.9 -1.15499,2 -0.99549,1.1 -2.19023,2 -2.65499,2 -0.46475,0 0.055,-0.9 1.15499,-2 z m 10,1.622445 c 0,-0.207656 0.7875,-0.995156 1.75,-1.75 1.58606,-1.243871 1.62143,-1.208501 0.37756,0.377555 C 138.82119,20.915748 138,21.445479 138,20.622445 Z M 85.2,18.8 C 83.788821,17.388821 83.63177,16 84.883369,16 c 0.485852,0 1.118724,0.9 1.40638,2 0.610422,2.334258 0.514746,2.404495 -1.089749,0.8 z m 3.496917,-0.193128 c -0.409197,-1.041221 -0.508402,-2.128721 -0.220456,-2.416667 0.91206,-0.91206 1.714561,0.582564 1.332392,2.481526 -0.350243,1.740325 -0.403729,1.737205 -1.111936,-0.06486 z M 121.01531,18.25 C 121.00689,17.0125 121.45,16 122,16 c 1.25292,0 1.25292,1.061241 0,3 -0.78387,1.212959 -0.9723,1.069438 -0.98469,-0.75 z m 3.62306,0.25 c 0.31659,-0.825 1.03256,-1.5 1.59106,-1.5 0.58531,0 0.48812,0.635407 -0.22943,1.5 -0.68469,0.825 -1.40067,1.5 -1.59106,1.5 -0.19039,0 -0.0872,-0.675 0.22943,-1.5 z M 92.666667,18.333333 C 91.71097,17.377636 91.844607,16 92.893011,16 c 0.491156,0 1.152033,0.675 1.468615,1.5 0.58492,1.524276 -0.480299,2.047994 -1.694959,0.833333 z m 4,0 C 95.71097,17.377636 95.844607,16 96.893011,16 c 0.491156,0 1.152033,0.675 1.468615,1.5 0.58492,1.524276 -0.480299,2.047994 -1.694959,0.833333 z M 100.33333,17.5 c 0,-0.825 0.32686,-1.5 0.72635,-1.5 0.39949,0 0.98536,0.675 1.30195,1.5 0.33001,0.859994 0.0201,1.5 -0.72635,1.5 -0.71607,0 -1.30195,-0.675 -1.30195,-1.5 z m 4.30504,0 c 0.31659,-0.825 0.97746,-1.5 1.46862,-1.5 0.49115,0 0.89301,0.675 0.89301,1.5 0,0.825 -0.66088,1.5 -1.46862,1.5 -0.89459,0 -1.24363,-0.586289 -0.89301,-1.5 z m 4,0 c 0.31659,-0.825 0.97746,-1.5 1.46862,-1.5 0.49115,0 0.89301,0.675 0.89301,1.5 0,0.825 -0.66088,1.5 -1.46862,1.5 -0.89459,0 -1.24363,-0.586289 -0.89301,-1.5 z M 113,17.5 c 0,-0.825 0.45,-1.5 1,-1.5 0.55,0 1,0.675 1,1.5 0,0.825 -0.45,1.5 -1,1.5 -0.55,0 -1,-0.675 -1,-1.5 z m 4,0.05902 C 117,16.701558 117.45,16 118,16 c 0.55,0 1,0.423442 1,0.940983 0,0.517541 -0.45,1.219098 -1,1.559017 -0.55,0.339919 -1,-0.08352 -1,-0.940983 z"
         id="path1410" />
      <path
         style="fill:#8c8c8c;fill-opacity:1"
         d="m 155.43674,143 c 0,-14.575 0.1398,-20.5375 0.31066,-13.25 0.17086,7.2875 0.17086,19.2125 0,26.5 -0.17086,7.2875 -0.31066,1.325 -0.31066,-13.25 z M 55.413177,133.5 c 0.001,-9.9 0.150701,-13.81474 0.33256,-8.69942 0.181859,5.11532 0.181001,13.21532 -0.0019,18 -0.182915,4.78468 -0.331708,0.59942 -0.33066,-9.30058 z m 10.893,-106.143555 c -0.656603,-0.267113 -0.91763,-1.205407 -0.580061,-2.085098 0.407713,-1.062484 0.220997,-1.356695 -0.556177,-0.876375 C 64.526472,24.792656 64,24.641476 64,24.059017 64,23.476558 63.464226,23.1125 62.80939,23.25 62.154555,23.3875 61.427254,22.6 61.193167,21.5 60.773756,19.529145 60.798392,19.52776 62.883777,21.404988 64.273484,22.655978 65,22.871423 65,22.032543 c 0,-0.926366 0.352745,-0.98468 1.283538,-0.21219 0.813677,0.675291 1.820364,0.72572 2.75,0.137757 2.009995,-1.27125 3.834735,-1.179477 1.966462,0.0989 -1.333333,0.912342 -1.333333,1.008587 0,0.866204 3.072778,-0.328132 4.113404,0.0843 3.347693,1.326785 -0.423688,0.6875 0.449755,0.452126 1.940983,-0.523053 C 77.779904,22.751768 79,22.425406 79,23.001698 c 0,1.556264 -5.180029,3.325044 -5.974246,2.039974 -0.3521,-0.569711 -2.017563,-1.19621 -3.701029,-1.39222 -2.61639,-0.304633 -2.987056,-0.07421 -2.552673,1.586876 0.368549,1.409333 1.148255,1.820898 2.837798,1.497922 1.281294,-0.244935 2.091686,-0.06034 1.800871,0.410207 -0.562313,0.909841 -3.127276,1.016362 -5.104544,0.211988 z M 140.5,27 c 1.90435,-0.484574 2.28783,-0.806581 1.05,-0.881685 -1.49475,-0.09069 -1.6754,-0.392913 -0.77379,-1.294521 0.9016,-0.901609 0.88993,-1.523483 -0.05,-2.66372 -1.0422,-1.264294 -0.92609,-1.346587 0.77379,-0.548391 2.72252,1.27839 4.91469,1.118972 6.86446,-0.499199 C 149.52303,20.150962 150,20.099661 150,20.936572 c 0,0.649804 0.51953,0.860376 1.15451,0.467936 0.6991,-0.432067 0.8837,-0.275344 0.46797,0.39731 -0.37759,0.610959 -1.42094,0.829015 -2.31855,0.484569 -1.17857,-0.452261 -1.40459,-0.258275 -0.81347,0.698183 0.54464,0.881236 0.43221,1.085674 -0.33595,0.610922 C 147.51953,23.203052 147,23.328724 147,23.874762 c 0,0.546038 -1.2375,0.794735 -2.75,0.552659 -2.50738,-0.401306 -2.59301,-0.317671 -0.97061,0.947954 1.5994,1.247679 1.61641,1.450632 0.16821,2.006358 -0.88615,0.340047 -2.58687,0.565025 -3.77939,0.499952 C 138.00943,27.791169 138.20487,27.584012 140.5,27 Z m -4.26448,-2 c 0.14546,-0.825 0.63971,-1.774876 1.09833,-2.110837 0.45861,-0.33596 0.0977,-0.893305 -0.80194,-1.238545 -0.95604,-0.366867 -1.38191,-0.216922 -1.02483,0.360836 0.33602,0.5437 0.1344,0.988546 -0.44806,0.988546 -1.52564,0 -1.30236,-1.553158 0.42997,-2.990862 0.81894,-0.679663 1.24239,-1.634764 0.94098,-2.122445 C 136.12857,17.399012 136.35852,17 136.94098,17 137.52344,17 138,17.476558 138,18.059017 c 0,0.582459 0.5625,0.721078 1.25,0.308042 0.84936,-0.510277 0.81011,-0.208678 -0.12244,0.940983 -1.14884,1.416287 -1.15421,1.977086 -0.033,3.441958 0.73671,0.9625 0.9488,1.419495 0.47132,1.015544 -0.47749,-0.403952 -1.48167,0.04605 -2.23152,1 -1.05385,1.340703 -1.30332,1.393928 -1.09887,0.234456 z M 132,23.377555 c 0,-1.32879 0.27149,-1.397126 1.5,-0.377555 0.825,0.684689 1.5,1.414789 1.5,1.622445 C 135,24.8301 134.325,25 133.5,25 132.675,25 132,24.2699 132,23.377555 Z M 73.507143,21.364286 c -1.766498,-1.766498 -0.851757,-3.549664 2.038542,-3.97387 1.19657,-0.175619 1.30544,0.08404 0.461564,1.100849 -0.762904,0.919244 -0.78016,1.53105 -0.05581,1.978724 C 77.249137,21.272009 77.331088,23 76.071429,23 75.560714,23 74.406786,22.263929 73.507143,21.364286 Z m 1.623978,-0.706295 c -0.612573,-0.738105 -0.780173,-1.710252 -0.372445,-2.160326 0.407728,-0.450073 0.156973,-0.481107 -0.557234,-0.06896 -1.000477,0.577341 -1.029757,1.073239 -0.127556,2.160326 C 74.717938,21.365062 75.469889,22 75.744889,22 c 0.275,0 -0.0012,-0.603904 -0.613768,-1.342009 z m 4.43744,-0.547058 C 79.326901,19.71992 80.210114,19.4 81.531256,19.4 c 1.321143,0 2.179052,0.223025 1.906466,0.495611 -0.828604,0.828605 -3.401635,0.971796 -3.869161,0.215322 z M 127.4877,19.980104 c -0.28613,-0.46297 -1.63791,-0.639089 -3.00397,-0.391376 C 123.11768,19.83644 122,19.661998 122,19.201079 c 0,-0.711689 6.50132,-0.865943 8,-0.189813 0.275,0.124067 0.95,0.134787 1.5,0.02382 0.55,-0.110965 0.64948,0.14877 0.22106,0.57719 -1.13006,1.130055 -3.62813,1.347107 -4.23336,0.367826 z M 85.57185,19.094817 C 86.454908,18.211759 89,18.160917 89,19.026335 c 0,0.467152 -0.880692,0.783027 -1.957094,0.701944 -1.076402,-0.08108 -1.738377,-0.366141 -1.471056,-0.633462 z M 66,18 c -0.825,-0.533156 -1.05,-0.969374 -0.5,-0.969374 0.55,0 1.675,0.436218 2.5,0.969374 0.825,0.533156 1.05,0.969374 0.5,0.969374 -0.55,0 -1.675,-0.436218 -2.5,-0.969374 z m 35.70541,-1.031085 C 100.7782,15.886012 100.47929,15 101.04117,15 c 0.56188,0 1.2857,0.688226 1.60848,1.52939 0.50693,1.321029 0.76399,1.287184 1.88686,-0.248428 0.71498,-0.977799 1.50371,-1.553525 1.75272,-1.27939 0.24901,0.274136 -0.30117,1.27194 -1.22262,2.217343 -1.5829,1.624048 -1.7684,1.61025 -3.3612,-0.25 z M 78.5,16 C 77.18126,15.433318 77.010945,15.121845 78,15.085598 78.825,15.055363 80.175,15.466844 81,16 c 1.827966,1.181322 0.249085,1.181322 -2.5,0 z m 47.3125,0.316886 c 0.72187,-0.288871 1.58438,-0.253344 1.91667,0.07895 0.33229,0.332292 -0.25834,0.568641 -1.3125,0.52522 -1.16495,-0.04798 -1.4019,-0.284941 -0.60417,-0.604167 z m 14,0 c 0.72187,-0.288871 1.58437,-0.253344 1.91667,0.07895 0.33229,0.332292 -0.25834,0.568641 -1.3125,0.52522 -1.16495,-0.04798 -1.4019,-0.284941 -0.60417,-0.604167 z m -7,-1 c 0.72187,-0.288871 1.58437,-0.253344 1.91667,0.07895 0.33229,0.332292 -0.25834,0.568641 -1.3125,0.52522 -1.16495,-0.04798 -1.4019,-0.284941 -0.60417,-0.604167 z M 89.25,14.310674 c 0.9625,-0.251527 2.5375,-0.251527 3.5,0 0.9625,0.251528 0.175,0.457323 -1.75,0.457323 -1.925,0 -2.7125,-0.205795 -1.75,-0.457323 z m 29,0 c 0.9625,-0.251527 2.5375,-0.251527 3.5,0 0.9625,0.251528 0.175,0.457323 -1.75,0.457323 -1.925,0 -2.7125,-0.205795 -1.75,-0.457323 z"
         id="path1408" />
      <path
         style="fill:#767676;fill-opacity:1"
         d="m 95.8125,193.31689 c 0.721875,-0.28887 1.584375,-0.25335 1.916667,0.0789 0.332291,0.33229 -0.258334,0.56864 -1.3125,0.52522 -1.164943,-0.048 -1.4019,-0.28494 -0.604167,-0.60416 z m 18,0 c 0.72187,-0.28887 1.58437,-0.25335 1.91667,0.0789 0.33229,0.33229 -0.25834,0.56864 -1.3125,0.52522 -1.16495,-0.048 -1.4019,-0.28494 -0.60417,-0.60416 z M 101.43961,160.5 c 5e-4,-15.4 0.13932,-21.56027 0.30848,-13.6895 0.16916,7.87078 0.16875,20.47078 -9.2e-4,28 -0.16966,7.52923 -0.30807,1.0895 -0.30756,-14.3105 z m 4,0 c 5e-4,-15.4 0.13932,-21.56027 0.30848,-13.6895 0.16916,7.87078 0.16875,20.47078 -9.2e-4,28 -0.16966,7.52923 -0.30807,1.0895 -0.30756,-14.3105 z m 5,0 c 5e-4,-15.4 0.13932,-21.56027 0.30848,-13.6895 0.16916,7.87078 0.16875,20.47078 -9.2e-4,28 -0.16966,7.52923 -0.30807,1.0895 -0.30756,-14.3105 z m -19.000002,-1 c 5.03e-4,-15.4 0.139319,-21.56027 0.308479,-13.6895 0.169161,7.87078 0.168748,20.47078 -9.16e-4,28 -0.169664,7.52923 -0.308067,1.0895 -0.307563,-14.3105 z m 4.999084,0.5 c 0,-15.125 0.138993,-21.3125 0.308873,-13.75 0.169881,7.5625 0.169881,19.9375 0,27.5 -0.16988,7.5625 -0.308873,1.375 -0.308873,-13.75 z m 23.000918,-0.5 c 5e-4,-15.4 0.13932,-21.56027 0.30848,-13.6895 0.16916,7.87078 0.16875,20.47078 -9.2e-4,28 -0.16966,7.52923 -0.30807,1.0895 -0.30756,-14.3105 z M 151.5,180 c 0.99549,-1.1 2.03498,-2 2.30998,-2 0.275,0 -0.31449,0.9 -1.30998,2 -0.99549,1.1 -2.03498,2 -2.30998,2 -0.275,0 0.31449,-0.9 1.30998,-2 z m 3.69495,-8.5 c 0.0204,-1.65 0.2445,-2.20394 0.49804,-1.23097 0.25354,0.97297 0.23687,2.32297 -0.0371,3 -0.27393,0.67703 -0.48137,-0.11903 -0.46099,-1.76903 z M 55.438692,89 c 0,-15.125 0.138993,-21.3125 0.308873,-13.75 0.169881,7.5625 0.169881,19.9375 0,27.5 -0.16988,7.5625 -0.308873,1.375 -0.308873,-13.75 z m 33.83034,-56.692991 c 0.972967,-0.253543 2.322967,-0.236869 3,0.03705 C 92.946064,32.617986 92.15,32.825431 90.5,32.805051 88.85,32.784672 88.296064,32.560553 89.269032,32.307009 Z m 29.980968,0.0037 c 0.9625,-0.251527 2.5375,-0.251527 3.5,0 0.9625,0.251528 0.175,0.457323 -1.75,0.457323 -1.925,0 -2.7125,-0.205795 -1.75,-0.457323 z M 74.675551,29.26192 c -3.99447,-0.312626 -4.625039,-0.617856 -3.665337,-1.774227 0.971351,-1.170406 0.662546,-1.25423 -1.906362,-0.517477 C 67.25227,27.501242 64.622931,27.458558 62.46391,26.862424 58.864341,25.868535 56.857672,23.352788 58.704339,22.149075 59.252014,21.792084 59.95706,20.825 60.271109,20 c 0.388597,-1.020839 0.596215,-0.800111 0.649944,0.690983 0.09307,2.583002 1.633786,3.838319 2.664357,2.17082 0.494869,-0.800714 0.279631,-0.903245 -0.680902,-0.324353 -1.19619,0.720918 -1.200946,0.595514 -0.03206,-0.845492 C 63.990053,20.314164 63.999337,20 62.922445,20 c -1.053208,0 -1.069659,-0.252786 -0.0808,-1.241641 0.792776,-0.792776 1.497719,-0.883153 1.95,-0.25 0.389597,0.545403 1.833359,1.017022 3.208359,1.048043 1.387654,0.03131 2.388765,0.587479 2.25,1.25 C 70.1125,21.462881 70.525,22 71.166667,22 c 0.641666,0 0.905207,0.261459 0.585646,0.58102 -0.319561,0.319561 -1.444561,0.118868 -2.5,-0.445986 -1.441818,-0.771638 -1.91898,-0.698539 -1.91898,0.29398 0,0.734765 1.085947,1.320986 2.447062,1.320986 1.345885,0 2.77072,0.523689 3.166302,1.163754 0.511867,0.828217 1.472891,0.877217 3.33315,0.169948 2.26543,-0.861315 2.705619,-0.699835 3.301812,1.211246 0.378347,1.212778 1.189752,2.535661 1.803122,2.939739 C 82.09875,29.705038 81.960308,29.910032 81,29.804439 80.175,29.713724 77.328998,29.469591 74.675551,29.26192 Z m -7.982853,-5.634972 c -0.200504,-3.545237 -2.162559,-4.014617 -2.421338,-0.579253 -0.0927,1.230672 0.274906,1.732728 0.9591,1.309873 0.7181,-0.443811 0.884185,-0.09871 0.470864,0.978387 C 65.350119,26.25118 65.472426,27 65.973117,27 c 0.500692,0 0.824503,-1.517873 0.719581,-3.373052 z m 63.886502,5.27915 c 0.48959,-0.773354 0.89707,-1.810747 0.90549,-2.305317 0.008,-0.49457 0.87995,-1.20252 1.93674,-1.573221 1.84421,-0.646915 1.83329,-0.735739 -0.27183,-2.21022 -1.98977,-1.393695 -2.04382,-1.66024 -0.58253,-2.873003 1.3886,-1.152437 1.56399,-1.0827 1.27183,0.505696 -0.1864,1.013364 0.28624,2.060044 1.0503,2.325955 0.92882,0.323254 1.12616,0.05788 0.59549,-0.800765 -0.53059,-0.858513 -0.39666,-1.038851 0.40402,-0.544005 0.68317,0.422222 2.71101,-0.414005 4.72019,-1.946479 1.93735,-1.477693 3.7929,-2.416269 4.12345,-2.085726 0.33054,0.330543 0.0901,0.600987 -0.5343,0.600987 -0.6244,0 -0.8688,0.694427 -0.54311,1.543172 0.53374,1.390895 0.76043,1.390895 2.29736,0 C 146.89015,18.694427 147.95955,18 148.32874,18 c 1.04441,0 0.78924,2.809049 -0.31729,3.492921 -0.5437,0.336025 -0.84245,0.02508 -0.66389,-0.690983 0.17856,-0.716066 0.13418,-0.959281 -0.0986,-0.540479 -0.23279,0.418803 -1.33834,1.251198 -2.45678,1.849768 -1.46569,0.784414 -1.84571,0.784413 -1.36091,-4e-6 0.43312,-0.700804 0.0616,-0.853851 -1.04337,-0.42983 -1.25638,0.482119 -1.49674,0.30375 -0.89743,-0.665963 0.55643,-0.900314 0.43329,-1.086342 -0.38451,-0.580911 -0.83447,0.515729 -0.8891,1.121849 -0.1783,1.978302 0.70766,0.852683 0.6608,1.598729 -0.15144,2.410973 C 139.8746,25.725402 140.01066,26 141.35902,26 c 0.96746,0 1.47142,-0.465335 1.11992,-1.034078 -0.40121,-0.649167 0.32128,-0.85993 1.94098,-0.566221 1.41904,0.257322 2.58008,0.0211 2.58008,-0.524939 0,-0.546038 0.51953,-0.67171 1.15451,-0.27927 0.75692,0.467803 0.88117,0.271261 0.3608,-0.570715 -0.53088,-0.85899 -0.3337,-1.123261 0.59549,-0.79809 0.76406,0.267383 2.38577,0.117957 3.6038,-0.332058 1.39571,-0.515661 2.4697,-0.405437 2.90451,0.29809 0.40783,0.659889 0.23839,0.837244 -0.41443,0.433781 -0.60738,-0.375384 -1.56741,0.182755 -2.1334,1.240308 -1.20552,2.252542 -6.73502,4.486283 -7.60819,3.073467 C 145.14347,26.423124 144.43197,26 143.88197,26 c -0.55,0 -0.77221,0.368575 -0.4938,0.819056 0.27841,0.450481 -0.93253,0.686478 -2.69098,0.52444 -2.94256,-0.271153 -2.99809,-0.224861 -0.69719,0.581264 2.44006,0.85488 2.42508,0.87827 -0.625,0.97556 -1.71875,0.05482 -4.60122,0.394924 -6.40549,0.755778 -2.66924,0.533847 -3.11462,0.3941 -2.39031,-0.75 z m 8.93,-5.140554 c 0.4463,0.403951 0.49989,0.191609 0.1191,-0.47187 -0.92505,-1.611782 -3.29497,-0.618012 -3.29497,1.381671 0,1.436871 0.11337,1.434235 1.18221,-0.02749 0.65022,-0.889223 1.54737,-1.286264 1.99366,-0.882311 z m -84.430253,0.651123 c 0.04798,-1.164943 0.284941,-1.4019 0.604167,-0.604167 0.288871,0.721875 0.253344,1.584375 -0.07895,1.916667 -0.332292,0.332291 -0.568641,-0.258334 -0.52522,-1.3125 z m 19.306606,-0.231489 c 0.3448,-0.557897 0.08436,-1.195208 -0.578761,-1.416247 -0.747768,-0.249256 -0.540514,-0.657134 0.545707,-1.073956 1.047187,-0.401843 1.505725,-0.274594 1.140422,0.316479 C 75.156896,22.555154 75.283524,23 75.774316,23 c 1.735192,0 2.192686,-1.33496 0.967008,-2.821711 -1.088571,-1.320439 -0.947822,-1.349298 1.143776,-0.234522 2.498263,1.33152 2.383149,1.545313 -2.255777,4.189488 -1.179525,0.672326 -1.639056,0.69151 -1.24377,0.05192 z m 75.693397,-3.768511 c 0.048,-1.164943 0.28494,-1.4019 0.60416,-0.604167 0.28887,0.721875 0.25335,1.584375 -0.0789,1.916667 -0.3323,0.332291 -0.56864,-0.258334 -0.52522,-1.3125 z M 71,17 c 0.825,-0.533156 2.175,-0.969374 3,-0.969374 1.333333,0 1.333333,0.107708 0,0.969374 -0.825,0.533156 -2.175,0.969374 -3,0.969374 -1.333333,0 -1.333333,-0.107708 0,-0.969374 z m 11.501863,-0.003 c 0.604098,-0.977451 0.260633,-1.168139 -1.346871,-0.747767 -1.186764,0.310345 -1.905573,0.156231 -1.597355,-0.342477 C 80.298783,14.707542 84,14.736071 84,15.940983 c 0,0.517541 -0.519529,1.262069 -1.154508,1.654509 -0.764768,0.472652 -0.88077,0.270606 -0.343629,-0.598507 z m 32.768327,-0.126793 c -1.56234,-1.562339 -6.26668,-1.960613 -6.2855,-0.532136 -0.0106,0.800876 -0.24362,0.829026 -0.75,0.09059 -1.00571,-1.46657 -9.23044,-1.529239 -9.250003,-0.07048 -0.0098,0.727688 -0.281785,0.779132 -0.75,0.141834 -1.008573,-1.372793 -4.614825,-1.924094 -3.783101,-0.578336 0.403753,0.653286 0.02902,0.816256 -0.983494,0.427718 C 89.803713,14.943228 94.863933,14.032639 106,14.09426 c 6.325,0.035 10.91872,0.296869 10.20826,0.581933 -0.99192,0.398002 -1.02153,0.843878 -0.12755,1.921053 1.39089,1.67592 0.7936,1.877061 -0.81052,0.272946 z M 128,16 c -1.1647,-0.752686 -0.87209,-0.972797 1.30902,-0.984687 1.62108,-0.0088 2.54765,0.407586 2.19098,0.984687 -0.76737,1.241631 -1.57871,1.241631 -3.5,0 z"
         id="path1406" />
      <path
         style="fill:#606060;fill-opacity:1"
         d="m 98.75,193.33772 c 0.6875,-0.27741 1.8125,-0.27741 2.5,0 0.6875,0.27741 0.125,0.50439 -1.25,0.50439 -1.375,0 -1.9375,-0.22698 -1.25,-0.50439 z m 12.0625,-0.0208 c 0.72187,-0.28887 1.58437,-0.25335 1.91667,0.0789 0.33229,0.33229 -0.25834,0.56864 -1.3125,0.52522 -1.16495,-0.048 -1.4019,-0.28494 -0.60417,-0.60416 z M 95,160 c 0,-15.4 0.3375,-28 0.75,-28 0.4125,0 0.75,12.6 0.75,28 0,15.4 -0.3375,28 -0.75,28 C 95.3375,188 95,175.4 95,160 Z m 5.20929,0.25 c -0.11511,-15.5375 0.12821,-28.25052 0.54071,-28.25115 0.4125,-6.3e-4 0.63495,8.43687 0.49434,18.75 -0.47312,34.70127 -0.82446,37.92638 -1.03505,9.50115 z m 6.23032,0.25 c 5e-4,-15.4 0.13932,-21.56027 0.30848,-13.6895 0.16916,7.87078 0.16875,20.47078 -9.2e-4,28 -0.16966,7.52923 -0.30807,1.0895 -0.30756,-14.3105 z m 4.55927,-0.20125 c -0.27438,-15.51069 -0.154,-27.85581 0.26753,-27.4336 0.42152,0.42222 0.64602,13.11278 0.49888,28.20126 L 111.49776,188.5 Z m 3.5076,26.57873 c -0.89356,-2.32857 -0.0756,-54.39771 0.85023,-54.12687 0.83989,0.2457 0.95449,54.27152 0.11691,55.10911 -0.2346,0.23459 -0.66981,-0.20742 -0.96714,-0.98224 z M 86.990485,181.75 c -0.0052,-2.8875 -0.298457,-15.19378 -0.651606,-27.34729 C 85.868089,138.20066 86.00402,132.11555 86.848394,131.5937 87.706751,131.0632 88,138.02702 88,158.94098 88,174.37344 87.775,187 87.5,187 c -0.275,0 -0.504282,-2.3625 -0.509515,-5.25 z M 83,178 c 0,-4.66667 -0.416667,-8 -1,-8 -0.632479,0 -1,-7.16667 -1,-19.5 0,-16.66667 0.217949,-19.5 1.5,-19.5 1.29697,0 1.5,3.72222 1.5,27.5 0,15.125 -0.225,27.5 -0.5,27.5 -0.275,0 -0.5,-3.6 -0.5,-8 z m 40.23393,-19.1671 c 0.21849,-22.30926 0.51803,-27.25102 1.67512,-27.63636 1.19114,-0.39667 1.30888,2.06498 0.7613,15.91711 -0.35626,9.01249 -0.65283,21.44885 -0.65905,27.63635 -0.007,6.94455 -0.40016,11.25 -1.02737,11.25 -0.66969,0 -0.92537,-9.26131 -0.75,-27.1671 z m 3.96731,-0.0829 C 127.02655,134.66056 127.19787,131 128.5,131 c 1.28014,0 1.5,2.75556 1.5,18.8 0,10.58876 -0.41646,19.21646 -0.9535,19.7535 -0.52442,0.52442 -1.10886,4.55192 -1.29875,8.95 -0.1899,4.39807 -0.43582,-4.491 -0.54651,-19.7535 z M 73.440524,157 c 0,-15.675 0.138237,-22.0875 0.307194,-14.25 0.168958,7.8375 0.168958,20.6625 0,28.5 -0.168957,7.8375 -0.307194,1.425 -0.307194,-14.25 z m 63.999996,0 c 0,-15.675 0.13824,-22.0875 0.3072,-14.25 0.16896,7.8375 0.16896,20.6625 0,28.5 -0.16896,7.8375 -0.3072,1.425 -0.3072,-14.25 z m 7,-3 c 0,-15.675 0.13824,-22.0875 0.3072,-14.25 0.16896,7.8375 0.16896,20.6625 0,28.5 -0.16896,7.8375 -0.3072,1.425 -0.3072,-14.25 z m 2.54797,26.75 c -0.006,-0.6875 -0.30208,-13.5125 -0.65722,-28.5 C 145.8493,131.90995 145.97901,125 146.84278,125 147.692,125 148,132.58539 148,153.5 c 0,15.675 -0.225,28.5 -0.5,28.5 -0.275,0 -0.50518,-0.5625 -0.51151,-1.25 z M 132.625,177.875 C 132.28125,176.15625 132,164.68125 132,152.375 132,132.98608 132.2036,130 133.52557,130 c 1.32978,0 1.51461,3.27268 1.44012,25.5 -0.079,23.57139 -0.77354,30.21074 -2.34069,22.375 z m 7.76354,-9.375 c 0.002,-7.15 0.16103,-9.94379 0.35396,-6.20841 0.19293,3.73537 0.19149,9.58537 -0.003,13 -0.19468,3.41462 -0.35253,0.35841 -0.35078,-6.79159 z m 2.05015,-14.5 c 0,-15.125 0.13899,-21.3125 0.30888,-13.75 0.16988,7.5625 0.16988,19.9375 0,27.5 -0.16989,7.5625 -0.30888,1.375 -0.30888,-13.75 z m -65.444684,9.25 c -0.0033,-9.2125 -0.294994,-20.4625 -0.648217,-25 -0.569065,-7.3102 -0.451111,-8.25 1.035458,-8.25 1.527994,0 1.669353,2.23058 1.584329,25 -0.05525,14.79602 -0.475436,25 -1.029465,25 -0.543985,0 -0.938622,-7.01639 -0.942105,-16.75 z M 149.44052,152 c 0,-15.675 0.13824,-22.0875 0.3072,-14.25 0.16896,7.8375 0.16896,20.6625 0,28.5 -0.16896,7.8375 -0.3072,1.425 -0.3072,-14.25 z m 2,-2 c 0,-15.675 0.13824,-22.0875 0.3072,-14.25 0.16896,7.8375 0.16896,20.6625 0,28.5 -0.16896,7.8375 -0.3072,1.425 -0.3072,-14.25 z m 2.20746,20.75 c -1.04749,-8.72081 -0.76009,-50.56268 0.35202,-51.25 0.65775,-0.40651 1,9.15628 1,27.94098 C 155,163.14844 154.83768,176 154.63929,176 c -0.19839,0 -0.64448,-2.3625 -0.99131,-5.25 z M 120,148.16667 C 120,138.24177 120.37953,132 120.98302,132 c 0.90551,0 0.30434,30.84748 -0.62202,31.91667 -0.19855,0.22916 -0.361,-6.85834 -0.361,-15.75 z M 66.416832,144.5 c 9.61e-4,-10.45 0.149144,-14.58913 0.329296,-9.19806 0.180152,5.39107 0.179366,13.94107 -0.0017,19 -0.181113,5.05893 -0.32851,0.64806 -0.327549,-9.80194 z m -2.715747,14.16342 C 62.658009,155.94521 62.893183,125 63.956917,125 64.641291,125 65,131.01812 65,142.5 c 0,9.625 -0.176855,17.5 -0.393011,17.5 -0.216156,0 -0.623813,-0.60146 -0.905904,-1.33658 z M 61.409181,139.5 c -0.0011,-9.35 0.149156,-13.3096 0.334013,-8.7991 0.184857,4.51049 0.185798,12.16049 0.0021,17 -0.183707,4.8395 -0.334954,1.1491 -0.336103,-8.2009 z m -2.00209,-1.5 c 0,-9.075 0.151603,-12.7875 0.336897,-8.25 0.185293,4.5375 0.185293,11.9625 0,16.5 -0.185294,4.5375 -0.336897,0.825 -0.336897,-8.25 z M 56.75,151.41866 C 56.3375,151.00506 56,143.45167 56,134.63333 c 0,-10.96255 0.324575,-15.70876 1.026275,-15.00705 0.639338,0.63933 0.922111,6.96792 0.75,16.78532 C 57.624324,145.07908 57.1625,151.83226 56.75,151.41866 Z M 140.38176,139.5 c 0.002,-6.6 0.16382,-9.16987 0.35965,-5.71081 0.19583,3.45905 0.19422,8.85905 -0.004,12 -0.19781,3.14094 -0.35803,0.31081 -0.35606,-6.28919 z m -50.03895,0 c 0.0036,-4.4 0.179441,-6.07561 0.390687,-3.72357 0.211245,2.35204 0.208273,5.95204 -0.0066,8 C 90.512015,145.82439 90.339178,143.9 90.34281,139.5 Z m -21.977579,-3 c 0.0026,-5.5 0.170532,-7.62242 0.373173,-4.71648 0.202642,2.90594 0.200512,7.40594 -0.0047,10 C 68.528425,144.37758 68.362627,142 68.365231,136.5 Z m 87.094089,-64 c 2.3e-4,-24.2 0.13067,-33.956913 0.28986,-21.682029 0.1592,12.274884 0.15901,32.074884 -4.1e-4,44 C 155.58934,106.74309 155.45909,96.7 155.45932,72.5 Z M 55.19586,44.309017 C 55.088137,34.303976 55.3375,25.908256 55.75,25.651861 c 0.4125,-0.256394 0.632384,5.004548 0.488632,11.690983 -0.490116,22.796987 -0.846676,25.178966 -1.042772,6.966173 z m 43.199287,13.973705 c 1.522724,-0.389912 1.620983,-0.658879 0.5,-1.368686 C 97.778858,56.207199 97.849784,56.027565 99.25,56.015313 100.2125,56.006891 101,56.675 101,57.5 c 0,0.92326 -0.86511,1.455398 -2.25,1.383999 -1.906622,-0.0983 -1.960777,-0.190061 -0.354853,-0.601277 z m 4.664133,-1.064343 c -1.03518,-1.108172 -0.9287,-1.295617 0.58839,-1.035714 1.01878,0.174534 2.18294,0.767335 2.58702,1.317335 0.48357,0.658203 0.73992,0.64549 0.75,-0.0372 0.008,-0.570457 0.91531,-1.10499 2.01531,-1.187851 1.1,-0.08286 2,0.399949 2,1.07291 0,1.677139 -6.3498,1.573597 -7.94072,-0.129484 z m 9.22544,0.427454 C 112.82958,56.011275 115,55.69487 115,57.25 c 0,0.779167 -0.6875,1.416667 -1.52778,1.416667 -0.84028,0 -1.37465,-0.459375 -1.1875,-1.020834 z M 84.75,32.337719 c 0.6875,-0.277412 1.8125,-0.277412 2.5,0 0.6875,0.277413 0.125,0.504386 -1.25,0.504386 -1.375,0 -1.9375,-0.226973 -1.25,-0.504386 z m 14.541588,-0.08022 c 3.735372,-0.192928 9.585372,-0.191497 13.000002,0.0032 3.41462,0.194677 0.35841,0.352527 -6.79159,0.350778 -7.15,-0.0017 -9.943785,-0.161031 -6.208412,-0.353958 z M 124.75,32.337719 c 0.6875,-0.277412 1.8125,-0.277412 2.5,0 0.6875,0.277413 0.125,0.504386 -1.25,0.504386 -1.375,0 -1.9375,-0.226973 -1.25,-0.504386 z M 73,31 c -1.827966,-1.181322 -0.249085,-1.181322 2.5,0 1.31874,0.566682 1.489055,0.878155 0.5,0.914402 C 75.175,31.944637 73.825,31.533156 73,31 Z m 6.8125,0.316886 c 0.721875,-0.288871 1.584375,-0.253344 1.916667,0.07895 0.332291,0.332292 -0.258334,0.568641 -1.3125,0.52522 -1.164943,-0.04798 -1.4019,-0.284941 -0.604167,-0.604167 z m 51,0 c 0.72187,-0.288871 1.58437,-0.253344 1.91667,0.07895 0.33229,0.332292 -0.25834,0.568641 -1.3125,0.52522 -1.16495,-0.04798 -1.4019,-0.284941 -0.60417,-0.604167 z M 136.5,31 c 2.74909,-1.181322 4.32797,-1.181322 2.5,0 -0.825,0.533156 -2.175,0.944637 -3,0.914402 -0.98906,-0.03625 -0.81874,-0.34772 0.5,-0.914402 z M 67.542705,30.069098 c -0.664972,-1.075947 1.292282,-2.567445 2.190493,-1.669234 0.330074,0.330075 -0.03737,0.607027 -0.816531,0.615449 C 67.750203,29.027921 67.764921,29.201831 69,30 c 0.901292,0.58246 1.024633,0.975486 0.309017,0.984687 -0.655041,0.0084 -1.449881,-0.403593 -1.766312,-0.915589 z M 83.25,29.947316 C 81.4625,29.394841 80,28.457538 80,27.864419 c 0,-0.647183 0.699765,-0.777353 1.75,-0.325534 0.9625,0.414075 8.05,1.062117 15.75,1.440093 7.7,0.377977 11.975,0.765031 9.5,0.86012 -2.475,0.09509 -8.1,0.384351 -12.5,0.642804 -4.4,0.258453 -9.4625,0.01789 -11.25,-0.534586 z M 142,30.606989 c 0,-0.216156 0.69837,-0.661002 1.55194,-0.988546 0.88992,-0.341496 1.29132,-0.173849 0.94098,0.393011 C 143.90566,30.961658 142,31.416902 142,30.606989 Z M 63.542705,29.069098 c -0.316431,-0.511996 -0.192988,-1.167201 0.274316,-1.456011 0.467305,-0.28881 0.849646,0.130095 0.849646,0.930902 0,1.686167 -0.315337,1.833491 -1.123962,0.525109 z M 75.75,29.337719 c 0.6875,-0.277412 1.8125,-0.277412 2.5,0 0.6875,0.277413 0.125,0.504386 -1.25,0.504386 -1.375,0 -1.9375,-0.226973 -1.25,-0.504386 z m 45.75,-0.253752 c 1.1,-0.434093 3.98112,-1.09686 6.40249,-1.472815 3.88719,-0.603548 4.25326,-0.503748 3.12755,0.852646 -0.85876,1.034748 -2.94869,1.515511 -6.40248,1.472816 -3.57689,-0.04422 -4.52272,-0.302073 -3.12756,-0.852647 z m 25.83333,-0.539978 c 0,-0.800807 0.38234,-1.219712 0.84965,-0.930902 0.4673,0.28881 0.59075,0.944015 0.27431,1.456011 -0.80862,1.308382 -1.12396,1.161058 -1.12396,-0.525109 z m 3,-1 c 0,-0.800807 0.38234,-1.219712 0.84965,-0.930902 0.4673,0.28881 0.59075,0.944015 0.27431,1.456011 -0.80862,1.308382 -1.12396,1.161058 -1.12396,-0.525109 z M 153.70979,26.75 c -1.26154,-0.942872 -1.40818,-1.618553 -0.5968,-2.75 0.9073,-1.265202 0.98756,-1.226069 0.51273,0.25 -0.3628,1.127813 -0.0408,1.75 0.90566,1.75 0.80774,0 1.46862,0.45 1.46862,1 0,1.289992 -0.26903,1.260625 -2.29021,-0.25 z M 57,23.059017 c 0,-0.517541 0.444846,-1.215913 0.988546,-1.551938 0.56686,-0.350339 0.734507,0.05106 0.393011,0.940983 C 57.716766,24.180479 57,24.497449 57,23.059017 Z M 70.872445,20.25 C 69.628574,18.663944 69.663944,18.628574 71.25,19.872445 72.915748,21.178814 73.445479,22 72.622445,22 c -0.207656,0 -0.995156,-0.7875 -1.75,-1.75 z m 9,-1 C 78.628574,17.663944 78.663944,17.628574 80.25,18.872445 81.915748,20.178814 82.445479,21 81.622445,21 c -0.207656,0 -0.995156,-0.7875 -1.75,-1.75 z m 50.364225,-0.489691 c 0.69483,-1.482212 1.42806,-2.215445 1.6294,-1.629406 0.20134,0.586039 -0.36716,1.798758 -1.26333,2.694932 -1.50588,1.505874 -1.53363,1.425093 -0.36607,-1.065526 z m -46.777789,0.17316 c -0.362533,-0.586592 -0.444683,-1.281 -0.182555,-1.543128 0.262128,-0.262129 0.743066,0.21781 1.068751,1.066531 0.676184,1.762107 0.09985,2.072058 -0.886196,0.476597 z M 140,19.622445 c 0,-0.207656 0.7875,-0.995156 1.75,-1.75 1.58606,-1.243871 1.62143,-1.208501 0.37756,0.377555 C 140.82119,19.915748 140,20.445479 140,19.622445 Z M 90.664328,17.567635 C 90.36202,16.779834 88.626375,15.93953 86.807339,15.700292 84.164368,15.352691 84.353727,15.277939 87.75,15.328165 c 3.406624,0.05038 4.25,0.420936 4.25,1.867343 0,2.16979 -0.583465,2.332347 -1.335672,0.372127 z M 94.710251,17 C 94.422595,15.9 94.59511,15 95.09362,15 95.592129,15 96,15.9 96,17 c 0,1.1 -0.172516,2 -0.383369,2 -0.210852,0 -0.618724,-0.9 -0.90638,-2 z m 20.531909,0.435289 c 0.0962,-1.277374 0.91576,-2.096903 2.19313,-2.193125 1.47939,-0.11144 1.66726,0.07642 0.68407,0.684069 -0.74549,0.460734 -1.73239,1.447641 -2.19313,2.193125 -0.60764,0.983189 -0.79551,0.795325 -0.68407,-0.684069 z M 119,18 c 0,-0.55 0.47656,-1 1.05902,-1 0.58246,0 0.7809,0.45 0.44098,1 -0.33992,0.55 -0.81648,1 -1.05902,1 C 119.19844,19 119,18.55 119,18 Z m -8,-1.440983 C 111,15.701558 111.45,15 112,15 c 0.55,0 1,0.423442 1,0.940983 0,0.517541 -0.45,1.219098 -1,1.559017 -0.55,0.339919 -1,-0.08352 -1,-0.940983 z M 75.75,16.337719 c 0.6875,-0.277412 1.8125,-0.277412 2.5,0 0.6875,0.277413 0.125,0.504386 -1.25,0.504386 -1.375,0 -1.9375,-0.226973 -1.25,-0.504386 z"
         id="path1404" />
      <path
         style="fill:#494949;fill-opacity:1"
         d="m 102.87805,193.07537 c 0.73949,-0.45703 1.17711,-10.30817 1.35676,-30.54204 0.20631,-23.23627 0.54826,-29.92468 1.54019,-30.12537 0.70125,-0.14188 0.81375,-0.0292 0.25,0.25037 -1.6069,0.79692 -1.38816,55.00553 0.225,55.75834 1,0.46666 1,0.7 0,1.16666 -0.6875,0.32084 -1.25,1.18334 -1.25,1.91667 0,0.73333 0.5625,1.5307 1.25,1.77193 0.6875,0.24123 -0.0355,0.44748 -1.60676,0.45833 -1.57122,0.0109 -2.36556,-0.28384 -1.76519,-0.65489 z m 12.42543,-3.08232 c -0.62425,-1.65383 -0.73055,-2.75699 -0.23622,-2.45148 0.5201,0.32144 1.0187,-10.31399 1.1834,-25.24305 l 0.28462,-25.79852 0.23236,28.25 c 0.1278,15.5375 0.10602,28.25 -0.0484,28.25 -0.15442,0 -0.79151,-1.35313 -1.41576,-3.00695 z m 4.52448,-7.87037 c 0.18037,-5.84247 0.67556,-17.37268 1.1004,-25.62268 0.76693,-14.8928 0.77352,-14.82032 0.92205,10.14301 0.11485,19.30417 -0.14069,25.2544 -1.10041,25.62269 -0.96391,0.36989 -1.17494,-1.95155 -0.92204,-10.14302 z M 123.78669,189 c -0.24217,-1.65 -0.0794,-3 0.36173,-3 0.44112,0 0.93764,-7.3125 1.10337,-16.25 l 0.30134,-16.25 0.22344,19.25 c 0.12409,10.69163 -0.1707,19.25 -0.66307,19.25 -0.48758,0 -1.08464,-1.35 -1.32681,-3 z M 94.23379,161.21862 94.46758,131.5 l 0.281783,28.25 c 0.176331,17.6779 0.650189,28.25 1.26621,28.25 1.53261,0 1.15717,1.71973 -0.515573,2.36163 -1.315776,0.50491 -1.471287,-3.07433 -1.26621,-29.14301 z M 76.666667,189.33333 C 76.3,188.96667 76.102425,177.82917 76.22761,164.58333 L 76.45522,140.5 76.74875,160.25 C 76.927331,172.26573 77.42561,180 78.02114,180 78.559513,180 79,181.575 79,183.5 c 0,1.925 -0.498145,3.5 -1.106989,3.5 -0.608844,0 -0.847967,0.675 -0.531385,1.5 0.618103,1.61075 0.374528,1.90282 -0.694959,0.83333 z m 12.519636,-29.11471 c 0.194693,-31.0569 1.17095,-27.12565 1.624251,6.54063 0.142625,10.59259 0.494459,19.87202 0.781853,20.62096 0.287394,0.74894 -0.178328,1.63065 -1.034936,1.95936 -1.39096,0.53376 -1.537553,-2.57959 -1.371168,-29.12095 z M 100,189 c 0,-0.55 0.45,-1 1,-1 0.55,0 1,0.45 1,1 0,0.55 -0.45,1 -1,1 -0.55,0 -1,-0.45 -1,-1 z m 10,0 c 0,-0.55 0.45,-1 1,-1 0.55,0 1,0.45 1,1 0,0.55 -0.45,1 -1,1 -0.55,0 -1,-0.45 -1,-1 z M 85,160.08333 c 0,-15.99583 0.3375,-29.08246 0.75,-29.08139 0.4125,0.001 0.772206,7.53857 0.799347,16.75 0.02714,9.21143 0.193818,22.13 0.370394,28.70793 0.220158,8.20147 -0.03104,12.07723 -0.799347,12.33333 C 85.310324,189.06323 85,181.11125 85,160.08333 Z m 48.25,27.42084 c -0.6875,-0.78087 -1.18872,-3.57625 -1.11382,-6.21196 0.0749,-2.63572 0.3312,-3.77971 0.56955,-2.54221 0.23836,1.2375 0.7783,2.25 1.19989,2.25 0.42158,0 0.83704,1.8 0.92325,4 0.17508,4.4682 0.16475,4.48458 -1.57887,2.50417 z m -52.869535,-3.52633 c -0.353743,-2.21219 -1.041401,-4.26829 -1.528129,-4.5691 -0.486728,-0.30082 -0.623198,-0.97048 -0.303268,-1.48813 0.319931,-0.51766 0.539316,-11.51157 0.487523,-24.43091 L 78.942422,130 l 2.778789,0.116 c 1.691248,0.0706 2.093887,0.29499 1.028789,0.57333 -1.590591,0.41566 -1.75,2.21931 -1.75,19.80066 0,10.63884 0.403828,19.49334 0.897395,19.67668 1.481883,0.55044 1.835061,17.83365 0.364423,17.83347 -0.681001,-7e-5 -1.527609,-1.81011 -1.881353,-4.0223 z m 47.501115,3.35549 c -0.0651,-0.45833 -0.0899,-1.09655 -0.055,-1.41826 0.0349,-0.32171 0.1491,-4.47311 0.25384,-9.22532 0.10474,-4.75222 0.5795,-8.39995 1.05502,-8.10606 0.47553,0.29389 0.86459,-8.00471 0.86459,-18.44134 0,-14.24487 -0.31164,-19.10143 -1.25,-19.48007 -0.74101,-0.29901 -0.53118,-0.53653 0.51534,-0.58333 1.65377,-0.074 1.74856,1.73264 1.5,28.58812 -0.20227,21.853 -0.56246,28.76601 -1.51534,29.08333 -0.6875,0.22895 -1.30329,0.0413 -1.36842,-0.41707 z m 11.8028,-1.23442 C 139.9964,184.90575 139.75823,184 139.13245,184 c -0.7669,0 -1.19073,-8.26582 -1.39725,-27.25 l -0.29644,-27.25 0.0306,28.20122 c 0.0168,15.51067 -0.31414,27.8559 -0.73552,27.43386 -0.42138,-0.42205 -0.64638,-13.28625 -0.5,-28.5871 0.25621,-26.78187 0.34075,-27.84728 2.26614,-28.55797 1.97269,-0.72816 1.99914,-0.33059 1.93692,29.11562 -0.0347,16.41962 -0.3417,30.13248 -0.68224,30.47303 -0.34055,0.34054 -0.37218,-0.32534 -0.0703,-1.47975 z m -71.1599,-0.0593 c -0.359466,-0.58163 -0.35664,-1.99307 0.0063,-3.13653 1.014831,-3.19745 0.716044,-11.12431 -0.544018,-14.43289 -1.037295,-2.72365 -1.529075,-41.26119 -0.539169,-42.2511 0.209623,-0.20962 1.319674,0.12116 2.46678,0.73507 C 71.953235,128.04534 72,128.70587 72,156.41274 c 0,23.17846 -0.257076,28.55572 -1.410972,29.51337 -0.973737,0.80813 -1.613504,0.8433 -2.064548,0.1135 z m 0.213924,-54.25609 C 68.535763,128.87758 68.367834,131 68.365231,136.5 c -0.0026,5.5 0.163194,7.87758 0.368439,5.28352 0.205246,-2.59406 0.207376,-7.09406 0.0047,-10 z M 73.5,157.50082 c 0,-16.11992 0.3375,-29.10055 0.75,-28.84586 0.4125,0.25469 0.75,13.23496 0.75,28.84504 0,15.61008 -0.3375,28.59072 -0.75,28.84586 C 73.8375,186.601 73.5,173.62073 73.5,157.50082 Z M 142.19495,183.5 c 0.0204,-1.65 0.2445,-2.20394 0.49804,-1.23097 0.25354,0.97297 0.23687,2.32297 -0.0371,3 -0.27393,0.67703 -0.48137,-0.11903 -0.46099,-1.76903 z m 2.58501,-29.88197 c 0.15398,-15.89029 0.42993,-28.71742 0.61321,-28.50473 0.18328,0.21268 0.62258,12.96186 0.97621,28.3315 0.44433,19.31157 0.99736,28.16382 1.79009,28.65376 0.63091,0.38992 0.0656,0.64189 -1.25618,0.55993 L 144.5,182.50946 Z m 3.00002,-1.10767 C 147.50236,124.26079 147.62139,123 150.56597,123 c 0.22132,0 0.53579,12.2625 0.69883,27.25 l 0.29644,27.25 -0.0306,-28.25061 c -0.0168,-15.53783 0.30688,-28.25033 0.71938,-28.25 0.4125,3.4e-4 0.84375,10.80061 0.95833,24.00061 0.11459,13.2 0.22709,26.13134 0.25,28.7363 0.0327,3.71954 -0.33059,4.808 -1.69239,5.07026 -1.60548,0.30919 -1.75604,-1.69172 -2.03062,-26.98631 L 149.43876,124.5 l 0.0306,28.25061 c 0.0168,15.53783 -0.29339,28.25033 -0.6894,28.25 -0.39602,-3.4e-4 -0.84602,-12.82095 -1,-28.49025 z M 62.45,158.05266 c -1.084968,-1.08194 -0.749318,-34.05331 0.346646,-34.05149 0.386845,6.5e-4 0.703354,7.87596 0.703354,17.50069 0,9.62473 -0.0225,17.49921 -0.05,17.49883 -0.0275,-3.8e-4 -0.4775,-0.42699 -1,-0.94803 z M 60.407091,139 c 0,-9.075 0.151603,-12.7875 0.336897,-8.25 0.185293,4.5375 0.185293,11.9625 0,16.5 -0.185294,4.5375 -0.336897,0.825 -0.336897,-8.25 z M 57,152.47131 c -0.864425,-1.06914 -0.970354,-1.53703 -0.25,-1.10425 0.978618,0.58793 1.25,-2.62698 1.25,-14.80804 0,-8.55746 0.3375,-15.55994 0.75,-15.56106 0.666896,-0.002 0.66137,12.57666 -0.01226,27.9153 -0.21894,4.98527 -0.356334,5.26659 -1.737737,3.55805 z m -0.541119,-33.53784 c -0.362533,-0.58659 -0.444683,-1.281 -0.182555,-1.54313 0.262128,-0.26213 0.743066,0.21781 1.068751,1.06653 0.676184,1.76211 0.09985,2.07206 -0.886196,0.4766 z M 102.21057,58.399141 C 101.50139,57.629613 101.36233,57 101.90156,57 c 1.03844,0 2.54172,1.902213 1.94858,2.465672 -0.19258,0.182935 -0.93038,-0.297004 -1.63957,-1.066531 z M 81.638374,31.5 C 81.954956,30.675 83.120933,30 84.229434,30 85.907567,30 86.036535,30.251051 85,31.5 84.315311,32.325 83.149334,33 82.40894,33 81.623187,33 81.302396,32.375543 81.638374,31.5 Z M 127.5,32 C 127.13863,31.415293 120.57326,30.938827 111.69098,30.8527 96.830682,30.708606 96.695915,30.688111 105.5,29.911191 c 11.06089,-0.976074 23.07023,-0.13396 24.61382,1.72596 C 130.9866,32.68878 130.88787,33 129.68146,33 128.82158,33 127.83992,32.55 127.5,32 Z M 72.981231,31.33959 c 0.567176,-0.280726 0.776869,-0.921976 0.465983,-1.425 C 73.136327,29.411565 73.396024,29 74.024316,29 c 1.483329,0 0.72398,2.30188 -0.861816,2.6125 -0.666875,0.130625 -0.748446,0.0078 -0.181269,-0.27291 z M 137,30.5 c -0.68469,-0.825 -0.93265,-1.5 -0.55102,-1.5 0.38163,0 1.36888,0.675 2.19388,1.5 0.825,0.825 1.07295,1.5 0.55101,1.5 C 138.67193,32 137.68469,31.325 137,30.5 Z M 67.333333,29.543989 c 0,-0.800807 0.382341,-1.219712 0.849646,-0.930902 0.467304,0.28881 0.590747,0.944015 0.274316,1.456011 -0.808625,1.308382 -1.123962,1.161058 -1.123962,-0.525109 z m 76.125547,0.38948 c -0.36253,-0.586592 -0.44468,-1.281 -0.18255,-1.543128 0.26212,-0.262129 0.74306,0.21781 1.06875,1.066531 0.67618,1.762107 0.0999,2.072058 -0.8862,0.476597 z m -80.125547,-1.38948 c 0,-0.800807 0.382341,-1.219712 0.849646,-0.930902 0.467304,0.28881 0.590747,0.944015 0.274316,1.456011 -0.808625,1.308382 -1.123962,1.161058 -1.123962,-0.525109 z m 84.209377,0.525109 c -0.31644,-0.511996 -0.19299,-1.167201 0.27431,-1.456011 0.46731,-0.28881 0.84965,0.130095 0.84965,0.930902 0,1.686167 -0.31534,1.833491 -1.12396,0.525109 z m -89.978417,-3.77597 c -0.542685,-1.425198 -0.427821,-1.540062 0.559795,-0.559795 0.683418,0.678334 0.990671,1.485241 0.682784,1.793128 -0.307887,0.307888 -0.867048,-0.247112 -1.242579,-1.233333 z M 138.76845,17.83155 c 0.5811,-0.581102 1.64682,-0.859794 2.36826,-0.619313 0.74895,0.249648 0.29565,0.702941 -1.05655,1.05655 -1.66335,0.434974 -2.05378,0.304831 -1.31171,-0.437237 z M 133.5,17 c -1.90836,-0.820049 -1.8969,-0.86265 0.25,-0.929715 C 134.9875,16.031628 136,16.45 136,17 c 0,0.55 -0.1125,0.968372 -0.25,0.929715 C 135.6125,17.891058 134.6,17.472686 133.5,17 Z"
         id="path1402" />
      <path
         style="fill:#333333;fill-opacity:1"
         d="m 85.582081,191.43812 c -6.884073,-1.36724 -10.373497,-3.2146 -7.832081,-4.14645 0.6875,-0.25209 1.298191,-2.10834 1.357092,-4.125 l 0.107092,-3.66667 0.951757,4.25 C 80.746782,186.3437 81.67934,188 82.558849,188 83.780587,188 84,183.5848 84,159 v -29 h -2.418213 c -1.330016,0 -3.130016,-0.27314 -4,-0.60699 C 76.160987,128.8478 76,131.85047 76,158.89588 v 30.10986 l -3.181816,-1.29832 c -1.749999,-0.71407 -3.291249,-1.85161 -3.425,-2.52787 -0.133751,-0.67625 -0.0135,-0.7655 0.267226,-0.19832 C 71.444529,188.58586 72,181.80467 72,156.41954 v -28.46242 l -2.75,-1.09127 c -3.917853,-1.55471 -8.565771,-4.07198 -9.842064,-5.33037 C 56.159676,118.33277 56,115.98647 56,71.458753 56,29.28934 56.09806,26.828772 57.75,27.548906 c 0.9625,0.419586 4.9,1.648622 8.75,2.731192 5.851472,1.645357 11.215621,2.049281 32.693184,2.461819 27.431616,0.526904 41.043116,-0.447311 50.404136,-3.607572 L 155,27.310411 154.999,72.405206 154.998,117.5 l -2.24878,2.60188 c -1.23683,1.43104 -3.71128,3.3551 -5.49878,4.27568 l -3.25,1.6738 v 28.44294 c 0,24.87176 0.18833,28.37066 1.5,27.86733 2.20205,-0.84501 1.82864,0.95204 -0.5,2.4063 -1.98135,1.23737 -2.00213,0.97149 -2.22791,-28.50946 L 142.54419,126.5 142,157 141.45581,187.5 141.22791,157.28222 141,127.06445 l -2.25,0.83189 -2.25,0.8319 -0.26614,27.81974 c -0.17092,17.86632 0.0974,28.18329 0.75,28.83588 C 137.67205,186.07205 138,186.01271 138,185.2 c 0,-0.66 0.45,-1.2 1,-1.2 1.75403,0 1.0729,2.89062 -0.93426,3.96482 C 137.0019,188.53417 135.8769,189 135.56574,189 135.25458,189 135,175.4625 135,158.91667 135,135.29466 134.73152,128.92274 133.75,129.2496 132.13828,129.78633 131.38005,187 132.98466,187 133.5431,187 134,187.61875 134,188.375 134,189.53228 130.01619,191 126.875,191 126.39375,191 126,177.5 126,161 c 0,-26.65293 -0.17597,-30 -1.57724,-30 -1.40899,0 -1.54233,3.25348 -1.25,30.50065 0.17998,16.77536 -0.0103,30.50036 -0.42276,30.5 -0.4125,-3.6e-4 -0.75,-13.65065 -0.75,-30.33398 0,-26.73124 -0.18406,-30.33334 -1.55001,-30.33334 -1.36966,0 -1.53142,3.55403 -1.39024,30.54675 0.11307,21.61896 -0.16458,30.65486 -0.94999,30.91667 C 117.31288,193.06237 117,184.54424 117,162.58333 117,135.7985 116.80997,132 115.47002,132 c -1.34468,0 -1.49156,3.42136 -1.21281,28.25 0.17444,15.5375 0.69041,29.2625 1.14661,30.5 0.79801,2.16472 0.61656,2.25 -4.78719,2.25 C 106.29074,193 105,192.65529 105,191.5 c 0,-0.825 0.45,-1.5 1,-1.5 0.64374,0 1,-10.36111 1,-29.08333 0,-22.82203 -0.26911,-28.99371 -1.25,-28.66703 -0.95525,0.31813 -1.31241,7.52972 -1.51466,30.58333 L 103.97067,193 98.235337,192.906 c -3.154435,-0.0517 -8.8484,-0.71224 -12.653256,-1.46791 z M 97,160.89301 C 97,135.877 96.798723,132 95.5,132 c -1.299399,0 -1.5,3.94096 -1.5,29.46862 0,25.78348 0.187579,29.39663 1.5,28.89301 1.285442,-0.49327 1.5,-4.70843 1.5,-29.46862 z m -5,-0.83333 c 0,-24.86786 -0.201478,-28.72635 -1.5,-28.72635 -1.299206,0 -1.5,3.92244 -1.5,29.30195 0,25.63534 0.187698,29.22992 1.5,28.72635 1.285164,-0.49317 1.5,-4.68991 1.5,-29.30195 z M 102,161 c 0,-18.66667 -0.35632,-29 -1,-29 -0.64368,0 -1,10.33333 -1,29 0,18.66667 0.35632,29 1,29 0.64368,0 1,-10.33333 1,-29 z m 10,0 c 0,-18.66667 -0.35632,-29 -1,-29 -0.64368,0 -1,10.33333 -1,29 0,18.66667 0.35632,29 1,29 0.64368,0 1,-10.33333 1,-29 z M 87.765335,159.66707 C 87.997292,134.60622 87.840047,131 86.515335,131 85.19629,131 85,134.76734 85,160.08333 c 0,22.82201 0.269111,28.99372 1.25,28.66707 0.95288,-0.31732 1.313069,-7.23033 1.515335,-29.08333 z m 43.000125,-1.07631 c 0.24947,-27.01224 0.15913,-28.72291 -1.5,-28.40378 -1.62838,0.31322 -1.78615,2.47276 -2.03196,27.81211 -0.14658,15.10989 -0.0338,28.07883 0.25052,28.81988 0.28437,0.74104 1.0793,1.1601 1.76651,0.93125 0.95231,-0.31713 1.3126,-7.25202 1.51493,-29.15946 z M 75,157.5 c 0,-17.84262 -0.371339,-28.61147 -1,-29 -0.658069,-0.40671 -1,9.50929 -1,29 0,19.49071 0.341931,29.40671 1,29 0.628661,-0.38853 1,-11.15738 1,-29 z m 25.55385,-98.587132 c 0.4746,-0.767926 0.98411,-0.774912 1.73522,-0.02379 0.75112,0.751118 1.45204,0.74075 2.38714,-0.03531 2.02138,-1.677604 1.58041,-3.01768 -0.92621,-2.814637 -1.2375,0.100242 -3.15,0.100818 -4.25,0.0013 L 97.5,55.859429 99.5,55 c 1.94514,-0.835857 1.94122,-0.861357 -0.143011,-0.929715 -1.178656,-0.03866 -2.411002,0.628087 -2.738546,1.481653 -0.327544,0.853566 -0.241703,1.333258 0.190757,1.065983 0.43246,-0.267275 1.439806,-0.07254 2.238546,0.432749 1.194324,0.755536 1.130964,0.921424 -0.356763,0.934017 C 97.696024,57.993109 97.160081,58.45 97.5,59 c 0.811059,1.312321 2.213674,1.272301 3.05385,-0.08713 z m 10.26947,-1.245341 C 111.04135,56.543046 110.47145,56 109.07332,56 107.933,56 107,56.188196 107,56.418213 c 0,0.230016 -0.24485,1.056275 -0.54411,1.83613 -0.3813,0.993663 0.14232,1.36747 1.75,1.249315 1.26176,-0.09273 2.43961,-0.918991 2.61743,-1.836131 z M 115,57.440983 C 115,56.648442 114.325,56 113.5,56 c -1.50623,0 -2.05568,2.110991 -0.86052,3.306147 C 113.57272,60.239389 115,59.111627 115,57.440983 Z M 149.35714,180.5 c 0.825,-0.825 1.81225,-1.5 2.19388,-1.5 0.38163,0 0.13367,0.675 -0.55102,1.5 -0.68469,0.825 -1.67193,1.5 -2.19387,1.5 -0.52194,0 -0.27399,-0.675 0.55101,-1.5 z m -83.975376,-30 c 0.002,-6.6 0.16382,-9.16987 0.35965,-5.71081 0.19583,3.45905 0.194213,8.85905 -0.0036,12 C 65.540011,159.93013 65.379787,157.1 65.381764,150.5 Z M 95.25,31.253787 c 5.9125,-0.176798 15.5875,-0.176798 21.5,0 5.9125,0.176797 1.075,0.32145 -10.75,0.32145 -11.825,0 -16.6625,-0.144653 -10.75,-0.32145 z M 76.761659,30.292739 c 1.243913,-0.239193 3.043913,-0.230112 4,0.02018 C 81.717747,30.563212 80.7,30.758916 78.5,30.747817 c -2.2,-0.0111 -2.982253,-0.215885 -1.738341,-0.455078 z m 53.988341,0.0015 c 1.2375,-0.238353 3.2625,-0.238353 4.5,0 1.2375,0.238353 0.225,0.433369 -2.25,0.433369 -2.475,0 -3.4875,-0.195016 -2.25,-0.433369 z m -61,-0.956548 c 0.6875,-0.277412 1.8125,-0.277412 2.5,0 0.6875,0.277413 0.125,0.504386 -1.25,0.504386 -1.375,0 -1.9375,-0.226973 -1.25,-0.504386 z m 69.51903,-0.03071 c 0.97297,-0.253543 2.32297,-0.236869 3,0.03705 0.67703,0.273923 -0.11903,0.481368 -1.76903,0.460988 -1.65,-0.02038 -2.20394,-0.244498 -1.23097,-0.498042 z m 5.54347,-0.990123 c 0.72187,-0.288871 1.58437,-0.253344 1.91667,0.07895 0.33229,0.332292 -0.25834,0.568641 -1.3125,0.52522 -1.16495,-0.04798 -1.4019,-0.284941 -0.60417,-0.604167 z m 6.53273,-1.938758 c 2.0279,-1.098892 2.70103,-2.093214 2.34326,-3.461342 -0.27608,-1.05575 -0.0939,-1.667367 0.40477,-1.359149 2.31289,1.429447 -1.32357,6.528662 -4.56577,6.402325 -0.56512,-0.02202 0.25286,-0.733846 1.81774,-1.581834 z M 56.345077,24.456872 c -0.325685,-0.848721 -0.368713,-1.766569 -0.09562,-2.039663 0.273094,-0.273095 0.736558,0.421313 1.029919,1.543128 0.62315,2.382929 -0.06922,2.750891 -0.934299,0.496535 z M 122,16 c -2.32726,-0.745318 -2.34861,-0.807528 -0.30902,-0.90032 1.20504,-0.05482 2.4691,0.35032 2.80902,0.90032 0.33992,0.55 0.47898,0.955144 0.30902,0.90032 C 124.63906,16.845496 123.375,16.440352 122,16 Z"
         id="path1400" />
    </g>
  </g>
</svg>
