<?xml version="1.0" encoding="UTF-8" standalone="no"?>
<!-- Created with Inkscape (http://www.inkscape.org/) -->

<svg
   width="100mm"
   height="100mm"
   viewBox="0 0 100 100"
   version="1.1"
   id="svg1944"
   inkscape:version="1.1.1 (3bf5ae0d25, 2021-09-20)"
   sodipodi:docname="add_list_type_device_605c.svg"
   xmlns:inkscape="http://www.inkscape.org/namespaces/inkscape"
   xmlns:sodipodi="http://sodipodi.sourceforge.net/DTD/sodipodi-0.dtd"
   xmlns="http://www.w3.org/2000/svg"
   xmlns:svg="http://www.w3.org/2000/svg">
  <sodipodi:namedview
     id="namedview1946"
     pagecolor="#ffffff"
     bordercolor="#666666"
     borderopacity="1.0"
     inkscape:pageshadow="2"
     inkscape:pageopacity="0.0"
     inkscape:pagecheckerboard="0"
     inkscape:document-units="mm"
     showgrid="false"
     width="100mm"
     inkscape:zoom="0.58974467"
     inkscape:cx="378.97757"
     inkscape:cy="337.43417"
     inkscape:window-width="1440"
     inkscape:window-height="890"
     inkscape:window-x="-6"
     inkscape:window-y="-6"
     inkscape:window-maximized="1"
     inkscape:current-layer="layer1" />
  <defs
     id="defs1941" />
  <g
     inkscape:label="Laag 1"
     inkscape:groupmode="layer"
     id="layer1">
    <g
       id="g1960"
       transform="translate(0.17265611,0.75928928)">
      <path
         style="fill:#fcfcfc;stroke-width:0.451517"
         d="M 1.932551,49.799091 V 1.0352708 h 48.76382 48.763821 V 49.799091 98.562912 L 61.194138,98.54309 C 29.346855,98.52661 23.202082,98.425357 24.561545,97.939552 c 3.747454,-1.339154 7.013452,-4.238614 8.490438,-7.537568 0.68486,-1.52968 0.822509,-1.619216 1.60721,-1.045429 1.294655,0.946678 1.588639,0.775995 1.588639,-0.922345 0,-1.153336 -0.231047,-1.623216 -0.903034,-1.836495 -0.496668,-0.157638 -0.903033,-0.660262 -0.903033,-1.116949 0,-0.608039 0.241757,-0.767113 0.903033,-0.594187 0.774396,0.20251 0.903034,0.01386 0.903034,-1.324344 0,-1.226369 -0.241693,-1.670621 -1.128792,-2.07481 -0.671423,-0.305921 -1.128792,-0.890563 -1.128792,-1.442908 0,-0.778167 0.141484,-0.852884 0.87335,-0.461198 1.151465,0.616244 1.384234,0.590214 1.384234,-0.154802 0,-0.342209 -0.457161,-0.961916 -1.015913,-1.377127 l -1.015913,-0.754922 1.015913,0.206063 c 1.540222,0.312414 1.21449,-0.269298 -0.792599,-1.415469 -0.990856,-0.565841 -2.507107,-1.648285 -3.369446,-2.405425 -0.862339,-0.757144 -1.782159,-1.244199 -2.044045,-1.082344 -0.261887,0.161855 -0.420328,0.05219 -0.352091,-0.243697 0.06824,-0.295888 -0.253504,-0.601019 -0.714978,-0.678061 -0.943272,-0.157485 -3.11981,-2.041245 -2.766601,-2.394457 0.125778,-0.125779 0.836116,0.353266 1.578529,1.064541 1.859438,1.781455 1.696552,0.993463 -0.266095,-1.287288 -3.443481,-4.001591 -6.511368,-12.529205 -6.511368,-18.099243 0,-1.624887 -0.136939,-1.984141 -0.677275,-1.776796 -0.466155,0.178882 -0.677275,-0.02835 -0.677275,-0.664795 0,-1.174477 -0.72176,-1.650122 -1.08148,-0.71271 -0.493359,1.285671 -0.270162,6.67294 0.409369,9.880895 0.66894,3.15795 3.029231,8.678515 4.73414,11.072837 l 0.911921,1.280678 -1.245304,-0.322275 c -2.585058,-0.668981 -6.106982,-9.58261 -6.860784,-17.363943 -0.196321,-2.026574 -0.384633,-3.227519 -0.418472,-2.668767 -0.107342,1.772448 -0.964559,1.093908 -0.964559,-0.763506 0,-2.01228 -0.661478,-2.792277 -1.071294,-1.26324 -1.167948,4.357652 0.872325,15.147126 3.803844,20.115681 0.740759,1.255492 0.810746,1.657021 0.341313,1.958174 -1.86404,1.195825 -5.534003,-9.089693 -6.221431,-17.436317 -0.184735,-2.243022 -0.364837,-3.214696 -0.400225,-2.159275 -0.03539,1.055421 -0.282255,1.918947 -0.548594,1.918947 -0.3000844,0 -0.4403685,-0.94736 -0.368864,-2.490992 0.06422,-1.386382 -0.1075206,-2.713905 -0.387289,-2.993674 -1.4612811,-1.461279 -1.2257428,9.332984 0.324092,14.852507 0.505369,1.799796 1.564865,4.717141 2.354437,6.482983 1.352593,3.025014 1.388099,3.2372 0.614168,3.670313 -1.806603,1.011027 -4.2098926,3.58396 -5.4666279,5.852507 -1.2070198,2.178804 -1.3264783,2.781263 -1.3253431,6.684052 0.00104,3.583626 0.1686578,4.603088 1.0186851,6.195805 1.9857196,3.72068 4.8983569,6.294258 8.6345279,7.62938 1.455613,0.520165 0.810028,0.585874 -5.9294467,0.603538 l -7.5629073,0.01982 z m 65.921461,25.681177 c 0,-0.797496 -0.112825,-0.864686 -0.672304,-0.40036 -0.679528,0.563963 -0.534799,1.358678 0.247436,1.358678 0.233678,0 0.424868,-0.431244 0.424868,-0.958318 z m -31.60618,-1.731675 c 0,-1.07396 -0.738086,-2.068534 -3.769607,-5.079565 -2.694524,-2.676307 -4.172613,-4.581139 -5.182683,-6.678982 -1.607838,-3.339369 -2.787148,-7.549258 -2.787148,-9.949526 0,-1.626774 -1.718241,-3.984817 -2.40396,-3.299098 -0.607629,0.607629 -0.28522,5.506275 0.586805,8.915864 1.156296,4.521075 3.23972,8.379286 6.332323,11.726597 2.333594,2.525786 6.13199,5.664049 6.885632,5.688959 0.186251,0.0061 0.338638,-0.589753 0.338638,-1.324249 z m -7.11139,-6.323859 c -1.513223,-1.918654 -1.205582,-2.754005 0.338637,-0.919519 0.731642,0.86917 1.335724,1.732696 1.342405,1.918947 0.02445,0.681777 -0.690189,0.256899 -1.681042,-0.999428 z M 23.886093,56.508076 c -0.361445,-1.807218 -0.360224,-3.326848 0.0024,-2.964244 0.466733,0.466733 0.980304,3.934076 0.616046,4.159197 -0.185732,0.114789 -0.464024,-0.42294 -0.618426,-1.194953 z m 43.709909,15.608848 c 0.390241,-0.390237 0.709527,-1.441572 0.709527,-2.336288 V 68.15387 l -1.128792,1.060446 c -0.687539,0.645909 -1.128792,1.559187 -1.128792,2.336288 0,1.433399 0.498583,1.615794 1.548057,0.56632 z m 19.426395,-2.902608 c 3.049626,-5.982856 4.561549,-13.450863 4.18399,-20.66645 -0.213676,-4.083653 -1.634482,-11.496668 -2.33841,-12.200595 -0.112884,-0.112885 -0.569575,-0.04651 -1.01487,0.147506 -0.445295,0.194014 -1.043645,0.316382 -1.329668,0.271931 -0.346692,-0.05388 -0.230341,0.849992 0.349055,2.711582 2.351716,7.556087 2.144867,16.290613 -0.564076,23.819092 -0.816266,2.268493 -1.475823,5.106317 -1.585081,6.819968 -0.175613,2.754515 -0.142544,2.879368 0.538135,2.031826 0.398884,-0.496669 1.1913,-1.817356 1.760925,-2.93486 z m -1.107711,-2.696955 c 0,-0.86517 1.356095,-3.773241 1.631236,-3.4981 0.336384,0.336385 -0.654979,3.387406 -1.212662,3.732071 -0.230214,0.142282 -0.418574,0.03699 -0.418574,-0.233971 z m 3.160618,-16.744918 c 0,-1.407843 0.173234,-2.177165 0.451517,-2.005178 0.248334,0.15348 0.451517,1.181385 0.451517,2.284233 0,1.102848 -0.203183,2.005178 -0.451517,2.005178 -0.248334,0 -0.451517,-1.027906 -0.451517,-2.284233 z M 36.247832,68.038986 c 0,-1.289857 -0.416643,-2.090257 -2.01138,-3.863986 -2.539487,-2.824523 -4.266965,-6.455883 -5.005935,-10.523061 -0.439614,-2.419571 -0.586674,-2.772481 -0.617722,-1.482384 -0.06157,2.55843 -0.943783,2.030855 -0.943783,-0.564396 0,-1.705732 -0.165557,-2.257585 -0.677275,-2.257585 -1.532276,0 -0.537185,6.98479 1.658748,11.643171 1.236535,2.623146 6.257748,8.675088 7.197599,8.675088 0.219862,0 0.399748,-0.73208 0.399748,-1.626847 z m -4.030881,-4.078005 c -0.854248,-1.086002 -1.197114,-1.970935 -0.763636,-1.970935 0.09469,0 0.714581,0.711139 1.377529,1.580309 0.662948,0.86917 1.006585,1.580309 0.763636,1.580309 -0.242948,0 -0.862836,-0.535359 -1.377529,-1.189683 z m 36.088578,-0.988592 v -2.472384 l -1.276863,1.762658 c -1.01556,1.401938 -1.235756,2.114765 -1.075996,3.483227 l 0.200866,1.720568 1.075997,-1.010842 c 0.879577,-0.826321 1.075996,-1.46217 1.075996,-3.483227 z m -3.064305,-0.982343 c -0.11934,-0.813096 0.0023,-1.35455 0.303957,-1.35455 0.276522,0 0.505875,0.355569 0.509676,0.790154 0.0054,0.611178 0.09423,0.652384 0.392382,0.181921 1.176007,-1.855658 -2.851153,-8.90873 -6.291197,-11.018248 -2.324006,-1.425137 -5.891649,-2.13833 -10.715845,-2.142168 -5.182457,-0.0041 -7.786045,-1.462739 -9.850682,-5.518686 -2.084121,-4.094224 -1.158721,-7.456004 2.734551,-9.934034 1.225154,-0.779799 1.251663,-0.839406 0.245002,-0.550915 -1.407522,0.40337 -5.430516,2.950056 -6.270653,3.969529 -0.852077,1.033959 -0.41322,5.035402 0.816653,7.446154 2.727143,5.345642 5.437745,6.795874 13.640719,7.298078 5.017603,0.307185 6.061627,0.509356 7.754887,1.501673 2.830451,1.658751 5.731203,6.240884 5.731203,9.053206 0,0.608117 0.253978,1.208151 0.564396,1.333406 0.310418,0.125256 0.580001,0.243779 0.599077,0.263384 0.01905,0.0196 -0.05478,-0.573901 -0.164126,-1.318904 z m -5.835761,-9.637351 c -0.797518,-0.535314 -1.457862,-1.125682 -1.467429,-1.311932 -0.03969,-0.772943 1.421036,-0.249382 2.797463,1.002679 1.722311,1.566686 0.846657,1.770289 -1.330034,0.309253 z M 45.52321,49.830291 c -0.142874,-0.231177 -0.10407,-0.504304 0.08623,-0.606956 0.609218,-0.328618 4.183896,0.203819 4.183896,0.623184 0,0.537201 -3.937337,0.522238 -4.270128,-0.01621 z m -7.446276,-5.857878 c -1.066003,-1.991845 -1.369838,-3.20378 -0.802013,-3.199066 0.687447,0.0057 2.209094,3.507545 1.669134,3.84126 -0.216332,0.1337 -0.606536,-0.155287 -0.867121,-0.642194 z m 48.106635,13.423616 c 0.992976,-4.900515 0.69046,-11.458858 -0.76696,-16.627275 l -1.082232,-3.837893 -0.145176,5.643961 c -0.200595,7.798603 0.377775,20.829592 0.866529,19.523281 0.21005,-0.561402 0.717577,-2.677336 1.127839,-4.702074 z m -1.623433,-6.919662 c 0,-0.86917 0.203182,-1.580309 0.451517,-1.580309 0.248334,0 0.451516,0.711139 0.451516,1.580309 0,0.86917 -0.203182,1.580309 -0.451516,1.580309 -0.248335,0 -0.451517,-0.711139 -0.451517,-1.580309 z M 30.992744,41.985164 C 36.043941,31.660888 49.242871,27.031382 58.99741,32.162567 l 2.334071,1.227794 -0.440085,-1.896833 c -0.417061,-1.797594 -0.583061,-1.949406 -3.172849,-2.901716 -8.062511,-2.964723 -17.480946,-0.951079 -24.065644,5.145189 -2.445952,2.26452 -5.532374,6.958529 -5.532374,8.413953 0,0.480302 1.253262,2.229935 1.597302,2.229935 0.05654,0 0.630247,-1.078076 1.274913,-2.395725 z m -1.066148,-0.808072 c 0,-0.666169 1.769838,-3.117439 2.250818,-3.117439 0.210793,0 -0.05702,0.811054 -0.595141,1.802343 -0.953301,1.756105 -1.655677,2.313999 -1.655677,1.315096 z m 8.57882,-8.968805 c 0,-0.248334 0.812731,-0.866141 1.806068,-1.372904 0.993337,-0.506762 1.806067,-0.718204 1.806067,-0.46987 0,0.248334 -0.81273,0.866141 -1.806067,1.372904 -0.993337,0.506763 -1.806068,0.718204 -1.806068,0.46987 z m 13.432627,-2.599338 c -0.682919,-0.103454 -1.241672,-0.403183 -1.241672,-0.666063 0,-0.294513 0.541568,-0.369653 1.410991,-0.195768 0.776044,0.155209 1.690366,0.282198 2.031826,0.282198 0.341459,0 0.620835,0.203182 0.620835,0.451517 0,0.453278 -0.51975,0.476875 -2.82198,0.128116 z m 16.819003,9.805255 V 36.705102 H 66.98151 65.205979 l 1.549772,2.302957 c 0.852379,1.266626 1.549778,2.485722 1.549778,2.709101 0,0.22338 0.101591,0.406145 0.225758,0.406145 0.124167,0 0.225759,-1.219096 0.225759,-2.709101 z m -43.141377,1.78821 c 0.335641,0.278557 0.930206,-0.420181 1.834097,-2.155449 1.968794,-3.779644 7.398368,-9.028289 11.236609,-10.862171 6.749036,-3.224639 14.265802,-3.575134 20.388407,-0.95068 l 2.001077,0.857763 0.668579,-1.292883 c 0.667283,-1.290388 0.665008,-1.29431 -1.179421,-2.032305 -7.478166,-2.992169 -16.218626,-2.642694 -23.306236,0.93187 -5.535511,2.791779 -10.87259,8.408381 -12.877198,13.551629 -0.721102,1.85014 -0.575294,2.852795 0.289149,1.988351 0.27279,-0.272789 0.642733,-0.286933 0.944937,-0.03613 z m 3.85941,-7.573455 c 0,-0.620251 2.679852,-2.973331 3.010113,-2.64307 0.170736,0.170737 -0.271523,0.917859 -0.982799,1.660272 -1.277455,1.333375 -2.027314,1.696891 -2.027314,0.982798 z m 10.384888,-7.243301 c 0,-0.551196 2.95913,-1.570415 3.728949,-1.284369 0.321909,0.119613 0.08001,0.39768 -0.568331,0.653298 -2.270962,0.895365 -3.160618,1.073 -3.160618,0.631071 z m 12.86823,-1.419994 c -0.702036,-0.301675 -0.481845,-0.39511 0.989265,-0.419782 1.040764,-0.01745 2.017874,0.171448 2.171353,0.419782 0.339103,0.54868 -1.883769,0.54868 -3.160618,0 z m -26.041609,7.084613 c 3.467819,-4.413979 9.401073,-8.333987 15.099443,-9.975964 6.111875,-1.761128 13.773552,-1.2499 19.54936,1.304438 2.243966,0.992387 2.602408,1.032699 4.368696,0.491329 L 67.628254,23.28032 63.79036,21.450679 C 54.6307,17.083988 44.760195,17.129524 35.530652,21.58105 29.132953,24.666742 22.91931,30.95311 20.642476,36.643478 c -0.719571,1.798387 -0.717151,1.947316 0.04535,2.789869 0.789443,0.872326 0.836688,0.833795 2.370159,-1.932966 0.860563,-1.552669 2.493434,-4.005215 3.628603,-5.450104 z m -4.256026,3.864671 c 0.359953,-0.682919 0.968257,-1.648037 1.351786,-2.144705 1.057944,-1.370031 0.924282,0.12085 -0.172039,1.918947 -1.097022,1.799247 -2.111415,1.993363 -1.179747,0.225758 z m 8.833529,-10.0646 c 1.553413,-1.32779 2.27746,-1.645758 2.271555,-0.997563 -0.0038,0.423534 -2.836929,2.376993 -3.411231,2.352113 -0.232968,-0.01009 0.279887,-0.61964 1.139676,-1.35455 z m 10.198761,-4.893571 c 0.631503,-0.584113 3.815317,-1.070767 3.815317,-0.583181 0,0.228546 -0.634945,0.542526 -1.41099,0.697735 -2.006353,0.401271 -2.915187,0.35797 -2.404327,-0.114554 z m 13.748688,0.07127 c -0.620836,-0.111377 -1.331975,-0.41446 -1.580309,-0.673518 -0.583802,-0.609011 3.427027,-0.04269 4.041076,0.570592 0.446839,0.446282 -0.358956,0.479986 -2.460767,0.102926 z M 17.890098,37.856889 c 0.167809,-0.437304 0.03409,-0.571018 -0.40321,-0.40321 -0.846226,0.324728 -0.830905,-0.451867 0.04223,-2.140312 0.383077,-0.74079 0.891583,-1.226326 1.130013,-1.078968 0.275036,0.169982 0.268007,0.577165 -0.01923,1.113871 -1.118673,2.090259 -0.297131,1.323292 0.964845,-0.900752 5.340999,-9.412704 13.746042,-15.448018 24.283974,-17.437317 8.0982,-1.528739 17.65282,0.438984 24.631844,5.072795 1.979378,1.314232 2.724719,1.561064 4.359757,1.443802 L 74.852523,23.385355 72.1488,21.245612 C 68.957831,18.720263 64.426155,16.435957 59.726709,14.983944 54.84857,13.476718 45.281068,13.448085 40.176746,14.925436 c -6.242631,1.806813 -11.855677,5.035789 -16.261507,9.35464 -5.39239,5.285934 -9.542118,13.076282 -7.421269,13.932063 0.936511,0.377891 1.134087,0.327616 1.396128,-0.35525 z M 24.508394,25.96329 c 0,-0.609354 2.220007,-2.540259 2.545904,-2.214363 0.160534,0.160535 0.02566,0.612658 -0.299723,1.004718 -0.759538,0.915188 -2.246181,1.715795 -2.246181,1.209645 z m 38.477652,-7.471206 c -1.490913,-0.827701 -0.681294,-1.293168 0.861558,-0.495328 0.713518,0.368974 1.297307,0.767236 1.297307,0.885026 0,0.391195 -1.114718,0.189978 -2.158865,-0.389698 z M 35.796315,18.237081 c 0,-0.224041 0.639867,-0.630406 1.421928,-0.903034 1.717696,-0.598792 1.73869,-0.599858 1.73869,-0.08834 0,0.224041 -0.639867,0.630406 -1.421927,0.903034 -1.717697,0.598792 -1.738691,0.599858 -1.738691,0.08834 z M 48.890304,15.48381 c 0,-0.248334 0.711139,-0.451517 1.580309,-0.451517 0.86917,0 1.580309,0.203183 1.580309,0.451517 0,0.248334 -0.711139,0.451517 -1.580309,0.451517 -0.86917,0 -1.580309,-0.203183 -1.580309,-0.451517 z m -35.81388,18.757287 c 0.692279,-1.451724 1.855767,-1.827121 1.317793,-0.425183 -0.530111,1.381446 0.169787,0.498094 1.556606,-1.964618 5.252527,-9.327431 13.650619,-15.82928 24.134902,-18.685371 5.081112,-1.384179 14.244793,-1.381887 19.390852,0.0048 5.116982,1.3789 10.544165,4.151361 14.709783,7.514452 1.980565,1.598996 3.601023,2.739764 3.601023,2.535039 0,-0.204724 -0.407611,-0.741109 -0.905802,-1.191965 -0.49819,-0.450857 -0.79992,-0.925621 -0.670511,-1.05503 0.129409,-0.12941 0.921902,0.4302 1.761096,1.243577 0.945716,0.916625 1.844361,1.404317 2.3637,1.282776 0.682562,-0.159741 0.33568,-0.677138 -1.871208,-2.791012 C 60.987475,3.9680435 32.541423,5.7649699 17.570735,24.555257 c -2.357182,2.95859 -6.15633,9.614316 -6.15633,10.785273 0,1.009106 0.959062,0.374683 1.662019,-1.099433 z m 7.368318,-10.518433 c 0,-0.212257 0.711139,-1.075185 1.580309,-1.917618 1.092908,-1.059288 1.580309,-1.31202 1.580309,-0.819438 0,0.391742 -0.711139,1.25467 -1.580309,1.917618 -0.86917,0.662949 -1.580309,1.031696 -1.580309,0.819438 z m 12.642472,-9.141888 c 0,-0.248334 0.07678,-0.451516 0.170617,-0.451516 0.09384,0 0.90657,-0.307501 1.806068,-0.683335 2.106322,-0.880078 2.14028,-0.176172 0.03982,0.825467 -1.861828,0.887843 -2.016509,0.911575 -2.016509,0.309384 z m 31.493301,-0.319657 c -0.931254,-0.373978 -1.693188,-0.864138 -1.693188,-1.089244 0,-0.36152 3.005856,0.652116 3.551315,1.197577 0.556282,0.556282 -0.332127,0.504486 -1.858127,-0.108333 z M 47.761512,10.968642 c 0.15348,-0.248335 1.181385,-0.451517 2.284233,-0.451517 1.102848,0 2.005177,0.203182 2.005177,0.451517 0,0.248334 -1.027905,0.451516 -2.284233,0.451516 -1.407843,0 -2.177164,-0.173232 -2.005177,-0.451516 z m -31.60618,81.549525 c -1.977926,-0.863273 -4.639206,-4.01604 -4.996181,-5.918881 -0.801249,-4.271029 0.587015,-8.004238 3.79359,-10.201418 1.337467,-0.916444 2.132534,-1.088074 5.040484,-1.088074 3.922487,0 5.747206,0.890093 7.716503,3.764093 0.916447,1.337469 1.088076,2.132536 1.088076,5.040485 0,2.90795 -0.171629,3.703017 -1.088076,5.040486 -1.419009,2.070905 -3.560793,3.508643 -5.740543,3.853511 l -1.750201,0.276907 2.031826,-1.558794 c 1.117504,-0.857341 2.52806,-2.456076 3.134569,-3.552743 2.814577,-5.089222 0.0225,-10.554265 -5.392154,-10.554265 -3.775199,0 -6.494896,2.696648 -6.494896,6.439854 0,2.598899 0.934375,4.250295 3.141754,5.552682 1.196506,0.705956 1.547075,1.209632 1.547075,2.22275 0,1.471407 -0.12784,1.514405 -2.031826,0.683407 z m 18.065226,-5.250541 c 0.155983,-0.252384 0.472748,-0.341988 0.703922,-0.19911 0.626274,0.387054 0.509497,0.657991 -0.283604,0.657991 -0.387157,0 -0.5763,-0.206496 -0.420318,-0.458881 z m 0.446965,-4.507804 c -0.153479,-0.248334 -0.06388,-0.451517 0.199111,-0.451517 0.26299,0 0.478164,0.203183 0.478164,0.451517 0,0.248334 -0.0896,0.451517 -0.199111,0.451517 -0.109511,0 -0.324685,-0.203183 -0.478164,-0.451517 z M 12.569977,65.447279 C 12.156767,64.492913 11.90186,63.477 12.003518,63.189695 c 0.101658,-0.287305 0.523469,0.275904 0.937358,1.251578 0.413888,0.975673 0.668795,1.991586 0.566459,2.257584 -0.102336,0.265998 -0.524147,-0.297211 -0.937358,-1.251578 z m 3.886767,-2.412838 c -0.289944,-0.541766 -0.519035,-1.353955 -0.509093,-1.804866 0.0134,-0.607489 0.196228,-0.491215 0.705879,0.448902 0.37829,0.69781 0.607382,1.509999 0.509093,1.804867 -0.102842,0.308521 -0.402508,0.117949 -0.705879,-0.448903 z m 3.789746,-2.737583 c -0.162881,-0.682919 -0.401782,-1.597241 -0.530891,-2.031826 -0.129109,-0.434585 -0.0399,-0.790154 0.198251,-0.790154 0.238148,0 0.566263,0.558752 0.729144,1.241671 0.162881,0.682919 0.401782,1.597241 0.530891,2.031826 0.129109,0.434585 0.0399,0.790155 -0.198251,0.790155 -0.238148,0 -0.566262,-0.558753 -0.729144,-1.241672 z"
         id="path1976" />
      <path
         style="fill:#d5d5d5;stroke-width:0.451517"
         d="m 19.090192,93.418776 c 0,-0.438419 1.272081,-0.603168 1.847012,-0.239205 0.463107,0.29317 0.298319,0.404708 -0.605341,0.409743 -0.682919,0.0036 -1.241671,-0.07294 -1.241671,-0.170538 z m -0.815011,-1.402859 c 0.0092,-0.745002 0.110395,-0.995116 0.224874,-0.555803 0.114479,0.439312 0.10695,1.04886 -0.01673,1.35455 -0.123682,0.305691 -0.217347,-0.05374 -0.208144,-0.798747 z m -5.088882,-1.467429 -1.094619,-1.241672 1.241672,1.094617 c 0.682919,0.602044 1.241671,1.160796 1.241671,1.241671 0,0.354116 -0.365638,0.06591 -1.388724,-1.094616 z m -2.570174,-6.434116 c 0,-0.86917 0.09292,-1.224739 0.206489,-0.790154 0.113568,0.434585 0.113568,1.145724 0,1.580309 -0.11357,0.434585 -0.206489,0.07901 -0.206489,-0.790155 z m 18.512191,0 c 0,-0.86917 0.09292,-1.224739 0.206489,-0.790154 0.113568,0.434585 0.113568,1.145724 0,1.580309 -0.113569,0.434585 -0.206489,0.07901 -0.206489,-0.790155 z m -15.836551,0 c 0,-0.620835 0.102482,-0.874814 0.227738,-0.564396 0.125257,0.310418 0.125257,0.818375 0,1.128792 -0.125256,0.310418 -0.227738,0.05644 -0.227738,-0.564396 z m 13.093989,0 c 0,-0.620835 0.102482,-0.874814 0.227738,-0.564396 0.125256,0.310418 0.125256,0.818375 0,1.128792 -0.125256,0.310418 -0.227738,0.05644 -0.227738,-0.564396 z m -6.956925,-6.620266 c 0.310418,-0.125255 0.818374,-0.125255 1.128792,0 0.310418,0.125255 0.05644,0.22774 -0.564396,0.22774 -0.620835,0 -0.874814,-0.102485 -0.564396,-0.22774 z M 66.75684,76.03823 c -0.136092,-0.220195 0.0551,-0.651439 0.424868,-0.958322 0.559479,-0.464326 0.672304,-0.397136 0.672304,0.40036 0,0.968667 -0.641669,1.294982 -1.097172,0.557962 z M 19.203071,74.772791 c 0.434585,-0.113565 1.145724,-0.113565 1.580309,0 0.434585,0.11357 0.07901,0.206492 -0.790155,0.206492 -0.86917,0 -1.224739,-0.09292 -0.790154,-0.206492 z m 46.844874,-3.222187 c 0,-0.777101 0.441253,-1.690379 1.128792,-2.336288 l 1.128792,-1.060446 v 1.626766 c 0,1.53536 -0.911644,3.045815 -1.838319,3.045815 -0.230595,0 -0.419265,-0.574131 -0.419265,-1.275847 z M 84.693067,70.11735 c 0.188057,-2.554719 2.991967,-11.779253 3.018069,-9.929104 0.0053,0.374849 0.415983,0.935326 0.912651,1.2455 0.672824,0.420182 0.903034,0.428688 0.903034,0.03337 0,-0.291829 0.110089,-0.420507 0.244646,-0.285955 0.510349,0.51035 -3.387975,10.290751 -4.101742,10.290751 -0.126357,0 0.06509,-0.570139 0.425437,-1.266978 0.602816,-1.165727 0.582917,-1.312108 -0.248998,-1.831646 -0.864253,-0.539735 -0.898853,-0.464322 -0.783553,1.707957 0.06634,1.249948 -0.03829,2.429757 -0.232482,2.6218 -0.194206,0.19204 -0.255888,-0.971519 -0.137062,-2.585692 z m 2.58823,-5.228985 c 0.291201,-0.88235 0.410284,-1.723449 0.264625,-1.869104 -0.275141,-0.275141 -1.631236,2.63293 -1.631236,3.4981 0,0.959527 0.844572,-0.0472 1.366611,-1.628996 z m -21.197705,1.503971 c 0.0196,-0.558752 0.142268,-0.749514 0.272585,-0.423916 0.183027,0.457301 0.457436,0.406668 1.206024,-0.222525 0.772681,-0.649449 0.747238,-0.56353 -0.12553,0.423911 -1.324706,1.49876 -1.398285,1.510861 -1.353079,0.22253 z m -0.487164,-2.118057 c 0,-0.233678 0.200857,-0.549008 0.446347,-0.700727 0.255947,-0.158184 0.331639,0.02307 0.17745,0.424868 -0.300163,0.782217 -0.623797,0.925335 -0.623797,0.275859 z m 2.319072,-1.06921 c -0.0377,-0.777887 -0.248967,-1.152447 -0.546336,-0.968661 -0.26667,0.164808 -0.215875,-0.135934 0.112879,-0.668313 0.591162,-0.957338 0.599312,-0.957857 0.74201,-0.04725 0.07935,0.506398 0.05623,1.37788 -0.05139,1.936632 -0.16428,0.852925 -0.205535,0.812433 -0.257161,-0.252407 z m -3.109227,-0.159503 c -0.310418,-0.125255 -0.564396,-0.725289 -0.564396,-1.333406 0,-2.812322 -2.900752,-7.394455 -5.731203,-9.053206 -1.69326,-0.992317 -2.737284,-1.194488 -7.754887,-1.501673 -8.202974,-0.502204 -10.913576,-1.952436 -13.640719,-7.298078 -1.229873,-2.410752 -1.66873,-6.412195 -0.816653,-7.446154 0.840137,-1.019473 4.863131,-3.566159 6.270653,-3.969529 1.006661,-0.288491 0.980152,-0.228884 -0.245002,0.550915 -3.893272,2.47803 -4.818672,5.83981 -2.734551,9.934034 2.064637,4.055947 4.668225,5.514564 9.850682,5.518686 4.824196,0.0036 8.391839,0.717031 10.715845,2.142168 3.440044,2.109518 7.467204,9.16259 6.291197,11.018248 -0.298155,0.470463 -0.387031,0.429257 -0.392382,-0.181921 -0.0036,-0.434585 -0.233154,-0.790154 -0.509676,-0.790154 -0.301794,0 -0.423297,0.541454 -0.303957,1.35455 0.109344,0.745003 0.183198,1.338509 0.164126,1.318904 -0.01905,-0.0196 -0.288659,-0.138128 -0.599077,-0.263384 z M 60.735497,52.043442 c -1.376427,-1.252061 -2.837161,-1.775622 -2.797463,-1.002679 0.02533,0.493331 2.800375,2.280142 3.594742,2.314606 0.40599,0.01761 0.08663,-0.507884 -0.797279,-1.311927 z M 49.793338,49.846519 c 0,-0.419365 -3.574678,-0.951802 -4.183896,-0.623184 -0.190302,0.102652 -0.229106,0.375779 -0.08623,0.606956 0.332791,0.538466 4.270128,0.553429 4.270128,0.01623 z M 38.582763,42.574727 c -0.848614,-2.020587 -2.171735,-2.623102 -1.420342,-0.646786 0.768366,2.020953 1.376051,2.937329 1.781634,2.686666 0.216332,-0.133701 0.05375,-1.051647 -0.361292,-2.03988 z m 46.044802,18.286527 c 0.0088,-1.950706 0.06238,-2.083574 0.394129,-0.977475 0.214028,0.713613 0.209522,1.71268 -0.0102,2.257584 -0.301121,0.746805 -0.391722,0.444717 -0.383938,-1.280109 z m 3.128836,-2.746726 c 0.02167,-0.525994 0.128655,-0.632981 0.272788,-0.272793 0.13043,0.325937 0.114392,0.715375 -0.03562,0.865409 -0.150039,0.150035 -0.256751,-0.116645 -0.237146,-0.592616 z M 84.17627,52.421962 c -0.03721,-1.909935 0.08474,-3.567263 0.270987,-3.682946 0.18625,-0.115688 0.281218,0.939028 0.211043,2.343814 -0.2203,4.409812 -0.411842,4.941938 -0.48203,1.339132 z m 4.031648,2.531948 c 0.02167,-0.525994 0.128655,-0.632981 0.272788,-0.272793 0.13043,0.325937 0.114392,0.71537 -0.03562,0.865409 -0.150039,0.150035 -0.256751,-0.116645 -0.237146,-0.592616 z m 2.709101,0 c 0.02167,-0.525994 0.128655,-0.632981 0.272788,-0.272793 0.13043,0.325937 0.114392,0.71537 -0.03562,0.865409 -0.150039,0.150035 -0.256751,-0.116645 -0.237146,-0.592616 z M 86.40185,54.502393 c 0.02167,-0.525994 0.128656,-0.632981 0.272789,-0.272793 0.13043,0.325937 0.114392,0.71537 -0.03562,0.865409 -0.150039,0.150035 -0.25675,-0.116645 -0.237146,-0.592616 z M 28.870289,43.55795 c -0.412368,-0.455661 -0.74976,-1.059562 -0.74976,-1.342 0,-1.092456 1.560854,-3.722229 2.088977,-3.519568 0.304755,0.116945 0.797017,-0.08007 1.093915,-0.437809 0.296898,-0.35774 0.698046,-0.650437 0.89144,-0.650437 0.193394,0 -0.23785,0.631036 -0.95832,1.402301 -1.288086,1.378901 -1.716407,2.661351 -0.888855,2.661351 0.2316,0 0.550066,-0.406365 0.707702,-0.903034 0.157637,-0.496668 0.448468,-0.903034 0.646292,-0.903034 0.294487,0 -1.399901,3.838975 -1.927056,4.36613 -0.08502,0.08502 -0.491967,-0.218239 -0.904335,-0.6739 z m -4.932276,-2.155532 c -0.305043,-0.305043 0.829998,-3.506778 1.705339,-4.810437 0.500677,-0.745666 0.576428,-0.739881 1.338529,0.102232 0.444301,0.490945 0.960482,0.798277 1.147072,0.682958 0.186589,-0.115318 -0.193234,0.788925 -0.844051,2.009429 -0.78822,1.478182 -1.347335,2.082966 -1.674588,1.81137 -0.295399,-0.245159 -0.670029,-0.228983 -0.939582,0.04057 -0.246564,0.246565 -0.576288,0.320311 -0.732719,0.163878 z m -3.194738,-1.907799 c -0.9594,-1.060126 -0.960922,-1.04514 0.397586,-3.916788 0.823931,-1.741648 1.386961,-2.407874 1.996125,-2.361987 0.787013,0.05928 0.763441,0.20904 -0.325325,2.066879 -0.781727,1.333916 -0.958327,1.933524 -0.528696,1.795075 0.354816,-0.114338 1.051485,-0.953707 1.548154,-1.865264 0.496668,-0.911557 1.196415,-1.770112 1.554993,-1.907902 0.517124,-0.198713 0.503572,-0.08309 -0.06553,0.55906 -0.39462,0.445271 -1.417188,2.080866 -2.272374,3.634653 -1.482406,2.693387 -1.589844,2.786437 -2.304933,1.996274 z m 10.989389,-0.290288 c 0,-0.115429 0.45716,-0.453468 1.015912,-0.751197 0.921195,-0.490855 0.958138,-0.471288 0.396231,0.209872 -0.576959,0.699408 -1.412143,1.019564 -1.412143,0.541325 z M 16.49397,38.212139 c -0.941362,-0.379848 -0.638726,-2.288576 0.821513,-5.181293 l 1.385909,-2.745471 1.068523,1.003825 1.068523,1.003825 -1.211419,2.169755 c -0.66628,1.193365 -1.27928,2.101893 -1.362221,2.018951 -0.08294,-0.08294 0.06939,-0.56224 0.338516,-1.065106 0.306709,-0.573092 0.327537,-1.01429 0.05581,-1.182226 -0.23843,-0.147358 -0.746936,0.338178 -1.130013,1.078968 -0.873129,1.688445 -0.88845,2.46504 -0.04223,2.140312 0.437304,-0.167808 0.571019,-0.03409 0.40321,0.40321 -0.262041,0.682866 -0.459617,0.733141 -1.396128,0.35525 z m 18.374062,-2.08369 c 1.507113,-1.627218 1.527995,-1.699039 0.677275,-2.329445 -0.80263,-0.594771 -1.051374,-0.488545 -2.905291,1.240698 -1.518906,1.416761 -1.688801,1.50869 -0.677275,0.366472 2.225399,-2.512929 5.724096,-5.11846 6.214514,-4.628042 0.24101,0.241011 0.769011,0.337146 1.173335,0.213634 0.598093,-0.182703 0.587836,-0.129858 -0.05502,0.283478 -1.339307,0.861133 -0.871903,1.43167 0.564396,0.688931 0.745003,-0.385255 1.354551,-0.529697 1.354551,-0.320979 0,0.208717 -0.721728,0.723653 -1.603839,1.144302 -0.882111,0.42065 -2.659958,1.722219 -3.950772,2.892376 -1.742631,1.579741 -1.946528,1.695243 -0.791874,0.448575 z M 11.414405,35.34053 c 0,-0.253847 0.811814,-2.076158 1.804032,-4.049581 l 1.804031,-3.58804 1.045368,1.001841 1.045367,1.001841 -1.117638,2.031826 c -1.225716,2.228305 -2.100847,3.395512 -1.642269,2.190376 0.563908,-1.481943 -0.55133,-1.209172 -1.276872,0.312304 -0.702957,1.474116 -1.662019,2.108539 -1.662019,1.099433 z m 18.963708,-1.106547 c 0,-0.67384 2.630519,-3.327888 3.000399,-3.027237 0.206995,0.168252 -0.01003,-0.152893 -0.482276,-0.713656 -0.719219,-0.854025 -0.979851,-0.927336 -1.605225,-0.451517 -0.410626,0.312429 -0.03937,-0.09199 0.825011,-0.898704 1.657246,-1.546684 4.839901,-3.603085 4.350254,-2.810819 -0.158032,0.255701 0.175131,0.839388 0.74036,1.297083 l 1.027691,0.832173 -1.531451,0.791944 c -0.842297,0.435569 -2.609946,1.81194 -3.928107,3.058602 -1.318161,1.246662 -2.396656,2.111621 -2.396656,1.922131 z m -1.806067,-1.818291 c 0.583244,-0.620835 1.162036,-1.128792 1.286203,-1.128792 0.124167,0 -0.251442,0.507957 -0.834687,1.128792 -0.583244,0.620836 -1.162036,1.128792 -1.286203,1.128792 -0.124167,0 0.251442,-0.507956 0.834687,-1.128792 z m -2.257585,-0.396231 c 0,-0.09376 0.35557,-0.449329 0.790155,-0.790154 0.716131,-0.561629 0.732101,-0.545659 0.170472,0.170472 -0.589847,0.752114 -0.960627,0.991296 -0.960627,0.619682 z m -5.418202,-0.451516 c 0,-0.09376 0.355569,-0.44933 0.790154,-0.790155 0.716131,-0.561629 0.732102,-0.545658 0.170473,0.170473 -0.589848,0.752113 -0.960627,0.991295 -0.960627,0.619682 z m 20.769775,-0.254398 c 0,-0.233678 0.200856,-0.549005 0.446346,-0.700726 0.255946,-0.158184 0.331642,0.02305 0.177451,0.42487 -0.300165,0.782215 -0.623797,0.925333 -0.623797,0.275856 z M 31.612259,30.779356 c 0.306279,-0.308575 0.670611,-0.447305 0.809627,-0.308289 0.139017,0.139016 -0.111575,0.391487 -0.55687,0.561045 -0.643501,0.245032 -0.695364,0.193169 -0.252757,-0.252756 z M 22.702326,29.31036 c 0,-0.09376 0.35557,-0.449329 0.790155,-0.790154 0.716131,-0.561629 0.732101,-0.545659 0.170472,0.170472 -0.589847,0.752114 -0.960627,0.991296 -0.960627,0.619682 z m -5.418202,-0.451517 c 0,-0.09376 0.35557,-0.449329 0.790155,-0.790154 0.716131,-0.561629 0.732101,-0.545659 0.170472,0.170472 -0.589848,0.752114 -0.960627,0.991296 -0.960627,0.619682 z M 30.086913,28.27036 c 0.168261,-0.293258 0.108307,-0.655334 -0.133232,-0.804614 -0.24154,-0.14928 -0.324707,-0.569684 -0.184816,-0.934233 0.311435,-0.811588 -0.197314,-0.85362 -1.191259,-0.09842 -0.408551,0.310418 0.03796,-0.156892 0.992251,-1.038465 0.954288,-0.881574 2.315277,-1.945599 3.024421,-2.3645 1.21927,-0.72024 1.347467,-0.716544 2.358573,0.06801 0.588073,0.456305 1.373997,0.736509 1.746498,0.622675 0.372501,-0.113833 -0.54182,0.540366 -2.031826,1.453777 -1.490006,0.913411 -3.199025,2.103597 -3.797821,2.644858 -0.598796,0.541261 -0.951052,0.744173 -0.782789,0.450914 z m 1.953363,-2.063024 c 1.421943,-0.968026 1.911367,-1.693189 1.142762,-1.693189 -0.523067,0 -3.557141,2.669155 -3.058623,2.690751 0.232967,0.01009 1.095105,-0.43881 1.915861,-0.997562 z M 24.9741,26.433094 c 0.0078,-0.186251 0.566556,-0.728687 1.241671,-1.205414 l 1.227482,-0.866776 -1.094618,1.205414 c -1.150259,1.266685 -1.397833,1.422805 -1.374535,0.866776 z m -0.01419,-1.693188 c 0.583244,-0.620836 1.162036,-1.128792 1.286203,-1.128792 0.124167,0 -0.251442,0.507956 -0.834686,1.128792 -0.583245,0.620835 -1.162037,1.128792 -1.286204,1.128792 -0.124167,0 0.251442,-0.507957 0.834687,-1.128792 z m 2.197063,-1.019441 c -0.570543,-0.727687 -0.549093,-0.736464 0.286279,-0.117132 0.894741,0.663346 0.895105,0.660202 0.03959,-0.342293 -0.83032,-0.972975 -0.899602,-0.981336 -1.806068,-0.217978 l -0.942627,0.79381 0.88705,-1.045654 c 0.947586,-1.117015 6.648103,-5.05446 7.300975,-5.042909 0.214937,0.0038 0.08602,0.20848 -0.28648,0.454839 -0.577921,0.382216 -0.526762,0.564753 0.348739,1.244319 l 1.026015,0.796394 -1.477532,0.854331 c -0.812641,0.469883 -2.215904,1.42911 -3.118361,2.131616 -1.534714,1.194679 -1.680717,1.226411 -2.257584,0.490657 z m -5.066766,-0.911652 c 0.780839,-0.676239 1.526733,-1.534299 1.657542,-1.906801 0.204536,-0.582451 0.242826,-0.578474 0.273481,0.0284 0.03783,0.748922 -2.203464,3.140571 -2.92392,3.120068 -0.234746,-0.0067 0.212058,-0.565433 0.992897,-1.241672 z m -1.645466,0.2095 c 0,-0.07771 0.660344,-0.738049 1.46743,-1.46743 l 1.46743,-1.326146 -1.326146,1.46743 c -1.236155,1.36785 -1.608714,1.67497 -1.608714,1.326146 z m -1.35455,-0.451517 c 0,-0.07771 0.660343,-0.738049 1.467429,-1.46743 l 1.46743,-1.326146 -1.326146,1.46743 c -1.236154,1.36785 -1.608713,1.674971 -1.608713,1.326146 z m 21.966594,-0.973048 c -0.13989,-0.364549 -0.02864,-0.802307 0.247214,-0.972797 0.303715,-0.187706 0.374478,-0.104357 0.179392,0.211299 -0.177193,0.286703 -0.106995,0.521279 0.155995,0.521279 0.26299,0 0.478164,0.203183 0.478164,0.451517 0,0.690865 -0.773714,0.536745 -1.060765,-0.211298 z M 25.08491,20.614535 c 0.174116,-0.28228 -0.0025,-0.778012 -0.392393,-1.101627 -0.56676,-0.470369 -0.905389,-0.476918 -1.688217,-0.03264 -0.538587,0.30566 -0.169808,-0.175528 0.819509,-1.069307 2.074962,-1.874584 6.102787,-4.450094 6.102787,-3.902303 0,0.204075 0.508386,0.643125 1.129745,0.975667 l 1.129745,0.604621 -1.9199,1.126056 c -1.055944,0.61933 -2.724938,1.753067 -3.708875,2.519415 -0.983936,0.766347 -1.646516,1.162403 -1.472401,0.880123 z m 8.453821,-5.324711 c 0,-0.124167 0.406365,-0.443239 0.903034,-0.709048 0.496668,-0.265808 0.903033,-0.381697 0.903033,-0.25753 0,0.124167 -0.406365,0.443238 -0.903033,0.709047 -0.496669,0.265809 -0.903034,0.381698 -0.903034,0.257531 z m -0.903034,-0.664598 c 0,-0.468874 0.858881,-1.147633 1.113293,-0.879817 0.0826,0.08695 -0.134103,0.420081 -0.481557,0.74029 -0.347455,0.320209 -0.631736,0.382996 -0.631736,0.139527 z m 4.270844,-0.977523 c -0.163689,-0.264856 -0.200781,-0.578393 -0.08243,-0.696748 0.118355,-0.118356 0.335507,0.09834 0.482559,0.481556 0.305308,0.795621 0.04508,0.935569 -0.400133,0.215192 z"
         id="path1974" />
      <path
         style="fill:#d2d2d2;stroke-width:0.451517"
         d="m 35.344798,82.78647 c 0,-0.233678 0.200856,-0.549008 0.446346,-0.700727 0.255946,-0.158184 0.331642,0.02307 0.177451,0.424869 -0.300165,0.782216 -0.623797,0.925334 -0.623797,0.275858 z m -0.677275,-5.896367 c 0.153479,-0.248335 0.368653,-0.451517 0.478164,-0.451517 0.109511,0 0.199111,0.203182 0.199111,0.451517 0,0.248334 -0.215174,0.451517 -0.478164,0.451517 -0.26299,0 -0.35259,-0.203183 -0.199111,-0.451517 z m -4.558068,-3.725014 -0.860134,-1.015913 1.015913,0.860135 c 0.954707,0.808314 1.221462,1.171691 0.860134,1.171691 -0.08568,0 -0.542839,-0.457161 -1.015913,-1.015913 z m -4.755621,-2.93486 c -0.561628,-0.716133 -0.545658,-0.732103 0.170473,-0.170475 0.434585,0.340828 0.790154,0.696397 0.790154,0.790155 0,0.371616 -0.370779,0.132434 -0.960627,-0.61968 z m 0.973369,-0.36078 c -0.862162,-0.608658 -1.330653,-1.10665 -1.041091,-1.10665 0.289562,0 1.096558,0.501536 1.793325,1.114524 1.614472,1.420346 1.265664,1.416698 -0.752234,-0.0079 z M 32.64877,69.45399 c -0.576054,-0.613182 -1.226053,-1.004444 -1.444443,-0.869472 -0.218389,0.134972 -0.341242,0.04145 -0.273005,-0.207806 0.06824,-0.249265 -0.282299,-0.765863 -0.778967,-1.147991 -0.496669,-0.382132 -0.69136,-0.701246 -0.432648,-0.709148 0.258713,-0.0079 1.367726,0.899964 2.464473,2.017468 1.096748,1.117504 1.885609,2.031826 1.753025,2.031826 -0.132585,0 -0.71238,-0.501694 -1.288435,-1.114877 z m 2.186918,-0.578312 c -0.561628,-0.716132 -0.545658,-0.732102 0.170473,-0.170474 0.434585,0.340827 0.790154,0.696397 0.790154,0.790154 0,0.371617 -0.370779,0.132435 -0.960627,-0.61968 z m -0.619682,-4.003396 c -0.993337,-0.879465 -1.399702,-1.398447 -0.903033,-1.153301 0.828591,0.408989 3.341767,2.808313 2.900686,2.76928 -0.105372,-0.0093 -1.004316,-0.736515 -1.997653,-1.615979 z m -2.992453,0.391262 c -0.561628,-0.716133 -0.545658,-0.732103 0.170473,-0.170475 0.434585,0.340827 0.790154,0.696397 0.790154,0.790154 0,0.371617 -0.370779,0.132435 -0.960627,-0.619679 z m 1.354551,-0.451517 c -0.573208,-0.730898 -0.551957,-0.740479 0.283352,-0.127766 0.496668,0.364315 0.987693,0.719885 1.091166,0.790155 0.103472,0.07027 -0.02403,0.127765 -0.283353,0.127765 -0.259316,0 -0.75034,-0.355569 -1.091165,-0.790154 z m -19.58339,-0.564396 c 0.153479,-0.248335 0.368653,-0.451517 0.478164,-0.451517 0.109511,0 0.199111,0.203182 0.199111,0.451517 0,0.248334 -0.215174,0.451517 -0.478164,0.451517 -0.26299,0 -0.35259,-0.203183 -0.199111,-0.451517 z m 3.657875,-0.377509 c -0.114916,-0.185939 0.183351,-0.367621 0.662815,-0.403737 1.036938,-0.07811 1.128163,0.134723 0.208938,0.487462 -0.364548,0.139889 -0.756837,0.102214 -0.871753,-0.08373 z m -5.202538,-0.385997 c -0.05279,-0.796341 0.594579,-1.046824 1.340463,-0.518658 0.542018,0.383803 0.523765,0.422182 -0.105266,0.221329 -0.418541,-0.133644 -0.859661,-4.24e-4 -0.980267,0.296046 -0.169056,0.415563 -0.227449,0.415856 -0.25493,0.0014 z M 31.95387,62.434199 c -0.155983,-0.252384 -0.523543,-0.314974 -0.816801,-0.139085 -0.373063,0.223749 -0.364869,0.111782 0.02728,-0.372818 0.308263,-0.380935 0.409855,-0.85888 0.225759,-1.062094 -0.184096,-0.203218 -0.06722,-0.214971 0.259715,-0.02614 0.32694,0.188847 0.482485,0.455315 0.345656,0.592142 -0.136829,0.136828 0.103631,0.516386 0.534357,0.843461 0.435735,0.33088 0.544589,0.60105 0.245387,0.609042 -0.295762,0.0079 -0.665371,-0.192139 -0.821354,-0.444523 z M 16.38109,61.087013 c 0,-0.248335 0.203183,-0.451517 0.451517,-0.451517 0.248335,0 0.451517,0.203182 0.451517,0.451517 0,0.248334 -0.203182,0.451517 -0.451517,0.451517 -0.248334,0 -0.451517,-0.203183 -0.451517,-0.451517 z m 4.515169,-0.929683 c 0,-0.26299 0.203183,-0.352589 0.451517,-0.199109 0.248334,0.153479 0.451517,0.368654 0.451517,0.478165 0,0.109511 -0.203183,0.19911 -0.451517,0.19911 -0.248334,0 -0.451517,-0.215175 -0.451517,-0.478166 z m -0.225758,-1.327902 c -0.15348,-0.248334 -0.06388,-0.451516 0.199111,-0.451516 0.26299,0 0.478164,0.203182 0.478164,0.451516 0,0.248335 -0.0896,0.451517 -0.199111,0.451517 -0.109512,0 -0.324685,-0.203182 -0.478164,-0.451517 z M 8.7765961,57.926395 c 0,-0.620836 0.1024821,-0.874814 0.2277388,-0.564396 0.1252562,0.310417 0.1252562,0.818374 0,1.128792 -0.1252567,0.310418 -0.2277388,0.05644 -0.2277388,-0.564396 z m 2.6734549,0.188133 c 0.02166,-0.525994 0.128656,-0.632981 0.272791,-0.272793 0.130431,0.325937 0.11439,0.715375 -0.03565,0.865409 -0.150035,0.150035 -0.256751,-0.116645 -0.237145,-0.592616 z m 1.841714,-0.63965 c 0,-0.620836 0.102482,-0.874814 0.227738,-0.564396 0.125257,0.310418 0.125257,0.818374 0,1.128792 -0.125256,0.310418 -0.227738,0.05644 -0.227738,-0.564396 z m 2.673454,0.188133 c 0.02166,-0.525994 0.128656,-0.632981 0.272792,-0.272793 0.13043,0.325937 0.114389,0.71537 -0.03565,0.865409 -0.150036,0.150035 -0.256751,-0.116645 -0.237146,-0.592616 z m 1.806068,-0.451516 c 0.02166,-0.525995 0.128656,-0.632982 0.272791,-0.272793 0.130431,0.325936 0.11439,0.715369 -0.03565,0.865408 -0.150035,0.150035 -0.256751,-0.116644 -0.237145,-0.592615 z m 2.709101,0 c 0.02166,-0.525995 0.128656,-0.632982 0.272792,-0.272793 0.13043,0.325936 0.114389,0.715369 -0.03565,0.865408 -0.150035,0.150035 -0.256751,-0.116644 -0.237145,-0.592615 z m 4.101017,-0.941571 c -0.143791,-2.135083 -0.94223,-3.660885 -0.962315,-1.838961 -0.01247,1.131538 -0.09636,1.193897 -0.916764,0.681547 -0.742517,-0.463712 -0.903033,-1.052951 -0.903033,-3.314951 0,-1.513046 0.137313,-2.888308 0.305141,-3.056137 0.676171,-0.676169 2.403993,1.671552 2.414732,3.281078 0.0059,0.887967 0.199125,2.427039 0.429336,3.420155 0.230211,0.99312 0.266835,1.957402 0.08139,2.142849 -0.185447,0.185452 -0.387265,-0.406564 -0.448484,-1.31558 z m -0.940399,0.490054 c 0.02166,-0.525995 0.128656,-0.632982 0.272792,-0.272793 0.13043,0.325936 0.114389,0.715369 -0.03565,0.865409 -0.150035,0.150034 -0.256751,-0.116645 -0.237145,-0.592616 z M 10.273707,56.10717 C 9.8149246,55.600221 9.1727588,55.287825 8.846672,55.412958 8.3836947,55.590617 8.2607404,54.777913 8.2855219,51.703869 c 0.034365,-4.263041 0.4390057,-6.130145 1.0975873,-5.064538 0.2101355,0.340006 0.3320455,1.698002 0.270911,3.017767 -0.068369,1.475941 0.075244,2.399578 0.3730988,2.399578 0.266339,0 0.513206,-0.863526 0.548594,-1.918947 0.03539,-1.055421 0.2218,0.01111 0.414248,2.370107 0.192448,2.358977 0.297704,4.341253 0.233901,4.405057 -0.0638,0.0638 -0.491372,-0.298773 -0.950155,-0.805723 z m 18.831845,-0.02334 c -0.308605,-0.494158 -1.062849,-1.127077 -1.676096,-1.406493 -0.983005,-0.447887 -1.114995,-0.793415 -1.114995,-2.918894 0,-1.841981 0.159815,-2.410866 0.677276,-2.410866 0.511718,0 0.677275,0.551853 0.677275,2.257585 0,2.595955 0.880948,3.121358 0.946327,0.564396 0.0332,-1.298707 0.176896,-0.956819 0.616742,1.46743 0.315398,1.738339 0.542203,3.202171 0.504011,3.252962 -0.03819,0.05079 -0.321934,-0.311962 -0.63054,-0.80612 z M 14.788876,55.655653 c -0.458783,-0.506949 -1.100949,-0.819345 -1.427035,-0.694211 -0.456085,0.175017 -0.591463,-0.524532 -0.58672,-3.031814 0.0069,-3.62201 0.343202,-5.407578 0.948201,-5.033673 0.220102,0.136033 0.400184,1.04807 0.400184,2.026751 0,1.857414 0.857217,2.535954 0.964559,0.763506 0.03384,-0.558752 0.227109,0.704118 0.42949,2.806381 0.202381,2.102262 0.308904,3.881356 0.236718,3.95354 -0.07219,0.07219 -0.506615,-0.28353 -0.965397,-0.79048 z m 4.34004,-0.496768 c -0.854201,-0.692496 -1.170223,-0.75736 -1.460515,-0.299771 -0.425893,0.671334 -0.530457,-5.959778 -0.111206,-7.052327 0.35972,-0.937412 1.08148,-0.461767 1.08148,0.71271 0,0.594819 0.219388,0.840503 0.614983,0.688699 0.473205,-0.181582 0.675148,0.559524 0.875955,3.214646 0.143534,1.897847 0.22236,3.488686 0.175171,3.535192 -0.04719,0.04651 -0.57633,-0.313109 -1.175868,-0.799149 z m 57.486776,-33.015201 -0.860135,-1.015913 1.015913,0.860134 c 0.954705,0.808314 1.221461,1.171692 0.860135,1.171692 -0.08568,0 -0.542841,-0.457161 -1.015913,-1.015913 z"
         id="path1972" />
      <path
         style="fill:#c8c8c8;stroke-width:0.451517"
         d="M 9.5507443,94.160622 C 8.9891156,93.44449 9.0050858,93.428519 9.7212168,93.990148 c 0.4345852,0.340827 0.7901542,0.696397 0.7901542,0.790154 0,0.371617 -0.370779,0.132435 -0.9606267,-0.61968 z m 19.9243347,0.61968 c 0,-0.09376 0.35557,-0.449327 0.790155,-0.790154 0.716131,-0.561629 0.732101,-0.545658 0.170472,0.170474 -0.589847,0.752115 -0.960627,0.991297 -0.960627,0.61968 z m -6.095477,-4.344694 c 0.449478,-0.496668 0.918825,-0.903033 1.042992,-0.903033 0.124167,0 -0.141997,0.406365 -0.591475,0.903033 -0.449479,0.496669 -0.918826,0.903034 -1.042993,0.903034 -0.124167,0 0.141997,-0.406365 0.591476,-0.903034 z m -8.170203,-1.918946 -0.860134,-1.015913 1.015912,0.860135 c 0.954708,0.808314 1.221462,1.171691 0.860135,1.171691 -0.08568,0 -0.54284,-0.457161 -1.015913,-1.015913 z m 0.0429,-8.917458 c 0.449479,-0.496669 0.918826,-0.903034 1.042993,-0.903034 0.124167,0 -0.141997,0.406365 -0.591476,0.903034 -0.449479,0.496668 -0.918825,0.903034 -1.042993,0.903034 -0.124167,0 0.141998,-0.406366 0.591476,-0.903034 z m 8.987438,-0.112879 -0.860134,-1.015913 1.015913,0.860135 c 0.954707,0.808314 1.221462,1.171691 0.860134,1.171691 -0.08568,0 -0.542839,-0.457161 -1.015913,-1.015913 z M 9.1568207,74.462044 c 0,-0.09376 0.3555695,-0.449327 0.7901545,-0.790155 0.7161308,-0.561628 0.7321008,-0.545658 0.1704728,0.170475 C 9.5276,74.594478 9.1568207,74.83366 9.1568207,74.462044 Z M 85.011653,69.963017 c 0,-1.970609 0.05778,-2.074819 0.869346,-1.567987 0.812825,0.507618 0.82377,0.63262 0.168334,1.922771 -1.007542,1.983238 -1.03768,1.972934 -1.03768,-0.354784 z M 66.250938,65.446462 c -0.205242,-0.817751 -0.03973,-1.603675 0.514661,-2.443794 l 0.817205,-1.23838 0.33475,1.580309 c 0.263605,1.244435 0.15422,1.763833 -0.514661,2.443794 -0.835343,0.849173 -0.854433,0.843506 -1.151955,-0.341929 z M 30.188985,38.57044 c -0.153328,-0.248091 0.791618,-1.580369 2.09988,-2.960619 2.177217,-2.297019 2.450046,-2.454572 3.221618,-1.860414 0.804301,0.619361 0.762887,0.74129 -0.903033,2.658636 -1.076099,1.238506 -1.865346,1.817808 -2.057067,1.509873 -0.21193,-0.340391 -0.593381,-0.244146 -1.196846,0.301983 -0.532634,0.482027 -0.996917,0.62178 -1.164552,0.350541 z m -3.14356,-1.806013 c -0.706194,-0.780335 -0.73575,-1.02747 -0.211532,-1.768745 0.831805,-1.17622 3.177855,-3.761916 4.29012,-4.72835 0.87731,-0.762284 0.947884,-0.753627 1.777034,0.217977 0.741651,0.869071 0.749168,0.923136 0.0533,0.383295 -0.723131,-0.560988 -0.951516,-0.46316 -2.126355,0.910815 -1.26694,1.481686 -1.834276,3.018894 -0.901393,2.442341 0.836999,-0.517294 0.435769,0.441218 -0.816527,1.950629 -1.236672,1.490578 -1.248427,1.493949 -2.064644,0.592038 z m -4.118632,-3.597498 c -0.364145,-0.364145 2.705178,-4.249403 4.562963,-5.77596 2.004128,-1.646808 2.678887,-1.90126 2.279109,-0.859456 -0.139891,0.364549 -0.05318,0.787145 0.192693,0.939102 0.741659,0.45837 -4.559274,5.845085 -5.775854,5.869321 -0.585581,0.01167 -1.152091,-0.06619 -1.258911,-0.173007 z m -3.186924,-1.910524 c -0.763294,-0.843431 -0.719515,-0.968488 1.197985,-3.422087 1.094627,-1.400665 2.822106,-3.228837 3.838842,-4.062603 1.804155,-1.479482 1.867299,-1.49529 2.625636,-0.657337 0.583881,0.645182 0.640139,0.9432 0.22633,1.198949 -0.339179,0.209624 -0.434358,0.152113 -0.247807,-0.149734 0.654467,-1.05895 -0.614305,-0.946177 -1.944136,0.172801 -1.083164,0.911423 -1.290909,1.321176 -0.905365,1.785728 0.386062,0.465176 -0.01355,1.220421 -1.749441,3.306299 -2.197536,2.640606 -2.268202,2.68307 -3.042044,1.827984 z M 15.9168,28.788166 c -0.837659,-1.009317 0.06568,-2.4945 3.900182,-6.412331 3.239015,-3.309399 4.157754,-3.789678 5.09321,-2.662521 0.389718,0.46958 0.34891,0.753029 -0.170472,1.184078 -0.469308,0.38949 -0.682843,0.408224 -0.682843,0.05991 0,-0.903655 -1.156108,-0.537586 -2.398868,0.759576 -1.242903,1.29731 -1.576822,2.345756 -0.7471,2.345756 0.474356,0 -3.617633,5.329748 -4.135895,5.386936 -0.155844,0.0172 -0.54204,-0.280433 -0.858214,-0.6614 z"
         id="path1970" />
      <path
         style="fill:#bababa;stroke-width:0.451517"
         d="m 88.480255,61.318221 c -0.758287,-0.555546 -0.7794,-0.884558 -0.277132,-4.319572 0.309618,-2.117487 0.441023,-5.729572 0.30523,-8.390226 -0.251355,-4.924897 -0.248249,-4.930371 1.78984,-3.158273 0.921803,0.801495 1.032975,1.297207 1.018942,4.543247 -0.01598,3.691692 -0.931678,9.997428 -1.63296,11.244752 -0.323313,0.575056 -0.51123,0.587554 -1.20392,0.08007 z m 1.498083,-11.51913 c 0,-1.241671 -0.203183,-2.257584 -0.451517,-2.257584 -0.248334,0 -0.451517,1.015913 -0.451517,2.257584 0,1.241672 0.203183,2.257585 0.451517,2.257585 0.248334,0 0.451517,-1.015913 0.451517,-2.257585 z m -5.111275,9.538294 c -0.484387,-2.404946 -0.369304,-7.280709 0.171848,-7.280709 0.27715,0 0.419757,-0.71304 0.338637,-1.693189 -0.08764,-1.058843 -0.351587,-1.650899 -0.704533,-1.580309 -0.424006,0.0848 -0.564396,-1.115937 -0.564396,-4.827159 0,-2.717021 0.152387,-5.034904 0.338638,-5.150852 0.18625,-0.115947 0.272946,1.261213 0.192662,3.060356 -0.139785,3.132414 -0.09394,3.305265 1.080764,4.074961 l 1.22674,0.803793 -0.280099,4.800902 c -0.154053,2.640498 -0.553076,5.81682 -0.886716,7.058491 l -0.606617,2.257584 z m 1.118913,-14.956496 c 0,-0.620836 0.102486,-0.874814 0.227741,-0.564396 0.125255,0.310418 0.125255,0.818374 0,1.128792 -0.125255,0.310418 -0.227741,0.05644 -0.227741,-0.564396 z m 4.515169,-0.451517 c 0,-0.620836 0.102485,-0.874814 0.22774,-0.564396 0.125256,0.310418 0.125256,0.818374 0,1.128792 -0.125255,0.310418 -0.22774,0.05644 -0.22774,-0.564396 z m -22.116732,-4.453536 -0.07888,-2.421711 -1.374431,0.201724 c -0.755934,0.110948 -1.479065,0.03242 -1.606957,-0.174512 -0.127888,-0.206929 0.496984,-0.376235 1.388603,-0.376235 1.886975,0 2.170424,0.474176 1.925914,3.221842 -0.169635,1.906246 -0.177938,1.891513 -0.254245,-0.451108 z m 19.342793,-2.957791 c 0.292407,-0.292411 0.597722,-0.292411 0.890129,0 0.292412,0.292411 0.139758,0.445067 -0.445064,0.445067 -0.584823,0 -0.737476,-0.152656 -0.445065,-0.445067 z M 38.298875,30.866476 c -0.609922,-0.986873 9.561962,-4.371684 10.454719,-3.478928 0.157967,0.15797 -0.164343,0.287217 -0.71625,0.287217 -0.974438,0 -0.968127,0.0304 0.2182,1.050829 l 1.22166,1.050829 -2.889672,0.488993 c -1.589319,0.268945 -3.278572,0.643331 -3.753895,0.831968 -0.581705,0.230856 -0.763801,0.180489 -0.557031,-0.154071 0.537377,-0.869496 -0.461277,-1.027264 -2.118759,-0.334723 -0.910711,0.380519 -1.714285,0.491995 -1.858972,0.257886 z M 51.825164,29.93235 c -1.249623,-0.317975 -1.26711,-0.348277 -0.225759,-0.391182 0.620836,-0.02558 1.433566,0.150453 1.806068,0.391182 0.768454,0.496614 0.371354,0.496614 -1.580309,0 z M 37.037987,27.493763 c -0.434585,-0.327704 -0.790155,-0.735161 -0.790155,-0.905459 0,-1.069002 10.172322,-4.231319 12.048642,-3.745618 0.507107,0.13127 0.303148,0.238318 -0.534962,0.280772 l -1.354551,0.06862 1.271964,1.040788 1.271959,1.040789 -3.057106,0.506579 c -1.681408,0.278618 -3.151181,0.412504 -3.266161,0.297523 -0.11498,-0.11498 0.129583,-0.209054 0.543473,-0.209054 0.413891,0 0.752529,-0.203183 0.752529,-0.451517 0,-0.592449 -1.321153,-0.573584 -3.093242,0.04417 -1.540529,0.537031 -1.905508,1.301978 -0.631772,1.324111 0.664999,0.01155 0.682879,0.07442 0.112879,0.3969 -1.385407,0.783797 -2.5057,0.890368 -3.273497,0.311401 z m 14.928276,-0.127435 c 0.325936,-0.13043 0.715369,-0.114389 0.865408,0.03565 0.150035,0.150036 -0.116644,0.256751 -0.592615,0.237146 -0.525995,-0.02166 -0.632982,-0.128656 -0.272793,-0.272792 z m 3.245277,-1.49763 c -0.372501,-0.240729 -0.474093,-0.437689 -0.225758,-0.437689 0.248334,0 0.75629,0.19696 1.128792,0.437689 0.372501,0.240729 0.474092,0.437689 0.225758,0.437689 -0.248334,0 -0.756291,-0.19696 -1.128792,-0.437689 z m -3.38318,-0.897862 c -0.158184,-0.255947 0.02307,-0.331642 0.424869,-0.177451 0.782217,0.300164 0.925334,0.623796 0.275858,0.623796 -0.233678,0 -0.549008,-0.200855 -0.700727,-0.446345 z m 1.492453,-0.765126 c 0.325937,-0.13043 0.71537,-0.114389 0.865409,0.03565 0.150035,0.150036 -0.116645,0.256751 -0.592616,0.237146 -0.525994,-0.02166 -0.632981,-0.128656 -0.272793,-0.272792 z m 10.816515,-0.219138 c 0.262377,-0.262377 0.743567,-0.388211 1.06931,-0.27963 0.338163,0.11272 0.133491,0.31739 -0.47705,0.47705 -0.751031,0.196398 -0.927317,0.137637 -0.59226,-0.19742 z M 34.995824,23.151838 c -0.965893,-0.782132 -0.955202,-0.79456 1.713863,-1.992365 3.602982,-1.616922 6.439787,-2.403383 9.697274,-2.688421 1.490006,-0.130379 2.105265,-0.0929 1.367239,0.08328 l -1.341861,0.32033 1.298957,0.946225 1.29896,0.946225 -2.38027,0.315754 c -1.309148,0.173664 -2.492005,0.204017 -2.628571,0.06745 -0.136566,-0.136567 0.09034,-0.248303 0.504226,-0.248303 0.413891,0 0.752528,-0.221041 0.752528,-0.491204 0,-0.326684 -0.642715,-0.384853 -1.918946,-0.173674 -2.330037,0.385553 -2.616511,0.537376 -2.3468,1.243734 0.129324,0.338691 -0.799238,0.916408 -2.41733,1.503974 -2.508605,0.910932 -2.671229,0.918477 -3.599269,0.166995 z m 31.418978,0.150838 c 0.325937,-0.13043 0.71537,-0.114389 0.865409,0.03565 0.150034,0.150036 -0.116645,0.256751 -0.592616,0.237146 -0.525995,-0.02166 -0.632981,-0.128656 -0.272793,-0.272792 z m 5.170432,-0.01556 c 0.686333,-0.103783 1.702246,-0.101009 2.257585,0.0062 0.555338,0.107173 -0.0062,0.192086 -1.24788,0.188696 -1.241671,-0.0034 -1.696037,-0.09108 -1.009705,-0.19486 z m 6.416777,-1.04217 c -0.800065,-0.835088 -1.578873,-1.263493 -2.003425,-1.102042 -0.555885,0.211398 -0.582046,0.150794 -0.13103,-0.303563 0.451918,-0.455266 0.854301,-0.290241 2.031826,0.833288 0.807569,0.770539 1.874675,1.49835 2.371344,1.617357 0.879442,0.210724 0.878697,0.217746 -0.0284,0.268754 -0.512291,0.02881 -1.520429,-0.5624 -2.240309,-1.313794 z M 51.938043,22.86057 c 0.310418,-0.125256 0.818374,-0.125256 1.128792,0 0.310418,0.125256 0.05644,0.227739 -0.564396,0.227739 -0.620836,0 -0.874814,-0.102483 -0.564396,-0.227739 z m 26.935233,-1.619916 -0.860135,-1.015913 1.015913,0.860134 c 0.954706,0.808314 1.221462,1.171692 0.860135,1.171692 -0.08568,0 -0.54284,-0.457161 -1.015913,-1.015913 z m -36.388867,0.255959 c 0.325938,-0.13043 0.715372,-0.114389 0.865407,0.03565 0.150035,0.150035 -0.116642,0.256751 -0.592616,0.237146 -0.525991,-0.02166 -0.632981,-0.128656 -0.272791,-0.272792 z m 13.178648,-0.14308 c -0.406948,-0.26299 -0.462638,-0.440448 -0.139528,-0.444602 0.295762,-0.0038 0.663324,0.196268 0.816803,0.444602 0.346449,0.56057 0.190143,0.56057 -0.677275,0 z m -2.257584,-0.478164 c 0,-0.26299 0.203182,-0.35259 0.451516,-0.199111 0.248335,0.153479 0.451517,0.368653 0.451517,0.478164 0,0.109511 -0.203182,0.199111 -0.451517,0.199111 -0.248334,0 -0.451516,-0.215174 -0.451516,-0.478164 z M 32.974335,19.507606 c -0.434585,-0.251093 -0.790155,-0.61954 -0.790155,-0.818772 0,-0.542477 5.725925,-3.068525 8.707229,-3.84128 1.436464,-0.372332 3.773063,-0.761542 5.192444,-0.864913 1.419382,-0.10337 2.021941,-0.0998 1.339021,0.0079 -1.501642,0.236904 -1.534311,0.434235 -0.244762,1.478449 0.991865,0.803162 0.984437,0.808854 -1.467429,1.124306 -2.383511,0.306658 -5.212246,0.931393 -6.561353,1.449093 -0.45908,0.176166 -0.570899,0.03406 -0.374969,-0.476524 0.328753,-0.856715 -0.07982,-0.903901 -2.007635,-0.231862 -1.54053,0.537032 -1.905508,1.301979 -0.631773,1.324112 0.665,0.01155 0.682879,0.07442 0.112879,0.3969 -1.310045,0.74116 -2.491325,0.904468 -3.273497,0.452547 z m 31.267542,-0.137595 c 0,-0.0976 0.315326,-0.298454 0.700727,-0.446345 0.401814,-0.154192 0.583053,-0.0785 0.424869,0.177451 -0.265158,0.429033 -1.125596,0.634583 -1.125596,0.268894 z M 51.712284,18.333186 c 0.434585,-0.113569 1.145724,-0.113569 1.580309,0 0.434585,0.113569 0.07902,0.206489 -0.790154,0.206489 -0.86917,0 -1.22474,-0.09292 -0.790155,-0.206489 z m 2.060046,-1.803263 c 0.325937,-0.13043 0.71537,-0.114389 0.865409,0.03565 0.150034,0.150035 -0.116645,0.256751 -0.592616,0.237145 -0.525995,-0.02166 -0.632981,-0.128655 -0.272793,-0.272791 z m -2.709101,-0.451517 c 0.325936,-0.13043 0.71537,-0.114389 0.865409,0.03565 0.150034,0.150035 -0.116645,0.256751 -0.592616,0.237145 -0.525995,-0.02166 -0.632982,-0.128655 -0.272793,-0.272791 z M 30.606071,15.225864 c -1.102153,-0.832877 -0.946049,-0.953319 3.831165,-2.95591 3.600075,-1.50914 11.245369,-3.2770436 12.825874,-2.9658654 0.579707,0.1141358 0.354287,0.2109893 -0.578402,0.248514 l -1.528321,0.061488 1.263419,0.9938054 1.263417,0.993805 -4.92754,0.987662 c -2.710148,0.543214 -5.333907,1.131082 -5.830576,1.306372 -0.7052,0.248888 -0.757523,0.215841 -0.238834,-0.150849 1.123982,-0.794605 0.166784,-1.089978 -1.64986,-0.509116 -2.167706,0.693113 -2.819623,1.258572 -2.020446,1.75249 0.473523,0.292653 0.441457,0.430136 -0.153582,0.658474 -1.030614,0.395484 -1.223682,0.359471 -2.256314,-0.42087 z m 34.286501,-0.444237 c -0.841637,-0.674292 -0.836101,-0.682629 0.13946,-0.209873 0.558752,0.270771 1.015913,0.586754 1.015913,0.702184 0,0.34551 -0.234162,0.245733 -1.155373,-0.492311 z m 1.410159,-0.520015 c -0.245029,-0.643501 -0.193168,-0.695364 0.252759,-0.252757 0.308576,0.306279 0.447304,0.670611 0.308287,0.809628 -0.139018,0.139016 -0.391488,-0.111576 -0.561046,-0.556871 z m -10.272817,0.01073 c 0.325937,-0.13043 0.71537,-0.114389 0.865409,0.03565 0.150035,0.150036 -0.116645,0.256751 -0.592616,0.237146 -0.525994,-0.02166 -0.632981,-0.128656 -0.272793,-0.272792 z m -4.31763,-0.454323 c 0.434585,-0.113568 1.145724,-0.113568 1.580309,0 0.434585,0.113569 0.07902,0.206489 -0.790154,0.206489 -0.86917,0 -1.22474,-0.09292 -0.790155,-0.206489 z m 10.526795,-0.272626 c 0.169558,-0.445296 0.422029,-0.695888 0.561046,-0.556871 0.139018,0.139016 2.89e-4,0.503348 -0.308287,0.809627 -0.445927,0.442608 -0.497788,0.390744 -0.252759,-0.252756 z M 56.481431,9.7571704 c 0.325937,-0.1304301 0.71537,-0.114389 0.865409,0.035647 0.150035,0.1500354 -0.116645,0.2567516 -0.592616,0.2371456 C 56.22823,10.0083 56.121243,9.9013077 56.481431,9.7571718 Z M 52.841077,9.31506 c 0.310417,-0.1252562 0.818374,-0.1252562 1.128792,0 0.310418,0.1252567 0.05644,0.2277388 -0.564396,0.2277388 -0.620836,0 -0.874814,-0.1024821 -0.564396,-0.2277388 z"
         id="path1968" />
      <path
         style="fill:#b4b4b4;stroke-width:0.451517"
         d="m 34.554644,89.233544 c -0.598639,-0.241557 -0.800987,-1.544395 -0.225759,-1.453568 0.904735,0.142855 1.070857,-0.120903 0.506803,-0.804666 -0.561906,-0.681159 -0.524963,-0.700727 0.396231,-0.209874 0.632348,0.336944 1.015913,0.961514 1.015913,1.654231 0,1.068727 -0.484476,1.301601 -1.693188,0.813877 z m 0.677275,-4.527382 c -0.963717,-0.251843 -1.057579,-1.494823 -0.112879,-1.494823 0.896307,0 0.856133,-0.433064 -0.112879,-1.216802 -0.71308,-0.576745 -0.691059,-0.591063 0.225758,-0.14677 0.714401,0.346196 1.015913,0.88961 1.015913,1.830973 0,0.736266 -0.0508,1.315097 -0.112879,1.28629 -0.06208,-0.02881 -0.468449,-0.145298 -0.903034,-0.258868 z m -0.677275,-5.553526 c -0.807087,-0.492091 -1.46743,-1.201857 -1.46743,-1.577262 0,-0.3754 -1.473074,-2.255977 -3.273497,-4.179059 l -3.273497,-3.49651 2.85191,2.595996 c 1.56855,1.4278 3.430031,2.894959 4.136624,3.260349 0.922117,0.476847 1.220609,0.90949 1.057585,1.532899 -0.157718,0.603114 0.06146,0.960142 0.717181,1.16826 0.519372,0.164844 0.944312,0.590796 0.944312,0.946564 0,0.809245 0.06096,0.818289 -1.693188,-0.251237 z M 33.651137,73.416105 C 28.272746,69.816468 23.982751,63.183627 22.470283,56.129186 c -0.299155,-1.395318 -0.257463,-1.505511 0.371973,-0.983124 0.38989,0.32358 0.771885,1.030732 0.848877,1.571451 0.07699,0.540718 0.444759,0.983123 0.817261,0.983123 0.397486,0 1.094578,1.025892 1.687424,2.483343 0.555582,1.365838 1.649767,3.397664 2.431522,4.515169 0.954295,1.364149 1.103652,1.748354 0.454512,1.169184 -0.531773,-0.474449 -1.087724,-0.741774 -1.235447,-0.594051 -0.418247,0.418249 2.104443,3.488518 2.866342,3.488518 0.580652,0 0.589635,-0.114419 0.06203,-0.790154 -0.339315,-0.434585 0.29615,0.02258 1.412145,1.015913 1.115993,0.993337 2.502751,2.112859 3.081684,2.48783 0.80766,0.52311 1.017799,1.012753 0.903033,2.104146 l -0.14957,1.422386 z M 12.607994,68.865 C 10.546959,64.748218 8.1698428,56.053765 8.9044729,55.319138 c 0.5807961,-0.5808 2.3926971,1.867537 2.8539471,3.856401 0.272613,1.175479 0.646035,2.526133 0.829828,3.001453 0.224042,0.579419 0.170366,0.762992 -0.16288,0.557032 -0.893681,-0.552322 -1.001507,0.449711 -0.253344,2.354345 0.751064,1.912025 1.320406,2.358069 1.579737,1.237625 0.08029,-0.346905 0.580187,0.342083 1.110875,1.531085 l 0.964888,2.161818 -1.075573,0.490062 c -0.99904,0.455193 -1.151595,0.338218 -2.143957,-1.643959 z m 11.594681,1.250458 c -1.888531,-0.761122 -6.894728,-12.666515 -6.384258,-15.182597 0.120308,-0.592991 0.339891,-0.549519 1.384654,0.274129 1.220997,0.96258 1.675779,2.267888 0.790154,2.267888 -0.66289,0 -0.551858,1.157536 0.293735,3.062241 0.574081,1.293122 0.791049,1.487062 0.944644,0.844378 0.143583,-0.600789 0.504749,-0.175225 1.290363,1.520442 0.600034,1.295113 1.683729,3.23305 2.408211,4.306532 0.884572,1.310685 1.08195,1.861486 0.60091,1.676897 -0.557175,-0.213811 -0.659438,-0.05733 -0.460266,0.704308 0.140835,0.538555 0.22429,0.966313 0.185455,0.950569 -0.03884,-0.01576 -0.512955,-0.206894 -1.053602,-0.424787 z M 17.525651,68.64992 c -1.794802,-2.558344 -4.901608,-12.986704 -4.10601,-13.782299 0.454658,-0.45466 2.402206,1.73033 2.653956,2.977519 0.134339,0.665527 0.381812,1.565616 0.549939,2.000201 0.213375,0.551546 0.08657,0.790155 -0.419897,0.790155 -0.88645,0 -0.889606,0.08795 -0.07327,2.041737 0.403553,0.965835 0.881402,1.473304 1.25303,1.330696 0.391194,-0.150115 1.107098,0.796377 2.052569,2.713694 l 1.451856,2.94421 h -1.324733 c -0.861611,0 -1.573893,-0.355159 -2.037444,-1.015913 z m 15.964524,-1.305051 c -1.392545,-1.395187 -3.152778,-3.627942 -3.911632,-4.961678 -1.315284,-2.311698 -3.099069,-7.481417 -2.714217,-7.866268 0.543524,-0.543522 2.354967,1.596455 3.646346,4.307674 0.811004,1.702679 1.330175,3.006552 1.153713,2.897492 -0.861541,-0.53246 -0.670988,0.750855 0.330283,2.224357 1.127845,1.659772 1.99558,2.138782 1.99558,1.101602 0,-0.304774 0.523141,-0.03097 1.162536,0.608401 0.884537,0.884535 1.127474,1.528719 1.015913,2.693831 l -0.146623,1.531297 z"
         id="path1966" />
      <path
         style="fill:#acacac;stroke-width:0.451517"
         d="m 85.355984,45.617895 c -0.516996,-0.402733 -0.763249,-1.536173 -0.877939,-4.040967 -0.08767,-1.914679 -0.02212,-3.235366 0.145619,-2.934859 0.357267,0.639969 1.757435,7.22898 1.574945,7.411472 -0.06825,0.06825 -0.44743,-0.127794 -0.842625,-0.435646 z m 4.05049,-0.898368 c -0.711144,-0.620759 -1.420924,-1.981846 -1.824783,-3.499256 -0.363521,-1.365838 -0.797207,-2.81221 -0.963754,-3.214158 -0.213955,-0.516375 -0.0074,-0.80808 0.704118,-0.994133 0.553813,-0.144825 1.151653,-0.173873 1.328539,-0.06455 0.508792,0.31445 2.498897,8.788012 2.06396,8.788012 -0.07933,0 -0.667969,-0.457161 -1.30808,-1.015913 z M 67.1877,39.298469 c -1.312655,-2.155076 -1.312357,-2.14185 -0.04859,-2.14185 1.059809,0 1.166417,0.165071 1.166417,1.806068 0,0.993337 -0.0508,1.804783 -0.112879,1.803212 -0.06208,-0.0016 -0.51431,-0.661913 -1.00495,-1.46743 z m -7.666174,-7.123472 c -0.733688,-0.468578 -2.308805,-1.1018 -3.500254,-1.40716 -1.402203,-0.359374 -1.966857,-0.684259 -1.600884,-0.921102 0.884214,-0.57223 -0.482676,-1.253891 -2.530653,-1.262022 -1.364105,-0.0054 -1.685174,0.139854 -1.481598,0.670361 0.386891,1.00823 -0.54052,0.820052 -1.996545,-0.405113 l -1.286349,-1.08239 1.525852,-0.28625 c 1.922568,-0.360676 6.81222,0.404343 9.612997,1.504019 1.891996,0.742858 2.170889,1.029449 2.407452,2.473909 0.147158,0.898545 0.248749,1.618866 0.225758,1.600713 -0.02298,-0.01815 -0.642093,-0.416387 -1.375776,-0.884965 z m -1.149368,-5.397622 c -1.117504,-0.442065 -2.031826,-1.073719 -2.031826,-1.403674 0,-0.690114 -3.053211,-1.535533 -4.09784,-1.134671 -0.385176,0.147806 -0.57386,0.473357 -0.419301,0.723445 0.57967,0.937926 -2.717807,0.441675 -4.027251,-0.606076 l -1.320121,-1.056297 1.861431,-0.297655 c 2.347662,-0.375406 7.482989,0.338591 10.786661,1.499739 1.39455,0.490145 2.622712,0.978339 2.729252,1.084875 0.231764,0.231766 -0.889068,2.108069 -1.219154,2.040887 -0.126515,-0.02575 -1.144347,-0.408507 -2.261851,-0.850573 z m 3.845163,-3.255734 c -0.492668,-0.288815 -2.016538,-0.883865 -3.386377,-1.322334 -1.369834,-0.438468 -2.135042,-0.808141 -1.700457,-0.821496 0.434585,-0.01336 0.790154,-0.223593 0.790154,-0.467196 0,-0.39791 -0.503233,-0.570101 -3.301116,-1.129542 -0.449779,-0.08993 -0.928676,0.125487 -1.064221,0.478712 -0.403507,1.051519 -4.0469,0.822338 -5.705814,-0.358914 l -1.405972,-1.001141 1.56203,-0.332638 c 2.134288,-0.454501 8.161325,0.274374 11.721161,1.417489 3.462917,1.111994 7.080114,2.935951 6.502416,3.278819 -1.004034,0.595899 -3.195213,0.736946 -4.011804,0.258241 z m 5.862449,-1.951393 c -1.241671,-0.838805 -2.536441,-1.535488 -2.877264,-1.548185 -0.487475,-0.01816 -0.504741,-0.16158 -0.08093,-0.672242 0.439,-0.528962 0.286184,-0.779766 -0.825328,-1.354551 -1.752852,-0.906436 -2.482806,-0.898841 -2.129385,0.02216 0.21494,0.560119 0.09617,0.65015 -0.516089,0.391222 -1.324736,-0.560238 -7.499717,-2.014517 -8.569771,-2.01828 -0.704218,-0.0025 -0.924549,-0.204676 -0.741847,-0.680798 0.207842,-0.541625 -0.156731,-0.677276 -1.820236,-0.677276 -2.258826,0 -2.849559,0.726494 -0.838462,1.03115 l 1.241671,0.188097 -1.354551,0.05263 c -1.146875,0.04456 -3.386376,-1.178362 -3.386376,-1.849198 0,-0.523403 4.159473,-0.674546 7.654457,-0.278141 6.489038,0.735994 11.700919,2.672129 16.937038,6.291854 1.871402,1.293699 3.40255,2.428395 3.40255,2.521546 0,0.09315 -0.863526,0.154909 -1.918947,0.137241 -1.398162,-0.02341 -2.531637,-0.446023 -4.176531,-1.557225 z m 9.859738,0.17853 c -1.60135,-1.601349 -3.043422,-1.427575 -1.648967,0.198705 0.450763,0.525701 -0.196346,0.07665 -1.438018,-0.997891 -1.241671,-1.07454 -3.741887,-2.824843 -5.556032,-3.88956 -1.81415,-1.064718 -3.048068,-2.019312 -2.742039,-2.121321 0.920412,-0.306805 0.103031,-1.064277 -1.840667,-1.705755 -1.852759,-0.611466 -3.034812,-0.310034 -1.813382,0.462423 0.945074,0.597682 0.564743,0.532608 -2.496419,-0.427131 -1.490006,-0.467149 -4.065733,-0.994564 -5.723839,-1.172034 -2.305413,-0.246751 -2.958022,-0.470481 -2.773677,-0.95088 0.186919,-0.4871 -0.287733,-0.628209 -2.11313,-0.628209 -1.955922,0 -2.308078,0.120185 -2.081588,0.710412 0.185957,0.484593 -0.132777,0.37695 -1.002715,-0.338638 L 45.43371,9.8398495 47.500644,9.4583372 c 2.789484,-0.5148796 10.126683,0.3906889 14.69146,1.8132428 6.146657,1.915527 12.792046,5.944904 16.925524,10.262648 1.945492,2.032224 0.840743,2.233413 -1.17812,0.21455 z m -28.476215,-10.19 c 0.439312,-0.114479 1.04886,-0.10695 1.35455,0.01673 0.305691,0.123681 -0.05374,0.217346 -0.798747,0.208144 -0.745003,-0.0092 -0.995116,-0.110395 -0.555803,-0.224874 z"
         id="path1964" />
      <path
         style="fill:#989898;stroke-width:0.451517"
         d="M 16.712715,98.098062 C 12.530325,97.047703 8.6269422,93.753675 6.8302406,89.758333 5.4161696,86.613852 5.4159221,81.615935 6.8296988,78.470412 c 1.3276758,-2.953991 4.6019632,-6.242731 7.4780932,-7.511101 3.221043,-1.420481 8.172605,-1.410218 11.425929,0.02366 2.805864,1.236677 6.120528,4.612999 7.476042,7.615107 1.354783,3.000488 1.327061,8.05316 -0.06146,11.201736 -1.249955,2.83437 -4.556719,6.156351 -7.356173,7.390021 -2.473343,1.089962 -6.680121,1.510767 -9.079401,0.908218 z m 1.204257,-7.886912 c -0.437558,-0.249047 -1.520885,-1.097547 -2.407393,-1.885552 -1.513171,-1.345037 -1.611831,-1.600221 -1.611831,-4.169004 0,-2.562042 0.10829,-2.844561 1.700713,-4.436984 1.586559,-1.586563 1.881542,-1.700715 4.394764,-1.700715 2.489815,0 2.816948,0.122898 4.315186,1.621135 3.707811,3.707811 1.708583,10.165387 -4.089427,13.208986 l -1.354551,0.711053 1.481932,0.01806 c 6.345306,0.0774 11.001089,-7.408629 8.2727,-13.301669 -3.45484,-7.462102 -13.79684,-7.462102 -17.25168,0 -2.2275237,4.811224 0.335656,10.922405 5.301439,12.63979 l 1.744092,0.603186 0.149809,-1.427742 c 0.105101,-1.001663 -0.08761,-1.56288 -0.645753,-1.880563 z"
         id="path1962" />
    </g>
  </g>
</svg>
