<?xml version="1.0" encoding="UTF-8" standalone="no"?>
<!-- Created with Inkscape (http://www.inkscape.org/) -->

<svg
   width="100mm"
   height="100mm"
   viewBox="0 0 100 100"
   version="1.1"
   id="svg11947"
   inkscape:version="1.1.1 (3bf5ae0d25, 2021-09-20)"
   sodipodi:docname="add_list_type_device_6003.svg"
   xmlns:inkscape="http://www.inkscape.org/namespaces/inkscape"
   xmlns:sodipodi="http://sodipodi.sourceforge.net/DTD/sodipodi-0.dtd"
   xmlns="http://www.w3.org/2000/svg"
   xmlns:svg="http://www.w3.org/2000/svg">
  <sodipodi:namedview
     id="namedview11949"
     pagecolor="#ffffff"
     bordercolor="#666666"
     borderopacity="1.0"
     inkscape:pageshadow="2"
     inkscape:pageopacity="0.0"
     inkscape:pagecheckerboard="true"
     inkscape:document-units="mm"
     showgrid="false"
     width="100mm"
     inkscape:zoom="0.58974467"
     inkscape:cx="378.97757"
     inkscape:cy="218.73873"
     inkscape:window-width="1440"
     inkscape:window-height="890"
     inkscape:window-x="-6"
     inkscape:window-y="-6"
     inkscape:window-maximized="1"
     inkscape:current-layer="layer1" />
  <defs
     id="defs11944" />
  <g
     inkscape:label="Laag 1"
     inkscape:groupmode="layer"
     id="layer1">
    <g
       id="g12171"
       transform="translate(-2.6918458,-0.44864025)">
      <path
         style="fill:#d0d0d0;fill-opacity:1;stroke-width:0.599679"
         d="m 39.380232,89.751024 c -0.824559,-0.47136 -1.213456,-0.866584 -0.864216,-0.878266 0.349241,-0.01169 1.158807,0.37495 1.799037,0.859196 1.480594,1.119865 1.007691,1.129514 -0.934821,0.01907 z m 10.355875,0.483947 c 0.583468,-0.152043 1.393035,-0.142046 1.799037,0.02225 0.406002,0.16427 -0.07138,0.288668 -1.060851,0.276446 -0.989471,-0.01223 -1.321654,-0.146621 -0.738186,-0.298664 z m -3.375924,-0.600195 c -0.970169,-0.970172 -0.06698,-1.302317 4.039467,-1.485494 2.994876,-0.133591 4.342112,0.01193 4.172583,0.4507 -0.137702,0.356401 -1.774829,0.709672 -3.638061,0.785052 -1.863232,0.07538 -3.568327,0.248693 -3.7891,0.385138 -0.220773,0.136451 -0.573973,0.07552 -0.784889,-0.135396 z M 37.31991,87.228253 c -0.325436,-0.854663 -0.256555,-0.923542 0.335698,-0.335701 0.409831,0.406787 0.594084,0.890667 0.409451,1.075303 -0.184634,0.184635 -0.519951,-0.148187 -0.745149,-0.739602 z m 1.947882,0.613927 c 0.432893,-0.173229 0.950116,-0.151929 1.149385,0.04731 0.199268,0.199267 -0.154918,0.341001 -0.787079,0.314963 -0.698592,-0.02878 -0.84069,-0.170873 -0.362306,-0.362302 z m 9.707303,-6.775953 c 2.006204,-0.656612 3.13333,-0.714026 2.779537,-0.141578 -0.159303,0.257754 -1.187187,0.505463 -2.284187,0.550451 -1.817121,0.07453 -1.861185,0.03814 -0.49535,-0.408873 z m -8.695345,-6.696369 -1.199358,-1.217426 2.0055,0.310148 c 2.285366,0.353426 3.264818,0.992055 1.542601,1.005811 -0.961629,0.0077 -1.002446,0.104146 -0.249866,0.590498 0.799571,0.516725 0.799571,0.578372 0,0.554853 -0.494736,-0.01457 -1.43923,-0.574301 -2.098877,-1.243884 z m 26.802622,-1.409845 c 0.01223,-0.989471 0.146622,-1.321657 0.298664,-0.738187 0.152043,0.583469 0.142046,1.393036 -0.02219,1.799037 -0.16427,0.406 -0.288667,-0.07138 -0.276446,-1.06085 z M 33.430785,70.511325 c 0.02877,-0.698596 0.170873,-0.84069 0.362306,-0.362308 0.17323,0.432891 0.151925,0.950114 -0.04734,1.149387 -0.199268,0.199267 -0.341002,-0.154921 -0.314963,-0.787079 z m 13.51497,-34.918738 c -0.165597,-0.267942 -0.208337,-2.022003 -0.09498,-3.897913 0.11336,-1.87591 -0.03693,-3.410746 -0.333984,-3.410746 -0.297051,0 -0.540094,0.244592 -0.540094,0.543538 0,0.298945 -0.562523,0.396434 -1.250051,0.216641 -0.925488,-0.24202 -1.046627,-0.452619 -0.466566,-0.811117 0.627332,-0.387712 0.607556,-0.547759 -0.09923,-0.803013 -1.043073,-0.376707 -2.775446,-0.151764 -3.364017,0.436808 -0.724032,0.724032 -1.352357,0.45835 -2.064951,-0.873144 -0.569032,-1.063244 -0.537571,-1.231587 0.178794,-0.956692 0.486544,0.186704 0.869335,-0.01214 0.869335,-0.451576 0,-0.450945 -0.382232,-0.638495 -0.897947,-0.440596 -0.539393,0.206985 -0.741574,0.09156 -0.506335,-0.289066 0.215386,-0.348502 -0.0102,-0.967115 -0.501304,-1.374694 -0.491104,-0.40758 -0.888784,-1.045331 -0.883733,-1.417226 0.0051,-0.371894 0.270773,-0.271387 0.590496,0.223348 0.408706,0.632428 0.58404,0.670678 0.590496,0.12882 0.0063,-0.528109 0.339509,-0.60999 1.058621,-0.260133 1.715807,0.83476 2.767034,0.521128 3.579862,-1.068045 0.689884,-1.348805 0.613109,-1.634551 -0.765329,-2.848475 -1.265454,-1.114424 -2.236097,-1.349278 -5.576513,-1.349278 -2.346054,0 -4.346558,0.302182 -4.763991,0.719615 -0.971636,0.971635 -0.873378,-0.07645 0.179903,-1.918973 0.471361,-0.824559 0.866581,-1.166159 0.878269,-0.759112 0.01472,0.512794 1.356491,0.753632 4.368922,0.784192 6.045456,0.06133 7.428038,0.246928 8.506417,1.141904 1.303915,1.082153 1.172345,2.863436 -0.268454,3.634528 -0.95336,0.510222 -1.080377,0.882521 -0.60447,1.771759 0.432588,0.808299 0.392457,1.213384 -0.142297,1.436347 -0.539522,0.22495 -0.458129,0.543874 0.29531,1.157108 0.572065,0.465612 0.84192,1.080843 0.599679,1.36718 -0.242241,0.286339 0.07861,0.124728 0.712993,-0.359134 1.068204,-0.814743 1.127589,-0.779468 0.803688,0.477378 -0.431796,1.675521 1.317557,2.891458 2.536581,1.763121 0.609966,-0.564588 0.687469,-0.558483 0.356316,0.02806 -0.232763,0.41228 -0.149652,0.749599 0.184691,0.749599 0.617052,0 1.530863,3.618887 1.403963,5.559992 -0.0382,0.584319 0.12949,0.939445 0.372644,0.789167 0.243154,-0.150277 0.833997,-0.02531 1.312984,0.277696 0.589196,0.372729 -0.232979,0.553897 -2.541876,0.56011 -1.87702,0.005 -3.548252,-0.210042 -3.713849,-0.477985 z m 8.32597,-0.112511 c 0.659647,-0.28346 0.846112,-0.534348 0.414368,-0.55753 -0.431745,-0.02318 -0.618211,-0.312004 -0.414368,-0.641828 0.203842,-0.329823 0.152304,-0.608159 -0.114529,-0.618524 -0.266832,-0.01036 -0.992505,-0.714843 -1.612604,-1.56551 -0.934261,-1.281639 -0.985639,-1.640011 -0.299839,-2.091427 0.678327,-0.446497 0.624746,-0.699767 -0.297039,-1.404074 -0.64834,-0.495375 -0.973781,-1.252478 -0.76842,-1.787641 0.543742,-1.416967 1.41107,-1.112756 2.253489,0.7904 0.418432,0.945302 1.522043,2.227116 2.452468,2.848475 1.414954,0.944939 2.377458,2.382089 2.563931,3.828301 0.02126,0.164912 0.252846,0.637159 0.514629,1.049439 0.360009,0.566975 -0.299672,0.73933 -2.707738,0.70745 -2.332117,-0.03088 -2.862897,-0.180005 -1.984348,-0.557531 z m 21.982966,-4.197753 c 0,-0.824558 0.136115,-1.161878 0.302472,-0.749598 0.166357,0.412279 0.166357,1.086918 0,1.499197 -0.166357,0.412279 -0.302472,0.07496 -0.302472,-0.749599 z m -23.18837,-7.205929 c -0.207167,-0.335204 -0.608448,-0.466213 -0.891735,-0.291132 -0.283287,0.175081 -0.687609,-0.2253 -0.898492,-0.889736 -0.210885,-0.664437 -0.70256,-1.217629 -1.092614,-1.229316 -0.390052,-0.01169 -0.03794,-0.392795 0.782485,-0.846905 0.82042,-0.45411 1.717427,-0.686131 1.99335,-0.515602 0.275922,0.17053 1.088875,-0.23116 1.806562,-0.892643 0.717686,-0.661483 2.455556,-1.585489 3.861932,-2.053346 1.406375,-0.467856 2.373357,-1.034337 2.148849,-1.258846 -0.224507,-0.224509 0.04156,-0.44193 0.591266,-0.483158 0.549708,-0.04123 1.269322,-0.142424 1.599146,-0.22488 0.329823,-0.08245 1.303186,-0.183651 2.163036,-0.224879 1.214326,-0.05822 1.481759,-0.309255 1.197889,-1.124398 -0.313914,-0.90139 -0.241077,-0.888927 0.516305,0.08835 1.155696,1.491224 0.668432,2.16045 -1.573036,2.16045 -1.002525,0 -4.058933,1.124001 -6.792019,2.49778 -3.839682,1.930008 -4.814515,2.665425 -4.288544,3.235292 0.374387,0.405631 0.838118,0.642778 1.030515,0.526994 0.192398,-0.115785 0.349813,0.170524 0.349813,0.636242 0,0.465718 -0.224879,0.707777 -0.499733,0.537909 -0.274852,-0.169868 -0.499732,-0.02307 -0.499732,0.326218 0,0.809032 -1.010437,0.826223 -1.505243,0.02561 z M 29.39803,20.799717 c 0.213036,-0.555163 0.387338,-1.2404 0.387338,-1.52275 0,-0.28235 0.510583,-0.474902 1.13463,-0.427895 0.880507,0.06633 1.033236,0.360178 0.681921,1.312009 -0.24899,0.674596 -0.933875,1.321373 -1.521968,1.437281 -0.791294,0.155956 -0.968566,-0.05166 -0.681921,-0.798645 z m 36.011262,-9.45672 -1.142383,-1.3492775 1.349278,1.1423815 c 1.267985,1.073556 1.622276,1.556174 1.142383,1.556174 -0.113796,0 -0.720971,-0.607175 -1.349278,-1.349278 z"
         id="path12187" />
      <path
         style="fill:#b9b9b9;fill-opacity:1;stroke-width:0.599679"
         d="m 58.27012,92.44958 c 0.596972,-0.659647 1.220331,-1.199358 1.385243,-1.199358 0.164912,0 -0.188592,0.539711 -0.785564,1.199358 -0.596973,0.659646 -1.220332,1.199357 -1.385244,1.199357 -0.164912,0 0.188593,-0.539711 0.785565,-1.199357 z M 38.180874,87.63333 c 0,-0.319473 0.404783,-0.580861 0.899518,-0.580861 0.494735,0 0.899519,0.106059 0.899519,0.23568 0,0.129626 -0.404784,0.391008 -0.899519,0.580861 -0.494735,0.189846 -0.899518,0.08379 -0.899518,-0.23568 z m 24.244163,-0.580861 c 0,-0.776729 0.202752,-0.979474 0.591116,-0.59111 0.388358,0.388358 0.388358,0.793861 0,1.182219 -0.388364,0.388364 -0.591116,0.185619 -0.591116,-0.591109 z m -14.16206,-1.609005 c 0.432893,-0.173229 0.950116,-0.151929 1.149384,0.04731 0.199268,0.199267 -0.154917,0.341001 -0.787078,0.314963 -0.698592,-0.02878 -0.84069,-0.170872 -0.362306,-0.362302 z m 6.109229,-2.588748 c -0.768727,-0.496792 -0.746928,-0.582648 0.14992,-0.590498 0.577191,-0.005 1.049438,0.260674 1.049438,0.590498 0,0.731374 -0.06764,0.731374 -1.199358,0 z m -7.955741,-4.272167 c 0.406782,-0.409833 0.890668,-0.594084 1.075301,-0.409449 0.184634,0.184635 -0.148188,0.519952 -0.739604,0.745149 -0.854661,0.325434 -0.923543,0.256555 -0.335697,-0.3357 z m 7.755848,0.274305 c -0.219882,-0.219878 -0.399786,-0.881642 -0.399786,-1.470581 0,-0.878128 -0.620421,-1.110623 -3.448154,-1.292134 l -3.448154,-0.221342 3.557216,0.04282 c 3.359644,0.04042 3.581586,0.1344 3.995972,1.691923 0.456349,1.71525 0.414105,1.920532 -0.257094,1.249329 z m 2.115837,-1.699089 c 0.01222,-0.98947 0.14662,-1.321656 0.298665,-0.738186 0.152045,0.583469 0.142046,1.393036 -0.02222,1.799037 -0.164268,0.406 -0.288669,-0.07138 -0.276447,-1.060851 z M 37.628538,69.911646 c 0.02877,-0.698596 0.170873,-0.84069 0.362306,-0.362308 0.17323,0.432891 0.151925,0.950114 -0.04734,1.149387 -0.199268,0.199267 -0.341002,-0.154921 -0.314963,-0.787079 z m 7.0666,-35.181168 c -0.199384,-3.272669 0.04654,-4.556178 1.088808,-5.682672 0.388721,-0.420133 0.813423,-0.763878 0.943782,-0.763878 0.130359,0 0.217098,1.75358 0.192754,3.896844 -0.03742,3.294202 -0.206557,3.897009 -1.093701,3.897913 -0.664527,6.6e-4 -1.079589,-0.493817 -1.131643,-1.348207 z m 15.268673,0.599679 c -0.261783,-0.41228 -0.493366,-0.884527 -0.514629,-1.049439 -0.186473,-1.446212 -1.148977,-2.883362 -2.563931,-3.828301 -0.930425,-0.621359 -2.041676,-1.920433 -2.469445,-2.88683 -0.447828,-1.011714 -1.105727,-1.631234 -1.550883,-1.460412 -0.462427,0.17745 -0.71559,-0.09531 -0.629961,-0.678735 0.189268,-1.289566 1.015549,-1.509049 2.934471,-0.779477 0.997898,0.379401 1.458273,0.913693 1.251525,1.452469 -0.188213,0.490475 0.577203,1.730496 1.803007,2.920982 2.439914,2.369614 4.468337,7.059341 3.053341,7.059341 -0.460641,0 -1.051713,-0.337319 -1.313495,-0.749598 z M 41.453499,30.724081 c 0.189757,-0.307033 0.09609,-0.712085 -0.208151,-0.900116 -0.30424,-0.18803 -0.427131,-0.823818 -0.273093,-1.412862 0.302911,-1.158334 2.909303,-1.691113 3.51092,-0.717677 0.200722,0.324776 0.06324,0.590502 -0.305512,0.590502 -0.368754,0 -0.503681,0.269856 -0.299839,0.599679 0.203842,0.329824 0.06891,0.599679 -0.29984,0.599679 -0.368754,0 -0.521157,0.241579 -0.338675,0.536842 0.182483,0.295263 -0.09352,0.700047 -0.613333,0.899519 -1.304452,0.500565 -1.574837,0.455465 -1.172477,-0.195566 z m 35.753853,-1.590607 c 0.02878,-0.698592 0.170873,-0.84069 0.362302,-0.362306 0.173229,0.432893 0.151929,0.950116 -0.04731,1.149385 -0.199267,0.199268 -0.341001,-0.154918 -0.314963,-0.787079 z m -42.615369,-1.91184 c -0.0051,-0.41935 -0.67536,-1.065986 -1.489577,-1.436968 -0.814216,-0.370982 -1.307541,-0.972371 -1.096276,-1.336421 0.211264,-0.36405 -0.155766,-0.189662 -0.815622,0.387529 -1.872859,1.638232 -2.604498,1.28794 -2.604498,-1.246973 0,-1.954112 0.189282,-2.289314 1.269857,-2.248796 0.790928,0.02965 1.461126,-0.458497 1.776996,-1.294315 0.278925,-0.738062 0.314664,-1.31328 0.07942,-1.278263 -1.715716,0.25539 -1.928877,-0.134126 -1.027396,-1.877399 0.511675,-0.98947 1.067811,-1.799037 1.235857,-1.799037 0.168046,0 0.02619,0.52197 -0.315239,1.159934 -0.834822,1.559878 -0.785151,2.242705 0.09884,1.358718 0.417433,-0.417433 2.417937,-0.719615 4.763991,-0.719615 3.340416,0 4.311059,0.234854 5.576513,1.349278 1.378438,1.213924 1.455213,1.49967 0.765329,2.848475 -0.812828,1.589173 -1.864055,1.902805 -3.579862,1.068045 -0.719112,-0.349857 -1.052329,-0.267976 -1.058621,0.260133 -0.0065,0.541858 -0.18179,0.503608 -0.590496,-0.12882 -0.319723,-0.494735 -0.585446,-0.595242 -0.590496,-0.223348 -0.005,0.371895 0.392629,1.009646 0.883733,1.417226 0.491103,0.407579 0.71669,1.026192 0.501304,1.374694 -0.235239,0.380626 -0.03306,0.496051 0.506335,0.289066 0.515715,-0.197899 0.897947,-0.01035 0.897947,0.440596 0,0.450945 -0.382232,0.638495 -0.897947,0.440596 -0.538942,-0.206811 -0.741532,-0.09149 -0.506721,0.288441 0.222611,0.360192 -0.251902,0.755956 -1.100984,0.918269 -0.863252,0.16502 -1.496079,0.0044 -1.501391,-0.381187 -0.0051,-0.366542 -0.270774,-0.261657 -0.590496,0.233079 -0.400576,0.619846 -0.584169,0.66246 -0.590496,0.137063 z m 42.70715,-2.535779 c 0,-1.154382 0.123414,-1.62663 0.274251,-1.049439 0.150831,0.577191 0.150831,1.521686 0,2.098877 -0.150837,0.577191 -0.274251,0.104944 -0.274251,-1.049438 z M 55.190701,22.026224 c -0.526833,-0.572971 0.422042,-1.287943 4.197753,-3.162982 5.299916,-2.631968 9.975727,-3.670643 9.975727,-2.21599 0,0.46335 -0.472248,0.863102 -1.049439,0.888337 -3.152632,0.137835 -11.055263,3.460268 -10.511064,4.419073 0.197389,0.347774 0.138062,0.432266 -0.131837,0.18776 -0.2699,-0.244506 -0.785412,-0.204105 -1.145583,0.08978 -0.397517,0.324359 -0.92235,0.243416 -1.335557,-0.205978 z M 63.290896,9.2441208 C 62.544973,8.2929964 62.566184,8.2717857 63.517311,9.017709 c 0.998915,0.7834021 1.316583,1.27585 0.823023,1.27585 -0.124523,0 -0.59677,-0.4722472 -1.049438,-1.0494382 z M 69.91847,8.0447629 68.464662,6.3956457 70.113779,7.8494558 c 1.541349,1.3588048 1.924124,1.8444243 1.453808,1.8444243 -0.107414,0 -0.849517,-0.7421028 -1.649117,-1.6491172 z"
         id="path12185" />
      <path
         style="fill:#a3a3a3;fill-opacity:1;stroke-width:0.599679"
         d="M 15.285462,98.222839 C 2.9535554,94.843696 1.2104624,77.997748 12.586936,72.143214 c 8.104326,-4.170636 18.229409,0.599613 20.135276,9.486364 2.208264,10.296782 -7.321058,19.365132 -17.43675,16.593261 z m 7.500939,-4.792203 c 6.161471,-2.574422 7.66351,-10.652157 2.871764,-15.443904 -3.889848,-3.889848 -9.44419,-3.889848 -13.334038,0 -7.4159609,7.41596 0.766786,19.49494 10.462274,15.443904 z M 17.791788,92.22852 c 0,-0.963888 -0.421624,-1.630971 -1.183715,-1.872852 -1.987106,-0.630682 -3.613717,-3.254403 -3.613717,-5.828915 0,-5.400235 6.43485,-7.922707 10.314324,-4.043228 1.643016,1.643013 1.798756,2.115925 1.549861,4.706227 -0.325983,3.392558 -1.724404,5.499098 -4.817957,7.257609 l -2.248796,1.278317 z m 42.712849,-3.724061 c 0.569342,-0.594419 1.164241,-0.951678 1.322005,-0.793915 0.157763,0.157764 -0.308055,0.644104 -1.035159,1.08076 -1.263109,0.758546 -1.275888,0.745767 -0.286846,-0.286845 z M 46.576379,88.020051 c 0,-0.492445 3.667576,-0.740598 3.959708,-0.267919 0.169855,0.274833 -0.651593,0.499695 -1.82544,0.499695 -1.173847,0 -2.134268,-0.104303 -2.134268,-0.231776 z m -7.207541,-1.281148 c -0.633731,-0.763602 -0.59663,-0.851353 0.226412,-0.53552 0.541387,0.207747 0.98434,0.618707 0.98434,0.913245 0,0.771164 -0.347138,0.662861 -1.210752,-0.377725 z M 60.968675,86.21711 c 0,-0.129627 0.418798,-0.396388 0.930666,-0.592813 0.533666,-0.204784 0.774377,-0.104254 0.564286,0.23568 -0.352168,0.569821 -1.494952,0.842819 -1.494952,0.357133 z M 44.177663,85.253432 c 0,-0.329824 0.269856,-0.599679 0.599679,-0.599679 0.329824,0 0.599679,0.269855 0.599679,0.599679 0,0.329823 -0.269855,0.599679 -0.599679,0.599679 -0.329823,0 -0.599679,-0.269856 -0.599679,-0.599679 z m 2.286277,0.190032 c 0.432893,-0.173229 0.950116,-0.151929 1.149384,0.04731 0.199268,0.199267 -0.154917,0.341001 -0.787078,0.314963 -0.698592,-0.02878 -0.84069,-0.170872 -0.362306,-0.362302 z m 15.704093,-1.353997 c 0,-0.310358 0.266767,-0.729162 0.592813,-0.930666 0.339934,-0.210092 0.440464,0.03064 0.235679,0.564286 -0.39866,1.038896 -0.828492,1.228976 -0.828492,0.36638 z M 44.777342,78.057284 c 0,-0.329823 0.25393,-0.599679 0.564288,-0.599679 0.310359,0 0.731068,0.269856 0.93491,0.599679 0.203842,0.329823 -0.05008,0.599679 -0.564288,0.599679 -0.5142,0 -0.93491,-0.269856 -0.93491,-0.599679 z m -5.154248,-3.747994 -1.142381,-1.349277 1.349278,1.142382 c 1.267988,1.073557 1.622276,1.556173 1.142381,1.556173 -0.113793,0 -0.720968,-0.607175 -1.349278,-1.349278 z m -5.545287,-0.449759 c 0,-0.824559 0.136111,-1.161878 0.30247,-0.749599 0.166358,0.41228 0.166358,1.086919 0,1.499198 -0.166359,0.412279 -0.30247,0.07496 -0.30247,-0.749599 z m 25.69151,0.972943 c 0,-0.124523 0.472247,-0.59677 1.049438,-1.049438 0.951127,-0.745923 0.972338,-0.724712 0.226415,0.226415 -0.783405,0.998915 -1.275853,1.316583 -1.275853,0.823023 z M 37.628538,71.710683 c 0.02877,-0.698596 0.170873,-0.84069 0.362306,-0.362308 0.17323,0.432891 0.151925,0.950114 -0.04734,1.149387 -0.199268,0.199267 -0.341002,-0.154921 -0.314963,-0.787079 z M 40.45349,35.330157 c -0.530942,-1.564334 -0.161291,-3.745436 0.607984,-3.587366 0.429949,0.08835 1.191327,-0.248973 1.691952,-0.749599 0.500624,-0.500624 0.68856,-0.914359 0.417634,-0.919409 -0.577655,-0.01077 1.108653,-1.167437 1.72177,-1.180993 0.22843,-0.005 0.263431,0.597992 0.07778,1.340095 -0.185651,0.742103 -0.310209,2.361236 -0.276796,3.598074 0.05852,2.166277 -0.01349,2.248796 -1.962578,2.248796 -1.112831,0 -2.137818,-0.337319 -2.277746,-0.749598 z m 2.324923,-1.928818 c 0,-0.373718 -0.562199,-0.706021 -1.249332,-0.738453 -0.687132,-0.03243 -0.91033,0.07151 -0.495996,0.230973 0.414334,0.159466 0.628597,0.49177 0.476138,0.738453 -0.152458,0.246682 0.07074,0.448514 0.495997,0.448514 0.425256,0 0.773193,-0.30577 0.773193,-0.679487 z m 19.203917,2.228657 c -0.141062,-0.247368 -0.582702,-1.461718 -0.981416,-2.698555 -0.398711,-1.236838 -1.00273,-2.248797 -1.342262,-2.248797 -0.339533,0 -0.463244,-0.401546 -0.274915,-0.892324 0.188329,-0.490779 0.149737,-0.830195 -0.08576,-0.754257 -0.94872,0.305918 -3.271887,-1.907621 -2.931919,-2.793564 0.193866,-0.505206 0.09441,-1.078052 -0.221005,-1.272991 -0.889472,-0.549724 -0.695221,-1.176526 0.897074,-2.894642 0.80881,-0.872721 2.064985,-1.586764 2.791499,-1.586764 1.255446,0 1.270283,0.05597 0.299349,1.128839 -0.708644,0.783043 -0.905956,1.655613 -0.644118,2.848475 0.288322,1.313511 0.226556,1.507197 -0.261532,0.820118 -0.527808,-0.742993 -0.640598,-0.658571 -0.648183,0.48515 -0.005,0.761568 0.252761,1.222778 0.572915,1.024913 0.320154,-0.197867 0.759699,0.393382 0.976766,1.313886 0.217067,0.920504 1.085031,2.415746 1.928815,3.32276 0.843778,0.907015 1.355406,1.649117 1.136949,1.649117 -0.218457,0 -0.14069,0.674639 0.172804,1.499198 0.441693,1.161737 0.378823,1.499197 -0.279289,1.499197 -0.467108,0 -0.964703,-0.202391 -1.105772,-0.449759 z M 39.067405,32.031922 c 0.252333,-0.493076 -0.09024,-0.752741 -1.00106,-0.758781 -1.113986,-0.0074 -1.208826,-0.122821 -0.48515,-0.590497 0.494735,-0.319722 0.629663,-0.606092 0.299839,-0.636378 -0.329823,-0.03028 -1.070854,-0.14531 -1.646736,-0.255611 -0.575881,-0.1103 -1.183325,0.01994 -1.349875,0.289424 -0.16655,0.269483 -0.839225,0.349696 -1.494834,0.178251 -0.686475,-0.179518 -1.01617,-0.596243 -0.77739,-0.982598 0.679145,-1.098879 0.62571,-2.771679 -0.07471,-2.338796 -0.352779,0.21803 -1.521109,0.468629 -2.596288,0.556888 -1.898055,0.155808 -1.952498,0.09555 -1.873206,-2.073348 0.05093,-1.393182 0.179466,-1.726054 0.341548,-0.884541 0.312147,1.62063 1.165789,1.712669 2.780964,0.299839 0.659856,-0.577191 1.026886,-0.751579 0.815622,-0.387529 -0.211265,0.36405 0.28206,0.965439 1.096276,1.336421 0.814217,0.370982 1.484526,1.017618 1.489577,1.436968 0.0063,0.525397 0.18992,0.482783 0.590496,-0.137063 0.319722,-0.494736 0.585445,-0.624986 0.590496,-0.289445 0.005,0.335541 0.952436,0.565709 2.105301,0.511485 1.352125,-0.06359 1.955757,0.128524 1.700663,0.541274 -0.244187,0.395103 -0.03273,0.500669 0.552808,0.275978 1.633517,-0.626839 1.682341,1.257721 0.07774,3.000547 -0.839128,0.911411 -1.353064,1.319791 -1.142078,0.907512 z m 38.139947,-4.697485 c 0.02878,-0.698592 0.170873,-0.84069 0.362302,-0.362306 0.173229,0.432893 0.151929,0.950116 -0.04731,1.149385 -0.199267,0.199268 -0.341001,-0.154918 -0.314963,-0.787079 z m -9.323221,-8.857054 c -1.044245,-0.763571 -1.015676,-0.829314 0.485062,-1.116199 1.264465,-0.241717 1.594667,-0.07371 1.594667,0.81136 0,1.324379 -0.570967,1.40807 -2.079729,0.304839 z"
         id="path12183" />
      <path
         style="fill:#8c8c8c;fill-opacity:1;stroke-width:0.599679"
         d="m 50.031525,96.822882 c 0.745949,-0.143437 1.825371,-0.137992 2.398716,0.01211 0.573346,0.150094 -0.03698,0.267457 -1.356269,0.2608 -1.319294,-0.0067 -1.788395,-0.129464 -1.042447,-0.272902 z m -8.340583,-6.324208 c 0.302146,-0.302142 1.187655,-0.448944 1.967798,-0.326226 1.200366,0.188827 1.115906,0.273292 -0.549355,0.54936 -1.191694,0.197559 -1.751131,0.109556 -1.418443,-0.223134 z m 8.783351,-2.846526 c -0.203843,-0.329824 0.05008,-0.599679 0.564287,-0.599679 0.514201,0 0.93491,0.269855 0.93491,0.599679 0,0.329823 -0.253929,0.599679 -0.564288,0.599679 -0.310358,0 -0.731067,-0.269856 -0.934909,-0.599679 z m -2.211316,-0.409647 c 0.432893,-0.173229 0.950116,-0.151929 1.149384,0.04731 0.199268,0.199267 -0.154917,0.341001 -0.787078,0.314963 -0.698592,-0.02878 -0.84069,-0.170873 -0.362306,-0.362302 z m -7.636045,-1.139522 c 0.02877,-0.698596 0.170874,-0.84069 0.362307,-0.362308 0.17323,0.43289 0.151925,0.950113 -0.04734,1.149387 -0.199268,0.199267 -0.341002,-0.154921 -0.314963,-0.787079 z m 20.828982,0.539843 c 0.43289,-0.173229 0.950114,-0.151929 1.149387,0.04731 0.199267,0.199267 -0.154921,0.341001 -0.787079,0.314963 -0.698596,-0.02878 -0.84069,-0.170873 -0.362308,-0.362302 z m -8.395506,-1.199358 c 0.432894,-0.173229 0.950117,-0.151929 1.149385,0.04731 0.199268,0.199267 -0.154917,0.341001 -0.787078,0.314963 -0.698592,-0.02878 -0.84069,-0.170872 -0.362307,-0.362302 z m 8.669697,-0.831257 c -0.103738,-1.377199 0.178933,-1.498358 0.64742,-0.277501 0.185792,0.484174 0.135755,1.005193 -0.111199,1.157818 -0.246954,0.152624 -0.488252,-0.243518 -0.536221,-0.880317 z m -23.061992,0.231578 c 0.432893,-0.173229 0.950116,-0.151929 1.149385,0.04731 0.199268,0.199267 -0.154918,0.341001 -0.787079,0.314963 -0.698592,-0.02878 -0.84069,-0.170872 -0.362306,-0.362302 z m 8.81203,-1.382524 c -0.210091,-0.339934 0.03062,-0.440464 0.564288,-0.23568 1.038894,0.398661 1.228974,0.828493 0.366377,0.828493 -0.310359,0 -0.729158,-0.266767 -0.930665,-0.592813 z m -8.99943,-2.405582 c -0.977721,-0.420141 -1.011966,-0.523172 -0.185311,-0.557528 0.557726,-0.02318 1.180827,0.227704 1.384669,0.557528 0.42617,0.689559 0.405331,0.689559 -1.199358,0 z M 38.022047,35.685568 c 0.565266,-0.228566 0.515416,-0.735135 -0.210478,-2.138859 -0.523143,-1.011647 -1.12631,-1.582827 -1.340371,-1.269289 -0.222228,0.325502 -0.82221,0.12291 -1.398513,-0.472226 -1.166873,-1.205008 -0.34222,-2.288943 1.514021,-1.990051 1.418464,0.228401 2.051028,0.84942 0.944516,0.927277 -0.46725,0.03288 -0.174907,0.260681 0.649652,0.506231 1.026163,0.305587 1.862846,0.144816 2.651717,-0.509535 0.633885,-0.525795 0.969523,-0.641719 0.745862,-0.25761 -0.223661,0.384109 -0.06766,0.848504 0.346678,1.03199 0.414334,0.183486 0.213624,0.273998 -0.446023,0.201138 -1.024879,-0.1132 -1.184584,0.194677 -1.097802,2.116325 0.09361,2.072926 -0.02363,2.245094 -1.499198,2.201453 -0.880414,-0.02604 -1.267442,-0.182118 -0.860061,-0.346844 z m 25.580172,-0.458502 c -0.179963,-0.468979 -0.388856,-1.272742 -0.464205,-1.786139 -0.07535,-0.513398 -0.693793,-1.546429 -1.374309,-2.295625 -0.680521,-0.749197 -1.415561,-2.115315 -1.633428,-3.035819 -0.217867,-0.920504 -0.658066,-1.511753 -0.97822,-1.313886 -0.320154,0.197865 -0.577966,-0.263345 -0.572915,-1.024913 0.0075,-1.137924 0.120891,-1.224377 0.636064,-0.48515 0.470499,0.675122 0.536356,0.437165 0.263996,-0.953885 -0.25149,-1.284462 -0.0806,-2.087677 0.556691,-2.616583 0.505767,-0.41975 0.794974,-0.964792 0.642682,-1.211205 -0.152292,-0.246414 0.780338,-0.924771 2.072514,-1.507461 2.231711,-1.006361 3.805377,-1.011583 6.163332,-0.02046 0.775229,0.325856 1.06181,0.150142 1.096783,-0.672482 0.03232,-0.75982 0.244244,-0.573022 0.667143,0.587992 0.811144,2.22691 -0.173679,3.422245 -1.920676,2.331227 -1.647977,-1.02918 -2.136362,-0.935587 -3.800219,0.728271 -0.804572,0.80457 -1.593995,1.331713 -1.754277,1.171431 -0.512438,-0.512436 -1.018345,2.502696 -0.672624,4.008722 0.183406,0.798963 0.356773,1.78998 0.385264,2.202259 0.02848,0.412279 0.321643,0.749599 0.651467,0.749599 0.329823,0 0.442263,0.157415 0.249868,0.349812 -0.192395,0.192398 0.167412,0.867036 0.79957,1.499198 0.632164,0.632163 1.149387,1.672808 1.149387,2.312545 0,0.902488 0.503964,1.215874 2.248796,1.398389 1.837824,0.192242 1.669998,0.253654 -0.918336,0.336039 -2.256017,0.07181 -3.261271,-0.144493 -3.494348,-0.751881 z M 41.509223,33.632312 c 0.152459,-0.246683 -0.0618,-0.578987 -0.476138,-0.738453 -0.414334,-0.159467 -0.191136,-0.263404 0.495996,-0.230973 1.329795,0.06276 1.784857,1.41794 0.476139,1.41794 -0.425257,0 -0.648455,-0.201832 -0.495997,-0.448514 z M 27.986331,28.583768 c 0,-0.494735 0.404783,-0.93325 0.899518,-0.974478 3.047856,-0.253988 3.639101,-0.205886 4.008265,0.326103 0.720707,1.038584 -0.116506,1.547893 -2.544458,1.547893 -1.700947,0 -2.363325,-0.252111 -2.363325,-0.899518 z m 4.072742,-14.392296 c 0.341813,-0.659646 1.521731,-2.008359 2.622041,-2.997138 l 2.000562,-1.7977796 -2.097212,2.3974586 c -1.153467,1.318603 -2.333385,2.667315 -2.622041,2.997138 -0.288655,0.329824 -0.245163,0.05997 0.09665,-0.599679 z m 1.324369,-7.7223988 c 0,-0.1245266 0.472247,-0.5967738 1.049438,-1.0494382 0.951124,-0.7459231 0.972335,-0.7247123 0.226412,0.2264119 -0.783402,0.9989141 -1.27585,1.3165826 -1.27585,0.8230263 z M 49.431846,4.4723187 c 0.745949,-0.1434391 1.825371,-0.1379933 2.398716,0.012102 0.573346,0.1500951 -0.03697,0.2674544 -1.356269,0.2607983 -1.319294,-0.00666 -1.788395,-0.1294612 -1.042447,-0.2729003 z"
         id="path12181" />
      <path
         style="fill:#767676;fill-opacity:1;stroke-width:0.599679"
         d="m 58.276165,89.441404 c 0.207167,-0.335203 0.627876,-0.454209 0.93491,-0.264447 0.831781,0.514063 0.676684,0.873907 -0.376668,0.873907 -0.5142,0 -0.765409,-0.274258 -0.558242,-0.60946 z m 2.134979,-2.538855 c 0.08748,-1.555735 0.948504,-3.07164 1.363386,-2.400347 0.227188,0.367597 0.138807,0.837859 -0.196395,1.045024 -0.935658,0.578271 -0.725297,1.387028 0.439978,1.691545 0.789723,0.206379 0.715519,0.291468 -0.299839,0.343814 -0.742103,0.03826 -1.330311,-0.267757 -1.30713,-0.680036 z M 37.94885,86.34306 c 0.173193,-0.28023 0.566106,-0.35426 0.873139,-0.164498 0.784609,0.484913 0.696262,0.674016 -0.314897,0.674016 -0.480227,0 -0.731435,-0.229282 -0.558242,-0.509518 z m 1.831168,-1.489416 c -0.219883,-0.219879 -0.399786,-0.678633 -0.399786,-1.019455 0,-0.375758 0.279313,-0.340353 0.70962,0.08995 0.390291,0.390295 0.570195,0.84905 0.399786,1.019455 -0.170409,0.17041 -0.489738,0.129932 -0.70962,-0.08995 z m 10.881674,-0.0098 c 0.432894,-0.173229 0.950117,-0.151929 1.149385,0.04732 0.199268,0.199267 -0.154917,0.341001 -0.787078,0.314963 -0.698592,-0.02878 -0.84069,-0.170872 -0.362307,-0.362302 z m -4.834911,-1.186891 c 0.412279,-0.166357 1.086918,-0.166357 1.499197,0 0.412279,0.166357 0.07496,0.302472 -0.749599,0.302472 -0.824558,0 -1.161878,-0.136115 -0.749598,-0.302472 z m 3.635553,-0.01247 c 0.432894,-0.173229 0.950117,-0.151929 1.149385,0.04731 0.199268,0.199267 -0.154917,0.341001 -0.787078,0.314963 -0.698592,-0.02878 -0.84069,-0.170872 -0.362307,-0.362302 z M 44.296416,81.33673 c 0.596201,-0.5962 2.914297,-0.822255 2.560429,-0.249688 -0.193187,0.312565 -0.920009,0.568316 -1.615162,0.568316 -0.695152,0 -1.120522,-0.143389 -0.945267,-0.318646 z m 9.326191,-0.07853 c 0.41228,-0.166357 1.086919,-0.166357 1.499198,0 0.412279,0.166357 0.07496,0.302473 -0.749599,0.302473 -0.824558,0 -1.161878,-0.136116 -0.749599,-0.302473 z m -0.355072,-3.800597 c 0,-0.824559 0.13611,-1.161878 0.302469,-0.749599 0.166358,0.41228 0.166358,1.086918 0,1.499198 -0.166359,0.412279 -0.302469,0.07496 -0.302469,-0.749599 z m 3.55073,0.249868 c 0.02877,-0.698596 0.170873,-0.84069 0.362306,-0.362308 0.17323,0.43289 0.151925,0.95012 -0.04734,1.149387 -0.199269,0.199267 -0.341003,-0.154921 -0.314964,-0.787079 z m 9.594865,-3.598074 c 0.02878,-0.698596 0.170873,-0.84069 0.362302,-0.362308 0.17323,0.432891 0.151929,0.950114 -0.04731,1.149387 -0.199274,0.199267 -0.341002,-0.154921 -0.314964,-0.787079 z M 33.009075,35.633345 37.132302,35.42184 35.185503,33.68374 c -1.704568,-1.521838 -1.788564,-1.726182 -0.675072,-1.642305 0.699449,0.05269 1.275859,0.375689 1.28091,0.71778 0.005,0.342092 0.247654,0.245368 0.539121,-0.21494 0.409679,-0.647002 0.744441,-0.422122 1.47518,0.990972 1.200512,2.321534 0.654518,2.59082 -4.921005,2.427055 l -3.998788,-0.117454 z m -1.718464,-3.741561 c -0.207167,-0.335203 -0.871581,-0.609461 -1.476475,-0.609461 -0.604895,0 -1.255138,-0.404783 -1.444986,-0.899518 -0.264474,-0.689208 0.106096,-0.889664 1.584959,-0.85737 2.236389,0.04884 5.125647,1.041955 3.244022,1.115061 -0.596656,0.02318 -0.929574,0.293358 -0.739817,0.600391 0.189757,0.307033 0.0894,0.716218 -0.223012,0.9093 -0.312413,0.193082 -0.737524,0.0768 -0.944691,-0.258403 z m 33.135537,-0.261062 c -0.572064,-0.421755 -0.864407,-0.942536 -0.64965,-1.157292 0.214757,-0.214756 0.120607,-0.390465 -0.209216,-0.390465 -0.329824,0 -0.622983,-0.337319 -0.651467,-0.749598 -0.02849,-0.41228 -0.201858,-1.403296 -0.385264,-2.20226 -0.345721,-1.506025 0.160186,-4.521157 0.672624,-4.008721 0.160282,0.160282 0.949705,-0.366861 1.754277,-1.171431 1.62853,-1.628536 2.608951,-1.821403 3.702082,-0.728271 0.579656,0.579657 0.984373,0.578586 1.918973,-0.0051 0.95945,-0.599171 1.18439,-0.586128 1.18439,0.06869 0,0.444588 -0.651953,1.105393 -1.448789,1.468454 -1.172864,0.534394 -1.516894,0.482624 -1.806407,-0.271833 -0.309356,-0.806174 -0.525966,-0.820163 -1.605089,-0.103653 -0.68611,0.455561 -1.60883,1.6877 -2.050488,2.738088 -0.70656,1.680424 -0.676348,2.075299 0.251583,3.287793 0.634923,0.829636 0.916898,1.898187 0.708575,2.685207 -0.297351,1.123371 -0.492294,1.199369 -1.386134,0.540385 z M 27.525779,27.084571 c 0,-1.154383 0.123411,-1.62663 0.274247,-1.049439 0.150836,0.577191 0.150836,1.521686 0,2.098877 -0.150836,0.577191 -0.274247,0.104944 -0.274247,-1.049438 z m -3.620294,-0.29984 c 0.01222,-0.98947 0.14662,-1.321654 0.298665,-0.738186 0.152045,0.583468 0.142046,1.393035 -0.02222,1.799037 -0.164268,0.406002 -0.288669,-0.07138 -0.276447,-1.060851 z m 5.280204,-7.72566 c 0,-0.643567 1.784272,-3.96808 2.129676,-3.96808 0.164912,0 -0.146193,0.87703 -0.691344,1.948957 -1.113145,2.188768 -1.438332,2.645265 -1.438332,2.019123 z m 35.948458,-8.615592 -2.066596,-2.2487964 2.248797,2.0665944 c 2.093131,1.92354 2.524522,2.430998 2.066595,2.430998 -0.100212,0 -1.11217,-1.011958 -2.248796,-2.248796 z"
         id="path12179" />
      <path
         style="fill:#606060;fill-opacity:1;stroke-width:0.599679"
         d="m 46.819242,95.298055 -1.142381,-1.349278 1.499197,1.192965 c 0.824559,0.656133 1.611638,1.263308 1.749064,1.349278 0.137426,0.08597 -0.02314,0.156312 -0.356817,0.156312 -0.333675,0 -1.120753,-0.607175 -1.749063,-1.349277 z m 6.353606,-1.055171 -2.098876,-0.331623 2.367226,-0.412519 c 2.604383,-0.453843 2.863514,-0.398457 2.24768,0.480427 -0.229435,0.32743 -1.361648,0.446107 -2.51603,0.263715 z m -11.3939,-3.048804 c 0,-0.298946 0.539711,-0.543537 1.199358,-0.543537 0.659646,0 1.199357,0.103456 1.199357,0.229898 0,0.126443 -0.539711,0.371034 -1.199357,0.543538 -0.659647,0.172503 -1.199358,0.06905 -1.199358,-0.229899 z m 15.291814,-1.742895 c 0.203842,-0.329824 0.640477,-0.599679 0.970301,-0.599679 0.329823,0 0.432899,0.269855 0.229057,0.599679 -0.203843,0.329823 -0.640478,0.599679 -0.970301,0.599679 -0.329824,0 -0.4329,-0.269856 -0.229057,-0.599679 z m 2.537369,-1.847108 c 0.212052,-0.810886 0.483882,-1.08272 0.633591,-0.63359 0.144211,0.432632 -0.02291,1.071722 -0.371389,1.420195 -0.445003,0.445004 -0.523047,0.210871 -0.262202,-0.786605 z m 0.760865,-2.615092 c 0,-0.475269 0.244689,-1.015352 0.543753,-1.200185 0.299066,-0.184833 0.402516,0.204023 0.229899,0.864125 -0.366172,1.400245 -0.773652,1.577246 -0.773652,0.33606 z m -5.99679,-0.934911 c 0,-0.329824 0.269856,-0.599679 0.599679,-0.599679 0.329824,0 0.599679,0.269855 0.599679,0.599679 0,0.329823 -0.269855,0.599679 -0.599679,0.599679 -0.329823,0 -0.599679,-0.269856 -0.599679,-0.599679 z M 39.380232,82.028622 c 0,-0.124523 0.41096,-0.567476 0.913246,-0.984337 0.763599,-0.633729 0.851351,-0.596633 0.53552,0.226415 -0.322565,0.840588 -1.448766,1.429766 -1.448766,0.757922 z m 15.591653,-0.05235 c 0,-0.153308 0.607175,-0.60227 1.349278,-0.997698 1.223478,-0.651923 1.272543,-0.625933 0.526251,0.278743 -0.766285,0.928939 -1.875529,1.354153 -1.875529,0.718979 z m 6.596469,-0.285543 c 0,-0.310358 0.22488,-0.703274 0.49973,-0.873139 0.274857,-0.169871 0.499737,0.08406 0.499737,0.564286 0,0.480223 -0.22488,0.873139 -0.499737,0.873139 -0.27485,2.4e-5 -0.49973,-0.253904 -0.49973,-0.564262 z M 44.977235,80.056212 c 0,-0.439763 0.196008,-0.79957 0.435574,-0.79957 0.239565,0 0.573645,0.359807 0.742398,0.79957 0.168754,0.439768 -0.02726,0.799576 -0.435573,0.799576 -0.408319,0 -0.742399,-0.359808 -0.742399,-0.799576 z m -6.908801,-0.0099 c 0.432893,-0.173229 0.950116,-0.151929 1.149385,0.04731 0.199268,0.199267 -0.154918,0.341001 -0.787079,0.314963 -0.698592,-0.02878 -0.84069,-0.170872 -0.362306,-0.362302 z M 63.96707,77.23119 c 0,-0.124523 0.472247,-0.59677 1.049438,-1.049438 0.951127,-0.745923 0.972338,-0.724712 0.226415,0.226415 -0.783403,0.998915 -1.275853,1.316583 -1.275853,0.823023 z m 2.44606,-4.920828 c 0.02878,-0.698596 0.170873,-0.84069 0.362302,-0.362308 0.17323,0.432891 0.151929,0.950114 -0.04731,1.149387 -0.199274,0.199267 -0.341002,-0.154921 -0.314964,-0.787079 z m 0.599679,-5.39711 c 0.02878,-0.698596 0.170873,-0.84069 0.362302,-0.362309 0.17323,0.432891 0.151929,0.950114 -0.04731,1.149387 -0.199274,0.199268 -0.341002,-0.154921 -0.314964,-0.787078 z M 32.977456,33.968243 c -1.083882,-1.237192 -1.557942,-1.394185 -2.792529,-0.924796 -1.306843,0.496861 -1.533671,0.37951 -1.871995,-0.96848 -0.211734,-0.843615 -0.23691,-1.681906 -0.05594,-1.86287 0.180961,-0.180964 0.329022,-0.01419 0.329022,0.370601 0,0.384794 0.523785,0.699625 1.163967,0.699625 0.640182,0 1.333467,0.274258 1.540634,0.609461 0.207167,0.335203 0.632278,0.451485 0.944691,0.258403 0.312414,-0.193082 0.421487,-0.588161 0.242386,-0.877953 -0.179101,-0.289792 0.257793,-0.414536 0.970877,-0.277208 1.70838,0.329003 2.228205,0.886976 0.826334,0.886976 -0.875159,0 -0.684777,0.377382 0.90758,1.799037 1.95982,1.749727 1.975108,1.79874 0.557766,1.788201 -0.801506,-0.0059 -2.044762,-0.681409 -2.762789,-1.500997 z m 32.738296,0.462395 c -0.0277,-0.577191 -0.09856,-1.993933 -0.15747,-3.148315 -0.05889,-1.154382 -0.403362,-2.638587 -0.765454,-3.298234 -0.492409,-0.897047 -0.454941,-1.684106 0.148648,-3.122498 0.987036,-2.352178 3.063622,-3.688454 3.592029,-2.311456 0.262288,0.683519 0.628626,0.765755 1.450876,0.3257 1.713828,-0.917213 2.378518,-0.704296 2.374405,0.760581 -0.0042,1.55417 -3.324483,3.870881 -3.799291,2.651068 -0.150309,-0.386161 -0.596854,0.17492 -0.992324,1.246846 -0.395471,1.071926 -1.029955,1.953089 -1.409972,1.958139 -0.425418,0.0056 -0.375794,0.208825 0.129141,0.528706 0.451037,0.285737 0.948447,1.630882 1.105347,2.989212 0.228609,1.979095 0.09549,2.469689 -0.670154,2.469689 -0.525486,0 -0.978088,-0.472247 -1.005781,-1.049438 z M 69.607045,8.3446024 68.464662,6.9953246 69.81394,8.1377059 c 0.742103,0.6283095 1.349278,1.2354844 1.349278,1.3492777 0,0.4798949 -0.482616,0.125607 -1.556173,-1.1423812 z"
         id="path12177" />
      <path
         style="fill:#494949;fill-opacity:1;stroke-width:0.599679"
         d="m 48.040274,95.776275 c -1.109459,-0.830202 -1.07206,-0.890086 0.79738,-1.276813 1.07879,-0.223164 2.106674,-0.640757 2.284188,-0.927979 0.177514,-0.287222 1.048928,-0.490298 1.936478,-0.451276 l 1.613726,0.07095 -1.799037,0.457776 -1.799037,0.457777 1.948956,0.07095 c 1.071927,0.03902 1.948957,0.286833 1.948957,0.550692 0,1.903189 -4.815723,2.631223 -6.931611,1.047915 z m -5.073362,-3.040583 c -0.633731,-0.763601 -0.596631,-0.851352 0.226412,-0.535519 0.541387,0.207747 0.984339,0.618707 0.984339,0.913245 0,0.771163 -0.347138,0.662861 -1.210751,-0.377726 z m -1.787643,-3.820027 c 0,-0.294538 0.442952,-0.705498 0.984339,-0.913245 0.823043,-0.315833 0.860143,-0.228082 0.226412,0.535519 -0.863613,1.040587 -1.210751,1.148889 -1.210751,0.377726 z m 17.516966,-0.903194 c 0.425284,-0.461471 0.867729,-0.749281 0.983212,-0.639576 0.355698,0.337895 -0.545792,1.478611 -1.168523,1.478611 -0.323362,0 -0.239972,-0.377564 0.185311,-0.839035 z M 40.953513,85.530088 c -0.578678,-1.508007 -0.407968,-1.897115 0.29896,-0.68144 0.350027,0.601928 0.510086,1.220743 0.355687,1.375142 -0.154398,0.1544 -0.44899,-0.157769 -0.654647,-0.693702 z m 18.929775,-0.825015 c 0.13838,-0.466508 0.911449,-1.259428 1.717934,-1.762048 1.136632,-0.708371 1.264076,-0.719909 0.566811,-0.05133 -0.494735,0.474394 -1.267804,1.267314 -1.717932,1.762049 -0.658931,0.724232 -0.769384,0.734235 -0.566813,0.05133 z M 45.377021,83.218715 c 0,-0.129627 0.418799,-0.396388 0.930665,-0.592813 0.533669,-0.204784 0.774379,-0.104254 0.564288,0.23568 -0.352167,0.569821 -1.494953,0.842819 -1.494953,0.357133 z m 15.591654,-1.389984 c 0,-0.344408 0.472247,-0.996558 1.049438,-1.449226 0.970737,-0.761299 0.983462,-0.733078 0.169691,0.376334 -0.483863,0.659647 -0.95611,1.311798 -1.049438,1.449227 -0.09333,0.137422 -0.169691,-0.03193 -0.169691,-0.376335 z M 44.099033,80.850583 c 0.367347,-0.442623 0.467853,-1.025601 0.223347,-1.295499 -0.244506,-0.269903 -0.09413,-0.288511 0.334162,-0.04138 0.599965,0.346219 0.617524,0.6436 0.07649,1.295505 -0.386225,0.465387 -0.837154,0.846147 -1.002066,0.846147 -0.164912,0 7.2e-4,-0.362146 0.368064,-0.804775 z M 37.31991,78.832747 c -0.325436,-0.854663 -0.256555,-0.923542 0.335698,-0.3357 0.409831,0.406786 0.594084,0.890667 0.409451,1.075302 -0.184634,0.184635 -0.519951,-0.148187 -0.745149,-0.739602 z m 17.651975,0.787894 c 0,-0.129627 0.404783,-0.391009 0.899519,-0.580861 0.494735,-0.189846 0.899518,-0.08379 0.899518,0.23568 0,0.319473 -0.404783,0.580861 -0.899518,0.580861 -0.494736,0 -0.899519,-0.106059 -0.899519,-0.23568 z M 40.57959,76.222854 c 0,-0.349289 0.269855,-0.468289 0.599679,-0.264446 0.329823,0.203842 0.599679,0.489625 0.599679,0.635072 0,0.145446 -0.269856,0.264446 -0.599679,0.264446 -0.329824,0 -0.599679,-0.285783 -0.599679,-0.635072 z m -5.902104,-1.163965 c 0,-0.824559 0.136111,-1.161878 0.30247,-0.749599 0.166358,0.41228 0.166358,1.086918 0,1.499198 -0.166359,0.412279 -0.30247,0.07496 -0.30247,-0.749599 z m -0.647022,-5.746922 c 0.02877,-0.698596 0.170873,-0.840689 0.362306,-0.362308 0.17323,0.432891 0.151925,0.950114 -0.04734,1.149387 -0.199268,0.199267 -0.341002,-0.154921 -0.314963,-0.787079 z M 31.3762,34.381973 c -0.546573,-0.603957 -0.822772,-1.269101 -0.613775,-1.478098 0.535465,-0.535465 2.410926,0.564068 2.831484,1.660024 0.491987,1.282099 -1.003833,1.159392 -2.217709,-0.181926 z m 36.143062,-0.251174 c -0.04582,-1.347946 -0.256177,-2.616899 -0.621267,-3.747994 -0.297981,-0.923191 1.348972,-4.899148 1.677062,-4.048643 0.222199,0.576011 0.584915,0.541418 1.571939,-0.14992 2.626815,-1.839894 2.928952,-0.803828 0.716382,2.456578 -0.958737,1.412779 -1.499197,3.043759 -1.499197,4.524224 0,1.65802 -0.255284,2.315032 -0.899519,2.315032 -0.519454,0 -0.918906,-0.570098 -0.9454,-1.349277 z m 9.13575,-4.647513 c 0,-0.824558 0.136115,-1.161878 0.302472,-0.749598 0.166357,0.412279 0.166357,1.086918 0,1.499197 -0.166357,0.412279 -0.302472,0.07496 -0.302472,-0.749599 z m 0.04444,-4.797431 c 0,-1.154382 0.123414,-1.62663 0.274251,-1.049439 0.150831,0.577191 0.150831,1.521686 0,2.098877 -0.150831,0.577191 -0.274245,0.104944 -0.274245,-1.049438 z M 33.983121,11.193078 c 0.774632,-0.824559 1.54335,-1.4991979 1.708262,-1.4991979 0.164912,0 -0.333951,0.6746389 -1.108583,1.4991979 -0.774633,0.824558 -1.543351,1.499197 -1.708263,1.499197 -0.164911,0 0.333951,-0.674639 1.108584,-1.499197 z M 47.063619,4.4867991 C 47.496512,4.3135695 48.013735,4.3348738 48.213003,4.5341421 48.412271,4.7334104 48.058086,4.8751438 47.425925,4.849105 46.727333,4.82033 46.585235,4.6782325 47.063619,4.4867991 Z"
         id="path12175" />
      <path
         style="fill:#333333;fill-opacity:1;stroke-width:0.599679"
         d="m 45.683886,94.128309 c -1.990184,-1.16658 -3.742765,-3.002803 -2.70558,-2.834713 1.275764,0.206764 3.054709,-0.666465 2.659719,-1.305567 -0.182482,-0.295264 -1.158469,-0.536844 -2.168859,-0.536844 -1.564961,0 -1.726495,-0.133237 -1.090539,-0.899519 0.563129,-0.678531 0.570921,-0.899518 0.03172,-0.899518 -0.399655,0 -0.628284,-0.594894 -0.518554,-1.349278 0.107943,-0.742103 -0.210608,-1.678016 -0.707891,-2.079807 -0.773328,-0.624823 -0.703802,-0.733281 0.480518,-0.749598 0.826104,-0.01139 1.22497,-0.277466 0.98878,-0.659629 -0.217739,-0.352312 -0.748631,-0.505206 -1.179759,-0.339766 -0.468254,0.179687 -0.931339,-0.286761 -1.150125,-1.158472 -0.201438,-0.802605 -0.720295,-1.459277 -1.153012,-1.459277 -0.432718,0 -1.147816,-0.674639 -1.589106,-1.499198 -0.441291,-0.824558 -1.16153,-1.499197 -1.600532,-1.499197 -0.439001,0 -0.798184,-0.212646 -0.798184,-0.472553 0,-1.926913 -1.882054,-14.988265 -2.611968,-18.126914 C 32.073148,56.119787 30.416133,50.861842 28.888255,46.574137 24.956078,35.539213 24.40341,33.324627 24.395375,28.57079 24.378545,18.614553 29.514856,8.8732452 37.47444,3.7655944 l 2.910311,-1.8675411 h 9.701367 9.701367 l 3.439071,1.9285566 c 4.625564,2.5939161 9.464302,7.5282441 11.287368,11.5103491 1.776759,3.880948 2.625125,10.509803 2.040708,15.945364 -0.230505,2.143853 -1.381205,6.461541 -2.55711,9.594864 -3.711479,9.889602 -5.846534,18.039596 -6.833773,26.086036 -0.809315,6.596283 -1.174975,8.031554 -2.376426,9.327838 -0.780962,0.842603 -1.419932,1.769707 -1.419932,2.060228 0,0.290514 -0.607175,1.189799 -1.349278,1.998406 -0.992121,1.081029 -1.139723,1.544719 -0.557611,1.751758 0.565431,0.201108 0.43235,0.533247 -0.465681,1.16225 -0.691537,0.484373 -1.197273,1.197679 -1.123856,1.585125 0.257842,1.360714 -0.77466,3.345453 -1.93136,3.712577 -1.559016,0.494807 -1.478906,1.262144 0.180595,1.72984 l 1.349277,0.380268 -1.415712,1.188876 c -0.917974,0.770881 -2.298951,1.188869 -3.927897,1.188869 -1.381702,0 -2.768548,0.241425 -3.08188,0.536503 -1.005644,0.947049 -4.130436,1.263338 -5.360102,0.542548 z m 8.919191,-4.955867 c 0.532668,-0.812955 0.967155,-1.555058 0.965526,-1.649117 -0.0067,-0.387663 -5.876587,-0.506471 -8.233291,-0.166645 -2.5348,0.36551 -2.537601,0.368748 -1.580148,1.83001 0.833488,1.272063 1.412492,1.463853 4.419289,1.463853 3.015905,0 3.584476,-0.189769 4.428624,-1.478101 z m 3.178244,-4.014785 1.688156,-0.69546 -1.799036,-0.386961 c -1.706612,-0.367075 -1.729718,-0.410444 -0.44976,-0.84415 1.721856,-0.583439 1.794428,-1.797837 0.07482,-1.252051 -1.683331,0.534266 -0.907063,-0.803564 0.886059,-1.527047 1.268223,-0.5117 1.266303,-0.520227 -0.125522,-0.557653 -1.03524,-0.02783 -1.316041,-0.291822 -1.049438,-0.98658 0.200199,-0.521709 0.363998,-1.337956 0.363998,-1.813879 0,-0.475924 0.607175,-1.119121 1.349278,-1.429329 3.16483,-1.32294 3.864199,-2.542501 4.319248,-7.531938 0.708664,-7.770195 1.947121,-13.269765 5.123231,-22.750464 1.650473,-4.926679 3.00086,-9.170103 3.00086,-9.429833 0,-0.259729 -0.404784,-0.472236 -0.899519,-0.472236 -1.544335,0 -1.131516,-4.288194 0.668115,-6.940097 1.330267,-1.96026 1.516156,-2.744642 1.22768,-5.180361 C 70.843529,12.248344 60.283225,3.6997614 48.81982,4.4661126 41.488127,4.9562508 33.56553,10.063877 30.334904,16.383171 c -1.625698,3.179961 -2.931555,7.900464 -2.941134,10.631825 -0.01012,2.884359 1.21233,6.620692 2.059752,6.295506 0.389049,-0.149292 1.204405,0.277789 1.811904,0.949067 1.084572,1.198438 1.075755,1.220507 -0.487597,1.220507 -0.875677,0 -1.59214,0.125584 -1.59214,0.279076 0,0.153491 1.37213,4.387733 3.049177,9.409427 3.293887,9.863098 4.417997,14.849698 5.074259,22.509617 0.349509,4.079484 0.662553,5.139753 1.845681,6.251246 0.783631,0.736178 1.424784,1.696258 1.424784,2.133496 0,1.00725 1.007425,1.040371 1.38041,0.04539 0.194107,-0.517805 0.565096,-0.379255 1.199747,0.448062 0.595776,0.776639 0.719991,1.437143 0.353347,1.878921 -0.37597,0.453015 -0.236272,0.807563 0.416963,1.058235 0.796386,0.305602 0.842147,0.545918 0.241717,1.269389 -0.646327,0.778779 -0.02491,0.89899 4.879813,0.943966 4.481076,0.04108 5.255757,0.167808 3.821422,0.625064 -0.989471,0.315437 -3.41817,0.419193 -5.397111,0.230576 -2.30348,-0.219554 -3.297049,-0.142657 -2.761434,0.21372 0.678911,0.45172 0.622382,0.619474 -0.299839,0.889815 -0.625064,0.183226 1.238289,0.258222 4.140784,0.166657 2.902495,-0.09157 5.414585,0.05571 5.582422,0.327263 0.313231,0.506819 -4.307273,0.817177 -8.31105,0.558253 -1.285007,-0.0831 -2.248797,0.128925 -2.248797,0.494717 0,0.885492 12.033374,0.838633 14.203337,-0.05529 z M 46.27654,79.856321 c -0.203842,-0.329824 0.117551,-0.630449 0.714207,-0.668054 4.944322,-0.311636 6.635318,-1.130983 2.334161,-1.130983 -2.012256,0 -2.775123,-0.220058 -2.598609,-0.749599 0.15472,-0.464157 1.372599,-0.749599 3.198288,-0.749599 2.524042,0 2.921523,0.15774 2.761541,1.095914 -0.120748,0.708101 0.268562,1.215015 1.100132,1.432477 0.973675,0.254624 1.092172,0.460068 0.48672,0.843856 -1.123033,0.711885 -7.547481,0.652421 -7.99644,-0.07401 z m -4.197753,1.199358 C 42.282629,80.725855 42.012774,80.456 41.479108,80.456 c -0.533666,0 -0.803521,0.269855 -0.599679,0.599679 0.203842,0.329823 0.473698,0.599679 0.599679,0.599679 0.125981,0 0.395837,-0.269856 0.599679,-0.599679 z m 0,-2.398716 c 0.203842,-0.329824 -0.05008,-0.599679 -0.564288,-0.599679 -0.5142,0 -0.934909,0.269855 -0.934909,0.599679 0,0.329823 0.253929,0.599679 0.564287,0.599679 0.310359,0 0.731068,-0.269856 0.93491,-0.599679 z"
         id="path12173" />
    </g>
  </g>
</svg>
