<?xml version="1.0" encoding="UTF-8" standalone="no"?>
<!-- Created with Inkscape (http://www.inkscape.org/) -->

<svg
   width="100mm"
   height="100mm"
   viewBox="0 0 100 100"
   version="1.1"
   id="svg13081"
   inkscape:version="1.1.1 (3bf5ae0d25, 2021-09-20)"
   sodipodi:docname="add_list_type_device_6009.svg"
   xmlns:inkscape="http://www.inkscape.org/namespaces/inkscape"
   xmlns:sodipodi="http://sodipodi.sourceforge.net/DTD/sodipodi-0.dtd"
   xmlns="http://www.w3.org/2000/svg"
   xmlns:svg="http://www.w3.org/2000/svg">
  <sodipodi:namedview
     id="namedview13083"
     pagecolor="#ffffff"
     bordercolor="#666666"
     borderopacity="1.0"
     inkscape:pageshadow="2"
     inkscape:pageopacity="0.0"
     inkscape:pagecheckerboard="true"
     inkscape:document-units="mm"
     showgrid="false"
     width="100mm"
     inkscape:zoom="0.58974467"
     inkscape:cx="378.97757"
     inkscape:cy="76.304208"
     inkscape:window-width="1440"
     inkscape:window-height="890"
     inkscape:window-x="-6"
     inkscape:window-y="-6"
     inkscape:window-maximized="1"
     inkscape:current-layer="layer1" />
  <defs
     id="defs13078" />
  <g
     inkscape:label="Laag 1"
     inkscape:groupmode="layer"
     id="layer1">
    <g
       id="g13097"
       transform="translate(-2.243206,-0.40263091)">
      <path
         style="fill:#d0d0d0;fill-opacity:1;stroke-width:0.605218"
         d="m 19.605945,94.066727 c 0,-0.322418 0.408522,-0.429457 0.907826,-0.237857 0.499305,0.191606 0.907827,0.455402 0.907827,0.586226 0,0.130818 -0.408522,0.237857 -0.907827,0.237857 -0.499304,0 -0.907826,-0.263802 -0.907826,-0.586226 z m 19.894988,-0.472905 c -0.752813,-0.959912 -0.731406,-0.981318 0.228503,-0.228506 0.582522,0.456848 1.059131,0.933457 1.059131,1.059131 0,0.498118 -0.496996,0.177516 -1.287634,-0.830625 z m 9.155465,-2.572176 c -0.668919,-0.432289 -0.270741,-0.58668 1.513045,-0.58668 1.783785,0 2.181963,0.154391 1.513044,0.58668 -0.499305,0.322678 -1.180175,0.58668 -1.513044,0.58668 -0.33287,0 -1.01374,-0.264002 -1.513045,-0.58668 z m 4.728264,-0.41343 c 0.436892,-0.174829 0.958892,-0.153332 1.160001,0.04775 0.201108,0.201107 -0.156348,0.344151 -0.794348,0.317872 C 53.04527,90.94479 52.90186,90.801389 53.384662,90.608192 Z M 14.687004,89.357297 c -0.752813,-0.959911 -0.731406,-0.981318 0.228503,-0.228506 0.582522,0.456849 1.059131,0.933458 1.059131,1.059131 0,0.498119 -0.496996,0.177517 -1.287634,-0.830625 z m 49.099839,0.489634 c 0,-0.313225 0.269231,-0.735897 0.598288,-0.939262 0.343073,-0.212032 0.444532,0.03093 0.237856,0.569498 -0.402343,1.048491 -0.836144,1.240327 -0.836144,0.369764 z m -53.72397,-4.877463 c 0,-1.165044 0.12455,-1.641653 0.27678,-1.059131 0.152228,0.582522 0.152228,1.53574 0,2.118263 -0.15223,0.582522 -0.27678,0.105913 -0.27678,-1.059132 z m 18.761751,0 c 0,-1.165044 0.124551,-1.641653 0.27678,-1.059131 0.152228,0.582522 0.152228,1.53574 0,2.118263 -0.152229,0.582522 -0.27678,0.105913 -0.27678,-1.059132 z m 25.165256,0.797006 c 0.436891,-0.17483 0.958892,-0.153332 1.160001,0.04775 0.201108,0.201108 -0.156349,0.344151 -0.794349,0.317873 -0.705044,-0.02905 -0.848454,-0.172451 -0.365652,-0.365649 z M 43.209438,84.097362 c 0,-0.47966 0.246949,-1.024731 0.548776,-1.211271 0.301827,-0.18654 0.406237,0.205907 0.232022,0.872107 -0.369554,1.413177 -0.780798,1.591813 -0.780798,0.339164 z m 8.473049,-0.570351 c 0,-0.127611 0.545072,-0.374558 1.211271,-0.548776 0.666199,-0.174212 1.058647,-0.06981 0.872108,0.232023 -0.325759,0.52709 -2.083379,0.794312 -2.083379,0.316753 z m -8.27131,-3.67527 c 0,-0.484665 0.2314,-0.73819 0.514221,-0.563397 0.282821,0.174793 0.357531,0.571331 0.166021,0.881203 -0.489394,0.791855 -0.680242,0.702694 -0.680242,-0.317806 z m 4.18609,-1.085755 c 0.145922,-1.896976 0.248199,-1.968719 2.874784,-2.016392 l 2.72348,-0.04945 -2.536193,0.232428 c -2.255772,0.20673 -2.573631,0.42968 -2.874785,2.016392 -0.323736,1.705697 -0.331952,1.697672 -0.187286,-0.182994 z M 18.546814,75.474007 c 0.582522,-0.152224 1.53574,-0.152224 2.118262,0 0.582522,0.15223 0.105913,0.276784 -1.059131,0.276784 -1.165044,0 -1.641653,-0.124554 -1.059131,-0.276784 z m 13.816484,-9.014114 c 0.02904,-0.705048 0.172452,-0.848454 0.365653,-0.365654 0.17483,0.436889 0.153328,0.958889 -0.04778,1.160003 C 32.48006,67.45535 32.337017,67.09789 32.363296,66.459893 Z M 51.958253,55.195668 c 1.174646,-0.68135 1.174646,-0.69004 0,-1.149494 -1.098557,-0.429693 -1.085759,-0.46601 0.178147,-0.505492 0.748957,-0.0234 1.36174,0.17534 1.36174,0.441636 0,0.702864 -1.346336,1.939772 -2.088001,1.918293 -0.349513,-0.01012 -0.102862,-0.327347 0.548114,-0.704943 z m -1.596377,-3.039872 c 0.322751,-0.322751 1.092359,-0.479664 1.710238,-0.348695 0.832064,0.176368 0.679875,0.328557 -0.586821,0.586821 -1.104414,0.225176 -1.502366,0.140824 -1.123417,-0.238126 z M 41.885524,37.954267 c 0.436892,-0.17483 0.958892,-0.153328 1.160001,0.04778 0.201109,0.201109 -0.156348,0.344151 -0.794348,0.317872 -0.705044,-0.02904 -0.848455,-0.172451 -0.365653,-0.365652 z m 6.170405,-2.739418 c -0.730345,-1.401198 -2.966222,-4.802571 -4.968614,-7.558607 -3.314336,-4.561756 -3.808382,-4.998003 -5.511028,-4.866285 -1.5443,0.119469 -1.973203,-0.139793 -2.46058,-1.487364 -0.841277,-2.326082 0.355558,-5.814103 2.984053,-8.696643 l 2.171046,-2.380877 -1.868865,2.457931 c -2.32508,3.057947 -3.194549,5.885916 -2.428843,7.899874 0.490868,1.29108 0.845429,1.452219 2.541652,1.155114 1.880688,-0.329415 2.096273,-0.158673 4.694688,3.718156 1.497914,2.234885 3.434512,4.760602 4.303551,5.612705 1.605777,1.574483 3.56428,4.903432 3.56428,6.058356 0,1.554721 -1.811996,0.407817 -3.02134,-1.91236 z m 3.640601,1.878819 c -0.0077,-0.534282 2.200544,-4.029121 4.907261,-7.766308 3.769929,-5.205172 5.1793,-6.727418 6.024047,-6.506511 0.606513,0.158606 1.489163,-0.02325 1.961439,-0.404132 C 67.34148,20.197158 65.094579,14.0509 60.153422,10.282725 57.355249,8.148811 56.63179,7.8988584 52.111005,7.5041003 L 47.143354,7.070321 51.248013,6.983348 c 2.31574,-0.049068 4.972622,0.2756855 6.096193,0.7451434 4.304826,1.798671 8.819781,7.2134536 9.753856,11.6977846 0.577759,2.773722 -1.186445,6.358984 -3.011389,6.119837 -1.020221,-0.133694 -2.211838,0.831219 -4.908774,3.974894 -6.723853,7.837638 -7.46667,8.58952 -7.481369,7.572661 z M 23.890249,27.120736 c 0.02904,-0.705044 0.172452,-0.848455 0.365653,-0.365653 0.17483,0.436892 0.153328,0.958892 -0.04778,1.160001 -0.201109,0.201109 -0.344152,-0.156348 -0.317873,-0.794348 z m 6.004398,-15.005904 c 0,-0.125677 0.476609,-0.602286 1.059131,-1.059131 0.959909,-0.752813 0.981316,-0.731406 0.228503,0.228503 -0.790638,1.00814 -1.287634,1.328743 -1.287634,0.830628 z m 40.794698,-1.738455 -1.152934,-1.3617397 1.36174,1.1529327 c 1.279697,1.083472 1.63726,1.570547 1.152934,1.570547 -0.114846,0 -0.727629,-0.612783 -1.36174,-1.36174 z"
         id="path13113" />
      <path
         style="fill:#b9b9b9;fill-opacity:1;stroke-width:0.605218"
         d="m 17.185074,94.420931 c 0,-0.127611 0.545071,-0.374558 1.21127,-0.548776 0.666199,-0.174212 1.058648,-0.06981 0.872109,0.232023 -0.325759,0.52709 -2.083379,0.794312 -2.083379,0.316753 z M 47.2271,91.324255 c -0.429541,-1.119362 0.07639,-1.119362 2.034516,0 l 1.513044,0.864935 -1.599597,0.02143 C 48.295285,92.22243 47.418701,91.823565 47.2271,91.32426 Z m 4.757996,0.302609 c -1.249815,-0.537064 -1.088924,-0.621577 1.563479,-0.821262 0.92563,-0.06968 1.56348,0.197282 1.56348,0.654385 0,0.870927 -1.324107,0.941592 -3.126959,0.166877 z m -1.059131,-4.03213 c 0.416087,-0.167894 1.096957,-0.167894 1.513044,0 0.416087,0.167893 0.07565,0.305265 -0.756522,0.305265 -0.832174,0 -1.172609,-0.137372 -0.756522,-0.305265 z M 12.996329,85.221645 c 0.02904,-0.705049 0.172452,-0.848455 0.365653,-0.365655 0.17483,0.436889 0.153328,0.958889 -0.04778,1.160003 -0.201109,0.201108 -0.344152,-0.156352 -0.317873,-0.794348 z m 36.056189,0.504346 c -0.154294,-0.249653 0.782852,-0.453914 2.082545,-0.453914 1.299692,0 2.363077,0.204261 2.363077,0.453914 0,0.249652 -0.937144,0.453913 -2.082544,0.453913 -1.145399,0 -2.208784,-0.204261 -2.363078,-0.453913 z M 41.393785,85.34618 c 0,-0.125673 0.476609,-0.602282 1.059131,-1.059131 0.959909,-0.752812 0.981316,-0.731406 0.228503,0.228506 -0.790638,1.008142 -1.287634,1.328744 -1.287634,0.830625 z m 16.734673,-1.870371 c -0.187511,-0.488647 -0.137011,-1.014478 0.112222,-1.168512 0.249233,-0.154034 0.492761,0.245767 0.541172,0.888448 0.1047,1.389919 -0.180579,1.512197 -0.653394,0.280064 z M 42.301611,81.94338 c 1.337844,-1.478299 1.234457,-1.489242 1.357461,0.143672 0.08017,1.064215 -0.01985,1.161395 -0.467157,0.453914 -0.381079,-0.602725 -0.572222,-0.650198 -0.578427,-0.143673 -0.0051,0.416087 -0.323826,0.756522 -0.708287,0.756522 -0.39641,0 -0.224802,-0.524004 0.39641,-1.210435 z m 8.66218,-1.018649 c 0.436891,-0.174829 0.958892,-0.153331 1.160001,0.04775 0.201108,0.201108 -0.156349,0.344151 -0.794349,0.317873 -0.705044,-0.02905 -0.848454,-0.172451 -0.365652,-0.365649 z m 7.112394,-0.619597 c -0.328443,-0.862557 -0.258925,-0.932072 0.338798,-0.338801 0.413616,0.410543 0.599571,0.898893 0.413233,1.085234 -0.186339,0.18634 -0.524753,-0.149555 -0.752031,-0.746433 z M 48.169167,79.2199 c 0.01233,-0.99861 0.147974,-1.333864 0.301424,-0.745005 0.153448,0.588858 0.143357,1.405902 -0.02242,1.815653 -0.165785,0.409751 -0.291334,-0.07204 -0.279,-1.070648 z m 4.956185,0.640568 c -0.18414,-0.479859 -0.228135,-1.36499 -0.09777,-1.966958 0.148009,-0.683418 0.355172,-0.355735 0.551584,0.872476 0.329601,2.061075 0.115366,2.57775 -0.453817,1.094482 z M 39.426827,37.966875 c 0.416087,-0.167894 1.096957,-0.167894 1.513044,0 0.416088,0.167896 0.07565,0.305264 -0.756522,0.305264 -0.832174,0 -1.172609,-0.137368 -0.756522,-0.305264 z m 20.615231,-0.01261 c 0.436891,-0.17483 0.958891,-0.153329 1.16,0.04778 0.201109,0.201109 -0.156348,0.344151 -0.794348,0.317872 -0.705044,-0.02904 -0.848455,-0.172451 -0.365652,-0.365652 z M 47.455976,36.275774 c -0.310885,-0.817689 -1.548331,-2.792212 -2.74988,-4.387829 -1.20155,-1.595617 -3.020658,-4.037564 -4.042464,-5.42655 -1.59113,-2.162895 -2.054465,-2.450667 -3.227614,-2.004636 -1.016139,0.386336 -1.619583,0.244772 -2.337318,-0.548316 -1.065288,-1.177129 -1.291136,-5.278899 -0.370196,-6.723366 0.400169,-0.627653 0.470418,-0.23301 0.227623,1.278733 -0.505009,3.144404 0.608182,4.953635 2.757444,4.481578 1.553807,-0.341274 1.958042,0.01472 5.281834,4.651593 5.385171,7.512597 6.853661,10.165501 5.627019,10.165501 -0.330662,0 -0.855564,-0.669019 -1.166448,-1.486708 z m 5.554115,0.427577 c 0.500493,-0.582522 1.598048,-1.876175 2.439009,-2.874785 5.951251,-7.066879 7.39379,-8.445443 8.663289,-8.279084 1.851125,0.242579 3.515795,-3.300672 2.95503,-6.289793 -0.551522,-2.93988 -3.632753,-7.362374 -6.807628,-9.7710094 -2.837614,-2.1527683 -2.870903,-2.5099491 -0.100402,-1.0772671 2.006898,1.0378081 5.740692,5.6706445 7.008684,8.6962715 1.777507,4.24141 0.748037,9.328643 -2.182724,10.786167 -1.274964,0.634065 -6.464646,5.035788 -10.3865,8.8095 -0.605389,0.582522 -1.415267,1.059131 -1.799728,1.059131 -0.448177,0 -0.372472,-0.380067 0.21097,-1.059131 z M 77.30023,28.986824 c 0.0024,-2.330088 0.112074,-3.209145 0.243092,-1.953459 0.131011,1.255686 0.128814,3.162122 -0.0048,4.236524 -0.133741,1.074403 -0.240937,0.04702 -0.23825,-2.283065 z M 39.213311,10.884169 C 42.253343,8.1107034 47.179855,6.2661879 51.251277,6.377083 l 3.15469,0.085926 -3.933916,0.4243914 C 45.916317,7.3788735 42.682603,8.6255537 39.275523,11.203952 l -2.420872,1.832057 z"
         id="path13111" />
      <path
         style="fill:#a3a3a3;fill-opacity:1;stroke-width:0.605218"
         d="M 15.866034,98.663882 C 3.4202264,95.253529 1.6610337,78.251987 13.142584,72.343379 c 8.179179,-4.209157 18.39778,0.605151 20.32125,9.573982 2.22866,10.391886 -7.388677,19.543989 -17.5978,16.746521 z m 9.378795,-6.003736 c 5.896169,-4.497228 4.960203,-13.262942 -1.756485,-16.450218 -6.455714,-3.063437 -14.2152836,2.579056 -13.407106,9.749186 0.824146,7.3118 9.396291,11.099967 15.163591,6.701032 z m -6.84932,0.367797 c 0,-0.539987 -1.089392,-1.987517 -2.420871,-3.216732 -2.090666,-1.930094 -2.420871,-2.584171 -2.420871,-4.795328 0,-5.5597 6.416954,-8.247799 10.335257,-4.329492 3.770221,3.770216 1.35931,10.802078 -4.434384,12.933679 -0.733577,0.269897 -1.059131,0.08789 -1.059131,-0.592127 z m 20.577405,-1.09847 c 0,-0.499305 0.2638,-0.907827 0.586223,-0.907827 0.322423,0 0.429459,0.408522 0.237857,0.907827 -0.191601,0.499305 -0.455402,0.907827 -0.586223,0.907827 -0.130822,0 -0.237857,-0.408522 -0.237857,-0.907827 z m 11.953051,-0.09821 c 0.416087,-0.167893 1.096957,-0.167893 1.513044,0 0.416087,0.167894 0.07565,0.305266 -0.756522,0.305266 -0.832174,0 -1.172609,-0.137372 -0.756522,-0.305266 z m -4.690438,-0.809612 c -0.545478,-0.352515 -0.620126,-0.590384 -0.187023,-0.595952 0.396443,-0.0048 0.889125,0.263082 1.09485,0.595952 0.464386,0.751396 0.254871,0.751396 -0.907827,0 z m 8.916875,-0.0751 c 0.41054,-0.413618 0.898894,-0.599571 1.085233,-0.413231 0.186339,0.186341 -0.149557,0.524754 -0.746435,0.752032 -0.862555,0.328439 -0.932073,0.258924 -0.338798,-0.338801 z m 8.077005,-0.27794 c 0.02905,-0.705049 0.17245,-0.848455 0.365648,-0.365655 0.174829,0.436889 0.153332,0.958889 -0.04775,1.160003 -0.201114,0.201108 -0.344151,-0.156352 -0.317872,-0.794348 z m -4.490871,-10.51457 c -0.223883,-1.119411 -0.268994,-2.173361 -0.100247,-2.342108 0.168746,-0.168747 0.306811,0.124409 0.306811,0.65145 0,0.527042 0.235812,1.049042 0.524026,1.160003 0.288215,0.110955 0.333326,0.733687 0.100247,1.383843 -0.350746,0.978389 -0.493929,0.831351 -0.830837,-0.853188 z m -16.739533,0.955621 c 0,-0.125674 0.414756,-0.572718 0.921681,-0.993429 0.770652,-0.639582 0.859214,-0.602143 0.540466,0.228506 -0.325544,0.848352 -1.462147,1.442972 -1.462147,0.764923 z m 10.521131,-1.249188 c -0.18414,-0.479859 -0.228135,-1.36499 -0.09777,-1.966958 0.148009,-0.683418 0.355172,-0.355735 0.551583,0.872476 0.329601,2.061075 0.115366,2.57775 -0.453817,1.094482 z M 37.005956,37.966875 c 0.416087,-0.167894 1.096957,-0.167894 1.513044,0 0.416088,0.167896 0.07565,0.305264 -0.756522,0.305264 -0.832174,0 -1.172609,-0.137368 -0.756522,-0.305264 z m 8.416425,-2.930615 c -0.946535,-1.498233 -2.966411,-4.205347 -4.488611,-6.01581 -2.397222,-2.851187 -2.989685,-3.247341 -4.426702,-2.959937 -2.14559,0.429118 -3.017339,-1.10072 -2.879375,-5.053037 0.09976,-2.858043 0.106502,-2.867619 0.3473,-0.493701 0.320171,3.156407 1.62375,4.641514 3.461025,3.942984 1.173149,-0.446031 1.636484,-0.158259 3.227614,2.004636 1.021806,1.388986 2.840914,3.830933 4.042464,5.42655 2.237337,2.971108 3.659543,5.875386 2.876191,5.873455 -0.241413,-5.96e-4 -1.213371,-1.226909 -2.159906,-2.72514 z m 8.680977,2.19061 c 0,-0.294587 0.612783,-0.952707 1.36174,-1.46249 0.748957,-0.509783 2.83813,-2.318824 4.642607,-4.020091 1.804477,-1.701267 3.975289,-3.426191 4.824028,-3.833166 1.997388,-0.957754 3.071559,-3.140542 3.082713,-6.264305 0.0112,-3.14054 -1.081796,-5.769421 -3.967892,-9.54346 l -2.266225,-2.9634581 1.962327,1.4504131 c 2.50459,1.851219 4.943969,7.138469 5.27647,11.436507 0.224427,2.90102 0.04091,3.632162 -1.428254,5.690625 -0.927175,1.29906 -2.22098,2.6608 -2.875135,3.026089 -0.65415,0.365289 -3.022654,2.093988 -5.263345,3.841554 -3.935459,3.069356 -5.349034,3.767493 -5.349034,2.641782 z M 38.367696,10.893652 c 1.56113,-1.7480462 5.408752,-4.0074114 6.784589,-3.9839851 0.429348,0.00731 -0.308759,0.5098957 -1.640238,1.1168562 -1.331479,0.6069602 -3.374089,1.8815615 -4.539133,2.8324479 l -2.118263,1.728883 z"
         id="path13109" />
      <path
         style="fill:#8c8c8c;fill-opacity:1;stroke-width:0.605218"
         d="m 39.781384,93.099226 c -0.200188,-0.52168 -0.123553,-1.188932 0.170298,-1.482784 0.308889,-0.308885 0.534276,0.09124 0.534276,0.94851 0,1.718158 -0.193865,1.865166 -0.704574,0.534274 z m 23.034647,-2.873798 c 0.25099,-2.382749 0.661188,-3.283519 1.102688,-2.42144 0.139201,0.271797 -0.106693,1.447396 -0.546426,2.61244 l -0.799517,2.118263 z m -17.79094,0.796218 c -0.499304,-0.322678 -0.635478,-0.58668 -0.302608,-0.58668 0.332869,0 1.013739,0.264002 1.513044,0.58668 0.499305,0.322678 0.635479,0.58668 0.302609,0.58668 -0.33287,0 -1.01374,-0.264002 -1.513045,-0.58668 z m 10.89392,0 c 0.499305,-0.322678 1.180175,-0.58668 1.513045,-0.58668 0.33287,0 0.196696,0.264002 -0.302609,0.58668 -0.499305,0.322678 -1.180175,0.58668 -1.513044,0.58668 -0.33287,0 -0.196696,-0.264002 0.302608,-0.58668 z M 38.789482,90.178499 c -0.247653,-0.630165 -0.307694,-1.288339 -0.133423,-1.462605 0.551994,-0.551995 1.037682,0.352575 0.806387,1.50186 -0.211973,1.053278 -0.244344,1.05139 -0.672964,-0.03928 z m 3.612999,-1.375987 c -0.670761,-0.670756 -0.452238,-3.227826 0.275845,-3.227826 0.444646,0 0.392377,-0.365884 -0.151304,-1.059131 -0.757123,-0.965407 -0.734632,-0.983745 0.254153,-0.207214 0.752591,0.591037 0.891592,1.045102 0.453913,1.482783 -0.80238,0.80238 -0.829668,2.398732 -0.03258,1.906109 0.343074,-0.212032 0.444537,0.03093 0.237858,0.569498 -0.407527,1.062 -0.47621,1.097454 -1.037882,0.535781 z m 16.278922,-0.629547 c -0.328443,-0.862557 -0.258925,-0.932072 0.338798,-0.338801 0.413616,0.410543 0.599571,0.898894 0.413233,1.085234 -0.186339,0.186341 -0.524753,-0.149555 -0.752031,-0.746433 z m -8.046529,0.0084 c 0.588857,-0.153447 1.405901,-0.143358 1.815654,0.02245 0.409751,0.165787 -0.07204,0.291334 -1.07065,0.278999 -0.998609,-0.01235 -1.333861,-0.147975 -0.745004,-0.301422 z m 8.405787,-2.606691 c 0,-0.832174 0.137368,-1.172609 0.305264,-0.756522 0.167894,0.416087 0.167894,1.096957 0,1.513044 -0.167896,0.416088 -0.305264,0.07565 -0.305264,-0.756522 z m -8.07687,-0.41343 c 0.436891,-0.174829 0.958892,-0.153332 1.160001,0.04775 0.201108,0.201107 -0.156349,0.344151 -0.794349,0.317872 -0.705044,-0.02905 -0.848454,-0.172451 -0.365652,-0.365648 z m 7.981309,-2.31005 c 0,-0.499304 0.263801,-0.907826 0.586223,-0.907826 0.322423,0 0.429459,0.408522 0.237858,0.907826 -0.191602,0.499305 -0.455402,0.907827 -0.586223,0.907827 -0.130822,0 -0.237858,-0.408522 -0.237858,-0.907827 z M 42.340523,82.120787 c -0.328443,-0.862556 -0.258925,-0.932072 0.338798,-0.338801 0.413616,0.410544 0.599571,0.898894 0.413233,1.085234 -0.186339,0.186341 -0.524753,-0.149555 -0.752031,-0.746433 z m 7.412832,0.619598 c 0.436892,-0.174829 0.958892,-0.153332 1.160001,0.04775 0.201109,0.201108 -0.156348,0.344152 -0.794348,0.317873 -0.705044,-0.02905 -0.848455,-0.172451 -0.365653,-0.365648 z m -0.864528,-2.879917 c -0.18414,-0.479859 -0.228134,-1.36499 -0.09777,-1.966958 0.148009,-0.683418 0.355172,-0.355735 0.551584,0.872476 0.329601,2.061075 0.115365,2.57775 -0.453818,1.094482 z M 51.534359,79.2199 c 0.159081,-0.832175 0.361912,-1.513045 0.450737,-1.513045 0.08882,0 0.291656,0.68087 0.450736,1.513045 0.180958,0.946621 0.01222,1.513044 -0.450736,1.513044 -0.462956,0 -0.631694,-0.566423 -0.450737,-1.513044 z m -9.232748,0.302608 c -0.205725,-0.332869 -0.08562,-0.605217 0.266891,-0.605217 0.352515,0 0.640936,0.272348 0.640936,0.605217 0,0.33287 -0.120101,0.605218 -0.266891,0.605218 -0.14679,0 -0.435211,-0.272348 -0.640936,-0.605218 z M 30.224416,38.439428 c 0.128074,-0.126984 -0.03741,-0.735878 -0.367731,-1.353097 -0.551149,-1.02983 -0.462202,-1.066246 1.080424,-0.442333 0.92456,0.373937 2.634236,0.868629 3.79928,1.099315 1.965515,0.389185 1.870814,0.43773 -1.313285,0.673212 -1.887352,0.139581 -3.326761,0.149888 -3.198688,0.0229 z m 6.630235,-1.282164 c -0.442414,-0.715841 0.149801,-0.715841 1.815654,0 1.167002,0.501478 1.162855,0.521668 -0.115587,0.56268 -0.729312,0.0234 -1.494342,-0.22981 -1.700067,-0.56268 z m 4.841743,-4.250075 c -3.504156,-4.619166 -4.65207,-5.509132 -5.44696,-4.222974 -0.205725,0.33287 -0.588958,0.605218 -0.851628,0.605218 -0.95059,0 -2.672036,-4.93018 -2.576123,-7.377954 0.131178,-3.347749 0.704271,-3.796086 0.704271,-0.550959 0,3.655969 0.917712,5.112673 2.963215,4.703572 1.389662,-0.277932 2.012487,0.106359 4.064231,2.507686 2.524483,2.954612 6.287345,8.248684 6.287345,8.845836 0,1.362472 -2.057813,-0.441761 -5.144351,-4.510425 z m 14.222617,4.588057 c 0,-0.374911 7.280673,-5.957103 8.735677,-6.69776 0.659307,-0.335614 1.968962,-1.697354 2.910341,-3.026089 1.499337,-2.116266 1.679776,-2.833793 1.454968,-5.785641 -0.141149,-1.853369 -0.829778,-4.556031 -1.530287,-6.005915 -1.712464,-3.54439 -1.21285,-3.725919 1.080538,-0.392599 3.167601,4.603953 2.439245,10.663067 -1.875419,15.601368 -2.664901,3.050087 -10.775818,7.797067 -10.775818,6.306636 z M 33.536917,18.151065 c -0.02492,-1.243186 4.245208,-7.98819 5.544644,-8.7582132 1.276109,-0.756199 1.254865,-0.6728575 -0.232568,0.9123612 -0.900331,0.95952 -2.461398,3.240456 -3.469038,5.068745 -1.007641,1.82829 -1.837007,3.077988 -1.843038,2.777107 z"
         id="path13107" />
      <path
         style="fill:#767676;fill-opacity:1;stroke-width:0.605218"
         d="m 56.260815,98.347674 c -0.184169,-0.297985 0.05823,-0.692641 0.538677,-0.877003 0.582687,-0.223597 0.761478,-0.04321 0.53699,0.541803 -0.390127,1.016651 -0.611813,1.085737 -1.075667,0.3352 z M 52.1364,97.883436 c 0.416088,-0.167894 1.096958,-0.167894 1.513045,0 0.416087,0.167893 0.07565,0.305266 -0.756522,0.305266 -0.832175,0 -1.17261,-0.137373 -0.756523,-0.305266 z M 39.673692,89.811211 c 0,-0.832175 0.137368,-1.17261 0.305264,-0.756523 0.167894,0.416088 0.167894,1.096958 0,1.513045 -0.167896,0.416087 -0.305264,0.07565 -0.305264,-0.756522 z m 22.297497,0.640937 c 0,-0.313224 0.269231,-0.735896 0.598288,-0.939261 0.343074,-0.212032 0.444533,0.03093 0.237857,0.569498 -0.402343,1.048491 -0.836145,1.240327 -0.836145,0.369763 z M 49.677703,80.342076 c -0.228848,-0.228851 -0.416087,-1.048515 -0.416087,-1.821487 0,-1.106484 0.303566,-1.380266 1.427298,-1.287268 1.2072,0.09991 1.365436,0.34944 1.026134,1.618134 -0.415753,1.554562 -1.315272,2.212694 -2.037345,1.490621 z m 0.905305,-2.161136 c -0.434281,-0.43428 -0.716174,-0.470012 -0.716174,-0.09078 0,0.807832 0.715736,1.523569 1.119653,1.119653 0.171982,-0.171979 -0.0096,-0.634971 -0.403479,-1.028871 z M 31.302716,36.822453 c -2.258268,-0.989183 -2.336022,-1.098926 -2.86813,-4.048115 -0.401695,-2.226386 -0.382699,-2.254816 1.123853,-1.682026 1.815749,0.690346 1.921512,0.388332 2.367873,-6.761632 0.159872,-2.56088 0.598198,-5.148186 0.974058,-5.749569 0.607552,-0.972096 0.642401,-0.943365 0.314068,0.258929 -0.697621,2.554557 -0.432151,6.005288 0.621199,8.07472 1.36627,2.684197 1.19859,2.576892 2.629946,1.682996 0.683015,-0.426551 1.343589,-0.649682 1.467942,-0.495848 4.494215,5.559694 7.091566,8.983681 7.091566,9.348535 0,0.55284 -5.866577,0.06901 -7.5132,-0.619632 -0.81882,-0.342442 -1.030127,-0.276892 -0.720804,0.223603 0.614025,0.993514 -3.04357,0.838929 -5.488371,-0.231961 z m 27.037167,0.708508 c 0,-0.127337 1.717076,-1.350241 3.815722,-2.717564 5.727472,-3.731593 8.277116,-7.693342 8.307038,-12.907827 0.02064,-3.594683 0.741476,-3.067327 1.712076,1.252516 0.546784,2.433547 0.458967,2.68797 -2.105262,6.099144 -3.038508,4.042113 -6.327159,7.111608 -8.50751,7.940576 -1.512644,0.575106 -3.222064,0.751857 -3.222064,0.333155 z M 33.525954,17.033514 c 0,-1.07431 2.478412,-5.900614 3.030093,-5.900614 0.358731,0 -0.08858,1.293653 -0.994026,2.874784 -1.875363,3.274845 -2.036067,3.513671 -2.036067,3.02583 z"
         id="path13105" />
      <path
         style="fill:#606060;fill-opacity:1;stroke-width:0.605218"
         d="m 52.892923,98.28426 c 2.069342,-0.66272 3.660493,-0.66272 2.118262,0 -0.66574,0.28608 -1.755132,0.512135 -2.420871,0.502348 -0.97306,-0.0143 -0.913716,-0.112812 0.302609,-0.502348 z m 7.262613,-4.200805 c 0,-0.313224 0.269229,-0.735896 0.598285,-0.939262 0.343074,-0.212032 0.444537,0.03093 0.237858,0.569498 -0.402344,1.048492 -0.836143,1.240327 -0.836143,0.369764 z M 40.201885,93.139908 c 0,-0.332869 0.264006,-1.013739 0.586682,-1.513044 0.322675,-0.499305 0.586682,-0.635479 0.586682,-0.302609 0,0.33287 -0.264007,1.01374 -0.586682,1.513045 -0.322676,0.499304 -0.586682,0.635478 -0.586682,0.302608 z m 21.505607,-1.940854 c -0.328443,-0.862557 -0.258925,-0.932072 0.338799,-0.338801 0.413618,0.410543 0.599571,0.898893 0.41323,1.085234 -0.18634,0.18634 -0.524751,-0.149555 -0.752029,-0.746433 z m 1.569691,-5.624368 c 0,-0.832174 0.137372,-1.172609 0.305265,-0.756522 0.167894,0.416087 0.167894,1.096957 0,1.513044 -0.167893,0.416088 -0.305265,0.07565 -0.305265,-0.756522 z m -24.53211,-3.957313 c -0.584023,-1.521935 -0.411737,-1.914637 0.301721,-0.687733 0.35326,0.607487 0.514797,1.232017 0.358973,1.387843 -0.155825,0.155825 -0.453137,-0.159227 -0.660694,-0.70011 z m 24.436552,-0.243491 c 0,-0.313225 0.269231,-0.735897 0.598288,-0.939262 0.343074,-0.212032 0.444532,0.03093 0.237856,0.569498 -0.402342,1.048491 -0.836144,1.240327 -0.836144,0.369764 z M 50.169443,78.917291 c -0.205726,-0.33287 -0.08562,-0.605218 0.26689,-0.605218 0.352515,0 0.640936,0.272348 0.640936,0.605218 0,0.332869 -0.1201,0.605217 -0.266891,0.605217 -0.14679,0 -0.43521,-0.272348 -0.640935,-0.605217 z m 8.823437,-0.95826 c 0.02904,-0.705048 0.172452,-0.848455 0.365653,-0.365654 0.17483,0.436888 0.153328,0.958895 -0.04778,1.160003 -0.201109,0.201107 -0.344152,-0.156352 -0.317873,-0.794349 z m 3.886136,-40.196549 c -1.331479,-0.238398 -1.993284,-0.472099 -1.470679,-0.519335 1.491105,-0.134773 5.649514,-3.981403 8.771802,-8.114131 l 2.850897,-3.773499 -0.303299,4.236525 c -0.16681,2.330088 -0.73494,5.257829 -1.262515,6.506091 -0.907717,2.147704 -1.09899,2.264955 -3.562275,2.183683 -1.431685,-0.04724 -3.692452,-0.280937 -5.023931,-0.519334 z m -38.243791,-8.17044 c 0.0034,-1.997219 0.116384,-2.741298 0.251082,-1.65351 0.134699,1.087788 0.131919,2.721876 -0.0062,3.631306 -0.138098,0.909431 -0.248306,0.01942 -0.244909,-1.977796 z m 4.805509,1.456353 c -1.136923,-0.425401 -1.36174,-0.962378 -1.36174,-3.252504 0,-1.974194 0.242404,-2.742983 0.864881,-2.742983 0.854165,0 2.766425,-5.309564 2.766425,-7.681231 0,-0.627082 0.818555,-2.08308 1.819011,-3.23555 l 1.81901,-2.095401 -1.289241,3.328698 c -1.828122,4.720038 -2.316563,7.053547 -2.343609,11.196529 -0.02855,4.373903 -0.433293,5.171456 -2.274737,4.482442 z M 70.367036,10.678986 c -0.752812,-0.9599091 -0.731405,-0.9813156 0.228507,-0.228503 0.582522,0.456845 1.059131,0.933454 1.059131,1.059131 0,0.498115 -0.496999,0.177513 -1.287638,-0.830628 z"
         id="path13103" />
      <path
         style="fill:#494949;fill-opacity:1;stroke-width:0.605218"
         d="m 50.953868,97.939443 c 0.746001,-0.522521 1.827905,-0.826461 2.404232,-0.675423 0.774856,0.203062 0.693079,0.292901 -0.313873,0.344817 -0.748957,0.03861 -1.36174,0.342553 -1.36174,0.675423 0,0.332869 -0.469121,0.605217 -1.042491,0.605217 -0.853209,0 -0.79622,-0.172493 0.313872,-0.950034 z m -7.982699,-2.933309 c 0.202275,-0.527121 0.633678,-0.958399 0.958673,-0.958399 0.795494,0 0.297365,1.375527 -0.607337,1.677095 -0.442263,0.147419 -0.577521,-0.129269 -0.351336,-0.718696 z M 59.286904,94.11115 c -0.184169,-0.297985 0.05823,-0.692642 0.538677,-0.877003 0.582687,-0.223598 0.761478,-0.04321 0.53699,0.541803 -0.390127,1.016651 -0.611813,1.085736 -1.075667,0.3352 z M 40.310516,90.739336 c 0.236377,-0.262005 0.0384,-1.233216 -0.439952,-2.158243 -1.017121,-1.966891 -1.261142,-4.64314 -0.572894,-6.28308 0.295143,-0.703263 0.25891,-1.01797 -0.09222,-0.800957 -0.318108,0.196599 -0.578378,-0.152158 -0.578378,-0.775018 0,-0.83192 0.198986,-0.967332 0.749772,-0.510217 0.453428,0.376306 0.680438,1.738519 0.574349,3.446473 -0.09648,1.553322 0.172246,3.703401 0.597177,4.777959 0.593205,1.500086 0.605391,2.049606 0.05248,2.366595 -0.396064,0.227078 -0.526718,0.198493 -0.290341,-0.06351 z m 22.361449,-4.559432 c 0,-0.832174 0.137372,-1.172609 0.305266,-0.756522 0.167893,0.416087 0.167893,1.096957 0,1.513044 -0.167894,0.416087 -0.305266,0.07565 -0.305266,-0.756522 z m 0.307922,-2.219134 c -0.54495,-0.544944 -0.494801,-2.752331 0.08319,-3.661955 0.271857,-0.42784 0.50828,0.269982 0.563887,1.664349 0.09897,2.481956 0.03492,2.679626 -0.647075,1.997606 z M 41.696394,78.312073 c 0.205725,-0.33287 0.494145,-0.605218 0.640936,-0.605218 0.14679,0 0.26689,0.272348 0.26689,0.605218 0,0.33287 -0.288421,0.605218 -0.640936,0.605218 -0.352514,0 -0.472615,-0.272348 -0.26689,-0.605218 z m 17.635062,-0.907827 c -0.210076,-0.54745 -0.0031,-0.907826 0.521471,-0.907826 0.524539,0 0.731547,0.360376 0.521471,0.907826 -0.191601,0.499305 -0.426263,0.907827 -0.521471,0.907827 -0.09521,0 -0.32987,-0.408522 -0.521471,-0.907827 z m 8.739693,-10.339135 c 0.02905,-0.705048 0.172451,-0.848455 0.365648,-0.365654 0.17483,0.436888 0.153332,0.958889 -0.04775,1.160003 -0.201114,0.201107 -0.344151,-0.156352 -0.317873,-0.794349 z M 28.913843,22.480733 c 1.052264,-3.483623 2.739833,-6.5798 2.772226,-5.086194 0.04806,2.215856 -1.880144,7.658369 -2.713246,7.658369 -0.701847,0 -0.711307,-0.412584 -0.05898,-2.572175 z m 47.630355,1.613914 c 0.02905,-0.705044 0.172451,-0.848455 0.365648,-0.365652 0.174829,0.436891 0.153332,0.958891 -0.04775,1.16 -0.201113,0.201109 -0.344151,-0.156348 -0.317872,-0.794348 z M 35.341607,7.2794091 c 0,-0.6640902 5.244628,-3.5319822 8.40773,-4.5975542 4.51033,-1.5194201 9.012734,-1.5197122 13.38011,-8.682e-4 3.4513,1.2002601 2.517607,1.2178629 -3.779325,0.071251 -4.143545,-0.7545002 -7.82904,0.028866 -13.586741,2.8879145 -3.647806,1.8113578 -4.421774,2.0982859 -4.421774,1.6392569 z"
         id="path13101" />
      <path
         style="fill:#333333;fill-opacity:1;stroke-width:0.605218"
         d="m 45.435213,97.909515 c -1.91044,-1.250277 -2.185299,-1.668265 -1.578105,-2.399888 0.834119,-1.005049 0.875122,-0.951615 -1.523933,-1.98615 -1.418494,-0.611687 -1.604526,-0.88484 -0.907826,-1.33298 0.76102,-0.489506 0.75687,-0.642009 -0.03156,-1.159585 -0.499305,-0.327774 -0.693984,-0.600122 -0.43262,-0.605218 0.261364,-0.0048 0.167477,-0.584265 -0.208637,-1.287038 -0.376115,-0.702779 -0.69628,-2.877272 -0.711479,-4.83221 -0.02619,-3.36938 -0.147295,-3.651968 -2.325986,-5.427805 C 35.085931,76.735656 34.324762,74.186019 32.652059,61.91943 31.422061,52.899382 30.359057,48.904251 27.597008,42.920833 l -2.241494,-4.855742 v -8.473049 c 0,-8.05649 0.0811,-8.626849 1.649706,-11.601427 1.843528,-3.495926 7.43879,-10.4890221 8.392396,-10.4890221 0.339405,0 2.303999,-0.8376483 4.365765,-1.8614406 5.590828,-2.7761861 9.449016,-3.6305442 13.272838,-2.9391405 1.751971,0.3167822 4.274793,0.7459113 5.606272,0.95362 3.067521,0.4785288 9.79985,4.8803359 12.966628,8.4779872 3.893463,4.423203 5.069746,8.284183 5.134789,16.854205 0.05423,7.144051 0.0187,7.341655 -2.177277,12.104356 -2.806274,6.086406 -4.399649,12.005206 -5.621033,20.880013 -1.427576,10.3731 -2.061802,12.703339 -4.39704,16.155429 -1.580533,2.336443 -2.044983,3.568703 -1.809456,4.800775 0.174266,0.911646 -0.03613,3.01836 -0.46758,4.681596 -0.431437,1.663235 -0.6488,3.377514 -0.483029,3.809513 0.169345,0.441306 -0.38546,1.098397 -1.266265,1.499717 -1.11378,0.507469 -1.394427,0.923018 -0.969317,1.435244 1.088843,1.311979 -1.513943,2.923408 -4.700841,2.910365 -1.576836,-0.0064 -3.41167,0.377238 -4.07741,0.852643 -1.10092,0.786166 -0.922924,0.846548 1.967335,0.66738 1.747773,-0.10834 3.1776,0.0073 3.177393,0.256927 -2.07e-4,0.249652 -1.838726,0.437887 -4.085597,0.418308 -3.300146,-0.02875 -4.529787,-0.326557 -6.398578,-1.549575 z m 11.905188,-6.320683 c 1.855463,-1.855464 2.827457,-3.293426 2.60973,-3.860811 -0.190822,-0.497277 -0.122129,-1.043081 0.15265,-1.212905 0.522194,-0.322732 0.423482,-6.504021 -0.118021,-7.390375 -0.171386,-0.28053 0.194944,-1.463277 0.814068,-2.628321 2.477374,-4.661836 2.98451,-6.119382 3.613368,-10.385168 1.868289,-12.673297 2.760779,-16.697387 5.549133,-25.020072 2.885739,-8.613367 3.026288,-9.327822 2.744487,-13.951408 C 72.194855,18.756409 67.658493,11.913433 60.17571,8.2384722 57.177659,6.766062 56.161125,6.5937662 50.472051,6.5937662 c -5.715621,0 -6.697281,0.1682613 -9.759976,1.6729085 -4.201554,2.0641483 -8.562017,6.6277383 -10.708455,11.2072973 -1.402532,2.992387 -1.622017,4.238687 -1.622017,9.210243 0,5.004488 0.224218,6.259361 1.73023,9.683485 2.581909,5.870321 4.440125,13.103522 5.52164,21.493272 1.190208,9.232926 2.37062,13.350537 4.310769,15.037176 1.367182,1.188539 1.51055,1.812519 1.73403,7.547048 l 0.243622,6.251391 2.913339,2.90763 c 3.217092,3.210783 4.328173,3.695405 7.44135,3.24568 1.481657,-0.214035 2.984799,-1.182051 5.063818,-3.261065 z"
         id="path13099" />
    </g>
  </g>
</svg>
