<?xml version="1.0" encoding="UTF-8" standalone="no"?>
<!-- Created with Inkscape (http://www.inkscape.org/) -->

<svg
   version="1.1"
   id="svg2902"
   width="162"
   height="162"
   viewBox="0 0 162 162"
   sodipodi:docname="add_list_type_device_7151.svg"
   inkscape:version="1.1.1 (3bf5ae0d25, 2021-09-20)"
   xmlns:inkscape="http://www.inkscape.org/namespaces/inkscape"
   xmlns:sodipodi="http://sodipodi.sourceforge.net/DTD/sodipodi-0.dtd"
   xmlns="http://www.w3.org/2000/svg"
   xmlns:svg="http://www.w3.org/2000/svg">
  <defs
     id="defs2906" />
  <sodipodi:namedview
     id="namedview2904"
     pagecolor="#505050"
     bordercolor="#ffffff"
     borderopacity="1"
     inkscape:pageshadow="0"
     inkscape:pageopacity="0"
     inkscape:pagecheckerboard="1"
     showgrid="false"
     inkscape:zoom="4.0864198"
     inkscape:cx="81.122356"
     inkscape:cy="81"
     inkscape:window-width="1440"
     inkscape:window-height="890"
     inkscape:window-x="-6"
     inkscape:window-y="-6"
     inkscape:window-maximized="1"
     inkscape:current-layer="g2908" />
  <g
     inkscape:groupmode="layer"
     inkscape:label="Image"
     id="g2908">
    <g
       id="g2912"
       transform="translate(7.586103,-3.1812688)">
      <path
         style="fill:#d0d0d0;fill-opacity:1"
         d="m 30.269032,116.30701 c 0.972967,-0.25354 2.322967,-0.23687 3,0.037 0.677032,0.27393 -0.119032,0.48137 -1.769032,0.46099 -1.65,-0.0204 -2.203936,-0.2445 -1.230968,-0.49804 z M 128.29966,111 c 0,-3.025 0.18747,-4.2625 0.41659,-2.75 0.22913,1.5125 0.22913,3.9875 0,5.5 -0.22912,1.5125 -0.41659,0.275 -0.41659,-2.75 z M 37.397394,72 c 0,-7.975 0.155301,-11.2375 0.345113,-7.25 0.189811,3.9875 0.189811,10.5125 0,14.5 -0.189812,3.9875 -0.345113,0.725 -0.345113,-7.25 z m -0.04798,-42 c 0,-4.675 0.172256,-6.5875 0.382791,-4.25 0.210535,2.3375 0.210535,6.1625 0,8.5 C 37.52167,36.5875 37.349414,34.675 37.349414,30 Z M 120.26903,16.307009 c 0.97297,-0.253543 2.32297,-0.236869 3,0.03705 0.67703,0.273923 -0.11903,0.481368 -1.76903,0.460988 -1.65,-0.02038 -2.20394,-0.244498 -1.23097,-0.498042 z m -12,-1 c 0.97297,-0.253543 2.32297,-0.236869 3,0.03705 0.67703,0.273923 -0.11903,0.481368 -1.76903,0.460988 -1.65,-0.02038 -2.20394,-0.244498 -1.23097,-0.498042 z m -14.507371,-1.01427 c 1.243913,-0.239193 3.043913,-0.230112 4,0.02018 C 98.717747,14.563212 97.7,14.758916 95.5,14.747817 c -2.2,-0.0111 -2.982253,-0.215885 -1.738341,-0.455078 z m -14,-1 c 1.243913,-0.239193 3.043913,-0.230112 4,0.02018 C 84.717747,13.563212 83.7,13.758916 81.5,13.747817 c -2.2,-0.0111 -2.982253,-0.215885 -1.738341,-0.455078 z"
         id="path2928" />
      <path
         style="fill:#b9b9b9;fill-opacity:1"
         d="m 26.8125,155.31689 c 0.721875,-0.28887 1.584375,-0.25335 1.916667,0.0789 0.332291,0.33229 -0.258334,0.56864 -1.3125,0.52522 -1.164943,-0.048 -1.4019,-0.28494 -0.604167,-0.60416 z m 8,0 c 0.721875,-0.28887 1.584375,-0.25335 1.916667,0.0789 0.332291,0.33229 -0.258334,0.56864 -1.3125,0.52522 -1.164943,-0.048 -1.4019,-0.28494 -0.604167,-0.60416 z m 61,-4 c 0.721875,-0.28887 1.584375,-0.25335 1.916667,0.0789 0.332291,0.33229 -0.258334,0.56864 -1.3125,0.52522 -1.164943,-0.048 -1.4019,-0.28494 -0.604167,-0.60416 z M 13.872445,148.25 c -1.243871,-1.58606 -1.208501,-1.62143 0.377555,-0.37756 0.9625,0.75485 1.75,1.54235 1.75,1.75 0,0.82304 -0.821186,0.29331 -2.127555,-1.37244 z M 47,149.62244 c 0,-0.20765 0.7875,-0.99515 1.75,-1.75 1.586056,-1.24387 1.621426,-1.2085 0.377555,0.37756 C 47.821186,149.91575 47,150.44548 47,149.62244 Z M 7.1578947,132 c 0,-1.375 0.2269737,-1.9375 0.504386,-1.25 0.2774123,0.6875 0.2774123,1.8125 0,2.5 -0.2774123,0.6875 -0.504386,0.125 -0.504386,-1.25 z m 119.9999953,0 c 0,-1.375 0.22698,-1.9375 0.50439,-1.25 0.27741,0.6875 0.27741,1.8125 0,2.5 -0.27741,0.6875 -0.50439,0.125 -0.50439,-1.25 z M 30.8125,121.31689 c 0.721875,-0.28887 1.584375,-0.25335 1.916667,0.0789 0.332291,0.3323 -0.258334,0.56864 -1.3125,0.52522 -1.164943,-0.048 -1.4019,-0.28494 -0.604167,-0.60416 z M 13,116.62244 c 0,-0.20765 0.7875,-0.99515 1.75,-1.75 1.586056,-1.24387 1.621426,-1.2085 0.377555,0.37756 C 13.821186,116.91575 13,117.44548 13,116.62244 Z m 13.8125,-8.30555 c 0.721875,-0.28887 1.584375,-0.25335 1.916667,0.0789 0.332291,0.3323 -0.258334,0.56864 -1.3125,0.52522 -1.164943,-0.048 -1.4019,-0.28494 -0.604167,-0.60416 z m 8,0 c 0.721875,-0.28887 1.584375,-0.25335 1.916667,0.0789 0.332291,0.3323 -0.258334,0.56864 -1.3125,0.52522 -1.164943,-0.048 -1.4019,-0.28494 -0.604167,-0.60416 z M 128.34281,98.5 c 0.004,-4.4 0.17944,-6.075605 0.39069,-3.723567 0.21124,2.352038 0.20827,5.952037 -0.007,7.999997 -0.21487,2.04796 -0.38771,0.12357 -0.38408,-4.27643 z M 37.369965,48 c 0,-5.775 0.165274,-8.1375 0.367277,-5.25 0.202002,2.8875 0.202002,7.6125 0,10.5 -0.202003,2.8875 -0.367277,0.525 -0.367277,-5.25 z M 114.25,16.310674 c 0.9625,-0.251527 2.5375,-0.251527 3.5,0 0.9625,0.251528 0.175,0.457323 -1.75,0.457323 -1.925,0 -2.7125,-0.205795 -1.75,-0.457323 z m -13.5,-1.016407 c 1.2375,-0.238353 3.2625,-0.238353 4.5,0 1.2375,0.238353 0.225,0.433369 -2.25,0.433369 -2.475,0 -3.4875,-0.195016 -2.25,-0.433369 z m -15,-1 c 1.2375,-0.238353 3.2625,-0.238353 4.5,0 1.2375,0.238353 0.225,0.433369 -2.25,0.433369 -2.475,0 -3.4875,-0.195016 -2.25,-0.433369 z M 59.8125,13.316886 c 0.721875,-0.288871 1.584375,-0.253344 1.916667,0.07895 0.332291,0.332292 -0.258334,0.568641 -1.3125,0.52522 -1.164943,-0.04798 -1.4019,-0.284941 -0.604167,-0.604167 z m 7.915196,-0.03862 c 1.775232,-0.220912 4.925232,-0.224542 7,-0.0081 C 76.802463,13.486677 75.35,13.667423 71.5,13.67186 c -3.85,0.0044 -5.547537,-0.17268 -3.772304,-0.393592 z"
         id="path2926" />
      <path
         style="fill:#a3a3a3;fill-opacity:1"
         d="M 26.5,155.14683 C 20.388396,153.82911 14.663805,149.64053 10.516183,143.45174 8.9319,141.08779 8.5379736,138.80737 8.5379736,132 c 0,-6.80737 0.3939264,-9.08779 1.9782094,-11.45174 5.486961,-8.18725 11.757107,-11.78832 20.700539,-11.88874 5.160634,-0.0579 6.813395,-0.43266 7.133999,-1.61747 0.264427,-0.97719 0.459768,-0.76231 0.533278,0.58663 0.07319,1.34315 1.180974,2.56981 3.00192,3.32407 3.5712,1.47924 8.712702,6.41825 10.916396,10.48646 2.314641,4.27304 2.269016,16.9304 -0.07667,21.26984 -5.003572,9.25644 -16.247744,14.5891 -26.225645,12.43778 z m 0.969431,-13.42388 c -7.081659,-3.96309 -8.436342,-11.84695 -2.974218,-17.30907 3.406108,-3.40611 10.603466,-3.40611 14.009574,0 6.389546,6.38954 3.61961,15.11828 -7.100457,22.37526 -1.66762,1.1289 -1.41004,1.22537 2.072221,0.77611 C 41.102538,146.58138 47,139.79351 47,132 c 0,-8.8129 -6.687096,-15.5 -15.5,-15.5 -6.018428,0 -9.486827,1.96058 -13.25,7.48983 -5.163411,7.58662 -1.114106,19.51125 7.750513,22.82415 2.221911,0.83038 2.536386,0.65223 2.831755,-1.60414 0.210387,-1.60719 -0.289521,-2.88623 -1.362837,-3.48689 z M 127.15789,128 c 0,-1.375 0.22698,-1.9375 0.50439,-1.25 0.27741,0.6875 0.27741,1.8125 0,2.5 -0.27741,0.6875 -0.50439,0.125 -0.50439,-1.25 z m 1.18492,-44.5 c 0.004,-4.4 0.17944,-6.075605 0.39069,-3.723567 0.21124,2.352038 0.20827,5.952038 -0.007,8 C 128.51202,89.824395 128.33918,87.9 128.34281,83.5 Z m -0.14786,-62 c 0.0204,-1.65 0.2445,-2.203936 0.49804,-1.230968 0.25354,0.972967 0.23687,2.322967 -0.0371,3 C 128.38201,23.946064 128.17457,23.15 128.19495,21.5 Z M 107,17 l -6.5,-0.654802 5.5,-0.0419 c 3.025,-0.02304 8.875,0.276527 13,0.665709 L 126.5,17.67661 120,17.6657 C 116.425,17.65971 110.575,17.360141 107,17 Z M 90.767909,15.275269 c 1.79735,-0.222562 4.49735,-0.217969 6,0.01021 1.50265,0.228174 0.03209,0.41027 -3.267909,0.404657 -3.3,-0.0056 -4.529441,-0.192301 -2.732091,-0.414862 z m -15,-1 c 1.79735,-0.222562 4.49735,-0.217969 6,0.01021 1.50265,0.228174 0.03209,0.41027 -3.267909,0.404657 -3.3,-0.0056 -4.529441,-0.192301 -2.732091,-0.414862 z M 62.8125,13.316886 c 0.721875,-0.288871 1.584375,-0.253344 1.916667,0.07895 0.332291,0.332292 -0.258334,0.568641 -1.3125,0.52522 -1.164943,-0.04798 -1.4019,-0.284941 -0.604167,-0.604167 z"
         id="path2924" />
      <path
         style="fill:#8c8c8c;fill-opacity:1"
         d="m 127.19495,123.5 c 0.0204,-1.65 0.2445,-2.20394 0.49804,-1.23097 0.25354,0.97297 0.23687,2.32297 -0.037,3 -0.27393,0.67703 -0.48137,-0.11903 -0.46099,-1.76903 z m -88.885081,-23 c 0.0056,-3.3 0.192301,-4.529441 0.414862,-2.732091 0.222562,1.79735 0.217969,4.497351 -0.0102,6.000001 -0.228174,1.50265 -0.41027,0.0321 -0.404657,-3.26791 z M 128.43674,50 c 0,-14.575 0.1398,-20.5375 0.31066,-13.25 0.17086,7.2875 0.17086,19.2125 0,26.5 -0.17086,7.2875 -0.31066,1.325 -0.31066,-13.25 z M 38.733333,16.875912 c 0.678334,-0.683418 1.485241,-0.990671 1.793128,-0.682784 0.307888,0.307887 -0.247112,0.867048 -1.233333,1.242579 -1.425198,0.542685 -1.540062,0.427821 -0.559795,-0.559795 z m 69.028327,0.416827 c 1.24391,-0.239193 3.04391,-0.230112 4,0.02018 0.95609,0.250292 -0.0617,0.445996 -2.26166,0.434897 -2.2,-0.0111 -2.98225,-0.215885 -1.73834,-0.455078 z m -13.49791,-1.01032 c 1.520062,-0.229855 3.770062,-0.223712 5,0.01365 1.22994,0.237362 -0.01375,0.425424 -2.76375,0.417917 -2.75,-0.0075 -3.756313,-0.201713 -2.23625,-0.431567 z M 46.8125,15.316886 c 0.721875,-0.288871 1.584375,-0.253344 1.916667,0.07895 0.332291,0.332292 -0.258334,0.568641 -1.3125,0.52522 -1.164943,-0.04798 -1.4019,-0.284941 -0.604167,-0.604167 z M 80.25,15.283746 c 1.5125,-0.229125 3.9875,-0.229125 5.5,0 1.5125,0.229124 0.275,0.41659 -2.75,0.41659 -3.025,0 -4.2625,-0.187466 -2.75,-0.41659 z m -25.4375,-0.96686 c 0.721875,-0.288871 1.584375,-0.253344 1.916667,0.07895 0.332291,0.332292 -0.258334,0.568641 -1.3125,0.52522 -1.164943,-0.04798 -1.4019,-0.284941 -0.604167,-0.604167 z m 13.4375,-0.0062 c 0.9625,-0.251527 2.5375,-0.251527 3.5,0 0.9625,0.251528 0.175,0.457323 -1.75,0.457323 -1.925,0 -2.7125,-0.205795 -1.75,-0.457323 z"
         id="path2922" />
      <path
         style="fill:#767676;fill-opacity:1"
         d="m 102.26903,150.30701 c 0.97297,-0.25354 2.32297,-0.23687 3,0.0371 0.67703,0.27393 -0.11903,0.48137 -1.76903,0.46099 -1.65,-0.0204 -2.20394,-0.2445 -1.23097,-0.49804 z M 127.27236,117 c 0,-2.475 0.19502,-3.4875 0.43337,-2.25 0.23836,1.2375 0.23836,3.2625 0,4.5 -0.23835,1.2375 -0.43337,0.225 -0.43337,-2.25 z M 38.320074,89 c 0,-3.575 0.181495,-5.0375 0.403322,-3.25 0.221826,1.7875 0.221826,4.7125 0,6.5 -0.221827,1.7875 -0.403322,0.325 -0.403322,-3.25 z M 113.41712,45.865891 C 113.12278,45.389651 113.35852,45 113.94098,45 c 0.58246,0 1.92241,-0.863389 2.97766,-1.918641 1.88383,-1.883832 1.9498,-1.884211 3.63612,-0.02085 1.38743,1.53309 1.45111,1.982298 0.33136,2.337538 -3.27011,1.03744 -6.9736,1.26942 -7.469,0.467844 z M 114,40 c 0,-0.55 0.47656,-1 1.05902,-1 0.58246,0 0.7809,0.45 0.44098,1 -0.33992,0.55 -0.81648,1 -1.05902,1 C 114.19844,41 114,40.55 114,40 Z m 3.54327,-0.929984 c -0.28643,-0.46345 0.37416,-1.076667 1.46798,-1.362706 C 120.10506,37.421271 121,37.546965 121,37.986631 c 0,1.174928 -2.84841,2.067659 -3.45673,1.083385 z M 38.232003,21 c 0,-1.925 0.205795,-2.7125 0.457323,-1.75 0.251527,0.9625 0.251527,2.5375 0,3.5 -0.251528,0.9625 -0.457323,0.175 -0.457323,-1.75 z M 63.5,19.385656 C 39.910275,17.402847 38.427422,16.956716 50,15.324041 c 5.225,-0.73715 12.425,-1.100324 16,-0.807052 23.131282,1.89755 46.57856,3.486344 53,3.591293 l 7.5,0.122577 -8.5,1.297119 c -10.79574,1.647455 -33.925395,1.587054 -54.5,-0.142322 z"
         id="path2920" />
      <path
         style="fill:#606060;fill-opacity:1"
         d="m 126.15789,133 c 0,-1.375 0.22698,-1.9375 0.50439,-1.25 0.27741,0.6875 0.27741,1.8125 0,2.5 -0.27741,0.6875 -0.50439,0.125 -0.50439,-1.25 z M 63.641848,128.25 C 62.628191,122.11739 62.891874,105 64,105 c 0.617284,0 1,5.16667 1,13.5 0,7.425 -0.166121,13.5 -0.369158,13.5 -0.203036,0 -0.648084,-1.6875 -0.988994,-3.75 z M 127.36523,103.5 c 0.003,-5.5 0.17053,-7.622415 0.37317,-4.716478 0.20265,2.905938 0.20052,7.405938 -0.005,9.999998 -0.20525,2.59406 -0.37104,0.21648 -0.36844,-5.28352 z m -88.922168,-50 c -4.47e-4,-16.5 0.136551,-23.390314 0.304441,-15.311809 0.167891,8.078506 0.168257,21.578506 8.14e-4,30 C 38.580875,76.609686 38.44351,70 38.443062,53.5 Z m 74.455618,-7.25 c -0.13452,-0.995839 0.24424,-7.713086 0.44451,-7.883184 0.0862,-0.07325 1.73181,-0.409608 3.65681,-0.747458 2.22695,-0.390845 2.79669,-0.314214 1.56638,0.210682 -1.22591,0.523015 -1.52992,1.07446 -0.83062,1.506649 0.60665,0.374931 1.78214,0.0026 2.61219,-0.827498 C 121.17801,37.679136 122.02981,37 122.24084,37 c 0.80612,0 0.21445,7.875181 -0.65117,8.667138 -0.51802,0.473944 -0.63592,0.351775 -0.27358,-0.283491 0.35021,-0.613994 -0.25264,-1.921239 -1.33967,-2.904988 C 118.80814,41.421379 118,41.171054 118,41.866451 c 0,0.647035 -1.11089,1.682582 -2.46864,2.301216 -1.35776,0.618634 -2.2312,1.508986 -1.94099,1.978561 C 113.88059,46.615803 113.86648,47 113.55902,47 c -0.30746,0 -0.60461,-0.3375 -0.66034,-0.75 z M 115.5,40 c 0.33992,-0.55 0.14148,-1 -0.44098,-1 C 114.47656,39 114,39.45 114,40 c 0,0.55 0.19844,1 0.44098,1 0.24254,0 0.7191,-0.45 1.05902,-1 z m 0.25,6.337719 c 0.6875,-0.277412 1.8125,-0.277412 2.5,0 0.6875,0.277413 0.125,0.504386 -1.25,0.504386 -1.375,0 -1.9375,-0.226973 -1.25,-0.504386 z M 59.629163,35.20899 c -0.268879,-0.435056 1.167063,-0.627442 3.190983,-0.427525 5.534173,0.54665 6.193071,1.050973 1.488871,1.139588 -2.305041,0.04342 -4.410975,-0.277008 -4.679854,-0.712063 z M 90.75,21.259603 c 3.4375,-0.195271 9.0625,-0.195271 12.5,0 3.4375,0.195271 0.625,0.355038 -6.25,0.355038 -6.875,0 -9.6875,-0.159767 -6.25,-0.355038 z M 73.761659,20.292739 c 1.243913,-0.239193 3.043913,-0.230112 4,0.02018 C 78.717747,20.563212 77.7,20.758916 75.5,20.747817 73.3,20.736717 72.517747,20.531932 73.761659,20.292739 Z M 112.25,20.310674 c 0.9625,-0.251527 2.5375,-0.251527 3.5,0 0.9625,0.251528 0.175,0.457323 -1.75,0.457323 -1.925,0 -2.7125,-0.205795 -1.75,-0.457323 z m -51.5,-1.016407 c 1.2375,-0.238353 3.2625,-0.238353 4.5,0 1.2375,0.238353 0.225,0.433369 -2.25,0.433369 -2.475,0 -3.4875,-0.195016 -2.25,-0.433369 z m 58.51903,0.01274 c 0.97297,-0.253543 2.32297,-0.236869 3,0.03705 0.67703,0.273923 -0.11903,0.481368 -1.76903,0.460988 -1.65,-0.02038 -2.20394,-0.244498 -1.23097,-0.498042 z M 49.25,18.310674 c 0.9625,-0.251527 2.5375,-0.251527 3.5,0 0.9625,0.251528 0.175,0.457323 -1.75,0.457323 -1.925,0 -2.7125,-0.205795 -1.75,-0.457323 z m -8.5,-0.972955 c 0.6875,-0.277412 1.8125,-0.277412 2.5,0 0.6875,0.277413 0.125,0.504386 -1.25,0.504386 -1.375,0 -1.9375,-0.226973 -1.25,-0.504386 z"
         id="path2918" />
      <path
         style="fill:#494949;fill-opacity:1"
         d="m 95.269032,150.30701 c 0.972967,-0.25354 2.322967,-0.23687 3,0.0371 0.677032,0.27393 -0.119032,0.48137 -1.769032,0.46099 -1.65,-0.0204 -2.203936,-0.2445 -1.230968,-0.49804 z M 103.5,149.22863 c -1.97949,-0.29839 -1.99675,-0.9466 -1.68311,-63.219898 l 0.31689,-62.918413 -7.316888,-0.346462 C 87.846334,22.413793 87.949669,22.38771 97,22.192802 102.225,22.080276 110.96079,21.315863 116.41287,20.494105 121.86495,19.672347 126.70245,19 127.16287,19 c 1.08377,0 0.92499,61.501854 -0.23881,92.5 -0.49558,13.2 -0.92879,24.85924 -0.9627,25.90943 -0.0879,2.72257 -1.89108,5.75204 -3.01153,5.05956 C 122.42742,142.14613 122,142.38508 122,143 c 0,0.61492 -0.45,0.83992 -1,0.5 -0.55,-0.33992 -1,-0.0933 -1,0.54797 0,0.6413 -0.64593,0.91814 -1.43539,0.6152 -0.78947,-0.30295 -1.58363,-0.1061 -1.76481,0.43744 -0.18118,0.54354 -1.33526,1.06402 -2.56461,1.15663 -1.22935,0.0926 -2.23519,0.53118 -2.23519,0.97462 0,0.44343 -1.08145,0.53482 -2.40323,0.20307 -1.49848,-0.37609 -2.72202,-0.0952 -3.25,0.74601 -0.46572,0.74205 -1.74677,1.21351 -2.84677,1.04769 z m 17,-103.149456 c 1.53669,-0.599507 2.01443,-1.741492 2.06227,-4.929715 0.0674,-4.487482 -0.37802,-4.736309 -6.34234,-3.543444 -2.6694,0.533879 -3.07487,1.075713 -3.40639,4.551953 -0.20696,2.170266 -0.17468,4.147559 0.0717,4.393985 0.69004,0.690042 5.38058,0.398817 7.61471,-0.472779 z M 62.508831,127.75 c -0.349295,-2.8875 -0.494175,-9.3 -0.321956,-14.25 0.250297,-7.19417 0.614097,-9 1.813125,-9 1.250177,0 1.54621,2.37331 1.777457,14.25 0.232352,11.93345 0.04084,14.25 -1.178044,14.25 -1.00853,0 -1.650528,-1.61223 -2.090582,-5.25 z M 65,118.5 c 0,-8.33333 -0.382716,-13.5 -1,-13.5 -0.599043,0 -0.995587,3.90933 -0.988994,9.75 0.01029,9.11368 0.774317,17.25 1.619836,17.25 C 64.833879,132 65,125.925 65,118.5 Z M 64.5,35.924945 c 3.756997,-0.743176 3.6789,-0.77364 -1.285541,-0.501472 -3.531242,0.193595 -5.161424,-0.07752 -4.91159,-0.816851 0.353565,-1.046295 9.202261,-1.000233 10.947131,0.05699 2.113923,1.280829 0.21882,2.320523 -4,2.194487 l -4.75,-0.141906 4,-0.791244 z M 76.767909,21.275269 c 1.79735,-0.222562 4.49735,-0.217969 6,0.0102 1.50265,0.228174 0.03209,0.41027 -3.267909,0.404657 -3.3,-0.0056 -4.529441,-0.192301 -2.732091,-0.414862 z M 64.25,20.283746 c 1.5125,-0.229125 3.9875,-0.229125 5.5,0 1.5125,0.229124 0.275,0.41659 -2.75,0.41659 -3.025,0 -4.2625,-0.187466 -2.75,-0.41659 z M 52.26375,19.282419 c 1.520062,-0.229855 3.770062,-0.223712 5,0.01365 1.229937,0.237362 -0.01375,0.425424 -2.76375,0.417917 -2.75,-0.0075 -3.756313,-0.201713 -2.23625,-0.431567 z m -9.502091,-0.98968 c 1.243913,-0.239193 3.043913,-0.230112 4,0.02018 C 47.717747,18.563212 46.7,18.758916 44.5,18.747817 c -2.2,-0.0111 -2.982253,-0.215885 -1.738341,-0.455078 z"
         id="path2916" />
      <path
         style="fill:#333333;fill-opacity:1"
         d="m 79,147.96128 c -5.225,-1.02858 -13.177421,-2.62862 -17.672047,-3.55564 l -8.172047,-1.6855 1.008198,-2.61007 c 0.554508,-1.43554 1.014429,-5.22825 1.022046,-8.42824 0.01796,-7.54498 -3.219443,-14.00353 -9.240752,-18.4351 -2.444969,-1.79945 -5.012515,-3.73816 -5.705659,-4.30824 -0.98663,-0.81146 -1.203752,-10.742078 -1,-45.737501 C 39.496121,19.166268 39.52981,18.503431 41.5,18.730166 c 5.978454,0.688018 38.64423,3.284023 48.816538,3.879534 l 11.816542,0.691768 -0.31654,62.812838 c -0.31315,62.140064 -0.29512,62.817124 1.68346,63.213084 1.1,0.22014 -1.825,0.4236 -6.5,0.45214 -4.675,0.0285 -12.775,-0.78967 -18,-1.81825 z M 65.777457,118.75 C 65.54621,106.87331 65.250177,104.5 64,104.5 c -1.199028,0 -1.562828,1.80583 -1.813125,9 -0.415886,11.95359 0.517754,19.5 2.412538,19.5 1.218887,0 1.410396,-2.31655 1.178044,-14.25 z M 70,36.059017 c 0,-1.445627 -1.089432,-1.820194 -6.41159,-2.204426 -3.134779,-0.226315 -5.054033,0.06723 -5.30534,0.811427 -0.216562,0.641311 0.418654,1.37661 1.411591,1.633999 C 63.048347,37.16936 70,37.006789 70,36.059017 Z m 36.76845,111.772533 c 0.5811,-0.5811 1.64682,-0.85979 2.36826,-0.61931 0.74895,0.24965 0.29565,0.70294 -1.05655,1.05655 -1.66335,0.43497 -2.05378,0.30483 -1.31171,-0.43724 z"
         id="path2914" />
    </g>
  </g>
</svg>
