<?xml version="1.0" encoding="UTF-8" standalone="no"?>
<!-- Created with Inkscape (http://www.inkscape.org/) -->

<svg
   version="1.1"
   id="svg1805"
   width="216"
   height="216"
   viewBox="0 0 216 216"
   sodipodi:docname="add_list_type_device_7123.svg"
   inkscape:version="1.1.1 (3bf5ae0d25, 2021-09-20)"
   xmlns:inkscape="http://www.inkscape.org/namespaces/inkscape"
   xmlns:sodipodi="http://sodipodi.sourceforge.net/DTD/sodipodi-0.dtd"
   xmlns="http://www.w3.org/2000/svg"
   xmlns:svg="http://www.w3.org/2000/svg">
  <defs
     id="defs1809" />
  <sodipodi:namedview
     id="namedview1807"
     pagecolor="#505050"
     bordercolor="#ffffff"
     borderopacity="1"
     inkscape:pageshadow="0"
     inkscape:pageopacity="0"
     inkscape:pagecheckerboard="1"
     showgrid="false"
     inkscape:zoom="3.0648148"
     inkscape:cx="107.83686"
     inkscape:cy="108"
     inkscape:window-width="1440"
     inkscape:window-height="890"
     inkscape:window-x="-6"
     inkscape:window-y="-6"
     inkscape:window-maximized="1"
     inkscape:current-layer="g1811" />
  <g
     inkscape:groupmode="layer"
     inkscape:label="Image"
     id="g1811">
    <g
       id="g1815"
       transform="translate(8.1570993,-5.5468277)">
      <path
         style="fill:#b9b9b9;fill-opacity:1"
         d="m 34.8125,215.31689 c 0.721875,-0.28887 1.584375,-0.25335 1.916667,0.0789 0.332291,0.33229 -0.258334,0.56864 -1.3125,0.52522 -1.164943,-0.048 -1.4019,-0.28494 -0.604167,-0.60416 z m 9,0 c 0.721875,-0.28887 1.584375,-0.25335 1.916667,0.0789 0.332291,0.33229 -0.258334,0.56864 -1.3125,0.52522 -1.164943,-0.048 -1.4019,-0.28494 -0.604167,-0.60416 z M 8.0789474,188.41667 c 0.047984,-1.16495 0.2849403,-1.4019 0.6041666,-0.60417 0.2888706,0.72187 0.2533443,1.58437 -0.078947,1.91667 -0.3322917,0.33229 -0.5686404,-0.25834 -0.5252196,-1.3125 z m 62.9999996,0 c 0.04798,-1.16495 0.284941,-1.4019 0.604167,-0.60417 0.288871,0.72187 0.253344,1.58437 -0.07895,1.91667 -0.332292,0.33229 -0.568641,-0.25834 -0.52522,-1.3125 z m -62.9999996,-9 c 0.047984,-1.16495 0.2849403,-1.4019 0.6041666,-0.60417 0.2888706,0.72187 0.2533443,1.58437 -0.078947,1.91667 -0.3322917,0.33229 -0.5686404,-0.25834 -0.5252196,-1.3125 z M 34.8125,152.31689 c 0.721875,-0.28887 1.584375,-0.25335 1.916667,0.0789 0.332291,0.33229 -0.258334,0.56864 -1.3125,0.52522 -1.164943,-0.048 -1.4019,-0.28494 -0.604167,-0.60416 z M 172.28601,137.5 c 0.008,-2.75 0.20172,-3.75631 0.43157,-2.23625 0.22986,1.52006 0.22371,3.77006 -0.0136,5 -0.23736,1.22994 -0.42542,-0.0137 -0.41792,-2.76375 z M 43.299664,100 c 0,-3.025 0.187466,-4.2625 0.41659,-2.75 0.229125,1.5125 0.229125,3.9875 0,5.5 -0.229124,1.5125 -0.41659,0.275 -0.41659,-2.75 z M 173.32007,76 c 0,-3.575 0.1815,-5.0375 0.40333,-3.25 0.22182,1.7875 0.22182,4.7125 0,6.5 -0.22183,1.7875 -0.40333,0.325 -0.40333,-3.25 z M 42.252183,49.5 c 0.0111,-2.2 0.215885,-2.982253 0.455078,-1.738341 0.239193,1.243913 0.230112,3.043913 -0.02018,4 C 42.436788,52.717747 42.241084,51.7 42.252183,49.5 Z M 164,52.106989 c 0,-1.218244 2.94356,-2.259907 4.197,-1.485233 0.63768,0.394105 0.51088,0.948639 -0.34024,1.487931 C 166.07927,53.235959 164,53.234505 164,52.106989 Z M 174.232,38 c 0,-1.925 0.2058,-2.7125 0.45733,-1.75 0.25152,0.9625 0.25152,2.5375 0,3.5 C 174.4378,40.7125 174.232,39.925 174.232,38 Z"
         id="path1829" />
      <path
         style="fill:#a3a3a3;fill-opacity:1"
         d="m 37,215.67535 c -0.275,-0.27922 -1.85,-0.66806 -3.5,-0.8641 C 25.421864,213.8515 15.911143,206.56398 11.859095,198.22908 8.931587,192.20731 8.8431636,191.79013 8.8431636,184 c 0,-7.79013 0.088423,-8.20731 3.0159314,-14.22908 2.925782,-6.01822 7.89361,-10.98604 13.911827,-13.91182 6.079516,-2.95559 6.394604,-3.02139 14.887686,-3.10921 8.892033,-0.0919 16.087941,3.08174 22.322009,9.84491 6.05247,6.56615 8.356471,12.39161 8.268118,20.9052 -0.03995,3.85 -0.238273,7.675 -0.440707,8.5 -0.93972,3.82973 -5.292435,11.28441 -8.408028,14.4 -3.227666,3.22767 -11.036333,7.72497 -14.4,8.2935 -5.866803,0.99161 -10.576367,1.41198 -11,0.98185 z m 0,-14.07657 c 0,-2.82543 -0.59099,-3.74992 -3.490937,-5.46093 -9.684014,-5.71371 -9.824021,-18.317 -0.268203,-24.14325 8.679071,-5.2917 20.786998,1.71923 20.73344,12.0054 -0.03715,7.13517 -6.531507,16.16904 -13.835391,19.24551 L 37.5,204.35705 l 2.456052,0.41803 c 3.791395,0.64531 9.701396,-1.53542 13.717508,-5.06161 11.771054,-10.33512 8.62759,-29.09548 -5.891441,-35.16042 -10.152095,-4.24077 -22.108434,0.62734 -26.886256,10.94695 -4.7646,10.29105 2.68e-4,22.69471 10.604137,27.60414 5.335212,2.47012 5.5,2.42502 5.5,-1.50536 z m 7.078947,-51.18211 c 0.04798,-1.16495 0.284941,-1.4019 0.604167,-0.60417 0.288871,0.72187 0.253344,1.58437 -0.07895,1.91667 -0.332292,0.33229 -0.568641,-0.25834 -0.52522,-1.3125 z M 172.232,130 c 0,-1.925 0.2058,-2.7125 0.45733,-1.75 0.25152,0.9625 0.25152,2.5375 0,3.5 -0.25153,0.9625 -0.45733,0.175 -0.45733,-1.75 z M 43.194949,92.5 c 0.02038,-1.65 0.244498,-2.203936 0.498042,-1.230968 0.253543,0.972967 0.236869,2.322967 -0.03705,3 C 43.382014,94.946064 43.174569,94.15 43.194949,92.5 Z m 130.057231,-26 c 0.0111,-2.2 0.21589,-2.982253 0.45508,-1.738341 0.23919,1.243913 0.23011,3.043913 -0.0202,4 -0.25029,0.956088 -0.446,-0.06166 -0.4349,-2.261659 z m -9.33551,-9.740807 c -0.55889,-1.738324 -0.381,-4.546164 0.26281,-4.148266 0.46113,0.284993 1.75808,0.226278 2.88212,-0.130477 1.57984,-0.501421 1.79012,-0.954188 0.92648,-1.994809 -0.85898,-1.035009 -0.64001,-1.601557 0.94735,-2.451086 1.85722,-0.993954 2.06333,-0.825203 2.05219,1.680261 -0.009,2.075586 -0.90094,3.360772 -3.5,5.044377 -1.91819,1.242556 -3.52512,2.142556 -3.57095,2 z M 42.194949,43.5 c 0.02038,-1.65 0.244498,-2.203936 0.498042,-1.230968 0.253543,0.972967 0.236869,2.322967 -0.03705,3 C 42.382014,45.946064 42.174569,45.15 42.194949,43.5 Z"
         id="path1827" />
      <path
         style="fill:#8c8c8c;fill-opacity:1"
         d="m 163,188.5 c 1.86578,-1.925 3.61733,-3.5 3.89233,-3.5 0.275,0 -1.02655,1.575 -2.89233,3.5 -1.86578,1.925 -3.61733,3.5 -3.89233,3.5 -0.275,0 1.02655,-1.575 2.89233,-3.5 z M 44.272364,145 c 0,-2.475 0.195016,-3.4875 0.433369,-2.25 0.238353,1.2375 0.238353,3.2625 0,4.5 -0.238353,1.2375 -0.433369,0.225 -0.433369,-2.25 z M 172.32007,121 c 0,-3.575 0.1815,-5.0375 0.40333,-3.25 0.22182,1.7875 0.22182,4.7125 0,6.5 -0.22183,1.7875 -0.40333,0.325 -0.40333,-3.25 z M 43.252183,86.5 c 0.0111,-2.2 0.215885,-2.982253 0.455078,-1.738341 0.239193,1.243913 0.230112,3.043913 -0.02018,4 C 43.436788,89.717747 43.241084,88.7 43.252183,86.5 Z m 129.999997,-27 c 0.0111,-2.2 0.21589,-2.982253 0.45508,-1.738341 0.23919,1.243913 0.23011,3.043913 -0.0202,4 C 173.43679,62.717747 173.24108,61.7 173.25218,59.5 Z M 163,56.833333 c 0,-0.641666 0.2867,-0.879962 0.63712,-0.529545 0.35042,0.350417 2.03792,-0.286772 3.75,-1.415976 l 3.11288,-2.053098 -3,2.577676 c -3.2863,2.823668 -4.5,3.206914 -4.5,1.420943 z M 171.232,49 c 0,-1.925 0.2058,-2.7125 0.45733,-1.75 0.25152,0.9625 0.25152,2.5375 0,3.5 C 171.4378,51.7125 171.232,50.925 171.232,49 Z M 42.232003,38 c 0,-1.925 0.205795,-2.7125 0.457323,-1.75 0.251527,0.9625 0.251527,2.5375 0,3.5 -0.251528,0.9625 -0.457323,0.175 -0.457323,-1.75 z"
         id="path1825" />
      <path
         style="fill:#767676;fill-opacity:1"
         d="m 142.25,196.29427 c -1.2375,-0.23836 -2.25,-0.90022 -2.25,-1.47081 0,-0.57059 0.7118,-0.76429 1.58179,-0.43045 0.86998,0.33385 2.21998,0.60699 3,0.60699 0.78001,0 1.41821,0.45 1.41821,1 0,0.55 -0.3375,0.93872 -0.75,0.86382 -0.4125,-0.0749 -1.7625,-0.3312 -3,-0.56955 z M 168.5,183 c 0.99549,-1.1 2.03498,-2 2.30998,-2 0.275,0 -0.31449,0.9 -1.30998,2 -0.99549,1.1 -2.03498,2 -2.30998,2 -0.275,0 0.31449,-0.9 1.30998,-2 z m 2.65789,-5 c 0,-1.375 0.22698,-1.9375 0.50439,-1.25 0.27741,0.6875 0.27741,1.8125 0,2.5 -0.27741,0.6875 -0.50439,0.125 -0.50439,-1.25 z M 44.32814,134.5 c 0.0044,-3.85 0.185183,-5.30246 0.401658,-3.2277 0.216476,2.07477 0.212846,5.22477 -0.0081,7 -0.220912,1.77524 -0.398028,0.0777 -0.393592,-3.7723 z m 127.95787,-24 c 0.008,-2.75 0.20172,-3.75631 0.43157,-2.23625 0.22986,1.52006 0.22371,3.77006 -0.0136,5 -0.23736,1.22994 -0.42542,-0.0138 -0.41792,-2.76375 z M 43.286014,78.5 c 0.0075,-2.75 0.201713,-3.756313 0.431567,-2.23625 0.229855,1.520062 0.223712,3.770062 -0.01365,5 C 43.466569,82.493687 43.278507,81.25 43.286014,78.5 Z M 169,54.622445 c 0,-0.207656 0.7875,-0.995156 1.75,-1.75 1.58606,-1.243871 1.62143,-1.208501 0.37756,0.377555 C 169.82119,54.915748 169,55.445479 169,54.622445 Z m 3,-7.514795 c 0,-0.674126 -0.51953,-0.904598 -1.15451,-0.512158 -0.74421,0.459948 -0.88179,0.272264 -0.38713,-0.528116 0.54526,-0.882249 1.07722,-0.931796 1.83784,-0.171175 0.58876,0.588756 0.76297,1.377966 0.38713,1.753799 C 172.3075,48.025833 172,47.781776 172,47.10765 Z M 42.078947,33.416667 c 0.04798,-1.164943 0.284941,-1.4019 0.604167,-0.604167 0.288871,0.721875 0.253344,1.584375 -0.07895,1.916667 -0.332292,0.332291 -0.568641,-0.258334 -0.52522,-1.3125 z"
         id="path1823" />
      <path
         style="fill:#606060;fill-opacity:1"
         d="m 141.8125,196.31689 c 0.72187,-0.28887 1.58437,-0.25335 1.91667,0.0789 0.33229,0.33229 -0.25834,0.56864 -1.3125,0.52522 -1.16495,-0.048 -1.4019,-0.28494 -0.60417,-0.60416 z M 144,194.91759 c -2.03707,-0.58523 -1.71301,-0.73669 1.75,-0.81791 2.3375,-0.0548 4.25,0.0728 4.25,0.28369 0,0.87477 -3.67549,1.20203 -6,0.53422 z m 9.32387,-75.16682 c 0.45312,-40.837925 1.12812,-74.549364 1.5,-74.914311 0.37187,-0.364948 1.76455,-0.814948 3.09484,-1 L 160.33742,43.5 159.91871,92 C 159.68842,118.675 159.5,152.0827 159.5,166.23933 v 25.73932 l -2.89922,1.01068 c -1.59458,0.55587 -3.16958,1.01102 -3.5,1.01144 -0.33043,4.2e-4 -0.23004,-33.41208 0.22309,-74.25 z M 171.27236,172 c 0,-2.475 0.19502,-3.4875 0.43337,-2.25 0.23836,1.2375 0.23836,3.2625 0,4.5 -0.23835,1.2375 -0.43337,0.225 -0.43337,-2.25 z m 0.0273,-11 c 0,-3.025 0.18747,-4.2625 0.41659,-2.75 0.22913,1.5125 0.22913,3.9875 0,5.5 -0.22912,1.5125 -0.41659,0.275 -0.41659,-2.75 z M 44.286014,123.5 c 0.0075,-2.75 0.201713,-3.75631 0.431567,-2.23625 0.229855,1.52006 0.223712,3.77006 -0.01365,5 -0.237362,1.22994 -0.425424,-0.0138 -0.417917,-2.76375 z m 128.088056,-28 c 0.002,-6.05 0.16696,-8.396069 0.36601,-5.213487 0.19905,3.182582 0.1972,8.132582 -0.004,10.999997 -0.20131,2.86742 -0.36417,0.26349 -0.36191,-5.78651 z M 43.252183,70.5 c 0.0111,-2.2 0.215885,-2.982253 0.455078,-1.738341 0.239193,1.243913 0.230112,3.043913 -0.02018,4 C 43.436788,73.717747 43.241084,72.7 43.252183,70.5 Z m 48.166131,-7.416667 c -1.194413,-1.18971 -0.138258,-2.051147 1.890503,-1.541961 1.269849,0.318712 3.056824,0.68926 3.971056,0.823441 3.416747,0.501472 2.540525,1.264659 -1.378982,1.201097 -2.235345,-0.03625 -4.252504,-0.25341 -4.482577,-0.482577 z M 162.25218,55.5 c 0.0111,-2.2 0.21589,-2.982253 0.45508,-1.738341 0.23919,1.243913 0.23011,3.043913 -0.0202,4 C 162.43679,58.717747 162.24108,57.7 162.25218,55.5 Z M 166,57.622445 c 0,-0.207656 0.7875,-0.995156 1.75,-1.75 1.58606,-1.243871 1.62143,-1.208501 0.37756,0.377555 C 166.82119,57.915748 166,58.445479 166,57.622445 Z m 4.73785,-3.710265 c 0.68081,-0.873301 1.35581,-3.234899 1.5,-5.247995 0.40324,-5.630133 1.77232,-4.340274 1.6832,1.585815 -0.0434,2.8875 -0.31218,4.668718 -0.59724,3.958262 -0.42357,-1.05565 -0.82037,-1.05565 -2.17106,0 -1.43961,1.125152 -1.49311,1.086969 -0.4149,-0.296082 z M 136.5,41.931652 c -2.75,-0.470101 -8.375,-1.080251 -12.5,-1.355891 -4.125,-0.27564 -9.62611,-0.907723 -12.22469,-1.404629 -2.59858,-0.496905 -5.86108,-0.68623 -7.25,-0.420721 C 103.13639,39.01592 102,38.83128 102,38.3401 c 0,-0.49118 -1.9125,-0.908958 -4.25,-0.928395 -5.688282,-0.0473 -14.731084,-1.059456 -15.394756,-1.723128 -0.293619,-0.293618 -2.181165,-0.306397 -4.194548,-0.0284 -2.434968,0.336212 -3.217429,0.191558 -2.336857,-0.432014 0.899758,-0.63716 -0.221435,-0.941123 -3.5,-0.948874 C 61.953528,34.254775 55.105977,33.637543 55.638858,32.775323 55.958809,32.257632 54.555036,32.144883 52.348435,32.511042 49.356719,33.007482 48.833922,32.896865 50,32.014147 51.177573,31.122727 50.801407,31.016247 48.25,31.51878 44.782039,32.201841 43.999368,31.07534 46.5,29 47.536363,28.139896 48,28.102049 48,28.877555 48,29.4949 48.476558,30 49.059017,30 c 0.582459,0 0.81589,-0.393387 0.518736,-0.874193 -0.297155,-0.480807 0.576287,-2.078992 1.940983,-3.551522 1.364695,-1.472531 2.488155,-2.316644 2.496577,-1.875807 C 54.023735,24.139315 54.466844,23.825 55,23 c 0.828426,-1.281897 0.971601,-1.245547 0.984687,0.25 0.0084,0.9625 -0.509687,1.75 -1.151354,1.75 -0.641666,0 -0.943195,0.223471 -0.670063,0.496603 0.273132,0.273132 2.855525,-0.203921 5.738652,-1.060117 2.883126,-0.856197 6.222155,-1.406035 7.420063,-1.221863 1.197908,0.184172 -2.004243,1.391467 -7.115893,2.682877 -5.111649,1.29141 -9.102723,2.539202 -8.869053,2.772872 0.23367,0.23367 5.074181,-0.753689 10.756691,-2.194131 C 69.198148,24.675363 73.530508,24.070538 75.962783,24.54003 77.908252,24.915557 82.425,25.36528 86,25.539415 c 3.575,0.174135 11.45,0.808956 17.5,1.410714 6.05,0.601758 14.70032,1.371824 19.22294,1.711258 4.52262,0.339433 8.05309,0.89198 7.8455,1.227882 -0.2076,0.335902 1.71707,0.619548 4.27705,0.630325 7.22003,0.03039 22.078,1.349304 28.43142,2.523799 3.15912,0.583995 6.18918,0.78658 6.73347,0.450191 C 170.55467,33.157194 171,33.358524 171,33.940983 171,34.523442 170.3625,35 169.58333,35 c -0.77916,0 -1.56666,0.3375 -1.75,0.75 -0.18333,0.4125 -2.22417,2.033687 -4.53519,3.602637 -3.70856,2.517744 -5.23473,2.886747 -13,3.14319 C 145.45916,42.655631 139.25,42.401752 136.5,41.931652 Z M 74,33 c 1.979583,-0.633973 2.083666,-0.80064 0.5,-0.80064 -1.1,0 -3.125,0.360288 -4.5,0.80064 -1.979583,0.633973 -2.083666,0.80064 -0.5,0.80064 1.1,0 3.125,-0.360288 4.5,-0.80064 z m 6.729167,0.395833 c -0.332292,-0.332291 -1.194792,-0.367818 -1.916667,-0.07895 -0.797733,0.319226 -0.560776,0.556183 0.604167,0.604167 1.054166,0.04342 1.644791,-0.192928 1.3125,-0.52522 z m -15,-1 c -0.332292,-0.332291 -1.194792,-0.367818 -1.916667,-0.07895 -0.797733,0.319226 -0.560776,0.556183 0.604167,0.604167 1.054166,0.04342 1.644791,-0.192928 1.3125,-0.52522 z m 19,0 c -0.332292,-0.332291 -1.194792,-0.367818 -1.916667,-0.07895 -0.797733,0.319226 -0.560776,0.556183 0.604167,0.604167 1.054166,0.04342 1.644791,-0.192928 1.3125,-0.52522 z M 64.5,30.570128 c 2.75,-0.765211 4.325,-1.422851 3.5,-1.461421 -0.825,-0.03857 -3.75,0.555954 -6.5,1.321165 -2.75,0.765211 -4.325,1.422851 -3.5,1.461421 0.825,0.03857 3.75,-0.555954 6.5,-1.321165 z M 79.747218,29.322259 C 85.624703,27.849501 89.998504,26.51173 89.466777,26.349434 88.93505,26.187138 83.55,27.351288 77.5,28.936433 c -6.05,1.585146 -10.423802,2.922917 -9.719559,2.972825 0.704242,0.04991 6.089292,-1.114241 11.966777,-2.586999 z m -0.01805,2.073574 c -0.332292,-0.332291 -1.194792,-0.367818 -1.916667,-0.07895 -0.797733,0.319226 -0.560776,0.556183 0.604167,0.604167 1.054166,0.04342 1.644791,-0.192928 1.3125,-0.52522 z m -25,-1 c -0.332292,-0.332291 -1.194792,-0.367818 -1.916667,-0.07895 -0.797733,0.319226 -0.560776,0.556183 0.604167,0.604167 1.054166,0.04342 1.644791,-0.192928 1.3125,-0.52522 z m 29,0 c -0.332292,-0.332291 -1.194792,-0.367818 -1.916667,-0.07895 -0.797733,0.319226 -0.560776,0.556183 0.604167,0.604167 1.054166,0.04342 1.644791,-0.192928 1.3125,-0.52522 z M 63.5,28.528002 c 5.370255,-1.769895 3.256439,-1.839038 -3,-0.09813 -2.75,0.765211 -4.1,1.396948 -3,1.403859 1.1,0.0069 3.8,-0.580667 6,-1.305729 z m 24.229167,0.867831 c -0.332292,-0.332291 -1.194792,-0.367818 -1.916667,-0.07895 -0.797733,0.319226 -0.560776,0.556183 0.604167,0.604167 1.054166,0.04342 1.644791,-0.192928 1.3125,-0.52522 z M 76.5,27.570128 c 2.75,-0.765211 4.1,-1.396948 3,-1.403859 -2.128847,-0.01337 -10.692313,2.564787 -9,2.709588 0.55,0.04706 3.25,-0.540518 6,-1.305729 z M 94,28 c 2.009731,-0.643629 2.107785,-0.806404 0.5,-0.830035 -1.1,-0.01617 -2.9,0.357349 -4,0.830035 -2.548225,1.09501 0.08083,1.09501 3.5,0 z M 73,26 c 2.009731,-0.643629 2.107785,-0.806404 0.5,-0.830035 -1.1,-0.01617 -2.9,0.357349 -4,0.830035 -2.548225,1.09501 0.08083,1.09501 3.5,0 z m -31,5.059017 c 0,-0.517541 0.444846,-1.215913 0.988546,-1.551938 0.56686,-0.350339 0.734507,0.05106 0.393011,0.940983 C 42.716766,32.180479 42,32.497449 42,31.059017 Z m 117.8125,-1.742131 c 0.72187,-0.288871 1.58437,-0.253344 1.91667,0.07895 0.33229,0.332292 -0.25834,0.568641 -1.3125,0.52522 -1.16495,-0.04798 -1.4019,-0.284941 -0.60417,-0.604167 z m -20,-2 c 0.72187,-0.288871 1.58437,-0.253344 1.91667,0.07895 0.33229,0.332292 -0.25834,0.568641 -1.3125,0.52522 -1.16495,-0.04798 -1.4019,-0.284941 -0.60417,-0.604167 z M 57,23.106989 c 0,-1.103762 2.594671,-2.178984 3.375048,-1.398608 0.313818,0.313819 0.331255,0.957813 0.03875,1.431099 C 59.711753,24.27541 57,24.249601 57,23.106989 Z m 32.8125,-0.790103 c 0.721875,-0.288871 1.584375,-0.253344 1.916667,0.07895 0.332291,0.332292 -0.258334,0.568641 -1.3125,0.52522 -1.164943,-0.04798 -1.4019,-0.284941 -0.604167,-0.604167 z"
         id="path1821" />
      <path
         style="fill:#494949;fill-opacity:1"
         d="m 149.5515,140.83539 c 0.37226,-29.33446 0.96296,-63.123309 1.31267,-75.08632 L 151.5,43.99814 l -2.95,9.3e-4 c -1.92675,6.07e-4 -2.61004,-0.339034 -1.96989,-0.979178 0.63302,-0.633025 2.20889,-0.641394 4.45,-0.02363 L 154.5,43.952738 154.20425,58.72637 c -0.16267,8.125497 -0.61267,41.76784 -1,74.76076 -0.667,56.81461 -0.80012,60.00555 -2.51692,60.33539 -1.73872,0.33406 -1.78505,-1.8274 -1.13583,-52.98713 z m -24.739,50.4815 c 0.72187,-0.28887 1.58437,-0.25335 1.91667,0.0789 0.33229,0.33229 -0.25834,0.56864 -1.3125,0.52522 -1.16495,-0.048 -1.4019,-0.28494 -0.60417,-0.60416 z M 159.35108,144.75 c 0.34454,-25.4375 0.74399,-58.625 0.88768,-73.75 L 160.5,43.5 166,39.948651 c 3.025,-1.953242 6.0625,-3.8923 6.75,-4.309017 0.9337,-0.565948 1.25,0.495031 1.25,4.192941 0,4.297055 -0.29703,5.026461 -2.25,5.52518 -1.2375,0.316015 -3.9375,1.97256 -6,3.681212 -2.99956,2.48495 -3.75,3.79248 -3.75,6.533837 0,4.290362 1.34096,4.357516 6.803,0.340686 L 173,52.826979 172.9797,58.16349 c -0.0112,2.93508 -0.45408,31.640181 -0.98425,63.78911 l -0.96394,58.4526 -5.2316,5.2974 c -2.87737,2.91357 -5.64642,5.2974 -6.15343,5.2974 -0.55819,0 -0.67472,-18.24463 -0.2954,-46.25 z m -47.53858,44.56689 c 0.72187,-0.28887 1.58437,-0.25335 1.91667,0.0789 0.33229,0.33229 -0.25834,0.56864 -1.3125,0.52522 -1.16495,-0.048 -1.4019,-0.28494 -0.60417,-0.60416 z M 44.320074,113 c 0,-3.575 0.181495,-5.0375 0.403322,-3.25 0.221826,1.7875 0.221826,4.7125 0,6.5 -0.221827,1.7875 -0.403322,0.325 -0.403322,-3.25 z m -0.97066,-54 c 0,-4.675 0.172256,-6.5875 0.382791,-4.25 0.210535,2.3375 0.210535,6.1625 0,8.5 -0.210535,2.3375 -0.382791,0.425 -0.382791,-4.25 z m 57.545736,5.177408 c 1.16096,-0.81122 1.11571,-1.058696 -0.26961,-1.474343 -1.50943,-0.452888 -1.506282,-0.485661 0.0337,-0.351277 1.982,0.172951 2.10131,1.936403 0.16572,2.449343 -1.00224,0.265598 -0.985153,0.113664 0.0701,-0.623723 z M 93.8125,63.316886 c 0.721875,-0.288871 1.584375,-0.253344 1.916667,0.07895 0.332291,0.332292 -0.258334,0.568641 -1.3125,0.52522 -1.164943,-0.04798 -1.4019,-0.284941 -0.604167,-0.604167 z M 92,61 c -0.825,-0.533156 -1.05,-0.969374 -0.5,-0.969374 0.55,0 1.675,0.436218 2.5,0.969374 0.825,0.533156 1.05,0.969374 0.5,0.969374 -0.55,0 -1.675,-0.436218 -2.5,-0.969374 z m 63.5,-18 c -0.33992,-0.55 0.057,-1 0.88197,-1 0.825,0 1.77811,0.45 2.11803,1 0.33992,0.55 -0.057,1 -0.88197,1 -0.825,0 -1.77811,-0.45 -2.11803,-1 z M 129,42.099806 c -2.475,-0.329893 -3.825,-0.845322 -3,-1.145397 0.825,-0.300075 4.65,-0.0159 8.5,0.631489 5.02151,0.844388 5.86943,1.168126 3,1.145398 -2.2,-0.01743 -6.025,-0.301596 -8.5,-0.63149 z m -10.1875,-1.78292 c 0.72187,-0.288871 1.58437,-0.253344 1.91667,0.07895 0.33229,0.332292 -0.25834,0.568641 -1.3125,0.52522 -1.16495,-0.04798 -1.4019,-0.284941 -0.60417,-0.604167 z m 42.1056,-0.445675 c -1.20211,-0.809212 -1.18964,-0.924234 0.0819,-0.75519 0.825,0.10968 2.32523,-0.15918 3.33385,-0.597465 1.44292,-0.627013 1.54951,-0.977122 0.5,-1.642407 -0.90977,-0.576701 -0.95519,-0.850392 -0.14287,-0.860836 2.28971,-0.02944 2.27241,1.778658 -0.0315,3.288212 -1.57276,1.030518 -2.78142,1.213908 -3.74141,0.567686 z M 106,39.062871 c 0,-0.519114 1.67273,-0.679008 3.75,-0.358459 C 114.94253,39.505682 115.1015,40 110.16667,40 107.875,40 106,39.578292 106,39.062871 Z M 99,38 c 1.93876,-1.252922 3,-1.252922 3,0 0,0.55 -1.0125,0.993109 -2.25,0.984687 C 97.930562,38.972305 97.787041,38.783874 99,38 Z M 85,36.943434 c -1.065219,-0.728568 -0.05073,-0.831917 3.5,-0.356556 2.75,0.368161 5.1875,0.836725 5.416667,1.041253 C 94.92036,38.523913 86.348398,37.865685 85,36.943434 Z m -5.653625,-1.077467 c 1.323261,-0.769152 2.159055,-0.760537 2.95,0.03041 0.804833,0.804833 0.304951,1.095392 -1.846375,1.073216 -2.586113,-0.02666 -2.722247,-0.162791 -1.103625,-1.103624 z M 168,36 c 0,-0.55 0.47656,-1 1.05902,-1 0.58246,0 0.7809,0.45 0.44098,1 -0.33992,0.55 -0.81648,1 -1.05902,1 C 168.19844,37 168,36.55 168,36 Z M 63.25,35.267795 c -5.787624,-0.521282 -5.397899,-1.990728 0.5,-1.885238 2.6125,0.04673 6.55,-0.23627 8.75,-0.628882 l 4,-0.71384 -4.5,1.46772 -4.5,1.467721 5,-0.480872 c 3.47028,-0.333753 4.541084,-0.181684 3.5,0.497049 -1.479047,0.964261 -4.407546,1.027733 -12.75,0.276342 z M 171,34.106989 c 0,-0.491156 0.73865,-1.176458 1.64144,-1.522892 1.37248,-0.526667 1.43434,-0.380336 0.37756,0.893011 -1.44013,1.735245 -2.019,1.91584 -2.019,0.629881 z M 52,33 c 1.970116,-1.273187 4.286873,-1.273187 3.5,0 -0.339919,0.55 -1.603976,0.993109 -2.809017,0.984687 C 50.909749,33.972238 50.780524,33.788086 52,33 Z m 26.8125,0.316886 c 0.721875,-0.288871 1.584375,-0.253344 1.916667,0.07895 0.332291,0.332292 -0.258334,0.568641 -1.3125,0.52522 -1.164943,-0.04798 -1.4019,-0.284941 -0.604167,-0.604167 z M 159,32.563594 151.5,31.4228 l 3.39922,-1.2114 c 4.13971,-1.475292 5.08711,-1.518139 3.10078,-0.140237 -1.09616,0.7604 9e-5,0.943825 4.07189,0.681309 3.61407,-0.233006 5.98585,0.08391 6.75,0.901943 2.50155,2.677923 2.06945,2.717921 -9.82189,0.909179 z M 47,32 c 0.825,-0.533156 2.175,-0.969374 3,-0.969374 1.333333,0 1.333333,0.107708 0,0.969374 -0.825,0.533156 -2.175,0.969374 -3,0.969374 -1.333333,0 -1.333333,-0.107708 0,-0.969374 z m 16.8125,0.316886 c 0.721875,-0.288871 1.584375,-0.253344 1.916667,0.07895 0.332291,0.332292 -0.258334,0.568641 -1.3125,0.52522 -1.164943,-0.04798 -1.4019,-0.284941 -0.604167,-0.604167 z m 19,0 c 0.721875,-0.288871 1.584375,-0.253344 1.916667,0.07895 0.332291,0.332292 -0.258334,0.568641 -1.3125,0.52522 -1.164943,-0.04798 -1.4019,-0.284941 -0.604167,-0.604167 z M 61.5,30.429872 c 2.75,-0.765211 5.675,-1.359735 6.5,-1.321165 0.825,0.03857 -0.75,0.69621 -3.5,1.461421 -2.75,0.765211 -5.675,1.359735 -6.5,1.321165 -0.825,-0.03857 0.75,-0.69621 3.5,-1.461421 z m 18,-2.070641 c 12.351783,-3.312965 13.398903,-3.437078 21,-2.48909 l 8,0.997737 -8.23837,-0.40174 c -6.795328,-0.331371 -10.210967,0.116986 -19.5,2.559685 C 74.567734,30.654608 68.825,31.955482 68,31.916654 c -0.825,-0.03883 4.35,-1.639668 11.5,-3.557423 z m -1.6875,2.957655 c 0.721875,-0.288871 1.584375,-0.253344 1.916667,0.07895 0.332291,0.332292 -0.258334,0.568641 -1.3125,0.52522 -1.164943,-0.04798 -1.4019,-0.284941 -0.604167,-0.604167 z M 141.5,30.78196 c -3.3,-0.469587 -7.21373,-0.694057 -8.69719,-0.498822 -1.53408,0.2019 -2.4434,-0.05566 -2.10867,-0.59727 0.33971,-0.54965 3.55204,-0.703794 7.59802,-0.364594 3.95252,0.331365 7.81596,0.156047 8.85867,-0.401995 1.41072,-0.754993 1.84917,-0.639634 1.84917,0.48652 0,2.160831 -0.86736,2.319981 -7.5,1.376161 z M 44.596276,29.609704 c 0.307099,-0.800286 1.262976,-1.725452 2.124171,-2.055924 2.436421,-0.934942 2.313571,-0.225728 -0.29943,1.728605 -1.794558,1.342198 -2.245206,1.423034 -1.824741,0.327319 z m 8.216224,0.707182 c 0.721875,-0.288871 1.584375,-0.253344 1.916667,0.07895 0.332291,0.332292 -0.258334,0.568641 -1.3125,0.52522 -1.164943,-0.04798 -1.4019,-0.284941 -0.604167,-0.604167 z m 29,0 c 0.721875,-0.288871 1.584375,-0.253344 1.916667,0.07895 0.332291,0.332292 -0.258334,0.568641 -1.3125,0.52522 -1.164943,-0.04798 -1.4019,-0.284941 -0.604167,-0.604167 z M 60.5,28.429872 c 2.75,-0.765211 5.45,-1.352789 6,-1.305729 1.692313,0.144801 -6.871153,2.722963 -9,2.709588 -1.1,-0.0069 0.25,-0.638648 3,-1.403859 z m 25.3125,0.887014 c 0.721875,-0.288871 1.584375,-0.253344 1.916667,0.07895 0.332291,0.332292 -0.258334,0.568641 -1.3125,0.52522 -1.164943,-0.04798 -1.4019,-0.284941 -0.604167,-0.604167 z M 51.083333,28.601007 c 0.229167,-0.219446 5.060815,-1.6197 10.736997,-3.111674 9.197704,-2.417601 11.15571,-2.617034 18,-1.83339 l 7.67967,0.879292 -8.342599,2.30645 c -4.588429,1.268548 -8.547227,2.101823 -8.797328,1.851721 -0.250101,-0.250101 2.154068,-1.103669 5.342599,-1.896818 L 81.5,25.354499 76.858659,24.632271 c -3.509625,-0.546124 -7.089402,-0.101676 -14.68122,1.822751 -10.017872,2.539399 -11.881381,2.899867 -11.094106,2.145985 z M 90.5,28 c 1.1,-0.472686 2.9,-0.846202 4,-0.830035 1.607785,0.02363 1.509731,0.186406 -0.5,0.830035 -3.41917,1.09501 -6.048225,1.09501 -3.5,0 z m 24,0 -4,-0.716189 4.5,-0.06778 c 2.475,-0.03728 6.525,0.292538 9,0.732929 l 4.5,0.80071 -5,-0.01674 c -2.75,-0.0092 -6.8,-0.339024 -9,-0.732928 z m 22.3125,-0.683114 c 0.72187,-0.288871 1.58437,-0.253344 1.91667,0.07895 0.33229,0.332292 -0.25834,0.568641 -1.3125,0.52522 -1.16495,-0.04798 -1.4019,-0.284941 -0.60417,-0.604167 z M 69.5,26 c 1.1,-0.472686 2.9,-0.846202 4,-0.830035 1.607785,0.02363 1.509731,0.186406 -0.5,0.830035 -3.41917,1.09501 -6.048225,1.09501 -3.5,0 z M 50,25.606989 c 0,-0.216156 0.698372,-0.661002 1.551938,-0.988546 0.889925,-0.341496 1.291322,-0.173849 0.940983,0.393011 C 51.905663,25.961658 50,26.416902 50,25.606989 Z m 6,-0.736402 c 1.375,-0.591939 3.281394,-1.479978 4.236431,-1.97342 0.955037,-0.493442 2.755037,-0.865459 4,-0.826705 1.773982,0.05522 1.506554,0.346035 -1.236431,1.344553 -1.925,0.70075 -4.85,1.557081 -6.5,1.902958 -2.856222,0.598727 -2.880185,0.577286 -0.5,-0.447386 z m 11.75,-4.532868 c 0.6875,-0.277412 1.8125,-0.277412 2.5,0 0.6875,0.277413 0.125,0.504386 -1.25,0.504386 -1.375,0 -1.9375,-0.226973 -1.25,-0.504386 z"
         id="path1819" />
      <path
         style="fill:#333333;fill-opacity:1"
         d="M 106.79817,188.60557 C 88.262161,185.75883 72.930233,183.22049 72.727216,182.96484 72.5242,182.70918 71.815881,180.025 71.153174,177 68.907439,166.74909 59.419852,156.38484 49.647453,153.50713 L 45.5,152.28581 l -0.224021,-6.8929 c -0.123212,-3.7911 -0.680295,-31.17583 -1.237963,-60.854947 -0.753678,-40.110794 -0.722689,-54.228467 0.120726,-55 0.795156,-0.727388 0.944457,-0.697846 0.498973,0.09873 -1.225696,2.191684 2.022155,3.2677 14.37945,4.763927 C 70.72616,35.815929 75.33759,36.309318 102,38.997321 c 5.775,0.582213 16.35,1.712385 23.5,2.511493 7.15,0.799108 15.925,1.709472 19.5,2.02303 l 6.5,0.570106 -0.7484,31.199025 C 150.33998,92.460439 149.72444,126.1875 149.38373,150.25 l -0.61947,43.75 -4.13213,-0.10926 c -2.27267,-0.0601 -19.29795,-2.43842 -37.83396,-5.28517 z M 102.325,63.475 C 102.42125,62.93875 100.7,62.227661 98.5,61.894802 96.3,61.561943 93.7125,60.951298 92.75,60.537813 91.407607,59.961128 91,60.264016 91,61.83822 c 0,1.730334 0.744982,2.109451 4.75,2.417245 5.96602,0.458502 6.36104,0.411613 6.575,-0.780465 z m 51.4875,-20.158114 c 0.72187,-0.288871 1.58437,-0.253344 1.91667,0.07895 0.33229,0.332292 -0.25834,0.568641 -1.3125,0.52522 -1.16495,-0.04798 -1.4019,-0.284941 -0.60417,-0.604167 z M 159,42.307516 c 0.825,-0.294025 4.3475,-2.35916 7.82778,-4.58919 l 6.32779,-4.0546 -2.82779,-1.250644 c -1.55528,-0.687854 -2.2357,-1.287193 -1.51204,-1.331863 1.75048,-0.108055 5.18426,1.770696 5.18426,2.836506 0,1.382088 -12.47198,9.089124 -14.56972,9.003328 -1.406,-0.0575 -1.52287,-0.224145 -0.43028,-0.613537 z M 149,29.843823 c 0,-0.997244 4.54503,-0.963459 11.5,0.08548 4.52381,0.682278 4.21429,0.754298 -3.25,0.756217 -4.5375,0.0012 -8.25,-0.377599 -8.25,-0.841701 z M 133.5,28.92506 c -4.4,-0.433141 -12.95,-1.278357 -19,-1.878259 C 100.4926,25.657865 85.459924,24.226005 71.562478,22.95701 65.54684,22.407713 60.40934,21.742674 60.145811,21.479144 59.29931,20.632644 73.854253,20.967706 83.829561,22.024357 89.148302,22.587753 97.55,23.484435 102.5,24.016984 c 4.95,0.532549 11.925,1.223594 15.5,1.535657 3.575,0.312062 9.79506,0.99038 13.82236,1.507372 4.0273,0.516993 9.4273,0.946878 12,0.9553 3.38873,0.01109 4.26432,0.282421 3.17764,0.984687 -1.64739,1.064627 -1.94041,1.063 -13.5,-0.07494 z"
         id="path1817" />
    </g>
  </g>
</svg>
