<?xml version="1.0" encoding="UTF-8" standalone="no"?>
<!-- Created with Inkscape (http://www.inkscape.org/) -->

<svg
   width="100mm"
   height="100mm"
   viewBox="0 0 100 100"
   version="1.1"
   id="svg13507"
   inkscape:version="1.1.1 (3bf5ae0d25, 2021-09-20)"
   sodipodi:docname="add_list_type_device_6049.svg"
   xmlns:inkscape="http://www.inkscape.org/namespaces/inkscape"
   xmlns:sodipodi="http://sodipodi.sourceforge.net/DTD/sodipodi-0.dtd"
   xmlns="http://www.w3.org/2000/svg"
   xmlns:svg="http://www.w3.org/2000/svg">
  <sodipodi:namedview
     id="namedview13509"
     pagecolor="#ffffff"
     bordercolor="#666666"
     borderopacity="1.0"
     inkscape:pageshadow="2"
     inkscape:pageopacity="0.0"
     inkscape:pagecheckerboard="true"
     inkscape:document-units="mm"
     showgrid="false"
     width="100mm"
     inkscape:zoom="0.67521728"
     inkscape:cx="378.39671"
     inkscape:cy="143.65746"
     inkscape:window-width="1440"
     inkscape:window-height="890"
     inkscape:window-x="-6"
     inkscape:window-y="-6"
     inkscape:window-maximized="1"
     inkscape:current-layer="layer1" />
  <defs
     id="defs13504" />
  <g
     inkscape:label="Laag 1"
     inkscape:groupmode="layer"
     id="layer1">
    <g
       id="g13928">
      <path
         style="fill:#d0d0d0;fill-opacity:1;stroke-width:0.480384"
         d="m 25.249663,98.732482 c -0.123167,-0.198158 2.404107,-0.303785 5.616165,-0.23473 10.951315,0.235441 12.09558,0.406727 3.34644,0.50093 -4.806264,0.05175 -8.839437,-0.06804 -8.962605,-0.2662 z m 20.823766,-1.070901 c -0.469028,-0.296628 3.362316,-0.503683 10.975139,-0.593126 11.264445,-0.132346 14.518674,0.118765 9.843463,0.759574 -3.462437,0.474581 -20.014247,0.342245 -20.818602,-0.166448 z M 75.50611,97.7991 c 0.467399,-0.121796 1.115918,-0.113788 1.441153,0.01782 0.325234,0.131591 -0.05718,0.231242 -0.849815,0.221452 -0.792634,-0.0098 -1.058738,-0.117454 -0.591338,-0.239251 z m 8.756978,-0.146036 c 0.317025,-0.51296 -0.898496,-0.586756 -6.530166,-0.396442 -3.849171,0.130073 -5.96046,0.07223 -4.757972,-0.130362 1.188952,-0.200306 2.972378,-0.38022 3.963171,-0.399805 0.990793,-0.01958 1.801441,-0.251779 1.801441,-0.51599 0,-0.264212 0.985537,-0.480385 2.190082,-0.480385 1.204544,0 2.073526,0.188585 1.931073,0.419078 -0.142449,0.230493 0.547354,0.552375 1.532901,0.715287 2.564969,0.424007 4.434015,0.374446 4.434015,-0.117569 0,-0.535772 -1.703333,-1.001712 -3.693123,-1.010238 -1.168804,-0.005 -1.516174,-0.208598 -1.467118,-0.859874 0.05044,-0.669497 0.398325,-0.814323 1.614923,-0.672288 1.390871,0.162375 1.571745,0.03992 1.75543,-1.188317 0.15257,-1.020231 0.223133,-0.84883 0.276759,0.672288 0.11204,3.177987 1.032744,2.409824 1.032744,-0.861637 0,-2.480829 0.18307,-3.092445 1.258156,-4.203362 l 1.25815,-1.300093 -0.290825,1.200961 c -0.159953,0.660528 -0.293779,1.903523 -0.297386,2.762209 -0.0074,1.774559 -0.793792,2.115272 -1.108689,0.480385 -0.178496,-0.926734 -0.217513,-0.892477 -0.273603,0.240192 -0.03598,0.726581 0.114726,1.321057 0.3349,1.321057 0.22018,0 0.400324,0.324259 0.400324,0.720576 0,0.396317 -0.180144,0.720577 -0.400324,0.720577 -0.220174,0 -0.400318,0.206032 -0.400318,0.457844 0,0.477305 2.422064,1.72053 4.083266,2.095908 0.528423,0.119409 -0.768615,0.24513 -2.882306,0.279386 -2.113691,0.03425 -4.363268,0.201473 -4.999057,0.371592 -0.8793,0.235273 -1.062749,0.158445 -0.766448,-0.320978 z M 6.6206403,96.330561 c -0.5975361,-0.761919 -0.5805449,-0.77891 0.1813715,-0.181374 0.4623699,0.362618 0.8406725,0.740921 0.8406725,0.840672 0,0.395376 -0.3944848,0.140902 -1.022044,-0.659298 z m 89.1405327,0 c 0.12797,-0.873589 2.013026,-1.281555 2.474138,-0.535461 0.14119,0.228452 -0.08031,0.415365 -0.492216,0.415365 -0.411911,0 -0.748929,0.216173 -0.748929,0.480384 0,0.264211 -0.305131,0.480384 -0.678072,0.480384 -0.372937,0 -0.62265,-0.378302 -0.554921,-0.840672 z M 75.496968,95.398937 c 0.46237,-0.120826 1.218975,-0.120826 1.681345,0 0.46237,0.120831 0.08407,0.219694 -0.840672,0.219694 -0.92474,0 -1.303043,-0.09886 -0.840673,-0.219694 z m 15.732586,-0.629625 c 0,-0.264212 0.985537,-0.480385 2.190082,-0.480385 1.337726,0 2.07453,0.186961 1.893185,0.480385 -0.163292,0.264211 -1.14883,0.480384 -2.190082,0.480384 -1.041252,0 -1.893185,-0.216173 -1.893185,-0.480384 z M 5.7211471,93.808543 C 5.4383439,93.28012 5.2746092,92.847774 5.357292,92.847774 c 0.082683,0 0.520519,0.432346 0.9729689,0.960769 0.4524495,0.528423 0.6161842,0.960769 0.3638546,0.960769 -0.2523295,0 -0.6901652,-0.432346 -0.9729684,-0.960769 z m 69.4584209,0.549781 c -0.139705,-0.226045 0.279887,-0.308931 0.932417,-0.184194 0.652535,0.124741 1.186424,0.309684 1.186424,0.410993 0,0.371697 -1.872845,0.171228 -2.118841,-0.226799 z m 21.574406,-0.0694 c 0.163292,-0.264211 0.513065,-0.480384 0.777276,-0.480384 0.264211,0 0.346785,0.216173 0.183492,0.480384 -0.163292,0.264212 -0.513065,0.480385 -0.777276,0.480385 -0.264211,0 -0.346785,-0.216173 -0.183492,-0.480385 z m -18.33013,-0.380483 c 0.603646,-0.127869 0.808443,-0.481206 0.643811,-1.110764 -0.486437,-1.860139 3.666807,-2.702647 4.250906,-0.862319 0.437678,1.379006 -0.402105,2.138373 -1.334118,1.206361 -0.400718,-0.400718 -0.862405,-0.594759 -1.025962,-0.431198 -0.534264,0.534264 -0.313691,1.024102 0.543291,1.206499 0.46237,0.09841 -0.240192,0.178934 -1.561249,0.178934 -1.321057,0 -2.003563,-0.08438 -1.516679,-0.187513 z M 93.280329,92.51487 c 0.4674,-0.121797 1.115918,-0.113789 1.441153,0.01782 0.325235,0.131592 -0.05718,0.231243 -0.849814,0.221453 -0.792634,-0.0098 -1.058738,-0.117454 -0.591339,-0.239251 z M 69.139231,90.806141 c -0.004,-0.990792 0.208818,-1.801441 0.473029,-1.801441 0.611861,0 0.611861,1.935521 0,2.882306 -0.346381,0.535989 -0.467558,0.25911 -0.473029,-1.080865 z m 22.165907,-2.065652 0.07558,-3.819056 0.317165,3.362691 c 0.174442,1.849479 0.140426,3.568054 -0.07558,3.819055 -0.21601,0.251001 -0.358737,-1.26221 -0.317165,-3.36269 z M 4.4457635,89.224173 c -0.1564537,-0.407712 -0.1771239,-0.848632 -0.045934,-0.97982 0.1311902,-0.131193 0.3538308,0.20239 0.4947569,0.741295 0.2993515,1.144722 -0.033254,1.321484 -0.4488229,0.238525 z M 89.826328,85.361787 c 0.02306,-0.559623 0.13688,-0.673451 0.290229,-0.290234 0.138768,0.346775 0.121705,0.761107 -0.0379,0.920739 -0.159632,0.159627 -0.273166,-0.124103 -0.252307,-0.630505 z M 71.720446,79.637206 c 9.61e-4,-3.434748 0.07736,-4.776841 0.170037,-2.982423 0.09268,1.794413 0.09199,4.604662 -0.0014,6.244996 -0.09352,1.64033 -0.16935,0.172175 -0.16851,-3.262573 z m -1.801523,4.803843 c -0.15208,-0.396317 -0.06712,-0.720576 0.188796,-0.720576 0.25592,0 0.46531,0.324259 0.46531,0.720576 0,0.396317 -0.08496,0.720577 -0.188796,0.720577 -0.10384,0 -0.313225,-0.32426 -0.46531,-0.720577 z M 12.926912,82.57833 c 0,-0.09975 0.378302,-0.478054 0.840672,-0.840672 0.761917,-0.597536 0.778908,-0.580545 0.181372,0.181373 -0.627559,0.800201 -1.022044,1.054675 -1.022044,0.659299 z M 48.905722,64.8656 c 0.109331,-10.287618 0.340179,-16.87348 0.543046,-15.492606 0.540514,3.679153 0.317116,33.0359 -0.252841,33.226492 -0.316785,0.105935 -0.415619,-5.933433 -0.290205,-17.733886 z m 8.152746,17.533816 c -0.226357,-1.278274 0.224436,-34.577693 0.474279,-35.034299 0.170556,-0.311699 0.310098,7.524524 0.310098,17.413826 0,9.889307 -0.16213,17.980602 -0.360289,17.98066 -0.198158,5.3e-5 -0.388996,-0.162029 -0.424088,-0.360187 z M 4.2187186,80.958263 c -0.6098553,-0.777627 -0.5872462,-0.787821 0.3014677,-0.135935 0.5284228,0.387608 1.0508407,0.765911 1.1609289,0.840673 0.1100878,0.07476 -0.025573,0.135934 -0.301468,0.135934 -0.2758952,0 -0.7983131,-0.378302 -1.1609286,-0.840672 z m 18.9908134,-0.720577 -0.915126,-1.080864 1.080864,0.915127 c 0.594476,0.503318 1.080865,0.989707 1.080865,1.080865 0,0.384427 -0.38661,0.100616 -1.246603,-0.915128 z m -9.081659,-7.405767 -0.960769,-0.769927 0.960769,0.362042 c 0.528422,0.199119 1.230984,0.372317 1.561249,0.384884 0.330264,0.01259 0.60048,0.202986 0.60048,0.423165 0,0.641775 -1.120313,0.434393 -2.161729,-0.400164 z m 3.784548,-4.964129 c 0,-3.03843 0.078,-4.281425 0.173332,-2.762209 0.09533,1.519215 0.09533,4.005204 0,5.524419 -0.09533,1.519216 -0.173332,0.276221 -0.173332,-2.76221 z M 15.555718,39.284924 c 5e-5,-17.702162 0.06,-24.874155 0.133228,-15.937764 0.07323,8.936392 0.07318,23.419979 -9.2e-5,32.18575 -0.07327,8.765769 -0.133187,1.454176 -0.133136,-16.247986 z m 31.477552,5.446903 c -2.117789,-2.923522 -2.669652,-5.129356 -1.858097,-7.426939 l 0.658064,-1.863038 0.240192,3.926659 c 0.189241,3.093712 0.454312,4.163684 1.249592,5.044035 1.178501,1.304565 1.801141,2.318337 1.423886,2.318337 -0.146042,0 -0.917178,-0.899575 -1.713637,-1.999054 z M 59.5374,44.142206 c 1.304133,-1.815975 1.52474,-2.551788 1.591096,-5.306952 0.07502,-3.11477 0.09345,-3.15873 0.702816,-1.676168 0.344176,0.83737 0.500633,2.092261 0.347678,2.788647 -0.378072,1.721364 -3.034948,6.302763 -3.655133,6.302763 -0.275285,0 0.180807,-0.94873 1.013543,-2.10829 z M 47.034198,33.573836 c 0,-0.331049 3.388496,-2.349577 3.59596,-2.142114 0.100501,0.100503 -0.667475,0.672048 -1.706614,1.270101 -1.039141,0.598053 -1.889346,0.990459 -1.889346,0.872013 z m 5.194155,-2.54341 c 0.346775,-0.138769 0.761107,-0.121703 0.920738,0.03793 0.159627,0.159628 -0.124102,0.273166 -0.630504,0.252307 -0.559624,-0.02305 -0.673451,-0.136881 -0.290234,-0.290232 z m 1.921537,0 c 0.346775,-0.138769 0.761107,-0.121703 0.920738,0.03793 0.159627,0.159628 -0.124102,0.273166 -0.630504,0.252307 C 53.8805,31.297611 53.766673,31.183778 54.14989,31.030427 Z M 71.794507,7.8529453 c -0.152013,-0.2459548 -0.05668,-0.5829718 0.21184,-0.7489273 0.26852,-0.165955 0.488219,0.035279 0.488219,0.4471907 0,0.8438076 -0.288259,0.9680508 -0.700059,0.3017366 z m 1.451519,-2.5759292 c 0.180399,-0.4737651 0.449011,-0.7403784 0.596916,-0.5924738 0.147906,0.1479041 3.08e-4,0.5355295 -0.327996,0.8613905 -0.474438,0.4709049 -0.529615,0.4157261 -0.26892,-0.2689167 z"
         id="path13944" />
      <path
         style="fill:#b9b9b9;fill-opacity:1;stroke-width:0.480384"
         d="m 75.731857,97.671131 c -1.978574,-0.383702 -2.623749,-0.793182 -2.090273,-1.326658 0.190506,-0.190506 0.501786,-0.09492 0.69173,0.212421 0.189944,0.307335 1.379755,0.612341 2.644016,0.677784 1.264266,0.06544 2.406898,0.294115 2.539182,0.508155 0.280256,0.453459 -1.223582,0.424967 -3.784655,-0.0717 z m 5.169434,-0.01951 c 1.358484,-0.583759 3.723474,-0.583759 3.362691,0 -0.163293,0.264211 -1.202873,0.465189 -2.310178,0.446618 -1.565164,-0.02625 -1.799433,-0.125654 -1.052513,-0.446618 z M 68.895085,97.176734 c -0.168298,-0.272311 0.02455,-0.352843 0.452032,-0.188796 0.832227,0.319354 0.984495,0.66368 0.293495,0.66368 -0.248618,0 -0.584108,-0.213699 -0.745527,-0.474884 z M 51.98524,96.812261 c 3.11939,-0.0838 8.091368,-0.08353 11.048839,4.81e-4 2.957472,0.08414 0.405243,0.152709 -5.671619,0.152373 -6.076861,-3.37e-4 -8.49661,-0.06918 -5.37722,-0.152988 z m 19.93887,0.03084 c 0.346775,-0.138769 0.761106,-0.121705 0.920738,0.0379 0.159627,0.159627 -0.124103,0.273166 -0.630505,0.252308 -0.559623,-0.02306 -0.67345,-0.136881 -0.290233,-0.290229 z m 19.065252,-0.152253 c -0.378,-0.611621 0.73493,-0.611621 1.681345,0 0.585819,0.378586 0.523739,0.467049 -0.331936,0.47303 -0.578882,0.004 -1.186117,-0.208819 -1.349409,-0.47303 z m 3.122498,0.296219 c 0,-0.101289 0.432644,-0.2973 0.961432,-0.435583 0.528787,-0.138279 0.840288,-0.05541 0.692224,0.184165 -0.258567,0.418371 -1.653656,0.630475 -1.653656,0.251418 z m -5.100735,-1.348731 c -0.194479,-0.314671 -0.09781,-0.657397 0.214833,-0.761607 0.312634,-0.104214 0.424338,-0.441233 0.248229,-0.748928 -0.176114,-0.307696 -0.13703,-0.392916 0.08685,-0.189377 0.524176,0.476546 0.66281,2.27204 0.175432,2.27204 -0.204466,0 -0.530873,-0.257458 -0.725347,-0.572128 z M 74.727541,95.009504 c 0.09876,-0.264212 0.771651,-0.511249 1.495312,-0.548969 0.72366,-0.03771 2.612786,-0.178299 4.198054,-0.312399 1.585268,-0.134099 3.034996,-0.150355 3.221616,-0.03612 0.686291,0.420077 -0.233731,1.617603 -1.231379,1.602798 -0.919479,-0.01364 -0.945973,-0.07884 -0.247974,-0.61017 0.66537,-0.506493 0.504768,-0.602142 -1.080865,-0.64372 -2.124485,-0.05571 -2.329033,0.148699 -0.781494,0.780937 0.780312,0.318793 0.130746,0.414673 -2.335989,0.34481 -2.039481,-0.05776 -3.344464,-0.290421 -3.237281,-0.577157 z m 12.819065,0 c 0,-0.396317 0.180144,-0.720577 0.400324,-0.720577 0.220174,0 0.400318,0.32426 0.400318,0.720577 0,0.396317 -0.180144,0.720576 -0.400318,0.720576 -0.22018,0 -0.400324,-0.324259 -0.400324,-0.720576 z m 3.287438,-0.08029 c 0.08542,-0.440479 0.430938,-0.856611 0.767808,-0.92474 0.336869,-0.06813 0.390913,-0.01398 0.120096,0.120317 -1.154402,0.572508 -0.3202,1.08674 2.029624,1.251128 l 2.522017,0.176435 -2.797431,0.08886 c -2.380328,0.07561 -2.774277,-0.03055 -2.642114,-0.712002 z m -1.940993,-2.922115 c 0.05609,-1.132669 0.09511,-1.166926 0.273603,-0.240192 0.354115,1.838507 1.101733,1.191098 1.109486,-0.960769 0.005,-1.380884 0.145754,-1.823029 0.434979,-1.366174 0.408129,0.644666 0.260829,2.658706 -0.25556,3.494243 -0.588999,0.953015 -1.625164,0.33821 -1.562508,-0.927108 z m -65.878069,0.659299 c 0,-0.09975 0.378303,-0.478055 0.840673,-0.840673 0.761916,-0.597536 0.778907,-0.580544 0.181371,0.181374 -0.627559,0.8002 -1.022044,1.054674 -1.022044,0.659299 z m 51.494772,-1.499972 c 0.0098,-0.792634 0.117454,-1.058738 0.239251,-0.591338 0.121796,0.467399 0.113788,1.115918 -0.01782,1.441153 -0.131592,0.325234 -0.231243,-0.05718 -0.221453,-0.849815 z M 4.3357194,86.03065 C 4.3050704,84.79124 4.4509892,83.671493 4.659983,83.542327 4.8689769,83.413161 4.9646024,84.102969 4.8724841,85.075228 4.5910299,88.045829 4.3942149,88.396149 4.3357194,86.03065 Z M 90.941295,80.597975 c 4.8e-4,-3.963171 0.07508,-5.520543 0.165343,-3.460828 0.09026,2.05971 0.08972,5.302304 -0.0014,7.205764 -0.09094,1.903456 -0.164791,0.218234 -0.164118,-3.744936 z m -22.009211,3.294744 c -0.253004,-0.659318 -0.182709,-0.689034 0.428988,-0.181374 0.833582,0.691816 0.92034,0.969896 0.302585,0.969896 -0.235946,0 -0.565153,-0.354836 -0.731573,-0.788522 z M 60.364862,82.88593 c 1.38711,-0.09704 3.656926,-0.09704 5.044036,0 1.387109,0.09704 0.252201,0.176435 -2.522018,0.176435 -2.77422,0 -3.909127,-0.0794 -2.522018,-0.176435 z M 46.260078,76.274516 c 8.16e-4,-3.434748 0.07736,-4.776841 0.170035,-2.982423 0.09268,1.794413 0.09199,4.604661 -0.0015,6.244996 -0.09351,1.64033 -0.169339,0.172175 -0.168498,-3.262573 z m -35.254704,4.382277 c 0,-0.09975 0.378303,-0.478055 0.840673,-0.840673 0.761916,-0.597535 0.778908,-0.580544 0.181372,0.181374 -0.62756,0.8002 -1.022045,1.054674 -1.022045,0.659299 z M 5.9613392,78.436245 c 0.1632918,-0.264211 0.3922223,-0.480384 0.5087352,-0.480384 0.1165129,0 0.2118413,0.216173 0.2118413,0.480384 0,0.264212 -0.228931,0.480384 -0.5087351,0.480384 -0.2798042,0 -0.3751331,-0.216172 -0.2118414,-0.480384 z m 1.6813451,-1.149564 c 0,-0.10384 0.335487,-0.317534 0.7455267,-0.474884 0.427506,-0.164047 0.6203308,-0.08352 0.4520335,0.188796 -0.2821096,0.456466 -1.1975602,0.675156 -1.1975602,0.286088 z M 56.748299,62.041901 c -0.09633,-13.318948 -0.0294,-14.775463 0.706376,-15.372296 0.701827,-0.569294 0.751014,-0.560929 0.360288,0.06128 -0.248877,0.396317 -0.566743,7.313851 -0.706376,15.372298 L 56.854718,76.7549 Z M 8.8436451,74.593171 c 0.1632918,-0.264212 0.3922223,-0.480385 0.5087352,-0.480385 0.1165128,0 0.2118413,0.216173 0.2118413,0.480385 0,0.264211 -0.228931,0.480384 -0.5087352,0.480384 -0.2798041,0 -0.3751331,-0.216173 -0.2118413,-0.480384 z m 10.8086469,-0.960769 -1.681345,-0.353909 1.532898,-0.06324 c 0.843094,-0.03478 1.6665,0.152935 1.829792,0.417146 0.163292,0.264211 0.230093,0.451926 0.148447,0.417147 -0.08165,-0.03478 -0.905052,-0.2225 -1.829792,-0.417147 z m 50.920737,-0.260277 c 0,-0.573334 1.933076,-2.290232 2.236722,-1.986591 0.178929,0.178934 0.07312,0.325331 -0.235119,0.325331 -0.308248,0 -0.56045,0.432346 -0.56045,0.960768 0,0.53376 -0.320258,0.960769 -0.720577,0.960769 -0.396317,0 -0.720576,-0.117127 -0.720576,-0.260277 z M 15.681115,72.612023 c 0.325861,-0.328305 0.713486,-0.475903 0.86139,-0.327997 0.147905,0.147905 -0.118708,0.416517 -0.592473,0.596916 -0.684643,0.260695 -0.739822,0.205518 -0.268917,-0.268919 z m 29.93496,-6.791775 -1.109683,-1.55534 1.358524,1.306501 c 0.747188,0.718574 1.246546,1.418479 1.109683,1.555341 -0.136863,0.136861 -0.748198,-0.451062 -1.358524,-1.306502 z m -9.015741,-2.149225 c 1.262976,-0.09928 3.208532,-0.09808 4.323458,0.0029 1.114927,0.100746 0.08158,0.181979 -2.29632,0.180514 -2.377902,-0.0014 -3.290114,-0.08389 -2.027138,-0.183176 z M 71.755576,30.157622 c -1e-4,-12.417934 0.06199,-17.566927 0.137986,-11.442206 0.07599,6.124721 0.07607,16.284849 1.78e-4,22.578062 -0.0759,6.293214 -0.138067,1.282079 -0.138164,-11.135856 z M 49.424268,49.035039 c -0.127441,-1.24272 -0.05408,-2.081855 0.163033,-1.864744 0.21711,0.21711 0.321382,1.23388 0.231713,2.259491 l -0.163032,1.864746 z m -2.664351,-5.411263 c -0.427248,-0.652062 -0.702447,-1.38014 -0.611555,-1.61795 0.09089,-0.237809 0.516223,0.295696 0.945179,1.185568 0.917723,1.903825 0.7624,2.105126 -0.333624,0.432382 z M 59.83067,43.127998 c 1.110677,-1.896763 1.134673,-1.924981 1.134673,-1.334243 0,0.278976 -0.445177,1.017567 -0.98928,1.641313 l -0.989279,1.134083 z m 1.246122,-5.044035 c 0,-0.92474 0.09886,-1.303042 0.219694,-0.840672 0.120826,0.46237 0.120826,1.218975 0,1.681345 -0.120831,0.46237 -0.219694,0.08407 -0.219694,-0.840673 z M 46.084111,35.802138 c 0.0059,-0.198159 0.451233,-0.900721 0.989684,-1.561249 l 0.979002,-1.200961 -0.761828,1.561249 c -0.723937,1.483596 -1.230173,1.987359 -1.206858,1.200961 z M 60.27565,35.342471 c -0.260695,-0.684642 -0.205518,-0.739821 0.268919,-0.268916 0.328304,0.325861 0.475903,0.713486 0.327997,0.86139 -0.147906,0.147905 -0.416517,-0.118708 -0.596916,-0.592474 z"
         id="path13942" />
      <path
         style="fill:#a3a3a3;fill-opacity:1;stroke-width:0.480384"
         d="M 14.608257,98.757606 C 10.754954,97.765108 8.0355796,95.56282 6.1244797,91.887006 4.5185996,88.79825 4.5512145,83.414016 6.1943179,80.357782 c 0.6392076,-1.188951 1.1131418,-2.339928 1.0531869,-2.557724 -0.059955,-0.217797 0.097728,-0.268223 0.3504082,-0.112059 0.2526797,0.156163 0.7589049,-0.14364 1.1249443,-0.666236 0.3660394,-0.522595 1.8399977,-1.496877 3.2754627,-2.165073 3.273775,-1.523913 7.860879,-1.654631 10.825046,-0.308478 7.928723,3.600768 10.029516,14.252824 4.043879,20.504459 -2.028106,2.118231 -3.307126,3.079331 -4.097946,3.079331 -0.393297,0 -0.716061,0.16213 -0.717253,0.360288 -0.0025,0.417733 -6.019423,0.632191 -7.443789,0.265316 z m 1.681345,-5.417111 c 0,-1.099907 -0.32988,-1.599406 -1.433022,-2.169862 -5.0153035,-2.593513 -3.00081,-10.332466 2.6896,-10.332466 1.863938,0 2.453061,0.250871 3.835496,1.633306 1.358644,1.358647 1.633306,1.985972 1.633306,3.730473 0,2.861169 -1.323761,5.146703 -4.057884,7.006117 l -2.295693,1.561249 h 1.573334 c 2.350117,0 5.568375,-2.101802 6.742622,-4.403515 1.105687,-2.167326 1.286662,-5.155576 0.446094,-7.365901 -2.395953,-6.300312 -11.661522,-6.937388 -15.117933,-1.03947 -2.5834964,4.408405 -0.8009205,10.064373 3.822351,12.128008 2.025608,0.904146 2.161729,0.857049 2.161729,-0.747939 z m 13.546558,4.914567 c 2.298486,-0.08787 6.189598,-0.08828 8.646918,-9.61e-4 2.457319,0.08736 0.57674,0.159252 -4.179065,0.159757 -4.755804,4.8e-4 -6.766338,-0.07097 -4.467853,-0.158839 z m 49.596107,-0.648543 c -0.147964,-0.239409 0.284166,-0.435286 0.960288,-0.435286 1.471921,0 1.590826,0.27379 0.269025,0.619451 -0.528164,0.138115 -1.08135,0.05524 -1.229313,-0.184165 z M 46.652819,96.330561 c 0.371424,-0.44694 3.032716,-0.591848 10.408171,-0.566714 14.036575,0.04785 14.38447,0.804341 0.461751,1.004084 -9.055263,0.129916 -11.267386,0.04088 -10.869922,-0.43737 z m 46.099236,0.417117 c -0.447348,-0.281063 -0.171963,-0.495069 0.9174,-0.712943 0.856146,-0.171228 1.666218,-0.201737 1.800158,-0.0678 0.612269,0.612269 -1.856719,1.321594 -2.717558,0.780739 z m -2.538043,-0.657309 c -0.418861,-0.918394 -0.233813,-2.865964 0.291464,-3.067533 0.386152,-0.148179 0.537492,-0.582725 0.362113,-1.039753 -0.266387,-0.694184 -0.213358,-0.703494 0.457552,-0.08034 0.499816,0.464239 0.584171,0.814343 0.24711,1.025621 -0.770032,0.482685 -0.928031,2.438551 -0.232641,2.879899 0.443991,0.281798 0.381214,0.389495 -0.230152,0.394847 -0.46237,0.0038 -0.865321,-0.04669 -0.895446,-0.112741 z m -9.913201,-0.880516 c -1.564775,-0.592953 -1.335915,-0.804456 0.809587,-0.748199 1.039753,0.02729 1.850402,0.06072 1.801441,0.07435 -0.04896,0.01364 -0.41327,0.262982 -0.809587,0.554104 -0.449563,0.330241 -1.127101,0.375272 -1.801441,0.119741 z M 74.45403,94.489089 c 0.02306,-0.559624 0.13688,-0.673451 0.290229,-0.290234 0.138768,0.346775 0.121705,0.761107 -0.0379,0.920739 -0.159631,0.159626 -0.273165,-0.124103 -0.252307,-0.630505 z m 12.93245,-2.361891 c 0,-1.188951 0.216173,-2.161729 0.480384,-2.161729 0.264211,0 0.480384,0.972778 0.480384,2.161729 0,1.188951 -0.216173,2.161729 -0.480384,2.161729 -0.264211,0 -0.480384,-0.972778 -0.480384,-2.161729 z m 5.194155,1.833574 c 0.346775,-0.138769 0.761106,-0.121705 0.920738,0.0379 0.159627,0.159627 -0.124102,0.273166 -0.630504,0.252308 -0.559624,-0.02306 -0.673451,-0.136881 -0.290234,-0.290229 z m 2.972378,-0.117007 c 0,-0.244838 -0.378303,-0.544021 -0.840673,-0.664847 -0.653125,-0.170681 -0.673609,-0.232127 -0.09181,-0.275419 0.411871,-0.03065 1.168477,0.261661 1.681345,0.649576 0.843747,0.638176 0.852485,0.706751 0.09182,0.720576 -0.462369,0.0084 -0.840672,-0.185044 -0.840672,-0.429886 z M 68.651492,90.926237 c 0,-1.056845 0.08538,-1.921537 0.189732,-1.921537 0.104359,0 0.2722,0.864692 0.372985,1.921537 0.100785,1.056846 0.01542,1.921537 -0.189733,1.921537 -0.205143,0 -0.372984,-0.864691 -0.372984,-1.921537 z m 1.997385,0.480385 c 0,-0.660529 0.109037,-0.930745 0.242301,-0.600481 0.133263,0.330264 0.133263,0.870697 0,1.200961 -0.133264,0.330264 -0.242301,0.06005 -0.242301,-0.60048 z m 3.324768,-0.760607 c 0.02306,-0.559624 0.136881,-0.673451 0.290229,-0.290234 0.138769,0.346775 0.121706,0.761106 -0.0379,0.920738 -0.159632,0.159627 -0.273166,-0.124102 -0.252307,-0.630504 z m 3.451466,-0.06449 c 0.730212,-0.110421 1.811077,-0.107467 2.401921,0.0065 0.590844,0.114024 -0.0066,0.204365 -1.327662,0.200762 -1.321057,-0.0038 -1.804472,-0.0969 -1.074259,-0.207319 z m 4.587069,0.01657 c 0.346775,-0.138768 0.761107,-0.121705 0.920738,0.0379 0.159627,0.159627 -0.124102,0.273165 -0.630504,0.252307 -0.559624,-0.02306 -0.673451,-0.136881 -0.290234,-0.290229 z m 2.131706,-0.0029 c 0.462369,-0.120826 1.218975,-0.120826 1.681345,0 0.46237,0.120831 0.08407,0.219694 -0.840673,0.219694 -0.92474,0 -1.303042,-0.09886 -0.840672,-0.219694 z M 71.117194,87.803739 c -0.0233,-1.617459 0.105132,-2.163492 0.393165,-1.671886 0.237267,0.404954 0.252659,1.474525 0.03459,2.401921 -0.378759,1.610604 -0.394434,1.583842 -0.427734,-0.730035 z m 19.725627,0.960769 c 0.0098,-0.792634 0.117454,-1.058738 0.23925,-0.591339 0.121797,0.4674 0.113789,1.115918 -0.01782,1.441153 -0.131592,0.325235 -0.231243,-0.05718 -0.221452,-0.849814 z m -21.110465,0.0019 c -0.706357,-0.802203 -0.787652,-1.683266 -0.155318,-1.683266 0.244838,0 0.544021,-0.378303 0.664848,-0.840673 0.120831,-0.46237 0.24477,0.07806 0.275418,1.200961 0.06203,2.272492 0.05757,2.28 -0.784948,1.32306 z m 19.613587,-1.96357 c 0.02306,-0.559624 0.136881,-0.673451 0.290229,-0.290234 0.138769,0.346775 0.121706,0.761106 -0.0379,0.920738 -0.159632,0.159627 -0.273166,-0.124103 -0.252308,-0.630504 z M 2.8767663,85.84209 c 0.023051,-0.559624 0.1368809,-0.673451 0.2902322,-0.290234 0.1387689,0.346775 0.1217026,0.761107 -0.037925,0.920738 C 2.9694459,86.632221 2.8559077,86.348492 2.8767663,85.84209 Z M 68.171107,83.720473 c -0.432965,-0.279805 -0.492216,-0.468611 -0.148448,-0.47303 0.314671,-0.0038 0.705733,0.208818 0.869025,0.47303 0.368599,0.596411 0.202299,0.596411 -0.720577,0 z m -19.305444,-0.80854 c 0.346775,-0.138769 0.761106,-0.121705 0.920738,0.0379 0.159627,0.159627 -0.124102,0.273166 -0.630504,0.252308 -0.559624,-0.02306 -0.673451,-0.136881 -0.290234,-0.290229 z m 1.25621,-11.201068 c 0,-5.944756 0.06896,-8.376702 0.153242,-5.404324 0.08428,2.972378 0.08428,7.836269 0,10.808647 -0.08428,2.972378 -0.153242,0.540433 -0.153242,-5.404323 z m -34.79304,0.268544 c 0,-0.41191 0.216173,-0.748928 0.480385,-0.748928 0.264211,0 0.480384,0.203413 0.480384,0.452032 0,0.248618 -0.216173,0.585636 -0.480384,0.748928 -0.264212,0.163293 -0.480385,-0.04011 -0.480385,-0.452032 z M 71.7664,71.590769 c -0.14635,-0.594476 -0.199057,-4.863891 -0.117133,-9.48759 l 0.148953,-8.406726 0.107981,9.007206 c 0.06729,5.612561 0.289028,9.007206 0.588365,9.007206 0.264211,0 0.480384,0.216173 0.480384,0.480384 0,0.934929 -0.946313,0.464743 -1.20855,-0.60048 z M 16.500343,57.77972 c 0,-7.265813 0.06677,-10.238191 0.148377,-6.605284 0.08161,3.632906 0.08161,9.577662 0,13.210568 -0.08161,3.632906 -0.148377,0.660529 -0.148377,-6.605284 z m 29.611011,11.729385 c 0.02305,-0.559624 0.136881,-0.673451 0.290232,-0.290234 0.138769,0.346775 0.121703,0.761107 -0.03793,0.920738 -0.159628,0.159627 -0.273166,-0.124102 -0.252307,-0.630504 z M 22.177545,65.946253 c 0.108062,-0.396317 0.610909,-0.770805 1.117437,-0.832203 0.647099,-0.07843 0.706686,-0.02128 0.200385,0.192129 -0.396318,0.167064 -0.899164,0.541552 -1.117437,0.832199 -0.255254,0.339891 -0.326755,0.27134 -0.200385,-0.192125 z m 36.400869,-21.27901 c -0.0083,-0.210261 0.525439,-1.397492 1.185968,-2.638291 0.660528,-1.2408 1.199851,-1.93346 1.198501,-1.539245 -0.0024,0.737343 -2.357572,4.863324 -2.384469,4.177536 z M 46.847626,42.78314 c -1.103924,-2.546667 -0.958408,-3.347303 0.211611,-1.164299 0.542195,1.011617 0.890584,2.089281 0.774198,2.394807 -0.116386,0.305527 -0.56,-0.248202 -0.985809,-1.230508 z m -0.774197,-5.631595 c 0,-0.51283 0.184945,-1.04672 0.410989,-1.186423 0.226045,-0.139703 0.30893,0.279885 0.184191,0.932418 -0.270945,1.417355 -0.59518,1.555729 -0.59518,0.254005 z m 1.426835,-2.883902 c 0.274927,-0.513708 0.737302,-1.080756 1.027497,-1.260107 0.2902,-0.179351 0.156086,0.240955 -0.298023,0.934014 -0.961548,1.467507 -1.459462,1.690087 -0.729474,0.326093 z m 11.257708,-0.627235 -0.915127,-1.080864 1.080864,0.915126 c 1.015744,0.859993 1.299555,1.246603 0.915128,1.246603 -0.09116,0 -0.577547,-0.486389 -1.080865,-1.080865 z M 52.228353,31.51081 c 0.346775,-0.138769 0.761107,-0.121703 0.920738,0.03793 0.159627,0.159628 -0.124102,0.273167 -0.630504,0.252308 -0.559624,-0.02305 -0.673451,-0.136881 -0.290234,-0.290233 z m 1.891513,0.01001 c 0.330264,-0.133264 0.870697,-0.133264 1.200961,0 0.330264,0.133265 0.06005,0.242299 -0.60048,0.242299 -0.660529,0 -0.930745,-0.109034 -0.600481,-0.242299 z M 22.414502,5.5440536 c 1.38711,-0.097039 3.656925,-0.097039 5.044035,0 1.38711,0.097039 0.252202,0.1764341 -2.522018,0.1764341 -2.774219,0 -3.909127,-0.079395 -2.522017,-0.1764341 z m 56.701451,-5.765e-4 c 1.395968,-0.097346 3.557697,-0.096323 4.803843,0.00226 1.246146,0.098597 0.103993,0.1782432 -2.53812,0.1769923 -2.642114,-0.00125 -3.661691,-0.081921 -2.265723,-0.1792664 z"
         id="path13940" />
      <path
         style="fill:#8c8c8c;fill-opacity:1;stroke-width:0.480384"
         d="m 25.176712,97.651618 c -0.916745,-0.39394 -0.911242,-0.414404 0.120096,-0.446619 0.594475,-0.01857 1.080864,0.182407 1.080864,0.446619 0,0.264211 -0.05404,0.465189 -0.120096,0.446618 -0.06605,-0.01857 -0.552442,-0.219546 -1.080864,-0.446618 z M 72.37447,96.195496 c 0.922477,-0.37079 1.080865,-0.792855 1.080865,-2.880207 0,-1.508176 0.184155,-2.331939 0.480384,-2.14886 0.728037,0.449952 0.574516,4.057763 -0.205878,4.838157 -0.377448,0.377443 -1.08001,0.672562 -1.561249,0.655811 -0.711584,-0.02474 -0.673134,-0.111583 0.205878,-0.464901 z M 57.289802,95.850839 c -9.731272,-0.133691 -10.150587,-0.17839 -9.920682,-1.057547 0.22732,-0.869274 0.750682,-0.912879 9.868849,-0.82223 9.48172,0.09426 9.634852,0.112098 10.025294,1.167564 0.218075,0.589509 0.349422,1.02233 0.291886,0.961821 -0.05754,-0.06051 -4.676945,-0.172833 -10.265347,-0.249608 z m 35.029759,0.02671 c 0.467399,-0.121797 1.115918,-0.113789 1.441152,0.01782 0.325235,0.131592 -0.05718,0.231243 -0.849814,0.221452 -0.792634,-0.0098 -1.058738,-0.117454 -0.591338,-0.23925 z m 2.272683,-2.069006 c 0,-0.264211 0.228932,-0.480384 0.508737,-0.480384 0.279805,0 0.375132,0.216173 0.21184,0.480384 -0.163292,0.264211 -0.392224,0.480384 -0.508737,0.480384 -0.116512,0 -0.21184,-0.216173 -0.21184,-0.480384 z M 67.210339,92.166489 c 0,-0.638921 0.131212,-1.503613 0.291588,-1.921538 0.536801,-1.398879 1.149565,-0.779659 1.149565,1.161671 0,1.387777 -0.200162,1.921537 -0.720577,1.921537 -0.441857,0 -0.720576,-0.449332 -0.720576,-1.16167 z m 25.340272,0.843521 c 0.330264,-0.133264 0.870697,-0.133264 1.200961,0 0.330264,0.133263 0.06005,0.242301 -0.600481,0.242301 -0.660528,0 -0.930744,-0.109038 -0.60048,-0.242301 z M 29.740363,90.985055 c 0,-0.29656 0.200322,-0.539202 0.44516,-0.539202 0.244839,0 0.544021,-0.378303 0.664851,-0.840673 0.185352,-0.709268 0.228401,-0.718462 0.275416,-0.05882 0.03065,0.430016 -0.268534,1.050961 -0.664851,1.379875 -0.497853,0.413179 -0.720576,0.431361 -0.720576,0.05882 z m 40.944413,-0.538779 c -0.325489,-0.521198 -0.38438,-1.032889 -0.136497,-1.186088 0.239779,-0.148194 0.579349,0.182339 0.754603,0.734507 0.426139,1.34265 0.0912,1.587353 -0.618106,0.451581 z m -0.104392,-9.940045 c -0.0043,-3.71461 0.191428,-6.459598 0.473029,-6.633637 0.633786,-0.3917 0.633786,11.269086 0,12.2498 -0.3137,0.485419 -0.468072,-1.347382 -0.473029,-5.616163 z m 18.915809,-0.628833 c 0,-3.566853 0.07562,-5.026021 0.168053,-3.242594 0.09243,1.783427 0.09243,4.701761 0,6.485188 -0.09243,1.783427 -0.168053,0.32426 -0.168053,-3.242594 z m -58.719212,3.36269 c 0,-0.660528 0.109035,-0.930744 0.2423,-0.60048 0.133264,0.330264 0.133264,0.870696 0,1.200961 -0.133265,0.330264 -0.2423,0.06005 -0.2423,-0.600481 z m 29.587881,0.126226 c 1.38711,-0.09704 3.656926,-0.09704 5.044036,0 1.387109,0.09704 0.252201,0.176436 -2.522018,0.176436 -2.77422,0 -3.909127,-0.0794 -2.522018,-0.176436 z M 56.279146,82.639608 C 55.964931,82.246831 55.914356,76.14034 56.132931,64.985485 l 0.33416,-17.053643 0.207493,17.65432 c 0.11412,9.709873 0.179918,17.654229 0.146214,17.654123 -0.03368,-1.1e-4 -0.277441,-0.270413 -0.541652,-0.600677 z m -5.886293,-4.105004 0.236152,-4.181625 0.145681,3.797505 c 0.08013,2.088629 -0.02613,3.970362 -0.236152,4.181625 -0.21001,0.211264 -0.275568,-1.497617 -0.145681,-3.797505 z m -23.054412,-1.08748 c 0,-0.279804 0.216173,-0.375132 0.480384,-0.21184 0.264212,0.163293 0.480385,0.392225 0.480385,0.508737 0,0.116512 -0.216173,0.21184 -0.480385,0.21184 -0.264211,0 -0.480384,-0.228932 -0.480384,-0.508737 z m -1.65728,-1.763505 c -0.141609,-0.369026 -0.452519,-0.550415 -0.690912,-0.403081 -0.238392,0.147339 -0.557393,-0.05513 -0.708892,-0.449933 -0.390927,-1.018741 0.197379,-0.887154 1.812821,0.405464 0.967341,0.774034 1.158644,1.118512 0.621153,1.118512 -0.427184,0 -0.892561,-0.301936 -1.03417,-0.670962 z m -8.520863,-2.379372 c 0.346778,-0.138769 0.761109,-0.121706 0.920737,0.0379 0.159628,0.159627 -0.124099,0.273166 -0.630504,0.252308 -0.559621,-0.02306 -0.673451,-0.136881 -0.290233,-0.290229 z m -0.832771,-1.873605 c 0.02305,-0.559623 0.136881,-0.67345 0.290232,-0.290234 0.138769,0.346776 0.121703,0.761107 -0.03793,0.920739 -0.159628,0.159627 -0.273166,-0.124103 -0.252308,-0.630505 z m 30.314357,-2.225784 c -0.693966,-0.693963 -0.760234,-1.992682 -0.08023,-1.572417 0.268521,0.165953 0.375261,0.48451 0.237199,0.707899 -0.138061,0.223388 0.02054,0.503116 0.352452,0.621617 0.331911,0.118496 0.480976,0.349532 0.331256,0.513406 -0.149719,0.163873 -0.528022,0.04213 -0.840672,-0.270505 z m -1.307345,-2.807851 c -0.629856,-1.01913 -2.957575,-1.616344 -7.427643,-1.905675 l -4.563651,-0.295393 4.652474,-0.08561 c 5.085249,-0.09357 6.781692,0.311904 7.585019,1.812932 0.536271,1.002034 0.327993,1.402809 -0.246199,0.47375 z m 4.771505,-12.700554 c 9.61e-4,-3.698959 0.07615,-5.148667 0.167572,-3.221577 0.09142,1.92709 0.0908,4.953512 -0.0014,6.72538 -0.09208,1.771869 -0.16688,0.195156 -0.166131,-3.503803 z m 6.53584,-6.666559 c 0,-0.09976 0.378303,-0.478058 0.840672,-0.840673 0.761919,-0.597536 0.77891,-0.580545 0.181374,0.181372 -0.627559,0.800199 -1.022046,1.054673 -1.022046,0.659301 z M 49.124696,46.36575 c 0.174576,-0.282468 0.04583,-0.623062 -0.286064,-0.756875 -0.431934,-0.174139 -0.440843,-0.254077 -0.03137,-0.281222 0.826683,-0.0548 1.223798,0.795327 0.562443,1.204065 -0.335231,0.207186 -0.434219,0.14014 -0.245034,-0.165968 z M 16.50753,26.794932 c -1.42e-4,-10.040032 0.06357,-14.21559 0.141582,-9.279018 0.07801,4.936572 0.07813,13.151144 2.59e-4,18.254604 -0.07787,5.10346 -0.141699,1.064446 -0.141841,-8.975586 z m 42.057688,16.928312 c -9.61e-4,-0.201039 0.419111,-1.281904 0.933555,-2.401922 0.514443,-1.120019 1.028046,-2.57683 1.141345,-3.237359 0.113298,-0.660528 0.156125,-0.336269 0.09517,0.720577 -0.06096,1.056845 -0.573756,2.678142 -1.139553,3.602882 -0.565801,0.92474 -1.029535,1.51686 -1.03052,1.315822 z M 46.823669,41.201121 c -1.259805,-2.654842 0.212899,-7.147915 2.775483,-8.467717 0.793494,-0.408672 0.682732,-0.152697 -0.47033,1.086941 -1.936195,2.081578 -2.17191,2.96263 -1.654756,6.185155 0.233204,1.453163 0.366022,2.703887 0.295149,2.779387 -0.07087,0.0755 -0.496369,-0.637194 -0.945546,-1.583766 z m 11.469339,-7.560713 -1.410932,-1.561249 1.561249,1.410933 c 1.455305,1.315187 1.782058,1.711565 1.410932,1.711565 -0.08267,0 -0.785236,-0.702562 -1.561249,-1.561249 z M 21.934118,4.1029021 c 1.387109,-0.097039 3.656925,-0.097039 5.044035,0 1.387109,0.097039 0.252202,0.1764342 -2.522018,0.1764342 -2.774219,0 -3.909127,-0.079395 -2.522017,-0.1764342 z m 57.662219,-5.572e-4 c 1.395968,-0.097346 3.557697,-0.096323 4.803843,0.00227 1.246146,0.098598 0.103994,0.1782442 -2.53812,0.1769934 -2.642114,-0.00125 -3.661691,-0.081921 -2.265723,-0.1792669 z"
         id="path13938" />
      <path
         style="fill:#767676;fill-opacity:1;stroke-width:0.480384"
         d="m 42.590643,97.813853 c 0.330264,-0.133263 0.870696,-0.133263 1.200961,0 0.330264,0.133263 0.06005,0.242301 -0.600481,0.242301 -0.660528,0 -0.930744,-0.109038 -0.60048,-0.242301 z M 68.447141,96.260958 C 67.938428,96.061656 67.37707,95.48482 67.199674,94.979096 66.899098,94.12222 66.258741,94.05265 57.796339,93.957539 c -4.994441,-0.05614 -9.351012,-0.112626 -9.681277,-0.125534 -0.377203,-0.01474 -0.60048,-0.743553 -0.60048,-1.960074 0,-1.118137 0.253783,-2.024498 0.60048,-2.14455 0.330265,-0.114361 5.047912,-0.269707 10.483667,-0.345209 8.191869,-0.113789 9.77438,-0.02863 9.247398,0.497514 -0.349686,0.349134 -0.635788,1.285048 -0.635788,2.0798 0,1.368505 0.07948,1.427553 1.501253,1.11528 1.043741,-0.229245 1.401094,-0.167678 1.172609,0.202025 -0.180754,0.292463 -0.802275,0.535062 -1.381158,0.539107 -0.597281,0.0043 -0.829585,0.160006 -0.537089,0.360288 0.283485,0.194114 0.66026,0.744937 0.837281,1.224053 0.177022,0.479116 0.537843,0.737635 0.801829,0.574482 0.263986,-0.163153 0.859984,-0.07534 1.324448,0.195137 0.735613,0.428378 0.689659,0.489305 -0.356483,0.472621 -0.660529,-0.01052 -1.61718,-0.182224 -2.125888,-0.381521 z m 3.567041,-0.239289 c 0,-0.10384 0.335486,-0.317534 0.745527,-0.474884 0.427504,-0.164047 0.62033,-0.08352 0.452032,0.188796 -0.28211,0.456466 -1.197559,0.675156 -1.197559,0.286088 z m 21.857486,-2.213126 c -0.163292,-0.264211 -0.06797,-0.480384 0.21184,-0.480384 0.279804,0 0.508736,0.216173 0.508736,0.480384 0,0.264211 -0.09533,0.480384 -0.21184,0.480384 -0.116512,0 -0.345444,-0.216173 -0.508736,-0.480384 z m -2.642114,-0.480384 c 0,-0.264212 0.203414,-0.480385 0.452032,-0.480385 0.248618,0 0.585637,0.216173 0.748929,0.480385 0.163292,0.264211 -0.04011,0.480384 -0.452032,0.480384 -0.41191,0 -0.748929,-0.216173 -0.748929,-0.480384 z M 70.168492,90.926237 c 0,-0.660528 0.109038,-0.930744 0.242301,-0.60048 0.133264,0.330264 0.133264,0.870696 0,1.200961 -0.133263,0.330264 -0.242301,0.06005 -0.242301,-0.600481 z m -39.659624,-0.07907 c 0.109037,-0.17559 0.03477,-0.410378 -0.165032,-0.521746 -0.199805,-0.111372 -0.09306,-0.136621 0.237199,-0.05611 0.330264,0.08051 0.60048,-0.171093 0.60048,-0.559114 0,-0.388026 -0.216172,-0.705502 -0.480384,-0.705502 -0.264211,0 -0.480384,-0.216173 -0.480384,-0.480384 0,-0.900596 0.990445,-0.483579 1.426183,0.60048 0.23895,0.594476 0.448157,0.810649 0.464904,0.480384 0.01675,-0.330264 0.311612,-0.60048 0.655255,-0.60048 0.343643,0 1.200717,-0.270216 1.904611,-0.60048 1.019283,-0.478242 1.256538,-0.893847 1.165499,-2.041634 -0.09011,-1.136133 -0.42459,-1.542826 -1.580327,-1.921537 -0.806311,-0.264211 -1.843562,-0.858687 -2.305002,-1.321057 -0.798598,-0.80021 -0.778709,-0.840672 0.413195,-0.840672 1.821601,0 3.500197,-1.267086 3.500197,-2.642114 0,-1.682729 -1.765477,-2.642114 -4.862064,-2.642114 -2.440721,0 -2.596081,0.06869 -2.343151,1.035887 0.174146,0.665937 0.08758,0.922597 -0.242379,0.718669 -0.282299,-0.174471 -0.4522,-0.69466 -0.377557,-1.155982 0.07464,-0.461323 -0.04532,-1.068197 -0.266584,-1.348617 -0.277453,-0.351632 0.463175,-0.447247 2.386592,-0.308123 3.63741,0.263106 5.665112,-0.689717 5.665112,-2.66205 0,-1.001534 -0.33138,-1.532815 -1.216669,-1.950605 -1.478957,-0.697955 -8.23089,-0.774894 -8.23089,-0.09379 0,0.264211 -0.324259,0.480384 -0.720576,0.480384 -0.627135,0 -0.961279,0.87747 -0.777464,2.041633 0.03129,0.198159 -0.172044,0.360288 -0.451848,0.360288 -0.279804,0 -0.375133,0.216173 -0.211841,0.480385 0.163292,0.264211 0.08358,0.480384 -0.177132,0.480384 -0.726138,0 -0.05251,-5.390853 0.795367,-6.365092 0.641205,-0.736765 1.70601,-0.840673 8.615102,-0.840673 4.515614,0 8.280421,0.212446 8.812656,0.497285 0.875122,0.46835 0.929187,1.107814 0.929187,10.99002 0,7.808854 -0.153594,10.619861 -0.60048,10.989752 -0.651033,0.538862 -12.408006,1.027682 -12.081775,0.502325 z m 10.280334,-2.266828 c 0,-0.233395 0.420098,-0.534216 0.933551,-0.668484 1.251318,-0.327228 1.021849,-2.539777 -0.364086,-3.510523 -0.915515,-0.641251 -1.153225,-0.63528 -2.207442,0.05547 -1.423684,0.932834 -1.444275,2.732973 -0.04337,3.791428 1.098826,0.830219 1.681345,0.945281 1.681346,0.332109 z m 0,-6.781408 c 0,-0.264211 0.270216,-0.426341 0.60048,-0.360288 0.387293,0.07746 0.637887,-0.562102 0.705844,-1.801441 0.07385,-1.346887 -0.0098,-1.641906 -0.279582,-0.986493 -0.359158,0.872402 -0.408608,0.856314 -0.738175,-0.240192 -0.233957,-0.778406 -0.44305,-0.954125 -0.619241,-0.520401 -0.224587,0.55286 -0.331769,0.55286 -0.688258,0 -0.321104,-0.497981 -0.499109,-0.373326 -0.743132,0.520401 -0.298644,1.093772 -0.347569,1.110422 -0.705832,0.240192 -0.269825,-0.655413 -0.353435,-0.360394 -0.279582,0.986493 0.06796,1.239339 0.318552,1.878898 0.705844,1.801441 0.330265,-0.06605 0.600481,0.09608 0.600481,0.360288 0,0.264212 0.324259,0.480385 0.720576,0.480385 0.396317,0 0.720577,-0.216173 0.720577,-0.480385 z m 1.407389,-9.062454 c -0.02549,-1.31841 -0.123406,-1.517126 -0.399678,-0.811149 -0.349259,0.892482 -0.378474,0.887016 -0.64184,-0.120096 -0.350128,-1.338893 -1.81324,-1.37533 -2.158837,-0.05376 -0.199095,0.761342 -0.359279,0.847705 -0.668247,0.360288 -0.272123,-0.429286 -0.408811,-0.144649 -0.413737,0.861569 -0.01026,2.094711 1.665148,3.246317 3.230604,2.220591 0.811792,-0.531905 1.076985,-1.151548 1.051735,-2.457439 z m 31.29667,17.429149 c 0.02306,-0.559623 0.136881,-0.67345 0.290229,-0.290233 0.138769,0.346775 0.121705,0.761106 -0.0379,0.920738 -0.159632,0.159627 -0.273166,-0.124103 -0.252308,-0.630505 z m 5.145031,-1.036707 c 1.661674,-0.09407 4.255749,-0.0933 5.764612,0.0019 1.508858,0.09503 0.149308,0.171992 -3.021228,0.171046 -3.170537,-9.61e-4 -4.405062,-0.0787 -2.743384,-0.17277 z m -7.971612,-1.32518 c 0.0098,-0.792634 0.117454,-1.058738 0.23925,-0.591338 0.121797,0.467399 0.113789,1.115918 -0.01782,1.441152 -0.131592,0.325235 -0.231243,-0.05718 -0.221452,-0.849814 z M 88.556052,75.073555 c 0,-6.73739 0.06757,-9.493595 0.150144,-6.1249 0.08258,3.368695 0.08258,8.881105 0,12.2498 -0.08258,3.368695 -0.150144,0.61249 -0.150144,-6.1249 z M 69.131876,86.122394 c 0,-0.264211 0.216173,-0.480384 0.480384,-0.480384 0.264212,0 0.480385,0.216173 0.480385,0.480384 0,0.264212 -0.216173,0.480384 -0.480385,0.480384 -0.264211,0 -0.480384,-0.216172 -0.480384,-0.480384 z M 30.220747,84.492445 c 0,-0.10384 0.324259,-0.313225 0.720576,-0.465309 0.396317,-0.152081 0.720577,-0.06712 0.720577,0.188795 0,0.25592 -0.32426,0.46531 -0.720577,0.46531 -0.396317,0 -0.720576,-0.08496 -0.720576,-0.188796 z m 19.215372,-1.394589 1.200961,-0.60845 -0.08622,-17.518972 c -0.05294,-10.756122 0.0678,-16.499039 0.312778,-14.876863 0.219454,1.453162 0.420384,9.389914 0.446512,17.637223 0.04549,14.359499 0.0081,15.016185 -0.881678,15.492394 -0.511052,0.273507 -1.213614,0.4941 -1.561249,0.490204 -0.347635,-0.0038 -0.09163,-0.280886 0.5689,-0.615536 z m 6.506705,-0.02282 c -0.83951,-0.613869 -0.866003,-1.489278 -0.541494,-17.894316 0.216821,-10.961164 0.5248,-17.42399 0.844866,-17.72926 0.346199,-0.330191 0.423435,-0.179997 0.247033,0.480384 -0.141156,0.528423 -0.327579,8.520063 -0.414283,17.759198 l -0.157639,16.798429 1.200961,0.608422 c 0.716565,0.363021 0.898919,0.611274 0.452104,0.615502 -0.411872,0.0038 -1.146067,-0.28337 -1.631548,-0.638359 z M 44.821815,76.7549 c 7.69e-4,-3.698959 0.07616,-5.148668 0.167574,-3.221577 0.09142,1.92709 0.0908,4.953511 -0.0013,6.72538 -0.09218,1.771869 -0.166978,0.195156 -0.166229,-3.503803 z m -15.081452,5.284228 c 0,-0.396318 0.216172,-0.720577 0.480384,-0.720577 0.264211,0 0.480384,0.324259 0.480384,0.720577 0,0.396317 -0.216173,0.720576 -0.480384,0.720576 -0.264212,0 -0.480384,-0.324259 -0.480384,-0.720576 z M 46.583408,75.79196 c 0.03203,-3.769633 0.238627,-6.37395 0.493151,-6.216644 0.62169,0.384226 0.568229,12.704004 -0.05513,12.704004 -0.315655,0 -0.473309,-2.334942 -0.438023,-6.48736 z m -20.205736,0.694396 c 0,-0.279805 0.216173,-0.375132 0.480385,-0.21184 0.264211,0.163292 0.480384,0.392224 0.480384,0.508736 0,0.116513 -0.216173,0.21184 -0.480384,0.21184 -0.264212,0 -0.480385,-0.228932 -0.480385,-0.508736 z M 25.256776,76.19445 c -0.176141,-0.176138 -0.320257,-0.543632 -0.320257,-0.816653 0,-0.301009 0.22375,-0.272647 0.568455,0.07206 0.312651,0.312654 0.456766,0.680148 0.320256,0.816654 -0.136509,0.136511 -0.392314,0.104085 -0.568454,-0.07206 z m 46.757406,-2.293503 c 0,-0.380724 0.196011,-0.813368 0.435583,-0.961432 0.239573,-0.148064 0.322444,0.163436 0.184165,0.692224 -0.293327,1.121693 -0.619748,1.263483 -0.619748,0.269208 z m -49.79846,-3.631235 c 0,-1.981585 0.0848,-2.792234 0.188436,-1.801441 0.103641,0.990792 0.103641,2.612089 0,3.602882 -0.10364,0.990793 -0.188436,0.180144 -0.188436,-1.801441 z m -5.2643,-30.833246 C 16.983738,21.025019 17.157114,6.3252589 17.336703,6.770333 17.780249,7.8695758 17.71235,58.85959 17.256944,66.66683 17.042846,70.337216 16.916889,59.111014 16.951422,39.436466 Z m 27.747731,26.974189 c -0.623746,-0.519632 -0.927466,-0.944786 -0.674934,-0.944786 0.252532,0 0.850418,0.432346 1.328634,0.960768 1.098581,1.213917 0.81428,1.206966 -0.6537,-0.016 z M 26.257576,65.118359 c 0.858687,-0.106559 2.263811,-0.106559 3.122498,0 0.858687,0.106563 0.156125,0.193753 -1.561249,0.193753 -1.717374,0 -2.419936,-0.08719 -1.561249,-0.193753 z m 5.615945,-13.583635 c 0,-7.530024 0.06641,-10.610489 0.147571,-6.845477 0.08116,3.765012 0.08116,9.925941 0,13.690953 -0.08117,3.765012 -0.147571,0.684548 -0.147571,-6.845476 z m 1.228524,13.090472 c -5.77e-4,-0.198158 1.458613,-0.300629 3.242594,-0.227716 5.699854,0.232957 6.261511,0.432019 1.442161,0.511124 -2.576061,0.04227 -4.684201,-0.08525 -4.684755,-0.283408 z M 88.559285,48.89261 c 2.26e-4,-7.66213 0.06655,-10.72937 0.147392,-6.816089 0.08084,3.913281 0.08065,10.182296 -4.14e-4,13.931143 -0.08107,3.748852 -0.147208,0.547076 -0.146978,-7.115054 z M 49.195927,46.250496 c -0.163292,-0.264211 -0.122008,-0.483694 0.09174,-0.48774 0.213752,-0.004 0.06438,-0.236676 -0.331936,-0.516956 -0.563299,-0.398372 -0.572461,-0.469722 -0.04199,-0.326891 0.37323,0.10049 0.732404,0.549293 0.798164,0.99734 0.134517,0.91642 -0.07308,1.050892 -0.515986,0.334247 z m 7.778287,-0.44649 c 0.133503,-0.510511 0.550688,-1.046377 0.927084,-1.190813 0.541028,-0.207612 0.580876,-0.06926 0.19027,0.660592 -0.696317,1.30108 -1.407146,1.638392 -1.117354,0.530221 z m -8.941323,-2.235655 c 0.02305,-0.55962 0.136881,-0.673451 0.290233,-0.290232 0.138769,0.346777 0.121702,0.761108 -0.03793,0.920736 -0.159628,0.159628 -0.273166,-0.124099 -0.252307,-0.630504 z m 10.549673,-1.144868 c -0.01052,-0.387484 0.330904,-1.621103 0.758739,-2.741375 1.036107,-2.713004 0.584171,-4.183736 -1.820988,-5.926024 -2.390143,-1.731411 -4.708156,-1.871202 -7.123427,-0.429588 l -1.681345,1.003553 1.09421,-1.125445 c 0.909535,-0.935504 1.584221,-1.125445 3.997642,-1.125445 2.792633,0 2.975453,0.07721 4.790498,2.023032 1.420055,1.522372 1.887065,2.422506 1.887065,3.6372 0,1.547205 -1.862992,6.134283 -1.902394,4.684092 z M 47.822278,42.036262 c -0.6098,-0.986678 -0.575904,-6.274453 0.04421,-6.896465 0.469322,-0.470759 0.497065,-0.262553 0.133793,1.0041 -0.348973,1.216799 -0.282367,1.896655 0.279208,2.849903 0.523859,0.889227 0.612389,1.588805 0.305606,2.414888 -0.263718,0.710114 -0.560766,0.954497 -0.762817,0.627574 z M 31.8755,21.510705 c -2.03e-4,-8.190553 0.0653,-11.6087678 0.145558,-7.596033 0.08026,4.012735 0.08043,10.714096 3.7e-4,14.891913 -0.08006,4.177818 -0.145725,0.894672 -0.145928,-7.29588 z M 88.559285,21.03032 c 2.26e-4,-7.662129 0.06655,-10.72937 0.147392,-6.816089 0.08084,3.913281 0.08065,10.182296 -4.14e-4,13.931145 -0.08107,3.748849 -0.147208,0.547074 -0.146978,-7.115056 z M 87.83011,6.738887 C 87.570741,5.8913945 87.525762,4.916601 87.75669,5.1475242 c 0.350565,0.3505672 0.595369,1.7114589 0.307864,1.7114589 -0.10873,0 -0.214228,-0.054043 -0.234442,-0.1200961 z M 30.103644,5.5790673 C 30.435554,5.4452544 30.564284,5.1046605 30.389709,4.8221926 30.200523,4.516084 30.29951,4.449038 30.634743,4.6562241 31.296096,5.064962 30.898984,5.9150885 30.0723,5.8602896 29.662801,5.8331431 29.67171,5.7532062 30.103645,5.5790673 Z"
         id="path13936" />
      <path
         style="fill:#606060;fill-opacity:1;stroke-width:0.480384"
         d="m 44.392084,97.115105 c 0.528423,-0.259316 1.447158,-1.160378 2.041633,-2.002357 0.594476,-0.841979 1.080865,-1.247068 1.080865,-0.900202 0,0.839505 -2.638315,3.447747 -3.445834,3.406559 -0.350588,-0.01788 -0.205087,-0.244684 0.323336,-0.504 z m 24.354038,-1.865409 c -0.145609,-0.396317 -0.462518,-0.853705 -0.704243,-1.016421 -0.241724,-0.162711 0.120812,-0.402951 0.805633,-0.533861 1.255403,-0.239985 1.759269,0.32583 0.644652,0.723906 -0.807425,0.288365 -0.385143,0.681266 1.144977,1.0653 1.176231,0.295215 1.277837,0.190833 1.477292,-1.517621 0.1178,-1.009056 0.129055,-5.619732 0.02503,-10.245948 -0.104041,-4.626217 -0.01268,-8.878064 0.203068,-9.448554 0.235288,-0.622194 0.413669,1.791554 0.445797,6.032157 0.03094,4.081806 0.275193,7.483527 0.577998,8.049324 0.288437,0.538957 0.343643,1.175169 0.122671,1.4138 -0.647788,0.699574 -1.161804,5.157684 -0.551164,4.78029 0.284633,-0.175912 0.517513,-0.09852 0.517513,0.171991 0,1.37635 -4.223452,1.847765 -4.709212,0.525637 z M 29.62913,91.806085 c 0.279152,-0.279151 0.791106,-0.41303 1.137675,-0.297507 0.359781,0.119928 0.142027,0.337682 -0.507551,0.50755 -0.799045,0.208953 -0.986602,0.146436 -0.630124,-0.210043 z m 7.048286,-0.758863 c 3.159077,-0.09338 5.55454,-0.38804 6.004803,-0.738649 0.659092,-0.513213 0.669881,-0.482291 0.08979,0.257376 -0.566894,0.722844 -1.408514,0.826371 -6.004804,0.738649 l -5.345502,-0.102025 z m -4.696591,-1.961717 c 0.0888,-0.351871 0.161459,-0.730174 0.161459,-0.840672 0,-0.110493 0.419588,-0.200902 0.932418,-0.200902 0.51283,0 1.073613,-0.228461 1.246185,-0.507689 0.511202,-0.82714 -0.214075,-2.855001 -1.021108,-2.855001 -0.915276,0 -2.35463,-1.364916 -1.90914,-1.810405 0.177925,-0.177925 0.509639,-0.02234 0.737142,0.345786 0.227503,0.368108 1.129472,0.902277 2.004376,1.187048 1.285191,0.418314 1.612691,0.794575 1.705042,1.958916 0.09104,1.147787 -0.146216,1.563392 -1.165499,2.041634 -0.703894,0.330264 -1.542954,0.60048 -1.864579,0.60048 -0.321625,0 -0.675444,0.16213 -0.786265,0.360288 -0.11082,0.198159 -0.128834,0.07239 -0.04003,-0.279483 z m 15.533001,0.279483 c 4.16e-4,-0.198158 4.389067,-0.360288 9.752557,-0.360288 6.867916,0 9.919912,-0.168111 10.320255,-0.568453 0.312653,-0.312654 0.716176,-0.42074 0.896719,-0.240192 0.180543,0.180543 0.166693,0.49039 -0.03079,0.688549 -0.474701,0.476354 -20.939729,0.945872 -20.938753,0.480384 z M 43.191123,79.173722 c 0,-9.702889 -0.05483,-10.340705 -0.929187,-10.808647 -0.532235,-0.284839 -4.297042,-0.497285 -8.812656,-0.497285 -8.965862,0 -9.46742,0.192601 -9.480885,3.640708 -0.004,1.03604 -0.214699,2.207971 -0.468118,2.604288 -0.582344,0.910718 -0.06126,-4.194994 0.549897,-5.388009 0.702444,-1.371209 3.966605,-1.899959 10.702614,-1.733674 5.060209,0.12492 6.582868,0.326282 7.621173,1.007856 l 1.297547,0.851751 v 10.317185 c 0,5.674453 -0.108087,10.317189 -0.240193,10.317189 -0.132105,0 -0.240192,-4.640113 -0.240192,-10.311362 z m -4.083266,9.074512 c -1.400907,-1.058455 -1.380316,-2.858594 0.04337,-3.791428 1.054217,-0.69075 1.291926,-0.696721 2.207442,-0.05547 1.385934,0.970746 1.615403,3.183295 0.364085,3.510523 -0.513453,0.134268 -0.933551,0.435089 -0.933551,0.668484 0,0.613172 -0.58252,0.49811 -1.681345,-0.332109 z M 30.76994,88.088583 c -0.483254,-0.300245 -0.506041,-0.495002 -0.08814,-0.753286 0.659184,-0.407394 1.154054,-0.04674 0.91004,0.663214 -0.09993,0.290757 -0.439074,0.327925 -0.821904,0.09007 z m 43.376053,-13.25522 c -2.6e-4,-7.133707 0.06659,-10.119007 0.148563,-6.634007 0.08197,3.485006 0.08218,9.321675 4.66e-4,12.970377 -0.08171,3.648706 -0.148775,0.797337 -0.149029,-6.33637 z M 30.527412,85.401818 c -0.168435,-0.438932 -7.6e-4,-0.720577 0.428988,-0.720577 0.388025,0 0.7055,0.32426 0.7055,0.720577 0,0.396317 -0.193045,0.720576 -0.428989,0.720576 -0.235943,0 -0.553418,-0.324259 -0.705499,-0.720576 z m 37.74485,-0.528836 c -0.340679,-0.36967 -0.407481,-0.672125 -0.148444,-0.672125 0.498851,0 1.221003,0.913792 0.936068,1.184469 -0.09251,0.08788 -0.44694,-0.142674 -0.787624,-0.512344 z M 44.670201,83.920634 c 0.02305,-0.559623 0.136881,-0.67345 0.290232,-0.290233 0.138769,0.346775 0.121703,0.761106 -0.03793,0.920738 -0.159628,0.159627 -0.273166,-0.124103 -0.252307,-0.630505 z m 3.204669,-0.03795 c 0.330264,-0.133263 0.870697,-0.133263 1.200961,0 0.330264,0.133263 0.06005,0.242301 -0.60048,0.242301 -0.660529,0 -0.930745,-0.109038 -0.600481,-0.242301 z m 11.786955,-0.03737 c 1.528861,-0.09562 3.906763,-0.09473 5.284227,0.0019 1.377464,0.09671 0.126576,0.174941 -2.779749,0.173855 -2.906325,-9.6e-4 -4.03334,-0.0802 -2.504478,-0.175825 z m -9.144841,-0.643701 c 0.763734,-0.444835 0.848868,-1.663498 0.930235,-13.316056 0.08697,-12.454976 0.0974,-12.582965 0.360289,-4.419684 0.148899,4.623699 0.411814,8.622898 0.584257,8.88711 0.172439,0.264211 0.383991,2.175713 0.470114,4.247779 0.149107,3.587495 0.09973,3.798869 -1.034109,4.426534 -1.363869,0.755001 -2.587047,0.917674 -1.310786,0.174317 z m 4.288693,-0.360778 c -1.062269,-0.81723 -1.100354,-1.052104 -0.796299,-4.910829 0.175628,-2.228902 0.38229,-4.161728 0.459242,-4.295169 0.07695,-0.133441 0.295355,-5.971206 0.485342,-12.972807 0.189983,-7.001602 0.537526,-12.966245 0.772314,-13.254768 0.234788,-0.288522 0.315454,-0.63602 0.179256,-0.772218 -0.136199,-0.136198 0.08185,-0.52108 0.484549,-0.855293 0.500714,-0.415556 0.732187,-0.437197 0.732187,-0.06846 0,0.296562 -0.252202,0.539204 -0.56045,0.539204 -0.308243,0 -0.418208,0.14224 -0.244357,0.316089 0.173846,0.173849 0.117036,0.55593 -0.126245,0.849069 -0.243286,0.29314 -0.597305,8.291193 -0.786711,17.773461 -0.327564,16.398903 -0.301287,17.271982 0.538319,17.885918 0.485481,0.35499 0.679244,0.640631 0.430587,0.634756 -0.248656,-0.0059 -0.954134,-0.396903 -1.567734,-0.868958 z m -8.251864,-0.08113 c 0,-0.264211 0.216173,-0.480384 0.480385,-0.480384 0.264211,0 0.480384,0.216173 0.480384,0.480384 0,0.264211 -0.216173,0.480384 -0.480384,0.480384 -0.264212,0 -0.480385,-0.216173 -0.480385,-0.480384 z M 30.701131,81.901118 c 0,-0.208011 0.699037,-0.431467 1.553415,-0.496569 1.975168,-0.150504 2.417754,-0.609329 2.039914,-2.114767 -0.298288,-1.18847 -1.587622,-1.573258 -6.560461,-1.957887 -0.442972,-0.03425 -0.694578,-0.241619 -0.559125,-0.460785 0.135454,-0.219171 -0.0251,-0.725477 -0.356777,-1.125127 -0.331681,-0.399651 -0.404335,-0.688843 -0.161452,-0.642644 0.242882,0.04621 2.015642,0.05839 3.939467,0.02709 3.789635,-0.06163 4.317403,-0.441579 3.750557,-2.700077 -0.287725,-1.146375 -0.462062,-1.199875 -3.909959,-1.199875 -2.471306,0 -3.665237,0.189271 -3.787837,0.60048 -0.09847,0.330264 -0.342175,1.032826 -0.541573,1.561249 -0.199398,0.528423 -0.322867,1.138967 -0.274375,1.356764 0.04849,0.217796 -0.136888,0.256904 -0.411955,0.0869 -0.275067,-0.169998 -0.375752,-0.510326 -0.223744,-0.756283 0.152009,-0.245952 0.06769,-0.44719 -0.187382,-0.44719 -0.255069,0 -0.350701,-0.432346 -0.212515,-0.960769 0.138185,-0.528422 0.550293,-0.960768 0.915795,-0.960768 0.365501,0 0.664548,-0.216173 0.664548,-0.480384 0,-0.681104 6.751933,-0.604165 8.23089,0.09379 0.885289,0.41779 1.216669,0.949071 1.216669,1.950605 0,1.972333 -2.027702,2.925156 -5.665112,2.66205 -2.261299,-0.163566 -2.689986,-0.08256 -2.266078,0.428219 0.313457,0.377693 1.564024,0.629947 3.123004,0.629947 1.527211,0 3.064024,0.303911 3.724206,0.736482 1.472291,0.964679 1.472291,2.846585 0,3.811264 -1.167697,0.765108 -4.04012,1.019832 -4.04012,0.35828 z m 8.646918,-0.102183 c 0,-0.264211 -0.270216,-0.426341 -0.600481,-0.360288 -0.387292,0.07746 -0.637887,-0.562102 -0.705844,-1.801441 -0.07385,-1.346887 0.0098,-1.641906 0.279582,-0.986493 0.358263,0.87023 0.407188,0.85358 0.705832,-0.240192 0.244023,-0.893727 0.422028,-1.018382 0.743132,-0.520401 0.356489,0.55286 0.463671,0.55286 0.688258,0 0.176191,-0.433724 0.385284,-0.258005 0.619241,0.520401 0.329567,1.096506 0.379017,1.112594 0.738175,0.240192 0.269825,-0.655413 0.353436,-0.360394 0.279582,0.986493 -0.06796,1.239339 -0.318551,1.878898 -0.705844,1.801441 -0.330264,-0.06605 -0.60048,0.09608 -0.60048,0.360288 0,0.264212 -0.32426,0.480385 -0.720577,0.480385 -0.396317,0 -0.720576,-0.216173 -0.720576,-0.480385 z m -10.966809,-2.347234 -1.11893,-1.736032 1.296345,1.269199 c 0.712989,0.698056 1.216508,1.479272 1.11893,1.736032 -0.09758,0.256756 -0.680933,-0.314383 -1.296345,-1.269199 z m 10.601887,-4.261124 c -0.736883,-0.489277 -1.073912,-1.188399 -1.068875,-2.217248 0.0049,-1.006218 0.141614,-1.290855 0.413737,-0.861569 0.308968,0.487417 0.469152,0.401054 0.668247,-0.360288 0.345597,-1.321566 1.808709,-1.285129 2.158837,0.05376 0.263366,1.007112 0.292581,1.012578 0.64184,0.120096 0.276272,-0.705977 0.374185,-0.507261 0.399678,0.811149 0.02525,1.305891 -0.239943,1.925534 -1.051735,2.457439 -0.958956,0.628328 -1.210961,0.627939 -2.161729,-0.0034 z m 5.7428,-6.121826 c 0.0098,-0.792634 0.117453,-1.058738 0.239251,-0.591339 0.121798,0.4674 0.113788,1.115919 -0.0178,1.441153 -0.13159,0.325235 -0.231244,-0.05718 -0.221453,-0.849814 z M 33.103053,65.465869 c 0,-0.625134 9.120745,-0.625134 10.08807,0 0.488901,0.315953 -1.016991,0.468038 -4.683747,0.473029 -3.28753,0.0045 -5.404323,-0.180807 -5.404323,-0.473029 z m 41.045116,-17.77422 c 0,-7.794235 0.06606,-10.982786 0.14681,-7.085668 0.08074,3.897118 0.08074,10.274219 0,14.171337 -0.08075,3.897118 -0.14681,0.708567 -0.14681,-7.085669 z m -23.202726,2.310178 c -0.03749,-1.239411 -0.284344,-2.387078 -0.548555,-2.55037 -0.846024,-0.522872 -0.55543,-1.679989 0.336,-1.337916 0.553095,0.212244 0.621089,0.378375 0.210826,0.515129 -0.477824,0.159274 -0.468533,0.368674 0.04405,0.992704 0.441637,0.53768 0.549752,1.405984 0.337725,2.712389 l -0.31186,1.921537 -0.06817,-2.253473 z M 49.10119,44.904111 c -0.36746,-0.230215 -0.420254,-0.6109 -0.146219,-1.054303 0.514376,-0.832274 1.112541,-0.379475 0.883902,0.669095 -0.09679,0.443906 -0.395241,0.599751 -0.737683,0.385208 z m 8.028433,-1.1356 c 0.0059,-0.89994 0.09915,-0.978853 0.473029,-0.40032 0.354337,0.548298 0.467434,0.354086 0.47303,-0.812322 0.0038,-0.843094 -0.216062,-1.670977 -0.489127,-1.839739 -0.289408,-0.178867 0.02195,-0.714657 0.746594,-1.284643 1.03653,-0.815335 1.18996,-1.228016 0.923399,-2.483719 -0.175815,-0.828255 -0.56583,-1.840772 -0.866685,-2.250038 -0.30086,-0.409266 -0.06063,-0.235082 0.533846,0.387076 1.210655,1.267032 1.338716,2.303994 0.529662,4.288941 -0.30316,0.743781 -0.681463,2.199426 -0.840672,3.234766 -0.319326,2.076579 -1.495124,2.99624 -1.483076,1.159998 z m -8.332151,-1.561003 c -0.160583,-0.41847 -0.17424,-1.06765 -0.03036,-1.442622 0.14389,-0.374971 -0.07418,-1.194259 -0.484597,-1.820638 -1.10588,-1.687786 -0.277803,-4.231927 1.746884,-5.367036 l 1.56844,-0.879321 -1.26184,1.131787 c -1.84615,1.655877 -1.989259,2.586583 -0.643628,4.185776 1.04276,1.239247 1.09273,1.468508 0.438456,2.011509 -0.406141,0.337067 -0.640516,0.868036 -0.520833,1.17993 0.119683,0.311893 0.05152,0.835816 -0.151479,1.164274 -0.277951,0.449739 -0.441176,0.409329 -0.661052,-0.163659 z M 16.986545,24.152818 c 0,-9.379503 0.06435,-13.216573 0.142997,-8.526821 0.07865,4.689752 0.07865,12.363891 0,17.053643 -0.07865,4.689752 -0.142997,0.852682 -0.142997,-8.526822 z m 57.159914,-3.843074 c 0,-7.265813 0.06677,-10.238191 0.148381,-6.605284 0.08161,3.632906 0.08161,9.577662 0,13.210568 -0.08161,3.632906 -0.148381,0.660528 -0.148381,-6.605284 z M 52.228353,32.471579 c 0.346775,-0.13877 0.761107,-0.121703 0.920738,0.03793 0.159627,0.159628 -0.124102,0.273166 -0.630504,0.252307 -0.559624,-0.02305 -0.673451,-0.136881 -0.290234,-0.290232 z m 1.891513,0.01001 c 0.330264,-0.133264 0.870697,-0.133264 1.200961,0 0.330264,0.133265 0.06005,0.242299 -0.60048,0.242299 -0.660529,0 -0.930745,-0.109034 -0.600481,-0.242299 z M 88.978675,7.4594635 c -0.164551,-0.4623699 -0.3867,-1.0028022 -0.493657,-1.2009608 -0.106958,-0.1981585 0.0093,-0.3602882 0.258264,-0.3602882 0.249002,0 0.55604,0.5404323 0.682309,1.2009608 0.264182,1.3819734 -0.0059,1.5996533 -0.446916,0.3602882 z"
         id="path13934" />
      <path
         style="fill:#494949;fill-opacity:1;stroke-width:0.480384"
         d="m 27.465142,97.787288 c 0.730214,-0.110421 1.811079,-0.107467 2.401922,0.0065 0.590842,0.114024 -0.0066,0.204365 -1.327662,0.200762 -1.321057,-0.0038 -1.804474,-0.0969 -1.07426,-0.207319 z m 3.959966,-0.13017 c -0.168297,-0.272311 0.02453,-0.352842 0.452034,-0.188796 0.832226,0.319355 0.984493,0.66368 0.293493,0.66368 -0.248619,0 -0.584106,-0.213699 -0.745527,-0.474884 z m 1.915086,0.07855 c 0.08536,-0.08587 0.445231,-0.200042 0.799705,-0.253701 0.354474,-0.05365 0.914715,-0.266363 1.244979,-0.472689 0.346012,-0.216158 0.600481,-0.147526 0.600481,0.161957 0,0.295398 0.162129,0.446964 0.360288,0.336822 0.198158,-0.110148 1.441153,-0.04545 2.76221,0.143827 1.994732,0.285766 1.696286,0.33527 -1.760474,0.292016 -2.289317,-0.02863 -4.092552,-0.122354 -4.007189,-0.208232 z m 10.443825,-1.073635 c 1.034844,-0.546375 2.1946,-1.706133 2.740979,-2.740977 0.520917,-0.986623 0.956676,-1.482975 0.968353,-1.103006 0.03249,1.057288 -1.986866,3.758023 -3.235166,4.326788 -1.953965,0.890282 -2.336699,0.50058 -0.474166,-0.482805 z m -18.367115,0.02882 c 0,-0.601883 0.509803,-0.601883 1.441153,0 0.582686,0.376559 0.513741,0.467078 -0.360289,0.47303 -0.594475,0.004 -1.080864,-0.208819 -1.080864,-0.47303 z m 44.555644,-1.291912 c -0.890257,-0.232645 -1.175029,-1.11001 -0.360288,-1.11001 0.264212,0 0.483694,-0.378302 0.487739,-0.840672 0.0063,-0.718439 0.07507,-0.735901 0.47303,-0.120096 0.413933,0.640511 0.470243,0.640511 0.506791,0 0.02772,-0.485424 0.175854,-0.407035 0.453977,0.240192 0.873113,2.031838 0.569789,2.387486 -1.561249,1.830586 z m 2.786638,-2.860155 c 0.445297,-3.065875 0.696149,-3.253249 0.696149,-0.519997 0,1.21739 -0.232881,2.357371 -0.517514,2.533283 -0.359466,0.222163 -0.414024,-0.392671 -0.178635,-2.013286 z M 30.100651,92.179781 c 0.594475,-0.263035 1.080424,-0.598641 1.079885,-0.745797 -5.28e-4,-0.147156 2.431408,-0.170142 5.404324,-0.05109 l 5.405302,0.216471 -5.764611,0.308719 c -3.170537,0.169797 -6.088871,0.407995 -6.485188,0.529331 -0.396318,0.121335 -0.234188,0.0054 0.360288,-0.257634 z m 12.658314,-1.591984 c 0.34979,-0.582461 0.739383,-0.955614 0.865763,-0.829235 0.126381,0.12638 -0.15981,0.602935 -0.63598,1.059017 -0.827193,0.792293 -0.83743,0.782056 -0.229783,-0.229782 z m 3.435609,-0.862521 c 0.0053,-1.056845 0.103708,-1.432626 0.218612,-0.835071 0.114905,0.597555 0.110542,1.462247 -0.0097,1.921537 -0.120237,0.459291 -0.21425,-0.02962 -0.208918,-1.086466 z M 71.856102,89.0047 c 0.158531,-1.453163 0.367037,-2.732186 0.46335,-2.842275 0.372148,-0.425371 0.0846,3.614253 -0.321997,4.52362 -0.280545,0.62744 -0.329582,0.0441 -0.141353,-1.681345 z m 5.327812,1.101396 c 0.597555,-0.114903 1.462247,-0.110541 1.921538,0.0097 0.45929,0.120235 -0.02964,0.214251 -1.086466,0.208919 -1.056846,-0.0053 -1.432626,-0.10371 -0.835072,-0.218613 z m 6.239395,9.61e-4 c 0.594476,-0.114504 1.567254,-0.114504 2.161729,0 0.594476,0.1145 0.108087,0.208184 -1.080864,0.208184 -1.188951,0 -1.67534,-0.09368 -1.080865,-0.208184 z M 44.163574,87.379853 c -0.312677,-1.506154 -0.477331,-6.002738 -0.394346,-10.769304 0.07836,-4.501128 0.03439,-8.168003 -0.09772,-8.14884 -0.132106,0.01917 -1.043898,-0.322795 -2.026204,-0.75992 -1.208513,-0.537781 -3.11131,-0.794767 -5.884708,-0.794767 -2.412208,0 -4.098696,-0.197664 -4.098696,-0.480385 0,-0.295253 2.371316,-0.480384 6.15318,-0.480384 8.023681,0 7.965419,-0.0416 8.186447,5.845696 0.204169,5.438267 -0.390349,5.318498 -0.921635,-0.185673 -0.263114,-2.725874 -0.334598,-0.461818 -0.227021,7.190257 0.08636,6.142915 0.08738,11.168936 0.0023,11.168936 -0.08511,0 -0.396316,-1.163631 -0.691566,-2.585842 z m 12.932532,1.265058 c 8.993069,-0.128978 9.894851,-0.219362 10.688551,-1.071295 1.962519,-2.106745 0.461318,-2.892375 -5.526374,-2.892375 -2.837381,0 -5.312575,-0.2744 -6.612606,-0.733081 -1.862656,-0.65718 -2.300512,-0.65718 -4.229236,0 -1.183311,0.403196 -2.599355,0.718622 -3.146762,0.700943 -0.57001,-0.0184 -0.16625,-0.291847 0.94493,-0.639948 3.777618,-1.183422 3.828658,-1.255475 3.666312,-5.175392 -0.08018,-1.936006 -0.330451,-4.276621 -0.556155,-5.201361 -0.225704,-0.92474 -0.530551,-7.057388 -0.677438,-13.628109 -0.161548,-7.22668 -0.46617,-12.186677 -0.771012,-12.553989 -0.364578,-0.439291 -0.301278,-0.684994 0.228889,-0.888438 0.433201,-0.166235 0.732836,-0.01681 0.732836,0.365463 0,0.355674 0.34114,0.929798 0.758085,1.275834 0.648384,0.538112 0.932012,0.406924 1.959958,-0.906552 0.661033,-0.84464 1.414837,-1.404089 1.675129,-1.243221 0.287986,0.177985 0.19861,0.602928 -0.228293,1.08547 -0.55592,0.628373 -0.76995,3.335838 -1.031059,13.042781 -0.181225,6.73739 -0.500536,13.546838 -0.70958,15.132106 -0.209044,1.585268 -0.353625,3.829076 -0.321295,4.98624 0.05268,1.885509 0.232563,2.197221 1.732635,3.002402 1.336415,0.717344 2.709493,0.898468 6.811163,0.898468 4.029771,0 5.300056,0.162744 5.892202,0.75489 1.032201,1.032197 0.947351,1.910681 -0.29646,3.069469 -0.996014,0.927929 -1.571236,0.973715 -10.928743,0.869908 L 47.27439,88.785549 57.096106,88.644686 Z M 31.6619,87.592216 c 0,-0.336941 -0.312764,-0.491827 -0.696112,-0.344723 -0.465262,0.178539 -0.607526,0.03627 -0.428989,-0.428988 0.146918,-0.382862 0.437041,-0.696111 0.644716,-0.696111 0.474447,0 1.070799,1.491252 0.731885,1.830163 -0.138326,0.138327 -0.2515,-0.02383 -0.2515,-0.360341 z m 0.869595,-1.22963 c -0.159401,-1.365382 -0.03559,-1.681345 0.658867,-1.681345 0.904863,0 1.682033,1.962644 1.130525,2.855001 -0.66423,1.074749 -1.598438,0.462005 -1.789392,-1.173656 z m 40.13625,-7.445957 c 0,-2.510008 0.08096,-3.536829 0.179923,-2.281825 0.09896,1.255004 0.09896,3.308647 0,4.563651 -0.09896,1.255004 -0.179923,0.228183 -0.179923,-2.281826 z m -42.08671,2.507482 c -0.527965,-0.110537 -0.840672,-0.620176 -0.840672,-1.370095 0,-0.673734 -0.209341,-1.064709 -0.480385,-0.897194 -0.264211,0.163292 -0.480384,-0.138024 -0.480384,-0.669594 0,-0.881836 0.220889,-0.941534 2.522018,-0.681617 1.387109,0.156677 2.585808,0.33638 2.663774,0.399348 0.07797,0.06296 0.186053,0.720952 0.240192,1.462189 0.08354,1.143738 -0.119683,1.392005 -1.342717,1.640345 -0.792635,0.160943 -1.819456,0.213425 -2.281826,0.116618 z m 2.041633,-1.117725 c 0,-0.235941 -0.378302,-0.454064 -0.840672,-0.484712 -0.800641,-0.05307 -0.800641,-0.06619 0,-0.275419 1.250104,-0.326686 1.01692,-1.11001 -0.330433,-1.11001 -0.914133,0 -1.156361,0.237171 -1.103912,1.080865 0.03696,0.594475 0.274135,1.222996 0.527062,1.396708 0.565918,0.388679 1.747955,-0.02209 1.747955,-0.607432 z m -6.851283,-5.845369 c -0.591282,-0.469004 -0.769935,-0.793263 -0.397007,-0.720576 0.383062,0.07466 0.809861,-0.390327 0.981027,-1.068808 0.286036,-1.133807 0.509222,-1.208791 3.991537,-1.341007 3.598394,-0.136626 3.696043,-0.110234 3.99472,1.079789 0.557398,2.22085 0.0627,2.572871 -3.856486,2.744234 -2.926903,0.127974 -3.849042,-0.0077 -4.713791,-0.693632 z m 6.851283,-0.348231 c 0,-0.264211 -1.093622,-0.480384 -2.430272,-0.480384 -1.497855,0 -2.316364,0.184309 -2.133379,0.480384 0.163292,0.264212 1.256914,0.480385 2.430273,0.480385 1.173358,0 2.133378,-0.216173 2.133378,-0.480385 z m 0,-1.441153 c 0,-0.264211 -0.972778,-0.480384 -2.161729,-0.480384 -1.188951,0 -2.161729,0.216173 -2.161729,0.480384 0,0.264212 0.972778,0.480385 2.161729,0.480385 1.188951,0 2.161729,-0.216173 2.161729,-0.480385 z m -9.833325,-0.240192 c 0.59778,-3.955566 0.805994,-4.583351 1.674258,-5.048032 0.489577,-0.262011 1.390741,-0.457806 2.002587,-0.435098 0.953493,0.0354 0.906606,0.102663 -0.328151,0.47081 -1.865773,0.556285 -2.640904,1.662836 -2.650027,3.783079 -0.004,0.940295 -0.228238,2.033885 -0.498206,2.430202 -0.354306,0.520127 -0.41007,0.186043 -0.200461,-1.200961 z m 66.449571,-9.007205 c -0.038,-4.293435 -0.128681,-8.88711 -0.201493,-10.208167 -0.07281,-1.321057 0.02954,-4.88791 0.227453,-7.926341 0.279228,-4.286884 0.378451,-2.000134 0.442933,10.208166 0.04568,8.652923 -0.02556,15.732587 -0.158349,15.732587 -0.132793,0 -0.272536,-3.512811 -0.310544,-7.806245 z M 52.158299,44.969471 c -0.490295,-0.49029 -0.380705,-1.987605 0.170402,-2.328207 0.301056,-0.186065 0.447204,0.267054 0.378201,1.17261 -0.125049,1.641108 -0.105103,1.599099 -0.548603,1.155597 z m 4.555561,-0.732257 c -0.03959,-0.710988 0.144197,-1.426308 0.408408,-1.5896 0.798332,-0.493397 0.54221,-0.991847 -0.552,-1.074272 -0.567814,-0.04277 -1.270376,-0.334356 -1.561249,-0.647966 -0.40017,-0.431442 -0.26584,-0.506789 0.552,-0.309626 0.594476,0.143315 1.080865,0.153331 1.080865,0.02226 0,-0.131071 -0.486389,-0.644074 -1.080865,-1.140005 l -1.080865,-0.901692 1.229241,-0.01598 c 0.676084,-0.0088 1.644639,-0.319727 2.152348,-0.690971 0.898016,-0.656648 0.899539,-0.725181 0.05607,-2.522018 -0.863924,-1.840397 -0.86363,-1.843579 0.08254,-0.886259 0.522269,0.528423 1.090497,1.638432 1.262729,2.466687 0.260359,1.252055 0.103595,1.670752 -0.929928,2.483719 -0.724621,0.569986 -1.036002,1.105776 -0.746594,1.284643 0.273065,0.168762 0.493172,0.996645 0.489127,1.839739 -0.0053,1.097701 -0.130299,1.338644 -0.440397,0.848675 -0.325835,-0.514836 -0.484583,-0.336449 -0.641241,0.720576 -0.206964,1.396421 -0.208636,1.397089 -0.280184,0.112094 z m -8.231155,-1.194998 c 0.0057,-1.051625 0.111718,-1.193885 0.47303,-0.634794 0.413933,0.640512 0.472813,0.640512 0.529945,0 0.03536,-0.396317 0.03579,-0.961955 9.61e-4,-1.256973 -0.03478,-0.295018 0.262055,-0.806383 0.659659,-1.136366 0.633541,-0.52579 0.580079,-0.769729 -0.432375,-1.972965 -0.731082,-0.868841 -1.060981,-1.733671 -0.898433,-2.355247 0.296113,-1.132351 2.237327,-2.608689 3.983265,-3.029367 1.142757,-0.275343 1.155766,-0.255602 0.268472,0.407317 -0.512815,0.383176 -1.163376,0.696683 -1.44564,0.696683 -0.282264,0 -0.810831,0.476571 -1.174592,1.059046 -0.608421,0.974236 -0.531118,1.16831 0.965308,2.423458 l 1.626697,1.364411 -1.200961,0.945554 c -0.989371,0.778963 -1.031688,0.895335 -0.240192,0.660516 0.760078,-0.225499 0.684816,-0.04744 -0.360289,0.852396 -0.726581,0.62559 -1.321056,1.306886 -1.321056,1.513992 0,0.207105 -0.32426,0.700815 -0.720577,1.097132 -0.640511,0.640512 -0.71976,0.56998 -0.713222,-0.634793 z m 6.718026,-9.762096 c -1.117979,-0.358039 -1.128235,-0.387924 -0.148448,-0.432499 0.578882,-0.02633 1.186116,0.168288 1.349409,0.432499 0.163292,0.264211 0.230094,0.458836 0.148448,0.4325 -0.08165,-0.02634 -0.688881,-0.220962 -1.349409,-0.4325 z"
         id="path13932" />
      <path
         style="fill:#333333;fill-opacity:1;stroke-width:0.480384"
         d="m 27.062751,97.228668 c 0.154922,-0.250669 0.01083,-0.546038 -0.320193,-0.656383 -0.411217,-0.137073 -0.18101,-0.752397 0.726735,-1.942515 1.673288,-2.193791 3.553288,-2.73661 9.490042,-2.740084 5.76808,-0.0034 6.68973,-0.51477 6.763618,-3.752896 l 0.05145,-2.254588 0.549035,2.161729 c 0.493266,1.942146 0.573433,1.332197 0.789227,-6.004803 0.2431,-8.265406 0.953061,-9.014009 0.968125,-1.020817 0.0054,2.885404 0.140232,3.715234 0.516957,3.182546 0.383494,-0.542263 0.569894,-0.571984 0.753252,-0.120096 0.322353,0.794435 1.452968,0.757561 4.065447,-0.132601 1.928724,-0.65718 2.36658,-0.65718 4.229236,0 1.300031,0.458681 3.775225,0.733081 6.612606,0.733081 5.982956,0 7.401358,0.733124 5.565872,2.876815 -0.778415,0.909123 -1.403352,0.96626 -10.568455,0.96626 h -9.741118 v 1.700483 c 0,4.555465 -3.59338,7.593891 -8.682596,7.34167 -1.565645,-0.07759 -2.846627,-0.332819 -2.846627,-0.56717 0,-0.234351 -0.270217,-0.218099 -0.600481,0.03613 -0.796806,0.613316 -8.695092,0.796736 -8.322127,0.193263 z m 19.350435,-8.338463 c -0.114904,-0.597555 -0.21328,-0.221774 -0.218612,0.835071 -0.0053,1.056846 0.08868,1.545757 0.208918,1.086466 0.120236,-0.45929 0.124599,-1.323982 0.0097,-1.921537 z m 25.196459,4.437954 c 0,-0.660529 0.109038,-0.930745 0.242301,-0.600481 0.133264,0.330265 0.133264,0.870697 0,1.200961 -0.133263,0.330264 -0.242301,0.06005 -0.242301,-0.60048 z M 75.17671,89.60518 c -0.198158,-0.198158 -0.602743,-0.360288 -0.899077,-0.360288 -0.296335,0 -0.689117,-0.540432 -0.872854,-1.200961 C 72.998182,86.582204 72.869376,10.18873 73.269517,7.8197517 73.68834,5.3401439 75.872086,4.4570616 81.584994,4.4570616 c 3.731063,0 4.678203,0.1609196 5.847425,0.9934799 0.767366,0.5464141 1.395214,1.1949329 1.395214,1.4411529 0,0.24622 -0.432346,0.015327 -0.960769,-0.5130956 -0.849377,-0.8493752 -1.601279,-0.9607686 -6.485188,-0.9607686 -4.883909,0 -5.635811,0.1113934 -6.485188,0.9607686 -0.945397,0.9453949 -0.960769,1.6012809 -0.960769,40.9891212 v 40.028351 l 1.111825,1.044509 c 1.002812,0.942091 1.631376,1.044504 6.410734,1.044504 7.19338,0 7.040488,0.186793 7.412133,-9.055662 l 0.28297,-7.037212 -0.0428,7.605435 c -0.05312,9.448463 0.361749,8.967824 -7.740653,8.967824 -3.208113,0 -5.995057,-0.16213 -6.193216,-0.360289 z M 31.773558,86.196369 c -0.09322,-1.621384 0.0037,-2.037704 0.352933,-1.515128 0.565148,0.845818 0.656094,3.207267 0.135889,3.528409 -0.198158,0.122329 -0.418128,-0.783647 -0.488822,-2.013281 z m -0.898845,-5.282551 c -0.252927,-0.173712 -0.490105,-0.802233 -0.527062,-1.396708 -0.05245,-0.843694 0.189779,-1.080865 1.103912,-1.080865 1.347353,0 1.580537,0.783324 0.330433,1.11001 -0.800641,0.209231 -0.800641,0.222346 0,0.275419 0.46237,0.03065 0.840672,0.248771 0.840672,0.484712 0,0.585344 -1.182037,0.996111 -1.747955,0.607432 z m -2.815696,-6.801032 c -0.182985,-0.296075 0.635524,-0.480384 2.133379,-0.480384 1.33665,0 2.430272,0.216173 2.430272,0.480384 0,0.264212 -0.96002,0.480385 -2.133378,0.480385 -1.173359,0 -2.266981,-0.216173 -2.430273,-0.480385 z M 17.433764,67.627598 c 9.61e-4,-3.170536 0.0787,-4.405061 0.17277,-2.743383 0.09407,1.661673 0.0933,4.255748 -0.0017,5.764611 -0.09502,1.508859 -0.171991,0.149309 -0.171041,-3.021228 z m 10.865446,5.044035 c 0,-0.264211 0.972778,-0.480384 2.161729,-0.480384 1.188951,0 2.161729,0.216173 2.161729,0.480384 0,0.264212 -0.972778,0.480385 -2.161729,0.480385 -1.188951,0 -2.161729,-0.216173 -2.161729,-0.480385 z m -5.70811,-3.465391 -0.0565,-3.705584 4.683747,-0.137491 4.683747,-0.13749 0.114944,-29.031118 C 32.121421,9.8305919 32.059411,7.0832558 31.342103,6.2906361 30.665757,5.543283 29.756061,5.4178302 25.013123,5.4178302 c -5.075249,0 -5.637666,0.090513 -6.716123,1.0808647 l -1.177023,1.0808647 0.556591,-1.0698553 c 0.888607,-1.7080438 2.091234,-2.0526427 7.163586,-2.0526427 4.098933,0 4.948858,0.1401857 6.036385,0.9956349 0.69616,0.5475992 1.280939,0.8178154 1.299509,0.6004804 0.01857,-0.217335 0.219549,0.037191 0.44662,0.5656141 0.227071,0.5284227 0.428051,14.093275 0.446621,30.144115 0.02966,25.635502 -0.05384,29.183347 -0.686813,29.183347 -0.396317,0 -0.720576,0.216173 -0.720576,0.480384 0,0.273224 -1.410548,0.480385 -3.270875,0.480385 -1.890672,0 -3.623914,0.258149 -4.107526,0.611774 -0.468637,0.342677 -1.012432,1.663331 -1.236274,3.002402 -0.392559,2.348373 -0.400621,2.325127 -0.456125,-1.314956 z m 66.334344,-5.205545 0.09781,-8.863091 0.262482,8.406726 c 0.14436,4.623699 0.100347,8.612089 -0.09781,8.86309 -0.198159,0.251001 -0.316276,-3.532026 -0.262477,-8.406725 z M 52.414502,48.075957 c -0.317054,-0.317054 -0.576461,-0.805486 -0.576461,-1.085406 0,-0.279919 -0.432346,-0.778949 -0.960769,-1.108955 -1.465258,-0.915068 -1.279028,-3.404252 0.360288,-4.815711 1.045105,-0.899841 1.120367,-1.077895 0.360289,-0.852396 -0.791496,0.234819 -0.749179,0.118447 0.240192,-0.660516 l 1.200961,-0.945554 -1.626697,-1.364411 c -1.447441,-1.214063 -1.559371,-1.472216 -1.015725,-2.342726 1.65785,-2.654645 6.19459,-2.286101 7.578327,0.615629 0.774889,1.624959 0.769994,1.727665 -0.113164,2.373447 -0.507709,0.371244 -1.476264,0.682181 -2.152348,0.690971 l -1.229241,0.01598 1.080865,0.901692 c 1.335243,1.113905 1.371517,1.454326 0.120096,1.127072 -1.361539,-0.356051 -1.195234,0.275829 0.213565,0.811453 1.025937,0.390062 1.139414,0.661635 0.898021,2.149174 -0.160776,0.990746 -0.939608,2.405996 -1.862652,3.384705 -1.79952,1.90805 -1.739448,1.881648 -2.515547,1.105549 z m 0.2924,-4.262083 c 0.069,-0.905556 -0.07715,-1.358675 -0.378201,-1.17261 -0.551107,0.340602 -0.660697,1.837917 -0.170402,2.328207 0.4435,0.443502 0.423554,0.485511 0.548603,-1.155597 z M 88.914179,27.995893 c -0.0469,-13.329954 0.0898,-20.1662261 0.393838,-19.695757 0.536623,0.8303664 0.55408,27.905201 0.02277,35.308247 -0.220011,3.06547 -0.370765,-2.58424 -0.416604,-15.61249 z"
         id="path13930" />
    </g>
  </g>
</svg>
