<?xml version="1.0" encoding="UTF-8" standalone="no"?>
<!-- Created with Inkscape (http://www.inkscape.org/) -->

<svg
   width="100mm"
   height="100mm"
   viewBox="0 0 100 100"
   version="1.1"
   id="svg3720"
   inkscape:version="1.1.1 (3bf5ae0d25, 2021-09-20)"
   sodipodi:docname="add_list_type_device_614a.svg"
   xmlns:inkscape="http://www.inkscape.org/namespaces/inkscape"
   xmlns:sodipodi="http://sodipodi.sourceforge.net/DTD/sodipodi-0.dtd"
   xmlns="http://www.w3.org/2000/svg"
   xmlns:svg="http://www.w3.org/2000/svg">
  <sodipodi:namedview
     id="namedview3722"
     pagecolor="#ffffff"
     bordercolor="#666666"
     borderopacity="1.0"
     inkscape:pageshadow="2"
     inkscape:pageopacity="0.0"
     inkscape:pagecheckerboard="0"
     inkscape:document-units="mm"
     showgrid="false"
     width="100mm"
     inkscape:zoom="0.58974467"
     inkscape:cx="378.97757"
     inkscape:cy="242.47782"
     inkscape:window-width="1440"
     inkscape:window-height="890"
     inkscape:window-x="-6"
     inkscape:window-y="-6"
     inkscape:window-maximized="1"
     inkscape:current-layer="layer1" />
  <defs
     id="defs3717" />
  <g
     inkscape:label="Laag 1"
     inkscape:groupmode="layer"
     id="layer1">
    <g
       id="g3736"
       transform="translate(-4.2774903,-0.42965009)">
      <path
         style="fill:#d0d0d0;fill-opacity:1;stroke-width:0.59691"
         d="m 19.939418,93.251295 c 0.194039,-0.313962 0.747111,-0.419526 1.229047,-0.234591 1.23388,0.473486 1.088478,0.805434 -0.352799,0.805434 -0.675975,0 -1.070287,-0.25688 -0.876248,-0.570843 z M 13.61184,90.986817 c -0.742478,-0.946734 -0.721366,-0.967847 0.225366,-0.225369 0.574526,0.450577 1.044592,0.920644 1.044592,1.044592 0,0.49128 -0.490174,0.175079 -1.269958,-0.819223 z m 34.854331,0.01934 c 0.907339,-0.137206 2.250386,-0.133535 2.984548,0.0081 0.734161,0.141683 -0.0082,0.253937 -1.649709,0.249461 -1.641501,-0.0048 -2.242179,-0.120409 -1.334839,-0.257609 z m 0.297207,-1.187659 c 0.742503,-0.142775 1.81694,-0.137355 2.387638,0.01206 0.570698,0.1494 -0.03681,0.266221 -1.350006,0.259596 -1.313201,-0.0066 -1.780135,-0.128867 -1.037632,-0.271642 z M 15.402569,88.599179 c -0.742479,-0.946735 -0.721366,-0.967847 0.225366,-0.225369 0.574526,0.450577 1.044592,0.920643 1.044592,1.044591 0,0.491281 -0.490174,0.17508 -1.269958,-0.819222 z m 19.387192,-0.602927 c 0.216921,-0.350988 0.05696,-0.774197 -0.355454,-0.940467 -0.452377,-0.182379 -0.335451,-0.321006 0.294735,-0.349436 1.181254,-0.0533 1.396997,0.858439 0.355455,1.502147 -0.407321,0.25174 -0.52785,0.164944 -0.294736,-0.212244 z m 29.436566,0.05575 c -0.556403,-0.556392 -0.496658,-1.392781 0.09948,-1.392781 0.273588,0 0.497429,0.402914 0.497429,0.895364 0,1.014358 -0.04363,1.05071 -0.59691,0.497423 z M 46.36878,87.457721 c 0.410375,-0.165589 1.081898,-0.165589 1.492274,0 0.410375,0.165588 0.07461,0.301075 -0.746137,0.301075 -0.820751,0 -1.156513,-0.135487 -0.746137,-0.301075 z m 5.372186,0 c 0.410376,-0.165589 1.081899,-0.165589 1.492274,0 0.410376,0.165588 0.07461,0.301075 -0.746137,0.301075 -0.82075,0 -1.156512,-0.135487 -0.746137,-0.301075 z m 16.077253,-0.05235 c -0.142446,-0.246226 -0.04161,-0.984901 0.22411,-1.641502 0.40822,-1.008783 0.46898,-0.939398 0.392026,0.447682 -0.09598,1.730017 -0.194974,1.921822 -0.616136,1.19382 z m -22.795091,-1.34726 c -0.521365,-0.843589 1.209909,-1.390549 2.988488,-0.94415 1.434827,0.360104 2.120508,1.545262 0.89403,1.545262 -0.328301,0 -0.59691,-0.26861 -0.59691,-0.59691 0,-0.3283 -0.687376,-0.59691 -1.527502,-0.59691 -0.866335,0 -1.367822,0.258367 -1.158591,0.59691 0.202901,0.3283 0.234606,0.59691 0.07046,0.59691 -0.16415,0 -0.465637,-0.270508 -0.66997,-0.601124 z M 10.841916,84.271584 c 0,-1.149051 0.122841,-1.619117 0.27298,-1.044592 0.150139,0.574526 0.150139,1.514658 0,2.089184 -0.150139,0.574525 -0.27298,0.104459 -0.27298,-1.044592 z m 18.504197,0 c 0,-1.149051 0.122841,-1.619117 0.272981,-1.044592 0.150139,0.574526 0.150139,1.514658 0,2.089184 -0.15014,0.574525 -0.272981,0.104459 -0.272981,-1.044592 z m 22.394853,0.798498 c 0.410376,-0.165589 1.081899,-0.165589 1.492274,0 0.410376,0.165589 0.07461,0.301075 -0.746137,0.301075 -0.82075,0 -1.156512,-0.135486 -0.746137,-0.301075 z m 10.62064,-1.354161 c -0.188886,-0.305618 -0.02895,-0.750035 0.355453,-0.987593 0.416548,-0.257441 0.539547,-0.17413 0.304472,0.206226 -0.216923,0.350989 -0.05695,0.774198 0.355454,0.940467 0.536705,0.21638 0.547778,0.315712 0.03898,0.349437 -0.391,0.02591 -0.865447,-0.202925 -1.054327,-0.508537 z m 2.997429,-1.657003 c -0.323931,-0.850716 -0.25537,-0.919277 0.33415,-0.33415 0.40794,0.404908 0.59134,0.886554 0.407558,1.070336 -0.183783,0.183783 -0.51755,-0.147502 -0.741708,-0.736186 z m 11.601362,-0.473427 c 0.891347,-0.948794 1.110401,-1.492274 0.601476,-1.492274 -1.032045,0 -0.398509,-0.644728 0.807463,-0.821724 0.506789,-0.07438 1.538684,-0.650303 2.293112,-1.279834 0.754422,-0.62953 0.03874,0.25731 -1.59043,1.970751 -1.629157,1.713447 -3.086177,3.115355 -3.237822,3.115355 -0.151645,0 0.355143,-0.671523 1.126201,-1.492274 z m -28.800888,0.474107 c 0.738675,-0.142279 1.947417,-0.142279 2.686093,0 0.738675,0.142274 0.134304,0.258683 -1.343047,0.258683 -1.477351,0 -2.081722,-0.116409 -1.343046,-0.258683 z m 0.298454,-1.18403 c 0.574526,-0.150134 1.514659,-0.150134 2.089184,0 0.574525,0.150141 0.104459,0.272985 -1.044592,0.272985 -1.149051,0 -1.619117,-0.122844 -1.044592,-0.272985 z m -1.454967,-2.383925 c 0.430894,-0.172429 0.945729,-0.151227 1.144077,0.0471 0.198348,0.198347 -0.154202,0.339427 -0.783444,0.313509 -0.695365,-0.02865 -0.836807,-0.170084 -0.360633,-0.360629 z m 4.775277,0 c 0.430894,-0.172429 0.945729,-0.151227 1.144077,0.0471 0.198348,0.198347 -0.154202,0.339427 -0.783444,0.313509 -0.695366,-0.02865 -0.836807,-0.170084 -0.360633,-0.360629 z m 9.115307,0.190151 c 0.136792,-0.11968 0.920236,-0.537409 1.740986,-0.92829 1.407078,-0.67012 1.426125,-0.657693 0.333595,0.217598 -0.950875,0.761812 -2.893734,1.427378 -2.074581,0.710692 z m -26.011085,-1.56629 c -0.20912,-0.338365 0.03048,-0.438431 0.561682,-0.234592 1.034097,0.39682 1.223299,0.824667 0.364685,0.824667 -0.308925,0 -0.72579,-0.265536 -0.926367,-0.590075 z m 18.415053,0.130568 c 0.218895,-0.354177 -0.07536,-0.767435 -0.653909,-0.918352 -0.940414,-0.245306 -0.944922,-0.281723 -0.04254,-0.343629 1.265274,-0.0868 1.93093,0.897018 0.997328,1.474015 -0.418979,0.258945 -0.539481,0.174023 -0.300883,-0.212034 z m 20.509943,-1.940846 c 1.056452,-1.108384 2.021953,-1.894717 2.145549,-1.747405 0.123603,0.147317 -0.74077,1.054178 -1.920825,2.01525 l -2.14555,1.747405 z m 1.063722,0.609624 c 0.594218,-0.656601 1.2147,-1.193819 1.37885,-1.193819 0.16415,0 -0.187722,0.537218 -0.78194,1.193819 -0.594218,0.6566 -1.214699,1.193819 -1.378849,1.193819 -0.16415,0 0.187722,-0.537219 0.781939,-1.193819 z m 4.743134,0.544901 c -0.220582,-0.356911 -0.159047,-0.89093 0.136734,-1.18671 0.31912,-0.31912 0.574143,-0.05527 0.627185,0.648918 0.09981,1.325002 -0.163034,1.510038 -0.763919,0.537792 z M 47.002996,76.104004 c 0.430894,-0.172429 0.945729,-0.151227 1.144077,0.0471 0.198348,0.198353 -0.154202,0.339426 -0.783444,0.313508 -0.695365,-0.02865 -0.836807,-0.170083 -0.360633,-0.360628 z M 19.209393,74.906472 c 0.574525,-0.150134 1.514658,-0.150134 2.089183,0 0.574526,0.150141 0.10446,0.272985 -1.044591,0.272985 -1.149051,0 -1.619118,-0.122844 -1.044592,-0.272985 z M 72.18512,73.825666 c 0.771058,-0.820751 1.536225,-1.492274 1.700375,-1.492274 0.16415,0 -0.332407,0.671523 -1.103465,1.492274 -0.771058,0.820751 -1.536225,1.492274 -1.700375,1.492274 -0.16415,0 0.332407,-0.671523 1.103465,-1.492274 z M 30.325309,73.676439 c -0.742479,-0.946735 -0.721366,-0.967847 0.225366,-0.225369 0.574526,0.450577 1.044592,0.920643 1.044592,1.044591 0,0.491281 -0.490174,0.17508 -1.269958,-0.819222 z m 6.651285,0.632139 c -0.01501,-1.167161 0.810911,-1.323516 2.385989,-0.451694 0.81663,0.452016 1.216174,0.827246 0.887873,0.833853 -0.3283,0.0066 -0.992734,-0.238304 -1.476519,-0.54425 -0.580118,-0.366861 -1.03429,-0.312942 -1.333907,0.158372 -0.349416,0.549646 -0.456406,0.550506 -0.463436,0.0036 z m 31.030159,0.187083 c 0,-0.123948 0.470066,-0.594014 1.044592,-1.044591 0.946734,-0.742478 0.967847,-0.721366 0.225369,0.225369 -0.779785,0.994302 -1.269961,1.310503 -1.269961,0.819222 z M 49.201495,72.926088 c -0.444951,-0.719951 1.139243,-1.429259 2.221325,-0.994583 0.421206,0.1692 0.0943,0.355621 -0.726446,0.414261 l -1.492274,0.106626 1.492274,0.47791 c 1.389162,0.444888 1.401908,0.482022 0.184456,0.537409 -0.719301,0.03271 -1.475002,-0.211007 -1.679335,-0.541623 z m 15.588327,-0.242931 c 0.327214,-0.858911 0.239015,-1.021229 -0.355316,-0.653914 -0.54582,0.337337 -0.648764,0.259148 -0.332521,-0.252541 0.329846,-0.533703 0.639684,-0.559519 1.106975,-0.09223 0.467285,0.467284 0.438532,0.857765 -0.10274,1.395055 -0.602962,0.598539 -0.665554,0.520129 -0.316398,-0.396372 z m -11.1089,-0.64822 c 0,-0.49245 0.26018,-0.895364 0.578176,-0.895364 0.317997,0 0.423563,0.402914 0.234592,0.895364 -0.188971,0.492451 -0.44915,0.895365 -0.578176,0.895365 -0.129025,0 -0.234592,-0.402914 -0.234592,-0.895365 z M 26.30618,69.925894 c -0.775046,-0.645677 -1.152439,-1.17396 -0.838651,-1.17396 0.313788,0 1.056701,0.537219 1.650916,1.19382 1.365061,1.508372 1.011798,1.499735 -0.812265,-0.01988 z m 46.527178,-0.349162 c 0.792523,-1.023712 1.561008,-1.754245 1.707746,-1.623409 0.146739,0.130831 -0.501684,0.968414 -1.440945,1.86129 l -1.707747,1.623415 z m 0.987223,0.940163 c 0.40705,-0.438801 1.170337,-0.860965 1.696196,-0.938145 0.525854,-0.07718 0.774801,0.04095 0.55321,0.262568 -0.221591,0.221591 -0.581969,0.407003 -0.800832,0.412029 -0.218869,0.0048 -0.800856,0.245891 -1.293306,0.535255 -0.725669,0.426396 -0.755097,0.374901 -0.155268,-0.271707 z m -6.410738,-1.466506 c 0.771058,-0.82075 1.536225,-1.492274 1.700375,-1.492274 0.16415,0 -0.332407,0.671524 -1.103465,1.492274 -0.771058,0.820751 -1.536225,1.492274 -1.700375,1.492274 -0.16415,0 0.332407,-0.671523 1.103465,-1.492274 z m -6.566005,0.298455 c -0.53799,-0.347676 -0.611614,-0.582279 -0.184456,-0.587771 0.391001,-0.0048 0.876919,0.259471 1.07982,0.587771 0.458009,0.741081 0.251372,0.741081 -0.895364,0 z M 30.750101,68.369053 c -0.314373,-0.819247 -0.227026,-0.856172 0.533047,-0.225369 1.035784,0.859627 1.143583,1.20516 0.375982,1.20516 -0.293176,0 -0.702239,-0.440907 -0.909029,-0.979791 z m 32.481375,0.157512 c 0,-0.123948 0.470066,-0.594014 1.044592,-1.044592 0.946734,-0.742477 0.967847,-0.721365 0.225369,0.22537 -0.779785,0.994302 -1.269961,1.310503 -1.269961,0.819222 z M 13.576058,67.15036 c 0.430894,-0.172429 0.945729,-0.151227 1.144077,0.0471 0.198348,0.198354 -0.154202,0.339427 -0.783444,0.313509 -0.695365,-0.02865 -0.836807,-0.170083 -0.360633,-0.360629 z m 21.899121,-0.66485 c -0.6566,-0.56809 -1.585039,-1.56644 -2.063198,-2.218551 -0.478158,-0.652118 0.126212,-0.25999 1.343047,0.871386 1.988768,1.849095 2.513859,2.459883 2.063198,2.399911 -0.08208,-0.01092 -0.686446,-0.484661 -1.343047,-1.052746 z m -6.86446,-0.718124 c -0.53799,-0.347676 -0.611613,-0.582279 -0.184455,-0.58777 0.391,-0.0048 0.876919,0.25947 1.079819,0.58777 0.458012,0.741082 0.251373,0.741082 -0.895364,0 z m 41.485218,0 c 0.202901,-0.3283 0.487364,-0.596909 0.632139,-0.596909 0.144774,0 0.263225,0.268609 0.263225,0.596909 0,0.328301 -0.284463,0.59691 -0.632139,0.59691 -0.347676,0 -0.466127,-0.268609 -0.263225,-0.59691 z m -5.073732,-0.822278 c 0,-0.123949 0.470066,-0.594015 1.044592,-1.044592 0.946734,-0.742478 0.967847,-0.721365 0.225369,0.225369 -0.779785,0.994302 -1.269961,1.310503 -1.269961,0.819223 z M 17.157516,64.165812 c 0.430894,-0.172429 0.945729,-0.151227 1.144077,0.0471 0.198348,0.198354 -0.154202,0.339427 -0.783444,0.313509 -0.695366,-0.02865 -0.836808,-0.170083 -0.360633,-0.360629 z m 46.67087,-2.313568 c 0,-0.866333 0.258366,-1.36782 0.596909,-1.158589 0.328301,0.202901 0.59691,0.890276 0.59691,1.527503 0,0.637225 -0.268609,1.15859 -0.59691,1.15859 -0.3283,0 -0.596909,-0.687377 -0.596909,-1.527504 z m -42.174602,0.0095 c -0.194405,-0.506608 -0.220089,-1.054481 -0.05708,-1.217493 0.163012,-0.163013 0.439659,0.251486 0.614769,0.921108 0.371964,1.422396 -0.04132,1.642034 -0.557692,0.296385 z m 43.965331,-0.272716 c 0,-0.3283 0.284463,-0.596909 0.632139,-0.596909 0.347676,0 0.466126,0.268609 0.263225,0.596909 -0.202902,0.3283 -0.487365,0.59691 -0.632139,0.59691 -0.144775,0 -0.263225,-0.26861 -0.263225,-0.59691 z M 15.838648,60.892624 c 0.169083,-0.273583 0.560182,-0.497424 0.869107,-0.497424 0.308925,0 0.561682,0.223841 0.561682,0.497424 0,0.273584 -0.391099,0.497426 -0.869107,0.497426 -0.47801,0 -0.730766,-0.223842 -0.561682,-0.497426 z m 8.356734,-2.785577 c -0.169084,-0.273584 0.07186,-0.497425 0.535425,-0.497425 0.463567,0 0.704508,0.223841 0.535424,0.497425 -0.169084,0.273583 -0.410025,0.497424 -0.535424,0.497424 -0.1254,0 -0.366341,-0.223841 -0.535425,-0.497424 z m 54.60287,-1.641502 c 0.02865,-0.695365 0.170083,-0.836807 0.360629,-0.360633 0.172429,0.430894 0.151227,0.945729 -0.0471,1.144077 -0.198353,0.198348 -0.339427,-0.154202 -0.313509,-0.783444 z M 23.285657,54.674816 c 0.02864,-0.695365 0.170084,-0.836807 0.360633,-0.360633 0.17243,0.430895 0.151223,0.945729 -0.04713,1.144077 -0.198348,0.198348 -0.339427,-0.154202 -0.313509,-0.783444 z M 13.207436,53.53074 c 0.01217,-0.984901 0.145943,-1.315551 0.297286,-0.734777 0.151343,0.580773 0.14139,1.386601 -0.02211,1.790729 -0.16351,0.404127 -0.287336,-0.07105 -0.275171,-1.055952 z m 2.365521,0.298454 c 0,-0.82075 0.135482,-1.156512 0.301073,-0.746137 0.165589,0.410376 0.165589,1.081899 0,1.492274 -0.165591,0.410376 -0.301073,0.07461 -0.301073,-0.746137 z m 8.906519,0.248713 c 0.02864,-0.695366 0.170084,-0.836808 0.360633,-0.360633 0.17243,0.430894 0.151224,0.945728 -0.04713,1.144077 -0.198348,0.198347 -0.339427,-0.154202 -0.313509,-0.783444 z m 50.102421,-0.09949 c 0.0054,-0.596124 0.200401,-0.788324 0.454631,-0.447682 0.245013,0.3283 0.688582,0.798366 0.985706,1.044591 0.297124,0.246226 0.09254,0.447683 -0.454624,0.447683 -0.553019,0 -0.990792,-0.463923 -0.985713,-1.044592 z m -52.490059,-0.49742 c 0.02864,-0.695365 0.170084,-0.836807 0.360633,-0.360633 0.17243,0.430894 0.151223,0.945729 -0.04713,1.144077 -0.198349,0.198348 -0.339428,-0.154202 -0.313509,-0.783444 z m 39.185479,0.363457 c 0.573006,-0.643928 0.57524,-1.026507 0.01029,-1.76194 -0.423823,-0.551716 -0.171617,-0.470128 0.611112,0.197693 0.733017,0.625408 1.332762,1.274547 1.332762,1.442531 0,0.167985 -0.176745,0.128684 -0.39276,-0.08734 -0.216022,-0.216018 -0.820391,-0.07228 -1.343048,0.31941 -0.789645,0.591782 -0.826556,0.573127 -0.218351,-0.110359 z m 15.730206,-0.363457 c 0.02865,-0.695365 0.170083,-0.836807 0.360629,-0.360633 0.172429,0.430894 0.151227,0.945729 -0.0471,1.144077 -0.198353,0.198348 -0.339427,-0.154202 -0.313509,-0.783444 z M 27.657755,51.572226 c 0.07904,-1.868377 1.222847,-1.977335 1.37173,-0.13067 l 0.12031,1.492274 -0.480578,-1.492274 -0.480578,-1.492274 -0.294241,1.492274 c -0.255651,1.296555 -0.286687,1.313693 -0.236643,0.13067 z M 9.6601421,50.546192 c 0.00663,-1.313202 0.1288638,-1.780136 0.2716404,-1.037633 0.1427765,0.742504 0.1373565,1.816941 -0.012046,2.387638 -0.1494023,0.570699 -0.2662199,-0.0368 -0.2595944,-1.350005 z m 1.2058659,-0.298455 c 0,-1.477352 0.116406,-2.081723 0.258682,-1.343047 0.142275,0.738676 0.142275,1.947418 0,2.686093 -0.142276,0.738676 -0.258682,0.134305 -0.258682,-1.343046 z m 34.45818,0.596909 c 0,-0.3283 0.268609,-0.596909 0.59691,-0.596909 0.3283,0 0.596909,0.268609 0.596909,0.596909 0,0.328301 -0.268609,0.59691 -0.596909,0.59691 -0.328301,0 -0.59691,-0.268609 -0.59691,-0.59691 z M 18.737166,49.611114 c -0.216399,-0.350142 -0.232252,-0.797825 -0.03523,-0.994849 0.197025,-0.197025 0.358227,-0.029 0.358227,0.373395 0,0.402392 0.310112,0.539963 0.689137,0.305712 0.42697,-0.263881 0.527109,-0.163742 0.263228,0.263228 -0.527746,0.853909 -0.773812,0.864041 -1.275364,0.05252 z m 5.789435,-0.557197 c 0,-0.82075 0.135482,-1.156512 0.301073,-0.746137 0.16559,0.410376 0.16559,1.081899 0,1.492274 -0.165591,0.410376 -0.301073,0.07461 -0.301073,-0.746137 z M 13.185318,48.457008 c 0,-0.820751 0.135483,-1.156512 0.301073,-0.746137 0.16559,0.410375 0.16559,1.081899 0,1.492274 -0.16559,0.410375 -0.301073,0.07461 -0.301073,-0.746137 z m 2.29339,0.348197 c 0,-0.465092 -0.335762,-0.981105 -0.746137,-1.146694 -0.445737,-0.179859 -0.325577,-0.320046 0.298455,-0.348198 0.66236,-0.02988 1.044591,0.389712 1.044591,1.146695 0,0.6566 -0.134304,1.193819 -0.298454,1.193819 -0.164151,0 -0.298455,-0.38053 -0.298455,-0.845622 z m 6.61313,-0.09949 c 0.02864,-0.695365 0.170084,-0.836807 0.360633,-0.360633 0.17243,0.430894 0.151223,0.945729 -0.04713,1.144077 -0.198349,0.198348 -0.339428,-0.154202 -0.313509,-0.783444 z m 52.528047,0 c 0.02865,-0.695365 0.170083,-0.836807 0.360629,-0.360633 0.172429,0.430894 0.151227,0.945729 -0.0471,1.144077 -0.198353,0.198348 -0.339426,-0.154202 -0.313509,-0.783444 z m 2.387638,0 c 0.02865,-0.695365 0.170083,-0.836807 0.360629,-0.360633 0.172429,0.430894 0.151227,0.945729 -0.0471,1.144077 -0.198353,0.198348 -0.339427,-0.154202 -0.313509,-0.783444 z m -6.936131,-1.482244 c -0.612465,-0.990993 -0.06274,-1.128413 0.794218,-0.198538 0.423316,0.459338 0.506322,0.83516 0.184451,0.83516 -0.321866,0 -0.762266,-0.28648 -0.978669,-0.636622 z m -50.077485,-1.57604 c -0.323934,-0.850715 -0.255371,-0.919278 0.334147,-0.334147 0.407939,0.404904 0.591341,0.886554 0.40756,1.070335 -0.183781,0.183781 -0.517549,-0.147503 -0.741707,-0.736188 z m 58.804345,0.3458 c -0.02591,-0.534328 0.42294,-1.340156 0.997466,-1.790729 0.90772,-0.711884 0.957329,-0.701907 0.378601,0.07614 -0.366293,0.49245 -0.815151,1.298278 -0.997465,1.790728 -0.277283,0.748972 -0.339182,0.736524 -0.378602,-0.07614 z m -9.81354,-2.013045 c -0.18897,-0.492451 -0.0834,-0.895365 0.234591,-0.895365 0.317998,0 0.578179,0.402914 0.578179,0.895365 0,0.49245 -0.10557,0.895364 -0.234592,0.895364 -0.129028,0 -0.389203,-0.402914 -0.578178,-0.895364 z M 38.161273,42.487912 c 0,-0.3283 0.284462,-0.59691 0.632137,-0.59691 0.347675,0 0.466128,0.26861 0.263227,0.59691 -0.202901,0.3283 -0.487362,0.596909 -0.632137,0.596909 -0.144775,0 -0.263227,-0.268609 -0.263227,-0.596909 z M 24.891047,41.790453 c 0.346865,-0.346866 0.983002,-0.513219 1.413637,-0.369674 0.447053,0.149017 0.176478,0.419592 -0.630665,0.630665 -0.992867,0.25964 -1.22592,0.181956 -0.782972,-0.260991 z m 4.913491,0.462867 c 0,-0.129026 0.416865,-0.394559 0.926367,-0.590073 0.531205,-0.203842 0.770802,-0.103772 0.561682,0.234592 -0.35054,0.567186 -1.488049,0.838926 -1.488049,0.355481 z m 42.679037,-1.556137 c -0.509313,-0.984901 -0.791717,-1.790729 -0.627567,-1.790729 0.16415,0 0.715163,0.805828 1.224477,1.790729 0.509313,0.984901 0.791717,1.790729 0.627566,1.790729 -0.16415,0 -0.715163,-0.805828 -1.224476,-1.790729 z m -35.128617,0.194671 c 0.377278,-0.271219 0.822801,-1.164649 0.990052,-1.9854 0.261884,-1.28514 0.29095,-1.250102 0.209405,0.252422 -0.05342,0.984258 -0.484938,1.849608 -0.990052,1.985399 -0.598519,0.160902 -0.667944,0.07722 -0.209405,-0.252421 z m -1.487075,-1.38849 c 0,-0.820751 0.135483,-1.156513 0.301073,-0.746137 0.16559,0.410375 0.16559,1.081898 0,1.492274 -0.16559,0.410375 -0.301073,0.07461 -0.301073,-0.746137 z M 13.10935,38.01109 c 0,-0.3283 0.260383,-0.999824 0.578629,-1.492274 0.318246,-0.492451 0.578629,-0.626755 0.578629,-0.298455 0,0.3283 -0.260383,0.999824 -0.578629,1.492274 -0.318246,0.49245 -0.578629,0.626755 -0.578629,0.298455 z m 20.276646,0.111676 c 0,-0.102728 0.87298,-0.975708 1.939956,-1.939956 l 1.939956,-1.753178 -1.753178,1.939956 c -1.634207,1.808311 -2.126734,2.214327 -2.126734,1.753178 z m 30.410258,-2.051632 -2.057052,-2.238411 2.238411,2.05705 c 2.083465,1.914657 2.512864,2.419772 2.057052,2.419772 -0.09975,0 -1.107034,-1.007285 -2.238411,-2.238411 z m 21.893075,1.31997 c -0.576006,-1.501045 -0.406084,-1.888356 0.297577,-0.678291 0.34841,0.599149 0.507731,1.215105 0.354045,1.36879 -0.153686,0.153686 -0.446918,-0.157039 -0.651622,-0.690499 z M 75.518323,36.732841 c -0.297147,-0.774347 -0.205152,-0.838014 0.438741,-0.303633 0.448094,0.371888 1.034528,0.477033 1.303179,0.233656 0.268657,-0.243376 0.295243,-0.106741 0.05909,0.303634 -0.593639,1.031559 -1.353314,0.933001 -1.801002,-0.233657 z M 19.060165,35.360224 c 0,-0.308925 0.265533,-0.72579 0.590073,-0.926366 0.338364,-0.209121 0.438434,0.03048 0.234592,0.561681 -0.39682,1.034097 -0.824665,1.223299 -0.824665,0.364685 z m 5.676334,-0.641347 c 0.367317,-0.594332 0.204998,-0.682532 -0.653909,-0.355319 -0.916506,0.349157 -0.994915,0.286568 -0.396375,-0.316398 0.537292,-0.541267 0.92777,-0.570023 1.395056,-0.102737 0.467287,0.467287 0.441472,0.77713 -0.09223,1.106975 -0.511692,0.316243 -0.589879,0.213296 -0.252545,-0.332521 z M 39.12414,34.618865 c 0.172393,-0.278938 0.563491,-0.352623 0.869107,-0.163742 0.780986,0.482676 0.693046,0.670904 -0.313443,0.670904 -0.478009,0 -0.728058,-0.228223 -0.555664,-0.507162 z m 24.190438,-0.507546 c -0.775051,-0.645679 -1.094959,-1.173961 -0.710914,-1.173961 0.389681,0 0.508508,-0.329745 0.268884,-0.746137 -0.236161,-0.410375 -0.274393,-0.611832 -0.08497,-0.447682 0.18943,0.16415 0.299643,0.471711 0.24493,0.683469 -0.05474,0.211757 0.412208,0.950433 1.03762,1.641501 1.416682,1.565418 1.09407,1.583698 -0.75555,0.04281 z m 10.867253,0.29257 c -0.559597,-1.458283 0.319567,-1.802934 1.449732,-0.568328 0.987467,1.078717 0.982221,1.089668 -0.125972,0.262925 -1.041142,-0.776722 -1.117349,-0.758597 -0.764874,0.181919 0.215317,0.574525 0.257179,1.044592 0.09303,1.044592 -0.16415,0 -0.457513,-0.414499 -0.651914,-0.921108 z M 29.207629,34.195435 c 0,-0.416363 -0.321515,-0.546599 -0.746137,-0.302241 -0.410376,0.236161 -0.567065,0.229629 -0.348197,-0.01452 0.218866,-0.244143 0.62178,-0.437777 0.895364,-0.430296 0.273583,0.0075 1.168948,-0.574505 1.989698,-1.293302 l 1.492274,-1.306904 -1.492274,1.790728 c -0.82075,0.984901 -1.559426,1.90265 -1.641501,2.039442 -0.08207,0.136791 -0.149227,-0.08052 -0.149227,-0.48291 z m 2.438966,-1.030186 c 0.792521,-1.023712 1.561006,-1.754248 1.707747,-1.623414 0.14674,0.130834 -0.501685,0.968416 -1.440946,1.861294 l -1.707746,1.623413 z m 6.514678,0.369019 c 0,-0.328301 0.284462,-0.59691 0.632137,-0.59691 0.347675,0 0.466128,0.268609 0.263227,0.59691 -0.202901,0.3283 -0.487362,0.596909 -0.632137,0.596909 -0.144775,0 -0.263227,-0.268609 -0.263227,-0.596909 z M 26.223081,32.711992 c 0,-0.123952 0.470066,-0.594018 1.044591,-1.044592 0.946732,-0.742478 0.967845,-0.721366 0.225367,0.225366 -0.779785,0.994301 -1.269958,1.310503 -1.269958,0.819226 z m 45.885897,-0.819226 c -0.742478,-0.946732 -0.721365,-0.967844 0.22537,-0.225366 0.994302,0.779784 1.310503,1.269958 0.819222,1.269958 -0.123948,0 -0.594014,-0.470066 -1.044592,-1.044592 z m -8.447363,-1.58989 c -0.988351,-0.749809 -0.991783,-0.832783 -0.04942,-1.194404 0.556994,-0.21374 1.303567,-0.09529 1.659045,0.263225 0.466276,0.470259 0.313759,0.527717 -0.547498,0.206263 -1.060607,-0.39586 -1.102408,-0.3332 -0.374596,0.561545 0.97948,1.204134 0.754726,1.25754 -0.687539,0.163371 z m 3.350287,-0.02535 c 0,-0.47801 0.228222,-0.728058 0.507164,-0.555665 0.278936,0.172394 0.352624,0.563492 0.163738,0.869107 -0.482673,0.780986 -0.670902,0.693047 -0.670902,-0.313442 z M 26.81999,28.460536 c 0.771055,-0.820751 1.536223,-1.492274 1.700374,-1.492274 0.16415,0 -0.332409,0.671523 -1.103464,1.492274 -0.771055,0.820751 -1.536223,1.492274 -1.700374,1.492274 -0.16415,0 0.332409,-0.671523 1.103464,-1.492274 z m 45.31995,-0.149227 -1.447094,-1.641502 1.641502,1.447097 c 1.53423,1.352529 1.915238,1.835906 1.447094,1.835906 -0.106919,0 -0.845595,-0.738676 -1.641502,-1.641501 z M 30.699903,28.162081 c 0.594215,-0.6566 1.214696,-1.193819 1.378846,-1.193819 0.16415,0 -0.187722,0.537219 -0.781937,1.193819 -0.594215,0.656601 -1.214696,1.19382 -1.378846,1.19382 -0.16415,0 0.187721,-0.537219 0.781937,-1.19382 z m 37.582055,-0.02568 c -0.906682,-1.001877 -0.93143,-1.153425 -0.138662,-0.849212 0.530736,0.203662 1.111613,0.75244 1.290847,1.219507 0.445957,1.162156 0.14801,1.066398 -1.152185,-0.370295 z M 25.626171,26.669807 c 1.113704,-1.149051 2.159221,-2.089183 2.323372,-2.089183 0.16415,0 -0.612759,0.940132 -1.726462,2.089183 -1.113704,1.149051 -2.159222,2.089184 -2.323372,2.089184 -0.16415,0 0.612758,-0.940133 1.726462,-2.089184 z m 48.054996,0.302391 c -0.945672,-0.987066 -1.506349,-1.794665 -1.245948,-1.794665 0.260396,0 1.012801,0.685669 1.671998,1.523709 0.659203,0.83804 1.345357,1.376905 1.524782,1.197479 0.179425,-0.179427 -0.17699,-0.932248 -0.792034,-1.672936 l -1.118256,-1.346707 1.446903,1.336415 c 0.981385,0.906441 1.251456,1.531861 0.839428,1.943891 -0.412029,0.41203 -1.160673,0.03007 -2.326873,-1.187186 z m -34.052165,0.553261 c -0.216399,-0.350143 -0.265435,-0.764641 -0.108968,-0.921108 0.156466,-0.156468 0.443543,0.130013 0.637947,0.636622 0.403621,1.051819 0.0596,1.236832 -0.528979,0.284486 z m 16.223701,-1.452561 c 0.188971,-0.492451 0.44915,-0.895365 0.578175,-0.895365 0.129026,0 0.234592,0.402914 0.234592,0.895365 0,0.49245 -0.260179,0.895364 -0.578175,0.895364 -0.317997,0 -0.423564,-0.402914 -0.234592,-0.895364 z m 9.581465,0.03832 c -0.59417,-0.450492 -0.84939,-0.961793 -0.567154,-1.136225 0.282237,-0.174431 0.837805,0.202696 1.234594,0.838061 0.847523,1.357093 0.773082,1.390348 -0.66744,0.298164 z M 25.327716,25.177533 c 0.594215,-0.6566 1.214696,-1.193819 1.378846,-1.193819 0.164151,0 -0.187721,0.537219 -0.781936,1.193819 -0.594215,0.656601 -1.214696,1.19382 -1.378846,1.19382 -0.164151,0 0.187721,-0.537219 0.781936,-1.19382 z m 21.637973,0.798498 c 0.410376,-0.16559 1.081899,-0.16559 1.492274,0 0.410376,0.16559 0.07461,0.301072 -0.746137,0.301072 -0.82075,0 -1.156512,-0.135482 -0.746137,-0.301072 z m 5.409494,-0.01243 c 0.430894,-0.17243 0.945728,-0.151223 1.144077,0.04713 0.198347,0.198348 -0.154202,0.339427 -0.783444,0.313509 -0.695366,-0.02864 -0.836808,-0.170084 -0.360633,-0.360633 z m -9.550554,-0.59691 c 0.430894,-0.172429 0.945729,-0.151223 1.144077,0.04713 0.198348,0.198349 -0.154202,0.339428 -0.783444,0.313509 -0.695366,-0.02864 -0.836808,-0.170084 -0.360633,-0.360633 z M 20.53,22.32379 c 1.629161,-1.713444 3.086182,-3.115353 3.237825,-3.115353 0.151644,0 -0.355147,0.671524 -1.126202,1.492274 -0.771055,0.820751 -1.187902,1.492274 -0.926326,1.492274 0.261576,0 0.135817,0.409406 -0.279465,0.90979 -0.415282,0.500384 -0.6159,1.048947 -0.445818,1.219029 0.170082,0.170083 1.014188,-0.528541 1.875789,-1.552497 0.861602,-1.023956 1.566549,-1.622773 1.566549,-1.330706 0,0.292067 -0.797892,1.29546 -1.773093,2.229762 -1.549071,1.484104 -1.822346,1.570374 -2.162935,0.682816 -0.365059,-0.951331 -0.470533,-0.949041 -1.659137,0.03602 -0.698113,0.578566 0.06365,-0.34997 1.692813,-2.063414 z m 56.194671,1.128492 c -1.264893,-1.320269 -1.466254,-1.833144 -0.857812,-2.184883 0.437296,-0.252798 0.589866,-0.233734 0.339044,0.04236 -0.250821,0.276099 0.269499,1.259296 1.156268,2.184884 0.886769,0.925589 1.478002,1.682888 1.313852,1.682888 -0.16415,0 -1.042258,-0.776363 -1.951352,-1.725251 z m 3.822639,0.836459 c -0.405701,-0.488836 -0.945373,-0.760402 -1.199275,-0.603482 -0.253901,0.156921 -0.793573,-0.114646 -1.199275,-0.603481 -0.405695,-0.488836 -0.523615,-0.888793 -0.262037,-0.888793 0.261578,0 -0.170418,-0.738675 -0.95998,-1.641501 -0.789568,-0.902826 -0.03056,-0.308552 1.686676,1.320607 1.717243,1.629161 3.122255,3.03936 3.122255,3.133776 0,0.41082 -0.505338,0.10587 -1.188364,-0.717126 z M 47.002996,23.575957 c 0.430894,-0.17243 0.945729,-0.151224 1.144077,0.04713 0.198348,0.198348 -0.154202,0.339427 -0.783444,0.313509 -0.695365,-0.02864 -0.836807,-0.170084 -0.360633,-0.360633 z m 4.775277,0 c 0.430894,-0.17243 0.945729,-0.151224 1.144077,0.04713 0.198348,0.198348 -0.154202,0.339427 -0.783444,0.313509 -0.695366,-0.02864 -0.836807,-0.170084 -0.360633,-0.360633 z m -7.647904,-1.781455 c 0.49245,-0.207588 1.117271,-0.672918 1.38849,-1.034066 0.31717,-0.422337 0.406014,-0.337154 0.248991,0.23873 -0.134274,0.49245 -0.759095,0.95778 -1.38849,1.034066 -0.804063,0.09746 -0.878105,0.02647 -0.248991,-0.23873 z m 10.632452,-0.0093 c 0.430894,-0.17243 0.945729,-0.151224 1.144077,0.04713 0.198348,0.198348 -0.154202,0.339427 -0.783444,0.313508 -0.695365,-0.02864 -0.836807,-0.170084 -0.360633,-0.360633 z m 9.662474,-1.38297 c -0.650613,-0.420457 -0.681772,-0.581127 -0.113997,-0.587769 0.455227,-0.0053 0.602144,-0.320571 0.351979,-0.755277 -0.236161,-0.410376 -0.199469,-0.536905 0.08154,-0.281178 0.42383,0.385707 0.987963,2.241924 0.672258,2.211994 -0.05303,-0.005 -0.499327,-0.269524 -0.991778,-0.58777 z M 35.4173,19.48284 c 0.06755,-0.460217 0.352722,-1.04599 0.633727,-1.301718 0.281004,-0.255727 0.331873,-0.152139 0.113043,0.230196 -0.218831,0.382335 -0.07402,0.803106 0.321802,0.935047 0.470308,0.156769 0.388585,0.366943 -0.235854,0.606562 -0.61748,0.23695 -0.91208,0.07064 -0.832718,-0.470087 z m 2.869666,-1.109563 c 0.423319,-0.459339 0.863721,-0.745819 0.978671,-0.636623 0.354055,0.336334 -0.543271,1.471783 -1.163126,1.471783 -0.321869,0 -0.238864,-0.375822 0.184455,-0.83516 z m 22.855326,0.238251 c 0.202901,-0.328301 0.487363,-0.59691 0.632138,-0.59691 0.144775,0 0.263227,0.268609 0.263227,0.59691 0,0.3283 -0.284462,0.596909 -0.632138,0.596909 -0.347675,0 -0.466127,-0.268609 -0.263227,-0.596909 z m -14.32583,-1.600337 c 0.656601,-0.180673 1.415726,-0.633184 1.686945,-1.005581 0.325825,-0.447375 0.411218,-0.37332 0.2517,0.218279 -0.132784,0.492451 -0.891909,0.944962 -1.686945,1.005581 -1.139794,0.08691 -1.193028,0.04074 -0.2517,-0.218279 z m 4.924504,0.0112 c 0.410376,-0.16559 1.081899,-0.16559 1.492274,0 0.410376,0.16559 0.07461,0.301073 -0.746137,0.301073 -0.82075,0 -1.156512,-0.135483 -0.746137,-0.301073 z M 32.62991,16.14982 c 0.404904,-0.407939 0.886555,-0.591341 1.070335,-0.40756 0.183782,0.18378 -0.147503,0.517549 -0.736188,0.741707 -0.850714,0.323934 -0.919278,0.25537 -0.334147,-0.334147 z m 33.586114,0.07407 c -0.537989,-0.347676 -0.611611,-0.582277 -0.184457,-0.587769 0.391,-0.005 0.87692,0.259469 1.079822,0.587769 0.458008,0.741078 0.25137,0.741078 -0.895365,0 z M 36.58049,14.57637 c 0.216921,-0.350985 0.05696,-0.774196 -0.355454,-0.940467 -0.536707,-0.216379 -0.547778,-0.315708 -0.03895,-0.349438 1.027211,-0.06809 1.520649,0.988248 0.698874,1.496132 -0.41655,0.257443 -0.539548,0.174134 -0.304472,-0.206227 z m 10.098105,0.04005 c 0.580773,-0.151342 1.386601,-0.141389 1.790729,0.02212 0.404127,0.163509 -0.07105,0.287335 -1.055952,0.27517 -0.984901,-0.01216 -1.315551,-0.145943 -0.734777,-0.297286 z m 4.775277,0 c 0.580773,-0.151342 1.386601,-0.141389 1.790729,0.02212 0.404127,0.163509 -0.07105,0.287335 -1.055953,0.27517 -0.9849,-0.01216 -1.31555,-0.145943 -0.734776,-0.297286 z m 10.907734,-0.142011 c -0.396931,-0.642243 0.771374,-1.532533 1.307524,-0.996382 0.197022,0.197025 0.029,0.358227 -0.373397,0.358227 -0.402394,0 -0.565613,0.268609 -0.362712,0.596909 0.202902,0.328301 0.234604,0.59691 0.07045,0.59691 -0.164151,0 -0.452989,-0.250049 -0.641869,-0.555664 z M 47.430992,12.074033 c -0.215458,-0.348619 0.0055,-0.786291 0.491033,-0.972605 1.295486,-0.497125 4.266623,-0.04752 4.266623,0.645639 0,0.819973 -4.271532,1.11353 -4.757656,0.326966 z m 3.720024,-0.438636 c -0.570698,-0.149402 -1.645135,-0.154822 -2.387638,-0.01204 -0.742503,0.142776 -0.275569,0.265014 1.037632,0.27164 1.313201,0.0066 1.920704,-0.110193 1.350006,-0.259595 z"
         id="path3742" />
      <path
         style="fill:#b9b9b9;fill-opacity:1;stroke-width:0.59691"
         d="m 18.351335,93.414383 c 0.430894,-0.172429 0.945729,-0.151227 1.144077,0.0471 0.198348,0.198347 -0.154202,0.339427 -0.783444,0.313509 -0.695365,-0.02865 -0.836807,-0.170083 -0.360633,-0.360629 z m 24.033184,-2.03197 c -4.019424,-0.788595 -8.401614,-2.361529 -8.401614,-3.015659 0,-0.321292 0.250049,-0.429632 0.555665,-0.240751 0.305615,0.188886 0.695818,0.116648 0.867117,-0.160521 0.366038,-0.59226 9.458289,1.568696 9.9668,2.368812 0.190714,0.300078 1.317294,0.703093 2.50351,0.895591 2.37285,0.38506 6.757585,-0.235517 6.126072,-0.867029 -0.555069,-0.555067 9.391044,-2.943374 10.124772,-2.431201 0.889998,0.621245 4.476822,-1.075673 4.476822,-2.117979 0,-0.496748 0.604371,-1.213404 1.343046,-1.592566 0.738676,-0.379169 2.597309,-1.729415 4.130292,-3.000546 1.832853,-1.519785 2.886703,-2.05738 3.077696,-1.570021 0.369201,0.942096 3.448329,-2.551031 3.110257,-3.528446 -0.130908,-0.378465 0.09343,-1.141399 0.498533,-1.695403 0.665005,-0.909451 0.811666,-0.916763 1.51002,-0.0753 0.661502,0.79706 0.268084,1.463378 -2.717496,4.602472 -9.673744,10.171166 -24.097055,14.9937 -37.171492,12.428547 z m 4.431943,-3.903216 c -3.377688,-0.410841 -8.186701,-1.531461 -10.222655,-2.382135 -1.640073,-0.685264 -1.894722,-1.003542 -1.306618,-1.633108 0.600539,-0.642884 1.355239,-0.587515 4.243093,0.311288 1.931947,0.601285 4.025917,1.093252 4.653268,1.093252 0.627351,0 1.073486,0.335761 0.991411,0.746137 -0.240999,1.204993 7.377727,1.375906 8.046703,0.180511 0.285219,-0.509653 1.134065,-0.926648 1.886325,-0.926648 0.752261,0 2.598092,-0.370281 4.101847,-0.822846 1.677879,-0.504962 2.947716,-0.609224 3.287065,-0.269875 0.704306,0.704306 3.831617,-0.658976 3.537281,-1.541996 -0.269386,-0.808144 6.80798,-5.803567 7.736354,-5.460565 0.888154,0.328139 2.725919,-1.68861 2.496688,-2.739845 -0.0965,-0.442537 0.52451,-1.826138 1.380025,-3.07467 l 1.555481,-2.270053 0.396676,1.580468 c 1.0925,4.352867 -12.001315,14.301894 -21.441662,16.291937 -3.701574,0.780298 -8.968827,1.206718 -11.341282,0.918148 z m -4.612523,-5.329615 c -3.851895,-0.933733 -9.414853,-3.564487 -9.414853,-4.452342 0,-0.321824 -1.007285,-1.700136 -2.238411,-3.062923 l -2.238411,-2.477789 3.133132,2.326843 c 1.723222,1.279762 3.133421,2.655704 3.133776,3.057651 8.95e-4,1.019928 3.634733,2.835942 4.116122,2.057041 0.2459,-0.397877 1.669435,-0.253568 4.122397,0.417896 2.060737,0.564097 3.570337,1.202086 3.354666,1.417756 -0.21567,0.215669 0.314531,0.569493 1.178226,0.786267 1.876734,0.471027 7.072611,-0.214834 6.661899,-0.879379 -0.372503,-0.602724 6.713366,-2.584583 7.500811,-2.097917 1.039646,0.642538 4.105822,-1.005201 4.105822,-2.206434 0,-0.616769 0.220259,-1.121402 0.489465,-1.121402 0.269207,0 1.576857,-0.930761 2.905888,-2.068364 1.329025,-1.137596 2.587179,-1.897599 2.795888,-1.68889 0.639953,0.639953 3.39016,-2.36714 3.078174,-3.365692 -0.391806,-1.254036 2.878035,-7.630557 3.761837,-7.335956 2.050057,0.68335 -1.300331,7.029842 -6.407024,12.136535 -8.001747,8.001753 -19.186637,11.187907 -30.039404,8.557099 z m 3.435584,-3.875119 C 31.900739,75.923684 22.493705,64.89683 22.493705,51.143101 c 0,-7.564286 2.702611,-14.19443 7.907743,-19.399562 10.618926,-10.618926 28.180198,-10.618926 38.799124,0 12.303453,12.303456 9.977714,33.36588 -4.707987,42.636561 -5.090719,3.21363 -13.128295,4.873904 -18.853062,3.894363 z m 8.161966,-1.427014 c -0.179883,-0.565948 4.890427,-2.151142 7.639258,-2.388354 2.021082,-0.174411 4.245729,-1.429909 4.08624,-2.306107 -0.17108,-0.939858 4.575348,-5.788692 5.666439,-5.788692 0.848293,0 2.092634,-2.49658 2.082582,-4.178367 -0.01248,-2.089359 1.64026,-7.162915 2.333374,-7.162915 0.841624,0 1.088297,-4.539876 0.264872,-4.874762 -0.843105,-0.342889 -2.362992,-7.604567 -1.642647,-7.848216 0.407701,-0.137902 0.231332,-1.062868 -0.486422,-2.551099 -0.619317,-1.284117 -1.244043,-2.005086 -1.38828,-1.602155 -0.146536,0.40936 -1.205978,-0.512441 -2.401141,-2.089183 -1.176389,-1.551983 -2.349687,-2.906292 -2.607325,-3.009579 -0.257644,-0.103285 -0.320248,-0.573981 -0.139116,-1.045991 0.413295,-1.077033 -2.164561,-3.28786 -3.403751,-2.919132 -0.504998,0.150265 -1.971994,-0.264056 -3.259988,-0.920713 -1.287995,-0.656657 -2.687927,-1.193922 -3.110961,-1.193922 -0.423034,0 -0.769153,-0.37302 -0.769153,-0.828934 0,-0.962156 -4.165312,-1.931011 -4.713225,-1.096299 -0.566103,0.862423 -7.689205,1.427883 -7.954674,0.631474 -0.162236,-0.486707 -0.833857,-0.467526 -2.46367,0.07036 -1.232347,0.406711 -2.136196,1.049815 -2.008553,1.429119 0.277748,0.825353 -5.445321,4.273856 -6.765317,4.076521 -1.141402,-0.170637 -4.14186,2.939892 -3.171972,3.288336 0.893015,0.320826 -2.73261,6.567049 -4.02059,6.926667 -1.046341,0.292149 -2.096145,4.184035 -1.208428,4.47994 0.690743,0.230248 0.09816,7.454397 -0.651613,7.943804 -0.768177,0.501417 0.376646,4.455205 1.23567,4.267538 0.37569,-0.08208 0.683073,0.21368 0.683073,0.657234 0,0.443553 0.627454,1.988057 1.394342,3.432229 0.766888,1.444176 1.28474,2.952483 1.150781,3.351791 -0.354908,1.057939 1.756534,3.710122 2.971126,3.732046 1.335041,0.02411 6.266003,3.76958 6.00268,4.559548 -0.293737,0.881212 4.087799,2.850136 4.577885,2.057159 0.475649,-0.769613 7.182661,0.424314 7.182661,1.278599 0,0.301857 1.141589,0.466228 2.536865,0.365278 1.395277,-0.100955 2.456816,-0.435403 2.358978,-0.743223 z M 44.358794,73.595683 C 38.086492,71.970238 31.831106,66.754066 28.886315,60.693655 c -1.567617,-3.226171 -1.740253,-4.173602 -1.740253,-9.550554 0,-5.376951 0.172636,-6.324383 1.740253,-9.550554 2.221005,-4.570848 6.793293,-9.143136 11.364141,-11.364141 3.226171,-1.567617 4.173602,-1.740253 9.550554,-1.740253 5.376952,0 6.324383,0.172636 9.550554,1.740253 4.570847,2.221005 9.143139,6.793293 11.364144,11.364141 1.567616,3.226171 1.740248,4.173603 1.740248,9.550554 0,5.376952 -0.172632,6.324383 -1.740248,9.550554 -2.231326,4.592085 -6.821221,9.169415 -11.333177,11.302155 -2.765967,1.307435 -4.612486,1.722878 -8.356734,1.880176 -2.643435,0.111049 -5.643586,-0.0151 -6.667003,-0.280303 z m 10.187873,-1.51467 c 0.780994,-0.935298 6.246106,-2.982202 6.713741,-2.514572 0.533372,0.533375 3.848683,-2.046128 3.597659,-2.799189 -0.12245,-0.367356 0.670216,-1.837616 1.76148,-3.267251 1.091264,-1.429634 1.984116,-2.863221 1.984116,-3.18575 0,-0.322529 0.274238,-0.416927 0.60942,-0.209775 0.335177,0.207153 1.034492,-0.640711 1.554031,-1.884142 0.646554,-1.547418 0.736783,-2.330061 0.285949,-2.48034 -0.888368,-0.296122 -0.876359,-7.707849 0.01295,-8.004291 1.006718,-0.335573 -0.0042,-4.146733 -1.182663,-4.458342 -1.040682,-0.275192 -4.582135,-6.016319 -4.379943,-7.100422 0.169749,-0.910149 -2.978884,-3.687241 -3.268606,-2.882908 -0.150391,0.417515 -1.239865,0.146894 -3.003827,-0.746137 -1.5223,-0.770696 -3.125223,-1.401265 -3.562034,-1.401265 -0.436811,0 -0.794201,-0.372426 -0.794201,-0.827615 0,-1.178714 -3.699749,-1.673445 -4.542628,-0.607441 -0.364492,0.46098 -1.440703,0.838147 -2.391578,0.838147 -0.950876,0 -2.585346,0.245635 -3.632156,0.545856 -1.156719,0.331743 -1.975182,0.330183 -2.086568,-0.004 -0.268906,-0.806695 -4.060539,0.769717 -4.060539,1.688234 0,0.93931 -4.997564,5.828188 -5.957756,5.828188 -1.002555,0 -2.865892,3.383621 -2.029746,3.6858 0.479807,0.173399 0.445189,0.864524 -0.123027,2.456117 -0.434894,1.21815 -0.802505,2.969346 -0.816915,3.891547 -0.01441,0.922201 -0.276249,1.522191 -0.581865,1.33331 -0.305615,-0.188881 -0.735153,-0.053 -0.954529,0.301957 -0.520185,0.841679 0.23525,4.866877 0.842915,4.491319 0.514331,-0.317874 2.76273,6.08587 2.547152,7.254631 -0.190967,1.035334 1.688839,3.744706 2.598139,3.744706 1.3556,0 6.781828,3.854813 6.671761,4.739642 -0.126425,1.016328 3.662918,2.325685 4.272153,1.476187 0.217898,-0.303833 1.470615,-0.387454 2.783817,-0.185824 1.313201,0.201624 2.170328,0.404711 1.904728,0.451294 -0.2656,0.04656 -0.301992,0.377438 -0.08087,0.735225 0.503483,0.81465 4.433274,0.146374 5.309436,-0.902897 z m 9.065948,-13.072271 c -0.455788,-1.090853 -1.728933,-3.038271 -2.829209,-4.327595 -1.100277,-1.289324 -1.429155,-1.856663 -0.730841,-1.26075 0.749755,0.639808 1.418471,0.842699 1.633065,0.495479 0.199871,-0.323398 -0.346905,-1.146724 -1.215058,-1.829613 -1.826294,-1.436563 -2.880661,-1.610759 -2.415707,-0.39911 0.261726,0.682048 -0.03799,0.73889 -1.573699,0.298455 -1.043349,-0.299229 -3.779036,-0.58704 -6.079306,-0.63958 -2.300269,-0.05254 -3.309327,-0.203863 -2.242351,-0.336274 1.066975,-0.13241 1.939956,-0.475318 1.939956,-0.762017 0,-0.2867 -0.872981,-0.629607 -1.939956,-0.762017 -1.203959,-0.149411 -0.648954,-0.276989 1.462893,-0.336275 5.34147,-0.14995 9.24476,0.933407 11.853004,3.289798 2.132881,1.926929 4.740618,6.242867 4.740618,7.845961 0,1.500198 -1.815095,0.610251 -2.603409,-1.276462 z M 42.469875,49.851936 C 40.392766,48.82817 37.567173,45.47246 38.782246,45.47246 c 0.461425,0 0.570339,-0.56295 0.31758,-1.641502 -0.317458,-1.354637 -0.121777,-1.210829 1.119731,0.822901 0.847041,1.387549 2.410512,2.894374 3.578038,3.448401 1.386622,0.657996 1.961849,1.27528 1.736246,1.863193 -0.418839,1.091476 -0.635449,1.083451 -3.063966,-0.113517 z m -5.228511,-5.613008 c -0.216399,-0.350143 -0.265436,-0.764642 -0.108969,-0.921108 0.156467,-0.156468 0.443543,0.130013 0.637948,0.636622 0.403621,1.051819 0.0596,1.236832 -0.528979,0.284486 z m -0.801578,-4.257505 c -0.06194,-2.50901 0.135431,-2.956297 1.870714,-4.239532 2.284979,-1.689731 4.307615,-2.781156 2.79047,-1.505751 -2.006776,1.687016 -3.091316,4.057124 -2.754852,6.020333 0.182206,1.063142 0.192771,1.597222 0.02348,1.186847 -0.442879,-1.073556 -1.26966,-0.918126 -1.587586,0.298455 -0.150139,0.574525 -0.30414,-0.217633 -0.342223,-1.760352 z M 12.246215,67.369193 C 9.6262615,60.636502 8.750191,55.527662 9.1054901,49.053917 9.6976644,38.264156 13.326995,30.208824 21.096864,22.438955 c 5.399507,-5.399507 10.227508,-8.368547 17.064409,-10.493972 6.393396,-1.9875511 16.886078,-1.9875511 23.279474,0 6.836901,2.125425 11.664903,5.094465 17.06441,10.493972 6.527344,6.527345 11.325942,15.155971 8.938178,16.072241 -0.735834,0.282366 -0.87766,0.06736 -0.63569,-0.96369 0.329016,-1.401943 -0.88502,-4.339752 -1.630775,-3.946266 -0.241295,0.127315 -1.407418,-1.245869 -2.591388,-3.05152 -1.183964,-1.805652 -2.537522,-3.714224 -3.007905,-4.241271 -0.470377,-0.527047 -0.693388,-1.380033 -0.495578,-1.895523 0.352594,-0.918846 -2.137032,-3.082966 -3.572433,-3.10535 -1.084101,-0.01691 -8.696632,-5.208827 -8.696632,-5.931303 0,-0.895947 -3.68384,-2.273317 -4.335958,-1.621194 -0.278237,0.278234 -2.035409,0.145908 -3.904831,-0.294059 -1.869421,-0.439967 -4.137624,-0.804136 -5.04045,-0.809264 -0.991237,-0.0056 -1.582386,-0.304899 -1.492274,-0.755461 0.09949,-0.497425 -0.646652,-0.746137 -2.238411,-0.746137 -1.591759,0 -2.337896,0.248712 -2.238411,0.746137 0.09011,0.450562 -0.501037,0.74983 -1.492274,0.755461 -0.902826,0.0051 -3.171029,0.369297 -5.04045,0.809264 -1.869422,0.439967 -3.626595,0.572293 -3.90483,0.294059 -0.652122,-0.652123 -4.335959,0.725247 -4.335959,1.621194 0,0.760275 -7.779746,5.998052 -8.544843,5.752886 -0.989862,-0.31719 -4.066853,2.39089 -3.72596,3.279243 0.187062,0.487475 -0.423535,1.867237 -1.356883,3.066136 -0.933348,1.1989 -2.193063,3.03819 -2.799367,4.087312 -0.606304,1.049123 -1.29126,1.790756 -1.522124,1.648074 -0.850563,-0.525677 -1.936148,1.635594 -2.04825,4.077822 -0.185937,4.050781 -1.612728,10.233996 -2.480873,10.75124 -1.0758447,0.640993 -1.0679649,4.596389 0.0092,4.596389 0.818459,0 1.612916,4.343584 1.856005,10.147463 0.131131,3.130809 0.743606,4.775277 1.778536,4.775277 0.404628,0 1.039322,0.666402 1.410429,1.480897 0.565267,1.240623 0.502366,1.573149 -0.387683,2.049489 -0.921123,0.49297 -1.284345,-0.0018 -2.731015,-3.719308 z m 11.759122,2.427333 c -3.313705,-3.612318 -6.121345,-12.167969 -6.121345,-18.653425 0,-14.534944 10.430968,-27.695585 24.598746,-31.035975 14.353377,-3.38415 29.632281,3.867885 35.957869,17.067174 2.269749,4.736166 2.494366,5.875547 1.378336,6.991577 -0.565936,0.565939 -0.996045,-0.02379 -1.980814,-2.715939 -0.691848,-1.891367 -1.049093,-3.721687 -0.793878,-4.067378 0.593471,-0.803871 -1.688628,-4.606672 -2.585168,-4.307825 -0.828564,0.276188 -5.258511,-4.426244 -5.258511,-5.581959 0,-1.045814 -2.295881,-2.606131 -3.879912,-2.636846 -1.984373,-0.03848 -7.46137,-2.295275 -7.46137,-3.074458 0,-0.979166 -4.33898,-1.792741 -4.646169,-0.871174 -0.296062,0.888185 -7.1137,0.922293 -7.408776,0.03706 -0.288726,-0.866179 -4.658524,-0.04762 -4.658524,0.872646 0,0.911708 -7.056715,4.01227 -7.499849,3.295265 -0.429652,-0.695192 -3.539777,1.691815 -3.551887,2.726058 -0.01316,1.123837 -4.612668,6.018585 -5.470458,5.821601 -0.890249,-0.204436 -2.902371,3.45723 -2.186876,3.979685 0.620156,0.452838 -1.804788,7.907989 -2.545896,7.827 -0.603883,-0.06599 -1.486184,3.603507 -1.040014,4.325425 0.160498,0.259692 0.518872,0.331839 0.796386,0.160326 0.277513,-0.171513 0.594714,1.436387 0.704891,3.573112 0.110177,2.136724 -0.02445,3.95925 -0.299164,4.050057 -0.796792,0.263378 0.251447,4.607391 1.111793,4.607391 1.01933,0 3.944053,5.209206 4.105424,7.312142 0.06928,0.902826 0.09024,1.641502 0.04658,1.641502 -0.04366,0 -0.633796,-0.604371 -1.31141,-1.343047 z m -6.340331,0.391621 C 18.144137,69.976112 17.845353,68.735895 16.700041,66.182698 14.420589,61.10121 13.566107,57.060995 13.539325,51.23801 13.509883,44.836456 14.42625,40.974246 17.456552,34.728087 20.8584,27.716085 26.373994,22.200491 33.385996,18.798643 c 6.244527,-3.02951 9.868897,-3.887955 16.415014,-3.887955 6.549424,0 10.17589,0.859641 16.402813,3.888228 6.147351,2.989886 11.921939,8.398526 15.095044,14.138442 2.738831,4.954346 3.242443,6.874788 1.934453,7.376712 -0.766086,0.293974 -0.896713,0.116972 -0.601088,-0.814462 0.480303,-1.513304 -0.196467,-3.71158 -1.054602,-3.425536 -0.817491,0.272497 -5.92465,-7.245277 -5.447033,-8.018074 0.496575,-0.803474 -1.534589,-2.878465 -2.817664,-2.878465 -1.293909,0 -8.052346,-4.653478 -7.848985,-5.404369 0.223554,-0.825465 -2.222169,-1.900476 -3.5398,-1.555909 -1.562397,0.408576 -9.065134,-1.176087 -9.329969,-1.970595 -0.250008,-0.75002 -4.104011,-0.835054 -4.384928,-0.09675 -0.299014,0.785868 -8.790786,2.353279 -9.020228,1.664954 -0.260277,-0.78083 -3.713844,0.388494 -3.713844,1.257449 0,0.95054 -7.299849,5.532822 -8.23962,5.172198 -0.871671,-0.334492 -2.954844,1.645104 -2.678883,2.545687 0.261411,0.853098 -4.859271,7.937887 -5.737277,7.937887 -1.007492,0 -2.21536,2.677296 -1.52109,3.371566 0.313344,0.313344 0.171149,1.737341 -0.344614,3.451093 -0.482943,1.604696 -0.878078,3.546462 -0.878078,4.315036 0,0.8442 -0.354458,1.397407 -0.895364,1.397407 -0.625334,0 -0.895365,0.630071 -0.895365,2.089183 0,1.149051 0.220903,2.089184 0.490895,2.089184 0.70325,0 1.936054,8.551484 1.321736,9.16837 -0.664089,0.666865 0.481399,3.962137 1.379538,3.968566 0.600706,0.0042 3.628412,4.770501 3.227778,5.081151 -0.08382,0.06499 -0.958224,0.279598 -1.943124,0.476907 -0.984901,0.197302 -1.478418,0.220522 -1.096705,0.05157 z"
         id="path3740" />
      <path
         style="fill:#a3a3a3;fill-opacity:1;stroke-width:0.59691"
         d="M 16.565414,97.764732 C 4.4757277,94.50942 2.5436145,78.359505 13.477273,71.951955 c 3.667965,-2.149573 9.343426,-2.304752 13.100778,-0.358212 5.1659,2.676263 8.573651,9.17123 7.737485,14.747184 -0.812361,5.417211 -5.515784,10.349362 -11.077003,11.615669 -3.256483,0.741517 -3.200751,0.743117 -6.673119,-0.191864 z m 9.250047,-5.908044 c 5.815228,-4.435492 4.892111,-13.080874 -1.732374,-16.224397 -6.367092,-3.021384 -14.020141,2.543652 -13.223058,9.615354 0.812832,7.211426 9.267303,10.947591 14.955432,6.609043 z m -6.755296,0.381485 c 0,-0.542884 -1.074437,-1.978971 -2.387638,-3.191312 -2.061966,-1.903598 -2.387639,-2.548697 -2.387639,-4.7295 0,-3.538671 2.45736,-6.014873 5.969097,-6.014873 7.086163,0 8.166503,9.604019 1.540957,13.698831 -2.396122,1.480885 -2.734777,1.510217 -2.734777,0.236854 z"
         id="path3738" />
    </g>
  </g>
</svg>
