<?xml version="1.0" encoding="UTF-8" standalone="no"?>
<!-- Created with Inkscape (http://www.inkscape.org/) -->

<svg
   version="1.1"
   id="svg776"
   width="216"
   height="216"
   viewBox="0 0 216 216"
   sodipodi:docname="add_list_type_device_7100.svg"
   inkscape:version="1.1.1 (3bf5ae0d25, 2021-09-20)"
   xmlns:inkscape="http://www.inkscape.org/namespaces/inkscape"
   xmlns:sodipodi="http://sodipodi.sourceforge.net/DTD/sodipodi-0.dtd"
   xmlns="http://www.w3.org/2000/svg"
   xmlns:svg="http://www.w3.org/2000/svg">
  <defs
     id="defs780" />
  <sodipodi:namedview
     id="namedview778"
     pagecolor="#505050"
     bordercolor="#ffffff"
     borderopacity="1"
     inkscape:pageshadow="0"
     inkscape:pageopacity="0"
     inkscape:pagecheckerboard="1"
     showgrid="false"
     inkscape:zoom="2.962963"
     inkscape:cx="107.83125"
     inkscape:cy="108"
     inkscape:window-width="1440"
     inkscape:window-height="890"
     inkscape:window-x="-6"
     inkscape:window-y="-6"
     inkscape:window-maximized="1"
     inkscape:current-layer="g782" />
  <g
     inkscape:groupmode="layer"
     inkscape:label="Image"
     id="g782">
    <g
       id="g866"
       transform="translate(12.825,-2.3625)">
      <path
         style="fill:#d0d0d0;fill-opacity:1"
         d="M 90,204.01182 C 90,203.45532 91.485,203 93.3,203 c 3.953732,0 5.694642,-1.50779 5.715313,-4.95 0.01209,-2.01357 0.219235,-2.23445 0.984687,-1.05 1.37786,2.13208 1.22818,5.99244 -0.25,6.44801 -3.625968,1.1175 -9.75,1.47163 -9.75,0.56381 z m 12.75,0.28245 c 1.2375,-0.23836 3.2625,-0.23836 4.5,0 1.2375,0.23835 0.225,0.43337 -2.25,0.43337 -2.475,0 -3.4875,-0.19502 -2.25,-0.43337 z m 14.41992,-1.16809 c -1.74323,-1.10511 -1.10954,-6.35376 0.83008,-6.87519 1.21449,-0.3265 1.24171,-0.22218 0.14299,0.54803 -1.8501,1.29695 -0.57701,4.92845 2.01631,5.75154 1.13134,0.35907 4.59582,0.40364 7.69884,0.099 3.74401,-0.36753 4.80089,-0.26708 3.14186,0.29861 -3.30839,1.12808 -12.15184,1.24189 -13.83008,0.17798 z M 135.5,201 c 0.33992,-0.55 0.81648,-1 1.05902,-1 0.24254,0 0.44098,0.45 0.44098,1 0,0.55 -0.47656,1 -1.05902,1 -0.58246,0 -0.7809,-0.45 -0.44098,-1 z m -34,-16.5 c 0,-6.76996 0.3375,-12.10043 0.75,-11.84549 0.4125,0.25494 0.75,5.58541 0.75,11.84549 0,6.26008 -0.3375,11.59055 -0.75,11.84549 -0.4125,0.25494 -0.75,-5.07553 -0.75,-11.84549 z M 98.232003,182 c 0,-1.925 0.205795,-2.7125 0.457323,-1.75 0.251527,0.9625 0.251527,2.5375 0,3.5 -0.251528,0.9625 -0.457323,0.175 -0.457323,-1.75 z m 20.167817,-9.83791 c 1.13956,-1.84384 1.47517,-21.57679 1.53772,-90.41209 0.0421,-46.387822 0.39694,-68.75 1.09077,-68.75 0.69699,0 0.97929,25.400214 0.87619,78.836774 -0.14938,77.414906 -0.18785,78.859086 -2.13295,80.073826 -1.08946,0.68038 -1.70674,0.79355 -1.37173,0.25149 z M 93.272364,167 c 0,-2.475 0.195016,-3.4875 0.433369,-2.25 0.238353,1.2375 0.238353,3.2625 0,4.5 -0.238353,1.2375 -0.433369,0.225 -0.433369,-2.25 z M 104,149.61663 c 0,-0.88773 4.04569,-1.35173 4.55802,-0.52275 C 108.86603,149.59225 107.96648,150 106.55902,150 105.15156,150 104,149.82748 104,149.61663 Z M 93.470672,75.5 c 1.18e-4,-34.65 0.125631,-48.679977 0.278917,-31.177727 0.153286,17.50225 0.153189,45.85225 -2.15e-4,62.999997 C 93.595969,124.47002 93.470553,110.15 93.470672,75.5 Z m 3.781511,49 c 0.0111,-2.2 0.215885,-2.98225 0.455078,-1.73834 0.239193,1.24391 0.230112,3.04391 -0.02018,4 C 97.436788,127.71775 97.241084,126.7 97.252183,124.5 Z m 0,-9 c 0.0111,-2.2 0.215885,-2.98225 0.455078,-1.73834 0.239193,1.24391 0.230112,3.04391 -0.02018,4 C 97.436788,118.71775 97.241084,117.7 97.252183,115.5 Z m 0.02018,-9.5 c 0,-2.475 0.195016,-3.4875 0.433369,-2.25 0.238353,1.2375 0.238353,3.2625 0,4.5 -0.238353,1.2375 -0.433369,0.225 -0.433369,-2.25 z m -0.02018,-9.5 c 0.0111,-2.2 0.215885,-2.982253 0.455078,-1.738341 0.239193,1.243913 0.230112,3.043913 -0.02018,4 C 97.436788,99.717747 97.241084,98.7 97.252183,96.5 Z m 0,-9 c 0.0111,-2.2 0.215885,-2.982253 0.455078,-1.738341 0.239193,1.243913 0.230112,3.043913 -0.02018,4 C 97.436788,90.717747 97.241084,89.7 97.252183,87.5 Z m 0.02018,-9.5 c 0,-2.475 0.195016,-3.4875 0.433369,-2.25 0.238353,1.2375 0.238353,3.2625 0,4.5 -0.238353,1.2375 -0.433369,0.225 -0.433369,-2.25 z m -0.02018,-9.5 c 0.0111,-2.2 0.215885,-2.982253 0.455078,-1.738341 0.239193,1.243913 0.230112,3.043913 -0.02018,4 C 97.436788,71.717747 97.241084,70.7 97.252183,68.5 Z m 0.02018,-9.5 c 0,-2.475 0.195016,-3.4875 0.433369,-2.25 0.238353,1.2375 0.238353,3.2625 0,4.5 -0.238353,1.2375 -0.433369,0.225 -0.433369,-2.25 z m -0.02018,-9.5 c 0.0111,-2.2 0.215885,-2.982253 0.455078,-1.738341 0.239193,1.243913 0.230112,3.043913 -0.02018,4 C 97.436788,52.717747 97.241084,51.7 97.252183,49.5 Z M 97.402488,29 c 0,-8.525 0.153369,-12.0125 0.34082,-7.75 0.187451,4.2625 0.187451,11.2375 0,15.5 -0.187451,4.2625 -0.34082,0.775 -0.34082,-7.75 z M 100.99028,9.5431145 C 101.59548,6.8596987 101.46635,6 100.45805,6 c -0.732234,0 -1.514297,1.2375 -1.73792,2.75 -0.383609,2.594586 -0.401318,2.580457 -0.313359,-0.25 0.07155,-2.3022572 0.558391,-3 2.093229,-3 2.48094,0 3.30513,4.586915 1.14615,6.37871 -1.24748,1.035311 -1.34101,0.702225 -0.65587,-2.3355955 z M 112.19495,8.5 c 0.0204,-1.65 0.2445,-2.2039356 0.49804,-1.2309681 0.25354,0.9729675 0.23687,2.3229675 -0.037,3.0000001 C 112.38201,10.946064 112.17457,10.15 112.19495,8.5 Z m -8.116,0.809017 c -0.11918,-1.7979434 1.74356,-2.5703813 4.51878,-1.8738434 1.56062,0.3916891 2.21493,1.0589382 1.76008,1.794889 -0.54925,0.8887034 -0.82058,0.8816284 -1.12423,-0.029317 -0.52768,-1.5830338 -3.92744,-1.5464026 -4.5713,0.049254 -0.36368,0.9013074 -0.52641,0.9177704 -0.58333,0.059017 z"
         id="path882" />
      <path
         style="fill:#b9b9b9;fill-opacity:1"
         d="m 85.5,204.28693 c 1.1,-0.26458 2.4275,-0.88738 2.95,-1.38399 C 88.9725,202.40632 90.356559,202 91.525686,202 c 2.835862,0 6.532612,-4.08436 7.407942,-8.18467 l 0.707754,-3.31533 0.498368,3.19719 c 0.2741,1.75845 0.12979,2.96939 -0.320694,2.69098 C 99.368575,196.10976 99,196.94352 99,198.24098 99,201.49244 97.194351,203 93.3,203 c -1.815,0 -3.3,0.45 -3.3,1 0,0.55 -1.4625,0.9478 -3.25,0.884 -2.104391,-0.0751 -2.54501,-0.28558 -1.25,-0.59707 z m 33.18264,-2.74715 C 117.75719,200.61433 117,199.15312 117,198.29265 c 0,-1.2661 0.81062,-1.45242 4.25,-0.97687 8.25252,1.14104 14.93269,2.90125 14.09645,3.71439 -0.46555,0.45269 -4.02676,1.13113 -7.91381,1.50766 -5.90202,0.57171 -7.34481,0.40715 -8.75,-0.99805 z M 88.8125,198.31689 c 0.721875,-0.28887 1.584375,-0.25335 1.916667,0.0789 0.332291,0.33229 -0.258334,0.56864 -1.3125,0.52522 -1.164943,-0.048 -1.4019,-0.28494 -0.604167,-0.60416 z M 101.29966,178 c 0,-3.025 0.18747,-4.2625 0.41659,-2.75 0.22913,1.5125 0.22913,3.9875 0,5.5 -0.22912,1.5125 -0.41659,0.275 -0.41659,-2.75 z m -3.104711,-1.5 c 0.02038,-1.65 0.244498,-2.20394 0.498042,-1.23097 0.253543,0.97297 0.236869,2.32297 -0.03705,3 C 98.382014,178.94606 98.174569,178.15 98.194949,176.5 Z m 21.000001,-22 c 0.0204,-1.65 0.2445,-2.20394 0.49804,-1.23097 0.25354,0.97297 0.23687,2.32297 -0.037,3 -0.27393,0.67703 -0.48137,-0.11903 -0.46099,-1.76903 z m -0.53574,-17.75 C 117.58646,113.30024 117.86267,13 119,13 c 0.657,0 1,23.666667 1,69 0,37.95 -0.155,69 -0.34445,69 -0.18944,0 -0.6378,-6.4125 -0.99634,-14.25 z m -21.580263,-7.33333 c 0.04798,-1.16495 0.284941,-1.4019 0.604167,-0.60417 0.288871,0.72187 0.253344,1.58437 -0.07895,1.91667 -0.332292,0.33229 -0.568641,-0.25834 -0.52522,-1.3125 z M 99,9 c 0,-1.8259553 0.519244,-3 1.32681,-3 0.90541,0 1.18696,0.9528086 0.8865,3 -0.24217,1.65 -0.83923,3 -1.326809,3 C 99.398925,12 99,10.65 99,9 Z m 7.5,0 C 106.16008,8.45 106.5835,8 107.44098,8 108.29844,8 109,8.45 109,9 c 0,0.55 -0.42344,1 -0.94098,1 -0.51754,0 -1.2191,-0.45 -1.55902,-1 z"
         id="path880" />
      <path
         style="fill:#a3a3a3;fill-opacity:1"
         d="m 80.565983,203.10676 c -1.215868,-1.96731 0.300746,-2.87783 6.679056,-4.00984 C 90.685267,198.48635 94.625,197.69809 96,197.34524 l 2.5,-0.64155 -2.424314,2.64816 C 94.742313,200.80833 92.631371,202 91.384703,202 c -1.246668,0 -2.534157,0.43281 -2.861088,0.96179 -0.378658,0.61268 -1.549637,0.59862 -3.226048,-0.0388 -1.866746,-0.70974 -2.837401,-0.6676 -3.339598,0.14497 -0.51305,0.83013 -0.896293,0.8408 -1.391986,0.0388 z M 100.78511,191.25 c 0.51815,-8.21716 0.93759,-8.99483 1.07871,-2 0.0749,3.7125 -0.20456,6.75 -0.62103,6.75 -0.41646,0 -0.62242,-2.1375 -0.45768,-4.75 z M 99.232003,188 c 0,-1.925 0.205795,-2.7125 0.457323,-1.75 0.251527,0.9625 0.251527,2.5375 0,3.5 -0.251528,0.9625 -0.457323,0.175 -0.457323,-1.75 z m 1.162557,-27.5 c 0.002,-7.7 0.15853,-10.71781 0.34883,-6.70625 0.1903,4.01156 0.18902,10.31156 -0.003,14 C 100.5487,171.48219 100.393,168.2 100.39456,160.5 Z m 15.8843,11.8637 c 1.63119,-0.47818 1.77037,-2.14141 1.67661,-20.03586 -0.0562,-10.73292 0.16536,-19.78201 0.49244,-20.10909 0.32709,-0.32708 0.47261,8.59654 0.32339,19.83027 -0.26019,19.58888 -0.35317,20.43337 -2.2713,20.63055 -1.60936,0.16544 -1.65255,0.10374 -0.22114,-0.31587 z M 105,8.940983 c 0,-0.5824593 0.45,-0.7809017 1,-0.440983 0.55,0.3399187 1,0.8164763 1,1.059017 C 107,9.8015576 106.55,10 106,10 c -0.55,0 -1,-0.4765576 -1,-1.059017 z"
         id="path878" />
      <path
         style="fill:#8c8c8c;fill-opacity:1"
         d="m 82,203 c 0,-1.17371 0.76862,-1.17371 3.5,0 1.77225,0.76156 1.686844,0.86743 -0.75,0.92971 C 83.2375,203.96837 82,203.55 82,203 Z m 17.75,-15.40088 c -1.061557,-11.18297 -0.978481,-15.2276 0.28679,-13.96233 0.62225,0.62225 0.92212,5.20021 0.75,11.45 L 100.5,195.5 Z M 115,160 c 0,-6.6 0.38812,-12 0.86249,-12 0.47436,0 0.745,-1.07024 0.60141,-2.37832 -0.14359,-1.30808 0.0972,-3.89558 0.53515,-5.75 0.50153,-2.12377 0.83411,3.19785 0.89859,14.37832 0.0874,15.15661 -0.1168,17.75 -1.39764,17.75 -1.25,0 -1.5,-2 -1.5,-12 z M 94.473227,102 c 0,-38.225 0.124355,-53.8625 0.276344,-34.75 0.15199,19.1125 0.15199,50.3875 0,69.5 -0.151989,19.1125 -0.276344,3.475 -0.276344,-34.75 z M 94.157895,30 c 0,-1.375 0.226973,-1.9375 0.504386,-1.25 0.277412,0.6875 0.277412,1.8125 0,2.5 -0.277413,0.6875 -0.504386,0.125 -0.504386,-1.25 z m 0.07411,-6 c 0,-1.925 0.205795,-2.7125 0.457323,-1.75 0.251527,0.9625 0.251527,2.5375 0,3.5 C 94.4378,26.7125 94.232005,25.925 94.232005,24 Z"
         id="path876" />
      <path
         style="fill:#767676;fill-opacity:1"
         d="m 98.76412,162.75218 c 0.480119,-18.63645 0.863385,-20.46077 1.050898,-5.00218 0.10174,8.3875 -0.152518,15.25098 -0.565018,15.25218 -0.4125,10e-4 -0.631146,-4.6113 -0.48588,-10.25 z M 94.252183,17.5 c 0.0111,-2.2 0.215885,-2.982253 0.455078,-1.738341 0.239193,1.243913 0.230112,3.043913 -0.02018,4 C 94.436788,20.717747 94.241084,19.7 94.252183,17.5 Z"
         id="path874" />
      <path
         style="fill:#606060;fill-opacity:1"
         d="m 95.462034,125 c 0,-26.125 0.129187,-36.8125 0.287082,-23.75 0.157895,13.0625 0.157895,34.4375 0,47.5 -0.157895,13.0625 -0.287082,2.375 -0.287082,-23.75 z m 2.937907,32.5 c 0.0014,-8.25 0.156287,-11.49193 0.34419,-7.20429 0.187904,4.28763 0.186758,11.03763 -0.0025,15 C 98.55228,169.25807 98.39854,165.75 98.399941,157.5 Z m -3.03471,-90 c 0.0026,-5.5 0.170532,-7.622415 0.373173,-4.716478 0.202642,2.905937 0.200512,7.405937 -0.0047,10 C 95.528425,75.377585 95.362627,73 95.365231,67.5 Z m -0.05536,-17 c 0.0056,-3.3 0.192301,-4.529441 0.414862,-2.732091 0.222562,1.79735 0.217969,4.49735 -0.0102,6 C 95.486352,55.270559 95.304256,53.8 95.309869,50.5 Z m 0.01827,-13 c 0.0044,-3.85 0.185183,-5.302463 0.401658,-3.227696 0.216476,2.074768 0.212846,5.224768 -0.0081,7 C 95.50082,43.047537 95.323704,41.35 95.328141,37.5 Z m 0.01467,-15 c 0.0036,-4.4 0.179441,-6.075605 0.390687,-3.723567 0.211245,2.352038 0.208273,5.952038 -0.0066,8 C 95.512015,28.824395 95.339178,26.9 95.342811,22.5 Z"
         id="path872" />
      <path
         style="fill:#494949;fill-opacity:1"
         d="m 96,152.44098 c 0,-10.92193 0.386392,-19.32021 0.875,-19.01823 0.48125,0.29742 0.935119,1.56148 1.008598,2.80901 0.07348,1.24753 0.209956,3.16824 0.303282,4.26824 C 98.77689,147.45427 97.852038,172 97,172 c -0.632582,0 -1,-7.18634 -1,-19.55902 z m 0.07895,-51.02431 c 0.04798,-1.16495 0.284941,-1.4019 0.604167,-0.60417 0.288871,0.72187 0.253344,1.58437 -0.07895,1.91667 -0.332292,0.33229 -0.568641,-0.25834 -0.52522,-1.3125 z M 95.710251,46 C 95.422595,44.9 95.59511,44 96.09362,44 96.592129,44 97,44.9 97,46 c 0,1.1 -0.172516,2 -0.383369,2 -0.210852,0 -0.618724,-0.9 -0.90638,-2 z M 95.564293,29.706872 c 0.375531,-0.986221 0.934692,-1.541221 1.242579,-1.233333 0.307887,0.307887 6.34e-4,1.114794 -0.682784,1.793128 -0.987616,0.980267 -1.10248,0.865403 -0.559795,-0.559795 z m 0.514654,-5.290205 c 0.04798,-1.164943 0.284941,-1.4019 0.604167,-0.604167 0.288871,0.721875 0.253344,1.584375 -0.07895,1.916667 -0.332292,0.332291 -0.568641,-0.258334 -0.52522,-1.3125 z"
         id="path870" />
      <path
         style="fill:#333333;fill-opacity:1"
         d="m 33.146765,214.96637 c -9.015068,-1.85826 -18.362511,-9.71076 -22.431428,-18.84397 -2.855219,-6.4089 -2.8441143,-17.86069 0.02356,-24.29807 2.906345,-6.52419 9.478799,-13.29449 16.006251,-16.48807 7.889598,-3.86002 18.620102,-3.86002 26.5097,0 6.527452,3.19358 13.099906,9.96388 16.006251,16.48807 3.19372,7.16929 2.934329,18.21201 -0.597359,25.43052 -3.118542,6.37407 -9.960214,13.11351 -15.988072,15.74916 -5.206393,2.27648 -13.810577,3.14106 -19.528905,1.96236 z M 36,201.06739 c 0,-2.0233 -0.601045,-3.12338 -1.938412,-3.54784 -3.042735,-0.96573 -7.897845,-7.1298 -8.611327,-10.93299 -1.942782,-10.35592 8.949991,-19.91978 18.934575,-16.62457 4.411658,1.45598 9.320463,6.9502 10.147259,11.3574 1.332613,7.10344 -3.512667,16.25793 -11.032063,20.84359 -2.789017,1.70086 -2.83897,1.82981 -0.710194,1.83328 1.259411,0.002 3.959411,-0.85247 6,-1.89894 C 55.966328,198.417 60,191.90517 60,184 c 0,-11.3031 -8.6969,-20 -20,-20 -21.443523,0 -27.699446,28.21669 -8.5,38.33837 4.133757,2.17926 4.5,2.07581 4.5,-1.27098 z M 96.194949,130.5 c 0.02038,-1.65 0.244498,-2.20394 0.498042,-1.23097 0.253543,0.97297 0.236869,2.32297 -0.03705,3 C 96.382014,132.94606 96.174569,132.15 96.194949,130.5 Z m 0.03705,-9.5 c 0,-1.925 0.205795,-2.7125 0.457323,-1.75 0.251527,0.9625 0.251527,2.5375 0,3.5 -0.251528,0.9625 -0.457323,0.175 -0.457323,-1.75 z m 0.06766,-9 c 0,-3.025 0.187466,-4.2625 0.41659,-2.75 0.229125,1.5125 0.229125,3.9875 0,5.5 -0.229124,1.5125 -0.41659,0.275 -0.41659,-2.75 z m -0.220717,-7.58333 c 0.04798,-1.16495 0.284941,-1.4019 0.604167,-0.60417 0.288871,0.72187 0.253344,1.58437 -0.07895,1.91667 -0.332292,0.33229 -0.568641,-0.25834 -0.52522,-1.3125 z M 96.194949,97.5 c 0.02038,-1.65 0.244498,-2.203936 0.498042,-1.230968 0.253543,0.972967 0.236869,2.322967 -0.03705,3 C 96.382014,99.946064 96.174569,99.15 96.194949,97.5 Z m 0.11492,-9 c 0.0056,-3.3 0.192301,-4.529441 0.414862,-2.732091 0.222562,1.79735 0.217969,4.49735 -0.0102,6 C 96.486352,93.270559 96.304256,91.8 96.309869,88.5 Z M 96.232003,79 c 0,-1.925 0.205795,-2.7125 0.457323,-1.75 0.251527,0.9625 0.251527,2.5375 0,3.5 -0.251528,0.9625 -0.457323,0.175 -0.457323,-1.75 z m 0.06766,-9 c 0,-3.025 0.187466,-4.2625 0.41659,-2.75 0.229125,1.5125 0.229125,3.9875 0,5.5 -0.229124,1.5125 -0.41659,0.275 -0.41659,-2.75 z m 0.02041,-16 c 0,-3.575 0.181495,-5.0375 0.403322,-3.25 0.221826,1.7875 0.221826,4.7125 0,6.5 -0.221827,1.7875 -0.403322,0.325 -0.403322,-3.25 z M 96.157895,42 c 0,-1.375 0.226973,-1.9375 0.504386,-1.25 0.277412,0.6875 0.277412,1.8125 0,2.5 -0.277413,0.6875 -0.504386,0.125 -0.504386,-1.25 z m -0.07895,-4.583333 c 0.04798,-1.164943 0.284941,-1.4019 0.604167,-0.604167 0.288871,0.721875 0.253344,1.584375 -0.07895,1.916667 -0.332292,0.332291 -0.568641,-0.258334 -0.52522,-1.3125 z m 0,-6 c 0.04798,-1.164943 0.284941,-1.4019 0.604167,-0.604167 0.288871,0.721875 0.253344,1.584375 -0.07895,1.916667 -0.332292,0.332291 -0.568641,-0.258334 -0.52522,-1.3125 z"
         id="path868" />
    </g>
  </g>
</svg>
