<?xml version="1.0" encoding="UTF-8" standalone="no"?>
<!-- Created with Inkscape (http://www.inkscape.org/) -->

<svg
   width="100mm"
   height="100mm"
   viewBox="0 0 100 100"
   version="1.1"
   id="svg5"
   inkscape:version="1.1.1 (3bf5ae0d25, 2021-09-20)"
   sodipodi:docname="add_list_type_device_605b.svg"
   xmlns:inkscape="http://www.inkscape.org/namespaces/inkscape"
   xmlns:sodipodi="http://sodipodi.sourceforge.net/DTD/sodipodi-0.dtd"
   xmlns="http://www.w3.org/2000/svg"
   xmlns:svg="http://www.w3.org/2000/svg">
  <sodipodi:namedview
     id="namedview7"
     pagecolor="#505050"
     bordercolor="#ffffff"
     borderopacity="1"
     inkscape:pageshadow="0"
     inkscape:pageopacity="0"
     inkscape:pagecheckerboard="1"
     inkscape:document-units="mm"
     showgrid="false"
     width="100mm"
     inkscape:zoom="0.58974467"
     inkscape:cx="378.97757"
     inkscape:cy="100.0433"
     inkscape:window-width="1440"
     inkscape:window-height="890"
     inkscape:window-x="-6"
     inkscape:window-y="-6"
     inkscape:window-maximized="1"
     inkscape:current-layer="layer1" />
  <defs
     id="defs2" />
  <g
     inkscape:label="Laag 1"
     inkscape:groupmode="layer"
     id="layer1">
    <g
       id="g29"
       transform="translate(-3.140481,-0.44864052)">
      <path
         style="fill:#d0d0d0;fill-opacity:1;stroke-width:0.451517"
         d="m 29.02932,95.372767 c 0,-0.26299 0.152387,-0.396811 0.338638,-0.297378 0.18625,0.09943 0.694207,-0.193353 1.128792,-0.650631 0.434585,-0.457274 0.637767,-0.835929 0.451517,-0.841451 -0.186251,-0.0055 0.169319,-0.410388 0.790154,-0.899711 0.888754,-0.700483 0.998523,-0.974391 0.516191,-1.288069 -0.427321,-0.277904 -0.461461,-0.49181 -0.112879,-0.707247 0.274847,-0.169865 0.499722,-0.07406 0.499722,0.212899 0,0.346052 0.761987,0.469054 2.262871,0.365282 1.743544,-0.120551 2.209847,-0.01847 2.031826,0.44487 -0.127075,0.330727 -0.231045,0.991071 -0.231045,1.46743 0,0.740407 -0.333689,0.866104 -2.299247,0.866104 -1.61556,0 -2.640612,0.268517 -3.447267,0.903034 -1.27499,1.002909 -1.929273,1.146997 -1.929273,0.424868 z m 40.131342,-8.650864 c 0.20786,-1.253826 0.271457,-1.317422 0.41363,-0.413626 0.0924,0.587392 -0.01815,1.25412 -0.245625,1.481612 -0.250493,0.250493 -0.316753,-0.170723 -0.168005,-1.067986 z m -0.810364,-1.0301 c -0.03531,-0.826212 -0.317105,-0.894463 -3.312305,-0.802291 -3.781982,0.116388 -8.014194,-0.25196 -8.015576,-0.69763 -4.51e-4,-0.168379 2.641279,-0.204555 5.870667,-0.08039 3.422038,0.131572 5.871223,0.05309 5.870668,-0.188133 -4.52e-4,-0.227637 0.09392,-0.319015 0.209878,-0.203061 0.115959,0.115954 0.03183,0.810161 -0.186946,1.542684 -0.278085,0.931087 -0.409395,1.060121 -0.436386,0.428819 z M 45.058169,84.563011 c 0.153479,-0.248334 0.990191,-0.451517 1.859359,-0.451517 0.938564,0 1.466992,0.183357 1.301259,0.451517 -0.15348,0.248335 -0.990191,0.451517 -1.85936,0.451517 -0.938565,0 -1.466991,-0.183356 -1.301258,-0.451517 z m 30.2261,-1.395855 C 75.158237,82.963233 74.756852,82.910839 74.392302,83.050728 73.818388,83.270964 73.729489,81.436433 73.729489,69.372625 V 55.440174 l 6.095477,0.06522 c 3.352513,0.03585 6.298661,0.08667 6.546995,0.112879 0.290099,0.03061 0.451517,4.970867 0.451517,13.818927 v 13.771264 l -1.015913,0.03761 c -0.558752,0.02068 -1.481675,0.08897 -2.050943,0.15171 -0.569268,0.06275 -1.140351,-0.05633 -1.269074,-0.264603 -0.128723,-0.20828 -0.615747,-0.174407 -1.082273,0.07527 -0.537151,0.287476 -0.946374,0.295152 -1.115851,0.02095 -0.14719,-0.238162 -0.515091,-0.344765 -0.817557,-0.236898 -1.154389,0.41168 -3.968567,0.529052 -4.187598,0.174651 z M 42.574826,82.132329 c 0,-0.0952 0.406365,-0.279363 0.903034,-0.409246 0.496668,-0.129883 0.903033,-0.05199 0.903033,0.173098 0,0.225086 -0.406365,0.409246 -0.903033,0.409246 -0.496669,0 -0.903034,-0.0779 -0.903034,-0.173098 z m 6.362121,-0.653539 c -0.629753,-1.176703 -0.369188,-2.352462 0.509342,-2.298334 0.453161,0.0279 0.456231,0.08501 0.01418,0.263384 -0.708123,0.285733 -0.738731,1.373672 -0.04515,1.604867 0.285585,0.09519 0.42122,0.467152 0.30141,0.826578 -0.16102,0.483069 -0.364383,0.379662 -0.779769,-0.396495 z m -3.65302,-1.430947 c 0,-0.248335 0.304774,-0.451517 0.677275,-0.451517 0.372502,0 0.677276,0.203182 0.677276,0.451517 0,0.248334 -0.304774,0.451517 -0.677276,0.451517 -0.372501,0 -0.677275,-0.203183 -0.677275,-0.451517 z M 32.47718,79.367976 c -0.142395,-0.371075 -0.07409,-0.674684 0.151799,-0.674684 0.612055,0 0.992124,0.802391 0.51867,1.095001 -0.226363,0.139898 -0.528075,-0.04924 -0.670469,-0.420317 z M 48.515835,74.62964 c 0,-0.620835 0.102485,-0.874813 0.227741,-0.564396 0.125255,0.310418 0.125255,0.818375 0,1.128793 -0.125256,0.310417 -0.227741,0.05644 -0.227741,-0.564397 z m -3.231908,-0.409245 c 0,-0.638468 0.233212,-0.799777 0.903034,-0.624615 0.496668,0.129883 0.903033,0.517226 0.903033,0.860762 0,0.343537 -0.406365,0.624615 -0.903033,0.624615 -0.58724,0 -0.903034,-0.301012 -0.903034,-0.860762 z M 26.997494,72.562429 c -0.828674,-0.627622 -0.627159,-0.672913 2.447226,-0.550033 2.177997,0.08705 3.415559,0.331386 3.536882,0.698298 0.281206,0.850441 -4.832773,0.723736 -5.984108,-0.148265 z m -12.409799,-3.46387 c 0.0038,-0.807086 0.203874,-1.772204 0.444603,-2.144705 0.316561,-0.489846 0.439602,-0.08374 0.444602,1.46743 0.0038,1.179587 -0.196268,2.144705 -0.444602,2.144705 -0.248335,0 -0.448406,-0.660344 -0.444603,-1.46743 z M 11.544789,65.823861 C 10.605423,64.052312 9.2007605,58.534098 8.6829637,54.581177 7.7211443,47.238537 9.1723334,39.217891 12.775617,31.961298 c 1.233111,-2.483343 2.745969,-5.124717 3.361905,-5.86972 l 1.119884,-1.35455 0.0085,2.031826 c 0.0061,1.454732 -0.371817,2.67304 -1.330613,4.28941 -0.736533,1.241671 -1.342617,2.003606 -1.346851,1.693188 -0.01451,-1.063847 -0.743654,-0.564031 -1.504382,1.031232 -0.855009,1.792972 -0.964816,2.772082 -0.335864,2.994793 0.236425,0.08372 0.0027,1.553046 -0.52676,3.311124 -1.259388,4.182024 -1.425117,15.726892 -0.283082,19.719832 0.601499,2.103043 0.620726,2.519179 0.107296,2.32216 -0.754139,-0.289391 -0.784159,0.169797 -0.133184,2.03719 0.603057,1.729928 0.328091,2.968294 -0.367715,1.656078 z m -1.02766,-16.479165 c 0,-1.241671 -0.203183,-2.257584 -0.451517,-2.257584 -0.2483341,0 -0.4515167,1.015913 -0.4515167,2.257584 0,1.241672 0.2031826,2.257585 0.4515167,2.257585 0.248334,0 0.451517,-1.015913 0.451517,-2.257585 z m 4.22345,8.6917 c -1.496462,-6.50634 -0.816153,-15.479543 1.583232,-20.882655 0.707681,-1.593607 0.909162,-1.799669 0.934177,-0.955418 0.01754,0.592024 -0.208235,1.877885 -0.501725,2.85747 -0.404975,1.351686 -0.407086,1.859265 -0.0088,2.105446 0.384866,0.237861 0.407463,1.041319 0.08472,3.012249 -0.242081,1.478326 -0.464893,3.906961 -0.495138,5.396967 -0.03025,1.490006 -0.147912,2.353532 -0.261481,1.918947 -0.397187,-1.519883 -1.093988,-0.773909 -0.956391,1.023882 0.07636,0.997721 0.319307,1.793095 0.539877,1.767503 0.799778,-0.0928 1.165583,1.219926 1.172359,4.207126 0.0053,2.346777 -0.141771,3.047739 -0.639563,3.047739 -0.436115,0 -0.908368,-1.138654 -1.451309,-3.499256 z m 3.903853,0.225758 v -2.82198 l 6.208357,0.01594 6.208357,0.01598 0.134424,2.80602 0.134425,2.806019 H 24.987213 18.644432 Z M 50.58925,49.537959 c -0.682919,-0.370492 -1.241671,-0.97659 -1.241671,-1.346884 0,-0.585928 0.131779,-0.590633 1.015913,-0.03626 0.558752,0.35035 1.828643,0.785693 2.82198,0.96742 1.501528,0.274707 1.653798,0.392101 0.903034,0.696221 -1.32378,0.536235 -2.109934,0.473216 -3.499256,-0.280501 z M 18.394841,45.393924 C 17.864699,39.059635 18.434547,9.2793618 19.101269,8.4760117 19.822355,7.607156 29.893657,7.4955383 30.745084,8.3469659 c 0.604559,0.604559 0.798143,13.8835141 0.203183,13.9373761 -1.872444,0.169511 -4.177148,0.148277 -4.176874,-0.03848 1.89e-4,-0.128472 -0.761592,-0.177729 -1.692845,-0.10946 -4.374846,0.320713 -5.531893,0.316061 -5.531503,-0.02224 2.31e-4,-0.200907 -0.202761,-0.239711 -0.451096,-0.08623 -0.281534,0.173998 -0.451517,4.529684 -0.451517,11.569808 v 11.290757 l 3.273498,-0.06252 c 1.800423,-0.03438 4.644979,-0.04765 6.321236,-0.02948 l 3.047738,0.03303 v 2.257584 2.257584 h -6.280703 -6.280704 z m 55.334648,1.728858 v -2.221911 l 3.273497,-0.148551 c 1.800424,-0.0817 4.746571,-0.08885 6.546995,-0.01589 l 3.273497,0.13266 v 2.237804 2.237803 H 80.276483 73.729489 V 47.122784 Z M 49.204683,46.462958 c -0.169744,-0.442339 -0.290299,-1.346388 -0.267899,-2.008996 0.03797,-1.12297 0.07021,-1.102308 0.475235,0.304406 0.469474,1.63056 0.29974,3.026008 -0.207336,1.70459 z m 2.315821,-2.844901 c 0.325936,-0.13043 0.715369,-0.114389 0.865408,0.03565 0.150035,0.150035 -0.116645,0.256751 -0.592616,0.237146 -0.525994,-0.02166 -0.632981,-0.128656 -0.272792,-0.272792 z M 32.641455,33.623144 c 0,-1.693779 0.191862,-2.021693 1.918947,-3.279709 1.05542,-0.768772 2.45728,-1.679026 3.115243,-2.022788 1.115177,-0.582639 1.180417,-0.564298 0.962116,0.270488 -0.1288,0.49253 -0.902639,1.212713 -1.719644,1.600407 -2.001288,0.949673 -3.296787,2.387932 -2.560688,2.842867 0.396099,0.244803 0.232176,0.640484 -0.58235,1.405692 l -1.133624,1.064984 z m 29.851373,-2.758959 c -0.340159,-0.210229 -0.484374,-0.599207 -0.320477,-0.864396 0.355768,-0.575643 -1.244692,-1.687742 -3.078519,-2.139147 -1.062017,-0.261419 -1.26585,-0.193458 -1.05645,0.352241 0.228165,0.594578 -0.04888,0.603583 -2.296221,0.07463 -1.40563,-0.330839 -3.470011,-0.620739 -4.587515,-0.644223 -1.117504,-0.02348 -1.777848,-0.145182 -1.46743,-0.270439 0.786168,-0.317226 0.707216,-1.055519 -0.112879,-1.055519 -0.819751,0 -0.900374,-0.724327 -0.112879,-1.014095 0.310418,-0.114221 2.06513,-0.04379 3.899363,0.156514 3.636002,0.397064 9.771696,2.937531 10.277377,4.255321 0.359646,0.937228 -0.343984,1.643774 -1.14437,1.149108 z m -29.77199,-4.526394 c 0.116906,-1.170207 0.523256,-1.687016 2.018339,-2.566992 l 1.871964,-1.1018 -0.566462,1.647728 c -0.337532,0.981814 -1.153226,2.019242 -2.018339,2.566993 l -1.451878,0.919263 z m 31.978133,-0.04453 c -0.976825,-0.519964 -1.278443,-0.848329 -0.789974,-0.860028 1.350997,-0.03236 0.874715,-0.700933 -1.226613,-1.721838 -1.743121,-0.846872 -2.068051,-0.888187 -2.394705,-0.304485 -0.32917,0.588193 -0.607855,0.594779 -2.159764,0.05104 -0.980003,-0.343363 -2.736395,-0.765656 -3.903092,-0.938429 -1.590757,-0.23557 -2.058587,-0.477472 -1.870639,-0.967256 0.193588,-0.504486 -0.171391,-0.653124 -1.603747,-0.653124 -1.763507,0 -2.499796,-0.575528 -1.289979,-1.008326 1.005203,-0.359599 6.823043,0.382064 9.430494,1.202209 3.976297,1.250699 7.830553,3.553856 7.891792,4.715833 0.07218,1.369553 -0.271023,1.449334 -2.083773,0.484406 z m 0.509478,-5.688088 C 63.12939,19.525179 61.757908,18.64155 62.16071,18.64155 c 1.22981,0 0.816542,-0.785354 -0.689552,-1.310381 -1.918228,-0.668697 -2.336405,-0.624897 -2.015598,0.211114 0.198911,0.518358 0.06132,0.640771 -0.516088,0.459142 -1.788914,-0.562722 -5.800375,-1.168241 -7.960333,-1.201588 -1.269859,-0.0196 -2.054857,-0.138129 -1.74444,-0.263385 0.816424,-0.329434 0.692709,-0.962391 -0.225758,-1.155044 -0.712281,-0.149403 -0.701156,-0.212821 0.112879,-0.643472 2.56463,-1.356773 13.142622,1.141119 18.447471,4.356194 2.029428,1.22996 2.418622,1.654717 2.085877,2.276459 -0.224991,0.4204 -0.280771,0.892669 -0.123951,1.049488 0.620136,0.620134 -0.711035,0.06124 -4.322768,-1.814908 z m 9.423654,1.50899 c 2.3e-4,-0.200907 -0.202763,-0.239711 -0.451097,-0.08623 -0.61544,0.380362 -0.600473,-12.1977589 0.01588,-13.3494308 0.423622,-0.7915442 0.993093,-0.8733505 6.079593,-0.8733505 5.0865,0 5.655971,0.081806 6.079594,0.8733505 0.631198,1.1794099 0.617905,12.9773618 -0.01508,13.3685588 -0.579612,0.358221 -4.485238,0.531357 -4.484637,0.198804 2.3e-4,-0.128472 -0.761515,-0.177729 -1.692768,-0.10946 -4.374847,0.320713 -5.531895,0.316061 -5.531502,-0.02224 z m -25.171645,-0.17172 c 0.434585,-0.113569 1.145724,-0.113569 1.580309,0 0.434585,0.113569 0.07901,0.206489 -0.790155,0.206489 -0.86917,0 -1.224739,-0.09292 -0.790154,-0.206489 z M 32.726114,19.064847 c 0.108647,-0.325938 0.464216,-0.681508 0.790155,-0.790154 0.338638,-0.112879 0.507956,0.05644 0.395077,0.395077 -0.108646,0.325939 -0.464216,0.681508 -0.790154,0.790155 -0.338638,0.112879 -0.507957,-0.05644 -0.395078,-0.395078 z m 35.881765,-2.884393 c -1.451044,-0.8246 -2.380189,-1.585299 -2.064764,-1.690441 0.936297,-0.312099 0.133464,-1.065573 -1.823573,-1.711452 -1.890745,-0.624003 -2.983722,-0.315449 -1.813382,0.51193 0.544503,0.384939 0.519186,0.422749 -0.140471,0.209807 C 59.7519,12.527436 55.79901,11.732105 52.508197,11.436465 50.397355,11.246832 49.432238,11.063346 50.363492,11.02872 c 2.31052,-0.08591 2.157311,-0.96599 -0.168163,-0.96599 -1.627348,0 -1.788581,-0.087691 -1.282471,-0.6975127 1.048535,-1.2634106 9.776839,0.00678 15.833369,2.3041557 4.495947,1.705415 7.177194,3.547309 7.177194,4.930407 0,1.421935 -0.09709,1.409655 -3.315542,-0.419326 z"
         id="path43" />
      <path
         style="fill:#b9b9b9;fill-opacity:1;stroke-width:0.451517"
         d="m 31.381982,92.060431 c 0.320209,-0.346436 0.756277,-0.52422 0.969041,-0.395078 0.212763,0.129143 0.111172,0.409481 -0.225759,0.622972 -0.952766,0.6037 -1.388451,0.470119 -0.743282,-0.227894 z m 43.057034,-4.143295 c -0.932644,-0.93264 -0.967014,-4.513254 -0.04671,-4.866408 0.36455,-0.139889 0.765935,-0.0875 0.891967,0.116428 0.219031,0.3544 3.033209,0.237028 4.187598,-0.174651 0.302466,-0.107868 0.670367,-0.0014 0.817557,0.236897 0.169477,0.274211 0.5787,0.266535 1.115851,-0.02095 0.466526,-0.249676 0.954019,-0.282794 1.083311,-0.07359 0.129297,0.209206 1.157541,0.297875 2.284987,0.197051 l 2.049905,-0.183311 v 2.029501 c 0,3.163602 -0.540985,3.448559 -6.546995,3.448559 -4.059741,0 -5.275744,-0.1478 -5.837467,-0.709527 z m -5.571461,-1.548057 c 0,-0.86917 0.09292,-1.22474 0.206493,-0.790155 0.113565,0.434585 0.113565,1.145724 0,1.580309 -0.11357,0.434585 -0.206493,0.07902 -0.206493,-0.790154 z M 56.51819,79.695018 c -0.148748,-0.897263 -0.08249,-1.318478 0.168005,-1.067986 0.227492,0.227492 0.338024,0.89422 0.245625,1.481612 -0.142173,0.903797 -0.20577,0.840201 -0.41363,-0.413626 z M 39.414208,79.370567 c 0,-0.372501 0.304774,-0.677275 0.677275,-0.677275 0.372501,0 0.677275,0.304774 0.677275,0.677275 0,0.372502 -0.304774,0.677276 -0.677275,0.677276 -0.372501,0 -0.677275,-0.304774 -0.677275,-0.677276 z m 17.193288,-4.552793 c 0.02167,-0.525995 0.128655,-0.632982 0.272788,-0.272793 0.13043,0.325937 0.114392,0.71537 -0.03563,0.865409 -0.150039,0.150034 -0.25675,-0.116645 -0.237145,-0.592616 z M 39.702944,73.413322 c -0.508491,-0.508494 -0.309691,-1.041266 0.388539,-1.041266 0.372501,0 0.677275,0.19119 0.677275,0.424868 0,0.569354 -0.705083,0.977128 -1.065814,0.616398 z m 4.226432,-7.82644 c 0,-0.310409 -4.706847,-0.422471 -14.223014,-0.338638 -13.292525,0.117101 -14.223,0.07361 -14.222781,-0.664854 1.28e-4,-0.434585 0.203416,-0.790154 0.45175,-0.790154 0.248335,0 0.451517,0.203182 0.451517,0.451517 0,0.2913 4.966686,0.451517 13.997023,0.451517 12.140786,0 13.997022,0.08982 13.997022,0.677275 0,0.372501 -0.101591,0.677275 -0.225758,0.677275 -0.124167,0 -0.225759,-0.208772 -0.225759,-0.463938 z M 15.36341,62.834173 c 0.306279,-0.308575 0.670611,-0.447304 0.809627,-0.308286 0.139017,0.139017 -0.111575,0.391487 -0.55687,0.561046 -0.643501,0.245029 -0.695364,0.193168 -0.252757,-0.25276 z M 49.7415,47.651508 c -0.561628,-0.716133 -0.545658,-0.732103 0.170475,-0.170474 0.434585,0.340827 0.790154,0.696397 0.790154,0.790154 0,0.371617 -0.370781,0.132434 -0.960629,-0.61968 z m -0.305898,-3.499255 c 0.0092,-0.745003 0.110396,-0.995115 0.224873,-0.555803 0.114478,0.439311 0.106951,1.048859 -0.01671,1.35455 -0.123706,0.305692 -0.217369,-0.05374 -0.208167,-0.798747 z M 18.644432,33.555149 c 0,-7.011733 0.170057,-11.35327 0.451517,-11.527222 0.248335,-0.153479 0.451327,-0.114675 0.451096,0.08623 -3.9e-4,0.338301 1.156657,0.342953 5.531503,0.02224 0.931253,-0.06827 1.693188,0.0045 1.693188,0.161713 0,0.15721 0.767179,0.145548 1.704842,-0.02592 0.937663,-0.171463 1.953576,-0.22884 2.257584,-0.127505 0.416232,0.138744 0.552742,2.958777 0.552742,11.418524 V 44.79749 l -6.321236,0.0029 -6.321236,0.0029 v -11.2481 z m 55.085057,-9.93e-4 c 0,-7.011063 0.170059,-11.352266 0.451517,-11.526217 0.248334,-0.153479 0.451327,-0.114675 0.451097,0.08623 -3.93e-4,0.338301 1.156655,0.342953 5.531501,0.02224 0.931254,-0.06827 1.692999,-0.01901 1.692768,0.10946 -4.51e-4,0.332553 3.905025,0.159417 4.484637,-0.198804 0.337469,-0.208579 0.482469,3.165906 0.482469,11.228022 V 44.801308 H 80.276483 73.729489 V 33.554144 Z"
         id="path41" />
      <path
         style="fill:#a3a3a3;fill-opacity:1;stroke-width:0.451517"
         d="M 16.44633,98.534595 C 9.6991597,97.175746 4.9498175,91.403921 4.9498175,84.563011 c 0,-4.046047 1.2708645,-7.063719 4.2145142,-10.007365 2.1781533,-2.178154 3.0598373,-2.716181 5.8299393,-3.557574 5.280739,-1.603973 9.678868,-0.570712 13.845287,3.252696 4.103979,3.766111 5.507755,9.716358 3.603537,15.274468 -2.108613,6.154707 -9.500335,10.317715 -15.996765,9.009359 z m 6.163377,-5.190958 c 7.849881,-3.279082 7.849881,-14.282169 0,-17.561251 -5.983772,-2.499566 -12.9522422,2.15956 -12.9856955,8.682249 -0.034139,6.656464 6.9212825,11.412251 12.9856955,8.879002 z m -4.868308,-1.060238 c 0,-1.017828 -0.351503,-1.517345 -1.576217,-2.239944 -4.372496,-2.579836 -4.435711,-8.270434 -0.121098,-10.901084 2.871291,-1.750648 6.595751,-0.709351 8.472507,2.368775 2.168102,3.55597 -0.0093,8.852733 -4.6125,11.220519 -2.149156,1.105475 -2.162692,1.102667 -2.162692,-0.448266 z M 39.12713,79.825105 c -0.15639,-0.407548 -0.06784,-0.9575 0.196774,-1.222116 0.687936,-0.687936 1.991375,-0.05919 1.811677,0.873906 -0.200158,1.039338 -1.646984,1.290178 -2.008451,0.34821 z m 1.641628,-0.454538 c 0,-0.372501 -0.304774,-0.677275 -0.677275,-0.677275 -0.372501,0 -0.677275,0.304774 -0.677275,0.677275 0,0.372502 0.304774,0.677276 0.677275,0.677276 0.372501,0 0.677275,-0.304774 0.677275,-0.677276 z m -1.505056,-5.944973 c -0.685436,-0.685434 -0.234645,-1.505055 0.827781,-1.505055 1.131088,0 1.57487,1.025567 0.682447,1.577113 -0.255947,0.158184 -0.331642,-0.02307 -0.177451,-0.424869 0.178562,-0.465324 0.0089,-0.700727 -0.504996,-0.700727 -0.5024,0 -0.682716,0.237597 -0.513995,0.677275 0.279084,0.727281 0.169106,0.859156 -0.313786,0.376263 z M 16.16109,65.599303 c -0.183748,-0.29731 4.51048,-0.451517 13.744617,-0.451517 9.048102,0 14.023669,0.160199 14.023669,0.451517 0,0.291125 -4.88255,0.451517 -13.744617,0.451517 -8.676031,0 -13.847523,-0.166506 -14.023669,-0.451517 z m 34.272382,-17.722036 -0.860135,-1.015913 1.015913,0.860135 c 0.954705,0.808314 1.221461,1.171691 0.860135,1.171691 -0.08568,0 -0.542841,-0.457161 -1.015913,-1.015913 z m 0.991671,-3.425247 c -0.114915,-0.185938 0.183352,-0.367619 0.662818,-0.403736 1.036935,-0.07811 1.12816,0.134719 0.208939,0.487459 -0.36455,0.13989 -0.756841,0.102215 -0.871757,-0.08372 z"
         id="path39" />
      <path
         style="fill:#8c8c8c;fill-opacity:1;stroke-width:0.451517"
         d="m 38.661019,79.787074 c -0.355746,-0.927059 0.926983,-2.200003 1.857211,-1.843042 0.924054,0.354594 1.40294,1.583523 0.837429,2.149035 -0.280375,0.280374 -0.422671,0.06805 -0.398591,-0.594747 0.02697,-0.742258 -0.21532,-1.030786 -0.865585,-1.030786 -0.646091,0 -0.892833,0.289061 -0.867183,1.015913 0.04194,1.188442 -0.178208,1.307109 -0.563281,0.303627 z m 17.530602,-0.190748 c 0,-0.620836 0.102486,-0.874814 0.227741,-0.564396 0.125255,0.310418 0.125255,0.818374 0,1.128792 -0.125255,0.310418 -0.227741,0.05644 -0.227741,-0.564396 z M 39.066173,73.649483 c -0.849415,-0.849416 -0.663628,-1.716112 0.460914,-2.150173 1.379738,-0.532564 2.575313,0.540091 1.862898,1.671371 -0.62402,0.990917 -1.608794,1.19382 -2.323812,0.478802 z m 2.069145,-0.943973 c 0.111971,-0.581418 -0.150123,-0.784971 -1.010728,-0.784971 -1.103821,0 -1.554739,0.811205 -0.845279,1.520664 0.543679,0.54368 1.697718,0.08624 1.856007,-0.735693 z M 51.550796,46.344329 c -0.434188,-0.523164 -0.392522,-0.790838 0.20442,-1.313316 0.412365,-0.360925 0.547297,-0.411682 0.299852,-0.112794 -0.800327,0.966702 -0.480662,1.372868 0.918832,1.167465 0.931516,-0.136718 1.221435,-0.05359 0.907603,0.260245 -0.71951,0.71951 -1.732813,0.718815 -2.330707,-0.0016 z"
         id="path37" />
      <path
         style="fill:#767676;fill-opacity:1;stroke-width:0.451517"
         d="m 15.850672,63.033283 c 0.325939,-0.130429 0.715372,-0.114391 0.865407,0.03563 0.150035,0.150035 -0.116642,0.256751 -0.592616,0.237146 -0.525991,-0.02167 -0.632981,-0.128655 -0.272791,-0.272789 z M 51.70516,45.658324 c 0.09639,-0.289164 0.621279,-0.821904 1.166422,-1.183864 0.935859,-0.621389 0.991165,-0.592053 0.991165,0.525754 0,0.971961 -0.208781,1.183864 -1.166417,1.183864 -0.686739,0 -1.09435,-0.216212 -0.99117,-0.525754 z"
         id="path35" />
      <path
         style="fill:#494949;fill-opacity:1;stroke-width:0.451517"
         d="m 48.532568,92.464556 c 0.0092,-0.745003 0.110396,-0.995116 0.224874,-0.555803 0.114477,0.439312 0.10695,1.04886 -0.01671,1.35455 -0.123684,0.305691 -0.217346,-0.05374 -0.208144,-0.798747 z m 7.437259,-11.363175 c -0.411038,-0.411034 -0.381775,-2.756398 0.03761,-3.0156 0.18625,-0.11511 0.338637,0.584037 0.338637,1.55366 0,0.969624 -0.01693,1.762952 -0.03761,1.762952 -0.02068,0 -0.173084,-0.135455 -0.338638,-0.301012 z m -11.91131,-2.18233 c 0.0034,-1.241672 0.09108,-1.696038 0.194859,-1.009705 0.103784,0.686333 0.10101,1.702246 -0.0062,2.257584 -0.107173,0.555339 -0.192086,-0.0062 -0.188696,-1.247879 z m 5.324709,1.316925 c 0.02167,-0.525994 0.128655,-0.632981 0.272788,-0.272793 0.13043,0.325937 0.114392,0.71537 -0.03562,0.865409 -0.150039,0.150035 -0.256751,-0.116645 -0.237146,-0.592616 z m 0.03564,-4.703302 c 0,-0.620836 0.102485,-0.874814 0.22774,-0.564396 0.125256,0.310418 0.125256,0.818374 0,1.128792 -0.125255,0.310418 -0.22774,0.05644 -0.22774,-0.564396 z m -20.27667,-2.129466 c 0.68292,-0.103456 1.800424,-0.103456 2.483343,0 0.682919,0.103451 0.124167,0.188097 -1.241671,0.188097 -1.365839,0 -1.924591,-0.08465 -1.241672,-0.188097 z M 54.586533,45.657309 c 0.127897,-0.206945 0.423735,-0.376264 0.657413,-0.376264 0.233678,0 0.424869,0.169319 0.424869,0.376264 0,0.206945 -0.295839,0.376264 -0.657413,0.376264 -0.36158,0 -0.55277,-0.169319 -0.424869,-0.376264 z"
         id="path33" />
      <path
         style="fill:#333333;fill-opacity:1;stroke-width:0.451517"
         d="m 62.780205,95.498804 -5.75684,-0.126366 v -4.953199 -4.953194 h 5.643961 5.643961 v 1.316926 c 0,0.724305 0.152387,1.384648 0.338637,1.467429 0.186251,0.08278 0.237047,1.775965 0.112879,3.762639 l -0.225758,3.612135 z M 44.663091,93.988426 c -0.155209,-0.776045 -0.246318,-3.16344 -0.202466,-5.305323 l 0.07973,-3.894333 0.292053,3.160618 0.292053,3.160618 0.07973,-2.774553 0.07973,-2.774558 1.806067,-0.172235 1.806068,-0.172236 -0.0032,2.043755 c -0.0018,1.124069 -0.132737,3.415242 -0.291048,5.091498 l -0.287842,3.047739 h -1.684334 c -1.525245,0 -1.710993,-0.133274 -1.966536,-1.41099 z M 32.873918,90.895097 c -0.14979,-0.242369 -0.0231,-1.647422 0.281545,-3.122347 0.401548,-1.944105 0.428182,-3.375233 0.09683,-5.203294 -0.251382,-1.386888 -0.288477,-2.521613 -0.08243,-2.521613 0.206044,0 0.374626,-0.304774 0.374626,-0.677276 0,-0.372501 -0.299556,-0.677275 -0.665681,-0.677275 -0.366124,0 -0.956366,-0.558752 -1.31165,-1.241671 -0.355283,-0.682919 -1.192046,-1.749628 -1.859474,-2.370464 l -1.213503,-1.128792 2.182596,-0.225758 c 1.60901,-0.166429 2.221992,-0.433411 2.332503,-1.015913 0.132583,-0.698849 -0.264956,-0.790155 -3.440195,-0.790155 -2.370053,0 -4.184247,-0.258109 -5.33843,-0.75951 -1.116998,-0.485249 -3.01193,-0.768432 -5.247585,-0.784217 l -3.499256,-0.0247 -3.2e-4,-2.263526 -3.21e-4,-2.263526 14.335981,0.225758 14.335981,0.225759 0.11989,4.28941 c 0.166971,5.973839 -0.415587,11.104285 -1.239956,10.920003 -0.349767,-0.07819 -1.053568,0.06798 -1.564004,0.324825 -0.510436,0.256841 -1.639204,0.523999 -2.508374,0.593677 l -1.580309,0.126691 -0.111034,2.93486 c -0.06107,1.614173 -0.222663,3.595203 -0.359097,4.402289 -0.230239,1.361987 -0.374452,1.46743 -2.007024,1.46743 -0.967429,0 -1.881517,-0.198302 -2.031309,-0.440667 z M 41.1469,80.554264 c 0.332145,-0.210533 0.535328,-0.867766 0.451517,-1.460517 -0.121966,-0.862605 -0.422766,-1.07773 -1.506934,-1.07773 -1.084168,0 -1.384968,0.215125 -1.506934,1.07773 -0.14482,1.024239 0.524779,1.843299 1.506934,1.843299 0.248334,0 0.723272,-0.172253 1.055417,-0.382782 z m 0.299134,-7.956449 c 0,-1.093073 -0.213014,-1.384617 -1.103495,-1.510311 -1.443373,-0.203733 -2.434172,1.061232 -1.783502,2.277018 0.318152,0.594471 0.845836,0.823657 1.675693,0.727782 1.013784,-0.117119 1.211304,-0.360816 1.211304,-1.494489 z m 3.386376,10.989518 c 0,-0.605895 0.391873,-0.768378 1.806068,-0.748863 1.151255,0.01589 1.806067,0.233989 1.806067,0.601551 0,0.343008 -0.73171,0.646401 -1.806067,0.748859 -1.4715,0.140331 -1.806068,0.0289 -1.806068,-0.601547 z m 18.170759,0.524161 c -7.327983,-0.298949 -7.462843,-1.089663 -0.214155,-1.255641 4.701,-0.107637 5.581191,-0.01923 5.812621,0.58387 0.150002,0.390896 0.196829,0.752751 0.10407,0.804125 -0.09276,0.05137 -2.658906,-0.0082 -5.702536,-0.132354 z m -13.76847,-1.653581 c 0.683466,-0.275786 0.762522,-3.313104 0.08623,-3.313104 -0.274734,0 -0.324035,-0.240112 -0.115882,-0.564396 0.45792,-0.713388 0.422972,-0.09371 0.836264,-14.830107 0.259816,-9.264255 0.215667,-12.542312 -0.17215,-12.781996 -0.286871,-0.177297 -0.521583,-0.622289 -0.521583,-0.988871 0,-0.51905 0.193226,-0.5631 0.873351,-0.19911 1.783554,0.954529 5.899401,0.313425 5.899401,-0.918923 0,-0.291138 -0.282365,-0.300398 -0.794958,-0.02605 -1.107408,0.592665 -3.301975,0.117751 -4.502878,-0.974441 -0.832485,-0.757117 -0.992376,-1.337917 -0.916399,-3.328805 l 0.09203,-2.411681 h 3.025231 c 2.940232,0 3.032062,0.03488 3.268607,1.241671 0.466042,2.377603 0.166777,6.957378 -0.470607,7.201965 -0.785549,0.301442 -0.898857,21.634475 -0.116293,21.89533 0.336719,0.112238 0.308161,0.556766 -0.09222,1.435499 -0.510923,1.121351 -0.481909,1.327798 0.243683,1.73386 0.667952,0.373802 0.706728,0.536326 0.205097,0.859707 -0.516621,0.333043 -0.506945,0.472042 0.05871,0.84337 0.452894,0.297306 0.490294,0.446893 0.11288,0.451517 -0.356297,0.0045 -0.564396,0.672823 -0.564396,1.81298 0,0.993337 0.196807,1.806067 0.437348,1.806067 0.240536,0 0.320392,0.304774 0.177451,0.677276 -0.203228,0.529602 -1.061557,0.669504 -3.936604,0.641628 -2.022186,-0.0196 -3.422728,-0.138128 -3.112311,-0.263384 z m 6.434116,-36.842076 c 0,-0.217605 -0.406366,-0.26667 -0.903034,-0.109034 -0.693408,0.22008 -0.903034,0.08114 -0.903034,-0.598541 0,-0.870512 -0.887506,-1.518093 -2.295209,-1.674735 -0.393199,-0.04375 -0.714905,0.195857 -0.714905,0.532467 0,0.336609 0.126533,0.612017 0.281187,0.612017 0.154649,0 0.273172,0.558752 0.263383,1.241671 -0.01585,1.10437 0.144463,1.241189 1.449631,1.237306 0.807087,-0.0023 1.473891,0.200785 1.481788,0.451516 0.0172,0.546702 1.340193,-1.124219 1.340193,-1.692667 z M 16.612607,64.244753 c -0.741032,-1.199017 0.710319,-1.354551 12.639725,-1.354551 11.832347,0 15.099315,0.30602 14.451808,1.353706 -0.380748,0.616064 -26.7108,0.616885 -27.091533,8.45e-4 z"
         id="path31" />
    </g>
  </g>
</svg>
