<?xml version="1.0" encoding="UTF-8" standalone="no"?>
<!-- Created with Inkscape (http://www.inkscape.org/) -->

<svg
   width="100mm"
   height="100mm"
   viewBox="0 0 100 100"
   version="1.1"
   id="svg515"
   inkscape:version="1.1.1 (3bf5ae0d25, 2021-09-20)"
   sodipodi:docname="add_list_type_device_6065.svg"
   xmlns:inkscape="http://www.inkscape.org/namespaces/inkscape"
   xmlns:sodipodi="http://sodipodi.sourceforge.net/DTD/sodipodi-0.dtd"
   xmlns="http://www.w3.org/2000/svg"
   xmlns:svg="http://www.w3.org/2000/svg">
  <sodipodi:namedview
     id="namedview517"
     pagecolor="#505050"
     bordercolor="#ffffff"
     borderopacity="1"
     inkscape:pageshadow="0"
     inkscape:pageopacity="0"
     inkscape:pagecheckerboard="1"
     inkscape:document-units="mm"
     showgrid="false"
     inkscape:zoom="1.1009789"
     inkscape:cx="209.35914"
     inkscape:cy="244.32802"
     inkscape:window-width="1440"
     inkscape:window-height="890"
     inkscape:window-x="-6"
     inkscape:window-y="-6"
     inkscape:window-maximized="1"
     inkscape:current-layer="layer1" />
  <defs
     id="defs512" />
  <g
     inkscape:label="Laag 1"
     inkscape:groupmode="layer"
     id="layer1">
    <g
       id="g531"
       transform="translate(-0.61227456,-0.41291326)">
      <path
         style="fill:#b9b9b9;fill-opacity:1;stroke-width:0.457748"
         d="m 33.122877,82.72336 c 0.02196,-0.533253 0.130431,-0.641717 0.276556,-0.276557 0.13223,0.330434 0.115967,0.725242 -0.03614,0.877351 C 33.211188,83.47626 33.102999,83.2059 33.122875,82.72336 Z m 13.433316,-0.34343 c -0.128838,-0.335744 -0.164299,-2.344113 -0.07881,-4.463043 l 0.155447,-3.852594 0.09317,4.234168 0.09317,4.234169 h 1.373244 1.373244 v -4.57748 c 0,-2.746487 0.1831,-4.577479 0.457748,-4.577479 0.676662,0 0.59202,8.379841 -0.09155,9.06341 -0.741113,0.741112 -3.0841,0.69867 -3.375672,-0.06115 z m 5.280796,0.353871 1.355827,-0.256576 0.160248,-3.86441 0.160244,-3.864409 -0.02838,4.006549 -0.02838,4.006549 -1.487681,0.114437 c -1.434504,0.110345 -1.439219,0.105269 -0.131854,-0.14214 z M 20.183967,69.860742 c 0.330437,-0.132229 0.725245,-0.11597 0.877351,0.03612 0.152105,0.152105 -0.118252,0.260294 -0.600795,0.240418 -0.53325,-0.02197 -0.641716,-0.130431 -0.276556,-0.276553 z m 58.478125,-6.419348 c -0.24841,-0.652382 -0.195833,-0.704959 0.256248,-0.256247 0.312834,0.310509 0.453477,0.679866 0.312541,0.820802 -0.140936,0.140936 -0.39689,-0.113114 -0.568789,-0.564555 z M 67.112671,61.725233 c 0,-0.366569 0.175016,-0.55832 0.388926,-0.426117 0.213905,0.132202 0.270414,0.432118 0.125565,0.666485 -0.370145,0.598909 -0.514491,0.531473 -0.514491,-0.240368 z M 35.096039,58.991901 c -0.137889,-0.359332 -0.173966,-1.131782 -0.08017,-1.716555 0.125458,-0.782182 0.231727,-0.609487 0.402032,0.65333 0.239671,1.777184 0.112861,2.196087 -0.32186,1.063225 z m -3.840292,-8.730504 c 0,-5.645558 0.168232,-8.926086 0.457748,-8.926086 0.289516,0 0.457748,3.280528 0.457748,8.926086 0,5.645557 -0.168232,8.926086 -0.457748,8.926086 -0.289516,0 -0.457748,-3.280529 -0.457748,-8.926086 z m 36.641637,0 c 0,-5.500419 0.171491,-8.926086 0.446849,-8.926086 0.275358,0 0.446849,3.425667 0.446849,8.926086 0,5.500419 -0.171491,8.926086 -0.446849,8.926086 -0.275358,0 -0.446849,-3.425667 -0.446849,-8.926086 z m -39.655869,0.228874 c 0,-4.657586 0.06797,-6.562962 0.151049,-4.234169 0.08308,2.328793 0.08308,6.139545 0,8.468338 -0.08308,2.328793 -0.151049,0.423417 -0.151049,-4.234169 z m 6.861507,-1.602118 c 5.96e-4,-4.028182 0.07061,-5.614798 0.155619,-3.525812 0.08501,2.088987 0.08454,5.384772 -0.0011,7.323967 -0.08559,1.939199 -0.155145,0.230027 -0.154566,-3.798155 z m 36.540745,-3.43311 c 0,-0.881165 0.09421,-1.241641 0.209342,-0.801059 0.115133,0.440583 0.115133,1.161536 0,1.602118 -0.115137,0.440583 -0.209342,0.08011 -0.209342,-0.801059 z M 42.042255,37.539149 c 0.171898,-0.451441 0.427853,-0.705491 0.568788,-0.564556 0.140934,0.140934 2.9e-4,0.510295 -0.312543,0.820801 -0.45208,0.448715 -0.504658,0.396136 -0.256245,-0.256245 z M 22.806957,35.416217 c -0.144846,-0.234365 -0.08834,-0.534284 0.125568,-0.666486 0.213908,-0.132202 0.388923,0.05955 0.388923,0.426118 0,0.77184 -0.144344,0.839277 -0.514491,0.240368 z m 63.14572,-7.429719 c -0.430503,-1.121868 -0.03447,-8.61926 0.461703,-8.740297 0.618056,-0.150775 0.866814,8.359576 0.262028,8.964363 -0.309355,0.309355 -0.547311,0.235685 -0.723731,-0.224066 z m 0.57083,-6.433443 c -0.09276,-1.330187 -0.169628,-0.358655 -0.170818,2.158959 -0.0014,2.517614 0.0747,3.605948 0.168653,2.418521 0.09395,-1.187427 0.09493,-3.247293 0.0023,-4.57748 z m -73.57768,2.158959 c 0,-2.593906 0.184706,-4.348606 0.457748,-4.348606 0.273043,0 0.457748,1.7547 0.457748,4.348606 0,2.593905 -0.184705,4.348605 -0.457748,4.348605 -0.273042,0 -0.457748,-1.7547 -0.457748,-4.348605 z m 77.206829,3.585692 C 89.984814,27.129865 89.84749,25.079023 89.84749,22.74028 v -4.252261 l -3.318673,-0.169138 -3.318673,-0.169138 3.43311,0.03465 3.43311,0.03465 0.228874,4.69296 c 0.12588,2.581127 0.211708,4.69249 0.190729,4.691917 -0.02096,-5.95e-4 -0.175473,-0.138367 -0.343311,-0.306208 z M 16.70194,22.931009 16.607811,18.488019 13.289138,18.330045 9.9704652,18.17207 13.303505,18.081117 c 2.416858,-0.06595 3.397215,0.07629 3.566509,0.517459 0.128408,0.334627 0.164301,2.44599 0.07976,4.691917 l -0.153707,4.083504 z"
         id="path541" />
      <path
         style="fill:#a3a3a3;fill-opacity:1;stroke-width:0.457748"
         d="M 16.210366,98.528021 C 9.3700815,97.150419 4.5551963,91.298939 4.5551963,84.363622 c 0,-4.082874 1.290531,-7.163325 4.2342791,-10.107075 2.9437476,-2.94375 6.0242006,-4.234279 10.1070756,-4.234279 4.082875,0 7.163328,1.290529 10.107076,4.234279 2.943748,2.94375 4.234279,6.024201 4.234279,10.107075 0,8.977061 -8.339346,15.914168 -17.02754,14.164399 z M 22.4588,93.265425 c 7.958213,-3.324336 7.958213,-14.47927 0,-17.803605 -6.06635,-2.534061 -13.1309887,2.189363 -13.1649038,8.802068 -0.03461,6.748327 7.0167998,11.569745 13.1649038,9.001537 z m -4.935493,-1.07487 c 0,-1.031874 -0.356353,-1.538285 -1.597969,-2.270856 -4.432838,-2.615439 -4.496926,-8.38457 -0.12277,-11.051524 2.910917,-1.774808 6.686776,-0.719141 8.589432,2.401465 2.198023,3.605044 -0.0094,8.974904 -4.676154,11.375367 -2.178816,1.120732 -2.192539,1.117884 -2.192539,-0.454452 z M 48.1574,71.88999 c -0.247147,-0.807559 -0.290006,-1.736417 -0.06996,-1.516378 0.334046,0.334051 0.567314,1.630815 0.293357,1.630815 -0.103607,0 -0.204133,-0.0515 -0.223395,-0.114437 z m 2.323762,-0.316295 c 0,-0.236903 0.171656,-0.536824 0.381455,-0.666486 0.209805,-0.129666 0.38146,0.06416 0.38146,0.430732 0,0.366565 -0.171655,0.666486 -0.38146,0.666486 -0.209799,0 -0.381455,-0.193829 -0.381455,-0.430732 z M 45.86866,70.516746 c -0.247149,-0.807559 -0.290006,-1.736417 -0.06996,-1.516378 0.334048,0.334051 0.567316,1.630815 0.293357,1.630815 -0.103604,0 -0.204131,-0.0515 -0.223393,-0.114437 z m 9.363661,-1.432486 c 0.05775,-0.393425 0.23282,-0.843149 0.389054,-0.999388 0.156238,-0.156234 0.236825,0.03781 0.179084,0.431249 -0.05774,0.393426 -0.232819,0.843149 -0.389053,0.999388 -0.156239,0.156234 -0.236825,-0.03781 -0.179085,-0.431249 z M 41.116877,67.458577 c -0.144846,-0.234367 -0.08834,-0.534283 0.125567,-0.666486 0.213908,-0.132202 0.388924,0.05955 0.388924,0.426118 0,0.771841 -0.144345,0.839276 -0.514491,0.240368 z m -1.286955,-1.368181 c -0.199109,-0.761395 -0.139536,-0.940114 0.200144,-0.600433 0.265998,0.265998 0.393569,0.753829 0.283489,1.084066 -0.114275,0.342831 -0.321769,0.135334 -0.483633,-0.483633 z m 18.890704,0.248227 c 0,-0.09505 0.360477,-0.455528 0.801059,-0.801059 0.726016,-0.569379 0.742206,-0.553188 0.172827,0.172828 -0.597988,0.762493 -0.973886,1.004976 -0.973886,0.628231 z M 36.290975,64.549808 c -1.063374,-0.866164 -1.127441,-1.840462 -0.07793,-1.185027 0.462461,0.288812 0.840838,0.805985 0.840838,1.149268 0,0.343288 -0.01716,0.617607 -0.03814,0.609601 -0.02098,-0.008 -0.347127,-0.266235 -0.724769,-0.573842 z M 34.42496,63.650526 c -0.247149,-0.807559 -0.290005,-1.736417 -0.06996,-1.516377 0.334048,0.33405 0.567315,1.630814 0.293357,1.630814 -0.103604,0 -0.204131,-0.0515 -0.223393,-0.114437 z m 34.524082,-1.507424 c -0.149084,-0.3885 -0.168781,-0.808644 -0.04376,-0.93365 0.125006,-0.125011 0.337159,0.192854 0.471444,0.706365 0.285245,1.090781 -0.03168,1.259214 -0.427674,0.227285 z m -38.350487,-0.5327 c -0.248413,-0.652382 -0.195834,-0.704959 0.256245,-0.256247 0.312833,0.310509 0.453477,0.679866 0.312543,0.820802 -0.140935,0.140936 -0.39689,-0.113114 -0.568788,-0.564555 z m 1.608826,0.05655 c 0.02196,-0.533254 0.130431,-0.641717 0.276556,-0.276558 0.13223,0.330435 0.115967,0.725242 -0.03614,0.877352 -0.152106,0.152105 -0.260295,-0.118255 -0.240419,-0.600794 z M 30.536428,39.504319 c 0,-0.592892 0.154763,-0.747655 0.451209,-0.451208 0.296447,0.296446 0.296447,0.605971 0,0.902417 -0.296446,0.296446 -0.451209,0.141684 -0.451209,-0.451209 z m 38.254654,0.02701 c 0,-0.236903 0.171655,-0.536822 0.381455,-0.666486 0.209804,-0.129664 0.38146,0.06416 0.38146,0.430733 0,0.366567 -0.171656,0.666486 -0.38146,0.666486 -0.2098,0 -0.381455,-0.193829 -0.381455,-0.430733 z M 34.002235,38.601472 c 0,-0.620502 0.813462,-1.005816 1.110111,-0.525829 0.141831,0.229488 -0.04992,0.535363 -0.426119,0.679723 -0.376196,0.14436 -0.683992,0.07511 -0.683992,-0.153894 z m 30.002043,-0.438767 c -0.144849,-0.234365 -0.08834,-0.534284 0.125565,-0.666486 0.213911,-0.132203 0.388926,0.05955 0.388926,0.426118 0,0.77184 -0.144346,0.839277 -0.514491,0.240368 z m 9.537963,-1.120806 c 0.05774,-0.393425 0.232819,-0.843147 0.389053,-0.999385 0.156239,-0.156237 0.236825,0.03782 0.179085,0.43125 -0.05774,0.393424 -0.23282,0.843147 -0.389054,0.999384 -0.156238,0.156237 -0.236825,-0.03782 -0.179084,-0.431249 z M 36.997145,36.789461 c -0.144846,-0.234365 -0.08834,-0.534284 0.125567,-0.666486 0.213908,-0.132203 0.388924,0.05955 0.388924,0.426118 0,0.77184 -0.144345,0.839277 -0.514491,0.240368 z m 22.429654,-1.373244 c -0.14485,-0.234365 -0.08834,-0.534284 0.125564,-0.666486 0.213911,-0.132202 0.388926,0.05955 0.388926,0.426118 0,0.77184 -0.144346,0.839277 -0.51449,0.240368 z m 16.566183,-0.546179 c 0.310509,-0.312833 0.679866,-0.453477 0.820802,-0.312543 0.140936,0.140935 -0.113114,0.39689 -0.564554,0.568788 -0.652383,0.248413 -0.70496,0.195835 -0.256248,-0.256245 z m 18.69029,-1.182264 c -0.248411,-0.652381 -0.195834,-0.70496 0.256247,-0.256245 0.312835,0.310506 0.453478,0.679866 0.312542,0.820801 -0.140936,0.140935 -0.396891,-0.113115 -0.568789,-0.564556 z M 18.40378,32.98141 c -0.247149,-0.807557 -0.290005,-1.736417 -0.06996,-1.516375 0.334048,0.334048 0.567315,1.630812 0.293357,1.630812 -0.103604,0 -0.204131,-0.0515 -0.223394,-0.114437 z m 73.239679,0 c -0.247147,-0.807557 -0.290006,-1.736417 -0.06996,-1.516375 0.334046,0.334048 0.567315,1.630812 0.293357,1.630812 -0.103607,0 -0.204133,-0.0515 -0.223395,-0.114437 z M 15.692315,31.134205 c -1.063374,-0.866163 -1.127441,-1.840461 -0.07792,-1.185027 0.46246,0.288811 0.840838,0.805982 0.840838,1.149269 0,0.343286 -0.01717,0.617605 -0.03815,0.609599 -0.02098,-0.008 -0.347127,-0.266236 -0.724769,-0.573841 z m 67.079631,0.16228 c -0.14485,-0.234365 -0.08834,-0.534284 0.125565,-0.666486 0.21391,-0.132202 0.388926,0.05955 0.388926,0.426118 0,0.77184 -0.144347,0.839277 -0.514491,0.240368 z M 12.288635,29.568042 c -0.248413,-0.652381 -0.195834,-0.70496 0.256245,-0.256245 0.312833,0.310506 0.453478,0.679866 0.312543,0.820801 -0.140934,0.140935 -0.396889,-0.113115 -0.568788,-0.564556 z m 72.799653,0.399861 c -0.129666,-0.209802 0.0551,-0.381457 0.410596,-0.381457 0.355491,0 0.540261,0.171655 0.410595,0.381457 -0.129662,0.209801 -0.314432,0.381456 -0.410595,0.381456 -0.09616,0 -0.280934,-0.171655 -0.410596,-0.381456 z"
         id="path539" />
      <path
         style="fill:#767676;fill-opacity:1;stroke-width:0.457748"
         d="m 71.710676,54.152255 c 0,-2.895256 0.07432,-4.079679 0.165165,-2.632051 0.09084,1.447628 0.09084,3.816474 0,5.264102 -0.09084,1.447628 -0.165165,0.263205 -0.165165,-2.632051 z m -0.08387,-11.214826 c 0.0093,-0.755284 0.111919,-1.008847 0.227977,-0.563473 0.116057,0.445374 0.108426,1.063334 -0.01698,1.373244 -0.125368,0.30991 -0.220323,-0.05449 -0.210994,-0.809771 z M 9.9066075,22.567644 c 0,-2.391734 0.077151,-3.37017 0.1714465,-2.174303 0.0943,1.195866 0.0943,3.152739 0,4.348606 -0.094295,1.195866 -0.1714465,0.21743 -0.1714465,-2.174303 z M 83.141211,22.109896 c 0,-2.139972 0.07885,-3.015415 0.175226,-1.945429 0.09637,1.069986 0.09637,2.820872 0,3.890858 -0.09637,1.069985 -0.175226,0.194542 -0.175226,-1.945429 z"
         id="path537" />
      <path
         style="fill:#606060;fill-opacity:1;stroke-width:0.457748"
         d="m 64.670329,50.168831 c -0.125322,-4.834378 -0.06857,-8.630043 0.126096,-8.434811 0.194676,0.195231 0.297207,4.150631 0.227853,8.789776 l -0.1261,8.434813 z M 82.858232,26.650683 c 0.161864,-0.618969 0.369356,-0.826463 0.483633,-0.483634 0.110079,0.330238 -0.01749,0.818068 -0.283488,1.084066 -0.339681,0.33968 -0.399252,0.160961 -0.200145,-0.600432 z"
         id="path535" />
      <path
         style="fill:#333333;fill-opacity:1;stroke-width:0.457748"
         d="m 46.819178,78.243825 v -4.288806 l -7.341693,-4.408406 c -4.037931,-2.424623 -7.5912,-4.407637 -7.896153,-4.406694 -0.304953,9.15e-4 -1.172419,0.376287 -1.927703,0.834104 -0.755284,0.457816 -2.331973,1.392011 -3.503752,2.075987 l -2.130507,1.243587 -1.41704,-2.476723 c -0.779371,-1.362203 -1.417039,-2.69111 -1.417039,-2.953134 0,-0.262019 1.647893,-1.426906 3.661984,-2.588629 l 3.661984,-2.112232 v -8.622471 -8.622473 l -7.360731,-4.411044 c -4.048402,-2.426074 -7.60167,-4.408719 -7.896153,-4.405878 -0.294482,0.0028 -2.080321,0.927274 -3.9685318,2.054296 C 6.143183,37.029885 5.8014658,37.138254 5.2723783,36.427461 4.9542831,36.000122 4.764784,35.438199 4.8512692,35.178744 c 0.1366119,-0.409836 6.6100748,-4.524429 7.8656838,-4.999502 0.305166,-0.115462 0.305166,-0.333784 0,-0.654966 C 12.40104,29.191782 10.98269,29.812663 8.1394732,31.528061 4.390182,33.79012 3.9682912,33.943909 3.4475563,33.23837 2.4385546,31.871282 2.804736,31.393274 6.5373552,29.204989 l 3.6619838,-2.146873 v -4.305102 -4.305102 h 3.18766 3.18766 l 0.131013,4.408574 0.131013,4.408574 7.094969,4.288638 c 3.902233,2.35875 7.334414,4.288637 7.627069,4.288637 0.292654,0 1.961215,-0.823946 3.707912,-1.830992 1.746697,-1.007045 3.410101,-1.830992 3.696452,-1.830992 0.558775,0 2.497534,2.835185 2.980614,4.358764 0.247564,0.780788 -0.261342,1.248229 -3.2518,2.986846 l -3.545296,2.061193 v 8.85493 8.854929 l 7.365177,4.465162 7.365176,4.465158 7.053887,-4.273037 c 3.879634,-2.350169 7.311366,-4.49525 7.626068,-4.766845 0.419055,-0.361653 0.572185,-2.7437 0.572185,-8.900599 v -8.406785 l -3.661984,-2.146874 c -2.014091,-1.18078 -3.661984,-2.359706 -3.661984,-2.619834 0,-0.260129 0.637666,-1.587489 1.417042,-2.949689 l 1.417036,-2.476727 2.13051,1.24359 c 1.171776,0.683974 2.748466,1.618168 3.50375,2.075985 0.755284,0.457817 1.613388,0.833165 1.906896,0.834106 0.293508,9.62e-4 3.846777,-1.989133 7.896153,-4.422386 l 7.362501,-4.424098 v -4.273114 -4.273114 h 3.187661 3.18766 l 0.131012,4.427866 0.131013,4.427865 3.204235,1.967205 c 1.76233,1.081963 3.393332,2.036268 3.624449,2.120677 0.523316,0.191128 -2.013858,4.93404 -2.800996,5.236093 -0.316245,0.121355 -2.039401,-0.623648 -3.829232,-1.655563 -1.789831,-1.031914 -3.493629,-1.86856 -3.786212,-1.859215 -0.292588,0.0093 -3.724769,1.935033 -7.62707,4.279304 l -7.095094,4.26231 v 8.843283 8.843284 l 3.43311,2.025086 c 1.88821,1.113797 3.492319,2.082566 3.564685,2.152816 0.07236,0.07025 -0.115549,0.670116 -0.417594,1.333031 L 77.797475,66.05725 75.239708,64.624 c -1.406775,-0.788283 -3.433211,-1.941584 -4.503197,-2.562881 -1.550241,-0.900166 -1.945429,-0.988309 -1.945429,-0.433917 0,0.396268 1.772446,1.710009 4.117965,3.052245 3.667326,2.098651 4.066308,2.453067 3.64588,3.23864 -0.660031,1.233283 -1.174283,1.130162 -4.73207,-0.948888 -1.723312,-1.007046 -3.367991,-1.830992 -3.654843,-1.830992 -0.286853,0 -3.714286,1.929888 -7.616519,4.288636 l -7.094971,4.288641 -0.131012,4.408571 -0.131012,4.408575 h -1.356669 -1.356669 v -4.806354 c 0,-2.899069 -0.181648,-4.806353 -0.457748,-4.806353 -0.276099,0 -0.457748,1.907284 -0.457748,4.806353 v 4.806354 h -1.373244 -1.373244 z m 2.746488,-6.587571 c 0,-0.313955 -6.51419,-4.41713 -7.572878,-4.770027 -0.240741,-0.08025 -0.482708,0.06008 -0.537704,0.311846 -0.055,0.251761 1.489903,1.418062 3.43311,2.591773 3.447252,2.082172 4.677472,2.573057 4.677472,1.866408 z m 7.727986,-3.253297 c 9.479984,-5.477312 10.581934,-6.186363 10.581934,-6.808965 0,-0.985115 -1.012603,-0.590453 -5.035228,1.962485 -2.139972,1.358124 -5.796234,3.620535 -8.125027,5.027588 -3.638918,2.198623 -5.047907,3.420362 -3.944588,3.420362 0.159269,0 3.094578,-1.620662 6.522909,-3.60147 z M 40.410707,66.316958 c 0,-0.358732 -1.08143,-1.249849 -2.403177,-1.980263 -1.321748,-0.730411 -3.175627,-1.796162 -4.119732,-2.368334 -1.22495,-0.74238 -1.713273,-0.863495 -1.705094,-0.422918 0.0083,0.449706 7.221008,5.254082 8.113566,5.404475 0.06294,0.01062 0.114437,-0.274227 0.114437,-0.63296 z M 27.37446,64.389491 c 4.365535,-2.536267 4.153781,-2.366127 3.615153,-2.904754 -0.439469,-0.439466 -6.401141,2.800598 -7.886984,4.286444 -1.437675,1.437672 0.494955,0.81258 4.271831,-1.38169 z m 4.796783,-14.383984 c 0,-5.78013 -0.167886,-9.127944 -0.457748,-9.127944 -0.290322,0 -0.457748,3.442115 -0.457748,9.41085 0,6.157333 0.158252,9.313043 0.457748,9.127944 0.280404,-0.173299 0.457748,-3.819321 0.457748,-9.41085 z m 36.619839,0.25589 c 0,-5.520554 -0.176329,-9.383834 -0.428297,-9.383834 -0.478429,0 -0.784914,7.486336 -0.585624,14.304625 0.07226,2.472214 0.327496,4.463043 0.572185,4.463043 0.269449,0 0.441736,-3.659892 0.441736,-9.383834 z M 31.255747,39.508029 c 0,-0.465139 -7.432717,-5.038938 -8.188598,-5.038938 -1.455605,0 -0.05456,1.398982 3.508142,3.502967 3.737022,2.206934 4.680456,2.516538 4.680456,1.535971 z m 34.024417,-1.699815 c -1.467773,-0.878241 -3.321827,-1.995543 -4.120116,-2.482895 -0.827879,-0.505416 -1.566803,-0.699429 -1.71997,-0.451599 -0.324141,0.524472 7.50086,5.154214 8.092957,4.788278 0.228691,-0.14134 -0.785097,-0.975543 -2.252871,-1.853784 z m 7.648475,0.05595 c 3.519628,-2.030121 4.428286,-2.763526 3.979679,-3.212131 -0.302636,-0.302635 -8.117236,4.424098 -8.117236,4.909785 0,0.638882 0.300328,0.515657 4.137557,-1.697654 z M 36.567007,37.647296 c 3.203241,-1.768229 4.174901,-2.541838 3.739473,-2.977266 -0.189591,-0.189591 -4.65017,2.427339 -6.833749,4.00922 -1.922398,1.392671 -0.345155,0.866653 3.094276,-1.031954 z m -14.46622,-3.540013 c 0,-0.40451 -7.13261,-4.67342 -7.808477,-4.67342 -1.081772,0 -0.140504,0.849151 3.127142,2.821103 3.470158,2.094164 4.681335,2.573404 4.681335,1.852317 z m 60.334032,-2.0116 c 2.161116,-1.305374 3.680505,-2.45634 3.376418,-2.557702 -0.561052,-0.187017 -7.650882,3.756271 -8.120884,4.516749 -0.586348,0.948732 1.047135,0.274247 4.744466,-1.959047 z m 12.905646,1.96447 c 0,-0.420577 -7.128724,-4.62629 -7.841607,-4.62629 -1.075401,0 -0.07541,0.897146 3.149691,2.82574 3.557264,2.127231 4.691916,2.56266 4.691916,1.80055 z M 13.861323,23.456125 c 0,-2.728478 -0.18328,-4.550465 -0.457748,-4.550465 -0.276264,0 -0.457748,1.916288 -0.457748,4.833368 0,3.105684 0.163622,4.732245 0.457748,4.550465 0.255495,-0.157904 0.457748,-2.293493 0.457748,-4.833368 z m 73.239679,0.255889 c 0,-3.96715 -0.119885,-4.806354 -0.686622,-4.806354 -0.566738,0 -0.686622,0.839204 -0.686622,4.806354 0,3.967149 0.119884,4.806353 0.686622,4.806353 0.566737,0 0.686622,-0.839204 0.686622,-4.806353 z"
         id="path533" />
    </g>
  </g>
</svg>
