<?xml version="1.0" encoding="UTF-8" standalone="no"?>
<!-- Created with Inkscape (http://www.inkscape.org/) -->

<svg
   version="1.1"
   id="svg995"
   width="216"
   height="216"
   viewBox="0 0 216 216"
   sodipodi:docname="add_list_type_device_7101.svg"
   inkscape:version="1.1.1 (3bf5ae0d25, 2021-09-20)"
   xmlns:inkscape="http://www.inkscape.org/namespaces/inkscape"
   xmlns:sodipodi="http://sodipodi.sourceforge.net/DTD/sodipodi-0.dtd"
   xmlns="http://www.w3.org/2000/svg"
   xmlns:svg="http://www.w3.org/2000/svg">
  <defs
     id="defs999" />
  <sodipodi:namedview
     id="namedview997"
     pagecolor="#505050"
     bordercolor="#ffffff"
     borderopacity="1"
     inkscape:pageshadow="0"
     inkscape:pageopacity="0"
     inkscape:pagecheckerboard="1"
     showgrid="false"
     inkscape:zoom="3.0648148"
     inkscape:cx="107.83686"
     inkscape:cy="108"
     inkscape:window-width="1440"
     inkscape:window-height="890"
     inkscape:window-x="-6"
     inkscape:window-y="-6"
     inkscape:window-maximized="1"
     inkscape:current-layer="g1001" />
  <g
     inkscape:groupmode="layer"
     inkscape:label="Image"
     id="g1001">
    <g
       id="g1005">
      <path
         style="fill:#d0d0d0;fill-opacity:1"
         d="m 95.8125,207.31689 c 0.721875,-0.28887 1.584375,-0.25335 1.916667,0.0789 0.332291,0.33229 -0.258334,0.56864 -1.3125,0.52522 -1.164943,-0.048 -1.4019,-0.28494 -0.604167,-0.60416 z m 21,0 c 0.72187,-0.28887 1.58437,-0.25335 1.91667,0.0789 0.33229,0.33229 -0.25834,0.56864 -1.3125,0.52522 -1.16495,-0.048 -1.4019,-0.28494 -0.60417,-0.60416 z m -7.35958,-3.36603 c -2.21152,-2.30833 -3.11242,-2.66827 -4.63665,-1.85253 -2.49191,1.33363 -4.75858,0.52465 -8.903929,-3.17786 -2.861067,-2.55541 -3.954636,-2.94618 -6.769103,-2.41879 -5.572479,1.04419 -8.315878,2.39138 -7.629255,3.74645 0.348883,0.68853 -0.04328,0.42042 -0.871476,-0.59579 -2.151379,-2.63978 -0.698557,-5.7166 3.959676,-8.38589 4.132036,-2.36776 5.555683,-2.7728 5.147817,-1.46459 -0.558478,1.7913 7.47777,7.4399 12.4787,8.77117 7.1376,1.90005 14.76833,1.81778 17.63503,-0.19014 l 2.30875,-1.61711 -1.54969,2.99677 c -0.85233,1.64822 -3.09664,3.90949 -4.98736,5.02504 l -3.43766,2.02827 z M 131,202.62244 c 0,-0.20765 0.7875,-0.99515 1.75,-1.75 1.58606,-1.24387 1.62143,-1.2085 0.37756,0.37756 C 131.82119,202.91575 131,203.44548 131,202.62244 Z m -2.5,-5.45884 c -7.263,-1.90171 -6.66877,-1.56021 -5.95436,-3.42193 0.32599,-0.84952 1.57408,-1.81392 2.77353,-2.1431 1.82686,-0.50137 1.93736,-0.75835 0.68083,-1.58323 -2.08666,-1.36984 -0.64504,-1.257 2.70295,0.21156 3.57366,1.56756 6.29705,4.56301 6.29705,6.92611 0,1.01584 -0.1125,1.78728 -0.25,1.7143 -0.1375,-0.073 -2.95,-0.83965 -6.25,-1.70371 z M 103.26316,193.75 c -0.53995,-0.6875 -1.26531,-2.74503 -1.61191,-4.57229 -0.34659,-1.82726 -0.64676,-38.72726 -0.66704,-82 -0.031,-66.226517 -0.27359,-79.689684 -1.532656,-85.072262 -0.822681,-3.517004 -1.250117,-6.640218 -0.949859,-6.940476 0.730726,-0.730726 3.961235,2.561594 4.032465,4.109628 0.031,0.67397 0.36334,3.7004 0.7385,6.7254 0.37516,3.025 0.90143,29.8 1.1695,59.5 0.26806,29.7 0.59259,63.225 0.72117,74.5 l 0.23378,20.5 0.5958,-19.5 c 0.32769,-10.725 0.6948,-42.675 0.81581,-71 0.12101,-28.325 0.49209,-54.2 0.82463,-57.5 l 0.60463,-6 4.63101,-0.09864 c 2.54705,-0.05425 3.65321,0.085 2.45811,0.309447 -4.61247,0.86626 -4.67561,1.903849 -5.26846,86.576283 -0.48607,69.42226 -0.7535,79.91018 -2.05864,80.73468 -2.05486,1.29813 -3.57224,1.21107 -4.73684,-0.27177 z M 119.08333,25.717032 C 119.3125,25.5614 120.4,24.7739 121.5,23.967032 c 1.85001,-1.357009 1.89707,-1.335787 0.62756,0.282968 -0.75485,0.9625 -1.84235,1.75 -2.41667,1.75 -0.57432,0 -0.85672,-0.127335 -0.62756,-0.282968 z M 114,22.861328 C 114,22.387598 115.125,22 116.5,22 c 1.375,0 2.5,0.17254 2.5,0.383423 0,0.210882 -1.125,0.59848 -2.5,0.861328 -1.375,0.262848 -2.5,0.09031 -2.5,-0.383423 z M 107.5,19 c -2.68753,-2.805178 -2.73756,-3 -0.77042,-3 1.15706,0 2.26169,-0.473807 2.45472,-1.052904 0.43972,-1.319162 7.65393,-3.017868 8.30978,-1.956676 0.48321,0.781858 -3.21617,2.359099 -4.86924,2.076011 -0.48134,-0.08243 -1.72248,0.616945 -2.75809,1.554163 -1.76039,1.593129 -1.7747,1.823637 -0.21986,3.54172 C 112.40252,23.207245 110.59138,22.226708 107.5,19 Z M 92.872445,9.25 C 91.628574,7.6639444 91.663944,7.6285741 93.25,8.8724447 94.915748,10.178814 95.445479,11 94.622445,11 c -0.207656,0 -0.995156,-0.7875 -1.75,-1.75 z m 1.693483,-1.1433265 c -0.303659,-0.4913296 0.670961,-1.2002969 2.165822,-1.575483 1.639136,-0.4113971 2.86022,-0.2552792 3.076422,0.3933265 0.481968,1.445911 2.926578,1.3712332 3.418468,-0.1044271 0.25365,-0.7609724 1.08213,-0.8896288 2.33333,-0.3623521 1.80111,0.759017 1.76102,0.872169 -0.55997,1.5802301 -3.55329,1.083999 -9.781241,1.1250084 -10.434072,0.068706 z M 91.733333,5.8759123 c 0.678334,-0.6834184 1.485241,-0.9906713 1.793128,-0.6827842 0.307888,0.3078871 -0.247112,0.8670476 -1.233333,1.242579 -1.425198,0.5426846 -1.540062,0.427821 -0.559795,-0.5597948 z"
         id="path1015" />
      <path
         style="fill:#b9b9b9;fill-opacity:1"
         d="M 98.555892,206.90956 C 98.86507,206.4093 98.261221,206 97.214005,206 c -1.047217,0 -2.660088,-0.83543 -3.584159,-1.85652 -1.130778,-1.2495 -2.53793,-1.69255 -4.303613,-1.35501 -1.794022,0.34295 -2.401987,0.14312 -1.92292,-0.63203 0.449982,-0.72808 0.147513,-0.92131 -0.845632,-0.5402 -0.850406,0.32633 -1.276689,1.0294 -0.947294,1.56237 0.329394,0.53297 -0.339501,0.383 -1.486434,-0.33327 -4.612843,-2.88077 -3.072646,-4.82736 5.019285,-6.34366 2.814467,-0.52739 3.908036,-0.13662 6.769103,2.41879 4.145349,3.70251 6.412019,4.51149 8.903929,3.17786 1.51917,-0.81304 2.41299,-0.46847 4.53777,1.74932 1.45528,1.51898 2.64596,3.02083 2.64596,3.33743 0,0.3166 -3.15141,0.58878 -7.00312,0.60485 -3.95745,0.0165 -6.758652,-0.36637 -6.440988,-0.88037 z M 113,207.02568 c 0,-0.53588 1.36698,-1.68121 3.03773,-2.54519 1.67075,-0.86398 3.77909,-3.12553 4.68521,-5.02568 1.81677,-3.8098 2.38495,-3.96005 8.83424,-2.3361 4.80701,1.21042 5.31203,1.91502 2.84194,3.96501 -2.14484,1.78006 -4.53805,2.04587 -6.17657,0.68602 -1.03478,-0.8588 -1.90218,-0.51635 -3.75592,1.48282 -1.64435,1.77336 -2.02207,2.76042 -1.18852,3.10581 0.67204,0.27847 -0.24061,0.2555 -2.02811,-0.051 -2.07101,-0.35515 -3.25,-0.14922 -3.25,0.56767 0,0.61875 -0.675,1.125 -1.5,1.125 -0.825,0 -1.5,-0.43844 -1.5,-0.97432 z M 105.16333,160 c -0.12858,-11.275 -0.45311,-44.8 -0.72117,-74.5 -0.26807,-29.7 -0.79434,-56.475 -1.1695,-59.5 -0.37516,-3.025 -0.70854,-6.021944 -0.74084,-6.659876 -0.0323,-0.637931 -0.89605,-2.212931 -1.91944,-3.5 -1.023395,-1.287068 0.78266,0.415269 4.01345,3.782972 3.23079,3.367703 6.54917,6.407272 7.37417,6.754597 0.825,0.347326 0.31718,0.477288 -1.12849,0.288804 -2.53383,-0.330356 -2.65036,-0.123434 -3.23564,5.745403 -0.33392,3.348455 -0.70614,29.2631 -0.82715,57.5881 -0.12101,28.325 -0.48812,60.275 -0.81581,71 l -0.5958,19.5 z M 120,24.622445 c 0,-0.207656 0.7875,-0.995156 1.75,-1.75 1.58606,-1.243871 1.62143,-1.208501 0.37756,0.377555 C 120.82119,24.915748 120,25.445479 120,24.622445 Z m -4.1875,-1.305559 c 0.72187,-0.288871 1.58437,-0.253344 1.91667,0.07895 0.33229,0.332292 -0.25834,0.568641 -1.3125,0.52522 -1.16495,-0.04798 -1.4019,-0.284941 -0.60417,-0.604167 z m -13.37541,-8.458653 c -1.63078,-1.744428 -2.13543,-2.714406 -1.13463,-2.180892 2.2908,1.221209 7.90444,0.466447 7.03185,-0.945441 -0.42479,-0.687316 0.5184,-0.843022 2.7602,-0.455663 1.87302,0.323638 2.84019,0.355447 2.14926,0.07069 -0.69093,-0.28476 -0.99145,-0.94617 -0.66783,-1.4697994 0.36662,-0.5931963 -1.79838,-0.6762501 -5.74377,-0.2203428 -3.48269,0.4024412 -7.306403,0.7568002 -8.497133,0.7874642 -1.755631,0.04521 -1.951924,0.33936 -1.038193,1.555753 0.619724,0.825 -0.318543,0.178309 -2.085037,-1.437091 C 93.445313,8.9475086 92,7.3081536 92,6.9198976 92,5.6376581 95.3146,4.9145997 96.367217,5.9672174 97.077594,6.6775942 96.850884,7 95.640983,7 94.673524,7 94.160081,7.45 94.5,8 c 0.339919,0.55 1.885226,1 3.434017,1 4.445163,0 9.085403,-1.1595537 8.490733,-2.1217538 -0.64226,-1.0392006 0.93252,-1.1876426 1.93753,-0.1826352 0.38258,0.3825861 1.34135,0.7903861 2.1306,0.9062223 0.78924,0.1158363 2.80121,1.1834537 4.47105,2.3724832 2.97471,2.1181785 3.78077,3.1432675 2.28607,2.9072625 -2.70918,-0.427766 -6.33163,0.342911 -7.60714,1.618421 -0.825,0.825 -2.2337,1.5 -3.13045,1.5 -0.89674,0 -1.35233,0.45 -1.01241,1 1.17835,1.906615 -0.14023,0.984585 -3.06291,-2.141767 z M 100,7 c 0,-0.55 0.675,-1 1.5,-1 0.825,0 1.5,0.45 1.5,1 0,0.55 -0.675,1 -1.5,1 C 100.675,8 100,7.55 100,7 Z"
         id="path1013" />
      <path
         style="fill:#a3a3a3;fill-opacity:1"
         d="m 32.081368,214.46286 c -7.007514,-1.95042 -11.089141,-4.52873 -15.998462,-10.10601 -7.2100396,-8.19104 -9.3766251,-20.26932 -5.62298,-31.34697 2.568108,-7.57893 10.971021,-15.98185 18.549951,-18.54995 12.285024,-4.16276 24.11621,-1.49384 33.070123,7.46007 12.665061,12.66506 12.665061,31.49494 0,44.16 -8.284004,8.284 -19.296985,11.36149 -29.998632,8.38286 z M 37,201.59878 c 0,-2.82543 -0.59099,-3.74992 -3.490937,-5.46093 -9.684014,-5.71371 -9.824021,-18.317 -0.268203,-24.14325 8.679071,-5.2917 20.786998,1.71923 20.73344,12.0054 -0.03715,7.13517 -6.531507,16.16904 -13.835391,19.24551 L 37.5,204.35705 l 2.456052,0.41803 c 3.791395,0.64531 9.701396,-1.53542 13.717508,-5.06161 11.771054,-10.33512 8.62759,-29.09548 -5.891441,-35.16042 -10.152095,-4.24077 -22.108434,0.62734 -26.886256,10.94695 -4.7646,10.29105 2.68e-4,22.69471 10.604137,27.60414 5.335212,2.47012 5.5,2.42502 5.5,-1.50536 z m 53.624794,3.93212 c -4.873921,-1.7373 -6.286185,-3.06312 -4.140074,-3.88666 1.013746,-0.38901 1.370777,-0.21945 0.954872,0.4535 -0.422938,0.68433 0.249388,0.9551 1.850521,0.74529 1.383142,-0.18126 3.346198,0.40846 4.362345,1.31047 1.016148,0.90201 2.747542,1.85928 3.847542,2.12726 1.629853,0.39706 1.537316,0.50058 -0.5,0.55935 -1.375,0.0397 -4.243843,-0.54949 -6.375206,-1.30921 z m 27.650326,0.46291 c 1.52631,-0.45885 3.61223,-1.86808 4.63538,-3.13161 1.5709,-1.93998 2.10461,-2.09455 3.43108,-0.99368 0.86395,0.71701 2.11005,0.97039 2.76912,0.56306 0.74823,-0.46243 0.93635,-0.31672 0.50085,0.38793 -0.75503,1.22166 -9.9851,4.23471 -12.54305,4.09454 -0.86268,-0.0473 -0.3197,-0.46138 1.20662,-0.92024 z M 108.40499,23.75 c -1.88994,-2.232219 -1.88918,-2.236788 0.095,-0.578179 1.1,0.919502 3.575,1.859985 5.5,2.089963 l 3.5,0.418142 -3.59501,0.160037 c -2.62616,0.116907 -4.10841,-0.446339 -5.5,-2.089963 z m 10.13772,0.319098 c -0.31644,-0.511996 -0.11799,-1.213553 0.44098,-1.559017 0.55897,-0.345463 1.01631,-0.321457 1.01631,0.05335 0,0.374804 0.7875,0.07162 1.75,-0.67375 1.42464,-1.103253 1.39583,-0.9401 -0.15499,0.877555 -2.1624,2.534468 -2.26379,2.577714 -3.0523,1.301865 z M 108.00914,20.51101 c -0.67967,-0.818944 -1.55909,-1.289156 -1.95428,-1.044916 -0.39519,0.244241 -2.80398,-1.673214 -5.35286,-4.26101 -4.101715,-4.164334 -4.379633,-4.711169 -2.418167,-4.758028 3.904867,-0.09329 13.854337,-1.4144157 14.730617,-1.9559878 0.46605,-0.2880306 1.1369,-0.055202 1.49078,0.5173965 0.35389,0.5725987 0.0475,0.917439 -0.6809,0.7663119 -0.72838,-0.1511271 -1.23405,0.2210741 -1.1237,0.8271134 0.12218,0.671023 -0.81575,0.907598 -2.39862,0.605012 -1.63831,-0.313183 -2.36324,-0.114984 -1.96084,0.536108 0.8805,1.424678 -4.79648,2.141316 -7.03574,0.888163 -1.09603,-0.61337 -0.66268,0.336918 1.10854,2.430891 1.59942,1.890865 3.232,3.343296 3.62796,3.227626 0.39596,-0.115671 1.51826,0.671829 2.49399,1.75 0.97573,1.07817 1.53441,1.96031 1.24151,1.96031 -0.2929,0 -1.08863,-0.670045 -1.76829,-1.48899 z M 117.87244,9.25 C 116.62857,7.6639444 116.66394,7.6285741 118.25,8.8724447 119.91575,10.178814 120.44548,11 119.62244,11 c -0.20765,0 -0.99515,-0.7875 -1.75,-1.75 z M 96,5.609406 C 96,5.3945793 97.575,5.0349397 99.5,4.8102068 101.425,4.5854739 103,4.7612412 103,5.2008007 103,5.6403603 101.425,6 99.5,6 97.575,6 96,5.8242327 96,5.609406 Z"
         id="path1011" />
      <path
         style="fill:#8c8c8c;fill-opacity:1"
         d="m 109.54271,24.069098 c -0.31644,-0.511996 -0.14909,-1.194336 0.37188,-1.516312 0.52097,-0.321975 1.22987,-0.128069 1.57533,0.430902 C 111.83538,23.54266 113.59673,24 115.40403,24 c 3.19574,0 5.72267,-1.834691 6.88653,-5 0.47244,-1.28487 0.56287,-1.274015 0.63049,0.07569 C 123.06778,22.004156 118.6802,25 114.24457,25 c -2.2696,0 -4.38543,-0.418906 -4.70186,-0.930902 z m -4.03143,-4.692222 c -0.9453,-1.442718 -1.22448,-2.317655 -0.62038,-1.944306 1.15439,0.713455 3.48267,4.56743 2.75929,4.56743 -0.23109,0 -1.1936,-1.180406 -2.13891,-2.623124 z m 14.55901,-1.722584 c -0.10493,-2.755402 -2.9848,-7.139186 -5.82021,-8.8596101 -1.49478,-0.9069806 -2.07409,-1.7854186 -1.43706,-2.1791191 1.30011,-0.8035166 7.77429,4.6983052 8.41593,7.1519482 0.25378,0.970434 0.11271,2.65724 -0.31349,3.748457 -0.70951,1.816627 -0.78082,1.828298 -0.84517,0.138324 z M 103,5 c 0,-1.2983601 2.69757,-1.2983601 3.5,0 0.33992,0.55 -0.30852,1 -1.44098,1 C 103.92656,6 103,5.55 103,5 Z"
         id="path1009" />
      <path
         style="fill:#767676;fill-opacity:1"
         d="m 107.5841,21.358556 c -0.52667,-1.372472 -0.38034,-1.434339 0.89301,-0.377555 C 110.21235,22.421127 110.39295,23 109.10699,23 c -0.49116,0 -1.17646,-0.73865 -1.52289,-1.641444 z m 12.48619,-0.549539 C 120.10894,20.089058 120.52731,18.6 121,17.5 c 0.7674,-1.785834 0.86696,-1.711841 0.92971,0.690983 C 121.96837,19.671024 121.55,21.160081 121,21.5 c -0.55,0.339919 -0.96837,0.02898 -0.92971,-0.690983 z M 107.8125,5.316886 c 0.72187,-0.2888706 1.58437,-0.2533443 1.91667,0.078947 0.33229,0.3322917 -0.25834,0.5686404 -1.3125,0.5252193 -1.16495,-0.047984 -1.4019,-0.2849403 -0.60417,-0.6041663 z"
         id="path1007" />
    </g>
  </g>
</svg>
