<?xml version="1.0" encoding="UTF-8" standalone="no"?>
<!-- Created with Inkscape (http://www.inkscape.org/) -->

<svg
   width="100mm"
   height="100mm"
   viewBox="0 0 100 100"
   version="1.1"
   id="svg3926"
   inkscape:version="1.1.1 (3bf5ae0d25, 2021-09-20)"
   sodipodi:docname="add_list_type_device_6143.svg"
   xmlns:inkscape="http://www.inkscape.org/namespaces/inkscape"
   xmlns:sodipodi="http://sodipodi.sourceforge.net/DTD/sodipodi-0.dtd"
   xmlns="http://www.w3.org/2000/svg"
   xmlns:svg="http://www.w3.org/2000/svg">
  <sodipodi:namedview
     id="namedview3928"
     pagecolor="#505050"
     bordercolor="#ffffff"
     borderopacity="1"
     inkscape:pageshadow="0"
     inkscape:pageopacity="0"
     inkscape:pagecheckerboard="1"
     inkscape:document-units="mm"
     showgrid="false"
     inkscape:zoom="0.58974467"
     inkscape:cx="397.62971"
     inkscape:cy="198.39094"
     inkscape:window-width="1440"
     inkscape:window-height="890"
     inkscape:window-x="-6"
     inkscape:window-y="-6"
     inkscape:window-maximized="1"
     inkscape:current-layer="layer1" />
  <defs
     id="defs3923" />
  <g
     inkscape:label="Laag 1"
     inkscape:groupmode="layer"
     id="layer1">
    <g
       id="g3942"
       transform="translate(-0.89727825,-0.44864043)">
      <path
         style="fill:#d0d0d0;fill-opacity:1;stroke-width:0.610757"
         d="m 45.633594,92.969913 c 0.44089,-0.176429 0.967668,-0.154735 1.170617,0.04819 0.202949,0.202948 -0.157779,0.3473 -0.801618,0.320781 -0.711496,-0.02932 -0.856219,-0.174029 -0.368999,-0.368995 z m 8.970487,-3.858082 c 0.207608,-0.335916 0.652309,-0.610756 0.988225,-0.610756 0.335916,0 0.440896,0.27484 0.233288,0.610756 -0.207608,0.335916 -0.652309,0.610757 -0.988225,0.610757 -0.335916,0 -0.440896,-0.274841 -0.233288,-0.610757 z M 75.98056,78.118214 c 0.608002,-0.671833 1.242877,-1.221514 1.410835,-1.221514 0.167958,0 -0.192077,0.549681 -0.800079,1.221514 -0.608002,0.671832 -1.242877,1.221513 -1.410835,1.221513 -0.167958,0 0.192077,-0.549681 0.800079,-1.221513 z M 70.178373,77.27686 c 0,-0.126824 0.48097,-0.607795 1.068823,-1.068824 0.968697,-0.759702 0.990299,-0.738099 0.230598,0.230597 -0.797874,1.017368 -1.299421,1.340904 -1.299421,0.838227 z M 49.298134,70.982678 c 0.44089,-0.176429 0.967667,-0.154735 1.170617,0.04819 0.202948,0.202955 -0.15778,0.347301 -0.801618,0.320782 -0.711497,-0.02932 -0.85622,-0.174029 -0.368999,-0.368995 z m 37.292757,-0.65161 c -0.759702,-0.968697 -0.738099,-0.990299 0.230597,-0.230597 0.587853,0.461029 1.068824,0.942 1.068824,1.068823 0,0.502677 -0.501547,0.179141 -1.299421,-0.838226 z m 4.96396,0.838226 c 0,-0.126823 0.480971,-0.607794 1.068824,-1.068823 0.968697,-0.759702 0.990299,-0.7381 0.230597,0.230597 -0.797874,1.017367 -1.299421,1.340903 -1.299421,0.838226 z M 77.838915,68.999069 c -0.193268,-0.312708 -0.11787,-0.712875 0.167536,-0.889268 0.285413,-0.176392 0.518929,0.07945 0.518929,0.568553 0,1.02984 -0.192595,1.119816 -0.686465,0.320715 z M 92.0877,64.834259 c -0.759702,-0.968697 -0.7381,-0.990299 0.230597,-0.230597 1.017367,0.797874 1.340904,1.299421 0.838226,1.299421 -0.126823,0 -0.607794,-0.480971 -1.068823,-1.068824 z M 73.995601,61.798652 c -0.419895,-0.149959 -0.763446,-0.720909 -0.763446,-1.268772 0,-0.906645 0.09274,-0.90338 1.032472,0.03635 1.104156,1.104159 0.978872,1.678099 -0.269026,1.232418 z m 17.55925,-0.401459 c 0,-0.126827 0.480971,-0.607798 1.068824,-1.068824 0.968697,-0.759702 0.990299,-0.7381 0.230597,0.230594 -0.797874,1.017367 -1.299421,1.340904 -1.299421,0.83823 z M 75.522492,55.891534 c -1.37524,-1.043954 -1.346516,-1.311964 0.152689,-1.424896 0.832938,-0.06274 1.221513,0.284486 1.221513,1.091542 0,1.386222 0.0097,1.383873 -1.374202,0.333354 z m 10.53555,0.0089 c 0,-0.126828 0.480971,-0.607798 1.068824,-1.068824 0.968697,-0.759703 0.990299,-0.7381 0.230598,0.230594 -0.797875,1.017367 -1.299422,1.340904 -1.299422,0.83823 z m 6.029658,-0.83823 c -0.759702,-0.968694 -0.7381,-0.990296 0.230597,-0.230594 1.017367,0.797874 1.340904,1.299418 0.838226,1.299418 -0.126823,0 -0.607794,-0.48097 -1.068823,-1.068824 z M 70.827656,54.650507 c -1.133345,-1.365596 -0.531481,-2.236893 0.84478,-1.222961 0.821938,0.605543 0.992968,1.071459 0.554335,1.510092 -0.438634,0.438633 -0.87031,0.350044 -1.399115,-0.287131 z m 6.117258,-1.929586 c 0.02932,-0.711496 0.174029,-0.856219 0.368994,-0.368999 0.17643,0.44089 0.154735,0.967668 -0.04819,1.170617 -0.202955,0.202949 -0.347301,-0.157779 -0.320782,-0.801618 z M 19.604647,50.939548 c 0.01245,-1.007748 0.149329,-1.346068 0.304182,-0.751822 0.154853,0.594246 0.14467,1.418767 -0.02263,1.83227 -0.167303,0.413501 -0.294001,-0.0727 -0.281554,-1.080448 z m 9.138717,0.305378 c 0,-0.83979 0.138625,-1.183341 0.308057,-0.763446 0.169431,0.419896 0.169431,1.106997 0,1.526892 -0.169432,0.419895 -0.308057,0.07634 -0.308057,-0.763446 z M 10.420668,50.63417 c 0,-0.839791 0.138625,-1.183341 0.308057,-0.763446 0.169431,0.419895 0.169431,1.106996 0,1.526891 -0.169432,0.419895 -0.308057,0.07634 -0.308057,-0.763445 z m 76.170223,-0.458068 c -0.759702,-0.968694 -0.738099,-0.990296 0.230597,-0.230594 0.587853,0.461026 1.068824,0.941997 1.068824,1.068824 0,0.502673 -0.501547,0.179137 -1.299421,-0.83823 z m 4.96396,0.83823 c 0,-0.126827 0.480971,-0.607798 1.068824,-1.068824 0.968697,-0.759702 0.990299,-0.7381 0.230597,0.230594 -0.797874,1.017367 -1.299421,1.340903 -1.299421,0.83823 z m -78.739375,-1.95795 c 0.0293,-0.711496 0.17403,-0.856219 0.368999,-0.368999 0.17643,0.44089 0.154731,0.967668 -0.04822,1.170617 -0.20295,0.202949 -0.347301,-0.157779 -0.320782,-0.801618 z m 61.686411,0 c 0.02932,-0.711496 0.174029,-0.856219 0.368995,-0.368999 0.176429,0.44089 0.154735,0.967668 -0.04819,1.170617 -0.202954,0.202949 -0.3473,-0.157779 -0.320781,-0.801618 z M 15.210285,47.275009 c 0,-0.503874 0.108015,-0.916135 0.240034,-0.916135 0.132018,0 0.398233,0.412261 0.591588,0.916135 0.193355,0.503874 0.08534,0.916135 -0.240034,0.916135 -0.325374,0 -0.591588,-0.412261 -0.591588,-0.916135 z M 92.0877,44.679293 c -0.759702,-0.968694 -0.7381,-0.990296 0.230597,-0.230594 1.017367,0.797874 1.340904,1.299418 0.838226,1.299418 -0.126823,0 -0.607794,-0.48097 -1.068823,-1.068824 z M 74.453668,35.125222 c 0,-0.132018 0.426534,-0.403711 0.947858,-0.603761 0.543524,-0.208571 0.788682,-0.106179 0.574709,0.240034 -0.358672,0.580344 -1.522567,0.858387 -1.522567,0.363727 z m -38.465412,-2.49361 c -0.481733,-0.580454 -0.528067,-0.930895 -0.123078,-0.930895 0.738133,0 1.598714,1.158727 1.175155,1.582285 -0.153727,0.153727 -0.627161,-0.139399 -1.052077,-0.65139 z m 5.48456,-2.152408 c 0,-0.335916 -0.480971,-0.614965 -1.068824,-0.620109 -0.894077,-0.0078 -0.92239,-0.101966 -0.173173,-0.575819 0.567781,-0.359103 1.182622,-0.328303 1.67958,0.08414 0.933946,0.775106 1.029195,1.722549 0.173173,1.722549 -0.335916,0 -0.610756,-0.274841 -0.610756,-0.610757 z m -8.135808,-1.522417 c -0.767028,-0.560865 -0.885566,-0.935028 -0.392723,-1.239622 0.388253,-0.239953 1.118175,-0.02402 1.622049,0.479856 1.190982,1.190983 0.19891,1.804117 -1.229326,0.759766 z m 33.176825,-2.716834 c 0,-0.316091 0.271695,-0.742626 0.603764,-0.947856 0.346213,-0.213972 0.4486,0.03119 0.240033,0.574712 -0.406025,1.058085 -0.843797,1.251676 -0.843797,0.373144 z M 37.808276,25.353118 c 0,-0.579383 1.828226,-0.871379 2.154134,-0.344048 0.19854,0.321245 -0.204919,0.584082 -0.896576,0.584082 -0.691656,0 -1.257558,-0.108015 -1.257558,-0.240034 z m 9.619416,-0.190997 c 0.755811,-0.145576 1.992593,-0.145576 2.748404,0 0.755811,0.145575 0.13742,0.264683 -1.374202,0.264683 -1.511622,0 -2.130013,-0.119108 -1.374202,-0.264683 z M 30.790733,23.75092 c 0.210995,-0.341396 0.639475,-0.462596 0.95218,-0.269334 0.847146,0.523565 0.689185,0.890053 -0.383625,0.890053 -0.523699,0 -0.779548,-0.279324 -0.568555,-0.620719 z m 6.435853,-2.092664 c -1.172837,-1.413181 0.538685,-1.829792 2.759497,-0.671703 1.087069,0.566875 1.391272,0.936014 0.773239,0.938297 -0.560379,0.0021 -1.409577,0.153691 -1.887107,0.336936 -0.477529,0.183245 -1.218062,-0.08834 -1.645629,-0.60353 z m -8.757033,-0.627705 c -0.897392,-0.65619 -0.929626,-0.847462 -0.190607,-1.13105 0.489186,-0.187718 1.197711,0.03015 1.574498,0.48415 0.946163,1.140056 -0.06381,1.612167 -1.383891,0.6469 z m 6.590319,-4.598747 c 0.207608,-0.335916 0.979639,-0.606548 1.715625,-0.601404 1.087901,0.0076 1.166826,0.120075 0.422023,0.601404 -1.203261,0.777607 -2.618236,0.777607 -2.137648,0 z m 11.298996,-0.341021 c 2.269436,-0.493761 5.383374,-0.580308 5.112543,-0.142094 -0.164219,0.265713 -1.587853,0.451233 -3.163629,0.412267 -1.575777,-0.03897 -2.452788,-0.160545 -1.948914,-0.270173 z M 41.358299,9.2962657 c 0.44089,-0.1764298 0.967667,-0.1547315 1.170617,0.048219 0.202949,0.2029495 -0.15778,0.3473012 -0.801618,0.3207815 -0.711497,-0.029304 -0.85622,-0.1740296 -0.368999,-0.3689989 z"
         id="path3958" />
      <path
         style="fill:#b9b9b9;fill-opacity:1;stroke-width:0.610757"
         d="m 54.184186,92.969913 c 0.44089,-0.176429 0.967667,-0.154735 1.170617,0.04819 0.202949,0.202948 -0.157779,0.3473 -0.801618,0.320781 -0.711497,-0.02932 -0.85622,-0.174029 -0.368999,-0.368995 z M 39.920811,75.634554 c -0.22142,-0.358264 -0.271593,-0.782379 -0.111497,-0.942477 0.160096,-0.160098 0.453832,0.133029 0.652747,0.65139 0.412983,1.07622 0.06098,1.265524 -0.54125,0.291087 z M 77.303867,64.274397 c -0.223946,-0.22394 -0.407173,-0.691169 -0.407173,-1.038286 0,-0.3827 0.284472,-0.346641 0.722727,0.09161 0.397505,0.397505 0.580732,0.864734 0.407173,1.038286 -0.173559,0.173559 -0.498787,0.132333 -0.722727,-0.09161 z M 72.43367,61.846811 c 0.158852,-0.413957 0.678337,-0.60318 1.15441,-0.420493 1.260705,0.483779 1.059485,1.361675 -0.288821,1.260106 -0.64265,-0.04843 -1.02637,-0.420616 -0.865589,-0.839613 z m -3.554719,-1.845908 c -0.760074,-0.921389 -0.710102,-0.947858 0.535976,-0.28389 1.421206,0.757284 1.771151,1.300018 0.838227,1.300018 -0.294782,0 -0.913173,-0.457258 -1.374203,-1.016128 z m 7.503419,-6.923707 c 0,-0.83979 0.13863,-1.183341 0.30806,-0.763446 0.16943,0.419895 0.16943,1.106996 0,1.526891 -0.16943,0.419896 -0.30806,0.07635 -0.30806,-0.763445 z m -5.47109,-0.122152 c -0.403099,-0.403099 -0.732907,-1.092529 -0.732907,-1.532066 0,-0.646271 0.233687,-0.653217 1.221513,-0.03631 0.671832,0.419566 1.221513,1.108997 1.221513,1.532067 0,0.970902 -0.759403,0.987027 -1.710119,0.03631 z M 52.351916,51.438466 c 0.44089,-0.176429 0.967668,-0.154731 1.170617,0.04822 0.202949,0.202949 -0.157779,0.347301 -0.801618,0.320781 -0.711496,-0.0293 -0.856219,-0.174029 -0.368999,-0.368999 z M 35.3775,33.242368 c -0.481734,-0.580453 -0.528067,-0.930894 -0.123079,-0.930894 0.738133,0 1.598714,1.158727 1.175156,1.582285 C 36.27585,34.047486 35.802415,33.75436 35.3775,33.242368 Z m -4.226231,-1.361186 c 0.444719,-0.740533 0.940045,-1.214961 1.100724,-1.054282 0.160679,0.16068 -0.203182,0.766571 -0.80858,1.346427 -1.051686,1.007312 -1.064701,0.994297 -0.292144,-0.292145 z m -3.115097,-2.928869 c 1.139539,-1.175707 2.20931,-2.137648 2.377268,-2.137648 0.167958,0 -0.626972,0.961941 -1.766512,2.137648 -1.139539,1.175706 -2.20931,2.137648 -2.377268,2.137648 -0.167958,0 0.626973,-0.961942 1.766512,-2.137648 z m 5.277368,1.663625 c 0.11025,-0.176733 -0.276244,-0.683318 -0.858877,-1.125744 -0.981602,-0.745388 -0.983551,-0.805837 -0.02655,-0.823836 1.25771,-0.02365 2.073793,1.127086 1.269234,1.789718 -0.321343,0.264658 -0.494056,0.336596 -0.383807,0.159862 z m 8.72135,-1.111527 c -0.706325,-0.851069 -0.624989,-0.947968 0.640823,-0.763446 0.797405,0.116241 1.56297,0.554898 1.701253,0.974793 0.361886,1.098858 -1.385573,0.941169 -2.342076,-0.211347 z M 24.371633,25.973314 c 0,-0.126827 0.48097,-0.607798 1.068824,-1.068824 0.968694,-0.759702 0.990296,-0.7381 0.230594,0.230594 -0.797874,1.017367 -1.299418,1.340904 -1.299418,0.83823 z m 5.275943,-0.68554 c 0.193355,-0.503875 0.630642,-0.916135 0.97175,-0.916135 0.357479,0 0.29812,0.388079 -0.140128,0.916135 -0.418178,0.503874 -0.855466,0.916134 -0.97175,0.916134 -0.116285,0 -0.05323,-0.41226 0.140128,-0.916134 z m -5.581322,-0.916135 c 0.608,-0.671832 1.242875,-1.221513 1.410833,-1.221513 0.167958,0 -0.192076,0.549681 -0.800076,1.221513 -0.608,0.671832 -1.242874,1.221513 -1.410832,1.221513 -0.167958,0 0.192076,-0.549681 0.800075,-1.221513 z m 16.185049,0 c 1.184109,-0.76523 1.832269,-0.76523 1.832269,0 0,0.335916 -0.618391,0.606548 -1.374202,0.601404 -1.111234,-0.0076 -1.19889,-0.122648 -0.458067,-0.601404 z M 20.096337,23.530288 c 0,-0.126827 0.480971,-0.607798 1.068824,-1.068824 0.968694,-0.759702 0.990296,-0.7381 0.230594,0.230594 -0.797873,1.017367 -1.299418,1.340903 -1.299418,0.83823 z m 7.481768,-1.321582 c -0.419896,-0.461612 -0.763446,-0.988314 -0.763446,-1.170451 0,-0.608992 1.754758,-0.339928 2.170538,0.332818 0.648643,1.049528 -0.559916,1.768976 -1.407092,0.837633 z M 22.539363,21.3832 c 0,-0.299976 0.451135,-0.718529 1.002523,-0.930116 0.838246,-0.321665 0.876032,-0.232293 0.230594,0.545412 -0.879566,1.059813 -1.233117,1.170112 -1.233117,0.384704 z m 16.766933,-0.722815 c -0.520004,-0.841385 0.0053,-1.33614 1.142492,-1.076098 0.755594,0.172777 0.768731,0.330906 0.08009,0.964043 -0.561358,0.516113 -0.950801,0.551807 -1.222583,0.112055 z M 24.651897,18.223439 C 24.092023,17.317543 24.61855,16.94128 25.8076,17.39756 c 0.550024,0.211064 0.847981,0.629794 0.662127,0.930512 -0.457127,0.739648 -1.326979,0.68958 -1.81783,-0.104633 z m 13.156379,-2.097013 c -0.641361,-0.772793 -0.52142,-0.916135 0.766568,-0.916135 0.83979,0 1.869037,0.41226 2.287215,0.916135 0.641361,0.772792 0.521421,0.916134 -0.766567,0.916134 -0.83979,0 -1.869037,-0.41226 -2.287216,-0.916134 z m -1.425098,-3.766333 c -0.70645,-0.706449 -0.445648,-1.272569 0.727594,-1.579379 1.371399,-0.358629 3.306101,0.613783 2.811953,1.413331 -0.405933,0.656813 -2.930356,0.77524 -3.539547,0.166048 z"
         id="path3956" />
      <path
         style="fill:#a3a3a3;fill-opacity:1;stroke-width:0.610757"
         d="m 48.35545,92.963879 c 0.594246,-0.154852 1.418768,-0.14467 1.83227,0.02266 0.413502,0.167304 -0.0727,0.294 -1.080448,0.281552 -1.007748,-0.01246 -1.346068,-0.14933 -0.751822,-0.304181 z m -0.62238,-7.326843 c 0.587853,-0.153618 1.549795,-0.153618 2.137648,0 0.587853,0.153623 0.106882,0.279317 -1.068824,0.279317 -1.175706,0 -1.656677,-0.125694 -1.068824,-0.279317 z m 3.359161,-4.258775 c 0.419895,-0.16943 1.106996,-0.16943 1.526891,0 0.419895,0.16943 0.07635,0.308059 -0.763445,0.308059 -0.839791,0 -1.183341,-0.138629 -0.763446,-0.308059 z M 51.130403,77.701 c 0.44089,-0.17643 0.967668,-0.154736 1.170617,0.04819 0.202949,0.202955 -0.157779,0.347301 -0.801618,0.320782 -0.711496,-0.02932 -0.856219,-0.174029 -0.368999,-0.368995 z m 27.293183,-0.8043 c 0.207608,-0.335916 0.652306,-0.610756 0.988222,-0.610756 0.335916,0 0.440899,0.27484 0.233291,0.610756 -0.207609,0.335917 -0.652307,0.610757 -0.988223,0.610757 -0.335916,0 -0.440899,-0.27484 -0.23329,-0.610757 z M 48.038448,76.492209 c 0.419895,-0.16943 1.106997,-0.16943 1.526892,0 0.419895,0.16943 0.07634,0.308059 -0.763446,0.308059 -0.83979,0 -1.183341,-0.138629 -0.763446,-0.308059 z M 27.443103,72.645261 c -0.494146,-0.312506 -0.739441,-0.727203 -0.5451,-0.92154 0.19434,-0.194343 0.701004,0.06555 1.12592,0.577543 0.881073,1.06163 0.712134,1.161684 -0.58082,0.343997 z M 70.47721,72.187334 c 0.765045,-0.870951 1.039049,-0.905703 1.68176,-0.213307 0.626429,0.67485 0.584702,0.763165 -0.22659,0.479615 -0.54692,-0.191142 -1.303715,-0.09516 -1.681767,0.213307 -0.378046,0.308469 -0.27608,0.09264 0.226597,-0.479615 z m 5.323256,-5.217156 c -0.887326,-1.069166 0.806705,-3.43319 1.769942,-2.469954 0.705558,0.705558 0.205067,3.235128 -0.640085,3.235128 -0.272153,0 -0.780584,-0.344332 -1.129857,-0.765174 z m 4.395834,-9.00693 c 0,-5.206699 0.09367,-7.336713 0.208158,-4.733363 0.114487,2.60335 0.114487,6.863376 0,9.466726 -0.114486,2.60335 -0.208158,0.473336 -0.208158,-4.733363 z m 18.322696,0 c 0,-5.206699 0.09367,-7.336713 0.208158,-4.733363 0.114487,2.60335 0.114487,6.863376 0,9.466726 -0.114486,2.60335 -0.208158,0.473336 -0.208158,-4.733363 z m -25.866601,7.329078 c -0.01466,-1.090921 1.001817,-2.835309 1.41271,-2.424416 0.158736,0.158736 -0.09142,0.975299 -0.555905,1.814582 -0.489606,0.884675 -0.849684,1.14096 -0.856805,0.609834 z m -4.764317,-2.94646 c -0.607696,-0.38587 -0.601143,-0.706633 0.03213,-1.572693 0.712845,-0.974875 0.87701,-0.989783 1.579423,-0.143426 1.250078,1.506251 0.05765,2.77602 -1.611561,1.716119 z m -40.366227,-9.26867 c 0,-0.83979 0.138625,-1.183341 0.308057,-0.763446 0.169431,0.419895 0.169431,1.106996 0,1.526891 -0.169432,0.419896 -0.308057,0.07635 -0.308057,-0.763445 z M 70.91128,51.122775 c -0.403099,-0.403099 -0.732907,-1.132797 -0.732907,-1.621551 0,-0.705416 0.251857,-0.660713 1.221513,0.216811 1.254732,1.135518 1.598319,2.137648 0.732907,2.137648 -0.268732,0 -0.818413,-0.329809 -1.221513,-0.732908 z m 5.374658,-0.183227 c 0,-0.503874 -0.320647,-0.916135 -0.712551,-0.916135 -0.391899,0 -0.568658,-0.143889 -0.39279,-0.319755 0.175861,-0.175865 0.771349,-0.14646 1.323302,0.06534 1.082895,0.415546 1.397465,2.086681 0.392795,2.086681 -0.335916,0 -0.610756,-0.412261 -0.610756,-0.916135 z m -6.507562,-4.301637 c -0.198917,-0.518361 -0.225198,-1.078943 -0.05839,-1.245737 0.166791,-0.166795 0.449858,0.25732 0.62903,0.942475 0.380593,1.45539 -0.04226,1.680125 -0.57063,0.303262 z M 33.701082,34.79671 c -1.00539,-1.609885 0.490306,-2.98352 1.683358,-1.54598 0.65246,0.786168 0.637731,1.108602 -0.08359,1.829928 -0.760307,0.760307 -0.970966,0.722916 -1.599763,-0.283948 z M 12.466204,33.539982 c -0.213972,-0.346213 0.03119,-0.448605 0.574711,-0.240034 1.058085,0.406026 1.251677,0.843795 0.373145,0.843795 -0.316091,0 -0.742627,-0.271692 -0.947856,-0.603761 z m 17.970714,-3.46636 c 0.910697,-0.637878 1.552387,-0.708404 2.329218,-0.255998 0.589722,0.343439 0.934803,0.650338 0.766845,0.681996 -0.167958,0.03166 -1.216106,0.146858 -2.329218,0.255998 -1.919348,0.188192 -1.958941,0.15298 -0.766845,-0.681996 z M 70.100464,29.41038 c -0.759701,-0.968694 -0.738099,-0.990296 0.230598,-0.230594 0.587853,0.461026 1.068824,0.941997 1.068824,1.068824 0,0.502673 -0.501548,0.179137 -1.299422,-0.83823 z M 43.646419,28.932889 c -1.165486,-0.881529 -1.164166,-0.896711 0.07791,-0.896711 0.694904,0 1.605609,0.412261 2.023787,0.916135 1.032047,1.24354 -0.450013,1.229843 -2.101692,-0.01942 z m -15.93216,-1.534222 c -0.441604,-0.714529 0.750746,-2.416272 1.692994,-2.416272 0.348862,0 0.294248,0.38137 -0.127364,0.889381 -0.405966,0.489159 -0.560819,1.17626 -0.344117,1.526891 0.216702,0.350631 0.119163,0.637511 -0.216754,0.637511 -0.335916,0 -0.788057,-0.28688 -1.004759,-0.637511 z m 15.108678,-2.744881 c -0.656504,-0.74435 -0.605697,-0.889672 0.305379,-0.87348 0.601097,0.01068 1.626405,0.422944 2.278462,0.916135 1.146143,0.866899 1.13599,0.895938 -0.305378,0.87348 -0.820016,-0.01278 -1.845323,-0.425039 -2.278463,-0.916135 z M 26.203902,23.794509 c 0,-0.460462 -0.503457,-0.585714 -1.374202,-0.341879 -1.348192,0.377536 -1.346015,0.362174 0.115017,-0.811672 0.81907,-0.658071 1.849722,-1.058154 2.290337,-0.889075 1.051672,0.403565 1.013374,1.072518 -0.115017,2.008999 -0.689359,0.572117 -0.916135,0.580441 -0.916135,0.03363 z M 54.184186,20.90064 c 0.44089,-0.17643 0.967667,-0.154732 1.170617,0.04822 0.202949,0.20295 -0.157779,0.347301 -0.801618,0.320782 -0.711497,-0.02931 -0.85622,-0.17403 -0.368999,-0.368999 z M 22.055397,19.08118 c 1.39788,-1.39788 1.777455,-1.517696 2.612511,-0.824661 0.627354,0.520657 0.766191,1.02166 0.387942,1.399909 -0.323986,0.323986 -1.499616,0.695083 -2.612511,0.824661 l -2.023446,0.235595 z m 19.417419,0.47564 c 0,-0.296738 0.565388,-0.687376 1.256418,-0.868084 1.030937,-0.269596 1.127125,-0.172772 0.535972,0.539523 -0.806368,0.971615 -1.79239,1.152361 -1.79239,0.328561 z m -1.160274,-3.967362 c -0.557035,-0.671186 -0.392296,-0.900991 0.810752,-1.130968 0.892921,-0.170693 1.631856,0.02935 1.808467,0.489594 0.164246,0.42802 0.933827,0.899528 1.710179,1.047795 0.827661,0.158066 0.368765,0.303982 -1.109382,0.352751 -1.489055,0.04913 -2.807082,-0.261618 -3.220016,-0.759172 z m -0.838913,-4.293555 c -1.015723,-0.770671 -0.996738,-0.844334 0.305378,-1.184938 0.930977,-0.2435222 1.785299,0.03363 2.592978,0.841181 1.198879,1.198695 1.197442,1.204271 -0.305378,1.184938 -0.83046,-0.01068 -1.9973,-0.389215 -2.592978,-0.841181 z m 7.422145,-1.142117 c 0.29469,-0.2946892 1.325092,-0.437357 2.289784,-0.3170392 1.614607,0.2013772 1.57203,0.2439532 -0.535799,0.5357992 -1.312964,0.18179 -2.061213,0.08847 -1.753985,-0.21876 z"
         id="path3954" />
      <path
         style="fill:#8c8c8c;fill-opacity:1;stroke-width:0.610757"
         d="m 17.090772,93.030854 c 0.0293,-0.711501 0.174029,-0.856219 0.368999,-0.369001 0.17643,0.440887 0.154731,0.967665 -0.04822,1.170619 -0.202949,0.202948 -0.347301,-0.157783 -0.320781,-0.801618 z m 59.195166,-9.646429 c 0,-0.126824 0.480971,-0.607794 1.068824,-1.068824 0.968696,-0.759702 0.990299,-0.738099 0.230597,0.230597 -0.797874,1.017368 -1.299421,1.340904 -1.299421,0.838227 z M 50.481474,76.492209 c 0.419896,-0.16943 1.106997,-0.16943 1.526892,0 0.419895,0.16943 0.07634,0.308059 -0.763446,0.308059 -0.83979,0 -1.183341,-0.138629 -0.763446,-0.308059 z M 25.515241,70.331068 c -0.759703,-0.968697 -0.7381,-0.990299 0.230594,-0.230597 0.587853,0.461029 1.068824,0.942 1.068824,1.068823 0,0.502677 -0.501545,0.179141 -1.299418,-0.838226 z m 7.755987,-4.77699 c -1.396106,-1.396104 -1.177537,-1.869672 0.261753,-0.56713 0.671832,0.608002 1.221513,1.200277 1.221513,1.316174 0,0.453878 -0.566343,0.167879 -1.483266,-0.749044 z m 30.188823,-3.315534 c 0,-0.335916 0.27484,-0.610757 0.610756,-0.610757 0.335916,0 0.610757,0.274841 0.610757,0.610757 0,0.335916 -0.274841,0.610756 -0.610757,0.610756 -0.335916,0 -0.610756,-0.27484 -0.610756,-0.610756 z m 1.832269,-0.57471 c 0,-0.316093 0.271695,-0.742629 0.603764,-0.947858 0.346213,-0.213972 0.4486,0.03119 0.240033,0.574711 -0.406025,1.058086 -0.843797,1.251678 -0.843797,0.373147 z M 23.291817,51.244926 c 0,-1.175706 0.125691,-1.656677 0.279313,-1.068824 0.153622,0.587853 0.153622,1.549795 0,2.137648 -0.153622,0.587853 -0.279313,0.106882 -0.279313,-1.068824 z M 14.130469,50.63417 c 0,-1.175707 0.125691,-1.656677 0.279313,-1.068824 0.153622,0.587853 0.153622,1.549794 0,2.137648 -0.153622,0.587853 -0.279313,0.106882 -0.279313,-1.068824 z m 57.046313,-1.122474 c -1.062264,-1.181364 -1.070613,-1.335599 -0.123605,-2.282606 1.301999,-1.301999 1.703119,-0.865749 1.458609,1.586343 L 72.31602,50.77867 Z m 4.719078,0.0443 c -0.662134,-0.427215 -2.222958,-5.062964 -1.83522,-5.450705 0.437345,-0.437343 2.781703,2.704823 3.162369,4.238545 0.415687,1.674836 -0.0089,2.062679 -1.327149,1.21216 z m -13.092794,-14.648805 -1.480663,-1.67958 1.67958,1.480665 c 1.569822,1.383905 1.959668,1.878495 1.480663,1.878495 -0.109398,0 -0.865209,-0.755811 -1.67958,-1.67958 z m 11.312335,-0.816662 c -0.225699,-0.365186 -0.135521,-0.938814 0.200395,-1.27473 0.407173,-0.407171 0.766988,-0.357976 1.079439,0.147584 0.323579,0.523562 0.218248,0.603563 -0.340234,0.258403 -0.587346,-0.363 -0.702089,-0.221557 -0.418912,0.516389 0.438419,1.142503 0.106479,1.36713 -0.520688,0.352354 z M 45.870263,29.13554 c -1.130547,-1.130547 -0.876245,-1.710119 0.750357,-1.710119 1.2711,0 3.402787,1.366466 3.402787,2.181274 0,0.598399 -3.478173,0.203816 -4.153144,-0.471155 z M 25.287768,28.036178 c 0.607999,-0.671832 1.242874,-1.221513 1.410832,-1.221513 0.167958,0 -0.192076,0.549681 -0.800076,1.221513 -0.608,0.671832 -1.242874,1.221513 -1.410832,1.221513 -0.167958,0 0.192076,-0.549681 0.800076,-1.221513 z M 74.37576,25.135084 c -0.759702,-0.968694 -0.738099,-0.990296 0.230597,-0.230594 1.017368,0.797874 1.340904,1.299418 0.838227,1.299418 -0.126824,0 -0.607794,-0.48097 -1.068824,-1.068824 z M 44.367815,24.127738 c -0.971554,-0.73736 -0.863308,-0.850148 1.125676,-1.172916 1.678999,-0.272464 2.503943,-0.07449 3.480419,0.835233 l 1.279827,1.19234 -2.405502,-0.01942 c -1.323026,-0.01068 -2.889215,-0.386538 -3.48042,-0.835233 z m 32.165473,-1.741058 -1.163485,-1.374202 1.374202,1.163484 c 0.755811,0.639916 1.374202,1.258307 1.374202,1.374202 0,0.48876 -0.49153,0.127927 -1.584919,-1.163484 z M 19.180202,21.317856 c 0.608,-0.671832 1.242874,-1.221513 1.410833,-1.221513 0.167958,0 -0.192077,0.549681 -0.800076,1.221513 -0.608,0.671832 -1.242875,1.221513 -1.410833,1.221513 -0.167958,0 0.192077,-0.549681 0.800076,-1.221513 z m 25.957153,-1.221513 c 0,-0.335916 -0.428481,-0.610756 -0.95218,-0.610756 -0.523699,0 -0.782319,-0.274841 -0.574712,-0.610757 0.646315,-1.045758 4.371672,-0.672137 5.887215,0.590437 l 1.441864,1.201193 -2.901094,0.02032 c -1.595601,0.01118 -2.901093,-0.254521 -2.901093,-0.590437 z M 43.1015,15.413876 c -0.865537,-0.865537 -0.312942,-1.276901 2.161044,-1.608733 2.939309,-0.394244 3.628542,-0.148702 3.141953,1.119329 -0.350603,0.913659 -4.496157,1.296245 -5.302997,0.489404 z m 7.418147,-1.842315 c 0.44089,-0.176429 0.967667,-0.154731 1.170617,0.04822 0.202948,0.202949 -0.15778,0.347301 -0.801618,0.320781 -0.711497,-0.0293 -0.85622,-0.174029 -0.368999,-0.368999 z m -8.374163,-2.867345 c -0.826969,-0.9964372 0.764248,-1.5910893 4.213384,-1.5745787 1.762569,0.00844 1.947854,0.1207258 1.055978,0.6399544 -0.594918,0.3463473 -0.922249,0.8876703 -0.7274,1.2029403 0.566817,0.917131 -3.770792,0.660887 -4.541962,-0.268316 z"
         id="path3952" />
      <path
         style="fill:#767676;fill-opacity:1;stroke-width:0.610757"
         d="m 48.045569,90.512137 c 0.759728,-0.146087 1.85909,-0.140541 2.443026,0.01234 0.583937,0.152867 -0.03766,0.272398 -1.381323,0.265618 -1.343664,-0.0068 -1.82143,-0.131856 -1.061703,-0.277943 z m 34.806002,0.02748 c 0.419895,-0.16943 1.106996,-0.16943 1.526891,0 0.419895,0.16943 0.07634,0.30806 -0.763446,0.30806 -0.83979,0 -1.183341,-0.13863 -0.763445,-0.30806 z M 33.736566,88.222576 c 0,-0.4891 0.233517,-0.744946 0.518927,-0.568554 0.285409,0.176393 0.360802,0.576561 0.16754,0.889268 -0.493873,0.799102 -0.686467,0.709125 -0.686467,-0.320714 z m 51.303547,-0.05375 c 0,-0.489094 0.229033,-0.889268 0.508968,-0.889268 0.279928,0 0.508961,0.258619 0.508961,0.57471 0,0.316091 -0.229033,0.716265 -0.508961,0.889268 -0.279935,0.173009 -0.508968,-0.08561 -0.508968,-0.57471 z M 73.020259,86.210738 c -0.156195,-0.251938 1.133076,-0.378706 2.865047,-0.281706 5.206107,0.291569 5.840756,0.568364 1.505503,0.6566 -2.247609,0.04575 -4.214361,-0.122957 -4.37055,-0.374894 z M 51.130403,85.640835 c 0.44089,-0.17643 0.967668,-0.154736 1.170617,0.04819 0.202949,0.202949 -0.157779,0.347301 -0.801618,0.320782 -0.711496,-0.02932 -0.856219,-0.174029 -0.368999,-0.368995 z m 40.039494,-4.621528 c 0.202552,-0.755811 0.372031,-2.008815 0.376617,-2.784451 0.0049,-0.783088 0.279947,-1.242383 0.619094,-1.032777 0.335916,0.207608 0.610756,1.201987 0.610756,2.209735 0,1.243421 -0.229638,1.690348 -0.714548,1.390656 -0.480452,-0.296937 -0.586779,-0.108653 -0.324544,0.574716 0.21611,0.563179 0.09447,1.016323 -0.272825,1.016323 -0.389315,0 -0.510855,-0.567044 -0.29455,-1.374202 z M 47.73307,81.36174 c 0.587853,-0.153618 1.549795,-0.153618 2.137648,0 0.587853,0.153623 0.106882,0.279317 -1.068824,0.279317 -1.175706,0 -1.656677,-0.125694 -1.068824,-0.279317 z m 40.978758,-0.521464 c -0.198917,-0.518361 -0.225198,-1.078944 -0.05839,-1.245736 0.166792,-0.166797 0.449859,0.257318 0.62903,0.942477 0.380593,1.45539 -0.04226,1.680124 -0.570629,0.303259 z m 5.334268,-0.635309 c 0.02932,-0.711501 0.174029,-0.85622 0.368995,-0.369001 0.176429,0.440887 0.154735,0.967665 -0.04819,1.170619 -0.202954,0.202948 -0.3473,-0.157783 -0.320781,-0.801618 z M 84.34484,78.423592 c 0.01246,-1.007748 0.14933,-1.346071 0.304181,-0.751823 0.154851,0.594248 0.14467,1.418769 -0.02266,1.832269 -0.167305,0.413501 -0.294,-0.0727 -0.281553,-1.080446 z m 5.425961,0.727399 c -0.02938,-0.673359 -0.32361,-0.934666 -0.753344,-0.669078 -0.454531,0.280917 -0.538559,0.166291 -0.236442,-0.322547 0.610146,-0.987239 1.81661,0.144695 1.363874,1.279609 -0.214565,0.537868 -0.342341,0.439506 -0.374088,-0.287984 z m 4.275295,-1.38905 c 0.02932,-0.711501 0.174029,-0.85622 0.368995,-0.369001 0.176429,0.440887 0.154735,0.967671 -0.04819,1.170619 -0.202954,0.202948 -0.3473,-0.157783 -0.320781,-0.801618 z m -5.994697,-1.914264 c 0.928387,-0.140388 2.302589,-0.136632 3.053783,0.0083 0.751194,0.144969 -0.0084,0.259828 -1.687979,0.255247 -1.67958,-0.0049 -2.294191,-0.123202 -1.365804,-0.263584 z M 74.591815,74.710974 c 0.579859,-0.6054 1.185747,-0.969259 1.346425,-0.808581 0.160678,0.160678 -0.313745,0.656002 -1.054282,1.100724 -1.286442,0.772558 -1.299457,0.759543 -0.292143,-0.292143 z M 30.401293,72.163337 c -0.759702,-0.968696 -0.7381,-0.990299 0.230594,-0.230597 0.587853,0.46103 1.068824,0.942 1.068824,1.068824 0,0.502677 -0.501545,0.179141 -1.299418,-0.838227 z m 46.495401,-0.440459 c 0,-0.619643 1.783489,-1.506779 2.076402,-1.032838 0.194086,0.314039 -0.193702,0.713913 -0.86176,0.888614 -0.668051,0.174701 -1.214642,0.2396 -1.214642,0.144224 z m -5.496808,-0.553584 c 0,-0.126823 0.48097,-0.607794 1.068824,-1.068823 0.968696,-0.759702 0.990298,-0.7381 0.230597,0.230597 -0.797874,1.017367 -1.299421,1.340903 -1.299421,0.838226 z M 27.34751,69.109555 c -0.759702,-0.968697 -0.7381,-0.990299 0.230595,-0.230598 0.587853,0.46103 1.068823,0.942001 1.068823,1.068824 0,0.502677 -0.501544,0.179141 -1.299418,-0.838226 z m 53.106536,-0.351686 c -0.227232,-1.114521 -0.142111,-1.516118 0.240308,-1.133699 0.325704,0.325705 0.484055,1.102355 0.351887,1.725888 -0.177986,0.839681 -0.331567,0.6861 -0.592195,-0.592189 z m 17.20837,0.235043 c 0,-0.652007 0.235136,-1.330795 0.522527,-1.508409 0.287392,-0.177621 0.392771,0.355845 0.234182,1.185466 -0.344478,1.802012 -0.756709,1.977941 -0.756709,0.322943 z m -22.766951,0.01961 c -0.931782,-0.333528 -0.970388,-0.545284 -0.273246,-1.498681 0.678025,-0.927263 0.92664,-0.971964 1.508226,-0.271194 0.925907,1.115651 0.128784,2.258022 -1.23498,1.769875 z M 62.238538,67.504755 c 0,-0.126823 0.48097,-0.607794 1.068824,-1.068824 0.968696,-0.759701 0.990299,-0.738099 0.230597,0.230598 -0.797874,1.017367 -1.299421,1.340903 -1.299421,0.838226 z m 9.466726,-1.601672 c 0.207608,-0.335916 0.49867,-0.610757 0.646803,-0.610757 0.148133,0 0.269332,0.274841 0.269332,0.610757 0,0.335916 -0.291062,0.610756 -0.646804,0.610756 -0.355741,0 -0.476939,-0.27484 -0.269331,-0.610756 z m -4.493189,-2.376032 c -0.57766,-0.366027 -0.623906,-0.651604 -0.152689,-0.942831 0.774695,-0.478791 1.897473,0.06077 1.897473,0.911884 0,0.710157 -0.654529,0.721767 -1.744784,0.03096 z M 14.036989,53.331678 c 0.0293,-0.711497 0.17403,-0.85622 0.368999,-0.368999 0.17643,0.44089 0.154732,0.967667 -0.04822,1.170617 -0.20295,0.202949 -0.347301,-0.157779 -0.320782,-0.801618 z m 63.659717,-2.39213 c 0.0037,-2.015497 0.117449,-2.766386 0.253378,-1.668643 0.13593,1.097744 0.133127,2.746786 -0.0062,3.66454 -0.139363,0.917753 -0.250575,0.0196 -0.247149,-1.995897 z m 2.75734,-3.770919 c 0.260628,-1.278288 0.414209,-1.43187 0.592195,-0.592191 0.132168,0.623534 -0.0262,1.400184 -0.351887,1.725889 -0.382419,0.382417 -0.46754,-0.01918 -0.240308,-1.133698 z m 17.43697,0.737284 c -0.189102,-0.492792 -0.225961,-1.248603 -0.0819,-1.67958 0.144059,-0.430977 0.406715,-0.02778 0.583676,0.895987 0.345529,1.8037 0.06046,2.248829 -0.501774,0.783593 z M 71.133773,45.316391 c -0.331445,-0.870449 -0.261294,-0.940603 0.341901,-0.341899 0.417404,0.414297 0.605059,0.907121 0.417013,1.095165 -0.188046,0.188044 -0.529557,-0.150925 -0.758914,-0.753266 z m 3.654468,-0.866478 c -0.88346,-1.049929 -1.434191,-2.080581 -1.223853,-2.290337 0.429765,-0.428568 3.332306,2.726832 3.332306,3.6226 0,0.942422 -0.415174,0.680086 -2.108453,-1.332263 z m -51.752638,0.880988 c 0.44089,-0.17643 0.967667,-0.154731 1.170617,0.04822 0.202949,0.20295 -0.157779,0.347301 -0.801618,0.320782 -0.711497,-0.0293 -0.85622,-0.17403 -0.368999,-0.368999 z m 75.896546,-0.549815 c 0.02932,-0.711496 0.174029,-0.856219 0.368994,-0.368999 0.17643,0.44089 0.154736,0.967668 -0.04819,1.170617 -0.202953,0.202949 -0.347299,-0.157779 -0.32078,-0.801618 z m -20.755987,-2.79379 c -0.663752,-1.904038 -0.656746,-1.91448 0.551006,-0.821475 1.257469,1.137991 1.651559,2.750027 0.672303,2.750027 -0.303058,0 -0.853545,-0.867849 -1.223309,-1.928552 z m -40.882207,-2.9575 c 0,-0.839791 0.138626,-1.183341 0.308057,-0.763446 0.169432,0.419895 0.169432,1.106996 0,1.526891 -0.169431,0.419895 -0.308057,0.07634 -0.308057,-0.763445 z m -2.491244,-0.356275 c 0.0293,-0.711496 0.17403,-0.856219 0.368999,-0.368999 0.17643,0.44089 0.154732,0.967668 -0.04822,1.170617 -0.20295,0.202949 -0.347301,-0.157779 -0.320782,-0.801618 z m 53.862669,0.543782 c 0.594248,-0.154853 1.418769,-0.144669 1.83227,0.02263 0.4135,0.1673 -0.0727,0.293998 -1.080447,0.281551 -1.007748,-0.01245 -1.34607,-0.149328 -0.751823,-0.304181 z m 2.126025,-1.202756 c 0.419896,-0.169432 1.106997,-0.169432 1.526892,0 0.419895,0.169431 0.07634,0.308057 -0.763446,0.308057 -0.83979,0 -1.183341,-0.138626 -0.763446,-0.308057 z M 33.147964,36.781661 c 0.222718,-0.396684 0.125618,-0.893875 -0.215777,-1.104869 -0.807422,-0.499014 -0.801212,-1.533049 0.0092,-1.533049 1.021328,0 1.431067,1.852878 0.583085,2.636769 -0.598672,0.553424 -0.686739,0.553693 -0.376514,0.0012 z m -9.783028,-2.491386 c 0.221953,-0.359127 0.05829,-0.792155 -0.3637,-0.962284 -0.549157,-0.221398 -0.560484,-0.323031 -0.03985,-0.357543 1.05104,-0.06967 1.555924,1.011172 0.715086,1.530838 -0.426213,0.263415 -0.552064,0.178173 -0.311536,-0.211011 z m 5.281992,-2.28418 c 0,-0.503874 0.445914,-0.916134 0.990919,-0.916134 0.811567,0 0.853304,0.165815 0.230595,0.916134 -0.418179,0.503875 -0.864092,0.916135 -0.990919,0.916135 -0.126827,0 -0.230595,-0.41226 -0.230595,-0.916135 z m -2.705635,-3.289957 c -0.184083,-0.297855 0.03807,-0.850925 0.493678,-1.229045 0.622233,-0.516408 0.99921,-0.481648 1.514867,0.139681 0.377571,0.454945 0.50565,1.008015 0.28462,1.229045 -0.57615,0.57615 -1.900617,0.495474 -2.293165,-0.139681 z m 22.860601,-0.67996 c -0.782927,-0.505967 -0.760726,-0.593412 0.152689,-0.601404 0.587853,-0.0051 1.068824,0.265488 1.068824,0.601404 0,0.744885 -0.06889,0.744885 -1.221513,0 z m 24.96311,-1.67958 c -0.759702,-0.968695 -0.7381,-0.990297 0.230597,-0.230595 1.017368,0.797874 1.340904,1.299418 0.838227,1.299418 -0.126824,0 -0.607795,-0.48097 -1.068824,-1.068823 z M 22.539363,25.093224 c 0,-0.738132 1.158727,-1.598713 1.582285,-1.175155 0.153727,0.153727 -0.139399,0.627161 -0.651391,1.052077 -0.580453,0.481734 -0.930894,0.528067 -0.930894,0.123078 z m 26.612495,-1.040077 c -1.386639,-1.049057 -0.7528,-2.06701 0.711803,-1.143163 1.113631,0.702461 1.768812,2.083317 0.974088,2.052987 -0.27993,-0.01068 -1.038581,-0.420104 -1.685891,-0.909824 z M 19.48558,22.039442 c 0,-0.738133 1.158728,-1.598714 1.582286,-1.175156 0.153726,0.153727 -0.139399,0.627162 -0.651391,1.052077 -0.580453,0.481734 -0.930895,0.528067 -0.930895,0.123079 z m 30.012098,-2.574175 c -1.149652,-0.957756 -1.234349,-1.201194 -0.417916,-1.201194 1.354433,0 3.386671,1.112385 3.386671,1.853759 0,0.952207 -1.41609,0.640935 -2.968755,-0.652565 z m 2.986443,-3.620363 c -0.494146,-0.312508 -0.739441,-0.727202 -0.545101,-0.921542 0.194341,-0.194341 0.701005,0.06556 1.12592,0.577548 0.881073,1.061628 0.712135,1.161683 -0.580819,0.343994 z m -3.987605,-1.856126 c -0.480588,-0.777607 0.934386,-0.777607 2.137648,0 0.744802,0.481328 0.665877,0.5938 -0.422023,0.601404 -0.735986,0.0051 -1.508018,-0.265488 -1.715625,-0.601404 z m 2.901093,-3.172517 c 0.08398,-0.40122 -0.671832,-0.9183836 -1.67958,-1.149252 -1.661721,-0.3806888 -1.690146,-0.4252228 -0.305379,-0.478441 0.839791,-0.032275 2.213993,0.4787769 3.053783,1.135671 l 1.526891,1.194351 -1.374202,0.01358 c -0.755811,0.0075 -1.305492,-0.31469 -1.221513,-0.71591 z"
         id="path3950" />
      <path
         style="fill:#606060;fill-opacity:1;stroke-width:0.610757"
         d="m 47.427692,91.734585 c 0.755811,-0.14558 1.992593,-0.14558 2.748404,0 0.755811,0.145573 0.13742,0.264683 -1.374202,0.264683 -1.511622,0 -2.130013,-0.11911 -1.374202,-0.264683 z M 35.517939,90.539609 c -1.427643,-0.505346 -2.595715,-1.186969 -2.595715,-1.514719 0,-0.32775 0.25585,-0.437784 0.568555,-0.244523 0.312705,0.193268 0.718405,0.108923 0.901558,-0.187422 0.576014,-0.932009 3.064225,-0.05375 4.207898,1.485256 1.288871,1.734395 0.744296,1.815919 -3.082296,0.461408 z m 33.619527,-0.05002 c 2.618698,-0.114761 6.741305,-0.114065 9.161348,0.0018 2.420038,0.115616 0.277461,0.209514 -4.761281,0.208659 -5.038741,-6.11e-4 -7.018771,-0.09546 -4.400067,-0.210216 z M 13.910867,89.26452 c -0.759703,-0.968696 -0.7381,-0.990299 0.230594,-0.230597 0.587853,0.46103 1.068824,0.942 1.068824,1.068824 0,0.502677 -0.501545,0.179141 -1.299418,-0.838227 z m 32.944241,-1.180659 c 0.440889,-0.17643 0.967667,-0.154736 1.170616,0.04819 0.202949,0.202949 -0.157779,0.347301 -0.801618,0.320782 -0.711496,-0.02932 -0.856219,-0.174029 -0.368998,-0.368995 z m -9.767087,-1.920457 c -2.974378,-1.06312 -4.319667,-1.937625 -2.980733,-1.937625 0.430257,0 0.625322,-0.397597 0.436491,-0.889683 -0.287371,-0.748879 -0.08023,-0.775007 1.308858,-0.165118 0.907643,0.398506 1.825663,0.971494 2.040044,1.273305 0.214381,0.301812 0.764061,0.33205 1.221513,0.0672 0.457451,-0.264849 0.625,-0.253654 0.37233,0.02486 -0.25267,0.278536 -0.004,1.009703 0.552728,1.624814 1.212812,1.340141 0.792855,1.340458 -2.951231,0.0024 z m 7.327394,-0.238476 c 0.325705,-0.325704 1.102355,-0.484055 1.725889,-0.351887 0.839679,0.177986 0.686097,0.331567 -0.592191,0.592195 -1.114522,0.227232 -1.516115,0.142111 -1.133698,-0.240308 z m 32.645591,-2.122397 c 0.594248,-0.154852 1.418769,-0.14467 1.83227,0.02266 0.4135,0.167304 -0.0727,0.294 -1.080447,0.281552 -1.007748,-0.01246 -1.346071,-0.14933 -0.751823,-0.304181 z M 40.556681,82.572345 c -0.671832,-0.159627 -2.733136,-0.960134 -4.580674,-1.778908 -2.530855,-1.121599 -3.672381,-2.062824 -4.629414,-3.817082 l -1.270252,-2.328405 1.947473,1.277067 c 1.07111,0.702383 1.826577,1.602033 1.678817,1.999226 -0.350159,0.941249 3.515205,2.981592 4.039968,2.132506 0.224787,-0.363712 1.263507,0.110278 2.514668,1.147489 1.172426,0.97194 1.994263,1.742678 1.826305,1.712751 -0.167958,-0.02993 -0.855059,-0.185023 -1.526891,-0.344644 z m 7.176389,0.01093 c 0.587853,-0.153617 1.549795,-0.153617 2.137648,0 0.587853,0.153624 0.106882,0.279318 -1.068824,0.279318 -1.175706,0 -1.656677,-0.125694 -1.068824,-0.279318 z m -0.877962,-3.66074 c 0.440889,-0.176429 0.967667,-0.154735 1.170616,0.04819 0.202949,0.202948 -0.157779,0.3473 -0.801618,0.320781 -0.711496,-0.02932 -0.856219,-0.174029 -0.368998,-0.368994 z M 36.758879,75.983393 C 32.39893,73.80218 27.407936,69.382709 25.371402,65.899889 l -1.137878,-1.945968 1.290567,0.690692 c 0.709812,0.379878 1.290568,1.045371 1.290568,1.478874 0,0.433502 0.687101,1.433677 1.526891,2.222622 0.83979,0.788945 1.526892,1.100986 1.526892,0.693429 0,-0.419431 0.596367,-0.18302 1.374202,0.544764 0.755811,0.707183 2.267433,1.839666 3.359161,2.516634 1.091727,0.676969 1.984958,1.619287 1.984958,2.094046 0,0.474754 1.236782,1.444549 2.748405,2.155091 1.511622,0.710548 2.748404,1.39906 2.748404,1.530025 0,0.574826 -1.334682,0.09939 -5.324693,-1.896729 z m 9.485472,0.496118 c 0.44089,-0.176429 0.967667,-0.154735 1.170617,0.04819 0.202949,0.202954 -0.157779,0.3473 -0.801618,0.320781 -0.711497,-0.02932 -0.85622,-0.174029 -0.368999,-0.368994 z m 34.658216,-0.518343 c -0.652056,-0.493216 -0.891839,-0.896737 -0.532848,-0.896737 0.358984,0 0.994849,0.412261 1.413028,0.916135 0.95107,1.145974 0.651885,1.139372 -0.88018,-0.01942 z M 77.63207,73.204775 c -0.632353,-1.012561 -0.603764,-1.282943 0.166926,-1.578684 1.244966,-0.477739 2.773824,0.158174 2.714018,1.128862 -0.03481,0.564803 -0.142526,0.544404 -0.387091,-0.0733 -0.254875,-0.643744 -0.511399,-0.533551 -1.034848,0.444515 -0.69148,1.292055 -0.700873,1.292562 -1.459005,0.0786 z m -29.109472,0.06961 c -0.406136,-0.657144 0.78927,-1.568087 1.337858,-1.019499 0.201595,0.201598 -0.02282,0.385857 -0.498702,0.409469 -0.511012,0.02535 -0.365155,0.257819 0.356275,0.567827 0.995782,0.427902 1.030659,0.532836 0.188734,0.567826 -0.568029,0.02364 -1.190903,-0.212922 -1.384165,-0.525623 z m -9.798187,-1.252741 c -3.547032,-1.756157 -6.763064,-4.58694 -8.912621,-7.844997 l -1.883138,-2.854242 2.14981,2.23598 c 1.182396,1.229782 2.78692,2.436051 3.56561,2.680598 0.77869,0.244541 1.965481,1.024813 2.637313,1.733938 0.671832,0.709125 2.314786,2.18255 3.651007,3.274278 2.767899,2.261442 2.344144,2.533112 -1.207981,0.774445 z M 11.610065,69.770265 c -0.902476,-1.98072 -0.85069,-2.330226 0.214305,-1.446357 0.489159,0.405964 1.218725,0.534571 1.621258,0.285791 0.462998,-0.286145 0.571775,-0.193274 0.296088,0.252799 -0.239685,0.387818 -0.14473,0.705124 0.211011,0.705124 1.102975,0 0.710526,1.062381 -0.510392,1.38166 -0.803489,0.210118 -1.363536,-0.150259 -1.83227,-1.179017 z m 62.852954,0.902228 c -0.0049,-0.568028 0.26549,-1.202641 0.601406,-1.410249 0.772973,-0.477722 0.772973,0.330804 0,1.526891 -0.510226,0.789519 -0.593344,0.773395 -0.601406,-0.116642 z m -53.15862,-2.751336 c -2.179685,-3.437008 -2.343383,-4.556073 -0.399306,-2.729709 0.780732,0.733463 1.605253,1.193632 1.832269,1.022602 0.227017,-0.171031 0.272824,-0.125224 0.101793,0.101788 -0.17103,0.227018 0.30994,1.095856 1.068824,1.930754 0.758884,0.834898 0.989532,1.291176 0.512552,1.013948 -0.646092,-0.375524 -0.767787,-0.244895 -0.477236,0.512272 0.804793,2.097252 -0.887728,0.909648 -2.638896,-1.851655 z m -5.162295,0.455282 c -1.302501,-2.51876 -1.1636,-2.904031 0.487693,-1.352722 0.780732,0.733464 1.570347,1.18273 1.754702,0.998373 0.184354,-0.18435 0.481784,0.225394 0.660956,0.910553 0.525892,2.011007 -1.806893,1.564111 -2.903351,-0.556204 z m 70.035005,-0.335708 c 0.01246,-1.007749 0.14933,-1.346071 0.304182,-0.751823 0.154851,0.594248 0.144669,1.418769 -0.02266,1.832269 -0.167304,0.413501 -0.293999,-0.0727 -0.281552,-1.080446 z M 70.304897,67.710989 c -0.649381,-1.039819 -0.586424,-1.19715 0.479059,-1.19715 1.301431,0 1.502998,0.451918 0.738276,1.655218 -0.33886,0.533209 -0.677958,0.405609 -1.217335,-0.458068 z m -3.796646,-3.341522 c -0.613664,-0.739424 -0.576255,-0.90941 0.200133,-0.90941 1.140221,0 1.885741,0.996138 1.106129,1.477963 -0.303333,0.187472 -0.891149,-0.06838 -1.306262,-0.568553 z m 22.767886,-0.111145 c 0.594248,-0.154852 1.418769,-0.14467 1.832269,0.0226 0.413501,0.167304 -0.0727,0.294 -1.080446,0.281552 -1.007748,-0.01246 -1.346071,-0.14933 -0.751823,-0.304181 z M 14.43666,60.941243 c 0.414297,-0.417402 0.90712,-0.605059 1.095164,-0.417015 0.188045,0.188044 -0.150925,0.529556 -0.753266,0.758914 -0.870449,0.331448 -0.940603,0.261294 -0.341898,-0.341899 z m 74.839477,0.263295 c 0.594248,-0.154853 1.418769,-0.144669 1.832269,0.02263 0.413501,0.1673 -0.0727,0.293999 -1.080446,0.281551 -1.007748,-0.01245 -1.346071,-0.149328 -0.751823,-0.304181 z M 86.177109,57.65787 c 0.01246,-1.007749 0.14933,-1.346069 0.304182,-0.751822 0.154851,0.594246 0.144669,1.418767 -0.02266,1.83227 -0.167274,0.413501 -0.293969,-0.0727 -0.281522,-1.080448 z M 7.9776418,50.63417 c 0,-0.839791 0.1386252,-1.183341 0.308057,-0.763446 0.1694312,0.419895 0.1694312,1.106996 0,1.526891 -0.1694318,0.419895 -0.308057,0.07634 -0.308057,-0.763445 z m 1.244144,-0.305379 C 9.234233,49.321043 9.3711146,48.982723 9.5259682,49.57697 9.6808213,50.171216 9.6706375,50.995737 9.5033397,51.409239 9.336037,51.822741 9.2093386,51.33654 9.2217858,50.328791 Z M 86.177109,47.885765 c 0.01246,-1.007748 0.14933,-1.346068 0.304182,-0.751822 0.154851,0.594246 0.144669,1.418768 -0.02266,1.83227 -0.167274,0.413502 -0.293969,-0.0727 -0.281522,-1.080448 z M 69.631428,42.918849 c -1.140612,-1.131231 -1.792656,-2.056784 -1.448989,-2.056784 0.343666,0 0.964488,0.409234 1.379595,0.909411 0.415113,0.500175 1.067156,0.730951 1.448989,0.512836 0.381833,-0.218115 0.490492,-0.171667 0.241475,0.103218 -0.249024,0.274886 -0.141152,0.875272 0.239722,1.334193 1.440206,1.735348 0.127294,1.168866 -1.860792,-0.802874 z m 19.644709,1.184507 c 0.594248,-0.154853 1.418769,-0.14467 1.832269,0.02263 0.413501,0.1673 -0.0727,0.293999 -1.080446,0.281552 -1.007748,-0.01245 -1.346071,-0.149329 -0.751823,-0.304183 z M 75.176395,43.17276 c -0.888865,-0.888865 -0.933835,-2.108131 -0.09684,-2.625426 0.344235,-0.212751 0.575443,-0.160261 0.513793,0.116644 -0.06166,0.276906 0.102913,0.99629 0.365697,1.59863 0.59826,1.371295 0.173015,1.865819 -0.782654,0.910152 z m 3.75749,-1.844539 c -2.774606,-3.081276 -2.352543,-3.953345 0.639938,-1.322255 1.107705,0.973927 1.546534,1.762794 1.182889,2.126437 -0.363644,0.363642 -1.039874,0.06531 -1.822827,-0.804182 z m 9.22585,-3.85901 c -1.117874,-0.8956 -1.098385,-0.908311 0.341333,-0.222649 1.869545,0.890369 2.216033,1.172477 1.440042,1.172477 -0.327701,0 -1.129319,-0.427423 -1.781375,-0.949828 z m -56.37778,-0.695358 c -0.533017,-0.574105 -0.623033,-1.11111 -0.248956,-1.485187 0.75256,-0.75256 2.09522,0.770153 1.506978,1.709066 -0.293822,0.468977 -0.678275,0.400559 -1.258022,-0.223879 z m -4.967296,-3.4809 c 0,-0.132019 0.412261,-0.398234 0.916135,-0.591588 0.503874,-0.193355 0.916134,-0.08534 0.916134,0.240034 0,0.325373 -0.41226,0.591588 -0.916134,0.591588 -0.503874,0 -0.916135,-0.108016 -0.916135,-0.240034 z m -1.780893,-3.057221 c -0.912304,-1.09926 0.144225,-1.881827 1.50927,-1.117909 0.827331,0.462997 0.839165,0.636922 0.08587,1.2621 -0.682509,0.566431 -1.031563,0.534879 -1.595142,-0.144191 z m 25.600398,-2.199554 c -0.789517,-0.510225 -0.773397,-0.593344 0.116644,-0.601404 0.568028,-0.0051 1.202639,0.265488 1.410247,0.601404 0.477723,0.772972 -0.330803,0.772972 -1.526891,0 z m 21.29857,-0.458067 c -0.759702,-0.968694 -0.738099,-0.990297 0.230597,-0.230595 1.017368,0.797874 1.340904,1.299419 0.838227,1.299419 -0.126824,0 -0.607794,-0.480971 -1.068824,-1.068824 z M 21.517085,27.172417 c -0.52138,-0.594396 -0.533672,-1.000526 -0.04507,-1.489128 0.881648,-0.881648 2.346207,0.271274 1.881835,1.481408 -0.410899,1.070784 -0.902478,1.07285 -1.836765,0.0077 z m -3.100328,-2.628715 c -1.084664,-0.38908 -0.946001,-1.803592 0.220691,-2.251293 0.690193,-0.264852 0.882863,-0.113733 0.645067,0.505953 -0.186488,0.485981 -0.0245,0.988459 0.359983,1.116619 0.403259,0.13442 0.453349,0.374674 0.118379,0.567797 -0.319371,0.184129 -0.924225,0.211545 -1.34412,0.06092 z m 31.912028,-1.393576 c -0.446463,-0.722393 0.151172,-0.722393 1.83227,0 1.177683,0.506067 1.173497,0.526442 -0.116644,0.567829 -0.735987,0.02361 -1.508018,-0.231913 -1.715626,-0.567829 z M 51.24492,18.87483 c -0.693361,-0.448084 -0.424693,-0.594326 1.104869,-0.601404 1.193752,-0.0055 1.866496,0.240647 1.643535,0.601404 -0.474198,0.76727 -1.561138,0.76727 -2.748404,0 z m 1.30654,-3.684858 -1.441864,-1.201194 1.441864,0.01942 c 1.407201,0.01896 3.579512,1.252652 3.579512,2.032868 0,0.821178 -2.200111,0.29806 -3.579512,-0.851096 z m 1.441864,-3.991521 C 51.113333,9.7043897 50.784686,9.1027255 52.848575,9.1027255 c 1.181466,0 2.365308,0.5506942 3.282397,1.5268915 1.680093,1.788376 0.710515,2.046384 -2.137648,0.568834 z"
         id="path3948" />
      <path
         style="fill:#494949;fill-opacity:1;stroke-width:0.610757"
         d="m 42.211247,92.175117 c -1.885576,-0.446744 -4.6861,-2.372984 -4.182381,-2.876706 0.362249,-0.362246 6.127064,1.049506 6.482296,1.587454 0.176448,0.267212 1.145336,0.780187 2.153084,1.139953 l 1.83227,0.65412 -2.137648,-0.01429 c -1.175706,-0.0079 -3.042136,-0.228594 -4.147621,-0.490517 z m 48.122091,-5.200934 c 0.788945,-0.83979 1.571861,-1.526891 1.739819,-1.526891 0.167958,0 -0.340118,0.687101 -1.129062,1.526891 -0.788945,0.83979 -1.571862,1.526892 -1.73982,1.526892 -0.167958,0 0.340118,-0.687102 1.129063,-1.526892 z M 39.877217,85.96274 c -1.305875,-1.06017 -1.869322,-1.746678 -1.252103,-1.525572 0.617219,0.221106 2.186435,0.572181 3.487147,0.780174 1.300712,0.207993 2.307337,0.67309 2.236945,1.033553 -0.07039,0.360456 0.696535,0.844273 1.704284,1.075139 1.605093,0.367718 1.482986,0.42872 -0.984842,0.492025 -2.313225,0.0593 -3.241799,-0.272519 -5.191431,-1.855319 z m 47.634072,1.085088 c 0.07705,-0.524933 0.310643,-1.124983 0.5191,-1.333446 0.208463,-0.208457 0.315987,0.05045 0.238946,0.5754 -0.07705,0.524933 -0.310643,1.124983 -0.5191,1.333446 -0.208463,0.208457 -0.315987,-0.05045 -0.238946,-0.5754 z m -2.015784,-1.373066 c -0.02652,-0.378761 0.364041,-1.030804 0.867916,-1.448983 0.503874,-0.418179 0.916134,-0.555599 0.916134,-0.305378 0,0.25022 0.480971,0.08248 1.068824,-0.372757 0.889268,-0.688653 0.87555,-0.601034 -0.08163,0.521567 -0.632744,0.7421 -1.365084,1.216627 -1.627416,1.054496 -0.262332,-0.162131 -0.616162,0.05051 -0.786288,0.472469 -0.19273,0.478039 -0.3275,0.507661 -0.357543,0.07859 z M 43.610463,83.195915 c -0.671832,-0.13902 -2.169354,-1.032313 -3.327827,-1.985099 l -2.106314,-1.732338 3.755907,0.978542 c 2.065749,0.538193 3.625492,1.108951 3.466095,1.268346 -0.159397,0.159401 0.472488,0.627455 1.404189,1.040131 l 1.694003,0.750314 -1.83227,-0.03359 c -1.007748,-0.01844 -2.38195,-0.147314 -3.053783,-0.286328 z m 39.088418,-0.802406 c 0.608002,-0.671832 1.242878,-1.221513 1.410836,-1.221513 0.167958,0 -0.192077,0.549681 -0.800079,1.221513 -0.608002,0.671832 -1.242877,1.221513 -1.410835,1.221513 -0.167958,0 0.192076,-0.549681 0.800078,-1.221513 z M 41.863528,77.733583 c -1.067166,-0.578184 -1.527629,-1.165781 -1.183341,-1.510071 0.826243,-0.826243 4.231016,0.02174 5.436743,1.354048 0.998348,1.10316 0.967664,1.150384 -0.732226,1.126955 -0.975833,-0.01344 -2.560361,-0.450365 -3.521176,-0.970932 z m 38.422719,-0.67254 c -0.223122,-0.581446 -0.113394,-1.154605 0.243838,-1.273678 0.357231,-0.119079 0.481624,-0.488165 0.276422,-0.820185 -0.205202,-0.332025 0.166706,-0.266571 0.82647,0.145458 1.103026,0.688854 1.121825,0.839937 0.233553,1.877356 -1.171596,1.368326 -1.083983,1.364387 -1.580283,0.07105 z m 13.71163,-0.39494 c 0,-0.126823 0.480971,-0.607794 1.068824,-1.068824 0.968697,-0.759701 0.990299,-0.738099 0.230597,0.230598 -0.797874,1.017367 -1.299421,1.340903 -1.299421,0.838226 z M 76.31493,74.507848 C 75.888201,73.7105 75.877891,73.17897 76.28427,72.927803 c 0.817278,-0.505108 1.833919,0.171482 1.833919,1.220493 0,1.412295 -1.120317,1.635673 -1.803277,0.359552 z M 44.22122,74.018162 c -1.661727,-0.399697 -2.657219,-1.396757 -1.394561,-1.396757 0.543064,0 1.079003,-0.27175 1.190976,-0.603886 0.111971,-0.332135 1.028106,0.07024 2.035855,0.894172 1.559971,1.275425 1.650736,1.49079 0.610756,1.449173 -0.671832,-0.02687 -1.771194,-0.181102 -2.443026,-0.342702 z m 29.316313,-2.61827 c 0.207609,-0.335916 0.498671,-0.610757 0.646804,-0.610757 0.148133,0 0.269331,0.274841 0.269331,0.610757 0,0.335916 -0.291062,0.610756 -0.646803,0.610756 -0.355741,0 -0.47694,-0.27484 -0.269332,-0.610756 z M 38.407429,69.85902 c -0.645438,-0.777707 -0.607652,-0.867079 0.230594,-0.545412 0.551388,0.211585 1.002523,0.630136 1.002523,0.930115 0,0.785409 -0.35355,0.675106 -1.233117,-0.384703 z M 12.086592,68.544 c -1.068883,-0.66344 -1.942964,-2.08927 -2.6438424,-4.31271 -1.1169412,-3.543345 -0.949338,-4.480264 0.5751344,-3.215064 0.56757,0.471041 0.795139,1.255195 0.570069,1.964326 -0.494284,1.55735 0.911799,4.903141 1.901035,4.523531 0.422765,-0.162229 0.907435,0.235697 1.077045,0.88429 0.169609,0.648587 0.265402,1.171938 0.212871,1.162997 -0.05253,-0.0089 -0.814071,-0.462257 -1.692312,-1.00737 z m 56.045215,-0.154991 c 1.36203,-1.465847 2.657322,-1.283884 2.657322,0.373306 0,0.779527 -0.168233,0.815256 -0.916135,0.194551 -0.732987,-0.608326 -1.129808,-0.599886 -1.984958,0.0422 -0.610977,0.45877 -0.50655,0.197427 0.243771,-0.610091 z m -51.80444,-1.550943 c -0.897227,-0.772271 -2.065299,-2.682376 -2.595715,-4.244685 -1.179717,-3.474774 -1.179444,-3.452806 -0.03745,-3.014579 0.509823,0.195637 0.865093,0.667982 0.78949,1.049656 -0.275462,1.390629 0.790824,4.133439 1.512559,3.890754 0.627675,-0.211059 2.597678,3.091894 2.124497,3.561981 -0.08914,0.08855 -0.89616,-0.470856 -1.793387,-1.243127 z m 4.75184,-1.343878 c -1.459368,-1.356082 -2.685354,-3.23505 -3.177258,-4.869526 -0.961251,-3.193994 -0.53943,-3.506554 0.706858,-0.523766 0.491241,1.175706 1.140821,2.137648 1.44351,2.137648 0.302689,0 1.241594,1.236782 2.086456,2.748404 0.844862,1.511623 1.48675,2.740965 1.426419,2.731877 -0.06033,-0.0091 -1.179025,-1.010173 -2.485985,-2.224637 z m 44.863416,0.151168 c -0.419657,-0.505652 -0.476213,-0.999289 -0.138409,-1.208064 0.314167,-0.194166 0.890544,0.03176 1.280829,0.502005 0.419657,0.505651 0.476213,0.999289 0.13841,1.208064 -0.314167,0.194166 -0.890544,-0.03176 -1.28083,-0.502005 z M 25.062556,64.223502 c -1.379938,-1.155276 -3.47837,-5.649497 -2.637853,-5.649497 0.773173,0 2.898471,2.496962 4.02882,4.733363 1.109123,2.194405 0.564413,2.55317 -1.390967,0.916134 z m 3.458955,-2.428594 C 27.165312,60.2511 26.459632,57.743113 27.47685,58.082186 c 1.407866,0.469288 3.303641,3.488611 2.619802,4.172451 -0.424199,0.424195 -0.927738,0.277235 -1.575141,-0.459729 z m 34.43243,-2.856099 C 61.011924,53.568247 57.211897,51.33371 49.718029,51.15567 47.0307,51.091824 45.862628,50.931777 47.122313,50.80001 c 2.815657,-0.294527 2.997682,-1.22218 0.305379,-1.556291 -1.231888,-0.152876 -0.664008,-0.283414 1.496829,-0.344075 7.919457,-0.222322 12.957885,2.365177 15.721356,8.07375 1.543932,3.189339 1.577395,4.043637 0.158382,4.043637 -0.695402,0 -1.374722,-0.762992 -1.850318,-2.078222 z m -2.78687,-6.875745 c -1.648322,-1.417827 -2.814586,-1.82961 -2.814586,-0.99377 0,0.76726 3.337946,3.125882 3.917166,2.767905 0.307235,-0.189882 -0.188926,-0.988242 -1.10258,-1.774135 z m -48.573108,0.657857 c 0.0293,-0.711496 0.17403,-0.856219 0.368999,-0.368999 0.17643,0.44089 0.154731,0.967668 -0.04822,1.170617 -0.20295,0.202949 -0.347302,-0.157779 -0.320782,-0.801618 z m 9.161348,0 c 0.0293,-0.711496 0.17403,-0.856219 0.368999,-0.368999 0.17643,0.44089 0.154731,0.967668 -0.04822,1.170617 -0.20295,0.202949 -0.347302,-0.157779 -0.320782,-0.801618 z m 20.283881,-3.286705 c -1.999142,-1.21894 -5.51755,-5.878345 -4.90295,-6.492945 0.186444,-0.186445 0.520025,0.231403 0.741292,0.92855 0.414769,1.306822 1.541499,1.764716 1.541499,0.626453 0,-0.352598 -0.45391,-1.518851 -1.008688,-2.591675 -0.922401,-1.783727 -1.049346,-1.84644 -1.483965,-0.733115 -0.339969,0.870871 -0.487496,0.42187 -0.518203,-1.577158 -0.04539,-2.955032 0.972424,-4.415967 4.232369,-6.074991 l 1.526891,-0.777054 -1.640835,1.661406 c -2.572474,2.604724 -2.750536,4.793737 -0.712498,8.759137 1.242422,2.417374 2.389862,3.725164 3.997767,4.556437 1.468344,0.759122 2.138107,1.471031 1.919615,2.040412 -0.451985,1.177852 -1.357701,1.098018 -3.692294,-0.325457 z M 11.593963,49.056382 c 0.0293,-0.711496 0.17403,-0.856219 0.368999,-0.368999 0.17643,0.44089 0.154731,0.967668 -0.04822,1.170617 -0.20295,0.202949 -0.347302,-0.157779 -0.320782,-0.801618 z m 9.161348,0 c 0.0293,-0.711496 0.17403,-0.856219 0.368999,-0.368999 0.17643,0.44089 0.154731,0.967668 -0.04822,1.170617 -0.20295,0.202949 -0.347302,-0.157779 -0.320782,-0.801618 z m 58.021872,-2.443026 c 0.02932,-0.711497 0.174029,-0.85622 0.368995,-0.368999 0.176429,0.44089 0.154735,0.967667 -0.04819,1.170617 -0.202954,0.202949 -0.3473,-0.157779 -0.320781,-0.801618 z m -9.683636,-5.189275 c -2.439056,-2.285948 -4.011217,-4.611367 -4.1205,-6.094722 -0.07681,-1.04264 0.01038,-1.036842 1.451207,0.09653 0.843106,0.66319 1.906989,1.739854 2.364183,2.392586 0.834813,1.191869 2.767973,5.489083 2.466956,5.483795 -0.08849,-0.0015 -1.061318,-0.846737 -2.161846,-1.878184 z M 83.00426,41.7782 c 0.788944,-0.83979 1.571861,-1.526891 1.739819,-1.526891 0.167958,0 -0.340118,0.687101 -1.129063,1.526891 -0.788945,0.83979 -1.571861,1.526891 -1.739819,1.526891 -0.167958,0 0.340118,-0.687101 1.129063,-1.526891 z m 12.168902,-0.152689 -1.480663,-1.679581 1.67958,1.480666 c 1.569822,1.383905 1.959668,1.878495 1.480664,1.878495 -0.109399,0 -0.86521,-0.755811 -1.679581,-1.67958 z m 0.904335,-0.916135 -1.163485,-1.374202 1.374202,1.163484 c 1.291408,1.093387 1.652243,1.58492 1.163485,1.58492 -0.115897,0 -0.734288,-0.618391 -1.374202,-1.374202 z M 73.967195,39.639599 c -0.57223,-1.008273 -1.383969,-1.703999 -1.803864,-1.54606 -0.419895,0.15794 -0.763445,0.05964 -0.763445,-0.218437 0,-0.27808 -1.030652,-1.712366 -2.290337,-3.187303 -2.127247,-2.490746 -3.083796,-5.323759 -1.678775,-4.972041 0.335471,0.08398 0.614159,0.35882 0.619301,0.610757 0.01857,0.908603 1.002661,1.997794 1.517541,1.67958 0.289492,-0.178916 0.725231,-0.0035 0.9683,0.389783 0.295697,0.478445 0.158076,0.560618 -0.415865,0.248312 -0.471797,-0.256726 -0.14583,0.18178 0.72437,0.974457 1.640156,1.494042 2.827894,3.293002 4.07669,6.174594 0.971982,2.242838 0.349243,2.142538 -0.953916,-0.153642 z m 3.845634,-0.978341 c -1.265371,-1.022481 -1.606632,-1.624301 -1.102983,-1.945147 0.537533,-0.342432 0.401444,-0.982378 -0.51758,-2.433877 -0.685776,-1.083109 -1.484578,-1.822376 -1.775115,-1.642815 -0.290537,0.179562 -1.86227,-1.057551 -3.492745,-2.749139 -3.498273,-3.629398 -2.682339,-4.013403 1.668568,-0.785278 2.23521,1.658401 3.691797,3.440209 5.279117,6.45784 1.2057,2.292127 2.097863,4.260085 1.982595,4.373239 -0.115274,0.113155 -1.034109,-0.460516 -2.041857,-1.274823 z m 5.144201,0.293617 c 0.696165,-0.847068 -0.44722,-3.589619 -1.496537,-3.589619 -0.405316,0 -1.495755,-1.168072 -2.423207,-2.595715 -0.927446,-1.427643 -2.21566,-3.17898 -2.862695,-3.89186 -0.88669,-0.976921 -0.980246,-1.371427 -0.379854,-1.601819 1.284494,-0.492905 2.018092,-0.494043 2.018092,-0.0031 0,0.251937 0.640531,1.098601 1.423405,1.881475 0.782874,0.782873 2.214267,3.095677 3.180875,5.139563 0.966602,2.043886 2.112533,3.971553 2.546506,4.283705 0.586211,0.421651 0.533423,0.486505 -0.205348,0.252283 -0.54692,-0.173395 -1.302732,-0.0619 -1.679581,0.247765 -0.46674,0.383527 -0.505523,0.344424 -0.121656,-0.122649 z M 30.900717,37.518854 c -0.607954,-0.44815 -0.869673,-0.960489 -0.581595,-1.13853 0.735417,-0.454513 2.188359,0.543396 1.914099,1.314639 -0.146271,0.411321 -0.620657,0.348624 -1.332504,-0.176109 z m 56.753476,-0.167919 c 0.296932,-0.492231 -2.259628,-5.190325 -2.625385,-4.824571 -0.35245,0.352454 -6.838104,-8.292745 -6.523008,-8.695002 0.101196,-0.129194 1.017807,0.110478 2.036909,0.532603 2.718917,1.126213 8.882813,11.698223 7.484809,12.83759 -0.306404,0.249721 -0.474399,0.316942 -0.373325,0.14938 z M 27.551941,34.730137 c -0.76837,-1.230355 -0.380829,-1.53424 0.910059,-0.713611 0.402163,0.255659 0.530138,0.790168 0.28439,1.187798 -0.313468,0.507203 -0.66994,0.365686 -1.194449,-0.474187 z m 30.258612,-3.192418 c -1.931518,-0.964388 -3.51185,-2.009337 -3.51185,-2.322108 0,-0.312773 -0.39604,-0.568676 -0.88009,-0.568676 -0.48405,0 -1.056759,-0.285857 -1.272688,-0.635237 -0.255689,-0.413714 0.21096,-0.501078 1.338157,-0.250525 3.850523,0.855892 5.659921,1.624057 7.210641,3.061216 0.89553,0.82995 1.838279,1.379188 2.094992,1.22053 0.256713,-0.158658 0.466752,0.107338 0.466752,0.591103 0,0.629128 -0.214962,0.701171 -0.75495,0.25302 -0.415223,-0.344603 -0.850387,-0.394652 -0.967031,-0.11122 -0.116646,0.283431 -1.792416,-0.273715 -3.723933,-1.238103 z m -33.0835,0.243967 c -0.263437,-0.42625 -0.932147,-0.603991 -1.486023,-0.394981 -0.887779,0.335014 -0.880979,0.252629 0.05742,-0.695633 0.785472,-0.79373 1.24369,-0.896424 1.748291,-0.391823 0.376106,0.376106 0.565808,1.037892 0.421561,1.470634 -0.21107,0.63321 -0.35577,0.635515 -0.741245,0.01181 z M 20.931277,29.41038 c 0.252265,-0.419895 0.167602,-0.763445 -0.188138,-0.763445 -0.355741,0 -0.646802,-0.412261 -0.646802,-0.916135 0,-1.165752 1.592393,-1.200677 2.036,-0.04465 0.18393,0.479315 -0.114264,1.235126 -0.662652,1.679581 -0.723354,0.586259 -0.871158,0.598517 -0.538408,0.04465 z m 38.730202,-1.883383 c -1.921256,-0.895657 -3.501589,-1.972017 -3.51185,-2.391913 -0.01026,-0.419895 -0.552117,-0.763445 -1.204125,-0.763445 -0.652007,0 -1.355328,-0.274841 -1.562936,-0.610757 -0.541596,-0.876321 0.276769,-0.768495 4.821718,0.635297 2.218838,0.685329 4.034252,1.526071 4.034252,1.868315 0,0.342243 0.216537,0.488434 0.48119,0.324869 0.264653,-0.163565 0.536416,0.369895 0.603916,1.185468 0.0675,0.815573 0.05711,1.459859 -0.02315,1.431746 -0.08022,-0.02811 -1.717786,-0.783923 -3.639042,-1.67958 z m -42.29898,-1.29952 c -0.243926,-0.39468 -0.881262,-0.549616 -1.416304,-0.344301 -0.804652,0.308774 -0.784055,0.164736 0.119163,-0.833309 0.600581,-0.663634 1.478403,-1.058317 1.950715,-0.877073 0.98658,0.378586 1.05177,0.780837 0.314986,1.943631 -0.389972,0.615458 -0.639162,0.644029 -0.96856,0.111052 z m 54.66616,-1.528752 c -0.408272,-0.491934 -2.233451,-1.884189 -4.055954,-3.093899 -1.822504,-1.209709 -3.154625,-2.456775 -2.960264,-2.771256 0.194361,-0.314481 -0.41325,-0.863258 -1.350248,-1.219503 -1.116139,-0.424355 -1.773582,-0.437861 -1.906483,-0.03917 -0.291027,0.873087 -4.703027,-0.796188 -6.382481,-2.414806 l -1.379905,-1.329916 1.83227,0.410428 c 6.203442,1.389569 8.242984,2.345729 12.707975,5.957645 2.58422,2.090482 4.698586,4.159533 4.698586,4.59789 0,1.029254 -0.287776,1.005961 -1.203496,-0.09742 z M 60.565748,22.891467 c -1.759825,-0.697528 -3.202737,-1.572025 -3.206472,-1.943326 -0.0037,-0.371301 -0.900022,-0.961635 -1.991749,-1.311851 -1.409556,-0.452174 -1.618737,-0.654833 -0.72161,-0.699109 2.139586,-0.105596 7.194682,1.651415 9.371125,3.257143 1.137589,0.839286 2.370872,1.353622 2.740636,1.142969 0.369758,-0.210654 0.4666,-0.156155 0.2152,0.121107 -0.836083,0.922093 -3.171842,0.715414 -6.40713,-0.566933 z M 77.585396,21.706203 C 76.56994,20.6253 76.478155,20.299928 77.188697,20.299928 c 1.174961,0 3.027276,2.003267 2.279588,2.465361 -0.30897,0.190955 -1.156266,-0.285635 -1.882889,-1.059086 z m 1.754325,0.602572 c 0,-0.126827 -0.480971,-0.607798 -1.068824,-1.068824 -0.968697,-0.759702 -0.990299,-0.7381 -0.230598,0.230594 0.797874,1.017367 1.299422,1.340903 1.299422,0.83823 z m -6.752354,-3.175907 c -1.156986,-0.865827 -3.143973,-2.113147 -4.415525,-2.771822 -1.271552,-0.658675 -2.155794,-1.450189 -1.964987,-1.758919 0.190806,-0.30873 -0.523064,-1.011211 -1.586367,-1.561069 -1.311374,-0.678135 -2.063276,-0.789418 -2.337365,-0.345932 -0.577141,0.933834 -4.471158,-0.240093 -5.849874,-1.763558 -0.965138,-1.0664662 -0.98046,-1.2180859 -0.123087,-1.2180859 1.737053,0 10.736593,3.0631979 11.632927,3.9595299 0.477593,0.477595 1.082554,0.675312 1.344361,0.439371 0.261801,-0.235941 0.297524,-0.116539 0.07939,0.265339 -0.228502,0.400008 1.024446,1.790672 2.95586,3.280745 1.843868,1.422533 3.352485,2.690421 3.352485,2.817528 0,0.600665 -1.171015,0.0913 -3.087814,-1.343127 z"
         id="path3946" />
      <path
         style="fill:#333333;fill-opacity:1;stroke-width:0.610757"
         d="M 14.398062,98.503312 C 12.489575,97.916961 10.505969,96.65479 8.779206,94.928029 2.1095664,88.25839 3.2808204,78.097717 11.360057,72.539056 c 2.590391,-1.782236 3.29598,-1.970263 7.47786,-1.992697 3.993675,-0.02144 5.009502,0.207413 7.518221,1.693659 10.884719,6.448471 8.679485,22.700183 -3.580927,26.390026 -3.49776,1.052669 -4.592262,1.036112 -8.377149,-0.126732 z m 9.668192,-5.750639 c 7.880408,-4.788808 4.10261,-17.312395 -5.222364,-17.312395 -9.3291108,0 -12.9855567,12.487748 -5.088407,17.378277 4.233702,2.621838 5.375187,0.423419 1.501692,-2.892146 -2.908529,-2.48959 -3.567705,-4.837204 -2.179583,-7.762453 1.96313,-4.13699 7.076118,-5.043309 10.294621,-1.824812 3.797053,3.797055 2.075477,9.255545 -4.262881,13.516042 -1.892675,1.272212 2.747424,0.240162 4.956922,-1.102513 z m 26.403981,-0.644519 c 1.421461,-0.341407 2.520823,-0.914321 2.443026,-1.273147 -0.0778,-0.358825 1.642856,-1.027066 3.823674,-1.484981 2.180818,-0.457915 4.706842,-1.091135 5.613389,-1.407158 1.074907,-0.374712 1.719622,-0.360506 1.853408,0.04086 0.284436,0.853319 3.531614,-0.680804 3.531614,-1.668507 0,-0.422552 1.015866,-1.396123 2.257479,-2.163483 1.241613,-0.767361 3.157306,-2.185257 4.257101,-3.150887 1.099789,-0.965631 2.302992,-1.568191 2.673782,-1.339029 0.370797,0.229162 1.340922,-0.209727 2.155849,-0.975311 2.353745,-2.211225 1.720953,-0.62528 -1.072208,2.687243 l -2.553891,3.02876 3.281394,-0.315297 c 2.597755,-0.249616 3.581971,-0.664741 4.724116,-1.992562 1.907796,-2.217944 1.7503,-5.899798 -0.27357,-6.39533 -0.818389,-0.200377 -1.985472,-1.526182 -2.978238,-3.383279 -1.551627,-2.902517 -1.646747,-3.590784 -1.92028,-13.894711 -0.167274,-6.301373 -0.0555,-10.840947 0.266937,-10.840947 0.305104,0 1.052407,-1.661443 1.660684,-3.692097 0.608277,-2.030653 1.25403,-3.544024 1.435009,-3.363046 0.180979,0.180978 0.704776,-0.20737 1.163992,-0.862995 0.459216,-0.655625 1.195648,-1.05363 1.63651,-0.884455 0.440862,0.169176 1.122051,-0.07856 1.513748,-0.550533 0.558995,-0.673541 1.26975,-0.730074 3.304327,-0.26282 4.341807,0.997123 6.361347,2.105301 8.180943,4.489108 l 1.740278,2.27989 0.19874,12.129127 c 0.185871,11.343606 0.114712,12.30272 -1.098812,14.809528 -0.713657,1.474219 -1.971168,3.12176 -2.794462,3.661204 -1.139781,0.746815 -1.500097,1.52385 -1.510309,3.257061 -0.01619,2.751617 -1.736277,6.673052 -3.731582,8.507362 -2.999541,2.757517 -5.344486,3.235049 -15.932286,3.24451 -7.647723,0.0068 -10.579165,0.239007 -12.692816,1.005287 -1.53084,0.554982 -5.183532,1.081668 -8.245213,1.18888 -4.763808,0.166822 -5.152169,0.109716 -2.912333,-0.428245 z m 37.214759,-4.549562 c 3.035961,-1.779195 5.09137,-5.210645 5.09137,-8.499911 0,-2.987748 -0.985846,-2.719888 -1.401741,0.380855 -0.373435,2.784165 -1.731324,4.944759 -4.327815,6.886152 -1.472057,1.100657 -2.736488,1.283975 -10.039744,1.455561 -11.405713,0.267963 -12.000071,1.330582 -0.744249,1.330582 8.294281,0 8.916049,-0.08455 11.422179,-1.553239 z m -4.979871,-1.769167 c 1.157561,-0.483664 2.659332,-1.789156 3.337266,-2.901093 1.282515,-2.10358 1.688998,-5.991632 0.62641,-5.991632 -0.335916,0 -0.610757,0.705168 -0.610757,1.567043 0,4.198249 -2.687817,6.341283 -7.97579,6.359209 -2.558068,0.0087 -4.434355,0.337675 -5.19143,0.910296 -1.077931,0.815305 -0.781793,0.898472 3.262044,0.916135 2.533638,0.01105 5.353312,-0.359009 6.552257,-0.859958 z m 6.437099,-2.976827 c 1.437556,-2.357636 1.590331,-5.305141 0.274981,-5.305141 -0.600825,0 -0.916135,0.601284 -0.916135,1.747039 0,0.960872 -0.687101,2.759544 -1.526891,3.997041 -0.83979,1.237502 -1.526891,2.384888 -1.526891,2.549743 0,0.854638 2.666716,-1.302359 3.694936,-2.988682 z m 4.956296,-7.595478 c 0.9988,-0.587853 2.415407,-2.030765 3.148016,-3.206472 1.250231,-2.006396 1.332017,-2.868913 1.332017,-14.0474 0,-13.115797 -0.328007,-14.480814 -4.167393,-17.342719 -2.393995,-1.784497 -7.593915,-1.784497 -9.987909,0 -3.839729,2.862159 -4.167394,4.226249 -4.167394,17.34898 0,11.063933 0.09193,12.061213 1.285655,13.94657 0.707116,1.116805 2.081318,2.555087 3.053783,3.196186 2.275367,1.500031 7.043354,1.552635 9.503225,0.104855 z m -6.360895,-4.476906 c -1.243928,-0.724523 -1.463049,-4.198603 -0.335916,-5.325736 1.193485,-1.193486 4.628435,-0.905728 5.353171,0.448454 0.938238,1.753115 0.774592,2.951585 -0.58927,4.315447 -1.338663,1.338662 -2.780219,1.521571 -4.427985,0.561835 z M 87.401707,60.284123 c -0.4031,-0.403099 -0.732908,-1.645773 -0.732908,-2.761499 0,-1.571139 0.344314,-2.185472 1.526891,-2.724288 3.151999,-1.436148 6.248302,1.881191 4.61112,4.940295 -0.774433,1.447044 -4.161701,1.788892 -5.405103,0.545492 z m 0.335916,-9.698874 c -1.243928,-0.724521 -1.463049,-4.198602 -0.335916,-5.325737 1.193485,-1.193485 4.628435,-0.905727 5.353171,0.448454 0.938238,1.753118 0.774592,2.951587 -0.58927,4.315447 -1.338663,1.338663 -2.780219,1.521572 -4.427985,0.561836 z M 48.095404,87.818224 c -0.526697,-0.333809 0.108867,-0.523308 1.775314,-0.529312 1.895974,-0.0068 2.595715,-0.256316 2.595715,-0.925485 0,-0.561011 0.57078,-0.916135 1.472477,-0.916135 0.809862,0 3.12365,-0.513903 5.141753,-1.142005 2.935785,-0.913722 3.60355,-0.970724 3.340473,-0.285168 -0.273442,0.712582 -0.05674,0.732889 1.28701,0.12063 0.888694,-0.404913 1.518597,-1.02783 1.399787,-1.384261 -0.118804,-0.356425 1.042146,-1.436188 2.579903,-2.399473 1.53775,-0.963279 3.594235,-2.479476 4.569955,-3.369312 0.975726,-0.889842 1.577895,-1.274343 1.338155,-0.854448 -0.634612,1.111522 0.870695,0.941029 2.183833,-0.24735 0.614306,-0.555936 1.116915,-0.714671 1.116915,-0.352737 0,1.35486 -6.585311,6.406256 -11.298995,8.667112 -6.361488,3.051205 -15.436617,4.92715 -17.502295,3.617944 z m 2.233381,-4.965175 c 1.343665,-0.349652 2.589998,-0.860135 2.769629,-1.134407 0.50241,-0.767123 7.918611,-2.935119 7.918611,-2.314871 0,0.939789 1.634109,0.59906 3.138812,-0.654481 0.930671,-0.775325 1.13594,-1.2084 0.578991,-1.221513 -1.369206,-0.03225 6.107761,-5.113913 7.787982,-5.293054 1.398114,-0.149062 1.311997,0.0433 -1.135836,2.537485 -4.742317,4.832068 -14.545076,8.914884 -21.058189,8.770666 l -2.443026,-0.05411 2.443026,-0.635731 z m -3.756832,-4.964675 -1.654506,-1.423149 1.935991,0.284143 c 1.064796,0.15628 1.785156,0.5282 1.600801,0.826494 -0.184356,0.298293 0.809795,0.542352 2.209224,0.542352 2.010777,0 2.470684,-0.192138 2.192861,-0.916135 -0.238723,-0.622099 0.03224,-0.916135 0.844239,-0.916135 0.657687,0 2.560428,-0.51852 4.228313,-1.152266 2.003153,-0.761137 3.107536,-0.92722 3.253516,-0.489277 0.13171,0.395129 1.009502,0.101526 2.172645,-0.726708 1.073405,-0.764332 1.805842,-1.625602 1.627642,-1.91394 -0.548753,-0.8879 3.931684,-3.944443 4.682047,-3.19408 0.918993,0.918993 0.275513,1.707682 -3.902942,4.783684 -3.764171,2.771026 -9.088627,4.725893 -14.651892,5.379433 -2.429276,0.285376 -3.144028,0.114572 -4.537939,-1.084416 z m -0.128058,-4.632521 -1.441864,-1.245205 h 1.899931 c 1.194209,0 1.843216,0.283581 1.747243,0.763446 -0.189537,0.947686 3.879301,0.7351 4.478221,-0.233975 0.532284,-0.861252 7.342395,-3.616063 7.974085,-3.225662 0.811609,0.501603 3.665736,-1.696388 3.332025,-2.56602 -0.428629,-1.116988 0.809185,-1.754575 1.675445,-0.863005 0.544325,0.560223 0.09214,1.283816 -1.935799,3.097659 -4.981298,4.45542 -14.782609,6.81754 -17.729287,4.272762 z M 9.2044019,60.482974 C 7.9620223,59.545845 7.7570396,58.744481 7.4520406,53.632271 6.9971858,46.008258 8.3419782,39.18247 11.609497,32.530197 c 2.664563,-5.424727 4.452199,-7.551449 5.481911,-6.521737 0.777566,0.777565 -3.060938,7.440743 -4.087828,7.095974 -0.373898,-0.125533 -1.046595,0.657246 -1.494883,1.739509 -0.597126,1.44159 -0.627668,2.030218 -0.114222,2.201367 0.481197,0.160399 0.525353,0.695196 0.140891,1.706409 -0.307976,0.810036 -0.871913,3.264187 -1.253195,5.453668 -0.3812813,2.189481 -0.9176929,3.842154 -1.1920252,3.672608 -0.8002749,-0.494598 -1.418391,3.401782 -0.6599688,4.160204 0.3728992,0.3729 0.7011833,0.414033 0.7368258,0.09232 0.035357,-0.31912 0.4066466,1.618505 0.8250912,4.305834 0.418444,2.687328 0.72896,4.935965 0.690037,4.99697 -0.03892,0.061 -0.7039018,-0.366655 -1.4777291,-0.950353 z m 4.2245091,-1.247317 c -1.325652,-1.325652 -1.630523,-3.874011 -1.321303,-11.044513 0.350155,-8.11974 5.969015,-21.251196 8.418677,-19.674718 0.542651,0.349223 0.309541,1.30445 -0.889652,3.645553 -0.931066,1.817659 -1.80386,2.882896 -2.043879,2.494537 -0.268241,-0.434023 -0.662178,-0.223236 -1.095308,0.586075 -0.814202,1.52135 -0.885145,2.76679 -0.131055,2.300737 0.299942,-0.185374 0.0251,1.334514 -0.610757,3.377531 -0.635858,2.043017 -1.187988,4.72074 -1.226954,5.950497 -0.03897,1.229757 -0.197188,1.751587 -0.351602,1.159621 -0.154414,-0.591966 -0.534793,-0.919296 -0.845286,-0.727401 -0.719389,0.444607 -0.74384,3.94135 -0.02756,3.94135 0.52404,0 2.065538,8.594692 1.621193,9.039036 -0.123257,0.123258 -0.796688,-0.348479 -1.496514,-1.048305 z m 9.823066,-0.05759 C 20.126785,56.57366 20.445922,45.55061 23.846503,38.643052 c 2.125002,-4.316494 2.741412,-4.970358 3.742192,-3.969578 0.888761,0.888761 -1.888158,6.971243 -2.989697,6.548543 -1.085793,-0.416658 -2.482878,3.887051 -1.465867,4.515598 0.805519,0.497838 0.261501,7.378904 -0.629093,7.957145 -0.695899,0.45183 0.321529,4.598589 1.090116,4.443015 0.355539,-0.07197 0.787609,0.409004 0.960156,1.068824 0.172547,0.65982 0.270742,1.190529 0.218211,1.179353 -0.05253,-0.01118 -0.736776,-0.554724 -1.520544,-1.207885 z M 27.416291,57.9557 c -1.436762,-1.08438 -1.517767,-1.46749 -1.517767,-7.178198 0,-5.50195 0.161196,-6.346962 1.83227,-9.605038 1.007748,-1.964797 2.181103,-3.687603 2.607455,-3.828458 0.461174,-0.152359 0.237284,0.655579 -0.552706,1.994512 -0.910127,1.54255 -1.114239,2.382656 -0.648783,2.670324 0.488635,0.301994 0.437046,1.099377 -0.18393,2.842941 -0.474674,1.332774 -0.875106,3.179037 -0.88985,4.102806 -0.01608,1.007563 -0.332271,1.618488 -0.790254,1.526891 -0.895426,-0.179085 -0.706818,3.286024 0.209693,3.852458 0.547487,0.338366 1.922154,4.296764 1.603007,4.615911 -0.08325,0.08325 -0.834364,-0.364114 -1.669135,-0.994149 z M 17.279158,57.851968 C 17.030539,57.449694 16.711423,55.042732 16.570012,52.503163 16.2611,46.955489 17.490195,41.138751 20.037711,36.09215 c 2.074178,-4.108924 3.450031,-5.519626 4.428741,-4.540916 0.821124,0.821124 0.134988,2.031601 -0.921726,1.626102 -0.672519,-0.25807 -1.377744,0.680827 -2.748683,3.659447 -0.140594,0.305465 0.153633,0.398344 0.653838,0.206397 0.706216,-0.271001 0.591588,0.423831 -0.512923,3.109148 -0.782311,1.901978 -1.450606,4.145243 -1.485099,4.985033 -0.03449,0.83979 -0.201339,1.183341 -0.370771,0.763446 -0.609,-1.509262 -1.427777,-0.721209 -1.427777,1.374202 0,1.175706 0.250429,2.137648 0.556508,2.137648 0.874262,0 1.098412,7.509984 0.250793,8.402587 -0.561765,0.591578 -0.833319,0.600019 -1.181454,0.03672 z M 63.765429,33.452725 c -3.901899,-3.168376 -4.108743,-3.419329 -1.652182,-2.004503 1.769288,1.018998 5.681459,4.563843 4.97292,4.505996 -0.146826,-0.01199 -1.641158,-1.137659 -3.320738,-2.501493 z m 4.568007,-1.921223 c -1.182675,-1.082638 -3.106558,-2.734998 -4.275296,-3.671911 -1.168737,-0.936914 -1.5753,-1.443871 -0.903468,-1.126572 1.7565,0.829577 5.875906,4.190396 6.862204,5.598537 1.157182,1.652104 0.820509,1.4921 -1.68344,-0.800054 z m 4.83812,-1.835167 c -0.537203,-0.409213 -2.323666,-1.905872 -3.969918,-3.325909 -1.646251,-1.420039 -3.542864,-3.019877 -4.214696,-3.555199 -0.885426,-0.705515 -0.647921,-0.667309 0.863225,0.138861 1.146604,0.611695 3.620168,2.545064 5.496809,4.296374 3.185706,2.972953 4.066447,4.153603 1.82458,2.445873 z m 3.972489,-2.337593 c -0.63992,-0.708506 -3.430919,-3.059568 -6.202227,-5.224582 -2.771308,-2.165014 -5.038741,-4.075112 -5.038741,-4.244661 0,-1.043171 8.924741,5.702241 10.983118,8.301155 2.057187,2.597409 2.221627,3.342359 0.25785,1.168088 z m 1.993509,-4.556541 C 78.075949,21.603093 76.38165,20.220364 75.372448,19.729467 74.363246,19.238571 72.300751,17.732036 70.789129,16.38161 l -2.748404,-2.455318 2.631951,1.283654 c 2.490476,1.214656 11.991392,9.711727 10.905266,9.753043 -0.280606,0.01068 -1.378777,-0.961681 -2.440388,-2.160788 z"
         id="path3944" />
    </g>
  </g>
</svg>
