<?xml version="1.0" encoding="UTF-8" standalone="no"?>
<!-- Created with Inkscape (http://www.inkscape.org/) -->

<svg
   width="100mm"
   height="100mm"
   viewBox="0 0 100 100"
   version="1.1"
   id="svg7643"
   inkscape:version="1.1.1 (3bf5ae0d25, 2021-09-20)"
   sodipodi:docname="add_list_type_device_705a.svg"
   xmlns:inkscape="http://www.inkscape.org/namespaces/inkscape"
   xmlns:sodipodi="http://sodipodi.sourceforge.net/DTD/sodipodi-0.dtd"
   xmlns="http://www.w3.org/2000/svg"
   xmlns:svg="http://www.w3.org/2000/svg">
  <sodipodi:namedview
     id="namedview7645"
     pagecolor="#ffffff"
     bordercolor="#666666"
     borderopacity="1.0"
     inkscape:pageshadow="2"
     inkscape:pageopacity="0.0"
     inkscape:pagecheckerboard="true"
     inkscape:document-units="mm"
     showgrid="false"
     width="100mm"
     inkscape:zoom="0.68111408"
     inkscape:cx="419.1662"
     inkscape:cy="13.213645"
     inkscape:window-width="1440"
     inkscape:window-height="890"
     inkscape:window-x="-6"
     inkscape:window-y="-6"
     inkscape:window-maximized="1"
     inkscape:current-layer="layer1" />
  <defs
     id="defs7640" />
  <g
     inkscape:label="Laag 1"
     inkscape:groupmode="layer"
     id="layer1">
    <g
       id="g8973">
      <path
         style="fill:#d0d0d0;fill-opacity:1;stroke-width:0.472648"
         d="M 10.140921,95.130887 C 5.2505634,90.066808 3.6483902,86.983065 3.6429822,82.624154 3.6408742,80.925021 3.9959426,78.556509 4.4374342,77.324702 5.2283125,75.118071 5.2217748,75.047718 3.7307993,69.720851 2.6520417,65.866734 2.2259007,63.342058 2.2259007,60.80508 c 0,-4.806221 0.4502599,-5.187851 9.0872243,-7.702058 l 6.7465,-1.963897 0.146012,-2.265971 c 0.133592,-2.073193 0.234117,-2.242342 1.181622,-1.988256 0.569584,0.152742 1.354646,0.283874 1.744581,0.291405 0.505804,0.0098 0.546916,0.116713 0.143464,0.373196 -0.313924,0.199568 -0.629332,1.700739 -0.708973,3.374311 l -0.143464,3.014808 -6.187456,1.760743 c -6.7543961,1.922072 -7.5800222,2.265248 -8.8644765,3.684555 -1.5857154,1.752197 -1.4917179,4.176766 0.426142,10.991894 0.9813208,3.487134 1.861286,6.43474 1.9554777,6.550241 0.094192,0.115501 0.8058718,-0.559895 1.5815107,-1.500881 1.5613821,-1.894224 3.9393811,-3.506943 6.5430031,-4.437347 0.940449,-0.336072 1.356426,-0.620375 0.924393,-0.631784 -1.544342,-0.04079 -0.406952,-3.662572 1.283434,-4.086836 1.667248,-0.41845 2.210651,0.183043 2.015365,2.230811 -0.173286,1.817083 -0.158496,1.835346 1.491738,1.841732 0.916718,0.0038 2.12592,0.129633 2.687117,0.280181 0.737134,0.197747 1.082699,0.03195 1.244955,-0.597267 0.184848,-0.716833 0.234302,-0.684915 0.279427,0.180334 0.03361,0.644546 0.576017,1.32084 1.401855,1.747897 2.075238,1.073148 5.510636,4.795274 6.476977,7.017568 0.478186,1.099683 0.915763,2.069831 0.972393,2.155882 0.05663,0.08605 0.594991,-0.106871 1.19636,-0.428711 1.054095,-0.564135 1.059797,-0.598298 0.158643,-0.950373 -0.642595,-0.251057 -0.188861,-0.375586 1.4517,-0.398419 2.331558,-0.03247 2.402175,0.0076 3.069857,1.739209 1.020565,2.646874 1.043919,2.791726 0.303014,1.879373 -0.651864,-0.802704 -0.743438,-0.802704 -2.153622,0 -1.42711,0.812341 -1.473045,0.941015 -1.480415,4.146895 -0.0091,3.938617 -1.4468,7.509042 -4.139616,10.280104 l -1.722383,1.772432 h -8.649916 -8.649915 z m 15.658773,-2.722536 c 3.953161,-2.616081 5.10414,-9.071953 2.277976,-12.777243 -2.327303,-3.051253 -3.938952,-3.860356 -7.689434,-3.860356 -2.757731,0 -3.634256,0.199457 -5.005431,1.138997 -2.676098,1.833692 -3.875857,3.988629 -4.089607,7.345511 -0.273247,4.291251 1.272831,7.074049 4.970523,8.946488 2.107954,1.067425 2.504876,0.969161 2.504876,-0.620124 0,-0.95631 -0.284083,-1.476261 -0.916187,-1.676881 -0.503904,-0.159935 -1.567363,-1.032434 -2.363243,-1.938894 -1.177622,-1.341234 -1.446726,-2.063058 -1.445288,-3.876738 0.0043,-5.339992 5.341732,-8.500474 9.782743,-5.792629 4.585792,2.796118 3.497579,10.58925 -1.883656,13.489615 -0.964628,0.519913 -1.754444,1.076258 -1.755146,1.23632 -0.0028,0.643852 3.89322,-0.476718 5.611874,-1.614066 z m 60.810067,1.590514 c -0.696263,-1.346424 -0.674587,-1.420096 0.744558,-2.530744 1.441181,-1.127895 1.451079,-1.164497 0.705003,-2.607247 -1.084738,-2.097652 -0.974663,-2.326626 1.118494,-2.326626 2.170889,0 3.975267,-1.03467 5.118939,-2.935303 0.442513,-0.735399 1.86803,-5.137198 3.167813,-9.781777 l 2.363242,-8.444683 0.13316,5.55336 c 0.11968,4.991158 -0.0089,6.039913 -1.270007,10.359405 -1.702517,5.831348 -3.023111,7.455685 -6.368035,7.832707 -2.373499,0.267528 -2.467844,0.402025 -1.607142,2.291064 0.534655,1.173444 0.457472,1.366985 -1.045602,2.621805 -0.892583,0.745163 -1.784967,1.354837 -1.983082,1.354837 -0.198111,0 -0.682916,-0.624056 -1.077341,-1.386798 z m -34.66869,-2.434163 c -2.289849,-0.442508 -4.525364,-1.688981 -6.171264,-3.440961 l -1.105249,-1.176484 2.013007,0.995956 c 2.49623,1.23504 6.166269,1.575105 8.961323,0.830363 2.663186,-0.709606 6.133111,-4.15131 7.32082,-7.261275 l 0.838922,-2.196686 2.653515,0.03323 c 1.527586,0.01914 2.298007,0.173755 1.815684,0.364422 -1.441994,0.570033 1.179707,1.697649 8.511817,3.660998 3.700781,0.990973 6.480271,1.955304 6.176646,2.142955 -0.4206,0.259942 -0.41904,0.785097 0.0066,2.2056 1.066952,3.56116 0.360068,4.085734 -1.194335,0.886305 -0.984083,-2.025544 -1.051638,-2.065804 -5.6478,-3.366136 -2.558493,-0.723842 -5.183536,-1.685299 -5.833427,-2.136574 -0.649892,-0.451275 -1.773604,-0.928943 -2.497144,-1.061488 -1.20575,-0.220883 -1.417057,-0.02637 -2.532398,2.331282 -2.682971,5.671328 -7.555835,8.301763 -13.316668,7.188501 z m -2.450323,-7.081753 c -1.517685,-0.635854 -3.683341,-2.691658 -4.517866,-4.288704 l -0.652286,-1.248293 2.220108,-0.332924 c 2.938788,-0.440698 10.534379,-0.37897 11.818475,0.09605 l 1.017688,0.376469 -1.043712,1.843031 c -0.574036,1.013666 -1.604311,2.258627 -2.289495,2.766573 -1.461571,1.083513 -4.869262,1.493191 -6.552912,0.787801 z m 3.781188,-3.086787 1.181621,-0.721843 -1.181621,0.259489 c -0.649892,0.14272 -2.204461,0.2624 -3.454597,0.265949 -1.393528,0.0038 -2.159951,0.189324 -1.980861,0.4791 0.445806,0.721328 4.103317,0.531106 5.435458,-0.282695 z M 41.367102,78.992744 c 0.341194,-0.136534 0.748853,-0.119745 0.90591,0.03729 0.157057,0.157057 -0.122101,0.268767 -0.620351,0.248245 -0.550609,-0.02269 -0.662606,-0.134677 -0.285559,-0.285556 z m 20.796533,0 c 0.341191,-0.136534 0.74885,-0.119745 0.905911,0.03729 0.157057,0.157057 -0.122104,0.268767 -0.620351,0.248245 -0.550612,-0.02269 -0.662606,-0.134677 -0.28556,-0.285556 z m 16.511701,-9.366423 c 0.13487,-2.33961 0.288986,-4.308134 0.342471,-4.374503 0.05349,-0.06637 1.035516,-0.17271 2.18228,-0.236324 1.809922,-0.100396 2.103938,0.01687 2.228343,0.888886 0.07882,0.552503 -0.154939,1.302799 -0.519469,1.667334 -0.36453,0.36453 -0.930796,1.474857 -1.25836,2.46739 -0.502581,1.522841 -0.768177,1.771619 -1.700996,1.593298 -0.895224,-0.171132 -1.144787,0.0225 -1.312455,1.018222 -0.113865,0.676242 -0.09669,-0.684693 0.03819,-3.024303 z M 48.147431,67.972052 c 0,-0.649892 0.107279,-0.915757 0.238398,-0.590811 0.131118,0.324946 0.131118,0.856676 0,1.181621 -0.131119,0.324946 -0.238398,0.05908 -0.238398,-0.59081 z M 36.071027,66.328918 c -0.991063,-1.512551 -1.070058,-2.503874 -0.345329,-4.333572 0.403506,-1.018709 0.988373,-1.562921 1.85843,-1.729246 1.670216,-0.319279 1.973766,0.287937 1.824015,3.648742 -0.101011,2.266945 -0.299233,2.864519 -1.047262,3.157159 -1.38823,0.543097 -1.46302,0.518827 -2.289854,-0.743083 z m 23.835622,0.01011 c -0.841442,-1.013878 -1.258739,-4.984059 -0.52386,-4.984059 0.309107,0 0.437673,-0.201192 0.285697,-0.447092 -0.151975,-0.2459 0.52672,-0.670098 1.508212,-0.94266 2.444297,-0.678789 2.414378,-0.692539 2.252397,1.035266 -0.280857,2.995802 -0.833728,5.553619 -1.200414,5.553619 -0.204468,0 -0.674115,0.116026 -1.043664,0.257835 -0.369545,0.141809 -0.944811,-0.071 -1.278368,-0.472909 z M 25.022683,65.136161 c 0,-0.909848 0.09727,-1.282059 0.216153,-0.827135 0.118884,0.454924 0.118884,1.199346 0,1.65427 -0.118884,0.454924 -0.216153,0.08271 -0.216153,-0.827135 z M 48.62008,62.772919 c 0,-0.649892 0.107278,-0.915757 0.238397,-0.590811 0.131119,0.324946 0.131119,0.856675 0,1.181621 -0.131119,0.324946 -0.238397,0.05908 -0.238397,-0.59081 z m 30.722148,-2.363243 c 0,-0.649891 0.107282,-0.915756 0.2384,-0.59081 0.131117,0.324945 0.131117,0.856675 0,1.181621 -0.131118,0.324946 -0.2384,0.05908 -0.2384,-0.590811 z m -54.82722,-0.945297 c 0,-0.649891 0.107278,-0.915756 0.238397,-0.59081 0.131118,0.324945 0.131118,0.856675 0,1.181621 -0.131119,0.324946 -0.238397,0.05908 -0.238397,-0.590811 z m 24.540406,-2.166304 c 0.02268,-0.550612 0.134677,-0.662606 0.285558,-0.28556 0.136535,0.341191 0.119743,0.74885 -0.03731,0.905911 -0.157058,0.157057 -0.268768,-0.122104 -0.248245,-0.620351 z m 41.555751,-1.384874 -6.853403,-2.02881 -0.136803,-4.079784 c -0.09419,-2.809115 -0.298147,-3.980064 -0.65484,-3.759615 -0.284922,0.17609 -0.05192,-0.310294 0.517781,-1.080855 0.820665,-1.11001 1.37278,-3.525088 2.658067,-11.626989 1.408984,-8.881609 1.545305,-10.455724 1.036967,-11.973623 -0.730838,-2.182294 -2.439745,-3.482223 -5.035469,-3.830383 -1.102812,-0.147918 -1.771558,-0.413285 -1.486106,-0.589705 0.77631,-0.479784 -1.802956,-4.057469 -4.014833,-5.568957 C 74.310985,9.7812208 69.564625,9.3356087 66.878809,10.457814 65.27931,11.126126 65.107295,11.113501 64.345641,10.27188 62.995142,8.7795969 60.539426,8.4234912 51.617666,8.426182 41.396171,8.4292646 39.93965,8.6345245 38.127557,10.327273 c -0.769075,0.718423 -1.398318,1.140348 -1.398318,0.937611 0,-0.202738 -0.637581,-0.632709 -1.416848,-0.955491 -2.047216,-0.8479851 -6.793399,-0.4053838 -8.396959,0.783051 -1.63546,1.212076 -4.447348,4.846348 -4.137538,5.347631 0.128611,0.208098 -0.986511,0.530831 -2.478048,0.717186 -3.410809,0.426152 -5.103543,1.294086 -6.276868,3.218404 -1.196949,1.96306 -1.168548,2.709647 0.498073,13.093048 1.664642,10.371081 1.69021,10.745193 0.676878,9.904202 -0.404128,-0.335396 -0.937858,-0.989271 -1.186068,-1.453056 -0.697364,-1.303036 -3.72198,-20.974666 -3.417749,-22.228506 0.742503,-3.060113 3.001889,-4.66468 7.56085,-5.369554 1.719984,-0.265932 2.150723,-0.588247 3.216503,-2.406863 0.676815,-1.154897 2.046494,-2.6397648 3.043733,-3.2997059 2.297571,-1.520461 6.206845,-1.9954912 8.532853,-1.0368589 1.510661,0.6225981 1.760498,0.6037578 2.877932,-0.2170251 1.959042,-1.4389639 4.385611,-1.7563412 13.428441,-1.7563412 9.151358,0 11.680689,0.3408312 13.105899,1.7660414 0.821331,0.8213321 1.080924,0.8498527 2.646378,0.290753 4.61468,-1.648127 8.18889,-0.5565984 12.895476,3.9381507 1.978563,1.88951 3.84492,3.435473 4.147457,3.435473 0.698376,0 6.06228,5.446063 7.215532,7.326051 0.482314,0.786256 0.870605,2.307337 0.871583,3.414353 0.0028,3.104126 -2.756089,19.405136 -3.541111,20.9232 -0.483141,0.934295 -0.609589,2.029412 -0.40591,3.515414 l 0.295835,2.158373 3.362587,0.970786 c 1.849421,0.533932 3.922495,1.187875 4.606838,1.453205 1.24801,0.483879 4.28385,3.295419 3.452494,3.197415 -0.243603,-0.02874 -3.526945,-0.965176 -7.296317,-2.081019 z m -65.698138,-6.015959 0.236325,-2.950193 2.363242,-0.329612 c 1.299783,-0.181286 2.985809,-0.451134 3.746724,-0.599661 0.760915,-0.148527 1.240489,-0.127057 1.06572,0.04771 -0.174768,0.174769 0.223775,1.027752 0.885653,1.895518 l 1.203413,1.577756 h -1.855566 c -3.095388,0 -4.800236,0.535979 -6.219612,1.955356 -0.744251,0.744252 -1.422717,1.353212 -1.507703,1.35325 -0.08499,3.8e-5 -0.04817,-1.327519 0.0818,-2.950125 z M 78.194123,51.6668 c -0.962062,-1.322509 -3.02488,-1.974163 -7.552356,-2.385835 -1.754707,-0.159552 -3.190377,-0.34777 -3.190377,-0.418266 0,-0.0705 0.233124,-0.796913 0.518051,-1.614259 0.410169,-1.176614 0.730058,-1.439614 1.536108,-1.262931 2.640115,0.578702 6.884923,1.19576 8.718048,1.267322 1.115512,0.04355 1.784428,0.229844 1.48647,0.41399 -0.331766,0.205044 -0.476699,1.273983 -0.373941,2.757939 0.09229,1.332722 0.06145,2.416311 -0.06852,2.407983 -0.129978,-0.0083 -0.613044,-0.533006 -1.073479,-1.165943 z M 38.040802,48.765494 c 0.455479,-0.19551 0.367499,-0.639044 -0.360384,-1.816782 -0.854319,-1.382318 -0.877951,-1.59075 -0.209447,-1.84728 0.41444,-0.159035 1.214688,-0.293827 1.778329,-0.299536 1.885898,-0.0191 4.953491,-1.755391 5.719943,-3.237545 1.095293,-2.118063 0.955363,-2.355106 -1.504763,-2.54909 -1.234794,-0.09736 2.327794,-0.173103 7.916862,-0.168307 5.589068,0.0048 8.61822,0.08216 6.73145,0.171913 -3.37679,0.160639 -3.425926,0.181364 -3.139137,1.324032 0.288471,1.149362 0.258846,1.160838 -2.996729,1.160838 h -3.288083 l -0.731251,1.861584 -0.731251,1.861585 1.368528,0.477071 c 0.939656,0.327566 1.826732,0.31734 2.830656,-0.03263 0.804169,-0.280336 2.726563,-0.395046 4.271986,-0.254912 2.537763,0.230117 2.784046,0.17348 2.543355,-0.584879 -0.237312,-0.747702 -0.07106,-0.795582 1.517957,-0.437153 0.981455,0.221383 2.358535,0.513651 3.060182,0.649483 1.243245,0.240682 1.259254,0.285997 0.628849,1.780111 l -0.646871,1.53314 -4.646362,0.07091 c -2.555496,0.039 -5.284436,0.06975 -6.064306,0.06833 -7.305995,-0.0133 -10.269346,0.05213 -12.288861,0.271299 -1.299783,0.141062 -2.092077,0.140083 -1.760652,-0.0024 z m 26.929184,-0.01241 c 0.324945,-0.131117 0.856675,-0.131117 1.181621,0 0.324946,0.131118 0.05908,0.238399 -0.590811,0.238399 -0.649892,0 -0.915756,-0.107281 -0.59081,-0.238399 z M 22.461163,47.325295 c 0.341194,-0.136535 0.748853,-0.119743 0.90591,0.03731 0.157057,0.157058 -0.122101,0.268768 -0.620351,0.248245 -0.550608,-0.02268 -0.662606,-0.134677 -0.285559,-0.285559 z m 2.96681,-13.102586 c -1.781624,-1.896451 -0.933458,-5.88276 1.263446,-5.938097 0.88092,-0.02219 3.072921,5.173159 2.482696,5.884337 -0.259434,0.312598 -0.331749,0.708311 -0.1607,0.87936 0.171049,0.171049 -0.325451,0.310998 -1.103333,0.310998 -0.88256,0 -1.815802,-0.427346 -2.482109,-1.136598 z m 40.903179,-0.517672 c 0.08912,-0.519913 0.189612,-2.327793 0.223317,-4.017512 0.0337,-1.689718 0.158398,-2.700787 0.277099,-2.246819 0.174204,0.66625 0.39729,0.728275 1.157006,0.321688 1.554673,-0.832038 2.299761,0.235382 2.291471,3.282788 -0.0098,3.605602 -0.409475,4.174405 -2.278109,3.242208 -1.030067,-0.513865 -1.501,-0.565307 -1.639079,-0.179042 -0.106554,0.298093 -0.120823,0.116603 -0.03171,-0.403311 z M 35.984706,24.015744 c 0,-5.589068 0.06837,-7.875505 0.151933,-5.080971 0.08356,2.794534 0.08356,7.367408 0,10.161942 -0.08356,2.794534 -0.151933,0.508097 -0.151933,-5.080971 z m 12.180515,3.449311 c -1.715312,-0.83075 -2.236276,-2.187431 -1.778004,-4.63023 0.227441,-1.212363 0.608498,-1.722512 1.443101,-1.931984 1.445394,-0.362771 2.133079,0.06756 2.133079,1.334808 0,0.551104 0.265864,1.743058 0.59081,2.648787 0.473542,1.319916 0.472961,1.686393 -0.0028,1.846358 -0.326567,0.109768 -0.482616,0.379408 -0.346777,0.599199 0.488009,0.789613 -0.544524,0.856986 -2.039264,0.133062 z M 71.468902,15.736542 c -1.819697,-0.324 -3.414885,-0.617555 -3.544863,-0.652343 -0.129979,-0.03479 0.08271,-0.269429 0.472648,-0.521425 1.376466,-0.889541 4.46002,-0.533747 6.14443,0.708973 1.763622,1.301159 1.688726,1.31249 -3.072215,0.464795 z M 28.930539,15.081717 c 1.436126,-0.997996 3.910517,-1.244206 5.653772,-0.562568 0.668996,0.261587 0.147883,0.454186 -1.870846,0.691448 -1.538974,0.180876 -3.338749,0.447579 -3.999502,0.592674 -1.163241,0.255436 -1.156367,0.232536 0.216576,-0.721554 z"
         id="path8989" />
      <path
         style="fill:#b9b9b9;fill-opacity:1;stroke-width:0.472648"
         d="M 10.819363,95.74015 C 6.4962974,91.327744 5.2661764,89.627855 4.3074489,86.741395 3.3701415,83.919424 3.5851813,78.878174 4.7379521,76.648961 5.4710199,75.231365 5.4355867,74.945781 3.863948,69.604721 2.172256,63.855676 1.7196465,58.930234 2.7125606,57.074957 c 0.7140635,-1.33424 2.712973,-2.21908 9.3787714,-4.151612 l 5.968293,-1.730314 0.144059,-2.24508 c 0.156489,-2.438796 0.191204,-2.478343 1.541283,-1.755802 0.755967,0.404581 0.914224,1.006889 0.914224,3.479433 v 2.990153 l -6.262592,1.776431 c -7.4975521,2.126738 -8.6190069,2.657655 -9.5932362,4.541608 -1.1232373,2.172099 -0.9194556,4.304863 1.0668893,11.16597 l 1.8082396,6.245904 2.2214421,-2.297096 c 3.2907912,-3.402865 5.8967142,-4.522934 10.5229332,-4.522934 3.082645,0 4.200693,0.214313 6.051956,1.160069 2.763839,1.411961 6.000464,4.776798 7.191528,7.476405 1.002194,2.271525 1.264788,2.365757 2.933916,1.05282 1.828439,-1.43825 2.817851,-1.195805 3.91765,0.959977 0.921614,1.806515 0.925557,1.876273 0.07606,1.345754 -0.729162,-0.455369 -1.118249,-0.392114 -2.090215,0.339805 -1.065574,0.802411 -1.215774,1.307436 -1.393775,4.686372 -0.227988,4.327824 -1.749544,7.767079 -4.507537,10.188627 l -1.577886,1.385404 h -8.423941 -8.42394 z m 13.841008,-2.578922 c 2.079887,-1.051992 3.070539,-2.033352 4.111472,-4.072906 1.103442,-2.162031 1.222392,-5.652318 0.269526,-7.908572 -2.231456,-5.283775 -8.841648,-7.334781 -13.703049,-4.251771 -5.6342668,3.573147 -5.8298511,11.334153 -0.390705,15.503631 2.592589,1.987397 3.820982,2.029288 3.820982,0.1303 0,-1.088505 -0.324761,-1.573749 -1.438847,-2.149865 -4.428163,-2.289892 -4.268605,-9.472202 0.252395,-11.361198 2.182695,-0.911985 3.944055,-0.857167 5.883792,0.183128 3.201326,1.716886 4.16824,5.629862 2.329664,9.427857 -0.88849,1.835375 -1.762176,2.671088 -5.438696,5.202324 -0.759587,0.522966 -0.624097,0.565722 0.994927,0.313966 1.030843,-0.160294 2.519686,-0.617898 3.308539,-1.016894 z m 61.959136,0.856487 c -0.683095,-1.320963 -0.658139,-1.406196 0.726466,-2.481405 1.429728,-1.110251 1.431727,-1.118513 0.695251,-2.870706 -0.939389,-2.23497 -0.973845,-2.131068 0.628694,-1.895869 1.662971,0.244076 4.602135,-1.075861 5.522089,-2.479887 0.370788,-0.565893 1.829381,-4.947457 3.241314,-9.736804 l 2.567159,-8.70791 0.0318,5.219565 c 0.0261,4.277393 -0.188958,5.981126 -1.191294,9.43853 -0.672716,2.32043 -1.53381,4.819767 -1.913541,5.554088 -0.922761,1.784418 -3.319509,3.179979 -5.465055,3.182148 l -1.748317,0.0019 0.730195,1.747603 0.730199,1.747604 -1.581449,1.311897 c -0.869796,0.721541 -1.735503,1.317617 -1.923797,1.324612 -0.188294,0.007 -0.660678,-0.602863 -1.049743,-1.355235 z M 49.0181,90.451345 c -1.169805,-0.610014 -2.538727,-1.564556 -3.042048,-2.121199 l -0.91513,-1.012082 2.096751,0.951205 c 2.703064,1.226263 7.074982,1.267072 9.659126,0.09016 2.399575,-1.092849 5.003533,-3.968607 6.17728,-6.822057 0.758241,-1.843329 1.121344,-2.218518 2.148489,-2.219987 0.679825,-9.46e-4 1.817197,0.455359 2.527488,1.014081 0.710296,0.558718 4.175675,1.825955 7.700843,2.816082 3.525163,0.990128 6.557099,1.968666 6.737637,2.174523 0.535071,0.610138 1.568002,4.866904 1.256555,5.178351 -0.157733,0.157733 -0.665636,-0.396022 -1.12868,-1.230564 -1.487675,-2.681254 -1.722024,-2.841846 -5.91513,-4.053405 -2.270371,-0.656003 -5.120215,-1.720327 -6.332988,-2.365166 -3.074753,-1.634858 -3.573322,-1.52189 -4.630972,1.049327 -1.173747,2.85345 -3.777704,5.729209 -6.177279,6.822057 -2.788432,1.26995 -7.444696,1.145624 -10.161942,-0.271329 z m 1.060084,-5.842365 c -1.541866,-0.477743 -4.00094,-2.582022 -4.961015,-4.245239 l -0.828715,-1.43565 4.069519,-0.338993 c 3.825028,-0.318622 10.019011,0.0024 10.564007,0.547227 0.399833,0.399833 -1.673723,3.651881 -2.924044,4.585905 -1.274275,0.951919 -4.264027,1.399772 -5.919752,0.88675 z m 3.193752,-3.211268 c 1.162758,-0.708793 1.151438,-0.716157 -0.708973,-0.461102 -1.039827,0.142561 -2.700742,0.261536 -3.69092,0.264395 -1.078752,0.0033 -1.683247,0.194642 -1.508213,0.477852 0.448332,0.725417 4.579359,0.528837 5.908106,-0.281145 z M 90.587268,55.72296 c -3.262602,-0.96693 -6.187115,-1.915725 -6.498916,-2.108428 -0.799826,-0.494319 -0.734066,-7.335797 0.08973,-9.335344 0.990033,-2.403047 3.728497,-20.596965 3.379872,-22.455309 -0.163986,-0.874128 -0.189844,-1.589323 -0.05746,-1.589323 0.716625,0 2.638022,3.732479 2.638022,5.124583 0,2.773213 -2.906164,20.10476 -3.594809,21.438422 -0.819123,1.586363 -0.85979,4.833067 -0.06822,5.446683 0.324946,0.251893 2.398691,0.969184 4.608323,1.593978 2.559075,0.723606 4.532254,1.602813 5.435457,2.421927 1.828786,1.658518 1.321776,1.612601 -5.932003,-0.537189 z M 24.913027,49.89503 c 0,-2.946066 -0.247933,-2.766912 4.781041,-3.45471 2.033147,-0.278068 2.249667,-0.202584 3.184418,1.110152 l 1.002945,1.408506 -1.0575,0.283437 c -0.581625,0.155889 -1.656386,0.286345 -2.388356,0.289895 -1.527158,0.0074 -2.936506,0.651697 -4.459089,2.038499 l -1.063459,0.968623 z m 52.863586,1.251053 c -1.080422,-1.084393 -1.8681,-1.327008 -5.671781,-1.747004 -2.429413,-0.268246 -4.478255,-0.531762 -4.552976,-0.585592 -0.377514,-0.271945 1.085154,-2.583265 1.634759,-2.583265 0.933192,0 9.799076,1.451131 9.981707,1.633766 0.08537,0.08537 0.08946,1.142108 0.0091,2.348297 L 79.031263,52.40536 77.776599,51.146083 Z M 51.176884,48.488439 c -0.578659,-0.323834 -2.905355,-0.385491 -6.664765,-0.176615 l -5.775746,0.320903 -0.956776,-1.621611 -0.956775,-1.621614 2.744422,-0.539932 c 3.18241,-0.626101 5.041914,-1.913872 5.969611,-4.134163 l 0.65804,-1.574912 h 4.247493 c 2.336122,0 4.247493,0.195296 4.247493,0.433992 0,0.238695 0.129099,0.770424 0.286893,1.181621 0.24479,0.637918 -0.199259,0.747629 -3.02598,0.747629 -3.29813,0 -3.315567,0.0068 -3.91916,1.536108 -0.33346,0.844859 -0.684319,1.675497 -0.779686,1.845861 -0.09537,0.170364 0.551404,0.548959 1.43727,0.841321 1.184167,0.390811 1.972866,0.392566 2.97853,0.0066 0.848773,-0.325727 2.526008,-0.402543 4.419703,-0.202418 2.858701,0.302106 3.008847,0.270715 2.372516,-0.496018 -0.62616,-0.754475 -0.559829,-0.79523 0.84751,-0.520741 0.839759,0.163787 2.16491,0.42104 2.94478,0.571673 1.543235,0.298079 1.636006,0.508984 0.981317,2.230942 -0.428957,1.128249 -0.514667,1.14433 -4.881489,0.915917 -2.649091,-0.138565 -4.816823,-0.03343 -5.365525,0.260225 -0.640122,0.342585 -1.191547,0.34112 -1.809676,-0.0048 z M 14.599645,42.474992 C 13.69485,40.987175 10.717882,24.289553 10.728679,20.762993 c 0.01058,-3.455336 2.570786,-5.596828 7.684255,-6.427517 1.29005,-0.209571 1.952262,-0.637772 2.437519,-1.576154 1.622614,-3.1377893 5.62727,-5.7476086 8.789059,-5.7277971 0.909848,0.0057 2.488963,0.3077585 3.509143,0.6712384 1.759731,0.6269748 1.925234,0.6016673 3.226641,-0.4933944 1.370403,-1.1531182 1.382959,-1.1542672 12.613111,-1.1542672 10.945169,0 11.283552,0.0286 12.843405,1.0854987 1.504795,1.0195907 1.731208,1.0465392 3.728984,0.4438335 4.512583,-1.3613926 8.618135,0.041966 12.676484,4.3330751 1.379444,1.458555 3.079522,2.949251 3.777955,3.312656 0.698433,0.363406 1.77057,1.196773 2.382526,1.851926 l 1.112648,1.191188 -1.998112,-0.589972 C 81.906365,17.209133 81.177745,16.593824 79.800083,14.548401 77.623976,11.317526 74.811869,9.7695974 71.057178,9.7358583 69.606454,9.7228227 67.793139,9.9716031 67.02759,10.288704 65.795759,10.798945 65.463898,10.738136 64.141986,9.7599601 62.692085,8.6870745 62.326708,8.6505123 51.680079,8.5129149 L 40.711868,8.371161 38.948106,9.5680823 c -1.707121,1.1584837 -1.844239,1.1759597 -4.269746,0.5441957 -4.620713,-1.2035427 -8.382915,0.313437 -11.110554,4.479954 -1.337135,2.042497 -1.627708,2.23018 -3.924481,2.534858 -4.374983,0.580362 -6.546509,2.688384 -6.546509,6.355065 0,1.056069 0.646689,5.995172 1.437086,10.975784 0.790398,4.980612 1.333589,9.159157 1.207091,9.285655 -0.126498,0.126498 -0.640104,-0.444373 -1.141348,-1.268602 z M 70.595566,15.485051 c -2.788517,-0.46792 -3.18135,-0.77631 -1.520019,-1.193277 1.704106,-0.427703 4.526574,0.07474 5.415956,0.964121 0.651333,0.651334 0.606734,0.719188 -0.439913,0.669232 -0.640608,-0.03058 -2.19582,-0.228609 -3.456024,-0.440076 z M 29.375363,14.832379 c 1.021645,-0.826532 3.82824,-1.003255 4.281661,-0.269605 0.160662,0.259957 -0.09265,0.47499 -0.562916,0.477851 -0.470266,0.0029 -1.705796,0.124183 -2.745623,0.269604 -1.776098,0.248391 -1.835031,0.219452 -0.973122,-0.47785 z"
         id="path8987" />
      <path
         style="fill:#a3a3a3;fill-opacity:1;stroke-width:0.472648"
         d="M 10.112002,94.897403 C 7.8923665,92.54921 5.6097554,89.664201 5.0395332,88.486281 3.522633,85.352782 3.3178035,81.16273 4.5095623,77.645044 L 5.4758576,74.792851 3.8508792,69.154264 C 2.7826243,65.447476 2.2259007,62.514593 2.2259007,60.593692 c 0,-2.720611 0.1087227,-3.017439 1.5776384,-4.307165 1.1828311,-1.038541 3.1936128,-1.841159 8.0350239,-3.207251 l 6.457386,-1.822064 v -2.26194 c 0,-2.147381 0.05386,-2.241981 1.063459,-1.867862 0.950639,0.352271 1.063459,0.714185 1.063459,3.411471 v 3.017392 L 17.8233,54.348985 c -1.429761,0.435995 -4.498935,1.358458 -6.820387,2.049924 -3.0362693,0.904375 -4.5796841,1.641371 -5.499533,2.626073 -2.0979148,2.245822 -2.0908125,3.744363 0.053709,11.332479 1.0583491,3.744832 1.9964073,6.880926 2.0845737,6.969089 0.088166,0.08817 1.1466589,-0.89419 2.352206,-2.183017 5.8141023,-6.215748 15.4462793,-6.114852 21.0226203,0.220207 1.035783,1.17671 2.23956,3.072484 2.675062,4.212824 l 0.791821,2.073353 1.991594,-1.167148 c 2.541438,-1.489382 2.91072,-1.467215 3.786999,0.22732 0.894014,1.72883 0.899146,1.952714 0.03718,1.62195 -0.37616,-0.144347 -1.220243,0.128191 -1.87574,0.605647 -1.049354,0.764324 -1.19359,1.219074 -1.206667,3.804414 -0.02015,3.983599 -1.446934,7.612386 -4.04356,10.284117 l -2.08046,2.140634 H 22.620213 14.147704 Z M 24.208109,93.558886 C 28.258778,91.718705 30.768476,86.782643 29.678816,82.799124 27.612178,75.244023 19.305991,72.7733 13.800602,78.076061 c -2.942115,2.833831 -3.8075697,6.586844 -2.332983,10.116894 2.141652,5.126956 7.914517,7.558325 12.74049,5.365931 z m -4.966863,-0.810332 c 0,-0.791927 -0.555902,-1.498546 -1.855535,-2.358601 -3.589368,-2.375333 -4.344957,-6.884512 -1.628696,-9.71968 5.034749,-5.255147 12.981305,0.06012 10.358281,6.928403 -0.824298,2.158396 -4.18678,5.577805 -5.934327,6.034799 -0.744464,0.194684 -0.939723,0.01081 -0.939723,-0.884921 z m 67.443524,1.246133 c -0.775186,-1.312285 -0.764849,-1.351066 0.653706,-2.452601 1.440879,-1.118863 1.441105,-1.119813 0.696405,-2.891664 l -0.744941,-1.772431 1.778775,-0.0019 c 2.497153,-0.0024 4.744653,-1.52189 5.783927,-3.910188 0.477748,-1.097882 1.792604,-5.292873 2.921898,-9.322201 l 2.05327,-7.326052 0.134639,4.839325 c 0.116861,4.200493 -0.04788,5.464483 -1.248009,9.575074 -0.760454,2.604661 -1.709055,5.23391 -2.107998,5.842776 -0.906115,1.383036 -3.544897,2.666399 -5.48224,2.666399 h -1.47102 l 0.733872,1.756404 c 0.707749,1.693878 0.695356,1.78689 -0.348143,2.613009 -2.23109,1.766316 -2.518196,1.799188 -3.354141,0.384041 z M 50.049433,90.88631 c -1.840153,-0.799272 -4.478206,-2.609592 -4.203332,-2.884465 0.105032,-0.105032 0.961213,0.130862 1.902626,0.524209 0.941413,0.393348 3.019032,0.715179 4.616929,0.715179 5.007247,0 9.011941,-3.060375 10.924003,-8.348087 0.636752,-1.7609 1.718677,-2.019273 3.689083,-0.880975 2.760867,1.594943 4.309523,2.176178 9.551672,3.584902 l 5.534166,1.487198 0.756398,2.60193 c 0.945694,3.25306 0.615416,3.702265 -0.742611,1.010026 -0.57,-1.130008 -1.088032,-2.114648 -1.151183,-2.188088 -0.06315,-0.07344 -2.271005,-0.749829 -4.906342,-1.503084 -2.635336,-0.753255 -5.351203,-1.809799 -6.035253,-2.347877 -0.684054,-0.538077 -1.824229,-0.978321 -2.533726,-0.978321 -1.086827,0 -1.41364,0.323769 -2.075097,2.055766 -1.061139,2.778559 -3.837906,5.918949 -6.170346,6.978376 -2.323663,1.055443 -6.925552,1.142538 -9.156987,0.173311 z m -0.322361,-6.604199 c -1.854039,-0.650965 -4.962809,-3.625105 -4.962809,-4.747887 0,-0.773371 6.582698,-1.317682 10.850123,-0.897181 1.83113,0.180438 3.329332,0.541343 3.329332,0.802018 0,1.258484 -2.214836,3.850275 -3.972393,4.64847 -2.300503,1.044775 -2.772845,1.062301 -5.244253,0.19458 z m 3.809013,-2.872488 c 0.852974,-0.689731 0.734727,-0.723247 -1.682095,-0.476756 -1.429761,0.145817 -3.090675,0.266975 -3.69092,0.269235 -0.606447,0.0023 -0.961563,0.214114 -0.79924,0.476755 0.475618,0.769567 5.139163,0.566144 6.172255,-0.269234 z M 90.613476,55.605748 c -3.508148,-1.038021 -6.410517,-1.923793 -6.449709,-1.968392 -0.03918,-0.04457 -0.217517,-1.811992 -0.396278,-3.927553 -0.251042,-2.97097 -0.165753,-4.154449 0.374702,-5.19958 0.941038,-1.819762 3.801342,-20.167995 3.497325,-22.43459 l -0.241453,-1.800186 1.136304,1.35042 c 0.624964,0.742731 1.26381,1.987964 1.419656,2.767184 0.338695,1.69348 -2.460116,19.973861 -3.406481,22.249379 -0.831687,1.999764 -0.876385,5.692884 -0.07205,5.952826 0.324946,0.105013 2.445805,0.741401 4.713014,1.414197 2.281356,0.676989 4.708662,1.739314 5.435458,2.378859 0.722292,0.63558 1.100562,1.144159 0.840605,1.130169 -0.259957,-0.01399 -3.342948,-0.874717 -6.851093,-1.912733 z m -65.700449,-5.99772 v -2.293975 l 3.408801,-0.562952 c 3.316738,-0.547747 3.43134,-0.533661 4.243327,0.521544 0.458989,0.596472 0.839255,1.217427 0.845035,1.3799 0.01224,0.344051 -2.453116,0.886216 -4.029819,0.886216 -0.597452,0 -1.718201,0.53173 -2.490553,1.181621 -0.772352,0.649892 -1.533093,1.181622 -1.690534,1.181622 -0.157441,0 -0.286257,-1.032288 -0.286257,-2.293976 z m 52.869589,1.268305 c -1.429454,-1.114061 -4.262174,-1.759874 -7.849821,-1.789636 -1.364773,-0.0113 -2.481405,-0.140911 -2.481405,-0.28798 0,-0.249892 0.917047,-2.145992 1.202181,-2.485644 0.07086,-0.08441 2.488008,0.22268 5.371433,0.682424 l 5.242598,0.835897 v 2.035305 c 0,1.119416 -0.05317,2.023488 -0.118162,2.009044 -0.06499,-0.01446 -0.680061,-0.464174 -1.366824,-0.99941 z M 37.922998,47.198991 c -0.396611,-0.766961 -0.72111,-1.48371 -0.72111,-1.592776 0,-0.109066 1.251384,-0.444497 2.780854,-0.745402 3.086019,-0.607137 5.006258,-2.032206 5.797754,-4.302695 l 0.494186,-1.417623 h 4.207602 c 2.314177,0 4.207597,0.195296 4.207597,0.433992 0,0.238695 0.129099,0.770424 0.286893,1.181621 0.244775,0.637876 -0.19898,0.747629 -3.022823,0.747629 h -3.309714 l -0.928125,1.875908 -0.928125,1.875907 1.601824,0.52865 c 1.168304,0.385575 2.004409,0.388308 3.089346,0.0101 0.903878,-0.315094 2.706446,-0.39421 4.594199,-0.201644 2.957338,0.301674 3.072783,0.275895 2.401419,-0.536237 -0.643223,-0.778093 -0.622431,-0.829395 0.236324,-0.583171 0.517876,0.148486 1.845531,0.410553 2.950347,0.582371 2.137038,0.332346 2.246981,0.486482 1.586374,2.224014 -0.409654,1.077476 -0.534263,1.101059 -4.135674,0.782709 -2.20905,-0.195271 -4.413436,-0.129222 -5.441635,0.163047 -1.208822,0.343611 -2.164834,0.339127 -3.180447,-0.01492 -0.986881,-0.344031 -2.78025,-0.366458 -5.597704,-0.07 -6.08455,0.640216 -6.156459,0.630503 -6.969362,-0.941478 z M 14.73999,42.602092 C 13.722292,41.048888 11.197016,26.769709 11.062089,21.80539 c -0.08623,-3.172628 -0.0017,-3.486596 1.306127,-4.855196 1.362864,-1.426121 2.95797,-2.071506 6.465989,-2.616158 1.339433,-0.207959 1.848271,-0.576996 2.300308,-1.66831 0.808966,-1.953016 3.836997,-4.5606954 5.990141,-5.1585895 2.351002,-0.6528363 3.763006,-0.6100607 5.982103,0.1812228 1.694964,0.6043889 1.92231,0.5722724 3.492658,-0.4933939 1.655491,-1.1234467 1.837126,-1.1398637 12.611247,-1.1398637 10.803117,0 10.951463,0.013523 12.624927,1.1506698 1.638374,1.1133046 1.760885,1.1271768 3.772746,0.4272057 3.822786,-1.3300342 8.665499,0.056637 11.758171,3.3668548 l 1.171119,1.253499 -2.116416,-1.171057 C 73.572093,9.5057972 70.618943,9.140102 67.773197,10.011371 65.566983,10.686838 65.441353,10.672042 63.773679,9.5403274 L 62.05192,8.3719121 50.926687,8.5132902 C 40.350146,8.6476958 39.729777,8.7057976 38.34813,9.6913651 36.959585,10.681853 36.801581,10.69587 34.803267,10.005835 c -3.854311,-1.3309274 -8.494823,0.292269 -10.689733,3.739142 -1.560824,2.451108 -2.399711,3.180254 -3.662842,3.183676 -3.461335,0.0094 -6.957439,2.387174 -7.500227,5.101114 -0.149194,0.745971 0.450105,5.904288 1.331775,11.462926 0.881671,5.558639 1.536174,10.17348 1.454452,10.255202 -0.08172,0.08172 -0.530238,-0.433889 -0.996702,-1.145803 z M 82.700249,17.344065 c -0.939715,-0.271442 -1.800861,-0.965471 -2.23169,-1.798606 l -0.701533,-1.356612 1.764775,0.852647 c 1.700674,0.821676 4.003403,2.874596 3.126352,2.787192 -0.235261,-0.02344 -1.116315,-0.241524 -1.957904,-0.484621 z M 70.523605,15.303619 67.687714,14.729552 69.457041,14.35782 c 2.011185,-0.422546 3.478234,-0.156731 4.847752,0.878368 l 0.945297,0.714468 -0.945297,-0.03648 C 73.78488,15.894104 72.083345,15.619357 70.523605,15.30362 Z M 28.991471,15.060625 c 0.736023,-0.789639 4.429229,-1.256651 4.429229,-0.560084 0,0.294185 -0.398797,0.534882 -0.886216,0.534882 -0.487419,0 -1.604051,0.134472 -2.481404,0.298826 -1.236473,0.231627 -1.475201,0.170096 -1.061609,-0.273624 z"
         id="path8985" />
      <path
         style="fill:#8c8c8c;fill-opacity:1;stroke-width:0.472648"
         d="m 12.830758,97.683855 -1.388212,-1.482996 1.287297,0.820201 c 0.708014,0.45111 2.196857,1.10423 3.30854,1.451381 l 2.021242,0.631174 -1.920328,0.03162 c -1.564426,0.02576 -2.17761,-0.24323 -3.308539,-1.451376 z m 12.167477,0.73641 c 3.027274,-0.931595 7.037216,-4.664899 8.45289,-7.869744 0.768569,-1.739909 1.116134,-3.459021 1.152799,-5.701922 0.04997,-3.056755 0.122493,-3.253585 1.509667,-4.097172 2.436022,-1.481437 3.437066,-1.407245 4.162556,0.308493 0.543804,1.286057 0.539879,1.470466 -0.02667,1.253062 -0.365369,-0.140207 -1.211252,0.1435 -1.879739,0.630461 -1.094719,0.797447 -1.227199,1.236302 -1.33391,4.418719 -0.143064,4.266527 -1.2477,6.961096 -4.015835,9.795933 l -1.961489,2.008756 -4.136199,-0.03292 -4.1362,-0.03292 z m 61.835117,-4.444403 c -0.525788,-1.269364 -0.466102,-1.479962 0.70488,-2.4872 1.246241,-1.071971 1.260955,-1.144343 0.569191,-2.79996 l -0.710111,-1.69954 2.359811,-0.226748 c 3.989743,-0.383365 4.759272,-1.55507 7.719843,-11.75446 l 2.522491,-8.690172 0.03233,4.655956 c 0.0268,3.861708 -0.216342,5.514579 -1.425415,9.689294 -1.583774,5.468491 -2.775586,7.240852 -5.466198,8.128835 -0.862886,0.284776 -1.997611,0.381706 -2.521604,0.215396 -1.162091,-0.368832 -1.215108,0.246155 -0.19181,2.224992 0.733763,1.418948 0.72112,1.502881 -0.354486,2.353218 -2.329467,1.841589 -2.623171,1.876986 -3.238937,0.390389 z M 6.8073686,91.232718 C 5.5274697,89.81845 4.0549031,86.00007 3.7927589,83.415808 3.6124224,81.638021 3.8220382,80.150331 4.5601219,77.969654 L 5.5755964,74.969428 3.9007486,69.129029 c -1.0305792,-3.593754 -1.6748479,-6.866845 -1.6748479,-8.50876 0,-2.386728 0.1621309,-2.82717 1.5361075,-4.172966 1.261483,-1.235607 2.6979807,-1.8294 8.0350238,-3.321371 l 6.498917,-1.816776 V 49.20768 c 0,-1.746383 0.139763,-2.074827 0.827135,-1.943769 0.670659,0.127871 0.85329,0.747884 0.965393,3.277423 l 0.138258,3.119721 -6.50019,1.834145 c -7.2149425,2.035825 -8.8122276,3.010497 -9.6799746,5.906778 -0.5086105,1.697588 -0.373043,2.533382 1.4866003,9.165112 l 2.0462467,7.297182 -0.7861645,2.43422 c -1.0091192,3.124557 -0.9756418,6.178022 0.1019323,9.297227 0.4714804,1.364773 0.8165388,2.481405 0.7667973,2.481405 -0.049741,0 -0.4343181,-0.379981 -0.8546139,-0.844406 z M 50.381724,90.9524 c -1.652915,-0.590688 -4.672164,-2.491614 -4.672164,-2.941603 0,-0.121424 0.422343,0.0052 0.93854,0.281523 3.212963,1.719524 8.847377,1.356728 11.911921,-0.766999 1.916358,-1.328039 4.371512,-4.80425 4.897891,-6.93485 0.295864,-1.197545 0.468556,-1.293681 1.798962,-1.001471 0.809424,0.177777 2.001004,0.66755 2.647956,1.088382 l 1.176276,0.765151 -1.469507,0.144059 c -1.266948,0.124198 -1.585353,0.447399 -2.309956,2.344738 -1.085272,2.841747 -4.7156,6.490068 -7.123276,7.158587 -2.427782,0.674096 -5.686344,0.616622 -7.796643,-0.137517 z M 82.09395,88.620769 C 81.158536,86.506111 81.01858,86.40495 77.716218,85.4565 c -4.966855,-1.426495 -7.283527,-2.323955 -7.892222,-3.057388 -0.602339,-0.725775 1.031886,-0.404672 8.367125,1.644023 l 3.886334,1.085428 0.749965,2.579786 c 0.948242,3.261837 0.533828,3.777355 -0.73347,0.91242 z M 48.259606,83.616376 c -1.514459,-0.923494 -3.8189,-4.134753 -3.323011,-4.630641 0.372137,-0.37214 13.442582,-0.392213 13.813578,-0.02122 0.522531,0.522536 -1.895656,4.210716 -3.2046,4.887596 -1.846027,0.954618 -5.529311,0.835444 -7.285967,-0.235738 z m 5.239953,-2.087244 c 0.924476,-0.521804 0.918478,-0.543806 -0.193791,-0.710944 -1.653315,-0.248438 -6.178262,0.382746 -6.178262,0.861809 0,1.01073 4.502955,0.904119 6.372053,-0.150865 z m 37.055243,-25.98307 -6.437123,-1.908191 -0.247601,-3.968796 c -0.176983,-2.836814 -0.06336,-4.338114 0.398353,-5.263654 0.861628,-1.727172 3.614333,-19.151752 3.421256,-21.656489 -0.141818,-1.839763 -0.09653,-1.925311 0.657823,-1.242631 1.893382,1.713488 1.943304,3.361747 0.401392,13.252738 -0.801177,5.139346 -1.785605,10.23416 -2.187625,11.321809 -0.402016,1.087649 -0.665541,2.992364 -0.585607,4.232702 l 0.145335,2.255157 4.444739,1.286238 c 2.950186,0.853735 4.853717,1.695215 5.661038,2.502536 0.668968,0.668968 1.114789,1.189411 0.990719,1.156538 -0.124071,-0.03285 -3.122283,-0.918455 -6.662699,-1.967957 z m -65.549649,-5.881902 0.144199,-2.244698 3.304889,-0.596764 c 3.21385,-0.580326 3.327484,-0.567411 4.125164,0.468839 0.451152,0.586082 0.825005,1.200615 0.830785,1.365631 0.0058,0.165011 -1.150559,0.445088 -2.569642,0.622393 -1.51307,0.189045 -3.283111,0.799409 -4.279873,1.475831 l -1.699721,1.15346 z m 52.746193,1.081032 C 76.7833,49.89286 75.689161,49.544821 73.261185,49.3169 71.495559,49.151156 69.627747,48.973753 69.11049,48.922669 68.08732,48.821621 67.693783,47.770427 68.3174,46.80422 c 0.316982,-0.491116 1.336423,-0.454235 5.316705,0.192347 2.708488,0.439984 5.018751,0.87854 5.133922,0.974569 0.184753,0.154052 0.507114,3.95381 0.332215,3.915932 -0.03791,-0.0082 -0.644934,-0.522059 -1.348896,-1.141876 z M 37.949392,47.110748 c -0.411127,-0.824124 -0.747504,-1.552118 -0.747504,-1.617763 0,-0.06564 1.033153,-0.26145 2.295896,-0.435122 3.128119,-0.430226 5.191052,-1.788731 6.13702,-4.041416 l 0.783729,-1.866338 4.135674,-0.0048 c 4.097569,-0.0048 4.135674,0.0061 4.135674,1.176814 0,1.14786 -0.09453,1.181621 -3.308539,1.181621 -2.659525,0 -3.308539,0.142336 -3.308539,0.725602 0,0.399081 -0.34208,1.247681 -0.760177,1.885779 -0.710137,1.083805 -0.702359,1.182482 0.118162,1.499016 0.483086,0.186361 1.62276,0.310884 2.532609,0.276716 0.909848,-0.03417 3.317859,-0.0738 5.351132,-0.08808 2.695793,-0.01893 3.604379,-0.175606 3.355322,-0.578587 -0.253794,-0.410651 0.312094,-0.465919 2.202674,-0.215125 1.399318,0.185626 2.607195,0.400482 2.684171,0.477458 0.07697,0.07698 -0.07432,0.703553 -0.336224,1.392392 -0.472894,1.243815 -0.50959,1.252352 -5.330515,1.240183 -4.843668,-0.01223 -6.010666,-0.03221 -9.58083,-0.16408 -1.039827,-0.03841 -3.627962,0.09306 -5.751412,0.292157 l -3.860818,0.361988 z M 14.36167,41.503737 C 13.946579,40.593889 12.945924,35.536484 12.137993,30.26506 10.925806,22.356035 10.762804,20.396505 11.205499,19.055126 c 0.75204,-2.278705 2.865254,-3.901529 5.556589,-4.267134 3.327445,-0.452018 3.819238,-0.653238 4.150957,-1.698396 0.423242,-1.333514 2.956155,-4.1247209 4.424631,-4.8758307 2.12653,-1.0876984 4.851539,-1.2963987 7.288569,-0.5582097 2.202071,0.6670181 2.334976,0.6511182 3.999518,-0.4784705 L 38.34752,6.0086697 49.553785,6.1500478 c 10.966768,0.1383565 11.231111,0.1647383 12.368776,1.2343905 1.151036,1.0822251 1.18872,1.0853928 3.818262,0.3209647 3.653838,-1.0621999 7.249043,-0.3424669 9.683679,1.9385989 l 1.716182,1.6079321 -1.503646,-0.726247 c -2.351653,-1.1358239 -5.763405,-1.3427584 -8.120224,-0.492519 -2.019556,0.728571 -2.09,0.719712 -3.462963,-0.4355622 L 62.652377,8.4183441 H 51.411034 c -11.101524,0 -11.262234,0.014179 -12.921025,1.1398636 -1.570348,1.0656663 -1.797694,1.0977833 -3.492658,0.4933943 -2.251655,-0.802893 -3.809449,-0.8426555 -5.878119,-0.1500383 -2.366827,0.7924443 -4.48113,2.5264333 -5.678715,4.6572483 -0.841125,1.496581 -1.405056,1.942042 -2.747,2.169917 -5.059308,0.859118 -7.148102,2.277982 -7.813497,5.307507 -0.163283,0.743421 0.36591,5.54081 1.175983,10.660865 0.810074,5.120055 1.380052,9.568326 1.266619,9.885048 -0.113433,0.316722 -0.545861,-0.168563 -0.960952,-1.078412 z M 83.046162,17.330186 C 82.010253,17.052951 81.10291,16.387818 80.625237,15.555517 l -0.764031,-1.331241 2.021049,1.129585 c 1.610512,0.900131 3.777639,2.685274 2.996838,2.468603 -0.09682,-0.02687 -0.921637,-0.248392 -1.832931,-0.492278 z M 70.996254,15.301724 c -2.598485,-0.527746 -2.723495,-0.607758 -1.493291,-0.955766 1.407878,-0.398269 4.772734,0.350271 5.282532,1.175141 0.34208,0.5535 -0.113733,0.527112 -3.789241,-0.219375 z M 29.639512,14.845468 c 1.34507,-0.821695 3.308539,-0.989462 3.308539,-0.282694 0,0.259957 -0.478556,0.475553 -1.063459,0.479103 -0.584902,0.0035 -1.595188,0.123225 -2.24508,0.265945 l -1.181621,0.259492 z"
         id="path8983" />
      <path
         style="fill:#767676;fill-opacity:1;stroke-width:0.472648"
         d="m 13.241334,97.960104 -1.32614,-1.206747 1.65121,0.805757 c 0.908165,0.443169 2.184316,0.967922 2.835891,1.166123 1.121896,0.341266 1.104668,0.362516 -0.32507,0.40099 -0.998032,0.02685 -1.959235,-0.368392 -2.835891,-1.166123 z m 11.814438,0.524271 c 5.990632,-2.136811 10.083135,-8.175802 9.69155,-14.301067 -0.134533,-2.104382 -0.03259,-2.344903 1.412097,-3.331585 2.240713,-1.530351 3.546073,-1.394734 4.238751,0.44038 0.383313,1.015514 0.397568,1.333772 0.0439,0.980103 -0.38322,-0.383218 -0.919854,-0.263846 -2.000122,0.444914 -1.435756,0.941998 -1.476971,1.067854 -1.497734,4.573521 -0.02534,4.278504 -1.158998,7.03724 -4.100666,9.978909 l -1.897302,1.897301 -3.843744,-0.02075 c -3.813394,-0.02056 -3.829555,-0.02581 -2.04673,-0.661732 z m 61.694541,-4.739076 c -0.460256,-1.010149 -0.379164,-1.295033 0.600944,-2.111193 0.623144,-0.518916 1.297973,-0.950553 1.499614,-0.959203 0.201641,-0.0086 0.04211,-0.643236 -0.354486,-1.410198 -1.07235,-2.073693 -0.911678,-2.386714 1.22509,-2.386714 1.622499,0 2.23748,-0.294796 3.697501,-1.772432 1.582541,-1.601631 1.975713,-2.569402 4.080067,-10.042816 l 2.328767,-8.270384 0.137598,4.205716 c 0.117582,3.593943 -0.08414,4.968845 -1.386807,9.452005 -1.904764,6.555285 -3.333089,8.318505 -6.73855,8.318505 -2.378348,0 -2.542787,0.279439 -1.430357,2.430637 0.409101,0.791119 0.674966,1.485402 0.590811,1.542852 -0.08416,0.05745 -0.766603,0.569409 -1.51654,1.137698 -1.734507,1.314365 -2.081289,1.297307 -2.733652,-0.134473 z M 5.815833,89.5971 C 3.5745207,85.772589 3.2891679,81.725976 4.9223363,76.926339 5.6384642,74.821749 5.616408,74.639094 3.9404102,68.794687 2.9707317,65.413298 2.2259007,61.764178 2.2259007,60.394849 c 0,-3.296094 1.4568235,-4.739284 6.182312,-6.124451 1.9288393,-0.565396 4.9426513,-1.456646 6.6973593,-1.980553 l 3.190377,-0.952562 v -2.115541 c 0,-1.759775 0.139096,-2.089016 0.827135,-1.957831 0.669751,0.127698 0.85333,0.746401 0.964804,3.251621 l 0.13767,3.09391 -6.420011,1.811519 c -6.6793621,1.8847 -8.287676,2.735751 -9.4621714,5.006978 -1.0314185,1.994544 -0.8939495,3.164387 1.2379711,10.534976 l 1.9375008,6.69843 -0.7558796,2.404784 C 5.8404577,83.00104 5.8205245,86.946667 6.7155131,89.459464 7.6308515,92.029396 7.2733085,92.084095 5.815833,89.5971 Z m 44.383888,1.250022 c -1.039827,-0.37991 -2.282228,-1.081504 -2.760893,-1.559097 -0.84466,-0.84277 -0.791967,-0.848399 1.78873,-0.19112 5.578685,1.420838 10.648463,-1.005895 13.261023,-6.347603 1.260615,-2.577489 1.575276,-2.901433 2.835891,-2.919592 0.77987,-0.01125 1.949675,0.395498 2.599567,0.903851 l 1.181621,0.924278 -1.434148,0.01049 c -1.286389,0.0095 -1.574331,0.305694 -2.794799,2.875541 -2.839024,5.977935 -8.689902,8.490671 -14.676992,6.303235 z m 32.285464,-1.683044 c -0.351528,-0.607457 -0.853811,-1.503774 -1.116188,-1.991816 -0.31856,-0.59255 -2.17994,-1.403138 -5.602818,-2.439883 -7.17875,-2.174358 -8.372561,-3.521056 -1.43713,-1.621179 2.846181,0.779676 5.725489,1.540508 6.398465,1.690739 0.973055,0.217215 1.381518,0.767004 1.994917,2.685154 0.851008,2.661176 0.74911,3.381469 -0.237246,1.676985 z M 48.064359,83.386574 c -1.94321,-1.332018 -3.573934,-3.845931 -2.803609,-4.322016 0.590809,-0.365139 13.153242,-0.436216 13.513003,-0.07646 0.435465,0.435465 -1.188659,3.029454 -2.685215,4.288722 -2.010037,1.691335 -5.644378,1.741043 -8.024179,0.109749 z m 4.456085,-1.423168 c 2.385291,-0.996636 2.609771,-1.772479 0.431788,-1.49234 -0.993966,0.127851 -2.84316,0.362436 -4.109313,0.521307 -2.23515,0.280456 -2.462097,0.830935 -0.533792,1.29475 1.717798,0.413185 2.61221,0.344433 4.211317,-0.323717 z M 90.020355,55.292113 83.994087,53.559766 v -4.168495 c 0,-2.292669 0.211132,-4.562994 0.469179,-5.045165 0.611167,-1.141973 3.378349,-18.519136 3.385373,-21.259236 l 0.0054,-2.110495 0.871526,1.155409 c 0.479337,0.635475 0.977636,1.691543 1.107326,2.346819 0.288759,1.458962 -2.742444,20.854404 -3.472364,22.218271 -0.288354,0.53879 -0.460209,2.080006 -0.381905,3.424928 l 0.142371,2.445308 4.490161,1.361393 c 2.469588,0.74877 4.909636,1.768925 5.422327,2.267016 1.194453,1.160432 1.135443,1.151565 -6.013138,-0.903406 z M 78.088382,50.959358 c -1.006704,-1.112392 -3.508063,-1.884378 -6.146831,-1.897064 -3.115784,-0.01498 -4.091709,-0.430583 -3.735729,-1.590881 0.169563,-0.552676 0.336828,-1.042095 0.371696,-1.087595 0.03488,-0.0455 2.330383,0.267413 5.101143,0.695366 l 5.037738,0.778094 0.160847,2.022362 c 0.08846,1.112303 0.139101,2.022364 0.112528,2.022364 -0.02656,0 -0.432199,-0.424188 -0.901392,-0.942646 z M 25.385676,49.316286 v -1.984505 l 3.075465,-0.45962 c 2.843956,-0.425022 3.14638,-0.384136 4.017512,0.543142 1.322207,1.407424 1.194169,1.65081 -0.868443,1.65081 -0.99577,0 -2.80365,0.502803 -4.017512,1.117336 l -2.207022,1.117336 z m 12.732309,-2.027149 c -0.357192,-0.712382 -0.717665,-1.426265 -0.801051,-1.586409 -0.08339,-0.160143 0.866903,-0.426967 2.111752,-0.592942 3.113446,-0.415113 5.259195,-1.835371 6.206118,-4.107788 l 0.783729,-1.880785 4.012195,0.127803 c 3.385141,0.107829 4.036904,0.257072 4.170328,0.954938 0.137541,0.719411 -0.243612,0.827135 -2.926615,0.827135 h -3.084755 l -0.973147,2.19996 c -0.535231,1.209978 -0.917395,2.224542 -0.849252,2.254587 1.904403,0.839679 3.457839,1.110421 4.173542,0.727388 0.468059,-0.250498 2.472741,-0.45545 4.454849,-0.45545 2.387952,0 3.500737,-0.166807 3.298264,-0.494413 -0.207162,-0.335193 0.506854,-0.390679 2.217184,-0.172296 1.387517,0.177165 2.581876,0.370153 2.654139,0.428862 0.07226,0.05871 -0.08058,0.664262 -0.339655,1.345673 -0.464958,1.222934 -0.530727,1.238595 -5.094196,1.213078 -6.682791,-0.03737 -7.123587,-0.04068 -10.767584,-0.08089 -1.819697,-0.02008 -4.498309,0.10373 -5.952472,0.275139 -2.54283,0.299735 -2.668766,0.262123 -3.293373,-0.983586 z M 14.503253,41.954884 C 14.194844,41.378615 13.228374,36.415315 12.355542,30.925326 10.662551,20.276662 10.693023,18.437354 12.590886,16.719811 c 1.18088,-1.068681 4.112172,-2.109823 6.014637,-2.136291 1.256848,-0.01749 1.685607,-0.352484 2.728267,-2.131648 2.714857,-4.6325536 7.758934,-6.3396578 12.660944,-4.2849362 0.519416,0.2177174 1.367891,-0.057989 2.363243,-0.7679205 1.504706,-1.0732268 1.89069,-1.1119873 12.44124,-1.2493428 l 10.888355,-0.1417537 1.805455,1.2252134 c 1.634102,1.1089335 1.964805,1.172622 3.484516,0.6710715 3.703423,-1.2222387 9.028229,-0.18516 10.952206,2.1330913 0.559308,0.673922 0.430436,0.677123 -1.390825,0.03455 -2.470222,-0.8715449 -4.852994,-0.8734525 -7.288135,-0.0058 -1.759732,0.626975 -1.925235,0.601668 -3.226644,-0.4933939 -1.370402,-1.153121 -1.38296,-1.15427 -12.613111,-1.15427 -11.097533,0 -11.262803,0.014562 -12.91887,1.1384013 C 36.86655,10.659917 36.75115,10.672326 34.763181,9.9577417 30.638355,8.4750539 25.478473,10.58973 23.272186,14.667103 c -0.845357,1.562277 -1.196392,1.768706 -3.781188,2.223554 -3.302854,0.581204 -4.845506,1.568537 -6.137597,3.928201 l -0.925036,1.689335 1.556912,10.00813 c 0.856301,5.504472 1.449318,10.115724 1.317816,10.247226 -0.131502,0.131502 -0.49143,-0.232397 -0.79984,-0.808665 z M 82.286412,17.073587 c -0.549288,-0.10799 -1.242744,-0.731949 -1.541009,-1.386576 l -0.542307,-1.190231 1.895495,1.065328 c 1.663704,0.935054 2.551125,1.955604 1.541009,1.772191 -0.194967,-0.0354 -0.803904,-0.152722 -1.353188,-0.260712 z M 71.232578,15.29443 c -3.013857,-0.560039 -3.04,-0.577626 -1.376192,-0.925861 1.159653,-0.242715 2.24336,-0.126288 3.426702,0.368144 1.530204,0.63936 2.348254,1.344536 1.376191,1.186303 -0.194967,-0.03174 -1.736983,-0.3146 -3.426701,-0.628586 z M 29.875836,14.775882 c 1.604139,-0.727569 3.510286,-0.913736 2.812259,-0.274664 -0.246959,0.226101 -1.299783,0.525098 -2.33961,0.664438 l -1.890594,0.253346 z"
         id="path8981" />
      <path
         style="fill:#606060;fill-opacity:1;stroke-width:0.472648"
         d="m 13.569464,98.208159 -1.181621,-0.937668 1.65427,0.650459 c 0.909848,0.357752 1.973307,0.767642 2.363242,0.910864 0.425717,0.156366 0.23688,0.271116 -0.472649,0.287214 -0.649891,0.01475 -1.71335,-0.395148 -2.363242,-0.910869 z m 12.17243,0.105855 c 2.888376,-1.151382 5.821242,-3.814604 7.404685,-6.723912 1.068135,-1.962517 1.420423,-3.314802 1.588686,-6.098309 0.190098,-3.1447 0.366356,-3.702983 1.459577,-4.623074 1.544002,-1.299481 3.181731,-1.370633 3.826307,-0.16623 0.655406,1.224637 0.616971,1.468348 -0.18315,1.161316 -0.369836,-0.141922 -1.153765,0.223298 -1.742065,0.811599 -0.89728,0.89728 -1.077235,1.607661 -1.116785,4.408543 -0.05776,4.090333 -1.340031,7.201471 -4.15212,10.074148 l -1.96639,2.008756 -3.564616,-0.02571 -3.564617,-0.02571 2.010488,-0.801428 z m 61.037567,-4.440689 c -0.489078,-0.913851 -0.381418,-1.185795 0.889463,-2.246777 1.347034,-1.124549 1.401247,-1.287759 0.792872,-2.387012 -1.050333,-1.897811 -0.848049,-2.361545 1.030123,-2.361545 2.120595,0 4.537327,-1.436237 5.348869,-3.178769 0.335911,-0.721267 1.633355,-4.820807 2.883207,-9.110092 l 2.272461,-7.798699 0.03384,3.995973 c 0.0264,3.11973 -0.289489,5.137415 -1.44062,9.20135 -0.810951,2.862964 -1.799647,5.701691 -2.197106,6.308293 -0.96754,1.476648 -3.001162,2.472538 -5.048968,2.472538 -1.859069,0 -2.045689,0.465109 -0.994883,2.47949 0.648398,1.242961 0.611395,1.347932 -0.874659,2.481404 -1.890424,1.4419 -1.996869,1.447581 -2.694607,0.143846 z M 6.2650568,90.389551 C 4.0416756,86.996247 3.4885504,81.627093 4.9008097,77.146891 L 5.6851248,74.658756 3.9555128,68.583872 C 1.6110508,60.349456 1.7224172,57.686484 4.4869991,55.875058 5.3415409,55.315145 17.720502,51.429355 18.64969,51.429355 c 0.0654,0 0.118907,-0.974837 0.118907,-2.166304 0,-1.522063 0.175703,-2.10825 0.590811,-1.971089 0.370721,0.122495 0.641502,1.325655 0.726885,3.229766 l 0.136075,3.034545 -5.807856,1.608064 c -6.5795354,1.821729 -7.7214777,2.310896 -9.2733026,3.97235 -1.8970907,2.031117 -1.8253503,4.198953 0.3920987,11.848329 1.9693872,6.79366 1.9882482,6.927944 1.2368323,8.805918 -0.9501328,2.374614 -0.987436,7.277534 -0.075045,9.863521 0.7951876,2.253806 0.6866363,2.439358 -0.4300386,0.735096 z m 45.1132272,0.77331 c -1.604178,-0.487967 -4.130279,-1.816927 -4.456278,-2.344403 -0.145994,-0.23622 0.744459,-0.118048 1.978784,0.262609 5.784804,1.783992 11.699929,-1.248374 14.174031,-7.266257 0.703722,-1.711706 1.038428,-2.023276 2.1751,-2.024774 0.738868,-9.45e-4 1.908673,0.453809 2.599567,1.010626 l 1.256172,1.012404 -1.417946,-0.264036 c -1.360925,-0.25342 -1.479862,-0.133428 -2.957607,2.983769 -1.642756,3.465269 -3.540123,5.300875 -6.612565,6.397325 -1.943795,0.693669 -4.889529,0.795401 -6.739258,0.232737 z m 30.63646,-2.979255 c -1.056242,-1.914755 -1.295903,-2.059036 -5.44458,-3.277836 -4.490543,-1.319228 -6.536369,-2.185677 -6.127098,-2.594948 0.270964,-0.27097 10.771663,2.604912 11.297584,3.094127 0.370055,0.34423 1.793271,4.781581 1.533621,4.781581 -0.08506,0 -0.651848,-0.901312 -1.259527,-2.002924 z M 48.629218,83.719319 c -0.863777,-0.425649 -2.086269,-1.532922 -2.71665,-2.460608 l -1.146145,-1.686708 1.062379,-0.406222 c 1.213939,-0.464174 11.903338,-0.543173 12.631174,-0.09335 0.691726,0.427515 -0.595892,2.710369 -2.371438,4.204392 -1.755582,1.477225 -4.972281,1.668043 -7.45932,0.442494 z m 4.453124,-1.857991 c 2.541601,-1.206066 1.899215,-1.611528 -2.055486,-1.297377 -4.030803,0.320195 -5.160869,0.834824 -3.388661,1.543187 1.725997,0.689892 3.655929,0.602755 5.444147,-0.24581 z m 36.941756,-26.588982 -6.022525,-1.716073 -0.0038,-4.166746 c -0.0019,-2.291711 0.226498,-4.596954 0.507899,-5.122762 0.717111,-1.339933 3.729385,-20.873539 3.426347,-22.218736 -0.220004,-0.976614 -0.134398,-0.940322 0.739373,0.313445 0.602121,0.863977 0.987831,2.15657 0.987268,3.308539 -0.0014,2.752891 -2.730405,19.448722 -3.423265,20.94285 -0.324327,0.699396 -0.523865,2.291973 -0.44342,3.539056 0.165446,2.564727 0.112916,2.526268 5.602539,4.101733 1.860637,0.533979 3.881209,1.386037 4.49016,1.893453 1.420011,1.183247 1.297978,1.165032 -5.860633,-0.874759 z M 25.385676,49.372243 v -2.121484 l 3.157661,-0.338157 c 2.960317,-0.317023 3.214804,-0.267681 4.072007,0.789515 l 0.914348,1.127672 -2.679929,0.340718 c -1.482035,0.188426 -3.302169,0.783797 -4.072007,1.33197 l -1.39208,0.991248 z m 52.181063,1.091477 c -0.736708,-0.736708 -1.951297,-1.067325 -5.123259,-1.394587 -2.286697,-0.235922 -4.230601,-0.501926 -4.31979,-0.591114 -0.409635,-0.409636 0.462208,-2.276326 0.971831,-2.080765 0.316032,0.121272 2.62769,0.489102 5.137018,0.817401 l 4.562414,0.596907 v 1.808897 c 0,0.994892 -0.05908,1.808896 -0.131292,1.808896 -0.07221,0 -0.565826,-0.434534 -1.096922,-0.965635 z M 38.117276,47.28758 c -0.356803,-0.711525 -0.71628,-1.422681 -0.79884,-1.580345 -0.08256,-0.157666 0.971059,-0.41945 2.341375,-0.581743 3.053419,-0.361633 4.579013,-1.410742 5.813425,-3.997733 l 0.945297,-1.981086 4.012195,0.115073 c 3.391219,0.09726 4.036668,0.24309 4.170328,0.942208 0.138416,0.723977 -0.254128,0.827135 -3.147503,0.827135 -3.271311,0 -3.308801,0.01439 -3.609902,1.385286 -0.167342,0.761908 -0.609625,1.638718 -0.982851,1.948467 -0.373225,0.30975 -0.678591,0.72569 -0.678591,0.924311 0,0.462448 2.71421,1.027357 4.253836,0.885352 0.649892,-0.05994 2.938701,-0.125099 5.086246,-0.144796 2.987332,-0.0274 3.849542,-0.179325 3.670153,-0.646702 -0.177361,-0.462104 0.195483,-0.539472 1.530833,-0.31766 2.864495,0.475813 2.969986,0.548355 2.52675,1.737577 -0.379938,1.019404 -0.671482,1.085768 -5.07244,1.154648 -2.56813,0.04019 -5.307402,0.07094 -6.087272,0.06833 -6.937041,-0.02324 -10.178598,0.05647 -11.624963,0.285853 -1.504932,0.238674 -1.773562,0.121505 -2.348076,-1.024174 z M 14.629371,41.984265 c -0.633191,-1.0139 -3.423149,-17.964725 -3.423149,-20.797877 0,-3.837553 2.050688,-5.818497 6.617078,-6.392032 2.516428,-0.316061 2.644916,-0.404014 4.017512,-2.7501 1.865099,-3.1878845 4.240281,-4.5529386 7.940334,-4.5634338 1.50766,-0.00425 3.347319,0.3056613 4.088131,0.68875 1.206161,0.6237301 1.413647,0.6160779 1.985285,-0.073215 1.448052,-1.7460935 3.390212,-2.0412554 13.431412,-2.0412554 8.013598,0 10.03902,0.1365761 11.366372,0.7664459 0.888339,0.4215452 1.697768,0.9001018 1.798735,1.063459 C 62.552044,8.0483639 58.602877,8.105706 53.675157,8.0124341 42.87771,7.8080594 39.985319,8.1022552 38.267841,9.5795672 37.078202,10.602852 36.889215,10.629336 35.151624,10.016279 32.73574,9.1639055 30.497573,9.1902273 28.324548,10.096568 c -2.108982,0.87963 -4.567221,3.164664 -5.295163,4.922073 -0.448477,1.082719 -0.965106,1.358167 -3.394893,1.810033 -3.361205,0.625081 -4.822132,1.477207 -6.085826,3.549725 -1.199991,1.968042 -1.180606,2.464749 0.512588,13.134243 0.790398,4.980612 1.367249,9.125497 1.281891,9.210854 -0.08536,0.08536 -0.406556,-0.247296 -0.713774,-0.739231 z M 82.286412,17.073587 c -0.549288,-0.10799 -1.225024,-0.693059 -1.501632,-1.300154 -0.493757,-1.083671 -0.478599,-1.091671 0.830802,-0.438455 1.340904,0.66893 2.851295,2.119419 2.081889,1.999321 -0.226795,-0.0354 -0.861775,-0.152722 -1.411059,-0.260712 z m -12.47178,-1.996675 c -1.62799,-0.301847 -1.634357,-0.31208 -0.400654,-0.64417 1.390106,-0.374193 4.060234,0.02354 4.455898,0.663729 0.282814,0.457602 -1.528834,0.448865 -4.055244,-0.01956 z M 30.348485,14.562774 c 1.305787,-0.561116 2.126918,-0.561116 2.126918,0 0,0.259957 -0.691248,0.4577 -1.536108,0.439429 -1.28727,-0.02784 -1.382977,-0.09902 -0.59081,-0.439429 z M 64.255941,9.6681803 63.187415,8.6119097 64.762148,8.0424784 c 3.594331,-1.2997265 9.254778,-0.3099978 11.126674,1.9454982 0.503858,0.6071154 0.352847,0.6139974 -1.213241,0.05529 -2.31697,-0.8265846 -5.09119,-0.8106039 -7.460515,0.04297 -1.039827,0.37461 -1.890594,0.671457 -1.890594,0.659659 0,-0.0118 -0.48084,-0.496773 -1.068531,-1.0777225 z"
         id="path8979" />
      <path
         style="fill:#494949;fill-opacity:1;stroke-width:0.472648"
         d="m 13.569464,98.182594 -1.181621,-0.963239 1.417945,0.672574 c 0.77987,0.369914 1.736983,0.791313 2.126918,0.936435 0.506719,0.188587 0.439301,0.271503 -0.236324,0.290664 -0.519913,0.01475 -1.477026,-0.406652 -2.126918,-0.936434 z m 13.130868,-0.234415 c 3.051783,-1.52077 6.396889,-5.182487 7.385844,-8.084912 0.413858,-1.214603 0.752469,-3.512984 0.752469,-5.107506 0,-2.664381 0.113265,-2.982875 1.398807,-3.933314 1.742215,-1.288076 3.14103,-1.320793 3.800327,-0.08889 0.467485,0.873506 0.352087,0.950184 -1.519478,1.009662 -1.159483,0.03687 -1.554278,0.154093 -0.923443,0.27424 1.036829,0.197472 1.0514,0.246831 0.246586,0.835326 -0.686253,0.501801 -0.861987,1.31936 -0.888896,4.135352 -0.04063,4.251814 -1.585118,7.855437 -4.492583,10.482157 -1.760999,1.590959 -2.074787,1.696553 -5.041534,1.696553 h -3.163656 z m 60.079129,-4.074854 c -0.489078,-0.913851 -0.381418,-1.185795 0.889463,-2.246777 1.347034,-1.124549 1.401247,-1.287759 0.792872,-2.387012 -0.988331,-1.785779 -0.833028,-2.170047 0.89687,-2.21908 1.984906,-0.05626 4.204104,-1.180614 5.131209,-2.599713 0.390804,-0.598188 1.75171,-4.703377 3.024241,-9.12264 l 2.313694,-8.035024 0.139314,3.448656 c 0.110406,2.733284 -0.170192,4.5471 -1.352725,8.743997 -0.820622,2.912436 -1.831078,5.876807 -2.245463,6.587486 -1.019687,1.74879 -3.553059,2.891966 -5.754486,2.596693 l -1.755676,-0.235488 0.876195,1.813519 c 1.137547,2.354456 1.124937,2.442808 -0.522612,3.66089 -1.722586,1.273565 -1.748388,1.273508 -2.432896,-0.0055 z M 51.617666,91.162516 c -1.764784,-0.429633 -4.323419,-1.741757 -4.753551,-2.437727 -0.199105,-0.322157 0.107175,-0.288401 0.797163,0.08786 1.88822,1.029665 7.425557,0.807165 9.686878,-0.389236 2.119076,-1.121141 4.145883,-3.277741 5.243316,-5.57909 0.579037,-1.214248 0.919192,-1.428438 2.013487,-1.267828 l 1.316737,0.193257 -0.744761,1.895982 c -1.23963,3.155784 -4.514011,6.394712 -7.301597,7.222536 -2.573301,0.764188 -3.990117,0.826285 -6.257672,0.27425 z M 5.4732266,88.650422 C 4.0735817,85.909383 3.7510281,81.045603 4.7635929,77.949864 5.8054423,74.764592 5.7756739,74.423916 3.8801704,67.839904 1.9590139,61.166783 1.8301941,59.149624 3.2129306,57.391759 4.5746551,55.660608 5.7519409,55.152894 13.267114,53.055824 c 3.603078,-1.005418 6.314899,-1.906754 6.026268,-2.002962 -0.288632,-0.09621 -0.524785,-1.001296 -0.524785,-2.011303 0,-1.46166 0.148958,-1.779212 0.730004,-1.556243 0.570294,0.218842 0.699552,0.909269 0.590811,3.155803 l -0.139194,2.875679 -6.110598,1.757434 c -7.2168568,2.075598 -8.0428478,2.472486 -9.2666329,4.452614 -1.3379559,2.164857 -1.1543775,4.366501 0.9600997,11.514416 1.8653119,6.305617 1.8715641,6.353657 1.1073139,8.507673 -0.8714157,2.456056 -0.9932536,7.664878 -0.2247955,9.61046 0.7819345,1.979702 0.2113242,1.55042 -0.9423786,-0.708973 z M 82.111556,88.311741 c -1.135784,-2.226316 -1.486319,-2.43465 -6.388818,-3.796993 -3.940035,-1.09489 -5.672297,-1.811302 -5.294107,-2.189492 0.246491,-0.246491 10.762229,2.643396 11.312019,3.108713 0.387085,0.327617 1.79096,4.752561 1.507815,4.752561 -0.09926,0 -0.610865,-0.843654 -1.136909,-1.874789 z m -33.372201,-4.69105 c -0.803201,-0.489787 -2.020222,-1.60562 -2.704493,-2.479637 l -1.244127,-1.589115 1.286548,-0.368817 c 1.571679,-0.450552 10.575763,-0.530836 11.913594,-0.106223 0.940731,0.298572 0.944215,0.344339 0.132365,1.738879 -0.458587,0.787725 -1.435017,1.942245 -2.169844,2.565602 -1.69038,1.433949 -5.071045,1.546099 -7.214043,0.239311 z m 4.311438,-1.68139 c 1.979022,-0.826889 2.046147,-1.30476 0.339305,-2.41555 -0.973888,-0.633789 -1.1502,-0.663159 -0.703202,-0.117137 0.513793,0.627606 0.349807,0.769529 -1.181621,1.022641 -0.978014,0.161646 -2.469451,0.296242 -3.31431,0.299102 -1.683015,0.0057 -2.003259,0.631439 -0.708973,1.38529 1.192846,0.694769 3.674676,0.617066 5.568801,-0.174346 z m 10.619409,-1.442065 c 0,-0.490259 0.492476,-0.708972 1.596399,-0.708972 0.878015,0 1.861171,0.319037 2.184789,0.708972 0.508584,0.612808 0.29205,0.708973 -1.596399,0.708973 -1.626936,0 -2.184789,-0.181024 -2.184789,-0.708973 z M 90.138517,55.2639 84.230411,53.522895 84.092322,49.590048 c -0.09188,-2.616783 0.09816,-4.588247 0.567915,-5.891415 0.906384,-2.514462 3.743551,-20.904772 3.346025,-21.688697 -0.165597,-0.326568 0.04296,-0.168375 0.463461,0.351538 0.420501,0.519913 0.896278,1.469911 1.057276,2.111107 0.447547,1.782403 -2.591352,20.251625 -3.682815,22.382685 -0.508924,0.993666 -0.708009,1.672362 -0.442408,1.508213 0.304262,-0.188045 0.482904,0.578705 0.482904,2.072672 v 2.371121 l 3.190378,0.938254 c 1.754707,0.516038 3.722106,1.067468 4.371998,1.225403 1.198202,0.291185 3.941113,2.140715 3.072215,2.071581 -0.259957,-0.0207 -3.131296,-0.821057 -6.380754,-1.77861 z M 25.385676,49.371647 v -2.086004 l 3.170657,-0.339549 c 2.963998,-0.317417 3.229474,-0.267094 4.07304,0.772073 l 0.902382,1.111622 -2.696807,0.29644 c -1.636145,0.179847 -3.238082,0.696622 -4.073039,1.313934 l -1.376233,1.01749 z m 52.284393,1.049984 c -0.493228,-0.70418 -1.319937,-1.055623 -2.744533,-1.166738 -4.289563,-0.334564 -7.001223,-0.741619 -6.994261,-1.049925 0.0038,-0.176262 0.196503,-0.619431 0.427827,-0.98482 0.359605,-0.568018 1.146669,-0.572096 5.428221,-0.02813 l 5.00763,0.636217 v 1.800559 c 0,2.073693 -0.152467,2.181155 -1.124884,0.792835 z M 38.218948,47.380597 c -0.830633,-1.823041 -0.72572,-1.949837 1.90171,-2.298378 1.960332,-0.260048 2.794018,-0.672386 4.1979,-2.076268 1.26272,-1.26272 2.034218,-1.683953 2.763462,-1.508834 l 1.011686,0.242944 -0.955749,1.87237 c -1.155634,2.263958 -1.150052,2.145143 -0.100789,2.145143 0.470228,0 1.253964,0.291758 1.741634,0.648351 0.753411,0.550909 1.132154,0.545784 2.520016,-0.0341 1.222292,-0.510708 2.537082,-0.597765 5.224495,-0.345935 3.250526,0.3046 3.531989,0.26523 2.967401,-0.41506 -0.556317,-0.670319 -0.427974,-0.724211 1.187056,-0.498447 2.975582,0.415955 3.051584,0.470889 2.456988,1.775881 -0.510636,1.120727 -0.693376,1.161608 -5.078098,1.136046 -2.501619,-0.01459 -5.080129,-0.02153 -5.730021,-0.01543 -0.649892,0.0061 -3.49971,0.01866 -6.332929,0.02792 -2.83322,0.0093 -5.619093,0.13425 -6.190829,0.277747 -0.790168,0.19832 -1.170111,-0.02571 -1.583933,-0.933951 z m -23.68736,-5.933943 c -0.619427,-1.418056 -3.325366,-18.25248 -3.325366,-20.688058 0,-3.425514 2.463868,-5.317061 7.7987,-5.987173 1.559739,-0.19592 2.573185,-0.446032 2.2521,-0.555805 -1.391331,-0.475669 2.608648,-5.2553281 5.222882,-6.240933 1.795224,-0.6768259 5.439464,-0.5976521 7.17712,0.1559277 1.284408,0.5570163 1.543771,0.5104963 2.753993,-0.4939668 1.319055,-1.0947923 1.478353,-1.108856 12.525184,-1.1057814 9.843611,0.00274 11.339511,0.102205 12.439595,0.8271348 1.206875,0.7953001 0.920394,0.8183786 -8.219531,0.6621413 C 42.265757,7.8339795 40.069962,8.060467 38.267594,9.5558634 37.091845,10.531362 36.82804,10.576494 35.547618,10.021207 32.299776,8.6126957 27.414181,9.6970033 24.9488,12.373505 c -0.630216,0.684185 -1.480984,1.260764 -1.890594,1.281286 -0.449785,0.02254 -0.520406,0.128515 -0.178311,0.267587 0.418834,0.170268 0.435244,0.518201 0.06298,1.33524 -0.384911,0.844788 -1.019099,1.175244 -2.693352,1.403422 -4.615901,0.629085 -7.048057,2.533972 -7.476338,5.855537 -0.123075,0.95452 0.420356,5.769678 1.207625,10.700351 0.787269,4.930674 1.343783,9.052476 1.236697,9.159562 -0.107085,0.107086 -0.415747,-0.311341 -0.685915,-0.929836 z m 31.650621,-1.360862 c 0,-0.870211 0.315099,-0.945297 3.966943,-0.945297 3.813734,0 4.540729,0.271046 4.540729,1.692926 0,0.108717 -1.914226,0.197668 -4.253836,0.197668 -3.938737,0 -4.253836,-0.07002 -4.253836,-0.945297 z m 36.340164,-23.01945 c -0.724736,-0.111865 -1.447543,-0.656315 -1.748639,-1.31715 l -0.513254,-1.126462 1.631989,0.962896 c 0.897593,0.529593 1.750208,1.154178 1.894697,1.387968 0.144488,0.233789 0.196986,0.393203 0.116654,0.354253 -0.08033,-0.03895 -0.701982,-0.156627 -1.381447,-0.261505 z M 70.287281,15.035423 c -1.077232,-0.226748 -1.324536,-0.394774 -0.708973,-0.481704 1.540409,-0.217538 3.747975,0.05393 4.230204,0.520199 0.519403,0.502212 -1.033068,0.48524 -3.521231,-0.0385 z M 29.678899,14.865589 c 0.556851,-0.480214 2.846884,-0.766712 2.571888,-0.321759 -0.167101,0.270376 -0.858447,0.491593 -1.536323,0.491593 -0.677876,0 -1.14388,-0.07643 -1.035565,-0.169834 z M 64.707812,9.8160001 c -1.3471,-1.0908169 -1.318297,-1.2073332 0.450864,-1.8240676 3.366278,-1.1734902 8.989037,-0.1018619 10.778441,2.0542375 0.440315,0.530548 0.232421,0.53007 -1.261536,-0.0029 -2.327827,-0.8304567 -5.441961,-0.8445203 -7.383379,-0.03334 -1.375071,0.57454 -1.66196,0.553013 -2.58439,-0.1939246 z"
         id="path8977" />
      <path
         style="fill:#333333;fill-opacity:1;stroke-width:0.472648"
         d="m 13.981824,98.380496 c -0.579878,-0.702946 -0.548417,-0.734788 0.296613,-0.300193 0.519913,0.267391 1.264334,0.604461 1.654269,0.749044 0.486825,0.180504 0.393885,0.274566 -0.296612,0.300188 -0.553073,0.02051 -1.297494,-0.316542 -1.65427,-0.749039 z m 12.585473,-0.337414 c 5.468662,-2.579087 8.413711,-7.431428 8.338375,-13.738535 -0.02633,-2.203959 0.121867,-2.587575 1.350509,-3.495949 1.736768,-1.284049 3.125343,-1.301258 3.79657,-0.04708 0.40516,0.757046 0.382603,0.954618 -0.101532,0.889298 -0.342327,-0.04618 -1.366834,-0.03758 -2.276683,0.01914 -1.526153,0.09512 -1.562758,0.131033 -0.472648,0.463588 0.980808,0.299215 1.047575,0.417788 0.39287,0.6977 -0.634023,0.271069 -0.776312,0.956045 -0.725337,3.491762 0.08896,4.425308 -1.091765,7.575538 -3.932446,10.491959 l -2.290793,2.35188 -3.221064,-0.0047 -3.221063,-0.0047 2.363242,-1.114533 z M 86.924985,93.75116 c -0.450954,-0.989736 -0.333388,-1.260904 0.988756,-2.280506 1.307001,-1.007922 1.41787,-1.256838 0.859502,-1.929634 -0.352586,-0.42484 -0.434595,-0.772435 -0.182239,-0.772435 0.252352,0 0.805904,0.883578 1.23011,1.963509 0.721588,1.836986 0.718596,2.005008 -0.04646,2.60755 -1.931218,1.520968 -2.318672,1.57692 -2.849664,0.411516 z M 49.136262,89.967335 c -2.887105,-1.344142 -3.266206,-1.840082 -0.708973,-0.927474 5.171337,1.845503 11.348942,-0.616995 13.850878,-5.521196 0.709635,-1.390995 1.224505,-1.839808 2.110612,-1.839808 0.644612,0 1.172017,0.221167 1.172017,0.491479 0,0.833979 -1.777635,4.028237 -3.148231,5.657097 -2.861957,3.40124 -8.585518,4.323774 -13.276303,2.139902 z M 5.4177682,88.414098 C 3.9237155,85.089139 3.7710261,80.861015 5.0211859,77.432333 c 0.5896847,-1.617266 0.9128458,-3.34749 0.7688307,-4.116371 -0.1366432,-0.729519 0.1731031,-0.05025 0.6883251,1.509493 0.8484527,2.568532 0.8725133,2.9986 0.2552124,4.561766 -1.0975858,2.779372 -1.3157591,6.06089 -0.5844446,8.790553 0.3656413,1.364772 0.5776533,2.481404 0.4711377,2.481404 -0.1065156,0 -0.6476311,-1.010286 -1.202479,-2.24508 z M 81.97679,87.617227 c -0.69071,-1.448422 -1.17422,-1.735801 -4.761385,-2.829954 -2.195939,-0.6698 -4.187065,-1.217822 -4.424732,-1.217822 -0.237671,0 -0.844987,-0.311787 -1.349596,-0.692864 -0.836578,-0.63178 0.659917,-0.294097 9.205028,2.077105 0.775063,0.215069 1.345356,0.903808 1.774313,2.142814 0.805227,2.325851 0.556435,2.617881 -0.443628,0.520721 z m 7.491748,0.757476 c -0.758426,-0.173301 -1.467446,-0.581102 -1.575602,-0.906223 -0.126292,-0.379627 0.07753,-0.485921 0.56964,-0.297079 1.106102,0.424453 4.82309,-1.120758 5.85663,-2.434692 0.485273,-0.616925 1.92323,-4.80087 3.195463,-9.297657 l 2.313141,-8.175973 0.140188,3.209241 c 0.108302,2.479258 -0.199949,4.414442 -1.355159,8.507672 -0.822441,2.914138 -1.79389,5.881331 -2.158779,6.593763 -1.199256,2.341515 -4.029593,3.476377 -6.985522,2.800948 z M 48.739355,83.620691 c -0.803201,-0.489787 -2.021485,-1.60562 -2.707298,-2.479637 l -1.246932,-1.589115 1.053028,-0.307372 c 1.999345,-0.583598 5.877715,-0.42856 6.447285,0.25773 0.456054,0.549511 -0.02302,0.716592 -2.87632,1.003135 l -3.423513,0.343814 1.095961,0.887454 c 1.488643,1.205429 4.566747,1.153371 6.643002,-0.112348 1.733636,-1.056857 1.722595,-1.096063 -0.723559,-2.569691 -0.609003,-0.366879 -0.06838,-0.424892 2.061674,-0.221242 1.587919,0.15182 3.048459,0.437365 3.245639,0.634545 0.546131,0.546136 -0.972257,2.790242 -2.695164,3.983325 -1.910743,1.323161 -4.862466,1.395901 -6.873803,0.169402 z m 15.245948,-2.729583 c -0.699794,-0.699793 -0.231527,-1.102844 1.281298,-1.102844 0.878015,0 1.861171,0.319037 2.184789,0.708972 0.506155,0.609878 0.327063,0.708973 -1.281298,0.708973 -1.028332,0 -2.011488,-0.141795 -2.184789,-0.315101 z M 4.8592279,70.537857 C 4.6853782,69.845186 4.6342911,69.187302 4.7457011,69.075889 c 0.11141,-0.111408 0.3448044,0.364171 0.5186541,1.056842 0.1738497,0.692671 0.2249368,1.350555 0.1135268,1.461968 -0.11141,0.111408 -0.3448044,-0.364171 -0.5186541,-1.056842 z M 3.913931,67.229318 C 3.7400812,66.536647 3.6889942,65.878763 3.8004042,65.76735 c 0.11141,-0.111408 0.3448043,0.364171 0.518654,1.056842 C 4.492908,67.516863 4.543995,68.174747 4.432585,68.28616 4.321175,68.397568 4.0877807,67.921989 3.913931,67.229318 Z M 2.7380809,62.730706 C 2.1760924,60.368915 2.1975342,59.903342 2.9403919,58.337888 3.3973994,57.374815 4.3358004,56.29494 5.0257274,55.938166 6.133036,55.365553 19.158704,51.429355 19.946282,51.429355 c 0.168304,0 0.238041,0.469751 0.154972,1.043892 -0.130829,0.904238 -0.968533,1.278986 -6.261634,2.801156 -3.360829,0.966495 -6.6330948,2.036892 -7.2717016,2.378664 C 4.8693247,58.562126 3.923746,60.275931 3.628035,62.981432 L 3.3666926,65.372485 Z M 89.429544,54.998588 84.230411,53.467467 84.088786,51.32636 c -0.105221,-1.590689 0.04665,-2.213356 0.590811,-2.422167 0.56231,-0.215778 0.732435,0.05206 0.732435,1.153125 0,2.49747 0.647907,3.048356 4.942665,4.202516 2.223376,0.597503 4.413624,1.368119 4.867216,1.712481 1.263138,0.958961 0.114863,0.765932 -5.792369,-0.973727 z m -63.954618,-5.542465 0.147074,-2.04428 3.029675,-0.43083 c 2.883669,-0.410068 3.074263,-0.375901 3.954878,0.708972 l 0.925202,1.139804 -2.696807,0.29644 c -1.658549,0.18231 -3.23778,0.6964 -4.101951,1.335308 l -1.405145,1.038871 z m -6.706329,-0.335788 c 0,-1.537662 0.144758,-1.859599 0.734419,-1.633325 0.880416,0.337847 0.764026,3.056569 -0.143608,3.354522 -0.407353,0.133726 -0.590811,-0.40074 -0.590811,-1.721197 z m 58.608411,0.465209 c 0,-0.23423 -0.691248,-0.411332 -1.536108,-0.39357 -2.408106,0.05063 -7.917646,-0.639391 -7.909625,-0.990616 0.0038,-0.174276 0.195785,-0.614658 0.426229,-0.978626 0.359152,-0.567247 1.117535,-0.567247 5.310059,0 4.477007,0.605737 4.903851,0.751788 5.042101,1.725219 0.101586,0.715296 -0.09184,1.063459 -0.590811,1.063459 -0.408013,0 -0.741845,-0.19164 -0.741845,-0.425866 z M 38.169202,47.271442 c -0.773556,-1.697811 -0.646474,-1.844596 1.888101,-2.180819 1.7894,-0.237372 2.833549,-0.72334 4.192959,-1.951486 2.869072,-2.592033 4.366576,-2.005598 2.419886,0.947648 -1.013364,1.537335 -0.66123,2.122958 1.284493,2.136199 0.584902,0.004 1.063459,0.295888 1.063459,0.648682 0,0.475435 -1.339875,0.750665 -5.177117,1.06346 -5.129943,0.418169 -5.181623,0.412122 -5.671781,-0.663684 z m 12.737043,0.751875 c -1.145988,-0.427907 -1.153352,-0.459333 -0.261701,-1.116697 1.039813,-0.766591 1.494127,-0.815059 6.386223,-0.681302 2.960647,0.08095 3.435521,-0.0085 2.977185,-0.560756 -0.451545,-0.544079 -0.264074,-0.624234 1.090201,-0.46613 1.874926,0.218887 2.283181,0.653454 1.86164,1.981619 -0.277445,0.874152 -0.57942,0.919797 -4.229131,0.639258 -2.262214,-0.173887 -4.506486,-0.101269 -5.287798,0.171097 -0.858915,0.29942 -1.79051,0.311506 -2.536619,0.03291 z m 33.087842,-0.876904 c 0,-0.876458 0.311073,-2.451438 0.691272,-3.499956 0.88596,-2.443301 3.723387,-20.420463 3.368882,-21.344296 -0.147476,-0.384316 -0.0734,-0.578401 0.164614,-0.431301 0.238012,0.147101 0.676053,1.004659 0.973415,1.905685 0.448746,1.359705 0.291321,3.2269 -0.925933,10.982494 -1.642562,10.465391 -2.018124,11.940978 -3.344749,13.141555 -0.904143,0.81824 -0.927501,0.799249 -0.927501,-0.754181 z M 14.588356,40.944595 C 14.31706,40.082318 13.42848,35.083796 12.613732,29.836767 11.181247,20.611459 11.159086,20.240425 11.942005,18.590545 c 0.983312,-2.072176 2.377709,-2.843821 6.37402,-3.527317 1.678676,-0.287108 3.527632,-0.626792 4.108789,-0.754854 0.963921,-0.212407 1.011275,-0.133251 0.539592,0.90198 -0.412227,0.90474 -1.008617,1.200027 -2.941564,1.456442 -4.895167,0.649366 -7.403722,2.904438 -7.386348,6.639975 0.0048,1.039827 0.631362,5.712077 1.392279,10.382778 0.760918,4.670702 1.309094,8.566578 1.218168,8.657503 -0.09093,0.09093 -0.387288,-0.54018 -0.658585,-1.402457 z m 31.593853,-0.858803 c 0,-0.870211 0.315099,-0.945297 3.966943,-0.945297 3.813734,0 4.540729,0.271046 4.540729,1.692926 0,0.108717 -1.914226,0.197668 -4.253836,0.197668 -3.938737,0 -4.253836,-0.07002 -4.253836,-0.945297 z m 34.584761,-24.351437 -0.542954,-1.191662 1.412387,1.044224 c 1.653357,1.222378 1.700683,1.3391 0.542959,1.3391 -0.478188,0 -1.113763,-0.536248 -1.412392,-1.191662 z M 70.287281,15.035423 c -1.397173,-0.294093 -1.470632,-0.366337 -0.472649,-0.464856 1.634008,-0.161307 2.94383,0.01089 3.781188,0.497098 0.873705,0.507313 -0.823812,0.49077 -3.308539,-0.03224 z M 29.639512,14.854198 c 0,-0.09967 0.53173,-0.28287 1.181621,-0.407105 0.649892,-0.124235 1.181622,-0.04269 1.181622,0.181224 0,0.223908 -0.53173,0.407106 -1.181622,0.407106 -0.649891,0 -1.181621,-0.08155 -1.181621,-0.181225 z M 21.13184,13.229905 c 0,-0.834237 3.364264,-4.2576471 4.900472,-4.9866256 1.892613,-0.8981035 5.405556,-1.0073458 7.129824,-0.2217166 1.834293,0.8357597 1.445353,1.3409619 -1.041219,1.3524586 -2.619724,0.012114 -5.54871,1.2370576 -7.172117,2.9994836 -1.083674,1.176474 -3.81696,1.789733 -3.81696,0.8564 z M 35.879442,10.123724 34.821094,9.557313 36.277874,8.1606935 37.734653,6.7640744 48.551546,6.6213828 c 9.122496,-0.1203405 11.042758,-0.025892 12.258802,0.6029482 0.793048,0.410102 1.442159,0.7933509 1.442462,0.8516644 3.02e-4,0.058313 -4.200361,0.038204 -9.334808,-0.044689 -10.831299,-0.1748619 -12.86876,0.040709 -14.664296,1.5515542 -1.124093,0.9458624 -1.470193,1.0247044 -2.374264,0.5408614 z m 38.897999,-0.06818 C 73.020106,9.2508728 69.802258,9.1877936 67.38936,9.9107161 65.790636,10.389705 65.440063,10.346183 64.572469,9.5610219 L 63.581548,8.6642527 64.925661,8.0899683 c 2.555648,-1.0919262 6.287118,-0.7549354 9.024646,0.8150203 1.364772,0.7826889 2.481404,1.5251144 2.481404,1.6498344 0,0.272863 0.09396,0.30122 -1.65427,-0.499279 z"
         id="path8975" />
    </g>
    <path
       style="fill:#000000;stroke-width:0.472648"
       d="m 48.337789,73.822892 c -0.091,-0.116314 -0.76175,0.14075 -1.49053,0.571247 -4.9059,2.897988 -11.70508,1.189538 -14.45126,-3.631207 -1.0185,-1.787915 -2.183,-5.463589 -1.32978,-4.197388 0.21251,0.31538 1.00405,0.476534 1.78679,0.363789 1.26163,-0.181724 1.50188,0.0019 2.35055,1.796366 1.31755,2.785866 3.66331,4.275214 6.28178,3.988359 2.23282,-0.244609 3.88017,-1.420824 3.88017,-2.770457 0,-0.499764 0.33721,-0.872041 0.78991,-0.872041 0.43446,0 1.17888,-0.352 1.65427,-0.782229 0.51716,-0.468016 0.86436,-0.562943 0.86436,-0.236324 0,0.30025 0.21269,0.545904 0.47264,0.545904 0,0 0.5044,3.220998 -0.8089,5.223981 z m 13.95824,1.684126 c -1.21645,-0.330338 -2.94917,-1.163083 -3.85048,-1.850551 -2.01312,-1.535479 -4.11275,-5.602051 -4.06241,-7.868084 0.0205,-0.923796 0.1446,-1.413767 0.27571,-1.088822 0.13112,0.324946 0.8335,0.590811 1.56085,0.590811 1.16207,0 1.38399,0.244425 1.82994,2.015439 0.63923,2.538628 2.94945,4.94957 5.13581,5.359735 2.17662,0.408335 4.86718,-0.80795 4.86718,-2.200245 0,-0.767827 0.20708,-0.91907 0.93993,-0.686475 0.66213,0.210154 1.29074,-0.08021 2.12692,-0.982461 l 1.18699,-1.280788 v 1.537535 c 0,1.148494 0.1733,1.471029 0.6849,1.27471 1.04592,-0.401359 0.36897,1.081986 -1.31001,2.870507 -2.20457,2.348411 -5.89556,3.256354 -9.38533,2.308689 z m -47.18003,-6.103787 c 0,-3.54474 3.15761,-6.476101 6.97592,-6.476101 2.24016,0 3.24087,0.730988 3.63894,2.658132 0.25678,1.243099 0.0583,1.736236 -1.25558,3.119447 -1.26499,1.331748 -2.04312,1.705873 -4.10825,1.975259 -1.40122,0.182778 -3.15593,0.453979 -3.89935,0.60266 -1.32864,0.265728 -1.35168,0.233692 -1.35168,-1.879397 z m 51.61378,-1.499756 c -1.2562,-1.596999 -1.31077,-2.142823 -0.21325,-2.133218 1.511,0.01323 2.00346,0.652179 1.61683,2.097817 l -0.36319,1.358042 z m -23.583,-0.943898 -1.32614,-1.166685 1.53611,-0.01494 c 1.3274,-0.0129 1.53611,0.145609 1.53611,1.166686 0,1.461353 -0.10099,1.462213 -1.74608,0.01493 z m -8.95355,-1.431921 c -0.50795,-1.323709 0.33586,-4.024871 1.76625,-5.653992 2.54598,-2.899717 6.8334,-3.343316 9.22251,-0.954206 1.4608,1.460801 1.43217,2.805537 -0.0823,3.867446 -0.66613,0.467057 -1.78276,1.295851 -2.4814,1.841765 -1.69977,1.328166 -8.00228,2.000674 -8.42503,0.898987 z m 27.33269,-0.140292 c -3.88421,-0.157103 -4.27489,-0.514936 -3.41314,-3.126087 0.72162,-2.186519 3.27158,-4.361686 5.56806,-4.749678 2.60312,-0.43979 5.48786,0.784734 6.43644,2.732159 0.6704,1.376347 0.66408,1.56941 -0.0758,2.311988 -0.444,0.445627 -1.76655,1.296394 -2.93902,1.890594 -1.75293,0.888371 -2.74391,1.055594 -5.57657,0.941024 z m -34.3993,-26.513762 c -2.23361,-1.362041 -3.57107,-3.320147 -3.40779,-4.989185 0.13906,-1.421583 0.19253,-1.449097 3.58327,-1.844149 2.78505,-0.324484 3.74601,-0.256819 5.03424,0.354486 0.87568,0.415537 1.7929,0.755522 2.03827,0.755522 0.24536,0 0.83692,0.431824 1.31456,0.959609 1.16773,1.290336 0.51148,3.139475 -1.6252,4.579388 -1.9824,1.335937 -4.9208,1.414012 -6.93735,0.184329 z m 41.87131,0.0924 c -1.1746,-0.605609 -1.64448,-1.161276 -1.62051,-1.916377 0.20057,-6.317738 0.21611,-6.346719 3.07754,-5.736434 1.48414,0.316535 2.83844,1.089354 4.36488,2.490782 1.21722,1.11752 2.21311,2.266512 2.21311,2.553315 0,0.286804 -0.48557,1.085975 -1.07905,1.775937 -1.43182,1.664592 -4.60565,2.044567 -6.95597,0.832777 z m -49.1482,-7.495356 c -0.0148,-3.917863 3.11969,-8.095292 7.23142,-9.637518 1.89983,-0.712589 5.27263,-0.616296 7.24251,0.206771 0.92911,0.388209 1.8794,0.588348 2.11174,0.444754 3.55341,-24.2015641 31.7354,-1.309277 31.7354,-1.309277 0.32494,0.203363 1.93658,-0.02815 3.54322,0.221263 3.84744,0.59726 6.69638,1.127819 8.66995,3.852252 1.32087,1.823415 1.81032,3.647549 0.97869,3.647549 -0.21823,0 -0.66799,0.584902 -0.99947,1.299783 -0.56838,1.225812 -0.62348,1.245052 -0.96829,0.338077 -0.20108,-0.528939 -0.70844,-1.24623 -1.12745,-1.593981 -0.94274,-0.782401 -1.94582,-0.09515 -2.37875,1.629777 -0.23564,0.938871 -0.58518,1.159524 -1.8188,1.14813 l -1.5271,-0.0141 2.07974,-1.797799 c 1.80165,-1.557405 2.0364,-1.970487 1.75561,-3.089257 -0.33596,-1.338575 -2.58644,-2.647111 -4.55262,-2.647111 -1.59067,0 -3.74263,1.350866 -3.96662,2.490001 -1.06124,5.396986 -1.18543,5.179831 -1.01853,-1.781029 3.73772,-26.5958675 -28.81623,-11.296291 -29.11285,-2.228632 -0.0416,4.605185 -0.15614,7.628642 -0.25454,6.718794 -0.25937,-2.398406 -0.52221,-2.949885 -1.20259,-2.523158 -0.32678,0.204956 -0.99565,0.30645 -1.48637,0.225544 -0.49072,-0.08091 -1.09569,0.137094 -1.34437,0.484445 -0.33716,0.470947 -0.38343,0.418483 -0.18195,-0.206307 0.463,-1.435768 -1.31283,-2.707009 -3.78149,-2.707009 -1.9015,0 -2.41658,0.234053 -4.00028,1.817756 -1.29413,1.294125 -1.9082,2.383348 -2.13172,3.781187 -0.30035,1.878281 -0.64484,2.156002 -2.38539,1.923064 -0.1659,-0.0222 -0.48168,0.243662 -0.70173,0.590811 -0.25682,0.405156 -0.40268,-0.05492 -0.40733,-1.284775 z m 30.00594,0.638051 c -2.97898,-1.038484 -5.45538,-4.696919 -4.72884,-6.986025 0.26916,-0.848057 0.7079,-0.952717 3.99384,-0.952717 2.78092,0 3.84367,0.183397 4.30853,0.743517 0.33939,0.408935 1.42889,1.157679 2.42111,1.663876 1.30246,0.664463 1.80406,1.223316 1.80406,2.009984 0,1.380247 -1.73889,3.031922 -3.82055,3.628935 -1.89882,0.544573 -2.12496,0.538459 -3.97815,-0.10757 z m -18.66962,-1.216496 c 0,-0.613111 1.44115,-2.46841 1.9174,-2.46841 0.75693,0 0.49118,2.244711 -0.30178,2.548998 -1.01697,0.390247 -1.61562,0.360385 -1.61562,-0.08059 z m 10.43558,-7.220255 c -0.0613,-1.983187 2.27809,-6.078488 4.31528,-7.554217 3.90579,-2.829337 8.22547,-2.857779 12.34116,-0.08126 2.13082,1.437489 3.50322,3.645841 2.50402,4.029267 -0.34654,0.13298 -0.7832,0.951311 -0.97036,1.818513 -0.2996,1.388245 -0.38607,1.461766 -0.7233,0.615025 -0.53867,-1.352502 -1.76588,-2.265689 -2.60967,-1.941896 -0.51797,0.198767 -0.71499,-0.04379 -0.71499,-0.880282 0,-1.312035 -1.98772,-2.59687 -4.01751,-2.59687 -2.65428,0 -6.38075,3.195579 -6.38075,5.471721 0,0.988559 -0.22108,1.145357 -1.61489,1.145357 -0.88818,0 -1.72216,0.265865 -1.85328,0.590811 -0.13111,0.324946 -0.25518,0.04767 -0.27571,-0.616171 z m 11.30625,0.08894 c 0,-0.259523 0.62577,-0.917448 1.39061,-1.462057 l 1.3906,-0.990198 -0.0985,1.3125 c -0.0787,1.048246 -0.35864,1.342611 -1.3906,1.462056 -0.71066,0.08226 -1.29212,-0.06278 -1.29212,-0.322301 z"
       id="path8935"
       sodipodi:nodetypes="cssssssssssccsssssssssscsssssssssssssscsccssscssssssscsssssccssssssssssssssscssccsssssssscssssccssssssssssccsssssssssssssssssssssssssssssccsss" />
  </g>
</svg>
