<?xml version="1.0" encoding="UTF-8" standalone="no"?>
<svg
   height="960"
   viewBox="0 0 960 960"
   width="960"
   version="1.1"
   id="svg4"
   sodipodi:docname="add_list_type_device_6104.svg"
   inkscape:version="1.1.1 (3bf5ae0d25, 2021-09-20)"
   xmlns:inkscape="http://www.inkscape.org/namespaces/inkscape"
   xmlns:sodipodi="http://sodipodi.sourceforge.net/DTD/sodipodi-0.dtd"
   xmlns="http://www.w3.org/2000/svg"
   xmlns:svg="http://www.w3.org/2000/svg">
  <defs
     id="defs8" />
  <sodipodi:namedview
     id="namedview6"
     pagecolor="#505050"
     bordercolor="#ffffff"
     borderopacity="1"
     inkscape:pageshadow="0"
     inkscape:pageopacity="0"
     inkscape:pagecheckerboard="1"
     showgrid="false"
     inkscape:zoom="2.9045061"
     inkscape:cx="124.80607"
     inkscape:cy="664.48475"
     inkscape:window-width="1440"
     inkscape:window-height="890"
     inkscape:window-x="-6"
     inkscape:window-y="-6"
     inkscape:window-maximized="1"
     inkscape:current-layer="svg4" />
  <path
     d="m 561.80417,170.09363 25.37709,1.73936 c 16.82847,1.15344 31.12479,12.7397 35.73907,28.96425 l 2.55395,8.98008 c 1.03089,3.62479 1.53953,7.35945 1.52544,11.09319 l -7.2e-4,0.0195 122.96107,12.23414 c 20.25222,2.0149 35.72778,18.90301 36.03993,39.18777 -3.26472,269.31703 -2.27152,283.72507 -1.99467,371.35966 l -0.005,-0.65817 0.001,-0.80129 c -4.99293,15.16498 -18.82153,26.39537 -35.577,27.41272 l -53.16213,3.22707 c -1.04796,1.45527 -1.69899,2.36275 -1.80812,2.52206 -21.47178,31.34337 -51.70248,98.3993 -89.4936,199.55733 -3.07791,8.23886 -7.89988,16.93934 -14.44835,26.50344 -0.69406,1.01369 -1.44592,1.98656 -2.25185,2.9138 -10.84311,12.47518 -27.00456,19.24003 -43.84173,17.94426 l -0.9565,-0.0765 -0.19646,-0.0163 -0.94045,-0.0811 -0.20295,-0.0181 -0.9244,-0.0856 -0.20975,-0.0201 -0.90835,-0.0901 -0.10752,-0.0109 c -4.23406,-0.43464 -8.174,-1.00447 -11.84528,-1.72715 l -0.16254,-0.0324 -0.71575,-0.14475 c -0.11166,-0.0226 -0.2232,-0.0458 -0.33462,-0.0695 l -0.6997,-0.1493 -0.17225,-0.0372 c -1.96698,-0.43104 -3.86525,-0.91205 -5.78339,-1.47356 l -0.2803,-0.0829 c -0.0813,-0.024 -0.16246,-0.0484 -0.24354,-0.0731 l -0.56993,-0.17342 c -0.1035,-0.0315 -0.20685,-0.0635 -0.31002,-0.096 l -0.58235,-0.18368 c -0.0983,-0.031 -0.19636,-0.0625 -0.29431,-0.0944 l -0.59477,-0.19393 -0.1416,-0.0465 c -0.29192,-0.0967 -0.58521,-0.19532 -0.87993,-0.29588 l -0.13137,-0.0451 -0.61961,-0.21444 -0.12819,-0.0447 c -0.21978,-0.0773 -0.21978,-0.0773 -0.43959,-0.15525 l -0.12214,-0.0437 -0.63825,-0.22981 -0.23578,-0.086 -0.65066,-0.24006 -0.11381,-0.0422 c -0.17641,-0.066 -0.21169,-0.0792 -0.33174,-0.12438 l -0.21816,-0.0825 -0.66929,-0.25544 c -0.0702,-0.0268 -0.14021,-0.0538 -0.21016,-0.0811 l -0.68172,-0.2657 -0.20101,-0.0791 -0.69413,-0.27595 -0.0973,-0.0389 c -0.22327,-0.0897 -0.22327,-0.0897 -0.4469,-0.18019 l -0.0932,-0.0379 -0.80396,-0.32877 c -0.22496,-0.0929 -0.22496,-0.0929 -0.53778,-0.223 l -0.81706,-0.34278 c -0.22691,-0.096 -0.22691,-0.096 -0.53652,-0.228 l -0.83062,-0.35682 c -0.0654,-0.0284 -0.11221,-0.0486 -0.15276,-0.0662 l -0.11558,-0.0502 c -0.061,-0.0265 -0.1362,-0.0593 -0.2678,-0.11668 l -0.76866,-0.33746 -0.15044,-0.0665 -0.78108,-0.34772 -0.14476,-0.0649 -0.7935,-0.35797 -0.13937,-0.0633 -0.87368,-0.39928 c -0.23676,-0.10895 -0.23676,-0.10895 -0.53945,-0.24892 l -0.88868,-0.41353 c -0.23963,-0.11224 -0.23963,-0.11224 -0.54179,-0.2544 l -0.84318,-0.39898 -0.12051,-0.0573 -0.94327,-0.45134 -0.46116,-0.22231 c -4.01707,-1.94133 -7.69843,-4.32559 -11.00708,-7.07014 l -0.11119,-0.0935 -0.21547,0.18293 c -6.12055,5.13001 -12.59555,9.51029 -19.4421,13.07277 l -0.60743,0.3123 -0.54778,0.32218 c -21.60459,12.44367 -53.14411,8.57037 -87.86591,-10.0296 l -1.09753,-0.59226 C 357.04065,895.06754 344.73094,877.11911 337.06053,853.4124 l -0.19253,-0.6014 -0.16622,0.15762 c -19.58482,18.38371 -36.91833,32.42673 -52.87078,43.15232 l -0.80995,0.54252 c -0.58831,0.39255 -1.39381,0.92362 -2.44226,1.61061 -21.27089,13.93763 -49.51582,-1.30729 -49.53818,-26.73773 L 231,825.36731 c -0.007,-7.92243 2.92516,-15.56579 8.22893,-21.45094 0.97982,-1.08722 1.70799,-1.89694 2.1758,-2.4194 27.47804,-30.68744 47.44688,-58.11975 59.92479,-82.00631 4.02447,-7.70407 7.87316,-15.49217 11.56021,-23.41941 l -96.4655,5.85522 C 193.42184,703.32312 174,685.04475 174,662 V 220 c 0,-23.65677 20.41937,-42.14548 43.95992,-39.8035 l 231.12108,22.9945 0.0458,-0.0454 c 4.63558,-4.50864 10.41355,-7.94142 17.0031,-9.80061 l 0.58353,-0.15996 82.06895,-21.83974 c 4.2425,-1.129 8.64192,-1.55187 13.0218,-1.25167 z M 433.58061,487.00251 c -8.49642,-0.0778 -16.03412,5.43731 -18.53046,13.5591 l -0.0161,0.0494 -0.70066,2.28653 c -23.31938,76.18817 -38.00473,139.30011 -44.06773,189.2629 l -0.18291,1.52536 c -11.35586,95.85867 -3.90442,166.78861 23.48772,182.00068 12.82183,7.12053 23.99348,11.22039 33.22834,12.69061 l 0.32124,0.0489 -0.0771,-0.0608 c -9.20002,-7.35319 -15.0385,-19.28761 -16.67009,-36.63266 l -0.0607,-0.66979 c -4.97747,-57.11899 -2.66826,-130.56272 8.54526,-189.14361 7.75398,-40.50783 22.50969,-91.64754 44.26496,-153.48557 l 0.004,-0.0116 0.10156,-0.29654 c 2.18341,-6.71044 -1.13916,-13.98579 -7.63936,-16.72961 l -0.30225,-0.1234 c -4.89247,-1.92959 -9.36637,-3.15621 -13.40902,-3.70157 -2.59728,-0.35038 -5.3626,-0.54056 -8.29632,-0.56837 z m 143.77241,24.23546 c -0.30464,2.23483 -0.63081,4.62165 -0.97833,7.16062 -0.0808,0.59028 -1.53413,11.77037 -2.26085,17.17877 -1.42402,10.59793 -2.94899,21.3427 -4.68068,32.76625 -4.81931,31.79192 -10.39581,63.26561 -16.86751,93.5177 -11.76868,55.01302 -27.31069,117.37778 -46.62543,187.0984 -3.98113,14.37614 3.67447,29.38456 17.58571,34.63098 l 0.41507,0.15231 -0.04,-0.015 0.0493,0.0173 c 0.96915,0.34859 1.88049,0.65384 2.73259,0.91589 l 0.50413,0.15204 c 0.53391,0.15776 1.07279,0.2982 1.61579,0.42108 13.89183,3.14383 27.70196,-5.56916 30.84578,-19.461 19.92802,-88.05745 33.93932,-152.97971 42.02748,-194.73044 8.97366,-46.32167 18.05557,-96.15596 27.2456,-149.50264 0.015,-0.0876 0.015,-0.0876 0.0295,-0.1752 2.07817,-12.64336 -6.48661,-24.57751 -19.12996,-26.65567 l -0.0721,-0.0134 -1.77737,-0.28895 -1.84908,-0.29765 c -2.12056,-0.33903 -4.24635,-0.60029 -6.37775,-0.78387 l -0.35142,-0.0275 c -10.90147,-0.75508 -20.55821,7.07272 -22.04036,17.93993 z m -12.24594,-13.78397 -0.26815,0.30072 c -13.74098,15.62446 -25.181,53.60231 -38.6296,102.63782 l -1.44646,5.28704 -1.46296,5.36832 -5.26719,19.38484 -1.55169,5.69606 -1.57464,5.76045 c -0.85634,3.12615 -1.72323,6.2791 -2.60149,9.45666 -0.0983,0.35566 -0.19663,0.71123 -0.29511,1.06711 -0.36102,1.30466 -0.724,2.61352 -1.08896,3.92632 -0.17299,0.62225 -0.34655,1.24588 -0.52057,1.87037 -0.61709,2.2145 -1.23961,4.43909 -1.86809,6.67393 -0.41762,1.48503 -0.83799,2.97498 -1.26106,4.46925 -0.3444,1.21641 -0.69056,2.43554 -1.03856,3.65741 -0.43778,1.53715 -0.87851,3.07873 -1.32223,4.62444 -0.38989,1.35821 -0.78194,2.71906 -1.17636,4.08293 -0.19634,0.67893 -0.3933,1.35873 -0.59086,2.03927 l -0.22567,0.77544 -0.001,-3.8e-4 -0.33751,1.15796 c -17.96,61.11342 -44.73171,116.74223 -77.35391,150.32536 0.29626,4.64547 0.63895,9.20385 1.02713,13.65841 1.305,14.97545 5.86844,23.2332 12.66588,27.53563 1.8891,1.1957 3.93164,2.0727 6.27817,2.7703 1.4328,0.42596 5.97624,1.47442 5.99741,1.47998 2.17769,0.57122 3.66365,1.12489 5.03397,2.34498 13.01594,-8.28019 24.23438,-21.23395 33.65308,-36.49997 0.13723,-0.64619 0.29032,-1.29235 0.45841,-1.93783 l 0.18213,-0.67797 c 19.23477,-69.43195 34.70125,-131.49362 46.3989,-186.17461 6.3977,-29.9062 11.91982,-61.07294 16.69423,-92.56866 1.71729,-11.3286 3.2298,-21.98558 4.64246,-32.49896 0.23209,-1.72729 0.54091,-4.06354 0.85582,-6.45818 l 0.0946,-0.71959 0.0473,-0.36008 0.0943,-0.71865 c 0.58005,-4.42042 1.1205,-8.56956 1.17411,-8.96128 0.3472,-2.5366 0.67303,-4.92099 0.9775,-7.15314 l 0.0837,-0.58124 c 0.6007,-3.94164 1.81097,-7.65044 3.52336,-11.04046 z m -208.81478,178.50173 -0.2313,0.58927 -0.20781,0.52998 c -0.0641,0.16251 -0.12832,0.32488 -0.19253,0.48713 -0.14396,0.36378 -0.28815,0.72708 -0.43248,1.08975 -0.11548,0.29015 -0.23065,0.57889 -0.34592,0.86723 -0.47072,1.17746 -0.94273,2.34739 -1.41629,3.5107 -0.10548,0.25913 -0.21122,0.51837 -0.31704,0.77728 -0.47219,1.15532 -0.94574,2.30369 -1.42076,3.44561 -0.38281,0.92025 -0.7666,1.83637 -1.15132,2.74835 -0.47873,1.13482 -0.95869,2.26276 -1.44004,3.38439 -0.0714,0.16633 -0.14255,0.33196 -0.21375,0.49745 -6.2173,14.45108 -12.66401,27.85434 -19.2303,40.42423 -13.84349,26.50069 -35.32628,56.01279 -64.44835,88.5363 -0.49544,0.55331 -1.24358,1.38523 -2.24441,2.49577 l 0.0406,46.16903 c 0.98014,-0.64224 1.71982,-1.1299 2.21902,-1.46301 14.67357,-9.79115 32.884,-24.24456 56.28784,-46.83092 2.29128,-2.21125 4.60961,-4.60238 6.95499,-7.17341 l 0.88079,-0.97257 c 3.0872,-3.43351 6.221,-7.17692 9.4014,-11.23021 l 0.90996,-1.16652 0.45593,-0.58958 0.87217,-1.13728 c 2.73371,-3.58399 5.50139,-7.39384 8.30303,-11.42953 -1.11747,-28.68331 0.6404,-62.02442 4.86808,-97.71165 0.60999,-5.14919 1.3095,-10.43177 2.09849,-15.84779 z M 729,519.51667 c -0.51358,0.40369 -0.90015,0.72055 -1.15973,0.95056 -30.14764,26.7142 -68.78513,68.34311 -102.27135,110.55662 -2.73797,14.67467 -5.4663,29.0286 -8.18494,43.06209 -7.42549,38.33007 -19.78827,95.9525 -37.09324,172.89501 30.00086,-79.06596 55.19459,-136.31223 75.58116,-171.74001 l 0.19248,-0.33409 c 0.0577,-0.1 0.11532,-0.19981 0.17292,-0.29946 l -0.36655,0.63554 c 0.28381,-0.49321 0.56669,-0.9822 0.84864,-1.46696 0.0733,-0.12597 0.14701,-0.25258 0.22069,-0.37889 0.37384,-0.64093 0.74628,-1.27481 1.11707,-1.90122 0.19128,-0.32314 0.38191,-0.64393 0.5721,-0.96275 0.37317,-0.62554 0.74506,-1.24411 1.11527,-1.85504 0.0868,-0.14328 0.17367,-0.28632 0.26042,-0.42893 0.1269,-0.20864 0.25456,-0.41793 0.38201,-0.6263 0.0863,-0.14116 0.17238,-0.28155 0.25832,-0.42152 0.44265,-0.72092 0.88304,-1.43103 1.32098,-2.13003 0.0986,-0.15732 0.19726,-0.31448 0.29583,-0.47107 0.13144,-0.20882 0.26296,-0.41711 0.39426,-0.62439 0.10558,-0.16667 0.21115,-0.3329 0.31657,-0.49848 0.0703,-0.11046 0.14116,-0.2215 0.21193,-0.33226 0.37985,-0.59451 0.75722,-1.17954 1.1327,-1.75606 0.43657,-0.67029 0.8708,-1.32939 1.30249,-1.97697 0.0534,-0.0802 0.10759,-0.16127 0.1617,-0.2422 0.13892,-0.20778 0.278,-0.41499 0.41682,-0.62099 0.13975,-0.2074 0.27909,-0.41335 0.41815,-0.61809 0.14565,-0.21443 0.29186,-0.42878 0.43778,-0.64178 0.0271,-0.0395 0.0663,-0.0958 0.11719,-0.16813 l 0.18713,-0.26451 c 0.23305,-0.32813 0.5777,-0.81004 1.01839,-1.42423 l 0.27581,-0.38422 c 2.48809,-3.46451 7.48878,-10.38982 12.81259,-17.75373 l 0.61559,-0.85146 c 0.20559,-0.28436 0.41154,-0.56919 0.61771,-0.85432 l 0.97936,-1.35434 0.38004,-0.5255 0.1517,-0.20977 0.53141,-0.73477 c 0.44257,-0.61191 0.88431,-1.22261 1.32398,-1.83042 l 0.52653,-0.72786 c 7.26779,-10.04647 13.83061,-19.10604 14.06481,-19.41629 12.28265,-15.40916 20.98995,-26.33269 26.1219,-32.7706 0.34823,-0.43684 0.8575,-1.09169 1.52782,-1.96453 z m -260.13986,167.08271 -12.7284,0.77232 c -2.36568,15.18647 -4.13294,31.21617 -5.32237,47.57966 l -0.0404,0.56664 0.30663,-0.70604 c 6.44419,-14.94508 12.41786,-31.10876 17.78451,-48.21258 z M 214.04961,220.07184 214.049,661.997 329.91091,654.96524 c 3.01454,-8.73164 6.94292,-21.09598 11.53055,-36.2263 0.70401,-2.32187 1.42125,-4.70113 2.15121,-7.13563 3.65779,-12.19898 7.42461,-25.06989 11.50334,-39.21755 1.24243,-4.30953 5.93354,-20.67371 6.40278,-22.25333 l 18.57207,-62.5195 c 0.0574,-0.19312 0.11657,-0.38571 0.17757,-0.57772 5.90124,-18.57294 22.37837,-31.78934 41.79372,-33.50058 9.17209,-0.80841 17.82312,-0.71122 25.97349,0.36498 10.71432,1.41476 21.7485,5.04047 33.28745,10.66808 20.45548,9.97624 30.21542,33.66042 22.77458,55.14188 l -0.0799,0.22788 -0.0665,0.1874 c -0.0252,0.071 -0.0506,0.14189 -0.0763,0.2127 l -0.67679,1.86528 c -0.88331,2.43816 -1.75495,4.85858 -2.6043,7.23156 l -1.29144,3.61934 c -15.68914,44.10898 -27.35509,82.06799 -35.0025,113.75142 l 16.35374,-0.99436 c 1.09638,-3.95358 2.22676,-8.05732 3.4052,-12.35928 l 1.56728,-5.73349 1.54623,-5.67598 5.27345,-19.40787 1.47135,-5.39905 1.45178,-5.30643 c 10.85614,-39.58301 17.80066,-62.1124 25.50805,-80.72968 5.09809,-12.31448 10.35145,-22.22714 16.39757,-30.2143 8.72778,-11.52973 19.43427,-19.53633 33.05628,-22.16119 12.69933,-2.44707 27.8122,-1.59244 45.04716,1.23642 14.82394,2.43313 26.83085,5.28697 33.25811,9.24537 17.51279,10.78574 26.94298,31.23531 23.39958,51.76879 -0.56726,3.33316 -1.11688,6.55671 -1.64887,9.67074 l -0.14183,0.82716 0.60206,-0.61961 c 12.11294,-12.45281 23.86746,-23.80996 34.74121,-33.50247 l 1.04953,-0.93277 c 0.81896,-0.7257 1.64135,-1.39976 2.60674,-2.1586 11.52213,-9.05694 25.96357,-8.63697 36.66552,-2.02649 l -1.4e-4,-219.3196 z m 512.18609,409.96627 -0.1987,0.24789 -0.0509,0.0707 c -0.10531,0.14454 -0.24738,0.33995 -0.42333,0.58226 l 20.32621,-1.23395 8.5e-4,-24.32368 c -4.9466,6.20557 -11.49799,14.42452 -19.65415,24.65679 z M 567.788,231.157 l -0.903,3.938 15.734,1.566 1.403,-5.107 z m -42.62794,-12.13318 -32.59406,8.67318 41.048,4.086 -7.97216,-11.95903 c -0.17451,-0.26177 -0.33504,-0.52878 -0.48178,-0.80015 z m 24.29094,-6.46482 -3.92,1.043 4.289,6.434 0.053,-0.23219 z m 19.925,-1.853 0.028,0.485 10.945,0.267 z"
     id="path2"
     sodipodi:nodetypes="cssscccccccccssssccccccccsccsscccssssssccccccccccccccsscccccccccccssccccccccccccccccccccccccccccssssssccsscccccsscsccccscccccscccccscsscsscccccccsssscccccccscccsccccssssssssscccccssssccccssssccssccccccsssssssssssccsscccccccsccscscccccsssssssssssssssssssccssssscccssscsccsscccccscccsscssssccsscccccccccccsssssccccccscccccccsccccccccccscccccccccccccccc" />
</svg>
