<?xml version="1.0" encoding="UTF-8" standalone="no"?>
<!-- Created with Inkscape (http://www.inkscape.org/) -->

<svg
   width="100mm"
   height="100mm"
   viewBox="0 0 100 100"
   version="1.1"
   id="svg654"
   inkscape:version="1.1.1 (3bf5ae0d25, 2021-09-20)"
   sodipodi:docname="add_list_type_device_6066.svg"
   xmlns:inkscape="http://www.inkscape.org/namespaces/inkscape"
   xmlns:sodipodi="http://sodipodi.sourceforge.net/DTD/sodipodi-0.dtd"
   xmlns="http://www.w3.org/2000/svg"
   xmlns:svg="http://www.w3.org/2000/svg">
  <sodipodi:namedview
     id="namedview656"
     pagecolor="#505050"
     bordercolor="#ffffff"
     borderopacity="1"
     inkscape:pageshadow="0"
     inkscape:pageopacity="0"
     inkscape:pagecheckerboard="1"
     inkscape:document-units="mm"
     showgrid="false"
     inkscape:zoom="0.58974467"
     inkscape:cx="397.62971"
     inkscape:cy="154.30407"
     inkscape:window-width="1440"
     inkscape:window-height="890"
     inkscape:window-x="-6"
     inkscape:window-y="-6"
     inkscape:window-maximized="1"
     inkscape:current-layer="layer1" />
  <defs
     id="defs651" />
  <g
     inkscape:label="Laag 1"
     inkscape:groupmode="layer"
     id="layer1">
    <g
       id="g670"
       transform="translate(0.44864079,-0.44864048)">
      <path
         style="fill:#d0d0d0;fill-opacity:1;stroke-width:0.59691"
         d="m 19.356699,92.795316 c 0,-0.317991 0.402914,-0.423561 0.895364,-0.234591 0.492451,0.188976 0.895365,0.449151 0.895365,0.578179 0,0.129022 -0.402914,0.234591 -0.895365,0.234591 -0.49245,0 -0.895364,-0.260181 -0.895364,-0.578179 z m -4.851416,-4.64478 c -0.742478,-0.946734 -0.721366,-0.967847 0.225366,-0.225369 0.574526,0.450577 1.044592,0.920643 1.044592,1.044592 0,0.49128 -0.490174,0.175079 -1.269958,-0.819223 z M 9.9446299,83.822941 c 0,-1.149051 0.1228411,-1.619117 0.2729801,-1.044591 0.150139,0.574525 0.150139,1.514658 0,2.089183 -0.150139,0.574526 -0.2729801,0.104459 -0.2729801,-1.044592 z m 18.5041981,0 c 0,-1.149051 0.122841,-1.619117 0.27298,-1.044591 0.150139,0.574525 0.150139,1.514658 0,2.089183 -0.150139,0.574526 -0.27298,0.104459 -0.27298,-1.044592 z M 18.312107,74.45783 c 0.574525,-0.150135 1.514658,-0.150135 2.089184,0 0.574525,0.15014 0.104459,0.272984 -1.044592,0.272984 -1.149051,0 -1.619118,-0.122844 -1.044592,-0.272984 z"
         id="path682" />
      <path
         style="fill:#b9b9b9;fill-opacity:1;stroke-width:0.59691"
         d="m 16.96906,93.144658 c 0,-0.125859 0.53759,-0.369416 1.194643,-0.541242 0.657054,-0.17182 1.044115,-0.06885 0.860137,0.228837 -0.321287,0.519855 -2.05478,0.783408 -2.05478,0.312405 z m -4.131243,-9.073002 c 0.02864,-0.69537 0.170084,-0.836808 0.360633,-0.360635 0.17243,0.430891 0.151224,0.945726 -0.04713,1.144079 -0.198348,0.198347 -0.339427,-0.154206 -0.313508,-0.783444 z"
         id="path680" />
      <path
         style="fill:#a3a3a3;fill-opacity:1;stroke-width:0.59691"
         d="M 15.604215,97.299859 C 4.5896434,94.33782 1.7616325,79.629138 10.870852,72.681307 c 6.243566,-4.762127 15.72931,-3.154345 20.067672,3.401364 2.16535,3.272062 3.144151,8.628639 1.934383,10.586085 -0.250059,0.404603 -0.312927,0.964958 -0.139708,1.245237 0.561301,0.908204 -3.101597,5.955415 -5.435539,7.489783 -1.980804,1.302212 -6.465616,2.766473 -8.239416,2.690116 -0.3283,-0.01415 -1.882614,-0.371445 -3.454029,-0.794033 z m 9.31396,-5.891814 C 30.733404,86.972553 29.810286,78.327171 23.185802,75.183648 16.81871,72.162264 9.1656599,77.7273 9.9627431,84.799002 10.775575,92.010428 19.230046,95.746593 24.918175,91.408045 Z m -6.755295,0.362748 c 0,-0.532575 -1.074438,-1.960233 -2.387639,-3.172575 -2.061966,-1.903598 -2.387638,-2.548696 -2.387638,-4.7295 0,-5.483378 6.328865,-8.134576 10.193379,-4.270058 3.718465,3.71846 1.340649,10.653792 -4.373511,12.756131 -0.723507,0.266192 -1.044591,0.08668 -1.044591,-0.583998 z"
         id="path678" />
      <path
         style="fill:#606060;fill-opacity:1;stroke-width:0.59691"
         d="m 35.470147,80.119738 c -0.162439,-3.842409 -0.08435,-6.774148 0.173529,-6.51497 0.25788,0.259178 0.390785,3.402976 0.295343,6.986206 l -0.173529,6.51497 z m 43.566607,-0.653228 0.287549,-3.104939 0.198419,2.617962 c 0.109127,1.439884 -0.0203,2.837106 -0.28755,3.104939 -0.267284,0.267833 -0.356569,-0.910251 -0.198418,-2.617962 z M 76.707147,61.986 c 0.02865,-0.69537 0.170083,-0.836807 0.360629,-0.360635 0.172429,0.430892 0.151227,0.945726 -0.0471,1.144079 C 76.822327,62.967791 76.681253,62.615239 76.707171,61.986 Z M 7.5810833,55.76819 c 0,-1.477351 0.116407,-2.081722 0.2586822,-1.343047 0.1422752,0.738676 0.1422752,1.947418 0,2.686094 C 7.6974903,57.849912 7.5810833,57.245541 7.5810833,55.76819 Z M 92.981207,51.888278 c 0.0024,-2.626403 0.107109,-3.626587 0.233206,-2.222633 0.126092,1.403954 0.124319,3.552828 -0.0042,4.775276 -0.128025,1.222449 -0.231195,0.07376 -0.229028,-2.552643 z M 7.597379,45.023817 c 0,-1.805651 0.1119002,-2.544327 0.2486665,-1.641501 0.136767,0.902825 0.136767,2.380177 0,3.283002 C 7.7092792,47.568144 7.597379,46.829469 7.597379,45.023817 Z m 29.116823,-5.720383 c 0.02864,-0.695366 0.170084,-0.836808 0.360633,-0.360634 0.172429,0.430895 0.151223,0.945729 -0.04713,1.144077 -0.198349,0.198348 -0.339428,-0.154202 -0.313509,-0.783443 z m 25.758471,-1.442532 c 0,-1.149051 0.122844,-1.619118 0.272985,-1.044592 0.150135,0.574525 0.150135,1.514658 0,2.089184 -0.150141,0.574525 -0.272985,0.104459 -0.272985,-1.044592 z m 2.387639,0 c 0,-1.149051 0.122844,-1.619118 0.272984,-1.044592 0.150135,0.574525 0.150135,1.514658 0,2.089184 -0.15014,0.574525 -0.272984,0.104459 -0.272984,-1.044592 z m 13.78149,-10.147463 c 0,-2.133952 0.10834,-3.006933 0.240752,-1.939957 0.132407,1.066976 0.132407,2.812937 0,3.879913 -0.132412,1.066976 -0.240752,0.193995 -0.240752,-1.939956 z"
         id="path676" />
      <path
         style="fill:#494949;fill-opacity:1;stroke-width:0.59691"
         d="m 36.748366,83.076804 c 0.0856,-4.557297 0.352746,-4.060155 0.641711,1.19419 0.0948,1.723779 -0.02909,3.133978 -0.275318,3.133775 -0.246225,-2.03e-4 -0.411102,-1.947788 -0.366393,-4.327965 z m 28.020589,1.492274 c 0.05187,-3.1209 0.341659,-2.868419 0.685115,0.59691 0.12202,1.231126 0.0072,2.238411 -0.255191,2.238411 -0.262378,0 -0.455842,-1.275894 -0.429924,-2.835321 z m -1.609979,-4.626049 c 0.0012,-3.939603 0.09779,-5.473584 0.214679,-3.408837 0.116892,2.06474 0.115931,5.288052 -0.0024,7.162915 -0.118075,1.874857 -0.213712,0.185525 -0.212536,-3.754078 z m 1.035185,-1.641501 c -0.03808,-1.887727 0.139312,-3.432231 0.394217,-3.432231 0.254898,0 0.37499,1.14159 0.266872,2.536866 -0.324009,4.181382 -0.587592,4.538375 -0.661089,0.895365 z m -12.206404,2.138924 c -0.550054,-0.550053 -0.503741,-12.598225 0.04974,-12.940296 0.246225,-0.152176 0.447682,2.786672 0.447682,6.530776 0,3.744103 -0.02238,6.807461 -0.04974,6.807461 -0.02736,0 -0.228816,-0.179073 -0.447682,-0.397941 z M 49.328952,74.255979 C 49.23471,69.58454 48.950259,67.593292 48.220453,66.496154 l -0.981727,-1.475865 1.301505,1.231723 c 1.209459,1.144616 1.287855,1.693408 1.108499,7.759825 l -0.193006,6.528102 z m 28.044346,4.493231 c 0.01218,-0.984901 0.145944,-1.315553 0.297285,-0.734778 0.15134,0.580775 0.14139,1.386603 -0.02209,1.790729 -0.163511,0.404125 -0.287334,-0.07105 -0.275169,-1.055951 z M 37.414517,76.361571 c 0.0066,-1.313201 0.128864,-1.780133 0.271641,-1.037632 0.142776,0.742502 0.137356,1.81694 -0.01205,2.387639 -0.149402,0.570699 -0.26622,-0.03681 -0.259595,-1.350007 z m 41.680268,-0.64665 c 0.02865,-0.69537 0.170084,-0.836807 0.360629,-0.360635 0.172429,0.430891 0.151227,0.945726 -0.0471,1.144079 -0.198353,0.198347 -0.339427,-0.154206 -0.313509,-0.783444 z M 76.838891,70.69093 c 0,-1.805651 0.111902,-2.544327 0.248666,-1.641501 0.13677,0.902825 0.13677,2.380177 0,3.283002 -0.136764,0.902826 -0.248666,0.164151 -0.248666,-1.641501 z m -40.283734,0.786064 c 0.430894,-0.172429 0.945728,-0.151227 1.144077,0.0471 0.198347,0.198353 -0.154202,0.339426 -0.783444,0.313508 -0.695366,-0.02865 -0.836808,-0.170083 -0.360633,-0.360629 z m 42.655077,-2.576793 c 0,-1.477351 0.116409,-2.081722 0.258682,-1.343046 0.14228,0.738675 0.14228,1.947417 0,2.686093 -0.142273,0.738676 -0.258682,0.134305 -0.258682,-1.343047 z m -55.893447,1.38849 c 0.372397,-0.271218 0.824908,-1.030344 1.005581,-1.686945 0.259018,-0.941326 0.305185,-0.888094 0.218279,0.251699 -0.06062,0.795036 -0.513131,1.554162 -1.005581,1.686944 -0.5916,0.159519 -0.665654,0.07413 -0.218279,-0.251698 z m -1.456083,-1.686945 c 0.01217,-0.9849 0.145943,-1.315552 0.297286,-0.734777 0.151342,0.580775 0.14139,1.386603 -0.02212,1.790728 -0.16351,0.404126 -0.287336,-0.07105 -0.275171,-1.055951 z m 31.221387,-2.686093 c 0.202901,-0.3283 0.487363,-0.596909 0.632138,-0.596909 0.144775,0 0.263227,0.268609 0.263227,0.596909 0,0.328301 -0.284462,0.59691 -0.632138,0.59691 -0.347675,0 -0.466127,-0.268609 -0.263227,-0.59691 z m 21.787201,-0.03522 c 0,-0.347676 0.268609,-0.466127 0.59691,-0.263226 0.3283,0.202902 0.596909,0.487365 0.596909,0.63214 0,0.144774 -0.268609,0.263225 -0.596909,0.263225 -0.328301,0 -0.59691,-0.284463 -0.59691,-0.632139 z M 23.163889,57.558919 c 0,-3.775453 0.09692,-5.319957 0.215376,-3.43223 0.118458,1.887726 0.118458,4.976733 0,6.86446 -0.118456,1.887727 -0.215376,0.343223 -0.215376,-3.43223 z m 27.332452,-0.447682 c 0.103973,-7.267515 0.355906,-6.437099 0.634243,2.090585 0.08843,2.709248 -0.04068,4.925275 -0.286904,4.924505 -0.246225,-7.7e-4 -0.402528,-3.157562 -0.347339,-7.01509 z m 28.180142,0.447682 c 0,-3.775453 0.09692,-5.319957 0.215377,-3.43223 0.118457,1.887726 0.118457,4.976733 0,6.86446 -0.118457,1.887727 -0.215377,0.343223 -0.215377,-3.43223 z M 48.492179,56.662381 c -0.10195,-3.776098 0.01609,-6.865105 0.262318,-6.86446 0.246225,6.45e-4 0.447682,3.09018 0.447682,6.865633 0,3.775454 -0.118043,6.864461 -0.262318,6.864461 -0.144274,0 -0.345731,-3.089535 -0.447682,-6.865634 z M 21.359304,56.066645 c -0.0018,-2.954703 0.09912,-4.238702 0.224304,-2.853331 0.125186,1.38537 0.126674,3.802854 0.0033,5.372186 -0.123343,1.569332 -0.225768,0.435847 -0.227587,-2.518855 z m 55.512596,0 c -0.0018,-2.954703 0.09912,-4.238702 0.224301,-2.853331 0.125183,1.38537 0.126676,3.802854 0.0036,5.372186 -0.123638,1.569332 -0.226068,0.435847 -0.227882,-2.518855 z m -39.209973,1.094334 c -0.550054,-0.550054 -0.503741,-12.598227 0.04974,-12.940299 0.246225,-0.152176 0.447682,2.786675 0.447682,6.530778 0,3.744103 -0.02238,6.807461 -0.04974,6.807461 -0.02736,0 -0.228816,-0.179073 -0.447682,-0.39794 z M 10.029429,50.694458 c 0.0014,-3.611303 0.09966,-5.011694 0.218476,-3.11198 0.118815,1.899714 0.117713,4.854416 -0.0024,6.566005 -0.120162,1.71159 -0.217374,0.157278 -0.216028,-3.454025 z m 25.070204,0 c 0.0014,-3.611303 0.09966,-5.011694 0.218475,-3.11198 0.118815,1.899714 0.117713,4.854416 -0.0024,6.566005 -0.120163,1.71159 -0.217375,0.157278 -0.216028,-3.454025 z m 27.947834,4.775277 c 0.01218,-0.984901 0.145945,-1.31555 0.297285,-0.734776 0.151341,0.580773 0.14139,1.386601 -0.02208,1.790728 -0.163542,0.404127 -0.287365,-0.07105 -0.2752,-1.055952 z m 2.494557,-4.775277 c 0.0012,-3.611303 0.09966,-5.011694 0.218475,-3.11198 0.118815,1.899714 0.117711,4.854416 -0.0024,6.566005 -0.120224,1.71159 -0.217437,0.157278 -0.216088,-3.454025 z m 25.070204,0 c 0.0012,-3.611303 0.09966,-5.011694 0.218475,-3.11198 0.118814,1.899714 0.11771,4.854416 -0.0024,6.566005 -0.120224,1.71159 -0.217436,0.157278 -0.216087,-3.454025 z m -83.0229968,0 c 0.00448,-1.641501 0.1204044,-2.242179 0.2576064,-1.334839 0.1372027,0.90734 0.1335359,2.250386 -0.00815,2.984548 C 7.697004,53.078328 7.584748,52.335967 7.589229,50.694458 Z M 62.51306,47.411455 c 0,-1.805651 0.111903,-2.544327 0.248667,-1.641501 0.13677,0.902826 0.13677,2.380177 0,3.283003 -0.136764,0.902826 -0.248667,0.16415 -0.248667,-1.641502 z m -12.825892,0.786062 c 0.430894,-0.172429 0.945729,-0.151223 1.144077,0.04713 0.198348,0.198349 -0.154202,0.339428 -0.783444,0.313509 -0.695366,-0.02864 -0.836807,-0.170084 -0.360633,-0.360633 z m 42.655077,-3.77061 c 0,-1.477351 0.116409,-2.081722 0.258683,-1.343046 0.142279,0.738675 0.142279,1.947417 0,2.686093 -0.142274,0.738676 -0.258683,0.134305 -0.258683,-1.343047 z M 33.570609,43.422241 c 0.430894,-0.17243 0.945728,-0.151224 1.144077,0.04713 0.198347,0.198348 -0.154202,0.339427 -0.783444,0.313508 -0.695366,-0.02864 -0.836808,-0.170084 -0.360633,-0.360633 z m 5.185652,-0.786062 c 0.202901,-0.328301 0.487362,-0.59691 0.632137,-0.59691 0.144775,0 0.263227,0.268609 0.263227,0.59691 0,0.3283 -0.284462,0.596909 -0.632137,0.596909 -0.347675,0 -0.466128,-0.268609 -0.263227,-0.596909 z m -4.007817,-5.521043 c 0.30711,-5.643664 0.54435,-6.200996 0.635378,-1.492645 0.04919,2.544327 -0.112021,4.626216 -0.358246,4.62642 -0.246225,2.05e-4 -0.370935,-1.409994 -0.277132,-3.133775 z m 2.133817,-4.029511 c 0,-3.118853 0.100606,-4.394747 0.223568,-2.835321 0.122963,1.559427 0.122963,4.111215 0,5.670642 -0.122962,1.559426 -0.223568,0.283532 -0.223568,-2.835321 z m 27.886694,2.039441 c 0.02865,-0.695365 0.170083,-0.836807 0.360629,-0.360633 0.172429,0.430894 0.151227,0.945729 -0.0471,1.144077 -0.198353,0.198348 -0.339426,-0.154202 -0.313508,-0.783444 z M 23.336096,33.881504 c -0.550054,-0.550053 -0.503741,-12.598227 0.04974,-12.940299 0.246225,-0.152175 0.447682,2.786675 0.447682,6.530779 0,3.744103 -0.02238,6.80746 -0.04974,6.80746 -0.02736,0 -0.228816,-0.179073 -0.447683,-0.39794 z m 39.183059,-2.885063 c 0.0036,-1.969801 0.114785,-2.703666 0.247634,-1.630811 0.132848,1.072855 0.130108,2.684511 -0.0061,3.581458 -0.136203,0.896946 -0.244894,0.01915 -0.241545,-1.950647 z m 16.205505,2.646381 c -0.216398,-0.350143 -0.265434,-0.764642 -0.108966,-0.921108 0.156462,-0.156468 0.443539,0.130013 0.637947,0.636622 0.403618,1.051819 0.05963,1.236832 -0.528981,0.284486 z M 21.379351,26.221165 c 0.001,-4.267904 0.09612,-5.935541 0.211281,-3.705861 0.11516,2.22968 0.114306,5.721602 -0.0019,7.759825 -0.116193,2.038223 -0.210415,0.213939 -0.209371,-4.053964 z m 27.342285,5.969096 c 0.01217,-0.984901 0.145944,-1.315551 0.297286,-0.734777 0.151343,0.580773 0.14139,1.386601 -0.02212,1.790729 -0.16351,0.404127 -0.287336,-0.07105 -0.275171,-1.055952 z m 2.375556,-5.187732 c -0.05736,-3.838153 0.09717,-7.103873 0.343398,-7.257157 0.246225,-0.153283 0.375318,1.912586 0.286873,4.590822 -0.289782,8.775014 -0.524167,9.766567 -0.630271,2.666335 z m 13.693878,3.581458 c -0.03808,-1.868352 0.132216,-3.521521 0.378441,-3.673711 0.246225,-0.152189 0.367422,0.973549 0.269326,2.501638 -0.279832,4.359176 -0.572025,4.88787 -0.647767,1.172073 z m 11.161219,-3.170263 c -0.1032,-3.447845 0.01385,-6.268243 0.26005,-6.267551 0.246225,7.17e-4 0.447682,2.821658 0.447682,6.268811 0,3.447153 -0.117024,6.267551 -0.26005,6.267551 -0.143031,0 -0.344488,-2.820965 -0.447682,-6.268811 z m -41.777605,0.702137 c -0.222085,-1.089253 -0.138891,-1.481742 0.234856,-1.107995 0.318321,0.318321 0.47308,1.077363 0.343909,1.686761 -0.173947,0.820642 -0.324047,0.670542 -0.578765,-0.578766 z M 47.916742,24.13161 c -0.11376,-1.641706 -0.0054,-2.984753 0.240845,-2.984548 0.246225,2.04e-4 0.447682,1.343417 0.447682,2.984919 0,3.850903 -0.421672,3.850675 -0.688527,-3.71e-4 z m 17.886985,0.189523 c 0.430892,-0.17243 0.945726,-0.151223 1.144079,0.04713 0.198347,0.198348 -0.154206,0.339427 -0.783444,0.313509 -0.69537,-0.02864 -0.836807,-0.170084 -0.360635,-0.360633 z m 12.212687,-3.1737 c 0,-1.477351 0.11641,-2.081722 0.258683,-1.343047 0.142279,0.738676 0.142279,1.947418 0,2.686093 -0.142273,0.738676 -0.258683,0.134305 -0.258683,-1.343046 z m -24.198134,0.52284 c 0.404904,-0.407939 0.886554,-0.591341 1.070335,-0.40756 0.183781,0.183781 -0.147503,0.517549 -0.736188,0.741707 -0.850715,0.323934 -0.919278,0.255371 -0.334147,-0.334147 z m 20.939091,-1.527507 c 0.430892,-0.17243 0.945726,-0.151224 1.144079,0.04713 0.198347,0.198348 -0.154205,0.339427 -0.783444,0.313509 -0.69537,-0.02864 -0.836807,-0.170084 -0.360635,-0.360633 z M 24.43043,19.356704 c 0.202901,-0.3283 0.487363,-0.59691 0.632138,-0.59691 0.144775,0 0.263227,0.26861 0.263227,0.59691 0,0.3283 -0.284462,0.59691 -0.632138,0.59691 -0.347675,0 -0.466128,-0.26861 -0.263227,-0.59691 z"
         id="path674" />
      <path
         style="fill:#333333;fill-opacity:1;stroke-width:0.59691"
         d="m 34.727121,88.853713 c -2.144989,-1.163681 -2.254686,-2.92645 -0.149227,-2.398018 l 1.492274,0.374537 v -6.536638 -6.536638 l -5.595294,-3.025287 c -3.077411,-1.663909 -5.763504,-3.025287 -5.969096,-3.025287 -0.205591,0 -0.373802,0.537219 -0.373802,1.193819 0,0.663232 -0.39794,1.193819 -0.895365,1.193819 -0.541335,0 -0.895364,-0.553466 -0.895364,-1.399759 0,-1.820926 -0.881373,-2.541772 -8.207507,-6.712672 L 8.0154163,58.498318 v -8.415663 -8.415662 l 6.7152327,-3.849929 6.715233,-3.849929 0.166442,-7.886189 0.166442,-7.886189 6.399564,-3.597305 c 3.51976,-1.978518 7.013737,-3.597345 7.764394,-3.597394 0.750657,-4.8e-5 4.149941,1.57793 7.553966,3.506618 l 6.189136,3.506707 6.174955,-3.484597 c 3.396225,-1.916528 6.822995,-3.494546 7.615041,-3.506706 0.792051,-0.01216 4.312552,1.592409 7.82333,3.56571 l 6.383244,3.58782 0.379933,4.022778 c 0.208966,2.212527 0.381843,5.695489 0.384177,7.739914 l 0.0042,3.717138 6.118323,3.562464 c 3.365078,1.959355 6.457649,3.778565 6.872376,4.042688 0.969471,0.617414 1.702034,14.174497 0.880692,16.298327 -0.390044,1.008569 -2.5866,2.656442 -6.776565,5.083837 l -6.199462,3.591563 -0.166388,7.874969 -0.166383,7.874975 -5.802713,3.254196 c -9.378226,5.25937 -7.923635,5.162534 -15.231064,1.01397 -3.510156,-1.992818 -6.694549,-3.623307 -7.076363,-3.623307 -0.381814,0 -3.586175,1.611656 -7.120802,3.581458 -3.534627,1.969801 -6.648696,3.570701 -6.920154,3.557557 -0.271457,-0.01313 -1.232234,-0.424635 -2.13506,-0.914424 z m 8.804417,-4.894825 5.969096,-3.419272 0.170061,-6.479579 c 0.11353,-4.325708 -0.06355,-6.761064 -0.532711,-7.326367 -0.386524,-0.465739 -3.336267,-2.337886 -6.554983,-4.16034 l -5.852211,-3.313552 -4.359451,2.505223 c -7.975044,4.58297 -7.826614,3.750078 -1.275393,7.156701 l 5.751481,2.990762 5.227601,-2.699954 c 2.875181,-1.484968 5.543079,-2.699947 5.928664,-2.699947 1.6794,0 -0.113024,1.598924 -4.508035,4.021368 -2.606668,1.436743 -5.07413,2.941373 -5.483249,3.343619 -0.881953,0.867142 -1.808353,13.533713 -0.988359,13.513729 0.296116,-0.0072 3.224486,-1.551792 6.507489,-3.432391 z m 27.82752,-0.01057 6.196327,-3.456065 -0.217173,-6.243716 c -0.119448,-3.434051 -0.301034,-6.335771 -0.403529,-6.448277 -0.277289,-0.304382 -9.901674,5.100264 -11.531201,6.475437 -1.365163,1.152071 -1.394668,1.367537 -0.980204,7.158253 0.235028,3.283737 0.497554,5.970427 0.58339,5.970427 0.08584,0 2.944412,-1.55523 6.35239,-3.456059 z m -7.837895,-3.856084 -0.0069,-6.715233 -2.504312,-1.193819 c -1.377373,-0.6566 -3.939035,-2.055004 -5.692584,-3.107565 -2.285918,-1.37211 -3.271073,-1.697963 -3.480836,-1.151331 -0.160911,0.419329 -0.215108,3.40057 -0.120436,6.62498 l 0.172142,5.862584 5.670641,3.188536 c 3.118853,1.75369 5.737794,3.192708 5.819869,3.197817 0.08207,0.0054 0.146147,-3.012572 0.142381,-6.705951 z m 6.792682,-11.181412 5.719069,-2.973911 -5.6524,-3.326613 -5.652406,-3.326617 -4.927643,2.68941 c -2.710204,1.47919 -5.464863,3.097143 -6.121464,3.595461 l -1.193819,0.906037 1.193819,0.03671 c 0.656601,0.02018 3.342694,1.233114 5.969096,2.695376 2.626402,1.462261 4.813843,2.663022 4.860975,2.668359 0.04716,0.0054 2.659286,-1.32856 5.804773,-2.964206 z M 33.234847,58.335264 35.473258,56.947033 V 50.68697 c 0,-3.443034 -0.201457,-6.25915 -0.447682,-6.258034 -0.246225,0.0011 -2.999471,1.411315 -6.118324,3.133775 l -5.670641,3.131747 -0.169154,6.75559 -0.169154,6.755591 4.049067,-2.241074 c 2.226986,-1.232588 5.056351,-2.865775 6.287477,-3.629301 z m 23.798383,2.333599 6.196325,-3.456061 -0.217174,-6.24372 c -0.119447,-3.434046 -0.28697,-6.321705 -0.372275,-6.417021 -0.0853,-0.09531 -2.646818,1.180579 -5.692261,2.835321 -3.045442,1.654742 -5.76547,3.008622 -6.044507,3.008622 -0.279037,0 -0.50734,3.089007 -0.50734,6.86446 0,3.775453 0.0992,6.86446 0.220453,6.86446 0.121249,0 3.0088,-1.55523 6.416779,-3.456061 z m 31.71421,-2.333599 2.238411,-1.388231 V 50.68697 c 0,-3.443034 -0.201457,-6.25915 -0.447682,-6.258034 -0.246225,0.0011 -2.999471,1.411315 -6.118323,3.133775 l -5.670642,3.131747 -0.169152,6.75559 -0.169158,6.755591 4.049071,-2.241074 c 2.226986,-1.232588 5.056349,-2.865775 6.287475,-3.629301 z M 21.744337,57.333553 c 0,-4.237338 -0.23574,-6.384205 -0.746137,-6.795012 -0.410375,-0.330301 -3.105855,-1.869989 -5.989954,-3.421527 l -5.2438172,-2.820978 0.1700853,6.450353 0.1700859,6.450355 5.372186,3.136803 c 2.954703,1.72524 5.573644,3.149777 5.819869,3.165637 0.246225,0.01588 0.447682,-2.758677 0.447682,-6.165631 z m 27.416834,-0.520771 -0.04101,-6.715233 -5.331178,-2.673157 c -2.932148,-1.470235 -5.331178,-2.896287 -5.331178,-3.169003 0,-0.272715 -0.268609,-0.329837 -0.596909,-0.126936 -0.335894,0.207593 -0.59691,3.07759 -0.59691,6.563308 v 6.194399 l 5.819869,3.315264 c 3.200927,1.823393 5.887021,3.31781 5.969096,3.320926 0.08208,0.003 0.130773,-3.01619 0.108219,-6.709568 z m 28.095759,0.520771 c 0,-4.235569 -0.235952,-6.385425 -0.746137,-6.798329 -0.838872,-0.678919 -10.6042,-6.108317 -10.986437,-6.108317 -0.135302,0 -0.169767,2.873213 -0.07658,6.384919 l 0.169421,6.384918 5.372187,3.136803 c 2.954702,1.72524 5.573643,3.149777 5.819868,3.165637 0.246225,0.01588 0.447682,-2.758677 0.447682,-6.165631 z M 27.786683,46.217636 c 2.715533,-1.313201 5.43746,-2.387638 6.048727,-2.387638 1.881191,0 0.634703,-1.018345 -5.494028,-4.488463 l -5.893861,-3.337132 -5.435086,3.090229 c -2.989297,1.699626 -5.569684,3.308012 -5.734191,3.574192 -0.24649,0.398827 9.845427,5.71702 11.167827,5.885171 0.221804,0.0282 2.625079,-1.023158 5.340612,-2.336359 z m 28.500282,-0.558695 5.592512,-2.900022 -5.756161,-3.387681 -5.756162,-3.387681 -4.014718,2.211484 c -2.208094,1.216317 -4.881262,2.731087 -5.940371,3.366155 l -1.925654,1.154671 5.507112,2.853458 c 3.02891,1.569402 5.77572,2.884098 6.10402,2.921548 0.328301,0.03745 3.113541,-1.23692 6.189422,-2.831932 z m 27.914842,0.0107 5.643756,-2.935636 -5.964004,-3.376849 -5.964005,-3.376849 -4.359452,2.505222 c -8.275483,4.755625 -8.08323,3.910483 -1.635991,7.191936 3.098301,1.576944 5.858876,2.880815 6.134607,2.897492 0.27573,0.01668 3.041021,-1.290716 6.145089,-2.905316 z M 48.686549,27.689607 c -0.119447,-3.434046 -0.275503,-6.310239 -0.346792,-6.391541 -0.177919,-0.202909 -9.799357,5.006829 -10.836771,5.867806 -0.622224,0.516401 -0.835909,2.34243 -0.835909,7.143203 v 6.449461 l 6.118324,-3.412604 6.118323,-3.412605 z M 35.46807,36.81631 c -0.0029,-1.887727 -0.17405,-4.838004 -0.380435,-6.556173 L 34.712389,27.136194 29.57141,24.366101 c -2.827539,-1.523551 -5.231074,-3.007 -5.341189,-3.296555 -0.110116,-0.289553 -0.445877,-0.37463 -0.746137,-0.189059 -0.300261,0.185571 -0.545928,3.124881 -0.545928,6.5318 v 6.194399 l 5.819869,3.315263 c 3.200928,1.823396 6.021326,3.317813 6.267551,3.320928 0.246225,0.0031 0.445348,-1.53884 0.442494,-3.426567 z M 62.9311,33.967843 v -6.280697 l -2.6938,-1.708358 c -1.481591,-0.939596 -3.49616,-2.040705 -4.476822,-2.446909 -1.68579,-0.698277 -2.433941,-1.787537 -1.227759,-1.787537 0.305395,0 2.335159,0.823834 4.510587,1.830741 4.603005,2.130524 5.568811,2.047585 11.144328,-0.957033 2.082463,-1.122227 4.272214,-2.046513 4.866115,-2.053969 1.838004,-0.02308 0.588893,-1.039962 -5.540539,-4.510475 l -5.90879,-3.345588 -6.156529,3.557049 -6.156528,3.55705 v 7.046161 7.046161 l 5.372186,3.138219 c 2.954703,1.72602 5.573643,3.151193 5.819869,3.16705 0.246225,0.01586 0.447682,-2.797482 0.447682,-6.251865 z m 8.05828,3.114927 5.372186,-3.113284 0.169421,-6.411027 c 0.09318,-3.526064 0.03265,-6.411026 -0.134532,-6.411026 -0.16717,0 -2.862354,1.366989 -5.989289,3.037752 l -5.685337,3.037752 v 6.512801 c 0,3.582042 0.201457,6.500993 0.447682,6.486559 0.246225,-0.01443 2.865166,-1.42722 5.819869,-3.139527 z m -28.985927,-14.685563 5.63483,-2.867951 -5.79848,-3.412587 -5.798479,-3.412587 -4.014718,2.211484 c -2.208095,1.216317 -4.870434,2.724395 -5.916309,3.351284 l -1.901592,1.1398 5.48305,2.908796 c 3.015676,1.599838 5.751658,2.918003 6.079958,2.929254 0.3283,0.01125 3.132583,-1.27012 6.23174,-2.847493 z"
         id="path672" />
    </g>
  </g>
</svg>
