<?xml version="1.0" encoding="UTF-8" standalone="no"?>
<!-- Created with Inkscape (http://www.inkscape.org/) -->

<svg
   width="100mm"
   height="100mm"
   viewBox="0 0 100 100"
   version="1.1"
   id="svg1491"
   inkscape:version="1.1.1 (3bf5ae0d25, 2021-09-20)"
   sodipodi:docname="add_list_type_device_6076.svg"
   xmlns:inkscape="http://www.inkscape.org/namespaces/inkscape"
   xmlns:sodipodi="http://sodipodi.sourceforge.net/DTD/sodipodi-0.dtd"
   xmlns="http://www.w3.org/2000/svg"
   xmlns:svg="http://www.w3.org/2000/svg">
  <sodipodi:namedview
     id="namedview1493"
     pagecolor="#505050"
     bordercolor="#ffffff"
     borderopacity="1"
     inkscape:pageshadow="0"
     inkscape:pageopacity="0"
     inkscape:pagecheckerboard="1"
     inkscape:document-units="mm"
     showgrid="false"
     inkscape:zoom="0.58974467"
     inkscape:cx="397.62971"
     inkscape:cy="310.30378"
     inkscape:window-width="1440"
     inkscape:window-height="890"
     inkscape:window-x="-6"
     inkscape:window-y="-6"
     inkscape:window-maximized="1"
     inkscape:current-layer="layer1" />
  <defs
     id="defs1488" />
  <g
     inkscape:label="Laag 1"
     inkscape:groupmode="layer"
     id="layer1">
    <g
       id="g1507"
       transform="translate(1.7945621,-0.89728107)">
      <path
         style="fill:#d0d0d0;fill-opacity:1;stroke-width:0.599679"
         d="m 14.117214,89.001425 c -0.745923,-0.951126 -0.724712,-0.972337 0.226412,-0.226414 0.577191,0.452667 1.049438,0.924914 1.049438,1.049438 0,0.49356 -0.492448,0.175892 -1.27585,-0.823024 z"
         id="path1517" />
      <path
         style="fill:#b9b9b9;fill-opacity:1;stroke-width:0.599679"
         d="m 47.636549,95.013369 c 1.077833,-0.133464 2.696967,-0.130712 3.598074,0.0061 0.901108,0.136835 0.01924,0.24603 -1.959696,0.242666 -1.978941,-0.0036 -2.716211,-0.115318 -1.638378,-0.248783 z M 16.592422,94.018718 c 0,-0.126443 0.540084,-0.37113 1.200186,-0.543753 0.660102,-0.172618 1.048959,-0.06917 0.864127,0.229899 -0.322778,0.522266 -2.064313,0.787042 -2.064313,0.313854 z m 37.827119,-1.31927 c 0.02877,-0.698596 0.170873,-0.84069 0.362306,-0.362308 0.17323,0.43289 0.151925,0.950113 -0.04734,1.149386 -0.199269,0.199268 -0.341002,-0.154921 -0.314964,-0.787078 z M 50.449903,89.900944 C 50.292284,89.488665 50.235385,72.420302 50.323463,51.971248 l 0.160139,-37.180097 0.145262,37.579883 c 0.113615,29.393022 0.308562,37.645774 0.894859,37.882353 0.587121,0.236909 0.583042,0.312733 -0.01882,0.349811 -0.42263,0.02603 -0.89738,-0.289975 -1.055,-0.702254 z m -2.431429,-9.145105 c 7.79e-4,-5.277175 0.0925,-7.35574 0.203869,-4.619039 0.11137,2.736707 0.110749,7.054396 -0.0014,9.594864 -0.112129,2.540474 -0.20325,0.30135 -0.20249,-4.975825 z m -35.529118,3.897914 c 0,-0.824559 0.136111,-1.161878 0.30247,-0.749599 0.166358,0.412279 0.166358,1.086918 0,1.499197 -0.166359,0.41228 -0.30247,0.07496 -0.30247,-0.749598 z m 12.593258,0 c 0,-0.824559 0.136111,-1.161878 0.30247,-0.749599 0.166358,0.412279 0.166358,1.086918 0,1.499197 -0.166359,0.41228 -0.30247,0.07496 -0.30247,-0.749598 z M 18.24154,78.259808 c 0.412279,-0.166357 1.086918,-0.166357 1.499197,0 0.412279,0.166356 0.07496,0.302472 -0.749599,0.302472 -0.824558,0 -1.161878,-0.136116 -0.749598,-0.302472 z M 48.046757,22.336243 c 0.02373,-6.627168 0.187485,-8.089723 0.92833,-8.29124 0.64625,-0.175787 0.693772,-0.09851 0.168779,0.274471 -0.491354,0.349079 -0.79547,3.065235 -0.928331,8.29124 l -0.19759,7.772091 z"
         id="path1515" />
      <path
         style="fill:#a3a3a3;fill-opacity:1;stroke-width:0.599679"
         d="M 14.595574,98.103689 C 7.9959684,96.005352 3.6660567,88.568733 5.1591892,81.896717 7.6648731,70.70014 20.877586,66.719231 28.901623,74.743266 c 3.553065,3.553068 4.946138,8.0888 3.90846,12.725632 -1.838489,8.215236 -10.295113,13.152752 -18.214509,10.634791 z m 9.982843,-5.829642 c 5.842209,-4.45607 4.914808,-13.141563 -1.740411,-16.29967 -6.396632,-3.035401 -14.0851881,2.555454 -13.2844068,9.659965 0.8166028,7.244884 9.3102988,10.998382 15.0248178,6.639705 z m -6.786637,0.364431 c 0,-0.535045 -1.079422,-1.969327 -2.398716,-3.187293 -2.071532,-1.912431 -2.398715,-2.560522 -2.398715,-4.751443 0,-5.508819 6.358227,-8.172317 10.240671,-4.289869 3.735717,3.735712 1.34687,10.70322 -4.393801,12.815313 -0.726864,0.267427 -1.049439,0.08709 -1.049439,-0.586708 z"
         id="path1513" />
      <path
         style="fill:#494949;fill-opacity:1;stroke-width:0.599679"
         d="m 47.670488,91.445609 c 0.2559,-1.255104 0.406696,-1.405899 0.581451,-0.581449 0.12977,0.612224 -0.02571,1.374788 -0.345505,1.694585 -0.375481,0.375483 -0.459061,-0.01883 -0.235946,-1.113136 z m -3.043073,0.606815 c 0.412279,-0.166357 1.086918,-0.166357 1.499197,0 0.41228,0.166357 0.07496,0.302472 -0.749598,0.302472 -0.824559,0 -1.161878,-0.136115 -0.749599,-0.302472 z"
         id="path1511" />
      <path
         style="fill:#333333;fill-opacity:1;stroke-width:0.599679"
         d="m 44.327575,93.860222 c -2.921816,-1.440351 -2.511093,-2.339024 1.480451,-3.239262 1.980676,-0.446718 2.07427,-0.396154 1.811465,0.978623 -0.152418,0.797321 -0.04931,1.449675 0.229135,1.449675 0.278442,0 0.511484,-17.586191 0.517871,-39.080431 0.0064,-21.494237 0.127979,-39.196797 0.270205,-39.339022 1.370119,-1.370119 1.537743,2.797078 1.537743,38.228705 v 37.696738 l 1.839558,0.404033 c 2.260393,0.496469 2.951764,1.971877 1.441496,3.076216 -1.508762,1.103229 -6.738105,1.002819 -9.127924,-0.175275 z m 1.799037,-1.807798 c -0.412279,-0.166357 -1.086918,-0.166357 -1.499197,0 -0.412279,0.166357 -0.07496,0.302472 0.749599,0.302472 0.824558,0 1.161878,-0.136115 0.749598,-0.302472 z"
         id="path1509" />
    </g>
  </g>
</svg>
