<?xml version="1.0" encoding="UTF-8" standalone="no"?>
<!-- Created with Inkscape (http://www.inkscape.org/) -->

<svg
   width="100mm"
   height="100mm"
   viewBox="0 0 100 100"
   version="1.1"
   id="svg2637"
   inkscape:version="1.1.1 (3bf5ae0d25, 2021-09-20)"
   sodipodi:docname="add_list_type_device_611a.svg"
   xmlns:inkscape="http://www.inkscape.org/namespaces/inkscape"
   xmlns:sodipodi="http://sodipodi.sourceforge.net/DTD/sodipodi-0.dtd"
   xmlns="http://www.w3.org/2000/svg"
   xmlns:svg="http://www.w3.org/2000/svg">
  <sodipodi:namedview
     id="namedview2639"
     pagecolor="#ffffff"
     bordercolor="#666666"
     borderopacity="1.0"
     inkscape:pageshadow="2"
     inkscape:pageopacity="0.0"
     inkscape:pagecheckerboard="0"
     inkscape:document-units="mm"
     showgrid="false"
     width="100mm"
     inkscape:zoom="0.58974467"
     inkscape:cx="378.97757"
     inkscape:cy="344.21676"
     inkscape:window-width="1440"
     inkscape:window-height="890"
     inkscape:window-x="-6"
     inkscape:window-y="-6"
     inkscape:window-maximized="1"
     inkscape:current-layer="layer1" />
  <defs
     id="defs2634" />
  <g
     inkscape:label="Laag 1"
     inkscape:groupmode="layer"
     id="layer1">
    <g
       id="g2653">
      <path
         style="fill:#d0d0d0;fill-opacity:1;stroke-width:0.591371"
         d="m 18.878889,92.852262 c 0.192239,-0.311049 0.740178,-0.415633 1.217643,-0.232414 1.22243,0.469093 1.078378,0.79796 -0.349525,0.79796 -0.669703,0 -1.060356,-0.254496 -0.868118,-0.565546 z m -6.268864,-2.243465 c -0.735589,-0.93795 -0.714672,-0.958867 0.223275,-0.223278 0.569195,0.446396 1.034899,0.9121 1.034899,1.034899 0,0.486721 -0.485625,0.173455 -1.258174,-0.811621 z m 1.774113,-2.365484 c -0.735589,-0.93795 -0.714672,-0.958866 0.223275,-0.223278 0.569194,0.446396 1.034899,0.912101 1.034899,1.034899 0,0.486722 -0.485626,0.173455 -1.258174,-0.811621 z m 24.802126,-1.143185 c 0.426896,-0.170829 0.936953,-0.149824 1.133461,0.04666 0.196507,0.196507 -0.152771,0.336278 -0.776174,0.3106 -0.688914,-0.02839 -0.829043,-0.168505 -0.357287,-0.357282 z m 23.765716,0.171557 c 0,-0.127831 0.412996,-0.390896 0.917772,-0.5846 0.526273,-0.201947 0.763649,-0.10281 0.556468,0.232415 -0.347288,0.561926 -1.47424,0.831142 -1.47424,0.352185 z M 9.8658032,83.955874 c 0,-1.138388 0.1217012,-1.604093 0.2704478,-1.034899 0.148745,0.569195 0.148745,1.500604 0,2.069798 -0.1487466,0.569195 -0.2704478,0.10349 -0.2704478,-1.034899 z m 18.3324968,0 c 0,-1.138388 0.121701,-1.604093 0.270447,-1.034899 0.148746,0.569195 0.148746,1.500604 0,2.069798 -0.148746,0.569195 -0.270447,0.10349 -0.270447,-1.034899 z m 11.579335,0.1874 c 0.426896,-0.170829 0.936953,-0.149824 1.133461,0.04666 0.196507,0.196507 -0.152771,0.336277 -0.776174,0.3106 -0.688914,-0.02839 -0.829043,-0.168505 -0.357287,-0.357283 z m 16.558384,0 c 0.426896,-0.170829 0.936953,-0.149824 1.133461,0.04666 0.196507,0.196507 -0.152772,0.336277 -0.776175,0.3106 -0.688913,-0.02839 -0.829042,-0.168505 -0.357286,-0.357283 z m 7.09645,0 c 0.426893,-0.170829 0.93695,-0.149824 1.133463,0.04666 0.196506,0.196507 -0.152775,0.336277 -0.776175,0.3106 -0.688917,-0.02839 -0.829042,-0.168505 -0.357288,-0.357283 z M 36.820781,83.551903 c 0.426895,-0.170829 0.936953,-0.149824 1.133461,0.04666 0.196507,0.196507 -0.152772,0.336277 -0.776175,0.3106 -0.688913,-0.02839 -0.829042,-0.168505 -0.357286,-0.357283 z m 23.654834,0 c 0.426893,-0.170829 0.93695,-0.149824 1.133462,0.04666 0.196507,0.196507 -0.152774,0.336277 -0.776174,0.3106 -0.688915,-0.02839 -0.829044,-0.168505 -0.357288,-0.357283 z m -22.952582,-0.77877 -2.069798,-0.435675 1.887055,-0.07785 c 1.03788,-0.04281 2.051523,0.188269 2.252541,0.513523 0.201019,0.325254 0.283253,0.556338 0.182744,0.513523 -0.100509,-0.04282 -1.114153,-0.273906 -2.252542,-0.513523 z m 23.211306,-0.40765 c 0.569195,-0.148742 1.500604,-0.148742 2.069798,0 0.569195,0.148748 0.10349,0.270452 -1.034899,0.270452 -1.138389,0 -1.604093,-0.121704 -1.034899,-0.270452 z m 17.22629,-0.408099 c 0.0746,-0.508271 0.300783,-1.089276 0.502624,-1.291122 0.201847,-0.201841 0.305958,0.04885 0.231362,0.557136 -0.0746,0.508272 -0.300783,1.089276 -0.502624,1.291122 -0.201846,0.201841 -0.305957,-0.04885 -0.231362,-0.557136 z M 35.607973,80.580767 c 0.735614,-0.14145 1.800081,-0.13608 2.365483,0.01195 0.565403,0.148014 -0.03646,0.263751 -1.337479,0.257187 -1.301016,-0.0066 -1.763617,-0.127671 -1.028004,-0.269121 z m 23.95488,0.0085 c 0.575384,-0.149936 1.373735,-0.140078 1.774111,0.02194 0.400376,0.161994 -0.07039,0.284668 -1.046153,0.272616 -0.975762,-0.01206 -1.303343,-0.14459 -0.727958,-0.294527 z m 16.35404,-0.329417 c -0.345638,-1.129371 -0.354994,-2.265962 -0.02034,-2.472782 0.231232,-0.142911 0.420423,0.388264 0.420423,1.180394 0,1.1937 -0.216365,1.892647 -0.400068,1.292388 z M 35.748921,78.337851 c -0.7639,-0.813135 -1.17688,-1.478427 -0.91773,-1.478427 0.259149,0 0.114002,-0.465704 -0.322549,-1.034899 -0.43655,-0.569194 -0.07101,-0.390736 0.812314,0.396579 0.883324,0.787316 1.476342,1.561178 1.31782,1.719701 -0.158523,0.158523 0.0082,0.645357 0.370428,1.081848 1.142678,1.376841 0.190444,0.859427 -1.260283,-0.684802 z m 27.991552,0.617386 c 0,-0.473576 0.226104,-0.721301 0.502458,-0.550508 0.276347,0.170794 0.349352,0.55826 0.162219,0.861042 -0.478195,0.773738 -0.664677,0.686617 -0.664677,-0.310534 z m -31.831276,-0.9063 c -0.207181,-0.335224 0.0302,-0.434362 0.55647,-0.232415 1.024501,0.393138 1.211947,0.817015 0.361301,0.817015 -0.306059,0 -0.719056,-0.263072 -0.917771,-0.5846 z m 6.129775,-0.450299 c -0.735589,-0.93795 -0.714672,-0.958867 0.223275,-0.223278 0.569194,0.446396 1.034899,0.912101 1.034899,1.034899 0,0.486722 -0.485625,0.173455 -1.258174,-0.811621 z m 0.617291,-1.685928 c -0.664352,-0.800497 -1.437935,-3.103342 -0.842451,-2.507855 0.111117,0.111118 0.157677,0.373681 0.103469,0.58347 -0.05421,0.209794 0.408387,0.941616 1.027992,1.62627 0.619605,0.684659 0.984836,1.244829 0.811624,1.244829 -0.173212,0 -0.668497,-0.426023 -1.100634,-0.946714 z M 59.854178,75.8498 c 0.735613,-0.14145 1.80008,-0.13608 2.365484,0.01195 0.565404,0.148014 -0.03649,0.263752 -1.33748,0.257187 -1.301016,-0.0066 -1.763617,-0.127671 -1.028004,-0.269121 z m -24.77206,-1.208016 c -0.735589,-0.93795 -0.714673,-0.958867 0.223275,-0.223278 0.569194,0.446396 1.034899,0.9121 1.034899,1.034899 0,0.486721 -0.485626,0.173455 -1.258174,-0.811621 z m 4.473511,-0.887057 -1.73691,-1.921955 1.921955,1.736909 c 1.791532,1.619044 2.19378,2.107002 1.73691,2.107002 -0.101775,0 -0.966655,-0.86488 -1.921955,-1.921956 z m -21.399991,0.922935 c 0.569195,-0.148742 1.500604,-0.148742 2.069798,0 0.569194,0.148748 0.10349,0.270452 -1.034899,0.270452 -1.138389,0 -1.604093,-0.121704 -1.034899,-0.270452 z m 41.39596,0 c 0.569194,-0.148742 1.500603,-0.148742 2.069798,0 0.569194,0.148748 0.10349,0.270452 -1.034899,0.270452 -1.138389,0 -1.604094,-0.121704 -1.034899,-0.270452 z m -0.295686,-1.783811 c 0.731822,-0.140959 1.929348,-0.140959 2.661169,0 0.731822,0.140953 0.133059,0.256282 -1.330584,0.256282 -1.463643,0 -2.062406,-0.115329 -1.330585,-0.256282 z M 72.51217,72.79307 c -0.649142,-0.411494 -0.640413,-0.556959 0.04926,-0.821622 0.478064,-0.183449 0.838079,0.03525 0.838079,0.509076 0,0.45687 -0.02218,0.826601 -0.04926,0.821621 -0.02708,-0.0047 -0.404238,-0.234064 -0.838079,-0.509075 z M 35.393325,71.980615 c -0.233969,-0.406568 -0.20763,-0.541933 0.05853,-0.300819 0.266161,0.24112 0.907589,0.108061 1.425396,-0.295685 0.832997,-0.649503 0.847957,-0.614843 0.129844,0.300818 -0.967348,1.233464 -1.063921,1.251158 -1.61377,0.295686 z m 6.866079,-0.732703 c -0.401933,-0.484297 -1.007868,-0.709296 -1.346523,-0.499998 -0.369316,0.228251 -0.437339,0.09189 -0.16997,-0.340718 0.334982,-0.542015 0.72512,-0.468461 1.569799,0.295963 0.618218,0.559484 1.124032,1.109051 1.124032,1.22127 0,0.439619 -0.479876,0.163874 -1.177338,-0.676517 z m 32.717115,0.01951 c 0,-0.473575 0.226105,-0.721301 0.502458,-0.550507 0.276348,0.170794 0.349352,0.55826 0.162219,0.861042 -0.478194,0.773738 -0.664677,0.686617 -0.664677,-0.310535 z M 38.441306,69.813495 c -0.190407,-0.308087 -0.09412,-0.715943 0.21396,-0.906347 0.308085,-0.19041 0.715942,-0.09413 0.906349,0.213958 0.190407,0.308086 0.09412,0.715943 -0.21396,0.906347 -0.308085,0.190409 -0.715942,0.09413 -0.906349,-0.213958 z m -19.917572,-1.08542 c -0.735589,-0.93795 -0.714672,-0.958866 0.223275,-0.223278 0.985075,0.772549 1.298342,1.258177 0.811624,1.258177 -0.122802,0 -0.588506,-0.465705 -1.034899,-1.034899 z m -4.871337,-0.01857 c -0.16364,-0.26478 -0.086,-0.823667 0.172526,-1.241973 0.367171,-0.594098 0.54713,-0.559703 0.822208,0.157139 0.372147,0.969801 -0.486852,1.906603 -0.994734,1.084834 z m 58.761517,0.277051 c 0,-0.101775 0.86488,-0.966654 1.921955,-1.921955 l 1.921955,-1.736909 -1.736909,1.921955 c -1.619043,1.791534 -2.107001,2.193779 -2.107001,1.736909 z m -50.311281,-1.98011 c -0.788518,-0.865584 -1.034493,-1.335363 -0.546613,-1.043953 0.487881,0.291404 1.127805,0.533907 1.422053,0.538886 0.294248,0.0047 0.603347,0.474759 0.686887,1.043953 0.197261,1.344033 0.13265,1.321744 -1.562327,-0.538886 z M 3.1160785,63.720767 C 2.062918,60.325709 1.7941884,58.119246 1.8466614,53.297937 c 0.03982,-3.65873 0.3342465,-6.383729 0.7328017,-6.782285 0.4940693,-0.494069 0.564765,-0.158876 0.273571,1.297095 -0.2262177,1.131088 -0.1379626,2.125968 0.2082009,2.347004 0.7106327,0.453758 1.3419773,10.664745 0.6845238,11.071074 -0.7236088,0.447216 0.6929259,3.801182 1.6054141,3.801182 1.0767114,0 1.0597096,1.036721 -0.034954,2.131384 -0.7579651,0.757965 -1.0283344,0.334911 -2.2001404,-3.442624 z m 21.9127345,3.233195 c -0.735589,-0.937949 -0.714672,-0.958866 0.223275,-0.223278 0.569195,0.446397 1.034899,0.912101 1.034899,1.034899 0,0.486722 -0.485625,0.173455 -1.258174,-0.811621 z m 46.202359,0.478431 c 0,-0.306058 0.263071,-0.719059 0.5846,-0.917772 0.335224,-0.207181 0.434362,0.03022 0.232414,0.556468 -0.393137,1.024503 -0.817014,1.21195 -0.817014,0.361304 z M 27.093226,63.952826 c -0.830474,-2.52935 -1.101924,-5.126826 -1.101924,-10.54417 0,-3.953439 -0.186142,-7.072916 -0.413649,-6.932174 -0.227506,0.140744 -0.590316,-0.685824 -0.806243,-1.836818 -0.411254,-2.192169 0.188489,-3.418505 2.197709,-4.493807 0.977474,-0.523127 1.017298,-0.426228 0.438587,1.067186 -0.712193,1.837879 -1.114432,9.034693 -0.504961,9.034693 0.215425,0 0.551657,2.074529 0.747184,4.610065 0.195526,2.535536 0.54631,5.107302 0.779519,5.715035 0.294411,0.767222 0.212539,0.97427 -0.267851,0.677371 -0.847474,-0.523768 -0.881601,0.248915 -0.101605,2.300458 0.324645,0.853886 0.856879,1.387734 1.182742,1.186343 0.325863,-0.201397 0.592478,0.153295 0.592478,0.788197 0,0.634907 -0.369014,1.295977 -0.820031,1.469048 -0.575559,0.220865 -1.148542,-0.685861 -1.921955,-3.041427 z M 7.6263102,64.979428 C 5.876099,62.147525 4.9286877,50.345131 6.2301363,47.586567 c 0.4809986,-1.019529 0.5279266,-0.961172 0.3400711,0.422898 -0.1198606,0.883101 -0.030989,1.681451 0.1974933,1.774112 0.6010799,0.243767 1.2438131,9.926093 0.6589148,9.926093 -0.2699693,0 -0.3636747,0.665292 -0.2082341,1.478427 0.1554407,0.813135 0.6080558,1.478427 1.0058112,1.478427 0.3977555,0 1.0263194,0.665292 1.3968085,1.478427 0.5911689,1.297473 0.5346779,1.478427 -0.461546,1.478427 -0.6243392,0 -1.3142549,-0.289778 -1.5331449,-0.64395 z M 30.715089,62.518681 c -1.24711,-4.118799 -1.705434,-10.227839 -0.987164,-13.158001 0.353513,-1.442147 0.603038,-1.846107 0.639254,-1.034899 0.03267,0.731821 0.305969,1.330584 0.607325,1.330584 0.301356,0 0.634002,2.262614 0.739213,5.028033 0.105212,2.765418 -0.0083,5.027411 -0.252235,5.026652 -0.92772,-0.0029 -0.384766,1.66343 1.04454,3.205677 1.504895,1.62381 1.496241,2.706651 -0.02163,2.706651 -0.48674,0 -1.217519,-1.28234 -1.769301,-3.104697 z M 73.005285,65.4001 c 0,-0.122798 0.465704,-0.588503 1.034899,-1.034899 0.937949,-0.735588 0.958866,-0.714672 0.223278,0.223278 -0.77255,0.985076 -1.258177,1.298343 -1.258177,0.811621 z m -0.71265,-2.360457 c 0.129227,-1.106916 -0.0746,-2.641637 -0.452942,-3.410489 -0.674814,-1.371322 -0.664902,-1.369791 0.521382,0.08052 1.11474,1.362844 1.211015,1.38596 1.231488,0.295685 0.01839,-0.981421 0.119782,-1.031751 0.595463,-0.295685 0.831923,1.287307 0.705908,1.877927 -0.790757,3.706174 L 72.057678,65.05223 Z M 34.276496,61.319514 c -0.964268,-3.247043 -1.200201,-12.036693 -0.35875,-13.365182 1.008269,-1.591862 1.633012,-0.07359 1.359211,3.303189 -0.152763,1.884023 -0.500531,3.569495 -0.772817,3.745494 -0.733932,0.474394 0.09986,4.706655 0.927251,4.706655 0.390752,0 0.989349,0.908707 1.330215,2.019348 0.543288,1.770197 0.483306,2.055031 -0.486147,2.308552 -0.900707,0.235537 -1.271609,-0.26879 -1.998963,-2.718056 z M 10.451561,61.631625 C 9.249667,57.512022 9.0000919,54.972676 9.4156866,51.091912 c 0.5500613,-5.136392 1.7308364,-4.784766 1.9673994,0.585876 0.117833,2.675159 -0.02884,3.870327 -0.443528,3.614037 -0.79013,-0.488328 -0.81299,2.612118 -0.02821,3.826474 0.509564,0.788494 0.578662,0.788494 0.621876,0 0.03594,-0.655809 1.68033,3.688882 1.73463,4.583124 0.005,0.08131 -0.481133,0.147842 -1.080157,0.147842 -0.749288,0 -1.291021,-0.69198 -1.736133,-2.21764 z m 4.838594,1.717642 c 0.232078,-0.375508 0.171729,-0.682743 -0.134108,-0.682743 -1.379541,0 -2.721669,-13.011064 -1.424807,-13.81257 0.249927,-0.154463 0.355033,0.761241 0.233571,2.034897 -0.121463,1.273657 0.03616,2.315739 0.350272,2.315739 0.998884,0 2.048256,9.903368 1.110765,10.48277 -0.306708,0.189558 -0.36777,0.03743 -0.135693,-0.338093 z m 22.603321,-3.541853 c -1.043321,-3.718368 -1.199826,-8.56209 -0.337543,-10.446734 0.418426,-0.914533 0.50958,-0.646323 0.401963,1.182741 -0.0961,1.633323 0.08962,2.319723 0.600036,2.217641 0.502475,-0.100495 0.739214,0.692089 0.739214,2.474828 0,1.442469 0.25953,3.305287 0.576734,4.139596 0.398888,1.049155 0.379377,1.516925 -0.06327,1.516925 -0.352003,0 -0.490097,0.390653 -0.306876,0.868115 0.18322,0.477467 0.112274,1.004615 -0.157659,1.171441 -0.269932,0.166831 -0.923601,-1.239218 -1.452599,-3.124553 z m -18.538039,1.261254 c -0.91927,-0.177795 -1.495158,-0.908001 -1.918657,-2.432793 -1.141787,-4.110957 -0.601815,-9.570881 0.946535,-9.570881 0.612393,0 0.802104,0.758387 0.726197,2.903034 -0.07837,2.214224 -0.298549,2.827899 -0.927958,2.586371 -0.638807,-0.245133 -0.735611,0.06758 -0.428555,1.384406 0.21816,0.935586 0.720444,1.967183 1.116185,2.292437 0.63146,0.518987 2.408121,3.381968 1.96843,3.172006 -0.09276,-0.04429 -0.759737,-0.194855 -1.482177,-0.33458 z M 41.69796,59.55682 c -0.344686,-0.988765 -0.626701,-3.753921 -0.626701,-6.144791 0,-3.77042 0.139347,-4.347035 1.050526,-4.347035 0.878589,0 1.012002,0.411352 0.815148,2.513326 -0.129458,1.38233 -0.497582,2.679671 -0.818054,2.882981 -0.688321,0.436676 -0.01649,4.065627 0.752673,4.065627 0.287967,0 0.792699,0.502858 1.121626,1.117464 0.479072,0.895156 0.372593,1.176422 -0.535235,1.413824 -0.855577,0.223738 -1.286852,-0.144171 -1.759983,-1.501396 z m 30.756161,-2.064791 c -0.47043,-0.798189 -0.72382,-0.862623 -1.107827,-0.281709 -0.379855,0.574638 -0.767948,0.450147 -1.637086,-0.525147 -1.708009,-1.916609 -4.543833,-2.889212 -8.424101,-2.889212 -5.97406,0 -9.17328,-1.694338 -11.400837,-6.037992 -0.618854,-1.206745 -1.119508,-3.069563 -1.112564,-4.139596 0.01044,-1.608001 0.446455,-2.252019 2.513326,-3.712284 l 2.5007,-1.766769 -1.330585,1.698677 c -1.685972,2.152383 -1.721277,5.2027 -0.09075,7.840948 1.72447,2.79025 3.578474,3.54629 9.574612,3.904404 4.224091,0.25228 5.607278,0.585032 7.392136,1.778322 1.874858,1.25346 4.928898,5.165257 4.032646,5.165257 -0.164856,0 -0.574209,-0.465705 -0.90967,-1.034899 z m -7.728028,-4.87881 c 0,-0.325254 -1.064468,-0.591371 -2.365484,-0.591371 -1.301016,0 -2.365483,0.266117 -2.365483,0.591371 0,0.325254 1.064467,0.591371 2.365483,0.591371 1.301016,0 2.365484,-0.266117 2.365484,-0.591371 z M 52.898676,49.895452 c 0,-0.691592 -2.03775,-3.787312 -2.492988,-3.787312 -0.660367,0 -0.58383,0.418122 0.438376,2.394851 0.791032,1.529688 2.054612,2.386047 2.054612,1.392461 z m 24.12343,-2.308885 c -0.207689,-0.975762 -0.1364,-2.022488 0.158411,-2.326058 0.795411,-0.81904 0.945235,-0.278165 0.562423,2.030373 L 77.39972,49.36068 Z M 22.50749,39.498838 c 0.559817,-0.905803 6.584551,-4.629674 7.447157,-4.603067 0.422192,0.01302 0.0358,0.420697 -0.858648,0.905943 -0.894449,0.485246 -1.62627,1.227974 -1.62627,1.650506 0,0.814519 -1.784344,1.861204 -3.992569,2.342015 -0.790563,0.172135 -1.184459,0.05214 -0.96967,-0.295397 z M 47.874213,38.4179 c 0.589906,-0.651839 2.559249,-1.912532 4.376318,-2.801541 4.508065,-2.205592 11.309248,-2.30709 15.728101,-0.234722 2.523882,1.183658 2.783666,1.452369 1.774113,1.835076 -0.8586,0.325482 -1.293429,0.161937 -1.586607,-0.596745 -0.438832,-1.135583 -3.948364,-2.190691 -4.548818,-1.367559 -0.491341,0.673554 -7.76179,0.857834 -7.76179,0.196733 0,-0.863166 -3.617035,0.686662 -4.002159,1.714847 -0.528105,1.409906 -2.011165,2.398864 -3.629475,2.420264 C 46.838,39.60258 46.829064,39.572775 47.874213,38.4179 Z m 42.541698,0.316912 c -0.964384,-0.729421 -0.99403,-0.871256 -0.185436,-0.887057 0.529365,-0.01034 1.293771,0.380368 1.698677,0.868249 0.943573,1.13694 -0.0191,1.148905 -1.513241,0.01881 z M 21.55602,35.415933 c 2.494002,-2.13707 7.166234,-4.423129 10.201148,-4.99128 2.36388,-0.442531 2.896717,0.190811 1.285513,1.527992 -0.738022,0.612503 -1.026784,0.620441 -1.38668,0.03811 -0.641722,-1.038326 -3.679337,-0.176066 -4.024092,1.142283 -0.15114,0.57796 -1.038988,1.367373 -1.972995,1.754252 -0.934008,0.386879 -2.00572,1.073961 -2.381584,1.526848 -0.375863,0.452888 -1.382625,0.812618 -2.237248,0.799399 l -1.55386,-0.02403 z m 23.678764,0.317745 c 0.777062,-0.827145 3.145691,-2.357317 5.263618,-3.400382 3.563477,-1.75499 4.296343,-1.896484 9.822832,-1.896484 5.093285,0 6.425697,0.212225 9.054979,1.442264 2.279664,1.066477 2.856706,1.568864 2.21469,1.928155 -0.977004,0.546759 -4.037709,-0.612248 -3.578586,-1.355119 0.160752,-0.260106 -0.700686,-0.747089 -1.914303,-1.082186 -1.240489,-0.342515 -2.347512,-0.382442 -2.528465,-0.09119 -0.435066,0.700236 -7.670754,1.070105 -7.891484,0.403391 -0.247035,-0.746175 -4.548863,0.76725 -4.575094,1.609563 -0.02791,0.896069 -4.835229,3.945891 -6.219764,3.945891 -0.928604,0 -0.884656,-0.187988 0.351577,-1.503899 z M 18.894852,32.777032 c 4.284561,-3.9047 11.763152,-6.745082 17.816557,-6.76676 1.43898,-0.0052 2.743106,-0.372856 3.177108,-0.895797 0.62766,-0.756284 0.463971,-0.887057 -1.110331,-0.887057 -1.015588,0 -1.846523,-0.266116 -1.846523,-0.59137 0,-0.917622 -2.936081,-0.696626 -3.928392,0.295685 -0.487881,0.487881 -1.397427,0.887056 -2.021214,0.887056 -0.623787,0 -2.455478,0.502062 -4.070424,1.115694 -1.820555,0.691756 -3.013417,0.88424 -3.139308,0.506569 -0.271382,-0.814147 -2.803291,0.535379 -2.820302,1.503241 -0.01606,0.913677 -3.956176,3.677707 -5.901082,4.139666 -1.249637,0.296816 -1.066605,-0.01945 1.182742,-2.043701 5.882169,-5.293528 13.752425,-7.920635 22.227531,-7.419591 4.969275,0.293782 7.571565,-0.133932 6.617794,-1.087702 -0.216304,-0.216303 -2.137944,-0.533324 -4.270312,-0.70449 -2.132369,-0.171167 -3.877033,-0.540894 -3.877033,-0.821617 0,-0.280724 -1.064468,-0.510406 -2.365484,-0.510406 -1.301016,0 -2.365483,0.244972 -2.365483,0.544383 0,0.299411 -0.86488,0.717323 -1.921955,0.928695 -1.057076,0.211372 -3.25254,0.819753 -4.87881,1.351958 -1.62627,0.532205 -3.19963,0.898246 -3.496357,0.813425 -0.977163,-0.279327 -3.895779,1.22023 -3.895779,2.001615 0,1.06083 -4.362169,4.418433 -5.703123,4.389748 -0.815764,-0.01745 -0.358382,-0.703749 1.78106,-2.672465 3.244491,-2.985584 9.705055,-6.263624 14.566739,-7.391052 4.314644,-1.000569 13.173298,-0.858018 16.831967,0.270855 2.650734,0.817879 3.247497,0.814594 6.166337,-0.03394 3.949204,-1.148062 12.215441,-1.257306 16.623543,-0.219688 1.788897,0.421086 4.982299,1.55552 7.09645,2.520964 3.186507,1.455144 3.641632,1.832212 2.661169,2.204758 -1.443803,0.548599 -2.661169,0.156617 -2.661169,-0.856872 0,-0.913182 -2.701749,-2.047185 -4.730967,-1.985727 -2.744765,0.08313 -9.49767,-0.854681 -9.81157,-1.362583 -0.403979,-0.653652 -4.813288,-0.658102 -5.071263,-0.0051 -0.270907,0.685717 -8.80216,3.33754 -10.192668,3.168251 -1.322859,-0.161054 -4.073079,1.490725 -3.642381,2.187609 0.446678,0.722741 -3.866542,3.964026 -5.750558,4.321413 -1.58905,0.301432 -1.61116,0.272494 -0.624656,-0.817581 0.994534,-1.098948 0.956441,-1.119478 -1.383066,-0.745375 -1.417679,0.226696 -2.557955,0.138454 -2.776308,-0.214848 -0.474714,-0.768104 -4.505387,0.401233 -4.517493,1.310569 -0.0095,0.710036 -5.902306,4.210193 -6.713203,3.987416 -0.281781,-0.07741 -1.21319,0.282403 -2.069798,0.799591 -0.980195,0.591832 -0.680705,0.141336 0.808015,-1.215397 z m 23.874061,0.206539 c 4.529811,-4.906257 14.334811,-7.793866 21.883649,-6.444813 4.940016,0.88283 11.188228,3.685999 9.035791,4.053774 -1.688127,0.288439 -4.740008,-0.862019 -6.176289,-2.328256 -1.022752,-1.044088 -4.560202,-1.53784 -4.559972,-0.636475 6e-5,0.24394 -2.328463,0.413703 -5.174495,0.377249 -5.133136,-0.06575 -7.597974,0.49419 -6.930382,1.574377 0.190933,0.308935 -0.006,0.5617 -0.437529,0.5617 -0.431575,0 -1.763746,0.665292 -2.960382,1.478427 -1.196635,0.813135 -2.634569,1.478427 -3.195409,1.478427 -0.56084,0 -1.572897,0.460032 -2.249015,1.022292 -0.676119,0.562261 -0.332304,0.05075 0.764033,-1.136702 z m -2.330252,-3.095594 c 4.202754,-4.336142 12.560089,-7.446521 19.937512,-7.420214 4.911935,0.01751 8.277349,0.745088 12.776954,2.762264 3.620574,1.623106 4.323802,2.545617 1.940513,2.545617 -0.96727,0 -1.358645,-0.263773 -1.159891,-0.781722 0.367324,-0.957229 -2.648496,-2.46576 -3.40904,-1.705219 -0.307797,0.3078 -1.797981,0.196727 -3.587138,-0.267375 -1.683331,-0.43665 -3.667901,-0.79391 -4.410154,-0.79391 -0.742253,0 -1.349549,-0.266116 -1.349549,-0.59137 0,-0.769835 -3.134902,-0.768146 -3.905152,0.0021 -0.704222,0.704196 -6.995786,2.494862 -9.105007,2.591384 -1.788517,0.08185 -3.996636,1.294795 -3.41534,1.876092 0.548008,0.548008 -3.964266,3.809586 -5.270424,3.809586 -0.763943,0 -0.532171,-0.491121 0.956716,-2.027262 z"
         id="path2659" />
      <path
         style="fill:#b9b9b9;fill-opacity:1;stroke-width:0.591371"
         d="m 16.825054,93.191094 c 0,-0.12469 0.532601,-0.365987 1.183557,-0.536219 0.650957,-0.170226 1.034427,-0.06821 0.852156,0.226713 -0.318306,0.515031 -2.035713,0.776139 -2.035713,0.309506 z m 16.196528,-5.834837 c 0.688685,-1.102664 2.727339,-1.434199 2.727339,-0.443528 0,0.325254 1.064467,0.591371 2.365483,0.591371 1.708405,0 2.365484,-0.246407 2.365484,-0.887057 0,-0.571252 0.578968,-0.890279 1.62627,-0.89611 0.894448,-0.0047 1.981229,-0.234064 2.415067,-0.509076 1.477082,-0.936323 -1.140877,-1.332346 -6.003536,-0.908168 -4.722578,0.411955 -5.690004,0.08724 -5.716567,-1.91872 -0.01184,-0.894254 2.450423,-0.26937 3.266667,0.829025 0.679679,0.914626 4.060707,0.425864 3.486055,-0.503943 -0.179575,-0.290558 0.0062,-0.528289 0.412801,-0.528289 0.406614,0 0.222732,-0.390713 -0.408628,-0.868251 -0.63136,-0.477532 -2.411982,-0.876707 -3.956939,-0.887056 -2.094293,-0.01402 -2.809011,-0.244508 -2.809011,-0.905862 0,-0.492807 0.525663,-0.887056 1.182741,-0.887056 0.650508,0 1.182742,0.266117 1.182742,0.591371 0,0.325254 0.578622,0.59137 1.285826,0.59137 h 1.285826 L 36.329794,78.32668 c -0.804402,-0.856251 -2.362451,-1.643603 -3.664416,-1.851795 -1.245754,-0.199203 -2.433286,-0.634464 -2.638959,-0.967252 -0.236284,-0.382315 -0.06818,-0.420784 0.456635,-0.104489 0.649942,0.391706 0.63766,0.261628 -0.05647,-0.598095 -0.834799,-1.033941 -0.785168,-1.073279 0.842486,-0.667699 1.557835,0.388176 1.649414,0.334414 0.922439,-0.541536 -0.443906,-0.534871 -2.286667,-1.725809 -4.095025,-2.646526 -5.051136,-2.57176 -11.542341,-10.056877 -8.721474,-10.056877 1.053163,0 3.363752,3.218997 3.363752,4.686212 0,1.169637 1.819428,2.594072 3.548225,2.777917 0.487881,0.05186 1.383471,0.296756 1.990199,0.544156 0.915627,0.373362 1.038285,0.245472 0.72159,-0.752342 -0.253211,-0.797801 -0.07725,-1.31894 0.523128,-1.549326 0.497573,-0.190936 0.904679,-0.140268 0.904679,0.112597 0,0.25287 0.918752,1.985498 2.04167,3.850285 1.122918,1.864793 1.913425,3.724726 1.756683,4.133192 -0.315572,0.822366 2.492894,3.758019 3.056252,3.194662 0.194804,-0.194804 2.075492,0.824264 4.179307,2.264589 2.103815,1.440331 4.074415,2.61878 4.37911,2.61878 0.304695,0 0.553991,0.366892 0.553991,0.815311 0,0.945312 3.193682,2.430463 4.066494,1.891038 0.781687,-0.483108 9.138972,0.889404 9.59705,1.576122 0.54514,0.817233 4.399181,0.282374 4.225425,-0.586403 -0.08427,-0.421329 0.441771,-0.739214 1.22325,-0.739214 0.754098,0 2.816504,-0.440441 4.583124,-0.97876 1.766614,-0.538319 3.717186,-0.951066 4.334601,-0.91721 1.489101,0.08166 4.619594,-1.56433 4.216291,-2.21689 -0.17481,-0.282847 0.7479,-1.358343 2.05046,-2.38999 1.599587,-1.266894 2.368298,-1.597559 2.368298,-1.018731 0,2.397707 -4.90004,5.827966 -11.654317,8.158576 -5.045192,1.740878 -13.112007,2.126203 -18.662088,0.891427 -3.72275,-0.828233 -4.944854,-0.879996 -7.052125,-0.298672 -1.401951,0.38675 -4.971315,0.867032 -7.93192,1.0673 -5.026419,0.340003 -5.340111,0.295579 -4.736557,-0.67078 z m 21.13722,-3.685867 c -6.120804,-1.384086 -10.97973,-4.001002 -15.097718,-8.131314 -4.500303,-4.513768 -7.437867,-9.193309 -6.236973,-9.935503 0.576178,-0.3561 1.21007,0.203183 2.243434,1.979372 0.792185,1.361643 1.485495,2.87489 1.540688,3.362771 0.178441,1.577334 1.566639,3.626984 2.285423,3.374391 0.384547,-0.135134 1.630585,0.470525 2.768973,1.345913 1.138389,0.875389 2.920206,2.08308 3.959594,2.683759 1.039387,0.600679 1.766868,1.29104 1.616623,1.534146 -0.431477,0.698143 1.039793,1.366049 3.294346,1.495524 6.139453,0.352569 9.461934,0.997128 9.461934,1.835615 0,0.651608 0.406874,0.768073 1.62627,0.46551 0.894448,-0.221936 1.714975,-0.649958 1.823391,-0.951167 0.108422,-0.301203 0.773714,-0.556332 1.478427,-0.566953 0.704719,-0.01064 2.744949,-0.52632 4.533845,-1.146012 1.788897,-0.619686 3.339927,-0.881066 3.446735,-0.580844 0.106807,0.300221 0.980392,0.139297 1.941293,-0.357602 0.9609,-0.496906 1.604069,-1.134877 1.42926,-1.417723 -0.436177,-0.705748 4.25046,-4.340148 4.999639,-3.877128 1.155656,0.714234 0.575959,1.458427 -3.058718,3.92669 -7.046007,4.784853 -16.349601,6.703296 -24.056466,4.960555 z m -1.992273,-4.4111 C 45.851068,77.240397 39.672363,72.159676 36.87098,66.681837 c -1.325162,-2.591233 -1.357305,-2.832572 -0.377255,-2.832572 0.99474,0 2.271348,2.114222 1.88482,3.121498 -0.319463,0.832509 1.857107,4.054776 2.578876,3.817855 0.723873,-0.237607 6.027546,3.878098 6.027546,4.677442 0,0.938594 3.715023,2.962768 3.979799,2.168439 0.216548,-0.649639 7.354974,0.914898 7.906228,1.732817 0.464225,0.688793 5.296224,0.319233 5.245768,-0.401204 -0.03992,-0.569768 5.069479,-2.138693 7.705781,-2.366193 2.040933,-0.176122 4.259295,-1.451195 3.980411,-2.287854 -0.12708,-0.381239 0.364426,-1.161577 1.092238,-1.734071 1.604484,-1.262092 1.806029,-1.27865 2.226493,-0.182935 0.477154,1.243434 -5.988126,5.377312 -10.673149,6.824367 -4.888946,1.510041 -11.631387,1.526547 -16.282007,0.03986 z m 2.801945,-3.18222 c -4.351729,-1.113143 -8.97298,-3.843638 -11.653492,-6.885538 -2.473616,-2.807113 -4.305796,-5.842803 -3.819752,-6.328845 0.156912,-0.156914 0.466693,0.286242 0.688402,0.984781 0.244855,0.771467 0.730374,1.144492 1.236738,0.950185 0.458497,-0.175945 0.83363,-0.115737 0.83363,0.133786 0,0.249523 1.077893,1.575447 2.395317,2.946493 1.317425,1.371046 2.263306,2.706409 2.101958,2.967475 -0.379739,0.614435 3.02701,2.636663 3.720162,2.208274 0.289954,-0.179203 1.65345,0.07155 3.029992,0.557219 1.376541,0.485675 3.134637,0.883041 3.906879,0.883041 0.807863,0 1.341297,0.313894 1.256233,0.739213 -0.234,1.170004 5.105234,0.892959 6.326462,-0.328275 0.551276,-0.55127 1.326214,-1.002309 1.72209,-1.002309 0.395875,0 1.696666,-0.498053 2.89065,-1.10678 1.35641,-0.691531 2.249244,-0.871693 2.379741,-0.480193 0.299784,0.899351 3.34606,-1.45977 3.368703,-2.608809 0.01023,-0.518786 0.550815,-1.424908 1.201323,-2.013612 1.153587,-1.043982 1.182741,-1.032906 1.182741,0.449347 0,1.141251 -0.740904,2.063595 -2.975068,3.70362 C 69.040977,76.04516 61.30694,77.698402 54.968474,76.07707 Z M 6.5700497,71.013528 C 4.8304625,67.817334 4.6294819,66.803642 5.7368502,66.811093 c 0.8691842,0.0059 4.0998452,5.846783 3.6428669,6.586186 -0.6196407,1.002598 -1.2642332,0.455722 -2.8096674,-2.383751 z m 46.7381293,0.540135 c -3.74395,-1.462851 -6.478634,-3.605127 -8.672485,-6.793781 -1.92884,-2.80347 -2.218885,-3.869639 -1.051109,-3.863732 0.769897,0.0039 3.042878,3.330812 3.092265,4.526091 0.0483,1.168839 2.256037,3.213078 3.228598,2.98948 0.507886,-0.11676 1.910766,0.272563 3.117511,0.865164 1.206745,0.592601 2.590635,1.07746 3.075312,1.07746 0.484676,0 1.11332,0.414722 1.396985,0.921604 0.657785,1.175397 7.024649,1.004301 6.787309,-0.182391 -0.08131,-0.406567 0.261935,-0.739213 0.762773,-0.739213 0.500838,0 2.03101,-0.586025 3.400383,-1.302282 1.369372,-0.716256 2.725799,-1.236343 3.014282,-1.155745 0.679124,0.189729 3.318643,-2.285601 3.321872,-3.115235 0.0012,-0.349873 0.666652,-1.945291 1.478427,-3.545368 l 1.475949,-2.909236 v 2.520465 c 0,2.304155 -0.317199,2.836951 -3.696067,6.208267 -2.609838,2.604001 -4.552562,3.978282 -6.610427,4.676206 -3.920711,1.329715 -10.474571,1.247219 -14.121578,-0.177754 z m -41.56097,0.122212 C 11.3938,71.436914 10.370574,69.977346 9.4733755,68.43239 8.0042287,65.902552 7.9505429,65.625235 8.9331966,65.642071 c 0.6473341,0.01106 1.7432584,1.093415 2.6946084,2.661169 0.881933,1.453359 1.331933,2.642476 0.999998,2.642476 -0.331935,0 -0.439049,0.266117 -0.238031,0.591371 0.430401,0.696404 0.242232,0.737043 -0.642563,0.138788 z m 6.896649,-3.430778 c -0.988178,-1.125474 -2.206834,-2.907599 -2.708124,-3.960287 -0.858218,-1.802214 -0.854653,-1.836277 0.06107,-0.583387 0.53488,0.731821 1.272697,1.33538 1.639592,1.341247 0.366895,0.0059 1.525249,1.044432 2.574118,2.307937 1.451139,1.748092 1.706582,2.3742 1.068532,2.619039 -0.489727,0.187926 -1.585833,-0.529395 -2.63519,-1.724549 z M 13.03822,66.80612 c -1.445471,-2.655805 -1.500197,-2.956387 -0.537514,-2.952242 1.274079,0.0053 2.806127,2.761276 1.742849,3.134969 -0.430527,0.151314 -0.267262,0.690728 0.455513,1.504986 0.619605,0.698031 0.861486,1.269141 0.537514,1.269141 -0.323972,0 -1.313235,-1.330584 -2.198362,-2.956854 z"
         id="path2657" />
      <path
         style="fill:#a3a3a3;fill-opacity:1;stroke-width:0.591371"
         d="M 15.536193,97.336971 C 1.4628003,93.480629 2.1778094,73.570598 16.504997,70.359809 c 7.195529,-1.612556 14.840125,3.546688 16.238472,10.959137 1.90613,10.104139 -7.348782,18.719414 -17.207276,16.018025 z m 7.397018,-4.72581 c 6.076109,-2.538756 7.557338,-10.50458 2.831978,-15.229941 -3.835957,-3.835956 -9.313347,-3.835956 -13.149304,0 -7.2932844,7.293288 0.782224,19.213965 10.317326,15.229941 z m -4.925416,-0.781184 c 0,-0.527633 -1.064467,-1.942044 -2.365483,-3.143136 -2.042833,-1.885935 -2.365483,-2.525047 -2.365483,-4.685614 0,-3.505836 2.434557,-5.959061 5.913708,-5.959061 6.609031,0 8.147799,8.415485 2.352562,12.866101 -2.227907,1.710983 -3.535304,2.051844 -3.535304,0.92171 z"
         id="path2655" />
    </g>
  </g>
</svg>
