<?xml version="1.0" encoding="UTF-8" standalone="no"?>
<!-- Created with Inkscape (http://www.inkscape.org/) -->

<svg
   width="165.58182mm"
   height="139.1916mm"
   viewBox="0 0 165.58182 139.1916"
   version="1.1"
   id="svg3720"
   inkscape:version="1.1 (c68e22c387, 2021-05-23)"
   sodipodi:docname="icon.svg"
   xmlns:inkscape="http://www.inkscape.org/namespaces/inkscape"
   xmlns:sodipodi="http://sodipodi.sourceforge.net/DTD/sodipodi-0.dtd"
   xmlns="http://www.w3.org/2000/svg"
   xmlns:svg="http://www.w3.org/2000/svg"
   xmlns:rdf="http://www.w3.org/1999/02/22-rdf-syntax-ns#"
   xmlns:cc="http://creativecommons.org/ns#"
   xmlns:dc="http://purl.org/dc/elements/1.1/">
  <defs
     id="defs3714">
    <filter
       id="mask-powermask-path-effect2939_inverse"
       inkscape:label="filtermask-powermask-path-effect2939"
       style="color-interpolation-filters:sRGB"
       height="100"
       width="100"
       x="-50"
       y="-50">
      <feColorMatrix
         id="mask-powermask-path-effect2939_primitive1"
         values="1"
         type="saturate"
         result="fbSourceGraphic" />
      <feColorMatrix
         id="mask-powermask-path-effect2939_primitive2"
         values="-1 0 0 0 1 0 -1 0 0 1 0 0 -1 0 1 0 0 0 1 0 "
         in="fbSourceGraphic" />
    </filter>
    <clipPath
       id="clipPath22"
       clipPathUnits="userSpaceOnUse">
      <path
         id="path20"
         d="M 0,0 H 1299 V 1300 H 0 Z" />
    </clipPath>
    <clipPath
       id="clipPath28"
       clipPathUnits="userSpaceOnUse">
      <path
         style="clip-rule:evenodd"
         id="path26"
         d="M 649.672,1300 C 290.871,1300 -0.00390625,1008.98 -0.00390625,650 -0.00390625,320.398 245.207,48.1289 563.055,5.76172 V 136.738 c 0,36.934 -23.282,70.133 -58.274,81.871 -183.39,61.629 -314.582,237.016 -309.754,442.352 5.883,249.992 209.418,446.539 459.336,444.019 249.004,-2.52 450.087,-205.257 450.087,-454.98 0,-5.691 -0.14,-11.355 -0.35,-16.992 -0.05,-1.262 -0.09,-2.528 -0.14,-3.797 -0.24,-5.234 -0.56,-10.461 -0.97,-15.656 -0.13,-1.653 -0.29,-3.301 -0.44,-4.942 -0.32,-3.633 -0.69,-7.226 -1.1,-10.82 -0.46,-4.094 -0.99,-8.145 -1.56,-12.188 -0.25,-1.843 -0.5,-3.691 -0.78,-5.527 C 1043.43,213.121 565.727,6.87109 563.109,5.75 591.434,1.98047 620.324,0 649.672,0 c 358.808,0 649.678,291.012 649.678,650 0,358.98 -290.87,650 -649.678,650" />
    </clipPath>
  </defs>
  <sodipodi:namedview
     id="base"
     pagecolor="#ffffff"
     bordercolor="#666666"
     borderopacity="1.0"
     inkscape:pageopacity="0.0"
     inkscape:pageshadow="2"
     inkscape:zoom="0.70000001"
     inkscape:cx="212.85714"
     inkscape:cy="158.57143"
     inkscape:document-units="mm"
     inkscape:current-layer="layer1"
     showgrid="false"
     inkscape:window-width="1368"
     inkscape:window-height="850"
     inkscape:window-x="-6"
     inkscape:window-y="-6"
     inkscape:window-maximized="1"
     inkscape:pagecheckerboard="0" />
  <metadata
     id="metadata3717">
    <rdf:RDF>
      <cc:Work
         rdf:about="">
        <dc:format>image/svg+xml</dc:format>
        <dc:type
           rdf:resource="http://purl.org/dc/dcmitype/StillImage" />
      </cc:Work>
    </rdf:RDF>
  </metadata>
  <g
     inkscape:label="Laag 1"
     inkscape:groupmode="layer"
     id="layer1"
     transform="translate(-19.644666,-81.600464)">
    <path
       style="fill:#000000;stroke-width:0.264583"
       id="path2127"
       d="" />
    <path
       style="fill:#000000;stroke-width:0.264583"
       id="path2068"
       d="" />
    <path
       style="fill:#000000;stroke-width:0.264583"
       id="path2009"
       d="" />
    <path
       style="color:#000000;fill:#000000;fill-rule:evenodd;stroke-width:0.28181;stroke-dasharray:16.9992, 0.7083;stroke-dashoffset:1.98324;-inkscape-stroke:none"
       d="m 65.729204,94.843987 c -1.609839,-0.02328 -3.220635,0.04337 -4.822963,0.196887 l 0.06718,0.704869 c 1.576766,-0.151075 3.162435,-0.216694 4.745963,-0.193789 z m 0.201538,0.0031 -0.01344,0.708485 c 1.583489,0.02959 3.165026,0.147172 4.735113,0.352949 l 0.09199,-0.702283 C 69.147882,94.996993 67.54034,94.877166 65.93074,94.847083 Z m -5.224489,0.213423 c -1.601684,0.160685 -3.19506,0.408626 -4.769733,0.742591 l 0.147277,0.69298 c 1.549493,-0.328625 3.11671,-0.572595 4.692738,-0.730705 z m 10.238134,0.172083 -0.0956,0.701767 c 1.569204,0.212413 3.126806,0.512691 4.661731,0.901237 l 0.173633,-0.686263 c -1.561098,-0.395171 -3.144195,-0.700759 -4.739765,-0.916741 z m -5.533511,0.445968 c -0.805162,-0.0056 -1.610794,0.01111 -2.414839,0.05064 l 0.03566,0.707448 c 1.581705,-0.07776 3.167345,-0.06672 4.747511,0.03411 l 0.04548,-0.707451 c -0.803521,-0.05127 -1.608646,-0.07915 -2.413807,-0.08475 z m -2.615343,0.06098 c -1.607706,0.08638 -3.210576,0.262551 -4.798674,0.5271 L 58.11313,96.9653 c 1.562169,-0.260228 3.13875,-0.433861 4.720127,-0.518832 z m 5.229138,0.03721 -0.04754,0.706935 c 1.579679,0.107538 3.153375,0.305306 4.710308,0.592728 l 0.128156,-0.696598 c -1.583666,-0.292359 -3.184324,-0.493694 -4.790921,-0.603065 z m -12.284522,0.06873 c -1.573141,0.340694 -3.128484,0.766578 -4.655529,1.27589 l 0.224792,0.671795 c 1.502566,-0.501152 3.032435,-0.920451 4.580599,-1.255738 z m 20.138823,0.353468 -0.176218,0.685744 c 1.533232,0.395132 3.043365,0.877893 4.521171,1.445908 l 0.254249,-0.660942 c -1.503238,-0.577789 -3.039838,-1.068843 -4.599202,-1.47071 z m -18.080034,0.101285 c -1.586921,0.271319 -3.159078,0.630513 -4.706173,1.075904 l 0.195855,0.681093 c 1.521907,-0.438139 3.068643,-0.791953 4.62969,-1.058849 z m 15.214576,0.11679 -0.131776,0.695563 c 1.55557,0.29474 3.09426,0.678833 4.604888,1.151869 l 0.211873,-0.675929 c -1.53714,-0.481338 -3.102735,-0.871709 -4.684985,-1.171503 z m -8.344194,0.146243 0.0072,0.707966 c 1.583137,-0.01685 3.167571,0.0574 4.741831,0.223759 l 0.07441,-0.70435 C 67.891034,96.621375 66.279597,96.54613 64.669282,96.563267 Z m -0.201022,0.0021 c -1.610255,0.02418 -3.218937,0.141608 -4.815727,0.349332 l 0.09147,0.702284 c 1.570167,-0.204261 3.152058,-0.319344 4.735113,-0.34313 z m 5.225004,0.247531 -0.07803,0.703832 c 1.573487,0.17336 3.136757,0.438319 4.678783,0.7953 l 0.160197,-0.68988 c -1.56936,-0.363307 -3.160011,-0.63287 -4.76095,-0.809252 z m -10.240203,0.128157 c -1.595927,0.214669 -3.180056,0.520319 -4.741312,0.914156 l 0.173633,0.686779 c 1.535393,-0.38731 3.092495,-0.687573 4.661731,-0.898652 z m -8.558649,0.24443 c -1.524978,0.515479 -3.021639,1.11416 -4.48138,1.792655 l 0.298688,0.642339 c 1.436376,-0.667636 2.909028,-1.257024 4.409551,-1.764233 z m 2.005045,0.247015 c -1.545215,0.451921 -3.064994,0.989308 -4.550627,1.609719 l 0.272851,0.654225 c 1.461387,-0.610288 2.956687,-1.139838 4.476732,-1.584402 z m 12.512415,0.06459 c -1.610735,-0.01209 -3.22154,0.07116 -4.822444,0.247528 l 0.07751,0.703834 c 1.573533,-0.173355 3.157429,-0.255275 4.740278,-0.243395 z m 0.201539,0.0021 -0.0088,0.708482 c 1.582778,0.01913 3.164941,0.131318 4.734079,0.337966 l 0.0925,-0.7028 C 68.834012,97.632492 67.224078,97.51866 65.613435,97.49919 Z m 12.276251,0.150378 -0.214456,0.674378 c 1.508586,0.479716 2.989292,1.048245 4.431253,1.701184 l 0.292489,-0.645436 C 80.931649,98.715291 79.424598,98.137679 77.8897,97.649597 Z m -3.239596,0.0186 -0.162779,0.688848 c 1.540378,0.36394 3.058755,0.819899 4.544941,1.364258 l 0.243398,-0.665078 c -1.512665,-0.554056 -3.057832,-1.017624 -4.62556,-1.388028 z m 6.015654,0.07441 -0.256831,0.659908 c 1.320702,0.514226 2.610086,1.106215 3.871082,1.753384 a 45.028,44.876307 0 0 1 0.726054,-0.430983 c -1.407944,-0.741664 -2.857302,-1.404892 -4.340305,-1.982309 z m -20.27628,0.02376 c -1.600096,0.183666 -3.189864,0.460809 -4.757851,0.828373 l 0.161748,0.689883 c 1.541394,-0.361334 3.103959,-0.633378 4.676717,-0.813906 z m 10.241235,0.10387 -0.09612,0.701768 c 1.568088,0.213823 3.123655,0.522306 4.654495,0.923456 l 0.179318,-0.685228 c -1.558526,-0.408375 -3.141401,-0.72229 -4.737693,-0.939963 z m -16.113746,0.03462 c -1.559613,0.400687 -3.095982,0.890111 -4.600234,1.464511 l 0.252696,0.661451 c 1.479301,-0.564865 2.990146,-1.045693 4.523755,-1.439699 z m 10.756966,0.586012 c -1.611061,-0.0065 -3.222816,0.08379 -4.82296,0.270266 l 0.08217,0.703834 c 1.572048,-0.1832 3.155622,-0.272026 4.738211,-0.265617 z m 0.201538,0.0011 -0.0067,0.708486 c 1.582454,0.01394 3.164194,0.124015 4.733044,0.33021 l 0.0925,-0.702281 c -1.5976,-0.209976 -3.207753,-0.322217 -4.818828,-0.336415 z m -10.03918,0.149344 c -1.566281,0.374793 -3.111029,0.840682 -4.623491,1.394236 l 0.243398,0.66455 c 1.486649,-0.5441 3.005251,-1.001511 4.544941,-1.369938 z m 4.81521,0.143661 c -1.599187,0.193924 -3.186803,0.483153 -4.751647,0.865582 l 0.168466,0.688323 c 1.537517,-0.375744 3.097196,-0.660052 4.668448,-0.850587 z m 10.242269,0.06976 -0.0956,0.701765 c 1.567781,0.213712 3.122266,0.52432 4.651396,0.93017 l 0.181901,-0.684708 c -1.55767,-0.41343 -3.141104,-0.729586 -4.737695,-0.947227 z m 5.069459,0.0072 -0.183451,0.684196 c 1.528781,0.408662 3.0335,0.910419 4.501017,1.502239 l 0.264583,-0.65681 C 78.65098,99.788891 77.119789,99.278018 75.563229,98.861929 Z m -29.332576,0.201538 c -1.456888,0.68484 -2.875621,1.449657 -4.248321,2.290817 l 0.369487,0.6041 c 1.350381,-0.82749 2.747254,-1.57982 4.180623,-2.253612 z m 1.932697,0.05736 c -1.482778,0.627123 -2.930959,1.336487 -4.334619,2.125457 l 0.34675,0.61753 c 1.380384,-0.77589 2.804679,-1.47392 4.263305,-2.090829 z m 31.301965,0.0052 -0.247529,0.664041 c 1.129377,0.419876 2.232163,0.906936 3.318658,1.427826 a 45.028,44.876307 0 0 1 0.707451,-0.44649 c -1.232937,-0.60801 -2.489996,-1.166319 -3.77858,-1.645377 z m -29.736169,0.315744 c -1.501791,0.581183 -2.970744,1.248463 -4.396631,1.996773 l 0.329178,0.62684 c 1.402027,-0.73579 2.846091,-1.39122 4.322736,-1.96267 z m 32.852259,0.02119 -0.295074,0.643893 c 0.383101,0.1755 0.755825,0.37273 1.133266,0.56017 a 45.028,44.876307 0 0 1 0.726054,-0.431 C 83.62756,99.971554 83.110254,99.705193 82.581405,99.462922 Z m -16.318902,0.108521 c -0.805436,-0.02365 -1.61163,-0.0227 -2.416905,0.0036 l 0.02326,0.708482 c 1.581377,-0.0517 3.16552,-0.006 4.740796,0.13953 l 0.06511,-0.705386 C 67.87231,99.643677 67.06794,99.595097 66.262506,99.571451 Z m -2.618443,0.01085 c -1.610289,0.06064 -3.216868,0.221112 -4.807458,0.478522 l 0.113686,0.69867 c 1.562065,-0.25279 3.139495,-0.40968 4.720643,-0.46922 z m -8.339543,0.116787 c -1.563026,0.389585 -3.103197,0.871995 -4.60902,1.444365 l 0.251664,0.66197 c 1.479462,-0.56234 2.993101,-1.03675 4.52892,-1.41955 z m 13.570747,0.03721 -0.06821,0.705385 c 1.574525,0.15281 3.139398,0.40503 4.681884,0.75551 l 0.156581,-0.6904 c -1.571818,-0.35715 -3.166044,-0.614807 -4.770252,-0.770495 z m 6.550503,0.117821 -0.184999,0.683684 c 1.527151,0.41303 3.028209,0.92164 4.491715,1.52238 l 0.269235,-0.65474 c -1.490938,-0.612 -3.020201,-1.13055 -4.575951,-1.551324 z m -16.787603,0.239264 c -1.589296,0.26516 -3.162585,0.62726 -4.707723,1.08417 l 0.20102,0.67903 c 1.517425,-0.44872 3.062674,-0.80413 4.62349,-1.06454 z m -8.013983,0.0114 c -1.510048,0.56022 -2.987325,1.20886 -4.421952,1.94096 l 0.321945,0.63045 c 1.410068,-0.71957 2.861773,-1.35673 4.345988,-1.90737 z m 29.707747,0.36225 -0.2682,0.65526 c 0.541586,0.2215 1.072539,0.46835 1.603521,0.71416 a 45.028,44.876307 0 0 1 0.669726,-0.47645 c -0.660834,-0.31419 -1.327743,-0.61596 -2.005047,-0.89297 z m -6.490041,0.0847 -0.160713,0.69039 c 1.540573,0.35832 3.058916,0.81466 4.540805,1.36736 l 0.247531,-0.66301 c -1.51044,-0.56334 -3.057562,-1.02957 -4.627623,-1.39474 z m -8.764841,0.14986 c -1.611906,0.002 -3.223885,0.10693 -4.822444,0.31316 l 0.09095,0.70228 c 1.568852,-0.20239 3.150759,-0.30554 4.732528,-0.30747 z m 0.201022,5.3e-4 -0.0026,0.70745 c 1.581761,0.006 3.163552,0.11414 4.730978,0.32401 l 0.09354,-0.70177 c -1.598046,-0.21396 -3.210065,-0.32309 -4.821928,-0.32969 z m -5.22242,0.33848 c -1.597464,0.21411 -3.181921,0.52935 -4.739761,0.94257 l 0.181382,0.6842 c 1.529067,-0.40559 3.084534,-0.71434 4.652431,-0.92449 z m 10.243817,0.0181 -0.09715,0.70177 c 1.566365,0.21781 3.118514,0.5376 4.642609,0.9586 l 0.188103,-0.68316 c -1.554311,-0.42935 -3.136723,-0.75516 -4.733563,-0.97721 z m -19.792071,0.15607 c -1.503174,0.57923 -2.97184,1.24852 -4.395081,2.00349 l 0.331764,0.62581 c 1.398058,-0.74162 2.841209,-1.39874 4.318082,-1.96784 z m 3.230293,0.0207 c -1.542981,0.46415 -3.057287,1.02294 -4.532022,1.67225 l 0.285253,0.64802 c 1.448162,-0.63761 2.935592,-1.18645 4.450892,-1.64227 z m -10.084655,0.11007 c -1.400199,0.79502 -2.755551,1.66944 -4.0566,2.61845 l 0.418062,0.57154 c 1.279152,-0.93303 2.611915,-1.79216 3.988905,-2.574 z m -1.842782,0.11421 c -1.368864,0.84733 -2.69098,1.77105 -3.956864,2.76624 l 0.438216,0.55655 c 1.244828,-0.97863 2.54512,-1.88668 3.891752,-2.72024 z m 38.377501,0.0227 -0.271817,0.6537 c 0.274365,0.11427 0.540253,0.24776 0.811837,0.36846 a 45.028,44.876307 0 0 1 0.667142,-0.47439 c -0.401873,-0.18379 -0.799248,-0.37788 -1.207162,-0.54777 z m -35.033002,0.0496 c -1.422524,0.75497 -2.801354,1.59225 -4.127397,2.5063 l 0.401526,0.58291 c 1.303475,-0.8985 2.659166,-1.7212 4.057635,-2.46341 z m 19.009175,0.42891 0.0186,0.70745 c 1.580697,-0.0419 3.164067,0.0212 4.736147,0.18913 l 0.07493,-0.70486 c -1.603578,-0.17129 -3.217825,-0.23444 -4.82968,-0.19172 z m -0.201539,0.005 c -1.611558,0.0515 -3.219635,0.20918 -4.810559,0.47077 l 0.114724,0.69918 c 1.560435,-0.25658 3.13755,-0.41149 4.718058,-0.46198 z m 14.695228,0.0506 -0.251148,0.66301 c 0.442683,0.16774 0.875097,0.36101 1.311032,0.5457 a 45.028,44.876307 0 0 1 0.679027,-0.48524 c -0.575244,-0.25167 -1.151819,-0.50101 -1.738911,-0.72347 z m -23.536031,0.0181 c -1.555872,0.42079 -3.084878,0.94029 -4.575432,1.55339 l 0.268719,0.65526 c 1.463024,-0.60177 2.964664,-1.11198 4.491715,-1.52497 z m 20.105748,0.0558 -0.191717,0.68161 c 1.25712,0.35416 2.488184,0.7935 3.698997,1.28313 a 45.028,44.876307 0 0 1 0.614434,-0.51883 c -1.345092,-0.56013 -2.719272,-1.05082 -4.121714,-1.44591 z m -29.204417,0.0465 c -1.431084,0.73904 -2.819101,1.562 -4.153235,2.46496 l 0.396875,0.58653 c 1.310721,-0.88712 2.674894,-1.69572 4.081403,-2.42207 z m 23.171195,0.0377 -0.07907,0.70384 c 1.571099,0.17657 3.130122,0.45857 4.662766,0.84542 l 0.173116,-0.68678 c -1.563965,-0.39475 -3.154227,-0.68236 -4.756816,-0.86248 z m -10.241235,0.29559 c -1.58944,0.26995 -3.161594,0.64304 -4.702556,1.11725 l 0.208772,0.67696 c 1.511453,-0.46513 3.052985,-0.83177 4.612121,-1.09658 z m -9.931694,0.51832 c -1.471559,0.65652 -2.902481,1.40378 -4.281908,2.23707 l 0.365869,0.60668 c 1.354217,-0.81806 2.759382,-1.55209 4.204393,-2.19676 z m 25.125082,0.0987 -0.17725,0.68574 c 1.251091,0.32303 2.477559,0.73377 3.68453,1.19476 a 45.028,44.876307 0 0 1 0.621667,-0.52503 c -1.348491,-0.53238 -2.725372,-0.99307 -4.128947,-1.35547 z m -28.211198,0.22582 c -1.41973,0.76156 -2.793865,1.60893 -4.11086,2.53732 l 0.408244,0.57877 c 1.293305,-0.91169 2.642899,-1.74428 4.037478,-2.49235 z m 18.899622,0.005 0.0062,0.70849 c 1.580544,-0.0139 3.161839,0.0809 4.728908,0.28525 l 0.09147,-0.70228 c -1.599848,-0.20866 -3.21357,-0.3057 -4.826578,-0.29146 z m -0.202055,0.002 c -1.612918,0.0233 -3.223768,0.15813 -4.818311,0.40049 l 0.106453,0.70022 c 1.562872,-0.23755 3.141728,-0.36936 4.722193,-0.39222 z m 5.229138,0.31574 -0.09612,0.70177 c 1.565836,0.21338 3.11704,0.53632 4.636926,0.9679 l 0.19327,-0.6811 c -1.552376,-0.4408 -3.135516,-0.77072 -4.734078,-0.98857 z m -15.803687,0.0109 c -1.538449,0.48207 -3.045724,1.06469 -4.508251,1.74356 l 0.298172,0.64234 c 1.434283,-0.66576 2.912875,-1.23711 4.421952,-1.70997 z m -3.697965,0.0181 c -1.487283,0.62096 -2.93589,1.33537 -4.332552,2.14044 l 0.353465,0.61391 c 1.370275,-0.78986 2.792135,-1.49116 4.251939,-2.10064 z m 9.254731,0.0863 c -1.593146,0.25133 -3.168756,0.61076 -4.713406,1.07487 l 0.203604,0.67851 c 1.51397,-0.45489 3.059375,-0.80734 4.620906,-1.05368 z m -20.180679,0.33073 c -1.296842,0.95474 -2.538729,1.98404 -3.717086,3.08198 l 0.483175,0.5178 c 1.158244,-1.07921 2.379025,-2.0906 3.65404,-3.02927 z m 1.427819,0.0708 c -1.321793,0.92035 -2.590241,1.91778 -3.795117,2.9869 l 0.470256,0.5302 c 1.183973,-1.05057 2.430364,-2.03118 3.729488,-2.93574 z m -3.166731,0.19689 c -1.261359,1.00071 -2.466078,2.07253 -3.605982,3.21014 l 0.500228,0.50126 c 1.120654,-1.1184 2.306004,-2.1722 3.546554,-3.15639 z m 37.094376,0.33021 -0.197405,0.68058 c 0.646395,0.18735 1.283885,0.40466 1.917713,0.63097 a 45.028,44.876307 0 0 1 0.584978,-0.55242 c -0.759217,-0.28037 -1.527998,-0.53384 -2.305286,-0.75913 z m -33.086352,0.0351 c -1.330079,0.90893 -2.605795,1.89802 -3.817338,2.96003 l 0.466638,0.53278 c 1.190078,-1.04318 2.443448,-2.01487 3.750159,-2.90783 z m 24.504963,0.14521 c -1.613128,-0.0504 -3.22924,0.0157 -4.832779,0.19637 l 0.07906,0.70332 c 1.570025,-0.17693 3.152998,-0.24158 4.73201,-0.19224 z m 0.202057,0.006 -0.02635,0.70797 c 1.578634,0.0585 3.153148,0.23127 4.706173,0.51883 l 0.128672,-0.69608 c -1.587312,-0.29391 -3.195674,-0.4709 -4.80849,-0.53072 z m -11.70213,0.0181 c -1.542004,0.47262 -3.0516,1.05012 -4.515487,1.72755 l 0.29714,0.64233 c 1.434515,-0.66383 2.91464,-1.22915 4.426088,-1.6924 z m 6.46679,0.19534 c -1.602465,0.18974 -3.191214,0.49323 -4.750615,0.90795 l 0.182417,0.68472 c 1.526979,-0.4061 3.082862,-0.70357 4.651912,-0.88935 z m -16.60829,0.25011 c -1.375227,0.84016 -2.6979,1.76637 -3.956864,2.77296 l 0.442867,0.55345 c 1.235444,-0.98778 2.53342,-1.89701 3.883485,-2.72179 z m 26.850557,0.10387 -0.132808,0.69608 c 1.363102,0.26072 2.704592,0.62506 4.021976,1.06092 a 45.028,44.876307 0 0 1 0.566891,-0.56482 c -1.455809,-0.49979 -2.944571,-0.90308 -4.456059,-1.19218 z m -22.049817,0.0419 c -1.459005,0.68632 -2.873099,1.46843 -4.228681,2.34198 l 0.383439,0.59583 c 1.328978,-0.85641 2.716186,-1.62395 4.147034,-2.29702 z m -3.514513,0.43098 c -1.392579,0.81194 -2.732897,1.71367 -4.009057,2.69906 l 0.432531,0.56069 c 1.251656,-0.96647 2.56726,-1.85073 3.93361,-2.64738 z m -4.193025,0.0594 c -1.312618,0.93457 -2.56798,1.95042 -3.755327,3.04013 l 0.479558,0.52193 c 1.165599,-1.06975 2.398145,-2.06658 3.687113,-2.98432 z m 14.570169,0.0739 c -1.557071,0.42337 -3.084225,0.95733 -4.565613,1.59732 l 0.280603,0.6506 c 1.450396,-0.62659 2.945834,-1.14967 4.47053,-1.56424 z m 8.890415,0.53846 c -0.807395,0.002 -1.615117,0.0339 -2.420009,0.0966 l 0.0553,0.70642 c 1.574186,-0.12281 3.157633,-0.12689 4.73201,-0.01 l 0.05271,-0.70642 c -0.805265,-0.0599 -1.612612,-0.0885 -2.420006,-0.0868 z m 2.621028,0.10232 -0.05684,0.7059 c 1.573561,0.12676 3.137334,0.37481 4.672068,0.74311 l 0.165364,-0.68885 c -1.570807,-0.37696 -3.170832,-0.63049 -4.780587,-0.76016 z m -5.242057,0.0104 c -1.609026,0.13518 -3.208007,0.39261 -4.77852,0.76688 l 0.164848,0.68833 c 1.536147,-0.36608 3.099644,-0.6166 4.6731,-0.74879 z m -12.489677,0.006 c -1.460106,0.68542 -2.873867,1.47083 -4.2261,2.35076 l 0.386541,0.59376 c 1.324626,-0.86196 2.709471,-1.63154 4.140316,-2.30322 z m -13.093258,0.57722 c -1.19986,1.07478 -2.335897,2.22056 -3.399276,3.4308 l 0.532267,0.46767 c 1.044616,-1.18889 2.160879,-2.31479 3.339848,-3.37085 z m -1.346171,0.0274 c -1.173513,1.10322 -2.282537,2.27505 -3.319177,3.5078 l 0.542602,0.45579 c 1.018822,-1.21156 2.107936,-2.36358 3.2613,-3.44786 z m 37.147603,0.18759 -0.1695,0.68729 c 0.476356,0.11739 0.943813,0.26772 1.41387,0.40825 a 45.028,44.876307 0 0 1 0.531233,-0.58343 c -0.588333,-0.18306 -1.17733,-0.36468 -1.775603,-0.51211 z m -15.19287,0.016 c -1.568143,0.38396 -3.107425,0.88543 -4.600755,1.49965 l 0.269235,0.65474 c 1.46028,-0.60063 2.966109,-1.091 4.499983,-1.46658 z m -23.57789,0.1974 c -1.134798,1.14257 -2.204474,2.35051 -3.200838,3.6158 l 0.556555,0.4377 c 0.97947,-1.24384 2.031342,-2.43091 3.147095,-3.5543 z m 17.532264,0.0155 c -1.47778,0.64835 -2.909263,1.40317 -4.27881,2.25722 l 0.374656,0.601 c 1.340411,-0.83588 2.742112,-1.57493 4.188891,-2.20968 z m -13.744381,0.0897 c -1.206541,1.06785 -2.348207,2.20895 -3.415812,3.41582 l 0.530716,0.46974 c 1.048437,-1.1852 2.169841,-2.30607 3.354834,-3.35484 z m 7.2347,0.11938 c -1.351026,0.88055 -2.643141,1.85239 -3.86333,2.90731 l 0.463538,0.53589 c 1.195765,-1.0338 2.462371,-1.98567 3.786848,-2.84892 z m -4.51652,0.30179 c -1.254049,1.01269 -2.443497,2.10574 -3.557922,3.2706 l 0.511079,0.48937 c 1.093344,-1.14282 2.26065,-2.21534 3.49126,-3.2091 z m 24.186637,0.38189 c -0.807847,0.0159 -1.614614,0.0652 -2.418456,0.14624 l 0.0708,0.70435 c 1.569823,-0.15833 3.152407,-0.19005 4.726845,-0.0925 l 0.04341,-0.70694 c -0.806582,-0.05 -1.614741,-0.0671 -2.422591,-0.0512 z m 2.62413,0.0646 -0.04754,0.70693 c 1.573709,0.10771 3.138045,0.34472 4.672065,0.71056 l 0.164849,-0.68937 C 70.4808,109.0288 68.876446,108.78606 67.263994,108.6757 Z m -25.579318,0.0537 c -1.271188,0.99179 -2.477318,2.06718 -3.607015,3.2179 l 0.505913,0.49661 c 1.107659,-1.12827 2.290504,-2.18368 3.537251,-3.1564 z m 20.33571,0.0486 c -1.606555,0.17277 -3.19953,0.47501 -4.757849,0.90227 l 0.187585,0.68316 c 1.52169,-0.41721 3.076897,-0.71288 4.645712,-0.8816 z m -9.282639,0.30386 c -1.489681,0.62298 -2.932017,1.35876 -4.31033,2.20038 l 0.36897,0.60461 c 1.347411,-0.82275 2.75803,-1.54261 4.21473,-2.1518 z m -14.98048,0.061 c -1.182192,1.09533 -2.29575,2.26473 -3.331579,3.49952 l 0.542086,0.45527 c 1.016699,-1.21198 2.110111,-2.3597 3.270601,-3.43493 z m 7.857918,0.0155 c -1.34734,0.88741 -2.632813,1.86852 -3.842659,2.93626 l 0.468705,0.53123 c 1.184699,-1.04554 2.443806,-2.00705 3.763595,-2.87631 z m 26.634035,0.29301 -0.168984,0.68781 c 0.151754,0.0373 0.298987,0.091 0.450104,0.13074 a 45.028,44.876307 0 0 1 0.502292,-0.59118 c -0.262223,-0.0723 -0.51925,-0.16253 -0.783412,-0.22737 z m -15.180987,0.28267 c -1.55556,0.43712 -3.075893,0.99939 -4.541325,1.68052 l 0.298173,0.64233 c 1.430705,-0.66499 2.915867,-1.21388 4.434871,-1.64072 z m -10.038146,0.34778 c -1.364523,0.86209 -2.666426,1.82437 -3.890204,2.87734 l 0.461989,0.5364 c 1.197145,-1.03005 2.470553,-1.97111 3.805968,-2.81481 z m -13.644646,0.77515 c -1.058012,1.21502 -2.043039,2.49412 -2.947623,3.82715 l 0.586011,0.39739 c 0.888698,-1.30962 1.856157,-2.56595 2.89543,-3.75946 z m -1.263488,0.10697 c -1.030906,1.23765 -1.988961,2.53605 -2.867525,3.88606 l 0.593762,0.38654 c 0.863431,-1.32675 1.805346,-2.60313 2.818432,-3.8194 z m 8.832535,0.003 c -1.214654,1.06132 -2.356511,2.20555 -3.414261,3.42357 l 0.534334,0.46457 c 1.036302,-1.19332 2.155765,-2.31482 3.346049,-3.35484 z m 24.141679,0.11472 c -0.808884,0.006 -1.618001,0.0475 -2.423107,0.12506 l 0.06821,0.70538 c 1.568694,-0.15106 3.150786,-0.16328 4.721159,-0.0346 l 0.05788,-0.70642 c -0.806339,-0.0661 -1.615255,-0.0955 -2.424142,-0.0894 z m 2.625161,0.10646 -0.06253,0.7059 c 1.087681,0.0969 2.16345,0.28658 3.230293,0.51883 a 45.028,44.876307 0 0 1 0.446484,-0.62374 c -1.191765,-0.27372 -2.396466,-0.4925 -3.614251,-0.60099 z m -5.24929,0.0393 c -1.609069,0.16643 -3.202678,0.47428 -4.757849,0.91933 l 0.194821,0.68109 c 1.515239,-0.43362 3.068232,-0.73393 4.635891,-0.89607 z m -28.286129,0.1478 c -1.061716,1.21216 -2.048186,2.48989 -2.953308,3.82302 l 0.585494,0.39791 c 0.888822,-1.30912 1.85856,-2.56349 2.901115,-3.75378 z m 14.069426,0.0129 c -1.373005,0.85026 -2.680486,1.80582 -3.905705,2.85874 l 0.460954,0.53743 c 1.196965,-1.02864 2.475712,-1.96299 3.817856,-2.79414 z m -17.633032,0.0879 c -0.990508,1.26978 -1.907757,2.59693 -2.745569,3.97236 l 0.605131,0.36846 c 0.823586,-1.35208 1.725274,-2.65632 2.69906,-3.90467 z m 21.72167,0.0243 c -1.460839,0.69085 -2.866176,1.50012 -4.195091,2.42052 l 0.403593,0.58187 c 1.296599,-0.89801 2.668106,-1.68765 4.094324,-2.36212 z m -15.588195,0.14521 c -1.108645,1.17045 -2.140647,2.41314 -3.0887,3.71708 l 0.572575,0.416 c 0.930031,-1.27916 1.943253,-2.49757 3.030823,-3.64578 z m 1.181324,0.44596 c -1.123788,1.1565 -2.170437,2.38789 -3.130042,3.68402 l 0.568957,0.42168 c 0.940721,-1.27063 1.967238,-2.47829 3.069064,-3.61219 z m 19.582782,0.11162 c -1.551929,0.45613 -3.063938,1.04897 -4.511868,1.77096 l 0.315743,0.63355 c 1.410195,-0.70317 2.883477,-1.28054 4.395597,-1.72496 z m -15.898253,0.0259 c -1.203506,1.0748 -2.331248,2.23525 -3.369303,3.47111 l 0.543119,0.45527 c 1.016034,-1.20964 2.119986,-2.34577 3.298507,-3.39824 z m -7.325651,0.56793 c -1.029409,1.24007 -1.980572,2.54475 -2.845821,3.90467 l 0.59738,0.38034 c 0.849143,-1.33461 1.783164,-2.61508 2.793627,-3.83232 z m 8.690943,0.29404 c -1.217408,1.06026 -2.355761,2.21111 -3.401343,3.44165 l 0.540018,0.45888 c 1.022395,-1.20324 2.135498,-2.32953 3.326412,-3.36672 z m 4.996076,0.94516 c -1.322805,0.92907 -2.567572,1.96905 -3.716567,3.10679 l 0.49816,0.50281 c 1.120391,-1.10941 2.33553,-2.12282 3.626136,-3.02927 z m 4.844667,0.0284 c -1.442681,0.73243 -2.8203,1.59433 -4.108278,2.57452 l 0.4284,0.56379 c 1.253514,-0.95397 2.594771,-1.79353 3.999754,-2.50682 z m 12.501046,0.28629 0.0041,0.70848 c 1.21026,-0.006 2.420724,0.0842 3.616833,0.26717 a 45.028,44.876307 0 0 1 0.389126,-0.65164 c -1.324938,-0.21907 -2.667585,-0.33117 -4.010091,-0.32401 z m -0.202573,0.003 c -1.620644,0.022 -3.238614,0.20807 -4.821928,0.55346 l 0.151413,0.69195 c 1.536949,-0.33528 3.108084,-0.51611 4.68085,-0.53744 z m -20.92947,0.0259 c -1.218734,1.06037 -2.354432,2.2173 -3.390492,3.45716 l 0.544153,0.45372 c 1.01181,-1.21084 2.120809,-2.34064 3.311426,-3.37654 z m -6.788734,0.16433 c -1.050988,1.22382 -2.01685,2.5204 -2.888713,3.8778 l 0.595829,0.38241 c 0.854084,-1.32973 1.800617,-2.59971 2.830319,-3.79874 z m -7.082255,0.30696 c -0.898054,1.33744 -1.716259,2.7288 -2.447913,4.16409 l 0.630969,0.32194 c 0.718764,-1.41 1.522229,-2.77728 2.404505,-4.09122 z m 29.781128,0.10025 c -1.580372,0.35836 -3.125335,0.87509 -4.602303,1.54306 l 0.292487,0.64544 c 1.43302,-0.6481 2.932205,-1.15021 4.466394,-1.4981 z m -30.961418,0.0682 c -0.872156,1.35409 -1.665383,2.75945 -2.372982,4.20646 l 0.636654,0.31109 c 0.695373,-1.422 1.47498,-2.80276 2.332157,-4.1336 z m 1.974557,0.34623 c -0.898424,1.33757 -1.714922,2.73006 -2.442745,4.1677 l 0.631486,0.31988 c 0.714674,-1.41167 1.517061,-2.77924 2.399336,-4.09277 z m 2.428792,0.1602 c -0.941343,1.30881 -1.797319,2.67902 -2.561601,4.09845 l 0.623735,0.3359 c 0.749782,-1.3925 1.589607,-2.73653 2.513024,-4.02043 z m -5.776392,0.0946 c -0.832026,1.37892 -1.584684,2.80668 -2.252575,4.27209 l 0.644405,0.29301 c 0.656607,-1.44066 1.396408,-2.84317 2.214335,-4.19871 z m 10.351306,0.23462 c -1.031246,1.24151 -1.972796,2.55788 -2.814815,3.93464 l 0.604614,0.36897 c 0.824271,-1.34774 1.746004,-2.63574 2.755388,-3.85093 z m -3.435966,0.0832 c -0.952953,1.30105 -1.818977,2.66617 -2.590022,4.08244 l 0.622701,0.33848 c 0.756002,-1.38864 1.604147,-2.72742 2.538346,-4.00285 z m 20.632848,0.64027 c -1.471432,0.68 -2.873589,1.51088 -4.174421,2.47944 l 0.42323,0.56792 c 1.260877,-0.93881 2.621291,-1.74479 4.048848,-2.4045 z m -15.86518,0.10904 c -1.038464,1.23656 -1.982617,2.55186 -2.823083,3.93051 l 0.604614,0.36846 c 0.821926,-1.34824 1.745666,-2.63511 2.761071,-3.84422 z m 9.103838,0.0744 c -1.28066,0.98975 -2.470875,2.09812 -3.54707,3.30781 l 0.529682,0.47077 c 1.046628,-1.17645 2.204183,-2.25422 3.450437,-3.21738 z m -17.217038,0.11058 c -0.858629,1.36388 -1.63171,2.78141 -2.312003,4.24264 l 0.641821,0.29921 c 0.667635,-1.43404 1.426795,-2.82583 2.269629,-4.16461 z m 12.781132,0.4129 c -1.141463,1.14534 -2.185625,2.3884 -3.115572,3.7114 l 0.57981,0.40773 c 0.906607,-1.2898 1.924061,-2.50216 3.037023,-3.6189 z m -3.445784,0.70642 c -1.028353,1.24629 -1.956455,2.57435 -2.773474,3.96823 l 0.610815,0.35863 c 0.797961,-1.36136 1.705155,-2.65917 2.709395,-3.87624 z m -6.266801,0.59944 c -0.864592,1.36187 -1.635546,2.78352 -2.303735,4.25194 l 0.645438,0.29352 c 0.65455,-1.43844 1.40909,-2.83132 2.256193,-4.16564 z m 16.573149,0.58808 c -1.29267,0.97953 -2.481133,2.09625 -3.536736,3.32848 l 0.537951,0.46147 c 1.022225,-1.19327 2.173949,-2.27639 3.426666,-3.22564 z m -23.197551,0.015 c -0.724597,1.43882 -1.362844,2.92133 -1.909444,4.43693 l 0.666109,0.2403 c 0.536889,-1.48867 1.164501,-2.94484 1.876371,-4.35839 z m -1.101225,0.21239 c -0.701181,1.45024 -1.316603,2.94183 -1.842264,4.46432 l 0.669726,0.23151 c 0.516618,-1.4963 1.12073,-2.96232 1.809709,-4.38733 z m 39.259103,0.18396 c -1.220904,0.003 -2.44116,0.12535 -3.638021,0.36639 l 0.139525,0.69505 c 1.265881,-0.25494 2.559725,-0.36446 3.850929,-0.3421 a 45.028,44.876307 0 0 1 0.342614,-0.69815 c -0.231606,-0.008 -0.463307,-0.0217 -0.695047,-0.0212 z m -37.35741,0.12293 c -0.721094,1.44107 -1.353206,2.92631 -1.891357,4.44521 l 0.667659,0.23616 c 0.528406,-1.49139 1.149216,-2.94962 1.857251,-4.36459 z m 2.305286,0.0884 c -0.757251,1.4233 -1.421454,2.8958 -1.987476,4.40541 l 0.663009,0.24857 c 0.555203,-1.48076 1.206952,-2.92556 1.949751,-4.3217 z m 4.312398,0.15968 c -0.834343,1.38149 -1.568807,2.82312 -2.195732,4.31033 l 0.652674,0.27492 c 0.613645,-1.4557 1.333024,-2.86708 2.149739,-4.21938 z m 26.902749,0.0367 c -1.592503,0.33743 -3.141618,0.88494 -4.589383,1.63246 l 0.325562,0.62993 c 1.390134,-0.71776 2.879095,-1.24491 4.410583,-1.56941 z m -36.670112,0.077 c -0.661161,1.46855 -1.237393,2.97545 -1.724959,4.51032 l 0.674894,0.21445 c 0.479326,-1.50892 1.046092,-2.99023 1.696021,-4.43384 z m 6.564974,0.12247 c -0.763658,1.42042 -1.431242,2.89239 -1.997811,4.40231 l 0.662492,0.24857 c 0.555398,-1.48016 1.210938,-2.92303 1.959571,-4.3155 z m 12.876218,0.0238 c -1.067089,1.2177 -2.019284,2.53542 -2.840138,3.93103 l 0.610299,0.35915 c 0.798284,-1.35724 1.72485,-2.6393 2.762622,-3.82354 z m -8.350913,0.56844 c -0.83226,1.38365 -1.559917,2.83025 -2.174027,4.32377 l 0.655257,0.26923 c 0.600429,-1.46024 1.312085,-2.87456 2.125969,-4.22765 z m 4.365109,0.37259 c -0.920591,1.32926 -1.727951,2.73684 -2.408639,4.20388 l 0.642338,0.29868 c 0.663492,-1.42998 1.451014,-2.8033 2.348694,-4.09949 z m -11.947075,0.13539 c -0.673358,1.46448 -1.25311,2.97121 -1.736328,4.50877 l 0.675928,0.21291 c 0.474299,-1.50918 1.043485,-2.98891 1.704289,-4.42609 z m 28.392581,0.42788 c -1.439817,0.76304 -2.774291,1.72612 -3.943945,2.86391 l 0.493511,0.5085 c 1.119884,-1.08938 2.399919,-2.01434 3.781682,-2.74661 z m -19.535757,0.40876 c -0.808509,1.39899 -1.504224,2.8627 -2.078943,4.37286 l 0.661458,0.25218 c 0.561221,-1.47469 1.241875,-2.90439 2.031401,-4.27054 z m 9.514148,0.52762 c -1.045049,1.2413 -1.954917,2.59681 -2.708879,4.03334 l 0.627351,0.32866 c 0.730229,-1.39131 1.611239,-2.70382 2.623098,-3.9057 z m -15.291573,0.36483 c -0.660291,1.47201 -1.218612,2.9901 -1.668632,4.53926 l 0.680579,0.1974 c 0.440884,-1.5177 0.987211,-3.00482 1.634008,-4.44675 z m -6.215641,0.79324 c -0.539778,1.51796 -0.987745,3.06855 -1.342037,4.64002 l 0.690397,0.15607 c 0.348092,-1.54397 0.78855,-3.06727 1.318783,-4.55838 z m -1.031462,0.24133 c -0.518641,1.52498 -0.947373,3.08055 -1.284159,4.65552 l 0.692464,0.1478 c 0.331029,-1.54806 0.752789,-3.07683 1.262455,-4.57543 z m 17.158126,0.2651 c -0.810662,1.40162 -1.488524,2.88051 -2.020549,4.41006 l 0.66921,0.23203 c 0.517199,-1.48693 1.176443,-2.92412 1.964738,-4.28708 z m -15.307593,0.0222 c -0.53108,1.5214 -0.967922,3.07514 -1.308964,4.64985 l 0.692464,0.14986 c 0.334952,-1.54658 0.763728,-3.07228 1.285193,-4.56613 z m 2.20555,0.0465 c -0.558622,1.51242 -1.018477,3.06174 -1.377177,4.63331 l 0.690914,0.15761 c 0.351951,-1.542 0.802895,-3.06148 1.350822,-4.54494 z m 4.096908,0.0625 c -0.61809,1.49088 -1.128181,3.02674 -1.525488,4.59093 l 0.686779,0.17415 c 0.388921,-1.53118 0.887933,-3.03447 1.492932,-4.49378 z m 20.317622,0.27492 c -1.156621,1.15136 -2.141429,2.47393 -2.911967,3.91294 l 0.624252,0.33434 c 0.73718,-1.37671 1.680504,-2.6431 2.787425,-3.74499 z m -29.596642,0.045 c -0.480859,1.53705 -0.872606,3.10126 -1.174606,4.68291 l 0.696082,0.13281 c 0.296972,-1.55532 0.681754,-3.09341 1.154451,-4.60437 z m 6.281787,0.0108 c -0.55876,1.51282 -1.016137,3.06282 -1.368392,4.63641 l 0.69143,0.15503 c 0.34539,-1.54291 0.793757,-3.06345 1.341521,-4.54649 z m 4.343921,0.51212 c -0.605141,1.49717 -1.096693,3.03967 -1.469678,4.61057 l 0.689364,0.16381 c 0.364792,-1.53638 0.84546,-3.04545 1.437121,-4.50928 z m 4.122229,0.24908 c -0.670732,1.47168 -1.213885,3.00155 -1.62264,4.56613 l 0.685229,0.1788 c 0.398511,-1.52537 0.92806,-3.01647 1.581816,-4.45089 z M 27.14913,125.9993 c -0.475359,1.54002 -0.853615,3.10979 -1.133265,4.69687 l 0.697116,0.12247 c 0.274553,-1.55816 0.646002,-3.09894 1.112593,-4.61057 z m 8.50284,0.69762 c -0.564828,1.51387 -1.007834,3.0729 -1.324984,4.65709 l 0.694531,0.13849 c 0.309772,-1.54734 0.742402,-3.07021 1.293978,-4.54856 z m 8.862509,0.17829 c -0.741532,1.44374 -1.322933,2.96879 -1.73168,4.53926 l 0.685231,0.17828 c 0.395674,-1.52024 0.958758,-2.99685 1.676384,-4.39405 z m -14.213604,0.88418 c -0.441693,1.55155 -0.776289,3.13333 -1.001489,4.73046 l 0.701766,0.0992 c 0.220703,-1.56522 0.548076,-3.1158 0.980818,-4.63589 z m -5.878194,0.89762 c -0.347089,1.57305 -0.600022,3.16639 -0.759127,4.76922 l 0.704867,0.0698 c 0.15636,-1.57518 0.405174,-3.14093 0.746207,-4.68653 z m 25.818579,0.16847 c -0.06765,0.12958 -0.133082,0.26 -0.196887,0.39067 -0.655336,1.33704 -1.112983,2.76734 -1.365292,4.23282 l 0.697632,0.12093 c 0.241115,-1.40046 0.678908,-2.76784 1.303795,-4.04265 h 5.3e-4 c 0.06135,-0.12565 0.123745,-0.25085 0.1881,-0.37413 z m -26.789062,0.0884 c -0.329474,1.57649 -0.567863,3.17163 -0.713652,4.77542 l 0.7059,0.0646 c 0.143335,-1.57676 0.377384,-3.14565 0.701249,-4.69532 z m 16.397448,0.014 c -0.520749,1.53334 -0.895509,3.11554 -1.120862,4.71857 l 0.701766,0.0982 c 0.219229,-1.5595 0.583561,-3.09809 1.089856,-4.58887 z m -14.57172,0.26768 c -0.333669,1.57634 -0.571462,3.17271 -0.712618,4.77749 l 0.7059,0.0625 c 0.138676,-1.57658 0.370968,-3.14513 0.698665,-4.69325 z m 2.134753,0.0295 c -0.350611,1.57343 -0.599772,3.16934 -0.747241,4.77438 l 0.704867,0.0646 c 0.144726,-1.5752 0.389799,-3.1412 0.733805,-4.68499 z m 3.943946,0.0191 c -0.38864,1.56632 -0.664775,3.16032 -0.82734,4.7656 l 0.70435,0.0713 c 0.159206,-1.5721 0.429825,-3.13301 0.810286,-4.66638 z m -2.834969,0.37775 c -0.344246,1.57537 -0.58371,3.17296 -0.718303,4.77955 l 0.706417,0.0594 c 0.132023,-1.57589 0.366289,-3.14287 0.703833,-4.68757 z m -6.081283,0.0367 c -0.295081,1.5831 -0.500066,3.18297 -0.614949,4.78885 l 0.706933,0.0507 c 0.113001,-1.57963 0.313965,-3.15378 0.604098,-4.71031 z m 10.321851,0.44907 c -0.36326,1.57315 -0.608557,3.17382 -0.734839,4.78317 l 0.706417,0.0553 c 0.123548,-1.57453 0.36352,-3.1401 0.718819,-4.67878 z m 3.964099,0.2036 c -0.397948,1.56731 -0.661867,3.16848 -0.790133,4.78007 l 0.706417,0.0558 c 0.125112,-1.57198 0.382482,-3.13302 0.770495,-4.66121 z m -10.745081,0.58291 c -0.271721,1.58848 -0.444826,3.1938 -0.519348,4.80333 l 0.707967,0.0325 c 0.07319,-1.58071 0.242765,-3.15699 0.50953,-4.7165 z m 8.30647,0.65733 c -0.307411,1.58607 -0.488499,3.19639 -0.54467,4.81056 l 0.707968,0.0243 c 0.0549,-1.57752 0.231983,-3.15067 0.532267,-4.69997 z m 8.444446,0.0594 c -0.395012,1.57387 -0.618095,3.18977 -0.66766,4.81107 l 0.708485,0.0222 c 0.04802,-1.57084 0.264017,-3.13737 0.646472,-4.66122 z m -13.460161,1.079 c -0.216726,1.59829 -0.324138,3.21084 -0.324011,4.82348 h 0.707451 c -1.27e-4,-1.581 0.105917,-3.16196 0.318326,-4.7284 z m -5.62808,0.93638 c -0.151854,1.60348 -0.209488,3.21594 -0.174149,4.82606 l 0.70745,-0.015 c -0.03474,-1.58276 0.02284,-3.16845 0.172083,-4.74441 z m 25.002091,0.0243 c -0.257265,1.61219 -0.270796,3.26223 -0.04134,4.87825 l 0.701249,-0.0992 c -0.21949,-1.54583 -0.206727,-3.12529 0.03927,-4.6669 z m -9.944095,0.19637 c -0.21328,1.6047 -0.2775,3.22847 -0.194304,4.84466 l 0.706934,-0.0367 c -0.08098,-1.57321 -0.01837,-3.15323 0.189136,-4.71444 z m -15.980937,0.0429 c -0.138727,1.60439 -0.18549,3.21701 -0.141077,4.82658 l 0.707968,-0.0202 c -0.04368,-1.58286 0.0026,-3.16805 0.139009,-4.74545 z m 1.826762,0.2837 c -0.133434,1.60542 -0.170355,3.21888 -0.112655,4.82865 l 0.707968,-0.0253 c -0.0567,-1.58186 -0.02,-3.16711 0.111104,-4.74441 z m 2.099613,0.0264 c -0.139699,1.60574 -0.177563,3.2204 -0.115238,4.83071 l 0.707967,-0.0279 c -0.06119,-1.58094 -0.02444,-3.16539 0.112655,-4.74131 z m 3.86178,0.01 c -0.153758,1.6062 -0.193672,3.22328 -0.122473,4.83485 l 0.707967,-0.031 c -0.06976,-1.57895 -0.03069,-3.16317 0.11989,-4.73614 z m -2.721797,0.39274 c -0.126429,1.60731 -0.147456,3.2229 -0.06563,4.83278 l 0.706933,-0.0367 c -0.08029,-1.57964 -0.0589,-3.16424 0.06511,-4.7408 z m -5.975346,0.0455 c -0.107559,1.60643 -0.125697,3.21876 -0.05426,4.82709 l 0.707967,-0.031 c -0.07027,-1.58218 -0.05309,-3.16845 0.05271,-4.74855 z m 10.199894,0.4439 c -0.116943,1.61 -0.114808,3.22835 0.0036,4.83795 l 0.7059,-0.0522 c -0.115917,-1.57544 -0.11694,-3.15929 -0.0026,-4.73459 z m 3.909322,0.20102 c -0.117642,1.61235 -0.100483,3.23435 0.04961,4.84363 l 0.705384,-0.0661 c -0.146477,-1.57055 -0.163855,-3.15293 -0.04909,-4.72581 z m -10.468095,0.60565 c -0.06648,1.60986 -0.03467,3.22424 0.09405,4.83019 l 0.706417,-0.0568 c -0.126446,-1.5775 -0.157796,-3.16228 -0.0925,-4.74338 z m 8.283215,0.66507 c -0.04624,1.61452 0.03313,3.23261 0.234611,4.83485 l 0.7028,-0.0889 c -0.196977,-1.56645 -0.274635,-3.14794 -0.229444,-4.72581 z m 8.323523,0.0615 c -0.03568,1.62159 0.101037,3.24666 0.40566,4.8395 l 0.695564,-0.13333 c -0.295277,-1.54397 -0.428349,-3.1193 -0.393774,-4.69067 z m -12.403894,1.08624 -0.70745,0.004 c 0.0084,1.61266 0.124597,3.22436 0.346232,4.82141 l 0.701766,-0.0971 c -0.217363,-1.56627 -0.332291,-3.14688 -0.340548,-4.72788 z m 19.678384,0.91105 -0.699698,0.108 c 0.24838,1.61301 0.740095,3.19113 1.471745,4.65399 l 0.633552,-0.31678 c -0.697232,-1.39404 -1.16804,-2.90247 -1.405599,-4.44521 z m -25.151951,0.0124 -0.707968,0.0186 c 0.0424,1.60992 0.177543,3.21729 0.40411,4.81159 l 0.701249,-0.0992 c -0.222768,-1.56757 -0.355706,-3.14834 -0.397391,-4.73097 z m 15.043009,0.21756 -0.706934,0.0413 c 0.09516,1.61548 0.336925,3.22204 0.720887,4.79402 l 0.68833,-0.16795 c -0.373831,-1.53049 -0.609641,-3.09472 -0.702283,-4.66741 z m -15.931327,0.0424 -0.707967,0.0222 c 0.05134,1.60936 0.193413,3.21569 0.42478,4.80901 l 0.700732,-0.10181 c -0.227573,-1.56718 -0.367053,-3.14674 -0.417545,-4.72942 z m 1.855701,0.28009 -0.706934,0.0284 c 0.0651,1.60945 0.224811,3.21529 0.478007,4.80591 l 0.699699,-0.11162 c -0.24885,-1.56333 -0.406802,-3.14111 -0.470772,-4.72271 z m 2.098579,0.0258 -0.707967,0.0305 c 0.07034,1.61001 0.24076,3.21599 0.509013,4.80487 l 0.698665,-0.11782 c -0.263419,-1.56024 -0.430656,-3.13689 -0.499711,-4.71754 z m 3.855062,0.0103 -0.70745,0.0351 c 0.08029,1.61118 0.272091,3.21646 0.572575,4.80126 l 0.696081,-0.13178 c -0.294447,-1.55296 -0.482547,-3.12606 -0.561206,-4.70462 z m -2.66392,0.38551 -0.70745,0.0393 c 0.09018,1.60942 0.283105,3.21334 0.577226,4.79816 l 0.697115,-0.12919 c -0.288628,-1.55523 -0.478397,-3.12898 -0.566891,-4.70824 z m -5.964494,0.045 -0.707967,0.0346 c 0.07835,1.60794 0.245529,3.21166 0.499711,4.80126 l 0.699183,-0.11214 c -0.250091,-1.56401 -0.413846,-3.14179 -0.490927,-4.72374 z m 10.261906,0.43304 -0.706417,0.0563 c 0.127613,1.60891 0.371946,3.20839 0.729155,4.78214 l 0.690397,-0.1571 c -0.349702,-1.54068 -0.588231,-3.10658 -0.713135,-4.68137 z m 3.957898,0.19224 -0.70435,0.0703 c 0.16061,1.60827 0.453072,3.20362 0.873849,4.76405 l 0.684196,-0.18448 C 37.137792,143.39377 36.851549,141.8366 36.6948,140.267 Z m -10.425203,0.60255 -0.7059,0.0599 c 0.136461,1.60522 0.369518,3.20219 0.697115,4.77956 l 0.693497,-0.14366 c -0.321827,-1.54958 -0.550649,-3.11886 -0.684712,-4.69584 z m 8.428943,0.63665 -0.701766,0.092 c 0.211256,1.60099 0.544658,3.1863 0.996321,4.73666 l 0.680062,-0.19844 c -0.441603,-1.51583 -0.768079,-3.06498 -0.974617,-4.63021 z m 8.49974,0.0181 -0.694532,0.13901 c 0.318149,1.59017 0.804363,3.14741 1.449007,4.63589 l 0.650089,-0.28215 c -0.624612,-1.44223 -1.096169,-2.95133 -1.404564,-4.49275 z m -13.17439,1.11104 -0.700733,0.10077 c 0.230197,1.59588 0.565436,3.17653 1.00304,4.7284 l 0.681612,-0.19172 c -0.429164,-1.52193 -0.758167,-3.07238 -0.983919,-4.63745 z m 20.803899,0.60617 -0.628904,0.32504 c 0.750414,1.45344 1.744736,2.78512 2.950726,3.89847 l 0.480073,-0.52038 c -1.14163,-1.05394 -2.087589,-2.31962 -2.801895,-3.70313 z m -26.219589,0.32039 -0.700733,0.10284 c 0.233491,1.59338 0.558467,3.1731 0.971517,4.72942 l 0.684196,-0.1819 c -0.406188,-1.53047 -0.725421,-3.0838 -0.95498,-4.65036 z m 15.366503,0.14883 -0.686779,0.17363 c 0.395461,1.56908 0.932561,3.10255 1.604553,4.57492 l 0.644405,-0.29456 c -0.654057,-1.43306 -1.177135,-2.92625 -1.562179,-4.45399 z m -16.233634,0.10955 -0.700732,0.10542 c 0.238465,1.59227 0.565991,3.17096 0.979785,4.72685 l 0.684196,-0.18246 c -0.407048,-1.53051 -0.728687,-3.08363 -0.963249,-4.64984 z m 1.910994,0.27337 -0.699182,0.11421 c 0.2603,1.58948 0.613851,3.16405 1.0573,4.71237 l 0.681096,-0.19585 c -0.435883,-1.5219 -0.78338,-3.06852 -1.039214,-4.63073 z m 6.04976,0.0165 -0.695048,0.13591 c 0.309189,1.58307 0.726424,3.14443 1.24902,4.67051 l 0.670243,-0.22944 c -0.512067,-1.49534 -0.921223,-3.02563 -1.224215,-4.57698 z m -3.920174,0.003 -0.698148,0.12144 c 0.276261,1.58752 0.650508,3.1578 1.119311,4.69946 l 0.677478,-0.20567 c -0.460355,-1.51391 -0.827359,-3.05637 -1.098641,-4.61526 z m 1.260905,0.38654 -0.695565,0.13229 c 0.301921,1.58333 0.704533,3.14752 1.204578,4.67982 l 0.673344,-0.21962 c -0.490737,-1.50378 -0.886064,-3.03868 -1.182357,-4.59249 z m -6.044592,0.0615 -0.699182,0.11472 c 0.260703,1.58858 0.608483,3.16236 1.040763,4.71289 l 0.682646,-0.18965 c -0.425388,-1.52581 -0.767732,-3.07501 -1.024227,-4.63796 z m 10.497033,0.38757 -0.68988,0.16072 c 0.366317,1.57166 0.845616,3.11684 1.433504,4.61987 l 0.659392,-0.25787 c -0.575455,-1.47124 -1.044398,-2.98409 -1.403016,-4.52272 z m 4.105176,0.15761 -0.682646,0.18966 c 0.430945,1.55764 0.989948,3.08017 1.670183,4.54649 l 0.642338,-0.29869 c -0.66376,-1.43081 -1.209244,-2.9171 -1.629875,-4.43746 z m -10.605037,0.65268 -0.692981,0.14676 c 0.334799,1.57579 0.764172,3.13147 1.284676,4.65605 l 0.669726,-0.22841 c -0.511362,-1.4978 -0.932498,-3.02626 -1.261421,-4.5744 z m 17.68626,0.4377 -0.647507,0.28732 c 0.657542,1.48283 1.474676,2.89583 2.437061,4.20284 l 0.569992,-0.42013 c -0.93132,-1.26483 -1.722528,-2.63348 -2.359546,-4.07003 z m -8.952426,0.12919 -0.678512,0.20205 c 0.461062,1.5476 1.039546,3.06017 1.73116,4.51962 l 0.640271,-0.30334 c -0.676032,-1.42657 -1.242135,-2.90523 -1.692919,-4.41833 z m 18.044377,0.74931 -0.472324,0.52761 c 0.142573,0.12786 0.287269,0.25265 0.435115,0.37414 1.119815,0.92156 2.391754,1.65394 3.747058,2.16628 l 0.250632,-0.6625 c -1.283448,-0.48517 -2.488768,-1.17967 -3.547589,-2.05103 h -5.29e-4 c -0.140078,-0.11511 -0.277505,-0.23355 -0.412377,-0.3545 z m -22.711276,0.38705 -0.680579,0.19586 c 0.445709,1.54951 0.992908,3.06995 1.63866,4.54752 l 0.649573,-0.28318 c -0.633192,-1.44884 -1.170521,-2.94051 -1.607654,-4.4602 z m 10.557495,0.88109 -0.642338,0.2992 c 0.68288,1.46734 1.50042,2.87191 2.442229,4.18889 l 0.576191,-0.41134 c -0.915971,-1.28086 -1.711468,-2.64868 -2.376082,-4.07675 z m -16.004708,0.0605 -0.684196,0.18448 c 0.420141,1.55453 0.929738,3.08497 1.523938,4.58163 l 0.658358,-0.26148 c -0.584261,-1.47163 -1.084991,-2.97611 -1.4981,-4.50463 z m -0.858862,0.25786 -0.683679,0.18501 c 0.420774,1.55402 0.928184,3.08453 1.519287,4.58214 l 0.658874,-0.25993 c -0.581406,-1.47304 -1.080581,-2.97858 -1.494482,-4.50722 z m 8.234639,0.21239 -0.668692,0.23306 c 0.530697,1.5233 1.166445,3.01033 1.901692,4.44624 l 0.629936,-0.32349 c -0.720325,-1.40678 -1.342939,-2.86323 -1.862936,-4.35581 z m -6.245096,0.0408 -0.679545,0.19792 c 0.450761,1.5462 0.991314,3.06676 1.619022,4.55011 l 0.652157,-0.27647 c -0.616912,-1.45784 -1.148555,-2.95172 -1.591634,-4.47156 z m 2.193147,0.002 -0.677478,0.20981 c 0.476365,1.53934 1.048123,3.04951 1.71049,4.51859 l 0.645439,-0.29146 c -0.650323,-1.44235 -1.210682,-2.92537 -1.678451,-4.43694 z m 1.347722,0.36277 -0.671794,0.22325 c 0.507772,1.52976 1.112399,3.02746 1.810742,4.48034 l 0.638204,-0.30696 c -0.685211,-1.42556 -1.278838,-2.89535 -1.777152,-4.39663 z m -6.210991,0.10956 -0.681095,0.19327 c 0.439202,1.54858 0.962687,3.07354 1.56838,4.56509 l 0.65629,-0.26665 c -0.595899,-1.46744 -1.111378,-2.96783 -1.543575,-4.49171 z m 33.841344,0.15916 -0.241845,0.66611 c 1.54981,0.56248 3.215833,0.78587 4.857586,0.66663 l -0.05116,-0.70642 c -1.543283,0.11209 -3.111344,-0.0989 -4.564581,-0.62632 z m -22.946402,0.10697 -0.658357,0.262 c 0.596477,1.49962 1.301751,2.95616 2.109432,4.35374 l 0.612882,-0.3545 c -0.790335,-1.36757 -1.480098,-2.79334 -2.063957,-4.26124 z m 4.343405,0.0677 -0.640788,0.30179 c 0.6899,1.46175 1.501429,2.86631 2.425692,4.19302 l 0.581359,-0.40462 c -0.901328,-1.2938 -1.693077,-2.66385 -2.366263,-4.09019 z m 24.527701,0.25993 c -0.385982,0.0772 -0.775028,0.14058 -1.167371,0.1757 l 0.06356,0.7059 c 0.439307,-0.0393 0.87466,-0.11149 1.306897,-0.2005 a 45.028,44.876307 0 0 1 -0.203089,-0.6811 z m -16.68322,0.44183 -0.566889,0.42478 c 0.9739,1.29845 2.092783,2.48837 3.332613,3.53726 l 0.457337,-0.54054 c -1.198504,-1.01392 -2.280724,-2.16513 -3.223061,-3.4215 z m -18.837092,0.0956 -0.669726,0.23152 c 0.527509,1.52223 1.147334,3.01273 1.853633,4.4607 l 0.636654,-0.31057 c -0.693838,-1.42243 -1.302356,-2.88626 -1.820561,-4.38165 z m 9.186003,0.40153 -0.638204,0.30799 c 0.700507,1.45522 1.513022,2.85642 2.430859,4.18579 l 0.58291,-0.40307 c -0.89671,-1.29878 -1.690873,-2.66835 -2.375565,-4.09071 z m -4.758366,1.18081 -0.646989,0.28732 c 0.65329,1.47429 1.404647,2.90499 2.248441,4.27932 l 0.603581,-0.37052 c -0.827213,-1.34732 -1.564483,-2.75058 -2.205033,-4.19612 z m 11.361579,0.47645 -0.572574,0.41703 c 0.951788,1.30976 2.026928,2.52979 3.210139,3.63596 l 0.484209,-0.51729 c -1.149795,-1.07492 -2.196169,-2.26197 -3.121774,-3.5357 z m -16.924547,0.51315 -0.656808,0.26407 c 0.601193,1.49382 1.287584,2.95392 2.056206,4.36924 l 0.622184,-0.33796 c -0.755532,-1.3913 -1.430425,-2.82653 -2.021582,-4.29543 z m -0.86248,0.26045 -0.657841,0.26303 c 0.597591,1.49503 1.279432,2.95684 2.041219,4.37545 l 0.623735,-0.33538 c -0.749132,-1.39504 -1.41934,-2.83263 -2.007113,-4.3031 z m 8.621179,0.0532 -0.628385,0.32607 c 0.743335,1.4318 1.585997,2.81224 2.522327,4.12637 l 0.576709,-0.41135 c -0.916919,-1.28688 -1.742458,-2.63846 -2.470651,-4.04109 z m -4.245219,0.12816 -0.644405,0.29403 c 0.669458,1.46585 1.429696,2.89012 2.276864,4.26124 l 0.602547,-0.37207 c -0.83151,-1.34578 -1.577733,-2.74404 -2.235006,-4.1832 z m -2.284098,0.0341 -0.651123,0.27905 c 0.634573,1.4804 1.355438,2.92409 2.160075,4.31964 l 0.613916,-0.35347 c -0.790591,-1.37119 -1.499204,-2.79028 -2.122868,-4.24522 z m 3.734656,0.28577 -0.636654,0.31006 c 0.705702,1.44931 1.504575,2.85392 2.391586,4.20026 l 0.591695,-0.38964 c -0.870034,-1.32057 -1.65421,-2.69865 -2.346627,-4.12068 z m 18.382341,0.11834 -0.453202,0.54519 c 1.249174,1.0377 2.617568,1.93089 4.068484,2.65978 l 0.31781,-0.632 c -1.402876,-0.70476 -2.725608,-1.5699 -3.933092,-2.57297 z m -8.739519,0.003 -0.578259,0.40877 c 0.933137,1.32044 1.978927,2.56169 3.124356,3.70365 l 0.499713,-0.50178 c -1.116309,-1.11292 -2.135857,-2.32299 -3.04581,-3.61064 z m -16.098759,0.0894 -0.655257,0.26924 c 0.611831,1.48902 1.305895,2.94462 2.07791,4.35736 l 0.621667,-0.34004 c -0.759474,-1.38978 -1.442361,-2.82156 -2.04432,-4.28656 z m 11.440129,0.0227 -0.611332,0.35812 c 0.815853,1.3928 1.734543,2.72548 2.747635,3.9827 l 0.551388,-0.4439 c -0.990815,-1.22957 -1.889373,-2.53405 -2.687691,-3.89692 z m -6.905522,0.99322 -0.635103,0.31368 c 0.713375,1.44461 1.514601,2.84564 2.398303,4.19303 l 0.592212,-0.3881 c -0.867822,-1.32316 -1.654712,-2.69967 -2.355412,-4.11861 z m 9.767363,0.0951 -0.580327,0.40618 c 0.926081,1.32372 1.956612,2.57415 3.080949,3.73465 l 0.509012,-0.49299 c -1.097942,-1.13326 -2.104975,-2.35473 -3.009634,-3.64784 z m 7.380427,1.07332 -0.479558,0.5209 c 1.191583,1.09708 2.489076,2.07899 3.869532,2.92643 l 0.371038,-0.6041 c -1.341303,-0.82341 -2.603082,-1.77713 -3.761012,-2.84323 z m -12.318627,0.21859 -0.601514,0.37362 c 0.851378,1.3697 1.794728,2.68237 2.824117,3.92431 l 0.545703,-0.45165 c -1.008676,-1.21695 -1.933735,-2.50362 -2.768306,-3.84628 z m 19.583299,0.16485 -0.312124,0.63562 c 1.458617,0.71529 3.000188,1.25958 4.5837,1.62057 l 0.157613,-0.6904 c -1.530271,-0.34885 -3.020254,-0.87487 -4.429189,-1.56579 z m -25.338504,0.92966 -0.62115,0.34054 c 0.774954,1.41172 1.631603,2.77897 2.565735,4.09123 l 0.577225,-0.41031 c -0.917964,-1.28955 -1.759965,-2.63363 -2.52181,-4.02146 z m 8.227922,0.0465 -0.574642,0.41445 c 0.943849,1.30871 1.981051,2.55035 3.102136,3.7114 l 0.509013,-0.49248 c -1.097328,-1.13644 -2.112239,-2.35181 -3.036507,-3.63337 z m 7.448642,0.11628 -0.497128,0.50488 c 1.153165,1.13413 2.405906,2.16752 3.73879,3.08404 l 0.401007,-0.58342 c -1.298683,-0.89302 -2.518881,-1.90026 -3.642669,-3.0055 z m -16.554546,0.10593 -0.622701,0.33797 c 0.76788,1.41532 1.616342,2.78731 2.540413,4.10621 l 0.57981,-0.40734 c -0.908501,-1.29668 -1.742416,-2.64518 -2.497522,-4.03697 z m 4.614705,0.0548 -0.600997,0.37569 c 0.853785,1.36702 1.794408,2.68003 2.814816,3.92792 l 0.54777,-0.44855 c -1.001239,-1.22445 -1.923614,-2.51335 -2.761589,-3.85506 z m -2.401404,0.0992 -0.612365,0.35657 c 0.810918,1.39193 1.705246,2.73581 2.676839,4.02094 l 0.564823,-0.42736 c -0.954422,-1.26243 -1.832564,-2.58257 -2.629297,-3.95015 z m 9.308476,0.15296 -0.54932,0.44752 c 1.020399,1.25127 2.135372,2.42564 3.333129,3.50883 l 0.474907,-0.52503 c -1.170974,-1.05897 -2.260782,-2.2076 -3.258716,-3.43132 z m -5.340759,0.002 -0.589628,0.39326 c 0.893911,1.34171 1.876097,2.62514 2.938838,3.838 L 37.487,161.90363 c -1.041981,-1.18918 -2.004658,-2.44858 -2.881478,-3.76463 z m 24.656376,0.10128 -0.150894,0.69247 c 1.586664,0.34645 3.212129,0.50994 4.835363,0.49144 l -0.0083,-0.70797 c -1.570169,0.0179 -3.142564,-0.14107 -4.676201,-0.47594 z m 7.772136,0.20516 c -0.959552,0.15296 -1.928281,0.24788 -2.899566,0.26768 l 0.01447,0.70797 c 1.076286,-0.0219 2.14948,-0.13122 3.210658,-0.31109 a 45.028,44.876307 0 0 1 -0.325562,-0.66456 z m -39.200708,0.0796 -0.619601,0.3421 c 0.778099,1.40948 1.634129,2.77572 2.564701,4.08967 l 0.57826,-0.40928 c -0.915237,-1.29229 -1.757985,-2.63606 -2.52336,-4.02249 z m 15.309658,0.43925 -0.505394,0.49661 c 1.131973,1.15307 2.356956,2.21464 3.660241,3.17035 l 0.419097,-0.57103 c -1.272167,-0.93289 -2.468607,-1.97 -3.573944,-3.09593 z m 8.161777,0.23048 -0.365868,0.60616 c 1.386691,0.83723 2.854999,1.53933 4.378025,2.09186 l 0.241846,-0.66507 c -1.47931,-0.53668 -2.906636,-1.21947 -4.254003,-2.03295 z m -18.611784,0.16898 -0.590145,0.39171 c 0.890451,1.34291 1.862745,2.63062 2.912484,3.85351 l 0.537952,-0.46096 c -1.030469,-1.20043 -1.985849,-2.46549 -2.860291,-3.78426 z m 5.259628,1.10071 -0.542603,0.45527 c 1.036237,1.23619 2.157736,2.40138 3.354834,3.48299 l 0.47439,-0.52555 c -1.172612,-1.05949 -2.271238,-2.2014 -3.286621,-3.41271 z m 10.831897,0.37672 -0.397391,0.58601 c 1.33904,0.907 2.757421,1.69785 4.234365,2.358 l 0.288872,-0.64596 c -1.438751,-0.64307 -2.820779,-1.41406 -4.125846,-2.29805 z m 6.958748,0.45217 v 5.3e-4 l -0.235644,0.66766 c 1.52713,0.5407 3.106571,0.93141 4.708755,1.16788 l 0.103355,-0.70073 c -1.557211,-0.22984 -3.092995,-0.61008 -4.576466,-1.13533 z m -15.038876,0.0904 -0.505912,0.49506 c 1.127696,1.15462 2.338929,2.22722 3.622001,3.20652 l 0.429432,-0.56327 c -1.255659,-0.95838 -2.441739,-2.00818 -3.545521,-3.13831 z m 2.647901,0.31729 -0.472323,0.52762 c 1.204221,1.076 2.490962,2.06006 3.845245,2.93987 l 0.385505,-0.59376 c -1.323858,-0.86005 -2.581163,-1.82182 -3.758427,-2.87373 z m -11.41274,0.0429 -0.575159,0.41341 c 0.939965,1.30798 1.956954,2.56083 3.045292,3.74861 l 0.521416,-0.47801 c -1.069212,-1.16691 -2.067785,-2.39858 -2.991549,-3.68401 z m 3.986836,0.14986 -0.545703,0.45113 c 1.0268,1.24261 2.13277,2.41906 3.311426,3.51917 l 0.483691,-0.5178 c -1.156085,-1.07905 -2.241884,-2.23322 -3.249414,-3.4525 z m -4.89014,0.13642 -0.578776,0.40876 c 0.930093,1.31462 1.936365,2.57631 3.012219,3.77497 l 0.5271,-0.47336 c -1.057402,-1.1781 -2.046085,-2.41785 -2.960543,-3.71037 z m 6.58151,0.0217 -0.5302,0.46974 c 1.068893,1.20744 2.218257,2.34334 3.439066,3.39721 l 0.463021,-0.53641 c -1.1967,-1.03305 -2.323904,-2.14671 -3.371887,-3.33054 z m -4.231266,0.0403 -0.562756,0.42995 c 0.977933,1.28025 2.032959,2.5018 3.159497,3.65403 l 0.506429,-0.49505 c -1.106141,-1.13154 -2.14248,-2.33142 -3.10317,-3.58909 z m 35.693428,0.0517 c -1.206894,0.24965 -2.426356,0.43763 -3.656624,0.50902 l 0.04082,0.70693 c 1.346774,-0.0781 2.682507,-0.28587 4.000791,-0.57154 a 45.028,44.876307 0 0 1 -0.38499,-0.64441 z m -22.203296,0.0326 -0.415994,0.57361 c 1.309201,0.94733 2.695398,1.78835 4.140314,2.51199 l 0.31781,-0.63304 c -1.410621,-0.70646 -2.764002,-1.52772 -4.04213,-2.45256 z m 13.637927,0.28009 -0.09819,0.70125 c 1.60392,0.22423 3.229272,0.29455 4.846217,0.2129 l -0.03617,-0.70693 c -1.572614,0.0794 -3.152791,0.0107 -4.711858,-0.20722 z m -30.043127,0.25218 -0.576192,0.41186 c 0.936558,1.30966 1.947021,2.5672 3.026172,3.76256 l 0.525549,-0.47439 c -1.060952,-1.17521 -2.054397,-2.41194 -2.975529,-3.70003 z m 22.619291,0.51004 -0.284736,0.64854 c 1.481457,0.64987 3.019962,1.16828 4.591968,1.54926 l 0.167431,-0.68781 c -1.531792,-0.37124 -3.031448,-0.8769 -4.474663,-1.50999 z m -17.408756,0.0791 -0.534851,0.46457 c 1.055843,1.21757 2.188093,2.36852 3.388424,3.44423 l 0.472839,-0.5271 c -1.178053,-1.05575 -2.28991,-2.18644 -3.326412,-3.3817 z m 5.704044,0.71158 -0.471805,0.52814 c 1.203154,1.07474 2.48116,2.06591 3.822505,2.96261 l 0.393774,-0.58911 c -1.313709,-0.87823 -2.565848,-1.8488 -3.744474,-2.90164 z m 3.021006,0.63252 -0.425816,0.56586 c 1.288794,0.97176 2.648368,1.84904 4.064352,2.62361 l 0.340032,-0.62166 c -1.385874,-0.7581 -2.717334,-1.61682 -3.978568,-2.56781 z m 26.359114,0.0264 c -1.062413,0.25993 -2.134259,0.48123 -3.219442,0.61649 l 0.08733,0.7028 c 1.206371,-0.15036 2.397054,-0.40136 3.574974,-0.70176 a 45.028,44.876307 0 0 1 -0.442865,-0.61753 z m -23.489007,0.0134 -0.382405,0.59634 c 1.359382,0.87169 2.785166,1.63916 4.261755,2.2934 l 0.286805,-0.64699 c -1.443328,-0.6395 -2.837129,-1.39052 -4.166155,-2.24275 z m 3.818371,0.0346 -0.313158,0.63562 c 1.449795,0.71432 2.957222,1.3093 4.5036,1.7787 l 0.20619,-0.67748 c -1.509594,-0.45823 -2.981585,-1.03964 -4.396632,-1.73684 z m 6.661611,0.0579 -0.162783,0.68988 c 1.574575,0.37025 3.181361,0.60206 4.795573,0.6966 l 0.04186,-0.70642 c -1.573948,-0.0922 -3.140276,-0.31927 -4.67465,-0.68006 z m 9.593728,0.53382 c -1.56609,0.18469 -3.148029,0.23824 -4.72271,0.15709 l -0.03617,0.70745 c 1.614797,0.0832 3.235979,0.0286 4.841563,-0.16071 z m -28.029813,0.17311 -0.481107,0.51987 c 1.184072,1.09431 2.439873,2.11096 3.75636,3.04167 l 0.409276,-0.57774 c -1.291312,-0.91291 -2.523184,-1.91049 -3.684529,-2.9838 z m 1.819011,0.0305 -0.459921,0.53847 c 1.226339,1.04745 2.523083,2.01234 3.879351,2.88509 l 0.383439,-0.59583 c -1.32938,-0.85545 -2.600803,-1.801 -3.802869,-2.82773 z m -6.074565,0.0615 -0.519865,0.4811 c 1.093713,1.18279 2.25828,2.29978 3.486092,3.34295 l 0.458887,-0.5395 c -1.206034,-1.02467 -2.350593,-2.12253 -3.425114,-3.28455 z m 1.562695,0.24907 -0.503845,0.49765 c 1.131763,1.14702 2.334257,2.22411 3.598747,3.22306 l 0.43925,-0.55552 c -1.241523,-0.9808 -2.42284,-2.03888 -3.534152,-3.16519 z m -2.498555,0.0651 -0.525033,0.47542 c 1.081187,1.19384 2.231948,2.32438 3.445785,3.38326 l 0.465605,-0.53382 c -1.192815,-1.04054 -2.323751,-2.15154 -3.386357,-3.32486 z m 21.551654,0.6227 -0.201535,0.67903 c 1.549429,0.45927 3.136098,0.79227 4.738727,0.99735 l 0.0894,-0.70228 c -1.565196,-0.20029 -3.113974,-0.52573 -4.626592,-0.9741 z m -22.100974,0.045 -0.524,0.47697 c 1.084397,1.19043 2.236769,2.31939 3.450953,3.37757 l 0.465604,-0.53381 c -1.193465,-1.04013 -2.326304,-2.15022 -3.392557,-3.32073 z m 38.637951,0.0605 c -0.62979,0.17342 -1.262031,0.33955 -1.901692,0.47232 l 0.14366,0.6935 c 0.763416,-0.15846 1.520161,-0.34875 2.269628,-0.56379 a 45.028,44.876307 0 0 1 -0.511596,-0.60203 z m -33.062581,0.19533 -0.469739,0.53021 c 1.205803,1.06952 2.478856,2.06221 3.81062,2.97036 l 0.399459,-0.58498 c -1.306824,-0.89114 -2.556913,-1.86591 -3.74034,-2.91559 z m 12.468489,0.19276 -0.28267,0.64957 c 1.48064,0.64514 3.010781,1.17596 4.57233,1.5875 l 0.180351,-0.68471 c -1.526685,-0.40236 -3.022777,-0.92178 -4.470011,-1.55236 z m -6.329328,0.017 -0.390157,0.59118 c 1.346036,0.88941 2.754349,1.68426 4.211111,2.37763 l 0.304374,-0.63924 c -1.426927,-0.67917 -2.80684,-1.45836 -4.125328,-2.32957 z m 24.828457,0.10697 c -1.547542,0.31126 -3.119442,0.50195 -4.696354,0.56999 l 0.03049,0.70797 c 1.61381,-0.0696 3.22199,-0.26547 4.805392,-0.58395 z m -21.564057,0.17673 -0.336415,0.62322 c 1.420593,0.76635 2.897037,1.42912 4.414202,1.98024 l 0.241845,-0.66611 c -1.484603,-0.5393 -2.92945,-1.1874 -4.319632,-1.93735 z m 11.945006,0.20412 -0.08526,0.70332 c 1.603878,0.19463 3.22267,0.26166 4.836912,0.20206 l -0.02585,-0.70797 c -1.577234,0.0582 -3.159231,-0.007 -4.72581,-0.19741 z m 13.050366,0.67955 c -0.857046,0.25954 -1.721765,0.49311 -2.597258,0.68109 l 0.148828,0.69247 c 0.993719,-0.21337 1.972413,-0.48867 2.942458,-0.7922 A 45.028,44.876307 0 0 1 73.554565,168.189 Z m -28.444774,0.25786 -0.380339,0.59738 c 1.360686,0.86574 2.779422,1.6396 4.244184,2.31459 l 0.296625,-0.64285 c -1.435764,-0.66163 -2.826647,-1.42046 -4.16047,-2.26912 z m -1.942518,0.1323 -0.406177,0.58084 c 1.321374,0.92379 2.703319,1.76072 4.133598,2.50476 l 0.326596,-0.62839 c -1.402953,-0.72982 -2.757953,-1.55112 -4.054017,-2.45721 z m 13.118063,0.0274 -0.176218,0.68574 c 1.564053,0.40174 3.158096,0.6847 4.764566,0.84646 l 0.07132,-0.70538 c -1.571119,-0.1582 -3.130423,-0.43403 -4.659664,-0.82682 z m 14.478701,0.30437 c -1.546373,0.32254 -3.116067,0.53236 -4.692735,0.62632 l 0.04186,0.70693 c 1.611374,-0.096 3.215577,-0.3102 4.795573,-0.63975 z m -32.123103,0.076 -0.455786,0.54209 c 1.232789,1.03715 2.528312,1.99939 3.877283,2.88044 l 0.387573,-0.59273 c -1.324927,-0.86535 -2.598022,-1.81094 -3.80907,-2.8298 z m 1.676901,0.12351 -0.436666,0.55811 c 1.269244,0.99294 2.60052,1.90731 3.982702,2.73574 l 0.363802,-0.60771 c -1.357101,-0.81341 -2.663708,-1.71128 -3.909838,-2.68614 z m 12.747024,0.19947 -0.238228,0.66714 c 1.520312,0.54243 3.080255,0.97275 4.662765,1.28933 l 0.138494,-0.69453 c -1.549099,-0.30989 -3.07535,-0.73116 -4.563031,-1.26194 z m -15.399576,0.0336 -0.46302,0.53588 c 1.218833,1.05299 2.49966,2.03427 3.834391,2.93626 l 0.396875,-0.58653 c -1.311395,-0.88621 -2.57039,-1.85075 -3.768246,-2.88561 z m 11.933638,0.0925 -0.300757,0.64131 c 1.460822,0.68495 2.969736,1.26728 4.51187,1.74149 l 0.207741,-0.67748 c -1.510493,-0.46447 -2.988064,-1.03444 -4.418854,-1.70532 z m 11.542448,0.0171 -0.06666,0.70486 c 1.607338,0.15243 3.225575,0.18486 4.83743,0.0982 l -0.03772,-0.70745 c -1.577165,0.0848 -3.16095,0.0535 -4.733046,-0.0956 z m 13.627076,0.0734 c -0.744138,0.24302 -1.496558,0.46136 -2.255676,0.65267 l 0.173116,0.68627 c 0.889852,-0.22426 1.767168,-0.49339 2.636531,-0.78704 a 45.028,44.876307 0 0 1 -0.553971,-0.5519 z m -31.708659,0.31212 -0.396358,0.58757 c 1.336034,0.90167 2.729438,1.71831 4.168737,2.44377 l 0.318844,-0.63252 c -1.41256,-0.71198 -2.780067,-1.51393 -4.091223,-2.39882 z m -5.937622,0.16795 -0.463021,0.5364 c 1.218834,1.05273 2.498495,2.03446 3.830774,2.93936 l 0.397909,-0.58601 c -1.309639,-0.88968 -2.56753,-1.85506 -3.765662,-2.88991 z m 35.198369,0.21963 c -1.534578,0.37798 -3.095342,0.6498 -4.667417,0.81183 l 0.07286,0.70435 c 1.604772,-0.1654 3.198161,-0.44203 4.764569,-0.82785 z m -14.498341,0.38447 -0.134874,0.69505 c 1.584338,0.30731 3.1901,0.50013 4.801772,0.57877 l 0.03514,-0.70693 c -1.578181,-0.077 -3.151108,-0.26606 -4.70204,-0.56689 z m 18.09192,0.0574 c -0.727956,0.25373 -1.463226,0.48542 -2.206067,0.69143 l 0.189135,0.68265 c 0.866664,-0.24035 1.721773,-0.5204 2.568318,-0.82424 a 45.028,44.876307 0 0 1 -0.551386,-0.54984 z m -26.464535,0.13023 -0.293005,0.64492 c 1.468506,0.66689 2.982484,1.23452 4.527373,1.69757 l 0.203604,-0.67851 c -1.514337,-0.45389 -2.998589,-1.01032 -4.437972,-1.66398 z m 18.007168,0.25993 c -1.572919,0.15323 -3.156463,0.19639 -4.73511,0.12816 l -0.03101,0.70744 c 1.61207,0.0697 3.229171,0.0252 4.834848,-0.13125 z m -20.059755,0.0692 -0.323496,0.62994 c 1.434179,0.73689 2.917365,1.37927 4.435388,1.92236 l 0.238228,-0.66662 c -1.48899,-0.53271 -2.943638,-1.16301 -4.35012,-1.88568 z m 6.810435,0.0713 -0.204636,0.67799 c 1.544732,0.46572 3.121538,0.82355 4.715473,1.07125 l 0.109037,-0.70021 c -1.561843,-0.24271 -3.106835,-0.59287 -4.619874,-1.04903 z m 19.309932,0.2129 c -1.52573,0.41474 -3.079459,0.72792 -4.646745,0.9369 l 0.09354,0.70228 c 1.598356,-0.21312 3.182614,-0.5325 4.73873,-0.9555 z m 3.414779,0.2651 c -1.094833,0.40183 -2.202164,0.76983 -3.330028,1.06661 l 0.179832,0.68523 c 1.279277,-0.33662 2.534926,-0.75764 3.771863,-1.2268 a 45.028,44.876307 0 0 1 -0.621667,-0.52504 z m -32.534447,0.22118 -0.360701,0.60926 c 1.38599,0.82201 2.822352,1.55864 4.299479,2.20297 l 0.283702,-0.64957 c -1.450152,-0.63256 -2.861609,-1.35555 -4.22248,-2.16266 z m -1.781803,0.0269 -0.38499,0.59428 c 1.352866,0.87497 2.759319,1.6682 4.207495,2.37402 l 0.309541,-0.63666 c -1.422664,-0.69338 -2.803215,-1.47222 -4.132046,-2.33164 z m 16.406234,0.35295 -0.104386,0.70073 c 1.595268,0.23858 3.206583,0.36788 4.819343,0.38758 l 0.0088,-0.70849 c -1.580663,-0.0193 -3.160451,-0.14602 -4.723741,-0.37982 z m -11.694377,0.0475 -0.315227,0.63407 c 1.443,0.71833 2.931914,1.34475 4.454509,1.87379 l 0.232026,-0.66869 c -1.494142,-0.51915 -2.955306,-1.13428 -4.371308,-1.83917 z m -5.7304,0.0145 -0.393258,0.58859 c 1.338677,0.89578 2.729789,1.7127 4.164603,2.44481 l 0.32143,-0.63097 c -1.409939,-0.71941 -2.777213,-1.52212 -4.092775,-2.40243 z m 27.077417,0.0344 c -1.568429,0.20021 -3.150698,0.29646 -4.731494,0.28526 l -0.0047,0.70848 c 1.612844,0.0114 3.226543,-0.0873 4.82606,-0.29145 z m -14.598076,0.14367 -0.199469,0.68006 c 1.547302,0.45449 3.125089,0.80531 4.719089,1.04955 l 0.107487,-0.70022 c -1.562822,-0.23945 -3.110182,-0.58383 -4.627107,-1.02939 z m 23.911203,0.0496 c -0.588923,0.22791 -1.179674,0.45216 -1.77922,0.6506 l 0.222726,0.67231 c 0.73428,-0.24304 1.460135,-0.51106 2.178677,-0.79737 a 45.028,44.876307 0 0 1 -0.622183,-0.52554 z m -4.577498,0.22582 c -1.531599,0.39491 -3.088635,0.69154 -4.658114,0.88729 l 0.08785,0.70279 c 1.599629,-0.19951 3.186092,-0.50187 4.746998,-0.90433 z m -32.358232,0.21342 -0.395325,0.58808 c 1.336414,0.89865 2.724534,1.71984 4.155819,2.45825 l 0.325046,-0.62942 c -1.40692,-0.72584 -2.771759,-1.53347 -4.08554,-2.41691 z m 10.881505,0.0724 -0.235127,0.66818 c 1.520918,0.53506 3.076054,0.97033 4.653463,1.30328 l 0.146761,-0.69298 c -1.547389,-0.32661 -3.073344,-0.75367 -4.565097,-1.27848 z m 24.086902,0.20051 c -1.504487,0.48966 -3.038964,0.8859 -4.592484,1.18597 l 0.134358,0.69556 c 1.582193,-0.30561 3.145351,-0.70944 4.677751,-1.20819 z m 2.926437,0.0977 c -0.906944,0.36655 -1.82213,0.71143 -2.753836,1.00924 l 0.21549,0.67489 c 1.0663,-0.34083 2.111549,-0.74245 3.145544,-1.1715 a 45.028,44.876307 0 0 1 -0.607198,-0.51263 z m -20.047873,0.19895 -0.103351,0.70073 c 1.595191,0.23626 3.205313,0.3665 4.817276,0.39171 l 0.01138,-0.70849 c -1.581293,-0.0247 -3.161231,-0.1523 -4.725294,-0.38395 z m 9.656776,0.12867 c -1.570395,0.1879 -3.152651,0.27402 -4.734079,0.25787 l -0.0072,0.70848 c 1.612093,0.0165 3.22489,-0.0715 4.825545,-0.26303 z M 79.85599,174.127 c -0.685217,0.28776 -1.376947,0.5603 -2.076875,0.80977 l 0.238228,0.66715 c 0.848804,-0.30253 1.684964,-0.63962 2.511991,-0.99736 A 45.028,44.876307 0 0 1 79.85599,174.127 Z m -31.054952,0.0108 -0.279569,0.65061 c 1.48014,0.6373 2.999496,1.18253 4.547007,1.63194 l 0.197406,-0.67954 c -1.519431,-0.44126 -3.011673,-0.97731 -4.464844,-1.60301 z m 3.085084,0.0899 -0.228928,0.67024 c 1.525146,0.52158 3.083645,0.94577 4.662247,1.27073 l 0.14211,-0.69402 c -1.549453,-0.31896 -3.078721,-0.7351 -4.575429,-1.24695 z m -4.959906,0.11369 -0.306959,0.6382 c 1.451772,0.69868 2.945951,1.30926 4.471565,1.82728 l 0.22789,-0.67076 c -1.498462,-0.50881 -2.966532,-1.10846 -4.392496,-1.79472 z m 9.766329,0.0553 -0.142626,0.69401 c 1.57902,0.32516 3.178413,0.54777 4.785754,0.66818 l 0.05271,-0.70693 c -1.577369,-0.11817 -3.146804,-0.33628 -4.695839,-0.65526 z m 19.311483,0.0486 c -1.509578,0.47499 -3.047511,0.85842 -4.603338,1.14876 l 0.12971,0.6966 c 1.583637,-0.29553 3.149155,-0.68638 4.686019,-1.16995 z m -4.770769,0.0558 c -1.554937,0.29226 -3.128078,0.48793 -4.707204,0.58498 l 0.04341,0.70693 c 1.608551,-0.0989 3.210764,-0.29815 4.794539,-0.59583 z m 9.542055,0.28008 c -0.08789,0.0384 -0.17281,0.0832 -0.260966,0.12093 l 0.278535,0.65112 c 0.218339,-0.0935 0.429741,-0.20204 0.646472,-0.29921 a 45.028,44.876307 0 0 1 -0.664041,-0.47284 z m -34.908463,0.0496 -0.318844,0.63252 c 1.438259,0.72523 2.919275,1.36494 4.433321,1.91513 l 0.241845,-0.66507 c -1.487588,-0.54058 -2.942947,-1.16989 -4.356322,-1.88258 z m 34.465077,0.14935 c -1.458343,0.61643 -2.952228,1.14882 -4.471561,1.59422 l 0.199472,0.68006 c 1.545365,-0.45303 3.064719,-0.99462 4.548042,-1.62161 z m -2.739366,0.0227 c -1.493565,0.52443 -3.017814,0.96086 -4.562512,1.3069 l 0.15503,0.69143 c 1.571731,-0.3521 3.122859,-0.79653 4.642609,-1.33016 z m -16.006259,0.0641 -0.04961,0.7059 c 1.607934,0.1123 3.222678,0.12275 4.831747,0.032 l -0.03979,-0.70694 c -1.579523,0.089 -3.164345,0.0792 -4.742346,-0.031 z m 20.058207,0.33279 c -0.715367,0.32326 -1.439082,0.62728 -2.171443,0.91003 l 0.254765,0.66042 c 0.871278,-0.33637 1.727533,-0.7092 2.575036,-1.10174 a 45.028,44.876307 0 0 1 -0.658358,-0.46871 z m -36.330598,0.11369 -0.321945,0.63045 c 1.434534,0.73215 2.9117,1.3811 4.421436,1.942 l 0.246496,-0.66455 c -1.483992,-0.55134 -2.935919,-1.18824 -4.345987,-1.9079 z m 11.341428,0.001 -0.13901,0.69453 c 1.580129,0.31723 3.180189,0.53483 4.787302,0.65319 l 0.05168,-0.7059 c -1.577909,-0.11621 -3.148896,-0.33043 -4.699972,-0.64182 z m 14.550532,0.11575 c -1.557184,0.28259 -3.131605,0.47127 -4.71134,0.56379 l 0.04134,0.70694 c 1.608485,-0.0942 3.21146,-0.28647 4.796605,-0.57413 z m -17.749305,0.16485 -0.194302,0.6811 c 1.549619,0.44223 3.126314,0.78828 4.718058,1.03766 l 0.109553,-0.6997 c -1.563412,-0.24493 -3.111844,-0.58486 -4.633309,-1.01906 z m 28.984278,0.17157 c -1.146733,0.5337 -2.310199,1.03096 -3.49953,1.46192 l 0.240813,0.66611 c 1.348301,-0.48857 2.668424,-1.05374 3.962549,-1.67225 a 45.028,44.876307 0 0 1 -0.703832,-0.45578 z m -20.887615,0.2036 -0.04909,0.70642 c 1.607653,0.11081 3.22186,0.12221 4.830712,0.0357 l -0.03772,-0.70694 c -1.580182,0.085 -3.165417,0.0737 -4.743897,-0.0351 z m -10.046931,0.0295 -0.224792,0.67127 c 1.527931,0.51107 3.087272,0.92981 4.665347,1.25367 l 0.141595,-0.69401 c -1.550361,-0.31817 -3.081359,-0.72894 -4.58215,-1.23093 z m 21.329965,0.15296 c -1.546244,0.33898 -3.111791,0.58752 -4.687054,0.74259 l 0.06925,0.70435 c 1.603041,-0.1578 3.196412,-0.41007 4.769733,-0.75499 z m 6.451801,0.0279 c -1.479775,0.56391 -2.991726,1.04489 -4.525304,1.43971 l 0.176731,0.68575 c 1.559232,-0.40143 3.095694,-0.89013 4.600237,-1.46348 z m -3.617867,0.2496 c -1.521196,0.43887 -3.067672,0.78985 -4.629174,1.05214 l 0.117305,0.69866 c 1.588038,-0.26674 3.160909,-0.62432 4.70824,-1.07073 z m -25.260991,0.15037 -0.238744,0.66714 c 1.516441,0.54321 3.065669,0.99635 4.635376,1.35754 l 0.158131,-0.6904 c -1.542632,-0.35496 -3.0646,-0.80048 -4.554763,-1.33428 z m 7.876006,0.0636 -0.105937,0.70073 c 1.592964,0.24145 3.200781,0.38588 4.811075,0.43408 l 0.02066,-0.70745 c -1.581952,-0.0473 -3.161141,-0.1902 -4.72581,-0.42736 z m 9.66711,0.26975 c -1.575927,0.14794 -3.16067,0.20282 -4.742863,0.16278 l -0.0186,0.70797 c 1.610461,0.0408 3.223355,-0.0153 4.827095,-0.16588 z m -11.669572,0.35605 -0.13901,0.69453 c 1.579528,0.3167 3.178017,0.53859 4.783688,0.66611 l 0.05581,-0.70538 c -1.577938,-0.12533 -3.148668,-0.34412 -4.700488,-0.65526 z m -6.436815,0.0207 -0.243914,0.66508 c 1.51225,0.5538 3.056435,1.01987 4.622458,1.39578 l 0.165365,-0.68833 c -1.539449,-0.36953 -3.05725,-0.82809 -4.543909,-1.37253 z m 28.90883,0.005 c -1.491496,0.53297 -3.012819,0.98405 -4.553728,1.35031 l 0.163814,0.68885 c 1.56618,-0.37228 3.112219,-0.83084 4.628142,-1.37253 z m -7.909079,0.21861 c -1.562637,0.25491 -3.140244,0.4205 -4.721675,0.49403 l 0.03307,0.70745 c 1.608802,-0.0748 3.212931,-0.24303 4.802291,-0.5023 z m 3.725871,0.15451 c -1.53537,0.38805 -3.093215,0.69039 -4.662247,0.90434 l 0.09612,0.70177 c 1.595371,-0.21754 3.178302,-0.5243 4.739245,-0.91881 z m -13.390915,0.27079 -0.05323,0.70693 c 1.606293,0.1204 3.220119,0.14543 4.829162,0.078 l -0.02997,-0.70745 c -1.581806,0.0663 -3.167491,0.0408 -4.745964,-0.0775 z m -6.023403,0.0196 -0.155546,0.6904 c 1.57127,0.35421 3.163009,0.61625 4.764566,0.78548 l 0.07441,-0.70435 c -1.574395,-0.16636 -3.139223,-0.42342 -4.683434,-0.77153 z m 14.556216,0.64079 c -1.570019,0.20687 -3.151402,0.3251 -4.734595,0.35398 l 0.01241,0.70848 c 1.609993,-0.0294 3.218395,-0.14984 4.814695,-0.36018 z m 4.294827,0.091 c -1.54243,0.35984 -3.104634,0.63514 -4.677232,0.82372 l 0.08423,0.70332 c 1.598361,-0.19167 3.185982,-0.4709 4.753713,-0.83665 z m -19.425686,0.0176 -0.162264,0.68988 c 1.56754,0.36876 3.156474,0.64822 4.755782,0.83612 l 0.08217,-0.70331 c -1.572543,-0.18476 -3.134412,-0.46011 -4.675684,-0.82269 z m 5.454964,0.0424 -0.07131,0.70538 c 1.602298,0.16211 3.213889,0.2313 4.823995,0.2093 l -0.0093,-0.70797 c -1.583251,0.0216 -3.16821,-0.0473 -4.743378,-0.20671 z m 9.097119,0.78652 c -1.573337,0.18166 -3.15717,0.27685 -4.740796,0.28319 l 0.0031,0.70848 c 1.610016,-0.006 3.219088,-0.10267 4.818311,-0.28732 z m -9.678996,0.016 -0.0801,0.70435 c 1.600036,0.18117 3.209885,0.27124 4.819859,0.27182 l 5.29e-4,-0.70848 c -1.583679,-5.3e-4 -3.166898,-0.0895 -4.74028,-0.26769 z"
       id="path7563-9" />
    <path
       sodipodi:type="spiral"
       style="fill:none;fill-rule:evenodd;stroke:#000000;stroke-width:2.51339;stroke-miterlimit:4;stroke-dasharray:60.3213, 2.51339;stroke-dashoffset:7.03748"
       id="path7563"
       sodipodi:cx="374.28571"
       sodipodi:cy="54.285713"
       sodipodi:expansion="0.28"
       sodipodi:revolution="15"
       sodipodi:radius="153.27213"
       sodipodi:argument="-18.32752"
       sodipodi:t0="0"
       d="m 374.28571,54.285713 c 41.95406,24.134824 6.06321,53.147257 -24.28695,42.218492 -28.69541,-10.332918 -39.22708,-45.211636 -26.97453,-71.707571 14.56176,-31.4895652 53.86118,-43.116201 84.2959,-27.9353473 33.97016,16.9443283 46.42574,59.9530953 29.207,93.2299163 C 417.84655,126.19317 371.75397,139.35497 336.17172,120.54005 298.20411,100.46382 284.42013,51.724774 304.56126,14.175482 325.81872,-25.454993 376.88653,-39.797768 416.16509,-18.514084 457.29981,3.7753896 472.15142,56.930879 449.85892,97.760555 426.64814,140.2721 371.5946,155.592 329.35319,132.39283 285.56952,108.34664 269.81503,51.548466 293.84003,8.0079012 318.65273,-36.960209 377.06857,-53.120816 421.81515,-28.335709 467.89307,-2.8131774 484.43537,57.113313 458.94477,102.98735 432.75997,150.1107 371.41444,167.01349 324.48025,140.86357 276.36763,114.05709 259.12297,51.371928 285.89256,3.4359813 313.28563,-45.616413 377.24085,-63.186464 426.1273,-35.831607 c 49.9482,27.9489618 67.82892,93.112665 39.91902,142.904247 -28.47774,50.80462 -94.79505,68.9828 -145.45125,40.54461 C 268.96953,118.63487 250.50586,51.213272 279.44844,-0.27111569 308.91378,-52.685409 377.39513,-71.423696 429.67474,-41.998198 c 53.17372,29.92874 72.17668,99.42933 42.2877,152.474198 -30.37437,53.90628 -100.85722,73.16479 -154.63991,42.82999 C 262.70837,122.50221 243.20271,51.071055 273.9672,-3.4242993 305.18549,-58.723525 377.5337,-78.468551 432.71849,-47.289212 c 55.96318,31.619121 75.94035,104.855447 44.35982,160.708202 -32.00728,56.60749 -106.1049,76.81009 -162.60566,44.841 C 257.23914,125.87631 236.81739,50.942377 269.16331,-6.1878217 301.91246,-64.03023 377.6594,-84.665255 435.40167,-51.953433 493.83695,-18.849012 514.67974,57.689105 481.61221,116.0272 448.16207,175.04029 370.85324,196.08566 311.93459,162.67195 252.35787,128.88505 231.1148,50.824768 264.86572,-8.6600885 298.98096,-68.787061 377.77456,-90.223207 437.81208,-56.143503 498.47667,-21.707855 520.10153,57.80193 485.70097,118.37933 450.95241,179.56956 370.74265,201.379 309.63746,166.66509 247.93295,131.6107 225.94286,50.71631 260.96303,-10.905177 c 35.35351,-62.208014 116.91795,-84.375027 179.04484,-49.055311 62.70126,35.646245 85.04164,117.866879 49.42876,180.488828 -35.93293,63.18472 -118.79657,85.69507 -181.9037,49.7951 -63.65886,-36.21385 -86.33596,-119.707916 -50.15466,-183.290814 36.48927,-64.124102 120.60176,-86.964849 184.65145,-50.507729 64.58082,36.759445 87.58226,121.47889 50.85457,185.986773 -37.0246,65.02938 -122.34003,88.18868 -187.29788,51.19545 -65.47014,-37.28497 -88.78458,-123.185858 -51.53061,-188.585808 37.54074,-65.90339 124.01701,-89.370362 189.8515,-51.860262 66.32945,37.792108 89.94645,124.834089 52.18463,191.09587 -38.03925,66.74857 -125.63764,90.51319 -192.31973,52.50388 -67.16105,-38.28232 -91.07097,-126.428181 -52.81825,-193.52388 38.52149,-67.567114 127.20622,-91.6201 194.70907,-53.127873 67.967,38.756897 92.1609,127.972209 53.43294,195.875993 -38.98869,68.36093 -128.72659,92.69365 -197.02531,53.73359 -68.7491,-39.21698 -93.21865,-129.469764 -54.02998,-198.157628 39.44191,-69.131729 130.20213,-93.736172 199.27355,-54.322267 69.50898,39.663589 94.24644,130.924057 54.61056,200.373635 -39.88212,69.88105 -131.63589,94.7497 -201.4584,54.895 -70.24809,-40.09762 -95.24619,-132.337956 -55.1757,-202.528349 40.31018,-70.610263 133.03058,-95.736111 203.58395,-55.452786 70.96773,40.5199 96.21967,133.714047 55.72636,204.625675 -40.72686,71.32061 -134.38865,96.69706 -205.65392,55.99652 C 227.27799,144.31728 201.7786,50.193774 242.68369,-21.420697 283.81654,-93.43393 378.39601,-119.05477 450.35535,-77.947722 522.70856,-36.615678 548.44938,58.414171 507.1429,130.71418"
       transform="matrix(0.28181061,0,0,0.28181061,2.3567676,123.42165)" />
    <path
       style="fill:#000000;stroke-width:0.0652098"
       d="m 162.91698,215.97031 c -4.09475,-0.42369 -8.70415,-2.2984 -10.24283,-6.43908 -0.36386,-4.73018 -0.10983,-9.50269 -0.191,-14.24966 0.0441,-10.73626 -0.0978,-21.47533 0.0896,-32.20972 0.49154,-3.46137 3.95949,-5.56361 7.03381,-6.51168 3.66452,-1.04844 7.68587,-0.98585 11.30282,0.23129 2.94814,1.09531 6.27955,3.38769 6.3279,6.85355 0.0814,15.15942 0.12761,30.32163 -0.0275,45.48011 -1.01714,3.83115 -5.04347,5.8656 -8.65328,6.58619 -1.8485,0.32638 -3.76983,0.42197 -5.63953,0.259 z m 3.84738,-0.90079 c 3.6142,-0.40314 7.56232,-1.83904 9.28819,-5.28766 0.72795,-1.81122 0.23041,-3.85545 0.39261,-5.77139 0.0205,-13.65167 0.0949,-27.3058 -0.0747,-40.95611 -0.98923,-3.84857 -5.17769,-5.52535 -8.73349,-6.11949 -4.46202,-0.66165 -9.59264,0.12094 -12.8205,3.5179 -1.7905,1.67655 -1.46927,4.1597 -1.48674,6.35997 -0.0171,14.12057 -0.0866,28.24579 0.16437,42.3635 1.38701,3.77162 5.64708,5.44234 9.36456,5.86709 1.29079,0.19399 2.60922,0.11259 3.90569,0.0262 z m -2.96704,-4.84816 c -3.9309,-0.73624 -6.76911,-4.94023 -5.74903,-8.84683 0.88613,-4.68496 6.82552,-7.35012 10.89569,-4.84776 3.60783,1.88839 4.995,6.91745 2.68677,10.32898 -1.62269,2.64701 -4.80794,3.91067 -7.83343,3.36561 z m 2.61999,-0.86696 c 4.15767,-0.52921 6.80056,-5.60934 4.72909,-9.283 -1.7581,-3.63958 -6.99212,-4.73886 -10.04294,-2.07658 -3.17222,2.4262 -3.09406,7.73556 0.1559,10.05843 1.43523,1.13658 3.35377,1.63412 5.15795,1.30115 z m -2.78302,-15.42173 c -4.69605,-0.61731 -7.58193,-6.38702 -5.34277,-10.5329 1.52042,-3.17199 5.36214,-4.80552 8.72199,-3.8377 4.081,1.01923 6.57864,5.90461 4.90258,9.79095 -0.58624,2.21907 -2.87322,3.59583 -4.88291,4.41109 -1.09605,0.29641 -2.27539,0.22382 -3.39889,0.16856 z m 2.31102,-0.85576 c 3.85857,-0.4672 6.63959,-4.80058 5.22708,-8.48173 -1.24614,-4.11917 -6.9299,-5.83784 -10.21463,-3.01959 -3.2217,2.31994 -3.38485,7.60606 -0.19277,10.02332 1.42163,1.17098 3.34439,1.80647 5.18032,1.478 z m -2.44144,-16.49133 c -4.41432,-0.84043 -7.22519,-6.18515 -5.16972,-10.24589 1.68337,-3.75119 6.7097,-5.60597 10.30057,-3.40456 2.98308,1.3926 4.54494,4.92193 3.76366,8.08057 -0.65157,3.91803 -5.16583,6.39486 -8.89451,5.56988 z m 2.80402,-0.83903 c 3.88819,-0.57274 6.55985,-5.13407 4.90219,-8.77464 -1.51737,-4.26962 -7.73712,-5.44558 -10.76022,-2.11309 -2.45856,2.41138 -2.50161,6.75496 0.0818,9.09866 1.47879,1.5328 3.70025,2.14873 5.77626,1.78907 z"
       id="path2423" />
    <g
       transform="matrix(0.24895383,0,0,-0.24895383,24.572088,215.27745)"
       id="g10">
      <g
         transform="scale(0.1)"
         id="g12">
        <path
           id="path14"
           style="fill:#5fcaf4;fill-opacity:1;fill-rule:evenodd;stroke:none"
           d="M 649.672,1300 C 290.871,1300 -0.00390625,1008.98 -0.00390625,650 -0.00390625,320.398 245.207,48.1289 563.055,5.76172 V 136.738 c 0,36.934 -23.282,70.133 -58.274,81.871 -183.39,61.629 -314.582,237.016 -309.754,442.352 5.883,249.992 209.418,446.539 459.336,444.019 249.004,-2.52 450.087,-205.257 450.087,-454.98 0,-5.691 -0.14,-11.355 -0.35,-16.992 -0.05,-1.262 -0.09,-2.528 -0.14,-3.797 -0.24,-5.234 -0.56,-10.461 -0.97,-15.656 -0.13,-1.653 -0.29,-3.301 -0.44,-4.942 -0.32,-3.633 -0.69,-7.226 -1.1,-10.82 -0.46,-4.094 -0.99,-8.145 -1.56,-12.188 -0.25,-1.843 -0.5,-3.691 -0.78,-5.527 C 1043.43,213.121 565.727,6.87109 563.109,5.75 591.434,1.98047 620.324,0 649.672,0 c 358.808,0 649.678,291.012 649.678,650 0,358.98 -290.87,650 -649.678,650" />
        <g
           id="g16">
          <g
             clip-path="url(#clipPath22)"
             id="g18">
            <g
               clip-path="url(#clipPath28)"
               id="g24">
              <path
                 id="path30"
                 style="fill:#5fcaf4;fill-opacity:1;fill-rule:nonzero;stroke:none"
                 d="M -98.6406,-98.6406 H 1397.99 V 1398.64 H -98.6406 V -98.6406" />
            </g>
          </g>
        </g>
      </g>
    </g>
  </g>
</svg>
