<?xml version="1.0" encoding="UTF-8" standalone="no"?>
<!-- Created with Inkscape (http://www.inkscape.org/) -->

<svg
   version="1.1"
   id="svg509"
   width="216"
   height="216"
   viewBox="0 0 216 216"
   sodipodi:docname="add_list_type_device_7161.png"
   inkscape:version="1.1.1 (3bf5ae0d25, 2021-09-20)"
   xmlns:inkscape="http://www.inkscape.org/namespaces/inkscape"
   xmlns:sodipodi="http://sodipodi.sourceforge.net/DTD/sodipodi-0.dtd"
   xmlns="http://www.w3.org/2000/svg"
   xmlns:svg="http://www.w3.org/2000/svg">
  <defs
     id="defs513" />
  <sodipodi:namedview
     id="namedview511"
     pagecolor="#505050"
     bordercolor="#ffffff"
     borderopacity="1"
     inkscape:pageshadow="0"
     inkscape:pageopacity="0"
     inkscape:pagecheckerboard="1"
     showgrid="false"
     inkscape:zoom="3.0648148"
     inkscape:cx="107.83686"
     inkscape:cy="108"
     inkscape:window-width="1440"
     inkscape:window-height="890"
     inkscape:window-x="-6"
     inkscape:window-y="-6"
     inkscape:window-maximized="1"
     inkscape:current-layer="g515" />
  <g
     inkscape:groupmode="layer"
     inkscape:label="Image"
     id="g515">
    <g
       id="g519"
       transform="translate(18.271903,-17.293051)">
      <path
         style="fill:#d0d0d0;fill-opacity:1"
         d="m 111.57502,187.25 c 0.38367,-2.6125 1.08946,-5.80026 1.56843,-7.08392 0.47897,-1.28365 0.62655,-2.7292 0.32796,-3.21234 -0.4929,-0.79753 -0.64438,-6.80961 -0.28228,-11.20374 0.0793,-0.9625 0.73491,-1.75 1.45688,-1.75 1.04358,0 1.20038,2.61377 0.76488,12.75 -0.62439,14.53252 -0.76275,15.25 -2.94078,15.25 -1.33125,0 -1.47816,-0.77963 -0.89509,-4.75 z m 54.56578,-20.5 c 0.13181,-8.65958 0.18933,-8.89894 0.9011,-3.75 1.11197,8.04394 1.096,13 -0.0419,13 -0.60474,0 -0.94435,-3.65613 -0.8592,-9.25 z M 100,149.01905 c 0,-0.53952 1.2375,-1.24646 2.75,-1.57098 11.6078,-2.49055 25.4355,-8.92945 30.35378,-14.13431 7.62189,-8.066 8.393,-13.90565 8.77519,-66.454354 L 142,50.218812 l 3.75,-0.478696 c 2.0625,-0.263283 4.00008,-0.200016 4.30573,0.140594 0.30564,0.340609 0.0358,15.91929 -0.59969,34.61929 -1.00903,29.69262 -1.40219,34.60606 -3.10337,38.78393 -2.56843,6.30769 -8.76826,12.54135 -15.99863,16.08591 -3.21972,1.57842 -6.97904,3.4499 -8.35404,4.15886 -1.375,0.70896 -2.84087,1.31844 -3.25749,1.3544 -3.16425,0.27313 -11.65382,3.45138 -11.19635,4.19159 C 107.86076,149.58372 106.29194,150 104.05902,150 101.82656,150 100,149.55857 100,149.01905 Z m 17.25,0.29162 c 0.9625,-0.25152 2.5375,-0.25152 3.5,0 0.9625,0.25153 0.175,0.45733 -1.75,0.45733 -1.925,0 -2.7125,-0.2058 -1.75,-0.45733 z m 47.30807,-16.15401 c 0.78454,-2.27716 1.73838,-7.40647 2.11963,-11.39847 0.47023,-4.92376 0.88985,-6.45412 1.30466,-4.75819 0.33632,1.375 0.22256,4.975 -0.2528,8 -0.47536,3.025 -0.97652,6.30147 -1.11368,7.28104 -0.13716,0.97956 -0.97723,2.50888 -1.86682,3.39847 -1.48991,1.48991 -1.50497,1.29101 -0.19099,-2.52285 z M 168.34941,105 c 0,-4.675 0.17226,-6.5875 0.3828,-4.25 0.21053,2.3375 0.21053,6.1625 0,8.5 -0.21054,2.3375 -0.3828,0.425 -0.3828,-4.25 z m 1.01109,-19 c 0,-5.225 0.16854,-7.3625 0.37454,-4.75 0.206,2.6125 0.206,6.8875 0,9.5 -0.206,2.6125 -0.37454,0.475 -0.37454,-4.75 z M 116.5,69 c 0.33992,-0.55 1.06803,-1 1.61803,-1 0.55,0 0.72189,0.45 0.38197,1 -0.33992,0.55 -1.06803,1 -1.61803,1 -0.55,0 -0.72189,-0.45 -0.38197,-1 z m 53.82007,-8 c 0,-3.575 0.1815,-5.0375 0.40333,-3.25 0.22182,1.7875 0.22182,4.7125 0,6.5 -0.22183,1.7875 -0.40333,0.325 -0.40333,-3.25 z m 3.96594,-10.5 c 0.008,-2.75 0.20172,-3.756313 0.43157,-2.23625 0.22986,1.520062 0.22371,3.770062 -0.0136,5 C 174.46657,54.493687 174.27851,53.25 174.28601,50.5 Z M 104.75,50.262758 c 2.8875,-0.202002 7.6125,-0.202002 10.5,0 2.8875,0.202003 0.525,0.367277 -5.25,0.367277 -5.775,0 -8.1375,-0.165274 -5.25,-0.367277 z M 73.143237,48.109687 c -0.834257,-0.528611 -0.970889,-1.09817 -0.354785,-1.478943 0.551088,-0.340591 1.260008,0.05316 1.575378,0.875 0.66263,1.726785 0.600218,1.757666 -1.220593,0.603943 z M 171.15789,47 c 0,-1.375 0.22698,-1.9375 0.50439,-1.25 0.27741,0.6875 0.27741,1.8125 0,2.5 -0.27741,0.6875 -0.50439,0.125 -0.50439,-1.25 z M 150,46 c 0.825,-0.533156 1.95,-0.969374 2.5,-0.969374 0.55,0 0.325,0.436218 -0.5,0.969374 -0.825,0.533156 -1.95,0.969374 -2.5,0.969374 -0.55,0 -0.325,-0.436218 0.5,-0.969374 z M 64,45.090446 c -6.514341,-0.929855 -8.451518,-2.433928 -4,-3.105701 1.925,-0.290499 3.815002,-0.07825 4.200004,0.471659 0.385001,0.549911 2.185001,1.537948 4,2.195639 3.619298,1.311505 2.635884,1.414155 -4.200004,0.438403 z m 39.8125,-11.77356 c 0.72187,-0.288871 1.58437,-0.253344 1.91667,0.07895 0.33229,0.332292 -0.25834,0.568641 -1.3125,0.52522 -1.16495,-0.04798 -1.4019,-0.284941 -0.60417,-0.604167 z"
         id="path533" />
      <path
         style="fill:#b9b9b9;fill-opacity:1"
         d="m 96.75,191.33772 c 0.6875,-0.27741 1.8125,-0.27741 2.5,0 0.6875,0.27741 0.125,0.50439 -1.25,0.50439 -1.375,0 -1.9375,-0.22698 -1.25,-0.50439 z m 10.22525,-1.90282 c -1.22479,-3.22144 -1.23157,-4.38862 -0.0143,-2.46386 0.51167,0.80907 1.24391,1.15745 1.62719,0.77417 0.38328,-0.38328 0.21329,-1.27956 -0.37776,-1.99172 -0.8132,-0.97985 -0.40013,-1.68195 1.69798,-2.88611 l 2.77261,-1.59125 -0.79693,4.11193 c -0.43831,2.26157 -0.81653,4.67444 -0.84048,5.36194 -0.079,2.26816 -3.07404,1.3 -4.0683,-1.3151 z m 1.34605,-10.95828 c 0.12832,-2.5258 0.60158,-3.43832 1.6787,-3.23681 2.34035,0.43783 2.4336,4.45777 0.13198,5.68956 -1.82188,0.97503 -1.97434,0.76851 -1.81068,-2.45275 z m 1.9509,-5.1363 c -1.75357,-1.22382 -2.01678,-1.94906 -1.23649,-3.40704 1.12773,-2.10718 0.92633,-4.06968 -0.53571,-5.22021 -0.55,-0.43282 0.35,-0.65782 2,-0.5 2.07091,0.19807 2.8917,0.75147 2.6503,1.78693 -0.19234,0.825 -0.33304,3.1875 -0.31268,5.25 0.0204,2.0625 -0.0473,3.7264 -0.1503,3.69755 -0.10303,-0.0289 -1.18983,-0.7521 -2.41512,-1.60723 z M 167.30987,156.5 c 0.006,-3.3 0.1923,-4.52944 0.41486,-2.73209 0.22256,1.79735 0.21797,4.49735 -0.0102,6 -0.22818,1.50265 -0.41027,0.0321 -0.40466,-3.26791 z M 122.75,149.33772 c 0.6875,-0.27741 1.8125,-0.27741 2.5,0 0.6875,0.27741 0.125,0.50439 -1.25,0.50439 -1.375,0 -1.9375,-0.22698 -1.25,-0.50439 z m -28.110239,-1.11158 c -0.332411,-0.53785 2.583726,-1.7392 6.578609,-2.71016 20.68389,-5.02722 30.29315,-12.91225 32.28852,-26.49485 0.36189,-2.46338 0.82658,-4.75168 1.03265,-5.08511 0.67296,-1.08887 0.67038,-60.787344 -0.003,-61.876372 C 134.14086,51.418895 134.89358,51 136.44098,51 137.84844,51 139,50.564123 139,50.031385 c 0,-0.532739 0.726,-0.690024 1.61333,-0.349524 1.45419,0.558025 1.55549,3.686703 1.027,31.718615 -0.77809,41.271874 -1.6569,45.923194 -10.07694,53.334814 -7.49681,6.59895 -34.977566,16.63964 -36.923629,13.49085 z M 51,145.62244 c 0,-0.20765 0.7875,-0.99515 1.75,-1.75 1.586056,-1.24387 1.621426,-1.2085 0.377555,0.37756 C 51.821186,145.91575 51,146.44548 51,145.62244 Z M 166.58251,131 c 0.74187,-2.78502 1.21478,-3.53604 1.83566,-2.91516 0.23,0.23 -0.23877,1.5425 -1.04171,2.91667 L 165.91657,133.5 Z m 1.81204,-14.25 c 0.31616,-5.6375 1.06558,-22.4 1.66538,-37.25 0.5998,-14.85 1.16919,-28.909954 1.26531,-31.244343 0.0961,-2.334388 0.57764,-4.246888 1.07004,-4.25 0.86937,-0.0055 0.70355,6.236499 -1.42617,53.685935 -0.52314,11.655378 -0.65373,21.966698 -0.2902,22.914048 0.48474,1.26321 0.30742,1.50395 -0.66507,0.90291 -1.03739,-0.64114 -1.18866,-0.13266 -0.69494,2.33596 0.39213,1.96065 0.22778,3.15549 -0.43404,3.15549 -0.72164,0 -0.87976,-3.30563 -0.49031,-10.25 z M 172.15789,97 c 0,-1.375 0.22698,-1.9375 0.50439,-1.25 0.27741,0.6875 0.27741,1.8125 0,2.5 -0.27741,0.6875 -0.50439,0.125 -0.50439,-1.25 z m 1,-21 c 0,-1.375 0.22698,-1.9375 0.50439,-1.25 0.27741,0.6875 0.27741,1.8125 0,2.5 -0.27741,0.6875 -0.50439,0.125 -0.50439,-1.25 z m -62.99174,-5.876149 c -1.07393,-0.680768 -1.02522,-0.963954 0.25,-1.453303 C 111.4182,68.286026 112,68.602238 112,69.531385 c 0,1.699698 -0.0577,1.718347 -1.83385,0.592466 z M 113,69 c 0,-1.1 0.17252,-2 0.38337,-2 0.21085,0 0.61872,0.9 0.90638,2 0.28766,1.1 0.11514,2 -0.38337,2 C 113.40787,71 113,70.1 113,69 Z m 3.08333,1.717032 C 116.3125,70.5614 117.4,69.7739 118.5,68.967032 c 1.85001,-1.357009 1.89707,-1.335787 0.62756,0.282968 -0.75485,0.9625 -1.84235,1.75 -2.41667,1.75 -0.57432,0 -0.85672,-0.127335 -0.62756,-0.282968 z M 96.269032,50.307009 c 0.972967,-0.253543 2.322967,-0.236869 3,0.03705 C 99.946064,50.617986 99.15,50.825431 97.5,50.805051 95.85,50.784672 95.296064,50.560553 96.269032,50.307009 Z m 24.999998,0 c 0.97297,-0.253543 2.32297,-0.236869 3,0.03705 0.67703,0.273923 -0.11903,0.481368 -1.76903,0.460988 -1.65,-0.02038 -2.20394,-0.244498 -1.23097,-0.498042 z M 147,49.059017 c 0,-0.517541 0.44485,-1.215913 0.98855,-1.551938 0.56686,-0.350339 0.7345,0.05106 0.39301,0.940983 C 147.71677,50.180479 147,50.497449 147,49.059017 Z M 71,46 c 0,-0.55 0.45,-1 1,-1 0.55,0 1,0.45 1,1 0,0.55 -0.45,1 -1,1 -0.55,0 -1,-0.45 -1,-1 z m -8.238341,-0.707261 c 1.243913,-0.239193 3.043913,-0.230112 4,0.02018 C 67.717747,45.563212 66.7,45.758916 64.5,45.747817 62.3,45.736717 61.517747,45.531932 62.761659,45.292739 Z M 152.5,45 c -0.33992,-0.55 -0.16803,-1 0.38197,-1 0.55,0 1.27811,0.45 1.61803,1 0.33992,0.55 0.16803,1 -0.38197,1 -0.55,0 -1.27811,-0.45 -1.61803,-1 z m 21.57895,-0.583333 c 0.048,-1.164943 0.28494,-1.4019 0.60416,-0.604167 0.28887,0.721875 0.25335,1.584375 -0.0789,1.916667 -0.3323,0.332291 -0.56864,-0.258334 -0.52522,-1.3125 z M 55.016389,42.360337 c -1.725384,-1.451815 -2.75423,-3.022496 -2.286324,-3.490402 1.332667,-1.332667 9.610472,-2.0634 11.205633,-0.98919 2.219596,1.494715 -0.497048,4.112304 -4.308143,4.151058 -2.966426,0.03017 -3.027549,0.107444 -1.186425,1.5 C 59.508751,44.339312 59.880777,45 59.267855,45 58.654933,45 56.741773,43.812151 55.016389,42.360337 Z M 108.25,33.283746 c 1.5125,-0.229125 3.9875,-0.229125 5.5,0 1.5125,0.229124 0.275,0.41659 -2.75,0.41659 -3.025,0 -4.2625,-0.187466 -2.75,-0.41659 z m -9.5,-2.946027 c 0.6875,-0.277412 1.8125,-0.277412 2.5,0 0.6875,0.277413 0.125,0.504386 -1.25,0.504386 -1.375,0 -1.9375,-0.226973 -1.25,-0.504386 z"
         id="path531" />
      <path
         style="fill:#a3a3a3;fill-opacity:1"
         d="m 32.889196,214.93152 c -0.711538,-0.43976 -1.621596,-0.59691 -2.022352,-0.34923 -0.400756,0.24769 -1.011299,-0.007 -1.356763,-0.56598 C 29.164618,213.45734 28.203499,213 27.374261,213 26.023958,213 20.101152,209.10115 17.5,206.5 14.984541,203.98454 11,197.99755 11,196.73339 11,195.96336 10.686975,195.02031 10.304389,194.63772 9.1627193,193.49605 8.7865442,190.85965 8.7865442,184 c 0,-6.85965 0.3761751,-9.49605 1.5178448,-10.63772 C 10.686975,172.97969 11,172.03664 11,171.26661 c 0,-1.26416 3.984541,-7.25115 6.5,-9.76661 2.515459,-2.51546 8.502453,-6.5 9.766611,-6.5 0.770031,0 1.713081,-0.31302 2.095667,-0.69561 1.042325,-1.04233 3.50225,-1.46269 10.112188,-1.72803 12.584602,-0.50518 24.392763,7.15936 29.846202,19.37283 2.614082,5.85448 2.851351,20.21212 0.374943,22.68853 C 69.313025,195.02031 69,195.96336 69,196.73339 c 0,1.26416 -3.984541,7.25115 -6.5,9.76661 -2.515459,2.51546 -8.502453,6.5 -9.766611,6.5 -0.770031,0 -1.713081,0.31302 -2.095667,0.69561 -1.599579,1.59958 -15.584411,2.57341 -17.748526,1.23591 z M 37,201.59878 c 0,-2.82543 -0.59099,-3.74992 -3.490937,-5.46093 -9.684014,-5.71371 -9.824021,-18.317 -0.268203,-24.14325 8.679071,-5.2917 20.786998,1.71923 20.73344,12.0054 -0.03715,7.13517 -6.531507,16.16904 -13.835391,19.24551 L 37.5,204.35705 l 2.456052,0.41803 c 3.791395,0.64531 9.701396,-1.53542 13.717508,-5.06161 11.771054,-10.33512 8.62759,-29.09548 -5.891441,-35.16042 -10.152095,-4.24077 -22.108434,0.62734 -26.886256,10.94695 -4.7646,10.29105 2.68e-4,22.69471 10.604137,27.60414 5.335212,2.47012 5.5,2.42502 5.5,-1.50536 z m 63.16951,-13.55748 c 0.0988,-2.52134 0.55005,-3.73889 1.24281,-3.3533 0.70286,0.39122 0.68635,0.16987 -0.0466,-0.62562 C 100.24461,182.84574 100.63236,179 101.87608,179 c 0.35356,0 1.20489,0.9 1.89185,2 0.68696,1.1 2.2577,2.00689 3.49054,2.01531 1.81396,0.0124 1.9554,0.20022 0.74153,0.98469 -0.825,0.53316 -1.05,0.98316 -0.5,1 0.55,0.0168 0.42006,0.39857 -0.28875,0.84828 -0.96124,0.60986 -1.03106,1.49544 -0.27476,3.48469 0.99295,2.61165 0.93161,2.66703 -2.95404,2.66703 h -3.96805 z m -15.35701,2.27559 c 0.721875,-0.28887 1.584375,-0.25335 1.916667,0.0789 0.332291,0.33229 -0.258334,0.56864 -1.3125,0.52522 -1.164943,-0.048 -1.4019,-0.28494 -0.604167,-0.60416 z m 21.4375,-9.05022 c -1.53569,-0.53238 -1.65781,-4.8966 -0.16287,-5.82052 0.59793,-0.36954 1.54855,-0.21047 2.1125,0.35348 1.3657,1.3657 -0.30075,6.03865 -1.94963,5.46704 z m -3.47958,-9.37756 c -0.23653,-1.61153 0.17049,-3.78744 0.90448,-4.83535 1.15312,-1.64632 1.09601,-1.96758 -0.42019,-2.36353 -0.97915,-0.2557 -0.42875,-0.50273 1.24529,-0.55892 4.12078,-0.1383 5.13587,0.81382 5.02901,4.71707 -0.0756,2.76251 -0.6373,3.57779 -3.21011,4.65958 -3.05055,1.28266 -3.1278,1.24742 -3.54848,-1.61885 z M 167.15789,164 c 0,-1.375 0.22698,-1.9375 0.50439,-1.25 0.27741,0.6875 0.27741,1.8125 0,2.5 -0.27741,0.6875 -0.50439,0.125 -0.50439,-1.25 z m -49.88886,-0.69299 c 0.97297,-0.25354 2.32297,-0.23687 3,0.0371 0.67703,0.27393 -0.11903,0.48137 -1.76903,0.46099 -1.65,-0.0204 -2.20394,-0.2445 -1.23097,-0.49804 z M 89.189295,149.27208 c -5.278907,-0.65032 -3.202758,-2.4486 5.084644,-4.40413 8.384821,-1.97852 17.644681,-6.2457 22.598241,-10.41385 1.74362,-1.46716 4.39817,-5.20703 5.89902,-8.31083 L 125.5,120.5 125.83003,86.25 c 0.24325,-25.243854 0.63768,-34.268482 1.5,-34.320285 0.64348,-0.03866 0.26997,-0.49607 -0.83003,-1.016474 -1.43752,-0.680084 -0.73443,-0.786541 2.5,-0.378529 2.475,0.312213 4.88098,0.948111 5.34663,1.413107 0.80092,0.799797 0.98734,60.702791 0.19291,61.988201 -0.20607,0.33343 -0.67076,2.62173 -1.03265,5.08511 -1.99791,13.59991 -11.60006,21.46652 -32.36199,26.51271 -7.130865,1.73316 -8.077418,2.86042 -3.1449,3.7453 3.14062,0.56342 -4.227766,0.55751 -8.810705,-0.007 z M 53.5,144 c 0.995486,-1.1 2.034975,-2 2.309975,-2 0.275,0 -0.314489,0.9 -1.309975,2 -0.995486,1.1 -2.034975,2 -2.309975,2 -0.275,0 0.314489,-0.9 1.309975,-2 z m 115.65789,-21 c 0,-1.375 0.22698,-1.9375 0.50439,-1.25 0.27741,0.6875 0.27741,1.8125 0,2.5 -0.27741,0.6875 -0.50439,0.125 -0.50439,-1.25 z m 0.98772,-4 c -0.0557,-0.825 0.31209,-10.5 0.81727,-21.5 0.50519,-11 1.22827,-27.65 1.60686,-37 0.37858,-9.35 0.85526,-17.1875 1.05929,-17.416667 1.30174,-1.4621 -0.86855,58.846117 -2.57004,71.416667 -0.44667,3.3 -0.8577,5.325 -0.91338,4.5 z M 94.437132,69.898278 c -0.497445,-0.804884 -0.324066,-0.946434 0.520163,-0.424671 0.734014,0.453645 1.67167,0.203329 2.230639,-0.595492 0.805799,-1.151562 0.90044,-1.1418 0.575697,0.05939 -0.518859,1.919199 -2.398617,2.462121 -3.326499,0.960778 z M 103,69.913097 c 0,-0.819561 3.73047,-1.892234 6.5,-1.869034 l 2,0.01675 -2,1.201951 c -2.17974,1.30997 -6.5,1.742215 -6.5,0.650329 z m 19.56429,-1.619969 c -0.54268,-1.425198 -0.42782,-1.540062 0.5598,-0.559795 0.68342,0.678334 0.99067,1.485241 0.68278,1.793128 -0.30789,0.307888 -0.86705,-0.247112 -1.24258,-1.233333 z M 116,67 c 0,-0.55 0.47656,-1 1.05902,-1 0.58246,0 0.7809,0.45 0.44098,1 -0.33992,0.55 -0.81648,1 -1.05902,1 C 116.19844,68 116,67.55 116,67 Z m 20.8125,-16.683114 c 0.72187,-0.288871 1.58437,-0.253344 1.91667,0.07895 0.33229,0.332292 -0.25834,0.568641 -1.3125,0.52522 -1.16495,-0.04798 -1.4019,-0.284941 -0.60417,-0.604167 z M 70.45,48.084676 C 69.9275,47.581248 68.375,46.96753 67,46.720858 64.825713,46.330796 64.907474,46.254622 67.627555,46.136182 69.347711,46.061282 71.315311,46.675 72,47.5 c 1.337041,1.611036 0.02781,2.104892 -1.55,0.584676 z m 20.3625,-0.76779 c 0.721875,-0.288871 1.584375,-0.253344 1.916667,0.07895 0.332291,0.332292 -0.258334,0.568641 -1.3125,0.52522 -1.164943,-0.04798 -1.4019,-0.284941 -0.604167,-0.604167 z m 27,0 c 0.72187,-0.288871 1.58437,-0.253344 1.91667,0.07895 0.33229,0.332292 -0.25834,0.568641 -1.3125,0.52522 -1.16495,-0.04798 -1.4019,-0.284941 -0.60417,-0.604167 z M 57,45.293772 c -2.303488,-0.842053 -6,-4.489945 -6,-5.921082 0,-1.744583 5.912219,-3.24486 15.5,-3.933259 l 8,-0.574396 -4.335539,2.056887 c -3.393253,1.609844 -4.776484,1.8209 -6.36437,0.97109 -2.130172,-1.140034 -10.373148,-0.392838 -11.245962,1.019406 -0.651545,1.054222 3.298753,4.708998 6.446384,5.964129 C 61.560748,45.897451 59.708283,46.2838 57,45.293772 Z m 96.981,-0.816664 c -1.05678,-1.273347 -0.99492,-1.419678 0.37756,-0.893011 0.90279,0.346434 1.64144,1.031736 1.64144,1.522892 0,1.285959 -0.57887,1.105364 -2.019,-0.629881 z M 101.89692,32.69843 c 0.44342,-0.440864 3.68551,-0.660796 7.20465,-0.488738 l 6.39843,0.312833 -7.20465,0.488737 c -3.96256,0.268806 -6.84185,0.128031 -6.39843,-0.312832 z"
         id="path529" />
      <path
         style="fill:#8c8c8c;fill-opacity:1"
         d="m 88.25,190.22049 c 1.276915,-0.26789 1.756562,-1.36107 1.774274,-4.04381 0.03828,-5.79854 1.141479,-14.57971 1.969493,-15.67668 0.41515,-0.55 0.596562,-1.96433 0.403137,-3.14295 -0.28947,-1.76387 0.27829,-2.26114 3.209546,-2.81104 1.958675,-0.36745 4.89501,-0.37515 6.52518,-0.0171 2.5058,0.55037 2.77028,0.88435 1.71104,2.16066 -1.47361,1.7756 -1.26011,7.33511 0.33773,8.79412 0.79051,0.72183 0.88085,0.60935 0.3118,-0.3882 -0.51245,-0.8983 -0.4159,-1.16637 0.26788,-0.74377 0.58801,0.36341 1.24373,0.13686 1.45716,-0.50343 0.2458,-0.73741 1.37685,-0.916 3.08541,-0.48718 3.66461,0.91976 3.4321,2.40034 -0.29113,1.85389 -3.03737,-0.44579 -3.59457,0.1208 -4.21401,4.285 -0.18404,1.23717 0.20761,1.8952 1.02682,1.72522 0.72838,-0.15112 1.02582,0.20823 0.66097,0.79856 -0.91717,1.48402 -3.73706,-0.92532 -3.08174,-2.63307 0.29813,-0.7769 -0.0419,-1.083 -0.85595,-0.77061 -1.85724,0.71269 -2.55968,3.94708 -1.18194,5.44228 0.86098,0.93438 0.81699,1.05101 -0.18255,0.48397 -0.82704,-0.46917 -1.247933,-0.24476 -1.13152,0.6033 0.73563,5.35895 0.30955,5.70785 -6.8016,5.5694 -3.7125,-0.0723 -5.9625,-0.29663 -5,-0.49856 z M 107,186.94098 c 0,-0.58246 0.45,-0.7809 1,-0.44098 0.55,0.33992 1,0.81648 1,1.05902 0,0.24254 -0.45,0.44098 -1,0.44098 -0.55,0 -1,-0.47656 -1,-1.05902 z m 3,-4.81854 C 110,181.5051 110.4187,181 110.93045,181 c 0.51175,0 1.12546,-1.0125 1.36382,-2.25 0.41507,-2.15502 0.43911,-2.16019 0.56955,-0.12244 0.0749,1.17015 -0.53882,2.68775 -1.36382,3.37244 -1.03636,0.8601 -1.5,0.89795 -1.5,0.12244 z m 1.25,-18.81177 c 0.9625,-0.25152 2.5375,-0.25152 3.5,0 0.9625,0.25153 0.175,0.45733 -1.75,0.45733 -1.925,0 -2.7125,-0.2058 -1.75,-0.45733 z m 17.5,-13.97295 c 0.6875,-0.27741 1.8125,-0.27741 2.5,0 0.6875,0.27741 0.125,0.50439 -1.25,0.50439 -1.375,0 -1.9375,-0.22698 -1.25,-0.50439 z m -49,-1.56412 C 77.1375,147.22912 75,146.44827 75,146.03837 c 0,-0.4099 3.06401,-1.25128 6.80891,-1.86974 10.312067,-1.703 20.99452,-6.43304 25.44109,-11.26495 2.0625,-2.24124 3.75,-4.90988 3.75,-5.93031 0,-1.02044 0.39069,-2.09679 0.86819,-2.39191 1.4309,-0.88434 2.08562,-9.08666 2.22363,-27.857834 0.0719,-9.777006 0.48324,-19.339506 0.91413,-21.25 0.80936,-3.588592 0.47771,-3.88839 -4.00595,-3.621205 -1.00663,0.05999 -1.08886,-0.09291 -0.25,-0.46485 1.59189,-0.705826 1.62526,-3.095818 0.0506,-3.620717 -0.75023,-0.250076 -0.56297,-0.644049 0.5,-1.051949 1.3249,-0.508424 1.6994,-0.09124 1.6994,1.893098 0,2.264617 0.3599,2.514225 3.2644,2.263988 1.79542,-0.154684 3.76943,0.03088 4.38669,0.412372 1.50037,0.927281 3.96678,-2.066492 2.72528,-3.307995 -0.51638,-0.516377 -2.38731,-1.228555 -4.15762,-1.582618 C 116.40159,65.830319 116,66.015129 116,67.875 116,69.04375 115.61732,70 115.1496,70 c -0.46773,0 -0.92387,-4.05 -1.01365,-9 -0.16056,-8.851876 -0.12417,-9 2.21083,-9 1.30574,0 4.57438,-0.26212 7.26365,-0.58249 2.73577,-0.325909 4.37542,-0.212326 3.72235,0.257858 -0.83868,0.603806 -1.2609,10.408467 -1.5,34.83249 L 125.5,120.5 l -2.7288,5.64327 c -1.50085,3.1038 -4.20085,6.88533 -6,8.4034 -4.8417,4.08526 -15.84912,9.05298 -23.37338,10.54856 -3.640009,0.72352 -6.841758,1.89808 -7.114998,2.61013 -0.27324,0.71205 -0.786155,1.24144 -1.139811,1.17642 -0.353656,-0.065 -2.780511,-0.5637 -5.393011,-1.10818 z M 51.083333,146.75 C 51.3125,146.6125 52.85,145.375 54.5,144 l 3,-2.5 -2.424314,2.75 c -1.333373,1.5125 -2.870873,2.75 -3.416667,2.75 -0.545794,0 -0.804852,-0.1125 -0.575686,-0.25 z M 45.157895,104 c 0,-1.375 0.226973,-1.9375 0.504386,-1.25 0.277412,0.6875 0.277412,1.8125 0,2.5 -0.277413,0.6875 -0.504386,0.125 -0.504386,-1.25 z M 97.668143,69.422423 c 0.280998,-0.732269 -0.497395,-1.056368 -2.111539,-0.879179 -2.505214,0.275002 -3.451524,-0.872119 -1.642014,-1.990458 0.503024,-0.310886 1.143765,5.7e-5 1.423869,0.690983 0.385298,0.950408 0.76753,0.891064 1.570097,-0.243769 0.824886,-1.166391 1.064224,-1.198198 1.076131,-0.143011 0.0084,0.746344 0.618621,1.125478 1.355997,0.84252 1.820336,-0.69853 4.076746,0.816057 3.237876,2.173384 -0.903,1.461086 -5.48273,1.040952 -4.910417,-0.45047 z M 90.8125,50.316886 c 0.721875,-0.288871 1.584375,-0.253344 1.916667,0.07895 0.332291,0.332292 -0.258334,0.568641 -1.3125,0.52522 -1.164943,-0.04798 -1.4019,-0.284941 -0.604167,-0.604167 z m 40.4375,-0.0062 c 0.9625,-0.251527 2.5375,-0.251527 3.5,0 0.9625,0.251528 0.175,0.457323 -1.75,0.457323 -1.925,0 -2.7125,-0.205795 -1.75,-0.457323 z m 11.5625,-0.993788 c 0.72187,-0.288871 1.58437,-0.253344 1.91667,0.07895 0.33229,0.332292 -0.25834,0.568641 -1.3125,0.52522 -1.16495,-0.04798 -1.4019,-0.284941 -0.60417,-0.604167 z M 150,48 c 0,-0.55 0.45,-1 1,-1 0.55,0 1,0.45 1,1 0,0.55 -0.45,1 -1,1 -0.55,0 -1,-0.45 -1,-1 z M 94.269032,47.307009 c 0.972967,-0.253543 2.322967,-0.236869 3,0.03705 C 97.946064,47.617986 97.15,47.825431 95.5,47.805051 93.85,47.784672 93.296064,47.560553 94.269032,47.307009 Z M 113.75,47.337719 c 0.6875,-0.277412 1.8125,-0.277412 2.5,0 0.6875,0.277413 0.125,0.504386 -1.25,0.504386 -1.375,0 -1.9375,-0.226973 -1.25,-0.504386 z m -52,-1 c 0.6875,-0.277412 1.8125,-0.277412 2.5,0 0.6875,0.277413 0.125,0.504386 -1.25,0.504386 -1.375,0 -1.9375,-0.226973 -1.25,-0.504386 z m 93.19659,-0.283549 c 1.1938,-0.755269 1.01904,-1.27104 -1,-2.951418 -1.34562,-1.119917 -1.88409,-2.051185 -1.19659,-2.069483 0.6875,-0.0183 1.25,0.364247 1.25,0.8501 0,0.485852 0.974,1.138076 2.16445,1.449385 1.82819,0.478082 1.96452,0.806917 0.87756,2.116631 -0.7078,0.852838 -1.7943,1.543724 -2.41445,1.535302 -0.62016,-0.0084 -0.47659,-0.427155 0.31903,-0.930517 z M 50.52865,43.644608 c -1.216191,-0.889301 -1.617702,-1.970159 -1.167591,-3.143128 0.37731,-0.983255 0.787926,-1.610829 0.91248,-1.394608 0.124553,0.21622 1.317402,1.630628 2.650775,3.143128 1.769807,2.007565 2.02389,2.75 0.94113,2.75 -0.815752,0 -2.317309,-0.609927 -3.336794,-1.355392 z M 44.8125,38.316886 c 0.721875,-0.288871 1.584375,-0.253344 1.916667,0.07895 0.332291,0.332292 -0.258334,0.568641 -1.3125,0.52522 -1.164943,-0.04798 -1.4019,-0.284941 -0.604167,-0.604167 z M 72.5,36.083621 c 1.605423,-0.697718 1.112201,-0.95453 -2.5,-1.301704 -2.736707,-0.26303 -1.169336,-0.476123 4,-0.543823 8.447973,-0.11064 8.672847,0.832067 0.5,2.096085 -2.653523,0.410396 -3.326762,0.326053 -2,-0.250558 z M 58,34.986085 c -1.055325,-0.691794 -0.462425,-0.792897 2,-0.341047 4.312786,0.791387 5.126293,1.359986 1.916667,1.339649 C 60.5875,35.976265 58.825,35.526894 58,34.986085 Z m 47.7277,-4.707817 c 1.77523,-0.220912 4.92523,-0.224542 7,-0.0081 2.07476,0.216475 0.6223,0.397221 -3.2277,0.401658 -3.85,0.0044 -5.54754,-0.17268 -3.7723,-0.393592 z"
         id="path527" />
      <path
         style="fill:#767676;fill-opacity:1"
         d="m 91.8125,190.31689 c 0.721875,-0.28887 1.584375,-0.25335 1.916667,0.0789 0.332291,0.33229 -0.258334,0.56864 -1.3125,0.52522 -1.164943,-0.048 -1.4019,-0.28494 -0.604167,-0.60416 z M 79.555234,185.25 c 0.222103,-2.6125 0.599505,-8.44313 0.83867,-12.95695 0.239165,-4.51382 0.700683,-8.63708 1.025595,-9.1628 0.324912,-0.52571 2.050943,-0.83417 3.835625,-0.68545 1.784682,0.14871 7.744876,0.41012 13.244876,0.5809 5.5,0.17078 8.2,0.46 6,0.64272 -11.134953,0.92479 -12.488749,1.33176 -12.110431,3.64056 0.197459,1.20506 0.01935,2.64102 -0.395802,3.19102 -0.832735,1.10323 -1.931565,9.89054 -1.969493,15.75 L 90,190 h -5.424296 -5.424295 z m 25.317206,-4 c -1.19363,-1.52199 -1.17701,-1.60116 0.12756,-0.60761 0.825,0.62832 2.4,1.36362 3.5,1.634 1.89963,0.46694 1.89323,0.49743 -0.12756,0.60761 -1.17015,0.0638 -2.74515,-0.6715 -3.5,-1.634 z M 105.25,150.26496 c 2.6125,-0.206 6.8875,-0.206 9.5,0 2.6125,0.206 0.475,0.37454 -4.75,0.37454 -5.225,0 -7.3625,-0.16854 -4.75,-0.37454 z m -16.5,-0.92724 c 0.6875,-0.27741 1.8125,-0.27741 2.5,0 0.6875,0.27741 0.125,0.50439 -1.25,0.50439 -1.375,0 -1.9375,-0.22698 -1.25,-0.50439 z m -8,-1 c 0.6875,-0.27741 1.8125,-0.27741 2.5,0 0.6875,0.27741 0.125,0.50439 -1.25,0.50439 -1.375,0 -1.9375,-0.22698 -1.25,-0.50439 z m -15.033521,-3.10545 c -3.329851,-1.24725 -6.582174,-2.70584 -7.227386,-3.24132 -0.645211,-0.53548 -1.492991,-0.65372 -1.883955,-0.26275 -0.390964,0.39096 -0.411431,-0.0694 -0.04548,-1.02307 0.513896,-1.33919 1.727486,-1.69631 5.331059,-1.56876 8.167307,0.28907 18.928274,-4.08854 23.925494,-9.73299 1.751085,-1.97788 3.221291,-4.00278 3.267124,-4.49977 0.04583,-0.49698 0.113898,-2.59111 0.151255,-4.65361 0.03736,-2.0625 0.562356,-4.07136 1.166666,-4.46413 0.772826,-0.5023 0.991321,-10.06859 0.736595,-32.250002 L 90.775697,52 h 9.465463 c 5.206,0 12.11897,-0.166496 15.36215,-0.369992 3.24318,-0.203495 4.16001,-0.175218 2.03739,0.06284 l -3.85929,0.43283 0.38898,6.884048 c 0.37564,6.647877 0.3022,6.909322 -2.1407,7.620728 -3.32871,0.969363 -5.0108,1.249154 -8.02969,1.335613 -4.690457,0.134331 -6,-0.09008 -6,-1.028215 0,-1.827669 -3.946722,-0.905918 -5.064584,1.182826 -0.797678,1.490475 -0.808134,1.918692 -0.03518,1.440983 C 93.517393,69.180234 94,69.555242 94,70.416232 c 0,1.14733 0.567442,1.344537 2.25,0.781961 1.2375,-0.413768 3.375,-0.655409 4.75,-0.53698 1.375,0.118429 4.75,0.43208 7.5,0.697003 2.75,0.264922 5.51511,0.517701 6.14469,0.561731 0.78655,0.05501 0.89958,1.166833 0.36126,3.553679 -0.43089,1.910494 -0.84225,11.472994 -0.91413,21.25 -0.13801,18.771174 -0.79273,26.973494 -2.22363,27.857834 -0.4775,0.29512 -0.86819,1.37147 -0.86819,2.39191 0,1.02043 -1.6875,3.68907 -3.75,5.93031 -4.44657,4.83191 -15.129023,9.56195 -25.44109,11.26495 -6.909162,1.14103 -8.641072,2.33192 -4.55891,3.13479 1.2375,0.24339 0.510919,0.38719 -1.614623,0.31956 -2.125543,-0.0676 -6.589047,-1.14346 -9.918898,-2.39071 z M 163.40499,143.75 161.5,141.5 l 2.5,1.98934 c 1.375,1.09414 2.6875,2.10664 2.91667,2.25 0.22916,0.14336 -0.0386,0.26066 -0.59502,0.26066 -0.55642,0 -1.86892,-1.0125 -2.91666,-2.25 z M 87,125.05902 c 0,-0.51754 0.444846,-1.21592 0.988546,-1.55194 0.56686,-0.35034 0.734507,0.0511 0.393011,0.94098 C 87.716766,126.18048 87,126.49745 87,125.05902 Z M 45.157895,100 c 0,-1.375 0.226973,-1.9375 0.504386,-1.25 0.277412,0.6875 0.277412,1.8125 0,2.5 -0.277413,0.6875 -0.504386,0.125 -0.504386,-1.25 z M 44.078947,79.416667 c 0.04798,-1.164943 0.284941,-1.4019 0.604167,-0.604167 0.288871,0.721875 0.253344,1.584375 -0.07895,1.916667 -0.332292,0.332291 -0.568641,-0.258334 -0.52522,-1.3125 z M 94.542705,69.069098 c -0.664972,-1.075947 1.292282,-2.567445 2.190493,-1.669234 0.330074,0.330075 -0.03737,0.607027 -0.816531,0.615449 C 94.750203,68.027921 94.764921,68.201831 96,69 c 0.901292,0.58246 1.024633,0.975486 0.309017,0.984687 -0.655041,0.0084 -1.449881,-0.403593 -1.766312,-0.915589 z M 87.8125,50.316886 c 0.721875,-0.288871 1.584375,-0.253344 1.916667,0.07895 0.332291,0.332292 -0.258334,0.568641 -1.3125,0.52522 -1.164943,-0.04798 -1.4019,-0.284941 -0.604167,-0.604167 z M 67,48 C 64.672743,47.254682 64.651391,47.192472 66.690983,47.09968 67.896024,47.044856 69.160081,47.45 69.5,48 c 0.339919,0.55 0.478976,0.955144 0.309017,0.90032 C 69.639058,48.845496 68.375,48.440352 67,48 Z m 34.77643,-0.733497 c 2.35204,-0.211245 5.95204,-0.208273 8,0.0066 2.04796,0.214878 0.12357,0.387715 -4.27643,0.384083 -4.4,-0.0036 -6.075605,-0.179441 -3.72357,-0.390687 z m 54.7047,-1.245654 c 1.72387,-1.904851 1.7203,-2.005351 -0.095,-2.677058 -1.92497,-0.712284 -3.34335,-2.233046 -3.37081,-3.614115 -0.008,-0.423678 1.76994,0.140445 3.95192,1.253607 2.71389,1.384524 3.78582,2.496675 3.39301,3.520324 C 160.04442,45.326623 159.15917,46 158.39301,46 157.62686,46 157,46.45 157,47 c 0,0.55 -0.51974,1 -1.15499,1 -0.65904,0 -0.3859,-0.849835 0.63612,-1.979151 z M 82.75,46.337719 c 0.6875,-0.277412 1.8125,-0.277412 2.5,0 0.6875,0.277413 0.125,0.504386 -1.25,0.504386 -1.375,0 -1.9375,-0.226973 -1.25,-0.504386 z M 48.666667,43.333333 c -1.217327,-1.217326 -0.689406,-4.387377 0.827589,-4.969503 0.821841,-0.31537 1.199695,-1.088746 0.839675,-1.718615 -0.36002,-0.629868 -0.286339,-0.811619 0.163734,-0.403891 0.450074,0.407728 1.309721,0.357671 1.910326,-0.111239 C 53.582703,35.212954 61,33.847582 61,34.548472 c 0,0.232503 -1.997286,0.925654 -4.438414,1.540337 -4.948887,1.246145 -8.110174,4.039209 -7.214252,6.373946 0.631253,1.645019 0.395414,1.94666 -0.680667,0.870578 z m -6.05358,-2.516312 c 0.28881,-0.467304 0.944015,-0.590747 1.456011,-0.274316 1.308382,0.808625 1.161058,1.123962 -0.525109,1.123962 -0.800807,0 -1.219712,-0.382341 -0.930902,-0.849646 z M 173.25816,39.777098 c -0.083,-1.101739 0.16247,-1.620033 0.54547,-1.151764 0.38301,0.468269 1.0716,1.13151 1.53022,1.473869 0.45861,0.342358 0.21315,0.860652 -0.54548,1.151764 -0.8674,0.332852 -1.43532,-0.214158 -1.53021,-1.473869 z M 70,39.086531 c -3.319672,-0.65909 -3.087821,-0.795146 4.5,-2.640712 l 8,-1.945819 -7,-0.573413 c -7.198186,-0.589648 -6.276575,-1.365936 1.161448,-0.978308 2.288797,0.119279 5.141012,-0.307375 6.338257,-0.948121 1.517561,-0.812174 4.800022,-0.931348 10.838552,-0.393507 6.599563,0.587811 7.947503,0.936383 5.661743,1.464103 -1.833277,0.423252 1.00925,0.73863 7.30902,0.810931 7.56227,0.08679 10.1189,-0.189293 9.59549,-1.036193 -0.44563,-0.72104 -0.27393,-0.882825 0.45729,-0.430902 2.31877,1.433075 -0.0877,2.58799 -5.67082,2.721592 -3.13004,0.0749 -4.67848,0.331198 -3.44098,0.569551 3.94996,0.760796 2.42046,2.132798 -3,2.691072 C 95.335655,39.366423 73.584251,39.79815 70,39.086531 Z m -8,-4.4699 c 0,-0.210852 0.9,-0.618724 2,-0.90638 1.1,-0.287656 2,-0.115141 2,0.383369 C 66,34.592129 65.1,35 64,35 62.9,35 62,34.827484 62,34.616631 Z"
         id="path525" />
      <path
         style="fill:#606060;fill-opacity:1"
         d="m 72.541836,186.6 c -0.231535,-1.155 -0.700464,-4.575 -1.042064,-7.6 -0.968891,-8.5799 -5.440957,-15.111 -16.231449,-23.70474 -1.994797,-1.5887 -0.882235,-1.26651 3.981677,1.15306 3.7125,1.8468 6.75,3.12133 6.75,2.8323 0,-0.28903 0.603904,-0.0243 1.342009,0.58826 0.738105,0.61257 1.590566,0.86521 1.894357,0.56142 0.914693,-0.91469 12.694052,1.87327 12.084157,2.8601 -0.310661,0.50266 -0.764706,5.25545 -1.00899,10.56176 -0.701841,15.24531 -0.529146,14.63369 -4.164193,14.74784 -2.477648,0.0778 -3.277976,-0.36615 -3.605504,-2 z m 3.048072,-31.45453 c -0.301559,-0.48793 -1.937477,-1.16498 -3.635374,-1.50456 -3.139063,-0.62782 -3.251963,-2.65952 -0.145517,-2.61867 2.38617,0.0314 6.724883,3.52976 5.396113,4.35098 -0.586813,0.36267 -1.313663,0.26019 -1.615222,-0.22775 z M 55.550891,139.65561 C 54.147901,137.81619 53,135.93913 53,135.48435 c 0,-0.45478 -0.69799,-1.59814 -1.551088,-2.5408 -1.398986,-1.54586 -1.999013,-3.92362 -2.334892,-9.25257 -0.06271,-0.99496 -0.482595,-1.58122 -0.933076,-1.30281 -0.450481,0.27841 -0.624406,-0.82003 -0.386501,-2.44098 C 48.075286,118.03369 47.791267,117 46.984669,117 c -1.601959,0 -0.404887,-10.10531 1.330447,-11.23123 0.884852,-0.5741 0.829219,-0.99782 -0.219704,-1.67333 -1.137577,-0.7326 -1.300429,-3.44152 -0.856665,-14.249998 C 47.569714,81.784282 47.454875,77.885866 46.948721,80 c -0.52672,2.200032 -0.715203,-2.257001 -0.507468,-12 0.191652,-8.988707 0.02434,-13.399583 -0.398282,-10.5 -0.64186,4.403762 -0.747498,3.903162 -0.885867,-4.19798 L 45,44.104039 47.950826,45.132703 C 51.57908,46.397519 51.696532,47.147516 52.471552,74 c 0.67138,23.261622 2.341426,45.85274 3.546351,47.97235 0.519315,0.91354 0.627579,-0.8463 0.269316,-4.37774 -0.348567,-3.43586 -0.220251,-5.67176 0.30684,-5.34669 0.511292,0.31532 0.956999,-3.21088 1.023147,-8.09461 C 57.704922,97.677227 57.528469,96.380622 56.9159,99 56.412918,101.15078 56.208888,96.332121 56.386629,86.5 56.545712,77.7 56.362657,72.3 55.97984,74.5 55.508422,77.209183 55.238017,74.68918 55.141905,66.690983 55.049947,59.038449 55.351975,55.099499 56,55.5 c 0.581092,0.359134 1,-0.628505 1,-2.35765 0,-1.636626 -0.53096,-3.15267 -1.17991,-3.368987 -1.783791,-0.594597 -0.148696,-3.783852 1.898525,-3.703078 1.56462,0.06173 1.541419,0.164066 -0.190662,0.840976 -1.776136,0.694127 -1.704635,0.82181 0.719737,1.285258 1.480482,0.283012 2.453846,0.129573 2.163031,-0.340976 C 60.119906,47.384994 61.006966,47 62.381966,47 c 1.375,0 2.732612,0.376374 3.016916,0.836387 0.284304,0.460013 1.998361,0.90294 3.809017,0.984282 1.810655,0.08134 4.417101,0.410727 5.792101,0.731967 1.375,0.321241 10.6,0.833207 20.5,1.137703 9.9,0.304496 18.1875,0.723737 18.41667,0.931645 C 114.14583,51.829893 109.03287,52 102.55452,52 H 90.775697 l 0.362152,31.535868 c 0.254726,22.181412 0.03623,31.747702 -0.736595,32.250002 -0.60431,0.39277 -1.12931,2.40163 -1.166666,4.46413 -0.03736,2.0625 -0.105421,4.15663 -0.151255,4.65361 -0.04583,0.49699 -1.516039,2.52189 -3.267124,4.49977 -5.026623,5.67766 -15.760371,10.02198 -24.038003,9.729 -4.845693,-0.1715 -5.746077,0.49975 -3.578206,2.66762 0.66,0.66 0.907901,1.2 0.550891,1.2 -0.35701,0 -1.79701,-1.50498 -3.2,-3.34439 z m 32.830666,-15.20755 c 0.341496,-0.88992 0.173849,-1.29132 -0.393011,-0.94098 C 87.444846,123.8431 87,124.54148 87,125.05902 c 0,1.43843 0.716766,1.12146 1.381557,-0.61096 z M 56.689326,63.25 c -0.251528,-0.9625 -0.457323,-0.175 -0.457323,1.75 0,1.925 0.205795,2.7125 0.457323,1.75 0.251527,-0.9625 0.251527,-2.5375 0,-3.5 z M 46.692991,47.269032 C 46.439447,46.296064 46.215328,46.85 46.194949,48.5 c -0.02038,1.65 0.187065,2.446064 0.460988,1.769032 0.273923,-0.677033 0.290597,-2.027033 0.03705,-3 z M 45.157895,96 c 0,-1.375 0.226973,-1.9375 0.504386,-1.25 0.277412,0.6875 0.277412,1.8125 0,2.5 -0.277413,0.6875 -0.504386,0.125 -0.504386,-1.25 z M 80.5,45.987411 C 72.813091,45.085053 66,43.193384 66,41.961456 c 0,-0.528801 -0.1125,-1.276569 -0.25,-1.661706 -0.1375,-0.385138 7.4,-0.80461 16.75,-0.932161 18.77964,-0.256187 27.5,-1.029777 27.5,-2.439545 0,-0.510424 -1.0125,-1.003692 -2.25,-1.096152 -1.2375,-0.09246 0.34606,-0.429959 3.51901,-0.75 9.7467,-0.983102 6.55798,-2.541889 -6.51282,-3.183758 -7.242649,-0.355665 -2.64323,-0.47558 11.24381,-0.293146 12.925,0.169796 25.075,0.567348 27,0.883448 1.925,0.316101 6.54268,0.813112 10.26151,1.104469 8.8313,0.6919 16.07436,3.773515 15.21717,6.474267 C 168.00737,41.552154 168.34425,42 169.93261,42 c 2.31942,0 2.70454,-1.885489 0.81739,-4.001772 -1.06341,-1.192527 -0.98877,-1.204104 0.5,-0.07755 0.9625,0.728319 1.75,1.970674 1.75,2.760789 0,0.820284 0.53625,1.164941 1.25,0.803398 0.6875,-0.348246 0.41876,0.04429 -0.5972,0.872299 -1.01596,0.828011 -2.47846,1.263236 -3.25,0.967169 C 169.63126,43.02826 169,43.270044 169,43.861626 c 0,0.591583 -0.675,0.816583 -1.5,0.5 -0.825,-0.316582 -1.5,-0.04713 -1.5,0.598773 0,0.702106 -0.77045,0.929846 -1.91584,0.566311 -1.05372,-0.334435 -2.20527,-0.13976 -2.55902,0.432613 -0.35375,0.572372 -1.62912,0.988476 -2.83416,0.924676 -1.55658,-0.08241 -1.70892,-0.243671 -0.52612,-0.556927 3.39388,-0.898846 2.86183,-3.272806 -1.19763,-5.343789 C 154.28391,39.614356 153,39.354285 153,40.179676 c 0,0.846709 -0.31917,0.901154 -1.04249,0.177833 -0.72332,-0.723322 -2.63683,-0.626991 -6.25,0.314641 -2.86413,0.746423 -7.57001,1.637501 -10.45751,1.980173 -2.8875,0.342672 -5.25,1.011083 -5.25,1.485358 0,0.474276 -1.9125,0.915561 -4.25,0.980634 -3.74482,0.104251 -3.9002,0.1934 -1.30717,0.75 4.08335,0.876501 -36.552537,0.986635 -43.94283,0.119096 z m 54.3125,-0.670525 c 0.72187,-0.288871 1.58437,-0.253344 1.91667,0.07895 0.33229,0.332292 -0.25834,0.568641 -1.3125,0.52522 -1.16495,-0.04798 -1.4019,-0.284941 -0.60417,-0.604167 z m 6,-1 c 0.72187,-0.288871 1.58437,-0.253344 1.91667,0.07895 0.33229,0.332292 -0.25834,0.568641 -1.3125,0.52522 -1.16495,-0.04798 -1.4019,-0.284941 -0.60417,-0.604167 z M 46.756955,42.923793 c -1.591287,-0.926984 -1.608998,-1.21997 -0.20343,-3.365138 0.846788,-1.292362 2.531158,-2.603779 3.743045,-2.914259 2.1348,-0.546928 2.128643,-0.507564 -0.197652,1.263809 -1.687833,1.285212 -2.235485,2.461559 -1.843619,3.960057 0.306604,1.172456 0.487091,2.118054 0.401081,2.101329 -0.08601,-0.01672 -0.94075,-0.487334 -1.899425,-1.045798 z M 66.8125,33.316886 c 0.721875,-0.288871 1.584375,-0.253344 1.916667,0.07895 0.332291,0.332292 -0.258334,0.568641 -1.3125,0.52522 -1.164943,-0.04798 -1.4019,-0.284941 -0.604167,-0.604167 z m 30.9375,0.02083 c 0.6875,-0.277412 1.8125,-0.277412 2.5,0 0.6875,0.277413 0.125,0.504386 -1.25,0.504386 -1.375,0 -1.9375,-0.226973 -1.25,-0.504386 z m -22,-1.043452 c 1.2375,-0.238353 3.2625,-0.238353 4.5,0 1.2375,0.238353 0.225,0.433369 -2.25,0.433369 -2.475,0 -3.4875,-0.195016 -2.25,-0.433369 z"
         id="path523" />
      <path
         style="fill:#494949;fill-opacity:1"
         d="M 48.078472,124.34377 C 47.491447,122.2297 47.046915,119.6 47.090622,118.5 c 0.04371,-1.1 0.677649,0.475 1.408759,3.5 1.520432,6.29085 1.188432,8.13955 -0.420909,2.34377 z M 55.597714,121.25 C 54.631843,118.10273 53.093134,94.910725 52.496014,74.5 51.694387,47.098842 51.586229,46.400011 47.950826,45.132703 L 45,44.104039 45.157104,53.30202 c 0.138369,8.101142 0.244007,8.601742 0.885867,4.19798 0.422623,-2.899583 0.589934,1.511293 0.398282,10.5 -0.207735,9.742999 -0.01925,14.200032 0.507468,12 0.506154,-2.114134 0.620993,1.784282 0.290026,9.845442 -0.443764,10.808478 -0.280912,13.517398 0.856665,14.249998 1.01826,0.65576 1.088508,1.11085 0.255403,1.65456 -0.632051,0.4125 -1.31568,1.875 -1.519174,3.25 -0.203494,1.375 -1.202169,-12.934192 -2.219278,-31.798204 -1.017109,-18.864011 -1.561108,-34.586384 -1.208886,-34.938606 0.352221,-0.352222 2.606769,0.314931 5.010105,1.482562 2.403336,1.167631 5.998434,2.428518 7.989105,2.80197 1.990672,0.373452 3.848116,1.049068 4.127653,1.501369 0.279537,0.452301 -0.850433,0.4327 -2.511045,-0.04356 C 55.664002,47.330045 55,47.454139 55,48.569806 55,49.356413 55.45,50 56,50 c 0.55,0 1,1.376558 1,3.059017 0,1.784701 -0.416577,2.801558 -1,2.440983 -0.648025,-0.400501 -0.950053,3.538449 -0.858095,11.190983 0.09611,7.998197 0.366517,10.5182 0.837935,7.809017 0.382817,-2.2 0.565872,3.2 0.406789,12 -0.177741,9.832121 0.02629,14.65078 0.529271,12.5 0.612569,-2.619378 0.789022,-1.322773 0.701306,5.15331 -0.06615,4.88373 -0.511855,8.40993 -1.023147,8.09461 -0.525704,-0.32421 -0.660959,1.81494 -0.322253,5.09669 0.585716,5.67504 0.327718,7.16976 -0.674092,3.90539 z M 56.232003,65 c 0,-1.925 0.205795,-2.7125 0.457323,-1.75 0.251527,0.9625 0.251527,2.5375 0,3.5 -0.251528,0.9625 -0.457323,0.175 -0.457323,-1.75 z M 46.194949,48.5 c 0.02038,-1.65 0.244498,-2.203936 0.498042,-1.230968 0.253543,0.972967 0.236869,2.322967 -0.03705,3 C 46.382014,50.946064 46.174569,50.15 46.194949,48.5 Z M 107.75,46.294267 c 1.2375,-0.238353 3.2625,-0.238353 4.5,0 1.2375,0.238353 0.225,0.433369 -2.25,0.433369 -2.475,0 -3.4875,-0.195016 -2.25,-0.433369 z m 18,-1.026472 C 128.0875,45.05726 130,44.460878 130,43.942502 130,43.424126 131.09558,43 132.43462,43 c 1.96543,0 10.32245,-1.527361 17.57855,-3.212724 0.68026,-0.158002 1.42205,0.212131 1.64843,0.822516 0.72621,1.958082 -16.39157,5.515638 -25.09526,5.215501 -5.02489,-0.173278 -5.03157,-0.177839 -0.81634,-0.557498 z m 42.75815,-5.293481 c 0.51606,-1.625945 0.0259,-2.24077 -2.48366,-3.11562 -1.71962,-0.599464 -2.92725,-1.289267 -2.68362,-1.532895 0.24363,-0.243629 2.1791,0.3279 4.30104,1.270064 2.12195,0.942164 4.14944,1.658909 4.50553,1.592768 0.35609,-0.06614 0.41611,0.764358 0.13337,1.845556 C 171.99134,41.141109 170.91443,42 169.81598,42 c -1.50393,0 -1.80349,-0.463993 -1.30783,-2.025686 z M 148.8125,33.316886 c 0.72187,-0.288871 1.58437,-0.253344 1.91667,0.07895 0.33229,0.332292 -0.25834,0.568641 -1.3125,0.52522 -1.16495,-0.04798 -1.4019,-0.284941 -0.60417,-0.604167 z m -7,-1 c 0.72187,-0.288871 1.58437,-0.253344 1.91667,0.07895 0.33229,0.332292 -0.25834,0.568641 -1.3125,0.52522 -1.16495,-0.04798 -1.4019,-0.284941 -0.60417,-0.604167 z"
         id="path521" />
    </g>
  </g>
</svg>
