<?xml version="1.0" encoding="UTF-8" standalone="no"?>
<!-- Created with Inkscape (http://www.inkscape.org/) -->

<svg
   version="1.1"
   id="svg1527"
   width="162"
   height="162"
   viewBox="0 0 162 162"
   sodipodi:docname="add_list_type_device_7121.svg"
   inkscape:version="1.1.1 (3bf5ae0d25, 2021-09-20)"
   xmlns:inkscape="http://www.inkscape.org/namespaces/inkscape"
   xmlns:sodipodi="http://sodipodi.sourceforge.net/DTD/sodipodi-0.dtd"
   xmlns="http://www.w3.org/2000/svg"
   xmlns:svg="http://www.w3.org/2000/svg">
  <defs
     id="defs1531" />
  <sodipodi:namedview
     id="namedview1529"
     pagecolor="#505050"
     bordercolor="#ffffff"
     borderopacity="1"
     inkscape:pageshadow="0"
     inkscape:pageopacity="0"
     inkscape:pagecheckerboard="1"
     showgrid="false"
     inkscape:zoom="4.0864198"
     inkscape:cx="81.122356"
     inkscape:cy="81"
     inkscape:window-width="1440"
     inkscape:window-height="890"
     inkscape:window-x="-6"
     inkscape:window-y="-6"
     inkscape:window-maximized="1"
     inkscape:current-layer="g1533" />
  <g
     inkscape:groupmode="layer"
     inkscape:label="Image"
     id="g1533">
    <g
       id="g1537"
       transform="translate(12.480363,-3.6706953)">
      <path
         style="fill:#d0d0d0;fill-opacity:1"
         d="m 29.510081,152.98369 c 0.345464,-0.55897 1.047021,-0.75742 1.559017,-0.44098 1.387044,0.85723 1.128411,1.45729 -0.628115,1.45729 -0.857459,0 -1.276365,-0.45734 -0.930902,-1.01631 z M 21.872445,145.25 c -1.243871,-1.58606 -1.208501,-1.62143 0.377555,-0.37756 0.9625,0.75485 1.75,1.54235 1.75,1.75 0,0.82304 -0.821186,0.29331 -2.127555,-1.37244 z M 14.157895,138 c 0,-1.375 0.226973,-1.9375 0.504386,-1.25 0.277412,0.6875 0.277412,1.8125 0,2.5 -0.277413,0.6875 -0.504386,0.125 -0.504386,-1.25 z m 31,0 c 0,-1.375 0.226973,-1.9375 0.504386,-1.25 0.277412,0.6875 0.277412,1.8125 0,2.5 -0.277413,0.6875 -0.504386,0.125 -0.504386,-1.25 z m 74.128115,-3.5 c 0.008,-2.75 0.20172,-3.75631 0.43157,-2.23625 0.22986,1.52006 0.22371,3.77006 -0.0136,5 -0.23736,1.22994 -0.42542,-0.0137 -0.41792,-2.76375 z M 28.75,122.33772 c 0.6875,-0.27741 1.8125,-0.27741 2.5,0 0.6875,0.27741 0.125,0.50439 -1.25,0.50439 -1.375,0 -1.9375,-0.22698 -1.25,-0.50439 z M 44.309869,65.5 c 0.0056,-3.3 0.192301,-4.529441 0.414862,-2.732091 0.222562,1.79735 0.217969,4.49735 -0.0102,6 C 44.486352,70.270559 44.304256,68.8 44.309869,65.5 Z m 76.000001,-4 c 0.006,-3.3 0.1923,-4.529441 0.41486,-2.732091 0.22256,1.79735 0.21797,4.49735 -0.0102,6 C 120.48635,66.270559 120.30426,64.8 120.30987,61.5 Z M 82.015313,21.313358 C 82.006891,20.660706 80.5375,19.945222 78.75,19.723396 76.80386,19.481882 77.706531,19.287542 81,19.238984 c 3.025,-0.0446 4.825,0.175859 4,0.489907 -0.825,0.314049 -1.830609,1.066022 -2.234687,1.671053 -0.51849,0.776342 -0.739194,0.750862 -0.75,-0.08659 z"
         id="path1553" />
      <path
         style="fill:#b9b9b9;fill-opacity:1"
         d="m 26.8125,153.31689 c 0.721875,-0.28887 1.584375,-0.25335 1.916667,0.0789 0.332291,0.33229 -0.258334,0.56864 -1.3125,0.52522 -1.164943,-0.048 -1.4019,-0.28494 -0.604167,-0.60416 z M 19.157895,138 c 0,-1.375 0.226973,-1.9375 0.504386,-1.25 0.277412,0.6875 0.277412,1.8125 0,2.5 -0.277413,0.6875 -0.504386,0.125 -0.504386,-1.25 z m 21,0 c 0,-1.375 0.226973,-1.9375 0.504386,-1.25 0.277412,0.6875 0.277412,1.8125 0,2.5 -0.277413,0.6875 -0.504386,0.125 -0.504386,-1.25 z m 79.141765,-13 c 0,-3.025 0.18747,-4.2625 0.41659,-2.75 0.22913,1.5125 0.22913,3.9875 0,5.5 -0.22912,1.5125 -0.41659,0.275 -0.41659,-2.75 z M 28.75,127.33772 c 0.6875,-0.27741 1.8125,-0.27741 2.5,0 0.6875,0.27741 0.125,0.50439 -1.25,0.50439 -1.375,0 -1.9375,-0.22698 -1.25,-0.50439 z M 44.272364,56 c 0,-2.475 0.195016,-3.4875 0.433369,-2.25 0.238353,1.2375 0.238353,3.2625 0,4.5 -0.238353,1.2375 -0.433369,0.225 -0.433369,-2.25 z m 75.999996,-4 c 0,-2.475 0.19502,-3.4875 0.43337,-2.25 0.23836,1.2375 0.23836,3.2625 0,4.5 -0.23835,1.2375 -0.43337,0.225 -0.43337,-2.25 z"
         id="path1551" />
      <path
         style="fill:#a3a3a3;fill-opacity:1"
         d="M 20.639086,159.51763 C 14.440861,156.53036 11.535021,153.72843 8.7814143,148.084 3.0648701,136.36602 7.955827,122.61612 19.916005,116.78141 c 6.43593,-3.13973 13.407467,-3.21167 19.62187,-0.20249 2.729169,1.32154 5.049969,2.40691 5.157334,2.41194 0.107365,0.005 0.372729,-1.90336 0.589699,-4.24086 l 0.394491,-4.25 -0.01831,4.51209 c -0.01414,3.48418 0.693245,5.49437 3.105112,8.82385 1.717884,2.37147 3.65261,6.67641 4.299391,9.56654 4.064178,18.16066 -15.776569,34.1397 -32.426503,26.11515 z m 18.67803,-8.81034 c 9.742227,-7.43076 8.195732,-21.91433 -2.902237,-27.18066 -10.666761,-5.06171 -23.487881,4.26137 -22.152531,16.10856 1.361734,12.08127 15.525471,18.34045 25.054768,11.0721 z M 28,151.34639 C 28,150.4369 26.2,148.03103 24,146 20.545597,142.81091 20,141.73018 20,138.07669 20,132.14837 24.116804,128 30,128 c 11.871418,0 13.681306,16.08957 2.581559,22.94959 C 28.567346,153.43051 28,153.47965 28,151.34639 Z M 119.30987,114.5 c 0.006,-3.3 0.1923,-4.52944 0.41486,-2.73209 0.22256,1.79735 0.21797,4.49735 -0.0102,6 -0.22818,1.50265 -0.41027,0.0321 -0.40466,-3.26791 z m -75.023856,-67 c 0.0075,-2.75 0.201713,-3.756313 0.431567,-2.23625 0.229855,1.520062 0.223712,3.770062 -0.01365,5 C 44.466569,51.493687 44.278507,50.25 44.286014,47.5 Z M 120.27236,44 c 0,-2.475 0.19502,-3.4875 0.43337,-2.25 0.23836,1.2375 0.23836,3.2625 0,4.5 -0.23835,1.2375 -0.43337,0.225 -0.43337,-2.25 z M 101.07895,28.416667 c 0.048,-1.164943 0.28494,-1.4019 0.60416,-0.604167 0.28887,0.721875 0.25335,1.584375 -0.0789,1.916667 -0.3323,0.332291 -0.56864,-0.258334 -0.52522,-1.3125 z M 71.269032,19.307009 c 0.972967,-0.253543 2.322967,-0.236869 3,0.03705 C 74.946064,19.617986 74.15,19.825431 72.5,19.805051 70.85,19.784672 70.296064,19.560553 71.269032,19.307009 Z m 21.543468,0.0099 c 0.721875,-0.288871 1.584375,-0.253344 1.916667,0.07895 0.332291,0.332292 -0.258334,0.568641 -1.3125,0.52522 -1.164943,-0.04798 -1.4019,-0.284941 -0.604167,-0.604167 z m -12.54875,-1.03449 c 1.520062,-0.229855 3.770062,-0.223712 5,0.01365 1.229937,0.237362 -0.01375,0.425424 -2.76375,0.417917 -2.75,-0.0075 -3.756313,-0.201713 -2.23625,-0.431567 z"
         id="path1549" />
      <path
         style="fill:#8c8c8c;fill-opacity:1"
         d="m 79.767909,150.27527 c 1.79735,-0.22256 4.49735,-0.21797 6,0.0102 1.50265,0.22818 0.03209,0.41027 -3.267909,0.40466 -3.3,-0.006 -4.529441,-0.1923 -2.732091,-0.41486 z M 45.320074,104 c 0,-3.575 0.181495,-5.0375 0.403322,-3.25 0.221826,1.7875 0.221826,4.7125 0,6.5 -0.221827,1.7875 -0.403322,0.325 -0.403322,-3.25 z m 73.989796,-0.5 c 0.006,-3.3 0.1923,-4.529441 0.41486,-2.73209 0.22256,1.79735 0.21797,4.49735 -0.0102,6 -0.22818,1.50265 -0.41027,0.0321 -0.40466,-3.26791 z M 44.299664,38 c 0,-3.025 0.187466,-4.2625 0.41659,-2.75 0.229125,1.5125 0.229125,3.9875 0,5.5 -0.229124,1.5125 -0.41659,0.275 -0.41659,-2.75 z m 75.986346,-2.5 c 0.008,-2.75 0.20172,-3.756313 0.43157,-2.23625 0.22986,1.520062 0.22371,3.770062 -0.0136,5 C 120.46657,39.493687 120.27851,38.25 120.28601,35.5 Z M 73,30.059017 c 0,-0.517541 0.444846,-1.215913 0.988546,-1.551938 0.56686,-0.350339 0.734507,0.05106 0.393011,0.940983 C 73.716766,31.180479 73,31.497449 73,30.059017 Z m 5.564293,-0.765889 c -0.542685,-1.425198 -0.427821,-1.540062 0.559795,-0.559795 0.683418,0.678334 0.990671,1.485241 0.682784,1.793128 -0.307887,0.307888 -0.867048,-0.247112 -1.242579,-1.233333 z m 12,0 c -0.542685,-1.425198 -0.427821,-1.540062 0.559795,-0.559795 0.683418,0.678334 0.990671,1.485241 0.682784,1.793128 -0.307887,0.307888 -0.867048,-0.247112 -1.242579,-1.233333 z M 62.015313,27.309017 C 62.006891,25.553976 62.45,23.839919 63,23.5 c 1.281681,-0.792122 1.281681,3.516741 0,5.5 -0.737613,1.141375 -0.973035,0.737089 -0.984687,-1.690983 z M 101.75688,28 c -1.10559,-3.788503 -0.96995,-5.613069 0.3213,-4.321822 0.593,0.592997 0.92745,2.370497 0.74322,3.95 L 102.48645,30.5 Z M 59.157895,26 c 0,-1.375 0.226973,-1.9375 0.504386,-1.25 0.277412,0.6875 0.277412,1.8125 0,2.5 -0.277413,0.6875 -0.504386,0.125 -0.504386,-1.25 z m 7.037054,-0.5 c 0.02038,-1.65 0.244498,-2.203936 0.498042,-1.230968 0.253543,0.972967 0.236869,2.322967 -0.03705,3 C 66.382014,27.946064 66.174569,27.15 66.194949,25.5 Z m 7.263932,0.433469 c -0.362533,-0.586592 -0.444683,-1.281 -0.182555,-1.543128 0.262128,-0.262129 0.743066,0.21781 1.068751,1.066531 0.676184,1.762107 0.09985,2.072058 -0.886196,0.476597 z m 3.876952,-0.500686 c -0.330769,-0.86197 -0.204146,-1.96447 0.281384,-2.45 C 78.127594,22.472406 78.5,23.133544 78.5,24.55 c 0,2.83891 -0.320322,3.081809 -1.164167,0.882783 z m 4.55454,1.483884 c -0.57399,-2.181595 -0.49531,-6.895475 0.09904,-5.933795 0.598452,0.968315 0.876257,0.941827 1.255578,-0.119719 0.267902,-0.749734 0.428381,0.06834 0.356621,1.817943 -0.108462,2.644458 -1.33265,5.674501 -1.711239,4.235571 z m 4.67392,-1.209795 c 0.375531,-0.986221 0.934692,-1.541221 1.242579,-1.233333 0.307887,0.307887 6.34e-4,1.114794 -0.682784,1.793128 -0.987616,0.980267 -1.10248,0.865403 -0.559795,-0.559795 z m 3.007709,-0.379833 c -0.350662,-0.913811 -0.146154,-2.148726 0.454461,-2.744256 0.787652,-0.780983 0.888786,-0.549289 0.362844,0.831262 -0.508933,1.335903 -0.375802,1.695642 0.440754,1.190983 C 91.473528,24.207344 92,24.331966 92,24.881966 c 0,1.813467 -1.777839,2.139361 -2.427998,0.445073 z m 15.506948,0.08963 c 0.048,-1.164943 0.28494,-1.4019 0.60416,-0.604167 0.28887,0.721875 0.25335,1.584375 -0.0789,1.916667 -0.3323,0.332291 -0.56864,-0.258334 -0.52522,-1.3125 z m -7.000003,-1 c 0.04798,-1.164943 0.284941,-1.4019 0.604167,-0.604167 0.288871,0.721875 0.253344,1.584375 -0.07895,1.916667 -0.332292,0.332291 -0.568641,-0.258334 -0.52522,-1.3125 z M 74.75,18.337719 c 0.6875,-0.277412 1.8125,-0.277412 2.5,0 0.6875,0.277413 0.125,0.504386 -1.25,0.504386 -1.375,0 -1.9375,-0.226973 -1.25,-0.504386 z M 86.470427,17.95215 c -0.356184,-0.576317 -1.395241,-0.974498 -2.309017,-0.884846 -4.11452,0.403685 -4.888345,-0.04492 -4.408389,-2.555649 0.558639,-2.922331 2.195281,-2.370064 2.36298,0.797362 C 82.22328,17.335256 82.268175,17.349616 82.713066,15.5 83.470962,12.349078 85,11.283996 85,13.906989 c 0,1.603779 0.441702,2.137492 1.449072,1.750927 0.94053,-0.360915 1.264642,-0.07544 0.923546,0.813442 -0.330399,0.861005 0.338286,1.534132 1.800927,1.81289 2.241093,0.427119 2.246064,0.448385 0.135472,0.57957 -1.205041,0.0749 -2.482406,-0.33535 -2.83859,-0.911668 z"
         id="path1547" />
      <path
         style="fill:#767676;fill-opacity:1"
         d="m 59,138 c 0,-0.55 0.45,-1 1,-1 0.55,0 1,0.45 1,1 0,0.55 -0.45,1 -1,1 -0.55,0 -1,-0.45 -1,-1 z m 45.5,0 c 0.33992,-0.55 0.81648,-1 1.05902,-1 0.24254,0 0.44098,0.45 0.44098,1 0,0.55 -0.47656,1 -1.05902,1 -0.58246,0 -0.7809,-0.45 -0.44098,-1 z M 56,137 c 0,-0.55 0.476558,-1 1.059017,-1 0.582459,0 0.780902,0.45 0.440983,1 -0.339919,0.55 -0.816476,1 -1.059017,1 C 56.198442,138 56,137.55 56,137 Z m 51.5,0 c 0.33992,-0.55 0.81648,-1 1.05902,-1 0.24254,0 0.44098,0.45 0.44098,1 0,0.55 -0.47656,1 -1.05902,1 -0.58246,0 -0.7809,-0.45 -0.44098,-1 z M 59,119.72568 c 0,-2.5342 0.444572,-4.88241 0.987937,-5.21822 0.62986,-0.38928 0.760023,1.12974 0.359122,4.19098 C 59.518675,125.0239 59,125.41943 59,119.72568 Z M 56,117.5 c 0,-2.65833 0.324137,-4.5092 0.720304,-4.11303 0.717827,0.71783 0.459826,7.73764 -0.313495,8.5297 C 56.183064,122.14583 56,120.15833 56,117.5 Z m 10.030626,1.5 c 0,-0.825 0.436218,-2.175 0.969374,-3 0.861666,-1.33333 0.969374,-1.33333 0.969374,0 0,0.825 -0.436218,2.175 -0.969374,3 -0.861666,1.33333 -0.969374,1.33333 -0.969374,0 z m 11.663984,0.36128 c -0.382035,-0.38204 -0.687719,-1.40711 -0.679297,-2.27795 C 77.028731,115.6959 77.150563,115.68559 78,117 c 0.798169,1.23508 0.972079,1.2498 0.984687,0.0833 0.0084,-0.77916 0.281562,-1.15041 0.606977,-0.825 0.325415,0.32542 0.187989,1.31299 -0.30539,2.19461 -0.49338,0.88162 -1.209628,1.29037 -1.591664,0.90834 z m 3.921015,-0.92056 c -0.364486,-0.94984 -0.42711,-1.96257 -0.139164,-2.25051 0.287947,-0.28795 0.53043,0.11396 0.538852,0.89312 0.01261,1.16647 0.186518,1.15175 0.984687,-0.0833 0.533156,-0.825 0.969374,-1.05 0.969374,-0.5 0,0.55 -0.380485,1.60023 -0.845523,2.33385 -0.670157,1.05719 -0.982973,0.97566 -1.508226,-0.39313 z m 4,0 c -0.364486,-0.94984 -0.42711,-1.96257 -0.139164,-2.25051 0.287947,-0.28795 0.53043,0.11396 0.538852,0.89312 0.01261,1.16647 0.186518,1.15175 0.984687,-0.0833 0.533156,-0.825 0.969374,-1.05 0.969374,-0.5 0,0.55 -0.380485,1.60023 -0.845523,2.33385 -0.670157,1.05719 -0.982973,0.97566 -1.508226,-0.39313 z m 12.463322,0.89107 c -0.04342,-0.64252 -0.337924,-1.99252 -0.654452,-3 -0.547051,-1.74122 -0.518831,-1.7434 0.570774,-0.0441 0.630454,0.98322 0.924958,2.33322 0.654453,3 -0.354977,0.87499 -0.513794,0.88727 -0.570775,0.0441 z m -35.504741,-1.99901 c -0.351874,-0.91697 -0.287519,-2.01901 0.143011,-2.44897 0.430531,-0.42997 0.847679,0.32028 0.926996,1.66721 0.168467,2.86085 -0.175696,3.1123 -1.070007,0.78176 z m 10.884675,0.60069 c -0.362533,-0.58659 -0.444683,-1.281 -0.182555,-1.54313 0.262128,-0.26213 0.743066,0.21781 1.068751,1.06653 0.676184,1.76211 0.09985,2.07206 -0.886196,0.4766 z m 15.955709,-0.0717 c -0.431292,-0.69784 -0.291725,-0.9039 0.345491,-0.51008 0.588004,0.36341 1.297007,0.0954 1.575561,-0.59549 0.362499,-0.89914 0.528904,-0.91769 0.585411,-0.0653 0.114073,1.72088 -1.655607,2.54754 -2.506463,1.17082 z m 15.70141,0.46999 c -0.0638,-0.64252 -0.40723,-1.99252 -0.76318,-3 -0.50214,-1.42127 -0.36907,-1.57546 0.59378,-0.68801 0.68253,0.62908 1.02596,1.97908 0.76318,3 -0.26278,1.02092 -0.52998,1.33052 -0.59378,0.68801 z M 101,117.11803 c 0,-0.55 0.45,-1.27811 1,-1.61803 0.55,-0.33992 1,-0.16803 1,0.38197 0,0.55 -0.45,1.27811 -1,1.61803 -0.55,0.33992 -1,0.16803 -1,-0.38197 z M 108.19495,115.5 c 0.0204,-1.65 0.2445,-2.20394 0.49804,-1.23097 0.25354,0.97297 0.23687,2.32297 -0.037,3 C 108.38206,117.94606 108.17462,117.15 108.195,115.5 Z M 45.320074,92 c 0,-3.575 0.181495,-5.0375 0.403322,-3.25 0.221826,1.7875 0.221826,4.7125 0,6.5 -0.221827,1.7875 -0.403322,0.325 -0.403322,-3.25 z m 73.999996,0 c 0,-3.575 0.1815,-5.0375 0.40333,-3.25 0.22182,1.7875 0.22182,4.7125 0,6.5 -0.22183,1.7875 -0.40333,0.325 -0.40333,-3.25 z M 81.8125,50.316886 c 0.721875,-0.288871 1.584375,-0.253344 1.916667,0.07895 0.332291,0.332292 -0.258334,0.568641 -1.3125,0.52522 -1.164943,-0.04798 -1.4019,-0.284941 -0.604167,-0.604167 z M 44.272364,29 c 0,-2.475 0.195016,-3.4875 0.433369,-2.25 0.238353,1.2375 0.238353,3.2625 0,4.5 C 44.46738,32.4875 44.272364,31.475 44.272364,29 Z M 98.5,28.5 c 0,-1.269959 0.3375,-2.100431 0.75,-1.845492 0.4125,0.25494 0.75,1.085411 0.75,1.845492 0,0.760081 -0.3375,1.590552 -0.75,1.845492 C 98.8375,30.600431 98.5,29.769959 98.5,28.5 Z M 120.232,28 c 0,-1.925 0.2058,-2.7125 0.45733,-1.75 0.25152,0.9625 0.25152,2.5375 0,3.5 C 120.4378,30.7125 120.232,29.925 120.232,28 Z M 56.157895,27 c 0,-1.375 0.226973,-1.9375 0.504386,-1.25 0.277412,0.6875 0.277412,1.8125 0,2.5 -0.277413,0.6875 -0.504386,0.125 -0.504386,-1.25 z m 14.004613,1.121597 c -0.735621,-0.466277 -1.185621,-1.921887 -1,-3.234687 0.355236,-2.512402 2.040957,-2.967216 2.638623,-0.71191 0.232543,0.877504 -0.0071,0.818401 -0.709687,-0.175 -0.891129,-1.260058 -1.063268,-1.172079 -1.076131,0.55 -0.0084,1.1275 0.524687,2.59 1.184687,3.25 1.390285,1.390285 0.892131,1.544701 -1.037492,0.321597 z M 73,27.440983 c 0,-0.857459 0.45734,-1.276365 1.016312,-0.930902 0.558971,0.345464 0.757414,1.047021 0.440983,1.559017 C 73.600055,29.456142 73,29.197509 73,27.440983 Z m 4,0 c 0,-0.857459 0.45734,-1.276365 1.016312,-0.930902 0.558971,0.345464 0.757414,1.047021 0.440983,1.559017 C 77.600055,29.456142 77,29.197509 77,27.440983 Z m 4.70233,0.225684 c -0.281407,-0.733334 0.07755,-1.333334 0.79767,-1.333334 0.720125,0 1.079077,0.6 0.79767,1.333334 -0.642972,1.675559 -0.952368,1.675559 -1.59534,0 z M 86,28.059017 c 0,-0.517541 0.45,-1.219098 1,-1.559017 0.55,-0.339919 1,0.08352 1,0.940983 C 88,28.298442 87.55,29 87,29 86.45,29 86,28.576558 86,28.059017 Z m 3,0.396761 C 89,28.339789 89.675,27.684689 90.5,27 c 1.216507,-1.009611 1.5,-0.969754 1.5,0.210889 0,0.800678 -0.675,1.455778 -1.5,1.455778 -0.825,0 -1.5,-0.0949 -1.5,-0.210889 z m 4.976861,-1.412542 C 95.388929,24.404763 95.334586,21.983589 93.908556,24 c -0.702545,0.993401 -0.94223,1.052504 -0.709687,0.175 0.624453,-2.356386 2.292444,-1.749909 2.605226,0.947253 0.194252,1.675054 -0.265626,2.840875 -1.273139,3.227494 -1.28646,0.493662 -1.388612,0.252797 -0.554095,-1.306511 z M 108.15789,26 c 0,-1.375 0.22698,-1.9375 0.50439,-1.25 0.27741,0.6875 0.27741,1.8125 0,2.5 -0.27741,0.6875 -0.50439,0.125 -0.50439,-1.25 z M 71.8125,18.316886 c 0.721875,-0.288871 1.584375,-0.253344 1.916667,0.07895 0.332291,0.332292 -0.258334,0.568641 -1.3125,0.52522 -1.164943,-0.04798 -1.4019,-0.284941 -0.604167,-0.604167 z m 6.465645,-1.438741 c -0.61702,-0.61702 -0.855548,-1.815841 -0.530061,-2.664045 0.420317,-1.095328 0.208024,-1.305007 -0.732654,-0.723636 -0.887821,0.548704 -1.085898,0.432573 -0.60084,-0.352267 C 77.398563,11.546095 79,12.690459 79,14.985693 c 0,1.027212 0.7875,2.073454 1.75,2.324981 1.343907,0.3512 1.390317,0.484242 0.2,0.573325 -0.8525,0.0638 -2.054835,-0.388834 -2.671855,-1.005854 z m 5.534355,0.438741 c 0.721875,-0.288871 1.584375,-0.253344 1.916667,0.07895 0.332291,0.332292 -0.258334,0.568641 -1.3125,0.52522 -1.164943,-0.04798 -1.4019,-0.284941 -0.604167,-0.604167 z m 2.730205,-1.247788 c -0.316431,-0.511996 -0.192988,-1.167201 0.274316,-1.456011 0.467305,-0.28881 0.849646,0.130095 0.849646,0.930902 0,1.686167 -0.315337,1.833491 -1.123962,0.525109 z"
         id="path1545" />
      <path
         style="fill:#606060;fill-opacity:1"
         d="m 66.075256,131.06006 c -0.09387,-5.44828 -0.567794,-11.29064 -1.05316,-12.98302 C 64.48773,116.21382 64.50655,115 65.069806,115 c 0.511607,0 0.937085,1.2375 0.945507,2.75 0.01197,2.14973 0.228613,2.42258 0.992497,1.25 0.662715,-1.01728 0.926653,2.1341 0.820163,9.79266 -0.08636,6.21097 -0.47765,11.49083 -0.86953,11.73302 -0.391881,0.2422 -0.789315,-4.01733 -0.883187,-9.46562 z m 3.851125,9.68994 c -0.400623,-1.36047 -0.68141,-23.92994 -0.286065,-22.99377 0.291777,0.69093 0.82957,1.07122 1.195094,0.84509 0.365525,-0.22614 0.66459,4.72008 0.66459,10.99158 0,6.2715 -0.3375,11.40372 -0.75,11.40492 -0.4125,0.001 -0.783128,-0.11032 -0.823619,-0.24782 z m 4.261043,0.0356 c -0.513585,-1.95765 -0.930764,-22.86226 -0.446584,-22.37808 0.308774,0.30877 1.201772,-0.2191 1.984441,-1.17305 0.782668,-0.95395 1.052163,-1.05946 0.598876,-0.23446 -0.453286,0.825 -1.077316,6.675 -1.386733,13 -0.309417,6.325 -0.646917,11.17852 -0.75,10.78559 z M 78.171703,132.5 c -0.109457,-4.95 -0.488753,-10.08287 -0.842881,-11.40637 -0.419044,-1.56612 -0.276276,-2.17919 0.40887,-1.75575 0.579006,0.35785 1.357031,-0.13428 1.728943,-1.09362 0.640377,-1.65184 0.745631,-1.64998 1.986518,0.0351 1.256162,1.70585 1.338816,1.70585 2,0 0.659341,-1.7011 0.748101,-1.70006 2.017266,0.0236 0.981489,1.33298 1.450598,1.46332 1.799473,0.5 0.527075,-1.45537 -0.239404,12.12058 -0.773313,13.697 -0.186276,0.55 -0.381101,-1.925 -0.432944,-5.5 -0.160477,-11.06616 -2.88421,-11.63075 -3.223672,-0.66821 -0.115254,3.72199 -0.257931,4.18881 -0.50987,1.66821 -1.344343,-13.44986 -2.64222,-12.55954 -3.394735,2.32874 L 78.370716,141.5 Z m 3.986192,6.5 c 0,-1.375 0.226973,-1.9375 0.504386,-1.25 0.277412,0.6875 0.277412,1.8125 0,2.5 -0.277413,0.6875 -0.504386,0.125 -0.504386,-1.25 z m 4.094288,-1.5 c 0.0111,-2.2 0.215885,-2.98225 0.455078,-1.73834 0.239193,1.24391 0.230112,3.04391 -0.02018,4 C 86.436788,140.71775 86.241084,139.7 86.252183,137.5 Z m 3.512002,2.75 c -0.194617,-0.4125 -0.06003,-2.55 0.299078,-4.75 0.424872,-2.60288 0.70726,-3.1268 0.808486,-1.5 0.08556,1.375 0.4269,3.5125 0.758537,4.75 0.551781,2.05896 -1.010068,3.3144 -1.866101,1.5 z m 4.21166,0.55902 c -0.431395,-5.51877 -0.287046,-22.50351 0.188745,-22.20856 0.365524,0.2266 0.892498,-0.1533 1.171052,-0.84423 0.278555,-0.69093 0.54199,4.00471 0.585411,10.43475 0.04595,6.80459 -0.339016,11.9493 -0.921053,12.30902 -0.55,0.33992 -1.01087,0.47898 -1.024155,0.30902 z M 62.030626,128.5 c 0,-8.11218 0.314062,-11.51402 0.969374,-10.5 0.533156,0.825 0.969374,5.55 0.969374,10.5 0,4.95 -0.436218,9.675 -0.969374,10.5 -0.655312,1.01402 -0.969374,-2.38782 -0.969374,-10.5 z M 97.5,128.43138 c 0,-6.24908 0.305872,-10.59008 0.679715,-9.64667 0.925025,2.33434 0.969585,18.43447 0.05497,19.86196 C 97.830609,139.27734 97.5,134.68046 97.5,128.43138 Z m 3.57001,0.65608 c -0.0994,-6.69187 0.24251,-11.16257 0.88396,-11.55901 0.705,-0.43571 1.04603,3.12208 1.04603,10.91253 0,6.35746 -0.39778,11.55902 -0.88396,11.55902 -0.48618,0 -0.95689,-4.91064 -1.04603,-10.91254 z m 3.00028,-2.27844 c 0.0451,-7.24965 0.37877,-10.59112 0.92971,-9.30902 1.21027,2.81645 1.21027,19.25201 0,20 -0.64565,0.39903 -0.97509,-3.3893 -0.92971,-10.69098 z m -48.284851,3.83521 C 56.004206,127.2649 56.539371,122.25 56.974696,119.5 c 0.671585,-4.24249 0.809209,-3.38757 0.908401,5.64301 0.08702,7.92206 -0.217024,10.77115 -1.189256,11.14423 -1.01259,0.38857 -1.216761,-0.87974 -0.908402,-5.64301 z m 3.288684,0.60577 c 0.04077,-3.1625 0.434443,-7.775 0.874834,-10.25 0.661295,-3.71649 0.822503,-2.71533 0.925876,5.75 C 60.951156,133.00011 60.609767,137 60,137 c -0.559319,0 -0.967335,-2.53392 -0.925877,-5.75 z M 107.5,124.91781 c 0,-6.46174 0.40965,-12.12419 0.91033,-12.58322 0.50681,-0.46464 0.66628,-0.39133 0.35976,0.16541 -0.30281,0.55 -0.26246,6.21283 0.0897,12.58406 0.41358,7.48306 0.28622,11.58376 -0.35976,11.58321 -0.60987,-5.1e-4 -1,-4.58429 -1,-11.74946 z m 3.12231,9.80168 C 109.8115,131.69498 110.0244,114.75435 110.9581,108 c 0.60826,-4.40015 0.82719,-2.5004 1.09477,9.5 l 0.33446,15 0.61267,-10 0.61267,-10 0.38508,8 0.38508,8 L 115,119 c 0.61225,-9.42426 0.62039,-9.44818 1.02182,-3 0.25057,4.02499 0.63047,0.0269 0.99771,-10.5 l 0.59306,-17 0.0867,19.5 c 0.10671,24.01586 -0.11306,25.64552 -3.70933,27.50522 -2.60116,1.34511 -2.80939,1.29653 -3.3676,-0.78573 z M 53.75,133.42927 C 53.3375,133.00984 53,131.90938 53,130.98381 c 0,-0.92556 -1.341811,-3.66306 -2.981803,-6.08333 L 47.036395,120.5 47.018197,102.69098 C 47.008189,92.896024 46.629797,85.110764 46.177327,85.390406 45.428625,85.853129 45.677916,33.501791 46.44109,30 c 0.179799,-0.825 0.479075,9.075 0.665057,22 L 47.444298,75.5 48,52 48.555702,28.5 48.902851,52.25 C 49.093783,65.3125 49.3625,76.45 49.5,77 c 0.1375,0.55 0.399872,8.5375 0.58305,17.75 L 50.416099,111.5 51,97 51.583901,82.5 51.79195,96.690983 C 51.918238,105.30504 51.607009,111.12485 51,111.5 c -0.55,0.33992 -0.921382,2.72898 -0.825293,5.30902 L 50.349414,121.5 50.88992,117 c 0.500197,-4.16441 0.585595,-3.94069 1.145134,3 0.355352,4.40789 0.743799,-4.45616 0.942188,-21.5 l 0.337558,-29 0.846212,30 c 0.881656,31.25658 0.833945,35.19515 -0.411012,33.92927 z M 48.74339,89.79375 C 48.553092,85.782188 48.396118,88.8 48.394557,96.5 c -0.0016,7.7 0.154138,10.98219 0.345996,7.29375 0.191858,-3.68844 0.193134,-9.988437 0.0028,-14 z M 90.001658,127 c -0.01593,-2.475 -0.280694,-5.4375 -0.58836,-6.58333 -0.393433,-1.46526 -0.0927,-2.08334 1.013655,-2.08334 1.226436,0 1.569673,1.12008 1.557734,5.08334 C 91.976265,126.2125 91.533156,129.175 91,130 c -0.705994,1.09245 -0.977245,0.27735 -0.998342,-3 z M 119.28601,81.5 c 0.008,-2.75 0.20172,-3.756313 0.43157,-2.23625 0.22986,1.520062 0.22371,3.770062 -0.0136,5 C 119.46657,85.493687 119.27851,84.25 119.28601,81.5 Z M 118.39739,60 c 0,-7.975 0.1553,-11.2375 0.34512,-7.25 0.18981,3.9875 0.18981,10.5125 0,14.5 -0.18982,3.9875 -0.34512,0.725 -0.34512,-7.25 z M 50.402488,39 c 0,-8.525 0.153369,-12.0125 0.34082,-7.75 0.187451,4.2625 0.187451,11.2375 0,15.5 -0.187451,4.2625 -0.34082,0.775 -0.34082,-7.75 z m 26.21187,11.052309 c 0.28805,-0.288051 3.011476,-0.611476 6.052057,-0.718724 3.040581,-0.107248 5.252884,0.08045 4.91623,0.417103 -0.336655,0.336655 -3.06008,0.660081 -6.052057,0.718724 -2.991977,0.05864 -5.204281,-0.129053 -4.91623,-0.417103 z M 75.564293,29.293128 c -0.542685,-1.425198 -0.427821,-1.540062 0.559795,-0.559795 0.683418,0.678334 0.990671,1.485241 0.682784,1.793128 -0.307887,0.307888 -0.867048,-0.247112 -1.242579,-1.233333 z m 3.984047,-0.140821 c -0.368668,-1.161572 -0.186682,-2.908529 0.404415,-3.882128 0.868798,-1.431001 0.960788,-1.19536 0.480099,1.229821 -0.453832,2.289686 -0.342324,2.644843 0.47095,1.5 1.274371,-1.793928 1.445561,-0.09997 0.190207,1.882128 -0.688652,1.087324 -1.018339,0.931655 -1.545671,-0.729821 z m 4.100652,0.375364 C 82.682911,27.010104 82.890132,26.302228 84.096196,28 c 0.816698,1.149662 0.936109,0.799325 0.511268,-1.5 -0.490678,-2.655644 -0.430279,-2.753501 0.526183,-0.852525 0.70656,1.404295 0.748923,2.739943 0.122411,3.859458 -0.896784,1.602464 -0.999592,1.60379 -1.607066,0.02074 z M 101.75,30.337719 c 0.6875,-0.277412 1.26368,-1.704386 1.28041,-3.171052 0.0267,-2.343798 0.15737,-2.448445 1.07899,-0.864309 1.13803,1.956114 -0.37207,4.766413 -2.48184,4.618695 -0.70849,-0.04961 -0.66298,-0.266409 0.12244,-0.583334 z M 55.015313,27.25 c 0.0084,-1.5125 0.417945,-3.386065 0.910052,-4.163478 0.599037,-0.946339 0.841844,-0.03936 0.734687,2.744343 -0.175606,4.561887 -1.669416,5.850796 -1.644739,1.419135 z M 58,26.559017 c 0,-1.892541 0.345782,-3.654688 0.768404,-3.915883 0.422622,-0.261195 0.600356,1.287248 0.394965,3.440983 C 58.702237,30.919535 58,31.206196 58,26.559017 Z m 48.16004,0.77277 c -0.088,-1.742516 -0.41902,-3.992516 -0.73555,-5 -0.54298,-1.728287 -0.51124,-1.731691 0.56176,-0.06023 0.62549,0.974353 0.95648,3.224353 0.73554,5 L 106.32007,30.5 Z m 2.29357,-1.268137 c -0.0255,-2.161504 0.31199,-3.708519 0.75,-3.437812 1.01059,0.624579 1.05308,7.375247 0.0464,7.370991 -0.4125,-0.0017 -0.77088,-1.771675 -0.79639,-3.933179 z M 53.232003,26 c 0,-1.925 0.205795,-2.7125 0.457323,-1.75 0.251527,0.9625 0.251527,2.5375 0,3.5 -0.251528,0.9625 -0.457323,0.175 -0.457323,-1.75 z m 57.838287,-0.25 c 0.0589,-2.723527 0.2095,-2.926017 0.92971,-1.25 1.18717,2.762702 1.18717,4.5 0,4.5 -0.55,0 -0.96837,-1.4625 -0.92971,-3.25 z M 114.232,26 c 0,-1.925 0.2058,-2.7125 0.45733,-1.75 0.25152,0.9625 0.25152,2.5375 0,3.5 C 114.4378,28.7125 114.232,27.925 114.232,26 Z m -47.074105,0 c 0,-1.375 0.226973,-1.9375 0.504386,-1.25 0.277412,0.6875 0.277412,1.8125 0,2.5 -0.277413,0.6875 -0.504386,0.125 -0.504386,-1.25 z m 3.921052,0.416667 c 0.04798,-1.164943 0.284941,-1.4019 0.604167,-0.604167 0.288871,0.721875 0.253344,1.584375 -0.07895,1.916667 -0.332292,0.332291 -0.568641,-0.258334 -0.52522,-1.3125 z m 22,0 c 0.04798,-1.164943 0.284941,-1.4019 0.604167,-0.604167 0.288871,0.721875 0.253344,1.584375 -0.07895,1.916667 -0.332292,0.332291 -0.568641,-0.258334 -0.52522,-1.3125 z M 97.157895,26 c 0,-1.375 0.226973,-1.9375 0.504386,-1.25 0.277412,0.6875 0.277412,1.8125 0,2.5 -0.277413,0.6875 -0.504386,0.125 -0.504386,-1.25 z M 65.315355,25.078328 C 65.41691,23.746408 66.175,22.474649 67,22.252197 67.991104,21.984956 68.115167,22.128015 67.365682,22.673869 66.741807,23.128241 65.983717,24.4 65.681037,25.5 65.247104,27.077003 65.169762,26.98782 65.315355,25.078328 Z M 75,24.5 c 0,-1.724294 -0.394124,-2.374452 -1.154508,-1.904508 -0.763093,0.471616 -0.880858,0.270749 -0.347357,-0.592474 0.63021,-1.019702 1.102515,-0.902066 2.154508,0.536621 C 77.259869,24.737651 77.341712,25.670777 76,26.5 c -0.569401,0.351909 -1,-0.509288 -1,-2 z m 24.116001,0.190983 C 99.050111,23.095416 98.568016,22.148947 98,22.5 c -0.55,0.339919 -1,0.141476 -1,-0.440983 0,-1.571898 1.976901,-1.282787 2.615958,0.38257 0.304254,0.792872 0.342332,2.255372 0.08462,3.25 -0.300269,1.15886 -0.510238,0.79946 -0.584574,-1.000604 z M 44.157895,23 c 0,-1.375 0.226973,-1.9375 0.504386,-1.25 0.277412,0.6875 0.277412,1.8125 0,2.5 -0.277413,0.6875 -0.504386,0.125 -0.504386,-1.25 z m 76.037055,-0.5 c 0.0204,-1.65 0.2445,-2.203936 0.49804,-1.230968 0.25354,0.972967 0.23687,2.322967 -0.037,3 C 120.38201,24.946064 120.17457,24.15 120.19495,22.5 Z M 69.603006,21.833333 C 69.886271,21.375 70.541476,21 71.059017,21 71.576558,21 72,21.375 72,21.833333 c 0,0.458334 -0.655205,0.833334 -1.456011,0.833334 -0.800807,0 -1.224249,-0.375 -0.940983,-0.833334 z m 20.514866,0.260678 c -1.077448,-0.682397 -0.887536,-1.032342 0.861507,-1.587466 1.439733,-0.456954 2.758199,-0.197539 3.679747,0.72401 1.248149,1.248149 1.233555,1.436112 -0.111507,1.436112 C 93.696429,22.666667 93,22.291667 93,21.833333 93,21.375 92.523442,21 91.940983,21 91.358524,21 91.160081,21.45 91.5,22 c 0.752673,1.21785 0.42727,1.239984 -1.382128,0.09401 z M 73.494721,16.737108 c -0.822096,-0.460069 -1.48783,-1.376628 -1.479408,-2.036798 0.01061,-0.831852 0.274862,-0.790861 0.860836,0.133536 0.682146,1.07611 0.961713,1.031061 1.446833,-0.233141 0.348746,-0.908816 1.244832,-1.320045 2.13342,-0.979061 0.842661,0.323359 1.252044,1.041084 0.909739,1.594944 -0.342304,0.55386 -0.0079,1.386787 0.743136,1.850949 1.837723,1.135775 -2.556896,0.821095 -4.614556,-0.330429 z M 87.5,17 c 0.339919,-0.55 0.816476,-1 1.059017,-1 C 88.801558,16 89,16.45 89,17 89,17.55 88.523442,18 87.940983,18 87.358524,18 87.160081,17.55 87.5,17 Z m 1.690053,-1.562789 c -0.720471,-0.81463 -1.732971,-1.219703 -2.25,-0.900162 C 86.423024,14.856591 86,14.611152 86,13.991629 c 0,-1.342596 4.308442,-0.233692 4.871051,1.253708 0.204078,0.539533 0.800837,0.36755 1.326131,-0.382184 0.789539,-1.126882 0.88772,-1.113996 0.566449,0.07435 -0.548037,2.027124 -2.038395,2.235528 -3.573578,0.499711 z"
         id="path1543" />
      <path
         style="fill:#494949;fill-opacity:1"
         d="m 71.75,149.33772 c 0.6875,-0.27741 1.8125,-0.27741 2.5,0 0.6875,0.27741 0.125,0.50439 -1.25,0.50439 -1.375,0 -1.9375,-0.22698 -1.25,-0.50439 z m 19,0 c 0.6875,-0.27741 1.8125,-0.27741 2.5,0 0.6875,0.27741 0.125,0.50439 -1.25,0.50439 -1.375,0 -1.9375,-0.22698 -1.25,-0.50439 z M 115.5,142 c 0.99549,-1.1 2.03498,-2 2.30998,-2 0.275,0 -0.31449,0.9 -1.30998,2 -0.99549,1.1 -2.03498,2 -2.30998,2 -0.275,0 0.31449,-0.9 1.30998,-2 z m -42.220097,-1.35612 c -0.323906,-0.5241 -0.06939,-0.63181 0.565589,-0.23937 0.845142,0.52233 1.158611,-2.18289 1.169821,-10.09549 C 75.023735,124.36406 75.466844,118.825 76,118 c 1.148724,-1.77752 0.973823,-2.89477 1.956831,12.5 l 0.702387,11 0.185704,-10.5 c 0.269052,-15.21263 2.10641,-16.79421 3.485171,-3 0.234382,2.34494 0.407701,1.6849 0.525183,-2 0.347143,-10.88846 3.005236,-9.82133 3.317323,1.33179 L 86.345198,133.5 87.018881,127 c 0.579407,-5.59038 0.66021,-5.03061 0.577401,4 L 87.5,141.5 l -6.815588,0.0484 c -3.748574,0.0266 -7.080603,-0.38041 -7.404509,-0.9045 z M 82.662281,137.75 c -0.277413,-0.6875 -0.504386,-0.125 -0.504386,1.25 0,1.375 0.226973,1.9375 0.504386,1.25 0.277412,-0.6875 0.277412,-1.8125 0,-2.5 z m 4.04498,-1.98834 C 86.468068,134.51775 86.263283,135.3 86.252183,137.5 c -0.0111,2.2 0.184605,3.21775 0.434897,2.26166 0.250293,-0.95609 0.259374,-2.75609 0.02018,-4 z M 80.732205,126.75 c -0.210535,-2.3375 -0.382791,-0.425 -0.382791,4.25 0,4.675 0.172256,6.5875 0.382791,4.25 0.210535,-2.3375 0.210535,-6.1625 0,-8.5 z m 4,0 c -0.210535,-2.3375 -0.382791,-0.425 -0.382791,4.25 0,4.675 0.172256,6.5875 0.382791,4.25 0.210535,-2.3375 0.210535,-6.1625 0,-8.5 z m -20.851295,1.33519 c 0.445734,-14.72696 1.866504,-12.96937 2.01941,2.49814 0.07367,7.45226 -0.226486,10.08382 -1.15032,10.08519 -0.954029,0.001 -1.159809,-2.97803 -0.86909,-12.58333 z m 3.928961,-0.25158 C 68.070548,117.03743 67.885086,115 66.641659,115 65.828713,115 64.451771,114.72686 63.581787,114.39301 62.18871,113.85844 62,115.35846 62,126.96634 c 0,12.01385 -0.154875,13.15061 -1.75,12.84472 -1.541689,-0.29564 -1.783521,-1.87939 -2.031606,-13.30493 C 57.851283,109.59889 56.060489,107.38376 55.828556,123.55 L 55.657113,135.5 54.94669,122 C 54.555958,114.575 54.08101,99.725 53.891251,89 53.546933,69.539473 53.545129,69.558704 53,98.5 l -0.546234,29 L 52.018833,105 51.583901,82.5 51,97 50.416099,111.5 50.08305,94.75 C 49.899872,85.5375 49.6375,77.55 49.5,77 49.3625,76.45 49.093783,65.3125 48.902851,52.25 L 48.555702,28.5 48,52 47.444298,75.5 46.999491,52 46.554684,28.5 46,52.5 45.445316,76.5 45.222658,49.331787 c -0.122462,-14.942516 -0.490108,-27.992516 -0.81699,-29 -0.429312,-1.323178 -0.332698,-1.467219 0.347962,-0.518773 0.518261,0.722158 2.7517,1.397158 4.963196,1.5 L 53.737729,21.5 l -0.335178,4 c -0.313623,3.742756 0.01196,3.108751 1.155436,-2.25 0.264064,-1.2375 0.937376,-2.25 1.496249,-2.25 0.681609,0 0.675337,0.636781 -0.01905,1.934259 -2.391427,4.468421 -0.161332,10.010404 2.954605,7.342456 1.807695,-1.547797 1.568935,-8.740059 -0.252767,-7.614186 -0.575322,0.355569 -0.759717,0.183209 -0.409768,-0.383021 0.349949,-0.566229 1.881978,-1.020626 3.404509,-1.009771 1.52253,0.01085 2.205737,0.217105 1.518237,0.458333 -1.719988,0.603505 -1.616451,8.722913 0.129712,10.1721 1.149094,0.953663 1.294043,0.385012 0.867186,-3.402057 C 63.583896,22.615977 65.692248,20 71.095971,20 c 2.082297,0 4.093803,0.498043 4.470012,1.106763 0.476832,0.77153 0.944412,0.695806 1.543704,-0.25 C 77.582515,20.110543 77.969374,19.95 77.969374,20.5 c 0,0.55 -0.380485,1.600231 -0.845523,2.333846 -0.689339,1.087458 -0.950749,1.059634 -1.41517,-0.150628 -0.598559,-1.559821 -7.131483,-1.776014 -9.496634,-0.31427 -1.70816,1.055701 -1.510324,8.189918 0.276666,9.976908 1.258311,1.258311 1.536913,7.730845 1.800151,41.821428 L 68.600302,114.5 l -0.05015,-46 c -0.02758,-25.3 0.08822,-44.0875 0.257347,-41.75 0.419836,5.802649 2.937662,5.802649 3.460297,0 l 0.382791,-4.25 0.174707,4.25 c 0.159938,3.890715 0.407186,4.261513 2.924707,4.386182 2.495987,0.123603 2.53338,0.177364 0.404818,0.582024 -1.84612,0.350965 -2.221431,0.907193 -1.763654,2.613818 0.31984,1.192387 0.587671,4.980476 0.595181,8.417976 0.0076,3.490897 0.45511,6.25 1.013654,6.25 0.55,0 1,-0.608943 1,-1.353207 0,-1.02694 1.265811,-1.237071 5.25,-0.871528 2.8875,0.264925 5.4375,0.648868 5.666667,0.853208 1.039743,0.927102 -1.205035,1.60096 -5.780333,1.735193 C 74.851086,49.577404 74.587663,51 81.833333,51 H 88 l 0.22536,32.75 0.225361,32.75 0.539379,-27 0.539379,-27 0.505392,22.5 0.505392,22.5 0.08796,-28.5 C 90.676606,63.325 90.423227,52.3 90.065161,54.5 l -0.651028,4 -0.530067,-4.5 c -0.291537,-2.475 -0.0877,-4.796068 0.452976,-5.157929 0.540674,-0.361861 1.18986,-4.230557 1.442635,-8.597103 0.386197,-6.671314 0.200942,-8.038428 -1.160043,-8.560686 -1.390583,-0.533617 -1.647333,0.399356 -1.815494,6.597103 L 87.608279,45.5 87.25845,38.75 86.90862,32 h -4.120977 c -6.438772,0 -3.865745,-0.965798 2.985639,-1.120673 l 6.124383,-0.138442 0.37646,-4.120443 0.376461,-4.120442 0.174707,4.25 c 0.242965,5.910477 2.939572,5.910477 3.367209,0 0.169124,-2.3375 0.188143,16.675 0.04227,42.25 -0.155927,27.336712 0.09988,45.88183 0.62073,45 0.851392,-1.44147 1.912322,-32.387449 2.29698,-67 0.100853,-9.075 0.512802,8.025 0.915448,38 0.40264,29.975 0.56681,54.67276 0.36481,54.88392 -0.20198,0.21115 -1.509194,0.50927 -2.904916,0.66248 -1.736893,0.19067 -2.299454,-0.0883 -1.782749,-0.88392 C 96.160287,139.02312 96.782144,134.45 97.12698,129.5 l 0.626975,-9 -0.126975,9.75077 c -0.06984,5.36293 0.210525,9.75043 0.623025,9.75 0.4125,-4.2e-4 0.75,-4.91397 0.75,-10.91898 0,-6.00502 0.273145,-11.63002 0.606989,-12.5 C 99.99861,115.56124 99.667364,115 98.673411,115 c -0.91296,0 -1.71028,1.12031 -1.957157,2.75 l -0.41659,2.75 -0.149832,-2.75 c -0.09094,-1.66903 -0.720777,-2.75 -1.602324,-2.75 -1.087295,0 -1.311225,-0.81714 -0.890633,-3.25 0.309022,-1.7875 0.784933,-20.396208 1.05758,-41.352685 C 95.161267,36.053943 95.051814,32.233861 93.605088,31.6787 92.14739,31.119328 92,34.906787 92,72.924396 c 0,35.273324 -0.223867,41.947534 -1.422436,42.407464 -0.78234,0.30021 -1.621058,1.58586 -1.863818,2.85699 L 88.272364,120.5 88.136182,118.25187 c -0.120908,-1.99598 -0.59053,-2.2122 -4.186989,-1.9277 -2.227943,0.17624 -4.284038,-0.0569 -4.569098,-0.51818 -0.28506,-0.46124 -0.941224,-0.57723 -1.458142,-0.25775 -0.516918,0.31947 -1.835823,0.29648 -2.930902,-0.0511 C 73.044716,114.87942 73,113.92419 73,72.963997 73,36.129304 72.818626,31.132369 71.5,31.638374 69.832586,32.27822 69.427755,35 71,35 c 0.65,0 1,14 1,40 0,35.5966 -0.171974,40 -1.562188,40 -1.357264,0 -1.506218,1.68345 -1.13551,12.83333 0.299992,9.02293 0.09577,12.83342 -0.687812,12.83361 -0.777533,1.9e-4 -1.020803,-3.87986 -0.804619,-12.83333 z m -6.613987,-2.20825 C 61.432063,115.23849 61.220762,112.35832 60.25,112.73235 58.727425,113.319 58.430101,139 59.945884,139 c 0.532206,0 1.078889,-5.84935 1.25,-13.37464 z M 76.917234,87.25 C 76.860788,71.9875 76.402235,58.6 75.898227,57.5 c -0.573102,-1.250797 -0.734478,5.492027 -0.430794,18 0.267071,11 0.496155,24.3875 0.509075,29.75 0.01292,5.3625 0.252961,9.75 0.533424,9.75 0.280462,0 0.463748,-12.4875 0.407302,-27.75 z m 3.830162,-11.5 C 80.576537,68.4625 80.436742,74.425 80.436742,89 c 0,14.575 0.139795,20.5375 0.310654,13.25 0.17086,-7.2875 0.17086,-19.2125 0,-26.5 z m 5.706182,11.802562 C 86.854762,72.45647 86.885734,59.62413 86.522404,59.03625 86.159073,58.448369 85.476107,58.20575 85.0047,58.497095 83.872944,59.196559 83.721376,115 84.851232,115 c 0.480106,0 1.201162,-12.35135 1.602346,-27.447438 z M 64.683114,89.8125 c -0.319226,-0.797733 -0.556183,-0.560776 -0.604167,0.604167 -0.04342,1.054166 0.192928,1.644791 0.52522,1.3125 0.332291,-0.332292 0.367818,-1.194792 0.07895,-1.916667 z M 64.747565,47.25 c -0.16988,-7.5625 -0.308873,-1.375 -0.308873,13.75 0,15.125 0.138993,21.3125 0.308873,13.75 0.169881,-7.5625 0.169881,-19.9375 0,-27.5 z M 80.692991,58.269032 C 80.439447,57.296064 80.215328,57.85 80.194949,59.5 c -0.02038,1.65 0.187065,2.446064 0.460988,1.769032 0.273923,-0.677033 0.290597,-2.027033 0.03705,-3 z M 50.743308,31.25 c -0.187451,-4.2625 -0.34082,-0.775 -0.34082,7.75 0,8.525 0.153369,12.0125 0.34082,7.75 0.187451,-4.2625 0.187451,-11.2375 0,-15.5 z m 52.630982,107.28299 c -0.30962,-0.80686 -0.36997,-2.04436 -0.1341,-2.75 0.23587,-0.70564 0.66592,-0.0455 0.95566,1.46701 0.56574,2.95322 0.099,3.68204 -0.82156,1.28299 z M 55,138 c -0.901292,-0.58246 -1.024633,-0.97549 -0.309017,-0.98469 0.655041,-0.008 1.469098,0.43469 1.809017,0.98469 0.767305,1.24153 0.421123,1.24153 -1.5,0 z m 16.354955,-7.5 c -0.003,-4.95 0.166052,-7.10108 0.375776,-4.78017 0.209724,2.3209 0.212217,6.3709 0.0055,9 -0.206677,2.62909 -0.378269,0.73017 -0.381317,-4.21983 z m 1.981251,1.5 c 0,-4.125 0.176518,-5.8125 0.392262,-3.75 0.215745,2.0625 0.215745,5.4375 0,7.5 -0.215744,2.0625 -0.392262,0.375 -0.392262,-3.75 z m 15.990682,-2 c 0.02372,-5.23052 0.211451,-7.04503 0.417725,-4.03747 0.263204,3.83764 0.649816,5.02749 1.299705,4 0.630093,-0.99619 0.87891,0.13177 0.780332,3.53747 -0.125993,4.35288 -0.212463,4.54702 -0.668111,1.5 l -0.523387,-3.5 -0.674671,4 c -0.457386,2.71176 -0.660797,0.94043 -0.631593,-5.5 z m 4.038343,-0.5 c 0.0026,-5.5 0.170532,-7.62242 0.373173,-4.71648 0.202642,2.90594 0.200512,7.40594 -0.0047,10 C 93.528425,137.37758 93.362627,135 93.365231,129.5 Z M 106,125.8 c 0,-9.75585 -0.29271,-12.90729 -1.12186,-12.07814 -0.61702,0.61702 -1.75876,0.87745 -2.5372,0.57873 -2.389393,-0.9169 -1.3707,-77.423217 1.11893,-84.033731 0.25543,-0.678228 1.15646,-0.967583 2.00228,-0.643011 1.33351,0.511717 1.56577,4.8611 1.74797,32.733141 L 107.42024,94.5 108.1575,63 c 0.4055,-17.325 0.87345,-33.525 1.03988,-36 0.23321,-3.467829 -0.0414,-4.5 -1.19738,-4.5 -0.825,0 -1.83061,-0.45 -2.23469,-1 -0.40408,-0.55 -0.77828,0.575 -0.83157,2.5 l -0.0969,3.5 -1.40983,-3.221913 c -1.05022,-2.40009 -1.8584,-3.063999 -3.16843,-2.602821 -1.407557,0.495514 -1.517537,0.35864 -0.550972,-0.685706 0.982372,-1.06142 1.495312,-1.066033 2.750002,-0.02473 0.94855,0.787226 1.54238,0.871838 1.54238,0.219768 0,-1.342156 4.03386,-1.177646 5.94196,0.242326 1.0863,0.808403 1.25627,0.764022 0.68912,-0.179937 -0.53905,-0.897187 -0.0966,-1.131273 1.55804,-0.82431 1.27098,0.235789 2.53588,0.511957 2.81088,0.613708 0.275,0.10175 1.5125,0.102986 2.75,0.0027 2.23714,-0.181214 2.24999,-0.100374 2.24868,14.139309 -0.004,44.536612 -1.38669,96.968696 -2.60008,98.603636 -1.06887,1.44021 -1.1361,1.09286 -0.41583,-2.14857 0.47254,-2.12657 0.80756,-12.70157 0.74449,-23.5 L 117.61259,88.5 l -0.59306,17 c -0.36724,10.5269 -0.74714,14.52499 -0.99771,10.5 -0.40143,-6.44818 -0.40957,-6.42426 -1.02182,3 l -0.61717,9.5 -0.38909,-9 -0.38909,-9 -0.62803,11 -0.62804,11 -0.27685,-13 c -0.15226,-7.15 -0.59129,-21.775 -0.97562,-32.5 -0.65932,-18.398884 -0.70534,-17.589464 -0.81503,14.33425 -0.0639,18.60884 -0.37834,34.09634 -0.69867,34.41667 -0.32032,0.32033 -0.63527,-4.33009 -0.69987,-10.33425 C 108.81794,119.4125 108.43784,110 108.03787,104.5 c -0.56607,-7.784155 -0.70623,-5.183321 -0.63254,11.73744 0.0925,21.23287 0.14109,21.72461 2.09467,21.18449 1.62049,-0.44802 1.71536,-0.35366 0.5,0.49725 -3.6449,2.5519 -4,1.47602 -4,-12.11918 z M 105.11108,72.212516 C 105.52631,48.157986 105.44278,31.111297 104.90693,30.55 104.36308,29.980326 104,38.623419 104,52.139191 c 0,12.396556 -0.28754,31.499056 -0.63898,42.45 -0.35144,10.950949 -0.25957,19.556439 0.20415,19.123329 0.46372,-0.43312 1.15938,-19.108121 1.54591,-41.500004 z M 118.74251,52.75 c -0.18982,-3.9875 -0.34512,-0.725 -0.34512,7.25 0,7.975 0.1553,11.2375 0.34512,7.25 0.18981,-3.9875 0.18981,-10.5125 0,-14.5 z m -8.0594,12.0625 c -0.31922,-0.797733 -0.55618,-0.560776 -0.60416,0.604167 -0.0434,1.054166 0.19292,1.644791 0.52522,1.3125 0.33229,-0.332292 0.36781,-1.194792 0.0789,-1.916667 z m 3.45275,-42.487622 c -0.34972,-0.646317 -0.69861,5.428683 -0.77531,13.5 L 113.22109,50.5 113.99641,37 c 0.42643,-7.425 0.48918,-14.028805 0.13945,-14.675122 z M 112.92971,27.75 C 112.89106,27.0625 112.47269,25.6 112,24.5 111.27979,22.823983 111.12918,23.026473 111.07029,25.75 111.03163,27.5375 111.45,29 112,29 c 0.55,0 0.96837,-0.5625 0.92971,-1.25 z M 112,136.60699 c 0,-0.21616 0.69837,-0.661 1.55194,-0.98855 0.88992,-0.34149 1.29132,-0.17385 0.94098,0.39301 C 113.90566,136.96166 112,137.4169 112,136.60699 Z M 46.444079,120.71487 c -0.271233,-0.70683 -0.368277,-9.14433 -0.215653,-18.75 l 0.2775,-17.46487 0.497037,18.75115 c 0.27337,10.31313 0.370414,18.75063 0.215652,18.75 -0.154761,-6.3e-4 -0.503303,-0.57946 -0.774536,-1.28628 z M 50.286014,116.5 c 0.0075,-2.75 0.201713,-3.75631 0.431567,-2.23625 0.229855,1.52006 0.223712,3.77006 -0.01365,5 -0.237362,1.22994 -0.425424,-0.0138 -0.417917,-2.76375 z m 21.908935,1 c 0.02038,-1.65 0.244498,-2.20394 0.498042,-1.23097 0.253543,0.97297 0.236869,2.32297 -0.03705,3 C 72.382014,119.94606 72.174569,119.15 72.194949,117.5 Z m 19.883998,-0.0833 c 0.04798,-1.16495 0.284941,-1.4019 0.604167,-0.60417 0.288871,0.72187 0.253344,1.58437 -0.07895,1.91667 -0.332292,0.33229 -0.568641,-0.25834 -0.52522,-1.3125 z M 48.394557,96.5 c 0.0016,-7.7 0.158535,-10.717812 0.348833,-6.70625 0.190297,4.011563 0.189021,10.31156 -0.0028,14 C 48.548695,107.48219 48.392997,104.2 48.394557,96.5 Z M 82.25,44.337719 C 81.5625,44.060307 81.006891,42.858333 81.015313,41.666667 81.028079,39.860392 81.207849,39.749502 82.096087,41 c 0.79289,1.116264 0.91633,0.428187 0.48252,-2.689644 C 82.246954,35.926729 82.427668,33.85372 82.997834,33.501339 83.62527,33.113562 84,35.147551 84,38.940983 c 0,3.332459 -0.1125,6.023491 -0.25,5.98007 -0.1375,-0.04342 -0.8125,-0.305921 -1.5,-0.583334 z M 76.84255,38.501363 C 77.085413,34.600964 77.594685,33 78.59255,33 79.631883,33 80,34.438517 80,38.5 c 0,4.570909 -0.29562,5.50023 -1.75,5.501363 -1.496234,0.0012 -1.700327,-0.796386 -1.40745,-5.5 z M 57.078947,28.416667 c 0.04798,-1.164943 0.284941,-1.4019 0.604167,-0.604167 0.288871,0.721875 0.253344,1.584375 -0.07895,1.916667 -0.332292,0.332291 -0.568641,-0.258334 -0.52522,-1.3125 z M 100.25218,26.5 c 0.0111,-2.2 0.21589,-2.982253 0.45508,-1.738341 0.23919,1.243913 0.23011,3.043913 -0.0202,4 C 100.43679,29.717747 100.24108,28.7 100.25218,26.5 Z M 75.542705,28.069098 C 75.226274,27.557102 75.424717,26.855545 75.983688,26.510081 76.54266,26.164618 77,26.583524 77,27.440983 c 0,1.756526 -0.600055,2.015159 -1.457295,0.628115 z m 4.536242,-0.652431 c 0.04798,-1.164943 0.284941,-1.4019 0.604167,-0.604167 0.288871,0.721875 0.253344,1.584375 -0.07895,1.916667 -0.332292,0.332291 -0.568641,-0.258334 -0.52522,-1.3125 z m 4,0 c 0.04798,-1.164943 0.284941,-1.4019 0.604167,-0.604167 0.288871,0.721875 0.253344,1.584375 -0.07895,1.916667 -0.332292,0.332291 -0.568641,-0.258334 -0.52522,-1.3125 z M 87.82861,25 C 87.618806,22.8 87.79654,21 88.223574,21 88.650608,21 89,22.8 89,25 c 0,2.2 -0.177734,4 -0.394965,4 -0.21723,0 -0.566622,-1.8 -0.776425,-4 z m 6.644398,-4.043674 C 94.147935,20.430347 94.808524,20 95.940983,20 c 2.414565,0 2.658155,0.556111 0.591042,1.349337 -0.807386,0.309823 -1.733944,0.132968 -2.059017,-0.393011 z M 66.068516,17.467495 c -3.691392,-2.023533 -3.430748,-4.035683 0.536456,-4.1414 1.851837,-0.04935 3.140947,0.275999 2.86469,0.722993 -0.276257,0.446993 -0.0338,1.102258 0.538803,1.456143 0.572598,0.353886 0.917439,0.07421 0.766312,-0.621511 -0.374909,-1.725899 3.164347,-2.367705 4.581443,-0.830796 0.867585,0.940938 0.841935,1.07007 -0.10622,0.534763 -0.721251,-0.407201 -1.256477,-0.152008 -1.265313,0.603296 -0.01124,0.96084 -0.294647,0.910042 -1.065506,-0.190983 -0.822115,-1.174233 -0.912744,-1.01135 -0.4173,0.75 0.348658,1.239512 0.190256,2.25 -0.352706,2.25 -0.54208,0 -1.584904,0.180085 -2.317388,0.400189 -0.732483,0.220103 -2.425955,-0.199609 -3.763271,-0.932694 z M 91.080829,15.377951 C 89.469912,13.525234 89.343081,13 90.506613,13 c 0.821363,0 1.525015,0.7875 1.563672,1.75 0.06558,1.63275 0.115842,1.635204 0.75024,0.03662 0.478656,-1.206138 1.114023,-1.445107 2.146176,-0.807202 0.932383,0.576245 2.003438,0.471888 2.941719,-0.286622 1.156717,-0.935095 1.313249,-0.922737 0.724521,0.0572 -0.689577,1.147802 0.474195,1.728802 2.691389,1.343644 0.45338,-0.07876 0.52082,0.347891 0.14986,0.948111 -0.37095,0.600219 -0.87693,0.888839 -1.12439,0.641378 -0.24746,-0.24746 -1.969003,-0.107322 -3.825649,0.31142 -2.84619,0.64192 -3.700054,0.388333 -5.443322,-1.616602 z"
         id="path1541" />
      <path
         style="fill:#333333;fill-opacity:1"
         d="m 70,148.95588 c -3.025,-0.43704 -8.063457,-1.56986 -11.19657,-2.51739 -5.579612,-1.68742 -5.684452,-1.7866 -5.10636,-4.83064 0.756365,-3.98276 0.547297,-3.84578 3.914242,-2.56468 1.588778,0.60452 5.476188,1.29516 8.638688,1.53475 l 5.75,0.43562 0.197673,-10.75677 0.197674,-10.75677 0.552326,11 0.552327,11 h 7 7 l 0.552327,-11 0.552326,-11 0.197674,10.75 c 0.159838,8.69243 0.478508,10.75 1.664922,10.75 1.183814,0 1.528871,-2.17321 1.786244,-11.25 L 92.572488,118.5 92.786244,129.78776 93,141.07552 l 3.75,-0.47761 c 11.52835,-1.46826 16.86238,-3.21029 20.27305,-6.62096 1.96927,-1.96927 1.97695,-1.96559 1.97695,0.94632 0,4.17932 -4.21191,8.6403 -10.2915,10.9001 -9.657435,3.58971 -26.249891,4.93246 -38.7085,3.13251 z M 80.349414,131 c 0,-4.675 0.172256,-6.5875 0.382791,-4.25 0.210535,2.3375 0.210535,6.1625 0,8.5 -0.210535,2.3375 -0.382791,0.425 -0.382791,-4.25 z m 4,0 c 0,-4.675 0.172256,-6.5875 0.382791,-4.25 0.210535,2.3375 0.210535,6.1625 0,8.5 -0.210535,2.3375 -0.382791,0.425 -0.382791,-4.25 z m 12.011082,-2 c 0,-5.225 0.168545,-7.3625 0.374543,-4.75 0.205999,2.6125 0.205999,6.8875 0,9.5 -0.205998,2.6125 -0.374543,0.475 -0.374543,-4.75 z m 7.000004,-5 c 0,-5.225 0.16854,-7.3625 0.37454,-4.75 0.206,2.6125 0.206,6.8875 0,9.5 -0.206,2.6125 -0.37454,0.475 -0.37454,-4.75 z M 88.367266,83.5 c -0.0459,-18.15 0.221713,-31.2 0.594698,-29 l 0.678153,4 0.511838,-4 c 0.281511,-2.2 0.484044,8.825 0.450073,24.5 l -0.06177,28.5 -0.505392,-22.5 -0.505392,-22.5 -0.539379,27 -0.539379,27 -0.08346,-33 z M 92,73.698051 c 0,-38.727814 0.147104,-42.578832 1.605088,-42.019351 1.446726,0.555161 1.556179,4.375243 1.109367,38.718615 C 94.250934,106.02501 93.843752,114.48958 92.530243,115.80309 92.238609,116.09472 92,97.147456 92,73.698051 Z M 68,74 c 0,-26.666667 -0.349593,-41 -1,-41 -0.55,0 -1,-0.45 -1,-1 0,-0.55 0.675,-1 1.5,-1 1.309524,0 1.5,5.333333 1.5,42 0,23.1 -0.225,42 -0.5,42 C 68.225,115 68,96.55 68,74 Z m 4,1 C 72,49 71.65,35 71,35 69.427755,35 69.832586,32.27822 71.5,31.638374 72.818649,31.13236 73,36.136792 73,73.031385 73,96.114123 72.775,115 72.5,115 72.225,115 72,97 72,75 Z m 3.976508,30.25 C 75.963588,99.8875 75.734504,86.5 75.467433,75.5 c -0.303684,-12.507973 -0.142308,-19.250797 0.430794,-18 0.9403,2.05221 1.530173,57.5 0.611705,57.5 -0.280463,0 -0.520503,-4.3875 -0.533424,-9.75 z M 80.436742,89 c 0,-14.575 0.139795,-20.5375 0.310654,-13.25 0.17086,7.2875 0.17086,19.2125 0,26.5 -0.170859,7.2875 -0.310654,1.325 -0.310654,-13.25 z m 3.626213,-1.986593 C 84.140139,61.49295 84.625869,55.967592 86.522404,59.03625 87.498132,60.615012 85.874106,115 84.851232,115 84.371126,115 84.016402,102.40603 84.062955,87.013407 Z M 96.030409,73.25 C 96.002607,34.622305 96.141624,31 97.651883,31 c 1.520488,0 1.595065,3.237436 0.937566,40.700356 C 98.196574,94.085552 97.46691,113.09805 96.967974,113.95036 96.414634,114.8956 96.048957,99.021321 96.030409,73.25 Z m 4.048541,-0.968615 c -0.0715,-38.229678 0.0715,-42.160868 1.51381,-41.607416 1.21525,0.466334 1.45335,1.466221 1.00458,4.218615 -0.3235,1.984079 -0.84805,20.257416 -1.16568,40.607416 -0.31762,20.35 -0.73416,37.45 -0.92563,38 -0.19148,0.55 -0.38366,-17.998377 -0.42708,-41.218615 z m 3.28207,22.307806 C 103.71246,83.638247 104,64.535747 104,52.139191 104,38.623419 104.36308,29.980326 104.90693,30.55 c 1.13928,1.193384 -0.1655,82.06389 -1.34176,83.16252 -0.46372,0.43311 -0.55559,-8.17238 -0.20415,-19.123329 z M 107.35496,103.5 c -0.003,-4.95 0.16605,-7.101078 0.37577,-4.780173 0.20972,2.320903 0.21222,6.370903 0.006,9.000003 C 107.5296,110.34892 107.358,108.45 107.35496,103.5 Z M 110.41858,87 c 0,-10.725 0.14711,-15.1125 0.32692,-9.75 0.17981,5.3625 0.17981,14.1375 0,19.5 -0.17981,5.3625 -0.32692,0.975 -0.32692,-9.75 z m -3.07485,-29 c -0.0421,-20.075 0.20087,-34.475 0.53988,-32 0.33902,2.475 0.37344,18.9 0.0765,36.5 l -0.53988,32 z M 64.078947,90.416667 c 0.04798,-1.164943 0.284941,-1.4019 0.604167,-0.604167 0.288871,0.721875 0.253344,1.584375 -0.07895,1.916667 -0.332292,0.332291 -0.568641,-0.258334 -0.52522,-1.3125 z M 64.438692,61 c 0,-15.125 0.138993,-21.3125 0.308873,-13.75 0.169881,7.5625 0.169881,19.9375 0,27.5 -0.16988,7.5625 -0.308873,1.375 -0.308873,-13.75 z m 45.640258,4.416667 c 0.048,-1.164943 0.28494,-1.4019 0.60416,-0.604167 0.28887,0.721875 0.25335,1.584375 -0.0789,1.916667 -0.3323,0.332291 -0.56864,-0.258334 -0.52522,-1.3125 z M 80.194949,59.5 c 0.02038,-1.65 0.244498,-2.203936 0.498042,-1.230968 0.253543,0.972967 0.236869,2.322967 -0.03705,3 C 80.382014,61.946064 80.174569,61.15 80.194949,59.5 Z m 33.179121,-20 c 0.002,-6.05 0.16696,-8.396069 0.36601,-5.213487 0.19905,3.182582 0.1972,8.132582 -0.004,11 C 113.53467,48.153931 113.37181,45.55 113.37407,39.5 Z m -38.387725,3.25 c -0.0075,-3.4375 -0.284994,-7.2625 -0.616631,-8.5 C 73.789186,32.083768 74.011376,32 80.337679,32 h 6.570941 l 0.34983,6.75 0.349829,6.75 0.195861,-7.218615 c 0.168161,-6.197747 0.424911,-7.13072 1.815494,-6.597103 1.358857,0.521442 1.546481,1.885197 1.165294,8.469988 -0.450072,7.774713 -1.245588,10.295816 -2.589301,8.205859 C 87.813032,47.765057 85.1375,47.056646 82.25,46.785882 78.260581,46.411791 77,46.618505 77,47.646793 77,48.391057 76.55,49 76,49 75.441456,49 74.993972,46.240897 74.986345,42.75 Z M 84,38.940983 c 0,-3.793432 -0.37473,-5.827421 -1.002166,-5.439644 -0.570166,0.352381 -0.75088,2.42539 -0.419227,4.809017 0.43381,3.117831 0.31037,3.805908 -0.48252,2.689644 -0.888238,-1.250498 -1.068008,-1.139608 -1.080774,0.666667 -0.01277,1.807347 0.649988,2.59606 2.734687,3.254386 0.1375,0.04342 0.25,-2.647611 0.25,-5.98007 z M 80,38.5 C 80,34.438517 79.631883,33 78.59255,33 c -0.997865,0 -1.507137,1.600964 -1.75,5.501363 -0.292877,4.703614 -0.08878,5.501166 1.40745,5.5 C 79.70438,44.00023 80,43.070909 80,38.5 Z M 63.5,32 C 63.160081,31.45 63.358524,31 63.940983,31 64.523442,31 65,31.45 65,32 65,32.55 64.801558,33 64.559017,33 64.316476,33 63.839919,32.55 63.5,32 Z m -6.381685,-7.75 c -0.108693,-2.985681 -2.098702,-4.851057 -2.133628,-2 -0.0095,0.774133 -0.295003,0.869307 -0.75,0.25 -0.404078,-0.55 -2.50254,-1.117853 -4.663249,-1.261896 -4.564882,-0.304315 -5.029312,-0.602519 -4.220602,-2.709984 0.812322,-2.116878 4.400833,-3.345447 12.649088,-4.330564 5.662691,-0.676314 6.739587,-0.588612 5.855328,0.476855 -0.824819,0.993846 -0.519043,1.518715 1.280603,2.198175 1.30028,0.490923 2.790145,0.63917 3.310812,0.329437 0.520667,-0.309733 -0.10208,0.909679 -1.383882,2.709804 -1.281802,1.800125 -2.607803,2.834588 -2.946667,2.298806 C 63.777253,21.674851 62.379286,21.295775 61.009525,21.368242 59.096687,21.46944 58.370329,22.195815 57.87784,24.5 l -0.64121,3 z M 102.54084,21.066085 C 102.15081,20.434993 100.96956,20.192275 99.915843,20.52671 98.820925,20.874224 98,20.6636 98,20.035163 c 0,-0.604786 -1.0125,-1.506587 -2.25,-2.004001 -2.179247,-0.87595 -2.163524,-0.910313 0.5,-1.092776 4.00542,-0.274388 4.52136,-0.376416 5.16667,-1.021719 0.32083,-0.320834 0.0208,-0.622199 -0.66667,-0.669701 -2.196533,-0.151768 -6.001456,-1.165089 -6.591915,-1.755548 -0.776979,-0.776979 13.269805,0.454563 18.801015,1.648367 4.85487,1.047827 7.0409,2.403389 7.0409,4.366083 0,1.290306 -4.51081,2.649986 -5.50227,1.658531 -0.3021,-0.302099 -1.46507,-0.689033 -2.58438,-0.859852 -1.41034,-0.215233 -1.80399,0.07409 -1.28227,0.942436 0.57441,0.956047 0.41109,0.989067 -0.68912,0.139324 -1.75957,-1.359 -5.21417,-1.43205 -6.06696,-0.12829 -0.37743,0.577024 -0.9059,0.500998 -1.33416,-0.191932 z"
         id="path1539" />
    </g>
  </g>
</svg>
