<?xml version="1.0" encoding="UTF-8" standalone="no"?>
<!-- Created with Inkscape (http://www.inkscape.org/) -->

<svg
   width="165.58182mm"
   height="139.1916mm"
   viewBox="0 0 165.58182 139.1916"
   version="1.1"
   id="svg3720"
   inkscape:version="1.1 (c68e22c387, 2021-05-23)"
   sodipodi:docname="icon.svg"
   xmlns:inkscape="http://www.inkscape.org/namespaces/inkscape"
   xmlns:sodipodi="http://sodipodi.sourceforge.net/DTD/sodipodi-0.dtd"
   xmlns="http://www.w3.org/2000/svg"
   xmlns:svg="http://www.w3.org/2000/svg"
   xmlns:rdf="http://www.w3.org/1999/02/22-rdf-syntax-ns#"
   xmlns:cc="http://creativecommons.org/ns#"
   xmlns:dc="http://purl.org/dc/elements/1.1/">
  <defs
     id="defs3714" />
  <sodipodi:namedview
     id="base"
     pagecolor="#ffffff"
     bordercolor="#666666"
     borderopacity="1.0"
     inkscape:pageopacity="0.0"
     inkscape:pageshadow="2"
     inkscape:zoom="0.7"
     inkscape:cx="1261.4286"
     inkscape:cy="502.85714"
     inkscape:document-units="mm"
     inkscape:current-layer="layer1"
     showgrid="false"
     inkscape:window-width="2560"
     inkscape:window-height="1378"
     inkscape:window-x="5"
     inkscape:window-y="-2166"
     inkscape:window-maximized="1"
     inkscape:pagecheckerboard="0" />
  <metadata
     id="metadata3717">
    <rdf:RDF>
      <cc:Work
         rdf:about="">
        <dc:format>image/svg+xml</dc:format>
        <dc:type
           rdf:resource="http://purl.org/dc/dcmitype/StillImage" />
      </cc:Work>
    </rdf:RDF>
  </metadata>
  <g
     inkscape:label="Laag 1"
     inkscape:groupmode="layer"
     id="layer1"
     transform="translate(-19.644666,-81.600464)">
    <rect
       style="fill:#cccccc;fill-opacity:1;stroke:#000000;stroke-width:0.0282744;stroke-miterlimit:4;stroke-dasharray:none;stroke-opacity:0"
       id="rect12435-8"
       width="6.2085967"
       height="1.0853192"
       x="92.697418"
       y="101.13779"
       ry="0" />
    <rect
       style="fill:#cccccc;fill-opacity:1;stroke:#000000;stroke-width:0.0282744;stroke-miterlimit:4;stroke-dasharray:none;stroke-opacity:0"
       id="rect12435-8-0"
       width="6.2085967"
       height="1.0853192"
       x="92.979454"
       y="116.87193"
       ry="0" />
    <rect
       style="fill:#cccccc;fill-opacity:1;stroke:#000000;stroke-width:0.0282744;stroke-miterlimit:4;stroke-dasharray:none;stroke-opacity:0"
       id="rect12435-8-0-9"
       width="6.2085967"
       height="1.0853192"
       x="92.712181"
       y="132.12254"
       ry="0" />
    <rect
       style="fill:#cccccc;fill-opacity:1;stroke:#000000;stroke-width:0.0282744;stroke-miterlimit:4;stroke-dasharray:none;stroke-opacity:0"
       id="rect12435-8-0-9-8"
       width="6.2085967"
       height="1.0853192"
       x="93.057732"
       y="147.73763"
       ry="0" />
    <rect
       style="fill:#cccccc;fill-opacity:1;stroke:#000000;stroke-width:0.0282744;stroke-miterlimit:4;stroke-dasharray:none;stroke-opacity:0"
       id="rect12435-8-0-9-8-2"
       width="6.2085967"
       height="1.0853192"
       x="92.963234"
       y="163.35272"
       ry="0" />
    <rect
       style="fill:#cccccc;fill-opacity:1;stroke:#000000;stroke-width:0.0282744;stroke-miterlimit:4;stroke-dasharray:none;stroke-opacity:0"
       id="rect12435-8-0-9-8-2-0"
       width="6.2085967"
       height="1.0853192"
       x="93.090164"
       y="176.87834"
       ry="0" />
    <path
       style="fill:#000000;stroke-width:0.264583"
       id="path2127"
       d="" />
    <path
       style="fill:#000000;stroke-width:0.264583"
       id="path2068"
       d="" />
    <path
       style="fill:#000000;stroke-width:0.264583"
       id="path2009"
       d="" />
    <path
       d="m 84.335213,220.56011 -0.264259,-26.45992 c 2.090582,-0.48104 3.40371,-1.07928 5.48213,-1.03736 0.364351,0.007 -0.06225,-24.72017 -0.06225,-57.64447 0,-47.678337 1.184634,-50.666683 1.281114,-53.477779 2.096683,-0.06582 7.572108,-0.02276 10.602552,0.02922 0.2358,1.593254 0.98163,6.324221 0.98163,52.442489 0,33.22879 0.18865,58.03385 0.55276,58.04997 3.17001,0.14035 4.86827,0.70541 8.27115,1.28899 l -0.28349,26.80243 c -9.0903,0.0512 -21.476459,-0.0349 -26.561337,0.006 z M 99.905637,190.7941 c 0,0 -0.13557,-25.19782 -0.13557,-44.65915 0,-50.717706 0.09989,-61.072796 -0.23067,-62.150102 -3.966442,-0.613409 -4.997136,-0.539859 -6.473129,-0.162399 -0.313276,1.214623 -0.859626,4.842896 -0.797672,62.041421 0.04418,40.83957 0.04133,43.36073 0.02687,44.98786 3.046993,0.23017 4.397373,0.91116 7.610171,-0.0576 z"
       style="color:#000000;fill:#000000;stroke-width:0.146252;-inkscape-stroke:none"
       id="path9235"
       sodipodi:nodetypes="ccssccssccccsccccccs" />
  </g>
</svg>
