<?xml version="1.0" encoding="UTF-8" standalone="no"?>
<!-- Created with Inkscape (http://www.inkscape.org/) -->

<svg
   width="100mm"
   height="100mm"
   viewBox="0 0 100 100"
   version="1.1"
   id="svg3482"
   inkscape:version="1.1.1 (3bf5ae0d25, 2021-09-20)"
   sodipodi:docname="add_list_type_device_6137.svg"
   xmlns:inkscape="http://www.inkscape.org/namespaces/inkscape"
   xmlns:sodipodi="http://sodipodi.sourceforge.net/DTD/sodipodi-0.dtd"
   xmlns="http://www.w3.org/2000/svg"
   xmlns:svg="http://www.w3.org/2000/svg">
  <sodipodi:namedview
     id="namedview3484"
     pagecolor="#505050"
     bordercolor="#ffffff"
     borderopacity="1"
     inkscape:pageshadow="0"
     inkscape:pageopacity="0"
     inkscape:pagecheckerboard="1"
     inkscape:document-units="mm"
     showgrid="false"
     inkscape:zoom="0.58974467"
     inkscape:cx="397.62971"
     inkscape:cy="561.25984"
     inkscape:window-width="1440"
     inkscape:window-height="938"
     inkscape:window-x="-6"
     inkscape:window-y="-6"
     inkscape:window-maximized="1"
     inkscape:current-layer="layer1" />
  <defs
     id="defs3479" />
  <g
     inkscape:label="Laag 1"
     inkscape:groupmode="layer"
     id="layer1">
    <g
       id="g3498"
       transform="translate(0.44863755,0.44864069)">
      <path
         style="fill:#d0d0d0;fill-opacity:1;stroke-width:0.602448"
         d="m 36.104865,85.977151 c 0.586162,-0.152744 1.399468,-0.142702 1.807345,0.02235 0.407877,0.165029 -0.07171,0.290001 -1.06575,0.277723 -0.99404,-0.01229 -1.327758,-0.147299 -0.741595,-0.300044 z m 0.327411,-4.813635 c 0.434893,-0.174029 0.954505,-0.15263 1.154693,0.04753 0.200189,0.200188 -0.155633,0.342577 -0.790713,0.316418 -0.701818,-0.02892 -0.844573,-0.171661 -0.36398,-0.363975 z M 15.507103,55.318345 c 0.0289,-0.701818 0.171662,-0.844572 0.363979,-0.363979 0.17403,0.434892 0.152627,0.954504 -0.04756,1.154693 -0.200189,0.200188 -0.342577,-0.155633 -0.316419,-0.790714 z m -2.942357,-1.757141 c 0.01228,-0.99404 0.147297,-1.327758 0.300044,-0.741595 0.152747,0.586163 0.142702,1.399468 -0.02232,1.807345 -0.165027,0.407877 -0.290002,-0.07171 -0.277724,-1.06575 z M 1.0483411,49.89631 C 1.077249,49.194492 1.2200029,49.051737 1.4123204,49.53233 1.58635,49.967223 1.5649472,50.486834 1.3647586,50.687023 1.16457,50.887211 1.0221822,50.53139 1.0483411,49.89631 Z M 18.513076,34.841349 c 1.415524,-1.506757 2.400375,-2.048711 1.288601,-0.709106 -0.343742,0.414183 -0.580263,0.998318 -0.525603,1.298078 0.05466,0.299759 -0.403721,0.618857 -1.018625,0.709106 -0.995643,0.146129 -0.967665,0.004 0.255627,-1.298078 z m -7.270674,-6.582978 c 0.77821,-0.828367 1.550478,-1.506121 1.716152,-1.506121 0.165673,0 -0.335494,0.677754 -1.113703,1.506121 -0.77821,0.828366 -1.550478,1.506121 -1.716152,1.506121 -0.165673,0 0.335494,-0.677755 1.113703,-1.506121 z m 21.575184,-10.35194 c 0.434892,-0.17403 0.954504,-0.152627 1.154693,0.04756 0.200188,0.200189 -0.155633,0.342577 -0.790714,0.316418 -0.701818,-0.02891 -0.844572,-0.171662 -0.363979,-0.363979 z"
         id="path3514" />
      <path
         style="fill:#b9b9b9;fill-opacity:1;stroke-width:0.602448"
         d="m 89.861919,86.99709 c 0.599732,-0.662693 1.225971,-1.204896 1.391644,-1.204896 0.165674,0 -0.189464,0.542203 -0.789195,1.204896 -0.599731,0.662694 -1.225971,1.204897 -1.391644,1.204897 -0.165673,0 0.189464,-0.542203 0.789195,-1.204897 z M 38.653805,86.394642 c -0.204784,-0.331347 0.03432,-0.602448 0.531339,-0.602448 0.49702,0 1.071222,0.271101 1.276006,0.602448 0.204784,0.331347 -0.03432,0.602448 -0.531339,0.602448 -0.49702,0 -1.071222,-0.271101 -1.276006,-0.602448 z m -4.631322,-0.411538 c 0.434892,-0.17403 0.954504,-0.152631 1.154693,0.04753 0.200188,0.200187 -0.155633,0.342576 -0.790714,0.316418 -0.701818,-0.02892 -0.844572,-0.171662 -0.363979,-0.363976 z m -0.48949,-1.02435 c 0,-0.12705 0.669551,-0.358986 1.48789,-0.515424 0.818339,-0.156432 1.344543,-0.05247 1.169342,0.230997 -0.308502,0.499164 -2.657232,0.750572 -2.657232,0.284427 z m 3.614691,-0.371457 c 0,-0.331347 0.526204,-0.602449 1.169342,-0.602449 0.643138,0 1.336892,0.271102 1.541676,0.602449 0.211172,0.341684 -0.294969,0.602448 -1.169342,0.602448 -0.847922,0 -1.541676,-0.271102 -1.541676,-0.602448 z M 86.548453,83.49172 c 0,-0.728089 1.142965,-1.576963 1.560763,-1.159171 0.151637,0.151637 -0.137502,0.61863 -0.642529,1.037766 -0.572561,0.475181 -0.918234,0.520889 -0.918234,0.121405 z m 9.036726,-8.844822 c 0.778213,-0.828366 1.55048,-1.506121 1.716153,-1.506121 0.165673,0 -0.335491,0.677755 -1.113704,1.506121 -0.778213,0.828367 -1.55048,1.506121 -1.716153,1.506121 -0.165673,0 0.335492,-0.677754 1.113704,-1.506121 z M 13.957685,69.532985 c -0.211061,-0.341504 0.03076,-0.442499 0.566894,-0.236769 1.043691,0.400502 1.23465,0.832319 0.368068,0.832319 -0.311791,0 -0.732524,-0.267999 -0.934962,-0.59555 z m 10.27089,-1.061183 -1.008716,-1.656733 1.165864,1.329893 c 0.641224,0.731438 1.378533,1.138091 1.638464,0.903672 0.25993,-0.234424 0.277586,-0.08734 0.03924,0.326841 -0.592954,1.030373 -0.684837,0.985123 -1.834846,-0.903673 z M 12.810579,67.819151 c -0.170653,-0.276126 0.08445,-0.502044 0.566894,-0.502044 0.482444,0 0.877171,0.225918 0.877171,0.502044 0,0.276121 -0.255102,0.502039 -0.566893,0.502039 -0.311792,0 -0.706519,-0.225918 -0.877172,-0.502039 z m 2.648962,-0.10041 c -0.542982,-0.350902 -0.617288,-0.587682 -0.186167,-0.593225 0.394629,-0.0048 0.885056,0.261879 1.08984,0.593225 0.462261,0.747958 0.253705,0.747958 -0.903673,0 z m 10.767226,-0.451836 c -0.749368,-0.955519 -0.728059,-0.976828 0.227458,-0.22746 0.579856,0.454758 1.054284,0.929186 1.054284,1.054284 0,0.49584 -0.494722,0.176705 -1.281742,-0.826824 z m -2.598706,-1.073442 c -0.643187,-0.486484 -0.879708,-0.884515 -0.525603,-0.884515 0.354105,0 0.981319,0.406652 1.393809,0.903672 0.938135,1.130386 0.643016,1.123874 -0.868206,-0.01916 z M 3.8523685,65.836638 c 0.4086609,-0.411725 0.8947811,-0.596827 1.0802672,-0.411339 0.1854861,0.185487 -0.1488728,0.522353 -0.7430197,0.74859 -0.8586086,0.326937 -0.9278079,0.257739 -0.3372475,-0.337251 z m 4.679016,-3.539932 c 0.2047837,-0.331347 0.4918847,-0.602449 0.6380031,-0.602449 0.1461184,0 0.2656695,0.271102 0.2656695,0.602449 0,0.331346 -0.2871016,0.602448 -0.6380031,0.602448 -0.3509015,0 -0.4704532,-0.271102 -0.2656695,-0.602448 z m 9.9403985,-3.2397 c 0,-0.125102 0.474428,-0.59953 1.054285,-1.054284 0.955517,-0.749369 0.976825,-0.72806 0.227457,0.227457 -0.78702,1.003527 -1.281742,1.322663 -1.281742,0.826827 z M 8.8326087,55.935443 c 0,-0.516575 0.2755238,-0.768944 0.6122755,-0.560821 0.3367512,0.208125 0.4563029,0.630776 0.2656695,0.939228 -0.5164428,0.835622 -0.877945,0.679809 -0.877945,-0.378407 z m 7.8318293,0.336779 c 0,-0.331347 0.287102,-0.602449 0.638003,-0.602449 0.350902,0 0.470453,0.271102 0.26567,0.602449 -0.204784,0.331346 -0.491885,0.602448 -0.638004,0.602448 -0.146118,0 -0.265669,-0.271102 -0.265669,-0.602448 z M 1.1730882,53.561204 c 0.00452,-1.656733 0.1215215,-2.262985 0.2599969,-1.347225 0.1384754,0.915759 0.1347748,2.271267 -0.00822,3.012242 -0.1429983,0.740973 -0.2562963,-0.0083 -0.2517734,-1.665017 z m 16.9723838,0.863082 c -0.298008,-0.482188 -0.215122,-0.595258 0.233228,-0.318163 0.443873,0.274329 0.720818,-0.07345 0.765416,-0.961201 0.0562,-1.118647 0.126254,-1.172068 0.357723,-0.272787 0.36051,1.400619 -0.699988,2.614194 -1.356367,1.552151 z m -9.2653018,-3.32308 c 0.028906,-0.701818 0.1716622,-0.844572 0.3639794,-0.363979 0.1740299,0.434892 0.1526267,0.954504 -0.047563,1.154693 C 8.9963975,52.092108 8.8540095,51.736287 8.8801684,51.101206 Z M 7.6752734,50.498758 c 0.028905,-0.701818 0.1716622,-0.844572 0.3639794,-0.363979 0.1740299,0.434892 0.1526267,0.954504 -0.047563,1.154693 C 7.7915007,51.48966 7.6491127,51.133839 7.6752716,50.498758 Z m 7.1818196,-0.25102 c 0,-0.331347 0.271102,-0.602449 0.602448,-0.602449 0.331347,0 0.602449,0.271102 0.602449,0.602449 0,0.331346 -0.271102,0.602448 -0.602449,0.602448 -0.331346,0 -0.602448,-0.271102 -0.602448,-0.602448 z M 3.7117972,48.440392 c -0.2047834,-0.331346 -0.085232,-0.602448 0.2656695,-0.602448 0.3509018,0 0.6380031,0.271102 0.6380031,0.602448 0,0.331347 -0.1195513,0.602449 -0.2656695,0.602449 -0.1461182,0 -0.4332196,-0.271102 -0.6380031,-0.602449 z m 1.5061211,-0.03555 c 0,-0.350902 0.2711017,-0.470453 0.6024484,-0.26567 0.3313466,0.204784 0.6024484,0.491885 0.6024484,0.638003 0,0.146119 -0.2711018,0.26567 -0.6024484,0.26567 -0.3313467,0 -0.6024484,-0.287102 -0.6024484,-0.638003 z m -3.6146905,-1.80735 c 0,-0.350901 0.2711018,-0.470453 0.6024484,-0.265669 0.3313466,0.204784 0.6024484,0.491885 0.6024484,0.638003 0,0.146118 -0.2711018,0.26567 -0.6024484,0.26567 -0.3313466,0 -0.6024484,-0.287102 -0.6024484,-0.638004 z m 18.0734522,0.03555 c -0.542982,-0.350902 -0.617288,-0.58768 -0.186167,-0.593223 0.394629,-0.0051 0.885056,0.261877 1.08984,0.593223 0.462261,0.747955 0.253705,0.747955 -0.903673,0 z m 0.602448,-4.217139 c 0.49702,-0.321199 1.174775,-0.583998 1.506121,-0.583998 0.331347,0 0.195796,0.262799 -0.301224,0.583998 -0.49702,0.321199 -1.174774,0.583998 -1.506121,0.583998 -0.331346,0 -0.195795,-0.262799 0.301224,-0.583998 z m 3.256227,-0.462218 c 1.361459,-1.595717 1.362545,-1.596068 1.362545,-0.441454 0,0.49702 -0.133199,0.770473 -0.295998,0.607675 -0.162799,-0.162798 -0.727594,0.03586 -1.255101,0.441454 -0.587659,0.451849 -0.514635,0.216507 0.188554,-0.607675 z m -7.110085,-1.44553 c 0.170652,-0.276122 0.565379,-0.50204 0.877171,-0.50204 0.311792,0 0.566894,0.225918 0.566894,0.50204 0,0.276122 -0.394727,0.502041 -0.877172,0.502041 -0.482445,0 -0.737547,-0.225919 -0.566893,-0.502041 z m 2.347737,0.323092 c 0.331347,-0.289988 1.686288,-1.475355 3.01098,-2.634149 l 2.408531,-2.106898 -1.806083,2.009802 c -0.993345,1.105391 -2.348286,2.290758 -3.010979,2.634149 -0.662693,0.343392 -0.933795,0.387085 -0.602449,0.0971 z m 2.10857,0.191253 c 0,-0.103681 0.881081,-0.984762 1.957957,-1.957957 l 1.957957,-1.769446 -1.769445,1.957957 c -1.649372,1.825091 -2.146469,2.234874 -2.146469,1.769446 z m 21.085694,-0.449492 c 0,-0.350901 0.271102,-0.470453 0.602449,-0.265669 0.331346,0.204784 0.602448,0.491885 0.602448,0.638003 0,0.146118 -0.271102,0.265669 -0.602448,0.265669 -0.331347,0 -0.602449,-0.287101 -0.602449,-0.638003 z m -23.662835,-2.4046 c 0.736326,-0.774851 1.455304,-1.288331 1.59773,-1.141066 0.142424,0.147265 -0.460024,0.781235 -1.338775,1.408821 l -1.597729,1.141066 z m -6.698754,-0.471679 c -0.170653,-0.276122 0.07252,-0.50204 0.540393,-0.50204 0.467869,0 0.711046,0.225918 0.540393,0.50204 -0.170653,0.276122 -0.41383,0.50204 -0.540393,0.50204 -0.126563,0 -0.36974,-0.225918 -0.540393,-0.50204 z m 5.058756,0.274583 c 0,-0.125102 0.474428,-0.59953 1.054285,-1.054285 0.955517,-0.749368 0.976825,-0.728059 0.227457,0.227458 -0.78702,1.003527 -1.281742,1.322663 -1.281742,0.826827 z M 7.7278111,36.466038 c -0.6369073,-0.403735 -0.5877848,-0.59219 0.2368393,-0.908628 0.5722272,-0.219584 1.1823454,-0.257312 1.355818,-0.08384 0.1734726,0.173473 -0.01688,0.315405 -0.4230061,0.315405 -0.4061262,0 -0.5708615,0.271102 -0.3660778,0.602448 0.4505687,0.729036 0.2571364,0.746997 -0.8035734,0.07461 z m 6.5268329,0.300377 c 0,-0.125102 0.474428,-0.59953 1.054285,-1.054284 0.955517,-0.749369 0.976826,-0.72806 0.227457,0.227457 -0.787019,1.003527 -1.281742,1.322663 -1.281742,0.826827 z m 6.928157,-1.579888 c 0.599729,-0.662693 1.225967,-1.204896 1.391641,-1.204896 0.165673,0 -0.189464,0.542203 -0.789193,1.204896 -0.599728,0.662694 -1.225967,1.204897 -1.39164,1.204897 -0.165674,0 0.189463,-0.542203 0.789192,-1.204897 z m 7.831829,0 c -0.204783,-0.331346 -0.08523,-0.602448 0.26567,-0.602448 0.350901,0 0.638003,0.271102 0.638003,0.602448 0,0.331347 -0.119551,0.602449 -0.26567,0.602449 -0.146118,0 -0.433219,-0.271102 -0.638003,-0.602449 z M 18.132759,33.181066 c 0.927811,-1.216422 1.808763,-2.211677 1.957672,-2.211677 0.418496,0 -2.189632,3.524135 -2.960899,4.000804 -0.376036,0.232403 0.07542,-0.572704 1.003227,-1.789127 z m 1.543921,1.778004 c 0,-0.125102 0.474428,-0.59953 1.054285,-1.054285 0.955517,-0.749368 0.976825,-0.728059 0.227457,0.227458 -0.78702,1.003527 -1.281742,1.322663 -1.281742,0.826827 z m -8.434278,-0.602448 c 0,-0.125102 0.474428,-0.599531 1.054285,-1.054285 0.955517,-0.749368 0.976826,-0.72806 0.227457,0.227457 -0.787019,1.003528 -1.281742,1.322663 -1.281742,0.826828 z M 9.4852609,33.811157 c 0.1380613,-0.09376 0.7932241,-0.568188 1.4559171,-1.054285 1.114533,-0.817528 1.142888,-0.804742 0.37807,0.170474 -0.454755,0.579856 -1.109918,1.054285 -1.455917,1.054285 -0.3459993,0 -0.5161308,-0.07671 -0.3780701,-0.170474 z M 26.64357,32.35088 c -0.32694,-0.858608 -0.25774,-0.927808 0.337248,-0.337248 0.411724,0.408662 0.596828,0.894781 0.411342,1.080267 -0.185486,0.185487 -0.522352,-0.148872 -0.74859,-0.743019 z M 16.06199,29.537034 c 0,-0.125102 0.474428,-0.59953 1.054284,-1.054284 0.955517,-0.749368 0.976826,-0.72806 0.227458,0.227457 -0.78702,1.003527 -1.281742,1.322663 -1.281742,0.826827 z m -0.602449,-1.204896 c 0,-0.125103 0.474428,-0.599531 1.054285,-1.054285 0.955517,-0.749368 0.976825,-0.72806 0.227457,0.227457 -0.78702,1.003527 -1.281742,1.322663 -1.281742,0.826828 z m 4.819587,-1.243109 c 0,-0.477465 0.24582,-1.020043 0.546265,-1.205729 0.300446,-0.185685 0.404378,0.204968 0.23096,0.868118 -0.367863,1.40671 -0.777225,1.584528 -0.777225,0.337611 z m 3.891143,-0.376861 c -0.218407,-0.353391 -0.267899,-0.771736 -0.10998,-0.929655 0.157919,-0.157919 0.447659,0.131219 0.643867,0.64253 0.407366,1.061579 0.06016,1.248308 -0.533887,0.287125 z m 6.049256,0.04008 c -0.204784,-0.331347 -0.08523,-0.602449 0.26567,-0.602449 0.350901,0 0.638003,0.271102 0.638003,0.602449 0,0.331346 -0.119551,0.602448 -0.26567,0.602448 -0.146118,0 -0.433219,-0.271102 -0.638003,-0.602448 z m 3.802956,-1.01399 c 0.434892,-0.17403 0.954504,-0.152626 1.154693,0.04756 0.200188,0.200188 -0.155633,0.342577 -0.790714,0.316418 -0.701818,-0.02891 -0.844572,-0.171663 -0.363979,-0.36398 z m -0.602449,-1.204896 c 0.434893,-0.17403 0.954505,-0.152627 1.154693,0.04756 0.200188,0.200189 -0.155633,0.342577 -0.790713,0.316418 -0.701818,-0.02891 -0.844573,-0.171662 -0.36398,-0.36398 z M 20.881577,21.897108 c 0,-0.350902 0.271102,-0.470453 0.602448,-0.26567 0.331347,0.204784 0.602449,0.491885 0.602449,0.638003 0,0.146119 -0.271102,0.26567 -0.602449,0.26567 -0.331346,0 -0.602448,-0.287102 -0.602448,-0.638003 z m 14.609374,-2.995461 c -2.100532,-0.844311 -1.619317,-1.194445 1.506121,-1.095857 1.788615,0.05642 2.236581,0.184742 1.194682,0.342225 -0.916821,0.138578 -1.5108,0.504612 -1.319954,0.813407 0.404312,0.65419 0.394326,0.653758 -1.380849,-0.05977 z"
         id="path3512" />
      <path
         style="fill:#a3a3a3;fill-opacity:1;stroke-width:0.602448"
         d="m 33.423891,88.513586 c -1.094456,-1.145315 0.356505,-2.115118 3.035188,-2.028679 1.774843,0.05729 2.19166,0.181994 1.140441,0.341239 -2.55267,0.386699 -1.960751,1.375841 0.823325,1.375841 2.141974,0 2.439157,-0.156407 2.180025,-1.147327 -0.246609,-0.943036 0.08951,-1.193709 1.887693,-1.407813 1.203249,-0.143268 2.989033,0.07379 3.968409,0.482338 l 1.780682,0.742825 -2.383131,0.682279 c -2.972677,0.851067 -11.879338,1.538304 -12.432632,0.959297 z m 1.464611,-3.749007 c -0.847434,-0.163227 -1.355509,-0.697002 -1.355509,-1.424079 0,-0.993209 0.437633,-1.162997 2.997681,-1.162997 1.935441,0 3.696651,0.42616 4.9702,1.202644 l 1.972518,1.202644 -1.939049,0.0024 c -1.476595,0.0018 -1.856346,-0.213266 -1.592278,-0.901419 0.268743,-0.700334 -0.142188,-0.903673 -1.826253,-0.903673 -2.162025,0 -3.102546,1.331869 -1.419964,2.010804 0.879701,0.354969 0.113929,0.343878 -1.807346,-0.02615 z m -1.768533,-4.846257 c -0.206365,-0.579857 -0.454641,-1.20856 -0.551724,-1.397114 -0.09708,-0.188555 0.690249,-0.213472 1.749626,-0.05536 1.059377,0.158094 1.587263,0.402736 1.17308,0.543643 -1.401295,0.476717 -0.764117,1.503253 0.75306,1.213229 0.828367,-0.158354 1.506121,-0.0544 1.506121,0.230991 0,0.285391 -0.957364,0.5189 -2.127477,0.5189 -1.4816,0 -2.241386,-0.320068 -2.502686,-1.054284 z m -1.746701,-3.011291 c 0.203087,-0.203085 -0.350293,-1.120288 -1.229735,-2.038227 l -1.598985,-1.668981 1.686808,0.451119 c 0.927744,0.248119 2.060431,1.013831 2.517081,1.70158 0.746228,1.123879 0.69996,1.28454 -0.457072,1.587108 -0.70804,0.185156 -1.121184,0.170487 -0.918097,-0.03259 z M 7.0619104,72.589796 C 5.3767499,70.223204 3.2138601,65.304845 3.6614582,64.857244 c 0.1933597,-0.193356 0.3515632,-0.03527 0.3515632,0.351294 0,0.941729 1.0653126,0.900943 1.3113349,-0.05018 0.1071324,-0.414184 1.1816828,1.203909 2.3878899,3.595761 1.7490319,3.468254 2.0354093,4.479704 1.4143097,4.995165 -0.5876709,0.48772 -1.0943529,0.203178 -2.0646455,-1.15947 z M 10.72225,71.131371 C 9.688818,69.886158 6.4216064,62.649668 6.4614773,61.694257 c 0.021641,-0.518581 0.2683119,-0.330311 0.578848,0.441806 0.2976252,0.740005 0.8904199,1.21597 1.3173221,1.057694 0.6299008,-0.233545 2.8967436,3.521378 4.5669496,7.564945 0.325957,0.789141 -1.587928,1.112999 -2.202347,0.372669 z m 16.334423,-0.469699 c -1.076877,-0.689647 -1.957957,-1.378836 -1.957957,-1.531527 0,-0.15269 0.271101,-0.110067 0.602448,0.09472 0.331347,0.204785 0.602449,-0.003 0.602449,-0.461879 0,-0.836367 -2.426422,-3.454035 -3.201683,-3.454035 -0.756934,0 -0.425791,1.395927 0.631859,2.663581 0.574676,0.688785 0.159993,0.44839 -0.921519,-0.534209 -2.204665,-2.003033 -5.577303,-8.27941 -5.485332,-10.208038 0.05567,-1.167393 0.08864,-1.157777 0.451837,0.131779 0.599612,2.128974 1.623786,1.703005 1.386418,-0.576632 -0.29188,-2.803173 -0.732348,-3.293698 -1.759968,-1.959981 -0.797077,1.034503 -0.847651,0.823345 -0.52171,-2.178278 0.393668,-3.62532 1.977922,-8.823741 2.854129,-9.365266 0.302844,-0.187169 0.23343,0.355864 -0.154255,1.20674 -0.881902,1.935564 -0.198764,2.752811 1.000367,1.196751 0.720766,-0.935305 0.70391,-0.692599 -0.08674,1.248876 -0.556252,1.36591 -0.983465,4.106106 -0.986217,6.325709 -0.0068,5.46977 1.800103,9.413172 6.119148,13.35463 4.068205,3.71254 5.335679,5.326126 4.1719,5.311119 -0.432972,-0.0054 -1.668302,-0.574404 -2.745179,-1.264057 z m -6.171032,-0.520341 c -1.456447,-0.3553 -6.056297,-6.097561 -6.004427,-7.495681 0.01327,-0.357595 0.428577,0.09536 0.922913,1.006565 0.93498,1.723436 2.051251,2.207413 2.084293,0.903672 0.01049,-0.414183 0.618729,0.06024 1.351625,1.054285 0.732896,0.99404 2.090764,2.507691 3.017485,3.363668 1.699047,1.569348 1.38188,1.839257 -1.371889,1.167491 z m -4.579667,-1.368305 -1.147657,-1.355509 1.355509,1.147658 c 1.273844,1.078516 1.629768,1.56336 1.147657,1.56336 -0.114319,0 -0.724298,-0.609979 -1.355509,-1.355509 z m -4.80449,-4.260979 c -1.6717931,-3.590633 -1.8083458,-4.625135 -0.61051,-4.625135 0.469408,0 0.990209,-0.338877 1.157335,-0.75306 0.167127,-0.414184 0.327918,-0.210857 0.357314,0.451836 0.02939,0.662693 0.704362,2.60289 1.499926,4.311542 1.418786,3.047172 1.423521,3.112653 0.247311,3.420239 -0.972491,0.254311 -1.473675,-0.275988 -2.651376,-2.805422 z M 4.4471597,62.320599 C 4.0968421,60.980984 2.8449149,60.630454 2.7480726,61.844869 2.7150439,62.259053 2.4709656,61.920175 2.2056762,61.091809 1.9403869,60.263442 1.7396948,56.739119 1.759694,53.25998 c 0.019999,-3.47914 0.1457031,-5.444628 0.2793423,-4.367751 0.2794601,2.251914 1.1647881,2.596283 1.5488174,0.602448 0.1435953,-0.74553 0.2995135,0.948856 0.3464849,3.765303 0.046971,2.816446 0.3747544,6.162864 0.7284068,7.436485 0.3536524,1.273623 0.5221222,2.436554 0.3743775,2.584298 -0.1477448,0.147744 -0.4132282,-0.284325 -0.5899632,-0.960164 z m 3.8305621,-0.97777 C 8.3066273,60.641011 8.449384,60.498257 8.6417012,60.97885 8.8157311,61.413742 8.7943279,61.933351 8.5941379,62.133545 8.3939491,62.333732 8.2515611,61.977908 8.27772,61.342829 Z m 5.4282502,-2.395606 c -0.360923,-1.433358 -0.610652,-4.315993 -0.554951,-6.405856 0.06723,-2.522485 0.18071,-3.040339 0.337591,-1.540569 0.256036,2.447687 1.318722,3.111049 1.447658,0.903673 0.04354,-0.74553 0.290435,0.455696 0.548638,2.669391 0.258205,2.213695 0.636831,4.552229 0.841391,5.196741 0.26681,0.840645 0.04182,1.258168 -0.796087,1.477284 -0.960929,0.251289 -1.284361,-0.156612 -1.82424,-2.300664 z M 5.6121335,58.276612 c -0.209525,-1.268088 -0.3839382,-3.897645 -0.3875849,-5.84346 -0.00542,-2.891787 0.1410109,-3.415313 0.801861,-2.866856 1.0640563,0.883088 1.6013023,0.269528 1.6013023,-1.82876 0,-1.873498 -0.9677636,-2.331168 -1.3800621,-0.652653 -0.1424319,0.579857 -0.1392621,0.105429 0.00704,-1.054284 0.3573454,-2.832545 3.2026444,-8.698053 5.8959172,-12.154281 2.863421,-3.674573 7.590789,-7.391682 8.182672,-6.433997 0.331842,0.536933 0.885346,0.521392 2.299998,-0.06458 1.024642,-0.42442 1.862986,-1.009886 1.862986,-1.301033 0,-0.70815 -1.023663,-0.668745 -2.449399,0.09429 -0.64091,0.343004 -1.165291,0.463637 -1.165291,0.268072 0,-0.623846 6.210819,-3.120045 9.518215,-3.825478 3.467106,-0.739498 8.647592,-0.881848 10.828453,-0.297545 1.284569,0.344166 1.303259,0.417225 0.301224,1.177511 -0.587575,0.445818 -2.559379,0.823207 -4.381785,0.838643 -8.060365,0.06827 -15.192513,3.042236 -20.840253,8.689974 -6.219055,6.219056 -9.1396781,14.010092 -8.4456214,22.52949 0.255358,3.134466 0.167221,4.282052 -0.3063896,3.989344 C 7.1897427,59.315008 6.6886225,59.456827 6.44182,59.856161 6.1746619,60.288433 5.8389395,59.649287 5.6121335,58.276612 Z M 13.652196,34.517337 c 0,-0.975973 -1.122648,-0.555588 -2.049285,0.76737 -1.270955,1.814542 -0.430773,2.831079 0.940384,1.137772 0.609895,-0.753189 1.108901,-1.610503 1.108901,-1.905142 z M 37.147684,23.137559 c 0,-0.331346 -0.813306,-0.602448 -1.807345,-0.602448 -0.99404,0 -1.807346,0.271102 -1.807346,0.602448 0,0.331347 0.813306,0.602449 1.807346,0.602449 0.994039,0 1.807345,-0.271102 1.807345,-0.602449 z M 9.5525038,57.778343 c 0.012278,-0.99404 0.1472974,-1.327758 0.3000446,-0.741595 0.1527466,0.586162 0.1427014,1.399468 -0.022321,1.807345 -0.1650269,0.407877 -0.2900018,-0.07171 -0.2777236,-1.06575 z m 1.7597832,-1.080695 c -0.05186,-1.249111 -0.341752,-1.637493 -1.124169,-1.506121 -0.915916,0.153789 -1.031283,-0.264147 -0.8790232,-3.184409 0.096394,-1.848787 0.4119693,-4.153153 0.7012782,-5.120812 0.505489,-1.690719 0.528785,-1.700603 0.596959,-0.253259 0.06395,1.357627 0.14732,1.405632 0.845616,0.486904 0.645343,-0.849059 0.736883,-0.145012 0.548316,4.217139 -0.240429,5.56187 -0.573138,8.150496 -0.688977,5.360558 z m 32.509891,-1.981751 c 0.02891,-0.701818 0.171662,-0.844573 0.363979,-0.36398 0.17403,0.434893 0.152627,0.954505 -0.04756,1.154693 -0.200189,0.200189 -0.342577,-0.155633 -0.316418,-0.790713 z M 15.499843,49.193453 c -0.02217,-0.414183 -0.446954,-0.753061 -0.943974,-0.753061 -1.233676,0 -1.126993,-0.989859 0.481396,-4.466686 1.093162,-2.363071 1.679334,-2.974127 2.904463,-3.027758 l 1.534898,-0.06719 -1.172487,1.987218 c -0.644868,1.09297 -1.530577,3.133215 -1.968241,4.533878 -0.437665,1.400663 -0.81389,2.207783 -0.836055,1.793599 z M 3.807434,46.5794 C 3.4746036,45.361178 3.3075443,45.272669 2.7715863,46.030599 1.2627935,48.164273 3.010814,42.435107 5.329221,37.647909 c 2.6228593,-5.41585 8.413812,-11.914417 12.565816,-14.101272 1.145577,-0.603374 1.608439,-0.709037 1.028583,-0.234809 -1.890128,1.545819 -1.209643,2.290116 1.090814,1.193105 1.505591,-0.717966 2.064245,-1.332115 1.87389,-2.060035 -0.195434,-0.74734 0.341412,-1.280505 1.921427,-1.908249 3.220887,-1.279669 8.696773,-2.399491 10.050927,-2.055421 0.877686,0.223007 0.755619,0.317258 -0.478297,0.369308 -0.911203,0.03844 -1.656733,0.356574 -1.656733,0.706972 0,0.376942 1.045506,0.561443 2.560406,0.451837 1.653689,-0.119649 2.507069,-0.451934 2.409794,-0.938312 -0.19503,-0.975152 4.332403,-1.006857 8.105569,-0.05676 2.393004,0.602565 2.629631,0.795466 1.757792,1.43297 C 45.847027,20.968 43.65804,21.094828 39.090536,20.879968 28.601799,20.386565 20.90743,23.132329 13.886585,29.874092 11.425767,32.237091 10.053593,33.183121 9.8429388,32.661941 9.6177387,32.104772 9.1610401,32.315441 8.2880694,33.379182 6.8242439,35.162899 6.6306883,36.671747 7.9296403,36.173293 8.5920565,35.9191 8.4269711,36.629519 7.3126018,38.828621 6.4758229,40.479924 5.4341284,43.226189 4.997725,44.931433 4.3193657,47.582117 4.1466991,47.821175 3.807434,46.5794 Z m 21.10587,-1.626469 c -0.193096,-0.965482 -0.211573,-2.405711 -0.04106,-3.200508 0.281543,-1.312329 0.143224,-1.257148 -1.505655,0.600671 -1.562294,1.760261 -1.764795,1.851173 -1.451059,0.651445 0.309693,-1.18427 0.191367,-1.327826 -0.785486,-0.952973 -0.835404,0.320575 -0.655843,-0.08497 0.656223,-1.482084 2.210049,-2.353313 6.267018,-5.389547 7.168143,-5.364635 0.364468,0.01007 0.188242,0.294649 -0.391615,0.632384 -0.579856,0.337736 -1.054284,0.9007 -1.054284,1.251033 0,0.350332 0.474428,0.471746 1.054284,0.26981 0.94326,-0.328493 0.953573,-0.287699 0.09793,0.387381 -0.525993,0.414996 -0.955238,1.223539 -0.953876,1.796762 0.003,1.23941 -1.436447,5.979143 -2.027604,6.676647 -0.228172,0.269219 -0.572846,-0.300451 -0.765942,-1.265933 z M 12.765712,44.373866 c 0.266475,-0.988991 0.107164,-1.355509 -0.589188,-1.355509 -0.795972,0 -0.707314,-0.475069 0.534046,-2.86163 0.818656,-1.573897 2.382058,-3.824514 3.474227,-5.001373 1.092169,-1.176859 1.646885,-1.697716 1.232702,-1.15746 -0.858086,1.119277 -0.994175,2.39353 -0.255628,2.39353 0.273588,0 1.147565,-0.692033 1.94217,-1.537852 1.070093,-1.139062 1.249858,-1.658294 0.693226,-2.002312 -0.57002,-0.35229 -0.49346,-0.691775 0.317011,-1.405711 1.532793,-1.350222 7.450473,-4.235425 7.855768,-3.830131 0.18795,0.187951 0.02544,0.341729 -0.361128,0.341729 -1.144418,0 -0.799871,1.202872 0.351428,1.226897 0.579856,0.0121 -0.436775,0.7402 -2.259182,1.617998 -4.209937,2.027799 -9.541337,7.338435 -11.659277,11.613866 -0.902773,1.822407 -1.477052,2.703488 -1.276175,1.957958 z m 35.654089,-1.354909 c -0.173211,-0.662363 -0.126791,-1.320573 0.103156,-1.462689 0.229948,-0.142115 0.472562,0.399819 0.539142,1.204297 0.146574,1.771007 -0.209301,1.914173 -0.642298,0.258392 z M 18.170559,38.801218 c 0.599729,-0.662693 1.225967,-1.204897 1.391641,-1.204897 0.165673,0 -0.189464,0.542204 -0.789193,1.204897 -0.599729,0.662693 -1.225967,1.204897 -1.39164,1.204897 -0.165674,0 0.189463,-0.542204 0.789192,-1.204897 z m 2.186455,0.0719 c 0.659206,-1.144905 0.671083,-1.490166 0.05887,-1.711556 -1.905302,-0.689001 7.18016,-6.142272 11.838586,-7.105748 l 2.034944,-0.420876 -1.131272,1.551966 c -1.246066,1.709451 -2.194318,2.103699 -1.650356,0.686157 0.412973,-1.076191 -0.164059,-1.127886 -2.704482,-0.24229 -2.053106,0.715718 -2.546793,1.74394 -0.842959,1.755668 0.580178,0.004 -0.164846,0.699891 -1.656733,1.547488 -1.49106,0.847127 -3.624826,2.402697 -4.741702,3.456822 -1.672714,1.578733 -1.885114,1.663765 -1.204896,0.482369 z m 21.309033,-4.289039 c 0.599729,-0.662693 1.225967,-1.204897 1.391641,-1.204897 0.165673,0 -0.189464,0.542204 -0.789193,1.204897 -0.599729,0.662693 -1.225967,1.204897 -1.39164,1.204897 -0.165674,0 0.189463,-0.542204 0.789192,-1.204897 z m 42.175654,0.0069 c -0.211062,-0.341504 0.03078,-0.442503 0.566892,-0.236769 1.043693,0.400505 1.234651,0.832319 0.368072,0.832319 -0.311792,0 -0.73253,-0.267996 -0.934964,-0.595548 z M 30.360105,28.548964 c 0.797527,-0.323383 1.214174,-0.887735 1.023068,-1.38575 -0.242814,-0.632762 0.524332,-0.939701 3.107414,-1.243291 1.886403,-0.22171 3.54267,-0.290261 3.680595,-0.152337 0.659567,0.659568 -3.468195,2.655891 -6.14431,2.971591 -2.088341,0.246362 -2.599564,0.18802 -1.666767,-0.190213 z m -1.15721,-1.605807 c 0.434893,-0.17403 0.954505,-0.152627 1.154693,0.04756 0.200189,0.200189 -0.155632,0.342577 -0.790713,0.316418 -0.701818,-0.0289 -0.844573,-0.171662 -0.36398,-0.363979 z"
         id="path3510" />
      <path
         style="fill:#8c8c8c;fill-opacity:1;stroke-width:0.602448"
         d="m 17.314448,92.670148 c 0.02891,-0.701822 0.171662,-0.844572 0.363979,-0.363981 0.17403,0.434889 0.152627,0.954501 -0.04756,1.154695 -0.200189,0.200187 -0.342577,-0.155637 -0.316418,-0.790714 z M 66.065207,75.32311 c 0,-0.125098 0.474429,-0.599526 1.054285,-1.054284 0.955519,-0.749368 0.976828,-0.728059 0.227461,0.22746 -0.787021,1.003528 -1.281746,1.322663 -1.281746,0.826824 z m 0,-22.893036 c 0,-0.125102 0.474429,-0.59953 1.054285,-1.054285 0.955519,-0.749368 0.976828,-0.728059 0.227461,0.227458 -0.787021,1.003527 -1.281746,1.322662 -1.281746,0.826827 z m 3.537843,-0.826827 c -0.749368,-0.955517 -0.728059,-0.976826 0.22746,-0.227458 0.579857,0.454755 1.054285,0.929183 1.054285,1.054285 0,0.495835 -0.494725,0.1767 -1.281745,-0.826827 z m -3.012243,-3.012243 c -0.749367,-0.955516 -0.728058,-0.976825 0.227461,-0.227457 0.579857,0.454755 1.054285,0.929183 1.054285,1.054285 0,0.495835 -0.494725,0.1767 -1.281746,-0.826828 z m 2.486642,0.826828 c 0,-0.125102 0.474429,-0.59953 1.054285,-1.054285 0.955519,-0.749368 0.976828,-0.728059 0.227461,0.227457 -0.787021,1.003528 -1.281746,1.322663 -1.281746,0.826828 z"
         id="path3508" />
      <path
         style="fill:#767676;fill-opacity:1;stroke-width:0.602448"
         d="m 56.951636,74.496286 c -0.749368,-0.955519 -0.72806,-0.976828 0.227457,-0.22746 1.003528,0.78702 1.322663,1.281745 0.826828,1.281745 -0.125102,0 -0.59953,-0.474428 -1.054285,-1.054285 z m -0.525603,-2.185418 c 0,-0.125098 0.474428,-0.599526 1.054285,-1.054284 0.955517,-0.749368 0.976825,-0.728059 0.227457,0.22746 -0.78702,1.003528 -1.281742,1.322663 -1.281742,0.826824 z m 30.045572,-2.031721 c -0.749368,-0.955519 -0.728059,-0.976828 0.22746,-0.22746 0.579857,0.454758 1.054285,0.929186 1.054285,1.054284 0,0.49584 -0.494725,0.176705 -1.281745,-0.826824 z m 4.293987,0.826824 c 0,-0.125098 0.474428,-0.599526 1.054285,-1.054284 0.955519,-0.749368 0.976828,-0.728059 0.22746,0.22746 -0.78702,1.003529 -1.281745,1.322664 -1.281745,0.826824 z M 53.045418,60.790585 c 0.001,-4.307506 0.09701,-5.990618 0.213241,-3.740248 0.116229,2.25037 0.115367,5.774692 -0.0019,7.83183 -0.11727,2.057133 -0.212367,0.215924 -0.211313,-4.091582 z m 38.245774,4.668975 c -0.749367,-0.955519 -0.728059,-0.976828 0.227461,-0.227461 1.003528,0.787021 1.322663,1.281746 0.826824,1.281746 -0.125099,0 -0.599527,-0.474429 -1.054285,-1.054285 z M 56.951636,63.049766 c -0.749368,-0.955519 -0.72806,-0.976828 0.227457,-0.22746 1.003528,0.78702 1.322663,1.281745 0.826828,1.281745 -0.125102,0 -0.59953,-0.474428 -1.054285,-1.054285 z m -0.525603,-2.185414 c 0,-0.125103 0.474428,-0.599531 1.054285,-1.054285 0.955517,-0.749368 0.976825,-0.72806 0.227457,0.227457 -0.78702,1.003527 -1.281742,1.322663 -1.281742,0.826828 z m 34.339559,0 c 0,-0.125103 0.474428,-0.599531 1.054285,-1.054285 0.955519,-0.749368 0.976828,-0.72806 0.22746,0.227457 -0.78702,1.003527 -1.281745,1.322663 -1.281745,0.826828 z m -4.819587,-4.819588 c 0,-0.125102 0.474428,-0.59953 1.054285,-1.054284 0.955519,-0.749369 0.976827,-0.72806 0.22746,0.227457 -0.787021,1.003527 -1.281745,1.322663 -1.281745,0.826827 z m 5.345187,-0.826827 c -0.749367,-0.955517 -0.728059,-0.976826 0.227461,-0.227457 1.003528,0.787019 1.322663,1.281742 0.826824,1.281742 -0.125099,0 -0.599527,-0.474428 -1.054285,-1.054285 z M 86.471605,50.39835 c -0.749368,-0.955517 -0.728059,-0.976826 0.22746,-0.227458 1.003529,0.78702 1.322664,1.281742 0.826825,1.281742 -0.125099,0 -0.599527,-0.474428 -1.054285,-1.054284 z m 4.293987,0.826827 c 0,-0.125102 0.474428,-0.59953 1.054285,-1.054285 0.955519,-0.749368 0.976828,-0.728059 0.22746,0.227458 -0.78702,1.003527 -1.281745,1.322663 -1.281745,0.826827 z M 56.426033,49.417832 c 0,-0.125102 0.474428,-0.59953 1.054285,-1.054285 0.955517,-0.749368 0.976825,-0.728059 0.227457,0.227457 -0.78702,1.003528 -1.281742,1.322663 -1.281742,0.826828 z m -6.024484,-3.021554 c 0,-0.130223 0.420733,-0.398219 0.934962,-0.595548 0.536134,-0.205733 0.777955,-0.104735 0.566894,0.236769 -0.353793,0.572449 -1.501856,0.84671 -1.501856,0.358779 z m 40.889643,-0.817516 c -0.749367,-0.955516 -0.728059,-0.976825 0.227461,-0.227457 1.003528,0.78702 1.322663,1.281742 0.826824,1.281742 -0.125099,0 -0.599527,-0.474428 -1.054285,-1.054285 z m -15.663658,-7.22938 c -0.749368,-0.955517 -0.728059,-0.976826 0.22746,-0.227458 1.003528,0.78702 1.322663,1.281742 0.826824,1.281742 -0.125098,0 -0.599526,-0.474428 -1.054284,-1.054284 z M 53.336946,37.746933 c -0.749369,-0.955517 -0.72806,-0.976825 0.227457,-0.227457 0.579857,0.454754 1.054285,0.929182 1.054285,1.054284 0,0.495836 -0.494723,0.1767 -1.281742,-0.826827 z M 43.172168,37.268455 c 0,-0.06988 0.361469,-0.427042 0.803264,-0.7937 0.600258,-0.498168 0.803265,-0.46606 0.803265,0.12705 0,0.436535 -0.361469,0.7937 -0.803265,0.7937 -0.441795,0 -0.803264,-0.05717 -0.803264,-0.12705 z m 42.498343,-8.064784 c -0.190639,-0.308451 -0.116266,-0.703178 0.165258,-0.877171 0.28153,-0.173993 0.51187,0.07838 0.51187,0.56082 0,1.015829 -0.189976,1.104584 -0.677128,0.316351 z M 58.120419,17.906431 c 0.434892,-0.17403 0.954504,-0.152627 1.154693,0.04756 0.200188,0.200189 -0.155633,0.342577 -0.790714,0.316418 -0.701818,-0.02891 -0.844572,-0.171662 -0.363979,-0.363979 z"
         id="path3506" />
      <path
         style="fill:#606060;fill-opacity:1;stroke-width:0.602448"
         d="m 14.177799,88.955048 c -0.749368,-0.95552 -0.728059,-0.976828 0.227457,-0.227461 0.579857,0.454759 1.054285,0.929187 1.054285,1.054285 0,0.495839 -0.494722,0.176704 -1.281742,-0.826824 z m 31.74412,-3.941898 c 0.226238,-0.594147 0.563104,-0.928506 0.74859,-0.743018 0.185486,0.185488 3.82e-4,0.671603 -0.411342,1.080268 -0.594988,0.590556 -0.664188,0.521359 -0.337248,-0.33725 z m 17.733495,-6.084657 c 0,-1.746619 1.306114,-2.371141 2.750345,-1.315091 1.449443,1.059858 0.695208,2.756756 -1.225319,2.756756 -1.206879,0 -1.525026,-0.300754 -1.525026,-1.441665 z M 34.661045,76.303631 c -0.749368,-0.955519 -0.72806,-0.976828 0.227457,-0.22746 0.579857,0.454758 1.054285,0.929186 1.054285,1.054285 0,0.495839 -0.494722,0.176704 -1.281742,-0.826825 z M 48.889355,65.90157 c -0.208125,-0.33675 -0.672664,-0.430413 -1.032312,-0.20814 -0.399702,0.247028 -0.479768,0.122376 -0.205961,-0.320653 0.343002,-0.554987 0.647084,-0.559512 1.297981,-0.01934 0.852577,0.707575 1.080611,1.160382 0.584368,1.160382 -0.146119,0 -0.435953,-0.275524 -0.644076,-0.612275 z M 25.977616,48.400311 c -0.218407,-0.353392 -0.267898,-0.771737 -0.10998,-0.929655 0.157919,-0.157919 0.447659,0.131219 0.643868,0.64253 0.407366,1.061578 0.06015,1.248308 -0.533888,0.287125 z M 46.54769,43.118765 c -0.170653,-0.276123 0.07252,-0.502041 0.540393,-0.502041 0.467868,0 0.711045,0.225918 0.540392,0.502041 -0.170652,0.276122 -0.413829,0.50204 -0.540392,0.50204 -0.126563,0 -0.36974,-0.225918 -0.540393,-0.50204 z m -5.785316,-8.762143 c 0,-0.125102 0.474428,-0.599531 1.054285,-1.054285 0.955517,-0.749368 0.976826,-0.72806 0.227457,0.227457 -0.78702,1.003528 -1.281742,1.322663 -1.281742,0.826828 z m -2.409793,-3.086009 c 0.778209,-0.828367 1.550478,-1.506121 1.716151,-1.506121 0.165673,0 -0.335493,0.677754 -1.113703,1.506121 -0.77821,0.828366 -1.550478,1.506121 -1.716151,1.506121 -0.165674,0 0.335493,-0.677755 1.113703,-1.506121 z M 37.448908,30.36694 c 0.599729,-0.662693 1.225967,-1.204897 1.391641,-1.204897 0.165673,0 -0.189464,0.542204 -0.789193,1.204897 -0.599728,0.662693 -1.225967,1.204897 -1.39164,1.204897 -0.165674,0 0.189463,-0.542204 0.789192,-1.204897 z m 17.16978,-3.650245 c 0,-0.350901 0.271101,-0.470453 0.602448,-0.265669 0.331347,0.204783 0.602448,0.491884 0.602448,0.638003 0,0.146118 -0.271101,0.265669 -0.602448,0.265669 -0.331347,0 -0.602448,-0.287101 -0.602448,-0.638003 z m 19.880797,-0.531339 c 0,-0.311792 0.267999,-0.732525 0.59555,-0.934963 0.341504,-0.211061 0.442499,0.03076 0.236769,0.566894 -0.400502,1.043692 -0.832319,1.23465 -0.832319,0.368069 z M 45.505116,22.083275 c -0.749368,-0.955517 -0.728059,-0.976826 0.227458,-0.227458 1.003527,0.78702 1.322662,1.281742 0.826827,1.281742 -0.125102,0 -0.59953,-0.474428 -1.054285,-1.054284 z m 13.933159,-3.765303 c 0,-0.331347 0.271102,-0.602448 0.602448,-0.602448 0.331347,0 0.602449,0.271101 0.602449,0.602448 0,0.331347 -0.271102,0.602448 -0.602449,0.602448 -0.331346,0 -0.602448,-0.271101 -0.602448,-0.602448 z"
         id="path3504" />
      <path
         style="fill:#494949;fill-opacity:1;stroke-width:0.602448"
         d="M 49.7991,87.034153 C 45.458904,85.703314 40.165926,82.315572 36.197177,78.32831 16.95666,58.998046 25.791392,26.067107 52.042804,19.264683 c 2.009412,-0.520691 4.563201,-0.906092 5.675086,-0.856445 1.822727,0.08139 1.858623,0.114956 0.364876,0.34124 -2.539176,0.384653 -1.967407,1.375839 0.793658,1.375839 2.102048,0 2.400554,-0.157024 2.099813,-1.104576 -0.318373,-1.003104 -0.03154,-1.080364 3.122253,-0.841014 4.144918,0.314567 11.343381,2.592796 15.043053,4.760948 3.826011,2.242193 8.777565,6.944877 11.276593,10.709822 3.013923,4.540661 3.158149,5.060272 1.306307,4.70627 C 90.730397,38.166743 89.550399,37.04815 88.317947,35.127543 84.329172,28.911572 76.805362,23.628591 69.077449,21.617475 c -5.14712,-1.33949 -13.876285,-0.937628 -18.977124,0.873644 -7.650339,2.716583 -14.600481,8.850113 -18.109265,15.981504 -2.184385,4.439631 -3.859181,10.987728 -3.859181,15.088581 0,4.046771 1.669107,10.63507 3.738199,14.755419 2.354997,4.6897 8.407953,11.031927 13.109435,13.735938 1.822407,1.04814 2.839038,1.91169 2.259182,1.918997 -1.701468,0.02145 -1.211454,1.045526 0.842959,1.761698 2.318013,0.808064 2.922343,0.82865 2.922343,0.09954 0,-0.30902 -0.562634,-0.740428 -1.250298,-0.958683 -0.687663,-0.218255 -1.138277,-0.508846 -1.001364,-0.645764 0.136913,-0.136912 1.106201,0.04994 2.15397,0.415171 1.237997,0.431564 1.905037,1.065352 1.905037,1.810063 0,1.214331 -0.580509,1.326217 -3.012242,0.580573 z m -12.048968,-9.27 c 0,-0.439257 -0.649154,-1.408506 -1.442565,-2.153874 -1.947169,-1.829268 -2.781537,-0.484832 -0.925331,1.491012 1.530779,1.629436 2.367896,1.863783 2.367896,0.662862 z M 29.158204,63.199788 c -0.355826,-1.159388 -0.872573,-2.107979 -1.148326,-2.107979 -0.674229,0 -0.632439,1.384167 0.09995,3.310496 0.893823,2.350935 1.814759,1.294589 1.048375,-1.202517 z M 28.110958,48.103613 c 0,-1.140158 -0.237214,-2.073014 -0.527143,-2.073014 -0.642187,0 -1.409438,3.520641 -0.934664,4.288841 0.655374,1.060416 1.461807,-0.161986 1.461807,-2.215827 z m 6.62394,-15.477491 c 0.0063,-0.947971 -1.164007,-0.388839 -2.354867,1.125094 -0.682228,0.867313 -1.064725,1.861203 -0.849995,2.208644 0.3717,0.601423 3.198272,-2.338814 3.204862,-3.333738 z m 53.23787,-1.246525 c -0.732746,-1.294554 -2.205498,-2.820002 -2.722585,-2.820002 -0.923306,0 -0.530673,1.405475 0.783394,2.804233 1.283612,1.366343 2.71021,1.377943 1.939191,0.01577 z m -42.148929,-7.80471 c 0.634387,-0.47396 0.884216,-1.01737 0.559883,-1.217818 -0.813518,-0.502783 -4.56053,1.867319 -4.108485,2.598744 0.381954,0.618014 1.40693,0.219148 3.548602,-1.380926 z M 76.30683,22.631813 c 0,-0.601185 -2.698896,-1.904047 -3.94426,-1.904047 -1.437869,0 -0.993268,0.925697 0.781406,1.626959 2.097701,0.828905 3.162854,0.92222 3.162854,0.277088 z m 2.286322,60.929442 c 1.482403,-1.210078 1.249014,-2.137614 -0.387266,-1.539081 -0.547457,0.200254 0.318991,-0.650271 1.925443,-1.890061 1.606459,-1.239791 3.066234,-2.108763 3.24395,-1.931052 0.840795,0.840801 -1.332146,3.910348 -3.639746,5.141589 -1.968452,1.050291 -2.220257,1.098475 -1.142381,0.218605 z M 49.740053,82.844751 C 41.661841,79.684301 34.710959,72.653119 31.592731,64.48778 30.138942,60.680915 29.336548,53.755613 29.90792,49.946513 c 0.256767,-1.711758 0.486594,-2.296976 0.532336,-1.355509 0.08968,1.845814 1.045448,2.236835 1.472557,0.602449 0.151533,-0.579857 0.306962,1.133099 0.345399,3.80657 0.123937,8.620522 2.917271,15.328643 8.778226,21.080688 2.556759,2.509246 4.979505,4.19962 7.747491,5.40548 3.275752,1.427074 4.027413,2.010612 4.027413,3.126593 0,0.754639 -0.06778,1.359383 -0.150612,1.343888 -0.08284,-0.01548 -1.397141,-0.515865 -2.920677,-1.111921 z m 1.263944,-1.172991 c 0,-0.437938 -2.573191,-1.90405 -3.341813,-1.90405 -0.802832,0 -0.112996,1.760776 0.781407,1.994507 1.780625,0.465332 2.560406,0.437776 2.560406,-0.09046 z m -11.44652,-7.533937 c 0,-0.996425 -2.065565,-2.947804 -2.577939,-2.435428 -0.455021,0.455018 1.303098,3.245727 2.044779,3.245727 0.293238,0 0.53316,-0.364638 0.53316,-0.810299 z M 32.922319,62.748542 c -0.01612,-1.475568 -0.743387,-3.464078 -1.266935,-3.464078 -0.6109,0 -0.705727,1.859004 -0.166505,3.264192 0.434581,1.1325 1.445167,1.273419 1.43344,0.199886 z m 44.589408,16.261534 c 0,-0.793171 0.669808,-2.07138 1.488457,-2.840465 1.240478,-1.165365 1.643203,-1.269913 2.417228,-0.627535 1.074334,0.891624 0.587189,1.710924 -2.195448,3.692328 l -1.710237,1.217801 z M 48.344575,77.87166 C 28.564504,67.667714 28.812491,38.839374 48.766209,28.856936 c 2.313861,-1.157578 4.645023,-2.094075 5.180361,-2.081105 0.535338,0.01297 0.02449,0.466712 -1.135228,1.008316 -1.910666,0.892312 -1.980426,1.00724 -0.743257,1.224502 1.121442,0.196939 0.744814,0.550189 -2.108569,1.977683 -4.202218,2.102292 -8.505165,6.350143 -10.96756,10.827128 -1.002344,1.822406 -1.827356,2.839038 -1.833359,2.259181 -0.01762,-1.702396 -1.04333,-1.21094 -1.759324,0.84296 -0.827909,2.374943 -0.83261,2.319895 0.198116,2.319895 0.472724,0 0.976018,-0.338878 1.118431,-0.753061 0.142413,-0.414183 0.154962,-0.210857 0.02789,0.451836 -0.127075,0.662694 -0.400076,3.052581 -0.606667,5.310861 -0.221172,2.417672 -0.572578,3.787279 -0.854627,3.330914 -0.809301,-1.309477 -1.313454,-0.07893 -0.890764,2.174206 0.474221,2.527812 1.534126,2.847578 1.590787,0.479927 0.02716,-1.134884 0.31889,-0.613035 0.926168,1.656733 1.816502,6.789377 6.869384,12.960967 12.940026,15.804945 2.193448,1.027584 2.919427,1.699778 2.938019,2.720344 0.03109,1.706501 -0.122469,1.687813 -4.442073,-0.540541 z m 3.261871,0.104175 c 0,-0.523443 -3.047285,-2.425264 -3.885997,-2.425264 -0.943991,0 -0.122735,1.27948 1.325591,2.065211 1.96817,1.067749 2.560406,1.151032 2.560406,0.360053 z M 40.732257,68.88134 c -1.215385,-1.70685 -2.379676,-2.31542 -2.379676,-1.243845 0,0.972665 2.503047,3.709414 3.071389,3.358156 0.310813,-0.192091 -4.58e-4,-1.143531 -0.691713,-2.114311 z m 2.741135,-34.297261 c 1.046825,-1.092649 1.40454,-1.807345 0.904602,-1.807345 -0.912985,0 -3.61562,2.330114 -3.61562,3.117257 0,0.961209 0.996393,0.479771 2.711018,-1.309912 z m 4.640746,38.588568 C 40.227695,68.075391 35.939781,58.161505 37.760073,49.233496 c 1.536024,-7.533755 6.850859,-14.335964 13.715,-17.553185 3.01657,-1.413866 4.193814,-1.614595 9.469323,-1.614595 5.279888,0 6.451542,0.200148 9.479803,1.619394 4.241478,1.987838 7.107813,4.130551 9.206839,6.882514 1.289643,1.690812 1.457251,2.264645 0.868634,2.973885 -0.615858,0.742064 -1.226054,0.361864 -3.921421,-2.443359 -1.767137,-1.83916 -4.566854,-3.959116 -6.271783,-4.749022 -2.414818,-1.118801 -2.847418,-1.516341 -2.003755,-1.841361 0.917324,-0.353397 0.942723,-0.485374 0.172288,-0.895146 -2.038956,-1.084458 -4.217139,-1.288678 -4.217139,-0.395387 0,0.480288 0.609979,0.95988 1.355509,1.065763 0.74553,0.105882 -1.084407,0.192513 -4.066527,0.192513 -4.713748,0 -5.917167,0.228634 -9.21233,1.750221 -4.75943,2.197733 -9.181806,6.863382 -10.927159,11.528255 -1.48484,3.96859 -1.639094,10.790393 -0.326384,14.43415 1.088022,3.02008 1.091655,3.222147 0.03189,1.772825 -1.216469,-1.663619 -1.858893,-0.646549 -0.960931,1.521327 0.802237,1.936769 2.616652,2.615813 2.063794,0.772375 -0.184901,-0.616534 0.124099,-0.428925 0.744197,0.451836 1.835479,2.60703 6.004708,6.423233 7.965793,7.291295 1.308634,0.57926 1.885631,1.250532 1.885631,2.193719 0,0.747482 -0.229071,1.359058 -0.509047,1.359058 -0.279976,0 -2.164646,-1.070063 -4.188157,-2.377924 z m 1.986187,-0.954218 c -1.827837,-1.498259 -3.313467,-1.928004 -3.313467,-0.958478 0,0.82139 2.574433,2.418951 3.915915,2.430012 1.03855,0.0086 0.955377,-0.194597 -0.602448,-1.471534 z M 39.443232,50.653005 c 0.107743,-1.274973 -0.08373,-2.212613 -0.451836,-2.212613 -0.351349,0 -0.638815,0.237214 -0.638815,0.527143 0,0.289928 -0.176701,1.410644 -0.392668,2.490479 -0.305942,1.529711 -0.206149,1.901966 0.451837,1.68547 0.468416,-0.154123 0.927772,-1.263222 1.031482,-2.490479 z M 44.325131,39.63408 c 0.682227,-0.867312 1.064725,-1.861202 0.849994,-2.208643 -0.3717,-0.601423 -3.198272,2.338814 -3.204862,3.333738 -0.0063,0.947971 1.164007,0.388839 2.354868,-1.125095 z m 33.445028,-2.082423 c -0.906239,-0.945911 -1.899556,-1.564188 -2.207365,-1.37395 -0.307814,0.190238 0.181813,1.119815 1.088052,2.065726 0.906239,0.945911 1.899556,1.564189 2.207365,1.373951 0.307815,-0.190239 -0.181813,-1.119815 -1.088052,-2.065727 z m -23.24137,-4.833858 c 1.94567,-0.678264 2.577809,-1.74841 1.032791,-1.74841 -1.447056,0 -3.955134,1.13664 -3.955134,1.792434 0,0.785579 0.567046,0.777037 2.922343,-0.04402 z m 22.982938,41.233072 c 0,-2.437313 1.523936,-3.857013 2.120974,-1.975904 0.291651,0.918909 0.0382,1.684217 -0.853007,2.575389 l -1.267967,1.267967 z M 49.361954,69.360389 C 37.439082,60.260944 39.174797,42.134065 52.603453,35.507922 c 2.973681,-1.467313 4.270943,-1.740926 8.340943,-1.759234 6.950995,-0.03127 12.586708,2.7554 16.24319,8.031705 1.453816,2.097859 1.563233,2.607346 1.063249,4.951086 l -0.557337,2.612586 -0.477067,-1.807345 c -1.09248,-4.13881 -6.091368,-9.019754 -10.795315,-10.540612 -3.179867,-1.028101 -8.435554,-0.921401 -10.042108,0.203874 -0.712909,0.499341 -1.739502,0.749598 -2.281319,0.556128 -0.541817,-0.193471 -0.779316,-0.125356 -0.527776,0.151366 0.251541,0.276721 -0.114447,1.111776 -0.813305,1.855677 -1.245051,1.325296 -1.739226,4.82693 -0.877893,6.220596 0.23867,0.386176 0.02595,0.494739 -0.542204,0.276718 -0.560354,-0.215028 -0.938658,-0.03122 -0.944187,0.458737 -0.02329,2.063753 -1.17993,-1.183458 -1.210931,-3.399623 l -0.03371,-2.409794 -1.803316,2.10857 c -5.808287,6.791477 -4.073667,19.11338 3.40783,24.207576 1.307296,0.890147 2.052403,1.887958 2.055028,2.75199 0.0054,1.775265 -0.406832,1.701381 -3.445272,-0.617534 z m 1.642043,-0.766874 c 0,-0.665188 -3.321605,-3.164481 -3.806979,-2.864504 -0.655081,0.404863 1.97199,3.194627 3.008322,3.194627 0.439261,0 0.798657,-0.148551 0.798657,-0.330123 z M 43.45779,56.724058 c -0.54729,-2.597361 -1.490519,-3.562582 -1.490519,-1.525271 0,1.998058 0.561633,3.483228 1.31722,3.483228 0.343967,0 0.41552,-0.808413 0.173299,-1.957957 z m 2.772393,-13.217304 c 0.352848,-0.641329 0.339954,-1.153677 -0.03486,-1.385328 -0.731425,-0.452045 -3.101527,3.294967 -2.598745,4.108485 0.348443,0.563793 1.454296,-0.579661 2.63361,-2.723157 z m 31.883993,1.084465 c 0,-1.132995 -2.202769,-3.784323 -2.717856,-3.271305 -0.468109,0.466228 1.522381,4.108236 2.245301,4.108236 0.259902,0 0.472555,-0.376618 0.472555,-0.836931 z M 53.112567,38.801218 c 0.204783,-0.331347 0.08523,-0.602449 -0.26567,-0.602449 -0.350901,0 -0.638003,0.271102 -0.638003,0.602449 0,0.331346 0.119551,0.602448 0.26567,0.602448 0.146118,0 0.433219,-0.271102 0.638003,-0.602448 z m 1.71398,-1.957957 c -0.153433,-0.24851 0.143684,-0.451837 0.660259,-0.451837 0.516574,0 0.939227,-0.381277 0.939227,-0.847283 0,-0.689955 -0.391529,-0.727119 -2.10857,-0.200144 -2.391582,0.733997 -2.85673,2.169743 -0.660258,2.037981 0.79657,-0.04778 1.322775,-0.290207 1.169342,-0.538717 z m 14.250902,-0.466748 c 0,-0.655793 -2.508077,-1.792434 -3.955134,-1.792434 -1.456352,0 -0.960802,1.0693 0.79228,1.709579 2.206112,0.805741 3.162854,0.830804 3.162854,0.08286 z m 8.574046,31.944677 c 0,-1.159713 0.123984,-1.634141 0.275518,-1.054285 0.151528,0.579857 0.151528,1.528713 0,2.10857 -0.151534,0.579856 -0.275518,0.105428 -0.275518,-1.054285 z m 0.04079,-7.229381 c 0,-1.822406 0.112941,-2.567936 0.250974,-1.656733 0.138039,0.911203 0.138039,2.402263 0,3.313466 -0.138033,0.911203 -0.250974,0.165673 -0.250974,-1.656733 z M 51.774014,50.097125 c -0.903181,-1.167811 -1.471325,-2.259181 -1.176083,-2.259181 0.14712,0 0.711573,0.677754 1.254339,1.506121 1.015628,1.550043 0.959067,2.094319 -0.07826,0.75306 z m 21.044983,-1.416271 c -0.427244,-0.463601 -0.51102,-0.84291 -0.186162,-0.84291 0.625606,0 1.531255,1.145985 1.173919,1.48544 -0.11602,0.110209 -0.560506,-0.178929 -0.987757,-0.64253 z M 32.360494,47.020428 c -0.02247,-0.775803 -0.329952,-1.004557 -1.003089,-0.74625 -1.361687,0.522528 -0.755208,-1.80548 1.887111,-7.243797 2.482324,-5.109022 8.594399,-11.25094 13.618837,-13.685336 11.820159,-5.726998 25.523014,-3.943436 35.209385,4.582848 2.97736,2.620778 6.450258,7.300413 5.857648,7.893024 -0.860092,0.860092 -2.437296,0.276822 -3.223419,-1.192061 -1.40309,-2.621694 -7.032488,-7.327589 -11.071538,-9.255251 -15.83177,-7.555807 -34.815284,0.686508 -40.179747,17.445355 -0.584534,1.826114 -1.077368,2.816775 -1.095188,2.201468 z m 5.429683,-12.925041 c -0.845777,-0.281926 -2.411465,1.599833 -2.41164,2.898486 -7.8e-5,0.578022 0.563957,0.261769 1.565186,-0.877598 0.998233,-1.135957 1.304884,-1.868078 0.846454,-2.020888 z m 47.553379,0.750311 c 0,-0.967155 -1.358707,-2.671413 -2.129763,-2.671413 -1.14864,0 -1.115584,0.551217 0.114567,1.91052 0.963478,1.06463 2.015196,1.461736 2.015196,0.760893 z M 47.72505,27.102731 c 0.642666,-0.469929 0.966729,-1.056171 0.72014,-1.302759 -0.568827,-0.568827 -3.465677,0.719924 -3.465677,1.54181 0,0.879644 1.379947,0.759493 2.745537,-0.239051 z m 27.376884,-0.856228 c 0,-0.5253 -2.637971,-1.904047 -3.643036,-1.904047 -1.106523,0 -0.560825,1.249061 0.781406,1.788572 1.755884,0.705779 2.86163,0.750399 2.86163,0.115475 z M 61.848069,23.137559 c 0,-0.331346 -0.948857,-0.602448 -2.10857,-0.602448 -1.159713,0 -2.108569,0.271102 -2.108569,0.602448 0,0.331347 0.948856,0.602449 2.108569,0.602449 1.159713,0 2.10857,-0.271102 2.10857,-0.602449 z m 17.585782,13.241937 c -1.790248,-2.047916 -4.024886,-3.675991 -7.198138,-5.244297 -4.515297,-2.231581 -4.732052,-2.27438 -11.518455,-2.27438 -3.804108,0 -6.436257,-0.0925 -5.849219,-0.205551 0.690977,-0.13307 0.967551,-0.587146 0.784345,-1.287728 -0.716092,-2.738338 10.885492,-1.888865 17.533185,1.283787 4.433002,2.115677 11.141494,8.355474 10.573747,9.835003 -0.580248,1.5121 -1.593157,1.018736 -4.325465,-2.106834 z m -0.114779,-2.208425 c 0,-0.601049 -2.532054,-3.201682 -3.117254,-3.201682 -0.952182,0 -0.488556,1.320391 0.858073,2.443794 1.412988,1.178759 2.259181,1.462632 2.259181,0.757888 z M 68.475001,28.021602 c 0,-0.696249 -1.518254,-1.269352 -3.36274,-1.269352 -1.836739,0 -1.912497,1.033332 -0.101338,1.382177 2.431759,0.468378 3.464078,0.434755 3.464078,-0.112825 z"
         id="path3502" />
      <path
         style="fill:#333333;fill-opacity:1;stroke-width:0.602448"
         d="M 14.658367,98.068164 C 8.0230289,96.029569 3.6744195,88.538039 5.1914687,81.759151 8.1569423,68.508015 25.857143,66.288722 31.968198,78.40182 c 3.771778,7.476271 -0.571814,17.277823 -8.730424,19.700672 -3.811746,1.131964 -4.796112,1.12803 -8.579407,-0.03434 z m 9.536676,-5.672413 c 7.773211,-4.723665 4.046802,-17.076894 -5.151325,-17.076894 -9.2022064,0 -12.8089136,12.317877 -5.019188,17.14188 4.17611,2.586173 5.302067,0.41766 1.481264,-2.852804 -2.868965,-2.455724 -3.519174,-4.771403 -2.149935,-7.65686 1.936426,-4.080714 6.979862,-4.974706 10.154583,-1.799989 3.745402,3.745403 2.047245,9.129641 -4.204892,13.332183 -1.86693,1.254906 2.71005,0.236895 4.889493,-1.087516 z m 30.258953,-2.989102 -1.629439,-1.281721 0.206401,-20.849691 c 0.205887,-20.797705 0.209793,-20.852444 1.566256,-21.95084 1.181661,-0.956852 2.540453,-1.101143 10.369447,-1.101143 8.054952,0 10.481596,0.332632 11.942618,1.637039 0.165673,0.147914 0.45518,4.652147 0.643342,10.009406 l 0.342119,9.740473 0.109718,-9.398663 c 0.06035,-5.169265 0.415605,-10.320199 0.789466,-11.44652 0.373862,-1.126321 1.751589,-3.0849 3.061619,-4.352398 2.249994,-2.176945 2.596089,-2.305778 6.25086,-2.326863 4.485861,-0.02588 6.030539,0.763245 8.695632,4.442294 l 1.795386,2.478461 v 12.590943 c 0,13.668152 -0.197964,14.670482 -3.442438,17.429545 -1.115524,0.948633 -1.613351,1.885356 -1.484493,2.793234 0.516913,3.641782 -2.711494,9.005718 -6.7051,11.140403 C 84.589532,90.230564 83.599739,90.32175 70.261658,90.49946 56.565,90.681948 56.02809,90.644831 54.453996,89.406649 Z m 31.912765,-1.864975 c 3.147148,-1.523508 5.603728,-5.300402 5.603728,-8.615507 0,-1.341128 -0.24204,-2.092219 -0.602448,-1.869475 -0.331347,0.204784 -0.602449,1.064954 -0.602449,1.911484 0,2.40351 -2.327083,5.953215 -4.822021,7.355443 -1.624315,0.912921 -3.318087,1.27592 -5.953461,1.27592 -2.053886,0 -3.68328,0.266511 -3.68328,0.602448 0,1.158189 7.292144,0.67955 10.059931,-0.660313 z M 74.800709,67.417517 V 46.934271 L 65.010923,46.768736 55.221136,46.6032 v 20.814317 20.814316 l 9.789787,-0.165535 9.789786,-0.165535 z m -16.75433,12.859966 c -1.319868,-0.738638 -1.301914,-2.128649 0.03639,-2.816964 1.518007,-0.780737 2.560405,-0.215134 2.560405,1.389264 0,1.616104 -1.140085,2.242915 -2.596793,1.4277 z m 12.356457,-0.02782 c -1.483391,-1.48339 -0.02295,-3.881322 1.911719,-3.138913 1.256437,0.48214 1.276076,3.016887 0.02711,3.496171 -1.213301,0.46559 -1.093968,0.48758 -1.938806,-0.357258 z m -13.092373,-5.92525 c -1.08118,-1.194691 -1.075631,-1.260189 0.216224,-2.552043 1.051789,-1.051791 1.542101,-1.189721 2.371796,-0.66723 1.330914,0.838138 1.655163,2.4447 0.72067,3.5707 -0.997916,1.202414 -1.998677,1.096118 -3.30869,-0.351427 z m 6.688015,0.278259 c -0.520033,-0.520033 -0.945513,-1.177883 -0.945513,-1.461895 0,-0.284012 0.42548,-0.941862 0.945513,-1.461895 1.191053,-1.191059 3.271626,-0.261372 3.271626,1.461895 0,1.723268 -2.080573,2.652954 -3.271626,1.461895 z m 5.700987,-0.220442 c -1.502006,-2.806517 2.14268,-4.990194 3.831741,-2.295738 0.479555,0.765013 0.479555,1.343557 0,2.10857 -0.975864,1.556739 -3.04469,1.657793 -3.831741,0.187168 z m -5.60777,-4.937161 c -1.394337,-0.780309 -1.325688,-3.337702 0.110224,-4.10618 1.473968,-0.788845 4.062129,1.093113 3.503906,2.547833 -0.555735,1.448208 -2.394335,2.240982 -3.61413,1.558347 z m -6.781232,-6.567175 c -1.08118,-1.194693 -1.075631,-1.260191 0.216224,-2.552046 1.051789,-1.051788 1.542101,-1.189722 2.371796,-0.667225 1.330914,0.838136 1.655163,2.444697 0.72067,3.570697 -0.997916,1.202415 -1.998677,1.096119 -3.30869,-0.351426 z m 12.389002,0.05784 c -1.502006,-2.806521 2.14268,-4.990192 3.831741,-2.295738 0.479555,0.765012 0.479555,1.343556 0,2.108569 -0.975864,1.556739 -3.04469,1.657794 -3.831741,0.187169 z m -5.60777,-4.937162 c -1.394337,-0.780311 -1.325688,-3.337704 0.110224,-4.106181 1.473968,-0.788844 4.062129,1.093115 3.503906,2.547833 -0.555735,1.448211 -2.394335,2.240982 -3.61413,1.558348 z M 56.989199,51.37924 c -0.566823,-1.059119 -0.465726,-1.496693 0.589624,-2.552043 1.006843,-1.006842 1.492912,-1.13573 2.31966,-0.615089 1.330914,0.838136 1.655163,2.444699 0.72067,3.570697 -1.054271,1.270318 -2.840393,1.071744 -3.629954,-0.403565 z m 7.009279,0.330397 c -0.520033,-0.52003 -0.945513,-1.177883 -0.945513,-1.461894 0,-0.284012 0.42548,-0.941865 0.945513,-1.461895 1.191053,-1.191058 3.271626,-0.261375 3.271626,1.461895 0,1.72327 -2.080573,2.652952 -3.271626,1.461894 z m 6.735705,0.297195 c -1.401398,-0.816238 -1.341496,-2.767882 0.108772,-3.544044 0.87793,-0.469851 1.39486,-0.39065 2.108569,0.32306 0.520034,0.52003 0.945513,1.177883 0.945513,1.461895 0,0.438077 -1.680157,2.446108 -2.000991,2.391473 -0.05916,-0.01007 -0.582007,-0.294648 -1.161863,-0.632384 z m 10.789724,33.095834 c 2.017967,-0.508135 3.038509,-1.18172 3.879214,-2.560405 1.224084,-2.007413 1.529122,-4.581892 0.542884,-4.581892 -0.331347,0 -0.602449,0.420118 -0.602449,0.933591 0,0.513472 -0.437642,1.779903 -0.972544,2.814283 -0.83074,1.606471 -1.054062,1.735039 -1.531593,0.881738 -0.353239,-0.63121 -0.327888,-1.430876 0.06888,-2.172231 1.045688,-1.95389 0.746428,-3.925698 -0.694153,-4.573704 -0.727137,-0.327081 -1.524785,-1.369353 -1.772554,-2.316161 -0.247769,-0.946808 -0.850115,-2.166766 -1.33855,-2.711018 -0.488435,-0.544251 -1.005673,-1.802857 -1.149417,-2.796896 -0.14375,-0.99404 -0.301983,2.598058 -0.351631,7.982441 -0.06025,6.534818 0.121496,9.789787 0.546632,9.789787 0.350293,0 1.869168,-0.310291 3.375283,-0.689533 z m -0.385404,-1.433598 c 0.419135,-0.505026 0.886129,-0.794166 1.037765,-0.642529 0.417792,0.417798 -0.431082,1.560763 -1.159171,1.560763 -0.399483,0 -0.353775,-0.345673 0.121406,-0.918234 z m 7.817298,-3.254167 c 0.737499,-2.654858 0.753681,-3.220045 0.08026,-2.803849 -0.288549,0.178336 -0.692984,1.166008 -0.89875,2.194828 -0.205767,1.028819 -0.966677,2.728844 -1.690911,3.777839 l -1.316795,1.907255 1.614013,-1.461383 c 0.887708,-0.803762 1.883194,-2.430373 2.212185,-3.61469 z m 4.105228,-6.084663 c 3.289356,-2.005466 3.729047,-3.957646 3.729047,-16.556541 0,-10.017955 -0.126689,-11.436977 -1.210807,-13.562024 C 92.85748,38.876526 85.76177,38.579857 81.517605,43.623755 l -1.661119,1.97413 0.183127,12.805955 c 0.162944,11.394361 0.304302,12.939689 1.282414,14.019216 2.853207,3.14904 8.261043,4.027627 11.739002,1.907177 z m -6.46885,-4.584168 c -1.58703,-2.017582 -1.567806,-2.365351 0.230117,-4.163274 1.797923,-1.797923 2.145692,-1.817147 4.163274,-0.230118 1.85127,1.456209 2.056488,3.562121 0.485646,4.983713 -1.60026,1.448213 -3.451734,1.224199 -4.879037,-0.590321 z m 0.230117,-9.530544 c -1.797923,-1.797924 -1.817147,-2.145695 -0.230117,-4.163278 1.456208,-1.851271 3.562121,-2.056485 4.983712,-0.485644 1.448214,1.600256 1.224199,3.451734 -0.590321,4.879036 -2.017582,1.58703 -2.365351,1.567806 -4.163274,-0.230114 z M 86.592179,49.865268 c -1.58703,-2.017583 -1.567806,-2.365354 0.230117,-4.163278 1.797923,-1.797923 2.145692,-1.817145 4.163274,-0.230114 1.85127,1.456211 2.056488,3.562123 0.485646,4.983714 -1.60026,1.448212 -3.451734,1.224199 -4.879037,-0.590322 z"
         id="path3500" />
    </g>
  </g>
</svg>
