<?xml version="1.0" encoding="UTF-8" standalone="no"?>
<!-- Created with Inkscape (http://www.inkscape.org/) -->

<svg
   width="100mm"
   height="100mm"
   viewBox="0 0 100 100"
   version="1.1"
   id="svg3190"
   inkscape:version="1.1.1 (3bf5ae0d25, 2021-09-20)"
   sodipodi:docname="add_list_type_device_613abcf.svg"
   xmlns:inkscape="http://www.inkscape.org/namespaces/inkscape"
   xmlns:sodipodi="http://sodipodi.sourceforge.net/DTD/sodipodi-0.dtd"
   xmlns="http://www.w3.org/2000/svg"
   xmlns:svg="http://www.w3.org/2000/svg">
  <sodipodi:namedview
     id="namedview3192"
     pagecolor="#ffffff"
     bordercolor="#666666"
     borderopacity="1.0"
     inkscape:pageshadow="2"
     inkscape:pageopacity="0.0"
     inkscape:pagecheckerboard="0"
     inkscape:document-units="mm"
     showgrid="false"
     width="100mm"
     inkscape:zoom="0.58974467"
     inkscape:cx="378.97757"
     inkscape:cy="178.04315"
     inkscape:window-width="1440"
     inkscape:window-height="890"
     inkscape:window-x="-6"
     inkscape:window-y="-6"
     inkscape:window-maximized="1"
     inkscape:current-layer="layer1" />
  <defs
     id="defs3187" />
  <g
     inkscape:label="Laag 1"
     inkscape:groupmode="layer"
     id="layer1">
    <path
       style="fill:#d0d0d0;fill-opacity:1;stroke-width:0.588601"
       d="m 33.287583,97.488473 c -8.19542,-1.76017 -17.84425,-7.93165 -22.76101,-14.55815 -11.29894965,-15.228 -11.29894965,-34.463518 0,-49.691526 3.38296,-4.559341 8.12695,-8.357021 14.22629,-11.388483 10.72356,-5.329778 24.02705,-5.461811 34.7106,-0.344492 8.87642,4.251725 14.70289,9.986024 19.18866,18.885133 2.01625,3.999914 2.22463,4.746569 1.44635,5.18212 -1.14772,0.642296 -2.54607,-0.07848 -1.4575,-0.751258 0.60028,-0.370991 0.59682,-0.819299 -0.0178,-2.303015 -0.41971,-1.013293 -1.05794,-1.741998 -1.41827,-1.619343 -0.36034,0.122654 -1.29457,-0.860628 -2.07607,-2.185072 -0.7815,-1.324443 -2.17585,-3.378013 -3.09855,-4.563486 -0.9227,-1.185474 -1.39609,-2.249258 -1.05197,-2.363964 0.34412,-0.114706 -0.18185,-0.982205 -1.16881,-1.927775 -0.9911,-0.949552 -1.79446,-1.375135 -1.79446,-0.950634 0,0.492261 -0.68775,0.246686 -1.91296,-0.683065 -1.05212,-0.798407 -3.36974,-2.284147 -5.15026,-3.301645 -1.78052,-1.017498 -2.89058,-1.852482 -2.46681,-1.85552 1.26399,-0.0091 0.24794,-1.020319 -1.71145,-1.703366 -1.43637,-0.500722 -1.76467,-0.476675 -1.53851,0.112696 0.21675,0.564844 -0.67412,0.498298 -3.61962,-0.270375 -2.14893,-0.560793 -4.63554,-1.034894 -5.5258,-1.053555 -0.89025,-0.01866 -1.61865,-0.298802 -1.61865,-0.622532 0,-0.323731 -0.94268,-0.588602 -2.09484,-0.588602 -1.24668,0 -1.94756,0.238314 -1.73107,0.588602 0.21323,0.345004 -0.44229,0.602643 -1.58392,0.622532 -1.07123,0.01866 -3.7059,0.492762 -5.85483,1.053555 -2.9455,0.768673 -3.83637,0.835219 -3.61962,0.270375 0.22616,-0.589371 -0.10214,-0.613418 -1.53851,-0.112696 -1.95939,0.683047 -2.97544,1.694304 -1.71144,1.703366 0.42377,0.003 -0.6863,0.838022 -2.46682,1.85552 -1.78052,1.017498 -4.09814,2.503238 -5.15026,3.301645 -1.22521,0.929751 -1.91296,1.175326 -1.91296,0.683065 0,-0.424501 -0.80336,0.0011 -1.79448,0.950634 -0.98696,0.94557 -1.51292,1.813069 -1.1688,1.927775 0.34411,0.114706 -0.12927,1.17849 -1.05197,2.363964 -0.92271,1.185473 -2.31706,3.239043 -3.0985596,4.563486 -0.7815,1.324444 -1.71573,2.307726 -2.07606,2.185072 -0.36034,-0.122655 -1.00863,0.630359 -1.44066,1.673363 -0.49854,1.203586 -0.56823,1.968796 -0.19076,2.09462 0.37396,0.124653 0.21123,1.668601 -0.43836,4.158978 -0.56822,2.178401 -1.04839,4.57232 -1.06705,5.31982 -0.0187,0.749945 -0.29774,1.196046 -0.62253,0.995315 -0.35973,-0.222327 -0.57252,0.622424 -0.54723,2.172518 0.0319,1.957053 0.1569,2.267443 0.54723,1.359091 0.38734,-0.9014 0.51892,-0.556647 0.56162,1.471503 0.0506,2.405632 0.7109,6.179286 1.58342,9.049886 0.21808,0.7175 0.10744,0.96282 -0.31618,0.70101 -0.80418,-0.49701 -0.83118,0.29511 -0.0776,2.27712 0.31572,0.8304 0.96005,1.50982 1.43184,1.50982 0.4718,0 1.00568,0.46589 1.18641,1.03533 0.18073,0.56943 1.27036,2.46532 2.4213996,4.21309 1.15104,1.74777 1.9672,3.50507 1.81369,3.90512 -0.31778,0.82811 2.37728,3.60486 2.94641,3.03574 0.20471,-0.20471 1.46389,0.50479 2.79818,1.57667 1.33429,1.07189 3.29205,2.44631 4.35057,3.05427 1.05853,0.60796 1.80986,1.40437 1.66963,1.7698 -0.14022,0.36543 0.68182,1.11114 1.82678,1.65712 1.74349,0.83141 2.02747,0.85131 1.74778,0.12245 -0.29037,-0.7567 -0.045,-0.76833 1.87993,-0.0892 1.21764,0.4296 3.71908,1.09358 5.55876,1.47549 1.83968,0.38192 3.34487,0.94049 3.34487,1.24127 0,0.30077 1.72166,0.54687 3.82591,0.54687 2.10425,0 3.82591,-0.2461 3.82591,-0.54687 0,-0.30078 1.5052,-0.85935 3.34488,-1.24127 1.83968,-0.38191 4.34112,-1.04589 5.55876,-1.47549 1.92495,-0.67917 2.1703,-0.66753 1.87993,0.0892 -0.27969,0.72886 0.004,0.70896 1.74778,-0.12245 1.14496,-0.54598 1.967,-1.29169 1.82677,-1.65712 -0.14022,-0.36543 0.61111,-1.16184 1.66964,-1.7698 1.05852,-0.60796 3.05029,-2.01025 4.42614,-3.1162 1.37586,-1.10594 2.50156,-1.67865 2.50156,-1.27268 0,0.40597 0.76442,0.006 1.69871,-0.88933 1.0153,-0.97272 1.59084,-2.03998 1.43058,-2.6528 -0.39986,-1.5291 1.2154,-2.67966 2.16151,-1.53966 1.68048,2.02486 -7.03038,9.86036 -15.20098,13.67343 -7.70934,3.59781 -17.38003,4.63316 -25.99451,2.78299 z m 3.03602,-3.82745 c -13.6537,-2.43422 -24.56729,-12.39137 -28.7076696,-26.1918 -1.42164,-4.738539 -1.42164,-14.030782 0,-18.769324 2.0481,-6.826567 4.5046596,-10.954423 9.4802696,-15.930033 7.36016,-7.360157 14.98051,-10.529926 25.3147,-10.529926 6.53993,0 10.43748,0.921368 16.74218,3.957798 5.34428,2.573877 12.59346,9.847948 15.19428,15.246448 2.12358,4.407899 2.27882,5.299457 1.09396,6.282803 -0.63016,0.522991 -0.89621,0.461889 -1.1772,-0.27037 -0.50498,-1.315953 -0.45584,-1.565213 0.22556,-1.144086 0.8933,0.552087 0.70332,-1.094831 -0.27558,-2.389057 -0.66586,-0.880343 -0.87477,-0.939931 -0.91031,-0.25965 -0.0254,0.485596 -0.73027,-0.441451 -1.56646,-2.060105 -1.79252,-3.469889 -9.66586,-11.465138 -12.40414,-12.596197 -1.05212,-0.434585 -1.91295,-1.146008 -1.91295,-1.580939 0,-1.097094 -2.3797,-2.332257 -2.89306,-1.501619 -0.26972,0.436407 -1.26784,0.364818 -3.256,-0.23353 -3.28935,-0.989949 -13.69155,-1.167584 -16.76447,-0.286282 -1.13953,0.326813 -2.28522,0.356177 -2.64482,0.06779 -0.85171,-0.683051 -3.28313,0.28517 -3.28313,1.307383 0,0.446862 -1.1257,1.315092 -2.50155,1.9294 -3.05249,1.362911 -11.01092,9.075457 -12.69771,12.305397 -0.67625,1.294923 -1.24968,1.957099 -1.27428,1.471503 -0.0345,-0.679903 -0.24343,-0.620203 -0.90892,0.25965 -0.94419,1.248328 -1.18134,2.94885 -0.33861,2.428015 0.28906,-0.17865 0.0242,1.286104 -0.58861,3.255011 -0.6127896,1.968907 -1.1350696,4.417061 -1.1606296,5.440343 -0.0256,1.023283 -0.18062,1.527776 -0.34458,1.121095 -0.16395,-0.40668 -0.54035,-0.589702 -0.83643,-0.406714 -0.69828,0.431564 -0.70258,3.206239 -0.005,3.206239 0.29335,0 0.71094,1.390571 0.92798,3.090157 0.21703,1.699587 0.61406,3.937293 0.88228,4.97268 0.3118096,1.20362 0.2673896,1.95595 -0.12318,2.08614 -0.82591,0.27531 0.0162,2.80026 0.9339096,2.80026 0.39634,0 1.41611,1.41807 2.26615,3.15127 1.82279,3.7166 7.09837,9.60069 10.81505,12.06252 1.49261,0.98867 2.30863,1.85597 1.88181,2.00006 -0.42339,0.14294 0.12221,0.70895 1.24513,1.29169 1.52387,0.79082 1.9242,0.84299 1.68496,0.21953 -0.23628,-0.61573 0.65125,-0.48879 3.59296,0.51392 5.1905,1.76925 14.74694,1.89422 19.99298,0.26148 2.82929,-0.88058 3.47283,-0.93551 3.2193,-0.27483 -0.26381,0.68749 -0.0549,0.70638 1.24782,0.11285 0.86058,-0.39211 1.44496,-1.02494 1.29863,-1.40629 -0.14634,-0.38134 0.57182,-1.09716 1.59591,-1.59071 2.48108,-1.19574 7.09652,-5.32944 9.8745,-8.84385 2.19559,-2.77763 2.25994,-2.81129 2.62135,-1.37132 1.0346,4.12221 -9.98472,12.99108 -19.73858,15.88655 -4.04871,1.20187 -11.70595,1.64174 -15.81784,0.90866 z m 5.2044,-1.14327 c 0,-0.32373 -0.79461,-0.58861 -1.76581,-0.58861 -0.97119,0 -1.7658,0.26488 -1.7658,0.58861 0,0.32373 0.79461,0.5886 1.7658,0.5886 0.9712,0 1.76581,-0.26487 1.76581,-0.5886 z m 4.12021,0 c 0,-0.32373 -0.79461,-0.58861 -1.76581,-0.58861 -0.97119,0 -1.7658,0.26488 -1.7658,0.58861 0,0.32373 0.79461,0.5886 1.7658,0.5886 0.9712,0 1.76581,-0.26487 1.76581,-0.5886 z m 22.26605,-10.65215 c 1.1249,-1.80125 0.51733,-1.93343 -1.07858,-0.23466 -0.96426,1.02641 -1.12589,1.46918 -0.53631,1.46918 0.46416,0 1.19086,-0.55553 1.61489,-1.23452 z m -50.81322,-1.11988 c -0.58595,-0.64747 -1.33023,-1.17721 -1.65396,-1.17721 -0.32373,0 -0.10919,0.52974 0.47675,1.17721 0.58595,0.64746 1.33023,1.1772 1.65396,1.1772 0.32373,0 0.10919,-0.52974 -0.47675,-1.1772 z m 50.3524,-47.037711 c -0.61789,-1.154534 -1.79278,-1.700117 -1.79278,-0.83251 0,0.587827 1.91524,2.594671 2.20229,2.307623 0.13612,-0.136124 -0.0481,-0.799924 -0.40951,-1.475113 z m -48.1915,-0.435938 c 0.59202,-0.53577 1.0764,-1.210312 1.0764,-1.498982 0,-0.62328 -2.89761,1.389694 -2.92451,2.031659 -0.0301,0.718051 0.69794,0.508213 1.84811,-0.532677 z m 25.79767,-9.620698 c 0,-0.323731 -0.79462,-0.588601 -1.76581,-0.588601 -0.97119,0 -1.7658,0.26487 -1.7658,0.588601 0,0.323731 0.79461,0.588601 1.7658,0.588601 0.97119,0 1.76581,-0.26487 1.76581,-0.588601 z m -10.30053,65.132327 c -11.81663,-3.06399 -20.9662,-12.67304 -23.28378,-24.45306 -2.5177396,-12.797445 3.10372,-25.932356 14.12541,-33.004957 8.32037,-5.339166 20.53085,-6.211383 29.70269,-2.121717 6.65783,2.968685 13.02518,9.360828 16.03288,16.095294 1.56728,3.509265 1.70979,5.248023 0.5549,6.77037 -0.72282,0.952803 -0.83293,0.847427 -1.20895,-1.156864 -0.22752,-1.212834 -0.80744,-2.966605 -1.28871,-3.897271 -0.48127,-0.930665 -0.7253,-2.082296 -0.54231,-2.55918 0.42478,-1.106948 -1.28957,-4.477119 -2.04115,-4.012618 -0.31145,0.192485 -1.87219,-0.990773 -3.46833,-2.629462 -1.59613,-1.638689 -2.58817,-2.987804 -2.20452,-2.998034 0.38365,-0.01023 -0.0456,-0.672407 -0.95394,-1.471504 -1.70483,-1.499843 -2.76303,-1.851211 -2.76303,-0.917444 0,0.294502 -1.32306,-0.102804 -2.94013,-0.882903 -1.61706,-0.780098 -3.33041,-1.418361 -3.80743,-1.418361 -0.4907,0 -0.73353,-0.348631 -0.55922,-0.802874 0.20732,-0.540265 -0.32666,-0.929824 -1.63253,-1.190999 -1.14891,-0.22978 -2.02254,-0.142363 -2.14142,0.214274 -0.25676,0.770288 -8.34312,0.797921 -8.34312,0.02851 0,-0.329755 -0.81377,-0.418984 -1.91296,-0.209754 -2.40042,0.456922 -2.68848,0.70787 -1.6016,1.395233 0.72032,0.455546 0.68717,0.549099 -0.19721,0.556597 -0.58469,0.0049 -2.64796,0.79536 -4.58505,1.756451 -1.93709,0.961091 -3.36339,1.490832 -3.16956,1.177203 0.60547,-0.979661 -1.12422,-0.584739 -2.51291,0.573749 -1.47139,1.227487 -1.75407,2.089869 -0.5312,1.620612 0.43623,-0.167397 -0.54121,1.0624 -2.17208,2.732884 -1.63087,1.670482 -3.16513,2.975883 -3.40946,2.900888 -0.24433,-0.07499 -1.02609,0.680787 -1.73725,1.679514 -0.969,1.36084 -1.11071,1.928536 -0.56549,2.2655 0.56702,0.350438 0.53163,0.828458 -0.16042,2.166736 -0.48837,0.944406 -1.06913,2.682907 -1.29058,3.863336 -0.28238,1.505178 -0.64907,2.051672 -1.22767,1.829642 -0.61144,-0.234632 -0.82503,0.220339 -0.82503,1.757436 0,1.140715 0.2271,2.162318 0.50466,2.270229 0.68828,0.267594 1.26233,8.14232 0.59355,8.14232 -0.29262,0 -0.35793,0.728394 -0.14514,1.618654 0.53755,2.24894 0.88981,2.74063 1.38705,1.93608 0.26809,-0.43377 0.71596,0.036 1.20265,1.2615 0.42652,1.07398 1.50588,3.06253 2.39857,4.419 1.13235,1.72063 1.34016,2.35774 0.68732,2.10723 -0.68623,-0.26334 -0.80766,-0.13623 -0.45537,0.47669 0.97871,1.70276 2.24029,2.85834 2.7659,2.5335 0.29778,-0.18404 1.76264,0.61682 3.25523,1.77968 1.4926,1.16287 2.9269,2.11431 3.18734,2.11431 0.26045,0 0.32249,0.39363 0.13788,0.87472 -0.22106,0.57606 0.20028,1.07849 1.23399,1.47151 2.0359,0.77404 2.83854,0.7567 2.33963,-0.0506 -0.28129,-0.45514 -0.0732,-0.47823 0.70101,-0.0778 0.6056,0.31324 2.49166,0.89583 4.19124,1.29463 1.69959,0.3988 3.09016,0.96354 3.09016,1.25498 0,0.29144 1.58923,0.5299 3.53161,0.5299 1.94239,0 3.53161,-0.25467 3.53161,-0.56592 0,-0.31125 1.1257,-0.85004 2.50156,-1.1973 1.37585,-0.34726 3.09751,-0.88154 3.82591,-1.18727 0.84986,-0.35672 1.32435,-0.34953 1.32435,0.0201 0,0.94961 1.54304,0.65292 3.02495,-0.58164 0.98889,-0.82383 1.13498,-1.16843 0.50666,-1.1951 -0.63098,-0.0268 -0.54701,-0.22835 0.2943,-0.7064 0.64746,-0.3679 2.23668,-1.51632 3.53161,-2.55204 1.29492,-1.03572 2.65822,-1.77316 3.02953,-1.63875 0.37133,0.13441 1.25019,-0.56321 1.95304,-1.55027 1.27206,-1.78645 0.94817,-2.46066 -0.50869,-1.0589 -0.42057,0.40467 0.0117,-0.45616 0.96046,-1.91295 0.94882,-1.45679 2.05931,-3.49173 2.46777,-4.52208 0.48034,-1.21172 1.03504,-1.76116 1.57052,-1.55568 1.42991,0.54871 0.91064,2.82421 -1.49321,6.54344 -4.07589,6.3062 -9.60517,10.77384 -16.30907,13.17768 -4.28631,1.53695 -13.82182,1.99344 -18.15742,0.86924 z m 0.83512,-4.40824 c -10.46193,-2.73103 -18.23126,-11.3453 -20.06298,-22.244899 -2.42022,-14.401406 7.9312,-28.42126 22.83368,-30.925684 17.61205,-2.959778 33.88546,13.313636 30.92568,30.925684 -1.83172,10.899599 -9.60105,19.513869 -20.06298,22.244899 -4.9031,1.27993 -8.7303,1.27993 -13.6334,0 z m 10.64261,-0.68674 c 0,-0.32373 -0.92705,-0.5886 -2.06011,-0.5886 -1.13305,0 -2.0601,0.26487 -2.0601,0.5886 0,0.32373 0.92705,0.58861 2.0601,0.58861 1.13306,0 2.06011,-0.26488 2.06011,-0.58861 z m -12.04295,-1.72797 c -0.21134,-0.34196 0.38768,-0.34196 1.58003,0 3.4149,0.97938 11.91517,0.66511 15.13861,-0.5597 1.93049,-0.73352 2.99481,-0.89358 3.1355,-0.47152 0.12693,0.38079 0.97288,0.0978 2.09383,-0.70035 1.03447,-0.73661 1.7572,-1.53936 1.60606,-1.78389 -0.15113,-0.24454 1.03768,-1.73733 2.64179,-3.31733 1.60411,-1.57999 2.92246,-2.6178 2.92966,-2.30624 0.0196,0.84742 2.31304,-2.25261 2.32823,-3.14702 0.007,-0.42377 -0.22629,-0.62255 -0.51886,-0.44173 -0.29257,0.18082 -0.0277,-0.99831 0.5886,-2.62028 1.22808,-3.232042 1.55527,-11.728923 0.58229,-15.121514 -0.37066,-1.292433 -0.33445,-1.944735 0.1163,-2.094987 0.46413,-0.154707 0.425,-0.772397 -0.13446,-2.123067 -0.48725,-1.176319 -1.0911,-1.788963 -1.57883,-1.601805 -0.43439,0.166691 -1.08057,-0.240237 -1.43596,-0.904285 -0.35538,-0.664049 -1.61756,-2.293309 -2.80483,-3.620578 -1.18728,-1.32727 -1.82759,-2.215251 -1.42293,-1.973292 1.53906,0.920248 0.65371,-0.785012 -1.03005,-1.983955 -0.97119,-0.69155 -1.76581,-0.986642 -1.76581,-0.65576 0,0.330881 -1.39057,-0.0458 -3.09015,-0.837072 -1.69959,-0.791271 -3.42125,-1.441263 -3.82591,-1.444425 -0.40467,-0.0032 -0.66954,-0.314509 -0.5886,-0.691881 0.0809,-0.377372 -0.77811,-0.886836 -1.90897,-1.132142 -2.27179,-0.492797 -3.09115,-0.182369 -1.75275,0.66406 0.58142,0.367698 -0.5202,0.550546 -3.35336,0.556598 -2.32057,0.0049 -4.57197,0.09804 -5.00311,0.206845 -0.43115,0.108808 -0.58359,0.08619 -0.33878,-0.05027 0.24482,-0.136458 0.30518,-0.474533 0.13414,-0.75128 -0.47479,-0.76823 -3.93087,0.634055 -3.61182,1.465478 0.15825,0.412395 -0.80691,1.247989 -2.253,1.950552 -1.39141,0.676 -3.55251,2.101386 -4.80245,3.167523 -1.24994,1.066137 -1.80909,1.394102 -1.24257,0.728809 1.55006,-1.820277 1.2372,-2.399634 -0.44329,-0.820895 -0.81034,0.761275 -1.40727,1.671888 -1.3265,2.023583 0.25644,1.116734 -3.34556,7.412874 -4.08112,7.133607 -0.39981,-0.151796 -1.00488,0.655844 -1.40922,1.881008 -0.52787,1.599447 -0.53682,2.204275 -0.0351,2.371512 0.42858,0.14286 0.6702,1.86542 0.66446,4.737103 -0.006,3.13088 -0.18372,4.242273 -0.57959,3.629709 -0.6246,-0.966501 -0.78516,-0.489651 -0.59455,1.765805 0.16938,2.004333 0.64069,2.639496 1.24772,1.681495 0.40383,-0.637338 0.50783,-0.60735 0.51502,0.148513 0.005,0.520909 0.75556,2.427148 1.66801,4.236088 0.91245,1.80894 1.44219,3.15499 1.1772,2.99122 -1.0236,-0.63263 -0.41278,0.96171 0.97111,2.53474 0.90662,1.03053 1.4599,1.33343 1.47151,0.8056 0.0128,-0.58219 0.52318,-0.37658 1.63725,0.65956 0.89026,0.82799 2.34705,1.96748 3.23731,2.53222 0.89026,0.56474 1.61865,1.40218 1.61865,1.86097 0,0.45879 0.59596,1.07372 1.32436,1.3665 1.76517,0.70951 2.94494,0.73576 2.52493,0.0562 z m 1.61649,-2.0352 c -6.11774,-1.99518 -11.43754,-6.72091 -14.20039,-12.61458 -1.36909,-2.920522 -1.56592,-4.081798 -1.56592,-9.238787 0,-5.46186 0.1412,-6.185201 1.90783,-9.773729 2.29765,-4.667208 6.50761,-8.800497 11.20735,-11.003266 2.94871,-1.38206 4.09638,-1.577485 9.26406,-1.577485 5.46186,0 6.1852,0.141196 9.77372,1.907822 4.66721,2.297659 8.8005,6.507614 11.00327,11.207358 1.38137,2.947237 1.57749,4.097422 1.57749,9.251676 0,5.154255 -0.19612,6.30444 -1.57749,9.251681 -2.19037,4.67329 -6.33872,8.911 -10.94099,11.17669 -3.23971,1.59491 -4.57658,1.90306 -8.89082,2.04935 -3.16951,0.10748 -6.0099,-0.13181 -7.55811,-0.63673 z m 10.63931,-1.23994 c 0.18634,-0.48559 0.75498,-0.8829 1.26363,-0.8829 0.50865,0 1.95843,-0.52731 3.22173,-1.17179 1.2633,-0.64449 2.64332,-1.04965 3.06671,-0.90035 0.85845,0.30271 3.78209,-1.88068 3.24179,-2.42099 -0.18892,-0.18892 0.56817,-1.66881 1.68242,-3.28864 1.11424,-1.61983 2.02591,-3.17199 2.02591,-3.44923 0,-0.27725 0.36249,-0.36498 0.80554,-0.19497 0.49282,0.18912 0.94672,-0.21794 1.16917,-1.048522 0.49578,-1.851104 0.46981,-2.954696 -0.0618,-2.623934 -0.62411,0.388344 -0.15272,-7.424219 0.49545,-8.21135 0.62812,-0.76278 -0.50866,-4.506753 -1.23254,-4.05937 -0.26139,0.16155 -1.14737,-0.853145 -1.96884,-2.254879 -0.82147,-1.401733 -1.91869,-2.901415 -2.43827,-3.332627 -0.75227,-0.624327 -0.78915,-0.885403 -0.18107,-1.28176 0.5801,-0.378126 0.40998,-0.776452 -0.7079,-1.657523 -1.54641,-1.218823 -2.65628,-1.561994 -2.09038,-0.646344 0.18342,0.296789 -1.05908,-0.228154 -2.76112,-1.16654 -1.70204,-0.938385 -3.55814,-1.710954 -4.12467,-1.716819 -0.56653,-0.0059 -0.96384,-0.34175 -0.8829,-0.746414 0.0926,-0.462951 -0.69308,-0.804787 -2.11897,-0.921942 -1.49366,-0.122724 -2.1339,0.02776 -1.87822,0.441451 0.2449,0.39625 -0.33158,0.627641 -1.56368,0.627641 -1.07336,0 -2.86333,0.261489 -3.9777,0.581086 -1.40556,0.403108 -2.14663,0.386107 -2.41956,-0.05551 -0.26809,-0.433778 -1.02778,-0.307392 -2.3845,0.396698 -1.09509,0.56831 -1.65699,1.146098 -1.24867,1.283974 0.88293,0.298137 -5.04801,5.810706 -6.02033,5.59566 -0.87183,-0.192819 -3.0695,3.542046 -2.24578,3.81662 0.42164,0.140545 0.35892,1.086098 -0.19387,2.922879 -0.44943,1.49332 -0.82119,3.53386 -0.82615,4.534535 -0.007,1.391145 -0.14332,1.611584 -0.57959,0.936504 -0.42441,-0.656734 -0.57288,-0.317481 -0.57959,1.324353 -0.005,1.21399 0.25082,2.207255 0.56838,2.207255 0.31756,0 0.75245,0.728395 0.96642,1.618654 0.21397,0.89026 0.87617,2.591524 1.47156,3.780584 0.76168,1.52117 0.87858,2.2299 0.39443,2.39129 -0.46414,0.15471 -0.31682,0.73817 0.45261,1.79263 1.27076,1.74152 2.3517,2.12705 1.77895,0.63449 -0.20383,-0.53117 0.49623,-0.11322 1.55568,0.92879 1.05946,1.042 2.63581,2.31717 3.503,2.83371 0.86719,0.51654 1.69344,1.38554 1.83612,1.93113 0.28729,1.0986 3.33615,2.11504 3.88885,1.29648 0.46028,-0.68168 5.44454,-0.17362 5.02093,0.5118 -0.17917,0.2899 0.58858,0.52709 1.70611,0.52709 1.26313,0 2.16005,-0.33404 2.37067,-0.8829 z m 9.76547,-8.16702 c 1.10809,-2.9145 -1.92781,-8.939165 -5.41415,-10.744243 -1.19853,-0.620548 -4.11853,-1.137413 -7.80148,-1.380929 -6.14458,-0.406279 -8.44821,-1.191354 -10.67313,-3.637392 -2.60568,-2.864647 -4.13345,-7.647022 -3.21452,-10.062403 0.27706,-0.728255 1.66104,-1.9617 3.07549,-2.740988 l 2.57174,-1.416887 -1.2508,1.416887 c -3.03832,3.441762 -2.98976,6.792275 0.15257,10.526715 2.27551,2.704294 3.49541,3.142176 9.92725,3.563383 7.82766,0.512615 11.14282,2.362038 13.89131,7.749528 1.11868,2.192799 1.63642,6.322699 0.5844,4.661609 -0.37947,-0.59915 -0.62218,-0.32894 -0.91918,1.0233 -0.22196,1.01058 -0.64726,1.98803 -0.9451,2.17211 -0.32082,0.19828 -0.31445,-0.26258 0.0156,-1.13069 z m -1.7379,-10.039545 c 0,-0.139821 -0.80986,-0.830892 -1.79969,-1.535714 -2.17063,-1.545623 -3.21347,-0.957435 -1.13452,0.6399 1.3381,1.02812 2.93421,1.515412 2.93421,0.895814 z M 42.705203,57.20166 c 0,-0.323731 -1.07511,-0.588601 -2.38914,-0.588601 -1.44288,0 -2.24507,0.233126 -2.02537,0.588601 0.20008,0.323731 1.27519,0.588602 2.38914,0.588602 1.11396,0 2.02537,-0.264871 2.02537,-0.588602 z m -11.17561,-7.044344 c -0.40658,-0.981573 -0.98982,-1.784678 -1.29609,-1.784678 -0.62779,0 -0.0601,2.254912 0.85559,3.398683 0.98217,1.226778 1.23439,0.302625 0.4405,-1.614005 z m 37.07408,9.104449 c 0,-1.133058 -0.26488,-2.060105 -0.58861,-2.060105 -0.32373,0 -0.5886,0.927047 -0.5886,2.060105 0,1.133058 0.26487,2.060105 0.5886,2.060105 0.32373,0 0.58861,-0.927047 0.58861,-2.060105 z"
       id="path3245" />
  </g>
</svg>
