<?xml version="1.0" encoding="UTF-8" standalone="no"?>
<!-- Created with Inkscape (http://www.inkscape.org/) -->

<svg
   version="1.1"
   id="svg2488"
   width="162"
   height="162"
   viewBox="0 0 162 162"
   sodipodi:docname="add_list_type_device_7142.svg"
   inkscape:version="1.1.1 (3bf5ae0d25, 2021-09-20)"
   xmlns:inkscape="http://www.inkscape.org/namespaces/inkscape"
   xmlns:sodipodi="http://sodipodi.sourceforge.net/DTD/sodipodi-0.dtd"
   xmlns="http://www.w3.org/2000/svg"
   xmlns:svg="http://www.w3.org/2000/svg">
  <defs
     id="defs2492" />
  <sodipodi:namedview
     id="namedview2490"
     pagecolor="#505050"
     bordercolor="#ffffff"
     borderopacity="1"
     inkscape:pageshadow="0"
     inkscape:pageopacity="0"
     inkscape:pagecheckerboard="1"
     showgrid="false"
     inkscape:zoom="4.0864198"
     inkscape:cx="81.122356"
     inkscape:cy="81"
     inkscape:window-width="1440"
     inkscape:window-height="890"
     inkscape:window-x="-6"
     inkscape:window-y="-6"
     inkscape:window-maximized="1"
     inkscape:current-layer="g2494" />
  <g
     inkscape:groupmode="layer"
     inkscape:label="Image"
     id="g2494">
    <g
       id="g2498"
       transform="translate(9.5438062,0.24471303)">
      <path
         style="fill:#d0d0d0;fill-opacity:1"
         d="m 27.269032,160.30701 c 0.972967,-0.25354 2.322967,-0.23687 3,0.0371 0.677032,0.27393 -0.119032,0.48137 -1.769032,0.46099 -1.65,-0.0204 -2.203936,-0.2445 -1.230968,-0.49804 z M 16.872445,147.25 c -1.243871,-1.58606 -1.208501,-1.62143 0.377555,-0.37756 0.9625,0.75485 1.75,1.54235 1.75,1.75 0,0.82304 -0.821186,0.29331 -2.127555,-1.37244 z m 94.322505,-2.75 c 0.0204,-1.65 0.2445,-2.20394 0.49804,-1.23097 0.25354,0.97297 0.23687,2.32297 -0.037,3 C 111.38206,146.94606 111.17462,146.15 111.195,144.5 Z M 38.872445,125.25 c -1.243871,-1.58606 -1.208501,-1.62143 0.377555,-0.37756 0.9625,0.75485 1.75,1.54235 1.75,1.75 0,0.82304 -0.821186,0.29331 -2.127555,-1.37244 z"
         id="path2514" />
      <path
         style="fill:#b9b9b9;fill-opacity:1"
         d="m 36,158.60699 c 0,-0.21616 0.698372,-0.661 1.551938,-0.98855 0.889925,-0.34149 1.291322,-0.17385 0.940983,0.39301 C 37.905663,158.96166 36,159.4169 36,158.60699 Z M 70.5,155 c -3.739556,-0.41371 0.969703,-0.66967 12.5,-0.67941 12.976964,-0.011 16.559474,0.20251 12,0.71501 -7.801408,0.87692 -16.364181,0.86447 -24.5,-0.0356 z m -26,-2 c 0.995486,-1.1 2.034975,-2 2.309975,-2 0.275,0 -0.314489,0.9 -1.309975,2 -0.995486,1.1 -2.034975,2 -2.309975,2 -0.275,0 0.314489,-0.9 1.309975,-2 z M 8.4944517,149.99387 c -0.9985379,-1.10337 -1.6307823,-2.1843 -1.4049876,-2.40206 0.2257948,-0.21776 1.2190441,0.685 2.2072209,2.00613 2.182386,2.91772 1.696826,3.15736 -0.8022333,0.39593 z M 38,148.62244 c 0,-0.20765 0.7875,-0.99515 1.75,-1.75 1.586056,-1.24387 1.621426,-1.2085 0.377555,0.37756 C 38.821186,148.91575 38,149.44548 38,148.62244 Z m 11.564293,-2.91557 c 0.375531,-0.98622 0.934692,-1.54122 1.242579,-1.23333 0.307887,0.30789 6.34e-4,1.11479 -0.682784,1.79313 -0.987616,0.98026 -1.10248,0.8654 -0.559795,-0.5598 z M 41.139216,116.96673 C 39.840785,115.88503 39.20854,115 39.734228,115 c 0.525688,0 1.770286,0.9 2.765772,2 2.28688,2.52697 1.69506,2.5125 -1.360784,-0.0333 z"
         id="path2512" />
      <path
         style="fill:#a3a3a3;fill-opacity:1"
         d="M 22,159.30383 C 16.196377,158.17857 9.0030402,151.00433 6.1541006,143.5 0.61705596,128.91499 11.056355,113.74749 27.5,112.48604 c 6.748705,-0.51771 16.529654,5.05577 21.100605,12.02377 2.697043,4.1114 4.330472,11.24371 3.354425,14.64699 -0.44848,1.56376 -0.611457,2.8432 -0.362171,2.8432 0.249286,0 -0.233705,1.04842 -1.073314,2.32983 -0.839608,1.2814 -1.224982,2.6314 -0.856386,3 C 50.031755,147.69842 49.808333,148 49.166667,148 48.525,148 48,148.41538 48,148.92308 48,150.12403 42.124027,156 40.923077,156 40.415385,156 40,156.525 40,157.16667 c 0,0.64166 -0.301578,0.86508 -0.670174,0.49649 -0.368596,-0.3686 -1.606096,-0.0738 -2.75,0.65511 -2.104935,1.34129 -9.994511,1.8746 -14.579826,0.98556 z m 4,-9.45744 c 0,-1.23042 -1.714693,-3.73661 -4,-5.84639 -3.015797,-2.78417 -4,-4.45715 -4,-6.79934 0,-4.42013 1.948748,-8.1228 5.145025,-9.77566 5.991121,-3.09812 12.24467,-0.72683 14.883418,5.64367 2.218574,5.35611 -1.427899,12.65065 -8.528443,17.06063 l -3,1.86322 2.789838,0.004 c 7.840097,0.0105 14.713954,-7.56446 14.706424,-16.20642 -0.01183,-13.58033 -16.988784,-20.26399 -26.729595,-10.52317 -7.251204,7.2512 -5.760191,19.41294 3.037667,24.77733 C 24.44031,152.56587 26,152.51175 26,149.84639 Z m 43.26375,5.43603 c 1.520062,-0.22986 3.770062,-0.22371 5,0.0136 1.229937,0.23736 -0.01375,0.42542 -2.76375,0.41792 -2.75,-0.008 -3.756313,-0.20172 -2.23625,-0.43157 z m 22.48625,0.0119 c 1.2375,-0.23836 3.2625,-0.23836 4.5,0 1.2375,0.23835 0.225,0.43337 -2.25,0.43337 -2.475,0 -3.4875,-0.19502 -2.25,-0.43337 z m 10.51903,-0.98726 c 0.97297,-0.25354 2.32297,-0.23687 3,0.0371 0.67703,0.27393 -0.11903,0.48137 -1.76903,0.46099 -1.65,-0.0204 -2.20394,-0.2445 -1.23097,-0.49804 z m 7.68212,-144.030951 c -0.27447,-2.3231671 -0.11798,-3.8428881 0.34775,-3.3771575 0.46573,0.4657307 0.6903,2.366504 0.49903,4.2239405 -0.33919,3.294022 -0.36004,3.273177 -0.84678,-0.846783 z"
         id="path2510" />
      <path
         style="fill:#8c8c8c;fill-opacity:1"
         d="m 61,155 c -1.979583,-0.63397 -2.083666,-0.80064 -0.5,-0.80064 1.1,0 3.125,0.36029 4.5,0.80064 1.979583,0.63397 2.083666,0.80064 0.5,0.80064 -1.1,0 -3.125,-0.36029 -4.5,-0.80064 z m 38.269032,0.30701 c 0.972968,-0.25354 2.322968,-0.23687 2.999998,0.0371 0.67703,0.27393 -0.11903,0.48137 -1.76903,0.46099 -1.65,-0.0204 -2.203936,-0.2445 -1.230968,-0.49804 z M 110.42751,36 c 0,-12.375 0.14355,-17.4375 0.319,-11.25 0.17544,6.1875 0.17544,16.3125 0,22.5 -0.17545,6.1875 -0.319,1.125 -0.319,-11.25 z M 53.423279,28.5 c 8.16e-4,-11.55 0.146385,-16.138042 0.323486,-10.195649 0.1771,5.942393 0.176433,15.392393 -0.0015,21 C 53.567363,44.911958 53.422463,40.05 53.423279,28.5 Z M 61.269032,5.3070093 c 0.972967,-0.2535434 2.322967,-0.2368691 3,0.037054 C 64.946064,5.6179864 64.15,5.825431 62.5,5.8050513 60.85,5.7846716 60.296064,5.5605527 61.269032,5.3070093 Z m 38.492627,-0.01427 C 101.00557,5.0535459 102.80557,5.0626272 103.76166,5.3129198 104.71775,5.5632124 103.7,5.758916 101.5,5.7478166 99.3,5.7367172 98.517747,5.5319324 99.761659,5.2927393 Z"
         id="path2508" />
      <path
         style="fill:#767676;fill-opacity:1"
         d="m 58.8125,153.31689 c 0.721875,-0.28887 1.584375,-0.25335 1.916667,0.0789 0.332291,0.33229 -0.258334,0.56864 -1.3125,0.52522 -1.164943,-0.048 -1.4019,-0.28494 -0.604167,-0.60416 z m 39.9375,-0.0226 c 1.2375,-0.23836 3.2625,-0.23836 4.5,0 1.2375,0.23835 0.225,0.43337 -2.25,0.43337 -2.475,0 -3.4875,-0.19502 -2.25,-0.43337 z M 53.194949,114.5 c 0.02038,-1.65 0.244498,-2.20394 0.498042,-1.23097 0.253543,0.97297 0.236869,2.32297 -0.03705,3 C 53.382014,116.94606 53.174569,116.15 53.194949,114.5 Z m 30.594239,-2.24141 c 3.459053,-0.19583 8.859053,-0.19422 12,0.004 3.140946,0.19781 0.310812,0.35803 -6.289188,0.35606 -6.6,-0.002 -9.169866,-0.16382 -5.710812,-0.35965 z M 53.444645,79.5 c -4.23e-4,-17.05 0.135928,-24.165584 0.303003,-15.812408 0.167074,8.353176 0.16742,22.303176 7.69e-4,31 C 53.581765,103.38442 53.445068,96.55 53.444645,79.5 Z M 110.43674,84 c 0,-14.575 0.1398,-20.5375 0.31066,-13.25 0.17086,7.2875 0.17086,19.2125 0,26.5 -0.17086,7.2875 -0.31066,1.325 -0.31066,-13.25 z M 73.2991,5.2547158 c 4.839505,-0.1837076 12.489505,-0.1827672 17,0.00209 C 94.809595,5.4416627 90.85,5.5919689 81.5,5.5908195 72.15,5.58967 68.459595,5.4384234 73.2991,5.2547158 Z"
         id="path2506" />
      <path
         style="fill:#606060;fill-opacity:1"
         d="m 63.25,153.28375 c 1.5125,-0.22913 3.9875,-0.22913 5.5,0 1.5125,0.22912 0.275,0.41659 -2.75,0.41659 -3.025,0 -4.2625,-0.18747 -2.75,-0.41659 z m 15.5,-0.0241 c 3.4375,-0.19527 9.0625,-0.19527 12.5,0 3.4375,0.19527 0.625,0.35504 -6.25,0.35504 -6.875,0 -9.6875,-0.15977 -6.25,-0.35504 z m 31.47271,-23.42627 c -0.16375,-12.25461 -0.55361,-16.78799 -1.47271,-17.125 -0.98378,-0.36072 -0.96857,-0.75117 0.0714,-1.83333 0.72678,-0.75625 1.21784,-0.925 1.09124,-0.375 -0.1266,0.55 0.0782,1.69306 0.45503,2.54014 0.37687,0.84708 0.54853,8.72208 0.38147,17.5 L 110.44541,146.5 110.22271,129.83333 Z M 53.391721,130 c 0,-7.425 0.157423,-10.4625 0.349829,-6.75 0.192407,3.7125 0.192407,9.7875 0,13.5 -0.192406,3.7125 -0.349829,0.675 -0.349829,-6.75 z M 97,128 c 0,-0.55 0.45,-1 1,-1 0.55,0 1,0.45 1,1 0,0.55 -0.45,1 -1,1 -0.55,0 -1,-0.45 -1,-1 z m -32,-14.95611 -2.5,-0.75675 2.5,-0.67812 c 1.375,-0.37296 10.562909,-0.55007 20.417577,-0.39357 13.237631,0.21023 18.026173,0.61104 18.333333,1.53455 0.3233,0.97203 -3.6611,1.22783 -17.917577,1.15032 C 75.75,113.8455 66.375,113.4601 65,113.04389 Z m 30.789188,-0.78171 c -3.140947,-0.19781 -8.540947,-0.19942 -12,-0.004 -3.459054,0.19583 -0.889188,0.35767 5.710812,0.35965 6.6,0.002 9.430134,-0.15825 6.289188,-0.35606 z m -41.455855,-0.71819 c 0,-0.80081 0.375,-1.22425 0.833334,-0.94098 C 55.625,110.88627 56,111.54148 56,112.05902 56,112.57656 55.625,113 55.166667,113 c -0.458334,0 -0.833334,-0.65521 -0.833334,-1.45601 z m 22.977688,-3.86052 C 77.02981,107.23438 76.95729,106.75116 77.149864,106.60966 77.986082,105.99521 87,107.27971 87,108.01333 c 0,1.05132 -9.016327,0.74436 -9.688979,-0.32986 z"
         id="path2504" />
      <path
         style="fill:#494949;fill-opacity:1"
         d="m 67.994968,152.35937 c -3.498977,-1.47578 -4.13223,-5.29812 -3.935519,-23.75494 0.143863,-13.49814 0.07381,-14.01099 -2.019453,-14.78534 C 59.635476,112.9296 60.161852,111 62.809017,111 64.375145,111 64.5,107.19041 64.5,59.40455 64.5,26.095881 64.854426,7.5849511 65.5,7.1766631 66.851972,6.3216191 106.2313,5.7677904 108.33293,6.574263 109.85898,7.1598643 110,11.544385 110,58.406989 c 0,39.437261 -0.28513,51.478141 -1.24164,52.434651 -0.91558,0.91558 -0.94226,1.42766 -0.10158,1.95 0.76787,0.4771 1.25056,6.8755 1.47852,19.59866 0.33249,18.5569 0.30057,18.90432 -1.80843,19.68449 -3.60461,1.33343 -37.281742,1.57105 -40.331902,0.28458 z M 82,128 c 0,-1.1 -0.407871,-2 -0.90638,-2 -0.49851,0 -0.671025,0.9 -0.383369,2 0.287656,1.1 0.695528,2 0.90638,2 C 81.827484,130 82,129.1 82,128 Z m 17,0 c 0,-0.55 -0.45,-1 -1,-1 -0.55,0 -1,0.45 -1,1 0,0.55 0.45,1 1,1 0.55,0 1,-0.45 1,-1 z m 4.75091,-15.25 c -0.30716,-0.92351 -5.095702,-1.32432 -18.333333,-1.53455 C 75.562909,111.05895 66.375,111.23606 65,111.60902 l -2.5,0.67812 2.5,0.75675 c 1.375,0.41621 10.75,0.80161 20.833333,0.85643 14.256477,0.0775 18.240877,-0.17829 17.917577,-1.15032 z M 87,108.01333 c 0,-0.73362 -9.013918,-2.01812 -9.850136,-1.40367 -0.192574,0.1415 -0.120054,0.62472 0.161157,1.07381 C 77.983673,108.75769 87,109.06465 87,108.01333 Z M 53.232003,146 c 0,-1.925 0.205795,-2.7125 0.457323,-1.75 0.251527,0.9625 0.251527,2.5375 0,3.5 -0.251528,0.9625 -0.457323,0.175 -0.457323,-1.75 z m 2.33229,-34.70687 c -0.542685,-1.4252 -0.427821,-1.54006 0.559795,-0.5598 0.683418,0.67834 0.990671,1.48524 0.682784,1.79313 -0.307887,0.30789 -0.867048,-0.24711 -1.242579,-1.23333 z"
         id="path2502" />
      <path
         style="fill:#333333;fill-opacity:1"
         d="m 55.145482,151.93017 c -1.573668,-0.6303 -2.154036,-1.4655 -1.75,-2.5184 C 53.727967,148.54533 54,139.99823 54,130.41821 54,115.60202 54.224078,113 55.5,113 c 1.943694,0 1.943694,-1.89251 0,-2.63837 C 54.193875,109.86042 54,103.21266 54,58.928195 54,0.14757814 52.726238,5.9011817 65.684259,6.1501937 c 6.4284,0.1235334 7.024019,0.256663 3.355488,0.75 L 64.579493,7.5 64.539747,59.249994 c -0.0368,47.915326 -0.165049,51.749996 -1.73073,51.749996 -2.592599,1e-5 -3.195357,1.92154 -0.872327,2.78089 1.967612,0.72786 2.076947,1.60534 2.314245,18.57321 0.228153,16.31394 0.412046,17.92833 2.190195,19.22758 1.760877,1.28662 1.435869,1.41244 -3.5,1.35494 -2.992622,-0.0349 -6.500663,-0.48776 -7.795648,-1.00644 z M 80.710251,128 c -0.287656,-1.1 -0.115141,-2 0.383369,-2 0.498509,0 0.90638,0.9 0.90638,2 0,1.1 -0.172516,2 -0.383369,2 -0.210852,0 -0.618724,-0.9 -0.90638,-2 z"
         id="path2500" />
    </g>
  </g>
</svg>
