<?xml version="1.0" encoding="UTF-8" standalone="no"?>
<!-- Created with Inkscape (http://www.inkscape.org/) -->

<svg
   width="100mm"
   height="100mm"
   viewBox="0 0 100 100"
   version="1.1"
   id="svg3337"
   inkscape:version="1.1.1 (3bf5ae0d25, 2021-09-20)"
   sodipodi:docname="add_list_type_device_6135.svg"
   xmlns:inkscape="http://www.inkscape.org/namespaces/inkscape"
   xmlns:sodipodi="http://sodipodi.sourceforge.net/DTD/sodipodi-0.dtd"
   xmlns="http://www.w3.org/2000/svg"
   xmlns:svg="http://www.w3.org/2000/svg">
  <sodipodi:namedview
     id="namedview3339"
     pagecolor="#505050"
     bordercolor="#ffffff"
     borderopacity="1"
     inkscape:pageshadow="0"
     inkscape:pageopacity="0"
     inkscape:pagecheckerboard="1"
     inkscape:document-units="mm"
     showgrid="false"
     inkscape:zoom="0.58974467"
     inkscape:cx="397.62971"
     inkscape:cy="147.52147"
     inkscape:window-width="1440"
     inkscape:window-height="890"
     inkscape:window-x="-6"
     inkscape:window-y="-6"
     inkscape:window-maximized="1"
     inkscape:current-layer="layer1" />
  <defs
     id="defs3334" />
  <g
     inkscape:label="Laag 1"
     inkscape:groupmode="layer"
     id="layer1">
    <g
       id="g3353"
       transform="translate(-2.243207,-0.89728053)">
      <path
         style="fill:#d0d0d0;fill-opacity:1;stroke-width:0.607987"
         d="m 19.100044,93.581132 c -0.213002,-0.344644 0.03104,-0.446567 0.572106,-0.238945 1.053287,0.404183 1.246001,0.83997 0.371452,0.83997 -0.314658,0 -0.739259,-0.270463 -0.943558,-0.601025 z m -7.073708,-2.286914 c -0.756258,-0.964304 -0.734753,-0.985808 0.229549,-0.229551 0.585187,0.458939 1.063977,0.937729 1.063977,1.063977 0,0.500398 -0.49927,0.178329 -1.293526,-0.834426 z m 36.442784,0.04067 c 0.43889,-0.175629 0.963279,-0.154034 1.165308,0.04797 0.202029,0.202028 -0.157063,0.345726 -0.797983,0.319327 -0.70827,-0.02918 -0.852337,-0.17324 -0.367325,-0.367322 z m -0.330422,-1.221981 c 0.591551,-0.15415 1.412334,-0.144014 1.823961,0.02256 0.411627,0.166546 -0.07237,0.292667 -1.075548,0.280276 -1.003179,-0.0124 -1.339965,-0.148653 -0.748413,-0.302802 z m -34.2884,-1.250642 c -0.756258,-0.964304 -0.734754,-0.985809 0.229548,-0.229552 0.585188,0.458939 1.063978,0.937729 1.063978,1.063978 0,0.500397 -0.499271,0.178328 -1.293526,-0.834426 z m 19.449939,-0.640101 c 0.584272,-0.409364 0.62463,-0.678617 0.136797,-0.912668 -0.447498,-0.214692 -0.455693,-0.289031 -0.02319,-0.210394 0.934492,0.169908 0.83698,1.232202 -0.136797,1.490256 -0.635844,0.168503 -0.630956,0.09113 0.0232,-0.367194 z m 15.168883,-6.00709 c 0.43889,-0.175629 0.963279,-0.154033 1.165308,0.04797 0.202029,0.202028 -0.157063,0.345725 -0.797983,0.319327 -0.70827,-0.02918 -0.852337,-0.17324 -0.367325,-0.367322 z m -0.645987,-1.20331 c 0.417991,-0.168661 1.101977,-0.168661 1.519968,0 0.417991,0.168662 0.076,0.306663 -0.759984,0.306663 -0.835982,0 -1.177975,-0.138001 -0.759984,-0.306663 z m 1.253974,-9.132471 c 0.43889,-0.175629 0.963279,-0.154034 1.165309,0.04797 0.202028,0.202034 -0.157064,0.345726 -0.797984,0.319327 -0.70827,-0.02918 -0.852337,-0.17324 -0.367325,-0.367322 z m 42.065111,-1.030204 c 0,-0.126249 0.47879,-0.605038 1.063977,-1.063978 0.964305,-0.756257 0.985809,-0.734752 0.229552,0.229552 -0.794256,1.012755 -1.293529,1.334824 -1.293529,0.834426 z M 14.908586,69.751422 c 0.175592,-0.284113 0.573949,-0.359169 0.885236,-0.166777 0.795479,0.49163 0.705908,0.683353 -0.31926,0.683353 -0.48688,0 -0.741569,-0.232458 -0.565976,-0.516576 z M 91.67265,54.814989 c -0.756257,-0.964302 -0.734752,-0.985806 0.229552,-0.229548 1.012754,0.794255 1.334824,1.293526 0.834426,1.293526 -0.126249,0 -0.605039,-0.47879 -1.063978,-1.063978 z m -81.344725,-1.72263 c 0.02917,-0.70827 0.173241,-0.852337 0.367326,-0.367326 0.17563,0.438891 0.15403,0.96328 -0.048,1.165309 -0.202029,0.202029 -0.345726,-0.157064 -0.319326,-0.797983 z M 7.9439759,50.407082 c 0,-0.835982 0.1379967,-1.177975 0.3066602,-0.759984 0.168663,0.417992 0.168663,1.101977 0,1.519968 -0.1686635,0.417991 -0.3066602,0.076 -0.3066602,-0.759984 z m 1.2385027,-0.303993 c 0.012391,-1.003179 0.1486516,-1.339965 0.3028031,-0.748413 0.1541509,0.591551 0.1440133,1.412334 -0.022526,1.823961 -0.1665441,0.411627 -0.292668,-0.07237 -0.2802771,-1.075548 z M 27.351566,50.66041 c 0.02917,-0.70827 0.17324,-0.852337 0.367325,-0.367325 0.17563,0.43889 0.15403,0.963279 -0.048,1.165309 -0.20203,0.202028 -0.345727,-0.157064 -0.319327,-0.797984 z m 63.790652,0.125111 c 0,-0.126252 0.47879,-0.605042 1.063977,-1.063978 0.964305,-0.756257 0.985809,-0.734753 0.229552,0.229549 -0.794256,1.012753 -1.293529,1.334823 -1.293529,0.834429 z M 10.327925,48.228462 c 0.02917,-0.708271 0.173241,-0.852337 0.367326,-0.367326 0.17563,0.438891 0.15403,0.96328 -0.048,1.165309 -0.202029,0.202029 -0.345726,-0.157064 -0.319326,-0.797983 z m 24.319486,-9.727795 c 0.02917,-0.70827 0.173241,-0.852337 0.367326,-0.367325 0.17563,0.43889 0.15403,0.963279 -0.048,1.165309 -0.20203,0.202028 -0.345727,-0.157064 -0.319327,-0.797984 z m -4.607902,-5.725212 c 0.605243,-0.668786 1.237239,-1.215974 1.404435,-1.215974 0.167197,0 -0.191205,0.547188 -0.796448,1.215974 -0.605243,0.668786 -1.237239,1.215974 -1.404435,1.215974 -0.167197,0 0.191205,-0.547188 0.796448,-1.215974 z m 43.843832,-0.111249 c 0.175593,-0.284115 0.573946,-0.359167 0.885236,-0.166781 0.795478,0.491634 0.705909,0.683355 -0.31926,0.683355 -0.486883,0 -0.741568,-0.232459 -0.565976,-0.516574 z M 23.655644,29.50597 c 0,-0.126252 0.47879,-0.605042 1.063977,-1.063977 0.964302,-0.756258 0.985807,-0.734753 0.229549,0.229549 -0.794256,1.012753 -1.293526,1.334823 -1.293526,0.834428 z m 49.169404,-0.834428 c -0.756257,-0.964302 -0.734752,-0.985807 0.229552,-0.229549 1.012755,0.794256 1.334824,1.293526 0.834426,1.293526 -0.126249,0 -0.605038,-0.47879 -1.063978,-1.063977 z m -46.737456,-1.59752 c 0,-0.126252 0.47879,-0.605042 1.063978,-1.063978 0.964302,-0.756257 0.985806,-0.734753 0.229549,0.229549 -0.794256,1.012753 -1.293527,1.334823 -1.293527,0.834429 z M 70.3931,26.239593 c -0.756257,-0.964302 -0.734753,-0.985806 0.229551,-0.229549 1.012755,0.794256 1.334824,1.293526 0.834426,1.293526 -0.126248,0 -0.605038,-0.478789 -1.063977,-1.063977 z m 4.093887,-0.667534 -1.151558,-1.612418 1.421778,1.351083 c 0.781975,0.743095 1.300175,1.468683 1.151552,1.612418 -0.148616,0.143734 -0.788413,-0.464253 -1.421772,-1.351083 z M 23.047657,25.25006 c 0,-0.126252 0.47879,-0.605042 1.063977,-1.063977 0.964302,-0.756258 0.985806,-0.734753 0.229549,0.229548 -0.794256,1.012754 -1.293526,1.334823 -1.293526,0.834429 z m 41.622119,-0.418888 c -0.220413,-0.356641 -0.270359,-0.778832 -0.110988,-0.938202 0.159366,-0.159371 0.451771,0.132426 0.649787,0.648437 0.411108,1.071338 0.06074,1.259785 -0.538799,0.289765 z M 20.007721,23.426099 c 0,-0.126252 0.47879,-0.605042 1.063977,-1.063978 0.964302,-0.756257 0.985807,-0.734753 0.229549,0.229549 -0.794256,1.012753 -1.293526,1.334823 -1.293526,0.834429 z m 56.46525,-0.834429 c -0.756257,-0.964302 -0.734752,-0.985806 0.229552,-0.229549 1.012755,0.794256 1.334824,1.293527 0.834426,1.293527 -0.126249,0 -0.605038,-0.47879 -1.063978,-1.063978 z M 63.985456,18.514501 c 0,-0.48688 0.232458,-0.741569 0.516577,-0.565976 0.284112,0.175593 0.359168,0.573949 0.166777,0.885236 -0.491631,0.795479 -0.683354,0.705908 -0.683354,-0.31926 z M 46.037171,12.296554 c 0.438891,-0.17563 0.96328,-0.15403 1.165309,0.048 0.202029,0.202029 -0.157064,0.345726 -0.797983,0.319327 -0.708271,-0.02917 -0.852337,-0.173241 -0.367326,-0.367327 z m 4.863897,0 c 0.438891,-0.17563 0.96328,-0.15403 1.165309,0.048 0.202029,0.202029 -0.157064,0.345726 -0.797983,0.319327 -0.70827,-0.02917 -0.852337,-0.173241 -0.367326,-0.367327 z m -4.141912,-1.040783 c 0,-0.132073 1.071362,-0.342304 2.380806,-0.46718 1.309443,-0.124875 2.250877,-0.01682 2.092074,0.240134 -0.288946,0.467524 -4.47288,0.679903 -4.47288,0.227046 z m 1.379542,-1.3971705 c 0.591551,-0.1541509 1.412334,-0.1440133 1.823961,0.022526 0.411627,0.1665445 -0.07237,0.2926675 -1.075548,0.2802775 -1.003179,-0.01239 -1.339965,-0.148652 -0.748413,-0.3028035 z"
         id="path3367" />
      <path
         style="fill:#b9b9b9;fill-opacity:1;stroke-width:0.607987"
         d="m 16.359798,93.949073 c 0,-0.128194 0.547566,-0.376271 1.216813,-0.551286 0.669248,-0.175009 1.063492,-0.07012 0.876099,0.233084 -0.327249,0.529502 -2.092912,0.797947 -2.092912,0.318202 z m 30.28536,-2.614186 c 0.438891,-0.17563 0.96328,-0.154034 1.165309,0.04797 0.202029,0.202028 -0.157064,0.345726 -0.797983,0.319327 -0.708271,-0.02918 -0.852337,-0.17324 -0.367326,-0.367322 z m 3.647923,0 c 0.438891,-0.17563 0.96328,-0.154034 1.165309,0.04797 0.202029,0.202028 -0.157064,0.345726 -0.797983,0.319327 -0.708271,-0.02918 -0.852337,-0.17324 -0.367326,-0.367322 z m -3.647923,-9.119808 c 0.438891,-0.175629 0.96328,-0.154033 1.165309,0.04797 0.202029,0.202028 -0.157064,0.345725 -0.797983,0.319327 -0.708271,-0.02918 -0.852337,-0.17324 -0.367326,-0.367322 z M 77.422264,80.35045 c 0.08589,-0.585188 0.403673,-1.068167 0.70619,-1.073286 0.302516,-0.0049 0.960419,-0.254437 1.462008,-0.554028 0.501589,-0.299598 0.248703,0.183381 -0.561969,1.073285 -1.742606,1.91291 -1.809029,1.935825 -1.606229,0.554029 z M 47.527499,78.546199 c 0.924179,-0.139752 2.29215,-0.136013 3.039936,0.0083 0.747786,0.144312 -0.0084,0.25865 -1.680324,0.25409 -1.671965,-0.0049 -2.28379,-0.122643 -1.359612,-0.262389 z m 29.023027,-3.441195 c 0,-0.126249 0.47879,-0.605038 1.063978,-1.063978 0.964304,-0.756257 0.985808,-0.734752 0.229551,0.229552 -0.794256,1.012755 -1.293529,1.334824 -1.293529,0.834426 z M 28.794928,70.347468 c -1.321839,-1.405332 -1.967778,-2.228486 -1.435421,-1.829239 0.532357,0.399247 1.079545,0.659879 1.215974,0.579181 0.13643,-0.08069 0.175825,-0.02888 0.08754,0.115122 -0.08828,0.144008 0.578495,1.033189 1.48172,1.975959 0.903227,0.942763 1.509771,1.714116 1.347877,1.714116 -0.161894,0 -1.375857,-1.149813 -2.697694,-2.555139 z m 10.263057,1.061916 c 0,-0.486882 0.232458,-0.741568 0.516574,-0.565975 0.284115,0.175593 0.359166,0.573946 0.16678,0.885236 -0.491633,0.795478 -0.683354,0.705909 -0.683354,-0.319261 z M 22.43967,70.470658 c -0.547974,-0.354128 -0.622964,-0.593085 -0.187879,-0.598678 0.398257,-0.0049 0.893193,0.264285 1.099859,0.598678 0.466512,0.754835 0.256038,0.754835 -0.91198,0 z m 19.901445,-0.07545 c 0.412419,-0.41551 0.903008,-0.602314 1.090199,-0.415121 0.187192,0.187193 -0.150241,0.527155 -0.74985,0.755472 -0.866502,0.329943 -0.936338,0.26011 -0.340349,-0.340351 z m -17.416789,-0.77302 c -0.572545,-0.689877 -0.558549,-0.852903 0.06536,-0.761334 0.84005,0.123294 1.381637,0.920748 0.931218,1.371169 -0.147411,0.147413 -0.595871,-0.127014 -0.996577,-0.609835 z m 4.859188,-0.787611 c -0.08255,-1.245322 0.992887,-1.43806 1.85907,-0.333183 0.739437,0.943201 0.720449,0.972542 -0.17598,0.271922 -0.821199,-0.641821 -1.062446,-0.641821 -1.319972,0 -0.21629,0.539054 -0.330172,0.558266 -0.363118,0.06126 z m 4.833502,-3.513071 c -0.775682,-0.825677 -1.686429,-1.330592 -2.023881,-1.122034 -0.363117,0.22442 -0.423904,0.07234 -0.148924,-0.372587 0.337128,-0.545486 0.946833,-0.289797 2.221894,0.931789 0.966498,0.925964 1.757269,1.769182 1.757269,1.873816 0,0.448427 -0.482362,0.09834 -1.806358,-1.310984 z m -6.977362,0.337183 c -0.195757,-0.316743 -0.09677,-0.736059 0.219972,-0.931813 0.316741,-0.19576 0.736058,-0.09677 0.931815,0.21997 0.195757,0.316743 0.09677,0.736059 -0.219972,0.931813 -0.316741,0.19576 -0.736058,0.09677 -0.931815,-0.21997 z m 2.462481,-0.558582 c -0.172222,-0.278665 0.07319,-0.50666 0.545361,-0.50666 0.47217,0 0.717583,0.227995 0.545361,0.50666 -0.172222,0.278659 -0.417634,0.506654 -0.545361,0.506654 -0.127726,0 -0.373139,-0.227995 -0.545361,-0.506654 z M 11.669794,50.711076 c 0.0046,-1.671965 0.122638,-2.28379 0.262387,-1.359611 0.139749,0.924178 0.136014,2.292149 -0.0083,3.039935 -0.144313,0.747786 -0.258653,-0.0084 -0.254087,-1.680324 z m 9.119807,0 c 0.0046,-1.671965 0.122639,-2.28379 0.262387,-1.359611 0.139749,0.924178 0.136014,2.292149 -0.0083,3.039935 -0.144313,0.747786 -0.258652,-0.0084 -0.254087,-1.680324 z m 55.934816,0 c 0.0049,-1.671965 0.122643,-2.28379 0.262389,-1.359611 0.139752,0.924178 0.136012,2.292149 -0.0083,3.039935 -0.144342,0.747786 -0.25868,-0.0084 -0.25412,-1.680324 z M 17.246779,49.150658 c -0.220416,-0.35664 -0.270362,-0.778832 -0.110991,-0.938202 0.15937,-0.159371 0.451774,0.132426 0.649787,0.648437 0.411111,1.071339 0.06071,1.259785 -0.538796,0.289765 z m 23.070745,-3.151483 -1.158208,-1.367971 1.367971,1.158209 c 1.285556,1.088429 1.644752,1.577734 1.158209,1.577734 -0.11537,0 -0.730957,-0.615587 -1.367972,-1.367972 z m -4.502137,-5.558833 c 0,-0.13142 0.410391,-0.396427 0.911981,-0.588905 0.501589,-0.192479 0.91198,-0.08495 0.91198,0.238945 0,0.323898 -0.410391,0.588906 -0.91198,0.588906 -0.50159,0 -0.911981,-0.107526 -0.911981,-0.238946 z M 62.934709,36.49007 c -0.925965,-0.966497 -1.418538,-1.921065 -1.094614,-2.12126 0.323923,-0.200196 0.92704,0.04339 1.340271,0.541294 0.413224,0.497908 0.538616,0.905287 0.278653,0.905287 -0.25997,0 0.02249,0.547188 0.627771,1.215974 1.708267,1.887611 0.738382,1.431919 -1.152081,-0.541295 z M 39.166176,33.762293 c 0.574733,-0.877154 1.159927,-1.594825 1.300431,-1.594825 0.439805,0 -0.975761,2.343167 -1.677618,2.776938 -0.36728,0.226992 -0.197546,-0.304959 0.377187,-1.182113 z m -8.822673,-4.12e-4 c 0,-0.126253 0.478789,-0.605043 1.063977,-1.063978 0.964302,-0.756258 0.985806,-0.734753 0.229549,0.229549 -0.794256,1.012753 -1.293526,1.334823 -1.293526,0.834429 z M 66.13719,32.927452 c -0.756257,-0.964302 -0.734753,-0.985807 0.229551,-0.229549 1.012755,0.794256 1.334824,1.293526 0.834426,1.293526 -0.126248,0 -0.605038,-0.47879 -1.063977,-1.063977 z M 28.864212,30.909836 c 2.248092,-2.302255 3.56533,-3.259255 2.166998,-1.574367 -0.372437,0.448758 -0.541057,0.952025 -0.374711,1.11837 0.436185,0.436187 -2.019015,2.536998 -3.160819,2.704579 -0.571398,0.08386 -0.01276,-0.834006 1.368532,-2.248582 z m 0.56731,0.649645 c 0.605242,-0.668786 0.963644,-1.215975 0.796448,-1.215975 -0.167197,0 -0.799193,0.547189 -1.404435,1.215975 -0.605243,0.668785 -0.963645,1.215974 -0.796448,1.215974 0.167196,0 0.799192,-0.547189 1.404435,-1.215974 z m 32.863402,1.267902 c -0.19576,-0.316741 -0.09677,-0.736058 0.21997,-0.931816 0.316743,-0.195756 0.736059,-0.09677 0.931813,0.219972 0.195759,0.316742 0.09677,0.736059 -0.21997,0.931816 -0.316743,0.195757 -0.73606,0.09677 -0.931813,-0.219972 z m 6.676477,-1.246284 c -0.949719,-0.991289 -1.912886,-1.687309 -2.140376,-1.546712 -0.227491,0.140596 -0.41362,-0.153725 -0.41362,-0.654049 0,-0.569995 0.870279,-0.05988 2.330621,1.366109 1.281838,1.251683 2.330616,2.357059 2.330616,2.456391 0,0.441959 -0.495273,0.06079 -2.107241,-1.621739 z m -6.037957,-1.136261 c -0.172224,-0.278662 0.07319,-0.506657 0.545358,-0.506657 0.472169,0 0.717583,0.227995 0.545359,0.506657 -0.172219,0.27866 -0.417633,0.506655 -0.545359,0.506655 -0.127726,0 -0.37314,-0.227995 -0.545358,-0.506655 z m -39.2778,-2.837274 c 0.785364,-0.835982 1.188728,-1.519968 0.896364,-1.519968 -0.885166,0 0.841309,-1.436002 1.916136,-1.593753 0.626512,-0.09195 0.127869,0.747118 -1.33321,2.243398 -2.539679,2.600867 -3.80369,3.344533 -1.47929,0.870323 z m 48.91436,-1.048536 c -1.321837,-1.412677 -1.833951,-2.096066 -1.13803,-1.518642 0.69592,0.577425 1.40932,0.905857 1.585326,0.729851 0.176006,-0.176007 0.666093,0.09699 1.089081,0.60666 0.422989,0.50967 0.565276,0.926673 0.31619,0.926673 -0.249086,0 -0.112289,0.410392 0.303994,0.911981 1.583198,1.907638 0.14402,0.802159 -2.156561,-1.656523 z m -42.631826,1.075281 c 0,-0.486881 0.232458,-0.741569 0.516573,-0.565977 0.284115,0.175593 0.359167,0.573949 0.166781,0.885236 -0.491634,0.79548 -0.683354,0.705909 -0.683354,-0.319259 z m -9.626464,-0.938726 c 0.605243,-0.668786 1.237239,-1.215974 1.404436,-1.215974 0.167196,0 -0.191206,0.547188 -0.796448,1.215974 -0.605243,0.668786 -1.237239,1.215975 -1.404436,1.215975 -0.167196,0 0.191206,-0.547189 0.796448,-1.215975 z m 56.485041,-0.151997 -1.158209,-1.367971 1.367971,1.158209 c 1.285552,1.088429 1.644751,1.577734 1.158209,1.577734 -0.115372,0 -0.730959,-0.615587 -1.367971,-1.367972 z M 28.849499,25.52162 c -0.192386,-0.311287 -0.117335,-0.709644 0.16678,-0.885236 0.284116,-0.175593 0.516574,0.0791 0.516574,0.565976 0,1.025168 -0.191721,1.114739 -0.683354,0.31926 z m -4.190171,-3.183278 c 1.155479,-1.27679 1.923202,-1.531606 0.899997,-0.298719 -0.372436,0.448758 -0.542734,0.950348 -0.378438,1.114644 0.164295,0.164295 -0.11281,0.298718 -0.615789,0.298718 -0.779754,0 -0.765869,-0.164245 0.09423,-1.114643 z m 47.881517,-0.05067 -1.15821,-1.367971 1.367972,1.158209 c 0.752384,0.637014 1.367971,1.252601 1.367971,1.367971 0,0.486543 -0.489302,0.127347 -1.577733,-1.158209 z m -54.965073,0.515943 c 0,-0.07505 0.801355,-0.904194 1.780789,-1.842551 1.254942,-1.202312 1.73786,-1.413615 1.635411,-0.715582 -0.18212,1.240858 -1.297279,2.383589 -2.498064,2.559826 -0.504975,0.07411 -0.918136,0.07335 -0.918136,-0.0017 z m 2.509501,-1.427923 c 0.756257,-0.964302 0.734753,-0.985806 -0.229549,-0.229549 -1.012753,0.794256 -1.334823,1.293526 -0.834429,1.293526 0.126252,0 0.605042,-0.47879 1.063978,-1.063977 z m 27.442226,1.235684 c 0.924179,-0.139749 2.29215,-0.136014 3.039936,0.0083 0.747786,0.144313 -0.0084,0.258653 -1.680324,0.254089 -1.671965,-0.0046 -2.28379,-0.122639 -1.359612,-0.262389 z M 77.631497,21.97301 c -1.575903,-1.898853 -0.963015,-2.687766 0.786164,-1.011946 0.979431,0.938357 1.780788,1.746114 1.780788,1.795017 0,0.498996 -2.012425,-0.114914 -2.566952,-0.783071 z m 1.350978,0.237111 c 0,-0.126253 -0.47879,-0.605042 -1.063978,-1.063978 -0.964304,-0.756257 -0.985808,-0.734753 -0.229551,0.229549 0.794256,1.012753 1.293529,1.334823 1.293529,0.834429 z M 47.527499,13.491573 c 0.924179,-0.139749 2.29215,-0.136014 3.039936,0.0083 0.747786,0.144313 -0.0084,0.258652 -1.680324,0.254088 -1.671965,-0.0046 -2.28379,-0.122639 -1.359612,-0.262388 z"
         id="path3365" />
      <path
         style="fill:#a3a3a3;fill-opacity:1;stroke-width:0.607987"
         d="M 14.969623,98.194909 C 3.6997163,95.111837 0.87188482,80.181405 10.20901,73.059741 c 1.429247,-1.090121 3.636491,-2.148 4.904985,-2.350843 l 2.306354,-0.368799 -1.742483,-3.430646 C 12.812128,61.267309 11.918474,56.551354 12.264898,48.89868 12.605793,41.368156 13.774913,37.315942 17.26363,31.572895 21.575525,24.47475 29.638957,18.058648 37.639348,15.35986 c 4.750192,-1.60239 17.745334,-1.60239 22.495525,0 8.263603,2.787578 16.283124,9.295386 20.642781,16.751529 3.080756,5.268898 3.34621,6.278143 1.890409,7.187303 -1.067267,0.666522 -1.370744,0.321206 -3.480593,-3.960503 C 75.044712,26.93093 66.916325,20.323807 57.698327,17.870838 c -4.288281,-1.141138 -13.334151,-1.141138 -17.622432,0 -11.579662,3.081422 -20.9476,12.44936 -24.029022,24.029022 -1.133382,4.259133 -1.143607,13.325064 -0.01979,17.547406 0.477854,1.795368 1.630381,4.804906 2.56117,6.68786 0.930789,1.882955 1.642013,3.595551 1.580498,3.805769 -0.06152,0.210218 0.924514,0.547936 2.191177,0.750487 4.594281,0.734655 9.235727,5.447498 10.270657,10.428652 0.479921,2.309877 1.968828,3.720285 1.968828,1.865025 0,-0.529454 -0.319194,-0.962645 -0.709319,-0.962645 -0.390125,0 -0.575984,-0.133331 -0.413021,-0.296296 0.162964,-0.162965 1.918527,0.28939 3.901251,1.005228 2.201665,0.794888 5.675808,1.412512 8.924841,1.586639 2.925938,0.156812 5.319888,0.550417 5.319888,0.874675 0,0.337907 -1.540866,0.500799 -3.609837,0.381621 -4.691893,-0.270268 -4.85823,0.882859 -0.200385,1.38916 2.593889,0.281954 2.082415,0.336624 -1.965656,0.210102 -3.577638,-0.111821 -6.681025,-0.600381 -8.964713,-1.41129 l -3.49283,-1.240264 -0.361695,1.638149 c -1.25506,5.684291 -3.601837,9.023417 -7.699592,10.955412 -3.547363,1.672499 -6.909837,2.022864 -10.358722,1.079359 z m 7.669959,-4.842064 c 6.246835,-2.610089 7.769683,-10.799737 2.911551,-15.65787 -3.94374,-3.94374 -9.575033,-3.94374 -13.518773,0 -7.4982103,7.498214 0.804203,19.753837 10.607222,15.65787 z m -5.06381,-0.803133 c 0,-0.542458 -1.094377,-1.996612 -2.431948,-3.231452 -2.100233,-1.938926 -2.431949,-2.595996 -2.431949,-4.817271 0,-3.604342 2.502964,-6.126498 6.079872,-6.126498 6.794731,0 8.376735,8.651943 2.418664,13.227612 -2.290507,1.759059 -3.634639,2.109497 -3.634639,0.947609 z M 16.359798,63.438837 c 0,-1.412038 -1.196116,-3.387996 -1.818154,-3.003556 -0.65565,0.405214 0.483927,3.955506 1.269643,3.955506 0.301681,0 0.548511,-0.428376 0.548511,-0.95195 z M 13.927849,48.887114 c 0,-1.170375 -0.273594,-2.127955 -0.607987,-2.127955 -0.334393,0 -0.607987,0.95758 -0.607987,2.127955 0,1.170376 0.273594,2.127955 0.607987,2.127955 0.334393,0 0.607987,-0.957579 0.607987,-2.127955 z M 82.62109,37.791349 c -0.0121,-1.379487 -1.022337,-2.970937 -1.550617,-2.442655 -0.571356,0.571351 0.235175,3.506632 0.96352,3.506632 0.328021,0 0.592216,-0.47879 0.587097,-1.063977 z M 17.484668,35.815391 c 0.818074,-2.346727 -0.583924,-2.58283 -1.635266,-0.275386 -0.895578,1.965578 -0.886216,2.099347 0.146926,2.099347 0.468877,0 1.13863,-0.820783 1.48834,-1.823961 z m 58.457871,-9.025577 c 0,-0.818643 -2.296538,-2.672646 -3.014248,-2.433411 -0.905798,0.301933 1.012037,2.947167 2.13674,2.947167 0.482633,0 0.877508,-0.23119 0.877508,-0.513756 z M 25.696928,24.748787 c 0.358408,-0.569149 0.457808,-1.228658 0.220891,-1.465575 -0.481199,-0.481199 -2.870162,1.462498 -2.870162,2.335208 0,0.896941 1.937267,0.261026 2.649271,-0.869633 z m 38.978995,-5.926532 c 0.4025,-0.651258 -1.531696,-1.854466 -2.981113,-1.854466 -1.391052,0 -1.16244,0.928641 0.416021,1.689903 1.754238,0.846036 2.129056,0.870083 2.565092,0.164563 z M 36.69876,18.086172 c 1.517093,-0.691233 2.104804,-1.72637 0.980168,-1.72637 -1.371369,0 -3.726712,1.268647 -3.384212,1.822822 0.471292,0.762568 0.523279,0.760482 2.404044,-0.09645 z m 14.924293,-2.942345 c 0,-0.334393 -0.95758,-0.607987 -2.127955,-0.607987 -1.170375,0 -2.127955,0.273594 -2.127955,0.607987 0,0.334393 0.95758,0.607988 2.127955,0.607988 1.170375,0 2.127955,-0.273595 2.127955,-0.607988 z m -8.815814,76.781324 c -1.003179,-0.137977 -3.724297,-0.808507 -6.046929,-1.490079 -3.402415,-0.998425 -4.01608,-1.354997 -3.158219,-1.835076 0.893751,-0.500172 0.937282,-0.75273 0.271051,-1.572601 -0.68238,-0.839752 -0.641311,-0.919599 0.292827,-0.569337 3.690218,1.383663 8.479436,2.419053 13.083466,2.828538 l 5.285599,0.470102 -4.103914,0.08478 c -2.257152,0.04663 -4.103913,0.33663 -4.103913,0.644448 0,0.9249 3.478161,1.398352 7.481768,1.018433 2.525407,-0.239644 3.365431,-0.171951 2.55002,0.2055 -1.213799,0.561865 -8.098842,0.690181 -11.551756,0.215294 z m -0.303993,-9.354119 c -4.738443,-0.925077 -9.052786,-2.99956 -10.465565,-5.032207 -1.643614,-2.36476 -7.140102,-8.51717 -7.853589,-8.790795 -0.290647,-0.111468 -0.53755,0.298923 -0.548675,0.911981 -0.03193,1.759484 -2.258997,-1.19464 -4.357328,-5.779842 -8.74604,-19.111544 3.722465,-41.937184 24.688716,-45.196734 13.7996,-2.145376 27.921785,5.214047 33.960137,17.697474 l 2.127657,4.398626 -0.953044,2.980241 -0.953044,2.980242 -0.966572,-3.83971 C 74.082706,30.588569 61.85859,21.223699 48.887111,21.223699 c -7.225769,0 -15.387703,3.371981 -20.695869,8.550187 -11.478351,11.197329 -11.478351,30.677051 0,41.874383 5.288075,5.158607 13.470531,8.550184 20.62801,8.550184 1.502621,0 2.859253,0.205196 3.014738,0.45599 0.155485,0.250795 -1.086067,0.3594 -2.759004,0.241341 -3.428149,-0.241924 -5.348707,0.800044 -2.699983,1.464835 0.88863,0.223028 2.432972,0.28556 3.431871,0.13895 0.998898,-0.146604 1.816179,-0.04037 1.816179,0.23613 0,0.636842 -5.525316,0.537071 -9.119807,-0.164667 z m -4.863898,-3.21365 c 0,-0.462587 -0.47879,-0.978738 -1.063977,-1.146998 -0.585188,-0.168255 -1.542768,-0.503031 -2.127955,-0.743946 -1.740304,-0.716446 -1.228019,0.780224 0.607987,1.776277 2.109495,1.144415 2.583945,1.165475 2.583945,0.114667 z M 20.304444,60.590867 c -0.216264,-0.752384 -0.526732,-1.846761 -0.68993,-2.431948 -0.301882,-1.08248 -1.430755,-1.502221 -1.430755,-0.531989 0,1.963933 0.894809,4.331908 1.636938,4.331908 0.620614,0 0.762016,-0.399867 0.483747,-1.367971 z M 18.791747,46.60168 c 0,-1.46108 -0.221413,-2.275269 -0.527589,-1.940076 -0.68839,0.753627 -1.341252,4.281963 -0.878022,4.745192 0.794906,0.794906 1.405611,-0.423851 1.405611,-2.805116 z m 3.917441,-10.92157 c 1.07027,-1.528025 1.238084,-2.904655 0.354082,-2.904655 -0.528256,0 -2.447562,3.0753 -2.447562,3.921724 0,0.813647 1.229619,0.216266 2.09348,-1.017069 z m 53.405503,-1.235663 c -1.053849,-1.804433 -2.606539,-2.921378 -2.601827,-1.871654 0.0012,0.27866 0.552655,1.409379 1.225338,2.512708 1.573592,2.580982 2.898019,1.964173 1.376489,-0.641054 z M 31.453859,26.084354 c 2.065481,-1.721433 1.037403,-2.704503 -1.142706,-1.09268 -0.985386,0.728528 -1.791612,1.546739 -1.791612,1.818246 0,0.859296 1.468344,0.49622 2.934318,-0.725566 z m 35.879077,-1.203147 c -1.509468,-1.257839 -2.942153,-1.58764 -2.942153,-0.677277 0,0.827546 3.920794,3.146611 4.158128,2.459442 0.113414,-0.328383 -0.433775,-1.130357 -1.215975,-1.782165 z M 44.780699,20.364882 c 0.740923,-0.740923 -0.40645,-1.02907 -2.51932,-0.632692 -1.204545,0.225974 -2.190082,0.761992 -2.190082,1.191151 0,0.58114 0.555401,0.655027 2.176122,0.289494 1.196867,-0.269937 2.336843,-0.651516 2.53328,-0.847953 z m 12.314238,0.32174 c 0,-0.574569 -2.051776,-1.264942 -3.799919,-1.278583 -0.585188,-0.0046 -1.063978,0.245232 -1.063978,0.555106 0,0.309874 0.47879,0.688527 1.063978,0.841453 1.887075,0.493144 3.799919,0.433756 3.799919,-0.117976 z m 19.469682,60.271815 c -0.0077,-0.417991 0.208048,-0.759984 0.479556,-0.759984 0.716367,0 3.326566,-3.678292 2.907547,-4.097317 -0.194592,-0.194592 -0.902673,0.142914 -1.573507,0.750013 -1.680149,1.520515 -1.533526,0.551864 0.234525,-1.549346 1.417856,-1.685018 1.480296,-1.699439 2.496437,-0.576621 0.996662,1.101302 0.920432,1.27929 -1.744126,4.072438 -1.532487,1.606442 -2.79268,2.578808 -2.800432,2.160817 z M 40.367352,77.280862 C 33.051736,74.751186 26.80154,69.140455 23.47413,62.116021 21.619171,58.200048 21.527689,57.662537 21.527689,50.679544 c 0,-7.228065 0.03058,-7.389254 2.256251,-11.892592 2.848391,-5.763328 7.902805,-10.743863 13.680549,-13.480584 3.933361,-1.8631 4.468719,-1.954714 11.422622,-1.954714 6.953902,0 7.48926,0.09161 11.422622,1.954714 5.729923,2.71407 10.862964,7.743426 13.480422,13.208123 1.130868,2.361013 2.215894,5.029591 2.411162,5.930173 0.347628,1.603268 0.321126,1.619826 -1.270912,0.793867 -1.068343,-0.554262 -2.283795,-2.262588 -3.54417,-4.98135 C 68.952626,35.00762 64.717218,30.72425 59.528628,28.265292 55.857574,26.52552 55.096927,26.39159 48.887111,26.39159 c -6.209816,0 -6.970464,0.13393 -10.641517,1.873702 -5.064726,2.400255 -9.404012,6.739541 -11.804267,11.804267 -1.739772,3.671054 -1.873702,4.431701 -1.873702,10.641517 0,6.209816 0.13393,6.970463 1.873702,10.641514 3.881795,8.190894 11.653775,13.462763 20.469825,13.885028 2.591546,0.124133 4.711901,0.470315 4.711901,0.769305 0,0.298983 -0.820783,0.543607 -1.823962,0.543607 -2.450114,0 -2.331968,1.075888 0.151997,1.384143 1.086777,0.13487 0.0608,0.28007 -2.279952,0.322671 -2.649305,0.04821 -5.406481,-0.320409 -7.303784,-0.976482 z m 0.311932,-1.520174 c 0,-0.667674 -3.130297,-2.250094 -4.451073,-2.250094 -1.076785,0 -0.211242,1.09569 1.563134,1.978767 2.460085,1.224347 2.887939,1.264541 2.887939,0.271327 z M 30.343503,68.926073 c 0,-0.616548 -2.659086,-3.927299 -3.154273,-3.927299 -0.810644,0 -0.563048,1.195795 0.570327,2.754468 0.945765,1.30066 2.583946,2.044217 2.583946,1.172831 z m -6.626176,-13.14337 c -0.218313,-1.067428 -0.760752,-2.062052 -1.20542,-2.210274 -0.620238,-0.206747 -0.706125,0.207361 -0.368865,1.778504 0.539779,2.514587 0.845851,3.068064 1.479926,2.676184 0.27021,-0.166999 0.312671,-1.176985 0.09436,-2.244414 z m 0.559748,-12.408209 c 0.733235,-2.221723 0.425792,-3.377637 -0.620165,-2.33168 -0.32255,0.32255 -0.76258,1.467085 -0.977846,2.543412 -0.539393,2.696966 0.691896,2.533823 1.598011,-0.211732 z m 49.841503,-2.117412 c 0,-0.350999 -0.454495,-1.513774 -1.009989,-2.583945 -1.2164,-2.343428 -1.87626,-1.166431 -0.801175,1.429059 0.722721,1.744808 1.811164,2.438851 1.811164,1.154886 z M 30.760307,32.669474 c 1.543974,-1.450488 1.802315,-2.325968 0.686358,-2.325968 -0.834873,0 -3.535111,2.402958 -3.535111,3.145917 0,0.925511 1.428439,0.514367 2.848753,-0.819949 z m 36.043322,-1.869977 c -0.02754,-1.094429 -2.902677,-3.032729 -3.735279,-2.518151 -0.466849,0.288529 -0.107084,0.91204 1.069444,1.853446 1.998569,1.599176 2.693681,1.772496 2.665835,0.664705 z M 42.747707,25.478343 c 1.045957,-1.045957 -0.109958,-1.3534 -2.33168,-0.620166 -2.745556,0.906116 -2.908699,2.137405 -0.211733,1.598011 1.076328,-0.215265 2.220863,-0.655296 2.543413,-0.977845 z m 13.131256,-0.539058 c 0,-0.594859 -4.197789,-1.544421 -4.682911,-1.059299 -0.166512,0.166512 -0.122408,0.594545 0.09801,0.951186 0.482242,0.780283 4.584903,0.877026 4.584903,0.108113 z m 20.69311,47.946432 c 0.01186,-1.161085 0.381093,-2.759593 0.820546,-3.552238 0.786583,-1.418762 0.804938,-1.404626 1.180407,0.909117 0.30265,1.865001 0.133222,2.598464 -0.820552,3.552238 -1.197272,1.197279 -1.201863,1.19374 -1.180401,-0.909117 z m -33.007329,0.572791 c -6.656032,-1.56871 -12.744862,-6.640746 -15.848125,-13.201601 -2.8082,-5.937036 -2.8082,-13.154626 0,-19.091662 1.065338,-2.252316 3.18427,-5.331253 4.738839,-6.885822 1.554569,-1.554569 4.633506,-3.673501 6.885822,-4.738839 3.635222,-1.719449 4.663215,-1.926964 9.545831,-1.926964 4.882616,0 5.910608,0.207515 9.545831,1.926964 4.779021,2.260461 8.90816,6.154544 11.088529,10.457305 1.488438,2.937291 2.219001,5.833094 0.900484,3.569338 -0.340838,-0.585188 -0.879709,-1.063978 -1.197485,-1.063978 -0.317777,0 -0.591414,0.47879 -0.608079,1.063978 -0.01666,0.585187 -0.623691,-0.167197 -1.348935,-1.671965 -1.738843,-3.607814 -6.091503,-7.891387 -9.868525,-9.711889 -2.459267,-1.185353 -4.038077,-1.471979 -8.265433,-1.500553 -3.57964,-0.0242 -5.54247,0.227497 -6.231868,0.799109 -0.553504,0.458935 -1.014691,0.595732 -1.02486,0.303993 -0.01017,-0.291739 -0.290998,-0.06301 -0.624066,0.508291 -0.343589,0.589345 -1.003925,0.885865 -1.526343,0.685395 -0.50642,-0.194332 -0.853324,-0.11457 -0.770897,0.177249 0.08243,0.291818 -0.316777,1.406173 -0.887118,2.476344 -0.570342,1.070171 -1.036985,2.506541 -1.036985,3.191933 0,0.685392 -0.253533,1.246167 -0.563407,1.246167 -0.309874,0 -0.688528,0.47879 -0.841453,1.063977 -0.152926,0.585188 -0.320903,-0.44079 -0.373283,-2.279952 l -0.09524,-3.343929 -1.784825,2.087707 c -3.446589,4.03147 -4.495083,7.089884 -4.495083,13.111972 0,6.548694 1.362663,9.967854 5.701923,14.307111 3.59779,3.597794 7.651019,5.449425 12.890307,5.888666 4.20738,0.352736 6.175097,1.090948 2.895462,1.086272 -0.963736,-0.0012 -1.690689,0.271096 -1.615451,0.605488 0.07524,0.334393 0.752383,0.597202 1.504767,0.584021 0.752384,-0.01319 1.367971,0.192014 1.367971,0.45599 0,0.624403 -5.131383,0.509706 -8.058309,-0.180116 z m 0.154476,-1.712396 c 0,-0.887959 -3.78484,-1.989717 -4.472591,-1.301968 -0.391253,0.391252 -0.08976,0.800354 0.873601,1.185417 1.899252,0.759145 3.59899,0.814186 3.59899,0.116551 z M 32.807109,64.542784 c -0.963783,-1.656315 -2.254379,-3.191933 -2.68263,-3.191933 -0.680836,0 -0.420502,1.210624 0.592942,2.757331 1.152286,1.758615 3.095239,2.162696 2.089688,0.434602 z M 27.911554,51.92705 c 0,-2.125155 -0.825612,-3.251446 -1.53822,-2.098423 -0.581516,0.940914 0.269979,4.938432 0.960952,4.511386 0.317497,-0.196224 0.577268,-1.282057 0.577268,-2.412963 z M 30.82143,39.927872 c 0.544424,-0.897259 0.777695,-1.843547 0.518379,-2.102863 -0.541924,-0.541924 -2.786485,2.145819 -2.806749,3.360935 -0.02052,1.230744 1.178073,0.571793 2.28837,-1.258072 z m 34.17734,-4.529286 c 0,-0.606575 -2.555333,-3.231118 -3.145914,-3.231118 -0.834408,0 -0.565118,1.354486 0.504204,2.536072 0.98376,1.087044 2.64171,1.523258 2.64171,0.695046 z M 40.071297,31.463863 c 1.276893,-0.784301 1.811648,-1.415676 1.337076,-1.578659 -1.183413,-0.406422 -4.377012,1.090802 -4.377012,2.052031 0,1.141331 0.550713,1.055575 3.039936,-0.473372 z m 13.983705,-2.336331 c 0,-0.334393 -0.683986,-0.649026 -1.519968,-0.699185 -0.835983,-0.05016 -1.839161,-0.118558 -2.229287,-0.151997 -0.390124,-0.03344 -0.823315,0.281194 -0.962646,0.699185 -0.175089,0.525268 0.513411,0.759984 2.229287,0.759984 1.365437,0 2.482614,-0.273594 2.482614,-0.607987 z M 10.760464,67.004396 C 8.1554375,61.025469 7.5416635,57.819936 7.5825221,50.407082 7.6094322,45.524905 7.951397,42.31453 8.7158564,39.767307 12.90849,25.797208 23.944471,14.758861 37.943342,10.533558 c 5.072147,-1.5309353 16.815391,-1.5309353 21.887537,0 10.907083,3.292103 20.77767,11.284091 25.707491,20.814766 1.410153,2.726204 2.563912,5.25695 2.563912,5.623881 0,0.366931 -0.615587,0.667082 -1.367971,0.667002 -1.093629,-1.15e-4 -1.777244,-0.852826 -3.408735,-4.251895 -2.411873,-5.024917 -8.288761,-11.640311 -13.289748,-14.959777 -1.90486,-1.264374 -5.801018,-3.126366 -8.658126,-4.137759 -4.677454,-1.65578 -5.921265,-1.838897 -12.490591,-1.838897 -6.569327,0 -7.813138,0.183117 -12.490591,1.838897 -6.429625,2.276034 -10.994658,5.258202 -15.623041,10.205958 -4.367814,4.669208 -6.29838,7.890383 -8.464048,14.122387 -1.455492,4.188375 -1.668014,5.722923 -1.674774,12.092955 -0.0071,6.70589 0.151546,7.738312 1.962153,12.76773 2.510539,6.973655 2.461183,6.625346 0.971389,6.855086 -1.034353,0.159499 -1.558258,-0.46176 -2.807735,-3.329496 z m 1.951411,-0.09094 c 0,-1.17367 -1.374875,-4.346634 -1.883438,-4.346634 -0.756068,0 -0.68674,1.463371 0.157068,3.315324 0.676584,1.484942 1.72637,2.112068 1.72637,1.03131 z M 9.6719393,49.74843 c 0,-3.167766 -1.437624,-2.957709 -1.7086659,0.249659 -0.1435366,1.698539 0.038351,2.232955 0.759984,2.232955 0.7046978,0 0.9486819,-0.638485 0.9486819,-2.482614 z M 12.614284,35.482789 c 0.388068,-0.851716 0.705578,-2.004721 0.705578,-2.562231 0,-0.888861 -0.107351,-0.904052 -0.871972,-0.12339 -1.079481,1.10213 -1.904618,4.234197 -1.115491,4.234197 0.316969,0 0.893817,-0.696859 1.281885,-1.548576 z M 86.608215,35.3594 c -0.225448,-0.91958 -0.8023,-2.072585 -1.281881,-2.562232 -0.764622,-0.780662 -0.871975,-0.765471 -0.871975,0.12339 0,1.426508 1.297785,4.110807 1.987462,4.110807 0.32275,0 0.395957,-0.735623 0.166394,-1.671965 z M 23.047657,20.501963 c 0,-0.890033 -1.118043,-0.520151 -2.799465,0.926148 -1.027416,0.883746 -1.474439,1.706551 -1.183186,2.177809 0.341972,0.55332 0.941641,0.303753 2.225382,-0.926149 0.966497,-0.925964 1.757269,-1.905977 1.757269,-2.177808 z m 54.522847,0.974749 c -2.345973,-2.032069 -3.379023,-1.18205 -1.256235,1.033662 1.198391,1.250852 1.873579,1.571662 2.329806,1.106988 0.453692,-0.462094 0.13833,-1.090905 -1.073571,-2.14065 z M 34.301178,14.190258 c 1.395155,-0.582933 2.064015,-1.171768 1.720835,-1.514948 -0.744367,-0.744367 -4.462536,0.663594 -4.462536,1.689831 0,0.974624 -0.01116,0.975336 2.741701,-0.174883 z m 31.913567,0.174883 c 0,-1.032031 -3.718219,-2.434146 -4.467648,-1.684719 -0.349994,0.349996 0.221186,0.910007 1.49459,1.465352 2.625927,1.145198 2.973058,1.170812 2.973058,0.219367 z M 51.319059,10.583924 c 0,-0.706026 -3.026276,-1.1639716 -4.345804,-0.6576211 -0.494536,0.1897721 -0.719602,0.6355661 -0.500145,0.9906541 0.495145,0.801161 4.845949,0.502156 4.845949,-0.333033 z M 76.5794,64.390787 c -0.01216,-1.839161 0.277844,-4.424261 0.644429,-5.744667 0.366592,-1.320405 0.876298,-4.193145 1.132681,-6.383865 l 0.466155,-3.983128 0.0799,3.487201 c 0.04396,1.917961 -0.262085,4.76776 -0.680076,6.332889 -0.607987,2.27655 -0.607987,2.896415 0,3.099326 1.0672,0.356172 0.90525,1.92183 -0.45599,4.408218 l -1.165007,2.127955 -0.02207,-3.343929 z M 46.911152,50.57217 c 2.802889,-0.293191 2.98409,-1.216637 0.303994,-1.549234 -1.354364,-0.168075 -0.971844,-0.275823 1.215974,-0.342515 2.819042,-0.08593 3.191933,0.04475 3.191933,1.118674 0,1.086842 -0.371256,1.205121 -3.495926,1.11377 -2.593511,-0.07582 -2.907395,-0.163767 -1.215975,-0.340695 z M 40.531607,48.875512 C 37.73278,46.97366 36.86924,45.508865 37.954975,44.504857 c 0.631276,-0.583757 1.001703,-0.417508 1.8065,0.810766 0.556814,0.849806 1.940074,1.932713 3.073911,2.40646 1.413673,0.590671 1.951564,1.147906 1.711624,1.773179 -0.492912,1.284507 -1.424674,1.140696 -4.015403,-0.61975 z m -4.437226,-5.196738 c -0.220416,-0.356641 -0.270362,-0.778832 -0.110991,-0.938202 0.15937,-0.159371 0.451774,0.132425 0.649786,0.648437 0.411112,1.071338 0.06071,1.259784 -0.538795,0.289765 z"
         id="path3363" />
      <path
         style="fill:#767676;fill-opacity:1;stroke-width:0.607987"
         d="m 63.349003,91.30025 c 1.934968,-0.12102 4.944504,-0.119895 6.687859,0.0024 1.743354,0.122394 0.160198,0.22141 -3.518124,0.220036 -3.678322,-0.0012 -5.104703,-0.101509 -3.169735,-0.222529 z m 19.129398,-1.168673 c 0.417991,-0.168662 1.101977,-0.168662 1.519968,0 0.417991,0.168661 0.076,0.306662 -0.759984,0.306662 -0.835982,0 -1.177975,-0.138001 -0.759984,-0.306662 z m -22.77173,-0.657751 c 2.606827,-0.114241 6.71074,-0.113548 9.11981,0.0018 2.409064,0.115092 0.276203,0.208564 -4.739691,0.207713 -5.015894,-6.08e-4 -6.986947,-0.09502 -4.380119,-0.209264 z m 16.843855,-1.37154 c 0,-0.337099 1.609336,-0.607987 3.61204,-0.607987 1.986622,0 3.781133,0.273594 3.9878,0.607987 0.235917,0.381719 -1.108331,0.607987 -3.61204,0.607987 -2.253206,0 -3.9878,-0.264456 -3.9878,-0.607987 z M 53.719544,68.03871 c 0,-11.202164 0.08209,-15.784867 0.182429,-10.183785 0.100336,5.601082 0.100336,14.766488 0,20.36757 -0.100336,5.601081 -0.182429,1.018378 -0.182429,-10.183785 z m 31.038809,19.455589 c -0.206667,-0.334393 -0.08602,-0.607987 0.26811,-0.607987 0.354128,0 0.643871,0.273594 0.643871,0.607987 0,0.334393 -0.120649,0.607987 -0.268111,0.607987 -0.147461,0 -0.437203,-0.273594 -0.64387,-0.607987 z M 74.998256,68.03871 c 0,-10.867771 0.08244,-15.313677 0.183211,-9.879791 0.100762,5.433885 0.100762,14.325697 0,19.759582 -0.100768,5.433885 -0.183211,0.987979 -0.183211,-9.879791 z m 2.312254,17.820511 c 0.585188,-0.152921 1.542768,-0.152921 2.127955,0 0.585188,0.152927 0.106398,0.27805 -1.063977,0.27805 -1.170376,0 -1.649165,-0.125123 -1.063978,-0.27805 z m 2.583946,-0.796871 c -1.077506,-0.463019 -1.025577,-0.527386 0.45599,-0.565252 0.919581,-0.02353 1.671965,0.230859 1.671965,0.565252 0,0.713601 -0.467311,0.713601 -2.127955,0 z m 10.639775,-3.683806 c 0,-0.354128 0.273594,-0.474777 0.607987,-0.26811 0.334393,0.206667 0.607987,0.496409 0.607987,0.64387 0,0.147461 -0.273594,0.26811 -0.607987,0.26811 -0.334393,0 -0.607987,-0.289742 -0.607987,-0.64387 z m 1.013314,-0.977431 c -0.636478,-0.636471 -0.473598,-3.242596 0.20266,-3.242596 0.334393,0 0.607987,0.820783 0.607987,1.823962 0,1.888937 -0.123762,2.10552 -0.810647,1.418634 z m 2.074622,-0.557317 c 0.02918,-0.708275 0.17324,-0.852337 0.367322,-0.367328 0.175629,0.438888 0.154033,0.963277 -0.04797,1.165311 -0.202034,0.202028 -0.345725,-0.157068 -0.319327,-0.797983 z m -7.951833,-1.165311 c 0,-0.835982 0.273594,-1.519968 0.607987,-1.519968 0.334393,0 0.607987,0.683986 0.607987,1.519968 0,0.835982 -0.273594,1.519968 -0.607987,1.519968 -0.334393,0 -0.607987,-0.683986 -0.607987,-1.519968 z m -1.705435,-0.607987 c 0.0124,-1.003179 0.148653,-1.339967 0.302802,-0.748414 0.154149,0.591553 0.144014,1.412336 -0.02256,1.823961 -0.166546,0.411626 -0.292667,-0.07237 -0.280276,-1.075547 z m 5.189937,0.35273 c -0.264457,-1.011296 -0.185333,-1.248672 0.265836,-0.797503 0.353301,0.353301 0.522741,1.001245 0.376532,1.439871 -0.151784,0.455352 -0.427378,0.179752 -0.642368,-0.642368 z m -1.500184,-2.916965 c 0.924177,-0.139752 2.292148,-0.136012 3.039935,0.0083 0.747788,0.144312 -0.0083,0.25865 -1.680324,0.25409 -1.671965,-0.0049 -2.283788,-0.122643 -1.359611,-0.262389 z M 51.86776,61.350851 c 0,-5.18309 0.09325,-7.303446 0.207215,-4.7119 0.113967,2.591545 0.113967,6.832255 0,9.423801 -0.113968,2.591545 -0.207215,0.47119 -0.207215,-4.711901 z m 28.587132,-3.647923 c 0,-6.855055 0.08867,-9.659396 0.197043,-6.231868 0.108373,3.427527 0.108373,9.036209 0,12.463736 -0.108374,3.427528 -0.197043,0.623187 -0.197043,-6.231868 z m 16.885725,10.639775 c 0.0124,-1.003178 0.148652,-1.339967 0.302802,-0.748414 0.154149,0.591554 0.144013,1.412336 -0.02256,1.823962 -0.166546,0.411625 -0.292667,-0.07237 -0.280276,-1.075548 z m -0.02253,-21.583544 c 0,-0.835982 0.138001,-1.177975 0.306662,-0.759984 0.168662,0.417992 0.168662,1.101977 0,1.519968 -0.168661,0.417991 -0.306662,0.076 -0.306662,-0.759984 z M 59.706671,46.306737 c 2.606827,-0.114243 6.71074,-0.113546 9.11981,0.0015 2.409064,0.115095 0.276203,0.208567 -4.739691,0.207715 -5.015894,-8.51e-4 -6.986947,-0.09502 -4.380119,-0.209263 z m -0.919388,-1.820479 c 1.766772,-0.123204 4.502715,-0.121909 6.07987,0.0029 1.577155,0.124787 0.131617,0.22559 -3.212312,0.224006 -3.343929,-0.0016 -4.63433,-0.103681 -2.867558,-0.226884 z m 29.478566,-5.444274 c 0.591553,-0.154151 1.412336,-0.144013 1.823961,0.02253 0.411626,0.166541 -0.07237,0.292665 -1.075547,0.280275 -1.003179,-0.01239 -1.339967,-0.148652 -0.748414,-0.302804 z"
         id="path3361" />
      <path
         style="fill:#606060;fill-opacity:1;stroke-width:0.607987"
         d="m 77.017406,90.093608 c 1.092765,-0.135314 2.734331,-0.132523 3.647923,0.0062 0.913591,0.138731 0.01952,0.249439 -1.986848,0.246029 -2.006357,-0.0036 -2.753841,-0.116916 -1.661075,-0.252229 z m 0.304674,-6.668561 c 0.591553,-0.154149 1.412336,-0.144014 1.823962,0.02256 0.411625,0.166546 -0.07237,0.292667 -1.075548,0.280276 -1.003179,-0.0124 -1.339967,-0.148653 -0.748414,-0.302802 z M 63.171124,80.498008 c -0.672743,-0.810605 -0.646521,-1.125889 0.160764,-1.933174 1.303829,-1.303829 3.02287,-0.579454 2.773504,1.168697 -0.237547,1.665259 -1.840164,2.082794 -2.934268,0.764477 z m 30.499038,-2.731504 c 0,-0.835982 0.138001,-1.177975 0.306662,-0.759984 0.168662,0.417991 0.168662,1.101977 0,1.519968 -0.168661,0.417991 -0.306662,0.076 -0.306662,-0.759984 z M 55.801411,75.486552 c -0.756257,-0.964304 -0.734753,-0.985808 0.229549,-0.229551 0.585187,0.458939 1.063977,0.937729 1.063977,1.063977 0,0.500398 -0.49927,0.178329 -1.293526,-0.834426 z m 12.767727,0 c -0.756257,-0.964304 -0.734752,-0.985808 0.229552,-0.229551 0.585188,0.458939 1.063978,0.937729 1.063978,1.063977 0,0.500398 -0.499273,0.178329 -1.29353,-0.834426 z M 55.270976,72.673055 c 0,-0.126248 0.47879,-0.605038 1.063977,-1.063977 0.964302,-0.756257 0.985807,-0.734753 0.229549,0.229551 -0.794256,1.012755 -1.293526,1.334824 -1.293526,0.834426 z m 12.76773,0 c 0,-0.126248 0.47879,-0.605038 1.063978,-1.063977 0.964304,-0.756257 0.985808,-0.734753 0.229551,0.229551 -0.794256,1.012755 -1.293529,1.334824 -1.293529,0.834426 z M 55.801411,63.934796 c -0.756257,-0.964304 -0.734753,-0.985808 0.229549,-0.229551 0.585187,0.458939 1.063977,0.937729 1.063977,1.063977 0,0.500398 -0.49927,0.178329 -1.293526,-0.834426 z m 12.767727,0 c -0.756257,-0.964304 -0.734752,-0.985808 0.229552,-0.229551 0.585188,0.458939 1.063978,0.937729 1.063978,1.063977 0,0.500398 -0.499273,0.178329 -1.29353,-0.834426 z M 55.270976,61.121302 c 0,-0.126252 0.47879,-0.605042 1.063977,-1.063977 0.964302,-0.756258 0.985807,-0.734753 0.229549,0.229549 -0.794256,1.012753 -1.293526,1.334823 -1.293526,0.834428 z m 12.76773,0 c 0,-0.126252 0.47879,-0.605042 1.063978,-1.063977 0.964304,-0.756258 0.985808,-0.734753 0.229551,0.229549 -0.794256,1.012753 -1.293529,1.334823 -1.293529,0.834428 z m -5.549439,-2.65839 c -0.756257,-0.964302 -0.734753,-0.985806 0.229551,-0.229548 0.585188,0.458935 1.063978,0.937725 1.063978,1.063977 0,0.500394 -0.499273,0.178324 -1.293529,-0.834429 z m -6.687856,-6.079871 c -0.756257,-0.964302 -0.734753,-0.985807 0.229549,-0.229549 0.585187,0.458935 1.063977,0.937725 1.063977,1.063977 0,0.500395 -0.49927,0.178325 -1.293526,-0.834428 z m -0.530435,-2.813494 c 0,-0.126253 0.47879,-0.605043 1.063977,-1.063978 0.964302,-0.756258 0.985807,-0.734753 0.229549,0.229549 -0.794256,1.012753 -1.293526,1.334823 -1.293526,0.834429 z m 34.54127,-11.737532 c 0.438888,-0.17563 0.963277,-0.15403 1.165311,0.048 0.202028,0.20203 -0.157068,0.345727 -0.797983,0.319327 -0.708275,-0.02917 -0.852338,-0.17324 -0.367328,-0.367325 z"
         id="path3359" />
      <path
         style="fill:#494949;fill-opacity:1;stroke-width:0.607987"
         d="m 53.97745,88.86227 c -0.756258,-0.964304 -0.734753,-0.985809 0.229548,-0.229552 0.585188,0.458939 1.063978,0.937729 1.063978,1.063978 0,0.500397 -0.499271,0.178328 -1.293526,-0.834426 z m 33.13954,-2.206641 c 0.0767,-0.522553 0.309235,-1.119882 0.516747,-1.3274 0.207518,-0.207512 0.314554,0.05022 0.237863,0.572791 -0.0767,0.522553 -0.309235,1.119882 -0.516747,1.3274 -0.207518,0.207512 -0.314554,-0.05022 -0.237863,-0.572791 z m -3.067958,-3.011914 c 0,-0.445861 0.360452,-0.810653 0.800999,-0.810653 0.598564,0 0.630969,0.204873 0.128219,0.810653 -0.370027,0.445856 -0.730479,0.810648 -0.800999,0.810648 -0.07052,0 -0.128219,-0.364792 -0.128219,-0.810648 z m 2.595911,0.303994 c -0.172224,-0.278665 0.07319,-0.50666 0.545358,-0.50666 0.472169,0 0.717583,0.227995 0.545359,0.50666 -0.172219,0.278659 -0.417633,0.506654 -0.545359,0.506654 -0.127726,0 -0.37314,-0.227995 -0.545358,-0.506654 z M 82.022411,82.40085 c 0,-0.126249 0.47879,-0.605039 1.063977,-1.063978 0.964304,-0.756257 0.985809,-0.734752 0.229552,0.229552 -0.794256,1.012755 -1.293529,1.334824 -1.293529,0.834426 z M 65.529203,71.838629 c -0.756257,-0.964304 -0.734753,-0.985808 0.229551,-0.229551 0.585188,0.458939 1.063978,0.937729 1.063978,1.063977 0,0.500398 -0.499273,0.178329 -1.293529,-0.834426 z M 53.447014,47.745585 c 0,-0.126252 0.47879,-0.605042 1.063978,-1.063977 0.964302,-0.756258 0.985806,-0.734754 0.229548,0.229548 -0.794255,1.012754 -1.293526,1.334823 -1.293526,0.834429 z m 29.183384,-6.154316 c 0.785367,-0.835983 1.564734,-1.519968 1.73193,-1.519968 0.167197,0 -0.338576,0.683985 -1.123943,1.519968 -0.785367,0.835982 -1.564734,1.519967 -1.731931,1.519967 -0.167196,0 0.338576,-0.683985 1.123944,-1.519967 z m 12.113724,-0.151997 -1.473949,-1.671965 1.671965,1.473952 c 1.562703,1.37763 1.950781,1.869977 1.473949,1.869977 -0.108903,0 -0.861287,-0.752384 -1.671965,-1.671964 z"
         id="path3357" />
      <path
         style="fill:#333333;fill-opacity:1;stroke-width:0.607987"
         d="M 54.24955,91.108521 C 52.290094,90.363986 52.011633,87.257287 52.045509,66.518742 l 0.02979,-18.239615 1.527812,-1.671964 c 1.474781,-1.613929 1.757112,-1.675212 8.133701,-1.765498 11.26025,-0.159433 12.965812,-0.07522 13.882365,0.68545 0.736674,0.611386 0.883284,3.296322 0.858825,15.72833 -0.01623,8.245103 0.02742,15.264686 0.09695,15.599079 0.06955,0.334392 0.06722,2.044356 -0.0055,3.799919 -0.119183,2.890268 -0.0095,3.191933 1.160064,3.191933 2.367484,0 5.497274,-1.715193 6.120388,-3.354101 0.779119,-2.048437 0.776997,-4.549732 -0.0036,-4.549732 -1.27073,0 -1.549212,-0.113116 -2.583945,-1.049538 -0.585188,-0.529587 -1.063978,-1.483817 -1.063978,-2.120507 0,-0.636697 -0.273594,-0.988539 -0.607987,-0.781872 -0.734734,0.454094 -0.689312,1.322403 -0.739489,-14.135701 -0.03994,-12.313132 0.334193,-16.889901 1.330446,-16.274182 0.270603,0.167243 0.938635,-0.377557 1.484511,-1.210669 0.545875,-0.833111 1.51058,-1.514748 2.143793,-1.514748 0.633212,0 1.258849,-0.322662 1.390302,-0.717027 0.342753,-1.028267 7.872382,0.295759 9.860421,1.733877 0.844792,0.611108 2.087147,2.223464 2.760797,3.583013 1.099502,2.219022 1.224808,3.667163 1.224808,14.15523 0,12.844377 -0.344583,14.547264 -3.476993,17.183016 -1.470138,1.237041 -1.876054,2.130429 -2.119602,4.665049 -0.347993,3.62167 -2.116379,6.552928 -5.24775,8.69863 -1.750364,1.199395 -3.028475,1.495442 -7.046674,1.632196 -2.699676,0.09189 -5.866079,0.42091 -7.036454,0.731172 -2.878297,0.763024 -18.214021,1.216898 -19.869028,0.588039 z m 20.129593,-2.137683 c 0.829781,-0.829781 0.955409,-3.58212 0.955409,-20.932128 0,-17.350006 -0.125628,-20.102346 -0.955409,-20.932129 -0.7849,-0.784903 -2.607767,-0.955409 -10.214185,-0.955409 -6.390619,0 -9.484783,0.226009 -9.988359,0.729585 -1.044881,1.044881 -1.044881,41.271025 0,42.315906 0.503576,0.503577 3.59774,0.729584 9.988359,0.729584 7.606418,0 9.429285,-0.170504 10.214185,-0.955409 z M 56.723177,80.545091 c -0.605353,-1.577526 0.243124,-2.881367 1.737013,-2.669234 1.004841,0.142688 1.370689,0.600332 1.370689,1.714609 0,1.114276 -0.365848,1.57192 -1.370689,1.714609 -0.822168,0.116745 -1.517284,-0.187382 -1.737013,-0.759984 z m 12.75137,-0.04264 c -0.481648,-1.25514 0.171404,-2.735942 1.206575,-2.735942 0.471141,0 1.197211,0.410392 1.613494,0.911981 0.603847,0.72759 0.603847,1.096371 0,1.823961 -0.416283,0.50159 -1.142353,0.911981 -1.613494,0.911981 -0.471142,0 -1.014099,-0.410391 -1.206575,-0.911981 z M 56.150749,75.298964 c -1.22003,-1.348114 -0.846145,-2.621762 1.136817,-3.87258 2.165209,-1.365783 4.526142,2.189295 2.819534,4.245629 -1.030025,1.241102 -2.632288,1.090024 -3.956351,-0.373049 z m 12.767733,0 c -1.220036,-1.348114 -0.846148,-2.621762 1.136814,-3.87258 2.165207,-1.365783 4.526142,2.189295 2.819534,4.245629 -1.030027,1.241102 -2.632286,1.090024 -3.956348,-0.373049 z M 62.628259,74.61735 c -0.40588,-1.0623 -0.259672,-1.715564 0.591954,-2.644836 1.104445,-1.20514 1.10202,-1.252167 -0.103668,-2.005129 -1.546464,-0.965788 -1.317775,-3.002745 0.469689,-4.183517 1.189393,-0.785702 1.451052,-0.746578 2.583945,0.386315 1.579229,1.579228 1.578475,2.158579 -0.0049,3.741954 -1.219075,1.219075 -1.22558,1.309483 -0.177556,2.467534 0.827859,0.914778 0.933831,1.447909 0.443362,2.230492 -1.031134,1.645268 -3.175401,1.649323 -3.802826,0.0072 z m -6.47751,-10.870142 c -1.22003,-1.348114 -0.846145,-2.621763 1.136817,-3.872583 2.165209,-1.365778 4.526142,2.189298 2.819534,4.245632 -1.030025,1.241102 -2.632288,1.090024 -3.956351,-0.373049 z m 12.767733,0 c -1.220036,-1.348114 -0.846148,-2.621763 1.136814,-3.872583 2.165207,-1.365778 4.526142,2.189298 2.819534,4.245632 -1.030027,1.241102 -2.632286,1.090024 -3.956348,-0.373049 z M 62.965047,58.415039 C 61.716491,57.0354 61.679312,55.651851 62.864371,54.66834 c 0.799953,-0.663902 0.791143,-0.945188 -0.07558,-2.412431 -0.909136,-1.539043 -0.903536,-1.779317 0.07636,-3.274833 0.958297,-1.462538 1.415072,-1.613929 4.869558,-1.613929 3.458334,0 3.910591,0.150365 4.873825,1.620447 0.97202,1.483494 0.981577,1.753263 0.113031,3.191933 -0.752396,1.246276 -1.555292,1.634394 -3.879773,1.875478 -1.800858,0.186776 -2.638001,0.493656 -2.171061,0.795866 1.194622,0.773174 0.890458,2.691717 -0.591274,3.729563 -1.707373,1.195893 -1.891308,1.186125 -3.114414,-0.165395 z m -6.814298,-6.219584 c -1.22003,-1.348119 -0.846145,-2.621766 1.136817,-3.872585 2.165209,-1.365779 4.526142,2.189296 2.819534,4.245632 -1.030025,1.241104 -2.632288,1.090026 -3.956351,-0.373047 z m 30.552196,35.240447 c 3.176082,-1.537515 5.655247,-5.349132 5.655247,-8.694715 0,-1.353459 -0.244265,-2.111455 -0.607987,-1.886663 -0.334393,0.206667 -0.607987,1.074744 -0.607987,1.929058 0,2.425607 -2.348478,6.007946 -4.866354,7.423067 -1.691736,0.950813 -3.342956,1.28765 -6.312189,1.28765 -2.275435,0 -4.021136,0.263945 -4.021136,0.607987 0,1.186511 7.949858,0.694181 10.760406,-0.666384 z m -3.12489,-2.756833 c 2.651402,-1.737263 4.391437,-6.779349 2.700266,-7.824545 -0.343689,-0.212413 -0.607987,0.288143 -0.607987,1.151485 0,3.812037 -2.308795,6.081859 -6.884178,6.767979 -1.658364,0.248691 -2.674633,0.677899 -2.453253,1.036101 0.529448,0.85666 5.363213,0.102075 7.245152,-1.13102 z m 5.356957,-2.879512 c 1.244483,-2.622559 1.278955,-4.64104 0.07925,-4.64104 -0.590745,0 -0.911981,0.592101 -0.911981,1.680969 0,0.92453 -0.555165,2.716791 -1.233709,3.982796 -1.17969,2.201047 -1.183155,2.274778 -0.07925,1.683985 0.634951,-0.339816 1.600514,-1.557834 2.14569,-2.70671 z m 4.85724,-7.010907 c 3.831638,-2.52615 4.02941,-3.366875 4.033818,-17.147808 0.0036,-12.013694 -0.05241,-12.610287 -1.376082,-14.591691 -3.627063,-5.429381 -11.244388,-5.429381 -14.871451,0 -1.323661,1.981404 -1.379924,2.577997 -1.376081,14.591691 0.0036,11.246229 0.121062,12.703373 1.149886,14.263876 1.81413,2.751658 4.244304,4.029812 7.661921,4.029812 1.957834,0 3.658617,-0.407887 4.777989,-1.14588 z m -6.519957,-4.362119 c -1.925149,-1.51432 -2.082782,-3.730962 -0.385987,-5.427757 1.696795,-1.696795 3.913437,-1.539162 5.427757,0.385987 1.636348,2.080283 1.598811,2.408778 -0.517094,4.524677 -2.115898,2.115904 -2.444394,2.153441 -4.524676,0.517093 z M 86.886308,60.134877 c -1.690825,-1.690823 -1.383329,-4.089317 0.725183,-5.65648 1.543509,-1.147224 1.724883,-1.159358 3.170543,-0.212126 2.566022,1.681323 3.113733,3.322682 1.730052,5.184546 -1.539101,2.070994 -3.946159,2.363679 -5.625778,0.68406 z m 0.385987,-9.771922 c -1.925149,-1.514322 -2.082782,-3.730962 -0.385987,-5.427757 1.696795,-1.696795 3.913437,-1.539162 5.427757,0.385986 1.636348,2.080283 1.598811,2.408778 -0.517094,4.524679 -2.115898,2.115902 -2.444394,2.153443 -4.524676,0.517092 z"
         id="path3355" />
    </g>
  </g>
</svg>
