<?xml version="1.0" encoding="UTF-8" standalone="no"?>
<!-- Created with Inkscape (http://www.inkscape.org/) -->

<svg
   width="100mm"
   height="100mm"
   viewBox="0 0 100 100"
   version="1.1"
   id="svg4814"
   inkscape:version="1.1.1 (3bf5ae0d25, 2021-09-20)"
   sodipodi:docname="add_list_type_device_6163.svg"
   xmlns:inkscape="http://www.inkscape.org/namespaces/inkscape"
   xmlns:sodipodi="http://sodipodi.sourceforge.net/DTD/sodipodi-0.dtd"
   xmlns="http://www.w3.org/2000/svg"
   xmlns:svg="http://www.w3.org/2000/svg">
  <sodipodi:namedview
     id="namedview4816"
     pagecolor="#505050"
     bordercolor="#ffffff"
     borderopacity="1"
     inkscape:pageshadow="0"
     inkscape:pageopacity="0"
     inkscape:pagecheckerboard="1"
     inkscape:document-units="mm"
     showgrid="false"
     inkscape:zoom="0.58974467"
     inkscape:cx="397.62971"
     inkscape:cy="286.56469"
     inkscape:window-width="1440"
     inkscape:window-height="890"
     inkscape:window-x="-6"
     inkscape:window-y="-6"
     inkscape:window-maximized="1"
     inkscape:current-layer="layer1" />
  <defs
     id="defs4811" />
  <g
     inkscape:label="Laag 1"
     inkscape:groupmode="layer"
     id="layer1">
    <g
       id="g4830"
       transform="translate(-1.7945594,-0.44864)">
      <path
         style="fill:#d0d0d0;fill-opacity:1;stroke-width:0.602448"
         d="m 55.974189,92.435442 c -0.414183,-0.148793 -0.75306,-0.73418 -0.75306,-1.300861 0,-0.767959 0.878622,-1.21462 3.450424,-1.754058 3.224246,-0.676297 3.530302,-0.640831 4.668978,0.54104 l 1.218548,1.264775 -1.355509,-0.404779 c -0.74553,-0.222629 -1.356045,-0.183187 -1.356708,0.08765 -6.02e-4,0.270843 -0.843612,0.551626 -1.873234,0.623962 -1.02962,0.07234 -2.181264,0.374819 -2.559208,0.672169 -0.377944,0.297351 -1.026048,0.418901 -1.440231,0.270102 z m -9.300297,-1.786561 c 0.434892,-0.174029 0.954504,-0.15263 1.154693,0.04753 0.200188,0.200187 -0.155633,0.342576 -0.790714,0.316417 -0.701818,-0.02892 -0.844572,-0.171661 -0.363979,-0.363975 z m 1.135264,-2.837544 c -0.24652,-0.627281 -0.306286,-1.282444 -0.132813,-1.455913 0.549469,-0.549469 1.032934,0.350963 0.802697,1.494988 -0.211003,1.048459 -0.243226,1.04658 -0.669884,-0.0391 z m 6.809524,-0.896539 c 0,-0.842386 0.703971,-1.310639 2.741921,-1.823798 4.819421,-1.213542 5.509213,0.620817 0.763425,2.030166 -3.817486,1.13367 -3.505346,1.15205 -3.505346,-0.206368 z m -10.538582,-0.06462 c -0.211061,-0.341504 0.03076,-0.442498 0.566894,-0.236768 1.043691,0.400502 1.23465,0.832318 0.368068,0.832318 -0.311791,0 -0.732524,-0.267999 -0.934962,-0.59555 z m 9.728547,-4.498488 c -0.243598,-0.634806 0.445482,-1.100204 2.49595,-1.685747 2.312365,-0.660332 2.868214,-0.665248 3.027234,-0.02675 0.107133,0.430142 0.513785,0.810498 0.903673,0.845241 0.900157,0.08022 -3.772851,1.63578 -5.10053,1.697881 -0.544406,0.02548 -1.141254,-0.348306 -1.326327,-0.830602 z M 46.03379,81.624704 c 0.414184,-0.167125 1.091938,-0.167125 1.506121,0 0.414184,0.167125 0.07531,0.303869 -0.75306,0.303869 -0.828367,0 -1.167244,-0.136744 -0.753061,-0.303869 z m 7.227331,-3.734421 c -0.245232,-0.937765 0.09829,-1.219916 1.826767,-1.50041 2.190941,-0.355541 3.145483,-0.109977 3.145483,0.809191 0,0.476368 -0.536804,0.705582 -3.69062,1.57586 -0.603525,0.166541 -1.095554,-0.173083 -1.28163,-0.884641 z m 18.226115,-3.397194 c 1.124036,-1.159713 2.179254,-2.10857 2.344928,-2.10857 0.165673,0 -0.618444,0.948857 -1.74248,2.10857 -1.124036,1.159713 -2.179255,2.108569 -2.344928,2.108569 -0.165673,0 0.618443,-0.948856 1.74248,-2.108569 z M 52.218112,74.30042 c 0.0203,-0.901902 0.997071,-1.870217 2.439899,-2.418776 1.286031,-0.488948 1.534228,-0.401725 1.607031,0.564759 0.04736,0.628655 0.03338,1.143013 -0.03105,1.143013 -0.06443,0 -0.996438,0.252179 -2.071127,0.560392 -1.074689,0.308218 -1.949829,0.375994 -1.944755,0.150612 z m 38.547473,-2.74581 c 0,-0.125098 0.474428,-0.599526 1.054284,-1.054284 0.95552,-0.749368 0.976828,-0.728059 0.227461,0.22746 -0.787021,1.003529 -1.281745,1.322664 -1.281745,0.826824 z M 65.161527,68.16738 c 0.599732,-0.662693 1.225971,-1.204896 1.391644,-1.204896 0.165673,0 -0.189464,0.542203 -0.789195,1.204896 -0.599732,0.662694 -1.225971,1.204897 -1.391644,1.204897 -0.165673,0 0.189464,-0.542203 0.789195,-1.204897 z m 21.085695,-2.409793 c 0.599731,-0.662693 1.22597,-1.204897 1.391643,-1.204897 0.165674,0 -0.189464,0.542204 -0.789195,1.204897 -0.599731,0.662693 -1.22597,1.204897 -1.391644,1.204897 -0.165673,0 0.189464,-0.542204 0.789196,-1.204897 z m -0.05723,-4.9702 -1.147658,-1.355508 1.355509,1.147656 c 1.273835,1.078514 1.629761,1.563361 1.147652,1.563361 -0.114321,0 -0.7243,-0.609979 -1.355509,-1.355509 z m 5.101202,-5.120811 c -0.749374,-0.955517 -0.728065,-0.976826 0.227454,-0.227457 1.003529,0.787019 1.322664,1.281742 0.826825,1.281742 -0.125099,0 -0.599527,-0.474428 -1.054285,-1.054285 z M 7.8410875,51.588379 C 7.6478998,51.08494 7.677783,48.918027 7.9074942,46.773016 c 0.3941862,-3.680856 0.4863048,-3.863281 1.63925,-3.246244 0.9577588,0.512578 1.1444138,1.039673 0.8642428,2.440533 -0.196544,0.982717 -0.7910597,2.220465 -1.3211475,2.750553 -0.5517282,0.551727 -0.8484708,1.567079 -0.6940597,2.37483 0.3041395,1.591003 -0.022405,1.882812 -0.5546923,0.495691 z M 25.898734,50.395152 c 0.114561,-2.663552 1.757971,-3.487235 2.103505,-1.054284 0.126049,0.887522 -0.118693,1.355509 -0.708886,1.355509 -0.49577,0 -1.035695,0.474428 -1.199832,1.054284 -0.164139,0.579857 -0.251792,-0.03012 -0.194787,-1.355509 z M 12.440112,48.503229 c 0.244506,-2.694002 0.559927,-3.490472 1.522377,-3.844143 1.114656,-0.409604 1.193669,-0.242502 0.965807,2.042535 -0.136491,1.368749 -0.367056,2.148068 -0.512367,1.73182 -0.452837,-1.297161 -1.366189,-0.163289 -1.366189,1.696042 0,0.974485 -0.206557,1.77179 -0.459016,1.77179 -0.252458,0 -0.320233,-1.52912 -0.150612,-3.398044 z m 4.266662,1.138863 c 0.02329,-1.24255 0.275336,-2.801385 0.560105,-3.464078 0.400996,-0.93317 0.527311,-0.627476 0.560105,1.355508 0.02329,1.408224 0.313445,2.560406 0.644792,2.560406 0.331346,0 0.602448,0.406653 0.602448,0.903673 0,0.50204 -0.53551,0.903672 -1.204897,0.903672 -0.99822,0 -1.197633,-0.387517 -1.162553,-2.259181 z m 74.058811,2.031724 c 0,-0.125102 0.474428,-0.59953 1.054284,-1.054285 0.95552,-0.749368 0.976828,-0.728059 0.227461,0.227458 -0.787021,1.003527 -1.281745,1.322663 -1.281745,0.826827 z M 21.484018,48.889031 c 0,-2.054897 0.187061,-2.462116 1.054285,-2.295105 0.762702,0.146883 1.054284,0.781639 1.054284,2.295105 0,1.513467 -0.291582,2.148222 -1.054284,2.295105 -0.867224,0.167012 -1.054285,-0.240207 -1.054285,-2.295105 z m 17.11254,-0.150612 -1.147657,-1.355509 1.355509,1.147657 c 1.273844,1.078514 1.629768,1.563361 1.147657,1.563361 -0.114319,0 -0.724298,-0.609979 -1.355509,-1.355509 z M 18.811733,46.053384 c -0.326939,-0.858608 -0.25774,-0.927808 0.337248,-0.337248 0.411724,0.408661 0.596828,0.894781 0.411342,1.080267 -0.185486,0.185487 -0.522352,-0.148872 -0.74859,-0.743019 z m 67.435489,-0.176595 c 0.599731,-0.662693 1.22597,-1.204896 1.391643,-1.204896 0.165674,0 -0.189464,0.542203 -0.789195,1.204896 -0.599731,0.662694 -1.22597,1.204897 -1.391644,1.204897 -0.165673,0 0.189464,-0.542203 0.789196,-1.204897 z M 28.13011,41.207814 c 0.02637,-0.621867 1.534781,-2.560406 1.992297,-2.560406 0.204878,0 0.0637,0.677755 -0.313729,1.506121 -0.638011,1.400283 -1.722113,2.081192 -1.678568,1.054285 z m 35.451388,-4.247091 c -1.119066,-1.211949 -1.423019,-1.691373 -0.675459,-1.065387 0.74756,0.625986 1.560865,0.934783 1.807345,0.686217 0.24648,-0.248568 -0.365162,-1.102344 -1.359202,-1.897282 -0.99404,-0.794937 -1.892851,-1.191879 -1.997357,-0.882091 -0.104501,0.309787 -1.053359,0.08038 -2.108567,-0.509792 -1.055208,-0.590173 -2.66409,-1.258503 -3.575293,-1.485179 -0.911203,-0.226675 -1.656733,-0.715962 -1.656733,-1.087304 0,-0.371342 -0.474428,-1.038092 -1.054285,-1.481665 -0.800668,-0.612489 -0.257204,-0.579444 2.259182,0.137366 3.83549,1.092568 7.904894,3.527768 10.679578,6.390845 1.823606,1.881698 1.875031,2.049134 0.829765,2.701912 -0.947435,0.591682 -1.419037,0.365892 -3.148974,-1.50764 z m -42.929621,-0.87372 c 1.785858,-3.029881 2.221284,-3.458701 2.921719,-2.877391 0.402766,0.334266 0.947406,0.406781 1.210311,0.161146 0.262906,-0.245635 0.160648,0.16337 -0.227239,0.908899 -0.792202,1.522635 -1.414043,1.841659 -0.880718,0.451837 0.577607,-1.505219 -0.725907,-1.011159 -1.589484,0.602448 -0.443328,0.828367 -1.047342,1.506121 -1.342253,1.506121 -0.294911,0 -0.336462,-0.338877 -0.09234,-0.75306 z m 47.220668,-1.274029 c -0.828366,-1.013124 -1.432104,-2.166862 -1.341646,-2.563863 0.176222,-0.773372 -2.861221,-3.455967 -3.354536,-2.962648 -0.162305,0.162306 0.0824,0.773232 0.543807,1.357612 0.461397,0.584381 -0.05452,0.326961 -1.146442,-0.572044 -1.091943,-0.899006 -3.029554,-1.915731 -4.305804,-2.25939 -1.276251,-0.343659 -2.475374,-1.028543 -2.664718,-1.521966 -0.189344,-0.493422 -0.759423,-0.897132 -1.266842,-0.897132 -0.50742,0 -0.922581,-0.276266 -0.922581,-0.613926 0,-0.905174 2.723478,-0.148739 7.530606,2.091596 4.494253,2.094521 10.700363,7.304928 9.572585,8.036766 -0.361029,0.23428 -0.764844,0.723205 -0.897365,1.0865 -0.13252,0.363295 -0.918697,-0.168382 -1.747064,-1.181505 z m -50.455054,0.488699 c -0.992625,-1.081584 -0.963376,-1.293714 0.452564,-3.282218 0.872623,-1.225486 1.552288,-1.602487 2.460721,-1.364927 0.690304,0.180519 0.998351,0.49393 0.684549,0.69647 -0.313801,0.202539 -1.082249,1.358922 -1.70766,2.569739 -0.93955,1.818996 -1.267951,2.058921 -1.890174,1.380936 z m 53.063144,-4.31816 c -1.381999,-1.500232 -2.393275,-3.038987 -2.247271,-3.419455 0.145997,-0.380469 -0.605569,-1.206287 -1.670156,-1.835151 -1.183215,-0.698942 -2.018172,-0.895681 -2.148024,-0.506132 -0.133767,0.4013 -1.05376,0.230764 -2.484666,-0.460573 -1.249736,-0.603807 -2.981454,-1.27583 -3.848263,-1.493386 -0.936648,-0.235083 -1.456261,-0.70763 -1.280825,-1.164808 0.16872,-0.439677 -0.300158,-0.928706 -1.094392,-1.141427 -2.101028,-0.562719 -3.614303,-0.461505 -3.196927,0.213824 0.221582,0.358528 -0.495784,0.602448 -1.771791,0.602448 -1.742491,0 -2.144124,-0.225698 -2.144124,-1.204897 0,-0.959565 0.398664,-1.203083 1.957958,-1.195992 3.390341,0.01542 9.538614,1.754652 13.332297,3.77146 4.228947,2.248203 11.785126,8.988472 10.528678,9.391801 -0.449529,0.144301 -0.952875,0.46658 -1.118548,0.716175 -0.165673,0.249595 -1.431948,-0.773654 -2.813946,-2.273887 z m 2.194081,-4.078598 c -2.144174,-2.114798 -4.92639,-4.315107 -6.182693,-4.889576 -1.448347,-0.662279 -2.169032,-1.344618 -1.969464,-1.86467 0.387271,-1.009225 -2.6766,-2.35544 -3.249836,-1.427922 -0.242986,0.393157 -1.402486,0.295775 -3.308586,-0.277877 -1.613977,-0.485736 -3.704723,-0.883156 -4.646101,-0.883156 -1.119788,0 -1.711598,-0.312458 -1.711598,-0.903672 0,-0.556459 -0.565028,-0.903673 -1.470566,-0.903673 -0.808812,0 -1.645832,-0.283585 -1.860044,-0.630189 -0.866613,-1.402208 10.323723,0.640372 15.183771,2.771505 6.188795,2.71379 15.767846,10.532179 14.26843,11.645848 -0.284645,0.211415 -0.660922,0.569809 -0.836174,0.79643 -0.175253,0.226622 -2.072965,-1.318249 -4.217139,-3.433048 z m 3.029659,0.991794 c 0,-0.799095 -2.372105,-2.741672 -2.811428,-2.30235 -0.216834,0.216835 0.09795,0.938111 0.699515,1.602836 1.136645,1.255977 2.111913,1.579008 2.111913,0.699514 z m 3.107501,-1.298269 c -0.80545,-1.089432 -1.044989,-1.807345 -0.603033,-1.807345 0.403261,0 -0.02639,-0.792853 -0.954802,-1.761895 -0.928404,-0.969042 -2.056567,-1.620465 -2.507023,-1.447607 -0.450463,0.172858 -1.223236,-0.05092 -1.717273,-0.497286 -1.902786,-1.719187 -4.13961,-3.200941 -6.663321,-4.414028 -0.99404,-0.477811 -1.452467,-0.879359 -1.018728,-0.892329 1.279709,-0.03827 0.265354,-1.058214 -1.751709,-1.761366 -1.584132,-0.552233 -1.815912,-0.513241 -1.520785,0.255844 0.268879,0.700697 0.11114,0.782911 -0.692538,0.360947 -0.572397,-0.300535 -2.171669,-0.733702 -3.553935,-0.962594 -1.382266,-0.228892 -2.666895,-0.816658 -2.854729,-1.306148 -0.187835,-0.489491 -0.09668,-0.738662 0.202574,-0.553715 0.299251,0.184947 0.646856,0.02798 0.772456,-0.348823 0.162689,-0.488067 1.260341,-0.387718 3.816758,0.348935 5.388938,1.552866 10.681839,4.258991 14.809695,7.571814 3.602448,2.891157 8.406661,7.955424 7.369673,7.768598 -1.230007,-0.221601 -2.066585,0.09502 -1.722418,0.651895 0.818697,1.324679 -0.156239,0.492067 -1.410862,-1.204897 z"
         id="path4846" />
      <path
         style="fill:#b9b9b9;fill-opacity:1;stroke-width:0.602448"
         d="m 43.059201,90.046433 c 0.434893,-0.174029 0.954505,-0.15263 1.154693,0.04753 0.200189,0.200188 -0.155632,0.342576 -0.790713,0.316418 -0.701818,-0.02892 -0.844573,-0.171662 -0.36398,-0.363975 z m 2.409794,-4.217139 c 0.434893,-0.174029 0.954504,-0.15263 1.154693,0.04753 0.200188,0.200188 -0.155633,0.342577 -0.790713,0.316418 -0.701819,-0.02892 -0.844573,-0.171661 -0.36398,-0.363975 z m 35.054967,-0.19091 c 0,-0.331346 0.271102,-0.602448 0.602448,-0.602448 0.331347,0 0.602449,0.271102 0.602449,0.602448 0,0.331347 -0.271102,0.602449 -0.602449,0.602449 -0.331346,0 -0.602448,-0.271102 -0.602448,-0.602449 z M 43.66165,81.009707 c 0.434892,-0.174029 0.954504,-0.15263 1.154693,0.04753 0.200188,0.200188 -0.155633,0.342576 -0.790714,0.316418 -0.701818,-0.02892 -0.844572,-0.171662 -0.363979,-0.363975 z m -9.382869,-0.627239 c -0.418179,-0.149251 -1.597209,-1.487741 -2.620065,-2.974409 l -1.859739,-2.703041 2.117983,1.388372 c 1.16489,0.763604 1.963624,1.63813 1.774965,1.943385 -0.18866,0.30526 0.153038,0.917739 0.759327,1.361069 1.179469,0.862447 1.079779,1.431574 -0.172471,0.984624 z m 51.064768,-1.069792 c 0,-0.828367 0.271102,-1.506121 0.602448,-1.506121 0.331347,0 0.602449,0.677754 0.602449,1.506121 0,0.828367 -0.271102,1.506121 -0.602449,1.506121 -0.331346,0 -0.602448,-0.677754 -0.602448,-1.506121 z m -38.70731,-2.507559 c 0.414183,-0.167125 1.091938,-0.167125 1.506121,0 0.414183,0.167125 0.07531,0.303869 -0.753061,0.303869 -0.828366,0 -1.167243,-0.136744 -0.75306,-0.303869 z M 34.999338,75.492852 c -4.528612,-2.45114 -8.058822,-6.274163 -5.438487,-5.889584 1.711777,0.251239 7.687501,4.455269 6.966356,4.90096 -0.535644,0.331045 -0.51403,0.563705 0.08687,0.935084 1.589491,0.982359 0.187208,1.028856 -1.614736,0.05356 z m 51.398496,0.709817 c 0.414183,-0.167126 1.091937,-0.167126 1.506121,0 0.414183,0.167125 0.07531,0.303869 -0.753061,0.303869 -0.828366,0 -1.167244,-0.136744 -0.75306,-0.303869 z m 3.012242,0 c 0.414183,-0.167126 1.091938,-0.167126 1.506121,0 0.414183,0.167125 0.07531,0.303869 -0.753061,0.303869 -0.828366,0 -1.167243,-0.136744 -0.75306,-0.303869 z M 35.090042,70.122301 c -1.628718,-1.240881 -3.026781,-2.722163 -3.106805,-3.291748 -0.195181,-1.389228 0.678275,-1.14073 4.16943,1.186215 1.615657,1.076877 3.187778,1.957958 3.493602,1.957958 0.310158,0 0.270891,0.532811 -0.0888,1.204896 -0.354663,0.662694 -0.838629,1.20353 -1.075481,1.201861 -0.236852,-0.0018 -1.763228,-1.018301 -3.391946,-2.259182 z m 44.926592,-0.750024 c 0,-0.828366 0.136744,-1.167244 0.303869,-0.75306 0.167125,0.414183 0.167125,1.091937 0,1.506121 -0.167125,0.414183 -0.303869,0.07531 -0.303869,-0.753061 z m 16.868555,0 c 0,-0.828366 0.136744,-1.167244 0.303869,-0.75306 0.167126,0.414183 0.167126,1.091937 0,1.506121 -0.167125,0.414183 -0.303869,0.07531 -0.303869,-0.753061 z M 78.306994,60.938 c 0,-2.153754 0.109344,-3.034834 0.242985,-1.957958 0.133635,1.076877 0.133635,2.839038 0,3.915915 -0.133641,1.076876 -0.242985,0.195796 -0.242985,-1.957957 z M 42.117876,51.003102 c -1.076877,-0.468054 -1.957958,-0.999646 -1.957958,-1.181315 0,-0.704117 2.971484,-0.285001 3.791222,0.534736 0.475773,0.475773 2.053973,0.970613 3.50711,1.099645 l 2.642067,0.234602 -3.012242,0.08167 c -1.656733,0.04492 -3.893323,-0.301283 -4.970199,-0.769338 z m 7.681217,-0.944729 c 0,-0.350901 0.271102,-0.470453 0.602448,-0.265669 0.331347,0.204784 0.602449,0.491885 0.602449,0.638003 0,0.146119 -0.271102,0.26567 -0.602449,0.26567 -0.331346,0 -0.602448,-0.287102 -0.602448,-0.638004 z m 30.217541,-2.374238 c 0,-0.828367 0.136744,-1.167244 0.303869,-0.753061 0.167125,0.414183 0.167125,1.091938 0,1.506121 -0.167125,0.414183 -0.303869,0.07531 -0.303869,-0.75306 z m 16.868555,0 c 0,-0.828367 0.136744,-1.167244 0.303869,-0.753061 0.167126,0.414183 0.167126,1.091938 0,1.506121 -0.167125,0.414183 -0.303869,0.07531 -0.303869,-0.75306 z M 26.737411,44.994633 c 1.076044,-3.648927 1.081251,-3.655525 2.119542,-2.685617 1.197989,1.119089 -0.337487,5.719375 -1.909003,5.719375 -1.044061,0 -1.055703,-0.16776 -0.210539,-3.033758 z M 22.123973,44.52128 c 1.103065,-3.885513 1.921169,-5.342263 2.808885,-5.001614 0.476764,0.182952 0.989761,0.332639 1.139992,0.332639 0.150231,0 -0.02109,0.549797 -0.380724,1.22177 -0.359629,0.671974 -0.898144,1.070802 -1.1967,0.886285 -0.298556,-0.184518 -0.870069,0.756745 -1.27003,2.091695 -0.399961,1.33495 -0.936467,2.427183 -1.192236,2.427183 -0.255768,0 -0.214902,-0.881081 0.09081,-1.957958 z m -4.54265,0.774451 c -0.362453,-0.58646 1.74767,-7.159035 2.542177,-7.918332 0.251265,-0.24013 0.727947,-0.120388 1.059294,0.266093 0.410064,0.478297 0.206084,1.856995 -0.638762,4.317383 -1.178684,3.432601 -2.195167,4.576765 -2.962709,3.334856 z m -4.131366,-3.219548 c 0.504215,-1.720153 1.399,-4.211957 1.98841,-5.537344 l 1.071655,-2.409794 -0.20252,3.313467 c -0.283929,4.645402 -0.997551,6.734035 -2.489365,7.285893 -1.278198,0.472837 -1.280128,0.458935 -0.36818,-2.652222 z m -3.8642952,1.554049 c -1.1248905,-0.39382 -0.9240378,-2.042826 0.8228612,-6.755703 1.487925,-4.014207 2.625352,-5.137 3.602419,-3.556073 0.260454,0.421424 0.165865,0.532373 -0.240013,0.281526 -0.872974,-0.539527 -2.696234,2.967529 -2.258985,4.345178 0.488424,1.538888 -1.023522,6.001124 -1.9262822,5.685072 z M 88.242832,40.043213 c 0.434889,-0.17403 0.954501,-0.152627 1.154695,0.04756 0.200187,0.200189 -0.155637,0.342577 -0.790714,0.316418 -0.701822,-0.0289 -0.844572,-0.171662 -0.363981,-0.363979 z m -53.504949,-2.22571 c 0,-0.125102 0.474428,-0.599531 1.054285,-1.054285 0.955516,-0.749368 0.976825,-0.72806 0.227457,0.227457 -0.78702,1.003528 -1.281742,1.322663 -1.281742,0.826828 z m 3.381128,-2.442644 c 0.315662,-0.822603 3.223722,-2.372384 3.650604,-1.945503 0.137003,0.137003 -0.695802,0.806599 -1.850677,1.487993 -1.299778,0.766887 -1.985534,0.941194 -1.799927,0.45751 z M 65.385903,35.18333 c -0.749367,-0.955517 -0.728059,-0.976825 0.227461,-0.227457 1.003528,0.78702 1.322663,1.281742 0.826824,1.281742 -0.125098,0 -0.599527,-0.474428 -1.054285,-1.054285 z m 6.364657,-6.325708 -1.769445,-1.957957 1.957957,1.769445 c 1.825093,1.649372 2.234873,2.146469 1.769445,2.146469 -0.103681,0 -0.984762,-0.881081 -1.957957,-1.957957 z m 8.094105,-4.518363 c -0.749367,-0.955517 -0.728059,-0.976826 0.22746,-0.227458 1.003529,0.78702 1.322664,1.281742 0.826825,1.281742 -0.125099,0 -0.599527,-0.474428 -1.054285,-1.054284 z M 50.891031,23.777106 c 0.434892,-0.17403 0.954504,-0.152627 1.154693,0.04756 0.200188,0.200189 -0.155633,0.342577 -0.790714,0.316418 -0.701818,-0.0289 -0.844572,-0.171662 -0.363979,-0.363979 z m 25.338944,-3.052538 c -0.749368,-0.955517 -0.728059,-0.976825 0.22746,-0.227457 0.579857,0.454754 1.054285,0.929183 1.054285,1.054285 0,0.495835 -0.494725,0.1767 -1.281745,-0.826828 z M 50.853378,14.75293 c 0.414183,-0.167126 1.091937,-0.167126 1.506121,0 0.414183,0.167127 0.07531,0.303867 -0.753061,0.303867 -0.828366,0 -1.167244,-0.13674 -0.75306,-0.303867 z"
         id="path4844" />
      <path
         style="fill:#a3a3a3;fill-opacity:1;stroke-width:0.602448"
         d="m 40.423023,92.0821 c -0.481302,-0.266445 -1.125317,-0.329798 -1.431145,-0.140786 -0.305827,0.189012 -0.70469,0.103151 -0.886364,-0.190808 -0.375839,-0.608117 -3.814762,-1.505392 -5.174976,-1.350243 -0.545335,0.0622 -0.306443,-0.379464 0.602448,-1.113813 0.828367,-0.669296 1.912774,-1.049832 2.409794,-0.845644 0.49702,0.204181 2.756317,0.809353 5.020662,1.344815 2.264344,0.535468 3.913547,1.176901 3.664895,1.425411 -0.248653,0.24851 0.406393,0.451836 1.455657,0.451836 1.049265,0 1.907754,0.283802 1.907754,0.630667 0,0.723408 -6.192513,0.550415 -7.568725,-0.211435 z m -1.775805,-5.157169 c -4.709269,-1.349087 -5.314696,-1.72525 -4.382645,-2.723019 0.582477,-0.62354 1.39512,-0.560078 4.264816,0.333076 1.949874,0.606864 4.2666,1.107547 5.148282,1.11262 1.224517,0.007 1.393655,0.141653 0.71627,0.570042 -1.002507,0.633993 -0.480654,0.943176 2.39291,1.417718 0.828367,0.136798 0.150612,0.266331 -1.506121,0.28785 -1.656733,0.02151 -4.641814,-0.427714 -6.633512,-0.998287 z m 34.797975,-0.520516 c 1.24255,-0.129972 3.275813,-0.129972 4.518363,0 1.24255,0.129979 0.225918,0.236317 -2.259181,0.236317 -2.4851,0 -3.501732,-0.106338 -2.259182,-0.236317 z m 2.119359,-1.202643 c 1.082811,-0.134081 2.709422,-0.131316 3.614691,0.0061 0.905269,0.137466 0.01934,0.247166 -1.968747,0.243787 -1.98808,-0.0036 -2.728754,-0.115851 -1.645944,-0.249932 z M 43.172161,83.414838 c -2.714297,-0.454367 -7.20665,-2.071869 -7.622348,-2.744484 -0.268223,-0.433992 -0.03013,-0.514094 0.697809,-0.234756 0.607721,0.233207 1.266656,0.162359 1.4643,-0.157438 0.392971,-0.635836 7.425801,1.059429 7.769624,1.872873 0.110449,0.261312 0.720428,0.475109 1.355509,0.475109 0.635081,0 1.154693,0.271102 1.154693,0.602449 0,0.597339 -1.920435,0.671549 -4.819587,0.186247 z m 1.467297,-4.399127 c -3.548322,-0.520865 -7.491782,-1.84733 -7.491782,-2.520018 0,-0.256498 0.85546,-0.295272 1.901021,-0.08616 1.476945,0.295387 1.792162,0.204068 1.413037,-0.409369 -0.313892,-0.507889 -0.252285,-0.643903 0.172689,-0.381254 0.363369,0.224575 2.235193,0.699298 4.15961,1.054942 3.191679,0.589839 4.368232,1.256183 4.393386,2.488208 0.01022,0.50061 -0.182945,0.494393 -4.547961,-0.146353 z m -2.23011,-5.07508 c -1.579261,-0.424792 -3.047729,-0.948699 -3.263263,-1.164231 -0.826887,-0.826891 0.273929,-0.942266 2.202009,-0.230792 1.327864,0.489989 2.084577,0.532408 2.224598,0.124707 0.116712,-0.339835 1.269506,-0.517052 2.561763,-0.393815 1.688796,0.161053 2.433905,0.546602 2.649474,1.370938 0.24948,0.954019 -0.01985,1.140037 -1.601643,1.106216 -1.045856,-0.02235 -3.193678,-0.388224 -4.772938,-0.813023 z M 79.561544,58.528206 c 0,-5.135873 0.0924,-7.236912 0.205327,-4.668975 0.112929,2.567936 0.112929,6.770014 0,9.33795 -0.112929,2.567936 -0.205327,0.466898 -0.205327,-4.668975 z m 18.073453,0 c 0,-5.135873 0.0924,-7.236912 0.205326,-4.668975 0.112929,2.567936 0.112929,6.770014 0,9.33795 -0.112929,2.567936 -0.205326,0.466898 -0.205326,-4.668975 z m -33.88447,4.217139 c 0,-0.828367 0.136744,-1.167244 0.303869,-0.753061 0.167125,0.414184 0.167125,1.091938 0,1.506121 -0.167125,0.414184 -0.303869,0.07531 -0.303869,-0.75306 z M 23.291363,52.804946 c 0,-0.50204 -0.53551,-0.903673 -1.204897,-0.903673 -0.764007,0 -1.187493,-0.385778 -1.157335,-1.054284 0.02841,-0.629823 0.169901,-0.751097 0.351429,-0.301225 0.167126,0.414184 0.823478,0.753061 1.458558,0.753061 0.753061,0 1.154693,0.419094 1.154693,1.204897 0,0.662693 -0.13555,1.204897 -0.301224,1.204897 -0.165673,0 -0.301224,-0.406653 -0.301224,-0.903673 z M 12.936781,52.092181 c 0.434893,-0.17403 0.954504,-0.152627 1.154693,0.04756 0.200188,0.200189 -0.155633,0.342577 -0.790713,0.316418 -0.701819,-0.02891 -0.844573,-0.171662 -0.36398,-0.363979 z m 4.179486,0.01255 c 0.414183,-0.167127 1.091938,-0.167127 1.506121,0 0.414183,0.167127 0.07531,0.303866 -0.753061,0.303866 -0.828366,0 -1.167243,-0.136739 -0.75306,-0.303866 z M 41.529983,49.659203 C 39.262738,49.377 36.31212,46.324158 37.979727,45.98595 c 0.52085,-0.105634 1.851878,0.498121 2.957838,1.341678 1.10596,0.843557 3.077814,1.783833 4.381898,2.089502 l 2.371061,0.555765 -2.10857,-0.0359 c -1.159713,-0.01974 -2.9831,-0.144751 -4.051971,-0.277792 z m 40.198876,-6.419665 c 0,-0.125102 0.474428,-0.59953 1.054284,-1.054284 0.95552,-0.749369 0.976828,-0.72806 0.227461,0.227457 -0.787021,1.003527 -1.281745,1.322663 -1.281745,0.826827 z m 12.574568,-0.826827 c -0.749368,-0.955517 -0.728059,-0.976826 0.22746,-0.227457 1.003529,0.78702 1.322664,1.281742 0.826825,1.281742 -0.125099,0 -0.599527,-0.474428 -1.054285,-1.054285 z M 36.394616,41.609447 c -0.579857,-0.635082 -1.054285,-1.790431 -1.054285,-2.567442 0,-1.49778 1.846146,-3.554685 3.394411,-3.781922 0.756144,-0.110979 0.723087,0.08913 -0.179514,1.086706 -0.746483,0.825027 -1.087538,2.083865 -1.048559,3.870246 0.03177,1.456132 0.03177,2.62492 0,2.597308 -0.03177,-0.02761 -0.532196,-0.569816 -1.112053,-1.204896 z M 25.098708,29.383225 c 0,-0.125102 0.474428,-0.59953 1.054285,-1.054285 0.955517,-0.749368 0.976826,-0.728059 0.227457,0.227458 -0.78702,1.003527 -1.281742,1.322662 -1.281742,0.826827 z"
         id="path4842" />
      <path
         style="fill:#8c8c8c;fill-opacity:1;stroke-width:0.602448"
         d="m 17.31444,93.118787 c 0.02891,-0.701822 0.171663,-0.844572 0.36398,-0.363981 0.17403,0.434889 0.152627,0.954501 -0.04756,1.154695 -0.200189,0.200187 -0.342577,-0.155637 -0.316418,-0.790714 z m 66.221764,-8.310312 c 0,-0.125098 0.474428,-0.599526 1.054285,-1.054284 0.955519,-0.749368 0.976827,-0.728059 0.22746,0.22746 -0.787021,1.003529 -1.281745,1.322664 -1.281745,0.826824 z m -2.486642,-9.86355 c -0.749368,-0.955519 -0.728059,-0.976828 0.22746,-0.22746 1.003529,0.78702 1.322664,1.281745 0.826825,1.281745 -0.125099,0 -0.599527,-0.474428 -1.054285,-1.054285 z M 11.024909,68.13918 C 10.188966,66.211652 9.323548,63.667308 9.1017596,62.485069 8.7489266,60.604309 8.848759,60.335551 9.9002194,60.335551 c 1.2744526,0 2.3028506,2.792427 1.1677446,3.170795 -0.385006,0.128333 -0.331729,1.018782 0.147911,2.472104 0.464443,1.407278 1.042,2.159344 1.518013,1.976682 0.42259,-0.162161 1.073186,0.374217 1.445771,1.19195 0.866625,1.902032 0.880389,1.838938 -0.478713,2.194346 -0.936475,0.244895 -1.444916,-0.363523 -2.676037,-3.202248 z m 14.207677,2.304118 c -1.150194,-1.150195 -1.338775,-1.192625 -1.338775,-0.301224 0,2.0186 -1.081165,0.988696 -3.17974,-3.028978 -2.813839,-5.387033 -3.638295,-8.382646 -2.434245,-8.844684 1.305323,-0.500899 1.820102,-0.401598 0.910074,0.175554 -1.090857,0.691835 -0.252014,3.77608 1.124941,4.136163 0.588786,0.153968 1.416928,1.116247 1.840315,2.138391 0.423386,1.022144 1.663751,3.029592 2.756366,4.460998 2.218326,2.906163 2.30513,3.247847 0.321064,1.26378 z m -9.743245,-3.631427 c -2.498843,-5.488691 -2.661222,-6.654512 -1.062571,-7.628828 0.733693,-0.447158 1.1402,-0.606229 0.903348,-0.35349 -0.236852,0.252739 -0.171242,0.944213 0.145799,1.53661 0.393558,0.735371 0.356646,1.15035 -0.116347,1.308015 -0.442305,0.147434 -0.540354,0.838266 -0.271186,1.910721 0.247644,0.98669 0.730816,1.56113 1.171014,1.392216 0.435715,-0.167204 1.406496,0.944675 2.319164,2.656237 l 1.569751,2.943822 h -1.472369 c -1.221623,0 -1.764306,-0.64124 -3.186603,-3.765303 z M 27.0218,68.954178 c -1.646346,-2.034607 -4.113799,-7.027204 -4.706132,-9.522299 -0.371331,-1.564163 -0.306833,-1.706723 0.479359,-1.059512 0.499632,0.411308 1.055459,0.600796 1.235172,0.421083 0.179713,-0.179712 0.638415,0.56817 1.019339,1.66196 0.380924,1.093791 1.407223,3.073118 2.280667,4.398504 0.875071,1.327857 1.136358,2.038571 0.581963,1.58297 -1.362433,-1.119651 -1.39455,0.30273 -0.04062,1.798814 0.531024,0.586773 0.86484,1.368829 0.741814,1.737907 -0.123025,0.369078 -0.83923,-0.08966 -1.591564,-1.019427 z m 3.422099,0.568711 c -0.749368,-0.955519 -0.72806,-0.976828 0.227457,-0.22746 0.579857,0.454758 1.054285,0.929186 1.054285,1.054285 0,0.495839 -0.494722,0.176704 -1.281742,-0.826825 z m 0.606739,-2.711018 c -1.038102,-1.408223 -2.560078,-4.004095 -3.38217,-5.768606 l -1.494712,-3.208201 1.269822,-1.183019 c 1.22003,-1.136631 1.269821,-1.138856 1.269821,-0.05675 0,0.619444 0.626645,2.364046 1.392545,3.876892 0.882588,1.743332 1.103208,2.639601 0.602449,2.447438 -1.072856,-0.411689 -0.995405,0.407659 0.159127,1.683404 0.522073,0.576886 1.008383,1.45196 1.08069,1.944619 0.07231,0.492652 0.491656,1.329736 0.931888,1.860186 0.440232,0.530443 0.633376,0.964447 0.429209,0.964447 -0.204167,0 -1.220568,-1.152182 -2.258669,-2.560406 z m 2.123884,-1.204896 -1.147657,-1.355509 1.355509,1.147658 c 1.273844,1.078515 1.629768,1.56336 1.147657,1.56336 -0.114319,0 -0.724298,-0.609979 -1.355509,-1.355509 z M 44.866547,49.079939 c 0.434892,-0.17403 0.954504,-0.152627 1.154693,0.04756 0.200188,0.200189 -0.155633,0.342577 -0.790714,0.316418 -0.701818,-0.02891 -0.844572,-0.171662 -0.363979,-0.363979 z m -2.593794,-0.786456 c -0.211062,-0.341503 0.03076,-0.442502 0.566893,-0.236768 1.043692,0.400502 1.23465,0.832316 0.368069,0.832316 -0.311792,0 -0.732525,-0.267996 -0.934962,-0.595548 z m -2.533241,-1.754794 c -0.728244,-0.607948 -1.487846,-1.886662 -1.688006,-2.841587 l -0.363926,-1.736227 1.010347,1.807345 c 0.555691,0.99404 1.425086,2.281773 1.93199,2.86163 1.184831,1.355352 0.794457,1.315384 -0.890405,-0.09116 z M 35.64964,43.694647 c -0.501466,-1.200179 -0.888701,-3.030116 -0.860522,-4.066527 0.04335,-1.59428 0.16995,-1.420644 0.82235,1.127858 0.424113,1.656733 0.972266,3.48667 1.218117,4.066527 0.245851,0.579856 0.286085,1.054284 0.08941,1.054284 -0.196677,0 -0.767885,-0.981964 -1.269352,-2.182142 z m 1.59316,-3.842342 c 0,-0.828366 0.13674,-1.167244 0.303867,-0.75306 0.167126,0.414183 0.167126,1.091937 0,1.506121 -0.167127,0.414183 -0.303867,0.07531 -0.303867,-0.753061 z"
         id="path4840" />
      <path
         style="fill:#767676;fill-opacity:1;stroke-width:0.602448"
         d="m 47.841136,93.071224 c 0.414183,-0.167125 1.091937,-0.167125 1.506121,0 0.414183,0.167125 0.07531,0.303869 -0.753061,0.303869 -0.828366,0 -1.167244,-0.136744 -0.75306,-0.303869 z m -5.384383,-0.614997 c 0.434892,-0.17403 0.954504,-0.152631 1.154693,0.04753 0.200188,0.200187 -0.155633,0.342576 -0.790714,0.316418 -0.701818,-0.02892 -0.844572,-0.171662 -0.363979,-0.363976 z M 82.180695,90.66143 c 0.414183,-0.167125 1.091938,-0.167125 1.506121,0 0.414183,0.167126 0.07531,0.303869 -0.753061,0.303869 -0.828366,0 -1.167243,-0.136743 -0.75306,-0.303869 z M 46.03379,88.251637 c 0.414184,-0.167125 1.091938,-0.167125 1.506121,0 0.414184,0.167125 0.07531,0.303869 -0.75306,0.303869 -0.828367,0 -1.167244,-0.136744 -0.753061,-0.303869 z m 5.459689,-0.01253 c 0.434893,-0.174029 0.954504,-0.15263 1.154693,0.04753 0.200188,0.200188 -0.155633,0.342576 -0.790713,0.316418 -0.701818,-0.02892 -0.844573,-0.171662 -0.36398,-0.363975 z m -3.652343,-4.204608 c 0.414183,-0.167125 1.091937,-0.167125 1.506121,0 0.414183,0.167125 0.07531,0.303869 -0.753061,0.303869 -0.828366,0 -1.167244,-0.136744 -0.75306,-0.303869 z M 43.059201,83.4195 c 0.434893,-0.174029 0.954505,-0.15263 1.154693,0.04753 0.200189,0.200187 -0.155632,0.342576 -0.790713,0.316418 -0.701818,-0.02892 -0.844573,-0.171662 -0.36398,-0.363976 z m 44.902035,-2.325462 c -0.196212,-0.51131 -0.222135,-1.064268 -0.0576,-1.22879 0.164523,-0.164529 0.44374,0.253817 0.620474,0.929656 0.375416,1.435592 -0.04169,1.657269 -0.562867,0.299134 z m 5.261706,-0.626667 c 0.02892,-0.701823 0.171661,-0.844573 0.363975,-0.363982 0.174029,0.43489 0.15263,0.954502 -0.04753,1.154695 -0.200194,0.200188 -0.342577,-0.155636 -0.316418,-0.790713 z m -4.217139,-1.039639 c -0.02898,-0.6642 -0.319208,-0.921951 -0.743096,-0.659977 -0.448348,0.277096 -0.531233,0.164029 -0.233226,-0.318159 0.601846,-0.973809 1.791898,0.142726 1.345321,1.262202 -0.211646,0.530552 -0.337684,0.433528 -0.368999,-0.284066 z M 45.141584,79.196409 c 0.586162,-0.152744 1.399467,-0.142702 1.807345,0.02235 0.407877,0.165029 -0.07171,0.290001 -1.065751,0.277723 -0.99404,-0.01229 -1.327757,-0.147299 -0.741594,-0.300043 z m 6.351895,0.006 c 0.434893,-0.174029 0.954504,-0.15263 1.154693,0.04753 0.200188,0.200188 -0.155633,0.342576 -0.790713,0.316418 -0.701818,-0.02892 -0.844573,-0.171662 -0.36398,-0.363975 z m 41.729463,-1.144785 c 0.02892,-0.701822 0.171661,-0.844572 0.363975,-0.363981 0.174029,0.43489 0.15263,0.954507 -0.04753,1.154695 -0.200194,0.200188 -0.342577,-0.155637 -0.316418,-0.790714 z M 47.841136,74.997772 c 0.414183,-0.167125 1.091937,-0.167125 1.506121,0 0.414183,0.167125 0.07531,0.303869 -0.753061,0.303869 -0.828366,0 -1.167244,-0.136744 -0.75306,-0.303869 z m 14.458761,-9.239119 c 0.888461,-0.996335 0.984751,-4.132828 0.190971,-6.220629 -0.839091,-2.206975 -4.289042,-5.897061 -6.354865,-6.797198 -1.000201,-0.435815 -1.38195,-0.803002 -0.848332,-0.815972 0.533618,-0.01297 1.934853,0.63104 3.113854,1.431132 2.38544,1.618803 3.147414,1.446642 2.122851,-0.47964 -0.596569,-1.121611 -0.485737,-1.093757 0.91446,0.229824 0.876315,0.828367 1.597988,1.822407 1.603712,2.208978 0.006,0.386571 0.291277,0.796478 0.634559,0.910906 0.343281,0.114427 0.998498,1.289201 1.456039,2.61061 0.776978,2.24395 0.755657,2.415269 -0.322924,2.595073 -0.818246,0.136405 -1.154816,0.685552 -1.154816,1.884193 0,0.930421 -0.474428,2.050674 -1.054284,2.489449 -0.896907,0.678688 -0.941874,0.671712 -0.301225,-0.04675 z M 8.1812088,59.883715 C 8.1542902,59.635205 8.0671285,58.754124 7.9875168,57.925757 7.907905,57.097391 7.696933,55.064128 7.5186902,53.407394 7.3404468,51.750661 7.310913,50.869581 7.4530589,51.449437 c 0.2350633,0.958895 0.9151493,1.317857 2.1326029,1.125627 0.24851,-0.03924 0.4518362,0.843626 0.4518362,1.961921 0,1.118295 0.169439,2.880457 0.37653,3.915915 0.327212,1.636061 0.208849,1.882651 -0.9036722,1.882651 -0.7041116,0 -1.3022278,-0.203326 -1.329147,-0.451836 z m 4.5507202,-1.40777 c -0.205644,-0.647927 -0.440286,-2.354074 -0.521428,-3.791438 -0.124127,-2.198833 0.01441,-2.571041 0.87336,-2.346421 0.717628,0.187664 1.185699,1.290342 1.575699,3.712022 0.495832,3.078834 0.442738,3.453497 -0.499461,3.524471 -0.579849,0.04368 -1.222526,-0.450706 -1.42817,-1.098634 z m 3.927392,-3.890736 c -0.409195,-2.168648 -0.575443,-4.111544 -0.36944,-4.317547 0.206002,-0.206002 0.37455,0.212837 0.37455,0.930755 0,0.880605 0.372293,1.305305 1.144233,1.305305 0.922048,0 1.185978,0.524855 1.359208,2.702938 0.191628,2.409405 -0.242488,3.321546 -1.580825,3.321546 -0.101055,0 -0.518532,-1.774349 -0.927726,-3.942997 z m 4.789138,2.587488 c -0.01956,-0.414183 -0.113342,-1.769692 -0.20841,-3.012242 -0.14209,-1.857125 0.02506,-2.259182 0.939231,-2.259182 0.710451,0 1.112083,0.435153 1.112083,1.204897 0,0.662693 -0.292642,1.204897 -0.650316,1.204897 -0.409155,0 -0.503109,0.670232 -0.253357,1.807345 0.249753,1.137114 0.155798,1.807345 -0.253356,1.807345 -0.357674,0 -0.666318,-0.338877 -0.685875,-0.75306 z m 4.462561,-0.903673 c -0.02658,-0.579856 -0.185774,-2.138691 -0.353763,-3.464078 -0.167989,-1.325386 -0.185479,-1.935365 -0.03887,-1.355509 0.146613,0.579857 0.518815,1.054285 0.827116,1.054285 0.308301,0 0.560548,0.542203 0.560548,1.204897 0,0.662693 0.271101,1.204896 0.602448,1.204896 0.972378,0 0.690367,1.644697 -0.350497,2.044115 -1.255205,0.481667 -1.191732,0.516717 -1.246985,-0.688606 z m 51.877151,-0.793142 c -0.218405,-0.353391 -0.267896,-0.771736 -0.109977,-0.929655 0.157914,-0.157919 0.447656,0.13122 0.643867,0.64253 0.407364,1.061579 0.06018,1.248308 -0.53389,0.287125 z M 51.00399,52.229511 c 0,-0.464852 1.793045,-0.838767 2.047539,-0.426986 0.15333,0.248092 -0.244641,0.490506 -0.884379,0.538695 -0.639738,0.04819 -1.16316,-0.0021 -1.16316,-0.111709 z M 11.892405,49.140052 c 0.0289,-0.701818 0.171662,-0.844573 0.363979,-0.36398 0.17403,0.434893 0.152627,0.954504 -0.04756,1.154693 -0.200189,0.200188 -0.342577,-0.155633 -0.316419,-0.790713 z m 13.856313,-2.409794 c 0.02891,-0.701818 0.171662,-0.844572 0.36398,-0.363979 0.17403,0.434892 0.152626,0.954504 -0.04756,1.154693 -0.200188,0.200188 -0.342577,-0.155633 -0.316418,-0.790714 z"
         id="path4838" />
      <path
         style="fill:#606060;fill-opacity:1;stroke-width:0.602448"
         d="m 64.047865,90.608584 c -0.154606,-0.24851 2.472635,-0.380236 5.838316,-0.292718 11.074815,0.28797 12.281465,0.519937 3.293344,0.633113 -4.867807,0.06129 -8.977053,-0.09188 -9.13166,-0.340395 z M 14.177792,89.403687 c -0.749368,-0.95552 -0.72806,-0.976828 0.227457,-0.227461 0.579857,0.454759 1.054285,0.929187 1.054285,1.054285 0,0.495839 -0.494722,0.176704 -1.281742,-0.826824 z M 87.640384,71.370532 c 0.434889,-0.174029 0.954501,-0.15263 1.154694,0.04753 0.200188,0.200193 -0.155636,0.342576 -0.790713,0.316417 -0.701822,-0.02892 -0.844573,-0.171661 -0.363981,-0.363975 z M 85.43867,68.16738 c 0,-0.828366 0.136743,-1.167243 0.303869,-0.75306 0.167125,0.414183 0.167125,1.091938 0,1.506121 -0.167126,0.414183 -0.303869,0.07531 -0.303869,-0.753061 z m 6.579375,-0.953874 c 0.02892,-0.701822 0.171661,-0.844573 0.363975,-0.363981 0.174029,0.434889 0.15263,0.954501 -0.04753,1.154694 -0.200194,0.200188 -0.342576,-0.155636 -0.316418,-0.790713 z m -3.812866,-2.457357 c 0.414183,-0.167125 1.091938,-0.167125 1.506121,0 0.414183,0.167125 0.07531,0.303869 -0.753061,0.303869 -0.828366,0 -1.167243,-0.136744 -0.75306,-0.303869 z m 0,-3.012243 c 0.414183,-0.167126 1.091938,-0.167126 1.506121,0 0.414183,0.167127 0.07531,0.303867 -0.753061,0.303867 -0.828366,0 -1.167243,-0.13674 -0.75306,-0.303867 z m 3.812866,-2.362231 c 0.02892,-0.701818 0.171661,-0.844573 0.363975,-0.36398 0.174029,0.434893 0.15263,0.954504 -0.04753,1.154693 -0.200194,0.200188 -0.342576,-0.155633 -0.316418,-0.790713 z M 85.43867,58.528206 c 0,-0.828367 0.136743,-1.167244 0.303869,-0.753061 0.167125,0.414184 0.167125,1.091938 0,1.506121 -0.167126,0.414184 -0.303869,0.07531 -0.303869,-0.75306 z m 2.201714,-3.423783 c 0.434889,-0.17403 0.954501,-0.152627 1.154694,0.04756 0.200188,0.200189 -0.155636,0.342577 -0.790713,0.316418 -0.701822,-0.02891 -0.844573,-0.171662 -0.363981,-0.363979 z m -9.956358,-3.504374 c 0.0048,-1.656733 0.121526,-2.262985 0.259999,-1.347225 0.138478,0.915759 0.134773,2.271268 -0.0082,3.012242 -0.143027,0.740974 -0.256323,-0.0083 -0.251805,-1.665017 z m 9.956358,-0.110317 c 0.434889,-0.174029 0.954501,-0.152626 1.154694,0.04756 0.200188,0.200189 -0.155636,0.342577 -0.790713,0.316418 -0.701822,-0.02891 -0.844573,-0.171663 -0.363981,-0.36398 z M 85.43867,48.286583 c 0,-0.828367 0.136743,-1.167244 0.303869,-0.753061 0.167125,0.414184 0.167125,1.091938 0,1.506121 -0.167126,0.414184 -0.303869,0.07531 -0.303869,-0.75306 z m 6.579375,-0.953876 c 0.02892,-0.701819 0.171661,-0.844573 0.363975,-0.36398 0.174029,0.434893 0.15263,0.954504 -0.04753,1.154693 -0.200194,0.200188 -0.342576,-0.155633 -0.316418,-0.790713 z m -3.812866,-2.457356 c 0.414183,-0.167127 1.091938,-0.167127 1.506121,0 0.414183,0.167127 0.07531,0.303866 -0.753061,0.303866 -0.828366,0 -1.167243,-0.136739 -0.75306,-0.303866 z"
         id="path4836" />
      <path
         style="fill:#494949;fill-opacity:1;stroke-width:0.602448"
         d="m 89.560688,87.144505 c 0.778213,-0.828366 1.550479,-1.506121 1.716152,-1.506121 0.165674,0 -0.335491,0.677755 -1.113704,1.506121 -0.778212,0.828367 -1.550479,1.506121 -1.716152,1.506121 -0.165674,0 0.335491,-0.677754 1.113704,-1.506121 z M 84.788664,85.86276 c -0.02616,-0.373608 0.359089,-1.016782 0.856109,-1.429273 0.49702,-0.41249 0.903673,-0.548041 0.903673,-0.301224 0,0.246817 0.474428,0.08136 1.054285,-0.367686 0.87717,-0.679285 0.863639,-0.592858 -0.08052,0.514473 -0.624136,0.732005 -1.346514,1.200077 -1.605278,1.040151 -0.258763,-0.159926 -0.60778,0.04982 -0.775592,0.466042 -0.190108,0.471536 -0.323045,0.500755 -0.352679,0.07752 z m 8.386714,-8.886114 c 0,-0.125098 0.474428,-0.599526 1.054285,-1.054285 0.955519,-0.749367 0.976828,-0.728059 0.22746,0.227461 -0.78702,1.003528 -1.281745,1.322663 -1.281745,0.826824 z M 77.851675,68.593233 c 0.226238,-0.594147 0.563103,-0.928505 0.748591,-0.743018 0.185488,0.185488 3.85e-4,0.671604 -0.41134,1.080269 -0.59499,0.590556 -0.664187,0.521359 -0.337251,-0.337251 z M 56.169982,52.566471 c 0.339646,-0.655448 0.09189,-0.754618 -1.123299,-0.449625 -0.857482,0.215214 -1.719905,0.131041 -1.916496,-0.18705 -0.196591,-0.318092 -0.823185,-0.435913 -1.39243,-0.261824 -0.569245,0.174087 -0.357237,-0.09925 0.47113,-0.607412 0.828366,-0.508165 2.183875,-0.932529 3.012242,-0.943032 1.408367,-0.01786 5.422035,1.975234 5.422035,2.692451 0,0.178182 -0.687956,-0.126799 -1.528791,-0.677735 -1.44198,-0.944821 -1.581356,-0.937058 -2.45447,0.136724 -0.509123,0.626134 -0.729587,0.760011 -0.489921,0.297503 z m 23.751531,-9.326933 c 0,-0.125102 0.474428,-0.59953 1.054285,-1.054284 0.955519,-0.749369 0.976828,-0.72806 0.227461,0.227457 -0.787021,1.003527 -1.281746,1.322663 -1.281746,0.826827 z m 14.984362,-2.031724 c -0.749367,-0.955517 -0.728059,-0.976825 0.227461,-0.227457 1.003528,0.78702 1.322663,1.281742 0.826824,1.281742 -0.125098,0 -0.599527,-0.474428 -1.054285,-1.054285 z"
         id="path4834" />
      <path
         style="fill:#333333;fill-opacity:1;stroke-width:0.602448"
         d="M 14.65836,98.516803 C 12.775833,97.938429 10.819211,96.693427 9.115937,94.990155 2.5370245,88.411243 3.692346,78.388785 11.66168,72.90574 c 2.557368,-1.759517 3.247573,-1.943041 7.376139,-1.961307 3.984516,-0.01765 4.894185,0.19397 7.265786,1.690126 3.60772,2.275972 5.16062,4.23117 6.379621,8.032337 2.449398,7.637859 -1.875435,15.601504 -9.761672,17.974915 -3.45018,1.03835 -4.529793,1.022018 -8.263194,-0.125008 z m 9.536676,-5.672413 c 7.77321,-4.723665 4.046802,-17.076894 -5.151325,-17.076894 -9.2022068,0 -12.808914,12.317877 -5.019189,17.14188 4.17611,2.586173 5.302068,0.41766 1.481264,-2.852804 -2.868965,-2.455724 -3.519173,-4.771403 -2.149934,-7.65686 1.936426,-4.080714 6.979862,-4.974706 10.154583,-1.799989 3.745402,3.745403 2.047244,9.129641 -4.204892,13.332183 -1.86693,1.254906 2.71005,0.236895 4.889493,-1.087516 z m 40.364043,-2.988867 c 0.22299,-0.360812 4.284703,-0.606424 10.126567,-0.612359 8.999652,-0.0092 9.9397,-0.114953 12.151746,-1.367786 2.877366,-1.629653 5.109504,-5.294745 5.123179,-8.41209 0.01337,-3.049521 -0.953868,-2.874028 -1.372763,0.249064 -0.368361,2.74631 -1.70779,4.877513 -4.268973,6.79248 -1.429177,1.068574 -2.716928,1.270226 -9.216913,1.443291 -5.319125,0.141618 -7.436171,0.0079 -7.15205,-0.451836 0.23528,-0.380693 2.406642,-0.653006 5.206961,-0.653006 5.76507,0 8.511668,-1.006974 10.171275,-3.729047 1.26507,-2.074965 1.666023,-5.910127 0.617889,-5.910127 -0.331346,0 -0.602448,0.752982 -0.602448,1.673294 0,1.705025 -1.307554,4.064768 -2.984596,5.386316 -0.512225,0.403641 -2.670888,0.742518 -4.797031,0.753061 -4.657511,0.02307 -4.529954,-0.65541 0.148473,-0.78975 2.775112,-0.07969 3.548825,-0.363228 4.864145,-1.782536 2.179477,-2.351784 2.139125,-5.319728 -0.09262,-6.812173 -0.911203,-0.609353 -1.927835,-1.121042 -2.259181,-1.137092 -0.331347,-0.01602 -0.529794,-0.46703 -0.440987,-1.002185 0.0888,-0.535155 -0.128918,-1.736768 -0.483826,-2.67025 -0.354914,-0.933481 -0.748048,-6.50872 -0.873634,-12.389419 -0.260017,-12.174993 0.08692,-13.565949 4.334471,-17.377984 1.822955,-1.636041 2.81779,-2.086545 4.426098,-2.004326 1.141032,0.05833 2.630314,0.126924 3.309521,0.152426 2.209822,0.08297 6.007115,3.048604 7.082823,5.531583 0.83818,1.934708 1.02021,4.362564 1.02021,13.607059 0,10.110774 -0.125225,11.510858 -1.234483,13.802276 -0.678965,1.402555 -1.898923,2.985458 -2.711018,3.517564 -1.102758,0.722559 -1.476535,1.502615 -1.476535,3.081494 0,4.444376 -2.75493,8.649785 -6.928156,10.575855 -2.026263,0.935181 -3.973533,1.114294 -12.235137,1.125422 -6.400063,0.0086 -9.69554,-0.196796 -9.453007,-0.589219 z m 23.89017,-6.992926 c 1.315326,-2.239704 1.431056,-5.056042 0.207766,-5.056042 -0.592652,0 -0.903672,0.593104 -0.903672,1.723273 0,0.947802 -0.677755,2.722007 -1.506121,3.94267 -0.828367,1.220669 -1.506121,2.375972 -1.506121,2.567346 0,0.79887 2.763786,-1.569222 3.708148,-3.177247 z m 5.216571,-7.520026 c 0.761934,-0.467217 1.979916,-1.798339 2.706632,-2.958052 1.242827,-1.983356 1.321289,-2.80618 1.321289,-13.856313 0,-12.937383 -0.323545,-14.283831 -4.110704,-17.106806 -2.361429,-1.760223 -7.490614,-1.760223 -9.852044,0 -3.787159,2.822975 -4.110704,4.169423 -4.110704,17.106806 0,11.050133 0.07846,11.872957 1.32129,13.856313 2.781354,4.438593 8.240223,5.707639 12.724241,2.958052 z m -7.34228,-5.084984 c -1.108578,-2.888903 0.02657,-5.108702 2.604577,-5.093225 2.473424,0.01488 3.144745,0.785068 2.933442,3.365566 -0.18706,2.284448 -0.260023,2.353416 -2.676389,2.529994 -1.857204,0.135714 -2.579365,-0.06676 -2.86163,-0.802335 z m 0.345396,-9.440077 c -0.829988,-0.829987 -0.943109,-3.419092 -0.200556,-4.590176 0.315762,-0.497987 1.38086,-0.722944 2.852407,-0.602448 2.256392,0.184762 2.356013,0.284383 2.540772,2.540775 0.120496,1.471541 -0.104459,2.536644 -0.602449,2.852405 -1.171081,0.742555 -3.760187,0.629431 -4.590174,-0.200556 z M 86.32354,50.37679 c -1.108578,-2.888904 0.02657,-5.108705 2.604577,-5.093224 2.473424,0.01485 3.144745,0.785065 2.933442,3.365562 -0.18706,2.284451 -0.260023,2.353421 -2.676389,2.529995 -1.857204,0.135714 -2.579365,-0.06676 -2.86163,-0.802333 z m -74.431135,4.185297 c 0.0289,-0.701818 0.171662,-0.844572 0.363979,-0.363979 0.17403,0.434892 0.152627,0.954504 -0.04756,1.154693 -0.200189,0.200188 -0.342577,-0.155633 -0.316419,-0.790714 z M 51.00399,50.395152 c 0,-0.622275 0.609695,-0.897025 1.957957,-0.882324 l 1.957957,0.02135 -1.506121,0.860976 c -1.940277,1.109163 -2.409793,1.109163 -2.409793,0 z"
         id="path4832" />
    </g>
  </g>
</svg>
