<?xml version="1.0" encoding="UTF-8" standalone="no"?>
<!-- Created with Inkscape (http://www.inkscape.org/) -->

<svg
   width="100mm"
   height="100mm"
   viewBox="0 0 100 100"
   version="1.1"
   id="svg1321"
   inkscape:version="1.1.1 (3bf5ae0d25, 2021-09-20)"
   sodipodi:docname="add_list_type_device_604b.svg"
   xmlns:inkscape="http://www.inkscape.org/namespaces/inkscape"
   xmlns:sodipodi="http://sodipodi.sourceforge.net/DTD/sodipodi-0.dtd"
   xmlns="http://www.w3.org/2000/svg"
   xmlns:svg="http://www.w3.org/2000/svg">
  <sodipodi:namedview
     id="namedview1323"
     pagecolor="#ffffff"
     bordercolor="#666666"
     borderopacity="1.0"
     inkscape:pageshadow="2"
     inkscape:pageopacity="0.0"
     inkscape:pagecheckerboard="0"
     inkscape:document-units="mm"
     showgrid="false"
     width="100mm"
     inkscape:zoom="0.58974467"
     inkscape:cx="378.97757"
     inkscape:cy="239.08652"
     inkscape:window-width="1440"
     inkscape:window-height="890"
     inkscape:window-x="-6"
     inkscape:window-y="-6"
     inkscape:window-maximized="1"
     inkscape:current-layer="layer1" />
  <defs
     id="defs1318" />
  <g
     inkscape:label="Laag 1"
     inkscape:groupmode="layer"
     id="layer1">
    <g
       id="g1471"
       transform="translate(-0.89728089,0.4486401)">
      <path
         style="fill:#fefefe;stroke-width:0.445286"
         d="M 2.3811944,50.472055 V 2.3811922 H 50.472057 98.562919 V 50.472055 98.562917 L 60.824951,98.543369 C 29.417172,98.527116 23.357199,98.427261 24.6979,97.94816 c 3.693365,-1.319822 6.581651,-3.876101 8.501325,-7.524091 0.791983,-1.505022 0.992398,-2.635148 1.004626,-5.665015 0.0084,-2.081711 -0.139126,-4.337168 -0.32784,-5.012123 l -0.343115,-1.227194 3.186029,0.113979 3.186029,0.11398 0.148983,-1.335857 c 0.08194,-0.734722 0.276421,-2.187466 0.432179,-3.228322 l 0.283196,-1.892464 h -2.028639 c -17.848115,4e-6 -27.640915,-20.95892 -17.602787,-37.674155 2.159469,-3.595894 6.590681,-7.490227 10.850558,-9.535922 4.990856,-2.396728 8.517284,-3.22203 13.808112,-3.231559 14.62261,-0.02633 27.181156,9.956595 30.329897,24.109574 0.971622,4.367255 0.659717,11.137397 -0.700266,15.199922 -2.901651,8.667764 -10.250353,16.076673 -18.78576,18.93966 -2.225774,0.74658 -2.068023,0.442062 -2.848373,5.498496 l -0.301133,1.951228 1.718892,-0.31711 c 2.785792,-0.51394 8.153155,-2.82011 11.704648,-5.029088 C 87.662596,69.297045 89.054087,39.28055 69.629324,23.638532 65.917016,20.649155 59.804026,17.506326 55.3702,16.307592 51.258218,15.195873 40.273512,15.216154 36.222912,16.342945 21.218566,20.516835 11.267267,32.527464 10.528109,47.355054 c -0.188765,3.786648 -0.05655,5.412765 0.69549,8.55361 1.082155,4.519571 2.859624,8.573443 5.133028,11.706893 1.610919,2.220341 1.612589,2.227435 0.610559,2.593807 -4.782303,1.748561 -7.7567249,4.170302 -9.7786531,7.961665 -0.8572863,1.607517 -1.0199485,2.587168 -1.0199485,6.142744 0,3.535684 0.1647412,4.538896 1.0033963,6.1103 1.9583161,3.669333 4.8307583,6.207395 8.5153693,7.524092 1.435524,0.512987 0.798849,0.577789 -5.8476191,0.595209 l -7.4585365,0.01954 z M 56.936658,73.335787 C 64.661676,68.187629 69.297848,61.115293 69.938797,53.501432 70.926316,41.77055 61.760999,30.187001 49.909955,28.188063 c -8.559404,-1.44373 -18.015074,2.645851 -22.539811,9.74848 -2.209167,3.467802 -3.289953,7.332222 -3.31908,11.867583 -0.02703,4.20832 0.788949,8.614801 1.656936,8.947875 0.281608,0.108066 1.610489,-0.178916 2.95307,-0.637734 2.423653,-0.828267 2.440494,-0.846577 2.36215,-2.56839 -0.348891,-7.66783 -0.287011,-8.935568 0.550103,-11.269976 1.196128,-3.335568 4.049648,-6.365978 7.674929,-8.150698 2.688664,-1.323625 3.34448,-1.460793 6.984227,-1.460793 3.439684,0 4.387925,0.173828 6.598568,1.209625 1.419896,0.665294 3.293703,1.796573 4.16401,2.513955 3.623833,2.98707 6.390287,8.782075 6.390287,13.386005 0,4.686383 -2.491418,9.765317 -6.60414,13.463005 l -2.301575,2.069315 V 70.9119 c 0,1.983071 0.153864,3.605586 0.341921,3.605586 0.188053,0 1.139852,-0.531765 2.115108,-1.181699 z M 16.407696,92.601592 c -1.95063,-0.85136 -4.575183,-3.960617 -4.927232,-5.837198 -0.790192,-4.212087 0.578914,-7.893777 3.741237,-10.060635 1.31901,-0.903797 2.103105,-1.073059 4.970924,-1.073059 3.868355,0 5.667892,0.87781 7.610012,3.712147 0.9038,1.319013 1.07306,2.103107 1.07306,4.970926 0,2.867818 -0.16926,3.651913 -1.07306,4.970925 -1.403805,2.04872 -3.517784,3.463789 -5.661321,3.789609 l -1.726048,0.262367 1.907199,-1.407918 c 4.59022,-3.388553 5.689129,-8.786766 2.472241,-12.144475 -3.379665,-3.527607 -9.484778,-1.96338 -10.84476,2.778601 -0.849636,2.962509 0.02889,4.74688 3.986134,8.096213 1.007262,0.852526 1.25327,2.570808 0.364078,2.542965 -0.306134,-0.0096 -1.157743,-0.2798 -1.892464,-0.600468 z"
         id="path1487" />
      <path
         style="fill:#d3d3d3;stroke-width:0.445286"
         d="m 53.792054,85.597069 c 0.765798,-4.962131 0.681688,-4.775962 2.403319,-5.3197 2.652937,-0.837877 8.07393,-3.890275 10.466228,-5.893219 1.906415,-1.596141 4.204375,-4.364585 6.401695,-7.712385 0.438994,-0.668838 0.441025,-0.568515 0.01011,0.498506 -0.823836,2.039925 -3.37613,5.944988 -5.768405,8.825782 -2.198269,2.647166 -2.378988,3.552436 -0.658364,3.297849 2.136891,-0.31618 4.701309,-2.021451 8.032781,-5.341573 1.925861,-1.919302 3.566339,-3.424866 3.64551,-3.345694 0.376703,0.376702 -4.961886,6.74859 -7.14237,8.5248 -4.664204,3.799436 -11.52709,7.279594 -15.972739,8.099752 l -1.718892,0.31711 0.301134,-1.951228 z M 37.336127,78.079772 c -1.469443,-0.162565 -2.270958,-0.332326 -1.781143,-0.37725 0.703155,-0.06449 0.758507,-0.165277 0.263023,-0.478941 -0.345152,-0.218497 -0.875924,-0.301962 -1.179495,-0.18547 -0.303571,0.116491 -0.68423,-0.0022 -0.84591,-0.263841 -0.172128,-0.278509 0.08603,-0.475641 0.622888,-0.475641 0.504268,0 0.919919,-0.250473 0.92367,-0.556607 0.0045,-0.37107 0.150701,-0.333965 0.438467,0.111321 0.373247,0.577558 0.432571,0.567423 0.438467,-0.0749 0.01058,-1.152311 -0.489124,-2.172777 -0.930412,-1.900048 -0.219245,0.1355 -0.398627,0.05323 -0.398627,-0.18283 0,-0.236055 0.851609,-0.351375 1.892465,-0.256262 1.557107,0.142282 1.695195,0.09925 0.77925,-0.242828 -1.024466,-0.382607 -0.988456,-0.410259 0.451697,-0.346824 0.860701,0.03789 1.836063,-0.09865 2.16747,-0.303475 0.486717,-0.300809 0.546256,0.0027 0.309696,1.578707 -0.161075,1.073107 -0.334922,2.502145 -0.386327,3.17564 -0.05141,0.673495 -0.09347,1.19085 -0.09347,1.149679 0,-0.04119 -1.202271,-0.207864 -2.671714,-0.370429 z m -0.363748,-3.200491 c -0.142147,-0.355218 -0.24766,-0.249708 -0.269027,0.269028 -0.01933,0.469402 0.08591,0.732402 0.233873,0.584437 0.147965,-0.147968 0.163784,-0.532027 0.03516,-0.853465 z m 17.50725,-3.956876 v -3.595082 l 2.465035,-2.252905 c 1.355775,-1.239102 2.97784,-3.127937 3.604602,-4.19742 2.091863,-3.569495 1.681194,-1.837957 -0.742176,3.129304 -1.400744,2.871153 -1.61344,3.831897 -0.848323,3.831897 0.259361,0 0.330082,0.228922 0.157159,0.508717 -0.867185,1.403136 4.674548,-2.372687 6.611586,-4.50476 2.508668,-2.761257 2.416089,-2.388335 -0.401996,1.619331 -1.915668,2.724316 -4.986831,5.607096 -8.388858,7.8743 -0.975256,0.649934 -1.927055,1.181699 -2.115108,1.181699 -0.188057,0 -0.341921,-1.617786 -0.341921,-3.595081 z M 82.567787,58.672736 c 0.02137,-0.518736 0.12688,-0.624246 0.269024,-0.269029 0.12863,0.321439 0.112813,0.705502 -0.03513,0.853466 -0.147968,0.147964 -0.253207,-0.115035 -0.233873,-0.584437 z m -6.234,-1.781143 c 0.02137,-0.518736 0.126879,-0.624246 0.269023,-0.269029 0.12863,0.321439 0.112814,0.705498 -0.03513,0.853466 -0.147968,0.147964 -0.253207,-0.115035 -0.233873,-0.584437 z m 6.747437,-1.521395 c 0,-0.857175 0.09164,-1.207838 0.203642,-0.77925 0.111999,0.428588 0.111999,1.129913 0,1.5585 -0.112002,0.428588 -0.203642,0.07793 -0.203642,-0.77925 z M 69.722651,53.589055 c 0,-0.857175 0.09164,-1.207838 0.203643,-0.77925 0.111998,0.428588 0.111998,1.129913 0,1.5585 -0.112003,0.428588 -0.203643,0.07793 -0.203643,-0.77925 z m 7.142544,-1.335857 c 0,-1.102083 0.08684,-1.552934 0.192973,-1.001893 0.106139,0.551041 0.106139,1.452745 0,2.003786 -0.106133,0.551041 -0.192973,0.100189 -0.192973,-1.001893 z"
         id="path1485" />
      <path
         style="fill:#d1d1d1;stroke-width:0.445286"
         d="m 10.784825,95.111953 c -0.553878,-0.70625 -0.538128,-0.722 0.16812,-0.168123 0.428588,0.336124 0.77925,0.686787 0.77925,0.779251 0,0.366488 -0.365662,0.130606 -0.94737,-0.611128 z m 17.868229,0.611128 c 0,-0.09246 0.350663,-0.443127 0.779251,-0.779251 0.706248,-0.553877 0.721997,-0.538127 0.168119,0.168123 -0.581707,0.741734 -0.94737,0.977616 -0.94737,0.611128 z M 9.0036824,93.330809 C 8.4498044,92.62456 8.4655541,92.60881 9.1718023,93.162687 c 0.4285875,0.336124 0.7792501,0.686787 0.7792501,0.77925 0,0.366488 -0.3656624,0.130607 -0.94737,-0.611128 z m 21.4305156,0.611128 c 0,-0.09246 0.350662,-0.443126 0.77925,-0.77925 0.706248,-0.553877 0.721998,-0.538127 0.168119,0.168122 -0.581707,0.741735 -0.947369,0.977616 -0.947369,0.611128 z M 19.68531,93.267249 c 0.552606,-0.350128 2.288458,-0.178078 2.288458,0.226816 0,0.09389 -0.65123,0.167641 -1.447179,0.163891 -0.983923,-0.0046 -1.253224,-0.129707 -0.841279,-0.390707 z m -6.205673,-2.608154 -1.079513,-1.224536 1.224536,1.079511 c 0.673495,0.593735 1.224536,1.144776 1.224536,1.224536 0,0.349228 -0.360592,0.065 -1.369559,-1.079511 z m -2.516733,-6.345322 c 0,-1.102083 0.08684,-1.552934 0.192973,-1.001893 0.106135,0.551041 0.106135,1.452745 0,2.003786 -0.106135,0.551041 -0.192973,0.100189 -0.192973,-1.001893 z m 18.256716,0 c 0,-1.102083 0.08684,-1.552934 0.192973,-1.001893 0.106135,0.551041 0.106135,1.452745 0,2.003786 -0.106135,0.551041 -0.192973,0.100189 -0.192973,-1.001893 z m -15.635973,0 c 0,-0.612268 0.101068,-0.862741 0.224596,-0.556607 0.123527,0.306134 0.123527,0.80708 0,1.113214 -0.123528,0.306134 -0.224596,0.05566 -0.224596,-0.556607 z m 12.913287,0 c 0,-0.612268 0.101068,-0.862741 0.224596,-0.556607 0.123528,0.306134 0.123528,0.80708 0,1.113214 -0.123528,0.306134 -0.224596,0.05566 -0.224596,-0.556607 z m 6.612812,-5.863617 c -0.0021,-0.163651 -0.125726,-0.615193 -0.274705,-1.003424 -0.270143,-0.703984 -0.153062,-0.71346 3.165229,-0.256285 0.244907,0.03375 0.04453,0.233557 -0.445286,0.444039 -0.640744,0.275338 -0.172316,0.391473 1.669821,0.413987 1.445303,0.01768 2.560394,0.231736 2.560394,0.491529 0,0.287058 -1.255149,0.412717 -3.335809,0.333964 -1.834695,-0.06945 -3.337535,-0.260163 -3.339644,-0.42381 z M 19.636018,77.784868 c 0.306134,-0.123527 0.80708,-0.123527 1.113214,0 0.306134,0.123527 0.05566,0.224598 -0.556607,0.224598 -0.612268,0 -0.862741,-0.101071 -0.556607,-0.224598 z M 8.6151951,75.685221 c 0,-0.09246 0.3506625,-0.443126 0.7792501,-0.77925 0.7062478,-0.553878 0.7219978,-0.538128 0.1681198,0.168122 -0.5817075,0.741735 -0.9473699,0.977616 -0.9473699,0.611128 z M 19.190732,75.093806 c 0.551041,-0.106138 1.452745,-0.106138 2.003786,0 0.551041,0.106134 0.100189,0.192973 -1.001893,0.192973 -1.102082,0 -1.552934,-0.08684 -1.001893,-0.192973 z m -8.794394,-1.189728 c 0,-0.09246 0.350663,-0.443126 0.77925,-0.77925 0.706248,-0.553878 0.721998,-0.538128 0.16812,0.168122 -0.581707,0.741735 -0.94737,0.977616 -0.94737,0.611128 z m 22.932217,-0.744825 c -1.469443,-0.195106 -3.174254,-0.448202 -3.788469,-0.562436 -1.361343,-0.253185 -4.789846,-2.002446 -5.18827,-2.647108 -0.165278,-0.267425 -0.07662,-0.336574 0.206882,-0.161358 0.272856,0.168634 -0.698077,-0.91761 -2.157628,-2.413872 -1.459552,-1.496267 -2.653731,-2.884303 -2.653731,-3.084526 0,-0.534712 -1.232557,-0.9163 -2.003786,-0.620354 -1.148909,0.440877 -0.740752,1.651578 1.370388,4.064929 l 2.038317,2.3301 h -1.528513 c -1.362121,0 -1.731366,-0.289186 -3.391962,-2.65653 C 8.8323418,56.85947 8.494658,42.952434 15.35922,31.472824 c 1.632848,-2.730611 6.373785,-7.823806 8.840977,-9.497874 1.339158,-0.90866 1.213819,-0.68231 -0.890572,1.608291 -1.346989,1.466179 -3.049655,3.757729 -3.783701,5.092332 -1.669389,3.035192 -1.870483,3.754294 -0.951222,3.401541 0.384357,-0.147491 0.836397,-0.04558 1.004534,0.226472 0.168137,0.272051 0.114893,0.376711 -0.118321,0.232577 -0.233214,-0.144134 -0.715026,-0.07797 -1.070694,0.147024 -0.515457,0.326081 -0.461104,0.410469 0.267875,0.415904 0.502998,0.0037 1.60508,-0.710892 2.449072,-1.588095 0.843991,-0.877202 2.235854,-1.939187 3.093029,-2.359967 0.857175,-0.42078 2.159636,-1.145619 2.894357,-1.610755 0.734722,-0.465135 0.0334,0.373399 -1.5585,1.863408 -8.600479,8.050017 -10.881724,20.608219 -5.672846,31.228885 3.37479,6.881041 11.030458,11.65849 18.682265,11.65849 1.008392,0 1.689107,0.144335 1.512699,0.320739 -0.176407,0.176409 -1.061413,0.286582 -1.966679,0.244832 -1.436935,-0.06627 -1.504581,-0.02783 -0.532723,0.302803 1.08885,0.370424 1.083977,0.378449 -0.222643,0.366635 -0.734722,-0.0066 -2.538129,-0.171711 -4.007572,-0.366813 z M 17.966196,63.18898 c 0,-0.108 -0.200378,-0.320205 -0.445286,-0.471567 -0.244907,-0.151361 -0.445285,-0.063 -0.445285,0.196362 0,0.259361 0.200378,0.471567 0.445285,0.471567 0.244908,0 0.445286,-0.08836 0.445286,-0.196362 z m -3.408628,-7.615344 c -0.145023,-0.377923 -0.359178,-0.591634 -0.4759,-0.474911 -0.116722,0.116723 -0.08014,0.425934 0.08129,0.687134 0.439074,0.710436 0.695706,0.572419 0.39461,-0.212223 z m 0.112089,-2.541188 c -0.15434,-0.795948 -0.310668,-1.68884 -0.347397,-1.984198 -0.104869,-0.84334 -0.680935,-0.256182 -1.00141,1.020689 -0.166284,0.662531 -0.06857,1.4282 0.227838,1.785351 0.900116,1.084573 1.417135,0.705519 1.120969,-0.821842 z m 10.396666,4.722527 c -0.952087,-2.50418 -1.380606,-7.724314 -0.892392,-10.870933 0.888644,-5.727448 3.047684,-9.781838 7.194367,-13.510062 2.438739,-2.192636 3.655888,-2.555328 1.379588,-0.411097 -1.522967,1.434607 -3.706307,6.009984 -3.23321,6.775472 0.447306,0.723756 1.881812,0.405327 3.339512,-0.7413 0.685834,-0.539477 1.409952,-0.88014 1.609151,-0.757028 0.199198,0.123111 0.48804,0.02019 0.64187,-0.22871 0.15383,-0.248902 0.486813,-0.452549 0.739961,-0.452549 0.253149,0 -0.409907,0.968829 -1.473458,2.152954 -3.362273,3.743451 -3.802914,5.827665 -3.348492,15.838211 0.07737,1.70438 0.03554,1.75358 -2.147523,2.525884 -3.007311,1.063899 -3.292013,1.03992 -3.809374,-0.320842 z m 2.881399,-6.106613 c -0.225949,-0.588811 -0.425224,-0.640896 -0.91066,-0.238019 -0.480223,0.398549 -0.503048,0.658355 -0.100456,1.143449 0.654387,0.78849 1.403662,0.117534 1.011116,-0.90543 z"
         id="path1483" />
      <path
         style="fill:#cfcfcf;stroke-width:0.445286"
         d="m 69.6545,50.212306 c 0.02137,-0.518735 0.12688,-0.624246 0.269024,-0.269028 0.12863,0.321438 0.112813,0.705497 -0.03513,0.853466 -0.147969,0.147964 -0.253207,-0.115035 -0.233873,-0.584438 z m -0.890571,-4.898145 c 0.02137,-0.518732 0.126879,-0.624246 0.269023,-0.269027 0.12863,0.321441 0.112814,0.7055 -0.03513,0.853465 -0.147968,0.147964 -0.253207,-0.115032 -0.233873,-0.584438 z m -8.226824,-2.899088 c -1.255305,-2.125061 -4.203712,-4.804502 -6.65191,-6.045099 -2.230067,-1.130061 -7.227222,-2.387781 -8.639735,-2.174512 -0.431619,0.06517 -0.531835,0.03189 -0.222702,-0.07395 0.309132,-0.105839 0.428456,-0.408608 0.265164,-0.67282 -0.176514,-0.285606 -0.08845,-0.35156 0.217191,-0.162663 0.282747,0.174748 0.514086,0.119455 0.514086,-0.122873 0,-0.242327 0.450852,-0.504626 1.001893,-0.582886 1.453048,-0.206366 1.463557,-2.077244 0.01478,-2.628074 -0.600266,-0.228221 -1.305916,-0.282363 -1.568112,-0.120317 -0.277593,0.171562 -0.347376,0.08535 -0.167064,-0.206404 0.19092,-0.308916 -0.166864,-0.606342 -0.933093,-0.775678 -0.683529,-0.151056 -1.443144,-0.330998 -1.688051,-0.399872 -0.244907,-0.06887 0.527502,-0.277624 1.716465,-0.46389 5.731683,-0.897939 13.656492,2.116755 18.365901,6.98661 2.764214,2.858392 5.051704,6.148406 4.274877,6.148406 -0.235815,0 -0.931022,-0.658509 -1.544906,-1.463352 -0.613884,-0.804844 -1.990222,-2.047146 -3.05853,-2.760673 -1.068307,-0.713526 -2.362076,-1.663711 -2.875045,-2.111522 -1.088354,-0.950111 -2.406975,-0.633022 -2.406975,0.578805 0,0.454996 0.408078,1.045662 0.906843,1.312592 0.498764,0.26693 1.509354,1.800825 2.245754,3.408655 1.444173,3.153151 1.591972,4.629791 0.233165,2.329514 z m 13.179581,-3.307575 c -0.53282,-1.096709 -0.875253,-1.994016 -0.760962,-1.994016 0.30165,0 2.100894,3.616869 1.899456,3.81831 -0.09335,0.09335 -0.605669,-0.727585 -1.138494,-1.824294 z m 5.609523,-3.001501 c -1.055768,-2.192061 -7.671214,-9.012768 -9.814472,-10.119 -1.042899,-0.538286 -2.296935,-1.337872 -2.78675,-1.776859 -1.232618,-1.104708 -2.744229,-1.503668 -3.158363,-0.833586 -0.188623,0.305193 -0.105265,0.626339 0.187942,0.724074 0.289792,0.0966 0.418907,0.350363 0.28692,0.563922 -0.131987,0.21356 0.317618,0.678353 0.999119,1.032875 1.264602,0.657851 3.256286,2.553432 3.105476,2.955629 -0.04591,0.122454 0.558362,1.024158 1.342831,2.003786 1.665734,2.080124 3.829658,6.011358 3.308918,6.011358 -0.197306,0 -1.142844,-1.13848 -2.101188,-2.529956 C 65.850161,27.101368 56.10738,22.133996 46.456257,21.779245 c -2.225145,-0.08179 -4.16887,-0.271863 -4.319389,-0.422381 -0.252829,-0.252829 0.543155,-0.449367 1.321938,-0.326401 0.18368,0.029 0.333964,-0.147647 0.333964,-0.392554 0,-0.244908 0.150284,-0.412869 0.333965,-0.373247 0.18368,0.03962 1.30241,-0.188738 2.486067,-0.507464 1.477297,-0.397796 1.965976,-0.69749 1.558499,-0.955792 -0.487984,-0.309338 -0.48891,-0.377502 -0.0052,-0.383108 0.453163,-0.0053 0.434884,-0.160345 -0.07952,-0.674747 -0.367361,-0.367361 -1.143115,-0.667929 -1.723893,-0.667929 -0.58078,0 -1.325814,-0.250473 -1.655632,-0.556607 -0.479735,-0.445286 -0.536819,-0.445286 -0.28542,0 0.172813,0.306134 0.10202,0.556607 -0.15734,0.556607 -0.259361,0 -0.471566,-0.224913 -0.471566,-0.499808 0,-0.341983 -0.214132,-0.322095 -0.678122,0.06298 -0.556283,0.461674 -0.634528,0.449187 -0.435489,-0.0695 0.190316,-0.495955 -0.167537,-0.605813 -1.659628,-0.509489 -1.404012,0.09064 -1.668999,0.01967 -1.01169,-0.270951 1.500192,-0.663287 12.603422,-0.260421 15.585002,0.565482 7.415353,2.054066 15.521028,7.461391 19.930822,13.295919 2.639289,3.491999 5.011112,7.38308 4.693802,7.70039 -0.108316,0.108315 -0.509381,-0.451778 -0.891258,-1.244651 z"
         id="path1481" />
      <path
         style="fill:#bcbcbc;stroke-width:0.445286"
         d="m 29.436163,39.685451 c -0.103525,-0.310575 0.302188,-1.667552 0.901583,-3.015504 1.085571,-2.44129 2.82024,-4.460517 5.058807,-5.888666 1.560601,-0.995623 6.409447,-2.613359 7.145721,-2.38405 0.320412,0.09979 1.141804,0.304238 1.825315,0.454327 0.766461,0.168303 1.124071,0.464911 0.933093,0.77392 -0.180312,0.291751 -0.110529,0.377966 0.167064,0.206404 0.262196,-0.162046 0.967846,-0.107904 1.568112,0.120317 1.448791,0.55083 1.438282,2.421708 -0.01478,2.628074 -0.551041,0.07826 -1.001893,0.340559 -1.001893,0.582886 0,0.242328 -0.250473,0.313721 -0.556607,0.158652 -0.306134,-0.155069 -0.15585,0.06044 0.333965,0.478912 0.794998,0.679203 0.802742,0.73042 0.07216,0.477253 -1.104703,-0.382808 -5.26674,0.860645 -8.528538,2.54799 -1.467215,0.758999 -2.937535,1.419607 -3.267377,1.468017 -0.329843,0.04841 -0.994441,0.445243 -1.476885,0.881849 -1.080681,0.978002 -2.905517,1.272321 -3.15975,0.509619 z M 18.390221,32.683187 c 0.355668,-0.224997 0.83748,-0.291158 1.070694,-0.147024 0.233214,0.144134 0.286458,0.03947 0.118321,-0.232577 -0.168137,-0.272051 -0.620177,-0.373963 -1.004534,-0.226472 -0.919261,0.352753 -0.718167,-0.366349 0.951222,-3.401541 2.008688,-3.652087 5.627384,-7.281576 9.046226,-9.073208 4.482254,-2.348908 8.369021,-3.542081 11.435691,-3.510569 1.955363,0.0201 2.432931,-0.0821 1.781144,-0.381151 l -0.890572,-0.408606 0.890572,0.124603 c 0.535281,0.07489 0.864859,0.434907 0.826122,0.902413 -0.0511,0.616708 0.06419,0.671054 0.556607,0.262381 0.449926,-0.373405 0.621056,-0.37771 0.621056,-0.01562 0,0.274895 0.212205,0.499808 0.471566,0.499808 0.25936,0 0.330153,-0.250473 0.157317,-0.556607 -0.251398,-0.445286 -0.194314,-0.445286 0.285421,0 0.329817,0.306134 1.074852,0.556607 1.655632,0.556607 0.580777,0 1.356532,0.300568 1.723893,0.667929 0.514398,0.514402 0.532677,0.669496 0.07951,0.674747 -0.483722,0.0056 -0.482796,0.07377 0.0052,0.383108 0.407476,0.258302 -0.0812,0.557996 -1.5585,0.955792 -1.183634,0.318726 -2.302364,0.547085 -2.486044,0.507464 -0.183681,-0.03962 -0.333965,0.128339 -0.333965,0.373247 0,0.244907 -0.150284,0.421556 -0.333964,0.392554 -0.18368,-0.029 -0.634532,-0.02593 -1.001893,0.0068 -0.532824,0.04751 -0.549019,0.134946 -0.08007,0.432291 0.382157,0.242312 -0.163192,0.461808 -1.5585,0.627276 -3.324928,0.394299 -7.866286,2.048099 -11.630845,4.235538 -1.885842,1.09579 -4.130129,2.3504 -4.987304,2.788022 -0.857175,0.437622 -2.249038,1.513387 -3.093029,2.390589 -0.843992,0.877203 -1.946074,1.591845 -2.449072,1.588095 -0.728979,-0.0054 -0.783332,-0.08982 -0.267875,-0.415904 z"
         id="path1479" />
      <path
         style="fill:#b6b6b6;stroke-width:0.445286"
         d="m 79.192989,58.590211 c -0.506264,-0.370251 -0.724894,-1.04281 -1.010545,-3.108691 -0.271259,-1.961774 -0.907773,-1.830272 -1.077681,0.222642 -0.07602,0.918402 -0.157132,-0.534342 -0.180265,-3.228321 -0.04531,-5.276574 -1.103409,-10.197686 -2.951073,-13.725135 -0.535808,-1.022927 -0.983249,-1.975722 -0.994315,-2.117324 -0.053,-0.678162 -1.949162,-3.949316 -3.262314,-5.627964 -0.80794,-1.032817 -1.410857,-1.968472 -1.339821,-2.079234 0.227181,-0.354229 -2.053613,-2.561466 -3.33637,-3.228761 -0.681501,-0.354522 -1.131106,-0.819315 -0.999119,-1.032875 0.131987,-0.213559 0.0027,-0.467324 -0.28692,-0.563922 -0.293207,-0.09773 -0.376565,-0.418881 -0.187942,-0.724074 0.414134,-0.670082 1.925745,-0.271122 3.158363,0.833586 0.489815,0.438987 1.743851,1.238573 2.78675,1.776859 2.239632,1.155973 8.715503,7.91571 10.011182,10.450017 2.710156,5.300972 4.3321,13.792253 3.531423,18.487898 -0.229678,1.34699 -0.444092,1.948126 -0.476474,1.335858 -0.03237,-0.612268 -0.253113,-1.413783 -0.490522,-1.781143 -0.318824,-0.493341 -0.435213,-0.202369 -0.445286,1.113214 -0.01006,1.315583 -0.126461,1.606555 -0.445285,1.113214 -0.37978,-0.58767 -0.432466,-0.584517 -0.438469,0.02623 -0.0099,1.008861 -1.045531,2.238082 -1.565317,1.857941 z M 65.478178,54.908245 c -0.416337,-0.486247 -0.756977,-1.170536 -0.756977,-1.520642 0,-1.211881 -0.830738,-1.144366 -1.016191,0.08258 -0.102424,0.677645 -0.216253,-0.185729 -0.252949,-1.918612 -0.09655,-4.559606 -3.461366,-13.840423 -5.392664,-14.874022 -0.499428,-0.267286 -0.908054,-0.858244 -0.908054,-1.31324 0,-1.353901 1.301673,-1.475763 2.749595,-0.257416 0.729468,0.613808 1.500003,1.116014 1.712302,1.116014 0.212299,0 1.623753,1.214905 3.136562,2.699789 2.262087,2.22033 2.930141,3.230561 3.761725,5.688515 0.972718,2.875111 1.325162,5.671795 1.131405,8.977841 l -0.09134,1.5585 -0.600174,-1.5585 -0.600174,-1.5585 -0.03389,1.521394 c -0.01861,0.836764 -0.1679,1.387368 -0.331707,1.223561 -0.163807,-0.163803 -0.624678,-0.0022 -1.024166,0.359497 -0.644925,0.583654 -0.811177,0.558237 -1.483314,-0.226762 z"
         id="path1477" />
      <path
         style="fill:#b4b4b4;stroke-width:0.445286"
         d="m 65.415215,79.012548 c -0.144371,-0.233593 0.70914,-1.592249 1.896686,-3.019229 2.632453,-3.163217 4.257408,-5.687012 6.110808,-9.490977 1.671772,-3.431198 3.766494,-9.734806 3.766494,-11.334442 0,-0.623458 0.178457,-1.133559 0.396567,-1.133559 0.335621,0 0.630222,1.127641 1.012914,3.87709 0.168144,1.208042 1.324854,0.974369 1.895559,-0.382933 0.385586,-0.917044 0.670253,-1.182024 0.831847,-0.774321 0.135113,0.340893 0.261481,-0.165009 0.280815,-1.12423 0.01933,-0.959217 0.152867,-1.626322 0.296734,-1.482455 0.497447,0.497442 0.980181,3.454732 0.60208,3.688409 -0.20871,0.128995 -0.270712,0.517979 -0.137772,0.864411 0.317534,0.827475 -0.931947,5.067553 -2.535461,8.604034 -2.145659,4.732146 -9.53274,11.449028 -13.185856,11.989556 -0.532909,0.07885 -1.087045,-0.04776 -1.231415,-0.281354 z M 59.115926,68.346916 c 0.172923,-0.279795 0.102202,-0.508717 -0.157159,-0.508717 -0.780987,0 -0.546414,-0.961282 1.032618,-4.231764 1.82418,-3.778209 3.839245,-9.297371 3.839245,-10.515481 0,-0.489676 0.200378,-0.766475 0.445286,-0.615113 0.244907,0.151361 0.445285,0.572321 0.445285,0.935469 0,0.363149 0.371199,1.058703 0.824883,1.545676 0.729614,0.783151 0.889721,0.807281 1.386313,0.208928 0.308783,-0.372067 0.739103,-0.566675 0.95626,-0.432461 0.217157,0.134209 0.40895,-0.419036 0.426205,-1.229439 l 0.03139,-1.473459 0.603598,1.641964 c 0.502095,1.365834 0.505417,2.002344 0.01977,3.784929 -0.941642,3.456277 -1.365126,4.260419 -3.485853,6.619173 -1.767317,1.965688 -7.191637,5.603263 -6.367818,4.270295 z"
         id="path1475" />
      <path
         style="fill:#a5a5a5;stroke-width:0.445286"
         d="M 16.407696,97.96696 C 12.126261,96.548213 9.1749273,93.990625 7.3324867,90.102488 4.9154514,85.001775 6.1173864,78.451608 10.223924,74.345071 c 2.112428,-2.112426 5.858078,-3.913198 8.709441,-4.187178 l 2.122105,-0.203909 -1.989923,-2.274778 c -2.066122,-2.361889 -2.464797,-3.571072 -1.321994,-4.009607 0.771229,-0.295946 2.003786,0.08564 2.003786,0.620354 0,0.200223 1.194179,1.588259 2.653731,3.084526 1.459551,1.496262 2.430484,2.582506 2.157628,2.413872 -0.282447,-0.174561 -0.372217,-0.106161 -0.208445,0.158829 0.265669,0.429861 4.602354,2.871933 4.857649,2.735435 0.06219,-0.03326 1.215163,0.102785 2.562153,0.302309 1.346989,0.199528 2.599355,0.32541 2.783036,0.279742 0.18368,-0.04567 0.333964,0.129168 0.333964,0.388529 0,0.259361 0.179382,0.360699 0.398627,0.225199 0.441288,-0.272729 0.940989,0.747737 0.930412,1.900048 -0.0059,0.642324 -0.06522,0.652459 -0.438467,0.0749 -0.237407,-0.367361 -0.434717,-0.440815 -0.438467,-0.163233 -0.0092,0.681461 -1.966886,1.015626 -2.897826,0.494646 -0.687361,-0.384664 -0.693767,-0.33274 -0.0773,0.626473 0.3697,0.575246 1.012845,2.233148 1.429211,3.684227 2.461598,8.578938 -3.849107,17.354189 -12.870726,17.897184 -1.541988,0.09281 -3.510136,-0.09276 -4.514825,-0.42568 z m 8.106072,-5.516138 c 3.657352,-1.897999 5.684163,-6.361757 4.655085,-10.252157 -1.886503,-7.131866 -10.29573,-9.502113 -15.44459,-4.353256 -3.004232,3.004236 -3.617373,7.034478 -1.647632,10.830076 1.048221,2.019874 3.455952,3.990486 5.334761,4.366249 1.332558,0.266513 1.445376,0.199092 1.445376,-0.863747 0,-0.82727 -0.45748,-1.463686 -1.61999,-2.253631 -2.288244,-1.554903 -3.272286,-3.242117 -3.272286,-5.610583 0,-6.331759 8.097142,-8.615656 11.617032,-3.276725 0.99414,1.507898 1.103265,4.468599 0.240785,6.532806 -0.741861,1.775523 -2.957003,4.041649 -5.121571,5.23945 l -1.621327,0.897189 1.895799,-0.201577 c 1.042689,-0.110867 2.635041,-0.585212 3.538558,-1.054094 z M 36.703352,75.148309 c 0.02136,-0.518736 0.12688,-0.624246 0.269027,-0.269028 0.12863,0.321438 0.112811,0.705497 -0.03515,0.853465 -0.147965,0.147965 -0.253208,-0.115035 -0.233873,-0.584437 z M 17.075625,62.913775 c 0,-0.259361 0.200378,-0.347723 0.445285,-0.196362 0.244908,0.151362 0.445286,0.363567 0.445286,0.471567 0,0.107999 -0.200378,0.196362 -0.445286,0.196362 -0.244907,0 -0.445285,-0.212206 -0.445285,-0.471567 z m -2.912668,-7.127916 c -0.16143,-0.2612 -0.198011,-0.570411 -0.08129,-0.687134 0.116722,-0.116723 0.330877,0.09699 0.4759,0.474911 0.301095,0.784642 0.04446,0.922659 -0.39461,0.212223 z M 13.548688,53.85429 c -0.296412,-0.357151 -0.394122,-1.12282 -0.227838,-1.785351 0.320475,-1.276871 0.896541,-1.864029 1.00141,-1.020689 0.03673,0.295358 0.193057,1.18825 0.347397,1.984198 0.296166,1.527361 -0.220853,1.906415 -1.120969,0.821842 z m 13.387918,-1.300498 c -0.402592,-0.485094 -0.379767,-0.7449 0.100456,-1.143449 0.485436,-0.402877 0.684711,-0.350792 0.91066,0.238019 0.392546,1.022964 -0.356729,1.69392 -1.011116,0.90543 z"
         id="path1473" />
    </g>
  </g>
</svg>
