<?xml version="1.0" encoding="UTF-8" standalone="no"?>
<!-- Created with Inkscape (http://www.inkscape.org/) -->

<svg
   width="100mm"
   height="100mm"
   viewBox="0 0 100 100"
   version="1.1"
   id="svg11048"
   inkscape:version="1.1.1 (3bf5ae0d25, 2021-09-20)"
   sodipodi:docname="add_list_type_device_705b.svg"
   xmlns:inkscape="http://www.inkscape.org/namespaces/inkscape"
   xmlns:sodipodi="http://sodipodi.sourceforge.net/DTD/sodipodi-0.dtd"
   xmlns="http://www.w3.org/2000/svg"
   xmlns:svg="http://www.w3.org/2000/svg">
  <sodipodi:namedview
     id="namedview11050"
     pagecolor="#ffffff"
     bordercolor="#666666"
     borderopacity="1.0"
     inkscape:pageshadow="2"
     inkscape:pageopacity="0.0"
     inkscape:pagecheckerboard="true"
     inkscape:document-units="mm"
     showgrid="false"
     width="100mm"
     inkscape:zoom="0.58974467"
     inkscape:cx="378.97757"
     inkscape:cy="133.95628"
     inkscape:window-width="1440"
     inkscape:window-height="890"
     inkscape:window-x="-6"
     inkscape:window-y="-6"
     inkscape:window-maximized="1"
     inkscape:current-layer="layer1" />
  <defs
     id="defs11045" />
  <g
     inkscape:label="Laag 1"
     inkscape:groupmode="layer"
     id="layer1">
    <g
       id="g11082">
      <path
         style="fill:#d0d0d0;fill-opacity:1;stroke-width:0.466146"
         d="m 13.438062,98.108024 c -0.0039,-0.463797 -0.216904,-0.713624 -0.473285,-0.555171 -0.25638,0.158452 -0.466146,0.05357 -0.466146,-0.233074 0,-0.286642 -0.196874,-0.399492 -0.437497,-0.250777 -0.240623,0.14871 -0.607714,-0.01804 -0.815757,-0.370586 C 11.037335,96.345878 10.395145,95.80967 9.8182887,95.506843 9.2414325,95.204015 8.7694592,94.648979 8.7694592,94.273428 c 0,-0.37555 -0.3198408,-0.68282 -0.7107573,-0.68282 -0.3909165,0 -0.9101393,-0.524415 -1.1538286,-1.165366 C 6.6611841,91.78429 6.252231,91.259875 5.9960887,91.259875 c -0.2561423,0 -0.803075,-0.652385 -1.2154059,-1.449743 -0.4123309,-0.797362 -0.5226007,-1.309396 -0.245044,-1.137859 0.2863292,0.176963 0.5286837,-0.05292 0.560206,-0.531374 0.2138081,-3.245251 0.1652039,-6.16007 -0.1209391,-7.252782 -0.2806215,-1.071629 -0.188095,-1.281903 0.564068,-1.281903 0.4948642,0 0.8997532,-0.209766 0.8997532,-0.466146 0,-0.256381 -0.2221456,-0.466147 -0.493657,-0.466147 -0.2715114,0 -0.3618999,-0.213187 -0.2008633,-0.473749 0.1610365,-0.260562 0.469957,-0.364256 0.68649,-0.230435 0.2165329,0.133826 0.6527216,-0.334726 0.9693077,-1.041222 0.7090027,-1.582222 5.9032147,-5.999664 6.8220917,-5.801883 0.537276,0.115647 0.568082,-0.04554 0.155887,-0.815756 C 13.80931,69.2483 12.484939,69.076045 10.998864,69.871365 10.200347,70.298719 10.073727,70.26876 10.290537,69.703762 10.462408,69.255875 9.7755962,68.421757 8.3224713,67.313592 7.0948341,66.377383 5.119947,64.573895 3.933833,63.305846 L 1.7772623,61.000295 v -9.832194 c 0,-11.322692 -0.027972,-11.220048 4.0652212,-14.917443 2.8074669,-2.535995 5.7031035,-4.163648 7.4383615,-4.181145 0.891506,-0.009 1.049004,-0.337019 1.291839,-2.69058 1.094405,-10.606989 2.068538,-13.225656 6.578379,-17.684022 4.213741,-4.1656465 6.560199,-5.4500104 9.999947,-5.4735994 3.177097,-0.021788 5.579055,1.2777536 9.700114,5.2480944 3.402132,3.277705 5.335144,7.067769 6.138041,12.034874 l 0.538552,3.331741 2.062239,0.309251 c 1.134232,0.170089 2.242677,0.197736 2.463211,0.06144 0.220539,-0.136298 0.529906,-1.336452 0.687491,-2.667008 0.157586,-1.330556 0.740819,-3.801432 1.296074,-5.490836 0.890629,-2.709785 1.482504,-3.540169 5.024173,-7.048746 4.773624,-4.7290171 6.688591,-5.7778625 10.540667,-5.7732172 3.563014,0.0043 5.505059,1.0029098 9.945426,5.1140052 4.929839,4.564279 6.67601,8.550837 7.342319,16.762771 l 0.320956,3.955597 h 1.349308 c 2.077451,0 4.098732,1.068018 7.029656,3.714372 l 2.680342,2.420103 v 12.51281 12.512811 l -1.382511,1.382516 c -2.637792,2.637788 -5.043705,4.276829 -6.837012,4.65774 l -1.802626,0.382888 0.128447,2.534583 c 0.23153,4.568715 1.571608,12.236997 2.664792,15.248686 l 1.072188,2.953844 -2.146567,2.116198 c -1.18061,1.163907 -3.078581,2.757438 -4.217708,3.541179 -1.976027,1.359544 -2.099999,1.385518 -2.699561,0.565566 -0.345634,-0.472682 -0.628421,-1.051538 -0.628421,-1.286345 0,-0.234807 -0.321031,-0.303732 -0.7134,-0.153166 -0.465578,0.17866 -0.896395,-0.127878 -1.240187,-0.88242 -0.289738,-0.635899 -0.803506,-1.156179 -1.141714,-1.156179 -1.895375,0 -4.177577,-8.688098 -5.52935,-21.049649 -0.257341,-2.353285 -0.420134,-2.669938 -1.513713,-2.94441 -0.673945,-0.169151 -1.799237,-0.716183 -2.500647,-1.215626 l -1.275284,-0.908086 -0.775444,2.687129 c -1.19904,4.154997 -2.959112,6.973621 -6.221102,9.962646 -4.254673,3.898634 -7.186342,5.240218 -10.902933,4.98938 -3.773975,-0.254712 -5.510762,-1.134895 -9.595292,-4.862766 -3.777517,-3.44767 -5.241418,-5.676927 -6.391347,-9.732867 -0.436129,-1.538284 -0.84757,-2.859688 -0.914312,-2.936457 -0.06674,-0.07676 -0.909396,0.395208 -1.872563,1.048829 -0.963168,0.653626 -1.98415,1.188646 -2.268848,1.188935 -0.284699,2.89e-4 0.651467,1.10156 2.080368,2.447269 2.491052,2.346021 4.026474,4.078254 3.614893,4.078254 -0.10683,0 -1.094051,-0.839063 -2.193824,-1.864586 -1.099773,-1.025522 -2.290063,-1.864585 -2.645089,-1.864585 -0.355264,0 -0.535238,-0.287347 -0.400269,-0.639069 0.134878,-0.351483 -0.08147,-0.764433 -0.480776,-0.91766 -0.399306,-0.153227 -0.72601,-0.09 -0.72601,0.140496 0,0.230505 -0.468642,0.486131 -1.041427,0.568056 -0.951644,0.136115 -0.863432,0.309708 1.023208,2.013543 1.135549,1.025522 2.573404,2.389 3.195231,3.029952 0.621828,0.640951 1.315097,1.112924 1.540598,1.048829 0.225501,-0.06409 0.410001,0.07785 0.410001,0.315432 0,0.237581 -0.280564,0.499789 -0.623476,0.582683 -0.51295,0.123995 -0.502699,0.43994 0.05783,1.782227 0.730654,1.749686 1.055382,8.391103 0.410265,8.390814 -0.213651,-9.8e-5 -0.300122,0.26203 -0.192159,0.582506 0.107963,0.320475 -0.136764,0.83822 -0.543838,1.150542 -0.667543,0.512165 -0.660126,0.56931 0.07562,0.582684 0.451192,0.0082 0.815756,0.368968 0.815756,0.807272 0,0.591428 -0.134294,0.658152 -0.529409,0.263042 -0.577701,-0.577705 -1.801323,0.276495 -1.801323,1.257481 0,0.65096 -3.241684,3.923657 -3.565613,3.599728 -0.132239,-0.132242 -1.324408,0.264267 -2.649265,0.881124 -2.637342,1.227955 -7.543805,1.547862 -9.91469,0.646456 -0.959902,-0.364955 -1.367448,-0.336255 -1.654721,0.116537 -0.278791,0.439417 -0.383064,0.374287 -0.388285,-0.242522 z m 11.588699,-6.055331 c 3.89878,-2.580093 5.033925,-8.947155 2.24664,-12.601473 -2.295288,-3.009278 -3.884767,-3.807251 -7.583654,-3.807251 -2.719795,0 -3.584262,0.196714 -4.936574,1.123329 -2.639285,1.808467 -3.822539,3.933759 -4.033349,7.244462 -0.269487,4.232218 1.255322,6.976734 4.902147,8.823415 2.078955,1.052741 2.470417,0.955829 2.470417,-0.611593 0,-0.943154 -0.280175,-1.455953 -0.903584,-1.653813 -0.496971,-0.157735 -1.5458,-1.018232 -2.330732,-1.912221 -1.161422,-1.322784 -1.426824,-2.034678 -1.425406,-3.823408 0.0042,-5.266532 5.268249,-8.383537 9.648166,-5.712942 4.522707,2.757652 3.449464,10.443578 -1.857743,13.304044 -0.951358,0.512761 -1.730309,1.061452 -1.731002,1.219313 -0.0028,0.634994 3.839663,-0.47016 5.534674,-1.591862 z M 85.813167,91.098696 87.108075,90.038749 86.19956,87.96897 C 84.917476,85.048115 83.893333,79.649235 83.30893,72.73068 82.586711,64.180519 82.777109,64.689527 80.301078,64.689527 h -2.101761 l 0.280094,3.146489 c 0.991251,11.135353 2.322048,18.706718 3.924916,22.330271 1.013383,2.290928 1.564886,2.441777 3.40884,0.932409 z M 6.102811,89.842949 C 5.9660617,89.320016 5.7500198,88.99632 5.6227179,89.123624 c -0.252182,0.252181 0.1932601,1.670105 0.5246654,1.670105 0.1122345,0 0.092177,-0.427853 -0.044572,-0.95078 z M 56.174969,78.746071 c 2.251105,-1.148426 4.154213,-3.298196 5.313063,-6.001687 1.086517,-2.534741 2.286709,-8.342348 2.286709,-11.065156 v -2.117312 h -2.097659 c -2.076258,0 -2.097659,0.01622 -2.097659,1.590506 0,0.87478 -0.301769,3.167717 -0.670598,5.095414 -1.08097,5.649719 -2.837168,8.35032 -5.980636,9.196767 -5.025171,1.353139 -9.062749,-2.874996 -9.898885,-10.366072 -0.64809,-5.806339 -0.500193,-5.516615 -2.816081,-5.516615 -2.371579,0 -2.294901,-0.239002 -1.577684,4.917598 1.132933,8.14549 4.025092,13.206484 8.486279,14.850163 2.543029,0.93695 6.583125,0.676509 9.053151,-0.583606 z m -3.17835,-8.812396 c 0.287375,-0.705047 0.700838,-2.254531 0.918803,-3.443298 l 0.396299,-2.1614 -1.728266,-0.5178 c -1.256894,-0.376572 -2.127753,-0.378534 -3.192977,-0.0072 -0.805594,0.28083 -1.464716,0.584641 -1.464716,0.675129 0,0.716491 1.131789,5.27331 1.470543,5.920713 0.254077,0.48558 0.963333,0.815756 1.752328,0.815756 1.008555,0 1.450419,-0.30651 1.847986,-1.281902 z M 23.692511,68.768309 c 0.0035,-1.089618 0.132849,-2.453096 0.28744,-3.029952 0.264678,-0.987643 0.14193,-1.04883 -2.104024,-1.04883 h -2.385099 v 2.768738 2.768742 l 1.748049,0.182851 c 0.961427,0.100571 1.905374,0.218114 2.097659,0.261214 0.192285,0.04312 0.352474,-0.813146 0.355975,-1.902763 z m 6.885461,-5.360684 c 1.582201,-0.851044 3.480844,-3.278553 3.076271,-3.933167 -0.128723,-0.208279 -0.81994,-0.378688 -1.536036,-0.378688 -1.783194,0 -4.301657,-1.781542 -5.284848,-3.738462 -0.686893,-1.36718 -0.815146,-2.960832 -0.815756,-10.1365 l -7.25e-4,-8.514279 -7.108733,0.127675 c -8.041061,0.144421 -9.5301316,0.627231 -11.1514608,3.615707 -0.7970969,1.46923 -0.8718906,2.520822 -0.7519385,10.572183 0.1488368,9.990176 0.3588209,10.700253 3.6624353,12.384808 2.368608,1.207781 17.66568,1.208336 19.910791,9.32e-4 z m -13.184803,-10.0147 c -0.512761,-0.287352 -1.187829,-0.85233 -1.500151,-1.255515 -0.68698,-0.886834 -0.783006,-3.296862 -0.131362,-3.296862 0.256381,0 0.466147,-0.307269 0.466147,-0.682819 0,-0.82034 1.416458,-1.647914 2.820538,-1.647914 0.977278,0 1.004439,0.123616 0.691344,3.146489 -0.374719,3.617833 -0.943172,4.523047 -2.346516,3.736621 z m 73.874923,10.013977 c 0.892218,-0.44827 2.098372,-1.527795 2.680342,-2.398943 1.005455,-1.505076 1.058083,-2.015515 1.057398,-10.255223 -8.21e-4,-9.806114 -0.343061,-11.154263 -3.262303,-12.850773 -1.443325,-0.838784 -2.438039,-0.94815 -8.62371,-0.94815 h -6.992196 l -0.132437,5.024049 c -0.07285,2.763226 0.05862,5.365458 0.292143,5.782737 0.378954,0.67715 0.51704,0.650707 1.284863,-0.246048 1.006792,-1.175848 2.761335,-1.324602 3.166607,-0.268472 0.330796,0.862041 -0.125081,4.262915 -0.729239,5.440177 -0.571967,1.114528 -2.050248,1.026077 -2.890062,-0.172926 -0.674164,-0.962504 -0.705764,-0.939425 -1.193377,0.871437 -0.852875,3.167335 -3.562212,5.711003 -6.082955,5.711003 -1.471806,0 -1.674151,1.28407 -0.417103,2.646957 2.011031,2.180358 3.297269,2.442859 12.062244,2.461682 6.860893,0.01473 8.415421,-0.112029 9.779785,-0.797507 z m -41.72882,-5.067949 c 0.698152,-0.267904 0.697667,-0.356747 -0.0062,-1.134507 -1.609627,-1.778619 -2.032111,-4.222364 -2.050401,-11.859997 -0.01909,-7.971116 0.329182,-10.156036 1.885045,-11.826058 0.540385,-0.580035 0.83959,-1.198064 0.664907,-1.373399 -0.564732,-0.566828 -17.130219,-0.65867 -18.992425,-0.105297 -1.072604,0.318735 -2.230256,1.163974 -3.029952,2.212266 -1.268835,1.663269 -1.297398,1.841264 -1.46005,9.098602 -0.09124,4.071179 -0.0261,8.334392 0.144766,9.473803 0.328902,2.19327 2.055618,4.683439 3.712283,5.353631 1.121515,0.453701 17.999128,0.595694 19.132022,0.160956 z M 35.893761,47.092498 c -0.942244,-2.457781 -1.0944,-3.379561 -0.557856,-3.379561 0.288789,0 0.418553,-0.172349 0.288365,-0.382996 -0.340835,-0.551483 1.616798,-2.105696 2.812885,-2.23322 0.745431,-0.07948 1.094862,0.209639 1.315404,1.088347 0.165176,0.658115 0.07894,1.417951 -0.19163,1.688524 -0.270572,0.270572 -0.49195,1.266618 -0.49195,2.213434 0,1.139752 -0.249167,1.817098 -0.737344,2.004429 -1.367625,0.524807 -1.944297,0.288506 -2.437874,-0.998957 z m 36.765382,10.276987 c 2.471938,-2.079997 2.769339,-3.407703 2.768537,-12.359673 -9.32e-4,-9.07212 -0.359538,-10.451191 -3.2147,-12.358562 -1.505075,-1.005455 -2.015514,-1.058085 -10.255222,-1.057397 -9.806113,8.19e-4 -11.154264,0.343061 -12.850772,3.262301 -0.863132,1.485216 -0.948151,2.42753 -0.948151,10.508796 0,9.844781 0.174783,10.525485 3.171814,12.352891 1.342968,0.818856 2.392674,0.908468 10.660276,0.910039 l 9.17063,0.0019 1.497588,-1.260139 z M 57.681955,47.409226 c -1.847897,-1.847896 -0.494357,-6.09247 2.001438,-6.27634 1.046923,-0.07713 1.954533,1.405785 1.530079,2.499939 -0.166279,0.428632 -0.39381,1.483712 -0.505625,2.344622 -0.111814,0.86091 -0.318951,1.752415 -0.460301,1.981123 -0.434476,0.702997 -1.552678,0.463568 -2.565591,-0.549344 z M 23.689971,33.341178 c 0.01083,-8.251905 1.717342,-15.210563 4.253512,-17.344609 1.642223,-1.38184 4.28586,-1.585561 5.900405,-0.454689 2.209371,1.547503 4.26724,7.857376 4.284704,13.137833 l 0.0081,2.447269 h 2.166147 2.166147 L 42.200509,26.815128 C 41.55474,16.443793 37.578761,10.616538 31.148093,10.616538 c -3.164925,0 -5.079045,0.877782 -7.124128,3.267002 -2.87598,3.359936 -4.486695,9.96334 -4.518739,18.525345 l -0.01439,3.845708 h 2.097659 2.097659 l 0.0038,-2.913415 z m 58.264482,-0.782026 c 0,-14.19855 -4.397136,-21.942614 -12.459181,-21.942614 -6.93481,0 -11.264844,5.949059 -12.083682,16.601846 l -0.300436,3.908598 h 2.10213 2.102134 l 0.314308,-3.46854 c 0.572675,-6.319695 2.419245,-10.842854 4.963747,-12.158667 2.130569,-1.10176 4.804991,-0.880811 6.488871,0.536084 2.893375,2.434612 4.105207,6.427006 4.545314,14.974587 l 0.27002,5.244147 h 2.028386 2.028389 z M 32.786237,26.377591 c 0.384486,-0.384485 -1.180429,-6.90427 -1.657201,-6.90427 -0.513399,0 -1.300043,2.769272 -1.678551,5.909117 l -0.29089,2.41302 1.682963,-0.578576 c 0.92563,-0.318216 1.800285,-0.695897 1.943679,-0.839291 z M 72.165378,26.20579 c 0,-1.581889 -0.949755,-5.417458 -1.522794,-6.149786 -0.250772,-0.320476 -0.839935,-0.582683 -1.309251,-0.582683 -0.906818,0 -1.600584,1.773064 -2.132182,5.449249 l -0.282438,1.95315 2.273722,0.177023 c 1.25055,0.09736 2.431047,0.214833 2.623333,0.261046 0.192285,0.04621 0.34961,-0.452388 0.34961,-1.107999 z M 25.550732,98.252072 c 0,-0.25638 0.222146,-0.466146 0.493657,-0.466146 0.271511,0 0.364014,0.209766 0.205562,0.466146 -0.158452,0.256381 -0.380597,0.466147 -0.493657,0.466147 -0.113059,0 -0.205562,-0.209766 -0.205562,-0.466147 z m 4.661464,0.08459 c 0,-0.563361 0.884373,-1.22018 1.207645,-0.896912 0.117328,0.117329 -0.106394,0.478667 -0.49716,0.802974 -0.443018,0.367673 -0.710485,0.40304 -0.710485,0.09394 z M 6.4387269,96.387487 c 0,-0.256381 0.2221458,-0.466147 0.493657,-0.466147 0.2715112,0 0.3640147,0.209766 0.2055627,0.466147 -0.1584521,0.25638 -0.3805974,0.466146 -0.493657,0.466146 -0.1130597,0 -0.2055627,-0.209766 -0.2055627,-0.466146 z M 33.009075,95.715779 c 0,-0.399702 0.209766,-0.726732 0.466147,-0.726732 0.25638,0 0.466146,0.197385 0.466146,0.438635 0,0.241249 -0.209766,0.568279 -0.466146,0.726731 -0.256381,0.158453 -0.466147,-0.03892 -0.466147,-0.438634 z M 2.7560207,86.948021 c -0.025556,-0.961427 0.1633004,-1.74805 0.419681,-1.74805 0.5336306,0 0.5336306,0.664469 0,2.330733 -0.3330796,1.040042 -0.3782124,0.977378 -0.419681,-0.582683 z M 35.805954,85.666118 c 0,-0.256381 0.209766,-0.466147 0.466146,-0.466147 0.256381,0 0.466147,0.209766 0.466147,0.466147 0,0.256381 -0.209766,0.466146 -0.466147,0.466146 -0.25638,0 -0.466146,-0.209765 -0.466146,-0.466146 z M 2.7463563,82.845932 c 0.02024,-0.884513 0.1505158,-1.322262 0.2895006,-0.972778 0.213347,0.536474 0.3212601,0.536474 0.6929544,0 0.3003767,-0.433539 0.3398546,-0.265167 0.1242534,0.529939 -0.5264337,1.941411 -1.14668,2.189597 -1.1067084,0.442839 z M 34.155274,79.575201 c -0.168994,-0.273437 -0.207288,-0.597133 -0.0851,-0.719324 0.12219,-0.122191 0.346378,0.101531 0.498195,0.497159 0.315201,0.821401 0.04655,0.965883 -0.413097,0.222165 z m 1.65068,0.0035 c 0,-0.271512 0.209766,-0.364014 0.466146,-0.205561 0.256381,0.158452 0.466147,0.380599 0.466147,0.493658 0,0.113059 -0.209766,0.205561 -0.466147,0.205561 -0.25638,0 -0.466146,-0.222146 -0.466146,-0.493658 z M 5.506434,74.039968 c 0,-0.241249 0.2097659,-0.568279 0.4661464,-0.726731 0.2563806,-0.158453 0.4661465,0.03892 0.4661465,0.438634 0,0.399702 -0.2097659,0.726732 -0.4661465,0.726732 -0.2563805,0 -0.4661464,-0.197385 -0.4661464,-0.438635 z m 2.4134038,-2.204714 c 0.082721,-0.426524 0.4126091,-0.8628 0.7330848,-0.969505 0.8570848,-0.285375 0.7113385,1.133006 -0.1504017,1.463686 -0.5112145,0.196173 -0.6875651,0.04661 -0.5826831,-0.494181 z"
         id="path11098" />
      <path
         style="fill:#b9b9b9;fill-opacity:1;stroke-width:0.466146"
         d="m 13.610591,98.121994 c 0.205678,-0.637371 -0.05385,-0.893589 -1.121394,-1.107098 -0.763953,-0.152788 -1.389006,-0.465843 -1.389006,-0.695672 0,-0.229829 -0.524414,-0.65681 -1.1653657,-0.948846 -0.6409513,-0.292041 -1.1653661,-0.789512 -1.1653661,-1.105503 0,-0.315987 -0.3446724,-0.706786 -0.7659383,-0.868441 C 7.5822545,93.23478 7.3625,92.977597 7.515177,92.82492 7.6678539,92.672243 7.4881125,92.242666 7.1157491,91.870304 6.7433867,91.497941 6.4387269,90.78215 6.4387269,90.279658 c 0,-0.502497 -0.2776992,-1.020189 -0.6171092,-1.150435 -0.4555546,-0.174815 -0.585712,-1.215491 -0.4971775,-3.975195 0.1611906,-5.024467 1.8503469,-8.736051 5.2993728,-11.64431 1.344366,-1.133589 2.630817,-2.087288 2.858779,-2.119335 0.227963,-0.03203 0.781569,-0.101052 1.230235,-0.153339 0.510028,-0.05944 0.597378,-0.183186 0.233073,-0.330186 -0.320476,-0.129313 -0.582683,-0.532288 -0.582683,-0.89549 0,-0.440285 -0.528358,-0.660376 -1.585325,-0.660376 -2.632915,0 -10.087218,-6.213215 -10.7837222,-8.988306 C 1.8440746,59.764657 1.7863093,55.078403 1.8658025,49.948788 l 0.144533,-9.326579 1.9423435,-2.205381 c 2.6238193,-2.979145 5.8538922,-5.379698 7.712985,-5.732202 2.907301,-0.551256 3.163699,-0.869307 3.163699,-3.924429 0,-6.958744 2.574695,-13.804087 6.528406,-17.357079 4.210659,-3.7838979 5.898527,-4.6945149 9.076574,-4.8968776 3.815778,-0.2429705 5.382705,0.5195948 10.007522,4.8702916 4.516575,4.248869 5.172951,5.63772 6.808148,14.405627 0.225602,1.209678 3.868703,2.35363 4.685881,1.471391 0.282718,-0.305228 0.775024,-2.082952 1.094018,-3.950499 0.84379,-4.939977 2.733958,-8.358491 6.601426,-11.939175 4.124711,-3.8188478 6.391637,-4.9426561 9.970234,-4.9426561 3.556348,0 5.659829,1.0404995 9.868125,4.8813321 4.814109,4.393747 6.542785,8.509166 7.391078,17.595782 l 0.2924,3.132036 1.712491,0.269184 c 2.400958,0.377402 4.237001,1.372035 7.009132,3.797027 l 2.394781,2.094895 v 12.503029 12.503032 l -2.680342,2.44987 c -2.743691,2.50777 -4.903068,3.703585 -6.687845,3.703585 -0.968652,0 -0.995451,0.130297 -0.695034,3.379562 0.548687,5.934543 1.724276,12.156838 2.81187,14.883017 l 1.055878,2.646672 -2.379487,2.277881 c -2.513699,2.406364 -5.841798,4.987389 -6.076125,4.712195 -0.07663,-0.08999 -0.384879,-0.635586 -0.685007,-1.212442 -0.300129,-0.576857 -0.851179,-1.04883 -1.224558,-1.04883 -0.373378,0 -0.94087,-0.419532 -1.261094,-0.932293 -0.320224,-0.512761 -0.827703,-0.932293 -1.127734,-0.932293 -1.480187,0 -3.544214,-6.748994 -4.633211,-15.14976 -0.398821,-3.076566 -0.821542,-6.261498 -0.939388,-7.077627 -0.172339,-1.19354 -0.523193,-1.58583 -1.793196,-2.004966 -0.868416,-0.286605 -1.831167,-0.825019 -2.139449,-1.196472 -0.812153,-0.978581 -1.844798,-0.828249 -1.844798,0.268561 0,1.757624 -1.793526,6.059624 -3.489497,8.369995 -2.01737,2.748213 -7.088797,6.892614 -9.4788,7.746138 -4.637593,1.656181 -8.82931,0.345107 -14.078812,-4.403537 -3.380712,-3.058158 -5.114508,-5.857316 -6.325126,-10.211726 -0.721591,-2.595457 -0.891845,-2.844868 -1.549322,-2.269667 -0.406256,0.355418 -1.57771,1.081437 -2.603232,1.613375 -1.025523,0.531938 -1.602379,0.976432 -1.281903,0.98776 0.320475,0.01133 0.582683,0.26533 0.582683,0.564442 0,0.299108 -0.138024,0.405814 -0.30672,0.237115 -0.168696,-0.168694 -0.585557,-0.07531 -0.926357,0.207533 -0.3408,0.282839 -0.926273,0.396584 -1.301053,0.252768 -1.296097,-0.497359 -0.240692,0.930708 2.324618,3.145435 1.397135,1.206201 2.540244,2.508027 2.540244,2.892956 0,0.384926 0.195272,0.579183 0.433937,0.43168 0.238665,-0.147507 0.585724,-0.02261 0.771243,0.277586 0.210662,0.340855 0.135247,0.420893 -0.200864,0.213164 -0.684848,-0.423261 -0.682836,-0.402089 0.211079,2.221407 1.117939,3.280972 0.736107,8.366438 -0.809858,10.786181 -0.655203,1.025522 -1.101926,2.126682 -0.992717,2.447022 0.109209,0.320341 -0.185973,0.717847 -0.655959,0.883338 -0.469986,0.165496 -1.209628,0.742464 -1.643649,1.28215 -0.43402,0.539686 -0.958435,0.98954 -1.165366,0.999679 -0.206931,0.01016 -1.59026,0.482112 -3.074066,1.04883 -2.888746,1.103317 -6.521504,1.329254 -9.168152,0.570204 -1.185213,-0.339914 -1.713701,-0.309456 -2.022017,0.116537 -0.284453,0.393022 -0.332171,0.312569 -0.149802,-0.252568 z m 10.29252,-5.326781 c 2.051276,-1.037521 3.0283,-2.005381 4.054912,-4.016878 1.088264,-2.132289 1.205577,-5.574561 0.26582,-7.799777 C 26.023084,75.76747 19.503824,73.744679 14.7093,76.785277 9.1525411,80.30927 8.9596474,87.963511 14.323969,92.075632 c 2.556924,1.960057 3.768419,2.001372 3.768419,0.128507 0,-1.073531 -0.320294,-1.5521 -1.419053,-2.12029 -4.367247,-2.258391 -4.209884,-9.341897 0.248922,-11.204907 2.152669,-0.899439 3.889799,-0.845376 5.802851,0.180608 3.157288,1.693268 4.1109,5.552415 2.297616,9.298163 -0.876266,1.810126 -1.737934,2.634343 -5.363877,5.130757 -0.749138,0.515773 -0.615512,0.55794 0.981239,0.309648 1.016663,-0.158089 2.485025,-0.609398 3.263025,-1.002905 z M 85.622252,91.33086 c 1.526658,-1.266315 1.550883,-1.340189 0.874836,-2.667803 -1.530182,-3.004975 -3.610342,-15.54032 -3.610342,-21.756477 v -2.217053 l 3.612635,-9.32e-4 c 4.250729,-9.32e-4 6.333238,-0.846648 7.9152,-3.2147 1.00951,-1.511149 1.05812,-2.000458 1.05812,-10.65092 0,-10.257649 -0.292596,-11.478371 -3.178784,-13.262135 -1.336679,-0.826113 -2.568038,-1.077764 -6.010278,-1.228316 L 81.954453,36.14339 81.938185,31.654064 C 81.888041,17.810755 77.554888,10.51538 69.405823,10.554356 c -7.450628,0.03563 -11.396045,6.04791 -12.276713,18.70804 -0.113059,1.625255 -0.124223,1.63291 -2.910371,1.995655 -1.538283,0.200278 -3.006645,0.350874 -3.263025,0.334657 -0.256381,-0.01622 -2.187127,-0.149415 -4.290549,-0.295996 L 42.840762,31.030201 42.602968,29.09747 C 42.472181,28.034467 42.241591,25.989464 42.090547,24.553018 41.370313,17.703526 38.447039,12.53056 34.433791,11.003779 c -1.780225,-0.67726 -5.822454,-0.547561 -7.336533,0.2354 -2.075104,1.073078 -3.916325,3.123896 -5.090818,5.670336 -1.420027,3.078789 -2.515612,9.576978 -2.515612,14.920729 v 4.310312 l -4.197471,0.200684 c -4.626971,0.221218 -5.8769877,0.803771 -7.8058006,3.637785 -0.996567,1.46426 -1.0488295,1.981239 -1.0488295,10.374984 0,9.827602 0.3029728,11.159756 2.9708852,13.062794 1.2000019,0.855971 2.2192999,1.068189 5.7693609,1.201185 l 4.311855,0.161534 v 2.751881 c 0,2.541151 0.08031,2.752371 1.048829,2.758245 0.576857,0.0037 1.494483,0.125966 2.039171,0.272145 0.914703,0.245482 1.015442,0.03137 1.319005,-2.803241 l 0.328664,-3.069025 h 2.690841 c 3.081105,0 5.23785,-1.147158 6.790957,-3.612071 0.756211,-1.200173 1.244632,-1.483017 2.586027,-1.497584 l 1.653735,-0.01796 0.547679,4.311855 c 0.704269,5.544682 1.596731,8.480481 3.410361,11.218565 3.612532,5.453928 11.299589,6.566745 16.226962,2.349098 3.19191,-2.732158 5.613522,-9.365754 5.63359,-15.432249 l 0.0081,-2.447269 h 1.786488 c 1.553275,0 1.933594,0.228193 2.913415,1.748049 1.489651,2.310688 3.722884,3.377935 7.070295,3.37884 1.832916,4.66e-4 2.680464,0.184943 2.680734,0.583405 9.32e-4,1.529119 0.98707,11.203117 1.437279,14.100931 0.923823,5.946327 3.1972,13.311245 4.096952,13.272634 0.160713,-0.0069 0.99877,-0.598611 1.862348,-1.314915 z M 49.379519,75.397965 C 45.885061,74.59871 43.469801,70.063613 42.950215,63.325751 l -0.278998,-3.617978 3.443028,-0.367523 c 4.236345,-0.452204 5.28325,-0.451906 9.899265,0.0028 l 3.659357,0.360485 -0.305839,3.075671 c -0.382589,3.847564 -1.451473,7.741551 -2.670716,9.729558 -1.467252,2.39239 -4.409419,3.554162 -7.316793,2.889185 z m 3.139095,-4.332789 c 0.918989,-1.107313 2.069667,-6.425638 1.511107,-6.984198 -0.686736,-0.686737 -5.044199,-0.63767 -5.746574,0.06471 -0.446218,0.446218 -0.392877,1.23443 0.249211,3.682524 0.449319,1.713135 1.073503,3.277788 1.387075,3.477014 0.870113,0.552813 2.030077,0.445688 2.599181,-0.240046 z M 23.698172,34.040398 c 0.02171,-3.996211 0.872635,-11.022203 1.648358,-13.61024 0.95529,-3.187122 3.232835,-5.618302 5.263265,-5.618302 4.312504,0 6.614945,3.976619 7.354674,12.702491 l 0.306258,3.612635 h -3.453855 c -4.167814,0 -6.280048,0.946654 -7.634628,3.421662 -0.722821,1.320697 -1.220316,1.703713 -2.214195,1.70469 -1.220386,0.0012 -1.281326,-0.104998 -1.269877,-2.212936 z m 8.311452,-6.999387 c 1.001644,-0.216079 1.071711,-0.405498 0.796858,-2.154251 -0.485518,-3.089111 -1.199076,-5.413439 -1.661901,-5.413439 -0.610033,0 -1.864678,4.481523 -1.864678,6.660529 0,1.562577 0.119153,1.779768 0.815757,1.486962 0.448666,-0.18859 1.30995,-0.4495 1.913964,-0.579801 z m 42.952632,7.716971 c -1.316169,-2.779152 -2.738759,-3.379678 -8.42315,-3.555706 -5.841882,-0.180905 -5.427921,0.306764 -4.614369,-5.435978 0.620646,-4.381078 1.756962,-7.419267 3.405558,-9.105491 3.689042,-3.77324 9.056536,-1.613072 10.787576,4.3415 0.828058,2.848417 1.632426,9.137581 1.637726,12.805017 0.0033,2.231168 -0.08908,2.446378 -1.045291,2.437181 -0.7145,-0.0069 -1.271713,-0.480721 -1.74805,-1.486523 z m -2.617491,-8.875147 c -0.144902,-0.833237 -0.565049,-2.616247 -0.933664,-3.962245 -0.569164,-2.078307 -0.837334,-2.447269 -1.778731,-2.447269 -0.90341,0 -1.246014,0.403505 -1.851566,2.180698 -0.408671,1.199383 -0.743037,2.86545 -0.743037,3.702369 0,1.451447 0.09143,1.529906 1.981122,1.700108 1.089617,0.09814 2.342969,0.215084 2.785225,0.259876 0.659914,0.06683 0.756863,-0.190219 0.540651,-1.433537 z M 30.212196,98.336659 c 0,-0.563361 0.884373,-1.22018 1.207645,-0.896912 0.117328,0.117329 -0.106394,0.478667 -0.49716,0.802974 -0.443018,0.367673 -0.710485,0.40304 -0.710485,0.09394 z m 2.796879,-2.387807 c 0,-0.241249 0.207363,-0.566797 0.460807,-0.723431 0.26424,-0.16331 0.342388,0.02382 0.183201,0.438634 -0.30989,0.807562 -0.644008,0.955316 -0.644008,0.284797 z m 0.25298,-4.190619 c -0.147503,-0.238667 -0.055,-0.565697 0.205563,-0.726732 0.260563,-0.161035 0.47375,0.03423 0.47375,0.433936 0,0.8188 -0.279714,0.939359 -0.679313,0.292796 z M 5.0402875,90.327583 C 4.7658661,89.814821 4.6462224,89.39529 4.7744127,89.39529 c 0.1281903,0 0.4575999,0.419531 0.7320213,0.932293 0.2744214,0.512761 0.394065,0.932292 0.2658748,0.932292 -0.1281903,0 -0.4575999,-0.419531 -0.7320213,-0.932292 z m -2.297969,-3.379562 c -0.01802,-0.705047 0.1770026,-1.281903 0.4333832,-1.281903 0.5471227,0 0.5471227,0.358289 0,1.631513 -0.3549995,0.826128 -0.4043509,0.786314 -0.4333832,-0.34961 z M 2.716693,82.752703 c 0.00577,-0.848126 0.093609,-0.915027 0.4590087,-0.34961 0.5840453,0.903746 0.5840453,1.398439 0,1.398439 -0.2563806,0 -0.4629344,-0.471973 -0.4590087,-1.048829 z m 30.62023,-8.552828 c -0.460635,-0.61584 -0.668418,-1.119711 -0.46174,-1.119711 0.40639,0 1.693078,1.86362 1.448093,2.097398 -0.08186,0.07811 -0.525718,-0.361847 -0.986353,-0.977687 z M 5.506434,74.012456 c 0,-0.25638 0.2221456,-0.466146 0.493657,-0.466146 0.2715113,0 0.3640146,0.209766 0.2055627,0.466146 -0.1584519,0.256381 -0.3805976,0.466147 -0.4936571,0.466147 -0.1130594,0 -0.2055626,-0.209766 -0.2055626,-0.466147 z M 31.235302,72.12006 c -0.555249,-0.889095 -0.528101,-0.921842 0.367072,-0.44276 0.531667,0.284541 0.843529,0.716589 0.693027,0.960104 -0.364562,0.589875 -0.370413,0.587018 -1.060099,-0.517344 z M 7.8371663,71.681724 c 0,-0.25638 0.2097659,-0.466146 0.4661464,-0.466146 0.2563806,0 0.4661465,0.209766 0.4661465,0.466146 0,0.256381 -0.2097659,0.466147 -0.4661465,0.466147 -0.2563805,0 -0.4661464,-0.209766 -0.4661464,-0.466147 z"
         id="path11096" />
      <path
         style="fill:#a3a3a3;fill-opacity:1;stroke-width:0.466146"
         d="M 14.829363,97.773484 C 13.41927,97.239262 12.012578,96.778784 11.70338,96.750209 11.394182,96.721634 11.192391,96.575889 11.254954,96.42633 11.439008,95.986363 8.3686888,93.21447 8.0501416,93.533015 7.8902753,93.69288 7.8167649,93.613915 7.8867862,93.357535 7.956807,93.101154 7.4752483,91.803458 6.8166556,90.473771 5.8123135,88.446015 5.629725,87.468795 5.6843937,84.413867 5.7796169,79.092721 7.0402861,76.739329 12.123,72.394411 c 0.591168,-0.505359 1.284616,-0.945382 1.540997,-0.977831 0.256381,-0.03244 0.833237,-0.09095 1.281903,-0.130004 1.379046,-0.120023 -0.801065,-1.934717 -2.330733,-1.940064 -1.58131,-0.0055 -6.8903259,-3.892174 -9.0658511,-6.636965 L 2.0103355,60.767865 1.8652533,51.686647 C 1.7854581,46.691975 1.8476298,42.09759 2.0034126,41.476902 2.3466542,40.109319 6.2424488,35.908154 8.830612,34.114555 9.8653154,33.397505 11.585881,32.69417 12.65409,32.551588 l 1.9422,-0.25924 0.296656,-4.210361 c 0.333276,-4.730103 1.338302,-9.137277 2.686211,-11.779398 1.176085,-2.305315 7.090377,-7.8730801 9.549164,-8.9896626 2.435238,-1.1058879 5.587788,-1.1123854 7.978413,-0.016446 1.025522,0.4701334 3.351459,2.2367641 5.168749,3.9258476 3.805169,3.536718 5.556504,6.829327 6.448573,12.123679 0.543338,3.224663 0.580238,3.285683 2.359385,3.90164 2.771698,0.959586 3.238921,0.588103 3.867007,-3.074634 1.00365,-5.852819 2.217374,-8.313521 5.893079,-11.947613 7.528452,-7.443215 13.153474,-7.7004314 20.620758,-0.942929 1.647077,1.490523 3.37167,3.632344 4.218793,5.239451 1.608024,3.050635 2.929623,8.296696 2.939203,11.667126 0.01072,3.769745 0.315422,4.336371 2.331893,4.336371 1.993265,0 5.456999,2.078482 7.849142,4.710032 l 1.438933,1.582945 0.01366,12.096054 0.01366,12.096053 -2.447269,2.306959 c -2.459342,2.318332 -5.417428,4.004249 -7.059219,4.023291 -0.818171,0.0095 -0.859998,0.283352 -0.571538,3.742256 0.432538,5.186472 1.533226,11.222593 2.65208,14.543858 l 0.944161,2.802706 -1.770182,1.729306 c -2.298433,2.245373 -5.498039,4.694754 -6.132702,4.694754 -0.27456,0 -0.723729,-0.419532 -0.99815,-0.932293 -0.27442,-0.512761 -0.810712,-0.932293 -1.191759,-0.932293 -0.381047,0 -0.931752,-0.524415 -1.223788,-1.165366 -0.292041,-0.640951 -0.807692,-1.165366 -1.1459,-1.165366 -0.794901,0 -2.151774,-2.753523 -3.10103,-6.292977 -0.891529,-3.324212 -2.194306,-11.952965 -2.194306,-14.533673 0,-1.902339 -0.637035,-2.94682 -1.797279,-2.94682 -0.373187,0 -1.381989,-0.536557 -2.241777,-1.192351 -1.707481,-1.302357 -1.613221,-1.381812 -2.511224,2.116836 -0.948301,3.694598 -2.632917,6.311269 -6.219741,9.66097 -4.521854,4.222914 -6.141065,5.009806 -10.304228,5.007587 -3.89135,-0.0019 -4.859908,-0.458786 -9.322929,-4.396124 -4.618206,-4.074246 -6.193183,-6.672631 -7.428165,-12.254949 L 33.918991,66.53571 32.19046,67.710278 c -0.950692,0.646013 -1.998983,1.174567 -2.329535,1.174567 -0.330553,0 -0.84632,0.538409 -1.146149,1.196463 -0.372136,0.816749 -0.812778,1.126471 -1.388446,0.975934 -1.4048,-0.367366 -0.968246,0.347684 1.741271,2.852089 1.421515,1.313908 2.544211,2.451473 2.494879,2.527926 -0.04933,0.07645 0.397523,1.082952 0.99301,2.236664 1.590283,3.081056 1.665068,8.103574 0.166904,11.209121 -1.016219,2.10652 -4.37478,6.942496 -4.37478,6.299224 0,-0.152146 -1.101271,0.282344 -2.447268,0.965533 -3.366763,1.708875 -7.582941,1.947155 -11.070979,0.625685 z M 23.457071,93.1874 c 3.994946,-1.814866 6.470119,-6.683025 5.395449,-10.611745 -2.038208,-7.451169 -10.230131,-9.887903 -15.659784,-4.658089 -2.901642,2.794846 -3.755191,6.496231 -2.30089,9.97772 2.112191,5.056426 7.805641,7.454349 12.565225,5.292114 z m -4.898536,-0.799184 c 0,-0.781033 -0.548255,-1.477932 -1.830009,-2.326155 -3.53999,-2.342656 -4.285186,-6.789806 -1.60629,-9.585971 4.965488,-5.182854 12.802726,0.05929 10.215786,6.833092 -0.812959,2.128704 -4.129184,5.501073 -5.852692,5.951781 -0.734222,0.192006 -0.926795,0.01066 -0.926795,-0.872747 z m 66.983256,-1.024343 1.489678,-1.269364 -1.107727,-3.263025 C 84.691264,83.200982 83.542586,76.132001 83.064297,69.234455 l -0.315157,-4.544928 3.914511,-0.0019 c 4.464541,-0.0019 6.303717,-0.789443 7.879274,-3.373558 0.843007,-1.382642 0.926447,-2.361731 0.928032,-10.889769 0.0019,-8.95303 -0.04498,-9.438989 -1.047086,-10.907075 -1.69303,-2.480186 -3.687894,-3.262668 -8.318164,-3.262668 H 82.084848 L 81.831931,29.845079 C 81.647948,25.182525 81.311302,22.59046 80.596792,20.334912 78.196022,12.756191 73.362036,9.2514724 67.210945,10.62996 61.53054,11.902967 58.121182,17.550949 57.339678,26.982829 l -0.32406,3.91108 -2.796879,0.263354 c -1.538283,0.144844 -4.723499,0.169421 -7.078263,0.05461 L 42.859093,31.003138 42.573414,27.918571 C 41.479285,16.104918 37.818963,10.526494 31.099062,10.43137 23.746919,10.327296 19.553162,17.941062 19.507091,31.476592 l -0.01626,4.778001 h -3.6304 c -2.84805,0 -4.071184,0.226023 -5.675803,1.04883 -3.4572761,1.772801 -3.7461837,2.806346 -3.7441557,13.394439 0.00158,8.255216 0.087468,9.237727 0.9280324,10.616364 1.5976545,2.620363 3.3979863,3.371577 8.0849483,3.373558 l 4.120185,0.0019 -0.15794,2.762389 -0.15794,2.762384 2.023844,0.302534 c 1.113115,0.166395 2.109014,0.217368 2.213109,0.113269 0.104096,-0.104096 0.324518,-1.483306 0.48983,-3.064918 l 0.300566,-2.875658 h 2.621209 c 3.282503,0 5.554927,-1.143116 6.801982,-3.421664 0.800253,-1.462175 1.165367,-1.703606 2.577963,-1.704688 l 1.64567,-0.0014 0.549173,4.592255 c 1.26246,10.556838 5.495474,15.900485 12.606122,15.913635 6.952905,0.01287 11.627622,-5.748607 12.47758,-15.378279 0.440844,-4.994578 0.498194,-5.127611 2.210476,-5.127611 1.243385,0 1.66872,0.282424 2.360826,1.56758 1.233415,2.290313 3.791249,3.560031 7.17165,3.560031 h 2.782367 l 0.576978,6.409513 c 0.593563,6.593735 1.42363,12.040293 2.371361,15.559913 0.635871,2.361428 2.288341,6.004773 2.715378,5.986822 0.164051,-0.0069 0.968629,-0.583755 1.787952,-1.281903 z M 47.276401,74.434538 c -2.336848,-1.838165 -4.456035,-7.808531 -4.47136,-12.597123 l -0.0069,-2.152898 3.612635,-0.321561 c 4.401527,-0.391782 4.525079,-0.391713 9.368826,0.0052 l 3.891605,0.318877 -0.294428,2.617794 c -0.72771,6.470211 -2.490065,10.894379 -4.908932,12.323235 -1.917349,1.132605 -5.632671,1.032635 -7.191456,-0.193507 z m 5.873879,-4.6174 c 0.437865,-0.897332 0.857397,-2.551629 0.932293,-3.676217 0.129985,-1.951867 0.06426,-2.069434 -1.447506,-2.58929 -1.146329,-0.394187 -2.02839,-0.40881 -3.194031,-0.05295 -1.590345,0.485519 -1.607221,0.518495 -1.357919,2.653366 0.138842,1.188953 0.575073,2.933907 0.969405,3.877677 0.613052,1.467238 0.904277,1.694419 2.009301,1.567436 0.942483,-0.108305 1.507848,-0.590174 2.088457,-1.780018 z M 24.246054,29.845079 c 0.307188,-9.866342 2.185234,-14.344919 6.241041,-14.883009 1.661078,-0.220378 2.122089,-0.06356 3.582391,1.218604 2.234743,1.962131 4.050974,7.965164 4.063679,13.431332 l 0.0035,1.514976 H 34.47645 c -4.213769,0 -6.315827,1.007276 -7.527279,3.606961 -0.495148,1.062551 -1.020766,1.503418 -1.800948,1.510562 l -1.101729,0.01009 z m 7.0701,-2.487 1.803177,-0.500679 -0.299223,-2.255659 c -0.402417,-3.033565 -1.2011,-5.208902 -1.834901,-4.997635 -0.903203,0.301067 -2.651429,8.26365 -1.812923,8.257251 0.187381,-0.0014 1.152123,-0.227905 2.14387,-0.503278 z m 43.728111,7.299313 c -1.597716,-2.707931 -2.9415,-3.269471 -8.448377,-3.53041 l -4.918806,-0.233073 0.125007,-2.563805 c 0.390901,-8.017025 2.900992,-12.827668 6.978581,-13.374588 4.936024,-0.662059 7.634038,3.597235 8.495253,13.411267 0.666757,7.598057 -0.131924,9.84939 -2.231658,6.290609 z M 72.36004,25.649761 c -0.180734,-1.217807 -0.569901,-3.053259 -0.864818,-4.078781 -0.467517,-1.625727 -0.710099,-1.864586 -1.89365,-1.864586 -1.18383,0 -1.425807,0.238473 -1.891967,1.864586 -0.293989,1.025522 -0.67981,2.651208 -0.857379,3.612635 l -0.322853,1.748049 1.769175,0.03276 c 0.973044,0.01802 2.188702,0.213045 2.701463,0.433386 1.584647,0.680944 1.69875,0.534285 1.360029,-1.748049 z M 30.911416,93.590608 c 0.158452,-0.256381 0.380597,-0.466147 0.493657,-0.466147 0.11306,0 0.205563,0.209766 0.205563,0.466147 0,0.25638 -0.222146,0.466146 -0.493657,0.466146 -0.271512,0 -0.364015,-0.209766 -0.205563,-0.466146 z M 2.7095552,86.365338 c 0,-0.384571 0.2031824,-0.69922 0.4515166,-0.69922 0.2483341,0 0.3307744,0.314649 0.1832007,0.69922 -0.1475736,0.38457 -0.3507561,0.699219 -0.4515165,0.699219 -0.1007605,0 -0.1832008,-0.314649 -0.1832008,-0.699219 z M 31.407532,72.284512 c -0.25297,-0.664352 -0.199427,-0.717893 0.260947,-0.260949 0.318573,0.316206 0.461798,0.69234 0.318277,0.835862 -0.14352,0.143521 -0.404171,-0.11519 -0.579224,-0.574913 z"
         id="path11094" />
      <path
         style="fill:#8c8c8c;fill-opacity:1;stroke-width:0.466146"
         d="m 82.886746,95.92134 c -0.27442,-0.512761 -0.810712,-0.932293 -1.191759,-0.932293 -0.381047,0 -0.923651,-0.506636 -1.205791,-1.12586 -0.282135,-0.61922 -0.882084,-1.222381 -1.33322,-1.340358 -1.683125,-0.440144 -3.812281,-8.444709 -4.822845,-18.131489 -0.529841,-5.078791 -0.574642,-5.216617 -1.802416,-5.544975 -0.692488,-0.1852 -1.909121,-0.799604 -2.703631,-1.365343 -0.794504,-0.565739 -1.493799,-0.953288 -1.553992,-0.861224 -0.06019,0.09206 -0.37033,1.216218 -0.689207,2.498121 -1.012787,4.071449 -2.752795,7.002331 -5.911226,9.956888 -4.560516,4.26614 -6.812931,5.428891 -10.483872,5.41203 -4.135676,-0.01902 -5.965157,-1.001874 -10.76599,-5.78395 -3.480327,-3.466731 -4.138827,-4.385953 -5.011074,-6.995138 -0.552315,-1.652163 -1.004209,-3.370351 -1.004209,-3.818196 0,-1.277796 -0.799016,-1.455892 -2.204209,-0.491309 -0.710539,0.487743 -1.868745,1.236365 -2.573792,1.663597 -0.705046,0.427233 -1.281903,1.10074 -1.281903,1.496675 0,0.507755 -0.274722,0.632692 -0.932292,0.423988 -0.64573,-0.204945 -0.932293,-0.08377 -0.932293,0.394244 0,0.577122 -0.234772,0.601525 -1.433613,0.149013 -1.254892,-0.47367 -1.400172,-0.708333 -1.165366,-1.882365 0.147535,-0.737677 0.268246,-2.154077 0.268246,-3.147551 v -1.806318 h 2.961017 c 3.465449,0 5.696405,-1.178516 6.828059,-3.606962 0.596171,-1.279334 0.946966,-1.501956 2.380248,-1.510561 l 1.681029,-0.01009 0.306258,3.612635 c 0.928207,10.949156 5.355382,16.897809 12.575882,16.897809 4.85884,0 8.249888,-2.292871 10.581814,-7.154947 1.202807,-2.507858 1.852535,-5.334188 2.561204,-11.141301 0.261429,-2.142232 0.320471,-2.214196 1.816605,-2.214196 1.285973,0 1.646047,0.240578 2.138116,1.428534 1.009454,2.437042 3.427692,3.699077 7.087939,3.699077 h 3.154819 l 4.66e-4,1.74805 c 9.32e-4,3.221384 1.432477,14.292926 2.358701,18.243522 0.977276,4.16796 2.462046,7.977216 3.109448,7.977216 0.21639,0 1.084747,-0.577136 1.929688,-1.282523 l 1.536256,-1.282523 -0.909415,-2.330112 c -1.395344,-3.57516 -3.36368,-16.261475 -3.36368,-21.679579 v -1.304054 l 4.462444,-0.161534 4.462448,-0.161534 1.789196,-1.918761 c 2.208028,-2.367912 2.493454,-4.127942 2.265746,-13.971188 -0.137135,-5.92808 -0.29803,-7.184197 -1.093099,-8.534014 -1.732233,-2.940873 -3.026367,-3.526293 -8.190385,-3.705042 L 81.954453,36.16723 v -4.870508 c 0,-5.170141 -0.893136,-10.56729 -2.286709,-13.818357 -4.114726,-9.5992702 -15.9267,-9.5787112 -20.24118,0.03523 -0.680256,1.515809 -1.464846,4.412303 -1.743541,6.436653 -0.27869,2.024349 -0.595861,4.314641 -0.704818,5.089536 -0.185988,1.322709 -0.376269,1.442607 -3.110297,1.959839 -1.949178,0.36875 -3.528785,0.407504 -4.77678,0.117195 -1.025522,-0.238558 -2.831357,-0.438746 -4.012966,-0.444862 l -2.14838,-0.01112 -0.519841,-4.544928 C 42.124029,23.616197 41.435109,20.228117 40.879008,18.586841 39.041521,13.163677 34.306378,9.5909497 29.903241,10.30548 23.003854,11.425097 19.500833,18.549487 19.493528,31.476592 l -0.0027,4.778001 -3.845709,7.46e-4 c -4.499916,8.39e-4 -6.5385916,0.805157 -8.1482709,3.214699 -1.0126123,1.515789 -1.0580462,1.986931 -1.0563788,10.954441 0.00158,8.528037 0.085024,9.507127 0.9280324,10.889768 1.5933152,2.613246 3.4013943,3.371577 8.0435443,3.373558 l 4.078782,0.0017 v 1.83424 c 0,1.008834 -0.204574,2.372313 -0.454609,3.029952 -0.381223,1.00269 -0.749416,1.195712 -2.28086,1.195712 -1.193318,0 -1.919242,-0.242331 -2.094567,-0.699219 -0.147574,-0.384571 -0.702788,-0.69922 -1.233809,-0.69922 -2.607343,0 -9.6966503,-5.616077 -11.0141196,-8.725274 -0.4581788,-1.081292 -0.6356011,-3.859217 -0.6356011,-9.9517 0,-9.858175 0.1560503,-10.393524 4.0731927,-13.973571 2.9299558,-2.677815 4.782769,-3.758303 7.114322,-4.148793 l 1.631513,-0.273248 0.320252,-3.856515 c 0.753472,-9.07342 2.221251,-12.673498 6.95331,-17.054659 1.795381,-1.662248 4.215224,-3.4825891 5.377429,-4.0452027 4.346603,-2.1041547 9.185444,-0.3519648 14.38806,5.2100527 2.719847,2.907735 4.277181,6.284767 5.003547,10.850032 l 0.568191,3.571135 1.792885,0.482773 c 3.011697,0.810966 3.22818,0.608609 4.12637,-3.857062 1.05178,-5.229336 2.671672,-8.35688 6.030821,-11.64381 4.813913,-4.7104106 8.912413,-6.2791901 13.307395,-5.0936609 2.362435,0.6372582 6.718271,3.9292889 9.343911,7.0618919 2.971404,3.545125 4.524096,8.614369 4.917486,16.05463 l 0.123044,2.327128 2.243423,0.318753 c 2.558081,0.36346 3.810188,1.088832 6.951465,4.027129 l 2.2257,2.081881 V 50.703694 62.69451 l -1.514976,1.593597 c -2.423453,2.549219 -4.700583,4.080809 -6.672555,4.487932 -1.760948,0.363557 -1.840472,0.459597 -1.980419,2.391821 -0.214945,2.967693 1.203991,11.898253 2.510357,15.799829 l 1.138176,3.399252 -1.518295,1.520154 c -2.190949,2.193639 -5.72391,4.966516 -6.327901,4.966516 -0.285048,0 -0.742799,-0.419532 -1.01722,-0.932293 z M 47.594955,74.495146 C 46.77206,73.9934 45.65518,72.713353 45.113,71.65059 43.971038,69.41216 42.817949,64.385115 42.806245,61.593989 l -0.0081,-1.930173 3.612635,-0.291635 c 1.986949,-0.160397 4.032167,-0.290228 4.544928,-0.288512 1.317483,0.0042 8.623709,0.560503 8.623709,0.656371 0,0.04368 -0.218119,1.818927 -0.484704,3.945002 -0.989288,7.889739 -3.544367,11.72749 -7.805617,11.72411 -1.358813,-9.32e-4 -2.769195,-0.350034 -3.694147,-0.914006 z m 5.998831,-5.610301 c 1.291855,-4.134551 1.163389,-4.888552 -0.940283,-5.518829 -1.349228,-0.404237 -2.178363,-0.406298 -3.320193,-0.0083 -1.489266,0.519161 -1.516269,0.577961 -1.25982,2.743271 0.144137,1.217011 0.584401,2.984195 0.97836,3.927079 0.641847,1.536153 0.873484,1.699067 2.228586,1.567436 1.388343,-0.134856 1.577938,-0.357021 2.31335,-2.710702 z m -29.4334,-37.641326 c 0.0177,-10.957495 2.928402,-17.121374 7.6654,-16.232707 3.310051,0.620969 5.277386,4.7115 6.094989,12.672844 l 0.292649,2.849652 -3.482339,0.223483 c -4.080983,0.261901 -6.094167,1.242132 -7.743476,3.770344 -0.622393,0.954058 -1.50936,1.727458 -1.981123,1.727458 -0.775689,0 -0.85345,-0.460541 -0.8461,-5.011074 z m 6.75103,-3.573138 c 2.182296,-0.755705 2.478614,-1.852438 1.522006,-5.633255 -0.729846,-2.88458 -1.735132,-3.063038 -2.493792,-0.442698 -0.581207,2.007439 -1.321952,6.740431 -1.053079,6.728657 0.08815,-0.0039 0.999343,-0.297577 2.024865,-0.652704 z m 44.012402,6.872706 c -2.021556,-3.070211 -3.084715,-3.542138 -8.524784,-3.784084 l -4.875416,-0.216833 0.234327,-2.621009 c 0.31677,-3.543174 1.404602,-7.878569 2.407958,-9.59655 2.708787,-4.638083 8.392809,-4.494918 10.825045,0.272655 1.451948,2.846057 2.284872,7.522489 2.293948,12.879326 0.0091,5.39319 -0.442694,5.980012 -2.361078,3.066495 z m -2.538116,-9.102545 c -0.183317,-1.332878 -0.5912,-3.16833 -0.906403,-4.078782 -0.478882,-1.383216 -0.794967,-1.655366 -1.922603,-1.655366 -1.130741,0 -1.435265,0.264472 -1.878584,1.631513 -0.290997,0.897332 -0.67209,2.491336 -0.846867,3.542232 l -0.317781,1.91072 2.476347,0.47531 c 3.988274,0.765509 3.768514,0.883652 3.395891,-1.825627 z"
         id="path11092" />
      <path
         style="fill:#767676;fill-opacity:1;stroke-width:0.466146"
         d="m 82.975747,95.697455 c -0.339405,-0.744921 -0.776693,-1.060279 -1.229354,-0.886578 -0.457149,0.175425 -0.895313,-0.153446 -1.254367,-0.941481 -0.303494,-0.666095 -0.809682,-1.211081 -1.124867,-1.211081 -0.774633,0 -2.247796,-3.274399 -3.203322,-7.120028 -0.830826,-3.343762 -2.10948,-12.15145 -2.124774,-14.635936 -0.0083,-1.342577 -0.273433,-1.610686 -2.882589,-2.914493 -1.580423,-0.789745 -2.905953,-1.382977 -2.945627,-1.318285 -0.03967,0.06469 -0.434387,1.460218 -0.877138,3.101179 -1.117582,4.142038 -2.680575,6.591437 -6.287178,9.852756 -4.07977,3.689186 -6.337201,4.760707 -10.02964,4.760707 -3.672143,0 -5.776434,-1.036542 -9.860851,-4.857316 -3.563326,-3.333315 -5.210328,-5.920974 -6.298274,-9.895417 -0.428221,-1.564365 -0.966916,-2.836814 -1.197101,-2.827673 -1.168216,0.04638 -4.828083,2.368159 -5.273296,3.345296 -0.289044,0.634383 -0.733473,0.980851 -1.026151,0.799963 -0.283954,-0.17549 -0.650687,-0.101601 -0.814962,0.1642 -0.164274,0.265801 -0.892212,0.369813 -1.61764,0.231139 -1.071906,-0.204909 -1.269331,-0.437041 -1.054007,-1.239311 0.145724,-0.542949 0.267817,-1.848798 0.271318,-2.901893 l 0.0064,-1.914719 2.80857,-0.293552 c 1.544713,-0.161454 3.414085,-0.60668 4.154159,-0.989386 1.511122,-0.781429 3.292493,-2.841321 3.292493,-3.807275 0,-0.431651 0.599806,-0.636355 1.864586,-0.636355 h 1.864586 v 2.117312 c 0,1.164522 0.324096,3.686361 0.720214,5.604087 1.825965,8.840067 5.585371,12.755744 12.268803,12.778809 7.372149,0.02545 11.650375,-5.747227 12.861149,-17.353719 l 0.328242,-3.146489 h 1.594407 c 0.876929,0 1.594412,0.229824 1.594412,0.510724 0,0.936983 1.921106,3.223734 3.312917,3.943469 0.756155,0.391022 2.704391,0.835106 4.32941,0.986855 l 2.954576,0.275903 0.312588,4.250258 c 0.719451,9.782368 2.817031,19.928502 4.632788,22.409073 0.653364,0.892586 0.7019,0.884881 2.351503,-0.373332 1.881927,-1.435414 1.956599,-1.685232 1.038603,-3.474628 -1.214489,-2.367325 -2.558902,-10.111407 -3.342452,-19.253205 l -0.303755,-3.543916 3.986158,-0.248689 c 4.858169,-0.303089 6.774273,-1.309382 8.233689,-4.324138 0.936628,-1.934815 0.991871,-2.644449 0.84883,-10.904028 -0.169682,-9.798032 -0.296805,-10.234519 -3.644352,-12.512839 -1.323063,-0.90047 -2.149192,-1.04883 -5.840298,-1.04883 h -4.29925 l -0.06777,-5.193722 C 81.889761,22.069189 79.980001,15.920332 76.335817,12.801045 70.839871,8.0967195 63.234799,9.9228567 59.759304,16.781413 58.559099,19.1499 57.489236,23.487949 57.012602,27.918621 l -0.281679,2.618469 -2.421458,0.349569 c -2.792898,0.40319 -3.083787,0.402379 -7.819602,-0.02179 L 42.956305,30.548382 42.425274,26.059681 C 42.133206,23.590895 41.580363,20.52215 41.196734,19.240248 38.759615,11.096578 31.262093,7.7377839 25.437531,12.180326 21.540349,15.152805 19.490828,21.681363 19.490828,31.122991 V 36.1646 l -4.395326,0.161533 c -4.908307,0.180386 -6.2514365,0.806174 -7.9549739,3.706358 -0.788972,1.343185 -0.9555061,2.626564 -1.1001104,8.477895 -0.2397421,9.70102 0.069001,11.667645 2.1876921,13.935108 1.9387132,2.07485 3.8313232,2.681945 8.4142322,2.699058 l 2.978346,0.01114 -0.283528,2.393947 c -0.15594,1.316672 -0.393987,2.504409 -0.528993,2.639414 -0.558025,0.558024 -3.659227,0.07199 -4.192305,-0.657033 C 14.304004,69.105528 13.75249,68.86096 13.390276,68.988535 12.349336,69.355164 8.3978472,67.145024 5.8423851,64.766866 2.1128365,61.29606 1.7994586,60.217164 1.7874998,50.806698 1.7800301,44.928689 1.9540548,42.327576 2.4311866,41.185639 3.9187142,37.625484 9.2126708,33.304412 12.787133,32.732833 l 1.911531,-0.305666 0.30188,-4.294601 c 0.585796,-8.333633 2.424735,-12.704848 7.176647,-17.059112 3.791505,-3.474226 5.720797,-4.4195834 8.985597,-4.402963 3.202116,0.016301 6.058613,1.5653126 9.796473,5.312399 3.16315,3.170958 4.460792,5.769023 5.537364,11.086595 0.790147,3.90282 0.884615,4.088672 2.216747,4.361122 0.765287,0.156518 1.604425,0.416215 1.864749,0.577105 0.993172,0.613815 1.940069,-0.971864 2.615571,-4.380054 1.127636,-5.689378 2.323745,-7.908132 6.321478,-11.726207 4.38399,-4.1869711 6.367308,-5.2117755 10.086402,-5.2117755 3.67646,0 5.678452,1.0150601 9.887433,5.0131815 4.79275,4.552643 6.331993,8.192913 7.033287,16.633546 l 0.326699,3.932086 1.945509,0.331152 c 2.648873,0.450875 4.546047,1.502727 7.217625,4.001679 l 2.257454,2.111582 v 11.9884 11.988406 l -2.558873,2.420074 c -2.551071,2.412694 -4.976794,3.775063 -6.721571,3.775063 -0.505867,0 -1.022758,0.166662 -1.14865,0.370358 -0.280989,0.454652 0.836131,10.284138 1.58679,13.962112 0.301051,1.475032 0.95857,3.64892 1.461159,4.830863 l 0.913797,2.148986 -1.544325,1.54466 c -1.888135,1.888532 -5.927402,5.111809 -6.405901,5.111809 -0.192206,0 -0.58652,-0.52028 -0.876258,-1.156178 z M 47.824992,74.686388 c -0.696375,-0.377952 -1.78205,-1.575706 -2.41261,-2.661683 -1.181297,-2.034468 -2.614231,-7.933575 -2.614231,-10.762268 v -1.601805 l 3.845708,-0.278588 c 4.386387,-0.317758 3.997187,-0.317995 9.071219,0.0056 l 3.827072,0.244079 -0.192257,1.246993 c -0.105746,0.685846 -0.308449,2.448817 -0.450452,3.917709 -0.373229,3.860672 -1.878211,7.511433 -3.787598,9.187896 -1.332125,1.169622 -2.020642,1.423201 -3.822741,1.407898 -1.208886,-0.01026 -2.767736,-0.327897 -3.46411,-0.705844 z m 5.502591,-4.662737 c 0.381033,-0.911941 0.737421,-2.727465 0.791974,-4.034498 0.09488,-2.273494 0.0386,-2.393765 -1.299257,-2.776699 -1.692406,-0.484415 -4.7443,-0.06148 -5.023197,0.696119 -0.293713,0.797847 0.926086,6.349759 1.563956,7.118346 0.298893,0.360145 1.157759,0.654805 1.90859,0.654805 1.123726,0 1.487665,-0.293225 2.057934,-1.658073 z M 24.152292,31.634135 c 0,-9.006895 2.047134,-15.262562 5.351462,-16.353088 4.270267,-1.409316 7.086061,2.319578 8.148227,10.790517 0.266588,2.126077 0.484705,4.00147 0.484705,4.16754 0,0.16607 -1.687227,0.399618 -3.749394,0.518995 -4.201147,0.2432 -5.507645,0.911483 -7.399683,3.784988 -0.619811,0.941328 -1.511316,1.711506 -1.981123,1.711506 -0.770709,0 -0.854194,-0.45158 -0.854194,-4.620458 z m 7.57488,-4.094164 c 1.157318,-0.233555 1.278421,-0.445574 1.246079,-2.181551 -0.05034,-2.701921 -1.0149,-5.61718 -1.91595,-5.790706 -0.590187,-0.11366 -0.923462,0.578667 -1.501081,3.118263 -1.006253,4.424158 -0.987156,5.838536 0.07329,5.428281 0.448666,-0.173575 1.392613,-0.432004 2.097659,-0.574287 z m 43.494826,7.072097 c -1.508674,-2.801441 -3.519243,-3.677222 -8.899151,-3.876371 l -4.680497,-0.173259 0.326969,-3.423063 c 0.704995,-7.380611 2.902041,-11.412707 6.596312,-12.105756 5.39449,-1.012013 8.700256,5.222069 8.719265,16.442973 0.0089,5.286711 -0.49328,6.050078 -2.062898,3.135476 z m -2.782284,-9.099479 c -0.559166,-4.215185 -1.280747,-5.787929 -2.732033,-5.9547 -1.097724,-0.126143 -1.396454,0.100689 -1.983766,1.506332 -0.380291,0.910162 -0.742687,2.655116 -0.805328,3.877677 l -0.113894,2.222839 2.330733,0.276377 c 1.281902,0.152007 2.619962,0.309331 2.973469,0.34961 0.506883,0.05775 0.576809,-0.423768 0.330819,-2.278135 z"
         id="path11090" />
      <path
         style="fill:#606060;fill-opacity:1;stroke-width:0.466146"
         d="m 82.975747,95.697455 c -0.304048,-0.667317 -0.791437,-1.054624 -1.152696,-0.915992 -0.354588,0.136068 -0.90004,-0.272043 -1.258316,-0.941486 -0.347824,-0.649915 -0.885776,-1.181662 -1.195455,-1.181662 -1.494163,0 -3.600497,-7.571822 -4.795519,-17.238889 L 73.79689,69.13498 71.233085,67.874091 c -1.410093,-0.693491 -2.70021,-1.274184 -2.866922,-1.290434 -0.166713,-0.01627 -0.562527,1.071727 -0.879581,2.417725 -0.916551,3.891022 -2.682878,6.891654 -5.875725,9.981655 -3.865981,3.74145 -6.937588,5.284642 -10.518674,5.284642 -3.542641,0 -6.024369,-1.189816 -9.911982,-4.752107 -4.086203,-3.744266 -5.130119,-5.644666 -7.039112,-12.814362 -0.212319,-0.797418 -5.3954,2.110166 -5.676281,3.184256 -0.124262,0.47518 -0.603518,0.863965 -1.065012,0.863965 -0.461494,0 -0.913365,0.222856 -1.004157,0.49523 -0.110504,0.331509 -0.547133,0.350239 -1.320748,0.05666 -1.079674,-0.409733 -1.145487,-0.622231 -1.000794,-3.231365 l 0.154878,-2.79279 2.994026,-0.240336 c 3.34744,-0.268696 5.698149,-1.652871 6.963901,-4.100564 0.580005,-1.121609 1.008528,-1.374345 2.330242,-1.374345 h 1.619542 l 0.0081,2.447269 c 0.0045,1.345998 0.307122,3.858299 0.6726,5.582892 1.794261,8.466627 5.75035,12.45286 12.371407,12.46567 7.208797,0.01394 11.326776,-5.240479 12.669423,-16.165834 l 0.532126,-4.329997 h 1.55679 c 1.116295,0 1.556789,0.211034 1.556789,0.745835 0,1.204196 2.920464,3.776989 4.916409,4.331129 1.013496,0.281376 2.689293,0.512766 3.723998,0.514193 l 1.881283,0.0028 0.575649,6.616776 c 0.316607,3.639224 0.995936,8.679172 1.509625,11.199877 0.943974,4.632177 2.831937,9.685988 3.618415,9.685988 0.235231,0 1.152505,-0.576857 2.038384,-1.281903 l 1.61068,-1.281903 -0.879259,-2.013813 c -1.214335,-2.781249 -2.138102,-7.497505 -2.93009,-14.959442 -0.369752,-3.483736 -0.674527,-6.674854 -0.677268,-7.091369 -0.0042,-0.622628 0.686027,-0.793568 3.880767,-0.96125 4.782555,-0.25102 6.638289,-1.190492 8.136143,-4.118945 1.019505,-1.993238 1.061388,-2.488649 0.932293,-11.027664 -0.149982,-9.920664 -0.268603,-10.333418 -3.626526,-12.618799 -1.326135,-0.90256 -2.147392,-1.04883 -5.888851,-1.04883 H 81.977761 L 82.235535,34.96573 C 82.650508,32.890847 81.563547,23.078156 80.558172,19.823129 78.47673,13.084203 73.659209,9.4710069 67.90588,10.333771 61.968051,11.224205 58.459786,16.421158 57.236646,26.13862 l -0.555512,4.413345 -2.396561,0.317562 c -2.77937,0.368286 -3.095898,0.367713 -7.776916,-0.01406 L 42.991893,30.56872 42.446395,26.06985 C 41.746785,20.299973 40.833307,17.30918 38.924722,14.539639 36.4758,10.986016 32.518102,9.4935414 28.4491,10.58921 c -5.741966,1.546151 -8.786706,8.340856 -9.059727,20.217877 l -0.125224,5.447506 h -3.872054 c -4.475264,0 -5.9534644,0.583315 -7.8804421,3.109713 L 6.2056537,41.07656 v 9.359215 c 0,8.808542 0.059816,9.455208 1.0166323,10.990727 1.607707,2.580079 3.502369,3.424093 8.189556,3.648188 4.477187,0.214059 4.337535,0.0862 3.779791,3.460546 -0.281217,1.701355 -0.342009,1.748049 -2.27573,1.748049 -1.336024,0 -2.074681,-0.229027 -2.255111,-0.69922 -0.147574,-0.384571 -0.733086,-0.69922 -1.301138,-0.69922 -2.631478,0 -7.3548315,-3.337921 -9.6705635,-6.834038 l -1.4456817,-2.182581 0.00174,-9.126472 C 2.2467088,42.585868 2.3414298,41.460238 3.1358431,40.157439 5.233244,36.7178 9.7204467,33.377598 13.017957,32.801351 l 1.684695,-0.294404 0.32193,-4.069544 c 0.389011,-4.917503 1.3494,-9.307807 2.549421,-11.654364 2.11912,-4.143789 7.927744,-9.0986764 11.645705,-9.9340468 3.749357,-0.8424246 7.363406,0.7837158 11.846841,5.3304818 2.894458,2.935344 4.385456,5.949759 5.374058,10.864961 l 0.800269,3.978836 1.857419,0.643232 c 2.525022,0.874428 3.399465,0.50472 3.729652,-1.576868 0.639175,-4.029578 1.758243,-7.909775 2.793247,-9.685189 1.40697,-2.413469 6.646032,-7.3369177 9.217613,-8.6623138 2.682621,-1.3826313 6.842904,-1.3826313 9.525526,0 2.802496,1.4444116 7.656959,6.1421518 9.114627,8.8203688 1.638029,3.0096 2.574904,6.745561 2.955321,11.784905 l 0.310859,4.117902 1.91651,0.312144 c 2.628479,0.428102 6.074247,2.365348 8.001376,4.498448 l 1.60655,1.778258 v 11.771069 11.771065 l -2.512873,2.387052 c -2.180284,2.071117 -4.198106,3.173413 -7.659565,4.184271 -0.465983,0.136086 -0.542054,0.834602 -0.311684,2.862041 0.801618,7.054847 1.696396,12.044521 2.692481,15.014461 l 1.09143,3.254238 -2.360188,2.274007 c -2.143281,2.06502 -4.992396,4.281271 -5.503814,4.281271 -0.111554,0 -0.43988,-0.52028 -0.729618,-1.156178 z M 47.851843,74.727231 C 45.423994,73.356094 43.597356,68.895096 43.005869,62.89243 l -0.31796,-3.226792 3.900829,-0.269982 c 4.67253,-0.323389 3.932714,-0.322951 8.813248,-0.0053 l 3.980131,0.259085 -0.327486,3.428479 c -0.472258,4.944103 -1.601045,8.393876 -3.382639,10.33793 -1.33447,1.456158 -1.859206,1.694401 -4.056793,1.841861 -1.661341,0.111479 -2.947658,-0.06985 -3.763356,-0.530521 z m 5.501066,-4.764189 c 0.394961,-0.945275 0.826114,-2.780727 0.958118,-4.078781 l 0.240009,-2.3601 -1.878472,-0.573826 c -1.559255,-0.476309 -2.161792,-0.455444 -3.545711,0.122792 -1.823115,0.761749 -1.859191,0.882569 -1.178568,3.947133 0.890457,4.009353 1.322416,4.661464 3.087769,4.661464 1.401973,0 1.687129,-0.211532 2.316855,-1.718682 z M 24.292004,30.078153 c 0.394145,-8.952574 1.77718,-13.122848 4.832978,-14.572919 1.778406,-0.843909 3.637649,-0.540227 5.16123,0.843017 1.252726,1.137337 2.727087,4.8951 3.107963,7.921388 0.152,1.207733 0.394101,3.139825 0.538,4.293538 l 0.261635,2.097659 h -3.073486 c -4.494709,0 -7.512715,1.581982 -8.670526,4.544928 -0.249632,0.638831 -0.804639,1.048829 -1.419781,1.048829 -0.998685,0 -1.006908,-0.06881 -0.738013,-6.17644 z m 8.78273,-5.084194 c -0.236669,-2.862039 -1.104131,-5.250395 -1.967339,-5.416615 -0.89313,-0.171981 -1.822429,2.609319 -2.177606,6.517359 l -0.241672,2.659138 2.277016,-0.867671 2.277015,-0.867671 z m 41.967639,9.353362 C 73.48288,31.616906 71.167959,30.684027 65.919845,30.671073 l -4.147869,-0.01024 0.281655,-3.652486 c 0.685892,-8.894432 4.280264,-13.350519 9.394207,-11.64637 3.672437,1.223787 5.845151,7.358978 5.845151,16.505228 0,5.002686 -0.497015,5.55038 -2.250616,2.480113 z m -2.410849,-7.392713 c 0,-2.28356 -0.956295,-6.009206 -1.814461,-7.068998 -0.580408,-0.71677 -1.089706,-0.907209 -1.812601,-0.677771 -1.087408,0.34513 -1.80126,2.215694 -2.280496,5.975776 l -0.282205,2.214196 2.046052,0.0071 c 1.125329,0.0039 2.360701,0.210481 2.745272,0.45901 1.125827,0.727567 1.398439,0.550299 1.398439,-0.909349 z"
         id="path11088" />
      <path
         style="fill:#494949;fill-opacity:1;stroke-width:0.466146"
         d="m 82.896036,95.472553 c -0.269311,-0.503215 -0.763743,-0.809757 -1.098735,-0.681208 -0.344086,0.132036 -0.846261,-0.286824 -1.154225,-0.962737 -0.29983,-0.658049 -0.882042,-1.325739 -1.293808,-1.483749 -1.691538,-0.649104 -3.418094,-6.92599 -4.754992,-17.286757 l -0.797386,-6.179624 -2.857809,-1.349163 -2.857808,-1.349163 -0.755111,3.05993 c -0.928433,3.762272 -2.572714,6.639734 -5.31984,9.309639 -4.543996,4.416258 -7.969352,5.998014 -12.071972,5.574585 -6.064887,-0.625951 -13.204692,-7.644513 -15.036458,-14.781122 -0.295024,-1.149419 -0.620018,-2.340768 -0.72221,-2.647451 -0.126305,-0.379042 -1.089181,-0.106174 -3.006937,0.852139 -2.067149,1.032967 -2.821135,1.663714 -2.821135,2.360016 0,0.720779 -0.225154,0.891398 -0.932292,0.706477 -0.605927,-0.158452 -0.932293,-0.01431 -0.932293,0.41178 0,0.782599 -0.236575,0.811244 -1.429085,0.173034 -0.733091,-0.392342 -0.901648,-0.990408 -0.901648,-3.199205 v -2.71666 l 3.085986,-0.247715 c 3.46734,-0.278322 4.905154,-1.089967 6.664652,-3.762175 0.924064,-1.403408 1.406569,-1.711508 2.680343,-1.711508 h 1.553413 l 0.0081,2.447269 c 0.0045,1.345998 0.307122,3.858299 0.6726,5.582892 1.77836,8.391592 5.814203,12.538552 12.202587,12.538552 7.799428,0 11.73362,-5.329094 13.033987,-17.655297 0.305149,-2.89249 0.317907,-2.913416 1.776461,-2.913416 1.185331,0 1.565473,0.255309 1.968009,1.321754 0.274402,0.726965 1.268837,1.909009 2.209861,2.626763 1.370107,1.045031 2.340069,1.350021 4.868993,1.53096 l 3.15804,0.22596 0.570791,6.560932 c 0.313931,3.608519 0.997843,8.670213 1.519796,11.248217 0.907406,4.48177 2.784027,9.581813 3.525755,9.581813 0.192686,0 1.129552,-0.539994 2.081922,-1.199987 l 1.73158,-1.199982 -0.883212,-1.99665 c -1.431677,-3.236529 -2.492985,-9.327283 -3.47793,-19.959534 l -0.291486,-3.146488 3.416667,-0.01026 c 4.116959,-0.01235 6.745387,-1.054927 8.357316,-3.315006 1.07575,-1.508305 1.124737,-1.922565 1.260461,-10.659152 0.136058,-8.758186 0.101619,-9.164603 -0.94391,-11.138413 -1.567119,-2.95848 -3.375902,-3.778255 -8.336526,-3.778255 H 82.54039 L 82.199879,30.54952 C 81.645785,21.26583 79.925914,15.990609 76.420871,12.824012 74.199445,10.817087 71.380755,9.949884 68.271913,10.316891 c -6.147587,0.725738 -9.821408,5.851861 -11.014757,15.369003 -0.261037,2.081812 -0.474612,4.026135 -0.474612,4.320717 0,0.294583 -1.101271,0.6807 -2.447268,0.858039 -2.836352,0.373696 -3.133031,0.373271 -7.868497,-0.01126 L 42.910138,30.564591 42.58788,26.870293 C 42.182378,22.2217 40.992781,17.887887 39.355317,15.093767 36.002417,9.3724757 28.393083,8.5227671 24.005165,13.379667 21.143502,16.547186 19.796093,21.513579 19.22184,31.010446 l -0.317101,5.244147 H 15.0714 c -3.207942,0 -4.084755,0.171113 -5.3743881,1.04883 -3.3567619,2.284592 -3.4760966,2.699345 -3.6307356,12.618794 -0.1333247,8.552222 -0.092838,9.031574 0.932293,11.038139 1.5387089,3.011828 4.0558247,4.195318 8.9228497,4.195318 h 3.691392 l -0.288935,1.748049 c -0.158914,0.961427 -0.291243,2.11514 -0.294064,2.563806 -0.0041,0.655299 -0.417738,0.815756 -2.10279,0.815756 -1.482217,0 -2.097659,-0.190514 -2.097659,-0.649347 0,-0.71608 -0.980632,-1.215239 -2.387428,-1.215239 -2.5823816,0 -7.7672098,-4.246231 -9.2958872,-7.613076 C 2.3911469,59.142986 2.2624069,57.700519 2.2536463,50.806698 2.2420005,41.64249 2.4538852,40.785576 5.5664709,37.408819 7.736584,35.054524 10.097742,33.650492 12.841,33.083114 l 1.75529,-0.36304 0.56447,-5.108401 c 1.016807,-9.202004 3.262418,-13.680568 9.091213,-18.1311842 2.76893,-2.1142352 4.055927,-2.5931224 6.968951,-2.5931224 3.083309,0 5.046901,0.9902904 8.65373,4.3643026 4.315425,4.036868 6.006109,7.461342 6.87741,13.930167 0.257155,1.909203 0.469803,2.253412 1.551603,2.511544 0.689486,0.164521 1.502404,0.494527 1.806494,0.733347 0.447217,0.351228 2.41235,-0.197099 2.493329,-0.695707 1.445175,-8.898419 2.90303,-12.13347 7.271899,-16.136747 3.940094,-3.6103805 6.205915,-4.7069066 9.726183,-4.7069066 3.37773,0 5.636573,1.0299445 9.174429,4.1831826 4.997827,4.454492 6.581867,7.962856 7.552444,16.727311 l 0.549345,4.960635 1.850186,0.263114 c 2.616089,0.372033 5.615643,2.048999 7.723105,4.317766 l 1.806877,1.94517 9.33e-4,11.420589 9.32e-4,11.420588 -1.981244,2.147867 c -2.159153,2.340536 -5.229496,4.14511 -7.052772,4.14511 -0.636039,0 -1.291305,0.218236 -1.456158,0.484974 -0.780045,1.262138 1.504171,15.914436 3.019524,19.369005 l 0.836659,1.907346 -1.499953,1.46659 c -2.285012,2.234193 -5.54001,4.731284 -6.173904,4.736346 -0.311456,0.0023 -0.786627,-0.407193 -1.055939,-0.910407 z M 47.912946,74.609478 c -0.633903,-0.440783 -1.516937,-1.227405 -1.962299,-1.748049 -1.15624,-1.351699 -2.563686,-6.101517 -2.940199,-9.922533 l -0.322539,-3.273258 3.900829,-0.269982 c 4.726109,-0.3271 4.014839,-0.326895 8.67883,-0.0023 l 3.845709,0.26748 -0.0073,2.397913 c -0.0159,5.231515 -2.010182,10.511519 -4.647131,12.303521 -1.876258,1.27506 -4.903474,1.389475 -6.545919,0.247412 z m 4.823401,-3.143463 c 0.576189,-0.576194 1.153241,-2.495333 1.916934,-6.375275 0.215937,-1.097076 -0.224268,-1.574951 -2.015795,-2.188297 -2.215473,-0.75849 -5.177871,0.116784 -5.177871,1.52986 0,1.905919 1.435256,6.554607 2.202239,7.132885 1.028641,0.775555 2.238795,0.73652 3.074493,-0.09917 z M 24.276141,30.078153 c 0.38691,-9.332636 2.252313,-14.063612 5.892968,-14.945559 1.655679,-0.401087 4.087432,0.806912 5.153619,2.560116 0.97869,1.609327 2.118748,6.351818 2.529133,10.520857 l 0.2409,2.447269 h -3.093889 c -4.015255,0 -6.744272,1.259027 -8.180118,3.773884 -0.627089,1.098333 -1.38248,1.814108 -1.916811,1.816283 -0.833689,0.0034 -0.867875,-0.333814 -0.625802,-6.17285 z m 7.684105,-2.286661 c 1.135878,-0.328025 1.507017,-0.694472 1.483174,-1.464422 -0.06027,-1.946269 -1.600966,-7.022192 -2.189026,-7.211897 -0.892021,-0.287763 -2.004431,2.865145 -2.314099,6.558862 -0.259469,3.094947 -0.224966,3.258582 0.615042,2.916924 0.489463,-0.19908 1.571672,-0.55884 2.404909,-0.799467 z m 43.235084,6.725642 c -1.523698,-2.835506 -3.864676,-3.839544 -8.97332,-3.84863 l -4.311854,-0.0077 v -2.012047 c 0,-5.19079 2.10487,-11.192003 4.468745,-12.740873 1.557284,-1.020371 4.780598,-1.005052 6.360634,0.03023 2.673522,1.751759 4.531876,8.199883 4.545361,15.771521 0.009,5.082017 -0.499876,5.765789 -2.089566,2.807469 z m -2.691008,-8.867373 c -0.141177,-1.474188 -0.537402,-3.519405 -0.880499,-4.544928 -0.503,-1.503481 -0.87409,-1.893346 -1.916142,-2.013091 -1.108944,-0.127432 -1.396132,0.09992 -2.023798,1.602145 -0.402308,0.962857 -0.843007,2.831328 -0.979327,4.152157 l -0.24786,2.401509 2.504731,0.480036 c 4.066168,0.779289 3.82979,0.917922 3.542895,-2.077828 z"
         id="path11086" />
      <path
         style="fill:#333333;fill-opacity:1;stroke-width:0.466146"
         d="m 83.119819,95.455194 c -0.162904,-0.51327 -0.705293,-0.932293 -1.206774,-0.932293 -0.51924,0 -1.139168,-0.501052 -1.441846,-1.165366 -0.292041,-0.640952 -0.787592,-1.165367 -1.101234,-1.165367 -1.347131,0 -3.510545,-7.684387 -4.3964,-15.615906 -0.911759,-8.163427 -0.621107,-7.483776 -3.866484,-9.041405 -1.588045,-0.762186 -2.946736,-1.32641 -3.01932,-1.253831 -0.07258,0.07258 -0.450306,1.354169 -0.839394,2.847973 -1.047799,4.022769 -2.838375,6.949106 -6.144333,10.041671 -4.077457,3.814262 -6.151856,4.826872 -9.915247,4.840106 -3.750543,0.01319 -6.788748,-1.505569 -10.563939,-5.280764 -3.173345,-3.173343 -4.573279,-5.541409 -5.551412,-9.390511 -0.421878,-1.660152 -0.817236,-3.073923 -0.878576,-3.141706 -0.06134,-0.06779 -1.310545,0.425685 -2.776014,1.096596 -1.757643,0.804676 -2.812733,1.609762 -3.100062,2.365493 -0.239566,0.630104 -0.654922,1.010083 -0.923013,0.844392 -0.268091,-0.165688 -0.790228,-0.04996 -1.160303,0.257177 -1.369677,1.136731 -2.083176,0.179676 -2.083176,-2.794273 v -2.811506 h 2.345705 c 3.768707,0 6.857377,-1.767371 7.942744,-4.544928 0.317216,-0.811785 0.781191,-1.04883 2.052895,-1.04883 h 1.64305 l 0.0081,2.447269 c 0.0045,1.345998 0.307122,3.858299 0.6726,5.582892 1.779004,8.394636 5.848651,12.59682 12.199511,12.59682 7.634892,0 11.918945,-5.674037 13.022272,-17.247419 0.312924,-3.282403 0.358415,-3.379562 1.582297,-3.379562 0.935957,0 1.549997,0.440271 2.387038,1.711508 1.832767,2.783491 3.310964,3.597243 6.903168,3.800222 l 3.182629,0.179835 0.316219,4.891158 c 0.599786,9.277153 2.709015,19.157729 4.658901,21.824352 0.627806,0.858582 0.707848,0.845068 2.548162,-0.430271 1.871237,-1.296769 1.889552,-1.33688 1.210093,-2.650807 -1.423211,-2.75219 -2.754711,-10.10469 -3.717383,-20.527259 l -0.285217,-3.087996 4.178342,-0.199767 c 3.704079,-0.177094 4.374565,-0.349438 5.907129,-1.518379 2.752829,-2.099687 3.028308,-3.29009 3.028308,-13.08605 0,-7.691778 -0.102356,-8.857885 -0.9178,-10.456293 -1.485777,-2.912356 -3.347715,-3.757576 -8.277578,-3.757576 h -4.190796 l -0.32221,-5.508548 C 81.660124,20.995289 80.086604,16.135786 76.4299,12.832175 73.138659,9.858734 68.799357,9.3418839 64.676968,11.432294 60.42705,13.587375 58.1915,17.979821 57.187798,26.147146 l -0.541737,4.408189 -2.379025,0.307514 c -2.704591,0.349597 -2.49214,0.350138 -7.560033,-0.01928 L 42.924438,30.567855 42.624191,26.967639 C 41.775758,16.794197 38.017573,10.826565 32.101146,10.258071 25.876348,9.6599473 21.549884,14.223113 20.007367,23.013504 c -0.265679,1.514037 -0.624106,5.093388 -0.796504,7.954113 l -0.313452,5.20132 -4.24822,0.159364 c -4.9054913,0.184022 -6.2156104,0.847616 -7.7375431,3.919174 -0.8361907,1.687598 -0.9390675,2.813024 -0.9390675,10.272985 0,7.761027 0.077211,8.530881 1.0488296,10.45766 1.5081725,2.990801 4.035701,4.177554 8.897286,4.177554 h 3.688668 l -0.291341,1.456707 c -0.160238,0.80119 -0.291342,1.954902 -0.291342,2.563806 0,0.996989 -0.203222,1.107098 -2.043292,1.107098 -1.65126,0 -2.090068,-0.17887 -2.287091,-0.932293 -0.165942,-0.634561 -0.635832,-0.932293 -1.471377,-0.932293 -2.846434,0 -7.8726878,-3.704247 -9.6205715,-7.090162 -0.7892118,-1.528825 -0.8925921,-2.772723 -0.8910518,-10.721369 0.0019,-9.82366 0.1060019,-10.266505 3.1922731,-13.580285 1.5047985,-1.615727 5.2151992,-3.569168 6.7793412,-3.569168 1.875883,0 2.612188,-1.157341 2.616119,-4.112078 0.0097,-7.306399 1.789148,-12.493875 5.731236,-16.70798 6.777789,-7.2454781 12.058815,-7.6465585 18.777638,-1.426113 3.996248,3.69982 5.909751,7.67479 6.962178,14.462717 0.168335,1.085725 0.580945,1.869744 1.064861,2.023391 0.434521,0.137964 1.237016,0.463657 1.783321,0.723763 1.355158,0.645214 2.92588,0.06291 3.159261,-1.17121 1.671522,-8.838947 3.225691,-12.211499 7.326447,-15.898432 6.788664,-6.1035936 12.99345,-5.8933363 19.582053,0.663563 4.236227,4.215842 5.975406,8.629443 6.704366,17.013987 0.178319,2.051045 0.564219,3.883284 0.857555,4.071644 0.293337,0.188359 1.162635,0.35029 1.931776,0.359847 2.198175,0.02731 4.952434,1.529974 7.108734,3.878366 l 1.981122,2.157608 v 11.122868 11.122865 l -1.281902,1.663575 c -1.738489,2.256106 -5.404843,4.594199 -7.683381,4.899819 l -1.87306,0.251229 0.317558,3.913752 c 0.453607,5.590439 1.539467,11.927168 2.563749,14.961199 l 0.881907,2.612294 -1.308361,1.587271 c -1.270114,1.540866 -5.405695,4.755827 -6.117687,4.755827 -0.193978,0 -0.485837,-0.419532 -0.648583,-0.932293 z M 48.858055,75.081689 c -2.482296,-0.907414 -4.509712,-4.449153 -5.39844,-9.430646 -1.121435,-6.285859 -1.276834,-5.980762 3.184244,-6.251695 4.662271,-0.283156 3.961438,-0.283156 8.623709,0 l 3.845709,0.233558 v 1.976554 c 0,5.464155 -2.164379,11.280623 -4.794373,12.884209 -1.425788,0.869344 -3.948246,1.140963 -5.460849,0.58802 z m 3.916632,-3.654015 c 0.757539,-0.757544 1.437736,-2.891641 1.939761,-6.085957 l 0.300436,-1.911615 -2.481428,-0.811635 c -1.682686,-0.55038 -2.536051,-0.647776 -2.651114,-0.302581 -0.09333,0.279982 -0.57832,0.509055 -1.077764,0.509055 -0.499441,0 -1.041512,0.347732 -1.204601,0.772731 -0.386461,1.007101 0.66728,6.153343 1.535976,7.501369 0.786999,1.221253 2.583831,1.383532 3.638734,0.328633 z M 24.282652,30.078153 c 0.437836,-10.015872 2.576357,-14.89338 6.529934,-14.89338 0.889588,0 2.043621,0.22809 2.564517,0.506865 2.165477,1.158928 3.952674,6.144046 4.405633,12.288856 l 0.197579,2.680342 -3.301376,0.0077 c -4.022658,0.0093 -6.558311,1.234885 -7.962841,3.84863 -0.572353,1.065114 -1.274197,1.735426 -1.817869,1.7362 -0.839073,0.0012 -0.871397,-0.323074 -0.615577,-6.175181 z M 33.391349,26.5134 c 0.211506,-1.394751 -0.77019,-5.822611 -1.51752,-6.844645 -1.292742,-1.76793 -2.194587,0.237577 -3.281005,7.296241 -0.140932,0.915665 -0.138229,1.782856 0.006,1.927091 0.144236,0.144236 1.247988,-0.11059 2.452783,-0.566278 1.529441,-0.57848 2.235564,-1.125457 2.339736,-1.812409 z m 42.025298,8.314376 c -0.325054,-0.784749 -1.329842,-1.990903 -2.232861,-2.680342 -1.493892,-1.140559 -2.075852,-1.267851 -6.457741,-1.412493 l -4.815889,-0.158967 0.0069,-2.171765 c 0.0088,-2.784841 1.122994,-7.50932 2.327852,-9.871039 1.370946,-2.687279 2.904377,-3.480902 6.389283,-3.306766 1.966075,0.09824 4.240674,2.691855 5.295904,6.038659 1.31224,4.161952 1.880882,14.98953 0.787214,14.98953 -0.390309,0 -0.975602,-0.642067 -1.30066,-1.426817 z m -2.491521,-6.720395 c 0.345573,-0.900547 -1.024636,-7.596815 -1.727869,-8.444156 -0.697523,-0.840465 -2.489381,-0.845848 -3.183436,-0.0096 -0.687426,0.828298 -1.924593,6.693268 -1.593754,7.555421 0.15917,0.414787 0.959324,0.657491 2.182549,0.662012 1.062184,0.0039 2.245898,0.21048 2.630469,0.459009 0.974898,0.630028 1.385555,0.575973 1.692041,-0.222723 z"
         id="path11084" />
    </g>
  </g>
</svg>
