<?xml version="1.0" encoding="UTF-8" standalone="no"?>
<!-- Created with Inkscape (http://www.inkscape.org/) -->

<svg
   width="100mm"
   height="100mm"
   viewBox="0 0 100 100"
   version="1.1"
   id="svg5783"
   inkscape:version="1.1.1 (3bf5ae0d25, 2021-09-20)"
   sodipodi:docname="add_list_type_device_6199.svg"
   xmlns:inkscape="http://www.inkscape.org/namespaces/inkscape"
   xmlns:sodipodi="http://sodipodi.sourceforge.net/DTD/sodipodi-0.dtd"
   xmlns="http://www.w3.org/2000/svg"
   xmlns:svg="http://www.w3.org/2000/svg">
  <sodipodi:namedview
     id="namedview5785"
     pagecolor="#505050"
     bordercolor="#ffffff"
     borderopacity="1"
     inkscape:pageshadow="0"
     inkscape:pageopacity="0"
     inkscape:pagecheckerboard="1"
     inkscape:document-units="mm"
     showgrid="false"
     inkscape:zoom="0.58974467"
     inkscape:cx="397.62971"
     inkscape:cy="235.69522"
     inkscape:window-width="1440"
     inkscape:window-height="890"
     inkscape:window-x="-6"
     inkscape:window-y="-6"
     inkscape:window-maximized="1"
     inkscape:current-layer="layer1" />
  <defs
     id="defs5780" />
  <g
     inkscape:label="Laag 1"
     inkscape:groupmode="layer"
     id="layer1">
    <g
       id="g5799"
       transform="translate(0.89727659,-0.89728093)">
      <path
         style="fill:#d0d0d0;fill-opacity:1;stroke-width:0.613526"
         d="m 17.7373,94.448389 c 0.199441,-0.322702 0.767908,-0.431204 1.263261,-0.241122 1.268227,0.486667 1.118778,0.827855 -0.36262,0.827855 -0.694793,0 -1.100081,-0.264031 -0.900641,-0.586733 z m -6.50372,-2.327515 c -0.763147,-0.973089 -0.741446,-0.994789 0.23164,-0.231643 0.590519,0.46312 1.07367,0.946272 1.07367,1.073671 0,0.504956 -0.503819,0.179953 -1.30531,-0.842028 z m 1.840578,-2.454103 c -0.763147,-0.973089 -0.741447,-0.99479 0.23164,-0.231643 0.590518,0.46312 1.07367,0.946271 1.07367,1.07367 0,0.504956 -0.503819,0.179953 -1.30531,-0.842027 z M 8.3865488,85.218708 c 0,-1.181038 0.1262606,-1.664189 0.2805795,-1.073671 0.1543184,0.590519 0.1543184,1.556822 0,2.147341 -0.1543189,0.590519 -0.2805795,0.107367 -0.2805795,-1.07367 z m 19.0193032,0 c 0,-1.181038 0.126261,-1.664189 0.280579,-1.073671 0.154319,0.590519 0.154319,1.556822 0,2.147341 -0.154318,0.590519 -0.280579,0.107367 -0.280579,-1.07367 z M 16.986953,75.592897 c 0.590519,-0.154314 1.556822,-0.154314 2.147341,0 0.590519,0.154321 0.107367,0.280584 -1.07367,0.280584 -1.181038,0 -1.66419,-0.126263 -1.073671,-0.280584 z M 9.2682531,62.671631 C 8.7649219,61.068794 8.1498837,58.929123 7.9015014,57.916805 7.2896596,55.423157 7.1851841,44.789259 7.753822,42.88542 c 1.991761,-6.668558 2.597159,-8.958341 2.473712,-9.35627 -0.07851,-0.253079 0.133339,-0.460144 0.470779,-0.460144 0.337439,0 0.580831,-0.207065 0.540871,-0.460145 -0.173076,-1.09615 0.148921,-1.894144 1.299706,-3.221011 0.674879,-0.778141 1.227052,-1.75715 1.227052,-2.175576 0,-0.418425 0.41413,-0.919689 0.920289,-1.11392 0.506159,-0.194232 0.920289,-0.622562 0.920289,-0.951845 0,-0.779602 7.579876,-8.359478 8.844921,-8.844921 0.534321,-0.205039 0.971493,-0.673842 0.971493,-1.041787 0,-0.367944 0.234275,-0.5242 0.520611,-0.347234 0.286337,0.176966 1.114597,-0.231625 1.840578,-0.907981 0.725982,-0.676354 1.324195,-1.011915 1.329362,-0.745691 0.0052,0.266224 0.307297,0.06991 0.671401,-0.436244 0.531962,-0.739508 0.576703,-0.679247 0.227761,0.306763 -0.238835,0.674878 -0.562302,1.641181 -0.718816,2.14734 -0.334109,1.080491 -5.716529,4.661141 -6.676394,4.441465 -0.825759,-0.188984 -3.67446,2.780657 -3.16047,3.294646 0.508043,0.508044 -5.586222,9.135852 -6.453123,9.135852 -0.374996,0 -1.062377,0.932663 -1.527514,2.072586 -0.727965,1.784044 -0.723989,2.02588 0.02856,1.737099 0.709079,-0.272099 0.657513,0.360941 -0.27292,3.350427 -0.63095,2.027253 -1.147183,4.498241 -1.147183,5.491086 0,1.038625 -0.3907911,1.955132 -0.9202892,2.15832 -0.9735251,0.373576 -1.3230649,4.250825 -0.4163926,4.618802 0.7693768,0.312255 2.4824878,9.931126 1.8996708,10.666377 -0.2814,0.354998 -0.352947,1.25228 -0.158994,1.993959 0.678501,2.594589 -0.313837,1.321578 -1.2205289,-1.565742 z M 14.088551,59.97961 C 12.610418,54.75707 12.579404,45.658038 14.022966,40.738079 16.571173,32.053258 23.536623,22.71093 30.167227,19.084778 l 2.572673,-1.406947 -0.650872,1.867091 c -0.357979,1.0269 -0.861079,1.867091 -1.118,1.867091 -0.256922,0 -1.711438,1.095285 -3.23226,2.433965 -1.520821,1.33868 -2.938432,2.260662 -3.150246,2.048848 -0.605441,-0.605442 -2.925011,1.790596 -2.586768,2.672044 0.166787,0.43464 -0.651735,2.240328 -1.81894,4.012638 -1.167205,1.772311 -2.12219,3.573787 -2.12219,4.003281 0,0.429494 -0.420964,0.780898 -0.935475,0.780898 -1.114435,0 -2.470573,3.092822 -1.593752,3.634727 0.696416,0.430409 -0.522089,9.862843 -1.274106,9.862843 -0.270242,0 -0.491349,0.851267 -0.491349,1.891705 0,1.240964 0.263814,1.803587 0.766908,1.635547 1.210298,-0.404257 2.365743,6.192973 1.409043,8.045202 -0.706512,1.367856 -0.810641,1.229973 -1.853342,-2.454101 z m 5.823943,-0.222227 C 17.366322,53.401801 17.983284,44.192552 21.446948,36.852949 23.667612,32.1473 29.261247,25.896271 33.223104,23.692796 l 1.966316,-1.09361 -0.607551,1.707136 c -0.629149,1.767819 -5.257599,5.500971 -6.473929,5.221653 -0.829067,-0.190387 -2.870627,2.744335 -2.418279,3.47625 0.478119,0.773613 -3.305938,7.427092 -4.224036,7.427092 -0.958397,0 -1.868534,3.886547 -0.979531,4.182882 0.677364,0.225788 0.169302,7.366246 -0.597284,8.394399 -0.789567,1.058974 0.05735,4.715473 1.007722,4.350781 0.943409,-0.362021 1.062912,1.042859 0.256169,3.01153 -0.462145,1.127758 -0.562503,1.078111 -1.240207,-0.613526 z m 5.001704,-2.227317 c -2.683051,-8.502889 -0.410619,-17.907615 5.947895,-24.616064 3.239065,-3.417323 7.084254,-6.126119 6.487081,-4.569912 -0.180897,0.471409 -1.14374,1.459544 -2.139653,2.195853 -0.995913,0.73631 -1.81075,1.627786 -1.81075,1.981058 0,1.197818 -4.78522,7.356324 -5.088883,6.549315 -0.162737,-0.432487 -0.761287,0.289071 -1.330111,1.603463 -0.618518,1.429221 -0.798554,2.538952 -0.447906,2.760866 0.704399,0.445794 -0.433636,7.536438 -1.304262,8.126335 -0.75662,0.512651 0.07569,4.968366 0.83985,4.496089 0.727016,-0.44932 0.75045,1.564997 0.03141,2.700049 -0.391268,0.617643 -0.705187,0.292494 -1.184674,-1.227052 z m 37.25703,-27.221927 c -0.04509,-0.337439 -0.05043,-0.817339 -0.01178,-1.066444 0.110165,-0.710284 -4.39474,-2.400286 -4.788263,-1.796303 -0.639206,0.981059 -7.782193,-0.602341 -8.596028,-1.905498 -0.708883,-1.135102 -0.596934,-1.169492 2.524252,-0.775446 6.691297,0.844769 12.606926,3.543552 11.523218,5.257036 -0.31315,0.495099 -0.606268,0.624094 -0.651399,0.286655 z m 1.923797,-5.469234 c -0.66651,-1.753065 -4.32725,-3.268219 -3.881713,-1.606615 0.06939,0.258785 -0.896914,0.105252 -2.147341,-0.341186 -1.250427,-0.446438 -2.860894,-0.823824 -3.578814,-0.838635 -0.717921,-0.01481 -1.649008,-0.44106 -2.069083,-0.947219 -0.420074,-0.506158 -1.403889,-0.920288 -2.186255,-0.920288 -0.782366,0 -1.581521,-0.257329 -1.7759,-0.571841 -0.207424,-0.335619 0.854741,-0.465937 2.571277,-0.315471 5.05714,0.443293 7.056092,0.940153 11.028094,2.741144 2.924746,1.326142 3.860354,2.057087 3.860354,3.015898 0,1.730376 -1.131685,1.596245 -1.820619,-0.215787 z M 65.4555,20.026029 c -1.434117,-0.720425 -2.607485,-1.642593 -2.607485,-2.049262 0,-0.945973 -3.374224,-2.147291 -4.073979,-1.450449 -0.292612,0.291394 -2.468761,0.224285 -4.887487,-0.150723 -3.120256,-0.483775 -4.566922,-1.007294 -5.087655,-1.84112 -0.694051,-1.111352 -0.549452,-1.147406 3.132969,-0.781163 7.467353,0.742681 16.486458,4.25794 16.93781,6.601631 0.256871,1.333833 -0.189904,1.290792 -3.414173,-0.328914 z m 3.471636,-4.386294 c -1.21191,-0.705798 -2.094896,-1.602248 -1.962184,-1.992111 0.132705,-0.389863 -0.795063,-1.050869 -2.061717,-1.468902 -1.516575,-0.500516 -2.374389,-0.545907 -2.512046,-0.132928 -0.137515,0.41253 -1.197338,0.354636 -3.097121,-0.169186 -1.588442,-0.437975 -3.9234,-0.96897 -5.188797,-1.17999 -1.265398,-0.21102 -2.300723,-0.647249 -2.300723,-0.9693975 0,-0.322149 -0.82826,-0.5857252 -1.840577,-0.5857252 -1.012318,0 -1.840578,-0.2667286 -1.840578,-0.5927299 0,-0.3572708 1.64511,-0.4538754 4.1413,-0.2431851 6.289796,0.5308871 6.599396,0.5763751 7.434111,1.0922583 0.427209,0.2640297 0.940038,0.3167598 1.13962,0.117178 0.199579,-0.1995812 0.733389,-0.055377 1.186233,0.3204507 0.452849,0.3758287 0.827585,0.4424557 0.832751,0.1480585 0.0049,-0.2943973 0.237072,-0.1763286 0.515349,0.2623742 0.278277,0.438703 1.102304,0.842564 1.831185,0.897468 0.728875,0.0549 1.325228,0.333455 1.325228,0.619 0,0.285545 0.276087,0.348543 0.613526,0.139994 0.337439,-0.208549 0.613526,-0.07051 0.613526,0.306763 0,0.377269 0.276087,0.515312 0.613526,0.306763 0.337439,-0.208549 0.613526,-0.04079 0.613526,0.372809 0,0.413594 0.161376,0.590612 0.358618,0.393373 0.490992,-0.490998 2.709011,1.475313 2.709011,2.401589 0,1.292912 -0.8488,1.280977 -3.123767,-0.04392 z"
         id="path5815" />
      <path
         style="fill:#b9b9b9;fill-opacity:1;stroke-width:0.613526"
         d="m 16.10501,94.616017 c 0.442889,-0.17723 0.972055,-0.155437 1.175925,0.04841 0.203869,0.203868 -0.158495,0.348875 -0.805253,0.322236 -0.714723,-0.02945 -0.860102,-0.174818 -0.370672,-0.370668 z M 65.915644,72.334664 c 0,-0.33744 0.292382,-0.613526 0.649736,-0.613526 0.357355,0 0.479103,0.276086 0.270553,0.613526 -0.20855,0.337439 -0.500931,0.613526 -0.649736,0.613526 -0.148805,0 -0.270553,-0.276087 -0.270553,-0.613526 z"
         id="path5813" />
      <path
         style="fill:#a3a3a3;fill-opacity:1;stroke-width:0.613526"
         d="M 14.161198,99.179048 C 11.801071,98.688491 10.515734,97.893497 7.9751895,95.352953 5.2616541,92.63942 4.6613061,91.613237 4.072709,88.682393 2.9195152,82.94022 4.039462,79.020188 7.9505902,75.109059 10.668847,72.390801 11.670989,71.81259 14.823376,71.143607 c 14.978556,-3.178665 24.095543,15.727884 12.228997,25.360149 -2.169919,1.761359 -7.590428,3.686154 -9.482092,3.367043 -0.23647,-0.03988 -1.770558,-0.351177 -3.409083,-0.691751 z m 9.615718,-6.164089 C 29.754024,88.455996 28.805209,79.56995 21.996318,76.33892 15.479101,73.246302 7.5858785,78.95324 8.3992912,86.169814 9.2357233,93.590618 17.941473,97.465869 23.776916,93.014959 Z m -6.943344,0.392105 c 0,-0.557996 -1.104347,-2.034059 -2.454104,-3.280149 -2.119366,-1.956589 -2.454104,-2.619645 -2.454104,-4.861156 0,-3.637178 2.525766,-6.18231 6.13526,-6.18231 7.283422,0 8.393835,9.871368 1.583853,14.080168 -2.462824,1.522108 -2.810905,1.552257 -2.810905,0.243447 z M 67.120738,71.821971 c 0.404191,-0.788136 0.903165,-1.264716 1.108819,-1.059062 0.205654,0.205653 -0.125055,0.850494 -0.734906,1.432981 -1.060019,1.012453 -1.076474,0.995998 -0.373913,-0.373919 z"
         id="path5811" />
      <path
         style="fill:#8c8c8c;fill-opacity:1;stroke-width:0.613526"
         d="m 68.418186,73.817353 c 0.02945,-0.714727 0.174818,-0.860102 0.370668,-0.370674 0.177229,0.442886 0.155436,0.972052 -0.04841,1.175927 -0.203874,0.203869 -0.348875,-0.158498 -0.322236,-0.805253 z m 9.25132,-23.569622 c 0,-0.843598 0.139258,-1.188706 0.309456,-0.766907 0.170199,0.421799 0.170199,1.112015 0,1.533814 -0.170198,0.421799 -0.309456,0.07669 -0.309456,-0.766907 z m 5.521733,0 c 0,-0.843598 0.139258,-1.188706 0.309457,-0.766907 0.170198,0.421799 0.170198,1.112015 0,1.533814 -0.170199,0.421799 -0.309457,0.07669 -0.309457,-0.766907 z m 5.521733,0 c 0,-0.843598 0.139259,-1.188706 0.309457,-0.766907 0.170198,0.421799 0.170198,1.112015 0,1.533814 -0.170198,0.421799 -0.309457,0.07669 -0.309457,-0.766907 z M 20.514727,23.020951 c 0,-0.127402 0.483152,-0.610554 1.07367,-1.07367 0.973087,-0.763147 0.994787,-0.741447 0.23164,0.23164 -0.801491,1.021979 -1.30531,1.346983 -1.30531,0.84203 z m 56.366122,-0.84203 c -0.763146,-0.973087 -0.741446,-0.994787 0.231643,-0.23164 0.590519,0.463116 1.07367,0.946268 1.07367,1.07367 0,0.504953 -0.503821,0.179949 -1.305313,-0.84203 z"
         id="path5809" />
      <path
         style="fill:#767676;fill-opacity:1;stroke-width:0.613526"
         d="m 77.669506,71.721138 c 0,-0.843598 0.139258,-1.188707 0.309456,-0.766908 0.170199,0.421799 0.170199,1.112016 0,1.533815 -0.170198,0.421799 -0.309456,0.07669 -0.309456,-0.766907 z M 7.1140298,53.315361 c 0,-0.843599 0.1392539,-1.188707 0.3094539,-0.766908 0.1701995,0.421799 0.1701995,1.112016 0,1.533815 -0.1702,0.421799 -0.3094539,0.07669 -0.3094539,-0.766907 z m 5.4732962,-0.35789 c 0.02944,-0.714723 0.174819,-0.860102 0.370672,-0.370672 0.17723,0.442889 0.155434,0.972055 -0.04844,1.175924 -0.20387,0.20387 -0.348876,-0.158494 -0.322236,-0.805252 z m 5.521734,0 c 0.02944,-0.714723 0.174818,-0.860102 0.370672,-0.370672 0.177229,0.442889 0.155433,0.972055 -0.04844,1.175924 -0.20387,0.20387 -0.348876,-0.158494 -0.322236,-0.805252 z m 67.536283,-0.255636 c 0,-0.843598 0.139258,-1.188707 0.309456,-0.766908 0.170198,0.421799 0.170198,1.112016 0,1.533815 -0.170198,0.421799 -0.309456,0.07669 -0.309456,-0.766907 z m 5.521733,0 c 0,-0.843598 0.139258,-1.188707 0.309456,-0.766908 0.170199,0.421799 0.170199,1.112016 0,1.533815 -0.170198,0.421799 -0.309456,0.07669 -0.309456,-0.766907 z m -13.546002,-0.35789 c 0.02945,-0.714723 0.174818,-0.860102 0.370668,-0.370672 0.177229,0.442889 0.155437,0.972055 -0.04841,1.175925 -0.203869,0.203869 -0.348875,-0.158495 -0.322236,-0.805253 z m 2.454104,0 c 0.02945,-0.714723 0.174818,-0.860102 0.370668,-0.370672 0.177229,0.442889 0.155437,0.972055 -0.04841,1.175925 -0.203875,0.203869 -0.348876,-0.158495 -0.322236,-0.805253 z m 3.06763,0 c 0.02945,-0.714723 0.174818,-0.860102 0.370667,-0.370672 0.17723,0.442889 0.155437,0.972055 -0.04841,1.175925 -0.203874,0.203869 -0.348875,-0.158495 -0.322236,-0.805253 z m 5.521733,0 c 0.02945,-0.714723 0.174818,-0.860102 0.370668,-0.370672 0.177229,0.442889 0.155436,0.972055 -0.04841,1.175925 -0.203874,0.203869 -0.348875,-0.158495 -0.322236,-0.805253 z M 9.6383632,50.247731 c 0,-1.518477 0.1196473,-2.139672 0.2658831,-1.380433 0.1462357,0.759238 0.1462357,2.001628 0,2.760866 -0.1462358,0.759239 -0.2658831,0.138044 -0.2658831,-1.380433 z m 5.5217328,0 c 0,-1.518477 0.119648,-2.139672 0.265883,-1.380433 0.146236,0.759238 0.146236,2.001628 0,2.760866 -0.146235,0.759239 -0.265883,0.138044 -0.265883,-1.380433 z m 5.521734,0 c 0,-1.518477 0.119647,-2.139672 0.265883,-1.380433 0.146235,0.759238 0.146235,2.001628 0,2.760866 -0.146236,0.759239 -0.265883,0.138044 -0.265883,-1.380433 z m 5.509351,0.306763 c 0.0068,-1.349757 0.132451,-1.829689 0.279202,-1.066517 0.146751,0.763173 0.14118,1.867519 -0.01238,2.454103 -0.153561,0.586585 -0.27363,-0.03783 -0.266821,-1.387586 z m 51.429893,-2.505231 c 0.02945,-0.714722 0.174818,-0.860102 0.370668,-0.370672 0.177229,0.442889 0.155437,0.972055 -0.04841,1.175925 -0.203869,0.203869 -0.348875,-0.158494 -0.322236,-0.805253 z m 2.454104,0 c 0.02945,-0.714722 0.174818,-0.860102 0.370668,-0.370672 0.177229,0.442889 0.155437,0.972055 -0.04841,1.175925 -0.203875,0.203869 -0.348876,-0.158494 -0.322236,-0.805253 z m 3.06763,0 c 0.02945,-0.714722 0.174818,-0.860102 0.370667,-0.370672 0.17723,0.442889 0.155437,0.972055 -0.04841,1.175925 -0.203874,0.203869 -0.348875,-0.158494 -0.322236,-0.805253 z m 2.502535,-0.255636 c 0,-0.843598 0.139258,-1.188706 0.309456,-0.766907 0.170198,0.421799 0.170198,1.112016 0,1.533815 -0.170198,0.421799 -0.309456,0.07669 -0.309456,-0.766908 z m 3.067629,0 c 0,-0.843598 0.139259,-1.188706 0.309457,-0.766907 0.170198,0.421799 0.170198,1.112016 0,1.533815 -0.170198,0.421799 -0.309457,0.07669 -0.309457,-0.766908 z m 2.454104,0 c 0,-0.843598 0.139258,-1.188706 0.309456,-0.766907 0.170199,0.421799 0.170199,1.112016 0,1.533815 -0.170198,0.421799 -0.309456,0.07669 -0.309456,-0.766908 z M 7.0655932,46.822212 c 0.029437,-0.714723 0.1748187,-0.860102 0.3706721,-0.370673 0.1772298,0.44289 0.1554331,0.972056 -0.048438,1.175925 -0.2038697,0.203869 -0.348876,-0.158494 -0.322236,-0.805252 z M 31.251431,31.841954 c 0.610756,-0.674879 1.248509,-1.227052 1.417229,-1.227052 0.16872,0 -0.192947,0.552173 -0.803704,1.227052 -0.610756,0.674878 -1.248509,1.227052 -1.417229,1.227052 -0.16872,0 0.192947,-0.552174 0.803704,-1.227052 z m 17.945632,-4.701008 c 0.421799,-0.1702 1.112016,-0.1702 1.533815,0 0.421799,0.1702 0.07669,0.309454 -0.766907,0.309454 -0.843598,0 -1.188707,-0.139254 -0.766908,-0.309454 z M 18.674149,24.861529 c 0,-0.127402 0.483152,-0.610554 1.073671,-1.07367 0.973086,-0.763147 0.994787,-0.741447 0.23164,0.23164 -0.801492,1.021979 -1.305311,1.346983 -1.305311,0.84203 z m -1.840577,-1.840578 c 0,-0.127402 0.483151,-0.610554 1.07367,-1.07367 0.973086,-0.763147 0.994787,-0.741447 0.23164,0.23164 -0.801491,1.021979 -1.30531,1.346983 -1.30531,0.84203 z m 55.06395,-0.174686 c 0.421799,-0.1702 1.112016,-0.1702 1.533815,0 0.421799,0.1702 0.07669,0.309453 -0.766908,0.309453 -0.843598,0 -1.188706,-0.139253 -0.766907,-0.309453 z m 8.664483,-0.667344 c -0.763147,-0.973087 -0.741446,-0.994787 0.231643,-0.23164 1.02198,0.801491 1.346983,1.30531 0.842027,1.30531 -0.127399,0 -0.61055,-0.483152 -1.07367,-1.07367 z M 48.583537,21.619213 c 0.421799,-0.1702 1.112016,-0.1702 1.533815,0 0.421799,0.1702 0.07669,0.309454 -0.766907,0.309454 -0.843598,0 -1.188707,-0.139254 -0.766908,-0.309454 z M 22.355305,21.180374 c 0,-0.127403 0.483152,-0.610554 1.07367,-1.073671 0.973087,-0.763147 0.994787,-0.741446 0.23164,0.23164 -0.801491,1.02198 -1.30531,1.346983 -1.30531,0.842031 z m -1.840578,-1.840578 c 0,-0.127402 0.483152,-0.610554 1.07367,-1.07367 0.973087,-0.763148 0.994787,-0.741447 0.23164,0.231639 -0.801491,1.02198 -1.30531,1.346984 -1.30531,0.842031 z m 25.653052,-0.187468 c 0.442889,-0.17723 0.972055,-0.155434 1.175925,0.04844 0.203869,0.20387 -0.158495,0.348876 -0.805253,0.322236 -0.714722,-0.02944 -0.860102,-0.174818 -0.370672,-0.370672 z m 30.71307,-0.654563 c -0.763146,-0.973086 -0.741446,-0.994787 0.231643,-0.231639 0.590519,0.463116 1.07367,0.946268 1.07367,1.07367 0,0.504953 -0.503821,0.179949 -1.305313,-0.842031 z M 48.583537,16.09748 c 0.421799,-0.1702 1.112016,-0.1702 1.533815,0 0.421799,0.1702 0.07669,0.309453 -0.766907,0.309453 -0.843598,0 -1.188707,-0.139253 -0.766908,-0.309453 z m -2.415758,-2.466886 c 0.442889,-0.177229 0.972055,-0.155433 1.175925,0.04844 0.203869,0.20387 -0.158495,0.348876 -0.805253,0.322236 -0.714722,-0.02944 -0.860102,-0.174818 -0.370672,-0.370672 z m 2.415758,-3.054848 c 0.421799,-0.170199 1.112016,-0.170199 1.533815,0 0.421799,0.1702 0.07669,0.309454 -0.766907,0.309454 -0.843598,0 -1.188707,-0.139254 -0.766908,-0.309454 z M 45.554253,8.1088612 c 0.442889,-0.1772298 0.972055,-0.1554331 1.175925,0.048438 0.203869,0.2038697 -0.158495,0.348876 -0.805253,0.3222361 -0.714722,-0.029437 -0.860102,-0.1748187 -0.370672,-0.3706721 z"
         id="path5807" />
      <path
         style="fill:#606060;fill-opacity:1;stroke-width:0.613526"
         d="m 46.781305,21.606431 c 0.442889,-0.17723 0.972055,-0.155433 1.175925,0.04844 0.203869,0.20387 -0.158495,0.348876 -0.805253,0.322236 -0.714723,-0.02944 -0.860102,-0.174819 -0.370672,-0.370672 z m 31.940122,-1.268088 c -0.763146,-0.973086 -0.741446,-0.994787 0.231643,-0.23164 0.590518,0.463117 1.07367,0.946268 1.07367,1.073671 0,0.504952 -0.503821,0.179949 -1.305313,-0.842031 z M 46.781305,16.084698 c 0.442889,-0.17723 0.972055,-0.155433 1.175925,0.04844 0.203869,0.20387 -0.158495,0.348876 -0.805253,0.322236 -0.714723,-0.02944 -0.860102,-0.174819 -0.370672,-0.370672 z m 0,-5.521733 c 0.442889,-0.17723 0.972055,-0.155433 1.175925,0.04844 0.203869,0.203869 -0.158495,0.348876 -0.805253,0.322236 -0.714723,-0.02944 -0.860102,-0.174819 -0.370672,-0.370672 z"
         id="path5805" />
      <path
         style="fill:#494949;fill-opacity:1;stroke-width:0.613526"
         d="m 66.013833,91.236796 c -0.05399,-2.932679 0.108876,-5.460902 0.361956,-5.618278 0.253079,-0.157375 0.383263,1.413834 0.289296,3.491564 -0.30599,6.76597 -0.551088,7.566357 -0.651252,2.126714 z m 11.288159,-6.344361 c -0.655013,-0.495429 -0.917295,-0.900779 -0.58285,-0.900779 0.334445,0 0.870366,0.25484 1.190934,0.566315 0.320567,0.311475 1.411109,0.684241 2.423427,0.828364 l 1.840578,0.26205 -1.840578,0.07241 c -1.012318,0.03982 -2.376499,-0.332936 -3.031511,-0.828358 z m 5.801145,0.07209 c 0.397325,-0.397325 0.812192,-0.397325 1.209517,0 0.397332,0.397332 0.189905,0.604765 -0.604758,0.604765 -0.794664,0 -1.002091,-0.207433 -0.604759,-0.604765 z M 77.169433,73.254953 c 0.0025,-2.699514 0.110092,-3.727545 0.239699,-2.284507 0.129601,1.443037 0.127779,3.651731 -0.0043,4.908207 -0.131828,1.256477 -0.23787,0.07581 -0.235643,-2.6237 z m -7.984837,-0.613526 c 0.0025,-2.362075 0.113613,-3.253197 0.246429,-1.980278 0.13281,1.272925 0.130583,3.205532 -0.0049,4.294681 -0.135534,1.089156 -0.244202,0.04767 -0.241478,-2.314403 z m 0.531811,-17.792252 c 0.01252,-1.012317 0.150007,-1.352171 0.30556,-0.75523 0.155553,0.59694 0.145326,1.4252 -0.0227,1.840577 -0.168094,0.415377 -0.295364,-0.07303 -0.28286,-1.085347 z"
         id="path5803" />
      <path
         style="fill:#333333;fill-opacity:1;stroke-width:0.613526"
         d="M 43.783546,98.738113 C 31.508349,98.459223 29.16901,98.257802 28.318928,97.406578 c -0.926505,-0.927743 -0.905101,-1.088733 0.285505,-2.147341 2.033459,-1.808018 4.169685,-6.962329 4.161344,-10.040529 -0.0084,-3.106178 -1.784333,-7.516153 -3.953116,-9.816415 -0.795379,-0.843598 -1.502032,-1.947945 -1.570339,-2.454103 -0.324335,-2.403347 0.159098,-19.809406 0.524603,-18.888391 0.301412,0.759509 0.672495,0.889799 1.337311,0.469539 0.520712,-0.329164 8.177629,-0.58574 17.638724,-0.591057 15.907266,-0.0089 16.778129,0.05015 17.945632,1.217657 1.136287,1.136289 1.227052,2.045086 1.227052,12.286274 v 11.059221 l 1.874991,-0.969591 1.874984,-0.969598 -0.09856,-9.015954 c -0.05424,-4.95878 -0.08583,-13.152348 -0.07026,-18.207934 0.02718,-8.822437 -0.0319,-9.270928 -1.469664,-11.155912 C 66.69916,36.44137 66.52917,35.60119 66.52917,30.778543 c 0,-3.413048 0.27432,-5.714282 0.736231,-6.176195 0.465844,-0.465843 2.80763,-0.736231 6.376381,-0.736231 4.577106,0 5.710343,0.182912 6.012554,0.970467 0.204826,0.533758 0.372404,3.524058 0.372404,6.645112 0,5.256709 -0.101667,5.729103 -1.380433,6.414074 l -1.380433,0.739429 V 58.39918 78.16316 l 8.270715,0.172174 c 4.548896,0.0947 8.50504,0.406497 8.791434,0.692891 0.2864,0.2864 0.33909,1.731947 0.117091,3.212336 l -0.403632,2.691612 -7.740427,0.1056 c -4.257232,0.0581 -8.031741,-0.07457 -8.387801,-0.294781 -0.925596,-0.572456 -9.643787,-0.12727 -10.923939,0.557824 -0.895233,0.479096 -1.075229,1.463198 -1.083064,5.921353 -0.0049,2.940722 -0.217851,5.674606 -0.472629,6.075293 -0.663112,1.042859 -3.612165,2.054729 -5.539796,1.900796 -0.90599,-0.07235 -8.155616,-0.279412 -16.11028,-0.460145 z M 61.3142,84.911945 c 0,-1.551564 -0.239527,-1.840578 -1.525413,-1.840578 -0.983757,0 -1.601284,0.393976 -1.739084,1.109506 -0.358453,1.861303 0.400724,2.978307 1.881321,2.768064 1.084199,-0.153958 1.383176,-0.594261 1.383176,-2.036992 z m 0.282302,-7.946363 c 1.629807,-1.963792 -0.763983,-4.980462 -2.889787,-3.64173 -2.124229,1.337738 -1.367443,4.532545 1.07367,4.532545 0.592244,0 1.409496,-0.400866 1.816117,-0.890815 z M 61.3142,67.119694 c 0,-1.634194 -0.205445,-1.840578 -1.832176,-1.840578 -1.279687,0 -1.896607,0.334568 -2.045846,1.109506 -0.383248,1.990045 0.393593,2.972441 2.187337,2.766119 1.426304,-0.164057 1.690685,-0.482287 1.690685,-2.035047 z M 74.81177,31.535191 c 0,-1.551562 -0.239527,-1.840578 -1.52541,-1.840578 -0.983758,0 -1.60129,0.393973 -1.739088,1.109508 -0.358452,1.861299 0.400725,2.978306 1.881322,2.76806 1.084199,-0.153957 1.383176,-0.594259 1.383176,-2.03699 z"
         id="path5801" />
    </g>
  </g>
</svg>
