<?xml version="1.0" encoding="UTF-8" standalone="no"?>
<!-- Created with Inkscape (http://www.inkscape.org/) -->

<svg
   width="100mm"
   height="100mm"
   viewBox="0 0 100 100"
   version="1.1"
   id="svg430"
   inkscape:version="1.1.1 (3bf5ae0d25, 2021-09-20)"
   sodipodi:docname="add_list_type_device_5080.svg"
   xmlns:inkscape="http://www.inkscape.org/namespaces/inkscape"
   xmlns:sodipodi="http://sodipodi.sourceforge.net/DTD/sodipodi-0.dtd"
   xmlns="http://www.w3.org/2000/svg"
   xmlns:svg="http://www.w3.org/2000/svg">
  <sodipodi:namedview
     id="namedview432"
     pagecolor="#505050"
     bordercolor="#ffffff"
     borderopacity="1"
     inkscape:pageshadow="0"
     inkscape:pageopacity="0"
     inkscape:pagecheckerboard="1"
     inkscape:document-units="mm"
     showgrid="false"
     width="100mm"
     inkscape:zoom="0.58974467"
     inkscape:cx="378.97757"
     inkscape:cy="269.6082"
     inkscape:window-width="1440"
     inkscape:window-height="890"
     inkscape:window-x="-6"
     inkscape:window-y="-6"
     inkscape:window-maximized="1"
     inkscape:current-layer="layer1" />
  <defs
     id="defs427" />
  <g
     inkscape:label="Laag 1"
     inkscape:groupmode="layer"
     id="layer1">
    <g
       id="g620"
       transform="translate(-3.140484,-1.7945618)">
      <path
         style="fill:#d0d0d0;fill-opacity:1;stroke-width:0.602448"
         d="m 19.522868,94.091568 c 0,-0.320942 0.406653,-0.427491 0.903673,-0.236768 0.497019,0.190729 0.903672,0.453318 0.903672,0.583544 0,0.130219 -0.406653,0.236768 -0.903672,0.236768 -0.49702,0 -0.903673,-0.262595 -0.903673,-0.583544 z m -4.896433,-4.68788 c -0.749368,-0.955519 -0.728059,-0.976828 0.227458,-0.22746 0.579856,0.454758 1.054284,0.929186 1.054284,1.054285 0,0.495839 -0.494722,0.176704 -1.281742,-0.826825 z m 14.072929,-4.367751 c 0,-1.159713 0.123981,-1.634141 0.275513,-1.054284 0.151532,0.579856 0.151532,1.528712 0,2.108569 -0.151532,0.579857 -0.275513,0.105429 -0.275513,-1.054285 z M 9.9312549,84.082063 c 0.028905,-0.701823 0.1716621,-0.844573 0.3639791,-0.363982 0.17403,0.43489 0.152627,0.954502 -0.04756,1.154695 -0.200189,0.200188 -0.3425768,-0.155636 -0.3164179,-0.790713 z m 8.5373281,-8.498138 c 0.579857,-0.151527 1.528713,-0.151527 2.10857,0 0.579856,0.151534 0.105428,0.275518 -1.054285,0.275518 -1.159713,0 -1.634141,-0.123984 -1.054285,-0.275518 z m -7.121801,-3.199404 c 0,-0.780316 0.203686,-0.983997 0.593843,-0.59384 0.390157,0.390152 0.390157,0.797528 0,1.187679 -0.390157,0.390158 -0.593843,0.186476 -0.593843,-0.593839 z m 30.876705,0.753669 c 8.012162,-0.09485 21.296146,-0.09494 29.51997,-2.05e-4 8.223825,0.09474 1.668421,0.172336 -14.567564,0.172451 -16.235984,1.08e-4 -22.964567,-0.0774 -14.952406,-0.172246 z m -0.166333,-6.268789 c -0.267509,-0.432841 -0.165134,-0.53192 0.271061,-0.262336 0.919775,0.568452 3.217602,-0.171692 2.771904,-0.892853 -0.19004,-0.30749 -0.05843,-0.559072 0.292476,-0.559072 0.84878,0 0.808848,0.793075 -0.08494,1.686855 -0.918407,0.918409 -2.690602,0.93335 -3.250506,0.02741 z m 4.804824,-0.179289 c -0.632598,-1.648528 1.539231,-3.06054 2.447363,-1.591156 0.185685,0.300447 -0.204968,0.404375 -0.868118,0.23096 -0.863521,-0.225816 -1.205728,-0.01894 -1.205728,0.728896 0,0.747838 0.342207,0.954713 1.205728,0.728897 0.66315,-0.173415 1.053803,-0.06949 0.868118,0.23096 -0.525645,0.850513 -2.074714,0.642548 -2.447363,-0.328557 z m 4.0187,-0.273102 c -0.40181,-0.750783 -0.5978,-1.497825 -0.435535,-1.660095 0.162265,-0.162263 0.488479,0.314491 0.724921,1.059448 l 0.429893,1.354473 0.808663,-1.459684 c 0.444764,-0.802823 0.818269,-1.172624 0.830011,-0.82177 0.01174,0.350854 -0.349618,1.145242 -0.803022,1.765306 -0.794625,1.086715 -0.850728,1.078142 -1.554931,-0.237678 z m 3.184071,0.203754 c -0.491901,-1.281871 0.673659,-2.324258 2.016365,-1.803278 0.989863,0.384079 0.950442,0.510828 -0.411342,1.322645 -1.423906,0.848856 -1.432082,0.88243 -0.14978,0.61507 0.745987,-0.15554 1.204415,-0.03699 1.01873,0.263468 -0.541954,0.8769 -2.079692,0.629577 -2.473973,-0.397905 z m 3.6413,0.06935 c -0.632598,-1.648528 1.539232,-3.06054 2.447363,-1.591156 0.185686,0.300447 -0.272743,0.432991 -1.01873,0.294543 -0.745987,-0.138443 -0.986787,-0.08034 -0.535111,0.12911 0.69334,0.321527 0.69334,0.471434 0,0.962616 -0.598905,0.424281 -0.454039,0.501298 0.535111,0.284483 0.745987,-0.163517 1.204416,-0.05151 1.01873,0.248961 -0.525645,0.850513 -2.074714,0.642548 -2.447363,-0.328557 z M 42.207766,63.197183 c 0.153588,-0.24851 0.789455,-0.451837 1.413038,-0.451837 0.623583,0 1.25945,0.203327 1.413038,0.451837 0.153588,0.24851 -0.48228,0.451836 -1.413038,0.451836 -0.930758,0 -1.566625,-0.203326 -1.413038,-0.451836 z m 44.293316,-2.592228 c 0.272469,-1.308586 1.341664,-1.388657 1.586216,-0.11879 0.126996,0.659442 -0.168486,1.054284 -0.788984,1.054284 -0.578791,0 -0.910884,-0.389685 -0.797232,-0.935494 z m 1.700904,-9.306128 c 0,-0.803265 0.401635,-1.204897 1.204897,-1.204897 0.803263,0 1.204897,0.401632 1.204897,1.204897 0,0.803264 -0.401634,1.204896 -1.204897,1.204896 -0.803262,0 -1.204897,-0.401632 -1.204897,-1.204896 z m -34.095574,-0.753061 -1.147657,-1.355509 1.355508,1.147657 c 1.273844,1.078514 1.629769,1.563361 1.147657,1.563361 -0.114318,0 -0.724297,-0.609979 -1.355508,-1.355509 z M 11.08859,29.985675 c 0,-0.125102 0.474428,-0.59953 1.054285,-1.054285 0.955517,-0.749368 0.976825,-0.728059 0.227457,0.227458 -0.78702,1.003527 -1.281742,1.322662 -1.281742,0.826827 z m 77.036548,-0.826827 c -0.749367,-0.955517 -0.728059,-0.976826 0.22746,-0.227458 1.003529,0.78702 1.322664,1.281742 0.826825,1.281742 -0.125099,0 -0.599527,-0.474428 -1.054285,-1.054284 z M 32.023672,27.954287 c 10.023236,-0.09274 26.424894,-0.09274 36.448129,0 10.023235,0.09274 1.822406,0.168617 -18.224064,0.168617 -20.046471,0 -28.2473,-0.07588 -18.224065,-0.168617 z"
         id="path634" />
      <path
         style="fill:#b9b9b9;fill-opacity:1;stroke-width:0.602448"
         d="m 17.602564,94.263573 c 0.434892,-0.174029 0.954504,-0.15263 1.154693,0.04753 0.200188,0.200188 -0.155633,0.342577 -0.790714,0.316418 -0.701818,-0.02892 -0.844572,-0.171661 -0.363979,-0.363975 z M 12.943497,85.28696 c 0.0289,-0.701823 0.171662,-0.844573 0.363979,-0.363982 0.17403,0.43489 0.152627,0.954501 -0.04756,1.154695 -0.200189,0.200188 -0.342577,-0.155636 -0.316419,-0.790713 z M 12.81909,70.727788 c -0.749368,-0.95552 -0.728059,-0.976828 0.227458,-0.227461 1.003527,0.787021 1.322662,1.281745 0.826827,1.281745 -0.125102,0 -0.59953,-0.474428 -1.054285,-1.054284 z m 73.575551,0.826824 c 0,-0.125098 0.474428,-0.599527 1.054285,-1.054285 0.955519,-0.749367 0.976828,-0.728059 0.22746,0.227461 -0.78702,1.003528 -1.281745,1.322663 -1.281745,0.826824 z"
         id="path632" />
      <path
         style="fill:#a3a3a3;fill-opacity:1;stroke-width:0.602448"
         d="M 16.031611,98.794931 C 15.798049,98.572495 15.06475,98.300068 14.402056,98.189537 13.739363,98.079012 12.894345,97.717476 12.524237,97.38613 12.15413,97.054783 11.205274,96.217633 10.415668,95.525799 8.1906296,93.57627 6.5905818,91.451537 6.3623691,90.143356 6.2480472,89.488031 5.9721145,88.68075 5.7491855,88.349404 5.2327368,87.581788 5.4043595,82.791058 6.0189611,80.818798 6.2770994,79.990432 6.439982,79.245788 6.3809222,79.164035 6.3218624,79.082289 6.8824988,78.297931 7.6267807,77.421026 12.79993,71.326073 18.933924,69.497118 25.0021,72.240271 c 3.571927,1.614712 7.266914,5.313058 7.681267,7.688247 0.114321,0.655326 0.390254,1.462606 0.613184,1.793953 0.516448,0.767616 0.344825,5.558346 -0.269776,7.530605 -0.258138,0.828367 -0.362863,1.506121 -0.232721,1.506121 0.23395,0 -2.099802,2.845207 -3.401261,4.146665 -1.301459,1.301457 -4.146665,3.635209 -4.146665,3.401261 0,-0.130141 -0.677755,-0.02874 -1.506121,0.225376 -1.9677,0.603587 -7.16441,0.780508 -7.708396,0.262432 z m 9.104339,-6.103507 c 5.869189,-4.47665 4.937505,-13.202253 -1.748448,-16.374945 -6.426174,-3.04942 -14.1502369,2.567255 -13.345757,9.704576 0.820374,7.278342 9.353295,11.049175 15.094205,6.670369 z m -6.817979,0.385025 c 0,-0.547921 -1.084407,-1.997334 -2.409794,-3.220924 -2.081099,-1.921263 -2.409793,-2.572347 -2.409793,-4.773386 0,-3.571507 2.480162,-6.070686 6.024484,-6.070686 7.151917,0 8.242281,9.693136 1.555256,13.825944 -2.418356,1.494626 -2.760153,1.524231 -2.760153,0.239052 z m 25.19387,-19.336004 c 8.058063,-0.09495 21.070951,-0.09485 28.917522,2.17e-4 7.846577,0.09507 1.253617,0.172758 -14.651021,0.172638 -15.904638,-1.15e-4 -22.324563,-0.0779 -14.266501,-0.172855 z m 43.535451,-0.308062 c 0.138063,-0.08637 0.928776,-0.696346 1.757143,-1.355509 l 1.506121,-1.198474 -1.147658,1.355509 c -0.63121,0.74553 -1.421923,1.355509 -1.757138,1.355509 -0.33522,0 -0.496525,-0.07067 -0.358468,-0.157035 z M 10.15374,50.696378 c 0,-11.100112 0.08134,-15.641067 0.180767,-10.091011 0.09942,5.550056 0.09942,14.631966 0,20.182022 -0.09942,5.550056 -0.180767,1.009101 -0.180767,-10.091011 z m 80.005908,11.145296 c -0.01663,-4.9702 0.150739,-9.682387 0.371898,-10.471527 0.221159,-0.789141 0.319376,2.599632 0.218261,7.530605 -0.252944,12.335026 -0.553734,13.833954 -0.590159,2.940922 z m 0.09355,-21.688143 c 6.02e-4,-5.301546 0.09293,-7.389712 0.204808,-4.64037 0.111887,2.749342 0.11126,7.086971 -0.0012,9.639175 -0.112826,2.552203 -0.204368,0.302741 -0.203603,-4.998805 z M 11.523692,28.977874 c 0.736325,-0.774851 1.455304,-1.288331 1.597729,-1.141066 0.142425,0.147265 -0.460024,0.781235 -1.338775,1.408821 l -1.597728,1.141066 z m 76.762167,0.01032 c -0.782243,-0.651671 -1.163135,-1.184855 -0.846434,-1.184855 0.316701,0 1.066503,0.542203 1.666234,1.204896 1.377727,1.522372 1.021186,1.513655 -0.8198,-0.02004 z M 32.023672,27.351839 c 10.023236,-0.09274 26.424894,-0.09274 36.448129,0 10.023235,0.09274 1.822406,0.168616 -18.224064,0.168616 -20.046471,0 -28.2473,-0.07588 -18.224065,-0.168616 z"
         id="path630" />
      <path
         style="fill:#767676;fill-opacity:1;stroke-width:0.602448"
         d="m 55.8626,56.720862 c 0,-2.153753 0.109342,-3.034834 0.242981,-1.957957 0.133639,1.076876 0.133639,2.839038 0,3.915914 C 55.971942,59.755696 55.8626,58.874615 55.8626,56.720862 Z M 41.373088,47.266645 c 0.586163,-0.152747 1.399468,-0.142702 1.807346,0.02232 0.407877,0.165027 -0.07171,0.290002 -1.065751,0.277724 -0.99404,-0.01228 -1.327758,-0.147297 -0.741595,-0.300044 z m 18.073453,0 c 0.586162,-0.152747 1.399467,-0.142702 1.807345,0.02232 0.407877,0.165027 -0.07171,0.290002 -1.065751,0.277724 -0.994039,-0.01228 -1.327757,-0.147297 -0.741594,-0.300044 z M 41.373088,35.820125 c 0.586163,-0.152747 1.399468,-0.142701 1.807346,0.02232 0.407877,0.165027 -0.07171,0.290002 -1.065751,0.277724 -0.99404,-0.01228 -1.327758,-0.147298 -0.741595,-0.300044 z m 18.073453,0 c 0.586162,-0.152747 1.399467,-0.142701 1.807345,0.02232 0.407877,0.165027 -0.07171,0.290002 -1.065751,0.277724 -0.994039,-0.01228 -1.327757,-0.147298 -0.741594,-0.300044 z"
         id="path628" />
      <path
         style="fill:#606060;fill-opacity:1;stroke-width:0.602448"
         d="m 14.590322,71.370534 c 0.434892,-0.174029 0.954504,-0.15263 1.154693,0.04753 0.200188,0.200194 -0.155633,0.342576 -0.790714,0.316418 -0.701818,-0.02892 -0.844572,-0.171662 -0.363979,-0.363975 z m 3.012242,-0.602449 c 0.434892,-0.174029 0.954504,-0.15263 1.154693,0.04753 0.200188,0.200193 -0.155633,0.342576 -0.790714,0.316418 -0.701818,-0.02892 -0.844572,-0.171662 -0.363979,-0.363976 z m 3.012242,0 c 0.434892,-0.174029 0.954504,-0.15263 1.154693,0.04753 0.200188,0.200193 -0.155633,0.342576 -0.790714,0.316418 -0.701818,-0.02892 -0.844572,-0.171662 -0.363979,-0.363976 z M 9.5486574,50.696378 c 0,-10.106072 0.082444,-14.240374 0.1832094,-9.187338 0.1007655,5.053036 0.1007655,13.32164 0,18.374676 -0.100765,5.053036 -0.1832094,0.918734 -0.1832094,-9.187338 z m 81.3008246,9.940399 c 0.0012,-4.638853 0.09551,-6.456929 0.210152,-4.04017 0.114646,2.41676 0.113875,6.212183 -0.0018,8.434278 -0.115484,2.222095 -0.209285,0.244745 -0.208345,-4.394108 z m 0.0018,-19.579573 c 0,-4.804526 0.09356,-6.770014 0.207917,-4.367751 0.114351,2.402263 0.114351,6.333239 0,8.735502 -0.114356,2.402263 -0.207917,0.436775 -0.207917,-4.367751 z"
         id="path626" />
      <path
         style="fill:#494949;fill-opacity:1;stroke-width:0.602448"
         d="m 39.897753,71.330591 c 8.721087,-0.09413 22.818382,-0.09404 31.327316,1.87e-4 8.508939,0.09423 1.373504,0.171246 -15.856521,0.171144 -17.230024,-1.03e-4 -24.191882,-0.0772 -15.470795,-0.171331 z m -6.669184,-1.807315 c 9.360542,-0.09337 24.677793,-0.09337 34.038335,0 9.360542,0.09337 1.701917,0.169758 -17.019167,0.169758 -18.721085,0 -26.37971,-0.07639 -17.019168,-0.169758 z M 11.808485,67.263709 c 0.01228,-0.99404 0.147298,-1.32776 0.300045,-0.741596 0.152747,0.586165 0.142701,1.39947 -0.02232,1.807346 -0.165027,0.407875 -0.290002,-0.07171 -0.277724,-1.06575 z m 76.574031,-1.506121 c 0,-1.822406 0.112941,-2.567936 0.250974,-1.656733 0.138039,0.911203 0.138039,2.402263 0,3.313466 -0.138033,0.911204 -0.250974,0.165674 -0.250974,-1.656733 z m -74.18656,1.204897 c 0,-0.828366 0.136739,-1.167244 0.303866,-0.75306 0.167127,0.414183 0.167127,1.091937 0,1.506121 -0.167127,0.414183 -0.303866,0.07531 -0.303866,-0.753061 z m 71.768543,-1.506121 c 0.0048,-1.656733 0.121526,-2.262983 0.259999,-1.347225 0.138478,0.915758 0.134773,2.271266 -0.0082,3.012242 -0.142997,0.740975 -0.256293,-0.0083 -0.251775,-1.665017 z M 14.340242,56.720862 c 0,-4.804526 0.09356,-6.770014 0.207912,-4.367751 0.114352,2.402263 0.114352,6.333239 0,8.735502 -0.114352,2.402263 -0.207912,0.436775 -0.207912,-4.367751 z m -2.540613,-0.115057 c -0.05973,-4.536461 0.09474,-8.374633 0.343246,-8.529271 0.24851,-0.154639 0.379998,2.337053 0.292195,5.537093 -0.28288,10.309849 -0.524144,11.445916 -0.635441,2.992178 z m 35.683965,3.507324 c -0.174093,-0.45368 -0.215733,-2.283617 -0.09253,-4.066526 l 0.223998,-3.241655 0.111443,3.737776 0.111442,3.737777 4.066527,0.210754 4.066527,0.210754 -4.085435,0.117996 c -2.987004,0.08627 -4.170539,-0.103783 -4.401968,-0.706876 z M 14.332991,40.454755 c 0,-4.141833 0.09625,-5.836219 0.213892,-3.765302 0.117641,2.070916 0.117641,5.459688 0,7.530605 -0.11764,2.070916 -0.213892,0.37653 -0.213892,-3.765303 z m 71.737087,6.482129 c -0.176505,-0.459967 -0.233262,-3.800999 -0.126129,-7.424518 l 0.194796,-6.588216 0.127948,7.078769 c 0.10423,5.766641 0.292019,7.078769 1.013077,7.078769 0.719523,0 0.922433,-1.380813 1.08451,-7.379993 l 0.199374,-7.379993 -0.03024,7.523269 c -0.02681,6.677257 -0.148979,7.546039 -1.086323,7.725743 -0.580862,0.111359 -1.200523,-0.173864 -1.377028,-0.63383 z m -74.14688,-7.084577 c 0,-4.141833 0.09625,-5.836219 0.213892,-3.765303 0.11764,2.070917 0.11764,5.459689 0,7.530605 -0.117641,2.070917 -0.213892,0.376531 -0.213892,-3.765302 z m 28.300096,1.807345 c 0,-3.147793 0.10154,-4.435526 0.225643,-2.86163 0.124104,1.573897 0.124104,4.149363 0,5.72326 -0.124103,1.573896 -0.225643,0.286163 -0.225643,-2.86163 z m 3.61469,0 c 0,-3.147793 0.10154,-4.435526 0.225643,-2.86163 0.124104,1.573897 0.124104,4.149363 0,5.72326 -0.124103,1.573896 -0.225643,0.286163 -0.225643,-2.86163 z m 14.458762,0 c 0,-3.147793 0.10154,-4.435526 0.225643,-2.86163 0.124104,1.573897 0.124104,4.149363 0,5.72326 -0.124103,1.573896 -0.225643,0.286163 -0.225643,-2.86163 z m 3.614693,0 c 0,-3.147793 0.101537,-4.435526 0.225641,-2.86163 0.124104,1.573897 0.124104,4.149363 0,5.72326 -0.124104,1.573896 -0.225641,0.286163 -0.225641,-2.86163 z M 33.228569,31.569025 c 9.360542,-0.09337 24.677793,-0.09337 34.038335,0 9.360542,0.09337 1.701917,0.16976 -17.019167,0.16976 -18.721085,0 -26.37971,-0.07639 -17.019168,-0.16976 z m -0.903672,-1.807381 c 9.857562,-0.09289 25.988118,-0.09289 35.84568,0 9.857562,0.09289 1.792284,0.168889 -17.92284,0.168889 -19.715124,0 -27.780402,-0.076 -17.92284,-0.168889 z"
         id="path624" />
      <path
         style="fill:#333333;fill-opacity:1;stroke-width:0.602448"
         d="m 12.875267,69.93611 c -0.323376,-0.604237 -0.56708,-9.027806 -0.563014,-19.460452 0.0062,-15.804647 0.138659,-18.526541 0.940906,-19.328789 0.822552,-0.822551 5.227723,-0.933737 36.994578,-0.933737 31.979317,0 36.16799,0.107152 37.007544,0.946705 1.369239,1.369236 1.408566,15.921851 0.04303,15.921851 -0.750621,0 -0.903673,-1.167632 -0.903673,-6.893996 0,-6.441113 -0.08796,-6.955604 -1.338947,-7.831829 -1.172841,-0.821492 -5.490932,-0.937834 -34.807957,-0.937834 -29.317028,0 -33.635117,0.116342 -34.80796,0.937834 -1.331082,0.932327 -1.338945,1.040023 -1.338945,18.340515 0,17.300493 0.0079,17.408187 1.338945,18.340518 1.172843,0.821486 5.490932,0.937831 34.80796,0.937831 38.265251,0 36.146904,0.284446 36.146904,-4.853746 0,-2.245554 0.22228,-2.978083 0.903673,-2.978083 0.69502,0 0.903672,0.774194 0.903672,3.353071 0,6.36609 3.978244,5.776806 -38.021984,5.632097 C 15.739847,71.009408 13.409837,70.934964 12.875267,69.93611 Z M 47.837943,56.161446 c 0,-4.836071 0.796563,-6.067516 3.924786,-6.067516 2.864935,0 3.907043,1.722981 3.907043,6.459756 v 3.781867 H 51.753858 47.837943 Z M 40.608562,41.659652 c 0,-5.381872 0.01116,-5.422036 1.506121,-5.422036 1.494964,0 1.506121,0.04017 1.506121,5.422036 0,5.381872 -0.01116,5.422036 -1.506121,5.422036 -1.494964,0 -1.506121,-0.04017 -1.506121,-5.422036 z m 18.073452,0 c 0,-5.381872 0.01116,-5.422036 1.506121,-5.422036 1.494965,0 1.506121,0.04017 1.506121,5.422036 0,5.381872 -0.01116,5.422036 -1.506121,5.422036 -1.494964,0 -1.506121,-0.04017 -1.506121,-5.422036 z"
         id="path622" />
    </g>
  </g>
</svg>
