<?xml version="1.0" encoding="UTF-8" standalone="no"?>
<!-- Created with Inkscape (http://www.inkscape.org/) -->

<svg
   width="100mm"
   height="100mm"
   viewBox="0 0 100 100"
   version="1.1"
   id="svg7931"
   inkscape:version="1.1.1 (3bf5ae0d25, 2021-09-20)"
   sodipodi:docname="add_list_type_device_7061.svg"
   xmlns:inkscape="http://www.inkscape.org/namespaces/inkscape"
   xmlns:sodipodi="http://sodipodi.sourceforge.net/DTD/sodipodi-0.dtd"
   xmlns="http://www.w3.org/2000/svg"
   xmlns:svg="http://www.w3.org/2000/svg">
  <sodipodi:namedview
     id="namedview7933"
     pagecolor="#505050"
     bordercolor="#ffffff"
     borderopacity="1"
     inkscape:pageshadow="0"
     inkscape:pageopacity="0"
     inkscape:pagecheckerboard="1"
     inkscape:document-units="mm"
     showgrid="false"
     inkscape:zoom="0.58974467"
     inkscape:cx="397.62971"
     inkscape:cy="100.0433"
     inkscape:window-width="1440"
     inkscape:window-height="890"
     inkscape:window-x="-6"
     inkscape:window-y="-6"
     inkscape:window-maximized="1"
     inkscape:current-layer="layer1" />
  <defs
     id="defs7928" />
  <g
     inkscape:label="Laag 1"
     inkscape:groupmode="layer"
     id="layer1">
    <g
       id="g7947"
       transform="translate(0.8972842)">
      <path
         style="fill:#d0d0d0;fill-opacity:1;stroke-width:0.44944"
         d="m 17.551384,97.816619 c 0.30899,-0.124679 0.814609,-0.124679 1.123599,0 0.30899,0.124679 0.05618,0.226693 -0.5618,0.226693 -0.617979,0 -0.870789,-0.102014 -0.561799,-0.226693 z m 3.595518,0 c 0.30899,-0.124679 0.81461,-0.124679 1.1236,0 0.30899,0.124679 0.05618,0.226693 -0.5618,0.226693 -0.61798,0 -0.87079,-0.102014 -0.5618,-0.226693 z M 9.5164985,93.732236 c -0.5590451,-0.712838 -0.5431484,-0.728735 0.1696883,-0.16969 0.4325862,0.339259 0.7865192,0.693193 0.7865192,0.786519 0,0.369907 -0.369073,0.131826 -0.9562075,-0.616829 z m 19.8326805,0.616829 c 0,-0.09333 0.353934,-0.44726 0.78652,-0.786519 0.712837,-0.559045 0.728733,-0.543148 0.169688,0.16969 -0.587134,0.748655 -0.956208,0.986736 -0.956208,0.616829 z M 18.028914,92.863419 c 0.324439,-0.129829 0.712081,-0.113865 0.861426,0.03546 0.149345,0.149345 -0.116106,0.25557 -0.58989,0.236055 -0.523572,-0.02157 -0.630069,-0.128063 -0.271536,-0.271533 z m 5.252827,-2.839061 c 0.447412,-0.494384 0.914599,-0.89888 1.038195,-0.89888 0.123596,0 -0.141344,0.404496 -0.588755,0.89888 -0.447411,0.494383 -0.914599,0.898879 -1.038194,0.898879 -0.123596,0 0.141343,-0.404496 0.588754,-0.898879 z m -8.132619,-1.91012 -0.856177,-1.011239 1.01124,0.856178 c 0.950315,0.804596 1.215843,1.166301 0.856177,1.166301 -0.08528,0 -0.540342,-0.455058 -1.01124,-1.01124 z M 5.5998326,85.529959 c 0,-0.617979 0.102011,-0.870789 0.2266911,-0.561799 0.1246802,0.308989 0.1246802,0.814609 0,1.123599 -0.1246801,0.30899 -0.2266911,0.05618 -0.2266911,-0.5618 z m 28.3147094,0 c 0,-0.617979 0.10201,-0.870789 0.226691,-0.561799 0.12468,0.308989 0.12468,0.814609 0,1.123599 -0.124681,0.30899 -0.226691,0.05618 -0.226691,-0.5618 z M 5.5998326,81.934441 c 0,-0.61798 0.102011,-0.87079 0.2266911,-0.5618 0.1246802,0.30899 0.1246802,0.81461 0,1.1236 -0.1246801,0.308989 -0.2266911,0.05618 -0.2266911,-0.5618 z m 28.3147094,0 c 0,-0.61798 0.10201,-0.87079 0.226691,-0.5618 0.12468,0.30899 0.12468,0.81461 0,1.1236 -0.124681,0.308989 -0.226691,0.05618 -0.226691,-0.5618 z M 15.191825,79.237802 c 0.447411,-0.494384 0.914598,-0.89888 1.038194,-0.89888 0.123596,0 -0.141343,0.404496 -0.588755,0.89888 -0.447411,0.494384 -0.914598,0.898879 -1.038194,0.898879 -0.123596,0 0.141344,-0.404495 0.588755,-0.898879 z m 8.946094,-0.11236 -0.856178,-1.01124 1.01124,0.856179 c 0.950316,0.804596 1.215843,1.1663 0.856178,1.1663 -0.08529,0 -0.540343,-0.455057 -1.01124,-1.011239 z M 9.124387,74.124273 c 0,-0.09333 0.3539339,-0.44726 0.7865197,-0.786519 0.7128363,-0.559045 0.7287333,-0.543148 0.1696883,0.16969 -0.5871343,0.748654 -0.956208,0.986736 -0.956208,0.616829 z m 20.616904,-0.616829 c -0.559046,-0.712838 -0.543149,-0.728735 0.169688,-0.16969 0.432586,0.339259 0.78652,0.693193 0.78652,0.786519 0,0.369907 -0.369074,0.131825 -0.956208,-0.616829 z M 17.551384,69.50191 c 0.30899,-0.124679 0.814609,-0.124679 1.123599,0 0.30899,0.12468 0.05618,0.226693 -0.5618,0.226693 -0.617979,0 -0.870789,-0.102013 -0.561799,-0.226693 z m 3.595518,0 c 0.30899,-0.124679 0.81461,-0.124679 1.1236,0 0.30899,0.12468 0.05618,0.226693 -0.5618,0.226693 -0.61798,0 -0.87079,-0.102013 -0.5618,-0.226693 z"
         id="path7953" />
      <path
         style="fill:#a3a3a3;fill-opacity:1;stroke-width:0.44944"
         d="M 17.273513,97.639513 C 10.55738,96.286915 5.829885,90.54164 5.829885,83.7322 c 0,-4.008769 1.2671077,-7.033311 4.1574265,-9.923631 2.8903185,-2.890321 5.9148605,-4.157427 9.9236315,-4.157427 4.008771,0 7.033312,1.267106 9.923631,4.157427 2.890319,2.89032 4.157427,5.914862 4.157427,9.923631 0,8.814126 -8.187986,15.625324 -16.718488,13.907313 z m 6.135024,-5.167079 c 7.81377,-3.263998 7.81377,-14.216469 0,-17.480468 -5.956246,-2.488067 -12.89266,2.149626 -12.92596,8.64231 -0.03398,6.625844 6.889444,11.359753 12.92596,8.838158 z m -4.845914,-1.055361 c 0,-1.013146 -0.349885,-1.510365 -1.568966,-2.22964 -4.352381,-2.567969 -4.415306,-8.232389 -0.120541,-10.850938 2.858083,-1.742595 6.56541,-0.706088 8.433533,2.357878 2.158129,3.539613 -0.0092,8.81201 -4.591282,11.168904 -2.139269,1.10039 -2.152744,1.097595 -2.152744,-0.446204 z"
         id="path7951" />
      <path
         style="fill:#333333;fill-opacity:1;stroke-width:0.44944"
         d="M 7.7760675,49.574773 V 34.743259 H 27.10198 46.427892 V 49.574773 64.406288 H 27.10198 7.7760675 Z M 41.625961,61.192928 c 0.539931,-0.284199 1.130282,-0.739257 1.31189,-1.01124 0.181609,-0.271987 0.333295,-5.084189 0.33708,-10.693791 0.0068,-10.033892 -0.0093,-10.210614 -0.992,-10.898914 -1.495916,-1.04778 -28.865986,-1.04778 -30.361902,0 -0.982686,0.6883 -0.998771,0.865022 -0.992,10.898914 0.0038,5.609602 0.155471,10.418806 0.337079,10.687121 0.92796,1.371017 2.341691,1.507511 15.753059,1.520963 9.421878,0.0094 13.927945,-0.145735 14.606794,-0.503053 z m -16.77118,-3.415667 c 0,-0.741049 -1.401214,-1.077617 -2.093707,-0.502896 -0.48192,0.399957 -1.080416,0.391674 -2.527313,-0.03497 -3.618288,-1.066934 -5.266656,-3.477397 -5.266656,-7.701619 0,-3.423473 1.089542,-5.406487 3.753169,-6.830935 1.680089,-0.898474 2.510423,-0.997269 8.381706,-0.997269 5.871283,0 6.701617,0.0988 8.381706,0.997269 2.663627,1.424448 3.753169,3.407462 3.753169,6.830935 0,4.032221 -1.579991,6.504379 -4.857954,7.601061 -2.163156,0.723715 -9.52412,1.217133 -9.52412,0.63842 z m 7.475822,-5.542972 c 2.222915,-1.373835 2.456381,-2.942119 0.674942,-4.533832 -1.36073,-1.215812 -1.620447,-1.271762 -5.903565,-1.271762 -4.283118,0 -4.542835,0.05595 -5.903565,1.271762 -1.766026,1.577942 -1.553742,3.125507 0.619657,4.517355 2.115311,1.354648 8.331559,1.364392 10.512531,0.01649 z m 21.943682,11.6109 C 54.153821,63.531269 54.10877,56.90547 54.174177,49.121199 l 0.118912,-14.15322 H 73.619002 92.944914 V 49.574773 64.181568 L 73.71911,64.298764 c -15.213053,0.09273 -19.271517,-0.0018 -19.444825,-0.453575 z M 89.164874,60.4239 c 0.785292,-0.970349 0.858681,-1.880505 0.858681,-10.649135 0,-9.336973 -0.02688,-9.619354 -1.026309,-10.78126 -0.969365,-1.126951 -1.172979,-1.174833 -3.669514,-0.862912 l -2.643201,0.330247 1.309951,0.665539 c 2.114241,1.074169 4.166442,3.282161 4.944746,5.320122 0.535179,1.40135 0.683467,3.014445 0.567359,6.171849 -0.143016,3.889187 -0.279026,4.450268 -1.508293,6.222292 -0.884255,1.274679 -2.193284,2.37471 -3.788468,3.183607 -2.392745,1.213331 -2.586652,1.23596 -10.590824,1.23596 -8.004173,0 -8.198079,-0.02265 -10.590825,-1.23596 -1.595183,-0.808897 -2.904213,-1.908928 -3.788468,-3.183607 -1.229267,-1.772024 -1.365276,-2.333105 -1.508293,-6.222292 -0.116108,-3.157404 0.03218,-4.770499 0.56736,-6.171849 0.778304,-2.037961 2.830504,-4.245953 4.944746,-5.320122 l 1.30995,-0.665539 -2.6432,-0.330247 c -2.496535,-0.311921 -2.700149,-0.264039 -3.669514,0.862912 -0.998359,1.160665 -1.02631,1.450304 -1.02631,10.63588 0,9.834939 0.179349,10.911041 1.939499,11.637103 0.540025,0.22276 7.320198,0.363039 15.067052,0.311731 l 14.085193,-0.09329 z M 71.147083,59.85686 c 0,-0.340329 0.182796,-0.360262 0.5618,-0.06126 0.93452,0.737252 3.481122,0.521912 3.496826,-0.295696 0.01159,-0.602671 0.0838,-0.591202 0.471772,0.07491 0.678079,1.164193 1.855557,1.006755 1.680658,-0.224719 -0.170643,-1.201537 -1.967895,-1.501858 -2.390903,-0.399516 -0.23348,0.608438 -0.330959,0.617611 -0.673495,0.06337 -0.27272,-0.441273 -1.079842,-0.618461 -2.529771,-0.555355 -2.002816,0.08716 -3.084173,0.733585 -2.583186,1.544195 0.338432,0.547593 1.966299,0.426779 1.966299,-0.145929 z m 8.314636,-0.625288 c 0,-1.257559 -1.316391,-1.118197 -1.497178,0.1585 -0.115434,0.815203 0.03591,1.015639 0.67416,0.892727 0.468303,-0.09019 0.823018,-0.543256 0.823018,-1.051227 z m -8.924176,-1.923786 c -0.458842,-0.09726 -1.030358,0.01928 -1.270036,0.258944 -0.281412,0.281413 0.01411,0.344051 0.83426,0.176837 0.940659,-0.19179 1.053675,-0.304806 0.435776,-0.435781 z m 8.490777,-2.036848 c 5.663257,-2.190017 6.264935,-7.969791 1.11457,-10.706695 -2.262169,-1.202119 -10.785607,-1.202119 -13.047777,0 -3.145917,1.671741 -4.478497,5.313678 -2.824567,7.719524 1.819579,2.646806 4.128172,3.514777 9.348456,3.514777 2.224727,0 4.65892,-0.237421 5.409318,-0.527606 z"
         id="path7949" />
    </g>
  </g>
</svg>
