<?xml version="1.0" encoding="UTF-8" standalone="no"?>
<!-- Created with Inkscape (http://www.inkscape.org/) -->

<svg
   width="100mm"
   height="100mm"
   viewBox="0 0 100 100"
   version="1.1"
   id="svg8095"
   inkscape:version="1.1.1 (3bf5ae0d25, 2021-09-20)"
   sodipodi:docname="add_list_type_device_7065.svg"
   xmlns:inkscape="http://www.inkscape.org/namespaces/inkscape"
   xmlns:sodipodi="http://sodipodi.sourceforge.net/DTD/sodipodi-0.dtd"
   xmlns="http://www.w3.org/2000/svg"
   xmlns:svg="http://www.w3.org/2000/svg">
  <sodipodi:namedview
     id="namedview8097"
     pagecolor="#505050"
     bordercolor="#ffffff"
     borderopacity="1"
     inkscape:pageshadow="0"
     inkscape:pageopacity="0"
     inkscape:pagecheckerboard="1"
     inkscape:document-units="mm"
     showgrid="false"
     inkscape:zoom="0.58974467"
     inkscape:cx="397.62971"
     inkscape:cy="137.34757"
     inkscape:window-width="1440"
     inkscape:window-height="890"
     inkscape:window-x="-6"
     inkscape:window-y="-6"
     inkscape:window-maximized="1"
     inkscape:current-layer="layer1" />
  <defs
     id="defs8092" />
  <g
     inkscape:label="Laag 1"
     inkscape:groupmode="layer"
     id="layer1">
    <g
       id="g8111"
       transform="translate(0.89728353,-0.89728053)">
      <path
         style="fill:#d0d0d0;fill-opacity:1;stroke-width:0.453594"
         d="m 9.1421109,95.486302 c -0.5642123,-0.719427 -0.5481687,-0.735471 0.1712566,-0.171259 0.4365842,0.342395 0.7937895,0.699601 0.7937895,0.793789 0,0.373326 -0.3724851,0.133044 -0.9650461,-0.62253 z m 20.0159911,0.62253 c 0,-0.09419 0.357205,-0.451394 0.793789,-0.793789 0.719426,-0.564212 0.735469,-0.548168 0.171257,0.171259 -0.592561,0.755574 -0.965046,0.995856 -0.965046,0.62253 z M 8.7463751,75.697106 c 0,-0.09419 0.3572053,-0.451394 0.7937894,-0.79379 0.7194255,-0.564212 0.7354685,-0.548168 0.1712567,0.171259 -0.5925611,0.755574 -0.9650461,0.995857 -0.9650461,0.622531 z"
         id="path8121" />
      <path
         style="fill:#b9b9b9;fill-opacity:1;stroke-width:0.453594"
         d="m 14.899056,30.188339 c -0.246159,-0.646461 -0.194057,-0.698563 0.25392,-0.253919 0.309994,0.307688 0.449362,0.673696 0.309706,0.813352 -0.139655,0.139656 -0.393287,-0.112089 -0.563626,-0.559433 z"
         id="path8119" />
      <path
         style="fill:#a3a3a3;fill-opacity:1;stroke-width:0.453594"
         d="M 16.970822,99.429693 C 10.192613,98.064593 5.4214225,92.266216 5.4214225,85.393837 c 0,-4.045822 1.2788195,-7.098318 4.195853,-10.015354 3.0152755,-3.015275 6.0449235,-4.239588 10.2421505,-4.138963 3.132613,0.0751 4.441529,0.225291 4.762737,0.546499 0.124738,0.124739 1.043266,0.633009 2.041172,1.12949 0.997907,0.496481 1.980009,1.164158 2.182449,1.483719 0.202441,0.319566 0.564703,0.459505 0.805028,0.310975 0.240325,-0.148529 0.381578,-0.101791 0.313895,0.10386 -0.06768,0.20565 0.433548,1.102337 1.113847,1.992638 2.722983,3.563538 3.491272,8.93419 1.941542,13.572188 -2.059547,6.16377 -9.513165,10.367151 -16.049274,9.050804 z m 1.301026,-6.053156 c 0,-1.281598 -0.26807,-1.700941 -1.583468,-2.477045 -4.39261,-2.591704 -4.456116,-8.30848 -0.121655,-10.951231 3.936773,-2.400283 9.428856,0.779832 9.404562,5.445576 -0.01685,3.23647 -2.962652,7.334178 -6.275649,8.729647 l -1.196993,0.504187 1.11405,0.189616 c 1.719754,0.292709 4.400494,-0.696457 6.222178,-2.295915 5.339279,-4.687948 3.913423,-13.197533 -2.672322,-15.948553 -4.604928,-1.923588 -10.028251,0.284557 -12.195442,4.96547 -2.1611938,4.667957 1.21e-4,10.294182 4.809972,12.52107 2.42002,1.120431 2.494767,1.099974 2.494767,-0.682822 z"
         id="path8117" />
      <path
         style="fill:#494949;fill-opacity:1;stroke-width:0.453594"
         d="m 14.714716,28.694596 c 0,-0.623691 0.102954,-0.878838 0.228787,-0.566992 0.125832,0.311846 0.125832,0.822139 0,1.133985 -0.125833,0.311846 -0.228787,0.0567 -0.228787,-0.566993 z M 43.255323,28.43 c 0.02176,-0.528411 0.129248,-0.635893 0.274047,-0.274046 0.13103,0.327438 0.114915,0.718662 -0.03581,0.869388 C 43.342833,29.176067 43.235627,28.908163 43.255322,28.43 Z M 13.771718,26.16203 c 0.02176,-0.528411 0.129248,-0.635893 0.274047,-0.274046 0.13103,0.327438 0.114915,0.718663 -0.03581,0.869388 -0.150725,0.150726 -0.257932,-0.117178 -0.238237,-0.595342 z m 30.426604,-0.188997 c 0,-0.623692 0.102953,-0.878838 0.228786,-0.566993 0.125832,0.311846 0.125832,0.822139 0,1.133985 -0.125833,0.311846 -0.228786,0.0567 -0.228786,-0.566992 z M 12.917148,23.478266 c 0.0092,-0.74843 0.110903,-0.999692 0.225909,-0.558359 0.115006,0.441331 0.107442,1.053683 -0.01681,1.360781 -0.124251,0.307098 -0.218347,-0.05399 -0.209103,-0.802422 z m 32.152551,-0.944987 c 0.02176,-0.528411 0.129248,-0.635893 0.274047,-0.274046 0.13103,0.327438 0.114915,0.718662 -0.03581,0.869388 -0.150725,0.150725 -0.257932,-0.117179 -0.238236,-0.595342 z M 12.446747,20.9835 c 0,-0.623692 0.102953,-0.878839 0.228786,-0.566993 0.125833,0.311846 0.125833,0.822139 0,1.133985 -0.125833,0.311846 -0.228786,0.0567 -0.228786,-0.566992 z m 33.129164,-0.680391 c 0.0092,-0.74843 0.110903,-0.999692 0.225909,-0.55836 0.115005,0.441332 0.107442,1.053684 -0.01681,1.360782 -0.124252,0.307097 -0.218347,-0.05399 -0.209103,-0.802422 z M 12.045075,17.808342 c 0,-1.122645 0.08846,-1.581909 0.196574,-1.020586 0.108115,0.561322 0.108115,1.47985 0,2.041172 -0.108116,0.561323 -0.196574,0.102059 -0.196574,-1.020586 z M 45.559103,16.44756 c 0,-0.623691 0.102954,-0.878838 0.228787,-0.566992 0.125832,0.311846 0.125832,0.822139 0,1.133985 -0.125833,0.311846 -0.228787,0.0567 -0.228787,-0.566993 z M 12.82872,14.659954 c 0,-0.234753 0.20178,-0.55153 0.448399,-0.703949 0.257124,-0.158912 0.333168,0.02316 0.178267,0.426824 -0.301545,0.785814 -0.626666,0.929589 -0.626666,0.277125 z m 1.756518,-1.50095 C 15.15697,12.42999 16.32292,12.373896 28.873447,12.471602 l 13.665676,0.106387 -13.569614,0.127275 c -9.909458,0.09295 -13.763442,0.27836 -14.288208,0.687403 -0.634969,0.494942 -0.646149,0.46775 -0.09606,-0.233663 z m 28.576417,-0.226797 c -0.564212,-0.719425 -0.548168,-0.735469 0.171257,-0.171256 0.755573,0.592561 0.995856,0.965046 0.622533,0.965046 -0.09419,0 -0.451397,-0.357205 -0.79379,-0.79379 z"
         id="path8115" />
      <path
         style="fill:#333333;fill-opacity:1;stroke-width:0.453594"
         d="m 33.969508,83.919657 c -0.15794,-1.559229 -0.297217,-3.192167 -0.309506,-3.628752 -0.01229,-0.436584 -0.181009,-0.793789 -0.374937,-0.793789 -0.524672,0 -1.574287,-2.374923 -1.453403,-3.288556 0.06217,-0.469842 -0.192018,-0.793789 -0.622842,-0.793789 -0.400328,0 -1.136391,-0.380597 -1.635696,-0.845772 -0.499304,-0.465169 -1.970619,-1.432399 -3.269589,-2.149391 -2.106188,-1.162556 -2.80353,-1.304187 -6.444109,-1.308804 -2.503921,-0.0032 -4.301571,-0.211874 -4.649337,-0.539768 -0.433513,-0.408742 -0.566993,-4.439822 -0.566993,-17.12317 0,-16.286183 0.01654,-16.588579 0.907188,-16.588579 0.503993,0 0.907188,-0.302396 0.907188,-0.680391 0,-0.374215 -0.218916,-0.680391 -0.48648,-0.680391 -0.301124,0 -0.442568,-0.947965 -0.37123,-2.488002 0.06339,-1.368401 -0.02387,-2.627124 -0.193911,-2.797163 -0.170039,-0.170037 -0.309161,-0.686144 -0.309161,-1.146904 0,-0.460759 -0.180303,-1.192179 -0.400673,-1.625378 -1.322172,-2.599102 -2.32089,-6.956951 -2.32089,-10.127069 0,-1.297821 0.332579,-2.036412 1.395673,-3.099506 l 1.395674,-1.395674 13.913121,0.01009 c 12.627567,0.0092 14.009943,0.08458 14.960981,0.816312 1.22938,0.945889 1.984388,3.728944 1.621623,5.977511 -0.340611,2.111255 -1.524593,6.803093 -2.003121,7.937893 -0.879869,2.086556 -0.963408,2.948361 -0.285799,2.948361 0.445174,0 0.589241,0.303056 0.431257,0.907188 -0.132637,0.507203 -0.01392,0.907188 0.269262,0.907188 0.278574,-2e-6 0.506497,0.714408 0.506497,1.587576 0,0.873169 -0.204117,1.587579 -0.453594,1.587579 -0.249476,0 -0.453594,0.306176 -0.453594,0.680391 0,0.374215 0.204118,0.680391 0.453594,0.680391 0.294836,0 0.453594,6.350315 0.453594,18.143757 0,17.84136 -0.01512,18.143757 -0.907188,18.143757 -1.106673,0 -1.139075,0.286889 -0.144543,1.279784 0.71404,0.712863 0.396052,0.769481 -4.989533,0.888341 -5.377746,0.118687 -5.752178,0.18512 -5.752178,1.020586 0,0.491496 0.204117,0.893634 0.453594,0.893634 0.249477,0 0.453594,-0.204117 0.453594,-0.453594 0,-0.520417 1.500561,-0.616211 1.989749,-0.127024 0.179614,0.179614 0.774956,0.332702 1.322982,0.340195 0.789098,0.0108 1.025984,0.320342 1.138549,1.487807 0.126958,1.316747 0.01797,1.47418 -1.020587,1.47418 -1.124862,0 -1.162723,0.09305 -1.162723,2.857642 0,2.570281 -0.487101,3.946267 -1.396983,3.946267 -0.169596,0 -0.437581,-1.275733 -0.59552,-2.834962 z M 31.97193,71.445824 c 1.563381,-1.807812 1.745358,-3.754393 1.709549,-18.28673 -0.01944,-7.889118 -0.150431,-14.783941 -0.291091,-15.321829 -0.234837,-0.898018 -0.550298,-0.977978 -3.858365,-0.977978 -2.286241,0 -3.500185,0.165741 -3.322282,0.453594 0.154185,0.249477 0.06417,0.453594 -0.200027,0.453594 -0.328385,0 -0.480364,4.735815 -0.480364,14.968599 0,10.641132 0.145166,14.9686 0.502124,14.9686 0.276168,0 0.378958,0.320963 0.228423,0.713249 -0.299142,0.779551 0.222797,1.989672 1.340055,3.106928 0.961557,0.96156 3.512324,0.916033 4.371978,-0.07803 z M 32.2429,34.889753 c -1.323079,-1.323079 -2.578402,-1.719394 -3.64243,-1.149944 -2.590653,1.386475 -2.37663,1.758696 1.011226,1.758696 2.710502,0 3.140478,-0.09948 2.631204,-0.608752 z m 7.710737,-4.925094 c 0.320534,-0.320533 0.544085,-1.859014 0.543759,-3.74215 -4.53e-4,-2.707928 -0.164908,-3.388936 -1.073362,-4.44522 l -1.072807,-1.247383 h -9.15312 c -9.113335,0 -9.157959,0.0048 -10.266487,1.113366 -0.993677,0.993678 -1.113366,1.497556 -1.113366,4.687138 0,1.965573 0.136078,3.709848 0.302396,3.876166 0.576488,0.576489 21.24358,0.347491 21.832987,-0.241917 z m 25.807267,56.500454 c -0.173408,-0.173405 -0.315288,-1.78384 -0.315288,-3.578739 0,-3.236433 -0.0094,-3.261662 -1.133985,-3.046681 -1.013383,0.193721 -1.133985,0.06643 -1.133985,-1.196885 0,-1.114439 0.193322,-1.413662 0.913343,-1.413662 0.502338,0 1.345478,-0.255146 1.873638,-0.566992 0.768239,-0.453594 1.001363,-0.453594 1.165632,0 0.320591,0.885261 1.579056,0.682146 1.405216,-0.226797 -0.132567,-0.693123 -0.89896,-0.822552 -6.043382,-1.020586 L 56.600534,75.187974 56.482741,53.240437 c -0.08243,-15.359257 0.03089,-22.126688 0.377526,-22.544353 0.364621,-0.439341 0.260698,-1.290813 -0.393842,-3.226928 -2.235366,-6.612162 -2.814251,-9.132201 -2.814251,-12.25121 0,-2.846819 0.111366,-3.280537 0.907188,-3.533122 0.498953,-0.158361 0.907188,-0.553644 0.907188,-0.878405 0,-0.964557 2.703292,-1.1527835 16.556178,-1.1527835 13.782637,0 16.556178,0.1901089 16.556178,1.1348205 0,0.314882 0.291888,0.684519 0.648635,0.821417 0.958426,0.367781 1.387952,4.210527 0.789811,7.065959 -0.593092,2.8313 -2.238445,8.458697 -2.865203,9.799485 -0.245925,0.526098 -0.46727,10.643205 -0.520998,23.81368 l -0.09342,22.898977 -6.010119,0.126566 c -5.63541,0.118669 -6.01012,0.182299 -6.01012,1.020586 0,0.985442 0.722544,1.221157 1.018809,0.332362 0.148828,-0.446481 0.440004,-0.446481 1.419926,0 0.677986,0.308911 1.631332,0.561658 2.118546,0.561658 0.689241,0 0.885847,0.313751 0.885847,1.413662 0,1.257272 -0.123469,1.390057 -1.1161,1.200305 -1.097915,-0.209883 -1.118236,-0.157166 -1.247383,3.235676 l -0.131284,3.449033 -5.694831,0.12629 c -3.132161,0.06946 -5.836715,-0.0156 -6.01012,-0.188999 z m 7.714046,-3.777816 c 0.128317,-0.490694 0.6195,-1.01474 1.091519,-1.164553 1.061246,-0.336825 1.114294,-1.834347 0.100875,-2.847767 -0.550754,-0.550754 -0.808527,-0.603783 -0.944991,-0.194397 -0.222247,0.666752 -4.009167,0.776013 -4.41013,0.127242 -0.29377,-0.475334 -2.052231,0.816996 -2.052231,1.508227 0,0.229528 0.663381,1.090236 1.47418,1.912684 1.773829,1.799321 4.348918,2.157038 4.740778,0.658564 z m 0.135357,-6.365338 c 0,-0.772788 -0.302398,-0.907188 -2.041173,-0.907188 -1.738775,0 -2.041173,0.1344 -2.041173,0.907188 0,0.772788 0.302398,0.907187 2.041173,0.907187 1.738775,0 2.041173,-0.134399 2.041173,-0.907187 z m -0.815735,-7.824496 c 0.682655,-1.20753 1.07949,-23.822674 0.49547,-28.236222 -0.339442,-2.565252 -0.435455,-2.730162 -1.671689,-2.871284 -0.744951,-0.08504 -1.476797,0.11092 -1.694032,0.453594 -0.210359,0.331823 -0.385596,7.178145 -0.389415,15.214047 -0.0069,14.450568 0.0041,14.620874 0.985773,15.535592 1.25944,1.173347 1.563692,1.160538 2.273893,-0.09573 z M 83.098194,28.218676 c 0.789558,-3.681591 0.630156,-5.591965 -0.575107,-6.892467 l -1.066286,-1.150543 -9.503759,-0.0708 c -8.985519,-0.06694 -9.548655,-0.02118 -10.327204,0.839105 -1.090658,1.205165 -1.410351,4.403332 -0.725514,7.258037 l 0.553429,2.306962 h 10.576631 10.576627 z"
         id="path8113" />
    </g>
  </g>
</svg>
