<?xml version="1.0" encoding="UTF-8" standalone="no"?>
<!-- Created with Inkscape (http://www.inkscape.org/) -->

<svg
   width="100mm"
   height="100mm"
   viewBox="0 0 100 100"
   version="1.1"
   id="svg3165"
   inkscape:version="1.1.1 (3bf5ae0d25, 2021-09-20)"
   sodipodi:docname="add_list_type_device_6121.svg"
   xmlns:inkscape="http://www.inkscape.org/namespaces/inkscape"
   xmlns:sodipodi="http://sodipodi.sourceforge.net/DTD/sodipodi-0.dtd"
   xmlns="http://www.w3.org/2000/svg"
   xmlns:svg="http://www.w3.org/2000/svg">
  <sodipodi:namedview
     id="namedview3167"
     pagecolor="#505050"
     bordercolor="#ffffff"
     borderopacity="1"
     inkscape:pageshadow="0"
     inkscape:pageopacity="0"
     inkscape:pagecheckerboard="1"
     inkscape:document-units="mm"
     showgrid="false"
     inkscape:zoom="0.58974467"
     inkscape:cx="397.62971"
     inkscape:cy="144.13017"
     inkscape:window-width="1440"
     inkscape:window-height="890"
     inkscape:window-x="-6"
     inkscape:window-y="-6"
     inkscape:window-maximized="1"
     inkscape:current-layer="layer1" />
  <defs
     id="defs3162" />
  <g
     inkscape:label="Laag 1"
     inkscape:groupmode="layer"
     id="layer1">
    <g
       id="g3181"
       transform="translate(0.44864142,-2.6918433)">
      <path
         style="fill:#d0d0d0;fill-opacity:1;stroke-width:0.605218"
         d="m 47.921941,92.574469 c 0.588857,-0.153447 1.405901,-0.143358 1.815653,0.02245 0.409752,0.165787 -0.07204,0.291334 -1.07065,0.278999 -0.998609,-0.01235 -1.333861,-0.147975 -0.745003,-0.301422 z m 0,-18.156534 c 0.588857,-0.153447 1.405901,-0.143358 1.815653,0.02239 0.409752,0.165788 -0.07204,0.291334 -1.07065,0.279 -0.998609,-0.01235 -1.333861,-0.147976 -0.745003,-0.301423 z m -15.56393,-4.975858 c -0.194865,-0.315301 -0.09633,-0.732707 0.218971,-0.927569 0.315298,-0.194868 0.732705,-0.09633 0.927571,0.218968 0.194865,0.3153 0.09633,0.732707 -0.21897,0.927569 -0.315299,0.194868 -0.732706,0.09633 -0.927572,-0.218968 z m 31.471327,0 c -0.194868,-0.315301 -0.09633,-0.732707 0.218968,-0.927569 0.3153,-0.194868 0.732707,-0.09633 0.927569,0.218968 0.194868,0.3153 0.09633,0.732707 -0.218968,0.927569 -0.3153,0.194868 -0.732707,0.09633 -0.927569,-0.218968 z M 29.93714,67.021206 c -0.194865,-0.315301 -0.09633,-0.732707 0.21897,-0.927569 0.315299,-0.194868 0.732706,-0.09633 0.927572,0.218968 0.194865,0.3153 0.09633,0.732706 -0.21897,0.927568 -0.315299,0.194868 -0.732706,0.09633 -0.927572,-0.218967 z m 36.313069,0 c -0.194868,-0.315301 -0.09633,-0.732707 0.218968,-0.927569 0.3153,-0.194868 0.732707,-0.09633 0.927569,0.218968 0.194868,0.3153 0.09633,0.732706 -0.218968,0.927568 -0.3153,0.194868 -0.732707,0.09633 -0.927569,-0.218967 z M 6.7222954,50.931243 c 0.012334,-0.998609 0.1479745,-1.333861 0.3014239,-0.745004 0.1534487,0.588857 0.1433573,1.405901 -0.022423,1.815653 -0.1657855,0.409752 -0.2913349,-0.07204 -0.2790009,-1.070649 z m 18.1565336,0 c 0.01233,-0.998609 0.147974,-1.333861 0.301424,-0.745004 0.153448,0.588857 0.143357,1.405901 -0.02242,1.815653 -0.165785,0.409752 -0.291335,-0.07204 -0.279,-1.070649 z m 20.345939,1.099612 c 0.436892,-0.17483 0.958892,-0.153329 1.160001,0.04778 0.201109,0.201109 -0.156348,0.344151 -0.794348,0.317872 -0.705044,-0.02904 -0.848455,-0.172451 -0.365653,-0.365652 z m 26.861048,-1.099612 c 0.01235,-0.998609 0.147976,-1.333861 0.301423,-0.745004 0.153447,0.588857 0.143358,1.405901 -0.02239,1.815653 -0.165818,0.409752 -0.291364,-0.07204 -0.27903,-1.070649 z M 29.93714,35.549881 c -0.194865,-0.315298 -0.09633,-0.732706 0.21897,-0.927571 0.315299,-0.194865 0.732706,-0.09633 0.927572,0.21897 0.194865,0.315299 0.09633,0.732706 -0.21897,0.927571 -0.315299,0.194865 -0.732706,0.09633 -0.927572,-0.21897 z m 36.313069,0 c -0.194868,-0.315298 -0.09633,-0.732706 0.218968,-0.927571 0.3153,-0.194865 0.732707,-0.09633 0.927569,0.21897 0.194868,0.315299 0.09633,0.732706 -0.218968,0.927571 -0.3153,0.194865 -0.732707,0.09633 -0.927569,-0.21897 z M 32.358011,33.12901 c -0.194865,-0.315298 -0.09633,-0.732706 0.218971,-0.927571 0.315298,-0.194865 0.732705,-0.09633 0.927571,0.21897 0.194865,0.315298 0.09633,0.732706 -0.21897,0.927571 -0.315299,0.194865 -0.732706,0.09633 -0.927572,-0.21897 z m 31.471327,0 c -0.194868,-0.315298 -0.09633,-0.732706 0.218968,-0.927571 0.3153,-0.194865 0.732707,-0.09633 0.927569,0.21897 0.194868,0.315298 0.09633,0.732706 -0.218968,0.927571 -0.3153,0.194865 -0.732707,0.09633 -0.927569,-0.21897 z M 48.250857,27.216926 c 0.436892,-0.17483 0.958892,-0.153329 1.160001,0.04778 0.201108,0.201109 -0.156348,0.344151 -0.794348,0.317872 -0.705044,-0.02904 -0.848455,-0.172451 -0.365653,-0.365652 z M 47.921941,9.0544146 c 0.588857,-0.1534487 1.405901,-0.1433573 1.815653,0.022423 0.409752,0.1657855 -0.07204,0.2913349 -1.07065,0.2790006 C 47.668335,9.3435048 47.333083,9.207864 47.921941,9.0544146 Z"
         id="path3197" />
      <path
         style="fill:#b9b9b9;fill-opacity:1;stroke-width:0.605218"
         d="m 16.287793,93.972292 c 0,-0.127611 0.545072,-0.374558 1.211271,-0.548776 0.666199,-0.174211 1.058648,-0.06981 0.872109,0.232023 -0.32576,0.52709 -2.08338,0.794312 -2.08338,0.316753 z m 30.752629,-5.023151 c 0.436891,-0.174829 0.958891,-0.153331 1.16,0.04775 0.201109,0.201108 -0.156348,0.344151 -0.794348,0.317873 -0.705044,-0.02905 -0.848455,-0.172451 -0.365652,-0.365649 z m 2.420871,0 c 0.436891,-0.174829 0.958892,-0.153331 1.160001,0.04775 0.201108,0.201108 -0.156349,0.344151 -0.794349,0.317873 -0.705044,-0.02905 -0.848455,-0.172451 -0.365652,-0.365649 z m -16.83262,-2.612658 c 0,-0.33287 0.288422,-0.605218 0.640936,-0.605218 0.352515,0 0.472616,0.272348 0.266891,0.605218 -0.205725,0.33287 -0.494146,0.605218 -0.640936,0.605218 -0.14679,0 -0.266891,-0.272348 -0.266891,-0.605218 z m 14.411749,-6.465608 c 0.436891,-0.174829 0.958891,-0.153332 1.16,0.04775 0.201109,0.201108 -0.156348,0.344151 -0.794348,0.317873 -0.705044,-0.02905 -0.848455,-0.172451 -0.365652,-0.365648 z m 2.420871,0 c 0.436891,-0.174829 0.958892,-0.153332 1.160001,0.04775 0.201108,0.201108 -0.156349,0.344151 -0.794349,0.317873 -0.705044,-0.02905 -0.848455,-0.172451 -0.365652,-0.365648 z m 38.696111,-8.460442 c 0.416088,-0.167894 1.096958,-0.167894 1.513045,0 0.416087,0.167893 0.07565,0.305265 -0.756522,0.305265 -0.832175,0 -1.17261,-0.137372 -0.756523,-0.305265 z M 47.040422,70.792608 c 0.436891,-0.174829 0.958891,-0.153332 1.16,0.04775 0.201109,0.201114 -0.156348,0.344151 -0.794348,0.317872 -0.705044,-0.02905 -0.848455,-0.17245 -0.365652,-0.365648 z m 2.420871,0 c 0.436891,-0.174829 0.958892,-0.153332 1.160001,0.04775 0.201108,0.201114 -0.156349,0.344151 -0.794349,0.317872 -0.705044,-0.02905 -0.848455,-0.17245 -0.365652,-0.365648 z m 43.179498,-3.217876 c 0,-0.832175 0.137372,-1.17261 0.305266,-0.756522 0.167893,0.416087 0.167893,1.096957 0,1.513044 -0.167894,0.416087 -0.305266,0.07565 -0.305266,-0.756522 z m 0,-9.683485 c 0,-0.832174 0.137372,-1.172609 0.305266,-0.756522 0.167893,0.416087 0.167893,1.096957 0,1.513045 -0.167894,0.416087 -0.305266,0.07565 -0.305266,-0.756523 z m -4.483387,-4.032131 c 0.416088,-0.167894 1.096958,-0.167894 1.513045,0 0.416087,0.167896 0.07565,0.305264 -0.756522,0.305264 -0.832175,0 -1.17261,-0.137368 -0.756523,-0.305264 z M 19.361662,52.091244 c 0.02904,-0.705044 0.172452,-0.848455 0.365653,-0.365653 0.17483,0.436892 0.153328,0.958892 -0.04778,1.160001 -0.201109,0.201109 -0.344152,-0.156348 -0.317873,-0.794348 z m 9.078267,0 c 0.02904,-0.705044 0.172451,-0.848455 0.365653,-0.365653 0.174829,0.436892 0.153328,0.958892 -0.04778,1.160001 -0.201109,0.201109 -0.344152,-0.156348 -0.317873,-0.794348 z m 39.944375,0 c 0.02905,-0.705044 0.172451,-0.848455 0.365648,-0.365653 0.17483,0.436892 0.153332,0.958892 -0.04775,1.160001 -0.201114,0.201109 -0.344151,-0.156348 -0.317873,-0.794348 z m 9.078267,0 c 0.02905,-0.705044 0.17245,-0.848455 0.365648,-0.365653 0.174829,0.436892 0.153332,0.958892 -0.04775,1.160001 -0.201107,0.201109 -0.344151,-0.156348 -0.317872,-0.794348 z m -29.847702,-0.075 c 0.752839,-0.144763 1.842231,-0.139267 2.420872,0.01221 0.578641,0.151481 -0.03732,0.269925 -1.368797,0.263208 -1.331479,-0.0067 -1.804912,-0.130658 -1.052075,-0.275422 z m 40.542535,-0.577995 c 0.416088,-0.167894 1.096958,-0.167894 1.513045,0 0.416087,0.167896 0.07565,0.305264 -0.756522,0.305264 -0.832175,0 -1.17261,-0.137368 -0.756523,-0.305264 z M 19.361662,49.670373 c 0.02904,-0.705045 0.172452,-0.848455 0.365653,-0.365653 0.17483,0.436892 0.153328,0.958892 -0.04778,1.160001 -0.201109,0.201108 -0.344152,-0.156348 -0.317873,-0.794348 z m 9.078267,0 c 0.02904,-0.705045 0.172451,-0.848455 0.365653,-0.365653 0.174829,0.436892 0.153328,0.958892 -0.04778,1.160001 -0.201109,0.201108 -0.344152,-0.156348 -0.317873,-0.794348 z m 39.944375,0 c 0.02905,-0.705045 0.172451,-0.848455 0.365648,-0.365653 0.17483,0.436892 0.153332,0.958892 -0.04775,1.160001 -0.201114,0.201108 -0.344151,-0.156348 -0.317873,-0.794348 z m 9.078267,0 c 0.02905,-0.705045 0.17245,-0.848455 0.365648,-0.365653 0.174829,0.436892 0.153332,0.958892 -0.04775,1.160001 -0.201107,0.201108 -0.344151,-0.156348 -0.317872,-0.794348 z m -39.74705,-1.008697 -1.152932,-1.36174 1.36174,1.152933 c 1.279699,1.083472 1.63726,1.570547 1.152932,1.570547 -0.114844,0 -0.727627,-0.612783 -1.36174,-1.36174 z m 54.92527,-1.059131 c 0,-0.832174 0.137372,-1.172609 0.305266,-0.756522 0.167893,0.416087 0.167893,1.096957 0,1.513044 -0.167894,0.416088 -0.305266,0.07565 -0.305266,-0.756522 z M 33.329452,39.129496 c 0,-0.832174 0.137368,-1.172609 0.305263,-0.756522 0.167895,0.416087 0.167895,1.096957 0,1.513044 -0.167895,0.416088 -0.305263,0.07565 -0.305263,-0.756522 z m 13.71097,-8.281264 c 0.436891,-0.17483 0.958891,-0.153328 1.16,0.04778 0.201109,0.201109 -0.156348,0.344152 -0.794348,0.317873 -0.705044,-0.02904 -0.848455,-0.172452 -0.365652,-0.365653 z m 2.420871,0 c 0.436891,-0.17483 0.958892,-0.153328 1.160001,0.04778 0.201108,0.201109 -0.156349,0.344152 -0.794349,0.317873 -0.705044,-0.02904 -0.848455,-0.172452 -0.365652,-0.365653 z m -2.420871,-9.078266 c 0.436891,-0.17483 0.958891,-0.153329 1.16,0.04778 0.201109,0.201109 -0.156348,0.344151 -0.794348,0.317872 -0.705044,-0.02904 -0.848455,-0.172451 -0.365652,-0.365652 z m 2.420871,0 c 0.436891,-0.17483 0.958892,-0.153329 1.160001,0.04778 0.201108,0.201109 -0.156349,0.344151 -0.794349,0.317872 -0.705044,-0.02904 -0.848455,-0.172451 -0.365652,-0.365652 z"
         id="path3195" />
      <path
         style="fill:#a3a3a3;fill-opacity:1;stroke-width:0.605218"
         d="M 14.319606,98.156919 C 11.003341,97.010909 8.0685485,94.550329 6.185504,91.337161 3.837343,87.330323 3.8284803,81.726454 6.1640018,77.741192 8.0032679,74.60272 11.511132,71.590557 14.042979,70.975596 c 0.981322,-0.238347 1.521324,-0.68173 1.288704,-1.058121 -0.269762,-0.436483 -0.03101,-0.477329 0.73177,-0.125189 0.622692,0.28746 2.42582,0.515131 4.006951,0.505932 1.581132,-0.0092 2.874785,0.13158 2.874785,0.312855 0,0.271906 3.170384,1.798163 4.236524,2.039505 0.426455,0.09654 3.32334,3.030683 3.354066,3.397203 0.01395,0.166435 0.452142,1.119653 0.973753,2.118262 3.333258,6.381416 0.679196,14.972737 -5.798085,18.768675 -3.211818,1.882251 -7.996389,2.395579 -11.391841,1.222201 z M 24.347549,92.211507 C 30.243718,87.714279 29.307751,78.948565 22.591063,75.761289 16.13535,72.697852 8.37578,78.340346 9.1839576,85.510476 10.008103,92.822275 18.580249,96.610442 24.347549,92.211507 Z m -6.84932,0.367797 c 0,-0.539987 -1.089392,-1.987517 -2.420871,-3.216732 -2.090666,-1.930094 -2.420871,-2.584171 -2.420871,-4.795328 0,-5.5597 6.416954,-8.247799 10.335257,-4.329492 3.770221,3.770216 1.359309,10.802078 -4.434384,12.933679 -0.733577,0.269897 -1.059131,0.08789 -1.059131,-0.592127 z m 27.726539,-3.630163 c 0.436892,-0.174829 0.958892,-0.153331 1.160001,0.04775 0.201109,0.201108 -0.156348,0.344151 -0.794348,0.317873 -0.705044,-0.02905 -0.848455,-0.172451 -0.365653,-0.365649 z m 6.052178,0 c 0.436892,-0.174829 0.958892,-0.153331 1.160001,0.04775 0.201108,0.201108 -0.156348,0.344151 -0.794348,0.317873 -0.705045,-0.02905 -0.848455,-0.172451 -0.365653,-0.365649 z m -6.090004,-1.197828 c 0.416087,-0.167894 1.096957,-0.167894 1.513045,0 0.416087,0.167893 0.07565,0.305265 -0.756523,0.305265 -0.832174,0 -1.172609,-0.137372 -0.756522,-0.305265 z m 5.44696,0 c 0.416087,-0.167894 1.096957,-0.167894 1.513045,0 0.416087,0.167893 0.07565,0.305265 -0.756523,0.305265 -0.832174,0 -1.172609,-0.137372 -0.756522,-0.305265 z M 75.599135,82.47667 c 0,-0.125673 0.476609,-0.602282 1.059132,-1.059131 0.959911,-0.752812 0.981318,-0.731406 0.228506,0.228506 -0.790639,1.008142 -1.287638,1.328744 -1.287638,0.830625 z m 3.026089,-3.026089 c 0,-0.125673 0.476609,-0.602282 1.059131,-1.059131 0.959912,-0.752812 0.981319,-0.731406 0.228506,0.228506 -0.790638,1.008142 -1.287637,1.328744 -1.287637,0.830625 z M 45.829986,78.660439 c 0.436892,-0.174829 0.958892,-0.153332 1.160001,0.04775 0.201108,0.201108 -0.156348,0.344151 -0.794348,0.317872 -0.705045,-0.02905 -0.848455,-0.17245 -0.365653,-0.365648 z m 4.841742,0 c 0.436892,-0.174829 0.958892,-0.153332 1.160001,0.04775 0.201109,0.201108 -0.156348,0.344151 -0.794348,0.317872 -0.705044,-0.02905 -0.848455,-0.17245 -0.365653,-0.365648 z m -21.75156,-6.092661 c -0.752813,-0.959911 -0.731406,-0.981318 0.228503,-0.228506 1.00814,0.790639 1.328743,1.287638 0.830628,1.287638 -0.125677,0 -0.602286,-0.476609 -1.059131,-1.059132 z m 38.205919,0.830626 c 0,-0.125674 0.476609,-0.602283 1.059131,-1.059132 0.959911,-0.752812 0.981318,-0.731405 0.228506,0.228506 -0.790639,1.008142 -1.287637,1.328744 -1.287637,0.830626 z m -40.62679,-3.251497 c -0.752813,-0.959911 -0.731406,-0.981318 0.228503,-0.228506 0.582522,0.456849 1.059131,0.933458 1.059131,1.059131 0,0.498119 -0.496996,0.177517 -1.287634,-0.830625 z m 43.047661,0.830625 c 0,-0.125673 0.476609,-0.602282 1.059131,-1.059131 0.959911,-0.752812 0.981318,-0.731405 0.228506,0.228506 -0.790639,1.008142 -1.287637,1.328744 -1.287637,0.830625 z m -16.34088,-0.684101 c 0,-0.152594 1.349739,-0.961401 2.999421,-1.797358 4.233964,-2.145515 5.473628,-3.661616 5.473628,-6.694223 0,-2.961786 -2.556793,-6.955173 -5.391705,-8.421162 -0.981345,-0.507473 -4.186803,-1.084138 -7.123241,-1.281478 -2.936439,-0.19734 -6.156023,-0.651862 -7.154632,-1.010049 -2.557178,-0.917224 -5.699238,-3.967401 -7.020617,-6.815314 -1.130557,-2.436643 -1.539363,-6.647961 -0.69591,-7.168937 0.249652,-0.154203 0.479026,0.851028 0.50972,2.233848 0.09135,4.115558 3.465396,9.406151 6.904198,10.825966 0.832174,0.343589 4.291971,0.838011 7.688437,1.098717 7.191246,0.551984 9.106428,1.429508 11.719559,5.369828 3.219771,4.855056 2.13297,9.160222 -2.979855,11.804164 -2.48181,1.283395 -4.929003,2.204875 -4.929003,1.855998 z m -19.121863,-5.290875 -1.152933,-1.36174 1.36174,1.152934 c 1.2797,1.083473 1.63726,1.570546 1.152933,1.570546 -0.114845,0 -0.727628,-0.612783 -1.36174,-1.36174 z M 10.283396,53.906897 c 0.02904,-0.705044 0.172451,-0.848455 0.365652,-0.365652 0.17483,0.436891 0.153328,0.958891 -0.04778,1.16 -0.201109,0.201109 -0.344151,-0.156348 -0.317872,-0.794348 z m 1.258216,-0.252174 c 0,-0.832175 0.137368,-1.17261 0.305263,-0.756522 0.167895,0.416087 0.167895,1.096957 0,1.513044 -0.167895,0.416087 -0.305263,0.07565 -0.305263,-0.756522 z m 9.030486,-0.353044 c 0.02904,-0.705044 0.172451,-0.848454 0.365652,-0.365652 0.17483,0.436891 0.153329,0.958892 -0.04778,1.160001 -0.201109,0.201108 -0.344151,-0.156349 -0.317872,-0.794349 z m 55.680037,0 c 0.02905,-0.705044 0.172451,-0.848454 0.365649,-0.365652 0.174829,0.436891 0.153331,0.958892 -0.04775,1.160001 -0.201114,0.201108 -0.344151,-0.156349 -0.317873,-0.794349 z M 11.541612,48.207763 c 0,-0.832175 0.137368,-1.17261 0.305263,-0.756522 0.167895,0.416087 0.167895,1.096957 0,1.513044 -0.167895,0.416087 -0.305263,0.07565 -0.305263,-0.756522 z m 9.030486,0.252174 c 0.02904,-0.705044 0.172451,-0.848455 0.365652,-0.365652 0.17483,0.436891 0.153329,0.958891 -0.04778,1.16 -0.201109,0.201109 -0.344151,-0.156348 -0.317872,-0.794348 z m 55.680037,0 c 0.02905,-0.705044 0.172451,-0.848455 0.365649,-0.365652 0.174829,0.436891 0.153331,0.958891 -0.04775,1.16 -0.201114,0.201109 -0.344151,-0.156348 -0.317873,-0.794348 z M 10.283396,47.854719 c 0.02904,-0.705044 0.172451,-0.848454 0.365652,-0.365652 0.17483,0.436891 0.153328,0.958892 -0.04778,1.160001 -0.201109,0.201108 -0.344151,-0.156349 -0.317872,-0.794349 z m 52.246055,-11.297398 -1.152933,-1.36174 1.36174,1.152932 c 1.279696,1.083472 1.637259,1.570548 1.152933,1.570548 -0.114846,0 -0.727629,-0.612783 -1.36174,-1.36174 z M 25.971278,32.243598 c 0,-0.125677 0.476609,-0.602286 1.059131,-1.059131 0.959909,-0.752813 0.981316,-0.731407 0.228503,0.228503 -0.790638,1.00814 -1.287634,1.328742 -1.287634,0.830628 z M 70.074974,31.41297 c -0.752812,-0.95991 -0.731406,-0.981316 0.228506,-0.228503 1.008141,0.790637 1.328743,1.287634 0.830625,1.287634 -0.125673,0 -0.602282,-0.476609 -1.059131,-1.059131 z M 28.392149,29.822727 c 0,-0.125678 0.476609,-0.602287 1.059131,-1.059132 0.959909,-0.752812 0.981316,-0.731406 0.228503,0.228503 -0.790638,1.008141 -1.287634,1.328743 -1.287634,0.830629 z m 39.261954,-0.830629 c -0.752812,-0.959909 -0.731406,-0.981315 0.228506,-0.228503 1.008141,0.790638 1.328743,1.287635 0.830625,1.287635 -0.125674,0 -0.602283,-0.476609 -1.059131,-1.059132 z M 24.760842,28.612291 c 0,-0.125677 0.476609,-0.602286 1.059131,-1.059131 0.95991,-0.752813 0.981316,-0.731406 0.228503,0.228503 -0.790638,1.00814 -1.287634,1.328743 -1.287634,0.830628 z m 46.524567,-0.830628 c -0.752812,-0.959909 -0.731405,-0.981316 0.228506,-0.228503 1.008142,0.790638 1.328744,1.287634 0.830626,1.287634 -0.125674,0 -0.602283,-0.476609 -1.059132,-1.059131 z M 16.893011,23.770549 c 0,-0.125677 0.476609,-0.602286 1.059131,-1.059131 0.959909,-0.752813 0.981316,-0.731407 0.228503,0.228503 -0.790638,1.00814 -1.287634,1.328743 -1.287634,0.830628 z m 62.26023,-0.830628 c -0.752813,-0.95991 -0.731406,-0.981316 0.228506,-0.228503 1.008141,0.790637 1.328743,1.287634 0.830625,1.287634 -0.125674,0 -0.602283,-0.476609 -1.059131,-1.059131 z m -33.323255,0.04048 c 0.436892,-0.17483 0.958892,-0.153329 1.160001,0.04778 0.201108,0.201109 -0.156348,0.344151 -0.794348,0.317872 -0.705045,-0.02904 -0.848455,-0.172451 -0.365653,-0.365653 z m 4.841742,0 c 0.436892,-0.17483 0.958892,-0.153329 1.160001,0.04778 0.201109,0.201109 -0.156348,0.344151 -0.794348,0.317872 -0.705044,-0.02904 -0.848455,-0.172451 -0.365653,-0.365653 z M 19.9191,20.74446 c 0,-0.125677 0.476609,-0.602286 1.059131,-1.059131 0.959909,-0.752813 0.981316,-0.731407 0.228503,0.228503 -0.790638,1.00814 -1.287634,1.328743 -1.287634,0.830628 z m 56.208052,-0.830628 c -0.752813,-0.95991 -0.731406,-0.981316 0.228506,-0.228503 0.582522,0.456845 1.059131,0.933454 1.059131,1.059131 0,0.498115 -0.496999,0.177512 -1.287637,-0.830628 z m -30.94021,-5.999089 c 0.416087,-0.167895 1.096957,-0.167895 1.513045,0 0.416087,0.167895 0.07565,0.305263 -0.756523,0.305263 -0.832174,0 -1.172609,-0.137368 -0.756522,-0.305263 z m 5.44696,0 c 0.416087,-0.167895 1.096957,-0.167895 1.513045,0 0.416087,0.167895 0.07565,0.305263 -0.756523,0.305263 -0.832174,0 -1.172609,-0.137368 -0.756522,-0.305263 z m -5.409134,-1.223044 c 0.436892,-0.17483 0.958892,-0.153328 1.160001,0.04778 0.201109,0.201109 -0.156348,0.344152 -0.794348,0.317872 -0.705044,-0.02904 -0.848455,-0.172451 -0.365653,-0.365652 z m 6.052178,0 c 0.436892,-0.17483 0.958892,-0.153328 1.160001,0.04778 0.201108,0.201109 -0.156348,0.344152 -0.794348,0.317872 -0.705045,-0.02904 -0.848455,-0.172451 -0.365653,-0.365652 z"
         id="path3193" />
      <path
         style="fill:#8c8c8c;fill-opacity:1;stroke-width:0.605218"
         d="m 41.147226,91.76735 c -1.472887,-0.309169 -4.002424,-1.002041 -5.621194,-1.53971 -2.570869,-0.853902 -2.892522,-1.142736 -2.542495,-2.283063 0.220398,-0.718019 0.471477,-1.387377 0.557953,-1.487462 0.08648,-0.100091 2.027166,0.436677 4.312644,1.192811 5.928029,1.961251 15.718358,1.951876 21.70673,-0.02076 6.668411,-2.196675 11.149195,-4.883412 15.87801,-9.520657 4.17219,-4.091399 4.425818,-4.242195 5.373668,-3.194836 0.932386,1.030281 0.869317,1.242712 -1.005418,3.386248 -1.100123,1.257861 -3.177841,3.20858 -4.617152,4.334933 -1.439311,1.126359 -2.616925,2.299912 -2.616925,2.607895 0,0.307984 -0.298318,0.375605 -0.662926,0.150264 -0.937615,-0.579478 -3.675923,1.014315 -3.322972,1.934088 0.182497,0.475587 -0.04182,0.634959 -0.594929,0.422703 -0.975182,-0.374213 -4.49744,0.88392 -4.49744,1.606459 0,0.248624 -1.702175,0.93718 -3.782611,1.530124 -4.33236,1.234765 -14.566015,1.720392 -18.564943,0.880985 z M 52.60086,90.64866 c 0,-0.291262 -1.770262,-0.529566 -3.933916,-0.529566 -2.163653,0 -3.933915,0.238304 -3.933915,0.529566 0,0.291261 1.770262,0.529565 3.933915,0.529565 2.163654,0 3.933916,-0.238304 3.933916,-0.529565 z M 78.325974,78.464942 c 1.618026,-1.787898 0.751814,-2.069082 -0.913425,-0.296515 -0.780555,0.830862 -1.141579,1.51066 -0.802276,1.51066 0.339303,0 1.111367,-0.546366 1.715701,-1.214145 z m -34.500772,9.069346 c -1.997219,-0.268269 -5.121159,-1.003131 -6.94209,-1.633029 -2.910077,-1.006653 -3.359589,-1.383897 -3.714034,-3.116938 -0.342481,-1.674547 -0.253976,-1.908609 0.587304,-1.553225 5.735122,2.422717 7.550352,2.868127 12.794996,3.139555 7.195604,0.372396 11.398929,-0.472536 17.424054,-3.502492 4.730461,-2.378887 9.139817,-6.098998 12.143204,-10.245054 l 1.654859,-2.284467 0.666678,2.129997 c 0.664456,2.122904 0.652068,2.144607 -3.720383,6.517058 -8.07493,8.074936 -19.717019,12.049989 -30.894588,10.548595 z M 74.694668,75.438853 c 1.618025,-1.787898 0.751813,-2.069082 -0.913425,-0.296514 -0.780556,0.830861 -1.14158,1.510659 -0.802277,1.510659 0.339303,0 1.111368,-0.546366 1.715702,-1.214145 z m -33.510697,6.983354 c -4.831318,-1.168591 -8.924519,-3.281485 -9.854446,-5.086826 -1.2176,-2.363823 -3.833254,-4.84924 -6.100135,-5.796406 -2.497468,-1.043505 -3.537892,-2.210322 -5.548224,-6.222214 -6.19652,-12.366012 -3.708088,-27.208202 6.227503,-37.143793 10.148731,-10.148731 24.798822,-12.444573 37.73635,-5.91373 5.431884,2.742008 11.407907,8.926386 14.048467,14.538271 l 2.093974,4.450249 -1.166575,3.328698 c -0.872676,2.490071 -1.171556,2.915104 -1.186336,1.687053 -0.02923,-2.429889 -2.32538,-8.210709 -4.686153,-11.798025 -3.357264,-5.101526 -7.802794,-8.522629 -14.397967,-11.080107 -5.183411,-2.010024 -14.183558,-2.010024 -19.366969,0 -8.933068,3.464067 -14.445484,8.973807 -17.871058,17.862381 -2.000495,5.190823 -1.996461,14.196162 0.0087,19.366969 3.464066,8.933069 8.973807,14.445483 17.862381,17.871058 5.190822,2.000493 14.196162,1.996463 19.366969,-0.0087 6.590108,-2.555514 11.032418,-5.972501 14.404867,-11.080103 2.013735,-3.04982 4.365866,-8.822844 4.859318,-11.926628 0.132307,-0.832174 0.277644,0.963951 0.322974,3.99139 0.08101,5.410402 0.04291,5.565483 -2.229434,9.078264 C 68.392652,79.848905 54.177091,85.564982 41.183974,82.422231 Z M 73.082567,70.600821 c 0.738305,-0.99861 1.147511,-1.815654 0.909346,-1.815654 -0.617292,0 -3.23452,2.533938 -3.23452,3.131585 0,1.023502 1.024041,0.443945 2.325174,-1.315931 z M 19.625996,59.750177 c -0.224559,-1.022411 -0.658998,-1.85893 -0.965419,-1.85893 -0.698806,0 -0.697745,0.02123 0.118063,2.361453 0.829726,2.380156 1.405501,2.038692 0.847356,-0.502523 z M 75.330152,34.556739 c -0.570992,-0.871443 -1.189476,-1.433138 -1.374401,-1.24821 -0.18493,0.184927 0.130945,1.049231 0.701932,1.920675 0.570993,0.871444 1.189477,1.433139 1.374401,1.248211 0.18493,-0.184927 -0.130945,-1.049232 -0.701932,-1.920676 z M 66.84713,25.517114 c -0.985604,-0.805473 -1.938822,-1.316931 -2.118263,-1.136574 -0.421031,0.423178 2.315206,2.651423 3.220788,2.622835 0.379211,-0.01197 -0.116922,-0.680788 -1.102525,-1.486261 z M 56.504515,21.051101 c -0.888559,-0.814567 -3.903655,-1.383794 -3.903655,-0.73698 0,0.31606 0.612783,0.692682 1.36174,0.836937 2.465092,0.474798 3.13993,0.448261 2.541915,-0.09996 z M 44.43042,78.461898 C 30.605341,76.248761 20.94797,64.926529 20.94797,50.931243 c 0,-15.610971 11.806705,-27.532493 27.417665,-27.684298 12.390921,-0.120491 22.564112,7.022975 26.713903,18.758106 1.697684,4.800868 1.697684,13.051516 0,17.852384 C 70.531593,72.718502 57.597481,80.569702 44.43042,78.461898 Z m 14.872415,-5.298961 c 4.859627,-2.341393 9.651106,-7.197806 11.930707,-12.092392 1.449436,-3.112105 1.621669,-4.188966 1.621669,-10.139302 0,-5.950336 -0.172233,-7.027197 -1.621669,-10.139303 -2.264452,-4.862055 -7.068036,-9.742844 -11.930707,-12.12247 -3.752461,-1.836325 -4.356727,-1.946357 -10.635891,-1.936715 -5.938104,0.0091 -7.033594,0.185435 -10.139302,1.631887 -4.862056,2.264454 -9.742845,7.068036 -12.12247,11.93071 -1.836326,3.752462 -1.946358,4.356727 -1.936715,10.635891 0.0091,5.929116 0.186643,7.036079 1.622926,10.119042 1.751209,3.758946 6.124535,8.82267 9.331613,10.804753 4.445034,2.747186 8.070884,3.622991 14.151775,3.4183 4.987047,-0.167875 6.277206,-0.447758 9.728064,-2.110401 z m -16.082851,0.54227 C 36.586316,71.951304 30.149581,66.590841 27.332783,60.474478 c -2.348095,-5.098628 -2.348095,-13.987843 0,-19.086471 2.083024,-4.523057 7.267869,-9.707901 11.790926,-11.790926 3.040534,-1.400271 4.272095,-1.607753 9.543235,-1.607753 5.271141,0 6.502702,0.207482 9.543236,1.607753 4.523054,2.083025 9.707901,7.267869 11.790927,11.790926 1.400268,3.040535 1.607749,4.272095 1.607749,9.543236 0,5.27114 -0.207481,6.502701 -1.607749,9.543235 -2.111599,4.585096 -7.279674,9.729271 -11.790927,11.736397 -3.739904,1.663938 -11.443966,2.431935 -14.990196,1.494332 z m 9.380876,-1.273603 c 0,-0.339061 -0.836746,-0.430812 -1.966958,-0.215675 -2.758152,0.525014 -2.846015,0.805763 -0.252174,0.805763 1.220523,0 2.219132,-0.26554 2.219132,-0.590088 z m 3.894735,-3.24804 c 6.67549,-3.056138 8.188868,-7.167842 4.619341,-12.550295 -2.613131,-3.94032 -4.528313,-4.817844 -11.719559,-5.369828 -3.396466,-0.260706 -6.856263,-0.755128 -7.688437,-1.098717 -3.448825,-1.423952 -6.813248,-6.712115 -6.904198,-10.851939 l -0.05581,-2.540191 -1.620429,1.552213 c -4.534773,4.343871 -5.872343,14.268923 -2.812107,20.866425 4.720249,10.176294 16.20502,14.559578 26.181196,9.992332 z m 6.393967,-1.306223 c 0.78179,-0.832175 1.169698,-1.503985 0.862018,-1.492909 -0.664693,0.02392 -3.282889,2.136612 -3.282889,2.64905 0,0.78892 1.076604,0.274763 2.420871,-1.156141 z M 67.285894,58.64777 C 69.250843,54.309805 69.132741,47.227172 67.01949,42.671254 64.020726,36.206273 57.860417,31.747323 50.77982,30.916665 c -4.447605,-0.521769 -7.783721,0.47179 -10.82262,3.223185 -3.35165,3.034556 -3.663715,4.975873 -1.471942,9.156767 2.185153,4.168265 4.552855,5.516364 9.688541,5.516364 6.839818,0 9.82218,0.983756 13.053884,4.305927 1.938524,1.992786 3.114868,3.846182 3.60553,5.680723 0.400551,1.497608 0.823272,2.722923 0.939389,2.722923 0.116111,0 0.797096,-1.293653 1.513292,-2.874784 z m 2.866281,-2.203677 c 0,-1.673322 -0.958259,-0.512302 -1.444188,1.749763 -0.367761,1.711976 -0.337663,1.74857 0.527078,0.640847 0.504412,-0.646143 0.91711,-1.721918 0.91711,-2.39061 z m -10.635492,-4.28942 c -0.64144,-0.485279 -1.574776,-0.889193 -2.074081,-0.897585 -0.499305,-0.0084 -0.101854,0.516017 0.883223,1.165356 2.010152,1.325042 3.001567,1.102116 1.190858,-0.267771 z M 48.666944,50.023416 c -0.205725,-0.33287 -1.379276,-0.601047 -2.607893,-0.59595 -1.665101,0.0069 -2.002712,0.15864 -1.326022,0.59595 1.20789,0.780599 4.416352,0.780599 3.933915,0 z m 21.434218,-5.333142 c -0.910466,-2.611762 -1.819769,-1.873047 -0.996467,0.809524 0.359977,1.172923 0.882674,1.90442 1.161546,1.625549 0.278872,-0.278871 0.204588,-1.374653 -0.165079,-2.435073 z m -32.687223,-1.83133 c -0.366934,-1.052587 -0.912858,-1.913794 -1.213165,-1.913794 -0.753915,0 -0.691743,0.383514 0.406441,2.507169 1.195843,2.312504 1.692397,1.947269 0.806724,-0.593375 z m 27.291276,-7.112438 c 0,-0.512437 -2.618196,-2.625128 -3.282888,-2.649053 -0.307681,-0.01107 0.08023,0.660735 0.862017,1.49291 1.344268,1.430907 2.420871,1.945064 2.420871,1.156143 z M 53.508687,29.446012 c -0.205725,-0.33287 -1.379277,-0.586076 -2.607894,-0.56268 -1.800328,0.03428 -1.998941,0.143481 -1.023413,0.56268 1.699497,0.730299 4.082656,0.730299 3.631307,0 z m 18.140991,35.132686 c 0.50785,-0.982081 0.91731,-2.003386 0.909909,-2.269567 -0.02173,-0.780961 -2.379166,2.467382 -2.393952,3.298643 -0.02197,1.234396 0.501127,0.871677 1.484043,-1.029076 z M 75.599135,52.10596 c 0,-1.145399 -0.272348,-2.082544 -0.605217,-2.082544 -0.33287,0 -0.605218,1.105466 -0.605218,2.456589 0,1.483611 0.239708,2.308442 0.605218,2.082545 0.332869,-0.205725 0.605217,-1.31119 0.605217,-2.45659 z m -2.72348,-12.371246 c -0.548393,-1.060477 -1.133252,-1.791966 -1.299687,-1.625531 -0.166434,0.166435 0.146076,1.170272 0.69447,2.230749 0.548394,1.060476 1.133252,1.791965 1.299687,1.625531 0.166435,-0.166435 -0.146076,-1.170273 -0.69447,-2.230749 z m -7.574264,-9.71142 c -2.200608,-1.690814 -3.031082,-1.397741 -0.922436,0.325527 0.985603,0.805472 1.934748,1.321747 2.10922,1.147278 0.174472,-0.174471 -0.359584,-0.837233 -1.186784,-1.472805 z m -10.27966,-4.813807 c 0,-0.332869 -1.021305,-0.57807 -2.269567,-0.544889 -2.025495,0.05384 -2.106852,0.112438 -0.756522,0.544889 2.16338,0.692835 3.026089,0.692835 3.026089,0 z M 10.970221,68.331254 C 8.2217091,61.907926 7.5291723,58.414815 7.5205262,50.931243 7.5136842,45.009341 7.7726321,42.830685 8.9232412,39.129496 13.140322,25.564325 23.300026,15.40462 36.865198,11.18754 c 6.482383,-2.015215 17.121109,-2.015215 23.603493,0 11.126027,3.45881 20.406449,11.313207 25.434174,21.525966 1.961184,3.983733 1.97088,5.205555 0.04129,5.205555 -0.74728,0 -1.798749,-1.448866 -3.394188,-4.677022 C 79.712335,27.500475 72.879795,20.40479 67.428695,17.538396 60.694506,13.997304 56.066421,12.83777 48.666944,12.83777 c -7.399476,0 -12.027561,1.159534 -18.761751,4.700626 -4.725511,2.484854 -12.146242,9.905584 -14.631095,14.631096 -3.541093,6.73419 -4.700627,11.362274 -4.700627,18.761751 0,6.889691 1.108892,11.780292 3.920796,17.292082 l 1.146469,2.247265 -1.340821,0.359457 c -0.737451,0.197706 -1.511542,0.363185 -1.720204,0.36773 -0.208661,0.0048 -0.932932,-1.285392 -1.60949,-2.866523 z M 85.744625,35.004366 c -0.400055,-1.059876 -0.940018,-1.927048 -1.199911,-1.927048 -0.676748,0 -0.59456,0.429346 0.479926,2.50717 1.208359,2.336713 1.678105,1.958222 0.719985,-0.580122 z M 77.115539,22.187109 c -0.604334,-0.66778 -1.376399,-1.214146 -1.715702,-1.214146 -0.339303,0 0.02173,0.679796 0.802277,1.510658 1.665238,1.77257 2.53145,1.491385 0.913425,-0.296512 z M 65.915651,14.750863 c 0,-1.02733 -3.701282,-2.423058 -4.447298,-1.677045 -0.348399,0.348402 0.220179,0.905862 1.487783,1.458678 2.613966,1.139982 2.959515,1.165478 2.959515,0.218367 z m -15.87991,-3.877218 c -0.578641,-0.151481 -1.668033,-0.156977 -2.420872,-0.01221 -0.752837,0.144763 -0.279404,0.268703 1.052075,0.275421 1.331479,0.0067 1.947438,-0.111726 1.368797,-0.263208 z M 90.72958,70.977532 c 0,-0.125673 0.476609,-0.602282 1.059131,-1.059131 0.959912,-0.752812 0.981318,-0.731405 0.228506,0.228506 -0.790638,1.008142 -1.287637,1.328744 -1.287637,0.830625 z m -75.609443,-4.76454 c -2.330984,-5.195878 -3.250434,-9.518625 -3.250434,-15.281749 0,-10.072359 3.675473,-18.98553 10.743592,-26.053649 7.06812,-7.06812 15.981291,-10.743592 26.053649,-10.743592 6.312056,0 10.306361,0.948036 16.582465,3.935797 6.685817,3.182806 12.756012,9.094908 16.003931,15.587119 l 2.249092,4.495664 -1.211355,1.211356 c -0.666248,0.666246 -1.295281,1.090313 -1.397854,0.94237 C 80.790657,40.158366 79.897961,38.273634 78.909459,36.118014 76.435407,30.722878 70.196931,24.203354 64.78928,21.361711 51.074391,14.154742 35.149382,16.600256 24.593389,27.534365 c -6.426833,6.657044 -9.516031,14.252394 -9.516031,23.396878 0,5.74453 1.100212,10.418984 3.633416,15.437229 l 1.830968,3.627131 H 18.67942 c -1.69996,0 -2.010267,-0.329777 -3.559283,-3.782611 z M 13.866922,49.11559 c 0,-1.165045 -0.272348,-2.118263 -0.605218,-2.118263 -0.332869,0 -0.605217,0.953218 -0.605217,2.118263 0,1.165044 0.272348,2.118262 0.605217,2.118262 0.33287,0 0.605218,-0.953218 0.605218,-2.118262 z M 81.596105,36.943866 c -0.381862,-0.961557 -0.815664,-1.422949 -0.964009,-1.025316 -0.291715,0.781927 0.942578,3.489327 1.387795,3.044109 0.148781,-0.148779 -0.04194,-1.057236 -0.423786,-2.018793 z M 17.478981,34.928601 c -0.01539,-0.754259 -0.19744,-0.707865 -0.907827,0.23135 -0.488718,0.646144 -0.879917,1.599362 -0.869331,2.118263 0.01539,0.754259 0.19744,0.707865 0.907827,-0.231351 0.488719,-0.646143 0.879917,-1.599361 0.869331,-2.118262 z m 7.38551,-9.510306 c 0.608733,-0.550896 1.106787,-1.24448 1.106787,-1.541299 0,-0.640875 -2.979413,1.428925 -3.00707,2.089014 -0.03093,0.73832 0.717644,0.522558 1.900283,-0.547715 z m 38.978047,-6.793149 c -0.449725,-0.727667 -2.768629,-1.29055 -2.768629,-0.672047 0,0.546496 1.066999,1.081749 2.305286,1.15643 0.435733,0.02628 0.644237,-0.191693 0.463343,-0.484383 z m 22.347909,46.528715 c 0.602488,-0.66574 1.231606,-1.210436 1.398041,-1.210436 0.166434,0 -0.190335,0.544696 -0.792824,1.210436 -0.602488,0.665739 -1.231606,1.210435 -1.398041,1.210435 -0.166435,0 0.190335,-0.544696 0.792824,-1.210435 z m -0.0575,-4.993047 -1.152934,-1.36174 1.36174,1.152933 c 1.279691,1.083471 1.637253,1.570547 1.152928,1.570547 -0.114846,0 -0.727629,-0.612783 -1.36174,-1.36174 z m 5.124651,-5.144351 c -0.752818,-0.959909 -0.731412,-0.981316 0.2285,-0.228503 1.008142,0.790638 1.328744,1.287634 0.830625,1.287634 -0.125673,0 -0.602282,-0.476609 -1.059131,-1.059131 z M 90.72958,51.005349 c 0,-0.125677 0.476609,-0.602286 1.059131,-1.059131 0.959912,-0.752813 0.981318,-0.731407 0.228506,0.228503 -0.790638,1.00814 -1.287637,1.328743 -1.287637,0.830628 z m -4.539133,-5.823675 c 0.602488,-0.66574 1.231606,-1.210436 1.398041,-1.210436 0.166434,0 -0.190335,0.544696 -0.792824,1.210436 -0.602488,0.66574 -1.231606,1.210436 -1.398041,1.210436 -0.166435,0 0.190335,-0.544696 0.792824,-1.210436 z"
         id="path3191" />
      <path
         style="fill:#767676;fill-opacity:1;stroke-width:0.605218"
         d="m 18.406055,93.599096 c 0.205725,-0.33287 0.494146,-0.605218 0.640936,-0.605218 0.14679,0 0.266891,0.272348 0.266891,0.605218 0,0.33287 -0.288421,0.605218 -0.640936,0.605218 -0.352514,0 -0.472616,-0.272348 -0.266891,-0.605218 z m -1.465264,-0.958259 c 0.02904,-0.705049 0.172451,-0.848455 0.365653,-0.365655 0.17483,0.436889 0.153328,0.958889 -0.04778,1.160003 -0.201109,0.201108 -0.344152,-0.156352 -0.317873,-0.794348 z M 9.07296,84.773006 c 0.029038,-0.705049 0.1724514,-0.848455 0.3656526,-0.365655 0.1748299,0.436889 0.1533283,0.958889 -0.047782,1.160003 -0.201109,0.201108 -0.3441517,-0.156352 -0.3178725,-0.794348 z m 84.125273,-4.841743 c 0.02905,-0.705048 0.172451,-0.848454 0.365648,-0.365654 0.17483,0.436889 0.153332,0.958889 -0.04775,1.160003 -0.201114,0.201108 -0.344151,-0.156352 -0.317873,-0.794349 z m -9.613279,-1.76522 c 0.01235,-0.998609 0.147976,-1.333864 0.301422,-0.745005 0.153447,0.588859 0.143358,1.405903 -0.02245,1.815653 -0.165787,0.409751 -0.291334,-0.07204 -0.278999,-1.070648 z m 5.166296,0.351123 c -0.263252,-1.006689 -0.184488,-1.242984 0.264625,-0.79387 0.351693,0.351692 0.520361,0.996685 0.374818,1.433313 -0.151093,0.453278 -0.425432,0.178932 -0.639443,-0.639443 z"
         id="path3189" />
      <path
         style="fill:#606060;fill-opacity:1;stroke-width:0.605218"
         d="m 68.487827,90.123143 c 2.57974,-0.113448 6.801134,-0.113448 9.380875,0 2.579741,0.113448 0.469044,0.20627 -4.690438,0.20627 -5.159481,0 -7.270178,-0.09282 -4.690437,-0.20627 z M 93.246009,77.863434 c 0,-0.832174 0.137372,-1.172609 0.305266,-0.756522 0.167893,0.416087 0.167893,1.096957 0,1.513044 -0.167894,0.416087 -0.305266,0.07565 -0.305266,-0.756522 z m -5.686766,-2.2437 c 0.752837,-0.144762 1.842229,-0.139266 2.420872,0.01223 0.578642,0.15148 -0.03734,0.269927 -1.368797,0.263209 -1.331479,-0.0067 -1.804911,-0.130661 -1.052075,-0.275423 z m -7.195567,-1.236302 c -0.752812,-0.959912 -0.731406,-0.981319 0.228506,-0.228506 1.008142,0.790638 1.328744,1.287637 0.830625,1.287637 -0.125673,0 -0.602282,-0.476609 -1.059131,-1.059131 z m -0.27371,-16.794794 c -5.38e-4,-6.657395 0.08789,-9.463449 0.196496,-6.235676 0.108607,3.227774 0.109049,8.674734 0.0012,12.104358 -0.108074,3.429618 -0.196938,0.788714 -0.197471,-5.868682 z m 16.946098,0 c -5.39e-4,-6.657395 0.08789,-9.463449 0.196496,-6.235676 0.108607,3.227774 0.109048,8.674734 0.0012,12.104358 -0.108074,3.429618 -0.196938,0.788714 -0.197471,-5.868682 z m -18.968276,1.765219 c 0.02905,-0.705044 0.172451,-0.848455 0.365649,-0.365652 0.174829,0.436891 0.153332,0.958891 -0.04775,1.16 -0.201114,0.201109 -0.344151,-0.156348 -0.317872,-0.794348 z m 3.886134,-19.619143 c 0.602488,-0.66574 1.231606,-1.210436 1.398041,-1.210436 0.166435,0 -0.190335,0.544696 -0.792823,1.210436 -0.602488,0.66574 -1.231606,1.210436 -1.398041,1.210436 -0.166435,0 0.190335,-0.544696 0.792823,-1.210436 z m 5.912391,-0.41941 c 0.588858,-0.153449 1.405902,-0.143358 1.815653,0.02242 0.409751,0.165783 -0.07204,0.291332 -1.070648,0.278998 -0.99861,-0.01233 -1.333864,-0.147975 -0.745005,-0.301424 z m 2.144571,-1.204458 c 0.436888,-0.17483 0.958889,-0.153329 1.160003,0.04778 0.201107,0.201109 -0.156352,0.344151 -0.794349,0.317872 -0.705048,-0.02904 -0.848455,-0.172451 -0.365654,-0.365652 z"
         id="path3187" />
      <path
         style="fill:#494949;fill-opacity:1;stroke-width:0.605218"
         d="m 73.934787,85.902996 c 0.915391,-0.138674 2.413305,-0.138674 3.328697,0 0.915392,0.138667 0.166435,0.252127 -1.664349,0.252127 -1.830783,0 -2.57974,-0.11346 -1.664348,-0.252127 z m 2.730536,-2.415431 c 0.752837,-0.144762 1.842229,-0.139266 2.420872,0.01223 0.578642,0.15148 -0.03734,0.269927 -1.368797,0.263209 -1.331479,-0.0067 -1.804911,-0.13066 -1.052075,-0.275422 z m 5.545399,-10.314569 -1.467235,-1.664349 1.664348,1.467236 c 0.915392,0.806985 1.664349,1.555942 1.664349,1.664349 0,0.47466 -0.490105,0.08835 -1.861462,-1.467236 z m -0.2568,-31.017411 c 0.602488,-0.665739 1.231606,-1.210435 1.398041,-1.210435 0.166435,0 -0.190335,0.544696 -0.792823,1.210435 -0.602488,0.66574 -1.231606,1.210436 -1.398041,1.210436 -0.166435,0 0.190335,-0.544696 0.792823,-1.210436 z m 12.652072,-0.151304 -1.152934,-1.36174 1.36174,1.152932 c 1.279697,1.083472 1.637259,1.570548 1.152934,1.570548 -0.114846,0 -0.727629,-0.612783 -1.36174,-1.36174 z"
         id="path3185" />
      <path
         style="fill:#333333;fill-opacity:1;stroke-width:0.605218"
         d="m 63.49478,89.728789 c 0,-0.184325 0.817044,-0.757642 1.815653,-1.274044 1.033954,-0.53468 1.815654,-0.671652 1.815654,-0.318151 0,0.840079 15.734827,0.819973 17.965829,-0.02294 3.761495,-1.421214 6.848099,-5.77578 6.848099,-9.661285 0,-2.591633 -0.976815,-1.747699 -1.369983,1.183619 -0.411747,3.069816 -2.267218,5.67296 -4.951486,6.946726 -1.689381,0.801665 -3.642993,0.966968 -9.822878,0.831139 -7.693178,-0.169086 -7.709531,-0.172523 -6.033071,-1.269166 1.337852,-0.875145 1.861044,-0.950216 2.562867,-0.367754 1.214212,1.0077 8.246752,0.302693 10.549521,-1.057588 1.888455,-1.115537 3.61807,-4.07507 3.61807,-6.190857 0,-0.698652 -0.272348,-1.270274 -0.605217,-1.270274 -0.33287,0 -0.605218,0.780314 -0.605218,1.734034 0,3.627935 -3.747521,6.122232 -9.210579,6.13042 -1.617378,0.0024 -2.164241,-0.221588 -1.943736,-0.796224 0.193185,-0.50342 0.967894,-0.702573 2.091524,-0.537664 2.573083,0.37765 4.412461,-0.229637 6.244522,-2.061704 2.238712,-2.238713 2.193018,-5.039528 -0.103523,-6.345618 -0.937034,-0.532906 -2.245951,-2.03082 -2.908701,-3.328698 -1.06672,-2.088981 -1.217589,-3.704023 -1.31472,-14.074217 -0.06034,-6.442947 0.08515,-12.026081 0.323331,-12.406964 0.238184,-0.380884 0.490221,-1.070523 0.560081,-1.532532 0.151589,-1.002449 4.545119,-5.617541 4.956352,-5.206303 0.157442,0.157437 0.58366,0.0556 0.947154,-0.226306 1.012087,-0.784908 3.347665,-1.236421 3.672976,-0.710058 0.15939,0.257897 1.354635,0.639177 2.656095,0.847289 3.011309,0.481528 5.814999,3.073298 6.674838,6.170317 0.815603,2.937657 0.885893,22.820921 0.09048,25.594349 -0.318278,1.109788 -1.543844,2.92805 -2.72348,4.040586 -1.715611,1.618031 -2.144783,2.477107 -2.144783,4.293221 0,3.342563 -2.163272,7.306467 -5.020082,9.19862 -2.402496,1.591251 -2.679014,1.62849 -13.544078,1.823787 -6.100335,0.109654 -11.091511,0.04856 -11.091511,-0.135762 z M 89.519144,79.032321 c 0,-2.754279 -1.267059,-1.912748 -2.108252,1.400226 -0.392465,1.545666 -1.068711,3.302105 -1.502773,3.903207 -0.434069,0.601096 0.200841,0.0756 1.410907,-1.167774 1.570087,-1.613311 2.200118,-2.797601 2.200118,-4.135659 z m 3.485534,-4.191708 c 4.039647,-2.463 4.377619,-3.771118 4.379096,-16.949366 0.0018,-13.951397 -0.343988,-15.159824 -4.994542,-17.466485 -3.253348,-1.61365 -5.508752,-1.476544 -8.807383,0.5354 -3.327003,2.029254 -3.746474,3.940971 -3.743926,17.062951 0.0018,10.577094 0.114877,11.854587 1.204904,13.64237 1.612361,2.644481 4.608952,4.377771 7.568491,4.377771 1.350404,0 3.293068,-0.531787 4.39336,-1.202641 z m -6.779916,-4.979677 c -0.518175,-0.7398 -0.942142,-1.781719 -0.942142,-2.31537 0,-1.18737 2.471631,-3.602141 3.68695,-3.602141 1.728424,0 3.575663,1.845255 3.575663,3.571826 0,3.392948 -4.434267,5.03862 -6.320471,2.345685 z m 0.373789,-9.739129 c -1.560227,-1.66079 -1.646235,-2.700088 -0.373789,-4.516766 1.163235,-1.660746 3.919784,-1.784255 5.318842,-0.238314 1.429603,1.579691 1.264391,4.087492 -0.343473,5.213682 -1.857402,1.300979 -3.061252,1.181 -4.60158,-0.458602 z M 86.224762,49.888752 c -0.518175,-0.739806 -0.942142,-1.781723 -0.942142,-2.315374 0,-1.187368 2.471631,-3.60214 3.68695,-3.60214 1.728424,0 3.575663,1.845256 3.575663,3.571824 0,3.392949 -4.434267,5.038619 -6.320471,2.34569 z"
         id="path3183" />
    </g>
  </g>
</svg>
