<?xml version="1.0" encoding="UTF-8" standalone="no"?>
<!-- Created with Inkscape (http://www.inkscape.org/) -->

<svg
   version="1.1"
   id="svg3041"
   width="162"
   height="162"
   viewBox="0 0 162 162"
   sodipodi:docname="add_list_type_device_7160.svg"
   inkscape:version="1.1.1 (3bf5ae0d25, 2021-09-20)"
   xmlns:inkscape="http://www.inkscape.org/namespaces/inkscape"
   xmlns:sodipodi="http://sodipodi.sourceforge.net/DTD/sodipodi-0.dtd"
   xmlns="http://www.w3.org/2000/svg"
   xmlns:svg="http://www.w3.org/2000/svg">
  <defs
     id="defs3045" />
  <sodipodi:namedview
     id="namedview3043"
     pagecolor="#505050"
     bordercolor="#ffffff"
     borderopacity="1"
     inkscape:pageshadow="0"
     inkscape:pageopacity="0"
     inkscape:pagecheckerboard="1"
     showgrid="false"
     inkscape:zoom="4.0864198"
     inkscape:cx="81.122356"
     inkscape:cy="81"
     inkscape:window-width="1440"
     inkscape:window-height="890"
     inkscape:window-x="-6"
     inkscape:window-y="-6"
     inkscape:window-maximized="1"
     inkscape:current-layer="g3047" />
  <g
     inkscape:groupmode="layer"
     inkscape:label="Image"
     id="g3047">
    <path
       style="fill:#000000"
       d="m 37.202341,156.81711 c -5.889471,-0.87269 -12.942284,-6.3474 -15.948374,-12.37983 -5.257008,-10.54944 -2.075259,-22.25038 7.922824,-29.13632 4.945202,-3.40589 5.879997,-3.67985 12.556253,-3.67985 6.532902,0 7.674993,0.31487 12.108422,3.33823 5.692971,3.88231 8.099836,6.85366 9.846855,12.15626 2.273725,6.90126 1.049037,15.05926 -3.104804,20.68198 -2.908598,3.93713 -10.929049,8.75136 -15.337293,9.20611 -2.2,0.22695 -5.819747,0.14299 -8.043883,-0.18658 z m 11.949866,-8.28598 c 6.231114,-3.56312 8.094017,-6.83909 8.094017,-14.23355 0,-4.8829 -0.484647,-7.00678 -2.094017,-9.17667 -2.859631,-3.85559 -9.175765,-7.29043 -13.405983,-7.29043 -4.230218,0 -10.546352,3.43484 -13.405983,7.29043 -1.60937,2.16989 -2.094017,4.29377 -2.094017,9.17667 0,4.8829 0.484647,7.00678 2.094017,9.17667 2.859631,3.85559 9.175765,7.29043 13.405983,7.29043 1.925,0 5.257692,-1.0051 7.405983,-2.23355 z m -9.405939,-1.57717 c 2.5e-5,-0.91101 -1.687475,-3.07318 -3.75,-4.80482 -3.352408,-2.8146 -3.750044,-3.64555 -3.750044,-7.83659 0,-3.89351 0.474165,-5.096 2.797464,-7.09441 4.043346,-3.47794 7.094282,-3.95893 10.932948,-1.7236 6.900152,4.0181 7.405102,12.33419 1.12995,18.60934 -4.078095,4.0781 -7.360385,5.34907 -7.360318,2.85008 z m 81.999952,2.45863 c 0,-0.21174 1.2375,-1.18141 2.75,-2.1548 l 2.75,-1.76981 -1.90499,2.1548 c -1.68575,1.90682 -3.59501,2.84674 -3.59501,1.76981 z m -52.499996,-1.58292 c -2.204748,-0.5846 -0.746785,-0.83088 5.5,-0.92909 5.18644,-0.0815 7.97026,-0.46927 7.1411,-0.99463 -2.14504,-1.35912 -2.69088,-9.4072 -0.74741,-11.02014 2.01706,-1.67401 2.06574,-4.46204 0.10631,-6.08823 -1.0464,-0.86844 -1.5,-3.17346 -1.5,-7.62244 0,-5.71089 0.20907,-6.37756 2,-6.37756 1.1,0 2,-0.45 2,-1 0,-0.55 0.7875,-1.03424 1.75,-1.07608 0.9625,-0.0418 0.175,-0.64498 -1.75,-1.3403 l -3.5,-1.26423 -0.091,-45.90969 c -0.05,-25.250334 0.10738,-47.797711 0.34985,-50.105284 0.41948,-3.99228 0.61772,-4.2143069 4.09099,-4.5818969 2.02956,-0.214796 0.54229,-0.465831 -3.34984,-0.565419 -3.85,-0.09851 -8.656992,-0.453084 -10.682205,-0.787943 -3.566536,-0.5897102 -3.698487,-0.5029795 -4.200556,2.7610049 -0.285094,1.853413 -1.074535,18.868042 -1.754313,37.810287 -0.679779,18.942246 -1.447779,33.804995 -1.706667,33.028332 -0.258887,-0.776663 0.123149,-17.928058 0.84897,-38.11421 L 65.071128,6.9500569 73.658674,6.2319668 c 8.12891,-0.6797383 46.812866,-0.042396 47.640166,0.784901 0.37849,0.3784923 1.35655,25.0954702 3.43393,86.7807152 0.56493,16.774997 1.24892,34.850887 1.51999,40.168627 l 0.49283,9.66864 -3.74968,2.33136 c -3.62702,2.2551 -4.51847,2.33673 -27.249686,2.49515 -12.925,0.0901 -24.85,-0.19418 -26.5,-0.63169 z m 25.86163,-13.53209 c 0.33001,-0.85999 0.0201,-1.5 -0.72635,-1.5 -0.71607,0 -1.30195,0.675 -1.30195,1.5 0,0.825 0.32686,1.5 0.72635,1.5 0.39949,0 0.98536,-0.675 1.30195,-1.5 z m 14.420346,-3 c -0.18492,-1.31161 -1.14247,-2.08012 -2.78198,-2.23277 -2.25043,-0.20953 -2.30035,-0.14168 -0.5,0.67972 1.1,0.50186 1.48564,0.94411 0.85699,0.98276 -1.36478,0.0839 -2.59099,2.88266 -1.81387,4.14005 0.95933,1.55225 4.53631,-1.4601 4.23886,-3.56976 z m -9.09887,-6.6875 c -0.31922,-0.79773 -0.556176,-0.56078 -0.604156,0.60417 -0.0434,1.05416 0.192916,1.64479 0.525216,1.3125 0.33229,-0.3323 0.36781,-1.1948 0.079,-1.91667 z m -0.683106,-16.21995 c 0,-1.67753 -11.08503,-2.73896 -12.18402,-1.16666 -1.31795,1.88558 0.35197,2.57411 6.24304,2.57411 4.44058,0 5.94098,-0.35545 5.94098,-1.40745 z m -37.767997,-6.59255 c 0,-1.924997 0.205795,-2.712497 0.457323,-1.75 0.251527,0.9625 0.251527,2.5375 0,3.5 -0.251528,0.9625 -0.457323,0.175 -0.457323,-1.75 z"
       id="path3051" />
  </g>
</svg>
