<?xml version="1.0" encoding="UTF-8" standalone="no"?>
<!-- Created with Inkscape (http://www.inkscape.org/) -->

<svg
   width="100mm"
   height="100mm"
   viewBox="0 0 100 100"
   version="1.1"
   id="svg796"
   inkscape:version="1.1.1 (3bf5ae0d25, 2021-09-20)"
   sodipodi:docname="add_list_type_device_6067.svg"
   xmlns:inkscape="http://www.inkscape.org/namespaces/inkscape"
   xmlns:sodipodi="http://sodipodi.sourceforge.net/DTD/sodipodi-0.dtd"
   xmlns="http://www.w3.org/2000/svg"
   xmlns:svg="http://www.w3.org/2000/svg">
  <sodipodi:namedview
     id="namedview798"
     pagecolor="#505050"
     bordercolor="#ffffff"
     borderopacity="1"
     inkscape:pageshadow="0"
     inkscape:pageopacity="0"
     inkscape:pagecheckerboard="1"
     inkscape:document-units="mm"
     showgrid="false"
     inkscape:zoom="0.58974467"
     inkscape:cx="397.62971"
     inkscape:cy="205.17354"
     inkscape:window-width="1440"
     inkscape:window-height="890"
     inkscape:window-x="-6"
     inkscape:window-y="-6"
     inkscape:window-maximized="1"
     inkscape:current-layer="layer1" />
  <defs
     id="defs793" />
  <g
     inkscape:label="Laag 1"
     inkscape:groupmode="layer"
     id="layer1">
    <g
       id="g812"
       transform="translate(-0.44863905,-1.3459215)">
      <path
         style="fill:#d0d0d0;fill-opacity:1;stroke-width:0.59414"
         d="m 19.273616,93.717433 c 0,-0.316516 0.401045,-0.421596 0.891211,-0.233503 0.490165,0.188099 0.89121,0.447067 0.89121,0.575496 0,0.128424 -0.401045,0.233503 -0.89121,0.233503 -0.490166,0 -0.891211,-0.258973 -0.891211,-0.575496 z m -4.828907,-4.623231 c -0.739034,-0.942342 -0.718019,-0.963356 0.22432,-0.224323 0.57186,0.448487 1.039746,0.916372 1.039746,1.039745 0,0.489001 -0.4879,0.174268 -1.264066,-0.815422 z M 9.9052149,84.786686 c 0,-1.14372 0.1222711,-1.611606 0.2717141,-1.039746 0.149442,0.57186 0.149442,1.507631 0,2.079491 -0.149443,0.57186 -0.2717141,0.103975 -0.2717141,-1.039745 z m 18.4183471,0 c 0,-1.14372 0.122271,-1.611606 0.271714,-1.039746 0.149442,0.57186 0.149442,1.507631 0,2.079491 -0.149443,0.57186 -0.271714,0.103975 -0.271714,-1.039745 z M 18.233871,75.465024 c 0.57186,-0.149438 1.507631,-0.149438 2.079491,0 0.57186,0.149444 0.103974,0.271718 -1.039746,0.271718 -1.14372,0 -1.611605,-0.122274 -1.039745,-0.271718 z"
         id="path828" />
      <path
         style="fill:#b9b9b9;fill-opacity:1;stroke-width:0.59414"
         d="m 16.897055,94.065154 c 0,-0.125275 0.535096,-0.367702 1.189101,-0.538731 0.654005,-0.171023 1.03927,-0.06853 0.856146,0.227776 -0.319797,0.517442 -2.045247,0.779773 -2.045247,0.310955 z m -4.112076,-9.030908 c 0.02851,-0.692143 0.169295,-0.832925 0.35896,-0.358961 0.17163,0.428892 0.150522,0.941337 -0.04691,1.13877 -0.197428,0.197427 -0.337853,-0.15349 -0.312054,-0.779809 z"
         id="path826" />
      <path
         style="fill:#a3a3a3;fill-opacity:1;stroke-width:0.59414"
         d="M 15.602159,98.230445 C 3.3405958,94.870576 1.6604842,78.190446 12.996043,72.356963 c 2.064853,-1.062608 2.991727,-1.28973 3.163264,-0.775115 0.33439,1.003164 1.657129,0.911916 2.759407,-0.190363 1.248349,-1.248348 5.468927,-0.132647 7.036385,1.860051 0.620722,0.78912 1.640113,1.434766 2.265314,1.434766 1.502659,0 3.902549,3.715937 4.687599,7.258177 2.213094,9.985757 -7.373674,19.007551 -17.305853,16.285966 z M 24.80929,92.336598 C 30.597539,87.921685 29.678704,79.316413 23.084954,76.187474 16.747402,73.180109 9.1298589,78.719326 9.9232441,85.758218 10.732305,92.936186 19.147551,96.655017 24.80929,92.336598 Z m -6.723954,0.361065 c 0,-0.530104 -1.069453,-1.951139 -2.376561,-3.157855 -2.0524,-1.894767 -2.376561,-2.536872 -2.376561,-4.707558 0,-5.457938 6.299502,-8.096836 10.146087,-4.250247 3.701213,3.701208 1.334429,10.604363 -4.35322,12.696949 -0.72015,0.264957 -1.039745,0.08628 -1.039745,-0.581289 z"
         id="path824" />
      <path
         style="fill:#8c8c8c;fill-opacity:1;stroke-width:0.59414"
         d="m 26.049778,73.349486 -1.13183,-1.336815 1.336816,1.131831 c 1.256277,1.063642 1.607292,1.5418 1.13183,1.5418 -0.112742,0 -0.714309,-0.601567 -1.336816,-1.336816 z"
         id="path822" />
      <path
         style="fill:#767676;fill-opacity:1;stroke-width:0.59414"
         d="m 49.027533,64.769519 c -0.06777,-1.022444 0.983663,-1.513596 1.489191,-0.695631 0.256248,0.414615 0.173325,0.537043 -0.20527,0.303059 -0.349357,-0.215916 -0.770604,-0.05668 -0.936105,0.353805 -0.215375,0.534215 -0.314243,0.545236 -0.347816,0.0388 z m 1.905448,-11.175195 c 0.0045,-1.633886 0.119846,-2.231777 0.256411,-1.328646 0.136566,0.90313 0.132916,2.239945 -0.0081,2.970701 -0.141026,0.730755 -0.252761,-0.0082 -0.248301,-1.642055 z M 73.034062,50.772158 C 72.57885,49.515469 72.421723,24.214062 72.871933,24.665455 c 0.38836,0.389378 0.978038,26.85113 0.598335,26.849913 -0.09195,-2.94e-4 -0.288247,-0.334739 -0.436206,-0.74321 z M 27.250625,37.552538 c 4.49e-4,-7.189097 0.08624,-10.048432 0.190652,-6.354078 0.10441,3.694354 0.104042,9.576342 -8.31e-4,13.071085 -0.104844,3.494743 -0.19027,0.472089 -0.189821,-6.717007 z"
         id="path820" />
      <path
         style="fill:#606060;fill-opacity:1;stroke-width:0.59414"
         d="m 28.430072,63.397638 c 0,-5.7186 0.08911,-8.058027 0.198025,-5.198727 0.108915,2.859299 0.108915,7.538154 0,10.397454 -0.108914,2.859299 -0.198025,0.519872 -0.198025,-5.198727 z m 22.502909,-4.456052 c 0.0045,-1.633886 0.119846,-2.231777 0.256411,-1.328646 0.136566,0.90313 0.132916,2.239945 -0.0081,2.970701 -0.141026,0.730755 -0.252761,-0.0082 -0.248301,-1.642055 z M 50.809954,45.226849 c 0.02851,-0.692139 0.169295,-0.832925 0.35896,-0.35896 0.17163,0.428895 0.150522,0.941341 -0.04691,1.138769 -0.197428,0.197428 -0.337852,-0.153486 -0.312054,-0.779809 z"
         id="path818" />
      <path
         style="fill:#494949;fill-opacity:1;stroke-width:0.59414"
         d="m 6.5249742,64.626973 c -0.1880044,-0.3042 -0.1146623,-0.69348 0.1629823,-0.865074 0.2776446,-0.171594 0.5048085,0.07729 0.5048085,0.553085 0,1.001822 -0.1873545,1.08935 -0.6677908,0.311989 z M 46.802113,64.314984 c 0,-0.475793 0.227164,-0.724679 0.504809,-0.553085 0.277644,0.171594 0.350987,0.560874 0.162982,0.865074 -0.480436,0.777361 -0.667791,0.689833 -0.667791,-0.311989 z m 5.471659,0.311989 c -0.188005,-0.3042 -0.114662,-0.69348 0.162982,-0.865074 0.277645,-0.171594 0.504809,0.07729 0.504809,0.553085 0,1.001822 -0.187355,1.08935 -0.667791,0.311989 z m -27.12936,-7.63501 c -0.195736,-1.180686 -0.108545,-1.734956 0.22107,-1.405341 0.299355,0.299355 0.444801,1.176686 0.323212,1.949623 -0.187082,1.189279 -0.270762,1.1056 -0.544282,-0.544282 z m 43.95908,-5.086191 c 0.363952,-0.438538 0.46353,-1.01613 0.221281,-1.283537 -0.242242,-0.267406 -0.09326,-0.285845 0.331079,-0.04097 0.59442,0.343022 0.611822,0.637655 0.07578,1.283537 -0.382656,0.461073 -0.82942,0.838315 -0.992809,0.838315 -0.163388,0 5.94e-4,-0.358803 0.364666,-0.797341 z m -43.294333,-0.02112 c 0,-0.123377 0.467885,-0.591263 1.039745,-1.039746 0.94234,-0.739034 0.963355,-0.718019 0.224321,0.224321 -0.776167,0.989688 -1.264066,1.304422 -1.264066,0.815425 z M 50.878875,42.8998 c 0.01211,-0.980332 0.145266,-1.309447 0.295907,-0.731368 0.15064,0.578079 0.140734,1.380168 -0.02201,1.782421 -0.162751,0.402252 -0.286002,-0.07072 -0.273894,-1.051053 z m -2.445482,-1.237792 c 0.02851,-0.69214 0.169295,-0.832925 0.35896,-0.35896 0.17163,0.428895 0.150522,0.941341 -0.04691,1.138769 -0.197428,0.197427 -0.337853,-0.153487 -0.312055,-0.779809 z M 71.158777,31.611135 c 0.0024,-2.28744 0.110023,-3.150406 0.238643,-1.917704 0.128613,1.232703 0.126456,3.104245 -0.0048,4.158982 -0.131294,1.054737 -0.236528,0.04616 -0.23389,-2.241278 z M 48.576656,25.966803 c 0,-2.124051 0.107834,-2.992981 0.23963,-1.930956 0.131796,1.062026 0.131796,2.799886 0,3.861912 -0.131796,1.062026 -0.23963,0.193096 -0.23963,-1.930956 z"
         id="path816" />
      <path
         style="fill:#333333;fill-opacity:1;stroke-width:0.59414"
         d="m 61.011967,70.91464 c -5.636905,-3.313603 -10.248919,-6.360491 -10.248919,-6.770863 0,-1.050755 -1.154838,-0.930471 -1.574837,0.164024 -0.373498,0.973321 -8.295025,5.6044 -9.608857,5.617525 -1.2654,0.01265 -0.498562,-2.063099 0.796863,-2.157015 0.647712,-0.04694 1.511862,-0.113801 1.920333,-0.148535 0.408472,-0.03476 0.742675,-0.486482 0.742675,-1.003877 0,-0.517401 0.334204,-0.821446 0.742676,-0.675662 1.013203,0.361617 4.27477,-1.344712 3.633109,-1.900702 C 46.623695,63.353867 28.9627,53.297254 28.549879,53.297254 c -0.200288,0 -0.364159,4.678854 -0.364159,10.397454 0,5.718599 -0.213891,10.397454 -0.475313,10.397454 -1.557078,0 -1.901248,-1.789794 -1.901248,-9.887076 0,-4.653629 -0.200523,-8.582792 -0.445605,-8.731473 -0.377772,-0.229179 -14.296712,7.614786 -15.309582,8.627659 -0.1903309,0.190333 1.669266,1.513531 4.132437,2.940447 2.463171,1.426917 4.481772,2.912815 4.48578,3.302 0.0134,1.301066 -1.202969,1.475054 -2.237337,0.320028 -0.562731,-0.628375 -2.96153,-2.264886 -5.330664,-3.636697 -2.369134,-1.37181 -4.3075165,-2.603998 -4.3075165,-2.738202 0,-0.134204 1.8715417,-1.35587 4.1589815,-2.71481 2.28744,-1.358943 4.158982,-2.830819 4.158982,-3.270837 0,-0.440017 2.45044,-2.017648 5.445423,-3.505846 2.994982,-1.488198 5.802295,-3.001993 6.238472,-3.363988 0.616952,-0.512024 0.793049,-3.535891 0.793049,-13.617849 V 24.855842 L 38.69233,18.430175 c 6.105414,-3.534117 11.34889,-6.348861 11.652171,-6.254987 0.303281,0.09387 5.467741,3.021939 11.476578,6.50681 l 10.925158,6.33613 0.0053,13.099817 0.0053,13.099818 10.7649,6.238472 c 5.920691,3.43116 10.761698,6.491582 10.757789,6.800945 C 94.268886,65.100568 73.823319,77.008166 72.449209,76.97127 71.795655,76.95374 66.648915,74.228238 61.01201,70.91464 Z M 71.557956,63.923446 V 52.566449 l -1.336815,0.875282 c -0.735249,0.481405 -5.157458,3.085948 -9.827128,5.787873 -4.669672,2.701926 -8.37482,5.028087 -8.233661,5.169243 0.55773,0.557731 18.534723,10.877507 18.951999,10.879486 0.245083,0.0012 0.445605,-5.108537 0.445605,-11.354887 z m 11.998288,6.076842 c 5.001526,-2.904086 9.035203,-5.510876 8.963722,-5.792867 -0.165783,-0.654018 -17.444248,-10.85757 -18.436914,-10.887657 -0.568188,-0.01722 -0.742675,2.559896 -0.742675,10.969084 0,6.499948 0.229285,10.991594 0.561088,10.991594 0.308597,0 4.653247,-2.376068 9.654779,-5.280154 z M 48.578764,40.880417 c -0.216986,-0.300539 -6.012403,2.749101 -13.155345,6.92255 -3.044973,1.779105 -5.382052,3.388999 -5.193508,3.577543 0.188543,0.188544 4.284064,2.670435 9.101156,5.515314 l 8.75835,5.172507 0.330215,-10.475475 c 0.181618,-5.761513 0.253227,-10.58211 0.159132,-10.712439 z m 11.837159,16.478935 c 4.657623,-2.667502 8.828843,-5.176398 9.269387,-5.575324 0.648634,-0.587365 -0.989939,-1.740813 -8.615034,-6.064422 -6.252833,-3.545501 -9.562656,-5.115533 -9.852524,-4.673594 -0.683854,1.042616 -0.553096,21.163345 0.137532,21.163345 0.325731,0 4.403018,-2.182502 9.060639,-4.850005 z M 71.557956,38.443748 c 0,-7.050995 -0.211846,-10.694524 -0.621821,-10.694524 -0.574492,0 -8.105659,4.277406 -11.763071,6.680958 -0.867572,0.570145 -2.772204,1.588334 -4.232515,2.262644 l -2.655111,1.226016 2.358041,1.470451 c 5.470076,3.411083 16.057299,9.642883 16.468872,9.693825 0.245083,0.03034 0.445605,-4.757382 0.445605,-10.63937 z M 38.73282,43.435293 c 7.034072,-4.177274 8.454781,-5.242983 7.791381,-5.844507 -0.913668,-0.828448 -16.323613,-9.841562 -16.826364,-9.841562 -0.17811,0 -0.323837,4.678854 -0.323837,10.397454 0,5.7186 0.170121,10.397454 0.378048,10.397454 0.207926,0 4.249274,-2.298978 8.980772,-5.108839 z m 11.707785,-4.950491 c 0.188005,-0.304198 0.0701,-0.721021 -0.262005,-0.926275 -0.332108,-0.205253 -0.603832,0.04364 -0.603832,0.553087 0,1.043622 0.356517,1.197287 0.865837,0.373188 z m -1.459977,-9.512233 c 0,-3.575263 -0.232811,-6.644364 -0.517358,-6.820223 -0.284547,-0.17586 -0.646909,-1.668014 -0.80525,-3.315899 -0.158341,-1.647884 -0.444172,-3.152433 -0.635181,-3.343442 -0.191008,-0.191008 -3.63857,1.619571 -7.661248,4.02351 -4.022678,2.403938 -7.8436,4.585549 -8.490938,4.848023 -0.992345,0.402362 -0.433127,0.903732 3.564841,3.196078 2.608001,1.495369 6.613362,3.867427 8.900802,5.271239 2.287439,1.403812 4.493185,2.572366 4.901656,2.596788 0.551593,0.03298 0.742676,-1.628103 0.742676,-6.456074 z m 3.564841,5.934881 c 0,-0.840683 5.223658,-4.278592 6.756715,-4.446879 1.582138,-0.173675 9.879211,-4.91895 9.879211,-5.650134 0,-0.280396 -0.802089,-0.78942 -1.78242,-1.131166 -0.980332,-0.341745 -1.782421,-0.493366 -1.782421,-0.336935 0,0.414403 -6.725096,-3.889151 -7.426753,-4.752561 -0.637199,-0.784093 -5.785658,-3.911636 -6.439207,-3.911636 -0.216373,0 -0.393405,4.678854 -0.393405,10.397454 0,6.535542 0.22068,10.397454 0.59414,10.397454 0.326777,0 0.59414,-0.254519 0.59414,-0.565597 z M 30.56933,74.537767 c 0.0076,-0.805327 7.02238,-4.902887 7.527933,-4.397333 0.57679,0.576791 -0.426875,1.500305 -3.609414,3.321167 -3.555204,2.03408 -3.928585,2.136623 -3.918519,1.076166 z"
         id="path814" />
    </g>
  </g>
</svg>
