<?xml version="1.0" encoding="UTF-8" standalone="no"?>
<!-- Created with Inkscape (http://www.inkscape.org/) -->

<svg
   width="100mm"
   height="100mm"
   viewBox="0 0 100 100"
   version="1.1"
   id="svg2240"
   inkscape:version="1.1.1 (3bf5ae0d25, 2021-09-20)"
   sodipodi:docname="add_list_type_device_610a.svg"
   xmlns:inkscape="http://www.inkscape.org/namespaces/inkscape"
   xmlns:sodipodi="http://sodipodi.sourceforge.net/DTD/sodipodi-0.dtd"
   xmlns="http://www.w3.org/2000/svg"
   xmlns:svg="http://www.w3.org/2000/svg">
  <sodipodi:namedview
     id="namedview2242"
     pagecolor="#ffffff"
     bordercolor="#666666"
     borderopacity="1.0"
     inkscape:pageshadow="2"
     inkscape:pageopacity="0.0"
     inkscape:pagecheckerboard="0"
     inkscape:document-units="mm"
     showgrid="false"
     width="100mm"
     inkscape:zoom="0.58974467"
     inkscape:cx="378.97757"
     inkscape:cy="300.12989"
     inkscape:window-width="1440"
     inkscape:window-height="890"
     inkscape:window-x="-6"
     inkscape:window-y="-6"
     inkscape:window-maximized="1"
     inkscape:current-layer="layer1" />
  <defs
     id="defs2237" />
  <g
     inkscape:label="Laag 1"
     inkscape:groupmode="layer"
     id="layer1">
    <g
       id="g2256"
       transform="translate(3.3534743e-6,-0.44864096)">
      <path
         style="fill:#fafafa;stroke-width:0.443209"
         d="M 1.9325553,50.247737 V 2.3811939 H 49.799098 97.665641 V 50.247737 98.11428 l -37.56194,-0.02309 -37.56194,-0.02309 2.422352,-0.929928 c 7.204006,-2.765573 10.784453,-11.411924 7.762982,-18.746679 -0.602498,-1.462588 -1.096374,-2.709113 -1.097502,-2.770054 -0.0011,-0.06094 0.596279,-0.110802 1.327574,-0.110802 h 1.329626 v -7.669209 -7.669213 l -1.440429,-1.360052 c -1.183677,-1.117631 -1.810797,-1.360802 -3.51828,-1.364228 -2.026465,-0.004 -2.584841,0.2975 -4.237872,2.28881 -0.370294,0.446067 -0.554011,2.308674 -0.554011,5.616784 v 4.949405 L 23.151173,70.025927 C 22.389408,69.873574 20.993301,69.748921 20.048712,69.748921 H 18.331278 V 46.923671 24.098422 H 13.455982 8.5806863 v 25.097709 25.097705 l -1.4365415,2.918029 c -1.9298852,3.920154 -2.1878946,7.97711 -0.7506267,11.802901 1.2992651,3.458446 4.6106029,6.835985 7.9641779,8.1234 l 2.422352,0.929927 -7.4237464,0.02309 -7.4237463,0.0231 z M 48.469472,80.164326 c 0,-4.629067 -0.170569,-7.756153 -0.423065,-7.756153 -0.232684,0 -0.92167,-0.498609 -1.531082,-1.108021 -1.813688,-1.813686 -5.099266,-1.418401 -6.987734,0.840687 -0.67392,0.806183 -0.781213,1.935359 -0.793966,8.355894 l -0.01475,7.423746 h 4.875296 4.875296 z M 77.721248,66.923789 c 0,-16.785378 -0.123478,-21.346669 -0.615634,-22.741594 -0.52538,-1.489075 -0.52538,-1.959566 0,-3.209068 0.44562,-1.059825 0.615634,-3.592055 0.615634,-9.169437 v -7.705268 h -4.875296 -4.875296 v 8.420966 c 0,5.113781 0.167937,8.420966 0.427617,8.420966 0.235189,0 0.653897,0.42281 0.930459,0.939579 0.411608,0.76909 0.334015,1.16794 -0.427612,2.198097 -0.91477,1.237289 -0.930464,1.617674 -0.930464,22.550484 v 21.291965 h 4.875296 4.875296 z M 62.652152,43.599606 V 11.688577 h -4.875297 -4.875296 v 31.911029 31.911029 h 4.875296 4.875297 z m 30.138193,25.27638 c 0,-5.93242 -0.09926,-6.811994 -0.93779,-8.310164 -1.173838,-2.097255 -1.532487,-2.325144 -3.672489,-2.333542 -1.476608,-0.0058 -1.977824,0.268575 -3.428614,1.876851 l -1.699187,1.883637 -0.0062,6.758933 -0.0063,6.758934 h 4.875296 4.875296 z M 47.145031,61.184723 48.469472,59.830052 V 41.964238 24.098422 H 43.594176 38.71888 v 17.865816 17.865814 l 1.32444,1.354671 c 1.129425,1.155202 1.652266,1.354668 3.550856,1.354668 1.89859,0 2.421431,-0.199466 3.550855,-1.354668 z m 41.656436,-4.732064 c 0.365647,-0.236301 0.51523,-0.432691 0.332406,-0.436423 -0.182823,-0.0035 0.01662,-0.39138 0.443209,-0.861434 3.362031,-3.704622 3.339489,-3.61606 3.082051,-12.10817 -0.127489,-4.205513 -0.3019,-8.9106 -0.387581,-10.455749 -0.08568,-1.545148 -0.004,-2.903165 0.181507,-3.017815 0.185505,-0.11465 0.337286,-4.185563 0.337286,-9.046473 v -8.838018 h -4.875296 -4.875296 v 8.775533 c 0,5.202271 0.178724,8.954255 0.438923,9.214455 0.288458,0.288458 0.289925,0.958436 0.0044,1.954405 -0.285639,0.99597 -0.284172,1.665948 0.0044,1.954405 0.572036,0.572035 0.568757,1.280612 -0.0044,0.926452 -0.243765,-0.150655 -0.443209,-0.0627 -0.443209,0.195447 -1.46e-4,0.258151 0.199298,0.469366 0.443063,0.469366 0.243765,0 0.443209,0.398888 0.443209,0.886417 0,0.48753 -0.199444,0.886418 -0.443209,0.886418 -0.277848,0 -0.443209,2.771956 -0.443209,7.429451 0,7.274912 0.0207,7.438553 0.995256,7.866954 0.54739,0.240627 1.276233,1.035837 1.619649,1.767131 0.34342,0.731295 0.842912,1.476156 1.109985,1.655247 0.284669,0.190886 0.302207,0.331237 0.04237,0.339192 -0.42931,0.01316 0.662021,0.872842 1.108022,0.872842 0.121882,0 0.52077,-0.193332 0.886417,-0.429633 z M 32.572683,48.696506 c 0.503387,-0.853176 1.094993,-1.55123 1.314679,-1.55123 0.230445,0 0.399431,-7.500296 0.399431,-17.728349 v -17.72835 h -4.875296 -4.875296 v 17.525451 c 0,11.160921 0.162707,17.719851 0.448032,18.060758 0.246418,0.294414 0.859225,1.083774 1.361794,1.754127 0.781986,1.043056 1.23086,1.218824 3.112585,1.218824 2.043135,0 2.263627,-0.109836 3.114071,-1.551231 z M 15.89363,92.180761 c -1.94153,-0.847389 -4.553842,-3.942142 -4.904248,-5.80997 -0.786507,-4.19244 0.576213,-7.856956 3.723786,-10.013708 1.312857,-0.89958 2.093294,-1.068053 4.947737,-1.068053 3.850311,0 5.641454,0.873715 7.574515,3.694832 0.899584,1.31286 1.068055,2.093297 1.068055,4.947738 0,2.854442 -0.168471,3.634879 -1.068055,4.947739 -1.397257,2.039163 -3.501376,3.447632 -5.634914,3.771932 l -1.717997,0.261143 1.898303,-1.40135 c 2.127237,-1.570351 3.432416,-3.450633 4.107526,-5.917431 1.296987,-4.73908 -3.2478,-9.229946 -7.970157,-7.875588 -4.825296,1.383874 -6.359946,7.843677 -2.570191,10.818707 2.593308,2.035795 2.983288,2.476668 2.983288,3.372606 0,1.022026 -0.571925,1.085701 -2.437648,0.271403 z"
         id="path2272" />
      <path
         style="fill:#d7d7d7;stroke-width:0.443209"
         d="m 83.046011,68.751701 0.0063,-6.758933 1.699186,-1.883637 c 1.450791,-1.608276 1.952007,-1.882644 3.428614,-1.876851 2.140003,0.0084 2.498652,0.236287 3.67249,2.333542 0.838533,1.49817 0.93779,2.377744 0.93779,8.310164 l 4e-6,6.634649 h -4.875296 -4.875296 l 0.0062,-6.758934 z m 7.842663,4.056012 c 1.38953,-2.299673 -0.591741,-6.604462 -3.039689,-6.604462 -1.487843,0 -2.593188,2.022229 -2.593188,4.744235 0,2.711192 0.574779,3.309262 3.020201,3.142572 1.513514,-0.103166 2.063204,-0.372965 2.612676,-1.282345 z M 8.5806863,73.348857 c 0,-0.934656 0.2158112,-1.383892 0.6648131,-1.383892 0.3656472,0 0.6648131,0.374467 0.6648131,0.832151 0,0.457679 -0.2991659,1.080432 -0.6648131,1.383892 -0.5668042,0.470404 -0.6648131,0.347729 -0.6648131,-0.832151 z M 52.901559,52.242176 c 0,-8.125493 0.158106,-12.631449 0.443209,-12.631449 0.243765,0 0.443209,0.549106 0.443209,1.220235 0,1.541487 1.468789,6.7259 2.268121,8.005833 0.601908,0.963811 2.322099,1.289383 3.320949,0.628541 1.11132,-0.735252 2.051263,-3.55763 2.597013,-7.798064 0.564001,-4.38228 0.579646,-4.1493 0.628248,9.35608 0.02739,7.61765 -0.105426,13.850273 -0.295199,13.850273 -0.189773,0 -0.710348,-1.418073 -1.156828,-3.151267 -0.446484,-1.733199 -1.188712,-3.528194 -1.649397,-3.988879 -1.797224,-1.797225 -3.697708,-0.567249 -4.202212,2.719635 -0.342703,2.232749 -1.315346,4.420511 -1.965285,4.420511 -0.270198,0 -0.431828,-4.727907 -0.431828,-12.631449 z M 26.346027,49.028913 C 25.843458,48.35856 25.230651,47.5692 24.984233,47.274786 24.706131,46.942512 24.536201,42.109611 24.536201,34.532533 V 22.325587 h 1.012752 1.012754 l 0.04908,9.775459 c 0.0435,8.664628 0.137681,9.87336 0.828773,10.637009 1.065112,1.176936 3.074491,1.11398 3.941243,-0.123483 0.573179,-0.818327 0.689945,-2.618537 0.689945,-10.63701 v -9.651975 h 1.108022 1.108022 v 12.409844 c 0,7.070996 -0.171839,12.409845 -0.399431,12.409845 -0.219686,0 -0.811292,0.698054 -1.314679,1.55123 -0.850444,1.441395 -1.070936,1.551231 -3.114071,1.551231 -1.881725,0 -2.330599,-0.175768 -3.112584,-1.218824 z m 42.599267,-7.51286 c -0.929147,-1.043139 -0.974638,-1.475147 -0.974638,-9.255921 v -8.16171 h 4.875296 4.875296 v 7.702026 c 0,5.794971 -0.162303,8.090476 -0.655501,9.270858 L 76.41025,42.640137 73.165094,42.6252 c -2.881965,-0.01326 -3.354239,-0.137399 -4.2198,-1.109147 z m 6.634924,-7.329487 c 0.971957,-1.280391 1.404781,-4.31696 0.830595,-5.827183 -0.988869,-2.600929 -5.181371,-2.959253 -6.284948,-0.537161 -0.719797,1.579783 -0.08689,5.879063 1.029867,6.995822 1.120684,1.120684 3.334223,0.804759 4.424486,-0.631478 z"
         id="path2270" />
      <path
         style="fill:#d4d4d4;stroke-width:0.443209"
         d="m 10.296988,94.679412 c -0.5512948,-0.702955 -0.5356185,-0.718632 0.167335,-0.167338 0.426589,0.334556 0.775616,0.683583 0.775616,0.775616 0,0.364778 -0.363957,0.129997 -0.942951,-0.608278 z M 28.08187,95.28769 c 0,-0.09203 0.349027,-0.44106 0.775616,-0.775616 0.702954,-0.551294 0.71863,-0.535617 0.167335,0.167338 -0.578994,0.738275 -0.942951,0.973056 -0.942951,0.608278 z M 8.5241528,92.906577 c -0.5512945,-0.702955 -0.5356182,-0.718632 0.1673357,-0.167338 0.4265884,0.334557 0.7756152,0.683583 0.7756152,0.775616 0,0.364778 -0.3639568,0.129997 -0.9429509,-0.608278 z m 21.3305522,0.608278 c 0,-0.09203 0.349027,-0.441059 0.775616,-0.775616 0.702954,-0.551294 0.71863,-0.535617 0.167335,0.167338 -0.578994,0.738275 -0.942951,0.973056 -0.942951,0.608278 z M 19.155956,92.843314 c 0.550029,-0.348495 2.277783,-0.177248 2.277783,0.225757 0,0.09345 -0.648192,0.166859 -1.440428,0.163127 -0.979333,-0.0046 -1.247379,-0.129102 -0.837355,-0.388884 z m -6.176727,-2.595989 -1.074477,-1.218824 1.218824,1.074475 c 0.670353,0.590966 1.218824,1.139437 1.218824,1.218824 0,0.3476 -0.35891,0.0647 -1.363171,-1.074475 z m 25.754396,-9.750592 c 0.01275,-6.420535 0.120046,-7.549711 0.793966,-8.355894 1.888468,-2.259088 5.174046,-2.654373 6.987734,-0.840687 0.609412,0.609412 1.298398,1.108021 1.531082,1.108021 0.252496,0 0.423065,3.127086 0.423065,7.756153 v 7.756153 H 43.594176 38.71888 Z m 6.727105,5.257776 c 0.705547,-0.112043 1.223967,-3.516351 0.844665,-5.54666 -0.581057,-3.110235 -2.508602,-4.22646 -4.344635,-2.515936 -1.664013,1.550264 -1.852879,7.062429 -0.272292,7.946972 0.557334,0.311899 2.216139,0.362744 3.772262,0.115624 z m 22.509926,-8.88142 V 65.825704 h 4.875296 4.875296 v 11.047385 11.04739 H 72.845952 67.970656 Z M 10.474235,83.9316 c 0,-1.096941 0.08643,-1.54569 0.192073,-0.997219 0.10564,0.548471 0.10564,1.445968 0,1.994439 -0.10564,0.548471 -0.192073,0.09972 -0.192073,-0.99722 z m 18.171558,0 c 0,-1.096941 0.08643,-1.54569 0.192073,-0.997219 0.10564,0.548471 0.10564,1.445968 0,1.994439 -0.10564,0.548471 -0.192073,0.09972 -0.192073,-0.99722 z m -15.563039,0 c 0,-0.609412 0.100596,-0.858716 0.223548,-0.55401 0.122952,0.304706 0.122952,0.803315 0,1.108021 -0.122952,0.304706 -0.223548,0.0554 -0.223548,-0.554011 z m 12.853053,0 c 0,-0.609412 0.100597,-0.858716 0.223549,-0.55401 0.122951,0.304706 0.122951,0.803315 0,1.108021 -0.122952,0.304706 -0.223549,0.0554 -0.223549,-0.554011 z m -6.828913,-6.49845 c 0.304706,-0.122951 0.803315,-0.122951 1.108021,0 0.304706,0.122951 0.0554,0.22355 -0.55401,0.22355 -0.609412,0 -0.858717,-0.100599 -0.554011,-0.22355 z M 8.3590819,75.067426 c 0.4412081,-0.48753 0.9019187,-0.886418 1.0238011,-0.886418 0.1218824,0 -0.1393843,0.398888 -0.5805924,0.886418 -0.441208,0.487529 -0.9019187,0.886417 -1.0238011,0.886417 -0.1218824,0 0.1393843,-0.398888 0.5805924,-0.886417 z M 29.308797,73.679513 C 28.17162,72.538858 26.582716,71.388714 25.7779,71.12363 l -1.463304,-0.481967 0.138449,-5.148366 c 0.08394,-3.121288 0.345696,-5.399483 0.664813,-5.786152 1.611019,-1.952046 2.191001,-2.263267 4.210226,-2.259212 1.707483,0.0035 2.334603,0.246597 3.51828,1.364228 l 1.440429,1.360052 v 7.620722 7.620721 l -1.455201,0.169886 c -1.24771,0.145661 -1.750011,-0.125827 -3.522795,-1.904029 z M 30.545804,70.1496 c 0.165112,-0.267158 -0.02256,-0.808506 -0.417052,-1.202998 -0.660868,-0.660868 -0.773643,-0.660868 -1.434511,0 -0.837708,0.837709 -0.476253,1.688737 0.717256,1.688737 0.458757,0 0.969195,-0.218582 1.134307,-0.485739 z m -11.882119,4.60504 c 0.548471,-0.105643 1.445968,-0.105643 1.994439,0 0.548471,0.105639 0.09972,0.192074 -0.997219,0.192074 -1.096942,0 -1.545691,-0.08643 -0.99722,-0.192074 z M 87.028632,56.452659 c -0.365647,-0.236301 -0.465369,-0.435745 -0.221605,-0.443209 0.259823,-0.0079 0.242285,-0.148306 -0.04237,-0.339192 -0.267074,-0.179091 -0.766565,-0.923952 -1.109986,-1.655247 -0.343415,-0.731294 -1.072259,-1.526504 -1.619648,-1.767131 -0.974568,-0.428401 -0.99527,-0.592042 -0.99527,-7.866954 0,-7.779959 -0.03085,-7.665056 1.994439,-7.427596 0.48753,0.05716 2.382247,0.12999 4.210483,0.16184 l 3.324066,0.05791 0.122667,6.81862 c 0.135404,7.526593 0.112996,7.606916 -3.114326,11.163103 -0.426588,0.470054 -0.626032,0.857702 -0.443209,0.861434 0.358153,0.0073 -0.850384,0.866056 -1.218824,0.866056 -0.121882,0 -0.52077,-0.193332 -0.886417,-0.429634 z M 52.901559,24.54163 V 11.688577 h 4.875296 4.875297 V 24.54163 c 0,7.06918 -0.173526,12.853054 -0.38561,12.853054 -0.67131,0 -1.370144,-3.578958 -1.852435,-9.4869 -0.315605,-3.866063 -0.734029,-6.272481 -1.291156,-7.425598 -0.453327,-0.938285 -0.611672,-1.574602 -0.351872,-1.414037 0.278628,0.172201 0.342658,0.08207 0.15612,-0.219753 -0.173933,-0.281428 -0.691587,-0.511688 -1.150344,-0.511688 -0.458756,0 -0.976411,0.23026 -1.150343,0.511688 -0.214664,0.347334 -0.116298,0.391186 0.306248,0.136527 0.492826,-0.297014 0.517663,-0.242038 0.11925,0.263927 -0.634711,0.806044 -1.365247,5.538885 -1.740521,11.276098 -0.276119,4.221342 -1.038708,6.869736 -1.978102,6.869736 -0.270371,0 -0.431828,-4.805669 -0.431828,-12.853054 z M 8.9057245,27.311685 C 8.8119579,27.128861 8.6972971,26.331086 8.6509229,25.53885 L 8.566606,24.098422 h 4.86884 4.86884 l -0.05893,1.567449 c -0.03758,0.999665 -0.212801,1.413575 -0.48372,1.142656 -0.233636,-0.233636 -0.732373,-0.306763 -1.108305,-0.162504 -0.421498,0.161744 -0.570458,0.07936 -0.388589,-0.214906 0.187343,-0.303127 -0.02668,-0.393094 -0.586722,-0.246639 -0.571542,0.149462 -0.983177,-0.03404 -1.170312,-0.521703 -0.229966,-0.599283 -0.366254,-0.632041 -0.670198,-0.161086 -0.318016,0.492757 -0.445046,0.492757 -0.763061,0 -0.303944,-0.470955 -0.440232,-0.438197 -0.670199,0.161086 -0.187135,0.487666 -0.598769,0.671165 -1.170311,0.521703 -0.484904,-0.126806 -0.778394,-0.06349 -0.652198,0.140695 0.126194,0.204188 0.02675,0.496525 -0.220993,0.649638 -0.247741,0.153112 -0.4504385,0.0554 -0.4504385,-0.217137 0,-0.272537 -0.2026971,-0.370248 -0.4504384,-0.217136 -0.2477408,0.153112 -0.3356925,0.464049 -0.1954475,0.69097 0.140245,0.226921 0.1552689,0.412584 0.033387,0.412584 -0.1218824,0 -0.2983225,-0.149583 -0.3920886,-0.332407 z M 24.536201,17.007082 v -5.318505 h 4.875296 4.875296 v 5.318505 c 0,5.304558 -0.0027,5.318505 -1.053753,5.318505 -0.579565,0 -1.30204,-0.299166 -1.6055,-0.664813 -0.30346,-0.365647 -0.86461,-0.664813 -1.247,-0.664813 -0.566428,0 -0.541684,-0.112294 0.133536,-0.606027 0.60403,-0.441678 0.837343,-1.192892 0.860325,-2.770055 l 0.03154,-2.164028 h -1.994439 -1.99444 l -0.135098,1.859341 c -0.100541,1.383722 0.08804,2.082477 0.737208,2.731647 0.867602,0.867603 0.866538,0.873754 -0.197308,1.140762 -0.588288,0.147651 -1.069615,0.464101 -1.069615,0.703221 0,0.239121 -0.49861,0.434765 -1.108022,0.434765 h -1.108021 z"
         id="path2268" />
      <path
         style="fill:#d3d3d3;stroke-width:0.443209"
         d="m 52.901559,73.87246 v -1.638171 l 1.657145,1.527369 c 0.911427,0.840053 1.742444,1.577233 1.846704,1.638174 0.104256,0.06094 -0.64146,0.110803 -1.657144,0.110803 -1.833714,0 -1.846705,-0.01152 -1.846705,-1.638175 z m 7.185362,1.068159 c 0.661126,-0.261643 1.50422,-1.088064 1.873546,-1.836488 l 0.671501,-1.360771 0.01011,1.883637 0.0101,1.883638 -1.883637,-0.04715 c -1.807915,-0.04525 -1.835314,-0.06627 -0.681593,-0.522867 z M 8.5806863,49.63719 c 0,-19.306214 0.089967,-22.402436 0.6648131,-22.879516 0.4954187,-0.411161 0.6648131,-0.418324 0.6648131,-0.02811 0,0.287999 0.2026975,0.398361 0.4504385,0.245249 0.247741,-0.153113 0.347187,-0.44545 0.220993,-0.649638 -0.126196,-0.204187 0.167294,-0.2675 0.652198,-0.140695 0.571542,0.149462 0.983176,-0.03404 1.170311,-0.521703 0.229967,-0.599283 0.366255,-0.632041 0.670199,-0.161086 0.318015,0.492757 0.445045,0.492757 0.763061,0 0.303944,-0.470955 0.440232,-0.438197 0.670198,0.161086 0.187135,0.487666 0.59877,0.671165 1.170312,0.521703 0.560045,-0.146455 0.774065,-0.05649 0.586722,0.246639 -0.181869,0.294269 -0.03291,0.37665 0.388589,0.214906 1.610765,-0.618108 1.677944,0.259396 1.677944,21.917522 0,17.753927 -0.09942,21.185377 -0.61383,21.185377 -0.495467,0 -0.656537,-1.73061 -0.835311,-8.974977 -0.121816,-4.936237 -0.444005,-9.689234 -0.715977,-10.562213 -0.640359,-2.055434 -2.269379,-3.00894 -3.769244,-2.206236 -1.98692,1.063364 -2.197212,2.243443 -2.393832,13.433262 -0.1515406,8.624297 -0.2967517,10.526208 -0.8036788,10.526208 -0.5212985,0 -0.6187189,-3.515625 -0.6187189,-22.327775 z M 14.32495,43.488804 c 0.752888,-1.174982 0.725491,-1.077732 1.343393,-4.768553 0.265639,-1.586703 0.424999,-4.777806 0.354134,-7.09134 L 15.89363,27.422487 13.564649,27.288449 c -2.173398,-0.125084 -2.359234,-0.05447 -2.781838,1.057067 -0.545411,1.434538 0.237269,11.799093 0.998406,13.22129 0.272209,0.508628 0.428395,0.924778 0.347079,0.924778 -0.08132,0 0.132403,0.448749 0.474928,0.99722 0.342526,0.548471 0.726267,0.997219 0.852758,0.997219 0.126492,0 0.517527,-0.448748 0.868968,-0.997219 z m 47.918984,22.012702 c 0.02127,-0.516316 0.126288,-0.621335 0.267769,-0.267774 0.12803,0.319939 0.112287,0.702207 -0.03497,0.849485 -0.147278,0.147274 -0.252026,-0.114499 -0.232782,-0.581711 z m 7.831964,0.345055 -2.105242,-0.135085 0.01596,-10.28032 c 0.01547,-9.968046 0.04599,-10.317007 1.005069,-11.488103 1.006274,-1.228727 1.976365,-1.432923 6.110979,-1.286312 1.44709,0.05131 1.638574,0.212295 2.105242,1.769901 0.321942,1.074543 0.513364,5.371384 0.513364,11.523427 l -1.8e-5,9.809974 -1.883637,0.03692 c -1.036,0.0203 -2.282525,0.07018 -2.770054,0.110802 -0.48753,0.04064 -1.833776,0.01308 -2.991659,-0.06122 z m 4.123689,-7.745795 c 0.378851,-0.540812 0.740221,-1.790625 0.803041,-2.777358 0.09812,-1.541175 -0.0499,-1.881905 -1.050081,-2.417185 -0.848355,-0.454023 -1.366944,-0.496217 -1.911063,-0.155483 -1.557364,0.975233 -0.920979,6.379436 0.747436,6.347246 0.397013,-0.0077 1.031817,-0.456412 1.410667,-0.99722 z M 40.04332,61.184723 38.71888,59.830052 V 48.095294 c 0,-6.454121 0.102475,-11.632289 0.227723,-11.507041 0.125248,0.125248 0.417336,3.698618 0.649085,7.940823 0.231749,4.242204 0.657588,8.411154 0.946309,9.264331 0.643649,1.901995 1.824658,3.102461 3.052179,3.102461 2.449974,0 3.387595,-2.846765 3.962508,-12.030764 0.213724,-3.414147 0.506534,-6.325485 0.650688,-6.469639 0.144153,-0.144155 0.2621,4.619655 0.2621,10.586246 v 10.848341 l -1.324441,1.354671 c -1.129424,1.155202 -1.652265,1.354668 -3.550855,1.354668 -1.89859,0 -2.421431,-0.199466 -3.550856,-1.354668 z M 85.315284,37.024727 c -0.578365,-0.08183 -1.14807,-0.528988 -1.270515,-0.997219 -0.122091,-0.466877 -0.398166,-0.848868 -0.613499,-0.848868 -0.215333,0 -0.391517,-0.211215 -0.391517,-0.469366 0,-0.25815 0.199444,-0.346102 0.443209,-0.195447 0.573042,0.35416 0.576322,-0.354417 0.0044,-0.926452 -0.288604,-0.288457 -0.290071,-0.958435 -0.0044,-1.954405 0.285639,-0.995969 0.284172,-1.665947 -0.0044,-1.954405 -0.260053,-0.2602 -0.438777,-4.012184 -0.438777,-9.214455 v -8.775533 h 4.875296 4.875296 v 8.790307 c 0,4.834668 -0.143546,8.933853 -0.31899,9.109299 -0.175449,0.175446 -0.276239,1.90396 -0.223985,3.841142 l 0.09501,3.52215 -1.216444,0.03009 c -0.669045,0.01655 -2.014219,0.06641 -2.989278,0.110802 -0.97506,0.04439 -2.244675,0.01395 -2.82137,-0.06764 z m 3.733684,-10.967406 c 1.693217,-0.454787 2.810289,-3.443371 2.931506,-7.842868 0.07056,-2.560792 -0.05574,-3.116542 -0.883527,-3.887741 -0.531221,-0.494907 -0.965854,-1.069884 -0.965854,-1.277726 0,-0.543833 -2.042005,-0.977769 -3.215351,-0.683278 -1.381508,0.346736 -2.989571,3.306768 -2.989571,5.503032 0,2.186532 1.611631,7.130632 2.572467,7.891714 0.771729,0.611292 1.195875,0.660663 2.55033,0.296867 z m -50.315993,0.146342 c -0.01308,-1.953877 0.06557,-2.105241 1.093927,-2.105241 0.609412,0 1.108022,0.199444 1.108022,0.443208 0,0.243765 -0.199444,0.443209 -0.443209,0.443209 -0.243765,0 -0.443209,0.360769 -0.443209,0.801707 0,0.440939 -0.292822,1.188854 -0.650718,1.662033 -0.601943,0.79584 -0.651773,0.702527 -0.664813,-1.244916 z m 8.938721,0.908578 c -0.292517,-0.292518 -0.53185,-0.890849 -0.53185,-1.329626 0,-0.438777 -0.199444,-0.797776 -0.443209,-0.797776 -0.243765,0 -0.443209,-0.199444 -0.443209,-0.443209 0,-0.243764 0.49861,-0.443208 1.108022,-0.443208 0.99722,0 1.108022,0.177283 1.108022,1.772835 0,1.956706 -0.03209,2.006652 -0.797776,1.240984 z"
         id="path2266" />
      <path
         style="fill:#bfbfbf;stroke-width:0.443209"
         d="m 85.807499,73.669009 c -0.811591,-0.81159 -0.681208,-4.672102 0.208671,-6.178551 1.458733,-2.469439 4.60981,-0.944092 5.265054,2.548663 0.464367,2.475285 -0.582008,3.885766 -3.005226,4.050937 -1.106944,0.07546 -2.14989,-0.102439 -2.468499,-0.421049 z M 60.333252,60.884746 c -0.72653,-1.163352 -3.729446,-1.23516 -4.633663,-0.110802 -0.556528,0.692026 -0.592951,0.608433 -0.33796,-0.775615 0.718579,-3.900294 3.76747,-4.092541 5.16605,-0.325741 0.818474,2.204396 0.738116,2.705395 -0.194427,1.212158 z M 56.056098,48.836795 c -0.799332,-1.279933 -2.268121,-6.464346 -2.268121,-8.005833 0,-0.671129 -0.199444,-1.220235 -0.443209,-1.220235 -0.243765,0 -0.443209,-0.398888 -0.443209,-0.886417 0,-0.48753 0.17525,-0.886418 0.389439,-0.886418 0.21419,0 0.647271,-0.622465 0.962401,-1.383256 l 0.572963,-1.383256 0.830586,1.764761 c 0.681194,1.447354 1.046172,1.755931 2.029254,1.715663 1.325517,-0.05429 3.171858,-1.893447 3.228106,-3.215539 0.01924,-0.452341 0.346345,0.05915 0.726893,1.136636 1.173364,3.322303 -0.283454,11.682 -2.264154,12.992435 -0.99885,0.660842 -2.719041,0.33527 -3.320949,-0.628541 z M 27.435909,42.734019 c -0.697639,-0.770882 -0.787762,-1.962092 -0.823717,-10.887505 -0.0335,-8.315006 0.06935,-10.091328 0.603851,-10.429449 0.92582,-0.585667 3.697448,-0.514661 4.322856,0.110746 0.381541,0.381541 0.53185,3.297226 0.53185,10.316789 0,8.138814 -0.11607,9.95065 -0.689945,10.769972 -0.867908,1.239112 -2.876571,1.299932 -3.944895,0.119447 z m 43.719823,-7.915975 c -1.116762,-1.116759 -1.749664,-5.416039 -1.029867,-6.995822 1.103577,-2.422092 5.296079,-2.063768 6.284948,0.537161 0.574186,1.510223 0.141362,4.546792 -0.830595,5.827183 -1.090263,1.436237 -3.303802,1.752162 -4.424486,0.631478 z"
         id="path2264" />
      <path
         style="fill:#b3b3b3;stroke-width:0.443209"
         d="m 54.607616,73.826681 c -1.227529,-1.14503 -1.744128,-1.960623 -1.614188,-2.54845 0.155203,-0.70211 0.318135,-0.573109 0.867377,0.686734 0.960172,2.202419 1.879019,2.803641 4.230476,2.768091 1.371071,-0.02074 1.841674,0.100604 1.421579,0.366511 -1.370433,0.86744 -3.088713,0.421554 -4.905244,-1.272886 z m 6.476521,-0.07033 c 0.527334,-0.5827 0.893619,-2.002625 1.114723,-4.321285 l 0.329308,-3.453416 0.06199,2.813874 c 0.06239,2.831927 -0.878506,5.828696 -1.830036,5.828696 -0.253768,0 -0.107965,-0.390542 0.324013,-0.867869 z M 10.071287,60.884746 c 0.130825,-10.621005 0.347429,-11.820554 2.325629,-12.879251 1.499865,-0.802704 3.128885,0.150802 3.769244,2.206236 0.607602,1.950291 1.047564,20.052478 0.464067,19.093981 -0.222592,-0.365647 -0.537092,-1.582982 -0.698887,-2.705191 -0.275473,-1.910672 -1.55132,-3.94294 -2.475358,-3.94294 -0.820771,0 -2.21214,1.968871 -2.482238,3.512518 -0.860994,4.920676 -1.0169217,4.007463 -0.902457,-5.285353 z m 42.830272,5.096901 c 0,-0.365647 0.199444,-0.664813 0.443209,-0.664813 0.243765,0 0.443209,0.299166 0.443209,0.664813 0,0.365647 -0.199444,0.664813 -0.443209,0.664813 -0.243765,0 -0.443209,-0.299166 -0.443209,-0.664813 z M 71.539945,57.8393 c -0.708168,-1.709665 -0.432807,-4.503466 0.501539,-5.08856 0.544119,-0.340734 1.062708,-0.29854 1.911063,0.155483 1.000176,0.53528 1.148199,0.87601 1.050081,2.417185 -0.214969,3.376554 -2.437346,4.991279 -3.462683,2.515892 z M 41.770529,56.093913 C 40.188582,54.43758 39.909853,52.251945 38.868508,33.33788 c -0.216529,-3.932856 -0.139681,-4.893333 0.460021,-5.749528 0.395988,-0.565351 0.719977,-1.296946 0.719977,-1.625766 0,-0.842653 1.121346,-1.864164 2.046354,-1.864164 0.68373,0 0.660861,0.111034 -0.185213,0.899272 -1.957381,1.823578 -2.42156,3.391263 -2.082799,7.034297 0.7043,7.574033 2.004925,11.567615 3.767328,11.567615 1.233133,0 2.112441,-1.804121 2.836664,-5.820131 1.317855,-7.307823 1.351078,-8.595938 0.274967,-10.660498 -0.537314,-1.030863 -1.307659,-2.125861 -1.711877,-2.43333 -0.676305,-0.514433 -0.670534,-0.560159 0.07233,-0.57313 0.963342,-0.01682 2.073584,0.997492 2.073584,1.894418 0,0.353211 0.314279,0.903032 0.698404,1.221825 0.58984,0.489523 0.66562,1.445261 0.487507,6.148388 -0.533486,14.087016 -1.483304,21.289229 -2.999328,22.743105 -1.010401,0.968978 -2.616643,0.957078 -3.5559,-0.02633 z M 12.603224,43.488804 c -0.342525,-0.548471 -0.556243,-0.99722 -0.474928,-0.99722 0.08132,0 -0.07487,-0.41615 -0.347079,-0.924778 -0.761137,-1.422197 -1.543817,-11.786752 -0.998406,-13.22129 0.422604,-1.111536 0.60844,-1.182151 2.781838,-1.057067 l 2.328981,0.134038 0.128847,4.206424 c 0.105131,3.432202 -0.291456,7.791881 -0.947829,10.419464 -0.16187,0.647999 -1.350247,2.437648 -1.618666,2.437648 -0.126491,0 -0.510232,-0.448748 -0.852758,-0.997219 z m 73.895414,-17.72835 c -0.960836,-0.761082 -2.572467,-5.705182 -2.572467,-7.891714 0,-2.196264 1.608063,-5.156296 2.989571,-5.503032 1.173346,-0.294491 3.215351,0.139445 3.215351,0.683278 0,0.207842 0.434633,0.782819 0.965854,1.277726 0.827785,0.771199 0.954086,1.326949 0.883527,3.887741 -0.09201,3.33934 -0.262902,4.152725 -1.299904,6.186887 -0.932037,1.828254 -2.816485,2.440694 -4.181932,1.359114 z"
         id="path2262" />
      <path
         style="fill:#a4a4a4;stroke-width:0.443209"
         d="M 15.89363,97.521103 C 11.632166,96.108973 8.6945989,93.563315 6.8607523,89.693314 4.4549913,84.616393 5.6513198,78.09678 9.7387025,74.009398 12.52006,71.228042 15.664854,69.990997 19.882509,70.019212 c 4.285566,0.02868 6.838012,1.02761 9.546645,3.736245 5.597384,5.597385 5.666237,14.586062 0.153953,20.098346 -3.42454,3.424541 -9.505779,5.053652 -13.689477,3.6673 z m 7.304974,-5.202642 c 1.092558,-0.495578 2.367351,-1.239114 2.832873,-1.652299 1.259232,-1.117658 2.928912,-4.964918 2.922747,-6.734562 -0.0058,-1.672248 -1.34255,-5.000311 -2.558756,-6.370571 -1.114398,-1.255557 -4.961264,-2.928152 -6.734563,-2.928152 -1.778226,0 -5.621068,1.67369 -6.742005,2.936374 -1.510615,1.701637 -2.677107,5.064235 -2.451413,7.066586 0.425531,3.77531 3.310796,7.360141 6.425158,7.983014 1.326342,0.265269 1.438633,0.198163 1.438633,-0.859719 0,-0.823411 -0.455346,-1.456858 -1.612433,-2.243119 -2.277571,-1.54765 -3.257022,-3.226994 -3.257022,-5.584413 0,-6.302224 8.059373,-8.575468 11.562844,-3.26144 0.989503,1.500865 1.098119,4.447755 0.239662,6.502333 -0.74917,1.793015 -2.976345,4.053822 -5.097681,5.174662 l -1.613765,0.852654 1.329626,0.0098 c 0.731294,0.0054 2.223537,-0.395617 3.316095,-0.8912 z m 18.489864,-6.679576 c -1.580587,-0.884543 -1.391721,-6.396708 0.272292,-7.946972 1.836033,-1.710524 3.763578,-0.594299 4.344635,2.515936 0.379302,2.030309 -0.139118,5.434617 -0.844665,5.54666 -1.556123,0.24712 -3.214928,0.196275 -3.772262,-0.115624 z M 28.277189,70.1496 c -0.165112,-0.267158 0.02256,-0.808506 0.417052,-1.202998 0.660868,-0.660868 0.773643,-0.660868 1.434511,0 0.837709,0.837709 0.476253,1.688737 -0.717255,1.688737 -0.458757,0 -0.969196,-0.218582 -1.134308,-0.485739 z M 55.754707,37.05209 c -0.606629,-1.278378 -0.685103,-2.370047 -0.44956,-6.253973 0.356149,-5.872687 1.088241,-10.712855 1.746863,-11.549267 0.398413,-0.505965 0.373576,-0.560941 -0.11925,-0.263927 -0.422546,0.254659 -0.520912,0.210807 -0.306248,-0.136527 0.408589,-0.661115 1.892098,-0.661115 2.300687,0 0.186538,0.301824 0.122508,0.391954 -0.15612,0.219753 -0.2598,-0.160565 -0.08886,0.501812 0.379852,1.471948 0.626436,1.296569 0.988143,3.575582 1.365274,8.602143 l 0.513058,6.838259 -1.072193,1.261103 C 58.374522,39.10298 56.691912,39.0271 55.754707,37.05209 Z M 28.057574,20.085247 c -0.689001,-0.689001 -0.877824,-1.36337 -0.775615,-2.770055 l 0.135098,-1.859341 h 1.99444 1.994439 l -0.03153,2.164028 c -0.02298,1.577163 -0.256295,2.328377 -0.860326,2.770055 -1.100239,0.804514 -1.382283,0.769531 -2.456502,-0.304687 z"
         id="path2260" />
      <path
         style="fill:#979797;stroke-width:0.443209"
         d="m 56.668834,74.729094 c -1.307643,-0.295426 -1.94929,-0.940667 -2.907361,-2.92364 -0.905338,-1.873842 -1.170692,-5.158994 -0.416705,-5.158994 0.243765,0 0.443209,-0.393436 0.443209,-0.8743 0,-0.480868 0.521958,-1.976698 1.159908,-3.324066 1.133506,-2.394005 1.201601,-2.449446 2.991659,-2.435839 1.423241,0.01081 2.007674,0.255718 2.620583,1.098111 1.835265,2.522425 2.15672,11.03163 0.476888,12.62379 -0.891643,0.845106 -2.953078,1.314637 -4.368181,0.994938 z M 9.9103883,72.587669 c 1.546e-4,-1.719305 1.3609137,-7.884037 1.8901257,-8.562957 0.650481,-0.8345 1.314534,-1.350989 1.749005,-1.360345 0.786351,-0.01693 2.087889,2.036043 2.346148,3.700691 0.156377,1.00795 0.377157,2.163523 0.490623,2.567942 0.152753,0.544451 -0.456486,1.03874 -2.347201,1.90434 -1.404427,0.642967 -2.907939,1.489793 -3.34114,1.881833 -0.7285209,0.659304 -0.7876308,0.649434 -0.7875607,-0.131504 z M 42.025505,42.402765 c -0.884044,-1.349222 -1.732497,-5.357814 -2.20151,-10.401226 -0.282601,-3.038873 -0.211077,-3.585504 0.675559,-5.163059 1.995657,-3.550793 4.347248,-3.468091 6.187984,0.217623 1.088995,2.180504 1.059167,3.426577 -0.256698,10.723372 -1.007499,5.586844 -2.646762,7.307211 -4.405335,4.62329 z"
         id="path2258" />
    </g>
  </g>
</svg>
