<?xml version="1.0" encoding="UTF-8" standalone="no"?>
<!-- Created with Inkscape (http://www.inkscape.org/) -->

<svg
   width="100mm"
   height="100mm"
   viewBox="0 0 100 100"
   version="1.1"
   id="svg3986"
   inkscape:version="1.1.1 (3bf5ae0d25, 2021-09-20)"
   sodipodi:docname="add_list_type_device_614c.svg"
   xmlns:inkscape="http://www.inkscape.org/namespaces/inkscape"
   xmlns:sodipodi="http://sodipodi.sourceforge.net/DTD/sodipodi-0.dtd"
   xmlns="http://www.w3.org/2000/svg"
   xmlns:svg="http://www.w3.org/2000/svg">
  <sodipodi:namedview
     id="namedview3988"
     pagecolor="#ffffff"
     bordercolor="#666666"
     borderopacity="1.0"
     inkscape:pageshadow="2"
     inkscape:pageopacity="0.0"
     inkscape:pagecheckerboard="0"
     inkscape:document-units="mm"
     showgrid="false"
     width="100mm"
     inkscape:zoom="0.58974467"
     inkscape:cx="378.97757"
     inkscape:cy="269.6082"
     inkscape:window-width="1440"
     inkscape:window-height="890"
     inkscape:window-x="-6"
     inkscape:window-y="-6"
     inkscape:window-maximized="1"
     inkscape:current-layer="layer1" />
  <defs
     id="defs3983" />
  <g
     inkscape:label="Laag 1"
     inkscape:groupmode="layer"
     id="layer1">
    <g
       id="g4002"
       transform="translate(0.17873892,1.4012935)">
      <path
         style="fill:#d0d0d0;fill-opacity:1;stroke-width:0.588601"
         d="m 19.245913,91.979786 c 0.191339,-0.309593 0.736712,-0.413687 1.211941,-0.231327 1.216705,0.466897 1.073328,0.794224 -0.347889,0.794224 -0.666567,0 -1.05539,-0.253305 -0.864052,-0.562897 z m -6.514653,-2.527261 -1.121278,-1.324353 1.324353,1.12128 c 1.244565,1.053726 1.592309,1.527427 1.121279,1.527427 -0.111692,0 -0.707651,-0.595959 -1.324354,-1.324354 z m 13.005157,0.147151 c 0.585944,-0.647462 1.197789,-1.177203 1.359655,-1.177203 0.161865,0 -0.185109,0.529741 -0.771054,1.177203 -0.585944,0.647461 -1.197789,1.177203 -1.359654,1.177203 -0.161866,0 0.185108,-0.529742 0.771053,-1.177203 z M 14.772211,87.39242 c -0.732145,-0.933557 -0.711326,-0.954376 0.222229,-0.222232 0.566529,0.444306 1.030053,0.907829 1.030053,1.030052 0,0.484443 -0.483352,0.172643 -1.252282,-0.80782 z m 21.423084,0.03355 c 0.57269,-0.149234 1.367302,-0.139422 1.765805,0.02184 0.398502,0.161236 -0.07006,0.283336 -1.041255,0.27134 -0.971192,-0.01201 -1.29724,-0.143913 -0.72455,-0.293147 z m 6.205901,-0.58278 c 0.424897,-0.170029 0.932566,-0.149122 1.128153,0.04644 0.195587,0.195586 -0.152056,0.334702 -0.772539,0.309145 -0.685687,-0.02825 -0.825161,-0.167716 -0.355614,-0.355609 z m 11.77203,0 c 0.424896,-0.170029 0.932565,-0.149122 1.128153,0.04644 0.195587,0.195586 -0.152056,0.334702 -0.77254,0.309145 -0.685687,-0.02825 -0.82516,-0.167716 -0.355613,-0.355609 z M 38.869587,86.254589 c 0.424897,-0.17003 0.932566,-0.149122 1.128153,0.04644 0.195587,0.195587 -0.152055,0.334703 -0.772539,0.309146 -0.685687,-0.02825 -0.82516,-0.167716 -0.355614,-0.35561 z m 24.243024,-0.125184 c 1.342511,-0.429008 1.36831,-0.496073 0.2943,-0.765082 l -1.177203,-0.29486 1.177203,0.05786 c 1.697345,0.08341 1.451786,1.212913 -0.2943,1.353689 l -1.471504,0.118633 1.471504,-0.470234 z M 34.160776,85.077386 c 0.424896,-0.17003 0.932565,-0.149122 1.128153,0.04644 0.195587,0.195587 -0.152056,0.334703 -0.77254,0.309146 -0.685687,-0.02825 -0.82516,-0.167716 -0.355613,-0.35561 z m 4.672024,0.01224 c 0.404663,-0.163284 1.06684,-0.163284 1.471503,0 0.404664,0.163284 0.07358,0.296884 -0.735751,0.296884 -0.809327,0 -1.140416,-0.1336 -0.735752,-0.296884 z m 18.872035,-0.01224 c 0.424896,-0.17003 0.932565,-0.149122 1.128153,0.04644 0.195587,0.195587 -0.152056,0.334703 -0.77254,0.309146 -0.685687,-0.02825 -0.82516,-0.167716 -0.355613,-0.35561 z m -47.4298,-1.952327 c 0,-1.133057 0.121131,-1.596581 0.269181,-1.030052 0.148049,0.566529 0.148049,1.493576 0,2.060105 -0.14805,0.566529 -0.269181,0.103005 -0.269181,-1.030053 z m 18.246646,0 c 0,-1.133057 0.121131,-1.596581 0.269181,-1.030052 0.148049,0.566529 0.148049,1.493576 0,2.060105 -0.14805,0.566529 -0.269181,0.103005 -0.269181,-1.030053 z m 18.408556,-0.581862 c -0.20621,-0.333654 0.03005,-0.432327 0.553864,-0.231326 1.019703,0.391297 1.206272,0.813188 0.359609,0.813188 -0.304626,0 -0.715688,-0.261839 -0.913473,-0.581862 z m -8.833189,-0.595341 -1.765804,-0.44932 1.583916,-0.06964 c 0.871154,-0.0383 1.747616,0.195234 1.947692,0.518964 0.200077,0.323731 0.281926,0.557265 0.181888,0.518964 -0.100038,-0.03831 -0.9765,-0.271839 -1.947692,-0.518964 z m 23.102608,-0.389819 c 0.404663,-0.163283 1.06684,-0.163283 1.471504,0 0.404663,0.163284 0.07357,0.296885 -0.735752,0.296885 -0.809327,0 -1.140416,-0.133601 -0.735752,-0.296885 z M 33.631005,79.997149 c 0.264107,-0.263558 1.641881,-0.391155 3.06172,-0.283547 l 2.581526,0.195657 -3.06172,0.283547 c -1.683947,0.15595 -2.845633,0.06791 -2.581526,-0.195657 z m 25.516639,-0.237466 c 0.894711,-0.135296 2.219063,-0.131676 2.943007,0.008 0.723945,0.139711 -0.0081,0.250403 -1.626747,0.245989 -1.618654,-0.0047 -2.210971,-0.118733 -1.31626,-0.254023 z m 4.197553,-1.14254 c 0.911302,-0.261521 0.965171,-0.425147 0.2943,-0.893921 -0.621151,-0.434023 -0.63121,-0.523455 -0.04126,-0.367122 1.143,0.3029 0.926677,1.335978 -0.307356,1.467801 -0.905004,0.09668 -0.897011,0.06625 0.05433,-0.206758 z m -50.558013,-1.9667 c 0.585945,-0.647461 1.19779,-1.177203 1.359655,-1.177203 0.161866,0 -0.185109,0.529742 -0.771053,1.177203 -0.585945,0.647462 -1.197789,1.177203 -1.359655,1.177203 -0.161865,0 0.185109,-0.529741 0.771053,-1.177203 z m 12.893309,-0.14715 -1.121279,-1.324354 1.324353,1.12128 c 1.244566,1.053727 1.592309,1.527427 1.121279,1.527427 -0.111691,0 -0.70765,-0.595959 -1.324353,-1.324353 z m 6.089089,-0.83127 c 0.404664,-0.163284 1.06684,-0.163284 1.471504,0 0.404663,0.163284 0.07357,0.296884 -0.735752,0.296884 -0.809327,0 -1.140415,-0.1336 -0.735752,-0.296884 z m 4.505737,-0.934535 -1.121278,-1.324353 1.324353,1.12128 c 1.244565,1.053726 1.592309,1.527427 1.121279,1.527427 -0.111692,0 -0.707651,-0.595959 -1.324354,-1.324354 z m 2.071481,-0.2943 -1.426955,-1.618654 1.618654,1.426952 c 0.89026,0.784829 1.618654,1.513224 1.618654,1.618654 0,0.461628 -0.476649,0.08592 -1.810353,-1.426952 z m 33.33865,1.091726 c -0.179112,-0.289804 0.05662,-0.673625 0.52389,-0.852925 0.566688,-0.217459 0.740567,-0.04203 0.522243,0.526928 -0.379412,0.988739 -0.595011,1.055927 -1.046133,0.325997 z M 18.526049,73.890297 c 0.566529,-0.148045 1.493576,-0.148045 2.060105,0 0.566529,0.148051 0.103005,0.269185 -1.030053,0.269185 -1.133057,0 -1.596581,-0.121134 -1.030052,-0.269185 z m 42.091868,-0.01054 c 0.732168,-0.140788 1.79165,-0.135443 2.354406,0.01189 0.562756,0.147321 -0.03632,0.262517 -1.331216,0.255983 -1.294923,-0.0065 -1.755359,-0.127073 -1.02319,-0.267861 z M 38.31627,71.50018 c -0.732145,-0.933557 -0.711326,-0.954376 0.222229,-0.222232 0.566529,0.444306 1.030053,0.907829 1.030053,1.030052 0,0.484443 -0.483352,0.172643 -1.252282,-0.80782 z m 19.940378,0.640234 c 0.404664,-0.163284 1.066841,-0.163284 1.471504,0 0.404664,0.163284 0.07357,0.296885 -0.735752,0.296885 -0.809327,0 -1.140415,-0.133601 -0.735752,-0.296885 z m 3.24851,-0.01807 c 0.572691,-0.149234 1.367303,-0.139422 1.765804,0.02178 0.398501,0.161236 -0.07006,0.283335 -1.041254,0.271339 -0.971192,-0.01201 -1.297242,-0.143913 -0.72455,-0.293147 z M 49.873244,71.359775 c -0.20621,-0.333654 0.03005,-0.432328 0.553864,-0.231326 1.019703,0.391296 1.206272,0.813188 0.359609,0.813188 -0.304625,0 -0.715688,-0.261839 -0.913473,-0.581862 z m 13.684485,-0.397783 c 0.406682,-0.163954 0.56441,-0.581273 0.350506,-0.927376 -0.231803,-0.375063 -0.110516,-0.457214 0.300234,-0.203356 0.810339,0.500817 0.323766,1.542453 -0.689147,1.475306 -0.501747,-0.03326 -0.490828,-0.131205 0.03844,-0.344574 z M 47.808972,70.175827 c -0.530502,-0.342837 -0.6031,-0.574175 -0.181888,-0.57959 0.385559,-0.0047 0.864714,0.255859 1.06479,0.57959 0.451637,0.730766 0.247874,0.730766 -0.882902,0 z M 16.809294,68.730216 c 0,-0.471358 0.225047,-0.717923 0.500103,-0.547929 0.275056,0.169994 0.347715,0.555645 0.161463,0.857009 -0.475958,0.770115 -0.661566,0.683402 -0.661566,-0.30908 z m 4.468063,-1.350246 -1.426955,-1.618654 1.618654,1.426952 c 1.512876,1.333707 1.88858,1.810356 1.426955,1.810356 -0.105434,0 -0.833829,-0.728394 -1.618654,-1.618654 z m 18.27939,-0.455678 c -0.409502,-0.493418 -0.63056,-1.011111 -0.491241,-1.150433 0.139319,-0.139316 0.576614,0.264388 0.971766,0.897129 0.854539,1.368333 0.569547,1.518568 -0.480525,0.253304 z M 49.90692,66.816755 c -0.319425,-0.838875 -0.251816,-0.906482 0.329497,-0.329499 0.40226,0.399272 0.58311,0.874214 0.401887,1.055439 -0.181223,0.181224 -0.510346,-0.14545 -0.731384,-0.72594 z m -25.097954,-1.202589 -1.426955,-1.618655 1.618654,1.426953 c 0.89026,0.784829 1.618654,1.513224 1.618654,1.618654 0,0.461628 -0.476649,0.08592 -1.810353,-1.426952 z M 5.3193033,64.476334 C 5.7442,64.306305 6.2518687,64.327212 6.4474561,64.522775 6.6430434,64.718367 6.2954007,64.857477 5.6749167,64.83192 4.9892295,64.803667 4.8497566,64.664204 5.3193033,64.476311 Z m 23.4207507,-0.08842 c -0.166731,-0.269779 0.07086,-0.490505 0.527972,-0.490505 0.457115,0 0.694703,0.220726 0.527972,0.490505 -0.16673,0.269774 -0.404318,0.4905 -0.527972,0.4905 -0.123654,0 -0.361242,-0.220726 -0.527972,-0.4905 z m -1.532133,-1.240566 c 0,-0.304624 0.261837,-0.715692 0.581859,-0.913474 0.333655,-0.20621 0.432332,0.03008 0.231327,0.553863 -0.391297,1.019705 -0.813186,1.206274 -0.813186,0.359611 z m 45.326192,-1.001817 c -0.0024,-1.086382 0.352767,-1.986839 0.860171,-2.181549 1.390412,-0.53355 1.510439,0.441213 0.283517,2.302442 l -1.139809,1.729087 -0.0041,-1.84998 z m -40.139142,-0.0236 c 0.424897,-0.170029 0.932566,-0.149122 1.128153,0.04644 0.195587,0.195592 -0.152056,0.334702 -0.772539,0.309145 -0.685687,-0.02825 -0.825161,-0.167716 -0.355614,-0.355609 z M 10.138478,59.027136 c 0,-0.304625 0.261837,-0.715688 0.581859,-0.913473 0.333655,-0.20621 0.432332,0.03005 0.231327,0.553864 -0.391297,1.019704 -0.813186,1.206273 -0.813186,0.359609 z m 7.651819,-0.588601 c 0,-0.304625 0.261837,-0.715688 0.58186,-0.913473 0.333654,-0.20621 0.432332,0.03005 0.231327,0.553864 -0.391297,1.019703 -0.813187,1.206272 -0.813187,0.359609 z m 13.832135,-0.03474 c 0.200077,-0.32373 0.480579,-0.588601 0.623339,-0.588601 0.14276,0 0.259563,0.264871 0.259563,0.588601 0,0.323731 -0.280503,0.588602 -0.623339,0.588602 -0.342836,0 -0.45964,-0.264871 -0.259563,-0.588602 z m 2.078131,-0.2943 c 0,-0.323731 0.256759,-0.985908 0.570575,-1.471504 0.313817,-0.485596 0.570575,-0.618032 0.570575,-0.294301 0,0.323731 -0.256758,0.985908 -0.570575,1.471504 -0.313816,0.485596 -0.570575,0.618032 -0.570575,0.294301 z M 69.48431,55.514869 c -1.697179,-1.784086 -3.778604,-2.4066 -8.063929,-2.411767 -3.860254,-0.0047 -6.942672,-0.99433 -8.810833,-2.828904 -0.886212,-0.870279 -1.348862,-1.383672 -1.02811,-1.140874 0.971281,0.735227 1.671891,0.496167 1.30997,-0.446984 -0.233397,-0.608225 0.223264,-0.471313 1.447892,0.434093 1.401158,1.035921 2.901802,1.401233 6.924602,1.685704 5.889493,0.416473 8.721467,1.53792 10.696107,4.235599 0.79945,1.092179 0.963488,1.549416 0.388436,1.082735 -0.906017,-0.735275 -1.251673,-0.52087 -1.065116,0.660672 0.104995,0.664963 -0.08703,0.529374 -1.799019,-1.270274 z m -4.605895,-3.585688 c 0,-0.323731 -1.059483,-0.588601 -2.354406,-0.588601 -1.294923,0 -2.354406,0.26487 -2.354406,0.588601 0,0.323731 1.059483,0.588602 2.354406,0.588602 1.294923,0 2.354406,-0.264871 2.354406,-0.588602 z M 1.976556,53.400685 C 1.8740643,47.166253 4.276917,38.808202 5.7486383,40.279923 c 0.4898928,0.489893 -0.842836,5.174642 -1.4720948,5.174642 -0.8191255,0 -1.4611563,3.739285 -0.6863738,3.997546 1.0211434,0.340382 0.8548372,5.420078 -0.1774501,5.420078 -0.4618589,0 -0.9608749,0.463523 -1.1089244,1.030052 C 2.1557457,56.46877 2.0084881,55.34307 1.976556,53.400685 Z m 7.7880628,-1.471504 c 0.1520487,-2.751712 0.6984432,-6.062595 1.2142102,-7.357518 l 0.937758,-2.354406 -0.327125,2.207255 c -0.179918,1.213991 -0.116469,2.206659 0.140999,2.20593 0.257467,-7.07e-4 0.379324,1.87493 0.270793,4.168132 -0.108531,2.293202 -0.359637,4.00715 -0.558013,3.808775 -0.198375,-0.198376 -0.719421,0.243583 -1.157878,0.982131 -0.7013495,1.181367 -0.7639585,0.741291 -0.5207442,-3.660299 z m 7.5231842,1.531505 c -0.100545,-4.128445 0.861254,-8.183635 1.859786,-7.841338 0.996989,0.341768 0.530546,5.911827 -0.745337,8.900481 L 17.37235,56.932294 Z M 29.840979,51.63488 c 0.273945,-6.046138 1.084851,-8.866599 2.815516,-9.792823 1.026917,-0.549589 1.147612,-0.496295 0.818481,0.361407 -0.212333,0.553332 -0.545621,1.641797 -0.74064,2.418813 -0.195018,0.777015 -0.56294,1.28398 -0.817604,1.126589 -0.254663,-0.157391 -0.643708,0.433734 -0.864543,1.313611 -0.242149,0.964798 -0.150258,1.68353 0.231513,1.810787 1.006089,0.335363 0.810933,5.998925 -0.206713,5.998925 -0.461859,0 -0.982908,0.463523 -1.157887,1.030052 -0.174979,0.566529 -0.210134,-1.353783 -0.07812,-4.267361 z m 7.419635,4.071161 c 0.02824,-0.685687 0.167717,-0.825161 0.355614,-0.355614 0.17003,0.424897 0.149118,0.932566 -0.04647,1.128153 -0.195588,0.195587 -0.334703,-0.152055 -0.309146,-0.772539 z M 26.140103,50.56414 c 0.145683,-2.77562 0.08048,-4.932619 -0.14489,-4.793331 -0.711325,0.439623 -1.158931,-3.304444 -0.534529,-4.471149 0.766366,-1.431968 3.057674,-2.763194 2.570398,-1.493375 -0.246576,0.642566 -4.99e-4,0.76805 0.995429,0.50761 1.116977,-0.292096 1.255274,-0.170846 0.888176,0.778697 -0.239141,0.618566 -0.581796,1.853059 -0.761457,2.743319 -0.17966,0.89026 -0.661874,1.618654 -1.071586,1.618654 -0.413137,0 -0.852052,0.917573 -0.985436,2.060105 -0.132278,1.133058 -0.01431,2.060105 0.262154,2.060105 0.857357,0 0.221831,5.473994 -0.669638,5.76782 -0.663162,0.218576 -0.764548,-0.664496 -0.548621,-4.778455 z m 12.839847,4.308049 c 0,-0.323731 -0.397306,-0.588602 -0.882902,-0.588602 -1.998592,0 -0.345681,-9.515876 1.722081,-9.914091 0.824114,-0.15871 1.003455,0.03586 0.718207,0.77921 -0.209101,0.544908 -0.380183,1.366384 -0.380183,1.825503 0,0.459119 -0.397306,0.834762 -0.882902,0.834762 -0.588602,0 -0.882902,0.588601 -0.882902,1.765804 0,2.474671 0.04992,2.66754 0.647461,2.501557 0.291358,-0.08093 0.529742,0.647461 0.529742,1.618654 0,0.971192 -0.132436,1.765804 -0.294301,1.765804 -0.161866,0 -0.294301,-0.264871 -0.294301,-0.588601 z M 6.0656363,51.193429 c 0.065028,-5.050171 1.1302802,-8.909863 2.5326198,-9.176353 0.948493,-0.180243 1.0479225,0.03139 0.6888868,1.466271 -0.2307788,0.922304 -0.7915271,1.886332 -1.246107,2.142284 -0.6488881,0.365357 -0.7467485,1.408925 -0.4553671,4.855962 0.3241325,3.834485 0.2483737,4.390596 -0.59813,4.390596 -0.8016244,0 -0.9610783,-0.636285 -0.9219025,-3.67876 z M 33.793773,50.386247 c 0.149191,-2.55056 0.603961,-5.256026 1.010601,-6.012146 0.953236,-1.772482 1.438754,-1.304283 0.689916,0.665308 -0.316574,0.832652 -0.35508,1.597781 -0.08557,1.700286 0.828898,0.315263 -0.159143,7.712293 -1.070442,8.013925 -0.663849,0.219727 -0.765247,-0.593575 -0.544505,-4.367373 z m -20.298158,3.526667 c -0.452135,-0.452135 0.06719,-5.102995 0.862326,-7.722597 0.379178,-1.249219 0.954143,-1.912955 1.657105,-1.912955 0.95605,0 1.006496,0.227971 0.450982,2.038001 -0.344014,1.1209 -0.821209,1.917034 -1.060433,1.769185 -0.565191,-0.349308 -1.146907,1.194929 -1.146907,3.044608 0,0.822184 0.256705,1.299449 0.588602,1.094326 0.32373,-0.200077 0.588601,0.181598 0.588601,0.848165 0,1.148632 -1.139044,1.6425 -1.940276,0.841267 z m 27.641907,-3.013785 c 0.497583,-3.767585 1.230427,-5.595587 2.113411,-5.271681 0.402671,0.147712 0.641798,0.632765 0.531391,1.077895 -0.110405,0.44513 -0.346114,2.199898 -0.523798,3.899485 -0.260503,2.491785 -0.532885,3.090158 -1.406655,3.090158 -0.952134,0 -1.038799,-0.339194 -0.714349,-2.795857 z M 77.046008,47.04615 c -0.237365,-0.905147 -0.278791,-1.892938 -0.09205,-2.195091 0.18674,-0.302152 0.04097,-1.107268 -0.323984,-1.789147 -0.932304,-1.742033 -0.260003,-2.121742 0.80433,-0.454273 0.623947,0.977525 0.757194,2.05653 0.460604,3.729828 -0.406641,2.294179 -0.428355,2.312308 -0.8489,0.708683 z M 49.370174,45.357172 c -0.658635,-2.459844 -0.407802,-3.796186 0.940355,-5.009855 2.011164,-1.810537 3.303631,-2.401931 2.001245,-0.915708 -1.102823,1.25849 -1.471987,4.736465 -0.644809,6.074869 0.297757,0.48178 0.198485,0.566775 -0.301248,0.257923 -0.421116,-0.260265 -0.93725,-0.150157 -1.186485,0.253114 -0.295404,0.477973 -0.562677,0.259829 -0.809058,-0.660343 z m 29.066417,-4.573415 c -0.555163,-1.037321 -0.480093,-1.215207 0.512813,-1.215207 1.531735,0 2.018597,0.869277 0.972917,1.737116 -0.664931,0.551844 -0.968067,0.445358 -1.48573,-0.521909 z M 23.970613,38.032655 c 1.847099,-1.539451 5.799428,-3.778448 6.598317,-3.737952 0.255695,0.01296 -0.263494,0.418727 -1.153754,0.901701 -0.89026,0.482974 -1.618654,1.222223 -1.618654,1.642776 0,0.833787 -1.802325,1.86344 -4.12021,2.353841 -1.442187,0.305127 -1.436323,0.282009 0.294301,-1.160366 z M 48.12416,39.03355 c -1.036164,-0.404933 -0.901734,-0.636308 1.293732,-2.226695 5.333878,-3.863841 12.775929,-4.565134 19.185287,-1.807902 2.713518,1.167323 2.860874,1.323398 1.549876,1.641605 -1.043054,0.253173 -1.561294,0.0686 -1.850704,-0.659153 -0.441192,-1.109401 -3.939151,-2.138298 -4.527517,-1.331734 -0.49642,0.680521 -7.725441,0.848731 -7.725441,0.179762 0,-1.016644 -3.169794,0.684499 -4.963476,2.663764 -1.384805,1.528085 -2.074842,1.886959 -2.961757,1.540353 z m 33.335017,-0.700933 c -0.594316,-0.951651 -0.531566,-1.118473 0.420721,-1.118473 1.305647,0 2.106487,1.535204 1.018604,1.952663 -0.407453,0.156355 -1.05515,-0.21903 -1.439325,-0.83419 z m 8.760403,-0.498569 c -0.630245,-0.630245 -1.564096,-1.954598 -2.07522,-2.943007 -0.756282,-1.462485 -0.779097,-1.797107 -0.122529,-1.797107 0.995101,0 2.30614,1.454136 3.582087,3.97306 1.08235,2.136732 0.37647,2.527858 -1.384338,0.767054 z m -5.328715,-1.208505 c -0.488568,-0.912901 -0.447625,-1.177203 0.182367,-1.177203 0.446813,0 1.291791,0.529741 1.877738,1.177203 1.03352,1.142027 1.028069,1.177203 -0.182366,1.177203 -0.686245,0 -1.531229,-0.529742 -1.877739,-1.177203 z M 21.910507,34.846291 c 2.552651,-2.165409 7.208837,-4.450527 10.215367,-5.013398 2.181713,-0.408451 2.243351,-0.376454 1.597944,0.829499 -0.725987,1.356521 -1.582532,1.633698 -1.919996,0.621308 -0.336828,-1.010486 -3.535927,0.07127 -3.858483,1.304726 -0.157363,0.60176 -0.561311,1.094109 -0.897659,1.094109 -0.336349,0 -1.479703,0.662177 -2.540785,1.471504 -1.061082,0.809327 -2.542873,1.464379 -3.292867,1.45567 -1.273283,-0.01479 -1.22714,-0.131614 0.696479,-1.763418 z m 23.567877,0.282395 c 0.773423,-0.823271 3.131643,-2.346277 5.240488,-3.384458 3.544938,-1.745168 4.279344,-1.887279 9.732655,-1.883319 4.975265,0.0036 6.395436,0.227997 9.074297,1.433723 2.536089,1.141468 2.951118,1.509084 2.060105,1.824776 -1.247052,0.441839 -3.88932,-0.524535 -3.436679,-1.25692 0.159999,-0.258888 -0.697405,-0.74359 -1.905338,-1.077118 -1.23468,-0.340911 -2.336519,-0.380651 -2.516625,-0.09077 -0.395581,0.63669 -7.680453,1.098105 -7.678967,0.486377 0.0028,-1.164576 -4.689795,0.389286 -4.72923,1.565983 -0.02867,0.855445 -4.853923,3.878581 -6.190637,3.878581 -0.924255,0 -0.880513,-0.187108 0.349931,-1.496857 z M 17.931942,33.682535 c 0.333631,-1.366261 7.227953,-5.756598 10.623125,-6.764856 1.674075,-0.497147 4.83602,-1.070475 7.026545,-1.274063 2.214575,-0.205823 4.277009,-0.724695 4.645528,-1.168732 0.533946,-0.643366 0.305554,-0.798574 -1.175119,-0.798574 -1.010831,0 -1.837875,-0.26487 -1.837875,-0.588601 0,-0.764755 -3.372506,-0.769891 -3.62971,-0.0055 -0.237407,0.705533 -6.676498,2.553324 -8.722656,2.503093 -1.79885,-0.04416 -3.535581,0.831188 -3.552441,1.790504 -0.0171,0.972914 -4.328981,3.958256 -5.673192,3.927849 -1.572404,-0.03557 2.455644,-3.464946 6.772098,-5.765593 5.28641,-2.817627 9.454034,-3.695142 16.630038,-3.501541 6.205724,0.167425 6.229786,0.173711 4.559264,1.191172 -0.923662,0.562572 -1.612088,1.238486 -1.529837,1.502031 0.08225,0.26355 -0.843717,1.353709 -2.057707,2.42258 -1.213991,1.068871 -2.207256,1.790084 -2.207256,1.602695 0,-0.187389 -0.715717,-0.06859 -1.590483,0.263993 -1.585534,0.60282 -1.587011,0.600864 -0.47458,-0.628358 l 1.115903,-1.233059 -2.394502,0.382896 c -1.41104,0.225635 -2.545977,0.137807 -2.763306,-0.213841 -0.49128,-0.794907 -4.487858,0.418164 -4.487858,1.362189 0,0.382113 -1.061007,1.1732 -2.357792,1.757968 -1.296786,0.584769 -2.640505,1.403864 -2.986042,1.820211 -0.345538,0.416347 -1.018916,0.607082 -1.496397,0.423856 -0.477481,-0.183226 -1.269366,0.163606 -1.759747,0.770739 -0.617386,0.764378 -0.825292,0.83234 -0.676001,0.220975 z M 43.09697,32.323544 c 2.125733,-2.422631 9.059213,-5.634968 13.731801,-6.362056 4.964984,-0.772586 10.457619,0.05146 15.112862,2.267345 2.723341,1.296305 3.018177,1.578869 1.857073,1.779783 -1.678427,0.29043 -4.716028,-0.853162 -6.147366,-2.314353 -1.01811,-1.039351 -4.537134,-1.530351 -4.540277,-0.633494 -0.0024,0.677517 -7.284948,0.738255 -7.701518,0.06423 -0.235247,-0.380639 -1.149718,-0.265621 -2.554359,0.321276 -1.203361,0.502796 -2.020799,1.184596 -1.816529,1.515111 0.204269,0.330515 0.01995,0.600936 -0.409606,0.600936 -0.429553,0 -1.755485,0.662177 -2.946517,1.471504 -1.191032,0.809327 -2.656332,1.471504 -3.256223,1.471504 -0.59989,0 -1.470805,0.331088 -1.935365,0.735751 -0.46456,0.404664 -0.19185,-0.0082 0.606024,-0.91754 z m -1.973854,-3.376802 c 8.928539,-7.434513 21.385207,-9.101869 32.094322,-4.295904 2.39562,1.075089 3.252465,1.720196 2.727279,2.053323 -1.119149,0.709878 -1.648678,0.611039 -1.648678,-0.307735 0,-0.935507 -3.1765,-2.420457 -4.038313,-1.887829 -0.763433,0.471828 -8.91092,-0.936872 -8.91092,-1.540697 0,-0.733772 -3.995365,-0.549025 -4.243785,0.196233 -0.248883,0.746648 -8.134264,2.905349 -8.908723,2.43885 -0.729431,-0.439377 -3.390762,1.12335 -3.148875,1.84901 0.287288,0.861864 -4.01767,3.876137 -5.535864,3.876137 -1.003571,0 -0.689223,-0.463934 1.613557,-2.381388 z M 14.522909,26.310927 c 3.379647,-3.028234 9.808111,-6.310147 14.450816,-7.377551 4.420644,-1.01635 12.640373,-0.89891 16.545695,0.236398 2.91304,0.846843 3.491994,0.849295 6.13746,0.02599 4.841772,-1.50683 13.742848,-1.235771 19.401851,0.590832 2.589846,0.835945 5.503423,2.051364 6.474616,2.700931 l 1.765804,1.181029 -1.912955,0.0039 c -1.274975,0.0026 -1.912954,-0.278988 -1.912954,-0.844286 0,-1.224406 -1.080608,-1.71893 -4.104224,-1.878235 -5.656837,-0.298043 -10.334076,-1.005582 -10.734151,-1.623788 -0.436613,-0.674667 -4.074992,-0.541045 -4.585474,0.168398 -0.161865,0.224953 -2.413266,1.09729 -5.003113,1.938528 -4.607884,1.496739 -5.120415,1.467513 -5.752537,-0.328025 -0.09898,-0.281147 -2.078227,-0.646996 -4.398331,-0.812999 -2.650103,-0.189613 -4.173236,-0.546636 -4.096968,-0.960328 0.137922,-0.748116 -3.814285,-0.545044 -4.29311,0.220588 -0.161865,0.258819 -1.486219,0.776345 -2.943007,1.150057 -1.456789,0.373712 -3.630502,1.056567 -4.830474,1.517454 -1.252521,0.481071 -2.323571,0.608533 -2.514709,0.299266 -0.434564,-0.70314 -3.829677,1.230237 -3.834524,2.183603 -0.0048,0.939668 -4.592503,4.279361 -5.830898,4.244676 -0.58393,-0.01636 0.165014,-1.018051 1.971187,-2.63642 z"
         id="path4008" />
      <path
         style="fill:#b9b9b9;fill-opacity:1;stroke-width:0.588601"
         d="m 17.201696,92.317031 c 0,-0.124107 0.530106,-0.364274 1.178015,-0.533709 0.647908,-0.169429 1.029582,-0.06789 0.848164,0.225652 -0.316815,0.512619 -2.026179,0.772505 -2.026179,0.308057 z m 39.914537,-9.00545 c 0.424897,-0.170029 0.932566,-0.149122 1.128153,0.04644 0.195587,0.195586 -0.152056,0.334702 -0.772539,0.309145 -0.685687,-0.02825 -0.825161,-0.167716 -0.355614,-0.355609 z M 37.103783,82.72298 c 0.424897,-0.170029 0.932565,-0.149122 1.128153,0.04644 0.195587,0.195587 -0.152056,0.334703 -0.772539,0.309146 -0.685688,-0.02825 -0.825161,-0.167716 -0.355614,-0.35561 z m 23.544059,0 c 0.424894,-0.170029 0.932562,-0.149122 1.128155,0.04644 0.195586,0.195587 -0.15206,0.334703 -0.77254,0.309146 -0.685689,-0.02825 -0.825162,-0.167716 -0.355615,-0.35561 z m 12.395912,-2.982379 c -0.732144,-0.933557 -0.711325,-0.954376 0.222232,-0.222232 0.566529,0.444305 1.030053,0.907829 1.030053,1.030052 0,0.484443 -0.483354,0.172643 -1.252285,-0.80782 z M 76.016809,79.4463 c -0.34402,-1.124081 -0.353331,-2.25535 -0.02025,-2.461202 0.230149,-0.142241 0.418455,0.386447 0.418455,1.174867 0,1.188109 -0.215352,1.883783 -0.398195,1.286335 z M 35.691827,76.9498 c -0.52847,-0.806549 -1.203315,-1.316601 -1.499656,-1.133452 -0.296341,0.183143 -0.469432,0.114653 -0.384648,-0.152207 0.08479,-0.26686 -0.707204,-1.73057 -1.759975,-3.252682 -2.518969,-3.641972 -3.881681,-6.912618 -5.085653,-12.20608 -0.801671,-3.524676 -0.843984,-4.434866 -0.224016,-4.818731 0.997975,-0.617916 1.790875,2.055255 1.353499,4.563173 -0.361195,2.071103 0.590431,5.178483 1.427469,4.661162 0.30103,-0.186046 0.708294,0.168899 0.905031,0.788761 0.196738,0.619868 1.40195,2.742677 2.678248,4.717358 1.276298,1.974687 2.015278,3.590334 1.642176,3.590334 -0.373101,0 -0.05093,0.667874 0.715933,1.484164 0.766864,0.81629 1.451775,1.875773 1.522023,2.354406 0.183705,1.251661 -0.194004,1.077153 -1.290431,-0.596206 z m 3.036791,0.570908 c -0.623829,-0.471958 -0.997439,-0.994895 -0.830244,-1.162093 0.167196,-0.167193 0.78487,0.227376 1.372611,0.876822 1.25159,1.382989 1.04926,1.489408 -0.542367,0.285271 z m 41.453435,-1.092497 c 0,-0.122223 0.463524,-0.585747 1.030053,-1.030053 0.933557,-0.732144 0.954376,-0.711325 0.222232,0.222233 -0.768931,0.980462 -1.252285,1.292262 -1.252285,0.80782 z M 41.596965,74.83336 c -0.217507,-0.351931 -0.888505,-0.510948 -1.491109,-0.353361 -2.251431,0.58876 -6.991575,-6.302139 -9.006383,-13.092875 -1.245474,-4.197765 -1.241851,-6.514935 0.01019,-6.514935 0.806787,0 0.898436,0.454532 0.578282,2.867974 -0.42676,3.21707 -0.04204,4.783845 1.174667,4.783845 0.45096,0 0.819928,0.34336 0.819928,0.763027 0,0.419661 0.908258,2.203518 2.018352,3.964125 1.110094,1.760607 1.769436,3.354941 1.465204,3.542969 -0.304231,0.188023 0.08334,0.939808 0.861258,1.670628 0.855462,0.803664 1.50222,1.065321 1.636621,0.662118 0.127292,-0.381873 0.826779,-0.02313 1.637502,0.839863 0.778408,0.828575 1.252314,1.506502 1.053123,1.506502 -0.19919,0 -0.540125,-0.287944 -0.757632,-0.63988 z m 19.602691,0.250061 c 0.404663,-0.163284 1.06684,-0.163284 1.471504,0 0.404663,0.163284 0.07357,0.296885 -0.735752,0.296885 -0.809327,0 -1.140416,-0.133601 -0.735752,-0.296885 z m 17.275683,-2.379268 c 0.42859,-0.713674 0.905946,-1.170887 1.060795,-1.016038 0.154849,0.154849 -0.19581,0.738759 -0.77925,1.297584 -1.013536,0.970774 -1.026079,0.958231 -0.281545,-0.281546 z M 7.0053579,70.594811 C 3.8210652,65.161225 1.3476528,54.872189 3.22575,54.872189 c 0.6305081,0 0.9791046,0.755002 1.1550076,2.501556 0.1385683,1.375856 0.040261,2.645725 -0.2184615,2.821932 -0.7646761,0.520796 0.6479014,4.682737 1.5893373,4.682737 0.4703796,0 0.8552356,0.214233 0.8552356,0.476078 0,0.26184 0.8974893,1.966506 1.9944208,3.788139 1.6005162,2.657924 1.8235102,3.377649 1.129063,3.644132 -0.4759473,0.182643 -0.9509622,0.332071 -1.0555891,0.332071 -0.1046268,0 -0.8558595,-1.135812 -1.6694058,-2.524023 z M 42.82925,72.017414 c -3.355234,-0.719301 -7.943405,-8.466897 -8.759203,-14.79082 l -0.341688,-2.648706 0.624162,2.207255 c 0.343289,1.213991 0.843303,2.207256 1.111143,2.207256 0.685549,0 3.578985,6.485582 3.180841,7.129788 -0.180178,0.291535 0.254355,1.347339 0.96563,2.346237 0.790955,1.110791 1.447914,1.565874 1.69151,1.171729 0.251185,-0.406424 1.02361,0.0082 2.091424,1.122822 0.931227,0.971992 1.577367,1.735921 1.435868,1.69762 -0.1415,-0.03832 -1.041359,-0.237736 -1.999687,-0.443181 z m 3.62731,-1.645389 c 0.165636,-0.431639 0.376916,-0.7848 0.46951,-0.7848 0.09259,0 0.303874,0.353161 0.46951,0.7848 0.165636,0.431645 -0.04565,0.784806 -0.46951,0.784806 -0.423867,0 -0.635146,-0.353161 -0.46951,-0.784806 z M 9.6466001,67.325189 C 8.0578005,64.344299 6.053554,57.856274 6.0269677,55.60794 c -0.00479,-0.404663 0.357728,-0.735751 0.8055845,-0.735751 0.981104,0 1.6855276,3.077966 0.8259986,3.609185 -0.7764648,0.479881 0.3053401,3.804015 1.1775633,3.618376 0.3358248,-0.07147 0.9076812,0.723138 1.2707919,1.765804 0.363111,1.042672 1.298053,2.860203 2.07765,4.03896 0.779597,1.178757 1.256187,2.304457 1.059089,2.501556 -0.926818,0.926818 -1.909629,0.08504 -3.5970449,-3.080881 z m 65.5574799,2.89131 c -0.186257,-0.301364 -0.06945,-0.714303 0.259562,-0.917641 0.32901,-0.203338 0.598201,-0.189212 0.598201,0.03137 0,0.220608 0.463524,0.04214 1.030053,-0.39657 0.838545,-0.64938 0.821587,-0.553344 -0.09123,0.516527 -1.272792,1.491793 -1.33247,1.51725 -1.796588,0.766283 z M 14.985158,69.713192 c 0.06806,-0.231144 -0.576456,-1.612185 -1.432259,-3.068974 -1.801862,-3.067214 -3.6221533,-8.954877 -3.231003,-10.450557 0.167504,-0.640499 0.294329,-0.428848 0.336905,0.562235 0.03755,0.874173 0.422774,1.80122 0.856047,2.060105 1.045281,0.624564 3.793145,6.740405 3.467467,7.717442 -0.140707,0.422122 0.180091,1.249183 0.712885,1.837914 0.857687,0.947731 0.86542,1.110056 0.06746,1.416264 -0.495689,0.190212 -0.845567,0.156721 -0.777506,-0.07443 z m 3.206985,-2.921824 c -3.257216,-4.71734 -5.654062,-12.507781 -3.848207,-12.507781 0.911674,0 2.465381,5.466965 1.642231,5.778449 -0.692982,0.262226 1.285148,4.227776 2.108936,4.227776 0.371456,0 1.526798,1.059483 2.567427,2.354406 l 1.892052,2.354406 h -1.41919 c -0.976608,0 -1.894475,-0.688346 -2.943249,-2.207256 z m 24.1223,0.294301 c -2.238304,-2.985422 -3.776813,-6.404607 -4.383307,-9.741468 -0.436265,-2.400279 -0.39169,-3.060614 0.2066,-3.060614 0.928457,0 1.460849,1.547194 1.684724,4.896011 0.174069,2.603802 1.215518,5.205638 1.984243,4.957207 0.240459,-0.07771 1.455289,0.984407 2.699623,2.360263 2.251824,2.489837 2.25535,2.501556 0.752386,2.501556 -1.017034,0 -1.978296,-0.624553 -2.944269,-1.912955 z m 3.798376,-1.384926 c -2.534465,-2.879303 -4.817986,-8.059576 -4.718213,-10.703484 0.0549,-1.454792 0.102253,-1.418459 0.533235,0.409148 0.260141,1.103147 0.895205,2.242009 1.411253,2.530804 0.516049,0.288795 0.938269,0.869485 0.938269,1.290424 0,0.420937 0.796274,1.864564 1.769497,3.208059 0.973223,1.343495 1.484928,2.44272 1.137122,2.44272 -0.347805,0 -0.06656,0.794612 0.62499,1.765804 1.858401,2.609883 1.022222,2.144764 -1.696153,-0.943475 z m 26.805716,1.724178 c -0.219484,-0.219489 0.178287,-1.013636 0.883938,-1.764768 0.705656,-0.751132 1.107683,-1.541023 0.893397,-1.755316 -0.214292,-0.214286 -0.117391,-0.717628 0.215334,-1.118537 0.332724,-0.400908 1.114487,-1.749635 1.737245,-2.997165 l 1.132293,-2.26824 0.02343,2.159116 c 0.03202,2.947285 -0.438355,3.944146 -1.70479,3.612969 -0.844101,-0.220737 -1.030082,0.02731 -0.901143,1.20193 0.16422,1.495972 -1.532742,3.676988 -2.279724,2.930011 z m 1.452586,-1.222154 c 0.732143,-0.933557 0.711325,-0.954376 -0.222233,-0.222232 -0.566529,0.444305 -1.030052,0.907829 -1.030052,1.030052 0,0.484443 0.483353,0.172643 1.252285,-0.80782 z m -52.67264,-0.981004 c -2.03676,-2.679921 -3.185709,-5.131131 -3.481198,-7.426906 -0.144396,-1.121872 -0.148682,-1.576243 -0.0095,-1.009714 0.139158,0.566529 0.631899,1.030053 1.09498,1.030053 0.46308,0 0.841964,0.357565 0.841964,0.79459 0,0.437023 0.81412,1.918449 1.809156,3.292058 0.995036,1.373608 1.656635,2.649984 1.470219,2.8364 -0.186414,0.186416 0.06005,0.779815 0.547697,1.318656 0.78993,0.872866 0.789529,0.979721 -0.0037,0.979721 -0.489672,0 -1.510998,-0.816685 -2.269614,-1.814858 z"
         id="path4006" />
      <path
         style="fill:#a3a3a3;fill-opacity:1;stroke-width:0.588601"
         d="M 15.241733,96.296077 C 8.8824423,94.342291 4.4854435,86.928355 5.9424557,80.616234 c 0.6858747,-2.971372 3.3487639,-8.086001 4.2099093,-8.086001 0.269846,0 0.91372,-0.423093 1.430831,-0.940203 1.09556,-1.095558 6.242072,-2.574325 8.994504,-2.584419 1.056091,-0.0041 3.634395,0.910743 5.787749,2.053118 2.135787,1.133058 4.243786,2.060105 4.684444,2.060105 0.440657,0 1.525825,0.6233 2.411486,1.385115 l 1.610291,1.385115 -1.933045,-0.283712 c -1.818902,-0.26696 -1.893448,-0.209725 -1.262459,0.969291 0.405664,0.757989 1.243739,1.253003 2.121381,1.253003 0.797937,0 1.450794,0.264871 1.450794,0.588602 0,0.32373 0.562174,0.588601 1.249275,0.588601 1.043728,0 1.128714,-0.145267 0.51653,-0.882902 -1.421083,-1.712301 1.014032,-0.962693 4.780206,1.471504 2.003498,1.294923 3.858217,2.354405 4.121597,2.354405 0.263381,0 0.336595,0.370772 0.162699,0.823942 -0.341683,0.890407 3.41291,2.480143 4.406802,1.865885 0.759693,-0.469516 9.484153,0.943369 9.484153,1.535914 0,0.778131 4.016193,0.554233 4.532414,-0.252681 0.496232,-0.775659 7.921605,-2.963243 9.828432,-2.895542 1.463052,0.05197 4.597254,-1.579754 4.216818,-2.195313 -0.162843,-0.263487 0.75554,-1.324171 2.040858,-2.357078 1.801079,-1.447383 2.336936,-1.655871 2.336936,-0.909225 0,2.612078 -8.041862,7.322844 -15.009338,8.792182 -5.229806,1.102886 -10.079517,1.102727 -15.287701,-5.06e-4 -3.628276,-0.768561 -4.598157,-0.767378 -8.362757,0.01024 -2.342166,0.483766 -5.962595,0.879595 -8.045398,0.879595 -3.572376,0 -3.808345,0.08538 -4.165187,1.507155 -0.648151,2.582442 -5.165094,6.548003 -8.630733,7.57719 -3.724135,1.105947 -4.685876,1.102104 -8.382214,-0.03355 z m 8.039515,-4.556264 c 6.047655,-2.526866 7.521948,-10.455387 2.818717,-15.158619 -3.817994,-3.817993 -9.269733,-3.817993 -13.087727,0 -7.2789704,7.27897 0.752622,19.134822 10.26901,15.158619 z m -4.902349,-0.72139 c 0,-0.556034 -1.059483,-1.989085 -2.354406,-3.184552 -2.033267,-1.877103 -2.354406,-2.513222 -2.354406,-4.663672 0,-5.407058 6.240776,-8.021355 10.051502,-4.210625 3.327452,3.327452 1.815719,9.046581 -3.125325,11.823603 -2.00453,1.126606 -2.217365,1.149185 -2.217365,0.235246 z m 22.366856,-5.244657 c 0,-0.568577 0.576257,-0.88611 1.618654,-0.891914 0.890259,-0.0047 2.002145,-0.251633 2.470857,-0.548158 1.297096,-0.820611 -1.207585,-1.221813 -6.588504,-1.055363 -3.894726,0.120475 -4.559471,0.291134 -4.561661,1.171082 -0.0016,0.638509 0.444917,1.030052 1.174639,1.030052 0.647461,0 1.177203,0.264871 1.177203,0.588602 0,0.323731 1.059482,0.588601 2.354406,0.588601 1.700404,0 2.354406,-0.245252 2.354406,-0.882902 z m -1.919575,-3.01796 c 0.724753,-0.19425 1.172645,-0.587942 0.995315,-0.874868 -0.17733,-0.286925 0.0243,-0.530106 0.448071,-0.540401 0.47521,-0.01154 0.332622,-0.349905 -0.372063,-0.882902 -1.573815,-1.190376 -6.803568,-1.175984 -6.803568,0.01872 0,0.538835 0.548905,0.882902 1.40853,0.882902 0.774692,0 1.560991,0.397306 1.747331,0.882902 0.374279,0.975354 0.649224,1.03017 2.576384,0.513649 z m 16.838672,0.313478 c -4.543083,-0.759008 -9.07742,-2.634722 -12.782006,-5.287519 -3.111888,-2.228375 -4.09182,-3.485728 -2.716638,-3.485728 1.11535,0 7.054163,4.282217 7.054163,5.086447 0,0.439762 0.463523,0.839552 1.030052,0.888423 0.566529,0.04885 1.824665,0.156351 2.795857,0.238843 6.76326,0.574469 9.123323,1.060271 9.123323,1.877968 0,0.648557 0.404969,0.764476 1.618654,0.46333 0.89026,-0.220896 1.706945,-0.646914 1.814853,-0.946713 0.107914,-0.299792 0.770091,-0.553727 1.471504,-0.564298 0.701418,-0.01059 2.673751,-0.502271 4.382962,-1.09268 1.709216,-0.590402 3.247249,-0.847598 3.417861,-0.571543 0.170612,0.27606 1.098448,0.0943 2.061854,-0.403887 0.963405,-0.498198 1.618406,-1.121392 1.45557,-1.384873 -0.481623,-0.779279 4.394045,-4.398808 5.046504,-3.746349 1.68589,1.68589 -9.433339,7.922011 -15.972348,8.95795 -4.336487,0.687004 -5.535772,0.683407 -9.802165,-0.02937 z M 54.138879,78.95543 c -4.524577,-1.06664 -14.120023,-6.940094 -11.423836,-6.992633 1.466633,-0.02858 4.505328,1.819014 4.505328,2.739334 0,0.915646 3.702358,2.907568 3.961161,2.131155 0.214372,-0.643112 7.40468,0.931603 7.712768,1.689139 0.318127,0.782222 5.291461,0.554822 5.807717,-0.265553 0.587901,-0.934217 6.475234,-2.814139 7.537024,-2.406691 1.006162,0.386099 3.934919,-1.512088 3.65033,-2.365855 -0.262145,-0.786436 2.429459,-3.013516 2.978506,-2.464468 1.310604,1.310598 -4.787119,5.692977 -10.283427,7.390615 -4.053698,1.252062 -10.426331,1.492464 -14.445571,0.544957 z m 0.880858,-3.80306 c -3.632872,-0.97825 -6.815814,-2.567438 -9.27087,-4.62878 l -1.765804,-1.482628 1.60018,-0.02119 c 1.107987,-0.01466 1.506247,0.223622 1.294791,0.774671 -0.389381,1.014707 2.222269,2.749952 3.993775,2.653562 2.034587,-0.11071 7.149302,1.429125 7.88385,2.373506 0.7233,0.92992 5.428648,0.597601 6.062613,-0.428172 0.48529,-0.785224 6.594208,-3.073059 7.202222,-2.69729 0.734356,0.453859 3.985043,-2.159296 3.678812,-2.957322 -0.147168,-0.383515 0.271504,-1.185161 0.930379,-1.781438 1.166143,-1.055344 1.197963,-1.05352 1.197963,0.06883 0,2.46843 -5.969438,6.693353 -11.488053,8.130765 -4.212627,1.097253 -7.232718,1.09604 -11.319858,-0.0047 z m -1.067462,-4.11835 c -1.315279,-0.485579 -3.301809,-1.701247 -4.414511,-2.701487 -1.112701,-1.00024 -1.562942,-1.4948 -1.000536,-1.099019 0.562407,0.395788 1.414754,0.569107 1.894105,0.385163 0.479352,-0.183944 1.015581,-0.101392 1.191622,0.183444 0.176041,0.284842 1.641312,0.956736 3.256158,1.493105 1.614847,0.536363 2.936084,1.218794 2.936084,1.516508 0,0.837421 6.341222,0.658375 6.88682,-0.194456 0.62616,-0.978756 6.141909,-3.637357 7.158159,-3.450246 1.106789,0.203785 3.71407,-2.353623 3.354587,-3.290418 -0.161247,-0.420203 0.09582,-0.764005 0.57125,-0.764005 1.400636,0 1.016679,0.7851 -1.637125,3.3475 -3.968934,3.832249 -6.981896,5.074958 -12.802082,5.28028 -3.384328,0.119391 -5.776868,-0.109157 -7.394531,-0.706369 z M 27.757822,69.897954 c -1.478073,-0.770144 -3.067297,-1.860657 -3.531609,-2.423366 -0.776165,-0.940644 -0.73939,-0.967255 0.456307,-0.330188 0.71528,0.381108 1.509892,0.636861 1.765805,0.568353 1.052298,-0.28171 3.068856,0.835002 3.957816,2.191723 1.165984,1.779519 0.777638,1.778559 -2.648319,-0.0065 z"
         id="path4004" />
    </g>
  </g>
</svg>
