<?xml version="1.0" encoding="UTF-8" standalone="no"?>
<!-- Created with Inkscape (http://www.inkscape.org/) -->

<svg
   width="100mm"
   height="100mm"
   viewBox="0 0 100 100"
   version="1.1"
   id="svg3778"
   inkscape:version="1.1.1 (3bf5ae0d25, 2021-09-20)"
   sodipodi:docname="add_list_type_device_6142.svg"
   xmlns:inkscape="http://www.inkscape.org/namespaces/inkscape"
   xmlns:sodipodi="http://sodipodi.sourceforge.net/DTD/sodipodi-0.dtd"
   xmlns="http://www.w3.org/2000/svg"
   xmlns:svg="http://www.w3.org/2000/svg">
  <sodipodi:namedview
     id="namedview3780"
     pagecolor="#505050"
     bordercolor="#ffffff"
     borderopacity="1"
     inkscape:pageshadow="0"
     inkscape:pageopacity="0"
     inkscape:pagecheckerboard="1"
     inkscape:document-units="mm"
     showgrid="false"
     inkscape:zoom="0.58974467"
     inkscape:cx="397.62971"
     inkscape:cy="225.52133"
     inkscape:window-width="1440"
     inkscape:window-height="890"
     inkscape:window-x="-6"
     inkscape:window-y="-6"
     inkscape:window-maximized="1"
     inkscape:current-layer="layer1" />
  <defs
     id="defs3775" />
  <g
     inkscape:label="Laag 1"
     inkscape:groupmode="layer"
     id="layer1">
    <g
       id="g3794"
       transform="translate(-0.44863985)">
      <path
         style="fill:#d0d0d0;fill-opacity:1;stroke-width:0.610757"
         d="m 53.935303,89.569898 -1.163483,-1.374202 1.374202,1.163485 c 1.291411,1.093389 1.652243,1.58492 1.163484,1.58492 -0.115896,0 -0.734287,-0.618391 -1.374203,-1.374203 z m 35.17653,-0.649179 c 0,-0.105111 0.893232,-0.998342 1.984959,-1.984958 l 1.984959,-1.793847 -1.793847,1.984958 c -1.672117,1.850263 -2.176071,2.265693 -2.176071,1.793847 z M 33.532989,87.371822 c 0,-0.998587 0.708372,-1.172408 6.121918,-1.502216 6.012289,-0.366283 7.925482,-0.169803 7.925482,0.81393 0,0.778672 -5.777283,1.817539 -10.107545,1.817539 -3.425387,0 -3.939855,-0.147462 -3.939855,-1.129253 z m 7.329078,-0.09226 c 0,-0.335916 -1.099361,-0.610756 -2.443026,-0.610756 -1.343664,0 -2.443026,0.27484 -2.443026,0.610756 0,0.335917 1.099362,0.610757 2.443026,0.610757 1.343665,0 2.443026,-0.27484 2.443026,-0.610757 z m -7.329078,-3.664539 c 0,-1.082138 0.400697,-1.219296 3.51185,-1.202091 3.952507,0.02187 6.786012,1.366067 4.289524,2.034931 -0.763637,0.204597 -2.831343,0.37575 -4.594902,0.380337 -2.802081,0.0073 -3.206472,-0.145715 -3.206472,-1.213177 z m 6.718322,0 c 0,-0.335916 -0.961942,-0.610756 -2.137648,-0.610756 -1.175706,0 -2.137648,0.27484 -2.137648,0.610756 0,0.335916 0.961942,0.610757 2.137648,0.610757 1.175706,0 2.137648,-0.274841 2.137648,-0.610757 z m 47.639009,-0.57471 c 0,-0.316091 0.271695,-0.742631 0.603764,-0.947858 0.346213,-0.213972 0.4486,0.03121 0.240033,0.57471 -0.406025,1.058087 -0.843797,1.251678 -0.843797,0.373148 z M 34.664007,80.740539 c -2.078383,-0.319242 -2.891924,-2.626967 -0.92115,-2.612975 1.452364,0.01032 3.750019,1.186431 2.349802,1.202812 -0.43972,0.0049 -0.61805,0.302929 -0.396289,0.661742 0.221761,0.35882 0.787662,0.504864 1.257558,0.32455 0.469896,-0.180319 0.854357,-0.06163 0.854357,0.263737 0,0.597577 -0.222604,0.608912 -3.144278,0.160134 z m -4.651837,-5.95752 -2.281368,-2.113688 2.137648,0.647096 c 2.387826,0.722825 5.0844,3.580273 3.378705,3.580273 -0.52449,0 -1.980233,-0.951155 -3.234985,-2.113681 z m 27.20364,0.784547 c 0.550664,-0.550658 0.543534,-0.942776 -0.03054,-1.67958 -0.66176,-0.849343 -0.623655,-0.862926 0.327442,-0.116722 0.825989,0.648049 0.915143,1.038726 0.383283,1.67958 -0.381189,0.459308 -0.851807,0.8351 -1.045817,0.8351 -0.19401,0 -0.02948,-0.323267 0.36563,-0.718378 z m 5.633492,0.487781 c 0,-0.126824 0.480971,-0.607795 1.068824,-1.068824 0.968697,-0.759702 0.990299,-0.7381 0.230598,0.230597 -0.797874,1.017368 -1.299422,1.340904 -1.299422,0.838227 z M 70.0417,75.567566 c 0.550658,-0.550658 0.54353,-0.942776 -0.03054,-1.67958 -0.661761,-0.849343 -0.623656,-0.862926 0.327439,-0.116722 0.825987,0.648049 0.915145,1.038726 0.383286,1.67958 -0.381192,0.459308 -0.85181,0.8351 -1.045817,0.8351 -0.194013,0 -0.0295,-0.323267 0.36563,-0.718378 z M 7.54928,75.107398 C 7.7422809,74.795118 7.0574628,73.11034 6.027461,71.363454 2.7163022,65.747713 1.0928477,59.8102 1.0794274,53.266841 c -0.00654,-3.187079 0.1469891,-5.953564 0.3411685,-6.147743 0.1941794,-0.194179 0.3530534,0.517275 0.3530534,1.581009 0,1.063735 0.2748404,1.934063 0.6107565,1.934063 0.3359161,0 0.6145094,-0.480971 0.6190963,-1.068824 0.00459,-0.587853 0.1861848,-1.733573 0.403551,-2.546043 C 3.7296902,45.813352 3.616003,45.61356 2.7879569,45.931311 1.5107785,46.42141 1.4911301,45.490764 2.7051189,42.007678 5.5387755,33.877559 11.12732,26.861412 17.958697,22.857547 l 1.83227,-1.073891 -1.517767,1.25222 c -1.790468,1.47721 -1.339814,2.34482 0.702012,1.35153 0.961799,-0.467887 0.829615,-0.253496 -0.405758,0.658109 C 14.766492,27.851792 8.6796963,34.66379 7.111993,37.86806 2.0845247,48.143836 2.5598189,61.211657 8.2928981,70.336058 c 1.3647312,2.172015 1.388638,2.377082 0.4450192,3.817228 -0.91259,1.392787 -1.998432,2.264392 -1.1886373,0.954112 z M 4.827432,65.026708 c 0,-0.482009 -0.2743258,-1.597904 -0.6096129,-2.479775 -0.9061488,-2.383355 -1.839785,-1.312442 -1.062832,1.219101 0.6570892,2.140994 1.6724449,2.906358 1.6724449,1.260674 z M 8.7251739,34.101459 c 0.6090293,-1.031005 0.9243305,-2.057551 0.7006684,-2.281212 -0.4821782,-0.482179 -2.7329828,2.291766 -2.75256,3.39232 -0.023685,1.331457 0.9066101,0.827698 2.0518916,-1.111108 z m 74.5460491,38.978013 -1.793846,-1.984959 1.984958,1.793847 c 1.850263,1.672117 2.265693,2.176071 1.793847,2.176071 -0.105111,0 -0.998342,-0.893232 -1.984959,-1.984959 z M 8.5494507,67.546006 C 7.1741723,64.769775 6.0663661,62.096317 6.0876586,61.604984 c 0.021292,-0.491332 0.2872764,-0.274941 0.5910753,0.480871 0.3037989,0.755811 0.8654634,1.374202 1.2481439,1.374202 0.3835368,0 0.5294129,-0.433552 0.3250593,-0.966089 -0.2038974,-0.531346 -0.3707225,-1.387923 -0.3707225,-1.903501 0,-0.618372 -0.3926743,-0.83473 -1.1537545,-0.635703 -1.3499646,0.353024 -1.8822498,-1.8162 -1.8933063,-7.715798 -0.00549,-2.931667 0.1429555,-3.462412 0.8129191,-2.906392 1.0787302,0.895266 1.6233852,0.273245 1.6233852,-1.85398 0,-1.900978 -0.9769207,-2.360222 -1.4074935,-0.661653 -0.1490158,0.587853 -0.1785406,0.133258 -0.065611,-1.010211 0.1129299,-1.14347 1.1564825,-4.081899 2.319005,-6.529842 3.8837534,-8.17808 12.2757154,-14.915425 21.1981764,-17.018599 4.002164,-0.943377 10.660171,-1.242608 12.44124,-0.559148 1.889586,0.725102 -1.418517,2.298618 -4.514607,2.147397 C 23.269335,23.164116 9.9364088,34.452078 7.7077912,48.850174 6.602184,55.993003 9.0180631,65.786526 12.955247,70.122372 c 0.736401,0.810969 1.017518,1.290223 0.624705,1.065013 -0.392814,-0.22521 -1.12276,-0.0012 -1.622101,0.49842 -0.803355,0.803353 -1.195816,0.326675 -3.4084003,-4.139799 z M 12.440447,35.617643 c 0.569348,-0.868936 0.85214,-1.762167 0.628425,-1.984959 -0.434279,-0.432488 -2.744631,2.111131 -2.744631,3.021747 0,1.058122 1.095114,0.521594 2.116206,-1.036788 z m 10.439298,-9.05842 c 0.651529,-0.476409 1.014416,-1.036381 0.806416,-1.244381 -0.477403,-0.477402 -3.589816,0.90796 -3.589816,1.597859 0,0.793278 1.470509,0.606531 2.7834,-0.353478 z m 14.317783,-4.019854 c 0,-0.335916 -0.808301,-0.610756 -1.796224,-0.610756 -0.987924,0 -1.966086,0.27484 -2.173693,0.610756 -0.224638,0.363472 0.502621,0.610757 1.796224,0.610757 1.195531,0 2.173693,-0.274841 2.173693,-0.610757 z M 26.772692,70.277529 C 19.869566,66.158312 15.673372,57.989701 16.72296,50.714014 c 0.90428,-6.26841 4.545051,-11.801107 9.718149,-14.76818 3.452982,-1.980487 4.038097,-2.13836 4.038097,-1.089541 0,0.391901 -0.173557,0.538992 -0.385682,0.326866 -0.523693,-0.523693 -2.6681,0.674206 -2.6681,1.490444 0,0.360036 0.408238,0.497955 0.907197,0.306487 0.712365,-0.27336 0.774771,-0.123433 0.290582,0.698101 -0.339138,0.575425 -1.139557,2.557849 -1.778707,4.405387 -1.069197,3.09064 -1.165658,3.197279 -1.206716,1.334051 -0.02455,-1.113811 0.239885,-2.556724 0.587619,-3.206472 0.968193,-1.809085 0.1026,-1.414004 -2.282154,1.041639 -3.191819,3.286698 -4.632072,7.02695 -4.665307,12.115525 -0.01575,2.410714 -0.17704,3.502177 -0.368251,2.491907 -0.4075,-2.15305 -1.636772,-1.913156 -1.387387,0.27075 0.29863,2.615149 0.703661,3.336201 1.453063,2.586798 0.487821,-0.48782 1.077704,0.144416 2.158699,2.31369 1.772676,3.557299 5.374722,6.951951 6.79739,6.406027 0.540996,-0.207603 0.80149,-0.195314 0.578874,0.0273 -0.222616,0.222615 0.270181,1.473921 1.095102,2.780683 0.824922,1.306763 1.408811,2.375929 1.297532,2.375929 -0.11128,0 -1.9699,-1.054746 -4.130268,-2.343876 z m 0.0082,-1.778731 c -0.05544,-0.751444 -3.659539,-3.381264 -4.070597,-2.970207 -0.515699,0.515699 2.283411,3.428275 3.294717,3.428275 0.445319,0 0.794464,-0.206131 0.775879,-0.458068 z M 20.886284,44.427085 c 0.698421,-1.226866 0.883239,-2.136145 0.510042,-2.509342 -0.373197,-0.373197 -0.936077,0.0931 -1.553385,1.286841 -1.7681,3.419128 -0.831723,4.516295 1.043343,1.222501 z m 42.495867,25.903983 c -0.759702,-0.968697 -0.738099,-0.990299 0.230597,-0.230597 0.587853,0.461029 1.068824,0.942 1.068824,1.068823 0,0.502677 -0.501547,0.179141 -1.299421,-0.838226 z M 21.55045,70.250668 C 15.52309,69.055778 11.055493,55.674593 13.659429,46.615768 16.138885,37.989997 23.56319,31.099077 32.006098,29.587181 l 2.443026,-0.43748 -1.464014,1.563161 c -0.805208,0.859739 -2.454251,1.887651 -3.664539,2.284249 -2.93233,0.960892 -4.715234,2.093321 -7.985326,5.071963 -1.502059,1.368187 -2.25787,1.916291 -1.67958,1.218008 1.109311,-1.339487 1.389275,-2.700313 0.555538,-2.700313 -0.497443,0 -3.16864,3.325834 -3.16864,3.945187 0,0.18156 0.399616,0.330109 0.888037,0.330109 0.700079,0 0.572073,0.678665 -0.604791,3.206472 -0.821054,1.763559 -1.495511,3.721095 -1.498793,4.35008 -0.0046,0.88725 -0.189702,0.991121 -0.825607,0.463366 -1.119416,-0.929032 -1.623386,-0.258673 -1.623386,2.159358 0,2.438275 1.185655,2.762105 1.304442,0.356274 0.04561,-0.923769 0.29433,0.336592 0.552709,2.800802 0.580292,5.534355 3.252598,11.271817 6.701115,14.387347 1.341379,1.211851 2.231949,2.16719 1.979044,2.122971 -0.252905,-0.04422 -1.317102,-0.250349 -2.364883,-0.458067 z m -3.897131,-5.540362 c 0,-1.265591 -1.463076,-3.693275 -2.225802,-3.693275 -0.630233,0 -0.583733,0.470751 0.211155,2.137648 0.963522,2.020529 2.014647,2.832163 2.014647,1.555627 z m 12.123992,-32.45858 c 1.748464,-0.609517 2.669533,-1.772522 1.403791,-1.772522 -1.179018,0 -4.366435,1.381137 -4.366435,1.892017 0,0.720288 0.626078,0.695037 2.962644,-0.119495 z M 13.028594,67.665574 C 4.4009247,53.998458 9.8249625,35.222164 24.448949,28.131935 c 3.728939,-1.807923 10.913365,-3.486121 13.061616,-3.051041 1.915759,0.387993 -2.25744,2.733377 -5.504467,3.09357 -1.679581,0.186316 -2.572812,0.21127 -1.984959,0.05545 0.587853,-0.155817 1.068824,-0.656227 1.068824,-1.112022 0,-0.644221 -0.441011,-0.702237 -1.980927,-0.260595 -1.089509,0.312468 -2.051451,0.568122 -2.137648,0.568122 -0.0862,0 -0.156721,0.274841 -0.156721,0.610757 0,0.335916 0.480971,0.617779 1.068824,0.626362 0.587853,0.0086 -0.602911,0.826602 -2.646142,1.817818 -4.032672,1.956339 -9.323166,7.031924 -11.00429,10.557276 -0.70834,1.485406 -1.32292,2.030745 -2.068773,1.8357 -1.090973,-0.285296 -1.835145,1.271358 -1.812281,3.790918 l 0.01108,1.221513 0.973039,-1.221513 c 0.949137,-1.191507 0.963868,-1.184006 0.599672,0.305378 -0.205352,0.839791 -0.409002,3.725615 -0.452556,6.412944 -0.04355,2.687329 -0.211403,4.336371 -0.373,3.664539 -0.561659,-2.335071 -1.3967608,-2.429654 -1.3967608,-0.158196 0,2.206531 1.2121128,3.850938 1.7185868,2.331514 0.145082,-0.435246 0.75158,0.593784 1.347774,2.286734 0.596193,1.692948 1.956095,4.405256 3.022004,6.02734 1.425889,2.169902 1.530237,2.471378 0.39488,1.140851 -1.645364,-1.928201 -2.970273,-1.690177 -1.721586,0.309287 0.410025,0.656557 0.6092,1.193736 0.442609,1.193736 -0.166591,0 -1.016712,-1.130761 -1.889158,-2.512805 z m 5.654185,-33.017538 c 1.551006,-1.457094 1.810524,-2.336562 0.689484,-2.336562 -0.838676,0 -3.551213,2.413903 -3.551213,3.160246 0,0.929726 1.434945,0.51671 2.861729,-0.823684 z m 41.723497,31.02445 c 0,-0.126824 0.480971,-0.607795 1.068824,-1.068824 0.968697,-0.759702 0.990299,-0.7381 0.230597,0.230597 -0.797876,1.017368 -1.299421,1.340904 -1.299421,0.838227 z m 6.107566,0 c 0,-0.126824 0.48097,-0.607795 1.068824,-1.068824 0.968696,-0.759702 0.990298,-0.7381 0.230597,0.230597 -0.797874,1.017368 -1.299421,1.340904 -1.299421,0.838227 z m 6.718321,0 c 0,-0.126824 0.480971,-0.607795 1.068824,-1.068824 0.968697,-0.759702 0.990299,-0.7381 0.230598,0.230597 -0.797874,1.017368 -1.299422,1.340904 -1.299422,0.838227 z m -9.816561,-4.197388 c 0.665871,-0.884336 0.665871,-1.253311 0,-2.137648 -0.766457,-1.017928 -0.74924,-1.017928 0.36147,0 1.147831,1.051942 1.147831,1.085706 0,2.137648 -1.11071,1.01793 -1.127927,1.01793 -0.36147,0 z m 3.981485,-0.511284 c -0.225699,-0.365185 -0.163389,-0.910939 0.138459,-1.212788 0.32458,-0.324582 0.548813,-0.0533 0.548813,0.663973 0,1.387782 -0.112996,1.478009 -0.687272,0.548815 z m -23.33954,-7.886618 c 0,-1.175707 0.125691,-1.656677 0.279313,-1.068824 0.153622,0.587853 0.153622,1.549795 0,2.137648 -0.153622,0.587853 -0.279313,0.106882 -0.279313,-1.068824 z m -18.978714,0 c 0,-0.83979 0.138625,-1.183341 0.308057,-0.763446 0.169431,0.419895 0.169431,1.106996 0,1.526891 -0.169432,0.419896 -0.308057,0.07635 -0.308057,-0.763445 z m 51.129205,-5.34412 c -0.759702,-0.968694 -0.738099,-0.990296 0.230597,-0.230594 0.587853,0.461026 1.068824,0.941997 1.068824,1.068824 0,0.502673 -0.501547,0.179137 -1.299421,-0.83823 z m 7.101608,-5.649498 c 0.608002,-0.671832 1.242877,-1.221513 1.410836,-1.221513 0.167958,0 -0.192077,0.549681 -0.800079,1.221513 -0.608002,0.671832 -1.242878,1.221513 -1.410836,1.221513 -0.167958,0 0.192077,-0.549681 0.800079,-1.221513 z m 11.546346,-0.152689 -1.163485,-1.374202 1.374202,1.163484 c 1.291408,1.093387 1.652243,1.58492 1.163485,1.58492 -0.115897,0 -0.734288,-0.618391 -1.374202,-1.374202 z m 1.538691,-1.526891 -1.480663,-1.679581 1.679581,1.480666 c 0.923769,0.814366 1.67958,1.570177 1.67958,1.67958 0,0.479001 -0.49459,0.08916 -1.878498,-1.480665 z m -17.71244,-4.071711 c -0.02571,-0.02799 -0.142288,-0.555609 -0.259083,-1.17248 -0.202319,-1.068605 -0.156836,-1.071346 0.96287,-0.05803 0.646364,0.584955 1.175212,1.112571 1.175212,1.17248 0,0.105481 -1.784826,0.160602 -1.878999,0.05803 z m -47.22399,-0.865238 c -0.173007,-0.27993 0.07352,-0.508964 0.547845,-0.508964 0.47432,0 0.720851,0.229034 0.547845,0.508964 -0.173006,0.27993 -0.419537,0.508964 -0.547845,0.508964 -0.128309,0 -0.374839,-0.229034 -0.547845,-0.508964 z m 49.635837,-2.39213 c -0.759702,-0.968694 -0.738099,-0.990296 0.230597,-0.230594 1.017368,0.797874 1.340904,1.299418 0.838227,1.299418 -0.126823,0 -0.607794,-0.48097 -1.068824,-1.068824 z M 21.316919,22.845879 c 0.629735,-0.758784 0.568951,-0.917266 -0.351806,-0.917266 -2.006095,0 -0.09833,-1.090634 4.735728,-2.707328 2.598566,-0.86906 5.865437,-1.5244 7.329078,-1.470224 2.247974,0.08321 2.345502,0.134379 0.655759,0.344075 -2.843841,0.352917 -2.453279,1.390451 0.523412,1.390451 1.978737,0 2.434141,-0.193439 2.156816,-0.916135 -0.285133,-0.743045 0.250641,-0.913909 2.835749,-0.904354 1.753017,0.0065 4.556656,0.366753 6.230309,0.800607 l 3.043006,0.788826 -1.867831,0.931796 c -1.331813,0.664396 -2.292708,0.76923 -3.348383,0.365307 -0.814305,-0.311569 -4.366379,-0.442193 -7.893498,-0.290276 -4.9962,0.215191 -7.340435,0.632509 -10.611273,1.889 -2.904757,1.115862 -3.963772,1.330163 -3.437066,0.695521 z"
         id="path3810" />
      <path
         style="fill:#b9b9b9;fill-opacity:1;stroke-width:0.610757"
         d="m 40.007804,70.689026 c 0.155444,-0.251516 0.686085,-0.302477 1.179201,-0.113253 1.243414,0.477142 1.120016,0.765034 -0.282626,0.659379 -0.64856,-0.04886 -1.052019,-0.29461 -0.896575,-0.546126 z M 38.15293,68.167078 c 0.229358,-0.60234 0.57087,-0.94131 0.758913,-0.753264 0.188044,0.188045 3.88e-4,0.680865 -0.417014,1.095165 -0.603193,0.598701 -0.673347,0.528549 -0.341899,-0.341901 z m 3.93065,-3.449461 c 0,-0.316091 0.271693,-0.742631 0.603761,-0.947858 0.346214,-0.213972 0.448605,0.03121 0.240034,0.57471 -0.406025,1.058087 -0.843795,1.251678 -0.843795,0.373148 z M 61.143001,46.517333 c 2.252739,-0.117179 6.100505,-0.117958 8.550592,-0.0017 2.450086,0.116225 0.606939,0.212098 -4.095886,0.213052 -4.702826,9.77e-4 -6.707443,-0.09414 -4.454706,-0.21132 z M 43.673383,45.84991 c -0.173006,-0.27993 0.07352,-0.508964 0.547845,-0.508964 0.474321,0 0.720852,0.229034 0.547845,0.508964 -0.173006,0.27993 -0.419536,0.508964 -0.547845,0.508964 -0.128308,0 -0.374839,-0.229034 -0.547845,-0.508964 z m 33.757732,-6.478691 c -0.04196,-0.187783 -0.1107,-0.684974 -0.15269,-1.104869 -0.04196,-0.419895 -0.396991,-0.763446 -0.788895,-0.763446 -0.391898,0 -0.872869,-0.160323 -1.068824,-0.356274 -0.195949,-0.195952 0.05485,-0.356275 0.557321,-0.356275 1.27995,0 3.014041,2.00475 2.179973,2.52023 -0.357799,0.221131 -0.684896,0.248416 -0.726885,0.06064 z M 52.466441,38.141047 c 0,-0.471263 1.817772,-0.850335 2.075777,-0.432875 0.155444,0.251514 -0.248015,0.49727 -0.896576,0.546125 -0.64856,0.04885 -1.179201,-0.0021 -1.179201,-0.11325 z m 31.352167,-7.329598 c 0,-0.489098 0.233517,-0.744947 0.518929,-0.568555 0.285407,0.176393 0.360805,0.576564 0.167537,0.889269 -0.49387,0.799103 -0.686466,0.709123 -0.686466,-0.320714 z m -22.954264,-1.95825 c 0.419895,-0.169432 1.106996,-0.169432 1.526891,0 0.419895,0.169431 0.07634,0.308057 -0.763446,0.308057 -0.83979,0 -1.18334,-0.138626 -0.763445,-0.308057 z M 35.365258,27.805584 c 0,-0.126827 0.480971,-0.607798 1.068824,-1.068824 0.968694,-0.759702 0.990297,-0.7381 0.230595,0.230594 -0.797874,1.017367 -1.299419,1.340903 -1.299419,0.83823 z"
         id="path3808" />
      <path
         style="fill:#a3a3a3;fill-opacity:1;stroke-width:0.610757"
         d="m 60.864344,89.269095 c 2.435391,-0.115928 6.420578,-0.115928 8.855969,0 2.435392,0.115934 0.442799,0.210784 -4.427984,0.210784 -4.870784,0 -6.863377,-0.09485 -4.427985,-0.210784 z M 55.181507,68.956866 c 0,-10.581357 0.08319,-14.910094 0.184867,-9.619416 0.101677,5.290679 0.101677,13.948152 0,19.238831 -0.101676,5.290678 -0.184867,0.961941 -0.184867,-9.619415 z m 20.411988,12.062441 c -0.138642,-3.779056 -0.09217,-12.36782 0.103279,-19.086142 0.344405,-11.838508 0.358966,-11.626658 0.472267,6.871011 0.0643,10.497378 0.01783,19.086142 -0.103285,19.086142 -0.121101,0 -0.33362,-3.091955 -0.472261,-6.871011 z m 1.913964,0.116642 c 0,-0.355741 0.274841,-0.476939 0.610757,-0.269331 0.335916,0.207608 0.610756,0.49867 0.610756,0.646803 0,0.148133 -0.27484,0.269332 -0.610756,0.269332 -0.335916,0 -0.610757,-0.291062 -0.610757,-0.646804 z M 37.73038,80.103172 c -0.759703,-0.968696 -0.7381,-0.990299 0.230594,-0.230597 0.587853,0.46103 1.068824,0.942 1.068824,1.068824 0,0.502677 -0.501545,0.179141 -1.299418,-0.838227 z m -0.285503,-3.969917 -1.163484,-1.374202 1.374202,1.163485 c 1.291412,1.093388 1.652244,1.584919 1.163484,1.584919 -0.115895,0 -0.734286,-0.618391 -1.374202,-1.374202 z m 0.927938,-0.916135 -1.480665,-1.67958 1.67958,1.480663 c 0.92377,0.81437 1.679581,1.570181 1.679581,1.67958 0,0.479004 -0.49459,0.08916 -1.878496,-1.480663 z m 24.032077,-0.763446 c 0,-1.511622 0.119109,-2.130013 0.264683,-1.374202 0.14558,0.755811 0.14558,1.992593 0,2.748405 -0.145574,0.755811 -0.264683,0.13742 -0.264683,-1.374203 z m -21.295476,-1.984958 -1.163484,-1.374203 1.374203,1.163485 c 1.291411,1.093389 1.652243,1.58492 1.163484,1.58492 -0.115896,0 -0.734287,-0.618391 -1.374203,-1.374202 z m 17.253579,-3.053783 c 0.155706,-0.251937 0.662922,-0.458067 1.127146,-0.458067 0.464225,0 0.97144,0.20613 1.127147,0.458067 0.155705,0.251937 -0.351511,0.458067 -1.127147,0.458067 -0.775635,0 -1.282851,-0.20613 -1.127146,-0.458067 z m 12.825889,0 c 0.155706,-0.251937 0.662921,-0.458067 1.127145,-0.458067 0.464223,0 0.971438,0.20613 1.127145,0.458067 0.155706,0.251937 -0.351509,0.458067 -1.127145,0.458067 -0.775637,0 -1.282852,-0.20613 -1.127145,-0.458067 z m 6.318575,-3.547897 c 0,-0.355741 0.274841,-0.47694 0.610757,-0.269331 0.335916,0.207608 0.610756,0.49867 0.610756,0.646803 0,0.148133 -0.27484,0.269331 -0.610756,0.269331 -0.335916,0 -0.610757,-0.291062 -0.610757,-0.646803 z M 28.084398,55.774704 c 0.0293,-0.711497 0.174029,-0.85622 0.368998,-0.368999 0.17643,0.44089 0.154732,0.967667 -0.04822,1.170617 -0.202949,0.202949 -0.347301,-0.157779 -0.320781,-0.801618 z m 15.526074,0.356274 c 0.207607,-0.335916 0.498668,-0.610756 0.646801,-0.610756 0.148134,0 0.269333,0.27484 0.269333,0.610756 0,0.335917 -0.29106,0.610757 -0.646801,0.610757 -0.355741,0 -0.476941,-0.27484 -0.269333,-0.610757 z M 29.305911,55.163947 c 0.0293,-0.711496 0.174029,-0.856219 0.368999,-0.368999 0.176429,0.44089 0.154731,0.967668 -0.04822,1.170617 -0.202949,0.202949 -0.347301,-0.157779 -0.320781,-0.801618 z m 0,-4.275295 c 0.0293,-0.711497 0.174029,-0.85622 0.368999,-0.368999 0.176429,0.44089 0.154731,0.967667 -0.04822,1.170617 -0.202949,0.202949 -0.347301,-0.15778 -0.320781,-0.801618 z m -1.490596,-0.559861 c -0.193355,-0.503874 -0.08534,-0.916134 0.240034,-0.916134 0.325373,0 0.591588,0.41226 0.591588,0.916134 0,0.503875 -0.108016,0.916135 -0.240034,0.916135 -0.132019,0 -0.398234,-0.41226 -0.591588,-0.916135 z m 9.687591,0.305379 c -0.207607,-0.335916 -0.08641,-0.610757 0.269334,-0.610757 0.35574,0 0.646801,0.274841 0.646801,0.610757 0,0.335916 -0.1212,0.610756 -0.269333,0.610756 -0.148134,0 -0.439194,-0.27484 -0.646802,-0.610756 z m 23.694731,-2.286753 c 2.618701,-0.114763 6.741307,-0.114063 9.161351,0.0015 2.420037,0.115619 0.27746,0.209516 -4.761281,0.208661 -5.038742,-8.55e-4 -7.018773,-0.09545 -4.40007,-0.210217 z m 16.146952,-3.285844 c 0.4143,-0.417402 0.90712,-0.605058 1.095166,-0.417014 0.188045,0.188044 -0.150925,0.529555 -0.753265,0.758913 -0.87045,0.331448 -0.940602,0.261294 -0.341901,-0.341899 z M 46.358876,43.685254 c 0,-0.126828 0.480971,-0.607798 1.068824,-1.068824 0.968694,-0.759703 0.990297,-0.7381 0.230594,0.230594 -0.797873,1.017366 -1.299418,1.340903 -1.299418,0.83823 z m 27.140243,-2.975878 -1.793847,-1.984959 1.984959,1.793848 c 1.850262,1.672117 2.265693,2.17607 1.793847,2.17607 -0.105111,0 -0.998343,-0.893232 -1.984959,-1.984959 z M 46.358876,39.409958 c 0,-0.126827 0.480971,-0.607798 1.068824,-1.068824 0.968694,-0.759702 0.990297,-0.7381 0.230594,0.230594 -0.797873,1.017367 -1.299418,1.340903 -1.299418,0.83823 z m -1.227763,-1.914585 c -0.618528,-0.745281 -0.957345,-0.778339 -1.754365,-0.171171 -0.543284,0.413872 -0.32149,0.005 0.492876,-0.908604 0.814366,-0.913604 1.625146,-1.661098 1.801732,-1.661098 0.176586,0 -0.005,0.326056 -0.403502,0.724568 -0.558921,0.558921 -0.495392,0.977808 0.277886,1.83227 0.551351,0.609236 0.856091,1.107701 0.677201,1.107701 -0.178889,0 -0.670212,-0.41565 -1.091828,-0.923666 z m 32.623696,-1.061293 -1.163485,-1.374202 1.374203,1.163484 c 0.755811,0.639916 1.374202,1.258307 1.374202,1.374202 0,0.48876 -0.491531,0.127927 -1.58492,-1.163484 z M 42.694337,35.745419 c 0,-0.126828 0.480971,-0.607798 1.068824,-1.068824 0.968694,-0.759703 0.990296,-0.7381 0.230594,0.230594 -0.797873,1.017366 -1.299418,1.340903 -1.299418,0.83823 z m 17.566371,-0.20137 c 0.759728,-0.146089 1.859088,-0.140543 2.443027,0.01232 0.583938,0.152867 -0.03768,0.272395 -1.381324,0.265616 -1.343664,-0.0068 -1.82143,-0.131853 -1.061703,-0.277941 z M 39.640554,35.134662 c 0,-0.126827 0.480971,-0.607798 1.068824,-1.068824 0.968694,-0.759702 0.990297,-0.7381 0.230594,0.230594 -0.797873,1.017367 -1.299418,1.340904 -1.299418,0.83823 z m -8.219131,-1.559473 c -0.193262,-0.312705 -0.117868,-0.712876 0.167541,-0.889268 0.285409,-0.176393 0.518927,0.07946 0.518927,0.568554 0,1.029838 -0.192595,1.119817 -0.686468,0.320714 z m 8.829888,-0.958337 c 0.788941,-0.83979 1.57186,-1.526891 1.739818,-1.526891 0.167958,0 -0.34012,0.687101 -1.129062,1.526891 -0.788941,0.83979 -1.57186,1.526891 -1.739818,1.526891 -0.167958,0 0.34012,-0.687101 1.129062,-1.526891 z m 44.507318,-0.152689 c -0.759701,-0.968694 -0.738099,-0.990297 0.230598,-0.230594 1.017367,0.797873 1.340903,1.299418 0.838226,1.299418 -0.126823,0 -0.607794,-0.480971 -1.068824,-1.068824 z m -48.171857,0.227473 c 0,-0.126827 0.48097,-0.607798 1.068823,-1.068824 0.968695,-0.759702 0.990297,-0.7381 0.230595,0.230594 -0.797874,1.017367 -1.299418,1.340903 -1.299418,0.83823 z m -0.610757,-1.221513 c 0,-0.126827 0.480971,-0.607798 1.068824,-1.068824 0.968694,-0.759702 0.990296,-0.7381 0.230594,0.230594 -0.797873,1.017367 -1.299418,1.340903 -1.299418,0.83823 z m 50.004127,-1.448986 c -0.759701,-0.968694 -0.738099,-0.990297 0.230598,-0.230594 1.017367,0.797873 1.340903,1.299418 0.838226,1.299418 -0.126823,0 -0.607794,-0.480971 -1.068824,-1.068824 z m 0.610757,-2.443026 c -0.759702,-0.968694 -0.738099,-0.990297 0.230597,-0.230595 1.017368,0.797874 1.340904,1.299419 0.838227,1.299419 -0.126824,0 -0.607794,-0.480971 -1.068824,-1.068824 z m -14.27487,-8.092524 c 0.207608,-0.335917 0.49867,-0.610757 0.646803,-0.610757 0.148133,0 0.269331,0.27484 0.269331,0.610757 0,0.335916 -0.291062,0.610756 -0.646803,0.610756 -0.355741,0 -0.47694,-0.27484 -0.269331,-0.610756 z m -13.131266,-1.83227 c -0.740822,-0.478756 -0.653166,-0.593842 0.458068,-0.601404 0.755811,-0.0051 1.374202,0.265488 1.374202,0.601404 0,0.76523 -0.64816,0.76523 -1.83227,0 z m 3.218095,-0.423249 c 0.594247,-0.154853 1.418769,-0.144669 1.832269,0.02263 0.413501,0.1673 -0.0727,0.293998 -1.080446,0.281551 -1.007749,-0.01245 -1.346071,-0.149329 -0.751823,-0.304182 z"
         id="path3806" />
      <path
         style="fill:#8c8c8c;fill-opacity:1;stroke-width:0.610757"
         d="m 17.09078,93.030854 c 0.0293,-0.711501 0.17403,-0.856219 0.368999,-0.369001 0.17643,0.440887 0.154731,0.967665 -0.04822,1.170619 -0.20295,0.202948 -0.347302,-0.157783 -0.320782,-0.801618 z m 34.523566,-5.578619 c -0.921646,-0.235997 -0.984905,-0.403039 -0.310484,-0.819856 1.158895,-0.716234 0.117161,-1.669014 -2.368357,-2.166115 -2.426496,-0.485301 -2.679326,0.658774 -0.286292,1.2955 0.923769,0.245787 1.345248,0.570251 0.93662,0.721035 C 48.235978,86.980877 40.564777,82.433123 37.037161,79.04351 30.155241,72.430812 26.429901,64.573625 25.796898,55.336443 24.827513,41.190561 32.04295,28.214705 44.513454,21.67759 c 4.450719,-2.333094 10.434372,-4.071339 13.537956,-3.932762 1.847863,0.08251 1.884255,0.116541 0.369908,0.345946 -2.54198,0.385077 -2.011472,1.496018 0.610756,1.278992 1.655212,-0.136992 2.248806,-0.450089 2.140571,-1.129063 -0.127574,-0.800293 0.460672,-0.879667 3.96992,-0.53567 5.990385,0.587213 7.394234,1.056042 7.054317,2.355867 -0.180949,0.691959 0.122756,1.205429 0.833353,1.408933 0.614934,0.176107 1.599034,0.518201 2.186887,0.760209 0.773346,0.318373 1.068824,0.15062 1.068824,-0.606808 0,-0.702809 0.316885,-0.925222 0.964269,-0.676797 2.074294,0.79598 7.406699,4.705843 9.829259,7.207075 2.369466,2.446419 6.918411,8.8301 6.918411,9.708837 0,0.213015 -0.657968,0.261522 -1.462145,0.107793 -0.908579,-0.173685 -2.184022,-1.393544 -3.368829,-3.222017 -2.583799,-3.987476 -8.022452,-8.842983 -12.35445,-11.029767 -12.924011,-6.524022 -28.519138,-4.182742 -38.616317,5.79743 -4.375303,4.3246 -8.018403,10.793213 -9.23684,16.400743 -0.605185,2.785201 -0.838995,3.27084 -0.874569,1.816545 -0.06182,-2.527379 -0.999346,-2.575125 -1.499102,-0.07634 -0.548281,2.741406 -0.483151,3.147048 0.447925,2.78976 0.636786,-0.244357 0.914799,0.769792 1.195951,4.362641 1.031354,13.179726 9.455142,24.774121 21.030461,28.946064 3.149884,1.135268 3.817228,1.61699 3.817228,2.755459 0,0.758816 -0.06871,1.347781 -0.152689,1.308814 -0.08398,-0.03897 -0.673552,-0.204225 -1.310163,-0.367235 z M 38.419041,78.224674 c 0,-0.827434 -3.014726,-3.402884 -3.460954,-2.95666 -0.226593,0.226597 0.232493,1.098006 1.02019,1.936471 1.442479,1.535448 2.440764,1.952711 2.440764,1.020189 z M 29.86845,65.383463 c 0,-1.179016 -1.381138,-4.366432 -1.892017,-4.366432 -0.718665,0 -0.700381,1.359874 0.04463,3.3194 0.557691,1.466836 1.847389,2.197789 1.847389,1.047032 z M 33.4914,34.20215 c 1.469529,-2.063763 1.553277,-2.501433 0.478651,-2.501433 -0.695451,0 -2.880088,2.966968 -2.880088,3.911463 0,0.932903 1.259866,0.193158 2.401437,-1.41003 z m 55.06451,-3.620488 c -0.825407,-1.542292 -2.321632,-2.70602 -3.131904,-2.435928 -0.914352,0.304782 1.679892,3.554983 2.837508,3.554983 0.676773,0 0.748134,-0.271244 0.294396,-1.119055 z M 44.585061,23.934577 c 1.749204,-1.033281 2.327101,-2.005964 1.191796,-2.005964 -1.272861,0 -3.693277,1.465171 -3.693277,2.235683 0,1.065966 0.364769,1.032468 2.501481,-0.229719 z M 79.18704,83.540583 c 1.702777,-0.895851 1.810819,-2.014476 0.152689,-1.580864 -1.788589,0.467724 -1.549398,0.17318 1.832269,-2.256305 2.068278,-1.48591 3.053783,-1.907875 3.053783,-1.307544 0,1.709892 -1.294889,3.699902 -2.930001,4.502888 -2.13606,1.048998 -3.907473,1.58815 -2.10874,0.641825 z M 50.328794,82.696432 c -1.830324,-0.862571 -1.830487,-0.863121 -0.15269,-0.516993 2.112138,0.435726 2.194687,-0.576676 0.123952,-1.520161 -1.988594,-0.906069 -2.10891,-0.894239 -2.10891,0.20734 0,1.275547 -0.409879,1.172378 -3.680649,-0.926475 -3.919879,-2.515376 -9.29459,-8.276093 -11.132822,-11.932356 -1.661709,-3.305164 -2.821178,-6.734317 -1.750173,-5.176174 0.873502,1.270807 1.514879,0.367223 1.051065,-1.480761 -0.435027,-1.733288 -1.588604,-2.12353 -1.588604,-0.537407 0,2.321659 -0.752218,0.01779 -1.216491,-3.725834 -1.489082,-12.00708 4.001769,-23.789208 14.261043,-30.600982 11.28757,-7.494525 26.863941,-6.660624 37.546983,2.010124 3.199417,2.596763 7.564995,7.988776 7.090119,8.757143 -0.676406,1.094446 -2.52334,0.524145 -3.358935,-1.037177 -1.399133,-2.614303 -7.065549,-7.38178 -11.127611,-9.362294 -5.24522,-2.557376 -11.334206,-3.515285 -16.884304,-2.656209 -14.755493,2.283937 -25.089291,14.178636 -25.089291,28.87898 0,11.36525 6.025182,20.995391 16.318972,26.082858 3.124742,1.544335 4.44675,2.533241 4.44675,3.326339 0,1.331736 -0.316865,1.355953 -2.748404,0.210039 z M 40.251311,74.548335 c 0,-0.810119 -2.404816,-2.779485 -2.850198,-2.334103 -0.219824,0.219829 0.0993,0.951051 0.709161,1.624942 1.152318,1.273299 2.141037,1.600781 2.141037,0.709161 z M 31.878726,48.347312 c 0.358979,-1.87788 0.02278,-2.795378 -0.830965,-2.267734 -0.723768,0.447313 -0.749477,3.943835 -0.029,3.943835 0.296755,0 0.683739,-0.754245 0.859963,-1.676101 z m 5.929559,-13.99285 c 0,-1.212997 -1.084336,-0.99749 -1.810781,0.359886 -1.056136,1.973407 -0.752372,2.781209 0.589268,1.567043 0.671832,-0.607999 1.221513,-1.475118 1.221513,-1.926929 z m 47.346689,-2.028557 c -1.250689,-1.381995 -2.150706,-1.59985 -2.150706,-0.52059 0,1.264456 1.989606,3.036149 2.658464,2.367291 0.407173,-0.407171 0.23792,-1.022738 -0.507758,-1.846701 z M 47.841182,26.496173 c 0.64731,-0.48972 0.992021,-1.075305 0.766026,-1.3013 -0.544915,-0.544917 -3.469845,0.809461 -3.469845,1.606698 0,0.887527 1.324806,0.737889 2.703819,-0.305398 z m 27.223251,-0.881532 c 0,-0.642364 -1.969348,-1.853759 -3.013632,-1.853759 -1.133875,0 -0.703835,1.009322 0.723295,1.697601 1.763346,0.85043 2.290337,0.886361 2.290337,0.156158 z M 61.627789,22.539369 c 0,-0.335916 -0.824521,-0.610756 -1.832269,-0.610756 -1.007749,0 -1.83227,0.27484 -1.83227,0.610756 0,0.335916 0.824521,0.610757 1.83227,0.610757 1.007748,0 1.832269,-0.274841 1.832269,-0.610757 z m 16.490427,55.975952 c 0,-0.88771 0.587529,-1.8631 1.470879,-2.44189 1.336872,-0.875953 1.543442,-0.876332 2.267287,-0.0043 0.669041,0.806144 0.60474,1.102702 -0.402061,1.854403 -2.762519,2.062556 -3.336105,2.164277 -3.336105,0.59164 z M 48.191146,77.470689 C 29.681207,67.293678 28.52737,41.839577 46.034569,29.895734 c 8.172917,-5.575766 19.75698,-6.156689 28.587463,-1.433619 4.119253,2.203221 10.350295,8.281645 9.843483,9.602382 -0.581483,1.51532 -1.485464,1.156879 -3.747675,-1.486006 -2.686846,-3.138981 -6.760641,-5.934985 -10.635482,-7.29956 -2.334721,-0.8222 -2.794663,-1.174651 -1.95392,-1.497274 0.935239,-0.358884 0.965209,-0.50692 0.200554,-0.990495 -1.202891,-0.760723 -4.258177,-0.743859 -4.258177,0.0235 0,0.335916 0.618391,0.653855 1.374203,0.706531 0.755811,0.05268 -1.410665,0.273912 -4.814395,0.491636 -5.276649,0.337528 -6.781272,0.687636 -10.210581,2.375879 -16.111044,7.931441 -19.277161,28.691052 -6.235366,40.884076 2.050923,1.917446 4.890755,4.008975 6.310737,4.647845 1.68488,0.758053 2.581785,1.55371 2.581785,2.290337 0,1.555621 -0.980444,1.407073 -4.886052,-0.74028 z m 4.275295,0.663209 c 0,-0.530662 -3.089308,-2.458711 -3.939587,-2.458711 -0.957009,0 -0.124427,1.297125 1.343872,2.093692 1.995312,1.082474 2.595715,1.166905 2.595715,0.365019 z M 42.08358,70.823191 c 0,-0.945634 -2.914543,-4.039208 -3.373831,-3.581073 -0.23318,0.2326 0.174414,1.263252 0.905766,2.290337 1.301666,1.828025 2.468065,2.438024 2.468065,1.290736 z M 35.966663,58.115937 c -0.01024,-1.839501 -0.924189,-3.698029 -1.523714,-3.098504 -0.539467,0.539467 0.339006,4.778085 0.990281,4.778085 0.298532,0 0.538576,-0.755812 0.533433,-1.679581 z m 0.560361,-12.458959 c 0.814531,-2.336565 0.839783,-2.962643 0.119495,-2.962643 -0.51088,0 -1.892017,3.187417 -1.892017,4.366434 0,1.265743 1.163004,0.344674 1.772522,-1.403791 z M 43.302831,34.45153 c 0.787698,-0.838466 1.246783,-1.709878 1.02019,-1.936471 -0.446228,-0.446228 -3.460954,2.129224 -3.460954,2.956661 0,0.932521 0.998285,0.515258 2.440764,-1.02019 z m 36.647654,-0.973332 c 0,-0.837408 -2.492564,-2.951545 -3.51185,-2.978675 -1.214245,-0.03232 -0.895522,0.741789 0.916135,2.225111 1.872964,1.533517 2.595715,1.743339 2.595715,0.753564 z M 54.601081,28.037322 c 2.383352,-0.906149 1.312439,-1.839786 -1.219105,-1.062832 -1.175376,0.360733 -2.137048,0.884606 -2.137048,1.164161 0,0.683528 1.403256,0.641161 3.356153,-0.101329 z M 49.938477,74.112536 C 42.176291,69.431289 36.935653,60.393596 37.280702,52.283688 c 0.06365,-1.496086 0.146378,-1.624113 0.35247,-0.545495 0.405707,2.123334 1.675932,1.247721 1.891561,-1.303924 0.1934,-2.288579 -0.747934,-3.109152 -1.347119,-1.174302 -0.182046,0.587854 -0.212165,-0.0069 -0.06693,-1.321664 0.659334,-5.968744 6.825055,-13.558091 13.590696,-16.728703 3.116681,-1.460585 4.237693,-1.646531 9.926408,-1.646531 5.857168,0 6.730531,0.155542 10.077483,1.794752 3.530442,1.729077 10.077483,7.493486 10.077483,8.872824 0,0.368367 -0.418374,0.830302 -0.929718,1.026523 -0.604991,0.232158 -1.789492,-0.619986 -3.391311,-2.43975 -1.522671,-1.729842 -4.016915,-3.562201 -6.539206,-4.80392 -3.708538,-1.825708 -4.583086,-2.007403 -9.662195,-2.007403 -4.535242,0 -5.522941,-0.160627 -5.256538,-0.854861 0.256348,-0.668034 -0.06097,-0.758698 -1.451963,-0.414848 -2.173939,0.537392 -3.343046,1.602921 -2.212299,2.016298 0.465315,0.170109 -0.286668,0.97554 -1.83227,1.9625 -6.685901,4.269354 -9.737979,9.440088 -10.117354,17.140499 -0.362883,7.365678 1.124714,11.208054 6.329561,16.348877 2.131826,2.105608 3.311527,3.526252 2.621556,3.156988 -1.877946,-1.005042 -2.27105,-0.04965 -0.529991,1.288049 1.812511,1.392623 3.314486,1.555915 2.835728,0.308292 -0.218294,-0.568865 -0.04606,-0.772387 0.482118,-0.569702 0.451955,0.173431 0.940038,1.121374 1.08463,2.106542 0.144592,0.985169 0.241784,1.769539 0.215984,1.743051 -0.0258,-0.02651 -1.596756,-0.982848 -3.491009,-2.125244 z m -7.24414,-9.155918 c 0,-0.850277 -1.928049,-3.939587 -2.45871,-3.939587 -0.803649,0 -0.754106,0.363879 0.336746,2.473356 0.806199,1.559017 2.121964,2.468183 2.121964,1.466231 z m 1.801737,-25.883944 c 0.700788,-0.984165 1.016351,-1.948725 0.701252,-2.143467 -0.57618,-0.356099 -3.113746,2.418392 -3.113746,3.404468 0,1.086352 1.180348,0.469389 2.412494,-1.261001 z m 34.713325,-1.383401 c -1.113287,-1.676704 -2.726087,-2.724969 -3.30374,-2.147317 -0.580683,0.580684 2.177951,3.48784 3.309653,3.48784 0.769919,0 0.769156,-0.173209 -0.0061,-1.340523 z M 68.956868,31.395339 c 0,-0.503874 -0.240486,-0.916135 -0.534412,-0.916135 -0.293927,0 -1.393289,-0.171775 -2.443026,-0.381723 -2.582481,-0.516496 -2.517734,0.781677 0.07634,1.530691 2.78268,0.80347 2.901094,0.793967 2.901094,-0.232833 z m 9.161348,42.199734 c 0,-1.987603 0.991532,-2.544595 1.80939,-1.016421 0.52781,0.986225 0.419364,1.335963 -0.580115,1.870869 -1.078028,0.576939 -1.229275,0.47181 -1.229275,-0.854448 z M 50.306895,69.708371 c -2.981757,-2.166763 -5.381502,-4.945021 -7.181996,-8.314827 -1.113584,-2.084184 -1.343108,-3.506463 -1.342074,-8.316348 0.0011,-5.098399 0.197989,-6.175576 1.623233,-8.880489 3.240734,-6.15046 9.648361,-10.50058 16.364098,-11.109543 6.50946,-0.590257 14.294823,2.930838 17.866008,8.080279 1.399274,2.017677 1.627153,2.846919 1.308839,4.762812 l -0.385412,2.319787 -1.04239,-2.319787 C 74.46685,39.141818 66.47857,34.608819 59.410387,35.655428 c -3.472975,0.514255 -7.554702,4.251087 -7.554702,6.91635 0,2.20043 1.139337,5.008609 2.032098,5.008609 0.337982,0 0.41249,0.202024 0.165571,0.448943 -0.246918,0.246918 -0.961029,-0.229947 -1.586913,-1.0597 -1.670392,-2.214489 -2.199231,-1.028213 -0.685417,1.537509 0.714054,1.210233 0.994348,2.012582 0.622875,1.782999 -1.13609,-0.702142 -2.963626,-5.33543 -2.977827,-7.549578 l -0.01341,-2.091422 -1.520648,1.428574 c -2.026251,1.903565 -3.959476,7.241816 -4.047009,11.175084 -0.03897,1.750959 -0.19654,2.70259 -0.350162,2.114737 -0.3759,-1.438427 -1.41126,-1.363056 -1.41126,0.102737 0,2.562217 1.770279,4.47787 1.880487,2.034911 0.02652,-0.587854 0.484129,0.166583 1.01691,1.676526 0.618272,1.752231 2.269408,4.046067 4.564353,6.341009 2.3671,2.367103 3.532591,4.002465 3.411075,4.786255 -0.171307,1.10495 -0.361905,1.061745 -2.64951,-0.6006 z m 0.938033,-1.317933 c 0,-0.311535 -0.749237,-1.155778 -1.664971,-1.876098 -1.175696,-0.924801 -1.739613,-1.085742 -1.918967,-0.547683 -0.139696,0.419088 0.365149,1.263331 1.121878,1.876097 1.504359,1.218154 2.46206,1.431198 2.46206,0.547684 z M 45.464152,44.485201 c 1.392826,-2.693429 0.71479,-3.714721 -0.812123,-1.223262 -1.10912,1.809748 -1.279712,3.096935 -0.41044,3.096935 0.139507,0 0.68966,-0.843153 1.222563,-1.873673 z m 33.26482,-0.196313 c 0,-1.14862 -2.233146,-3.836512 -2.755336,-3.316418 -0.474564,0.472658 1.543375,4.164891 2.276265,4.164891 0.263486,0 0.479071,-0.381813 0.479071,-0.848473 z m -24.739963,-6.47361 c 0.213972,-0.346213 -0.03118,-0.448605 -0.574711,-0.240034 -1.058085,0.406025 -1.251677,0.843795 -0.373145,0.843795 0.316091,0 0.742627,-0.271693 0.947856,-0.603761 z m 1.131184,-1.381198 c -0.155549,-0.251937 0.145666,-0.458067 0.669364,-0.458067 0.523699,0 0.95218,-0.412261 0.95218,-0.916135 0,-1.13141 -0.133311,-1.132017 -2.811976,-0.0128 -2.352648,0.982998 -2.351958,2.074556 0.0012,1.933381 0.809614,-0.04857 1.344759,-0.294443 1.189211,-0.54638 z m 14.447431,-0.473184 c 0,-0.664837 -2.542665,-1.817153 -4.009677,-1.817153 -1.592353,0 -0.910846,1.033751 1.108584,1.681567 2.65927,0.853072 2.901093,0.864374 2.901093,0.135586 z m 8.692287,32.385213 c 0,-1.175706 0.125694,-1.656677 0.279317,-1.068824 0.153618,0.587853 0.153618,1.549795 0,2.137648 -0.153623,0.587853 -0.279317,0.106882 -0.279317,-1.068824 z m 0.04135,-7.329078 c 0,-1.847539 0.114499,-2.60335 0.254435,-1.679581 0.139943,0.923769 0.139943,2.435392 0,3.359161 -0.139936,0.923769 -0.254435,0.167958 -0.254435,-1.67958 z M 73.84292,20.096343 c -0.503874,-0.325628 -0.641294,-0.592051 -0.305378,-0.592051 0.335916,0 1.023017,0.266423 1.526891,0.592051 0.503874,0.325629 0.641294,0.592052 0.305378,0.592052 -0.335916,0 -1.023017,-0.266423 -1.526891,-0.592052 z"
         id="path3804" />
      <path
         style="fill:#767676;fill-opacity:1;stroke-width:0.610757"
         d="m 18.569454,93.997883 c 0.207608,-0.335916 0.498668,-0.610756 0.646801,-0.610756 0.148134,0 0.269334,0.27484 0.269334,0.610756 0,0.335916 -0.291061,0.610757 -0.646802,0.610757 -0.35574,0 -0.476941,-0.274841 -0.269333,-0.610757 z M 81.704847,75.827877 c -0.759702,-0.968697 -0.7381,-0.990299 0.230597,-0.230598 1.017368,0.797874 1.340904,1.299421 0.838227,1.299421 -0.126824,0 -0.607795,-0.48097 -1.068824,-1.068823 z M 58.303831,74.510633 c -0.188247,-0.30459 0.207794,-0.409952 0.880089,-0.234145 1.426109,0.372934 1.60638,0.787943 0.342266,0.787943 -0.484049,0 -1.034109,-0.249207 -1.222355,-0.553798 z m 12.825889,0 c -0.188248,-0.30459 0.207791,-0.409952 0.880088,-0.234145 1.42611,0.372934 1.606381,0.787943 0.342267,0.787943 -0.484049,0 -1.034108,-0.249207 -1.222355,-0.553798 z"
         id="path3802" />
      <path
         style="fill:#606060;fill-opacity:1;stroke-width:0.610757"
         d="m 62.73164,90.487585 c 4.134236,-0.10582 10.730406,-0.105496 14.658157,6.1e-4 3.927751,0.106217 0.545192,0.192798 -7.516795,0.192401 -8.061986,-4.03e-4 -11.275599,-0.08731 -7.141362,-0.193127 z m 14.775819,-1.98651 c 0,-0.335917 1.511623,-0.610757 3.359161,-0.610757 1.847539,0 3.359161,0.27484 3.359161,0.610757 0,0.335916 -1.511622,0.610756 -3.359161,0.610756 -1.847538,0 -3.359161,-0.27484 -3.359161,-0.610756 z m 10.993618,-2.382904 c 0,-0.634234 1.161787,-1.552372 1.505924,-1.190108 0.111732,0.11762 -0.181395,0.568236 -0.65139,1.001378 -0.469996,0.433137 -0.854534,0.518069 -0.854534,0.18873 z m -8.054352,-0.477336 c 0.440887,-0.17643 0.967664,-0.154736 1.170619,0.04819 0.202948,0.202949 -0.157783,0.347301 -0.801618,0.320782 -0.711501,-0.02932 -0.85622,-0.174029 -0.369001,-0.368995 z M 64.477989,83.818606 c -0.773701,-0.7737 -0.403662,-2.51727 0.617395,-2.909089 0.572945,-0.21986 1.424779,0.007 1.932495,0.514764 0.745978,0.745972 0.767763,1.076801 0.122157,1.854709 -0.82468,0.993683 -1.983884,1.22778 -2.672047,0.539616 z m 29.673917,-4.784258 c 0.0068,-1.343664 0.131856,-1.821428 0.277943,-1.061702 0.146087,0.759726 0.140541,1.859088 -0.01234,2.443026 -0.152866,0.583938 -0.272398,-0.03768 -0.265618,-1.381324 z m -8.093855,0.305379 c 0,-0.671833 0.27484,-1.221513 0.610756,-1.221513 0.335916,0 0.610757,0.54968 0.610757,1.221513 0,0.671832 -0.274841,1.221513 -0.610757,1.221513 -0.335916,0 -0.610756,-0.549681 -0.610756,-1.221513 z m 2.6253,0 c 0.146075,-1.81181 1.318092,-2.066611 1.404642,-0.305379 l 0.06004,1.221513 -0.305959,-1.221513 c -0.279134,-1.114435 -0.348724,-1.087665 -0.79388,0.305379 l -0.487933,1.526891 0.123098,-1.526891 z m 2.871508,0 c 0,-0.671833 0.274841,-1.221513 0.610757,-1.221513 0.335916,0 0.610756,0.54968 0.610756,1.221513 0,0.671832 -0.27484,1.221513 -0.610756,1.221513 -0.335916,0 -0.610757,-0.549681 -0.610757,-1.221513 z M 63.769761,78.735963 c -0.213972,-0.346213 0.03121,-0.4486 0.57471,-0.240033 1.058087,0.406025 1.251678,0.843797 0.373148,0.843797 -0.316091,0 -0.742631,-0.271695 -0.947858,-0.603764 z M 67.831787,76.8967 c 0,-0.83979 0.13863,-1.18334 0.308059,-0.763445 0.16943,0.419895 0.16943,1.106996 0,1.526891 -0.169429,0.419895 -0.308059,0.07635 -0.308059,-0.763446 z m 20.523722,-1.04272 c 0.759726,-0.146087 1.859088,-0.140541 2.443026,0.01234 0.583938,0.152866 -0.03768,0.272397 -1.381324,0.265618 -1.343664,-0.0068 -1.821428,-0.131857 -1.061702,-0.277944 z m 4.306347,-0.596006 c 0.440886,-0.17643 0.967664,-0.154736 1.170618,0.04819 0.202949,0.202955 -0.157783,0.347301 -0.801618,0.320782 -0.7115,-0.02932 -0.856219,-0.174029 -0.369,-0.368995 z M 65.139639,74.659939 c 0.419895,-0.16943 1.106997,-0.16943 1.526892,0 0.419895,0.16943 0.07634,0.30806 -0.763446,0.30806 -0.83979,0 -1.183341,-0.13863 -0.763446,-0.30806 z M 59.070246,74.03646 c 0.44089,-0.176429 0.967668,-0.154735 1.170617,0.04819 0.202949,0.202955 -0.157779,0.347301 -0.801618,0.320782 -0.711496,-0.02932 -0.856219,-0.174029 -0.368999,-0.368995 z m 12.825888,0 c 0.440886,-0.176429 0.967664,-0.154735 1.170618,0.04819 0.202949,0.202955 -0.157783,0.347301 -0.801618,0.320782 -0.711501,-0.02932 -0.856219,-0.174029 -0.369,-0.368995 z m 24.825042,-0.844932 c -0.221418,-0.358264 -0.271592,-0.782379 -0.111494,-0.942477 0.160091,-0.160098 0.453829,0.133029 0.652746,0.65139 0.412981,1.07622 0.06101,1.265524 -0.541252,0.291087 z M 65.139639,70.9954 c 0.419895,-0.16943 1.106997,-0.16943 1.526892,0 0.419895,0.16943 0.07634,0.308059 -0.763446,0.308059 -0.83979,0 -1.183341,-0.138629 -0.763446,-0.308059 z m 2.692148,-2.038534 c 0,-0.839791 0.13863,-1.183341 0.308059,-0.763446 0.16943,0.419895 0.16943,1.106996 0,1.526891 -0.169429,0.419895 -0.308059,0.07635 -0.308059,-0.763445 z m 29.878857,0.254483 c 0.02932,-0.7115 0.174029,-0.856219 0.368995,-0.369 0.176429,0.440887 0.154735,0.967664 -0.04819,1.170618 -0.202955,0.202949 -0.347301,-0.157782 -0.320782,-0.801618 z M 80.817876,57.65787 c -5.44e-4,-6.718322 0.08869,-9.550056 0.198294,-6.292743 0.1096,3.257313 0.110046,8.754122 0.0012,12.215133 -0.109062,3.461004 -0.19874,0.795932 -0.199277,-5.92239 z m -27.507513,3.053782 c 0.0012,-4.030993 0.100054,-5.600555 0.219658,-3.487915 0.119605,2.112639 0.118617,5.410724 -0.0022,7.329079 -0.12081,1.91835 -0.218668,0.189829 -0.21746,-3.841164 z m 10.597582,6.337155 c 0.414301,-0.417403 0.90712,-0.605058 1.095166,-0.417012 0.188046,0.188046 -0.150924,0.529556 -0.753264,0.758914 -0.870451,0.331445 -0.940602,0.261294 -0.341902,-0.341902 z m 34.613869,-9.085559 c 0,-5.542616 0.09259,-7.810049 0.205764,-5.038741 0.113167,2.771307 0.113167,7.306175 0,10.077482 -0.113173,2.771308 -0.205764,0.503875 -0.205764,-5.038741 z m -40.100496,7.535343 c 0.419895,-0.16943 1.106996,-0.16943 1.526891,0 0.419895,0.16943 0.07634,0.30806 -0.763446,0.30806 -0.83979,0 -1.183341,-0.13863 -0.763445,-0.30806 z m 12.825887,0 c 0.419895,-0.16943 1.106996,-0.16943 1.526891,0 0.419895,0.16943 0.07635,0.30806 -0.763446,0.30806 -0.83979,0 -1.18334,-0.13863 -0.763445,-0.30806 z M 56.838172,63.460057 c 0,-0.83979 0.138626,-1.183341 0.308058,-0.763446 0.169431,0.419895 0.169431,1.106996 0,1.526891 -0.169432,0.419896 -0.308058,0.07635 -0.308058,-0.763445 z m 12.825885,0 c 0,-0.83979 0.138629,-1.183341 0.308059,-0.763446 0.16943,0.419895 0.16943,1.106996 0,1.526891 -0.16943,0.419896 -0.308059,0.07635 -0.308059,-0.763445 z m -9.257781,-1.83227 c -0.55047,-0.355741 -0.625801,-0.595784 -0.188734,-0.601404 0.400071,-0.0051 0.897261,0.265488 1.104869,0.601404 0.468634,0.758273 0.257204,0.758273 -0.916135,0 z m 12.825887,0 c -0.550468,-0.355741 -0.625799,-0.595784 -0.188736,-0.601404 0.40007,-0.0051 0.897263,0.265488 1.104871,0.601404 0.468634,0.758273 0.257202,0.758273 -0.916135,0 z m -8.550591,-1.221513 c 0,-0.335916 0.549681,-0.610756 1.221513,-0.610756 0.671832,0 1.221513,0.27484 1.221513,0.610756 0,0.335916 -0.549681,0.610757 -1.221513,0.610757 -0.671832,0 -1.221513,-0.274841 -1.221513,-0.610757 z m 13.026301,-6.412943 c 0.0024,-2.351413 0.1131,-3.238514 0.245316,-1.971337 0.132211,1.267178 0.129994,3.191061 -0.0049,4.275296 -0.134965,1.084235 -0.243142,0.04745 -0.24043,-2.303959 z m -17.912353,0.6761 c 0,-0.132018 0.426535,-0.403711 0.947856,-0.603761 0.543528,-0.208571 0.788683,-0.106179 0.574712,0.240034 -0.358672,0.580344 -1.522568,0.858387 -1.522568,0.363727 z m -2.957348,-2.202992 c 0,-0.83979 0.138626,-1.183341 0.308058,-0.763445 0.169431,0.419895 0.169431,1.106996 0,1.526891 -0.169432,0.419895 -0.308058,0.07634 -0.308058,-0.763446 z m 3.568104,-1.832269 c -0.55047,-0.355742 -0.625801,-0.595785 -0.188734,-0.601404 0.400071,-0.0051 0.897261,0.265488 1.104869,0.601404 0.468634,0.758269 0.257204,0.758269 -0.916135,0 z m 37.352581,-4.275296 c 0,-0.83979 0.13863,-1.183341 0.308059,-0.763446 0.16943,0.419895 0.16943,1.106996 0,1.526892 -0.169429,0.419895 -0.308059,0.07634 -0.308059,-0.763446 z m 1.1733,-1.577788 c 0.02932,-0.711496 0.174029,-0.856219 0.368995,-0.368999 0.176429,0.44089 0.154735,0.967668 -0.04819,1.170617 -0.202954,0.202949 -0.347301,-0.157779 -0.320782,-0.801618 z m -2.146602,-1.296965 c -0.331445,-0.870449 -0.261293,-0.940603 0.341902,-0.341898 0.417403,0.414297 0.605058,0.90712 0.417012,1.095164 -0.188046,0.188045 -0.529556,-0.150925 -0.758914,-0.753266 z m -8.120166,-4.266818 c 0.594247,-0.154853 1.418769,-0.144669 1.832269,0.02263 0.413501,0.1673 -0.0727,0.293998 -1.080447,0.281551 -1.007748,-0.01245 -1.34607,-0.149328 -0.751822,-0.304181 z"
         id="path3800" />
      <path
         style="fill:#494949;fill-opacity:1;stroke-width:0.610757"
         d="m 86.590899,70.331068 c -0.759702,-0.968697 -0.738099,-0.990299 0.230597,-0.230597 0.587853,0.461029 1.068824,0.942 1.068824,1.068823 0,0.502677 -0.501547,0.179141 -1.299421,-0.838226 z m 5.496809,-5.496809 c -0.759702,-0.968697 -0.7381,-0.990299 0.230597,-0.230597 1.017368,0.797874 1.340904,1.299421 0.838227,1.299421 -0.126824,0 -0.607795,-0.480971 -1.068824,-1.068824 z m -0.532849,-3.437066 c 0,-0.126827 0.480971,-0.607798 1.068824,-1.068824 0.968697,-0.759702 0.990299,-0.7381 0.230598,0.230594 -0.797875,1.017367 -1.299422,1.340904 -1.299422,0.83823 z M 65.177812,55.713762 c 0.440886,-0.17643 0.967664,-0.154731 1.170618,0.04822 0.202949,0.20295 -0.157782,0.347302 -0.801618,0.320782 -0.7115,-0.0293 -0.856219,-0.17403 -0.369,-0.368999 z m 20.880239,0.186622 c 0,-0.126827 0.48097,-0.607798 1.068823,-1.068824 0.968697,-0.759702 0.990299,-0.7381 0.230598,0.230594 -0.797874,1.017367 -1.299421,1.340904 -1.299421,0.83823 z M 67.831787,52.466439 c 0,-0.83979 0.13863,-1.183341 0.308059,-0.763445 0.16943,0.419895 0.16943,1.106996 0,1.526891 -0.169429,0.419895 -0.308059,0.07634 -0.308059,-0.763446 z m 1.83227,0 c 0,-0.83979 0.138629,-1.183341 0.308059,-0.763445 0.16943,0.419895 0.16943,1.106996 0,1.526891 -0.16943,0.419895 -0.308059,0.07634 -0.308059,-0.763446 z m 16.926842,-2.290337 c -0.759702,-0.968694 -0.738099,-0.990296 0.230597,-0.230594 0.587853,0.461026 1.068824,0.941997 1.068824,1.068824 0,0.502673 -0.501547,0.179137 -1.299421,-0.83823 z m 5.496809,-5.496809 c -0.759702,-0.968694 -0.7381,-0.990296 0.230597,-0.230594 1.017368,0.797874 1.340904,1.299418 0.838227,1.299418 -0.126824,0 -0.607795,-0.48097 -1.068824,-1.068824 z"
         id="path3798" />
      <path
         style="fill:#333333;fill-opacity:1;stroke-width:0.610757"
         d="M 14.39807,98.534925 C 7.6471855,96.388488 3.2660601,88.82651 4.8006176,81.969388 6.3487936,75.051403 12.161178,70.431757 19.18021,70.540563 c 6.60405,0.102381 11.617749,3.97889 13.49414,10.433444 0.848545,2.918891 0.891579,3.973161 0.274697,6.729676 -1.872451,8.366992 -10.48529,13.395717 -18.550977,10.831242 z m 9.668193,-5.782252 c 7.880407,-4.788808 4.102609,-17.312395 -5.222365,-17.312395 -9.3291106,0 -12.9855565,12.487748 -5.088406,17.378277 4.233701,2.621838 5.375186,0.423419 1.501691,-2.892146 -2.908529,-2.48959 -3.567705,-4.837204 -2.179583,-7.762453 1.96313,-4.13699 7.076118,-5.043309 10.294621,-1.824812 3.797053,3.797055 2.075477,9.255545 -4.26288,13.516042 -1.892676,1.272212 2.747423,0.240162 4.956922,-1.102513 z M 54.135978,89.26452 C 53.290361,88.325794 53.202353,85.785498 53.41293,68.394279 53.565546,55.789971 53.884112,48.36144 54.289401,47.956151 c 0.762048,-0.762049 15.310905,-1.303492 19.230704,-0.715682 1.931004,0.289572 2.973853,0.8089 3.464211,1.725133 0.470007,0.878221 0.755383,7.137454 0.864684,18.965382 0.08973,9.709997 0.393138,17.87696 0.674245,18.148807 0.812044,0.785293 5.2643,-1.039904 6.766999,-2.774123 1.697213,-1.958702 2.371604,-4.438716 1.455995,-5.354325 -0.510416,-0.510416 -0.688188,-0.254374 -0.688188,0.991184 0,2.496486 -1.64533,5.283252 -3.119281,5.283252 h -1.255642 l 1.271327,-2.057046 c 1.644126,-2.660254 1.69378,-5.62985 0.101098,-6.046344 -0.668082,-0.174706 -1.832434,-1.712201 -2.713481,-3.583082 -1.507079,-3.200248 -1.540493,-3.567502 -1.425488,-15.667329 0.09287,-9.771195 0.295686,-12.50019 0.959462,-12.910292 0.462929,-0.286014 0.661364,-0.811804 0.44096,-1.168423 -0.220403,-0.356619 0.213979,-0.97738 0.965289,-1.379469 0.75131,-0.40209 1.789657,-1.20872 2.307444,-1.792512 1.053018,-1.187261 5.972497,-2.56657 6.442376,-1.806293 0.166346,0.269156 0.788304,0.36232 1.38213,0.207031 1.501227,-0.39258 4.986454,2.112021 6.501662,4.672315 1.141534,1.928885 1.284775,3.307111 1.466726,14.112506 0.166412,9.882634 0.03237,12.380029 -0.7673,14.293865 -1.257761,3.010242 -1.767371,2.505751 -0.646822,-0.640329 0.995265,-2.794339 1.241326,-20.433709 0.33927,-24.321352 -1.044773,-4.502724 -6.955247,-7.943458 -11.224753,-6.534395 -2.396908,0.791051 -5.691402,4.139624 -6.24573,6.348255 -0.193793,0.772132 -0.266473,6.663595 -0.161515,13.09214 l 0.190837,11.688263 2.409001,2.465538 c 2.732598,2.796722 5.251914,3.539041 8.882983,2.617373 l 2.407383,-0.611056 -0.327463,2.830734 c -0.763336,6.598528 -3.3575,10.357503 -8.046748,11.659831 -1.265311,0.351411 -8.654365,0.632335 -16.68218,0.634228 C 56.55634,90.33299 55.001405,90.22524 54.135978,89.26452 Z m 20.968606,-0.174175 c 1.129912,-0.604716 1.181362,-1.477127 1.181362,-20.032815 0,-14.274991 -0.193634,-19.594203 -0.732908,-20.133479 -1.02455,-1.024549 -18.886114,-1.024549 -19.910663,0 -1.048349,1.04835 -1.048349,39.017277 0,40.065629 0.93005,0.930048 17.749935,1.017044 19.462209,0.100665 z M 57.573359,83.309644 c -0.5346,-1.393148 0.213667,-2.748404 1.517452,-2.748404 0.641244,0 1.508044,0.41226 1.926222,0.916134 0.955767,1.151631 -0.163332,2.748405 -1.926222,2.748405 -0.641244,0 -1.324097,-0.412261 -1.517452,-0.916135 z m 12.842325,0.04281 c -0.608112,-1.584712 0.244229,-2.894491 1.744925,-2.681392 1.009416,0.143338 1.376933,0.603067 1.376933,1.722419 0,1.119352 -0.367517,1.57908 -1.376933,1.722419 -0.825913,0.117277 -1.524197,-0.188235 -1.744925,-0.763446 z M 57.347308,78.108502 c -0.965889,-1.804779 0.296455,-3.229625 2.56616,-2.896506 1.278875,0.187697 1.714321,-6.11e-4 1.714321,-0.741483 0,-0.767294 -0.466235,-0.938666 -2.050563,-0.753704 -1.529643,0.178579 -2.154005,-0.03017 -2.457752,-0.821724 -0.446547,-1.163656 1.134089,-3.327463 2.430695,-3.327463 2.198159,0 3.611206,5.921657 1.924931,8.066811 -1.331895,1.694331 -3.35065,1.926192 -4.127792,0.474094 z m 12.825887,0 c -0.965887,-1.804779 0.296456,-3.229625 2.566161,-2.896506 1.278875,0.187697 1.71432,-6.11e-4 1.71432,-0.741483 0,-0.767294 -0.466233,-0.938666 -2.050566,-0.753704 -1.529639,0.178579 -2.154004,-0.03017 -2.457751,-0.821724 -0.446543,-1.163681 1.134089,-3.327487 2.430695,-3.327487 2.198161,0 3.611208,5.921657 1.924933,8.066811 -1.331895,1.69433 -3.350647,1.926192 -4.127792,0.474093 z m -6.492268,-0.295667 c -0.624364,-1.627055 0.274462,-2.748404 2.202993,-2.748404 1.649977,0 1.851435,0.199369 1.851435,1.832269 0,1.632901 -0.201458,1.83227 -1.851435,1.83227 -1.08231,0 -1.997486,-0.380587 -2.202993,-0.916135 z m 0,-7.939835 c -0.624364,-1.627055 0.274462,-2.748404 2.202993,-2.748404 1.649977,0 1.851435,0.199369 1.851435,1.83227 0,1.6329 -0.201458,1.832269 -1.851435,1.832269 -1.08231,0 -1.997486,-0.380587 -2.202993,-0.916135 z m -6.328433,-6.412943 c 0,-1.786579 0.127937,-1.897328 1.984958,-1.718278 1.659083,0.159963 1.984959,0.442059 1.984959,1.718278 0,1.276218 -0.325876,1.558315 -1.984959,1.718278 -1.857021,0.179049 -1.984958,0.0683 -1.984958,-1.718278 z m 6.767133,0.97495 c -1.313517,-1.582696 -0.547366,-3.093051 1.677583,-3.307103 1.953664,-0.187951 2.015222,-0.126222 1.827268,1.832273 -0.14503,1.511299 -0.518764,2.073103 -1.469462,2.208935 -0.701222,0.100189 -1.617149,-0.230157 -2.035389,-0.734105 z m 6.058754,-0.97495 c 0,-1.786579 0.127935,-1.897328 1.984958,-1.718278 1.659084,0.159963 1.984959,0.442059 1.984959,1.718278 0,1.276218 -0.325875,1.558315 -1.984959,1.718278 -1.857023,0.179049 -1.984958,0.0683 -1.984958,-1.718278 z m -6.497454,-4.580674 c -0.624364,-1.627055 0.274462,-2.748405 2.202993,-2.748405 1.649977,0 1.851435,0.19937 1.851435,1.83227 0,1.6329 -0.201458,1.83227 -1.851435,1.83227 -1.08231,0 -1.997486,-0.380585 -2.202993,-0.916135 z m 0.525391,-4.689477 c -1.755455,-1.75545 -0.222578,-4.394338 2.186618,-3.764321 0.991173,0.259198 1.342419,0.811829 1.342419,2.112087 0,0.96857 -0.252365,1.761037 -0.560803,1.761037 -0.308444,0 -0.934568,0.143427 -1.391395,0.318726 -0.456822,0.1753 -1.166399,-0.01709 -1.576839,-0.427529 z m 7.040887,0.298549 c -1.649758,-0.431126 -1.435284,-3.615986 0.273594,-4.06287 1.560819,-0.408162 2.932877,0.524433 2.932877,1.993487 0,1.012053 -1.150396,2.556919 -1.801731,2.419545 -0.184754,-0.03897 -0.816887,-0.19654 -1.40474,-0.350162 z M 57.352494,52.466439 c 0,-1.786579 0.127937,-1.897327 1.984958,-1.718277 1.659083,0.159966 1.984959,0.442061 1.984959,1.718277 0,1.276217 -0.325876,1.558312 -1.984959,1.718277 -1.857021,0.179051 -1.984958,0.0683 -1.984958,-1.718277 z m 29.163783,35.349886 c 1.530617,-0.740958 3.322986,-2.272931 4.187255,-3.578923 1.647259,-2.489188 2.789679,-7.245069 1.557405,-6.48348 -0.388344,0.240009 -0.707104,1.175975 -0.708362,2.079919 -0.0031,2.251248 -2.023613,5.377094 -4.420118,6.838262 -1.424071,0.86827 -3.076851,1.2143 -5.80777,1.215931 -2.136127,0.0012 -3.817228,0.271261 -3.817228,0.613041 0,1.139745 6.215901,0.667282 9.008818,-0.68475 z m 3.226761,-6.69369 c 0.779863,-1.882761 0.390316,-3.941133 -0.626893,-3.312469 -0.338286,0.209074 -0.615068,0.992907 -0.615068,1.741847 0,0.748934 -0.539695,2.420288 -1.199325,3.714109 l -1.199324,2.352408 1.455592,-1.36746 c 0.800579,-0.752104 1.783836,-2.159897 2.185018,-3.128435 z M 87.667309,70.744806 c -1.933918,-1.521217 -2.092269,-3.747956 -0.387745,-5.45248 1.704523,-1.704523 3.931262,-1.546173 5.45248,0.387745 1.640046,2.084976 1.595748,3.002412 -0.233291,4.831445 -1.829033,1.829038 -2.746468,1.873337 -4.831444,0.23329 z M 87.279564,60.406274 c -1.703174,-1.703175 -1.388122,-4.109048 0.745801,-5.695171 1.397679,-1.038883 1.90895,-1.122753 3.215468,-0.527466 0.854442,0.389311 1.872054,1.406928 2.261369,2.261371 0.595286,1.306513 0.511417,1.817789 -0.527468,3.215467 -1.586123,2.13392 -3.991996,2.448973 -5.69517,0.745799 z m 0.387745,-9.816433 c -1.933918,-1.521219 -2.092269,-3.747956 -0.387745,-5.45248 1.704523,-1.704524 3.931262,-1.546173 5.45248,0.387744 1.640046,2.084978 1.595748,3.002414 -0.233291,4.831448 -1.829033,1.829033 -2.746468,1.873332 -4.831444,0.233288 z"
         id="path3796" />
    </g>
  </g>
</svg>
