<?xml version="1.0" encoding="UTF-8" standalone="no"?>
<!-- Created with Inkscape (http://www.inkscape.org/) -->

<svg
   version="1.1"
   id="svg2352"
   width="144"
   height="144"
   viewBox="0 0 144 144"
   sodipodi:docname="add_list_type_device_7141.svg"
   inkscape:version="1.1.1 (3bf5ae0d25, 2021-09-20)"
   xmlns:inkscape="http://www.inkscape.org/namespaces/inkscape"
   xmlns:sodipodi="http://sodipodi.sourceforge.net/DTD/sodipodi-0.dtd"
   xmlns="http://www.w3.org/2000/svg"
   xmlns:svg="http://www.w3.org/2000/svg">
  <defs
     id="defs2356" />
  <sodipodi:namedview
     id="namedview2354"
     pagecolor="#505050"
     bordercolor="#ffffff"
     borderopacity="1"
     inkscape:pageshadow="0"
     inkscape:pageopacity="0"
     inkscape:pagecheckerboard="1"
     showgrid="false"
     inkscape:zoom="4.5972222"
     inkscape:cx="71.891239"
     inkscape:cy="72"
     inkscape:window-width="1440"
     inkscape:window-height="890"
     inkscape:window-x="-6"
     inkscape:window-y="-6"
     inkscape:window-maximized="1"
     inkscape:current-layer="g2358" />
  <g
     inkscape:groupmode="layer"
     inkscape:label="Image"
     id="g2358">
    <g
       id="g2362"
       transform="translate(7.1782481,-1.0876133)">
      <path
         style="fill:#d0d0d0;fill-opacity:1"
         d="M 44.22894,130.81318 C 44.727219,129.31834 47,128.49529 47,129.80968 c 0,0.53699 -0.712602,1.24979 -1.58356,1.58401 -0.973914,0.37373 -1.431083,0.15024 -1.1875,-0.58051 z M 102,130.13867 c 0,-0.47373 1.2375,-0.71603 2.75,-0.53845 1.5125,0.17758 0.5,-0.30653 -2.25,-1.07579 l -5,-1.39865 4.99101,0.18711 c 3.86896,0.14505 5.06571,0.58053 5.32332,1.93711 0.2581,1.35914 -0.3541,1.75 -2.74101,1.75 C 103.383,131 102,130.6124 102,130.13867 Z m -70,-2.51623 c 0,-0.20765 0.7875,-0.99515 1.75,-1.75 1.586056,-1.24387 1.621426,-1.2085 0.377555,0.37756 C 32.821186,127.91575 32,128.44548 32,127.62244 Z m 14.75,-0.28472 c 0.6875,-0.27741 1.8125,-0.27741 2.5,0 0.6875,0.27741 0.125,0.50439 -1.25,0.50439 -1.375,0 -1.9375,-0.22698 -1.25,-0.50439 z m -28.671053,-9.92105 c 0.04798,-1.16495 0.284941,-1.4019 0.604167,-0.60417 0.288871,0.72187 0.253344,1.58437 -0.07895,1.91667 -0.332292,0.33229 -0.568641,-0.25834 -0.52522,-1.3125 z M 37.157895,117 c 0,-1.375 0.226973,-1.9375 0.504386,-1.25 0.277412,0.6875 0.277412,1.8125 0,2.5 -0.277413,0.6875 -0.504386,0.125 -0.504386,-1.25 z m -3.28545,-6.75 c -1.243871,-1.58606 -1.208501,-1.62143 0.377555,-0.37756 0.9625,0.75485 1.75,1.54235 1.75,1.75 0,0.82304 -0.821186,0.29331 -2.127555,-1.37244 z M 26.75,103.33772 c 0.6875,-0.27741 1.8125,-0.27741 2.5,0 0.6875,0.27741 0.125,0.50439 -1.25,0.50439 -1.375,0 -1.9375,-0.22698 -1.25,-0.50439 z M 37,12.622445 c 0,-0.207656 0.7875,-0.995156 1.75,-1.75 C 40.336056,9.6285741 40.371426,9.6639444 39.127555,11.25 37.821186,12.915748 37,13.445479 37,12.622445 Z"
         id="path2376" />
      <path
         style="fill:#b9b9b9;fill-opacity:1"
         d="m 26.75,138.33772 c 0.6875,-0.27741 1.8125,-0.27741 2.5,0 0.6875,0.27741 0.125,0.50439 -1.25,0.50439 -1.375,0 -1.9375,-0.22698 -1.25,-0.50439 z m -9.242921,-2.32627 c -0.350339,-0.56686 0.05106,-0.7345 0.940983,-0.39301 1.732417,0.66479 2.049387,1.38156 0.610955,1.38156 -0.517541,0 -1.215913,-0.44485 -1.551938,-0.98855 z M 36,136.60699 c 0,-0.21616 0.698372,-0.661 1.551938,-0.98855 0.889925,-0.34149 1.291322,-0.17385 0.940983,0.39301 C 37.905663,136.96166 36,137.4169 36,136.60699 Z M 13.404988,132.75 11.5,130.5 l 2.25,1.90499 C 15.864445,134.19521 16.455241,135 15.654988,135 c -0.189757,0 -1.202257,-1.0125 -2.25,-2.25 z M 41,133.62244 c 0,-0.20765 0.7875,-0.99515 1.75,-1.75 1.586056,-1.24387 1.621426,-1.2085 0.377555,0.37756 C 41.821186,133.91575 41,134.44548 41,133.62244 Z m 62.75,-4.28472 c 0.6875,-0.27741 1.8125,-0.27741 2.5,0 0.6875,0.27741 0.125,0.50439 -1.25,0.50439 -1.375,0 -1.9375,-0.22698 -1.25,-0.50439 z m -52,-2.04345 c 1.2375,-0.23836 3.2625,-0.23836 4.5,0 1.2375,0.23835 0.225,0.43337 -2.25,0.43337 -2.475,0 -3.4875,-0.19502 -2.25,-0.43337 z m 41.5,0.0164 c 0.9625,-0.25152 2.5375,-0.25152 3.5,0 0.9625,0.25153 0.175,0.45733 -1.75,0.45733 -1.925,0 -2.7125,-0.2058 -1.75,-0.45733 z m -86.1710526,-14.894 c 0.047984,-1.16495 0.2849403,-1.4019 0.6041666,-0.60417 0.2888706,0.72187 0.2533443,1.58437 -0.078947,1.91667 -0.3322917,0.33229 -0.5686404,-0.25834 -0.5252196,-1.3125 z M 8,109.05902 c 0,-0.51754 0.4448455,-1.21592 0.9885456,-1.55194 0.5668601,-0.35034 0.7345075,0.0511 0.3930112,0.94098 C 8.7167659,110.18048 8,110.49745 8,109.05902 Z M 37.458908,56 c 0,-23.925 0.130522,-33.7125 0.290048,-21.75 0.159527,11.9625 0.159527,31.5375 0,43.5 C 37.58943,89.7125 37.458908,79.925 37.458908,56 Z M 23.8125,96.316886 c 0.721875,-0.288871 1.584375,-0.253344 1.916667,0.07895 0.332291,0.332292 -0.258334,0.568641 -1.3125,0.52522 -1.164943,-0.04798 -1.4019,-0.284941 -0.604167,-0.604167 z m 7,0 c 0.721875,-0.288871 1.584375,-0.253344 1.916667,0.07895 0.332291,0.332292 -0.258334,0.568641 -1.3125,0.52522 -1.164943,-0.04798 -1.4019,-0.284941 -0.604167,-0.604167 z"
         id="path2374" />
      <path
         style="fill:#a3a3a3;fill-opacity:1"
         d="M 23.541681,138.15066 C 19.151097,137.3042 11.7603,131.28274 9.2415467,126.5 7.0673517,122.37152 7.1021295,112.38779 9.305059,108.26743 13.596749,100.24024 18.993908,96.926106 28,96.787753 c 5.832153,-0.08959 6.665041,0.161971 11.850204,3.579227 8.003545,5.2747 11.256339,16.64874 7.187647,25.13302 -4.538117,9.46316 -13.895857,14.50149 -23.49617,12.65066 z m 12.569037,-9.2295 c 11.05456,-7.87154 5.262773,-25.9328 -8.311058,-25.91742 -13.015155,0.0147 -18.6297362,17.98993 -8.077658,25.86078 3.867327,2.88466 12.375839,2.91406 16.388716,0.0566 z M 26,128 c 0,-1.1 -0.470455,-2 -1.045455,-2 -0.575,0 -2.15,-1.10455 -3.5,-2.45455 C 16.124417,118.21533 20.425606,108 28,108 c 4.286958,0 9,4.69876 9,8.97274 0,3.96077 -2.205149,8.25687 -5.614879,10.93896 C 28.038798,130.54392 26,130.57735 26,128 Z m 32.5,0 c -0.339919,-0.55 -0.168034,-1 0.381966,-1 0.55,0 1.278115,0.45 1.618034,1 0.339919,0.55 0.168034,1 -0.381966,1 -0.55,0 -1.278115,-0.45 -1.618034,-1 z m 24.583333,0.63759 c 0.229167,-0.19933 2.418279,-0.61846 4.864694,-0.93141 2.877588,-0.3681 3.936781,-0.24555 3,0.3471 -1.336416,0.84548 -8.802714,1.40019 -7.864694,0.58431 z M 111.39994,98.5 c 0.001,-8.25 0.15629,-11.491932 0.34419,-7.204294 0.1879,4.287638 0.18676,11.037634 -0.003,15.000004 -0.1893,3.96236 -0.34304,0.45429 -0.34164,-7.79571 z M 58.313512,10.251409 c 9.247431,-0.165189 24.097431,-0.164878 33,6.9e-4 C 100.21608,10.417666 92.65,10.55282 74.5,10.552441 56.35,10.552062 49.06608,10.416597 58.313512,10.251409 Z"
         id="path2372" />
      <path
         style="fill:#8c8c8c;fill-opacity:1"
         d="m 60.528447,128.04603 c -0.440604,-0.71291 4.228797,-1.00084 14.662536,-0.90412 16.589418,0.15377 14.335457,1.30022 -3.353519,1.70572 -6.606064,0.15144 -10.908484,-0.15353 -11.309017,-0.8016 z m 50.460293,-8.34138 0.48874,-7.20465 0.31283,6.39843 c 0.17206,3.51914 -0.0479,6.76123 -0.48874,7.20465 -0.44086,0.44342 -0.58164,-2.43587 -0.31283,-6.39843 z M 111.28601,79.5 c 0.008,-2.75 0.20172,-3.756313 0.43157,-2.23625 0.22986,1.520062 0.22371,3.770062 -0.0136,5 C 111.46657,83.493687 111.27851,82.25 111.28601,79.5 Z M 111.44388,43 c 0,-16.775 0.13684,-23.6375 0.3041,-15.25 0.16726,8.3875 0.16726,22.1125 0,30.5 -0.16726,8.3875 -0.3041,1.525 -0.3041,-15.25 z"
         id="path2370" />
      <path
         style="fill:#606060;fill-opacity:1"
         d="m 105.8125,126.31689 c 0.72187,-0.28887 1.58437,-0.25335 1.91667,0.0789 0.33229,0.3323 -0.25834,0.56864 -1.3125,0.52522 -1.16495,-0.048 -1.4019,-0.28494 -0.60417,-0.60416 z M 38.458476,55.5 c 2.38e-4,-23.65 0.131039,-33.182057 0.290669,-21.18235 0.15963,11.999708 0.159436,31.349708 -4.32e-4,43 C 38.588845,88.967943 38.458239,79.15 38.458476,55.5 Z"
         id="path2368" />
      <path
         style="fill:#494949;fill-opacity:1"
         d="m 61.25,126.25214 c 8.1125,-0.16808 21.3875,-0.16808 29.5,0 8.1125,0.16809 1.475,0.30561 -14.75,0.30561 -16.225,0 -22.8625,-0.13752 -14.75,-0.30561 z M 109.95956,125.25 c -0.0222,-0.4125 -0.13474,-11.76118 -0.25,-25.21929 L 109.5,75.56143 107,74.295457 104.5,73.029484 107.23512,73.014742 109.97024,73 110.25058,43.25 c 0.15418,-16.3625 0.38588,-4.4375 0.51488,26.5 0.129,30.9375 0.01,56.25 -0.26546,56.25 -0.275,0 -0.5182,-0.3375 -0.54044,-0.75 z M 38.995535,55.250301 C 39.487849,11.784409 39.492819,11.699898 39.759987,42.25 L 40.028904,73 42.264452,73.06768 44.5,73.135361 42.25,74.220495 C 40.104342,75.255307 40,75.855032 40,87.152814 c 0,6.515952 -0.3375,11.847322 -0.75,11.847487 -0.4125,1.66e-4 -0.527009,-19.687334 -0.254465,-43.75 z M 57.75,11.251607 c 9.4875,-0.164359 25.0125,-0.164359 34.5,0 9.4875,0.164359 1.725,0.298835 -17.25,0.298835 -18.975,0 -26.7375,-0.134476 -17.25,-0.298835 z"
         id="path2366" />
      <path
         style="fill:#333333;fill-opacity:1"
         d="M 48.75386,119.19605 C 49.294807,111.63561 47.503936,106.65548 42.597318,102.07569 40.075912,99.722227 40,99.295596 40,87.4785 40,75.842969 40.099321,75.257728 42.25,74.220495 L 44.5,73.135361 42.25,73.06768 40,73 V 42.5 12 h 34.833333 c 19.158334,0 35.020837,0.186996 35.249997,0.415548 0.22917,0.228551 0.29126,13.953551 0.13798,30.5 L 109.94262,73 l -2.72131,0.01474 -2.72131,0.01474 2.5,1.265857 2.5,1.265858 0.17191,25.219405 L 109.84382,126 H 79.055432 48.26704 Z"
         id="path2364" />
    </g>
  </g>
</svg>
