<?xml version="1.0" encoding="UTF-8" standalone="no"?>
<!-- Created with Inkscape (http://www.inkscape.org/) -->

<svg
   width="100mm"
   height="100mm"
   viewBox="0 0 100 100"
   version="1.1"
   id="svg11214"
   inkscape:version="1.1.1 (3bf5ae0d25, 2021-09-20)"
   sodipodi:docname="add_list_type_device_601a.svg"
   xmlns:inkscape="http://www.inkscape.org/namespaces/inkscape"
   xmlns:sodipodi="http://sodipodi.sourceforge.net/DTD/sodipodi-0.dtd"
   xmlns="http://www.w3.org/2000/svg"
   xmlns:svg="http://www.w3.org/2000/svg">
  <sodipodi:namedview
     id="namedview11216"
     pagecolor="#ffffff"
     bordercolor="#666666"
     borderopacity="1.0"
     inkscape:pageshadow="2"
     inkscape:pageopacity="0.0"
     inkscape:pagecheckerboard="true"
     inkscape:document-units="mm"
     showgrid="false"
     width="100mm"
     inkscape:zoom="0.58974467"
     inkscape:cx="378.97757"
     inkscape:cy="415.43402"
     inkscape:window-width="1440"
     inkscape:window-height="890"
     inkscape:window-x="-6"
     inkscape:window-y="-6"
     inkscape:window-maximized="1"
     inkscape:current-layer="layer1" />
  <defs
     id="defs11211" />
  <g
     inkscape:label="Laag 1"
     inkscape:groupmode="layer"
     id="layer1">
    <g
       id="g11248">
      <path
         style="fill:#d0d0d0;fill-opacity:1;stroke-width:0.516944"
         d="m 14.664517,98.972764 c -0.55185,-0.349815 -0.520686,-0.501874 0.156085,-0.761576 0.465084,-0.17847 0.715764,-0.1144 0.557066,0.142376 -0.158698,0.256782 0.0037,0.584689 0.360858,0.728684 0.357171,0.144 0.416776,0.276616 0.132457,0.29471 -0.284319,0.01809 -0.827229,-0.163794 -1.206466,-0.404194 z m 7.151318,-8.013354 c 0,-0.107344 0.407093,-0.514437 0.904651,-0.904652 0.819902,-0.64301 0.838186,-0.624726 0.195175,0.195177 -0.675319,0.861099 -1.099826,1.13494 -1.099826,0.709475 z m -7.820093,-2.777249 c -0.643011,-0.819904 -0.624727,-0.838188 0.195175,-0.195177 0.497558,0.390215 0.904651,0.797308 0.904651,0.904651 0,0.425465 -0.424507,0.151625 -1.099826,-0.709474 z m 19.365167,-7.130715 c 0,-0.413968 0.193854,-0.752675 0.430787,-0.752675 0.236932,0 0.430786,0.218894 0.430786,0.486433 0,0.267539 -0.193854,0.606246 -0.430786,0.752676 -0.236933,0.146434 -0.430787,-0.07246 -0.430787,-0.486434 z m -1.614291,-5.683304 c -0.548179,-0.621526 -0.53505,-0.755751 0.07393,-0.755751 0.407269,0 0.874389,0.348937 1.038044,0.775416 0.376383,0.980838 -0.239148,0.969951 -1.111973,-0.01964 z M 41.8474,74.786973 c 0.355399,-0.143405 0.93696,-0.143405 1.292359,0 0.355399,0.143406 0.06462,0.260742 -0.646179,0.260742 -0.710798,0 -1.001579,-0.117336 -0.64618,-0.260742 z m 4.849511,-0.351382 c -0.878832,-1.058928 -0.173017,-1.374031 3.077757,-1.374031 3.443977,0 4.608615,0.340568 4.608615,1.347667 0,0.998001 -6.860458,1.021532 -7.686372,0.02636 z m 8.720259,-0.06545 c 0,-0.462453 0.303079,-0.642887 0.775415,-0.461636 0.426479,0.163659 0.775416,0.505292 0.775416,0.759194 0,0.253897 -0.348937,0.461636 -0.775416,0.461636 -0.426478,0 -0.775415,-0.341638 -0.775415,-0.759194 z m 4.101901,-1.482346 c 0.25597,-1.251557 0.615199,-1.58361 1.8556,-1.715235 5.612715,-0.595586 9.154787,-1.489614 11.921283,-3.008953 1.681587,-0.923519 2.989764,-1.972507 2.907059,-2.331084 -0.08944,-0.38777 0.158872,-0.533285 0.612779,-0.359106 0.419738,0.16107 0.836343,0.126615 0.925789,-0.07656 0.08945,-0.20318 1.75964,-1.041854 3.711537,-1.863727 1.951896,-0.821873 4.199872,-2.042072 4.9955,-2.71155 l 1.446599,-1.217231 -0.568147,1.203894 c -0.312482,0.662138 -1.343727,1.770858 -2.291657,2.46382 -0.947935,0.692963 -2.383141,1.86947 -3.189346,2.614458 -0.806209,0.744994 -2.984108,1.859783 -4.839781,2.477308 -2.477121,0.824334 -3.355822,1.357437 -3.305777,2.005601 0.03748,0.48556 0.300784,1.064367 0.585103,1.286244 0.284319,0.221872 -0.18093,0.261217 -1.033887,0.08742 -1.233573,-0.251343 -1.392202,-0.194753 -0.775416,0.276632 0.637743,0.487406 0.576713,0.537012 -0.343747,0.279403 -1.414792,-0.395953 -3.882541,0.197406 -3.486443,0.838302 0.175905,0.284619 -0.281217,0.337089 -1.114562,0.127933 -1.037619,-0.260426 -1.310152,-0.188534 -1.026319,0.270723 0.288837,0.467349 -0.116085,0.541912 -1.602964,0.295186 -1.431733,-0.237582 -1.775583,-0.181835 -1.226615,0.198852 0.560822,0.388907 0.06947,0.513181 -1.8556,0.469333 l -2.618407,-0.05965 z M 43.010523,72.645178 c -0.426478,-0.140573 -0.896683,-0.439134 -1.044897,-0.663472 -0.620806,-0.939632 -8.777032,-1.821518 -8.777032,-0.949005 0,0.706983 -6.698525,-0.001 -7.984985,-0.843755 -0.629232,-0.412288 -1.299958,-0.59372 -1.490501,-0.403175 -0.190543,0.190541 -0.346442,0.05016 -0.346442,-0.311965 0,-0.386953 -0.335861,-0.529526 -0.814616,-0.345809 -0.951053,0.364952 -4.659009,-1.684869 -6.39992,-3.537983 -0.663766,-0.706548 -1.402993,-1.163407 -1.642727,-1.015241 -0.239734,0.148161 -0.278678,-0.14979 -0.08654,-0.662112 0.31761,-0.846898 0.262434,-0.861073 -0.607498,-0.156086 -0.894974,0.725282 -0.917943,0.702413 -0.35526,-0.353724 0.738083,-1.385352 0.766676,-1.877105 0.08463,-1.455578 -0.284319,0.175719 -0.516944,-0.03939 -0.516944,-0.47807 0,-0.706362 0.206895,-0.698902 1.809303,0.06523 0.995117,0.474539 1.809303,1.066067 1.809303,1.314505 0,0.248438 0.232624,0.307938 0.516943,0.132219 0.284319,-0.17572 0.516944,-0.05941 0.516944,0.258472 0,0.317879 0.232625,0.434191 0.516944,0.258471 0.284319,-0.175719 0.516943,-0.07911 0.516943,0.214687 0,0.863229 3.189973,2.277524 5.427908,2.406507 1.137276,0.06554 4.045084,0.605615 6.461795,1.200162 2.416712,0.594542 6.184299,1.231639 8.372416,1.415769 4.396001,0.369915 4.090689,0.591466 4.723763,-3.427822 0.14303,-0.908073 0.213688,-0.75436 0.237624,0.516944 0.01873,0.995116 -0.153461,2.274552 -0.38266,2.84319 -0.232086,0.575802 -0.198405,1.307583 0.07602,1.651614 0.74462,0.933497 0.292825,2.627071 -0.620512,2.326024 z m 14.312876,-3.536081 c -0.674146,-0.674146 -0.352291,-1.216973 0.721566,-1.216973 0.601593,0 0.986644,0.270966 0.872342,0.613871 -0.251808,0.75543 -1.114975,1.082035 -1.593908,0.603102 z m 3.919224,-0.541322 c 0.502971,-0.131066 1.200844,-0.122449 1.550831,0.01918 0.349986,0.141607 -0.06153,0.248841 -0.914489,0.238306 -0.852957,-0.01055 -1.139313,-0.126393 -0.636342,-0.257459 z m 4.416492,-0.511837 c 0.373166,-0.149329 0.819035,-0.130967 0.990811,0.04079 0.171775,0.171775 -0.133548,0.293955 -0.678489,0.271509 -0.602213,-0.02481 -0.724703,-0.147298 -0.312322,-0.312316 z m 27.494939,-8.17644 c 0.667762,-0.710797 1.330421,-1.292359 1.472581,-1.292359 0.142159,0 -0.287876,0.581562 -0.955638,1.292359 -0.667762,0.710798 -1.330421,1.292359 -1.472581,1.292359 -0.142159,0 0.287876,-0.581561 0.955638,-1.292359 z M 37.394267,58.303234 C 32.170704,57.392245 24.613058,54.922655 21.543331,53.123676 20.30849,52.400012 18.468894,50.890018 17.455339,49.768134 c -1.553312,-1.71933 -1.842827,-2.415736 -1.842827,-4.432765 0,-4.594291 3.710333,-8.082646 11.532364,-10.84242 3.158485,-1.114378 2.854618,-0.491712 -0.679211,1.391799 -1.747449,0.931381 -3.996276,2.523975 -4.997394,3.539099 -2.032666,2.061105 -3.510541,5.586715 -2.73405,6.52233 0.26836,0.323353 0.334861,0.740979 0.147782,0.928058 -0.18708,0.18708 -0.07605,0.340145 0.246733,0.340145 0.32917,0 0.445432,0.368596 0.264765,0.839407 -0.192147,0.500728 0.01431,1.027679 0.511697,1.306031 0.458595,0.256642 0.724403,0.75173 0.590685,1.100194 -0.254567,0.66339 0.106744,0.945053 3.90467,3.043912 3.353622,1.853326 5.50248,2.499882 9.30488,2.799694 1.848131,0.145721 3.64357,0.360031 3.989863,0.476245 0.346293,0.116209 0.765043,-0.0078 0.930556,-0.275624 0.465971,-0.753957 18.768772,-0.486801 20.655435,0.301497 1.719148,0.718309 1.821048,0.740511 3.502329,0.763236 1.133916,0.0153 1.137163,0.03107 0.129236,0.626236 -1.624573,0.959323 -20.186734,1.037904 -25.518585,0.108026 z m 44.645499,-7.91223 c 0.780988,-0.919607 1.033887,-1.967823 1.033887,-4.285238 0,-2.953925 -0.08127,-3.140666 -2.188579,-5.029006 -1.203718,-1.07864 -2.483154,-1.966403 -2.84319,-1.972807 -0.360035,-0.0064 -1.575546,-0.562072 -2.701128,-1.234817 -1.125588,-0.672745 -2.288711,-1.262095 -2.584718,-1.309666 -0.296013,-0.04757 -1.947363,-0.564884 -3.669669,-1.149585 -1.722307,-0.584701 -4.281177,-1.19912 -5.68638,-1.365377 -1.405203,-0.166256 -3.48541,-0.515996 -4.622686,-0.7772 -1.137276,-0.261204 -5.440831,-0.599736 -9.563456,-0.752294 -12.251387,-0.453362 -11.460759,-0.376175 -8.52957,-0.832726 3.86706,-0.602319 15.654552,-0.56869 20.252631,0.05778 14.027048,1.911129 23.946048,7.256142 23.946048,12.903715 0,2.414025 -0.911728,4.446445 -2.661029,5.931951 L 81.005879,51.6084 Z M 2.8438307,45.146605 c 0,-1.563754 0.096909,-2.203472 0.2153536,-1.421595 0.1184446,0.781877 0.1184446,2.061313 0,2.84319 -0.1184445,0.781877 -0.2153536,0.14216 -0.2153536,-1.421595 z M 44.04441,24.210389 V 22.91803 h 6.203324 6.203323 v 1.292359 1.292359 H 50.247734 44.04441 Z m 23.68248,0.939227 c 0.373166,-0.14933 0.81903,-0.130964 0.99081,0.04081 0.171775,0.171776 -0.133547,0.293955 -0.678488,0.271509 -0.602214,-0.0248 -0.724704,-0.147298 -0.312322,-0.31232 z M 31.540837,24.115729 c 0.373168,-0.14933 0.819032,-0.130964 0.990808,0.04081 0.171776,0.171776 -0.133544,0.293955 -0.678488,0.271509 -0.60221,-0.0248 -0.724703,-0.147299 -0.31232,-0.312319 z m 30.984308,0.01077 c 0.355398,-0.143406 0.93696,-0.143406 1.292359,0 0.355398,0.143407 0.06462,0.260739 -0.64618,0.260739 -0.710797,0 -1.001578,-0.117332 -0.646179,-0.260739 z M 34.610189,23.609553 c 0.355399,-0.143406 0.936961,-0.143406 1.292359,0 0.355399,0.143407 0.06462,0.26074 -0.646179,0.26074 -0.710798,0 -1.001578,-0.117333 -0.64618,-0.26074 z m 24.813294,0 c 0.355399,-0.143406 0.93696,-0.143406 1.292359,0 0.355399,0.143407 0.06462,0.26074 -0.64618,0.26074 -0.710797,0 -1.001578,-0.117333 -0.646179,-0.26074 z M 38.745738,23.09261 c 0.355399,-0.143407 0.936961,-0.143407 1.292359,0 0.355399,0.143407 0.06462,0.260739 -0.646179,0.260739 -0.710798,0 -1.001578,-0.117332 -0.64618,-0.260739 z m 16.988365,-1.303059 c 0.149298,-0.24157 0.488,-0.305383 0.752675,-0.141806 0.676359,0.418014 0.600202,0.581025 -0.271452,0.581025 -0.413974,0 -0.630522,-0.197649 -0.481223,-0.439219 z"
         id="path11264" />
      <path
         style="fill:#b9b9b9;fill-opacity:1;stroke-width:0.516944"
         d="m 21.718908,98.038668 c 0.373169,-0.149329 0.819033,-0.130968 0.990809,0.04079 0.171775,0.171775 -0.133544,0.293955 -0.678489,0.271509 -0.60221,-0.02481 -0.724703,-0.147298 -0.31232,-0.312317 z m 5.783307,-2.426766 c 0,-0.107343 0.407093,-0.514436 0.904651,-0.904651 0.819902,-0.643011 0.838186,-0.624727 0.195175,0.195177 -0.675319,0.861099 -1.099826,1.134939 -1.099826,0.709474 z M 7.5507697,93.093125 6.5659983,91.930002 7.7291214,92.914775 c 1.0930489,0.925442 1.3984571,1.341473 0.9847714,1.341473 -0.098094,0 -0.6214991,-0.523405 -1.1631231,-1.163123 z m 11.0664763,0.293051 c 0.373169,-0.14933 0.819033,-0.130968 0.990809,0.04079 0.171776,0.171776 -0.133544,0.293955 -0.678488,0.271509 -0.60221,-0.02481 -0.724704,-0.147297 -0.312321,-0.312316 z m 14.571348,-7.370515 c 0,-1.248197 0.287478,-1.374119 0.697532,-0.30554 0.160161,0.417375 0.06874,0.896355 -0.203165,1.064397 -0.271901,0.168048 -0.494367,-0.173439 -0.494367,-0.758857 z M 4.3805489,83.917376 c 0,-1.279435 0.1008123,-1.802841 0.2240273,-1.163123 0.123215,0.639718 0.123215,1.686529 0,2.326246 -0.123215,0.639718 -0.2240273,0.116313 -0.2240273,-1.163123 z m 7.0964141,-6.3985 c 0,-0.107344 0.407093,-0.514437 0.904651,-0.904652 0.819901,-0.64301 0.838186,-0.624726 0.195175,0.195177 -0.675319,0.861099 -1.099826,1.13494 -1.099826,0.709475 z M 59.972735,76.84398 c 0.373167,-0.14933 0.81903,-0.130968 0.990811,0.04079 0.171775,0.171775 -0.133547,0.293955 -0.678489,0.271509 -0.602213,-0.02481 -0.724703,-0.147298 -0.312322,-0.312317 z M 30.915596,75.732437 c -0.146432,-0.236936 0.07246,-0.430789 0.486436,-0.430789 0.413971,0 0.752675,0.193853 0.752675,0.430789 0,0.236931 -0.218895,0.430785 -0.486435,0.430785 -0.267539,0 -0.606243,-0.193854 -0.752676,-0.430785 z m 19.729103,-0.460803 c 0.929129,-0.115051 2.324877,-0.112678 3.101663,0.0053 0.776785,0.117956 0.01659,0.212086 -1.689326,0.209186 -1.705914,-0.0031 -2.341465,-0.09941 -1.412337,-0.214459 z m 5.995927,-0.891325 c -0.326512,-0.35056 -0.406122,-0.95329 -0.17984,-1.361583 0.319249,-0.576045 -0.107865,-0.77159 -1.998871,-0.91514 -4.153323,-0.315289 -5.95551,-0.281936 -8.220494,0.152132 -1.970559,0.377642 -2.197011,0.318318 -2.197011,-0.575529 0,-0.548116 -0.20832,-1.217563 -0.462933,-1.487666 -0.265387,-0.281532 -0.272495,-0.987434 -0.01666,-1.654219 0.428588,-1.117033 0.692762,-1.163123 6.666255,-1.163123 5.184243,0 6.219981,-0.129123 6.219981,-0.775416 0,-0.646417 -1.037702,-0.775415 -6.23766,-0.775415 h -6.23766 l 0.163573,-1.421595 0.163572,-1.421595 5.642181,-0.147588 c 3.103197,-0.08117 5.842719,0.05295 6.087823,0.298055 0.245109,0.245108 0.588985,1.65591 0.764177,3.135113 0.175187,1.479208 0.459785,2.773862 0.632439,2.877013 0.863896,0.516137 12.99863,-1.563532 18.342442,-3.143544 1.834948,-0.542543 0.349055,0.739777 -2.6467,2.284094 -2.720426,1.402391 -6.868165,2.436914 -11.490152,2.865863 -1.544793,0.14337 -1.840873,0.392304 -2.126262,1.78771 -0.281517,1.376471 -0.166688,1.651232 0.760817,1.820459 0.600808,0.109623 0.161876,0.210933 -0.9754,0.225139 -1.137276,0.01422 -2.331405,-0.257216 -2.653621,-0.603165 z m -2.871214,-1.154934 c 0.373166,-0.14933 0.81903,-0.130968 0.99081,0.04079 0.171776,0.171776 -0.133547,0.293955 -0.678488,0.27151 -0.602214,-0.02481 -0.724703,-0.147298 -0.312322,-0.312317 z m -4.936165,-0.534763 c 0.785786,-0.118825 1.948909,-0.115646 2.584718,0.007 0.635808,0.122702 -0.0071,0.219918 -1.428703,0.216041 -1.421595,-0.0041 -1.941802,-0.104277 -1.156015,-0.223097 z M 17.583359,69.089826 c 0.373169,-0.14933 0.819033,-0.130968 0.990809,0.04079 0.171776,0.171776 -0.133544,0.293955 -0.678489,0.27151 -0.602209,-0.02481 -0.724703,-0.147298 -0.31232,-0.312317 z m 2.035466,0.01075 c 0.355398,-0.143405 0.93696,-0.143405 1.292359,0 0.355398,0.143405 0.06462,0.260741 -0.64618,0.260741 -0.710797,0 -1.001578,-0.117336 -0.646179,-0.260741 z m 1.215388,-3.813726 c -3.346337,-1.518258 -2.318706,-1.708095 1.267038,-0.234072 1.691095,0.695176 2.609468,1.264372 2.04083,1.264873 -0.568638,5.07e-4 -2.057178,-0.463357 -3.307868,-1.030801 z M 7.3414137,35.066205 c 0.6677594,-0.710798 1.3304206,-1.292359 1.4725801,-1.292359 0.1421595,0 -0.2878771,0.581561 -0.9556365,1.292359 -0.6677593,0.710797 -1.3304205,1.292359 -1.47258,1.292359 -0.1421595,0 0.2878771,-0.581562 0.9556364,-1.292359 z M 84.657718,32.891489 c -0.280535,-0.736747 -0.221158,-0.796125 0.289385,-0.289382 0.35329,0.35066 0.512121,0.767785 0.352959,0.926946 -0.159162,0.15916 -0.448216,-0.127743 -0.642344,-0.637564 z M 27.922231,25.149616 c 0.373169,-0.14933 0.819033,-0.130964 0.990809,0.04081 0.171776,0.171776 -0.133544,0.293955 -0.678488,0.271509 -0.60221,-0.0248 -0.724704,-0.147298 -0.312321,-0.312319 z m 2.584718,-0.516943 c 0.373169,-0.14933 0.819033,-0.130965 0.990809,0.04081 0.171776,0.171777 -0.133544,0.293956 -0.678488,0.27151 -0.60221,-0.0248 -0.724704,-0.147299 -0.312321,-0.312321 z m 33.601335,0 c 0.373166,-0.14933 0.81903,-0.130965 0.990811,0.04081 0.171775,0.171777 -0.133547,0.293956 -0.678489,0.27151 -0.602213,-0.0248 -0.724703,-0.147299 -0.312322,-0.312321 z M 33.059359,24.126499 c 0.355398,-0.143407 0.93696,-0.143407 1.292359,0 0.355398,0.143406 0.06462,0.260739 -0.64618,0.260739 -0.710797,0 -1.001578,-0.117333 -0.646179,-0.260739 z m 27.947264,-0.01077 c 0.373166,-0.14933 0.81903,-0.130965 0.99081,0.04081 0.171775,0.171777 -0.133547,0.293956 -0.678488,0.271509 -0.602214,-0.0248 -0.724704,-0.147298 -0.312322,-0.31232 z M 36.946274,23.59368 c 0.502969,-0.131068 1.200843,-0.122448 1.550831,0.01915 0.349987,0.141605 -0.06153,0.248843 -0.91449,0.238307 -0.852957,-0.01054 -1.13931,-0.126391 -0.636341,-0.257459 z M 56.6214,23.133243 c -0.172788,-0.45027 -0.805207,-1.017086 -1.405373,-1.259591 -0.840028,-0.339423 -0.889722,-0.448461 -0.215876,-0.473686 0.481435,-0.01802 1.181749,0.404695 1.556249,0.939371 0.3745,0.534675 1.143722,1.089253 1.709377,1.232393 0.918294,0.232375 0.902134,0.266678 -0.150875,0.320221 -0.648645,0.03298 -1.320718,-0.308437 -1.493502,-0.758708 z M 40.881316,21.771148 c 0.237982,-1.435512 0.310789,-1.508319 0.473563,-0.473563 0.105791,0.672509 -0.02075,1.435848 -0.281216,1.696308 -0.286789,0.286789 -0.362651,-0.195465 -0.192347,-1.222745 z m 3.828149,-2.337359 c 1.645215,-0.102897 4.204086,-0.101943 5.68638,0.0021 1.482293,0.104065 0.136208,0.188254 -2.991301,0.187087 -3.127509,-0.0012 -4.340294,-0.08631 -2.695079,-0.189207 z"
         id="path11262" />
      <path
         style="fill:#a3a3a3;fill-opacity:1;stroke-width:0.516944"
         d="M 14.578624,97.771672 C 12.56307,97.129101 9.5123774,95.058374 8.4691665,93.62474 8.0943142,93.1096 7.5127526,92.845623 7.1768075,93.038123 6.8408624,93.230622 6.7208777,93.215331 6.9101752,93.004159 7.0994722,92.792972 6.6946516,91.418083 6.0105739,89.948852 4.4057292,86.502043 4.2993547,81.097821 5.772477,77.852651 c 1.3728337,-3.024239 5.183726,-6.584223 8.118883,-7.584328 3.616474,-1.23226 8.164835,-1.064387 11.3505,0.418926 1.457835,0.678798 2.811501,1.494509 3.008146,1.812688 0.196645,0.318174 0.574086,0.44467 0.838759,0.281088 0.264673,-0.163592 0.481224,0.07897 0.481224,0.539007 0,0.460039 0.238388,0.689101 0.529752,0.509029 0.291363,-0.180072 0.471785,-0.135646 0.400937,0.09873 -0.07085,0.234372 0.53916,1.777847 1.355572,3.429947 4.698211,9.507332 -1.6625,20.244101 -12.335022,20.8213 -1.723316,0.0932 -3.947487,-0.09011 -4.942604,-0.407362 z m 8.788042,-5.347663 c 7.538987,-3.851142 6.658399,-15.187633 -1.385958,-17.84251 -9.177882,-3.028975 -16.7102836,8.710272 -10.083151,15.714589 2.869819,3.033151 5.78472,3.792045 5.77946,1.504678 -0.0024,-1.034078 -0.42218,-1.659952 -1.540041,-2.29601 -1.806398,-1.027834 -3.621453,-3.786953 -3.624194,-5.509254 -0.0029,-1.830322 1.468444,-4.558993 2.999099,-5.561921 1.875806,-1.229074 5.468916,-1.156604 7.228397,0.145794 2.091189,1.547936 3.051573,4.691289 2.250364,7.36549 -0.767899,2.563017 -3.119159,5.36406 -5.240203,6.242622 -0.854265,0.353848 -1.553209,0.858307 -1.553209,1.121013 0,0.595048 3.417909,0.01024 5.169436,-0.884491 z M 59.426388,76.073543 c 0.153026,-0.585175 0.92338,-1.029339 2.121831,-1.223389 4.452462,-0.720919 10.231374,-1.985699 11.186562,-2.448312 0.847989,-0.410691 0.917704,-0.377808 0.387708,0.182884 -0.936325,0.990563 -0.799733,1.416136 0.516943,1.610605 1.438985,0.212537 -5.801291,1.809437 -10.780636,2.37776 -3.376568,0.385382 -3.653293,0.345112 -3.432408,-0.499548 z M 46.50592,75.280665 c 0.643032,-0.123648 1.573531,-0.118954 2.067774,0.01044 0.494244,0.129386 -0.03188,0.230557 -1.16915,0.224819 -1.137276,-0.0057 -1.541657,-0.111603 -0.898624,-0.235251 z m -2.146327,-2.127347 c -0.145818,-0.235933 1.187072,-0.717627 2.961976,-1.07042 2.510199,-0.498949 3.765749,-0.505814 5.651812,-0.03091 1.33359,0.335801 2.766093,0.479548 3.183339,0.31944 0.51425,-0.197338 0.664526,-0.04591 0.466505,0.470145 -0.22471,0.585578 -0.725659,0.668976 -2.170682,0.361385 -2.39211,-0.5092 -6.639562,-0.51437 -8.437913,-0.01029 -0.764453,0.214283 -1.509219,0.196562 -1.655037,-0.03939 z M 44.04441,66.599765 c 0,-0.646179 1.033888,-0.775415 6.203324,-0.775415 5.169436,0 6.203323,0.129236 6.203323,0.775415 0,0.64618 -1.033887,0.775416 -6.203323,0.775416 -5.169436,0 -6.203324,-0.129236 -6.203324,-0.775416 z M 12.710013,63.058174 c -0.922787,-1.055423 -1.831086,-2.938514 -1.654284,-3.429678 0.323045,-0.897429 1.805278,0.805719 2.130479,2.448012 0.370067,1.868865 0.344892,1.920766 -0.476195,0.981666 z M 7.3926475,55.798487 C 6.537463,54.888185 6.3979735,54.456708 6.8654653,54.167783 c 0.4091102,-0.252848 0.5034167,-0.178852 0.2645836,0.207584 -0.2051837,0.331997 -0.027636,0.732271 0.3971022,0.895258 0.4225161,0.162134 0.8952088,0.62574 1.0504278,1.030238 0.3935394,1.025544 0.1557779,0.92474 -1.1849314,-0.502376 z m 85.4538195,-16.467498 -0.984772,-1.163123 1.163123,0.984772 c 1.093046,0.925441 1.398456,1.341475 0.984772,1.341475 -0.0981,0 -0.6215,-0.523406 -1.163123,-1.163124 z M 39.294991,23.598785 c 0.373169,-0.14933 0.819032,-0.130964 0.990809,0.04081 0.171775,0.171776 -0.133544,0.293956 -0.678489,0.271509 -0.60221,-0.0248 -0.724703,-0.147298 -0.31232,-0.312319 z"
         id="path11260" />
      <path
         style="fill:#8c8c8c;fill-opacity:1;stroke-width:0.516944"
         d="m 52.057036,76.818872 c 0.568638,-0.142072 1.153136,-0.446562 1.298888,-0.676648 0.145748,-0.230087 0.951668,-0.493961 1.790926,-0.58638 1.122579,-0.123622 1.574972,0.07109 1.711445,0.736614 0.160852,0.784384 -0.214682,0.89668 -2.824818,0.844686 -1.655677,-0.03298 -2.545079,-0.176206 -1.976441,-0.318272 z m 6.461796,-0.366668 c 0,-0.443259 0.232624,-0.805926 0.516943,-0.805926 0.284319,0 0.516944,0.218895 0.516944,0.486434 0,0.267539 -0.232625,0.630206 -0.516944,0.805925 -0.284319,0.17572 -0.516943,-0.04316 -0.516943,-0.486433 z m 13.957477,-2.743172 c 0,-0.742848 0.957018,-1.385952 3.618605,-2.431672 1.279436,-0.502676 2.621365,-1.031302 2.982067,-1.174718 0.501875,-0.199545 0.537425,0.05066 0.151439,1.065866 -0.430014,1.13101 -0.374267,1.29104 0.378067,1.085307 0.485348,-0.132725 0.06826,0.141178 -0.926854,0.60867 -2.200655,1.033836 -6.203324,1.580064 -6.203324,0.846547 z M 86.95073,68.213891 c 0,-0.107344 0.407093,-0.514437 0.904652,-0.904652 0.819903,-0.64301 0.838188,-0.624726 0.195177,0.195177 -0.67532,0.861099 -1.099829,1.13494 -1.099829,0.709475 z m 2.625531,-4.758865 c 0.02481,-0.602213 0.147298,-0.724703 0.312317,-0.312321 0.149329,0.373166 0.130967,0.81903 -0.04079,0.99081 -0.17178,0.171775 -0.293955,-0.133547 -0.271509,-0.678489 z m 7.843705,-13.9144 c 0.0057,-1.137276 0.111602,-1.541657 0.23525,-0.898624 0.123648,0.643032 0.118954,1.573531 -0.01044,2.067774 -0.129376,0.494244 -0.230547,-0.03187 -0.224808,-1.16915 z M 83.332125,32.481487 c -0.710797,-0.406329 -1.046041,-0.747023 -0.744983,-0.757098 0.301058,-0.01007 0.998932,0.323221 1.550831,0.740657 1.276323,0.965361 0.868662,0.973678 -0.805848,0.01644 z M 26.985271,28.087466 c 0.426479,-0.275612 1.124352,-0.488324 1.550831,-0.472694 0.511286,0.01874 0.423242,0.179751 -0.258472,0.472694 -1.421122,0.610677 -2.237314,0.610677 -1.292359,0 z m 45.929401,0.26605 C 72.47847,27.91731 62.618484,26.019691 60.788173,26.019691 c -0.963821,0 -1.752398,-0.232624 -1.752398,-0.516943 0,-0.77021 4.449504,-0.884751 6.203324,-0.159689 0.426478,0.176315 1.58637,0.390991 2.577537,0.477059 0.991167,0.08607 1.878537,0.385737 1.971939,0.665933 0.0934,0.280196 0.50372,0.381315 0.911831,0.224708 0.408107,-0.156606 0.742016,-0.0023 0.742016,0.34282 0,0.345157 0.341488,0.496517 0.758858,0.336356 0.417375,-0.160161 0.905917,-0.05326 1.085654,0.237557 0.348275,0.563524 0.04895,1.147259 -0.372262,0.726024 z M 30.860281,26.804494 C 32.208934,26.210563 34.42736,25.78014 41.8474,24.67275 c 1.288676,-0.192325 1.680067,-0.506208 1.680067,-1.347358 0,-0.603141 0.144249,-0.952371 0.320554,-0.776066 0.176306,0.176306 0.175418,0.89883 -0.002,1.60561 -0.271059,1.079984 -0.714061,1.334023 -2.776037,1.591911 -1.349439,0.168771 -4.314515,0.648321 -6.589067,1.065667 -4.931354,0.904829 -5.689687,0.903149 -3.620672,-0.008 z m 4.816105,-2.688765 c 0.373168,-0.14933 0.819032,-0.130964 0.990808,0.04081 0.171776,0.171776 -0.133544,0.293955 -0.678488,0.271509 -0.60221,-0.0248 -0.724703,-0.147299 -0.31232,-0.31232 z"
         id="path11258" />
      <path
         style="fill:#767676;fill-opacity:1;stroke-width:0.516944"
         d="m 44.302882,76.680166 c -2.676676,-0.296121 -2.806423,-0.355048 -0.94693,-0.430041 1.185101,-0.04782 2.492674,-0.216584 2.905717,-0.375084 0.413044,-0.1585 0.890018,0.07413 1.059943,0.516944 0.169926,0.442819 0.2581,0.766017 0.195943,0.718221 -0.06216,-0.0478 -1.508759,-0.241315 -3.214673,-0.43004 z m 4.910965,-0.258472 c 0,-0.560021 0.574381,-0.775416 2.067774,-0.775416 2.456961,0 2.740675,0.770071 0.452326,1.227741 -2.292171,0.458436 -2.5201,0.417525 -2.5201,-0.452325 z m 7.615204,-0.217034 c -0.224855,-0.859858 -0.157579,-1.061688 0.226029,-0.67808 0.300396,0.300396 0.444463,0.851313 0.320148,1.224257 -0.129055,0.387165 -0.36338,0.152834 -0.546177,-0.546177 z M 38.778047,75.810093 c 0.373169,-0.14933 0.819033,-0.130968 0.990809,0.04079 0.171776,0.171776 -0.133544,0.293955 -0.678488,0.27151 -0.60221,-0.02481 -0.724704,-0.147298 -0.312321,-0.312317 z m -5.330981,-1.018896 c -3.59325,-1.088621 -3.988256,-1.703055 -0.682335,-1.061379 1.51256,0.293588 2.866422,0.701674 3.008582,0.906854 0.142159,0.205185 0.723721,0.489297 1.292359,0.631369 l 1.033887,0.258306 -1.033887,0.02393 c -0.568638,0.01318 -2.197011,-0.328425 -3.618606,-0.759111 z m 45.81542,-3.71684 c 0.272326,-0.75511 1.473874,-2.010239 2.670097,-2.78917 1.196228,-0.778935 3.181695,-2.232839 4.412155,-3.230897 2.550233,-2.068571 3.157828,-2.23117 3.05127,-0.816544 -0.04135,0.548963 -0.288599,0.956057 -0.549433,0.904652 -0.26084,-0.05138 -0.591663,0.229698 -0.735167,0.624674 -0.175011,0.481683 -0.04234,0.58304 0.402963,0.307835 0.425936,-0.263248 0.536681,-0.204487 0.308977,0.163938 -0.195192,0.315832 -0.661972,0.4564 -1.037294,0.312379 -0.375316,-0.14402 -1.089867,0.360025 -1.587895,1.120114 -0.498024,0.760082 -0.648749,1.223285 -0.334938,1.029343 0.31381,-0.193947 0.570566,-0.232397 0.570566,-0.08544 0,0.443419 -4.455558,2.911179 -6.115908,3.387361 -1.512014,0.433638 -1.538233,0.410578 -1.055393,-0.928245 z M 92.63711,59.879498 c 0.667762,-0.710797 1.330422,-1.292359 1.472581,-1.292359 0.14216,0 -0.287875,0.581562 -0.955637,1.292359 -0.667762,0.710798 -1.330422,1.292359 -1.472581,1.292359 -0.14216,0 0.287875,-0.581561 0.955637,-1.292359 z M 16.646399,31.761378 c 0,-0.488459 1.54118,-1.310088 2.19701,-1.171264 0.213239,0.04514 0.387708,-0.144581 0.387708,-0.421599 0,-0.277017 0.70548,-0.868486 1.567733,-1.314374 0.862253,-0.445888 1.431732,-1.030759 1.26551,-1.299713 -0.16986,-0.274839 0.07199,-0.345408 0.552214,-0.161129 0.46994,0.180333 1.019599,0.06064 1.221464,-0.265984 0.472246,-0.76411 8.44457,-2.497092 13.615341,-2.959629 2.860818,-0.255908 4.006313,-0.559696 4.006313,-1.062488 0,-0.387261 0.46525,-0.704112 1.033888,-0.704112 0.681269,0 1.033887,0.344629 1.033887,1.010463 0,0.745024 -0.441337,1.07495 -1.680067,1.25595 -9.409715,1.374922 -10.576587,1.696885 -19.751478,5.449827 -5.786912,2.367106 -5.449523,2.26532 -5.449523,1.644052 z m 62.550177,-1.312703 c -0.710797,-0.384481 -2.281014,-0.993551 -3.489369,-1.353488 -1.208356,-0.359936 -2.197011,-0.846837 -2.197011,-1.082004 0,-0.235166 1.194213,0.04314 2.653803,0.618457 3.085595,1.216228 5.587008,2.516093 4.84188,2.516093 -0.284319,0 -1.098505,-0.314576 -1.809303,-0.699058 z M 57.499915,25.008482 c -1.306627,-0.830609 -0.205971,-1.157691 2.135504,-0.634606 1.23395,0.275664 1.739164,0.526119 1.122704,0.556568 -0.616466,0.03045 -1.430652,0.169229 -1.809303,0.308402 -0.378656,0.139173 -1.030661,0.03551 -1.448905,-0.230364 z m -4.109707,-3.942833 c 0.02481,-0.60221 0.147298,-0.724704 0.312317,-0.312321 0.149329,0.373169 0.130967,0.819033 -0.04079,0.990809 -0.17178,0.171776 -0.293955,-0.133544 -0.271509,-0.678488 z"
         id="path11256" />
      <path
         style="fill:#606060;fill-opacity:1;stroke-width:0.516944"
         d="m 47.383288,76.645773 c -0.187409,-0.303234 -0.229876,-0.662204 -0.09437,-0.797711 0.135505,-0.135506 0.384123,0.112596 0.552484,0.551336 0.349549,0.910912 0.05162,1.071138 -0.458113,0.246375 z m 1.354426,-0.267156 c 0.0248,-0.602214 0.147298,-0.724703 0.31232,-0.312322 0.14933,0.373166 0.130965,0.81903 -0.04081,0.99081 -0.171777,0.171776 -0.293956,-0.133547 -0.27151,-0.678488 z M 37.841087,75.376263 c -2.254439,-0.664303 -2.190611,-0.676364 2.067774,-0.390783 5.455435,0.365856 7.77063,1.119798 3.360134,1.094225 -1.705914,-0.0099 -4.148473,-0.32644 -5.427908,-0.703442 z M 85.90926,68.144532 c 0.422306,-0.565304 1.451433,-1.725697 2.286953,-2.578654 l 1.519127,-1.550831 -1.098914,1.809303 c -0.604405,0.995116 -1.633531,2.15551 -2.286958,2.578654 -1.143237,0.740336 -1.159086,0.730586 -0.420208,-0.258472 z m 0.540966,-3.759214 c 0.0305,-0.686894 1.534392,-2.38342 1.534392,-1.730923 0,0.35544 0.236419,0.500137 0.525375,0.321554 0.288956,-0.178583 0.398754,-0.529578 0.243992,-0.77999 -0.154758,-0.250408 0.190385,-0.707763 0.766984,-1.016353 0.576604,-0.308589 1.048367,-0.388137 1.048367,-0.176779 0,0.211363 0.994651,-0.536484 2.210332,-1.661876 1.742653,-1.613226 1.660619,-1.473966 -0.387708,0.658168 -2.486938,2.588683 -5.976292,5.164535 -5.941734,4.386199 z M 11.178341,35.019242 c 0.289631,-0.925351 0.69577,-1.577905 0.902533,-1.45012 0.206762,0.127786 0.285136,-0.239124 0.174163,-0.815356 -0.165335,-0.858516 0.348042,-1.39472 0.901992,-0.942099 0.07108,0.05808 0.652321,-0.342284 1.291648,-0.889692 1.094235,-0.936914 8.03601,-3.868396 9.160393,-3.868396 0.284735,0 -0.409353,0.485759 -1.542419,1.079464 -1.133065,0.593705 -2.329715,1.423381 -2.659222,1.843725 -0.329507,0.420344 -0.678444,0.733756 -0.775416,0.69647 -0.57084,-0.219485 -1.985614,0.739991 -1.985614,1.346612 0,0.39606 -0.174469,0.721109 -0.387708,0.722333 -0.213239,0.0012 -1.562037,0.892615 -2.997329,1.98087 L 10.65174,36.7017 Z M 41.561672,21.833803 c 0.297736,-0.896763 11.787723,-1.368085 11.787723,-0.483535 0,0.320789 -1.599039,0.536145 -4.006313,0.539564 -2.203472,0.0032 -4.909875,0.154944 -6.014229,0.337368 -1.590709,0.262763 -1.957896,0.181022 -1.767181,-0.393397 z"
         id="path11254" />
      <path
         style="fill:#494949;fill-opacity:1;stroke-width:0.516944"
         d="m 47.900231,76.645773 c -0.187409,-0.303234 -0.229876,-0.662204 -0.09437,-0.797711 0.135505,-0.135506 0.384123,0.112596 0.552484,0.551336 0.349549,0.910912 0.05162,1.071138 -0.458114,0.246375 z m 9.80626,-0.520505 c 0,-0.547764 0.182776,-0.995933 0.406173,-0.995933 0.223392,0 0.406168,0.335207 0.406168,0.744905 0,0.409699 -0.182776,0.857873 -0.406168,0.995933 -0.223397,0.138066 -0.406173,-0.197141 -0.406173,-0.744905 z M 87.822649,62.529294 c -0.159333,-0.415214 0.02161,-0.874389 0.402089,-1.02039 0.395927,-0.151935 0.646293,0.04446 0.585423,0.459196 -0.163602,1.114691 -0.665632,1.399992 -0.987512,0.561194 z m 2.26961,-2.036344 c 2.45208,-1.845044 4.204607,-3.571238 5.371561,-5.29084 0.719865,-1.060779 1.308839,-1.698496 1.308839,-1.417165 0,1.473791 -5.050606,6.978889 -6.60215,7.196269 -0.800296,0.112125 -0.808464,0.06118 -0.07825,-0.488264 z M 5.2736393,52.383816 C 4.6662804,51.530859 4.4118415,50.832985 4.7082196,50.832985 c 0.2963781,0 0.8997539,0.697874 1.3408351,1.550831 0.4410811,0.852957 0.6955202,1.550831 0.5654195,1.550831 -0.1301003,0 -0.7334758,-0.697874 -1.3408349,-1.550831 z M 5.7165484,39.847933 c -0.1294171,-1.066196 -0.065066,-1.938539 0.1430015,-1.938539 0.2080677,0 0.5225333,-0.454421 0.6988116,-1.009825 0.2684928,-0.845946 4.8128135,-4.676554 5.5478815,-4.676554 0.127761,0 0.232293,0.338704 0.232293,0.752675 0,0.413972 -0.165532,0.650373 -0.367847,0.525334 -0.202316,-0.125037 -0.505917,0.463009 -0.674669,1.306771 -0.345611,1.728054 -3.9037173,5.904167 -3.963935,4.65243 -0.020517,-0.426478 -0.3394629,-0.07754 -0.708768,0.775416 L 5.9518522,41.786472 Z M 92.597983,39.589461 91.344751,38.167866 92.766346,39.4211 c 0.781877,0.689279 1.421595,1.328996 1.421595,1.421595 0,0.405425 -0.418621,0.07546 -1.589958,-1.253234 z m -50.9682,-18.997678 c 0.226903,-0.680576 10.701471,-0.966447 11.357938,-0.309979 0.326662,0.326661 -1.609526,0.560262 -5.513409,0.665195 -3.851965,0.103537 -5.954865,-0.02427 -5.844529,-0.355216 z"
         id="path11252" />
      <path
         style="fill:#333333;fill-opacity:1;stroke-width:0.516944"
         d="m 87.467674,61.272594 c 0,-0.228913 1.200436,-1.566505 2.667641,-2.972426 1.467205,-1.405921 3.090465,-3.486717 3.607253,-4.623993 1.185471,-2.608837 1.286781,-8.820115 0.186793,-11.452749 -0.703664,-1.684113 -0.700164,-1.793545 0.03779,-1.181101 1.350676,1.12096 2.844322,4.537602 3.164114,7.23775 0.526889,4.448739 -1.572822,8.152412 -6.76872,11.939334 -2.050018,1.494107 -2.894869,1.801476 -2.894869,1.053185 z M 4.8313315,50.882166 c -1.8351154,-1.14216 -1.704123,-9.240136 0.1899326,-11.741667 0.6838605,-0.903193 0.740609,-0.843459 0.7948641,0.83667 l 0.058426,1.809303 0.7101135,-1.550831 c 0.4781827,-1.044313 0.7177292,-1.244262 0.7334298,-0.612195 0.012825,0.516249 -0.2576674,1.446748 -0.6010922,2.067774 -0.3434248,0.621027 -0.7505179,3.041181 -0.9046513,5.378122 -0.2242978,3.400756 -0.4201401,4.161913 -0.9810225,3.812824 z"
         id="path11250" />
    </g>
  </g>
</svg>
