<?xml version="1.0" encoding="UTF-8" standalone="no"?>
<!-- Created with Inkscape (http://www.inkscape.org/) -->

<svg
   width="100mm"
   height="100mm"
   viewBox="0 0 100 100"
   version="1.1"
   id="svg6937"
   inkscape:version="1.1.1 (3bf5ae0d25, 2021-09-20)"
   sodipodi:docname="add_list_type_device_7020.svg"
   xmlns:inkscape="http://www.inkscape.org/namespaces/inkscape"
   xmlns:sodipodi="http://sodipodi.sourceforge.net/DTD/sodipodi-0.dtd"
   xmlns="http://www.w3.org/2000/svg"
   xmlns:svg="http://www.w3.org/2000/svg">
  <sodipodi:namedview
     id="namedview6939"
     pagecolor="#505050"
     bordercolor="#ffffff"
     borderopacity="1"
     inkscape:pageshadow="0"
     inkscape:pageopacity="0"
     inkscape:pagecheckerboard="1"
     inkscape:document-units="mm"
     showgrid="false"
     inkscape:zoom="0.58974467"
     inkscape:cx="397.62971"
     inkscape:cy="133.95628"
     inkscape:window-width="1440"
     inkscape:window-height="890"
     inkscape:window-x="-6"
     inkscape:window-y="-6"
     inkscape:window-maximized="1"
     inkscape:current-layer="layer1" />
  <defs
     id="defs6934" />
  <g
     inkscape:label="Laag 1"
     inkscape:groupmode="layer"
     id="layer1">
    <g
       id="g6953">
      <path
         style="fill:#d0d0d0;fill-opacity:1;stroke-width:0.588601"
         d="m 18.348634,92.877071 c 0.191338,-0.309592 0.736712,-0.413687 1.21194,-0.231326 1.216706,0.466896 1.073329,0.794223 -0.347888,0.794223 -0.666567,0 -1.055391,-0.253304 -0.864052,-0.562897 z m -6.239507,-2.23296 c -0.732145,-0.933557 -0.711326,-0.954376 0.222229,-0.222232 0.566529,0.444306 1.030053,0.90783 1.030053,1.030053 0,0.484442 -0.483352,0.172642 -1.252282,-0.807821 z m 1.765804,-2.354405 c -0.732144,-0.933558 -0.711325,-0.954377 0.22223,-0.222233 0.566529,0.444306 1.030052,0.90783 1.030052,1.030053 0,0.484442 -0.483351,0.172642 -1.252282,-0.80782 z M 9.3777558,84.022345 c 0,-1.133058 0.1211312,-1.596582 0.269181,-1.030053 0.1480491,0.566529 0.1480491,1.493577 0,2.060105 -0.1480498,0.566529 -0.269181,0.103006 -0.269181,-1.030052 z m 18.2466452,0 c 0,-1.133058 0.121132,-1.596582 0.269181,-1.030053 0.14805,0.566529 0.14805,1.493577 0,2.060105 -0.148049,0.566529 -0.269181,0.103006 -0.269181,-1.030052 z m -9.995632,-9.234763 c 0.566529,-0.148045 1.493577,-0.148045 2.060106,0 0.566529,0.148051 0.103005,0.269185 -1.030053,0.269185 -1.133058,0 -1.596581,-0.121134 -1.030053,-0.269185 z"
         id="path6967" />
      <path
         style="fill:#b9b9b9;fill-opacity:1;stroke-width:0.588601"
         d="m 16.782655,93.037889 c 0.424897,-0.170029 0.932565,-0.149122 1.128153,0.04644 0.195587,0.195586 -0.152056,0.334702 -0.77254,0.309145 -0.685687,-0.02825 -0.82516,-0.167716 -0.355613,-0.35561 z m 26.16718,-37.67631 c 0.57269,-0.149236 1.367302,-0.139422 1.765805,0.02181 0.398502,0.161234 -0.07006,0.283337 -1.041255,0.271341 -0.971193,-0.01199 -1.29724,-0.143912 -0.72455,-0.293148 z m 4.998773,-0.0084 c 0.732169,-0.140789 1.791652,-0.135444 2.354406,0.01188 0.562755,0.147323 -0.03629,0.262515 -1.331216,0.255982 -1.294923,-0.0065 -1.755358,-0.12707 -1.02319,-0.26786 z M 11.448454,35.955806 c 0.404664,-0.163285 1.06684,-0.163285 1.471504,0 0.404663,0.163286 0.07357,0.296882 -0.735752,0.296882 -0.809327,0 -1.140416,-0.133596 -0.735752,-0.296882 z m 11.772029,0 c 0.404664,-0.163285 1.066841,-0.163285 1.471504,0 0.404664,0.163286 0.07357,0.296882 -0.735752,0.296882 -0.809327,0 -1.140415,-0.133596 -0.735752,-0.296882 z m 50.336628,-0.01808 c 0.572691,-0.149236 1.367303,-0.139422 1.765804,0.02181 0.398501,0.161231 -0.07006,0.283333 -1.041254,0.271338 -0.971192,-0.012 -1.297242,-0.143912 -0.72455,-0.293148 z m 4.998774,-0.0084 c 0.732168,-0.14079 1.79165,-0.135445 2.354406,0.01188 0.562756,0.147322 -0.03632,0.262513 -1.331216,0.255981 -1.294923,-0.0065 -1.755357,-0.127071 -1.02319,-0.267859 z M 8.8349863,32.519716 c 0.0033,-1.942385 0.1131887,-2.666036 0.2441884,-1.608113 0.1310003,1.057923 0.1282969,2.647147 -0.00601,3.531609 -0.1343006,0.884462 -0.2414826,0.01889 -0.2381784,-1.923496 z m 79.9702457,0.66368 c -0.09469,-2.640795 -0.184415,-2.803951 -1.132887,-2.060105 -0.938902,0.736337 -0.956736,0.714463 -0.201525,-0.247175 1.207592,-1.53768 1.933038,-0.408591 1.66646,2.593683 l -0.229219,2.581526 z m -5.988849,-1.528109 c 0,-0.313571 0.397306,-0.417668 0.882902,-0.231327 0.485596,0.186341 0.882902,0.442898 0.882902,0.570128 0,0.12723 -0.397306,0.231327 -0.882902,0.231327 -0.485596,0 -0.882902,-0.256558 -0.882902,-0.570128 z M 9.2876668,27.761854 c 0.028241,-0.685687 0.1677167,-0.82516 0.3556136,-0.355614 0.1700299,0.424897 0.1491186,0.932566 -0.04647,1.128154 -0.1955876,0.195586 -0.334703,-0.152056 -0.3091453,-0.77254 z m 78.2292282,-2.773949 0.285996,-3.651617 0.189129,3.174203 c 0.104018,1.745812 -0.02466,3.389039 -0.286001,3.651617 -0.261316,0.262578 -0.346427,-1.165813 -0.189124,-3.174203 z m -3.364958,2.709404 c 0.572692,-0.149236 1.367304,-0.139421 1.765805,0.02181 0.398501,0.161231 -0.07006,0.283334 -1.041254,0.271338 -0.971192,-0.012 -1.297242,-0.143912 -0.724551,-0.293148 z M 9.9981482,23.690694 c 0.00441,-1.618654 0.1187288,-2.210972 0.2540208,-1.31626 0.135293,0.89471 0.131677,2.219064 -0.008,2.943007 -0.139712,0.723943 -0.2504054,-0.0081 -0.2459868,-1.626747 z m 67.3201668,1.03443 c -0.184891,-0.299169 1.160122,-0.60131 3.009961,-0.676149 1.839327,-0.07441 3.156387,0.05255 2.926803,0.282126 -0.664925,0.664922 -5.568211,0.990352 -5.936764,0.394023 z m 5.14858,-3.77243 c -0.230426,-0.372842 0.04108,-1.014304 0.603411,-1.425471 0.945823,-0.691601 0.908482,-0.8222 -0.498675,-1.744206 -0.83658,-0.548147 -1.521053,-1.233082 -1.521053,-1.522077 0,-0.288997 0.810634,0.196829 1.801403,1.079612 1.569789,1.398685 1.683307,1.691415 0.882903,2.276685 -1.305059,0.954285 -1.147797,1.311823 0.700153,1.591763 l 1.618654,0.245206 -1.583915,0.08819 c -0.871154,0.04851 -1.77245,-0.216861 -2.002881,-0.589702 z M 13.95001,17.9562 c 0,-0.10131 0.529742,-0.637778 1.177203,-1.192152 0.647462,-0.554374 1.177203,-0.754993 1.177203,-0.445821 0,0.309172 -0.529741,0.84564 -1.177203,1.192151 -0.647461,0.346511 -1.177203,0.547131 -1.177203,0.445822 z M 4.4083023,14.130973 c 2.0360039,-0.115265 5.2144518,-0.114314 7.0632177,0.0021 1.848766,0.116428 0.182945,0.210736 -3.7018252,0.209572 -3.8847698,-0.0012 -5.3973964,-0.09642 -3.3613925,-0.211691 z m 81.8156067,0 c 2.036002,-0.115265 5.21445,-0.114314 7.063217,0.0021 1.848762,0.11643 0.182944,0.210739 -3.701826,0.209575 -3.88477,-0.0012 -5.397399,-0.09642 -3.361391,-0.211691 z M 4.679537,10.599285 c 2.185183,-0.113252 5.760937,-0.113252 7.94612,0 2.185183,0.11325 0.397306,0.205909 -3.97306,0.205909 -4.370366,0 -6.158243,-0.09266 -3.97306,-0.205909 z m 15.89224,0.01489 c 0.89026,-0.134863 2.347048,-0.134863 3.237308,0 0.89026,0.134863 0.161865,0.245206 -1.618654,0.245206 -1.78052,0 -2.508914,-0.110343 -1.618654,-0.245206 z m 52.974133,0 c 0.890259,-0.134863 2.347048,-0.134863 3.237308,0 0.890259,0.134863 0.161865,0.245206 -1.618654,0.245206 -1.78052,0 -2.508914,-0.110343 -1.618654,-0.245206 z m 11.183428,-0.01489 c 2.185183,-0.113252 5.760937,-0.113252 7.94612,0 2.185183,0.11325 0.397306,0.205909 -3.97306,0.205909 -4.370366,0 -6.158243,-0.09266 -3.97306,-0.205909 z"
         id="path6965" />
      <path
         style="fill:#a3a3a3;fill-opacity:1;stroke-width:0.588601"
         d="m 17.46265,97.933911 c -0.151433,-0.15127 -1.069944,-0.387688 -2.041136,-0.525374 -2.760197,-0.391314 -3.939697,-1.047669 -6.5204566,-3.628427 -3.2895202,-3.289518 -3.8490551,-4.708 -3.8490551,-9.757765 0,-5.049765 0.5595349,-6.468248 3.8490551,-9.757765 3.2895196,-3.289523 4.7080006,-3.849053 9.7577646,-3.849053 5.049764,0 6.468245,0.55953 9.757765,3.849053 3.28952,3.289517 3.849055,4.708 3.849055,9.757765 0,5.049765 -0.559535,6.468247 -3.849055,9.757765 -2.21975,2.219751 -3.645896,3.136757 -5.474853,3.520307 -2.759688,0.578737 -5.246108,0.866216 -5.479084,0.633494 z m 6.68024,-6.432036 C 29.877179,87.128118 28.96691,78.603068 22.434629,75.503298 16.156158,72.523968 8.6096279,78.011547 9.3956169,84.98482 10.197136,92.095873 18.533932,95.780036 24.14289,91.501875 Z m -6.661271,0.376175 c 0,-0.535327 -1.059483,-1.951426 -2.354406,-3.146893 -2.033266,-1.877103 -2.354406,-2.513223 -2.354406,-4.663672 0,-3.489418 2.423157,-5.931155 5.886015,-5.931155 6.987534,0 8.052837,9.470345 1.519509,13.508163 -2.362771,1.460273 -2.696712,1.489197 -2.696712,0.233557 z m 9.123323,-29.045358 c 0.585945,-0.647462 1.197789,-1.177203 1.359655,-1.177203 0.161865,0 -0.185109,0.529741 -0.771054,1.177203 -0.585944,0.647461 -1.197789,1.177203 -1.359654,1.177203 -0.161866,0 0.185108,-0.529742 0.771053,-1.177203 z m 19.019185,-7.4653 c 0.424897,-0.17003 0.932566,-0.149118 1.128153,0.04647 0.195587,0.195588 -0.152056,0.334703 -0.772539,0.309146 -0.685687,-0.02824 -0.825161,-0.167717 -0.355614,-0.355614 z M 15.568664,35.914648 c 1.375856,-0.123921 3.627257,-0.123921 5.003113,0 1.375856,0.123922 0.250155,0.225312 -2.501556,0.225312 -2.751712,0 -3.877413,-0.10139 -2.501557,-0.225312 z m 60.66274,0.02889 c 0.424894,-0.17003 0.932562,-0.149119 1.128155,0.04647 0.195586,0.195588 -0.15206,0.334703 -0.77254,0.309145 -0.685691,-0.02824 -0.82516,-0.167716 -0.355615,-0.355613 z m 5.297413,-4.12021 c 0.424894,-0.17003 0.932563,-0.149119 1.128155,0.04647 0.195586,0.195587 -0.152059,0.334703 -0.77254,0.309145 -0.685691,-0.02824 -0.82516,-0.167717 -0.355615,-0.355614 z M 41.603763,24.720746 35.433964,18.39328 41.76143,24.563079 c 3.480106,3.39339 6.327466,6.240749 6.327466,6.327466 0,0.425092 -0.754493,-0.292714 -6.485133,-6.169799 z m 13.537834,0.294301 c 3.393389,-3.480106 6.240751,-6.327466 6.327464,-6.327466 0.425094,0 -0.292711,0.754492 -6.169797,6.485133 l -6.327466,6.169799 z m 24.006568,2.074979 c 1.057923,-0.131001 2.647147,-0.128297 3.531609,0.006 0.884462,0.134304 0.01889,0.241486 -1.923496,0.238182 -1.942385,-0.0033 -2.666035,-0.113189 -1.608113,-0.244188 z m 3.79216,-2.162764 c 0.41743,-0.452944 0.8517,-0.735437 0.965053,-0.627761 0.349123,0.331652 -0.53571,1.451298 -1.146937,1.451298 -0.317392,0 -0.235541,-0.370591 0.181884,-0.823537 z m -51.060096,-9.329839 -2.920881,-3.090157 3.090158,2.92088 c 2.87143,2.714135 3.36009,3.259435 2.92088,3.259435 -0.0931,0 -1.483673,-1.390571 -3.090157,-3.090158 z m 32.983809,0.147151 c 1.594315,-1.618654 3.031192,-2.943008 3.193057,-2.943008 0.161865,0 -1.01014,1.324354 -2.604456,2.943008 -1.594315,1.618654 -3.031191,2.943007 -3.193057,2.943007 -0.161865,0 1.01014,-1.324353 2.604456,-2.943007 z M 15.052134,14.714521 c -0.732144,-0.933555 -0.711325,-0.954374 0.22223,-0.222229 0.566528,0.444302 1.030052,0.907826 1.030052,1.030052 0,0.484439 -0.483351,0.172639 -1.252282,-0.807823 z m 65.998444,0.807823 c 0,-0.122226 0.463524,-0.58575 1.030053,-1.030052 0.933557,-0.732145 0.954376,-0.711326 0.222232,0.222229 -0.768931,0.980462 -1.252285,1.292262 -1.252285,0.807823 z"
         id="path6963" />
      <path
         style="fill:#767676;fill-opacity:1;stroke-width:0.588601"
         d="m 29.888718,53.660319 c 0.02824,-0.685687 0.167717,-0.82516 0.355614,-0.355614 0.17003,0.424897 0.149119,0.932566 -0.04647,1.128153 -0.195588,0.195587 -0.334703,-0.152055 -0.309145,-0.772539 z"
         id="path6961" />
      <path
         style="fill:#606060;fill-opacity:1;stroke-width:0.588601"
         d="m 46.212729,85.38607 c 0.424896,-0.17003 0.932565,-0.149122 1.128153,0.04644 0.195587,0.195587 -0.152056,0.334703 -0.77254,0.309146 -0.685687,-0.02825 -0.82516,-0.167716 -0.355613,-0.35561 z m 1.729016,-1.164943 c 0.404664,-0.163284 1.066841,-0.163284 1.471504,0 0.404664,0.163284 0.07357,0.296885 -0.735752,0.296885 -0.809327,0 -1.140415,-0.133601 -0.735752,-0.296885 z m -2.317618,-0.600862 c 0.424897,-0.170029 0.932566,-0.149122 1.128153,0.04644 0.195587,0.195586 -0.152056,0.334702 -0.772539,0.309145 -0.685687,-0.02825 -0.825161,-0.167716 -0.355614,-0.355609 z m 5.297413,0 c 0.424897,-0.170029 0.932566,-0.149122 1.128153,0.04644 0.195587,0.195586 -0.152055,0.334702 -0.772539,0.309145 -0.685687,-0.02825 -0.82516,-0.167716 -0.355614,-0.355609 z m -8.87562,-0.848163 c 0.399269,-0.402262 0.874216,-0.583109 1.055438,-0.401885 0.181224,0.181225 -0.14545,0.510347 -0.725941,0.731384 -0.838874,0.319423 -0.906483,0.251816 -0.329497,-0.329499 z m -3.042504,-3.042504 c 0.221038,-0.580491 0.550161,-0.907165 0.731384,-0.72594 0.181222,0.181224 3.73e-4,0.656167 -0.401888,1.055439 -0.581312,0.576982 -0.648921,0.509376 -0.329496,-0.329499 z m 21.492581,-3.11382 c 0.02825,-0.685691 0.167716,-0.82516 0.355609,-0.355615 0.17003,0.424894 0.149123,0.932562 -0.04644,1.128155 -0.195593,0.195586 -0.334703,-0.15206 -0.309146,-0.77254 z M 36.431614,74.899022 c 0.01199,-0.971192 0.143911,-1.297242 0.293148,-0.724551 0.149236,0.572692 0.139421,1.367304 -0.02181,1.765805 -0.161234,0.398501 -0.283336,-0.07006 -0.27134,-1.041254 z m 23.017093,-2.060105 c 0,-1.78052 0.110342,-2.508914 0.245205,-1.618654 0.134863,0.89026 0.134863,2.347048 0,3.237308 -0.134863,0.89026 -0.245205,0.161865 -0.245205,-1.618654 z m -21.83989,0.882902 c 0.01199,-0.971192 0.143911,-1.297242 0.293148,-0.724551 0.149236,0.572692 0.139421,1.367304 -0.02181,1.765805 -0.161234,0.398501 -0.283336,-0.07006 -0.27134,-1.041254 z M 61.19844,72.838917 c 0,-1.456789 0.114789,-2.052748 0.255082,-1.324353 0.140299,0.728394 0.140299,1.920312 0,2.648706 -0.140293,0.728395 -0.255082,0.132436 -0.255082,-1.324353 z M 36.453424,71.073112 c 0,-1.133057 0.121131,-1.596581 0.269181,-1.030052 0.148049,0.566529 0.148049,1.493576 0,2.060105 -0.14805,0.566529 -0.269181,0.103005 -0.269181,-1.030053 z m 1.743994,-0.882902 c 0.012,-0.971192 0.143912,-1.297242 0.293148,-0.724551 0.149236,0.572692 0.139422,1.367304 -0.02181,1.765805 -0.161234,0.398501 -0.283337,-0.07006 -0.271341,-1.041254 z M 58.79847,67.835804 c 0.01199,-0.971192 0.143912,-1.297242 0.293148,-0.72455 0.149236,0.572691 0.139421,1.367303 -0.02181,1.765804 -0.161234,0.398501 -0.283336,-0.07006 -0.27134,-1.041254 z M 38.764209,66.952902 c 0,-0.809327 0.133597,-1.140415 0.296883,-0.735752 0.163285,0.404664 0.163285,1.06684 0,1.471504 -0.163286,0.404663 -0.296883,0.07358 -0.296883,-0.735752 z m 21.731788,0.245253 c 0.02825,-0.685692 0.167716,-0.825161 0.355609,-0.355616 0.17003,0.424894 0.149123,0.932563 -0.04644,1.128155 -0.195593,0.195587 -0.334703,-0.152059 -0.309146,-0.772539 z M 36.951936,66.609553 c 0.02824,-0.685691 0.167717,-0.82516 0.355614,-0.355615 0.17003,0.424894 0.149118,0.932562 -0.04647,1.128155 -0.195588,0.195586 -0.334703,-0.15206 -0.309146,-0.77254 z M 14.866838,65.830592 c -0.181418,-0.293541 0.200256,-0.395081 0.848164,-0.225652 1.374377,0.359406 1.548109,0.759361 0.329851,0.759361 -0.466491,0 -0.996598,-0.240167 -1.178015,-0.533709 z m 4.858824,0.131629 c 0.424897,-0.170029 0.932566,-0.149122 1.128153,0.04644 0.195587,0.195592 -0.152056,0.334702 -0.772539,0.309145 -0.685687,-0.02825 -0.825161,-0.167716 -0.355614,-0.355609 z m 57.094343,0 c 0.424894,-0.170029 0.932563,-0.149122 1.128155,0.04644 0.195587,0.195592 -0.152059,0.334702 -0.772539,0.309145 -0.685692,-0.02825 -0.825161,-0.167716 -0.355616,-0.355609 z M 12.184206,64.892797 c -0.809327,-0.462653 -1.19104,-0.850576 -0.848251,-0.862042 0.342789,-0.01148 1.137401,0.368023 1.765804,0.843324 1.453244,1.099178 0.989077,1.108649 -0.917553,0.01872 z m 46.003852,-0.294301 c 0,-0.809327 0.133597,-1.140415 0.296882,-0.735752 0.163286,0.404664 0.163286,1.066841 0,1.471504 -0.163285,0.404664 -0.296882,0.07357 -0.296882,-0.735752 z m -41.14789,0.182861 c 0.566529,-0.148045 1.493576,-0.148045 2.060105,0 0.566529,0.148051 0.103005,0.269185 -1.030052,0.269185 -1.133058,0 -1.596582,-0.121134 -1.030053,-0.269185 z m 22.312643,-0.771462 c 0,-0.809327 0.133597,-1.140416 0.296882,-0.735752 0.163285,0.404663 0.163285,1.06684 0,1.471504 -0.163285,0.404663 -0.296882,0.07357 -0.296882,-0.735752 z m 20.554584,0.245252 c 0.02825,-0.685691 0.167717,-0.82516 0.35561,-0.355615 0.170029,0.424894 0.149122,0.932562 -0.04644,1.128155 -0.195592,0.195586 -0.334702,-0.15206 -0.309145,-0.77254 z m 18.641627,0.542132 c 0.404664,-0.163284 1.06684,-0.163284 1.471504,0 0.404663,0.163284 0.07357,0.296884 -0.735752,0.296884 -0.809327,0 -1.140415,-0.1336 -0.735752,-0.296884 z M 37.853293,63.126993 c 0.484107,-2.164246 0.820997,-2.634059 0.808966,-1.128155 -0.0049,0.620486 -0.277873,1.525461 -0.606481,2.011057 -0.436334,0.644789 -0.490944,0.406676 -0.202485,-0.882902 z m 38.378111,1.069424 c 0.424894,-0.17003 0.932562,-0.149123 1.128155,0.04644 0.195586,0.195593 -0.15206,0.334703 -0.77254,0.309146 -0.685691,-0.02825 -0.82516,-0.167717 -0.355615,-0.35561 z m 5.297413,0 c 0.424894,-0.17003 0.932563,-0.149123 1.128155,0.04644 0.195586,0.195593 -0.152059,0.334703 -0.77254,0.309146 -0.685691,-0.02825 -0.82516,-0.167717 -0.355615,-0.35561 z m -8.875622,-0.848163 c 0.399272,-0.402262 0.874215,-0.58311 1.055439,-0.401886 0.181225,0.181225 -0.145449,0.510347 -0.725939,0.731385 -0.838875,0.319422 -0.906482,0.251815 -0.3295,-0.329499 z M 57.552988,61.900741 c 0.02824,-0.685689 0.167716,-0.825162 0.355613,-0.355615 0.17003,0.424894 0.149119,0.932563 -0.04647,1.128155 -0.195587,0.195586 -0.334703,-0.152059 -0.309145,-0.77254 z m 1.765804,0 c 0.02824,-0.685689 0.167717,-0.825162 0.355614,-0.355615 0.17003,0.424894 0.149118,0.932563 -0.04647,1.128155 -0.195588,0.195586 -0.334703,-0.152059 -0.309146,-0.77254 z M 39.894943,61.312138 c 0.02824,-0.685687 0.167717,-0.82516 0.355614,-0.355613 0.17003,0.424896 0.149119,0.932562 -0.04647,1.128154 -0.195588,0.195587 -0.334703,-0.152059 -0.309144,-0.772541 z M 69.610691,60.30575 c 0.221037,-0.580491 0.55016,-0.907165 0.731384,-0.725941 0.181225,0.181222 3.77e-4,0.656169 -0.401885,1.055437 -0.581315,0.576987 -0.648921,0.509378 -0.329499,-0.329496 z M 5.9127022,57.215593 c -0.1916984,-0.499559 -0.217025,-1.039806 -0.056281,-1.200549 0.1607437,-0.160744 0.433539,0.247985 0.6062119,0.908287 0.366787,1.402596 -0.040745,1.619179 -0.5499309,0.292262 z m 85.1905718,-0.02367 c 0.02825,-0.685687 0.167716,-0.825161 0.355609,-0.355614 0.170029,0.424897 0.149122,0.932566 -0.04644,1.128153 -0.195592,0.195587 -0.334702,-0.152055 -0.309145,-0.772539 z M 29.585792,56.774141 c 0.221038,-0.580491 0.550161,-0.907164 0.731384,-0.725941 0.181223,0.181223 3.73e-4,0.656169 -0.401888,1.055438 -0.581312,0.576986 -0.648921,0.509377 -0.329496,-0.329497 z m 37.453099,-1.298968 c 0.01201,-0.971192 0.143913,-1.29724 0.293147,-0.724549 0.149234,0.57269 0.139422,1.367302 -0.02178,1.765804 -0.161265,0.398502 -0.283365,-0.07006 -0.271369,-1.041255 z m 23.01709,-2.060105 c 0,-1.780519 0.110345,-2.508914 0.245205,-1.618654 0.134867,0.89026 0.134867,2.347049 0,3.237308 -0.13486,0.89026 -0.245205,0.161866 -0.245205,-1.618654 z m -83.0088746,0 c 0,-1.456788 0.1147867,-2.052747 0.2550816,-1.324353 0.140295,0.728394 0.140295,1.920312 0,2.648706 -0.1402949,0.728395 -0.2550816,0.132436 -0.2550816,-1.324353 z M 28.801604,54.00367 c 0,-1.133058 0.121132,-1.596582 0.269181,-1.030053 0.14805,0.566529 0.14805,1.493576 0,2.060105 -0.148049,0.566529 -0.269181,0.103005 -0.269181,-1.030052 z m 39.41449,0.2943 c 0.01201,-0.971192 0.143913,-1.29724 0.293147,-0.724549 0.149234,0.57269 0.139422,1.367302 -0.02178,1.765804 -0.161265,0.398502 -0.283365,-0.07006 -0.271369,-1.041255 z m 23.589622,-0.882902 c 0,-1.456788 0.11479,-2.052747 0.255083,-1.324353 0.140299,0.728394 0.140299,1.920312 0,2.648706 -0.140293,0.728395 -0.255083,0.132436 -0.255083,-1.324353 z M 5.5133891,54.788471 c -0.5315773,-0.531577 -0.4980169,-2.415857 0.04905,-2.753963 0.2427981,-0.150057 0.4414511,0.496488 0.4414511,1.436767 0,0.940278 -0.022073,1.709598 -0.04905,1.709598 -0.026977,0 -0.2256306,-0.176581 -0.4414511,-0.392402 z M 67.060699,51.649264 c 0,-1.133058 0.121134,-1.596582 0.269185,-1.030053 0.148045,0.566529 0.148045,1.493576 0,2.060105 -0.148051,0.566529 -0.269185,0.103006 -0.269185,-1.030052 z m 1.743996,-0.882902 c 0.01201,-0.971193 0.143913,-1.29724 0.293147,-0.72455 0.149234,0.57269 0.139422,1.367302 -0.02178,1.765804 -0.161265,0.398502 -0.283364,-0.07006 -0.271369,-1.041254 z M 28.213003,49.883459 c 0,-1.133058 0.121131,-1.596581 0.269181,-1.030052 0.148049,0.566529 0.148049,1.493576 0,2.060105 -0.14805,0.566529 -0.269181,0.103005 -0.269181,-1.030053 z m 1.722184,0 c 0,-0.809327 0.133597,-1.140415 0.296883,-0.735752 0.163285,0.404664 0.163285,1.066841 0,1.471504 -0.163286,0.404664 -0.296883,0.07357 -0.296883,-0.735752 z M 7.5901413,49.000557 c 0.011996,-0.971192 0.1439119,-1.29724 0.2931483,-0.724549 0.1492357,0.572689 0.1394214,1.367301 -0.021808,1.765804 -0.1612336,0.398502 -0.283336,-0.07006 -0.2713403,-1.041255 z m -1.8301686,0.294301 c -0.017796,-0.485596 0.224402,-1.280208 0.5382184,-1.765805 0.6953278,-1.075943 0.6953278,-0.146611 0,1.471504 -0.3335499,0.776212 -0.5168832,0.87646 -0.5382184,0.294301 z M 89.405747,48.411956 c 0.01201,-0.971193 0.143913,-1.29724 0.293147,-0.72455 0.149234,0.57269 0.139422,1.367302 -0.02184,1.765804 -0.161206,0.398503 -0.283306,-0.07006 -0.27131,-1.041254 z M 69.371483,47.529053 c 0,-0.809327 0.133601,-1.140415 0.296885,-0.735751 0.163284,0.404663 0.163284,1.06684 0,1.471503 -0.163284,0.404664 -0.296885,0.07357 -0.296885,-0.735752 z m 21.731791,0.245251 c 0.02825,-0.685687 0.167716,-0.82516 0.355609,-0.355613 0.170029,0.424896 0.149122,0.932565 -0.04644,1.128153 -0.195592,0.195587 -0.334702,-0.152056 -0.309145,-0.77254 z M 67.559215,47.185703 c 0.02825,-0.685687 0.167716,-0.825161 0.355609,-0.355614 0.170029,0.424897 0.149122,0.932566 -0.04644,1.128153 -0.195592,0.195587 -0.334702,-0.152056 -0.309145,-0.772539 z M 27.580781,46.35185 c 0,-0.809327 0.133597,-1.140415 0.296883,-0.735751 0.163285,0.404663 0.163285,1.06684 0,1.471503 -0.163286,0.404664 -0.296883,0.07358 -0.296883,-0.735752 z M 8.1569327,45.763249 c 0,-0.809327 0.1335967,-1.140415 0.2968824,-0.735752 0.1632851,0.404664 0.1632851,1.06684 0,1.471504 -0.1632857,0.404663 -0.2968824,0.07357 -0.2968824,-0.735752 z M 6.6778612,44.586046 c 0.4658118,-2.538512 0.80049,-3.017344 0.7885196,-1.128153 -0.00496,0.78235 -0.2694577,1.81976 -0.5877789,2.305356 -0.4071906,0.621166 -0.4667003,0.272184 -0.2007407,-1.177203 z m 82.1174708,0.588602 c 0,-0.809328 0.133601,-1.140416 0.296885,-0.735752 0.163284,0.404663 0.163284,1.06684 0,1.471503 -0.163284,0.404664 -0.296885,0.07358 -0.296885,-0.735751 z M 69.960085,44.586046 c 0,-0.809327 0.1336,-1.140415 0.296884,-0.735752 0.163284,0.404664 0.163284,1.06684 0,1.471504 -0.163284,0.404663 -0.296884,0.07357 -0.296884,-0.735752 z m 20.554587,0.245251 c 0.02825,-0.685687 0.167716,-0.825161 0.35561,-0.355614 0.170029,0.424897 0.149122,0.932566 -0.04644,1.128153 -0.195592,0.195587 -0.334702,-0.152055 -0.309145,-0.772539 z M 68.460569,43.703144 c 0.484108,-2.164245 0.820999,-2.634059 0.808968,-1.128153 -0.005,0.620484 -0.277872,1.525459 -0.606483,2.011055 -0.436336,0.644788 -0.49094,0.406674 -0.202485,-0.882902 z m -41.514858,-0.04905 c 0.02824,-0.685687 0.167717,-0.825161 0.355614,-0.355614 0.17003,0.424897 0.149118,0.932566 -0.04647,1.128153 -0.195588,0.195587 -0.334703,-0.152056 -0.309146,-0.772539 z m -18.2466457,-0.5886 c 0.028241,-0.685687 0.1677167,-0.82516 0.3556136,-0.355613 0.1700299,0.424896 0.1491186,0.932565 -0.04647,1.128153 C 8.8126213,44.033621 8.673506,43.685978 8.6990636,43.065494 Z M 88.160266,42.476893 c 0.02825,-0.685687 0.167716,-0.825161 0.35561,-0.355614 0.170029,0.424897 0.149122,0.932566 -0.04644,1.128153 -0.195592,0.195587 -0.334702,-0.152056 -0.309145,-0.772539 z m 1.765805,0 c 0.02825,-0.685687 0.167716,-0.825161 0.355609,-0.355614 0.170029,0.424897 0.149122,0.932566 -0.04644,1.128153 -0.195592,0.195587 -0.334702,-0.152056 -0.309145,-0.772539 z M 70.502222,41.888291 c 0.02825,-0.685687 0.167716,-0.82516 0.355609,-0.355613 0.17003,0.424896 0.149123,0.932565 -0.04644,1.128153 -0.195592,0.195587 -0.334703,-0.152056 -0.309145,-0.77254 z M 26.35711,41.29969 c 0.02824,-0.685687 0.167716,-0.825161 0.355613,-0.355614 0.17003,0.424897 0.149119,0.932566 -0.04647,1.128153 -0.195588,0.195587 -0.334703,-0.152056 -0.309145,-0.772539 z M 9.8762683,38.945284 c 0.028241,-0.685687 0.1677167,-0.825161 0.3556137,-0.355614 0.17003,0.424897 0.149118,0.932566 -0.04647,1.128153 C 9.9898242,39.91341 9.8507088,39.565768 9.8762665,38.945284 Z M 25.179907,37.179479 c 0.02824,-0.685687 0.167716,-0.82516 0.355613,-0.355613 0.17003,0.424897 0.149119,0.932565 -0.04647,1.128153 -0.195587,0.195587 -0.334703,-0.152056 -0.309145,-0.77254 z m 59.880519,-5.356146 c 0.424894,-0.17003 0.932563,-0.149118 1.128155,0.04647 0.195586,0.195588 -0.15206,0.334703 -0.77254,0.309146 -0.685691,-0.02824 -0.82516,-0.167717 -0.355615,-0.355614 z"
         id="path6959" />
      <path
         style="fill:#494949;fill-opacity:1;stroke-width:0.588601"
         d="m 56.329316,82.62291 c 0,-0.122224 0.463524,-0.585747 1.030053,-1.030053 0.933555,-0.732144 0.954374,-0.711325 0.222229,0.222232 -0.76893,0.980463 -1.252282,1.292263 -1.252282,0.807821 z M 10.087072,61.508338 8.3582962,59.595384 10.271251,61.32416 c 1.783142,1.611461 2.183507,2.097133 1.728776,2.097133 -0.101298,0 -0.962128,-0.860829 -1.912955,-1.912955 z m 13.869163,1.728776 c 0,-0.101298 0.86083,-0.962128 1.912955,-1.912954 l 1.912955,-1.728776 -1.728776,1.912954 c -1.611462,1.783145 -2.097134,2.183506 -2.097134,1.728776 z m 62.980358,-0.03808 c 0,-0.122223 0.463524,-0.585746 1.030053,-1.030052 0.933557,-0.732141 0.954376,-0.711323 0.222232,0.222232 -0.768931,0.980493 -1.252285,1.292292 -1.252285,0.80785 z"
         id="path6957" />
      <path
         style="fill:#333333;fill-opacity:1;stroke-width:0.588601"
         d="m 45.577811,84.920103 c -2.904004,-0.745946 -3.806735,-1.250754 -3.243642,-1.813846 0.180119,-0.180123 1.647048,0.104118 3.259844,0.631634 4.137003,1.353142 7.200858,0.45546 10.829174,-3.172856 4.116484,-4.116484 4.169446,-4.927801 1.330497,-20.38105 -0.294354,-1.60226 -0.24643,-1.670076 0.517441,-0.73222 1.876449,2.303845 3.183527,14.08448 2.022852,18.231889 -0.901883,3.222688 -5.944945,6.910706 -10.555596,7.719379 -0.745352,0.130729 -2.617608,-0.08659 -4.16057,-0.48293 z m -7.385448,-5.7687 c -0.554159,-0.667721 -1.661856,-5.445264 -1.46358,-6.312486 0.03701,-0.161866 0.217205,-1.618654 0.400438,-3.237308 0.36209,-3.198649 0.586071,-4.298263 1.468689,-7.210368 0.318883,-1.052125 0.456524,-1.912955 0.305866,-1.912955 -0.150657,0 0.03668,-0.580369 0.416309,-1.289709 0.379628,-0.70934 0.747305,-3.159394 0.817061,-5.444564 0.06976,-2.28517 0.336604,-6.209727 0.592995,-8.721238 0.451369,-4.42143 0.533524,-4.607573 2.588107,-5.863985 3.002218,-1.835906 3.405642,-2.345963 3.036737,-3.839417 C 45.870271,33.357076 28.8138,16.400085 26.016341,15.099351 23.294727,13.833883 20.9642,13.674637 19.953745,14.685091 c -0.87669,0.876691 -0.928885,2.825287 -0.07568,2.825287 0.346854,0 1.02795,0.397306 1.513547,0.882902 0.784801,0.784802 0.78013,0.882903 -0.04204,0.882903 -0.532543,0 -0.924945,0.499419 -0.924945,1.177203 0,1.002802 0.392402,1.177203 2.648707,1.177203 h 2.648707 v 2.648706 2.648707 h -5.003113 c -2.943007,0 -5.003112,0.242365 -5.003112,0.588601 0,0.323731 1.191918,0.588602 2.648706,0.588602 2.432886,0 2.648707,0.1199 2.648707,1.471503 0,0.915603 -0.333541,1.471504 -0.882902,1.471504 -0.485596,0 -0.882902,0.295727 -0.882902,0.657171 0,0.441606 1.258613,0.577029 3.837007,0.412849 l 3.837008,-0.244322 -0.09788,2.995304 c -0.05383,1.647417 0.215363,3.580601 0.598212,4.295963 0.382851,0.715362 0.560894,1.300659 0.395651,1.300659 -0.165243,0 -0.04605,0.669094 0.264867,1.486875 1.065819,2.803318 1.953471,8.232939 1.873903,11.462357 -0.08237,3.343267 -0.228913,3.953951 -1.546741,6.445836 -1.342216,2.538 -1.943996,3.139781 -4.481998,4.481998 C 18.606784,67.156723 13.072158,66.18164 8.8128167,61.68001 7.7535035,60.56044 6.8665269,59.500957 6.8417579,59.325605 6.8169888,59.150253 6.6715805,58.477041 6.5186282,57.829579 6.1159706,56.125091 6.111187,49.8854 6.510957,47.823354 6.8129931,46.265428 7.5261739,43.254159 8.4625952,39.582934 8.7379165,38.50354 9.1895687,34.605415 10.19204,24.656409 c 0.348766,-3.461318 0.526565,-3.831248 2.361865,-4.914101 1.091589,-0.644054 1.984707,-1.409714 1.984707,-1.701468 0,-0.291754 0.397306,-0.530462 0.882902,-0.530462 1.056181,0 1.170632,-1.831235 0.17658,-2.825287 C 15.128543,14.21554 12.563527,13.978769 7.9462752,13.978769 H 1.0007778 v -1.503356 -1.503356 l 8.0932703,0.263611 c 4.4512989,0.144986 8.3581409,0.284469 8.6818719,0.309962 0.323731,0.02549 1.866922,-0.107075 3.429313,-0.294595 4.97202,-0.596747 6.834676,0.576538 17.666646,11.128205 l 9.805618,9.551874 9.805618,-9.551874 C 69.315083,11.827573 71.177742,10.654288 76.149759,11.251035 c 1.562395,0.18752 3.105585,0.320088 3.429316,0.294595 0.323731,-0.02549 4.230573,-0.164976 8.681872,-0.309962 l 8.09327,-0.263611 v 1.503356 1.503356 h -6.945498 c -4.617249,0 -7.182268,0.236771 -7.651819,0.706322 -0.876692,0.876691 -0.928884,2.825287 -0.07568,2.825287 0.346851,0 1.027951,0.397306 1.513547,0.882902 0.7848,0.784802 0.780127,0.882903 -0.04203,0.882903 -0.543915,0 -0.924964,0.503511 -0.924964,1.222212 0,1.074185 0.302977,1.200062 2.501557,1.039323 l 2.501556,-0.18289 0.174567,3.309681 0.174574,3.309681 -2.623391,-0.559514 c -1.442863,-0.307733 -3.772824,-0.456965 -5.17768,-0.331627 l -2.554295,0.227889 2.99926,0.102832 c 3.163168,0.108453 3.179566,0.131578 2.650837,3.738434 -0.03214,0.219061 -0.521907,0.519424 -1.088436,0.667473 -0.566529,0.14805 0.341601,0.299906 2.018062,0.33746 2.060069,0.04615 3.347935,-0.231543 3.97306,-0.856667 0.840858,-0.840859 0.924946,-0.680332 0.924946,1.765804 v 2.69075 h -8.216771 -8.216771 l -1.12786,3.678759 c -0.620327,2.023318 -1.593291,6.283449 -2.162145,9.466959 -1.033985,5.786552 -0.97214,6.719931 0.727964,10.986942 0.29808,0.748133 0.2068,0.763249 -0.598001,0.09902 -0.76351,-0.630152 -2.028827,-5.335869 -1.767582,-6.573637 0.03414,-0.161865 0.212032,-1.618654 0.395263,-3.237308 0.36209,-3.198646 0.586077,-4.298259 1.468691,-7.210368 0.318886,-1.052125 0.479357,-1.912955 0.35661,-1.912955 -0.122747,0 0.123159,-0.860829 0.546463,-1.912955 0.423305,-1.052125 0.825873,-3.569397 0.894592,-5.593938 0.06872,-2.024541 0.371049,-4.539063 0.67183,-5.587828 0.300781,-1.048764 0.546875,-3.043226 0.546875,-4.432137 0,-2.262126 0.214687,-2.651963 2.060105,-3.740785 1.133058,-0.668521 2.060106,-1.4542 2.060106,-1.745954 0,-0.291754 0.397306,-0.530462 0.882902,-0.530462 1.05618,0 1.170634,-1.831235 0.17658,-2.825287 -1.010452,-1.010454 -3.340984,-0.851208 -6.062595,0.41426 -2.801925,1.302811 -19.856944,18.261817 -20.334496,20.220022 -0.217486,0.891804 0.06917,1.648627 0.882902,2.331024 0.682436,0.57229 0.885898,1.018961 0.469197,1.030052 -0.404664,0.01077 -0.735752,0.549324 -0.735752,1.196785 0,0.981003 0.392401,1.177203 2.354406,1.177203 h 2.354405 v 2.914356 2.914354 l -5.003112,-0.353074 c -3.579297,-0.252595 -5.003113,-0.160687 -5.003113,0.322953 0,0.418832 1.11967,0.676027 2.943008,0.676027 2.746807,0 2.943007,0.0981 2.943007,1.471504 0,0.915603 -0.333541,1.471504 -0.882902,1.471504 -0.485596,0 -0.882902,0.26487 -0.882902,0.588601 0,0.332032 1.667704,0.588602 3.825909,0.588602 h 3.82591 v 1.765804 1.765805 H 49.87835 41.66158 l -1.133169,3.678759 c -0.623244,2.023317 -1.605215,6.383236 -2.182159,9.688716 -0.982025,5.626306 -0.98675,6.16839 -0.07401,8.492 1.027945,2.616893 0.997945,3.409751 -0.07988,2.111055 z M 22.484732,64.074617 c 2.885345,-1.331675 4.644033,-3.18177 5.914114,-6.221503 1.181724,-2.828263 0.814674,-7.391647 -1.250992,-15.553067 -0.768876,-3.037819 -1.256158,-5.752743 -1.082847,-6.033165 0.17331,-0.280422 -3.424344,-0.509858 -7.994786,-0.509858 -4.570443,0 -8.1821366,0.20672 -8.025986,0.459376 0.156151,0.252657 -0.350731,2.902821 -1.1264048,5.889254 -1.8666289,7.186737 -2.3669716,12.333954 -1.4646947,15.067879 2.1178805,6.417242 9.1172945,9.630712 15.0315965,6.901084 z m 30.018675,-20.03776 c 0,-0.485354 -1.121655,-0.76339 -3.335437,-0.826791 -3.823509,-0.109502 -4.397832,0.913008 -0.784773,1.397191 3.180707,0.426243 4.12021,0.296179 4.12021,-0.5704 z M 22.043578,24.720746 c 0.171763,-0.515915 -0.54673,-0.735752 -2.404663,-0.735752 -1.457289,0 -3.068586,-0.160773 -3.58066,-0.357274 -0.601667,-0.230882 -0.931042,-0.03522 -0.931042,0.55307 0,0.626303 0.688699,0.968702 2.207256,1.097378 3.645456,0.3089 4.45249,0.213371 4.709109,-0.557422 z m 61.803158,0 c 0.171759,-0.515915 -0.546735,-0.735752 -2.404667,-0.735752 -1.457289,0 -3.068585,-0.160773 -3.580657,-0.357274 -0.601668,-0.230882 -0.931044,-0.03522 -0.931044,0.55307 0,0.626303 0.688699,0.968702 2.207256,1.097378 3.645456,0.3089 4.452487,0.213371 4.709112,-0.557422 z m -7.661649,40.775509 c -2.904001,-0.745947 -3.806733,-1.250755 -3.243642,-1.813846 0.180118,-0.180124 1.647049,0.104117 3.259846,0.631634 4.137003,1.353142 7.200856,0.45546 10.829172,-3.172855 4.116485,-4.116485 4.169447,-4.927802 1.330499,-20.381052 -0.294354,-1.602259 -0.24643,-1.670076 0.517439,-0.73222 1.87645,2.303846 3.183528,14.084481 2.022853,18.231891 -0.901885,3.222683 -5.944946,6.910704 -10.555596,7.719378 -0.745352,0.130728 -2.617605,-0.08659 -4.160571,-0.48293 z"
         id="path6955" />
    </g>
  </g>
</svg>
