<?xml version="1.0" encoding="UTF-8" standalone="no"?>
<!-- Created with Inkscape (http://www.inkscape.org/) -->

<svg
   width="100mm"
   height="100mm"
   viewBox="0 0 100 100"
   version="1.1"
   id="svg1603"
   inkscape:version="1.1.1 (3bf5ae0d25, 2021-09-20)"
   sodipodi:docname="add_list_type_device_604c.svg"
   xmlns:inkscape="http://www.inkscape.org/namespaces/inkscape"
   xmlns:sodipodi="http://sodipodi.sourceforge.net/DTD/sodipodi-0.dtd"
   xmlns="http://www.w3.org/2000/svg"
   xmlns:svg="http://www.w3.org/2000/svg">
  <sodipodi:namedview
     id="namedview1605"
     pagecolor="#ffffff"
     bordercolor="#666666"
     borderopacity="1.0"
     inkscape:pageshadow="2"
     inkscape:pageopacity="0.0"
     inkscape:pagecheckerboard="0"
     inkscape:document-units="mm"
     showgrid="false"
     width="100mm"
     inkscape:zoom="0.58974467"
     inkscape:cx="378.97757"
     inkscape:cy="310.30378"
     inkscape:window-width="1440"
     inkscape:window-height="890"
     inkscape:window-x="-6"
     inkscape:window-y="-6"
     inkscape:window-maximized="1"
     inkscape:current-layer="layer1" />
  <defs
     id="defs1600" />
  <g
     inkscape:label="Laag 1"
     inkscape:groupmode="layer"
     id="layer1">
    <g
       id="g1743"
       transform="translate(0.44864529,0.44864041)">
      <path
         style="fill:#fdfdfd;stroke-width:0.59691"
         d="M 1.4494115,49.799094 V 1.4494159 H 49.799089 98.148767 V 49.799094 98.148772 H 60.426263 22.703757 l 3.156415,-1.572911 c 5.356521,-2.669266 8.155617,-7.741702 7.705553,-13.963775 -0.331609,-4.584444 -2.758741,-8.563038 -6.716626,-11.010009 -2.586385,-1.599043 -3.446852,-1.806511 -7.492399,-1.806511 -4.045548,0 -4.906015,0.207468 -7.4924,1.806511 -9.5264686,5.889761 -8.9672307,20.012427 0.988927,24.973784 l 3.156415,1.572911 H 8.7295264 1.4494115 Z M 63.52801,43.829998 V 3.8370543 H 61.737282 59.946553 V 43.829998 83.822941 h 1.790729 1.790728 z m 20.38983,39.246806 c 0.12245,-0.410375 0.218337,-18.340047 0.21309,-39.843716 L 84.12143,4.1355091 h -1.790729 -1.790729 l -0.03934,21.4887459 c -0.02167,11.81881 0.08861,29.748482 0.245019,39.843716 l 0.284392,18.35497 h 1.332618 c 0.73294,0 1.432798,-0.335761 1.555242,-0.746137 z M 54.352364,71.025086 c 4.045292,-1.898584 4.26789,-2.108882 4.520251,-4.27053 0.145986,-1.250484 0.148881,-2.883294 0.0064,-3.62847 l -0.258998,-1.35486 -2.590976,1.782635 c -1.425037,0.980454 -3.874429,2.332788 -5.443094,3.005201 -3.38921,1.452783 -3.75033,1.927206 -3.762297,4.942716 -0.0088,2.210852 0.05662,2.287435 1.632361,1.911675 0.902825,-0.2153 3.55617,-1.290059 5.896321,-2.388367 z M 34.162918,63.677242 33.980985,60.841922 30.466609,60.405445 C 23.315999,59.517356 17.505131,54.387764 15.168482,46.900898 11.351722,34.671596 17.451426,22.165376 29.504163,17.508458 38.475132,14.042269 49.414039,15.526766 56.468759,21.16777 l 2.192848,1.753417 0.380454,-1.732198 c 0.20925,-0.952708 0.200297,-2.692519 -0.01989,-3.866246 C 58.667379,15.43157 58.204676,14.985441 54.95659,13.402802 49.150222,10.573635 44.408798,9.6161182 37.861307,9.9504604 21.845496,10.768295 9.5134872,22.219783 8.2274406,37.468433 6.9560854,52.542887 17.97126,66.284597 31.476824,66.47263 l 2.868026,0.03993 z M 69.48946,56.663554 c 5.049987,-10.170317 4.599236,-21.399969 -1.246473,-31.053874 -1.115886,-1.842833 -2.49895,-3.776661 -3.073475,-4.297394 -0.986155,-0.893824 -1.044592,-0.696394 -1.044592,3.529099 0,3.110722 0.394915,5.551238 1.294792,8.001566 1.853375,5.046679 1.861875,14.130893 0.01755,18.746872 -0.97584,2.442336 -1.307698,4.505791 -1.295975,8.058279 l 0.01576,4.775277 1.777041,-2.089183 c 0.977374,-1.149051 2.577295,-3.70084 3.555385,-5.670642 z m -18.212361,3.41496 c 1.633656,-1.237318 3.951855,-3.548384 5.151551,-5.135703 1.93764,-2.563689 2.227382,-3.414689 2.59415,-7.619237 0.227086,-2.603263 0.223985,-7.1479 -0.0069,-10.099195 -0.380367,-4.862216 -0.609641,-5.614648 -2.442136,-8.014594 -4.318233,-5.655418 -10.50606,-8.385844 -17.98749,-7.937119 -12.5968,0.755539 -20.392191,11.210489 -17.762502,23.822546 0.490503,2.352467 1.020084,4.405472 1.176846,4.562233 0.420649,0.42065 2.86739,-0.286881 4.093573,-1.183751 0.970412,-0.70979 1.003663,-1.157338 0.367796,-4.950428 -1.175179,-7.010217 0.865442,-11.61176 6.570517,-14.816329 9.205776,-5.170929 20.853532,1.052147 21.955613,11.73028 0.462303,4.479289 -0.999751,8.556707 -4.440416,12.383555 -2.401762,2.671338 -2.782481,3.464648 -3.016393,6.285316 -0.147235,1.775459 -0.03298,3.226753 0.253898,3.225099 0.286878,-0.0018 1.858225,-1.015355 3.491881,-2.252673 z M 14.725194,91.58599 C 6.9606981,86.851917 10.280238,74.873762 19.3567,74.873762 c 9.076461,0 12.396001,11.978155 4.631505,16.712228 -1.069977,0.652374 -2.482631,1.179988 -3.139231,1.172479 -1.044866,-0.01194 -0.998002,-0.135176 0.375592,-0.987646 0.863176,-0.535697 2.292962,-2.07305 3.177303,-3.416347 2.069841,-3.144042 1.862472,-6.848863 -0.51651,-9.22784 -2.175469,-2.175473 -6.702383,-2.24262 -8.948253,-0.132735 -3.001406,2.819676 -2.557686,7.783188 0.916969,10.25736 0.941542,0.670437 1.711896,1.737908 1.711896,2.372149 0,1.447141 -0.414868,1.441674 -2.840777,-0.03743 z"
         id="path1759" />
      <path
         style="fill:#d4d4d4;stroke-width:0.59691"
         d="m 46.823682,71.501778 c 0.01197,-3.01551 0.373088,-3.489933 3.762297,-4.942716 1.568665,-0.672413 4.018057,-2.024747 5.443094,-3.005201 l 2.590976,-1.782635 0.258998,1.35486 c 0.142449,0.745176 0.139554,2.377986 -0.0064,3.62847 -0.252361,2.161648 -0.474959,2.371946 -4.520251,4.27053 -2.340151,1.098308 -4.993495,2.173067 -5.896321,2.388367 -1.57574,0.37576 -1.641135,0.299177 -1.632361,-1.911675 z M 30.399527,65.479181 c 3.098033,-1.261025 3.500324,-1.958419 1.95838,-3.394959 -0.821715,-0.765543 -1.012256,-1.25922 -0.546001,-1.414638 1.673996,-0.557999 2.467534,0.451205 2.467534,3.138155 v 2.704824 l -3.133776,-0.03074 -3.133775,-0.03074 2.387638,-0.971864 z m 33.74145,-5.911775 c -0.01045,-3.164026 0.307319,-5.555782 0.912048,-6.86446 0.583587,-1.262916 0.781749,-1.454539 0.533828,-0.516214 -0.216857,0.820751 -0.533941,3.366097 -0.704634,5.656323 l -0.310357,4.164052 1.617721,-1.922553 c 0.889747,-1.057404 2.417048,-3.33414 3.393998,-5.059414 0.97695,-1.725275 1.595366,-2.465339 1.374253,-1.644588 -0.593275,2.202203 -3.058344,6.570575 -5.052536,8.953644 l -1.748264,2.089183 z M 47.53132,59.106088 c 0.233865,-2.820103 0.61476,-3.614122 3.013612,-6.282223 1.510251,-1.679763 3.170616,-4.189102 3.689698,-5.576309 0.656702,-1.754981 0.840516,-1.977481 0.604285,-0.731465 -0.186725,0.984901 -0.99416,3.233387 -1.794299,4.996637 -1.753362,3.863847 -1.782047,4.255462 -0.311708,4.255462 0.6287,0 2.240356,-1.246559 3.581458,-2.770132 3.063018,-3.479773 3.196645,-2.118891 0.182686,1.860503 -2.115745,2.793461 -7.56315,7.466006 -8.711834,7.472626 -0.286879,0.0018 -0.401133,-1.44964 -0.253898,-3.225099 z m 36.402033,-7.957261 -0.110416,-10.290005 -1.492274,0.123505 -1.492274,0.123504 -0.09553,9.569591 c -0.05254,5.263275 -0.213366,8.629457 -0.357394,7.480406 -0.144028,-1.149051 -0.07071,-8.871569 0.16292,-17.161151 L 80.973177,25.92271 h 1.357778 1.357773 l 0.418075,14.475058 c 0.229942,7.961281 0.309826,15.952409 0.177521,17.75806 -0.132305,1.805652 -0.290241,-1.347499 -0.350971,-7.007001 z m -12.001482,-2.29484 c 0.02865,-0.695365 0.170083,-0.836807 0.360629,-0.360633 0.172429,0.430894 0.151227,0.945729 -0.0471,1.144077 -0.198353,0.198348 -0.339427,-0.154202 -0.313509,-0.783444 z m -5.372187,-1.790729 c 0.02865,-0.695365 0.170084,-0.836807 0.360629,-0.360633 0.17243,0.430894 0.151227,0.945729 -0.0471,1.144077 C 66.674864,48.04505 66.533791,47.6925 66.559708,47.063258 Z M 58.91531,44.426907 c 0,-1.477351 0.116407,-2.081722 0.258682,-1.343046 0.142276,0.738675 0.142276,1.947417 0,2.686093 -0.142275,0.738676 -0.258682,0.134305 -0.258682,-1.343047 z m 13.682712,0.895365 c 0.01218,-0.984901 0.145944,-1.315551 0.297285,-0.734777 0.15134,0.580774 0.14139,1.386602 -0.02209,1.790729 -0.163541,0.404127 -0.287364,-0.07105 -0.275199,-1.055952 z m -9.666921,-3.010715 c 0,-1.115011 -0.277533,-1.47184 -1.044592,-1.343046 -0.574525,0.09647 -1.22717,0.578308 -1.45032,1.070758 -0.223151,0.49245 -0.424608,-2.932318 -0.447682,-7.610597 l -0.04195,-8.505962 h 1.790729 1.790728 v 8.953644 c 0,4.924504 -0.134304,8.953644 -0.298454,8.953644 -0.164151,0 -0.298455,-0.683299 -0.298455,-1.518441 z"
         id="path1757" />
      <path
         style="fill:#d1d1d1;stroke-width:0.59691"
         d="M 8.854068,93.821177 7.7169624,92.478131 9.060009,93.615237 c 1.262132,1.0686 1.614784,1.548987 1.137106,1.548987 -0.113268,0 -0.7176392,-0.604371 -1.343047,-1.343047 z m 20.35164,0.149228 c 0.594215,-0.656601 1.214696,-1.19382 1.378846,-1.19382 0.164151,0 -0.187721,0.537219 -0.781936,1.19382 -0.594215,0.6566 -1.214696,1.193819 -1.378847,1.193819 -0.16415,0 0.187722,-0.537219 0.781937,-1.193819 z M 17.613095,91.831481 c 0.02864,-0.69537 0.170084,-0.836808 0.360633,-0.360635 0.17243,0.430891 0.151224,0.945725 -0.04713,1.144078 -0.198348,0.198348 -0.339427,-0.154205 -0.313509,-0.783443 z M 8.9107816,73.675478 c 0.5942151,-0.6566 1.2146964,-1.193819 1.3788464,-1.193819 0.16415,0 -0.187722,0.537219 -0.7819368,1.193819 -0.5942152,0.656601 -1.2146962,1.193819 -1.3788463,1.193819 -0.1641501,0 0.1877215,-0.537218 0.7819367,-1.193819 z m 20.2382134,-0.149227 -1.137106,-1.343047 1.343047,1.137107 c 1.262132,1.068599 1.614784,1.548986 1.137105,1.548986 -0.113268,0 -0.717639,-0.604371 -1.343046,-1.343046 z M 22.592493,64.198046 C 4.7241092,55.7448 3.1910059,28.591298 19.889792,16.329263 c 2.152009,-1.580236 3.995292,-2.790608 4.096183,-2.689716 0.100892,0.100891 0.304224,0.810625 0.451851,1.577185 0.147626,0.766561 0.676421,1.622081 1.1751,1.901156 1.434677,0.802885 1.105626,1.386998 -2.064237,3.664318 -5.836943,4.193425 -9.564176,11.546985 -9.564176,18.869425 0,4.525874 1.878227,10.345104 4.47451,13.863184 2.310307,3.130568 7.041623,6.154654 10.558959,6.748905 1.248859,0.210993 2.445196,0.666039 2.658525,1.011212 0.626686,1.014 -3.882624,-0.01534 -7.341906,-1.675947 -5.457539,-2.619848 -8.726217,-7.237082 -11.005899,-15.546598 -1.476429,-5.381632 -1.755024,-8.164703 -1.067931,-10.668307 0.448427,-1.633964 0.417029,-1.692411 -0.358655,-0.667639 -1.167835,1.54285 -2.334679,7.178806 -2.2718888,10.973416 0.037599,2.272254 0.6241918,4.347723 2.1175788,7.492371 3.43164,7.22606 7.515348,10.931863 14.692989,13.333308 3.531955,1.181696 3.733505,1.328506 1.869549,1.361831 -1.149051,0.02053 -3.722084,-0.735153 -5.717851,-1.679321 z M 21.080191,46.665318 c -1.907268,-7.631262 -0.184042,-15.012857 4.611392,-19.753309 3.716549,-3.673939 4.081421,-3.72719 5.784034,-0.844153 l 1.485503,2.515405 -2.025169,1.376137 c -3.990661,2.711726 -5.586763,8.562273 -4.221239,15.473053 0.470707,2.382197 0.409911,2.541069 -1.313404,3.43223 -2.908775,1.504186 -3.466434,1.220348 -4.321117,-2.199363 z m 4.139476,-1.567944 c 0.105779,-1.103217 -0.112566,-2.741923 -0.485211,-3.641567 -0.372645,-0.899645 -0.701263,-2.4702 -0.730261,-3.490124 -0.06703,-2.357514 -0.842148,-1.902446 -1.637517,0.961379 -1.25015,4.501326 -0.407615,8.757018 1.656346,8.36629 0.653586,-0.123731 1.071482,-0.890618 1.196643,-2.195978 z M 60.027841,21.29666 c 0.04471,-2.544327 0.197695,-4.021678 0.339971,-3.283003 0.158758,0.824253 0.691746,1.343047 1.37979,1.343047 0.926672,0 1.159133,-0.543503 1.340343,-3.133775 0.120576,-1.723577 0.268919,-0.246226 0.329649,3.283002 l 0.110416,6.416779 h -1.790728 -1.790729 z m 20.810548,1.343047 c 0,-3.10393 0.0814,-3.283003 1.492274,-3.283003 1.410879,0 1.492274,0.179073 1.492274,3.283003 0,3.10393 -0.0814,3.283003 -1.492274,3.283003 -1.410879,0 -1.492274,-0.179073 -1.492274,-3.283003 z M 83.944438,9.9553778 C 83.824853,4.5209519 83.799807,4.4339639 82.354802,4.4339639 c -1.415255,0 -1.47568,0.1666154 -1.677668,4.6260495 l -0.209533,4.6260496 0.03617,-4.775277 c 0.03605,-4.7579175 0.04214,-4.7759647 1.681065,-4.9644799 2.129493,-0.2449438 2.330848,0.3837875 2.083805,6.5066489 l -0.20271,5.023837 z M 60.69269,4.0224989 c 0.574525,-0.1501392 1.514658,-0.1501392 2.089183,0 0.574526,0.1501392 0.10446,0.2729804 -1.044591,0.2729804 -1.149051,0 -1.619118,-0.1228412 -1.044592,-0.2729804 z"
         id="path1755" />
      <path
         style="fill:#d1d1d1;stroke-width:0.59691"
         d="m 60.015795,80.390711 c 0.0735,-3.643011 0.337078,-3.286017 0.66109,0.895365 0.108119,1.395276 -0.01197,2.536865 -0.266876,2.536865 -0.254901,0 -0.432297,-1.544503 -0.394214,-3.43223 z m 2.778745,-1.192428 c 0.286069,-8.176719 0.530145,-8.982648 0.63313,-2.090575 0.05515,3.693379 -0.101117,6.71586 -0.347342,6.716624 -0.246225,5.97e-4 -0.374829,-2.080958 -0.285788,-4.626049 z m 21.144765,1.938565 c 0.01218,-0.984901 0.145944,-1.315553 0.297284,-0.734778 0.151341,0.580775 0.14139,1.386603 -0.02214,1.790729 -0.163511,0.404126 -0.287334,-0.07105 -0.275169,-1.055951 z M 58.903264,39.950085 c 0.0066,-1.313201 0.128864,-1.780135 0.27164,-1.037632 0.142777,0.742504 0.137357,1.816941 -0.01205,2.387638 -0.149402,0.570699 -0.26622,-0.0368 -0.259595,-1.350006 z m 13.672637,-0.298454 c 0,-0.820751 0.135486,-1.156513 0.301075,-0.746137 0.165588,0.410375 0.165588,1.081898 0,1.492274 -0.165589,0.410375 -0.301075,0.07461 -0.301075,-0.746137 z M 51.678944,32.481603 c -2.964507,-4.00971 -9.617935,-6.562264 -14.159943,-5.432391 -1.289308,0.32073 -2.890093,0.751729 -3.557299,0.957777 -0.96915,0.299295 -1.483916,-0.107215 -2.559783,-2.021462 l -1.346681,-2.396096 1.962874,-1.023332 c 1.146309,-0.597622 3.878698,-1.136968 6.568174,-1.296492 5.337847,-0.316611 9.348933,0.739511 13.403554,3.529163 2.506788,1.724716 6.762894,6.674627 6.762894,7.865342 0,0.330348 -0.816872,-0.527027 -1.815271,-1.905276 -1.788371,-2.468776 -6.613024,-6.029946 -8.169335,-6.029946 -1.801777,0 -1.38354,1.875438 1.029326,4.61566 2.316259,2.630506 3.912271,4.934894 3.417894,4.934894 -0.113962,0 -0.805343,-0.809028 -1.536404,-1.797841 z m 12.562344,-3.8728 c 0.01218,-0.984901 0.145944,-1.315551 0.297284,-0.734777 0.151341,0.580774 0.14139,1.386602 -0.02209,1.790729 -0.163542,0.404127 -0.287364,-0.07105 -0.275199,-1.055952 z m 2.928092,-3.67693 c -1.509787,-2.141955 -2.083137,-2.588041 -2.493405,-1.939957 -0.380011,0.600293 -0.528438,0.328148 -0.517658,-0.949119 l 0.0151,-1.790729 1.617243,1.894578 c 1.621093,1.899064 3.964405,5.566793 3.556644,5.566793 -0.119513,0 -1.099579,-1.251705 -2.177926,-2.781566 z m -9.84642,-3.118469 c -1.396739,-1.543379 -7.240902,-4.580246 -10.465011,-5.43805 -4.477681,-1.191328 -11.786639,-0.866793 -16.177286,0.71831 -3.759774,1.357346 -3.891685,1.365018 -4.955469,0.288196 -0.60108,-0.608449 -1.204761,-1.723286 -1.34151,-2.477416 -0.20976,-1.156752 0.202877,-1.565381 2.639,-2.613373 8.668269,-3.7289895 18.834256,-3.3125937 27.999365,1.146845 2.051876,0.998376 3.730685,2.197362 3.730685,2.664415 0,0.665873 -0.418778,0.593854 -1.939957,-0.333627 -1.98961,-1.21309 -4.082514,-1.531842 -4.872296,-0.74206 -0.24487,0.24487 1.254865,1.967065 3.332745,3.8271 2.077879,1.860036 3.619627,3.5416 3.426106,3.73681 -0.193521,0.195209 -0.812889,-0.154507 -1.376372,-0.77715 z m 1.568258,-2.4567 c 0,-1.149051 0.122841,-1.619117 0.272981,-1.044592 0.150139,0.574526 0.150139,1.514658 0,2.089184 -0.15014,0.574525 -0.272981,0.104459 -0.272981,-1.044592 z"
         id="path1753" />
      <path
         style="fill:#c2c2c2;stroke-width:0.59691"
         d="m 19.65938,92.78342 c -0.209121,-0.338364 0.03048,-0.43843 0.561682,-0.234591 1.034096,0.396819 1.223299,0.824666 0.364685,0.824666 -0.308926,0 -0.72579,-0.265535 -0.926367,-0.590075 z m -7.223854,-2.5437 -1.137106,-1.343047 1.343047,1.137107 c 1.262132,1.068599 1.614784,1.548986 1.137105,1.548986 -0.113268,0 -0.717639,-0.604371 -1.343046,-1.343046 z m 13.188724,0.149227 c 0.594216,-0.656601 1.214697,-1.193819 1.378847,-1.193819 0.16415,0 -0.187722,0.537218 -0.781937,1.193819 -0.594215,0.656601 -1.214696,1.193819 -1.378846,1.193819 -0.16415,0 0.187721,-0.537218 0.781936,-1.193819 z M 14.505284,88.150536 c -0.742479,-0.946734 -0.721366,-0.967847 0.225366,-0.225369 0.574526,0.450577 1.044592,0.920643 1.044592,1.044592 0,0.49128 -0.490174,0.175079 -1.269958,-0.819223 z m 10.958997,-4.327595 c 0,-1.149051 0.122841,-1.619117 0.27298,-1.044591 0.150139,0.574525 0.150139,1.514658 0,2.089183 -0.150139,0.574526 -0.27298,0.104459 -0.27298,-1.044592 z m -12.55722,-0.298454 c 0.01216,-0.984901 0.145943,-1.315553 0.297286,-0.734778 0.151342,0.580775 0.141389,1.386603 -0.02212,1.790729 -0.163509,0.404125 -0.287335,-0.07105 -0.27517,-1.055951 z m 1.077452,-3.508372 c 0,-0.123949 0.470067,-0.594015 1.044592,-1.044592 0.946732,-0.742478 0.967845,-0.721366 0.225366,0.225369 -0.779784,0.994302 -1.269958,1.310503 -1.269958,0.819223 z m 9.474415,-0.819223 c -0.742478,-0.946735 -0.721366,-0.967847 0.225366,-0.225369 0.574526,0.450577 1.044592,0.920643 1.044592,1.044592 0,0.49128 -0.490174,0.175079 -1.269958,-0.819223 z M 12.492239,77.256936 c 0.594215,-0.656601 1.214696,-1.193819 1.378846,-1.193819 0.164151,0 -0.187721,0.537218 -0.781936,1.193819 -0.594215,0.6566 -1.214696,1.193819 -1.378846,1.193819 -0.164151,0 0.187721,-0.537219 0.781936,-1.193819 z m 13.075298,-0.149228 -1.137106,-1.343046 1.343047,1.137107 c 1.262132,1.068599 1.614784,1.548986 1.137106,1.548986 -0.113268,0 -0.717639,-0.604371 -1.343047,-1.343047 z m -6.956974,0.350816 c 0.410375,-0.165589 1.081898,-0.165589 1.492274,0 0.410375,0.165589 0.07461,0.301075 -0.746137,0.301075 -0.820751,0 -1.156513,-0.135486 -0.746137,-0.301075 z M 25.504771,64.235018 C 19.138286,61.978211 15.018434,58.069242 11.747806,51.182228 10.254419,48.03758 9.6678265,45.962111 9.6302272,43.689857 c -0.06279,-3.79461 1.1040538,-9.430566 2.2718888,-10.973416 0.775684,-1.024772 0.807082,-0.966325 0.358655,0.667639 -0.687093,2.503604 -0.408498,5.286675 1.067931,10.668307 2.830324,10.316622 7.184771,15.082371 15.81266,17.306255 3.925902,1.011923 4.709936,1.527391 4.020331,2.643194 -0.799327,1.293342 -4.360282,1.401782 -7.656922,0.233182 z M 22.381522,46.29289 c -0.804101,-1.502478 -0.810147,-4.502239 -0.01485,-7.365828 0.795369,-2.863825 1.570487,-3.318893 1.637517,-0.961379 0.029,1.019924 0.357616,2.590479 0.730261,3.490124 0.948628,2.290191 0.5453,5.599632 -0.711432,5.837545 -0.552375,0.10457 -1.291051,-0.345638 -1.641502,-1.000462 z M 60.319621,17.491362 C 60.114434,16.465423 59.946553,13.107807 59.946553,10.029991 V 4.4339639 h 1.790729 c 1.743507,0 1.790728,0.07633 1.790728,2.8944877 0,1.5919685 -0.173718,4.9495854 -0.386045,7.4613694 -0.319579,3.780678 -0.563638,4.566883 -1.41766,4.566883 -0.677882,0 -1.159538,-0.639611 -1.404684,-1.865342 z M 80.838389,11.895334 V 4.4339639 h 1.492274 1.492274 v 7.4613701 7.46137 h -1.492274 -1.492274 z"
         id="path1751" />
      <path
         style="fill:#bcbcbc;stroke-width:0.59691"
         d="m 60.854249,83.245986 c -0.196118,-0.317329 -0.520846,-4.578678 -0.721617,-9.469672 l -0.365038,-8.892717 1.889403,-0.277307 1.889404,-0.277306 -0.357161,9.000842 c -0.196437,4.950463 -0.460754,9.336603 -0.587371,9.746978 -0.273587,0.886722 -1.245977,0.980854 -1.74762,0.169182 z m 20.402717,0.199649 C 81.02675,83.215419 80.838389,78.908388 80.838389,73.874446 v -9.152612 h 1.50743 1.507435 l -0.164389,9.393763 c -0.138608,7.920937 -0.30933,9.421586 -1.088853,9.571189 -0.508459,0.09758 -1.11283,-0.01092 -1.343046,-0.241151 z M 67.156218,41.740814 c -0.03349,-1.969801 -0.483562,-5.058809 -1.000128,-6.86446 -2.202668,-7.6994 -2.470221,-13.541048 -0.547086,-11.94499 1.648766,1.368357 4.629291,6.635053 5.662661,10.006145 1.354036,4.417157 2.090962,10.892489 1.239632,10.892489 -0.344602,0 -0.635094,-0.335762 -0.645534,-0.746137 -0.01045,-0.410376 -0.404961,-1.256061 -0.876711,-1.879301 -0.710263,-0.938349 -1.015271,-1.00241 -1.774129,-0.372615 -0.504024,0.418303 -1.159717,1.59975 -1.457098,2.625439 -0.477617,1.647349 -0.547796,1.447111 -0.601607,-1.71657 z M 55.165445,40.829038 c -0.0074,-3.380791 -2.055702,-7.781425 -5.345567,-11.484488 -2.433655,-2.739317 -2.86121,-4.61566 -1.05175,-4.61566 1.556311,0 6.380964,3.56117 8.169335,6.029946 1.568751,2.165598 1.815271,3.020649 1.815271,6.296261 0,2.905079 -0.201216,3.790353 -0.861518,3.790353 -0.473834,0 -1.279662,0.596986 -1.790728,1.326635 -0.900436,1.285551 -0.929393,1.243958 -0.935043,-1.343047 z M 54.872821,18.476452 c -2.958173,-2.643487 -3.399434,-3.272108 -2.535531,-3.612121 1.368249,-0.538512 3.55002,0.03421 5.19039,1.362505 1.010182,0.817995 1.268861,1.570164 1.120071,3.256863 l -0.193472,2.193221 z"
         id="path1749" />
      <path
         style="fill:#b3b3b3;stroke-width:0.59691"
         d="m 59.988507,53.867882 c 0.02307,-6.013287 0.224531,-11.336163 0.447682,-11.828613 0.22315,-0.49245 0.855577,-0.969649 1.405391,-1.06044 1.374306,-0.226942 1.802762,3.807087 1.570791,14.789361 l -0.182815,8.655189 -1.641502,0.188874 -1.641501,0.188874 0.04195,-10.933245 z M 80.838389,52.913833 V 41.105831 l 1.492274,-0.123504 1.492274,-0.123505 v 11.931507 11.931505 h -1.492274 -1.492274 z m -16.111868,6.07021 c 0.0054,-3.299139 3.134319,-16.587789 4.211454,-17.885655 1.064392,-1.282519 1.519774,-1.054582 2.649533,1.326205 1.825964,3.847942 -0.384135,11.440192 -4.994212,17.15636 l -1.871466,2.320489 0.0048,-2.917399 z M 51.772008,54.723598 c 0.176784,-0.574525 1.007565,-2.656248 1.846179,-4.626049 0.838614,-1.969802 1.531129,-4.260366 1.538921,-5.090143 0.01717,-1.828411 1.550143,-4.161956 2.734108,-4.161956 0.677671,0 0.861518,1.001103 0.861518,4.691238 0,4.639354 -0.02697,4.721875 -2.438368,7.46137 -2.470606,2.806756 -5.193312,3.841051 -4.542358,1.72554 z"
         id="path1747" />
      <path
         style="fill:#999999;stroke-width:0.59691"
         d="M 14.589652,96.979456 C 1.7724907,92.555413 2.421888,74.161953 15.52978,70.35139 c 7.564232,-2.198985 15.072375,1.987124 17.298472,9.644633 2.167015,7.454266 -1.959378,15.024179 -9.393113,17.231759 -3.920262,1.164195 -4.826941,1.138743 -8.845487,-0.248326 z m 8.783855,-4.778184 c 4.45186,-2.020909 6.444978,-7.013903 4.662725,-11.680667 -3.227073,-8.449966 -15.061465,-7.904295 -17.673807,0.81493 -1.3828496,4.615538 1.131723,9.520655 5.711272,11.140841 3.180294,1.12515 4.308884,1.082621 7.29981,-0.275104 z M 18.16288,91.78953 c 0,-0.542884 -1.074437,-1.97897 -2.387638,-3.191312 -2.08166,-1.92178 -2.387638,-2.536919 -2.387638,-4.80015 0,-3.757534 2.195837,-5.944223 5.969096,-5.944223 3.746014,0 5.969096,2.190706 5.969096,5.882174 0,3.287402 -1.266147,5.656519 -4.024953,7.531173 -2.604872,1.770058 -3.137963,1.858794 -3.137963,0.522338 z"
         id="path1745" />
    </g>
  </g>
</svg>
