<?xml version="1.0" encoding="UTF-8" standalone="no"?>
<!-- Created with Inkscape (http://www.inkscape.org/) -->

<svg
   width="100mm"
   height="100mm"
   viewBox="0 0 100 100"
   version="1.1"
   id="svg5177"
   inkscape:version="1.1.1 (3bf5ae0d25, 2021-09-20)"
   sodipodi:docname="add_list_type_device_619e.svg"
   xmlns:inkscape="http://www.inkscape.org/namespaces/inkscape"
   xmlns:sodipodi="http://sodipodi.sourceforge.net/DTD/sodipodi-0.dtd"
   xmlns="http://www.w3.org/2000/svg"
   xmlns:svg="http://www.w3.org/2000/svg">
  <sodipodi:namedview
     id="namedview5179"
     pagecolor="#ffffff"
     bordercolor="#666666"
     borderopacity="1.0"
     inkscape:pageshadow="2"
     inkscape:pageopacity="0.0"
     inkscape:pagecheckerboard="0"
     inkscape:document-units="mm"
     showgrid="false"
     width="100mm"
     inkscape:zoom="0.58974467"
     inkscape:cx="378.97757"
     inkscape:cy="364.56455"
     inkscape:window-width="1440"
     inkscape:window-height="890"
     inkscape:window-x="-6"
     inkscape:window-y="-6"
     inkscape:window-maximized="1"
     inkscape:current-layer="layer1" />
  <defs
     id="defs5174" />
  <g
     inkscape:label="Laag 1"
     inkscape:groupmode="layer"
     id="layer1">
    <g
       id="g5193"
       transform="translate(0.37678143,-0.07437391)">
      <path
         style="fill:#d0d0d0;fill-opacity:1;stroke-width:0.599679"
         d="m 19.743866,93.207169 c -0.210091,-0.339934 0.03062,-0.440465 0.564288,-0.23568 1.038894,0.39866 1.228974,0.828492 0.366377,0.828492 -0.310359,0 -0.729158,-0.266767 -0.930665,-0.592812 z m -7.25737,-2.555502 -1.142381,-1.349278 1.349278,1.142382 c 1.267988,1.073558 1.622276,1.556173 1.142381,1.556173 -0.113793,0 -0.720968,-0.607175 -1.349278,-1.349277 z m 2.079362,-2.098877 c -0.745924,-0.951127 -0.724713,-0.972337 0.226411,-0.226415 0.577191,0.452668 1.049439,0.924915 1.049439,1.049439 0,0.493559 -0.492448,0.175892 -1.27585,-0.823024 z m 21.826268,0.03418 c 0.583468,-0.152043 1.393034,-0.142046 1.799037,0.02225 0.406002,0.16427 -0.07138,0.288668 -1.060852,0.276446 -0.98947,-0.01223 -1.321654,-0.146621 -0.738185,-0.298664 z m 2.087463,-1.180936 c 0.412279,-0.166357 1.086918,-0.166357 1.499198,0 0.412279,0.166357 0.07496,0.302472 -0.749599,0.302472 -0.824559,0 -1.161878,-0.136115 -0.749599,-0.302472 z m 25.336437,-0.140031 c 1.367778,-0.437082 1.394062,-0.505409 0.29984,-0.779481 l -1.199358,-0.300409 1.199358,0.05895 c 1.729288,0.08498 1.479108,1.23574 -0.29984,1.379165 l -1.499197,0.120866 1.499197,-0.479084 z M 33.693221,86.502818 c 0.348475,-0.348474 0.987563,-0.515598 1.420196,-0.371388 0.449127,0.14971 0.177297,0.421539 -0.633591,0.633591 -0.997473,0.260843 -1.231607,0.1828 -0.786605,-0.262203 z m 5.386047,-0.29614 c 0.412279,-0.166357 1.086918,-0.166357 1.499198,0 0.412279,0.166357 0.07496,0.302472 -0.749599,0.302472 -0.824559,0 -1.161878,-0.136115 -0.749599,-0.302472 z m 19.189727,0 c 0.41228,-0.166357 1.086919,-0.166357 1.499198,0 0.412279,0.166357 0.07496,0.302472 -0.749599,0.302472 -0.824558,0 -1.161878,-0.136115 -0.749599,-0.302472 z m -7.907191,-1.226097 c -0.325437,-0.854663 -0.256555,-0.923542 0.335697,-0.335701 0.409832,0.406786 0.594085,0.890667 0.409452,1.075303 -0.184634,0.184635 -0.519951,-0.148187 -0.745149,-0.739602 z m -3.032705,-1.368276 c -0.210091,-0.339934 0.03062,-0.440464 0.564288,-0.23568 1.038894,0.398661 1.228974,0.828493 0.366377,0.828493 -0.310359,0 -0.729158,-0.266768 -0.930665,-0.592813 z M 36.623288,82.85584 c 0.152882,-0.247368 0.920753,-0.449759 1.706381,-0.449759 0.785628,0 1.5535,0.202391 1.706382,0.449759 0.152882,0.247368 -0.61499,0.449759 -1.706382,0.449759 -1.091391,0 -1.859263,-0.202391 -1.706381,-0.449759 z m 42.73851,0.599679 c -0.323779,-1.057954 -0.379926,-2.274816 -0.09165,-1.986551 0.437622,0.437628 0.743218,2.136471 0.384316,2.136471 -0.135731,0 -0.267426,-0.06746 -0.292661,-0.14992 z M 61.867069,82.608604 c 0.41228,-0.166357 1.086919,-0.166357 1.499198,0 0.412279,0.166357 0.07496,0.302472 -0.749599,0.302472 -0.824558,0 -1.161878,-0.136115 -0.749599,-0.302472 z m 18.810743,-1.016767 c -0.546194,-0.658124 -0.235009,-1.174574 1.509506,-2.505177 l 2.197541,-1.676151 -0.438455,1.746961 c -0.241155,0.960823 -0.483989,1.756406 -0.539633,1.767955 -0.05565,0.01157 -0.537618,0.352749 -1.071051,0.758222 -0.775787,0.589689 -1.107565,0.571321 -1.657908,-0.09181 z M 34.918995,80.797076 c 0.432893,-0.173229 0.950117,-0.151929 1.149385,0.04731 0.199268,0.199267 -0.154917,0.341001 -0.787079,0.314963 -0.698591,-0.02878 -0.84069,-0.170872 -0.362306,-0.362302 z m 23.949679,0.01247 c 0.41228,-0.166357 1.086919,-0.166357 1.499198,0 0.412279,0.166357 0.07496,0.302472 -0.749599,0.302472 -0.824558,0 -1.161878,-0.136115 -0.749599,-0.302472 z m 3.635554,-0.01247 c 0.432891,-0.173229 0.950114,-0.151929 1.149387,0.04731 0.199267,0.199267 -0.154921,0.341001 -0.787079,0.314963 -0.698596,-0.02878 -0.84069,-0.170872 -0.362308,-0.362302 z m 14.458854,-0.339952 c -0.350494,-1.145237 -0.359981,-2.297796 -0.02063,-2.507522 0.234481,-0.144918 0.42633,0.39372 0.42633,1.196978 0,1.21047 -0.219404,1.919236 -0.405689,1.310544 z M 63.973286,79.592579 c 0.581233,-0.151617 0.876856,-0.566793 0.656942,-0.922612 -0.239703,-0.387849 -0.11864,-0.473165 0.30228,-0.213018 0.937934,0.579673 0.26919,1.568052 -1.001955,1.480853 -0.906571,-0.06219 -0.902043,-0.09878 0.04276,-0.345223 z M 78.54383,78.384885 c -0.397041,-1.03468 2.423237,-3.886411 3.524925,-3.56424 1.27087,0.371651 0.860204,1.504871 -1.082259,2.986456 -1.808679,1.379549 -2.107841,1.450311 -2.442666,0.577784 z M 31.9206,76.599323 c 0.432894,-0.173229 0.950117,-0.151929 1.149385,0.04731 0.199268,0.199273 -0.154917,0.341001 -0.787079,0.314963 -0.698591,-0.02878 -0.840689,-0.170872 -0.362306,-0.362302 z m 44.133063,-0.879969 c -0.278329,-0.450347 -0.165547,-0.531681 0.320612,-0.231218 0.518495,0.320444 0.680576,0.117669 0.525121,-0.656942 -0.128139,-0.638527 0.339131,-1.571843 1.086379,-2.169897 1.587896,-1.270857 1.80116,-1.289471 2.221577,-0.193876 0.434155,1.131396 -3.540889,4.243466 -4.153689,3.251933 z M 61.867069,74.812778 c 0.41228,-0.166357 1.086919,-0.166357 1.499198,0 0.412279,0.166356 0.07496,0.302472 -0.749599,0.302472 -0.824558,0 -1.161878,-0.136116 -0.749599,-0.302472 z m -20.595981,-2.151481 -1.142382,-1.349277 1.349278,1.142382 c 1.267988,1.073557 1.622276,1.556173 1.142381,1.556173 -0.113793,0 -0.720968,-0.607175 -1.349277,-1.349278 z m 32.388165,0.01499 c -0.242354,-0.420531 -0.226631,-0.571368 0.03496,-0.335184 0.509841,0.460349 2.715089,-2.006568 2.715089,-3.037254 0,-1.054878 1.028503,-1.319006 1.750163,-0.44946 0.544964,0.656649 0.196892,1.215352 -1.686423,2.706969 -1.753756,1.389001 -2.488123,1.679989 -2.813772,1.114929 z m -9.389732,-0.863172 c 0.414337,-0.16704 0.575032,-0.592213 0.357103,-0.94483 -0.236165,-0.382121 -0.112596,-0.465819 0.305884,-0.207183 0.82559,0.510243 0.32986,1.571483 -0.702116,1.503071 -0.51119,-0.03388 -0.500066,-0.133674 0.03916,-0.351058 z M 48.224373,71.01218 c -0.540486,-0.349289 -0.614451,-0.584981 -0.185311,-0.590498 0.392814,-0.0048 0.880987,0.260675 1.084829,0.590498 0.460137,0.744519 0.252539,0.744519 -0.899518,0 z m -4.274245,-1.049438 c -0.745924,-0.951127 -0.724713,-0.972338 0.226411,-0.226415 0.577191,0.452668 1.049439,0.924915 1.049439,1.049438 0,0.49356 -0.492448,0.175892 -1.27585,-0.823023 z m 28.035775,-0.426906 c 0.194673,-0.507304 0.03929,-0.922372 -0.345284,-0.922372 -0.384574,0 -0.539735,-0.258072 -0.344791,-0.573491 0.194938,-0.315419 0.707339,-0.438065 1.13867,-0.272548 0.431332,0.165517 1.130371,-0.116122 1.553421,-0.625867 0.423049,-0.509745 1.005997,-0.92681 1.295432,-0.92681 1.105347,0 0.446084,1.118156 -1.562571,2.650233 -1.310886,0.999863 -1.957004,1.249707 -1.734877,0.670855 z M 21.162326,68.163705 c -0.745923,-0.951127 -0.724712,-0.972338 0.226412,-0.226415 0.577191,0.452668 1.049438,0.924915 1.049438,1.049438 0,0.49356 -0.492448,0.175892 -1.27585,-0.823023 z m 17.467183,-0.678819 c 0,-0.329823 0.269855,-0.766455 0.599679,-0.970298 0.329823,-0.203843 0.599679,-0.100764 0.599679,0.229059 0,0.329824 -0.269856,0.766456 -0.599679,0.970299 -0.329824,0.203843 -0.599679,0.100764 -0.599679,-0.22906 z M 17.340905,64.415711 c 0.203842,-0.329823 0.489624,-0.599679 0.63507,-0.599679 0.145447,0 0.264448,0.269856 0.264448,0.599679 0,0.329824 -0.285781,0.599679 -0.63507,0.599679 -0.349288,0 -0.46829,-0.269855 -0.264448,-0.599679 z m 55.946571,-1.416963 c 0.140049,-1.19961 0.526422,-2.181111 0.858608,-2.181111 0.332192,0 0.471102,-0.6951 0.308697,-1.544667 -0.369612,-1.9335 0.542254,-1.093681 1.026057,0.944988 0.250546,1.055756 -0.05889,2.011306 -1.04611,3.230549 L 73.03284,65.179858 Z M 35.518674,59.20863 c 0.432893,-0.17323 0.950117,-0.151925 1.149385,0.04734 0.199268,0.199268 -0.154917,0.341002 -0.787079,0.314963 -0.698591,-0.02877 -0.84069,-0.170873 -0.362306,-0.362306 z m 0.159783,-2.338879 c 0.02877,-0.698592 0.170873,-0.84069 0.362306,-0.362306 0.17323,0.432893 0.151925,0.950116 -0.04734,1.149385 -0.199268,0.199268 -0.341002,-0.154918 -0.314963,-0.787079 z m 7.795827,0 c 0.02877,-0.698592 0.170873,-0.84069 0.362306,-0.362306 0.17323,0.432893 0.151925,0.950116 -0.04734,1.149385 -0.199268,0.199268 -0.341002,-0.154918 -0.314963,-0.787079 z M 27.88263,55.670393 c 0.02877,-0.698592 0.170873,-0.84069 0.362306,-0.362306 0.17323,0.432893 0.151925,0.950116 -0.04734,1.149385 -0.199269,0.199268 -0.341002,-0.154918 -0.314964,-0.787079 z M 12.890656,55.070714 c 0.02877,-0.698592 0.170873,-0.84069 0.362306,-0.362306 0.17323,0.432893 0.151925,0.950116 -0.04734,1.149385 -0.199268,0.199268 -0.341002,-0.154918 -0.314963,-0.787079 z m 6.088574,-0.849545 c 0,-1.154382 0.123411,-1.62663 0.274247,-1.049439 0.150835,0.577191 0.150835,1.521686 0,2.098877 -0.150836,0.577191 -0.274247,0.104944 -0.274247,-1.049438 z M 33.403915,53.32165 c 0.0045,-1.649117 0.120963,-2.252582 0.258801,-1.341032 0.137839,0.911549 0.134156,2.260827 -0.0082,2.998395 -0.142341,0.737567 -0.255118,-0.0082 -0.250616,-1.657363 z m -28.2052,0 c 0.00666,-1.319294 0.1294612,-1.788394 0.2729004,-1.042446 0.1434391,0.745948 0.1379933,1.82537 -0.012102,2.398715 C 5.3094182,55.251265 5.1920589,54.640944 5.198715,53.32165 Z m 20.332543,-0.299839 c 0,-0.824559 0.136111,-1.161878 0.302469,-0.749599 0.166358,0.412279 0.166358,1.086918 0,1.499197 -0.166358,0.41228 -0.302469,0.07496 -0.302469,-0.749598 z M 12.960219,52.122292 c 0.01222,-0.98947 0.146621,-1.321654 0.298666,-0.738186 0.152044,0.583468 0.142045,1.393035 -0.02222,1.799037 -0.164269,0.406002 -0.288669,-0.07138 -0.276448,-1.060851 z M 39.276531,51.47264 c 0.02877,-0.698592 0.170873,-0.84069 0.362306,-0.362306 0.17323,0.432893 0.151925,0.950116 -0.04734,1.149385 -0.199268,0.199268 -0.341002,-0.154918 -0.314963,-0.787079 z m 1.799037,0 c 0.02877,-0.698592 0.170873,-0.84069 0.362306,-0.362306 0.17323,0.432893 0.151925,0.950116 -0.04734,1.149385 -0.199268,0.199268 -0.341002,-0.154918 -0.314963,-0.787079 z M 27.952194,49.723576 c 0.01222,-0.98947 0.14662,-1.321654 0.298665,-0.738185 0.152045,0.583467 0.142046,1.393034 -0.02222,1.799037 -0.164268,0.406001 -0.288668,-0.07138 -0.276447,-1.060852 z M 1.4967551,49.673603 C 1.52553,48.975011 1.6676278,48.832913 1.8590611,49.311297 2.0322908,49.74419 2.0109864,50.261413 1.811718,50.460682 1.6124497,50.65995 1.4707164,50.305764 1.4967551,49.673603 Z m 6.044133,-0.249866 c 0,-0.824559 0.136111,-1.161878 0.3024697,-0.749599 0.1663582,0.412279 0.1663582,1.086918 0,1.499197 -0.1663587,0.41228 -0.3024697,0.07496 -0.3024697,-0.749598 z m 7.7958269,0 c 0,-0.824559 0.136111,-1.161878 0.30247,-0.749599 0.166358,0.412279 0.166358,1.086918 0,1.499197 -0.166359,0.41228 -0.30247,0.07496 -0.30247,-0.749598 z M 3.9428141,47.025021 c 0,-0.824559 0.1361113,-1.161878 0.3024696,-0.749599 0.1663584,0.412279 0.1663584,1.086918 0,1.499198 -0.1663583,0.412279 -0.3024696,0.07496 -0.3024696,-0.749599 z M 18.990768,46.336136 c -0.518726,-0.518727 -0.470486,-1.111221 0.195304,-2.398716 0.486303,-0.940407 1.154043,-1.709831 1.483867,-1.709831 0.329823,0 0.181036,0.809567 -0.330639,1.799037 -0.529784,1.024488 -0.665505,1.799037 -0.315239,1.799037 0.338293,0 0.615078,0.269855 0.615078,0.599679 0,0.802542 -0.799911,0.759253 -1.648371,-0.08921 z m 15.779383,-0.33469 c -0.325437,-0.854662 -0.256556,-0.923543 0.335697,-0.335698 0.409831,0.406783 0.594085,0.890668 0.409451,1.075301 -0.184633,0.184634 -0.51995,-0.148187 -0.745148,-0.739603 z m 8.659281,0.127058 c -0.600351,-0.723379 -0.547372,-1.196672 0.274328,-2.450746 1.163742,-1.776095 1.949947,-1.570862 0.973275,0.254065 -0.355362,0.664003 -0.483283,1.631609 -0.284266,2.150237 0.456868,1.19058 0.0043,1.212398 -0.963337,0.04645 z M 32.371435,45.64988 c 0.225198,-0.591416 0.560515,-0.924238 0.745148,-0.739604 0.184634,0.184634 3.8e-4,0.668519 -0.409451,1.075301 -0.592253,0.587846 -0.661134,0.518964 -0.335697,-0.335697 z M 15.403321,44.832619 c -0.544622,-0.220349 -0.417523,-0.927309 0.484639,-2.695693 0.983147,-1.927129 1.386079,-2.261557 2.055466,-1.706015 0.706884,0.586661 0.684847,1.000841 -0.145948,2.743035 -1.000183,2.097405 -1.114322,2.176481 -2.394157,1.658673 z m 24.612371,-2.427733 c 1.342367,-2.762996 1.874805,-3.120052 2.443327,-1.638508 0.544752,1.419599 -1.229122,4.400259 -2.559095,4.300075 -1.098529,-0.08275 -1.094734,-0.16999 0.115768,-2.661567 z m -15.1788,0.619857 c 0,-1.23581 2.302455,-3.795549 3.414051,-3.795549 0.351008,0 0.950125,-0.742103 1.331372,-1.649117 0.381247,-0.907015 1.194455,-2.305618 1.80713,-3.108007 l 1.113954,-1.458889 -0.141264,1.758729 c -0.07769,0.9673 -0.601248,2.79299 -1.163453,4.057087 -0.870294,1.956822 -1.158378,2.185333 -1.938658,1.537758 -0.746494,-0.619535 -1.018042,-0.600922 -1.464142,0.100358 -0.301221,0.473526 -0.401319,1.257516 -0.22244,1.742197 0.178879,0.484682 0.13048,0.686485 -0.107555,0.448451 -0.238033,-0.238034 -0.926935,0.01441 -1.530891,0.560981 -1.029235,0.931444 -1.098104,0.919277 -1.098104,-0.193999 z M 11.784667,41.77783 c 1.34874,-3.11221 2.405404,-4.440145 3.0334,-3.812148 0.792268,0.792268 -0.580339,4.115318 -2.017577,4.884504 -1.641163,0.878324 -1.792126,0.718959 -1.015823,-1.072356 z m 20.934448,0.365256 c -0.613403,-0.982215 -0.467102,-1.654712 0.910698,-4.186185 1.44081,-2.647244 1.697345,-2.865025 2.098248,-1.781281 0.302488,0.817704 -0.0051,2.231511 -0.910697,4.186187 -1.258766,2.716917 -1.425524,2.858483 -2.098249,1.781279 z m 16.717419,0.239504 c 0.007,-0.579986 1.153929,-1.844227 2.548636,-2.809425 2.347481,-1.624559 2.435614,-1.643959 1.186554,-0.261189 -0.742103,0.821544 -1.349278,1.748729 -1.349278,2.060413 0,0.311684 -0.539711,0.903754 -1.199358,1.31571 -1.029156,0.642718 -1.19754,0.599363 -1.186554,-0.305509 z m -13.659217,-0.0051 c 1.970152,-4.083655 2.549649,-4.847606 3.241569,-4.273363 1.076748,0.893622 -0.816364,4.723122 -2.334873,4.723122 -0.618025,0 -1.026038,-0.202392 -0.906696,-0.449759 z M 8.2071735,41.834224 c -0.886413,-0.358634 0.9242756,-4.276023 2.6085465,-5.643542 0.663749,-0.538921 0.890523,-0.579868 0.608117,-0.109803 -0.247689,0.41228 -0.16807,0.749599 0.176932,0.749599 0.345002,0 0.0373,1.21435 -0.683783,2.698556 -0.721082,1.484205 -1.459678,2.677251 -1.6413231,2.651212 C 9.0940177,42.154208 8.6131975,41.998497 8.2071735,41.834224 Z M 75.05001,41.553497 c 0.406787,-0.409831 0.890668,-0.594085 1.075303,-0.409451 0.184635,0.184633 -0.148187,0.51995 -0.739602,0.745148 -0.854663,0.325437 -0.923542,0.256556 -0.335701,-0.335697 z M 4.6243922,40.639963 c -0.8096517,-0.328796 2.055825,-6.80788 3.0108926,-6.80788 0.2964027,0 0.3835841,0.404784 0.1937365,0.899519 -0.1898482,0.494735 -0.128528,0.899518 0.1362656,0.899518 0.2647943,0 -0.080994,1.214138 -0.7684192,2.698085 -0.6874248,1.483947 -1.3847911,2.676992 -1.5497028,2.651212 -0.1649117,-0.02578 -0.6251594,-0.178983 -1.0227727,-0.340454 z m 72.0277568,-2.760047 -1.142383,-1.349277 1.349278,1.142381 c 1.267985,1.073556 1.622275,1.556174 1.142382,1.556174 -0.113795,0 -0.72097,-0.607175 -1.349277,-1.349278 z m -8.63837,-1.049438 c -0.768729,-0.49679 -0.74693,-0.582649 0.14992,-0.590496 0.577191,-0.005 1.049438,0.260673 1.049438,0.590496 0,0.731375 -0.06764,0.731375 -1.199358,0 z M 56.205468,34.771943 c -0.573783,-0.65356 -0.428636,-0.868156 0.738045,-1.09118 0.798762,-0.152694 1.937367,0.06213 2.530234,0.477393 0.592867,0.41526 1.744952,0.879807 2.560189,1.032325 0.81524,0.15252 -0.0018,0.303793 -1.815984,0.336164 -2.091161,0.03732 -3.559632,-0.238887 -4.012484,-0.754702 z m 27.794505,-0.0098 c -0.222433,-0.579653 -0.04528,-0.758394 0.532071,-0.536843 0.476044,0.182676 0.716233,0.573716 0.533751,0.868979 -0.459612,0.743664 -0.679269,0.675213 -1.065822,-0.332136 z m -3.46943,-1.379821 c -0.745923,-0.951122 -0.724713,-0.972333 0.226414,-0.22641 0.998916,0.783402 1.316584,1.27585 0.823024,1.27585 -0.124524,0 -0.596771,-0.472247 -1.049438,-1.049438 z M 68.013779,32.632725 c -0.540485,-0.349289 -0.614449,-0.584978 -0.185313,-0.590496 0.392814,-0.005 0.880989,0.260673 1.084831,0.590496 0.460134,0.744517 0.252537,0.744517 -0.899518,0 z M 32.03304,31.52631 c 0,-0.380942 -0.472247,-0.709727 -1.049438,-0.730633 -0.750004,-0.02717 -0.632345,-0.204634 0.412362,-0.62198 2.360452,-0.942966 3.400684,-0.449352 1.902654,0.902854 -0.697333,0.629451 -1.265578,0.831393 -1.265578,0.449759 z m 24.586838,-0.176101 c 0,-0.284086 -0.607175,-0.54407 -1.349277,-0.577741 -1.066226,-0.04838 -0.933618,-0.194329 0.632126,-0.695734 1.591111,-0.509529 2.161887,-0.454031 2.897665,0.281747 0.821897,0.821897 0.756794,0.946746 -0.632126,1.212255 -0.851613,0.162796 -1.548388,0.06356 -1.548388,-0.220527 z M 87.72669,29.78425 c -0.745922,-0.951124 -0.724712,-0.972335 0.226415,-0.226412 0.998915,0.783402 1.316583,1.27585 0.823024,1.27585 -0.124524,0 -0.596771,-0.472247 -1.049439,-1.049438 z M 59.505833,29.224681 c 0.432894,-0.17323 0.950117,-0.151925 1.149385,0.04734 0.199268,0.199268 -0.154917,0.341002 -0.787078,0.314963 -0.698592,-0.02877 -0.84069,-0.170873 -0.362307,-0.362306 z m 2.998395,0 c 0.432891,-0.17323 0.950114,-0.151925 1.149387,0.04734 0.199267,0.199268 -0.154921,0.341002 -0.787079,0.314963 -0.698596,-0.02877 -0.84069,-0.170873 -0.362308,-0.362306 z M 30.533843,27.26444 28.734806,26.835488 30.838782,26.396301 c 1.464163,-0.30563 2.649509,-0.154734 3.897914,0.496209 l 1.793936,0.935395 -2.098876,-0.06726 C 33.277374,27.72366 31.523313,27.500363 30.533843,27.26444 Z m 23.987159,0.02388 -1.799037,-0.405068 1.799037,-0.451977 c 0.98947,-0.248587 2.305078,-0.603001 2.923572,-0.787585 0.7138,-0.213027 0.978633,-0.09953 0.725073,0.310736 -0.235117,0.380428 0.289101,0.798517 1.274181,1.016219 0.920503,0.203431 1.943498,0.459894 2.273322,0.569917 1.141159,0.380669 -5.404152,0.151241 -7.196148,-0.252242 z m 18.290209,-0.952229 c -0.824559,-0.47136 -1.213457,-0.866581 -0.864216,-0.878269 0.349241,-0.01169 1.158808,0.374951 1.799037,0.859197 1.480596,1.119865 1.007689,1.129512 -0.934821,0.01907 z m 11.317405,-0.14992 c -0.745922,-0.951124 -0.724712,-0.972335 0.226415,-0.226412 0.577191,0.452664 1.049438,0.924912 1.049438,1.049439 0,0.493556 -0.49245,0.175887 -1.275853,-0.823027 z M 28.111803,23.84617 c -0.836589,-0.611729 -0.598573,-0.797104 1.620212,-1.261873 2.471818,-0.517771 4.100062,-0.09535 4.100062,1.063683 0,0.792113 -4.686002,0.954468 -5.720274,0.19819 z m 24.254604,0.02407 c -0.485381,-0.584848 -0.04466,-0.920601 1.89345,-1.44248 2.10823,-0.567687 2.678754,-0.527532 3.449038,0.242753 0.783635,0.783634 0.793732,0.964822 0.06689,1.200308 -2.167915,0.702374 -4.826214,0.702088 -5.409377,-5.81e-4 z m -12.64998,-0.04267 c 0.432893,-0.173229 0.950116,-0.151925 1.149385,0.04734 0.199268,0.199269 -0.154918,0.341002 -0.787079,0.314963 -0.698592,-0.02877 -0.84069,-0.170873 -0.362306,-0.362306 z m -3.628562,-2.413196 c 0.745948,-0.143439 1.82537,-0.137993 2.398716,0.0121 0.573346,0.150095 -0.03698,0.267455 -1.35627,0.260799 -1.319293,-0.0067 -1.788394,-0.129462 -1.042446,-0.272901 z m 24.280007,0.01075 c 0.577191,-0.150835 1.521685,-0.150835 2.098876,0 0.577191,0.150836 0.104944,0.274247 -1.049438,0.274247 -1.154382,0 -1.626629,-0.123411 -1.049438,-0.274247 z m -33.62884,-1.309251 c -0.533805,-0.338416 0.379451,-0.801104 2.769629,-1.403191 3.358586,-0.84603 3.549962,-0.836791 3.289608,0.158803 -0.409712,1.566741 -4.292848,2.364222 -6.059237,1.244388 z m 24.201193,-0.04842 c -0.194329,-0.314431 0.801703,-0.867465 2.213404,-1.228965 1.411702,-0.3615 2.890307,-0.765134 3.285789,-0.896965 0.858492,-0.286171 0.297867,1.572302 -0.675316,2.238681 -0.933475,0.639188 -4.409365,0.557945 -4.823877,-0.112751 z"
         id="path5199" />
      <path
         style="fill:#b9b9b9;fill-opacity:1;stroke-width:0.599679"
         d="m 17.041066,93.570082 c 0,-0.126442 0.540083,-0.371129 1.200185,-0.543753 0.660102,-0.172617 1.048959,-0.06917 0.864127,0.229899 -0.322778,0.522267 -2.064312,0.787043 -2.064312,0.313854 z m 29.040653,-7.253213 c -0.635569,-0.480834 -0.885725,-0.878697 -0.555902,-0.884137 0.891088,-0.01469 2.414146,1.055723 2.037733,1.432136 -0.179437,0.179442 -0.846261,-0.06716 -1.481831,-0.547999 z m 24.372052,0.03688 c -0.488511,-0.58862 -0.06776,-0.99248 1.797208,-1.72506 1.339275,-0.526086 2.79842,-0.817075 3.242548,-0.646646 1.070697,0.410864 4.652028,-1.466863 4.198209,-2.201164 -0.19516,-0.315791 -0.08498,-0.574156 0.244842,-0.574156 1.648086,0 1.019335,1.29578 -1.283636,2.645412 -4.12145,2.415333 -7.432386,3.42551 -8.199171,2.501596 z M 57.706796,84.39515 c 0.432894,-0.173229 0.950117,-0.151929 1.149385,0.04731 0.199268,0.199267 -0.154917,0.341001 -0.787078,0.314963 -0.698592,-0.02878 -0.84069,-0.170873 -0.362307,-0.362302 z m 4.310193,-0.190032 c -1.205193,-0.385972 -1.263994,-0.483581 -0.299839,-0.497752 0.659647,-0.0097 1.739069,0.214289 2.398716,0.497752 1.528114,0.656654 -0.04845,0.656654 -2.098877,0 z M 37.317711,83.795471 c 0.432893,-0.173229 0.950116,-0.151929 1.149385,0.04731 0.199268,0.199267 -0.154917,0.341001 -0.787079,0.314963 -0.698592,-0.02878 -0.84069,-0.170873 -0.362306,-0.362302 z M 69.184826,82.67181 c -0.561989,-0.677157 -0.420063,-0.950982 0.712731,-1.375075 3.202651,-1.199005 4.113012,-1.357194 4.113012,-0.714704 0,0.413485 0.662585,0.312853 1.794659,-0.27256 0.98706,-0.510435 1.729162,-1.165014 1.649117,-1.454629 -0.200173,-0.724233 0.976769,-0.877648 1.216461,-0.158573 0.208814,0.626436 -3.974546,3.144404 -6.943869,4.179516 -1.446785,0.504348 -1.990454,0.460728 -2.542111,-0.203975 z m -3.865357,-2.657579 c -0.210091,-0.339934 0.03064,-0.440464 0.564286,-0.23568 1.038896,0.398661 1.228976,0.828493 0.36638,0.828493 -0.310358,0 -0.729162,-0.266767 -0.930666,-0.592813 z M 36.290227,78.571433 c -0.742209,-0.790047 -1.089529,-1.596291 -0.77216,-1.792434 0.317257,-0.196077 0.910305,0.04534 1.317885,0.536413 0.407579,0.491101 0.540041,0.892916 0.294359,0.892916 -0.245681,0 -0.110754,0.404783 0.29984,0.899518 1.195403,1.440375 0.338236,1.037013 -1.139924,-0.536413 z m 31.845737,0.460272 c -0.646886,-0.692491 -0.496037,-0.940662 0.899578,-1.479918 0.922234,-0.356347 2.492194,-0.716712 3.4888,-0.800805 0.996607,-0.0841 2.445911,-0.492163 3.220684,-0.906811 0.911093,-0.487599 1.262828,-0.517912 0.995779,-0.08582 -0.227092,0.367442 -1.483198,1.21411 -2.79135,1.881475 -4.089408,2.086265 -4.96828,2.296681 -5.813491,1.391879 z m -6.418814,-2.622414 -2.398716,-0.429484 2.098876,-0.07591 c 1.154382,-0.04174 2.50366,0.185673 2.998395,0.505398 0.981231,0.634118 0.843071,0.634118 -2.698555,0 z M 38.673817,75.563162 c -0.541031,-0.651905 -0.523473,-0.949286 0.07649,-1.295505 0.428295,-0.247151 0.578668,-0.228543 0.334162,0.04138 -0.244506,0.269898 -0.144,0.852876 0.223347,1.295499 0.367347,0.442629 0.532976,0.804775 0.368064,0.804775 -0.164912,0 -0.615841,-0.38076 -1.002065,-0.846129 z m 28.311656,-0.271325 c -0.06133,-0.814196 0.59568,-1.333854 2.421024,-1.914889 2.991871,-0.952362 5.252661,-1.130023 4.786752,-0.37616 -0.267169,0.432284 -6.351866,3.408503 -6.968474,3.408503 -0.08532,0 -0.193006,-0.502855 -0.239302,-1.117454 z M 35.554622,74.760174 c -0.745923,-0.951127 -0.724713,-0.972338 0.226412,-0.226415 0.577191,0.452668 1.049438,0.924915 1.049438,1.049438 0,0.49356 -0.492448,0.175892 -1.27585,-0.823023 z m 23.913731,0.0526 c 0.41228,-0.166357 1.086919,-0.166357 1.499198,0 0.412279,0.166356 0.07496,0.302472 -0.749599,0.302472 -0.824558,0 -1.161878,-0.136116 -0.749599,-0.302472 z m -19.996302,-1.551802 -1.142382,-1.349277 1.349278,1.142382 c 1.267988,1.073557 1.622276,1.556173 1.142381,1.556173 -0.113793,0 -0.720968,-0.607175 -1.349277,-1.349278 z m 20.602973,-0.274209 c 0.745949,-0.143437 1.82537,-0.137992 2.398717,0.01211 0.573347,0.150093 -0.037,0.267456 -1.35627,0.2608 -1.319294,-0.0067 -1.788395,-0.129465 -1.042447,-0.272902 z M 47.224907,71.938078 c 0,-0.480229 0.229282,-0.731434 0.509515,-0.558241 0.280233,0.173194 0.354259,0.566103 0.164502,0.873139 -0.484916,0.784608 -0.674017,0.696263 -0.674017,-0.314898 z m 18.665505,0.313087 c 0.189144,-0.30604 0.03598,-0.746726 -0.340324,-0.9793 -0.6507,-0.402157 2.224131,-1.742817 5.312166,-2.477298 1.965346,-0.46745 1.664823,0.824283 -0.445687,1.915669 -2.788268,1.441868 -4.911731,2.164799 -4.526155,1.540929 z M 22.961363,69.962742 c -0.745923,-0.951127 -0.724712,-0.972338 0.226412,-0.226415 0.577191,0.452668 1.049438,0.924915 1.049438,1.049438 0,0.49356 -0.492448,0.175892 -1.27585,-0.823023 z M 18.76361,68.763384 c -0.745923,-0.951127 -0.724712,-0.972338 0.226412,-0.226415 0.998914,0.783403 1.316583,1.275853 0.823027,1.275853 -0.124527,0 -0.596775,-0.472247 -1.049439,-1.049438 z m 30.38589,0.491197 c -0.189757,-0.307036 -0.115731,-0.699945 0.164502,-0.873139 0.280233,-0.173193 0.509515,0.07801 0.509515,0.558241 0,1.011161 -0.189101,1.099506 -0.674017,0.314898 z M 22.392789,67.017568 c -0.799596,-0.877744 -1.049027,-1.354123 -0.554292,-1.058619 0.494736,0.295498 1.143649,0.541408 1.442031,0.546458 0.298382,0.0048 0.611823,0.481428 0.696537,1.058619 0.200033,1.362914 0.134514,1.340312 -1.584276,-0.546458 z M 4.9350461,65.205423 c 0.4328932,-0.17323 0.9501164,-0.151929 1.1493847,0.04731 0.1992683,0.199274 -0.1549171,0.341002 -0.7870786,0.314964 C 4.5987603,65.538916 4.4566625,65.396828 4.9350461,65.205399 Z M 23.037855,64.979997 c 0,-0.349289 0.269856,-0.468289 0.599679,-0.264446 0.329824,0.203843 0.599679,0.489626 0.599679,0.635072 0,0.145446 -0.269855,0.264446 -0.599679,0.264446 -0.329823,0 -0.599679,-0.285783 -0.599679,-0.635072 z m 5.758721,0.135342 c -0.169868,-0.274857 0.07219,-0.499737 0.537909,-0.499737 0.465718,0 0.707777,0.22488 0.537908,0.499737 -0.169868,0.274851 -0.411927,0.49973 -0.537908,0.49973 -0.125982,0 -0.368041,-0.224879 -0.537909,-0.49973 z M 31.733201,59.0186 c 0.203842,-0.329823 0.489623,-0.599679 0.63507,-0.599679 0.145447,0 0.264448,0.269856 0.264448,0.599679 0,0.329824 -0.285782,0.599679 -0.63507,0.599679 -0.349289,0 -0.468291,-0.269855 -0.264448,-0.599679 z m 2.117242,-0.299839 c 0,-0.329824 0.261591,-1.004462 0.581313,-1.499198 0.319722,-0.494735 0.581313,-0.629662 0.581313,-0.299839 0,0.329823 -0.261591,1.004462 -0.581313,1.499197 -0.319722,0.494736 -0.581313,0.629663 -0.581313,0.29984 z M 1.5663186,55.720366 c 0.012221,-0.98947 0.1466207,-1.321654 0.2986654,-0.738186 0.1520446,0.583468 0.1420454,1.393035 -0.02222,1.799037 -0.1642659,0.406002 -0.2886661,-0.07138 -0.2764454,-1.060851 z m 7.6789202,0.93491 c 0,-0.310359 0.2667648,-0.729158 0.5928102,-0.930665 0.339934,-0.210091 0.440468,0.03062 0.23568,0.564288 -0.3986607,1.038894 -0.8284902,1.228974 -0.8284902,0.366377 z m 8.1226562,-0.78499 c 0.224208,-0.742103 0.654509,-1.612974 0.956224,-1.935269 0.301716,-0.322294 0.244987,0.284881 -0.126063,1.349278 -0.759412,2.178447 -1.46088,2.673597 -0.830161,0.585991 z m 12.361115,0.14992 c 0,-0.824559 0.136111,-1.161879 0.30247,-0.749599 0.166358,0.412279 0.166358,1.086918 0,1.499197 -0.166359,0.41228 -0.30247,0.07496 -0.30247,-0.749598 z m 9.639305,-1.799037 c 0,-1.154382 0.123411,-1.62663 0.274247,-1.049439 0.150836,0.577191 0.150836,1.521686 0,2.098877 -0.150836,0.577191 -0.274247,0.104944 -0.274247,-1.049438 z m -28.218144,0.06611 c -0.05824,-0.788198 -0.521394,-1.736908 -1.029226,-2.108244 -0.7893297,-0.577171 -0.8227522,-1.152467 -0.2302963,-3.964023 0.3811693,-1.808877 0.9486293,-3.693651 1.2610223,-4.188386 0.397126,-0.628927 0.455943,-0.375447 0.195521,0.842635 -0.204857,0.958184 -0.154427,1.902678 0.112068,2.098876 0.266493,0.196198 0.329795,2.245712 0.14067,4.554476 -0.189125,2.308764 -0.391516,3.552864 -0.449759,2.764666 z m 29.959719,0.193946 c -0.107872,-0.844666 1.150108,-7.621404 1.528667,-8.234922 0.162514,-0.263383 0.661613,-0.175016 1.109108,0.196371 0.593177,0.492294 0.659952,1.079444 0.246451,2.167035 -0.311947,0.820481 -0.567175,2.418711 -0.567175,3.551622 0,1.132911 -0.285782,2.059838 -0.635071,2.059838 -0.349288,0 -0.479814,-0.25121 -0.290057,-0.558243 0.189757,-0.307033 0.09005,-0.715819 -0.221575,-0.908412 -0.311622,-0.192594 -0.684058,0.261007 -0.827634,1.008001 -0.143577,0.746995 -0.297798,1.070414 -0.342714,0.71871 z m -9.575721,-0.979857 c -0.05545,-0.560802 -0.549903,-1.270966 -1.098797,-1.578143 -0.925846,-0.51813 -0.915009,-0.892239 0.14992,-5.175331 1.126361,-4.530166 2.175072,-6.023382 2.522974,-3.592357 0.09664,0.675283 -0.375608,1.86346 -1.049438,2.640393 -1.325236,1.528009 -1.615599,3.397709 -0.581209,3.742506 0.37216,0.124053 0.541255,1.220809 0.400648,2.598609 -0.13381,1.311179 -0.288654,1.925125 -0.344098,1.364323 z M 3.3383001,52.807732 C 3.279439,52.07822 2.9367025,51.813763 2.3445868,52.040979 c -0.749485,0.287605 -0.8421801,-0.08552 -0.5427197,-2.184637 0.5473809,-3.836947 2.1423434,-9.42779 2.6895715,-9.42779 1.4707652,0 0.8431148,3.996354 -0.9016806,5.741149 -1.0757679,1.075768 -1.2626611,3.646544 -0.2887025,3.971197 0.3587884,0.119596 0.5341305,1.019019 0.3896907,1.99893 -0.1444272,0.979826 -0.303028,1.280382 -0.3524461,0.667904 z M 17.342876,52.425321 c -0.224278,-0.362889 -0.08118,-2.021197 0.317988,-3.685128 0.594689,-2.478947 0.862979,-2.879945 1.485518,-2.220332 0.511724,0.542199 0.634687,1.670036 0.376656,3.454743 -0.377481,2.61091 -1.38276,3.740941 -2.180162,2.450717 z m 17.2388,-0.09122 c -0.41228,-0.413336 -0.749599,-1.323208 -0.749599,-2.021939 0,-1.615528 1.78911,-7.694715 2.156452,-7.327372 0.151701,0.151701 -0.01204,1.032959 -0.363877,1.958351 -0.457204,1.202537 -0.453435,1.797648 0.01321,2.086051 0.434892,0.268778 0.492712,1.347319 0.173159,3.229974 -0.384042,2.262599 -0.629287,2.676532 -1.229347,2.074935 z M 6.3967636,51.979055 C 5.4022926,51.638699 5.4513583,49.827793 6.57158,45.526972 c 1.0504051,-4.032777 1.2503273,-4.362907 2.1171699,-3.496065 0.8036687,0.803669 0.063017,3.794756 -0.9396556,3.794756 -0.8845032,0 -1.5678842,3.47625 -0.7377767,3.752952 0.3038514,0.101284 0.4585392,0.74054 0.3437509,1.42057 -0.1147884,0.68003 -0.5460256,1.120971 -0.9583049,0.97987 z m 7.1360794,-0.986546 c -0.123529,-2.3777 1.165833,-6.447313 1.959021,-6.183259 1.141302,0.379942 1.054866,2.070774 -0.16413,3.210669 -0.649323,0.607188 -1.29859,1.913545 -1.442814,2.903015 l -0.262226,1.799037 z m 13.176882,0.62024 c -0.940019,-1.13404 -0.62146,-4.307674 0.899536,-8.961607 0.718262,-2.197732 1.118088,-2.726468 1.697872,-2.24529 0.936172,0.776954 -0.115645,5.419811 -1.227832,5.419811 -0.880655,0 -1.504573,3.761243 -0.708247,4.26961 0.320233,0.204434 0.488226,0.853633 0.373318,1.442664 -0.19374,0.993127 -0.268938,0.998564 -1.034647,0.07481 z m 11.077023,-2.039093 c 0.65289,-3.5728 1.323425,-4.95538 2.233859,-4.606013 1.067356,0.409582 0.576483,3.256736 -0.561488,3.256736 -0.522003,0 -0.82961,0.667056 -0.82961,1.799037 0,0.98947 -0.282084,1.799037 -0.626852,1.799037 -0.397634,0 -0.476584,-0.82231 -0.215909,-2.248797 z m 40.160288,-2.372853 c -0.325434,-0.854661 -0.256555,-0.923542 0.3357,-0.335697 0.409832,0.406783 0.594084,0.890668 0.409449,1.075301 -0.184636,0.184634 -0.519952,-0.148188 -0.745149,-0.739604 z m 2.060323,-4.599947 c 0,-0.124527 0.472247,-0.596774 1.049438,-1.049438 0.951127,-0.745923 0.972337,-0.724713 0.226415,0.226412 -0.783403,0.998914 -1.275853,1.316582 -1.275853,0.823026 z m 6.300875,-4.564151 c -0.210092,-0.339934 0.03064,-0.440469 0.564286,-0.235681 1.038895,0.398662 1.228976,0.828491 0.366379,0.828491 -0.310357,0 -0.729161,-0.266765 -0.930665,-0.59281 z M 62.033936,35.190481 c -0.815237,-0.152518 -2.022168,-0.65548 -2.682068,-1.117692 -1.137125,-0.796473 -1.100692,-0.840385 0.697261,-0.840385 1.043393,0 2.075544,0.288767 2.293672,0.641704 0.218127,0.352936 0.976157,0.875542 1.68451,1.161346 1.361031,0.549145 0.479641,0.617692 -1.993375,0.155027 z m 16.69757,-0.608799 c -0.745923,-0.951125 -0.724712,-0.972335 0.226414,-0.226412 0.998916,0.783402 1.316584,1.27585 0.823024,1.27585 -0.124524,0 -0.596771,-0.472247 -1.049438,-1.049438 z m 3.0295,-2.398716 -1.453808,-1.649117 1.649117,1.45381 c 0.907015,0.799596 1.649117,1.541698 1.649117,1.649117 0,0.470313 -0.48562,0.08754 -1.844426,-1.45381 z M 59.078723,30.6063 c -1.163135,-1.401492 2.224704,-1.685532 3.60776,-0.302478 1.10627,1.106274 1.087817,1.129545 -0.895909,1.129545 -1.113994,0 -2.334328,-0.37218 -2.711851,-0.827067 z m 24.450214,-2.021408 c -0.745922,-0.951124 -0.724712,-0.972335 0.226415,-0.226412 0.998915,0.783402 1.316583,1.27585 0.823024,1.27585 -0.124524,0 -0.596771,-0.472247 -1.049439,-1.049438 z m 2.42933,0.899519 c -0.02525,-0.08246 -0.138496,-0.637227 -0.251691,-1.232825 -0.165404,-0.870329 -0.04,-0.945279 0.638958,-0.381812 0.464625,0.385602 0.696887,0.940373 0.516137,1.232825 -0.310429,0.502291 -0.802844,0.710401 -0.903404,0.381812 z M 61.71715,27.540566 c -0.329824,-0.110024 -1.352819,-0.366486 -2.273322,-0.569917 -0.920504,-0.203431 -1.511753,-0.631819 -1.313887,-0.951973 0.587751,-0.951 2.86127,-0.657815 4.786567,0.617259 1.468218,0.972362 1.578487,1.183476 0.599679,1.148064 -0.659647,-0.02387 -1.469214,-0.13341 -1.799037,-0.243433 z M 34.257159,26.861124 c -0.890988,-0.890988 -0.357661,-1.424547 1.423928,-1.424547 1.211083,0 1.763839,0.258619 1.602146,0.749599 -0.280017,0.850265 -2.381937,1.319085 -3.026074,0.674948 z m 3.172992,-3.869209 c 0,-0.3706 -0.88038,-0.569776 -2.066712,-0.467567 -1.136691,0.09793 -2.261089,-0.01632 -2.498662,-0.253893 -0.839975,-0.839975 4.282671,-0.380846 5.429589,0.486639 1.015049,0.767744 1.03424,0.880447 0.14992,0.880447 -0.557775,0 -1.014135,-0.290532 -1.014135,-0.645626 z m 24.251378,-0.01169 c -0.223441,-0.361526 -1.19574,-0.541448 -2.160674,-0.399826 -0.964934,0.141623 -1.893397,0.03263 -2.063252,-0.242199 -0.564694,-0.913694 4.387458,-0.529905 5.159065,0.399825 0.47076,0.567228 0.510957,0.899519 0.108818,0.899519 -0.35074,0 -0.820523,-0.295794 -1.043957,-0.657319 z M 37.130311,19.439788 c 0.224164,-0.362704 -0.605248,-0.599679 -2.098876,-0.599679 -1.493628,0 -2.32304,-0.236975 -2.098876,-0.599679 0.203842,-0.329824 2.17622,-0.559247 4.383063,-0.509828 2.206844,0.04942 3.25352,0.203893 2.325948,0.343278 -1.382722,0.20778 -1.558521,0.407624 -0.97601,1.109507 0.57859,0.697159 0.467635,0.85608 -0.597694,0.85608 -0.719497,0 -1.141397,-0.269856 -0.937555,-0.599679 z m 24.286999,0 c 0,-0.329824 -1.146886,-0.603812 -2.548636,-0.608862 -1.866473,-0.0067 -2.307872,-0.164776 -1.649117,-0.590496 0.494735,-0.319723 2.518652,-0.545013 4.497593,-0.500645 1.97894,0.04437 2.832062,0.195394 1.895825,0.335615 -1.594403,0.238795 -1.632392,0.307882 -0.599679,1.090435 1.047369,0.793657 1.035016,0.836443 -0.246708,0.85456 -0.742103,0.01049 -1.349278,-0.250784 -1.349278,-0.580607 z"
         id="path5197" />
      <path
         style="fill:#a3a3a3;fill-opacity:1;stroke-width:0.599679"
         d="M 16.293367,97.960182 C 9.0519994,96.211488 4.0824624,88.488577 5.6623087,81.438984 6.3474016,78.381965 9.2296345,73.782385 11.081056,72.791536 12.16091,72.213613 12.184564,72.066799 11.334749,71.216982 9.8320798,69.714319 7.6111213,64.925438 6.5908547,60.9881 5.4253988,56.490459 5.3204624,51.614699 6.3967636,51.969863 c 0.8986329,0.296536 1.681564,6.46234 0.9428933,7.425554 -0.645307,0.841469 0.4872727,4.02704 1.2616052,3.548472 0.306695,-0.189546 0.7400057,0.266462 0.9629123,1.013356 0.2229067,0.746894 1.1118736,2.572335 1.9754816,4.05654 0.863607,1.484206 1.51945,2.873272 1.457427,3.086812 -0.06202,0.213539 0.417717,0.249532 1.066089,0.07998 0.648371,-0.169553 1.178857,-0.40768 1.178857,-0.529169 0,-0.121489 -0.782778,-1.506753 -1.739505,-3.078374 -2.228307,-3.66044 -3.467819,-7.403337 -3.9950888,-12.063791 -0.371437,-3.283064 -0.3072131,-3.666422 0.5585738,-3.334188 1.031635,0.395875 1.341454,2.350549 0.45901,2.895929 -0.6934471,0.428574 -0.128939,3.492466 0.782575,4.247457 1.084658,0.898404 3.960699,7.495987 3.267676,7.495987 -0.330224,0 -0.113865,0.823647 0.480798,1.830334 0.798722,1.352127 1.395114,1.745954 2.282699,1.507383 0.660823,-0.177618 1.589303,-0.326633 2.063289,-0.331136 0.578967,-0.0054 0.344087,-0.549402 -0.715694,-1.657303 -2.347002,-2.453569 -4.720823,-8.141788 -5.088107,-12.192265 -0.285138,-3.144546 -0.205453,-3.530926 0.659732,-3.198924 0.639495,0.245397 0.984042,1.076368 0.984042,2.373291 0,1.097623 0.280313,2.73296 0.622919,3.63408 0.352304,0.926632 0.393186,1.790276 0.0941,1.987996 -0.721677,0.477092 0.900448,4.244833 1.833332,4.258319 0.411334,0.006 1.640147,1.085365 2.730697,2.398716 1.654643,1.992686 1.803521,2.394603 0.899518,2.428376 -0.595815,0.02225 0.20837,0.387831 1.787076,0.81238 3.617223,0.972739 6.880999,3.58924 8.65004,6.934549 0.754976,1.42768 1.372683,2.283482 1.372683,1.90178 0,-0.381695 0.539711,-0.693996 1.199358,-0.693996 0.659647,0 1.199358,0.269855 1.199358,0.599679 0,0.329823 0.58675,0.599679 1.30389,0.599679 h 1.303891 l -1.399798,-1.490017 c -0.769889,-0.819509 -2.248851,-1.649297 -3.286583,-1.843976 -1.037732,-0.19468 -2.235149,-0.911782 -2.660926,-1.593563 -0.704306,-1.127775 -0.657601,-1.209121 0.517739,-0.901762 2.397373,0.626929 0.940691,-1.018225 -2.570489,-2.90307 -6.6139,-3.550418 -10.71457,-9.12865 -11.553094,-15.715938 -0.354825,-2.787435 -0.285147,-3.114798 0.59138,-2.778442 0.712616,0.273456 0.819067,0.59157 0.376431,1.124913 -0.826918,0.996377 -0.0778,4.51341 0.961351,4.51341 0.453507,0 0.824558,0.367126 0.824558,0.815836 0,0.448709 0.674639,1.80997 1.499198,3.025024 0.824558,1.215058 1.499197,2.727424 1.499197,3.360823 0,1.143072 1.872442,2.582518 3.598074,2.766026 0.494735,0.05259 1.352146,0.281447 1.905358,0.508515 0.863842,0.354573 0.791096,-0.20464 -0.515297,-3.961167 -0.91024,-2.617401 -1.643762,-6.309163 -1.826476,-9.192536 -0.280253,-4.4226 -0.22569,-4.742934 0.664068,-3.89872 0.725648,0.688503 1.024654,2.366235 1.189114,6.672134 0.219211,5.739416 0.605755,7.403495 1.57989,6.801447 0.283287,-0.175082 0.673254,0.180072 0.866593,0.789232 0.193339,0.609154 1.296806,2.67735 2.452149,4.595987 1.155343,1.918637 1.969052,3.619999 1.808243,3.780808 -0.547571,0.547573 2.203509,3.803428 2.966397,3.510683 0.417774,-0.160318 2.146268,0.750444 3.841097,2.023917 1.694828,1.273466 3.616206,2.485105 4.269728,2.692522 0.653522,0.207423 1.188222,0.770408 1.188222,1.251081 0,1.00409 2.806145,2.245713 4.021452,1.779355 1.121006,-0.430168 9.771164,0.960722 9.771164,1.571141 0,0.833716 4.108287,0.543159 4.617714,-0.326591 0.644805,-1.100873 4.239575,-1.569162 5.001173,-0.651503 0.814112,0.980948 -0.866908,1.414822 -7.23307,1.86686 -5.639915,0.400466 -14.053512,-0.96679 -16.778112,-2.726542 -1.103113,-0.712473 -2.956821,-0.968296 -7.016357,-0.968296 -5.302131,0 -5.531148,0.05535 -5.876055,1.42004 -0.197393,0.781022 -0.210835,1.568101 -0.02987,1.749066 0.180962,0.180959 0.329023,0.01419 0.329023,-0.370602 0,-0.384796 0.539711,-0.699627 1.199358,-0.699627 0.659647,0 1.199358,0.269855 1.199358,0.599679 0,0.937867 4.619261,0.729593 4.985491,-0.22479 0.427699,-1.114563 3.647876,-1.522885 4.883666,-0.619253 0.853194,0.62387 0.554697,0.824091 -2.06677,1.38629 -1.685194,0.361415 -4.873821,0.657111 -7.085837,0.657111 -3.918164,0 -4.042996,0.04779 -4.842222,1.853355 -2.474173,5.589548 -9.795624,9.156775 -15.811754,7.703956 z m 6.941669,-4.978181 c 6.161472,-2.574422 7.66351,-10.652157 2.871765,-15.443904 -3.889849,-3.889848 -9.44419,-3.889848 -13.334039,0 -7.3957467,7.395751 0.793214,19.4839 10.462274,15.443904 z m -4.994613,-0.792158 c 0,-0.535045 -1.079422,-1.969328 -2.398715,-3.187294 -2.071533,-1.91243 -2.398716,-2.560521 -2.398716,-4.751442 0,-3.555089 2.46876,-6.042779 5.996789,-6.042779 6.701881,0 8.262268,8.533714 2.385613,13.046856 -2.259206,1.735021 -3.584971,2.08067 -3.584971,0.934659 z m 22.28883,-9.347028 c 0.696225,-1.126521 -1.451238,-2.19663 -4.44838,-2.216701 -2.40873,-0.01613 -2.848475,0.157421 -2.848475,1.124146 0,0.870638 0.304044,1.063704 1.275199,0.809746 0.840475,-0.219788 1.473562,0.02099 1.857066,0.706266 0.428186,0.765125 1.000514,0.934666 2.166948,0.641909 0.871795,-0.218811 1.770734,-0.698225 1.997642,-1.065366 z m 15.948733,1.369247 C 44.326231,82.052036 34.685296,73.734111 31.447746,62.616674 29.978663,57.571983 29.317086,51.822453 30.205695,51.822453 c 1.155802,0 1.94704,3.199936 1.582149,6.398552 -0.380363,3.334244 -0.03454,4.976147 1.058954,5.027605 0.669625,0.03154 4.272262,6.765153 4.294971,8.027669 0.02071,1.151569 1.978346,3.472171 2.60327,3.085942 0.336436,-0.207927 1.504888,0.392652 2.596561,1.334621 1.091672,0.94197 2.836784,2.205614 3.878026,2.808099 1.105314,0.639558 1.764904,1.429671 1.584959,1.898602 -0.183954,0.479377 0.14074,0.839676 0.805388,0.893707 9.466431,0.76955 12.207658,1.239225 12.207658,2.091639 0,1.045366 2.069846,1.059428 3.10816,0.02111 1.231597,-1.231602 4.467201,-1.692306 5.251161,-0.747691 0.52003,0.626598 0.365493,0.876694 -0.697294,1.128445 -2.871593,0.680222 -9.279573,0.905162 -12.001672,0.421299 z M 53.636022,79.683706 C 42.487932,76.558935 33.832077,65.473725 33.832077,54.321589 c 0,-2.283999 0.123061,-2.54386 0.899518,-1.899457 1.067822,0.886213 1.177733,2.206031 0.210559,2.528423 -0.806353,0.268784 -0.172887,4.667724 0.672173,4.667724 0.760211,0 3.620972,6.482452 3.267391,7.403871 -0.370586,0.965729 2.042844,4.12488 2.795726,3.659571 0.30425,-0.188035 1.564455,0.61662 2.800456,1.788123 1.236002,1.171503 2.449667,2.13235 2.697034,2.135211 0.247368,0.003 0.44976,0.40305 0.44976,0.889318 0,1.021385 3.749613,3.158857 4.03571,2.30056 0.218406,-0.655215 7.544036,0.949136 7.857923,1.720929 0.109941,0.270329 1.526683,0.491503 3.148312,0.491503 2.221037,0 2.948424,-0.221917 2.948424,-0.899519 0,-1.013559 1.0619,-1.15771 2.381349,-0.323263 1.555424,0.983678 0.18286,1.383022 -5.512375,1.603812 -3.77396,0.146309 -6.620872,-0.08043 -8.848015,-0.704689 z M 55.72036,76.214683 C 49.001738,74.49821 43.227647,69.949441 40.24081,64.020049 38.75508,61.07062 37.430151,55.993348 37.430151,53.249299 c 0,-1.251855 0.135905,-1.375951 0.788611,-0.720082 0.847296,0.851403 2.384779,7.520121 1.910646,8.287285 -0.463272,0.749589 0.977736,4.272529 1.655242,4.046696 0.86448,-0.288164 6.031994,5.35325 5.577367,6.088852 -0.453335,0.73351 1.817253,2.021446 3.86075,2.189914 2.729467,0.225023 7.485447,1.743417 8.15431,2.60335 0.809721,1.041031 5.559539,0.562373 6.299441,-0.634814 0.362656,-0.586798 0.662436,-0.615906 1.165182,-0.113159 0.463828,0.463827 0.479384,0.798976 0.04941,1.064706 -1.288464,0.796313 -8.277493,0.891812 -11.170766,0.152636 z M 6.075072,69.962742 C 3.6408583,65.313581 2.2854685,60.800334 1.8453491,55.878382 c -0.2769495,-3.097187 0.262083,-4.79716 1.2179944,-3.841249 0.5867217,0.586722 1.2182946,8.467207 0.7058331,8.807071 -0.7106836,0.471323 0.5985349,4.768976 1.4564163,4.780844 0.8960255,0.01241 4.7634403,7.067517 4.2921904,7.830014 C 8.8149289,74.5923 8.1411776,73.908839 6.075072,69.962742 Z m 47.650279,1.558781 c -4.383304,-1.683958 -9.176244,-6.539337 -10.837038,-10.978206 -1.182172,-3.159635 -1.778605,-8.839274 -0.828458,-7.889128 0.237573,0.237573 0.353033,1.347944 0.256579,2.467492 -0.126268,1.465587 0.172561,2.33345 1.067246,3.099503 0.68344,0.585179 1.242619,1.34613 1.242619,1.691002 0,0.344871 0.687613,1.638955 1.528028,2.875733 0.840416,1.236784 1.388444,2.474551 1.217841,2.750595 -0.456203,0.738151 2.431095,3.251112 3.357974,2.922614 0.435856,-0.154472 1.793673,0.221395 3.017371,0.835257 1.223698,0.613867 2.627031,1.116116 3.118517,1.116116 0.491485,0 1.13979,0.439901 1.440678,0.977555 0.440016,0.786263 1.260388,0.925958 4.192363,0.713882 2.004913,-0.145027 3.510275,-0.04522 3.345255,0.221797 -0.613915,0.993332 -8.865304,0.445771 -12.118975,-0.804212 z m 24.284633,-24.93195 c -0.222877,-0.360622 -0.248921,-1.063012 -0.05787,-1.560866 0.426899,-1.112474 -1.457352,-4.133842 -2.375898,-3.809717 -0.366362,0.129279 -1.678856,-0.670322 -2.916641,-1.77689 -1.237803,-1.106569 -2.519617,-2.011943 -2.848487,-2.011943 -0.328876,0 -0.597952,-0.378385 -0.597952,-0.840855 0,-1.014349 -3.069499,-2.183482 -4.648514,-1.77056 -0.643419,0.168257 -1.502477,-0.150867 -1.989848,-0.739192 -0.795583,-0.960378 -0.684096,-1.003798 1.541091,-0.600194 3.366723,0.610656 8.078107,2.845823 10.522591,4.992107 2.707562,2.377274 4.761679,6.098037 4.203581,7.614235 -0.265046,0.720056 -0.580417,0.911036 -0.832054,0.503875 z m 1.411782,-5.535016 c -0.368077,-0.687759 -0.53014,-1.475523 -0.360137,-1.750587 0.37294,-0.603435 -2.441119,-3.354747 -3.442193,-3.365436 -0.858003,-0.0092 -6.465008,-3.279272 -7.305818,-4.260889 -0.838039,-0.978382 -3.753552,-1.576878 -4.005124,-0.82217 -0.121908,0.365734 -0.694818,0.225416 -1.398907,-0.342626 -1.122287,-0.905431 -1.00725,-0.943599 1.955284,-0.648759 5.577014,0.555041 11.220437,3.813434 15.109685,8.724006 1.538884,1.943 1.689734,2.411215 0.969459,3.008994 -0.680252,0.564558 -0.988553,0.454677 -1.522249,-0.542533 z m 1.872881,-3.785976 C 80.256813,35.91824 79.40768,34.477274 79.40768,34.066435 c 0,-0.935801 -3.204181,-3.514909 -3.450127,-2.777074 -0.207873,0.623619 -6.786957,-2.552597 -7.424674,-3.584446 -0.233203,-0.37733 -1.48694,-0.737603 -2.786084,-0.800607 -1.299145,-0.063 -2.872211,-0.430209 -3.495703,-0.81601 -0.911462,-0.563989 -0.487257,-0.624367 2.164613,-0.308091 6.67559,0.796165 12.678293,3.909445 17.310867,8.97822 3.271141,3.579151 3.55398,4.159882 2.266631,4.653884 -0.473207,0.181587 -1.598331,-0.71221 -2.698556,-2.14373 z m 10.612693,1.211014 c -1.398391,-1.13628 -4.747634,-6.446549 -4.065913,-6.446549 0.32854,0 -0.0066,-0.816887 -0.744771,-1.815305 -0.738163,-0.998417 -1.655792,-1.694934 -2.039179,-1.547815 -0.383387,0.147119 -1.609034,-0.469018 -2.72367,-1.369194 -1.114635,-0.900175 -3.040246,-2.250622 -4.279141,-3.000995 -1.238895,-0.750372 -2.119356,-1.579802 -1.956579,-1.843177 0.412933,-0.668143 -3.072101,-2.028149 -4.143566,-1.61699 -1.092867,0.419373 -7.418646,-0.870241 -9.038013,-1.842547 -2.282227,-1.370302 4.114727,-0.858519 9.114149,0.72917 5.821371,1.84872 11.18147,5.316997 15.303627,9.902284 4.671272,5.1961 7.997241,11.633489 4.573056,8.851118 z m -6.12379,-1.717961 c -0.488552,-0.697512 -0.76143,-1.598772 -0.606389,-2.0028 0.302688,-0.788804 -0.611846,-1.710089 -3.230674,-3.254508 -4.832094,-2.849664 -7.300336,-4.650085 -7.317283,-5.337474 -0.02249,-0.913543 -2.516403,-1.991233 -3.180224,-1.374281 -0.613136,0.569842 -7.967245,-1.246954 -8.923361,-2.204469 -1.895526,-1.898303 7.083666,-0.226722 12.503391,2.327654 4.160374,1.960828 9.528701,6.569991 12.237229,10.5067 1.653171,2.402809 1.700228,2.60738 0.599757,2.60738 -0.656787,0 -1.593887,-0.570691 -2.082446,-1.268202 z M 38.294366,22.757094 c -1.095285,-0.828432 -1.040058,-0.881031 0.934822,-0.890336 2.591502,-0.01221 4.197067,0.81293 2.699789,1.38749 -1.518554,0.582724 -2.358846,0.467785 -3.634611,-0.497154 z m 3.229261,-2.552075 c -1.211735,-0.12788 -2.526591,-0.622228 -2.921903,-1.09855 -0.603733,-0.727453 -0.375854,-0.866039 1.424038,-0.866039 3.447522,0 8.493061,1.244308 7.526894,1.856248 -0.828012,0.524438 -1.903221,0.543759 -6.029029,0.108341 z"
         id="path5195" />
    </g>
  </g>
</svg>
