<?xml version="1.0" encoding="UTF-8" standalone="no"?>
<!-- Created with Inkscape (http://www.inkscape.org/) -->

<svg
   width="100mm"
   height="100mm"
   viewBox="0 0 100 100"
   version="1.1"
   id="svg379"
   inkscape:version="1.1.1 (3bf5ae0d25, 2021-09-20)"
   sodipodi:docname="add_list_type_device_6062.svg"
   xmlns:inkscape="http://www.inkscape.org/namespaces/inkscape"
   xmlns:sodipodi="http://sodipodi.sourceforge.net/DTD/sodipodi-0.dtd"
   xmlns="http://www.w3.org/2000/svg"
   xmlns:svg="http://www.w3.org/2000/svg">
  <sodipodi:namedview
     id="namedview381"
     pagecolor="#505050"
     bordercolor="#ffffff"
     borderopacity="1"
     inkscape:pageshadow="0"
     inkscape:pageopacity="0"
     inkscape:pagecheckerboard="1"
     inkscape:document-units="mm"
     showgrid="false"
     inkscape:zoom="0.58974467"
     inkscape:cx="397.62971"
     inkscape:cy="383.21669"
     inkscape:window-width="1440"
     inkscape:window-height="890"
     inkscape:window-x="-6"
     inkscape:window-y="-6"
     inkscape:window-maximized="1"
     inkscape:current-layer="layer1" />
  <defs
     id="defs376" />
  <g
     inkscape:label="Laag 1"
     inkscape:groupmode="layer"
     id="layer1">
    <g
       id="g395"
       transform="translate(-2.6918445,-0.44864025)">
      <path
         style="fill:#d0d0d0;fill-opacity:1;stroke-width:0.59691"
         d="m 19.659391,92.783416 c -0.209121,-0.338364 0.03048,-0.43843 0.561682,-0.234591 1.034096,0.396819 1.223299,0.824666 0.364685,0.824666 -0.308925,0 -0.72579,-0.265535 -0.926367,-0.590075 z m -6.944825,-2.245245 c -0.742478,-0.946735 -0.721366,-0.967848 0.225366,-0.22537 0.574526,0.450578 1.044592,0.920644 1.044592,1.044592 0,0.491281 -0.490174,0.17508 -1.269958,-0.819222 z m 1.790729,-2.387639 c -0.742478,-0.946734 -0.721366,-0.967847 0.225366,-0.225369 0.574526,0.450577 1.044592,0.920644 1.044592,1.044592 0,0.49128 -0.490174,0.175079 -1.269958,-0.819223 z m 19.177246,-4.02914 c 0,-0.497422 0.530587,-0.895364 1.193819,-0.895364 0.663233,0 1.19382,0.397942 1.19382,0.895364 0,0.497423 -0.530587,0.895365 -1.19382,0.895365 -0.663232,0 -1.193819,-0.397942 -1.193819,-0.895365 z m 12.535102,0.298455 c 0,-0.3283 -0.470066,-0.61579 -1.044592,-0.638866 -0.893239,-0.03587 -0.871616,-0.116284 0.149228,-0.554953 1.139116,-0.489496 1.132278,-0.514924 -0.149228,-0.554953 -1.161955,-0.0363 -1.343046,-0.363894 -1.343046,-2.429595 0,-2.075419 0.175622,-2.388832 1.343046,-2.396777 0.738676,-0.0048 1.074437,-0.206483 0.746137,-0.447682 -0.799156,-0.587133 -1.092232,-2.122945 -0.313244,-1.641502 0.336435,0.207928 0.611699,0.09359 0.611699,-0.254086 0,-0.847743 19.478969,-0.872563 20.002489,-0.02549 0.206208,0.333654 0.666479,0.426456 1.022822,0.206226 0.388099,-0.239856 0.476065,-0.122396 0.219376,0.292933 -0.248696,0.402395 0.02573,0.854906 0.653909,1.078324 1.74645,0.621132 3.171607,2.095254 3.171607,3.280573 0,0.605714 -0.284463,1.101304 -0.632139,1.101304 -0.347676,0 -0.479503,0.24696 -0.292957,0.548805 0.186552,0.301839 -0.67058,0.871506 -1.904727,1.265926 -1.234152,0.39442 -2.499087,0.953282 -2.810972,1.241924 -0.8067,0.746573 -19.429408,0.677456 -19.429408,-0.07211 z m 12.491845,-1.170671 c 0.589644,-0.315568 2.068096,-0.683515 3.285449,-0.817671 1.217355,-0.134149 2.488408,-0.518947 2.82457,-0.855108 1.00676,-1.00676 0.291429,-2.774747 -1.297287,-3.206312 -0.817558,-0.222086 -2.963824,-0.828045 -4.769475,-1.346581 -4.209758,-1.208921 -7.267668,-1.612796 -6.828274,-0.90184 0.187764,0.303809 -0.477881,0.716231 -1.479212,0.916501 -1.00133,0.200263 -1.685006,0.583515 -1.51928,0.851664 0.165726,0.268156 -0.174395,0.764498 -0.755826,1.102994 -0.825899,0.480816 -0.861289,0.621412 -0.161781,0.642734 0.795879,0.02423 0.795879,0.09158 0,0.605923 -0.737231,0.476435 -0.746016,0.580244 -0.04974,0.587771 0.465092,0.0048 0.67934,0.17542 0.476107,0.378655 -0.567542,0.567542 1.000538,1.877645 2.610568,2.181084 2.690579,0.507087 6.588301,0.435983 7.664184,-0.139814 z M 36.667089,79.978255 c 0,-2.114576 0.289182,-4.02341 0.642627,-4.241855 0.714158,-0.441373 3.078428,1.778874 2.504947,2.352355 -0.199098,0.1991 0.219992,0.361996 0.931308,0.361996 1.039065,0 1.293305,0.352022 1.293305,1.790729 0,1.359056 -0.272389,1.790729 -1.129957,1.790729 -0.621476,0 -1.284569,0.402914 -1.47354,0.895364 -0.188971,0.492451 -0.889233,0.895365 -1.556136,0.895365 -1.093294,0 -1.212554,-0.378143 -1.212554,-3.844683 z m 1.790729,0.263225 c 0,-0.656601 -0.268609,-1.193819 -0.596909,-1.193819 -0.328301,0 -0.59691,0.537218 -0.59691,1.193819 0,0.656601 0.268609,1.193819 0.59691,1.193819 0.3283,0 0.596909,-0.537218 0.596909,-1.193819 z m -6.58078,-3.321862 c -0.818402,-2.152563 -0.826819,-2.142684 1.651311,-1.937133 1.574632,0.130616 2.292727,0.49799 2.434409,1.245446 0.110529,0.583098 -0.02154,1.021355 -0.29349,0.973906 -1.472528,-0.25694 -3.202038,0.134317 -2.882091,0.652005 0.202901,0.3283 0.212105,0.596909 0.02046,0.596909 -0.191651,0 -0.610418,-0.689007 -0.930592,-1.531133 z M 21.312123,69.651486 c -0.543531,-0.181174 -0.487726,-0.614357 0.217878,-1.691242 1.258488,-1.920694 2.005077,-1.830006 2.005077,0.243557 0,1.617303 -0.580316,1.99523 -2.222955,1.447685 z m 9.997182,-2.825144 c -1.382557,-1.471662 -1.386351,-1.520531 -1.061376,-13.6712 0.307147,-11.484073 0.706794,-14.313296 1.995997,-14.130264 0.298788,0.04242 0.629085,-0.470731 0.733994,-1.140336 0.148862,-0.950148 0.637847,-1.217463 2.227039,-1.217463 1.672727,0 2.102982,0.2657 2.409797,1.488149 0.205426,0.818481 0.585311,1.357243 0.84419,1.197247 0.982607,-0.607285 1.307541,2.157127 1.633146,13.894176 0.334594,12.061058 0.33097,12.107838 -1.051767,13.579691 -1.044027,1.111321 -2.00096,1.476946 -3.86551,1.476946 -1.86455,0 -2.821483,-0.365625 -3.86551,-1.476946 z m 6.504292,-1.152143 c 0.499585,-0.601959 0.606579,-3.841984 0.379446,-11.490508 -0.357147,-12.026636 -0.426426,-12.6587 -1.457321,-13.295827 -0.841243,-0.519918 -3.520115,-0.138722 -3.953542,0.562576 -0.54239,0.877605 -0.765529,22.328201 -0.24647,23.693429 0.401803,1.056829 0.983119,1.36869 2.551243,1.36869 1.116978,0 2.343968,-0.377259 2.726644,-0.83836 z m 25.389168,1.179679 c -0.778417,-1.188011 -0.886416,-2.560563 -0.598855,-7.610596 0.863824,-15.169946 0.97458,-22.167586 0.360599,-22.781571 -0.367201,-0.367197 -0.630307,-3.412303 -0.630307,-7.294886 0,-5.838538 0.15334,-6.859517 1.237143,-8.237352 0.998487,-1.269373 1.739114,-1.572773 3.839269,-1.572773 2.190909,0 2.797202,0.273967 3.836589,1.733647 1.069674,1.502225 1.234463,2.61775 1.234463,8.356734 0,4.233222 -0.226456,6.623088 -0.627579,6.623088 -0.618291,0 -0.487848,8.502487 0.354272,23.092001 0.460008,7.969545 -0.16227,9.141118 -4.855317,9.141118 -2.730044,0 -3.340211,-0.213091 -4.150277,-1.44941 z m 6.707324,-1.033269 c 0.707953,-0.58755 0.830761,-1.833025 0.605506,-6.140866 -0.155412,-2.972107 -0.427597,-5.94105 -0.604849,-6.59765 -0.177258,-0.656601 -0.342841,-1.546599 -0.367959,-1.977775 -0.0302,-0.518484 -0.702604,-0.720617 -1.985626,-0.59691 -1.563545,0.150754 -1.973729,0.476592 -2.114015,1.679321 -0.09573,0.82075 -0.462235,2.069274 -0.814447,2.774496 -0.359543,0.719885 -0.538604,3.298048 -0.408286,5.878638 0.180344,3.571383 0.473677,4.773058 1.315338,5.388489 1.205662,0.881606 3.02512,0.712006 4.374338,-0.407743 z M 68.303298,49.564498 c 0,-0.129026 -0.416863,-0.394558 -0.926368,-0.590073 -0.531201,-0.203842 -0.770801,-0.103772 -0.56168,0.234592 0.350542,0.567186 1.488048,0.838926 1.488048,0.355481 z m 0.523054,-11.749247 c -0.379676,-0.234653 -0.248039,-0.529071 0.336926,-0.753542 0.687891,-0.26397 0.85296,-0.795191 0.582249,-1.873797 -0.213198,-0.849448 -0.12051,-1.505381 0.212727,-1.505381 0.645934,0 0.841547,-10.222576 0.213938,-11.179899 -0.207139,-0.315963 -1.111206,-0.754232 -2.00903,-0.973931 -2.644823,-0.647192 -4.221273,1.374251 -3.814252,4.890927 0.72423,6.257472 1.171649,11.171247 1.059401,11.634866 -0.06553,0.270627 0.127977,0.339323 0.430013,0.152655 0.302031,-0.186667 0.705506,0.06806 0.896606,0.56606 0.286618,0.746915 0.55469,0.776035 1.531014,0.166311 0.712244,-0.444805 0.935405,-0.892505 0.560408,-1.124269 z M 47.524016,57.535662 c -1.118414,-1.041961 -1.306373,-1.857846 -1.306373,-5.670641 0,-2.449463 0.240865,-4.453569 0.535256,-4.453569 0.923507,0 2.110659,-10.193729 1.3323,-11.440079 -0.370555,-0.593353 -0.673737,-2.425515 -0.673737,-4.071472 0,-1.645956 -0.268609,-2.992647 -0.596909,-2.992647 -0.904115,0 -0.790456,-18.071888 0.119381,-18.9817255 1.026036,-1.0260357 7.519243,-0.9227644 8.578445,0.1364365 0.663592,0.663592 0.852727,2.848112 0.852727,9.849008 0,5.599581 -0.225373,8.996281 -0.596909,8.996281 -0.330683,0 -0.59691,1.575178 -0.59691,3.531715 0,2.170447 -0.269783,3.621643 -0.699933,3.765026 -0.826915,0.275639 0.52246,11.207457 1.383399,11.207457 0.280694,0 0.510353,1.967747 0.510353,4.372772 0,3.799022 -0.181268,4.543065 -1.381518,5.670641 -1.836692,1.725483 -5.649876,1.766785 -7.459572,0.0808 z M 53.99117,56.05013 c 0.555261,-0.669048 0.650991,-2.288288 0.359488,-6.080637 -0.218517,-2.84282 -0.501863,-5.273323 -0.629659,-5.401119 -0.127796,-0.127796 -1.26396,-0.279059 -2.52481,-0.33614 l -2.292453,-0.103785 -0.490472,5.040877 c -0.613458,6.30488 -0.08036,7.792679 2.792225,7.792679 1.115891,0 2.369447,-0.410343 2.785681,-0.911875 z M 53.223351,31.725745 c 1.522283,-2.580078 2.436323,-18.038967 1.169065,-19.772047 -0.902063,-1.233644 -4.895185,-1.489254 -5.996053,-0.383823 -0.469642,0.471589 -0.627535,3.27119 -0.499923,8.864108 0.153258,6.716844 0.402286,8.627265 1.396295,10.711682 1.452942,3.046791 2.393336,3.185575 3.930616,0.58008 z M 80.80837,56.627366 c -0.425215,-0.512351 -0.894278,-2.392617 -1.042366,-4.178367 -0.148093,-1.78575 -0.504603,-3.246819 -0.792248,-3.246819 -0.600933,0 -0.71154,-13.977429 -0.143408,-18.122431 0.237642,-1.733788 0.679821,-2.769405 1.182448,-2.769405 0.441576,0 0.974981,-0.685788 1.185356,-1.523974 0.334221,-1.331655 0.6558,-1.501142 2.548236,-1.343047 1.193521,0.09971 2.165744,0.504341 2.165744,0.90137 0,0.396243 0.519013,1.099952 1.15336,1.563799 1.042384,0.762211 1.178957,1.827191 1.419392,11.068523 0.191202,7.349085 0.07666,10.225165 -0.407224,10.225165 -0.422349,0 -0.673254,1.290239 -0.673254,3.462076 0,1.904142 -0.322331,3.784407 -0.716292,4.178367 -1.03488,1.034881 -4.96153,0.891126 -5.879744,-0.215257 z m 3.909942,-3.536133 c 0.328301,-0.005 0.691144,-0.680663 0.806318,-1.501414 0.115168,-0.820751 0.41207,-1.626579 0.659776,-1.790729 0.584249,-0.387174 1.228261,-16.928103 0.692815,-17.794475 -0.224295,-0.36291 -1.658579,-0.753898 -3.187306,-0.868862 -3.505406,-0.263615 -3.531646,-0.176065 -3.10858,10.372124 0.324999,8.103151 1.483464,12.903909 2.896402,12.002934 0.354015,-0.225741 0.912275,-0.41455 1.240575,-0.419578 z M 13.438921,46.486242 c -0.03127,-5.474646 0.19037,-9.225166 0.567444,-9.60224 0.340312,-0.340312 0.756014,-1.375721 0.923783,-2.300908 0.167768,-0.925187 0.560854,-2.160164 0.873524,-2.744393 0.825913,-1.543233 0.696434,-3.351535 -0.266437,-3.721023 -0.487734,-0.187162 -0.984166,-1.578906 -1.193819,-3.346866 -0.19739,-1.66456 -0.517277,-4.342183 -0.710859,-5.950273 -0.532278,-4.42164 0.264006,-5.432935 4.27784,-5.432935 4.768651,0 5.85924,1.171259 5.371856,5.769212 -0.203053,1.915588 -0.370135,4.484252 -0.371294,5.708142 -0.0015,1.60372 -0.331459,2.401517 -1.181269,2.856322 -1.258609,0.673587 -1.665847,3.799278 -0.58225,4.468977 0.3283,0.202901 0.596909,1.005394 0.596909,1.78332 0,0.777925 0.402914,1.817324 0.895365,2.309774 0.717478,0.717479 0.885732,2.59375 0.846884,9.443963 -0.04391,7.742244 -0.125824,8.379686 -0.868442,6.757869 C 22.167178,51.500282 21.78608,49.153806 21.771272,47.270791 21.744841,43.909851 20.954981,39.588187 19.838944,36.698209 19.384686,35.521907 19.1681,35.405543 18.72793,36.1013 c -0.442178,0.698929 -0.548506,0.707538 -0.555898,0.04501 -0.0071,-0.632911 -0.198473,-0.662092 -0.841641,-0.12831 -0.968876,0.804096 -1.428582,3.081322 -2.119257,10.49809 -0.926645,9.95069 -1.715289,9.937409 -1.772213,-0.02985 z m 4.945397,-22.530779 c 1.331742,1.331742 2.114575,0.499173 2.510543,-2.670049 0.471632,-3.774824 -0.08627,-5.138624 -2.195265,-5.366346 -2.238281,-0.241681 -3.197443,0.74126 -3.179428,3.258248 0.02581,3.605704 0.753388,5.779584 1.677647,5.012517 0.427055,-0.354424 0.960981,-0.459891 1.186503,-0.23437 z m 14.297203,1.280335 c -0.505633,-1.263702 -1.293082,-2.29764 -1.749885,-2.29764 -1.018659,0 -1.093854,-1.885573 -0.114261,-2.865166 1.026036,-1.026036 7.519243,-0.922765 8.578444,0.136436 1.098826,1.098826 1.077372,1.310267 -0.269625,2.657264 -1.09853,1.09853 -1.143441,1.097724 -2.115891,-0.03802 -1.347743,-1.574049 -3.56626,-1.209693 -3.826295,0.628406 -0.183474,1.29691 -0.02389,1.393719 1.922854,1.166448 1.25082,-0.146026 2.229878,0.03085 2.383264,0.43057 0.442858,1.15407 -0.673902,2.307577 -2.319151,2.395464 -1.295966,0.06923 -1.730643,-0.317311 -2.489454,-2.213766 z M 81.43531,22.90293 c 0,-0.675976 -0.26048,-1.068062 -0.578847,-0.871301 -0.981135,0.606374 -2.405701,-3.828489 -2.405701,-7.489255 0,-4.120839 1.159873,-5.333137 5.102496,-5.333137 3.29256,0 5.044967,1.824624 5.044967,5.252864 0,2.93689 -1.223002,7.879147 -1.949758,7.879147 -0.279586,0 -0.315114,-0.335761 -0.07895,-0.746137 0.249467,-0.433502 0.201702,-0.537714 -0.113998,-0.248712 -0.29886,0.273584 -0.57696,0.74365 -0.617998,1.044592 -0.04104,0.300942 -0.10819,0.815776 -0.149227,1.144076 -0.04101,0.328301 -1.014747,0.59691 -2.163798,0.59691 -1.711202,0 -2.089183,-0.222361 -2.089183,-1.229047 z m 4.662586,-2.793995 c 1.045786,-0.988816 1.469764,-4.214195 0.842114,-6.406281 -0.673141,-2.350945 -3.839943,-3.173624 -5.567286,-1.446281 -1.605586,1.605585 -1.550736,6.083917 0.09467,7.729322 1.300081,1.300079 3.328761,1.354071 4.630502,0.12324 z"
         id="path403" />
      <path
         style="fill:#b9b9b9;fill-opacity:1;stroke-width:0.59691"
         d="m 17.454061,97.741013 c 0.430895,-0.172429 0.945729,-0.151227 1.144077,0.0471 0.198348,0.198347 -0.154202,0.339427 -0.783444,0.313509 -0.695365,-0.02865 -0.836807,-0.170083 -0.360633,-0.360629 z m 2.984548,0 c 0.430895,-0.172429 0.945729,-0.151227 1.144077,0.0471 0.198348,0.198347 -0.154202,0.339427 -0.783444,0.313509 -0.695365,-0.02865 -0.836807,-0.170083 -0.360633,-0.360629 z m -3.469537,-4.596359 c 0,-0.125858 0.53759,-0.369415 1.194643,-0.541242 0.657054,-0.17182 1.044115,-0.06885 0.860137,0.228837 -0.321287,0.519855 -2.05478,0.783408 -2.05478,0.312405 z M 5.0780047,85.265471 c 0.028642,-0.69537 0.1700836,-0.836807 0.3606328,-0.360635 0.1724297,0.430891 0.1512237,0.945726 -0.047124,1.144079 C 5.1931652,86.247262 5.0520864,85.894709 5.0780047,85.265471 Z M 51.045305,83.38899 c -1.61003,-0.303439 -3.178111,-1.613542 -2.610569,-2.181084 0.203233,-0.203235 -0.01101,-0.373629 -0.476106,-0.378655 -0.696274,-0.0075 -0.687489,-0.111336 0.04974,-0.587771 0.795879,-0.514339 0.795879,-0.581659 0,-0.605923 -0.699508,-0.02131 -0.664118,-0.161918 0.161781,-0.642734 0.581431,-0.338496 0.921552,-0.834838 0.755826,-1.102994 -0.165726,-0.268149 0.51795,-0.651401 1.51928,-0.851664 1.001331,-0.20027 1.666976,-0.612692 1.479212,-0.916501 -0.439394,-0.710956 2.618516,-0.307081 6.828274,0.90184 1.805651,0.518536 3.951917,1.124495 4.769475,1.346581 1.588716,0.431565 2.304047,2.199552 1.297287,3.206312 -0.336162,0.336161 -1.607215,0.720959 -2.82457,0.855108 -1.217353,0.134156 -2.695805,0.502103 -3.285449,0.817671 -1.075883,0.575797 -4.973605,0.646901 -7.664183,0.139814 z m 8.343591,-1.97469 c 0.635018,-0.339851 1.154577,-0.985098 1.154577,-1.433884 0,-0.818143 -2.629974,-1.983077 -4.029139,-1.784689 -0.410376,0.0582 -1.6947,0.139373 -2.854055,0.18041 -2.146698,0.07599 -3.709843,1.816301 -2.110298,2.349484 0.617075,0.205689 0.608686,0.360653 -0.04184,0.772795 -1.187775,0.752524 6.470204,0.670784 7.880752,-0.08412 z M 5.0780047,82.280923 c 0.028642,-0.69537 0.1700836,-0.836807 0.3606328,-0.360635 0.1724297,0.430891 0.1512237,0.945726 -0.047124,1.144079 -0.1983481,0.198347 -0.3394269,-0.154206 -0.3135088,-0.783444 z m 28.3060813,0.348195 c -0.2029,-0.3283 -0.226536,-0.827275 -0.05252,-1.108837 0.174014,-0.281556 0.08185,-1.329705 -0.204805,-2.329219 -0.467277,-1.6293 -0.374318,-1.84537 0.898631,-2.088712 1.894603,-0.362175 2.04479,-0.124306 2.04479,3.238617 0,2.457883 -0.171549,2.885061 -1.158592,2.885061 -0.637225,0 -1.324601,-0.268609 -1.527502,-0.59691 z m 3.879913,-2.387638 c 0,-0.656601 0.268609,-1.193819 0.59691,-1.193819 0.3283,0 0.596909,0.537218 0.596909,1.193819 0,0.656601 -0.268609,1.193819 -0.596909,1.193819 -0.328301,0 -0.59691,-0.537218 -0.59691,-1.193819 z M 13.396755,68.321834 c 0.01584,-2.618231 0.868141,-3.276646 2.001817,-1.546438 1.439701,2.197266 4.343968,2.134245 5.236017,-0.11361 0.358281,-0.902825 0.687395,-2.379562 0.731363,-3.281641 0.05523,-1.13306 0.402899,-1.640559 1.124534,-1.641502 1.686069,-0.0024 1.383221,3.750115 -0.463496,5.742754 -0.829448,0.894988 -1.258676,1.781805 -0.953839,1.970709 0.304838,0.188898 -1.299702,0.351801 -3.565644,0.362002 -4.017349,0.01809 -4.119665,-0.01904 -4.110752,-1.492274 z m 52.138996,-2.093482 c -0.841661,-0.615431 -1.134994,-1.817106 -1.315338,-5.388489 -0.130318,-2.58059 0.04877,-5.158753 0.408286,-5.878638 0.352212,-0.705222 0.718715,-1.953746 0.814447,-2.774496 0.140286,-1.202729 0.55047,-1.528567 2.114015,-1.679321 1.283022,-0.123707 1.955422,0.07843 1.985626,0.59691 0.02513,0.431176 0.190701,1.321174 0.367959,1.977775 0.177252,0.6566 0.449437,3.625543 0.604849,6.59765 0.225255,4.307841 0.102447,5.553316 -0.605506,6.140866 -1.349218,1.119749 -3.168676,1.289349 -4.374338,0.407743 z M 32.53571,65.143869 c -0.519059,-1.365228 -0.29592,-22.815824 0.24647,-23.693429 0.433427,-0.701298 3.112299,-1.082494 3.953542,-0.562576 1.030895,0.637127 1.100174,1.269191 1.457321,13.295827 0.350506,11.803044 0.218032,12.328868 -3.10609,12.328868 -1.568124,0 -2.14944,-0.311861 -2.551243,-1.36869 z M 13.872604,61.926437 c 0.430894,-0.172429 0.945728,-0.151227 1.144077,0.0471 0.198347,0.198353 -0.154202,0.339427 -0.783444,0.313509 -0.695366,-0.02865 -0.836808,-0.170084 -0.360633,-0.360629 z m -0.484989,-3.326871 c 0,-1.397444 0.300674,-3.479166 0.668166,-4.626049 0.367492,-1.146884 0.890346,-4.502727 1.161898,-7.45743 0.679836,-7.397144 1.141716,-9.692235 2.112712,-10.49809 0.643168,-0.533782 0.83458,-0.504601 0.841641,0.128311 0.0074,0.66253 0.11372,0.653921 0.555898,-0.04501 0.44017,-0.695757 0.656756,-0.579393 1.111014,0.59691 1.117736,2.894374 1.905405,7.211178 1.905405,10.442524 0,1.811485 0.402914,4.257918 0.895365,5.436517 1.208911,2.893332 1.21644,8.563121 0.01137,8.563121 -1.023441,0 -1.19857,-0.698959 -2.09384,-8.356735 -0.872175,-7.460224 -1.100015,-8.265854 -2.288344,-8.091444 -0.791765,0.116206 -1.197827,1.619292 -2.039787,7.550497 -0.578177,4.072974 -1.177001,7.741169 -1.330721,8.151545 -0.619021,1.65255 -1.510779,0.593223 -1.510779,-1.79467 z m 35.162079,-3.013462 c -0.409577,-0.898924 -0.456873,-3.1234 -0.13643,-6.416778 l 0.490472,-5.040877 2.292453,0.103785 c 1.26085,0.05708 2.397014,0.208344 2.52481,0.33614 0.127796,0.127796 0.411142,2.558299 0.629659,5.401119 0.458449,5.964257 -0.0041,6.992512 -3.145169,6.992512 -1.539138,0 -2.18022,-0.332129 -2.655795,-1.375901 z M 81.867992,51.710941 C 80.875874,49.441076 79.91787,34.881314 80.585585,32.220923 c 0.285347,-1.136898 0.662647,-1.26879 3.10433,-1.08517 1.528727,0.114964 2.963011,0.505952 3.187306,0.868862 0.535446,0.866372 -0.108566,17.407301 -0.692815,17.794475 -0.247706,0.16415 -0.544608,0.969978 -0.659776,1.790729 -0.115174,0.820751 -0.478017,1.496387 -0.806318,1.501414 -0.3283,0.005 -0.88656,0.193837 -1.240575,0.419578 -0.378148,0.241133 -1.042168,-0.501309 -1.609745,-1.79987 z m 3.63004,-8.760151 c 0.445199,-0.4452 0.136477,-6.968552 -0.36741,-7.763542 -0.522726,-0.8247 -2.660044,-0.846093 -3.238491,-0.03241 -0.693418,0.975407 -0.5278,7.171601 0.211455,7.910852 0.636282,0.636282 2.713581,0.56597 3.394446,-0.114895 z M 66.81525,49.209017 c -0.209121,-0.338364 0.0305,-0.438434 0.56168,-0.234592 1.034099,0.396821 1.223301,0.824665 0.364688,0.824665 -0.308924,0 -0.725794,-0.265533 -0.926368,-0.590073 z M 66.73493,38.773209 c -0.1911,-0.498 -0.594575,-0.752727 -0.896606,-0.56606 -0.302036,0.186668 -0.495542,0.117972 -0.430013,-0.152655 0.112248,-0.463619 -0.335171,-5.377394 -1.059401,-11.634866 -0.407021,-3.516676 1.169429,-5.538119 3.814252,-4.890927 0.897824,0.219699 1.801891,0.657968 2.00903,0.973931 0.627609,0.957323 0.431996,11.179899 -0.213938,11.179899 -0.333237,0 -0.425925,0.655933 -0.212727,1.505381 0.270711,1.078606 0.105642,1.609827 -0.582249,1.873797 -0.584965,0.224471 -0.716602,0.518889 -0.336926,0.753542 0.374997,0.231764 0.151836,0.679464 -0.560408,1.124269 -0.976324,0.609724 -1.244396,0.580604 -1.531014,-0.166311 z M 49.292735,31.145665 c -0.994009,-2.084417 -1.243037,-3.994838 -1.396295,-10.711682 -0.127612,-5.592918 0.03028,-8.392519 0.499923,-8.864108 1.100868,-1.105431 5.09399,-0.849821 5.996053,0.383823 1.267258,1.73308 0.353218,17.191969 -1.169065,19.772047 -1.53728,2.605495 -2.477674,2.466711 -3.930616,-0.58008 z m 3.315099,-7.832723 c 0.788512,-0.788512 1.840443,-7.1525 1.518689,-9.18778 -0.230559,-1.458414 -0.686642,-2.043558 -1.81321,-2.326309 -2.766797,-0.694421 -3.421082,0.367222 -3.30274,5.359031 0.05876,2.478589 0.391492,5.038405 0.739401,5.688481 0.619019,1.156647 1.950423,1.374014 2.85786,0.466577 z m -15.343835,1.635289 c 0,-0.317094 -0.940133,-0.466779 -2.089184,-0.332634 -1.78766,0.2087 -2.089183,0.06726 -2.089183,-0.979996 0,-1.557211 0.881471,-2.099076 2.680234,-1.647615 1.360564,0.341479 2.585896,2.449017 1.851089,3.183824 -0.194126,0.194126 -0.352956,0.09352 -0.352956,-0.223579 z M 15.978877,23.140063 c -0.744484,-2.850553 -0.545032,-6.185839 0.406852,-6.803469 1.247614,-0.809515 3.638302,-0.434935 4.335397,0.679282 0.881975,1.409725 -0.02051,7.629405 -1.084381,7.473262 -0.463314,-0.068 -1.026907,-0.308154 -1.252427,-0.533675 -0.225522,-0.225521 -0.759448,-0.120054 -1.186503,0.23437 -0.597327,0.495738 -0.878548,0.253545 -1.218938,-1.04977 z m 65.488517,-3.154368 c -1.645406,-1.645405 -1.700256,-6.123737 -0.09467,-7.729322 1.727343,-1.727343 4.894145,-0.904664 5.567286,1.446281 0.62765,2.192086 0.203672,5.417465 -0.842114,6.406281 -1.301741,1.230831 -3.330421,1.176839 -4.630502,-0.12324 z m 2.523513,-4.061225 c -0.335774,-0.895958 -0.254994,-0.933685 0.56772,-0.265143 0.819271,0.665745 0.929311,0.622207 0.754339,-0.298455 -0.112673,-0.592847 -0.225411,-1.298042 -0.250529,-1.567101 -0.02513,-0.269059 -0.650041,-0.403364 -1.388716,-0.298455 -0.885187,0.125717 -1.411035,0.671188 -1.542474,1.600041 -0.119102,0.841675 0.04459,1.258484 0.406441,1.034855 0.333219,-0.205944 0.77458,-0.101452 0.980788,0.232203 0.601942,0.973967 0.898534,0.699027 0.472431,-0.437945 z"
         id="path401" />
      <path
         style="fill:#a3a3a3;fill-opacity:1;stroke-width:0.59691"
         d="M 16.837525,97.548277 C 10.489675,96.405894 5.5084079,90.387552 5.5084079,83.860483 c 0,-11.428031 12.4721781,-17.869868 21.9598431,-11.342184 8.395393,5.776181 7.655723,18.545045 -1.352378,23.345977 -3.287036,1.751852 -6.082258,2.259177 -9.278348,1.684001 z m 6.296913,-4.988988 c 6.133018,-2.562533 7.62812,-10.602965 2.858503,-15.372583 -3.871885,-3.871884 -9.400576,-3.871884 -13.272461,0 -7.3615922,7.361596 0.789551,19.393921 10.413958,15.372583 z m -4.971546,-0.7885 c 0,-0.532575 -1.074438,-1.960233 -2.387639,-3.172575 -2.061966,-1.903598 -2.387638,-2.548696 -2.387638,-4.729499 0,-3.538672 2.45736,-6.014873 5.969096,-6.014873 6.670931,0 8.224111,8.494304 2.374596,12.986604 -2.248774,1.727008 -3.568415,2.071061 -3.568415,0.930343 z M 51.508144,81.498416 c 0.650523,-0.412142 0.658912,-0.567106 0.04184,-0.772795 -1.599546,-0.533183 -0.0364,-2.273497 2.110298,-2.349484 1.159354,-0.04101 2.443679,-0.122223 2.854054,-0.18041 1.399166,-0.198388 4.02914,0.966546 4.02914,1.784689 0,0.448786 -0.51956,1.094033 -1.154578,1.433884 -1.410547,0.7549 -9.068526,0.83664 -7.880752,0.08412 z M 15.398572,66.775396 c -0.754614,-1.151683 -1.123187,-1.3354 -1.496895,-0.746137 -0.316189,0.498569 -0.499092,-0.0036 -0.504922,-1.387039 -0.0074,-1.748533 0.251109,-2.238536 1.333906,-2.528712 1.913879,-0.5129 2.36108,-0.460706 1.936655,0.226026 -0.204716,0.331237 -0.197498,1.152722 0.01604,1.825523 0.60207,1.896961 2.921418,1.294661 3.164099,-0.821664 0.111553,-0.972808 0.487493,-1.571997 0.895364,-1.42708 0.824277,0.292868 0.767072,2.422874 -0.127448,4.745473 -0.866323,2.249389 -3.775869,2.312751 -5.216799,0.11361 z m -0.414867,-6.745922 c 0.159779,-0.610993 0.741403,-4.279118 1.292499,-8.151387 0.799587,-5.618293 1.2019,-7.069829 1.991624,-7.185735 1.173921,-0.172296 1.397527,0.597142 2.264665,7.792831 0.356066,2.954703 0.767681,6.110862 0.914701,7.013688 0.383727,2.356396 -1.108351,2.111425 -1.817817,-0.298455 -0.7229,-2.455513 -1.523589,-2.459401 -2.660305,-0.01292 -0.955962,2.057459 -2.471274,2.700092 -1.985367,0.841976 z M 82.103586,43.065686 c -0.739255,-0.739251 -0.904873,-6.935445 -0.211455,-7.910853 0.578447,-0.813678 2.715765,-0.792285 3.238491,0.03241 0.503887,0.79499 0.812609,7.318342 0.36741,7.763542 -0.680865,0.680865 -2.758164,0.751177 -3.394446,0.114896 z M 49.749974,22.846365 c -0.347909,-0.650076 -0.68064,-3.209892 -0.739401,-5.688481 -0.118342,-4.991809 0.535943,-6.053452 3.30274,-5.359031 1.126568,0.282751 1.582651,0.867895 1.81321,2.326309 0.321754,2.03528 -0.730177,8.399268 -1.518689,9.18778 -0.907437,0.907437 -2.238841,0.69007 -2.85786,-0.466577 z m 33.768502,-6.48395 c -0.206208,-0.333655 -0.647569,-0.438147 -0.980788,-0.232203 -0.36184,0.223629 -0.525543,-0.19318 -0.406441,-1.034855 0.131439,-0.928853 0.657287,-1.474324 1.542474,-1.600041 0.738675,-0.104909 1.363598,0.0294 1.388716,0.298455 0.02513,0.269059 0.137856,0.974254 0.250529,1.567101 0.174972,0.920662 0.06493,0.9642 -0.754339,0.298455 -0.822714,-0.668542 -0.903494,-0.630815 -0.56772,0.265143 0.426103,1.136972 0.129511,1.411912 -0.472431,0.437945 z"
         id="path399" />
      <path
         style="fill:#8c8c8c;fill-opacity:1;stroke-width:0.59691"
         d="m 16.683357,64.165057 c -0.525985,-1.65723 0.06209,-2.427775 1.852865,-2.427775 1.280606,0 1.469426,0.236997 1.307819,1.641502 -0.239816,2.084223 -2.565134,2.662688 -3.160684,0.786273 z m -0.311194,-3.787233 c 0,-0.419401 0.44531,-1.398318 0.989579,-2.175369 0.94487,-1.348992 1.025774,-1.363322 1.790728,-0.317184 1.413423,1.93297 1.011483,3.255102 -0.989578,3.255102 -1.055198,0 -1.790729,-0.313213 -1.790729,-0.762549 z"
         id="path397" />
    </g>
  </g>
</svg>
