<?xml version="1.0" encoding="UTF-8" standalone="no"?>
<!-- Created with Inkscape (http://www.inkscape.org/) -->

<svg
   version="1.1"
   id="svg1125"
   width="216"
   height="216"
   viewBox="0 0 216 216"
   sodipodi:docname="add_list_type_device_7102.svg"
   inkscape:version="1.1.1 (3bf5ae0d25, 2021-09-20)"
   xmlns:inkscape="http://www.inkscape.org/namespaces/inkscape"
   xmlns:sodipodi="http://sodipodi.sourceforge.net/DTD/sodipodi-0.dtd"
   xmlns="http://www.w3.org/2000/svg"
   xmlns:svg="http://www.w3.org/2000/svg">
  <defs
     id="defs1129" />
  <sodipodi:namedview
     id="namedview1127"
     pagecolor="#505050"
     bordercolor="#ffffff"
     borderopacity="1"
     inkscape:pageshadow="0"
     inkscape:pageopacity="0"
     inkscape:pagecheckerboard="1"
     showgrid="false"
     inkscape:zoom="3.0648148"
     inkscape:cx="107.83686"
     inkscape:cy="108"
     inkscape:window-width="1440"
     inkscape:window-height="890"
     inkscape:window-x="-6"
     inkscape:window-y="-6"
     inkscape:window-maximized="1"
     inkscape:current-layer="g1131" />
  <g
     inkscape:groupmode="layer"
     inkscape:label="Image"
     id="g1131">
    <g
       id="g1135">
      <path
         style="fill:#d0d0d0;fill-opacity:1"
         d="m 112.62028,204.46849 c 1.71615,-0.7526 3.41084,-2.40339 3.76598,-3.66843 0.58894,-2.09786 0.73697,-2.14552 1.68384,-0.54214 1.19892,2.03017 0.45364,3.74208 -1.62912,3.74208 -0.79254,0 -1.44098,0.45 -1.44098,1 0,0.55 -1.2375,0.96329 -2.75,0.91843 l -2.75,-0.0816 3.12028,-1.36836 z M 87.25,204.31067 c 0.9625,-0.25152 2.5375,-0.25152 3.5,0 0.9625,0.25153 0.175,0.45733 -1.75,0.45733 -1.925,0 -2.7125,-0.2058 -1.75,-0.45733 z M 93,203.60699 c 0,-0.21616 0.698372,-0.661 1.551938,-0.98855 0.889925,-0.34149 1.291322,-0.17385 0.940983,0.39301 C 94.905663,203.96166 93,204.4169 93,203.60699 Z M 96.157895,199 c 0,-1.375 0.226973,-1.9375 0.504386,-1.25 0.277412,0.6875 0.277412,1.8125 0,2.5 -0.277413,0.6875 -0.504386,0.125 -0.504386,-1.25 z m 16.960415,-19.05 c -0.0815,-11.39688 -0.49195,-16.92364 -1.31831,-17.75 -0.93333,-0.93333 -0.90612,-1.2 0.12244,-1.2 0.9402,0 1.02496,-0.36131 0.29326,-1.25 -1.72773,-2.09841 -1.85984,-8.73121 -0.19488,-9.78403 0.81355,-0.51444 1.81668,-0.94224 2.22918,-0.95066 0.97609,-0.0199 0.74802,40.56253 -0.25,44.48469 -0.45238,1.77781 -0.81157,-3.7424 -0.88169,-13.55 z M 100.46375,145.5 c 1.8e-4,-27.5 0.12871,-38.60616 0.28561,-24.68035 0.1569,13.92581 0.15675,36.42581 -3.3e-4,50 C 100.59195,184.39384 100.46357,173 100.46375,145.5 Z m 19.6152,26.91667 c 0.048,-1.16495 0.28494,-1.4019 0.60416,-0.60417 0.28887,0.72187 0.25335,1.58437 -0.0789,1.91667 -0.3323,0.33229 -0.56864,-0.25834 -0.52522,-1.3125 z M 100.19495,92.5 c 0.0204,-1.65 0.2445,-2.203936 0.49804,-1.230968 0.25354,0.972967 0.23687,2.322967 -0.037,3 C 100.38201,94.946064 100.17457,94.15 100.19495,92.5 Z m 0,-8 c 0.0204,-1.65 0.2445,-2.203936 0.49804,-1.230968 0.25354,0.972967 0.23687,2.322967 -0.037,3 C 100.38201,86.946064 100.17457,86.15 100.19495,84.5 Z M 110.75,52.283746 c -1.72721,-0.261651 -2.7623,-1.042751 -2.78308,-2.100168 -0.0182,-0.925968 -0.29623,-5.449247 -0.61784,-10.051732 -0.45296,-6.481992 -0.27645,-8.563468 0.78308,-9.234687 1.0138,-0.642249 0.80075,-0.870497 -0.82314,-0.881846 -1.20504,-0.0084 -2.50966,-0.530942 -2.89916,-1.161156 -0.69403,-1.12297 1.99464,-0.787374 5.99724,0.748567 1.0115,0.388149 1.5929,0.07533 1.5929,-0.857063 0,-1.02698 -0.75143,-1.324671 -2.5,-0.990412 -2.2173,0.423865 -2.5,0.138676 -2.5,-2.52204 0,-2.12008 0.56464,-3.147604 1.92518,-3.503393 1.35055,-0.353177 1.76634,-0.08951 1.39301,0.883369 C 110.00051,23.441052 110.43371,24 111.39301,24 112.79201,24 113,25.801171 113,37.916667 c 0,10.19766 0.33404,14.051455 1.25,14.421052 1.40715,0.567799 0.51348,0.554017 -3.5,-0.05397 z M 113,21.293772 c 0.825,-0.301584 2.625,-1.503557 4,-2.671053 L 119.5,16.5 l -2.42431,2.75 c -1.33338,1.5125 -3.13338,2.714474 -4,2.671053 -1.34927,-0.0676 -1.36015,-0.157741 -0.0757,-0.627281 z"
         id="path1149" />
      <path
         style="fill:#b9b9b9;fill-opacity:1"
         d="m 115,205 c 0,-1.26441 2.04347,-1.26441 4,0 1.16887,0.75538 0.89294,0.97275 -1.25,0.98469 C 116.2375,205.99311 115,205.55 115,205 Z m -21.510657,-3.10449 c 1.094139,-1.31753 2.106639,-2.58301 2.25,-2.81218 C 95.882704,198.85417 96,199.40083 96,200.29815 c 0,0.89732 -1.0125,2.16279 -2.25,2.81218 l -2.25,1.18069 z m 24.803467,-0.86516 c -0.19311,-2.76374 1.23456,-5.38512 1.4903,-2.73636 0.064,0.6633 0.25154,2.05758 0.41666,3.09838 0.16513,1.04081 -0.14977,2.05231 -0.69977,2.24779 -0.55,0.19549 -1.09323,-0.97893 -1.20719,-2.60981 z m -38.213863,-0.61368 c 0.04798,-1.16495 0.284941,-1.4019 0.604167,-0.60417 0.288871,0.72187 0.253344,1.58437 -0.07895,1.91667 -0.332292,0.33229 -0.568641,-0.25834 -0.52522,-1.3125 z M 115.19495,193.5 c 0.0204,-1.65 0.2445,-2.20394 0.49804,-1.23097 0.25354,0.97297 0.23687,2.32297 -0.037,3 -0.27393,0.67703 -0.48137,-0.11903 -0.46099,-1.76903 z m 5,-8 c 0.0204,-1.65 0.2445,-2.20394 0.49804,-1.23097 0.25354,0.97297 0.23687,2.32297 -0.037,3 -0.27393,0.67703 -0.48137,-0.11903 -0.46099,-1.76903 z m 0.26708,-63.5 c 0,-26.125 0.12919,-36.8125 0.28709,-23.75 0.15789,13.0625 0.15789,34.4375 0,47.5 -0.1579,13.0625 -0.28709,2.375 -0.28709,-23.75 z M 100.07895,88.416667 c 0.048,-1.164943 0.28494,-1.4019 0.60416,-0.604167 0.28887,0.721875 0.25335,1.584375 -0.0789,1.916667 -0.3323,0.332291 -0.56864,-0.258334 -0.52522,-1.3125 z M 100.30987,76.5 c 0.006,-3.3 0.1923,-4.529441 0.41486,-2.732091 0.22256,1.79735 0.21797,4.49735 -0.0102,6 C 100.48635,81.270559 100.30426,79.8 100.30987,76.5 Z M 100.43244,46 c 0,-13.475 0.14155,-18.9875 0.31456,-12.25 0.17301,6.7375 0.17301,17.7625 0,24.5 -0.17301,6.7375 -0.31456,1.225 -0.31456,-12.25 z m 19.64651,18.416667 c 0.048,-1.164943 0.28494,-1.4019 0.60416,-0.604167 0.28887,0.721875 0.25335,1.584375 -0.0789,1.916667 -0.3323,0.332291 -0.56864,-0.258334 -0.52522,-1.3125 z M 113.01531,38.25 C 113.02373,30.6875 113.46684,23.825 114,23 c 0.64936,-1.004812 0.97443,3.534414 0.98469,13.75 0.01,9.510209 -0.36107,15.25 -0.98469,15.25 -0.61892,0 -0.99416,-5.239791 -0.98469,-13.75 z M 108.5,28.909189 c -1.88811,-0.897077 -1.8768,-0.927057 0.20205,-0.535873 1.21113,0.227902 2.41311,-0.100361 2.67106,-0.729474 0.25795,-0.629113 0.50452,-0.356342 0.54794,0.606158 0.0877,1.943774 -0.48506,2.054136 -3.42105,0.659189 z M 110,23 c 0,-0.55 0.675,-1 1.5,-1 0.825,0 1.5,0.45 1.5,1 0,0.55 -0.675,1 -1.5,1 -0.825,0 -1.5,-0.45 -1.5,-1 z m -9.1875,-5.683114 c 0.72187,-0.288871 1.58437,-0.253344 1.91667,0.07895 0.33229,0.332292 -0.25834,0.568641 -1.3125,0.52522 -1.16495,-0.04798 -1.4019,-0.284941 -0.60417,-0.604167 z m 6,0 c 0.72187,-0.288871 1.58437,-0.253344 1.91667,0.07895 0.33229,0.332292 -0.25834,0.568641 -1.3125,0.52522 -1.16495,-0.04798 -1.4019,-0.284941 -0.60417,-0.604167 z m 6.9375,0.02083 c 0.6875,-0.277412 1.8125,-0.277412 2.5,0 0.6875,0.277413 0.125,0.504386 -1.25,0.504386 -1.375,0 -1.9375,-0.226973 -1.25,-0.504386 z M 119,17 c -0.90129,-0.58246 -1.02463,-0.975486 -0.30902,-0.984687 0.65504,-0.0084 1.4691,0.434687 1.80902,0.984687 0.7673,1.241525 0.42112,1.241525 -1.5,0 z M 95,16.606989 c 0,-0.216156 0.675,-0.652033 1.5,-0.968615 C 97.325,15.321791 98,15.498646 98,16.031385 98,16.564123 97.325,17 96.5,17 95.675,17 95,16.823145 95,16.606989 Z m 9.25,-2.335457 c 2.0625,-0.215745 5.4375,-0.215745 7.5,0 2.0625,0.215744 0.375,0.392262 -3.75,0.392262 -4.125,0 -5.8125,-0.176518 -3.75,-0.392262 z"
         id="path1147" />
      <path
         style="fill:#a3a3a3;fill-opacity:1"
         d="m 32.081368,214.46286 c -7.007514,-1.95042 -11.089141,-4.52873 -15.998462,-10.10601 -7.2100396,-8.19104 -9.3766251,-20.26932 -5.62298,-31.34697 2.568108,-7.57893 10.971021,-15.98185 18.549951,-18.54995 12.285024,-4.16276 24.11621,-1.49384 33.070123,7.46007 12.665061,12.66506 12.665061,31.49494 0,44.16 -8.284004,8.284 -19.296985,11.36149 -29.998632,8.38286 z M 37,201.59878 c 0,-2.82543 -0.59099,-3.74992 -3.490937,-5.46093 -9.684014,-5.71371 -9.824021,-18.317 -0.268203,-24.14325 8.679071,-5.2917 20.786998,1.71923 20.73344,12.0054 -0.03715,7.13517 -6.531507,16.16904 -13.835391,19.24551 L 37.5,204.35705 l 2.456052,0.41803 c 3.791395,0.64531 9.701396,-1.53542 13.717508,-5.06161 11.771054,-10.33512 8.62759,-29.09548 -5.891441,-35.16042 -10.152095,-4.24077 -22.108434,0.62734 -26.886256,10.94695 -4.7646,10.29105 2.68e-4,22.69471 10.604137,27.60414 5.335212,2.47012 5.5,2.42502 5.5,-1.50536 z m 82.197,3.68519 c -0.98578,-0.36766 -0.8941,-0.78497 0.37661,-1.71414 1.37495,-1.00538 1.46888,-1.62193 0.51782,-3.399 -1.4292,-2.67047 -1.00933,-2.69964 3.07825,-0.21383 2.91002,1.76968 3.03197,2.02696 1.27417,2.68803 -1.06912,0.40206 -2.39385,1.26965 -2.94385,1.92797 -0.55,0.65831 -1.58635,0.97825 -2.303,0.71097 z m -32.820821,-2.0124 c 1.581898,-0.23582 3.80425,-1.2934 4.938561,-2.35017 1.134311,-1.05677 2.394534,-1.9214 2.800497,-1.9214 0.405963,0 0.94391,-0.7875 1.195437,-1.75 0.380471,-1.45592 0.476817,-1.47858 0.573325,-0.13486 0.0638,0.88833 -0.81666,2.80083 -1.956579,4.25 -1.697002,2.15739 -2.829583,2.60771 -6.25,2.48503 -3.213878,-0.11527 -3.514016,-0.24873 -1.301241,-0.5786 z m 29.253201,-11.09838 c -0.70939,-4.29017 -0.85726,-70.73441 -0.15586,-70.033 0.26044,0.26043 0.50988,14.80839 0.55432,32.32879 0.0644,25.38057 0.37464,32.55853 1.52648,35.31527 1.78937,4.28255 1.79614,4.86729 0.0641,5.53195 -0.96631,0.37081 -1.5642,-0.57399 -1.989,-3.14301 z M 95.231229,157.75 l 0.231229,-37.25 0.518771,36.40477 c 0.410425,28.80155 0.773095,36.0981 1.736496,34.93642 0.769872,-0.92831 1.333962,-6.04218 1.533778,-13.90476 L 99.567556,165.5 99.783778,180.25 100,195 H 97.5 95 Z M 120.07895,70.416667 c 0.048,-1.164943 0.28494,-1.4019 0.60416,-0.604167 0.28887,0.721875 0.25335,1.584375 -0.0789,1.916667 -0.3323,0.332291 -0.56864,-0.258334 -0.52522,-1.3125 z M 120.42614,39.5 c 7.5e-4,-12.1 0.14515,-16.912559 0.32089,-10.694576 0.17573,6.217983 0.17511,16.117983 -10e-4,22 C 120.56916,56.687441 120.42538,51.6 120.42614,39.5 Z M 102.09068,17.077207 C 101.31556,16.586516 100.07806,16.416551 99.340684,16.699509 98.603308,16.982467 98,16.759028 98,16.202979 c 0,-0.556049 2.28393,-1.02869 5.07541,-1.050313 4.31189,-0.0334 4.89521,0.177813 3.87755,1.40401 -1.36746,1.647688 -2.83379,1.804666 -4.86228,0.520531 z M 109,16.5 c 0,-0.833333 0.88889,-1.5 2,-1.5 1.11111,0 2,0.666667 2,1.5 0,0.833333 -0.88889,1.5 -2,1.5 -1.11111,0 -2,-0.666667 -2,-1.5 z m 6.5,-0.5 c -0.33992,-0.55 0.0835,-1 0.94098,-1 0.85746,0 1.55902,0.45 1.55902,1 0,0.55 -0.42344,1 -0.94098,1 -0.51754,0 -1.2191,-0.45 -1.55902,-1 z"
         id="path1145" />
      <path
         style="fill:#8c8c8c;fill-opacity:1"
         d="m 122,204.01118 c 0,-0.7449 0.78912,-1.03808 1.96581,-0.73037 2.81969,0.73736 2.06811,-1.43316 -1.21581,-3.51122 -1.5125,-0.9571 -2.74311,-2.08431 -2.73469,-2.50489 0.0254,-1.27048 1.95288,-3.85215 1.96938,-2.63784 0.008,0.61977 2.28018,2.10117 5.04836,3.29201 2.76818,1.19084 4.76662,2.59625 4.44098,3.12315 -0.84527,1.36768 0.89762,1.18633 2.32597,-0.24202 0.72744,-0.72744 1.2,-0.79065 1.2,-0.16052 0,1.37924 -4.12269,3.1966 -9.03253,3.98171 C 123.12974,205.07496 122,204.90126 122,204.01118 Z M 81.518293,202.0296 c -0.237153,-0.38372 2.042798,-1.72309 5.066557,-2.97636 3.023759,-1.25328 6.15416,-2.93511 6.956447,-3.73739 C 94.819568,194.03758 95,194.15431 95,196.25959 c 0,1.53916 -0.898346,2.88323 -2.5,3.74041 -1.375,0.73588 -2.5,1.65055 -2.5,2.03262 0,0.90857 -7.920057,0.90575 -8.481707,-0.003 z M 117.837,190.5 c -1.37538,-3.30818 -1.68345,-8.03896 -1.78121,-27.35264 -0.11336,-22.39597 -0.0452,-23.27972 1.663,-21.57284 1.57584,1.57459 1.81923,4.26715 2.11097,23.35264 0.18137,11.86506 0.18137,23.37284 0,25.57284 l -0.32976,4 z M 96,167.71429 C 96,151.2381 96.359259,142 97,142 c 0.55,0 1.094631,0.5625 1.21029,1.25 0.11566,0.6875 0.505131,-5.5 0.865492,-13.75 0.360361,-8.25 0.487717,2.08694 0.283013,22.97098 -0.313605,31.99416 -0.607243,38.20604 -1.865492,39.46429 C 96.168899,193.25967 96,190.52017 96,167.71429 Z M 115.45018,87.5 c 3.4e-4,-19.25 0.13469,-26.983473 0.29856,-17.185495 0.16386,9.797978 0.16358,25.547978 -6.2e-4,34.999995 -0.16421,9.45203 -0.29828,1.4355 -0.29794,-17.8145 z M 95.157895,119 c 0,-1.375 0.226973,-1.9375 0.504386,-1.25 0.277412,0.6875 0.277412,1.8125 0,2.5 -0.277413,0.6875 -0.504386,0.125 -0.504386,-1.25 z m 0.268243,-25.5 c 7.56e-4,-12.1 0.145155,-16.912559 0.320888,-10.694576 0.175732,6.217983 0.175113,16.117983 -0.0014,21.999996 C 95.569163,110.68744 95.425382,105.6 95.426138,93.5 Z M 95.078947,63.416667 c 0.04798,-1.164943 0.284941,-1.4019 0.604167,-0.604167 0.288871,0.721875 0.253344,1.584375 -0.07895,1.916667 -0.332292,0.332291 -0.568641,-0.258334 -0.52522,-1.3125 z M 107.5,16 c 0.33992,-0.55 0.81648,-1 1.05902,-1 0.24254,0 0.44098,0.45 0.44098,1 0,0.55 -0.47656,1 -1.05902,1 -0.58246,0 -0.7809,-0.45 -0.44098,-1 z m 5.5,0 c 0,-0.55 0.42344,-1 0.94098,-1 0.51754,0 1.2191,0.45 1.55902,1 0.33992,0.55 -0.0835,1 -0.94098,1 C 113.70156,17 113,16.55 113,16 Z"
         id="path1143" />
      <path
         style="fill:#767676;fill-opacity:1"
         d="M 83.25,201.77951 C 82.0125,201.18268 81,200.32469 81,199.87287 c 0,-1.28549 5.09622,-3.54446 9.5,-4.211 3.995842,-0.6048 3.994054,-0.60248 -1.719157,2.2273 -5.351416,2.65058 -5.576466,2.90162 -3.5,3.9041 1.220536,0.58925 1.769157,1.07137 1.219157,1.07137 -0.55,0 -2.0125,-0.48831 -3.25,-1.08513 z m 48,-0.77788 c 0.1375,-0.5491 -2,-2.11031 -4.75,-3.46935 l -5,-2.47098 4,0.603 c 2.2,0.33165 5.26934,1.24588 6.82076,2.03162 2.2939,1.16178 2.59789,1.69717 1.62756,2.86635 -1.36671,1.64679 -3.07012,1.92415 -2.69832,0.43936 z M 119,144.42857 c 0,-0.86428 -0.69892,-2.27035 -1.55316,-3.12459 -1.33722,-1.33722 -1.49142,-4.55991 -1.10905,-23.17857 C 116.58205,106.23143 117.10521,94.8125 117.50036,92.75 119.26111,83.559688 120,90.875783 120,117.5 c 0,15.675 -0.225,28.5 -0.5,28.5 -0.275,0 -0.5,-0.70714 -0.5,-1.57143 z m -21.765863,-2.01746 c -0.971856,-1.04464 -1.204114,-7.81168 -1,-29.13589 C 96.453205,90.388779 96.676012,86.644079 97.5,92 c 0.911412,5.924176 1.047194,4.772527 1.532733,-13 l 0.532733,-19.5 0.09544,25 c 0.139691,36.59182 -0.825808,59.63197 -2.426769,57.91111 z m -2.15519,-71.994443 c 0.04798,-1.164943 0.284941,-1.4019 0.604167,-0.604167 0.288871,0.721875 0.253344,1.584375 -0.07895,1.916667 -0.332292,0.332291 -0.568641,-0.258334 -0.52522,-1.3125 z m 0,-4 c 0.04798,-1.164943 0.284941,-1.4019 0.604167,-0.604167 0.288871,0.721875 0.253344,1.584375 -0.07895,1.916667 -0.332292,0.332291 -0.568641,-0.258334 -0.52522,-1.3125 z M 95.427512,40 c 0,-12.375 0.143548,-17.4375 0.318995,-11.25 0.175447,6.1875 0.175447,16.3125 0,22.5 C 95.57106,57.4375 95.427512,52.375 95.427512,40 Z m 19.977278,-2.5 c 10e-4,-8.8 0.15425,-12.266133 0.33996,-7.702518 0.18572,4.563614 0.18468,11.763614 -0.002,16 C 115.55547,50.033867 115.40352,46.3 115.40479,37.5 Z"
         id="path1141" />
      <path
         style="fill:#606060;fill-opacity:1"
         d="M 97.132541,89.226118 C 96.283745,83.293909 95.982603,70.444994 96.191993,49.095547 96.467575,20.997118 96.657909,17.885471 98,19.537506 c 0.825,1.015526 1.05,1.576534 0.5,1.246684 -0.65088,-0.390349 -0.834143,2.597438 -0.524929,8.558042 L 98.450142,38.5 99.090519,30 c 0.352207,-4.675 0.422201,8.6 0.155543,29.5 -0.266659,20.9 -0.570364,38.101753 -0.6749,38.226118 -0.104536,0.124366 -0.751916,-3.700634 -1.438621,-8.5 z M 116.48201,66.5 c 0.3909,-33.732203 1.07584,-46.383977 2.59588,-47.95 C 119.64122,17.969629 120,31.490266 120,53.3 c 0,23.133333 -0.35201,35.7 -1,35.7 -0.55,0 -1.03163,1.2375 -1.07029,2.75 -0.0387,1.5125 -0.46364,3.65 -0.94441,4.75 -0.51271,1.17308 -0.7208,-11.230716 -0.50329,-30 z"
         id="path1139" />
      <path
         style="fill:#494949;fill-opacity:1"
         d="m 97.992307,29.295345 c -0.270769,-5.062561 -0.135466,-8.84572 0.300672,-8.407021 0.436139,0.438699 0.657677,4.580794 0.492307,9.204655 L 98.484614,38.5 Z M 116.03063,29 c 0,-3.575 0.43621,-7.175 0.96937,-8 0.68026,-1.052621 0.96937,0.438644 0.96937,5 0,3.575 -0.43621,7.175 -0.96937,8 -0.68026,1.052621 -0.96937,-0.438644 -0.96937,-5 z"
         id="path1137" />
    </g>
  </g>
</svg>
