<?xml version="1.0" encoding="UTF-8" standalone="no"?>
<!-- Created with Inkscape (http://www.inkscape.org/) -->

<svg
   width="100mm"
   height="100mm"
   viewBox="0 0 100 100"
   version="1.1"
   id="svg6369"
   inkscape:version="1.1.1 (3bf5ae0d25, 2021-09-20)"
   sodipodi:docname="add_list_type_device_7005.svg"
   xmlns:inkscape="http://www.inkscape.org/namespaces/inkscape"
   xmlns:sodipodi="http://sodipodi.sourceforge.net/DTD/sodipodi-0.dtd"
   xmlns="http://www.w3.org/2000/svg"
   xmlns:svg="http://www.w3.org/2000/svg">
  <sodipodi:namedview
     id="namedview6371"
     pagecolor="#505050"
     bordercolor="#ffffff"
     borderopacity="1"
     inkscape:pageshadow="0"
     inkscape:pageopacity="0"
     inkscape:pagecheckerboard="1"
     inkscape:document-units="mm"
     showgrid="false"
     inkscape:zoom="0.58974467"
     inkscape:cx="397.62971"
     inkscape:cy="239.08652"
     inkscape:window-width="1440"
     inkscape:window-height="890"
     inkscape:window-x="-6"
     inkscape:window-y="-6"
     inkscape:window-maximized="1"
     inkscape:current-layer="layer1" />
  <defs
     id="defs6366" />
  <g
     inkscape:label="Laag 1"
     inkscape:groupmode="layer"
     id="layer1">
    <g
       id="g6385"
       transform="translate(1.7945647,0.4486402)">
      <path
         style="fill:#d0d0d0;fill-opacity:1;stroke-width:0.602448"
         d="m 51.094258,43.063455 c -0.07265,-1.784477 -0.354856,-2.268243 -1.445775,-2.478363 l -1.355509,-0.261083 1.374416,-0.08204 c 1.592211,-0.09504 2.133918,0.922716 1.773019,3.331145 -0.219279,1.463336 -0.268798,1.390426 -0.346151,-0.509657 z m -3.58751,-0.192513 c 0.01228,-0.99404 0.147297,-1.327758 0.300044,-0.741595 0.152747,0.586163 0.142702,1.399468 -0.02232,1.807346 -0.165027,0.407876 -0.290002,-0.07171 -0.277724,-1.065751 z M 18.709167,29.667968 c -0.179983,-0.469031 -0.212095,-1.621213 -0.07136,-2.560406 0.219278,-1.463336 0.268798,-1.390426 0.346151,0.509657 0.07265,1.784477 0.354855,2.268243 1.445775,2.478363 l 1.355509,0.261082 -1.374417,0.08204 c -0.755929,0.04512 -1.521676,-0.301709 -1.70166,-0.770739 z M 79.13432,30.13017 c 1.004131,-0.217885 1.382974,-0.820137 1.577951,-2.508478 l 0.256583,-2.221754 -0.07184,2.409794 c -0.06323,2.121211 -0.252197,2.421611 -1.577951,2.508478 -1.260087,0.08256 -1.290264,0.05185 -0.184747,-0.18804 z M 46.786853,26.564347 c 2.023743,-0.452242 6.492917,-0.531207 6.23265,-0.110124 -0.153602,0.24851 -1.822111,0.420388 -3.707799,0.381952 -1.885689,-0.03844 -3.021871,-0.16076 -2.524851,-0.271828 z m 1.656733,-4.274417 c 0.414183,-0.167126 1.091938,-0.167126 1.506121,0 0.414183,0.167127 0.07531,0.303867 -0.753061,0.303867 -0.828366,0 -1.167243,-0.13674 -0.75306,-0.303867 z M 16.456291,11.393013 c -0.153587,-0.24851 1.702238,-0.451837 4.124056,-0.451837 2.421818,0 4.277643,0.203327 4.124056,0.451837 -0.153589,0.24851 -2.009413,0.451836 -4.124056,0.451836 -2.114643,0 -3.970468,-0.203326 -4.124056,-0.451836 z m 58.433388,-0.0066 c -0.155847,-0.252165 0.09926,-0.981735 0.566898,-1.6212673 0.467633,-0.6395315 0.850248,-0.8558677 0.850248,-0.480746 0,0.3751218 -0.338878,0.9013663 -0.753061,1.1694303 -0.442824,0.286601 0.984274,0.629707 3.464078,0.832843 l 4.217139,0.345452 -4.03097,0.106384 c -2.217034,0.05851 -4.158484,-0.09993 -4.314332,-0.352095 z"
         id="path6399" />
      <path
         style="fill:#b9b9b9;fill-opacity:1;stroke-width:0.602448"
         d="m 49.046034,45.18297 c 0.414183,-0.167127 1.091938,-0.167127 1.506121,0 0.414183,0.167127 0.07531,0.303866 -0.75306,0.303866 -0.828367,0 -1.167244,-0.136739 -0.753061,-0.303866 z M 21.574286,28.002245 c -0.07265,-1.784478 -0.354856,-2.268243 -1.445775,-2.478363 l -1.355509,-0.261083 1.374416,-0.08204 c 1.592211,-0.09504 2.133918,0.922716 1.773019,3.331145 -0.219279,1.463335 -0.268798,1.390425 -0.346151,-0.509657 z m 56.184789,-0.493737 c 0.04464,-1.74822 0.287103,-2.122268 1.418615,-2.188727 1.066858,-0.06266 1.107186,-0.02162 0.184747,0.18804 -0.797015,0.18115 -1.257442,0.891525 -1.418615,2.188726 -0.228774,1.841267 -0.236401,1.833506 -0.184747,-0.188039 z M 82.25446,10.188116 c -0.749367,-0.955517 -0.728059,-0.9768256 0.227461,-0.2274575 1.003528,0.7870195 1.322663,1.2817425 0.826824,1.2817425 -0.125098,0 -0.599526,-0.474428 -1.054285,-1.054285 z M 23.214519,9.5856675 C 22.465151,8.6301506 22.48646,8.608842 23.441977,9.3582101 c 1.003527,0.7870199 1.322663,1.2817419 0.826827,1.2817419 -0.125102,0 -0.59953,-0.474428 -1.054285,-1.0542845 z M 78.716618,8.832607 c 0,-0.3313466 0.271102,-0.6024484 0.602449,-0.6024484 0.331346,0 0.602448,0.2711018 0.602448,0.6024484 0,0.3313466 -0.271102,0.6024484 -0.602448,0.6024484 -0.331347,0 -0.602449,-0.2711018 -0.602449,-0.6024484 z M 17.869329,8.6051496 c 0,-0.125102 0.474428,-0.5995302 1.054285,-1.0542847 0.955517,-0.7493681 0.976825,-0.7280593 0.227457,0.2274574 -0.78702,1.0035272 -1.281742,1.3226628 -1.281742,0.8268273 z"
         id="path6397" />
      <path
         style="fill:#a3a3a3;fill-opacity:1;stroke-width:0.602448"
         d="m 17.314442,92.221509 c 0.02891,-0.701822 0.171662,-0.844572 0.36398,-0.363981 0.17403,0.43489 0.152626,0.954501 -0.04756,1.154695 -0.200188,0.200188 -0.342577,-0.155637 -0.316418,-0.790714 z"
         id="path6395" />
      <path
         style="fill:#767676;fill-opacity:1;stroke-width:0.602448"
         d="m 11.289958,38.603599 c 0.02891,-0.701818 0.171662,-0.844572 0.36398,-0.363979 0.174029,0.434892 0.152626,0.954504 -0.04756,1.154693 -0.200189,0.200188 -0.342577,-0.155633 -0.316418,-0.790714 z"
         id="path6393" />
      <path
         style="fill:#606060;fill-opacity:1;stroke-width:0.602448"
         d="m 14.177793,88.506409 c -0.749368,-0.955519 -0.728059,-0.976828 0.227458,-0.227461 0.579856,0.454759 1.054284,0.929187 1.054284,1.054285 0,0.495839 -0.494722,0.176704 -1.281742,-0.826824 z"
         id="path6391" />
      <path
         style="fill:#494949;fill-opacity:1;stroke-width:0.602448"
         d="m 62.602437,69.98112 c 0.0067,-1.325386 0.130062,-1.796651 0.274162,-1.04726 0.1441,0.749392 0.138629,1.833799 -0.01217,2.409794 -0.150786,0.575995 -0.268692,-0.03717 -0.262004,-1.362534 z"
         id="path6389" />
      <path
         style="fill:#333333;fill-opacity:1;stroke-width:0.602448"
         d="M 14.658362,97.650708 C 8.0282783,95.542681 3.6783703,88.071718 5.1783983,81.368889 7.6956539,70.120605 20.969385,66.121312 29.030479,74.182403 c 3.569474,3.569476 4.96898,8.126155 3.92651,12.784401 -1.84698,8.253175 -10.342658,13.213496 -18.298627,10.683904 z m 9.536675,-5.703596 c 7.773211,-4.723665 4.046802,-17.076894 -5.151324,-17.076894 -9.2022071,0 -12.8089143,12.317877 -5.019189,17.14188 4.17611,2.586173 5.302068,0.41766 1.481264,-2.852804 -2.868965,-2.455724 -3.519174,-4.771403 -2.149934,-7.65686 1.936426,-4.080714 6.979862,-4.974706 10.154583,-1.799989 3.745402,3.745403 2.047244,9.129641 -4.204893,13.332183 -1.866929,1.254906 2.710051,0.236895 4.889493,-1.087516 z m 21.30912,-9.955984 c -3.424001,-1.054291 -6.812592,-4.597856 -7.75949,-8.114371 -0.852369,-3.165457 0.0051,-10.698273 2.110409,-18.540747 2.297073,-8.556638 1.509714,-7.946705 10.258355,-7.946705 h 7.501323 l 0.868003,2.077422 c 2.170251,5.194142 3.467204,11.194292 3.787719,17.523249 0.302718,5.97768 0.207832,6.900571 -0.940983,9.152438 -1.52113,2.981662 -4.306686,5.222831 -7.614484,6.126377 -3.081991,0.841867 -4.759177,0.785147 -8.210852,-0.277663 z M 17.482675,67.297857 C 13.927058,66.449965 11.378258,64.354421 9.6795382,60.882363 8.2190985,57.897331 8.0950887,57.137193 8.4273329,53.206749 8.8219035,48.538983 10.030314,42.462071 10.662334,41.967269 c 0.211618,-0.165673 0.715146,-1.634382 1.118952,-3.263797 0.403805,-1.629415 1.115301,-3.874696 1.581101,-4.989514 l 0.84691,-2.026942 7.060022,0.169927 7.060022,0.169928 2.290375,6.626932 c 2.85365,8.256698 3.995179,16.016602 2.920691,19.8543 -1.904994,6.80397 -8.726551,10.537981 -16.057732,8.789754 z m 57.705511,-0.28932 c -3.112579,-1.012974 -5.2036,-2.831561 -6.771821,-5.88953 -2.167447,-4.226451 -1.059321,-15.0614 2.574859,-25.176222 l 1.406958,-3.915914 7.360576,-0.169029 7.360582,-0.169027 0.958965,2.277597 c 2.789782,6.625838 4.05593,12.514615 4.124687,19.183645 0.06514,6.31759 -0.01753,6.795104 -1.588692,9.175438 -2.963306,4.489488 -9.719029,6.540385 -15.426114,4.683042 z M 48.223115,44.11103 c -0.599344,-1.561865 0.05534,-3.043606 1.431522,-3.239946 1.18145,-0.168558 1.349355,0.07508 1.349355,1.957957 0,1.759913 -0.222262,2.15047 -1.223805,2.15047 -0.673092,0 -1.373775,-0.390816 -1.557072,-0.868481 z M 19.074226,27.809732 c 0,-1.706937 0.229504,-2.10857 1.204897,-2.10857 0.975393,0 1.204897,0.401633 1.204897,2.10857 0,1.706937 -0.229504,2.108569 -1.204897,2.108569 -0.975393,0 -1.204897,-0.401632 -1.204897,-2.108569 z m 59.039944,0 c 0,-1.706937 0.229503,-2.10857 1.204897,-2.10857 0.975394,0 1.204896,0.401633 1.204896,2.10857 0,1.706937 -0.229502,2.108569 -1.204896,2.108569 -0.975394,0 -1.204897,-0.401632 -1.204897,-2.108569 z M 46.184404,25.767904 c 0,-0.294639 0.496464,-1.148814 1.103253,-1.898167 1.399644,-1.728487 3.810103,-1.270324 4.805032,0.913308 l 0.692816,1.520566 h -3.30055 c -1.815303,0 -3.300551,-0.241068 -3.300551,-0.535707 z m 4.217139,-1.271638 c 0,-0.331347 -0.406653,-0.602449 -0.903673,-0.602449 -0.497019,0 -0.903672,0.271102 -0.903672,0.602449 0,0.331346 0.406653,0.602448 0.903672,0.602448 0.49702,0 0.903673,-0.271102 0.903673,-0.602448 z M 17.316854,10.188116 c 1.985059,-2.6161715 2.496018,-3.0144356 3.522896,-2.7459009 0.602039,0.1574366 1.67916,1.0768844 2.3936,2.043217 l 1.298983,1.7569689 h -4.007717 c -3.719986,0 -3.950285,-0.07569 -3.207762,-1.054285 z M 21.48402,8.832607 c 0,-0.3313466 -0.406653,-0.6024484 -0.903673,-0.6024484 -0.49702,0 -0.903673,0.2711018 -0.903673,0.6024484 0,0.3313466 0.406653,0.6024484 0.903673,0.6024484 0.49702,0 0.903673,-0.2711018 0.903673,-0.6024484 z m 53.963075,1.948732 c 0.355516,-0.243436 0.823932,-0.9235522 1.040934,-1.5113695 0.412635,-1.1177834 2.698469,-2.2530698 3.73471,-1.8548893 0.331347,0.1273215 1.064268,1.0405543 1.628714,2.0294071 l 1.026264,1.7979137 -4.038507,-0.0092 c -2.221179,-0.0051 -3.747632,-0.2084 -3.392115,-0.451836 z m 4.235953,-2.3880175 c -0.612401,-0.6123978 -1.117692,0.3095934 -0.615232,1.1225915 0.37956,0.614146 0.521467,0.614621 0.725528,0.00241 0.139527,-0.4185721 0.08989,-0.9248312 -0.110296,-1.12502 z"
         id="path6387" />
    </g>
  </g>
</svg>
