<?xml version="1.0" encoding="UTF-8" standalone="no"?>
<!-- Created with Inkscape (http://www.inkscape.org/) -->

<svg
   width="100mm"
   height="100mm"
   viewBox="0 0 100 100"
   version="1.1"
   id="svg4986"
   inkscape:version="1.1.1 (3bf5ae0d25, 2021-09-20)"
   sodipodi:docname="add_list_type_device_6182.svg"
   xmlns:inkscape="http://www.inkscape.org/namespaces/inkscape"
   xmlns:sodipodi="http://sodipodi.sourceforge.net/DTD/sodipodi-0.dtd"
   xmlns="http://www.w3.org/2000/svg"
   xmlns:svg="http://www.w3.org/2000/svg">
  <sodipodi:namedview
     id="namedview4988"
     pagecolor="#505050"
     bordercolor="#ffffff"
     borderopacity="1"
     inkscape:pageshadow="0"
     inkscape:pageopacity="0"
     inkscape:pagecheckerboard="1"
     inkscape:document-units="mm"
     showgrid="false"
     inkscape:zoom="0.58974467"
     inkscape:cx="397.62971"
     inkscape:cy="256.04301"
     inkscape:window-width="1440"
     inkscape:window-height="890"
     inkscape:window-x="-6"
     inkscape:window-y="-6"
     inkscape:window-maximized="1"
     inkscape:current-layer="layer1" />
  <defs
     id="defs4983" />
  <g
     inkscape:label="Laag 1"
     inkscape:groupmode="layer"
     id="layer1">
    <g
       id="g5002"
       transform="translate(-0.44864311)">
      <path
         style="fill:#d0d0d0;fill-opacity:1;stroke-width:0.605218"
         d="m 81.574117,67.726036 c -0.752812,-0.959912 -0.731406,-0.981318 0.228506,-0.228506 1.008141,0.790639 1.328743,1.287637 0.830625,1.287637 -0.125673,0 -0.602282,-0.476609 -1.059131,-1.059131 z m -0.528016,-4.616335 c 0,-0.125673 0.476609,-0.602282 1.059131,-1.059131 0.959912,-0.75281 0.981318,-0.731403 0.228506,0.228506 -0.790639,1.008142 -1.287637,1.328744 -1.287637,0.830625 z m 5.974976,-0.830625 c -0.752812,-0.959909 -0.731406,-0.981316 0.228506,-0.228506 1.008141,0.790639 1.328743,1.287637 0.830625,1.287637 -0.125673,0 -0.602282,-0.476609 -1.059131,-1.059131 z m -5.44696,-4.841742 c -0.752812,-0.959909 -0.731406,-0.981316 0.228506,-0.228503 1.008141,0.790638 1.328743,1.287634 0.830625,1.287634 -0.125673,0 -0.602282,-0.476609 -1.059131,-1.059131 z m 4.918944,0.830628 c 0,-0.125677 0.476609,-0.602286 1.059131,-1.059131 0.959912,-0.752813 0.981318,-0.731406 0.228506,0.228503 -0.790639,1.00814 -1.287637,1.328743 -1.287637,0.830628 z m -5.44696,-5.44696 c 0,-0.125677 0.476609,-0.602286 1.059131,-1.059131 0.959912,-0.752813 0.981318,-0.731406 0.228506,0.228503 -0.790639,1.00814 -1.287637,1.328743 -1.287637,0.830628 z m 0.528016,-5.067152 c -0.752812,-0.95991 -0.731406,-0.981316 0.228506,-0.228503 0.582522,0.456845 1.059131,0.933454 1.059131,1.059131 0,0.498114 -0.496999,0.177512 -1.287637,-0.830628 z m -0.528016,-4.616332 c 0,-0.125677 0.476609,-0.602286 1.059131,-1.059131 0.959912,-0.752813 0.981318,-0.731407 0.228506,0.228503 -0.790639,1.00814 -1.287637,1.328742 -1.287637,0.830628 z m 5.974976,-0.830628 c -0.752812,-0.95991 -0.731406,-0.981316 0.228506,-0.228503 1.008141,0.790637 1.328743,1.287634 0.830625,1.287634 -0.125673,0 -0.602282,-0.476609 -1.059131,-1.059131 z"
         id="path5016" />
      <path
         style="fill:#b9b9b9;fill-opacity:1;stroke-width:0.605218"
         d="m 47.456514,89.362572 c -0.205725,-0.33287 -1.295117,-0.605218 -2.420871,-0.605218 -1.125754,0 -2.18469,-0.223071 -2.35319,-0.49571 -0.378487,-0.612401 3.122135,-0.228064 4.774061,0.524155 0.66574,0.303148 2.572176,0.644025 4.236524,0.757497 l 3.026089,0.206313 -3.444284,0.10909 c -1.894356,0.06 -3.612604,-0.163257 -3.818329,-0.496127 z M 62.46537,87.701079 c 2.928958,-0.111184 7.558874,-0.110615 10.288702,0.0012 2.729835,0.111874 0.333415,0.202845 -5.325371,0.202149 -5.658787,-6.05e-4 -7.892285,-0.09224 -4.963331,-0.203414 z m 16.046381,-0.567591 c 0.436889,-0.174829 0.958889,-0.153332 1.160003,0.04775 0.201108,0.201108 -0.156352,0.344151 -0.794348,0.317872 -0.705049,-0.02905 -0.848455,-0.17245 -0.365655,-0.365648 z M 62.888157,82.856481 c -6.05e-4,-0.249653 2.382264,-0.380918 5.295656,-0.291703 9.821323,0.300751 10.789108,0.526824 2.72489,0.636525 -4.410525,0.05998 -8.019771,-0.09517 -8.020546,-0.344822 z m 5.317353,-1.808633 c 1.758726,-0.122648 4.482206,-0.121358 6.052178,0.003 1.569971,0.124221 0.131017,0.22456 -3.197681,0.222986 -3.328697,-0.0018 -4.613224,-0.103207 -2.854497,-0.225849 z M 88.356496,78.11561 c 0.02905,-0.705048 0.172451,-0.848455 0.365648,-0.365654 0.17483,0.436888 0.153332,0.958889 -0.04775,1.160002 -0.201114,0.201108 -0.344151,-0.156352 -0.317873,-0.794348 z m -16.53291,-1.28544 c 0.752837,-0.144762 1.842229,-0.139267 2.420872,0.01223 0.578642,0.15148 -0.03734,0.269927 -1.368797,0.263209 -1.331479,-0.0067 -1.804911,-0.13066 -1.052075,-0.275422 z m 12.085927,-0.733875 c -0.263251,-1.006689 -0.184488,-1.242984 0.264626,-0.79387 0.351692,0.351692 0.52036,0.996684 0.374817,1.433313 -0.151093,0.453278 -0.425432,0.178932 -0.639443,-0.639443 z m 5.004419,-0.920621 c 0,-0.812529 0.223071,-1.615193 0.495709,-1.783692 0.272639,-0.168499 0.377898,0.496297 0.233917,1.477325 -0.317461,2.162981 -0.729626,2.336049 -0.729626,0.306367 z m 5.09965,-20.007907 c 4.53e-4,-7.323135 0.08785,-10.235781 0.194208,-6.472547 0.106355,3.763234 0.10598,9.75489 -6.05e-4,13.314788 -0.106815,3.559904 -0.193833,0.480894 -0.193373,-6.842241 z m -21.054177,9.683485 c -0.1916,-0.499305 -0.08456,-0.907827 0.237856,-0.907827 0.322424,0 0.586226,0.408522 0.586226,0.907827 0,0.499304 -0.107038,0.907826 -0.237856,0.907826 -0.130824,0 -0.39462,-0.408522 -0.586226,-0.907826 z M 8.537954,50.931243 C 8.550288,49.932634 8.6859285,49.597382 8.8393778,50.186239 8.9928266,50.775096 8.9827352,51.59214 8.8169548,52.001892 8.651169,52.411644 8.5256196,51.929852 8.537954,50.931243 Z m 5.44696,0 c 0.01233,-0.998609 0.147974,-1.333861 0.301424,-0.745004 0.153449,0.588857 0.143357,1.405901 -0.02242,1.815653 -0.165786,0.409752 -0.291335,-0.07204 -0.279001,-1.070649 z M 82.71045,35.071067 c 0.748957,-0.144255 1.974523,-0.144255 2.72348,0 0.748957,0.144256 0.136174,0.262283 -1.36174,0.262283 -1.497914,0 -2.110697,-0.118027 -1.36174,-0.262283 z M 44.290639,19.948335 c 0.588857,-0.153449 1.405901,-0.143358 1.815654,0.02242 0.409751,0.165785 -0.07204,0.291335 -1.07065,0.279 -0.998609,-0.01233 -1.333861,-0.147974 -0.745004,-0.301423 z m 0,-5.44696 c 0.588857,-0.153449 1.405901,-0.143358 1.815654,0.02242 0.409751,0.165785 -0.07204,0.291335 -1.07065,0.279 -0.998609,-0.01233 -1.333861,-0.147974 -0.745004,-0.301423 z"
         id="path5014" />
      <path
         style="fill:#a3a3a3;fill-opacity:1;stroke-width:0.605218"
         d="m 82.861754,85.502759 c 0,-0.125673 0.476609,-0.602282 1.059131,-1.059131 0.959912,-0.752812 0.981318,-0.731406 0.228506,0.228506 -0.790638,1.008141 -1.287637,1.328744 -1.287637,0.830625 z m 2.420871,-2.420871 c 0,-0.125674 0.476609,-0.602283 1.059131,-1.059131 0.959912,-0.752812 0.981319,-0.731406 0.228506,0.228506 -0.790638,1.008141 -1.287637,1.328743 -1.287637,0.830625 z m -3.328698,-2.192365 c 0.602489,-0.66574 1.231606,-1.210436 1.398041,-1.210436 0.166435,0 -0.190335,0.544696 -0.792823,1.210436 -0.602488,0.665739 -1.231606,1.210435 -1.398041,1.210435 -0.166435,0 0.190335,-0.544696 0.792823,-1.210435 z m -2.72348,-1.438942 c 0,-0.125673 0.476609,-0.602282 1.059131,-1.059131 0.959912,-0.752812 0.981319,-0.731406 0.228506,0.228506 -0.790638,1.008142 -1.287637,1.328744 -1.287637,0.830625 z M 44.290639,78.049242 c 0.588857,-0.153447 1.405901,-0.143358 1.815654,0.02239 0.409751,0.165787 -0.07204,0.291334 -1.07065,0.278999 -0.998609,-0.01235 -1.333861,-0.147975 -0.745004,-0.301422 z m 31.913719,-1.62475 c 0,-0.125673 0.476609,-0.602282 1.059132,-1.059131 0.959911,-0.752812 0.981318,-0.731405 0.228506,0.228506 -0.790639,1.008142 -1.287638,1.328744 -1.287638,0.830625 z m 0.657261,-4.239078 -1.461002,-1.887202 1.731516,1.646011 c 0.952334,0.905302 1.609783,1.754544 1.461002,1.887196 -0.148781,0.132657 -0.927962,-0.608044 -1.731516,-1.646005 z m -10.945963,1.21299 c 0,-0.125674 0.476609,-0.602283 1.059131,-1.059132 0.959912,-0.752812 0.981319,-0.731405 0.228506,0.228506 -0.790638,1.008142 -1.287637,1.328744 -1.287637,0.830626 z m 25.116538,-1.587148 c 0.602488,-0.665739 1.231606,-1.210435 1.398041,-1.210435 0.166435,0 -0.190335,0.544696 -0.792823,1.210435 -0.602488,0.66574 -1.231606,1.210436 -1.398041,1.210436 -0.166435,0 0.190335,-0.544696 0.792823,-1.210436 z M 12.169261,50.931243 c 0.01233,-0.998609 0.147974,-1.333861 0.301423,-0.745004 0.153449,0.588857 0.143358,1.405901 -0.02242,1.815653 -0.165785,0.409752 -0.291335,-0.07204 -0.279,-1.070649 z m 5.44696,0 c 0.01233,-0.998609 0.147974,-1.333861 0.301423,-0.745004 0.153449,0.588857 0.143358,1.405901 -0.02242,1.815653 -0.165785,0.409752 -0.291335,-0.07204 -0.279,-1.070649 z m 54.4696,0 c 0.01235,-0.998609 0.147976,-1.333861 0.301423,-0.745004 0.153447,0.588857 0.143358,1.405901 -0.02239,1.815653 -0.165818,0.409752 -0.291364,-0.07204 -0.27903,-1.070649 z m 2.062619,-9.885224 c -0.17144,-0.277392 0.07286,-0.504348 0.542874,-0.504348 0.470018,0 0.714314,0.226956 0.542874,0.504348 -0.171434,0.277392 -0.41573,0.504348 -0.542874,0.504348 -0.127144,0 -0.37144,-0.226956 -0.542874,-0.504348 z m 16.535336,-2.975654 -1.467235,-1.664349 1.664349,1.467238 c 0.915391,0.806981 1.664348,1.555938 1.664348,1.664349 0,0.474657 -0.490105,0.08835 -1.861462,-1.467238 z M 23.38902,30.581347 c 0.41054,-0.413617 0.898894,-0.599572 1.085233,-0.413233 0.186339,0.186339 -0.149556,0.524753 -0.746435,0.752031 -0.862555,0.328443 -0.932073,0.258925 -0.338798,-0.338798 z m -1.049044,-0.75862 c 0,-0.125678 0.476609,-0.602287 1.059131,-1.059132 0.95991,-0.752812 0.981316,-0.731406 0.228503,0.228503 -0.790637,1.008141 -1.287634,1.328743 -1.287634,0.830629 z m 44.103696,-0.830629 c -0.752812,-0.959909 -0.731405,-0.981315 0.228506,-0.228503 1.008142,0.790638 1.328744,1.287635 0.830626,1.287635 -0.125674,0 -0.602283,-0.476609 -1.059132,-1.059132 z M 44.290639,23.579641 c 0.588857,-0.153448 1.405901,-0.143357 1.815654,0.02242 0.409751,0.165785 -0.07204,0.291334 -1.07065,0.279 -0.998609,-0.01233 -1.333861,-0.147974 -0.745004,-0.301424 z m 1.539352,-1.204458 c 0.436892,-0.174829 0.958892,-0.153328 1.160001,0.04778 0.201109,0.201109 -0.156348,0.344152 -0.794348,0.317873 C 45.4906,22.7118 45.347189,22.568387 45.829991,22.375185 Z m -1.539352,-4.242502 c 0.588857,-0.153448 1.405901,-0.143357 1.815654,0.02242 0.409751,0.165785 -0.07204,0.291334 -1.07065,0.279 -0.998609,-0.01233 -1.333861,-0.147974 -0.745004,-0.301424 z"
         id="path5012" />
      <path
         style="fill:#8c8c8c;fill-opacity:1;stroke-width:0.605218"
         d="m 16.940796,92.640837 c 0.02904,-0.705049 0.172452,-0.848455 0.365653,-0.365655 0.17483,0.436889 0.153328,0.958889 -0.04778,1.160003 -0.201109,0.201108 -0.344152,-0.156352 -0.317872,-0.794348 z m 27.67876,-71.476089 c 0.436891,-0.17483 0.958892,-0.153328 1.160001,0.04778 0.201108,0.201109 -0.156349,0.344151 -0.794349,0.317872 -0.705044,-0.02904 -0.848455,-0.172451 -0.365652,-0.365652 z"
         id="path5010" />
      <path
         style="fill:#767676;fill-opacity:1;stroke-width:0.605218"
         d="m 44.290639,80.470113 c 0.588857,-0.153447 1.405901,-0.143358 1.815654,0.02245 0.409751,0.165787 -0.07204,0.291333 -1.07065,0.278999 -0.998609,-0.01235 -1.333861,-0.147976 -0.745004,-0.301423 z m 24.701539,-4.593591 c 0.138698,-0.09419 0.796872,-0.570799 1.462612,-1.059131 1.119659,-0.821287 1.14814,-0.808444 0.37981,0.171259 -0.456849,0.582522 -1.115023,1.059131 -1.462612,1.059131 -0.347588,0 -0.518502,-0.07707 -0.37981,-0.171259 z M 25.288867,70.146907 c -0.752813,-0.959911 -0.731407,-0.981318 0.228503,-0.228506 0.582522,0.456849 1.059131,0.933458 1.059131,1.059131 0,0.498119 -0.496997,0.177517 -1.287634,-0.830625 z m 38.205918,0.830625 c 0,-0.125673 0.476609,-0.602282 1.059131,-1.059131 0.959912,-0.752812 0.981319,-0.731405 0.228506,0.228506 -0.790638,1.008142 -1.287637,1.328744 -1.287637,0.830625 z m 5.285567,-4.688337 c 0.410543,-0.413618 0.898893,-0.599571 1.085234,-0.413231 0.18634,0.186341 -0.149556,0.524754 -0.746433,0.752032 -0.862557,0.328439 -0.932072,0.258924 -0.338801,-0.338801 z M 24.760847,32.243598 c 0,-0.125677 0.476609,-0.602286 1.059131,-1.059131 0.95991,-0.752813 0.981316,-0.731407 0.228503,0.228503 -0.790637,1.00814 -1.287634,1.328742 -1.287634,0.830628 z M 64.022801,31.41297 c -0.752812,-0.95991 -0.731405,-0.981316 0.228506,-0.228503 1.008142,0.790637 1.328744,1.287634 0.830625,1.287634 -0.125673,0 -0.602282,-0.476609 -1.059131,-1.059131 z M 43.40912,15.717788 c 0.436892,-0.17483 0.958892,-0.153328 1.160001,0.04778 0.201108,0.201109 -0.156348,0.344151 -0.794348,0.317872 -0.705044,-0.02904 -0.848455,-0.172451 -0.365653,-0.365652 z"
         id="path5008" />
      <path
         style="fill:#606060;fill-opacity:1;stroke-width:0.605218"
         d="m 19.015563,93.606026 c -0.212032,-0.343074 0.0309,-0.444533 0.569499,-0.237857 1.04849,0.402343 1.240326,0.836145 0.369761,0.836145 -0.313225,0 -0.735892,-0.269231 -0.93926,-0.598288 z m -5.225834,-4.697368 c -0.752813,-0.959911 -0.731406,-0.981318 0.228503,-0.228506 0.582522,0.456849 1.059131,0.933458 1.059131,1.059132 0,0.498118 -0.496996,0.177516 -1.287634,-0.830626 z M 38.983465,86.52295 c -4.07368,-0.936737 -5.749569,-1.502658 -5.749569,-1.94152 0,-0.273879 0.68087,-0.367809 1.513045,-0.208728 0.832174,0.159082 1.513044,0.01465 1.513044,-0.320922 0,-0.335594 -0.68087,-0.781052 -1.513044,-0.989913 -0.832175,-0.208866 -1.513045,-0.617086 -1.513045,-0.907161 0,-0.290074 1.293653,-0.172002 2.874785,0.262374 1.581131,0.434377 3.623741,0.954441 4.539133,1.155688 1.270094,0.279229 1.664349,0.721589 1.664349,1.867418 0,1.527563 -0.577477,1.715405 -3.328698,1.082764 z m 19.669578,-3.212556 c 1.173371,-0.758289 1.815653,-0.758289 1.815653,0 0,0.33287 -0.612783,0.601048 -1.36174,0.595952 -1.101156,-0.0075 -1.188017,-0.12154 -0.453913,-0.595952 z M 61.60348,83.051712 C 61.5619,82.861117 61.493784,82.455524 61.452175,82.150391 61.285528,80.928342 60.432192,80.774229 59.0061,81.708643 c -0.825204,0.540695 -1.630205,0.773002 -1.788891,0.516244 -0.158686,-0.256757 1.236124,-1.265086 3.099578,-2.240734 3.856804,-2.019291 9.77831,-7.261009 11.681532,-10.34049 1.331654,-2.15466 2.390386,-2.251023 2.390386,-0.217558 0,0.646094 0.340435,1.178886 0.756522,1.183982 0.482698,0.0061 0.531805,0.170205 0.135666,0.453913 -0.34147,0.244556 -1.521832,1.602126 -2.623032,3.016823 -1.101194,1.414696 -2.239542,2.572175 -2.529659,2.572175 -0.808795,0 -5.120372,3.049765 -5.120372,3.62186 0,0.596672 -3.293777,3.283336 -3.40435,2.776854 z m 9.52456,-8.535865 c 0.552067,-0.84256 0.832362,-1.703325 0.622878,-1.912809 -0.52102,-0.521019 -2.809173,1.621778 -2.809173,2.630719 0,1.303257 1.098271,0.94262 2.186295,-0.71791 z m -31.539357,6.572496 c -4.022969,-0.884011 -7.426367,-2.258364 -8.044801,-3.248634 -0.588568,-0.942445 -0.556108,-1.081663 0.185826,-0.796956 1.593716,0.611566 0.910542,-0.652631 -1.0913,-2.019418 -4.630335,-3.16144 -7.207961,-4.557787 -8.562785,-4.638619 -0.797452,-0.04757 -1.412991,-0.222678 -1.367866,-0.389113 0.04512,-0.166435 -0.661524,-1.409885 -1.570333,-2.763219 -3.812656,-5.677548 -5.511489,-14.878474 -4.093476,-22.170388 1.173376,-6.033913 3.89152,-11.04278 8.485594,-15.636854 9.480654,-9.480654 22.734581,-11.706385 35.071261,-5.889515 4.877823,2.299944 11.303825,8.565378 13.534483,13.196289 2.096686,4.352793 2.230869,5.169333 0.8092,4.924285 -0.949435,-0.163652 -1.062581,0.04011 -0.672131,1.210435 0.258211,0.773967 0.538463,5.440525 0.622782,10.37013 0.08432,4.929605 0.299843,9.109453 0.478939,9.288555 0.655535,0.655536 -3.561767,6.662764 -7.22371,10.289622 -5.832565,5.776683 -14.420735,9.261085 -16.846745,6.835076 -0.774807,-0.774806 -9.412329,-0.748134 -9.412329,0.02907 0,0.33287 0.833117,0.605218 1.851371,0.605218 1.080133,0 1.695553,0.252122 1.477327,0.605218 -0.380874,0.616269 -1.462175,0.675471 -3.631307,0.19882 z M 51.337998,77.535842 C 62.104037,74.998127 70.195768,66.2376 72.068924,55.091463 75.080808,37.169371 58.797514,20.886079 40.875423,23.897962 25.847618,26.423448 15.545653,40.472916 18.002362,55.091463 c 1.835851,10.924161 9.600106,19.541639 20.073276,22.279154 4.92917,1.2884 8.318237,1.33062 13.26236,0.165225 z m 7.950318,-0.595777 c 1.544878,-0.798887 2.4458,-2.10272 1.452934,-2.10272 -0.842568,0 -3.90386,1.910564 -3.90386,2.436413 0,0.796358 0.360579,0.747269 2.450926,-0.333693 z m 9.687588,-8.306202 c 1.239008,-1.485205 1.554919,-3.101868 0.540029,-2.76357 -0.34993,0.116644 -1.193719,1.092558 -1.875085,2.168695 -1.435317,2.266928 -0.432568,2.713736 1.335056,0.594875 z m -46.03071,0.396036 c 0,-0.899105 -2.574066,-3.852798 -3.083324,-3.538054 -0.635261,0.39261 1.630343,3.89854 2.519318,3.89854 0.310203,0 0.564006,-0.162216 0.564006,-0.360486 z M 17.127538,55.583855 c -0.212204,-1.061023 -0.624131,-1.929132 -0.915392,-1.929132 -0.61423,0 -0.706345,2.466409 -0.146594,3.925097 0.63831,1.663409 1.478165,0.08493 1.061986,-1.995965 z m 0.737609,-12.690661 c 0.521728,-2.608637 -0.762771,-2.592124 -1.471194,0.01891 -0.29352,1.081827 -0.406741,2.19495 -0.251604,2.473605 0.458477,0.823511 1.304353,-0.400288 1.722798,-2.492518 z M 68.306273,32.429611 c -1.220973,-1.714697 -2.390617,-2.326065 -2.390617,-1.249565 0,0.977133 2.514553,3.726463 3.085509,3.373593 0.312238,-0.192975 -4.6e-4,-1.148788 -0.694892,-2.124028 z m -44.731049,0.0076 c 0.724719,-1.017775 1.128617,-2.03908 0.897552,-2.269567 -0.455123,-0.453982 -3.343235,2.611535 -3.343235,3.548598 0,1.136878 1.155822,0.532413 2.445683,-1.279031 z m 36.288254,-6.607008 c 0,-0.525849 -3.061292,-2.436413 -3.90386,-2.436413 -0.94833,0 -0.123299,1.28536 1.331685,2.074702 1.977217,1.072658 2.572175,1.156324 2.572175,0.361711 z m -26.35545,-0.717906 c 1.516918,-0.691155 2.093681,-1.718507 0.964781,-1.718507 -1.009684,0 -3.659784,1.385084 -3.659784,1.9128 0,0.699149 0.872101,0.636276 2.695003,-0.194293 z m 14.10282,-3.080247 c -0.283128,-0.859712 -2.517608,-1.326858 -3.868016,-0.808658 -1.518989,0.582891 -0.273739,1.56518 1.984181,1.56518 1.435782,0 2.051543,-0.247281 1.883835,-0.756522 z M 14.075337,70.818675 C 14.28763,70.439185 13.78199,68.913237 12.951693,67.427676 12.121397,65.942114 10.898266,62.600429 10.233624,60.001703 6.4080193,45.043732 12.145569,29.854714 24.897861,21.181065 41.392303,9.9621396 63.530021,14.244807 74.81614,30.838039 c 1.762128,2.590741 3.195211,5.175733 3.184626,5.744425 -0.01725,0.925693 -0.110029,0.914071 -0.886003,-0.110969 -0.476712,-0.629727 -0.975459,-1.446771 -1.108329,-1.815654 -0.132869,-0.368883 -0.478013,-0.448853 -0.766986,-0.177712 -0.292599,0.274543 -0.07705,1.274198 0.486449,2.256043 0.556522,0.969682 0.814914,1.884776 0.574207,2.033541 -0.240707,0.148767 -1.234469,-1.274975 -2.208355,-3.163869 -2.18411,-4.236179 -9.211233,-11.351584 -13.426646,-13.595323 -3.926337,-2.089874 -11.513838,-4.061647 -15.62946,-4.061647 -4.115623,0 -11.703123,1.971773 -15.629461,4.061647 -4.026947,2.143426 -11.149835,9.266314 -13.293261,13.293261 -2.089873,3.926338 -4.061647,11.513838 -4.061647,15.629461 0,4.299071 2.051772,11.957693 4.244297,15.842634 l 1.818229,3.221726 h -1.397175 c -0.768446,0 -1.763947,0.340435 -2.212224,0.756522 -0.483883,0.449138 -0.658217,0.476173 -0.429064,0.06655 z m 1.607244,-2.912859 c 0,-0.772155 -1.472853,-3.357173 -1.9128,-3.357173 -0.689524,0 -0.639227,1.044945 0.11844,2.460658 0.549485,1.026722 1.79436,1.648698 1.79436,0.896515 z M 11.446056,53.690441 c 0,-1.741377 -0.842237,-2.93676 -1.415562,-2.0091 -0.440867,0.713337 0.274192,3.789035 0.880899,3.789035 0.294065,0 0.534663,-0.80097 0.534663,-1.779935 z m 1.815654,-14.67662 c 0,-1.547352 -0.997746,-1.361618 -1.434193,0.26698 -0.665069,2.481693 -0.440417,3.306237 0.545614,2.002587 0.488718,-0.646144 0.888579,-1.667449 0.888579,-2.269567 z m 6.155826,-9.96422 c 1.153615,-1.044006 1.498028,-2.629678 0.571175,-2.629678 -0.511017,0 -2.490477,2.628763 -2.490477,3.307404 0,0.610542 0.813004,0.323461 1.919302,-0.677726 z m 50.129427,-2.910993 c 0,-1.003346 -2.311357,-2.451693 -2.926621,-1.833886 -0.221141,0.222058 0.240876,0.924994 1.026709,1.56208 1.71638,1.39149 1.899912,1.417747 1.899912,0.271806 z M 30.869764,20.337379 c 0.653179,-0.349571 1.028341,-0.893268 0.833692,-1.208216 -0.330117,-0.534141 -3.91652,0.891377 -3.91652,1.556733 0,0.513735 1.86583,0.302801 3.082828,-0.348517 z m 27.178061,-1.719677 c 0,-0.65429 -3.020512,-1.483362 -3.533889,-0.969984 -0.490792,0.490792 1.155372,1.488779 2.474758,1.500324 0.582522,0.0051 1.059131,-0.233556 1.059131,-0.53034 z M 44.733034,16.43383 c 0,-1.001169 -0.266883,-1.063065 -2.269567,-0.526367 -1.962652,0.525971 -1.675205,1.434193 0.453914,1.434193 1.210435,0 1.815653,-0.302609 1.815653,-0.907826 z m 38.89676,51.931927 c 0.588858,-0.153446 1.405902,-0.143357 1.815653,0.02239 0.40975,0.165787 -0.07204,0.291333 -1.070649,0.278999 -0.998609,-0.01235 -1.333863,-0.147976 -0.745004,-0.301423 z m 4.191689,-3.514505 c 0.01235,-0.99861 0.147976,-1.333864 0.301423,-0.745005 0.153447,0.588859 0.143358,1.405903 -0.02245,1.815653 -0.165788,0.409751 -0.291334,-0.07204 -0.279,-1.070648 z m 0,-9.683485 c 0.01235,-0.998609 0.147976,-1.333861 0.301423,-0.745003 0.153447,0.588857 0.143358,1.405901 -0.02245,1.815653 -0.165758,0.409752 -0.291304,-0.07204 -0.27897,-1.07065 z m -4.191689,-3.748108 c 0.588858,-0.153449 1.405902,-0.143357 1.815653,0.02242 0.40975,0.165783 -0.07204,0.291333 -1.070649,0.278999 -0.998609,-0.01234 -1.333863,-0.147975 -0.745004,-0.301424 z m 0,-3.026089 c 0.588858,-0.153449 1.405902,-0.143357 1.815653,0.02242 0.40975,0.165784 -0.07204,0.291333 -1.070649,0.278999 -0.998609,-0.01234 -1.333863,-0.147975 -0.745004,-0.301424 z m 4.191689,-3.514505 c 0.01235,-0.998609 0.147976,-1.333861 0.301423,-0.745004 0.153447,0.588857 0.143358,1.405901 -0.02245,1.815654 -0.165758,0.409752 -0.291304,-0.07204 -0.27897,-1.07065 z"
         id="path5006" />
      <path
         style="fill:#333333;fill-opacity:1;stroke-width:0.605218"
         d="M 14.272506,98.063667 C 7.606666,96.015701 3.2380667,88.489733 4.7620895,81.679683 5.7099039,77.444399 8.5133857,73.870377 12.62265,71.658626 c 2.890262,-1.555633 3.757467,-1.740061 7.062184,-1.501902 6.33413,0.456479 10.54938,3.795986 12.783428,10.127581 2.446375,6.933363 -2.230151,15.632091 -9.576911,17.813847 -3.829268,1.137168 -4.818159,1.133216 -8.618845,-0.0345 z m 9.619459,-5.699076 c 2.118057,-1.309031 4.500189,-5.461049 4.500189,-7.843761 0,-4.192768 -4.187864,-8.753616 -8.711854,-9.487764 -4.507256,-0.731423 -9.636425,3.444791 -10.4593905,8.516135 -0.6514261,4.01427 3.7264785,10.049895 7.2896295,10.049895 1.731569,0 1.072501,-2.212519 -1.168158,-3.921557 -2.524981,-1.925894 -3.401529,-3.848077 -2.899487,-6.358291 0.990825,-4.954119 7.152703,-6.824696 10.722379,-3.255024 3.598265,3.598268 1.749869,9.54354 -4.168535,13.407891 -2.108082,1.376447 2.599338,0.311415 4.895227,-1.107524 z m 23.867158,-3.607237 c 0,-0.33287 -1.071039,-0.605218 -2.380087,-0.605218 -2.779088,0 -3.400444,-1.076228 -2.771303,-4.800079 l 0.393341,-2.328164 4.427768,-0.414919 c 4.982934,-0.466937 9.1112,0.426061 10.226637,2.212162 0.66402,1.063265 2.814071,1.552971 2.812372,0.640562 -4.64e-4,-0.249652 4.061046,-0.366568 9.025574,-0.25982 9.796346,0.210653 11.778325,-0.246753 13.686189,-3.158522 1.197533,-1.827661 2.174203,-5.206011 1.505044,-5.206011 -0.282407,0 -0.889882,-0.144441 -1.349938,-0.320983 -0.529457,-0.203172 -1.211162,0.464753 -1.857341,1.819793 -1.677458,3.517677 -4.063118,4.548472 -10.532956,4.551104 -5.615489,0.0024 -7.29751,-0.599196 -5.045719,-1.804317 0.826516,-0.442336 1.227388,-0.452255 1.227388,-0.03038 0,0.789597 7.240341,0.835122 9.283357,0.05834 1.878747,-0.714296 4.037244,-2.992953 4.013029,-4.236416 -0.01374,-0.704183 -0.188041,-0.636537 -0.684059,0.265425 -1.436793,2.612664 -3.034592,3.30119 -7.693383,3.315237 -3.756206,0.01132 -4.350748,-0.120517 -3.758941,-0.833602 0.478582,-0.576652 1.456595,-0.74598 3.063642,-0.530431 3.252549,0.436259 5.264759,-0.183018 6.444365,-1.983323 0.953073,-1.454569 0.934341,-1.595657 -0.400454,-3.016478 -0.770158,-0.81975 -1.761335,-1.490494 -2.202612,-1.490494 -0.441282,0 -0.844962,-0.476609 -0.89706,-1.059131 -0.05211,-0.582523 -0.203329,-1.876176 -0.336065,-2.874785 -0.13273,-0.998609 -0.264081,-4.062524 -0.291896,-6.8087 -0.02778,-2.746176 -0.217019,-4.992575 -0.420463,-4.992 -0.733427,0.0021 -0.384931,-8.767052 0.367615,-9.250049 0.443945,-0.284933 0.601441,-1.153648 0.395679,-2.182469 -0.245991,-1.229965 -0.07099,-1.813055 0.624234,-2.079836 0.531333,-0.203892 0.966061,-0.740308 0.966061,-1.192035 0,-1.395098 2.590628,-3.342484 5.470436,-4.112144 3.481897,-0.930576 6.672581,-0.344847 9.058712,1.662953 3.438103,2.892974 3.627385,3.803798 3.627385,17.455142 0,13.361375 -0.257103,14.724465 -3.216381,17.052229 -0.917371,0.721601 -1.574565,2.056712 -1.845055,3.748277 -0.536326,3.353972 -1.612948,5.412953 -4.103728,7.848156 -3.059939,2.991652 -6.535208,3.727258 -17.72557,3.751938 -7.288856,0.01607 -10.103957,0.238111 -11.237986,0.886378 -1.722185,0.98449 -7.867831,1.220864 -7.867831,0.30261 z m 6.837875,-1.164003 c 1.830948,-0.696122 2.383172,-2.599344 1.231348,-4.243805 -0.683672,-0.976078 -1.530085,-1.249588 -3.867017,-1.249588 h -2.991771 v 3.026089 3.026089 h 2.078863 c 1.143375,0 2.740234,-0.251456 3.548577,-0.558785 z m 27.872454,-3.869339 c 2.978131,-2.273616 4.08065,-4.081419 4.390601,-7.199259 l 0.257992,-2.595235 -0.824246,2.875154 c -0.880072,3.069895 -2.042078,4.649525 -4.945089,6.722348 -1.639566,1.17069 -2.87217,1.331309 -12.709574,1.656208 l -10.89392,0.35979 11.245691,-0.05719 11.245691,-0.05719 2.232854,-1.704644 z m 6.263792,-11.888257 c 3.752102,-2.287789 4.114603,-3.792367 4.114603,-17.077926 0,-13.08369 -0.09461,-13.458288 -4.166997,-16.498764 -2.282712,-1.704289 -6.934609,-1.704289 -9.217321,0 -4.07239,3.040476 -4.166997,3.415074 -4.166997,16.498764 0,10.321947 0.145064,12.174779 1.088514,13.902797 1.489986,2.72906 4.361684,4.356539 7.687144,4.356539 1.63597,0 3.497172,-0.471743 4.661054,-1.18141 z m -7.192045,-5.16885 c -1.423127,-3.123414 1.864131,-6.191637 4.895492,-4.569303 0.888478,0.475501 1.266805,1.268082 1.266805,2.653898 0,2.507774 -0.929875,3.42845 -3.462717,3.42845 -1.556892,0 -2.165651,-0.341192 -2.69958,-1.513045 z m 0.715337,-9.380875 c -2.278457,-2.278458 -1.104286,-5.44696 2.01851,-5.44696 2.499163,0 3.42845,0.929288 3.42845,3.428447 0,3.122799 -3.168502,4.29697 -5.44696,2.018513 z M 81.541199,46.694718 c -1.423127,-3.123415 1.864131,-6.191637 4.895492,-4.569301 0.888478,0.475498 1.266805,1.268079 1.266805,2.653899 0,2.507773 -0.929875,3.428447 -3.462717,3.428447 -1.556892,0 -2.165651,-0.341195 -2.69958,-1.513045 z"
         id="path5004" />
    </g>
  </g>
</svg>
