<?xml version="1.0" encoding="UTF-8" standalone="no"?>
<!-- Created with Inkscape (http://www.inkscape.org/) -->

<svg
   width="100mm"
   height="100mm"
   viewBox="0 0 100 100"
   version="1.1"
   id="svg1194"
   inkscape:version="1.1.1 (3bf5ae0d25, 2021-09-20)"
   sodipodi:docname="add_list_type_device_6057.svg"
   xmlns:inkscape="http://www.inkscape.org/namespaces/inkscape"
   xmlns:sodipodi="http://sodipodi.sourceforge.net/DTD/sodipodi-0.dtd"
   xmlns="http://www.w3.org/2000/svg"
   xmlns:svg="http://www.w3.org/2000/svg">
  <sodipodi:namedview
     id="namedview1196"
     pagecolor="#505050"
     bordercolor="#ffffff"
     borderopacity="1"
     inkscape:pageshadow="0"
     inkscape:pageopacity="0"
     inkscape:pagecheckerboard="1"
     inkscape:document-units="mm"
     showgrid="false"
     width="100mm"
     inkscape:zoom="0.58974467"
     inkscape:cx="378.97757"
     inkscape:cy="320.47767"
     inkscape:window-width="1440"
     inkscape:window-height="890"
     inkscape:window-x="-6"
     inkscape:window-y="-6"
     inkscape:window-maximized="1"
     inkscape:current-layer="layer1" />
  <defs
     id="defs1191" />
  <g
     inkscape:label="Laag 1"
     inkscape:groupmode="layer"
     id="layer1">
    <g
       id="g1256"
       transform="translate(-2.6918458,-0.44864095)">
      <path
         style="fill:#d0d0d0;fill-opacity:1;stroke-width:0.402485"
         d="m 17.98254,93.496412 c -0.141007,-0.228153 0.02055,-0.295626 0.378731,-0.158181 0.697272,0.267568 0.824848,0.556057 0.245901,0.556057 -0.208303,0 -0.489387,-0.179045 -0.624632,-0.397876 z M 17.051942,92.48559 c 0.0082,-0.6641 0.09841,-0.887053 0.200454,-0.495447 0.102047,0.391606 0.09534,0.934961 -0.01491,1.207456 -0.110251,0.272494 -0.193745,-0.04791 -0.185542,-0.712009 z m -5.36211,-1.710561 c -0.500639,-0.638366 -0.486403,-0.652602 0.15196,-0.151963 0.387392,0.303816 0.704349,0.620773 0.704349,0.704349 0,0.331262 -0.330515,0.118053 -0.856309,-0.552386 z m 12.930863,0.552386 c 0,-0.08358 0.316957,-0.400533 0.704349,-0.704349 0.638364,-0.500639 0.6526,-0.486403 0.15196,0.151963 -0.525794,0.670439 -0.856309,0.883648 -0.856309,0.552386 z M 11.338686,78.045407 c 0,-0.08358 0.316957,-0.400533 0.704349,-0.704349 0.638364,-0.500639 0.6526,-0.486403 0.15196,0.151962 -0.525794,0.67044 -0.856309,0.883648 -0.856309,0.552387 z M 24.971841,77.49302 c -0.50064,-0.638365 -0.486404,-0.652601 0.15196,-0.151962 0.387392,0.303816 0.704349,0.620773 0.704349,0.704349 0,0.331261 -0.330515,0.118053 -0.856309,-0.552387 z m 15.489622,-6.861779 c -2.049187,-0.118959 -2.069246,-0.133002 -2.012425,-1.408698 0.03268,-0.73369 0.43665,-1.660308 0.938144,-2.151895 0.484413,-0.474844 0.771183,-0.972919 0.637268,-1.106834 -0.133916,-0.133915 0.420618,-0.243483 1.232295,-0.243483 0.811679,0 1.47578,-0.191809 1.47578,-0.42624 0,-0.234432 -0.181119,-0.314301 -0.402485,-0.177488 -0.221367,0.136813 -0.402486,0.05694 -0.402486,-0.177488 0,-0.234431 0.362237,-0.42624 0.804971,-0.42624 0.447205,0 0.80497,0.268325 0.80497,0.603728 0,0.33205 0.271677,0.603728 0.603728,0.603728 0.33205,0 0.603727,0.265994 0.603727,0.591097 0,0.346628 0.237547,0.499939 0.574363,0.370693 0.418705,-0.160676 0.515378,0.0052 0.356726,0.61183 -0.119699,0.45773 -0.378163,0.733026 -0.574362,0.611769 -0.1962,-0.121261 -0.356727,0.363758 -0.356727,1.077819 0,0.714061 -0.117932,1.18036 -0.262066,1.036222 -0.144138,-0.144138 -0.500615,0.05207 -0.792171,0.436024 -0.432193,0.569158 -0.533607,0.586586 -0.549066,0.09437 -0.01119,-0.356022 -0.140286,-0.438592 -0.314663,-0.201243 -0.162636,0.221367 -1.227121,0.348416 -2.365521,0.282332 z M 63.687666,69.09062 c 0.414138,-0.812307 0.657597,-1.631252 0.541021,-1.819877 -0.116576,-0.188628 0.02511,-0.346084 0.3149,-0.349912 0.289773,-0.004 0.930425,-0.43276 1.423671,-0.953193 1.266073,-1.335865 4.770338,-1.80292 5.695007,-0.759047 0.819665,0.925329 2.18735,3.337559 1.999079,3.525834 -0.209236,0.209232 -6.263872,1.327541 -8.652564,1.598147 l -2.074091,0.234971 z M 23.312618,67.501879 c -1.066929,-0.578178 -1.105259,-0.711795 -1.063151,-3.706208 0.02403,-1.708521 0.159865,-4.193114 0.301864,-5.521315 0.248222,-2.321759 0.300453,-2.412045 1.354073,-2.340636 1.148803,0.07786 4.337657,2.69756 4.337657,3.563462 0,0.269388 0.271677,0.715265 0.603727,0.990842 0.875722,0.726784 0.855268,5.232307 -0.02375,5.232307 -0.345115,0 -0.535512,0.14881 -0.423103,0.330689 0.330913,0.53543 -1.132892,1.550019 -2.611303,1.809944 -0.867959,0.152598 -1.774358,0.02113 -2.476011,-0.359085 z m 0.905592,-5.226427 c 0,-0.345114 -0.181119,-0.515543 -0.402485,-0.37873 -0.221367,0.136813 -0.402486,-0.03361 -0.402486,-0.37873 0,-0.345115 -0.181118,-0.627483 -0.402485,-0.627483 -0.221367,0 -0.402485,0.452796 -0.402485,1.006213 0,0.737888 0.214659,1.006213 0.80497,1.006213 0.460749,0 0.804971,-0.268325 0.804971,-0.627483 z m 25.752333,4.249849 c -0.004,-0.430458 -0.09352,-0.465434 -0.311938,-0.121869 -0.215015,0.338233 -0.483111,0.359094 -0.899425,0.06998 -0.448562,-0.311499 -0.470493,-0.46163 -0.09,-0.616019 0.725017,-0.294189 0.622154,-0.962451 -0.105185,-0.683343 -0.429697,0.164886 -0.537394,0.04866 -0.366821,-0.395844 0.388603,-1.012681 -0.1568,-1.541535 -1.080146,-1.047379 -0.723483,0.387198 -0.75259,0.353353 -0.308166,-0.358281 0.301787,-0.483243 0.852765,-0.746135 1.430786,-0.682683 0.721519,0.0792 0.841057,-0.01606 0.514291,-0.409766 -0.300672,-0.362289 -0.294679,-0.593935 0.02041,-0.788665 0.29722,-0.183695 0.203843,-0.452869 -0.279771,-0.806496 -0.543564,-0.397466 -0.800792,-0.413034 -1.024131,-0.06198 -0.194759,0.306126 -0.300391,0.22439 -0.304416,-0.23555 -0.0072,-0.819653 0.816244,-0.926758 1.547129,-0.201243 0.406373,0.403391 0.453677,0.363505 0.238677,-0.201242 -0.261096,-0.685815 0.292832,-0.920987 1.729777,-0.734395 0.276708,0.03594 0.503106,-0.214283 0.503106,-0.556037 0,-0.441466 0.436994,-0.634791 1.509319,-0.667719 2.612535,-0.08023 5.220679,0.292756 4.823623,0.689812 -0.110993,0.110993 -0.06088,0.826652 0.111364,1.590351 0.176317,0.781771 0.15581,1.388549 -0.04693,1.388549 -0.198055,0 -0.360099,0.452796 -0.360099,1.006213 0,0.62609 -0.228077,1.006213 -0.603728,1.006213 -0.33205,0 -0.603728,0.271677 -0.603728,0.603728 0,0.33205 -0.150513,0.603727 -0.334473,0.603727 -0.18396,0 -0.568522,0.437329 -0.854584,0.971841 -0.433263,0.809558 -0.881568,0.99438 -2.684717,1.106834 -1.713947,0.106888 -2.165768,0.0093 -2.170216,-0.468734 z M 46.68191,65.847874 c 0.290542,-0.116266 0.637685,-0.10197 0.771431,0.03176 0.133742,0.133742 -0.103978,0.228869 -0.528262,0.211393 -0.468875,-0.01932 -0.564244,-0.114684 -0.243169,-0.243165 z m -2.466175,-6.317016 c -0.117067,-0.305075 -0.0097,-0.757871 0.238677,-1.006213 0.333721,-0.33372 0.2143,-0.451532 -0.45769,-0.451532 -0.500071,0 -0.809011,0.162142 -0.686535,0.360313 0.122477,0.198168 -0.03626,0.45967 -0.352729,0.581116 -0.368886,0.141554 -0.7178,-0.168343 -0.972123,-0.863419 -0.218195,-0.596322 -0.411014,-0.857824 -0.428489,-0.581116 -0.01747,0.276709 -0.314144,0.503106 -0.659259,0.503106 -0.345113,0 -0.529822,-0.158011 -0.410463,-0.35114 0.119359,-0.193128 -0.336142,-0.929966 -1.012224,-1.637422 -1.695495,-1.774174 -1.916056,-3.536665 -0.614576,-4.911047 0.553938,-0.584967 0.933586,-1.137149 0.843663,-1.227072 -0.08992,-0.08992 0.599992,-0.151177 1.533141,-0.136116 1.843083,0.02974 2.850359,0.453777 2.484419,1.045877 -0.127358,0.206069 -0.02681,0.374674 0.223428,0.374674 0.56102,0 1.329847,0.746348 1.936493,1.879875 0.378513,0.707263 0.336864,0.904682 -0.238296,1.129566 -0.594011,0.232254 -0.531699,0.359939 0.421797,0.864313 0.615327,0.325494 1.000203,0.783658 0.85528,1.01815 -0.175129,0.283366 -0.374258,0.247122 -0.593786,-0.108079 -0.181657,-0.293931 -0.475689,-0.389018 -0.653402,-0.211305 -0.177717,0.177714 0.0066,0.564196 0.409545,0.858851 0.70849,0.518063 0.70847,0.541987 -8.05e-4,0.725375 -0.666685,0.172412 -0.669313,0.193877 -0.02894,0.236327 0.387392,0.02568 0.704349,0.222124 0.704349,0.436544 0,0.214415 -0.271678,0.285599 -0.603728,0.15818 -0.33205,-0.127423 -0.603728,-0.04446 -0.603728,0.184363 0,0.228816 0.316957,0.498864 0.704349,0.600097 0.415462,0.108574 0.209116,0.214818 -0.503106,0.259043 -1.051887,0.06532 -1.103743,0.119546 -0.402485,0.420887 0.78289,0.336421 0.781312,0.346685 -0.05756,0.374194 -0.474394,0.01558 -0.958314,-0.221318 -1.075384,-0.52639 z m 30.313113,0.152196 c 0,-0.221367 -0.498075,-0.416785 -1.106834,-0.434261 -0.608758,-0.01747 -0.885551,-0.121422 -0.615093,-0.230995 0.335443,-0.135899 0.207513,-0.477601 -0.402486,-1.075057 -0.897356,-0.878907 -1.37542,-3.089508 -0.668133,-3.089508 0.207699,0 0.384148,-0.316957 0.392109,-0.704349 0.01787,-0.868688 1.859928,-3.190202 2.234304,-2.815826 0.149583,0.149583 0.597819,0.09759 0.996074,-0.115554 0.96891,-0.518546 1.987455,0.505586 1.987455,1.998363 0,0.617392 0.09836,1.91756 0.218566,2.889267 0.249774,2.018994 -0.11501,2.784859 -1.371521,2.879508 -0.535035,0.0403 -0.801565,0.268779 -0.680767,0.583567 0.109186,0.284533 -0.06748,0.51733 -0.392576,0.51733 -0.325103,0 -0.591098,-0.181118 -0.591098,-0.402485 z M 35.922053,39.256935 c -0.01748,-0.276709 -0.303453,-0.503107 -0.635503,-0.503107 -0.33205,0 -0.603727,-0.282366 -0.603727,-0.627481 0,-0.388074 -0.191954,-0.517017 -0.503107,-0.337957 -0.276708,0.159239 -0.368839,0.141313 -0.204734,-0.03983 0.164104,-0.181148 0.08519,-0.586226 -0.175362,-0.900174 -0.310588,-0.374236 -0.333927,-0.664207 -0.06777,-0.842003 0.223279,-0.149153 0.529504,-0.60534 0.6805,-1.013748 0.150995,-0.408409 0.633822,-0.836517 1.072949,-0.951351 0.439127,-0.114834 0.711738,-0.349031 0.605804,-0.520436 -0.351875,-0.569345 2.265434,-0.695447 2.824783,-0.136098 0.296594,0.296593 0.733317,0.539261 0.970496,0.539261 0.529762,0 0.531597,0.08611 0.02996,1.405498 -0.266701,0.701477 -0.266701,0.972248 0,0.807418 0.220698,-0.136398 0.401269,-0.06688 0.401269,0.154488 0,0.221366 -0.193466,0.522053 -0.429924,0.668192 -0.236458,0.14614 -0.332702,0.519065 -0.213874,0.828724 0.118827,0.309659 0.05355,0.563016 -0.145055,0.563016 -0.198608,0 -0.664574,0.30347 -1.035482,0.674377 -0.533791,0.533791 -0.827468,0.578769 -1.408744,0.215757 -0.557399,-0.348102 -0.782122,-0.340879 -0.932537,0.02997 -0.151415,0.373316 -0.205667,0.369892 -0.229945,-0.01451 z m 29.274172,-5.607871 c 0.290542,-0.116267 0.637685,-0.101968 0.771431,0.03178 0.133742,0.133742 -0.103978,0.228869 -0.528262,0.211393 -0.468875,-0.01931 -0.564243,-0.114684 -0.243169,-0.243168 z M 63.204274,32.61593 c -0.2067,-0.387392 -0.563499,-0.704349 -0.792888,-0.704349 -0.868321,0 -3.554298,-3.614584 -2.701271,-3.635166 0.356518,-0.0086 0.299502,-0.188162 -0.173837,-0.547477 -0.780149,-0.592217 -0.929282,-1.871193 -0.292442,-2.508031 0.226547,-0.226549 0.493286,-0.834476 0.592748,-1.350948 0.17424,-0.904754 1.678568,-2.825476 2.21294,-2.825476 0.595843,0 3.490492,2.815514 3.490492,3.395068 0,0.346381 -0.11239,0.629783 -0.249754,0.629783 -0.137365,0 -0.277272,0.365287 -0.310904,0.811747 -0.08898,1.181276 1.739947,2.300656 2.739289,1.676557 0.673237,-0.420444 0.893554,-0.237136 1.969167,1.638402 1.433982,2.500423 1.465476,2.726361 0.418226,3.000223 -0.440246,0.115126 -0.710116,0.355475 -0.599715,0.534109 0.110402,0.178633 -1.177836,0.38444 -2.862756,0.457347 -2.591094,0.11212 -3.121433,0.02395 -3.439295,-0.571789 z M 43.537495,26.647747 c -0.553417,-0.159895 -0.773444,-0.308772 -0.488947,-0.330838 0.378996,-0.02939 0.409682,-0.241151 0.114785,-0.79217 -0.221367,-0.413627 -0.273022,-0.881516 -0.114785,-1.039753 0.158237,-0.158236 0.287704,-0.602504 0.287704,-0.98726 0,-0.384757 0.280126,-0.979682 0.6225,-1.322057 0.827932,-0.827933 2.396139,-1.316078 2.396139,-0.745861 0,0.241763 0.452795,0.611722 1.006212,0.822131 1.146435,0.435873 1.424198,2.279778 0.402486,2.671846 -0.332051,0.12742 -0.603728,0.574531 -0.603728,0.993581 0,0.41905 -0.135839,0.790258 -0.301864,0.824907 -0.961963,0.200761 -2.444554,0.158555 -3.320502,-0.09453 z M 66.83029,25.572441 c -0.500639,-0.638364 -0.486403,-0.6526 0.151963,-0.15196 0.670439,0.525794 0.883648,0.856309 0.552386,0.856309 -0.08358,0 -0.400533,-0.316957 -0.704349,-0.704349 z"
         id="path1270" />
      <path
         style="fill:#b9b9b9;fill-opacity:1;stroke-width:0.402485"
         d="m 16.898012,98.449168 c 0.290544,-0.116266 0.637687,-0.10197 0.77143,0.03176 0.133742,0.133742 -0.103976,0.228869 -0.528262,0.211393 -0.468872,-0.01932 -0.564244,-0.114684 -0.243168,-0.243165 z m 2.817395,0 c 0.290544,-0.116266 0.637688,-0.10197 0.77143,0.03176 0.133743,0.133742 -0.103975,0.228869 -0.528261,0.211393 -0.468873,-0.01932 -0.564244,-0.114684 -0.243169,-0.243165 z M 4.1257292,85.609804 c 0.019313,-0.468875 0.1146843,-0.564243 0.2431681,-0.243169 0.1162661,0.290542 0.1019673,0.637685 -0.031775,0.771431 C 4.2033799,86.271808 4.108253,86.034088 4.1257292,85.609804 Z m 28.5764428,0 c 0.01931,-0.468875 0.114684,-0.564243 0.243168,-0.243169 0.116266,0.290542 0.101967,0.637685 -0.03178,0.771431 -0.133743,0.133742 -0.22887,-0.103978 -0.211393,-0.528262 z M 4.1257292,82.792409 c 0.019313,-0.468875 0.1146843,-0.564244 0.2431681,-0.24317 0.1162661,0.290542 0.1019673,0.637686 -0.031775,0.771431 C 4.2033799,83.454412 4.108253,83.216692 4.1257292,82.792409 Z M 16.898012,69.872725 c 0.290544,-0.116266 0.637687,-0.101969 0.77143,0.03176 0.133742,0.133742 -0.103976,0.228869 -0.528262,0.211394 -0.468872,-0.01932 -0.564244,-0.114685 -0.243168,-0.243166 z m 2.817395,0 c 0.290544,-0.116266 0.637688,-0.101969 0.77143,0.03176 0.133743,0.133742 -0.103975,0.228869 -0.528261,0.211394 -0.468873,-0.01932 -0.564244,-0.114685 -0.243169,-0.243166 z m 2.892862,-7.976003 c 0,-0.553417 0.181118,-1.006213 0.402485,-1.006213 0.221367,0 0.402485,0.282368 0.402485,0.627483 0,0.345114 0.181119,0.515543 0.402486,0.37873 0.221366,-0.136813 0.402485,0.03361 0.402485,0.37873 0,0.359158 -0.344222,0.627483 -0.804971,0.627483 -0.590311,0 -0.80497,-0.268325 -0.80497,-1.006213 z M 65.789126,27.277966 c -0.827176,-0.579376 -1.12817,-2.208632 -0.408032,-2.208632 0.187325,0 0.228652,-0.181118 0.09184,-0.402485 -0.625272,-1.01171 0.520108,-0.255045 1.530197,1.010882 1.561139,1.956559 0.774711,2.993187 -1.214005,1.600235 z"
         id="path1268" />
      <path
         style="fill:#a3a3a3;fill-opacity:1;stroke-width:0.402485"
         d="M 16.060441,98.306427 C 4.8368977,96.419399 0.40497766,82.254407 8.5040776,74.155304 15.341436,67.317947 27.229279,69.236561 31.393136,77.849437 36.5068,88.426975 27.642537,100.25374 16.060441,98.306427 Z m 5.272994,-5.033145 c 6.855453,-2.03585 9.017236,-10.659311 3.943946,-15.7326 -5.151592,-5.151592 -13.740218,-2.894741 -15.7877671,4.148579 -0.5553654,1.910388 -0.5861853,2.624368 -0.189752,4.395818 0.9784991,4.372397 4.7050521,7.550033 9.1098831,7.768011 0.457897,0.02266 1.773557,-0.238255 2.92369,-0.579808 z m -3.957472,-0.966286 c 0,-1.29564 -0.299786,-1.663974 -2.337691,-2.872227 -1.418047,-0.840743 -2.870638,-3.466012 -2.885776,-5.215462 -0.0049,-0.561853 0.398676,-1.829681 0.896752,-2.817396 0.974831,-1.933152 3.543016,-3.607027 5.53417,-3.607027 0.57029,0 1.84502,0.407516 2.832735,0.905591 5.410426,2.728318 4.222145,10.618045 -2.080193,13.811683 l -1.959997,0.993205 z"
         id="path1266" />
      <path
         style="fill:#767676;fill-opacity:1;stroke-width:0.402485"
         d="m 45.440324,85.151615 c 0.714503,-0.08891 1.982332,-0.09037 2.817396,-0.0032 0.83506,0.08713 0.250466,0.159875 -1.299102,0.161662 -1.549567,0.0016 -2.232802,-0.0695 -1.518294,-0.158414 z m 8.267579,0.01155 c 0.391606,-0.102046 0.934961,-0.09534 1.207456,0.01493 0.272494,0.110253 -0.04791,0.193744 -0.712009,0.185542 -0.6641,-0.0082 -0.887053,-0.09841 -0.495447,-0.200454 z m -14.67321,-0.398493 c 0.290544,-0.116266 0.637687,-0.101969 0.77143,0.03176 0.133742,0.133742 -0.103976,0.22887 -0.528262,0.211394 -0.468872,-0.01932 -0.564244,-0.114685 -0.243168,-0.243166 z"
         id="path1264" />
      <path
         style="fill:#606060;fill-opacity:1;stroke-width:0.402485"
         d="m 49.876635,85.175543 c 0.276709,-0.111653 0.729505,-0.111653 1.006213,0 0.276709,0.111654 0.05031,0.20301 -0.503106,0.20301 -0.553417,0 -0.779815,-0.09136 -0.503107,-0.20301 z m 2.012426,0 c 0.276708,-0.111653 0.729504,-0.111653 1.006213,0 0.276708,0.111654 0.05031,0.20301 -0.503107,0.20301 -0.553417,0 -0.779815,-0.09136 -0.503106,-0.20301 z M 40.418235,84.762171 c 0.387392,-0.101233 1.021306,-0.101233 1.408698,0 0.387392,0.101237 0.07044,0.184068 -0.704349,0.184068 -0.774784,0 -1.091741,-0.08283 -0.704349,-0.184068 z m -3.421123,-0.391598 c 0.276708,-0.111653 0.729504,-0.111653 1.006213,0 0.276708,0.111653 0.05031,0.203009 -0.503107,0.203009 -0.553417,0 -0.779815,-0.09136 -0.503106,-0.203009 z m -4.187827,-1.159499 c -0.131083,-0.341597 -0.125399,-0.73402 0.01263,-0.872049 0.138033,-0.138032 0.250967,0.0358 0.250967,0.386302 0,0.350496 0.226398,0.728622 0.503106,0.840276 0.394057,0.159005 0.391319,0.209896 -0.01263,0.234781 -0.283655,0.01747 -0.622988,-0.247713 -0.754071,-0.58931 z"
         id="path1262" />
      <path
         style="fill:#494949;fill-opacity:1;stroke-width:0.402485"
         d="m 42.631903,84.773058 c 0.276709,-0.111653 0.729505,-0.111653 1.006213,0 0.276709,0.111653 0.05031,0.20301 -0.503106,0.20301 -0.553417,0 -0.779815,-0.09136 -0.503107,-0.20301 z M 21.51593,63.506662 c 0.003,-1.106834 0.08119,-1.511858 0.1737,-0.900057 0.09251,0.611802 0.09004,1.517393 -0.0055,2.012426 -0.09553,0.495032 -0.171227,-0.0055 -0.168206,-1.112369 z m 57.131146,-2.213668 c 0,-0.774783 0.08283,-1.09174 0.184069,-0.704349 0.101233,0.387392 0.101233,1.021306 0,1.408698 -0.101237,0.387392 -0.184069,0.07043 -0.184069,-0.704349 z"
         id="path1260" />
      <path
         style="fill:#333333;fill-opacity:1;stroke-width:0.402485"
         d="m 42.33004,84.795678 c -3.04877,-0.231506 -8.278254,-1.008906 -8.717465,-1.295914 -0.228369,-0.149233 -0.525471,-0.969474 -0.660227,-1.822762 -0.21621,-1.369065 -0.157797,-1.528627 0.496935,-1.357409 0.40807,0.106714 0.960323,0.05906 1.22723,-0.105898 0.313198,-0.193568 0.09807,-0.397108 -0.606666,-0.573984 -0.600573,-0.150735 -1.19434,-0.171672 -1.319484,-0.04653 -0.125143,0.125145 -0.464581,-0.33624 -0.754308,-1.025294 -0.476105,-1.132324 -0.447283,-1.317201 0.299654,-1.922032 1.053922,-0.853413 0.657339,-2.07085 -0.674586,-2.07085 -0.529733,0 -0.963152,0.197902 -0.963152,0.439783 0,0.241882 -0.909097,-0.377575 -2.020216,-1.376563 -2.038518,-1.832805 -4.942345,-3.490556 -6.114285,-3.490556 -0.897624,0 -1.041524,-2.148087 -0.67499,-10.07601 0.483393,-10.455484 1.944002,-18.182768 4.759236,-25.178497 2.121207,-5.271107 3.813234,-7.935538 7.270136,-11.448271 3.563718,-3.621273 6.418699,-5.339017 10.688922,-6.431156 15.567762,-3.981563 28.944648,8.7672 32.788007,31.24842 0.97566,5.707013 1.719638,16.408488 1.38159,19.873088 -0.540742,5.542043 -1.858929,8.854673 -3.523519,8.854673 -0.499058,0 -1.264637,0.247468 -1.701281,0.549927 -0.436648,0.30246 -2.016454,0.960817 -3.51068,1.463017 -1.494226,0.502197 -2.716775,0.982652 -2.716775,1.067681 0,0.213933 2.040105,-0.248559 3.018639,-0.68433 2.048854,-0.912405 5.203601,-1.955437 5.380215,-1.778819 0.46405,0.464045 -2.383355,2.765005 -4.97773,4.022453 -2.712017,1.314472 -6.886082,2.276741 -12.275796,2.830013 -2.818495,0.289327 -13.717675,0.516674 -16.099404,0.335822 z m 8.343182,-2.414142 c -0.133746,-0.133742 -0.480889,-0.148038 -0.771431,-0.03176 -0.321075,0.128481 -0.225706,0.223854 0.243169,0.243165 0.424284,0.01747 0.662004,-0.07765 0.528262,-0.211393 z m -3.681926,-0.662422 c 0.1665,-0.166025 -0.04442,-0.311069 -0.468702,-0.322318 -0.424288,-0.01127 -1.586463,-0.11823 -2.582614,-0.237732 -1.575528,-0.189011 -1.718398,-0.147076 -1.09806,0.322314 0.76083,0.575694 3.644748,0.740927 4.149376,0.237736 z m 4.103859,-2.538353 c 1.646965,-1.153579 0.87852,-3.800788 -1.103312,-3.800788 -2.232034,0 -3.165485,2.081408 -1.624527,3.622366 0.96875,0.96875 1.545616,1.006483 2.727839,0.178422 z m 9.346715,-0.178422 c 0.968749,-0.968749 1.006482,-1.545615 0.178421,-2.727839 -0.690262,-0.985484 -2.517242,-1.212108 -3.317805,-0.411545 -1.164748,1.164748 -0.04298,3.944354 1.591824,3.944354 0.408422,0 1.104826,-0.362236 1.54756,-0.80497 z m -18.715558,-1.60994 c 0,-0.737647 -0.242191,-1.040605 -0.907391,-1.135065 -0.988949,-0.140431 -1.550637,0.722707 -1.149896,1.767023 0.14546,0.37906 0.605624,0.580391 1.149896,0.503106 0.6652,-0.09446 0.907391,-0.397418 0.907391,-1.135064 z m 27.742723,-0.229992 c 1.276449,-1.27645 0.273525,-3.794859 -1.511259,-3.794859 -1.077135,0 -2.2836,1.132569 -2.2836,2.143736 0,1.909325 2.464408,2.981578 3.794859,1.651123 z m -2.386161,-6.388791 c 4.302477,-0.636088 8.290936,-1.699264 8.863946,-2.362805 0.226466,-0.262247 0.769821,-0.676586 1.207455,-0.920749 1.044401,-0.582698 1.192716,-3.077534 0.607668,-10.221919 C 76.763917,45.080592 73.720731,35.005156 68.883773,27.874165 65.455755,22.820331 59.346635,18.490521 54.107792,17.401754 49.149739,16.371343 42.697392,17.61063 38.488134,20.401786 28.733254,26.870236 23.42136,40.460405 22.346419,61.699424 l -0.263607,5.208419 2.057426,0.953221 c 1.131584,0.524269 2.302806,1.156867 2.602716,1.405768 0.813202,0.674899 7.231822,1.681438 13.271156,2.081126 6.815343,0.451045 22.364663,0.12112 27.068764,-0.574342 z"
         id="path1258" />
    </g>
  </g>
</svg>
