<?xml version="1.0" encoding="UTF-8" standalone="no"?>
<!-- Created with Inkscape (http://www.inkscape.org/) -->

<svg
   width="100mm"
   height="100mm"
   viewBox="0 0 100 100"
   version="1.1"
   id="svg6073"
   inkscape:version="1.1.1 (3bf5ae0d25, 2021-09-20)"
   sodipodi:docname="add_list_type_device_6602.svg"
   xmlns:inkscape="http://www.inkscape.org/namespaces/inkscape"
   xmlns:sodipodi="http://sodipodi.sourceforge.net/DTD/sodipodi-0.dtd"
   xmlns="http://www.w3.org/2000/svg"
   xmlns:svg="http://www.w3.org/2000/svg">
  <sodipodi:namedview
     id="namedview6075"
     pagecolor="#505050"
     bordercolor="#ffffff"
     borderopacity="1"
     inkscape:pageshadow="0"
     inkscape:pageopacity="0"
     inkscape:pagecheckerboard="1"
     inkscape:document-units="mm"
     showgrid="false"
     inkscape:zoom="0.58974467"
     inkscape:cx="397.62971"
     inkscape:cy="161.08666"
     inkscape:window-width="1440"
     inkscape:window-height="890"
     inkscape:window-x="-6"
     inkscape:window-y="-6"
     inkscape:window-maximized="1"
     inkscape:current-layer="layer1" />
  <defs
     id="defs6070" />
  <g
     inkscape:label="Laag 1"
     inkscape:groupmode="layer"
     id="layer1">
    <g
       id="g6089"
       transform="translate(-1.7945644,-0.89728114)">
      <path
         style="fill:#d0d0d0;fill-opacity:1;stroke-width:0.457748"
         d="m 12.420583,91.783809 c -0.569379,-0.726016 -0.553189,-0.742206 0.172825,-0.172827 0.440583,0.345531 0.801059,0.706007 0.801059,0.801059 0,0.376745 -0.375896,0.134262 -0.973884,-0.628232 z m 20.90547,-11.068758 c -0.144846,-0.234367 -0.08834,-0.534284 0.125568,-0.666486 0.213908,-0.132202 0.388923,0.05955 0.388923,0.426118 0,0.771841 -0.144344,0.839276 -0.514491,0.240368 z M 79.346317,57.529003 c 0.02197,-0.533254 0.130431,-0.641717 0.276553,-0.276558 0.13223,0.330435 0.115971,0.725242 -0.03612,0.877352 -0.15211,0.152105 -0.260294,-0.118255 -0.240418,-0.600794 z m 4.119732,-0.457748 c 0.02197,-0.533254 0.130431,-0.641717 0.276553,-0.276558 0.13223,0.330435 0.115971,0.725242 -0.03612,0.877352 -0.15211,0.152105 -0.260294,-0.118255 -0.240419,-0.600794 z m 4.119732,-0.915496 c 0.02197,-0.533254 0.130431,-0.641717 0.276553,-0.276558 0.13223,0.330435 0.115971,0.725242 -0.03612,0.877352 -0.15211,0.152105 -0.260294,-0.118255 -0.240419,-0.600794 z M 51.050534,52.89007 c 0.695804,-0.105218 1.725737,-0.102403 2.28874,0.0062 0.563002,0.108651 -0.0063,0.194736 -1.265101,0.191302 -1.258807,-0.0037 -1.719444,-0.09234 -1.023639,-0.19755 z M 39.979989,44.25431 c 0.02196,-0.533251 0.130431,-0.641717 0.276556,-0.276557 0.13223,0.330437 0.115968,0.725245 -0.03614,0.877351 C 40.0683,45.007209 39.960111,44.736852 39.979987,44.25431 Z M 62.77286,42.347026 c -0.569379,-0.726014 -0.553188,-0.742204 0.172827,-0.172825 0.762494,0.597988 1.004977,0.973884 0.628232,0.973884 -0.09505,0 -0.455528,-0.360476 -0.801059,-0.801059 z m 6.619443,-4.442907 c 0,-0.366568 0.175016,-0.558321 0.388926,-0.426118 0.213906,0.132202 0.270415,0.43212 0.125565,0.666486 -0.370144,0.598909 -0.514491,0.531472 -0.514491,-0.240368 z m 3.081294,-5.019652 c -0.314523,-0.378974 -0.35691,-0.748944 -0.103735,-0.905416 0.235461,-0.145522 0.667443,0.02379 0.959953,0.376244 0.314523,0.378975 0.356911,0.748945 0.103735,0.905416 -0.235461,0.145522 -0.667443,-0.02379 -0.959953,-0.376244 z m 3.327178,-0.01558 c 0,-0.366568 0.175016,-0.55832 0.388926,-0.426118 0.213905,0.132202 0.270414,0.432121 0.125565,0.666486 -0.370145,0.598909 -0.514491,0.531472 -0.514491,-0.240368 z M 23.464923,28.729023 c 0.591294,-0.629403 1.178073,-1.14437 1.303954,-1.14437 0.125881,0 -0.254912,0.514967 -0.846206,1.14437 -0.591294,0.629404 -1.178073,1.14437 -1.303954,1.14437 -0.12588,0 0.254912,-0.514966 0.846206,-1.14437 z m 24.174816,-3.745804 c 0.330434,-0.13223 0.725242,-0.115967 0.877352,0.03614 0.152105,0.152106 -0.118255,0.260294 -0.600794,0.240418 -0.533254,-0.02196 -0.641717,-0.130431 -0.276558,-0.276556 z m 0.915496,-4.119732 c 0.330434,-0.13223 0.725242,-0.115967 0.877352,0.03614 0.152105,0.152106 -0.118255,0.260294 -0.600795,0.240418 -0.533253,-0.02196 -0.641716,-0.130431 -0.276557,-0.276556 z"
         id="path6105" />
      <path
         style="fill:#b9b9b9;fill-opacity:1;stroke-width:0.457748"
         d="m 47.725567,53.155065 c 0,-0.216849 0.514966,-0.394272 1.14437,-0.394272 0.629403,0 1.14437,0.07898 1.14437,0.17551 0,0.09653 -0.514967,0.273953 -1.14437,0.394272 -0.629404,0.120319 -1.14437,0.04133 -1.14437,-0.17551 z M 42.631951,50.58649 c -0.56938,-0.726016 -0.553189,-0.742206 0.172825,-0.172827 0.440582,0.345531 0.801059,0.706007 0.801059,0.801059 0,0.376744 -0.375897,0.134262 -0.973884,-0.628232 z m -3.413818,-4.755176 c -0.197423,-0.319438 -0.133537,-0.41376 0.158147,-0.233489 0.269158,0.166349 0.593703,0.04369 0.72121,-0.272585 0.165933,-0.41158 0.242105,-0.42007 0.267971,-0.02987 0.05222,0.78773 -0.757851,1.166129 -1.147328,0.535941 z m 2.098962,-5.144794 c 0,-0.09505 0.360476,-0.455531 0.801059,-0.801059 0.726014,-0.569379 0.742204,-0.553189 0.172825,0.172825 -0.597988,0.762493 -0.973884,1.004976 -0.973884,0.628234 z m 8.611384,-11.125821 c 0.330434,-0.13223 0.725242,-0.115967 0.877352,0.03614 0.152105,0.152106 -0.118255,0.260295 -0.600795,0.240419 -0.533253,-0.02196 -0.641716,-0.130431 -0.276557,-0.276556 z m 2.746488,-8.697212 c 0.330434,-0.13223 0.725242,-0.115967 0.877352,0.03614 0.152105,0.152106 -0.118255,0.260294 -0.600795,0.240418 -0.533253,-0.02196 -0.641716,-0.130431 -0.276557,-0.276556 z"
         id="path6103" />
      <path
         style="fill:#a3a3a3;fill-opacity:1;stroke-width:0.457748"
         d="m 63.342097,63.9508 c -0.05748,-1.513485 -2.006717,-4.861907 -3.765023,-6.4676 -1.693182,-1.546222 -3.424248,-2.010992 -8.874763,-2.382766 -3.291542,-0.224511 -5.6332,-0.628987 -6.758486,-1.167399 -3.245968,-1.553084 -5.803172,-5.720165 -5.820913,-9.485452 -0.0086,-1.833113 0.191084,-2.302858 1.418066,-3.335295 0.785465,-0.660925 2.046558,-1.52149 2.802429,-1.912366 1.373863,-0.710452 1.373777,-0.71015 -0.26174,0.925367 -0.980597,0.980598 -1.758457,2.288527 -1.941581,3.264666 -0.650669,3.468361 2.529484,8.333791 6.058227,9.268696 0.965872,0.255899 1.395651,0.486559 0.955069,0.512582 -0.440583,0.02602 -0.801059,0.356288 -0.801059,0.73393 0,0.508608 0.534041,0.686622 2.059866,0.686622 2.260899,0 2.801655,-0.725242 0.801059,-1.074353 -0.692344,-0.120818 0.807412,-0.180527 3.33279,-0.132692 4.063213,0.07697 4.831942,0.227826 6.680154,1.310949 2.834243,1.66098 5.284014,4.980559 6.056253,8.206575 0.24771,1.034803 0.161443,1.181516 -0.580635,0.987458 -0.584347,-0.15281 -0.943258,0.05006 -1.089097,0.615612 -0.133035,0.515905 -0.238139,0.30053 -0.270616,-0.554534 z m -1.884091,-6.571838 c 0,-0.507771 -2.649207,-2.787177 -3.239359,-2.787177 -0.917313,0 -0.329468,1.19843 1.066521,2.174303 1.584431,1.107603 2.172838,1.273569 2.172838,0.612874 z M 40.859347,49.154709 c 0,-0.221014 -0.32307,-1.175062 -0.717934,-2.120101 -0.478623,-1.145506 -0.870517,-1.565676 -1.175682,-1.260511 -0.544701,0.544701 0.664398,3.78246 1.41251,3.78246 0.264608,0 0.481106,-0.180829 0.481106,-0.401848 z m -11.86531,5.627806 c 0.02196,-0.533254 0.130431,-0.641717 0.276556,-0.276558 0.13223,0.330435 0.115968,0.725242 -0.03614,0.877352 -0.152106,0.152105 -0.260294,-0.118255 -0.240419,-0.600794 z m 58.591744,0 c 0.02197,-0.533254 0.130431,-0.641717 0.276553,-0.276558 0.13223,0.330435 0.115971,0.725242 -0.03612,0.877352 -0.15211,0.152105 -0.260294,-0.118255 -0.240419,-0.600794 z m -4.119732,-1.373244 c 0.02197,-0.533254 0.130431,-0.641717 0.276553,-0.276558 0.13223,0.330435 0.115971,0.725242 -0.03612,0.877352 -0.15211,0.152105 -0.260294,-0.118255 -0.240419,-0.600794 z m -4.119732,-0.915496 c 0.02197,-0.533254 0.130431,-0.641717 0.276553,-0.276558 0.13223,0.330435 0.115971,0.725242 -0.03612,0.877352 -0.15211,0.152105 -0.260294,-0.118255 -0.240418,-0.600794 z M 34.908623,43.644348 c 0,-0.334363 -0.293848,-0.481451 -0.671963,-0.336355 -1.115456,0.428041 -1.167049,-0.37127 -0.101855,-1.578008 0.551481,-0.624762 0.950746,-1.04146 0.887256,-0.925995 -0.06349,0.115464 0.178271,0.535631 0.537244,0.933704 0.564676,0.626179 0.564811,0.843577 10e-4,1.612317 -0.383075,0.522301 -0.651689,0.643623 -0.651689,0.294337 z m -4.541285,-2.295199 c -0.553709,-0.350457 -0.535123,-0.58765 0.124989,-1.595108 0.886857,-1.353515 1.774679,-1.569 1.575437,-0.382377 -0.08521,0.507468 0.112438,0.746706 0.539274,0.652758 0.502412,-0.110583 0.455264,0.09315 -0.185383,0.801059 -0.963073,1.064184 -1.132205,1.107298 -2.054317,0.523668 z m -3.359036,-2.359793 c -0.745886,-0.434351 -0.715929,-0.585981 0.406508,-2.057572 1.181155,-1.548574 1.228067,-1.565348 1.858908,-0.664697 0.567766,0.810599 0.54597,1.063004 -0.177634,2.057107 -0.937664,1.288183 -0.989527,1.304707 -2.087782,0.665162 z M 23.704116,36.75631 c -0.166349,-0.269159 -0.545702,-0.339326 -0.843007,-0.155928 -0.297306,0.183397 0.141406,-0.528132 0.974916,-1.581175 1.322624,-1.670985 1.626179,-1.845486 2.38546,-1.371308 0.84452,0.527412 0.839204,0.583236 -0.181595,1.90693 -1.194807,1.549332 -1.897424,1.910746 -2.335774,1.201481 z m -3.414995,-2.278177 c -0.545878,-0.345405 -0.437291,-0.735222 0.636368,-2.284513 1.098217,-1.584728 1.406313,-1.78313 2.031431,-1.308167 0.405283,0.307932 0.809176,0.604635 0.897541,0.65934 0.234648,0.145265 -2.276683,3.365102 -2.61817,3.356819 -0.15894,-0.0038 -0.585166,-0.19442 -0.94717,-0.423479 z"
         id="path6101" />
      <path
         style="fill:#8c8c8c;fill-opacity:1;stroke-width:0.457748"
         d="m 15.314697,57.567147 c 0.0093,-0.755284 0.111918,-1.008849 0.227978,-0.563474 0.116058,0.445375 0.108426,1.063335 -0.01696,1.373244 -0.12539,0.309909 -0.220347,-0.05449 -0.211018,-0.80977 z m 4.066632,0.419604 c 0.02196,-0.533254 0.130431,-0.641717 0.276556,-0.276558 0.13223,0.330435 0.115968,0.725242 -0.03614,0.877352 -0.152106,0.152105 -0.260294,-0.118255 -0.240418,-0.600794 z m 67.305128,-1.073895 c -0.393539,-0.243225 -0.440358,-0.479125 -0.132811,-0.669201 0.261242,-0.161456 0.612842,-0.07051 0.78133,0.20211 0.420424,0.680259 0.08606,0.92108 -0.648519,0.467091 z M 70.19517,55.619914 c -0.607431,-0.567456 -1.019404,-1.116191 -0.915496,-1.219404 0.293742,-0.291791 2.350005,1.504178 2.175169,1.899819 -0.08539,0.193225 -0.652246,-0.112958 -1.259673,-0.680415 z m 4.851378,0.9173 c -0.108857,-0.188821 -0.04381,-1.270251 0.144566,-2.403177 l 0.342492,-2.059866 0.05729,2.403177 c 0.05423,2.274751 -0.09497,2.839337 -0.54435,2.059866 z m 3.205834,-0.47652 c -1.078363,-1.191583 -0.969753,-1.788678 0.1423,-0.782287 0.897891,0.81258 0.916814,0.798541 0.98408,-0.730113 0.06016,-1.367028 0.09189,-1.405318 0.258152,-0.311493 0.104261,0.685922 0.0094,1.569137 -0.210885,1.9627 -0.354809,0.634013 -0.488568,0.618198 -1.173647,-0.138807 z m 4.262032,0.106192 c 0,-0.3925 0.205987,-0.586329 0.457748,-0.430731 0.251761,0.155597 0.457748,0.476735 0.457748,0.713638 0,0.236903 -0.205987,0.430732 -0.457748,0.430732 -0.251761,0 -0.457748,-0.321138 -0.457748,-0.713639 z m 0.951635,-1.384371 c 0.02197,-0.533254 0.130431,-0.641717 0.276553,-0.276558 0.13223,0.330435 0.115971,0.725242 -0.03612,0.877352 -0.15211,0.152105 -0.260294,-0.118255 -0.240419,-0.600794 z m -6.408472,-2.28874 c 0.02197,-0.533254 0.130431,-0.641717 0.276553,-0.276558 0.13223,0.330435 0.115971,0.725242 -0.03612,0.877352 -0.15211,0.152105 -0.260294,-0.118255 -0.240418,-0.600794 z m -64.08472,-0.915496 c 0.02196,-0.533254 0.130431,-0.641717 0.276556,-0.276558 0.132231,0.330435 0.115968,0.725242 -0.03614,0.877352 -0.152106,0.152105 -0.260294,-0.118255 -0.240418,-0.600794 z M 32.00095,45.546348 c -0.160411,-0.25955 0.11236,-0.956835 0.606158,-1.549523 1.024233,-1.229351 1.191267,-0.695112 0.290664,0.929657 -0.343158,0.619088 -0.73144,0.88746 -0.896822,0.619866 z m -3.155389,-1.575395 c -0.759868,-0.564931 -0.759589,-0.653621 0.0057,-1.812661 0.705727,-1.068824 0.928976,-1.152137 1.815691,-0.677581 l 1.011026,0.541084 -1.016731,1.271576 c -0.878079,1.098169 -1.125687,1.190572 -1.815692,0.677582 z m -3.997215,-2.768297 c 0.01336,-0.750914 1.797382,-3.027239 1.810635,-2.310278 0.01553,0.839991 -1.002386,2.882463 -1.436541,2.882463 -0.21135,0 -0.379693,-0.257483 -0.374094,-0.572185 z m -3.107072,-1.189998 -1.037027,-0.297683 1.1649,-1.712043 c 1.001362,-1.471692 1.283291,-1.638106 2.008206,-1.18539 0.816028,0.509619 0.814132,0.576098 -0.05865,2.055354 -0.496076,0.840786 -0.933106,1.508168 -0.971178,1.483073 -0.03807,-0.02509 -0.535885,-0.179586 -1.10625,-0.343311 z m -4.096555,-1.809449 c -0.407086,-0.258684 -0.214619,-0.86919 0.718253,-2.278306 1.148041,-1.734129 1.358258,-1.863578 2.120823,-1.305977 0.81724,0.597581 0.810907,0.67649 -0.183402,2.285316 -1.032481,1.670589 -1.619225,1.957582 -2.655674,1.298967 z m 27.97749,-2.9077 -0.872004,-0.986356 1.258807,0.810128 c 1.297972,0.835333 1.54343,1.162584 0.872005,1.162584 -0.212742,0 -0.779206,-0.44386 -1.258808,-0.986356 z M 44.864642,31.66624 c -0.863492,-0.94573 -1.001353,-1.343491 -0.457748,-1.320714 0.188821,0.0079 0.713404,0.522878 1.16574,1.14437 0.963775,1.32419 0.455607,1.450762 -0.707992,0.176344 z m -2.174303,-4.539335 c -0.610331,-0.394426 -0.610331,-0.443729 0,-0.443729 0.377642,0 0.995602,0.199678 1.373244,0.443729 0.61033,0.394426 0.61033,0.443729 0,0.443729 -0.377642,0 -0.995602,-0.199678 -1.373244,-0.443729 z M 42.22341,23.682734 c -0.943276,-1.136578 -0.0534,-1.399332 1.039114,-0.306819 0.8073,0.8073 0.860739,1.004502 0.272207,1.004502 -0.402762,0 -0.992856,-0.313957 -1.311321,-0.697683 z m -1.237338,-3.844012 -1.017645,-0.849253 1.11823,-0.213763 c 0.615026,-0.117569 1.022652,-0.05912 0.905836,0.129895 -0.116815,0.189012 0.0954,0.461771 0.471601,0.606131 0.828159,0.317794 0.912144,1.212774 0.111808,1.191473 -0.314702,-0.0084 -1.030125,-0.397393 -1.58983,-0.864483 z m 5.738171,0.109269 c 0.330434,-0.13223 0.725242,-0.115967 0.877352,0.03614 0.152105,0.152106 -0.118255,0.260294 -0.600794,0.240418 -0.533252,-0.02196 -0.641719,-0.130431 -0.276558,-0.276556 z m 1.753463,-0.496789 c -0.119559,-0.193454 0.589236,-0.274812 1.575106,-0.180794 0.985866,0.09402 1.792487,0.252298 1.792487,0.351735 0,0.340952 -3.150048,0.181054 -3.367593,-0.170941 z"
         id="path6099" />
      <path
         style="fill:#767676;fill-opacity:1;stroke-width:0.457748"
         d="m 30.140764,73.065835 c -0.241081,-0.62825 -0.174098,-0.656567 0.408774,-0.172828 0.794305,0.659217 0.876972,0.924193 0.288327,0.924193 -0.224826,0 -0.538521,-0.338115 -0.697101,-0.751365 z m 6.540463,-5.084921 c -0.56938,-0.726016 -0.553189,-0.742207 0.172825,-0.172828 0.440582,0.345531 0.801059,0.706008 0.801059,0.801059 0,0.376745 -0.375896,0.134262 -0.973884,-0.628231 z m -5.39845,-11.825155 c 0.02196,-0.533254 0.130431,-0.641717 0.276556,-0.276558 0.13223,0.330435 0.115968,0.725242 -0.03614,0.877352 -0.152106,0.152105 -0.260294,-0.118255 -0.240419,-0.600794 z m 55.685145,-0.0095 c -0.18358,-0.183593 -0.333776,-0.649635 -0.333776,-1.035673 0,-0.515236 0.135415,-0.566463 0.509245,-0.192634 0.280082,0.280087 0.430283,0.746129 0.333776,1.035655 -0.09651,0.289526 -0.32567,0.376214 -0.509245,0.192634 z m -8.802114,-1.096704 c -0.458476,-0.506608 -0.730598,-1.024101 -0.604717,-1.149982 0.125881,-0.125881 0.603989,0.185626 1.062465,0.692234 0.458476,0.506608 0.730598,1.024101 0.604717,1.149982 -0.125881,0.12588 -0.603989,-0.185626 -1.062465,-0.692234 z m 4.653773,0.610329 c -0.167843,-0.167838 -0.305167,-0.518015 -0.305167,-0.778172 0,-0.286825 0.213205,-0.259799 0.541667,0.06866 0.297921,0.29792 0.435245,0.648097 0.305167,0.778171 -0.130079,0.130078 -0.373829,0.09918 -0.541667,-0.06866 z M 69.882854,54.525178 c -0.86595,-0.975283 -0.86503,-0.978446 0.132435,-0.455285 1.112662,0.583578 1.797773,1.437388 1.153383,1.437388 -0.227597,0 -0.806218,-0.441947 -1.285818,-0.982103 z M 13.941453,53.447415 c 0.0093,-0.755284 0.111918,-1.008849 0.227978,-0.563474 0.116058,0.445375 0.108426,1.063335 -0.01696,1.373244 -0.12539,0.309909 -0.220347,-0.05449 -0.211018,-0.80977 z m 4.030494,-0.88848 c 0,-0.362783 0.186777,-0.77504 0.415059,-0.916128 0.228283,-0.141087 0.307252,0.155735 0.175487,0.659606 -0.279507,1.068837 -0.590546,1.203946 -0.590546,0.256522 z m 63.541143,0.346914 c 0.330435,-0.13223 0.725242,-0.115971 0.877352,0.03612 0.152105,0.15211 -0.118255,0.260294 -0.600794,0.240418 -0.533254,-0.02197 -0.641717,-0.13043 -0.276558,-0.276553 z m -50.101426,-4.48144 c -0.933837,-0.48053 -0.945464,-0.566971 -0.250213,-1.860204 0.644828,-1.199439 0.750955,-1.250401 0.917862,-0.440758 0.103801,0.503523 0.394849,1.045455 0.646775,1.204298 0.271794,0.171367 0.296794,0.555505 0.06148,0.94471 -0.30921,0.511428 -0.612284,0.544903 -1.375907,0.151954 z m -4.036015,-3.483752 c 0.57194,-1.106011 0.850054,-1.268935 1.537794,-0.900868 0.461769,0.247131 0.987996,0.302087 1.169393,0.122124 0.181397,-0.179964 0.08646,0.208451 -0.210972,0.863143 -0.393348,0.865817 -0.902524,1.200634 -1.867607,1.228074 -1.323836,0.03764 -1.325251,0.03468 -0.628608,-1.312473 z m -3.837669,0.355322 c -0.399169,-0.480969 -0.310388,-1.05038 0.377074,-2.418423 0.827481,-1.64668 0.922519,-1.707635 1.192056,-0.764552 0.161088,0.563631 0.468927,0.915986 0.684086,0.783011 0.215159,-0.132976 0.109158,0.429 -0.235557,1.248835 -0.72347,1.72063 -1.281019,2.038726 -2.017659,1.151129 z m -3.236279,-0.954106 c -0.331372,-0.399278 -0.816967,-0.593408 -1.079102,-0.4314 -0.262134,0.162008 -0.382405,0.108243 -0.267267,-0.119477 1.51382,-2.994051 2.020553,-3.847147 2.285183,-3.847147 0.172641,0 0.07714,0.627227 -0.212223,1.393839 -0.381048,1.009512 -0.387312,1.482822 -0.02272,1.716555 0.276869,0.177494 0.367323,0.703163 0.201009,1.168154 -0.273501,0.764669 -0.359948,0.776083 -0.904883,0.119476 z m -4.964642,-2.452595 c 1.144925,-2.373155 1.9926,-3.776421 2.281234,-3.776421 0.523944,0 0.446782,0.311674 -0.571145,2.306976 -0.508639,0.997016 -1.138756,1.812756 -1.400259,1.812756 -0.261503,0 -0.400926,-0.15449 -0.30983,-0.343311 z m 31.015264,-6.522909 c -0.629404,-0.492327 -0.970874,-0.899719 -0.758822,-0.905317 0.212051,-0.0056 0.909286,0.401794 1.549412,0.905317 0.640124,0.503523 0.981595,0.910916 0.758823,0.905318 -0.222773,-0.0056 -0.92001,-0.412991 -1.549413,-0.905318 z m -0.924677,-3.90192 c -0.884541,-1.065806 -0.25339,-1.266658 0.693263,-0.220618 0.457079,0.505066 0.618362,0.918302 0.358408,0.918302 -0.259955,0 -0.733206,-0.313958 -1.051671,-0.697684 z M 74.674308,29.98783 c -0.569379,-0.726014 -0.553189,-0.742204 0.172827,-0.172825 0.762494,0.597988 1.004977,0.973884 0.628232,0.973884 -0.09505,0 -0.455528,-0.360476 -0.801059,-0.801059 z M 43.977755,26.814211 c 0.330437,-0.13223 0.725244,-0.115967 0.87735,0.03614 0.152106,0.152106 -0.118251,0.260294 -0.600794,0.240418 -0.53325,-0.02196 -0.641717,-0.130431 -0.276556,-0.276556 z m -0.600794,-3.34929 c -0.679385,-0.750711 -0.704924,-0.915496 -0.141891,-0.915496 0.377642,0 1.059453,0.411974 1.515135,0.915496 0.679385,0.750712 0.704924,0.915496 0.14189,0.915496 -0.377642,0 -1.059453,-0.411973 -1.515134,-0.915496 z M 42.54851,19.60345 c -0.455648,-0.345466 -0.655876,-0.734778 -0.44495,-0.865137 0.210925,-0.130359 0.892708,0.154266 1.515072,0.632499 0.744678,0.572221 0.89681,0.868019 0.444951,0.865137 -0.377642,-0.0024 -1.059425,-0.287033 -1.515073,-0.632499 z"
         id="path6097" />
      <path
         style="fill:#606060;fill-opacity:1;stroke-width:0.457748"
         d="m 12.972857,57.071255 c 0.02196,-0.533254 0.130431,-0.641717 0.276556,-0.276558 0.132231,0.330435 0.115968,0.725242 -0.03614,0.877352 -0.152106,0.152105 -0.260294,-0.118255 -0.240418,-0.600794 z m 57.182361,-2.937218 c -0.621882,-0.469087 -1.030775,-0.952235 -0.908657,-1.073662 0.122118,-0.121427 0.714686,0.178618 1.316813,0.66676 1.427368,1.157169 1.065184,1.518241 -0.408156,0.406902 z m 8.013131,0.0027 c -0.45708,-0.505006 -0.618363,-0.918242 -0.358408,-0.918242 0.575961,0 1.717654,1.308408 1.410079,1.615988 -0.12134,0.121339 -0.594592,-0.192621 -1.051671,-0.697686 z m 4.651232,0.607523 c -0.167843,-0.167778 -0.305167,-0.517955 -0.305167,-0.778112 0,-0.286825 0.213205,-0.259799 0.541667,0.06866 0.297921,0.29792 0.435245,0.648097 0.305167,0.778171 -0.130079,0.130078 -0.373829,0.09918 -0.541667,-0.06866 z m 4.119732,0 c -0.167843,-0.167778 -0.305167,-0.517955 -0.305167,-0.778112 0,-0.286825 0.213205,-0.259799 0.541667,0.06866 0.297921,0.29792 0.435245,0.648097 0.305167,0.778171 -0.130079,0.130078 -0.373829,0.09918 -0.541667,-0.06866 z M 74.019847,53.942529 c -0.488303,-0.357057 -0.766728,-0.770294 -0.618719,-0.918302 0.148008,-0.148008 0.643076,0.144131 1.100156,0.649196 0.972458,1.07455 0.772742,1.186186 -0.481437,0.269106 z m -61.04699,-0.991006 c 0.02196,-0.533254 0.130431,-0.641717 0.276556,-0.276558 0.132231,0.330435 0.115968,0.725242 -0.03614,0.877352 -0.152106,0.152105 -0.260294,-0.118255 -0.240418,-0.600794 z m 4.119732,-0.915496 c 0.02196,-0.533254 0.130431,-0.641717 0.276556,-0.276558 0.13223,0.330435 0.115968,0.725242 -0.03614,0.877352 -0.152106,0.152105 -0.260294,-0.118255 -0.240418,-0.600794 z m 13.42012,0.124013 c -0.529542,-0.298992 -0.908036,-0.749604 -0.841098,-1.001365 0.06694,-0.251762 0.24664,-1.024211 0.399339,-1.716555 0.292733,-1.327263 1.213167,-1.647202 1.97534,-0.686622 0.302158,0.380814 0.282629,1.136744 -0.05839,2.260172 -0.468028,1.541846 -0.595745,1.640921 -1.475193,1.14437 z m -4.291218,-0.989221 c -0.472676,-0.569539 -0.474446,-1.100083 -0.0092,-2.761731 0.31672,-1.131223 0.777404,-2.056767 1.023739,-2.056767 0.26403,0 0.31141,0.516733 0.115423,1.258807 -0.532866,2.017616 -0.494419,2.640574 0.154641,2.505658 0.728421,-0.151414 0.544082,1.344996 -0.196039,1.591388 -0.276916,0.09219 -0.766765,-0.14962 -1.088554,-0.537355 z m -7.658139,-1.140333 c -0.958576,-0.776208 -0.97308,-0.905933 -0.360791,-3.227013 0.753743,-2.857303 1.246812,-3.488592 2.008212,-2.571161 0.431828,0.520321 0.421308,1.312587 -0.04828,3.636089 l -0.600413,2.970807 z m 4.9405,0.32713 c -0.0431,-0.886846 -0.954425,-1.127237 -0.954425,-0.251761 0,0.367741 -0.151936,0.397361 -0.459687,0.08961 -0.30775,-0.307748 -0.222986,-1.256742 0.256455,-2.871197 0.638606,-2.150417 0.799884,-2.347601 1.48962,-1.821254 0.425413,0.324639 0.807329,0.597044 0.848703,0.605344 0.04137,0.0083 -0.198592,1.148017 -0.533256,2.532705 -0.334664,1.384688 -0.625999,2.157137 -0.64741,1.716555 z m -9.029406,-0.911134 c -0.835923,-0.377839 -0.924293,-0.654483 -0.601488,-1.882974 0.208119,-0.792033 0.605512,-2.315504 0.883094,-3.38549 0.303807,-1.171076 0.770972,-1.945429 1.173673,-1.945429 0.367938,0 0.684739,0.15449 0.704001,0.343311 0.01926,0.188821 0.08898,0.652291 0.154932,1.029933 0.06595,0.377642 -0.207293,1.945933 -0.607208,3.485092 -0.675306,2.599061 -0.796939,2.766908 -1.707004,2.355557 z M 47.204091,35.381598 c -0.594352,-0.495147 -0.855084,-0.90712 -0.579403,-0.915496 0.275683,-0.0084 0.874069,0.396744 1.329753,0.900267 1.060107,1.171408 0.647535,1.179781 -0.75035,0.01523 z m -1.080642,-4.134961 c -0.455682,-0.503523 -0.622526,-0.915496 -0.370765,-0.915496 0.251762,0 0.830579,0.411973 1.286261,0.915496 0.455683,0.503523 0.622528,0.915496 0.370766,0.915496 -0.251761,0 -0.830581,-0.411973 -1.286262,-0.915496 z m -1.373244,-4.57748 c -0.155598,-0.251761 -0.07692,-0.457748 0.174844,-0.457748 0.251761,0 0.585054,0.205987 0.740652,0.457748 0.155597,0.251762 0.07692,0.457748 -0.174844,0.457748 -0.251762,0 -0.585055,-0.205986 -0.740652,-0.457748 z m 0.0025,-3.201429 c -0.457056,-0.505066 -0.61834,-0.918303 -0.358385,-0.918303 0.575961,0 1.717654,1.308411 1.410078,1.615987 -0.12134,0.12134 -0.594592,-0.192618 -1.051671,-0.697684 z m 5.842459,0.137726 c 0.445375,-0.116059 1.063334,-0.108426 1.373244,0.01696 0.309909,0.125387 -0.05449,0.220345 -0.80977,0.211016 -0.755285,-0.0093 -1.008849,-0.111918 -0.563474,-0.227978 z M 49.89987,22.704016 c 0.314701,-0.126985 0.829668,-0.126985 1.14437,0 0.314701,0.126985 0.05722,0.230881 -0.572185,0.230881 -0.629404,0 -0.886887,-0.103896 -0.572185,-0.230881 z M 43.605835,19.34519 c -1.498424,-1.172084 -0.444972,-1.173305 1.476617,-0.0017 1.171967,0.714548 1.299135,0.911939 0.583249,0.905317 -0.503523,-0.0047 -1.430463,-0.411297 -2.059866,-0.903623 z"
         id="path6095" />
      <path
         style="fill:#494949;fill-opacity:1;stroke-width:0.457748"
         d="m 17.128727,57.338273 c 0,-0.629404 0.103897,-0.886887 0.230882,-0.572185 0.126985,0.314702 0.126985,0.829668 0,1.14437 -0.126985,0.314701 -0.230882,0.05722 -0.230882,-0.572185 z m 9.106492,-2.950021 c -0.773963,-0.823846 -0.97392,-1.427222 -0.758033,-2.287385 0.259437,-1.033678 0.397805,-1.103054 1.200354,-0.601852 0.643004,0.40156 0.907115,1.067546 0.907115,2.287385 0,0.946486 -0.06709,1.720881 -0.149082,1.720881 -0.082,0 -0.622155,-0.503564 -1.200354,-1.119029 z m 5.080005,0.526776 c -0.04261,-0.510169 -0.371941,-0.770188 -0.869644,-0.686622 -0.575723,0.09667 -0.841803,-0.219595 -0.945901,-1.124302 -0.15955,-1.386638 0.236789,-1.565695 1.469866,-0.664051 0.562658,0.411429 0.751867,1.011102 0.613823,1.945429 -0.109757,0.74287 -0.230422,0.981165 -0.268144,0.529546 z m -9.410836,-0.735042 c -0.593082,-0.655349 -0.709781,-1.280779 -0.473745,-2.538959 0.381591,-2.034054 0.88991,-1.69652 0.88991,0.590925 0,1.094434 0.197923,1.633625 0.572185,1.558774 0.314702,-0.06294 0.572185,0.194543 0.572185,0.572185 0,0.934616 -0.614346,0.862603 -1.560535,-0.182925 z m -8.608569,-2.105815 c 0.116723,-1.510569 0.272021,-2.814674 0.345106,-2.898012 0.238026,-0.271421 2.042282,0.858781 2.042282,1.279305 0,0.224919 -0.360476,0.766852 -0.801059,1.204289 -0.440582,0.437443 -1.025495,1.327598 -1.299806,1.978126 -0.41329,0.980116 -0.462384,0.712187 -0.286523,-1.563708 z m 56.587035,1.029933 -0.872006,-1.029933 0.98246,0.829041 c 0.758223,0.639822 1.037285,0.69206 1.222668,0.228874 0.156893,-0.391993 0.252745,-0.32231 0.276347,0.200892 0.0493,1.092818 -0.564325,1.005558 -1.609469,-0.228874 z m 3.898008,-0.178366 c -1.056396,-1.148549 -1.061221,-1.180349 -0.103589,-0.682356 1.062291,0.552419 1.736696,1.36197 1.408234,1.690431 -0.108138,0.108139 -0.695227,-0.345494 -1.304645,-1.008075 z m 4.918987,0.903132 c -0.167843,-0.167838 -0.305167,-0.518015 -0.305167,-0.778172 0,-0.286825 0.213205,-0.259799 0.541667,0.06866 0.297921,0.29792 0.435245,0.648098 0.305167,0.778171 -0.130078,0.130078 -0.373829,0.09918 -0.541667,-0.06866 z m 3.409357,-0.873759 c -0.60051,-0.626231 -1.012483,-1.217385 -0.915496,-1.313677 0.315856,-0.313603 2.322316,1.548214 2.16258,2.00668 -0.08539,0.245079 -0.646578,-0.06677 -1.247084,-0.693003 z m 4.791784,0.782612 c -0.197184,-0.31905 -0.234898,-0.70371 -0.08381,-0.854803 0.409671,-0.409666 0.856341,0.192849 0.635075,0.856652 -0.155048,0.46515 -0.262871,0.464789 -0.551266,-0.0018 z M 17.51345,53.447415 c -0.138947,-0.691287 0.06133,-3.636607 0.261219,-3.84165 0.09633,-0.09882 0.489112,0.08089 0.872838,0.399357 0.819039,0.679743 0.935602,1.891383 0.166021,1.725738 -0.292414,-0.06294 -0.683854,0.400529 -0.869867,1.029933 -0.186013,0.629403 -0.379608,0.938383 -0.430211,0.686622 z m 47.334176,-13.618003 -0.872006,-1.029933 1.029933,0.872005 c 0.967881,0.819468 1.238318,1.187861 0.872006,1.187861 -0.08686,0 -0.550332,-0.46347 -1.029933,-1.029933 z m 4.333706,-3.890858 c -0.569379,-0.726014 -0.553189,-0.742204 0.172827,-0.172825 0.762494,0.597988 1.004977,0.973884 0.628232,0.973884 -0.09505,0 -0.455528,-0.360476 -0.801059,-0.801059 z m -21.270382,-0.643045 -0.872005,-0.986356 1.258807,0.810128 c 1.297972,0.835333 1.54343,1.162584 0.872005,1.162584 -0.212743,0 -0.779206,-0.44386 -1.258807,-0.986356 z m -0.830881,-4.003428 c -1.145474,-1.265736 -0.228188,-1.444401 0.972453,-0.189409 0.633537,0.662218 0.78886,1.059461 0.414253,1.059461 -0.329624,0 -0.95364,-0.391523 -1.386706,-0.870052 z M 46.157796,27.0997 c -1.140997,-1.150244 -0.371139,-1.131376 1.110023,0.02721 0.741954,0.580365 0.902921,0.889152 0.457748,0.878113 -0.377642,-0.0094 -1.083139,-0.416758 -1.567771,-0.905318 z m -0.949843,-4.092527 c -1.057393,-1.168404 -0.349351,-1.168404 1.14437,0 0.833069,0.651635 0.945757,0.897908 0.414256,0.905318 -0.401563,0.0056 -1.102945,-0.401795 -1.558626,-0.905318 z m 1.974038,-1.22819 c 0.330434,-0.13223 0.725242,-0.115967 0.877352,0.03614 0.152105,0.152106 -0.118255,0.260294 -0.600794,0.240418 -0.533254,-0.02196 -0.641717,-0.130431 -0.276558,-0.276556 z m -2.413642,-2.592795 c -0.4639,-0.339213 -0.65673,-0.732152 -0.428511,-0.8732 0.228219,-0.141047 0.900204,0.13649 1.4933,0.61675 1.24418,1.007478 0.279911,1.239718 -1.064789,0.25645 z m 4.67911,-0.622494 c 0.569397,-0.10949 1.393344,-0.105333 1.830992,0.0092 0.437648,0.11457 -0.02824,0.204153 -1.03527,0.199073 -1.007046,-0.0051 -1.365119,-0.09882 -0.795722,-0.208311 z m -1.349972,-0.904443 c 0.330434,-0.13223 0.725242,-0.115967 0.877352,0.03614 0.152105,0.152106 -0.118255,0.260294 -0.600794,0.240418 -0.533254,-0.02196 -0.641717,-0.130431 -0.276558,-0.276556 z m 4.57748,0 c 0.330434,-0.13223 0.725242,-0.115967 0.877352,0.03614 0.152105,0.152106 -0.118255,0.260294 -0.600795,0.240418 -0.533253,-0.02196 -0.641716,-0.130431 -0.276557,-0.276556 z"
         id="path6093" />
      <path
         style="fill:#333333;fill-opacity:1;stroke-width:0.457748"
         d="M 16.019408,99.437571 C 11.779299,98.372716 7.8220484,95.033229 6.0005515,90.98275 5.2283229,89.265541 4.9713071,87.836717 4.9713071,85.2609 c 0,-4.174414 1.1508094,-7.06724 3.9820174,-10.009712 1.9008995,-1.975609 5.7388425,-4.167334 7.3126205,-4.176003 0.73207,-0.0041 0.746896,-0.105411 0.151283,-1.034405 -1.121163,-1.748712 -2.556937,-7.247744 -2.958023,-11.329263 -0.385675,-3.924695 -0.111487,-6.55302 0.405895,-3.890858 0.146787,0.755284 0.487278,1.330293 0.756646,1.277799 0.275532,-0.05369 0.619385,1.047542 0.786104,2.517614 0.162989,1.437182 0.58016,3.687672 0.927047,5.001093 0.346886,1.313421 0.496654,2.370457 0.332817,2.348971 -0.87713,-0.115028 -0.932624,0.222928 -0.289394,1.762394 0.885813,2.120046 1.091534,2.323592 1.568474,1.551889 0.293683,-0.475188 0.45494,-0.392167 0.692579,0.356567 0.201724,0.635579 0.689306,0.975978 1.397962,0.975978 h 1.0882 L 20.025861,68.209788 C 18.589035,65.06981 17.656422,61.170695 17.275704,56.71179 c -0.21899,-2.564771 -0.16303,-3.51253 0.194352,-3.291657 0.27604,0.170603 0.501891,0.607011 0.501891,0.969794 0,0.362784 0.30898,0.659606 0.686622,0.659606 0.474239,0 0.686622,0.476236 0.686622,1.53964 0,1.6581 0.65691,5.507738 1.163685,6.819452 0.237168,0.613876 0.135499,0.738713 -0.426097,0.52321 -0.87532,-0.335891 -0.883341,-0.282064 -0.235061,1.577596 0.498434,1.429804 1.324347,1.968482 1.332937,0.869365 0.0037,-0.46737 1.992533,3.409929 2.35216,4.585513 0.105715,0.345568 3.264104,1.886952 3.494084,1.705207 0.07088,-0.05601 -0.574845,-1.170365 -1.434935,-2.476343 -2.044829,-3.104918 -3.792726,-8.52313 -4.205363,-13.035985 l -0.330468,-3.614191 1.150968,0.867703 c 0.935992,0.705637 1.19742,1.379524 1.399671,3.607942 0.146956,1.619164 0.06073,2.856411 -0.210754,3.024199 -0.566871,0.350347 0.349069,4.077148 1.002045,4.077148 0.242057,0 0.444628,-0.257484 0.450157,-0.572185 0.0055,-0.314702 0.422732,0.337433 0.927117,1.449189 0.504385,1.11175 1.663345,3.068623 2.575466,4.348605 0.931535,1.307219 1.227384,1.94504 0.675001,1.455227 -1.59627,-1.415448 -1.237823,0.228101 0.389843,1.787501 0.755284,0.723608 1.373244,1.065404 1.373244,0.759542 0,-0.305858 1.351225,0.47955 3.002722,1.745352 1.651497,1.265801 3.247893,2.315939 3.547547,2.333635 0.299654,0.01767 0.132852,0.193074 -0.370671,0.389732 -0.806206,0.31488 -0.683255,0.476085 1.029933,1.350375 1.758613,0.897474 2.130315,0.897076 2.017488,-0.0023 -0.01999,-0.159365 1.209883,0.09812 2.733064,0.572185 1.52318,0.474066 3.214536,0.862086 3.758568,0.862264 0.732148,2.38e-4 1.006302,0.297568 1.055162,1.14437 0.07912,1.371107 -0.406933,1.4215 -4.204008,0.43585 -3.364653,-0.873397 -6.859209,-2.445144 -9.545123,-4.2931 l -2.039509,-1.403217 0.76622,1.828634 c 0.421422,1.005751 1.141595,1.95041 1.600385,2.099242 0.477726,0.154975 0.728951,0.544784 0.587936,0.912264 -0.151112,0.393792 0.269374,0.908287 1.088534,1.331887 1.651128,0.853832 2.003606,0.866622 1.694647,0.06148 -0.184539,-0.480896 0.297829,-0.423902 2.051359,0.242387 1.260948,0.47912 3.305775,1.08841 4.544059,1.353977 1.261575,0.270557 2.129166,0.680667 1.973342,0.932795 -0.152946,0.247472 0.154614,0.563103 0.683468,0.701402 1.185103,0.309909 1.269512,1.060172 0.119278,1.060172 -1.524241,0 -7.955437,-1.80989 -10.387286,-2.923229 l -2.385569,-1.09215 -0.248032,2.403204 c -0.530453,5.139595 -4.072083,10.109356 -8.638296,12.121607 -2.507476,1.105003 -6.772309,1.531614 -9.204701,0.920751 z m 1.952539,-5.930712 c 0,-1.083123 -0.37292,-1.613538 -1.797038,-2.555973 -4.259152,-2.818574 -4.262285,-8.979212 -0.0057,-11.262029 4.41094,-2.365614 9.58448,0.709839 9.58448,5.697576 0,3.111235 -2.477864,6.713208 -5.942011,8.637668 l -1.610831,0.894874 2.273543,-0.256403 c 2.801742,-0.315969 5.313502,-1.915062 6.991946,-4.451361 1.060391,-1.60236 1.262715,-2.395546 1.262715,-4.950311 0,-2.554765 -0.202324,-3.34795 -1.262715,-4.950311 -0.694494,-1.049451 -2.121357,-2.476316 -3.170807,-3.170806 -1.602359,-1.060392 -2.395545,-1.262717 -4.950312,-1.262717 -2.554766,0 -3.347952,0.202325 -4.950311,1.262717 -3.694558,2.444941 -5.3398425,6.651815 -4.223247,10.798536 0.644511,2.393532 3.835078,5.776353 6.049835,6.414381 0.836883,0.241087 1.573102,0.456919 1.636042,0.479624 0.06294,0.0227 0.114437,-0.573755 0.114437,-1.325465 z M 33.848073,81.970837 c -0.146125,-0.36516 -0.254592,-0.256696 -0.276556,0.276557 -0.01988,0.48254 0.08831,0.752899 0.240418,0.600794 0.152106,-0.152109 0.168368,-0.546917 0.03614,-0.877351 z m -2.143686,-5.107328 c 0,-0.08686 -0.46347,-0.550332 -1.029933,-1.029933 l -1.029933,-0.872006 0.872004,1.029933 c 0.819469,0.967881 1.187862,1.238319 1.187862,0.872006 z m -2.28874,-2.28874 c 0,-0.08686 -0.46347,-0.550332 -1.029933,-1.029933 l -1.029933,-0.872006 0.872004,1.029933 c 0.819469,0.967881 1.187862,1.238319 1.187862,0.872006 z m -6.532445,-3.780614 c -0.152106,-0.152105 -0.546914,-0.168364 -0.877351,-0.03612 -0.36516,0.146122 -0.256694,0.25459 0.276557,0.276553 0.482542,0.01987 0.752899,-0.08831 0.600794,-0.240419 z m 25.757861,10.58024 V 66.493233 H 71.077054 93.51305 l -0.120781,14.762372 -0.120777,14.762373 -22.315215,0.11879 -22.315214,0.118795 z m -5.810395,10.063741 c -3.379286,-0.734493 -8.302822,-2.478133 -8.668564,-3.069914 -0.460596,-0.74526 0.136757,-0.868215 1.406769,-0.289562 0.928893,0.423233 1.317555,0.43183 1.563072,0.03456 0.239582,-0.387653 1.081177,-0.293924 3.154247,0.351285 1.555113,0.484009 3.911208,1.023772 5.235767,1.199483 1.764952,0.234129 2.16696,0.409245 1.504887,0.655537 -0.830805,0.309062 -0.839028,0.362344 -0.102338,0.663048 0.440582,0.17984 0.801059,0.510929 0.801059,0.735756 0,0.547316 -1.476469,0.462793 -4.894899,-0.28021 z M 42.663874,78.720926 C 33.989817,75.763829 27.798201,68.930255 25.985788,60.313635 25.615101,58.551305 25.308235,56.301043 25.303863,55.313054 l -0.0079,-1.79635 1.14437,1.075081 c 1.281381,1.203795 1.49125,2.51543 0.465465,2.909062 -0.373398,0.143284 -0.596589,0.525801 -0.49598,0.850033 0.100608,0.324232 0.307047,1.155974 0.458752,1.848318 0.151705,0.692344 0.529386,1.25958 0.839291,1.260523 0.309905,9.16e-4 0.945745,0.93127 1.412977,2.067392 0.467233,1.136116 1.367649,2.829189 2.000926,3.762372 0.633276,0.933188 0.850003,1.446553 0.481613,1.140818 -1.218435,-1.011211 -1.252732,-0.0195 -0.05369,1.552535 1.222444,1.602704 2.291881,2.088164 1.804992,0.81935 -0.153283,-0.399449 0.700122,0.140103 1.896455,1.198998 1.196334,1.058899 2.857476,2.253956 3.691427,2.65568 1.26339,0.608594 1.378411,0.778771 0.689651,1.020375 -0.697804,0.244776 -0.598798,0.40778 0.635295,1.045954 1.715415,0.887075 3.087472,1.003247 2.603678,0.220452 -0.225861,-0.365453 -0.07635,-0.437827 0.47075,-0.227886 0.440951,0.169212 1.607668,0.436527 2.592705,0.594043 1.498992,0.2397 1.790976,0.463419 1.790976,1.372255 0,1.395889 -1.05733,1.404009 -5.061693,0.03886 z m 1.628583,-3.714565 C 37.083748,72.720564 31.182932,66.260385 29.8741,59.221224 c -0.589439,-3.170125 -0.589737,-5.222356 -7.05e-4,-4.858313 0.251761,0.155598 0.457748,1.094695 0.457748,2.086882 0,1.288053 0.193874,1.803976 0.677901,1.803976 0.372845,0 0.814287,0.566463 0.98098,1.258807 0.166694,0.692344 0.784105,2.22157 1.372025,3.398275 0.769796,1.540729 0.911599,2.195323 0.506701,2.339046 -0.783572,0.278133 1.131095,2.84403 2.126617,2.849935 0.415571,0.0023 1.457013,0.56417 2.314317,1.248228 0.857303,0.684059 2.297745,1.596154 3.200981,2.026876 1.139437,0.543361 1.466321,0.896976 1.06765,1.154953 -0.447651,0.289668 -0.422901,0.473843 0.112024,0.83361 1.191893,0.801617 2.914655,1.093569 3.103845,0.525998 0.09718,-0.291526 0.57149,-0.530045 1.054031,-0.530045 0.630676,0 0.877352,0.321751 0.877352,1.14437 0,1.310084 -0.606416,1.398855 -3.43311,0.502539 z M 35.307983,66.60767 c -0.56938,-0.726016 -0.553189,-0.742207 0.172825,-0.172828 0.440582,0.345531 0.801059,0.706008 0.801059,0.801059 0,0.376745 -0.375896,0.134262 -0.973884,-0.628231 z M 69.708241,52.549075 c -0.806232,-0.862241 -0.905375,-1.124778 -0.343311,-0.909092 0.934566,0.358627 0.956336,0.179117 0.260083,-2.144755 -0.506191,-1.689525 -1.291536,-2.407919 -1.309081,-1.197478 -0.0046,0.314702 -0.631413,-0.560741 -1.39301,-1.945429 -0.761592,-1.384688 -2.354257,-3.505023 -3.539252,-4.711856 -2.137331,-2.176719 -6.802506,-4.900852 -8.392883,-4.900852 -0.532352,0 -0.737761,-0.235204 -0.575247,-0.658702 0.179757,-0.468448 -0.21245,-0.745978 -1.35791,-0.960867 -1.88529,-0.353683 -3.26913,0.202399 -1.868568,0.750863 0.77429,0.303215 0.741831,0.350356 -0.259259,0.376512 -0.629404,0.01645 -1.76233,-0.476637 -2.517614,-1.095735 l -1.373244,-1.125635 2.993626,-0.01646 c 3.384726,-0.01861 7.3357,0.886428 10.160179,2.327368 5.66833,2.891767 11.506915,11.758602 10.803223,16.406447 -0.153524,1.014004 -0.158619,1.013235 -1.287732,-0.194327 z M 64.662242,41.402734 c 0,-0.628812 -2.716835,-3.014365 -3.051654,-2.679546 -0.173093,0.173093 0.275271,0.930526 0.996361,1.683184 1.295088,1.351777 2.055293,1.720309 2.055293,0.996362 z m 9.331253,10.994062 c -0.532439,-0.429207 -1.177356,-1.60432 -1.433145,-2.611365 -0.255785,-1.007046 -0.615539,-2.193803 -0.799443,-2.637242 -0.256788,-0.619162 -0.16322,-0.740572 0.403211,-0.523211 0.92553,0.355158 0.921699,0.144485 -0.03383,-1.859245 -0.854226,-1.791333 -1.752722,-2.205574 -1.27476,-0.587715 0.167349,0.566463 -0.353651,0 -1.157777,-1.258807 -0.80413,-1.258807 -2.214585,-3.073276 -3.134352,-4.032153 -0.919766,-0.958878 -1.311823,-1.606296 -0.87124,-1.438708 1.170118,0.44509 0.980075,-0.13734 -0.457748,-1.40285 -1.644593,-1.447501 -2.903688,-1.548978 -1.673065,-0.13484 0.834269,0.958676 0.804804,0.955318 -0.680886,-0.0776 -0.854089,-0.593803 -2.707969,-1.549101 -4.119732,-2.122885 -1.41175,-0.573783 -2.566827,-1.242649 -2.566827,-1.486369 0,-0.703767 -0.351866,-0.880284 -2.059865,-1.033351 -1.075928,-0.09642 -1.564533,0.03957 -1.487681,0.414052 0.168634,0.821727 -3.134334,0.704376 -4.36119,-0.154949 -1.977144,-1.384845 -1.227799,-1.723449 3.21682,-1.453575 8.788857,0.533651 15.878975,4.738766 20.245877,12.007735 1.849668,3.07888 3.587106,8.254208 3.361967,10.014341 -0.143032,1.118246 -0.182394,1.131598 -1.116337,0.37874 z m 4.744498,0.557643 c -0.188821,-0.190424 -0.346465,-0.878359 -0.350319,-1.528746 -0.0086,-1.45145 -0.647237,-2.542374 -1.264868,-2.160662 -0.254338,0.157195 -0.584928,-0.377551 -0.741963,-1.20016 -0.155777,-0.816023 -0.781152,-2.55282 -1.389728,-3.859552 -0.791817,-1.700189 -0.920815,-2.304621 -0.453582,-2.125329 0.896197,0.343904 0.819634,-0.156202 -0.301679,-1.970526 -0.525028,-0.84951 -1.140694,-1.429545 -1.368154,-1.288966 -0.227464,0.140578 -0.08319,0.75982 0.320616,1.376095 0.403798,0.616275 0.634864,1.1205 0.513488,1.1205 -0.121381,0 -0.779261,-0.844053 -1.461956,-1.875674 -0.682694,-1.03162 -2.306464,-2.896118 -3.608372,-4.143327 -1.301913,-1.24721 -2.006639,-2.132005 -1.566057,-1.966211 1.281072,0.482077 0.923022,-0.399646 -0.567955,-1.398622 -1.246814,-0.835384 -2.21523,-0.911148 -1.962695,-0.153551 0.05577,0.167308 -1.077159,-0.293681 -2.517614,-1.024421 -1.44046,-0.730739 -3.336535,-1.466032 -4.213502,-1.633984 -1.331506,-0.255001 -1.444753,-0.360843 -0.686622,-0.641721 0.83111,-0.307917 0.798921,-0.379316 -0.380741,-0.844515 -1.602415,-0.631912 -3.059999,-0.655925 -3.059999,-0.05041 0,0.861196 -5.168122,0.511144 -6.397235,-0.433303 l -1.133136,-0.870695 1.303112,-0.32706 c 2.01167,-0.504897 7.937693,0.107862 11.49136,1.188222 9.885833,3.005421 17.956941,11.833807 19.914276,21.782736 0.557579,2.834129 0.504814,4.656662 -0.116675,4.029886 z m 3.282584,-0.923754 c -0.333268,-0.40156 -0.958437,-2.100949 -1.389274,-3.776421 -0.430837,-1.675472 -0.870577,-3.355293 -0.97721,-3.732935 -0.106628,-0.377642 -0.107044,-0.530848 -9.15e-4,-0.340459 0.510911,0.91662 0.917734,-0.303435 0.500382,-1.500651 -0.476735,-1.36756 -1.294969,-1.862272 -1.308184,-0.790941 -0.0037,0.314702 -0.757985,-0.766728 -1.675783,-2.403177 -2.227507,-3.971676 -7.739416,-9.372938 -11.820729,-11.583439 -1.762329,-0.954504 -2.740766,-1.608641 -2.174303,-1.453637 1.406678,0.384916 1.304907,-0.423126 -0.135974,-1.079636 -1.504517,-0.685504 -1.731482,-0.669215 -1.435154,0.102997 0.19582,0.5103 -0.273729,0.477655 -2.403131,-0.167075 -1.455575,-0.440713 -3.598911,-0.94412 -4.762973,-1.118681 -1.259544,-0.188881 -2.073745,-0.538239 -2.010942,-0.862858 0.06546,-0.338333 -0.502859,-0.545473 -1.496584,-0.545473 -1.037564,0 -1.561791,0.201627 -1.487681,0.572185 0.17344,0.867196 -1.791841,0.669873 -3.063631,-0.307602 l -1.118202,-0.859431 3.062868,-0.328005 c 3.898836,-0.41753 10.535697,0.657745 14.554047,2.357983 7.557428,3.19769 13.601981,8.817847 17.062254,15.864296 1.797215,3.659818 3.490452,9.470002 3.490452,11.977147 0,0.912544 -0.641049,0.901544 -1.409333,-0.02417 z M 74.27495,33.615169 c 0,-0.623989 -2.10315,-2.401538 -2.441321,-2.063366 -0.172447,0.172446 0.136221,0.79229 0.685935,1.37743 1.015743,1.081213 1.755386,1.370235 1.755386,0.685936 z m 11.919236,18.357446 c -0.36786,-0.414344 -1.120714,-2.51787 -1.673014,-4.674504 -0.5523,-2.156633 -1.146196,-4.333125 -1.319774,-4.836648 -0.247166,-0.71699 -0.212377,-0.769491 0.16044,-0.24213 0.845717,1.196279 1.058025,0.16205 0.326256,-1.589317 -0.445087,-1.065245 -0.938773,-1.614098 -1.320205,-1.467729 -0.367517,0.141029 -0.958795,-0.428237 -1.490176,-1.434709 -0.484503,-0.917678 -2.196609,-3.317766 -3.804682,-5.333529 -1.608073,-2.015764 -2.381333,-3.166413 -1.718359,-2.556996 0.662975,0.609416 1.307063,1.006372 1.431314,0.882124 0.124247,-0.124247 -0.417017,-0.828847 -1.202806,-1.565776 -0.952139,-0.892936 -1.497948,-1.148228 -1.636275,-0.765341 -0.137379,0.380273 -0.825146,0.0459 -2.034099,-0.988916 -1.004597,-0.859897 -3.201435,-2.318456 -4.881864,-3.241242 -1.680425,-0.922785 -2.694845,-1.565667 -2.254263,-1.428626 1.515055,0.471249 0.799549,-0.684943 -0.850537,-1.374393 -1.711551,-0.715133 -2.720227,-0.487686 -1.539383,0.347116 0.539328,0.381281 0.500016,0.419413 -0.197491,0.191567 -1.323537,-0.432343 -6.241705,-1.552586 -8.125471,-1.850791 -0.919799,-0.145606 -1.788774,-0.568116 -1.93106,-0.93891 -0.352407,-0.91835 -3.430592,-0.908221 -3.783887,0.01245 -0.35296,0.919795 -1.216438,0.865511 -2.477658,-0.155763 -1.039354,-0.841618 -1.037501,-0.842646 2.036348,-1.129686 5.733875,-0.535438 12.181415,0.683845 18.127054,3.427976 11.116597,5.130717 19.105229,15.548252 21.032728,27.427631 0.712988,4.394216 0.57424,4.91642 -0.873136,3.286142 z M 54.505959,28.187455 c 0.330434,-0.13223 0.725242,-0.115967 0.877352,0.03614 0.152105,0.152106 -0.118255,0.260295 -0.600795,0.240419 -0.533253,-0.02196 -0.641717,-0.130431 -0.276557,-0.276556 z"
         id="path6091" />
    </g>
  </g>
</svg>
