<?xml version="1.0" encoding="UTF-8" standalone="no"?>
<!-- Created with Inkscape (http://www.inkscape.org/) -->

<svg
   width="100mm"
   height="100mm"
   viewBox="0 0 100 100"
   version="1.1"
   id="svg4370"
   inkscape:version="1.1.1 (3bf5ae0d25, 2021-09-20)"
   sodipodi:docname="add_list_type_device_6154.svg"
   xmlns:inkscape="http://www.inkscape.org/namespaces/inkscape"
   xmlns:sodipodi="http://sodipodi.sourceforge.net/DTD/sodipodi-0.dtd"
   xmlns="http://www.w3.org/2000/svg"
   xmlns:svg="http://www.w3.org/2000/svg">
  <sodipodi:namedview
     id="namedview4372"
     pagecolor="#505050"
     bordercolor="#ffffff"
     borderopacity="1"
     inkscape:pageshadow="0"
     inkscape:pageopacity="0"
     inkscape:pagecheckerboard="1"
     inkscape:document-units="mm"
     showgrid="false"
     inkscape:zoom="0.58974467"
     inkscape:cx="397.62971"
     inkscape:cy="127.17368"
     inkscape:window-width="1440"
     inkscape:window-height="890"
     inkscape:window-x="-6"
     inkscape:window-y="-6"
     inkscape:window-maximized="1"
     inkscape:current-layer="layer1" />
  <defs
     id="defs4367" />
  <g
     inkscape:label="Laag 1"
     inkscape:groupmode="layer"
     id="layer1">
    <g
       id="g4386"
       transform="translate(-2.9305136e-6,0.89728132)">
      <path
         style="fill:#d0d0d0;fill-opacity:1;stroke-width:0.602448"
         d="m 37.483357,84.175758 c 0.434893,-0.174029 0.954505,-0.15263 1.154693,0.04753 0.200189,0.200188 -0.155632,0.342577 -0.790713,0.316418 -0.701818,-0.02892 -0.844573,-0.171661 -0.36398,-0.363975 z m 16.302221,-2.450091 c -0.749368,-0.955519 -0.728059,-0.976828 0.227458,-0.227461 0.579856,0.454759 1.054284,0.929187 1.054284,1.054285 0,0.495839 -0.494722,0.176704 -1.281742,-0.826824 z m 12.651414,0 c -0.749368,-0.955519 -0.728059,-0.976828 0.22746,-0.227461 0.579857,0.454759 1.054285,0.929187 1.054285,1.054285 0,0.495839 -0.494725,0.176704 -1.281745,-0.826824 z M 36.880909,81.163516 c 0.434893,-0.174029 0.954504,-0.15263 1.154693,0.04753 0.200188,0.200188 -0.155633,0.342577 -0.790713,0.316418 -0.701819,-0.02892 -0.844573,-0.171661 -0.36398,-0.363975 z M 63.42475,78.713425 c -0.749368,-0.955519 -0.728059,-0.976828 0.22746,-0.227461 0.579857,0.454759 1.054285,0.929187 1.054285,1.054285 0,0.495839 -0.494725,0.176704 -1.281745,-0.826824 z M 53.259975,74.720662 c 0,-0.125099 0.474428,-0.599527 1.054285,-1.054285 0.955517,-0.749367 0.976825,-0.728059 0.227457,0.227461 -0.78702,1.003528 -1.281742,1.322663 -1.281742,0.826824 z m 9.639175,0 c 0,-0.125099 0.474428,-0.599527 1.054284,-1.054285 0.95552,-0.749367 0.976828,-0.728059 0.227461,0.227461 -0.787021,1.003528 -1.281745,1.322663 -1.281745,0.826824 z m 3.012242,0 c 0,-0.125099 0.474428,-0.599527 1.054284,-1.054285 0.95552,-0.749367 0.976828,-0.728059 0.227461,0.227461 -0.787021,1.003528 -1.281745,1.322663 -1.281745,0.826824 z m 25.302833,-3.614691 c 0,-0.125098 0.474428,-0.599526 1.054285,-1.054284 0.955519,-0.749368 0.976827,-0.728059 0.22746,0.22746 -0.787021,1.003529 -1.281745,1.322664 -1.281745,0.826824 z M 18.843571,69.07425 c -0.749368,-0.955519 -0.72806,-0.976828 0.227457,-0.22746 1.003527,0.78702 1.322663,1.281745 0.826827,1.281745 -0.125102,0 -0.59953,-0.474428 -1.054284,-1.054285 z m 34.942007,-0.602448 c -0.749368,-0.955519 -0.728059,-0.976828 0.227458,-0.22746 0.579856,0.454758 1.054284,0.929186 1.054284,1.054284 0,0.495839 -0.494722,0.176704 -1.281742,-0.826824 z m -39.94724,-0.327208 c 0.226238,-0.594147 0.563103,-0.928505 0.748589,-0.743018 0.185486,0.185488 3.82e-4,0.671604 -0.411342,1.080269 -0.594987,0.590556 -0.664187,0.521359 -0.337247,-0.337251 z m 8.651171,-0.824222 c -0.803288,-0.881797 -1.053871,-1.360376 -0.556851,-1.063508 0.49702,0.296863 1.148931,0.543909 1.44869,0.548981 0.29976,0.0048 0.614649,0.483652 0.699754,1.063509 0.200957,1.369208 0.135135,1.346502 -1.591593,-0.548982 z m 64.206353,-2.011424 c 0.599731,-0.662693 1.22597,-1.204897 1.391644,-1.204897 0.165673,0 -0.189464,0.542204 -0.789196,1.204897 -0.599731,0.662693 -1.22597,1.204897 -1.391644,1.204897 -0.165673,0 0.189464,-0.542204 0.789196,-1.204897 z m -81.7447185,0.19091 c 0.4348924,-0.17403 0.9545042,-0.152631 1.1546928,0.04753 0.2001885,0.200193 -0.1556326,0.342576 -0.7907136,0.316418 -0.701818,-0.02892 -0.844572,-0.171662 -0.3639792,-0.363975 z M 63.476506,64.977487 c -0.64377,-0.775689 -0.585309,-1.107397 0.34507,-1.957958 1.057683,-0.966935 1.075883,-0.965248 0.326323,0.03024 -0.635228,0.843645 -0.643994,1.234833 -0.04386,1.957958 0.412491,0.49702 0.614432,0.903672 0.448758,0.903672 -0.165673,0 -0.650005,-0.420256 -1.076298,-0.933909 z m -3.063995,-1.325272 c -0.749368,-0.95552 -0.72806,-0.976828 0.227457,-0.227461 0.579857,0.454758 1.054285,0.929187 1.054285,1.054285 0,0.495839 -0.494722,0.176704 -1.281742,-0.826824 z M 40.86675,62.196296 c 0,-0.607467 0.06792,-1.104487 0.150932,-1.104487 0.08301,0 0.416929,0.49702 0.742037,1.104487 0.424479,0.793147 0.381933,1.104492 -0.150932,1.104492 -0.40812,0 -0.742037,-0.49702 -0.742037,-1.104492 z M 6.2689994,61.729814 c 0,-0.311794 0.2679964,-0.732527 0.5955477,-0.934965 0.3415039,-0.211061 0.4425029,0.03076 0.236769,0.566894 -0.4005023,1.043693 -0.8323167,1.234651 -0.8323167,0.368071 z m 80.3696236,-1.391066 -1.147658,-1.355508 1.355509,1.147656 c 1.273841,1.078514 1.629767,1.563361 1.147658,1.563361 -0.114321,0 -0.7243,-0.609979 -1.355509,-1.355509 z M 1.4969738,56.523242 c 0.028908,-0.701818 0.1716618,-0.844572 0.3639793,-0.363979 0.1740296,0.434892 0.1526268,0.954504 -0.047562,1.154693 C 1.6132027,57.514144 1.4708149,57.158323 1.4969738,56.523242 Z M 91.739825,55.217937 c -0.749368,-0.955517 -0.728059,-0.976826 0.22746,-0.227457 1.003529,0.787019 1.322664,1.281742 0.826825,1.281742 -0.125099,0 -0.599527,-0.474428 -1.054285,-1.054285 z M 17.715519,55.10288 c 0,-0.311792 0.267997,-0.732525 0.595548,-0.934963 0.341504,-0.211061 0.442503,0.03076 0.236769,0.566894 -0.400502,1.043692 -0.832317,1.23465 -0.832317,0.368069 z m 18.121014,-0.386983 c 0.0289,-0.701818 0.171662,-0.844573 0.363979,-0.36398 0.17403,0.434893 0.152627,0.954505 -0.04756,1.154693 -0.200189,0.200189 -0.342577,-0.155633 -0.316418,-0.790713 z m 17.423442,0.726419 c 0,-0.125102 0.474428,-0.59953 1.054285,-1.054285 0.955517,-0.749368 0.976825,-0.728059 0.227457,0.227458 -0.78702,1.003527 -1.281742,1.322662 -1.281742,0.826827 z M 13.013379,53.561204 c 0.01228,-0.99404 0.147297,-1.327758 0.300044,-0.741595 0.152747,0.586163 0.142702,1.399468 -0.02232,1.807345 -0.165026,0.407877 -0.290001,-0.07171 -0.277724,-1.06575 z M 11.18371,53.25998 c 0,-0.828367 0.13674,-1.167244 0.303867,-0.753061 0.167126,0.414183 0.167126,1.091938 0,1.506121 -0.167127,0.414183 -0.303867,0.07531 -0.303867,-0.75306 z M 28.004704,53.511 c 0.0289,-0.701818 0.171662,-0.844572 0.363979,-0.363979 0.17403,0.434892 0.152627,0.954504 -0.04756,1.154693 -0.200189,0.200188 -0.342577,-0.155633 -0.316418,-0.790714 z m 7.831829,-1.807345 c 0.0289,-0.701818 0.171662,-0.844573 0.363979,-0.36398 0.17403,0.434893 0.152627,0.954505 -0.04756,1.154693 -0.200189,0.200189 -0.342577,-0.155633 -0.316418,-0.790713 z M 1.5445355,50.247738 c 0,-0.828367 0.13674,-1.167244 0.3038666,-0.753061 0.1671265,0.414183 0.1671265,1.091938 0,1.506121 -0.1671266,0.414183 -0.3038666,0.07531 -0.3038666,-0.75306 z m 89.6696895,0.977439 c 0,-0.125102 0.474428,-0.59953 1.054285,-1.054285 0.955519,-0.749368 0.976827,-0.728059 0.22746,0.227458 -0.787021,1.003527 -1.281745,1.322663 -1.281745,0.826827 z M 6.2413852,48.991243 c -0.3698505,-0.691072 -0.539693,-1.389256 -0.3774279,-1.551522 0.1622652,-0.162265 0.47485,0.271544 0.6946331,0.964018 0.2210619,0.696505 0.6909895,1.078961 1.0517634,0.85599 0.388578,-0.240154 0.4784223,-0.121945 0.2222956,0.292477 -0.5946101,0.962099 -0.8183607,0.883221 -1.5912642,-0.560963 z M 19.824089,46.633047 c -0.204784,-0.331346 -0.08523,-0.602448 0.265669,-0.602448 0.350902,0 0.638003,0.271102 0.638003,0.602448 0,0.331347 -0.119551,0.602449 -0.265669,0.602449 -0.146119,0 -0.43322,-0.271102 -0.638003,-0.602449 z m 5.728674,0 c -0.05747,-0.49702 -0.224221,-1.628254 -0.370554,-2.513854 -0.187864,-1.136936 0.180826,-2.092381 1.254436,-3.250826 0.836273,-0.902354 1.516814,-1.39773 1.512313,-1.100836 -0.01783,1.176284 -2.298466,7.710692 -2.396195,6.865516 z M 86.695862,45.42815 c 0.599731,-0.662693 1.22597,-1.204896 1.391644,-1.204896 0.165673,0 -0.189464,0.542203 -0.789196,1.204896 -0.599731,0.662694 -1.22597,1.204897 -1.391644,1.204897 -0.165673,0 0.189464,-0.542203 0.789196,-1.204897 z M 22.12411,43.228537 c 0.215748,-0.215748 -0.07795,-0.772907 -0.652653,-1.238131 -0.935297,-0.757124 -0.900943,-0.776003 0.327462,-0.179954 1.181676,0.573375 1.385977,1.810353 0.299,1.810353 -0.201342,0 -0.189557,-0.17652 0.02619,-0.392268 z M 15.305725,33.151725 c 0,-0.125102 0.474429,-0.59953 1.054285,-1.054285 0.955517,-0.749368 0.976826,-0.728059 0.227458,0.227457 -0.78702,1.003528 -1.281743,1.322663 -1.281743,0.826828 z m 24.700385,0 c 0,-0.125102 0.474428,-0.59953 1.054285,-1.054285 0.955517,-0.749368 0.976825,-0.728059 0.227457,0.227457 -0.78702,1.003528 -1.281742,1.322663 -1.281742,0.826828 z M 11.691035,28.258371 c 0.77821,-0.828367 1.550478,-1.506121 1.716151,-1.506121 0.165674,0 -0.335493,0.677754 -1.113703,1.506121 -0.778209,0.828366 -1.550478,1.506121 -1.716151,1.506121 -0.165673,0 0.335493,-0.677755 1.113703,-1.506121 z M 64.629647,27.50531 c -0.749368,-0.955517 -0.728059,-0.976825 0.22746,-0.227457 0.579857,0.454754 1.054285,0.929182 1.054285,1.054285 0,0.495835 -0.494725,0.176699 -1.281745,-0.826828 z M 30.366936,26.75225 c -0.542982,-0.350902 -0.617289,-0.58768 -0.186167,-0.593223 0.394628,-0.0051 0.885056,0.261876 1.089839,0.593223 0.462262,0.747954 0.253705,0.747954 -0.903672,0 z m 30.284498,-2.827285 c 0.586162,-0.152747 1.399468,-0.142702 1.807344,0.02232 0.407876,0.165025 -0.07171,0.29 -1.065749,0.277722 -0.99404,-0.01228 -1.327758,-0.147297 -0.741595,-0.300045 z M 33.228566,17.918982 c 0.414183,-0.167127 1.091937,-0.167127 1.506121,0 0.414183,0.167127 0.07531,0.303866 -0.753061,0.303866 -0.828366,0 -1.167244,-0.136739 -0.75306,-0.303866 z m 6.664585,-0.01255 c 0.434893,-0.17403 0.954504,-0.152627 1.154693,0.04756 0.200188,0.200189 -0.155633,0.342577 -0.790713,0.316418 -0.701819,-0.0289 -0.844573,-0.171662 -0.36398,-0.363979 z"
         id="path4402" />
      <path
         style="fill:#b9b9b9;fill-opacity:1;stroke-width:0.602448"
         d="m 50.491717,92.870962 -1.147657,-1.355508 1.355509,1.147658 c 1.273844,1.078515 1.629769,1.563359 1.147657,1.563359 -0.114318,0 -0.724297,-0.609979 -1.355509,-1.355509 z m 21.444159,1.128049 c 0,-0.125098 0.474428,-0.599527 1.054284,-1.054285 0.95552,-0.749367 0.976828,-0.728059 0.227461,0.227461 -0.787021,1.003528 -1.281745,1.322663 -1.281745,0.826824 z m -37.95425,-6.098248 c 0,-0.502038 0.53551,-0.903673 1.204897,-0.903673 0.662693,0 1.204897,0.271102 1.204897,0.602449 0,0.331346 1.084407,0.602448 2.409793,0.602448 1.637347,0 2.409794,-0.26424 2.409794,-0.824348 0,-0.874394 4.305213,-1.745016 5.797448,-1.172389 1.61781,0.620811 0.786021,1.236676 -2.584459,1.913569 -5.091946,1.022608 -10.44237,0.910884 -10.44237,-0.218056 z m 54.822805,0.715161 c 0,-0.103682 0.881081,-0.984763 1.957957,-1.957958 l 1.957958,-1.769445 -1.769445,1.957957 c -1.649372,1.825094 -2.14647,2.234873 -2.14647,1.769446 z m -0.29788,-3.429872 c 0.601568,-0.664723 1.224422,-1.077931 1.384119,-0.918234 0.404803,0.40481 -1.097794,2.126824 -1.855824,2.126824 -0.342131,0 -0.129864,-0.543866 0.471705,-1.20859 z M 33.981626,83.984848 c 0,-1.451027 1.677233,-1.613127 2.668219,-0.257872 0.487699,0.666965 1.174201,0.82612 2.321434,0.538186 0.895924,-0.224864 1.479276,-0.651024 1.296337,-0.947025 -0.459017,-0.742711 0.176048,-0.673248 1.736057,0.189886 1.290173,0.713835 1.280564,0.735999 -0.491442,1.133621 -0.99404,0.22305 -3.095079,0.437618 -4.668975,0.476826 -2.483757,0.06186 -2.86163,-0.08783 -2.86163,-1.133622 z m 48.637666,0.527691 c 0.408665,-0.411725 0.894781,-0.596828 1.080268,-0.41134 0.185488,0.185488 -0.148871,0.522353 -0.743017,0.748591 -0.85861,0.326936 -0.927807,0.257739 -0.337251,-0.337251 z m 4.980242,-1.732587 c 0,-0.331347 0.287103,-0.602449 0.638005,-0.602449 0.350902,0 0.470452,0.271102 0.265668,0.602449 -0.204784,0.331346 -0.491887,0.602448 -0.638005,0.602448 -0.146118,0 -0.265668,-0.271102 -0.265668,-0.602448 z M 33.78081,80.570972 c -0.763779,-0.763778 -0.396959,-1.405711 0.803265,-1.405711 0.662693,0 1.204896,0.252245 1.204896,0.560548 0,0.308303 0.609979,0.678032 1.355509,0.821631 0.882497,0.169975 0.602194,0.289712 -0.803264,0.343125 -1.187326,0.04512 -2.339508,-0.09869 -2.560406,-0.319593 z m -0.724134,-3.621275 c -1.488869,-0.296435 -3.169198,-2.604023 -1.896188,-2.604023 0.442069,0 1.44048,0.677754 2.21869,1.506121 0.778209,0.828366 1.299895,1.469203 1.1593,1.42408 -0.140596,-0.04512 -0.807407,-0.191904 -1.481802,-0.326178 z m 61.169791,-0.42169 c 0,-0.125098 0.474428,-0.599526 1.054285,-1.054285 0.955519,-0.749367 0.976827,-0.728059 0.22746,0.227461 -0.787021,1.003528 -1.281745,1.322663 -1.281745,0.826824 z M 76.153015,74.948122 c -0.772279,-0.499086 -0.75038,-0.585339 0.150612,-0.593225 0.579856,-0.0048 1.054284,0.261879 1.054284,0.593225 0,0.734752 -0.06795,0.734752 -1.204896,0 z M 7.1198919,72.380258 C 4.9802911,69.062003 2.6971818,62.629673 2.0571145,58.116612 0.46919209,46.920304 4.4888816,35.664139 12.905617,27.738011 c 6.87753,-6.476642 14.567585,-9.545148 24.088251,-9.611756 5.702459,-0.03989 12.218347,1.218005 10.702745,2.066178 -1.279152,0.71585 -10.675553,-0.07714 -10.523114,-0.888075 0.139172,-0.74036 -3.92147,-0.540352 -4.39677,0.216563 -0.165673,0.263835 -1.521182,0.792658 -3.012242,1.175162 -1.49106,0.382503 -3.696946,1.073834 -4.901969,1.53629 -1.205024,0.462457 -2.348514,0.683268 -2.541089,0.490693 -0.645493,-0.645493 -4.003411,1.151212 -4.007578,2.144315 -0.0023,0.539658 -0.96365,1.634706 -2.136413,2.433441 -1.172764,0.798735 -2.838644,2.289795 -3.701957,3.313466 -0.863312,1.023672 -1.901319,1.78934 -2.306682,1.701484 -0.8937231,-0.193698 -2.8662492,2.658315 -2.5317333,3.660552 0.1314982,0.393978 -0.3936242,2.147339 -1.166938,3.896356 -0.7733138,1.749018 -1.4060252,3.581608 -1.4060252,4.072424 0,0.490815 -0.5422035,1.35664 -1.2048968,1.924055 -1.20036,1.027781 -1.8043589,5.422624 -0.6469409,4.707301 0.6575636,-0.406397 1.1641955,10.052203 0.5106738,10.542038 -0.6657621,0.499009 0.6927757,4.791476 1.5200935,4.802923 0.9001635,0.01247 4.7854389,7.100156 4.3120125,7.866175 -0.5806711,0.939542 -1.124573,0.625209 -2.4351527,-1.407338 z M 96.63626,74.118213 c 0,-0.125098 0.474429,-0.599526 1.054285,-1.054284 0.95552,-0.749368 0.976828,-0.728059 0.227461,0.22746 -0.787021,1.003529 -1.281746,1.322664 -1.281746,0.826824 z M 27.930855,71.055794 c -3.380959,-1.761849 -7.532017,-6.18023 -9.067496,-9.651434 -3.787269,-8.561751 -0.704491,-19.015369 7.23872,-24.546308 1.796162,-1.250685 3.693875,-2.264366 4.217139,-2.252625 0.615768,0.01381 0.420076,0.315387 -0.554731,0.854862 -0.828366,0.458433 -1.506121,1.10052 -1.506121,1.426859 0,0.869124 -5.313901,5.379924 -6.041795,5.128686 -0.863483,-0.298038 -2.874083,3.278199 -2.455826,4.368158 0.376441,0.980991 -0.705942,6.818086 -1.442597,7.77966 -0.730345,0.953338 0.03647,4.518363 0.971869,4.518363 0.459413,0 0.835296,0.368822 0.835296,0.819603 0,0.450781 0.677754,1.81833 1.506121,3.038995 0.828366,1.220669 1.506121,2.74002 1.506121,3.376344 0,1.070448 1.909741,2.648712 3.313466,2.738345 1.698261,0.108434 3.202078,1.05079 3.811573,2.388485 0.374527,0.821998 0.618995,1.48192 0.543262,1.466492 -0.07573,-0.01542 -1.369483,-0.669947 -2.875001,-1.454485 z M 9.4158995,68.471802 C 4.5406493,59.296196 4.4384795,48.377138 9.138272,38.801218 11.256218,34.485859 18.219748,27.52233 22.535106,25.404383 c 4.731707,-2.322287 9.776772,-3.471721 15.237988,-3.471721 3.524881,0 4.679675,0.19343 4.495833,0.753061 -0.305314,0.929401 -4.67261,1.385704 -4.67261,0.488203 0,-0.963077 -2.970647,-0.766475 -4.001979,0.264857 -0.49702,0.49702 -1.423604,0.903673 -2.059075,0.903673 -0.635472,0 -2.501474,0.511467 -4.146671,1.136593 -1.854658,0.704714 -3.069865,0.900804 -3.198113,0.516058 -0.284241,-0.852722 -2.860269,0.561298 -2.860269,1.570044 0,0.423779 -1.245578,1.701974 -2.76795,2.840433 -1.522372,1.138459 -3.017567,2.534258 -3.322656,3.101776 -0.305089,0.567518 -0.91379,0.894057 -1.352669,0.725644 -1.066991,-0.409443 -2.270854,1.130919 -2.496742,3.194624 -0.269132,2.458767 -2.9020002,8.580722 -3.6954531,8.59268 -0.8361799,0.0126 -1.5002217,3.092549 -0.8464965,3.926205 0.706217,0.900596 1.1454218,9.179651 0.5201522,9.804921 -0.6814346,0.681434 0.4927177,3.954296 1.2505839,3.485911 0.2996904,-0.185217 0.8516193,0.543998 1.2265097,1.620483 0.3748908,1.076479 1.3379148,2.949564 2.1400548,4.162407 1.236717,1.869915 1.3177,2.259169 0.532691,2.560406 -0.50916,0.19538 -1.001352,0.355239 -1.093761,0.355239 -0.09241,0 -0.996267,-1.558835 -2.0085745,-3.464078 z m 34.7305045,1.807345 c -0.749368,-0.955519 -0.72806,-0.976828 0.227457,-0.22746 0.579857,0.454758 1.054285,0.929186 1.054285,1.054284 0,0.49584 -0.494722,0.176705 -1.281742,-0.826824 z M 13.323912,67.568129 C 8.4755082,59.258172 8.2285767,49.224707 12.657373,40.484898 c 2.028735,-4.003515 7.554953,-9.531186 11.555254,-11.558292 3.363287,-1.704306 9.561691,-3.36829 12.480017,-3.350305 l 1.807345,0.01114 -1.42225,1.184853 c -1.465509,1.220891 -4.57272,1.604943 -5.169719,0.638977 -0.444147,-0.718645 -4.550577,0.541563 -4.562006,1.400017 -0.0097,0.730192 -6.017132,4.288295 -6.851373,4.057969 -0.750185,-0.207118 -3.413372,2.393848 -3.253124,3.17712 0.160663,0.785302 -2.972164,5.717598 -4.428368,6.971981 -1.192528,1.027251 -2.159695,4.217139 -1.278627,4.217139 0.360938,0 0.380178,1.252283 0.05145,3.348566 -0.288809,1.841712 -0.367319,3.603873 -0.174467,3.915915 0.192852,0.312041 0.06354,0.567348 -0.287363,0.567348 -0.92997,0 -0.782278,4.071062 0.168298,4.639039 1.280193,0.764927 4.04421,7.296952 3.211368,7.589218 -0.469128,0.164631 -0.321097,0.678718 0.443454,1.540039 0.631212,0.711106 0.860299,1.292914 0.509082,1.292914 -0.351216,0 -1.31081,-1.152183 -2.132431,-2.560406 z m 5.442053,0.903673 c -0.871626,-0.911203 -2.345631,-3.283344 -3.275567,-5.271424 -1.515903,-3.240797 -1.690794,-4.269002 -1.690794,-9.940398 0,-5.779831 0.152931,-6.637639 1.772177,-9.940399 3.115435,-6.354523 10.109676,-11.977124 16.504938,-13.268159 1.935032,-0.390632 1.983797,-0.355125 1.290754,0.939838 -0.495773,0.92636 -0.858706,1.121786 -1.164482,0.627031 -0.648961,-1.05004 -3.739243,-0.111306 -4.093531,1.243491 -0.161066,0.615917 -0.511564,1.119849 -0.778885,1.119849 -0.267322,0 -1.726763,0.947065 -3.243202,2.10459 -1.51644,1.157524 -2.757163,1.788022 -2.757163,1.401106 0,-0.386917 -0.677755,-0.06677 -1.506121,0.711442 -1.364301,1.281694 -2.181559,3.500795 -1.026344,2.786833 0.263877,-0.163085 -0.338811,1.379751 -1.339308,3.428524 -1.000496,2.048773 -2.165253,3.94184 -2.588347,4.206814 -0.903139,0.565617 -1.049614,4.63904 -0.166813,4.63904 0.331347,0 0.602448,0.931207 0.602448,2.06935 0,1.138143 0.281608,2.810036 0.625796,3.715318 0.391565,1.029892 0.411256,1.778562 0.05261,2.000217 -0.784069,0.484581 0.852795,4.261058 1.852918,4.274945 0.430179,0.006 1.678532,1.090377 2.774118,2.409794 1.689197,2.034299 1.820793,2.398931 0.865773,2.398931 -0.61941,0 -1.839349,-0.74553 -2.710975,-1.656733 z M 72.461476,51.603247 c -0.749368,-0.955517 -0.728059,-0.976826 0.22746,-0.227458 0.579857,0.454755 1.054285,0.929183 1.054285,1.054285 0,0.495835 -0.494725,0.1767 -1.281745,-0.826827 z m 9.208695,-4.9702 c 0,-0.828366 0.136744,-1.167244 0.303869,-0.75306 0.167125,0.414183 0.167125,1.091937 0,1.506121 -0.167125,0.414183 -0.303869,0.07531 -0.303869,-0.753061 z m 1.411,-4.217139 c 0.599732,-0.662693 1.225971,-1.204897 1.391644,-1.204897 0.165673,0 -0.189464,0.542204 -0.789195,1.204897 -0.599732,0.662694 -1.225971,1.204897 -1.391644,1.204897 -0.165673,0 0.189464,-0.542203 0.789195,-1.204897 z m 11.389281,-0.150612 -1.147658,-1.355509 1.355509,1.147657 c 1.273841,1.078514 1.629768,1.563361 1.147658,1.563361 -0.11432,0 -0.724299,-0.609979 -1.355509,-1.355509 z m 1.807346,-1.204897 -1.147659,-1.355509 1.355509,1.147657 c 1.273841,1.078514 1.629768,1.563361 1.147659,1.563361 -0.114321,0 -0.7243,-0.609979 -1.355509,-1.355509 z M 68.64814,37.035501 c -0.190639,-0.308452 -0.116266,-0.703179 0.165258,-0.877172 0.28153,-0.173993 0.51187,0.07838 0.51187,0.560821 0,1.015828 -0.189976,1.104583 -0.677128,0.316351 z m 3.054642,-15.815522 c 0.173994,-0.281527 0.568718,-0.355895 0.877171,-0.165262 0.788232,0.487155 0.699479,0.67713 -0.316351,0.67713 -0.482447,0 -0.734813,-0.230341 -0.56082,-0.511868 z"
         id="path4400" />
      <path
         style="fill:#a3a3a3;fill-opacity:1;stroke-width:0.602448"
         d="m 47.54098,83.991746 c -0.211061,-0.341503 0.03076,-0.442498 0.566894,-0.236768 1.043692,0.400502 1.23465,0.832319 0.368069,0.832319 -0.311792,0 -0.732525,-0.267999 -0.934963,-0.595551 z M 25.664795,53.561204 c 0.01228,-0.99404 0.147298,-1.327758 0.300045,-0.741595 0.152746,0.586163 0.142701,1.399468 -0.02232,1.807345 -0.165027,0.407877 -0.290002,-0.07171 -0.277724,-1.06575 z m 19.50086,-8.309648 c 0.226238,-0.594147 0.563104,-0.928506 0.74859,-0.74302 0.185486,0.185486 3.82e-4,0.671606 -0.411343,1.080267 -0.594987,0.590561 -0.664187,0.521361 -0.337247,-0.337247 z m 7.491872,-4.87045 c 0,-0.125102 0.474428,-0.59953 1.054284,-1.054285 0.955517,-0.749368 0.976826,-0.72806 0.227458,0.227457 -0.78702,1.003528 -1.281742,1.322663 -1.281742,0.826828 z m 24.341922,-2.332949 -1.147659,-1.355509 1.355509,1.147657 c 1.273841,1.078514 1.629768,1.563361 1.147659,1.563361 -0.114321,0 -0.7243,-0.609979 -1.355509,-1.355509 z M 36.993868,27.127241 c 0,-0.125102 0.474428,-0.59953 1.054285,-1.054285 0.955517,-0.749368 0.976825,-0.72806 0.227457,0.227457 -0.78702,1.003528 -1.281742,1.322663 -1.281742,0.826828 z m 23.947324,-5.593569 c 0.414184,-0.167126 1.091938,-0.167126 1.506121,0 0.414184,0.167127 0.07531,0.303867 -0.75306,0.303867 -0.828367,0 -1.167244,-0.13674 -0.753061,-0.303867 z"
         id="path4398" />
      <path
         style="fill:#8c8c8c;fill-opacity:1;stroke-width:0.602448"
         d="m 17.763081,92.670148 c 0.02891,-0.701822 0.171662,-0.844572 0.363979,-0.363981 0.17403,0.434889 0.152627,0.954501 -0.04756,1.154695 -0.200189,0.200187 -0.342577,-0.155637 -0.316418,-0.790714 z m 18.872323,-16.667741 -1.147657,-1.355509 1.355509,1.147658 c 1.273844,1.078515 1.629768,1.56336 1.147657,1.56336 -0.114319,0 -0.724298,-0.609979 -1.355509,-1.355509 z M 33.426739,53.511 c 0.02891,-0.701818 0.171662,-0.844572 0.36398,-0.363979 0.17403,0.434892 0.152626,0.954504 -0.04756,1.154693 -0.200188,0.200188 -0.342577,-0.155633 -0.316418,-0.790714 z m 43.725087,-8.353392 c -0.22346,-0.58233 -0.04548,-0.761896 0.534528,-0.539322 0.478242,0.183519 0.719541,0.576365 0.536215,0.872992 -0.461734,0.747098 -0.682405,0.678332 -1.070743,-0.33367 z m -32.024904,-6.35639 c 0.599729,-0.662693 1.225967,-1.204897 1.39164,-1.204897 0.165674,0 -0.189463,0.542204 -0.789192,1.204897 -0.599729,0.662693 -1.225967,1.204897 -1.391641,1.204897 -0.165673,0 0.189464,-0.542204 0.789193,-1.204897 z m -3.915915,-2.806819 c 0,-0.328812 0.74553,-1.255077 1.656733,-2.058365 l 1.656733,-1.460524 -1.506121,1.807345 c -0.828366,0.99404 -1.573896,1.920304 -1.656733,2.058365 -0.08284,0.138061 -0.150612,-0.01801 -0.150612,-0.346821 z m 20.370287,-0.616964 c 0.434889,-0.17403 0.954501,-0.152627 1.154695,0.04756 0.200187,0.200189 -0.155637,0.342577 -0.790714,0.316418 -0.70182,-0.02891 -0.844574,-0.171662 -0.363981,-0.363979 z m 22.326702,-1.245192 c -0.764815,-0.975217 -0.736463,-0.988002 0.378072,-0.170474 0.662693,0.486096 1.317856,0.960525 1.455919,1.054285 0.138057,0.09376 -0.03207,0.170473 -0.378072,0.170473 -0.345999,0 -1.001161,-0.474428 -1.455919,-1.054284 z m 2.128179,-3.313467 -1.147658,-1.355508 1.355508,1.147657 c 0.74553,0.631211 1.355509,1.24119 1.355509,1.355508 0,0.482112 -0.484844,0.126187 -1.563359,-1.147657 z"
         id="path4396" />
      <path
         style="fill:#767676;fill-opacity:1;stroke-width:0.602448"
         d="m 54.388027,77.560507 c -0.74498,-0.903088 -0.700486,-0.935006 0.44947,-0.322418 0.701963,0.373934 1.447493,0.508689 1.656733,0.299447 0.20924,-0.209242 0.380436,-0.06415 0.380436,0.322418 0,1.038218 -1.535725,0.853278 -2.486639,-0.299447 z m 12.651413,0 c -0.744975,-0.903088 -0.700485,-0.935006 0.449475,-0.322418 0.701961,0.373934 1.447491,0.508689 1.656733,0.299447 0.209236,-0.209242 0.380434,-0.06415 0.380434,0.322418 0,1.038218 -1.535725,0.853278 -2.486642,-0.299447 z M 39.929265,73.893838 c -0.749368,-0.95552 -0.72806,-0.976828 0.227457,-0.227461 0.579857,0.454758 1.054285,0.929186 1.054285,1.054285 0,0.495839 -0.494722,0.176704 -1.281742,-0.826824 z M 85.88731,67.718741 c 0,-0.828366 0.136743,-1.167243 0.303869,-0.75306 0.167125,0.414183 0.167125,1.091938 0,1.506121 -0.167126,0.414183 -0.303869,0.07531 -0.303869,-0.753061 z m 2.766509,-3.411231 c 0.414183,-0.167125 1.091938,-0.167125 1.506121,0 0.414183,0.167125 0.07531,0.303869 -0.75306,0.303869 -0.828367,0 -1.167244,-0.136744 -0.753061,-0.303869 z m 0,-3.012243 c 0.414183,-0.167126 1.091938,-0.167126 1.506121,0 0.414183,0.167127 0.07531,0.303867 -0.75306,0.303867 -0.828367,0 -1.167244,-0.13674 -0.753061,-0.303867 z m -2.766509,-3.2157 c 0,-0.828367 0.136743,-1.167244 0.303869,-0.753061 0.167125,0.414184 0.167125,1.091938 0,1.506121 -0.167126,0.414184 -0.303869,0.07531 -0.303869,-0.75306 z M 39.498785,53.862428 c 0,-0.828367 0.13674,-1.167244 0.303867,-0.75306 0.167126,0.414183 0.167126,1.091937 0,1.506121 -0.167127,0.414183 -0.303867,0.07531 -0.303867,-0.753061 z m 1.807346,-0.602448 c 0,-0.828367 0.136739,-1.167244 0.303866,-0.753061 0.167127,0.414183 0.167127,1.091938 0,1.506121 -0.167127,0.414183 -0.303866,0.07531 -0.303866,-0.75306 z M 85.88731,47.837944 c 0,-0.828367 0.136743,-1.167244 0.303869,-0.753061 0.167125,0.414184 0.167125,1.091938 0,1.506121 -0.167126,0.414184 -0.303869,0.07531 -0.303869,-0.75306 z m 2.766509,-3.411232 c 0.414183,-0.167127 1.091938,-0.167127 1.506121,0 0.414183,0.167127 0.07531,0.303866 -0.75306,0.303866 -0.828367,0 -1.167244,-0.136739 -0.753061,-0.303866 z M 85.993003,28.167528 c 0,-0.59311 0.203007,-0.625219 0.803269,-0.12705 0.441793,0.366658 0.803262,0.723822 0.803262,0.7937 0,0.06988 -0.361469,0.127049 -0.803262,0.127049 -0.4418,0 -0.803269,-0.357165 -0.803269,-0.793699 z"
         id="path4394" />
      <path
         style="fill:#606060;fill-opacity:1;stroke-width:0.602448"
         d="m 14.626432,88.955048 c -0.749368,-0.95552 -0.72806,-0.976828 0.227457,-0.227461 0.579857,0.454759 1.054285,0.929187 1.054285,1.054285 0,0.495839 -0.494722,0.176704 -1.281742,-0.826824 z M 51.116614,72.538329 c 0,-9.774726 0.08285,-13.773477 0.184113,-8.886114 0.101262,4.887362 0.101262,12.884865 0,17.772228 -0.101262,4.887362 -0.184113,0.888611 -0.184113,-8.886114 z m 4.440196,9.830084 c 0.434892,-0.174029 0.954504,-0.15263 1.154693,0.04753 0.200188,0.200188 -0.155633,0.342577 -0.790714,0.316418 -0.701818,-0.02892 -0.844572,-0.171661 -0.363979,-0.363975 z m 5.986831,0.01253 c 0.414183,-0.167125 1.091937,-0.167125 1.506121,0 0.414183,0.167125 0.07531,0.303869 -0.753061,0.303869 -0.828366,0 -1.167244,-0.136744 -0.75306,-0.303869 z m 6.664585,-0.01253 c 0.43489,-0.174029 0.954501,-0.15263 1.154695,0.04753 0.200188,0.200188 -0.155636,0.342577 -0.790713,0.316418 -0.701823,-0.02892 -0.844573,-0.171661 -0.363982,-0.363975 z M 64.15161,80.62118 c 0.02892,-0.701822 0.171661,-0.844572 0.363975,-0.363981 0.174029,0.434889 0.15263,0.954501 -0.04753,1.154695 -0.200194,0.200187 -0.342576,-0.155637 -0.316418,-0.790714 z m -2.570316,-2.469906 c 0.434889,-0.174029 0.954501,-0.15263 1.154695,0.04753 0.200187,0.200194 -0.155637,0.342577 -0.790714,0.316418 -0.70182,-0.02892 -0.844574,-0.171661 -0.363981,-0.363975 z M 57.214623,74.52227 c -0.32694,-0.85861 -0.25774,-0.927807 0.337248,-0.337251 0.411724,0.408665 0.596828,0.89478 0.411342,1.080268 -0.185486,0.185488 -0.522352,-0.148871 -0.74859,-0.743017 z m 12.651415,0 c -0.326937,-0.85861 -0.25774,-0.927807 0.33725,-0.337251 0.411726,0.408665 0.596828,0.89478 0.41134,1.080268 -0.185488,0.185488 -0.522353,-0.148871 -0.74859,-0.743017 z m -8.284744,0.01434 c 0.434889,-0.174029 0.954501,-0.15263 1.154695,0.04753 0.200187,0.200194 -0.155637,0.342576 -0.790714,0.316418 -0.70182,-0.02892 -0.844574,-0.171662 -0.363981,-0.363975 z m 2.570316,-2.349681 c 0.02892,-0.701823 0.171661,-0.844573 0.363975,-0.363982 0.174029,0.43489 0.15263,0.954501 -0.04753,1.154695 -0.200194,0.200188 -0.342576,-0.155636 -0.316418,-0.790713 z m 24.502209,-1.252485 c 0.414183,-0.167125 1.091938,-0.167125 1.506121,0 0.414183,0.167126 0.07531,0.303869 -0.75306,0.303869 -0.828367,0 -1.167244,-0.136743 -0.753061,-0.303869 z m -27.110178,-0.60245 c 0.414183,-0.167125 1.091937,-0.167125 1.506121,0 0.414183,0.167125 0.07531,0.303869 -0.753061,0.303869 -0.828366,0 -1.167244,-0.136744 -0.75306,-0.303869 z M 55.55681,69.114548 c 0.434892,-0.174029 0.954504,-0.15263 1.154693,0.04753 0.200188,0.200194 -0.155633,0.342577 -0.790714,0.316418 -0.701818,-0.02892 -0.844572,-0.171661 -0.363979,-0.363975 z m 12.011315,0.01253 c 0.414183,-0.167125 1.091938,-0.167125 1.506121,0 0.414183,0.167125 0.07531,0.303869 -0.753061,0.303869 -0.828366,0 -1.167243,-0.136744 -0.75306,-0.303869 z M 92.514242,67.71874 c 0,-0.828366 0.136744,-1.167243 0.303869,-0.75306 0.167125,0.414183 0.167125,1.091938 0,1.506121 -0.167125,0.414183 -0.303869,0.07531 -0.303869,-0.753061 z m -26.50773,-0.602448 c 0,-0.828367 0.136744,-1.167244 0.303869,-0.753061 0.167125,0.414184 0.167125,1.091938 0,1.506122 -0.167125,0.414183 -0.303869,0.07531 -0.303869,-0.753061 z M 64.15161,66.764867 c 0.02892,-0.701822 0.171661,-0.844573 0.363975,-0.363981 0.174029,0.434889 0.15263,0.954501 -0.04753,1.154694 -0.200194,0.200188 -0.342576,-0.155636 -0.316418,-0.790713 z m 11.398956,0.726414 c 0,-0.125098 0.474428,-0.599527 1.054285,-1.054285 0.955519,-0.749367 0.976828,-0.728059 0.22746,0.227461 -0.78702,1.003528 -1.281745,1.322663 -1.281745,0.826824 z m 4.459619,-9.411714 c 0,-5.135873 0.0924,-7.236912 0.205326,-4.668975 0.112929,2.567936 0.112929,6.770014 0,9.33795 -0.112929,2.567936 -0.205326,0.466898 -0.205326,-4.668975 z m 18.074837,-0.301224 c 6.03e-4,-5.301546 0.09293,-7.389713 0.204809,-4.64037 0.111886,2.749342 0.11126,7.086971 -0.0012,9.639173 -0.112646,2.552207 -0.204188,0.302743 -0.203423,-4.998803 z m -38.198114,8.16861 c 0,-0.311791 0.267996,-0.732529 0.595548,-0.934964 0.341503,-0.211062 0.442502,0.03078 0.236768,0.566892 -0.400502,1.043693 -0.832316,1.234652 -0.832316,0.368072 z m -5.531707,-0.769315 c 0.321274,-0.321274 1.08736,-0.47747 1.702412,-0.347101 0.828257,0.175566 0.676764,0.327058 -0.584136,0.58414 -1.09936,0.224141 -1.495491,0.140178 -1.118276,-0.237039 z m 13.212924,-0.26768 c 0.414183,-0.167125 1.091938,-0.167125 1.506121,0 0.414183,0.167125 0.07531,0.303869 -0.753061,0.303869 -0.828366,0 -1.167243,-0.136744 -0.75306,-0.303869 z m -6.175096,-0.805907 c -0.204784,-0.331347 0.05032,-0.602448 0.566892,-0.602448 0.516575,0 0.939229,0.271101 0.939229,0.602448 0,0.331347 -0.255101,0.602448 -0.566892,0.602448 -0.311791,0 -0.734446,-0.271101 -0.939229,-0.602448 z m 2.758581,-2.761222 c 0.02892,-0.701818 0.171661,-0.844572 0.363975,-0.363979 0.174029,0.434892 0.15263,0.954501 -0.04753,1.154695 -0.200194,0.200187 -0.342576,-0.155637 -0.316418,-0.790716 z m -2.607969,-1.854907 c 0.414183,-0.167126 1.091937,-0.167126 1.506121,0 0.414183,0.167127 0.07531,0.303867 -0.753061,0.303867 -0.828366,0 -1.167244,-0.13674 -0.75306,-0.303867 z m 30.970601,-1.408355 c 0,-0.828367 0.136744,-1.167244 0.303869,-0.753061 0.167125,0.414184 0.167125,1.091938 0,1.506121 -0.167125,0.414184 -0.303869,0.07531 -0.303869,-0.75306 z m -38.296808,0.08703 c -0.175201,-0.283482 0.351003,-0.387428 1.169342,-0.230993 0.818339,0.156436 1.48789,0.388375 1.48789,0.515421 0,0.466144 -2.34873,0.214738 -2.657232,-0.284428 z m 24.532055,-4.605391 c 0.0036,-1.98808 0.115851,-2.728755 0.249932,-1.645944 0.134081,1.082811 0.131315,2.709421 -0.0061,3.61469 -0.137467,0.90527 -0.247167,0.01933 -0.243787,-1.968746 z m 9.90433,1.107131 c 0.414183,-0.167127 1.091938,-0.167127 1.506121,0 0.414183,0.167127 0.07531,0.303866 -0.75306,0.303866 -0.828367,0 -1.167244,-0.136739 -0.753061,-0.303866 z M 55.55681,54.053336 c 0.434892,-0.17403 0.954504,-0.152627 1.154693,0.04756 0.200188,0.200189 -0.155633,0.342577 -0.790714,0.316418 -0.701818,-0.02891 -0.844572,-0.171662 -0.363979,-0.36398 z m 33.097009,-2.999692 c 0.414183,-0.167126 1.091938,-0.167126 1.506121,0 0.414183,0.167127 0.07531,0.303867 -0.75306,0.303867 -0.828367,0 -1.167244,-0.13674 -0.753061,-0.303867 z m 3.860423,-3.2157 c 0,-0.828367 0.136744,-1.167244 0.303869,-0.753061 0.167125,0.414184 0.167125,1.091938 0,1.506121 -0.167125,0.414184 -0.303869,0.07531 -0.303869,-0.75306 z"
         id="path4392" />
      <path
         style="fill:#494949;fill-opacity:1;stroke-width:0.602448"
         d="m 61.242417,87.200549 c -1.00029,-0.403628 -0.956537,-1.694398 0.08678,-2.560279 1.218027,-1.010878 3.130301,0.901395 2.119423,2.119426 -0.733023,0.883237 -0.985052,0.933602 -2.206208,0.440853 z M 46.680604,84.235871 c 0.02891,-0.701823 0.171662,-0.844573 0.36398,-0.363982 0.174029,0.43489 0.152626,0.954502 -0.04756,1.154695 -0.200188,0.200188 -0.342577,-0.155636 -0.316418,-0.790713 z m 1.433788,-2.098449 c -0.218408,-0.35339 -0.267899,-0.771736 -0.10998,-0.929656 0.157918,-0.15792 0.447659,0.131219 0.643867,0.642529 0.407366,1.061581 0.06015,1.24831 -0.533887,0.287127 z M 35.109678,76.303631 c -0.749368,-0.955519 -0.72806,-0.976828 0.227457,-0.22746 0.579857,0.454758 1.054285,0.929186 1.054285,1.054285 0,0.495839 -0.494722,0.176704 -1.281742,-0.826825 z m 3.012242,-2.409793 c -0.749368,-0.95552 -0.72806,-0.976828 0.227457,-0.227461 0.579857,0.454758 1.054285,0.929186 1.054285,1.054285 0,0.495839 -0.494722,0.176704 -1.281742,-0.826824 z m 6.024484,-1.204897 c -0.749368,-0.95552 -0.72806,-0.976828 0.227457,-0.227461 0.579857,0.454759 1.054285,0.929187 1.054285,1.054285 0,0.495839 -0.494722,0.176704 -1.281742,-0.826824 z m 1.807345,-1.204897 c -0.749368,-0.955519 -0.72806,-0.976828 0.227457,-0.22746 0.579857,0.454758 1.054285,0.929186 1.054285,1.054284 0,0.495839 -0.494722,0.176704 -1.281742,-0.826824 z m -6.244598,-0.746163 c -0.211061,-0.341503 0.03076,-0.442498 0.566893,-0.236768 1.043692,0.400502 1.23465,0.832319 0.368069,0.832319 -0.311791,0 -0.732525,-0.267999 -0.934962,-0.595551 z m 5.673398,-2.266079 -1.460524,-1.656733 1.656733,1.460522 c 1.548466,1.365081 1.933009,1.852944 1.460524,1.852944 -0.107915,0 -0.853445,-0.74553 -1.656733,-1.656733 z m -6.581336,0.451836 c -0.542982,-0.350902 -0.617288,-0.587682 -0.186166,-0.593225 0.394628,-0.0048 0.885055,0.261879 1.089839,0.593225 0.462262,0.747958 0.253705,0.747958 -0.903673,0 z m 4.140294,-0.451836 c -0.749368,-0.955519 -0.72806,-0.976828 0.227457,-0.22746 0.579857,0.454758 1.054285,0.929186 1.054285,1.054284 0,0.495839 -0.494722,0.176704 -1.281742,-0.826824 z m 31.747576,-0.684797 c -0.181584,-0.293802 0.08586,-0.879442 0.594309,-1.301421 0.508449,-0.421973 0.788407,-1.121765 0.622125,-1.555088 -0.166282,-0.433323 -0.09934,-0.913312 0.14875,-1.066641 0.84379,-0.521492 0.624504,1.963656 -0.23631,2.67807 -0.471115,0.390989 -0.70801,0.951278 -0.526426,1.24508 0.181578,0.293802 0.194591,0.534185 0.02892,0.534185 -0.165673,0 -0.449788,-0.240383 -0.631366,-0.534185 z M 45.953749,66.062008 c -0.764818,-0.975219 -0.736464,-0.988003 0.378069,-0.170475 0.662694,0.486098 1.317856,0.960526 1.455918,1.054285 0.13806,0.09376 -0.03207,0.170475 -0.37807,0.170475 -0.346,0 -1.001162,-0.474428 -1.455917,-1.054285 z m -2.332948,-6.777544 c -0.542982,-0.350902 -0.617289,-0.58768 -0.186167,-0.593223 0.394628,-0.0051 0.885056,0.261876 1.089839,0.593223 0.462262,0.747954 0.253705,0.747954 -0.903672,0 z m -9.639175,-1.204897 c 0,-0.331347 0.287102,-0.602449 0.638003,-0.602449 0.350902,0 0.470453,0.271102 0.26567,0.602449 -0.204784,0.331347 -0.491885,0.602448 -0.638003,0.602448 -0.146119,0 -0.26567,-0.271101 -0.26567,-0.602448 z m -4.169577,-2.761222 c 0.02891,-0.701818 0.171662,-0.844572 0.363979,-0.363979 0.17403,0.434892 0.152627,0.954504 -0.04756,1.154693 -0.200189,0.200188 -0.342577,-0.155633 -0.316418,-0.790714 z m 1.807345,-3.012242 c 0.02891,-0.701818 0.171662,-0.844572 0.363979,-0.363979 0.17403,0.434892 0.152627,0.954504 -0.04756,1.154693 -0.200189,0.200188 -0.342577,-0.155633 -0.316418,-0.790714 z m -1.759783,-0.853469 c 0,-0.828366 0.136739,-1.167243 0.303866,-0.75306 0.167127,0.414183 0.167127,1.091938 0,1.506121 -0.167127,0.414183 -0.303866,0.07531 -0.303866,-0.753061 z m 7.736706,-0.602448 c 0,-0.331347 0.271101,-0.602448 0.602448,-0.602448 0.331347,0 0.602448,0.271101 0.602448,0.602448 0,0.331347 -0.271101,0.602448 -0.602448,0.602448 -0.331347,0 -0.602448,-0.271101 -0.602448,-0.602448 z m 15.92185,-1.181439 c 0,-1.122193 0.0615,-1.130068 1.226413,-0.157031 0.674527,0.563423 1.339372,1.09507 1.477433,1.181438 0.138061,0.08637 -0.413824,0.157032 -1.226413,0.157032 -1.066022,0 -1.477433,-0.328987 -1.477433,-1.181439 z m -27.36837,-1.263909 c 0,-0.350902 0.271102,-0.470453 0.602448,-0.26567 0.331347,0.204784 0.602449,0.491885 0.602449,0.638003 0,0.146119 -0.271102,0.26567 -0.602449,0.26567 -0.331346,0 -0.602448,-0.287102 -0.602448,-0.638003 z m 23.88852,-2.473923 c -0.674129,-2.517712 -0.417395,-3.885492 0.962477,-5.127713 2.058477,-1.853131 3.38135,-2.458436 2.048324,-0.93725 -1.128766,1.288096 -1.506615,4.847891 -0.659977,6.217781 0.304762,0.493114 0.203154,0.580108 -0.308335,0.26399 -0.431024,-0.266387 -0.959299,-0.153689 -1.214398,0.259069 -0.302353,0.489218 -0.575914,0.265942 -0.828091,-0.675877 z m -3.405274,-3.140016 c 0,-0.125102 0.474428,-0.59953 1.054284,-1.054284 0.955517,-0.749369 0.976826,-0.72806 0.227458,0.227457 -0.78702,1.003527 -1.281742,1.322663 -1.281742,0.826827 z m 28.578399,-3.537845 -1.769445,-1.957957 1.957957,1.769446 c 1.076877,0.973195 1.957957,1.854276 1.957957,1.957957 0,0.465428 -0.497098,0.05564 -2.146469,-1.769446 z m 1.544021,-3.464078 c -0.354661,-0.662693 -0.509292,-1.204897 -0.343618,-1.204897 0.165673,0 0.591405,0.542204 0.946066,1.204897 0.354662,0.662693 0.509292,1.204897 0.343619,1.204897 -0.165673,0 -0.591406,-0.542204 -0.946067,-1.204897 z m 3.256228,-0.150612 -1.147659,-1.355509 1.355509,1.147657 c 1.273841,1.078514 1.629768,1.563361 1.147659,1.563361 -0.114321,0 -0.7243,-0.609979 -1.355509,-1.355509 z m 2.691408,0.301224 c -0.749368,-0.955517 -0.728059,-0.976826 0.22746,-0.227457 1.003529,0.787019 1.322664,1.281742 0.826824,1.281742 -0.125098,0 -0.599526,-0.474428 -1.054284,-1.054285 z M 35.186523,35.530145 c 0,-0.165674 0.542203,-0.591403 1.204897,-0.946066 0.662693,-0.354663 1.204897,-0.509291 1.204897,-0.343617 0,0.165673 -0.542204,0.591403 -1.204897,0.946065 -0.662694,0.354663 -1.204897,0.509291 -1.204897,0.343618 z m 6.325708,-1.548514 c 0.599729,-0.662694 1.225968,-1.204897 1.391641,-1.204897 0.165673,0 -0.189463,0.542203 -0.789192,1.204897 -0.599729,0.662693 -1.225968,1.204896 -1.391641,1.204896 -0.165673,0 0.189463,-0.542203 0.789192,-1.204896 z m 14.157538,0.566893 c 0,-0.350901 0.271102,-0.470453 0.602448,-0.265669 0.331347,0.204783 0.602449,0.491884 0.602449,0.638003 0,0.146118 -0.271102,0.265669 -0.602449,0.265669 -0.331346,0 -0.602448,-0.287101 -0.602448,-0.638003 z m 28.917523,-1.470566 c -1.122789,-0.828367 -1.785434,-1.496372 -1.472552,-1.484455 0.604743,0.02303 4.417302,2.982502 3.848778,2.987584 -0.184139,0.0016 -1.253437,-0.674762 -2.376226,-1.503129 z M 38.801213,31.270613 c 1.124038,-1.159713 2.179257,-2.10857 2.344931,-2.10857 0.165673,0 -0.618444,0.948857 -1.742482,2.10857 -1.124038,1.159713 -2.179257,2.108569 -2.344931,2.108569 -0.165673,0 0.618444,-0.948856 1.742482,-2.108569 z m 39.822075,0.725662 c -0.762049,-1.268942 -0.749211,-1.281781 0.288169,-0.28817 0.597165,0.571967 0.956074,1.169617 0.797582,1.328111 -0.158492,0.158493 -0.647078,-0.309481 -1.085751,-1.039941 z m -9.926452,-0.146504 c -0.581351,-1.514973 -0.409852,-1.905879 0.300339,-0.684585 0.351643,0.604708 0.512442,1.22638 0.35733,1.381491 -0.155113,0.155112 -0.451065,-0.158496 -0.657669,-0.696906 z M 34.584075,30.065716 c 0.778209,-0.828367 1.550478,-1.506121 1.716151,-1.506121 0.165673,0 -0.335493,0.677754 -1.113703,1.506121 -0.77821,0.828367 -1.550478,1.506121 -1.716151,1.506121 -0.165674,0 0.335493,-0.677754 1.113703,-1.506121 z m 52.938611,0.451836 c -0.764814,-0.975216 -0.736463,-0.988001 0.378073,-0.170473 0.662693,0.486096 1.317855,0.960524 1.455919,1.054284 0.138057,0.09376 -0.03208,0.170474 -0.378073,0.170474 -0.345998,0 -1.001161,-0.474428 -1.455919,-1.054285 z M 51.500191,28.810615 c 0.02891,-0.701818 0.171663,-0.844572 0.36398,-0.363979 0.17403,0.434892 0.152627,0.954504 -0.04756,1.154693 -0.200189,0.200188 -0.342577,-0.155633 -0.316418,-0.790714 z M 37.897541,26.75225 c 0.599729,-0.662694 1.225967,-1.204897 1.391641,-1.204897 0.165673,0 -0.189464,0.542203 -0.789193,1.204897 -0.599729,0.662693 -1.225967,1.204897 -1.391641,1.204897 -0.165673,0 0.189464,-0.542204 0.789193,-1.204897 z M 55.06732,26.7167 c 0,-0.350901 0.271102,-0.470453 0.602449,-0.265669 0.331346,0.204783 0.602448,0.491884 0.602448,0.638003 0,0.146118 -0.271102,0.265669 -0.602448,0.265669 -0.331347,0 -0.602449,-0.287101 -0.602449,-0.638003 z m 19.880798,-0.23012 c 0,-0.477465 0.245817,-1.020043 0.546264,-1.205728 0.300447,-0.185685 0.404375,0.204967 0.230961,0.868118 -0.367862,1.406709 -0.777225,1.584528 -0.777225,0.33761 z M 58.569052,25.73826 c 0.434892,-0.17403 0.954504,-0.152626 1.154693,0.04756 0.200188,0.200188 -0.155633,0.342577 -0.790714,0.316418 -0.701818,-0.02891 -0.844572,-0.171663 -0.363979,-0.36398 z m 4.819587,0 c 0.434889,-0.17403 0.954501,-0.152626 1.154695,0.04756 0.200187,0.200188 -0.155637,0.342577 -0.790714,0.316418 -0.701822,-0.02891 -0.844572,-0.171663 -0.363981,-0.36398 z M 42.463465,23.926174 c -0.06872,-1.036742 0.997418,-1.534758 1.510015,-0.705358 0.259831,0.420415 0.175749,0.544554 -0.208141,0.307297 -0.354242,-0.218934 -0.781379,-0.05749 -0.949194,0.358753 -0.218387,0.541687 -0.318637,0.55286 -0.35268,0.03931 z m 3.490284,-1.842899 c -0.764818,-0.975217 -0.736464,-0.988002 0.378069,-0.170474 0.662694,0.486096 1.317856,0.960524 1.455918,1.054285 0.13806,0.09376 -0.03207,0.170473 -0.37807,0.170473 -0.346,0 -1.001162,-0.474428 -1.455917,-1.054284 z m 13.933159,-3.689997 c 0,-0.289928 0.706698,-0.527142 1.57044,-0.527142 1.108304,0 1.329909,0.152407 0.753059,0.517917 -1.063926,0.674138 -2.323499,0.679139 -2.323499,0.0092 z"
         id="path4390" />
      <path
         style="fill:#333333;fill-opacity:1;stroke-width:0.602448"
         d="M 15.107,98.068164 C 8.4716616,96.029569 4.1230522,88.538039 5.6401014,81.759151 7.5077911,73.413433 16.571385,68.147426 24.111634,71.027075 c 5.534461,2.11363 9.085574,6.736469 9.692581,12.617794 0.632819,6.13143 -3.984931,12.623559 -10.324169,14.514819 -3.594994,1.072539 -4.620677,1.061328 -8.373046,-0.09152 z m 9.575442,-5.672997 c 2.108365,-1.303042 4.479597,-5.436061 4.479597,-7.80787 0,-4.173582 -4.168701,-8.713561 -8.671991,-9.444349 -4.486631,-0.728077 -9.59233,3.429028 -10.411529,8.477166 -0.6555275,4.039537 3.622177,9.994047 7.185164,10.001656 1.723501,0.0036 1.228919,-2.201142 -0.821221,-3.660971 -1.031529,-0.734517 -2.226835,-2.176327 -2.656237,-3.204031 -2.604553,-6.23357 5.368018,-11.410512 10.17285,-6.605684 3.5818,3.581802 1.741862,9.49987 -4.14946,13.346539 -2.098437,1.370149 2.587443,0.30999 4.872827,-1.102456 z m 26.272755,0.436968 c -0.83231,-0.885955 -1.309912,-2.166869 -1.309912,-3.513142 0,-2.011521 -0.221142,-2.238325 -4.367751,-4.479535 C 39.785744,81.871194 33.16978,75.36989 30.499639,70.317674 27.937316,65.46947 26.149797,58.365108 26.149797,53.029562 c 0,-3.900086 0.07326,-4.150227 0.878696,-3.000305 0.596351,0.85141 0.956044,3.38507 1.119414,7.885094 0.236977,6.527511 0.608752,8.318692 1.599523,7.706364 0.276174,-0.170686 0.772344,0.464789 1.102601,1.412163 0.330256,0.947374 1.361587,2.912537 2.291845,4.367034 0.930259,1.454497 1.627519,3.064384 1.549467,3.577537 -0.160136,1.052815 2.689294,4.00186 3.288102,3.403051 0.213335,-0.213333 1.366586,0.373891 2.562782,1.304951 1.196195,0.931054 3.055982,2.202208 4.132858,2.824778 1.076877,0.622577 1.957958,1.451154 1.957958,1.841282 0,0.727203 1.31727,1.440683 2.659882,1.440683 1.051973,0 0.978641,-1.897177 -0.122255,-3.162855 -0.779421,-0.896081 -0.786651,-1.054284 -0.04818,-1.054284 0.477863,0 0.909962,-0.545891 0.960221,-1.213096 0.06293,-0.835422 -0.975629,-1.988176 -3.335875,-3.702672 -5.118895,-3.71839 -6.277226,-4.867645 -5.432365,-5.389799 0.42163,-0.260577 1.71447,0.408014 3.12713,1.617194 1.32458,1.13379 2.599012,2.06144 2.832071,2.06144 0.233059,0 0.565534,0.542204 0.738831,1.204897 0.394895,1.510079 1.950104,1.586217 2.061986,0.100946 0.04822,-0.640119 -1.657674,-2.804993 -4.060175,-5.15259 -4.527483,-4.424014 -6.845874,-8.449544 -7.80712,-13.555873 -0.649608,-3.450851 -0.76191,-7.04075 -0.171754,-5.490419 0.189198,0.49702 0.529027,1.039223 0.755175,1.204897 0.611913,0.448278 1.861026,7.274735 1.452186,7.936253 -0.464771,0.752017 0.942063,4.112715 1.721639,4.112715 0.830177,0 5.750262,5.344458 5.318012,5.776709 -0.360581,0.360583 1.652866,2.05512 2.441888,2.05512 0.925216,0 0.174614,-2.971251 -1.129352,-4.470523 -0.743338,-0.854681 -1.098215,-1.553961 -0.788615,-1.553961 0.3096,0 0.730459,0.271102 0.935243,0.602448 0.964707,1.560926 1.193136,0.05808 0.996125,-6.553697 -0.218194,-7.32263 0.283096,-9.71241 2.037314,-9.71241 0.485362,0 0.882476,-0.20528 0.882476,-0.456177 0,-0.250898 1.226441,-0.358635 2.725426,-0.239416 1.586069,0.126146 3.099015,-0.09329 3.619079,-0.524903 0.969458,-0.804579 9.473314,-0.354067 12.089091,0.640448 2.574183,0.978704 4.479228,5.628385 3.106639,7.582458 -0.550511,0.783735 0.02211,2.636765 0.814812,2.636765 0.741126,0 0.678308,2.028498 -0.0865,2.793306 -0.817637,0.817637 -1.356979,3.833626 -0.685556,3.833626 0.773339,0 2.347886,-1.97441 2.402197,-3.012242 0.02603,-0.49702 0.634486,-2.530283 1.352177,-4.518363 1.102204,-3.053212 1.239737,-4.316538 0.885425,-8.133053 -0.74656,-8.041566 -0.733313,-9.029361 0.111645,-8.328104 1.088293,0.903203 1.656173,-0.870872 0.794274,-2.481342 -0.372186,-0.695433 -0.52419,-1.51119 -0.337786,-1.812793 0.186397,-0.301604 0.06484,-0.717752 -0.270126,-0.924775 -0.334968,-0.207022 -0.910896,-0.971285 -1.279842,-1.698361 -0.368939,-0.727076 0.566308,0.03355 2.078333,1.690286 2.48707,2.725092 2.751713,2.874088 2.776136,1.562986 0.01482,-0.79709 -0.650758,-2.337837 -1.479125,-3.423881 -0.828366,-1.086045 -1.499506,-2.467144 -1.491427,-3.069108 0.01024,-0.764241 0.844626,-0.140147 2.765262,2.068373 3.264186,3.753468 6.065927,4.533931 3.590864,1.000285 -0.508473,-0.725941 -0.656543,-1.552643 -0.363132,-2.027389 0.364909,-0.590438 0.868833,-0.22544 1.912846,1.385488 1.372667,2.118052 2.522337,2.736122 3.162565,1.700212 0.170571,-0.275995 -0.333172,-1.448518 -1.119434,-2.605607 -0.902877,-1.328706 -1.246206,-2.400486 -0.931873,-2.909087 0.357457,-0.578378 1.124091,0.173923 2.720717,2.669852 1.222663,1.911328 3.105929,4.462863 4.185041,5.670078 3.307454,3.700097 3.340799,3.878092 3.340799,17.83245 v 13.005709 l -2.409794,2.614313 c -1.810399,1.964054 -2.413083,3.122032 -2.423023,4.655517 -0.03012,4.649028 -4.260027,10.066497 -8.856419,11.342922 -1.251605,0.347577 -4.190149,0.633469 -6.530101,0.635312 -4.026892,0.003 -4.325929,0.100031 -5.590685,1.810707 l -1.336225,1.807345 h -9.817348 c -9.483013,0 -9.86196,-0.04747 -11.127262,-1.394336 z M 71.634652,72.538329 V 52.958755 l -9.322974,-0.167034 c -9.085617,-0.162781 -9.349851,-0.132107 -10.378837,1.204897 -0.948184,1.232014 -1.057234,3.109809 -1.069263,18.412293 -0.0116,14.756618 0.118308,17.241368 0.969324,18.540187 l 0.982721,1.499819 9.409513,-0.165504 9.409516,-0.165511 z M 54.080285,86.695866 c -0.527328,-1.374197 0.21076,-2.711018 1.496809,-2.711018 1.493795,0 2.625382,1.388493 2.147183,2.634658 -0.472467,1.23123 -3.179063,1.287944 -3.643992,0.07636 z m 12.649702,-0.0042 c -0.212586,-0.553999 0.03416,-1.407735 0.558427,-1.931986 1.279685,-1.279684 2.976963,-0.546107 2.73176,1.180691 -0.237599,1.673204 -2.718988,2.239813 -3.290187,0.751295 z M 54.080285,81.273831 c -0.576746,-1.502977 0.257337,-2.711018 1.8718,-2.711018 1.292844,0 1.525029,0.275168 1.525029,1.807345 0,1.532177 -0.232185,1.807345 -1.525029,1.807345 -0.838765,0 -1.681076,-0.406652 -1.8718,-0.903672 z m 6.409071,-0.943688 c 0,-1.659884 0.168132,-1.828015 1.656733,-1.656733 1.301271,0.149727 1.697633,0.54609 1.84736,1.84736 0.171282,1.488602 0.003,1.656733 -1.656733,1.656733 -1.659882,0 -1.84736,-0.187476 -1.84736,-1.84736 z m 6.242348,0.943688 c -0.576748,-1.502977 0.257335,-2.711018 1.871801,-2.711018 1.292842,0 1.525026,0.275168 1.525026,1.807345 0,1.532177 -0.232184,1.807345 -1.525026,1.807345 -0.838771,0 -1.681078,-0.406652 -1.871801,-0.903672 z M 54.080285,76.454243 c -0.585195,-1.524995 0.273012,-2.810602 1.737402,-2.602661 0.973391,0.138226 1.412212,0.662259 1.548831,1.849601 0.164666,1.431104 -0.02251,1.656733 -1.374416,1.656733 -0.860775,0 -1.721093,-0.406653 -1.911817,-0.903673 z m 12.651419,0 c -0.585201,-1.524995 0.273011,-2.810602 1.7374,-2.602661 0.973388,0.138226 1.412212,0.662259 1.548829,1.849601 0.164667,1.431104 -0.02253,1.656733 -1.374414,1.656733 -0.860778,0 -1.721092,-0.406653 -1.911815,-0.903673 z m -6.242348,-3.8759 c 0,-1.659884 0.187478,-1.84736 1.84736,-1.84736 1.659884,0 1.828015,0.168132 1.656733,1.656734 -0.149727,1.30127 -0.546089,1.697633 -1.84736,1.847359 -1.488601,0.171283 -1.656733,0.003 -1.656733,-1.656733 z m -6.409071,-4.558377 c -0.576746,-1.502977 0.257337,-2.711018 1.8718,-2.711018 1.292844,0 1.525029,0.275168 1.525029,1.807345 0,1.532177 -0.232185,1.807345 -1.525029,1.807345 -0.838765,0 -1.681076,-0.406652 -1.8718,-0.903672 z M 66.51384,67.116293 c 0,-1.606531 0.200814,-1.807345 1.807345,-1.807345 1.606531,0 1.807346,0.200814 1.807346,1.807345 0,1.606531 -0.200815,1.807345 -1.807346,1.807345 -1.606531,0 -1.807345,-0.200814 -1.807345,-1.807345 z m -5.913888,-0.451836 c 0.151274,-1.314717 0.501553,-1.656733 1.696749,-1.656733 1.195198,0 1.545473,0.342016 1.696748,1.656733 0.172059,1.495361 0.0068,1.656733 -1.696748,1.656733 -1.703538,0 -1.868809,-0.161372 -1.696749,-1.656733 z m -0.110596,-4.930185 c 0,-1.659882 0.187478,-1.84736 1.84736,-1.84736 1.659884,0 1.828015,0.168132 1.656733,1.656733 -0.149727,1.301271 -0.546089,1.697634 -1.84736,1.84736 -1.488601,0.171282 -1.656733,0.003 -1.656733,-1.656733 z m -6.409071,-4.558378 c -0.576746,-1.502976 0.257337,-2.711018 1.8718,-2.711018 1.292844,0 1.525029,0.275168 1.525029,1.807346 0,1.532178 -0.232185,1.807345 -1.525029,1.807345 -0.838765,0 -1.681076,-0.406653 -1.8718,-0.903673 z m 6.409071,-0.903672 c 0,-1.703538 0.161374,-1.86881 1.656733,-1.696749 1.314717,0.151274 1.656733,0.501552 1.656733,1.696749 0,1.195196 -0.342016,1.545474 -1.656733,1.696749 -1.495359,0.17206 -1.656733,0.0068 -1.656733,-1.696749 z m 6.242348,0.903672 c -0.576748,-1.502976 0.257335,-2.711018 1.871801,-2.711018 1.292842,0 1.525026,0.275168 1.525026,1.807346 0,1.532178 -0.232184,1.807345 -1.525026,1.807345 -0.838771,0 -1.681078,-0.406653 -1.871801,-0.903673 z m 23.341899,27.246983 c 0.578815,-1.118464 0.380633,-1.047297 -1.191088,0.427744 -2.184165,2.049807 -2.360092,2.442892 -0.69434,1.551413 0.655102,-0.350601 1.503542,-1.241218 1.885428,-1.979157 z m -4.818394,-1.798688 c 0.549842,-1.053466 0.338497,-0.961243 -0.961249,0.419442 -1.473378,1.565119 -1.747257,1.658739 -2.368231,0.809504 -0.493019,-0.674242 -0.995835,-0.795955 -1.687988,-0.408604 -0.901763,0.504646 -0.908697,0.397115 -0.08135,-1.261347 0.497453,-0.997166 1.137242,-1.813026 1.42176,-1.813026 0.713865,0 3.220888,-3.603762 2.799891,-4.024753 -0.397273,-0.397279 -10.634823,6.435354 -10.634823,7.097776 0,0.679062 3.480706,1.296264 4.353051,0.771887 0.595671,-0.358065 0.59108,-0.243461 -0.02048,0.511298 -0.678917,0.837897 -0.59537,1.000468 0.602448,1.17225 1.900779,0.27259 5.717404,-1.627562 6.576954,-3.274427 z m 4.111367,-3.040684 c -0.03904,-1.864451 -0.06538,-1.844058 -0.845747,0.655132 -0.442999,1.418724 -1.136447,3.045335 -1.540991,3.614691 -0.40455,0.569356 -0.02398,0.274548 0.845747,-0.655133 1.055917,-1.128723 1.567902,-2.329692 1.540991,-3.61469 z m -12.554633,0.756428 c 0.650192,-0.347974 1.041663,-0.860013 0.869935,-1.137874 -0.171722,-0.277856 0.633987,-1.226905 1.790471,-2.108997 2.007912,-1.531515 2.808301,-3.349837 1.474528,-3.349837 -0.626245,0 -7.203656,4.647998 -7.203656,5.090545 0,0.128117 0.164553,0.661771 0.36568,1.18589 0.427732,1.114662 1.075334,1.191395 2.703042,0.320273 z M 76.19262,76.131825 c 0.640908,-0.343004 1.165291,-0.910227 1.165291,-1.260485 0,-0.350263 0.542204,-1.326145 1.204897,-2.168621 2.547249,-3.238305 0.677628,-3.559067 -2.538259,-0.43548 -1.211048,1.176286 -2.162085,2.667346 -2.113414,3.313466 0.100055,1.328236 0.602599,1.44963 2.281485,0.55112 z m 17.723309,-1.778422 c 0.473115,-0.392651 1.18507,-0.513129 1.582126,-0.267734 0.456312,0.282012 0.564006,0.190657 0.292717,-0.248305 -0.236069,-0.381958 -0.0069,-1.297475 0.509364,-2.034474 0.516214,-0.737005 0.938573,-1.941438 0.938573,-2.676522 0,-0.735083 0.271102,-1.504067 0.602448,-1.708851 0.747627,-0.46206 0.82171,-18.770503 0.07781,-19.230258 -0.288549,-0.178333 -0.676309,-1.082609 -0.861688,-2.009503 -1.179564,-5.897823 -9.387352,-8.142065 -13.765531,-3.763886 -1.150911,1.150908 -1.716701,2.33387 -1.716701,3.589294 0,1.108776 -0.368602,2.014042 -0.903672,2.219367 -0.748898,0.28738 -0.903673,1.928962 -0.903673,9.584712 0,5.508775 0.243196,9.388242 0.602448,9.610274 0.331347,0.204784 0.602449,0.924481 0.602449,1.599332 0,1.630286 1.636388,4.328706 3.233033,5.331313 2.78618,1.749576 7.605363,1.752179 9.710294,0.0054 z M 87.14512,70.035589 c -0.955098,-0.955097 -0.971286,-3.66241 -0.02753,-4.606152 0.993955,-0.993955 3.794611,-0.909106 4.666439,0.141383 0.394525,0.475374 0.631046,1.763107 0.5256,2.86163 -0.173174,1.804146 -0.395887,2.014539 -2.302865,2.175465 -1.161135,0.09798 -2.448869,-0.159564 -2.86163,-0.572326 z m -0.02754,-9.666718 c -0.993956,-0.993958 -0.909107,-3.794611 0.141382,-4.666437 0.475374,-0.394526 1.763108,-0.631047 2.86163,-0.525603 1.774524,0.170334 2.018696,0.414502 2.189027,2.18903 0.105446,1.098521 -0.131075,2.386254 -0.525601,2.86163 -0.871827,1.050486 -3.672483,1.135338 -4.666438,0.14138 z M 87.14511,50.15479 c -0.955086,-0.955096 -0.971274,-3.662409 -0.02753,-4.60615 0.993955,-0.993958 3.794611,-0.909106 4.666438,0.14138 0.394526,0.475375 0.631047,1.763109 0.525601,2.86163 -0.173174,1.804152 -0.395887,2.014541 -2.302865,2.175466 -1.161135,0.09798 -2.448869,-0.159562 -2.86163,-0.572326 z M 76.059424,71.572152 c 0.758676,-0.531402 1.25375,-1.293655 1.100161,-1.693898 -0.153582,-0.400243 0.228828,-1.388746 0.849808,-2.196672 1.150032,-1.496228 1.544003,-3.577531 0.677212,-3.577531 -0.896148,0 -4.943384,5.84925 -4.943384,7.144406 0,1.542388 0.480428,1.609525 2.316215,0.323695 z m -30.910428,8.664172 c -1.313239,-0.677447 -3.960492,-2.804506 -5.882785,-4.726798 -6.468638,-6.468651 -9.997296,-16.499587 -8.886519,-25.261788 0.231024,-1.822407 0.458216,-2.567937 0.504869,-1.656734 0.04665,0.911204 0.302202,1.656734 0.567887,1.656734 0.265685,0 0.442412,2.738818 0.392727,6.086262 -0.07379,4.971466 0.09407,6.268057 0.916427,7.078772 1.427427,1.407205 4.932667,7.877229 4.578276,8.45064 -0.430298,0.696243 1.426584,3.141648 2.259758,2.975968 0.607835,-0.120863 1.926488,0.703226 7.488019,4.679639 1.933343,1.382312 0.429269,1.938823 -1.938647,0.717305 z m -5.82218,-10.559625 c -0.749368,-0.95552 -0.728059,-0.976828 0.227458,-0.227461 1.003527,0.787021 1.322663,1.281745 0.826827,1.281745 -0.125102,0 -0.59953,-0.474428 -1.054285,-1.054284 z m -2.596843,-4.41817 c -0.840631,-1.836179 -1.670013,-4.270386 -1.843072,-5.409348 -0.173058,-1.138961 -0.13579,-1.664186 0.08282,-1.167166 0.218608,0.49702 0.655212,1.07209 0.970229,1.277932 1.041285,0.680409 3.310631,7.031705 2.804861,7.850059 -0.33298,0.53877 -0.968546,-0.266077 -2.014837,-2.551477 z m 9.175847,0.215267 c -1.17042,-1.330815 -3.489916,-5.892301 -3.489916,-6.863212 0,-0.847734 1.878427,1.267658 3.875545,4.364449 1.540465,2.388689 1.238482,4.345448 -0.385629,2.498763 z M 34.066238,53.862428 C 33.955696,46.014434 36.503,39.814351 42.17667,34.121814 c 3.725039,-3.737427 10.729485,-7.801091 12.430601,-7.211676 0.418701,0.145074 -0.119807,0.46154 -1.196684,0.703257 -1.076876,0.241718 -1.961863,0.756824 -1.966637,1.14468 -0.0095,0.768423 -5.521154,4.018659 -6.814776,4.018659 -0.955851,0 -3.535165,2.622688 -3.325645,3.38157 0.238113,0.862448 -3.340194,6.84187 -4.100114,6.851373 -0.892212,0.01116 -2.138996,3.547089 -1.567549,4.445633 0.552039,0.868027 0.182637,7.209964 -0.443382,7.612015 -0.257963,0.165673 -0.604489,0.843428 -0.770056,1.506121 -0.165568,0.662693 -0.325853,-0.557265 -0.35619,-2.711018 z m 7.843631,-0.128012 c -0.121061,-5.077733 1.482331,-9.608507 4.676457,-13.214469 2.784262,-3.143252 6.071201,-5.273076 6.071201,-3.933931 0,0.932781 -5.389425,5.628596 -6.169623,5.375602 -0.766084,-0.248418 -2.893723,3.680892 -2.309481,4.265134 0.302638,0.302638 0.296357,1.336604 -0.01471,2.421229 -0.298599,1.041165 -0.54291,2.640346 -0.54291,3.553737 0,0.91339 -0.253926,1.66071 -0.564279,1.66071 -0.310352,0 -0.673619,0.881081 -0.807258,1.957957 -0.133639,1.076877 -0.286367,0.138191 -0.339395,-2.085969 z m -3.408277,-5.256293 c 0.827315,-5.444865 5.126486,-11.6243 10.475174,-15.056544 3.340331,-2.143484 3.670295,-2.223523 3.279309,-0.795457 -0.318774,1.16431 -5.51546,4.669987 -6.622686,4.467653 -0.941559,-0.172059 -3.334915,2.942258 -2.977305,3.874173 0.156702,0.408361 -0.239886,1.771836 -0.881306,3.029945 -0.641421,1.25811 -1.166219,2.623331 -1.166219,3.033826 0,0.410494 -0.366901,0.963151 -0.815334,1.228126 -0.448433,0.264974 -0.993298,0.888424 -1.210809,1.385444 -0.217512,0.49702 -0.253882,-0.0282 -0.08082,-1.167166 z M 27.151266,45.791685 c 0.681662,-6.507304 7.300055,-16.584395 13.909129,-21.177884 1.271714,-0.883877 1.355509,-0.86552 1.355509,0.296942 0,0.681482 -0.220947,1.239058 -0.490993,1.239058 -0.270046,0 -1.828881,1.352367 -3.464078,3.005259 -1.635197,1.652893 -3.389063,3.008402 -3.897478,3.012242 -1.030958,0.0078 -2.963419,2.960032 -2.596062,3.966035 0.12966,0.355071 -0.44848,2.192738 -1.284755,4.083704 -0.836274,1.890966 -1.520499,3.808038 -1.520499,4.26016 0,0.452121 -0.385625,0.970017 -0.856944,1.150879 -0.47132,0.180862 -0.979073,0.819846 -1.128341,1.419964 -0.149267,0.600118 -0.160737,0.03476 -0.02549,-1.256359 z m 4.090146,-0.808561 c 0.507543,-2.079255 2.925589,-7.324732 4.048768,-8.783008 0.793871,-1.030718 0.839317,-1.01304 0.774383,0.301224 -0.03794,0.767913 -0.485874,2.209511 -0.995406,3.20355 -0.509532,0.99404 -1.246885,2.800004 -1.638564,4.013254 -0.881457,2.730371 -2.820357,3.850731 -2.189181,1.26498 z m 45.795623,-3.201465 c -0.215598,-0.348837 -0.674019,-0.54024 -1.018722,-0.425338 -0.961646,0.320549 -7.507326,-5.355512 -6.88904,-5.973801 0.528884,-0.528881 4.094559,1.913688 6.694172,4.585656 1.309795,1.346253 2.206877,2.447732 1.993508,2.447732 -0.213363,0 -0.564325,-0.285412 -0.779918,-0.634249 z m -3.896262,-6.95567 c -2.727748,-1.76972 -4.393675,-3.278431 -4.026025,-3.646084 0.405051,-0.405048 6.047775,2.511929 6.940875,3.588047 1.270413,1.530757 -0.587851,1.567757 -2.91485,0.05804 z m -16.499456,0.01895 c -0.397613,-1.036161 5.165437,-1.676431 8.065178,-0.928246 1.159713,0.299226 1.634141,0.571799 1.054285,0.605716 -0.579857,0.03392 -1.05643,0.264993 -1.059044,0.513503 -0.0089,0.841794 -7.734348,0.658757 -8.060419,-0.190973 z M 39.307658,31.367824 c 1.714165,-1.735726 3.924151,-3.63286 4.91108,-4.215853 1.723555,-1.018129 1.776919,-1.016843 1.351301,0.03256 -0.663946,1.637028 -6.257742,6.562774 -7.923323,6.977065 -1.189416,0.295851 -0.885569,-0.215234 1.660942,-2.793774 z m 45.273031,1.099732 c -0.416117,-0.501395 -1.059291,-0.844731 -1.429272,-0.762971 -0.926692,0.204786 -7.549739,-4.482894 -7.577994,-5.363574 -0.01259,-0.391855 -0.585489,-0.891036 -1.273154,-1.109292 -0.687665,-0.218256 -1.11262,-0.534508 -0.944344,-0.702782 0.578284,-0.578287 6.37526,2.99863 9.554663,5.895535 1.750552,1.595009 3.012694,2.912323 2.804753,2.927363 -0.207935,0.01504 -0.718528,-0.382885 -1.134652,-0.884279 z m -6.643084,-0.621912 c -0.425003,-0.512099 -1.128241,-0.794668 -1.562751,-0.627932 -0.925499,0.355147 -7.45122,-2.503554 -7.45122,-3.264131 0,-1.048181 -2.481335,-1.248981 -7.292956,-0.590178 -3.994775,0.54696 -5.029799,0.524411 -5.430512,-0.118311 -0.369192,-0.592164 0.151456,-0.897595 2.047672,-1.20124 5.005509,-0.80154 12.16838,0.676626 17.100998,3.529049 2.261742,1.307914 4.429219,3.203833 3.66273,3.203833 -0.165673,0 -0.648957,-0.41899 -1.073961,-0.93109 z M 56.873568,31.421225 c 6.04e-4,-0.24851 -0.473331,-0.47886 -1.053187,-0.511888 -2.614556,-0.148926 2.313128,-1.029931 6.067517,-1.084793 3.526203,-0.05153 3.989606,0.0599 3.264523,0.784985 -0.885846,0.885843 -8.280795,1.610877 -8.278853,0.811696 z m 10.129761,-0.863377 c 0.43489,-0.17403 0.954502,-0.152627 1.154695,0.04756 0.200188,0.200189 -0.155636,0.342577 -0.790713,0.316418 -0.701823,-0.02891 -0.844573,-0.171662 -0.363982,-0.36398 z M 87.285044,29.749834 C 86.678017,29.079078 85.895401,28.625599 85.54589,28.742102 85.19638,28.858606 83.316831,27.780795 81.369115,26.346967 79.4214,24.913139 77.618151,23.740008 77.3619,23.740008 c -0.256252,0 -0.608642,-0.545826 -0.783099,-1.212945 -0.296748,-1.134761 -0.125267,-1.108487 2.660268,0.407591 2.686359,1.462101 10.379957,7.941514 9.508124,8.007574 -0.197158,0.01494 -0.855122,-0.521639 -1.462149,-1.192394 z m -38.766382,-4.13846 c -0.589873,-0.375742 0.183707,-0.917471 2.711018,-1.89849 2.833767,-1.099975 4.793268,-1.382076 9.862124,-1.419809 6.774515,-0.05043 12.542717,1.086796 10.711214,2.11176 -1.111162,0.621834 -9.506317,-0.605608 -9.506317,-1.389904 0,-0.699422 -4.080031,-0.588886 -4.317547,0.116971 -0.110449,0.328235 -1.691876,0.986626 -3.514282,1.463091 -1.822406,0.476465 -3.720119,1.018367 -4.217139,1.204226 -0.49702,0.185859 -1.275102,0.101329 -1.729071,-0.187845 z m -5.50031,-2.184724 c 0,-0.56827 6.444242,-3.361486 9.843211,-4.266477 1.710186,-0.455345 4.058286,-0.794199 5.217999,-0.753008 1.658301,0.0589 1.786949,0.134667 0.602449,0.35481 -0.828367,0.153954 -1.641672,0.497596 -1.807345,0.763648 -0.377752,0.606625 -6.89678,2.484858 -9.405218,2.70979 -1.031037,0.09245 -2.454322,0.478346 -3.162854,0.857542 -0.708533,0.379195 -1.288242,0.529358 -1.288242,0.333695 z m 26.50773,-2.702135 c -0.828366,-0.263501 -2.638941,-0.506117 -4.023494,-0.539146 -2.004888,-0.04783 -4.410784,-1.191382 -4.410784,-2.096505 0,-0.240925 8.025186,0.702208 9.816024,1.153597 0.925638,0.23331 1.586445,0.71378 1.468468,1.067711 -0.290712,0.872137 -1.059647,0.983919 -2.850214,0.414343 z m 4.217139,0.0033 c -0.49702,-0.321199 -0.632571,-0.583998 -0.301224,-0.583998 0.331346,0 1.009101,0.262799 1.506121,0.583998 0.49702,0.321199 0.632571,0.583997 0.301224,0.583997 -0.331347,0 -1.009101,-0.262798 -1.506121,-0.583997 z"
         id="path4388" />
    </g>
  </g>
</svg>
