<?xml version="1.0" encoding="UTF-8" standalone="no"?>
<!-- Created with Inkscape (http://www.inkscape.org/) -->

<svg
   width="100mm"
   height="100mm"
   viewBox="0 0 100 100"
   version="1.1"
   id="svg1385"
   inkscape:version="1.1.1 (3bf5ae0d25, 2021-09-20)"
   sodipodi:docname="add_list_type_device_6058.svg"
   xmlns:inkscape="http://www.inkscape.org/namespaces/inkscape"
   xmlns:sodipodi="http://sodipodi.sourceforge.net/DTD/sodipodi-0.dtd"
   xmlns="http://www.w3.org/2000/svg"
   xmlns:svg="http://www.w3.org/2000/svg">
  <sodipodi:namedview
     id="namedview1387"
     pagecolor="#505050"
     bordercolor="#ffffff"
     borderopacity="1"
     inkscape:pageshadow="0"
     inkscape:pageopacity="0"
     inkscape:pagecheckerboard="1"
     inkscape:document-units="mm"
     showgrid="false"
     width="100mm"
     inkscape:zoom="0.58974467"
     inkscape:cx="378.97757"
     inkscape:cy="28.826034"
     inkscape:window-width="1440"
     inkscape:window-height="890"
     inkscape:window-x="-6"
     inkscape:window-y="-6"
     inkscape:window-maximized="1"
     inkscape:current-layer="layer1" />
  <defs
     id="defs1382" />
  <g
     inkscape:label="Laag 1"
     inkscape:groupmode="layer"
     id="layer1">
    <g
       id="g1401"
       transform="translate(-1.3459223,0.89728096)">
      <path
         style="fill:#d0d0d0;fill-opacity:1;stroke-width:0.599679"
         d="m 47.21465,91.74233 c 0.432893,-0.173229 0.950116,-0.151929 1.149384,0.04731 0.199268,0.199267 -0.154917,0.341001 -0.787078,0.314963 -0.698592,-0.02878 -0.84069,-0.170872 -0.362306,-0.362302 z m 4.797431,0 c 0.432894,-0.173229 0.950117,-0.151929 1.149385,0.04731 0.199268,0.199267 -0.154917,0.341001 -0.787078,0.314963 -0.698592,-0.02878 -0.84069,-0.170872 -0.362307,-0.362302 z M 5.5383217,30.984721 C 6.2519576,28.686529 7.9835606,24.628468 8.4810249,24.088412 9.1219066,23.39266 6.7618604,29.58792 5.8625726,30.962004 5.3512436,31.743298 5.3016898,31.74677 5.5383217,30.984721 Z M 80.832617,26.936888 c -0.745922,-0.951125 -0.724712,-0.972336 0.226415,-0.226412 0.998915,0.783402 1.316583,1.27585 0.823023,1.27585 -0.124523,0 -0.59677,-0.472247 -1.049438,-1.049438 z m -4.197753,-4.197753 c -0.745922,-0.951125 -0.724712,-0.972335 0.226415,-0.226412 0.998915,0.783402 1.316583,1.27585 0.823024,1.27585 -0.124524,0 -0.596771,-0.472247 -1.049439,-1.049438 z M 15.544103,12.694512 c 0.774633,-0.824559 1.543351,-1.499198 1.708263,-1.499198 0.164911,0 -0.333951,0.674639 -1.108584,1.499198 -0.774632,0.824558 -1.54335,1.499197 -1.708262,1.499197 -0.164912,0 0.333951,-0.674639 1.108583,-1.499197 z"
         id="path1417" />
      <path
         style="fill:#b9b9b9;fill-opacity:1;stroke-width:0.599679"
         d="m 49.287459,91.736405 c 0.583468,-0.152042 1.393035,-0.142046 1.799037,0.02225 0.406002,0.16427 -0.07138,0.288668 -1.060851,0.276446 -0.989471,-0.01223 -1.321654,-0.146621 -0.738186,-0.298664 z M 3.5978668,54.622067 c 0.028775,-0.698591 0.1708727,-0.84069 0.362306,-0.362306 0.1732296,0.432893 0.1519253,0.950117 -0.047343,1.149385 -0.1992682,0.199268 -0.3410015,-0.154917 -0.314963,-0.787079 z M 49.942665,51.673646 c -0.199143,-0.518958 -1.142581,-0.919548 -2.229975,-0.946862 -1.036639,-0.02604 -1.547479,-0.183454 -1.135199,-0.349813 1.064251,-0.429434 0.931714,-2.00156 -0.168741,-2.00156 -0.505086,0 -1.09449,-0.472247 -1.309787,-1.049438 -0.215296,-0.577191 -0.881465,-1.40206 -1.480376,-1.833041 -0.854803,-0.615124 -1.08893,-1.599327 -1.08893,-4.577571 0,-4.29601 0.258255,-4.509925 5.463333,-4.525341 5.361637,-0.01588 8.329284,0.651225 8.329284,1.872359 0,0.623043 0.423014,1.117847 0.95566,1.117847 0.525613,0 1.096798,0.539711 1.2693,1.199358 0.172501,0.659647 0.686949,1.199358 1.143216,1.199358 0.475206,0 0.829577,0.613007 0.829577,1.435039 0,0.789271 0.341859,1.566222 0.759685,1.726556 0.874746,0.335674 0.667041,5.83359 -0.220388,5.83359 -0.296613,0 -0.539297,0.404783 -0.539297,0.899519 0,0.729281 -0.968241,0.899518 -5.116092,0.899518 -3.994439,0 -5.191769,-0.19721 -5.46127,-0.899518 z M 3.1223614,48.675251 c 0.0045,-1.649118 0.1209629,-2.252582 0.2588017,-1.341032 0.1378388,0.911549 0.1341553,2.260826 -0.00819,2.998394 -0.142341,0.737568 -0.2551182,-0.0082 -0.2506161,-1.657362 z m -0.05461,-6.596469 c 0.012222,-0.98947 0.1466207,-1.321654 0.2986653,-0.738186 0.1520447,0.583468 0.1420454,1.393035 -0.02222,1.799037 -0.1642662,0.406002 -0.2886663,-0.07138 -0.2764453,-1.060851 z M 3.597867,38.430735 c 0.028775,-0.698592 0.1708727,-0.84069 0.362306,-0.362306 0.1732297,0.432893 0.1519253,0.950116 -0.047343,1.149385 -0.1992682,0.199267 -0.3410015,-0.154918 -0.314963,-0.787079 z m 0.8907305,-4.023723 c 0.2251983,-0.591416 0.5605151,-0.924238 0.7451485,-0.739604 0.1846334,0.184633 3.803e-4,0.668519 -0.4094513,1.075301 -0.5922527,0.587846 -0.661134,0.518964 -0.3356972,-0.335697 z m 2.6783659,-6.120847 c 0,-0.329823 0.2615907,-1.004462 0.5813132,-1.499197 0.3197224,-0.494735 0.5813132,-0.629663 0.5813132,-0.29984 0,0.329824 -0.2615908,1.004463 -0.5813132,1.499198 -0.3197225,0.494735 -0.5813132,0.629663 -0.5813132,0.299839 z m 71.5862966,-3.448154 -1.142382,-1.349278 1.349278,1.142382 c 1.267985,1.073556 1.622275,1.556174 1.142382,1.556174 -0.113795,0 -0.72097,-0.607175 -1.349278,-1.349278 z M 8.3692052,25.257786 c 0.011688,-0.313332 0.4277282,-1.244333 0.9245347,-2.068892 l 0.9032841,-1.499198 -0.3922557,1.499198 c -0.4092587,1.56418 -1.473972,3.098616 -1.4355631,2.068892 z"
         id="path1415" />
      <path
         style="fill:#a3a3a3;fill-opacity:1;stroke-width:0.599679"
         d="M 15.544103,97.285625 C 14.059898,96.871246 12.479184,96.423682 12.031406,96.291045 11.010493,95.988645 6.2590699,91.461974 6.113187,90.652779 6.053726,90.322956 5.6029846,88.636359 5.1115393,86.904786 4.3578451,84.249197 4.3395272,83.31067 4.9944953,80.907996 c 0.4270712,-1.566661 0.8840635,-3.252281 1.0155385,-3.745823 0.1314749,-0.493542 0.6438286,-1.213894 1.1385638,-1.600777 0.4947351,-0.386883 0.8995185,-0.995035 0.8995185,-1.351449 0,-0.356407 0.2698555,-0.66725 0.5996789,-0.690752 0.3298235,-0.02351 1.0044623,-0.395746 1.499197,-0.827203 3.825624,-3.336332 10.112659,-3.826719 14.994694,-1.169584 3.112185,1.693865 4.373327,3.055508 6.27329,6.773218 1.335945,2.614079 1.370043,8.248459 0.06519,10.77177 -0.536187,1.036875 -0.772983,1.885223 -0.526214,1.885223 0.246769,0 -0.155599,0.423247 -0.894152,0.940548 -0.738552,0.517301 -1.187454,1.19194 -0.997559,1.499198 0.189895,0.307257 -0.06014,0.558649 -0.555642,0.558649 -0.495498,0 -1.326188,0.607175 -1.845976,1.349277 -0.519789,0.742103 -1.007339,1.238619 -1.083443,1.103374 -0.0761,-0.135246 -1.082866,0.04288 -2.237248,0.395902 -3.82208,1.168732 -5.071618,1.246643 -7.795827,0.486058 z m 5.397111,-4.515151 c 0,-0.319467 0.406862,-0.424729 0.904138,-0.233905 1.22198,0.468919 5.946162,-4.255262 5.477243,-5.477246 -0.190822,-0.497272 -0.08556,-0.904136 0.233909,-0.904136 0.319472,0 0.580858,-1.079422 0.580858,-2.398716 0,-1.319294 -0.261386,-2.398716 -0.580858,-2.398716 -0.319472,0 -0.424731,-0.406864 -0.233909,-0.904136 0.468919,-1.221984 -4.255263,-5.946165 -5.477243,-5.477246 -0.497276,0.190824 -0.904138,0.08556 -0.904138,-0.233905 0,-0.319473 -1.079422,-0.580861 -2.398716,-0.580861 -1.319294,0 -2.398716,0.261388 -2.398716,0.580861 0,0.319467 -0.406861,0.424729 -0.904137,0.233905 -1.221981,-0.468919 -5.9461624,4.255262 -5.477244,5.477246 0.1908226,0.497272 0.085564,0.904136 -0.2339084,0.904136 -0.7772781,0 -0.739839,3.700079 0.058768,5.807831 0.8513434,2.246943 2.8518974,4.359007 5.0573254,5.339218 2.099815,0.933268 6.296629,1.110348 6.296628,0.26567 z M 62.171939,75.342357 C 48.253535,73.685834 29.926248,62.840514 20.63035,50.759799 16.97552,46.010073 13.745066,39.662856 13.745066,37.231545 c 0,-1.126989 0.283265,-2.049071 0.629477,-2.049071 0.409702,0 0.435546,-0.346537 0.07402,-0.992541 -0.634318,-1.133464 0.182168,-4.796802 1.382663,-6.203607 0.422181,-0.494735 1.205278,-1.763826 1.740215,-2.820203 1.251702,-2.471823 5.191167,-5.166056 9.847129,-6.734536 6.651831,-2.24084 16.07631,-1.438421 26.34924,2.243427 1.72837,0.619453 2.965208,1.30356 2.748529,1.520239 -0.216679,0.216679 0.190725,0.393962 0.905342,0.393962 0.714618,0 1.299305,0.269855 1.299305,0.599679 0,0.329823 0.422789,0.599679 0.93953,0.599679 0.915175,0 4.915838,2.687384 5.797677,3.894502 0.242319,0.3317 0.44471,0.398617 0.44976,0.148705 0.0048,-0.249912 0.751284,0.198594 1.658298,0.99668 0.907014,0.798086 2.910128,2.486765 4.451363,3.75262 2.426589,1.993015 7.092457,7.39063 7.092457,8.204759 0,0.153014 0.888779,1.8558 1.975061,3.78397 3.589894,6.372133 4.991728,13.061845 3.876205,18.497737 -0.952518,4.641599 -4.910111,9.931889 -8.531699,11.404725 -2.518627,1.024276 -9.42233,1.44558 -14.257703,0.870086 z m 8.977344,-8.254575 c 0.864209,-0.800919 2.277299,-1.702339 3.140207,-2.00315 1.830814,-0.63822 2.750853,-3.288813 3.375329,-9.724194 0.431727,-4.44908 -1.020024,-11.015846 -2.56653,-11.609297 -0.432105,-0.165814 -0.785645,-0.937752 -0.785645,-1.715419 0,-0.800195 -0.5206,-1.692557 -1.199358,-2.055817 -0.659647,-0.353032 -1.199358,-1.172093 -1.199358,-1.820136 0,-0.648042 -0.310058,-1.178259 -0.68902,-1.178259 -0.378961,0 -1.6063,-0.944494 -2.727424,-2.098876 -2.226134,-2.292176 -3.180025,-2.629914 -3.180025,-1.12593 0,0.837111 -0.138622,0.858041 -0.992907,0.14992 -0.924081,-0.765983 -0.924081,-0.836466 0,-1.016917 0.998442,-0.194972 1.422091,-1.305307 0.498046,-1.305307 -0.272171,0 -2.011186,-1.177454 -3.864482,-2.616565 -2.116574,-1.643558 -4.258222,-2.75866 -5.759214,-2.998678 -1.314279,-0.210161 -2.794255,-0.786768 -3.288834,-1.281348 -0.49458,-0.49458 -1.575583,-0.899236 -2.402229,-0.899236 -0.826646,0 -2.262663,-0.290644 -3.191149,-0.645874 -2.553159,-0.976816 -9.653478,-1.086277 -10.862589,-0.167461 -0.56106,0.426355 -1.585461,0.783774 -2.276444,0.794263 -0.690985,0.01049 -1.739008,0.552419 -2.328942,1.204289 -0.589933,0.651869 -1.30426,1.042047 -1.587391,0.867062 -1.262228,-0.7801 -2.830481,1.012973 -5.023408,5.743548 -1.439878,3.106099 -0.488689,14.991974 1.19976,14.991974 0.421944,0 0.94436,0.944495 1.160923,2.098877 0.216563,1.154382 0.633194,2.098876 0.925846,2.098876 0.292652,0 0.703393,0.539711 0.912756,1.199358 0.209364,0.659647 0.77573,1.199358 1.25859,1.199358 0.482861,0 1.051743,0.472247 1.264184,1.049438 0.432237,1.174371 2.978737,3.747994 3.708495,3.747994 0.259889,0 0.779911,0.674639 1.155605,1.499197 0.375694,0.824559 1.028942,1.499198 1.451663,1.499198 0.42272,0 1.57006,0.742102 2.549644,1.649117 0.979584,0.907014 2.003241,1.576832 2.274794,1.488487 0.271553,-0.08835 0.90293,0.248573 1.40306,0.748699 0.500129,0.500133 1.632559,1.055753 2.516509,1.234721 0.883951,0.178963 2.754692,0.891837 4.157203,1.58416 1.887902,0.931931 4.223518,1.355401 8.995185,1.630911 7.137303,0.412106 9.640219,-0.05121 11.97715,-2.216983 z m -6.731343,-1.32168 c -0.203843,-0.329824 -0.08484,-0.599679 0.264447,-0.599679 0.349289,0 0.635072,0.269855 0.635072,0.599679 0,0.329823 -0.119001,0.599679 -0.264447,0.599679 -0.145446,0 -0.431229,-0.269856 -0.635072,-0.599679 z m 1.499198,-1.199358 c -0.540485,-0.349289 -0.614449,-0.584981 -0.185313,-0.590498 0.392814,-0.0048 0.880988,0.260674 1.084831,0.590498 0.460134,0.744519 0.252537,0.744519 -0.899518,0 z m -29.68411,-7.795827 c -0.203842,-0.329824 -0.100766,-0.599679 0.229057,-0.599679 0.329824,0 0.766459,0.269855 0.970301,0.599679 0.203842,0.329823 0.100767,0.599679 -0.229057,0.599679 -0.329823,0 -0.766459,-0.269856 -0.970301,-0.599679 z M 33.534473,54.67204 c 0,-0.494735 0.269855,-0.899518 0.599679,-0.899518 0.329823,0 0.599679,0.404783 0.599679,0.899518 0,0.494736 -0.269856,0.899519 -0.599679,0.899519 -0.329824,0 -0.599679,-0.404783 -0.599679,-0.899519 z m -4.797432,-6.896308 c 0,-0.329823 0.269855,-0.599679 0.599679,-0.599679 0.329823,0 0.599679,0.269856 0.599679,0.599679 0,0.329824 -0.269856,0.599679 -0.599679,0.599679 -0.329824,0 -0.599679,-0.269855 -0.599679,-0.599679 z m 37.779776,-12.32881 c 0,-0.5142 0.269855,-0.76813 0.599679,-0.564288 0.329823,0.203842 0.599679,0.624551 0.599679,0.93491 0,0.310358 -0.269856,0.564288 -0.599679,0.564288 -0.329824,0 -0.599679,-0.42071 -0.599679,-0.93491 z m -9.594864,-6.860917 c 0,-0.329824 0.285782,-0.599679 0.63507,-0.599679 0.349289,0 0.468291,0.269855 0.264449,0.599679 -0.203843,0.329823 -0.489624,0.599679 -0.635071,0.599679 -0.145446,0 -0.264448,-0.269856 -0.264448,-0.599679 z m -41.980366,9.767377 c -0.653413,-1.019028 -0.670336,-1.01772 -0.342281,0.02645 0.189815,0.604167 0.366423,1.413733 0.392461,1.799036 0.03417,0.505626 0.12941,0.498265 0.342282,-0.02645 0.162216,-0.399853 -0.01439,-1.20942 -0.392462,-1.799036 z m 79.807487,19.26708 c 0.02878,-0.698592 0.170872,-0.84069 0.362302,-0.362306 0.173229,0.432893 0.151928,0.950116 -0.04732,1.149385 -0.199273,0.199268 -0.341002,-0.154918 -0.314963,-0.787079 z m 0,-2.998395 c 0.02878,-0.698591 0.170872,-0.84069 0.362302,-0.362306 0.173229,0.432893 0.151928,0.950117 -0.04732,1.149385 -0.199273,0.199268 -0.341002,-0.154917 -0.314963,-0.787079 z m -1.199358,-0.599679 c 0.02878,-0.698591 0.170872,-0.84069 0.362302,-0.362306 0.173229,0.432893 0.151928,0.950117 -0.04731,1.149385 C 93.66543,55.008735 93.523702,54.65455 93.54974,54.022388 Z M 3.0455308,44.777337 c 0,-0.824558 0.1361114,-1.161878 0.3024697,-0.749598 0.1663584,0.412279 0.1663584,1.086918 0,1.499197 -0.1663583,0.412279 -0.3024697,0.07496 -0.3024697,-0.749599 z M 91.789232,44.243435 c -0.500288,-0.316997 -0.582222,-0.658549 -0.21276,-0.886891 0.330477,-0.204245 0.755601,0.03188 0.944722,0.524719 0.397365,1.035517 0.359939,1.054036 -0.731962,0.362172 z M 3.6102997,41.42913 c 0.032877,-0.961985 0.2890648,-2.423703 0.5693067,-3.248262 0.3436191,-1.011034 0.3967682,-0.52287 0.163226,1.499198 -0.3896029,3.373282 -0.8234442,4.409162 -0.7325327,1.749064 z M 89.2121,39.337955 c -0.866974,-1.625868 -1.345248,-2.956123 -1.062835,-2.956123 0.434869,0 1.850993,2.036096 2.085413,2.998394 0.04018,0.164912 0.285465,0.783726 0.545096,1.375141 1.043244,2.376454 -0.09196,1.350056 -1.567674,-1.417412 z M 5.0624576,34.882634 c 0.4044056,-1.962353 3.1935132,-8.649071 3.9896224,-9.56488 0.983586,-1.131473 0.4737194,2.431874 -0.5542047,3.873219 -0.577191,0.809333 -1.6697024,2.82583 -2.4278026,4.481106 -0.941637,2.056019 -1.2608944,2.439577 -1.0076151,1.210555 z m 72.4914444,-0.449759 -1.142382,-1.349278 1.349278,1.142381 c 1.267985,1.073556 1.622275,1.556175 1.142382,1.556175 -0.113795,0 -0.72097,-0.607175 -1.349278,-1.349278 z m 9.056406,0.756467 c -0.210091,-0.339934 0.03064,-0.440468 0.564286,-0.23568 1.038896,0.398661 1.228976,0.828491 0.36638,0.828491 -0.310358,0 -0.729162,-0.266765 -0.930666,-0.592811 z m -1.228262,-1.845803 c -0.645417,-1.044306 0.08966,-1.265467 0.912148,-0.274434 0.472996,0.569926 0.518494,0.914011 0.120847,0.914011 -0.35074,0 -0.815588,-0.28781 -1.032995,-0.639577 z m -5.672292,-6.415711 c -6.491776,-6.671018 -6.561513,-7.361048 -0.108356,-1.072172 3.028007,2.950924 5.505467,5.447088 5.505467,5.54703 0,0.76853 -1.525229,-0.496072 -5.397111,-4.474858 z m -7.552962,2.107936 -1.142383,-1.349278 1.349278,1.142382 c 0.742103,0.628309 1.349278,1.235484 1.349278,1.349277 0,0.479895 -0.482616,0.125607 -1.556173,-1.142381 z m -2.998395,-2.398716 -1.142383,-1.349278 1.349278,1.142382 c 0.742103,0.628309 1.349278,1.235484 1.349278,1.349277 0,0.479895 -0.482616,0.125607 -1.556173,-1.142381 z M 12.545708,19.89066 c 0,-0.494736 0.437826,-0.899519 0.972947,-0.899519 0.796847,0 0.837827,0.162808 0.226411,0.899519 -0.410593,0.494735 -0.848419,0.899518 -0.972946,0.899518 -0.124526,0 -0.226412,-0.404783 -0.226412,-0.899518 z m 58.168862,-0.929289 -1.499198,-1.202459 1.649117,0.712372 c 0.907015,0.391805 1.649118,0.938912 1.649118,1.215793 0,0.684078 -0.08319,0.65052 -1.799037,-0.725706 z m -2.698556,-1.769267 c -0.203843,-0.329823 -0.08484,-0.599679 0.264447,-0.599679 0.349289,0 0.635072,0.269856 0.635072,0.599679 0,0.329824 -0.119001,0.599679 -0.264447,0.599679 -0.145446,0 -0.431229,-0.269855 -0.635072,-0.599679 z m -54.430862,-1.87345 c 0.406782,-0.409831 0.890668,-0.594084 1.075301,-0.409451 0.184634,0.184633 -0.148188,0.51995 -0.739604,0.745148 -0.854661,0.325437 -0.923543,0.256556 -0.335697,-0.335697 z m 18.911296,-2.739875 c 0.583468,-0.152044 1.393034,-0.142045 1.799037,0.02222 0.406001,0.164268 -0.07138,0.288669 -1.060852,0.276447 -0.98947,-0.01222 -1.321654,-0.14662 -0.738185,-0.298665 z M 53.02404,9.9959563 51.824682,9.4805748 53.02404,9.4476105 c 0.659647,-0.018133 1.604141,0.2286234 2.098876,0.5483458 0.799572,0.5167227 0.799572,0.5776507 0,0.5483477 -0.494735,-0.01813 -1.439229,-0.264888 -2.098876,-0.5483477 z M 50.025645,8.7965984 c -0.203843,-0.3298235 -0.100767,-0.599679 0.229057,-0.599679 0.329823,0 0.766458,0.2698555 0.970301,0.599679 0.203842,0.3298234 0.100766,0.5996789 -0.229057,0.5996789 -0.329824,0 -0.766459,-0.2698555 -0.970301,-0.5996789 z M 45.528052,7.6160613 c 0,-0.3194724 0.404784,-0.4255286 0.899519,-0.2356804 0.494735,0.1898476 0.899518,0.4512338 0.899518,0.580858 0,0.1296243 -0.404783,0.2356805 -0.899518,0.2356805 -0.494735,0 -0.899519,-0.2613863 -0.899519,-0.5808581 z M 42.829497,6.9975614 c 0.203842,-0.3298234 0.489623,-0.599679 0.63507,-0.599679 0.145447,0 0.264448,0.2698556 0.264448,0.599679 0,0.3298235 -0.285781,0.599679 -0.63507,0.599679 -0.349288,0 -0.46829,-0.2698555 -0.264448,-0.599679 z M 32.784874,6.0007266 c 0.412279,-0.1663583 1.086918,-0.1663583 1.499197,0 0.41228,0.1663583 0.07496,0.3024697 -0.749598,0.3024697 -0.824559,0 -1.161878,-0.1361114 -0.749599,-0.3024697 z m 4.197753,0 c 0.412279,-0.1663583 1.086918,-0.1663583 1.499197,0 0.41228,0.1663583 0.07496,0.3024697 -0.749598,0.3024697 -0.824559,0 -1.161878,-0.1361114 -0.749599,-0.3024697 z"
         id="path1413" />
      <path
         style="fill:#8c8c8c;fill-opacity:1;stroke-width:0.599679"
         d="m 67.004056,82.747145 c 0.43289,-0.173229 0.950113,-0.151928 1.149387,0.04731 0.199267,0.199267 -0.154921,0.341001 -0.787079,0.314963 -0.698596,-0.02878 -0.84069,-0.170872 -0.362308,-0.362302 z m 6.708909,-1.38939 c -0.540485,-0.349289 -0.61445,-0.584981 -0.185313,-0.590498 0.392813,-0.0048 0.880988,0.260675 1.084831,0.590498 0.460134,0.74452 0.252537,0.74452 -0.899518,0 z m 4.197752,-0.399788 c 0,-0.549702 0.167053,-0.832408 0.371232,-0.628236 0.204172,0.204179 0.763163,-0.02069 1.242193,-0.49973 0.479029,-0.47903 1.189001,-0.870632 1.577725,-0.87023 0.388718,4.02e-4 -0.07731,0.67504 -1.035627,1.499197 -2.062764,1.773989 -2.155523,1.795463 -2.155523,0.498999 z m 5.247191,-4.19512 c 0.41228,-0.166357 0.749599,-0.522854 0.749599,-0.792206 0,-0.269358 0.909773,-1.393756 2.021716,-2.498664 4.151368,-4.125102 4.710041,-4.280563 1.293046,-0.359808 -1.940262,2.226308 -3.817143,4.026527 -4.170852,4.000489 -0.353708,-0.02603 -0.305788,-0.183454 0.106491,-0.349811 z M 63.068663,75.547268 c 0.577191,-0.150832 1.521685,-0.150832 2.098876,0 0.577191,0.150837 0.104944,0.274251 -1.049438,0.274251 -1.154382,0 -1.626629,-0.123414 -1.049438,-0.274251 z m 9.576249,-0.133693 c 5.000411,-0.714379 8.344473,-3.245912 10.763578,-8.148276 3.189381,-6.463334 2.382843,-14.341898 -2.323354,-22.69549 -1.086282,-1.92817 -1.975061,-3.630956 -1.975061,-3.78397 0,-0.814129 -4.665868,-6.211744 -7.092457,-8.204759 -1.541235,-1.265855 -3.544349,-2.954534 -4.451363,-3.75262 -0.907014,-0.798086 -1.653249,-1.246592 -1.658298,-0.99668 -0.0048,0.249912 -0.207441,0.182995 -0.44976,-0.148705 -0.881839,-1.207118 -4.882502,-3.894502 -5.797677,-3.894502 -0.516741,0 -0.93953,-0.269856 -0.93953,-0.599679 0,-0.329824 -0.584687,-0.599679 -1.299305,-0.599679 -0.714617,0 -1.122021,-0.177283 -0.905342,-0.393962 0.216679,-0.216679 -1.020159,-0.900786 -2.748529,-1.520239 -10.27293,-3.681848 -19.697409,-4.484267 -26.34924,-2.243427 -4.655962,1.56848 -8.595427,4.262713 -9.847129,6.734536 -0.534937,1.056377 -1.318034,2.325468 -1.740215,2.820203 -1.200495,1.406805 -2.016981,5.070143 -1.382663,6.203607 0.361522,0.646004 0.335678,0.992541 -0.07402,0.992541 -0.346212,0 -0.646582,0.87703 -0.667488,1.948956 -0.03522,1.805675 -0.07889,1.847028 -0.594112,0.56249 -1.324738,-3.302828 -1.797264,-9.10301 -1.065252,-13.075782 0.667959,-3.625146 0.944926,-4.114262 3.384585,-5.97708 1.461402,-1.115863 2.935671,-1.856672 3.276153,-1.646242 0.340483,0.210429 0.450898,0.110509 0.245368,-0.222046 -0.394902,-0.638964 2.512563,-2.253809 3.064376,-1.701995 0.177261,0.177261 -0.03752,0.322292 -0.47728,0.322292 -0.439764,0 -0.658292,0.14128 -0.485617,0.313955 0.483731,0.48373 2.317671,-0.37506 1.977238,-0.925893 -0.16529,-0.267445 1.063893,-0.778879 2.731516,-1.136521 3.702424,-0.794027 14.649219,-0.823724 12.867714,-0.03491 -0.800289,0.354353 -0.32078,0.409707 1.441113,0.166362 1.707795,-0.235874 2.508533,-0.15121 2.266945,0.239689 -0.222881,0.360628 0.163969,0.501631 0.959189,0.349615 0.732995,-0.140121 2.14157,0.07737 3.130167,0.483304 0.988597,0.405939 1.999841,0.694493 2.247209,0.641233 0.247368,-0.05326 0.449759,0.139286 0.449759,0.427882 0,0.288595 0.70533,0.524719 1.567399,0.524719 0.862069,0 1.76927,0.326636 2.016002,0.725857 0.246733,0.399222 0.68829,0.706255 0.981238,0.682296 1.288755,-0.105402 5.570496,1.950815 5.225305,2.509344 -0.209215,0.338518 -0.102824,0.44394 0.236426,0.234273 1.229422,-0.759825 13.157268,7.909225 17.445632,12.67933 5.110788,5.684915 10.038542,13.728714 11.59745,18.931063 1.017121,3.394315 1.253515,9.077351 0.523789,12.592418 -0.823413,3.966348 -0.421256,5.072672 0.793633,2.183293 0.45719,-1.087332 1.003096,-1.679815 1.221768,-1.326004 0.760855,1.231093 -3.316956,4.849082 -8.205983,7.280666 -3.969407,1.974204 -5.727516,2.496338 -9.11566,2.707215 -4.155613,0.258654 -4.163325,0.256357 -0.768213,-0.228681 z M 26.775591,14.431082 c -0.199268,-0.199268 -0.716492,-0.220573 -1.149385,-0.04734 -0.478384,0.191433 -0.336285,0.333532 0.362306,0.362307 0.632162,0.02604 0.986347,-0.115695 0.787079,-0.314964 z m 8.995185,-0.599679 c -0.199269,-0.199268 -0.716492,-0.220573 -1.149385,-0.04734 -0.478384,0.191433 -0.336286,0.333532 0.362306,0.362307 0.632161,0.02604 0.986347,-0.115695 0.787079,-0.314964 z m -5.31119,47.287186 c -0.745923,-0.951124 -0.724713,-0.972335 0.226412,-0.226411 0.577191,0.452664 1.049438,0.924912 1.049438,1.049435 0,0.49356 -0.492448,0.175892 -1.27585,-0.823024 z M 15.414051,57.127678 c -1.307378,-1.638522 -1.474185,-2.170612 -0.844343,-2.693335 0.887673,-0.736704 1.574074,-0.291422 1.574074,1.021132 0,0.48586 0.472248,1.241868 1.049439,1.680019 0.697044,0.529132 0.785844,0.803042 0.264448,0.815709 -0.431745,0.01049 -0.61821,0.288927 -0.414368,0.618751 0.783131,1.267133 -0.07002,0.511894 -1.62925,-1.442276 z m 78.135665,1.092463 c 0.02878,-0.698592 0.170872,-0.84069 0.362302,-0.362306 0.173229,0.432893 0.151928,0.950116 -0.04731,1.149385 -0.199273,0.199268 -0.341001,-0.154918 -0.314963,-0.787079 z m -69.04271,-2.498662 -2.066594,-2.248797 2.248796,2.066594 c 2.093131,1.923541 2.524521,2.430999 2.066594,2.430999 -0.100211,0 -1.11217,-1.011958 -2.248796,-2.248796 z M 13.074373,52.54318 c -0.03906,-0.478244 -0.03906,-1.071926 0,-1.319294 0.03906,-0.247367 -0.167368,-0.449759 -0.458723,-0.449759 -0.291356,0 -0.665596,-0.519521 -0.831644,-1.154491 -0.439921,-1.682259 0.910104,-0.947942 1.811263,0.985197 0.499916,1.072405 0.549868,1.808132 0.14992,2.20808 -0.39995,0.39995 -0.623464,0.310075 -0.670816,-0.269733 z m 80.437179,-0.419775 c -0.005,-0.742103 0.260674,-1.349278 0.590498,-1.349278 0.75135,0 0.75135,0.636404 0,1.799037 -0.47007,0.727386 -0.583068,0.641319 -0.590498,-0.449759 z M 3.7600602,47.775732 c 0,-2.803499 0.1032982,-3.950385 0.2295515,-2.548636 0.1262533,1.40175 0.1262533,3.695522 0,5.097272 -0.1262533,1.401749 -0.2295515,0.254863 -0.2295515,-2.548636 z m 16.5049828,3.148315 c -0.745923,-0.951125 -0.724713,-0.972335 0.226412,-0.226412 0.577191,0.452664 1.049438,0.924911 1.049438,1.049438 0,0.493556 -0.492448,0.175888 -1.27585,-0.823026 z m 72.405375,-3.392444 c -0.199261,-0.793918 -0.538086,-1.940804 -0.752945,-2.548635 -0.262377,-0.742252 -0.191633,-0.908233 0.215435,-0.50547 0.867861,0.858673 2.003228,4.497592 1.403279,4.497592 -0.276914,0 -0.666507,-0.649569 -0.865769,-1.443487 z M 16.143782,44.777337 c -0.353032,-0.659647 -0.506949,-1.199358 -0.342037,-1.199358 0.164911,0 0.588684,0.539711 0.941716,1.199358 0.353033,0.659647 0.50695,1.199358 0.342038,1.199358 -0.164912,0 -0.588684,-0.539711 -0.941717,-1.199358 z M 91.151,42.628488 c 0.02878,-0.698592 0.170872,-0.84069 0.362302,-0.362306 0.173229,0.432893 0.151928,0.950116 -0.04731,1.149384 -0.199273,0.199268 -0.341001,-0.154917 -0.314963,-0.787078 z M 4.2448888,40.579584 c 0,-0.824558 0.1361114,-1.161878 0.3024697,-0.749598 0.1663583,0.412279 0.1663583,1.086918 0,1.499197 -0.1663583,0.412279 -0.3024697,0.07496 -0.3024697,-0.749599 z M 14.991767,40.178871 c -0.02604,-0.385303 -0.202646,-1.19487 -0.392461,-1.799037 -0.328055,-1.044172 -0.311132,-1.04548 0.342281,-0.02645 0.37807,0.589618 0.554678,1.399184 0.392462,1.799037 -0.212872,0.524718 -0.308111,0.532078 -0.342282,0.02645 z M 4.8445678,37.581189 c 0,-0.824558 0.1361114,-1.161878 0.3024697,-0.749598 0.1663583,0.412279 0.1663583,1.086918 0,1.499197 -0.1663583,0.412279 -0.3024697,0.07496 -0.3024697,-0.749599 z M 16.143782,12.694512 c 1.118871,-1.154382 2.169239,-2.098877 2.334151,-2.098877 0.164912,0 -0.615601,0.944495 -1.734472,2.098877 -1.118871,1.154382 -2.169239,2.098876 -2.334151,2.098876 -0.164911,0 0.615601,-0.944494 1.734472,-2.098876 z M 26.338325,7.5972404 c 0,-0.3298234 0.285782,-0.599679 0.63507,-0.599679 0.349289,0 0.468291,0.2698556 0.264448,0.599679 -0.203842,0.3298234 -0.489623,0.599679 -0.63507,0.599679 -0.145447,0 -0.264448,-0.2698556 -0.264448,-0.599679 z m 2.398716,-0.599679 c 0,-0.3298234 0.269855,-0.599679 0.599679,-0.599679 0.329823,0 0.599679,0.2698556 0.599679,0.599679 0,0.3298235 -0.269856,0.599679 -0.599679,0.599679 -0.329824,0 -0.599679,-0.2698555 -0.599679,-0.599679 z M 44.216255,7.1875913 C 44.649148,7.0143614 45.166371,7.0356662 45.36564,7.2349359 45.564907,7.4342045 45.210722,7.575938 44.578561,7.5498993 43.879969,7.5211267 43.737871,7.3790262 44.216255,7.1875931 Z M 34.001461,6.3728218 c 0.804592,-0.3230817 2.284139,-0.3322215 3.598074,-0.022227 2.096457,0.4946137 2.013722,0.5278356 -1.366507,0.5487169 -2.75656,0.017029 -3.278477,-0.1061064 -2.231567,-0.5264899 z"
         id="path1411" />
      <path
         style="fill:#767676;fill-opacity:1;stroke-width:0.599679"
         d="m 68.315854,87.354545 c 0.494735,-0.319725 1.169374,-0.581311 1.499197,-0.581311 0.329824,0 0.194896,0.261586 -0.299839,0.581311 -0.494735,0.319725 -1.169374,0.581311 -1.499198,0.581311 -0.329823,0 -0.194895,-0.261586 0.29984,-0.581311 z m -6.692742,-3.287392 c -0.11196,-0.10802 -1.148061,-0.354063 -2.302443,-0.546758 -3.160561,-0.527579 -8.468021,-2.029205 -8.907297,-2.520109 -0.21325,-0.238318 0.1378,-0.243403 0.780111,-0.01127 0.642311,0.232099 3.734968,0.855711 6.872572,1.38581 5.617572,0.949082 10.004194,0.759259 17.895706,-0.774402 1.38112,-0.26841 1.948956,-0.155095 1.948956,0.388928 0,0.422228 -0.169139,0.598546 -0.375866,0.391818 -0.206734,-0.206727 -1.15226,0.02561 -2.101174,0.516318 -1.505146,0.778341 -13.190395,1.768033 -13.810565,1.169698 z M 47.766854,80.683662 c 0.406782,-0.409833 0.890668,-0.594084 1.075301,-0.409449 0.184634,0.184635 -0.148188,0.519952 -0.739604,0.745149 -0.854661,0.325434 -0.923543,0.256555 -0.335697,-0.3357 z m -3.887919,-0.948476 c -0.742103,-0.14294 -1.349278,-0.510969 -1.349278,-0.817854 0,-0.306886 -0.291912,-0.557972 -0.648694,-0.557972 -0.356781,0 -2.24577,-0.936021 -4.197753,-2.080046 -2.06692,-1.211388 -3.552893,-1.774864 -3.558241,-1.349278 -0.0058,0.461003 -0.171823,0.507418 -0.449759,0.125735 -0.242317,-0.332762 -1.450691,-1.277257 -2.685275,-2.098877 -1.234585,-0.821614 -2.246543,-1.712161 -2.248796,-1.978994 -0.0023,-0.266834 -0.262099,-0.325698 -0.577432,-0.130808 -0.315333,0.194883 -1.01949,-0.32658 -1.564793,-1.15882 -0.545302,-0.832234 -1.231796,-1.364618 -1.525542,-1.183077 -0.293746,0.181547 -0.534084,-0.09062 -0.534084,-0.604824 0,-0.514201 -0.404783,-0.934911 -0.899518,-0.934911 -0.494736,0 -0.899519,-0.459552 -0.899519,-1.021224 0,-0.762671 0.56934,-0.479029 2.248796,1.120333 3.846249,3.662821 16.299256,11.044635 21.138684,12.530454 1.135759,0.348701 1.208446,0.452985 0.29984,0.430167 -0.659647,-0.01655 -1.806533,-0.147071 -2.548636,-0.290004 z m 24.586838,-1.789203 c 0.577191,-0.150831 1.521686,-0.150831 2.098877,0 0.577191,0.150838 0.104944,0.274252 -1.049438,0.274252 -1.154382,0 -1.62663,-0.123414 -1.049439,-0.274252 z M 88.10526,69.73744 c 0,-0.124524 0.472247,-0.596771 1.049438,-1.049439 0.951127,-0.745922 0.972338,-0.724712 0.226415,0.226415 -0.783403,0.998916 -1.275853,1.316583 -1.275853,0.823024 z M 21.588236,65.962035 c -0.02604,-0.386979 -0.780157,-1.574493 -1.67582,-2.638924 -1.452109,-1.725738 -1.486071,-1.859124 -0.313583,-1.231626 1.53422,0.821086 2.746353,2.829627 2.328134,3.857783 -0.217142,0.533828 -0.303451,0.537078 -0.338731,0.01277 z m 70.497915,-2.29481 c 0.189852,-0.494735 0.422366,-0.899518 0.516701,-0.899518 0.09434,0 0.326849,0.404783 0.516702,0.899518 0.208148,0.54244 0.003,0.899519 -0.516702,0.899519 -0.519741,0 -0.72485,-0.357079 -0.516701,-0.899519 z m -66.663428,-5.247191 -4.181669,-4.347673 4.347672,4.18167 c 2.39122,2.299919 4.347673,4.256371 4.347673,4.347673 0,0.43987 -0.62974,-0.143552 -4.513676,-4.18167 z m -7.989631,1.799037 c -0.412279,-0.412279 -0.977935,-0.749599 -1.257013,-0.749599 -0.660947,0 -4.829729,-4.420321 -4.829729,-5.121148 0,-0.295989 -0.420881,-0.376653 -0.935292,-0.179255 C 9.7863,54.408811 9.3648696,54.103906 9.141759,53.25073 8.9580552,52.548245 8.5693696,51.973485 8.2780144,51.973485 7.9866586,51.973485 7.7441442,51.36631 7.7390937,50.624207 7.7318616,49.5616 7.6117686,49.461726 7.1738459,50.154129 6.5848382,51.085414 6.5929524,51.099508 4.761434,45.963726 c -0.6053245,-1.697398 -0.6038555,-2.81542 0.00749,-5.69695 0.7272336,-3.427787 0.7837332,-3.506161 1.2875642,-1.786068 0.2898248,0.98947 0.5598769,2.527882 0.600116,3.418693 0.040238,0.890811 0.4372559,1.759372 0.8822591,1.930136 0.4450032,0.170764 0.809097,0.88356 0.809097,1.583991 0,0.700431 0.5360345,1.954969 1.1911874,2.787861 0.6551533,0.832892 1.0440103,1.752487 0.8641273,2.043544 -0.179883,0.291057 -0.09946,0.529194 0.178715,0.529194 0.278176,0 0.971084,0.787706 1.539795,1.750457 0.568711,0.962752 2.260854,3.256524 3.760317,5.097271 2.560629,3.143442 3.247621,4.29384 1.550995,2.597216 z M 9.9071209,51.613678 c -0.213421,-0.556167 -0.5229662,-0.876285 -0.687878,-0.711373 -0.1649117,0.164912 -0.1252219,0.754885 0.088199,1.311052 0.213421,0.556166 0.5229663,0.876284 0.687878,0.711372 0.1649121,-0.164911 0.1252221,-0.754884 -0.088199,-1.311051 z m 18.1848541,7.705875 -1.453811,-1.649118 1.649118,1.453811 c 0.907014,0.799595 1.649117,1.541698 1.649117,1.649117 0,0.470314 -0.48562,0.08754 -1.844424,-1.45381 z m 66.161302,-5.247192 c 0.0067,-1.319293 0.129465,-1.788394 0.272902,-1.042446 0.143437,0.745948 0.137992,1.825371 -0.01211,2.398716 -0.150081,0.573346 -0.267444,-0.03698 -0.260788,-1.35627 z M 21.464401,52.723084 c -0.745923,-0.951125 -0.724713,-0.972335 0.226412,-0.226412 0.577191,0.452664 1.049438,0.924911 1.049438,1.049438 0,0.493556 -0.492448,0.175888 -1.27585,-0.823026 z m 72.085315,-2.898448 c 0.02878,-0.698592 0.170872,-0.84069 0.362302,-0.362307 0.173229,0.432894 0.151928,0.950117 -0.04731,1.149385 -0.199273,0.199268 -0.341001,-0.154917 -0.314963,-0.787078 z M 11.441037,31.5844 c 0,-0.824559 0.136111,-1.161878 0.302469,-0.749599 0.166359,0.412279 0.166359,1.086918 0,1.499197 -0.166358,0.41228 -0.302469,0.07496 -0.302469,-0.749598 z m 0,-5.99679 c 0,-0.824559 0.136111,-1.161878 0.302469,-0.749599 0.166359,0.412279 0.166359,1.086918 0,1.499198 -0.166358,0.412279 -0.302469,0.07496 -0.302469,-0.749599 z m 0.586658,-3.183706 c -0.04492,-0.92648 -0.326355,-1.533282 -0.625419,-1.34845 -0.299065,0.184832 -0.39008,-0.25159 -0.202257,-0.969827 0.340413,-1.301744 0.343171,-1.30136 0.869336,0.121001 0.290312,0.784788 0.418077,1.979239 0.283923,2.654336 -0.175906,0.885199 -0.266689,0.757757 -0.325583,-0.45706 z m 0.215556,-4.016677 c -0.205282,-0.332153 0.0471,-0.765214 0.560844,-0.962356 0.513746,-0.197143 0.75901,-0.641715 0.545032,-0.987938 -0.227509,-0.368118 -0.100906,-0.451415 0.304906,-0.200609 0.49558,0.306285 0.516035,0.761336 0.07156,1.591852 -0.706934,1.320919 -0.95391,1.414064 -1.482338,0.559051 z m 4.200371,-4.793197 c 1.288256,-1.319294 2.477211,-2.398716 2.642123,-2.398716 0.164912,0 -0.754188,1.079422 -2.042444,2.398716 -1.288256,1.319294 -2.477212,2.398716 -2.642123,2.398716 -0.164912,0 0.754188,-1.079422 2.042444,-2.398716 z m 5.097271,1.799037 c 0.494735,-0.319722 1.169374,-0.581313 1.499198,-0.581313 0.329823,0 0.194895,0.261591 -0.29984,0.581313 -0.494735,0.319723 -1.169374,0.581313 -1.499197,0.581313 -0.329824,0 -0.194896,-0.26159 0.299839,-0.581313 z m 4.085313,-1.009328 c 0.432893,-0.17323 0.950117,-0.151925 1.149385,0.04734 0.199268,0.199268 -0.154917,0.341002 -0.787079,0.314963 -0.698591,-0.02877 -0.84069,-0.170873 -0.362306,-0.362306 z m 8.995185,-0.599679 c 0.432893,-0.17323 0.950116,-0.151925 1.149385,0.04734 0.199268,0.199268 -0.154918,0.341002 -0.787079,0.314963 -0.698592,-0.02877 -0.84069,-0.170873 -0.362306,-0.362306 z m 3.598074,0 c 0.432893,-0.17323 0.950116,-0.151925 1.149385,0.04734 0.199268,0.199268 -0.154918,0.341002 -0.787079,0.314963 -0.698592,-0.02877 -0.84069,-0.170873 -0.362306,-0.362306 z M 19.741856,10.364124 c 0,-0.340082 3.659368,-1.9739725 5.397111,-2.4097838 0.824559,-0.2067921 0.04785,0.3029027 -1.726022,1.1326545 -3.315143,1.5507033 -3.671089,1.6745323 -3.671089,1.2771293 z M 30.697411,6.5819895 C 31.280879,6.4299448 32.090445,6.439944 32.496448,6.60421 32.90245,6.7684759 32.425067,6.8928761 31.435596,6.8806548 30.446126,6.8684335 30.113942,6.7340341 30.697411,6.5819895 Z m 10.520449,0.00592 c 0.432893,-0.1732296 0.950116,-0.1519252 1.149385,0.047343 0.199268,0.1992683 -0.154918,0.3410017 -0.787079,0.3149629 -0.698592,-0.028775 -0.84069,-0.1708725 -0.362306,-0.3623059 z"
         id="path1409" />
      <path
         style="fill:#606060;fill-opacity:1;stroke-width:0.599679"
         d="m 16.790804,91.802166 c 0.02877,-0.698596 0.170873,-0.84069 0.362306,-0.362308 0.17323,0.43289 0.151925,0.950113 -0.04734,1.149387 -0.199269,0.199267 -0.341002,-0.154921 -0.314964,-0.787079 z m 36.094729,-0.66544 c 0.583468,-0.152042 1.393034,-0.142046 1.799037,0.02225 0.406002,0.16427 -0.07138,0.288668 -1.060851,0.276446 -0.989471,-0.01223 -1.321654,-0.146621 -0.738186,-0.298664 z M 67.718579,86.31006 c -1.153056,-0.139077 -2.367406,-0.475054 -2.698555,-0.746618 -0.331143,-0.271559 -1.746847,-0.406775 -3.146006,-0.300481 -1.399158,0.106299 -2.699618,-0.05865 -2.889912,-0.366554 -0.190295,-0.307899 -0.627369,-0.385918 -0.971278,-0.173373 -0.343909,0.21255 -0.860841,0.01457 -1.148739,-0.439973 -0.379054,-0.598455 -0.525983,-0.619648 -0.532632,-0.07683 -0.0051,0.41228 -0.548894,0.749599 -1.208541,0.749599 -0.659647,0 -1.199358,-0.269856 -1.199358,-0.599679 0,-0.329823 -0.658712,-0.599679 -1.463806,-0.599679 -0.805094,0 -1.612159,-0.240039 -1.793479,-0.53342 -0.18132,-0.293381 -1.209204,-0.677818 -2.284188,-0.854297 -4.89274,-0.80324 -7.945853,-1.691209 -8.955018,-2.60449 -0.60234,-0.545114 -1.095162,-0.781316 -1.095162,-0.524899 0,0.256411 -0.425351,0.113202 -0.945223,-0.318256 -0.74839,-0.621111 -1.04121,-0.629159 -1.406162,-0.03868 -0.811279,1.31268 -3.341302,0.134826 -4.556225,-2.121148 -2.184201,-4.055791 -7.440797,-7.397107 -11.637258,-7.397107 -1.456805,0 -6.041971,-3.403915 -6.041971,-4.485418 0,-0.377636 -1.619133,-2.228204 -3.598074,-4.112373 -1.9789401,-1.88417 -3.5980734,-3.843078 -3.5980734,-4.353129 0,-1.105467 -1.4988576,-2.741019 -2.0274861,-2.212391 -0.2041764,0.204177 -0.3529659,-1.765127 -0.3306434,-4.376228 0.041158,-4.814289 0.2262795,-4.87346 1.7833965,-0.570026 0.510768,1.411619 0.7583583,1.597265 1.1996603,0.899519 0.4379227,-0.692403 0.5580163,-0.592529 0.5652478,0.470078 0.00504,0.742103 0.2475649,1.349278 0.5389207,1.349278 0.2913552,0 0.6800408,0.57476 0.8637446,1.277245 0.2231106,0.853176 0.644541,1.158081 1.269299,0.918339 0.514411,-0.197398 0.935292,-0.116734 0.935292,0.179255 0,0.764408 4.251494,5.149023 4.833327,4.984666 0.597312,-0.168728 5.35774,5.736039 5.370399,6.661367 0.0051,0.369193 0.270774,0.26648 0.590496,-0.228255 0.49679,-0.768729 0.582649,-0.746931 0.590496,0.149919 0.005,0.577191 0.413966,1.049439 0.908702,1.049439 0.494735,0 0.899518,0.42071 0.899518,0.934911 0,0.514201 0.240338,0.786371 0.534084,0.604824 0.293746,-0.181541 0.98024,0.350843 1.525542,1.183077 0.545303,0.83224 1.24946,1.353703 1.564793,1.15882 0.315333,-0.19489 0.575178,-0.136026 0.577432,0.130808 0.0023,0.266833 1.014211,1.15738 2.248796,1.978994 1.234584,0.82162 2.442958,1.766115 2.685275,2.098877 0.277936,0.381683 0.443966,0.335268 0.449759,-0.125735 0.0053,-0.425586 1.491321,0.13789 3.558241,1.349278 1.951983,1.144025 3.840972,2.080046 4.197753,2.080046 0.356782,0 0.648694,0.253323 0.648694,0.562937 0,0.309614 1.211595,0.744621 2.692433,0.966688 1.480838,0.222067 2.586029,0.57592 2.45598,0.786341 -0.130049,0.210428 0.479882,0.414517 1.355401,0.453538 0.875519,0.03904 3.076058,0.514248 4.890087,1.056058 5.386379,1.608801 7.19168,1.841273 13.585164,1.749372 4.463722,-0.06416 6.624791,-0.364431 8.095666,-1.12486 1.613532,-0.834177 1.858735,-0.859202 1.252028,-0.127762 -0.652715,0.786905 -6.686457,4.241386 -6.946789,3.977221 -0.05199,-0.05277 -1.037985,-0.209755 -2.191048,-0.348833 z m 6.481625,-8.960025 c 0.43289,-0.17323 0.950113,-0.151929 1.149386,0.04731 0.199268,0.199274 -0.154921,0.341002 -0.787078,0.314964 -0.698596,-0.02878 -0.84069,-0.170873 -0.362308,-0.362302 z m -7.533468,-1.203088 c 0.577192,-0.150832 1.521686,-0.150832 2.098877,0 0.577191,0.150837 0.104944,0.274251 -1.049438,0.274251 -1.154382,0 -1.62663,-0.123414 -1.049439,-0.274251 z m 3.935394,0.0036 c 0.43289,-0.17323 0.950113,-0.151929 1.149387,0.04731 0.199267,0.199274 -0.154922,0.341002 -0.787079,0.314964 -0.698596,-0.02878 -0.84069,-0.170873 -0.362308,-0.362302 z m 17.245424,-5.518966 c -0.180665,-0.292325 0.223614,-0.67588 0.898403,-0.852342 1.006231,-0.263133 1.099661,-0.167544 0.519508,0.531502 -0.828121,0.99783 -0.978478,1.031849 -1.417911,0.32084 z m 3.595507,-4.201909 c -0.225605,-0.364904 -0.108482,-0.663568 0.260273,-0.663568 0.368755,0 0.503682,-0.269856 0.299839,-0.599679 -0.203842,-0.329824 -0.08484,-0.599679 0.264447,-0.599679 0.763463,0 0.799546,0.610959 0.101172,1.713139 -0.359388,0.567182 -0.639786,0.61259 -0.925731,0.149919 z M 31.059265,63.517305 c -0.745924,-0.951126 -0.724713,-0.972337 0.226412,-0.226414 0.577191,0.452667 1.049438,0.924915 1.049438,1.049438 0,0.49356 -0.492448,0.175892 -1.27585,-0.823024 z M 93.553703,60.96867 c 0.01811,-0.494735 0.264885,-1.43923 0.548347,-2.098877 l 0.515382,-1.199358 0.03298,1.199358 c 0.01811,0.659647 -0.228621,1.604142 -0.548346,2.098877 -0.516725,0.79957 -0.577653,0.79957 -0.548347,0 z m -69.371231,-4.947352 -1.142381,-1.349278 1.349277,1.142382 c 1.267989,1.073556 1.622276,1.556174 1.142382,1.556174 -0.113794,0 -0.720969,-0.607175 -1.349278,-1.349278 z M 9.3074419,52.213357 C 9.094021,51.65719 9.0543312,51.067217 9.2192429,50.902305 c 0.1649118,-0.164912 0.474457,0.155206 0.687878,0.711373 0.2134211,0.556167 0.2531111,1.14614 0.088199,1.311051 -0.1649117,0.164912 -0.474457,-0.155206 -0.687878,-0.711372 z m 10.9882111,0.809566 c -0.323781,-1.057952 -0.379925,-2.274817 -0.09166,-1.986549 0.437625,0.437625 0.743219,2.136469 0.384317,2.136469 -0.135728,0 -0.267425,-0.06746 -0.29266,-0.14992 z m -2.027385,-2.807038 c -0.189757,-0.307034 -0.115731,-0.699946 0.164502,-0.873139 0.280233,-0.173194 0.509514,0.07802 0.509514,0.558242 0,1.011159 -0.189101,1.099506 -0.674016,0.314897 z M 17.06891,48.416848 c -0.189757,-0.307033 -0.115731,-0.699946 0.164502,-0.873139 0.280233,-0.173194 0.509514,0.07802 0.509514,0.558242 0,1.011159 -0.189101,1.099506 -0.674016,0.314897 z m -1.799037,-2.998395 c -0.189757,-0.307033 -0.02906,-0.753511 0.357104,-0.992174 0.418483,-0.258637 0.542051,-0.174941 0.305885,0.207184 -0.217928,0.352614 -0.05723,0.777788 0.357103,0.944831 0.539197,0.217383 0.550319,0.317172 0.03913,0.351058 -0.392815,0.02604 -0.869464,-0.203866 -1.059222,-0.510899 z M 13.483782,16.416642 c 0.225198,-0.591416 0.560515,-0.924237 0.745149,-0.739603 0.184633,0.184633 3.8e-4,0.668518 -0.409452,1.075301 -0.592252,0.587845 -0.661134,0.518964 -0.335697,-0.335698 z m 3.38961,-3.729882 c 1.225843,-1.282048 2.32601,-2.209561 2.444815,-2.061141 0.118805,0.148421 -0.884158,1.197369 -2.228806,2.330997 l -2.444816,2.061141 z"
         id="path1407" />
      <path
         style="fill:#494949;fill-opacity:1;stroke-width:0.599679"
         d="m 44.378667,91.302729 c 0.442044,-0.441513 7.113776,-0.582402 7.537018,-0.15916 0.224801,0.224801 -1.435284,0.408729 -3.689077,0.408729 -2.253793,0 -3.985367,-0.112308 -3.847941,-0.249569 z m 11.485965,-1.177493 c 0.534409,-0.53441 1.598103,-0.987887 2.363764,-1.007737 0.765662,-0.01985 -0.38385,-0.515466 -2.55447,-1.101388 -2.170621,-0.585923 -4.213279,-1.23014 -4.53924,-1.43159 -0.325961,-0.201456 -2.318479,-0.530464 -4.427818,-0.731128 -2.109338,-0.200665 -4.181977,-0.652673 -4.605865,-1.004469 -0.549128,-0.455738 -1.011284,-0.439966 -1.607513,0.05487 -0.644244,0.53468 -1.534166,0.42952 -3.867236,-0.45698 -1.666735,-0.633308 -3.17916,-1.002741 -3.360944,-0.820954 -0.181784,0.181769 -0.330516,-0.36704 -0.330516,-1.219597 0,-0.852552 -0.179299,-2.017338 -0.398442,-2.588419 -0.339856,-0.885647 -0.149826,-0.975923 1.292394,-0.613951 1.106735,0.277777 1.850067,0.166735 2.151774,-0.32144 0.364952,-0.590504 0.657772,-0.582456 1.406162,0.03868 0.519872,0.431434 0.945223,0.574643 0.945223,0.318232 0,-0.256417 0.492822,-0.02021 1.095162,0.524899 1.009165,0.913281 4.062278,1.80125 8.955018,2.60449 1.074984,0.176479 2.102868,0.560916 2.284188,0.854297 0.18132,0.293381 0.988385,0.53342 1.793479,0.53342 0.805094,0 1.463806,0.269856 1.463806,0.599679 0,0.329823 0.539711,0.599679 1.199358,0.599679 0.659647,0 1.20349,-0.337319 1.208541,-0.749599 0.0067,-0.542817 0.153578,-0.521624 0.532632,0.07683 0.287898,0.454533 0.80483,0.652523 1.148739,0.439973 0.343909,-0.212545 0.782627,-0.13187 0.97493,0.179286 0.192304,0.311149 1.554835,0.467527 3.02785,0.347496 1.47301,-0.120032 2.834449,0.03454 3.025417,0.343568 0.190968,0.30899 1.343251,0.573731 2.560623,0.588309 l 2.213403,0.02651 -2.21949,1.172144 c -1.220718,0.644679 -2.704924,1.266144 -3.298234,1.381037 -0.593311,0.114886 -1.753383,0.48619 -2.577942,0.825122 -0.824559,0.338927 -2.69782,0.817417 -4.162802,1.063309 -2.455534,0.412159 -2.587702,0.371183 -1.691951,-0.524569 z M 13.668574,88.104144 c -0.745923,-0.951127 -0.724712,-0.972338 0.226412,-0.226415 0.577191,0.452668 1.049438,0.924915 1.049438,1.049438 0,0.49356 -0.492448,0.175892 -1.27585,-0.823023 z M 64.60534,76.150677 c 0.43289,-0.17323 0.950113,-0.151929 1.149387,0.04731 0.199267,0.199274 -0.154921,0.341002 -0.787079,0.314964 -0.698596,-0.02878 -0.84069,-0.170873 -0.362308,-0.362302 z m 22.300562,-4.987465 c 0,-0.329823 0.285783,-0.599679 0.635072,-0.599679 0.349289,0 0.468289,0.269856 0.264447,0.599679 -0.203843,0.329824 -0.489626,0.599679 -0.635072,0.599679 -0.145447,0 -0.264447,-0.269855 -0.264447,-0.599679 z M 11.743058,68.512511 C 10.781782,67.475277 10.153443,67.198879 9.7267483,67.625574 9.3000545,68.05227 8.9967974,67.958546 8.7536126,67.324811 8.5593106,66.818472 8.6584064,66.244693 8.9738249,66.049756 9.9961055,65.417952 9.5826292,64.188634 8.0767801,63.382725 7.2679871,62.949871 6.6369251,62.432024 6.67442,62.231953 6.711915,62.031883 6.4629582,61.193549 6.1211827,60.368991 5.7794072,59.544432 5.2985868,57.671171 5.0526929,56.206189 4.6405372,53.750655 4.6815148,53.618487 5.5772658,54.514238 c 0.534409,0.534409 0.9716528,1.388967 0.9716528,1.899017 0,0.510051 1.6191333,2.468959 3.5980734,4.353129 1.978941,1.884169 3.598074,3.747876 3.598074,4.141565 0,0.393689 0.962219,1.449724 2.138263,2.346736 1.176045,0.897012 2.053075,1.702806 1.948957,1.790659 -0.104118,0.08785 -1.202587,0.342927 -2.441042,0.566841 -1.923388,0.347754 -2.455366,0.187399 -3.648186,-1.099674 z m 78.268378,-0.364353 c 0.724772,-0.980307 1.39616,-1.782377 1.491977,-1.782377 0.529019,0 -1.294677,2.983373 -1.985819,3.248587 -0.484804,0.186038 -0.281543,-0.417449 0.493842,-1.46621 z M 25.255167,57.720408 C 20.696273,53.017401 15.34137,45.976695 16.323328,45.976695 c 0.13768,0 1.247362,1.501643 2.46596,3.336983 2.045601,3.080897 10.930683,12.479784 11.846737,12.531806 0.85435,0.04851 1.049041,0.722332 0.208709,0.722332 -0.489886,0 -3.005191,-2.181334 -5.589567,-4.847408 z M 14.344745,42.9783 c -0.673053,-1.319293 -1.088806,-2.398716 -0.923894,-2.398716 0.164912,0 0.85052,1.079423 1.523573,2.398716 0.673054,1.319294 1.088806,2.398716 0.923895,2.398716 -0.164912,0 -0.85052,-1.079422 -1.523574,-2.398716 z M 10.794014,28.236192 c 0.02877,-0.698592 0.170873,-0.84069 0.362307,-0.362306 0.173229,0.432893 0.151925,0.950116 -0.04734,1.149385 -0.199269,0.199268 -0.341002,-0.154918 -0.314963,-0.787079 z"
         id="path1405" />
      <path
         style="fill:#333333;fill-opacity:1;stroke-width:0.599679"
         d="m 16.593542,92.954179 c 1.383326,-0.558187 0.767873,-2.170706 -1.603078,-4.200151 -2.855776,-2.444436 -3.502996,-4.74947 -2.140051,-7.621662 1.927524,-4.061956 6.947776,-4.951837 10.107903,-1.791715 2.279884,2.279883 2.535492,4.558903 0.884022,7.881983 -1.392714,2.802413 -5.274661,6.117043 -7.098877,6.061435 -0.609719,-0.01859 -0.658019,-0.124865 -0.149919,-0.32989 z m 23.837239,-2.614054 c -1.319294,-0.264525 -3.594163,-0.894739 -5.055264,-1.400467 -2.443293,-0.845697 -2.722751,-0.837913 -3.481236,0.09697 -0.73347,0.904041 -0.754699,0.871592 -0.191927,-0.29338 0.348018,-0.720419 0.632761,-1.948262 0.632761,-2.72854 0,-2.466126 0.985783,-2.82384 4.305624,-1.562397 2.32165,0.882157 3.208582,0.986088 3.852751,0.451474 0.596229,-0.494825 1.058385,-0.510597 1.607513,-0.05487 0.423888,0.351796 2.496527,0.803804 4.605865,1.004469 2.109339,0.200664 4.101857,0.529672 4.427818,0.731128 0.325961,0.20145 2.368619,0.845667 4.53924,1.43159 2.17062,0.585922 3.320132,1.081545 2.55447,1.101388 -0.765661,0.01985 -1.774615,0.418588 -2.24212,0.886092 -0.958927,0.958929 -11.332165,1.183346 -15.555495,0.336534 z m -7.978759,-8.68253 c 0.01222,-0.989471 0.14662,-1.321657 0.298665,-0.738187 0.152044,0.583469 0.142045,1.393036 -0.02222,1.799037 -0.164268,0.406 -0.288669,-0.07138 -0.276447,-1.06085 z m -2.057447,-5.127508 c -1.191204,-2.133549 -2.497466,-3.425636 -4.795649,-4.74361 -1.737183,-0.996253 -2.874027,-1.813897 -2.526321,-1.816998 1.644808,-0.01463 6.295862,3.732894 7.783621,6.271563 0.893533,1.524696 1.523552,2.873224 1.400044,2.996734 -0.123508,0.12351 -0.961271,-1.094948 -1.861695,-2.707689 z m 32.210266,0.676726 C 53.89217,75.811624 42.052191,71.023109 35.03367,66.056034 c -6.398229,-4.528086 -6.156034,-5.303968 0.31663,-1.014333 17.076568,11.317166 35.217936,14.457727 47.581715,8.237149 4.092096,-2.058848 5.176819,-1.949556 2.39197,0.241011 -3.794211,2.984524 -15.372183,4.863444 -22.719144,3.686952 z M 10.874074,71.313132 c 0.07007,-0.247367 -0.224783,-1.085905 -0.655233,-1.863418 -0.5217583,-0.942438 -0.5827438,-1.613551 -0.182958,-2.013339 0.399786,-0.399788 0.817878,-0.191969 1.254276,0.623451 0.360029,0.67272 1.241259,1.409323 1.95829,1.636901 l 1.303692,0.413773 -1.452976,0.804949 c -1.653946,0.91628 -2.410285,1.051459 -2.225091,0.397683 z m 4.831362,-1.764849 c 0.583468,-0.152043 1.393035,-0.142046 1.799037,0.02219 0.406002,0.16427 -0.07138,0.288668 -1.060851,0.276446 -0.989471,-0.01223 -1.321654,-0.146621 -0.738186,-0.298664 z m 4.197753,0 c 0.583468,-0.152043 1.393035,-0.142046 1.799037,0.02219 0.406002,0.16427 -0.07138,0.288668 -1.060851,0.276446 -0.989471,-0.01223 -1.321654,-0.146621 -0.738186,-0.298664 z M 8.0635158,65.196203 c -1.1975781,-2.315859 -1.1548264,-2.588485 0.2667006,-1.700726 0.6926413,0.432561 1.1348343,1.303222 1.0685632,2.103956 -0.144937,1.751248 -0.2352432,1.723975 -1.3352638,-0.40323 z M 12.205205,38.330788 C 9.6527821,32.328472 9.1519667,24.633751 11.1522,22.151998 c 0.787194,-0.976697 0.82349,-0.945359 0.45196,0.390229 -0.799501,2.874082 -0.352607,10.508112 0.836496,14.289364 1.320577,4.199325 1.210581,4.899706 -0.235451,1.499197 z"
         id="path1403" />
    </g>
  </g>
</svg>
