<?xml version="1.0" encoding="UTF-8" standalone="no"?>
<!-- Created with Inkscape (http://www.inkscape.org/) -->

<svg
   width="100mm"
   height="100mm"
   viewBox="0 0 100 100"
   version="1.1"
   id="svg3630"
   inkscape:version="1.1.1 (3bf5ae0d25, 2021-09-20)"
   sodipodi:docname="add_list_type_device_6141.svg"
   xmlns:inkscape="http://www.inkscape.org/namespaces/inkscape"
   xmlns:sodipodi="http://sodipodi.sourceforge.net/DTD/sodipodi-0.dtd"
   xmlns="http://www.w3.org/2000/svg"
   xmlns:svg="http://www.w3.org/2000/svg">
  <sodipodi:namedview
     id="namedview3632"
     pagecolor="#505050"
     bordercolor="#ffffff"
     borderopacity="1"
     inkscape:pageshadow="0"
     inkscape:pageopacity="0"
     inkscape:pagecheckerboard="1"
     inkscape:document-units="mm"
     showgrid="false"
     inkscape:zoom="0.58974467"
     inkscape:cx="397.62971"
     inkscape:cy="228.91262"
     inkscape:window-width="1440"
     inkscape:window-height="890"
     inkscape:window-x="-6"
     inkscape:window-y="-6"
     inkscape:window-maximized="1"
     inkscape:current-layer="layer1" />
  <defs
     id="defs3627" />
  <g
     inkscape:label="Laag 1"
     inkscape:groupmode="layer"
     id="layer1">
    <g
       id="g3646"
       transform="translate(-0.89728568,0.89728102)">
      <path
         style="fill:#d0d0d0;fill-opacity:1;stroke-width:0.59691"
         d="m 45.060166,90.578098 c 0.430894,-0.172429 0.945728,-0.151227 1.144077,0.0471 0.198347,0.198347 -0.154202,0.339427 -0.783444,0.313509 -0.695366,-0.02865 -0.836808,-0.170083 -0.360633,-0.360629 z m 7.759825,0 c 0.430894,-0.172429 0.945728,-0.151227 1.144077,0.0471 0.198347,0.198347 -0.154202,0.339427 -0.783444,0.313509 -0.695366,-0.02865 -0.836808,-0.170083 -0.360633,-0.360629 z m -6.566006,-1.193819 c 0.430894,-0.17243 0.945729,-0.151227 1.144077,0.0471 0.198348,0.198347 -0.154202,0.339427 -0.783444,0.313509 -0.695366,-0.02865 -0.836807,-0.170084 -0.360633,-0.360629 z m 5.372186,0 c 0.430895,-0.17243 0.945729,-0.151227 1.144077,0.0471 0.198348,0.198347 -0.154202,0.339427 -0.783443,0.313509 -0.695366,-0.02865 -0.836808,-0.170084 -0.360634,-0.360629 z m 37.717226,-5.859796 c 1.113702,-1.149051 2.159219,-2.089184 2.323369,-2.089184 0.16415,0 -0.612757,0.940133 -1.726459,2.089184 -1.113702,1.149051 -2.159219,2.089183 -2.323369,2.089183 -0.164151,0 0.612757,-0.940132 1.726459,-2.089183 z M 46.071676,80.248315 c -0.20912,-0.338365 0.03048,-0.438431 0.561682,-0.234592 1.034096,0.39682 1.223299,0.824667 0.364685,0.824667 -0.308925,0 -0.72579,-0.265536 -0.926367,-0.590075 z m 30.13971,-2.359244 c 0,-0.308924 0.265535,-0.725794 0.590075,-0.926368 0.338364,-0.209121 0.43843,0.0305 0.234591,0.56168 -0.396819,1.034098 -0.824666,1.223301 -0.824666,0.364688 z M 95.312493,72.1832 c 0.771058,-0.82075 1.536225,-1.492274 1.700375,-1.492274 0.16415,0 -0.332407,0.671524 -1.103465,1.492274 -0.771058,0.820751 -1.536225,1.492274 -1.700375,1.492274 -0.16415,0 0.332407,-0.671523 1.103465,-1.492274 z M 16.017765,49.79909 c 0,-0.820751 0.135482,-1.156512 0.301073,-0.746137 0.16559,0.410375 0.16559,1.081899 0,1.492274 -0.165591,0.410375 -0.301073,0.07461 -0.301073,-0.746137 z m 30.83313,0.189152 c 0.430894,-0.172429 0.945728,-0.151223 1.144077,0.04713 0.198347,0.198349 -0.154202,0.339428 -0.783444,0.313509 -0.695366,-0.02864 -0.836808,-0.170084 -0.360633,-0.360633 z M 14.776821,47.660164 c 0.02864,-0.695365 0.170084,-0.836807 0.360633,-0.360633 0.17243,0.430894 0.151223,0.945729 -0.04713,1.144077 -0.198348,0.198348 -0.339427,-0.154202 -0.313509,-0.783444 z m 32.670983,0.53735 c 0.430894,-0.17243 0.945729,-0.151224 1.144077,0.04713 0.198348,0.198348 -0.154202,0.339427 -0.783444,0.313508 -0.695365,-0.02864 -0.836807,-0.170084 -0.360633,-0.360633 z m 13.840842,0.182391 c 0,-0.123952 0.470066,-0.594018 1.044592,-1.044592 0.946734,-0.742479 0.967847,-0.721366 0.225369,0.225366 -0.779785,0.994301 -1.269961,1.310503 -1.269961,0.819226 z m 10.071321,-0.819226 c -0.742478,-0.946732 -0.721365,-0.967845 0.225369,-0.225366 0.574526,0.450574 1.044592,0.92064 1.044592,1.044592 0,0.491277 -0.490176,0.175075 -1.269961,-0.819226 z M 51.738092,45.395357 c 0,-0.123952 0.470066,-0.594019 1.044592,-1.044592 0.946732,-0.742479 0.967845,-0.721366 0.225366,0.225366 -0.779784,0.994301 -1.269958,1.310503 -1.269958,0.819226 z m 43.238395,-4.699138 -1.753177,-1.939957 1.939956,1.753178 c 1.808314,1.634208 2.214325,2.126735 1.753177,2.126735 -0.102728,0 -0.975708,-0.87298 -1.939956,-1.939956 z M 64.472162,34.604153 c 0,-0.47801 0.228222,-0.728058 0.507164,-0.555665 0.278936,0.172394 0.352624,0.563492 0.163738,0.869107 -0.482673,0.780986 -0.670902,0.693047 -0.670902,-0.313442 z M 21.892612,22.115882 c 0,-0.123952 0.470066,-0.594018 1.044592,-1.044592 0.946732,-0.742478 0.967844,-0.721366 0.225366,0.225366 -0.779784,0.994301 -1.269958,1.310503 -1.269958,0.819226 z m 53.645722,-0.819226 c -0.742478,-0.946732 -0.721365,-0.967844 0.22537,-0.225366 0.574525,0.450574 1.044591,0.92064 1.044591,1.044592 0,0.491277 -0.490176,0.175075 -1.269961,-0.819226 z M 48.604317,16.57374 c 0.410375,-0.16559 1.081898,-0.16559 1.492274,0 0.410375,0.16559 0.07461,0.301073 -0.746137,0.301073 -0.820751,0 -1.156513,-0.135483 -0.746137,-0.301073 z"
         id="path3662" />
      <path
         style="fill:#b9b9b9;fill-opacity:1;stroke-width:0.59691"
         d="m 46.813588,90.590532 c 0.410375,-0.165589 1.081898,-0.165589 1.492274,0 0.410375,0.165588 0.07461,0.301075 -0.746137,0.301075 -0.820751,0 -1.156513,-0.135487 -0.746137,-0.301075 z m 3.581457,0 c 0.410376,-0.165589 1.081899,-0.165589 1.492274,0 0.410376,0.165588 0.07461,0.301075 -0.746137,0.301075 -0.82075,0 -1.156512,-0.135487 -0.746137,-0.301075 z m 8.953644,-5.420077 c 2.380178,-0.113299 6.275013,-0.113299 8.65519,0 2.380177,0.113305 0.432759,0.206005 -4.327595,0.206005 -4.760354,0 -6.707772,-0.0927 -4.327595,-0.206005 z m 15.668878,-0.153698 c 0,-0.329793 1.53592,-0.592821 3.43223,-0.587771 2.436227,0.0065 3.172401,0.177055 2.536866,0.587771 -1.18218,0.763984 -5.969096,0.763984 -5.969096,0 z m -26.41325,-2.18605 c 0.410375,-0.165589 1.081898,-0.165589 1.492274,0 0.410375,0.165588 0.07461,0.301075 -0.746137,0.301075 -0.820751,0 -1.156513,-0.135487 -0.746137,-0.301075 z M 53.196865,65.31874 c 0,-10.013159 0.08169,-14.109451 0.181525,-9.102872 0.09984,5.00658 0.09984,13.199164 0,18.205743 -0.09984,5.00658 -0.181525,0.910287 -0.181525,-9.102871 z m -6.34597,16.305714 c 0.430894,-0.172429 0.945728,-0.151227 1.144077,0.0471 0.198347,0.198347 -0.154202,0.339427 -0.783444,0.313509 -0.695366,-0.02865 -0.836808,-0.170084 -0.360633,-0.360629 z M 84.56812,76.396797 c 0,-0.473075 0.26861,-1.026147 0.59691,-1.229049 0.3283,-0.202901 0.59691,0.184159 0.59691,0.860135 0,0.675976 -0.26861,1.229049 -0.59691,1.229049 -0.3283,0 -0.59691,-0.38706 -0.59691,-0.860135 z m 5.372187,0 c 0,-0.473075 0.268609,-1.026147 0.596909,-1.229049 0.328301,-0.202901 0.59691,0.184159 0.59691,0.860135 0,0.675976 -0.268609,1.229049 -0.59691,1.229049 -0.3283,0 -0.596909,-0.38706 -0.596909,-0.860135 z m 3.031674,-1.875699 c 0.02865,-0.69537 0.170083,-0.836807 0.360629,-0.360635 0.172429,0.430891 0.151227,0.945726 -0.0471,1.144079 -0.198354,0.198347 -0.339427,-0.154206 -0.313509,-0.783444 z M 48.604317,73.877063 c 0.410375,-0.165589 1.081898,-0.165589 1.492274,0 0.410375,0.165588 0.07461,0.301075 -0.746137,0.301075 -0.820751,0 -1.156513,-0.135487 -0.746137,-0.301075 z M 15.97064,51.838531 c 0.02864,-0.695365 0.170084,-0.836807 0.360633,-0.360633 0.17243,0.430894 0.151223,0.945729 -0.04713,1.144077 -0.198348,0.198348 -0.339427,-0.154202 -0.313509,-0.783444 z m 32.943492,-1.856184 c 0.580773,-0.151343 1.386601,-0.14139 1.790729,0.02211 0.404126,0.16351 -0.07105,0.287336 -1.055953,0.275171 -0.9849,-0.01216 -1.31555,-0.145943 -0.734776,-0.297286 z M 15.97064,47.660164 c 0.02864,-0.695365 0.170084,-0.836807 0.360633,-0.360633 0.17243,0.430894 0.151223,0.945729 -0.04713,1.144077 -0.198348,0.198348 -0.339427,-0.154202 -0.313509,-0.783444 z M 8.2108151,45.869435 c 0.02864,-0.695365 0.170084,-0.836807 0.3606331,-0.360633 0.1724298,0.430894 0.1512234,0.945729 -0.047126,1.144077 C 8.3259739,46.851227 8.1848949,46.498677 8.2108133,45.869435 Z M 73.906849,24.709028 c -0.775051,-0.645678 -1.152441,-1.173961 -0.838652,-1.173961 0.31379,0 1.056697,0.537219 1.650915,1.19382 1.36506,1.508375 1.011797,1.499738 -0.812263,-0.01986 z m -17.19451,-4.430706 c 0,-0.478009 0.228223,-0.728058 0.507161,-0.555664 0.278939,0.172393 0.352623,0.563491 0.163742,0.869107 -0.482676,0.780986 -0.670903,0.693046 -0.670903,-0.313443 z m -9.861444,-3.717017 c 0.430894,-0.17243 0.945728,-0.151224 1.144077,0.04713 0.198347,0.198348 -0.154202,0.339427 -0.783444,0.313508 -0.695366,-0.02864 -0.836808,-0.170084 -0.360633,-0.360633 z m 4.178367,0 c 0.430894,-0.17243 0.945729,-0.151224 1.144077,0.04713 0.198347,0.198348 -0.154202,0.339427 -0.783444,0.313508 -0.695366,-0.02864 -0.836808,-0.170084 -0.360633,-0.360633 z m -1.790729,-1.19382 c 0.430894,-0.17243 0.945729,-0.151223 1.144077,0.04713 0.198348,0.198349 -0.154202,0.339428 -0.783444,0.313509 -0.695366,-0.02864 -0.836807,-0.170084 -0.360633,-0.360633 z m 0,-1.193819 c 0.430894,-0.17243 0.945729,-0.151223 1.144077,0.04713 0.198348,0.198348 -0.154202,0.339427 -0.783444,0.313509 -0.695366,-0.02864 -0.836807,-0.170084 -0.360633,-0.360633 z"
         id="path3660" />
      <path
         style="fill:#a3a3a3;fill-opacity:1;stroke-width:0.59691"
         d="m 46.253985,88.19046 c 0.430894,-0.17243 0.945729,-0.151228 1.144077,0.0471 0.198348,0.198347 -0.154202,0.339426 -0.783444,0.313509 -0.695366,-0.02865 -0.836807,-0.170084 -0.360633,-0.360629 z m 5.372186,0 c 0.430895,-0.17243 0.945729,-0.151228 1.144077,0.0471 0.198348,0.198347 -0.154202,0.339426 -0.783443,0.313509 -0.695366,-0.02865 -0.836808,-0.170084 -0.360634,-0.360629 z m 29.248571,-2.984549 c 0.430891,-0.172429 0.945726,-0.151227 1.144079,0.0471 0.198347,0.198347 -0.154206,0.339426 -0.783444,0.313509 -0.69537,-0.02865 -0.836808,-0.170084 -0.360635,-0.360629 z M 46.216678,82.830707 c 0.410376,-0.165589 1.081899,-0.165589 1.492274,0 0.410376,0.165588 0.07461,0.301075 -0.746137,0.301075 -0.820751,0 -1.156512,-0.135487 -0.746137,-0.301075 z M 74.088704,65.31874 c 0,-10.013159 0.08168,-14.109451 0.18152,-9.102872 0.09984,5.00658 0.09984,13.199164 0,18.205743 -0.09984,5.00658 -0.18152,0.910287 -0.18152,-9.102871 z m 1.28061,17.396608 c -0.173594,-0.280876 0.347777,-0.383867 1.158589,-0.228873 0.810818,0.154999 1.474212,0.384804 1.474212,0.510686 0,0.461859 -2.327136,0.212762 -2.632801,-0.281813 z M 48.604317,81.636887 c 0.410375,-0.165588 1.081898,-0.165588 1.492274,0 0.410375,0.165589 0.07461,0.301076 -0.746137,0.301076 -0.820751,0 -1.156513,-0.135487 -0.746137,-0.301076 z m 28.800888,-2.217686 c 0,-0.123948 0.470066,-0.594014 1.044592,-1.044592 0.946734,-0.742478 0.967847,-0.721365 0.225369,0.22537 -0.779785,0.994302 -1.269961,1.310503 -1.269961,0.819222 z m 0,-4.775277 c 0,-0.123948 0.470066,-0.594014 1.044592,-1.044591 0.946734,-0.742478 0.967847,-0.721366 0.225369,0.225369 -0.779785,0.994302 -1.269961,1.310503 -1.269961,0.819222 z m -30.55431,-0.779295 c 0.430894,-0.172429 0.945728,-0.151227 1.144077,0.0471 0.198347,0.198353 -0.154202,0.339427 -0.783444,0.313509 -0.695366,-0.02865 -0.836808,-0.170083 -0.360633,-0.360629 z m 28.912809,0.01242 c -0.410376,-0.165589 -0.746137,-0.58019 -0.746137,-0.92133 0,-0.41117 0.266371,-0.39919 0.790183,0.03552 0.578483,0.4801 1.010556,0.459698 1.612718,-0.07614 0.694642,-0.618136 0.699632,-0.569523 0.03211,0.312655 -0.434741,0.574526 -0.824703,1.023384 -0.866576,0.997466 -0.0419,-0.02591 -0.411903,-0.182606 -0.822279,-0.348195 z M 86.813491,73.25329 c 0.742502,-0.142775 1.816939,-0.137355 2.387639,0.01206 0.570699,0.1494 -0.03683,0.266221 -1.350007,0.259596 -1.313201,-0.0066 -1.780134,-0.128867 -1.037632,-0.271642 z M 48.604317,72.683243 c 0.410375,-0.165588 1.081898,-0.165588 1.492274,0 0.410375,0.165589 0.07461,0.301076 -0.746137,0.301076 -0.820751,0 -1.156513,-0.135487 -0.746137,-0.301076 z m -18.43111,-1.24618 c -0.742478,-0.946734 -0.721365,-0.967847 0.225367,-0.225369 0.574525,0.450577 1.044591,0.920644 1.044591,1.044592 0,0.49128 -0.490173,0.175079 -1.269958,-0.819223 z m -0.552904,-2.387638 -2.05705,-2.238411 2.238411,2.057052 c 1.231126,1.131376 2.238411,2.138661 2.238411,2.238411 0,0.455812 -0.505114,0.02644 -2.419772,-2.057052 z M 26.02819,68.550188 c -0.455607,-0.548972 -0.372079,-0.711457 0.313974,-0.610764 1.350484,0.198204 2.402341,1.358715 1.231509,1.358715 -0.508606,0 -1.204073,-0.336579 -1.545483,-0.747951 z m 69.975459,-2.037629 c 0,-0.820751 0.135486,-1.156512 0.301075,-0.746137 0.165589,0.410375 0.165589,1.081899 0,1.492274 -0.165589,0.410375 -0.301075,0.07461 -0.301075,-0.746137 z M 26.318452,65.236247 C 26.061009,64.8197 26.144318,64.6967 26.524679,64.931775 c 0.350985,0.216923 0.774196,0.05694 0.940467,-0.355453 0.216379,-0.536706 0.315708,-0.547778 0.349438,-0.03898 0.06809,1.02721 -0.988248,1.520651 -1.496132,0.698874 z m 9.017365,-1.097251 c -0.58721,-0.648859 -1.341866,-1.01027 -1.677016,-0.803136 -0.362372,0.22396 -0.425485,0.07908 -0.155708,-0.357424 0.33362,-0.539803 0.83184,-0.378739 1.882956,0.608735 0.786117,0.738514 1.429303,1.430243 1.429303,1.537161 0,0.442346 -0.47194,0.128043 -1.479535,-0.985336 z M 8.2579399,51.589819 c 0,-0.820751 0.1354824,-1.156512 0.3010728,-0.746137 0.1655899,0.410375 0.1655899,1.081899 0,1.492274 -0.1655904,0.410375 -0.3010728,0.07461 -0.3010728,-0.746137 z m 8.9536441,0 c 0,-0.820751 0.135482,-1.156512 0.301073,-0.746137 0.16559,0.410375 0.16559,1.081899 0,1.492274 -0.165591,0.410375 -0.301073,0.07461 -0.301073,-0.746137 z m 57.842287,-0.59691 c 0,-1.704417 0.112052,-1.8968 0.608418,-1.044591 0.413282,0.709567 0.413282,1.379615 0,2.089183 -0.496366,0.852209 -0.608418,0.659826 -0.608418,-1.044592 z m -48.935768,0.248713 c 0.02864,-0.695366 0.170084,-0.836808 0.360633,-0.360633 0.17243,0.430894 0.151224,0.945728 -0.04713,1.144077 -0.198348,0.198347 -0.339427,-0.154202 -0.313509,-0.783444 z M 13.652244,48.306816 c 0.01216,-0.984901 0.145943,-1.31555 0.297286,-0.734777 0.151343,0.580774 0.14139,1.386602 -0.02211,1.790729 -0.16351,0.404127 -0.287336,-0.07105 -0.275171,-1.055952 z m 33.310571,1.263405 c 0,-0.125877 0.663395,-0.355684 1.474211,-0.510682 0.810815,-0.154997 1.332181,-0.05201 1.158591,0.228869 -0.305666,0.494577 -2.632802,0.743672 -2.632802,0.281813 z M 8.2579399,48.008361 c 0,-0.82075 0.1354824,-1.156512 0.3010728,-0.746137 0.1655899,0.410376 0.1655899,1.081899 0,1.492274 -0.1655904,0.410376 -0.3010728,0.07461 -0.3010728,-0.746137 z m 8.9536441,0 c 0,-0.82075 0.135482,-1.156512 0.301073,-0.746137 0.16559,0.410376 0.16559,1.081899 0,1.492274 -0.165591,0.410376 -0.301073,0.07461 -0.301073,-0.746137 z m 8.906519,0.248713 c 0.02864,-0.695366 0.170084,-0.836808 0.360633,-0.360633 0.17243,0.430894 0.151224,0.945728 -0.04713,1.144077 -0.198348,0.198347 -0.339427,-0.154202 -0.313509,-0.783444 z m 21.590849,-0.660178 c 0.574526,-0.150139 1.514658,-0.150139 2.089184,0 0.574525,0.150139 0.104459,0.27298 -1.044592,0.27298 -1.149051,0 -1.619117,-0.122841 -1.044592,-0.27298 z m 48.247577,-1.130551 c 0.02865,-0.695366 0.170083,-0.836808 0.360629,-0.360633 0.172429,0.430894 0.151227,0.945729 -0.0471,1.144077 -0.198354,0.198348 -0.339427,-0.154202 -0.313509,-0.783444 z M 40.91758,45.173041 c -0.742478,-0.946732 -0.721366,-0.967845 0.225367,-0.225367 0.574525,0.450574 1.044591,0.92064 1.044591,1.044592 0,0.491277 -0.490173,0.175076 -1.269958,-0.819225 z m 18.159937,0.0035 c 2.55933,-0.112161 6.58847,-0.111477 8.953646,0.0015 2.365171,0.112997 0.271171,0.204766 -4.653334,0.20393 -4.924504,-8.36e-4 -6.859644,-0.09329 -4.300312,-0.205451 z m 3.330334,-10.001757 c -0.04101,-0.16415 -0.112302,-0.499912 -0.158366,-0.746137 -0.04608,-0.246225 -0.320505,-0.850596 -0.609868,-1.343047 -0.426397,-0.725671 -0.374901,-0.755098 0.271707,-0.15527 0.753974,0.699421 1.346097,2.542909 0.816781,2.542909 -0.135104,0 -0.279216,-0.134305 -0.320254,-0.298455 z M 16.879349,33.780371 c -0.15192,-0.245811 0.242392,-0.485996 0.876248,-0.533742 1.370842,-0.103263 1.491442,0.178099 0.276218,0.644424 -0.481936,0.184937 -1.000546,0.13513 -1.152466,-0.110682 z m 11.366843,-2.027767 c 0.182583,-0.295426 0.484731,-0.384376 0.671439,-0.197667 0.186709,0.186708 0.898487,-0.131183 1.58173,-0.706424 1.224489,-1.030934 1.227282,-1.028106 0.195187,0.197667 -1.006864,1.195807 -3.129285,1.808189 -2.448356,0.706424 z m 2.600064,0.510741 c 0,-0.123952 0.470066,-0.594018 1.044592,-1.044591 0.946732,-0.742479 0.967844,-0.721366 0.225366,0.225366 -0.779784,0.994301 -1.269958,1.310502 -1.269958,0.819225 z m 8.953644,-0.0092 c 0,-0.129025 0.416865,-0.394558 0.926367,-0.590072 0.531204,-0.203843 0.770802,-0.103773 0.561681,0.234592 -0.35054,0.567188 -1.488048,0.838927 -1.488048,0.355483 z m 27.0599,-3.022153 c 0,-0.47801 0.228222,-0.728058 0.507164,-0.555665 0.278936,0.172394 0.352625,0.563492 0.163739,0.869107 -0.482674,0.780958 -0.670903,0.693019 -0.670903,-0.31347 z M 25.03196,26.76963 c 0.572893,-0.683243 0.900242,-1.383641 0.727442,-1.556441 -0.1728,-0.1728 0.05046,-0.616804 0.496122,-0.986675 1.5722,-1.304811 0.876901,1.019482 -0.727441,2.43174 -1.307283,1.150765 -1.381637,1.167457 -0.496123,0.111376 z m 47.552788,-0.644721 c -0.795901,-0.873689 -1.04418,-1.347869 -0.551729,-1.053732 0.49245,0.294137 1.138366,0.538906 1.43537,0.543934 0.297005,0.005 0.608997,0.479206 0.693323,1.053732 0.199105,1.35662 0.133892,1.334125 -1.576964,-0.543934 z m -25.733853,0.583859 c 0.430894,-0.17243 0.945728,-0.151224 1.144077,0.04713 0.198347,0.198348 -0.154202,0.339427 -0.783444,0.313509 -0.695366,-0.02864 -0.836808,-0.170084 -0.360633,-0.360633 z m 4.178367,0 c 0.430894,-0.17243 0.945729,-0.151224 1.144077,0.04713 0.198347,0.198348 -0.154202,0.339427 -0.783444,0.313509 -0.695366,-0.02864 -0.836808,-0.170084 -0.360633,-0.360633 z m 17.376629,-0.935289 c -0.322283,-1.053067 -0.378172,-2.264313 -0.09123,-1.977375 0.4356,0.435603 0.739786,2.126602 0.382541,2.126602 -0.135104,0 -0.266192,-0.06715 -0.29131,-0.149227 z M 29.976382,24.770132 c -0.18888,-0.305615 -0.115196,-0.696714 0.163742,-0.869107 0.278939,-0.172393 0.507162,0.07766 0.507162,0.555664 0,1.00649 -0.188228,1.094429 -0.670904,0.313443 z M 20.06975,20.972216 c 1.131377,-1.216834 2.185484,-2.212425 2.34246,-2.212425 0.156976,0 -0.301087,0.624298 -1.017917,1.387329 -0.716831,0.763032 -1.099415,1.636012 -0.850187,1.939956 0.249227,0.303945 0.209246,0.3535 -0.08885,0.110124 -0.298094,-0.243377 -0.969617,-0.120766 -1.492274,0.272469 -0.522657,0.393235 -0.02461,-0.280618 1.106765,-1.497453 z m 59.418622,1.359295 c -0.206209,-0.333655 -0.692129,-0.424895 -1.079822,-0.202755 -0.387686,0.222141 -0.500974,0.179297 -0.251746,-0.09521 0.249227,-0.274505 -0.151138,-1.19055 -0.8897,-2.035656 -0.738562,-0.845107 -0.338107,-0.610885 0.889903,0.520493 1.22801,1.131378 2.232746,2.138663 2.232746,2.238411 0,0.403112 -0.549694,0.143759 -0.901381,-0.425286 z M 46.813588,17.767559 c 0.410375,-0.16559 1.081898,-0.16559 1.492274,0 0.410375,0.165591 0.07461,0.301073 -0.746137,0.301073 -0.820751,0 -1.156513,-0.135482 -0.746137,-0.301073 z m 3.581457,0 c 0.410376,-0.16559 1.081899,-0.16559 1.492274,0 0.410376,0.165591 0.07461,0.301073 -0.746137,0.301073 -0.82075,0 -1.156512,-0.135482 -0.746137,-0.301073 z M 46.813588,8.8139151 c 0.410375,-0.1655899 1.081898,-0.1655899 1.492274,0 0.410375,0.1655905 0.07461,0.3010728 -0.746137,0.3010728 -0.820751,0 -1.156513,-0.1354823 -0.746137,-0.3010728 z m 3.581457,0 c 0.410376,-0.1655899 1.081899,-0.1655899 1.492274,0 0.410376,0.1655905 0.07461,0.3010728 -0.746137,0.3010728 -0.82075,0 -1.156512,-0.1354823 -0.746137,-0.3010728 z"
         id="path3658" />
      <path
         style="fill:#8c8c8c;fill-opacity:1;stroke-width:0.59691"
         d="m 17.164459,91.831477 c 0.02864,-0.69537 0.170084,-0.836808 0.360633,-0.360635 0.17243,0.430891 0.151224,0.945726 -0.04713,1.144079 -0.198348,0.198347 -0.339427,-0.154206 -0.313509,-0.783444 z m 22.855437,-2.295309 c -3.300641,-0.752225 -7.382911,-2.403611 -7.382911,-2.986583 0,-0.124987 0.537218,-0.08676 1.193819,0.08495 1.385679,0.362366 1.650799,-0.882973 0.298455,-1.401914 -0.492451,-0.188975 -0.895365,-0.59291 -0.895365,-0.897632 0,-0.339541 0.404432,-0.340812 1.044592,-0.0036 4.095593,2.159404 7.295278,2.678692 18.653425,3.027317 l 11.639738,0.357268 -3.283003,1.094392 c -4.410139,1.470129 -16.23201,1.873383 -21.26875,0.725496 z m 13.362623,-0.481491 c -0.160625,-0.481879 -1.557668,-0.737362 -4.032065,-0.737362 -2.474398,0 -3.871441,0.255483 -4.032066,0.737362 -0.179826,0.539475 0.902238,0.737357 4.032066,0.737357 3.129827,0 4.211892,-0.197882 4.032065,-0.737357 z M 41.889084,85.329514 c -4.679753,-1.027246 -8.482054,-2.582058 -8.885494,-3.633407 -0.263644,-0.687043 -0.113738,-0.709917 0.822153,-0.125441 0.629523,0.393143 1.35826,0.486744 1.619416,0.207999 0.261156,-0.278744 0.177159,-0.614023 -0.186661,-0.745068 -0.363819,-0.131046 -1.169647,-0.653413 -1.790729,-1.160828 -1.098844,-0.897734 -1.097106,-0.910586 0.06458,-0.477582 6.035733,2.249777 9.620066,3.241536 13.430466,3.716115 l 4.476822,0.557585 -3.43223,0.07703 c -1.887727,0.04236 -3.43223,0.345635 -3.43223,0.673935 0,0.539797 3.477234,0.896779 6.118323,0.628128 0.574526,-0.05844 1.044592,0.179234 1.044592,0.52817 0,0.863728 -5.407463,0.728319 -9.849008,-0.246631 z m 44.668733,-2.375683 c 0,-0.478011 0.228222,-0.728056 0.507164,-0.555663 0.278936,0.172394 0.352625,0.563489 0.163739,0.869106 -0.482674,0.780985 -0.670903,0.693048 -0.670903,-0.313443 z m -10.197204,-1.33309 c 0.574526,-0.150135 1.514658,-0.150135 2.089184,0 0.574525,0.150141 0.104459,0.272985 -1.044592,0.272985 -1.149051,0 -1.619117,-0.122844 -1.044592,-0.272985 z M 40.39681,80.309683 c -1.805652,-0.583784 -4.401909,-1.637663 -5.76946,-2.341957 -2.833238,-1.459128 -6.883307,-5.4593 -6.519487,-6.439162 0.353813,-0.952919 -2.2823,-4.038834 -3.191299,-3.735837 -0.536688,0.1789 -0.250807,0.881654 0.937221,2.303892 1.37104,1.641323 1.447927,1.865104 0.38837,1.130338 -1.915614,-1.328416 -3.539407,-3.557701 -5.466714,-7.505195 -2.358727,-4.831127 -3.16557,-8.591691 -3.141552,-14.642267 0.0535,-13.478486 8.801496,-25.220615 22.136296,-29.712785 5.534668,-1.864494 13.965057,-1.796065 19.586808,0.158987 8.078526,2.809434 14.946103,8.822719 18.635834,16.317624 1.699222,3.45161 1.817709,4.03522 1.199537,5.908298 -0.725633,2.19869 -1.787159,2.802728 -1.787159,1.016943 0,-0.583787 -0.939763,-3.022392 -2.088366,-5.419122 C 72.46376,31.396066 67.612724,26.60322 61.47278,23.671451 56.860757,21.469249 56.73349,21.445884 49.350454,21.445884 c -7.383037,0 -7.510304,0.02336 -12.122329,2.225567 -6.286051,3.001536 -11.014383,7.732721 -13.989927,13.998372 -1.979746,4.168783 -2.234448,5.258113 -2.442902,10.448012 -0.448098,11.156343 3.864602,19.869909 12.693998,25.64751 4.182827,2.737069 10.059886,4.685406 14.133306,4.685406 1.691117,0 2.921673,0.271069 2.921673,0.643588 0,0.378536 -0.89864,0.56291 -2.182028,0.447682 -1.313897,-0.117961 -2.279076,0.08732 -2.425957,0.515963 -0.160419,0.46815 0.739886,0.788941 2.629709,0.936999 2.460979,0.192802 2.316476,0.235976 -1.006272,0.300621 -2.291533,0.04459 -5.223926,-0.359035 -7.162915,-0.985921 z m -1.790729,-2.345288 c 0,-0.772658 -4.094099,-2.52054 -4.471934,-1.909191 -0.186321,0.301475 0.407881,0.953043 1.320447,1.447941 1.853894,1.005387 3.151487,1.1953 3.151487,0.46125 z M 21.060669,59.21907 c -0.387673,-1.938367 -1.29148,-3.317159 -1.824814,-2.783826 -0.465259,0.465259 1.010502,4.705129 1.637701,4.705129 0.325137,0 0.405774,-0.827998 0.187113,-1.921303 z M 19.848032,46.488255 c 0.435243,-2.320042 -0.08739,-3.429054 -0.963284,-2.044065 -0.729686,1.153801 -0.732383,4.161081 -0.0037,4.161081 0.313424,0 0.748581,-0.952658 0.967016,-2.117016 z m 4.013551,-11.91036 c 0.776867,-1.629105 0.822312,-2.089183 0.206368,-2.089183 -0.67226,0 -1.19179,0.730402 -2.653611,3.730685 -0.119967,0.246225 0.157426,0.447682 0.616429,0.447682 0.459004,0 1.28287,-0.940133 1.830814,-2.089184 z m 52.946712,0.874364 c 0,-0.89832 -1.836553,-3.560457 -2.456289,-3.560457 -0.806096,0 -0.632867,1.076172 0.435756,2.707094 0.991211,1.512776 2.020533,1.947506 2.020533,0.853363 z M 32.62191,25.045505 c 0.430157,-0.518307 0.624988,-1.099494 0.432957,-1.291525 -0.529451,-0.529451 -4.063881,2.178296 -3.671678,2.812893 0.403909,0.65354 2.091696,-0.139287 3.238721,-1.521368 z m 36.09216,0.935363 c 0.425555,-0.688561 -3.302576,-3.078855 -4.066089,-2.606977 -0.315204,0.194806 0.210202,0.980954 1.167561,1.746994 1.90641,1.525434 2.397249,1.671064 2.898528,0.859983 z M 43.306744,20.774361 c 2.202729,-0.440547 2.493513,-1.417661 0.421888,-1.417661 -1.827528,0 -3.331822,0.567835 -3.331822,1.257682 0,0.632019 0.4312,0.655725 2.909934,0.159979 z m 14.104595,-0.228058 c 0.383681,-0.620809 -0.03752,-0.835956 -2.837926,-1.449574 -1.202454,-0.26348 -1.641502,-0.127765 -1.641502,0.507406 0,0.487692 0.718242,0.975893 1.641502,1.115755 0.902825,0.136766 1.827105,0.288913 2.053955,0.338103 0.226851,0.04919 0.579637,-0.18107 0.783971,-0.51169 z m 18.203137,58.221634 c 0,-0.482142 0.348655,-0.742836 0.774789,-0.579313 0.882286,0.338567 3.816909,-2.508059 3.210621,-3.114346 -0.218146,-0.218152 -0.9355,0.09103 -1.594112,0.687067 -1.613668,1.460351 -1.520789,0.558278 0.145568,-1.413828 1.458638,-1.726269 3.43223,-1.813967 3.43223,-0.152505 0,1.156573 -4.134303,5.449558 -5.248124,5.449558 -0.396534,0 -0.720972,-0.394485 -0.720972,-0.876633 z M 43.058159,76.424315 c -6.888736,-1.67358 -13.6518,-6.716397 -17.412617,-12.98356 -7.006914,-11.676579 -3.743124,-27.3213 7.444818,-35.686165 5.187822,-3.878767 8.962862,-5.05157 16.260094,-5.05157 5.1058,0 6.902692,0.250633 9.694087,1.352146 11.985526,4.729607 19.193968,17.011366 17.432905,29.702222 -0.454433,3.274772 -0.509056,3.366917 -0.838174,1.413889 -0.193632,-1.149051 -0.07697,-2.869844 0.259256,-3.823984 0.427661,-1.21363 0.418857,-1.800809 -0.02931,-1.954525 C 75.516875,49.271918 75.34044,48.411002 75.477138,47.47962 75.65682,46.25536 75.316665,45.377181 74.249343,44.309862 73.437362,43.497876 72.572219,42.18475 72.326817,41.391803 70.86344,36.663401 64.99318,30.209266 59.944631,27.77805 55.673556,25.721239 50.149892,24.946377 45.471497,25.747752 c -5.119738,0.876974 -8.865922,2.750168 -12.671883,6.336283 -5.747052,5.415084 -8.364952,12.09278 -7.727458,19.711069 0.635582,7.595432 5.723508,15.535466 12.22119,19.071946 3.207653,1.745824 8.784239,3.361628 12.033284,3.486621 1.458028,0.05611 1.686029,0.162873 0.735554,0.344483 -0.757597,0.14475 -1.266949,0.578238 -1.131894,0.963298 0.135055,0.385067 0.687754,0.621186 1.22822,0.52472 0.540467,-0.09647 0.982666,0.10499 0.982666,0.447682 0,0.82038 -4.302843,0.70883 -8.083023,-0.209539 z m -1.46753,-2.041377 c 0,-0.849134 -4.094857,-2.519317 -4.513995,-1.841138 -0.434626,0.703243 -0.464442,0.67258 1.529447,1.572886 1.810705,0.817593 2.984548,0.923097 2.984548,0.268252 z M 29.844702,65.656065 c -1.010308,-1.387444 -2.579904,-2.066489 -2.579904,-1.116125 0,0.228264 0.734314,1.181481 1.631809,2.118265 1.876231,1.958359 2.569936,1.225115 0.948095,-1.00214 z M 24.87716,56.439709 c 0,-1.520417 -0.814975,-4.25298 -1.268433,-4.25298 -0.597963,0 -0.699257,2.425755 -0.159978,3.831093 0.383204,0.998613 1.428411,1.30732 1.428411,0.421887 z m 0.361876,-14.26987 c 0.514566,-2.572827 -0.7523,-2.556541 -1.450998,0.01865 -0.28949,1.066976 -0.401158,2.164818 -0.24815,2.439648 0.452183,0.812206 1.286447,-0.394794 1.699148,-2.458302 z m 48.321725,-3.643445 c -0.52882,-1.022623 -1.223199,-1.859315 -1.543071,-1.859315 -0.770712,0 -0.741213,0.253195 0.327482,2.810948 0.641505,1.535333 1.09567,1.98909 1.543071,1.541688 0.447402,-0.447402 0.351013,-1.18125 -0.327482,-2.493321 z M 31.255467,32.384662 c 1.51189,-1.420347 1.769844,-2.283589 0.682382,-2.283589 -0.991034,0 -2.882322,1.823233 -2.882322,2.778607 0,1.136637 0.608984,0.999607 2.19994,-0.495018 z m 36.002275,-2.038681 c 0,-0.586334 -2.634067,-2.591444 -3.43223,-2.612688 -1.170313,-0.03115 -0.876019,0.937746 0.596909,1.96521 1.364207,0.951622 2.835321,1.287567 2.835321,0.647478 z M 41.999905,25.616415 c 2.614245,-1.092301 2.235647,-1.777547 -0.679898,-1.230587 -1.272533,0.238728 -2.117017,0.743528 -2.117017,1.265471 0,1.07911 0.134776,1.077429 2.796915,-0.03488 z m 13.770929,-1.036756 c -0.292144,-0.889308 -4.629652,-1.379645 -4.629652,-0.523363 0,0.518056 1.150962,0.851042 4.078883,1.180064 0.437734,0.04919 0.685579,-0.246325 0.550769,-0.656701 z m 20.161741,47.707774 c 0.133183,-1.420759 0.617975,-3.307608 1.077321,-4.192998 l 0.835172,-1.609793 0.391381,2.447544 c 0.32996,2.063445 0.160891,2.721454 -1.07732,4.192991 l -1.468702,1.745454 z M 42.338929,71.609976 C 38.537557,70.422454 33.965871,67.245224 31.41487,64.017966 24.037855,54.685338 25.139992,40.709804 33.875364,32.81792 c 10.679387,-9.648184 28.154793,-7.012242 35.224518,5.313169 1.894693,3.303223 2.530342,6.376001 0.862935,4.171491 -0.792977,-1.04841 -0.878186,-1.059268 -0.895365,-0.114087 -0.03152,1.733886 -0.92475,1.177951 -1.74297,-1.084787 -1.191366,-3.294666 -6.548814,-8.274484 -10.487257,-9.748045 -4.169954,-1.560179 -11.311691,-1.734189 -13.324098,-0.324643 -0.730226,0.51147 -1.541494,0.797803 -1.802818,0.636296 -0.261324,-0.161508 -0.865224,-0.01742 -1.342,0.320182 -0.680922,0.482165 -0.618292,0.532349 0.291985,0.233958 0.911074,-0.298652 0.820517,-0.06632 -0.423541,1.086636 -1.860648,1.724391 -2.51504,3.861655 -1.988481,6.494446 0.342423,1.71212 0.299769,1.78862 -0.436135,0.782211 -0.511737,-0.699842 -1.104526,-0.936988 -1.590852,-0.636423 -0.61066,0.37741 -0.705535,-0.141627 -0.447045,-2.445673 l 0.328128,-2.924756 -2.02928,2.387639 c -3.215807,3.783699 -4.562194,8.065601 -4.316876,13.728921 0.153554,3.544888 0.58172,5.540258 1.661763,7.744257 2.982709,6.086687 9.054961,10.310969 15.685981,10.912248 1.892174,0.171575 3.440317,0.543259 3.440317,0.825961 0,0.282703 -0.402914,0.514005 -0.895365,0.514005 -1.401809,0 -1.048321,1.081326 0.447683,1.369472 0.738675,0.142273 -0.134305,0.277288 -1.939957,0.300037 -1.805651,0.02274 -4.423618,-0.31496 -5.817705,-0.750459 z m 2.236248,-0.933823 c 0,-0.649766 -2.48502,-1.775956 -3.918771,-1.775956 -1.442963,0 -0.951967,1.059467 0.784995,1.693863 2.185828,0.798331 3.133776,0.823162 3.133776,0.08209 z m -10.764232,-6.70046 c -0.02651,-0.996176 -2.09272,-3.43223 -2.911142,-3.43223 -0.931802,0 -0.818003,0.418631 0.655616,2.411807 1.374163,1.858657 2.28885,2.272471 2.255526,1.020423 z M 28.503386,52.619488 c -0.02462,-0.238018 -0.04477,-1.238587 -0.04477,-2.223488 0,-0.984901 -0.268609,-1.790729 -0.596909,-1.790729 -0.3283,0 -0.59691,1.096821 -0.59691,2.437381 0,1.472994 0.25389,2.352751 0.641678,2.223488 0.352923,-0.117641 0.621532,-0.408634 0.59691,-0.646652 z m 3.582042,-14.274683 c 0.349604,-0.635433 0.336828,-1.143071 -0.03454,-1.372591 -0.7247,-0.44789 -3.073011,3.264673 -2.574851,4.070712 0.345239,0.558609 1.440924,-0.574332 2.609396,-2.698121 z m 33.381585,-3.280756 c 0,-0.751285 -2.584893,-3.172247 -3.38705,-3.172247 -1.280389,0 -0.912299,1.003983 0.850184,2.318942 1.706893,1.27348 2.536866,1.552652 2.536866,0.853305 z m -25.040561,-4.08294 c 1.485781,-0.768327 2.419281,-2.073855 1.482883,-2.073855 -0.760843,0 -4.497073,2.075533 -4.497073,2.498193 0,0.735916 1.058734,0.586867 3.01419,-0.424338 z m 13.959077,-2.011308 c 0.402448,-0.651175 -1.040103,-1.256366 -2.994711,-1.256366 -1.819852,0 -1.894918,1.023832 -0.100408,1.36947 2.335896,0.449913 2.756658,0.434537 3.095119,-0.113104 z M 12.121977,66.580141 C 7.0738855,55.331498 7.5615225,41.642252 13.410452,30.409278 c 2.971878,-5.707544 10.842645,-13.578312 16.55019,-16.55019 12.268536,-6.388139 26.511087,-6.388139 38.779626,0 6.36308,3.313213 13.694414,10.877395 16.989426,17.529036 2.536084,5.119591 2.694122,6.491742 0.743153,6.452441 -0.665298,-0.0134 -1.81762,-1.692041 -3.38049,-4.924504 C 80.168473,26.868629 73.705106,20.033286 67.854651,16.801398 56.626263,10.598654 42.041709,10.6018 30.846256,16.80938 c -4.970195,2.75584 -11.729673,9.515318 -14.485513,14.485512 -5.744602,10.360468 -6.156818,25.176383 -0.98265,35.318593 0.725371,1.421838 1.34629,2.689543 1.379821,2.817114 0.03354,0.127572 -0.65055,0.307809 -1.520181,0.400527 -1.401121,0.149388 -1.755876,-0.220767 -3.115756,-3.250985 z m 1.257879,-2.753675 c -0.352654,-1.149051 -1.027773,-2.089184 -1.500266,-2.089184 -0.584052,0 -0.721404,0.334413 -0.429037,1.044592 0.236521,0.574526 0.565197,1.514658 0.73039,2.089184 0.165194,0.574525 0.646795,1.044591 1.070227,1.044591 0.604049,0 0.631767,-0.449998 0.128686,-2.089183 z M 10.551329,48.868498 c 0,-1.662215 -0.23231,-2.577745 -0.5969093,-2.352411 -0.3283003,0.202901 -0.5969096,1.427495 -0.5969096,2.721321 0,1.293826 0.2686093,2.352411 0.5969096,2.352411 0.3283003,0 0.5969093,-1.224595 0.5969093,-2.721321 z m 3.274993,-14.3635 c 1.066765,-2.553128 1.074162,-2.613196 0.321794,-2.613196 -0.615275,0 -2.402968,3.086453 -2.402968,4.148725 0,1.400942 1.234947,0.489775 2.081174,-1.535529 z m 73.129437,1.237074 c 0,-0.180454 -0.409815,-1.120586 -0.910693,-2.089184 -0.973518,-1.882575 -2.506913,-2.502751 -1.771544,-0.716494 0.236525,0.574525 0.565201,1.514658 0.73039,2.089183 0.266765,0.927778 1.951847,1.546347 1.951847,0.716495 z M 22.48731,22.045147 c 0.76984,-0.819456 1.237947,-1.651681 1.040239,-1.849389 -0.504539,-0.504539 -3.384134,1.687269 -3.406908,2.593172 -0.02912,1.15846 0.834622,0.887006 2.366669,-0.743783 z m 56.092959,0.743783 c -0.02278,-0.905903 -2.902371,-3.097711 -3.406909,-2.593172 -0.405528,0.405524 2.171121,3.339309 2.932802,3.339309 0.271075,0 0.484422,-0.335761 0.474107,-0.746137 z M 34.93555,13.926121 c 1.93402,-0.674203 2.552482,-1.732336 1.012524,-1.732336 -1.233914,0 -3.907999,1.290884 -3.907999,1.886542 0,0.666003 0.640469,0.631894 2.895475,-0.154206 z m 31.372885,0.145678 c 0.343426,-0.555677 -2.160127,-1.878014 -3.5556,-1.878014 -1.452012,0 -0.968754,1.057272 0.774222,1.693862 2.127475,0.77702 2.403659,0.795305 2.781378,0.184152 z M 51.738092,10.403056 c 0,-0.3283 -1.074437,-0.5969094 -2.387638,-0.5969094 -1.313202,0 -2.387639,0.2686094 -2.387639,0.5969094 0,0.3283 1.074437,0.59691 2.387639,0.59691 1.313201,0 2.387638,-0.26861 2.387638,-0.59691 z M 20.026009,69.635077 C 18.740689,69.468599 18.126008,68.71115 16.617902,65.4354 13.791559,59.296303 12.75522,54.022325 13.134838,47.709906 14.058901,32.344239 23.81622,20.029151 39.20299,14.808287 c 4.608668,-1.56376 15.686259,-1.56376 20.294927,0 9.658135,3.277088 17.514718,9.628646 21.654179,17.506044 1.222214,2.325878 2.222205,4.630918 2.222205,5.122311 0,0.711633 -1.146854,1.618075 -2.047227,1.618075 -0.08737,0 -1.154274,-2.014076 -2.370883,-4.475725 -3.841245,-7.77223 -10.922324,-13.697628 -20.055184,-16.782043 -4.554989,-1.538344 -14.546118,-1.538344 -19.101107,0 -11.169474,3.772234 -18.706436,11.311598 -22.444433,22.451587 -2.527456,7.532333 -1.020864,19.607766 3.293022,26.393779 1.906792,2.999501 1.841805,3.311947 -0.62248,2.992762 z m -2.311764,-6.974346 c 0,-0.761555 -1.452634,-3.311087 -1.886542,-3.311087 -0.589027,0 -0.612411,0.41917 -0.124873,2.238411 0.197957,0.738675 0.731508,1.343046 1.185668,1.343046 0.454161,0 0.825747,-0.121668 0.825747,-0.27037 z M 15.326606,47.958619 c 0,-2.283756 -1.406047,-2.078845 -1.681149,0.245003 -0.133857,1.130708 0.08349,1.595468 0.746137,1.595468 0.646578,0 0.935012,-0.56775 0.935012,-1.840471 z M 82.113246,35.86252 c -0.70495,-1.547202 -1.723493,-2.146602 -1.723493,-1.014256 0,1.285604 1.432314,3.609815 1.922497,3.119631 0.298454,-0.298455 0.213168,-1.200759 -0.199004,-2.105375 z M 18.420913,35.172282 c 0.70473,-1.546713 0.265512,-2.729006 -0.649527,-1.748412 -0.28593,0.306414 -0.702468,1.161487 -0.925641,1.900162 -0.561094,1.857157 0.715903,1.734132 1.575168,-0.15175 z M 75.614476,26.01522 c 0,-0.74219 -2.337032,-2.729731 -2.738114,-2.328646 -0.567315,0.567317 0.923217,2.833042 1.863749,2.833042 0.4809,0 0.874365,-0.226979 0.874365,-0.504396 z M 27.132599,23.63321 c 0.127426,-0.382279 -0.151983,-0.695052 -0.620909,-0.695052 -1.061562,0 -2.975544,2.041474 -2.427655,2.589363 0.482122,0.482122 2.719928,-0.908401 3.048564,-1.894311 z m 37.737504,-5.374516 c 0,-0.674258 -3.041851,-2.028211 -3.508425,-1.561632 -0.458546,0.458545 1.662357,2.062729 2.727148,2.062729 0.429704,0 0.781277,-0.225494 0.781277,-0.501097 z M 37.263034,17.786657 c 0.738676,-0.197957 1.343047,-0.717535 1.343047,-1.154617 0,-0.623778 -0.385138,-0.660436 -1.790729,-0.170444 -0.984901,0.343338 -1.790729,0.866584 -1.790729,1.162768 0,0.626651 0.397992,0.655507 2.238411,0.162293 z m 14.475058,-2.906779 c 0,-0.596909 -0.59691,-0.895364 -1.790729,-0.895364 -1.193819,0 -1.790729,0.298455 -1.790729,0.895364 0,0.59691 0.59691,0.895365 1.790729,0.895365 1.193819,0 1.790729,-0.298455 1.790729,-0.895365 z m 24.128656,50.140407 c 0.171015,-1.641501 0.556236,-4.058985 0.856052,-5.372186 0.523872,-2.294574 0.546966,-2.236408 0.592612,1.492274 0.03038,2.484522 -0.277468,4.416599 -0.856052,5.372186 -0.868969,1.435174 -0.891646,1.378067 -0.592612,-1.492274 z m 20.87677,-8.655189 c 0,-4.760354 0.0927,-6.707772 0.206006,-4.327595 0.113299,2.380177 0.113299,6.275012 0,8.655189 -0.113306,2.380177 -0.206006,0.43276 -0.206006,-4.327594 z M 42.42694,48.661718 c -1.34568,-0.611134 -3.021101,-1.917839 -3.72316,-2.903788 -1.264403,-1.775691 -1.265181,-1.795587 -0.08236,-2.104901 0.784726,-0.20521 1.402136,0.07644 1.800899,0.821536 0.724458,1.353663 3.553844,2.909661 5.466264,3.006129 1.011187,0.05101 1.097592,0.141133 0.328097,0.342223 -0.574525,0.150139 -1.044592,0.502199 -1.044592,0.782354 0,0.280155 0.470067,0.632215 1.044592,0.782354 0.875687,0.228841 0.851558,0.282057 -0.149227,0.329114 -0.656601,0.03087 -2.294831,-0.443887 -3.640511,-1.055021 z m 7.122483,0.242008 c 0,-0.492451 0.358146,-0.895365 0.79588,-0.895365 0.437734,0 0.795879,0.402914 0.795879,0.895365 0,0.49245 -0.358145,0.895364 -0.795879,0.895364 -0.437734,0 -0.79588,-0.402914 -0.79588,-0.895364 z m 37.566922,-9.665752 c 0.580775,-0.151342 1.386603,-0.14139 1.790729,0.02211 0.404126,0.163508 -0.07105,0.287334 -1.055951,0.275168 -0.984901,-0.01217 -1.315553,-0.145943 -0.734778,-0.297286 z"
         id="path3656" />
      <path
         style="fill:#767676;fill-opacity:1;stroke-width:0.59691"
         d="m 82.777391,81.20993 c 0,-0.123948 0.470067,-0.594015 1.044592,-1.044592 0.946735,-0.742478 0.967847,-0.721365 0.225369,0.225369 -0.779784,0.994303 -1.269961,1.310503 -1.269961,0.819223 z m 1.837855,-15.642476 c 0.02865,-0.69537 0.170084,-0.836807 0.360629,-0.360635 0.172429,0.430891 0.151227,0.945726 -0.0471,1.144079 -0.198353,0.198347 -0.339427,-0.154206 -0.313509,-0.783444 z m 3.422411,-3.044108 c 0.430892,-0.172429 0.945726,-0.151227 1.144079,0.0471 0.198347,0.198353 -0.154206,0.339426 -0.783444,0.313509 -0.69537,-0.02865 -0.836807,-0.170084 -0.360635,-0.360629 z m -0.634216,-2.972115 c 0.410375,-0.165589 1.081899,-0.165589 1.492274,0 0.410375,0.165591 0.07461,0.301073 -0.746137,0.301073 -0.820751,0 -1.156512,-0.135482 -0.746137,-0.301073 z m -2.788195,-2.937423 c 0.02865,-0.695365 0.170084,-0.836807 0.360629,-0.360633 0.172429,0.430894 0.151227,0.945729 -0.0471,1.144077 C 84.730426,57.5956 84.589352,57.24305 84.61527,56.613808 Z m -22.42701,-5.614062 c -0.209121,-0.338364 0.0305,-0.438434 0.56168,-0.234592 1.034098,0.39682 1.223301,0.824665 0.364688,0.824665 -0.308924,0 -0.725794,-0.265533 -0.926368,-0.590073 z m 8.054054,0.355481 c 0,-0.129026 0.416864,-0.394559 0.926368,-0.590073 0.531201,-0.203842 0.770801,-0.103772 0.56168,0.234592 -0.350541,0.567186 -1.488048,0.838926 -1.488048,0.355481 z m 14.372956,-4.291972 c 0.02865,-0.695366 0.170084,-0.836808 0.360629,-0.360633 0.172429,0.430894 0.151227,0.945728 -0.0471,1.144076 -0.198353,0.198348 -0.339427,-0.154202 -0.313509,-0.783443 z m 2.788195,-3.031673 c 0.410375,-0.16559 1.081899,-0.16559 1.492274,0 0.410375,0.16559 0.07461,0.301073 -0.746137,0.301073 -0.820751,0 -1.156512,-0.135483 -0.746137,-0.301073 z m -6.118324,-1.992317 c 0.594218,-0.6566 1.2147,-1.193819 1.37885,-1.193819 0.16415,0 -0.187722,0.537219 -0.78194,1.193819 -0.594217,0.656601 -1.214699,1.193819 -1.378849,1.193819 -0.16415,0 0.187722,-0.537218 0.781939,-1.193819 z m 12.47839,-0.149227 -1.137107,-1.343047 1.343047,1.137106 c 1.262129,1.068598 1.614783,1.548987 1.137106,1.548987 -0.113269,0 -0.71764,-0.604371 -1.343046,-1.343046 z"
         id="path3654" />
      <path
         style="fill:#606060;fill-opacity:1;stroke-width:0.59691"
         d="m 14.056648,88.150532 c -0.742478,-0.946734 -0.721366,-0.967847 0.225366,-0.225369 0.574526,0.450577 1.044592,0.920644 1.044592,1.044592 0,0.49128 -0.490174,0.175079 -1.269958,-0.819223 z m 56.905664,-1.188178 c 2.201665,-0.114523 5.962196,-0.115287 8.356734,-0.0018 2.394539,0.113592 0.593179,0.207289 -4.003025,0.20822 -4.596204,0.0012 -6.555374,-0.09201 -4.353709,-0.206525 z M 84.4562,86.399731 c 0.430891,-0.17243 0.945725,-0.151227 1.144078,0.0471 0.198348,0.198347 -0.154205,0.339427 -0.783443,0.313509 -0.69537,-0.02865 -0.836808,-0.170084 -0.360635,-0.360629 z M 62.227495,79.244193 c -0.257071,-0.669923 -0.04387,-1.325861 0.578955,-1.781291 1.355772,-0.99136 2.761727,-0.320672 2.542894,1.213051 -0.231738,1.624197 -2.554403,2.04697 -3.121849,0.56824 z m 15.625392,0.601966 c 0.410376,-0.165589 1.081899,-0.165589 1.492274,0 0.410376,0.165588 0.07461,0.301075 -0.746137,0.301075 -0.82075,0 -1.156512,-0.135487 -0.746137,-0.301075 z m 14.569304,-2.589227 c 0,-0.820751 0.135487,-1.156512 0.301075,-0.746137 0.165589,0.410375 0.165589,1.081899 0,1.492274 -0.165588,0.410375 -0.301075,0.07461 -0.301075,-0.746137 z m -5.466432,-0.298455 c 0,-0.49245 0.105569,-0.895364 0.234591,-0.895364 0.129028,0 0.389203,0.402914 0.578179,0.895364 0.188969,0.492451 0.0834,0.895365 -0.234592,0.895365 -0.317997,0 -0.578178,-0.402914 -0.578178,-0.895365 z m -4.131242,-1.840469 c 0.02865,-0.69537 0.170084,-0.836808 0.360629,-0.360635 0.17243,0.430891 0.151227,0.945726 -0.0471,1.144079 -0.198353,0.198347 -0.339426,-0.154206 -0.313509,-0.783444 z m -25.863466,-0.04713 c 0.410375,-0.165589 1.081899,-0.165589 1.492274,0 0.410375,0.165589 0.07461,0.301075 -0.746137,0.301075 -0.820751,0 -1.156512,-0.135486 -0.746137,-0.301075 z m 5.969096,0 c 0.410375,-0.165589 1.081899,-0.165589 1.492274,0 0.410375,0.165589 0.07461,0.301075 -0.746137,0.301075 -0.820751,0 -1.156512,-0.135486 -0.746137,-0.301075 z m 6.566006,0 c 0.410375,-0.165589 1.081898,-0.165589 1.492274,0 0.410375,0.165589 0.07461,0.301075 -0.746137,0.301075 -0.820751,0 -1.156513,-0.135486 -0.746137,-0.301075 z M 55.366674,73.327279 c 0.02864,-0.69537 0.170084,-0.836808 0.360633,-0.360635 0.17243,0.430891 0.151223,0.945726 -0.04713,1.144079 -0.198348,0.198347 -0.339427,-0.154206 -0.313509,-0.783444 z m 5.969098,0 c 0.02865,-0.69537 0.170083,-0.836808 0.360629,-0.360635 0.172429,0.430891 0.151227,0.945726 -0.0471,1.144079 -0.198353,0.198347 -0.339426,-0.154206 -0.313508,-0.783444 z m 6.566005,0 c 0.02865,-0.69537 0.170084,-0.836808 0.360629,-0.360635 0.17243,0.430891 0.151227,0.945726 -0.0471,1.144079 -0.198353,0.198347 -0.339427,-0.154206 -0.313509,-0.783444 z m -2.694844,-1.267561 c -0.32393,-0.850716 -0.255369,-0.919277 0.33415,-0.33415 0.40794,0.404907 0.591341,0.886554 0.407558,1.070336 -0.183782,0.183783 -0.51755,-0.147502 -0.741708,-0.736186 z M 51.376697,60.245008 c 9.55e-4,-4.596204 0.09463,-6.397565 0.208222,-4.003025 0.11359,2.394541 0.112828,6.155069 -0.0017,8.356735 -0.114544,2.201665 -0.207482,0.242494 -0.206551,-4.35371 z m 39.851675,5.670641 c 0,-0.82075 0.135487,-1.156512 0.301075,-0.746137 0.165589,0.410376 0.165589,1.081899 0,1.492274 -0.165588,0.410376 -0.301075,0.07461 -0.301075,-0.746137 z M 56.961051,61.938871 c 0.410375,-0.165589 1.081899,-0.165589 1.492274,0 0.410375,0.165588 0.07461,0.301075 -0.746137,0.301075 -0.820751,0 -1.156512,-0.135487 -0.746137,-0.301075 z m 12.08742,0.166454 c 0,-0.125883 0.663393,-0.355687 1.474211,-0.510686 0.810812,-0.154994 1.332183,-0.05199 1.15859,0.228873 -0.305666,0.494575 -2.632801,0.743672 -2.632801,0.281813 z m -4.052676,-1.203204 c 0.423322,-0.459338 0.863722,-0.745818 0.978675,-0.636622 0.354051,0.336334 -0.543272,1.471783 -1.163126,1.471783 -0.321872,0 -0.238866,-0.37582 0.184451,-0.835161 z m -9.581996,-0.955568 c 0,-0.82075 0.135482,-1.156512 0.301073,-0.746137 0.165589,0.410376 0.165589,1.081899 0,1.492274 -0.165591,0.410376 -0.301073,0.07461 -0.301073,-0.746137 z m 4.131242,0.248713 c 0.02864,-0.695366 0.170084,-0.836808 0.360633,-0.360633 0.17243,0.430894 0.151224,0.945728 -0.04713,1.144077 -0.198348,0.198349 -0.339427,-0.154202 -0.313509,-0.783444 z m 1.790731,-0.59691 c 0.02865,-0.695365 0.170083,-0.836807 0.360629,-0.360633 0.172429,0.430894 0.151227,0.945729 -0.0471,1.144077 -0.198353,0.198348 -0.339426,-0.154202 -0.313508,-0.783444 z m 3.534331,-1.442531 c -0.537988,-0.347676 -0.611611,-0.582277 -0.184457,-0.58777 0.391,-0.005 0.87692,0.259469 1.079822,0.58777 0.458008,0.741078 0.25137,0.741078 -0.895365,0 z m -7.871745,-0.407758 c 0.430894,-0.17243 0.945729,-0.151223 1.144077,0.04713 0.198348,0.198349 -0.154202,0.339428 -0.783444,0.313509 -0.695366,-0.02864 -0.836808,-0.170084 -0.360633,-0.360633 z m 12.535102,0 c 0.430891,-0.17243 0.945725,-0.151223 1.144078,0.04713 0.198347,0.198349 -0.154205,0.339428 -0.783444,0.313509 -0.695369,-0.02864 -0.836807,-0.170084 -0.360634,-0.360633 z m 21.647792,-1.134259 c 0.02865,-0.695365 0.170083,-0.836807 0.360629,-0.360633 0.172429,0.430894 0.151227,0.945729 -0.0471,1.144077 -0.198353,0.198348 -0.339427,-0.154202 -0.313509,-0.783444 z m -27.616888,-0.05956 c 0.430891,-0.17243 0.945725,-0.151224 1.144078,0.04713 0.198347,0.198348 -0.154205,0.339427 -0.783444,0.313509 -0.695369,-0.02864 -0.836807,-0.170084 -0.360634,-0.360634 z m 0,-4.178368 c 0.430891,-0.172429 0.945725,-0.151223 1.144078,0.04713 0.198347,0.198349 -0.154205,0.339428 -0.783444,0.313509 -0.695369,-0.02864 -0.836807,-0.170084 -0.360634,-0.360633 z m -6.603313,-1.181384 c 0.410375,-0.16559 1.081899,-0.16559 1.492274,0 0.410375,0.165591 0.07461,0.301073 -0.746137,0.301073 -0.820751,0 -1.156512,-0.135482 -0.746137,-0.301073 z m 2.58399,-1.743604 c 0.02864,-0.695366 0.170084,-0.836808 0.360633,-0.360633 0.17243,0.430894 0.151224,0.945729 -0.04713,1.144077 -0.198348,0.198348 -0.339427,-0.154202 -0.313509,-0.783444 z m 5.969098,0 c 0.02865,-0.695366 0.170083,-0.836808 0.360629,-0.360633 0.172429,0.430894 0.151227,0.945729 -0.0471,1.144077 -0.198353,0.198348 -0.339427,-0.154202 -0.313509,-0.783444 z m 2.387638,0 c 0.02865,-0.695366 0.170084,-0.836808 0.360629,-0.360633 0.17243,0.430894 0.151227,0.945729 -0.0471,1.144077 -0.198353,0.198348 -0.339427,-0.154202 -0.313509,-0.783444 z m 23.279475,-2.387638 c 0.02865,-0.695366 0.170083,-0.836808 0.360629,-0.360633 0.172429,0.430894 0.151227,0.945728 -0.0471,1.144076 -0.198353,0.198348 -0.339427,-0.154202 -0.313509,-0.783443 z m -34.182894,-0.05956 c 0.430894,-0.17243 0.945729,-0.151223 1.144077,0.04713 0.198348,0.198349 -0.154202,0.339428 -0.783444,0.313509 -0.695366,-0.02864 -0.836808,-0.170084 -0.360633,-0.360633 z m 21.384806,-3.472155 c 0.188975,-0.49245 0.44915,-0.895364 0.578178,-0.895364 0.129022,0 0.234592,0.402914 0.234592,0.895364 0,0.492451 -0.260181,0.895365 -0.578179,0.895365 -0.317991,0 -0.423561,-0.402914 -0.234591,-0.895365 z M 58.47512,43.388234 c 1.899714,-0.118814 4.854413,-0.117713 6.566004,0.0024 1.71159,0.120161 0.15728,0.217373 -3.454023,0.216027 -3.611304,-0.0014 -5.011695,-0.09966 -3.111981,-0.218476 z"
         id="path3652" />
      <path
         style="fill:#494949;fill-opacity:1;stroke-width:0.59691"
         d="m 86.695679,78.872689 c 0.224158,-0.588685 0.557926,-0.919969 0.741708,-0.736187 0.183783,0.183783 3.82e-4,0.665429 -0.407558,1.070337 -0.58952,0.585126 -0.658081,0.516565 -0.33415,-0.33415 z m -9.196228,-27.28287 c 0,-0.820751 0.135487,-1.156512 0.301075,-0.746137 0.165589,0.410375 0.165589,1.081899 0,1.492274 -0.165588,0.410375 -0.301075,0.07461 -0.301075,-0.746137 z m 0,-3.581458 c 0,-0.82075 0.135487,-1.156512 0.301075,-0.746137 0.165589,0.410376 0.165589,1.081899 0,1.492274 -0.165588,0.410376 -0.301075,0.07461 -0.301075,-0.746137 z"
         id="path3650" />
      <path
         style="fill:#333333;fill-opacity:1;stroke-width:0.59691"
         d="M 14.141017,96.979452 C 4.1814511,93.541754 1.610337,80.222683 9.5590632,73.243694 17.209151,66.526909 29.42407,70.016729 32.312907,79.744499 c 1.200897,4.04386 1.163722,5.175618 -0.298361,9.083382 -1.53571,4.104554 -4.794244,7.142597 -9.000887,8.391833 -3.94902,1.172736 -4.849628,1.148347 -8.872642,-0.240262 z m 9.840778,-5.41985 C 31.68354,86.879365 27.991392,74.63971 18.877831,74.63971 c -9.1176033,0 -12.6911511,12.204629 -4.973043,16.984281 4.137716,2.562396 5.253321,0.41382 1.467645,-2.826576 -2.842588,-2.433147 -3.486819,-4.727536 -2.130168,-7.586464 1.918623,-4.043197 6.91569,-4.928969 10.061224,-1.783441 3.710967,3.710969 2.028422,9.045706 -4.166233,13.20961 -1.849766,1.243368 2.685134,0.234716 4.844539,-1.077518 z m 29.552336,-5.086666 c -0.81783,-0.447921 -1.515593,-1.160261 -1.550584,-1.582975 -0.03499,-0.422713 -0.125084,-0.902873 -0.200207,-1.067023 -0.529877,-1.15782 -0.4609,-2.732939 0.137064,-3.129914 0.517123,-0.343312 0.418835,-0.646572 -0.357703,-1.10368 -1.1337,-0.667339 -0.898818,-2.798575 0.40507,-3.675459 0.458877,-0.308602 0.471347,-0.586762 0.04014,-0.895364 -0.791276,-0.566288 -0.981943,-3.133776 -0.232719,-3.133776 0.307897,0 0.559813,-0.402914 0.559813,-0.895364 0,-0.49245 -0.402914,-0.895364 -0.895365,-0.895364 -1.049726,0 -1.188861,-0.941971 -0.226945,-1.53647 0.46931,-0.29005 0.584563,-3.456614 0.386909,-10.630373 -0.305193,-11.076888 0.0787,-13.058222 2.654518,-13.700445 2.046381,-0.510219 14.583613,-0.597436 15.377192,-0.106974 0.379724,0.234683 1.06691,-0.07027 1.527074,-0.67767 0.533935,-0.704772 0.843535,-0.821643 0.855652,-0.323 0.01045,0.42975 0.251693,0.637542 0.536114,0.461758 0.284428,-0.175784 0.99247,0.20563 1.57343,0.847585 1.169561,1.292348 1.708218,8.830573 1.514079,21.188767 -0.05671,3.611303 -0.09104,7.237529 -0.07624,8.058279 0.0148,0.820751 0.04113,2.576304 0.05844,3.901228 0.02692,2.057345 0.224898,2.419938 1.356125,2.484171 2.662241,0.151173 4.073013,-0.489872 5.220763,-2.37228 1.568415,-2.572328 1.486919,-3.225562 -0.532706,-4.269951 -3.433908,-1.775746 -3.966333,-4.094603 -3.908182,-17.021209 0.03713,-8.248731 0.253,-11.67433 0.746137,-11.838707 0.381652,-0.127219 0.693919,-0.820632 0.693919,-1.540916 0,-3.059452 6.08661,-5.881474 10.564196,-4.898031 2.643921,0.580703 5.438634,2.510329 6.749406,4.660167 1.075064,1.76324 1.18634,3.023201 1.188363,13.455094 0.0024,12.513954 -0.383968,14.517105 -3.200289,16.590835 -1.145481,0.843445 -1.720992,2.009836 -2.169092,4.396096 -0.724594,3.858698 -1.623994,5.360403 -4.544672,7.588112 -2.141611,1.633491 -2.376417,1.671126 -12.995063,2.082976 -15.435469,0.598676 -19.542732,0.51749 -21.254652,-0.420123 z m 20.268617,-2.013848 c 0.387192,-0.723472 0.617909,-7.951081 0.617909,-19.356925 0,-15.75171 -0.126288,-18.328634 -0.938002,-19.140349 -0.770598,-0.770602 -2.560252,-0.938001 -10.028081,-0.938001 -6.274183,0 -9.31197,0.221891 -9.806371,0.716292 -1.024582,1.024581 -1.024582,38.132686 0,39.15727 0.496534,0.496533 3.60332,0.716291 10.126464,0.716291 8.692645,0 9.45728,-0.08804 10.028081,-1.154578 z M 55.735256,79.436422 c -0.555711,-1.448156 0.978783,-2.982608 2.499893,-2.499828 1.929337,0.612346 1.489528,2.945522 -0.600935,3.187951 -0.953604,0.110584 -1.69565,-0.158306 -1.898958,-0.688123 z m 12.535101,0 c -0.183538,-0.478298 0.03504,-1.365807 0.485694,-1.972243 0.652267,-0.877702 1.039613,-0.967585 1.89896,-0.440645 1.665533,1.021277 1.373561,2.885396 -0.485693,3.101011 -0.953605,0.110584 -1.695653,-0.158306 -1.898961,-0.688123 z M 55.916459,73.451896 c 0,-1.790777 0.770544,-2.378852 2.427777,-1.852867 1.876412,0.595548 1.297949,2.920869 -0.786275,3.160684 -1.404507,0.161607 -1.641502,-0.02722 -1.641502,-1.307817 z m 6.078677,-0.224104 c 0.149884,-1.30263 0.496939,-1.641501 1.681148,-1.641501 1.184209,0 1.531264,0.338871 1.681148,1.641501 0.170478,1.481613 0.0067,1.641502 -1.681148,1.641502 -1.687875,0 -1.851625,-0.159889 -1.681148,-1.641502 z m 6.456425,0.224104 c 0,-1.790777 0.770545,-2.378852 2.427775,-1.852867 1.876415,0.595548 1.29795,2.920869 -0.786274,3.160684 -1.404504,0.161607 -1.641501,-0.02722 -1.641501,-1.307817 z M 55.916459,68.641389 c 0,-1.311905 0.263145,-1.53192 1.832245,-1.53192 1.558682,0 1.803766,0.200525 1.641501,1.343046 -0.136572,0.961628 -0.656926,1.396685 -1.832244,1.531921 -1.413388,0.162628 -1.641502,-0.024 -1.641502,-1.343047 z m 12.535102,0 c 0,-1.311905 0.263142,-1.53192 1.832244,-1.53192 1.55868,0 1.803765,0.200525 1.641501,1.343046 -0.136573,0.961628 -0.656923,1.396685 -1.832244,1.531921 -1.413386,0.162628 -1.641501,-0.024 -1.641501,-1.343047 z M 55.916459,59.906905 c 0,-1.644623 0.166586,-1.811209 1.641502,-1.641501 1.289306,0.148351 1.682026,0.541071 1.830376,1.830377 0.169708,1.474916 0.0031,1.641501 -1.641501,1.641501 -1.644623,0 -1.830377,-0.185752 -1.830377,-1.830377 z m 12.535102,0.03965 c 0,-1.687876 0.159888,-1.851628 1.641501,-1.681149 1.30263,0.149883 1.641502,0.496942 1.641502,1.681149 0,1.184208 -0.338872,1.531265 -1.641502,1.681149 -1.481613,0.170477 -1.641501,0.0067 -1.641501,-1.681149 z m -6.566006,-0.298454 c 0,-1.260143 0.27856,-1.492274 1.790729,-1.492274 1.512169,0 1.790729,0.232131 1.790729,1.492274 0,1.260142 -0.27856,1.492274 -1.790729,1.492274 -1.512169,0 -1.790729,-0.232132 -1.790729,-1.492274 z m 0.215861,-4.178368 c -0.571446,-1.489158 0.25497,-2.686093 1.854592,-2.686093 1.280956,0 1.511005,0.272637 1.511005,1.790729 0,1.518091 -0.230049,1.790729 -1.511005,1.790729 -0.831059,0 -1.665623,-0.402914 -1.854592,-0.895365 z m -6.184957,-6.307198 c 0,-1.644624 0.166586,-1.81121 1.641502,-1.641502 1.289306,0.148351 1.682026,0.541071 1.830376,1.830377 0.169708,1.474915 0.0031,1.641501 -1.641501,1.641501 -1.644623,0 -1.830377,-0.185754 -1.830377,-1.830376 z m 6.184957,0.935012 c -0.57982,-1.510974 0.270501,-2.784764 1.721427,-2.578731 0.964439,0.136951 1.399228,0.65617 1.534589,1.832594 0.163154,1.417946 -0.02232,1.641501 -1.361777,1.641501 -0.852865,0 -1.70527,-0.402914 -1.894239,-0.895364 z m 6.455488,-0.702255 c 0.154492,-1.348307 0.491567,-1.685384 1.685386,-1.685384 1.193819,0 1.492274,0.298455 1.492274,1.492274 0,1.19382 -0.337075,1.530896 -1.685386,1.685384 -1.533115,0.175664 -1.667933,0.04084 -1.492274,-1.492274 z m 17.963922,34.437902 c 2.593131,-1.777519 4.6133,-5.150285 4.6133,-7.702121 0,-2.693543 -0.973721,-2.280923 -1.435741,0.6084 -0.764223,4.779169 -5.336795,7.669817 -12.143953,7.677045 -1.883661,0.0018 -3.133775,0.265882 -3.133775,0.661496 0,0.443754 1.618729,0.589591 4.969064,0.447682 4.100124,-0.173677 5.347134,-0.469643 7.131105,-1.692502 z m -5.229608,-1.466606 c 1.131317,-0.472699 2.59904,-1.748593 3.261603,-2.835321 1.262942,-2.071479 1.634005,-5.258881 0.612209,-5.258881 -0.3283,0 -0.59691,0.698384 -0.59691,1.551965 0,0.969101 -0.762206,2.314171 -2.029492,3.581458 -1.719792,1.719792 -2.4485,2.029492 -4.775277,2.029492 -2.042756,0 -2.745784,0.229249 -2.745784,0.895365 0,1.17729 3.494088,1.197293 6.273651,0.03593 z m 6.588593,-4.568215 c 0.952608,-1.842141 0.856547,-2.765274 -0.218607,-2.100794 -0.50979,0.315067 -1.352525,3.946993 -0.91585,3.946993 0.09886,0 0.609367,-0.83079 1.134457,-1.846199 z m 4.546493,-5.167489 c 0.976156,-0.574525 2.360646,-1.984724 3.076645,-3.133775 1.212222,-1.9454 1.301818,-2.828629 1.301818,-12.833556 0,-9.670837 -0.11928,-10.946882 -1.193819,-12.771162 -2.534424,-4.302779 -7.548077,-5.95665 -11.597309,-3.825643 -4.120324,2.168424 -4.253357,2.678981 -4.285357,16.446454 -0.03122,13.42183 0.05032,13.799662 3.46392,16.050411 2.169975,1.430774 6.859381,1.464935 9.234102,0.06727 z m -7.00745,-5.785176 c -0.534419,-2.129308 0.02603,-3.215367 1.90219,-3.686263 2.27675,-0.571427 3.514627,0.422242 3.514627,2.821264 0,1.952031 -0.08966,2.030632 -2.51712,2.206709 -2.26868,0.164562 -2.554886,0.03211 -2.899697,-1.34171 z m 0.462467,-8.212354 c -0.977934,-0.977935 -0.90196,-3.161806 0.140083,-4.026624 0.471004,-0.390899 1.746898,-0.625246 2.835321,-0.520771 1.669884,0.160289 2.008989,0.451954 2.171306,1.867553 0.105796,0.922678 -0.12855,2.064268 -0.520774,2.536866 -0.865811,1.043239 -3.63993,1.128981 -4.625936,0.142976 z m 0.02728,-9.523265 c -0.944406,-0.944417 -0.958792,-3.03538 -0.02728,-3.966892 0.986006,-0.986004 3.760125,-0.900262 4.625936,0.142977 0.392224,0.472598 0.62657,1.614187 0.520774,2.536866 -0.165326,1.441837 -0.48632,1.702404 -2.284098,1.854114 -1.15046,0.09708 -2.426354,-0.158095 -2.835321,-0.567065 z"
         id="path3648" />
    </g>
  </g>
</svg>
