<?xml version="1.0" encoding="UTF-8" standalone="no"?>
<!-- Created with Inkscape (http://www.inkscape.org/) -->

<svg
   width="100mm"
   height="100mm"
   viewBox="0 0 100 100"
   version="1.1"
   id="svg1358"
   inkscape:version="1.1.1 (3bf5ae0d25, 2021-09-20)"
   sodipodi:docname="add_list_type_device_6075.svg"
   xmlns:inkscape="http://www.inkscape.org/namespaces/inkscape"
   xmlns:sodipodi="http://sodipodi.sourceforge.net/DTD/sodipodi-0.dtd"
   xmlns="http://www.w3.org/2000/svg"
   xmlns:svg="http://www.w3.org/2000/svg">
  <sodipodi:namedview
     id="namedview1360"
     pagecolor="#505050"
     bordercolor="#ffffff"
     borderopacity="1"
     inkscape:pageshadow="0"
     inkscape:pageopacity="0"
     inkscape:pagecheckerboard="1"
     inkscape:document-units="mm"
     showgrid="false"
     inkscape:zoom="0.58974467"
     inkscape:cx="397.62971"
     inkscape:cy="208.56484"
     inkscape:window-width="1440"
     inkscape:window-height="890"
     inkscape:window-x="-6"
     inkscape:window-y="-6"
     inkscape:window-maximized="1"
     inkscape:current-layer="layer1" />
  <defs
     id="defs1355" />
  <g
     inkscape:label="Laag 1"
     inkscape:groupmode="layer"
     id="layer1">
    <g
       id="g1374"
       transform="translate(1.7220541e-7,0.36811451)">
      <path
         style="fill:#d0d0d0;fill-opacity:1;stroke-width:0.44944"
         d="m 17.440624,95.416835 c 0.152773,-0.247192 0.366957,-0.44944 0.475965,-0.44944 0.109007,0 0.198195,0.202248 0.198195,0.44944 0,0.247191 -0.214184,0.449439 -0.475965,0.449439 -0.26178,0 -0.350968,-0.202248 -0.198195,-0.449439 z m 1.910119,0.151784 c 0.30899,-0.124679 0.81461,-0.124679 1.1236,0 0.30899,0.124679 0.05618,0.226693 -0.5618,0.226693 -0.61798,0 -0.87079,-0.102014 -0.5618,-0.226693 z m 5.505638,-1.669794 c 0,-0.09333 0.353934,-0.44726 0.78652,-0.78652 0.712837,-0.559045 0.728733,-0.543148 0.169688,0.16969 -0.587134,0.748655 -0.956208,0.986737 -0.956208,0.61683 z m -2.247199,-1.852789 c 0.580562,-0.61798 1.156691,-1.1236 1.280287,-1.1236 0.123596,0 -0.250285,0.50562 -0.830847,1.1236 -0.580562,0.61798 -1.156691,1.123599 -1.280287,1.123599 -0.123596,0 0.250285,-0.505619 0.830847,-1.123599 z m 4.494398,-0.394411 c 0,-0.09333 0.353934,-0.44726 0.78652,-0.786519 0.712837,-0.559045 0.728733,-0.543148 0.169688,0.16969 -0.587134,0.748655 -0.956208,0.986736 -0.956208,0.616829 z M 6.9664061,85.304438 c 0.00916,-0.741575 0.1098871,-0.990538 0.2238399,-0.553246 0.1139523,0.437291 0.1064584,1.044035 -0.016652,1.348319 -0.1231137,0.304284 -0.2163477,-0.0535 -0.2071879,-0.795073 z m 22.9047779,0.22472 c 0,-0.617979 0.10201,-0.870789 0.226691,-0.561799 0.12468,0.30899 0.12468,0.814609 0,1.123599 -0.124681,0.30899 -0.226691,0.05618 -0.226691,-0.5618 z M 10.545271,84.180839 c 0,-0.61798 0.102011,-0.87079 0.226691,-0.5618 0.12468,0.30899 0.12468,0.81461 0,1.1236 -0.12468,0.30899 -0.226691,0.05618 -0.226691,-0.5618 z m 15.730394,0 c 0,-0.61798 0.102011,-0.87079 0.226691,-0.5618 0.12468,0.30899 0.12468,0.81461 0,1.1236 -0.12468,0.30899 -0.226691,0.05618 -0.226691,-0.5618 z M 6.9497525,82.832519 c 0,-0.617979 0.1020107,-0.870789 0.2266912,-0.561799 0.12468,0.30899 0.12468,0.814609 0,1.123599 -0.1246805,0.30899 -0.2266912,0.05618 -0.2266912,-0.5618 z m 22.9214315,0 c 0,-0.617979 0.10201,-0.870789 0.226691,-0.561799 0.12468,0.30899 0.12468,0.814609 0,1.123599 -0.124681,0.30899 -0.226691,0.05618 -0.226691,-0.5618 z M 8.6765475,77.718991 c 0,-0.09333 0.3539339,-0.44726 0.7865197,-0.78652 0.7128368,-0.559045 0.7287338,-0.543148 0.1696883,0.169691 -0.5871343,0.748654 -0.956208,0.986736 -0.956208,0.616829 z M 27.495692,77.102162 c -0.559045,-0.712839 -0.543149,-0.728736 0.169688,-0.169691 0.432586,0.33926 0.78652,0.693194 0.78652,0.78652 0,0.369907 -0.369074,0.131825 -0.956208,-0.616829 z m -9.493268,-0.859455 c 0.30899,-0.124679 0.81461,-0.124679 1.123599,0 0.30899,0.124679 0.05618,0.226693 -0.561799,0.226693 -0.61798,0 -0.87079,-0.102014 -0.5618,-0.226693 z m -7.078677,-0.770915 c 0,-0.09333 0.353934,-0.44726 0.786519,-0.78652 0.712837,-0.559045 0.728734,-0.543148 0.169689,0.169691 -0.587135,0.748654 -0.956208,0.986736 -0.956208,0.616829 z m 14.324746,-0.616829 c -0.559045,-0.712839 -0.543149,-0.728736 0.169688,-0.169691 0.432586,0.33926 0.78652,0.693194 0.78652,0.78652 0,0.369907 -0.369074,0.131825 -0.956208,-0.616829 z m -8.594389,-2.207775 c 0.30899,-0.124679 0.81461,-0.124679 1.1236,0 0.30899,0.124679 0.05618,0.226693 -0.5618,0.226693 -0.61798,0 -0.870789,-0.102014 -0.5618,-0.226693 z m 2.696639,0 c 0.30899,-0.124679 0.81461,-0.124679 1.1236,0 0.30899,0.124679 0.05618,0.226693 -0.5618,0.226693 -0.61798,0 -0.87079,-0.102014 -0.5618,-0.226693 z"
         id="path1380" />
      <path
         style="fill:#a3a3a3;fill-opacity:1;stroke-width:0.44944"
         d="M 7.4964417,98.267164 C 6.9709791,98.156301 6.0608635,97.554451 5.4739625,96.929725 4.4075096,95.794539 4.4068692,95.786872 4.4068692,84.154843 V 72.515831 L 5.6530431,71.26966 6.8992175,70.023484 H 18.564224 30.22923 l 1.246174,1.246176 1.246174,1.246171 v 11.665008 11.665008 l -1.245345,1.246171 -1.245346,1.246175 -10.88953,0.06527 C 13.352116,98.439376 8.0219038,98.378027 7.4964417,98.267164 Z m 9.2700223,-4.389697 c 0,-1.872622 -0.110788,-2.049917 -1.896535,-3.034991 -5.1460289,-2.838711 -5.212448,-10.388293 -0.116783,-13.274322 3.650802,-2.067701 8.38688,-0.79478 10.423761,2.801606 2.613434,4.614367 -0.170522,11.126651 -6.050884,14.154348 -1.050565,0.540914 -1.910119,1.092485 -1.910119,1.225703 0,0.5486 4.956483,-0.321803 6.571887,-1.154081 2.052395,-1.057419 4.233157,-3.270407 5.391391,-5.471053 1.14739,-2.180044 1.14739,-7.707632 0,-9.887676 -1.155007,-2.194516 -3.325897,-4.400564 -5.4464,-5.534604 -1.378145,-0.737032 -2.584537,-0.961438 -5.168558,-0.961438 -2.584022,0 -3.790414,0.224406 -5.168558,0.961438 -7.7165243,4.126783 -8.6707175,14.480169 -1.81636,19.708242 1.226977,0.935859 3.935255,2.235837 5.074798,2.435909 0.0618,0.01083 0.11236,-0.875234 0.11236,-1.969081 z"
         id="path1378" />
      <path
         style="fill:#333333;fill-opacity:1;stroke-width:0.44944"
         d="m 43.81543,96.292069 c -3.796081,-0.505256 -5.658361,-1.612019 -5.840646,-3.471122 -0.117936,-1.202823 0.09282,-1.570208 1.33368,-2.324818 0.810563,-0.492936 2.390455,-1.020165 3.51087,-1.171627 1.120416,-0.151461 2.391053,-0.373138 2.823639,-0.492613 0.73936,-0.204203 0.78652,-2.075171 0.78652,-31.204103 V 26.640908 l -2.381292,-1.127489 c -3.111057,-1.473016 -5.708625,-3.641604 -5.708625,-4.765863 0,-2.621559 2.24007,-3.516334 6.583301,-2.62964 3.236029,0.660654 6.522917,2.001601 9.003353,3.673087 1.033303,0.696311 2.066398,1.26602 2.295761,1.26602 0.229363,0 0.39517,0.853265 0.36846,1.896144 -0.06353,2.480681 -1.269542,3.194205 -4.725779,2.795964 -1.336513,-0.153998 -2.703084,-0.384782 -3.036834,-0.512853 -0.506518,-0.19437 -0.587727,4.88183 -0.491341,30.713549 l 0.115475,30.946409 2.639187,0.329637 c 3.582755,0.447489 5.41073,1.557053 5.590802,3.393572 0.226325,2.308269 -1.817588,3.250402 -8.454709,3.897178 -0.865172,0.08431 -2.850492,-0.01672 -4.411822,-0.224554 z m 3.623455,-45.916013 c 0.06281,-14.761155 -0.02328,-26.491535 -0.191281,-26.06751 -0.168024,0.424026 -0.274249,15.93955 -0.23606,34.478943 0.0382,18.539393 0.12427,30.269772 0.191286,26.06751 0.06702,-4.202263 0.173241,-19.717788 0.236055,-34.478943 z"
         id="path1376" />
    </g>
  </g>
</svg>
