<?xml version="1.0" encoding="UTF-8" standalone="no"?>
<!-- Created with Inkscape (http://www.inkscape.org/) -->

<svg
   width="100mm"
   height="100mm"
   viewBox="0 0 100 100"
   version="1.1"
   id="svg5044"
   inkscape:version="1.1.1 (3bf5ae0d25, 2021-09-20)"
   sodipodi:docname="add_list_type_device_619ac.svg"
   xmlns:inkscape="http://www.inkscape.org/namespaces/inkscape"
   xmlns:sodipodi="http://sodipodi.sourceforge.net/DTD/sodipodi-0.dtd"
   xmlns="http://www.w3.org/2000/svg"
   xmlns:svg="http://www.w3.org/2000/svg">
  <sodipodi:namedview
     id="namedview5046"
     pagecolor="#ffffff"
     bordercolor="#666666"
     borderopacity="1.0"
     inkscape:pageshadow="2"
     inkscape:pageopacity="0.0"
     inkscape:pagecheckerboard="0"
     inkscape:document-units="mm"
     showgrid="false"
     width="100mm"
     inkscape:zoom="0.58974467"
     inkscape:cx="378.97757"
     inkscape:cy="25.434736"
     inkscape:window-width="1440"
     inkscape:window-height="890"
     inkscape:window-x="-6"
     inkscape:window-y="-6"
     inkscape:window-maximized="1"
     inkscape:current-layer="layer1" />
  <defs
     id="defs5041" />
  <g
     inkscape:label="Laag 1"
     inkscape:groupmode="layer"
     id="layer1">
    <g
       id="g5060"
       transform="translate(-3.5891284)">
      <path
         style="fill:#d0d0d0;fill-opacity:1;stroke-width:0.599679"
         d="m 19.439781,93.219116 c 0,-0.319466 0.404784,-0.425526 0.899519,-0.235679 0.494735,0.189852 0.899518,0.451234 0.899518,0.580861 0,0.12962 -0.404783,0.23568 -0.899518,0.23568 -0.494735,0 -0.899519,-0.261389 -0.899519,-0.580862 z m 29.271831,-1.028143 c 0.432893,-0.173229 0.950116,-0.151929 1.149385,0.04731 0.199267,0.199267 -0.154918,0.341001 -0.787079,0.314963 -0.698592,-0.02878 -0.84069,-0.170873 -0.362306,-0.362302 z M 12.76682,90.951502 c -0.745923,-0.951126 -0.724712,-0.972337 0.226412,-0.226414 0.577191,0.452667 1.049439,0.924914 1.049439,1.049438 0,0.49356 -0.492448,0.175892 -1.275851,-0.823024 z m 32.946397,-1.159245 c 0.432893,-0.173229 0.950116,-0.151929 1.149385,0.04731 0.199268,0.199267 -0.154918,0.341001 -0.787079,0.314963 -0.698592,-0.02878 -0.84069,-0.170873 -0.362306,-0.362302 z m 5.99679,0 c 0.432893,-0.173229 0.950116,-0.151929 1.149384,0.04731 0.199268,0.199267 -0.154917,0.341001 -0.787078,0.314963 -0.698592,-0.02878 -0.84069,-0.170873 -0.362306,-0.362302 z m -37.14415,-1.239471 c -0.745923,-0.951126 -0.724712,-0.972337 0.226412,-0.226414 0.577191,0.452667 1.049438,0.924915 1.049438,1.049438 0,0.49356 -0.492448,0.175892 -1.27585,-0.823024 z M 63.616135,88.003079 C 63.05715,87.4441 63.117172,86.60383 63.716077,86.60383 c 0.274857,0 0.499737,0.404783 0.499737,0.899518 0,1.019065 -0.04384,1.055585 -0.599679,0.499731 z m 3.626439,-2.007444 c 0.173961,-0.665242 0.528413,-1.34063 0.787666,-1.500852 0.259253,-0.160228 0.329032,0.252962 0.155065,0.918204 -0.173961,0.665242 -0.528413,1.340631 -0.787666,1.500853 -0.259254,0.160228 -0.329032,-0.252963 -0.155065,-0.918205 z M 9.984045,84.205114 c 0,-1.154382 0.123411,-1.626629 0.274247,-1.049438 0.150835,0.577191 0.150835,1.521685 0,2.098876 -0.150836,0.577191 -0.274247,0.104944 -0.274247,-1.049438 z m 18.590048,0 c 0,-1.154382 0.123411,-1.626629 0.274247,-1.049438 0.150836,0.577191 0.150836,1.521685 0,2.098876 -0.150836,0.577191 -0.274247,0.104944 -0.274247,-1.049438 z m 20.10703,0.775229 c 0.745949,-0.143437 1.825371,-0.137992 2.398716,0.01211 0.573346,0.150094 -0.03698,0.267457 -1.356269,0.260801 -1.319294,-0.0067 -1.788395,-0.129465 -1.042447,-0.272902 z m 22.508316,-1.252664 c -0.483239,-0.307149 0.260944,-1.189697 2.248796,-2.666904 1.634077,-1.214308 2.97105,-1.897606 2.97105,-1.518429 0,0.379171 0.809566,-0.08621 1.799037,-1.034182 3.083861,-2.954523 1.966071,-0.523988 -1.227915,2.669998 -2.925138,2.925144 -4.269097,3.51683 -5.790968,2.549517 z M 48.711612,83.195788 c 0.432893,-0.173229 0.950116,-0.151929 1.149385,0.04732 0.199267,0.199267 -0.154918,0.341001 -0.787079,0.314963 -0.698592,-0.02878 -0.84069,-0.170872 -0.362306,-0.362302 z m 16.303772,-0.670945 c 0,-0.377204 -0.46799,-0.53026 -1.049438,-0.343214 -0.877163,0.282167 -0.902595,0.233953 -0.154933,-0.293693 0.938065,-0.662015 2.375544,0.146538 1.61415,0.907932 -0.225378,0.225378 -0.409779,0.103421 -0.409779,-0.271025 z m 4.342467,-0.969501 c 0.244507,-0.295959 0.134089,-0.912207 -0.245382,-1.369439 -0.54656,-0.658567 -0.270695,-1.181319 1.327467,-2.515527 1.109574,-0.926312 2.470246,-1.565786 3.023713,-1.421047 0.585791,0.153188 1.411513,-0.315353 1.975973,-1.121232 0.659892,-0.942132 0.969663,-1.093281 0.969663,-0.473141 0,0.501182 -1.011959,1.851875 -2.248797,3.001537 -2.437041,2.26527 -5.522197,4.769841 -4.802637,3.898849 z m -7.340862,-3.946697 c 1.154382,-0.631996 2.368732,-1.149087 2.698555,-1.149087 0.329824,0 -0.344815,0.517091 -1.499197,1.149087 -1.154382,0.631996 -2.368732,1.149087 -2.698555,1.149087 -0.329824,0 0.344815,-0.517091 1.499197,-1.149087 z m 4.349442,-1.287541 c -0.517361,-0.517361 -0.064,-1.140181 1.829021,-2.512709 1.384287,-1.003664 3.12666,-1.890344 3.871941,-1.970401 1.191448,-0.127977 1.263853,-0.01589 0.599679,0.928537 -0.990754,1.408772 -4.376967,4.242435 -5.069686,4.242435 -0.2987,0 -0.85263,-0.309536 -1.230955,-0.687862 z M 48.674132,75.986076 c 0.742102,-0.14294 1.956452,-0.14294 2.698555,0 0.742103,0.142933 0.134928,0.259883 -1.349278,0.259883 -1.484205,0 -2.09138,-0.11695 -1.349277,-0.259883 z M 18.390343,74.796552 c 0.577191,-0.150831 1.521686,-0.150831 2.098877,0 0.577191,0.150838 0.104943,0.274252 -1.049439,0.274252 -1.154382,0 -1.626629,-0.123414 -1.049438,-0.274252 z m 30.321269,-0.595949 c 0.432893,-0.173229 0.950116,-0.151928 1.149385,0.04731 0.199267,0.199273 -0.154918,0.341002 -0.787079,0.314963 -0.698592,-0.02878 -0.84069,-0.170872 -0.362306,-0.362302 z m 15.304305,-0.518638 c 0,-0.478916 0.253754,-0.870752 0.563896,-0.870752 0.310136,0 0.420447,-0.373798 0.245131,-0.830669 -0.446815,-1.164379 2.870225,-4.217345 4.078417,-3.753715 1.324906,0.508414 0.382571,2.15196 -2.578488,4.497155 -1.578667,1.250331 -2.308956,1.553324 -2.308956,0.957981 z m -36.257122,-1.92019 c -0.745923,-0.951127 -0.724713,-0.972338 0.226412,-0.226415 0.577191,0.452668 1.049438,0.924915 1.049438,1.049438 0,0.49356 -0.492448,0.175892 -1.27585,-0.823023 z M 60.617738,69.41303 c -0.219882,-0.219878 -0.395654,-0.692125 -0.390603,-1.049438 0.005,-0.357307 0.240959,-0.28387 0.524242,0.163203 0.423672,0.668624 0.799793,0.626286 2.119813,-0.238625 0.882613,-0.578312 1.468056,-1.407698 1.300985,-1.843083 -0.408951,-1.065719 0.78107,-1.731711 1.611122,-0.901659 0.484762,0.484762 0.198248,1.148937 -1.063963,2.466401 -1.649285,1.721481 -3.23934,2.265456 -4.101596,1.403201 z m -28.341835,-2.148847 -1.142382,-1.349278 1.349278,1.142382 c 1.267988,1.073558 1.622276,1.556173 1.142381,1.556173 -0.113793,0 -0.720968,-0.607175 -1.349277,-1.349277 z M 62.719417,58.777106 C 60.812623,53.503952 57.081518,51.309943 49.72357,51.135132 47.084982,51.072444 45.938096,50.9153 47.174934,50.785923 c 2.764588,-0.289185 2.943312,-1.200012 0.29984,-1.528064 -1.209545,-0.150103 -0.651965,-0.278274 1.46968,-0.337834 3.733984,-0.104824 9.26561,0.879988 9.800051,1.744732 0.18501,0.299351 -0.08242,0.383567 -0.594283,0.187146 -1.542221,-0.591806 -1.048003,0.658245 0.800588,2.024967 2.041229,1.509145 2.91539,1.076937 1.427745,-0.705917 -0.572754,-0.686412 -0.167874,-0.454775 0.899734,0.514749 1.85875,1.687984 4.336774,5.928752 4.336774,7.421746 0,1.635592 -2.186376,0.631107 -2.895646,-1.330342 z M 14.813866,50.92293 c 0.0045,-1.649117 0.120963,-2.252582 0.258802,-1.341032 0.137839,0.911549 0.134155,2.260827 -0.0082,2.998395 -0.142341,0.737568 -0.255118,-0.0082 -0.250616,-1.657363 z m 8.986999,0.29984 c 0,-1.484206 0.116947,-2.091381 0.259882,-1.349278 0.142936,0.742103 0.142936,1.956453 0,2.698556 -0.142935,0.742102 -0.259882,0.134927 -0.259882,-1.349278 z m 4.081765,0.849545 c 0.02877,-0.698592 0.170873,-0.84069 0.362306,-0.362306 0.17323,0.432893 0.151925,0.950116 -0.04734,1.149385 -0.199269,0.199268 -0.341003,-0.154918 -0.314964,-0.787079 z m 42.931434,-0.129337 c -0.603691,-0.67154 -1.008474,-1.797258 -0.899519,-2.501596 0.32625,-2.108931 2.457143,-0.139468 2.198513,2.031956 -0.200736,1.685341 -0.204796,1.686808 -1.298994,0.46964 z m 5.004723,-0.20629 c -0.005,-0.871727 -0.413965,-1.740288 -0.9087,-1.930136 -0.494735,-0.189848 -0.899518,-0.791473 -0.899518,-1.336944 0,-0.834891 0.149512,-0.867682 0.945226,-0.207302 0.783354,0.65013 1.038512,0.63703 1.49001,-0.07649 0.386829,-0.611316 0.54479,-0.252372 0.54479,1.237919 0,1.154382 -0.261586,2.50366 -0.58131,2.998395 -0.456104,0.705773 -0.58329,0.558137 -0.590498,-0.68544 z M 7.4935446,50.872957 c 0.028773,-0.698592 0.1708731,-0.84069 0.3623062,-0.362306 0.1732299,0.432893 0.1519251,0.950116 -0.047345,1.149385 -0.1992686,0.199268 -0.3410021,-0.154917 -0.3149634,-0.787079 z m 8.9951844,0 c 0.02877,-0.698592 0.170873,-0.84069 0.362307,-0.362306 0.173229,0.432893 0.151925,0.950116 -0.04734,1.149385 -0.199269,0.199268 -0.341002,-0.154917 -0.314964,-0.787079 z m 24.713416,-1.428056 c -1.962883,-1.196831 -5.417476,-5.771727 -4.814023,-6.375179 0.183062,-0.183063 0.510593,0.227205 0.727846,0.911708 0.407246,1.28312 1.513541,1.732709 1.513541,0.615091 0,-0.346202 -0.445677,-1.491303 -0.990393,-2.544669 -0.905672,-1.751374 -1.030314,-1.81295 -1.457049,-0.719818 -0.333804,0.855075 -0.478655,0.414218 -0.508805,-1.548552 -0.04457,-2.901436 0.954787,-4.335873 4.155605,-5.964807 l 1.499197,-0.76296 -1.611075,1.631272 c -2.51475,2.546277 -2.684653,4.652434 -0.693825,8.600865 1.245414,2.470043 2.302296,3.683447 3.919508,4.499976 1.446284,0.730227 2.100007,1.415801 1.884798,1.976628 -0.443787,1.156488 -1.333076,1.078102 -3.625325,-0.319555 z M 9.8922605,49.07392 c 0.028773,-0.698591 0.1708735,-0.84069 0.3623065,-0.362306 0.17323,0.432893 0.151925,0.950117 -0.04734,1.149385 C 10.007954,50.060267 9.86622,49.706082 9.8922587,49.07392 Z m 2.3987155,-1.799037 c 0.02877,-0.698591 0.170874,-0.84069 0.362307,-0.362306 0.17323,0.432893 0.151925,0.950117 -0.04734,1.149385 -0.199269,0.199268 -0.341002,-0.154917 -0.314963,-0.787079 z m 56.778856,-1.131237 c -0.155713,-0.814577 -0.05223,-1.338362 0.229934,-1.163967 0.282179,0.174396 0.51305,0.683453 0.51305,1.131238 0,0.447784 0.337319,0.950265 0.749599,1.116623 0.475791,0.191987 0.391806,0.319763 -0.229929,0.349813 -0.584867,0.02827 -1.093605,-0.549392 -1.262654,-1.433707 z m -49.582708,0.09638 c -0.02885,-0.661147 -0.317736,-0.917718 -0.739677,-0.656943 -0.446289,0.275821 -0.528794,0.163271 -0.232155,-0.3167 0.599077,-0.969328 1.783662,0.142071 1.339136,1.256402 -0.210674,0.528113 -0.336131,0.431532 -0.367304,-0.282759 z m 58.768542,-0.764181 c 0.02878,-0.698591 0.170873,-0.840689 0.362302,-0.362306 0.17323,0.432894 0.151929,0.950117 -0.04731,1.149385 -0.199274,0.199268 -0.341002,-0.154917 -0.314964,-0.787079 z M 23.380692,45.3759 c 0.298501,-0.247368 0.744128,-0.719615 0.990282,-1.049438 0.255407,-0.342223 0.451495,-0.14913 0.456735,0.449759 0.0051,0.583363 -0.434698,1.049438 -0.990282,1.049438 -0.549705,0 -0.755236,-0.202392 -0.456735,-0.449759 z m 4.960857,-1.566826 c -0.931955,-1.202938 -0.915966,-1.419757 0.260346,-3.530446 1.509392,-2.708344 2.672708,-3.041883 1.291117,-0.370181 -0.548369,1.060431 -0.732728,2.039838 -0.4233,2.248796 0.301493,0.2036 0.394405,0.946924 0.206471,1.651831 l -0.341698,1.28165 z m -4.867408,-1.769395 c -0.439926,-1.118253 0.753876,-4.049928 2.425611,-5.956686 0.668654,-0.762658 1.126211,-0.874712 1.683425,-0.412265 0.610583,0.506738 0.501313,1.167132 -0.540785,3.268358 -0.71829,1.448316 -1.626394,2.525823 -2.01801,2.394459 -0.391616,-0.131363 -0.804372,0.218448 -0.917236,0.777358 -0.18579,0.920046 -0.245686,0.913307 -0.633005,-0.07122 z m -3.546215,-2.417844 c -0.935717,-0.711301 -0.898549,-0.966635 0.498829,-3.426762 0.830435,-1.462007 1.777386,-2.980517 2.104336,-3.374467 0.627054,-0.755554 2.305801,-0.422738 2.305801,0.457133 0,0.284184 -0.337319,0.389819 -0.749599,0.234744 -0.898356,-0.337908 -3.1473,3.357406 -2.352223,3.865016 0.31785,0.202929 0.337901,0.925 0.04725,1.701771 -0.584236,1.561419 -0.53359,1.546601 -1.8544,0.542565 z M 16.135502,38.02005 c -0.207168,-0.335203 -0.632455,-0.451376 -0.945084,-0.25816 -0.840145,0.519238 1.261199,-3.882363 3.096942,-6.48704 1.302015,-1.847386 1.716201,-2.106509 2.280413,-1.426675 0.53385,0.64325 0.364651,1.402503 -0.749769,3.364476 -0.86718,1.526696 -1.553245,2.212913 -1.726132,1.726514 -0.386724,-1.088007 -0.863766,-0.561914 -1.389361,1.532223 -0.337842,1.34607 -0.260426,1.628795 0.343751,1.255393 0.51435,-0.317885 0.63414,-0.246266 0.351907,0.210396 -0.525923,0.850961 -0.777748,0.86749 -1.262667,0.08287 z m -3.553474,-1.365358 c 0.225198,-0.591416 0.560515,-0.924238 0.745149,-0.739604 0.184633,0.184633 3.8e-4,0.668518 -0.409451,1.075301 -0.592253,0.587845 -0.661135,0.518964 -0.335698,-0.335697 z m -0.520782,-3.672158 c 2.504181,-4.971258 3.766719,-6.504863 4.710376,-5.721697 0.671203,0.557049 0.532887,1.176053 -0.793712,3.552108 -0.913261,1.635726 -1.925438,2.755135 -2.345473,2.593953 -0.414795,-0.159172 -0.898952,0.354133 -1.10378,1.17023 -0.20068,0.799576 -0.733445,1.453775 -1.183922,1.453775 -0.598311,0 -0.405207,-0.821553 0.716511,-3.048369 z m 30.592809,-2.998472 c -0.999162,-0.759903 -0.958038,-0.854194 0.599679,-1.374975 1.328061,-0.444003 1.88848,-0.334281 2.721842,0.532897 0.816054,0.849167 0.860302,1.092022 0.198966,1.092022 -0.467759,0 -1.209862,0.127329 -1.649117,0.282954 -0.439255,0.155624 -1.281371,-0.08418 -1.87137,-0.532898 z m 27.082266,-0.199816 c -0.745923,-0.951124 -0.724712,-0.972335 0.226415,-0.226412 0.577191,0.452665 1.049438,0.924912 1.049438,1.049439 0,0.493556 -0.492451,0.175887 -1.275853,-0.823027 z M 48.711612,27.42564 c 0.432893,-0.173229 0.950116,-0.151925 1.149385,0.04734 0.199267,0.199269 -0.154918,0.341002 -0.787079,0.314964 -0.698592,-0.02877 -0.84069,-0.170874 -0.362306,-0.362307 z m -5.549717,-1.932768 c -0.184705,-0.29886 -0.87527,-0.402314 -1.534589,-0.229899 -1.758623,0.459891 -1.462323,-0.355557 0.384305,-1.057643 1.206422,-0.458682 1.816006,-0.391071 2.562142,0.284172 0.604903,0.54743 2.578178,0.967416 5.163324,1.098949 4.160209,0.211672 4.154306,0.213569 -1.027554,0.330349 -2.86649,0.0646 -5.362923,-0.127069 -5.547628,-0.425928 z m 34.370252,-0.506058 c -0.745922,-0.951124 -0.724712,-0.972335 0.226415,-0.226411 0.998916,0.783402 1.316584,1.27585 0.823024,1.27585 -0.124524,0 -0.596771,-0.472248 -1.049439,-1.049439 z M 46.312896,23.227888 c 0.432893,-0.17323 0.950116,-0.151925 1.149385,0.04734 0.199268,0.199269 -0.154918,0.341002 -0.787079,0.314964 -0.698592,-0.02877 -0.84069,-0.170873 -0.362306,-0.362307 z m 28.813543,-0.823569 c -1.341254,-1.168358 -1.346501,-1.199727 -0.09983,-0.596454 0.723734,0.35022 1.481759,0.905168 1.684504,1.233217 0.58952,0.95386 -0.05679,0.694148 -1.584676,-0.636763 z M 44.152896,20.999464 c 0.425283,-0.461469 0.867728,-0.749278 0.983211,-0.639576 0.355699,0.337895 -0.545791,1.478612 -1.168522,1.478612 -0.323362,0 -0.239972,-0.377566 0.185311,-0.839036 z m -4.626573,-0.364698 c -0.137356,-0.222246 0.956382,-0.680084 2.430529,-1.017417 2.133896,-0.488305 2.552988,-0.45997 2.055888,0.138998 -0.697872,0.840885 -4.098153,1.506643 -4.486417,0.878419 z m 9.185289,-2.20431 c 0.432893,-0.17323 0.950116,-0.151925 1.149385,0.04734 0.199267,0.199269 -0.154918,0.341002 -0.787079,0.314964 -0.698592,-0.02877 -0.84069,-0.170873 -0.362306,-0.362306 z M 38.54315,16.987695 c -0.960882,-0.593858 -0.74654,-0.787806 1.834502,-1.659963 1.680705,-0.567925 2.226894,-0.530118 3.045614,0.210813 0.655798,0.593489 2.317053,0.919066 4.848326,0.950187 2.117881,0.02604 3.580838,0.139784 3.251015,0.252767 -1.400363,0.479705 -12.268091,0.685845 -12.979457,0.246196 z m 7.769746,-2.754992 c 0.432893,-0.17323 0.950116,-0.151925 1.149385,0.04734 0.199268,0.199268 -0.154918,0.341002 -0.787079,0.314963 -0.698592,-0.02877 -0.84069,-0.170873 -0.362306,-0.362306 z m -9.185585,-1.617267 c -0.960978,-0.702683 -0.802962,-0.849338 1.561899,-1.449604 2.165696,-0.549712 2.879576,-0.504982 4.036255,0.252904 1.719341,1.126555 1.67455,1.167619 -1.763849,1.617046 -1.841078,0.240644 -3.122459,0.10017 -3.834305,-0.420346 z m 10.954133,-0.795929 c 0.745949,-0.14344 1.825371,-0.137994 2.398716,0.0121 0.573346,0.150095 -0.03697,0.267455 -1.356269,0.260799 -1.319294,-0.0067 -1.788395,-0.129461 -1.042447,-0.272899 z m 0.630168,-2.384236 c 0.432893,-0.1732298 0.950116,-0.151925 1.149385,0.047345 0.199267,0.1992685 -0.154918,0.341002 -0.787079,0.3149634 -0.698592,-0.028773 -0.84069,-0.1708731 -0.362306,-0.3623063 z"
         id="path5066" />
      <path
         style="fill:#b9b9b9;fill-opacity:1;stroke-width:0.599679"
         d="m 17.041065,93.570079 c 0,-0.126443 0.540084,-0.37113 1.200186,-0.543753 0.660102,-0.172618 1.048959,-0.06917 0.864127,0.229899 -0.322778,0.522266 -2.064313,0.787042 -2.064313,0.313854 z m 31.34464,-2.584389 c 0.583468,-0.152043 1.393035,-0.142046 1.799037,0.02225 0.406002,0.16427 -0.07138,0.288668 -1.060851,0.276446 -0.98947,-0.01223 -1.321654,-0.146621 -0.738186,-0.298664 z M 59.990937,89.8756 c -0.184262,-0.480181 -0.815739,-0.891105 -1.403281,-0.913173 -0.587543,-0.02207 0.133295,-0.414516 1.601862,-0.872119 1.468569,-0.457603 2.952775,-0.612062 3.298232,-0.343238 0.873612,0.679796 4.526029,-0.953028 4.526029,-2.023377 0,-0.48219 0.549905,-1.170999 1.222008,-1.530705 1.318322,-0.70554 4.027486,-0.182776 3.186028,0.614779 -0.793213,0.751836 -6.830271,3.870634 -9.601226,4.960083 -2.15742,0.848228 -2.539915,0.862788 -2.829652,0.10775 z M 48.081444,89.77777 c 0.745949,-0.143438 1.825371,-0.137992 2.398716,0.01211 0.573346,0.150094 -0.03698,0.267457 -1.356269,0.260801 -1.319294,-0.0067 -1.788395,-0.129465 -1.042447,-0.272902 z M 34.053722,87.99454 c 0.218679,-0.389491 0.12334,-0.877666 -0.211863,-1.084831 -0.335204,-0.207165 -0.609461,-0.649872 -0.609461,-0.983791 0,-0.333914 0.441406,-0.165716 0.980903,0.373786 0.793633,0.793633 0.834081,1.11665 0.211864,1.691952 -0.585942,0.541756 -0.674377,0.542439 -0.371443,0.003 z m 11.659495,-0.601004 c 0.432893,-0.173229 0.950116,-0.151929 1.149385,0.04731 0.199268,0.199267 -0.154918,0.341001 -0.787079,0.314963 -0.698592,-0.02878 -0.84069,-0.170872 -0.362306,-0.362302 z m 5.99679,0 c 0.432893,-0.173229 0.950116,-0.151929 1.149384,0.04731 0.199268,0.199267 -0.154917,0.341001 -0.787078,0.314963 -0.698592,-0.02878 -0.84069,-0.170872 -0.362306,-0.362302 z m -7.379303,-1.382524 c -0.210091,-0.339934 0.03062,-0.440464 0.564288,-0.23568 1.038894,0.398661 1.228974,0.828493 0.366377,0.828493 -0.310359,0 -0.729158,-0.266767 -0.930665,-0.592813 z m 3.293989,0.09308 c 0,-0.384796 -0.607174,-0.73093 -1.349277,-0.76919 -1.110584,-0.05727 -1.152359,-0.120248 -0.236142,-0.356077 1.196179,-0.307888 2.671686,0.738624 1.9952,1.41511 -0.225379,0.225377 -0.409781,0.09495 -0.409781,-0.289843 z m 10.938939,0.158016 c 0.244506,-0.246103 0.147712,-0.805129 -0.215099,-1.242289 -0.510176,-0.614725 -0.296317,-0.932975 0.94376,-1.404454 1.99816,-0.759698 2.724696,-0.770666 2.724696,-0.04114 0,0.342626 0.729342,0.314231 1.835773,-0.07147 1.037319,-0.361613 1.713643,-0.958203 1.554986,-1.371664 -0.154429,-0.402438 0.473009,-1.176984 1.394308,-1.721211 1.435343,-0.847874 1.775733,-0.868245 2.378212,-0.142297 0.571698,0.688851 0.191562,1.147 -2.033781,2.45114 -2.782336,1.630551 -9.394573,4.360373 -8.582855,3.543377 z M 33.507579,82.965859 c -0.615308,-0.995593 -0.06303,-1.133651 0.797901,-0.199459 0.425282,0.461471 0.508673,0.839035 0.185311,0.839035 -0.323363,0 -0.765808,-0.28781 -0.983212,-0.639576 z m 14.878126,-0.975354 c 0.583468,-0.152042 1.393035,-0.142046 1.799037,0.02225 0.406002,0.164271 -0.07138,0.288668 -1.060851,0.276446 -0.98947,-0.01223 -1.321654,-0.146621 -0.738186,-0.298664 z m 8.821825,-1.09812 c -1.042911,-1.256627 -0.540754,-1.570763 2.816854,-1.762156 3.710002,-0.211477 4.991,-0.772387 4.991,-2.185423 0,-1.322556 0.770438,-1.475066 1.713187,-0.339124 0.515136,0.620698 0.10369,1.11611 -1.867646,2.248796 -2.317508,1.331587 -5.599542,2.794894 -6.518502,2.906296 -0.206983,0.02507 -0.717684,-0.365678 -1.134893,-0.868389 z m -9.432917,-0.09904 c 0.577191,-0.150831 1.521686,-0.150831 2.098877,0 0.577191,0.150837 0.104943,0.274251 -1.049439,0.274251 -1.154382,0 -1.626629,-0.123414 -1.049438,-0.274251 z m -12.743178,-3.1847 c -0.494735,-0.319725 -0.629663,-0.581311 -0.29984,-0.581311 0.329824,0 1.004463,0.261586 1.499198,0.581311 0.494735,0.319725 0.629663,0.581311 0.299839,0.581311 -0.329823,0 -1.004462,-0.261586 -1.499197,-0.581311 z m 17.590583,-0.873139 c 0,-0.480228 0.229282,-0.731434 0.509515,-0.558241 0.280232,0.173194 0.354259,0.566103 0.164502,0.873139 -0.484916,0.784608 -0.674017,0.696263 -0.674017,-0.314898 z m 2.804392,-0.01931 c -0.605446,-0.729516 -0.53675,-0.964608 0.376331,-1.287895 0.614337,-0.217503 1.994007,-0.746642 3.065933,-1.17585 1.275265,-0.510633 1.948957,-0.561492 1.948957,-0.147144 0,0.348276 0.337319,0.495323 0.749599,0.326766 0.412279,-0.168558 1.28931,-0.489315 1.948956,-0.712791 l 1.199358,-0.406324 -1.199358,1.008024 c -1.195633,1.004918 -5.967562,3.287662 -6.872597,3.287662 -0.262094,0 -0.809825,-0.401593 -1.217179,-0.892424 z M 37.694687,73.677623 c -1.097596,-0.879327 -1.078461,-0.891812 0.335143,-0.218583 1.835636,0.874218 2.175838,1.15121 1.41392,1.15121 -0.321754,0 -1.108833,-0.419667 -1.749063,-0.932603 z m -8.660042,-0.266731 c -0.540486,-0.349289 -0.614451,-0.584981 -0.185311,-0.590498 0.392814,-0.0048 0.880987,0.260675 1.08483,0.590498 0.460136,0.74452 0.252538,0.74452 -0.899519,0 z m 19.486949,-0.603913 c -0.416537,-0.673973 1.339638,-1.557192 1.927465,-0.969369 0.205657,0.20566 -0.143301,0.400826 -0.775462,0.4337 -0.895175,0.04654 -0.817806,0.165967 0.349812,0.539903 1.395608,0.446953 1.408412,0.484259 0.185311,0.539903 -0.722637,0.03286 -1.481844,-0.211986 -1.687126,-0.544137 z m 6.008438,0.01883 c -0.215459,-0.348623 -0.677961,-0.456967 -1.027783,-0.240765 -0.354742,0.219243 -0.521637,0.04989 -0.377366,-0.382925 0.142271,-0.426809 1.400182,-1.11307 2.795357,-1.525013 1.395176,-0.41195 2.866216,-1.022483 3.268978,-1.356744 0.502002,-0.416627 1.055315,-0.371555 1.759452,0.143323 0.924612,0.676096 0.804706,0.873816 -1.201058,1.980476 -3.051864,1.683845 -4.752488,2.13418 -5.21758,1.381648 z M 25.959758,69.962738 c -0.745923,-0.951127 -0.724713,-0.972337 0.226412,-0.226415 0.577191,0.452668 1.049438,0.924915 1.049438,1.049438 0,0.49356 -0.492448,0.175892 -1.27585,-0.823023 z m 14.356348,0.04012 c 0.432893,-0.17323 0.950116,-0.151929 1.149385,0.04731 0.199268,0.199274 -0.154918,0.341002 -0.787079,0.314964 -0.698592,-0.02878 -0.84069,-0.170873 -0.362306,-0.362302 z M 27.835287,65.615065 c -0.540486,-0.349289 -0.614451,-0.58498 -0.185311,-0.590497 0.392814,-0.0048 0.880987,0.260674 1.08483,0.590497 0.460136,0.74452 0.252538,0.74452 -0.899519,0 z m 6.296629,0.140739 c -0.329823,-0.242318 -0.996296,-0.980289 -1.48105,-1.639936 -0.650855,-0.885672 -0.454802,-0.819126 0.749599,0.25445 1.467771,1.308343 1.914406,1.861787 1.48105,1.835245 -0.08246,-0.0048 -0.419775,-0.207441 -0.749599,-0.449759 z M 20.686482,61.0675 c 0.02877,-0.698592 0.170873,-0.84069 0.362306,-0.362306 0.17323,0.432893 0.151925,0.950113 -0.04734,1.149386 -0.199269,0.199268 -0.341002,-0.154921 -0.314964,-0.78708 z m 2.712983,-3.148315 c -0.169868,-0.274853 0.07219,-0.499733 0.537909,-0.499733 0.465718,0 0.707777,0.22488 0.537908,0.499733 -0.169868,0.274853 -0.411927,0.499733 -0.537908,0.499733 -0.125981,0 -0.368041,-0.22488 -0.537909,-0.499733 z m -0.913946,-3.448154 c 0.02877,-0.698592 0.170873,-0.84069 0.362306,-0.362306 0.17323,0.432893 0.151925,0.950116 -0.04734,1.149385 -0.199269,0.199268 -0.341002,-0.154918 -0.314964,-0.787079 z M 12.36054,53.321646 c 0.01222,-0.98947 0.146621,-1.321654 0.298666,-0.738185 0.152044,0.583468 0.142045,1.393034 -0.02222,1.799037 -0.164269,0.406001 -0.288669,-0.07138 -0.276448,-1.060852 z m 8.972965,-0.299839 c 0,-0.824559 0.136111,-1.161878 0.302469,-0.749599 0.166358,0.412279 0.166358,1.086918 0,1.499198 -0.166358,0.412279 -0.302469,0.07496 -0.302469,-0.749599 z m 5.020113,-2.57258 c -0.286423,-1.415666 -0.173261,-3.296264 0.300077,-4.986859 0.636107,-2.271953 0.891151,-2.582871 1.565526,-1.908496 0.619039,0.619039 0.684806,1.635108 0.283969,4.387179 -0.286908,1.969857 -0.581457,3.176775 -0.654553,2.68204 -0.07325,-0.495815 -0.335375,-0.226679 -0.584046,0.599679 -0.42434,1.410125 -0.478464,1.364166 -0.910973,-0.773543 z M 8.4606535,49.123893 C 8.1093183,46.857077 8.2966694,44.960275 9.2285148,41.3498 c 1.1928562,-4.621775 2.4154402,-7.121718 2.4154402,-4.939101 0,0.5607 0.27935,1.019454 0.620778,1.019454 0.421662,0 0.427318,0.361483 0.01764,1.126985 -0.331729,0.619842 -0.919206,3.040815 -1.305504,5.37994 -0.386299,2.339125 -0.917318,4.120104 -1.1800434,3.95773 -0.262726,-0.162373 -0.5662793,0.722384 -0.6745633,1.966128 -0.19543,2.244703 -0.2003012,2.239276 -0.6616018,-0.737043 z m 1.431607,1.749064 c 0.028773,-0.698592 0.1708735,-0.84069 0.3623065,-0.362306 0.17323,0.432893 0.151925,0.950116 -0.04734,1.149385 -0.199268,0.199268 -0.341002,-0.154917 -0.3149633,-0.787079 z m 12.3833075,-0.09452 c -0.936115,-1.037663 -0.981224,-1.561383 -0.380215,-4.414338 0.816963,-3.878083 1.991909,-6.165772 1.460044,-2.842793 -0.227964,1.424262 -0.104424,2.275446 0.352353,2.427705 0.50909,0.169696 0.555131,1.031737 0.166671,3.120617 -0.523676,2.815977 -0.562551,2.857525 -1.598853,1.708809 z M 17.76068,49.903476 c -0.954081,-0.954081 -0.908535,-2.179716 0.252809,-6.803049 0.985217,-3.922169 1.418373,-4.473487 2.452587,-3.121638 0.695968,0.90972 -0.486172,5.410424 -1.348251,5.133129 -0.317659,-0.102177 -0.662925,0.853169 -0.767257,2.122993 -0.125033,1.521769 0.02828,2.174054 0.449759,1.913565 0.3517,-0.217363 0.639454,0.0255 0.639454,0.539705 0,1.116622 -0.689382,1.205014 -1.679101,0.215295 z m -5.190251,-2.4287 c 0.438902,-3.280651 1.504412,-7.644199 2.205937,-9.033904 0.414554,-0.821219 0.743851,-0.926698 1.34236,-0.429979 0.656801,0.545096 0.649616,1.13479 -0.04182,3.43226 -0.459182,1.525746 -0.839009,3.743154 -0.84406,4.927573 -0.0066,1.557629 -0.163043,1.910218 -0.565247,1.274289 -0.446335,-0.705703 -0.678267,-0.557782 -1.175333,0.749599 -0.908427,2.389349 -1.310835,1.987814 -0.921835,-0.919838 z m 58.106602,1.06851 c -0.773682,-0.585182 -0.889216,-0.886842 -0.344515,-0.899518 0.51062,-0.01188 0.705738,-0.454247 0.517636,-1.173563 -0.190452,-0.728276 -0.04156,-1.054576 0.403375,-0.88385 0.601262,0.230727 1.336534,3.837378 0.782305,3.837378 -0.107109,0 -0.718572,-0.396201 -1.358801,-0.880447 z m 4.091028,-0.468831 c -0.835808,-1.0642 -1.435571,-4.647512 -0.777891,-4.647512 0.302112,0 0.718799,0.274257 0.925964,0.609461 0.207165,0.335203 0.57607,0.486225 0.819779,0.335604 0.24371,-0.150622 0.505853,0.789471 0.582534,2.089094 0.140295,2.377682 -0.459714,3.002061 -1.550386,1.613353 z m 3.269228,-4.637109 c -0.265832,-1.016531 -0.143089,-1.099134 0.846369,-0.569591 0.636511,0.34065 0.998885,0.87568 0.805267,1.188955 -0.575152,0.930614 -1.319282,0.651565 -1.651636,-0.619364 z m -6.68672,-4.032373 c -0.325434,-0.854661 -0.256555,-0.923543 0.3357,-0.335697 0.409833,0.406782 0.594084,0.890667 0.409449,1.075301 -0.184635,0.184634 -0.519952,-0.148188 -0.745149,-0.739604 z m -8.471785,-3.923776 -1.761311,-1.948957 1.948956,1.761312 c 1.071926,0.968721 1.948957,1.845752 1.948957,1.948956 0,0.463289 -0.494813,0.05539 -2.136602,-1.761311 z m 0.26107,-1.499198 c -0.745923,-0.951124 -0.724712,-0.972335 0.226415,-0.226412 0.998915,0.783402 1.316583,1.27585 0.823023,1.27585 -0.124523,0 -0.59677,-0.472247 -1.049438,-1.049438 z m 10.538584,0.397508 c -0.221605,-0.358562 -0.133062,-0.921786 0.196761,-1.25161 0.399788,-0.399785 0.753077,-0.351483 1.059861,0.144907 0.31771,0.514067 0.214289,0.592616 -0.334063,0.253717 -0.576694,-0.356416 -0.689355,-0.217539 -0.411314,0.507024 0.430467,1.12178 0.104548,1.342332 -0.511245,0.345962 z m -27.5873,-4.99599 c -1.724824,-1.261221 -0.69335,-1.753873 2.555294,-1.220458 1.581897,0.259742 2.400626,0.582531 1.819397,0.717308 -0.581229,0.134778 -0.902623,0.494483 -0.714208,0.799344 0.543453,0.879325 -2.375925,0.643099 -3.660483,-0.296194 z m 25.488436,-1.398308 -2.066596,-2.248796 2.248796,2.066594 c 1.236838,1.136627 2.248797,2.148585 2.248797,2.248796 0,0.457927 -0.507461,0.02654 -2.430997,-2.066594 z m -3.922608,-0.299839 -1.142383,-1.349278 1.349278,1.142381 c 1.267985,1.073557 1.622276,1.556175 1.142383,1.556175 -0.113796,0 -0.72097,-0.607175 -1.349278,-1.349278 z m 5.450758,-1.053115 c -0.598803,-0.661669 -0.977945,-1.309878 -0.842543,-1.440464 0.135408,-0.130587 0.731039,0.410779 1.323623,1.203034 1.308734,1.749694 1.017554,1.893401 -0.48108,0.23743 z m 1.266222,-0.504816 -1.135822,-1.590384 1.402349,1.33262 c 0.77129,0.732941 1.282408,1.448614 1.135816,1.590385 -0.146585,0.14177 -0.777639,-0.457909 -1.402343,-1.332621 z m -9.544365,-0.352528 c -0.596926,-0.452582 -0.853331,-0.966256 -0.569785,-1.141497 0.283547,-0.175241 0.841692,0.203636 1.240322,0.841949 0.851455,1.36339 0.776669,1.396798 -0.670537,0.299548 z M 44.680125,24.601912 c -1.134897,-1.367467 3.614584,-1.57513 5.041485,-0.22043 1.069347,1.015238 1.008203,1.055092 -1.618727,1.055092 -1.60085,0 -3.016568,-0.345233 -3.422758,-0.834662 z m 35.250738,-0.814456 c -0.745922,-0.951124 -0.724712,-0.972335 0.226415,-0.226411 0.998915,0.783402 1.316583,1.27585 0.823024,1.27585 -0.124524,0 -0.596771,-0.472248 -1.049439,-1.049439 z M 44.812266,20.380391 c -0.392454,-0.447045 -0.549869,-0.976491 -0.349813,-1.176547 0.781793,-0.781794 4.137939,-0.277481 5.560956,0.835619 l 1.499198,1.172689 -2.998395,-0.0095 c -1.761462,-0.0056 -3.292758,-0.34476 -3.711946,-0.82226 z m 19.00376,-0.340928 c -0.653632,-0.422408 -0.684935,-0.583824 -0.114527,-0.590496 0.457339,-0.0053 0.604938,-0.322059 0.353613,-0.758782 -0.237257,-0.412279 -0.200395,-0.539396 0.08192,-0.282482 0.425796,0.387497 0.992547,2.252326 0.675377,2.222256 -0.05328,-0.0051 -0.501644,-0.270774 -0.996379,-0.590496 z m 11.917085,-0.449759 c -0.745923,-0.951125 -0.724712,-0.972336 0.226414,-0.226412 0.998916,0.783402 1.316584,1.27585 0.823024,1.27585 -0.124524,0 -0.596771,-0.472247 -1.049438,-1.049438 z M 43.426941,15.54187 c -0.797815,-0.961308 -0.629273,-1.00855 3.598073,-1.00855 2.558619,0 2.579885,0.01353 1.584866,1.00855 -0.494735,0.494736 -1.695318,0.899519 -2.667962,0.899519 -0.972644,0 -2.104384,-0.404783 -2.514977,-0.899519 z m 8.283066,-1.309167 c 0.432893,-0.17323 0.950116,-0.151925 1.149384,0.04734 0.199268,0.199268 -0.154917,0.341002 -0.787078,0.314963 -0.698592,-0.02877 -0.84069,-0.170873 -0.362306,-0.362306 z m -9.067213,-2.84911 c -0.987719,-0.748908 -0.867892,-0.858408 1.349277,-1.232997 2.595911,-0.4385755 7.028218,0.08091 7.523165,0.881755 0.164314,0.265867 -0.66167,0.266783 -1.83552,0.002 -1.617085,-0.364712 -2.212877,-0.276519 -2.458646,0.363946 -0.411389,1.072061 -3.156573,1.063222 -4.578276,-0.01474 z"
         id="path5064" />
      <path
         style="fill:#a3a3a3;fill-opacity:1;stroke-width:0.599679"
         d="M 15.669887,97.757895 C 4.6697097,94.748616 1.758904,79.995044 10.804211,73.095953 l 2.393003,-1.825201 -1.601755,-3.577445 C 9.5053626,63.025178 8.0279737,56.361821 8.1168317,52.003909 c 0.055302,-2.712271 0.1618474,-3.082929 0.4830978,-1.680658 0.2266811,0.989471 0.7344646,1.731573 1.1284075,1.649118 0.453611,-0.09495 0.718869,0.674701 0.723377,2.098876 0.0039,1.236838 0.380794,3.652351 0.83751,5.367807 0.553756,2.079942 0.622466,3.188323 0.206251,3.327059 -0.41944,0.139815 -0.3794,0.949621 0.122081,2.469124 0.462308,1.400808 1.037211,2.149417 1.511036,1.967594 1.137232,-0.436398 2.410073,2.632063 1.394523,3.361801 -0.557894,0.400885 -0.467204,0.459102 0.3182,0.204274 0.604167,-0.196023 1.59017,-0.356407 2.191118,-0.356407 0.980602,0 0.918867,-0.322807 -0.602097,-3.148314 -2.62341,-4.873531 -5.001625,-16.666339 -3.542859,-17.567906 0.305533,-0.188829 0.555515,0.07738 0.555515,0.591583 0,0.5142 0.238762,0.93491 0.530582,0.93491 0.29182,0 0.722256,1.534111 0.956525,3.409135 0.234269,1.875024 0.656629,4.015886 0.93858,4.75747 0.333951,0.878361 0.281068,1.425525 -0.151721,1.569788 -0.414038,0.138013 -0.506235,0.851461 -0.244694,1.893523 0.262332,1.045211 0.717704,1.557696 1.214653,1.367004 0.505913,-0.19414 1.295683,0.763931 2.171942,2.63478 1.186882,2.534045 3.115893,4.221344 3.913823,3.423417 0.134266,-0.134268 -0.689598,-2.002532 -1.830812,-4.151703 -2.506076,-4.71952 -4.032095,-10.346968 -3.783992,-13.954092 0.159831,-2.323736 0.305074,-2.57115 1.146014,-1.952176 0.990411,0.728991 2.005077,7.836671 1.032966,7.235873 -0.672449,-0.415596 -0.627066,1.141988 0.08808,3.022966 0.32166,0.84603 0.996299,1.538237 1.499197,1.538237 0.502899,0 0.914361,0.307473 0.914361,0.683274 0,0.375801 0.821354,2.018147 1.825232,3.649652 1.003877,1.631511 1.564011,2.804939 1.244743,2.60762 -0.319269,-0.197318 -0.675505,0.116788 -0.791635,0.69802 -0.183984,0.920838 0.927508,1.737145 3.71845,2.730915 0.164912,0.05871 0.928785,0.785483 1.697496,1.615031 0.768711,0.829548 1.226971,1.174082 1.018355,0.765634 -0.208615,-0.408441 0.541084,-0.138586 1.665997,0.599679 1.124914,0.738271 1.926596,1.661387 1.781515,2.051376 -0.353029,0.948962 3.452112,2.926439 3.98185,2.069306 0.406749,-0.658135 7.244754,0.798131 7.845157,1.67076 0.629709,0.915212 2.704612,1.275433 5.195261,0.901941 1.423575,-0.21348 2.458011,-0.598989 2.298747,-0.856683 -0.511852,-0.828193 2.767562,-1.287385 3.695306,-0.517421 1.398563,1.160702 -0.425729,1.817315 -6.015655,2.165189 -5.611699,0.349235 -10.103227,-0.435403 -14.705758,-2.569001 -1.779509,-0.824925 -3.310519,-1.424813 -3.402246,-1.333087 -0.476106,0.476104 0.789624,4.306019 1.501497,4.543306 0.527,0.17567 0.710124,-0.03514 0.501898,-0.577766 -0.252888,-0.659018 0.582175,-0.544161 3.652435,0.502369 2.189154,0.746198 4.654919,1.384994 5.479478,1.419548 0.824558,0.03454 1.160196,0.199495 0.745862,0.366542 -1.245919,0.502303 -0.195175,1.400634 1.638272,1.400634 0.942519,0 1.849783,-0.33732 2.016141,-0.749599 0.241976,-0.599679 0.311939,-0.599679 0.349814,0 0.06405,1.014117 3.04809,0.954809 3.879145,-0.0771 0.967991,-1.201936 4.933561,-1.671983 5.755045,-0.682159 0.922928,1.112063 0.246916,1.404293 -4.906647,2.121089 -5.045385,0.70175 -11.11442,0.06428 -16.410623,-1.723705 l -3.283557,-1.108525 -0.345293,1.37576 c -0.432782,1.724335 0.214433,2.909684 1.170285,2.143324 0.79173,-0.634772 10.723497,1.599314 10.282435,2.312968 -0.411203,0.665338 3.944634,1.201109 6.454184,0.793867 1.224292,-0.198673 2.091193,-0.579326 1.926447,-0.845889 -0.375058,-0.606857 4.782618,-1.419398 6.012938,-0.947283 1.849905,0.709876 0.801113,1.480308 -2.890231,2.123128 -7.30962,1.272914 -17.344182,0.321056 -22.078038,-2.094271 -1.467142,-0.748574 -1.6141,-0.708737 -1.928665,0.522836 -0.561293,2.197547 -3.809423,5.643705 -6.527077,6.925015 -3.498888,1.649645 -6.815414,1.995222 -10.21717,1.06461 z m 7.565149,-4.775898 c 6.161472,-2.574421 7.66351,-10.652157 2.871765,-15.443904 -3.889849,-3.889848 -9.444191,-3.889848 -13.334039,0 -7.3957468,7.395751 0.793213,19.4839 10.462274,15.443904 z m -4.994613,-0.792158 c 0,-0.535045 -1.079422,-1.969327 -2.398716,-3.187293 -2.071532,-1.912431 -2.398715,-2.560522 -2.398715,-4.751443 0,-3.555089 2.46876,-6.042779 5.996789,-6.042779 6.701881,0 8.262268,8.533714 2.385613,13.046856 -2.259206,1.735021 -3.584971,2.08067 -3.584971,0.934659 z M 44.21842,78.179096 C 32.164467,76.050619 22.844449,65.822458 21.650641,53.412299 c -0.330958,-3.440458 -0.315212,-3.487341 0.824747,-2.455692 1.282684,1.160813 1.518727,2.446072 0.510925,2.782006 -0.829613,0.276538 0.211305,4.433707 1.067383,4.262863 0.712233,-0.142137 3.503561,6.332129 3.295124,7.642782 -0.08123,0.510788 0.534702,1.569785 1.368744,2.353326 0.981497,0.922066 1.516439,1.136626 1.516439,0.608212 0,-0.514848 0.609133,-0.24988 1.649117,0.71736 0.907015,0.843569 2.39122,2.004511 3.298235,2.579879 0.907014,0.575362 1.649117,1.410367 1.649117,1.855569 0,0.445196 0.52197,1.088801 1.159934,1.430228 1.396271,0.74726 3.23315,0.822304 2.795521,0.114203 -0.427489,-0.691693 7.645991,1.140272 8.10101,1.838208 0.546589,0.838399 4.462488,0.306472 4.284787,-0.582036 -0.202029,-1.010147 1.332469,-0.954185 2.190675,0.07989 0.529062,0.637483 0.486027,0.907146 -0.18592,1.164996 -1.806026,0.693037 -7.963606,0.903759 -10.958059,0.375004 z M 42.399114,73.140587 C 33.739232,70.43417 26.90332,62.208007 26.304866,53.773188 l -0.244774,-3.449937 0.758041,2.278406 c 0.416923,1.253124 0.95127,2.085178 1.187438,1.84901 0.236167,-0.236167 0.432031,-0.0471 0.435253,0.42015 0.0032,0.46725 0.658082,2.250392 1.455245,3.962538 0.940189,2.019338 1.214542,3.19127 0.780925,3.335811 -0.897736,0.299246 1.378003,3.402105 2.513515,3.427058 1.321408,0.02902 6.525714,3.789161 6.835799,4.938884 0.315628,1.170279 3.335129,2.135061 3.914758,1.250834 0.482003,-0.735296 4.996506,-0.243242 4.540327,0.494873 -0.566446,0.916531 1.326545,1.245947 3.581666,0.623276 1.181773,-0.326303 2.282692,-0.376442 2.446486,-0.111414 0.834757,1.350663 -8.08218,1.606834 -12.110431,0.34791 z M 70.498819,44.476381 c -0.360977,-0.907014 -1.067783,-1.649117 -1.57068,-1.649117 -0.502896,0 -0.91436,-0.229248 -0.91436,-0.509439 0,-0.280191 -0.783325,-1.675782 -1.740724,-3.101313 -0.957394,-1.42553 -1.615631,-2.917854 -1.462743,-3.316275 0.152888,-0.39842 -0.474071,-1.315966 -1.393246,-2.038989 -0.919176,-0.723023 -1.762103,-1.041974 -1.873164,-0.708781 -0.112482,0.33745 -1.420205,-0.04195 -2.952135,-0.856487 -1.51261,-0.804263 -3.114791,-1.462296 -3.560402,-1.462296 -0.445612,0 -0.810203,-0.359555 -0.810203,-0.799012 0,-0.459746 -1.209482,-1.082411 -2.848475,-1.466451 l -2.848475,-0.667439 3.548372,0.234108 c 4.767201,0.314522 10.148824,3.009941 13.797313,6.910468 2.878537,3.077389 6.060859,8.993433 5.561039,10.338142 -0.152409,0.410031 -0.569438,0.0042 -0.932117,-0.907119 z m 4.215605,-0.452956 c -0.767265,-0.63946 -1.213517,-1.456336 -0.991677,-1.815281 0.62766,-1.01558 -0.95352,-4.290519 -1.896761,-3.928563 -0.447594,0.171758 -0.813812,0.0889 -0.813812,-0.184141 0,-0.273036 -1.037727,-1.681308 -2.306066,-3.129494 -1.268333,-1.448185 -2.200186,-2.940852 -2.070775,-3.317036 0.129404,-0.376185 -0.513008,-1.272579 -1.42759,-1.991988 -0.93394,-0.734639 -1.754877,-1.031988 -1.872768,-0.678326 -0.124403,0.37321 -1.40446,0.02436 -3.14272,-0.856488 -1.613055,-0.817398 -3.338112,-1.486176 -3.83346,-1.486176 -0.51858,0 -0.766169,-0.350408 -0.583655,-0.826034 0.381279,-0.993595 -3.909564,-2.01309 -4.493831,-1.067725 -0.226778,0.366934 -0.80406,0.271831 -1.51776,-0.25004 -1.809649,-1.323248 -0.821935,-1.55431 3.614562,-0.845575 10.459629,1.670933 19.515909,9.614324 22.391106,19.639558 0.305992,1.066925 0.507718,1.930886 0.448284,1.919913 -0.05943,-0.01097 -0.735818,-0.543145 -1.503077,-1.182604 z m 4.193639,-1.05494 c -1.114108,-0.382406 -3.303542,-5.64064 -2.544096,-6.110004 0.756999,-0.467849 -1.430852,-3.912394 -2.489999,-3.920257 -1.00863,-0.0075 -5.751317,-5.227755 -5.468971,-6.019685 0.264573,-0.742066 -2.762247,-2.630379 -4.006473,-2.499484 -1.488331,0.156575 -7.178967,-2.216696 -7.178967,-2.993978 0,-1.044416 -4.202718,-1.748202 -4.787663,-0.801741 -0.349754,0.565914 -0.864118,0.477945 -2.16755,-0.370701 l -1.708976,-1.112691 1.949401,-0.189109 c 6.103878,-0.592131 15.95541,3.84162 21.602293,9.722264 5.092953,5.303781 9.872203,15.349542 6.801001,14.295386 z m 3.199371,-3.743068 c 0.487977,-1.537482 -0.201216,-3.727521 -1.080765,-3.434337 -0.372875,0.124291 -1.672313,-1.312484 -2.88764,-3.192834 -1.215334,-1.880349 -2.535299,-3.620053 -2.933258,-3.866008 -0.554619,-0.342771 -0.53916,-0.561162 0.0662,-0.935298 1.119889,-0.69213 -1.146562,-3.129961 -2.565054,-2.759016 -0.578037,0.151159 -1.351491,-0.08727 -1.718794,-0.529841 -0.367298,-0.44257 -1.995306,-1.656522 -3.617798,-2.69767 -1.622485,-1.041148 -2.808536,-2.121852 -2.635667,-2.401564 0.371196,-0.600607 -1.618635,-1.768102 -3.013483,-1.768102 -0.535881,0 -0.823963,0.243299 -0.640182,0.540664 0.183782,0.297365 -0.922603,0.162437 -2.458632,-0.29984 -1.53603,-0.462277 -3.405256,-0.840503 -4.153836,-0.840503 -0.748581,0 -1.76584,-0.404783 -2.260575,-0.899519 -0.494735,-0.494735 -1.307651,-0.899518 -1.806479,-0.899518 -0.49883,0 -1.081422,-0.282282 -1.29465,-0.627292 -0.477561,-0.77271 4.433549,-0.241901 9.61193,1.03889 9.000432,2.226115 18.26107,9.572674 22.647266,17.966304 2.465478,4.718061 2.704588,5.902113 1.30068,6.440843 -0.720628,0.27653 -0.850567,0.08244 -0.559267,-0.835359 z m 4.202814,-1.814991 c 0.496139,-1.563189 -1.43683,-5.252015 -2.156511,-4.115432 -0.340846,0.538293 -0.533217,0.582977 -0.539124,0.125231 -0.0048,-0.391432 -1.231051,-2.496416 -2.724443,-4.677743 -1.493393,-2.181327 -2.582416,-4.181005 -2.420041,-4.443731 0.380665,-0.615924 -2.921072,-3.798845 -3.421522,-3.298396 -0.207903,0.207903 -2.041469,-0.732814 -4.074591,-2.09048 -2.033121,-1.357668 -3.935693,-2.468486 -4.227929,-2.468486 -0.292241,0 -0.531345,-0.480549 -0.531345,-1.067886 0,-1.201671 -3.534082,-2.834052 -4.356074,-2.012058 -0.279529,0.279526 -2.044853,0.146585 -3.922948,-0.295422 -1.878095,-0.442009 -4.156821,-0.807868 -5.063835,-0.813019 -0.934692,-0.0053 -1.58417,-0.311108 -1.499198,-0.70588 0.08246,-0.383081 -0.524719,-0.895893 -1.349278,-1.139581 -3.114603,-0.9204849 3.604247,-0.5754422 7.977287,0.409668 12.976241,2.923146 23.51344,11.582563 28.843627,23.703549 1.456044,3.311079 1.46279,3.394228 0.300043,3.698294 -0.946353,0.247478 -1.116854,0.08219 -0.834118,-0.808628 z"
         id="path5062" />
    </g>
  </g>
</svg>
