<?xml version="1.0" encoding="UTF-8" standalone="no"?>
<!-- Created with Inkscape (http://www.inkscape.org/) -->

<svg
   width="100mm"
   height="100mm"
   viewBox="0 0 100 100"
   version="1.1"
   id="svg4119"
   inkscape:version="1.1.1 (3bf5ae0d25, 2021-09-20)"
   sodipodi:docname="add_list_type_device_615abc.svg"
   xmlns:inkscape="http://www.inkscape.org/namespaces/inkscape"
   xmlns:sodipodi="http://sodipodi.sourceforge.net/DTD/sodipodi-0.dtd"
   xmlns="http://www.w3.org/2000/svg"
   xmlns:svg="http://www.w3.org/2000/svg">
  <sodipodi:namedview
     id="namedview4121"
     pagecolor="#ffffff"
     bordercolor="#666666"
     borderopacity="1.0"
     inkscape:pageshadow="2"
     inkscape:pageopacity="0.0"
     inkscape:pagecheckerboard="0"
     inkscape:document-units="mm"
     showgrid="false"
     width="100mm"
     inkscape:zoom="0.58974467"
     inkscape:cx="378.97757"
     inkscape:cy="218.73873"
     inkscape:window-width="1440"
     inkscape:window-height="890"
     inkscape:window-x="-6"
     inkscape:window-y="-6"
     inkscape:window-maximized="1"
     inkscape:current-layer="layer1" />
  <defs
     id="defs4116" />
  <g
     inkscape:label="Laag 1"
     inkscape:groupmode="layer"
     id="layer1">
    <g
       id="g4135"
       transform="translate(-3.6610765,0.32597269)">
      <path
         style="fill:#d0d0d0;fill-opacity:1;stroke-width:0.602448"
         d="m 19.205383,93.201689 c 0.19584,-0.316876 0.754043,-0.423419 1.240452,-0.236768 1.245329,0.47788 1.098578,0.812908 -0.356073,0.812908 -0.682248,0 -1.080218,-0.259264 -0.884379,-0.57614 z m -6.386292,-2.28549 c -0.749368,-0.95552 -0.72806,-0.976828 0.227457,-0.227461 0.579857,0.454758 1.054285,0.929187 1.054285,1.054285 0,0.495839 -0.494722,0.176704 -1.281742,-0.826824 z m 27.488248,0.158787 c -4.674916,-1.034265 -6.928157,-1.925341 -6.928157,-2.739839 0,-0.359101 0.271102,-0.485362 0.602449,-0.280578 0.331346,0.204784 0.602448,0.08523 0.602448,-0.265668 0,-0.350902 -0.325322,-0.638005 -0.722938,-0.638005 -0.516788,0 -0.537765,-0.185174 -0.07356,-0.649373 0.464202,-0.464205 1.829948,-0.271481 4.789465,0.675857 6.258405,2.003303 15.684025,1.890037 22.34277,-0.268505 6.059097,-1.964151 12.990217,-6.46782 16.869895,-10.96164 2.809078,-3.253739 2.835676,-3.267632 4.009222,-2.09408 1.173551,1.173545 1.166044,1.200107 -1.131591,4.004071 -4.698122,5.733435 -14.576884,11.565202 -22.398263,13.222453 -5.03863,1.067617 -13.12442,1.065508 -17.961738,-0.0048 z M 53.25998,90.238444 c 0,-0.289928 -1.762162,-0.527142 -3.915915,-0.527142 -2.153753,0 -3.915915,0.237214 -3.915915,0.527142 0,0.289929 1.762162,0.527143 3.915915,0.527143 2.153753,0 3.915915,-0.237214 3.915915,-0.527143 z M 66.767831,87.0628 c 0.833565,-0.379795 1.373142,-0.921005 1.199053,-1.202686 -0.174084,-0.28168 -1.114439,-0.09952 -2.089677,0.404791 -2.806982,1.451546 -2.044071,2.135029 0.890624,0.797895 z M 79.69112,76.381703 c -0.405755,-0.13525 -1.232266,0.364807 -1.836696,1.11124 -1.772602,2.189081 -1.261015,2.809259 0.737734,0.894335 1.140152,-1.092329 1.556919,-1.85292 1.098962,-2.005575 z M 14.626436,88.506405 c -0.749368,-0.955519 -0.728059,-0.976828 0.227458,-0.22746 0.579856,0.454758 1.054284,0.929186 1.054284,1.054284 0,0.49584 -0.494722,0.176705 -1.281742,-0.826824 z m 28.611141,-1.372383 c -4.24794,-0.763188 -8.796935,-2.522006 -9.133371,-3.531312 -0.169263,-0.507792 -0.01136,-0.671326 0.401716,-0.416033 0.374333,0.231352 0.680605,0.149534 0.680605,-0.181813 0,-0.331346 -0.271101,-0.769995 -0.602448,-0.974779 -0.331347,-0.204785 -0.602448,-0.617799 -0.602448,-0.917818 0,-0.300014 1.160055,-0.0482 2.577902,0.559536 5.635788,2.415776 13.450421,3.127351 19.833648,1.805983 7.636299,-1.58077 16.232412,-7.384427 20.647112,-13.939885 l 1.963675,-2.915886 0.395206,2.471496 c 0.478464,2.992133 -0.407219,4.428605 -5.66316,9.184959 -3.81095,3.44871 -9.012688,6.298779 -14.4325,7.907665 -4.104556,1.218446 -11.975265,1.682819 -16.065937,0.947887 z m 5.202815,-1.188023 c 0,-0.331346 -0.829305,-0.602448 -1.8429,-0.602448 -1.07519,0 -1.687794,0.250968 -1.470566,0.602448 0.204784,0.331347 1.034088,0.602449 1.8429,0.602449 0.808812,0 1.470566,-0.271102 1.470566,-0.602449 z m 3.915915,0 c 0.217228,-0.35148 -0.395376,-0.602448 -1.470566,-0.602448 -1.013595,0 -1.8429,0.271102 -1.8429,0.602448 0,0.331347 0.661754,0.602449 1.470566,0.602449 0.808812,0 1.638116,-0.271102 1.8429,-0.602449 z m 12.952641,-3.711395 c 0,-0.665718 -0.434576,-0.637981 -1.84695,0.117899 -1.731726,0.926795 -1.429086,1.880513 0.340829,1.074087 0.828366,-0.377434 1.506121,-0.913824 1.506121,-1.191986 z m 9.943742,-7.136369 c 1.610622,-1.779717 0.748373,-2.059614 -0.909245,-0.295158 -0.776984,0.82706 -1.136357,1.503748 -0.798606,1.503748 0.337751,0 1.106282,-0.543866 1.707851,-1.20859 z m -65.229226,9.040419 c 0,-1.159713 0.123981,-1.634141 0.275514,-1.054285 0.151532,0.579857 0.151532,1.528713 0,2.10857 -0.151533,0.579856 -0.275514,0.105428 -0.275514,-1.054285 z m 18.675901,0 c 0,-1.159713 0.123981,-1.634141 0.275513,-1.054285 0.151532,0.579857 0.151532,1.528713 0,2.10857 -0.151532,0.579856 -0.275513,0.105428 -0.275513,-1.054285 z m 12.812871,-2.047439 c -5.801712,-1.567709 -8.647167,-2.940623 -8.998865,-4.341906 -0.370464,-1.476041 -6.80943,-8.671865 -7.759759,-8.671865 -0.328845,0 -0.116181,0.532293 0.472587,1.182877 1.046031,1.155852 1.035274,1.166256 -0.470863,0.455469 C 22.8994,69.839933 20.012724,65.18385 18.510508,60.643166 16.861637,55.659191 17.012439,44.710267 18.796453,39.882272 23.332049,27.607797 34.180348,19.447445 47.059653,18.62201 c 8.551542,-0.548068 15.412365,1.489762 22.014194,6.538748 6.93938,5.30714 13.220862,16.385417 10.742101,18.945199 -0.304815,0.31478 -0.681761,3.554446 -0.837657,7.199259 -0.155895,3.644813 -0.488007,7.412755 -0.738035,8.373204 -0.325208,1.249262 -0.258264,1.624939 0.235208,1.319955 1.633189,-1.009368 0.565253,3.265374 -1.68591,6.748363 -4.171781,6.454554 -9.831133,11.027294 -16.692747,13.487681 -4.452817,1.596657 -14.185917,2.045379 -18.584571,0.856796 z m 11.747744,-0.90169 c 0,-0.296634 -1.626611,-0.524016 -3.614691,-0.505286 -1.98808,0.01874 -3.61469,0.261427 -3.61469,0.539336 0,0.277903 1.62661,0.505285 3.61469,0.505285 1.98808,0 3.614691,-0.242702 3.614691,-0.539335 z M 55.22987,79.03635 C 70.063416,75.893057 80.370013,61.196467 78.022922,46.534817 75.484404,30.677366 60.306979,19.475213 44.885094,22.07645 32.494234,24.166439 22.655488,34.102062 20.665207,46.534817 c -2.323375,14.513507 7.931434,29.306912 22.511386,32.474525 4.911866,1.067141 7.121412,1.072093 12.053277,0.02699 z M 42.366997,77.612168 C 31.658956,74.816892 23.70685,65.999969 21.832035,54.843951 19.354882,40.103751 29.949825,25.754078 45.202881,23.190737 63.229254,20.16133 79.8855,36.817578 76.856094,54.843951 74.981281,65.999969 67.029173,74.816892 56.321133,77.612168 c -5.018449,1.310036 -8.935688,1.310036 -13.954136,0 z m 10.591758,-0.702895 c 0.221583,-0.358529 -0.495784,-0.602448 -1.77179,-0.602448 -1.179268,0 -2.144124,0.271102 -2.144124,0.602448 0,0.331347 0.797305,0.602449 1.77179,0.602449 0.974485,0 1.939341,-0.271102 2.144124,-0.602449 z M 40.946449,75.161251 c -0.526133,-0.851302 -3.952576,-1.903243 -3.952576,-1.21347 0,0.611588 2.117842,1.651498 3.499633,1.718406 0.433738,0.02103 0.637563,-0.206218 0.452943,-0.504936 z m 18.456643,-2.295232 c 5.572949,-2.607897 9.073746,-6.029948 11.788933,-11.52376 2.149494,-4.349202 2.249976,-4.824362 2.249976,-10.639491 0,-5.81513 -0.100482,-6.29029 -2.249976,-10.639491 -2.709891,-5.483089 -6.198441,-8.898505 -11.799356,-11.551985 -3.683192,-1.744943 -4.534521,-1.906461 -10.048604,-1.906461 -5.514083,0 -6.365412,0.161518 -10.048604,1.906461 -5.600913,2.65348 -9.089467,6.068896 -11.799356,11.551985 -2.147176,4.344516 -2.249976,4.829199 -2.249976,10.608246 0,5.538551 0.161463,6.396507 1.890607,10.045972 3.185871,6.723976 7.685599,10.732457 14.970082,13.335757 4.804195,1.7169 12.170832,1.211247 17.296274,-1.187233 z m -16.81486,0.191555 C 36.326576,71.015448 30.881626,66.178553 28.053783,60.146234 26.652485,57.157003 26.451025,55.968408 26.451025,50.6901 c 0,-5.590351 0.144518,-6.330708 1.952704,-10.003657 2.351712,-4.777005 6.660706,-9.00753 11.471013,-11.26212 3.01808,-1.414573 4.192742,-1.614595 9.481991,-1.614595 5.590351,0 6.330708,0.144517 10.003657,1.952704 4.777006,2.351712 9.007532,6.660706 11.262116,11.471012 1.413869,3.016571 1.614598,4.193814 1.614598,9.469324 0,5.275509 -0.200729,6.452752 -1.614598,9.469323 -2.241897,4.783232 -6.487833,9.120638 -11.198375,11.43963 -3.315923,1.632425 -4.684244,1.947825 -9.099984,2.097563 -3.244066,0.110007 -6.151282,-0.134912 -7.735915,-0.65171 z M 53.25998,72.089686 c 0,-0.767333 -2.427333,-0.767333 -3.614691,0 -0.672183,0.434395 -0.324949,0.586363 1.355509,0.593225 1.24255,0.0051 2.259182,-0.261878 2.259182,-0.593225 z m -9.036727,-0.50137 c 0,-0.275752 -0.948856,-0.792581 -2.108569,-1.148507 -2.341706,-0.718691 -2.968878,0.138003 -0.753061,1.028656 1.752039,0.704232 2.86163,0.750705 2.86163,0.119851 z m 13.721714,-3.167752 c 2.079723,-1.0143 4.233556,-2.534386 4.786297,-3.377976 1.447153,-2.208636 1.14461,-5.279435 -0.835729,-8.482554 -2.527408,-4.087986 -4.605332,-5.058202 -11.857089,-5.536264 -3.699721,-0.243899 -6.830528,-0.780922 -7.923762,-1.359153 -3.794185,-2.006812 -6.41336,-6.293802 -6.478517,-10.603853 l -0.04159,-2.751269 -1.986883,2.298484 c -3.924058,4.539466 -5.196745,12.477312 -3.022957,18.854404 1.160242,3.403723 5.194897,8.356556 8.442337,10.363583 5.557339,3.434624 12.638347,3.657181 18.917894,0.594598 z m 5.491366,-0.583122 c 0.792473,-0.659958 1.290421,-1.350352 1.106559,-1.534219 -0.428383,-0.428377 -3.451083,1.534497 -3.451083,2.24106 0,0.832969 0.776725,0.598798 2.344524,-0.706841 z M 32.543228,63.372986 c -0.549542,-0.83871 -1.280019,-1.524923 -1.623282,-1.524923 -0.681642,0 -0.273532,0.916746 1.141465,2.564099 1.308599,1.523483 1.6618,0.761705 0.481817,-1.039176 z M 65.18491,61.460219 c -0.175566,-0.828257 -0.327058,-0.676764 -0.58414,0.584134 -0.224141,1.09936 -0.140178,1.495494 0.237039,1.118277 0.321274,-0.321274 0.47747,-1.08736 0.347101,-1.702411 z m 2.91253,-3.979907 C 69.48906,53.397219 69.469703,47.953511 68.0487,43.774611 67.210785,41.310458 65.98176,39.520918 63.253838,36.792995 58.890781,32.42994 55.08664,30.848678 49.008885,30.871818 c -3.357054,0.01278 -4.351654,0.282508 -6.626933,1.79716 -3.524839,2.346485 -4.978361,5.236291 -4.14743,8.245673 0.675568,2.446708 2.996934,5.51198 4.999425,6.601545 0.709791,0.3862 4.026478,0.880865 7.370414,1.099257 4.774854,0.311845 6.623293,0.702487 8.611507,1.819927 2.685931,1.509575 5.948177,5.795293 6.508984,8.551053 0.49946,2.454297 1.167256,2.03038 2.372586,-1.506121 z m 2.341784,0.107534 c 0.525317,-2.391765 -0.09346,-3.016512 -0.896281,-0.904928 -0.765507,2.013436 -0.782936,2.755351 -0.06473,2.755351 0.30502,0 0.737475,-0.832691 0.961008,-1.850423 z M 28.55037,52.660725 c -0.0051,-0.74553 -0.272025,-1.762162 -0.593224,-2.259182 -0.434398,-0.672183 -0.586361,-0.324949 -0.593223,1.355509 -0.0051,1.24255 0.261877,2.259182 0.593223,2.259182 0.331347,0 0.598297,-0.609979 0.593224,-1.355509 z m 33.143887,0.492859 c 0,-0.14311 -0.828914,-0.850439 -1.842031,-1.571842 -2.221691,-1.581984 -3.289059,-0.979959 -1.16121,0.654954 1.369584,1.052306 3.003241,1.551062 3.003241,0.916888 z M 49.645289,49.799095 c 0,-0.331347 -1.100407,-0.602449 -2.445348,-0.602449 -1.476822,0 -2.297879,0.238612 -2.073015,0.602449 0.204784,0.331347 1.30519,0.602448 2.445348,0.602448 1.140159,0 2.073015,-0.271101 2.073015,-0.602448 z m 21.034914,-5.308739 c -0.906299,-2.599811 -1.811442,-1.864476 -0.991907,0.80582 0.35833,1.167556 0.878635,1.895706 1.156231,1.618111 0.277596,-0.277595 0.203651,-1.368363 -0.164324,-2.423931 z M 38.206771,42.589032 c -0.416146,-1.004665 -1.013109,-1.826663 -1.326585,-1.826663 -0.64255,0 -0.06154,2.307959 0.875718,3.478637 1.005278,1.255639 1.263437,0.309745 0.450867,-1.651974 z m -6.036455,-4.387069 c 0.0022,-0.24851 -0.208681,-0.451836 -0.468586,-0.451836 -0.703296,0 -2.5705,3.383061 -2.117325,3.836236 0.382156,0.382156 2.578069,-2.491821 2.585911,-3.3844 z m 33.138632,-2.61445 c 0,-0.510092 -2.606216,-2.613115 -3.267867,-2.636931 -0.306273,-0.01102 0.07986,0.657712 0.858073,1.486079 1.338116,1.424359 2.409794,1.936163 2.409794,1.150852 z M 40.278992,31.628941 c 0.843957,-0.384533 1.534468,-0.926736 1.534468,-1.204897 0,-0.70748 -0.404822,-0.638885 -2.439711,0.413397 -2.822424,1.459532 -2.047671,2.136937 0.905243,0.7915 z m 13.88466,-2.313092 c -0.204784,-0.331347 -1.32119,-0.602448 -2.480903,-0.602448 -1.252303,0 -1.957369,0.244647 -1.736236,0.602448 0.204784,0.331347 1.32119,0.602448 2.480903,0.602448 1.252303,0 1.957369,-0.244647 1.736236,-0.602448 z m 9.430246,43.913013 c 0.98143,-0.69884 1.658456,-1.396584 1.5045,-1.550546 -0.428395,-0.428389 -4.006589,1.566914 -4.006589,2.234186 0,0.869279 0.521218,0.726866 2.502089,-0.68364 z M 29.530986,66.987677 c -0.549542,-0.838711 -1.280019,-1.524924 -1.623283,-1.524924 -0.681641,0 -0.273531,0.916746 1.141466,2.564099 1.308599,1.523484 1.6618,0.761706 0.481817,-1.039175 z m 43.576349,-4.537166 c -0.0048,-0.630299 -0.365078,-0.473428 -1.191498,0.518576 -0.651669,0.782243 -1.178823,1.86665 -1.171455,2.409794 0.01006,0.743674 0.304321,0.615612 1.191498,-0.518576 0.647958,-0.828366 1.175112,-1.912774 1.171455,-2.409794 z M 23.796861,54.182209 c -0.512961,-0.881196 -0.62589,-0.689313 -0.640982,1.089125 -0.01008,1.187326 0.185007,2.365518 0.433516,2.618204 0.715904,0.727936 0.897746,-2.521521 0.207466,-3.707329 z m 52.356158,-2.274545 c 0,-1.159713 -0.271102,-2.108569 -0.602448,-2.108569 -0.331347,0 -0.602449,0.948856 -0.602449,2.108569 0,1.159714 0.271102,2.10857 0.602449,2.10857 0.331346,0 0.602448,-0.948856 0.602448,-2.10857 z M 24.787254,43.473978 c 0.355826,-1.159387 0.42083,-2.247731 0.144453,-2.418541 -0.457306,-0.282631 -0.655579,0.15273 -1.581324,3.472234 -0.566736,2.032182 0.796634,1.03239 1.436871,-1.053693 z m 49.55842,-1.718037 c 0,-0.925193 -1.435237,-4.005814 -1.866283,-4.005814 -0.682508,0 -0.68108,0.02801 0.117875,2.319894 0.363758,1.043485 0.905962,1.897245 1.204897,1.897245 0.298929,0 0.543511,-0.0951 0.543511,-0.211325 z M 32.174285,30.913164 c 0,-0.331347 -0.677754,0.03427 -1.506121,0.812479 -0.828366,0.778209 -1.506121,1.686029 -1.506121,2.017375 0,0.331347 0.677755,-0.03427 1.506121,-0.812479 0.828367,-0.778209 1.506121,-1.686028 1.506121,-2.017375 z m 33.459431,-1.323432 c -2.326192,-1.858887 -2.956582,-1.224178 -0.707094,0.711937 0.949434,0.81717 1.898291,1.31201 2.108569,1.099644 0.210279,-0.212367 -0.420382,-1.027578 -1.401475,-1.811581 z m -23.91087,-3.34481 c 1.043091,-0.363624 1.755308,-0.889636 1.582703,-1.168916 -0.386581,-0.6255 -3.901883,0.533571 -3.901883,1.286536 0,0.682487 0.02807,0.681063 2.31918,-0.11762 z M 55.669773,25.09871 c 0,-0.331346 -0.520031,-0.602448 -1.155624,-0.602448 -0.635593,0 -1.584449,-0.164556 -2.10857,-0.36568 -0.524119,-0.201124 -0.952945,-0.08545 -0.952945,0.257051 0,0.630039 1.235631,1.115892 3.162854,1.243641 0.579857,0.03844 1.054285,-0.201217 1.054285,-0.532564 z M 38.198769,79.033314 c 0,-0.304556 -3.328807,-2.124041 -3.885997,-2.124041 -0.854603,0 -0.187892,1.08986 1.024367,1.674512 1.446103,0.697424 2.86163,0.919788 2.86163,0.449529 z M 63.53152,78.399923 c 1.936185,-1.001239 2.24497,-1.49065 0.940494,-1.49065 -0.879635,0 -4.032896,2.355086 -3.199675,2.38975 0.264964,0.01102 1.281594,-0.393573 2.259181,-0.8991 z m 10.116446,-8.117582 c 0.734927,-0.99404 1.142261,-1.807345 0.905185,-1.807345 -0.614467,0 -3.219719,2.522343 -3.219719,3.117254 0,1.018819 1.019355,0.441914 2.314534,-1.309909 z M 20.473885,59.111192 c -0.204338,-0.814147 -0.642625,-1.480268 -0.973972,-1.480268 -0.570256,0 -0.225228,2.589673 0.517773,3.886244 0.532555,0.929331 0.859946,-0.797318 0.456199,-2.405976 z M 19.522869,46.751298 c 0,-0.974485 -0.271102,-1.77179 -0.602449,-1.77179 -0.331346,0 -0.602448,0.964856 -0.602448,2.144124 0,1.276006 0.24392,1.993373 0.602448,1.77179 0.331347,-0.204783 0.602449,-1.169639 0.602449,-2.144124 z m 3.915914,-11.410965 c 1.123062,-2.171761 0.240339,-2.422382 -1.135609,-0.32242 -1.125142,1.717183 -1.199915,2.129765 -0.385983,2.129765 0.322838,0 1.007554,-0.813305 1.521592,-1.807345 z m 53.316684,0.93202 c 0,-0.986685 -1.534406,-3.341814 -2.177248,-3.341814 -0.581899,0 -0.519335,0.456255 0.247311,1.803536 0.887075,1.558932 1.929937,2.390155 1.929937,1.538278 z M 31.873061,26.021056 c 0.99404,-0.814805 1.483586,-1.491212 1.08788,-1.503128 -0.395706,-0.01192 -1.480114,0.647521 -2.409794,1.465417 -2.201203,1.93653 -1.035176,1.969795 1.321914,0.03771 z m 35.544456,-0.639795 c -1.851679,-1.517805 -2.711018,-1.842561 -2.711018,-1.024537 0,0.555504 3.06227,2.519619 3.915915,2.511635 0.331347,-0.0031 -0.210857,-0.672293 -1.204897,-1.487098 z M 43.872757,21.11834 c 1.618043,-0.620901 1.050208,-1.487546 -0.703788,-1.074138 -2.194035,0.517122 -3.171493,1.439818 -1.525271,1.439818 0.701862,0 1.704938,-0.164556 2.229059,-0.36568 z m 13.604361,-0.236769 c 0,-0.331346 -0.338877,-0.60615 -0.75306,-0.610674 -0.414183,-0.0045 -1.36304,-0.171695 -2.10857,-0.371489 -0.771673,-0.206801 -1.355508,-0.09254 -1.355508,0.265276 0,0.635228 1.230617,1.12137 3.162854,1.249451 0.579856,0.03844 1.054284,-0.201217 1.054284,-0.532564 z M 18.468584,74.686642 c 0.579857,-0.151528 1.528713,-0.151528 2.108569,0 0.579857,0.151534 0.105429,0.275518 -1.054284,0.275518 -1.159713,0 -1.634142,-0.123984 -1.054285,-0.275518 z M 11.463383,67.373714 C 6.8095458,56.596215 6.9785155,43.533778 11.904804,33.249047 16.273455,24.12851 22.192021,18.128304 31.270613,13.616104 42.246455,8.1609413 55.862904,8.0258019 66.797784,13.263507 c 9.081874,4.350132 15.048903,10.221252 19.635156,19.319552 1.834732,3.639784 2.223179,4.889425 1.635749,5.262199 -1.612989,1.023575 -2.789631,0.494803 -3.46715,-1.558107 -0.867966,-2.629945 -4.678814,-8.539203 -7.572391,-11.742046 -3.456379,-3.825796 -10.535805,-8.2417 -16.109334,-10.048447 -7.078686,-2.294668 -16.072812,-2.294668 -23.151498,0 -11.693666,3.790686 -20.846238,12.964079 -24.656262,24.712351 -1.305487,4.025492 -1.581019,6.012431 -1.593861,11.493759 -0.0139,5.935059 0.184831,7.193011 1.903542,12.048968 1.055487,2.982119 2.056123,5.828688 2.223634,6.325708 0.18528,0.54974 -0.245548,1.153785 -1.100002,1.542274 -1.325873,0.602822 -1.498554,0.420949 -3.081984,-3.246004 z m 1.341894,-2.514517 c -0.632461,-1.81428 -1.716686,-3.00229 -1.716686,-1.881013 0,1.196794 1.18983,3.689466 1.761095,3.689466 0.369866,0 0.353485,-0.667049 -0.04441,-1.808453 z M 9.9221708,47.789247 c -0.4529346,-0.452935 -0.6249884,0.145412 -0.5865914,2.03997 l 0.054335,2.680896 0.5865914,-2.039971 C 10.375835,49.081407 10.35849,48.225565 9.9221708,47.789247 Z M 13.18169,35.370251 c 1.052282,-2.03489 1.120877,-2.439712 0.413397,-2.439712 -0.525301,0 -1.904048,2.637974 -1.904048,3.643038 0,1.047992 0.560373,0.595631 1.490651,-1.203326 z m 73.220952,-0.613049 c -0.416147,-1.004664 -0.994841,-1.826663 -1.285986,-1.826663 -0.735583,0 -0.670139,0.390044 0.418738,2.495697 1.194884,2.310652 1.881934,1.780631 0.867248,-0.669034 z M 21.951438,22.794855 c 0.746435,-0.604427 1.246495,-1.430938 1.111243,-1.836692 -0.152652,-0.457957 -0.913244,-0.04119 -2.005574,1.098957 -1.914926,1.998752 -1.294745,2.510341 0.894331,0.737735 z M 77.631024,22.05712 c -0.967816,-1.01018 -1.859662,-1.536697 -1.981881,-1.170036 -0.3007,0.902093 1.672204,3.006729 2.818531,3.006729 0.646102,0 0.395098,-0.551025 -0.83665,-1.836693 z m -42.78494,-7.78757 c 2.232364,-0.848743 1.984453,-1.912654 -0.263112,-1.129149 -1.814279,0.632462 -3.002289,1.716686 -1.881012,1.716686 0.329331,0 1.294187,-0.264391 2.144124,-0.587537 z m 31.403201,0.04441 c -0.526136,-0.851299 -3.952579,-1.903238 -3.952579,-1.213462 0,0.611582 2.117841,1.651495 3.499634,1.718405 0.433739,0.021 0.63756,-0.20622 0.452945,-0.50494 z M 50.706598,10.82847 c -0.575993,-0.150789 -1.6604,-0.15626 -2.409794,-0.01216 -0.749393,0.144101 -0.278126,0.267473 1.047261,0.274161 1.325386,0.0067 1.938526,-0.111215 1.362533,-0.262003 z M 17.26793,68.926832 C 16.94061,68.512649 15.953023,66.351534 15.073291,64.124354 9.447965,49.882953 13.21342,33.898332 24.66555,23.404534 c 6.832191,-6.260462 15.056515,-9.389638 24.678515,-9.389638 6.693782,0 10.68302,0.943043 17.136042,4.050905 5.470009,2.634428 12.889727,10.079622 15.55173,15.605123 1.074154,2.229619 1.953011,4.411988 1.953011,4.84971 0,0.855945 -1.165755,2.241735 -1.885796,2.241735 -0.241961,0 -1.448346,-2.101039 -2.680853,-4.668975 C 75.167968,27.238033 65.847898,19.884943 56.393181,17.927752 35.567618,13.616718 15.908178,29.532203 15.908178,50.702768 c 0,6.198886 1.30817,10.779892 5.290151,18.525288 0.399177,0.776442 -3.302969,0.492712 -3.930399,-0.301224 z m -0.154855,-5.758726 c 0,-0.268017 -0.39803,-1.013547 -0.884513,-1.656733 -0.902997,-1.19387 -1.215766,-0.525229 -0.557153,1.191088 0.377725,0.984335 1.441666,1.327977 1.441666,0.465645 z M 14.703281,48.558643 c 0,-1.07519 -0.250966,-1.687794 -0.602448,-1.470566 -0.331347,0.204784 -0.602448,1.034088 -0.602448,1.8429 0,0.808812 0.271101,1.470566 0.602448,1.470566 0.331347,0 0.602448,-0.829305 0.602448,-1.8429 z M 82.115632,36.429621 c -0.420889,-0.786441 -0.846133,-1.076302 -0.981817,-0.669246 -0.131641,0.394931 0.09476,1.342343 0.503111,2.10536 0.420889,0.786442 0.846133,1.076303 0.981816,0.669247 0.131641,-0.394931 -0.09476,-1.342344 -0.50311,-2.105361 z m -63.81682,-1.65627 c -0.01532,-0.750808 -0.196537,-0.704626 -0.903672,0.230292 -0.486483,0.643186 -0.875891,1.592043 -0.865354,2.108569 0.01532,0.750808 0.196537,0.704626 0.903673,-0.230292 0.486482,-0.643186 0.875891,-1.592043 0.865353,-2.108569 z m 56.348086,-9.072192 c -0.603406,-0.666757 -1.232652,-1.076734 -1.398325,-0.91106 -0.165673,0.165673 0.19247,0.846752 0.795877,1.513508 0.603406,0.666756 1.232651,1.076733 1.398325,0.91106 0.165673,-0.165673 -0.192471,-0.846752 -0.795877,-1.513508 z M 25.851919,25.095017 c 1.610622,-1.779716 0.748376,-2.059614 -0.909246,-0.295156 -0.776983,0.82706 -1.136355,1.503746 -0.798604,1.503746 0.33775,0 1.106283,-0.543866 1.70785,-1.20859 z m 37.985428,-6.97372 c -1.321049,-0.965974 -2.14309,-1.097936 -2.14309,-0.34403 0,0.607673 2.57951,1.870362 3.011296,1.474052 0.16515,-0.151583 -0.225544,-0.660094 -0.868206,-1.130022 z m -25.801976,-0.6564 c 0.147987,-0.449724 -0.220678,-0.587224 -1.016484,-0.379116 -1.766923,0.46206 -2.257608,1.52999 -0.590906,1.286048 0.756353,-0.110702 1.479679,-0.518821 1.60739,-0.906932 z m 14.019712,-2.005361 c 0,-0.331347 -0.813306,-0.602449 -1.807346,-0.602449 -0.994039,0 -1.807345,0.271102 -1.807345,0.602449 0,0.331346 0.813306,0.602448 1.807345,0.602448 0.99404,0 1.807346,-0.271102 1.807346,-0.602448 z"
         id="path4141" />
      <path
         style="fill:#b9b9b9;fill-opacity:1;stroke-width:0.602448"
         d="m 17.602564,93.36629 c 0.434893,-0.174029 0.954505,-0.15263 1.154693,0.04753 0.200189,0.200188 -0.155633,0.342577 -0.790713,0.316418 -0.701818,-0.02892 -0.844573,-0.171661 -0.36398,-0.363975 z m 15.82418,-11.988856 c 0.02891,-0.701822 0.171662,-0.844572 0.363979,-0.363981 0.17403,0.434889 0.152627,0.954501 -0.04756,1.154695 -0.200189,0.200187 -0.342577,-0.155637 -0.316418,-0.790714 z m -4.020716,-7.631015 -1.147657,-1.355509 1.355509,1.147658 c 1.273844,1.078516 1.629768,1.56336 1.147657,1.56336 -0.114319,0 -0.724298,-0.609979 -1.355509,-1.355509 z"
         id="path4139" />
      <path
         style="fill:#a3a3a3;fill-opacity:1;stroke-width:0.602448"
         d="M 15.800071,97.757006 C 3.6048569,94.473283 1.6477534,78.171957 12.673009,71.710728 c 3.74017,-2.191888 9.493364,-2.361502 13.232608,-0.390128 5.232047,2.758407 8.652051,9.286616 7.809282,14.906598 -0.819899,5.467479 -5.566966,10.445395 -11.179788,11.723453 -3.2867,0.748398 -3.230452,0.750013 -6.73504,-0.193645 z m 9.335879,-5.962865 c 5.86919,-4.47665 4.937506,-13.202253 -1.748448,-16.374946 -6.399545,-3.036779 -14.1502518,2.567117 -13.351526,9.653393 0.82133,7.286818 9.369894,11.092099 15.099974,6.721553 z m -6.817978,0.385025 c 0,-0.547921 -1.084407,-1.997334 -2.409794,-3.220925 -2.081099,-1.921262 -2.409793,-2.572346 -2.409793,-4.773385 0,-3.571507 2.480162,-6.070686 6.024484,-6.070686 7.151917,0 8.242281,9.693136 1.555256,13.825944 -2.418356,1.494626 -2.760153,1.524231 -2.760153,0.239052 z"
         id="path4137" />
    </g>
  </g>
</svg>
