<?xml version="1.0" encoding="UTF-8" standalone="no"?>
<!-- Created with Inkscape (http://www.inkscape.org/) -->

<svg
   width="100mm"
   height="100mm"
   viewBox="0 0 100 100"
   version="1.1"
   id="svg6221"
   inkscape:version="1.1.1 (3bf5ae0d25, 2021-09-20)"
   sodipodi:docname="add_list_type_device_6611.svg"
   xmlns:inkscape="http://www.inkscape.org/namespaces/inkscape"
   xmlns:sodipodi="http://sodipodi.sourceforge.net/DTD/sodipodi-0.dtd"
   xmlns="http://www.w3.org/2000/svg"
   xmlns:svg="http://www.w3.org/2000/svg">
  <sodipodi:namedview
     id="namedview6223"
     pagecolor="#505050"
     bordercolor="#ffffff"
     borderopacity="1"
     inkscape:pageshadow="0"
     inkscape:pageopacity="0"
     inkscape:pagecheckerboard="1"
     inkscape:document-units="mm"
     showgrid="false"
     inkscape:zoom="0.58974467"
     inkscape:cx="397.62971"
     inkscape:cy="150.91277"
     inkscape:window-width="1440"
     inkscape:window-height="890"
     inkscape:window-x="-6"
     inkscape:window-y="-6"
     inkscape:window-maximized="1"
     inkscape:current-layer="layer1" />
  <defs
     id="defs6218" />
  <g
     inkscape:label="Laag 1"
     inkscape:groupmode="layer"
     id="layer1">
    <g
       id="g6237"
       transform="translate(1.2688821e-6,-0.44864095)">
      <path
         style="fill:#d0d0d0;fill-opacity:1;stroke-width:0.607987"
         d="m 23.550356,68.535447 c 0.175592,-0.284112 0.573949,-0.359168 0.885236,-0.166777 0.795479,0.491631 0.705908,0.683354 -0.31926,0.683354 -0.48688,0 -0.741569,-0.232458 -0.565976,-0.516577 z m -8.541487,-4.322879 c 0.228318,-0.59961 0.568281,-0.937042 0.755472,-0.749849 0.187192,0.187193 3.86e-4,0.677778 -0.415124,1.0902 -0.600457,0.595985 -0.670293,0.526152 -0.340348,-0.340351 z m 10.335782,-3.647922 c 0.228318,-0.59961 0.568281,-0.937043 0.755472,-0.749851 0.187191,0.187192 3.85e-4,0.677781 -0.415124,1.090199 -0.600458,0.595987 -0.670294,0.526154 -0.340348,-0.340348 z M 12.889824,54.308333 c 0.02917,-0.70827 0.17324,-0.852337 0.367325,-0.367325 0.17563,0.43889 0.15403,0.963279 -0.048,1.165309 -0.202029,0.202028 -0.345727,-0.157064 -0.319327,-0.797984 z m 76.068922,-1.165309 c 0.0124,-1.003178 0.148653,-1.339964 0.302802,-0.748412 0.154149,0.591551 0.144014,1.412334 -0.02256,1.823961 -0.166516,0.411627 -0.292637,-0.07237 -0.280246,-1.075549 z M 23.881592,52.839031 c 0,-0.835982 0.137996,-1.177975 0.30666,-0.759984 0.168663,0.417991 0.168663,1.101977 0,1.519968 -0.168664,0.417991 -0.30666,0.076 -0.30666,-0.759984 z m 59.582738,0 c 0,-0.835982 0.138001,-1.177975 0.306663,-0.759984 0.168661,0.417991 0.168661,1.101977 0,1.519968 -0.168662,0.417991 -0.306663,0.076 -0.306663,-0.759984 z m 7.678148,-3.647923 c 0.147236,-1.003179 0.373444,-1.823961 0.50269,-1.823961 0.12924,0 0.234987,0.820782 0.234987,1.823961 0,1.003179 -0.226208,1.823961 -0.50269,1.823961 -0.276476,0 -0.382223,-0.820782 -0.234987,-1.823961 z m -5.562061,-0.303994 c 0.192483,-0.501589 0.457486,-0.91198 0.588909,-0.91198 0.131416,0 0.238945,0.410391 0.238945,0.91198 0,0.50159 -0.26501,0.911981 -0.588909,0.911981 -0.323893,0 -0.431422,-0.410391 -0.238945,-0.911981 z M 23.881592,46.759159 c 0,-0.835982 0.137996,-1.177975 0.30666,-0.759984 0.168663,0.417992 0.168663,1.101977 0,1.519968 -0.168664,0.417991 -0.30666,0.076 -0.30666,-0.759984 z m 59.582738,0 c 0,-0.835982 0.138001,-1.177975 0.306663,-0.759984 0.168661,0.417992 0.168661,1.101977 0,1.519968 -0.168662,0.417991 -0.306663,0.076 -0.306663,-0.759984 z m 5.494416,-0.303993 c 0.0124,-1.003179 0.148653,-1.339965 0.302802,-0.748413 0.154149,0.591552 0.144014,1.412334 -0.02256,1.823962 -0.166516,0.411626 -0.292637,-0.07237 -0.280246,-1.075549 z M 28.992574,45.721403 c -0.329946,-0.866502 -0.26011,-0.936338 0.340348,-0.340348 0.415509,0.412418 0.602315,0.903007 0.415124,1.090199 -0.187191,0.187192 -0.527154,-0.150241 -0.755472,-0.749851 z m -16.10275,-0.532877 c 0.02917,-0.70827 0.17324,-0.852337 0.367325,-0.367326 0.17563,0.438891 0.15403,0.96328 -0.048,1.165309 -0.202029,0.202029 -0.345727,-0.157064 -0.319327,-0.797983 z m 12.454827,-6.154982 c -0.329946,-0.866502 -0.26011,-0.936337 0.340348,-0.340348 0.415509,0.412419 0.602315,0.903008 0.415124,1.090199 -0.187191,0.187192 -0.527154,-0.150241 -0.755472,-0.749851 z M 15.008869,35.385622 c -0.329945,-0.866503 -0.260109,-0.936338 0.340348,-0.340349 0.41551,0.412419 0.602316,0.903008 0.415124,1.090199 -0.187191,0.187192 -0.527154,-0.150241 -0.755472,-0.74985 z m 51.90464,-1.137403 c -1.023607,-1.23337 0.380302,-1.559388 1.480412,-0.343784 0.862533,0.953091 0.872115,1.100306 0.0716,1.100306 -0.50829,0 -1.206697,-0.340435 -1.552015,-0.756522 z M 28.891891,32.623458 c -0.240544,-0.417991 -0.213465,-0.557162 0.06017,-0.309268 0.273639,0.247893 0.933091,0.111096 1.465447,-0.303994 0.856402,-0.667755 0.871783,-0.632124 0.133492,0.309268 -0.994529,1.268121 -1.093815,1.286313 -1.659113,0.303994 z m -5.347665,-1.570633 c -0.172222,-0.278661 0.07319,-0.506657 0.545361,-0.506657 0.47217,0 0.717583,0.227996 0.545361,0.506657 -0.172221,0.27866 -0.417634,0.506656 -0.545361,0.506656 -0.127726,0 -0.373139,-0.227996 -0.545361,-0.506656 z m 9.889442,-2.13323 c 0.372437,-0.448759 0.474335,-1.039811 0.226442,-1.313451 -0.247893,-0.273638 -0.09544,-0.292507 0.338791,-0.04193 0.608277,0.351015 0.626079,0.652515 0.07755,1.31345 -0.391576,0.471817 -0.848752,0.857851 -1.015949,0.857851 -0.167196,0 7.3e-4,-0.367166 0.373163,-0.815924 z m 34.373229,-0.552047 -1.158209,-1.367971 1.367971,1.158208 c 1.285552,1.08843 1.644751,1.577734 1.15821,1.577734 -0.115372,0 -0.730959,-0.615587 -1.367972,-1.367971 z m -42.469242,0.203925 c -0.195757,-0.316741 -0.09677,-0.736059 0.219972,-0.931816 0.316741,-0.195756 0.736058,-0.09677 0.931816,0.219972 0.195756,0.316742 0.09677,0.736059 -0.219973,0.931816 -0.316741,0.195757 -0.736058,0.09677 -0.931815,-0.219972 z m 21.251761,-0.652952 c -0.213002,-0.344643 0.03104,-0.44657 0.572105,-0.238945 1.053288,0.404184 1.246001,0.839969 0.371453,0.839969 -0.314658,0 -0.739259,-0.270461 -0.943558,-0.601024 z M 19.896303,26.796915 c -0.172222,-0.278662 0.07319,-0.506657 0.545361,-0.506657 0.47217,0 0.717583,0.227995 0.545361,0.506657 -0.172221,0.27866 -0.417634,0.506655 -0.545361,0.506655 -0.127726,0 -0.373139,-0.227995 -0.545361,-0.506655 z m 9.089275,-1.873365 c -0.195757,-0.316741 -0.09677,-0.736058 0.219972,-0.931816 0.316741,-0.195756 0.736058,-0.09677 0.931816,0.219972 0.195756,0.316742 0.09677,0.736059 -0.219973,0.931816 -0.316741,0.195757 -0.736058,0.09677 -0.931815,-0.219972 z m 10.915979,-0.652951 c -0.213001,-0.344644 0.03104,-0.446571 0.572106,-0.238946 1.053287,0.404184 1.246001,0.839969 0.371453,0.839969 -0.314659,0 -0.73926,-0.270461 -0.943559,-0.601023 z m 40.349287,-0.462955 c -0.756257,-0.964301 -0.734752,-0.985806 0.229552,-0.229548 1.012754,0.794255 1.334823,1.293526 0.834426,1.293526 -0.126249,0 -0.605039,-0.47879 -1.063978,-1.063978 z M 22.808481,23.369252 c 0.169149,-1.152485 0.773939,-1.740438 1.970999,-1.91613 0.716705,-0.10519 0.60878,0.231757 -0.427572,1.334904 -1.623408,1.728038 -1.716911,1.763249 -1.543427,0.581226 z m 9.083608,-0.59884 c 0,-0.486881 0.232458,-0.74157 0.516574,-0.565977 0.284115,0.175593 0.359166,0.573949 0.16678,0.885236 -0.491633,0.79548 -0.683354,0.705908 -0.683354,-0.319259 z m 15.453007,-0.12541 c 0.417991,-0.168663 1.101977,-0.168663 1.519968,0 0.417991,0.168664 0.076,0.30666 -0.759984,0.30666 -0.835983,0 -1.177975,-0.137996 -0.759984,-0.30666 z m 6.117871,-0.01266 c 0.43889,-0.17563 0.963279,-0.15403 1.165309,0.048 0.202028,0.20203 -0.157064,0.345727 -0.797984,0.319327 -0.70827,-0.02917 -0.852337,-0.17324 -0.367325,-0.367326 z M 27.636179,19.122489 c 0,-0.486881 0.232458,-0.74157 0.516574,-0.565977 0.284114,0.175593 0.359166,0.573949 0.16678,0.885236 -0.491633,0.79548 -0.683354,0.705908 -0.683354,-0.319259 z m 8.617455,-5.187672 c -0.213001,-0.344644 0.03104,-0.446571 0.572106,-0.238946 1.053287,0.404185 1.246001,0.839969 0.371453,0.839969 -0.314659,0 -0.73926,-0.27046 -0.943559,-0.601023 z"
         id="path6253" />
      <path
         style="fill:#b9b9b9;fill-opacity:1;stroke-width:0.607987"
         d="m 82.760348,60.503918 c 0,-0.13142 0.4246,-0.40188 0.943559,-0.601023 0.54106,-0.207625 0.785106,-0.105698 0.572104,0.238946 -0.357047,0.577711 -1.515663,0.854494 -1.515663,0.362077 z M 78.732001,40.395351 c -0.188245,-0.490558 -0.224937,-1.242942 -0.08153,-1.671965 0.143406,-0.429022 0.404871,-0.02766 0.581029,0.891924 0.343963,1.795522 0.06019,2.238633 -0.499499,0.780041 z M 57.224887,23.416702 c 0,-0.13142 0.424601,-0.401881 0.943559,-0.601023 0.541062,-0.207626 0.785107,-0.105698 0.572105,0.238945 -0.357045,0.577712 -1.515664,0.854495 -1.515664,0.362078 z m 0.607987,-5.471885 c 0,-0.13142 0.424602,-0.40188 0.943559,-0.601023 0.541063,-0.207625 0.785107,-0.105698 0.572105,0.238946 -0.357045,0.577712 -1.515664,0.854494 -1.515664,0.362077 z m 17.023641,-0.26771 c 0,-0.278661 0.398359,-0.506656 0.885235,-0.506656 0.486882,0 0.744328,0.227995 0.572104,0.506656 -0.172219,0.278661 -0.570578,0.506656 -0.885236,0.506656 -0.314657,0 -0.572103,-0.227995 -0.572103,-0.506656 z M 60.87281,13.08092 c 0,-0.13142 0.424601,-0.40188 0.943558,-0.601023 0.541063,-0.207625 0.785108,-0.105698 0.572106,0.238946 -0.357045,0.577711 -1.515664,0.854494 -1.515664,0.362077 z"
         id="path6251" />
      <path
         style="fill:#a3a3a3;fill-opacity:1;stroke-width:0.607987"
         d="m 25.609555,64.998774 c 0,-0.334393 0.289741,-0.607987 0.643869,-0.607987 0.354127,0 0.474778,0.273594 0.268112,0.607987 -0.206667,0.334393 -0.496407,0.607987 -0.643869,0.607987 -0.147462,0 -0.268112,-0.273594 -0.268112,-0.607987 z M 78.552438,37.284693 c 0.02918,-0.70827 0.17324,-0.852337 0.367322,-0.367326 0.175629,0.438891 0.154033,0.96328 -0.04797,1.165309 -0.202034,0.202029 -0.345725,-0.157064 -0.319327,-0.797983 z m -9.119807,-1.889411 c -0.06936,-1.046274 1.006583,-1.548869 1.523895,-0.711844 0.262219,0.424281 0.177362,0.549561 -0.210053,0.310123 -0.357503,-0.220947 -0.788566,-0.05802 -0.95792,0.362051 -0.220396,0.546667 -0.321571,0.557943 -0.355922,0.03967 z M 82.450226,22.429756 c -0.210036,-0.339847 -0.678849,-0.434372 -1.041805,-0.210054 -0.403375,0.2493 -0.484176,0.123502 -0.207852,-0.3236 0.346151,-0.56009 0.653033,-0.564657 1.309914,-0.01949 0.860417,0.714083 1.090547,1.171053 0.589742,1.171053 -0.147462,0 -0.439964,-0.278057 -0.649999,-0.617905 z m -8.395227,-4.64218 c -0.227953,-0.227955 -0.392857,-0.98445 -0.366458,-1.681103 0.02639,-0.696651 0.186561,-0.922942 0.355922,-0.502867 0.169354,0.420074 0.55815,0.609124 0.86398,0.420109 0.682623,-0.421885 0.710214,0.367892 0.04925,1.409201 -0.268512,0.423017 -0.674714,0.582613 -0.902673,0.35466 z"
         id="path6249" />
      <path
         style="fill:#8c8c8c;fill-opacity:1;stroke-width:0.607987"
         d="m 18.361708,92.611526 c 0.02917,-0.708275 0.17324,-0.852337 0.367326,-0.367328 0.17563,0.438888 0.15403,0.963277 -0.048,1.165311 -0.202029,0.202028 -0.345726,-0.157067 -0.319327,-0.797983 z M 79.720412,76.928965 c 0,-0.126248 0.47879,-0.605038 1.063977,-1.063977 0.964304,-0.756257 0.985809,-0.734753 0.229552,0.229552 -0.794256,1.012754 -1.293529,1.334823 -1.293529,0.834425 z M 28.089502,51.268398 c 0.02917,-0.708271 0.173241,-0.852338 0.367326,-0.367326 0.17563,0.438891 0.15403,0.96328 -0.048,1.165309 -0.20203,0.202028 -0.345727,-0.157064 -0.319327,-0.797983 z m 50.870926,-21.88366 c -0.250795,-0.252928 -0.45599,-1.016177 -0.45599,-1.696109 0,-0.894824 0.183654,-1.052584 0.665004,-0.571236 0.365753,0.365752 0.570948,1.129001 0.45599,1.696109 -0.114958,0.567107 -0.414209,0.824163 -0.665004,0.571236 z m -50.006944,-1.47318 c 0.605243,-0.668786 1.237239,-1.215975 1.404436,-1.215975 0.167196,0 -0.191206,0.547189 -0.796448,1.215975 -0.605243,0.668785 -1.237239,1.215974 -1.404436,1.215974 -0.167196,0 0.191206,-0.547189 0.796448,-1.215974 z m 53.296653,-2.279952 c -0.304152,-0.585188 -0.362142,-1.58967 -0.128875,-2.232184 0.404281,-1.113546 0.469682,-1.103169 1.39772,0.221796 0.951998,1.359167 0.843594,3.074365 -0.194307,3.074365 -0.286848,0 -0.770392,-0.47879 -1.074538,-1.063977 z M 23.127603,21.610713 c 0.809657,-0.996964 3.089939,-2.504424 3.089939,-2.04271 0,0.116076 -0.889181,0.861984 -1.975958,1.657573 -1.222725,0.895112 -1.647373,1.041926 -1.113981,0.385137 z m 50.114754,-4.365152 c -0.198015,-0.516011 -0.224177,-1.074051 -0.05812,-1.240089 0.166035,-0.166038 0.447819,0.256153 0.626178,0.938202 0.378867,1.44879 -0.04207,1.672507 -0.568042,0.301887 z"
         id="path6247" />
      <path
         style="fill:#767676;fill-opacity:1;stroke-width:0.607987"
         d="m 70.13367,72.29462 c 0,-1.170375 0.125124,-1.649165 0.278051,-1.063978 0.152921,0.585188 0.152921,1.542768 0,2.127955 -0.152927,0.585188 -0.278051,0.106398 -0.278051,-1.063977 z m 8.978755,-0.876097 c 0,-1.862904 0.346516,-2.013392 0.783993,-0.340485 0.174802,0.668457 0.06992,1.368585 -0.233084,1.555851 -0.303003,0.187266 -0.550909,-0.359649 -0.550909,-1.215366 z m 0.141053,-21.619428 c 0,-1.170375 0.125123,-1.649165 0.27805,-1.063977 0.152921,0.585187 0.152921,1.542767 0,2.127955 -0.152927,0.585187 -0.27805,0.106397 -0.27805,-1.063978 z m 5.471884,0 c 0,-1.170375 0.125124,-1.649165 0.278051,-1.063977 0.152921,0.585187 0.152921,1.542767 0,2.127955 -0.152927,0.585187 -0.278051,0.106397 -0.278051,-1.063978 z m 5.471884,0 c 0,-1.170375 0.125124,-1.649165 0.278051,-1.063977 0.152921,0.585187 0.152921,1.542767 0,2.127955 -0.152927,0.585187 -0.278051,0.106397 -0.278051,-1.063978 z M 18.969695,37.89268 c 0.02917,-0.70827 0.173241,-0.852337 0.367326,-0.367326 0.17563,0.438891 0.15403,0.96328 -0.048,1.165309 -0.202029,0.202029 -0.345726,-0.157063 -0.319327,-0.797983 z m 49.397013,-4.04333 c -0.271673,-0.423446 -0.50891,-1.41549 -0.527186,-2.204542 l -0.03326,-1.43464 1.093167,1.349999 c 0.601239,0.742499 1.093161,1.577136 1.093161,1.854749 0,0.917951 -1.123153,1.218052 -1.62591,0.434434 z M 15.273773,32.811336 c 0,-0.314658 0.270461,-0.739259 0.601024,-0.943558 0.344643,-0.213002 0.446571,0.03104 0.238945,0.572106 -0.404184,1.053287 -0.839969,1.246001 -0.839969,0.371452 z m 64.49774,-1.156371 c -0.381998,-0.71377 -0.449314,-1.772607 -0.162065,-2.549122 l 0.491345,-1.328222 0.957489,1.461313 c 0.799235,1.219786 0.826017,1.641107 0.162065,2.549122 -0.757334,1.035709 -0.826723,1.029335 -1.448834,-0.133091 z m 4.268623,-3.62417 c -0.350668,-0.655227 -0.36813,-1.450682 -0.04335,-1.975958 0.469433,-0.759289 0.674026,-0.748811 1.499886,0.07681 0.545279,0.545125 0.788091,1.394404 0.564929,1.975959 -0.508575,1.325315 -1.286865,1.295741 -2.021435,-0.07681 z M 80.67497,23.724537 c -0.183253,-0.296504 0.0742,-0.877193 0.572104,-1.29042 0.753363,-0.625235 0.905286,-0.534764 0.905286,0.539098 0,1.304355 -0.864034,1.743756 -1.47739,0.751322 z m -5.210468,-7.02486 c 0,-0.521324 0.273594,-0.947862 0.607987,-0.947862 0.334393,0 0.607987,0.257447 0.607987,0.572105 0,0.314658 -0.273594,0.741196 -0.607987,0.947862 -0.334393,0.206667 -0.607987,-0.05078 -0.607987,-0.572105 z"
         id="path6245" />
      <path
         style="fill:#606060;fill-opacity:1;stroke-width:0.607987"
         d="m 9.2419007,51.876385 c 0.029171,-0.708271 0.1732405,-0.852337 0.3673258,-0.367326 0.1756298,0.438891 0.1540299,0.96328 -0.048001,1.165309 -0.2020293,0.202029 -0.3457264,-0.157064 -0.319327,-0.797983 z m 5.4718843,0 c 0.02917,-0.708271 0.173241,-0.852337 0.367326,-0.367326 0.17563,0.438891 0.15403,0.96328 -0.048,1.165309 -0.202029,0.202029 -0.345726,-0.157064 -0.319326,-0.797983 z m 5.471884,0 c 0.02917,-0.708271 0.173241,-0.852337 0.367326,-0.367326 0.17563,0.438891 0.15403,0.96328 -0.048,1.165309 -0.20203,0.202029 -0.345727,-0.157064 -0.319327,-0.797983 z m 5.471885,0 c 0.02917,-0.708271 0.17324,-0.852337 0.367326,-0.367326 0.17563,0.438891 0.15403,0.96328 -0.048,1.165309 -0.202029,0.202029 -0.345726,-0.157064 -0.319327,-0.797983 z M 9.2419007,47.620475 c 0.029171,-0.708271 0.1732405,-0.852337 0.3673258,-0.367326 0.1756298,0.438891 0.1540299,0.96328 -0.048001,1.165309 -0.2020293,0.202029 -0.3457264,-0.157064 -0.319327,-0.797983 z m 5.4718843,0 c 0.02917,-0.708271 0.173241,-0.852337 0.367326,-0.367326 0.17563,0.438891 0.15403,0.96328 -0.048,1.165309 -0.202029,0.202029 -0.345726,-0.157064 -0.319326,-0.797983 z m 5.471884,0 c 0.02917,-0.708271 0.173241,-0.852337 0.367326,-0.367326 0.17563,0.438891 0.15403,0.96328 -0.048,1.165309 -0.20203,0.202029 -0.345727,-0.157064 -0.319327,-0.797983 z M 84.63231,47.012488 c 0.02918,-0.708271 0.17324,-0.852338 0.367321,-0.367326 0.175629,0.438891 0.154034,0.963279 -0.04797,1.165309 -0.202034,0.202028 -0.345726,-0.157064 -0.319327,-0.797983 z m 5.471884,0 c 0.02918,-0.708271 0.17324,-0.852338 0.367322,-0.367326 0.175629,0.438891 0.154033,0.963279 -0.04797,1.165309 -0.202034,0.202028 -0.345725,-0.157064 -0.319327,-0.797983 z M 10.409876,46.520214 c 0,-0.13142 0.410392,-0.396428 0.911981,-0.588906 0.501589,-0.192478 0.911981,-0.08495 0.911981,0.238946 0,0.323898 -0.410392,0.588905 -0.911981,0.588905 -0.501589,0 -0.911981,-0.107525 -0.911981,-0.238945 z m 70.52651,-14.142253 c 0,-1.327012 1.136529,-1.494968 1.794675,-0.265216 0.540762,1.010423 0.451436,1.181127 -0.577485,1.103621 -0.669454,-0.05043 -1.21719,-0.427711 -1.21719,-0.838405 z M 85.580417,30.6475 c -0.390802,-1.018426 0.108459,-2.735942 0.795308,-2.735942 0.629711,0 1.850986,2.842792 1.410512,3.28327 -0.66898,0.668979 -1.851692,0.375514 -2.20582,-0.547328 z M 52.246992,26.888246 c 0.438891,-0.17563 0.96328,-0.15403 1.165309,0.048 0.202029,0.20203 -0.157064,0.345727 -0.797983,0.319328 -0.70827,-0.02917 -0.852337,-0.173241 -0.367326,-0.367326 z M 19.529684,22.210125 c 0,-0.126253 0.478789,-0.605042 1.063977,-1.063978 0.964302,-0.756257 0.985806,-0.734753 0.229549,0.229549 -0.794256,1.012753 -1.293526,1.334823 -1.293526,0.834429 z m 2.431948,-2.431949 c 0,-0.126252 0.47879,-0.605042 1.063978,-1.063978 0.964301,-0.756257 0.985806,-0.734753 0.229548,0.229549 -0.794255,1.012753 -1.293526,1.334823 -1.293526,0.834429 z"
         id="path6243" />
      <path
         style="fill:#494949;fill-opacity:1;stroke-width:0.607987"
         d="m 67.608669,74.668804 c -0.02821,-0.926305 0.512491,-2.055945 1.309495,-2.735943 0.746621,-0.637018 1.056949,-0.747818 0.689622,-0.246228 -0.367328,0.501589 -0.956601,1.732763 -1.309495,2.735942 -0.634216,1.802895 -0.64218,1.80574 -0.689622,0.246229 z m -0.048,-7.467633 c 0,-0.126249 0.47879,-0.605038 1.063977,-1.063978 0.964304,-0.756257 0.985809,-0.734752 0.229552,0.229552 -0.794256,1.012755 -1.293529,1.334824 -1.293529,0.834426 z m 2.479949,-1.949067 c 0.02918,-0.708275 0.17324,-0.852337 0.367321,-0.367328 0.17563,0.438888 0.154034,0.963277 -0.04797,1.165311 -0.202034,0.202028 -0.345726,-0.157067 -0.319327,-0.797983 z M 9.8498879,45.725108 C 9.7282181,40.792215 14.079188,29.253712 17.713377,24.871622 l 1.260552,-1.519968 -0.997249,2.431949 c -0.548486,1.337571 -1.270989,3.184332 -1.60556,4.103913 -0.334572,0.91958 -0.848116,1.671965 -1.14121,1.671965 -0.293093,0 -0.967504,0.840436 -1.498689,1.867636 -0.739993,1.430987 -0.801679,2.06538 -0.263846,2.713429 0.53752,0.647673 0.477545,1.295615 -0.256037,2.766115 -0.52689,1.056178 -0.823872,2.137318 -0.65996,2.402534 0.163913,0.265215 0.06376,0.573977 -0.222554,0.686136 -0.286317,0.112158 -0.950408,1.435099 -1.475757,2.939867 -0.9247482,2.648776 -0.9567095,2.673942 -1.0031791,0.78991 z m 10.8957701,-0.08674 c 0,-0.950829 0.548463,-3.322916 1.218807,-5.271305 1.231053,-3.578116 4.160737,-9.102582 4.596245,-8.667074 0.129781,0.129781 -0.310188,1.673324 -0.977709,3.430095 -0.66752,1.756772 -1.029147,3.492701 -0.803614,3.857621 0.229657,0.371593 0.13156,0.491368 -0.222978,0.272251 -0.993667,-0.61412 -1.794934,0.822457 -2.571988,4.611267 -0.782462,3.81518 -1.238763,4.466112 -1.238763,1.767145 z m 5.800442,-0.70317 c 0.349637,-2.843011 2.459878,-7.925322 4.165328,-10.031788 0.699142,-0.863538 0.604519,-0.334882 -0.326468,1.823961 -0.721024,1.671965 -1.955437,4.818299 -2.743141,6.991853 -1.391197,3.838807 -1.422559,3.87361 -1.095719,1.215974 z M 15.613015,43.819842 c 0.178342,-1.783821 0.858526,-4.65656 1.511521,-6.383865 1.377151,-3.64285 4.793257,-9.770922 5.212893,-9.351285 0.395287,0.395286 -2.905442,8.59136 -3.567478,8.858439 -1.040056,0.419581 -1.693829,3.167726 -1.042924,4.383952 0.346206,0.646892 0.38337,1.176166 0.08259,1.176166 -0.300782,0 -0.991023,1.025979 -1.533868,2.279952 l -0.986991,2.279952 z m 63.778597,-3.362964 c -0.233831,-1.246431 -0.287146,-2.404244 -0.118472,-2.572918 0.5671,-0.567098 1.544616,3.21951 1.041336,4.03383 -0.336557,0.544559 -0.635383,0.07151 -0.922864,-1.460912 z m 4.261315,-0.204266 c -0.664359,-3.266152 -0.749301,-6.969084 -0.146026,-6.365809 0.279838,0.279839 1.012481,1.854229 1.628092,3.498645 1.066872,2.849819 1.069377,3.04105 0.05344,4.083138 -1.021516,1.047846 -1.085343,0.997301 -1.535539,-1.215974 z m 5.34473,-0.968845 c -0.39952,-1.486558 -0.461596,-2.785525 -0.14833,-3.103904 0.313733,-0.318851 0.167075,-1.436978 -0.351161,-2.677296 -1.481945,-3.546797 -0.391544,-2.986399 1.202495,0.618006 1.323345,2.992316 1.4029,3.592427 0.734114,5.537791 l -0.750068,2.181799 z m -22.86014,-7.416602 c -0.796257,-0.587987 -0.960997,-1.10905 -0.570979,-1.805971 0.489174,-0.874112 0.670251,-0.844649 1.682379,0.273738 1.396608,1.543233 0.52701,2.742098 -1.1114,1.532233 z m 3.703104,-3.413801 c -1.312128,-0.742684 -1.411844,-2.973755 -0.132919,-2.973755 1.039275,0 1.71008,1.276379 1.40031,2.664458 -0.152209,0.682084 -0.471232,0.759938 -1.267391,0.309297 z M 23.177607,26.466035 c 0,-0.126252 0.478789,-0.605042 1.063977,-1.063978 0.964302,-0.756257 0.985806,-0.734753 0.229549,0.229549 -0.794256,1.012753 -1.293526,1.334823 -1.293526,0.834429 z m 3.647922,-0.607987 c 0,-0.126253 0.47879,-0.605043 1.063978,-1.063978 0.964302,-0.756258 0.985806,-0.734753 0.229549,0.229549 -0.794256,1.012753 -1.293527,1.334823 -1.293527,0.834429 z m -0.607987,-2.431949 c 0,-0.126252 0.47879,-0.605042 1.063978,-1.063978 0.964301,-0.756257 0.985806,-0.734753 0.229548,0.229549 -0.794255,1.012753 -1.293526,1.334823 -1.293526,0.834429 z m 10.781639,-4.709793 c 0.412418,-0.415509 0.903007,-0.602315 1.090199,-0.415124 0.187192,0.187192 -0.150241,0.527155 -0.749851,0.755473 -0.866502,0.329945 -0.936338,0.260109 -0.340348,-0.340349 z m 16.463786,0.268107 c 0.43889,-0.17563 0.963279,-0.15403 1.165309,0.048 0.202028,0.20203 -0.157064,0.345727 -0.797984,0.319327 -0.70827,-0.02917 -0.852337,-0.17324 -0.367325,-0.367325 z m -6.234825,-3.175898 c -0.187393,-0.303208 0.206851,-0.408096 0.876099,-0.233084 1.419642,0.371245 1.599095,0.784371 0.340714,0.784371 -0.481855,0 -1.029421,-0.24808 -1.216813,-0.551287 z m 6.234825,0.135962 c 0.43889,-0.17563 0.963279,-0.15403 1.165309,0.048 0.202028,0.202029 -0.157064,0.345726 -0.797984,0.319327 -0.70827,-0.02917 -0.852337,-0.173241 -0.367325,-0.367327 z m 0,-2.431948 c 0.43889,-0.17563 0.963279,-0.15403 1.165309,0.048 0.202028,0.202029 -0.157064,0.345727 -0.797984,0.319327 -0.70827,-0.02917 -0.852337,-0.17324 -0.367325,-0.367327 z m -5.471885,-3.039936 c 0.438891,-0.17563 0.96328,-0.15403 1.165309,0.048 0.202029,0.20203 -0.157064,0.345727 -0.797983,0.319327 -0.70827,-0.02917 -0.852337,-0.17324 -0.367326,-0.367325 z m 5.471885,0 c 0.43889,-0.17563 0.963279,-0.15403 1.165309,0.048 0.202028,0.20203 -0.157064,0.345727 -0.797984,0.319327 -0.70827,-0.02917 -0.852337,-0.17324 -0.367325,-0.367325 z m -0.038,-2.4192827 c 0.417992,-0.1686629 1.101977,-0.1686629 1.519968,0 0.417991,0.1686636 0.076,0.3066602 -0.759984,0.3066602 -0.835982,0 -1.177975,-0.1379966 -0.759984,-0.3066602 z"
         id="path6241" />
      <path
         style="fill:#333333;fill-opacity:1;stroke-width:0.607987"
         d="M 15.681208,98.090639 C 8.960934,95.953935 4.5996741,88.426246 6.1272734,81.600216 7.0361213,77.53905 9.8766478,73.741112 13.393442,71.88494 c 1.473764,-0.777853 2.400308,-1.414282 2.058987,-1.414282 -0.736171,0 -3.432724,-5.879187 -4.430453,-9.659545 C 9.9734266,56.838202 9.3037512,49.665407 9.8519489,48.279127 c 0.3910341,-0.988846 0.4880491,-0.846891 0.5193891,0.759984 0.0212,1.086777 0.286459,1.975958 0.589473,1.975958 0.303014,0 0.734356,1.43637 0.958538,3.191933 0.224181,1.755563 0.653732,4.137392 0.954556,5.292953 0.341248,1.31084 0.326477,2.237284 -0.03928,2.463328 -0.831381,0.513822 0.708989,4.345563 1.608211,4.0005 0.71412,-0.274032 2.490242,3.112068 2.165572,4.128568 -0.09375,0.293518 0.456784,0.365655 1.22341,0.160295 0.766626,-0.205353 1.739796,-0.37711 2.162601,-0.381676 0.504842,-0.0055 0.154506,-1.225082 -1.020544,-3.55284 C 15.18408,58.810579 14.105551,49.860264 16.397199,44.935198 l 1.273042,-2.735942 -0.373179,3.951916 c -0.205249,2.173554 -0.607658,4.043115 -0.894243,4.154579 -0.946411,0.368098 -0.593872,3.749254 0.390918,3.749254 0.551209,0 0.911981,0.563635 0.911981,1.424788 0,0.783633 0.526932,2.956339 1.170958,4.828237 0.764462,2.221945 0.945258,3.478685 0.520803,3.62017 -0.906477,0.302157 0.529756,2.894535 1.603635,2.894535 0.451366,0 1.268829,0.683986 1.816586,1.519968 0.932943,1.423852 0.927753,1.522643 -0.08207,1.562315 -0.592896,0.02329 0.243429,0.448335 1.858501,0.944538 1.917924,0.589249 3.878231,1.843922 5.65148,3.617177 1.493242,1.493241 2.454314,2.227914 2.135714,1.632604 -0.318599,-0.595311 -1.151802,-1.600514 -1.85156,-2.233788 -0.699759,-0.633273 -1.272289,-1.404949 -1.272289,-1.714834 0,-0.309885 -0.92459,-1.703853 -2.054644,-3.0977 C 22.021017,62.66158 19.280426,52.555919 21.1981,46.911156 c 0.482809,-1.42117 1.099766,-2.583945 1.371015,-2.583945 0.666988,0 -0.03107,7.503675 -0.741164,7.967036 -0.922343,0.601862 0.142077,4.927567 1.120163,4.55224 0.520069,-0.199569 0.837478,0.0932 0.837478,0.772482 0,0.601619 0.642271,2.3625 1.427269,3.913068 0.848198,1.675406 1.169143,2.905261 0.791051,3.031291 -0.357216,0.119074 -0.01425,1.085542 0.782085,2.203892 1.083285,1.521336 1.545339,1.79904 1.956114,1.175665 0.816865,-1.239631 0.401678,-5.377859 -0.822567,-8.198634 -1.849951,-4.262462 -2.311138,-9.723935 -1.117625,-13.235191 1.505455,-4.428975 2.295109,-4.155656 1.585985,0.548948 -0.328047,2.176384 -0.813781,3.957061 -1.079412,3.957061 -0.568584,0 -0.643175,2.522984 -0.115263,3.898699 0.202235,0.527018 0.61584,0.804856 0.919121,0.617418 0.303281,-0.187438 0.715705,0.480629 0.916498,1.484593 0.200793,1.003963 0.676369,1.927124 1.056837,2.051466 0.380467,0.124343 8.967984,0.207553 19.08337,0.184912 l 18.391612,-0.04117 0.0673,2.741896 c 0.03703,1.508039 0.02851,3.42588 -0.01885,4.261862 l -0.08615,1.519968 1.234821,-1.435324 c 1.205019,-1.400687 1.234822,-1.40448 1.234822,-0.157152 0,0.702997 -0.547188,1.619903 -1.215974,2.037565 -1.029091,0.642679 -1.215974,1.417845 -1.215974,5.043661 0,3.848419 0.123707,4.293593 1.215974,4.375872 0.668786,0.0504 1.220163,-0.233394 1.225283,-0.630604 0.0069,-0.539145 0.122527,-0.544343 0.45599,-0.02049 0.245675,0.385938 0.446682,-11.036238 0.446682,-25.382613 0,-15.821615 0.225873,-26.159947 0.574086,-26.276535 0.787574,-0.263692 -5.655424,-6.497347 -6.715547,-6.497347 -0.467712,0 -0.850391,-0.38112 -0.850391,-0.846933 0,-0.465813 -0.432765,-1.013001 -0.961708,-1.215974 -1.351691,-0.518693 -2.205428,-0.45874 -1.841968,0.12935 0.169412,0.274115 -1.387608,0.14302 -3.460045,-0.291323 -2.072437,-0.434343 -4.383654,-0.795416 -5.136038,-0.802385 -0.752384,-0.007 -1.367971,-0.303599 -1.367971,-0.659178 0,-0.363151 -0.866044,-0.563007 -1.975959,-0.455991 -1.086777,0.104785 -1.896131,0.451741 -1.798564,0.771013 0.193946,0.634661 -6.200372,2.227561 -9.601195,2.391771 -2.400649,0.115916 -3.631669,0.709477 -3.682343,1.775516 -0.04465,0.939372 -6.844069,5.891993 -8.089073,5.891993 -0.946271,0 -2.574577,2.272322 -2.023324,2.823576 0.158116,0.158115 -0.6405,1.828551 -1.774702,3.71208 -1.134202,1.883529 -2.062185,3.691488 -2.062185,4.017687 0,0.326199 -0.128854,0.464234 -0.286342,0.306746 -0.157489,-0.157488 0.502918,-2.314911 1.467569,-4.794274 2.002158,-5.145977 5.020735,-8.63483 10.585865,-12.235073 9.454626,-6.116471 21.947506,-7.41299 32.062294,-3.327446 l 3.635532,1.468456 -0.142402,-2.413342 c -0.0921,-1.560915 -0.514886,-2.612691 -1.196963,-2.977728 -1.390606,-0.744232 -2.518538,-0.720201 -2.046485,0.0436 0.469701,0.75999 0.58348,0.77183 -2.984567,-0.310575 -1.641511,-0.49797 -3.742324,-0.9054 -4.668472,-0.9054 -0.926149,0 -2.094298,-0.410391 -2.595887,-0.9119805 -1.175138,-1.1751382 -4.470457,-1.1751382 -5.645595,0 -0.501589,0.5015895 -1.669738,0.9119805 -2.595887,0.9119805 -0.926148,0 -3.02696,0.40743 -4.668472,0.9054 -3.568048,1.082405 -3.454267,1.070565 -2.984567,0.310575 0.475415,-0.769239 -0.394309,-0.77471 -2.392369,-0.01505 -0.857751,0.326117 -1.559548,1.010102 -1.559548,1.519968 0,0.509866 -0.231177,0.927029 -0.513727,0.927029 -0.28255,0 -2.266108,1.149525 -4.407907,2.554501 -2.141799,1.404975 -4.136845,2.486862 -4.433437,2.404193 -0.877828,-0.244678 -3.474192,2.515825 -3.153138,3.352477 0.162448,0.423332 0.0064,0.948281 -0.34677,1.166552 -0.353171,0.218273 -1.739132,2.073795 -3.079914,4.123385 -2.529545,3.866798 -2.582536,3.144844 -0.169636,-2.311151 2.953417,-6.6782 14.8,-14.865914 24.312356,-16.8033777 7.505241,-1.5286572 18.281369,-0.6532779 23.648803,1.9210677 1.303093,0.624992 2.214448,0.981541 2.025242,0.792332 -0.189212,-0.18921 0.23033,-1.004581 0.932318,-1.8119341 1.145326,-1.3172437 1.762895,-1.4679162 6.016574,-1.4679162 4.481595,0 4.799061,0.089771 5.818236,1.6452263 0.801674,1.223514 1.077992,2.873625 1.077992,6.437582 0,4.299144 -0.147303,4.911637 -1.431299,5.951355 -0.787216,0.637449 -1.676397,1.00752 -1.975958,0.822382 -0.612055,-0.378269 -0.755631,1.145476 -0.163707,1.737397 0.209525,0.209523 0.41472,4.677931 0.45599,9.929795 0.05533,7.043328 0.274452,9.615487 0.835022,9.802833 0.500757,0.167354 0.77781,-0.43729 0.812241,-1.772634 l 0.05229,-2.026624 0.602382,1.823962 c 1.032721,3.126981 0.808173,11.797889 -0.409364,15.807666 -1.422678,4.685374 -1.288392,3.765805 -1.743616,11.939591 -0.346771,6.226451 -0.274366,7.121633 0.603257,7.458403 1.112963,0.427087 2.787785,-1.323679 2.379644,-2.487549 -0.139096,-0.396645 0.312134,-1.439501 1.002729,-2.317458 0.6906,-0.877952 2.031887,-3.015769 2.980644,-4.750703 0.948752,-1.734933 1.941601,-3.066754 2.206319,-2.959602 0.264724,0.107146 0.838396,-0.680301 1.274833,-1.749884 0.678234,-1.662164 0.666865,-1.896099 -0.07823,-1.610181 -0.744778,0.285796 -0.760793,-0.03496 -0.109985,-2.202034 0.418976,-1.395107 0.958644,-3.972927 1.199261,-5.72849 0.240623,-1.755563 0.685414,-3.191933 0.988429,-3.191933 0.906885,0 0.622238,-3.663474 -0.361047,-4.646758 -0.99671,-0.996711 -1.248593,-6.040381 -0.370836,-7.425648 0.564674,-0.891167 1.537411,2.722376 2.139494,7.947812 0.406446,3.527567 -0.578141,11.765208 -1.86207,15.579182 -1.493064,4.435218 -4.334486,9.842625 -6.66909,12.691701 l -2.134746,2.605146 h 6.69268 c 3.680979,0 6.816995,0.205196 6.968937,0.455991 0.498732,0.823226 -0.358414,11.680381 -0.895911,11.348189 -0.288509,-0.178304 -0.524553,-0.07606 -0.524553,0.227205 0,0.965052 -7.514989,0.533971 -8.361313,-0.479629 -0.665053,-0.796493 -0.716835,-0.783185 -0.408939,0.105109 0.374715,1.081068 -0.591711,1.190639 -2.115461,0.239845 -0.582816,-0.363668 -0.717078,-0.311411 -0.422885,0.1646 0.314159,0.50832 -0.773165,0.630471 -4.009973,0.450488 -2.442558,-0.135818 -4.509411,-0.30479 -4.593009,-0.375493 -0.486663,-0.411613 -1.736502,-0.230451 -2.118647,0.307089 -0.2823,0.397106 -0.450105,0.332672 -0.45599,-0.175082 -0.0068,-0.58793 -0.277607,-0.535114 -1.009642,0.196921 -0.575788,0.575788 -1.156355,0.751788 -1.367971,0.414702 -0.606254,-0.965727 -1.577945,0.617763 -1.796565,2.927731 -0.40841,4.315274 -0.143978,4.25591 -18.958428,4.25591 -14.240476,0 -16.972369,-0.141466 -17.611841,-0.91198 -0.987211,-1.189515 -1.551255,-1.15247 -4.549169,0.298795 -3.471762,1.680653 -7.334861,1.991711 -10.851063,0.873744 z m 9.624354,-5.756033 c 7.844675,-4.767093 4.084007,-17.233894 -5.198685,-17.233894 -9.286809,0 -12.9266757,12.431124 -5.065334,17.299478 4.214504,2.609949 5.350814,0.421499 1.494882,-2.879032 -2.895341,-2.478302 -3.551527,-4.815271 -2.1697,-7.727256 1.954229,-4.118231 7.044033,-5.020441 10.247942,-1.816538 3.779836,3.779838 2.066066,9.213578 -4.243551,13.454756 -1.884094,1.266443 2.734966,0.239073 4.934446,-1.097514 z m 20.367569,-1.333699 c 0,-0.262334 0.555537,-0.132663 1.234526,0.288162 1.02077,0.632653 1.334973,0.607227 1.814651,-0.146847 0.385542,-0.606085 0.583249,-0.65707 0.589436,-0.151997 0.0051,0.417991 0.556499,0.759984 1.225284,0.759984 0.798596,0 1.215975,-0.405327 1.215975,-1.180857 0,-1.091197 -0.420046,-1.171981 -5.53209,-1.063978 -4.721038,0.09975 -5.615535,-0.03909 -6.101263,-0.947098 -0.703477,-1.315039 -1.376155,-1.343329 -2.609712,-0.109772 -0.695596,0.695592 -0.793211,1.255019 -0.360176,2.064153 0.488802,0.91333 1.296321,1.097131 4.558698,1.037591 2.180569,-0.0398 3.964671,-0.287 3.964671,-0.549341 z M 34.5367,86.772314 c -0.194085,-0.48501 -0.338152,-0.340947 -0.367326,0.367328 -0.0264,0.640915 0.117298,1.000011 0.319327,0.797983 0.202029,-0.202034 0.223629,-0.726423 0.048,-1.165311 z m 28.484408,-0.959288 c 0.882184,-0.627151 0.771767,-2.71794 -0.196495,-3.720675 -1.166085,-1.207602 -3.477688,0.140974 -3.641861,2.124642 -0.07262,0.877435 0.129526,1.362298 0.478132,1.146852 0.332166,-0.205293 0.603939,-0.08352 0.603939,0.270609 0,0.732849 1.811512,0.850209 2.756285,0.178572 z M 34.5367,81.30043 c -0.194085,-0.48501 -0.338152,-0.340947 -0.367326,0.367327 -0.0264,0.640916 0.117298,1.000011 0.319327,0.797983 0.202029,-0.202034 0.223629,-0.726423 0.048,-1.16531 z m 28.743843,-5.024716 c 1.212752,-1.461279 0.192683,-3.373107 -1.799746,-3.373107 -1.221656,0 -1.86007,0.371942 -2.137215,1.245152 -0.466138,1.468672 0.628527,3.010758 2.137215,3.010758 0.586897,0 1.396784,-0.397265 1.799746,-0.882803 z m -0.09738,-8.358602 c 1.9173,-1.917299 -0.597294,-4.728991 -3.070335,-3.43309 -1.945719,1.019576 -0.912809,4.162675 1.367971,4.162675 0.535029,0 1.301093,-0.328313 1.702364,-0.729585 z M 80.366502,55.27098 c 0.07849,-0.835983 -0.02669,-1.93036 -0.233729,-2.431949 -0.207038,-0.501589 -0.471409,-2.279952 -0.587504,-3.951917 -0.116089,-1.671964 -0.238155,-0.340489 -0.271253,2.958835 -0.03314,3.299324 0.167056,5.761672 0.444803,5.471884 0.277747,-0.289787 0.569204,-1.210871 0.647683,-2.046853 z M 76.567001,15.903811 c 0.222736,-2.310122 -0.911002,-2.651131 -2.601972,-0.782628 -1.383456,1.528701 -0.789824,3.213171 1.040765,2.953226 1.051459,-0.149309 1.415059,-0.654832 1.561207,-2.170598 z M 72.08478,13.604524 c 1.432454,-1.083452 3.01561,-1.136989 4.787662,-0.161901 2.33309,1.283802 3.041754,1.07387 1.590324,-0.471109 -1.920868,-2.044667 -5.311114,-2.023936 -7.254174,0.04436 -1.555414,1.655665 -1.014761,2.018894 0.876188,0.588652 z m -3.631495,60.509291 c 0.648096,-2.134637 1.539332,-2.949407 1.539332,-1.407247 0,0.694716 -0.449855,1.63647 -0.999682,2.092783 -0.894757,0.742589 -0.951397,0.670634 -0.53965,-0.685536 z m 11.284777,-3.94715 c -0.02408,-2.086874 2.369684,-6.991852 3.412182,-6.991852 0.745283,0 1.434065,-1.355198 1.434065,-2.82155 0,-0.493975 -0.236033,-0.75226 -0.524517,-0.573966 -0.288489,0.178293 -0.15596,-1.24193 0.294497,-3.156051 0.450458,-1.914122 0.823288,-4.232606 0.82851,-5.152186 0.0052,-0.919581 0.283091,-1.671965 0.617484,-1.671965 0.980313,0 0.706804,-3.479907 -0.303993,-3.867787 -1.01301,-0.388728 -1.213944,-3.225138 -0.327742,-4.626426 0.84917,-1.342728 1.15216,-0.665979 1.824606,4.075397 0.675188,4.76069 0.06851,11.563833 -1.400936,15.709897 -1.058044,2.985297 -3.596657,8.010882 -4.891992,9.684476 -0.911051,1.1771 -0.941815,1.157662 -0.962164,-0.607987 z M 29.865465,55.26407 c 0,-1.42505 4.000506,-1.817052 18.543608,-1.817052 14.524783,0 18.543609,0.392433 18.543609,1.810759 0,0.219781 -8.344624,0.402434 -18.543609,0.405895 -10.198984,0.0035 -18.543608,-0.17636 -18.543608,-0.399602 z M 11.200742,43.945141 c 0.372378,-1.213318 0.783874,-1.885563 0.914435,-1.493878 0.342825,1.028473 -0.416741,3.699909 -1.051989,3.699909 -0.296723,0 -0.234823,-0.992714 0.137554,-2.206031 z M 24.090251,39.15932 c 2.61724,-7.725688 3.614659,-9.567805 6.613579,-12.214522 10.126525,-8.937229 24.454435,-10.355606 36.041686,-3.567911 1.932633,1.132115 2.455113,1.763043 2.21629,2.676308 -0.291792,1.115805 -0.408981,1.131757 -1.768799,0.24077 -0.800963,-0.524813 -1.4563,-1.289215 -1.4563,-1.69867 0,-0.409456 -0.696856,-1.061976 -1.548573,-1.450044 -1.887186,-0.859858 -2.90463,-0.90869 -2.414654,-0.115891 0.200446,0.324328 -0.775385,0.187531 -2.168513,-0.303994 -1.393128,-0.491524 -3.191134,-0.89368 -3.995569,-0.89368 -0.804435,0 -1.620091,-0.410391 -1.81257,-0.911981 -0.455631,-1.187357 -3.679266,-1.187357 -4.866623,0 -0.501589,0.50159 -1.558612,0.911981 -2.348941,0.911981 -0.790328,0 -2.184456,0.284197 -3.098061,0.631549 -1.134813,0.431456 -1.783339,0.433764 -2.046918,0.0073 -0.504419,-0.816168 -4.274974,0.56451 -4.274974,1.565383 0,0.861745 -5.731387,5.09163 -6.899029,5.09163 -1.187072,0 -2.781842,1.969618 -2.721561,3.361259 0.02856,0.659255 -0.828802,2.703413 -1.905243,4.542574 -1.07644,1.839161 -1.771792,2.796741 -1.545227,2.127955 z m 6.189258,-0.733915 c -0.661393,-1.070157 1.91549,-5.467534 4.500772,-7.680439 7.511241,-6.429343 17.515505,-7.942699 26.618648,-4.026632 3.324629,1.430216 4.66352,2.606243 4.066653,3.571986 -0.507183,0.820648 -2.160823,0.13002 -2.160823,-0.902451 0,-1.122122 -2.282692,-2.265151 -3.754823,-1.88018 -1.514046,0.395932 -8.40492,-0.85633 -8.40492,-1.527406 0,-0.82497 -2.888588,-0.565166 -3.795091,0.341336 -1.164345,1.164345 -8.364652,4.012612 -8.364652,3.308853 0,-0.314428 -0.820783,-0.08684 -1.823962,0.505754 -1.003179,0.592592 -1.823961,1.45787 -1.823961,1.922839 0,0.46497 -0.869466,1.979148 -1.932145,3.36484 -2.745364,3.579846 -2.759732,3.593642 -3.125696,3.0015 z"
         id="path6239" />
    </g>
  </g>
</svg>
