<?xml version="1.0" encoding="UTF-8" standalone="no"?>
<!-- Created with Inkscape (http://www.inkscape.org/) -->

<svg
   width="100mm"
   height="100mm"
   viewBox="0 0 100 100"
   version="1.1"
   id="svg5635"
   inkscape:version="1.1.1 (3bf5ae0d25, 2021-09-20)"
   sodipodi:docname="add_list_type_device_6198.svg"
   xmlns:inkscape="http://www.inkscape.org/namespaces/inkscape"
   xmlns:sodipodi="http://sodipodi.sourceforge.net/DTD/sodipodi-0.dtd"
   xmlns="http://www.w3.org/2000/svg"
   xmlns:svg="http://www.w3.org/2000/svg">
  <sodipodi:namedview
     id="namedview5637"
     pagecolor="#505050"
     bordercolor="#ffffff"
     borderopacity="1"
     inkscape:pageshadow="0"
     inkscape:pageopacity="0"
     inkscape:pagecheckerboard="1"
     inkscape:document-units="mm"
     showgrid="false"
     inkscape:zoom="0.58974467"
     inkscape:cx="397.62971"
     inkscape:cy="116.99979"
     inkscape:window-width="1440"
     inkscape:window-height="890"
     inkscape:window-x="-6"
     inkscape:window-y="-6"
     inkscape:window-maximized="1"
     inkscape:current-layer="layer1" />
  <defs
     id="defs5632" />
  <g
     inkscape:label="Laag 1"
     inkscape:groupmode="layer"
     id="layer1">
    <g
       id="g5651"
       transform="translate(1.3459225,0.44864053)">
      <path
         style="fill:#d0d0d0;fill-opacity:1;stroke-width:0.455671"
         d="m 11.920288,90.9234 c -0.566796,-0.722721 -0.550679,-0.738839 0.17204,-0.172043 0.438584,0.343963 0.797425,0.702804 0.797425,0.797424 0,0.375036 -0.374191,0.133653 -0.969465,-0.625381 z m 37.764895,-6.795093 c 0.313273,-0.126408 0.825903,-0.126408 1.139177,0 0.313274,0.126408 0.05696,0.229836 -0.569589,0.229836 -0.626547,0 -0.882862,-0.103428 -0.569588,-0.229836 z m -0.594127,-7.028656 c -0.168389,-0.272459 -0.06581,-0.733826 0.22794,-1.02526 0.407238,-0.404025 0.461987,-0.340477 0.230515,0.267538 -0.216002,0.56737 -0.07827,0.797425 0.477425,0.797425 0.55569,0 0.693426,-0.230055 0.477424,-0.797425 -0.231471,-0.608015 -0.176722,-0.671563 0.230515,-0.267538 0.293753,0.291434 0.396329,0.752801 0.227941,1.02526 -0.394411,0.638167 -1.477349,0.638167 -1.87176,0 z m 0.02454,-8.162375 c -0.376193,-0.608694 0.129356,-1.367013 0.911342,-1.367013 0.910713,0 1.330914,0.902575 0.707939,1.520634 -0.407237,0.404025 -0.461986,0.340477 -0.230515,-0.267538 0.216002,-0.56737 0.07827,-0.797425 -0.477424,-0.797425 -0.507021,0 -0.688998,0.239784 -0.518722,0.683507 0.295926,0.771182 0.03632,0.92184 -0.39262,0.227835 z M 17.446462,22.742469 c 0,-0.09462 0.358841,-0.453464 0.797424,-0.797425 0.72272,-0.566795 0.738837,-0.550678 0.172041,0.172041 -0.595274,0.759033 -0.969465,1.000416 -0.969465,0.625384 z m 4.55671,-1.422808 c 0.588611,-0.626547 1.172727,-1.139177 1.298037,-1.139177 0.125309,0 -0.253756,0.51263 -0.842366,1.139177 -0.588611,0.626548 -1.172728,1.139178 -1.298037,1.139178 -0.12531,0 0.253755,-0.51263 0.842366,-1.139178 z M 21.547501,18.64143 c 0,-0.09462 0.358841,-0.453464 0.797424,-0.797424 0.72272,-0.566796 0.738837,-0.550679 0.172041,0.172041 -0.595275,0.759033 -0.969465,1.000416 -0.969465,0.625383 z"
         id="path5667" />
      <path
         style="fill:#b9b9b9;fill-opacity:1;stroke-width:0.455671"
         d="m 42.905913,84.088336 c -0.566796,-0.722722 -0.550679,-0.738839 0.172041,-0.172043 0.438583,0.343963 0.797424,0.702804 0.797424,0.797424 0,0.375035 -0.374191,0.133653 -0.969465,-0.625381 z M 28.592131,58.134744 c -0.426499,-0.971536 -0.38266,-0.813559 -0.858985,-3.095432 -0.460791,-2.207448 -0.513286,-7.234943 -0.09516,-9.113419 0.167354,-0.751857 0.386097,-1.777117 0.486095,-2.278355 0.68337,-3.425393 4.235491,-8.820542 7.517105,-11.417377 1.047302,-0.828759 1.944336,-1.674666 1.993409,-1.879794 0.04907,-0.205126 0.278818,-0.30976 0.510543,-0.232518 0.231724,0.07724 1.618728,-0.396927 3.08223,-1.053708 3.129069,-1.404242 7.906995,-2.020565 11.919355,-1.537522 2.993171,0.360343 8.044151,2.029571 8.044151,2.658397 0,0.20348 -1.281574,-0.155837 -2.847943,-0.798484 -5.625163,-2.307879 -12.815252,-1.86889 -18.764146,1.145643 -2.927089,1.483268 -7.559133,6.110785 -9.035976,9.027144 -2.630711,5.194933 -3.369516,11.637753 -1.901408,16.581409 0.69747,2.348637 0.665974,3.623295 -0.04927,1.994016 z M 69.763184,35.817692 c 0.328935,-0.13163 0.721952,-0.115441 0.873371,0.03598 0.151415,0.151416 -0.117718,0.259114 -0.598068,0.239328 -0.530834,-0.02186 -0.638805,-0.12984 -0.275303,-0.275302 z m -3.40804,-1.807955 c 0,-0.448607 0.153547,-0.472893 0.607564,-0.0961 0.334157,0.277328 0.60756,0.547474 0.60756,0.600327 0,0.05285 -0.273403,0.0961 -0.60756,0.0961 -0.334162,0 -0.607564,-0.270147 -0.607564,-0.600327 z M 29.357519,30.728388 c 0.289853,-0.464127 0.958009,-1.104931 1.484791,-1.424006 0.670624,-0.406201 0.556525,-0.153193 -0.38056,0.843869 -1.523582,1.621097 -1.866997,1.80152 -1.104231,0.580137 z m 39.402884,-1.352034 c -0.126864,-0.205271 0.373664,-0.284524 1.112283,-0.176117 0.738625,0.108406 1.342949,0.276355 1.342949,0.37322 0,0.347212 -2.229443,0.168236 -2.455232,-0.197103 z"
         id="path5665" />
      <path
         style="fill:#a3a3a3;fill-opacity:1;stroke-width:0.455671"
         d="m 57.195551,78.506366 c 0,-0.877166 0.09378,-1.236007 0.208392,-0.797424 0.114611,0.438584 0.114611,1.156265 0,1.594849 -0.114615,0.438583 -0.208392,0.07974 -0.208392,-0.797425 z M 74.10155,72.374853 c 0,-0.364905 0.174221,-0.555786 0.387161,-0.424184 0.212935,0.131603 0.269187,0.430158 0.124995,0.663462 -0.368465,0.596191 -0.512156,0.529061 -0.512156,-0.239278 z M 22.494817,53.634328 c 0.02186,-0.530834 0.129839,-0.638805 0.275301,-0.275303 0.13163,0.328936 0.115441,0.721952 -0.03598,0.873371 -0.151416,0.151415 -0.259113,-0.117718 -0.239328,-0.598068 z m 4.592684,-2.012548 c 0,-0.626548 0.103425,-0.882863 0.229834,-0.569589 0.126408,0.313274 0.126408,0.825904 0,1.139178 -0.126409,0.313273 -0.229834,0.05696 -0.229834,-0.569589 z m -5.504026,-0.265807 c 0.02186,-0.530834 0.129839,-0.638805 0.275301,-0.275302 0.13163,0.328935 0.115442,0.721951 -0.03598,0.87337 -0.151416,0.151415 -0.259113,-0.117718 -0.239328,-0.598068 z m 5.52091,-2.696054 c 0.0093,-0.751857 0.111411,-1.004272 0.226943,-0.560918 0.115532,0.443355 0.107935,1.05851 -0.01688,1.367013 -0.124821,0.308503 -0.219348,-0.05424 -0.210061,-0.806095 z m -5.52091,-0.493642 c 0.02186,-0.530834 0.129839,-0.638805 0.275301,-0.275303 0.13163,0.328935 0.115442,0.721951 -0.03598,0.873371 -0.151416,0.151415 -0.259113,-0.117718 -0.239328,-0.598068 z m 0.911342,-2.278357 c 0.02186,-0.53083 0.129839,-0.638805 0.275301,-0.275301 0.13163,0.328938 0.115441,0.721952 -0.03598,0.873371 -0.151416,0.151415 -0.259113,-0.117718 -0.239328,-0.59807 z m 5.01238,-0.911341 c 0.02186,-0.530831 0.12984,-0.638806 0.275302,-0.275302 0.13163,0.328938 0.115441,0.721954 -0.03598,0.87337 -0.151416,0.151415 -0.259113,-0.117716 -0.239327,-0.598068 z M 66.948213,34.728882 c -2.986841,-2.34945 -0.0032,-6.451275 4.129017,-5.676101 1.596147,0.299438 3.328102,2.127607 3.328102,3.512982 0,0.478832 -0.503311,1.373913 -1.118467,1.989068 -1.466727,1.466728 -4.586378,1.55239 -6.338652,0.174051 z m 6.066407,-0.625207 c 2.879754,-3.065357 -2.799296,-6.476713 -5.98404,-3.59456 -1.158703,1.04861 -1.062429,3.125146 0.185408,3.999166 1.606185,1.125017 4.554919,0.919266 5.798632,-0.404606 z M 33.850617,32.054821 c 0,-0.235828 0.202703,-0.554056 0.450451,-0.707173 0.258302,-0.159639 0.334694,0.02327 0.179084,0.428779 -0.302926,0.789412 -0.629535,0.933846 -0.629535,0.278394 z m -5.196282,-0.411476 c -0.15765,-0.255083 -0.07489,-0.59465 0.183901,-0.754594 0.258795,-0.159944 0.325305,-0.532953 0.147798,-0.82891 -0.183857,-0.306547 0.009,-0.268989 0.448239,0.08728 0.690294,0.559937 0.955784,0.412009 0.839505,-0.467762 -0.07075,-0.535316 1.210667,-1.351865 1.468021,-0.935456 0.13787,0.223077 -0.435916,1.071062 -1.275079,1.88441 -0.876148,0.849197 -1.647787,1.281355 -1.812385,1.015031 z m 18.689533,-4.545346 c -0.126864,-0.205271 0.373664,-0.284524 1.112283,-0.176117 0.738625,0.108407 1.342949,0.276356 1.342949,0.37322 0,0.347212 -2.229443,0.168236 -2.455232,-0.197103 z m 3.736807,0.06194 c 0.328935,-0.13163 0.721951,-0.115442 0.873371,0.03598 0.151415,0.151416 -0.117718,0.259113 -0.598068,0.239328 -0.530834,-0.02186 -0.638806,-0.12984 -0.275303,-0.275302 z m -5.468052,-4.55671 c 0.328938,-0.13163 0.721952,-0.115441 0.873371,0.03598 0.151415,0.151415 -0.117718,0.259113 -0.598069,0.239327 -0.530831,-0.02186 -0.638805,-0.129839 -0.275302,-0.275301 z"
         id="path5663" />
      <path
         style="fill:#8c8c8c;fill-opacity:1;stroke-width:0.455671"
         d="m 65.783559,81.430257 c 0.02187,-0.530834 0.129839,-0.638806 0.275298,-0.275303 0.13163,0.328935 0.115444,0.721951 -0.03595,0.873371 -0.15142,0.151415 -0.259113,-0.117718 -0.239328,-0.598068 z m -0.263811,-6.61277 c 0,-0.978545 0.153789,-1.779172 0.341754,-1.779172 0.187964,0 0.341753,0.705579 0.341753,1.567955 0,0.862375 -0.153789,1.663003 -0.341753,1.779171 -0.187965,0.116169 -0.341754,-0.58941 -0.341754,-1.567954 z m 0.299782,-6.335882 c 0,-0.626547 0.103428,-0.882862 0.229836,-0.569588 0.126407,0.313273 0.126407,0.825903 0,1.139177 -0.126408,0.313274 -0.229836,0.05696 -0.229836,-0.569589 z M 7.913346,53.634328 c 0.021863,-0.530834 0.1298393,-0.638805 0.2753013,-0.275303 0.1316301,0.328936 0.1154415,0.721952 -0.035975,0.873371 -0.1514158,0.151415 -0.2591132,-0.117718 -0.2393275,-0.598068 z m 7.746406,-0.455671 c 0.02186,-0.530834 0.12984,-0.638805 0.275302,-0.275303 0.13163,0.328936 0.115441,0.721952 -0.03598,0.873371 -0.151415,0.151415 -0.259113,-0.117718 -0.239327,-0.598068 z"
         id="path5661" />
      <path
         style="fill:#767676;fill-opacity:1;stroke-width:0.455671"
         d="m 60.849121,82.275462 c 0.939821,-0.09831 2.477711,-0.09831 3.417532,0 0.939822,0.09831 0.170877,0.178742 -1.708766,0.178742 -1.879643,0 -2.648587,-0.08043 -1.708766,-0.178742 z m 13.442293,0.03017 c 0.313274,-0.126408 0.825904,-0.126408 1.139178,0 0.313273,0.126408 0.05696,0.229836 -0.569589,0.229836 -0.626548,0 -0.882862,-0.103428 -0.569589,-0.229836 z"
         id="path5659" />
      <path
         style="fill:#606060;fill-opacity:1;stroke-width:0.455671"
         d="m 10.191701,47.710606 c 0.02186,-0.530834 0.129839,-0.638805 0.275301,-0.275303 0.13163,0.328935 0.115442,0.721951 -0.03598,0.873371 -0.151416,0.151415 -0.259113,-0.117718 -0.239328,-0.598068 z M 28.029962,29.485867 c 0.432617,-0.451673 0.884658,-0.723141 1.004537,-0.603262 0.119879,0.119879 -0.23408,0.489429 -0.786575,0.821224 -0.959783,0.576386 -0.969494,0.566676 -0.217962,-0.217962 z m -7.849474,-7.625283 c 0,-0.07842 0.666419,-0.74484 1.480931,-1.480931 l 1.48093,-1.338347 -1.338347,1.480931 c -1.247527,1.380435 -1.623514,1.690381 -1.623514,1.338347 z m 58.054754,-0.882676 -0.868049,-1.02526 1.02526,0.868048 c 0.963489,0.81575 1.232699,1.182472 0.868049,1.182472 -0.08647,0 -0.547835,-0.461367 -1.02526,-1.02526 z"
         id="path5657" />
      <path
         style="fill:#494949;fill-opacity:1;stroke-width:0.455671"
         d="m 36.015054,85.916834 c 1.31575,-0.09205 3.468795,-0.09205 4.784545,0 1.31575,0.09204 0.239227,0.167359 -2.392273,0.167359 -2.631499,0 -3.708022,-0.07531 -2.392272,-0.167359 z m 0.01527,-2.278884 c 1.324151,-0.09234 3.37467,-0.09137 4.556709,0.0023 1.182041,0.0934 0.09864,0.168949 -2.407546,0.167764 -2.50619,-0.0012 -3.473313,-0.0777 -2.149162,-0.170043 z m -0.01527,-5.923193 c 1.31575,-0.09205 3.468795,-0.09205 4.784545,0 1.31575,0.09204 0.239227,0.167358 -2.392273,0.167358 -2.631499,0 -3.708022,-0.07531 -2.392272,-0.167358 z m -2.886419,-1.486745 c 0.04033,-0.559391 0.917107,-0.687704 4.828422,-0.706618 l 4.779143,-0.02311 -4.640124,0.152135 c -3.120241,0.102302 -4.701803,0.333761 -4.828423,0.706618 -0.103563,0.304967 -0.166121,0.246905 -0.139018,-0.129023 z M 12.049605,67.614258 C 8.8751967,60.630431 7.4766236,52.502022 8.2976251,45.808006 c 0.2686869,-2.190734 0.4976943,-4.29073 0.5089052,-4.666658 0.043403,-1.455475 1.7677327,2.600657 1.7857677,4.200655 0.01492,1.323421 -0.13057,1.637032 -0.6644066,1.432181 -0.5525753,-0.212047 -0.6835064,0.183489 -0.6835064,2.064818 0,2.52269 0.868928,3.274784 0.977622,0.846176 0.03645,-0.814512 0.218281,0.467063 0.404061,2.847944 0.185779,2.380881 0.649139,5.508009 1.029689,6.949169 0.380549,1.441164 0.520468,2.514342 0.310931,2.38484 -0.801587,-0.49541 -0.886217,0.705803 -0.174965,2.483398 0.716279,1.790158 1.53193,2.454955 1.574291,1.283133 0.02408,-0.666136 2.206679,3.283032 2.237174,4.047916 0.01132,0.284061 -0.476187,0.611433 -1.08336,0.727502 -0.982371,0.187791 -1.254419,-0.120006 -2.470223,-2.794822 z m 8.708536,2.3239 c -1.348985,-0.13379 -1.627075,-0.459891 -3.306278,-3.877095 -2.5282,-5.144922 -3.693049,-9.980743 -3.752527,-15.578461 -0.02663,-2.50619 0.119091,-5.479443 0.323823,-6.607228 l 0.372238,-2.05052 0.830077,1.822684 c 0.543408,1.193217 0.821779,2.84557 0.806052,4.784545 -0.01321,1.629024 -0.12745,2.705546 -0.253859,2.392273 -0.50313,-1.246889 -1.109586,-0.464475 -0.977513,1.261137 0.07707,1.006901 0.322244,1.809593 0.544844,1.783765 0.607634,-0.07051 1.174072,1.026144 1.192756,2.309231 0.0091,0.626548 0.505084,2.523278 1.102135,4.214957 0.59705,1.691678 0.900303,3.075779 0.673895,3.075779 -0.569624,0 -0.514664,1.098044 0.125257,2.502517 0.313049,0.687066 0.835517,1.116166 1.253095,1.029156 0.600571,-0.125141 3.175389,2.743814 2.693297,3.000967 -0.08493,0.04529 -0.817216,0.01663 -1.627292,-0.06371 z m 4.319841,-1.758357 C 21.183165,62.874 19.147553,56.560396 19.137149,49.753862 c -0.0081,-5.282746 0.383787,-6.236785 1.564585,-3.809194 1.11047,2.283006 1.178446,6.588454 0.104022,6.588454 -0.614766,0 -0.689921,0.324087 -0.43902,1.893139 0.368875,2.306812 0.641951,2.792981 1.404449,2.500381 0.368031,-0.141226 0.687028,0.273963 0.854729,1.112461 0.147156,0.735781 0.870607,2.553243 1.607669,4.038799 0.879994,1.77364 1.118284,2.615888 0.694029,2.453086 -1.014254,-0.389202 -0.765051,0.459959 0.747922,2.548554 0.766705,1.058405 1.329169,2.261058 1.249922,2.672556 -0.09907,0.514443 -0.676235,0.02324 -1.847474,-1.572297 z m 8.014322,0.954681 c -0.504361,-1.314342 0.549655,-1.599615 5.354568,-1.449244 l 4.744999,0.148499 -4.898462,0.0961 c -3.956476,0.07762 -4.898463,0.224578 -4.898463,0.764192 0,0.536489 0.964893,0.696945 4.898463,0.814567 l 4.898462,0.146475 -4.912764,0.09678 C 34.179221,69.832611 33.321,69.730481 33.092304,69.13449 Z m -6.066619,-7.503735 c -0.0056,-0.133994 -0.420418,-1.410962 -0.921879,-2.837709 -0.50146,-1.426746 -1.101527,-3.934176 -1.333481,-5.572067 -0.422471,-2.983187 -0.172907,-7.978585 0.3986,-7.978585 0.587329,0 1.846249,3.512285 1.810654,5.051578 -0.01979,0.855609 -0.1394,1.299336 -0.265809,0.986063 -0.126408,-0.313274 -0.443887,-0.569589 -0.705507,-0.569589 -0.296494,0 -0.392846,0.861997 -0.255789,2.288375 0.232763,2.422411 0.646921,3.265297 1.180341,2.402206 0.181889,-0.2943 0.636892,0.537081 1.03991,1.90013 0.67219,2.273411 0.665371,2.489886 -0.11019,3.498295 -0.454695,0.591215 -0.831277,0.965298 -0.83685,0.831303 z M 77.929186,45.185843 c 0.3091,-0.311414 0.676781,-0.45142 0.817077,-0.311125 0.140297,0.140295 -0.112601,0.395089 -0.561992,0.566207 -0.649423,0.247286 -0.701761,0.194946 -0.255085,-0.255082 z M 28.382565,30.974003 c 0,-0.07842 0.666419,-0.74484 1.480931,-1.48093 l 1.48093,-1.338347 -1.338347,1.48093 c -1.247527,1.380435 -1.623514,1.690381 -1.623514,1.338347 z M 59.36819,28.838232 c -0.410691,-0.26541 -0.466894,-0.444501 -0.140811,-0.448693 0.298483,-0.0038 0.669426,0.198074 0.824318,0.448693 0.349636,0.565727 0.191892,0.565727 -0.683507,0 z M 24.737198,26.872965 c 0,-0.07842 0.666418,-0.74484 1.48093,-1.480931 l 1.480931,-1.338347 -1.338347,1.480931 c -1.247528,1.380434 -1.623514,1.69038 -1.623514,1.338347 z m -2.734026,-5.097633 c 0.588611,-0.626547 1.172727,-1.139177 1.298037,-1.139177 0.125309,0 -0.253756,0.51263 -0.842366,1.139177 -0.588611,0.626548 -1.172728,1.139178 -1.298037,1.139178 -0.12531,0 0.253755,-0.51263 0.842366,-1.139178 z M 47.435307,15.76817 c 0.328935,-0.13163 0.721952,-0.115442 0.873371,0.03598 0.151415,0.151416 -0.117718,0.259113 -0.598068,0.239328 -0.530834,-0.02186 -0.638805,-0.12984 -0.275303,-0.275302 z m 17.856606,-1.96708 c -0.410692,-0.26541 -0.466894,-0.4445 -0.140812,-0.448693 0.298483,-0.0038 0.669427,0.198074 0.824318,0.448693 0.349637,0.565727 0.191892,0.565727 -0.683506,0 z"
         id="path5655" />
      <path
         style="fill:#333333;fill-opacity:1;stroke-width:0.455671"
         d="M 15.690655,98.540564 C 11.58275,97.693809 7.323392,94.115653 5.4693047,89.953915 4.1807453,87.06158 4.1738699,81.813941 5.4548726,78.938885 c 1.2370679,-2.776444 3.4852217,-5.259323 6.5235384,-7.204646 2.222291,-1.42285 2.919134,-1.625023 6.151558,-1.784694 3.322136,-0.164101 3.87769,-0.0616 6.265475,1.156042 l 2.620108,1.336109 v -4.878318 c 0,-4.406142 0.106499,-5.035255 1.100294,-6.499695 0.605162,-0.891757 0.992849,-1.72882 0.861527,-1.86014 -0.131323,-0.131324 5.47384,-0.255171 12.455917,-0.275221 11.109369,-0.0319 12.828729,0.05763 13.768077,0.71693 1.670202,1.172264 2.34414,3.380988 2.34414,7.68254 0,2.38741 0.18286,3.887839 0.473824,3.887839 0.86886,0 4.287254,-1.913549 6.224748,-3.484484 l 1.914023,-1.55191 0.03317,-15.459093 0.03317,-15.459092 -1.035872,-0.544485 c -0.569698,-0.299467 -1.343418,-0.948738 -1.719347,-1.442826 -0.375929,-0.494087 -1.042347,-1.2841 -1.480931,-1.755583 -0.438583,-0.471483 -0.797424,-1.540749 -0.797424,-2.376145 0,-0.888442 -0.236425,-1.536727 -0.569588,-1.561843 -0.313274,-0.02362 -1.065541,-0.193277 -1.671707,-0.377025 -0.868509,-0.263272 -1.046931,-0.190268 -0.841752,0.344417 0.228077,0.594363 -0.02898,0.603446 -2.072965,0.07324 -1.283334,-0.332891 -3.467693,-0.621446 -4.854135,-0.641232 -1.386443,-0.01978 -2.264489,-0.139399 -1.951215,-0.265808 1.332208,-0.537558 0.405802,-1.104654 -1.594849,-0.97628 -1.558437,0.1 -2.164437,0.330253 -2.164437,0.822391 0,0.425202 -0.898272,0.964434 -2.376942,1.426876 -1.307319,0.408854 -3.089774,1.163951 -3.961012,1.677994 -1.140206,0.672738 -1.513883,0.751725 -1.333591,0.28189 0.414854,-1.081093 -0.877476,-0.720186 -2.581051,0.720804 -1.159925,0.981138 -1.438189,1.45194 -1.020383,1.726415 0.427933,0.281129 0.269049,0.660339 -0.622893,1.486663 -0.658547,0.610099 -1.891053,2.131793 -2.738902,3.381543 -0.84785,1.24975 -1.541545,2.018695 -1.541545,1.708766 0,-1.222142 -0.992934,-0.4622 -1.794075,1.373096 -0.695712,1.593771 -0.738047,2.022277 -0.239145,2.420575 0.501959,0.400737 0.504331,0.910133 0.01379,2.961861 l -0.592429,2.477888 -0.561333,-1.480931 c -0.308732,-0.814512 -0.735272,-1.480931 -0.947866,-1.480931 -0.212594,0 -0.07045,-1.076522 0.315873,-2.392272 2.367334,-8.062712 8.894107,-14.683229 17.019639,-17.264094 4.377936,-1.390538 10.564266,-1.32572 14.94207,0.156558 1.827359,0.618722 3.415058,0.975131 3.528229,0.792019 0.113166,-0.18311 0.132149,-0.965141 0.04219,-1.737845 -0.08997,-0.772704 -0.03723,-1.328785 0.117144,-1.235736 0.154395,0.09305 0.545119,-0.116875 0.868276,-0.466498 0.490931,-0.531158 0.397277,-0.635679 -0.569602,-0.635679 -0.636431,0 -1.157145,0.167757 -1.157145,0.372794 0,0.205037 -1.3841,0.01181 -3.075779,-0.429403 -4.031065,-1.051348 -10.756368,-1.057202 -14.758272,-0.01284 -2.30954,0.602708 -2.971413,0.650369 -2.799192,0.201568 0.290566,-0.757203 0.07465,-0.741361 -2.177482,0.159763 -1.438964,0.575759 -1.817385,0.942258 -1.646729,1.594848 0.121866,0.466014 0.04798,0.8473 -0.164201,0.8473 -0.212176,0 -1.715746,1.019367 -3.341265,2.26526 -1.909908,1.463864 -3.036489,2.068385 -3.184447,1.708766 -0.338808,-0.823494 -3.021637,2.446812 -2.907804,3.544545 0.142619,1.375324 -3.181618,7.539175 -3.914329,7.258007 -0.397947,-0.152706 -0.79065,0.380221 -1.140412,1.547625 -0.700237,2.337183 -0.673343,2.813978 0.158727,2.813978 0.524211,0 0.619235,0.304095 0.391569,1.253095 -0.428178,1.784808 -0.561771,1.807154 -1.12609,0.188349 -0.276162,-0.7922 -0.667747,-1.337996 -0.870188,-1.21288 -0.556484,0.343926 0.816288,-4.541688 2.077356,-7.393186 1.555241,-3.516678 4.738316,-7.830828 7.774154,-10.536626 3.034125,-2.704273 8.770339,-5.694107 12.933217,-6.741064 5.58612,-1.404899 14.484604,-0.731562 18.803148,1.422812 1.19923,0.598255 1.437669,0.550235 3.378039,-0.680311 3.908677,-2.47881 8.271977,-2.208438 11.505601,0.712945 1.777176,1.605571 3.22256,2.041568 3.22256,0.972076 0,-0.820894 -2.558561,-3.209342 -3.087641,-2.882352 -0.235217,0.145373 -1.635981,-0.478671 -3.112806,-1.386764 -1.476825,-0.908094 -3.710397,-2.231233 -4.963492,-2.940309 -1.253095,-0.709077 -2.02204,-1.292945 -1.708766,-1.297485 0.313274,-0.0046 0.569589,-0.175328 0.569589,-0.37953 0,-0.453706 -2.963525,-1.907079 -3.888664,-1.907079 -0.697191,0 -0.918255,0.695466 -0.326293,1.026522 0.187965,0.10512 0.03418,0.09881 -0.341753,-0.01402 C 57.282944,10.952075 56.556199,10.85645 49.7991,10.85645 c -5.260305,0 -7.756603,0.19681 -9.780959,0.771134 -1.971574,0.55935 -2.805468,0.629704 -3.036326,0.256168 -0.228747,-0.370119 -0.90612,-0.290462 -2.408239,0.283202 -1.968726,0.751864 -2.781102,1.627807 -1.520383,1.639351 0.313273,0.0029 -0.763249,0.740366 -2.392273,1.638885 -1.629024,0.898518 -3.976882,2.480859 -5.217463,3.516312 -1.240581,1.035453 -2.108708,1.644962 -1.929169,1.354462 0.717559,-1.161035 -0.756695,-1.066988 -2.003815,0.127829 -1.344011,1.287645 -1.744122,2.470717 -0.835588,2.470717 0.271918,0 -0.355453,0.96548 -1.394158,2.145511 -1.038705,1.180032 -2.590859,3.38434 -3.449232,4.898463 -0.858372,1.514123 -1.563839,2.496636 -1.567703,2.183362 -0.01506,-1.221016 -0.99656,-0.476072 -1.801102,1.367013 -0.699342,1.602088 -0.739795,2.020824 -0.234198,2.424192 0.50955,0.406521 0.499034,0.813056 -0.06325,2.445101 -0.37093,1.076631 -0.801627,2.885603 -0.957105,4.019938 L 10.92545,44.460518 10.04487,42.744089 C 8.9596312,40.628743 9.1759997,39.184657 11.377385,33.850613 13.541788,28.60618 16.469984,24.311647 20.853609,19.952648 27.293692,13.548745 35.906536,9.4684351 45.356308,8.344565 57.781339,6.8668451 71.022836,11.652796 79.736614,20.77084 c 6.633744,6.941506 10.359146,14.895327 11.515315,24.585464 1.440704,12.074907 -3.190963,25.33233 -11.814249,33.81644 -1.264077,1.243672 -2.298322,2.422721 -2.298322,2.620108 0,0.197383 2.665675,0.358882 5.923722,0.358882 h 5.923723 v 6.74393 c 0,4.637719 -0.170772,6.914702 -0.546805,7.290736 -0.300743,0.300742 -0.378162,0.546805 -0.172044,0.546805 0.206123,0 0.121373,0.305322 -0.188328,0.678489 -0.309706,0.373167 -0.754874,0.559965 -0.989267,0.415103 -0.256902,-0.158774 -0.234164,-0.494731 0.05725,-0.845867 0.353231,-0.425615 0.267151,-0.752158 -0.319626,-1.212526 -0.714752,-0.560776 -0.7398,-0.54902 -0.227835,0.106918 0.473656,0.606854 0.438478,0.848204 -0.199233,1.367013 -0.678731,0.552182 -0.738201,0.533299 -0.481189,-0.152782 0.161285,-0.430559 0.09381,-0.906097 -0.149957,-1.056746 -0.243761,-0.150654 -0.304456,-0.516061 -0.134878,-0.81202 0.177356,-0.309523 0.132121,-0.376799 -0.106482,-0.158377 -0.228145,0.208852 -0.41481,0.567693 -0.41481,0.797424 0,0.229736 -0.205052,0.4177 -0.455671,0.4177 -0.250619,0 -0.455671,-0.1948 -0.455671,-0.432888 0,-0.238088 -0.286399,-0.699455 -0.636436,-1.025259 -0.528742,-0.492134 -0.569466,-0.47671 -0.240649,0.09113 0.549735,0.949368 0.641361,1.822684 0.191231,1.822684 -0.207558,0 -0.480805,-0.256315 -0.607213,-0.569589 -0.176759,-0.438059 -0.238143,-0.431848 -0.265806,0.02688 -0.01978,0.328065 -0.250984,0.463595 -0.513774,0.301184 -0.322269,-0.199173 -0.287747,-0.541656 0.106066,-1.052153 0.411412,-0.533308 0.283359,-0.500468 -0.433543,0.111193 -0.559573,0.477425 -1.017409,0.708632 -1.017409,0.513792 0,-0.194836 -0.271447,-0.128973 -0.603212,0.14637 -0.441764,0.366633 -0.75538,0.351077 -1.171726,-0.05812 -0.312682,-0.307314 -0.502601,-0.353697 -0.422047,-0.103078 0.08056,0.250619 -0.05859,0.455671 -0.309205,0.455671 -0.250619,0 -0.419053,-0.109848 -0.374302,-0.244107 0.04475,-0.134264 -0.607017,-0.244112 -1.448382,-0.244112 -0.841364,0 -1.520118,0.109848 -1.508339,0.244112 0.07268,0.828578 -0.148307,1.383285 -0.551093,1.383285 -0.255517,0 -0.372228,-0.509295 -0.259354,-1.131764 0.112874,-0.622474 0.02506,-1.243107 -0.195105,-1.379184 -0.22018,-0.136081 -0.326802,0.134373 -0.23694,0.601012 0.08987,0.466639 -0.02023,1.138535 -0.244677,1.493101 -0.322296,0.509163 -0.420876,0.453111 -0.469008,-0.266672 -0.03354,-0.501238 -0.0432,-1.045464 -0.02155,-1.209392 0.02169,-0.163927 -0.312891,-0.574031 -0.743464,-0.911342 -0.690123,-0.540644 -0.715576,-0.527024 -0.214876,0.114966 0.466908,0.598665 0.414501,0.867151 -0.294496,1.508786 -0.670438,0.60674 -0.915716,0.647504 -1.101593,0.183084 -0.179275,-0.44792 -0.248122,-0.454892 -0.275093,-0.02784 -0.01978,0.313273 -0.25313,0.569588 -0.51854,0.569588 -0.26541,0 -0.364592,-0.190885 -0.220404,-0.424184 0.144193,-0.233303 0.04868,-0.556123 -0.212229,-0.717376 -0.260917,-0.161258 -0.41805,-0.124162 -0.349189,0.08243 0.06887,0.206592 -0.07984,0.444324 -0.330462,0.528291 -0.250619,0.08397 -0.667704,0.328634 -0.926853,0.543711 -0.603837,0.501142 -2.100014,0.292791 -1.933617,-0.269265 0.06954,-0.234912 0.331496,-0.358764 0.582115,-0.275225 0.250619,0.08354 0.303659,-1.19e-4 0.117873,-0.18591 -0.185791,-0.18579 -0.08326,-0.664245 0.227836,-1.06323 0.487996,-0.625864 0.466064,-0.647796 -0.1598,-0.1598 -0.398985,0.311101 -0.893229,0.413627 -1.098312,0.227836 -0.205089,-0.185786 -0.239743,-0.104718 -0.07701,0.180159 0.592745,1.037663 -2.501096,2.064745 -3.134137,1.040465 -0.14756,-0.238762 -0.413713,-0.344237 -0.591447,-0.234388 -0.177735,0.109844 -0.243406,-1.211611 -0.145938,-2.936567 0.138287,-2.447345 0.01599,-3.297504 -0.556702,-3.870205 -0.543329,-0.543328 -0.735731,-0.577549 -0.740894,-0.13178 -0.0051,0.44473 -0.122448,0.42346 -0.448695,-0.08137 -0.367439,-0.568573 -0.448275,-0.53026 -0.480719,0.227835 l -0.03901,0.911342 -0.391618,-0.911342 c -0.334872,-0.779297 -0.396256,-0.795802 -0.423642,-0.113917 -0.01761,0.438578 -0.237071,0.797419 -0.48769,0.797419 -0.250619,0 -0.455671,0.839834 -0.455671,1.866296 0,1.026463 -0.349833,2.458514 -0.777402,3.182334 -1.472816,2.493272 -2.588831,2.697777 -14.722235,2.697777 -10.405107,0 -11.131085,-0.05511 -12.755903,-0.96831 l -1.722873,-0.968306 -2.440208,1.169279 c -2.772275,1.3284 -6.522249,1.808335 -9.436231,1.207683 z m 48.972696,-3.001481 c 0.05748,-0.391636 -0.02274,-0.584818 -0.178272,-0.429293 -0.155525,0.15553 -0.329805,0.603213 -0.387288,0.994853 -0.05748,0.391636 0.02274,0.584817 0.178272,0.429292 0.155525,-0.155529 0.329805,-0.603212 0.387288,-0.994852 z M 30.433085,93.543508 c 0.453614,-0.501238 0.722227,-0.911342 0.596917,-0.911342 -0.125309,0 -0.598974,0.410104 -1.052588,0.911342 -0.453614,0.501238 -0.722227,0.911342 -0.596918,0.911342 0.12531,0 0.598974,-0.410104 1.052589,-0.911342 z M 17.446462,92.638632 c 0,-1.078209 -0.371228,-1.606217 -1.788884,-2.544375 -4.239826,-2.805785 -4.242945,-8.938469 -0.0057,-11.210928 4.390925,-2.35488 9.540991,0.706618 9.540991,5.671723 0,3.097118 -2.466622,6.682747 -5.91505,8.598475 l -1.603521,0.890814 2.263226,-0.25524 c 2.78903,-0.314536 5.289393,-1.906372 6.96022,-4.431163 1.05558,-1.59509 1.256986,-2.384677 1.256986,-4.927849 0,-2.543173 -0.201406,-3.332759 -1.256986,-4.927849 -0.691342,-1.04469 -2.111731,-2.46508 -3.156419,-3.156419 -1.595089,-1.05558 -2.384676,-1.256987 -4.92785,-1.256987 -2.543174,0 -3.332761,0.201407 -4.927849,1.256987 -3.677794,2.433848 -5.3156131,6.621632 -4.2040844,10.749537 0.6415874,2.382672 3.8176764,5.750144 6.0223834,6.385277 0.833086,0.239992 1.565965,0.454846 1.628619,0.477447 0.06266,0.0226 0.113918,-0.571152 0.113918,-1.31945 z m 36.171585,-0.611497 c 2.359988,-1.548224 2.561076,-2.800116 2.55373,-15.898405 -0.0072,-12.882761 -0.08859,-13.391399 -2.41897,-15.121769 -1.215872,-0.902816 -1.843827,-0.955268 -11.436709,-0.955268 -11.0159,0 -11.783043,0.145491 -13.172873,2.498289 -0.575956,0.975012 -0.76066,2.411274 -0.76066,5.914905 0,3.568951 -0.130267,4.553902 -0.569588,4.30666 -0.313274,-0.176304 0.279584,0.580543 1.317462,1.681877 2.253818,2.391612 3.185698,4.138558 3.84329,7.204805 l 0.490272,2.286055 4.858533,0.128987 c 4.16739,0.110633 4.879843,0.240257 5.008336,0.911196 0.133206,0.695559 -0.415993,0.796522 -4.957364,0.911342 l -5.107165,0.129128 -0.641769,2.278355 c -1.23408,4.381126 -1.231705,4.235512 -0.07296,4.472944 0.589145,0.120721 5.284457,0.188953 10.434027,0.151629 8.230205,-0.05965 9.516436,-0.168617 10.632411,-0.90073 z M 33.394946,76.683683 c 0,-0.85611 0.303781,-0.911342 5.01238,-0.911342 4.7086,0 5.012381,0.05523 5.012381,0.911342 0,0.85611 -0.303781,0.911342 -5.012381,0.911342 -4.708599,0 -5.01238,-0.05523 -5.01238,-0.911342 z m 0,-7.974242 c 0,-0.566135 0.860712,-0.683507 5.01238,-0.683507 4.151669,0 5.012381,0.117372 5.012381,0.683507 0,0.566135 -0.860712,0.683506 -5.012381,0.683506 -4.151668,0 -5.01238,-0.117371 -5.01238,-0.683506 z m 32.808309,12.303116 c 0,-0.877167 -0.205052,-1.594849 -0.455671,-1.594849 -0.250619,0 -0.455671,0.217155 -0.455671,0.482565 0,0.26541 -0.205052,0.355833 -0.455671,0.200942 -0.250619,-0.154892 -0.455671,-0.0709 -0.455671,0.186643 0,0.257545 -0.341216,0.337324 -0.758255,0.177292 -0.506396,-0.194321 -0.649891,-0.115626 -0.432008,0.236917 0.213669,0.345718 0.08043,0.433553 -0.386085,0.254538 -0.534466,-0.205093 -0.635802,-0.0739 -0.405834,0.525388 0.265469,0.691805 0.09839,0.764019 -1.247928,0.539396 -0.854939,-0.142638 -1.964539,-0.08355 -2.465777,0.131307 -0.599517,0.256989 0.530848,0.401614 3.303614,0.42268 l 4.214957,0.03203 z m -1.822684,0.960094 c 0,-0.0985 0.307578,-0.297111 0.683506,-0.441372 0.375929,-0.144256 0.683507,-0.06367 0.683507,0.179083 0,0.242754 -0.307578,0.441372 -0.683507,0.441372 -0.375928,0 -0.683506,-0.08059 -0.683506,-0.179083 z m 11.514363,0.335861 c -0.308503,-0.124817 -0.923659,-0.132413 -1.367013,-0.0169 -0.443354,0.115531 -0.19094,0.217656 0.560917,0.226942 0.751858,0.0093 1.114599,-0.08524 0.806096,-0.21006 z M 59.823861,81.012557 c 0,0.186684 0.307578,0.08416 0.683507,-0.227836 0.375928,-0.311993 0.683506,-0.434901 0.683506,-0.273124 0,0.161772 0.477735,-0.01891 1.061636,-0.401474 0.583897,-0.382586 1.199053,-0.558192 1.367013,-0.390232 0.167956,0.167956 0.305377,0.05405 0.305377,-0.25313 0,-0.307181 0.205052,-0.43178 0.455671,-0.276888 0.250619,0.154892 0.455671,0.05237 0.455671,-0.227836 0,-0.280201 0.183567,-0.396005 0.407926,-0.257344 0.603499,0.372985 0.959087,-0.896966 0.959087,-3.425293 0,-1.273536 -0.208338,-2.241085 -0.482565,-2.241085 -0.26541,0 -0.357282,0.202705 -0.204168,0.450453 0.159312,0.257769 -0.02246,0.335005 -0.424936,0.180556 -0.413763,-0.158774 -0.818376,0.02989 -0.982759,0.458272 -0.15368,0.400494 -0.462989,0.614719 -0.687343,0.476058 -0.224359,-0.138661 -0.407926,-0.02286 -0.407926,0.257345 0,0.280201 -0.205052,0.382727 -0.455671,0.227835 -0.250619,-0.154891 -0.455671,-0.05237 -0.455671,0.227836 0,0.280201 -0.202705,0.384176 -0.450453,0.231061 -0.258302,-0.159639 -0.334691,0.02329 -0.179084,0.428778 0.36081,0.940254 0.906038,0.892235 2.740191,-0.241333 1.33698,-0.8263 1.534714,-0.852569 1.534714,-0.203894 0,0.746557 -4.366303,3.060883 -6.948982,3.683252 -1.116472,0.269046 -1.253095,0.176235 -1.253095,-0.851266 0,-0.918077 0.331441,-1.262624 1.625378,-1.68966 0.893958,-0.295034 1.531278,-0.630526 1.416266,-0.745542 -0.115016,-0.115011 -0.975856,0.111252 -1.912984,0.50281 -1.654404,0.691253 -1.696518,0.766685 -1.450815,2.598555 0.273976,2.042641 1.086137,2.900519 2.015637,2.1291 0.321681,-0.266969 0.584872,-0.332658 0.584872,-0.145974 z m 17.596432,-2.228245 c 0.682212,0.178404 1.283843,-0.153584 2.155401,-1.18937 1.785879,-2.122396 1.561115,-3.079793 -0.349937,-1.490563 -0.520974,0.433243 -0.313338,0.0744 0.461407,-0.797424 1.879771,-2.115311 3.282914,-4.192515 5.065681,-7.499196 0.813578,-1.509027 1.483892,-2.487371 1.489584,-2.174097 0.02146,1.181186 0.849995,0.501466 1.564049,-1.283133 0.711252,-1.777595 0.626621,-2.978808 -0.174964,-2.483398 -0.20954,0.129502 -0.06708,-0.943676 0.316573,-2.38484 0.383652,-1.44116 0.845876,-4.77334 1.02716,-7.40484 0.181289,-2.6315 0.360577,-3.913075 0.39842,-2.847944 0.09803,2.759184 0.980149,2.407738 0.980149,-0.390505 0,-1.753855 -0.149898,-2.269583 -0.608508,-2.093599 -0.44782,0.171843 -0.745241,-0.645998 -1.1263,-3.097053 -0.284781,-1.831808 -0.823507,-4.217914 -1.197162,-5.302459 -0.581313,-1.687269 -0.586913,-2.023645 -0.03878,-2.330383 0.538115,-0.301146 0.503092,-0.665552 -0.218964,-2.278322 -0.860471,-1.921923 -1.816468,-2.775321 -1.829674,-1.633312 -0.0039,0.334159 -0.713384,-0.638419 -1.57668,-2.161283 -1.508262,-2.660584 -5.736182,-7.761347 -4.881198,-5.888904 0.228875,0.501238 0.392793,1.833867 0.364268,2.961398 -0.03636,1.436594 0.199689,2.301616 0.788789,2.890716 1.313048,1.313046 3.833988,6.994288 4.88446,11.007711 1.321988,5.050783 1.320612,12.730303 -0.0032,17.771168 -1.681759,6.403936 -4.334288,11.198319 -9.008533,16.282732 -2.464137,2.680361 -2.602437,2.995672 -2.113981,4.819508 l 0.281942,1.052714 1.201805,-1.151403 c 0.799078,-0.765568 1.518929,-1.068471 2.148174,-0.903919 z M 58.912519,75.544505 c 0,0.186684 0.27518,0.111043 0.611515,-0.168088 0.336331,-0.27913 0.746435,-0.372588 0.911342,-0.207685 0.164903,0.164907 0.299827,0.0485 0.299827,-0.25868 0,-0.307182 0.205052,-0.43178 0.455671,-0.276889 0.250619,0.154892 0.455671,0.05237 0.455671,-0.227835 0,-0.280201 0.205052,-0.382727 0.455671,-0.227836 0.250619,0.154892 0.455671,0.05237 0.455671,-0.227835 0,-0.280201 0.205052,-0.382727 0.455671,-0.227836 0.250619,0.154892 0.455671,0.06447 0.455671,-0.200941 0,-0.265411 0.307578,-0.482565 0.683506,-0.482565 0.375929,0 0.683507,-0.205052 0.683507,-0.455671 0,-0.250619 0.307578,-0.455671 0.683506,-0.455671 0.525594,0 0.683507,-0.585236 0.683507,-2.533084 0,-1.599792 -0.170626,-2.427628 -0.463103,-2.246868 -0.254707,0.157416 -0.32555,0.50878 -0.15743,0.780806 0.181644,0.293903 0.09376,0.363621 -0.216585,0.171815 -0.291051,-0.17988 -1.078696,0.233668 -1.779172,0.934144 -0.691303,0.691303 -1.317344,1.193662 -1.3912,1.116357 -0.185248,-0.193892 -4.650258,1.748948 -4.650258,2.023448 0,0.121705 0.768944,-0.107666 1.708766,-0.509718 0.939821,-0.402052 1.93862,-0.826692 2.219555,-0.943644 0.28093,-0.116953 0.627727,0.0921 0.770662,0.464574 0.187308,0.48812 -0.432468,0.964182 -2.219555,1.704889 -2.043283,0.846892 -2.479428,1.223116 -2.479428,2.138787 0,0.935998 0.107725,1.021715 0.683506,0.543862 0.375929,-0.311994 0.683506,-0.41452 0.683506,-0.227836 z m 16.71654,-1.674276 c 1.58512,-1.489142 1.290451,-3.073168 -0.303098,-1.629338 -0.345759,0.313274 0.117645,-0.329195 1.029789,-1.427704 0.912139,-1.098513 2.333071,-3.303797 3.157626,-4.900632 0.946342,-1.832695 1.718518,-2.820229 2.093963,-2.677969 0.361033,0.136797 0.85919,-0.407461 1.26759,-1.384902 0.683839,-1.636661 0.510579,-2.734555 -0.347823,-2.204031 -0.291228,0.17999 -0.373194,-0.03604 -0.213281,-0.562156 0.759485,-2.498727 1.190404,-5.293621 1.255843,-8.145224 0.04024,-1.754333 0.162055,-2.728329 0.270664,-2.164437 0.331327,1.720199 1.045432,1.142203 1.045432,-0.846176 0,-1.445534 -0.150007,-1.813873 -0.659133,-1.618502 -0.494526,0.189768 -0.737453,-0.281691 -0.972743,-1.88785 -0.172481,-1.177431 -0.7727,-3.508506 -1.333813,-5.180168 -0.76313,-2.273505 -0.86248,-2.97886 -0.394269,-2.799192 0.827111,0.317393 0.791783,-0.493191 -0.09635,-2.210651 -0.537268,-1.038965 -0.854287,-1.264738 -1.237616,-0.881409 -0.383328,0.38333 -0.718666,0.134121 -1.309133,-0.972902 -0.436592,-0.818529 -0.8024,-1.204709 -0.812904,-0.858176 -0.01053,0.346532 -0.4306,0.986948 -0.933542,1.423148 -0.911123,0.790214 -0.909528,0.80363 0.440297,3.698816 2.023051,4.339164 2.877808,8.247401 2.877808,13.158322 0,6.379084 -2.139639,13.354481 -5.412624,17.645585 -0.626151,0.820927 -1.000389,1.492595 -0.83164,1.492595 0.168753,0 0.06711,0.288832 -0.225867,0.641849 -0.52337,0.630626 -0.227034,5.281874 0.336517,5.281874 0.139522,0 0.728263,-0.445847 1.308309,-0.99077 z M 74.861003,65.49285 c 0,-0.361137 -0.205052,-0.656612 -0.455671,-0.656612 -0.250619,0 -0.455671,0.422206 -0.455671,0.938235 0,0.516029 0.205052,0.811505 0.455671,0.656613 0.250619,-0.154892 0.455671,-0.577098 0.455671,-0.938236 z m 2.285331,-8.166134 c 0.0058,-0.763658 0.08339,-0.803994 0.455671,-0.236885 0.39884,0.60756 0.49855,0.60756 0.897389,0 0.246783,-0.375928 0.454632,-0.991084 0.461891,-1.367012 0.0072,-0.375929 0.136843,-1.144874 0.287961,-1.708767 0.201995,-0.753739 0.07967,-1.025259 -0.461895,-1.025259 -0.6164,0 -0.736651,-0.588991 -0.736651,-3.608099 0,-1.984456 -0.12187,-3.983712 -0.270819,-4.442793 -0.219843,-0.677571 -0.181617,-0.708513 0.203056,-0.164382 0.786306,1.112237 1.138088,0.15303 0.702007,-1.914154 -0.258534,-1.225557 -0.659256,-1.945853 -1.082524,-1.945853 -0.376539,0 -1.301415,-1.302351 -2.103391,-2.961861 l -1.431349,-2.961861 -0.337707,2.1586 c -0.185741,1.18723 -0.182651,2.72512 0.0069,3.417532 0.189518,0.692413 0.384554,1.56651 0.433406,1.942439 0.04886,0.375928 0.24619,1.375578 0.43852,2.221443 0.246231,1.08293 0.200459,1.44571 -0.154709,1.226203 -0.343371,-0.212208 -0.50441,0.424254 -0.50441,1.993512 0,1.267886 0.205052,2.305248 0.455671,2.305248 0.250619,0 0.455671,-0.444279 0.455671,-0.987289 0,-0.543004 0.124298,-0.86299 0.276214,-0.71107 0.151921,0.151917 0.02898,1.980296 -0.273143,4.063068 -0.697386,4.807228 -0.714638,4.905353 -1.127234,6.412794 -0.189518,0.69241 -0.192608,2.2303 -0.0069,3.417532 l 0.337707,2.1586 1.535839,-3.180647 c 0.844714,-1.749357 1.538979,-3.594825 1.542815,-4.101039 z M 71.877101,35.484037 c 2.642764,-1.104218 3.295421,-3.487854 1.433842,-5.236715 -1.554987,-1.460836 -4.225351,-1.692809 -6.082429,-0.528378 -2.597347,1.628595 -1.804981,5.093913 1.377166,6.022849 1.522661,0.444498 1.6065,0.437892 3.271421,-0.257756 z m -3.56604,-1.413398 c -1.502283,-1.502284 -0.605628,-3.409723 1.602859,-3.409723 1.752702,0 2.89552,1.646256 2.041424,2.940727 -0.782473,1.185926 -2.682794,1.430484 -3.644283,0.468996 z M 52.533126,20.636155 c 0,-0.250619 -1.02526,-0.455671 -2.278355,-0.455671 -1.253095,0 -2.278355,0.205052 -2.278355,0.455671 0,0.250619 1.02526,0.455671 2.278355,0.455671 1.253095,0 2.278355,-0.205052 2.278355,-0.455671 z M 52.077455,9.7000517 c 0,-0.250619 -1.02526,-0.4556709 -2.278355,-0.4556709 -1.253095,0 -2.278355,0.2050519 -2.278355,0.4556709 0,0.250619 1.02526,0.4556713 2.278355,0.4556713 1.253095,0 2.278355,-0.2050523 2.278355,-0.4556713 z M 15.097277,43.406676 c -0.73068,-1.710952 -0.71612,-1.866415 0.505105,-5.393235 4.631904,-13.376636 16.173243,-22.579114 30.336015,-24.188399 6.315808,-0.717651 14.360615,0.628211 19.556326,3.271692 l 1.797654,0.914614 -1.265111,0.662858 c -1.112498,0.582898 -1.466769,0.579143 -2.936832,-0.03113 -0.919448,-0.381694 -1.312883,-0.704554 -0.8743,-0.717468 1.281775,-0.03774 0.919147,-0.803236 -0.637584,-1.345917 -1.945551,-0.678222 -2.357883,-0.630602 -2.026109,0.233995 0.214525,0.559047 0.09025,0.660255 -0.520837,0.424163 -1.543084,-0.596164 -5.278692,-1.158838 -8.041603,-1.211263 -1.532162,-0.02907 -2.426908,-0.146634 -1.988325,-0.261248 1.56106,-0.407945 0.763609,-1.052905 -1.301847,-1.052905 -1.655359,0 -2.045168,0.140991 -1.843416,0.666748 0.18722,0.487886 -0.196976,0.737412 -1.432179,0.930165 -0.928418,0.144879 -3.17466,0.743492 -4.991648,1.330251 -2.601158,0.839989 -3.303614,0.932877 -3.303614,0.436847 0,-0.795759 -0.193588,-0.788917 -1.845313,0.06522 -1.358258,0.702383 -1.803051,1.583147 -0.799502,1.583147 0.299686,0 -0.467725,0.642177 -1.705358,1.42706 -1.237632,0.784883 -3.155491,2.168846 -4.261909,3.075471 -1.106418,0.906627 -2.360698,1.589282 -2.787288,1.517012 -0.783376,-0.132714 -2.571321,2.033863 -2.082127,2.523057 0.143798,0.143798 0.715872,-0.130308 1.271276,-0.609125 0.555403,-0.478816 0.236423,0.05216 -0.708844,1.179944 -0.945267,1.127786 -2.511209,3.633431 -3.47987,5.568102 -0.968662,1.934671 -1.853106,3.267508 -1.96543,2.961861 -0.326718,-0.889032 -1.171974,0.181973 -1.521033,1.927269 -0.251629,1.258145 -0.182887,1.494916 0.37218,1.281917 0.58664,-0.225115 0.61235,0.04273 0.185865,1.936376 -0.272222,1.208695 -0.59778,2.300459 -0.723462,2.426141 -0.125683,0.125683 -0.567079,-0.564267 -0.98088,-1.533222 z"
         id="path5653" />
    </g>
  </g>
</svg>
