<?xml version="1.0" encoding="UTF-8" standalone="no"?>
<!-- Created with Inkscape (http://www.inkscape.org/) -->

<svg
   width="100mm"
   height="100mm"
   viewBox="0 0 100 100"
   version="1.1"
   id="svg1533"
   inkscape:version="1.1.1 (3bf5ae0d25, 2021-09-20)"
   sodipodi:docname="add_list_type_device_6059.svg"
   xmlns:inkscape="http://www.inkscape.org/namespaces/inkscape"
   xmlns:sodipodi="http://sodipodi.sourceforge.net/DTD/sodipodi-0.dtd"
   xmlns="http://www.w3.org/2000/svg"
   xmlns:svg="http://www.w3.org/2000/svg">
  <sodipodi:namedview
     id="namedview1535"
     pagecolor="#505050"
     bordercolor="#ffffff"
     borderopacity="1"
     inkscape:pageshadow="0"
     inkscape:pageopacity="0"
     inkscape:pagecheckerboard="1"
     inkscape:document-units="mm"
     showgrid="false"
     width="100mm"
     inkscape:zoom="0.58974467"
     inkscape:cx="378.97757"
     inkscape:cy="130.56498"
     inkscape:window-width="1440"
     inkscape:window-height="890"
     inkscape:window-x="-6"
     inkscape:window-y="-6"
     inkscape:window-maximized="1"
     inkscape:current-layer="layer1" />
  <defs
     id="defs1530" />
  <g
     inkscape:label="Laag 1"
     inkscape:groupmode="layer"
     id="layer1">
    <g
       id="g1818"
       transform="translate(-4.0377649,-0.897281)">
      <path
         style="fill:#d0d0d0;fill-opacity:1;stroke-width:0.455671"
         d="m 86.397627,73.479718 c 0,-3.107722 0.146348,-4.093803 0.607565,-4.093803 0.454882,0 0.607559,0.902042 0.607559,3.589575 0,2.435411 -0.19535,3.751699 -0.607559,4.093803 -0.498637,0.413827 -0.607565,-0.229736 -0.607565,-3.589575 z M 13.794056,70.265447 c 0,-0.790749 0.344979,-0.879532 3.417532,-0.879532 1.974574,0 3.417533,0.192394 3.417533,0.455671 0,0.250619 -0.872825,0.455671 -1.93961,0.455671 -1.066786,0 -2.604675,0.190739 -3.417533,0.423861 -1.302722,0.373618 -1.477922,0.319598 -1.477922,-0.455671 z m 24.979487,-1.220971 c 6.094838,-0.07182 15.937332,-0.07175 21.872205,1.64e-4 5.934877,0.07191 0.948192,0.130669 -11.081522,0.130577 -12.029713,-8.6e-5 -16.88552,-0.05892 -10.790683,-0.130741 z M 12.954662,57.994141 c 0,-0.626547 0.103425,-0.882862 0.229834,-0.569589 0.126409,0.313274 0.126409,0.825904 0,1.139178 -0.126409,0.313274 -0.229834,0.05696 -0.229834,-0.569589 z m 74.238394,0.189865 c 0.02187,-0.530834 0.129839,-0.638806 0.275298,-0.275303 0.131629,0.328935 0.115444,0.721951 -0.03595,0.873371 -0.151419,0.151415 -0.259112,-0.117718 -0.239327,-0.598068 z m -6.10857,-17.093603 c -0.669978,-1.023307 -1.218141,-2.134027 -1.218141,-2.468268 0,-0.334241 -0.716328,-1.546151 -1.591836,-2.693133 -1.101298,-1.442777 -1.382137,-2.085422 -0.911342,-2.085422 0.37427,0 0.680494,0.275798 0.680494,0.612883 0,0.337086 0.410104,0.984023 0.911342,1.437637 0.501238,0.453614 0.911342,1.10055 0.911342,1.437636 0,0.337085 0.188762,0.612883 0.419463,0.612883 0.230707,0 0.554579,0.615156 0.719714,1.367013 0.165136,0.751857 0.46509,1.367013 0.666565,1.367013 0.355733,0 1.023774,1.879085 0.76134,2.141518 -0.07194,0.07194 -0.678964,-0.706454 -1.348941,-1.72976 z m -62.721462,0.15783 c -0.0067,-0.313273 0.176501,-0.569588 0.407207,-0.569588 0.230706,0 0.554577,-0.615156 0.719712,-1.367013 0.165136,-0.751857 0.489006,-1.367013 0.719712,-1.367013 0.230706,0 0.419466,-0.275798 0.419466,-0.612883 0,-0.337086 0.410103,-0.984022 0.911341,-1.437636 0.501238,-0.453614 0.911342,-1.100551 0.911342,-1.437637 0,-0.337085 0.322507,-0.612883 0.716681,-0.612883 0.52956,0 0.3511,0.443514 -0.683506,1.698671 -0.770103,0.934268 -1.405703,2.010791 -1.412446,2.392272 -0.01491,0.843928 -2.692196,4.118223 -2.709509,3.31371 z m 5.455793,-8.315995 c 0,-0.250619 0.217154,-0.45567 0.482564,-0.45567 0.265409,0 0.355834,0.205051 0.200943,0.45567 -0.154892,0.25062 -0.372045,0.455671 -0.482564,0.455671 -0.110519,0 -0.200943,-0.205051 -0.200943,-0.455671 z m 52.174325,0 c -0.154892,-0.250619 -0.06447,-0.45567 0.200942,-0.45567 0.26541,0 0.482564,0.205051 0.482564,0.45567 0,0.25062 -0.09042,0.455671 -0.200941,0.455671 -0.110519,0 -0.327673,-0.205051 -0.482565,-0.455671 z m -31.55679,-1.025259 c 0.302825,-0.916076 4.718231,-1.933295 5.930502,-1.366266 0.984673,0.460574 0.961293,0.502423 -0.674074,1.206489 -2.068322,0.890464 -5.53278,0.995771 -5.256428,0.159777 z M 25.18583,31.565226 c 0,-0.250619 0.217154,-0.455671 0.482563,-0.455671 0.26541,0 0.355835,0.205052 0.200944,0.455671 -0.154892,0.250619 -0.372045,0.455671 -0.482564,0.455671 -0.110519,0 -0.200943,-0.205052 -0.200943,-0.455671 z m 49.440299,0 c -0.154892,-0.250619 -0.06447,-0.455671 0.200942,-0.455671 0.26541,0 0.482565,0.205052 0.482565,0.455671 0,0.250619 -0.09042,0.455671 -0.200942,0.455671 -0.110519,0 -0.327673,-0.205052 -0.482565,-0.455671 z M 26.552843,30.496672 c 0,-0.414772 0.211084,-0.75413 0.469076,-0.75413 0.257992,0 1.530451,-0.83897 2.827689,-1.864377 1.297237,-1.025407 3.187935,-2.242656 4.201551,-2.704999 3.386319,-1.544607 5.398343,-2.279706 5.623489,-2.05456 0.122701,0.1227 -0.165098,0.360661 -0.639552,0.528804 -0.474454,0.168141 -1.722864,0.685598 -2.774245,1.149903 -1.051381,0.464305 -2.127904,0.84419 -2.392273,0.84419 -0.264369,0 -0.480671,0.205052 -0.480671,0.455671 0,0.250619 -0.213355,0.455671 -0.474122,0.455671 -0.474846,0 -2.983201,1.640081 -3.849554,2.51702 -0.253478,0.256575 -0.922236,0.852248 -1.486128,1.323718 -0.912489,0.762931 -1.02526,0.77427 -1.02526,0.103089 z M 72.292542,29.85646 c -1.988566,-1.783071 -4.156817,-3.303615 -4.710863,-3.303615 -0.260766,0 -0.474121,-0.205052 -0.474121,-0.455671 0,-0.250619 -0.216302,-0.455671 -0.480669,-0.455671 -0.264371,0 -1.340894,-0.379885 -2.392272,-0.84419 -1.051384,-0.464305 -2.299794,-0.981762 -2.774248,-1.149903 -0.474454,-0.168143 -0.762251,-0.406104 -0.639553,-0.528804 0.225147,-0.225146 2.237172,0.509953 5.62349,2.05456 1.013618,0.462343 2.904315,1.679592 4.201551,2.704999 1.297236,1.025407 2.569697,1.864377 2.827689,1.864377 0.257992,0 0.469077,0.307578 0.469077,0.683506 0,0.897544 -0.02256,0.889764 -1.650081,-0.569588 z M 41.020396,22.605695 c 0.313274,-0.126408 0.825904,-0.126408 1.139177,0 0.313274,0.126409 0.05696,0.229834 -0.569588,0.229834 -0.626548,0 -0.882863,-0.103425 -0.569589,-0.229834 z m 17.315496,0 c 0.313274,-0.126408 0.825904,-0.126408 1.139178,0 0.313273,0.126409 0.05696,0.229834 -0.569589,0.229834 -0.626548,0 -0.882862,-0.103425 -0.569589,-0.229834 z m -14.695388,-0.58638 c 0.866373,-0.394329 4.234874,-0.666077 3.835232,-0.309401 -0.104426,0.0932 -1.215124,0.294268 -2.468219,0.446824 -1.533699,0.186717 -1.980493,0.141801 -1.367013,-0.137423 z m 10.708267,-0.02318 -1.594848,-0.335701 1.594848,-0.02795 c 0.877167,-0.01538 2.004953,0.148269 2.506191,0.363659 l 0.911342,0.391617 -0.911342,-0.02796 c -0.501238,-0.01538 -1.629024,-0.179024 -2.506191,-0.36366 z"
         id="path1834" />
      <path
         style="fill:#b9b9b9;fill-opacity:1;stroke-width:0.455671"
         d="m 22.565722,69.053973 c 0.939821,-0.09831 2.477711,-0.09831 3.417532,0 0.939822,0.09831 0.170877,0.178741 -1.708766,0.178741 -1.879643,0 -2.648587,-0.08043 -1.708766,-0.178741 z m 53.769173,-0.006 c 1.691679,-0.08767 4.45988,-0.08767 6.151558,0 1.691679,0.08768 0.307578,0.159408 -3.075779,0.159408 -3.383357,0 -4.767457,-0.07173 -3.075779,-0.159408 z M 12.918688,59.551018 c 0.02186,-0.530833 0.129839,-0.638805 0.275301,-0.275302 0.131631,0.328935 0.115442,0.721951 -0.03598,0.873371 -0.151416,0.151415 -0.259113,-0.117718 -0.239327,-0.598069 z m 8.166103,-21.322769 c 0,-0.09462 0.358841,-0.453464 0.797425,-0.797424 0.722719,-0.566796 0.738836,-0.550679 0.17204,0.172041 -0.595274,0.759033 -0.969465,1.000416 -0.969465,0.625383 z m 54.886912,-3.131573 -1.801245,-1.936602 1.936602,1.801244 c 1.801021,1.675138 2.145996,2.071959 1.801244,2.071959 -0.07445,0 -0.945918,-0.871471 -1.936601,-1.936601 z M 24.730159,34.582881 c 0,-0.09462 0.358841,-0.453463 0.797424,-0.797424 0.72272,-0.566796 0.738837,-0.550679 0.172041,0.172041 -0.595274,0.759033 -0.969465,1.000416 -0.969465,0.625383 z m 14.605458,-0.837813 c 0.717196,-1.574072 4.173589,-3.485589 7.602145,-4.204275 2.541258,-0.532692 3.294578,-0.529724 5.14663,0.02028 3.542154,1.051907 3.358887,2.332939 -0.469646,3.282838 -5.20096,1.290412 -6.814395,1.586712 -9.690408,1.779598 l -3.083179,0.20678 z M 49.69278,31.747202 c 1.635367,-0.704066 1.658747,-0.745915 0.674074,-1.206489 -1.212271,-0.567029 -5.627677,0.45019 -5.930502,1.366266 -0.276352,0.835994 3.188106,0.730687 5.256428,-0.159777 z m 0.01385,-7.328316 c 0.328935,-0.13163 0.721951,-0.115441 0.873371,0.03598 0.151414,0.151416 -0.117719,0.259113 -0.598069,0.239328 -0.530834,-0.02186 -0.638805,-0.12984 -0.275302,-0.275302 z"
         id="path1832" />
      <path
         style="fill:#a3a3a3;fill-opacity:1;stroke-width:0.455671"
         d="m 16.983753,98.98589 c -2.998881,-0.503548 -3.333359,-0.606789 -4.013008,-1.238645 -0.339445,-0.31558 -0.784209,-0.470544 -0.988361,-0.344369 -0.204153,0.126171 -0.488764,-0.077 -0.632469,-0.451483 -0.143705,-0.374489 -0.463449,-0.680891 -0.710542,-0.680891 -0.583682,0 -2.7690393,-2.185357 -2.7690393,-2.76904 0,-0.247092 -0.3064,-0.566836 -0.6808891,-0.710541 C 6.8149555,92.647216 6.6117883,92.362604 6.7379617,92.158454 6.8641352,91.9543 6.7091679,91.509538 6.3935911,91.17009 6.0780139,90.830643 5.7497094,90.250223 5.6640255,89.880259 5.0551764,87.251402 4.8670665,84.563681 5.1624888,82.714291 5.6608326,79.59458 5.7570439,79.272057 6.3935911,78.587365 6.7091683,78.247918 6.8641352,77.803156 6.7379617,77.599001 6.6117883,77.394852 6.8149555,77.11024 7.1894446,76.966535 c 0.3744891,-0.143705 0.6808891,-0.46345 0.6808891,-0.710542 0,-0.563496 2.1761183,-2.769039 2.7320953,-2.769039 0.226774,0 0.594728,-0.325951 0.817674,-0.724335 0.222947,-0.398384 0.489451,-0.675874 0.592232,-0.616641 0.343658,0.198039 2.237392,-0.538703 2.237392,-0.870441 0,-0.373605 0.449194,-0.426654 4.582285,-0.541173 5.143279,-0.142511 10.201605,2.800695 12.953657,7.537135 1.909436,3.286249 2.220259,8.496194 0.710501,11.909252 -0.483836,1.093793 -0.737443,1.994946 -0.563571,2.002569 0.173872,0.0076 -0.04271,0.22286 -0.481293,0.478313 -0.438584,0.255449 -0.797424,0.650001 -0.797424,0.876775 0,0.551631 -2.002456,2.528719 -2.916363,2.879417 -0.400953,0.153862 -0.729005,0.503334 -0.729005,0.776609 0,0.273275 -0.188521,0.380353 -0.418935,0.237951 -0.230414,-0.142406 -0.735721,0.05787 -1.122903,0.445049 -0.387183,0.387184 -0.762555,0.677738 -0.834161,0.645677 -0.07161,-0.03206 -0.950399,0.07496 -1.952875,0.237815 -1.002476,0.162861 -2.232788,0.357569 -2.734026,0.432691 -0.501238,0.07512 -1.834076,-0.01836 -2.961861,-0.207727 z m 6.625121,-5.624661 c 0.290339,-0.397062 0.636429,-0.613392 0.769089,-0.480728 0.13266,0.13266 0.89053,-0.408135 1.684157,-1.201759 0.793628,-0.793629 1.334419,-1.5515 1.201759,-1.68416 -0.13266,-0.132659 0.114454,-0.501261 0.549142,-0.81911 1.156384,-0.84557 1.156384,-7.747919 0,-8.593489 -0.434688,-0.317849 -0.681802,-0.68645 -0.549142,-0.81911 0.13266,-0.132659 -0.408131,-0.890531 -1.201759,-1.684159 -0.793627,-0.793624 -1.551497,-1.334419 -1.684157,-1.20176 -0.13266,0.132664 -0.50126,-0.114451 -0.819112,-0.549138 -0.466691,-0.63824 -1.293605,-0.790343 -4.296743,-0.790343 -3.003139,0 -3.830052,0.152103 -4.296744,0.790343 -0.317852,0.434687 -0.686452,0.681802 -0.819112,0.549138 -0.13266,-0.132659 -0.89053,0.408136 -1.684157,1.20176 -0.793627,0.793628 -1.334418,1.5515 -1.201758,1.684159 0.132659,0.13266 -0.07877,0.475165 -0.469846,0.76113 -0.450771,0.32961 -0.8043755,1.549181 -0.9660129,3.331743 -0.2202144,2.428563 -0.089698,3.149616 0.9575529,5.290117 1.88051,3.843626 4.71437,5.390888 9.364256,5.112806 1.994383,-0.119272 3.10384,-0.406823 3.462587,-0.89744 z m -6.084682,-0.850013 c 0.09653,-0.999177 -0.04222,-1.443871 -0.426521,-1.367013 -0.313274,0.06265 -0.569589,-0.103236 -0.569589,-0.368647 0,-0.26541 -0.153789,-0.409242 -0.341753,-0.31963 -0.500513,0.238617 -2.593502,-2.109087 -2.77957,-3.117837 -0.0877,-0.475484 -0.292756,-0.967039 -0.455671,-1.092348 -0.425704,-0.327441 -0.401426,-2.734026 0.02758,-2.734026 0.197844,0 0.359716,-0.328083 0.359716,-0.729074 0,-0.945986 2.881648,-3.827636 3.827636,-3.827636 0.400991,0 0.729074,-0.153789 0.729074,-0.341753 0,-0.187964 0.615156,-0.341753 1.367013,-0.341753 0.751857,0 1.367013,0.153789 1.367013,0.341753 0,0.187964 0.328083,0.341753 0.729073,0.341753 0.945988,0 3.827636,2.88165 3.827636,3.827636 0,0.400991 0.161872,0.729074 0.359716,0.729074 0.428163,0 0.45368,2.405801 0.029,2.734026 -0.162136,0.125309 -0.367188,0.740465 -0.455671,1.367012 -0.08848,0.626548 -0.290296,1.241704 -0.448473,1.367013 -0.158177,0.12531 -1.029647,1.118709 -1.936601,2.207548 -0.906955,1.088844 -1.649009,1.852526 -1.649009,1.697065 0,-0.155457 -0.604972,0.03021 -1.344384,0.41256 -1.98023,1.024016 -2.377442,0.88319 -2.216215,-0.785723 z M 12.988431,61.639509 c 0,-0.877167 0.09377,-1.236008 0.208389,-0.797424 0.114614,0.438583 0.114614,1.156265 0,1.594848 -0.114614,0.438583 -0.208389,0.07974 -0.208389,-0.797424 z m 74.240595,-0.911342 c 0,-0.626548 0.103429,-0.882863 0.229836,-0.569589 0.126408,0.313274 0.126408,0.825904 0,1.139178 -0.126407,0.313273 -0.229836,0.05696 -0.229836,-0.569589 z M 50.931239,43.83721 c -1.503714,-0.164582 -3.246655,-0.518293 -3.873203,-0.786025 -0.626547,-0.267731 -1.678568,-0.601259 -2.337823,-0.741172 -1.107696,-0.235084 -2.005682,-1.692682 -1.409875,-2.288489 0.511441,-0.511442 1.469343,-0.235566 1.469343,0.42317 0,0.820964 2.55662,1.951335 4.909395,2.170614 0.945485,0.08812 1.91934,0.272366 2.164122,0.409437 0.244778,0.13707 1.814277,0.0165 3.48777,-0.267924 1.731841,-0.294344 2.93078,-0.336027 2.782901,-0.09675 -0.142899,0.231215 0.430335,-0.06875 1.27386,-0.666599 2.639364,-1.870645 2.545861,-1.67706 2.298737,-4.759251 -0.03131,-0.390719 -0.247844,-0.592426 -0.481143,-0.448238 -0.233304,0.144189 -0.555049,0.05042 -0.714994,-0.208376 -0.159945,-0.258795 -0.455001,-0.36906 -0.655678,-0.245033 -0.200682,0.124027 -0.388583,-0.826802 -0.417559,-2.112954 -0.02903,-1.289427 -0.386491,-2.869252 -0.796791,-3.521685 l -0.74411,-1.183228 1.179855,1.139178 c 0.648921,0.626547 1.237101,1.651807 1.307069,2.278354 0.137941,1.23524 0.911465,2.278355 1.689514,2.278355 0.268522,0 0.48822,0.23016 0.48822,0.511466 0,0.343148 0.262425,0.312891 0.797424,-0.09194 0.678389,-0.513335 0.7124,-0.50806 0.227835,0.03534 -0.816439,0.915571 -0.70212,1.511478 0.227836,1.187618 0.680777,-0.237081 0.670365,-0.17926 -0.07117,0.395276 -0.842039,0.652405 -0.835072,0.685728 0.227836,1.08987 1.084118,0.412208 1.071123,0.440325 -1.157377,2.504412 -1.239594,1.148138 -2.34851,1.992816 -2.464264,1.877063 -0.115754,-0.115753 -0.465614,0.0013 -0.777462,0.260108 -0.311852,0.258813 -1.561028,0.578242 -2.775952,0.709842 -1.214923,0.131601 -2.414003,0.285969 -2.664622,0.34304 -0.250619,0.05707 -1.685983,-0.0309 -3.189697,-0.195475 z m -8.670468,-3.577755 c 0.292511,-0.485216 0.200431,-0.574259 -0.3682,-0.356054 -0.417042,0.160034 -0.758257,0.136666 -0.758257,-0.05193 0,-0.188594 -0.666419,-0.33208 -1.480931,-0.318857 -0.814512,0.01322 -1.737246,-0.158723 -2.050519,-0.382102 -0.358594,-0.255693 -0.569589,-0.216678 -0.569589,0.105323 0,0.700385 -5.127935,0.669314 -5.832588,-0.03534 -0.767077,-0.767077 -0.680732,-2.038325 0.160368,-2.361085 0.388945,-0.149253 0.592112,-0.0852 0.451483,0.142348 -0.14063,0.227543 0.0776,0.747005 0.484953,1.154359 0.617395,0.617395 1.524881,0.706742 5.453381,0.536911 3.461431,-0.149638 4.840223,-0.05012 5.192885,0.374812 0.348205,0.41956 0.266741,0.751681 -0.296446,1.208591 -0.664649,0.539226 -0.720369,0.536778 -0.38654,-0.01698 z M 23.363146,35.8941 c 0.588611,-0.626548 1.172728,-1.139178 1.298037,-1.139178 0.12531,0 -0.253755,0.51263 -0.842366,1.139178 -0.58861,0.626547 -1.172727,1.139177 -1.298037,1.139177 -0.125309,0 0.253756,-0.51263 0.842366,-1.139177 z m 9.123003,-0.852053 c 0.621276,-0.593939 1.213775,-1.0053 1.316663,-0.914136 0.292665,0.259317 -1.409724,1.994024 -1.956875,1.994024 -0.26916,0 0.01894,-0.48595 0.640212,-1.079888 z m 2.035617,-1.703799 c 0.245552,-0.639899 2.515332,-2.228693 3.183952,-2.228693 0.167197,0 -0.0036,0.307578 -0.379512,0.683506 -0.375928,0.375929 -0.835795,0.683507 -1.021928,0.683507 -0.186131,0 -0.722232,0.347344 -1.191334,0.771876 -0.672557,0.608655 -0.797567,0.627645 -0.591178,0.0898 z m 3.878522,-2.684364 c 0,-0.250619 0.217154,-0.455671 0.482563,-0.455671 0.26541,0 0.355835,0.205052 0.200943,0.455671 -0.154891,0.250619 -0.372044,0.455671 -0.482563,0.455671 -0.110519,0 -0.200943,-0.205052 -0.200943,-0.455671 z M 39.805273,30.0321 c 0.104425,-0.09136 0.702493,-0.410252 1.329041,-0.708644 1.074138,-0.511557 1.088678,-0.502073 0.25466,0.166113 -0.725882,0.581552 -2.209029,1.089637 -1.583701,0.542531 z m 3.521957,-1.512175 c 0.328938,-0.13163 0.721954,-0.115442 0.87337,0.03598 0.151415,0.151416 -0.117716,0.259113 -0.598069,0.239327 -0.53083,-0.02186 -0.638805,-0.129839 -0.275301,-0.275301 z m 2.363793,-0.600067 c 1.558017,-0.498964 2.755998,-0.498964 1.594849,0 -0.501238,0.215389 -1.321446,0.38559 -1.822684,0.378223 -0.732621,-0.01077 -0.687941,-0.08494 0.227835,-0.378223 z m 6.607229,0 -0.911342,-0.391617 0.911342,-0.02505 c 0.501238,-0.01377 1.21892,0.173723 1.594848,0.416666 0.60756,0.392636 0.60756,0.438933 0,0.416667 -0.375928,-0.01378 -1.09361,-0.201279 -1.594848,-0.416668 z m 1.965081,-3.045301 c 0.328935,-0.13163 0.721952,-0.115442 0.873371,0.03598 0.151415,0.151416 -0.117718,0.259113 -0.598068,0.239328 -0.530834,-0.02186 -0.638805,-0.12984 -0.275303,-0.275302 z"
         id="path1830" />
      <path
         style="fill:#8c8c8c;fill-opacity:1;stroke-width:0.455671"
         d="m 12.36892,91.372039 c -0.566796,-0.722722 -0.550679,-0.738839 0.172041,-0.172043 0.438583,0.343963 0.797424,0.702804 0.797424,0.797424 0,0.375035 -0.37419,0.133653 -0.969465,-0.625381 z m 0.650342,-26.087162 c 0,-1.378405 0.08542,-1.942298 0.189828,-1.253096 0.104406,0.689203 0.104406,1.816988 0,2.506191 -0.104405,0.689202 -0.189828,0.125309 -0.189828,-1.253095 z m 74.25273,-2.05052 c 0.0051,-1.002476 0.09837,-1.358925 0.207366,-0.792111 0.108992,0.566814 0.104855,1.387022 -0.0092,1.822684 -0.11405,0.435662 -0.20323,-0.02811 -0.198172,-1.030573 z M 13.935254,59.58899 c 0.0026,-1.503715 0.08763,-2.063935 0.189041,-1.244935 0.101415,0.819001 0.09932,2.049312 -0.0046,2.734026 -0.103972,0.684714 -0.186948,0.01463 -0.18439,-1.489091 z M 86.36065,59.133319 c 0.0051,-1.002477 0.09837,-1.358925 0.207366,-0.792111 0.108992,0.566813 0.104855,1.387021 -0.0092,1.822683 -0.11405,0.435663 -0.203229,-0.02811 -0.198172,-1.030572 z M 14.285701,54.538638 c 0.02186,-0.530834 0.129839,-0.638805 0.275301,-0.275303 0.13163,0.328935 0.115442,0.721952 -0.03598,0.873371 -0.151416,0.151415 -0.259113,-0.117718 -0.239327,-0.598068 z m 71.084671,-0.911342 c 0.02187,-0.530834 0.129839,-0.638805 0.275298,-0.275303 0.13163,0.328935 0.115444,0.721952 -0.03595,0.873371 -0.15142,0.151415 -0.259113,-0.117718 -0.239328,-0.598068 z m -39.451513,-7.427 c -2.628995,-0.37412 -5.426666,-1.300046 -7.0629,-2.337558 -2.344901,-1.486867 -3.966293,-1.910337 -7.288415,-1.903561 -2.105606,0.0043 -3.544475,-0.196204 -3.752307,-0.522865 -0.612778,-0.963134 -0.403234,-3.947364 0.277172,-3.947364 0.345523,0 0.865607,-0.563893 1.155742,-1.253095 1.07145,-2.545181 5.495636,-6.400893 8.240795,-7.181917 0.626548,-0.178259 1.754333,-0.589638 2.50619,-0.914176 0.751857,-0.324538 1.982169,-0.735329 2.734026,-0.912868 1.241624,-0.293191 1.28342,-0.359665 0.455671,-0.724706 -0.614237,-0.270882 -0.242856,-0.319366 1.139177,-0.148719 1.293388,0.159701 1.829242,0.100359 1.451239,-0.160713 -0.373745,-0.258132 1.426893,-0.406973 4.784545,-0.395491 2.961105,0.01012 4.666144,0.136806 3.788977,0.281511 -1.503905,0.248097 -1.405822,0.309966 1.720076,1.084982 1.823208,0.452035 3.872483,1.111148 4.553944,1.464694 0.681465,0.353548 2.316791,0.884007 3.634062,1.178799 1.317268,0.294792 2.395034,0.686178 2.395034,0.869747 0,0.183569 0.563474,0.475184 1.252161,0.648035 0.688688,0.172849 1.799386,0.827322 2.46822,1.454383 2.968149,2.782784 3.357069,3.109836 3.601295,3.028428 0.142324,-0.04744 0.170316,0.51645 0.0622,1.253095 -0.113549,0.77366 -0.474777,1.339353 -0.855258,1.339353 -0.362272,0 -0.5264,0.214034 -0.364724,0.475632 0.460547,0.745181 -0.640965,1.753782 -3.04462,2.787807 -1.214363,0.522404 -2.207931,1.129627 -2.207931,1.349384 0,0.219757 -0.153789,0.367004 -0.341753,0.327216 -0.359174,-0.07603 -0.529913,-0.01344 -4.898463,1.795724 -2.325758,0.963173 -3.584586,1.15138 -8.429913,1.260358 -3.132737,0.07046 -6.721146,-0.01779 -7.974241,-0.196115 z m 10.866699,-2.51065 c 1.214924,-0.1316 2.4641,-0.451029 2.775952,-0.709842 0.311848,-0.258813 0.661708,-0.375861 0.777462,-0.260108 0.115754,0.115753 1.22467,-0.728926 2.464264,-1.877063 2.2285,-2.064087 2.241495,-2.092204 1.157377,-2.504412 -1.062908,-0.404142 -1.069875,-0.437466 -0.227836,-1.08987 0.741532,-0.574536 0.751944,-0.632358 0.07117,-0.395276 -0.929956,0.32386 -1.044275,-0.272048 -0.227836,-1.187618 0.484565,-0.5434 0.450554,-0.548675 -0.227835,-0.03534 -0.534999,0.404835 -0.797424,0.435092 -0.797424,0.09194 0,-0.281306 -0.219698,-0.511466 -0.48822,-0.511466 -0.783617,0 -1.553396,-1.047997 -1.673511,-2.278355 -0.261796,-2.681614 -5.590595,-5.472435 -10.430376,-5.462643 -3.56448,0.0072 -10.57792,1.963602 -11.558454,3.224214 -0.12531,0.161103 -0.640688,0.421497 -1.145285,0.578654 -1.166404,0.363278 -5.500985,4.343551 -5.3438,4.906999 0.06498,0.232927 -0.191335,0.542261 -0.569589,0.68741 -0.824439,0.316368 -0.900918,1.593635 -0.140927,2.353626 0.704653,0.704653 5.832588,0.735724 5.832588,0.03534 0,-0.322001 0.210995,-0.361017 0.569589,-0.105323 0.313273,0.223378 1.236007,0.395324 2.050519,0.382101 0.814512,-0.01322 1.480931,0.130263 1.480931,0.318857 0,0.188595 0.341215,0.211962 0.758257,0.05193 0.568631,-0.218204 0.660711,-0.129162 0.3682,0.356055 -0.315804,0.523857 -0.261418,0.543019 0.285702,0.100666 0.554544,-0.448356 0.688743,-0.373975 0.74815,0.414671 0.08111,1.076692 0.847801,1.709128 2.084603,1.719558 0.45506,0.0038 1.275268,0.247381 1.822684,0.541207 0.93772,0.503321 5.928844,1.222612 6.919026,0.997128 0.250619,-0.05707 1.449699,-0.211439 2.664622,-0.34304 z M 72.57561,35.183701 c 0,-0.235828 -0.170877,-0.428779 -0.379725,-0.428779 -0.208852,0 -0.379728,0.298558 -0.379728,0.663462 0,0.364905 0.170876,0.557855 0.379728,0.428779 0.208848,-0.129076 0.379725,-0.427634 0.379725,-0.663462 z m 8.405375,8.189266 c -0.168389,-0.272456 -0.121901,-0.67963 0.1033,-0.904833 0.242162,-0.242162 0.409457,-0.03977 0.409457,0.495375 0,1.03539 -0.0843,1.102709 -0.512757,0.409458 z M 78.019023,39.05186 c -2.479324,-3.213664 -7.10751,-7.068711 -10.759681,-8.96227 -1.556066,-0.806783 -2.759292,-1.536799 -2.673831,-1.622258 0.08546,-0.08546 1.002489,0.276784 2.037847,0.804984 1.035357,0.5282 2.112171,0.818401 2.392915,0.64489 0.291616,-0.180228 0.384272,-0.11131 0.21612,0.160758 -0.161877,0.261929 0.209331,0.806241 0.824906,1.209583 1.319313,0.864447 1.786594,0.936964 1.335621,0.207274 -0.207767,-0.336171 -0.124284,-0.401945 0.231258,-0.182207 0.306015,0.189128 0.439777,0.460485 0.297248,0.603015 -0.321385,0.321386 1.088516,1.927951 1.691942,1.927951 0.242463,0 0.159422,-0.35884 -0.184542,-0.797424 -0.568659,-0.725101 -0.552059,-0.739875 0.183057,-0.162902 0.444639,0.348987 0.69678,0.746174 0.56032,0.882638 -0.336836,0.336836 3.022466,3.738306 3.438206,3.481365 0.181494,-0.11217 0.609538,0.152637 0.951209,0.588461 0.562161,0.717075 0.545411,0.732953 -0.176204,0.167024 -0.438583,-0.34396 -0.797424,-0.427004 -0.797424,-0.184541 0,0.523818 1.43227,1.886516 1.974573,1.878658 0.208852,-0.003 0.51643,0.146987 0.683506,0.333362 0.167081,0.186375 0.04747,0.191362 -0.265806,0.01108 -0.726194,-0.417904 -0.74212,0.282543 -0.02278,1.00188 0.300743,0.300743 0.428203,0.546806 0.28325,0.546806 -0.144958,0 -1.144723,-1.142158 -2.221706,-2.538127 z m -58.477549,1.543407 c 0.131602,-0.212937 0.43016,-0.269187 0.663462,-0.124998 0.596191,0.368467 0.52906,0.512157 -0.239277,0.512157 -0.364905,0 -0.555788,-0.174222 -0.424185,-0.387159 z m 1.479149,-1.857406 c 0.280838,-0.280838 0.847068,-0.559995 1.258289,-0.620349 0.552083,-0.08103 0.614098,0.02384 0.23706,0.400878 -0.280837,0.280838 -0.847067,0.559995 -1.258288,0.620349 -0.552084,0.08103 -0.614099,-0.02384 -0.237061,-0.400878 z m 3.603631,-2.670879 c 0.818919,-0.879898 1.377856,-1.710902 1.242083,-1.846675 -0.135772,-0.135773 0.105035,-0.532395 0.535128,-0.881382 0.517424,-0.419849 0.666216,-0.441817 0.439791,-0.06493 -0.188209,0.313273 -0.150152,0.569588 0.08457,0.569588 0.490936,0 1.75348,-1.409194 1.525645,-1.702855 -0.08354,-0.107675 5.92e-4,-0.332475 0.186973,-0.499554 0.186375,-0.16708 0.191362,-0.04747 0.01108,0.265808 -0.464541,0.807232 0.07343,0.706379 1.478344,-0.277147 1.471762,-1.030321 3.260038,-1.984928 3.260038,-1.740254 0,0.0985 -1.204146,0.922341 -2.675881,1.830748 -1.471735,0.908406 -3.778569,2.617983 -5.126298,3.79906 -1.713166,1.501325 -2.002443,1.666079 -0.961474,0.547596 z m 11.042008,-7.463618 c 0.626548,-0.358167 1.344229,-0.651212 1.594848,-0.651212 0.25062,0 -0.05696,0.293045 -0.683506,0.651212 -0.626548,0.358167 -1.344229,0.651213 -1.594848,0.651213 -0.250619,0 0.05696,-0.293046 0.683506,-0.651213 z m 26.884587,-0.683506 c -0.375929,-0.242944 -0.478455,-0.441716 -0.227836,-0.441716 0.250619,0 0.763249,0.198772 1.139178,0.441716 0.375928,0.242944 0.478454,0.441716 0.227835,0.441716 -0.250619,0 -0.763249,-0.198772 -1.139177,-0.441716 z m -3.189697,-0.911342 c -0.915776,-0.293283 -0.960459,-0.367455 -0.227836,-0.378223 0.501239,-0.0074 1.321446,0.162834 1.822684,0.378223 1.16115,0.498964 -0.03682,0.498964 -1.594848,0 z M 41.048875,26.697241 c 0.328938,-0.13163 0.721954,-0.115442 0.87337,0.03597 0.151415,0.151416 -0.117715,0.259113 -0.598068,0.239328 -0.530831,-0.02186 -0.638805,-0.12984 -0.275302,-0.275302 z M 56.997359,26.24157 c 0.328935,-0.13163 0.721951,-0.115442 0.873371,0.03598 0.151415,0.151416 -0.117718,0.259113 -0.598068,0.239328 -0.530834,-0.02186 -0.638806,-0.12984 -0.275303,-0.275302 z m -9.825405,-1.369844 c 0.438583,-0.114613 1.156265,-0.114613 1.594848,0 0.438583,0.114614 0.07974,0.208389 -0.797424,0.208389 -0.877167,0 -1.236007,-0.09378 -0.797424,-0.208389 z m 4.556709,0 c 0.438584,-0.114613 1.156265,-0.114613 1.594849,0 0.438583,0.114614 0.07974,0.208389 -0.797424,0.208389 -0.877167,0 -1.236008,-0.09378 -0.797425,-0.208389 z"
         id="path1828" />
      <path
         style="fill:#767676;fill-opacity:1;stroke-width:0.455671"
         d="m 12.898305,71.185815 c 0.0086,-0.363397 0.197195,-4.351657 0.419155,-8.8628 0.452897,-9.204722 1.308785,-12.836437 4.259729,-18.074941 1.563757,-2.775975 4.959831,-7.112992 4.001567,-5.110273 -0.254045,0.530941 -0.332413,1.094833 -0.174152,1.253095 0.158262,0.158262 -0.01935,0.287749 -0.394704,0.287749 -0.375348,0 -0.97309,0.563893 -1.328314,1.253095 -0.355223,0.689202 -0.759157,1.355621 -0.89763,1.480931 -0.500623,0.453032 -2.713086,5.01238 -2.4323,5.01238 0.158408,0 0.03275,0.307578 -0.279245,0.683507 -0.311993,0.375928 -0.414519,0.683506 -0.227836,0.683506 0.186684,0 0.08416,0.307578 -0.227835,0.683506 -0.311993,0.375929 -0.414519,0.683507 -0.227836,0.683507 0.186684,0 0.09161,0.298596 -0.211269,0.663548 -0.302882,0.364947 -0.427171,0.86341 -0.276197,1.10769 0.150973,0.244281 0.06924,0.571002 -0.181634,0.726048 -0.250872,0.155047 -0.467058,0.733111 -0.480413,1.284582 -0.27218,11.238869 -0.539297,16.088215 -0.906412,16.455327 -0.296572,0.296573 -0.444943,0.224737 -0.434674,-0.210457 z M 86.64955,65.62663 c -0.104846,-7.599986 -0.490444,-11.698131 -1.206435,-12.822002 -0.177429,-0.278506 -0.351372,-0.660163 -0.386536,-0.848127 -0.03518,-0.187964 -0.115199,-0.444279 -0.177853,-0.569589 -0.06266,-0.125309 -0.165181,-0.432887 -0.227836,-0.683506 -0.06266,-0.250619 -0.165181,-0.558197 -0.227835,-0.683507 -0.06266,-0.125309 -0.13955,-0.389967 -0.170877,-0.58813 -0.03131,-0.198162 -0.566709,-1.321186 -1.189739,-2.495605 -0.92431,-1.742341 -1.322639,-2.100882 -2.164437,-1.948234 -0.56741,0.102891 -1.031657,0.03924 -1.031657,-0.141453 0,-0.18069 -0.434368,-0.361247 -0.965261,-0.401238 -0.857195,-0.06457 -0.881765,-0.01166 -0.219474,0.47262 0.606776,0.443685 0.21339,0.539224 -2.110518,0.512567 -1.570966,-0.01802 -3.163883,0.120801 -3.539811,0.30849 -1.092121,0.545263 -2.480304,1.013239 -2.811713,0.947869 -0.168034,-0.03313 -1.500871,0.352142 -2.961862,0.856192 -6.819726,2.352857 -17.865067,3.318178 -22.388903,1.956706 -1.131155,-0.340428 -2.724651,-0.618961 -3.541102,-0.618961 -0.81645,0 -1.552806,-0.171688 -1.636346,-0.381529 -0.08354,-0.209841 -1.587253,-0.89388 -3.341586,-1.520091 -1.874854,-0.669228 -3.138085,-1.371173 -3.064489,-1.702859 0.06886,-0.310365 -0.08492,-0.43443 -0.341753,-0.275702 -0.256829,0.158729 -0.466958,0.122707 -0.466954,-0.08005 3e-6,-0.202754 -1.691675,-0.368645 -3.759286,-0.368645 -3.626684,0 -3.76477,-0.03877 -3.914582,-1.099128 -0.114225,-0.808471 -0.25657,-0.935254 -0.538281,-0.479437 -0.281984,0.45626 -0.464363,0.295479 -0.691532,-0.609638 -0.169699,-0.676131 -0.550255,-1.229329 -0.845682,-1.229329 -0.725408,0 -0.821607,-1.843824 -0.140168,-2.686578 0.431477,-0.533619 0.426935,-0.605164 -0.02132,-0.335861 -1.273634,0.765174 -0.446216,-0.620405 1.367013,-2.289172 5.36084,-4.933741 10.964508,-8.067328 17.429414,-9.746578 5.026475,-1.30562 13.153297,-1.308522 18.171319,-0.0065 7.533922,1.95484 14.555725,6.48297 19.141397,12.343659 2.071594,2.647583 2.462273,3.435917 2.357455,4.756975 -0.0691,0.87091 0.05873,1.469527 0.28407,1.330259 0.225338,-0.139268 0.285027,-0.646062 0.132632,-1.126209 -0.554456,-1.74694 0.259359,-0.808668 1.597054,1.841287 2.608352,5.167122 3.676262,9.228002 4.120851,15.670142 0.536047,7.767327 0.535195,8.500164 -0.0098,8.500164 -0.262767,0 -0.477625,-1.591449 -0.50753,-3.759285 z M 62.323013,45.136053 c 4.36855,-1.809162 4.539289,-1.871753 4.898463,-1.795724 0.187964,0.03979 0.341753,-0.107459 0.341753,-0.327216 0,-0.219757 0.993568,-0.82698 2.207931,-1.349384 2.403655,-1.034025 3.505167,-2.042626 3.04462,-2.787807 -0.161676,-0.261598 0.0025,-0.475632 0.364724,-0.475632 0.380882,0 0.741809,-0.566396 0.855786,-1.342948 0.108404,-0.738621 0.03946,-1.245508 -0.153255,-1.126415 -0.192699,0.119093 -0.549822,-0.156167 -0.793611,-0.61169 -0.243788,-0.455522 -0.930174,-1.088816 -1.525299,-1.407318 -1.109144,-0.593596 -2.472867,-2.346693 -1.825477,-2.346693 0.857737,0 6.592565,5.26179 8.499125,7.798073 1.146331,1.524962 2.084243,2.595584 2.084243,2.379161 0,-0.845943 -4.725217,-6.171167 -7.386736,-8.324703 -2.650547,-2.144657 -7.540935,-5.068228 -8.397697,-5.020311 -0.215537,0.01205 0.807677,0.640871 2.273812,1.39737 1.46613,0.756499 2.566849,1.474297 2.446037,1.595108 -0.313944,0.313946 -2.605545,-0.313079 -2.605545,-0.712928 0,-0.183569 -1.077766,-0.574955 -2.395034,-0.869747 -1.317271,-0.294792 -2.952597,-0.825251 -3.634062,-1.178799 -0.681461,-0.353546 -2.730736,-1.012659 -4.553944,-1.464694 -3.125898,-0.775016 -3.223981,-0.836885 -1.720076,-1.084982 0.877167,-0.144705 -0.827872,-0.271385 -3.788977,-0.281511 -3.357652,-0.01148 -5.15829,0.137359 -4.784545,0.395491 0.378003,0.261072 -0.157851,0.320414 -1.451239,0.160713 -1.382033,-0.170647 -1.753414,-0.122163 -1.139177,0.148719 0.827749,0.365041 0.785953,0.431515 -0.455671,0.724706 -0.751857,0.177539 -1.982169,0.58833 -2.734026,0.912868 -0.751857,0.324538 -1.879642,0.735917 -2.50619,0.914176 -2.745159,0.781024 -7.169345,4.636736 -8.240795,7.181917 -0.290135,0.689202 -0.810219,1.253095 -1.155742,1.253095 -0.680406,0 -0.88995,2.98423 -0.277172,3.947364 0.207832,0.326661 1.646701,0.52716 3.752307,0.522865 3.322122,-0.0068 4.943514,0.416694 7.288415,1.903561 3.213944,2.037916 7.202076,2.709893 15.037141,2.533673 4.845327,-0.108978 6.104155,-0.297185 8.429913,-1.260358 z m 9.493144,-9.717669 c 0,-0.364904 0.170876,-0.663462 0.379728,-0.663462 0.208848,0 0.379725,0.192951 0.379725,0.428779 0,0.235828 -0.170877,0.534386 -0.379725,0.663462 -0.208852,0.129076 -0.379728,-0.06387 -0.379728,-0.428779 z m 5.771833,8.905628 c 0,-0.250619 -0.09042,-0.455671 -0.200941,-0.455671 -0.110519,0 -0.327673,0.205052 -0.482565,0.455671 -0.154892,0.250619 -0.06447,0.455671 0.200942,0.455671 0.26541,0 0.482564,-0.205052 0.482564,-0.455671 z M 30.712026,31.720326 c 2.657301,-1.640179 3.614793,-2.497292 1.650622,-1.477577 -1.995792,1.036131 -6.511865,4.439839 -7.860324,5.924229 -0.863662,0.950722 -0.464738,0.71319 1.083404,-0.645095 1.347729,-1.18245 3.654563,-2.893151 5.126298,-3.801557 z m 5.865578,-3.116962 c 0.626548,-0.358167 0.934126,-0.651212 0.683506,-0.651212 -0.250619,0 -0.9683,0.293045 -1.594848,0.651212 -0.626547,0.358167 -0.934125,0.651213 -0.683506,0.651213 0.250619,0 0.9683,-0.293046 1.594848,-0.651213 z m 26.884587,-0.683506 c -0.375929,-0.242944 -0.888559,-0.441716 -1.139178,-0.441716 -0.250619,0 -0.148093,0.198772 0.227836,0.441716 0.375928,0.242944 0.888558,0.441716 1.139177,0.441716 0.250619,0 0.148093,-0.198772 -0.227835,-0.441716 z M 60.956,27.008516 c -0.501238,-0.215389 -1.321445,-0.38559 -1.822684,-0.378223 -0.732623,0.01077 -0.68794,0.08494 0.227836,0.378223 1.558016,0.498964 2.755998,0.498964 1.594848,0 z M 41.922245,26.733215 c -0.151416,-0.151416 -0.544432,-0.167604 -0.87337,-0.03598 -0.363503,0.145462 -0.255529,0.253437 0.275302,0.275302 0.480353,0.01978 0.749483,-0.08791 0.598068,-0.239328 z M 57.87073,26.277544 c -0.15142,-0.151416 -0.544436,-0.167604 -0.873371,-0.03598 -0.363503,0.145463 -0.255531,0.253437 0.275303,0.275302 0.48035,0.01978 0.749483,-0.08791 0.598068,-0.239328 z"
         id="path1826" />
      <path
         style="fill:#606060;fill-opacity:1;stroke-width:0.455671"
         d="m 46.801635,73.591462 c 0.155529,-0.155525 0.603212,-0.329806 0.994852,-0.387289 0.391636,-0.05748 0.584818,0.02274 0.429292,0.178273 -0.155529,0.155525 -0.603212,0.329805 -0.994852,0.387288 -0.391636,0.05748 -0.584817,-0.02274 -0.429292,-0.178272 z M 13.918164,65.740547 c 0,-1.127785 0.08886,-1.589152 0.197474,-1.025259 0.108611,0.563893 0.108611,1.486626 0,2.050519 -0.10861,0.563893 -0.197474,0.102526 -0.197474,-1.02526 z m 72.416408,-2.50619 c 0.0093,-0.751857 0.111411,-1.004271 0.226942,-0.560917 0.115531,0.443354 0.107935,1.05851 -0.01691,1.367013 -0.124822,0.308503 -0.219347,-0.05424 -0.21006,-0.806096 z m -32.03633,-9.080123 c -0.09752,-0.09319 -2.022773,-0.271999 -4.278345,-0.397359 -4.078006,-0.226651 -9.402791,-0.994183 -10.708267,-1.543521 -0.375929,-0.158191 -0.833183,-0.256434 -1.01612,-0.218321 -0.182937,0.03809 -1.413249,-0.358992 -2.734026,-0.882444 -1.320777,-0.523456 -2.79397,-1.029438 -3.273764,-1.1244 -0.479793,-0.09496 -1.859287,-0.500463 -3.065541,-0.901116 -1.206253,-0.400654 -2.425773,-0.584717 -2.710043,-0.409029 -0.28427,0.175689 -0.695842,0.03686 -0.914603,-0.30853 -0.288028,-0.454741 -0.399673,-0.470845 -0.404725,-0.05838 -0.0038,0.313274 -0.314556,0.569589 -0.690484,0.569589 -0.375929,0 -0.683507,-0.23683 -0.683507,-0.526295 0,-0.29846 -0.394524,-0.169255 -0.911342,0.29846 -0.501238,0.453615 -0.914482,0.639183 -0.918319,0.412377 -0.0038,-0.22681 -0.191802,-0.120347 -0.417699,0.23658 -0.274507,0.433735 -0.358275,0.08466 -0.252582,-1.052559 0.130005,-1.3988 0.02191,-1.673291 -0.607561,-1.542843 -0.421135,0.08727 -0.741604,0.483363 -0.712154,0.880197 0.03849,0.518622 -0.217783,0.650717 -0.911341,0.469738 -2.083064,-0.543556 -2.158062,-1.188727 -0.467428,-4.021063 0.877592,-1.470239 1.893624,-2.90082 2.257847,-3.179068 0.364223,-0.278248 0.665364,-0.790878 0.669202,-1.139178 0.0057,-0.520494 0.08153,-0.515422 0.425605,0.02848 0.230244,0.363962 0.317529,0.825329 0.193965,1.025259 -0.123564,0.199929 0.07279,0.363509 0.436339,0.363509 0.36355,0 0.799844,0.553198 0.969543,1.229329 0.227169,0.905117 0.409548,1.065898 0.691532,0.609638 0.281711,-0.455817 0.424056,-0.329034 0.538281,0.479437 0.149812,1.060356 0.287898,1.099128 3.914582,1.099128 2.067611,0 3.759289,0.165891 3.759286,0.368645 -4e-6,0.202755 0.210125,0.238777 0.466954,0.08005 0.256828,-0.158728 0.410617,-0.03466 0.341753,0.275702 -0.0736,0.331686 1.189635,1.033631 3.064489,1.702859 1.754333,0.626211 3.258047,1.31025 3.341586,1.520091 0.08354,0.209841 0.819896,0.381529 1.636346,0.381529 0.816451,0 2.409947,0.278533 3.541102,0.618961 4.523836,1.361472 15.569177,0.396151 22.388903,-1.956706 1.460991,-0.50405 2.793828,-0.889338 2.961862,-0.856192 0.331409,0.06537 1.719592,-0.402606 2.811713,-0.947869 0.375928,-0.187689 1.968845,-0.32651 3.539811,-0.30849 2.323908,0.02666 2.717294,-0.06888 2.110518,-0.512567 -0.662291,-0.48428 -0.637721,-0.537191 0.219474,-0.47262 0.530893,0.03999 0.965261,0.265907 0.965261,0.502037 0,0.236129 0.457835,0.0387 1.017409,-0.438722 0.855326,-0.729762 0.917648,-0.739351 0.391216,-0.06019 -0.53833,0.694508 -0.531308,0.771448 0.05002,0.548371 0.486274,-0.186602 1.003092,0.482403 1.840013,2.381839 1.591363,3.61168 1.881871,4.691848 1.261863,4.691848 -0.282298,0 -0.39982,0.183567 -0.261159,0.407925 0.138661,0.224355 -0.05429,0.525498 -0.428777,0.669203 -0.417582,0.160242 -0.680891,-0.0032 -0.680891,-0.422224 0,-0.375929 -0.307578,-0.801535 -0.683507,-0.945791 -0.375928,-0.144261 -0.683506,-0.536151 -0.683506,-0.870878 0,-0.37617 -0.371591,-0.537031 -0.972999,-0.421209 -1.430697,0.275526 -1.619172,0.66281 -0.356043,0.731616 0.865483,0.04714 0.784752,0.120302 -0.37715,0.341754 -1.448568,0.276091 -1.46526,0.306862 -0.828382,1.527281 0.614951,1.178388 0.59769,1.237529 -0.320264,1.097443 -1.006035,-0.153534 -1.713191,-1.203778 -0.810538,-1.203778 0.342181,0 0.317028,-0.21114 -0.07594,-0.637548 -0.323158,-0.350652 -0.660855,-0.567839 -0.750449,-0.482642 -0.08959,0.0852 -0.683347,-0.327691 -1.319464,-0.91753 -0.636117,-0.589839 -1.434288,-0.965867 -1.773713,-0.835618 -0.339425,0.130249 -0.617133,0.02903 -0.617133,-0.224947 0,-0.253968 -0.456077,-0.342496 -1.013508,-0.196727 -0.557427,0.145774 -0.762479,0.348716 -0.455671,0.450987 0.306812,0.102271 0.557837,0.522058 0.557837,0.932868 0,0.567155 -0.176873,0.494398 -0.734911,-0.302306 -0.582662,-0.831873 -0.983848,-0.982572 -1.936601,-0.72746 -0.660928,0.176968 -1.653234,0.354443 -2.205115,0.394387 -0.551886,0.03992 -1.135824,0.20502 -1.297646,0.366838 -0.161818,0.161823 -0.561009,0.191847 -0.887087,0.06672 -0.326074,-0.125128 -0.72823,-0.0085 -0.893685,0.259231 -0.196608,0.318117 0.458314,0.49674 1.890511,0.515619 2.814807,0.03709 1.451635,0.664874 -2.405396,1.107745 -3.39915,0.390296 -4.550253,0.568354 -5.545862,0.857869 -1.280759,0.372433 -4.069,0.729005 -4.261576,0.544987 z m 19.644381,-1.617062 c 0,-0.286298 0.18754,-0.404632 0.416752,-0.262973 0.229211,0.141664 0.52141,0.04611 0.649331,-0.212333 0.12792,-0.258448 0.183877,-0.221274 0.124357,0.0826 -0.141541,0.722603 -1.19044,1.068612 -1.19044,0.392706 z M 16.755917,47.96938 c -0.154891,-0.250619 -0.06447,-0.455671 0.200944,-0.455671 0.265409,0 0.482563,0.205052 0.482563,0.455671 0,0.250619 -0.09042,0.455671 -0.200943,0.455671 -0.110519,0 -0.327672,-0.205052 -0.482564,-0.455671 z m 60.148567,-3.645368 c 0.154892,-0.250619 0.372046,-0.455671 0.482565,-0.455671 0.110518,0 0.200941,0.205052 0.200941,0.455671 0,0.250619 -0.217154,0.455671 -0.482564,0.455671 -0.26541,0 -0.355834,-0.205052 -0.200942,-0.455671 z"
         id="path1824" />
      <path
         style="fill:#494949;fill-opacity:1;stroke-width:0.455671"
         d="m 83.49267,80.663771 c 1.888282,-2.011873 2.297398,-2.373631 2.297398,-2.031476 0,0.07313 -0.973997,1.047127 -2.164438,2.164437 l -2.164437,2.031476 z m 2.825014,-15.378894 c 0,-0.626548 0.103429,-0.882863 0.229836,-0.569589 0.126408,0.313274 0.126408,0.825903 0,1.139177 -0.126407,0.313274 -0.229836,0.05696 -0.229836,-0.569588 z M 18.581827,58.910701 c -0.159639,-0.258302 0.02327,-0.334691 0.428779,-0.179084 0.789412,0.302926 0.933846,0.629537 0.278394,0.629537 -0.235828,0 -0.554056,-0.202705 -0.707173,-0.450453 z m -4.325122,-0.968283 c -0.01757,-0.703925 0.983183,-5.424029 1.610687,-7.596892 0.450864,-1.56121 0.876926,-2.29629 1.211215,-2.089688 0.338726,0.209344 0.41584,0.05851 0.224719,-0.439545 -0.160034,-0.417039 -0.09235,-0.758255 0.150399,-0.758255 0.242753,0 0.44137,0.181148 0.44137,0.402549 0,0.221406 0.484201,0.495114 1.076003,0.608243 0.768421,0.14689 1.061498,0.0041 1.02526,-0.49901 -0.02791,-0.387584 0.293821,-0.776103 0.714956,-0.863378 0.629473,-0.130448 0.737566,0.144043 0.607561,1.542843 -0.105693,1.137218 -0.02193,1.486294 0.252582,1.052559 0.225897,-0.356927 0.413861,-0.46339 0.417699,-0.23658 0.0038,0.226806 0.417081,0.04124 0.918319,-0.412377 0.516818,-0.467715 0.911342,-0.59692 0.911342,-0.29846 0,0.289465 0.307578,0.526295 0.683507,0.526295 0.375928,0 0.686646,-0.256315 0.690484,-0.569589 0.0051,-0.412464 0.116697,-0.39636 0.404725,0.05838 0.218761,0.34538 0.630333,0.484219 0.914603,0.30853 0.28427,-0.175688 1.50379,0.0084 2.710043,0.409029 1.206254,0.400653 2.585748,0.806154 3.065541,0.901116 0.479794,0.09496 1.952987,0.600944 3.273764,1.1244 1.320777,0.523452 2.551089,0.920556 2.734026,0.882444 0.182937,-0.03809 0.640191,0.06013 1.01612,0.218321 1.311868,0.552027 6.638333,1.317281 10.708267,1.53845 2.255572,0.122575 4.295838,0.409561 4.533926,0.637752 0.273403,0.262034 0.273403,0.427547 0,0.449246 -1.096262,0.08701 -5.126261,-0.04999 -6.35661,-0.216088 -0.751857,-0.101501 -2.289746,-0.307947 -3.417532,-0.45877 -1.127785,-0.150818 -3.43462,-0.657428 -5.126298,-1.125794 -1.691678,-0.468371 -3.078919,-0.723925 -3.082757,-0.567903 -0.0038,0.156022 -0.157626,0.06114 -0.341753,-0.210848 -0.418103,-0.617621 -3.956332,-1.660387 -5.873232,-1.73093 -0.79058,-0.02912 -1.365263,-0.169646 -1.277073,-0.312339 0.147974,-0.239433 -3.978477,-0.201863 -4.234491,0.03855 -0.06265,0.05884 -0.575285,0.132605 -1.139178,0.163933 -0.563892,0.0313 -1.050891,0.313273 -1.082218,0.626547 -0.189922,1.899218 -0.257641,2.127719 -0.472659,1.594848 -0.126408,-0.313273 -0.429899,-0.569588 -0.674424,-0.569588 -0.244525,0 -0.332221,0.181817 -0.19488,0.404039 0.13734,0.222221 -0.06949,0.668952 -0.459612,0.992729 -0.630096,0.522932 -0.591364,0.659128 0.34677,1.219362 l 1.056093,0.63068 -1.043981,-0.218626 c -0.861387,-0.180391 -0.995646,-0.06634 -0.767627,0.652079 0.203012,0.639639 0.09928,0.802764 -0.390859,0.614677 -0.366966,-0.140816 -0.797046,-0.04595 -0.955731,0.210803 -0.158686,0.256761 -0.589531,0.351326 -0.957434,0.21015 -0.367902,-0.14118 -0.668913,-0.02569 -0.668913,0.256648 0,0.309401 -0.490313,0.424421 -1.234203,0.289529 -0.705692,-0.127966 -1.38565,0.01458 -1.58787,0.332845 -0.194518,0.306151 -0.356809,0.430841 -0.360646,0.277084 z m 58.335468,-2.89018 c -0.30288,-0.364947 -0.41841,-0.877576 -0.256734,-1.139177 0.161677,-0.261596 0.09389,-0.475629 -0.150635,-0.475629 -0.244527,0 -0.522742,0.234456 -0.618264,0.521014 -0.125387,0.37617 -0.424243,0.38691 -1.074996,0.03864 -0.626908,-0.335511 -1.159564,-0.337862 -1.749489,-0.0077 -0.589192,0.329728 -0.758314,0.329277 -0.553896,-0.0014 0.304767,-0.493123 -2.06685,-0.450404 -4.270297,0.07692 -1.628559,0.38974 -7.746407,0.572199 -7.746407,0.231029 0,-0.157438 0.871471,-0.443714 1.936602,-0.636166 1.065131,-0.192453 2.141653,-0.393732 2.392272,-0.447292 0.55904,-0.119467 5.205494,-0.685661 7.92868,-0.966154 1.102723,-0.113581 2.179246,-0.314226 2.392272,-0.445883 0.213022,-0.131794 0.387316,-0.01026 0.387316,0.269944 0,0.280201 0.197574,0.387347 0.439053,0.238106 0.482715,-0.298337 2.294973,1.31277 2.294973,2.040249 0,0.250619 -0.217155,0.45567 -0.482565,0.45567 -0.26541,0 -0.355833,0.205052 -0.200942,0.455671 0.427082,0.691035 -0.04233,0.544723 -0.666943,-0.207877 z"
         id="path1822" />
      <path
         style="fill:#333333;fill-opacity:1;stroke-width:0.455671"
         d="m 33.423881,85.979934 c 0.02186,-0.530834 0.12984,-0.638805 0.275302,-0.275303 0.13163,0.328936 0.115441,0.721952 -0.03598,0.873371 -0.151415,0.151415 -0.259113,-0.117718 -0.239327,-0.598068 z m 5.360905,-0.412929 c -0.101474,-0.101473 -1.260433,-0.269347 -2.575464,-0.373053 -1.315033,-0.103706 -2.453262,-0.268322 -2.529399,-0.365808 -0.360818,-0.462001 -0.992946,-5.341211 -0.665788,-5.139016 0.205575,0.12705 0.373772,0.01385 0.373772,-0.251558 0,-0.26541 -0.263367,-0.482565 -0.58526,-0.482565 -0.321893,0 -0.922326,-0.563893 -1.334294,-1.253095 -1.996357,-3.339804 -7.509341,-6.948982 -10.6145,-6.948982 -1.067707,0 -1.125225,-0.07595 -0.517664,-0.683506 0.59113,-0.591129 4.099239,-0.683507 25.957041,-0.683507 19.810358,0 25.315965,0.123122 25.469827,0.569589 0.107958,0.313274 0.165518,2.056215 0.127912,3.873203 -0.05122,2.474813 0.08324,3.303614 0.535964,3.303614 0.454614,0 0.604348,-0.95962 0.604348,-3.873203 v -3.873203 h 6.352499 c 3.493876,0 6.458881,0.172121 6.588893,0.38249 0.259004,0.419072 0.420042,3.412165 0.330252,6.138098 -0.04702,1.427448 -0.475675,2.178531 -2.411447,4.225327 -1.294844,1.369105 -2.883996,2.615492 -3.53145,2.769751 -0.647454,0.154253 -1.371888,0.392022 -1.609849,0.528373 -0.43944,0.251799 -1.312738,0.389453 -4.579721,0.721883 -1.002476,0.102006 -2.642891,0.329313 -3.645368,0.505129 -1.002476,0.175816 -2.642891,0.402973 -3.645367,0.504793 -2.588995,0.262967 -27.872522,0.627664 -28.094937,0.405246 z m -0.96358,-5.52029 c -0.151416,-0.151414 -0.544432,-0.1676 -0.873369,-0.03595 -0.363504,0.145459 -0.25553,0.253435 0.275301,0.275298 0.480353,0.01978 0.749484,-0.08791 0.598068,-0.239327 z m 33.387391,-1.547381 c 0.508415,-0.328561 0.24578,-0.443504 -1.02526,-0.448694 -0.939821,-0.0038 -1.708766,0.198075 -1.708766,0.448694 0,0.580384 1.835949,0.580384 2.734026,0 z M 46.843875,73.920497 c 0.199949,-0.323526 0.514836,-0.295593 0.975236,0.08651 0.523575,0.434528 0.876155,0.441759 1.533155,0.03144 0.572843,-0.357742 0.948357,-0.378899 1.142746,-0.06437 0.195815,0.316832 0.484501,0.306652 0.891898,-0.03144 0.347376,-0.288298 0.71112,-0.323968 0.859263,-0.08426 0.391905,0.634116 3.925282,0.51391 3.925282,-0.133539 0,-0.670885 -4.082698,-0.819265 -4.857894,-0.176555 -0.332686,0.275827 -0.62822,0.278101 -0.796312,0.0061 -0.147009,-0.237864 -0.904936,-0.388336 -1.684274,-0.33438 -0.951847,0.06589 -1.58651,-0.173346 -1.933408,-0.728823 -1.005248,-1.609653 -2.968423,-0.558238 -2.284668,1.2236 0.300121,0.782104 1.787887,0.919407 2.228976,0.205708 z M 13.216873,71.607726 c 0.309097,-0.311415 0.676781,-0.45142 0.817076,-0.311123 0.140296,0.140296 -0.112602,0.395089 -0.561994,0.566207 -0.649421,0.247284 -0.701761,0.194945 -0.255082,-0.255084 z m 4.592783,-1.166071 c 0.328938,-0.13163 0.721954,-0.115445 0.87337,0.03595 0.151415,0.151415 -0.117715,0.259113 -0.598068,0.239328 -0.530831,-0.02187 -0.638805,-0.129839 -0.275302,-0.275299 z"
         id="path1820" />
    </g>
  </g>
</svg>
