<?xml version="1.0" encoding="UTF-8" standalone="no"?>
<!-- Created with Inkscape (http://www.inkscape.org/) -->

<svg
   width="100mm"
   height="100mm"
   viewBox="0 0 100 100"
   version="1.1"
   id="svg2770"
   inkscape:version="1.1.1 (3bf5ae0d25, 2021-09-20)"
   sodipodi:docname="add_list_type_device_611z.svg"
   xmlns:inkscape="http://www.inkscape.org/namespaces/inkscape"
   xmlns:sodipodi="http://sodipodi.sourceforge.net/DTD/sodipodi-0.dtd"
   xmlns="http://www.w3.org/2000/svg"
   xmlns:svg="http://www.w3.org/2000/svg">
  <sodipodi:namedview
     id="namedview2772"
     pagecolor="#ffffff"
     bordercolor="#666666"
     borderopacity="1.0"
     inkscape:pageshadow="2"
     inkscape:pageopacity="0.0"
     inkscape:pagecheckerboard="0"
     inkscape:document-units="mm"
     showgrid="false"
     width="100mm"
     inkscape:zoom="0.58974467"
     inkscape:cx="378.97757"
     inkscape:cy="269.6082"
     inkscape:window-width="1440"
     inkscape:window-height="890"
     inkscape:window-x="-6"
     inkscape:window-y="-6"
     inkscape:window-maximized="1"
     inkscape:current-layer="layer1" />
  <defs
     id="defs2767" />
  <g
     inkscape:label="Laag 1"
     inkscape:groupmode="layer"
     id="layer1">
    <g
       id="g2786">
      <path
         style="fill:#d0d0d0;fill-opacity:1;stroke-width:0.591371"
         d="m 19.798096,92.368149 c 0.204297,-0.330558 0.619177,-0.447916 0.921957,-0.260782 0.820257,0.50694 0.667309,0.861798 -0.371449,0.861798 -0.507076,0 -0.754805,-0.270457 -0.550508,-0.601016 z m 19.238702,-2.392858 c -4.455909,-1.166609 -6.337295,-2.221892 -4.900236,-2.748579 0.408594,-0.149753 0.564526,-0.560886 0.346517,-0.913633 -0.265633,-0.429802 -0.02302,-0.48723 0.735529,-0.174093 2.47965,1.023633 6.419155,2.099213 7.688735,2.099213 0.73821,0 1.741375,0.399175 2.229256,0.887056 0.54694,0.546941 2.093661,0.909658 4.033994,0.946004 2.46454,0.04619 2.826349,0.161616 1.668511,0.532423 -2.554192,0.817996 -7.228347,0.569129 -11.802306,-0.628391 z m 9.584665,-0.962 c 0.569195,-0.148742 1.500604,-0.148742 2.069798,0 0.569195,0.148747 0.10349,0.270451 -1.034899,0.270451 -1.138389,0 -1.604093,-0.121704 -1.034899,-0.270451 z M 15.28142,87.79467 c -0.735589,-0.937949 -0.714672,-0.958866 0.223275,-0.223278 0.569195,0.446397 1.034899,0.912101 1.034899,1.034899 0,0.486722 -0.485625,0.173455 -1.258174,-0.811621 z M 44.334024,86.649853 C 40.254859,85.975158 34.28072,83.86002 34.28072,83.090499 c 0,-0.487556 0.28828,-0.657646 0.691868,-0.408212 0.444966,0.275005 0.574258,0.121113 0.362303,-0.431233 -0.258736,-0.674258 0.514008,-0.571294 3.59557,0.479087 2.158825,0.73586 4.856545,1.3635 5.994934,1.39476 1.67289,0.04595 1.842994,0.15009 0.887057,0.543162 -1.140259,0.468863 -1.142755,0.502583 -0.06951,0.938825 0.621074,0.252444 1.574784,0.164247 2.157225,-0.199493 0.84894,-0.530176 1.100176,-0.437124 1.344727,0.498041 0.253764,0.970392 0.0092,1.137442 -1.565854,1.069488 -1.026625,-0.04429 -2.531884,-0.190575 -3.345019,-0.325071 z m 6.664178,-0.0041 c 0.575384,-0.149936 1.373735,-0.140078 1.774112,0.02194 0.400377,0.161994 -0.07039,0.284668 -1.046154,0.272616 -0.975762,-0.01206 -1.303343,-0.144591 -0.727958,-0.294527 z M 10.71926,83.507232 c 0,-0.813135 0.134226,-1.145781 0.29828,-0.739214 0.164053,0.406568 0.164053,1.07186 0,1.478427 -0.164054,0.406568 -0.29828,0.07392 -0.29828,-0.739213 z m 18.332497,0 c 0,-0.813135 0.134225,-1.145781 0.298279,-0.739214 0.164053,0.406568 0.164053,1.07186 0,1.478427 -0.164054,0.406568 -0.298279,0.07392 -0.298279,-0.739213 z m 22.859207,0.77877 c 0.426895,-0.170829 0.936953,-0.149824 1.133461,0.04666 0.196507,0.196507 -0.152772,0.336277 -0.776175,0.3106 -0.688913,-0.02839 -0.829043,-0.168505 -0.357286,-0.357283 z M 71.88235,83.886963 c 0.194567,-0.507042 -0.05689,-0.950599 -0.604985,-1.067224 -0.633801,-0.13485 0.02324,-0.911462 2.026374,-2.395046 1.630374,-1.20752 2.964311,-1.898093 2.964311,-1.534619 0,0.36348 0.533866,0.177731 1.186367,-0.412777 1.605436,-1.452897 2.055392,-0.813336 0.666877,0.947903 -1.469024,1.863356 -6.668812,5.581973 -6.238944,4.461763 z M 41.968541,81.655117 c -5.899698,-1.60391 -8.024068,-2.875393 -10.118925,-6.056394 l -2.061351,-3.130126 2.448438,1.82325 c 1.346641,1.002787 2.347161,2.108497 2.223378,2.457128 -0.123783,0.348631 0.463036,0.947394 1.304043,1.330584 1.856427,0.845844 2.850052,0.897435 2.371508,0.123135 -0.194967,-0.315466 0.754194,-0.182408 2.109248,0.295686 1.355054,0.478088 2.943501,0.869256 3.529884,0.869256 0.586383,0 1.465325,0.399175 1.953206,0.887056 0.497241,0.497242 2.010096,0.905324 3.442623,0.928624 1.970411,0.03205 2.284751,0.157937 1.372825,0.549803 -1.555586,0.668456 -5.977105,0.628237 -8.574877,-0.078 z m 22.805797,-0.34002 c -0.320925,-0.842822 -0.253,-0.910747 0.33105,-0.33105 0.404154,0.401151 0.585853,0.878328 0.403776,1.060405 -0.182077,0.182077 -0.512748,-0.146133 -0.734826,-0.729355 z m 4.539972,-0.420926 c 0.24112,-0.291859 0.13223,-0.89957 -0.241983,-1.350466 -0.539112,-0.649586 -0.263556,-1.167786 1.327119,-2.495739 1.104125,-0.92177 2.347405,-1.545506 2.762843,-1.386085 0.415438,0.159416 1.151127,-0.03862 1.634863,-0.440092 1.74342,-1.446907 0.834595,0.406769 -1.042428,2.126185 -2.237972,2.050058 -5.078468,4.318533 -4.440414,3.546197 z M 48.632718,80.140563 c 0.575384,-0.149936 1.373735,-0.140078 1.774113,0.02194 0.400377,0.161994 -0.07039,0.284668 -1.046154,0.272616 -0.975762,-0.01206 -1.303344,-0.14459 -0.727959,-0.294526 z M 43.016841,77.265324 C 33.643472,74.993135 25.6062,67.408426 23.160795,58.527334 c -0.559655,-2.032528 -0.523391,-2.166247 0.446688,-1.647076 0.580686,0.310773 1.237906,0.382929 1.460489,0.160347 0.222583,-0.222583 0.229102,0.0529 0.01448,0.612178 -0.224171,0.584186 -0.111654,1.016873 0.264432,1.016873 0.360053,0 0.654641,0.347075 0.654641,0.771277 0,0.424203 0.783604,2.006895 1.741343,3.51709 1.172749,1.849235 1.439932,2.630152 0.81826,2.391593 -0.759597,-0.291487 -0.81188,-0.146436 -0.295203,0.818983 0.345334,0.645269 1.091411,1.550498 1.657946,2.011625 0.926786,0.754359 0.985681,0.719834 0.587388,-0.34432 -0.32971,-0.880918 0.05704,-0.702637 1.515547,0.69861 1.077024,1.03474 3.155752,2.59037 4.619394,3.456959 1.463643,0.866583 2.195465,1.42544 1.62627,1.241908 -1.644198,-0.530175 -1.199243,0.778706 0.482027,1.417924 2.017415,0.76702 2.785931,0.727954 2.264874,-0.115134 -0.300508,-0.486231 -0.09117,-0.556793 0.704313,-0.237417 0.622551,0.249949 2.124354,0.595593 3.337341,0.768096 1.212987,0.172503 2.079395,0.517574 1.925352,0.766819 -0.154044,0.249251 0.100375,0.599171 0.565374,0.777611 0.464999,0.178434 0.968581,0.0067 1.119073,-0.381564 0.150491,-0.388294 0.244111,-0.107228 0.208046,0.624594 -0.07687,1.559752 -0.888445,1.616654 -5.862032,0.411014 z m 7.67442,0.527917 c 0.406568,-0.164052 1.07186,-0.164052 1.478427,0 0.406568,0.164052 0.07392,0.298282 -0.739213,0.298282 -0.813135,0 -1.145781,-0.13423 -0.739214,-0.298282 z m 9.609776,0.159238 c 0,-0.12783 0.412997,-0.390896 0.917771,-0.584599 0.526274,-0.201947 0.763651,-0.10281 0.55647,0.232414 -0.347287,0.561927 -1.474241,0.831143 -1.474241,0.352185 z m -7.831978,-1.34321 c 0.408593,-0.164726 0.567064,-0.584008 0.352156,-0.93174 -0.232895,-0.376827 -0.111039,-0.459365 0.301647,-0.204313 0.814149,0.503174 0.32529,1.549711 -0.692389,1.482248 -0.504109,-0.03341 -0.493141,-0.131823 0.03859,-0.346195 z M 66.804396,76.11302 c -0.53842,-0.648751 -0.964839,-0.746339 -1.392507,-0.318672 -0.339039,0.339039 -0.891101,0.616434 -1.226805,0.616434 -0.335709,0 0.449336,-0.703182 1.744544,-1.562633 1.295203,-0.859445 2.88715,-2.026078 3.537658,-2.592516 0.67599,-0.588627 1.607304,-0.869268 2.173654,-0.655009 1.136313,0.42988 0.775382,1.038779 -2.251431,3.798245 -1.620203,1.477097 -1.890057,1.551645 -2.585113,0.714151 z m -47.45579,-1.868004 c 0.406567,-0.164052 1.07186,-0.164052 1.478427,0 0.406568,0.164052 0.07392,0.298281 -0.739213,0.298281 -0.813135,0 -1.145781,-0.134229 -0.739214,-0.298281 z m 44.802055,-1.225285 c 0.109711,-0.574328 0.253106,-1.11076 0.318648,-1.192074 0.06554,-0.08131 0.152432,-0.451771 0.193089,-0.823235 0.04063,-0.371464 0.806464,-1.222316 1.701799,-1.890778 1.192931,-0.890652 1.803291,-1.039973 2.284389,-0.558875 0.836873,0.836872 0.450441,1.432022 -2.39109,3.682555 -1.789801,1.417551 -2.261644,1.59278 -2.106835,0.782407 z M 42.527578,72.59615 c -4.098238,-1.509823 -6.802649,-3.221452 -9.548165,-6.043065 -3.739977,-3.843633 -7.625666,-12.403726 -4.424438,-9.746943 0.444354,0.368781 1.005195,0.473232 1.246314,0.232113 0.241118,-0.241118 0.361506,-0.17228 0.267529,0.152974 -0.09398,0.325254 0.279068,1.435392 0.828991,2.466973 0.673885,1.264117 0.784891,1.947261 0.340487,2.095394 -0.375862,0.125288 0.03167,0.971604 0.94781,1.968307 1.08281,1.178028 1.492526,1.391874 1.255759,0.655428 -0.215141,-0.669184 0.821534,-0.0385 2.673156,1.62627 1.663521,1.495648 3.261919,2.719359 3.551996,2.719359 0.290076,0 0.527412,0.405764 0.527412,0.901693 0,0.49593 0.682616,1.161222 1.516925,1.478427 1.943453,0.7389 2.789407,0.733578 2.326985,-0.01461 -0.725213,-1.173421 1.449772,-0.558555 3.07172,0.868369 l 1.659247,1.459711 -2.069798,-0.02298 c -1.138389,-0.01266 -3.015757,-0.371481 -4.17193,-0.797422 z m 6.239147,-0.32914 c -0.440823,-0.71327 1.128672,-1.415996 2.200713,-0.985353 0.417297,0.16763 0.09343,0.352321 -0.719705,0.410417 l -1.478427,0.105636 1.478427,0.473476 c 1.376272,0.44076 1.388899,0.477549 0.182744,0.532423 -0.712626,0.03241 -1.461315,-0.20905 -1.663752,-0.536599 z M 12.236949,67.096691 c -1.356551,-3.060279 -2.781868,-7.433622 -2.7905067,-8.562199 -0.00181,-0.236968 0.6619937,-0.127723 1.4751287,0.242766 0.813135,0.370489 1.478427,1.008311 1.478427,1.417383 0,0.40907 0.178282,1.208361 0.396183,1.776201 0.270111,0.703897 0.176021,0.896364 -0.295686,0.604836 -0.843086,-0.521057 -0.882153,0.247459 -0.115134,2.264874 0.317204,0.834312 0.93978,1.516925 1.383504,1.516925 1.231957,0 2.450722,3.011598 1.470405,3.633412 -1.267814,0.80417 -1.433884,0.64408 -3.002321,-2.894198 z m 12.236053,2.82674 c -1.326067,-0.536379 -5.189373,-7.861276 -5.857505,-11.105932 -0.358131,-1.739195 -0.26477,-1.917516 0.981807,-1.875269 0.757664,0.02568 1.045383,0.180761 0.639375,0.344628 -0.472368,0.190651 -0.604591,0.865943 -0.367177,1.875268 0.438099,1.862506 1.394665,3.109156 1.414491,1.843445 0.0074,-0.471618 0.932854,0.848794 2.056592,2.934252 1.123738,2.085457 2.647866,4.478605 3.386951,5.318103 1.133836,1.287888 1.151723,1.36534 0.114483,0.495705 -1.506823,-1.263345 -2.438726,-1.356812 -1.431862,-0.143614 0.827102,0.996596 0.785903,1.010375 -0.937155,0.313414 z m 36.419406,-0.969144 c -1.116407,-0.658503 -1.188811,-0.79974 -0.295685,-0.576794 1.362507,0.340116 4.126621,-1.675519 3.558438,-2.594864 -0.443853,-0.718167 0.274627,-0.78443 1.318438,-0.121603 0.533322,0.33866 0.206122,0.97957 -1.182742,2.316742 -1.808619,1.741298 -2.005806,1.797963 -3.398449,0.976519 z M 17.381002,67.849228 C 16.320224,66.230279 13.5461,57.928302 13.934099,57.533863 c 0.332642,-0.338163 3.196866,2.392587 3.196866,3.047891 0,0.287753 -0.266117,0.358718 -0.591371,0.1577 -0.667188,-0.412345 -0.767384,0.331635 -0.232415,1.725744 0.197426,0.514487 0.66313,0.937666 1.034899,0.940398 0.371769,0.003 1.378874,1.333323 2.238012,2.956854 l 1.562068,2.951881 h -1.400593 c -0.838,0 -1.786195,-0.588502 -2.360563,-1.465103 z M 62.97744,58.739001 c -0.205939,-0.937622 -1.347433,-2.866969 -2.536659,-4.287438 -1.189224,-1.42047 -1.619042,-2.116387 -0.955151,-1.546482 1.573163,1.35045 2.303521,0.602176 0.964541,-0.988199 l -1.03619,-1.230733 1.40729,1.182742 c 1.74781,1.468928 4.037562,5.017827 4.546928,7.047316 0.317885,1.266555 0.178381,1.527562 -0.816471,1.527562 -0.841497,0 -1.311696,-0.509168 -1.574288,-1.704768 z M 23.091361,54.185094 c 0.02837,-0.688913 0.168506,-0.829043 0.357287,-0.357287 0.170829,0.426896 0.14982,0.936953 -0.04669,1.133461 -0.196508,0.196507 -0.336278,-0.152771 -0.3106,-0.776174 z m 1.182741,0 c 0.02837,-0.688913 0.168506,-0.829043 0.357287,-0.357287 0.17083,0.426896 0.14982,0.936953 -0.04669,1.133461 -0.196507,0.196507 -0.336277,-0.152771 -0.310599,-0.776174 z M 13.106656,53.051633 c 0.01205,-0.975762 0.144589,-1.303344 0.294528,-0.727959 0.149938,0.575385 0.140077,1.373735 -0.02191,1.774113 -0.161993,0.400377 -0.28467,-0.07039 -0.272618,-1.046154 z m 2.296884,0.54209 c 0.02837,-0.688913 0.168505,-0.829043 0.357286,-0.357287 0.17083,0.426896 0.149821,0.936953 -0.04669,1.133461 -0.196508,0.196507 -0.336278,-0.152771 -0.3106,-0.776174 z m 6.551767,-0.837776 c 0,-0.813134 0.134225,-1.145781 0.298279,-0.739213 0.164053,0.406567 0.164053,1.07186 0,1.478427 -0.164054,0.406567 -0.298279,0.07392 -0.298279,-0.739214 z m 5.322337,-1.774112 c 0,-0.813135 0.134225,-1.145781 0.298279,-0.739214 0.164054,0.406568 0.164054,1.07186 0,1.478427 -0.164054,0.406568 -0.298279,0.07392 -0.298279,-0.739213 z m 1.182742,0 c 0,-0.813135 0.134225,-1.145781 0.298279,-0.739214 0.164054,0.406568 0.164054,1.07186 0,1.478427 -0.164054,0.406568 -0.298279,0.07392 -0.298279,-0.739213 z m 27.701056,0.591371 c -0.813135,-0.260412 -3.607363,-0.544737 -6.209394,-0.631834 -2.602032,-0.0871 -3.733029,-0.262747 -2.513327,-0.390332 2.72693,-0.285246 2.894538,-1.167152 0.295686,-1.555807 -1.057076,-0.158085 0.407118,-0.187861 3.253763,-0.06617 5.551282,0.237312 6.605355,0.581783 6.733834,2.200614 0.04517,0.569194 0.04517,1.008372 0,0.975951 -0.04518,-0.03242 -0.747428,-0.272012 -1.560562,-0.532422 z M 9.580344,49.799093 c 0,-1.138389 0.1217012,-1.604093 0.2704475,-1.034899 0.1487458,0.569195 0.1487458,1.500604 0,2.069798 -0.1487463,0.569195 -0.2704475,0.10349 -0.2704475,-1.034899 z m 1.194676,-0.295685 c 0.0066,-1.301016 0.127668,-1.763618 0.269119,-1.028004 0.141452,0.735613 0.136082,1.800081 -0.01193,2.365483 -0.148016,0.565403 -0.26375,-0.03646 -0.257186,-1.337479 z m 30.458509,-0.602656 c -2.722335,-1.849875 -3.562275,-3.274636 -2.506212,-4.251206 0.614023,-0.567803 0.974326,-0.406097 1.757127,0.788609 0.541597,0.82658 1.887052,1.879891 2.989902,2.340691 1.375037,0.574528 1.898227,1.116533 1.664845,1.724718 -0.479441,1.249402 -1.385738,1.10952 -3.905662,-0.602812 z M 13.106656,48.320666 c 0.01205,-0.975762 0.144589,-1.303343 0.294528,-0.727959 0.149938,0.575385 0.140077,1.373735 -0.02191,1.774113 -0.161993,0.400377 -0.28467,-0.07039 -0.272618,-1.046154 z m 5.563651,0.985618 c -0.167515,-0.271045 0.07119,-0.492809 0.530456,-0.492809 0.459266,0 0.697972,0.221764 0.530456,0.492809 -0.167514,0.271045 -0.40622,0.492809 -0.530456,0.492809 -0.124236,0 -0.362941,-0.221764 -0.530456,-0.492809 z m 3.285,-0.689933 c 0,-0.813134 0.134225,-1.145781 0.298279,-0.739213 0.164053,0.406567 0.164053,1.07186 0,1.478427 -0.164054,0.406568 -0.298279,0.07392 -0.298279,-0.739214 z M 14.765482,47.43361 c -0.758077,-0.489907 -0.73658,-0.574577 0.147843,-0.582315 0.569194,-0.005 1.034899,0.257061 1.034899,0.582315 0,0.721242 -0.0667,0.721242 -1.182742,0 z m 5.064673,-2.192136 c -0.320928,-0.842821 -0.253001,-0.910748 0.331047,-0.331047 0.404153,0.401147 0.585854,0.878329 0.403778,1.060404 -0.182075,0.182076 -0.512747,-0.146135 -0.734825,-0.729357 z M 36.917572,43.84604 c -0.214391,-0.346893 -0.262972,-0.757546 -0.107957,-0.912561 0.155014,-0.155015 0.439427,0.128807 0.632028,0.630716 0.399875,1.042058 0.05905,1.225354 -0.524071,0.281845 z m -8.097834,-0.993345 c -0.954577,-0.21706 -0.943492,-0.394373 0.159862,-2.557126 0.652059,-1.278141 1.453104,-2.323893 1.7801,-2.323893 0.33361,0 0.211867,0.740007 -0.277399,1.686143 -0.601432,1.163039 -0.68189,1.876192 -0.259345,2.298737 0.742454,0.742454 0.0016,1.21558 -1.403218,0.896139 z m 7.303694,-3.151665 c -0.05353,-2.11146 0.223718,-2.969084 1.261985,-3.903777 2.321215,-2.089658 2.886295,-2.120689 1.648559,-0.09053 -0.660335,1.083096 -1.201604,2.568029 -1.20282,3.29985 -0.0012,0.731822 -0.248815,1.330585 -0.55022,1.330585 -0.301405,0 -0.66971,0.465704 -0.818456,1.034899 -0.148746,0.569194 -0.301318,-0.182769 -0.339048,-1.671029 z M 25.10851,40.918884 c -0.204297,-0.330559 -0.657086,-0.424484 -1.006198,-0.208721 -0.349112,0.215763 0.105151,-0.967144 1.009474,-2.628682 1.387278,-2.548888 1.810682,-2.931892 2.709423,-2.450901 1.013474,0.542395 1.002334,0.699141 -0.229398,3.227847 -1.31979,2.709489 -1.823748,3.127636 -2.483301,2.060457 z M 21.129664,38.58461 c -0.974223,-0.942659 -0.934458,-1.142078 0.760766,-3.815169 1.484741,-2.341193 1.935807,-2.698448 2.654224,-2.102215 1.060633,0.880247 1.11115,1.220132 0.12629,0.849686 -1.027733,-0.386571 -3.100748,3.317604 -2.176389,3.888888 0.428751,0.264983 0.494794,0.754218 0.175387,1.299244 -0.444904,0.75917 -0.647601,0.743321 -1.540278,-0.120434 z m -8.120183,-0.908619 c 0,-0.325254 0.257966,-0.990546 0.573259,-1.478427 0.315293,-0.487881 0.57326,-0.62094 0.57326,-0.295686 0,0.325254 -0.257967,0.990546 -0.57326,1.478427 -0.315293,0.487881 -0.573259,0.62094 -0.573259,0.295686 z m 3.383003,-0.794365 c -0.20406,-0.78033 0.424007,-2.404862 1.748251,-4.521945 1.633669,-2.611765 2.23366,-3.165551 2.863413,-2.642903 0.659376,0.547233 0.578164,1.110979 -0.47119,3.270866 -0.826415,1.701011 -1.423501,2.357871 -1.714826,1.886497 -0.295482,-0.4781 -0.728265,-0.05412 -1.27706,1.251078 -0.726598,1.728066 -0.869827,1.82239 -1.148588,0.756407 z m -3.177487,-4.681459 c 2.008247,-3.963085 3.443419,-5.571076 4.416014,-4.947775 0.634713,0.406765 0.445087,1.123908 -0.937112,3.544047 -0.953063,1.668751 -1.929864,2.837071 -2.170669,2.596265 -0.240805,-0.240805 -0.697209,0.02566 -1.01423,0.592145 -0.317021,0.566485 -0.833778,1.029973 -1.148349,1.029973 -0.314571,0 0.06988,-1.266595 0.854346,-2.814655 z"
         id="path2792" />
      <path
         style="fill:#b9b9b9;fill-opacity:1;stroke-width:0.591371"
         d="m 17.722336,92.742452 c 0,-0.124691 0.532601,-0.365988 1.183558,-0.53622 0.650957,-0.170226 1.034426,-0.06821 0.852155,0.226714 -0.318306,0.515031 -2.035713,0.776139 -2.035713,0.309506 z m 33.909215,-2.33206 c 1.24898,-0.38157 2.10573,-0.857132 1.903888,-1.056797 -0.201842,-0.19967 1.304375,-0.69175 3.347149,-1.09351 2.042774,-0.401759 4.19685,-0.988683 4.786834,-1.304274 0.696192,-0.372404 1.318893,-0.3695 1.774113,0.0083 0.996276,0.826754 4.775018,-0.822538 4.360355,-1.903138 -0.185295,-0.482866 0.282107,-1.086188 1.146656,-1.4801 3.198453,-1.457316 4.316049,-0.341227 1.551639,1.549551 -4.41048,3.016642 -14.172034,6.092231 -19.07171,6.008949 l -2.069798,-0.03519 2.270874,-0.693767 z m -2.338566,-4.055834 c -0.163787,-0.265011 0.487789,-0.481843 1.447948,-0.481843 1.006238,0 1.889936,-0.375763 2.086138,-0.887056 0.187218,-0.487881 0.971746,-0.887056 1.743396,-0.887056 0.77165,0 2.621929,-0.366845 4.111731,-0.815211 1.662309,-0.500276 2.920364,-0.603571 3.256564,-0.267371 0.729971,0.729971 3.814194,-0.683607 3.466794,-1.588918 -0.144934,-0.377691 0.479832,-1.125823 1.388367,-1.66251 1.415458,-0.836127 1.751132,-0.856216 2.345264,-0.140326 1.437717,1.732338 -8.268907,5.963254 -15.523863,6.76653 -2.213499,0.245082 -4.158552,0.228772 -4.322339,-0.03625 z m -35.61687,-2.847326 c 0,-0.813135 0.134225,-1.145781 0.298279,-0.739214 0.164053,0.406568 0.164053,1.07186 0,1.478427 -0.164054,0.406568 -0.298279,0.07392 -0.298279,-0.739213 z m 12.418788,0 c 0,-0.813135 0.134225,-1.145781 0.298279,-0.739214 0.164053,0.406568 0.164053,1.07186 0,1.478427 -0.164054,0.406568 -0.298279,0.07392 -0.298279,-0.739213 z m 25.512614,-2.004044 c 1.235762,-0.38351 2.100076,-0.844051 1.920699,-1.023432 -0.482421,-0.482417 6.744464,-2.38219 7.436065,-1.954759 0.856414,0.529295 4.067723,-0.935454 4.067723,-1.855372 0,-1.176273 0.962817,-1.532083 1.709902,-0.631898 1.391206,1.676306 -10.39962,6.372364 -15.607117,6.216017 -1.734849,-0.0521 -1.724387,-0.0687 0.472728,-0.750556 z m -3.652118,-4.560717 c -1.053209,-0.852839 -1.157719,-1.12306 -0.434349,-1.12306 0.523914,0 0.95257,0.281415 0.95257,0.625374 0,0.370009 1.026282,0.551117 2.513327,0.443528 1.487335,-0.107611 2.461402,-0.458324 2.38613,-0.859119 -0.06996,-0.372499 0.852255,-0.861019 2.049363,-1.085598 1.197108,-0.224579 2.896717,-0.780733 3.776911,-1.2359 1.134616,-0.586728 1.665093,-0.633346 1.822814,-0.160184 0.162086,0.48626 0.589664,0.470873 1.575432,-0.05671 0.744127,-0.398247 1.489692,-0.587361 1.656802,-0.420246 0.480518,0.480513 -5.316905,3.226821 -8.168324,3.869429 -5.221778,1.176804 -6.679888,1.177247 -8.130676,0.0024 z M 19.348606,77.20187 c 0.406567,-0.164052 1.07186,-0.164052 1.478427,0 0.406568,0.164052 0.07392,0.298282 -0.739213,0.298282 -0.813135,0 -1.145781,-0.13423 -0.739214,-0.298282 z m 28.237958,-4.930684 c -1.038905,-1.147975 -1.032908,-1.182742 0.20403,-1.182742 0.70412,0 1.208239,0.330789 1.126555,0.739213 -0.179881,0.899399 3.669365,0.852219 4.228095,-0.0518 0.603144,-0.975909 6.910691,-3.109812 7.979678,-2.699602 0.905603,0.347513 0.90018,0.443262 -0.06729,1.188017 -1.489635,1.146704 -8.205082,3.189659 -10.48485,3.189659 -1.164814,0 -2.335446,-0.463646 -2.986217,-1.182741 z M 10.28703,58.414909 C 9.2723829,57.672427 9.1481448,56.814121 9.1537143,50.585356 c 0.00501,-5.604509 0.2729945,-7.848251 1.3476057,-11.283095 0.737743,-2.358092 1.540374,-4.287439 1.783624,-4.287439 1.232137,0 -0.702572,11.701468 -2.10702,12.743636 -0.9723825,0.721554 -0.7816725,4.173427 0.220394,3.989165 0.555323,-0.102113 1.668907,6.860559 1.176075,7.353392 -0.08129,0.08129 -0.660599,-0.227463 -1.287363,-0.686106 z m 4.581939,-0.370395 c -1.268139,-1.028117 -1.375539,-1.563905 -1.382664,-6.897703 -0.0075,-5.645144 0.698766,-9.887815 2.24258,-13.47082 0.421383,-0.977977 0.774802,-1.331815 0.787562,-0.788495 0.01273,0.54209 0.283834,1.074324 0.602452,1.182742 0.354131,0.120503 0.2392,1.325507 -0.295685,3.100122 -0.481245,1.59665 -0.87499,3.525997 -0.87499,4.287439 0,0.836366 -0.351169,1.38444 -0.887057,1.38444 -0.619531,0 -0.887056,0.624225 -0.887056,2.069798 0,1.138389 0.222127,2.069798 0.493614,2.069798 0.383488,0 1.945127,7.665841 1.646099,8.080444 -0.03845,0.05332 -0.688638,-0.404679 -1.444855,-1.017765 z m 13.544272,-1.197876 c -1.113314,-0.92683 -1.49297,-1.925131 -1.705144,-4.483667 -0.351567,-4.239448 0.833745,-9.797595 2.035798,-9.546225 1.022933,0.213912 0.992743,-0.03308 0.473967,3.87765 -0.28898,2.178437 -0.675823,3.104697 -1.296644,3.104697 -0.675568,0 -0.797392,0.436997 -0.515184,1.848034 0.203284,1.016419 0.369607,2.096592 0.369607,2.400384 0,0.303793 0.266117,0.387882 0.59137,0.186864 0.325254,-0.201019 0.591371,-0.281496 0.591371,-0.17884 0,0.102656 0.24754,1.049771 0.55009,2.104699 0.302549,1.054928 0.502137,1.909198 0.443528,1.898377 -0.05861,-0.01082 -0.75105,-0.556209 -1.538759,-1.211973 z M 18.095069,55.564959 c -1.368414,-5.106222 1.051144,-18.314832 3.120629,-17.035819 0.655648,0.405212 0.659538,0.999831 0.0228,3.484272 -0.422272,1.647623 -0.968592,2.871561 -1.214043,2.719864 -0.645963,-0.399227 -0.977031,0.35212 -1.189857,2.700334 -0.118777,1.310523 0.05844,2.021644 0.483091,1.938531 0.428807,-0.08393 0.741935,1.249475 0.868253,3.697308 0.166623,3.228891 0.04627,3.828381 -0.768358,3.827335 -0.531262,-6.82e-4 -1.126392,-0.600004 -1.322512,-1.331825 z m 4.675807,0.591371 c -0.956063,-2.986054 -0.483147,-10.794405 0.869193,-14.351327 0.890692,-2.342699 1.260652,-1.518501 0.520934,1.160537 -0.420391,1.522531 -0.429374,2.387544 -0.02737,2.635993 0.747394,0.461915 0.158063,7.745785 -0.626706,7.745785 -0.31037,0 -0.383991,0.784166 -0.166563,1.774113 0.37547,1.709506 -0.08536,2.546954 -0.569483,1.034899 z"
         id="path2790" />
      <path
         style="fill:#a3a3a3;fill-opacity:1;stroke-width:0.591371"
         d="M 16.984996,97.07173 C 9.8652222,95.352396 4.9435177,87.730223 6.491869,80.821166 7.7233647,75.325989 11.97418,71.120555 17.612746,69.819019 c 2.299523,-0.530797 3.44852,-0.476373 6.056855,0.286868 6.274634,1.836059 10.185602,6.933386 10.235974,13.34096 0.06898,8.774181 -8.484908,15.66199 -16.920579,13.624883 z m 6.845497,-4.909212 c 6.076109,-2.538755 7.557338,-10.50458 2.831979,-15.22994 -3.835957,-3.835957 -9.313348,-3.835957 -13.149305,0 -7.2932839,7.293288 0.782224,19.213964 10.317326,15.22994 z m -4.925415,-0.781183 c 0,-0.527633 -1.064468,-1.942044 -2.365484,-3.143136 -2.042833,-1.885935 -2.365483,-2.525048 -2.365483,-4.685615 0,-3.505836 2.434558,-5.959061 5.913709,-5.959061 6.609031,0 8.147799,8.415485 2.352562,12.866101 -2.227907,1.710984 -3.535304,2.051844 -3.535304,0.921711 z"
         id="path2788" />
    </g>
  </g>
</svg>
