<?xml version="1.0" encoding="UTF-8" standalone="no"?>
<!-- Created with Inkscape (http://www.inkscape.org/) -->

<svg
   width="100mm"
   height="100mm"
   viewBox="0 0 100 100"
   version="1.1"
   id="svg7366"
   inkscape:version="1.1.1 (3bf5ae0d25, 2021-09-20)"
   sodipodi:docname="add_list_type_device_7041.svg"
   xmlns:inkscape="http://www.inkscape.org/namespaces/inkscape"
   xmlns:sodipodi="http://sodipodi.sourceforge.net/DTD/sodipodi-0.dtd"
   xmlns="http://www.w3.org/2000/svg"
   xmlns:svg="http://www.w3.org/2000/svg">
  <sodipodi:namedview
     id="namedview7368"
     pagecolor="#505050"
     bordercolor="#ffffff"
     borderopacity="1"
     inkscape:pageshadow="0"
     inkscape:pageopacity="0"
     inkscape:pagecheckerboard="1"
     inkscape:document-units="mm"
     showgrid="false"
     inkscape:zoom="0.58974467"
     inkscape:cx="397.62971"
     inkscape:cy="374.73844"
     inkscape:window-width="1440"
     inkscape:window-height="890"
     inkscape:window-x="-6"
     inkscape:window-y="-6"
     inkscape:window-maximized="1"
     inkscape:current-layer="layer1" />
  <defs
     id="defs7363" />
  <g
     inkscape:label="Laag 1"
     inkscape:groupmode="layer"
     id="layer1">
    <g
       id="g7382"
       transform="translate(-0.44863568,-2.6918433)">
      <path
         style="fill:#d0d0d0;fill-opacity:1;stroke-width:0.453594"
         d="m 16.579504,99.145868 c 0.441332,-0.115004 1.053683,-0.107443 1.360782,0.01683 0.307097,0.124253 -0.05399,0.218347 -0.802423,0.209102 -0.74843,-0.0093 -0.999692,-0.110903 -0.558359,-0.225908 z m 4.082345,0 c 0.441332,-0.115004 1.053684,-0.107443 1.360782,0.01683 0.307097,0.124253 -0.05399,0.218347 -0.802422,0.209102 -0.74843,-0.0093 -0.999692,-0.110903 -0.55836,-0.225908 z m -6.92594,-0.592852 c -0.829154,-0.53584 -0.112984,-0.53584 1.133985,0 0.598172,0.257043 0.675426,0.398323 0.226797,0.414766 -0.374215,0.0137 -0.986567,-0.172928 -1.360782,-0.414766 z m 9.752269,0 c 1.246969,-0.53584 1.963139,-0.53584 1.133985,0 -0.374215,0.241838 -0.986567,0.428483 -1.360782,0.414766 -0.448629,-0.01642 -0.371375,-0.157723 0.226797,-0.414766 z M 8.6885176,95.037663 c -0.5642124,-0.719427 -0.5481687,-0.735471 0.1712566,-0.171259 0.4365842,0.342395 0.7937894,0.699601 0.7937894,0.793789 0,0.373326 -0.372485,0.133044 -0.965046,-0.62253 z m 20.0159904,0.62253 c 0,-0.09419 0.357206,-0.451394 0.79379,-0.793789 0.719425,-0.564212 0.735469,-0.548168 0.171257,0.171259 -0.592562,0.755574 -0.965047,0.995856 -0.965047,0.62253 z m -6.123518,-4.36468 c 0.451547,-0.498953 0.923053,-0.907188 1.047791,-0.907188 0.124738,0 -0.14265,0.408235 -0.594197,0.907188 -0.451546,0.498953 -0.923052,0.907188 -1.04779,0.907188 -0.124739,0 0.14265,-0.408235 0.594196,-0.907188 z M 5.4004577,90.143992 C 5.2448993,89.738615 5.1305626,89.168489 5.146376,88.877046 5.16219,88.585607 5.3706916,88.836036 5.6097143,89.433592 5.848737,90.031134 5.963074,90.60126 5.8637959,90.700539 5.7645179,90.799819 5.556016,90.549369 5.4004577,90.143992 Z m 26.9716293,0.47113 c 0.04723,-0.859206 0.803205,-2.306003 0.829534,-1.587578 0.01372,0.374214 -0.172931,0.986566 -0.414767,1.360781 -0.241837,0.374215 -0.428482,0.476274 -0.414767,0.226797 z m -17.998884,-1.247383 -0.864091,-1.020586 1.020586,0.864092 c 0.9591,0.812032 1.227081,1.17708 0.864091,1.17708 -0.08607,0 -0.545336,-0.459264 -1.020586,-1.020586 z M 4.752458,86.986371 c 0.00924,-0.74843 0.110903,-0.999694 0.2259088,-0.558361 0.1150057,0.441334 0.1074424,1.053685 -0.016807,1.360782 C 4.83731,88.095889 4.7432143,87.734802 4.752458,86.986371 Z m 28.576417,0 c 0.0092,-0.74843 0.110903,-0.999694 0.225909,-0.558361 0.115006,0.441334 0.107443,1.053685 -0.0168,1.360782 -0.124252,0.307097 -0.218348,-0.05399 -0.209104,-0.802421 z M 4.752458,82.904026 c 0.00924,-0.74843 0.110903,-0.999694 0.2259088,-0.558361 0.1150057,0.441333 0.1074424,1.053685 -0.016807,1.360782 C 4.83731,84.013543 4.7432143,83.652457 4.752458,82.904026 Z m 28.576417,0 c 0.0092,-0.74843 0.110903,-0.999694 0.225909,-0.558361 0.115006,0.441333 0.107443,1.053685 -0.0168,1.360782 -0.124252,0.307096 -0.218348,-0.05399 -0.209104,-0.802421 z M 5.1564511,80.862853 c -0.013714,-0.374215 0.1729309,-0.986567 0.4147672,-1.360782 0.5358404,-0.829156 0.5358404,-0.112986 0,1.133985 -0.2570436,0.598172 -0.3983257,0.675428 -0.4147672,0.226797 z M 14.4163,80.409259 c 0.451546,-0.498953 0.923052,-0.907188 1.04779,-0.907188 0.124739,0 -0.14265,0.408235 -0.594196,0.907188 -0.451547,0.498953 -0.923053,0.907188 -1.047791,0.907188 -0.124738,0 0.14265,-0.408235 0.594197,-0.907188 z m 9.028781,-0.113399 -0.864091,-1.020586 1.020587,0.864092 c 0.959099,0.812033 1.227081,1.177081 0.864091,1.177081 -0.08607,0 -0.545337,-0.459264 -1.020587,-1.020587 z m 9.377583,0.717491 c -0.0197,-0.291443 -0.153281,-0.903795 -0.296856,-1.360782 -0.248139,-0.789807 -0.235338,-0.790796 0.2589,-0.02 0.28597,0.445983 0.419555,1.058335 0.296856,1.360782 -0.161016,0.39689 -0.233054,0.402461 -0.2589,0.02 z M 16.826018,70.573932 c 0.327438,-0.13103 0.718662,-0.114918 0.869388,0.03579 0.150725,0.150725 -0.117179,0.257932 -0.595342,0.238237 -0.528411,-0.02177 -0.635893,-0.129247 -0.274046,-0.274043 z m 4.082345,0 c 0.327438,-0.13103 0.718663,-0.114918 0.869388,0.03579 0.150726,0.150725 -0.117178,0.257932 -0.595342,0.238237 -0.528411,-0.02177 -0.635893,-0.129247 -0.274046,-0.274043 z M 6.932,56.197522 c 0,-0.09419 0.3572053,-0.451394 0.7937894,-0.793789 0.7194254,-0.564212 0.735469,-0.548169 0.1712567,0.171258 C 7.304485,56.330566 6.932,56.570848 6.932,56.197522 Z m 22.168244,-0.622531 c -0.564212,-0.719427 -0.548168,-0.73547 0.171257,-0.171258 0.436584,0.342395 0.793789,0.6996 0.793789,0.793789 0,0.373326 -0.372485,0.133044 -0.965046,-0.622531 z M 13.629899,38.322223 c -0.142026,-0.543107 0.04236,-0.80999 0.559604,-0.80999 0.517247,0 0.70163,0.266883 0.559604,0.80999 -0.116499,0.445494 -0.368321,0.809989 -0.559604,0.809989 -0.191283,0 -0.443105,-0.364495 -0.559604,-0.809989 z m 14.563157,0.0162 c -0.564212,-0.719425 -0.548168,-0.735469 0.171257,-0.171256 0.436584,0.342392 0.793789,0.699597 0.793789,0.793789 0,0.373323 -0.372485,0.13304 -0.965046,-0.622533 z m 51.661557,-0.0162 c -0.142025,-0.543107 0.04237,-0.809989 0.559603,-0.809989 0.517247,0 0.701628,0.266882 0.559603,0.809989 -0.116496,0.445493 -0.368318,0.809988 -0.559603,0.809988 -0.191285,0 -0.443107,-0.364495 -0.559603,-0.809989 z m 14.563154,0.0162 c -0.564212,-0.719425 -0.548168,-0.735469 0.171259,-0.171256 0.436584,0.342392 0.79379,0.699597 0.79379,0.793789 0,0.373323 -0.372487,0.13304 -0.965049,-0.622533 z M 21.673803,34.142678 c 0.451546,-0.498953 0.923052,-0.907187 1.04779,-0.907187 0.124739,0 -0.14265,0.408234 -0.594196,0.907187 -0.451547,0.498954 -0.923053,0.907188 -1.047791,0.907188 -0.124738,0 0.14265,-0.408234 0.594197,-0.907188 z m 59.58974,0.113399 c -0.564211,-0.719425 -0.548168,-0.735469 0.171259,-0.171257 0.755574,0.592561 0.995857,0.965046 0.622531,0.965046 -0.09419,0 -0.451394,-0.357205 -0.79379,-0.793789 z m 2.745092,-2.721564 -1.099652,-1.247383 1.213803,1.068109 c 0.714678,0.628892 1.442955,0.926486 1.771062,0.723705 0.357242,-0.220788 0.441089,-0.156442 0.233606,0.179275 -0.488235,0.789982 -0.911996,0.645241 -2.118819,-0.723706 z M 46.288661,29.250344 c -0.142025,-0.543107 0.04236,-0.809989 0.559605,-0.809989 0.517246,0 0.701628,0.266882 0.559603,0.809989 -0.116497,0.445494 -0.368318,0.809989 -0.559603,0.809989 -0.191286,0 -0.443107,-0.364495 -0.559605,-0.809989 z m 14.563156,0.0162 c -0.564212,-0.719426 -0.548168,-0.735469 0.171259,-0.171257 0.755574,0.592561 0.995856,0.965046 0.62253,0.965046 -0.09419,0 -0.451394,-0.357205 -0.793789,-0.793789 z"
         id="path7394" />
      <path
         style="fill:#a3a3a3;fill-opacity:1;stroke-width:0.453594"
         d="M 17.36466,99.15626 C 15.498271,98.828325 11.783642,97.548578 11.141846,97.012402 10.367629,96.365596 7.7586378,93.756605 7.1118328,92.982388 6.1444285,91.824417 4.9678292,87.41372 4.9678292,84.945198 c 0,-5.526058 3.1754118,-10.54394 8.2406548,-13.022133 3.520557,-1.72245 8.424579,-1.720477 11.950931,0.0048 5.11045,2.500309 8.230828,7.435288 8.230828,13.017324 0,2.468522 -1.176599,6.879219 -2.144004,8.03719 -0.646805,0.774217 -3.255796,3.383208 -4.030013,4.030014 -1.483167,1.239083 -7.521854,2.553194 -9.851566,2.143858 z m 0.453594,-6.228362 c 0,-1.281598 -0.268069,-1.700941 -1.583468,-2.477045 -4.392609,-2.591704 -4.456116,-8.30848 -0.121655,-10.951231 3.936774,-2.400283 9.428856,0.779832 9.404563,5.445576 -0.01685,3.23647 -2.962652,7.334179 -6.27565,8.729647 l -1.196993,0.504187 1.11405,0.189616 c 1.719754,0.292709 4.400495,-0.696457 6.222179,-2.295915 5.339278,-4.687948 3.913422,-13.197533 -2.672322,-15.948553 -4.604929,-1.923588 -10.028251,0.284557 -12.195442,4.96547 -2.1611941,4.667958 1.21e-4,10.294182 4.809972,12.52107 2.420019,1.120431 2.494766,1.099974 2.494766,-0.682822 z m 80.77553,-25.483864 c 0.02177,-0.528414 0.129247,-0.635893 0.274044,-0.274048 0.131029,0.327436 0.114918,0.718661 -0.03579,0.86939 -0.150729,0.150725 -0.257932,-0.117181 -0.238237,-0.595342 z m 0,-2.721564 c 0.02177,-0.528414 0.129247,-0.635893 0.274044,-0.274047 0.131029,0.327435 0.114918,0.71866 -0.03579,0.86939 -0.150729,0.150724 -0.257932,-0.117182 -0.238237,-0.595343 z"
         id="path7392" />
      <path
         style="fill:#8c8c8c;fill-opacity:1;stroke-width:0.453594"
         d="m 77.469067,79.053671 c -0.158912,-0.257124 0.02318,-0.333165 0.426823,-0.178267 0.785815,0.301545 0.929591,0.626667 0.277128,0.626667 -0.234753,0 -0.551534,-0.201781 -0.703951,-0.4484 z m 15.645779,-1.544243 c 0,-0.09805 0.316776,-0.299825 0.703951,-0.4484 0.403662,-0.154898 0.585734,-0.07886 0.426822,0.178267 -0.266377,0.43101 -1.130773,0.637504 -1.130773,0.270133 z M 7.8530797,76.100117 c 0,-0.249477 0.1978658,-0.75977 0.4397021,-1.133985 0.2418363,-0.374215 0.4397022,-0.476274 0.4397022,-0.226797 0,0.249476 -0.1978659,0.75977 -0.4397022,1.133985 -0.2418363,0.374215 -0.4397021,0.476273 -0.4397021,0.226797 z M 8.2927818,57.558304 c 0,-0.09419 0.3572052,-0.451394 0.7937894,-0.79379 0.7194254,-0.564212 0.735469,-0.548168 0.1712566,0.171259 -0.592561,0.755574 -0.965046,0.995857 -0.965046,0.622531 z M 27.739462,56.935773 c -0.564212,-0.719427 -0.548168,-0.735471 0.171257,-0.171259 0.436584,0.342396 0.793789,0.699601 0.793789,0.79379 0,0.373326 -0.372485,0.133043 -0.965046,-0.622531 z m 35.891779,-1.954545 c 0,-0.2642 0.204117,-0.354212 0.453594,-0.200026 0.249476,0.154186 0.453594,0.37035 0.453594,0.480365 0,0.110015 -0.204118,0.200026 -0.453594,0.200026 -0.249477,0 -0.453594,-0.216165 -0.453594,-0.480365 z"
         id="path7390" />
      <path
         style="fill:#606060;fill-opacity:1;stroke-width:0.453594"
         d="m 65.10641,57.049172 c 0.005,-0.997907 0.09793,-1.352731 0.206421,-0.788501 0.108496,0.56423 0.104377,1.380699 -0.0092,1.814376 -0.11353,0.433677 -0.202303,-0.02799 -0.197268,-1.025875 z"
         id="path7388" />
      <path
         style="fill:#494949;fill-opacity:1;stroke-width:0.453594"
         d="m 17.024465,54.671636 c 1.683967,-0.08728 4.43955,-0.08728 6.123518,0 1.683967,0.08728 0.306176,0.158681 -3.061759,0.158681 -3.367935,0 -4.745727,-0.0714 -3.061759,-0.158681 z m 66.243578,-4.3e-4 c 1.694341,-0.08751 4.347866,-0.08686 5.896721,0.0014 1.548851,0.08831 0.162573,0.159906 -3.080624,0.159112 -3.243196,-9.07e-4 -4.510443,-0.07304 -2.816097,-0.160554 z M 8.8348034,53.42042 c 0.00924,-0.74843 0.1109028,-0.999693 0.2259088,-0.55836 0.1150056,0.441333 0.1074424,1.053685 -0.016806,1.360782 C 8.919655,54.529938 8.8255592,54.16885 8.8348034,53.42042 Z m 66.2247136,0 c 0.0093,-0.74843 0.110904,-0.999693 0.225908,-0.55836 0.115004,0.441333 0.107443,1.053685 -0.01683,1.360782 -0.124253,0.307096 -0.218347,-0.05399 -0.209103,-0.802422 z m 18.580541,0.226797 c 0,-0.623691 0.102957,-0.878838 0.228788,-0.566992 0.125832,0.311846 0.125832,0.822139 0,1.133985 -0.125831,0.311846 -0.228788,0.0567 -0.228788,-0.566993 z M 27.379537,53.382622 c 0.02176,-0.528414 0.129247,-0.635893 0.274046,-0.274048 0.13103,0.327436 0.114915,0.718661 -0.03581,0.86939 -0.150726,0.150725 -0.257932,-0.117181 -0.238237,-0.595342 z m 0.304385,-1.396593 c 0.311846,-0.125831 0.822139,-0.125831 1.133985,0 0.311846,0.125832 0.0567,0.228789 -0.566992,0.228789 -0.623692,0 -0.878839,-0.102957 -0.566993,-0.228789 z m 66.224713,0 c 0.311846,-0.125831 0.822139,-0.125831 1.133985,0 0.311846,0.125832 0.0567,0.228789 -0.566992,0.228789 -0.623692,0 -0.878838,-0.102957 -0.566993,-0.228789 z M 29.784862,46.162918 c 9.07e-4,-2.99372 0.07431,-4.159396 0.163135,-2.59039 0.08883,1.569005 0.08809,4.018412 -0.0016,5.443128 -0.08972,1.424711 -0.162399,0.140981 -0.161502,-2.852738 z m 66.224712,0 c 9.07e-4,-2.99372 0.07431,-4.159396 0.163135,-2.59039 0.08883,1.569005 0.0881,4.018412 -0.0018,5.443128 -0.08973,1.424711 -0.1624,0.140981 -0.161506,-2.852738 z m -83.294251,3.101548 c 0.311845,-0.125832 0.822139,-0.125832 1.133984,0 0.311846,0.125831 0.0567,0.228788 -0.566992,0.228788 -0.623692,0 -0.878838,-0.102957 -0.566992,-0.228788 z m 66.224713,0 c 0.311846,-0.125832 0.822139,-0.125832 1.133985,0 0.311845,0.125831 0.0567,0.228788 -0.566993,0.228788 -0.623691,0 -0.878838,-0.102957 -0.566992,-0.228788 z m -68.20961,-4.915924 c 0.001,-2.744243 0.07573,-3.808406 0.16602,-2.364806 0.09029,1.4436 0.08945,3.68889 -0.0019,4.989532 -0.09131,1.300644 -0.165184,0.119517 -0.164161,-2.624726 z m 14.991086,4.15565 c -0.128128,-0.333899 -0.170711,-2.221982 -0.09463,-4.195744 l 0.138331,-3.588658 0.222264,4.196786 c 0.221094,4.174694 0.178709,4.746422 -0.265965,3.587616 z m 51.233629,-4.15565 c 9.07e-4,-2.744243 0.07573,-3.808406 0.166019,-2.364806 0.09029,1.4436 0.08945,3.68889 -0.0018,4.989532 -0.09131,1.300644 -0.165185,0.119517 -0.16416,-2.624726 z m 14.991084,4.15565 c -0.128127,-0.333899 -0.17071,-2.221982 -0.09463,-4.195744 l 0.138332,-3.588658 0.222262,4.196786 c 0.221095,4.174694 0.178711,4.746422 -0.265964,3.587616 z M 27.038975,45.25573 c 0.002,-1.746337 0.084,-2.405165 0.18219,-1.464064 0.09819,0.941103 0.09655,2.369923 -0.0037,3.175156 -0.100189,0.805238 -0.180528,0.03524 -0.178516,-1.711092 z m 66.224713,0 c 0.0018,-1.746337 0.084,-2.405165 0.182191,-1.464064 0.09819,0.941103 0.09654,2.369923 -0.0036,3.175156 -0.100203,0.805238 -0.180544,0.03524 -0.17853,-1.711092 z m -43.789481,0.34409 c 1.569004,-0.08883 4.018411,-0.08809 5.443127,0.0016 1.424711,0.08972 0.140982,0.162401 -2.852738,0.161504 -2.99372,-9.07e-4 -4.159398,-0.07431 -2.590389,-0.163135 z m 10.5999,-1.024481 c 0,-0.623692 0.102957,-0.878838 0.228789,-0.566993 0.125831,0.311846 0.125831,0.822139 0,1.133985 -0.125832,0.311846 -0.228789,0.0567 -0.228789,-0.566992 z M 41.476759,44.121745 c 0,-0.623692 0.102953,-0.878838 0.228786,-0.566993 0.125832,0.311846 0.125832,0.822139 0,1.133985 -0.125833,0.311846 -0.228786,0.0567 -0.228786,-0.566992 z M 60.342685,42.91415 c 0.311846,-0.125832 0.822139,-0.125832 1.133985,0 0.311845,0.125833 0.0567,0.228787 -0.566993,0.228787 -0.623691,0 -0.878838,-0.102954 -0.566992,-0.228787 z m 2.100938,-5.823111 c 9.07e-4,-2.99372 0.07431,-4.159396 0.163135,-2.59039 0.08883,1.569006 0.0881,4.018413 -0.0018,5.443127 -0.08954,1.424714 -0.162215,0.140983 -0.161321,-2.852737 z m -17.069538,3.101548 c 0.311846,-0.125833 0.822139,-0.125833 1.133985,0 0.311846,0.125833 0.0567,0.228786 -0.566992,0.228786 -0.623692,0 -0.878839,-0.102953 -0.566993,-0.228786 z m -1.984896,-4.915924 c 10e-4,-2.744243 0.07573,-3.808406 0.16602,-2.364806 0.09029,1.4436 0.08945,3.68889 -0.0019,4.989533 -0.09131,1.300644 -0.165184,0.119517 -0.16416,-2.624727 z m 14.991085,4.15565 c -0.128126,-0.333896 -0.17071,-2.221981 -0.09463,-4.195743 l 0.138333,-3.588658 0.222261,4.196785 c 0.221095,4.174695 0.178711,4.746421 -0.265964,3.587616 z m 1.317464,-3.248462 c 0.0018,-1.746336 0.084,-2.405165 0.18219,-1.464063 0.09819,0.941102 0.09654,2.369923 -0.0036,3.175157 -0.100236,0.805235 -0.180576,0.03524 -0.178562,-1.711094 z m -47.881234,1.511171 c 0.263584,-0.263584 0.746987,-0.389997 1.074228,-0.280917 0.339717,0.113239 0.134106,0.31885 -0.479245,0.479245 -0.754483,0.197302 -0.931581,0.13827 -0.594983,-0.198328 z m 66.224713,0 c 0.263583,-0.263584 0.746987,-0.389997 1.074228,-0.280917 0.339719,0.113239 0.134105,0.31885 -0.479245,0.479245 -0.754485,0.197302 -0.931582,0.13827 -0.594983,-0.198328 z M 15.465236,37.461574 c 0.327438,-0.131031 0.718663,-0.114916 0.869388,0.03581 0.150725,0.150725 -0.117178,0.257932 -0.595342,0.238236 -0.528411,-0.02176 -0.635893,-0.129247 -0.274046,-0.274046 z m 6.333955,-0.02285 c 1.06687,-0.09582 2.699808,-0.09447 3.628751,0.003 0.928943,0.09747 0.05605,0.175866 -1.939764,0.174218 -1.995813,-0.0016 -2.755857,-0.08139 -1.688987,-0.177213 z m 59.862408,0.0323 c 0.311846,-0.125832 0.822139,-0.125832 1.133985,0 0.311846,0.125833 0.0567,0.228787 -0.566992,0.228787 -0.623692,0 -0.878838,-0.102954 -0.566993,-0.228787 z m 6.793794,-0.02697 c 0.805234,-0.100204 2.234054,-0.101851 3.175158,-0.0037 0.941098,0.09819 0.282271,0.180177 -1.464066,0.18219 -1.746336,0.002 -2.51633,-0.07833 -1.711092,-0.178531 z M 13.197266,34.286416 c 0.327438,-0.13103 0.718663,-0.114915 0.869389,0.03581 0.150725,0.150726 -0.117179,0.257932 -0.595342,0.238237 -0.528411,-0.02176 -0.635894,-0.129248 -0.274047,-0.274047 z m 76.657374,0 c 0.327435,-0.13103 0.71866,-0.114915 0.869389,0.03581 0.150725,0.150726 -0.117181,0.257932 -0.595342,0.238237 C 89.600273,34.5387 89.492794,34.431216 89.85464,34.286416 Z M 7.4989924,33.81225 c 0.9355375,-0.09786 2.466417,-0.09786 3.4019546,0 0.935537,0.09786 0.170098,0.177927 -1.7009773,0.177927 -1.871075,0 -2.6365147,-0.08007 -1.7009773,-0.177927 z m 85.2756586,0 c 0.935537,-0.09786 2.466416,-0.09786 3.401954,0 0.935537,0.09786 0.170098,0.177927 -1.700977,0.177927 -1.871075,0 -2.636515,-0.08007 -1.700977,-0.177927 z M 1.6022714,33.37641 c 0.4365842,-0.114091 1.1509946,-0.114091 1.5875787,0 0.4365842,0.114092 0.079379,0.207439 -0.7937893,0.207439 -0.8731683,0 -1.2303735,-0.09335 -0.7937894,-0.207439 z M 12.034932,30.654847 c 0.436584,-0.114091 1.150994,-0.114091 1.587578,0 0.436585,0.114091 0.07938,0.207439 -0.793789,0.207439 -0.873168,0 -1.230373,-0.09335 -0.793789,-0.207439 z m 78.018155,0 c 0.436584,-0.114091 1.150995,-0.114091 1.587579,0 0.436584,0.114091 0.07938,0.207439 -0.79379,0.207439 -0.873168,0 -1.230373,-0.09335 -0.793789,-0.207439 z M 3.2050554,30.178991 c 1.3181154,-0.09192 3.3592882,-0.09095 4.5359394,0.0021 1.1766512,0.0931 0.098193,0.168303 -2.3965735,0.167121 -2.4947666,-0.0012 -3.4574812,-0.07735 -2.1393659,-0.169269 z m 92.0724856,0.0062 c 0.815267,-0.100953 2.039971,-0.09887 2.721564,0.0046 0.681592,0.103498 0.01456,0.186096 -1.482305,0.18355 -1.49686,-0.0025 -2.054526,-0.08723 -1.239259,-0.188179 z M 44.475266,28.623143 c 0.263585,-0.263584 0.746987,-0.389997 1.074229,-0.280916 0.339717,0.113239 0.134106,0.31885 -0.479246,0.479245 -0.754483,0.197301 -0.93158,0.138269 -0.594983,-0.198329 z m 4.500092,-0.247494 c 0.625261,-0.116253 1.065755,-0.596576 1.189242,-1.296764 0.170837,-0.968702 0.189003,-0.950535 0.140872,0.140876 -0.04441,1.006594 -0.278248,1.261601 -1.189237,1.296763 -0.929663,0.03588 -0.955046,0.0105 -0.140877,-0.140875 z m 4.851015,-0.329993 c -0.138006,-0.359642 -0.155279,-1.023023 -0.03837,-1.47418 0.141457,-0.545949 0.230135,-0.410349 0.265157,0.405454 0.05053,1.177272 0.164714,1.232107 2.887579,1.386782 l 2.834962,0.161043 -2.849196,0.0874 c -2.123019,0.06512 -2.913152,-0.07926 -3.100124,-0.566497 z M 40.838146,25.223987 c 0.311846,-0.125832 0.822139,-0.125832 1.133985,0 0.311846,0.125833 0.0567,0.228787 -0.566993,0.228787 -0.623691,0 -0.878838,-0.102954 -0.566992,-0.228787 z m 19.079295,-0.0094 c 0.327435,-0.13103 0.71866,-0.114915 0.869389,0.03581 0.150725,0.150726 -0.117181,0.257932 -0.595342,0.238237 -0.528414,-0.02176 -0.635893,-0.129248 -0.274047,-0.274047 z M 44.2401,24.740371 c 0.935538,-0.09786 2.466417,-0.09786 3.401955,0 0.935537,0.09786 0.170098,0.177928 -1.700977,0.177928 -1.871075,0 -2.636515,-0.08007 -1.700978,-0.177928 z m 11.799679,0.0049 c 0.68949,-0.104261 1.710077,-0.101474 2.26797,0.0062 0.557893,0.107666 -0.0063,0.19297 -1.25362,0.189565 -1.247383,-0.0034 -1.70384,-0.0915 -1.01435,-0.195756 z M 39.02377,22.04883 c 0.311846,-0.125833 0.822139,-0.125833 1.133985,0 0.311846,0.125833 0.0567,0.228786 -0.566992,0.228786 -0.623692,0 -0.878839,-0.102953 -0.566993,-0.228786 z m 4.325705,-0.488882 c 1.4436,-0.09029 3.688887,-0.08945 4.989531,0.0019 1.300645,0.09131 0.119518,0.165183 -2.624725,0.16416 -2.744244,-0.001 -3.808406,-0.07573 -2.364806,-0.16602 z m 12.003677,0.0036 c 1.060275,-0.0955 2.795272,-0.0955 3.855548,0 1.060276,0.0955 0.192777,0.173632 -1.927774,0.173632 -2.120552,0 -2.98805,-0.07813 -1.927774,-0.173632 z"
         id="path7386" />
      <path
         style="fill:#333333;fill-opacity:1;stroke-width:0.453594"
         d="m 82.61445,80.643921 c -0.11778,-0.117785 -0.712047,-0.305654 -1.320588,-0.417497 -0.608542,-0.111838 -1.157472,-0.244029 -1.219841,-0.293752 -0.06237,-0.04972 -0.266487,-0.130485 -0.453594,-0.179473 -3.030398,-0.79339 -7.412963,-5.162557 -8.575334,-8.549112 -1.004516,-2.926642 -0.99093,-7.536254 0.03035,-10.289728 0.414417,-1.117342 1.562536,-2.991021 2.551375,-4.163725 1.091102,-1.293981 1.797888,-2.597669 1.797888,-3.316261 0,-0.651243 0.408235,-1.984283 0.907188,-2.962313 0.730032,-1.430976 0.907188,-2.673378 0.907188,-6.362065 -1.8e-5,-4.94879 0.412076,-6.338565 1.879489,-6.338565 0.773895,0 0.890545,0.198643 0.658822,1.121901 -0.2208,0.879751 -0.133511,1.065083 0.40442,0.858659 0.377304,-0.144784 0.686002,-0.64964 0.686002,-1.121902 0,-0.613506 0.323757,-0.858658 1.133985,-0.858658 1.547916,0 1.498007,-1.398276 -0.113399,-3.176862 C 80.945112,33.553412 78.159596,32.212324 70.462266,29.093447 59.12308,24.498929 55.913499,23.767634 54.409518,25.435862 c -0.456628,0.5065 -0.762804,1.397005 -0.680391,1.9789 0.133774,0.944491 0.417488,1.070607 2.644616,1.175577 5.49231,0.258867 5.896721,0.855874 5.896721,8.704971 v 5.465653 h -1.133985 c -1.020586,0 -1.133985,0.181438 -1.133985,1.814376 0,1.239131 0.198203,1.814375 0.625153,1.814375 0.824334,0 4.097754,4.773641 3.706987,5.405915 -0.166832,0.269943 -0.06533,0.490807 0.225559,0.490807 0.290889,0 0.411405,0.306175 0.267801,0.68039 -0.143598,0.374215 -0.08273,0.680391 0.135258,0.680391 0.217988,0 0.326211,1.275733 0.240491,2.834962 -0.129873,2.362449 -0.09563,2.532556 0.205441,1.020587 0.328738,-1.650865 0.367098,-1.690114 0.425662,-0.435496 0.204172,4.373716 -2.829632,10.237601 -6.61173,12.779483 -2.051052,1.378476 -6.451811,2.851409 -8.519297,2.851409 -2.067486,0 -6.468245,-1.472933 -8.519296,-2.851409 -4.587981,-3.0835 -7.323749,-9.492342 -6.283431,-14.71964 0.607422,-3.05212 2.411846,-6.751061 3.205763,-6.571587 0.303239,0.06855 0.429398,-0.07268 0.280352,-0.313837 -0.149045,-0.241163 0.346076,-1.069725 1.10027,-1.841255 0.754193,-0.771529 1.37126,-1.812108 1.37126,-2.312398 0,-0.500291 0.408235,-1.709825 0.907188,-2.687855 0.73003,-1.430977 0.907188,-2.673376 0.907188,-6.362064 0,-4.94879 0.412096,-6.338566 1.879508,-6.338566 0.773895,0 0.890545,0.198643 0.658823,1.121901 -0.220803,0.879751 -0.133514,1.065084 0.404419,0.858659 0.377304,-0.144783 0.686001,-0.636706 0.686001,-1.093162 0,-0.604767 0.399939,-0.868481 1.474181,-0.972057 1.147193,-0.110611 1.507419,-0.376809 1.624029,-1.20013 0.08241,-0.581895 -0.223762,-1.47356 -0.680391,-1.981477 -0.746352,-0.830175 -1.219813,-0.900686 -4.685788,-0.69784 -3.624774,0.212139 -4.398547,0.461518 -12.927427,4.166365 -9.331341,4.053427 -12.020239,5.833113 -12.020239,7.955771 0,0.833942 0.29422,0.913849 3.364856,0.913849 1.850671,0 3.695276,0.126794 4.099122,0.281764 1.553523,0.596143 2.061494,2.644788 2.061494,8.313995 v 5.465653 h -1.133984 c -1.73693,0 -1.444509,1.602842 0.721029,3.952173 4.503557,4.885782 5.516415,10.995402 2.7533,16.608083 -0.819502,1.664644 -1.659492,3.026628 -1.866644,3.026628 -0.832303,0 -0.880671,-1.514097 -0.08463,-2.649343 1.382986,-1.972312 1.991166,-4.515917 1.79039,-7.487992 -0.234955,-3.478017 -1.320432,-5.773416 -4.047016,-8.557988 L 25.619333,54.554405 H 19.682029 13.744725 L 13.9469,51.803943 c 0.192968,-2.62522 0.156713,-2.743985 -0.796191,-2.608165 -0.836515,0.119227 -1.077688,0.587032 -1.487656,2.885615 -0.415749,2.330992 -0.792433,3.046836 -2.5062088,4.762736 -2.608517,2.611749 -3.717049,4.97945 -3.9507067,8.438262 -0.209395,3.099657 0.3936114,5.423559 2.0633523,7.951865 0.8028245,1.215631 0.9869142,1.87743 0.6765195,2.432075 C 7.5731746,76.332547 7.3950382,76.253422 6.5287178,75.036788 2.2068451,68.96728 2.6116317,61.510159 7.5603025,56.032572 c 0.9018168,-0.998206 1.6396672,-2.257573 1.6396672,-2.798597 0,-0.541024 0.4082345,-1.783885 0.9071883,-2.761915 0.730029,-1.430976 0.907187,-2.673378 0.907187,-6.362065 0,-4.94879 0.412096,-6.338565 1.879509,-6.338565 0.773894,0 0.890545,0.198643 0.658822,1.121901 -0.220803,0.879751 -0.133514,1.065083 0.404421,0.858659 0.3773,-0.144784 0.686,-0.64964 0.686,-1.121902 0,-0.556262 0.319486,-0.858658 0.907188,-0.858658 2.081539,0 0.306978,-2.938748 -2.171178,-3.595563 C 12.452703,33.930331 10.061798,33.691629 8.0659849,33.645418 6.0701716,33.599208 3.6717937,33.461194 2.7362562,33.33872 1.1972782,33.137249 1.035279,32.986174 1.035279,31.752443 v -1.3636 l 6.467349,0.21956 c 5.165919,0.175378 6.884365,0.404026 8.539675,1.136248 l 2.072326,0.916689 0.954703,-0.991933 c 0.525086,-0.545563 5.306187,-2.916816 10.624668,-5.26945 l 9.669966,-4.277518 5.896721,0.04476 c 3.243196,0.02462 6.304955,0.04802 6.803909,0.05201 0.498953,0.004 2.94836,-0.01615 5.443127,-0.04476 l 4.535939,-0.05201 9.298676,3.789615 c 10.464584,4.264772 11.631536,4.806946 12.965147,6.023684 0.929228,0.847798 0.980203,0.846486 3.072655,-0.07911 1.502289,-0.664534 3.52457,-1.020306 6.879591,-1.210298 l 4.751836,-0.269094 v 1.380595 c 0,1.678755 -0.550935,1.930449 -4.232843,1.933778 -3.585007,0.0032 -5.990688,0.679525 -6.866836,1.930402 -1.266806,1.808623 -0.915221,2.149414 2.217498,2.149414 1.601196,0 3.241682,0.126794 3.64553,0.281764 1.553523,0.596143 2.061494,2.644788 2.061494,8.313995 v 5.465653 h -1.133985 c -0.995648,0 -1.133985,0.195539 -1.133985,1.602864 0,1.191338 0.357786,1.952613 1.393536,2.965094 3.739528,3.655504 4.840808,10.54844 2.501647,15.65784 -1.216271,2.656691 -4.331627,6.034954 -6.689889,7.254455 -0.702975,0.363524 -1.382332,0.656817 -1.509683,0.65176 -0.127351,-0.005 -0.28258,0.0064 -0.344949,0.02554 -1.659333,0.50783 -6.000372,0.957832 -6.304652,0.653552 z m 7.098442,-2.662682 c 2.365687,-1.10398 5.038707,-3.710648 6.436325,-6.276565 0.615631,-1.130248 0.818152,-2.510203 0.819454,-5.583624 0.0014,-3.642713 -0.131248,-4.302161 -1.233009,-6.123518 -0.679107,-1.122645 -1.957585,-2.806612 -2.841068,-3.74215 L 91.28826,54.554405 h -5.65941 -5.65941 l 0.202171,-2.750462 c 0.193082,-2.626717 0.157171,-2.744062 -0.798193,-2.608165 -0.845146,0.120216 -1.070759,0.57063 -1.453969,2.902661 -0.384103,2.337483 -0.777274,3.119642 -2.56642,5.105562 -4.69023,5.206057 -4.793504,12.415878 -0.251759,17.575572 3.691017,4.193217 9.676442,5.50473 14.611622,3.201666 z M 55.513229,70.005034 c 3.244812,-1.214039 6.450569,-4.37255 7.625663,-7.513275 0.922651,-2.466004 1.287531,-6.644167 0.712981,-8.164151 -1.51494,-4.007788 -2.43286,-5.366837 -5.131571,-7.597698 -1.45957,-1.20654 -1.685927,-1.247383 -6.912899,-1.247383 h -5.403914 l 0.202172,-2.750463 c 0.193081,-2.626716 0.15717,-2.74406 -0.798196,-2.608165 -0.845917,0.120327 -1.066549,0.562502 -1.428985,2.863861 -0.314671,1.998064 -0.714373,2.947476 -1.503545,3.571373 -5.033998,3.979732 -6.812275,10.036359 -4.646403,15.82517 1.040178,2.780127 3.944683,5.98294 6.463153,7.126954 0.934433,0.424464 1.614979,0.8559 1.512326,0.958743 -0.102654,0.102843 1.384724,0.251767 3.305281,0.330942 2.685222,0.1107 4.072244,-0.07317 6.003937,-0.795908 z M 27.343727,45.397167 c 0,-2.686671 -0.545647,-4.45058 -1.376741,-4.45058 -0.486136,0 -0.61685,7.380686 -0.139174,7.858361 0.779676,0.779673 1.515915,-0.875391 1.515915,-3.407781 z m 66.224713,0 c 0,-2.686671 -0.545646,-4.45058 -1.376739,-4.45058 -0.48614,0 -0.616852,7.380686 -0.139177,7.858361 0.779679,0.779673 1.515916,-0.875391 1.515916,-3.407781 z m -79.378937,1.019317 c 0,-0.234753 -0.204117,-0.552975 -0.453594,-0.70716 -0.249477,-0.154186 -0.453594,0.03789 -0.453594,0.426824 0,0.388938 0.204117,0.70716 0.453594,0.70716 0.249477,0 0.453594,-0.19207 0.453594,-0.426824 z m 66.224713,0 c 0,-0.234753 -0.204117,-0.552975 -0.453594,-0.70716 -0.249477,-0.154186 -0.453594,0.03788 -0.453594,0.426824 0,0.388938 0.204117,0.70716 0.453594,0.70716 0.249477,0 0.453594,-0.19207 0.453594,-0.426824 z M 60.002489,36.325288 c 0,-2.68667 -0.545646,-4.450579 -1.376739,-4.450579 -0.486139,0 -0.616851,7.380683 -0.139176,7.858359 0.779678,0.779676 1.515915,-0.875391 1.515915,-3.40778 z m -13.154223,1.019318 c 0,-0.234754 -0.204118,-0.552976 -0.453594,-0.707161 -0.249477,-0.154185 -0.453594,0.03789 -0.453594,0.426824 0,0.388938 0.204117,0.707161 0.453594,0.707161 0.249476,0 0.453594,-0.192071 0.453594,-0.426824 z"
         id="path7384" />
    </g>
  </g>
</svg>
