<?xml version="1.0" encoding="UTF-8" standalone="no"?>
<!-- Created with Inkscape (http://www.inkscape.org/) -->

<svg
   width="100mm"
   height="100mm"
   viewBox="0 0 100 100"
   version="1.1"
   id="svg7650"
   inkscape:version="1.1.1 (3bf5ae0d25, 2021-09-20)"
   sodipodi:docname="add_list_type_device_7055.svg"
   xmlns:inkscape="http://www.inkscape.org/namespaces/inkscape"
   xmlns:sodipodi="http://sodipodi.sourceforge.net/DTD/sodipodi-0.dtd"
   xmlns="http://www.w3.org/2000/svg"
   xmlns:svg="http://www.w3.org/2000/svg">
  <sodipodi:namedview
     id="namedview7652"
     pagecolor="#505050"
     bordercolor="#ffffff"
     borderopacity="1"
     inkscape:pageshadow="0"
     inkscape:pageopacity="0"
     inkscape:pagecheckerboard="1"
     inkscape:document-units="mm"
     showgrid="false"
     inkscape:zoom="0.58974467"
     inkscape:cx="397.62971"
     inkscape:cy="300.12989"
     inkscape:window-width="1440"
     inkscape:window-height="890"
     inkscape:window-x="-6"
     inkscape:window-y="-6"
     inkscape:window-maximized="1"
     inkscape:current-layer="layer1" />
  <defs
     id="defs7647" />
  <g
     inkscape:label="Laag 1"
     inkscape:groupmode="layer"
     id="layer1">
    <g
       id="g7666"
       transform="translate(1.3459232,-3.5891239)">
      <path
         style="fill:#d0d0d0;fill-opacity:1;stroke-width:0.355612"
         d="m 56.858885,82.360542 c -0.115645,-0.548221 -0.250241,-8.549954 -0.299102,-17.781624 -0.06532,-12.341466 0.02013,-16.893814 0.322736,-17.19645 1.072109,-1.072173 1.195812,0.988494 1.103172,18.376669 -0.0679,12.74509 -0.201216,17.359826 -0.504418,17.460855 -0.226667,0.07552 -0.506743,-0.311228 -0.622388,-0.85945 z m 0.411802,-25.469571 c -0.05625,-4.53392 -0.102221,-0.722298 -0.102146,8.470269 7.1e-5,9.192566 0.04609,12.902135 0.102277,8.243488 0.05618,-4.658647 0.05612,-12.179838 -1.31e-4,-16.713757 z m 4.057168,25.00622 c 0,-0.488966 0.08072,-0.688998 0.179368,-0.444515 0.09865,0.244483 0.09865,0.644547 0,0.88903 -0.09865,0.244483 -0.179368,0.04445 -0.179368,-0.444515 z M 43.351356,75.644898 C 43.232635,75.335523 43.172544,69.134541 43.217813,61.864939 l 0.08231,-13.217457 0.190992,13.157639 0.190992,13.157639 0.08231,-16.624854 c 0.05397,-10.901037 -0.04012,-16.624855 -0.273302,-16.624855 -0.195586,0 -0.355612,-0.32005 -0.355612,-0.711223 0,-0.474148 0.237076,-0.711224 0.711224,-0.711224 0.701836,0 0.711224,0.237076 0.711224,17.958399 0,15.112934 -0.07849,17.958398 -0.495371,17.958398 -0.272456,0 -0.592506,-0.253124 -0.711224,-0.562503 z m 26.977508,0.189182 c -0.329659,-0.5334 -0.326046,-35.353825 0.0037,-35.887403 0.215085,-0.348012 0.339606,-0.33958 0.579648,0.03925 0.4256,0.671701 0.407915,36.221471 -0.01803,36.221471 -0.184043,0 -0.438451,-0.167994 -0.565352,-0.373321 z m 0.455073,-26.055346 c -0.05625,-4.53392 -0.10222,-0.722298 -0.102146,8.470269 7.2e-5,9.192566 0.04609,12.902135 0.102278,8.243488 0.05618,-4.658647 0.05612,-12.179838 -1.32e-4,-16.713757 z m 4.238097,25.83598 c -0.130392,-0.130389 -0.234625,-0.410433 -0.231631,-0.622321 0.0028,-0.211884 0.166063,-0.145207 0.362372,0.148173 0.308934,0.461701 0.42773,0.44061 0.883582,-0.156871 0.42715,-0.559861 0.526661,-0.583848 0.526661,-0.12695 0,0.309837 -0.253125,0.660474 -0.562504,0.779192 -0.696494,0.26727 -0.689844,0.267416 -0.97848,-0.02123 z M 74.593522,57.893391 c -7.5e-5,-9.192567 0.04589,-13.004189 0.102146,-8.470269 0.05625,4.533919 0.05631,12.05511 1.31e-4,16.713757 -0.05618,4.658647 -0.102206,0.949078 -0.102277,-8.243488 z M 29.177738,71.704544 c 0.244483,-0.09865 0.644546,-0.09865 0.88903,0 0.244483,0.09865 0.04445,0.179367 -0.444515,0.179367 -0.488966,0 -0.688998,-0.08072 -0.444515,-0.179367 z m 7.20114,-1.642756 C 35.918314,69.687749 35.870818,68.147213 36.031123,58.78242 l 0.185663,-10.846161 0.08105,10.863942 c 0.0588,7.88129 0.198204,10.981102 0.50778,11.290676 0.551455,0.551455 0.263978,0.531857 -0.426734,-0.02909 z m -2.489668,-11.563423 0.177421,-10.206494 0.09503,9.933611 c 0.05226,5.463486 -0.02757,10.056408 -0.177421,10.206494 -0.149847,0.150083 -0.192609,-4.32004 -0.09503,-9.933611 z m -3.555733,0.328507 c 0,-5.060801 -0.09541,-9.678507 -0.212023,-10.261568 -0.153592,-0.767961 -0.06105,-1.118044 0.335806,-1.270331 0.485321,-0.186237 0.551146,0.984586 0.576913,10.261568 0.01928,6.940551 -0.09396,10.471788 -0.335805,10.471788 -0.240046,0 -0.364891,-3.148225 -0.364891,-9.201457 z m 33.913006,2.978249 c 0.0011,-1.955865 0.06064,-2.710623 0.132704,-1.677236 0.07206,1.033387 0.07131,2.63364 -0.0018,3.556118 -0.07299,0.922479 -0.131946,0.07698 -0.131021,-1.878882 z M 77.353166,46.958326 c -0.07294,-6.490581 -0.132874,-7.077284 -0.790148,-7.734558 -0.922959,-0.922958 -0.941074,-2.133671 -0.03193,-2.133671 0.595027,0 0.708069,0.363958 0.911184,2.933798 0.127537,1.613589 0.177418,5.41419 0.110848,8.445782 l -0.121036,5.511983 -0.07892,-7.023334 z m -13.495321,1.511351 c 0,-0.88014 0.06935,-1.240197 0.154112,-0.800127 0.08476,0.44007 0.08476,1.160184 0,1.600253 -0.08476,0.44007 -0.154112,0.08001 -0.154112,-0.800126 z m -2.52999,-0.355612 c 0,-0.488967 0.08072,-0.688998 0.179368,-0.444515 0.09865,0.244483 0.09865,0.644546 0,0.889029 -0.09865,0.244484 -0.179368,0.04445 -0.179368,-0.444514 z M 49.725706,39.846089 c -0.268018,-0.826758 -0.385818,-3.450603 -0.143276,-3.19124 0.132408,0.141595 0.297419,1.017563 0.366685,1.946599 0.125314,1.680689 0.05141,2.092395 -0.223409,1.244641 z m -6.19334,-1.401459 c -0.02269,-0.917493 0.08533,-1.746402 0.240042,-1.842019 0.154712,-0.09562 0.2255,0.415023 0.157308,1.134753 -0.208353,2.199033 -0.354047,2.458363 -0.39735,0.707266 z m -0.106538,-9.844854 c -0.08649,-2.699289 -0.0097,-3.47208 0.331996,-3.340266 0.531846,0.20518 0.640994,6.852021 0.112519,6.852021 -0.182596,0 -0.382627,-1.58029 -0.444515,-3.511755 z m 5.577687,2.000405 c -0.134425,-0.919419 -0.01284,-2.27738 0.310417,-3.467216 l 0.531391,-1.955865 0.0234,3.467216 c 0.02404,3.560511 -0.467985,4.672749 -0.865211,1.955865 z m 21.643981,-1.866962 c 0.0011,-1.955866 0.06064,-2.710622 0.132704,-1.677236 0.07207,1.033386 0.07131,2.633639 -0.0018,3.556119 -0.07289,0.922479 -0.13185,0.07698 -0.130926,-1.878883 z m 5.428437,2.578186 c -0.117936,-0.44007 -0.216614,-1.461571 -0.219285,-2.270002 -0.0038,-1.151519 0.142661,-1.508451 0.676242,-1.647986 0.374602,-0.09796 0.752873,-0.556694 0.840603,-1.019407 0.08773,-0.462714 0.181298,0.638936 0.207933,2.448112 0.04419,3.001576 -0.01017,3.289409 -0.621321,3.289409 -0.393947,0 -0.758048,-0.329492 -0.884172,-0.800126 z m -6.143313,-3.28941 c -0.0011,-1.760279 0.05905,-2.525228 0.133629,-1.699886 0.07458,0.825341 0.07547,2.265569 0.0021,3.200506 -0.07366,0.934938 -0.134681,0.259659 -0.135762,-1.50062 z"
         id="path7682" />
      <path
         style="fill:#b9b9b9;fill-opacity:1;stroke-width:0.355612"
         d="m 21.39782,86.96466 c -0.442335,-0.564022 -0.429757,-0.5766 0.134263,-0.134265 0.342277,0.268434 0.622321,0.548478 0.622321,0.622321 0,0.292683 -0.292024,0.104304 -0.756584,-0.488056 z m 15.692282,0.488056 c 0,-0.07384 0.280044,-0.353887 0.622321,-0.622321 0.564021,-0.442335 0.576599,-0.429757 0.134264,0.134265 -0.46456,0.59236 -0.756585,0.780739 -0.756585,0.488056 z M 24.242715,84.475377 c -0.442335,-0.564022 -0.429757,-0.5766 0.134263,-0.134265 0.342276,0.268434 0.622321,0.548478 0.622321,0.622321 0,0.292683 -0.292024,0.104304 -0.756584,-0.488056 z m 8.046627,-0.444515 c 0.354006,-0.391173 0.723661,-0.711224 0.821454,-0.711224 0.09779,0 -0.111836,0.320051 -0.465842,0.711224 -0.354007,0.391173 -0.723662,0.711224 -0.821455,0.711224 -0.09779,0 0.111836,-0.320051 0.465843,-0.711224 z m -6.434801,-1.51135 -0.677436,-0.800127 0.800126,0.677437 c 0.44007,0.372589 0.800127,0.732646 0.800127,0.800127 0,0.284578 -0.286194,0.07448 -0.922817,-0.677437 z M 63.89916,78.518878 c 7.12e-4,-2.542624 0.05726,-3.536129 0.125873,-2.207784 0.06861,1.328342 0.0681,3.408671 -0.0011,4.622954 -0.06923,1.21428 -0.125364,0.127455 -0.124742,-2.41517 z m -45.628412,1.748426 c 0.01706,-0.41427 0.101328,-0.498532 0.214849,-0.21485 0.102726,0.256706 0.09009,0.563421 -0.02808,0.681591 -0.118167,0.118166 -0.202215,-0.09187 -0.186774,-0.466741 z m 22.403548,0 c 0.01707,-0.41427 0.101328,-0.498532 0.214846,-0.21485 0.102726,0.256706 0.09009,0.563421 -0.02806,0.681591 -0.11817,0.118166 -0.202216,-0.09187 -0.186775,-0.466741 z M 29.177738,67.792814 c 0.244483,-0.09865 0.644546,-0.09865 0.88903,0 0.244483,0.09865 0.04445,0.179367 -0.444515,0.179367 -0.488966,0 -0.688998,-0.08072 -0.444515,-0.179367 z M 72.206772,32.209895 c 0.635657,-0.07888 1.675821,-0.07888 2.311478,0 0.635656,0.07888 0.115573,0.143426 -1.155739,0.143426 -1.271312,0 -1.791395,-0.06454 -1.155739,-0.143426 z m 0.365011,-7.471441 c 0.836413,-0.07512 2.116616,-0.07406 2.844895,0.0023 0.728279,0.07641 0.04394,0.137876 -1.520749,0.136584 -1.564692,-0.0013 -2.160559,-0.06381 -1.324146,-0.138933 z"
         id="path7680" />
      <path
         style="fill:#a3a3a3;fill-opacity:1;stroke-width:0.355612"
         d="M 26.599552,89.955935 C 24.263493,89.181832 23.085695,88.438682 21.5438,86.765923 19.685895,84.750332 19.112561,83.627328 18.642074,81.082232 17.732605,76.162459 20.185928,71.45068 24.999299,68.87274 c 0.966446,-0.517611 1.999742,-0.666606 4.622954,-0.666606 2.623211,0 3.656508,0.148995 4.622954,0.666606 4.811592,2.576991 7.259261,7.276458 6.36292,12.216664 -0.928794,5.11909 -5.206471,8.895624 -10.430691,9.208712 -1.204242,0.07217 -2.783163,-0.07884 -3.577884,-0.342181 z m 7.232841,-4.640791 c 1.844102,-1.277963 3.257709,-3.99318 3.257709,-6.257318 0,-4.636638 -4.732605,-8.344411 -9.157006,-7.174078 -5.105399,1.350464 -7.288208,6.811581 -4.513351,11.291843 1.511699,2.440777 3.522082,3.437788 6.601594,3.273933 1.881421,-0.100105 2.647743,-0.328205 3.811054,-1.13438 z m -5.276976,-0.217446 c 0,-0.58676 -0.159564,-1.066836 -0.354587,-1.066836 -0.852412,0 -3.190392,-2.601692 -3.415294,-3.800523 -0.323965,-1.726884 0.379491,-3.799937 1.653101,-4.871609 3.877859,-3.263006 9.315577,0.575241 7.831683,5.528036 -0.652549,2.178016 -3.78981,5.277767 -5.341631,5.277767 -0.2053,0 -0.373272,-0.480076 -0.373272,-1.066835 z m 33.716449,-1.66537 c 0.256706,-0.102725 0.563421,-0.09009 0.681591,0.02806 0.118166,0.118166 -0.09187,0.202215 -0.466741,0.186774 -0.41427,-0.01707 -0.498532,-0.101328 -0.21485,-0.214846 z m 1.626163,-13.62594 c 0,-2.444832 0.05682,-3.44499 0.126257,-2.222574 0.06944,1.222415 0.06944,3.222732 0,4.445148 -0.06944,1.222416 -0.126257,0.222257 -0.126257,-2.222574 z M 36.836198,45.446976 c 0.0028,-0.977933 0.07173,-1.335789 0.153472,-0.795237 0.08174,0.540551 0.07955,1.340678 -0.0048,1.778059 -0.08441,0.437381 -0.151285,-0.0049 -0.148618,-0.982822 z m -4.991371,-6.122303 c 0.537863,-0.08148 1.418002,-0.08148 1.955865,0 0.537863,0.08148 0.09779,0.148144 -0.977932,0.148144 -1.075726,0 -1.515796,-0.06667 -0.977933,-0.148144 z m 4.470772,-0.02176 c 0.348691,-0.245202 0.440555,-1.21259 0.355612,-3.744831 -0.06299,-1.877823 0.01183,-3.287134 0.166282,-3.131803 0.154442,0.155332 0.234455,1.775372 0.177806,3.600089 -0.0803,2.586377 -0.220579,3.349573 -0.636421,3.462409 -0.420311,0.114052 -0.433728,0.07464 -0.06328,-0.185864 z"
         id="path7678" />
      <path
         style="fill:#8c8c8c;fill-opacity:1;stroke-width:0.355612"
         d="m 63.213395,65.005628 c 7.8e-5,-8.801394 0.04634,-12.351029 0.102804,-7.888083 0.05646,4.462947 0.0564,11.664087 -1.43e-4,16.002534 -0.05654,4.338447 -0.102736,0.686942 -0.102661,-8.114451 z m 0.649304,-8.534685 c 0.0028,-0.977932 0.07173,-1.335788 0.153472,-0.795237 0.08174,0.540552 0.07955,1.340678 -0.0048,1.77806 -0.08441,0.437381 -0.151285,-0.0049 -0.148618,-0.982823 z M 75.073893,40.047682 c 0.256706,-0.102726 0.563421,-0.09009 0.681591,0.02806 0.118166,0.118169 -0.09187,0.202215 -0.466741,0.186774 -0.41427,-0.01707 -0.498532,-0.101328 -0.21485,-0.214846 z m -2.689315,-3.930197 c 0.929036,-0.07326 2.449277,-0.07326 3.378313,0 0.929036,0.07325 0.168916,0.133192 -1.689156,0.133192 -1.858072,0 -2.618193,-0.05994 -1.689157,-0.133192 z"
         id="path7676" />
      <path
         style="fill:#767676;fill-opacity:1;stroke-width:0.355612"
         d="m 62.539212,82.504174 c 0.133543,-0.350711 0.332387,-0.548076 0.441876,-0.438587 0.109489,0.10949 2.27e-4,0.396433 -0.242805,0.637659 -0.351209,0.348592 -0.392055,0.307746 -0.199071,-0.199072 z m 1.341339,-30.122767 c 0,-1.466899 0.06277,-2.066994 0.139492,-1.333545 0.07672,0.73345 0.07672,1.93364 0,2.667089 -0.07672,0.73345 -0.139492,0.133355 -0.139492,-1.333544 z m -0.05978,-6.832182 -0.05978,-1.675814 -3.28941,-0.117345 -3.289409,-0.117348 3.300568,-0.0738 c 3.681981,-0.08233 3.778252,-0.02006 3.539533,2.28918 -0.135705,1.312734 -0.144261,1.29979 -0.201504,-0.304869 z m -31.975942,-1.95721 c 0.537863,-0.08148 1.418002,-0.08148 1.955865,0 0.537863,0.08148 0.09779,0.148145 -0.977932,0.148145 -1.075726,0 -1.515796,-0.06667 -0.977933,-0.148145 z m 31.944239,-4.931298 c 0.01707,-0.41427 0.101328,-0.498532 0.214847,-0.21485 0.102726,0.256706 0.09009,0.563421 -0.02806,0.681591 -0.11817,0.118166 -0.202215,-0.09187 -0.186774,-0.466741 z m 0.09148,-3.348679 c 0,-1.466899 0.06277,-2.066994 0.139492,-1.333545 0.07672,0.73345 0.07672,1.93364 0,2.667089 -0.07672,0.73345 -0.139492,0.133355 -0.139492,-1.333544 z M 44.49127,36.491562 c 0.256706,-0.102726 0.563421,-0.09009 0.681591,0.02808 0.118166,0.118167 -0.09187,0.202216 -0.46674,0.186775 -0.414271,-0.01706 -0.498533,-0.101329 -0.214851,-0.214849 z"
         id="path7674" />
      <path
         style="fill:#606060;fill-opacity:1;stroke-width:0.355612"
         d="m 50.057275,58.249003 c -6.1e-5,-9.974913 0.04549,-14.106749 0.101232,-9.181863 0.05574,4.92489 0.05579,13.086182 1.1e-4,18.136205 -0.05568,5.050026 -0.101282,1.02057 -0.101342,-8.954342 z m -0.711939,-0.355612 c 6.8e-5,-9.388153 0.04598,-13.177692 0.102032,-8.421198 0.05605,4.756497 0.05599,12.437713 -1.28e-4,17.069369 -0.05611,4.631659 -0.101975,0.739982 -0.101904,-8.648171 z m -1.422703,0 c -7.5e-5,-9.192567 0.04589,-13.004189 0.102146,-8.470269 0.05625,4.533919 0.05631,12.05511 1.31e-4,16.713757 -0.05618,4.658647 -0.102206,0.949078 -0.102277,-8.243488 z M 32.378245,47.142458 c 0.831242,-0.07487 2.191458,-0.07487 3.0227,0 0.831243,0.07487 0.151135,0.136129 -1.51135,0.136129 -1.662485,0 -2.342593,-0.06126 -1.51135,-0.136129 z m 26.315277,0 c 0.831243,-0.07487 2.191458,-0.07487 3.022701,0 0.831242,0.07487 0.151135,0.136129 -1.511351,0.136129 -1.662485,0 -2.342593,-0.06126 -1.51135,-0.136129 z M 48.142145,40.756107 c -0.04057,-0.611965 0.588751,-0.905936 0.891327,-0.416358 0.153372,0.248161 0.103739,0.321438 -0.122861,0.181391 -0.209103,-0.129233 -0.461232,-0.03393 -0.560287,0.211763 -0.12891,0.319745 -0.188087,0.326342 -0.208179,0.02322 z M 44.82466,40.039638 c 0.440069,-0.08476 1.160183,-0.08476 1.600253,0 0.44007,0.08476 0.08001,0.154111 -0.800127,0.154111 -0.880139,0 -1.240196,-0.06935 -0.800126,-0.154111 z m 1.428816,-3.562876 c 0.639159,-0.07915 1.599311,-0.07751 2.133671,0.0036 0.53436,0.08114 0.01141,0.145896 -1.162107,0.1439 -1.173519,-0.002 -1.610723,-0.06838 -0.971564,-0.147529 z M 56.968413,32.36085 c 0.165619,-0.165619 0.841559,-0.245477 1.502083,-0.177461 1.171393,0.120621 1.163982,0.128034 -0.301125,0.301126 -0.826146,0.0976 -1.366577,0.04195 -1.200958,-0.123665 z m -25.47243,-0.140143 c 0.345999,-0.09016 0.826075,-0.08423 1.066836,0.01318 0.24076,0.09741 -0.04233,0.171181 -0.629089,0.163934 -0.58676,-0.0072 -0.783746,-0.08695 -0.437747,-0.17711 z m 2.682547,0.0035 c 0.256707,-0.102726 0.563422,-0.09009 0.681589,0.02808 0.118167,0.118167 -0.09187,0.202216 -0.46674,0.186775 -0.414268,-0.01706 -0.498533,-0.101329 -0.214849,-0.214849 z"
         id="path7672" />
      <path
         style="fill:#494949;fill-opacity:1;stroke-width:0.355612"
         d="m 61.080527,65.005628 c 6.8e-5,-9.388153 0.04599,-13.177692 0.102033,-8.421198 0.05605,4.756497 0.05599,12.437713 -1.28e-4,17.069369 -0.05612,4.631659 -0.101976,0.739982 -0.101905,-8.648171 z m 10.313459,-6.756625 c -6e-5,-9.974913 0.04549,-14.106749 0.101232,-9.181863 0.05574,4.92489 0.05579,13.086182 1.1e-4,18.136205 -0.05567,5.050026 -0.101282,1.02057 -0.101342,-8.954342 z m 5.333075,-0.533418 c 0,-9.094773 0.04605,-12.815362 0.102338,-8.267976 0.05629,4.547387 0.05629,11.988565 0,16.535951 -0.05629,4.547387 -0.102338,0.826798 -0.102338,-8.267975 z m -2.489699,0.177806 c 7.9e-5,-8.801394 0.04634,-12.351029 0.102804,-7.888083 0.05646,4.462947 0.0564,11.664087 -1.42e-4,16.002534 -0.05654,4.338446 -0.102736,0.686942 -0.102662,-8.114451 z M 33.91767,47.906626 c 0.01706,-0.41427 0.101328,-0.498533 0.214849,-0.21485 0.102725,0.256705 0.09009,0.56342 -0.02808,0.68159 -0.118167,0.118166 -0.202216,-0.09187 -0.186775,-0.46674 z m -3.126872,-2.45965 c 0.0027,-0.977933 0.07173,-1.335789 0.153471,-0.795237 0.08174,0.540551 0.07955,1.340678 -0.0049,1.778059 -0.08441,0.437381 -0.151286,-0.0049 -0.148617,-0.982822 z m 26.315276,0 c 0.0028,-0.977933 0.07173,-1.335789 0.153472,-0.795237 0.08174,0.540551 0.07955,1.340678 -0.0048,1.778059 -0.08441,0.437381 -0.151284,-0.0049 -0.148617,-0.982822 z M 34.683322,44.913558 c 0,-0.684553 0.07318,-0.964597 0.162629,-0.622321 0.08945,0.342277 0.08945,0.902365 0,1.244642 -0.08945,0.342276 -0.162629,0.06223 -0.162629,-0.622321 z m 39.7741,-4.119169 c 0.01707,-0.414271 0.101328,-0.498533 0.214847,-0.214851 0.102725,0.256706 0.09009,0.563421 -0.02806,0.681591 -0.11817,0.118166 -0.202215,-0.09187 -0.186775,-0.46674 z M 56.785323,39.066734 c -0.108195,-0.281954 -0.121737,-0.802037 -0.03008,-1.155739 0.110443,-0.42625 0.180537,-0.317686 0.20788,0.321964 l 0.04125,0.965056 3.467216,0.116257 3.467215,0.116256 -3.478374,0.07443 c -2.751113,0.05887 -3.519509,-0.03275 -3.675099,-0.43822 z M 30.818969,35.845456 c 9.24e-4,-1.955866 0.06064,-2.710621 0.132705,-1.677236 0.07206,1.033386 0.0713,2.63364 -0.0017,3.556118 -0.073,0.922479 -0.131959,0.07698 -0.131033,-1.878882 z m 3.895672,1.244641 c 0,-1.271312 0.06454,-1.791395 0.143426,-1.155738 0.07888,0.635656 0.07888,1.675821 0,2.311477 -0.07888,0.635656 -0.143426,0.115574 -0.143426,-1.155739 z m 1.049869,0.711224 c 0,-0.880139 0.06935,-1.240196 0.154111,-0.800127 0.08476,0.44007 0.08476,1.160184 0,1.600254 -0.08476,0.440069 -0.154111,0.08001 -0.154111,-0.800127 z m 39.759748,0.148173 c 0.01707,-0.41427 0.101328,-0.498533 0.214846,-0.21485 0.102726,0.256705 0.09009,0.56342 -0.02806,0.68159 -0.118169,0.118166 -0.202215,-0.09187 -0.186774,-0.46674 z m -4.978566,-1.066836 c 0.01707,-0.414269 0.101328,-0.498533 0.214846,-0.21485 0.102726,0.256706 0.09009,0.563421 -0.02806,0.681591 -0.118169,0.118166 -0.202215,-0.09187 -0.186774,-0.466741 z M 56.762574,34.956426 c 0,-1.271312 0.06454,-1.791395 0.143429,-1.155738 0.07888,0.635656 0.07888,1.67582 0,2.311477 -0.07888,0.635656 -0.143429,0.115573 -0.143429,-1.155739 z M 33.111694,32.22422 c 0.256707,-0.102726 0.563423,-0.09009 0.68159,0.02807 0.118166,0.118167 -0.09187,0.202216 -0.466741,0.186775 -0.414267,-0.01706 -0.498532,-0.101329 -0.214849,-0.214849 z m 2.133671,0 c 0.256708,-0.102726 0.563423,-0.09009 0.68159,0.02807 0.118166,0.118167 -0.09187,0.202216 -0.466741,0.186775 -0.414267,-0.01706 -0.498532,-0.101329 -0.214849,-0.214849 z M 45.535883,32.2099 c 0.635657,-0.07888 1.675821,-0.07888 2.311477,0 0.635657,0.07888 0.115574,0.143426 -1.155738,0.143426 -1.271313,0 -1.791395,-0.06454 -1.155739,-0.143426 z m 14.757892,0.0025 c 0.537863,-0.08148 1.418003,-0.08148 1.955866,0 0.537862,0.08148 0.09779,0.148145 -0.977933,0.148145 -1.075726,0 -1.515796,-0.06667 -0.977933,-0.148145 z m 15.299262,-2.945784 c 0,-0.880139 0.06935,-1.240196 0.154111,-0.800126 0.08476,0.440069 0.08476,1.160183 0,1.600253 -0.08476,0.44007 -0.154111,0.08001 -0.154111,-0.800127 z M 45.527953,25.098249 c 0.631293,-0.07856 1.75147,-0.07985 2.489283,-0.0029 0.737809,0.07698 0.221297,0.141257 -1.147808,0.142834 -1.369106,0.0016 -1.972771,-0.06141 -1.341475,-0.139966 z"
         id="path7670" />
      <path
         style="fill:#333333;fill-opacity:1;stroke-width:0.355612"
         d="M 58.071201,65.376197 V 47.402841 l 1.511351,-1.21e-4 1.51135,-1.21e-4 -0.09862,17.166039 c -0.08139,14.166381 -0.0127,17.283543 0.39309,17.838493 0.757435,1.035851 1.579962,0.458359 1.836429,-1.289352 0.123654,-0.842637 0.174862,-8.77329 0.1138,-17.623676 -0.06107,-8.850386 -0.01647,-16.091532 0.09907,-16.091436 0.360039,2.98e-4 0.570199,15.352382 0.352938,25.782033 l -0.207418,9.957132 -2.755992,0.10386 -2.755992,0.103864 z M 46.424913,76.300842 44.557951,76.170233 V 58.250866 40.331499 l 1.51135,-0.136124 c 1.444933,-0.130144 1.429304,-0.138856 -0.355612,-0.198254 l -1.866962,-0.06213 v -1.600253 -1.600254 h 2.788573 2.78857 l 0.02418,1.600254 c 0.02009,1.328146 -0.08758,1.600253 -0.63311,1.600253 -0.501967,0 -0.708916,0.357169 -0.875691,1.51135 -0.301409,2.085899 -0.06439,33.574166 0.255116,33.893341 0.141964,0.141815 0.50642,0.05177 0.809899,-0.200095 0.487256,-0.404388 0.540242,-2.468768 0.45311,-17.653579 -0.05427,-9.457604 0.02134,-17.19559 0.168034,-17.195526 0.14669,6.8e-5 0.266709,8.064281 0.266709,17.920473 0,16.01297 -0.05987,17.943327 -0.562503,18.136204 -0.309376,0.118721 -0.669433,0.186252 -0.800127,0.150072 -0.130691,-0.03618 -1.077756,-0.124557 -2.104586,-0.19639 z M 71.584452,58.092185 c 0,-11.693219 -0.126068,-18.193131 -0.355612,-18.334999 -0.195587,-0.12088 -0.355612,-0.930451 -0.355612,-1.799047 v -1.579266 h 3.200507 c 1.896595,0 3.200506,0.144879 3.200506,0.355612 0,0.195587 -0.325072,0.355612 -0.722382,0.355612 -1.167154,0 -1.249215,1.003715 -0.173831,2.126171 l 0.974228,1.01688 -0.0083,17.615741 c -0.0046,9.68866 -0.111563,17.782869 -0.237801,17.987129 -0.126243,0.204263 -1.420243,0.371383 -2.875631,0.371383 h -2.646086 z m 4.622954,17.411738 c 0.458643,-0.289735 0.548752,-2.594555 0.642807,-16.441601 0.06016,-8.857548 0.01035,-16.784737 -0.110691,-17.61598 -0.200131,-1.37434 -0.312256,-1.51135 -1.236825,-1.51135 -0.985657,0 -1.023757,0.06795 -1.246156,2.222574 -0.126182,1.222416 -0.178923,9.039255 -0.11721,17.370754 0.0903,12.190883 0.207489,15.2629 0.600266,15.735824 0.560878,0.675325 0.733677,0.703553 1.467809,0.239779 z M 36.378708,58.78242 c -0.0977,-6.160975 -0.13763,-11.26845 -0.08873,-11.349946 0.372444,-0.620738 0.443062,1.608873 0.360584,11.384722 l -0.09421,11.166998 z M 32.200439,67.940581 31.0447,67.569831 V 57.486336 47.402841 h 1.422448 1.422447 v 10.49055 c 0,5.769802 -0.120019,10.474213 -0.266709,10.454245 -0.14669,-0.01998 -0.786791,-0.20314 -1.422447,-0.407055 z M 31.0447,45.446976 v -1.600254 h 1.77806 c 1.721733,0 1.778059,0.03243 1.778059,1.023295 0,1.024895 0.748714,2.021184 1.188458,1.581441 0.128694,-0.128696 0.233989,-0.767406 0.233989,-1.419364 0,-0.651954 0.160026,-1.185372 0.355612,-1.185372 0.195587,0 0.355612,0.720114 0.355612,1.600254 v 1.600253 H 33.889595 31.0447 Z m 26.315278,0 v -1.600254 h 3.200506 3.200507 v 1.600254 1.600253 H 60.560484 57.359978 Z M 31.0447,35.845456 v -3.378313 h 2.844895 2.844895 v 3.378313 c 0,2.015135 -0.143493,3.378312 -0.355612,3.378312 -0.199642,0 -0.355612,-0.987811 -0.355612,-2.252207 0,-2.437077 -0.20418,-2.939121 -0.945213,-2.324119 -0.300183,0.24913 -0.477234,1.171497 -0.477234,2.486196 v 2.09013 H 32.82276 31.0447 Z m 25.959666,0 v -3.378313 h 3.378312 3.378313 v 3.378313 3.378312 H 60.382678 57.004366 Z M 44.202339,28.733219 v -3.378313 h 2.71154 2.711541 l -0.300731,1.155738 c -0.165402,0.635657 -0.298009,2.155897 -0.294681,3.378313 l 0.006,2.222574 h -2.416859 -2.416862 v -3.378312 z m 26.853499,2.950157 c -0.08978,-0.253481 -0.1253,-1.82109 -0.07893,-3.483575 l 0.0843,-3.022701 2.900328,-0.102826 c 2.731614,-0.09684 2.914975,-0.05668 3.152132,0.690544 0.194499,0.612801 0.02966,0.970506 -0.724246,1.571649 -0.832669,0.663947 -0.952698,0.980429 -0.817054,2.154351 0.08745,0.756839 0.226102,1.61611 0.308117,1.909489 0.120022,0.429344 -0.320172,0.553956 -2.256148,0.63868 -1.725809,0.07553 -2.451374,-0.02493 -2.568499,-0.355611 z"
         id="path7668" />
    </g>
  </g>
</svg>
