<?xml version="1.0" encoding="UTF-8" standalone="no"?>
<!-- Created with Inkscape (http://www.inkscape.org/) -->

<svg
   width="100mm"
   height="100mm"
   viewBox="0 0 100 100"
   version="1.1"
   id="svg4222"
   inkscape:version="1.1.1 (3bf5ae0d25, 2021-09-20)"
   sodipodi:docname="add_list_type_device_6148.svg"
   xmlns:inkscape="http://www.inkscape.org/namespaces/inkscape"
   xmlns:sodipodi="http://sodipodi.sourceforge.net/DTD/sodipodi-0.dtd"
   xmlns="http://www.w3.org/2000/svg"
   xmlns:svg="http://www.w3.org/2000/svg">
  <sodipodi:namedview
     id="namedview4224"
     pagecolor="#505050"
     bordercolor="#ffffff"
     borderopacity="1"
     inkscape:pageshadow="0"
     inkscape:pageopacity="0"
     inkscape:pagecheckerboard="1"
     inkscape:document-units="mm"
     showgrid="false"
     inkscape:zoom="0.58974467"
     inkscape:cx="397.62971"
     inkscape:cy="252.65171"
     inkscape:window-width="1440"
     inkscape:window-height="890"
     inkscape:window-x="-6"
     inkscape:window-y="-6"
     inkscape:window-maximized="1"
     inkscape:current-layer="layer1" />
  <defs
     id="defs4219" />
  <g
     inkscape:label="Laag 1"
     inkscape:groupmode="layer"
     id="layer1">
    <g
       id="g4238"
       transform="translate(-1.3459165,-0.44864074)">
      <path
         style="fill:#d0d0d0;fill-opacity:1;stroke-width:0.59691"
         d="m 56.437222,53.978414 c -0.742479,-0.946732 -0.721366,-0.967845 0.225366,-0.225366 0.994301,0.779784 1.310503,1.269958 0.819226,1.269958 -0.123952,0 -0.594019,-0.470066 -1.044592,-1.044592 z m 13.20815,0.819226 c 0,-0.123952 0.470066,-0.594019 1.044592,-1.044592 0.946734,-0.742479 0.967847,-0.721366 0.225369,0.225366 -0.779785,0.994301 -1.269961,1.310503 -1.269961,0.819226 z"
         id="path4254" />
      <path
         style="fill:#b9b9b9;fill-opacity:1;stroke-width:0.59691"
         d="M 53.321561,92.777538 C 53.168821,92.531313 57.721041,92.409 63.437602,92.50573 l 10.393754,0.175873 1.435358,-1.548783 c 1.306671,-1.409919 1.774613,-1.529653 5.219151,-1.335478 l 3.783792,0.213305 -3.703555,0.115013 c -3.065758,0.09521 -3.960537,0.372 -5.195824,1.607287 -1.474623,1.474623 -1.612199,1.492274 -11.631643,1.492274 -5.576651,0 -10.264335,-0.201457 -10.417074,-0.447683 z m -0.02734,-2.884142 C 52.741859,88.453967 52.88032,54.83469 53.442259,53.948795 c 0.792651,-1.249613 5.926028,-2.507247 10.234017,-2.507247 4.307992,0 9.441367,1.257634 10.234015,2.507247 0.561943,0.885895 0.700402,34.505172 0.14804,35.944601 -0.277844,0.724046 -1.147661,0.921504 -3.730685,0.84689 l -3.368367,-0.09729 3.283003,-0.350392 3.283002,-0.350386 0.15808,-17.738154 0.15808,-17.738156 -1.948809,-1.064497 c -2.79491,-1.526663 -13.637811,-1.526663 -16.432718,0 l -1.948808,1.064497 0.158079,17.738156 0.158079,17.738154 3.581458,0.347335 3.581458,0.347336 -3.666823,0.100347 c -2.856654,0.07818 -3.746875,-0.108268 -4.029139,-0.84384 z M 85.498618,88.76738 c 0.637273,-0.482004 1.411477,-0.884918 1.720449,-0.895364 0.308972,-0.01045 0.04035,0.37539 -0.59691,0.857401 -0.637272,0.482004 -1.411476,0.884918 -1.720448,0.895364 -0.308973,0.01045 -0.04035,-0.37539 0.596909,-0.857401 z M 51.1883,87.504839 c 0.02864,-0.69537 0.170084,-0.836808 0.360633,-0.360635 0.17243,0.430891 0.151224,0.945726 -0.04713,1.144079 -0.198348,0.198347 -0.339427,-0.154206 -0.313509,-0.783444 z m 25.023078,0.348195 c 0,-0.3283 1.477351,-0.596909 3.283002,-0.596909 1.805652,0 3.283003,0.268609 3.283003,0.596909 0,0.3283 -1.477351,0.59691 -3.283003,0.59691 -1.805651,0 -3.283002,-0.26861 -3.283002,-0.59691 z m 7.162915,-0.596909 c 0,-0.328301 0.402914,-0.59691 0.895364,-0.59691 0.492451,0 0.895365,0.268609 0.895365,0.59691 0,0.3283 -0.402914,0.596909 -0.895365,0.596909 -0.49245,0 -0.895364,-0.268609 -0.895364,-0.596909 z m -3.581458,-2.323776 c 0,-0.662014 1.836345,-1.41104 2.30656,-0.940825 0.189728,0.189734 -0.0502,0.594857 -0.533117,0.900277 -1.116138,0.70587 -1.773443,0.720894 -1.773443,0.04055 z m 4.775277,-0.696002 c 0,-0.347676 0.268609,-0.466127 0.59691,-0.263225 0.3283,0.202901 0.596909,0.487364 0.596909,0.632139 0,0.144774 -0.268609,0.263225 -0.596909,0.263225 -0.328301,0 -0.59691,-0.284463 -0.59691,-0.632139 z m -8.356734,-0.727973 c 0.16415,-0.168162 1.350042,-0.593036 2.635314,-0.944162 1.285277,-0.351126 2.091105,-0.407516 1.790729,-0.125321 -0.575893,0.541057 -4.939445,1.595438 -4.426043,1.069483 z m 12.54424,-0.281389 c 0.01671,-0.816973 1.114018,-2.209593 1.464733,-1.858878 0.470215,0.470215 -0.278811,2.30656 -0.940825,2.30656 -0.293173,0 -0.528934,-0.201457 -0.523908,-0.447682 z m -37.56732,-1.094333 c 0.02864,-0.695369 0.170084,-0.836807 0.360634,-0.360634 0.172429,0.430891 0.151223,0.945725 -0.04713,1.144078 -0.198349,0.198347 -0.339428,-0.154205 -0.313509,-0.783444 z m 34.991548,-0.04632 c 0.167248,-0.435851 0.544554,-0.643838 0.838449,-0.462199 0.817432,0.505201 0.635786,1.25465 -0.30409,1.25465 -0.461148,0 -0.701613,-0.356605 -0.534359,-0.792451 z m -2.208644,-0.799304 c 0,-0.3283 0.26861,-0.596909 0.59691,-0.596909 0.3283,0 0.59691,0.268609 0.59691,0.596909 0,0.328301 -0.26861,0.59691 -0.59691,0.59691 -0.3283,0 -0.59691,-0.268609 -0.59691,-0.59691 z m 3.228303,-0.82266 c -0.488171,-1.272158 -0.07812,-2.914101 0.800837,-3.20676 0.487198,-0.162216 0.746137,0.378059 0.746137,1.556812 0,1.991911 -1.004593,3.06337 -1.546974,1.649948 z m 0.766808,-2.001301 c -0.151341,-0.580775 -0.28512,-0.250123 -0.297285,0.734778 -0.01218,0.984901 0.111658,1.460077 0.275169,1.055951 0.163505,-0.404126 0.173456,-1.209954 0.02214,-1.790729 z m 4.524198,0.436323 c 0,-1.477351 0.11641,-2.081722 0.258683,-1.343047 0.142279,0.738676 0.142279,1.947418 0,2.686094 -0.142273,0.738675 -0.258683,0.134304 -0.258683,-1.343047 z m -2.550212,0 c 0,-0.984901 0.268609,-1.790729 0.596909,-1.790729 0.3283,0 0.59691,0.805828 0.59691,1.790729 0,0.984901 -0.26861,1.790729 -0.59691,1.790729 -0.3283,0 -0.596909,-0.805828 -0.596909,-1.790729 z m -5.372187,-0.298455 c 0,-0.82075 0.268609,-1.492274 0.59691,-1.492274 0.3283,0 0.596909,0.671524 0.596909,1.492274 0,0.820751 -0.268609,1.492274 -0.596909,1.492274 -0.328301,0 -0.59691,-0.671523 -0.59691,-1.492274 z m -1.652246,-0.895364 c 0,-1.149051 0.122844,-1.619117 0.272985,-1.044592 0.150135,0.574526 0.150135,1.514658 0,2.089184 -0.150141,0.574525 -0.272985,0.104459 -0.272985,-1.044592 z M 51.277611,65.392782 c -0.123318,-11.398608 -0.03599,-12.69001 0.908155,-13.430463 0.921953,-0.723046 0.958451,-0.708683 0.310879,0.12233 -0.513068,0.658407 -0.786172,4.697279 -0.908155,13.430464 l -0.174442,12.488913 z m 24.453225,10.223605 c 0.01218,-0.984901 0.145944,-1.315553 0.297284,-0.734778 0.151341,0.580776 0.14139,1.386603 -0.02209,1.790729 -0.163512,0.404126 -0.287335,-0.07105 -0.27517,-1.055951 z m 8.282795,-0.713575 c -4.263427,-2.243736 -4.497792,-3.0573 -4.70314,-16.326175 -0.208256,-13.456678 0.150033,-15.048167 3.911094,-17.372628 4.248212,-2.625541 10.273788,-1.000834 12.325808,3.323471 1.464589,3.086393 1.397526,23.659078 -0.08661,26.569657 -2.149644,4.215704 -7.370156,5.951296 -11.447156,3.805675 z m 7.717396,-0.630397 c 3.712116,-1.854413 4.176386,-3.685188 4.177442,-16.473106 5.97e-4,-8.819191 -0.194688,-11.663299 -0.904085,-13.158237 -2.598133,-5.475164 -11.708406,-5.475164 -14.306538,0 -1.412527,2.976679 -1.303126,23.608657 0.140506,26.498493 1.16672,2.335505 4.257942,4.176511 7.012763,4.176511 0.984901,0 2.730861,-0.469648 3.879912,-1.043661 z m 4.775277,-2.500711 c 0,-0.308924 0.265535,-0.725794 0.590075,-0.926368 0.338364,-0.209121 0.43843,0.0305 0.234592,0.56168 -0.39682,1.034099 -0.824667,1.223301 -0.824667,0.364688 z m -20.741307,-5.70587 c 0.0066,-1.313202 0.128866,-1.780134 0.271641,-1.037632 0.142775,0.742502 0.137355,1.816939 -0.01206,2.387638 -0.149401,0.570699 -0.266222,-0.03683 -0.259596,-1.350006 z m 1.802774,-3.879913 c 0,-1.477351 0.116409,-2.081722 0.258683,-1.343047 0.142279,0.738676 0.142279,1.947418 0,2.686094 -0.142274,0.738675 -0.258683,0.134304 -0.258683,-1.343047 z M 19.210736,55.626752 c -0.209121,-0.338364 0.03048,-0.438434 0.561682,-0.234592 1.034096,0.396821 1.223298,0.824665 0.364685,0.824665 -0.308926,0 -0.725791,-0.265533 -0.926367,-0.590073 z m 36.705715,-5.379023 c 0.820751,-0.26285 2.029493,-0.47791 2.686093,-0.47791 0.945306,0 0.883178,0.09949 -0.298455,0.47791 -0.82075,0.26285 -2.029492,0.47791 -2.686093,0.47791 -0.945305,0 -0.883177,-0.09949 0.298455,-0.47791 z m 13.132011,0 c -1.18163,-0.378425 -1.243762,-0.47791 -0.298454,-0.47791 0.6566,0 1.865342,0.21506 2.686093,0.47791 1.18163,0.378425 1.243762,0.47791 0.298455,0.47791 -0.656601,0 -1.865343,-0.21506 -2.686094,-0.47791 z M 61.73632,49.219017 c 1.066976,-0.13241 2.812936,-0.13241 3.879912,0 1.066976,0.132411 0.193996,0.240747 -1.939956,0.240747 -2.133952,0 -3.006932,-0.108336 -1.939956,-0.240747 z m 16.862696,-5.537294 c 0.351401,-0.6566 0.773219,-1.193819 0.937369,-1.193819 0.16415,0 0.01092,0.537219 -0.340459,1.193819 -0.351401,0.656601 -0.773219,1.19382 -0.937369,1.19382 -0.16415,0 -0.01092,-0.537219 0.340459,-1.19382 z m 3.581458,-3.816049 c 0,-0.129026 0.416863,-0.394559 0.926368,-0.590073 0.531201,-0.203842 0.770801,-0.103772 0.56168,0.234592 -0.350542,0.567186 -1.488048,0.838926 -1.488048,0.355481 z m 5.737393,-1.44813 c -0.166185,-0.268896 0.489484,-0.372714 1.457045,-0.230706 0.967566,0.142008 1.759206,0.362014 1.759206,0.488902 0,0.454834 -2.920476,0.220382 -3.216251,-0.258196 z"
         id="path4252" />
      <path
         style="fill:#a3a3a3;fill-opacity:1;stroke-width:0.59691"
         d="m 85.165022,86.950041 c 0,-0.513933 3.194039,-3.23454 3.8232,-3.256512 0.297106,-0.01039 0.03152,0.543236 -0.59023,1.230243 -1.20697,1.333687 -3.23297,2.603487 -3.23297,2.026269 z m -8.207507,-1.896113 c 0.574525,-0.150135 1.514658,-0.150135 2.089183,0 0.574526,0.150141 0.104459,0.272985 -1.044592,0.272985 -1.149051,0 -1.619117,-0.122844 -1.044591,-0.272985 z m 5.222959,-1.21366 c 0,-0.751062 1.706182,-2.239844 2.10727,-1.838763 0.158228,0.158229 -0.25118,0.775356 -0.909792,1.371394 -0.658612,0.596038 -1.197478,0.806353 -1.197478,0.467369 z m 3.34449,-0.06611 c -0.169086,-0.273588 0.07186,-0.497429 0.535422,-0.497429 0.463566,0 0.704509,0.223841 0.535422,0.497429 -0.169081,0.273581 -0.410023,0.497422 -0.535422,0.497422 -0.125399,0 -0.366341,-0.223841 -0.535422,-0.497422 z m -4.53831,-1.518676 c 0,-0.123948 0.470067,-0.594014 1.044592,-1.044591 0.946735,-0.742478 0.967847,-0.721366 0.225369,0.225369 -0.779784,0.994302 -1.269961,1.310503 -1.269961,0.819222 z M 20.745909,54.674809 c 0.02864,-0.695366 0.170084,-0.836808 0.360633,-0.360633 0.17243,0.430894 0.151223,0.945728 -0.04713,1.144077 -0.198349,0.198347 -0.339428,-0.154202 -0.313509,-0.783444 z m 73.614499,-13.529951 -1.137107,-1.343047 1.343047,1.137106 c 1.26213,1.068598 1.614784,1.548987 1.137107,1.548987 -0.11327,0 -0.717641,-0.604371 -1.343047,-1.343046 z M 20.997239,23.983706 c 0.594215,-0.6566 1.214696,-1.193819 1.378846,-1.193819 0.164151,0 -0.187721,0.537219 -0.781936,1.193819 -0.594215,0.656601 -1.214696,1.19382 -1.378846,1.19382 -0.164151,0 0.187721,-0.537219 0.781936,-1.19382 z M 51.738084,13.010497 c 0,-0.12586 0.537589,-0.369419 1.194643,-0.541243 0.657053,-0.171823 1.044115,-0.06885 0.860136,0.228837 -0.321287,0.519853 -2.054779,0.783412 -2.054779,0.312406 z"
         id="path4250" />
      <path
         style="fill:#8c8c8c;fill-opacity:1;stroke-width:0.59691"
         d="m 17.164451,92.280116 c 0.02864,-0.69537 0.170084,-0.836808 0.360633,-0.360635 0.17243,0.430891 0.151224,0.945725 -0.04713,1.144079 -0.198348,0.198347 -0.339427,-0.154206 -0.313509,-0.783444 z m 42.930367,-2.636353 c 0,-0.3283 0.26861,-0.59691 0.59691,-0.59691 0.3283,0 0.596909,0.26861 0.596909,0.59691 0,0.3283 -0.268609,0.59691 -0.596909,0.59691 -0.3283,0 -0.59691,-0.26861 -0.59691,-0.59691 z M 48.044706,88.639098 c 0.430894,-0.172429 0.945728,-0.151227 1.144077,0.0471 0.198347,0.198347 -0.154202,0.339426 -0.783444,0.313508 -0.695366,-0.02865 -0.836808,-0.170083 -0.360633,-0.360628 z m 0,-5.372186 c 0.430894,-0.172429 0.945728,-0.151227 1.144077,0.0471 0.198347,0.198347 -0.154202,0.339427 -0.783444,0.313509 -0.695366,-0.02865 -0.836808,-0.170083 -0.360633,-0.360629 z m 0,-5.372186 c 0.430894,-0.17243 0.945728,-0.151228 1.144077,0.0471 0.198347,0.198353 -0.154202,0.339426 -0.783444,0.313509 -0.695366,-0.02865 -0.836808,-0.170084 -0.360633,-0.360629 z M 59.32871,67.110425 C 59.1969,66.8642 59.31036,65.99122 59.580846,65.170469 c 0.490724,-1.489039 0.491355,-1.488758 0.291182,0.128401 -0.110335,0.891377 0.09611,1.743149 0.458773,1.892837 0.445873,0.184027 0.429189,0.287411 -0.05152,0.319275 -0.391,0.0259 -0.818754,-0.154331 -0.950564,-0.400557 z M 15.923508,60.395192 c -0.53799,-0.347676 -0.611614,-0.582277 -0.184456,-0.587769 0.391001,-0.005 0.876919,0.259469 1.07982,0.587769 0.458012,0.741078 0.251372,0.741078 -0.895364,0 z m -5.325063,-9.301841 c 0.02864,-0.695366 0.170084,-0.836807 0.360633,-0.360633 0.17243,0.430894 0.151224,0.945729 -0.04713,1.144077 -0.198348,0.198348 -0.339427,-0.154202 -0.313508,-0.783444 z m 5.372187,0 c 0.02864,-0.695366 0.170084,-0.836807 0.360633,-0.360633 0.17243,0.430894 0.151223,0.945729 -0.04713,1.144077 -0.198348,0.198348 -0.339427,-0.154202 -0.313509,-0.783444 z m 5.372186,0 c 0.02864,-0.695366 0.170084,-0.836807 0.360633,-0.360633 0.17243,0.430894 0.151224,0.945729 -0.04713,1.144077 -0.198348,0.198348 -0.339427,-0.154202 -0.313509,-0.783444 z M 48.044706,24.172859 c 0.430894,-0.17243 0.945728,-0.151224 1.144077,0.04713 0.198347,0.198348 -0.154202,0.339427 -0.783444,0.313509 -0.695366,-0.02864 -0.836808,-0.170084 -0.360633,-0.360634 z M 32.910887,20.959445 c -0.216399,-0.350142 -0.265436,-0.764641 -0.108969,-0.921108 0.156467,-0.156467 0.443543,0.130013 0.637948,0.636623 0.403621,1.051819 0.0596,1.236831 -0.528979,0.284485 z m 15.133819,-2.158773 c 0.430894,-0.17243 0.945728,-0.151223 1.144077,0.04713 0.198347,0.198349 -0.154202,0.339428 -0.783444,0.313509 -0.695366,-0.02864 -0.836808,-0.170084 -0.360633,-0.360633 z m 0,-5.372186 c 0.430894,-0.17243 0.945728,-0.151224 1.144077,0.04713 0.198347,0.198348 -0.154202,0.339427 -0.783444,0.313509 -0.695366,-0.02864 -0.836808,-0.170084 -0.360633,-0.360633 z"
         id="path4248" />
      <path
         style="fill:#767676;fill-opacity:1;stroke-width:0.59691"
         d="m 46.253977,88.639098 c 0.430894,-0.172429 0.945728,-0.151227 1.144077,0.0471 0.198347,0.198347 -0.154202,0.339426 -0.783444,0.313508 -0.695366,-0.02865 -0.836808,-0.170083 -0.360633,-0.360628 z m 3.581457,0 c 0.430895,-0.172429 0.945729,-0.151227 1.144077,0.0471 0.198348,0.198347 -0.154202,0.339426 -0.783443,0.313508 -0.695366,-0.02865 -0.836808,-0.170083 -0.360634,-0.360628 z m -3.581457,-5.372186 c 0.430894,-0.172429 0.945728,-0.151227 1.144077,0.0471 0.198347,0.198347 -0.154202,0.339427 -0.783444,0.313509 -0.695366,-0.02865 -0.836808,-0.170083 -0.360633,-0.360629 z m 3.581457,0 c 0.430895,-0.172429 0.945729,-0.151227 1.144077,0.0471 0.198348,0.198347 -0.154202,0.339427 -0.783443,0.313509 -0.695366,-0.02865 -0.836808,-0.170083 -0.360634,-0.360629 z M 49.6489,78.30248 c -0.202901,-0.3283 0.06571,-0.596909 0.59691,-0.596909 0.531201,0 0.79981,0.268609 0.596909,0.596909 -0.202901,0.328301 -0.47151,0.59691 -0.596909,0.59691 -0.1254,0 -0.394009,-0.268609 -0.59691,-0.59691 z m -3.394923,-0.407754 c 0.430894,-0.17243 0.945728,-0.151228 1.144077,0.0471 0.198347,0.198353 -0.154202,0.339426 -0.783444,0.313509 -0.695366,-0.02865 -0.836808,-0.170084 -0.360633,-0.360629 z M 62.920188,60.918033 c 0.404908,-0.407939 0.886554,-0.591341 1.070337,-0.407561 0.183782,0.183781 -0.147502,0.51755 -0.736187,0.741708 -0.850715,0.323933 -0.919276,0.25537 -0.33415,-0.334147 z M 10.335463,52.933822 c 0.188971,-0.49245 0.44915,-0.895364 0.578176,-0.895364 0.129025,0 0.234592,0.402914 0.234592,0.895364 0,0.492451 -0.260179,0.895365 -0.578176,0.895365 -0.317997,0 -0.423563,-0.402914 -0.234592,-0.895365 z m 5.635169,-0.04974 c 0.02864,-0.695366 0.170084,-0.836808 0.360633,-0.360633 0.17243,0.430894 0.151223,0.945728 -0.04713,1.144077 -0.198348,0.198347 -0.339427,-0.154202 -0.313509,-0.783444 z m 5.052098,0.389442 c -0.188881,-0.305617 -0.07043,-0.724383 0.263227,-0.930594 0.333656,-0.20621 0.606647,0.04384 0.606647,0.555664 0,1.048488 -0.358179,1.202868 -0.869874,0.374928 z M 10.598445,49.302622 c 0.02864,-0.695365 0.170084,-0.836807 0.360633,-0.360633 0.17243,0.430894 0.151224,0.945729 -0.04713,1.144077 -0.198348,0.198348 -0.339427,-0.154202 -0.313508,-0.783444 z m 5.372187,0 c 0.02864,-0.695365 0.170084,-0.836807 0.360633,-0.360633 0.17243,0.430894 0.151223,0.945729 -0.04713,1.144077 -0.198348,0.198348 -0.339427,-0.154202 -0.313509,-0.783444 z m 5.372186,0 c 0.02864,-0.695365 0.170084,-0.836807 0.360633,-0.360633 0.17243,0.430894 0.151224,0.945729 -0.04713,1.144077 -0.198348,0.198348 -0.339427,-0.154202 -0.313509,-0.783444 z m 53.721866,0 c 0.02865,-0.695365 0.170084,-0.836807 0.360629,-0.360633 0.17243,0.430894 0.151227,0.945729 -0.0471,1.144077 -0.198353,0.198348 -0.339427,-0.154202 -0.313509,-0.783444 z M 46.253977,24.172859 c 0.430894,-0.17243 0.945728,-0.151224 1.144077,0.04713 0.198347,0.198348 -0.154202,0.339427 -0.783444,0.313509 -0.695366,-0.02864 -0.836808,-0.170084 -0.360633,-0.360634 z m 3.096468,0.173165 c 0,-0.129026 0.402914,-0.389205 0.895365,-0.578176 0.49245,-0.188971 0.895364,-0.0834 0.895364,0.234592 0,0.317997 -0.402914,0.578176 -0.895364,0.578176 -0.492451,0 -0.895365,-0.105566 -0.895365,-0.234592 z m -3.096468,-5.545352 c 0.430894,-0.17243 0.945728,-0.151223 1.144077,0.04713 0.198347,0.198349 -0.154202,0.339428 -0.783444,0.313509 -0.695366,-0.02864 -0.836808,-0.170084 -0.360633,-0.360633 z m 3.096468,0.173166 c 0,-0.129026 0.402914,-0.389205 0.895365,-0.578176 0.49245,-0.188972 0.895364,-0.08341 0.895364,0.234592 0,0.317996 -0.402914,0.578176 -0.895364,0.578176 -0.492451,0 -0.895365,-0.105567 -0.895365,-0.234592 z m -3.096468,-5.545352 c 0.430894,-0.17243 0.945728,-0.151224 1.144077,0.04713 0.198347,0.198348 -0.154202,0.339427 -0.783444,0.313509 -0.695366,-0.02864 -0.836808,-0.170084 -0.360633,-0.360633 z m 3.096468,0.173165 c 0,-0.129026 0.402914,-0.389205 0.895365,-0.578176 0.49245,-0.188971 0.895364,-0.0834 0.895364,0.234593 0,0.317996 -0.402914,0.578175 -0.895364,0.578175 -0.492451,0 -0.895365,-0.105566 -0.895365,-0.234592 z"
         id="path4246" />
      <path
         style="fill:#606060;fill-opacity:1;stroke-width:0.59691"
         d="m 42.286709,91.508419 c -0.655222,-0.415348 -0.646415,-0.562175 0.04974,-0.829316 0.482541,-0.185168 0.845927,0.03558 0.845927,0.513843 0,0.461149 -0.02238,0.834343 -0.04974,0.829317 -0.02736,-0.0048 -0.408026,-0.236257 -0.845927,-0.513844 z m 21.091112,-1.267746 c -0.202901,-0.328301 -0.08445,-0.59691 0.263225,-0.59691 0.347676,0 0.63214,0.268609 0.63214,0.59691 0,0.3283 -0.118451,0.596909 -0.263226,0.596909 -0.144774,0 -0.429237,-0.268609 -0.632139,-0.596909 z M 14.05664,88.599171 c -0.742479,-0.946734 -0.721366,-0.967847 0.225366,-0.225369 0.574526,0.450577 1.044592,0.920643 1.044592,1.044592 0,0.49128 -0.490174,0.175079 -1.269958,-0.819223 z m 34.696896,0.815725 c 0,-0.125882 0.663394,-0.355687 1.47421,-0.510686 0.810815,-0.154994 1.332182,-0.05199 1.158592,0.228873 -0.305666,0.494575 -2.632802,0.743672 -2.632802,0.281813 z m -4.290288,-0.775798 c 0.430894,-0.172429 0.945729,-0.151227 1.144077,0.0471 0.198348,0.198347 -0.154202,0.339426 -0.783444,0.313508 -0.695366,-0.02865 -0.836807,-0.170083 -0.360633,-0.360628 z M 56.811815,86.36076 c 0,-0.758051 0.201457,-1.253767 0.447683,-1.101591 0.246225,0.152177 0.447682,0.647892 0.447682,1.101591 0,0.453699 -0.201457,0.949415 -0.447682,1.101591 -0.246226,0.152176 -0.447683,-0.34354 -0.447683,-1.101591 z m 15.51965,0 c 0,-0.758051 0.201457,-1.253767 0.447682,-1.101591 0.246226,0.152177 0.447683,0.647892 0.447683,1.101591 0,0.453699 -0.201457,0.949415 -0.447683,1.101591 -0.246225,0.152176 -0.447682,-0.34354 -0.447682,-1.101591 z M 48.753536,84.042709 c 0,-0.125882 0.663394,-0.355686 1.47421,-0.510686 0.810815,-0.154993 1.332182,-0.05199 1.158592,0.228873 -0.305666,0.494576 -2.632802,0.743672 -2.632802,0.281813 z M 38.400564,82.752334 c 0.181831,-0.473845 0.571066,-0.712925 0.864965,-0.531285 0.74023,0.457489 0.672095,0.676131 -0.330602,1.060899 -0.576976,0.221406 -0.754892,0.04507 -0.534363,-0.529614 z m 21.303324,-0.595686 c -0.194404,-0.506609 -0.185974,-1.088596 0.01873,-1.2933 0.204711,-0.20471 0.372199,0.0531 0.372199,0.572908 0,0.519807 0.335762,1.080591 0.746137,1.24618 0.584411,0.235815 0.580352,0.311288 -0.01874,0.348195 -0.420681,0.02591 -0.923932,-0.367374 -1.118335,-0.873983 z m 6.718208,0.51887 c 0.361148,-0.271218 0.826475,-0.896039 1.034062,-1.38849 0.265195,-0.629112 0.336186,-0.555072 0.238734,0.248989 -0.07629,0.6294 -0.541618,1.254221 -1.034068,1.38849 -0.575887,0.157029 -0.661066,0.06818 -0.238728,-0.248989 z m 9.192372,-0.978359 c 0,-0.102728 0.87298,-0.975708 1.939956,-1.939956 l 1.939956,-1.753177 -1.753177,1.939956 c -1.634207,1.808314 -2.126735,2.214326 -2.126735,1.753177 z m 2.089184,-6.976136 c 0.202901,-0.3283 0.487364,-0.59691 0.632139,-0.59691 0.144774,0 0.263225,0.26861 0.263225,0.59691 0,0.3283 -0.284463,0.596909 -0.632139,0.596909 -0.347676,0 -0.466127,-0.268609 -0.263225,-0.596909 z m -48.55589,-4.238369 c -1.098317,-0.998647 -1.885785,-1.926884 -1.749928,-2.06274 0.135857,-0.135857 1.154324,0.689096 2.263262,1.833228 2.477722,2.556361 2.18813,2.685843 -0.513334,0.229512 z m -4.86752,-1.169047 c 0,-0.347676 0.268609,-0.466127 0.59691,-0.263225 0.3283,0.202901 0.596909,0.487364 0.596909,0.632139 0,0.144774 -0.268609,0.263225 -0.596909,0.263225 -0.328301,0 -0.59691,-0.284463 -0.59691,-0.632139 z m 32.805165,-0.293184 c -0.634383,-0.764385 -0.595187,-1.098081 0.225367,-1.918635 0.926481,-0.926481 1.06015,-0.926481 1.986631,0 0.820554,0.820554 0.85975,1.15425 0.225367,1.918635 -0.422372,0.508931 -0.970779,0.925323 -1.218683,0.925323 -0.247903,0 -0.79631,-0.416392 -1.218682,-0.925323 z M 84.68448,67.856562 c 0.01218,-0.984901 0.145944,-1.315553 0.297284,-0.734777 0.151341,0.580775 0.14139,1.386603 -0.02214,1.790728 -0.163511,0.404126 -0.287334,-0.07105 -0.275169,-1.055951 z M 25.328553,67.161545 c 0.412421,-0.166269 0.572376,-0.589478 0.355454,-0.940467 -0.235075,-0.380357 -0.112078,-0.463668 0.304473,-0.206227 0.821774,0.507887 0.328336,1.564226 -0.698874,1.496131 -0.50883,-0.03373 -0.497759,-0.133058 0.03895,-0.349437 z m 50.882825,0.161971 c 0,-0.129028 0.416863,-0.394557 0.926368,-0.590075 0.531201,-0.203839 0.770801,-0.103773 0.56168,0.234592 -0.350542,0.567189 -1.488048,0.838926 -1.488048,0.355483 z M 67.30486,64.822274 c 0.02865,-0.69537 0.170083,-0.836808 0.360628,-0.360635 0.17243,0.430891 0.151228,0.945726 -0.0471,1.144079 -0.198353,0.198347 -0.339426,-0.154206 -0.313509,-0.783444 z m 20.408387,-0.662367 c 0.580775,-0.15134 1.386603,-0.14139 1.790729,0.02209 0.404125,0.163511 -0.07105,0.287334 -1.055951,0.275169 -0.984901,-0.01218 -1.315553,-0.145944 -0.734778,-0.297285 z M 63.564355,61.181254 c 0.430892,-0.17243 0.945726,-0.151223 1.144079,0.04713 0.198347,0.198348 -0.154206,0.339427 -0.783444,0.313509 -0.69537,-0.02864 -0.836807,-0.170084 -0.360635,-0.360633 z m 24.148892,-0.0059 c 0.580775,-0.151342 1.386603,-0.14139 1.790729,0.02211 0.404125,0.163508 -0.07105,0.287333 -1.055951,0.275168 -0.984901,-0.01217 -1.315553,-0.145943 -0.734778,-0.297286 z M 84.68448,57.709099 c 0.01218,-0.984901 0.145944,-1.315551 0.297284,-0.734777 0.151341,0.580774 0.14139,1.386602 -0.02214,1.790729 C 84.796138,59.169178 84.672315,58.694 84.68448,57.709099 Z M 54.399633,56.177112 c -0.612467,-0.990992 -0.06274,-1.128412 0.794215,-0.198538 0.423319,0.459339 0.506324,0.835161 0.184456,0.835161 -0.32187,0 -0.762271,-0.286481 -0.978671,-0.636623 z m 17.759069,-0.198538 c 0.423322,-0.459338 0.863722,-0.745818 0.978675,-0.636623 0.354051,0.336334 -0.543272,1.471784 -1.163126,1.471784 -0.321872,0 -0.238866,-0.375822 0.184451,-0.835161 z M 18.311146,55.584688 c 0,-0.347676 0.268609,-0.466128 0.59691,-0.263227 0.3283,0.202901 0.596909,0.487362 0.596909,0.632137 0,0.144775 -0.268609,0.263227 -0.596909,0.263227 -0.328301,0 -0.59691,-0.284462 -0.59691,-0.632137 z m -7.712701,-0.909879 c 0.02864,-0.695366 0.170084,-0.836808 0.360633,-0.360633 0.17243,0.430894 0.151224,0.945728 -0.04713,1.144077 C 10.7136,55.6566 10.572521,55.304051 10.59844,54.674809 Z M 84.68448,48.158545 c 0.01218,-0.9849 0.145944,-1.31555 0.297284,-0.734776 0.151341,0.580773 0.14139,1.386601 -0.02214,1.790729 -0.163481,0.404126 -0.287304,-0.07105 -0.275139,-1.055953 z M 10.598445,47.511894 c 0.02864,-0.695366 0.170084,-0.836808 0.360633,-0.360634 0.17243,0.430895 0.151224,0.945729 -0.04713,1.144077 -0.198348,0.198348 -0.339427,-0.154202 -0.313508,-0.783443 z m 5.026608,0.348197 c -0.202901,-0.328301 -0.08445,-0.59691 0.263227,-0.59691 0.347675,0 0.632137,0.268609 0.632137,0.59691 0,0.3283 -0.118452,0.596909 -0.263227,0.596909 -0.144775,0 -0.429236,-0.268609 -0.632137,-0.596909 z M 12.938959,46.10459 c 0,-0.308926 0.265533,-0.725791 0.590073,-0.926367 0.338364,-0.209121 0.438434,0.03048 0.234592,0.561682 -0.39682,1.034096 -0.824665,1.223298 -0.824665,0.364685 z m 2.984549,-1.825957 c 0,-0.3283 0.284462,-0.59691 0.632137,-0.59691 0.347675,0 0.466128,0.26861 0.263227,0.59691 -0.202901,0.3283 -0.487362,0.59691 -0.632137,0.59691 -0.144776,0 -0.263227,-0.26861 -0.263227,-0.59691 z m 71.789739,0.183257 c 0.580775,-0.151343 1.386603,-0.14139 1.790729,0.02212 0.404125,0.163507 -0.07105,0.287333 -1.055951,0.275168 -0.984901,-0.01216 -1.315553,-0.145943 -0.734778,-0.297286 z M 29.055519,32.041986 c 1.113704,-1.149051 2.159221,-2.089184 2.323371,-2.089184 0.164151,0 -0.612758,0.940133 -1.726462,2.089184 -1.113703,1.149051 -2.159221,2.089184 -2.323371,2.089184 -0.16415,0 0.612758,-0.940133 1.726462,-2.089184 z m 38.202215,0 c -1.113702,-1.149051 -1.770769,-2.089176 -1.460143,-2.089166 0.310626,10e-6 1.314903,0.940143 2.231726,2.089183 2.12815,2.667182 1.81356,2.667175 -0.771583,-1.7e-5 z M 21.594149,31.743531 c 0.202901,-0.3283 0.63752,-0.596909 0.96582,-0.596909 0.3283,0 0.4309,0.268609 0.227999,0.596909 -0.202901,0.328301 -0.63752,0.59691 -0.96582,0.59691 -0.3283,0 -0.4309,-0.268609 -0.227999,-0.59691 z m -0.895365,-3.209914 c 0,-0.123952 0.409063,-0.564859 0.909029,-0.979794 0.760073,-0.630804 0.84742,-0.593875 0.533047,0.225367 -0.321075,0.83671 -1.442076,1.423165 -1.442076,0.754427 z m 54.242633,-0.819226 c -0.742478,-0.946732 -0.721366,-0.967844 0.225369,-0.225366 0.994302,0.779784 1.310503,1.269958 0.819222,1.269958 -0.123948,0 -0.594014,-0.470066 -1.044591,-1.044592 z m -7.323741,-2.43738 c -0.169087,-0.273584 0.07186,-0.497425 0.535422,-0.497425 0.463566,0 0.704508,0.223841 0.535422,0.497425 -0.169081,0.273583 -0.410023,0.497424 -0.535422,0.497424 -0.125399,0 -0.366341,-0.223841 -0.535422,-0.497424 z M 24.280242,24.952159 c 0,-0.123951 0.470066,-0.594018 1.044592,-1.044591 0.946732,-0.742479 0.967845,-0.721366 0.225366,0.225366 -0.779784,0.994301 -1.269958,1.310502 -1.269958,0.819225 z m 47.079717,-0.819225 c -0.742478,-0.946732 -0.721365,-0.967845 0.225369,-0.225366 0.994302,0.779784 1.310503,1.269958 0.819223,1.269958 -0.123948,0 -0.594015,-0.470067 -1.044592,-1.044592 z m -53.290815,-0.05789 c -0.171852,-0.278061 0.518633,-1.285346 1.534411,-2.238411 1.624618,-1.524314 1.761029,-1.567164 1.133548,-0.356079 -0.392327,0.75722 -1.097122,1.524042 -1.566211,1.704048 -0.469089,0.180007 -0.704275,0.567748 -0.522635,0.861648 0.18164,0.293902 0.19595,0.534365 0.0318,0.534365 -0.16415,0 -0.439061,-0.227506 -0.610912,-0.505568 z m 59.000046,-2.031295 -1.753177,-1.939956 1.939956,1.753178 c 1.808314,1.634208 2.214326,2.126734 1.753178,2.126734 -0.102728,0 -0.975709,-0.87298 -1.939957,-1.939956 z M 53.230358,16.223882 c -0.202901,-0.328301 -0.08445,-0.59691 0.263227,-0.59691 0.347675,0 0.632137,0.268609 0.632137,0.59691 0,0.3283 -0.118452,0.596909 -0.263227,0.596909 -0.144775,0 -0.429236,-0.268609 -0.632137,-0.596909 z m -8.76711,-2.795396 c 0.430894,-0.17243 0.945729,-0.151224 1.144077,0.04713 0.198348,0.198348 -0.154202,0.339427 -0.783444,0.313509 -0.695366,-0.02864 -0.836807,-0.170084 -0.360633,-0.360633 z m 7.162915,0 c 0.430894,-0.17243 0.945729,-0.151224 1.144077,0.04713 0.198348,0.198348 -0.154202,0.339427 -0.783444,0.313509 -0.695365,-0.02864 -0.836807,-0.170084 -0.360633,-0.360633 z"
         id="path4244" />
      <path
         style="fill:#494949;fill-opacity:1;stroke-width:0.59691"
         d="m 43.312613,91.583719 c -0.0378,-0.246225 -0.02469,-0.895525 0.02915,-1.442892 0.05384,-0.547366 -0.25099,-1.117062 -0.6774,-1.265997 -0.426411,-0.148929 -0.003,-0.171152 0.940823,-0.04936 0.943864,0.121775 2.55552,0.242613 3.581458,0.268531 1.025938,0.02591 1.529581,0.182607 1.119205,0.348196 -1.593421,0.642961 -0.705761,1.924472 1.492274,2.154396 1.240543,0.129768 0.309198,0.278876 -2.089183,0.33449 -2.380177,0.05521 -4.358527,-0.101117 -4.396331,-0.347342 z m -3.027732,-0.556982 c 0.430894,-0.172429 0.945728,-0.151227 1.144077,0.0471 0.198347,0.198347 -0.154202,0.339427 -0.783444,0.313509 -0.695366,-0.02865 -0.836808,-0.170084 -0.360633,-0.360629 z m -5.133138,-1.188752 c -2.196138,-0.776985 -2.503,-1.087676 -2.164258,-2.191285 0.217089,-0.707266 0.439254,-1.34147 0.4937,-1.409345 0.05444,-0.06787 1.699885,0.387752 3.656532,1.012496 1.956647,0.624738 3.056145,1.15034 2.443329,1.167991 -0.814689,0.02346 -1.030287,0.353024 -0.80202,1.225921 0.366764,1.402505 -0.135987,1.429425 -3.627283,0.194222 z m 19.306838,-2.526193 c -0.183978,-0.297684 0.203083,-0.400657 0.860137,-0.228837 1.393776,0.364479 1.56996,0.770079 0.334506,0.770079 -0.473075,0 -1.010665,-0.243557 -1.194643,-0.541242 z m 10.809456,0.1433 c -0.591848,-0.591841 -0.481497,-2.586606 0.143085,-2.586606 0.297565,0 0.406949,0.512722 0.243074,1.139387 -0.200073,0.765071 0.06341,1.232571 0.802019,1.423033 0.820984,0.2117 0.860266,0.301206 0.154868,0.352887 -0.519812,0.03808 -1.124183,-0.109832 -1.343046,-0.328701 z m 4.710196,-0.1433 c -0.18398,-0.297684 0.20308,-0.400657 0.860134,-0.228837 1.393778,0.364479 1.569962,0.770079 0.334509,0.770079 -0.473075,0 -1.010664,-0.243557 -1.194643,-0.541242 z M 42.18753,86.062305 c -1.520775,-0.32011 -1.704837,-0.46113 -0.676519,-0.518332 1.12995,-0.06285 1.346684,-0.330891 1.08297,-1.339334 -0.295789,-1.131096 -0.141806,-1.223181 1.497269,-0.895364 1.004831,0.200967 2.532065,0.3866 3.393853,0.412518 0.861788,0.02591 1.231126,0.182606 0.820751,0.348195 -1.468268,0.592457 -0.734723,1.918098 1.193819,2.157422 1.066976,0.132413 0.3283,0.248375 -1.641502,0.257698 -1.969801,0.0093 -4.52159,-0.180941 -5.670641,-0.422803 z m -6.179284,-1.701664 c -1.68308,-0.743845 -2.491255,-1.571913 -3.015283,-3.089508 l -0.715912,-2.073288 3.124031,1.492274 c 2.472901,1.181242 3.056949,1.725528 2.80218,2.61139 -0.177019,0.615509 0.04265,1.350072 0.488161,1.632357 1.336353,0.846752 -0.224945,0.513199 -2.683177,-0.573225 z m 6.776194,-3.608139 c -1.671113,-0.301851 -1.867755,-0.466306 -0.98266,-0.821813 0.709913,-0.28515 0.973508,-0.791085 0.735416,-1.411542 -0.309949,-0.807715 -0.06193,-0.905256 1.504956,-0.591878 1.031835,0.206364 2.581163,0.39642 3.442951,0.422337 0.861788,0.02591 1.231126,0.182607 0.820751,0.348196 -1.468268,0.592456 -0.734723,1.918097 1.193819,2.157422 1.08555,0.134717 0.494038,0.248213 -1.343047,0.257698 -1.805651,0.0093 -4.223135,-0.152863 -5.372186,-0.36042 z M 75.614468,79.29036 c 0,-1.214622 0.451329,-2.405122 1.152304,-3.039494 1.105716,-1.000659 1.139101,-0.992332 0.825747,0.20594 -0.43378,1.658776 0.799178,1.621786 2.758755,-0.08276 0.841911,-0.732337 0.197798,0.07349 -1.431365,1.790728 -1.629158,1.717244 -3.039357,3.122255 -3.133776,3.122255 -0.09441,0 -0.171665,-0.898504 -0.171665,-1.996669 z M 34.427705,77.73784 c -1.805651,-0.936175 -3.551612,-1.551959 -3.879912,-1.36841 -0.3283,0.183544 -0.415451,0.131583 -0.193668,-0.115478 0.480898,-0.535708 -2.405206,-3.920568 -3.342873,-3.920568 -0.359212,0 -1.024384,-0.604371 -1.478161,-1.343046 -0.795973,-1.295718 -0.784775,-1.307298 0.317731,-0.328653 1.303636,1.157181 3.085365,0.539708 2.266383,-0.785431 -0.271893,-0.439935 0.835284,0.318845 2.460393,1.686168 1.625108,1.367323 4.432094,3.171966 6.237746,4.010313 1.805651,0.838342 2.781608,1.526889 2.168793,1.530094 -0.819303,0.0042 -1.031581,0.321812 -0.80202,1.199651 0.396868,1.517625 0.206562,1.489003 -3.754412,-0.56464 z m 41.202647,-6.413818 c -0.0087,-1.704201 0.21392,-3.24058 0.494796,-3.414168 0.280876,-0.173593 0.383867,0.347778 0.228873,1.15859 -0.200573,1.049212 -0.01797,1.474212 0.633393,1.474212 0.503362,0 1.050692,-0.335762 1.216281,-0.746137 0.179861,-0.445737 0.320045,-0.325579 0.348195,0.298454 0.02591,0.574526 -0.159267,1.044592 -0.411527,1.044592 -0.25226,0 -0.916639,0.738676 -1.476391,1.641502 l -1.017736,1.641501 -0.01588,-3.098546 z M 10.437359,65.933546 C 7.4380883,58.202712 6.80624,48.784474 8.7734843,41.13208 c 0.6332083,-2.463121 0.8309495,-2.713018 1.4629077,-1.848763 0.436328,0.596714 1.033468,0.812234 1.482144,0.534936 0.536661,-0.331675 0.65072,-0.144494 0.399089,0.654945 -0.710783,2.258179 -1.566304,7.61104 -1.566304,9.800121 0,1.956407 -0.155907,2.209513 -1.1938191,1.938093 -1.0286096,-0.268987 -1.1938192,-0.01831 -1.1938192,1.811383 0,2.29919 0.8969915,3.326531 1.9687163,2.254807 0.496563,-0.496563 0.862355,0.267824 1.407812,2.941871 0.405315,1.987012 1.438021,5.146141 2.294903,7.020282 0.856882,1.874147 1.220677,3.071775 0.808434,2.661399 -1.03836,-1.033656 -2.176403,-0.932838 -2.406958,0.213222 -0.106147,0.52765 -0.915801,-0.903721 -1.799231,-3.18083 z m 6.41262,1.089038 c -1.35278,-2.669583 -1.384264,-2.897787 -0.362943,-2.630706 0.703059,0.183854 1.193959,-0.0576 1.321994,-0.650166 0.118304,-0.547551 0.984884,0.555019 2.06764,2.630706 l 1.863978,3.573328 h -1.704695 c -1.441271,0 -1.933596,-0.451711 -3.185974,-2.923162 z m 4.769362,-2.504692 c -2.948478,-6.225219 -3.178294,-7.821031 -1.251836,-8.692589 1.337544,-0.605124 1.525099,-0.552823 1.525099,0.42529 0,1.73203 2.27324,7.390886 3.978407,9.903589 0.903543,1.331449 1.112457,1.913537 0.50619,1.410378 -0.908723,-0.754171 -1.129999,-0.72318 -1.848088,0.258868 -0.748169,1.023181 -0.989269,0.749289 -2.909772,-3.305536 z m 53.995127,-1.436606 c 0,-0.492451 0.260181,-0.895365 0.578179,-0.895365 0.317991,0 0.423561,0.402914 0.234591,0.895365 -0.188976,0.49245 -0.449151,0.895364 -0.578179,0.895364 -0.129022,0 -0.234591,-0.402914 -0.234591,-0.895364 z M 13.601404,57.833894 c -0.649268,-3.728377 -0.860106,-12.189507 -0.267123,-10.71994 0.16559,0.410375 0.77601,0.746137 1.356489,0.746137 0.893702,0 1.112858,0.754548 1.430304,4.924504 0.206189,2.708477 0.557007,5.570878 0.779598,6.360891 0.30853,1.095029 0.218988,1.321604 -0.376781,0.953399 -0.486575,-0.300721 -1.060474,-0.101455 -1.520766,0.528031 -0.631293,0.863345 -0.836035,0.455382 -1.401721,-2.793022 z m 63.206883,1.502192 c 0,-0.691942 -0.244906,-1.409438 -0.544238,-1.594436 -0.299338,-0.184997 -0.544244,-2.204682 -0.544244,-4.488188 0,-2.283506 -0.174787,-4.947636 -0.388421,-5.92029 -0.345468,-1.572904 -0.252278,-1.732861 0.842699,-1.446517 0.98453,0.257461 1.234749,0.039 1.249266,-1.090722 0.01677,-1.304939 0.06758,-1.327586 0.666348,-0.29699 0.475438,0.818319 0.461578,1.231014 -0.05199,1.548423 -0.479038,0.296059 -0.666587,2.544591 -0.593782,7.118748 0.05856,3.677301 -0.06054,6.852962 -0.26461,7.057024 -0.204065,0.204064 -0.371027,-0.19511 -0.371028,-0.887052 z M 18.623869,49.949274 c 0.120646,-2.954702 0.648767,-6.608927 1.173601,-8.1205 0.834863,-2.404487 1.16054,-2.74053 2.603233,-2.686093 l 1.64899,0.06222 -1.092092,2.877379 c -0.600651,1.582558 -1.25499,4.43589 -1.454086,6.340738 -0.308628,2.95279 -0.520402,3.421933 -1.436537,3.182359 -0.841008,-0.219929 -1.138433,0.153354 -1.368505,1.717542 -0.161678,1.099198 -0.19525,-0.418942 -0.0746,-3.373645 z m -2.606112,-3.879912 c 0,-0.820751 0.135482,-1.156513 0.301072,-0.746137 0.16559,0.410375 0.16559,1.081898 0,1.492274 -0.16559,0.410375 -0.301072,0.07461 -0.301072,-0.746137 z m -2.02874,-3.283003 c 0.358513,-2.394372 4.403427,-10.964474 6.057178,-12.833557 l 1.320353,-1.492274 -1.020659,1.673884 c -0.978913,1.605418 -0.97326,1.686278 0.138208,1.976933 1.083531,0.28335 1.011766,0.595748 -1.103952,4.805564 -1.24455,2.476382 -2.262818,5.016648 -2.262818,5.645036 0,0.909269 -0.293708,1.068807 -1.438637,0.781448 -0.933395,-0.234267 -1.529801,-0.08104 -1.69822,0.43631 -0.142771,0.438561 -0.138925,-0.0084 0.0085,-0.993344 z m 58.987869,-3.102663 c -0.604401,-1.461303 -2.175181,-4.018492 -3.490614,-5.682642 -1.315434,-1.66415 -2.056348,-2.818468 -1.646474,-2.565151 1.288382,0.796261 1.848951,-1.045905 0.733506,-2.41046 -0.559411,-0.684347 0.271176,0.08239 1.845752,1.70387 2.364001,2.434407 6.946834,9.862518 6.279089,10.177492 -0.103575,0.04886 -0.735971,0.391446 -1.405334,0.761315 -1.098421,0.606958 -1.3241,0.413584 -2.315925,-1.984424 z m 6.186341,0.629025 c -0.330031,-0.868051 -0.77036,-1.853831 -0.978508,-2.190622 -0.228772,-0.370163 0.0082,-0.463995 0.599047,-0.237247 0.583467,0.223898 1.190554,-0.0056 1.506044,-0.569358 0.432402,-0.772657 0.639374,-0.626533 1.137817,0.803299 0.445462,1.277855 0.410274,2.019905 -0.130884,2.75998 -1.014143,1.386926 -1.433269,1.275724 -2.133516,-0.566052 z m 4.84154,-1.704729 c -0.03337,-0.656601 -0.977273,-2.894675 -2.097559,-4.973498 -1.301334,-2.414793 -1.719386,-3.657846 -1.157664,-3.442294 0.483568,0.185562 1.031496,-0.05946 1.217618,-0.544487 0.186122,-0.48503 0.559842,-0.745017 0.830492,-0.577747 0.480262,0.296819 4.755006,8.950138 4.755006,9.625512 0,0.187213 -0.649294,0.177426 -1.442874,-0.02175 -0.892559,-0.224018 -1.55757,-0.07795 -1.743602,0.382973 -0.165404,0.409812 -0.328038,0.207893 -0.361417,-0.448707 z M 12.956266,36.299963 c -0.01239,-0.797259 -0.33972,-1.029898 -1.150718,-0.817817 -1.075839,0.281338 -1.088134,0.188032 -0.242063,-1.836903 1.094183,-2.618748 5.042088,-8.500556 6.501021,-9.685584 0.660775,-0.536718 0.899572,-0.58317 0.621843,-0.120964 -0.816516,1.358874 1.432988,1.586662 2.741991,0.277658 1.309005,-1.309004 1.081216,-3.558508 -0.277657,-2.741992 -0.462206,0.277729 -0.415754,0.03893 0.120964,-0.621842 1.185027,-1.458934 7.066835,-5.406838 9.685583,-6.501021 2.024935,-0.846072 2.118242,-0.833776 1.836903,0.242063 -0.212081,0.810997 0.02056,1.138334 0.817817,1.150718 0.612816,0.0095 -0.766055,1.005964 -3.064157,2.214322 -5.581677,2.934884 -12.44232,9.795528 -15.377205,15.377204 -1.208358,2.298102 -2.204803,3.676973 -2.214322,3.064158 z m 11.920886,-0.06339 c 0,-0.757185 -0.333824,-0.963523 -1.194643,-0.738414 -1.376483,0.359959 -1.227352,2.38e-4 1.399541,-3.375851 0.987412,-1.269024 3.128433,-3.361101 4.757823,-4.64906 l 2.962527,-2.341743 0.687983,1.366057 c 0.623313,1.237649 0.448668,1.54987 -1.857936,3.321518 -1.400256,1.075504 -3.493029,3.195852 -4.650608,4.711886 -1.363313,1.785477 -2.104687,2.386276 -2.104687,1.705607 z m 50.542532,-3.284456 c -0.517598,-0.876225 -2.498627,-3.139811 -4.402291,-5.03019 -1.903665,-1.890379 -3.058291,-3.348358 -2.56584,-3.239954 0.593119,0.130565 0.880471,-0.245992 0.851241,-1.115501 -0.0419,-1.24675 0.0629,-1.220112 2.089183,0.530997 2.241617,1.937198 6.334506,6.612634 7.193065,8.216863 0.368055,0.687713 0.13526,1.117405 -0.859776,1.586988 -1.183559,0.55855 -1.489278,0.432687 -2.305582,-0.949203 z M 23.077895,30.421803 c 0.920955,-1.076609 0.725065,-2.14632 -0.439154,-2.398123 -0.818584,-0.177047 -0.398855,-0.828904 1.939956,-3.012831 3.422291,-3.195656 8.863301,-6.44239 8.289193,-4.946288 -0.212508,0.553788 0.04355,1.077387 0.63854,1.305706 0.758725,0.29115 0.315194,0.769329 -1.878025,2.02473 -1.579238,0.903956 -4.285377,3.014035 -6.013644,4.689064 -1.728266,1.675028 -2.869856,2.727012 -2.536866,2.337742 z m 41.486732,-1.077261 c -0.602002,-0.974054 -6.004291,-3.525331 -9.402998,-4.440645 -1.718799,-0.462893 -2.623696,-0.859302 -2.01088,-0.880907 0.833664,-0.02939 1.031197,-0.356728 0.784514,-1.300041 -0.297212,-1.136544 -0.144997,-1.223818 1.544976,-0.885823 2.362345,0.472469 9.784515,3.869743 10.599314,4.851516 0.436759,0.526263 0.333559,0.843853 -0.36079,1.110299 -0.558671,0.214382 -0.827143,0.752077 -0.630879,1.263528 0.388415,1.012198 0.04304,1.198376 -0.523257,0.282073 z m 10.751386,-4.770593 c -1.641501,-1.676485 -3.869114,-3.598629 -4.950249,-4.271433 -1.773794,-1.103849 -1.86687,-1.295546 -0.953402,-1.963494 0.628868,-0.459838 0.829824,-1.035479 0.530534,-1.519736 -0.939829,-1.520673 4.825441,2.933315 8.009273,6.187609 2.209449,2.258344 2.84089,3.202059 1.994394,2.980694 -0.843093,-0.220474 -1.303722,-0.0112 -1.442342,0.655296 -0.151305,0.727477 -0.970933,0.195589 -3.188208,-2.068936 z m -37.692208,0.913254 c 0.184676,-0.481258 -0.09066,-1.113661 -0.611865,-1.40534 -1.632153,-0.913398 4.327028,-2.527528 10.249322,-2.776176 2.954702,-0.124054 4.607504,-0.08912 3.672893,0.07764 -1.273032,0.227137 -1.629141,0.571454 -1.419631,1.372621 0.23977,0.91688 -0.241583,1.118795 -3.374439,1.415489 -2.009755,0.190333 -4.82364,0.761121 -6.253077,1.26842 -2.248845,0.7981 -2.553742,0.804479 -2.263203,0.04735 z m 24.604852,-3.720029 c -1.596092,-0.811158 -4.542267,-1.831663 -6.547053,-2.267789 -2.004786,-0.436126 -3.174999,-0.814311 -2.600474,-0.840411 0.650022,-0.02953 1.044592,-0.523484 1.044592,-1.307704 0,-1.132922 0.226154,-1.217869 2.238411,-0.840772 1.231126,0.230713 4.008891,1.267892 6.17281,2.304842 3.640975,1.744754 3.884407,1.980128 3.264051,3.156015 l -0.670342,1.270652 z M 37.210238,19.097298 c -0.193995,-0.741837 -0.041,-1.529405 0.343235,-1.766876 1.285561,-0.79452 7.986946,-1.704146 11.845867,-1.607922 2.176103,0.05426 2.967692,0.201412 1.832476,0.340643 -1.628788,0.199767 -1.942824,0.458182 -1.697384,1.396747 0.252137,0.964172 -0.01655,1.15163 -1.650671,1.15163 -1.879216,0 -7.344061,0.887596 -9.35292,1.519094 -0.647427,0.203523 -1.087134,-0.14053 -1.320603,-1.033316 z m 26.02633,-2.660576 c -1.719195,-0.813112 -4.744016,-1.808471 -6.72183,-2.21191 -2.661669,-0.542932 -3.421712,-0.907838 -2.925149,-1.404401 1.071725,-1.071724 0.04438,-1.968716 -2.254806,-1.968716 -1.829698,0 -2.080371,0.16521 -1.811384,1.193819 0.271421,1.037913 0.01831,1.193819 -1.938093,1.193819 -2.18908,0 -7.541941,0.855521 -9.800121,1.566304 -0.799438,0.251631 -0.986619,0.137573 -0.654944,-0.399089 0.277297,-0.448676 0.06178,-1.045816 -0.534937,-1.482143 -2.626071,-1.920231 12.619565,-3.3830017 19.657996,-1.886123 4.356692,0.926547 12.107009,3.923885 10.258297,3.967268 -1.202385,0.02822 -1.376546,1.244524 -0.328301,2.292769 0.940449,0.940452 0.738646,0.881446 -2.946728,-0.861597 z"
         id="path4242" />
      <path
         style="fill:#333333;fill-opacity:1;stroke-width:0.59691"
         d="M 14.53279,97.628503 C 7.9870983,95.617449 3.6503986,88.183441 5.1399837,81.527273 6.5628882,75.169063 11.817135,70.58543 18.216053,70.120127 c 2.845965,-0.206948 3.9589,0.03802 7.06518,1.554991 3.274764,1.59927 3.92559,2.227118 5.819869,5.614407 2.833558,5.066879 2.93154,8.852802 0.3458,13.361326 -2.11285,3.683983 -4.895625,5.948467 -8.726888,7.101511 -3.41846,1.028804 -4.488147,1.012621 -8.187224,-0.123859 z m 9.448997,-5.620262 c 7.701745,-4.680237 4.009597,-16.919892 -5.103964,-16.919892 -9.1176035,0 -12.6911513,12.204629 -4.973043,16.984281 4.137715,2.562396 5.253321,0.413819 1.467645,-2.826576 -2.842588,-2.433147 -3.486819,-4.727536 -2.130168,-7.586464 1.918623,-4.043197 6.91569,-4.92897 10.061224,-1.783441 3.710967,3.710969 2.028422,9.045705 -4.166234,13.20961 -1.849765,1.243368 2.685135,0.234716 4.84454,-1.077518 z m 28.800889,0.208602 c -1.282985,-0.335278 -1.194218,1.368541 -1.082562,-20.778823 0.08333,-16.529029 0.19987,-18.585145 1.091779,-19.262544 3.246482,-2.465684 14.22685,-2.987387 19.838027,-0.942553 3.233113,1.178217 3.280054,1.229474 3.088882,3.372962 -0.106769,1.19711 -0.0018,2.488084 0.23372,2.86883 0.626331,1.013425 0.757323,4.711206 0.166896,4.711206 -0.718285,0 -0.641744,20.736837 0.07819,21.181779 1.037703,0.641338 5.315665,-0.883146 6.259469,-2.230609 1.276825,-1.822926 1.201907,-5.151026 -0.127375,-5.65853 -1.12906,-0.431058 -3.603585,-2.548267 -2.978334,-2.548267 0.209306,0 -0.02668,-0.97464 -0.524403,-2.165863 C 77.73884,68.16018 76.889934,46.069362 77.87798,46.069362 c 0.325387,0 0.747456,-0.620919 0.93793,-1.379819 0.462187,-1.841494 2.745653,-4.359087 4.409156,-4.861227 0.738676,-0.222975 1.343047,-0.626731 1.343047,-0.897235 0,-0.730333 5.930452,-0.07607 7.711213,0.850715 2.053643,1.068811 4.00349,3.221509 4.784129,5.281833 0.369546,0.975343 0.636669,6.432413 0.636669,13.006563 0,10.172362 -0.122402,11.566128 -1.201495,13.681331 -0.660827,1.295324 -1.837103,2.771594 -2.613951,3.280603 -1.128213,0.739237 -1.467299,1.586831 -1.684986,4.211854 -0.300514,3.623779 -1.36167,5.420106 -4.887788,8.274027 -2.009449,1.626381 -2.762611,1.846414 -6.975062,2.037712 -3.476641,0.157882 -4.722373,0.428432 -4.722373,1.02561 0,1.655069 -2.384236,2.046451 -12.048179,1.97774 -5.356461,-0.03808 -10.209088,-0.192085 -10.783614,-0.342226 z m 8.38658,-2.095552 c 0.557113,-0.557114 0.716291,-0.557114 0.716291,0 0,0.977732 4.163713,0.948322 4.225493,-0.02985 0.03772,-0.596909 0.107337,-0.596909 0.348196,0 0.193094,0.478531 1.563652,0.746137 3.821415,0.746137 3.15302,0 3.555474,-0.140136 3.857051,-1.343046 0.185185,-0.738676 0.257459,-9.174495 0.160598,-18.746263 -0.103969,-10.27451 0.04507,-17.266282 0.363805,-17.068923 0.29695,0.18386 0.355501,0.03591 0.130108,-0.328776 -0.225387,-0.364688 -0.848173,-0.494847 -1.383965,-0.289244 -0.535792,0.205602 -0.822941,0.126719 -0.638108,-0.175297 0.427871,-0.699136 -2.655597,-1.057809 -9.093864,-1.057809 -6.438267,0 -9.521736,0.358673 -9.093865,1.057809 0.184833,0.302016 -0.102315,0.380899 -0.638107,0.175297 -0.535793,-0.205603 -1.158578,-0.07544 -1.383967,0.289244 -0.22539,0.364687 -0.166839,0.512636 0.130111,0.328776 0.318752,-0.197359 0.467773,6.794413 0.363803,17.068923 -0.09686,9.571768 -0.02459,18.007587 0.1606,18.746263 0.300613,1.199078 0.706607,1.343046 3.78741,1.343046 1.897886,0 3.773034,-0.322331 4.166995,-0.716291 z m -1.243268,-2.742006 c -0.352124,-0.716984 -0.153217,-1.913889 0.318058,-1.913889 0.246225,0 0.716291,0 1.044591,0 0.928613,0 0.701883,1.622722 -0.279335,1.999253 -0.48194,0.184934 -0.96943,0.146523 -1.083314,-0.08536 z M 54.53989,86.874413 c -0.622331,-0.622332 0.165902,-1.409017 1.411789,-1.409017 0.637225,0 1.158591,0.402914 1.158591,0.895364 0,0.885366 -1.832475,1.251558 -2.57038,0.513653 z M 65.467005,86.36076 c 0,-0.49245 0.402914,-0.895364 0.895364,-0.895364 0.492451,0 0.895365,0.402914 0.895365,0.895364 0,0.492451 -0.402914,0.895365 -0.895365,0.895365 -0.49245,0 -0.895364,-0.402914 -0.895364,-0.895365 z m 4.592533,0.513653 c -0.622332,-0.622332 0.165905,-1.409017 1.411792,-1.409017 0.637225,0 1.15859,0.402914 1.15859,0.895364 0,0.885366 -1.832477,1.251558 -2.570382,0.513653 z M 54.836266,81.436256 c 0.110643,-0.574526 0.596727,-1.044592 1.080185,-1.044592 0.483458,0 0.969542,0.470066 1.080185,1.044592 0.141146,0.732915 -0.18115,1.044592 -1.080185,1.044592 -0.899035,0 -1.221331,-0.311677 -1.080185,-1.044592 z m 5.258552,-0.149228 c 0,-0.663232 0.39794,-1.193819 0.895365,-1.193819 0.497422,0 0.895364,0.530587 0.895364,1.193819 0,0.663233 -0.397942,1.19382 -0.895364,1.19382 -0.497425,0 -0.895365,-0.530587 -0.895365,-1.19382 z m 5.372187,0 c 0,-0.663232 0.397941,-1.193819 0.895364,-1.193819 0.497423,0 0.895365,0.530587 0.895365,1.193819 0,0.663233 -0.397942,1.19382 -0.895365,1.19382 -0.497423,0 -0.895364,-0.530587 -0.895364,-1.19382 z m 4.88891,0.149228 c 0.110643,-0.574526 0.596725,-1.044592 1.080186,-1.044592 0.483461,0 0.969542,0.470066 1.080185,1.044592 0.141146,0.732915 -0.18115,1.044592 -1.080185,1.044592 -0.899036,0 -1.221331,-0.311677 -1.080186,-1.044592 z M 54.722632,76.511752 c 0,-0.795878 0.39794,-1.19382 1.193819,-1.19382 0.795879,0 1.193819,0.397942 1.193819,1.19382 0,0.795877 -0.39794,1.193819 -1.193819,1.193819 -0.795879,0 -1.193819,-0.397942 -1.193819,-1.193819 z m 5.372186,0 c 0,-0.663233 0.39794,-1.19382 0.895365,-1.19382 0.497422,0 0.895364,0.530587 0.895364,1.19382 0,0.663232 -0.397942,1.193819 -0.895364,1.193819 -0.497425,0 -0.895365,-0.530587 -0.895365,-1.193819 z m 5.372187,0 c 0,-0.663233 0.397941,-1.19382 0.895364,-1.19382 0.497423,0 0.895365,0.530587 0.895365,1.19382 0,0.663232 -0.397942,1.193819 -0.895365,1.193819 -0.497423,0 -0.895364,-0.530587 -0.895364,-1.193819 z m 4.775277,0 c 0,-0.795878 0.397941,-1.19382 1.193819,-1.19382 0.795877,0 1.193819,0.397942 1.193819,1.19382 0,0.795877 -0.397942,1.193819 -1.193819,1.193819 -0.795878,0 -1.193819,-0.397942 -1.193819,-1.193819 z M 62.11747,72.076797 c -0.594325,-1.548784 0.238693,-2.828868 1.705365,-2.6206 0.986531,0.140088 1.345715,0.589394 1.345715,1.683368 0,1.093974 -0.359184,1.54328 -1.345715,1.683369 -0.807189,0.114618 -1.489642,-0.183968 -1.705365,-0.746137 z m 5.886401,-2.526372 c -1.063532,-0.429148 -0.924219,-2.558361 0.195511,-2.98804 0.517909,-0.198741 1.367813,0.06482 1.888682,0.585687 0.780597,0.780591 0.812066,1.109649 0.179079,1.872351 -0.803482,0.968133 -1.040127,1.02355 -2.263272,0.530002 z m -6.921173,-1.890091 c -1.304664,-1.441638 -1.255458,-3.853409 0.103713,-5.083443 1.272366,-1.151475 4.320551,-1.306067 5.355031,-0.271588 0.557114,0.557114 0.716292,0.415658 0.716292,-0.636556 0,-1.123686 0.278064,-1.320856 1.641501,-1.163975 2.084223,0.239816 2.662688,2.565136 0.786273,3.160685 -0.672801,0.213539 -1.494285,0.220755 -1.825523,0.01606 -0.353728,-0.218618 -0.602251,0.363685 -0.602251,1.411106 0,0.98083 -0.422099,2.205426 -0.938002,2.721323 -1.266517,1.266517 -4.025069,1.185618 -5.237034,-0.153591 z m -4.146219,-4.056442 c -0.232715,-0.232717 -0.423118,-1.067716 -0.423118,-1.855559 0,-1.210507 0.254321,-1.403174 1.641501,-1.243561 1.302628,0.149883 1.641501,0.496941 1.641501,1.681149 0,1.047397 -0.363222,1.544271 -1.218382,1.666679 -0.670111,0.09592 -1.408786,-0.016 -1.641502,-0.248708 z m 5.165597,-4.102322 c -0.206274,-0.537543 -0.0993,-1.253096 0.237719,-1.590117 0.973023,-0.973025 2.828755,-0.317237 2.828755,0.99964 0,1.518341 -2.523925,2.004345 -3.066474,0.590477 z m -7.379444,-4.522332 c 0,-0.854237 0.321445,-1.175683 1.037737,-1.037737 1.555986,0.299655 1.729516,2.275324 0.19985,2.275324 -0.854237,0 -1.237587,-0.38335 -1.237587,-1.237587 z m 15.631964,0.19985 c 0.299655,-1.555986 2.275324,-1.729516 2.275324,-0.19985 0,0.854237 -0.383353,1.237587 -1.237585,1.237587 -0.854237,0 -1.175685,-0.321445 -1.037739,-1.037737 z M 86.65677,86.40163 c 1.162852,-0.886947 2.545092,-2.270148 3.07165,-3.073774 1.181331,-1.802941 1.918001,-7.203182 0.896498,-6.571855 -0.376542,0.232711 -0.684619,1.307674 -0.684619,2.388796 0,2.552464 -2.165421,5.748592 -4.787174,7.06581 -1.256423,0.631244 -3.433579,1.044031 -5.509517,1.044592 -2.160705,5.79e-4 -3.43223,0.251777 -3.43223,0.678042 0,0.468663 1.282352,0.585359 4.165557,0.379067 3.323742,-0.237808 4.592838,-0.623943 6.279835,-1.910678 z m -3.551474,-2.876191 c 2.140864,-1.976666 3.620143,-6.416778 2.137825,-6.416778 -0.371254,0 -0.675009,0.74606 -0.675009,1.657911 0,3.059263 -2.407921,5.312352 -6.566006,6.143787 l -2.089183,0.417747 2.545634,0.06864 c 2.095075,0.05653 2.917503,-0.27471 4.646739,-1.871312 z m 2.527231,1.00836 c 2.623537,-1.837598 4.293064,-7.425138 2.218588,-7.425138 -0.550733,0 -0.895364,0.55943 -0.895364,1.453415 0,1.98833 -0.834158,3.959009 -2.353567,5.560273 -1.470147,1.549339 -0.912281,1.772111 1.030343,0.41145 z M 92.84381,74.296548 c 3.260422,-2.388695 3.660554,-4.191475 3.661569,-16.497239 0.0012,-12.713638 -0.396521,-14.352942 -4.024735,-16.5953 -4.280534,-2.645518 -10.274987,-0.998311 -12.360469,3.396516 -0.84523,1.781186 -0.966117,3.867907 -0.809684,13.976112 0.168925,10.915416 0.284487,12.019287 1.420137,13.565665 2.763017,3.762291 8.520652,4.786248 12.113182,2.154246 z m -6.634196,-3.801705 c -1.215726,-0.708096 -1.42988,-4.103413 -0.328301,-5.204992 1.166427,-1.166427 4.523501,-0.885193 5.231805,0.438287 0.916967,1.713369 0.757031,2.884667 -0.57591,4.217608 -1.308312,1.308312 -2.717186,1.487075 -4.327594,0.549097 z M 85.881313,60.27581 c -0.39396,-0.39396 -0.716291,-1.60846 -0.716291,-2.69889 0,-1.535519 0.336507,-2.135923 1.492274,-2.662524 3.080537,-1.403588 6.106642,1.838541 4.506578,4.82829 -0.756876,1.414236 -4.067348,1.748334 -5.282561,0.533124 z m 0.328301,-9.478983 c -1.215726,-0.708095 -1.42988,-4.103412 -0.328301,-5.204993 1.166427,-1.166426 4.523501,-0.885192 5.231805,0.438286 0.916967,1.713373 0.757031,2.88467 -0.57591,4.217609 -1.308312,1.308313 -2.717186,1.487075 -4.327594,0.549098 z"
         id="path4240" />
    </g>
  </g>
</svg>
