<?xml version="1.0" encoding="UTF-8" standalone="no"?>
<!-- Created with Inkscape (http://www.inkscape.org/) -->

<svg
   width="100mm"
   height="100mm"
   viewBox="0 0 100 100"
   version="1.1"
   id="svg11799"
   inkscape:version="1.1.1 (3bf5ae0d25, 2021-09-20)"
   sodipodi:docname="add_list_type_device_6002.svg"
   xmlns:inkscape="http://www.inkscape.org/namespaces/inkscape"
   xmlns:sodipodi="http://sodipodi.sourceforge.net/DTD/sodipodi-0.dtd"
   xmlns="http://www.w3.org/2000/svg"
   xmlns:svg="http://www.w3.org/2000/svg">
  <sodipodi:namedview
     id="namedview11801"
     pagecolor="#ffffff"
     bordercolor="#666666"
     borderopacity="1.0"
     inkscape:pageshadow="2"
     inkscape:pageopacity="0.0"
     inkscape:pagecheckerboard="true"
     inkscape:document-units="mm"
     showgrid="false"
     width="100mm"
     inkscape:zoom="0.58974467"
     inkscape:cx="378.97757"
     inkscape:cy="127.17368"
     inkscape:window-width="1440"
     inkscape:window-height="890"
     inkscape:window-x="-6"
     inkscape:window-y="-6"
     inkscape:window-maximized="1"
     inkscape:current-layer="layer1" />
  <defs
     id="defs11796" />
  <g
     inkscape:label="Laag 1"
     inkscape:groupmode="layer"
     id="layer1">
    <g
       id="g11815"
       transform="translate(-3.5891258,-0.89728097)">
      <path
         style="fill:#d0d0d0;fill-opacity:1;stroke-width:0.613526"
         d="m 60.819548,98.102752 c 0.610757,-0.674879 1.24851,-1.227052 1.41723,-1.227052 0.168723,0 -0.192947,0.552173 -0.803704,1.227052 -0.610756,0.674878 -1.24851,1.227052 -1.417229,1.227052 -0.16872,0 0.192947,-0.552174 0.803703,-1.227052 z m -10.574885,-1.05378 c 0.932597,-0.141025 2.31303,-0.137252 3.067629,0.0083 0.754598,0.145626 -0.0084,0.261006 -1.695632,0.256405 -1.687196,-0.0049 -2.304595,-0.123761 -1.371997,-0.26478 z M 19.717656,94.428621 c -0.214942,-0.347783 0.03133,-0.450635 0.577317,-0.241122 1.062883,0.407866 1.257352,0.847623 0.374837,0.847623 -0.317525,0 -0.745994,-0.272927 -0.952154,-0.606501 z m 27.124902,-0.03123 c 0.78219,-0.703009 3.994221,-1.312847 3.605966,-0.68464 -0.192863,0.312058 -1.190974,0.690714 -2.218023,0.841451 -1.02705,0.150743 -1.651624,0.08017 -1.387943,-0.156811 z m 8.148494,0.195463 c -0.843598,-0.151338 -1.809901,-0.547406 -2.14734,-0.880152 -0.770661,-0.759938 2.803549,0.01172 3.650479,0.788105 0.320567,0.293872 0.45861,0.496716 0.306763,0.450763 -0.151848,-0.04595 -0.966304,-0.207378 -1.809902,-0.358716 z M 39.537869,93.388965 c 0.442889,-0.177229 0.972055,-0.155437 1.175924,0.04841 0.20387,0.203869 -0.158494,0.348875 -0.805252,0.322236 -0.714723,-0.02945 -0.860102,-0.174818 -0.370672,-0.370668 z m 25.615804,-0.628103 c -0.332948,-0.874398 -0.262478,-0.944867 0.343452,-0.343452 0.419296,0.416179 0.607802,0.911233 0.418903,1.100131 -0.188898,0.188899 -0.531957,-0.151608 -0.762355,-0.756679 z m -52.860964,-0.946751 -1.168759,-1.380433 1.380433,1.168761 c 1.297267,1.098346 1.659736,1.592106 1.16876,1.592106 -0.116421,0 -0.737616,-0.621195 -1.380434,-1.380434 z m 13.555863,0.153382 c 0.610756,-0.674879 1.24851,-1.227052 1.417229,-1.227052 0.16872,0 -0.192947,0.552173 -0.803703,1.227052 -0.610757,0.674878 -1.24851,1.227052 -1.41723,1.227052 -0.168719,0 0.192947,-0.552174 0.803704,-1.227052 z m 31.596584,-0.920289 c -0.619423,-0.746361 -0.594969,-0.920289 0.129386,-0.920289 0.491237,0 0.893157,0.41413 0.893157,0.920289 0,0.506159 -0.05822,0.920289 -0.129386,0.920289 -0.07116,0 -0.473083,-0.41413 -0.893157,-0.920289 z m -5.023243,-0.112343 c 0.442889,-0.177229 0.972055,-0.155437 1.175924,0.04841 0.20387,0.203869 -0.158494,0.348876 -0.805252,0.322236 -0.714723,-0.02945 -0.860102,-0.174818 -0.370672,-0.370667 z m 6.863821,-0.19442 c 0,-0.337439 0.276086,-0.613526 0.613526,-0.613526 0.337439,0 0.613526,0.276087 0.613526,0.613526 0,0.337439 -0.276087,0.613526 -0.613526,0.613526 -0.33744,0 -0.613526,-0.276087 -0.613526,-0.613526 z m -44.86565,-1.07367 c -0.763147,-0.973089 -0.741447,-0.99479 0.23164,-0.231643 0.590519,0.46312 1.07367,0.946271 1.07367,1.07367 0,0.504956 -0.503819,0.179953 -1.30531,-0.842027 z m 32.79964,-0.460145 c 0,-0.506159 0.230072,-0.920289 0.511272,-0.920289 0.281199,0 0.511271,0.259424 0.511271,0.576488 0,0.31707 1.035325,0.684793 2.300723,0.817155 2.187295,0.228802 2.162089,0.245748 -0.511272,0.343801 -2.136371,0.07835 -2.811994,-0.117981 -2.811994,-0.817155 z m 11.767499,-0.320113 c 0.17419,-0.281848 -0.308581,-0.632631 -1.072823,-0.779522 -0.871079,-0.167425 -0.531101,-0.298253 0.911189,-0.35063 2.43658,-0.08848 3.141964,0.780399 1.072824,1.321492 -0.675344,0.176604 -1.08538,0.0905 -0.91119,-0.19134 z m -5.951784,-0.405755 c 0.442889,-0.17723 0.972055,-0.155437 1.175924,0.04841 0.20387,0.203868 -0.158494,0.348875 -0.805252,0.322236 -0.714723,-0.02945 -0.860102,-0.174818 -0.370672,-0.370668 z m -5.71346,-1.421473 c 0.208601,-0.337525 -0.258111,-0.635318 -1.037462,-0.661963 -0.783445,-0.02681 -1.046815,-0.195764 -0.589234,-0.378055 0.455075,-0.181291 1.421378,-0.02988 2.147341,0.336433 0.725962,0.366324 2.286236,0.768355 3.467273,0.893392 1.537931,0.162824 1.22295,0.255208 -1.109879,0.325531 -2.037761,0.06143 -3.115259,-0.13151 -2.878039,-0.515338 z M 59.07877,86.28428 c 0.246522,-0.398878 0.05438,-0.52478 -0.485,-0.317795 -0.49129,0.188525 -1.433862,-0.07779 -2.094605,-0.591807 -1.076574,-0.837505 -1.084623,-0.89414 -0.0775,-0.545271 0.618118,0.214115 1.929529,0.389301 2.914248,0.389301 2.038512,0 2.407822,0.922479 0.562501,1.405042 -0.781134,0.204273 -1.079357,0.08076 -0.819644,-0.33947 z M 46.40169,84.751943 c 1.431642,-0.279694 1.452076,-0.332561 0.306763,-0.793614 -0.864403,-0.347967 -0.94439,-0.506699 -0.270645,-0.537074 0.526024,-0.02374 1.492327,0.362225 2.147341,0.857654 1.108656,0.838542 1.021387,0.896349 -1.26317,0.836733 -1.726077,-0.04503 -1.999088,-0.152934 -0.920289,-0.363699 z m 5.981877,0.06043 c 0.421799,-0.170199 1.112016,-0.170199 1.533815,0 0.421799,0.170198 0.07669,0.309456 -0.766907,0.309456 -0.843598,0 -1.188707,-0.139258 -0.766908,-0.309456 z M 41.943401,83.915517 c 0.416176,-0.419295 0.911234,-0.607801 1.100131,-0.418903 0.188897,0.188899 -0.15161,0.531958 -0.756682,0.762355 -0.874396,0.332948 -0.944868,0.262479 -0.343449,-0.343452 z m 15.723622,-0.230624 c -0.233663,-0.608912 -1.195866,-0.920289 -2.843865,-0.920289 -1.369895,0 -2.319172,-0.171548 -2.109503,-0.381214 0.583222,-0.583224 8.412656,0.398884 8.412656,1.055264 0,0.317009 -0.759238,0.410744 -1.687196,0.208305 -1.299178,-0.283425 -1.47555,-0.217728 -0.766907,0.285676 0.652801,0.463739 0.691785,0.656491 0.134126,0.663154 -0.432389,0.0049 -0.945079,-0.404737 -1.139311,-0.910896 z M 45.225765,82.544152 c 0.732812,-0.631962 3.630028,-0.955008 3.630028,-0.404761 0,0.343869 -0.874274,0.625213 -1.942832,0.625213 -1.068557,0 -1.827795,-0.09921 -1.687196,-0.220452 z m 13.753206,-0.967021 1.227052,-0.48771 -1.227052,-0.318291 c -0.953111,-0.247233 -0.850383,-0.334176 0.460144,-0.38946 0.927958,-0.03914 1.687196,0.175382 1.687196,0.476715 0,0.600685 -1.525031,1.317719 -2.657663,1.249568 -0.394201,-0.02371 -0.164556,-0.262589 0.510323,-0.530822 z M 12.351002,78.469923 c 0.610756,-0.674879 1.24851,-1.227052 1.417229,-1.227052 0.16872,0 -0.192947,0.552173 -0.803703,1.227052 -0.610757,0.674878 -1.24851,1.227052 -1.41723,1.227052 -0.168719,0 0.192947,-0.552174 0.803704,-1.227052 z m 13.439277,-0.153382 -1.168759,-1.380433 1.380433,1.168761 c 1.297267,1.098346 1.659736,1.592106 1.16876,1.592106 -0.116421,0 -0.737616,-0.621195 -1.380434,-1.380434 z m 16.079348,0.654645 c 0.177193,-0.286701 0.579178,-0.362441 0.893301,-0.168297 0.802726,0.49611 0.712339,0.689579 -0.322168,0.689579 -0.491316,0 -0.748325,-0.234575 -0.571133,-0.521282 z m 12.943657,-0.501263 c -0.176485,-0.674879 -0.07064,-1.227052 0.235207,-1.227052 0.305848,0 0.556087,0.552173 0.556087,1.227052 0,0.674878 -0.105843,1.227052 -0.235207,1.227052 -0.129363,0 -0.379603,-0.552174 -0.556087,-1.227052 z m 3.955796,0 c 0,-0.843598 0.139254,-1.188707 0.309454,-0.766908 0.1702,0.421799 0.1702,1.112016 0,1.533815 -0.1702,0.421799 -0.309454,0.07669 -0.309454,-0.766907 z M 40.904188,76.436281 c -0.789266,-1.267483 -0.770832,-1.291564 0.337347,-0.44069 0.64473,0.495036 1.259626,0.950542 1.366436,1.012238 0.10681,0.06169 -0.045,0.26 -0.337346,0.440684 -0.29235,0.180683 -0.907247,-0.274823 -1.366437,-1.012232 z m -7.951632,-7.527135 c 0.02944,-0.714727 0.174818,-0.860102 0.370672,-0.370674 0.17723,0.442886 0.155433,0.972052 -0.04844,1.175927 -0.20387,0.203868 -0.348876,-0.158498 -0.322236,-0.805253 z m 32.565306,-0.869164 c 0,-0.843598 0.139258,-1.188706 0.309457,-0.766907 0.170198,0.421799 0.170198,1.112016 0,1.533815 -0.170199,0.421799 -0.309457,0.07669 -0.309457,-0.766908 z m 4.930945,-0.920288 c 0.01252,-1.012318 0.150007,-1.352175 0.30556,-0.755232 0.155554,0.596942 0.145326,1.425202 -0.0227,1.840577 -0.168063,0.415376 -0.295333,-0.07303 -0.282829,-1.085345 z m -33.1304,-1.227052 c 0.0125,-1.012318 0.150006,-1.352175 0.305562,-0.755232 0.155555,0.596942 0.145325,1.425202 -0.02273,1.840577 -0.168061,0.415376 -0.295334,-0.07303 -0.282832,-1.085345 z M 34.303065,36.298439 c 1.613018,-0.126801 4.097798,-0.125271 5.521733,0.0034 1.423935,0.128671 0.104193,0.232417 -2.93276,0.230548 -3.036953,-0.0018 -4.201991,-0.107146 -2.588973,-0.233948 z M 45.53786,34.142676 c 0.253395,-1.096678 0.482396,-3.374393 0.508892,-5.061589 0.03461,-2.203673 0.277008,-3.02015 0.860685,-2.899046 1.934227,0.401319 -0.173186,-1.117232 -2.372229,-1.709373 -1.33551,-0.359616 -2.4282,-0.935586 -2.4282,-1.279933 0,-0.344348 0.330384,-0.421899 0.734187,-0.172335 0.403802,0.249564 0.125515,-0.401047 -0.618416,-1.445802 -0.905339,-1.271431 -2.598098,-2.37515 -5.119196,-3.337836 -5.583291,-2.131991 -5.790785,-2.897313 -1.841438,-6.79199 3.104553,-3.061577 3.189098,-3.1036489 1.682446,-0.837228 -2.373715,3.570727 -2.177691,3.849619 2.762679,3.930587 2.391975,0.0392 6.562655,0.645072 9.268176,1.346376 2.705522,0.701305 5.787032,1.285769 6.847801,1.298809 1.838147,0.0226 2.593288,-0.09764 6.836879,-1.088635 2.319999,-0.541781 2.74167,-0.609716 4.496814,-0.724478 1.281711,-0.08381 1.384587,-0.299191 0.99701,-2.087408 l -0.432168,-1.993959 1.366519,1.225603 c 0.751588,0.674082 1.756641,1.980012 2.233455,2.902064 0.846212,1.636398 0.813597,1.698744 -1.364788,2.608934 -1.227451,0.51286 -2.499566,0.932473 -2.826931,0.932473 -0.327372,0 -1.232917,0.501619 -2.012335,1.114708 -1.289742,1.014511 -1.326013,1.182008 -0.403534,1.863444 0.557474,0.411805 0.668479,0.58411 0.24668,0.382899 -0.421799,-0.201211 -0.766907,-0.105658 -0.766907,0.21234 0,0.606121 -2.331996,1.547889 -3.357176,1.355781 -0.32797,-0.06146 -0.05963,0.481281 0.596309,1.206087 0.655941,0.724805 0.924277,1.264709 0.59631,1.199785 -1.959667,-0.387926 -4.37972,0.120741 -4.37972,0.920567 0,0.491316 0.201143,0.768988 0.446984,0.61705 0.245841,-0.151938 0.599896,0.122233 0.786789,0.609269 0.239739,0.624749 0.03283,0.780106 -0.702619,0.527558 -0.573333,-0.196879 -0.145143,0.491835 0.951534,1.530475 1.096678,1.03864 2.015083,2.249108 2.040901,2.689929 0.02582,0.440821 0.139432,1.284644 0.252476,1.875163 0.187534,0.979644 -0.51933,1.07367 -8.071526,1.07367 h -8.277061 z m 6.565422,-8.665139 c 0.617386,0.617386 2.568655,-0.346015 3.401332,-1.679342 0.808093,-1.293964 0.772109,-1.305808 -3.19898,-1.052949 -2.208947,0.140655 -4.209229,0.448699 -4.445073,0.684542 -0.235843,0.235843 0.0644,0.973788 0.667199,1.639877 0.807315,0.892074 1.377622,1.060354 2.165165,0.638874 0.588039,-0.314709 1.222699,-0.41866 1.410357,-0.231002 z M 23.749667,32.09759 c 0.02944,-0.714723 0.174819,-0.860102 0.370672,-0.370672 0.17723,0.442889 0.155433,0.972055 -0.04844,1.175925 -0.203869,0.203869 -0.348876,-0.158495 -0.322236,-0.805253 z m 55.957896,-3.630029 c 0.0049,-1.687196 0.123761,-2.304595 0.26478,-1.371997 0.141025,0.932597 0.137251,2.313031 -0.0083,3.06763 -0.145658,0.754598 -0.261037,-0.0084 -0.256436,-1.695633 z M 23.749667,29.02996 c 0.02944,-0.714722 0.174819,-0.860102 0.370672,-0.370672 0.17723,0.442889 0.155433,0.972055 -0.04844,1.175925 -0.203869,0.203869 -0.348876,-0.158495 -0.322236,-0.805253 z m 0.07117,-3.016502 c 0.0125,-1.012318 0.150006,-1.352172 0.305562,-0.755231 0.155555,0.59694 0.145325,1.4252 -0.02273,1.840578 -0.168061,0.415376 -0.295334,-0.07303 -0.282832,-1.085347 z m 55.75969,-1.891705 c 0.02945,-0.714723 0.174818,-0.860102 0.370667,-0.370672 0.17723,0.442889 0.155437,0.972055 -0.04841,1.175925 -0.203875,0.203869 -0.348875,-0.158495 -0.322236,-0.805253 z M 70.250939,6.2272472 c -0.763147,-0.9730862 -0.741446,-0.9947868 0.231643,-0.23164 1.02198,0.8014914 1.346983,1.3053103 0.842027,1.3053103 -0.127399,0 -0.61055,-0.4831516 -1.07367,-1.0736703 z"
         id="path11831" />
      <path
         style="fill:#b9b9b9;fill-opacity:1;stroke-width:0.613526"
         d="m 39.93444,94.994304 c -0.629516,-1.018581 -0.06449,-1.159827 0.816324,-0.204064 0.435103,0.472126 0.520419,0.858408 0.18959,0.858408 -0.330829,0 -0.78349,-0.294455 -1.005914,-0.654344 z M 16.952446,94.799915 c 0,-0.129362 0.552554,-0.379699 1.227899,-0.556309 0.675344,-0.176603 1.07318,-0.07076 0.88408,0.235208 -0.330231,0.534326 -2.111979,0.805216 -2.111979,0.321101 z m 33.908983,-0.803486 c 0.596941,-0.155553 1.425201,-0.145326 1.840578,0.02276 0.415376,0.168063 -0.07303,0.295333 -1.085347,0.282829 -1.012318,-0.01252 -1.352172,-0.150007 -0.755231,-0.30556 z M 39.791085,92.473241 c 0.09272,-0.44688 -0.268555,-0.781835 -0.802833,-0.744342 -0.534279,0.03749 -0.971417,-0.260534 -0.971417,-0.662283 0,-0.434401 0.5802,-0.619539 1.431561,-0.456789 1.46672,0.280382 1.927235,1.592431 0.802833,2.287348 -0.3458,0.213715 -0.552865,0.02295 -0.460144,-0.423934 z m 3.849738,-1.119274 c -0.208549,-0.337439 -0.0868,-0.613526 0.270555,-0.613526 0.357353,0 0.649734,0.276087 0.649734,0.613526 0,0.337439 -0.121749,0.613526 -0.270555,0.613526 -0.148805,0 -0.441185,-0.276087 -0.649734,-0.613526 z m 14.724622,0 c -0.208549,-0.337439 -0.0868,-0.613526 0.270554,-0.613526 0.357354,0 0.649735,0.276087 0.649735,0.613526 0,0.337439 -0.12175,0.613526 -0.270555,0.613526 -0.148805,0 -0.441185,-0.276087 -0.649734,-0.613526 z m -9.65588,-0.433922 c 0.763173,-0.14675 1.867519,-0.141179 2.454104,0.01239 0.586584,0.153559 -0.03783,0.273632 -1.387587,0.266822 -1.349757,-0.0068 -1.829689,-0.132454 -1.066517,-0.279203 z m 5.667961,-0.79313 -2.14734,-0.451997 2.643693,-0.08076 c 1.624187,-0.04964 2.497468,0.155835 2.264514,0.532761 C 56.929844,90.464358 56.706486,90.7041 56.64204,90.65968 56.5776,90.61526 55.558564,90.375514 54.377526,90.126919 Z M 43.33406,88.880611 c 0,-0.32685 0.41413,-0.594274 0.920289,-0.594274 0.506159,0 0.920289,0.108509 0.920289,0.241122 0,0.13262 -0.41413,0.400037 -0.920289,0.594274 -0.506159,0.19423 -0.920289,0.08572 -0.920289,-0.241122 z m 15.031385,0.01925 c -1.000298,-0.429842 -1.035333,-0.535252 -0.18959,-0.570401 0.570604,-0.02372 1.208093,0.232962 1.416642,0.570401 0.43601,0.705481 0.41469,0.705481 -1.227052,0 z m -9.042354,-0.433922 c 0.763173,-0.146749 1.867519,-0.141179 2.454103,0.01239 0.586585,0.15356 -0.03783,0.273633 -1.387586,0.266823 -1.349757,-0.0068 -1.829689,-0.132455 -1.066517,-0.279204 z m 5.361198,-0.835138 c -1.688846,-0.391196 -1.625625,-0.432321 0.766908,-0.498931 2.600691,-0.0724 3.293796,0.178947 1.840578,0.667461 -0.4218,0.141792 -1.595168,0.06595 -2.607486,-0.16853 z M 47.015216,86.44576 c 0.506158,-0.327108 1.196375,-0.594734 1.533814,-0.594734 0.33744,0 0.199396,0.267626 -0.306763,0.594734 -0.506159,0.327107 -1.196375,0.594733 -1.533814,0.594733 -0.33744,0 -0.199396,-0.267626 0.306763,-0.594733 z m 11.656992,0 c -0.552966,-0.357355 -0.628639,-0.598489 -0.18959,-0.604133 0.401884,-0.0049 0.90133,0.266693 1.109879,0.604133 0.470761,0.76171 0.25837,0.76171 -0.920289,0 z m -6.902167,-0.406326 c 0.421799,-0.170199 1.112016,-0.170199 1.533815,0 0.421799,0.170198 0.07669,0.309456 -0.766907,0.309456 -0.843598,0 -1.188707,-0.139258 -0.766908,-0.309456 z m 4.897982,-0.896859 c 0.416175,-0.419296 0.911234,-0.607801 1.10013,-0.418903 0.188898,0.188899 -0.151609,0.531958 -0.756681,0.762355 -0.874396,0.332948 -0.944868,0.262479 -0.343449,-0.343452 z M 45.2767,84.067715 c -0.543136,-0.344293 -0.202442,-0.495833 1.013359,-0.450745 1.007371,0.03736 1.704387,0.274988 1.548925,0.528067 -0.371715,0.605121 -1.541397,0.569825 -2.562284,-0.07732 z m 13.395508,-0.07606 c -0.786477,-0.508263 -0.764176,-0.596102 0.153381,-0.604133 0.590519,-0.0052 1.073671,0.266694 1.073671,0.604133 0,0.748262 -0.0692,0.748262 -1.227052,0 z M 51.770041,83.58533 c 0.421799,-0.170198 1.112016,-0.170198 1.533815,0 0.421799,0.170198 0.07669,0.309456 -0.766907,0.309456 -0.843598,0 -1.188707,-0.139258 -0.766908,-0.309456 z m 5.061589,-0.820726 c 0.506159,-0.327107 1.196376,-0.594733 1.533815,-0.594733 0.337439,0 0.199396,0.267626 -0.306763,0.594733 -0.506159,0.327108 -1.196376,0.594734 -1.533815,0.594734 -0.337439,0 -0.199396,-0.267626 0.306763,-0.594734 z m -11.255147,-1.07367 c -0.156254,-0.25308 0.377798,-0.499846 1.186783,-0.54837 0.808985,-0.04853 1.318371,0.158542 1.13197,0.460145 -0.411849,0.666387 -1.926216,0.724003 -2.318753,0.08822 z m 10.800815,-0.973028 c -3.954025,-1.371144 -4.616606,-1.955153 -2.766679,-2.438587 0.590519,-0.15432 -0.320567,-0.31261 -2.024635,-0.351753 -1.71124,-0.03933 -3.483326,0.272166 -3.95833,0.695738 -0.731646,0.65243 -0.738749,0.606636 -0.04758,-0.306763 0.579929,-0.766398 1.674377,-1.07367 3.824204,-1.07367 2.308417,0 3.104272,0.250736 3.407899,1.07367 0.549802,1.490157 1.509854,2.029151 2.863194,1.607463 0.749847,-0.233649 1.004308,-0.121945 0.730699,0.320769 -0.235684,0.381344 -0.01618,0.679253 0.500486,0.679253 0.506159,0 1.090919,0.276087 1.299468,0.613526 0.20855,0.33744 0.293865,0.589795 0.18959,0.560788 C 60.29134,82.06932 58.483098,81.448137 56.3773,80.717906 Z m -3.993731,0.41332 c 0.421799,-0.170198 1.112016,-0.170198 1.533815,0 0.421799,0.170199 0.07669,0.309457 -0.766907,0.309457 -0.843598,0 -1.188707,-0.139258 -0.766908,-0.309457 z m -7.900713,-3.121448 c -0.763147,-0.973089 -0.741447,-0.994789 0.231639,-0.231642 0.590519,0.46312 1.073671,0.946271 1.073671,1.07367 0,0.504956 -0.503819,0.179953 -1.30531,-0.842028 z m 14.851316,0.102257 c 0.02944,-0.714727 0.174818,-0.860102 0.370672,-0.370674 0.17723,0.442886 0.155433,0.972058 -0.04844,1.175926 -0.20387,0.203869 -0.348876,-0.158498 -0.322236,-0.805252 z m 10.478374,-4.550319 c 0,-0.843599 0.139258,-1.188707 0.309456,-0.766908 0.170198,0.421799 0.170198,1.112016 0,1.533815 -0.170198,0.421799 -0.309456,0.07669 -0.309456,-0.766907 z m -4.294682,-3.06763 c 0,-0.843598 0.139258,-1.188706 0.309457,-0.766907 0.170198,0.421799 0.170198,1.112015 0,1.533814 -0.170199,0.421799 -0.309457,0.07669 -0.309457,-0.766907 z M 37.318407,68.960271 c 0.0125,-1.012318 0.150006,-1.352174 0.305562,-0.755232 0.155555,0.596943 0.145325,1.425203 -0.02273,1.840578 -0.168061,0.415375 -0.295334,-0.07303 -0.282832,-1.085346 z m -4.365851,-1.891703 c 0.02944,-0.714727 0.174818,-0.860102 0.370672,-0.370674 0.17723,0.442886 0.155433,0.972052 -0.04844,1.175927 -0.20387,0.203869 -0.348876,-0.158498 -0.322236,-0.805253 z M 70.42607,64.358827 c 0,-0.843598 0.139258,-1.188707 0.309456,-0.766907 0.170198,0.421799 0.170198,1.112015 0,1.533814 -0.170198,0.421799 -0.309456,0.07669 -0.309456,-0.766907 z M 42.148815,34.449439 c 0.07386,-0.927958 -0.06464,-2.148775 -0.307767,-2.712925 -0.243129,-0.564151 -0.134993,-1.599476 0.240303,-2.300722 0.52622,-0.98325 0.501933,-1.277143 -0.106138,-1.284389 -0.484211,-0.0058 -0.551732,-0.18334 -0.174968,-0.460144 0.726369,-0.533653 1.166632,-2.200968 0.475346,-1.800176 -0.26144,0.151577 -1.000931,0.08458 -1.643312,-0.148884 -1.032771,-0.375344 -1.061409,-0.52402 -0.247401,-1.284417 0.803821,-0.750882 0.524004,-1.006342 -2.206425,-2.014359 -1.719846,-0.634931 -4.173262,-1.367759 -5.452036,-1.628508 -1.278773,-0.260748 -2.424255,-0.578179 -2.545513,-0.705402 -0.121259,-0.127223 0.20001,-1.278445 0.71393,-2.558272 0.839842,-2.091477 1.035352,-2.235911 1.931987,-1.427261 0.548673,0.494833 2.578713,1.490394 4.511199,2.212358 2.324535,0.868431 3.974499,1.959917 4.875487,3.225238 0.749031,1.051917 1.03149,1.708388 0.627688,1.458824 -0.403803,-0.249564 -0.734187,-0.172013 -0.734187,0.172335 0,0.344347 1.09269,0.920317 2.4282,1.279933 2.199043,0.592141 4.306456,2.110692 2.372229,1.709373 -0.583677,-0.121104 -0.826078,0.695373 -0.860685,2.899046 -0.08162,5.197378 -0.740269,7.055548 -2.500916,7.055548 -1.294053,0 -1.5105,-0.261406 -1.397021,-1.687196 z m 19.514332,1.425419 c -0.04218,-0.193461 -0.145713,-0.627835 -0.230073,-0.965275 -0.08436,-0.337439 -0.187892,-1.043219 -0.230072,-1.568399 -0.04218,-0.525181 -0.973972,-1.804671 -2.07065,-2.843311 -1.096677,-1.03864 -1.524867,-1.727354 -0.951534,-1.530475 0.735449,0.252548 0.942358,0.09719 0.702619,-0.527558 -0.186893,-0.487036 -0.540948,-0.761207 -0.786789,-0.609269 -0.245841,0.151938 -0.446984,-0.125734 -0.446984,-0.61705 0,-0.799826 2.420053,-1.308493 4.37972,-0.920567 0.327967,0.06492 0.05963,-0.47498 -0.59631,-1.199785 -0.65594,-0.724806 -0.924279,-1.267545 -0.596309,-1.206087 1.02518,0.192108 3.357176,-0.74966 3.357176,-1.355781 0,-0.317998 0.345108,-0.403367 0.766907,-0.18971 0.421799,0.213658 0.304279,0.0075 -0.261153,-0.45822 -0.95045,-0.782773 -0.927289,-0.911875 0.306763,-1.710187 1.499678,-0.97014 7.278405,-3.145275 7.573131,-2.850552 0.105011,0.105015 0.36636,1.068086 0.580775,2.140159 0.30623,1.531125 0.182193,1.949222 -0.578266,1.949222 -1.709731,0 -4.093181,1.393752 -4.102869,2.399203 -0.0082,0.853675 -0.08351,0.860516 -0.604133,0.0549 -0.508263,-0.786477 -0.596101,-0.764175 -0.604132,0.153382 -0.0049,0.590518 -0.416689,1.07367 -0.914498,1.07367 -0.717328,0 -0.781356,0.325483 -0.308615,1.568877 0.394521,1.037677 0.38938,1.44088 -0.01522,1.190843 -0.33639,-0.207918 -0.611642,-0.06936 -0.611642,0.307909 0,0.377269 -0.318745,0.488949 -0.708322,0.248177 -0.484839,-0.299647 -0.538964,-0.165892 -0.171542,0.423936 0.295223,0.473936 0.57061,1.469407 0.611974,2.212158 0.06025,1.081898 -0.129325,1.240998 -0.953254,0.800046 -0.741851,-0.397026 -1.028453,-0.303186 -1.028453,0.336741 0,0.487932 0.183935,0.88715 0.408743,0.88715 0.901441,0 0.135215,2.774561 -0.817229,2.959234 -0.562691,0.109102 -1.057583,0.04008 -1.099763,-0.153382 z m 5.262794,-25.659692 -2.425237,-2.6074855 2.607485,2.4252355 c 2.424937,2.255446 2.889419,2.789735 2.425237,2.789735 -0.100238,0 -1.273606,-1.173369 -2.607485,-2.607485 z M 72.41825,8.3745879 71.249489,6.9941546 72.629922,8.1629141 c 0.759239,0.6428174 1.380433,1.2640124 1.380433,1.3804333 0,0.4909756 -0.493759,0.1285073 -1.592105,-1.1687595 z M 50.861429,3.8081202 c 0.596941,-0.1555554 1.425201,-0.1453253 1.840578,0.022734 0.415376,0.168059 -0.07303,0.2953316 -1.085347,0.2828281 -1.012318,-0.012503 -1.352172,-0.1500062 -0.755231,-0.3055621 z"
         id="path11829" />
      <path
         style="fill:#a3a3a3;fill-opacity:1;stroke-width:0.613526"
         d="M 15.6153,99.101112 C 2.9986418,95.643942 1.2152999,78.409012 12.854463,72.419293 c 8.291459,-4.266937 18.650336,0.613459 20.60021,9.70541 2.259254,10.53454 -7.490105,19.812277 -17.839373,16.976409 z m 7.674139,-4.902857 c 6.303743,-2.633867 7.840465,-10.898122 2.938075,-15.800514 -3.979667,-3.979666 -9.662262,-3.979666 -13.641929,0 -7.5871994,7.587199 0.784492,19.94509 10.703854,15.800514 z m -5.109941,-0.751938 c 0,-0.579579 -1.104347,-2.073312 -2.454104,-3.319402 -2.119365,-1.956589 -2.454103,-2.619645 -2.454103,-4.861156 0,-5.636021 6.505042,-8.361021 10.477134,-4.388925 3.468354,3.468354 1.892607,9.42966 -3.257667,12.324275 -2.089412,1.174313 -2.31126,1.197848 -2.31126,0.245208 z m 25.768088,-4.018006 c 0,-0.290645 0.690217,-0.528448 1.533815,-0.528448 0.843598,0 1.533815,0.105858 1.533815,0.235238 0,0.129387 -0.690217,0.367183 -1.533815,0.528449 -0.843598,0.161265 -1.533815,0.0554 -1.533815,-0.235239 z m 13.99606,0.279498 c 0.442889,-0.177229 0.972055,-0.155436 1.175925,0.04841 0.203869,0.203868 -0.158495,0.348875 -0.805253,0.322236 -0.714723,-0.02945 -0.860102,-0.174818 -0.370672,-0.370668 z m 1.955614,-0.23063 c 0,-0.357354 0.276086,-0.479103 0.613526,-0.270553 0.337439,0.20855 0.613525,0.500932 0.613525,0.649736 0,0.148805 -0.276086,0.270553 -0.613525,0.270553 -0.33744,0 -0.613526,-0.292382 -0.613526,-0.649736 z M 46.286654,87.867232 c 0.442889,-0.17723 0.972055,-0.155437 1.175924,0.04841 0.20387,0.203868 -0.158494,0.348875 -0.805252,0.322236 -0.714723,-0.02945 -0.860102,-0.174818 -0.370672,-0.370668 z M 41.191063,87.06631 c -0.214942,-0.347783 0.03133,-0.450634 0.577317,-0.241121 1.062883,0.407865 1.257352,0.847622 0.374837,0.847622 -0.317525,0 -0.745994,-0.272927 -0.952154,-0.606501 z m 2.508639,-0.381588 c -0.360772,-0.940155 -0.03294,-0.996188 1.748843,-0.298916 1.150078,0.450064 1.145876,0.479967 -0.113758,0.809369 -0.808409,0.211403 -1.432895,0.01644 -1.635085,-0.510453 z m 16.199558,0.338353 c 0,-0.357354 0.276086,-0.479102 0.613526,-0.270552 0.337439,0.208549 0.613525,0.500931 0.613525,0.649736 0,0.148804 -0.276086,0.270552 -0.613525,0.270552 -0.33744,0 -0.613526,-0.292382 -0.613526,-0.649736 z M 49.315938,86.039434 c 0.421799,-0.170199 1.112015,-0.170199 1.533814,0 0.4218,0.170198 0.07669,0.309456 -0.766907,0.309456 -0.843598,0 -1.188706,-0.139258 -0.766907,-0.309456 z m -3.06763,-0.613526 c 0.421799,-0.170198 1.112016,-0.170198 1.533815,0 0.421799,0.170198 0.07669,0.309456 -0.766907,0.309456 -0.843599,0 -1.188707,-0.139258 -0.766908,-0.309456 z m -3.063806,-0.614802 c 0.423901,-0.170898 0.614672,-0.563235 0.423935,-0.871851 -0.432594,-0.699954 0.376702,-0.712985 1.464261,-0.02356 0.652803,0.413811 0.611625,0.598078 -0.20356,0.910896 -0.56205,0.215679 -1.344438,0.370343 -1.738638,0.343703 -0.489857,-0.03313 -0.472763,-0.146792 0.054,-0.359164 z m 3.523951,-1.432976 c -1.641801,-0.417768 -1.67493,-0.468347 -0.306763,-0.468347 0.843598,0 2.362074,0.210758 3.374392,0.468347 1.6418,0.417768 1.67493,0.468347 0.306763,0.468347 -0.843598,0 -2.362075,-0.210758 -3.374392,-0.468347 z M 43.33406,82.309871 c 0.506159,-0.196819 1.214046,-0.756428 1.573084,-1.243574 0.536602,-0.728065 1.246425,-0.769987 3.987918,-0.235545 l 3.335124,0.650172 -3.59658,-0.331194 c -2.27722,-0.209697 -3.4601,-0.110361 -3.224535,0.270792 0.378569,0.612538 -0.977411,1.383575 -2.278571,1.295644 -0.394201,-0.02664 -0.302599,-0.20947 0.20356,-0.406295 z m 17.524934,-0.952162 c 0.230398,-0.605071 0.573458,-0.945578 0.762354,-0.756679 0.188897,0.188898 3.89e-4,0.683952 -0.418905,1.100131 -0.605928,0.601415 -0.6764,0.530946 -0.343449,-0.343452 z m 4.561999,-1.010998 c 0,-0.317524 0.272927,-0.745999 0.606501,-0.952156 0.347783,-0.214942 0.450635,0.03135 0.241122,0.577316 -0.407866,1.062885 -0.847623,1.257354 -0.847623,0.37484 z M 50.236227,79.871063 c 0.927958,-0.140578 2.446434,-0.140578 3.374392,0 0.927958,0.140571 0.16872,0.255588 -1.687196,0.255588 -1.855916,0 -2.615154,-0.115017 -1.687196,-0.255588 z m 9.266488,-1.09585 c 0.879047,-1.887788 2.22285,-2.530579 1.78428,-0.853482 -0.172677,0.660314 -0.803024,1.462315 -1.400773,1.782219 -0.975772,0.522221 -1.014956,0.427327 -0.383507,-0.928737 z m -11.567211,-0.30529 c 0.20855,-0.337439 1.812341,-0.59412 3.563983,-0.570401 2.345197,0.03172 2.861317,0.182125 1.957751,0.570401 -1.750019,0.752011 -5.9865,0.752011 -5.521734,0 z M 69.764112,71.36325 c 0.02945,-0.714727 0.174818,-0.860102 0.370668,-0.370674 0.177229,0.442886 0.155437,0.972052 -0.04841,1.175926 -0.203875,0.203869 -0.348876,-0.158498 -0.322236,-0.805252 z M 32.952556,65.227991 c 0.02944,-0.714727 0.174818,-0.860102 0.370672,-0.370674 0.17723,0.442886 0.155433,0.972052 -0.04844,1.175926 -0.20387,0.203869 -0.348876,-0.158498 -0.322236,-0.805252 z m 33.178832,-4.55032 c 0,-0.843598 0.139258,-1.188706 0.309457,-0.766907 0.170198,0.421799 0.170198,1.112016 0,1.533815 -0.170199,0.421799 -0.309457,0.07669 -0.309457,-0.766908 z m -29.44924,-0.613525 c 0,-0.843599 0.139254,-1.188707 0.309454,-0.766908 0.170199,0.421799 0.170199,1.112016 0,1.533815 -0.1702,0.421799 -0.309454,0.07669 -0.309454,-0.766907 z m 2.925166,-24.080892 c -0.02508,-0.08436 -0.163451,-0.788106 -0.307502,-1.563878 -0.14405,-0.775774 -1.020816,-2.121634 -1.948368,-2.990802 -0.927552,-0.869167 -1.196986,-1.230717 -0.598743,-0.803446 0.929142,0.663603 1.031377,0.630042 0.701267,-0.230209 -0.212546,-0.553888 -0.632996,-1.007069 -0.934333,-1.007069 -0.301337,0 -0.547886,-0.29238 -0.547886,-0.649734 0,-0.357354 0.230072,-0.507542 0.511272,-0.333752 0.281199,0.173792 0.511272,-0.086 0.511272,-0.577317 0,-0.491315 -0.489866,-0.8933 -1.08859,-0.8933 -1.361003,0 -2.035127,-0.993578 -1.076218,-1.586216 0.478886,-0.295968 0.552877,-0.176247 0.221975,0.359164 -0.330902,0.53541 -0.25691,0.655132 0.221976,0.359164 0.395081,-0.244174 0.556705,-0.705465 0.359165,-1.025091 -0.197541,-0.319628 -0.597097,-0.43409 -0.887904,-0.254362 -0.290806,0.179728 -0.702152,0.04619 -0.914103,-0.296755 -0.211951,-0.342944 -1.335375,-0.623534 -2.496498,-0.623534 -1.829245,0 -2.111132,-0.199966 -2.111132,-1.497606 0,-0.823684 0.209455,-1.627057 0.465456,-1.785274 0.659134,-0.407367 4.813346,0.50283 8.490033,1.860186 2.730429,1.008017 3.010246,1.263477 2.206425,2.014359 -0.814008,0.760397 -0.78537,0.909073 0.247401,1.284417 0.642381,0.233463 1.381872,0.300461 1.643312,0.148884 0.691286,-0.400792 0.251023,1.266523 -0.475346,1.800176 -0.381996,0.280648 -0.329078,0.454295 0.140228,0.460144 0.583422,0.0073 0.594115,0.359767 0.04732,1.559853 -0.469185,1.029747 -0.50116,1.755732 -0.09521,2.161682 1.046493,1.046496 0.229866,4.263697 -1.082263,4.263697 -0.63658,0 -1.177934,-0.06902 -1.203008,-0.153381 z M 63.856833,34.60282 c 0.09261,-0.843598 -0.02374,-1.533814 -0.258534,-1.533814 -0.234796,0 -0.426903,-0.399218 -0.426903,-0.88715 0,-0.639927 0.286602,-0.733767 1.028453,-0.336741 0.823929,0.440952 1.013496,0.281852 0.953254,-0.800046 -0.04135,-0.742751 -0.316751,-1.738222 -0.611974,-2.212158 -0.367422,-0.589828 -0.313297,-0.723583 0.171542,-0.423936 0.389577,0.240772 0.708322,0.129092 0.708322,-0.248177 0,-0.377268 0.275252,-0.515827 0.611673,-0.307909 0.404565,0.250037 0.409706,-0.153166 0.01521,-1.190843 -0.472771,-1.243394 -0.408743,-1.568877 0.308585,-1.568877 0.497809,0 0.909332,-0.483152 0.914498,-1.07367 0.008,-0.917557 0.09587,-0.939859 0.604132,-0.153382 0.520626,0.805615 0.595906,0.798774 0.604133,-0.0549 0.0094,-0.971086 2.375487,-2.3992 3.975053,-2.3992 0.462163,0 0.979549,-0.345108 1.149748,-0.766907 0.170198,-0.421799 0.331248,0.224101 0.357888,1.435335 0.04,1.81973 -0.244613,2.343593 -1.638759,3.016044 -0.927958,0.447592 -2.0576,0.885322 -2.510321,0.972733 -1.30438,0.251851 -1.445111,0.655984 -0.5427,1.558397 1.43592,1.435919 1.412895,1.689844 -0.276473,3.049181 -1.357923,1.092643 -1.546466,1.573521 -1.088856,2.777125 0.304395,0.800614 0.353213,1.499037 0.108484,1.55205 -0.244729,0.05301 0.935474,0.285725 2.62267,0.517138 2.807022,0.385007 2.642217,0.42894 -1.939932,0.517139 -4.999445,0.09623 -5.007292,0.0939 -4.839198,-1.437428 z M 24.363193,21.667649 c 0.02944,-0.714722 0.174819,-0.860102 0.370672,-0.370672 0.17723,0.442889 0.155433,0.972055 -0.04844,1.175925 -0.20387,0.203869 -0.348876,-0.158494 -0.322236,-0.805253 z M 35.05146,10.982073 c 1.318003,-1.349757 2.534412,-2.4541037 2.703132,-2.4541037 0.168719,0 -0.771603,1.1043467 -2.089606,2.4541037 -1.318002,1.349757 -2.534411,2.454104 -2.703131,2.454104 -0.16872,0 0.771603,-1.104347 2.089605,-2.454104 z"
         id="path11827" />
      <path
         style="fill:#8c8c8c;fill-opacity:1;stroke-width:0.613526"
         d="m 42.107008,96.131616 c 0,-0.265632 0.706511,-0.482968 1.570024,-0.482968 0.863512,0 1.41025,0.258522 1.214971,0.574487 -0.421707,0.682333 -2.784995,0.604673 -2.784995,-0.09152 z m 20.246355,-1.442283 c 0,-0.169002 0.621195,-0.556965 1.380434,-0.862145 l 1.380433,-0.554867 -1.361181,-0.0389 c -1.612439,-0.04608 -1.270735,-1.873727 0.353152,-1.888863 0.799553,-0.0074 0.835873,-0.118477 0.175621,-0.536835 -0.51184,-0.324316 -0.595666,-0.673755 -0.217672,-0.907374 0.338108,-0.208961 0.777061,0.04307 0.975451,0.560063 0.20623,0.537437 -0.03669,1.092488 -0.567273,1.296086 -0.805639,0.309156 -0.792025,0.455506 0.103287,1.110175 0.567193,0.414744 0.782375,0.891699 0.478176,1.059891 -1.107702,0.612483 -2.700428,1.062357 -2.700428,0.762766 z M 46.248308,93.401745 c 0.421799,-0.170199 1.112016,-0.170199 1.533815,0 0.421799,0.170198 0.07669,0.309456 -0.766907,0.309456 -0.843599,0 -1.188707,-0.139258 -0.766908,-0.309456 z m 4.938884,-0.943432 c 0.572624,-0.572622 0.899838,-0.572622 1.472462,0 0.572624,0.572623 0.409017,0.736232 -0.736231,0.736232 -1.145249,0 -1.308855,-0.163609 -0.736231,-0.736232 z m -4.318205,-0.311217 c 0.763173,-0.146749 1.86752,-0.141178 2.454104,0.01239 0.586585,0.153559 -0.03783,0.273632 -1.387587,0.266822 -1.349757,-0.0068 -1.829689,-0.132454 -1.066517,-0.279203 z m -7.944644,-1.825761 c 0.442889,-0.177229 0.972055,-0.155437 1.175925,0.04841 0.203869,0.203869 -0.158495,0.348876 -0.805253,0.322237 -0.714723,-0.02945 -0.860102,-0.174819 -0.370672,-0.370668 z m 2.875902,-0.19442 c -0.208549,-0.337439 -0.0868,-0.613526 0.270555,-0.613526 0.357354,0 0.649734,0.276087 0.649734,0.613526 0,0.337439 -0.121749,0.613526 -0.270554,0.613526 -0.148805,0 -0.441186,-0.276087 -0.649735,-0.613526 z m 0.756682,-2.530236 c 0.416176,-0.419296 0.911234,-0.607802 1.100131,-0.418903 0.188897,0.188898 -0.15161,0.531957 -0.756682,0.762355 -0.874396,0.332948 -0.944868,0.262478 -0.343449,-0.343452 z m 5.570304,0.270553 c 0.442889,-0.17723 0.972055,-0.155437 1.175925,0.04841 0.203869,0.203868 -0.158494,0.348875 -0.805253,0.322236 -0.714722,-0.02945 -0.860102,-0.174818 -0.370672,-0.370668 z m -9.864985,-1.497605 c 0.416175,-0.419296 0.911234,-0.607802 1.10013,-0.418903 0.188897,0.188898 -0.151609,0.531958 -0.756682,0.762355 -0.874395,0.332948 -0.944867,0.262479 -0.343448,-0.343452 z m 10.758605,-0.962561 c 0.596941,-0.155553 1.425201,-0.145326 1.840578,0.02276 0.415377,0.168063 -0.07303,0.295333 -1.085347,0.282829 -1.012318,-0.01251 -1.352172,-0.150007 -0.755231,-0.30556 z m -8.472885,-0.842702 c -0.222423,-0.359888 -0.272825,-0.785927 -0.112002,-0.94675 0.160822,-0.160824 0.45589,0.133632 0.655706,0.654344 0.414857,1.0811 0.06126,1.271262 -0.543704,0.292406 z m 18.737768,0.413222 c 0,-0.13262 0.41413,-0.400037 0.920289,-0.594274 0.506158,-0.19423 0.920288,-0.08572 0.920288,0.241122 0,0.32685 -0.41413,0.594274 -0.920288,0.594274 -0.506159,0 -0.920289,-0.108508 -0.920289,-0.241122 z m -9.962643,-2.033378 c 0.763173,-0.14675 1.867519,-0.141179 2.454103,0.01239 0.586585,0.153559 -0.03783,0.273632 -1.387586,0.266822 -1.349757,-0.0068 -1.829689,-0.132454 -1.066517,-0.279203 z m 4.939399,0.01479 c 0.442889,-0.17723 0.972055,-0.155437 1.175925,0.04841 0.203869,0.203868 -0.158494,0.348875 -0.805253,0.322236 -0.714722,-0.02945 -0.860102,-0.174818 -0.370672,-0.370668 z m 5.521734,-0.613526 c 0.442889,-0.177229 0.972055,-0.155437 1.175924,0.04841 0.20387,0.203869 -0.158494,0.348875 -0.805252,0.322236 C 59.440173,82.686668 59.294794,82.5413 59.784224,82.34545 Z M 43.680556,81.601807 c -0.186697,-0.302076 0.05903,-0.70215 0.546071,-0.889042 0.590687,-0.226667 0.771932,-0.04381 0.544362,0.549241 -0.395482,1.030607 -0.620211,1.100641 -1.090433,0.339801 z m 5.328619,-1.100702 c 0.590518,-0.154314 1.556822,-0.154314 2.14734,0 0.590519,0.15432 0.107367,0.280583 -1.07367,0.280583 -1.181037,0 -1.664189,-0.126263 -1.07367,-0.280583 z m 5.253315,0.0037 c 0.442889,-0.177229 0.972055,-0.155437 1.175925,0.04841 0.203869,0.203868 -0.158494,0.348875 -0.805253,0.322236 -0.714722,-0.02947 -0.860102,-0.17484 -0.370672,-0.37069 z m 5.790151,-0.856955 c 0.590519,-0.343942 1.07367,-1.07178 1.07367,-1.617414 0,-0.545627 0.163252,-0.828806 0.362782,-0.629275 0.687865,0.687867 -0.447794,2.909316 -1.477796,2.890701 -0.941664,-0.01699 -0.938033,-0.07357 0.04134,-0.644012 z M 33.566082,73.817353 c 0.02944,-0.714727 0.174818,-0.860102 0.370672,-0.370674 0.17723,0.442886 0.155433,0.972052 -0.04844,1.175927 -0.20387,0.203869 -0.348876,-0.158498 -0.322236,-0.805253 z M 66.082957,62.773887 c 0.02945,-0.714727 0.174818,-0.860102 0.370667,-0.370674 0.17723,0.442886 0.155437,0.972052 -0.04841,1.175927 -0.203874,0.203868 -0.348875,-0.158498 -0.322236,-0.805253 z M 36.633711,62.160361 c 0.02944,-0.714724 0.174819,-0.860104 0.370672,-0.370674 0.17723,0.442886 0.155433,0.972052 -0.04844,1.175927 -0.203869,0.203868 -0.348876,-0.158498 -0.322236,-0.805253 z M 36.96102,35.257816 c 0.212644,-0.554139 -0.346763,-1.232527 -1.514165,-1.836214 -1.018269,-0.526568 -2.059947,-1.304468 -2.314839,-1.728666 -0.273149,-0.454584 0.0068,-0.393397 0.681771,0.149018 1.113217,0.894579 1.114536,0.873155 0.04721,-0.766908 -0.8281,-1.272464 -1.590907,-1.687196 -3.103223,-1.687196 -2.350943,0 -2.640431,-0.719629 -2.097846,-5.21497 0.203644,-1.687196 0.413636,-2.446435 0.466649,-1.687196 0.07998,1.145437 0.455774,1.380433 2.207519,1.380433 1.161123,0 2.284547,0.28059 2.496498,0.623534 0.211951,0.342943 0.623297,0.476483 0.914103,0.296755 0.290807,-0.179728 0.690363,-0.06527 0.887904,0.254362 0.19754,0.319626 0.03591,0.780917 -0.359165,1.025091 -0.478886,0.295968 -0.552878,0.176246 -0.221976,-0.359164 0.330902,-0.535411 0.256911,-0.655132 -0.221975,-0.359164 -0.958909,0.592638 -0.284785,1.586216 1.076218,1.586216 0.598724,0 1.08859,0.401985 1.08859,0.8933 0,0.491316 -0.230073,0.751109 -0.511272,0.577317 -0.2812,-0.17379 -0.511272,-0.0236 -0.511272,0.333752 0,0.357354 0.246549,0.649734 0.547886,0.649734 0.301337,0 0.721787,0.453181 0.934333,1.007069 0.33011,0.860251 0.227875,0.893812 -0.701267,0.230209 -0.598243,-0.427271 -0.337719,-0.07339 0.578943,0.786415 0.916661,0.8598 1.79566,2.274682 1.953331,3.144183 0.242935,1.33971 0.0618,1.580909 -1.187258,1.580909 -1.027186,0 -1.371716,-0.266368 -1.136697,-0.878819 z m 31.079416,-0.104554 c 0.203414,-0.203416 0.131589,-0.996507 -0.159609,-1.762425 -0.428468,-1.126949 -0.216195,-1.644642 1.112838,-2.714041 1.950061,-1.569103 1.918673,-1.406978 0.539412,-2.786241 -1.154079,-1.154082 -1.092285,-1.556421 0.279761,-1.821337 1.894034,-0.365703 4.203573,-1.854371 4.284583,-2.761726 0.04785,-0.536354 0.258656,0.129157 0.46839,1.478914 0.528037,3.398298 0.178923,4.866429 -1.319811,5.550139 -0.705438,0.321816 -1.581289,1.137293 -1.946325,1.812172 -0.365041,0.674878 -0.939799,1.429889 -1.277238,1.677801 -0.361115,0.265305 -0.234907,0.45848 0.306763,0.469539 0.818033,0.0167 0.818033,0.08487 0,0.613526 -0.998967,0.645582 -2.892241,0.847153 -2.288764,0.243679 z M 67.529737,10.215166 65.727756,8.2212064 67.721715,10.023188 c 1.096677,0.99109 1.993959,1.888371 1.993959,1.993959 0,0.473986 -0.506239,0.05667 -2.185937,-1.801981 z M 31.063542,8.8347323 c 0.792519,-0.8435981 1.578987,-1.5338148 1.747707,-1.5338148 0.16872,0 -0.341662,0.6902167 -1.134181,1.5338148 -0.792519,0.8435981 -1.578988,1.5338147 -1.747707,1.5338147 -0.16872,0 0.341662,-0.6902166 1.134181,-1.5338147 z M 53.610619,3.8269616 c 0.421799,-0.1701996 1.112016,-0.1701996 1.533815,0 0.421799,0.1701997 0.07669,0.3094539 -0.766908,0.3094539 -0.843598,0 -1.188706,-0.1392542 -0.766907,-0.3094539 z"
         id="path11825" />
      <path
         style="fill:#767676;fill-opacity:1;stroke-width:0.613526"
         d="m 58.672208,99.711687 c 0,-0.127399 0.483151,-0.610551 1.07367,-1.073671 0.973087,-0.763146 0.994787,-0.741446 0.23164,0.231643 -0.801491,1.021981 -1.30531,1.346981 -1.30531,0.842028 z M 45.011031,96.186042 c 0.416175,-0.419296 0.911234,-0.607802 1.10013,-0.418904 0.188897,0.188899 -0.151609,0.531958 -0.756682,0.762355 -0.874395,0.332949 -0.944867,0.262479 -0.343448,-0.343451 z m 14.274703,-0.537394 c 0,-0.768699 0.651099,-0.768699 1.840577,0 0.744182,0.480925 0.656128,0.596531 -0.460144,0.604133 -0.759238,0.0052 -1.380433,-0.266694 -1.380433,-0.604133 z M 41.229683,95.104641 c -0.184919,-0.299204 0.143896,-0.920399 0.730699,-1.380433 0.942478,-0.73887 0.978089,-0.722507 0.305331,0.140313 -0.418872,0.537203 -0.579922,1.158398 -0.35789,1.380433 0.222032,0.222029 0.23593,0.403694 0.03088,0.403694 -0.205046,0 -0.524107,-0.244803 -0.709025,-0.544007 z m 20.868513,-0.90303 c 0.212546,-0.553886 0.978103,-0.985268 1.701242,-0.958629 0.897429,0.03307 1.022661,0.156585 0.394503,0.389142 -0.506159,0.187389 -1.271717,0.618771 -1.70124,0.958634 -0.584222,0.462261 -0.683603,0.364232 -0.394505,-0.389147 z m -17.17943,-0.924725 c -0.264289,-0.427628 -0.314836,-0.943192 -0.112327,-1.145705 0.549082,-0.549081 1.147764,0.258479 0.851198,1.148184 -0.207817,0.623446 -0.352328,0.622961 -0.738871,-0.0025 z m 5.164079,-0.695867 c 0,-0.33744 0.292381,-0.613526 0.649734,-0.613526 0.357354,0 0.479104,0.276086 0.270555,0.613526 -0.208549,0.337439 -0.500929,0.613526 -0.649734,0.613526 -0.148806,0 -0.270555,-0.276087 -0.270555,-0.613526 z m 4.601444,-0.03356 c -2.177341,-0.36006 -2.010131,-0.415646 1.482688,-0.492889 2.165235,-0.04785 3.79009,0.05964 3.610788,0.238938 -0.572288,0.572291 -2.567026,0.671744 -5.093476,0.253951 z m 7.717512,-0.309309 c -0.02663,-0.357306 0.386166,-1.185565 0.91735,-1.840578 0.531179,-0.655013 0.805547,-0.869403 0.609704,-0.476427 -0.19585,0.392975 -0.0093,0.854334 0.414645,1.025232 0.485189,0.195611 0.391896,0.328672 -0.251815,0.359164 -0.562395,0.02663 -1.161798,0.393546 -1.331996,0.815346 -0.170198,0.421799 -0.331249,0.474568 -0.357888,0.117263 z M 40.005325,89.717908 c -0.17265,-0.449929 -0.08029,-0.818045 0.205238,-0.818045 0.285531,0 0.824656,0.368116 1.198056,0.818033 0.512341,0.617336 0.461987,0.818038 -0.205239,0.818038 -0.48628,0 -1.025405,-0.368115 -1.198055,-0.818038 z m 2.715209,0.515264 c 0,-0.278995 0.82826,-0.385706 1.840578,-0.237128 1.012318,0.148577 1.840578,0.376846 1.840578,0.507269 0,0.130417 -0.82826,0.237128 -1.840578,0.237128 -1.012318,0 -1.840578,-0.228269 -1.840578,-0.507269 z M 61.33082,88.006563 c 0,-0.491317 0.234576,-0.748323 0.52128,-0.571131 0.286703,0.177193 0.362438,0.579175 0.1683,0.8933 -0.496113,0.802725 -0.68958,0.71234 -0.68958,-0.322169 z M 39.857413,87.366048 c 0,-0.506158 0.299094,-0.924516 0.664654,-0.929681 0.431025,-0.0061 0.448996,-0.167837 0.05112,-0.460145 -0.337438,-0.247913 -0.686545,-0.864881 -0.775792,-1.37104 -0.12543,-0.711365 0.02762,-0.678713 0.674189,0.143847 0.460052,0.585273 1.008157,0.892435 1.218011,0.682578 0.209854,-0.209856 0.04451,0.344458 -0.367427,1.231801 -0.834695,1.797993 -1.46476,2.100234 -1.46476,0.70264 z m 3.323266,0.513963 c 0.421799,-0.170198 1.112015,-0.170198 1.533814,0 0.421799,0.170199 0.07669,0.309457 -0.766907,0.309457 -0.843598,0 -1.188706,-0.139258 -0.766907,-0.309457 z m 7.362311,-0.02663 c 0.759238,-0.14624 2.001628,-0.14624 2.760866,0 0.759238,0.146234 0.138043,0.265884 -1.380433,0.265884 -1.518477,0 -2.139672,-0.11965 -1.380433,-0.265884 z m -7.362311,-2.427446 c 0.421799,-0.170198 1.112015,-0.170198 1.533814,0 0.421799,0.170199 0.07669,0.309457 -0.766907,0.309457 -0.843598,0 -1.188706,-0.139258 -0.766907,-0.309457 z m 8.907802,-0.01883 c 0.59694,-0.155553 1.4252,-0.145326 1.840578,0.02276 0.415376,0.168063 -0.07303,0.295333 -1.085347,0.282829 -1.012318,-0.01252 -1.352172,-0.150007 -0.755231,-0.30556 z m 12.438427,-2.600067 c -0.194145,-0.314126 -0.118405,-0.716108 0.168296,-0.8933 0.286707,-0.177193 0.521282,0.07981 0.521282,0.571131 0,1.034509 -0.193469,1.124894 -0.689578,0.322169 z M 42.475923,80.209974 c 0.156149,-0.252656 0.689196,-0.303848 1.184548,-0.113766 1.249052,0.479305 1.125095,0.768503 -0.283907,0.662369 -0.651501,-0.04908 -1.05679,-0.295947 -0.900641,-0.548603 z m 0.59082,-2.173697 c -0.332952,-0.874398 -0.26248,-0.944867 0.343448,-0.343452 0.419295,0.416179 0.607803,0.911233 0.418906,1.100131 -0.188897,0.188899 -0.531956,-0.151608 -0.762354,-0.756679 z m -9.500661,-6.059465 c 0.02944,-0.714727 0.174818,-0.860102 0.370672,-0.370673 0.17723,0.442885 0.155433,0.972052 -0.04844,1.175926 -0.20387,0.203869 -0.348876,-0.158498 -0.322236,-0.805253 z m 32.516875,-7.36231 c 0.02945,-0.714727 0.174818,-0.860102 0.370667,-0.370674 0.17723,0.442886 0.155437,0.972052 -0.04841,1.175926 -0.203874,0.203869 -0.348875,-0.158498 -0.322236,-0.805252 z M 36.633711,64.000976 c 0.02944,-0.714727 0.174819,-0.860102 0.370672,-0.370674 0.17723,0.442886 0.155433,0.972052 -0.04844,1.175926 -0.203869,0.203869 -0.348876,-0.158498 -0.322236,-0.805252 z M 31.828192,35.714151 c 0.851667,-0.222687 0.941615,-0.522675 0.438558,-1.462645 -0.348069,-0.650375 -1.145776,-1.1825 -1.77268,-1.1825 -1.128181,0 -1.884632,-1.128294 -1.884632,-2.811045 0,-0.579764 0.693001,-0.870111 2.076779,-0.870111 1.590379,0 2.333941,0.395158 3.17478,1.687196 0.793552,1.21938 0.847628,1.517081 0.195027,1.073671 -0.496635,-0.337439 -0.439543,-0.199396 0.126871,0.306763 0.566414,0.506159 1.525103,1.213455 2.130421,1.571768 1.811466,1.072286 0.440734,2.115351 -2.678497,2.038218 -1.582922,-0.03914 -2.395904,-0.197236 -1.806627,-0.351315 z M 70.3292,34.938675 c 0.818033,-0.554514 0.818033,-0.625916 0,-0.642618 -0.54167,-0.01106 -0.667878,-0.204234 -0.306763,-0.469539 0.337439,-0.247912 0.908061,-0.984472 1.268054,-1.636799 0.801332,-1.452072 2.516033,-2.59668 3.066046,-2.046668 0.222772,0.222771 0.158223,1.455396 -0.143442,2.739167 -0.492618,2.09637 -0.765232,2.351759 -2.676335,2.507206 -1.601591,0.130273 -1.900243,0.01879 -1.20756,-0.450749 z m 4.450646,-8.750543 -0.04687,-2.628778 0.598158,2.07748 c 0.353759,1.228657 0.372901,2.302731 0.04687,2.628779 -0.326046,0.326047 -0.570444,-0.522777 -0.598158,-2.077481 z m -0.721053,-4.520483 c 0.02945,-0.714722 0.174818,-0.860102 0.370668,-0.370672 0.177229,0.442889 0.155437,0.972055 -0.04841,1.175925 -0.203875,0.203869 -0.348875,-0.158494 -0.322236,-0.805253 z M 32.90412,12.630673 c 0,-0.105588 0.897281,-1.00287 1.993959,-1.993959 l 1.993959,-1.8019817 -1.801981,1.9939587 c -1.6797,1.85865 -2.185937,2.275968 -2.185937,1.801982 z M 70.250939,6.8407731 c -0.763147,-0.9730862 -0.741446,-0.9947868 0.231643,-0.23164 1.02198,0.8014915 1.346983,1.3053103 0.842027,1.3053103 -0.127399,0 -0.61055,-0.4831516 -1.07367,-1.0736703 z M 51.194861,3.200654 C 51.63775,3.0234244 52.166916,3.0452207 52.370786,3.24909 52.574655,3.4529595 52.212291,3.5979656 51.565533,3.5713256 50.85081,3.5418864 50.705431,3.3965076 51.194861,3.200654 Z"
         id="path11823" />
      <path
         style="fill:#606060;fill-opacity:1;stroke-width:0.613526"
         d="m 57.751919,95.648648 c 0.208549,-0.337439 0.638972,-0.613526 0.956497,-0.613526 0.317525,0 0.577318,0.276087 0.577318,0.613526 0,0.337439 -0.430424,0.613526 -0.956498,0.613526 -0.526073,0 -0.785866,-0.276087 -0.577317,-0.613526 z M 43.794205,95.242322 c 0.421799,-0.170198 1.112015,-0.170198 1.533814,0 0.421799,0.170198 0.07669,0.309457 -0.766907,0.309457 -0.843598,0 -1.188707,-0.139259 -0.766907,-0.309457 z m 17.994068,-1.79214 c 0.02944,-0.714727 0.174819,-0.860102 0.370672,-0.370674 0.17723,0.442886 0.155434,0.972053 -0.04844,1.175927 -0.20387,0.203869 -0.348876,-0.158498 -0.322236,-0.805253 z m -14.919286,-0.68956 c 0.763173,-0.146749 1.86752,-0.141178 2.454104,0.01239 0.586585,0.15356 -0.03783,0.273633 -1.387587,0.266823 -1.349757,-0.0068 -1.829689,-0.132454 -1.066517,-0.279203 z m 7.048395,0.011 c 0.590519,-0.154314 1.556822,-0.154314 2.147341,0 0.590518,0.15432 0.107367,0.280584 -1.073671,0.280584 -1.181037,0 -1.664189,-0.126264 -1.07367,-0.280584 z m 8.021641,-1.82135 c 0.222032,-0.222035 0.06098,-0.84323 -0.35789,-1.380433 -0.657053,-0.842678 -0.627522,-0.872207 0.215154,-0.215158 0.537207,0.418873 1.172995,0.565334 1.412859,0.325463 0.23987,-0.239864 0.253951,0.03865 0.03129,0.618852 -0.222655,0.580236 -0.697389,1.05497 -1.054967,1.05497 -0.357577,0 -0.468478,-0.181665 -0.246446,-0.403694 z M 48.075202,90.297641 c 1.089151,-0.135534 3.021757,-0.137761 4.294681,-0.0049 1.272923,0.132816 0.3818,0.243704 -1.980275,0.246428 -2.362075,0.0025 -3.403558,-0.105943 -2.314406,-0.241477 z m 15.181891,-2.598037 c 0.199439,-0.322702 0.767907,-0.431204 1.263262,-0.241122 1.268226,0.486667 1.118777,0.827855 -0.362624,0.827855 -0.694794,0 -1.100083,-0.264031 -0.900638,-0.586733 z m 0.323322,-2.461644 c 0,-0.326843 0.41413,-0.435352 0.920289,-0.241122 0.506159,0.194237 0.920289,0.461654 0.920289,0.594274 0,0.132613 -0.41413,0.241122 -0.920289,0.241122 -0.506159,0 -0.920289,-0.267424 -0.920289,-0.594274 z M 61.47252,83.811813 c 0.230398,-0.605071 0.573458,-0.945578 0.762354,-0.75668 0.188897,0.188899 3.89e-4,0.683953 -0.418905,1.100132 -0.605928,0.601415 -0.676401,0.530945 -0.343449,-0.343452 z M 40.266431,82.280465 c 0,-0.724354 0.17393,-0.748809 0.920288,-0.129387 0.506159,0.420075 0.920289,0.821996 0.920289,0.893159 0,0.07116 -0.41413,0.129386 -0.920289,0.129386 -0.506158,0 -0.920288,-0.40192 -0.920288,-0.893158 z m 23.313984,0.559259 c 0,-0.296118 0.483152,-0.917313 1.07367,-1.380433 0.949966,-0.745011 0.985924,-0.729495 0.312089,0.134712 -0.418873,0.537203 -0.579923,1.158398 -0.357894,1.380433 0.222035,0.222029 0.08159,0.403694 -0.312083,0.403694 -0.393681,0 -0.715782,-0.242281 -0.715782,-0.538406 z m 1.227052,-2.760866 c 0,-0.127399 0.483152,-0.610551 1.07367,-1.073671 0.973089,-0.763146 0.99479,-0.741446 0.231643,0.231643 -0.801492,1.021981 -1.305313,1.346984 -1.305313,0.842028 z m 5.005077,-11.42535 c 0,-0.843598 0.139258,-1.188706 0.309456,-0.766907 0.170198,0.421799 0.170198,1.112016 0,1.533815 -0.170198,0.421799 -0.309456,0.07669 -0.309456,-0.766908 z m -3.729587,-2.198466 c 0.02945,-0.714727 0.174818,-0.860101 0.370667,-0.370673 0.17723,0.442885 0.155437,0.972052 -0.04841,1.175926 -0.203874,0.203869 -0.348875,-0.158498 -0.322236,-0.805253 z M 36.633711,65.841517 c 0.02944,-0.714727 0.174819,-0.860102 0.370672,-0.370674 0.17723,0.442886 0.155433,0.972052 -0.04844,1.175926 -0.203869,0.203869 -0.348876,-0.158498 -0.322236,-0.805252 z M 29.595368,34.552642 c -0.539383,-1.405608 -0.495569,-1.483636 0.833062,-1.483636 0.663006,0 1.50098,0.552173 1.862164,1.227051 0.572892,1.07046 0.46658,1.227052 -0.833062,1.227052 -0.819369,0 -1.657342,-0.43671 -1.862164,-0.970467 z m 44.463425,-1.228 c 0.02945,-0.714723 0.174818,-0.860102 0.370668,-0.370672 0.177229,0.442889 0.155437,0.972055 -0.04841,1.175924 -0.203875,0.20387 -0.348875,-0.158494 -0.322236,-0.805252 z m 0.684695,-3.016503 c 0.01252,-1.012318 0.150007,-1.352172 0.305561,-0.755231 0.155553,0.596941 0.145326,1.425201 -0.0227,1.840578 -0.168094,0.415377 -0.295363,-0.07303 -0.282861,-1.085347 z m -46.69914,-1.891705 c 0.02944,-0.714722 0.174819,-0.860102 0.370673,-0.370672 0.177229,0.442889 0.155433,0.972055 -0.04844,1.175925 -0.20387,0.203869 -0.348876,-0.158494 -0.322236,-0.805253 z M 79.03817,27.854035 c 0.01252,-1.012317 0.150007,-1.352171 0.30556,-0.75523 0.155553,0.59694 0.145326,1.4252 -0.0227,1.840577 -0.168094,0.415377 -0.295364,-0.07303 -0.28286,-1.085347 z M 28.150633,24.786406 c 0.0068,-1.349757 0.132451,-1.82969 0.279202,-1.066517 0.146751,0.763173 0.14118,1.867519 -0.01238,2.454103 -0.153561,0.586585 -0.27363,-0.03783 -0.266821,-1.387586 z M 72.091516,8.6813508 C 71.32837,7.7082644 71.35007,7.686564 72.323159,8.449711 c 1.021981,0.8014913 1.346984,1.3053102 0.842028,1.3053102 -0.127399,0 -0.610551,-0.4831517 -1.073671,-1.0736704 z"
         id="path11821" />
      <path
         style="fill:#494949;fill-opacity:1;stroke-width:0.613526"
         d="m 43.456765,98.593573 c -0.93499,-0.934989 -0.944311,-1.717873 -0.02045,-1.717873 0.393679,0 0.534118,0.181665 0.312086,0.403694 -0.222032,0.222035 -0.0962,0.774208 0.279632,1.227052 0.84846,1.02233 0.428056,1.08645 -0.571267,0.08713 z M 59.778459,98.00063 c 0.677527,-0.866439 0.63073,-1.066166 -0.306763,-1.309264 -0.872412,-0.226219 -0.814455,-0.301898 0.274182,-0.358023 1.652345,-0.08519 1.781261,0.691284 0.306763,1.84767 -0.961353,0.753944 -0.990036,0.735072 -0.274182,-0.180383 z M 56.83163,95.648648 c 0,-0.337439 0.292381,-0.613526 0.649734,-0.613526 0.357354,0 0.479104,0.276087 0.270555,0.613526 -0.208549,0.337439 -0.500929,0.613526 -0.649734,0.613526 -0.148806,0 -0.270555,-0.276087 -0.270555,-0.613526 z M 41.843209,95.104641 c -0.184919,-0.299204 0.07487,-0.885183 0.577317,-1.302178 0.634171,-0.526313 0.913534,-0.547572 0.913534,-0.06951 0,0.378754 -0.345108,0.692874 -0.766907,0.698039 -0.511272,0.0063 -0.460145,0.207642 0.153381,0.604133 0.552966,0.357355 0.628639,0.598489 0.18959,0.604133 -0.401884,0.0049 -0.881996,-0.23541 -1.066915,-0.534614 z M 61.33082,92.301245 c 0,-0.491318 0.234576,-0.748324 0.52128,-0.571132 0.286703,0.177193 0.362438,0.579175 0.1683,0.8933 -0.496113,0.802725 -0.68958,0.712341 -0.68958,-0.322168 z m 1.318901,-2.771015 c 0.163922,-0.265239 0.854905,-0.627876 1.535508,-0.805854 0.680603,-0.177983 1.103334,-0.106594 0.939406,0.158646 -0.163922,0.265239 -0.854905,0.627876 -1.535508,0.805854 -0.680603,0.177984 -1.103334,0.106594 -0.939406,-0.158646 z m -0.705375,-1.580902 c 0,-0.459838 0.230072,-0.693874 0.511274,-0.52008 0.281197,0.173787 0.511269,0.05577 0.511269,-0.262197 0,-0.317996 0.552173,-0.722574 1.227052,-0.899061 1.607291,-0.420314 1.555699,-0.295964 -0.51127,1.232212 -1.247629,0.922412 -1.738325,1.049191 -1.738325,0.449126 z m 0.526796,-2.691226 c 0.407939,-0.653208 1.296061,-1.332621 1.973602,-1.509801 0.975525,-0.255104 0.866231,-0.0079 -0.525166,1.187657 -2.118376,1.820264 -2.426875,1.888875 -1.448436,0.322144 z m -24.325851,0.0031 c -0.453728,-0.734145 0.700416,-1.46156 1.517622,-0.956499 0.686141,0.423989 0.235696,1.527563 -0.623534,1.527563 -0.29761,0 -0.69995,-0.257012 -0.894088,-0.571132 z m 0,-2.454104 c -0.194139,-0.314125 -0.118404,-0.716107 0.168299,-0.8933 0.286704,-0.177192 0.52128,0.07981 0.52128,0.571132 0,1.034509 -0.193467,1.124893 -0.689579,0.322168 z m 24.841108,0.22825 c 0.01074,-0.317573 0.424867,-1.113328 0.920289,-1.768341 0.495428,-0.655012 0.891999,-0.931099 0.881269,-0.613526 -0.01074,0.317574 -0.424867,1.113329 -0.920289,1.768341 -0.495428,0.655013 -0.891999,0.9311 -0.881269,0.613526 z m -1.198126,-4.923214 c 0.02944,-0.714727 0.174819,-0.860102 0.370672,-0.370674 0.17723,0.442886 0.155434,0.972058 -0.04844,1.175927 -0.20387,0.203868 -0.348876,-0.158498 -0.322236,-0.805253 z M 35.999871,77.295487 c -0.474855,-0.887343 -0.484191,-1.279668 -0.03045,-1.279668 0.743783,0 1.553828,1.72064 1.048122,2.226345 -0.183067,0.18307 -0.641018,-0.242969 -1.017669,-0.946745 z M 69.199018,72.94819 c 0,-0.843598 0.139258,-1.188707 0.309456,-0.766908 0.170198,0.421799 0.170198,1.112016 0,1.533815 -0.170198,0.421799 -0.309456,0.07669 -0.309456,-0.766907 z m -35.5845,-3.681156 c 0,-0.843598 0.139254,-1.188706 0.309454,-0.766907 0.1702,0.421799 0.1702,1.112016 0,1.533815 -0.1702,0.421799 -0.309454,0.07669 -0.309454,-0.766908 z m 3.090363,-0.920289 c 0.0125,-1.012317 0.150006,-1.352174 0.305562,-0.755232 0.155555,0.596943 0.145325,1.425203 -0.02273,1.840578 -0.168061,0.415375 -0.295334,-0.07303 -0.282832,-1.085346 z m 29.426507,0.306763 c 0,-0.843598 0.139258,-1.188706 0.309457,-0.766907 0.170198,0.421799 0.170198,1.112016 0,1.533815 -0.170199,0.421799 -0.309457,0.07669 -0.309457,-0.766908 z m 3.681156,-2.454103 c 0,-0.843598 0.139258,-1.188707 0.309456,-0.766908 0.170198,0.421799 0.170198,1.112016 0,1.533815 -0.170198,0.421799 -0.309456,0.07669 -0.309456,-0.766907 z M 26.140149,38.244035 c -0.882647,-2.32154 -0.703009,-2.588805 0.649123,-0.965761 1.329341,1.595687 1.544132,2.539517 0.577929,2.539517 -0.345791,0 -0.897964,-0.70819 -1.227052,-1.573756 z m 2.517725,-5.532919 c 0.02944,-0.714723 0.174819,-0.860102 0.370672,-0.370672 0.17723,0.442889 0.155434,0.972055 -0.04844,1.175924 -0.20387,0.20387 -0.348876,-0.158494 -0.322236,-0.805252 z m -0.613526,-2.454104 c 0.02944,-0.714723 0.174819,-0.860102 0.370673,-0.370672 0.177229,0.442889 0.155433,0.972055 -0.04844,1.175925 -0.20387,0.203869 -0.348876,-0.158495 -0.322236,-0.805253 z m -0.613525,-3.067629 c 0.02944,-0.714723 0.174818,-0.860102 0.370672,-0.370673 0.177229,0.442889 0.155433,0.972056 -0.04844,1.175925 -0.20387,0.203869 -0.348876,-0.158494 -0.322236,-0.805252 z m 51.536178,-1.840578 c 0.02945,-0.714723 0.174818,-0.860102 0.370667,-0.370672 0.17723,0.442889 0.155437,0.972055 -0.04841,1.175925 -0.203868,0.203869 -0.348875,-0.158495 -0.322236,-0.805253 z M 34.437934,10.368547 c 0.610757,-0.6748784 1.24851,-1.2270517 1.41723,-1.2270517 0.16872,0 -0.192947,0.5521733 -0.803704,1.2270517 -0.610756,0.674879 -1.24851,1.227052 -1.417229,1.227052 -0.16872,0 0.192947,-0.552173 0.803703,-1.227052 z m 33.972427,0.153382 c -0.763147,-0.9730869 -0.741446,-0.9947873 0.231643,-0.23164 1.021981,0.801491 1.346984,1.30531 0.842027,1.30531 -0.127398,0 -0.61055,-0.483152 -1.07367,-1.07367 z"
         id="path11819" />
      <path
         style="fill:#333333;fill-opacity:1;stroke-width:0.613526"
         d="m 44.117367,98.760151 c -0.652952,-1.045546 -0.539777,-1.226917 0.972886,-1.559153 0.941487,-0.206783 2.467946,-0.08848 3.392133,0.262889 2.365734,0.899454 4.459354,0.795486 6.852844,-0.340298 1.441122,-0.68386 2.541113,-0.819941 3.647292,-0.451211 l 1.583856,0.527951 -1.277748,1.3715 c -1.169122,1.254906 -1.836911,1.371501 -7.855051,1.371501 -5.831556,0 -6.661083,-0.134154 -7.316212,-1.183179 z m -1.396833,-4.394655 c 0.692555,-0.489784 0.730511,-0.727845 0.153382,-0.962021 -0.421799,-0.171156 -0.766908,-0.558346 -0.766908,-0.860427 0,-0.799492 2.942069,0.666405 3.321386,1.654888 0.230769,0.601371 -0.234961,0.834542 -1.653445,0.827793 -1.562575,-0.0074 -1.782636,-0.145228 -1.054415,-0.660233 z m 15.077611,-0.149891 c 0.172963,-0.450733 1.318457,-1.298282 2.545542,-1.883439 1.638553,-0.781368 2.040144,-0.833873 1.512167,-0.197702 -0.395393,0.476421 -0.522222,1.062891 -0.281843,1.30327 0.601477,0.601476 -1.074345,1.576571 -2.729166,1.587995 -0.885713,0.0061 -1.251329,-0.276866 -1.0467,-0.810124 z M 38.425853,89.477179 c 0,-0.357354 0.276087,-0.479103 0.613526,-0.270553 0.337439,0.20855 0.613526,0.500932 0.613526,0.649736 0,0.148805 -0.276087,0.270553 -0.613526,0.270553 -0.337439,0 -0.613526,-0.292382 -0.613526,-0.649736 z M 62.0466,88.899863 c 0.208549,-0.337439 0.984084,-0.59412 1.723407,-0.570401 1.295987,0.0416 1.300196,0.06204 0.117171,0.570401 -1.68872,0.725666 -2.289065,0.725666 -1.840578,0 z M 38.425853,87.023075 c 0,-0.357354 0.276087,-0.479102 0.613526,-0.270552 0.337439,0.208549 0.613526,0.500931 0.613526,0.649736 0,0.148804 -0.276087,0.270552 -0.613526,0.270552 -0.337439,0 -0.613526,-0.292382 -0.613526,-0.649736 z m 23.748901,0.26662 c -0.686997,-0.686995 0.187873,-1.459738 1.595253,-1.409023 0.914822,0.03295 1.050246,0.160338 0.423934,0.398755 -0.506159,0.192677 -1.077192,0.589162 -1.268962,0.881072 -0.191763,0.291915 -0.529368,0.350053 -0.750225,0.129196 z m -0.10818,-6.060323 c 0.158717,-3.405566 0.471356,-4.349727 2.136515,-6.452157 1.896089,-2.394009 1.965362,-2.698275 2.478976,-10.888668 0.563529,-8.986356 2.144046,-15.782091 5.450288,-23.43461 3.333949,-7.716653 4.093702,-11.822564 3.14259,-16.983429 C 72.837453,10.244332 60.432852,1.2627601 47.814982,3.58808 34.461676,6.048932 25.438754,18.937743 28.393821,31.330276 c 0.509661,2.137339 1.040217,4.463473 1.179014,5.169187 0.138798,0.705715 1.04386,3.052451 2.011251,5.214971 2.866971,6.408871 4.423408,13.397261 4.981203,22.365552 0.49889,8.021219 0.562788,8.295569 2.502543,10.744709 2.404069,3.035383 3.234916,8.544668 0.942963,6.252713 -0.25308,-0.25308 -0.782246,-0.460145 -1.175925,-0.460145 -0.393679,0 -1.021415,-0.945609 -1.394969,-2.10135 -0.373553,-1.155742 -1.220079,-2.301434 -1.881168,-2.545992 -1.07631,-0.398153 -1.276681,-1.429294 -1.916448,-9.862404 C 32.8811,56.073931 31.579239,50.257131 28.647867,43.79213 27.460553,41.173564 27.111329,39.805773 27.589332,39.646202 28.04343,39.494612 27.693975,38.52936 26.627767,36.9902 23.534693,32.525088 23.92412,22.529235 27.473229,15.288759 29.744206,10.65578 35.004118,5.1649353 39.813368,2.4068333 42.980912,0.59024901 43.156531,0.56356419 51.981686,0.55788991 l 8.954388,-0.005757 3.718024,2.40307499 C 75.67217,10.07653 79.360584,17.053542 78.7879,29.690726 c -0.240778,5.313155 -0.54805,6.716974 -2.283789,10.433828 -4.314964,9.239951 -5.37429,13.32358 -6.499018,25.053287 l -0.931553,9.715134 -3.053329,3.773552 c -1.679324,2.075454 -3.053322,3.964371 -3.053322,4.197591 0,0.23322 0.483152,0.550302 1.07367,0.704616 1.022546,0.267221 1.022546,0.283971 0,0.351753 -0.590518,0.03914 -1.07367,0.347256 -1.07367,0.684695 0,0.337439 -0.244404,0.613526 -0.543118,0.613526 -0.298717,0 -0.459455,-1.795202 -0.357197,-3.989336 z"
         id="path11817" />
    </g>
  </g>
</svg>
