<?xml version="1.0" encoding="UTF-8" standalone="no"?>
<!-- Created with Inkscape (http://www.inkscape.org/) -->

<svg
   width="100mm"
   height="100mm"
   viewBox="0 0 100 100"
   version="1.1"
   id="svg13362"
   inkscape:version="1.1.1 (3bf5ae0d25, 2021-09-20)"
   sodipodi:docname="add_list_type_device_6047.svg"
   xmlns:inkscape="http://www.inkscape.org/namespaces/inkscape"
   xmlns:sodipodi="http://sodipodi.sourceforge.net/DTD/sodipodi-0.dtd"
   xmlns="http://www.w3.org/2000/svg"
   xmlns:svg="http://www.w3.org/2000/svg">
  <sodipodi:namedview
     id="namedview13364"
     pagecolor="#ffffff"
     bordercolor="#666666"
     borderopacity="1.0"
     inkscape:pageshadow="2"
     inkscape:pageopacity="0.0"
     inkscape:pagecheckerboard="true"
     inkscape:document-units="mm"
     showgrid="false"
     width="100mm"
     inkscape:zoom="0.58974467"
     inkscape:cx="378.97757"
     inkscape:cy="144.13017"
     inkscape:window-width="1440"
     inkscape:window-height="890"
     inkscape:window-x="-6"
     inkscape:window-y="-6"
     inkscape:window-maximized="1"
     inkscape:current-layer="layer1" />
  <defs
     id="defs13359" />
  <g
     inkscape:label="Laag 1"
     inkscape:groupmode="layer"
     id="layer1">
    <g
       id="g13378"
       transform="translate(-4.0377605,2.2432029)">
      <path
         style="fill:#d0d0d0;fill-opacity:1;stroke-width:0.447363"
         d="m 37.272934,96.953088 c 0,-0.356289 0.49014,-0.57836 1.230248,-0.557397 0.676636,0.01915 1.686194,-0.113853 2.243462,-0.295604 0.796431,-0.259752 0.957733,-0.18587 0.753898,0.345315 -0.220774,0.575327 0.193828,0.641035 2.789369,0.44208 1.676777,-0.128528 2.937999,-0.113143 2.802721,0.03418 -0.135282,0.147339 -2.400056,0.347932 -5.032832,0.44577 -3.763251,0.139859 -4.786866,0.05125 -4.786866,-0.414342 z m 11.972171,0.397423 c 0.556479,-0.107005 1.361732,-0.102942 1.789451,0.009 0.427719,0.11197 -0.0276,0.199524 -1.011782,0.194558 -0.984199,-0.005 -1.334148,-0.09658 -0.777669,-0.203586 z m 5.922341,-0.130961 -2.013133,-0.312979 1.874889,-0.06719 c 1.031189,-0.03695 1.999309,0.134124 2.151376,0.380173 0.152068,0.24605 0.214278,0.417126 0.138244,0.380174 -0.07603,-0.03696 -1.044153,-0.208033 -2.151376,-0.380174 z m 2.684176,-0.08983 c 0,-0.196643 0.704597,-0.357533 1.56577,-0.357533 0.861174,0 1.56577,0.07863 1.56577,0.174736 0,0.09611 -0.704596,0.256996 -1.56577,0.357532 -0.861173,0.100541 -1.56577,0.02192 -1.56577,-0.174735 z m 3.973289,-0.916736 c -0.02912,-0.307562 -0.02912,-0.710188 0,-0.894726 0.02912,-0.184537 -0.282546,-0.335522 -0.69263,-0.335522 -1.108694,0 -0.326181,-0.576328 0.970178,-0.714541 0.982946,-0.104799 1.040369,-0.03914 0.467087,0.534156 -0.3595,0.3595 -0.540002,0.949787 -0.401105,1.311739 0.138892,0.361952 0.130339,0.658097 -0.01901,0.658097 -0.149352,0 -0.295385,-0.251641 -0.324522,-0.559203 z m -26.380747,-0.19102 c 0.83731,-0.17516 0.937545,-0.315337 0.447362,-0.625632 -0.50485,-0.319582 -0.467004,-0.401271 0.18844,-0.406747 1.22273,-0.0102 0.631291,1.099421 -0.631524,1.184836 l -1.083366,0.07328 z m 1.864088,-0.852825 c 0.02146,-0.521155 0.127472,-0.627158 0.270282,-0.270283 0.12923,0.322938 0.113336,0.708788 -0.03532,0.857447 -0.148656,0.148654 -0.254389,-0.115572 -0.234964,-0.587164 z m 20.990733,-0.633766 c 0,-0.246049 0.213195,-0.447362 0.473766,-0.447362 0.260571,0 0.349346,0.201313 0.197278,0.447362 -0.152067,0.24605 -0.365262,0.447363 -0.473766,0.447363 -0.108503,0 -0.197278,-0.201313 -0.197278,-0.447363 z M 9.0320148,93.752489 c -0.5564616,-0.709545 -0.5406384,-0.725368 0.1689041,-0.168907 0.4305866,0.337692 0.7828848,0.68999 0.7828848,0.782885 0,0.368198 -0.367368,0.131216 -0.9517889,-0.613978 z M 39.87323,94.229775 c 0.32294,-0.129229 0.708791,-0.113339 0.857446,0.0353 0.148654,0.148655 -0.115569,0.254389 -0.587164,0.234964 -0.521152,-0.02147 -0.627158,-0.127471 -0.270282,-0.270278 z m 1.873332,-0.141764 c 0,-0.24605 0.213194,-0.447363 0.473765,-0.447363 0.26057,0 0.349346,0.201313 0.197279,0.447363 -0.152067,0.246049 -0.365261,0.447362 -0.473765,0.447362 -0.108503,0 -0.197279,-0.201313 -0.197279,-0.447362 z m -3.13154,-1.789451 c -0.5783,-0.373727 -0.566492,-0.434609 0.08544,-0.440514 0.416066,-0.0036 0.880901,0.194464 1.032968,0.440514 0.34992,0.566182 -0.242304,0.566182 -1.118408,0 z m 21.920777,0.271544 c 0,-0.0967 0.312425,-0.295707 0.69428,-0.44224 0.398118,-0.15277 0.577689,-0.07777 0.42096,0.175818 -0.262718,0.425088 -1.11524,0.628746 -1.11524,0.266422 z m 2.115655,-0.541828 c -0.486856,-0.486851 -0.395473,-0.949496 0.235353,-1.191568 0.308859,-0.11852 0.855877,0.09957 1.215597,0.484655 0.577335,0.61804 0.567332,0.666879 -0.0853,0.416441 -0.40663,-0.15604 -0.806854,-0.08112 -0.889393,0.166486 -0.08253,0.247602 -0.296852,0.303397 -0.476262,0.123986 z m -26.608768,-0.48546 c 0.963378,-0.251753 1.01958,-0.894654 0.103071,-1.179051 -0.481023,-0.149263 -0.449822,-0.190058 0.106704,-0.139506 0.432584,0.03928 0.853918,0.421429 0.936298,0.849189 0.10957,0.568956 -0.129249,0.763818 -0.889589,0.725855 -0.757994,-0.03785 -0.827429,-0.107282 -0.256484,-0.256487 z m 3.106912,-1.704752 c 0.0091,-0.738148 0.109379,-0.985961 0.222806,-0.55069 0.113425,0.435271 0.105966,1.03921 -0.01658,1.342088 -0.122545,0.302878 -0.215348,-0.05325 -0.206231,-0.791398 z m 23.898148,-0.878987 c -0.571739,-0.872586 -0.722496,-2.319455 -0.722496,-6.934123 0,-3.819311 -0.164065,-5.831455 -0.475484,-5.831455 -0.261515,0 -0.439645,-0.352298 -0.395844,-0.782885 0.0438,-0.430587 0.05645,-1.269392 0.02809,-1.864013 -0.07702,-1.616501 -0.639456,-0.728217 -0.609724,0.962984 0.02273,1.292051 -0.01928,1.344299 -0.36469,0.453666 -0.214694,-0.553611 -0.710694,-1.006566 -1.102217,-1.006566 -0.424172,0 -0.58286,-0.20873 -0.392659,-0.516485 0.196983,-0.318723 0.122801,-0.395102 -0.193735,-0.19947 -0.282121,0.17436 -0.866833,0.110928 -1.29937,-0.140955 -0.700405,-0.407879 -0.673437,-0.459459 0.246542,-0.471574 0.694334,-0.0091 0.929468,-0.196925 0.717252,-0.572808 -0.252568,-0.447363 -0.19522,-0.447363 0.286755,0 0.331353,0.307562 0.963521,0.559204 1.404813,0.559204 0.763183,0 0.808094,-1.599586 0.920042,-32.769325 L 61.212717,7.0759477 61.32161,39.845272 c 0.07139,21.475378 0.263098,32.769325 0.556278,32.769325 0.246049,0 0.447362,0.805253 0.447362,1.789451 0,0.984198 0.201314,1.789451 0.447363,1.789451 0.276256,0 0.447363,2.321178 0.447363,6.068807 0,3.337846 0.208395,6.458201 0.463101,6.934124 0.660867,1.234842 0.221811,1.070816 -0.635331,-0.237353 z M 37.000813,82.456578 c 0,-3.321669 0.07043,-4.680533 0.1565,-3.019699 0.08608,1.660835 0.08608,4.378564 0,6.039398 -0.08608,1.660834 -0.1565,0.30197 -0.1565,-3.019699 z m 9.850042,1.904392 c 0.126971,-0.12697 1.020761,-0.297827 1.986206,-0.379677 0.96544,-0.08185 1.929149,-0.180269 2.141575,-0.218702 0.976047,-0.176592 2.515709,0.06884 2.229195,0.355358 -0.175608,0.175608 -1.72971,0.35407 -3.45356,0.396583 -1.72385,0.0425 -3.030391,-0.02657 -2.903416,-0.153562 z m 17.442613,-1.009666 c 0.141008,-0.615124 0.25913,-4.792374 0.26249,-9.282778 l 0.0061,-8.164371 h 1.575227 1.575227 l -0.121298,8.835415 -0.121298,8.835415 h -1.342088 c -0.738149,0 -1.510538,0.201313 -1.716419,0.447363 -0.209317,0.250156 -0.261309,-0.04566 -0.117947,-0.671044 z M 33.665474,83.042185 c -0.0857,-2.428527 -0.405151,-3.853816 -1.259168,-5.617982 -0.785656,-1.622947 -0.949088,-2.783621 -0.949088,-6.740299 v -4.779749 h 1.56577 1.565769 v 8.697171 c 0,5.315551 -0.173943,8.804677 -0.447363,8.973659 -0.246049,0.152068 -0.460213,-0.08769 -0.47592,-0.5328 z m 4.502186,-2.44962 c 0,-0.20504 0.224792,-0.372801 0.499539,-0.372801 0.274747,0 0.398189,-0.387564 0.274316,-0.861254 -0.167399,-0.640136 -0.0471,-0.792901 0.468574,-0.595019 0.424925,0.163059 0.579668,0.08157 0.399297,-0.210279 -0.161974,-0.262078 0.0063,-0.591941 0.373976,-0.733026 0.864498,-0.331737 0.862868,0.33924 -0.0025,1.05749 -0.369074,0.306305 -0.671044,0.901342 -0.671044,1.322306 0,0.420964 -0.30197,0.765388 -0.671045,0.765388 -0.369074,0 -0.671044,-0.167761 -0.671044,-0.372805 z M 63.85431,44.878104 c 0.01409,-24.663305 0.09391,-30.422872 0.260392,-18.789238 0.132034,9.226858 0.286705,16.02118 0.343713,15.098495 0.09881,-1.599285 0.176753,-1.677611 1.669419,-1.677611 h 1.56577 v 2.236814 2.236814 h -1.56577 -1.56577 l -0.05904,6.151238 c -0.03248,3.383182 -0.196285,11.586697 -0.364037,18.230034 -0.202718,8.027993 -0.29819,0.151428 -0.284679,-23.486546 z m -4.386357,33.34291 c -0.411641,-0.628245 -0.992689,-1.000683 -1.348289,-0.864229 -0.343695,0.131892 -0.756378,0.02707 -0.917071,-0.232937 -0.185857,-0.300726 0.0013,-0.362735 0.513953,-0.170418 0.721225,0.270475 0.73839,0.219122 0.162978,-0.487626 -0.465507,-0.571761 -0.213973,-0.504983 0.910706,0.241773 0.854615,0.567444 1.553843,1.388507 1.553843,1.824587 0,1.010655 -0.01306,1.006012 -0.87612,-0.31115 z M 38.14198,77.423747 c -0.01412,-0.307562 -0.09343,-1.465113 -0.176248,-2.572336 -0.08281,-1.107223 -0.0565,-1.660835 0.05848,-1.230248 0.114978,0.430587 0.356244,0.782885 0.536148,0.782885 0.179904,0 0.374611,0.805253 0.432683,1.789451 0.05953,1.008821 -0.09748,1.789451 -0.3599,1.789451 -0.256017,0 -0.477041,-0.251641 -0.491165,-0.559203 z m 4.499308,-1.846517 c 0,-0.09289 0.352298,-0.445193 0.782884,-0.782885 0.709543,-0.556461 0.725366,-0.540638 0.168904,0.168906 -0.58442,0.745195 -0.951788,0.982176 -0.951788,0.613979 z M 8.6417154,74.235142 c 0,-0.09289 0.3522982,-0.445194 0.7828849,-0.782885 0.7095427,-0.556461 0.7253657,-0.540638 0.168904,0.168906 -0.5844209,0.745195 -0.9517889,0.982176 -0.9517889,0.613979 z M 29.16334,73.621163 c -0.556461,-0.709544 -0.540638,-0.725367 0.168904,-0.168906 0.430587,0.337691 0.782885,0.68999 0.782885,0.782885 0,0.368197 -0.367368,0.131216 -0.951789,-0.613979 z m 9.899045,-0.111841 c 0,-0.246049 0.229449,-0.447363 0.509885,-0.447363 0.280437,0 0.784214,-0.352298 1.119505,-0.782884 0.422314,-0.542343 0.538754,-0.576709 0.378974,-0.111841 -0.188514,0.548467 0.240301,0.663345 2.347558,0.628907 2.439224,-0.03986 2.457626,-0.03248 0.341388,0.137466 -1.230248,0.09878 -2.428062,0.369387 -2.661809,0.60134 -0.563928,0.559606 -2.035501,0.541081 -2.035501,-0.02563 z m 15.103711,-0.763764 c 0.556479,-0.107005 1.361732,-0.102943 1.789451,0.009 0.427719,0.111971 -0.0276,0.199524 -1.011783,0.194558 -0.984198,-0.005 -1.334147,-0.09658 -0.777668,-0.203585 z M 34.735555,56.285855 c 0.002,-1.722347 0.08284,-2.372124 0.179687,-1.443953 0.09684,0.928175 0.09522,2.337368 -0.0036,3.131539 -0.09881,0.794177 -0.178048,0.03476 -0.176063,-1.687586 z M 33.134828,44.104851 31.457218,43.929367 V 41.719559 39.50975 h 1.528489 c 0.840669,0 1.630029,-0.251641 1.754133,-0.559203 0.124104,-0.307562 0.241537,0.799661 0.260962,2.460495 0.01942,1.660834 -0.01501,2.985858 -0.07652,2.944496 -0.06151,-0.04136 -0.866765,-0.154171 -1.789451,-0.250687 z M 31.457218,19.825787 V 6.4049035 h 1.56577 1.565769 V 19.825787 33.246671 h -1.565769 -1.56577 z m 33.104846,0 V 6.4049035 h 1.56577 1.56577 V 19.825787 33.246671 h -1.56577 -1.56577 z"
         id="path13392" />
      <path
         style="fill:#b9b9b9;fill-opacity:1;stroke-width:0.447363"
         d="m 37.470659,97.708911 c 0.137791,-0.222952 0.652955,-0.300126 1.144809,-0.171505 1.230941,0.3219 1.120209,0.57687 -0.250529,0.57687 -0.629645,0 -1.032071,-0.182412 -0.89428,-0.405365 z M 57.24248,97.443232 C 57.09115,97.048872 56.379705,96.75555 55.517006,96.73184 l -1.467967,-0.04035 1.502987,-0.43252 c 0.826641,-0.237885 1.382002,-0.553504 1.23413,-0.701375 -0.147875,-0.147871 -0.01897,-0.577666 0.286465,-0.955097 0.460103,-0.568576 0.440263,-0.621911 -0.115724,-0.311052 -0.560098,0.313154 -0.573609,0.271881 -0.08172,-0.24965 0.502719,-0.533015 0.672475,-0.512307 1.155189,0.140905 0.511573,0.692272 0.658911,0.700566 1.535653,0.08648 0.87493,-0.612829 0.969784,-0.60857 0.969784,0.04353 0,0.397549 -0.201313,0.598397 -0.447363,0.446329 -0.246049,-0.152067 -0.447362,-0.06329 -0.447362,0.197279 0,0.26057 -0.381091,0.473766 -0.846863,0.473766 -0.948789,0 -1.494885,0.995462 -1.104368,2.013132 0.14163,0.369075 0.15685,0.671044 0.03382,0.671044 -0.123024,0 -0.339557,-0.301969 -0.481188,-0.671044 z m 4.299885,0.362663 c 0.430587,-0.11252 1.135184,-0.11252 1.56577,0 0.430587,0.112525 0.07829,0.204593 -0.782885,0.204593 -0.861173,0 -1.213471,-0.09207 -0.782885,-0.204593 z m -20.094941,-1.22207 c 0.164526,-0.428748 0.299138,-1.065045 0.299138,-1.413997 0,-0.949783 1.104712,-0.768578 2.950419,0.483952 l 1.648063,1.118407 -1.516355,0.0061 c -0.833997,0.0036 -2.003268,0.136379 -2.59838,0.295591 -0.899968,0.240775 -1.031692,0.158321 -0.782885,-0.490059 z m -3.847372,-1.189587 c 0.158191,-0.604924 0.360977,-0.807713 0.472661,-0.472661 0.107582,0.322746 -0.01709,0.799509 -0.277058,1.059472 -0.331974,0.331974 -0.390195,0.15731 -0.195603,-0.586811 z m 1.350493,0.634307 c 0.307561,-0.124103 0.810845,-0.124103 1.118406,0 0.307562,0.124103 0.05592,0.225646 -0.559203,0.225646 -0.615124,0 -0.866765,-0.101543 -0.559203,-0.225646 z m -4.361788,-0.598446 c 0,-0.56051 0.47476,-0.56051 1.342089,0 0.542632,0.350674 0.478426,0.434971 -0.335522,0.440514 -0.553612,0.0038 -1.006567,-0.194464 -1.006567,-0.440514 z m 7.157805,-2.236814 c 0,-0.246049 0.213194,-0.447363 0.473765,-0.447363 0.26057,0 0.349346,0.201314 0.197279,0.447363 -0.152067,0.24605 -0.365261,0.447363 -0.473765,0.447363 -0.108503,0 -0.197279,-0.201313 -0.197279,-0.447363 z M 63.667339,92.29856 c 0,-0.24605 0.213195,-0.447363 0.473766,-0.447363 0.260571,0 0.349345,0.201313 0.197278,0.447363 -0.152068,0.246049 -0.365263,0.447362 -0.473766,0.447362 -0.108504,0 -0.197278,-0.201313 -0.197278,-0.447362 z M 39.307105,91.885237 c -0.161229,-0.260876 -0.07132,-0.828208 0.199792,-1.260745 0.427136,-0.68145 0.456202,-0.652067 0.217747,0.220138 -0.307187,1.123606 -0.104954,1.21863 1.156602,0.543466 0.596484,-0.319229 0.865316,-0.319229 0.865316,0 0,0.254706 -0.184849,0.463101 -0.410774,0.463101 -0.225926,0 -0.708846,0.114381 -1.073156,0.254178 -0.36431,0.139801 -0.794297,0.04076 -0.955527,-0.220138 z m 19.767308,-0.08955 c 0.303464,-0.305736 0.664441,-0.443188 0.802179,-0.30545 0.137739,0.137739 -0.110548,0.387886 -0.551746,0.555884 -0.637581,0.242775 -0.688965,0.191391 -0.250433,-0.250434 z m 2.803475,-0.347811 c 0,-0.464559 0.850978,-1.137071 1.103049,-0.871722 0.08184,0.08615 -0.132867,0.416218 -0.477126,0.733483 -0.344259,0.31726 -0.625923,0.379471 -0.625923,0.138239 z m -25.61152,-1.247144 c -0.969588,-0.253378 -1.02532,-1.292315 -0.08861,-1.651767 0.41417,-0.15893 0.579122,-0.08009 0.40885,0.195417 -0.156987,0.254009 -0.04214,0.754988 0.255223,1.113281 0.297359,0.358297 0.465675,0.628097 0.374036,0.599555 -0.09164,-0.02854 -0.518917,-0.143961 -0.949503,-0.256486 z m 25.849866,-1.816593 c -0.515828,-1.32516 -0.7242,-12.190636 -0.233783,-12.190636 0.269961,0 0.442799,2.322421 0.442799,5.949925 0,4.031235 0.173116,6.123041 0.536836,6.486761 0.359152,0.359151 0.374993,0.536835 0.04786,0.536835 -0.268937,0 -0.626107,-0.352298 -0.793715,-0.782885 z M 38.954947,88.272294 c -0.407879,-1.033403 -0.254261,-2.330093 0.219875,-1.85596 0.225873,0.225873 0.328396,0.886852 0.22783,1.468839 -0.13082,0.757073 -0.258211,0.867227 -0.447705,0.387121 z M 38.83791,83.744553 c 0.167007,-0.438956 8.94e-4,-0.830676 -0.420859,-0.992523 -0.543614,-0.208605 -0.685348,-0.934161 -0.64486,-3.301113 0.02854,-1.668555 0.14396,-2.681438 0.256485,-2.250852 0.112523,0.430587 0.347233,0.782885 0.521575,0.782885 0.174344,0 0.35864,0.503283 0.40955,1.118407 0.05091,0.615124 -0.106496,1.118407 -0.34979,1.118407 -0.243293,0 -0.442351,0.201313 -0.442351,0.447363 0,0.246049 0.251641,0.397034 0.559203,0.335522 0.7284,-0.145679 1.012331,2.299449 0.343992,2.962356 -0.378962,0.375883 -0.43842,0.319614 -0.232945,-0.220452 z m -3.688973,-1.511656 c 0.005,-0.984198 0.09658,-1.334148 0.203585,-0.777669 0.107006,0.556479 0.102944,1.361732 -0.009,1.789451 -0.111972,0.427719 -0.199523,-0.02758 -0.194558,-1.011782 z m 28.589036,0.671044 c 0,-0.615124 0.101542,-0.866766 0.225645,-0.559204 0.124103,0.307562 0.124103,0.810845 0,1.118407 -0.124103,0.307562 -0.225645,0.05592 -0.225645,-0.559203 z M 39.509748,79.603495 c 0,-0.09289 0.352298,-0.445193 0.782885,-0.782885 0.709542,-0.556461 0.725366,-0.540638 0.168904,0.168906 -0.584421,0.745195 -0.951789,0.982177 -0.951789,0.613979 z M 58.075304,77.98295 c -0.152068,-0.246049 0.0255,-0.447363 0.39456,-0.447363 0.369075,0 0.795461,0.201314 0.947528,0.447363 0.152068,0.24605 -0.0255,0.447363 -0.39456,0.447363 -0.369075,0 -0.795461,-0.201313 -0.947528,-0.447363 z m -1.56577,-1.775413 c 0,-0.238323 0.30197,-0.317444 0.671044,-0.175818 0.369075,0.141631 0.671044,0.336623 0.671044,0.433325 0,0.0967 -0.301969,0.175818 -0.671044,0.175818 -0.369074,0 -0.671044,-0.194997 -0.671044,-0.433325 z M 37.755615,75.485176 c 0.02146,-0.521155 0.127472,-0.627158 0.270282,-0.270283 0.12923,0.322938 0.113336,0.708788 -0.03532,0.857447 -0.148655,0.148654 -0.254389,-0.115572 -0.234964,-0.587164 z M 60.822456,74.62301 c 0.07285,-0.925057 0.269196,-1.805713 0.436317,-1.957011 0.167122,-0.151294 0.194849,0.168217 0.06162,0.710032 -0.133234,0.541814 -0.05533,1.047419 0.173111,1.123569 0.228446,0.07615 0.141112,0.513501 -0.194075,0.971896 -0.549169,0.751032 -0.59633,0.667138 -0.476969,-0.848486 z m -16.872849,0.04541 c 0.51584,-0.621548 0.42786,-0.718447 -0.694339,-0.764735 -0.706764,-0.02917 -1.521486,-0.0238 -1.810494,0.01185 -0.289008,0.03565 -0.624639,-0.09559 -0.745848,-0.291712 -0.121208,-0.19612 0.883781,-0.405557 2.233309,-0.465419 1.5691,-0.0696 2.352631,0.05467 2.173375,0.344716 -0.182858,0.295881 1.409987,0.453563 4.581574,0.453563 3.647349,0 5.078821,0.168285 5.730279,0.673652 0.80562,0.624962 0.773701,0.639738 -0.441569,0.20445 -1.212693,-0.434367 -4.547796,-0.330883 -9.627136,0.298717 -1.782358,0.22093 -1.928247,0.172436 -1.399151,-0.465087 z m 10.385288,-1.111205 c -0.422839,-0.267898 -0.11529,-0.44339 1.006566,-0.57436 1.123507,-0.131162 1.615436,-0.01159 1.615436,0.392619 0,0.653826 -1.691819,0.771093 -2.622002,0.181741 z m 3.352295,0.04798 c -0.119482,-0.193328 0.155825,-0.351502 0.611795,-0.351502 0.45597,0 0.731277,0.158174 0.611796,0.351502 -0.119477,0.193323 -0.394789,0.351497 -0.611796,0.351497 -0.217007,0 -0.492318,-0.158174 -0.611795,-0.351497 z m -8.670983,-1.298972 c 0.430587,-0.112521 1.135183,-0.112521 1.56577,0 0.430587,0.112525 0.07829,0.204593 -0.782885,0.204593 -0.861173,0 -1.213471,-0.09207 -0.782885,-0.204593 z M 31.457218,54.943766 V 43.983378 h 1.539368 c 0.846652,0 1.663373,0.200646 1.814936,0.445879 0.151563,0.245234 0.13295,5.177409 -0.04136,10.960387 l -0.316928,10.514511 h -1.498007 -1.498006 z m 33.104846,0 V 43.983378 h 1.56577 1.56577 v 10.960388 10.960389 h -1.56577 -1.56577 z M 31.537944,5.4043603 c 0.108524,-0.7595631 0.525339,-1.0623208 1.730604,-1.2570423 1.532719,-0.247625 1.581265,-0.2130087 1.403153,1.0005432 -0.161408,1.0997446 -0.377964,1.2570423 -1.730603,1.2570423 -1.344985,0 -1.527513,-0.1301548 -1.403154,-1.0005432 z m 5.847807,-0.5652266 c 0.005,-0.9841981 0.09658,-1.3341492 0.203585,-0.777669 0.107006,0.5564802 0.102944,1.3617332 -0.009,1.7894512 -0.111972,0.4277181 -0.199523,-0.027584 -0.194558,-1.0117822 z m 27.176313,0.4473628 c 0,-0.9799375 0.193856,-1.1184069 1.56577,-1.1184069 1.371914,0 1.56577,0.1384694 1.56577,1.1184069 0,0.9799375 -0.193856,1.118407 -1.56577,1.118407 -1.371914,0 -1.56577,-0.1384695 -1.56577,-1.118407 z M 34.659394,2.3786384 c 0,-0.6151239 0.101539,-0.8667654 0.225643,-0.5592035 0.124104,0.3075619 0.124104,0.8108451 0,1.118407 -0.124104,0.3075619 -0.225643,0.05592 -0.225643,-0.5592035 z"
         id="path13390" />
      <path
         style="fill:#a3a3a3;fill-opacity:1;stroke-width:0.447363"
         d="M 16.753181,97.641709 C 10.068086,96.295361 5.3624385,90.576638 5.3624385,83.798666 c 0,-3.990243 1.2612519,-7.000807 4.1382134,-9.87777 2.8769611,-2.876963 5.8875261,-4.138213 9.8777701,-4.138213 3.990245,0 7.000809,1.26125 9.877771,4.138213 2.876961,2.876963 4.138213,5.887527 4.138213,9.87777 0,8.773393 -8.150146,15.553114 -16.641225,13.843043 z m 6.106672,-5.143201 c 7.77766,-3.248914 7.77766,-14.150769 0,-17.399683 -5.92872,-2.476569 -12.833079,2.139691 -12.8662243,8.60237 -0.033825,6.595224 6.8576053,11.307256 12.8662243,8.797313 z m -4.823519,-1.050484 c 0,-1.008463 -0.348268,-1.503385 -1.561715,-2.219335 -4.332268,-2.556101 -4.394902,-8.194344 -0.119984,-10.800792 2.844874,-1.734542 6.535069,-0.702825 8.394558,2.346982 2.148155,3.523255 -0.0092,8.771285 -4.570064,11.117287 -2.129383,1.095305 -2.142795,1.092523 -2.142795,-0.444142 z m 42.946828,4.679523 c 0,-0.354553 0.182537,-0.757457 0.405642,-0.895343 0.223104,-0.137887 0.300279,0.152201 0.171505,0.64464 -0.273164,1.044588 -0.577147,1.176632 -0.577147,0.250703 z m -22.905836,-0.84769 c 0.13593,-0.5198 0.329296,-0.698638 0.429702,-0.397424 0.100405,0.301218 0.903928,0.547666 1.785605,0.547666 2.042553,0 1.759832,0.256773 -0.616103,0.559552 -1.70803,0.217669 -1.827836,0.164496 -1.599204,-0.709794 z m 17.006239,0.73937 c 0.322938,-0.12923 0.708788,-0.11334 0.857447,0.0353 0.148654,0.148654 -0.115572,0.254388 -0.587164,0.234963 -0.521155,-0.02147 -0.627158,-0.127471 -0.270283,-0.270278 z m 8.238933,-0.225646 c 0.09739,-0.292186 0.42117,-0.579057 0.719507,-0.637492 0.298333,-0.05844 0.334829,-0.0036 0.08109,0.12209 -0.253736,0.125588 -0.347543,0.41246 -0.208463,0.637492 0.139077,0.225033 0.02291,0.409154 -0.258177,0.409154 -0.281074,0 -0.431356,-0.239062 -0.333961,-0.531244 z m -19.21469,-0.475323 c -0.670679,-0.867186 -1.092569,-1.67761 -0.873329,-1.67761 0.109247,0 0.528395,0.503283 0.93144,1.118407 0.754179,1.151024 0.712178,1.55519 -0.05811,0.559203 z m 12.197152,0.142754 c -0.141564,-0.22905 -0.08634,-0.522162 0.122716,-0.651365 0.209057,-0.129203 0.380101,0.0582 0.380101,0.41645 0,0.75433 -0.141071,0.820235 -0.502817,0.234915 z M 40.767956,94.677138 c 0.32294,-0.129229 0.70879,-0.113339 0.857445,0.0353 0.148655,0.148654 -0.115569,0.254389 -0.587163,0.234964 -0.521152,-0.02147 -0.627158,-0.127471 -0.270282,-0.270279 z m 18.232315,-1.882283 c -0.13543,-0.219132 0.204986,-0.68714 0.756486,-1.040007 1.41062,-0.902572 2.673637,-1.33043 2.341645,-0.793255 -0.150323,0.243232 -0.563409,0.442241 -0.917962,0.442241 -0.354553,0 -0.644641,0.402626 -0.644641,0.894726 0,0.896989 -1.073456,1.243941 -1.535528,0.496295 z M 42.032147,92.074878 c -0.141628,-0.369074 -0.06251,-0.671044 0.175818,-0.671044 0.238327,0 0.433323,0.30197 0.433323,0.671044 0,0.369074 -0.07912,0.671044 -0.175819,0.671044 -0.0967,0 -0.291695,-0.30197 -0.433322,-0.671044 z m -4.707318,-0.917094 c -0.02854,-0.504401 -0.293471,-1.158669 -0.58873,-1.453929 -0.417539,-0.417537 -0.417539,-0.656133 0,-1.07367 0.295259,-0.29526 0.560188,-0.949528 0.58873,-1.453929 0.04441,-0.784845 0.08199,-0.801097 0.260622,-0.112718 0.114801,0.442406 -0.03386,1.096674 -0.330353,1.453929 -0.420533,0.50671 -0.420533,0.792396 0,1.299106 0.296495,0.357255 0.445154,1.011523 0.330353,1.453929 -0.178628,0.688379 -0.216211,0.672127 -0.260622,-0.112718 z m 2.288292,-1.878923 -0.08877,-2.572336 1.074178,1.737248 c 0.997385,1.613052 1.124065,3.274539 0.206425,2.707408 -0.220267,-0.136132 -0.400485,-0.03432 -0.400485,0.22625 0,0.260571 -0.158082,0.473766 -0.351294,0.473766 -0.193211,0 -0.391238,-1.157552 -0.440059,-2.572336 z m 19.259992,0.642694 c 0.109863,-0.815256 0.47416,-1.972807 0.809547,-2.572336 l 0.609792,-1.090057 0.160469,1.065166 c 0.270332,1.794462 -0.34149,4.079506 -1.092295,4.079506 -0.520028,0 -0.638659,-0.360704 -0.487513,-1.482279 z m -20.462667,0.618466 c -0.14156,-0.22905 -0.08634,-0.522162 0.122718,-0.651365 0.209055,-0.129202 0.3801,0.0582 0.3801,0.41645 0,0.75433 -0.14107,0.820236 -0.502818,0.234915 z m -0.03692,-1.932205 c -0.117377,-0.307561 -0.262043,-1.791978 -0.321481,-3.298705 -0.08299,-2.103867 0.02765,-2.687322 0.476845,-2.514608 0.321702,0.123691 0.474993,0.511344 0.340646,0.861446 -0.135305,0.352598 -0.04699,0.514628 0.197971,0.363232 0.253871,-0.1569 0.442238,0.298328 0.442238,1.068772 0,0.738148 -0.217625,1.476588 -0.483611,1.640976 -0.265987,0.164387 -0.362808,0.780209 -0.215159,1.368487 0.277522,1.105733 -0.05997,1.499506 -0.437449,0.5104 z m 23.335945,-0.129135 c -0.431696,-1.124979 -0.304346,-1.415255 0.223024,-0.508357 0.261121,0.449041 0.380526,0.910679 0.265344,1.025862 -0.115183,0.115182 -0.33495,-0.117697 -0.488368,-0.517505 z m -0.191736,-4.00897 c 0.0091,-0.738149 0.10938,-0.985961 0.222805,-0.550691 0.113424,0.435271 0.105967,1.039211 -0.0166,1.342089 -0.122547,0.302878 -0.215347,-0.05325 -0.20623,-0.791398 z M 39.542543,81.785534 c -0.0026,-1.550801 1.118413,-3.802584 1.893094,-3.802584 0.374065,0 -0.407041,2.850699 -1.165013,4.25179 l -0.725053,1.340245 -0.003,-1.789451 z M 59.305552,81.33219 c -0.553612,-0.850983 -1.006567,-1.81177 -1.006567,-2.135088 0,-0.323314 -0.250867,-0.838712 -0.557481,-1.145325 -0.308318,-0.308318 0.09142,-0.233769 0.894381,0.166804 1.464917,0.730794 2.098847,2.027345 1.825151,3.732875 -0.130867,0.815493 -0.270923,0.740435 -1.155484,-0.619266 z m 1.790426,0.006 c 0.005,-0.984199 0.09658,-1.334148 0.203586,-0.777669 0.107005,0.556479 0.102942,1.361732 -0.009,1.789451 -0.11197,0.427719 -0.199524,-0.0276 -0.194558,-1.011782 z m 2.60668,-0.03727 c 0.02147,-0.521155 0.127472,-0.627158 0.270279,-0.270283 0.129229,0.322938 0.113339,0.708788 -0.0353,0.857447 -0.148659,0.148654 -0.254389,-0.115572 -0.234964,-0.587164 z m -3.166859,-3.515247 c 0,-0.846652 0.230499,-1.681824 0.512226,-1.855943 0.353573,-0.218518 0.442071,0.05042 0.285717,0.868327 -0.124577,0.651691 -0.05943,1.184894 0.14478,1.184894 0.204208,0 0.255409,0.30197 0.113783,0.671044 -0.460194,1.199241 -1.056506,0.709137 -1.056506,-0.868322 z M 42.926872,75.969818 c 0.141627,-0.369075 0.461929,-0.671045 0.711781,-0.671045 0.261844,0 0.218365,0.284259 -0.10264,0.671045 -0.306304,0.369074 -0.626606,0.671044 -0.711781,0.671044 -0.08517,0 -0.03899,-0.30197 0.10264,-0.671044 z m 2.435872,-0.833079 c 0.102521,-0.08912 2.164251,-0.295551 4.581625,-0.45874 2.960844,-0.199881 4.302695,-0.146999 4.111702,0.162031 -0.161869,0.261913 -2.127706,0.458743 -4.581621,0.458743 -2.363959,0 -4.214226,-0.07291 -4.111706,-0.162034 z m 11.594153,-1.65382 c 0,-0.260571 0.201313,-0.349346 0.447363,-0.197278 0.246049,0.152067 0.447362,0.365263 0.447362,0.473766 0,0.108503 -0.201313,0.197278 -0.447362,0.197278 -0.24605,0 -0.447363,-0.213195 -0.447363,-0.473766 z"
         id="path13388" />
      <path
         style="fill:#8c8c8c;fill-opacity:1;stroke-width:0.447363"
         d="m 46.94706,96.56233 c -3.037583,-1.082744 -2.579605,-1.354284 2.400827,-1.423469 3.746198,-0.05204 4.916964,0.07283 5.097654,0.543694 0.157096,0.409386 -0.312877,0.763295 -1.423061,1.071631 -2.20485,0.612359 -3.976156,0.556425 -6.07542,-0.191856 z m 10.847497,-0.349346 c 0.337692,-0.430587 1.042288,-0.759533 1.56577,-0.730991 0.904026,0.04929 0.906889,0.06293 0.05707,0.271822 -0.492099,0.120958 -1.196695,0.449904 -1.56577,0.730991 -0.583616,0.444477 -0.591051,0.40906 -0.05707,-0.271822 z m 1.846517,0.383385 c 0,-0.0967 0.30197,-0.291694 0.671044,-0.433324 0.369074,-0.141626 0.671044,-0.06251 0.671044,0.175818 0,0.238328 -0.30197,0.433324 -0.671044,0.433324 -0.369074,0 -0.671044,-0.07912 -0.671044,-0.175818 z m 4.249946,-0.718907 c -0.152067,-0.24605 -0.06329,-0.447363 0.197278,-0.447363 0.260571,0 0.473766,0.201313 0.473766,0.447363 0,0.246049 -0.08877,0.447363 -0.197278,0.447363 -0.108503,0 -0.321698,-0.201314 -0.473766,-0.447363 z m -8.276212,-0.829057 c 0,-0.721923 -0.303495,-0.808667 -2.348654,-0.671273 -2.333664,0.156779 -2.340088,0.153634 -1.006566,-0.492855 1.407806,-0.682496 5.825191,-0.967068 4.786741,-0.308367 -0.319891,0.20291 -0.614372,0.803763 -0.654407,1.335239 -0.0887,1.177482 -0.777114,1.299075 -0.777114,0.137256 z m -16.999786,-0.06567 c 0,-0.534209 1.217324,-0.534209 2.460496,0 0.717737,0.308421 0.562871,0.390696 -0.782885,0.415918 -0.922686,0.0173 -1.677611,-0.169868 -1.677611,-0.415918 z m 4.769842,-1.098852 C 42.91488,93.527737 42.6531,92.911003 42.773766,92.44418 c 0.19148,-0.74078 0.215917,-0.74392 0.26299,-0.03378 0.0395,0.595873 0.452637,0.784508 1.729505,0.789676 0.922686,0.0036 2.58352,0.292239 3.690743,0.641115 l 2.013132,0.634329 -3.131539,0.0157 c -2.006395,0.01006 -3.426949,-0.208154 -3.953733,-0.607337 z m 14.28916,-1.659886 c 0.12672,-0.20504 0.419836,-0.372801 0.651365,-0.372801 0.231528,0 0.420959,0.167761 0.420959,0.372801 0,0.205044 -0.293117,0.372805 -0.651365,0.372805 -0.358252,0 -0.547684,-0.167761 -0.420959,-0.372805 z M 37.720297,91.045944 c 0,-0.442889 -0.224611,-1.029865 -0.499136,-1.304389 -0.367273,-0.367272 -0.30818,-0.771764 0.223682,-1.531104 0.397549,-0.567578 0.722817,-0.826118 0.722817,-0.574535 0,0.251588 -0.224035,0.681468 -0.497856,0.95529 -0.56847,0.568468 -0.107282,1.620853 0.536065,1.223242 0.233062,-0.144038 0.288703,-0.480396 0.123648,-0.747463 -0.183438,-0.296807 -0.09088,-0.356262 0.238107,-0.15294 0.393804,0.243384 0.406521,0.491303 0.0474,0.924019 -0.345246,0.415998 -0.349525,0.678708 -0.01443,0.88581 0.527896,0.326257 0.201493,1.127323 -0.459337,1.127323 -0.231529,0 -0.420961,-0.362364 -0.42096,-0.805253 z m 3.802584,-0.08947 c -0.152068,-0.246049 -0.07517,-0.447363 0.170877,-0.447363 0.246049,0 0.571781,0.201314 0.723848,0.447363 0.152067,0.24605 0.07517,0.447363 -0.170877,0.447363 -0.24605,0 -0.571781,-0.201313 -0.723848,-0.447363 z m 16.936716,-5.407006 c -0.03467,-2.931335 -8.94e-4,-5.329701 0.07535,-5.329701 0.07613,0 0.557468,0.678032 1.069636,1.506731 1.103684,1.785806 1.198695,3.932234 0.238896,5.397075 -0.380773,0.581133 -0.795644,1.626409 -0.92193,2.322837 -0.126286,0.696423 -0.267697,1.303696 -0.31425,1.349492 -0.04655,0.0458 -0.113017,-2.315098 -0.147706,-5.246434 z m 1.878307,5.001364 c -0.137886,-0.223104 0.152202,-0.300278 0.644641,-0.171505 1.044587,0.273164 1.176631,0.577147 0.250702,0.577147 -0.354553,0 -0.757457,-0.182537 -0.895343,-0.405642 z m -19.82159,-2.25877 c -1.24308,-2.177002 -1.275562,-4.001759 -0.11184,-6.282844 0.492099,-0.964594 0.914792,-2.214781 0.939318,-2.778194 0.04333,-0.995288 0.05374,-0.992618 0.366749,0.09402 0.177186,0.615123 0.135848,1.244089 -0.09186,1.397704 -0.457335,0.308519 -0.528484,7.08101 -0.08894,8.465894 0.423805,1.335292 0.09476,1.044185 -1.013427,-0.896578 z m 20.466848,-2.331141 c 0,-1.763352 0.07854,-3.122216 0.174534,-3.019698 0.376536,0.402139 0.574521,6.2258 0.211656,6.2258 -0.212403,0 -0.38619,-1.442745 -0.38619,-3.206102 z M 37.425014,83.723 c -0.04794,-1.245324 0.06068,-1.651073 0.328672,-1.227716 0.486577,0.768677 0.545604,3.093827 0.07845,3.090302 C 37.6476,85.584243 37.464395,84.746033 37.425014,83.723 Z m 23.110785,-3.503236 c 0,-0.492099 0.182466,-0.894725 0.405481,-0.894725 0.223015,0 0.300194,0.402626 0.171505,0.894725 -0.128688,0.492099 -0.311154,0.894726 -0.40548,0.894726 -0.09433,0 -0.171506,-0.402627 -0.171506,-0.894726 z m -2.648857,-1.155686 c 0.02147,-0.521155 0.127471,-0.627157 0.270278,-0.270283 0.12923,0.322938 0.11334,0.708788 -0.0353,0.857447 -0.148659,0.148654 -0.254389,-0.115572 -0.234964,-0.587164 z M 44.594947,77.200065 c 0.227779,-0.37914 0.02171,-0.559203 -0.639946,-0.559203 -0.816748,0 -0.88508,-0.109439 -0.418988,-0.671044 0.381163,-0.459272 1.35142,-0.661095 3.074474,-0.639523 l 2.517561,0.03154 -1.742438,0.638547 c -0.958345,0.351203 -2.053881,0.890628 -2.434531,1.198727 -0.552053,0.446835 -0.624113,0.447032 -0.356132,8.95e-4 z m 9.488212,-0.344057 c -0.473337,-0.358119 -1.58056,-0.797456 -2.460495,-0.976303 l -1.59989,-0.325174 2.236814,-0.284554 c 2.321504,-0.295331 4.249946,0.118698 4.249946,0.91245 0,0.252138 -0.452955,0.472585 -1.006566,0.48988 -0.960443,0.03002 -0.96557,0.04906 -0.111841,0.415918 0.582596,0.250348 0.66063,0.39048 0.223681,0.401691 -0.369074,0.0095 -1.058317,-0.27579 -1.531649,-0.633908 z M 46.22019,73.199354 c 1.734922,-0.758271 6.405779,-0.616037 7.879598,0.239947 0.645719,0.375029 -0.364538,0.484798 -4.300696,0.467288 -5.010456,-0.02228 -5.103824,-0.04075 -3.578902,-0.707235 z m -8.7348,-33.242241 c 0,-18.330691 0.0553,-25.829609 0.122898,-16.664264 0.06759,9.165345 0.06759,24.163183 0,33.328528 -0.06759,9.165345 -0.122898,1.666426 -0.122898,-16.664264 z"
         id="path13386" />
      <path
         style="fill:#767676;fill-opacity:1;stroke-width:0.447363"
         d="m 58.970777,96.326033 c -0.15248,-0.246712 0.05816,-0.448571 0.468075,-0.448571 0.478701,0 0.653199,-0.240042 0.487805,-0.671044 -0.324249,-0.844979 -0.101995,-0.85687 0.583249,-0.03118 0.424109,0.511019 0.350531,0.736445 -0.365433,1.11962 -0.593301,0.31752 -0.990215,0.328073 -1.173696,0.03118 z m -4.646163,-0.801026 c -0.02854,-0.316876 -0.504849,-0.537207 -1.05846,-0.489625 -1.949562,0.167551 -3.51701,-0.05726 -3.263149,-0.468027 0.141196,-0.228454 -0.19922,-0.50301 -0.756482,-0.610117 -0.557262,-0.107112 -0.107291,-0.219078 0.999932,-0.248819 1.529305,-0.04107 1.851858,0.05954 1.342088,0.41866 -0.495508,0.349073 -0.05666,0.422968 1.677611,0.282501 1.93768,-0.156944 2.347456,-0.06473 2.341805,0.526984 -0.0056,0.588188 -0.07795,0.604933 -0.402058,0.09308 -0.317538,-0.501484 -0.437865,-0.457527 -0.612297,0.223682 -0.119401,0.466299 -0.240448,0.588559 -0.26899,0.271683 z m -8.439946,-0.415332 c 0.676636,-0.102504 1.783859,-0.102504 2.460495,0 0.676636,0.1025 0.123025,0.186367 -1.230248,0.186367 -1.353272,0 -1.906883,-0.08387 -1.230247,-0.186367 z m -0.559204,-1.799369 c -1.92277,-0.161484 -2.058314,-0.267478 -3.019699,-2.36136 -0.553611,-1.205759 -1.006566,-2.636792 -1.006566,-3.180073 0,-1.276586 0.551966,-0.741102 0.619606,0.601103 0.02954,0.586206 0.337098,1.020725 0.722483,1.020725 0.369074,0 0.674126,0.201314 0.677894,0.447363 0.01288,0.841074 0.716391,1.56577 1.519996,1.56577 0.441649,0 1.34605,0.503283 2.00978,1.118407 0.66373,0.615124 1.045424,1.082121 0.848209,1.03777 -0.197215,-0.04433 -1.26448,-0.156716 -2.371703,-0.249705 z m 7.948174,-0.316267 c 0.557727,-0.416182 0.880491,-0.994564 0.717257,-1.285292 -0.200526,-0.357138 -0.101381,-0.347211 0.30567,0.0306 0.820127,0.761237 1.345841,0.704301 1.032661,-0.111841 -0.159951,-0.416821 0.0027,-0.671044 0.428976,-0.671044 0.377565,0 1.199518,-0.654268 1.82656,-1.453929 l 1.140072,-1.453929 -0.241643,1.340375 c -0.132907,0.737209 -0.530693,1.502137 -0.883971,1.69984 -0.353278,0.197707 -0.642323,0.752088 -0.642323,1.231961 0,0.69492 -0.31123,0.872496 -1.52918,0.872496 -0.841051,0 -1.897946,0.125427 -2.348655,0.278725 -0.605537,0.205961 -0.554739,0.08118 0.194576,-0.477971 z m 7.262161,-1.142842 c 0,-0.24605 0.213195,-0.447363 0.473766,-0.447363 0.260571,0 0.349346,0.201313 0.197278,0.447363 -0.152067,0.246049 -0.365262,0.447363 -0.473766,0.447363 -0.108503,0 -0.197278,-0.201314 -0.197278,-0.447363 z m 1.491208,-2.013133 c 0,-0.322159 0.268418,-0.48274 0.596487,-0.356848 0.328064,0.125893 0.596482,0.286474 0.596482,0.356848 0,0.07037 -0.268418,0.230956 -0.596482,0.356848 -0.328069,0.125892 -0.596487,-0.03467 -0.596487,-0.356848 z m -24.554483,-0.26266 c -0.165316,-0.267492 -0.06461,-0.720446 0.223784,-1.006566 0.40003,-0.396874 0.447013,-0.317194 0.19815,0.336045 -0.245235,0.643724 -0.179132,0.765375 0.266299,0.490086 0.394232,-0.243651 0.48569,-0.193354 0.273304,0.150292 -0.396784,0.64201 -0.579835,0.64775 -0.961537,0.03015 z m 23.063275,-1.750472 c 0,-0.984199 0.07951,-1.789452 0.176691,-1.789452 0.09718,0 0.253489,0.805253 0.347346,1.789452 0.09386,0.984198 0.01436,1.789451 -0.176691,1.789451 -0.191042,0 -0.347346,-0.805253 -0.347346,-1.789451 z m -2.123998,-1.56577 c 0.005,-0.984198 0.09658,-1.334148 0.203586,-0.777669 0.107005,0.556479 0.102943,1.361732 -0.009,1.789451 -0.11197,0.427719 -0.199523,-0.0276 -0.194558,-1.011782 z M 37.34357,84.246029 c 0,-0.615124 0.10154,-0.866765 0.225644,-0.559203 0.124104,0.307562 0.124104,0.810845 0,1.118407 -0.124104,0.307562 -0.225644,0.05592 -0.225644,-0.559204 z m 23.296017,-1.789451 c 0,-0.861173 0.09207,-1.213471 0.204593,-0.782885 0.11252,0.430587 0.11252,1.135183 0,1.56577 -0.112525,0.430587 -0.204593,0.07829 -0.204593,-0.782885 z M 37.438443,77.535587 c 0,-2.58352 0.07394,-3.640414 0.164306,-2.348654 0.09037,1.29176 0.09037,3.405549 0,4.697309 -0.09037,1.29176 -0.164306,0.234866 -0.164306,-2.348655 z m 20.413179,3.641332 c 0,-0.211714 -0.497216,-1.117624 -1.104923,-2.013132 -0.607711,-0.895509 -0.960009,-1.64235 -0.782885,-1.659645 0.17712,-0.01729 -0.08059,-0.204453 -0.572687,-0.415917 -0.878075,-0.377324 -0.877283,-0.385063 0.0425,-0.415918 0.515478,-0.01731 1.253367,0.320853 1.639759,0.75144 0.708349,0.789376 1.55943,4.138106 1.0517,4.138106 -0.150403,0 -0.273464,-0.173219 -0.273464,-0.384934 z m -16.10506,-2.032982 c 0,-1.480247 1.029334,-2.617797 2.191998,-2.422447 0.754115,0.126707 0.677526,0.343253 -0.670301,1.895199 l -1.521697,1.752145 z m 7.521287,-3.703399 c 0.322938,-0.129229 0.708788,-0.113339 0.857447,0.0353 0.148654,0.148654 -0.115572,0.254389 -0.587164,0.234964 -0.521155,-0.02147 -0.627158,-0.127472 -0.270283,-0.270279 z"
         id="path13384" />
      <path
         style="fill:#606060;fill-opacity:1;stroke-width:0.447363"
         d="m 58.079813,96.317528 c 0.154546,-0.250062 0.468398,-0.338841 0.697448,-0.197278 0.62051,0.383493 0.504808,0.651937 -0.280998,0.651937 -0.383595,0 -0.570996,-0.204596 -0.41645,-0.454659 z m -3.35973,-1.11111 c 0,-0.369075 0.07912,-0.671045 0.175818,-0.671045 0.0967,0 0.291694,0.30197 0.433325,0.671045 0.141626,0.369074 0.06251,0.671044 -0.175819,0.671044 -0.238328,0 -0.433324,-0.30197 -0.433324,-0.671044 z m -9.059097,-0.547304 c 0.799661,-0.09923 2.108198,-0.09923 2.907859,0 0.799661,0.09924 0.145392,0.180435 -1.45393,0.180435 -1.599322,0 -2.25359,-0.0812 -1.453929,-0.180435 z m 1.754906,-1.57767 c -0.639196,-0.467391 -0.262248,-0.559203 2.295929,-0.559203 3.59817,0 5.730484,-1.131117 7.434646,-3.943812 0.692334,-1.142681 1.113692,-1.499945 1.274577,-1.080685 0.304278,0.792933 -1.748093,3.458727 -2.662842,3.458727 -0.442509,0 -0.589871,0.251771 -0.414634,0.708426 0.173241,0.451461 0.0689,0.637962 -0.287659,0.514167 -0.307727,-0.106843 -1.039613,0.178306 -1.626405,0.633663 -1.247892,0.968375 -4.837415,1.128772 -6.013612,0.268717 z M 42.86944,90.066412 c -0.704733,-0.735581 -1.195351,-1.411001 -1.090264,-1.500929 0.105087,-0.08993 0.851029,0.511908 1.657649,1.337422 0.80662,0.82551 1.297239,1.500929 1.090264,1.500929 -0.206975,0 -0.952917,-0.601842 -1.657649,-1.337422 z m 18.561085,-0.478433 c 0,-0.260571 0.201313,-0.349345 0.447363,-0.197278 0.246049,0.152068 0.447362,0.365263 0.447362,0.473767 0,0.108503 -0.201313,0.197278 -0.447362,0.197278 -0.24605,0 -0.447363,-0.213196 -0.447363,-0.473767 z m -0.807512,-4.670906 c 0.0091,-0.738148 0.10938,-0.98596 0.222804,-0.55069 0.113425,0.435271 0.105967,1.039211 -0.0166,1.342089 -0.122546,0.302878 -0.215347,-0.05325 -0.20623,-0.791399 z"
         id="path13382" />
      <path
         style="fill:#494949;fill-opacity:1;stroke-width:0.447363"
         d="m 60.535799,90.061746 c 0,-0.24605 0.189432,-0.447363 0.42096,-0.447363 0.231528,0 0.54538,0.201313 0.697447,0.447363 0.152068,0.246049 -0.03736,0.447362 -0.420959,0.447362 -0.383596,0 -0.697448,-0.201313 -0.697448,-0.447362 z"
         id="path13380" />
    </g>
  </g>
</svg>
