<?xml version="1.0" encoding="UTF-8" standalone="no"?>
<!-- Created with Inkscape (http://www.inkscape.org/) -->

<svg
   width="100mm"
   height="100mm"
   viewBox="0 0 100 100"
   version="1.1"
   id="svg158"
   inkscape:version="1.1.1 (3bf5ae0d25, 2021-09-20)"
   sodipodi:docname="add_list_type_device_605d.svg"
   xmlns:inkscape="http://www.inkscape.org/namespaces/inkscape"
   xmlns:sodipodi="http://sodipodi.sourceforge.net/DTD/sodipodi-0.dtd"
   xmlns="http://www.w3.org/2000/svg"
   xmlns:svg="http://www.w3.org/2000/svg">
  <sodipodi:namedview
     id="namedview160"
     pagecolor="#505050"
     bordercolor="#ffffff"
     borderopacity="1"
     inkscape:pageshadow="0"
     inkscape:pageopacity="0"
     inkscape:pagecheckerboard="1"
     inkscape:document-units="mm"
     showgrid="false"
     width="100mm"
     inkscape:zoom="0.58974467"
     inkscape:cx="378.97757"
     inkscape:cy="228.91262"
     inkscape:window-width="1440"
     inkscape:window-height="890"
     inkscape:window-x="-6"
     inkscape:window-y="-6"
     inkscape:window-maximized="1"
     inkscape:current-layer="layer1" />
  <defs
     id="defs155" />
  <g
     inkscape:label="Laag 1"
     inkscape:groupmode="layer"
     id="layer1">
    <g
       id="g174"
       transform="translate(-4.0377662)">
      <path
         style="fill:#d0d0d0;fill-opacity:1;stroke-width:0.447363"
         d="m 86.768251,84.581551 -0.101354,-2.124973 h -6.263079 -6.263079 l 1.4e-5,-13.980087 8e-6,-13.980087 h 6.219649 6.219645 l 0.297089,7.605167 c 0.163399,4.182842 0.228549,11.430119 0.144775,16.105061 -0.08377,4.674941 -0.197926,7.543655 -0.253668,6.374919 z M 29.060888,83.798666 c 0,-0.861173 0.09207,-1.213471 0.20459,-0.782884 0.112523,0.430586 0.112523,1.135183 0,1.565769 -0.112525,0.430587 -0.20459,0.07829 -0.20459,-0.782885 z m -15.69085,0 c 0,-0.615123 0.101539,-0.866765 0.225644,-0.559203 0.124103,0.307562 0.124103,0.810845 0,1.118407 -0.124105,0.307562 -0.225644,0.05592 -0.225644,-0.559204 z m 35.187142,0.141765 c 0.322938,-0.129229 0.708789,-0.113339 0.857447,0.0353 0.148654,0.148654 -0.115572,0.254389 -0.587163,0.234964 -0.521156,-0.02147 -0.627158,-0.127471 -0.270284,-0.270279 z m 8.927308,-0.01861 c 0.804067,-0.09956 2.011947,-0.09751 2.684177,0.0046 0.672229,0.102079 0.01436,0.18354 -1.461942,0.18103 -1.476297,-0.0027 -2.026303,-0.08603 -1.222235,-0.185593 z m -7.316242,-1.912606 c 0.03677,-0.518444 0.707826,-0.679624 2.950934,-0.708783 l 2.903367,-0.03776 -2.767181,0.170181 c -1.61965,0.09961 -2.843384,0.393532 -2.950934,0.70878 -0.101068,0.296234 -0.162348,0.236637 -0.136186,-0.132438 z m -4.4702,-3.336024 C 45.54631,78.068625 45.526582,77.3137 45.654205,76.99558 c 0.127624,-0.318119 0.247936,-0.02478 0.267361,0.651848 0.02642,0.920234 0.260783,1.230248 0.930043,1.230248 0.492099,0 0.894726,0.201313 0.894726,0.447363 0,0.988143 -1.778752,0.422073 -2.048289,-0.651848 z m 4.285103,0.651848 c 0,-0.24605 0.201313,-0.447363 0.447363,-0.447363 0.24605,0 0.447363,0.201313 0.447363,0.447363 0,0.246049 -0.201313,0.447362 -0.447363,0.447362 -0.24605,0 -0.447363,-0.201313 -0.447363,-0.447362 z M 32.536001,75.43576 c 0,-0.252719 -0.52769,-1.237087 -1.172644,-2.187483 -0.644955,-0.950391 -0.832994,-1.4461 -0.417866,-1.101577 0.940949,0.780921 2.192406,3.14666 1.847178,3.49189 -0.141167,0.141166 -0.256668,0.0499 -0.256668,-0.20283 z M 46.85161,74.525332 c -0.951147,-0.362068 -1.335305,-1.067944 -1.283344,-2.358098 0.03157,-0.783802 0.107317,-0.878661 0.253188,-0.317068 0.114479,0.440737 0.771558,0.914024 1.460179,1.051749 0.958841,0.191767 1.20001,0.449345 1.029874,1.099949 -0.232929,0.890713 -0.367956,0.939131 -1.459897,0.523468 z M 49.983149,73.7066 c 0,-0.383595 0.201313,-0.573027 0.447363,-0.420959 0.24605,0.152067 0.447363,0.465919 0.447363,0.697447 0,0.231529 -0.201313,0.42096 -0.447363,0.42096 -0.24605,0 -0.447363,-0.313852 -0.447363,-0.697448 z M 16.794423,69.624822 c 0.32294,-0.12923 0.708791,-0.113339 0.857446,0.0353 0.148654,0.148654 -0.115569,0.254388 -0.587164,0.234964 -0.521152,-0.02147 -0.627158,-0.127472 -0.270282,-0.270279 z m 33.671408,-0.402725 c 0.02147,-0.521155 0.127472,-0.627158 0.270279,-0.270283 0.12923,0.322938 0.113339,0.708788 -0.0353,0.857447 -0.148659,0.148654 -0.254388,-0.115572 -0.234964,-0.587164 z m -4.797516,-3.541624 c -0.0013,-2.214445 0.07429,-3.176759 0.168108,-2.13847 0.09382,1.038285 0.09494,2.850104 0.0025,4.026265 -0.09244,1.176157 -0.169205,0.326651 -0.170569,-1.887795 z M 11.994276,64.140664 C 7.4409651,52.333534 8.8193158,38.980312 15.737359,27.878318 l 1.811989,-2.907859 0.140637,1.964195 c 0.173737,2.42649 -1.534245,6.11709 -2.471108,5.339563 -0.434902,-0.360937 -0.769691,-0.01 -1.411635,1.479899 -0.923713,2.1438 -0.754487,3.251367 0.291676,1.908981 0.64508,-0.827737 0.653651,-0.82655 0.31811,0.04407 -1.837072,4.766606 -2.164211,6.833287 -2.195235,13.868247 -0.02357,5.345247 0.15253,7.800656 0.695429,9.696423 0.596517,2.082997 0.615761,2.495935 0.107225,2.300796 -0.356637,-0.136858 -0.619771,0.0442 -0.619771,0.426444 0,0.946709 1.28756,3.905079 1.699591,3.905079 0.190023,0 0.345496,0.402626 0.345496,0.894725 0,1.96051 -1.157588,0.707348 -2.455487,-2.658217 z M 11.509951,48.904369 c 0,-1.230248 -0.201314,-2.236814 -0.447363,-2.236814 -0.24605,0 -0.447363,1.006566 -0.447363,2.236814 0,1.230247 0.201313,2.236814 0.447363,2.236814 0.246049,0 0.447363,-1.006567 0.447363,-2.236814 z m 15.557681,16.671645 c 1.052214,-0.0945 2.66272,-0.09317 3.578902,0.0031 0.916182,0.09613 0.05528,0.173447 -1.913117,0.171823 -1.968396,-0.0018 -2.717999,-0.08028 -1.665785,-0.17478 z M 16.49881,60.765102 c -2.156255,-6.568405 -2.332263,-13.752523 -0.498151,-20.333025 0.510109,-1.830191 1.067245,-3.577258 1.23808,-3.882373 0.170835,-0.305114 0.328916,5.671535 0.351291,13.281444 0.02238,7.609905 3.69e-4,13.836193 -0.0489,13.836193 -0.04927,0 -0.518314,-1.306009 -1.04232,-2.902239 z m 0.379494,-8.505512 c 0,-1.107223 -0.201313,-2.013133 -0.447363,-2.013133 -0.49408,0 -0.624198,3.252945 -0.149121,3.728022 0.52857,0.528572 0.596484,0.333316 0.596484,-1.714889 z m 27.618192,7.266818 -0.789343,-1.451102 0.901184,1.056125 c 0.766839,0.898685 1.176694,1.858703 0.789344,1.848906 -0.06151,-0.0013 -0.467046,-0.655825 -0.901185,-1.453929 z M 34.437293,58.415754 c 1.414785,-0.08878 3.729887,-0.08878 5.144672,0 1.414784,0.08878 0.257233,0.161417 -2.572336,0.161417 -2.82957,0 -3.987121,-0.07264 -2.572336,-0.161417 z M 20.792728,57.531201 c -1.045433,-0.158371 -1.23025,-0.400323 -1.230265,-1.610582 l -1.8e-5,-1.424215 5.927574,0.06698 c 3.260166,0.03682 6.07856,0.08717 6.263097,0.111841 0.184537,0.02465 0.335522,0.749453 0.335522,1.610627 v 1.56577 l -5.032831,-0.06703 c -2.768057,-0.03686 -5.586443,-0.150895 -6.263079,-0.253395 z m -1.414816,-9.66152 c -0.144537,-0.722679 -0.263107,-1.943071 -0.26349,-2.711976 l -6.96e-4,-1.398008 6.487456,0.134825 6.487456,0.134826 v 2.555552 2.555555 l -6.223966,0.02161 -6.223967,0.02161 -0.262793,-1.313972 z m 54.762827,-1.278518 v -2.607785 h 6.231965 c 6.107092,0 6.235848,-0.02017 6.425838,-1.006566 0.106629,-0.553612 0.197471,0.100656 0.201864,1.453929 0.0045,1.353272 -0.119173,2.963778 -0.274596,3.578902 l -0.282595,1.118407 -6.151238,0.03543 -6.151238,0.03543 v -2.607785 z m -25.765863,-0.930175 -0.852222,-1.006566 1.006566,0.852221 c 0.945922,0.800879 1.210224,1.160912 0.852222,1.160912 -0.08489,0 -0.537847,-0.452955 -1.006566,-1.006567 z m 3.509565,0.710287 c -0.307562,-0.124103 -0.553084,-0.561166 -0.545599,-0.971248 0.01226,-0.672686 0.0582,-0.66904 0.469592,0.03728 0.515876,0.885711 1.793061,1.008355 3.236956,0.310843 0.943927,-0.455991 0.947626,-0.448384 0.108767,0.223681 -0.853523,0.683815 -2.16724,0.844302 -3.269716,0.399444 z m 6.151238,-0.822127 c 0.577881,-0.615124 1.151346,-1.118407 1.274371,-1.118407 0.123025,0 -0.249127,0.503283 -0.827008,1.118407 -0.577881,0.615124 -1.151346,1.118407 -1.274371,1.118407 -0.123025,0 0.249127,-0.503283 0.827008,-1.118407 z m -6.902794,-1.515081 c -0.13484,-0.21817 0.104924,-0.671125 0.5328,-1.006566 0.687225,-0.538759 0.71319,-0.526826 0.222639,0.102313 -0.305428,0.391713 -0.422861,0.844668 -0.260964,1.006566 0.1619,0.161898 0.172033,0.294361 0.0225,0.294361 -0.149509,0 -0.38216,-0.178503 -0.516995,-0.396674 z m 2.876529,-0.945415 c 0,-0.246049 0.213195,-0.447362 0.473766,-0.447362 0.260571,0 0.349346,0.201313 0.197278,0.447362 -0.152067,0.24605 -0.365262,0.447363 -0.473766,0.447363 -0.108503,0 -0.197278,-0.201313 -0.197278,-0.447363 z m -1.555556,-4.278898 c -1.28105,-0.667981 -2.002029,-1.410123 -2.016497,-2.075686 -0.0036,-0.173354 0.479099,0.170757 1.073031,0.764691 1.633357,1.633361 3.27287,1.875079 5.276,0.777858 1.936606,-1.060785 2.115046,-0.980967 0.71757,0.32098 -1.166964,1.087193 -3.207565,1.172919 -5.050104,0.212157 z m -4.707523,-2.600448 c 0,-0.0929 0.352299,-0.445195 0.782885,-0.782884 0.709544,-0.556462 0.725368,-0.540639 0.168906,0.168904 -0.584421,0.745193 -0.951791,0.982175 -0.951791,0.61398 z M 33.430727,33.36442 c 0,-1.499967 0.252069,-2.039767 1.405862,-3.01062 1.828757,-1.538798 5.751942,-3.522349 5.751942,-2.908166 0,0.882237 -1.484264,3.346618 -1.675164,2.781338 -0.300831,-0.890802 -1.150975,-0.658328 -2.815362,0.76987 -1.133656,0.97278 -1.397679,1.430378 -0.98488,1.706971 0.423306,0.283634 0.283815,0.641111 -0.559204,1.433086 l -1.123194,1.055186 z m 29.630384,-2.486872 c -0.663077,-0.299757 -0.9314,-0.718529 -0.775378,-1.210117 0.323063,-1.017888 -3.113515,-2.657233 -3.907003,-1.863747 -0.397754,0.397753 -0.376473,0.521996 0.0894,0.521996 0.336265,0 0.527244,0.08415 0.424391,0.187004 -0.102853,0.102852 -1.287497,-0.09846 -2.632546,-0.447363 -1.34505,-0.348901 -3.458571,-0.650259 -4.69671,-0.669684 -1.238139,-0.01943 -1.999519,-0.136858 -1.691957,-0.260962 0.876656,-0.353738 0.654621,-1.045809 -0.335523,-1.045809 -1.011299,0 -1.206027,-0.679542 -0.294919,-1.029167 0.932027,-0.357653 7.010591,0.449208 9.158818,1.215729 2.605177,0.929568 6.347022,3.064024 6.33913,3.616022 -0.01516,1.062214 -0.664767,1.444017 -1.677704,0.986098 z M 33.430727,25.958379 c 0,-1.341144 0.220492,-1.580716 2.470406,-2.684177 2.761065,-1.354153 2.897947,-1.390794 2.897947,-0.775726 0,0.239731 -0.610522,0.751587 -1.356715,1.137459 -0.74915,0.3874 -1.224456,0.915585 -1.061376,1.179455 0.273724,0.442894 -1.859075,2.563242 -2.61474,2.599476 -0.184538,0.0088 -0.335522,-0.646571 -0.335522,-1.456487 z m 32.020218,0.402148 c -1.178246,-0.711102 -1.533541,-1.128728 -1.107835,-1.302187 0.493615,-0.201131 0.436702,-0.40794 -0.268033,-0.973931 -1.17609,-0.944547 -2.929757,-1.366046 -3.291396,-0.791097 -0.188859,0.300247 -1.362014,0.176371 -3.419046,-0.361025 -1.722347,-0.44996 -3.634823,-0.845606 -4.249946,-0.879215 -0.615124,-0.03361 -0.866766,-0.162646 -0.559204,-0.286751 1.315256,-0.530717 0.378814,-1.045808 -1.901292,-1.045808 -2.893734,0 -3.316072,0.76622 -0.559203,1.014527 l 1.901292,0.171246 -2.124973,0.07816 c -1.861124,0.06845 -2.124974,-0.03431 -2.124974,-0.827641 0,-1.354351 1.6055,-1.730822 5.609965,-1.31547 7.933966,0.822928 16.332186,5.063015 14.217221,7.17798 -0.21915,0.219152 -1.142981,-0.06758 -2.122576,-0.658786 z M 19.197872,17.895085 c -0.05026,-5.112408 0.09908,-8.7572221 0.380349,-9.2827776 0.419211,-0.7833045 0.98312,-0.8653155 5.949924,-0.8653155 3.671045,0 5.66448,0.1776571 6.023658,0.5368353 0.367484,0.367484 0.536835,2.5549388 0.536835,6.9341238 v 6.397287 h -6.239699 -6.239701 l -0.164306,2.348655 c -0.09037,1.29176 -0.201545,-1.439204 -0.24706,-6.068808 z m 67.570124,5.845127 -0.101099,-2.124974 h -6.263079 -6.263079 v -6.397287 c 0,-4.379185 0.169349,-6.5666398 0.536835,-6.9341238 0.359179,-0.3591782 2.352614,-0.5368353 6.02366,-0.5368353 5.007291,0 5.528178,0.07728 5.960057,0.8842479 0.29815,0.5571009 0.424132,3.9087152 0.340519,9.0590962 -0.07299,4.496167 -0.178206,7.218611 -0.233814,6.049876 z M 69.384638,22.495909 c -0.25378,-0.253779 -2.051731,-1.260346 -3.995451,-2.236814 -1.943715,-0.976468 -3.142397,-1.775396 -2.663728,-1.775396 0.76211,0 0.788866,-0.07976 0.215235,-0.641606 -0.360288,-0.352882 -1.20868,-0.777333 -1.885316,-0.943223 -0.981187,-0.240556 -1.230248,-0.146259 -1.230248,0.465787 0,0.547849 -0.223985,0.680866 -0.782885,0.464927 -1.510189,-0.58348 -5.180899,-1.135828 -7.889909,-1.187231 -1.504226,-0.02854 -2.382658,-0.14396 -1.952072,-0.256484 1.176708,-0.307506 0.940997,-1.03371 -0.335522,-1.03371 -1.460666,0 -1.444785,-0.72803 0.02201,-1.008422 1.650459,-0.315506 8.515523,0.449985 11.385753,1.269571 2.754471,0.786532 8.197476,3.327927 9.720321,4.538518 0.709612,0.564108 0.920109,1.082333 0.730709,1.798935 -0.292302,1.105943 -0.637528,1.246506 -1.338885,0.545148 z M 33.430727,20.720513 c 0,-0.24605 0.213194,-0.447363 0.473764,-0.447363 0.260571,0 0.349347,0.201313 0.19728,0.447363 -0.152067,0.246049 -0.365261,0.447363 -0.473765,0.447363 -0.108504,0 -0.197279,-0.201314 -0.197279,-0.447363 z m 0,-1.777963 c 0,-0.388696 2.262835,-1.800939 2.885642,-1.800939 0.733901,0 0.06796,0.963762 -1.073975,1.554281 -1.545135,0.79902 -1.811667,0.835309 -1.811667,0.246658 z m 38.249517,-1.29526 c -0.24605,-0.245081 -1.625359,-1.063059 -3.065129,-1.817729 -1.43977,-0.75467 -2.295351,-1.372127 -1.901291,-1.372127 1.304697,0 0.743633,-0.78671 -1.082032,-1.517195 -2.191004,-0.876666 -2.842941,-0.907497 -2.540815,-0.120158 0.177375,0.462222 -0.451783,0.405105 -2.748154,-0.249487 -1.713028,-0.488309 -5.211132,-0.960968 -8.234548,-1.112642 -3.40074,-0.170603 -5.42201,-0.463292 -5.725598,-0.829092 -0.331707,-0.399682 -0.311492,-0.6628919 0.06897,-0.8980293 0.341208,-0.2108792 0.421371,-0.1435842 0.219002,0.183854 -0.175563,0.2840663 -0.106011,0.5164843 0.154559,0.5164843 0.260571,0 0.473767,-0.206296 0.473767,-0.4584358 0,-1.5917777 7.719056,-1.3394928 14.231236,0.4651248 3.364821,0.932439 9.606194,3.76581 10.398612,4.720616 0.622201,0.74971 0.38543,3.120329 -0.248577,2.488816 z M 52.667326,10.431169 c 0,-0.24605 -1.006566,-0.4473632 -2.236814,-0.4473632 -1.230248,0 -2.236814,0.2013132 -2.236814,0.4473632 0,0.246049 1.006566,0.447362 2.236814,0.447362 1.230248,0 2.236814,-0.201313 2.236814,-0.447362 z m -19.236599,2.563135 c 0,-0.372877 0.301969,-0.793835 0.671044,-0.935462 0.369074,-0.141628 0.671044,-0.08716 0.671044,0.121041 0,0.2082 -0.30197,0.629158 -0.671044,0.935462 -0.546278,0.453371 -0.671044,0.430866 -0.671044,-0.121041 z"
         id="path190" />
      <path
         style="fill:#b9b9b9;fill-opacity:1;stroke-width:0.447363"
         d="m 18.136512,97.808678 c 0.32294,-0.12923 0.70879,-0.11334 0.857445,0.0353 0.148655,0.148654 -0.115569,0.254388 -0.587164,0.234964 -0.521152,-0.02147 -0.627157,-0.127472 -0.270281,-0.270279 z M 9.6634361,93.752489 c -0.5564616,-0.709545 -0.5406384,-0.725368 0.168904,-0.168907 0.4305869,0.337692 0.7828849,0.68999 0.7828849,0.782885 0,0.368198 -0.367368,0.131216 -0.9517889,-0.613978 z M 32.976014,91.980373 c 1.103181,-0.104956 2.175402,-0.428601 2.382713,-0.719208 0.260603,-0.365312 0.321111,-0.321282 0.196061,0.142669 -0.12724,0.472075 -0.833728,0.685324 -2.382713,0.719207 l -2.201844,0.04816 z m -19.942799,-1.583105 -0.85222,-1.006567 1.006566,0.852222 c 0.945924,0.800878 1.210224,1.160911 0.852221,1.160911 -0.08489,0 -0.537845,-0.452955 -1.006567,-1.006566 z m 19.418905,0.253605 c 0.32294,-0.12923 0.708791,-0.113339 0.857446,0.0353 0.148655,0.148654 -0.115569,0.254388 -0.587164,0.234964 -0.521152,-0.02147 -0.627158,-0.127472 -0.270282,-0.270279 z m 2.838694,-2.378579 c 0,-0.615123 0.101539,-0.866765 0.225644,-0.559203 0.124103,0.307562 0.124103,0.810845 0,1.118407 -0.124105,0.307562 -0.225644,0.05592 -0.225644,-0.559204 z m 39.38676,-0.984198 c -0.295259,-0.295259 -0.536835,-1.503139 -0.536835,-2.684177 v -2.147341 h 6.263079 6.263079 v 2.147341 c 0,1.181038 -0.241576,2.388918 -0.536836,2.684177 -0.355832,0.355833 -2.28652,0.536836 -5.726243,0.536836 -3.439723,0 -5.370411,-0.181003 -5.726244,-0.536836 z m -28.72069,-5.055199 c 0,-0.369075 0.201313,-0.671044 0.447363,-0.671044 0.24605,0 0.447363,0.301969 0.447363,0.671044 0,0.369074 -0.201313,0.671044 -0.447363,0.671044 -0.24605,0 -0.447363,-0.30197 -0.447363,-0.671044 z m 2.492451,-0.03194 c -0.933476,-0.933476 -0.896873,-0.99944 0.415407,-0.748581 0.615124,0.117589 1.118407,0.492296 1.118407,0.83269 0,0.820714 -0.665488,0.784222 -1.533814,-0.08411 z M 44.519086,71.198628 44.647058,60.946617 43.262841,59.5624 41.878625,58.178183 32.845526,58.408866 c -5.996719,0.153123 -7.454148,0.116668 -4.33579,-0.108467 2.58352,-0.186524 6.947472,-0.363805 9.697671,-0.393953 4.911123,-0.05384 5.017082,-0.03355 5.937277,1.136275 0.515304,0.655105 1.022559,1.611343 1.127234,2.124973 0.319389,1.56722 0.551681,10.407046 0.242021,9.210091 -0.159136,-0.615124 -0.292353,0.592755 -0.296037,2.684176 -0.0047,2.670891 0.08845,3.336593 0.313024,2.236814 0.314966,-1.542471 0.317484,-1.539142 0.169278,0.223682 -0.08274,0.984198 -0.252847,2.695361 -0.378005,3.802584 -0.188366,1.666386 -0.158939,1.781966 0.170842,0.671044 l 0.398404,-1.342089 -0.07912,1.30205 c -0.04696,0.772788 -0.351889,1.34118 -0.750165,1.398317 -0.582927,0.08363 -0.65424,-1.249954 -0.543073,-10.155748 z m -11.017723,8.573775 c 0,-0.615123 0.101539,-0.866765 0.225643,-0.559203 0.124104,0.307562 0.124104,0.810845 0,1.118407 -0.124104,0.307562 -0.225643,0.05592 -0.225643,-0.559204 z M 14.64149,80.050858 c 0,-0.09289 0.352298,-0.445193 0.782885,-0.782885 0.709542,-0.556461 0.725365,-0.540638 0.168904,0.168906 -0.584421,0.745195 -0.951789,0.982176 -0.951789,0.613979 z M 9.2731367,74.235142 c 0,-0.09289 0.3522982,-0.445194 0.7828853,-0.782885 0.709542,-0.556461 0.725365,-0.540638 0.168904,0.168906 -0.5844213,0.745195 -0.9517893,0.982176 -0.9517893,0.613979 z m 8.8633753,-4.61032 c 0.32294,-0.12923 0.70879,-0.113339 0.857445,0.0353 0.148655,0.148654 -0.115569,0.254388 -0.587164,0.234964 -0.521152,-0.02147 -0.627157,-0.127472 -0.270281,-0.270279 z m 7.460856,-2.385875 c -0.154548,-0.250063 -0.468398,-0.338842 -0.697446,-0.197278 -0.229048,0.141559 -0.416451,0.058 -0.416451,-0.185687 0,-0.251015 1.824276,-0.504854 4.208645,-0.585607 2.314756,-0.0784 4.114694,0.0085 3.999863,0.192983 -0.11483,0.184537 -1.718631,0.335522 -3.564003,0.335522 -2.122895,0 -3.253672,0.164312 -3.078735,0.447363 0.152067,0.24605 0.175829,0.447363 0.0528,0.447363 -0.123025,0 -0.35013,-0.204597 -0.504677,-0.454659 z m -5.923047,-1.183709 c -0.649855,-0.262222 -0.793595,-5.072074 -0.151576,-5.072074 0.224196,0 0.475837,1.208246 0.559204,2.684991 0.08337,1.476745 0.151576,2.668734 0.151576,2.648857 0,-0.01986 -0.251642,-0.137671 -0.559204,-0.261774 z m -0.93593,-7.308888 c 0,-0.615124 0.10154,-0.866765 0.225644,-0.559203 0.124104,0.307562 0.124104,0.810845 0,1.118407 -0.124104,0.307562 -0.225644,0.05592 -0.225644,-0.559204 z M 55.523706,46.918409 c -0.135891,-0.354132 -0.0584,-0.981021 0.172208,-1.393092 0.373498,-0.667401 0.446311,-0.645874 0.666763,0.197126 0.159453,0.609764 0.07616,0.840469 -0.234195,0.648658 -0.304663,-0.188289 -0.376688,-0.02411 -0.195998,0.44675 0.157113,0.409435 0.185006,0.744429 0.06198,0.744429 -0.123025,0 -0.334865,-0.289743 -0.47076,-0.643871 z m -4.645831,-0.277258 c 0,-0.260571 -0.251642,-0.322584 -0.559204,-0.137805 -0.443725,0.266583 -0.445926,0.195931 -0.01065,-0.342132 0.387488,-0.478988 0.408881,-0.817767 0.07286,-1.153789 -0.336019,-0.336023 -0.332896,-0.563954 0.01065,-0.776275 0.267487,-0.165317 0.501301,-0.03706 0.519585,0.285029 0.0183,0.322083 0.117679,1.038561 0.220876,1.592172 0.103193,0.553612 0.08823,1.006567 -0.03324,1.006567 -0.121481,0 -0.220876,-0.213196 -0.220877,-0.473767 z M 19.41336,43.685136 C 19.031214,43.302991 19.024629,29.531155 19.40446,25.037957 l 0.289326,-3.422719 h 6.197435 6.197434 v 11.18407 11.18407 H 25.90012 c -3.403685,0 -6.322728,-0.134209 -6.48676,-0.298242 z m 32.687305,-0.204633 c 0.303464,-0.305736 0.664441,-0.443189 0.802179,-0.305452 0.137739,0.137737 -0.110547,0.387885 -0.551745,0.555883 -0.637582,0.242777 -0.688966,0.191392 -0.250434,-0.250431 z m 3.193772,-0.28001 c -0.556461,-0.709542 -0.540638,-0.725366 0.168906,-0.168904 0.430587,0.337689 0.782885,0.689987 0.782885,0.782885 0,0.368195 -0.36737,0.131213 -0.951791,-0.613981 z M 74.140739,32.799308 v -11.18407 h 6.19839 6.198386 l 0.285194,3.019699 c 0.367311,3.88925 0.375467,16.132851 0.01194,17.950432 l -0.279597,1.398009 H 80.347898 74.140739 Z M 53.030808,42.33569 c 0.322938,-0.12923 0.708788,-0.113337 0.857447,0.03532 0.148654,0.148655 -0.115572,0.254389 -0.587164,0.234964 -0.521155,-0.02146 -0.627158,-0.127472 -0.270283,-0.270282 z m 0.978606,-6.576347 c 0,-0.09433 0.402904,-0.276867 0.895343,-0.405642 0.492439,-0.128776 0.782527,-0.0516 0.644641,0.171505 -0.240793,0.389611 -1.539984,0.587139 -1.539984,0.234137 z"
         id="path188" />
      <path
         style="fill:#a3a3a3;fill-opacity:1;stroke-width:0.447363"
         d="M 17.507614,97.657979 C 14.484686,97.050756 12.541435,96.041237 10.225447,93.8749 7.2085405,91.05294 5.9712488,88.122365 5.9712488,83.798666 c 0,-4.456516 1.2433508,-7.307957 4.4740922,-10.260672 7.096386,-6.485696 17.854297,-4.356388 22.31321,4.416441 1.423605,2.800916 0.709795,6.221197 -2.386745,11.436266 -0.9391,1.581598 -6.660589,4.69731 -8.625827,4.69731 -0.708825,0 -1.288773,0.228678 -1.288773,0.508168 0,0.700163 3.623977,0.171984 5.487904,-0.79984 1.669451,-0.870425 4.80144,-1.542373 4.80144,-1.030115 0,0.654415 -2.90684,2.806427 -5.144672,3.808739 -2.669004,1.195429 -5.589383,1.586179 -8.094264,1.083016 z m 6.30865,-5.299017 c 5.804614,-2.63698 7.347988,-10.093113 3.06949,-14.8289 -4.105169,-4.543931 -11.429197,-3.968752 -14.910617,1.170977 -1.600758,2.363252 -1.812284,6.564843 -0.470087,9.33745 2.144594,4.43014 7.74416,6.395239 12.311214,4.320473 z m -5.148509,-0.94364 c 0,-0.998165 -0.307364,-1.490505 -1.230248,-1.970628 -2.583169,-1.343874 -3.467061,-2.801221 -3.467061,-5.716442 0,-2.521937 0.09911,-2.773346 1.655755,-4.1999 1.90993,-1.750321 3.310953,-2.209651 5.491821,-1.800519 3.510863,0.658643 5.810919,4.382969 4.785254,7.748444 -0.824065,2.703972 -2.16914,4.512969 -4.414298,5.936808 -1.155917,0.733058 -2.263567,1.332837 -2.461445,1.332837 -0.197878,0 -0.359778,-0.598768 -0.359778,-1.3306 z m 13.197202,-0.01149 c 0.152067,-0.24605 0.578455,-0.447363 0.947529,-0.447363 0.369075,0 0.545682,-0.202839 0.392461,-0.450758 -0.161128,-0.26071 0.20497,-0.230437 0.868324,0.07181 1.673134,0.762328 1.404571,1.273673 -0.668946,1.273673 -1.096651,0 -1.706346,-0.177187 -1.539368,-0.447362 z m 1.403992,-2.907858 c 0.141627,-0.369075 0.638592,-0.671044 1.104366,-0.671044 0.465774,0 0.846863,0.301969 0.846863,0.671044 0,0.415264 -0.420949,0.671044 -1.104367,0.671044 -0.797863,0 -1.0329,-0.186242 -0.846862,-0.671044 z m 14.821162,-4.772668 c 0.259963,-0.259962 0.736726,-0.384638 1.059472,-0.277056 0.335052,0.111684 0.132262,0.314469 -0.472662,0.472661 -0.74412,0.19459 -0.918784,0.13637 -0.58681,-0.195605 z m -2.133227,-0.372004 c 0,-0.24605 0.201313,-0.447363 0.447363,-0.447363 0.24605,0 0.447363,0.201313 0.447363,0.447363 0,0.246049 -0.201313,0.447362 -0.447363,0.447362 -0.24605,0 -0.447363,-0.201313 -0.447363,-0.447362 z m -0.790936,-3.578903 c 0,-0.861173 0.09206,-1.213471 0.204589,-0.782885 0.112524,0.430587 0.112524,1.135184 0,1.56577 -0.112524,0.430587 -0.204589,0.07829 -0.204589,-0.782885 z m 5.264564,0.671045 c 0,-0.369075 0.07912,-0.671045 0.175818,-0.671045 0.0967,0 0.291694,0.30197 0.433325,0.671045 0.141626,0.369074 0.0625,0.671044 -0.175818,0.671044 -0.238329,0 -0.433325,-0.30197 -0.433325,-0.671044 z m -5.246508,-5.592035 c 0,-1.107223 0.08724,-1.560178 0.193873,-1.006567 0.106631,0.553612 0.106631,1.459521 0,2.013133 -0.10663,0.553611 -0.193873,0.100657 -0.193873,-1.006566 z m 5.333721,0.671044 c 0.0091,-0.738149 0.109381,-0.985961 0.222805,-0.55069 0.113424,0.43527 0.105967,1.03921 -0.01655,1.342088 -0.122547,0.302878 -0.215348,-0.05325 -0.20623,-0.791398 z m -5.368353,-4.920991 c 0.0091,-0.738148 0.109379,-0.985961 0.222805,-0.55069 0.113426,0.435271 0.105966,1.03921 -0.01658,1.342088 -0.122544,0.302878 -0.215348,-0.05325 -0.20623,-0.791398 z m 5.316459,-0.03727 c 0.02147,-0.521155 0.127472,-0.627158 0.270279,-0.270283 0.12923,0.322937 0.113339,0.708788 -0.0353,0.857446 -0.148659,0.148655 -0.254388,-0.115571 -0.234964,-0.587163 z M 24.042959,66.937138 c -0.0038,-0.293041 0.203073,-0.662544 0.459647,-0.821112 0.782178,-0.483416 8.009407,-0.472988 8.196575,0.01181 0.109773,0.28434 -1.297786,0.394431 -3.862604,0.302104 -2.989936,-0.107626 -4.132651,0.0083 -4.411042,0.447363 -0.258254,0.407337 -0.377868,0.426042 -0.382576,0.05982 z m 18.963562,-7.407903 -0.85222,-1.006566 1.006566,0.852221 c 0.945924,0.800878 1.210224,1.160911 0.852221,1.160911 -0.08489,0 -0.537845,-0.452955 -1.006567,-1.006566 z m -22.549315,0.390297 c 0,-0.09289 0.352298,-0.445193 0.782885,-0.782885 0.709542,-0.556461 0.725366,-0.540638 0.168904,0.168907 -0.584421,0.745194 -0.951789,0.982176 -0.951789,0.613978 z m 2.318181,-1.680299 c 0.324322,-0.205648 2.60281,-0.361098 5.063305,-0.34544 2.460495,0.01566 4.272314,0.09781 4.026265,0.182555 -1.023477,0.352522 -9.631921,0.506782 -9.08957,0.162885 z M 19.45064,57.555345 c 0.307562,-0.124103 0.810845,-0.124103 1.118407,0 0.307562,0.124103 0.05592,0.225645 -0.559204,0.225645 -0.615124,0 -0.866765,-0.101542 -0.559203,-0.225645 z m 31.161049,-11.894357 -0.852221,-1.006566 1.006566,0.852221 c 0.945922,0.800879 1.210224,1.160912 0.852222,1.160912 -0.08489,0 -0.537847,-0.452955 -1.006567,-1.006567 z m 1.104991,-6.822282 c -0.03073,-0.123025 -0.09023,-0.475323 -0.132173,-0.782885 -0.04192,-0.307562 -0.333711,-0.503888 -0.648377,-0.436278 -0.320902,0.06895 -0.437131,-0.0955 -0.264695,-0.374503 0.37132,-0.600807 1.217999,0.104721 1.370205,1.141774 0.08928,0.608313 -0.189083,0.995406 -0.32496,0.451892 z m 5.698547,-1.200265 c 0.129203,-0.209054 0.422315,-0.264278 0.651365,-0.122719 0.58532,0.361749 0.519415,0.502819 -0.234915,0.502819 -0.358252,0 -0.545653,-0.171045 -0.41645,-0.3801 z m -7.432078,-1.26023 c 0,-0.24605 0.213195,-0.447363 0.473766,-0.447363 0.260571,0 0.349346,0.201313 0.197278,0.447363 -0.152067,0.246049 -0.365262,0.447362 -0.473766,0.447362 -0.108503,0 -0.197278,-0.201313 -0.197278,-0.447362 z"
         id="path186" />
      <path
         style="fill:#8c8c8c;fill-opacity:1;stroke-width:0.447363"
         d="m 22.49931,94.582248 c -0.136133,-0.220263 0.04304,-0.511984 0.398178,-0.64826 0.430708,-0.165278 0.562867,-0.03194 0.39693,0.400488 -0.288372,0.751485 -0.452237,0.802551 -0.795108,0.247772 z m 1.779584,-0.463325 c -0.141559,-0.229049 -0.08634,-0.522161 0.122719,-0.651364 0.209055,-0.129203 0.3801,0.0582 0.3801,0.41645 0,0.754329 -0.14107,0.820235 -0.502819,0.234914 z m 4.351197,-1.683019 c 0.435269,-0.113424 1.039209,-0.105966 1.342088,0.0166 0.302879,0.122546 -0.05325,0.215347 -0.791399,0.206229 -0.738148,-0.0091 -0.985959,-0.10938 -0.550689,-0.222804 z m 1.669096,-3.43779 c 0,-0.09289 0.352298,-0.445193 0.782885,-0.782885 0.709542,-0.556461 0.725366,-0.540638 0.168904,0.168906 -0.584421,0.745195 -0.951789,0.982176 -0.951789,0.613979 z m 2.93662,-5.777946 c 0.167999,-0.441198 0.418147,-0.689484 0.555884,-0.551746 0.137737,0.137739 2.84e-4,0.498716 -0.305452,0.80218 -0.441823,0.438532 -0.493209,0.387148 -0.250432,-0.250434 z m 15.628935,0.131136 c -0.853729,-0.36686 -0.848602,-0.385918 0.111841,-0.415918 0.553611,-0.01731 1.006566,0.169868 1.006566,0.415918 0,0.246049 -0.05033,0.433212 -0.11184,0.415917 -0.06151,-0.01727 -0.514468,-0.204453 -1.006567,-0.415917 z M 19.378949,60.423961 c 0.78079,-1.378934 2.206503,-2.571012 3.05753,-2.556482 0.914447,0.01561 0.913707,0.02411 -0.04857,0.559204 -0.537436,0.298842 -0.990391,0.694333 -1.006566,0.878871 -0.01618,0.184537 -0.162298,0.317484 -0.324717,0.295438 -0.162419,-0.02205 -0.474392,0.279924 -0.693274,0.671044 -0.218881,0.391121 -0.601157,0.711128 -0.849502,0.711128 -0.248344,0 -0.309049,-0.251641 -0.1349,-0.559203 z M 53.030808,45.914592 c 0.322938,-0.12923 0.708788,-0.113336 0.857447,0.03532 0.148654,0.148656 -0.115572,0.254389 -0.587164,0.234964 -0.521155,-0.02146 -0.627158,-0.127472 -0.270283,-0.270281 z m 0.758092,-9.97862 c -0.156729,-0.253592 0.02286,-0.328591 0.42096,-0.175819 0.77502,0.297403 0.91682,0.618058 0.27332,0.618058 -0.231528,0 -0.543957,-0.199008 -0.69428,-0.442239 z"
         id="path184" />
      <path
         style="fill:#767676;fill-opacity:1;stroke-width:0.447363"
         d="m 20.800982,94.460015 c 0.259963,-0.259962 0.736726,-0.384638 1.059471,-0.277056 0.335051,0.111684 0.132264,0.314469 -0.472661,0.472661 -0.744119,0.19459 -0.918784,0.13637 -0.58681,-0.195605 z m 3.956761,-0.901226 c 0.129203,-0.209052 0.422318,-0.264279 0.651365,-0.122716 0.585322,0.361747 0.519415,0.502818 -0.234914,0.502818 -0.358251,0 -0.545654,-0.171044 -0.416451,-0.380102 z m 2.186223,-0.812867 c -0.152067,-0.246049 -0.06329,-0.447362 0.19728,-0.447362 0.26057,0 0.473764,0.201313 0.473764,0.447362 0,0.24605 -0.08878,0.447363 -0.197279,0.447363 -0.108504,0 -0.321698,-0.201313 -0.473765,-0.447363 z m 1.789451,-0.789734 c -0.6149,-0.45176 1.623611,-2.565643 2.716114,-2.564896 1.325029,8.95e-4 1.063722,1.33736 -0.26684,1.364752 -0.621295,0.01279 -1.426548,0.209831 -1.789451,0.437874 -0.514925,0.323573 -0.3651,0.478768 0.682266,0.706703 1.210602,0.263466 1.232516,0.296593 0.223681,0.338157 -0.615124,0.02537 -1.31972,-0.101819 -1.56577,-0.28259 z m 2.921559,-3.907575 c 0,-0.24605 0.195148,-0.749333 0.433662,-1.118407 0.238514,-0.369074 0.433662,-0.469731 0.433662,-0.223681 0,0.246049 -0.195148,0.749332 -0.433662,1.118407 -0.238514,0.369074 -0.433662,0.469731 -0.433662,0.223681 z m 1.363706,-3.616181 c 0.02146,-0.521155 0.127472,-0.627158 0.270282,-0.270283 0.12923,0.322938 0.113336,0.708788 -0.03532,0.857447 -0.148655,0.148654 -0.254389,-0.115572 -0.234964,-0.587164 z m 0.482681,-2.870579 c 0,-0.615124 0.101539,-0.866766 0.225643,-0.559204 0.124104,0.307562 0.124104,0.810845 0,1.118407 -0.124104,0.307562 -0.225643,0.05592 -0.225643,-0.559203 z m -1.815176,-8.63208 c -0.565878,-0.942285 -0.556344,-0.951818 0.213988,-0.213987 0.443437,0.42473 0.709955,0.868528 0.592262,0.98622 -0.117693,0.117692 -0.480505,-0.22981 -0.80625,-0.772233 z M 19.562481,59.472169 c 0,-0.09289 0.352298,-0.445193 0.782884,-0.782884 0.709543,-0.556462 0.725366,-0.540638 0.168904,0.168906 -0.58442,0.745194 -0.951788,0.982176 -0.951788,0.613978 z m 32.45875,-14.106332 c -0.138342,-0.223845 -0.128684,-0.727128 0.02147,-1.118407 0.315243,-0.821506 2.208164,-0.959164 2.680485,-0.194931 0.197771,0.319999 0.122721,0.39505 -0.197278,0.19728 -0.309132,-0.191047 -0.516498,-0.02859 -0.516498,0.404643 0,0.433229 0.207366,0.59569 0.516485,0.404643 0.319999,-0.197769 0.395048,-0.122718 0.197278,0.19728 -0.378585,0.612568 -2.341855,0.692127 -2.701946,0.109492 z"
         id="path182" />
      <path
         style="fill:#606060;fill-opacity:1;stroke-width:0.447363"
         d="m 29.628143,91.403834 c 0.152067,-0.24605 0.779768,-0.447363 1.394892,-0.447363 0.631687,0 0.998083,0.194688 0.841922,0.447363 -0.152067,0.246049 -0.779769,0.447363 -1.394893,0.447363 -0.631686,0 -0.998082,-0.194688 -0.841921,-0.447363 z m 1.300772,-2.303663 c -0.108328,-0.175282 0.0076,-0.44514 0.2577,-0.599686 0.250064,-0.154546 0.45466,-0.129981 0.45466,0.05459 0,0.184573 0.271241,-0.03534 0.602758,-0.488731 0.672748,-0.920037 1.361269,-0.322168 0.928315,0.806095 -0.259317,0.675768 -1.865748,0.838836 -2.243433,0.22773 z M 55.97858,82.232897 c 0.03758,-0.764584 0.36932,-0.899803 2.280781,-0.929634 l 2.236813,-0.03489 -2.096793,0.169148 c -1.511621,0.121947 -2.148142,0.381386 -2.280781,0.929638 -0.130594,0.539788 -0.171228,0.500827 -0.14002,-0.134245 z m 7.341572,-0.976642 c 0.322938,-0.12923 0.708788,-0.11334 0.857447,0.0353 0.148654,0.148655 -0.115572,0.254389 -0.587164,0.234964 -0.521155,-0.02147 -0.627158,-0.127471 -0.270283,-0.270278 z m 2.208854,0.0093 c 0.307562,-0.124103 0.810845,-0.124103 1.118407,0 0.307562,0.124103 0.05592,0.225645 -0.559204,0.225645 -0.615124,0 -0.866765,-0.101542 -0.559203,-0.225645 z M 54.009414,44.62802 c 0,-0.383595 0.204597,-0.570998 0.454659,-0.416451 0.250063,0.154548 0.338842,0.468399 0.197279,0.697446 -0.383493,0.620512 -0.651938,0.50481 -0.651938,-0.280995 z m -2.563822,-9.454553 c 0.43527,-0.113426 1.03921,-0.105967 1.342088,0.01657 0.302878,0.122543 -0.05325,0.215347 -0.791398,0.206229 -0.738149,-0.0091 -0.985961,-0.109379 -0.55069,-0.222805 z"
         id="path180" />
      <path
         style="fill:#494949;fill-opacity:1;stroke-width:0.447363"
         d="m 65.640846,92.457275 c 1.12285,-0.309325 1.7918,-2.419624 1.744858,-5.504415 -0.03395,-2.230944 -0.135568,-2.663526 -0.425692,-1.812105 l -0.381095,1.118407 0.09017,-1.118407 c 0.183405,-2.274827 0.98932,-1.024649 1.119619,1.736805 0.152792,3.238093 -0.789586,5.902796 -2.057005,5.816468 -0.592094,-0.04031 -0.612341,-0.0931 -0.09085,-0.236753 z M 45.699043,91.699814 c -0.126368,-0.329313 -0.170378,-2.191461 -0.0978,-4.138106 0.128325,-3.441884 0.162761,-3.53936 1.250367,-3.53936 0.819228,0 1.156647,0.269259 1.261362,1.006566 0.194817,1.371731 1.329589,1.276912 1.504941,-0.125749 0.07785,-0.622774 0.342868,-1.176385 0.588918,-1.230248 0.268547,-0.05879 0.462725,1.422006 0.4858,3.704652 l 0.03843,3.802584 L 50.461,87.377569 c -0.159454,-2.245189 -0.358418,-3.252914 -0.4858,-2.460496 -0.268655,1.671245 -1.921772,1.929449 -2.148147,0.335523 -0.09187,-0.646869 -0.451568,-1.006567 -1.006566,-1.006567 -0.786226,0 -0.863603,0.344407 -0.863603,3.843987 v 3.843988 l 2.418815,-0.153245 c 1.330349,-0.08428 2.325034,-0.0022 2.21041,0.182278 -0.378455,0.609304 -4.640332,0.379753 -4.887066,-0.263223 z m 10.281241,-0.02112 c -0.130826,-0.340922 -0.159677,-1.498473 -0.06412,-2.572336 0.172968,-1.943711 0.1741,-1.942006 0.251905,0.379986 l 0.07816,2.332455 4.361787,0.146252 4.361787,0.146252 -4.375825,0.09363 c -3.381553,0.07236 -4.429876,-0.04722 -4.613693,-0.526237 z m -27.023185,0.0036 c 0,-0.09289 0.352298,-0.445193 0.782885,-0.782884 0.709542,-0.556462 0.725365,-0.540638 0.168904,0.168906 -0.584421,0.745194 -0.951789,0.982176 -0.951789,0.613978 z m 5.235903,-4.148014 c 0.856744,-0.185549 1.007887,-0.561843 1.153295,-2.871296 l 0.167338,-2.65776 -0.03489,2.798018 c -0.03312,2.656583 -0.09142,2.801716 -1.153295,2.87129 -0.945111,0.06193 -0.965634,0.04017 -0.13245,-0.140252 z m 22.002544,-1.181727 c 0.195802,-0.194684 2.149453,-0.293918 4.34145,-0.220519 l 3.985443,0.133458 -4.34145,0.220518 c -2.387794,0.121285 -4.181244,0.06123 -3.985443,-0.133457 z m 8.940872,-0.205228 c -0.556461,-0.709544 -0.540638,-0.725367 0.168906,-0.168906 0.430587,0.337692 0.782885,0.68999 0.782885,0.782885 0,0.368197 -0.36737,0.131216 -0.951791,-0.613979 z m 1.917151,-3.690743 c 0,-0.615124 0.101542,-0.866765 0.225645,-0.559203 0.124103,0.307562 0.124103,0.810845 0,1.118407 -0.124103,0.307562 -0.225645,0.05592 -0.225645,-0.559204 z m -30.04394,-1.204381 c 0.615124,-0.125351 1.284718,-0.459254 1.487987,-0.742014 0.247051,-0.343655 0.309771,-0.291627 0.189181,0.156944 -0.101771,0.378563 -0.75032,0.701975 -1.487987,0.742009 -1.126089,0.06112 -1.152348,0.03932 -0.189181,-0.156939 z m 2.990456,-0.0031 c -0.122177,-0.197108 0.761593,-0.288884 1.963932,-0.203943 l 2.186071,0.154429 0.133948,-9.996411 0.133947,-9.996295 -0.01343,10.065663 -0.01343,10.065663 -2.084446,0.134697 c -1.146445,0.07408 -2.184408,-0.02657 -2.306584,-0.223682 z m 21.287488,0.0027 c 0.43527,-0.113425 1.03921,-0.105967 1.342088,0.0166 0.302878,0.122546 -0.05325,0.215347 -0.791398,0.20623 -0.738149,-0.0091 -0.985961,-0.109381 -0.55069,-0.222805 z M 51.08189,80.55343 C 50.963496,80.244897 50.922043,72.544665 50.98977,63.441803 l 0.12315,-16.550652 0.106159,16.931121 0.106155,16.931124 2.194743,-0.15502 c 1.20711,-0.08526 2.101138,-0.004 1.98673,0.180507 -0.356781,0.575487 -4.192465,0.380052 -4.424821,-0.225453 z m 3.956306,-3.017843 c 0,-1.353272 0.08387,-1.906884 0.186367,-1.230247 0.102505,0.676636 0.102505,1.783859 0,2.460495 -0.102499,0.676636 -0.186367,0.123025 -0.186367,-1.230248 z m -21.124789,0.633766 c 0.02146,-0.521155 0.127472,-0.627158 0.270282,-0.270283 0.12923,0.322937 0.113337,0.708788 -0.03532,0.857446 -0.148655,0.148655 -0.254389,-0.115571 -0.234964,-0.587163 z M 55.537194,66.79888 c 0,-4.551916 0.06643,-6.414064 0.147625,-4.138105 0.08119,2.275958 0.08119,6.000253 0,8.276211 -0.08119,2.275958 -0.147625,0.413811 -0.147625,-4.138106 z m -16.196549,5.994277 c -0.317262,-0.344259 -0.379472,-0.625923 -0.138243,-0.625923 0.46456,0 1.137075,0.850978 0.871723,1.103049 -0.08615,0.08184 -0.416217,-0.132867 -0.73348,-0.477126 z m -7.919884,-0.620801 c -0.156729,-0.253592 0.02284,-0.328588 0.420961,-0.175818 0.775019,0.297402 0.916819,0.618059 0.273318,0.618059 -0.231528,0 -0.543954,-0.19901 -0.694279,-0.442241 z m -4.92611,-4.481908 c -0.432769,-0.700235 0.757173,-0.954758 3.630947,-0.776645 l 2.634084,0.163261 -3.0461,0.08459 c -1.897561,0.05269 -2.941852,0.253265 -2.769616,0.53195 0.152067,0.24605 0.175829,0.447363 0.0528,0.447363 -0.123024,0 -0.348978,-0.202736 -0.502119,-0.450521 z m 11.857066,-1.088846 c 0,-0.354553 0.158175,-0.742403 0.351499,-0.86188 0.193325,-0.119482 0.3515,0.170606 0.3515,0.644641 0,0.474035 -0.158175,0.86188 -0.3515,0.86188 -0.193324,0 -0.351499,-0.290088 -0.351499,-0.644641 z m -18.15899,-0.86613 c -0.13002,-0.338823 -0.159988,-1.597031 -0.0666,-2.796017 l 0.169803,-2.179972 0.08064,2.542622 c 0.07631,2.406069 0.146706,2.55263 1.310884,2.728989 l 1.230247,0.186367 -1.244288,0.06703 c -0.696325,0.03753 -1.348394,-0.204266 -1.480686,-0.549017 z m 6.874905,-0.606821 c 1.052214,-0.0945 2.66272,-0.09317 3.578902,0.0031 0.916182,0.09613 0.05528,0.173447 -1.913117,0.171823 -1.968396,-0.0018 -2.717999,-0.08028 -1.665785,-0.17478 z M 55.971261,52.930634 c 0,-3.075619 0.07147,-4.333827 0.158832,-2.796018 0.08736,1.53781 0.08736,4.054226 0,5.592035 -0.08736,1.53781 -0.158832,0.279602 -0.158832,-2.796017 z m -6.183032,-6.841577 c 0.167998,-0.441198 0.418145,-0.689485 0.555884,-0.551747 0.137738,0.137737 2.86e-4,0.498717 -0.305451,0.80218 -0.441824,0.438532 -0.493208,0.387148 -0.250433,-0.250433 z m 6.663285,0.101371 c -0.162183,-0.262419 -0.198933,-0.573071 -0.08167,-0.690338 0.117263,-0.117266 0.332417,0.09744 0.478119,0.477127 0.302498,0.788301 0.04469,0.926961 -0.396453,0.213211 z m -0.367066,-2.878094 c -0.141626,-0.369074 -0.06251,-0.671044 0.175818,-0.671044 0.238328,0 0.433325,0.30197 0.433325,0.671044 0,0.369074 -0.07912,0.671044 -0.175818,0.671044 -0.0967,0 -0.291694,-0.30197 -0.433325,-0.671044 z M 46.922244,42.64129 c 0,-0.615124 0.101542,-0.866766 0.225645,-0.559204 0.124103,0.307562 0.124103,0.810845 0,1.118407 -0.124103,0.307562 -0.225645,0.05592 -0.225645,-0.559203 z M 59.60169,40.963679 c -0.527829,-3.354327 -0.554358,-3.752148 -0.226034,-3.389141 0.357792,0.395587 0.977649,5.066752 0.67235,5.066752 -0.100285,0 -0.301124,-0.754925 -0.446316,-1.677611 z m -6.598842,0.933968 c 0.307562,-0.124104 0.810845,-0.124104 1.118407,0 0.307562,0.124104 0.05592,0.225643 -0.559204,0.225643 -0.615123,0 -0.866765,-0.101539 -0.559203,-0.225643 z m -6.563282,-1.30677 c 0.02147,-0.521152 0.127472,-0.627158 0.270279,-0.270282 0.12923,0.32294 0.113339,0.708791 -0.0353,0.857446 -0.148659,0.148654 -0.254388,-0.115569 -0.234964,-0.587164 z m 0.478164,-1.752171 c -0.02071,-0.492099 0.257905,-1.285501 0.61915,-1.763115 0.36125,-0.477614 0.656818,-0.668862 0.656818,-0.424995 0,0.243868 -0.181772,0.634643 -0.403942,0.86839 -0.222164,0.233747 -0.500782,0.827621 -0.619145,1.31972 l -0.215213,0.894725 z m 2.618056,-3.355221 c -0.369074,-0.238514 -0.46973,-0.433662 -0.223681,-0.433662 0.24605,0 0.749333,0.195148 1.118407,0.433662 0.369074,0.238514 0.469731,0.433662 0.223681,0.433662 -0.246049,0 -0.749332,-0.195148 -1.118407,-0.433662 z"
         id="path178" />
      <path
         style="fill:#333333;fill-opacity:1;stroke-width:0.447363"
         d="m 60.608015,91.965051 -4.361787,-0.146252 v -2.63728 -2.63728 l 4.361787,-0.144775 c 2.398983,-0.07963 4.586717,0.0097 4.861635,0.198499 0.571693,0.392615 1.314826,-0.370474 1.636931,-1.68089 0.120958,-0.492099 0.243281,0.424006 0.271822,2.035787 0.05636,3.18253 -0.674869,5.391326 -1.737557,5.248582 -0.369074,-0.04958 -2.633848,-0.155951 -5.032831,-0.236391 z M 45.956884,88.048613 c 0,-3.458674 0.07811,-3.802584 0.863612,-3.802584 0.554998,0 0.914696,0.359698 1.006566,1.006567 0.223941,1.576806 1.854605,1.329307 2.210603,-0.335523 0.169394,-0.792154 0.308676,0.353538 0.33992,2.796018 l 0.05293,4.138106 h -2.236814 -2.236814 z m -12.32652,2.270442 c -0.829944,-0.610789 -0.832645,-0.655512 -0.05773,-0.955804 0.991435,-0.384199 2.037617,0.487362 1.377446,1.147535 -0.300477,0.300476 -0.737099,0.237044 -1.31972,-0.191731 z m -0.884559,-2.963939 c -0.190748,-0.30864 0.05962,-1.222379 0.974492,-3.55645 0.34304,-0.875184 0.491546,-5.908302 0.191397,-6.48676 -0.289066,-0.557101 -0.47904,-1.431275 -0.658527,-3.030252 -0.100176,-0.892422 -1.035702,-2.022863 -3.332049,-4.026265 L 26.728351,67.469925 29.50318,67.33428 c 5.456543,-0.26674 4.829597,-2.324851 -0.708201,-2.324851 -2.178049,0 -3.351934,0.207501 -3.880614,0.685951 -0.556699,0.503802 -1.249098,0.607411 -2.607562,0.390185 L 20.457206,65.7898 v -2.549015 c 0,-2.086035 0.188062,-2.725697 1.035399,-3.521729 0.997494,-0.937096 1.391312,-0.972706 10.757042,-0.972706 h 9.721642 l 1.098072,1.098074 1.098072,1.09807 v 10.086 10.085996 h -1.960956 c -1.651288,0 -2.005754,-0.158953 -2.244636,-1.006567 l -0.283681,-1.006566 -0.846771,1.006566 c -0.465724,0.553612 -1.227195,1.006567 -1.692156,1.006567 -1.4132,0 -1.919055,0.953222 -1.919055,3.616221 0,2.363212 -0.07964,2.557779 -1.129085,2.75839 -0.620996,0.118712 -1.226376,0.05842 -1.345288,-0.133985 z m 7.059629,-14.807838 c -0.801446,-0.801446 -2.109782,0.395218 -1.385822,1.267535 0.45233,0.545022 0.623299,0.53713 1.216591,-0.05616 0.525298,-0.525298 0.56575,-0.814853 0.169231,-1.211373 z m -0.201101,-5.83787 c 0.295259,-0.29526 0.536835,-0.805625 0.536835,-1.134145 0,-0.458686 -0.207653,-0.486181 -0.894725,-0.118471 -0.492099,0.263362 -0.894726,0.773727 -0.894726,1.134145 0,0.794579 0.526695,0.844393 1.252616,0.118471 z m 7.533356,16.778856 c -0.553034,-0.553035 -0.278586,-1.926411 0.384965,-1.926411 0.369074,0 0.671044,0.390744 0.671044,0.868322 0,0.933749 -0.589593,1.524505 -1.056009,1.058089 z m 9.108539,-0.808005 v -1.118406 h 5.368353 5.368354 v 1.118406 1.118407 H 61.614581 56.246228 Z M 51.325238,63.681755 V 46.696387 l 1.006566,0.375839 c 0.553611,0.206713 1.466701,0.202481 2.029094,-0.0094 0.754956,-0.284442 1.089798,-0.209938 1.279619,0.284715 0.141398,0.36848 0.05287,7.748028 -0.196724,16.399 -0.249597,8.650968 -0.350929,15.99713 -0.225189,16.324814 0.169998,0.443001 -0.299885,0.59578 -1.832371,0.59578 l -2.060995,-1.3e-5 z m -32.20327,-4.823564 c -0.0051,-0.749637 0.250079,-1.004817 0.999716,-0.999717 0.741517,0.0051 0.845412,0.108941 0.394559,0.39456 -0.336605,0.21324 -0.786477,0.663113 -0.999716,0.999717 -0.285617,0.450853 -0.389513,0.346957 -0.394559,-0.39456 z M 48.169317,44.843863 c -1.270922,-1.784842 -1.405739,-5.354641 -0.290151,-7.682768 0.746134,-1.557119 2.514613,-2.498243 1.955231,-1.040505 -0.284407,0.741142 1.691143,2.867546 3.197574,3.441751 1.830331,0.697664 3.484518,0.437822 4.764485,-0.748412 0.678435,-0.628751 1.283806,-1.081706 1.345274,-1.006566 0.06147,0.07514 0.238901,1.266597 0.394288,2.647683 0.241531,2.146697 0.136946,2.725924 -0.720747,3.991777 -1.17761,1.738009 -2.235708,2.260328 -2.106662,1.03993 0.223189,-2.11069 -0.04134,-2.675234 -1.50071,-3.202956 -0.81713,-0.295478 -1.906454,-0.537233 -2.420725,-0.537233 -1.267459,0 -3.242275,2.398718 -2.93673,3.567116 0.353613,1.35222 -0.566903,1.094964 -1.681127,-0.469817 z m 4.455424,-6.803775 c -2.014805,-1.357775 -2.261946,-2.556603 -0.527051,-2.556603 0.706976,0 1.518461,0.233044 1.803292,0.517875 0.392257,0.392259 0.680037,0.383294 1.186411,-0.03696 0.790866,-0.656362 2.311734,-0.277117 2.673941,0.666776 0.165238,0.430604 -0.255297,0.977815 -1.18892,1.547068 -1.828676,1.114984 -2.102355,1.105406 -3.947673,-0.138156 z"
         id="path176" />
    </g>
  </g>
</svg>
