<?xml version="1.0" encoding="UTF-8" standalone="no"?>
<!-- Created with Inkscape (http://www.inkscape.org/) -->

<svg
   width="100mm"
   height="100mm"
   viewBox="0 0 100 100"
   version="1.1"
   id="svg5"
   inkscape:version="1.1.1 (3bf5ae0d25, 2021-09-20)"
   sodipodi:docname="add_list_type_device_61a0.svg"
   xmlns:inkscape="http://www.inkscape.org/namespaces/inkscape"
   xmlns:sodipodi="http://sodipodi.sourceforge.net/DTD/sodipodi-0.dtd"
   xmlns="http://www.w3.org/2000/svg"
   xmlns:svg="http://www.w3.org/2000/svg">
  <sodipodi:namedview
     id="namedview7"
     pagecolor="#ffffff"
     bordercolor="#666666"
     borderopacity="1.0"
     inkscape:pageshadow="2"
     inkscape:pageopacity="0.0"
     inkscape:pagecheckerboard="true"
     inkscape:document-units="mm"
     showgrid="false"
     inkscape:zoom="0.58974467"
     inkscape:cx="378.97757"
     inkscape:cy="271.30385"
     inkscape:window-width="1440"
     inkscape:window-height="890"
     inkscape:window-x="-6"
     inkscape:window-y="-6"
     inkscape:window-maximized="1"
     inkscape:current-layer="layer1"
     width="100mm" />
  <defs
     id="defs2" />
  <g
     inkscape:label="Laag 1"
     inkscape:groupmode="layer"
     id="layer1">
    <g
       id="g21"
       transform="matrix(2.3317007,0,0,2.2253771,-193.91916,-283.43807)">
      <path
         style="fill:#d0d0d0;fill-opacity:1;stroke-width:0.264583"
         d="m 89.337705,165.49948 c -0.329107,-0.41965 -0.319749,-0.42901 0.0999,-0.0999 0.254661,0.19972 0.463021,0.40808 0.463021,0.46302 0,0.21777 -0.217272,0.0776 -0.562916,-0.36312 z m 17.297815,-0.77054 c -0.68265,-0.27545 -0.34644,-1.16813 0.58681,-1.55807 1.16474,-0.48666 1.66593,-0.48353 2.16296,0.0135 0.30565,0.30565 0.31651,0.3978 0.0473,0.40092 -0.25823,0.003 -0.24588,0.0711 0.0472,0.26053 0.33649,0.21747 0.32406,0.2571 -0.0818,0.26054 -0.26325,0.002 -0.41277,0.11064 -0.33225,0.24091 0.28183,0.45601 -1.53781,0.74177 -2.43026,0.38166 z m 6.25078,-2.20602 c -0.0182,-0.14552 -0.048,-0.42665 -0.0662,-0.62472 -0.051,-0.55494 4.12771,-4.3526 4.28193,-3.8915 0.0696,0.20822 0.43526,0.66462 0.81249,1.01422 l 0.68586,0.63564 -0.9223,0.78044 c -1.05733,0.8947 -3.75422,2.3505 -4.35434,2.3505 -0.22243,0 -0.4193,-0.11906 -0.43749,-0.26458 z m 0.47404,-0.38524 c 0,-0.21188 -0.10116,-0.32272 -0.2248,-0.2463 -0.12364,0.0764 -0.1563,0.24977 -0.0726,0.38524 0.21395,0.34617 0.29738,0.30719 0.29738,-0.13894 z m -15.168192,-1.50615 c -0.605649,-0.13596 -1.242682,-0.4177 -1.415628,-0.62609 -0.268556,-0.32359 -0.201467,-0.32253 0.459701,0.007 0.425781,0.21241 1.270014,0.43086 1.876072,0.48545 1.347137,0.12135 4.134397,-0.60623 4.681387,-1.22201 0.22041,-0.24813 0.32892,-0.40199 0.24113,-0.34193 -0.0878,0.0601 -0.67822,-0.0469 -1.31207,-0.23762 -0.63386,-0.19077 -1.2183,-0.28102 -1.29875,-0.20056 -0.0805,0.0805 -0.14629,0.0146 -0.14629,-0.14642 0,-0.16099 -0.44648,-0.33941 -0.99218,-0.39649 -0.545707,-0.0571 0.3175,-0.139 1.91823,-0.18203 3.44368,-0.0926 3.73713,-0.1246 4.72853,-0.51593 0.5477,-0.21619 0.85643,-0.2197 1.106,-0.0126 0.52263,0.43374 0.1596,1.8407 -0.47495,1.8407 -0.16375,0 -0.7818,0.22909 -1.37345,0.50908 -2.44295,1.15612 -3.15357,1.34257 -5.01063,1.31467 -1.03726,-0.0156 -2.381453,-0.13958 -2.987102,-0.27555 z m -1.015486,-3.11852 c -0.436562,-0.10628 -1.171246,-0.38991 -1.632631,-0.6303 -1.202231,-0.62637 -3.718561,-3.24215 -4.755195,-4.94313 -0.48777,-0.80036 -0.887161,-1.29935 -0.887535,-1.10886 -3.7e-4,0.19049 -0.11209,0.27749 -0.248258,0.19333 -0.30492,-0.18845 0.0266,1.03623 0.574314,2.12161 0.216013,0.42807 0.47069,1.10345 0.565949,1.50086 0.09526,0.39741 0.592186,1.14155 1.104284,1.65364 0.779376,0.77938 0.84726,0.93109 0.41662,0.93109 -0.941531,0 -2.796514,-2.69183 -3.735273,-5.42038 -0.558119,-1.6222 -0.744798,-5.36071 -0.291498,-5.83764 0.131396,-0.13825 0.280224,-0.47823 0.330729,-0.75553 0.142025,-0.77977 0.897712,-0.74375 0.963065,0.0459 0.03047,0.36814 0.151932,0.80045 0.269918,0.96069 0.117987,0.16023 0.370643,0.94618 0.561458,1.74654 1.13046,4.74166 4.012978,8.2329 7.765776,9.40574 1.221139,0.38163 0.441591,0.48781 -1.001723,0.13644 z m 13.138878,-0.74478 c 0.0231,-0.10914 -0.0461,-0.39879 -0.15377,-0.64368 -0.13452,-0.3059 0.125,-0.8855 0.82928,-1.85208 0.86082,-1.18143 1.93912,-3.296 2.53885,-4.97872 0.082,-0.23019 0.14534,-0.11907 0.15072,0.26458 0.005,0.3638 -0.1623,1.13771 -0.37201,1.71979 -0.44204,1.22702 -0.5151,2.62256 -0.12466,2.38125 0.14552,-0.0899 0.26459,-0.0326 0.26459,0.12739 0,0.52828 1.24913,-0.89577 2.08444,-2.37634 0.99445,-1.76263 1.1196,-1.03867 0.17222,0.99625 -0.674,1.44772 -1.94837,2.81952 -3.64047,3.91882 -0.95932,0.62324 -1.83428,0.8447 -1.74919,0.44274 z m -15.064381,-6.56344 c -0.4955,-0.34706 -0.588038,-0.65934 -0.588038,-1.98438 0,-0.86487 0.105176,-1.57249 0.233724,-1.57249 0.128549,0 0.293981,-0.23042 0.367628,-0.51205 0.09405,-0.35963 0.291696,-0.47078 0.664034,-0.37341 0.379061,0.0991 0.651289,0.57043 0.95529,1.65388 0.233836,0.83339 0.425157,1.70905 0.425157,1.94591 0,0.37851 -0.923741,1.25442 -1.322917,1.25442 -0.08076,0 -0.411457,-0.18535 -0.734878,-0.41188 z m 21.160371,-1.48993 c -0.0594,-1.40059 -0.7379,-4.53314 -1.16056,-5.35784 -0.4137,-0.80724 -1.58805,-2.00077 -1.96861,-2.00077 -0.64411,0 -0.63901,0.53005 0.0247,2.56203 0.36888,1.12942 0.66123,2.59258 0.64966,3.25146 l -0.0211,1.19797 -0.36954,-1.70424 c -0.47171,-2.17539 -1.41475,-4.08277 -2.71861,-5.49859 -0.56598,-0.61457 -0.95987,-1.18659 -0.87531,-1.27116 0.0846,-0.0846 -0.004,-0.25147 -0.19763,-0.37091 -0.21241,-0.13128 -0.28367,-0.43049 -0.18018,-0.75656 0.13532,-0.42636 0.36178,-0.52427 1.08071,-0.46723 0.50023,0.0397 1.07197,0.20699 1.27052,0.37178 0.19856,0.16478 0.4252,0.23542 0.50366,0.15696 0.21068,-0.21068 1.97843,1.93268 2.84912,3.45453 1.02994,1.80018 1.37011,3.33684 1.25926,5.68854 -0.0581,1.23179 -0.11347,1.51397 -0.1461,0.74403 z m -20.719474,-4.44819 c -0.08807,-0.79261 -0.02475,-1.30437 0.294608,-2.38125 0.194201,-0.65485 0.384727,-1.36922 0.423391,-1.5875 0.119541,-0.67487 2.272608,-2.41923 3.981995,-3.22611 1.025,-0.48383 2.25874,-0.82386 3.33129,-0.91814 1.52028,-0.13362 1.89282,-0.062 3.46534,0.6658 0.96907,0.44854 1.76194,0.92869 1.76194,1.06701 0,0.70887 -0.35212,1.07663 -0.89933,0.93929 -1.04508,-0.2623 -4.9472,0.38678 -6.44351,1.07182 -1.38033,0.63193 -4.827993,3.7535 -4.827993,4.37133 0,0.34415 -1.049484,0.34197 -1.087731,-0.002 z m 3.72357,-3.97951 c 0.503826,-0.43064 1.143784,-0.78299 1.422124,-0.78299 0.95727,0 3.61495,-1.36739 3.61495,-1.85991 0,-0.2556 -0.16225,-0.52699 -0.36055,-0.60309 -0.56674,-0.21747 -2.43033,-4.7e-4 -3.11701,0.36296 -1.203586,0.63702 -3.401603,2.69863 -3.401603,3.19051 0,0.72975 0.781164,0.59936 1.842089,-0.30748 z m 19.284794,1.09851 c -0.987,-2.07822 -3.32909,-4.98555 -4.91731,-6.10407 -0.47084,-0.33159 -0.79627,-0.69964 -0.72318,-0.81789 0.0731,-0.11825 -0.11808,-0.39078 -0.42481,-0.60562 -0.32593,-0.22829 -0.51365,-0.59316 -0.45173,-0.878 0.10969,-0.50461 0.25392,-0.53026 1.11011,-0.19744 0.35438,0.13775 0.44899,0.10392 0.31512,-0.11269 -0.31905,-0.51622 0.17414,-0.34893 1.42742,0.48421 0.65484,0.43531 1.31416,0.79199 1.46515,0.79261 0.32455,0.001 2.33086,2.06024 3.50911,3.60111 0.9642,1.26093 2.69865,4.76662 2.69865,5.45454 0,0.86032 -0.44091,0.48603 -0.77041,-0.65399 -0.39438,-1.36456 -2.49894,-4.52396 -3.41206,-5.12226 -0.62224,-0.40771 -0.65116,-0.4057 -0.48262,0.0335 0.15265,0.39779 0.11816,0.41649 -0.23207,0.12582 -0.36038,-0.29909 -0.38137,-0.26274 -0.16935,0.29331 0.13311,0.34908 0.48673,1.11095 0.78584,1.69303 0.79946,1.55581 1.61017,3.82072 1.41101,3.94202 -0.0952,0.058 -0.60767,-0.80973 -1.13887,-1.92822 z m -29.424794,1.08791 c -0.236721,-0.38302 0.06437,-2.0367 0.636994,-3.49858 0.313507,-0.80036 0.631224,-1.72148 0.706038,-2.04692 0.181784,-0.79076 3.429664,-3.82571 5.167133,-4.82837 2.305543,-1.33049 5.287189,-2.14906 8.029339,-2.20435 1.43932,-0.029 2.55491,0.0697 2.77813,0.24576 0.20514,0.16184 0.73017,0.37598 1.16674,0.47587 1.4163,0.32409 3.00564,1.00062 3.13351,1.33385 0.30843,0.80374 -0.22093,0.9644 -2.17743,0.66084 -1.05136,-0.16312 -2.11329,-0.21823 -2.35986,-0.12245 -0.24657,0.0958 -1.16268,0.21994 -2.03581,0.27594 -5.26609,0.33774 -9.922018,3.17715 -13.235944,8.07193 -1.201835,1.77515 -1.536188,2.07764 -1.80884,1.63648 z m 5.697548,-7.11067 c 0.775356,-0.60421 1.826457,-1.21838 2.33578,-1.36483 2.41074,-0.6932 5.718066,-1.97107 5.979286,-2.31026 0.15991,-0.20763 0.34049,-0.3496 0.40128,-0.31548 0.0608,0.0341 0.0127,-0.057 -0.10694,-0.20255 -0.40114,-0.48801 -3.921895,-0.25081 -5.294914,0.35673 -2.282386,1.00992 -6.020602,4.28753 -5.944114,5.21172 0.05729,0.69228 -0.18899,0.8211 2.629622,-1.37533 z"
         id="path27" />
      <path
         style="fill:#b9b9b9;fill-opacity:1;stroke-width:0.264583"
         d="m 88.619481,163.58125 c 0,-0.3638 0.06005,-0.51263 0.133452,-0.33073 0.0734,0.1819 0.0734,0.47956 0,0.66146 -0.0734,0.1819 -0.133452,0.0331 -0.133452,-0.33073 z m 5.556249,0 c 0,-0.3638 0.06005,-0.51263 0.133453,-0.33073 0.0734,0.1819 0.0734,0.47956 0,0.66146 -0.0734,0.1819 -0.133453,0.0331 -0.133453,-0.33073 z m -3.018338,-2.82106 c 0.181901,-0.0734 0.479557,-0.0734 0.661458,0 0.181901,0.0734 0.03307,0.13345 -0.330729,0.13345 -0.363802,0 -0.51263,-0.0601 -0.330729,-0.13345 z m 7.209895,-0.36958 c -0.509323,-0.12698 -1.073441,-0.1797 -1.253597,-0.11714 -0.180155,0.0625 -0.299217,0.0225 -0.264583,-0.0889 0.161825,-0.52074 -2.97691,-2.68874 -3.892639,-2.68874 -0.225507,0 -0.385358,-0.0893 -0.355224,-0.19843 0.03013,-0.10915 -0.328272,-0.59929 -0.79646,-1.08922 -0.468187,-0.48993 -0.926271,-1.2043 -1.017963,-1.5875 -0.09169,-0.3832 -0.343451,-1.04695 -0.559464,-1.47502 -0.547715,-1.08538 -0.879234,-2.31006 -0.574314,-2.12161 0.136168,0.0842 0.247884,-0.003 0.248258,-0.19333 3.71e-4,-0.19049 0.399765,0.3085 0.887535,1.10886 1.091241,1.79058 3.584554,4.33935 4.902821,5.01189 0.539815,0.27539 1.987744,0.65171 3.217619,0.83627 1.229874,0.18455 2.323614,0.46227 2.430524,0.61714 0.10691,0.15487 0.19621,0.20393 0.19844,0.10903 0.002,-0.0949 0.52895,-0.0146 1.1705,0.17851 0.64156,0.19308 1.26536,0.27073 1.38625,0.17255 0.12088,-0.0982 0.0128,0.0689 -0.24027,0.37132 -0.72326,0.86442 -3.937937,1.54065 -5.487433,1.15432 z m 15.081253,-6.61715 c 0,-0.15268 -0.11907,-0.20402 -0.26459,-0.11409 -0.38386,0.23725 -0.32052,-1.13911 0.10959,-2.38125 0.20156,-0.58208 0.45081,-1.96893 0.55388,-3.08189 0.16452,-1.77645 0.10217,-2.28687 -0.51055,-4.17962 -0.68997,-2.13139 -0.70081,-2.66036 -0.0545,-2.66036 0.38056,0 1.55491,1.19353 1.96861,2.00077 0.45666,0.89105 1.10798,4.0257 1.10798,5.33241 0,0.89388 -0.23981,1.64114 -0.90752,2.82785 -0.87649,1.55778 -2.00289,2.82663 -2.00289,2.25618 z m 2.53483,-5.89458 c -0.0879,-0.43965 -0.36561,-1.0267 -0.61706,-1.30456 -0.44623,-0.49307 -0.46491,-0.48714 -0.77868,0.24722 -0.41557,0.97266 -0.42307,1.74754 -0.0254,2.62043 l 0.31998,0.70228 0.6305,-0.733 c 0.48206,-0.56043 0.59286,-0.92119 0.47062,-1.53237 z m 3.97762,-4.88633 c -0.0733,-0.11868 -0.39387,-0.92235 -0.71227,-1.78594 -0.31839,-0.86358 -0.67958,-1.69835 -0.80263,-1.85503 -0.12306,-0.15668 -0.41665,-0.74657 -0.65243,-1.31087 -0.39534,-0.9462 -0.39531,-0.9983 5.3e-4,-0.66989 0.37161,0.3084 0.40542,0.29442 0.25238,-0.10439 -0.36348,-0.94722 0.96754,0.21588 2.17715,1.90248 0.9463,1.31965 1.95607,3.35363 1.95607,3.9404 0,0.20134 -2.09018,0.0914 -2.2188,-0.11676 z m -22.387453,-2.39791 c 0,-0.49188 2.198017,-2.55349 3.401603,-3.19051 0.68668,-0.36343 2.55027,-0.58043 3.11701,-0.36296 0.1983,0.0761 0.36055,0.34749 0.36055,0.60309 0,0.49252 -2.65768,1.85991 -3.61495,1.85991 -0.27834,0 -0.918298,0.35235 -1.422124,0.78299 -1.060925,0.90684 -1.842089,1.03723 -1.842089,0.30748 z m -5.229985,-3.8564 c -0.07649,-0.92419 3.661728,-4.2018 5.944114,-5.21172 1.373019,-0.60754 4.893774,-0.84474 5.294914,-0.35673 0.11962,0.14552 0.16774,0.23667 0.10694,0.20255 -0.0608,-0.0341 -0.24137,0.10785 -0.40128,0.31548 -0.26122,0.33919 -3.568546,1.61706 -5.979286,2.31026 -0.509323,0.14645 -1.560424,0.76062 -2.33578,1.36483 -2.818612,2.19643 -2.572327,2.06761 -2.629622,1.37533 z"
         id="path25" />
      <path
         style="fill:#a3a3a3;fill-opacity:1;stroke-width:0.264583"
         d="m 89.853142,169.56804 c -6.975751,-1.91147 -5.527984,-12.13918 1.723341,-12.1745 3.515005,-0.0171 6.073376,2.58941 6.073376,6.18771 0,4.15032 -3.813212,7.07834 -7.796717,5.98679 z m 4.109598,-2.63187 c 2.56837,-1.959 2.153467,-5.79357 -0.777349,-7.18433 -2.635779,-1.25076 -5.940802,0.90717 -5.926251,3.8694 0.01112,2.26439 2.390528,4.34982 4.690313,4.11082 0.652443,-0.0678 1.495828,-0.40121 2.013287,-0.79589 z m -3.003786,0.17631 c 0,-0.24063 -0.47625,-0.87719 -1.058333,-1.41456 -0.913978,-0.84378 -1.058333,-1.12973 -1.058333,-2.09638 0,-1.56853 1.089237,-2.66612 2.645833,-2.66612 3.140979,0 3.619845,4.25703 0.683037,6.07207 -1.062094,0.65641 -1.212204,0.66942 -1.212204,0.10499 z m 23.603316,-17.67051 c -0.39771,-0.87289 -0.39021,-1.64777 0.0254,-2.62043 0.31377,-0.73436 0.33245,-0.74029 0.77868,-0.24722 0.80079,0.88487 0.85881,2.00875 0.14644,2.83693 l -0.6305,0.733 -0.31998,-0.70228 z"
         id="path23" />
    </g>
  </g>
</svg>
