<?xml version="1.0" encoding="UTF-8" standalone="no"?>
<!-- Created with Inkscape (http://www.inkscape.org/) -->

<svg
   width="100mm"
   height="100mm"
   viewBox="0 0 100 100"
   version="1.1"
   id="svg306"
   inkscape:version="1.1.1 (3bf5ae0d25, 2021-09-20)"
   sodipodi:docname="add_list_type_device_1163.svg"
   xmlns:inkscape="http://www.inkscape.org/namespaces/inkscape"
   xmlns:sodipodi="http://sodipodi.sourceforge.net/DTD/sodipodi-0.dtd"
   xmlns="http://www.w3.org/2000/svg"
   xmlns:svg="http://www.w3.org/2000/svg">
  <sodipodi:namedview
     id="namedview308"
     pagecolor="#505050"
     bordercolor="#ffffff"
     borderopacity="1"
     inkscape:pageshadow="0"
     inkscape:pageopacity="0"
     inkscape:pagecheckerboard="1"
     inkscape:document-units="mm"
     showgrid="false"
     width="100mm"
     inkscape:zoom="0.58974467"
     inkscape:cx="378.97757"
     inkscape:cy="-5.0869472"
     inkscape:window-width="1440"
     inkscape:window-height="890"
     inkscape:window-x="-6"
     inkscape:window-y="-6"
     inkscape:window-maximized="1"
     inkscape:current-layer="layer1" />
  <defs
     id="defs303" />
  <g
     inkscape:label="Laag 1"
     inkscape:groupmode="layer"
     id="layer1">
    <path
       style="fill:#000000;stroke-width:0.591345"
       d="m 45.771869,79.158596 c -0.90123,-0.98271 -1.04459,-2.401556 -1.04459,-10.338145 0,-10.678678 -0.46725,-9.986566 6.76437,-10.019678 l 4.67518,-0.02141 -0.0755,9.95573 c -0.0415,5.475649 -0.27095,10.147553 -0.50983,10.382003 -0.23889,0.23445 -2.30875,0.59599 -4.59969,0.80341 -3.65858,0.33124 -4.29244,0.23855 -5.20994,-0.76191 z m -9.08772,-0.0182 c -1.63316,-0.12364 -3.3002,-0.49425 -3.70453,-0.82358 -0.40433,-0.329339 -0.99298,-0.442405 -1.30812,-0.25126 -0.31513,0.19115 -1.26703,0.0886 -2.11533,-0.227982 l -1.54236,-0.575539 v -9.563562 c 0,-9.20316 -0.30758,-10.969559 -1.91011,-10.969559 -0.26264,0 -0.47753,4.185712 -0.47753,9.301584 0,10.791226 -0.29693,11.532836 -3.93577,9.829799 l -2.0877,-0.97708 0.17641,-9.950287 c 0.14471,-8.161804 0.0244,-10.007395 -0.66953,-10.26802 -3.20299,-1.203024 2.75369,-1.449755 31.62202,-1.309814 l 31.30253,0.151742 v 10.837893 10.837893 l -4.11403,1.348826 c -2.26272,0.741856 -4.47875,1.211471 -4.92451,1.043595 -0.6373,-0.240015 -0.81047,-2.367131 -0.81047,-9.955279 0,-5.307521 -0.24437,-9.798266 -0.54304,-9.97943 -0.70293,-0.426372 -2.51743,0.251562 -2.16619,0.809333 0.14765,0.234474 0.30836,4.754371 0.35713,10.044218 l 0.0887,9.617899 -3.98474,0.77887 c -2.19161,0.42838 -4.36843,0.63438 -4.83738,0.45776 -0.68949,-0.25967 -0.85264,-2.105128 -0.85264,-9.644482 0,-8.979545 -0.0462,-9.335242 -1.25388,-9.645186 -2.20451,-0.565794 -0.67459,-1.41884 3.484,-1.942592 l 4.03743,-0.508494 -7.46137,-0.292916 c -6.2187,-0.244132 -7.45111,-0.442753 -7.39978,-1.192586 0.0339,-0.494819 -0.39676,-0.899671 -0.95695,-0.899671 -0.5602,0 -0.99082,0.404852 -0.95695,0.899671 0.0514,0.750836 -1.22214,0.95257 -7.69824,1.219439 -4.2679,0.175873 -6.09047,0.373592 -4.05014,0.439374 2.98017,0.09609 3.83119,0.342439 4.32759,1.252756 0.3472,0.636709 0.61791,4.984735 0.61791,9.92457 0,5.323087 0.23933,8.936593 0.60665,9.159387 0.33366,0.20239 0.45211,0.61338 0.26323,0.91333 -0.33867,0.53781 -1.27321,0.55216 -7.12227,0.10937 z M 24.867599,55.203349 c -0.19835,-0.194667 -0.71318,-0.21548 -1.14408,-0.04625 -0.47617,0.187013 -0.33473,0.32583 0.36063,0.353941 0.62925,0.02544 0.9818,-0.113024 0.78345,-0.307691 z m 52.83893,-0.03404 c -0.41037,-0.162517 -1.0819,-0.162517 -1.49227,0 -0.41038,0.162517 -0.0746,0.295485 0.74614,0.295485 0.82075,0 1.15651,-0.132968 0.74613,-0.295485 z m -63.93852,17.80612 -1.98649,-1.335903 0.0852,-9.331554 c 0.0469,-5.132355 0.34837,-9.642756 0.67001,-10.023113 0.40147,-0.474763 0.28747,-0.803535 -0.36364,-1.048752 -0.52164,-0.196457 -0.78125,-0.622681 -0.57692,-0.947164 0.2378,-0.37762 7.93222,-0.594209 21.37736,-0.601749 11.55321,-0.0065 22.75179,-0.271531 24.88574,-0.589006 5.11213,-0.760549 31.27367,-1.434998 32.65122,-0.841753 0.59079,0.254428 1.6114,0.485366 2.268,0.513194 1.13557,0.04813 1.20181,0.514305 1.35776,9.555925 l 0.16394,9.505326 -2.2676,2.211317 c -2.8275,2.757306 -6.47249,4.73453 -7.27539,3.946534 -0.32435,-0.318336 -0.61711,-4.952408 -0.6625,-10.486699 l -0.0813,-9.916302 2.59183,-1.385514 2.59182,-1.385514 -25.66711,0.320138 c -14.11691,0.176076 -31.0393,0.326335 -37.60531,0.33391 -11.54362,0.01332 -11.89279,0.04806 -10.56453,1.051133 1.34069,1.012464 1.37366,1.282571 1.37366,11.254227 0,5.619278 -0.22034,10.288945 -0.48963,10.377042 -0.26929,0.0881 -1.38354,-0.440973 -2.47611,-1.175723 z M 8.7849595,70.02177 c -2.60627,-2.157022 -2.85681,-3.316384 -2.85681,-13.21973 0,-8.358112 0.32243,-10.692179 1.33915,-9.69432 0.17152,0.168332 6.9913695,0.358883 15.1552295,0.423447 19.77458,0.156388 20.53534,1.184466 1.17064,1.58197 -12.20407,0.250515 -14.1265795,0.409301 -13.28124,1.096938 0.84829,0.69004 0.98841,2.200805 0.98841,10.656861 0,5.419059 -0.21709,9.984518 -0.48243,10.145464 -0.26534,0.160946 -1.1801695,-0.284837 -2.0329495,-0.99063 z M 42.339639,47.333184 c -5.29055,-1.078823 -9.35271,-3.193478 -8.36906,-4.35671 0.46748,-0.552823 1.25679,-0.399637 3.46349,0.672178 7.64157,3.711588 23.32579,2.954904 28.59582,-1.379603 l 1.67841,-1.380465 -2.08919,1.137725 c -7.60738,4.142822 -20.01512,4.392736 -28.59664,0.575989 -2.10368,-0.935645 -3.95924,-1.569316 -4.12344,-1.408159 -0.16421,0.161159 -0.64278,0.01264 -1.06349,-0.330042 -1.03319,-0.841561 -0.75465,1.955294 0.32147,3.227876 0.62792,0.742558 0.61678,0.962872 -0.0616,1.218358 -0.45547,0.171535 -6.59659,0.240561 -13.64692,0.15339 C 6.6626795,45.318 5.6363695,45.222613 5.7125895,44.280022 c 0.0456,-0.563863 -0.27431,-1.025206 -0.71091,-1.025206 -1.2012,0 -1.65422,-1.11624 -0.84256,-2.076075 0.39676,-0.469197 0.5213,-0.853085 0.27675,-0.853085 -0.24455,0 -0.10286,-0.404167 0.31486,-0.898149 0.64437,-0.762005 2.80437,-0.888781 14.2496895,-0.836351 10.81944,0.04956 13.49032,-0.09157 13.49082,-0.712889 4.9e-4,-0.608901 -2.71432,-0.837373 -12.68574,-1.067604 -7.86342,-0.181558 -12.6853495,-0.51563 -12.6836895,-0.878748 0.002,-0.374035 5.1275295,-0.585832 14.1780195,-0.585832 11.0687,0 14.56779,0.183834 15.96607,0.83882 0.9849,0.46135 2.19364,0.890841 2.68609,0.954423 0.49245,0.06358 1.94148,0.315756 3.22007,0.560387 2.46666,0.471946 2.53675,0.147281 0.47654,-2.207172 -0.81436,-0.930665 -2.42657,-1.025206 -17.48282,-1.025206 -14.94454,0 -18.5678595,-0.305023 -16.7465195,-1.409782 0.28932,-0.175493 18.7656595,-0.49186 41.0585295,-0.703039 36.92442,-0.349783 40.60388,-0.299526 41.33459,0.564581 0.67225,0.794981 0.67043,0.99661 -0.0113,1.245447 -0.44735,0.163297 -7.12568,0.364134 -14.84074,0.446306 -10.24677,0.109137 -13.62518,0.310632 -12.5351,0.747619 0.9499,0.380789 6.77515,0.487251 16.02733,0.292916 13.4816,-0.283173 14.57596,-0.230118 15.09957,0.732014 0.31049,0.570522 0.42075,1.265618 0.24503,1.544659 -0.17571,0.27904 0.0838,0.835818 0.57667,1.237284 0.64836,0.528107 0.72105,0.937003 0.26289,1.478804 -0.44074,0.521204 -0.44297,0.864281 -0.007,1.12851 0.93169,0.565124 0.76457,1.346075 -0.56791,2.653826 -1.11958,1.098803 -1.9897,1.171664 -13.99215,1.171664 -12.7617,0 -14.95929,-0.341855 -12.81075,-1.992827 1.0368,-0.796693 1.09336,-2.805346 0.0883,-3.134165 -0.44673,-0.146145 -0.61261,0.09269 -0.41514,0.597744 0.50001,1.278807 -3.45557,4.343742 -7.03488,5.450899 -3.68661,1.140345 -15.53686,1.6332 -19.55721,0.813389 z m 10.55385,-5.608676 c 1.67164,-0.440004 2.3201,-2.044916 1.09756,-2.716387 -0.51268,-0.281585 -0.77634,-0.759395 -0.58591,-1.061799 0.47189,-0.749371 -4.28757,-0.702364 -5.73256,0.05662 -1.45853,0.766098 -1.4487,1.2061 0.0625,2.798083 1.22254,1.287884 2.74115,1.559754 5.15842,0.923485 z M 14.601849,30.395904 c -0.537,-0.852767 2.13377,-2.012074 4.31546,-1.873219 1.22788,0.07815 1.8889,-0.12885 1.79073,-0.560769 -0.22625,-0.995497 2.91053,-1.779573 6.86419,-1.715783 2.4399,0.03937 3.39322,-0.154919 3.283,-0.669072 -0.2613,-1.218849 4.45252,-1.601305 19.84114,-1.609815 14.96344,-0.0083 19.51446,0.37056 19.25034,1.60243 -0.10382,0.484189 1.10016,0.69601 3.95605,0.69601 3.90928,0 6.13506,0.88523 5.00772,1.991654 -0.23496,0.230597 0.77466,0.358781 2.24359,0.284851 2.79973,-0.140907 5.63847,0.903201 5.03992,1.853713 -0.47374,0.752294 -71.1184,0.752294 -71.59214,0 z"
       id="path322" />
  </g>
</svg>
