<?xml version="1.0" encoding="UTF-8" standalone="no"?>
<!-- Created with Inkscape (http://www.inkscape.org/) -->

<svg
   width="100mm"
   height="100mm"
   viewBox="0 0 100 100"
   version="1.1"
   id="svg1188"
   inkscape:version="1.1.1 (3bf5ae0d25, 2021-09-20)"
   sodipodi:docname="add_list_type_device_604a.svg"
   xmlns:inkscape="http://www.inkscape.org/namespaces/inkscape"
   xmlns:sodipodi="http://sodipodi.sourceforge.net/DTD/sodipodi-0.dtd"
   xmlns="http://www.w3.org/2000/svg"
   xmlns:svg="http://www.w3.org/2000/svg">
  <sodipodi:namedview
     id="namedview1190"
     pagecolor="#ffffff"
     bordercolor="#666666"
     borderopacity="1.0"
     inkscape:pageshadow="2"
     inkscape:pageopacity="0.0"
     inkscape:pagecheckerboard="0"
     inkscape:document-units="mm"
     showgrid="false"
     width="100mm"
     inkscape:zoom="0.58974467"
     inkscape:cx="378.97757"
     inkscape:cy="401.86883"
     inkscape:window-width="1440"
     inkscape:window-height="890"
     inkscape:window-x="-6"
     inkscape:window-y="-6"
     inkscape:window-maximized="1"
     inkscape:current-layer="layer1" />
  <defs
     id="defs1185" />
  <g
     inkscape:label="Laag 1"
     inkscape:groupmode="layer"
     id="layer1">
    <g
       id="g1204"
       transform="translate(-3.5891191,0.89728146)">
      <path
         style="fill:#d0d0d0;fill-opacity:1;stroke-width:0.44944"
         d="m 61.819603,83.891499 c -0.713243,-0.298357 -0.823324,-19.00388 -0.11236,-19.092752 0.247192,-0.03088 0.752812,-0.05618 1.1236,-0.05618 0.370787,0 0.88043,0.0253 1.132538,0.05618 0.299691,0.03672 0.416384,3.362515 0.33708,9.606776 -0.116566,9.177858 -0.156382,9.553922 -1.020179,9.635787 -0.494383,0.04686 -1.151689,-0.02054 -1.460679,-0.149811 z m 20.674232,0 c -0.713243,-0.298357 -0.823324,-19.00388 -0.11236,-19.092752 0.247192,-0.03088 0.752812,-0.05618 1.123599,-0.05618 0.370788,0 0.880431,0.0253 1.132539,0.05618 0.299691,0.03672 0.416384,3.362515 0.33708,9.606776 -0.116566,9.177858 -0.156382,9.553922 -1.020179,9.635787 -0.494384,0.04686 -1.151689,-0.02054 -1.460679,-0.149811 z M 57.41227,66.866305 c 0.03101,-0.580551 0.605575,-1.487534 1.2768,-2.015522 l 1.220414,-0.959977 v 1.579134 c 0,1.625556 -0.294361,2.016816 -1.72455,2.292246 -0.626839,0.12072 -0.815293,-0.09779 -0.772664,-0.895881 z m 1.327317,0.310729 c 0.127313,-0.205996 -0.0541,-0.374536 -0.403143,-0.374536 -0.349039,0 -0.530456,0.16854 -0.403143,0.374536 0.127309,0.205992 0.308725,0.374531 0.403143,0.374531 0.09442,0 0.275835,-0.168539 0.403143,-0.374531 z M 27.325096,65.803258 C 25.841945,65.371292 23.80501,64.59102 22.798574,64.069315 19.846238,62.538923 16.135782,59.266484 15.22016,57.385529 14.753203,56.426262 13.988577,54.887003 13.52099,53.964946 11.909064,50.786318 10.430983,45.745858 10.256441,42.832375 c -0.09626,-1.606747 -0.07237,-2.349282 0.05308,-1.650078 0.153028,0.852881 0.43475,1.191982 0.855992,1.030337 0.34534,-0.13252 0.976362,0.104395 1.40227,0.526478 0.730268,0.723709 0.757413,0.722621 0.476552,-0.0191 -0.163805,-0.432586 -0.08999,-0.78652 0.164032,-0.78652 0.254022,0 0.3455,-0.188273 0.203283,-0.418384 -0.142216,-0.230111 -0.0878,-0.523927 0.120918,-0.652924 0.208721,-0.128997 0.613928,1.273404 0.900459,3.116446 0.941587,6.056523 4.290354,10.844145 10.11234,14.457273 2.534273,1.572774 6.694227,2.823502 9.391029,2.823502 h 1.703332 v 2.696639 2.696639 l -2.808999,-0.032 c -1.544949,-0.01762 -4.022486,-0.385444 -5.505638,-0.81741 z m 6.853958,-0.464505 c 0.811486,-0.0276 1.011239,-0.295282 1.011239,-1.355169 0,-1.236418 -0.136357,-1.338809 -2.134839,-1.603089 -6.992775,-0.924722 -9.547138,-2.019958 -13.718847,-5.882223 -2.807668,-2.599408 -3.708308,-2.791822 -2.955164,-0.631346 0.557603,1.599538 4.614611,5.193996 8.025425,7.110425 2.509227,1.409852 6.855068,2.768132 8.086786,2.527497 0.370788,-0.07244 1.129218,-0.147183 1.6854,-0.166095 z M 65.752201,61.52158 c 0,-0.597378 0.177035,-1.15356 0.393409,-1.23596 0.709009,-0.269992 5.009101,-7.847709 5.913509,-10.420905 1.063949,-3.027139 1.196651,-9.664979 0.261884,-13.099778 -1.042615,-3.831067 -2.980052,-8.17528 -4.812966,-10.791853 -1.020273,-1.456485 -1.749063,-3.01595 -1.739674,-3.722539 l 0.01618,-1.216001 1.124197,1.348319 c 3.637632,4.362833 6.634469,11.797075 7.156408,17.752873 0.47922,5.468317 -1.184188,13.260453 -3.586413,16.800326 -0.579862,0.854479 -0.919873,1.703597 -0.755571,1.886928 0.164302,0.183331 0.07772,0.207502 -0.192396,0.05371 -0.270118,-0.153794 -1.167258,0.622775 -1.993648,1.7257 -0.826403,1.10293 -1.566073,2.005324 -1.643727,2.005324 -0.07765,0 -0.141192,-0.488765 -0.141192,-1.086147 z M 52.111226,57.876232 c 0.158819,-0.413876 0.05364,-0.897815 -0.233731,-1.07542 -0.371669,-0.229704 -0.183479,-0.962597 0.651935,-2.538921 0.645935,-1.2188 1.385479,-2.473043 1.643435,-2.787202 0.257956,-0.314162 0.532559,-1.02203 0.610227,-1.573039 0.07766,-0.551013 0.473624,-1.911953 0.879904,-3.024316 1.102539,-3.018652 0.715248,-8.510004 -0.81029,-11.488947 -0.640892,-1.251487 -1.48441,-2.5403 -1.874479,-2.864031 -0.390073,-0.32373 -0.70922,-0.930492 -0.70922,-1.348362 0,-0.830846 -1.876012,-2.758622 -3.495748,-3.592207 -0.563103,-0.289798 -0.903064,-0.722305 -0.755463,-0.961127 0.1476,-0.238821 0.487885,-0.298549 0.756191,-0.132727 0.280078,0.173097 0.359431,0.09374 0.186334,-0.186333 -0.165821,-0.268305 -0.06531,-0.633798 0.223362,-0.812207 0.369116,-0.228127 0.279125,-0.504063 -0.303291,-0.929935 -0.45548,-0.333055 -0.678321,-0.605555 -0.495206,-0.605555 0.571445,0 3.142236,1.430288 4.701927,2.615968 0.820749,0.623934 1.862811,1.161723 2.315689,1.195088 0.816763,0.06017 2.263972,1.579575 3.739429,3.925968 0.430874,0.68521 0.7559,2.064512 0.74136,3.146079 l -0.02589,1.925931 -1.025348,-2.247199 c -0.962763,-2.110037 -2.68298,-4.217452 -3.599145,-4.409269 -0.911703,-0.190883 -0.587661,1.865059 0.709135,4.499224 1.360737,2.764048 1.375569,2.870425 1.197456,8.587065 -0.139942,4.491459 -0.353359,6.052391 -0.952534,6.966848 -0.89083,1.359578 -1.003154,2.812087 -0.2533,3.275522 0.321485,0.198688 0.396883,0.12329 0.198194,-0.198194 -0.187654,-0.303637 -0.04258,-0.518883 0.349714,-0.518883 0.368716,0 0.78718,-0.367956 0.929918,-0.817684 0.142737,-0.449727 0.763113,-1.500257 1.378607,-2.334516 l 1.119083,-1.516832 v 1.885076 c 0,1.03679 -0.214185,1.885077 -0.475966,1.885077 -0.261781,0 -0.347871,0.207259 -0.191313,0.460577 0.156558,0.253313 0.113304,0.404999 -0.09612,0.337079 -0.209425,-0.06792 -1.307101,0.786619 -2.439272,1.898983 -2.834936,2.785335 -4.97613,4.350101 -4.595584,3.358421 z m 13.640975,-1.971778 c 0,-0.826435 0.518919,-2.94117 1.153151,-4.69941 1.572284,-4.35874 1.886946,-9.326623 0.899423,-14.200229 -0.420262,-2.07409 -1.054017,-4.331683 -1.408342,-5.016874 -0.354329,-0.685192 -0.627737,-1.913152 -0.60758,-2.728801 0.03492,-1.413196 0.09869,-1.354156 1.354778,1.254358 1.948012,4.045448 2.517438,8.778789 1.846533,15.349187 -0.607832,5.952653 -1.514541,9.820959 -2.543057,10.849475 -0.626914,0.626915 -0.694906,0.54789 -0.694906,-0.807706 z M 23.6251,47.214413 c -0.241594,-0.308989 -0.670854,-1.249285 -0.953912,-2.089546 -0.582029,-1.727763 -0.699086,-4.626922 -0.152053,-3.765938 0.203071,0.319617 0.872536,0.454068 1.602148,0.321764 0.894058,-0.162124 1.158678,-0.07414 0.923163,0.306929 -0.209573,0.339095 -0.137967,0.41542 0.19606,0.20898 0.289418,-0.17887 0.418491,-0.499515 0.286831,-0.712546 -0.13166,-0.213031 -0.05013,-0.504292 0.181172,-0.647246 0.686782,-0.424454 1.148571,5.475314 0.49062,6.268097 -0.678472,0.817509 -1.977253,0.872763 -2.574029,0.109506 z m 38.643943,-2.93259 c -0.871905,-0.141098 -1.01124,-0.438012 -1.01124,-2.154867 0,-1.928713 0.130765,-2.10358 1.57304,-2.10358 1.441713,0 1.573039,0.174216 1.573039,2.086754 0,2.071399 -0.378064,2.455987 -2.134839,2.171693 z m 20.674232,0 c -0.871905,-0.141098 -1.01124,-0.438012 -1.01124,-2.154867 0,-1.928713 0.130765,-2.10358 1.573039,-2.10358 1.441714,0 1.57304,0.174216 1.57304,2.086754 0,2.071399 -0.378064,2.455987 -2.134839,2.171693 z M 23.765812,38.534725 c -0.875654,-0.875654 -0.8885,-1.736335 -0.07137,-4.781578 1.329596,-4.955057 3.226218,-7.457146 7.54539,-9.954142 2.129039,-1.230838 6.82945,-2.748959 6.410003,-2.070279 -0.14697,0.237802 0.39823,0.44432 1.221809,0.462815 0.817962,0.01837 1.942262,0.119493 2.498444,0.22472 0.556182,0.105227 1.410524,0.253526 1.898537,0.329554 1.201802,0.187227 1.507253,0.562393 1.56688,1.924498 0.0458,1.046153 -0.0753,1.132157 -1.260357,0.895145 -1.409583,-0.281917 -4.789339,0.535423 -4.789339,1.158224 0,0.208065 -0.46591,0.378299 -1.035355,0.378299 -3.170845,0 -9.572977,5.210491 -11.356044,9.242321 -1.228699,2.778307 -1.671625,3.147399 -2.628601,2.190423 z m 5.581764,-8.937513 c 0,0.196953 0.455057,-0.05874 1.011239,-0.568214 0.556182,-0.50947 2.155416,-1.460658 3.553853,-2.11375 2.442143,-1.140521 2.788055,-1.625568 2.027463,-2.842971 -0.274575,-0.439485 -0.671525,-0.422811 -1.871618,0.07862 -2.130842,0.890323 -5.462654,3.438135 -6.00456,4.591643 -0.540457,1.150424 -0.165778,1.699473 0.68047,0.997149 0.331734,-0.275314 0.603153,-0.339429 0.603153,-0.142477 z m -17.191074,7.501483 c -2.008694,-0.446797 -0.155661,-8.664763 3.316495,-14.708238 1.775872,-3.091001 5.285398,-6.133707 9.777543,-8.476983 4.702823,-2.453173 7.037897,-3.090119 11.060406,-3.016979 3.467696,0.06305 4.580638,0.164149 8.205224,0.745342 0.926969,0.148637 1.904501,0.283469 2.172292,0.299626 0.267792,0.01616 0.486893,0.29583 0.486893,0.621495 0,0.467855 -0.14934,0.478825 -0.711613,0.05227 -0.391387,-0.296915 -0.561681,-0.362875 -0.378432,-0.146577 0.183249,0.216299 0.104081,0.669319 -0.17593,1.006712 -0.398971,0.48073 -0.359347,0.555971 0.183158,0.347792 0.380748,-0.146107 0.808737,-0.0772 0.951088,0.153131 0.152267,0.246371 -1.170486,0.39963 -3.212977,0.372265 -3.91365,-0.05244 -7.083165,0.413618 -8.415636,1.237453 -0.494384,0.305666 -1.808995,0.816788 -2.921359,1.135826 -5.225966,1.498864 -11.737908,6.306496 -15.468093,11.419772 -1.170367,1.604319 -3.243135,6.218088 -3.649024,8.122348 -0.220912,1.036429 -0.243581,1.051939 -1.220035,0.834745 z M 28.336336,16.751928 c 1.792141,-0.800652 3.258439,-1.642836 3.258439,-1.871521 0,-0.228685 0.202248,-0.290794 0.44944,-0.138021 0.247191,0.152773 0.449439,-0.155162 0.449439,-0.684301 0,-0.844529 -0.196769,-0.935552 -1.610556,-0.745027 -2.977051,0.401194 -10.688945,5.285015 -11.890439,7.530027 -0.982984,1.836722 0.16018,1.671005 3.071953,-0.44532 1.657307,-1.204558 4.479583,-2.845185 6.271724,-3.645837 z m -9.325876,4.9833 c 0,-0.232604 0.199931,-0.54648 0.444292,-0.697503 0.254769,-0.157456 0.330116,0.02295 0.176634,0.422915 -0.298783,0.778618 -0.620926,0.921077 -0.620926,0.274588 z M 61.363732,20.47244 61.482523,6.7417491 62.521125,6.5833935 c 0.737575,-0.1124579 0.940533,0.00487 0.700245,0.4047997 -0.231439,0.3852045 -0.09807,0.3682436 0.422078,-0.053676 0.711198,-0.5768942 0.760434,0.2858981 0.760434,13.3258908 V 34.20313 h -1.579471 -1.579466 z m 20.674232,0 0.118791,-13.7306909 1.038601,-0.1583556 c 0.737576,-0.1124579 0.940534,0.00487 0.700246,0.4047997 -0.231439,0.3852045 -0.09807,0.3682436 0.422078,-0.053676 0.711198,-0.5768942 0.760434,0.2858981 0.760434,13.3258908 V 34.20313 H 83.498643 81.919177 Z M 58.101509,20.146447 c -0.612362,-0.612049 -2.427996,-1.836681 -4.034743,-2.721404 -1.606747,-0.884723 -2.516863,-1.500936 -2.022479,-1.369362 0.494384,0.131573 1.202251,0.02252 1.573039,-0.242352 0.571679,-0.408369 0.556784,-0.443954 -0.09796,-0.234089 -0.424671,0.136119 -0.910979,0.02282 -1.080683,-0.251765 -0.178576,-0.288942 -0.105241,-0.373597 0.174091,-0.20096 0.265457,0.164061 0.798888,-0.01795 1.185406,-0.404464 0.637382,-0.637383 0.943869,-0.562128 3.294673,0.808979 2.518036,1.468645 2.59582,1.57183 2.7289,3.619985 0.155762,2.397259 -0.144091,2.570774 -1.72024,0.995432 z"
         id="path1210" />
      <path
         style="fill:#b9b9b9;fill-opacity:1;stroke-width:0.44944"
         d="m 29.350706,65.00228 c -4.725911,-1.214175 -11.992148,-6.332401 -12.969263,-9.135354 -0.753144,-2.160476 0.147496,-1.968062 2.955164,0.631346 4.171709,3.862265 6.726072,4.957501 13.718847,5.882223 1.998482,0.26428 2.134839,0.366671 2.134839,1.603089 0,1.059887 -0.199753,1.327573 -1.011239,1.355169 -0.556182,0.01892 -1.314612,0.09365 -1.6854,0.166095 -0.370787,0.07244 -1.785114,-0.153717 -3.142948,-0.502568 z M 61.257803,54.495298 V 44.285483 l 1.028202,-0.196553 c 2.120385,-0.405337 2.117877,-0.417648 2.117877,10.391429 v 10.224756 h -1.573039 -1.57304 z m 20.674232,0 V 44.285483 l 1.028202,-0.196553 c 2.120385,-0.405337 2.117877,-0.417648 2.117877,10.391429 v 10.224756 h -1.57304 -1.573039 z m -16.179834,4.498713 c 0,-0.751585 0.393633,-1.91451 0.874741,-2.584279 1.904577,-2.651443 3.267306,-14.530642 2.307761,-20.117214 -0.295035,-1.717705 -1.146031,-4.454209 -1.891104,-6.081121 -0.950214,-2.074837 -1.31169,-3.483837 -1.210683,-4.719118 l 0.144005,-1.761096 1.672658,2.471919 c 1.797593,2.65655 3.693928,6.941314 4.674417,10.561835 0.926534,3.421282 0.79763,10.076747 -0.253062,13.066156 -0.924367,2.629991 -5.411624,10.52864 -5.981653,10.529139 -0.185394,1.61e-4 -0.33708,-0.614636 -0.33708,-1.366221 z M 55.714713,53.319303 c -0.531673,-0.531674 -0.319614,-1.94869 0.472555,-3.157697 0.599175,-0.914457 0.812592,-2.475389 0.952534,-6.966848 0.178113,-5.71664 0.163281,-5.823017 -1.197456,-8.587065 -1.254414,-2.548076 -1.608685,-4.584353 -0.797585,-4.584353 0.781369,0 2.752311,2.452102 3.713101,4.619573 0.917832,2.070559 1.050579,3.071177 1.043442,7.865197 -0.008,5.347708 -0.0436,5.545075 -1.34832,7.470574 -0.737076,1.087766 -1.340139,2.149567 -1.340139,2.359559 0,0.209996 -0.315309,0.381808 -0.700686,0.381808 -0.385377,0 -0.575687,0.202248 -0.422914,0.44944 0.314374,0.508663 0.07862,0.602964 -0.374532,0.149812 z M 27.87561,29.9746 c -0.881254,-0.881253 2.920588,-4.456442 6.192903,-5.823703 1.200093,-0.501431 1.597043,-0.518105 1.871618,-0.07862 0.760592,1.217403 0.41468,1.70245 -2.027463,2.842971 -1.398437,0.653092 -2.997671,1.60428 -3.553853,2.11375 -0.556182,0.50947 -1.011239,0.765167 -1.011239,0.568214 0,-0.196952 -0.271419,-0.132837 -0.603153,0.142477 -0.331733,0.275315 -0.7227,0.381025 -0.868813,0.234911 z m -9.090221,-7.817024 c -1.053715,-1.704948 7.946791,-8.285131 12.097709,-8.844518 1.413787,-0.190525 1.610556,-0.0995 1.610556,0.745027 0,0.529139 -0.202248,0.837074 -0.449439,0.684301 -0.247192,-0.152773 -0.44944,-0.09066 -0.44944,0.138021 0,0.228685 -1.466298,1.070869 -3.258439,1.871521 -1.792141,0.800652 -4.614417,2.441279 -6.271724,3.645837 -1.657307,1.204559 -3.132958,1.996473 -3.279223,1.759811 z m 0.845997,-0.696936 c 0.153482,-0.399967 0.07813,-0.580371 -0.176634,-0.422915 -0.244361,0.151023 -0.444292,0.464899 -0.444292,0.697503 0,0.646489 0.322143,0.50403 0.620926,-0.274588 z M 63.229999,6.9742331 c 0.25792,-0.4289822 0.04229,-0.5218648 -0.840066,-0.3618624 -1.066485,0.1933904 -1.172849,0.092235 -1.047231,-0.9959236 0.115722,-1.0024416 0.391557,-1.2354487 1.6005,-1.3520127 1.28747,-0.1241351 1.46068,-0.010745 1.46068,0.956208 0,0.6033742 -0.342195,1.3746181 -0.760434,1.7138751 -0.554663,0.4499189 -0.666542,0.4606655 -0.413449,0.039717 z m 20.674232,0 c 0.256994,-0.4274384 0.04624,-0.5225803 -0.812605,-0.3668422 -1.030772,0.1869148 -1.159591,0.063797 -1.159591,-1.1082834 0,-1.207296 0.132733,-1.3185573 1.573039,-1.3185573 1.356679,0 1.57304,0.146974 1.57304,1.0685681 0,0.5877124 -0.342195,1.3461422 -0.760434,1.6853992 -0.554663,0.4499189 -0.666542,0.4606655 -0.413449,0.039717 z"
         id="path1208" />
      <path
         style="fill:#a3a3a3;fill-opacity:1;stroke-width:0.44944"
         d="M 17.721349,98.088152 C 11.005216,96.735554 6.2777213,90.990279 6.2777213,84.180839 c 0,-4.00877 1.2671078,-7.033311 4.1574267,-9.923631 2.890319,-2.890321 5.91486,-4.157427 9.923631,-4.157427 4.008771,0 7.033313,1.267106 9.923631,4.157427 2.890319,2.89032 4.157427,5.914861 4.157427,9.923631 0,8.814126 -8.187986,15.625324 -16.718488,13.907313 z m 6.135024,-5.167079 c 7.813771,-3.263999 7.813771,-14.21647 0,-17.480468 -5.956245,-2.488067 -12.89266,2.149626 -12.92596,8.64231 -0.03398,6.625844 6.889445,11.359753 12.92596,8.838158 z M 19.01046,91.865712 c 0,-1.013146 -0.349886,-1.510365 -1.568966,-2.22964 -4.352382,-2.567969 -4.415307,-8.232389 -0.120542,-10.850938 2.858084,-1.742595 6.565411,-0.706088 8.433533,2.357878 2.158129,3.539613 -0.0092,8.81201 -4.591281,11.168903 -2.13927,1.100391 -2.152744,1.097595 -2.152744,-0.446203 z"
         id="path1206" />
    </g>
  </g>
</svg>
