<?xml version="1.0" encoding="UTF-8" standalone="no"?>
<!-- Created with Inkscape (http://www.inkscape.org/) -->

<svg
   width="100mm"
   height="100mm"
   viewBox="0 0 100 100"
   version="1.1"
   id="svg1630"
   inkscape:version="1.1.1 (3bf5ae0d25, 2021-09-20)"
   sodipodi:docname="add_list_type_device_6078.svg"
   xmlns:inkscape="http://www.inkscape.org/namespaces/inkscape"
   xmlns:sodipodi="http://sodipodi.sourceforge.net/DTD/sodipodi-0.dtd"
   xmlns="http://www.w3.org/2000/svg"
   xmlns:svg="http://www.w3.org/2000/svg">
  <sodipodi:namedview
     id="namedview1632"
     pagecolor="#505050"
     bordercolor="#ffffff"
     borderopacity="1"
     inkscape:pageshadow="0"
     inkscape:pageopacity="0"
     inkscape:pagecheckerboard="1"
     inkscape:document-units="mm"
     showgrid="false"
     inkscape:zoom="0.58974467"
     inkscape:cx="397.62971"
     inkscape:cy="456.1296"
     inkscape:window-width="1440"
     inkscape:window-height="890"
     inkscape:window-x="-6"
     inkscape:window-y="-6"
     inkscape:window-maximized="1"
     inkscape:current-layer="layer1" />
  <defs
     id="defs1627" />
  <g
     inkscape:label="Laag 1"
     inkscape:groupmode="layer"
     id="layer1">
    <g
       id="g1646"
       transform="translate(-4.259819e-7,1.7945614)">
      <path
         style="fill:#d0d0d0;fill-opacity:1;stroke-width:0.59414"
         d="m 18.158001,94.178069 c 0.428895,-0.171629 0.941341,-0.150526 1.138769,0.04688 0.197428,0.197426 -0.153486,0.337851 -0.779809,0.312054 -0.692139,-0.02852 -0.832925,-0.169294 -0.35896,-0.358956 z m 4.158982,0 c 0.428895,-0.171629 0.941341,-0.150526 1.138769,0.04688 0.197427,0.197426 -0.153487,0.337851 -0.779809,0.312054 -0.69214,-0.02852 -0.832925,-0.169294 -0.35896,-0.358956 z m -1.9621,-4.951089 c 0.205254,-0.332107 0.622077,-0.450014 0.926275,-0.262004 0.824098,0.509314 0.670434,0.865834 -0.373189,0.865834 -0.509451,0 -0.75834,-0.271724 -0.553086,-0.60383 z m -4.537827,-4.594897 c -0.739034,-0.942342 -0.718019,-0.963357 0.224321,-0.224323 0.57186,0.448486 1.039745,0.916372 1.039745,1.039745 0,0.489001 -0.487899,0.174267 -1.264066,-0.815422 z M 6.4804099,82.106987 c 0,-0.816943 0.1348542,-1.151146 0.299676,-0.742675 0.1648218,0.408471 0.1648218,1.076879 0,1.485351 -0.1648218,0.408471 -0.299676,0.07427 -0.299676,-0.742676 z m 27.8776841,0.247561 c 0.02851,-0.692144 0.169295,-0.832926 0.35896,-0.358962 0.17163,0.428892 0.150522,0.941338 -0.04691,1.138771 -0.197428,0.197427 -0.337852,-0.15349 -0.312054,-0.779809 z M 11.186626,80.572127 c 0.02851,-0.692144 0.169295,-0.832925 0.35896,-0.358962 0.171629,0.428892 0.150521,0.941338 -0.04691,1.138771 -0.197428,0.197427 -0.337852,-0.15349 -0.312054,-0.779809 z m 18.465252,-0.24756 c 0,-0.816943 0.134854,-1.151147 0.299676,-0.742676 0.164822,0.408472 0.164822,1.076879 0,1.485351 -0.164822,0.408471 -0.299676,0.07427 -0.299676,-0.742675 z M 6.4804099,78.542146 c 0,-0.816943 0.1348542,-1.151147 0.299676,-0.742675 0.1648218,0.408471 0.1648218,1.076879 0,1.48535 -0.1648218,0.408472 -0.299676,0.07427 -0.299676,-0.742675 z m 27.8776841,-0.34658 c 0.02851,-0.692144 0.169295,-0.832925 0.35896,-0.358962 0.17163,0.428892 0.150522,0.941338 -0.04691,1.138771 -0.197428,0.197427 -0.337852,-0.15349 -0.312054,-0.779809 z m -14.454806,-7.17659 c 0.408472,-0.164821 1.076879,-0.164821 1.485351,0 0.408471,0.16482 0.07427,0.299678 -0.742676,0.299678 -0.816942,0 -1.151146,-0.134858 -0.742675,-0.299678 z m -1.745287,-4.765498 c 0.428895,-0.171629 0.941341,-0.150525 1.138769,0.04688 0.197428,0.197433 -0.153486,0.337852 -0.779809,0.312054 -0.692139,-0.02852 -0.832925,-0.169294 -0.35896,-0.358956 z m 4.158982,0 c 0.428895,-0.171629 0.941341,-0.150525 1.138769,0.04688 0.197427,0.197433 -0.153487,0.337852 -0.779809,0.312054 -0.69214,-0.02852 -0.832925,-0.169294 -0.35896,-0.358956 z"
         id="path1654" />
      <path
         style="fill:#a3a3a3;fill-opacity:1;stroke-width:0.59414"
         d="M 17.52861,93.952587 C 8.228818,91.706808 3.8284257,80.613099 9.086053,72.668291 15.89725,62.375875 31.597238,65.375796 34.280358,77.48236 36.426226,87.164784 27.15742,96.27782 17.52861,93.952587 Z m 8.167545,-5.92725 c 5.614663,-3.411951 5.392703,-12.28117 -0.392591,-15.687388 -2.655198,-1.563307 -6.831008,-1.515818 -9.452791,0.107498 -5.688046,3.521838 -5.790278,12.17268 -0.184873,15.64398 4.118519,2.550507 5.228949,0.411899 1.460837,-2.813462 -1.305254,-1.117251 -2.49982,-2.764083 -2.714722,-3.742519 -0.56173,-2.557542 1.112965,-5.652044 3.731177,-6.894469 1.921772,-0.91194 2.421784,-0.933269 4.558675,-0.194444 3.373375,1.166333 4.951953,4.337236 3.902689,7.839371 -0.688778,2.298937 -3.045515,5.128262 -5.675797,6.813951 -1.962303,1.257593 2.634909,0.223361 4.767396,-1.072518 z"
         id="path1652" />
      <path
         style="fill:#494949;fill-opacity:1;stroke-width:0.59414"
         d="m 51.98686,95.378725 c 0.408471,-0.16482 1.076879,-0.16482 1.48535,0 0.408472,0.164821 0.07427,0.299679 -0.742675,0.299679 -0.816943,0 -1.151147,-0.134858 -0.742675,-0.299679 z"
         id="path1650" />
      <path
         style="fill:#333333;fill-opacity:1;stroke-width:0.59414"
         d="m 45.515186,94.508803 c -0.973887,-0.356959 -1.678381,-1.142318 -1.85541,-2.068386 -0.36028,-1.884684 1.180592,-2.957345 5.059313,-3.52198 l 2.822166,-0.410831 V 65.472897 c 0,-21.901218 -0.05401,-23.048839 -1.09767,-23.321762 -1.130666,-0.295675 -1.853314,-2.941081 -1.866492,-6.832691 l -0.0065,-1.930955 h 4.158982 c 4.687783,0 4.567582,-0.17622 3.783218,5.546345 -0.266783,1.946395 -0.697571,2.843633 -1.48535,3.093664 -1.058265,0.33588 -1.109588,1.419498 -1.109588,23.427848 v 23.075676 l 2.974352,0.409083 c 1.635894,0.224989 3.506134,0.851646 4.156091,1.392564 1.627463,1.354449 0.975953,3.407513 -1.337223,4.213892 -2.225892,0.775947 -12.047082,0.749828 -14.195849,-0.03773 z m 7.906706,-58.884192 c -0.867291,-0.867292 -1.880637,0.0036 -1.880637,1.616289 0,1.968286 2.01106,2.318054 2.274474,0.39558 0.107241,-0.782677 -0.06999,-1.688018 -0.393837,-2.011869 z M 48.03723,19.870798 C 47.981774,8.8998421 48.468211,5.0997219 49.35832,9.5502641 c 0.408241,2.0412049 1.865357,3.6364569 3.321569,3.6364569 1.446432,0 2.989415,-1.841985 3.14799,-3.7580121 0.07234,-0.8740878 0.474261,-1.5892502 0.893154,-1.5892502 0.596333,0 0.748425,2.6110913 0.700807,12.0313393 -0.04605,9.109941 -0.205453,11.526407 -0.656478,9.951849 -0.66168,-2.309974 -0.68311,-3.685238 -0.124008,-7.958478 0.233691,-1.786112 0.08884,-3.792063 -0.3754,-5.198727 -0.733941,-2.223863 -0.836737,-2.290441 -3.536419,-2.290441 -2.708006,0 -2.800563,0.06077 -3.549734,2.330786 -0.501851,1.520624 -0.624851,3.430915 -0.353863,5.495797 0.56089,4.273886 0.543851,5.19715 -0.140651,7.621063 -0.440155,1.558644 -0.602472,-0.933982 -0.648057,-9.951849 z"
         id="path1648" />
    </g>
  </g>
</svg>
