<?xml version="1.0" encoding="UTF-8" standalone="no"?>
<!-- Created with Inkscape (http://www.inkscape.org/) -->

<svg
   width="100mm"
   height="100mm"
   viewBox="0 0 100 100"
   version="1.1"
   id="svg21"
   inkscape:version="1.1.1 (3bf5ae0d25, 2021-09-20)"
   sodipodi:docname="add_list_type_device_61c3.svg"
   xmlns:inkscape="http://www.inkscape.org/namespaces/inkscape"
   xmlns:sodipodi="http://sodipodi.sourceforge.net/DTD/sodipodi-0.dtd"
   xmlns="http://www.w3.org/2000/svg"
   xmlns:svg="http://www.w3.org/2000/svg">
  <sodipodi:namedview
     id="namedview23"
     pagecolor="#ffffff"
     bordercolor="#666666"
     borderopacity="1.0"
     inkscape:pageshadow="2"
     inkscape:pageopacity="0.0"
     inkscape:pagecheckerboard="0"
     inkscape:document-units="mm"
     showgrid="false"
     width="100mm"
     inkscape:zoom="0.58974467"
     inkscape:cx="378.97757"
     inkscape:cy="283.17339"
     inkscape:window-width="1440"
     inkscape:window-height="890"
     inkscape:window-x="-6"
     inkscape:window-y="-6"
     inkscape:window-maximized="1"
     inkscape:current-layer="layer1" />
  <defs
     id="defs18" />
  <g
     inkscape:label="Laag 1"
     inkscape:groupmode="layer"
     id="layer1">
    <g
       id="g73"
       transform="translate(2.5506984,0.21749398)">
      <path
         style="fill:#d0d0d0;fill-opacity:1;stroke-width:0.560908"
         d="m 21.925869,90.415179 c -0.196508,-0.317956 0.02864,-0.411986 0.527805,-0.220442 0.971726,0.372886 1.149516,0.774928 0.342689,0.774928 -0.290293,0 -0.682015,-0.24952 -0.870494,-0.554486 z m -6.525954,-2.109825 c -0.697697,-0.889634 -0.677857,-0.909473 0.211773,-0.211777 0.539874,0.423401 0.981589,0.865116 0.981589,0.981589 0,0.461649 -0.46061,0.164519 -1.193362,-0.769812 z m 30.734494,-0.514168 c -0.745797,-0.745794 -0.348948,-2.404504 0.711002,-2.971772 1.438032,-0.76961 3.239266,-0.737341 3.736336,0.06693 0.220122,0.356165 0.162902,0.500902 -0.127157,0.321636 -0.290057,-0.179266 -0.527378,0.160346 -0.527378,0.754695 0,0.594349 0.261424,1.105796 0.580941,1.136545 0.737713,0.071 -1.925087,0.935291 -3.111702,1.009992 -0.488457,0.03074 -1.056376,-0.112361 -1.262042,-0.318029 z M 17.082638,86.061723 c -0.697697,-0.889633 -0.677858,-0.909472 0.211773,-0.211776 0.539874,0.423401 0.981588,0.865116 0.981588,0.981588 0,0.46165 -0.460609,0.16452 -1.193361,-0.769812 z m 44.803925,-3.365395 c -0.539873,-0.122395 -0.981588,-0.47133 -0.981588,-0.775415 0,-0.304085 0.291408,-0.372785 0.647573,-0.152662 0.419245,0.259105 0.494519,0.152578 0.213493,-0.302133 -0.27816,-0.450073 0.56309,-1.74044 2.342014,-3.592338 3.131793,-3.260264 7.839227,-9.200208 9.624938,-12.144956 1.947123,-3.210933 1.356297,-0.726521 -0.851497,3.58052 -3.388555,6.610514 -2.64786,8.11185 2.114061,4.28507 2.775224,-2.23023 3.49925,-1.135984 0.976753,1.476202 -1.733833,1.795482 -10.019167,7.267887 -10.019167,6.617593 0,-0.155528 -0.694123,0.05774 -1.542496,0.473939 -0.848372,0.416193 -1.98421,0.656576 -2.524084,0.53418 z M 35.495387,75.250723 c -3.550685,-0.632978 -3.622362,-1.468315 -0.156682,-1.826006 5.580861,-0.575996 5.141641,-1.979757 -1.637747,-5.234289 -4.594891,-2.205836 -13.173541,-9.795198 -14.32383,-12.67201 -2.674876,-6.689731 -5.219886,-11.31815 -5.636737,-10.251111 -1.775689,4.545351 1.896249,16.200532 6.667243,21.162651 1.112314,1.156872 1.732622,2.103404 1.378463,2.103404 -1.12005,0 -5.849472,-6.294937 -7.796145,-10.376791 -2.80532,-5.882297 -4.2709821,-22.907992 -2.090175,-24.280278 0.349316,-0.21981 1.050657,-1.628675 1.558534,-3.13081 1.622635,-4.799225 3.102265,-6.20345 4.716139,-4.475793 0.388677,0.416081 0.507428,0.760376 0.263891,0.7651 -0.243537,0.0047 -0.09717,0.227539 0.32526,0.495144 0.641816,0.406582 0.605945,0.974627 -0.218236,3.456005 -2.494073,7.508947 -0.920665,19.393819 3.509649,26.510444 4.547823,7.305384 15.316504,12.503999 26.304379,12.698516 1.372786,0.02429 2.09093,2.230623 1.044293,3.208324 -1.864381,1.741595 -9.10623,2.703557 -13.908299,1.8475 z m 21.070452,-6.237421 c -0.04983,-0.661529 0.65368,-2.28456 1.563359,-3.606737 0.909679,-1.322171 1.653962,-2.5654 1.653962,-2.762733 0,-0.197333 0.783616,-1.49773 1.741371,-2.889779 3.172746,-4.611428 4.049192,-8.031313 4.264945,-16.641807 0.220913,-8.816205 0.627302,-9.894299 3.074256,-8.155571 8.568531,6.088528 3.856654,28.474733 -7.082692,33.649964 -4.070237,1.925567 -5.094768,2.005457 -5.215201,0.406663 z m 9.669676,-5.605031 c 3.135541,-2.753044 4.037071,-5.086383 4.521353,-11.702137 0.307074,-4.194927 -0.03859,-6.222362 -1.027459,-6.026469 -0.929385,0.184109 -2.049158,2.105999 -2.073665,3.559071 -0.01733,1.027362 -1.071894,3.351776 -3.292213,7.25651 -3.859999,6.78834 -2.731681,10.955093 1.871984,6.913025 z M 37.3141,60.743331 C 33.672628,59.553009 29.091811,55.767517 27.396337,52.547496 25.759734,49.439282 24.311486,39.366168 25.50121,39.366168 c 0.271876,0 0.780326,-1.135838 1.129891,-2.524084 0.701618,-2.78638 1.437809,-3.084967 3.536321,-1.434278 1.042789,0.820258 1.327364,1.485669 1.150561,2.690304 -0.129196,0.880274 0.153414,3.481864 0.628022,5.781311 0.788627,3.820845 1.102987,4.410212 3.651095,6.845125 2.217079,2.118591 2.557155,2.664311 1.660315,2.664311 -0.65092,0 -2.473696,-1.423138 -4.310511,-3.365445 -1.750461,-1.850995 -3.644479,-3.365446 -4.208928,-3.365446 -2.395165,0 0.816646,8.009988 4.571184,11.400149 2.01749,1.821694 8.206645,2.518323 10.062649,1.132616 2.039104,-1.522411 2.119776,-3.76206 0.145031,-4.02642 -2.861903,-0.383124 -2.455878,-1.214512 0.588953,-1.205957 3.678985,0.01034 4.338522,0.369529 4.78591,2.60647 0.651836,3.259181 -6.496943,5.839271 -11.577603,4.178507 z m 14.090269,-5.045778 c -0.659144,-1.23162 -0.769153,-4.128025 -0.232849,-6.130574 0.326502,-1.219149 0.57943,-1.28713 4.173838,-1.121815 4.263046,0.196067 4.360358,0.393667 2.352867,4.777667 -1.482083,3.236601 -5.120476,4.667204 -6.293856,2.474722 z m 4.985195,-1.994323 c 0.986233,-1.188338 0.514993,-3.911514 -0.717349,-4.145375 -1.971738,-0.374176 -3.741761,0.427219 -3.741761,1.694119 0,2.550601 3.005482,4.202771 4.45911,2.451256 z M 78.787595,38.730452 c -0.03651,-1.038602 -0.0267,-2.107183 0.02188,-2.374623 0.04857,-0.267441 -0.163095,-1.277074 -0.470327,-2.24363 -0.925727,-2.912325 -1.386563,-8.409202 -0.667749,-7.964952 0.341952,0.211339 0.626573,0.05385 0.632491,-0.349985 0.01963,-1.339859 3.958128,3.697739 5.596926,7.158848 2.747365,5.802378 2.74147,6.199858 -0.09751,6.577129 -1.333849,0.177255 -2.993104,0.494024 -3.687227,0.703932 -1.127205,0.340875 -1.269137,0.179894 -1.328464,-1.506719 z M 31.427787,33.925461 c 0.187777,-0.370145 -0.173681,-0.948662 -0.803242,-1.285593 -0.990193,-0.529935 -1.04908,-0.770027 -0.43639,-1.779219 0.389545,-0.64164 1,-1.672872 1.356566,-2.291627 1.306866,-2.267827 6.660112,-6.622069 8.887128,-7.228642 3.765144,-1.025513 13.006959,-0.33926 15.985865,1.187034 5.204847,2.666795 9.957781,7.709716 8.983014,9.531086 -0.800578,1.495895 -1.321201,1.439877 -4.114235,-0.442686 -2.669077,-1.799011 -9.624797,-3.467798 -14.454233,-3.467798 -6.8727,0 -10.95486,1.430316 -14.407612,5.048168 -0.736052,0.771248 -1.18464,1.099423 -0.996861,0.729277 z M 54.09915,26.094549 c -0.355027,-0.427781 -0.308929,-0.794284 0.134362,-1.068253 0.427812,-0.264403 0.528319,-0.180027 0.274588,0.230518 -0.220122,0.356164 -0.132917,0.647572 0.193789,0.647572 1.226512,0 0.522751,-1.053051 -1.502237,-2.247823 -3.805953,-2.245567 -12.179946,-1.36682 -11.506749,1.207491 0.147815,0.565243 0.492466,0.889453 0.765892,0.720467 0.273426,-0.168987 0.497138,-0.06069 0.497138,0.240661 0,0.301351 1.033985,0.470794 2.297743,0.376539 1.263759,-0.09426 2.899613,-0.0104 3.635232,0.186327 2.364308,0.632313 5.817174,0.43781 5.210242,-0.293499 z M 20.673061,23.590244 c 0.21036,-0.601768 0.02056,-0.887893 -0.558099,-0.841361 -3.765071,0.302761 5.81556,-9.931156 12.846404,-13.7223767 5.771666,-3.1122375 22.41383,-2.9940367 28.742835,0.2041458 3.50436,1.7708289 10.166422,6.9950729 12.406765,9.7291159 1.90376,2.323286 2.1566,3.998122 0.508076,3.365523 -0.517224,-0.198476 -0.649155,0.01093 -0.417641,0.662896 0.240691,0.67781 -0.132009,0.538194 -1.290609,-0.483472 -8.749883,-7.715742 -22.889864,-10.402362 -36.902963,-7.011623 -6.316161,1.528316 -8.883559,2.867724 -13.467461,7.025958 -1.202338,1.090687 -2.042626,1.572724 -1.867307,1.071194 z M 38.695564,11.795032 c -0.275172,-0.445237 -0.154072,-0.491645 0.387578,-0.148528 1.302466,0.82507 18.583597,0.898768 18.090354,0.07715 -0.297042,-0.494799 -0.166461,-0.485934 0.473312,0.03213 0.72908,0.590385 0.942881,0.560779 1.223061,-0.169358 0.19588,-0.510455 0.104937,-0.739822 -0.214949,-0.542121 -0.304965,0.188477 -0.554483,0.06049 -0.554483,-0.284427 0,-0.344912 -0.252408,-0.471117 -0.560907,-0.280453 -0.3085,0.190663 -0.560908,0.130061 -0.560908,-0.134671 0,-2.1744819 -12.784848,-2.5979451 -18.075612,-0.5987055 -1.275414,0.4819455 -1.434855,0.7533205 -0.961854,1.6371305 0.311842,0.582682 0.699205,1.059422 0.860808,1.059422 0.161602,0 0.113722,-0.291408 -0.1064,-0.647572 z"
         id="path79" />
      <path
         style="fill:#b9b9b9;fill-opacity:1;stroke-width:0.560908"
         d="m 19.397815,90.754629 c 0,-0.118267 0.505165,-0.347134 1.122589,-0.508597 0.617424,-0.161457 0.98114,-0.0647 0.808258,0.215035 -0.301909,0.4885 -1.930847,0.736158 -1.930847,0.293562 z m -3.882072,-8.525772 c 0.02691,-0.65343 0.159826,-0.786337 0.338882,-0.338884 0.16203,0.404903 0.142103,0.888685 -0.04428,1.075075 -0.186385,0.186384 -0.318955,-0.144905 -0.2946,-0.736191 z M 70.690086,74.5205 c 0.07785,-0.670683 1.028116,-2.940541 2.111705,-5.044124 l 1.97016,-3.8247 0.353293,2.209359 c 0.19431,1.215145 0.737274,2.528033 1.206585,2.917533 0.987315,0.819396 0.527264,1.589169 -2.043953,3.420039 -2.372599,1.689442 -3.771049,1.814558 -3.59779,0.321893 z M 31.51062,72.522116 c -0.587687,-0.651321 -1.408014,-1.184217 -1.822949,-1.184217 -0.414935,0 -0.754428,-0.225002 -0.754428,-0.500004 0,-0.595145 -4.084519,-2.304533 -5.506591,-2.304533 -3.304112,0 -10.230914,-12.851886 -10.159397,-18.849596 0.08136,-6.823566 1.64591,-5.329495 6.109873,5.834652 1.150289,2.876812 9.728939,10.466174 14.32383,12.67201 6.70772,3.220126 7.207331,4.660806 1.808529,5.215066 -2.496169,0.256262 -3.088662,0.12538 -3.998867,-0.883378 z m -3.72132,-5.15192 c -1.27384,-2.380189 -4.465132,-3.576032 -4.465132,-1.673176 0,1.343935 1.831989,2.696115 3.652815,2.696115 1.142149,0 1.272157,-0.163718 0.812317,-1.022939 z m 34.23749,-3.816505 c 0,-1.577777 1.086517,-4.859754 2.336741,-7.058445 2.220319,-3.904734 3.274881,-6.229148 3.292213,-7.25651 0.02451,-1.453072 1.14428,-3.374962 2.073665,-3.559071 0.988868,-0.195893 1.334533,1.831542 1.027459,6.026469 -0.484282,6.615754 -1.385812,8.949093 -4.521353,11.702137 -2.603688,2.286062 -4.208725,2.341519 -4.208725,0.14542 z M 36.533608,59.487968 c -3.619103,-0.84795 -7.883997,-6.124535 -8.497924,-10.513748 -0.473025,-3.381843 1.142156,-3.100698 4.669753,0.812837 2.239117,2.484088 3.32614,3.237687 5.273462,3.655927 1.349122,0.28976 2.957766,0.761722 3.574765,1.048802 0.616998,0.287082 1.626632,0.600658 2.24363,0.696837 1.737602,0.270861 1.712408,2.362118 -0.04511,3.744584 -1.605447,1.262845 -3.556473,1.412785 -7.218573,0.554761 z m 2.956932,-2.899243 c 0.150818,-0.791095 -0.113934,-0.965973 -1.235103,-0.815828 -1.735328,0.232392 -2.269874,0.701045 -1.753181,1.537071 0.588415,0.952075 2.769641,0.425621 2.988284,-0.721243 z m 13.368209,-3.103807 c -1.394481,-1.540884 -1.186029,-3.375446 0.429609,-3.780946 2.294663,-0.575923 3.395095,-0.07937 3.590567,1.620197 0.332833,2.893873 -2.149351,4.227987 -4.020176,2.160749 z m -3.969841,-27.09687 c -0.735619,-0.196735 -2.371473,-0.280582 -3.635232,-0.186327 -1.263758,0.09426 -2.297743,-0.07519 -2.297743,-0.376539 0,-0.30135 -0.223712,-0.409648 -0.497138,-0.240661 -0.273426,0.168986 -0.618077,-0.155224 -0.765892,-0.720467 -0.673197,-2.574311 7.700796,-3.453058 11.506749,-1.207491 2.024988,1.194772 2.728749,2.247823 1.502237,2.247823 -0.326706,0 -0.413911,-0.291408 -0.193789,-0.647572 0.253731,-0.410545 0.153224,-0.494921 -0.274588,-0.230518 -0.443291,0.273969 -0.489389,0.640472 -0.134362,1.068253 0.606932,0.731309 -2.845934,0.925812 -5.210242,0.293499 z M 37.941156,11.383182 c -0.473001,-0.88381 -0.31356,-1.155185 0.961854,-1.6371305 5.290764,-1.9992396 18.075612,-1.5757764 18.075612,0.5987055 0,0.264732 0.252408,0.325334 0.560908,0.134671 0.308499,-0.190664 0.560907,-0.06446 0.560907,0.280453 0,0.344913 0.249518,0.472904 0.554483,0.284425 0.319886,-0.1977 0.410829,0.03167 0.214949,0.542121 -0.28018,0.730137 -0.493981,0.759743 -1.223061,0.169359 -0.639773,-0.518067 -0.770354,-0.526932 -0.473312,-0.03214 0.493243,0.821619 -16.787888,0.747921 -18.090354,-0.07715 -0.54165,-0.343117 -0.66275,-0.296709 -0.387578,0.148528 0.220122,0.356166 0.268002,0.647574 0.1064,0.647574 -0.161603,0 -0.548966,-0.47674 -0.860808,-1.059422 z"
         id="path77" />
      <path
         style="fill:#a3a3a3;fill-opacity:1;stroke-width:0.560908"
         d="M 18.115288,94.671688 C 7.7559425,91.837719 5.1073014,78.054521 13.667414,71.525506 c 7.707339,-5.878586 18.729755,-1.761446 20.8458,7.786407 2.096443,9.459414 -6.959328,17.941863 -16.397926,15.359775 z m 7.076034,-4.467118 c 2.391185,-0.9991 4.725946,-3.819551 5.184295,-6.262763 1.658386,-8.839954 -8.668295,-14.484485 -14.970145,-8.182638 -6.9175848,6.917589 0.74193,18.224196 9.78585,14.445401 z M 20.51963,89.463628 c 0,-0.500453 -1.009634,-1.842004 -2.243631,-2.981224 -4.26807,-3.940258 -2.216044,-10.096336 3.365446,-10.096336 6.26858,0 7.728082,7.981978 2.231374,12.203329 -2.11314,1.622846 -3.353189,1.946147 -3.353189,0.874231 z m 3.951057,-21.873545 c -1.262584,-0.884349 -1.565083,-2.983074 -0.429963,-2.983074 1.002876,0 3.095173,1.542293 3.748576,2.763187 0.697712,1.30369 -1.557894,1.453138 -3.318613,0.219887 z M 36.502256,57.309968 c -0.516693,-0.836026 0.01785,-1.304679 1.753181,-1.537071 1.121169,-0.150145 1.385921,0.02473 1.235103,0.815828 -0.218643,1.146864 -2.399869,1.673318 -2.988284,0.721243 z"
         id="path75" />
    </g>
  </g>
</svg>
