<?xml version="1.0" encoding="UTF-8" standalone="no"?>
<!-- Created with Inkscape (http://www.inkscape.org/) -->

<svg
   width="100mm"
   height="100mm"
   viewBox="0 0 100 100"
   version="1.1"
   id="svg2370"
   inkscape:version="1.1.1 (3bf5ae0d25, 2021-09-20)"
   sodipodi:docname="add_list_type_device_6104.svg"
   xmlns:inkscape="http://www.inkscape.org/namespaces/inkscape"
   xmlns:sodipodi="http://sodipodi.sourceforge.net/DTD/sodipodi-0.dtd"
   xmlns="http://www.w3.org/2000/svg"
   xmlns:svg="http://www.w3.org/2000/svg">
  <sodipodi:namedview
     id="namedview2372"
     pagecolor="#505050"
     bordercolor="#ffffff"
     borderopacity="1"
     inkscape:pageshadow="0"
     inkscape:pageopacity="0"
     inkscape:pagecheckerboard="1"
     inkscape:document-units="mm"
     showgrid="false"
     inkscape:zoom="0.58974467"
     inkscape:cx="397.62971"
     inkscape:cy="350.99936"
     inkscape:window-width="1440"
     inkscape:window-height="890"
     inkscape:window-x="-6"
     inkscape:window-y="-6"
     inkscape:window-maximized="1"
     inkscape:current-layer="layer1" />
  <defs
     id="defs2367" />
  <g
     inkscape:label="Laag 1"
     inkscape:groupmode="layer"
     id="layer1">
    <g
       id="g2386"
       transform="translate(-0.4486423,-0.897281)">
      <path
         style="fill:#d0d0d0;fill-opacity:1;stroke-width:0.605218"
         d="m 18.8608,94.037864 c 0.209081,-0.338299 0.633676,-0.458404 0.943545,-0.266889 0.839464,0.518811 0.682935,0.881978 -0.380146,0.881978 -0.51895,0 -0.772479,-0.27679 -0.563399,-0.615089 z m -4.622433,-4.680567 c -0.752813,-0.959911 -0.731406,-0.981318 0.228503,-0.228506 0.582522,0.456849 1.059131,0.933458 1.059131,1.059131 0,0.498119 -0.496996,0.177517 -1.287634,-0.830625 z M 9.5693844,84.969468 c 0,-0.832174 0.1373681,-1.172609 0.3052634,-0.756522 0.1678942,0.416087 0.1678942,1.096957 0,1.513045 -0.1678953,0.416087 -0.3052634,0.07565 -0.3052634,-0.756523 z m 18.7617516,0 c 0,-0.832174 0.137368,-1.172609 0.305263,-0.756522 0.167895,0.416087 0.167895,1.096957 0,1.513045 -0.167895,0.416087 -0.305263,0.07565 -0.305263,-0.756523 z m 12.462708,-8.294951 c 0.748957,-0.14426 1.974523,-0.14426 2.72348,0 0.748957,0.144254 0.136174,0.262283 -1.36174,0.262283 -1.497914,0 -2.110697,-0.118029 -1.36174,-0.262283 z M 18.400786,75.490378 c 0.416087,-0.167893 1.096957,-0.167893 1.513044,0 0.416087,0.167894 0.07565,0.305266 -0.756522,0.305266 -0.832174,0 -1.172609,-0.137372 -0.756522,-0.305266 z m 22.393058,-0.631514 c 0.748957,-0.14426 1.974523,-0.14426 2.72348,0 0.748957,0.144253 0.136174,0.262283 -1.36174,0.262283 -1.497914,0 -2.110697,-0.11803 -1.36174,-0.262283 z M 85.779046,52.539883 c 0.02905,-0.705045 0.17245,-0.848455 0.365648,-0.365653 0.174829,0.436892 0.153332,0.958892 -0.04775,1.160001 -0.201114,0.201108 -0.344151,-0.156348 -0.317872,-0.794348 z m 0,-4.236525 c 0.02905,-0.705044 0.17245,-0.848455 0.365648,-0.365652 0.174829,0.436891 0.153332,0.958892 -0.04775,1.160001 -0.201114,0.201108 -0.344151,-0.156349 -0.317872,-0.794349 z M 23.99905,24.7503 c 0.781787,-0.832175 1.557606,-1.513045 1.724041,-1.513045 0.166434,0 -0.337036,0.68087 -1.118823,1.513045 -0.781787,0.832174 -1.557605,1.513044 -1.72404,1.513044 -0.166435,0 0.337035,-0.68087 1.118822,-1.513044 z m 51.36631,-0.151305 c -0.752812,-0.959909 -0.731406,-0.981316 0.228506,-0.228503 1.008141,0.790638 1.328743,1.287634 0.830625,1.287634 -0.125674,0 -0.602283,-0.476609 -1.059131,-1.059131 z"
         id="path2398" />
      <path
         style="fill:#b9b9b9;fill-opacity:1;stroke-width:0.605218"
         d="m 16.736437,94.420931 c 0,-0.127611 0.545072,-0.374558 1.211271,-0.548776 0.666199,-0.174212 1.058647,-0.06981 0.872108,0.232023 -0.325759,0.52709 -2.083379,0.794312 -2.083379,0.316753 z m 16.38866,-7.988851 c 0.02904,-0.705048 0.172451,-0.848455 0.365653,-0.365654 0.17483,0.436888 0.153328,0.958889 -0.04778,1.160002 -0.201109,0.201108 -0.344152,-0.156352 -0.317873,-0.794348 z M 12.595473,84.969468 c 0,-0.832174 0.137368,-1.172609 0.305264,-0.756522 0.167894,0.416087 0.167894,1.096957 0,1.513045 -0.167896,0.416087 -0.305264,0.07565 -0.305264,-0.756523 z m 12.709574,0 c 0,-0.832174 0.137368,-1.172609 0.305263,-0.756522 0.167895,0.416087 0.167895,1.096957 0,1.513045 -0.167895,0.416087 -0.305263,0.07565 -0.305263,-0.756523 z m 7.82005,-1.563477 c 0.02904,-0.705048 0.172451,-0.848455 0.365653,-0.365654 0.17483,0.436888 0.153328,0.958889 -0.04778,1.160003 -0.201109,0.201107 -0.344152,-0.156352 -0.317873,-0.794349 z M 18.400786,78.516467 c 0.416087,-0.167893 1.096957,-0.167893 1.513044,0 0.416087,0.167893 0.07565,0.305266 -0.756522,0.305266 -0.832174,0 -1.172609,-0.137373 -0.756522,-0.305266 z m -1.17261,-7.880438 c 0.436892,-0.174829 0.958892,-0.153332 1.160001,0.04775 0.201109,0.201114 -0.156348,0.344151 -0.794348,0.317872 -0.705044,-0.02905 -0.848455,-0.17245 -0.365653,-0.365648 z m 3.026089,0 c 0.436892,-0.174829 0.958892,-0.153332 1.160001,0.04775 0.201109,0.201114 -0.156348,0.344151 -0.794348,0.317872 -0.705044,-0.02905 -0.848455,-0.17245 -0.365653,-0.365648 z M 15.374697,58.54428 c 0.416087,-0.167895 1.096957,-0.167895 1.513044,0 0.416088,0.167895 0.07565,0.305263 -0.756522,0.305263 -0.832174,0 -1.172609,-0.137368 -0.756522,-0.305263 z m 4.744471,-0.116966 c -0.176006,-0.284784 0.352617,-0.389209 1.174717,-0.232054 0.822102,0.157154 1.49473,0.39016 1.49473,0.51779 0,0.468287 -2.359527,0.215725 -2.669447,-0.285736 z m 51.351404,-29.894403 -1.77758,-1.966958 1.966958,1.77758 c 1.833483,1.656953 2.245146,2.156335 1.777579,2.156335 -0.104158,0 -0.989289,-0.885131 -1.966957,-1.966957 z M 22.183397,22.934646 c 0.781787,-0.832174 1.557605,-1.513044 1.72404,-1.513044 0.166435,0 -0.337035,0.68087 -1.118822,1.513044 -0.781787,0.832175 -1.557606,1.513045 -1.724041,1.513045 -0.166434,0 0.337036,-0.68087 1.118823,-1.513045 z"
         id="path2396" />
      <path
         style="fill:#a3a3a3;fill-opacity:1;stroke-width:0.605218"
         d="M 15.352594,98.647427 C 4.0277065,95.549317 1.274955,80.473735 10.786597,73.641517 c 6.622034,-4.756613 15.71737,-3.163419 20.146153,3.528928 7.136398,10.783824 -3.097949,24.891695 -15.580156,21.476982 z m 7.635022,-4.820009 c 6.218381,-2.5982 7.734293,-10.750544 2.89829,-15.586549 -3.925776,-3.925775 -9.53142,-3.925775 -13.457196,0 -7.4844563,7.484456 0.773869,19.675001 10.558906,15.586549 z m -5.040744,-0.741755 c 0,-0.571731 -1.089392,-2.045237 -2.420871,-3.274452 -2.090666,-1.930094 -2.420871,-2.584171 -2.420871,-4.795328 0,-5.5597 6.416954,-8.247799 10.335258,-4.329492 3.421387,3.421387 1.866977,9.301967 -3.213554,12.157384 -2.061118,1.158411 -2.279962,1.181628 -2.279962,0.241888 z m 61.779996,-15.73185 c 0.02905,-0.705048 0.172451,-0.848454 0.365648,-0.365654 0.174829,0.436889 0.153332,0.958889 -0.04775,1.160003 -0.201113,0.201108 -0.344151,-0.156352 -0.317872,-0.794349 z M 64.548641,76.868907 c 0,-0.945623 1.617584,-1.787819 2.059732,-1.07241 0.155565,0.25171 -0.244236,0.78682 -0.888442,1.189132 -0.949029,0.592678 -1.17129,0.570533 -1.17129,-0.116722 z m 0.605218,-2.416647 c 0,-0.125673 0.414756,-0.572717 0.92168,-0.993428 0.770654,-0.639583 0.859216,-0.602144 0.540466,0.228506 -0.325541,0.848351 -1.462146,1.442972 -1.462146,0.764922 z m 13.920009,-3.4028 c 0,-0.33287 0.288423,-0.605218 0.640938,-0.605218 0.352515,0 0.472614,0.272348 0.266889,0.605218 -0.205726,0.332869 -0.494149,0.605217 -0.640938,0.605217 -0.14679,0 -0.266889,-0.272348 -0.266889,-0.605217 z M 91.226006,54.355536 c 0.02905,-0.705044 0.17245,-0.848455 0.365648,-0.365653 0.174829,0.436892 0.153332,0.958892 -0.04775,1.160001 -0.201114,0.201109 -0.344151,-0.156348 -0.317872,-0.794348 z m -2.274941,-3.883481 c 0,-2.163653 0.109847,-3.048784 0.244102,-1.966958 0.134249,1.081827 0.134249,2.852089 0,3.933916 -0.134255,1.081827 -0.244102,0.196696 -0.244102,-1.966958 z m -78.085444,0 c 0,-1.830784 0.113458,-2.579741 0.252128,-1.664349 0.13867,0.915392 0.13867,2.413306 0,3.328698 -0.13867,0.915392 -0.252128,0.166435 -0.252128,-1.664349 z m 5.44696,0 c 0,-1.830784 0.113458,-2.579741 0.252128,-1.664349 0.13867,0.915392 0.13867,2.413306 0,3.328698 -0.13867,0.915392 -0.252128,0.166435 -0.252128,-1.664349 z m 5.44696,0 c 0,-1.830784 0.113458,-2.579741 0.252128,-1.664349 0.13867,0.915392 0.13867,2.413306 0,3.328698 -0.13867,0.915392 -0.252128,0.166435 -0.252128,-1.664349 z m 69.466465,-3.98435 c 0.02905,-0.705044 0.17245,-0.848455 0.365648,-0.365653 0.174829,0.436892 0.153332,0.958892 -0.04775,1.160001 -0.201114,0.201109 -0.344151,-0.156348 -0.317872,-0.794348 z m -21.590515,-16.139141 -1.152934,-1.36174 1.36174,1.152933 c 1.279697,1.083471 1.637259,1.570547 1.152934,1.570547 -0.114846,0 -0.727629,-0.612783 -1.36174,-1.36174 z M 30.353837,29.894651 c 0.602486,-0.66574 1.231603,-1.210436 1.398038,-1.210436 0.166435,0 -0.190334,0.544696 -0.79282,1.210436 -0.602486,0.665739 -1.231603,1.210435 -1.398038,1.210435 -0.166435,0 0.190334,-0.544696 0.79282,-1.210435 z m 35.074101,-2.89492 c -1.528314,-1.281647 -1.205346,-4.172049 0.331139,-2.963499 0.499305,0.392737 0.918563,1.463025 0.931684,2.378416 0.01313,0.915392 0.01313,1.655289 0,1.644214 -0.01313,-0.01108 -0.58139,-0.487683 -1.262823,-1.059131 z M 35.266043,26.15672 c 0.274855,-0.440662 0.58258,-1.334076 0.683833,-1.985366 0.175979,-1.13194 1.152739,-2.115508 2.120488,-2.135267 0.94701,-0.01934 0.400307,1.187269 -0.838288,1.850145 -0.809468,0.433214 -1.04458,0.844602 -0.629359,1.101223 0.422068,0.260852 0.208923,0.693135 -0.586785,1.190062 -1.030411,0.643503 -1.16196,0.639855 -0.749889,-0.0208 z m 44.335841,-0.952507 c -0.752812,-0.959909 -0.731405,-0.981316 0.228506,-0.228503 1.008142,0.790638 1.328744,1.287634 0.830625,1.287634 -0.125673,0 -0.602282,-0.476609 -1.059131,-1.059131 z M 68.785166,22.741895 c -1.511598,-1.158106 -2.062915,-2.012572 -1.925016,-2.983489 0.162083,-1.141188 0.381668,-1.259746 1.36174,-0.735228 0.642674,0.343947 1.168494,1.207114 1.168494,1.918149 0,0.711035 0.450729,1.790845 1.001629,2.399577 1.355313,1.497606 0.915924,1.333809 -1.606847,-0.599009 z M 47.451239,22.231213 c 0.416087,-0.167895 1.096957,-0.167895 1.513045,0 0.416087,0.167895 0.07565,0.305263 -0.756523,0.305263 -0.832174,0 -1.172609,-0.137368 -0.756522,-0.305263 z m 3.631307,0 c 0.416087,-0.167895 1.096957,-0.167895 1.513044,0 0.416087,0.167895 0.07565,0.305263 -0.756522,0.305263 -0.832174,0 -1.172609,-0.137368 -0.756522,-0.305263 z M 23.99905,21.193099 c 0,-0.125677 0.476609,-0.602286 1.059131,-1.059131 0.95991,-0.752813 0.981316,-0.731407 0.228503,0.228503 -0.790637,1.00814 -1.287634,1.328743 -1.287634,0.830628 z m 9.078267,-0.39571 c 0,-0.322422 0.408522,-0.586223 0.907827,-0.586223 0.499304,0 0.907826,0.107036 0.907826,0.237857 0,0.130822 -0.408522,0.394622 -0.907826,0.586223 -0.499305,0.191602 -0.907827,0.08457 -0.907827,-0.237857 z m 41.399916,-0.737527 -1.152934,-1.36174 1.36174,1.152932 c 1.279697,1.083472 1.637259,1.570548 1.152934,1.570548 -0.114846,0 -0.727629,-0.612783 -1.36174,-1.36174 z M 35.942014,19.530848 c 0.41054,-0.413617 0.898894,-0.599572 1.085233,-0.413233 0.186339,0.186339 -0.149556,0.524753 -0.746435,0.752031 -0.862555,0.328443 -0.932073,0.258925 -0.338798,-0.338798 z m 41.238999,-0.378813 c -0.752812,-0.959909 -0.731406,-0.981316 0.228506,-0.228503 0.582522,0.456845 1.059131,0.933454 1.059131,1.059131 0,0.498115 -0.496999,0.177512 -1.287637,-0.830628 z M 33.682535,18.744352 c 0,-0.459605 0.8009,-1.114841 1.779778,-1.45608 1.39532,-0.486411 1.714968,-0.45154 1.47975,0.161427 -0.165015,0.430023 -0.965915,1.085259 -1.779778,1.45608 -1.180584,0.53791 -1.47975,0.505274 -1.47975,-0.161427 z m 37.184168,-1.135039 c -1.410133,-1.014036 -1.771369,-1.655621 -1.513044,-2.687298 0.329904,-1.317571 0.381384,-1.325981 1.852378,-0.302609 0.975762,0.678838 1.521517,1.643638 1.536902,2.716976 0.01313,0.915392 0.01313,1.650993 0,1.634671 -0.01313,-0.01632 -0.85743,-0.629107 -1.876236,-1.36174 z m -23.415464,-0.82506 c 0.416087,-0.167895 1.096957,-0.167895 1.513045,0 0.416087,0.167895 0.07565,0.305263 -0.756523,0.305263 -0.832174,0 -1.172609,-0.137368 -0.756522,-0.305263 z m 3.631307,0 c 0.416087,-0.167895 1.096957,-0.167895 1.513044,0 0.416087,0.167895 0.07565,0.305263 -0.756522,0.305263 -0.832174,0 -1.172609,-0.137368 -0.756522,-0.305263 z m -20.29609,-0.532696 c 0.237941,-0.239837 0.142682,-0.97782 -0.211686,-1.639963 -0.46456,-0.868039 -0.45862,-1.089135 0.02129,-0.792532 0.366082,0.22625 0.665602,0.166657 0.665602,-0.132427 0,-0.709237 3.069862,-2.106483 3.55726,-1.619086 0.206114,0.206114 -0.128701,0.742887 -0.744033,1.192828 -0.615331,0.449941 -0.963878,1.068719 -0.774548,1.375061 0.18933,0.306343 -0.396181,0.893406 -1.301135,1.304587 -0.904954,0.411179 -1.450692,0.551369 -1.212752,0.311532 z m 22.754787,-1.900784 c 0.436892,-0.174829 0.958892,-0.153328 1.160001,0.04778 0.201108,0.201109 -0.156348,0.344152 -0.794348,0.317873 -0.705045,-0.02904 -0.848455,-0.172451 -0.365653,-0.365653 z M 36.547232,13.47867 c 0.41054,-0.413616 0.898894,-0.599571 1.085233,-0.413233 0.186339,0.186339 -0.149557,0.524753 -0.746435,0.752031 -0.862555,0.328443 -0.932073,0.258925 -0.338798,-0.338798 z m 10.612917,-2.159963 c 0.588857,-0.153449 1.405901,-0.143357 1.815653,0.02242 0.409752,0.165786 -0.07204,0.291335 -1.07065,0.279001 -0.998609,-0.01233 -1.333861,-0.147975 -0.745003,-0.301424 z m 3.922397,0.01859 c 0.416087,-0.167895 1.096957,-0.167895 1.513044,0 0.416087,0.167895 0.07565,0.305263 -0.756522,0.305263 -0.832174,0 -1.172609,-0.137368 -0.756522,-0.305263 z m 2.458697,-2.4334795 c 0.436892,-0.1748299 0.958892,-0.1533283 1.160001,0.047782 0.201108,0.201109 -0.156348,0.3441517 -0.794348,0.3178725 C 53.201851,9.240434 53.058441,9.0970206 53.541243,8.9038194 Z"
         id="path2394" />
      <path
         style="fill:#8c8c8c;fill-opacity:1;stroke-width:0.605218"
         d="m 62.732988,88.659984 c 0,-0.735013 0.656431,-1.380066 1.815653,-1.784176 1.617705,-0.56393 1.815654,-0.502773 1.815654,0.560994 0,0.72473 -0.610096,1.425893 -1.552444,1.78417 -2.052064,0.780192 -2.078863,0.77296 -2.078863,-0.560988 z m 0,-5.500419 c 0,-0.700219 0.730571,-1.562897 1.785598,-2.10847 2.267067,-1.172343 2.450926,-1.159216 2.450926,0.174974 0,0.659361 -0.846614,1.50206 -2.118262,2.10847 -2.043596,0.974522 -2.118262,0.968355 -2.118262,-0.174974 z m 17.435126,-5.559882 c -0.131532,-0.872512 0.626031,-2.668714 1.996849,-4.73457 5.016185,-7.559497 6.856966,-13.571014 6.856966,-22.393058 0,-11.199408 -3.63475,-19.797846 -11.863569,-28.064682 -4.0889,-4.107794 -5.676913,-6.432731 -4.393772,-6.432731 1.098615,0 7.417361,5.711731 9.990844,9.031073 6.003458,7.743397 8.614228,15.461657 8.614228,25.46634 0,9.815161 -2.63648,17.77633 -8.304042,25.075026 -2.391058,3.079215 -2.708803,3.304301 -2.897504,2.052602 z M 62.732988,77.06967 c 0,-0.731969 0.652867,-1.493194 1.664349,-1.940583 0.915392,-0.40489 1.996123,-1.148013 2.401625,-1.651373 0.622509,-0.772754 0.740266,-0.652019 0.756522,0.775672 0.0115,1.010042 -0.285366,1.651324 -0.737276,1.592636 -1.566945,-0.203474 -2.269567,0.07152 -2.269567,0.888254 0,0.463694 -0.408522,0.999838 -0.907826,1.191444 -0.619538,0.237736 -0.907827,-0.03413 -0.907827,-0.85605 z m 16.339143,-7.684559 c -0.0024,-1.652505 3.071026,-8.669398 4.956849,-11.315759 2.108161,-2.958361 2.138724,-2.151719 0.143781,3.795131 -2.224696,6.631738 -5.095141,10.864062 -5.10063,7.520628 z M 10.732039,54.355536 c 0.02904,-0.705044 0.172452,-0.848455 0.365653,-0.365653 0.17483,0.436892 0.153328,0.958892 -0.04778,1.160001 -0.201109,0.201109 -0.344152,-0.156348 -0.317873,-0.794348 z m 9.70591,-0.151304 c -0.0848,-1.705721 1.371477,-1.47487 1.589006,0.251891 0.136219,1.081316 0.110878,1.077903 -0.372335,-0.05015 l -0.518502,-1.210435 -0.313981,1.210435 c -0.278159,1.072335 -0.321991,1.049318 -0.384188,-0.201739 z M 8.4038004,52.892926 c 0,-1.165044 0.1245508,-1.641653 0.27678,-1.059131 0.1522286,0.582522 0.1522286,1.53574 0,2.118262 -0.1522292,0.582522 -0.27678,0.105913 -0.27678,-1.059131 z m 5.4469596,0 c 0,-1.165044 0.124551,-1.641653 0.27678,-1.059131 0.152229,0.582522 0.152229,1.53574 0,2.118262 -0.152229,0.582522 -0.27678,0.105913 -0.27678,-1.059131 z m 5.424535,-0.302609 c 0.01233,-0.998609 0.147974,-1.333861 0.301424,-0.745003 0.153448,0.588857 0.143357,1.405901 -0.02242,1.815653 -0.165785,0.409752 -0.291335,-0.07204 -0.279,-1.07065 z M 8.4038004,48.051184 c 0,-1.165044 0.1245508,-1.641653 0.27678,-1.059131 0.1522286,0.582522 0.1522286,1.53574 0,2.118262 -0.1522292,0.582522 -0.27678,0.105913 -0.27678,-1.059131 z m 5.4469596,0 c 0,-1.165044 0.124551,-1.641653 0.27678,-1.059131 0.152229,0.582522 0.152229,1.53574 0,2.118262 -0.152229,0.582522 -0.27678,0.105913 -0.27678,-1.059131 z m 5.424535,0.302609 c 0.01233,-0.998609 0.147974,-1.333861 0.301424,-0.745004 0.153448,0.588857 0.143357,1.405901 -0.02242,1.815653 -0.165785,0.409752 -0.291335,-0.07204 -0.279,-1.070649 z m -9.4554684,-1.36174 c 0.3012584,-0.249652 0.7510004,-0.726261 0.9994284,-1.059131 0.257767,-0.345383 0.455666,-0.150508 0.460954,0.453913 0.0051,0.588751 -0.438713,1.059131 -0.999429,1.059131 -0.5547821,0 -0.7622115,-0.204261 -0.4609534,-0.453913 z M 83.865964,42.716215 c -0.859476,-1.226639 -2.037599,-3.455819 -2.618051,-4.953733 -1.595039,-4.116155 -4.14576,-7.7821 -8.198334,-11.782802 -2.012555,-1.986798 -3.659195,-4.110579 -3.659195,-4.719512 0,-0.965002 0.33762,-0.874862 2.629598,0.702061 5.212838,3.586526 9.832798,10.106488 12.198316,17.215003 0.868173,2.608896 1.495662,4.97425 1.394428,5.256341 -0.101241,0.282092 -0.88728,-0.490719 -1.746762,-1.717358 z M 21.790005,41.363528 c 0.169134,-0.930235 1.226589,-0.833167 1.483468,0.136174 0.167734,0.632947 0.09072,0.628082 -0.36552,-0.02309 -0.407501,-0.58161 -0.67553,-0.621784 -0.908511,-0.136174 -0.213718,0.445458 -0.287714,0.453616 -0.209437,0.02309 z m -3.843133,-2.96011 c 0,-0.313225 0.269229,-0.735892 0.598286,-0.939261 0.343074,-0.212031 0.444537,0.0309 0.237857,0.5695 -0.402343,1.048489 -0.836143,1.240325 -0.836143,0.369761 z M 76.230773,37.723163 C 75.499246,37.446266 74.47624,36.398862 73.957436,35.395598 73.438625,34.392334 71.51793,32.06326 69.689222,30.219877 c -3.080189,-3.104905 -4.167645,-5.166969 -2.72486,-5.166969 1.143959,0 8.311982,7.577938 9.644515,10.196047 0.736447,1.446953 1.251911,2.708861 1.145471,2.80424 -0.10644,0.09538 -0.792048,-0.05314 -1.523575,-0.330032 z M 12.172418,36.51178 c -0.219412,-0.355015 -0.235485,-0.808929 -0.03572,-1.008696 0.199767,-0.199767 0.363212,-0.0294 0.363212,0.378593 0,0.407993 0.314429,0.547479 0.698729,0.309967 0.432913,-0.267554 0.534446,-0.166021 0.266892,0.266891 -0.535092,0.865795 -0.784583,0.876068 -1.293115,0.05325 z M 25.68819,33.543566 c -0.245191,-1.670598 0.120448,-2.253984 3.158028,-5.038699 1.889428,-1.732142 4.278743,-3.631609 5.309589,-4.221037 1.838204,-1.051069 1.872453,-1.047658 1.780179,0.177309 -0.08539,1.133575 -6.489976,6.709463 -6.489976,5.650229 0,-0.235242 -0.68087,0.211931 -1.513044,0.993718 -2.064879,1.939853 -1.927506,2.997244 0.151304,1.164629 l 1.664349,-1.467238 -1.503978,1.815654 c -0.827188,0.998609 -1.678393,2.040457 -1.891566,2.315218 -0.213173,0.27476 -0.512371,-0.350642 -0.664885,-1.389783 z m -4.567139,-1.926153 c 0.09916,-0.911367 -0.13131,-1.361015 -0.643304,-1.255082 -1.186922,0.245577 2.104939,-3.82498 5.483033,-6.780054 3.444851,-3.013471 7.721755,-5.56074 7.721755,-4.598977 0,0.821273 2.41106,-0.361976 3.360645,-1.649266 0.846811,-1.147967 9.476746,-3.1767 13.282844,-3.122543 1.664348,0.02368 2.685653,0.180426 2.269566,0.348322 -0.416087,0.167894 -0.756522,0.691089 -0.756522,1.162654 0,0.579291 -0.736152,0.87198 -2.269567,0.902366 -3.862768,0.07654 -12.59988,2.023904 -13.738443,3.062074 -0.316226,0.288342 -0.905873,0.524259 -1.310326,0.524259 -1.309118,0 -8.196597,6.068209 -11.228887,9.893203 -1.887309,2.380691 -2.296207,2.665693 -2.170794,1.513044 z m 4.088435,-4.936454 c 0,-0.332869 -0.544696,-0.112274 -1.210436,0.490212 -0.665739,0.602485 -1.210435,1.367777 -1.210435,1.700646 0,0.33287 0.544696,0.112275 1.210435,-0.490211 0.66574,-0.602486 1.210436,-1.367777 1.210436,-1.700647 z M 48.975802,15.577657 c -0.409752,-0.165783 -1.226796,-0.175874 -1.815653,-0.02242 -0.588858,0.153447 -0.253606,0.289087 0.745003,0.301421 0.99861,0.01234 1.480402,-0.113215 1.07065,-0.278998 z M 16.916883,28.30203 c 0.210201,-0.210201 0.119211,-0.873555 -0.202202,-1.474119 -0.476512,-0.890372 0.05808,-1.749784 2.896079,-4.655731 3.190241,-3.266625 6.99677,-6.215068 10.185502,-7.889437 1.073547,-0.563709 1.24548,-0.489601 1.172188,0.505241 -0.09148,1.241739 -6.537916,6.258144 -7.196206,5.599854 -0.435642,-0.435641 -3.4045,2.172309 -3.4045,2.990633 0,0.294491 0.311193,0.34311 0.69154,0.108042 0.380347,-0.235067 -0.232436,0.82763 -1.36174,2.36155 -1.129304,1.53392 -2.302933,2.799567 -2.608064,2.812549 -0.30513,0.01298 -0.382799,-0.14838 -0.172597,-0.358582 z m 44.303061,-3.854339 c -1.33148,-0.616366 -2.865731,-1.140864 -3.409448,-1.165551 -0.544298,-0.02471 -1.113622,-0.699018 -1.266818,-1.500414 -0.275473,-1.44104 -0.253583,-1.447877 2.199012,-0.686826 4.131314,1.281966 5.805951,2.277047 5.805951,3.449937 0,1.342469 -0.233553,1.335653 -3.328697,-0.09715 z M 37.6252,23.478749 c 0.934201,-0.865788 2.802208,-1.963554 4.151129,-2.43948 2.827383,-0.99756 12.312696,-1.804223 10.365348,-0.881505 -0.66574,0.315449 -1.706498,0.592686 -2.312797,0.616082 -0.606298,0.0234 -1.510882,0.45106 -2.010187,0.950365 -0.499305,0.499304 -1.576047,0.907826 -2.392761,0.907826 -0.816714,0 -3.034692,0.544696 -4.928841,1.210436 -4.497932,1.580896 -4.913394,1.528278 -2.871891,-0.363724 z m 14.741887,-1.905843 c -0.752813,-0.959909 -0.731406,-0.981316 0.228503,-0.228503 1.008141,0.790638 1.328743,1.287634 0.830628,1.287634 -0.125677,0 -0.602286,-0.476609 -1.059131,-1.059131 z m 11.428119,-1.873784 c -1.246567,-0.55055 -2.267872,-1.395905 -2.269567,-1.878566 -0.0024,-0.61369 -0.194439,-0.686213 -0.639465,-0.241188 -0.350007,0.350008 -1.271035,0.515056 -2.046727,0.366773 -1.058051,-0.202259 -1.33206,-0.568986 -1.096935,-1.468106 0.360577,-1.378848 1.586537,-1.218566 6.352216,0.83049 1.969385,0.846759 2.874784,1.593794 2.874784,2.371952 0,1.334682 -0.191962,1.33581 -3.174306,0.01865 z m 3.174306,-4.595609 c -0.832174,-0.452466 -2.942871,-1.289954 -4.690437,-1.861085 -2.393428,-0.782208 -3.177394,-1.329947 -3.177394,-2.219976 0,-1.382307 0.677375,-1.2657463 6.506091,1.11955 2.757221,1.128343 3.782612,1.85763 3.782612,2.690302 0,1.339565 -0.378056,1.381919 -2.420872,0.271209 z M 33.077317,14.461597 c 0,-0.679039 2.576795,-2.813257 4.109389,-3.403579 2.688443,-1.035531 10.317378,-2.3494599 13.343862,-2.2982094 1.55185,0.026279 2.479412,0.1857147 2.061251,0.3543011 -0.418161,0.1685858 -0.630663,0.5162641 -0.472228,0.772618 0.158435,0.2563543 -0.399827,0.3345993 -1.240582,0.1738793 -0.840756,-0.1607207 -2.398515,0.127081 -3.461687,0.639559 -1.063173,0.512478 -3.813286,1.265902 -6.111363,1.674276 -2.298077,0.408374 -4.885383,1.111455 -5.749569,1.562402 -1.644797,0.858285 -2.479073,1.034879 -2.479073,0.524753 z m 20.463926,-3.136912 c 0.436892,-0.17483 0.958892,-0.153329 1.160001,0.04778 0.201108,0.201109 -0.156348,0.344151 -0.794348,0.317872 -0.705045,-0.02904 -0.848455,-0.172451 -0.365653,-0.365653 z"
         id="path2392" />
      <path
         style="fill:#767676;fill-opacity:1;stroke-width:0.605218"
         d="M 9.159465,57.697648 C 8.2855874,54.944305 8.8372707,44.095022 10.075563,39.681851 c 1.30669,-4.656931 3.916956,-10.322399 5.8633,-12.726032 l 1.151557,-1.422112 -0.07749,1.726558 c -0.101451,2.260486 -1.470494,5.055257 -2.476361,5.055257 -1.112103,0 -2.904811,3.610458 -2.161691,4.353578 0.374108,0.374108 0.284083,1.577046 -0.251106,3.355344 -0.458863,1.524686 -0.834296,3.390288 -0.834296,4.145782 0,0.755495 -0.408522,1.782149 -0.907827,2.281454 -0.9989668,0.998967 -1.2305164,4.654688 -0.352398,5.56368 0.305486,0.316227 0.739117,1.829837 0.963625,3.363579 0.324156,2.214499 0.216183,2.862303 -0.524447,3.146509 -0.5953455,0.228456 -1.068742,-0.07092 -1.308964,-0.8278 z m 5.456264,-0.575903 c -0.654123,-2.060958 -0.428089,-11.652856 0.349572,-14.834359 0.926671,-3.791119 3.618458,-9.804758 5.276253,-11.787518 l 1.265065,-1.513044 -0.232648,1.924068 c -0.279496,2.311517 -2.50221,6.85159 -3.354379,6.85159 -0.817755,0 -1.971542,3.135366 -1.317809,3.581092 0.630418,0.429831 -0.512458,9.733699 -1.195676,9.733699 -0.266928,0 -0.485323,0.817044 -0.485323,1.815653 0,1.210436 0.302608,1.815654 0.907826,1.815654 0.605218,0 0.907827,0.605217 0.907827,1.815653 0,2.099012 -1.509192,2.524229 -2.120708,0.597512 z m 5.434491,-0.665421 c -1.382842,-6.296036 0.243569,-15.716948 3.719831,-21.546957 1.556274,-2.610014 1.748262,-2.751664 1.941369,-1.432347 0.248713,1.699217 -2.201326,7.310016 -3.113602,7.130418 -0.891166,-0.175441 -2.059149,3.970284 -1.199304,4.256899 0.798811,0.266271 0.297123,7.5331 -0.558622,8.091505 -0.894599,0.583757 0.137253,4.682246 1.253443,4.978646 0.703739,0.186876 0.610661,0.285681 -0.315764,0.335192 -1.001879,0.05354 -1.411836,-0.376825 -1.727351,-1.813356 z m 32.428282,-35.095377 -1.478829,-1.230821 2.684043,0.191825 c 1.98149,0.141613 2.73663,0.469054 2.884946,1.250955 0.282634,1.490009 -2.199815,1.361364 -4.09016,-0.211959 z m 0.722306,-4.602992 c -2.226867,-0.428913 -1.671945,-1.993749 0.707023,-1.993749 2.666118,0 3.983415,0.52177 3.983415,1.577796 0,0.836187 -1.717746,0.988519 -4.690438,0.415953 z m 2.470969,-5.194662 c -1.920647,-0.311236 -3.267278,-0.871554 -3.490088,-1.452189 -0.309153,-0.8056402 0.13074,-0.9044916 2.975292,-0.6685989 3.614471,0.2997402 4.160293,0.5564118 3.846895,1.8089969 -0.160028,0.639603 -0.888505,0.707769 -3.332099,0.311791 z"
         id="path2390" />
      <path
         style="fill:#333333;fill-opacity:1;stroke-width:0.605218"
         d="m 32.29598,91.172951 c 1.222517,-2.382852 1.438832,-3.560321 1.264108,-6.880933 -0.413961,-7.867329 -5.843501,-13.300853 -13.725328,-13.735412 -3.531773,-0.194716 -4.418224,-0.003 -7.486152,1.616707 l -3.4800022,1.83758 v -7.194569 c 0,-4.676154 0.2383166,-7.341854 0.6808204,-7.615336 0.3744506,-0.231424 12.0173278,-0.545174 25.8730598,-0.697225 20.479498,-0.224737 25.390502,-0.124401 26.252061,0.536357 0.950446,0.728927 1.062665,2.167042 1.087364,13.934973 l 0.02754,13.122162 1.788533,-0.623489 c 2.277187,-0.793828 2.509034,-1.206689 2.790756,-4.969546 0.349126,-4.6633 1.441726,-15.03338 1.734318,-16.460804 0.231375,-1.128773 0.662708,-1.248467 4.243896,-1.177669 2.192493,0.04333 4.121703,-0.140199 4.287133,-0.407874 0.746978,-1.208635 1.141532,-0.219464 1.194416,2.994448 0.03147,1.913384 0.218217,5.112964 0.414961,7.110183 0.196738,1.997219 0.547777,5.878178 0.780077,8.624353 l 0.42237,4.993047 h -6.693824 c -5.866146,0 -6.728042,0.130957 -6.970596,1.059131 -0.263602,1.008698 -0.280125,1.008698 -0.346989,0 -0.07999,-1.206744 -0.841253,-1.336872 -2.530863,-0.432622 -0.84966,0.454725 -1.170649,1.272622 -1.170649,2.982865 0,4.247932 -0.04178,4.258457 -16.907012,4.258457 H 30.821077 Z M 45.484281,75.891202 c 0,-0.640066 -0.78291,-0.9639 -2.654402,-1.09795 -2.752925,-0.197174 -4.147453,0.490166 -3.411257,1.681355 0.657669,1.064131 6.065659,0.543982 6.065659,-0.583405 z M 69.478237,61.356333 c -5.839976,-2.473012 -8.70196,-8.1516 -6.998823,-13.88668 1.637404,-5.513735 5.551021,-8.496736 11.147494,-8.496736 5.596473,0 9.51009,2.983001 11.147494,8.496736 2.121367,7.143403 -2.816798,13.908348 -10.445702,14.309904 -1.883897,0.09916 -4.066609,-0.09129 -4.850463,-0.423224 z m 6.802769,-6.121045 c 3.022125,-1.376973 3.639792,-7.211376 1.038796,-9.812371 -1.633108,-1.633108 -6.130971,-1.722233 -7.862227,-0.15579 -1.752971,1.586096 -2.563697,4.807344 -1.777513,7.062582 1.065244,3.055761 5.203257,4.45367 8.600944,2.905579 z m -4.371397,-3.479205 c -0.445211,-0.282199 -0.717559,-1.16316 -0.605218,-1.95769 0.251637,-1.77973 2.750642,-2.011771 3.769599,-0.350022 0.537403,0.876407 0.437015,1.268461 -0.503626,1.966958 -1.35737,1.007947 -1.566007,1.034667 -2.660755,0.340754 z"
         id="path2388" />
    </g>
  </g>
</svg>
