<?xml version="1.0" encoding="UTF-8" standalone="no"?>
<!-- Created with Inkscape (http://www.inkscape.org/) -->

<svg
   version="1.1"
   id="svg1666"
   width="216"
   height="216"
   viewBox="0 0 216 216"
   sodipodi:docname="add_list_type_device_7122.svg"
   inkscape:version="1.1.1 (3bf5ae0d25, 2021-09-20)"
   xmlns:inkscape="http://www.inkscape.org/namespaces/inkscape"
   xmlns:sodipodi="http://sodipodi.sourceforge.net/DTD/sodipodi-0.dtd"
   xmlns="http://www.w3.org/2000/svg"
   xmlns:svg="http://www.w3.org/2000/svg">
  <defs
     id="defs1670" />
  <sodipodi:namedview
     id="namedview1668"
     pagecolor="#505050"
     bordercolor="#ffffff"
     borderopacity="1"
     inkscape:pageshadow="0"
     inkscape:pageopacity="0"
     inkscape:pagecheckerboard="1"
     showgrid="false"
     inkscape:zoom="3.0648148"
     inkscape:cx="107.83686"
     inkscape:cy="108"
     inkscape:window-width="1440"
     inkscape:window-height="890"
     inkscape:window-x="-6"
     inkscape:window-y="-6"
     inkscape:window-maximized="1"
     inkscape:current-layer="g1672" />
  <g
     inkscape:groupmode="layer"
     inkscape:label="Image"
     id="g1672">
    <g
       id="g1676"
       transform="translate(11.746223,-1.6314194)">
      <path
         style="fill:#d0d0d0;fill-opacity:1"
         d="m 159.32007,168 c 0,-3.575 0.1815,-5.0375 0.40333,-3.25 0.22182,1.7875 0.22182,4.7125 0,6.5 -0.22183,1.7875 -0.40333,0.325 -0.40333,-3.25 z M 58.369965,98 c 0,-5.775 0.165274,-8.1375 0.367277,-5.25 0.202002,2.8875 0.202002,7.6125 0,10.5 -0.202003,2.8875 -0.367277,0.525 -0.367277,-5.25 z M 160.30987,67.5 c 0.006,-3.3 0.1923,-4.529441 0.41486,-2.732091 0.22256,1.79735 0.21797,4.49735 -0.0102,6 C 160.48635,72.270559 160.30426,70.8 160.30987,67.5 Z M 106.41836,40.647855 c -0.8286,-2.159304 -0.0895,-6.937571 1.13508,-7.33855 1.38539,-0.453623 1.83801,7.33073 0.47522,8.172981 -0.57353,0.354463 -1.29817,-0.02103 -1.6103,-0.834431 z M 107.68933,36.25 C 107.4378,35.2875 107.232,36.075 107.232,38 c 0,1.925 0.2058,2.7125 0.45733,1.75 0.25152,-0.9625 0.25152,-2.5375 0,-3.5 z m 4.28567,5.091667 C 112.53875,41.062083 113,39.269276 113,37.35765 c 0,-2.062479 -0.4066,-3.224393 -1,-2.85765 -0.55,0.339919 -1,0.141476 -1,-0.440983 C 111,33.476558 111.70087,33 112.5575,33 c 1.21026,0 1.48894,0.930176 1.25,4.172279 -0.17506,2.375297 -0.85664,4.281126 -1.5825,4.425 -0.70125,0.138997 -0.81375,0.02397 -0.25,-0.255612 z M 92,36.666667 C 92,34.1 92.40718,32 92.904843,32 c 0.814991,0 0.333848,7.909211 -0.54243,8.916667 C 92.163086,41.145833 92,39.233333 92,36.666667 Z m 9.07029,2.25 C 101.10894,37.5875 101.53985,35.6 102.02786,34.5 c 0.67804,-1.528351 0.81929,-1.116261 0.59894,1.747441 -0.32073,4.168225 -1.66727,6.477376 -1.55651,2.669226 z M 116,37.166667 C 116,34.875 116.42171,33 116.93713,33 c 0.51911,0 0.67901,1.672726 0.35846,3.75 C 116.49432,41.942528 116,42.101502 116,37.166667 Z M 127.04048,39 c -0.76048,-6.428933 -0.74298,-7.102498 0.16108,-6.19844 0.51419,0.514185 0.75483,2.681683 0.53476,4.816661 -0.27551,2.67292 -0.49221,3.103232 -0.69584,1.381779 z m 4.19152,-2 c 0,-1.925 0.2058,-2.7125 0.45733,-1.75 0.25152,0.9625 0.25152,2.5375 0,3.5 C 131.4378,39.7125 131.232,38.925 131.232,37 Z M 121,35 c 0,-1.1 0.40787,-2 0.90638,-2 0.49851,0 0.67103,0.9 0.38337,2 -0.28766,1.1 -0.69553,2 -0.90638,2 C 121.17252,37 121,36.1 121,35 Z M 88.078947,34.416667 c 0.04798,-1.164943 0.284941,-1.4019 0.604167,-0.604167 0.288871,0.721875 0.253344,1.584375 -0.07895,1.916667 -0.332292,0.332291 -0.568641,-0.258334 -0.52522,-1.3125 z M 101.5,26.268316 c -1.1,-0.274824 -2.330609,-1.010123 -2.734687,-1.633998 -0.526456,-0.81282 -0.739028,-0.780033 -0.75,0.115682 -0.0084,0.6875 -0.491871,1.25 -1.07433,1.25 -0.582459,0 -0.740578,-0.515245 -0.351375,-1.144989 C 97.078074,24.064656 96.4769,23.866843 94.648625,24.21634 93.191881,24.494814 92,24.370813 92,23.940783 c 0,-0.878027 5.820776,-2.444469 7.75,-2.085619 0.6875,0.12788 1.25,-0.124717 1.25,-0.561327 0,-0.43661 1.53203,-0.793837 3.40451,-0.793837 1.87248,0 3.17696,0.368178 2.89885,0.818174 -0.27811,0.449995 -1.12324,0.581185 -1.87806,0.291533 -0.75483,-0.289652 -1.72181,0.06368 -2.14885,0.785193 -0.42705,0.721508 -1.45145,1.604887 -2.27645,1.963064 -0.825,0.358177 -0.3375,0.500901 1.08333,0.317166 1.64988,-0.213355 2.58334,0.146323 2.58334,0.995402 0,0.731208 -0.2625,1.277267 -0.58334,1.213467 C 103.7625,26.820198 102.6,26.543141 101.5,26.268316 Z m 8.5,0.01083 c -1.375,-0.246672 -2.95,-0.892233 -3.5,-1.434581 -0.65844,-0.649282 -0.01,-0.741325 1.89915,-0.269481 2.06618,0.510714 2.69569,0.387388 2.19099,-0.429237 C 110.20064,23.515629 110.11769,23 110.4058,23 c 0.28811,0 1.0055,0.9 1.5942,2 0.5887,1.1 0.94203,1.938718 0.78518,1.863818 C 112.62833,26.788918 111.375,26.525814 110,26.279142 Z m 4.58928,-1.134685 c -0.29082,-0.470549 0.69513,-0.69348 2.19098,-0.495403 1.49586,0.198078 2.05278,0.06075 1.2376,-0.305171 C 116.51537,23.669441 114,21.440927 114,20.784233 c 0,-0.197243 0.9,-0.426419 2,-0.50928 1.1,-0.08286 2,0.271378 2,0.787196 C 118,21.577967 118.47656,22 119.05902,22 c 0.58246,0 0.79988,-0.41929 0.48316,-0.931756 -0.31672,-0.512466 0.66922,-0.359504 2.19098,0.339915 1.52176,0.699419 3.89184,1.784948 5.26684,2.412287 2.26176,1.03192 2.14264,1.084218 -1.25,0.548794 -2.78311,-0.439228 -3.75395,-0.240831 -3.76531,0.769469 C 121.97281,26.194389 121.75175,26.163249 121,25 c -0.64625,-1 -0.97448,-1.083333 -0.98469,-0.25 -0.0171,1.397682 -4.60009,1.730851 -5.42603,0.394457 z"
         id="path1692" />
      <path
         style="fill:#b9b9b9;fill-opacity:1"
         d="m 34.8125,215.31689 c 0.721875,-0.28887 1.584375,-0.25335 1.916667,0.0789 0.332291,0.33229 -0.258334,0.56864 -1.3125,0.52522 -1.164943,-0.048 -1.4019,-0.28494 -0.604167,-0.60416 z m 9,0 c 0.721875,-0.28887 1.584375,-0.25335 1.916667,0.0789 0.332291,0.33229 -0.258334,0.56864 -1.3125,0.52522 -1.164943,-0.048 -1.4019,-0.28494 -0.604167,-0.60416 z M 8.0789474,188.41667 c 0.047984,-1.16495 0.2849403,-1.4019 0.6041666,-0.60417 0.2888706,0.72187 0.2533443,1.58437 -0.078947,1.91667 -0.3322917,0.33229 -0.5686404,-0.25834 -0.5252196,-1.3125 z m 0,-9 c 0.047984,-1.16495 0.2849403,-1.4019 0.6041666,-0.60417 0.2888706,0.72187 0.2533443,1.58437 -0.078947,1.91667 -0.3322917,0.33229 -0.5686404,-0.25834 -0.5252196,-1.3125 z M 159.32814,155.5 c 0.004,-3.85 0.18518,-5.30246 0.40166,-3.2277 0.21647,2.07477 0.21284,5.22477 -0.008,7 -0.22091,1.77524 -0.39803,0.0777 -0.39359,-3.7723 z M 34.8125,152.31689 c 0.721875,-0.28887 1.584375,-0.25335 1.916667,0.0789 0.332291,0.33229 -0.258334,0.56864 -1.3125,0.52522 -1.164943,-0.048 -1.4019,-0.28494 -0.604167,-0.60416 z m 9,0 c 0.721875,-0.28887 1.584375,-0.25335 1.916667,0.0789 0.332291,0.33229 -0.258334,0.56864 -1.3125,0.52522 -1.164943,-0.048 -1.4019,-0.28494 -0.604167,-0.60416 z M 58.374067,77.5 c 0.0023,-6.05 0.166961,-8.396069 0.366011,-5.213487 0.19905,3.182582 0.197204,8.132582 -0.0041,11 C 58.53467,86.153931 58.371811,83.55 58.374067,77.5 Z M 160.29966,57 c 0,-3.025 0.18747,-4.2625 0.41659,-2.75 0.22913,1.5125 0.22913,3.9875 0,5.5 -0.22912,1.5125 -0.41659,0.275 -0.41659,-2.75 z m -57.4185,-18.218582 c 0.46036,-2.776922 0.60121,-2.917763 0.91609,-0.916083 0.20464,1.300934 -0.0402,2.777573 -0.544,3.281419 -0.55478,0.554777 -0.70153,-0.378117 -0.37209,-2.365336 z m 13.79434,2.531737 c 0.64653,-0.461509 1.37399,-2.633268 1.61658,-4.826131 0.43773,-3.956832 0.44018,-3.953536 0.32449,0.435255 -0.0794,3.012482 -0.59476,4.551026 -1.61657,4.826131 -1.03084,0.277539 -1.13234,0.141404 -0.3245,-0.435255 z M 121.15789,39 c 0,-1.375 0.22698,-1.9375 0.50439,-1.25 0.27741,0.6875 0.27741,1.8125 0,2.5 -0.27741,0.6875 -0.50439,0.125 -0.50439,-1.25 z m 5.03706,-0.5 c 0.0204,-1.65 0.2445,-2.203936 0.49804,-1.230968 0.25354,0.972967 0.23687,2.322967 -0.037,3 C 126.38201,40.946064 126.17457,40.15 126.19495,38.5 Z M 88.157895,38 c 0,-1.375 0.226973,-1.9375 0.504386,-1.25 0.277412,0.6875 0.277412,1.8125 0,2.5 -0.277413,0.6875 -0.504386,0.125 -0.504386,-1.25 z m 9.921052,-2.583333 c 0.04798,-1.164943 0.284941,-1.4019 0.604167,-0.604167 0.288871,0.721875 0.253344,1.584375 -0.07895,1.916667 -0.332292,0.332291 -0.568641,-0.258334 -0.52522,-1.3125 z m 3.000003,-1 c 0.048,-1.164943 0.28494,-1.4019 0.60416,-0.604167 0.28887,0.721875 0.25335,1.584375 -0.0789,1.916667 -0.3323,0.332291 -0.56864,-0.258334 -0.52522,-1.3125 z m 6.58772,-4.083334 C 106.73453,29.401201 106.83462,28 107.83333,28 c 0.45834,0 0.83334,0.675 0.83334,1.5 0,1.699352 -0.0731,1.760252 -1,0.833333 z M 103,23.855035 c 0,-0.801044 6.54816,-1.464557 10.25,-1.038613 5.17791,0.595784 2.75496,1.683578 -3.75,1.683578 -3.575,0 -6.5,-0.290234 -6.5,-0.644965 z M 129.87244,23.25 C 128.62857,21.663944 128.66394,21.628574 130.25,22.872445 131.91575,24.178814 132.44548,25 131.62244,25 c -0.20765,0 -0.99515,-0.7875 -1.75,-1.75 z M 91.59902,22.602554 c 0.267875,-0.698071 1.030181,-1.316892 1.694013,-1.375157 0.663832,-0.05826 2.669467,-0.385284 4.456967,-0.72671 2.133648,-0.407542 3.25,-0.228031 3.25,0.522603 0,0.628857 -0.5625,0.948249 -1.25,0.709761 -0.6875,-0.238489 -2.912306,0.14516 -4.944013,0.852554 -2.970827,1.034374 -3.598663,1.037692 -3.206967,0.01695 z M 124,22.568222 c -1.925,-0.703791 -4.0625,-1.071411 -4.75,-0.816933 -0.6875,0.254479 -1.25,0.0196 -1.25,-0.521941 0,-0.909051 2.63833,-0.887289 7.44579,0.06142 1.07019,0.21119 2.12019,0.907164 2.33333,1.546609 0.21315,0.639445 0.23755,1.128392 0.0542,1.086549 C 127.65,23.882079 125.925,23.272014 124,22.568222 Z m -16,-1.039397 c 0,-1.01455 2.92013,-2.467068 3.39972,-1.691073 0.31778,0.514177 -0.31715,1.168899 -1.41097,1.454938 C 108.89494,21.578729 108,21.68499 108,21.528825 Z m 9.07895,-8.112158 c 0.048,-1.164943 0.28494,-1.4019 0.60416,-0.604167 0.28887,0.721875 0.25335,1.584375 -0.0789,1.916667 -0.3323,0.332291 -0.56864,-0.258334 -0.52522,-1.3125 z"
         id="path1690" />
      <path
         style="fill:#a3a3a3;fill-opacity:1"
         d="m 37,215.67535 c -0.275,-0.27922 -1.85,-0.66806 -3.5,-0.8641 C 25.421864,213.8515 15.911143,206.56398 11.859095,198.22908 8.931587,192.20731 8.8431636,191.79013 8.8431636,184 c 0,-7.79013 0.088423,-8.20731 3.0159314,-14.22908 2.925782,-6.01822 7.89361,-10.98604 13.911827,-13.91182 6.021769,-2.92751 6.438948,-3.01594 14.229078,-3.01594 7.789946,0 8.20742,0.0885 14.227928,3.01538 8.945351,4.34882 15.253725,13.55753 17.31175,25.27097 1.325804,7.54595 -3.919038,20.91213 -10.452539,26.63771 -2.695327,2.36202 -10.490017,6.48731 -13.087139,6.92628 -5.866803,0.99161 -10.576367,1.41198 -11,0.98185 z m 0,-14.07657 c 0,-2.82543 -0.59099,-3.74992 -3.490937,-5.46093 -9.684014,-5.71371 -9.824021,-18.317 -0.268203,-24.14325 8.679071,-5.2917 20.786998,1.71923 20.73344,12.0054 -0.03715,7.13517 -6.531507,16.16904 -13.835391,19.24551 L 37.5,204.35705 l 2.456052,0.41803 c 3.791395,0.64531 9.701396,-1.53542 13.717508,-5.06161 11.771054,-10.33512 8.62759,-29.09548 -5.891441,-35.16042 -10.152095,-4.24077 -22.108434,0.62734 -26.886256,10.94695 -4.7646,10.29105 2.68e-4,22.69471 10.604137,27.60414 5.335212,2.47012 5.5,2.42502 5.5,-1.50536 z M 106,169.5 c 0,-13.10833 0.20936,-23.62397 0.46524,-23.36809 0.6792,0.6792 0.78251,45.95367 0.10641,46.62978 C 106.25724,193.07609 106,182.60833 106,169.5 Z m 5.80902,22.75 c -0.16996,-0.4125 -0.0731,-13.125 0.21522,-28.25 l 0.52424,-27.5 0.22576,28.25 c 0.20343,25.45631 0.0456,29.9533 -0.96522,27.5 z M 96.459323,148.5 c 2.28e-4,-24.2 0.130664,-33.95691 0.289858,-21.68203 0.159195,12.27489 0.159008,32.07489 -4.14e-4,44 C 96.589345,182.74309 96.459095,172.7 96.459323,148.5 Z m 25.971927,20 c 6.6e-4,-13.2 0.14295,-18.46169 0.31621,-11.69265 0.17326,6.76904 0.17273,17.56904 -0.001,24 -0.17391,6.43096 -0.31567,0.89265 -0.31502,-12.30735 z m -30.971927,-21 c 2.28e-4,-24.2 0.130664,-33.95691 0.289858,-21.68203 0.159195,12.27489 0.159008,32.07489 -4.14e-4,44 C 91.589345,181.74309 91.459095,171.7 91.459323,147.5 Z m 9.999587,0.5 c 0,-23.925 0.13052,-33.7125 0.29005,-21.75 0.15952,11.9625 0.15952,31.5375 0,43.5 -0.15953,11.9625 -0.29005,2.175 -0.29005,-21.75 z m 15.98248,14.5 c 4.7e-4,-15.95 0.13854,-22.33497 0.30682,-14.18883 0.16828,8.14615 0.16789,21.19615 -8.6e-4,29 -0.16876,7.80386 -0.30644,1.13883 -0.30596,-14.81117 z m 9.90142,21 c 0.004,-4.4 0.17944,-6.07561 0.39069,-3.72357 0.21124,2.35204 0.20827,5.95204 -0.007,8 -0.21487,2.04796 -0.38771,0.12357 -0.38408,-4.27643 z m 31.9934,-41.5 c 0,-4.125 0.17651,-5.8125 0.39226,-3.75 0.21574,2.0625 0.21574,5.4375 0,7.5 -0.21575,2.0625 -0.39226,0.375 -0.39226,-3.75 z m -36.16488,-31.5 c -0.10925,-2.75 -0.43019,-6.125 -0.71319,-7.5 l -0.51456,-2.5 1.07323,2.45881 c 0.59027,1.35234 0.91121,4.72734 0.71319,7.5 L 123.36996,115.5 Z M 86.232003,105 c 0,-1.925 0.205795,-2.7125 0.457323,-1.75 0.251527,0.9625 0.251527,2.5375 0,3.5 -0.251528,0.9625 -0.457323,0.175 -0.457323,-1.75 z m 41.962947,0.5 c 0.0204,-1.65 0.2445,-2.20394 0.49804,-1.23097 0.25354,0.97297 0.23687,2.32297 -0.0371,3 -0.27393,0.67703 -0.48137,-0.11903 -0.46099,-1.76903 z M 106,105 c 0,-0.55 0.45,-1 1,-1 0.55,0 1,0.45 1,1 0,0.55 -0.45,1 -1,1 -0.55,0 -1,-0.45 -1,-1 z m 5.62354,-0.53866 c -0.96498,-2.51469 -0.68031,-3.16355 0.49853,-1.13634 0.58369,1.00375 0.8506,2.03566 0.59313,2.29313 -0.25747,0.25747 -0.74872,-0.26309 -1.09166,-1.15679 z M 117,105.11803 c 0,-0.55 0.45,-1.27811 1,-1.61803 0.55,-0.33992 1,-0.16803 1,0.38197 0,0.55 -0.45,1.27811 -1,1.61803 -0.55,0.33992 -1,0.16803 -1,-0.38197 z M 58.32814,60.5 c 0.0044,-3.85 0.185183,-5.302463 0.401658,-3.227696 0.216476,2.074768 0.212846,5.224768 -0.0081,7 C 58.50082,66.047537 58.323704,64.35 58.32814,60.5 Z M 160.32007,46 c 0,-3.575 0.1815,-5.0375 0.40333,-3.25 0.22182,1.7875 0.22182,4.7125 0,6.5 -0.22183,1.7875 -0.40333,0.325 -0.40333,-3.25 z M 97.824504,39.325823 c 0.426728,-2.092959 0.67819,-2.344421 0.969603,-0.969603 0.216399,1.020921 -0.04287,2.292541 -0.576149,2.825822 -0.626137,0.626137 -0.765512,-0.0314 -0.393454,-1.856219 z M 93.194949,38.5 c 0.02038,-1.65 0.244498,-2.203936 0.498042,-1.230968 0.253543,0.972967 0.236869,2.322967 -0.03705,3 C 93.382014,40.946064 93.174569,40.15 93.194949,38.5 Z M 83,36 c 0,-2.2 0.349392,-4 0.776426,-4 0.427034,0 0.604768,1.8 0.394964,4 -0.209803,2.2 -0.559195,4 -0.776425,4 C 83.177734,40 83,38.2 83,36 Z m 4.157895,2 c 0,-1.375 0.226973,-1.9375 0.504386,-1.25 0.277412,0.6875 0.277412,1.8125 0,2.5 -0.277413,0.6875 -0.504386,0.125 -0.504386,-1.25 z m 9.094288,-1.5 c 0.0111,-2.2 0.215885,-2.982253 0.455078,-1.738341 0.239193,1.243913 0.230112,3.043913 -0.02018,4 C 96.436788,39.717747 96.241084,38.7 96.252183,36.5 Z m 15.254897,-4.488546 c -0.35034,-0.56686 0.0511,-0.734507 0.94098,-0.393011 C 114.18048,32.283234 114.49745,33 113.05902,33 c -0.51754,0 -1.21592,-0.444846 -1.55194,-0.988546 z m 5.03563,0.05764 c -0.31644,-0.511996 -0.19299,-1.167201 0.27431,-1.456011 0.46731,-0.28881 0.84965,0.130095 0.84965,0.930902 0,1.686167 -0.31534,1.833491 -1.12396,0.525109 z M 93,25 c 0,-0.55 0.701558,-1 1.559017,-1 0.857459,0 1.280902,0.45 0.940983,1 -0.339919,0.55 -1.041476,1 -1.559017,1 C 93.423442,26 93,25.55 93,25 Z M 89,24.122445 C 89,23.5051 89.476558,23 90.059017,23 90.641476,23 90.839919,22.55 90.5,22 90.160081,21.45 90.358524,21 90.940983,21 92.470326,21 92.241837,22.554403 90.5,24 89.463637,24.860104 89,24.897951 89,24.122445 Z m 39.5374,-0.06192 c -0.31934,-0.516714 0.29792,-0.8733 1.37171,-0.792414 1.07378,0.08088 1.73195,0.503651 1.46259,0.939479 -0.66452,1.075229 -2.12574,0.99941 -2.8343,-0.147065 z M 107,22.361046 c 1.1737,-0.318426 1.45178,-1.870292 1.27834,-7.133998 -0.2708,-8.2184695 0.42905,-7.1115394 0.96287,1.522952 0.35867,5.801239 0.23822,6.241671 -1.6774,6.133999 -1.27696,-0.07177 -1.49192,-0.271157 -0.56381,-0.522953 z m 6.8125,-0.04416 c 0.72187,-0.288871 1.58437,-0.253344 1.91667,0.07895 0.33229,0.332292 -0.25834,0.568641 -1.3125,0.52522 -1.16495,-0.04798 -1.4019,-0.284941 -0.60417,-0.604167 z m -9.79821,-2.731172 c 0.64761,-0.647619 1.32381,-0.647619 1.97142,0 0.64762,0.647619 0.30953,0.985715 -0.98571,0.985715 -1.29524,0 -1.63333,-0.338096 -0.98571,-0.985715 z M 101.5,18 c -0.33992,-0.55 -0.14148,-1 0.44098,-1 0.58246,0 1.05902,0.45 1.05902,1 0,0.55 -0.19844,1 -0.44098,1 -0.24254,0 -0.7191,-0.45 -1.05902,-1 z"
         id="path1688" />
      <path
         style="fill:#8c8c8c;fill-opacity:1"
         d="m 106.64785,149.18548 c -0.46868,-23.27299 -0.58118,-42.58549 -0.25,-42.91667 0.33118,-0.33118 0.83209,-0.3722 1.11312,-0.0912 0.28104,0.28104 0.39354,19.59354 0.25,42.91667 L 107.5,191.5 Z M 111.4357,165.5 c 5.7e-4,-14.3 0.14102,-20.01094 0.31211,-12.69097 0.17108,7.31996 0.17062,19.01996 -0.001,26 -0.17166,6.98003 -0.31164,0.99097 -0.31107,-13.30903 z m 15.87036,-16 c -0.0246,-14.85 0.27377,-30.375 0.66295,-34.5 0.9611,-10.18687 1.02562,27.3978 0.0807,47 -0.61583,12.77484 -0.7043,11.28764 -0.74364,-12.5 z m -4.55606,1.58969 c -0.4125,-10.12567 -0.69021,-24.97567 -0.61712,-33 0.13209,-14.50316 0.13812,-14.53946 1.01699,-6.11996 0.48626,4.65836 0.76396,19.50836 0.61712,33 L 123.5,169.5 Z M 117.65838,138.25 C 116.71173,119.68874 116.85234,106.2093 118,105.5 c 0.65562,-0.4052 1,7.32295 1,22.44098 C 119,140.62344 118.84445,151 118.65432,151 c -0.19012,0 -0.6383,-5.7375 -0.99594,-12.75 z M 86.409181,124.5 c -0.0012,-9.35 0.149156,-13.3096 0.334013,-8.7991 0.184857,4.51049 0.185798,12.16049 0.0021,17 -0.183707,4.8395 -0.334954,1.1491 -0.336103,-8.2009 z m 25.812759,-2.16821 c -0.12207,-8.34252 -0.48092,-15.99252 -0.79745,-17 -0.52646,-1.67569 -0.48161,-1.68623 0.52628,-0.12364 0.71635,1.11062 0.99531,7.05748 0.79744,17 L 112.44388,137.5 Z M 159.36996,125 c 0,-5.775 0.16528,-8.1375 0.36728,-5.25 0.202,2.8875 0.202,7.6125 0,10.5 -0.202,2.8875 -0.36728,0.525 -0.36728,-5.25 z m -32.29101,-22.58333 c 0.048,-1.16495 0.28494,-1.4019 0.60416,-0.60417 0.28887,0.72187 0.25335,1.58437 -0.0789,1.91667 -0.33229,0.33229 -0.56864,-0.25834 -0.52522,-1.3125 z m 5.58772,-0.0833 C 132.3,101.96667 132,101.20167 132,100.63333 c 0,-0.6266 0.46577,-0.56756 1.18333,0.15 0.65084,0.65084 0.95084,1.41584 0.66667,1.7 -0.28417,0.28417 -0.81667,0.21667 -1.18333,-0.15 z M 58.34281,46.5 c 0.0036,-4.4 0.179441,-6.075605 0.390687,-3.723567 0.211245,2.352038 0.208273,5.952038 -0.0066,8 C 58.512015,52.824395 58.339178,50.9 58.34281,46.5 Z m 64.90937,-10 c 0.0111,-2.2 0.21589,-2.982253 0.45508,-1.738341 0.23919,1.243913 0.23011,3.043913 -0.0202,4 -0.25029,0.956088 -0.446,-0.06166 -0.4349,-2.261659 z m 8.94277,1 c 0.0204,-1.65 0.2445,-2.203936 0.49804,-1.230968 0.25354,0.972967 0.23687,2.322967 -0.0371,3 C 132.38201,39.946064 132.17457,39.15 132.19495,37.5 Z m 3.58528,-0.544028 c -0.24572,-1.674216 -0.0718,-3.275774 0.3865,-3.559017 0.4583,-0.283244 0.83327,1.086569 0.83327,3.044028 0,4.361125 -0.61704,4.621641 -1.21977,0.514989 z M 160.33621,33 c 0,-4.125 0.17651,-5.8125 0.39226,-3.75 0.21574,2.0625 0.21574,5.4375 0,7.5 -0.21575,2.0625 -0.39226,0.375 -0.39226,-3.75 z m -73.178315,1 c 0,-1.375 0.226973,-1.9375 0.504386,-1.25 0.277412,0.6875 0.277412,1.8125 0,2.5 -0.277413,0.6875 -0.504386,0.125 -0.504386,-1.25 z M 79,32 c 0,-0.55 0.476558,-1 1.059017,-1 0.582459,0 0.780902,0.45 0.440983,1 -0.339919,0.55 -0.816476,1 -1.059017,1 C 79.198442,33 79,32.55 79,32 Z m 27.50708,0.01145 c -0.35034,-0.56686 0.0511,-0.734507 0.94098,-0.393011 C 109.18048,32.283234 109.49745,33 108.05902,33 c -0.51754,0 -1.21592,-0.444846 -1.55194,-0.988546 z m 5.15084,-0.562382 C 112.26488,29.867341 114,29.455387 114,30.893011 c 0,0.491156 -0.65208,1.143239 -1.44907,1.449073 -0.96852,0.371656 -1.26467,0.07551 -0.89301,-0.893012 z M 117.2,31.8 c -1.52396,-1.523963 -1.53915,-2.8 -0.0333,-2.8 0.64166,0 0.87057,0.296096 0.50867,0.657991 -0.36189,0.361895 -0.15679,1.261895 0.45578,2 1.38293,1.666322 0.6977,1.770828 -0.93112,0.142009 z M 88.542705,31.069098 C 88.226274,30.557102 88.424717,29.855545 88.983688,29.510081 89.54266,29.164618 90,29.583524 90,30.440983 c 0,1.756526 -0.600055,2.015159 -1.457295,0.628115 z M 121,30.5 c 0,-0.825 0.17686,-1.5 0.39301,-1.5 0.21616,0 0.65203,0.675 0.96862,1.5 0.31658,0.825 0.13972,1.5 -0.39301,1.5 C 121.43588,32 121,31.325 121,30.5 Z m 4.87244,-0.25 c -1.24387,-1.586056 -1.2085,-1.621426 0.37756,-0.377555 0.9625,0.754844 1.75,1.542344 1.75,1.75 0,0.823034 -0.82119,0.293303 -2.12756,-1.372445 z M 131,23 c -0.90129,-0.58246 -1.02463,-0.975486 -0.30902,-0.984687 0.65504,-0.0084 1.4691,0.434687 1.80902,0.984687 0.7673,1.241525 0.42112,1.241525 -1.5,0 z M 111.75,19.253882 C 112.4375,19.02258 113,17.970833 113,16.916667 113,15.8625 113.40787,15 113.90638,15 c 0.49851,0 0.68176,0.858963 0.40722,1.908807 -0.33655,1.286953 0.10118,2.053691 1.34362,2.353532 1.01353,0.244598 0.26778,0.437381 -1.65722,0.428408 -1.925,-0.009 -2.9375,-0.205563 -2.25,-0.436865 z m -8.01879,-4.173723 c -0.43497,-1.663345 -0.30483,-2.053777 0.43724,-1.311709 0.5811,0.581102 0.85979,1.646819 0.61931,2.36826 -0.24965,0.748946 -0.70294,0.295653 -1.05655,-1.056551 z"
         id="path1686" />
      <path
         style="fill:#767676;fill-opacity:1"
         d="m 118.8125,204.31689 c 0.72187,-0.28887 1.58437,-0.25335 1.91667,0.0789 0.33229,0.33229 -0.25834,0.56864 -1.3125,0.52522 -1.16495,-0.048 -1.4019,-0.28494 -0.60417,-0.60416 z M 153,193.62244 c 0,-0.20765 0.7875,-0.99515 1.75,-1.75 1.58606,-1.24387 1.62143,-1.2085 0.37756,0.37756 C 153.82119,193.91575 153,194.44548 153,193.62244 Z M 95.457753,191.75 C 95.19404,191.0625 95.095924,170.7 95.239717,146.5 l 0.261442,-44 0.499421,45.25028 c 0.274681,24.88766 0.372797,45.25016 0.218035,45.25 -0.154761,-1.5e-4 -0.497149,-0.56278 -0.760862,-1.25028 z M 102.45974,149 c 0,-24.475 0.13017,-34.4875 0.28926,-22.25 0.15909,12.2375 0.15909,32.2625 0,44.5 -0.15909,12.2375 -0.28926,2.225 -0.28926,-22.25 z m 20.5354,31.70381 0.49513,-12.20381 0.28917,11.4157 c 0.15904,6.27863 -0.0638,11.77035 -0.49514,12.20381 -0.43136,0.43346 -0.56149,-4.70361 -0.28916,-11.4157 z M 118.42328,171.5 c 8.2e-4,-11.55 0.14638,-16.13804 0.32348,-10.19565 0.17711,5.94239 0.17644,15.39239 -10e-4,21 -0.17792,5.60761 -0.32282,0.74565 -0.322,-10.80435 z m 10,0 c 8.2e-4,-11.55 0.14638,-16.13804 0.32348,-10.19565 0.17711,5.94239 0.17644,15.39239 -0.001,21 -0.17792,5.60761 -0.32282,0.74565 -0.322,-10.80435 z M 86.434664,166 c 0,-14.025 0.140645,-19.7625 0.312545,-12.75 0.1719,7.0125 0.1719,18.4875 0,25.5 -0.1719,7.0125 -0.312545,1.275 -0.312545,-12.75 z M 132.18135,146.69098 C 132.0613,117.02729 132.338,102.09086 133,102.5 c 1.12726,0.69669 1.15553,39.50889 0.051,70 -0.56067,15.47736 -0.7219,10.69231 -0.86963,-25.80902 z M 113.41858,124 c 0,-10.725 0.14711,-15.1125 0.32692,-9.75 0.17981,5.3625 0.17981,14.1375 0,19.5 -0.17981,5.3625 -0.32692,0.975 -0.32692,-9.75 z m -2.01149,-2 c 0,-9.075 0.1516,-12.7875 0.3369,-8.25 0.18529,4.5375 0.18529,11.9625 0,16.5 -0.1853,4.5375 -0.3369,0.825 -0.3369,-8.25 z m 15.94787,-9.5 c -0.003,-4.95 0.16605,-7.10108 0.37577,-4.78017 0.20972,2.3209 0.21222,6.3709 0.006,9 C 127.5296,119.34892 127.358,117.45 127.35496,112.5 Z M 81.336206,108 c 0,-4.125 0.176518,-5.8125 0.392262,-3.75 0.215745,2.0625 0.215745,5.4375 0,7.5 -0.215744,2.0625 -0.392262,0.375 -0.392262,-3.75 z m 8.991934,0.5 c 0.0044,-3.85 0.185183,-5.30246 0.401658,-3.2277 0.216476,2.07477 0.212846,5.22477 -0.0081,7 -0.220912,1.77524 -0.398028,0.0777 -0.393592,-3.7723 z m 69.01467,-1 c 0.004,-4.4 0.17944,-6.07561 0.39069,-3.72357 0.21124,2.35204 0.20827,5.95204 -0.007,8 -0.21487,2.04796 -0.38771,0.12357 -0.38408,-4.27643 z m -62.263863,-5.08333 c 0.04798,-1.16495 0.284941,-1.4019 0.604167,-0.60417 0.288871,0.72187 0.253344,1.58437 -0.07895,1.91667 -0.332292,0.33229 -0.568641,-0.25834 -0.52522,-1.3125 z m 3.000003,0 c 0.048,-1.16495 0.28494,-1.4019 0.60416,-0.60417 0.28887,0.72187 0.25335,1.58437 -0.0789,1.91667 -0.3323,0.33229 -0.56864,-0.25834 -0.52522,-1.3125 z M 107,102 c -0.90129,-0.58246 -1.02463,-0.97549 -0.30902,-0.98469 0.65504,-0.008 1.4691,0.43469 1.80902,0.98469 0.7673,1.24153 0.42112,1.24153 -1.5,0 z m 30,-1.55902 c 0,-0.857456 0.45734,-1.276362 1.01631,-0.930899 0.55897,0.345464 0.75742,1.047019 0.44098,1.559019 C 137.60006,102.45614 137,102.19751 137,100.44098 Z M 76.5,99 C 76.160081,98.45 76.358524,98 76.940983,98 77.523442,98 78,98.45 78,99 c 0,0.55 -0.198442,1 -0.440983,1 C 77.316476,100 76.839919,99.55 76.5,99 Z m 30.1283,-34.792414 c -0.26936,-0.435828 0.38881,-0.858594 1.46259,-0.939479 1.07379,-0.08089 1.69105,0.2757 1.37171,0.792414 -0.70856,1.146475 -2.16978,1.222294 -2.8343,0.147065 z m 6.7051,-0.778188 c -9e-5,-1.378786 3.93845,-1.113859 4.40858,0.296545 0.19591,0.587728 -0.71586,1.002325 -2.02616,0.921327 -1.3103,-0.081 -2.38239,-0.629041 -2.38242,-1.217872 z m -9.25445,-1.012731 c 0.048,-1.164943 0.28494,-1.4019 0.60416,-0.604167 0.28887,0.721875 0.25335,1.584375 -0.0789,1.916667 -0.3323,0.332291 -0.56864,-0.258334 -0.52522,-1.3125 z M 91.458881,40.933469 c -0.362533,-0.586592 -0.444683,-1.281 -0.182555,-1.543128 0.262128,-0.262129 0.743066,0.21781 1.068751,1.066531 0.676184,1.762107 0.09985,2.072058 -0.886196,0.476597 z M 128.15789,39 c 0,-1.375 0.22698,-1.9375 0.50439,-1.25 0.27741,0.6875 0.27741,1.8125 0,2.5 -0.27741,0.6875 -0.50439,0.125 -0.50439,-1.25 z m 7.03706,-1.5 c 0.0204,-1.65 0.2445,-2.203936 0.49804,-1.230968 0.25354,0.972967 0.23687,2.322967 -0.0371,3 C 135.38201,39.946064 135.17457,39.15 135.19495,37.5 Z m -76.86681,-5 c 0.0044,-3.85 0.185183,-5.302463 0.401658,-3.227696 0.216476,2.074768 0.212846,5.224768 -0.0081,7 C 58.50082,38.047537 58.323704,36.35 58.32814,32.5 Z m 20.750807,1.916667 c 0.04798,-1.164943 0.284941,-1.4019 0.604167,-0.604167 0.288871,0.721875 0.253344,1.584375 -0.07895,1.916667 -0.332292,0.332291 -0.568641,-0.258334 -0.52522,-1.3125 z m 53.000003,-1 c 0.048,-1.164943 0.28494,-1.4019 0.60416,-0.604167 0.28887,0.721875 0.25335,1.584375 -0.0789,1.916667 -0.3323,0.332291 -0.56864,-0.258334 -0.52522,-1.3125 z m 7.46376,-0.347569 c -0.31644,-0.511996 -0.11799,-1.213553 0.44098,-1.559017 0.55897,-0.345463 1.01631,0.07344 1.01631,0.930902 0,1.756526 -0.60006,2.015159 -1.45729,0.628115 z m -14.31937,-2.497005 c 0.11052,-1.335348 0.51323,-2.2349 0.89492,-1.999004 C 126.79341,28.990354 126.13793,33 125.39457,33 c -0.20469,0 -0.28174,-1.092558 -0.17123,-2.427907 z M 102.63837,30.5 c -0.3471,-0.904548 -0.005,-1.5 0.86163,-1.5 0.8667,0 1.20873,0.595452 0.86163,1.5 -0.31659,0.825 -0.70432,1.5 -0.86163,1.5 -0.15731,0 -0.54504,-0.675 -0.86163,-1.5 z M 84.5,30 C 84.160081,29.45 84.358524,29 84.940983,29 85.523442,29 86,29.45 86,30 86,30.55 85.801558,31 85.559017,31 85.316476,31 84.839919,30.55 84.5,30 Z m 7.5,0.606989 c 0,-0.216156 0.698372,-0.661002 1.551938,-0.988546 0.889925,-0.341496 1.291322,-0.173849 0.940983,0.393011 C 93.905663,30.961658 92,31.416902 92,30.606989 Z m -7,-6.666006 c 0,-0.582459 0.45,-0.780902 1,-0.440983 0.55,0.339919 1,0.816476 1,1.059017 C 87,24.801558 86.55,25 86,25 85.45,25 85,24.523442 85,23.940983 Z M 132.5,24 c 0.33992,-0.55 0.81648,-1 1.05902,-1 0.24254,0 0.44098,0.45 0.44098,1 0,0.55 -0.47656,1 -1.05902,1 -0.58246,0 -0.7809,-0.45 -0.44098,-1 z m 23.37244,-5.75 C 154.62857,16.663944 154.66394,16.628574 156.25,17.872445 157.91575,19.178814 158.44548,20 157.62244,20 c -0.20765,0 -0.99515,-0.7875 -1.75,-1.75 z m -42.79349,-4.833333 c 0.048,-1.164943 0.28494,-1.4019 0.60416,-0.604167 0.28887,0.721875 0.25335,1.584375 -0.0789,1.916667 -0.3323,0.332291 -0.56864,-0.258334 -0.52522,-1.3125 z M 96,12 c 0,-0.55 0.476558,-1 1.059017,-1 0.582459,0 0.780902,0.45 0.440983,1 -0.339919,0.55 -0.816476,1 -1.059017,1 C 96.198442,13 96,12.55 96,12 Z m 8,-1.940983 c 0,-0.5175407 0.44485,-1.2159127 0.98855,-1.5519378 0.56686,-0.3503388 0.7345,0.051058 0.39301,0.940983 C 104.71677,11.180479 104,11.497449 104,10.059017 Z"
         id="path1684" />
      <path
         style="fill:#606060;fill-opacity:1"
         d="m 100.8125,204.31689 c 0.72187,-0.28887 1.58437,-0.25335 1.91667,0.0789 0.33229,0.33229 -0.25834,0.56864 -1.3125,0.52522 -1.16495,-0.048 -1.4019,-0.28494 -0.60417,-0.60416 z M 100.45775,192.75 c -0.26371,-0.6875 -0.36183,-21.05 -0.21803,-45.25 l 0.26144,-44 0.49942,45.25028 c 0.27468,24.88766 0.3728,45.25016 0.21804,45.25 -0.15477,-1.5e-4 -0.49715,-0.56278 -0.76087,-1.25028 z m 11.27434,0.52818 c 0.90578,-0.64258 1.31023,-7.48241 1.52713,-25.82613 l 0.29505,-24.95205 -0.0271,25.41717 c -0.0232,21.72901 -0.2448,25.47651 -1.52714,25.82613 -1.09193,0.29771 -1.16482,0.17117 -0.26791,-0.46512 z m 4.87092,-0.11151 c -0.28327,-0.45834 0.12038,-0.83334 0.89699,-0.83334 0.77661,0 1.18026,0.375 0.89699,0.83334 C 118.11373,193.625 117.71008,194 117.5,194 c -0.21008,0 -0.61373,-0.375 -0.89699,-0.83333 z m -26.146661,-1.41983 c -0.264484,-0.68923 -0.362519,-18.35173 -0.217856,-39.25 L 90.501518,114.5 l 0.499241,39.25036 c 0.274583,21.5877 0.372618,39.2502 0.217856,39.25 -0.154761,-2e-4 -0.497781,-0.56428 -0.762266,-1.25352 z M 85.457813,190.75 c -0.263679,-0.6875 -0.3618,-21.275 -0.218047,-45.75 l 0.261369,-44.5 0.499433,45.75028 c 0.274687,25.16265 0.372809,45.75015 0.218047,45.75 -0.154761,-1.5e-4 -0.497122,-0.56278 -0.760802,-1.25028 z m 47.539477,-16.04743 0.49729,-17.20257 0.27832,16.42439 c 0.15307,9.03342 -0.0707,16.77458 -0.49729,17.20258 -0.42659,0.428 -0.55183,-6.96298 -0.27832,-16.4244 z M 81.454192,153 c 0,-21.175 0.132524,-29.8375 0.294497,-19.25 0.161973,10.5875 0.161973,27.9125 0,38.5 -0.161973,10.5875 -0.294497,1.925 -0.294497,-19.25 z m 34.991948,6.5 c 4e-4,-17.6 0.13647,-24.65916 0.30237,-15.68703 0.1659,8.97214 0.16557,23.37214 -7.3e-4,32 -0.1663,8.62787 -0.30204,1.28703 -0.30164,-16.31297 z m -39.468236,13 c -1.07239,-34.91816 -1.070371,-73.992467 0.0038,-72.918327 0.695971,0.695967 0.953318,15.722747 0.778865,45.478867 C 77.590563,174.05286 77.31852,183.59081 76.977904,172.5 Z M 137.18392,145.80902 C 137.065,117.55971 137.35343,101.8996 138,101.5 c 1.13065,-0.69878 1.15641,35.44371 0.0485,68 -0.57407,16.86872 -0.70943,13.15956 -0.86455,-23.69098 z m 4.21033,-1.45646 c 0.0582,-24.83109 0.44325,-44.942036 0.85575,-44.690984 0.92994,0.565974 0.74112,61.467854 -0.24134,77.838424 -0.44143,7.35544 -0.67923,-5.47417 -0.61441,-33.14744 z M 72.981939,156.25 c -0.0099,-17.4625 -0.30021,-37.7125 -0.645058,-45 C 71.880203,101.59927 72.020931,98 72.854942,98 73.698055,98 74,109.86621 74,143 c 0,24.75 -0.225,45 -0.5,45 -0.275,0 -0.508128,-14.2875 -0.518061,-31.75 z M 68.999347,133.79922 C 68.724706,113.0638 68.843131,96.441927 69.262513,96.861737 69.681896,97.281546 69.906602,114.2469 69.76186,134.56251 L 69.498693,171.5 Z M 97.443062,133.5 c -4.47e-4,-16.5 0.136551,-23.39031 0.304441,-15.31181 0.167891,8.07851 0.168257,21.57851 8.14e-4,30 C 97.580875,156.60969 97.44351,150 97.443062,133.5 Z m -38.077831,15 c 0.0026,-5.5 0.170532,-7.62242 0.373173,-4.71648 0.202642,2.90594 0.200512,7.40594 -0.0047,10 C 59.528425,156.37758 59.362627,154 59.365231,148.5 Z M 129.37817,113 c 0,-6.325 0.16237,-8.9125 0.36082,-5.75 0.19845,3.1625 0.19845,8.3375 0,11.5 -0.19845,3.1625 -0.36082,0.575 -0.36082,-5.75 z m -5.00821,-1 c 0,-5.775 0.16528,-8.1375 0.36728,-5.25 0.202,2.8875 0.202,7.6125 0,10.5 -0.202,2.8875 -0.36728,0.525 -0.36728,-5.25 z m -16.02055,-1 c 0,-4.675 0.17226,-6.5875 0.3828,-4.25 0.21053,2.3375 0.21053,6.1625 0,8.5 -0.21054,2.3375 -0.3828,0.425 -0.3828,-4.25 z m 38.01582,-4.5 c 0.003,-5.5 0.17053,-7.622415 0.37317,-4.71648 0.20265,2.90594 0.20052,7.40594 -0.005,10 -0.20525,2.59406 -0.37104,0.21648 -0.36844,-5.28352 z m -12.17028,-3 c 0.0204,-1.65 0.2445,-2.20394 0.49804,-1.23097 0.25354,0.97297 0.23687,2.32297 -0.0371,3 -0.27393,0.67703 -0.48137,-0.11903 -0.46099,-1.76903 z m -18.116,-0.0833 c 0.048,-1.16495 0.28494,-1.4019 0.60416,-0.60417 0.28887,0.72187 0.25335,1.58437 -0.0789,1.91667 -0.3323,0.33229 -0.56864,-0.25834 -0.52522,-1.3125 z M 66.252183,97.5 c 0.0111,-2.2 0.215885,-2.982253 0.455078,-1.738341 0.239193,1.243913 0.230112,3.043913 -0.02018,4 C 66.436788,100.71775 66.241084,99.7 66.252183,97.5 Z m 93.075957,-4 c 0.004,-3.85 0.18518,-5.302463 0.40166,-3.227696 0.21647,2.074768 0.21284,5.224768 -0.008,7 C 159.50082,99.047537 159.3237,97.35 159.32814,93.5 Z M 63.157895,95 c 0,-1.375 0.226973,-1.9375 0.504386,-1.25 0.277412,0.6875 0.277412,1.8125 0,2.5 -0.277413,0.6875 -0.504386,0.125 -0.504386,-1.25 z M 106.35714,63.5 c 0.825,-0.825 1.81225,-1.5 2.19388,-1.5 0.38163,0 0.13367,0.675 -0.55102,1.5 -0.68469,0.825 -1.67193,1.5 -2.19387,1.5 -0.52194,0 -0.27399,-0.675 0.55101,-1.5 z m 4.14994,0.511454 c -0.35034,-0.56686 0.0511,-0.734507 0.94098,-0.393011 C 113.18048,64.283234 113.49745,65 112.05902,65 c -0.51754,0 -1.21592,-0.444846 -1.55194,-0.988546 z M 102.5,63 c -0.33992,-0.55 -0.14148,-1 0.44098,-1 0.58246,0 1.05902,0.45 1.05902,1 0,0.55 -0.19844,1 -0.44098,1 -0.24254,0 -0.7191,-0.45 -1.05902,-1 z m 7.7,-21.2 c -1.39041,-1.390412 -1.64008,-8.8 -0.29651,-8.8 0.49691,0 1.05941,2.25028 1.25,5.000622 0.19058,2.750342 0.32401,5.000342 0.29651,5 C 111.4225,43.00028 110.86,42.46 110.2,41.8 Z m -4.91399,-4.3 c 0.008,-2.75 0.20172,-3.756313 0.43157,-2.23625 0.22986,1.520062 0.22371,3.770062 -0.0136,5 C 105.46657,41.493687 105.27851,40.25 105.28601,37.5 Z m -21.404848,0.281418 c 0.460363,-2.776922 0.601205,-2.917763 0.916083,-0.916083 0.204647,1.300934 -0.04015,2.777573 -0.543999,3.281419 -0.554777,0.554777 -0.701528,-0.378117 -0.372084,-2.365336 z m 49.197788,1.635249 c 0.048,-1.164943 0.28494,-1.4019 0.60416,-0.604167 0.28887,0.721875 0.25335,1.584375 -0.0789,1.916667 -0.3323,0.332291 -0.56864,-0.258334 -0.52522,-1.3125 z m 3.65226,-0.496826 c 0.35361,-1.352204 0.8069,-1.805497 1.05655,-1.056551 0.24048,0.721441 -0.0382,1.787158 -0.61931,2.36826 -0.74207,0.742068 -0.87221,0.351636 -0.43724,-1.311709 z m 3.06616,-2.529762 c -0.36923,-3.162715 -0.26227,-3.378766 0.89153,-1.80085 1.52118,2.080332 1.69241,4.057077 0.41957,4.843733 -0.49034,0.303048 -1.08034,-1.06625 -1.3111,-3.042883 z M 91.252183,35.5 c 0.0111,-2.2 0.215885,-2.982253 0.455078,-1.738341 0.239193,1.243913 0.230112,3.043913 -0.02018,4 C 91.436788,38.717747 91.241084,37.7 91.252183,35.5 Z m 36.942767,-1 c 0.0204,-1.65 0.2445,-2.203936 0.49804,-1.230968 0.25354,0.972967 0.23687,2.322967 -0.0371,3 C 128.38201,36.946064 128.17457,36.15 128.19495,34.5 Z m -8.116,-2.083333 c 0.048,-1.164943 0.28494,-1.4019 0.60416,-0.604167 0.28887,0.721875 0.25335,1.584375 -0.0789,1.916667 -0.3323,0.332291 -0.56864,-0.258334 -0.52522,-1.3125 z M 93.710511,31.000996 c -0.287513,-1.099452 -0.21046,-2.19201 0.171228,-2.427907 0.381688,-0.235896 0.784401,0.663656 0.894918,1.999004 0.243296,2.939683 -0.347418,3.177323 -1.066146,0.428903 z m 3.515584,-0.94619 c 0.794788,-1.344857 1.980308,-2.548607 2.634487,-2.675 0.654178,-0.126393 0.775938,-0.01698 0.270578,0.243141 -0.505365,0.260121 -0.806201,1.238871 -0.668525,2.175 0.137675,0.936129 0.05067,1.107192 -0.193332,0.38014 -0.332959,-0.992095 -0.823468,-0.867344 -1.965964,0.5 -1.377246,1.648294 -1.384607,1.588899 -0.07724,-0.623281 z m 3.852855,0.361861 c 0.048,-1.164943 0.28494,-1.4019 0.60416,-0.604167 0.28887,0.721875 0.25335,1.584375 -0.0789,1.916667 -0.3323,0.332291 -0.56864,-0.258334 -0.52522,-1.3125 z M 110.15789,30 c 0,-1.375 0.22698,-1.9375 0.50439,-1.25 0.27741,0.6875 0.27741,1.8125 0,2.5 -0.27741,0.6875 -0.50439,0.125 -0.50439,-1.25 z M 134.573,29.478529 c -1.05985,-0.801825 -1.69459,-1.690273 -1.41054,-1.974327 0.28406,-0.284055 1.33345,0.386295 2.33199,1.489667 2.12638,2.349623 1.78263,2.530425 -0.92145,0.48466 z M 88.733333,28.875912 c 0.678334,-0.683418 1.485241,-0.990671 1.793128,-0.682784 0.307888,0.307887 -0.247112,0.867048 -1.233333,1.242579 -1.425198,0.542685 -1.540062,0.427821 -0.559795,-0.559795 z m 17.345617,-0.459245 c 0.048,-1.164943 0.28494,-1.4019 0.60416,-0.604167 0.28887,0.721875 0.25335,1.584375 -0.0789,1.916667 -0.3323,0.332291 -0.56864,-0.258334 -0.52522,-1.3125 z m 14.55107,0.436091 c -1.50989,-0.877221 -1.60617,-1.253539 -0.5,-1.954278 2.03437,-1.288735 2.44141,-1.105088 2.44141,1.10152 0,1.1 -0.0161,1.986316 -0.0357,1.969591 -0.0196,-0.01672 -0.8772,-0.519299 -1.90569,-1.116833 z m 8.70331,-0.503548 c 0,-0.984499 0.33697,-1.037796 1.33334,-0.210889 C 131.4,28.746934 132,29.339789 132,29.455778 c 0,0.115989 -0.6,0.210889 -1.33333,0.210889 -0.73334,0 -1.33334,-0.592856 -1.33334,-1.317457 z M 142,28.940983 c 0,-0.582459 0.45,-0.780902 1,-0.440983 0.55,0.339919 1,0.816476 1,1.059017 C 144,29.801558 143.55,30 143,30 c -0.55,0 -1,-0.476558 -1,-1.059017 z m -18,-1.730094 c 0,-1.180643 0.28349,-1.2205 1.5,-0.210889 0.825,0.684689 1.5,1.339789 1.5,1.455778 0,0.115989 -0.675,0.210889 -1.5,0.210889 -0.825,0 -1.5,-0.6551 -1.5,-1.455778 z m -5.48992,-8.227201 c 0.34546,-0.558971 1.04702,-0.757414 1.55902,-0.440983 C 121.45614,19.399945 121.19751,20 119.44098,20 c -0.85746,0 -1.27636,-0.45734 -0.9309,-1.016312 z M 92.589044,17.144075 c -0.290945,-0.470758 -0.995127,-2.158258 -1.564848,-3.75 -0.978092,-2.732682 -0.949482,-2.782541 0.51302,-0.894075 0.851883,1.1 1.754507,1.8875 2.005831,1.75 1.307107,-0.715121 2.283141,-0.01805 2.800379,2 0.559836,2.184245 0.516919,2.176939 -1.468505,-0.25 -1.997805,-2.442073 -2.033805,-2.447865 -1.553677,-0.25 0.505816,2.315456 0.198668,2.900252 -0.7322,1.394075 z M 109.28601,13.5 c 0.008,-2.75 0.20172,-3.7563126 0.43157,-2.23625 0.22986,1.520062 0.22371,3.770062 -0.0136,5 C 109.46657,17.493687 109.27851,16.25 109.28601,13.5 Z M 122,17.289111 c 0,-0.574322 0.7875,-1.661822 1.75,-2.416666 1.61876,-1.269516 1.63998,-1.222451 0.28297,0.627555 -0.80687,1.1 -1.59437,2.1875 -1.75,2.416667 C 122.12734,18.145833 122,17.863433 122,17.289111 Z M 89,15 c -0.588702,-1.1 -0.845368,-2 -0.570368,-2 0.275,0 0.981666,0.9 1.570368,2 0.588702,1.1 0.845368,2 0.570368,2 C 90.295368,17 89.588702,16.1 89,15 Z m 16,1 c 0,-0.55 0.45,-1 1,-1 0.55,0 1,0.45 1,1 0,0.55 -0.45,1 -1,1 -0.55,0 -1,-0.45 -1,-1 z m 21.08029,-1 C 127.5381,11.938968 128,11.371661 128,12.642204 c 0,0.536545 -0.69982,1.849045 -1.55517,2.916666 -1.46637,1.830306 -1.48719,1.798398 -0.36454,-0.55887 z M 115,13 c 0,-0.55 0.47656,-1 1.05902,-1 0.58246,0 0.7809,0.45 0.44098,1 -0.33992,0.55 -0.81648,1 -1.05902,1 C 115.19844,14 115,13.55 115,13 Z m 3,-0.940983 c 0,-0.517541 0.44485,-1.215913 0.98855,-1.551938 0.56686,-0.350339 0.7345,0.05106 0.39301,0.940983 C 118.71677,13.180479 118,13.497449 118,12.059017 Z M 112.5,11 c -0.33992,-0.55 -0.14148,-1 0.44098,-1 0.58246,0 1.05902,0.45 1.05902,1 0,0.55 -0.19844,1 -0.44098,1 -0.24254,0 -0.7191,-0.45 -1.05902,-1 z"
         id="path1682" />
      <path
         style="fill:#494949;fill-opacity:1"
         d="m 97,203.95258 c -8.490614,-1.02484 -14.58786,-2.4523 -21.464434,-5.02516 l -5.595058,-2.09338 0.779746,-3.66702 C 71.149114,191.15016 71.382376,187.025 71.238613,184 71.094851,180.975 70.73405,159.9375 70.436833,137.25 70.139617,114.5625 69.582241,95.999817 69.19822,95.999594 68.814199,95.99937 68.604967,112.53687 68.733259,132.74959 l 0.233259,36.75041 -2.205627,-3 c -1.213095,-1.65 -3.355238,-4.125 -4.760317,-5.5 l -2.554689,-2.5 -0.330841,-67.124298 c -0.24119,-48.934849 -0.0262,-67.312576 0.793369,-67.819098 0.618316,-0.38214 0.865313,-1.113706 0.548882,-1.625702 C 60.140864,21.418906 60.358524,21 60.940983,21 c 1.584781,0 2.581176,0.433524 2.380446,1.035714 -0.169859,0.509577 1.959935,0.865235 6.034538,1.007718 1.807957,0.06322 1.807957,0.119241 0,2.165536 L 67.5,27.309603 l 3,-1.904801 3,-1.904802 -1.75,2.714817 c -2.163429,3.356179 -2.331454,5.060338 -0.198715,2.015426 0.853206,-1.218123 2.432675,-2.686475 3.50993,-3.263004 1.922909,-1.02911 1.922041,-0.988199 -0.04755,2.242263 -2.738725,4.491978 -2.55268,5.881796 0.236332,1.765474 2.479751,-3.659882 5.182707,-5.266167 4.095938,-2.434092 -0.612471,1.596073 -0.481449,1.594012 1.999319,-0.03145 2.46906,-1.617788 3.61694,-3.661359 1.904746,-3.391013 -2.333512,0.368449 -4.426045,-0.369156 -6.719039,-2.368421 -2.738927,-2.388075 -4.276558,-6.876782 -2.219605,-6.479548 0.653754,0.126251 1.064995,-0.3664 0.913867,-1.094782 -0.151127,-0.728381 0.186373,-1.039323 0.75,-0.690983 0.563628,0.348341 1.587277,0.272283 2.274777,-0.169017 1.397334,-0.896936 2.762412,-1.115865 10.915476,-1.750608 5.600068,-0.435984 5.68377,-0.402526 7.25,2.89806 C 98.598792,18.064118 98.436071,20 95.86602,20 c -4.297481,0 -9.87413,2.363433 -11.526286,4.88494 -0.928606,1.417233 -2.485963,3.260399 -3.460792,4.095924 -1.827664,1.566489 -2.86101,8.6211 -1.569013,10.711594 0.386393,0.625197 0.362228,1.326403 -0.0537,1.558237 -0.415927,0.231833 -0.193731,0.284391 0.493769,0.116795 0.892077,-0.217467 1.274537,1.475909 1.335691,5.913895 C 81.132822,50.701623 81.372827,63.2875 81.619036,75.25 81.963477,91.985245 81.784371,97 80.842215,97 c -0.673461,0 -0.350966,0.676104 0.716655,1.502454 1.114923,0.862961 1.302682,1.283594 0.44113,0.988256 -1.317142,-0.451514 -1.468841,3.60153 -1.244399,33.24755 0.431455,56.98983 0.789896,60.75421 1.262772,13.26174 l 0.453038,-45.5 0.514294,49 c 0.282862,26.95 0.139408,49.27466 -0.318787,49.61036 -1.466375,1.07436 8.372734,2.98927 20.785402,4.04532 6.62622,0.56375 12.23518,1.20935 12.46435,1.43466 0.65662,0.64558 -11.74973,0.22731 -18.91667,-0.63776 z M 78,143.5 C 78,113.01345 77.660868,98 76.97222,98 75.990408,98 75.912908,127.05059 76.774137,172.25 77.37398,203.73119 78,189.04921 78,143.5 Z m -3.97947,-1.05022 c 0.04531,-33.9646 -0.231258,-45.020023 -1.133775,-45.320862 -0.907667,-0.302555 -1.039638,3.048942 -0.550747,13.986592 0.353628,7.91147 0.647692,28.52199 0.653476,45.80116 0.0058,17.27916 0.226651,31.20053 0.490816,30.93636 0.264164,-0.26416 0.507268,-20.69563 0.54023,-45.40325 z M 66.707261,95.761659 C 66.468068,94.517747 66.263283,95.3 66.252183,97.5 c -0.0111,2.2 0.184605,3.21775 0.434897,2.261659 0.250293,-0.956087 0.259374,-2.756087 0.02018,-4 z M 63.662281,93.75 c -0.277413,-0.6875 -0.504386,-0.125 -0.504386,1.25 0,1.375 0.226973,1.9375 0.504386,1.25 0.277412,-0.6875 0.277412,-1.8125 0,-2.5 z M 78.422216,28.088882 c -0.322156,-0.322155 -1.239521,0.308363 -2.038588,1.401153 -0.799068,1.09279 -1.035046,2.126159 -0.524397,2.296375 0.510649,0.170217 0.742126,1.300408 0.514394,2.511537 -0.227732,1.211129 0.271829,0.441343 1.110135,-1.710637 0.838307,-2.151979 1.260612,-4.176272 0.938456,-4.498428 z M 67.127555,25.25 C 68.371426,23.663944 68.336056,23.628574 66.75,24.872445 65.7875,25.627289 65,26.414789 65,26.622445 65,27.445479 65.821186,26.915748 67.127555,25.25 Z M 95.762414,14.748162 C 94.66061,11.587691 93,10.165265 93,12.381966 c 0,0.825 0.45734,1.782652 1.016312,2.128115 0.558971,0.345464 0.72225,1.103917 0.362841,1.685453 -0.359408,0.581536 -1.26782,-0.40377 -2.018691,-2.189568 -1.145008,-2.723172 -1.606791,-3.04642 -2.862842,-2.003991 -1.199807,0.995752 -1.845621,0.969994 -3.24762,-0.12953 -1.548375,-1.214319 -1.606981,-1.189022 -0.508676,0.219564 0.682728,0.875605 0.921445,1.911889 0.530481,2.302853 -0.390964,0.390964 0.13676,0.385587 1.172721,-0.01195 1.310525,-0.502896 1.663586,-0.36686 1.160502,0.447147 C 88.207344,15.473528 88.385081,16 89,16 c 0.614919,0 0.909594,0.3375 0.654833,0.75 -0.25476,0.4125 1.231078,0.75 3.301863,0.75 3.673699,0 3.741784,-0.06678 2.805718,-2.751838 z M 89.5,13 c 0.339919,-0.55 0.816476,-1 1.059017,-1 C 90.801558,12 91,12.45 91,13 91,13.55 90.523442,14 89.940983,14 89.358524,14 89.160081,13.55 89.5,13 Z M 83,14.622445 c 0,-0.207656 -0.7875,-0.995156 -1.75,-1.75 C 79.663944,11.628574 79.628574,11.663944 80.872445,13.25 82.178814,14.915748 83,15.445479 83,14.622445 Z m 39.75,188.715275 c 0.6875,-0.27741 1.8125,-0.27741 2.5,0 0.6875,0.27741 0.125,0.50439 -1.25,0.50439 -1.375,0 -1.9375,-0.22698 -1.25,-0.50439 z M 94.507079,193.01145 c -0.34805,-0.56315 0.04544,-0.73666 0.914416,-0.4032 1.31854,0.50597 1.566676,-1.49558 1.829999,-14.76146 l 0.30463,-15.34679 0.221938,15.75 c 0.185291,13.14932 -0.016,15.75 -1.219045,15.75 -0.792541,0 -1.715913,-0.44485 -2.051938,-0.98855 z M 105.46053,149 c 0,-25.025 0.12983,-35.2625 0.28851,-22.75 0.15868,12.5125 0.15868,32.9875 0,45.5 -0.15868,12.5125 -0.28851,2.275 -0.28851,-22.75 z m 2.99312,7.5 c -2.9e-4,-20.9 0.13234,-29.59212 0.29473,-19.31582 0.1624,10.2763 0.16264,27.3763 5.4e-4,38 -0.1621,10.6237 -0.29497,2.21582 -0.29527,-18.68418 z m 13.02823,36.31339 c -0.28554,-0.74412 -0.38973,-12.14404 -0.23154,-25.33316 l 0.28763,-23.98023 0.23101,24.75 c 0.14437,15.46627 0.60138,24.75 1.21839,24.75 0.62615,0 1.09058,-13.07872 1.26949,-35.75 l 0.28212,-35.75 -0.0195,35.91694 c -0.0151,27.82271 -0.30107,36.01073 -1.26896,36.33315 -0.68721,0.22893 -1.4831,-0.19259 -1.76865,-0.9367 z M 85.160081,191.76008 C 84.313745,190.91375 84,178.21334 84,144.8 84,99.666667 84.029112,99 86,99 c 1.97129,0 2,0.666667 2,46.44098 0,25.54254 -0.377963,46.67458 -0.839919,46.96008 -0.461955,0.28551 -1.361955,-0.003 -2,-0.64098 z M 87,146 c 0,-30 -0.347826,-46 -1,-46 -0.651961,0 -1,15.77778 -1,45.33333 C 85,185.35864 85.237192,192 86.666667,192 86.85,192 87,171.3 87,146 Z m 40.73646,46.27548 c 0.93061,-0.6599 1.30671,-9.27444 1.52046,-34.82613 l 0.28401,-33.94935 -0.0205,34.41696 c -0.0177,29.73261 -0.22463,34.47265 -1.52047,34.82613 -1.0965,0.29911 -1.1674,0.17332 -0.26354,-0.46761 z M 92.461298,146 c 0,-25.575 0.129502,-36.0375 0.287781,-23.25 0.15828,12.7875 0.15828,33.7125 0,46.5 -0.158279,12.7875 -0.287781,2.325 -0.287781,-23.25 z m 43.768402,11.25 0.22971,-33.75 0.52883,33.5 c 0.496,31.42083 0.56082,32.3518 1.0443,15 l 0.51547,-18.5 0.226,18.75 c 0.19405,16.10044 0.014,18.75 -1.27401,18.75 -1.30824,0 -1.47063,-4.31458 -1.2703,-33.75 z M 89.460533,145 c 0,-25.025 0.129829,-35.2625 0.288508,-22.75 0.158679,12.5125 0.158679,32.9875 0,45.5 -0.158679,12.5125 -0.288508,2.275 -0.288508,-22.75 z m 52.310687,37.25233 c 0.47925,-13.69842 0.88815,-15.04859 1.06068,-3.50233 0.0925,6.1875 -0.1694,11.25105 -0.5819,11.25233 -0.4125,0.001 -0.62795,-3.48622 -0.47878,-7.75 z M 145.20929,142.25 c 0.11511,-25.1625 0.43703,-41.25 0.71538,-35.75 l 0.50608,10 0.65922,-10 c 0.38884,-5.8985 0.50558,-1.42326 0.28462,10.91124 C 147.16857,128.91242 147,149.49992 147,163.16124 147,179.05375 146.63983,188 146,188 c -0.65514,0 -0.92783,-15.77714 -0.79071,-45.75 z m 3.46822,0 c 0.32291,-24.6125 0.96388,-45.425 1.42439,-46.25 0.47039,-0.842708 0.85061,8.17887 0.86769,20.58807 0.0423,30.76021 -1.13142,70.41193 -2.08433,70.41193 -0.43717,0 -0.53065,-20.1375 -0.20775,-44.75 z m 2.67634,36 c 0.33605,-3.7125 0.61891,-24.1875 0.62858,-45.5 0.0111,-24.5718 0.37539,-38.75 0.9955,-38.75 0.59197,0 1.09457,7.40016 1.27345,18.75 l 0.2955,18.75 0.22656,-18.82143 c 0.17753,-14.748295 0.53572,-19.130583 1.65513,-20.249999 C 157.21429,91.642857 158.01283,91 158.20311,91 c 0.19028,0 0.37825,21.2625 0.4177,47.25 0.0394,25.9875 -0.21933,42.075 -0.57508,35.75 l -0.6468,-11.5 -0.31778,9.5 c -0.22797,6.81513 -0.53352,8.65215 -1.08115,6.5 -0.75496,-2.96697 -0.7671,-2.95596 -1.10218,1 -0.18635,2.2 -0.59037,-5.9 -0.89782,-18 l -0.559,-22 -0.2205,22.75 c -0.15602,16.09768 -0.55051,22.75 -1.34908,22.75 -0.78698,0 -0.94364,-2.04306 -0.51757,-6.75 z m 6.32926,-23.4375 c -0.31922,-0.79773 -0.55618,-0.56078 -0.60416,0.60417 -0.0434,1.05416 0.19292,1.64479 0.52522,1.3125 0.33229,-0.3323 0.36781,-1.1948 0.0789,-1.91667 z m -0.9349,-46.50133 c -0.16828,-8.14614 -0.30635,-1.76117 -0.30682,14.18883 -4.8e-4,15.95 0.1372,22.61503 0.30596,14.81117 0.16875,-7.80385 0.16914,-20.85385 8.6e-4,-29 z M 134.45522,145 c 0,-21.725 0.13209,-30.6125 0.29353,-19.75 0.16144,10.8625 0.16144,28.6375 0,39.5 -0.16144,10.8625 -0.29353,1.975 -0.29353,-19.75 z m -40.223217,19 c 0,-1.925 0.205795,-2.7125 0.457323,-1.75 0.251527,0.9625 0.251527,2.5375 0,3.5 -0.251528,0.9625 -0.457323,0.175 -0.457323,-1.75 z M 119.4357,128.5 c 5.7e-4,-14.3 0.14102,-20.01094 0.31211,-12.69097 0.17108,7.31996 0.17062,19.01996 -0.001,26 -0.17166,6.98003 -0.31164,0.99097 -0.31107,-13.30903 z m 21.99896,-3.5 c 0,-14.025 0.14065,-19.7625 0.31255,-12.75 0.1719,7.0125 0.1719,18.4875 0,25.5 -0.1719,7.0125 -0.31255,1.275 -0.31255,-12.75 z m 1.99659,-4.5 c 6.6e-4,-13.2 0.14295,-18.46169 0.31621,-11.69265 0.17326,6.76904 0.17273,17.56904 -10e-4,24 -0.17391,6.43096 -0.31567,0.89265 -0.31502,-12.30735 z m -49.236301,8 c 0.02038,-1.65 0.244498,-2.20394 0.498042,-1.23097 0.253543,0.97297 0.236869,2.32297 -0.03705,3 C 94.382014,130.94606 94.174569,130.15 94.194949,128.5 Z m 21.884001,-2.08333 c 0.048,-1.16495 0.28494,-1.4019 0.60416,-0.60417 0.28887,0.72187 0.25335,1.58438 -0.0789,1.91667 -0.3323,0.33229 -0.56864,-0.25834 -0.52522,-1.3125 z M 94.448647,113.0817 C 94.490664,102.92115 94.772713,100.58925 96,100.25557 c 1.07541,-0.292391 1.155676,-0.16315 0.283567,0.45657 -0.804339,0.57157 -1.329895,4.91671 -1.551353,12.82613 L 94.397294,125.5 Z M 138.996,111.79662 c -0.2728,-7.53686 -0.14449,-13.350351 0.28514,-12.918865 0.42962,0.431486 0.65282,6.598005 0.49599,13.703385 L 139.49199,125.5 Z M 116.3605,114 c 0,-5.225 0.16854,-7.3625 0.37454,-4.75 0.206,2.6125 0.206,6.8875 0,9.5 -0.206,2.6125 -0.37454,0.475 -0.37454,-4.75 z m -13.28155,-11.58333 c 0.048,-1.16495 0.28494,-1.4019 0.60416,-0.60417 0.28887,0.72187 0.25335,1.58437 -0.0789,1.91667 -0.3323,0.33229 -0.56864,-0.25834 -0.52522,-1.3125 z m 29.73355,-3.099784 c 0.72187,-0.288871 1.58437,-0.253344 1.91667,0.07895 0.33229,0.332292 -0.25834,0.568641 -1.3125,0.52522 -1.16495,-0.04798 -1.4019,-0.284941 -0.60417,-0.604167 z M 159.4357,61.5 c 5.7e-4,-14.3 0.14102,-20.010938 0.31211,-12.690973 0.17108,7.319964 0.17062,19.019964 -10e-4,26 C 159.57511,81.789062 159.43513,75.8 159.4357,61.5 Z M 107,65.54484 c 0,-0.771606 2.97626,-1.392265 3.3987,-0.708752 0.25451,0.411807 -0.40608,0.814187 -1.46798,0.894177 C 107.86882,65.810256 107,65.726814 107,65.54484 Z m -2.44113,-4.076643 C 103.49125,60.660688 103.09865,60 103.68643,60 c 0.58777,0 1.62888,0.675 2.31357,1.5 1.5572,1.876316 1.06734,1.865506 -1.44113,-0.0318 z m 5.19113,0.869522 c 0.6875,-0.277412 1.8125,-0.277412 2.5,0 0.6875,0.277413 0.125,0.504386 -1.25,0.504386 -1.375,0 -1.9375,-0.226973 -1.25,-0.504386 z M 95.553869,41.75 c -1.03533,-3.375831 -1.438883,-9.158552 -0.54084,-7.75 0.52599,0.825 0.963236,2.929504 0.971658,4.676676 0.01049,2.176093 0.566524,3.320722 1.765313,3.633998 1.640089,0.428601 1.638118,0.464609 -0.03139,0.573325 C 96.738854,42.947799 95.764718,42.4375 95.553869,41.75 Z M 100,42.063168 c 0,-0.481761 0.9,-0.640573 2,-0.352917 1.83902,0.480914 2,0.03068 2,-5.59362 C 104,32.752484 104.41749,30 104.92775,30 c 0.52865,0 0.67919,2.408218 0.34995,5.598251 -0.39381,3.815699 -0.19754,5.833258 0.61642,6.33631 0.66808,0.412896 -0.36723,0.796759 -2.34996,0.871298 C 101.59487,42.87914 100,42.544929 100,42.063168 Z m 9,-0.122185 c 0,-0.582459 0.45,-0.780902 1,-0.440983 0.55,0.339919 1,0.816476 1,1.059017 C 111,42.801558 110.55,43 110,43 c -0.55,0 -1,-0.476558 -1,-1.059017 z m 3.75,0.368892 c 0.78516,-0.29933 1.25,-2.468894 1.25,-5.834191 0,-2.946708 0.44933,-5.635349 0.9985,-5.974759 0.54918,-0.33941 0.92788,0.196532 0.84156,1.190983 C 115.34454,37.400541 116.0852,42 117.5,42 c 1.139,0 1.50732,-1.263515 1.53041,-5.25 0.0237,-4.086059 0.25852,-4.858198 1.05934,-3.482761 0.56591,0.971981 0.88972,3.446981 0.71959,5.5 -0.30554,3.6869 -0.36463,3.73452 -4.80934,3.87597 -2.475,0.07876 -3.9375,-0.07124 -3.25,-0.333334 z m 11.10022,-3.894519 C 124.04336,35.98691 124.60608,34 125.10069,34 c 1.37018,0 1.07225,6.611585 -0.35116,7.792912 -0.97591,0.80993 -1.17337,0.06832 -0.89931,-3.377556 z M 85,41 C 84.101075,40.41907 83.976707,40.024489 84.689635,40.015313 85.343934,40.006891 86.055787,38.3125 86.271532,36.25 l 0.392262,-3.75 0.168103,4.166667 c 0.09246,2.291666 0.730603,4.39364 1.418103,4.671052 0.851375,0.343537 0.77165,0.524679 -0.25,0.568021 C 87.175,41.94074 85.825,41.533156 85,41 Z m 5,-1.5 c 0,-1.375 0.17254,-2.5 0.383423,-2.5 0.210882,0 0.59848,1.125 0.861328,2.5 0.262848,1.375 0.09031,2.5 -0.383423,2.5 C 90.387598,42 90,40.875 90,39.5 Z m 38.82134,-1.095344 C 129.31194,34.202278 131,33.888745 131,38 c 0,1.982776 0.50213,3 1.48087,3 1.17981,0 1.35548,-0.914832 0.86408,-4.5 -0.43407,-3.166863 -0.26279,-4.5 0.57814,-4.5 0.65722,0 0.97101,0.36234 0.6973,0.8052 -0.2737,0.442859 -0.12265,2.467859 0.33568,4.5 0.45832,2.03214 0.5432,3.758882 0.18862,3.837205 -0.35458,0.07832 -2.01182,0.260418 -3.68276,0.404656 -2.90686,0.250925 -3.0209,0.115209 -2.64059,-3.142405 z M 80.860113,40.75 c -0.07694,-0.1375 -0.236892,-1.923857 -0.355454,-3.969683 -0.133504,-2.303658 0.170057,-3.481353 0.79741,-3.093628 0.620808,0.38368 0.794525,-0.209309 0.448713,-1.531697 -0.310345,-1.186764 -0.156231,-1.905573 0.342477,-1.597355 C 83.333855,31.324368 83.247444,41 82,41 81.45,41 80.937051,40.8875 80.860113,40.75 Z M 137.20827,35.745248 C 136.91078,30.396494 134.02789,25.527827 132.56234,27.899134 132.18813,28.50461 132.38508,29 133,29 c 0.61492,0 0.83394,0.459673 0.48672,1.021495 -0.37127,0.600721 -1.35697,0.125363 -2.39294,-1.154004 -1.55089,-1.915269 -1.83753,-1.977649 -2.39631,-0.521495 C 128.34839,29.255698 128.5252,30 129.0904,30 c 0.5652,0 0.7138,0.507787 0.33023,1.128416 -0.47636,0.770771 -0.98763,0.609789 -1.61313,-0.50792 -0.50366,-0.899984 -0.59686,-2.152301 -0.20711,-2.782924 0.4212,-0.681516 0.26837,-0.874495 -0.37678,-0.475769 -0.59698,0.368952 -1.33692,0.263881 -1.64431,-0.233489 -0.30739,-0.497371 0.78652,-1.101775 2.4309,-1.343119 1.7356,-0.254731 2.99622,0.0129 3.00511,0.637998 0.008,0.592244 0.43095,0.4197 0.93895,-0.38343 0.78908,-1.247495 1.26034,-1.178516 3.23469,0.473467 1.27108,1.063537 1.74855,1.293143 1.06105,0.510236 -0.6875,-0.782906 -1.25,-1.810024 -1.25,-2.282483 0,-0.472459 0.5625,-0.521078 1.25,-0.108042 0.84936,0.510277 0.81011,0.208678 -0.12244,-0.940983 -1.60884,-1.983383 -2.51967,-2.23304 -1.61242,-0.441958 0.34825,0.6875 0.0373,0.535503 -0.69098,-0.337771 -0.72829,-0.873274 -1.88666,-1.398274 -2.57416,-1.166667 -0.6875,0.231608 -1.25,-0.05227 -1.25,-0.630844 0,-0.578572 -0.65345,-0.801196 -1.45211,-0.49472 -1.95843,0.751517 -3.75716,-0.475617 -2.84232,-1.939096 0.406,-0.649496 0.82958,-1.784636 0.94127,-2.522533 0.3007,-1.986452 1.56116,-2.842632 2.0734,-1.408369 0.24553,0.6875 0.92867,1.25 1.51808,1.25 0.58941,0 0.24025,-0.918694 -0.77592,-2.041543 l -1.84757,-2.041543 -1.32663,2.291543 c -1.16438,2.01128 -1.29371,2.049682 -1.05742,0.313985 0.14807,-1.087657 -0.29328,-2.043907 -0.98078,-2.125 -0.6875,-0.08109 -1.5875,-0.256981 -2,-0.390863 -0.4125,-0.133882 -1.0125,-0.215132 -1.33333,-0.180556 -0.32084,0.03458 -0.58334,-0.562828 -0.58334,-1.327565 0,-1.0384192 0.46414,-1.1420306 1.83334,-0.409261 C 123.39564,10.746926 124,10.729121 124,10.035184 124,9.4658327 124.45,9 125,9 c 0.55,0 1,0.5997965 1,1.332881 0,1.457078 2.72197,1.575022 4.9251,0.213407 1.0825,-0.6690211 1.25688,-0.350197 0.78837,1.441391 -0.45154,1.726716 -0.31625,2.015105 0.54248,1.156371 1.81514,-1.815144 3.13076,-1.327183 1.63373,0.60595 -1.02236,1.320178 -0.76517,1.258775 1.04712,-0.25 2.28119,-1.899144 2.36741,-1.904618 1.70987,-0.108556 -0.5647,1.542489 -0.43304,1.676148 0.71365,0.724476 1.095,-0.908766 1.53421,-0.833163 1.98504,0.341698 0.31841,0.829765 1.18686,1.275381 1.92988,0.990256 0.74302,-0.285124 2.18682,0.405216 3.20844,1.534091 1.82022,2.011324 1.80313,2.109231 -0.85197,4.88056 -2.50873,2.618553 -2.5841,2.932097 -1.01735,4.232381 0.93065,0.772376 2.28053,2.754494 2.99973,4.404707 0.73244,1.680611 1.32484,2.264366 1.34677,1.327112 0.0215,-0.920301 -1.16673,-3.106371 -2.64057,-4.857934 -2.29913,-2.732351 -2.41064,-3.132839 -0.78517,-2.819803 1.042,0.200671 2.92287,1.890789 4.17971,3.755817 1.25684,1.865029 2.28517,2.90894 2.28517,2.319804 0,-0.589137 -1.12462,-2.407688 -2.49914,-4.041223 -2.09832,-2.493706 -2.25038,-3.065528 -0.94807,-3.565271 0.8531,-0.327363 1.31333,-0.210502 1.02273,0.259693 -0.2906,0.470194 0.41414,1.702539 1.56609,2.738545 1.15195,1.036006 2.46281,2.783647 2.91303,3.883647 0.6143,1.500883 0.83441,1.596928 0.88197,0.384859 0.0349,-0.888328 -0.86748,-2.798551 -2.00521,-4.24494 -1.76067,-2.238331 -1.81068,-2.530825 -0.33595,-1.96492 1.30563,0.501019 1.52925,0.314934 0.90734,-0.75506 -0.45391,-0.780967 0.37227,-0.328998 1.83596,1.004375 1.46369,1.333373 2.66125,2.881881 2.66125,3.44113 0,0.559248 -0.66069,0.143307 -1.4682,-0.924314 -0.8075,-1.067622 -1.4825,-1.405188 -1.5,-0.750147 -0.0175,0.655041 0.4182,1.469098 0.9682,1.809017 0.55,0.339919 1.04058,1.603976 1.09019,2.809017 0.0668,1.62327 0.33334,1.348865 1.02859,-1.059017 1.14296,-3.958432 2.10875,-4.297962 1.42225,-0.5 -0.30099,1.665168 0.0789,1.172062 0.96308,-1.25 l 1.46017,-4 -0.52895,5 c -0.37554,3.54987 -1.16359,5.48771 -2.7172,6.681607 -1.20354,0.924884 -2.37857,1.491288 -2.61118,1.258676 -0.23261,-0.232612 -1.02684,0.07827 -1.76494,0.690838 C 151.6039,37.743693 151,37.909689 151,37.5 c 0,-0.409689 -0.675,-0.184689 -1.5,0.5 -0.825,0.684689 -1.5,0.909689 -1.5,0.5 0,-0.409689 -0.5625,-0.319403 -1.25,0.200636 -0.6875,0.520038 -2.15,0.986655 -3.25,1.036926 -1.6897,0.07722 -2.04298,-0.630956 -2.27702,-4.564389 -0.15782,-2.652438 -0.96426,-5.304969 -1.87415,-6.164481 -1.44979,-1.369512 -1.5228,-1.231935 -0.79137,1.491308 1.14837,4.275583 1.11736,9.75406 -0.0575,10.151877 -0.56009,0.189656 -1.12834,-1.968822 -1.29173,-4.906629 z M 150.68311,32.8125 c -0.31922,-0.797733 -0.55618,-0.560776 -0.60416,0.604167 -0.0434,1.054166 0.19292,1.644791 0.52522,1.3125 0.33229,-0.332292 0.36781,-1.194792 0.0789,-1.916667 z M 143.6,29.4 c -0.35589,-0.927441 -0.87208,-1.461256 -1.14708,-1.186256 -0.275,0.275 -0.20881,1.258815 0.14708,2.186256 0.35589,0.927441 0.87208,1.461256 1.14708,1.186256 0.275,-0.275 0.20881,-1.258815 -0.14708,-2.186256 z M 141,27.622445 c 0,-0.207656 -0.7875,-0.995156 -1.75,-1.75 C 137.66394,24.628574 137.62857,24.663944 138.87244,26.25 140.17881,27.915748 141,28.445479 141,27.622445 Z m -41.315599,9.025371 c -0.447352,-2.118701 -0.559349,-4.106201 -0.248884,-4.416666 1.131593,-1.131598 1.689903,0.656383 1.379713,4.418529 L 100.49777,40.5 Z M 109,30 c 0,-1.65 0.17393,-3 0.3865,-3 0.21258,0 0.58464,1.35 0.82681,3 0.24217,1.65 0.0682,3 -0.3865,3 C 109.37206,33 109,31.65 109,30 Z m -18.541119,0.933469 c -0.362533,-0.586592 -0.444683,-1.281 -0.182555,-1.543128 0.262128,-0.262129 0.743066,0.21781 1.068751,1.066531 0.676184,1.762107 0.09985,2.072058 -0.886196,0.476597 z m -3.821722,-1.436635 c -0.568706,-1.482022 -0.901492,-1.532131 -2.387258,-0.359458 -1.6217,1.279961 -1.6289,1.210963 -0.118687,-1.137376 0.88426,-1.375 2.45398,-2.656179 3.488266,-2.847065 1.519258,-0.280391 1.640385,-0.09789 0.63052,0.95 -2.049212,2.126368 -1.418729,3.053595 1,1.470661 3.074786,-2.01229 5.914965,-1.392459 6.916471,1.509428 0.739836,2.143693 0.683194,2.223041 -0.500957,0.701774 -1.016268,-1.305589 -1.613376,-1.436936 -2.500312,-0.55 C 92.278266,30.121734 92,30.113424 92,29.2 c 0,-1.759977 -2.753205,-1.463416 -3.801318,0.409458 -0.816455,1.458925 -0.962505,1.448392 -1.561523,-0.112624 z m 35.944091,-0.145706 c -0.82718,-2.155587 -0.37537,-2.468726 1.15879,-0.803133 0.68203,0.740452 0.84168,1.592481 0.35479,1.893397 -0.48689,0.300917 -1.16801,-0.189702 -1.51358,-1.090264 z m -4.92333,-0.8002 c -0.37092,-0.966605 -0.0755,-1.264666 0.88726,-0.895216 0.79383,0.304622 1.19436,0.956704 0.89006,1.449073 -0.76643,1.240103 -1.13272,1.125958 -1.77732,-0.553857 z M 97.333333,27.333333 C 97.333333,26.6 97.660188,26 98.059678,26 c 0.399489,0 0.956586,0.6 1.237992,1.333333 0.281407,0.733334 -0.04545,1.333334 -0.726344,1.333334 -0.680896,0 -1.237993,-0.6 -1.237993,-1.333334 z M 101.5,28 c 0.33992,-0.55 0.81648,-1 1.05902,-1 0.24254,0 0.44098,0.45 0.44098,1 0,0.55 -0.47656,1 -1.05902,1 -0.58246,0 -0.7809,-0.45 -0.44098,-1 z m 56.06429,-6.706872 c -0.54268,-1.425198 -0.42782,-1.540062 0.5598,-0.559795 0.68342,0.678334 0.99067,1.485241 0.68278,1.793128 -0.30789,0.307888 -0.86705,-0.247112 -1.24258,-1.233333 z m -36.96864,-2.904469 c -0.44245,-1.153001 -0.18844,-1.446374 0.89301,-1.031384 C 122.3199,17.67625 123,17.501354 123,16.968615 123,16.435877 122.52344,16 121.94098,16 c -0.58246,0 -0.79104,-0.433586 -0.46352,-0.963525 0.34072,-0.551303 1.36685,-0.230433 2.39846,0.75 1.23195,1.170841 1.49833,2.109408 0.84108,2.963525 -1.33875,1.739746 -3.3839,1.560437 -4.12135,-0.361341 z m -20.864437,-1.3085 c -0.434974,-1.663345 -0.304831,-2.053777 0.437237,-1.311709 0.5811,0.581102 0.85979,1.646819 0.61931,2.36826 -0.24965,0.748946 -0.70294,0.295653 -1.056547,-1.056551 z m 14.339077,1.228858 C 114.10894,17.864058 114.52731,16.6 115,15.5 c 0.82859,-1.928236 0.86195,-1.921383 0.92971,0.190983 C 115.96837,16.896024 115.55,18.160081 115,18.5 c -0.55,0.339919 -0.96837,0.253976 -0.92971,-0.190983 z m -11.44675,-2.847676 c -0.96498,-2.514694 -0.68031,-3.163555 0.49853,-1.136338 0.58369,1.003751 0.8506,2.035659 0.59313,2.293128 -0.25747,0.257469 -0.74872,-0.263087 -1.09166,-1.15679 z M 105.232,12 c 0,-1.925 0.2058,-2.7125 0.45733,-1.75 0.25152,0.9625 0.25152,2.5375 0,3.5 C 105.4378,14.7125 105.232,13.925 105.232,12 Z m 6.84695,0.416667 c 0.048,-1.164943 0.28494,-1.4019 0.60416,-0.604167 0.28887,0.721875 0.25335,1.584375 -0.0789,1.916667 -0.3323,0.332291 -0.56864,-0.258334 -0.52522,-1.3125 z M 97.232073,11 C 96.545112,9.9 96.346865,9 96.791526,9 97.833304,9 100,11.160974 100,12.2 100,13.673397 98.493849,13.020424 97.232073,11 Z M 101,10.5 C 100.28245,9.6354069 100.18526,9 100.77057,9 c 0.5585,0 1.27447,0.675 1.59106,1.5 0.31658,0.825 0.41982,1.5 0.22943,1.5 C 102.40067,12 101.68469,11.325 101,10.5 Z M 116.5,10 C 116.16008,9.45 116.35852,9 116.94098,9 117.52344,9 118,9.45 118,10 c 0,0.55 -0.19844,1 -0.44098,1 -0.24254,0 -0.7191,-0.45 -1.05902,-1 z"
         id="path1680" />
      <path
         style="fill:#333333;fill-opacity:1"
         d="M 100.46682,203.07574 C 92.07415,202.26895 80.775082,199.91782 82.5,199.33716 83.15342,199.1172 83.410193,181.75808 83.240876,149.25027 83.005094,103.98155 82.830235,99.387399 81.299746,98.25 80.308037,97.513001 80.120266,97 80.842215,97 81.784371,97 81.963477,91.985245 81.619036,75.25 81.372827,63.2875 81.132822,50.701623 81.085691,47.281385 81.010588,41.831154 80.783766,41.132329 79.25,41.625717 c -1.326452,0.426699 -1.423144,0.329281 -0.399509,-0.402509 0.842934,-0.602607 2.865651,-0.625022 5.381976,-0.05964 2.217317,0.498198 4.118174,0.777704 4.224127,0.621124 0.105953,-0.15658 0.710045,-3.1821 1.342426,-6.723378 0.632381,-3.541278 1.855797,-7.141278 2.718703,-8 1.424979,-1.41807 1.435928,-1.286077 0.119338,1.438687 -0.797271,1.65 -1.758992,5.3625 -2.13716,8.25 C 89.860693,41.630683 89.959618,42 91.906162,42 93.461709,42 94,41.369945 94,39.549221 94,35.463142 96.102798,27 97.118048,27 c 0.556957,0 0.498241,0.848454 -0.141432,2.043693 -0.601563,1.124031 -1.179895,4.595729 -1.285183,7.714886 -0.155671,4.611736 0.123535,5.735852 1.494565,6.017306 1.297947,0.26645 1.777119,-0.531032 2.081897,-3.464886 L 99.663794,35.5 99.831897,39.238884 100,42.977767 112.25,42.608565 c 6.7375,-0.203061 12.475,-0.466987 12.75,-0.586501 0.275,-0.119514 2.075,-0.216147 4,-0.214738 1.925,0.0014 5.75,-0.468849 8.5,-1.045015 2.75,-0.576166 5.9,-1.15096 7,-1.27732 1.1,-0.126359 2.1125,-0.343425 2.25,-0.482368 0.1375,-0.138943 0.7,-0.365123 1.25,-0.502623 0.55,-0.1375 1.225,-0.3625 1.5,-0.5 0.275,-0.1375 0.95,-0.3625 1.5,-0.5 0.55,-0.1375 1.225,-0.3625 1.5,-0.5 0.275,-0.1375 0.8375,-0.322196 1.25,-0.410435 2.49821,-0.534403 5.15522,-2.901359 5.43016,-4.837372 0.17591,-1.238706 0.16642,11.455512 -0.0211,28.209373 -0.31747,28.366111 -0.4707,30.574115 -2.22737,32.097673 -1.70288,1.4769 -1.91526,3.475451 -2.18252,20.538431 L 154.45312,131.5 154.22656,112.75 C 154.0854,101.06771 153.62306,94 153,94 c -0.64916,0 -1.00617,13.59505 -1.01757,38.75 -0.01,21.3125 -0.29253,41.7875 -0.62858,45.5 -0.42607,4.70694 -0.26941,6.75 0.51757,6.75 0.79857,0 1.19306,-6.65232 1.34908,-22.75 l 0.2205,-22.75 0.559,22 c 0.30745,12.1 0.72565,20.2 0.92933,18 0.35412,-3.82489 0.39606,-3.86867 0.95788,-1 0.37219,1.90037 0.79692,-0.48218 1.15875,-6.5 l 0.57121,-9.5 0.19141,12.10212 c 0.17521,11.0774 9.1e-4,12.38237 -2.05858,15.41196 -2.95084,4.34082 -12.51631,9.54079 -21.17939,11.51351 -8.42271,1.91799 -23.25313,2.59122 -34.10379,1.54815 z M 97.759888,147.25 C 97.533225,106.47662 97.308237,100.5 96,100.5 c -1.315339,0 -1.468194,5.66295 -1.24164,46 0.142098,25.3 0.254598,46.3375 0.25,46.75 -0.0046,0.4125 0.67109,0.75 1.501528,0.75 1.328693,0 1.478701,-5.61029 1.25,-46.75 z m 5.253762,2.5 c 0.008,-24.3375 0.285,-45.2625 0.61664,-46.5 0.48628,-1.81458 0.19336,-2.25 -1.51366,-2.25 H 100 v 46.5 c 0,40.66667 0.18817,46.5 1.5,46.5 1.31053,0 1.50172,-5.5894 1.51365,-44.25 z M 109,147.5 c 0,-45.83333 -0.0287,-46.5 -2,-46.5 -1.97133,0 -2,0.66667 -2,46.5 0,45.83333 0.0287,46.5 2,46.5 1.97133,0 2,-0.66667 2,-46.5 z m 5,0 c 0,-40.66667 -0.18817,-46.5 -1.5,-46.5 -1.31183,0 -1.5,5.83333 -1.5,46.5 0,40.66667 0.18817,46.5 1.5,46.5 1.31183,0 1.5,-5.83333 1.5,-46.5 z m 5.33874,16.33711 C 119.70244,147.24751 120,126.32251 120,117.33711 120,101.66667 119.91839,101 118,101 c -1.97133,0 -2,0.66667 -2,46.5 0,38.17731 0.23961,46.5 1.33874,46.5 1.07413,0 1.46946,-5.96214 2,-30.16289 z m 5.42109,-17.07923 c 0.24567,-44.03816 0.16395,-46.55047 -1.5,-46.11117 -1.64049,0.43311 -1.78366,3.54179 -2.11116,45.84049 -0.19323,24.95674 -0.0395,45.88044 0.34164,46.49713 0.38114,0.61668 1.21423,0.94756 1.85133,0.73529 0.8507,-0.28345 1.22737,-12.75649 1.41819,-46.96174 z M 88,145.44098 C 88,99.666667 87.97129,99 86,99 c -1.970888,0 -2,0.666667 -2,45.8 0,45.09721 0.284218,49.37845 3.160081,47.60106 C 87.622037,192.11556 88,170.98352 88,145.44098 Z m 4.759987,0.72585 C 93.01791,100.36649 93.003873,100 90.991673,100 c -2.009076,0 -2.027767,0.43479 -1.97193,45.87139 0.031,25.22927 0.348621,46.16364 0.705814,46.52083 2.48427,2.48427 2.786009,-2.1123 3.03443,-46.22539 z m 37.000003,0 C 129.98874,105.54582 129.83859,100 128.50999,100 127.18495,100 127,105.70566 127,146.58333 c 0,36.82214 0.26193,46.49606 1.25,46.16684 0.97088,-0.3235 1.30806,-10.72555 1.50999,-46.58334 z m 4.59755,39.68648 C 134.71089,182.47263 135,161.54763 135,139.35331 135,104.15037 134.80855,99 133.5,99 c -1.31183,0 -1.5,5.83333 -1.5,46.5 0,42.92445 0.74893,55.74368 2.35754,40.35331 z m 4.92171,-40.54933 c 0.32807,-25.13281 0.38504,-46.03816 0.12659,-46.456328 -0.25844,-0.418167 -1.01798,-0.549268 -1.68787,-0.291336 -0.92509,0.356199 -1.30952,11.527194 -1.59868,46.456324 C 135.78818,185.00858 135.93037,191 137.21067,191 c 1.26595,0 1.55562,-6.39914 2.06858,-45.69602 z m 3.72323,34.94602 c 0.001,-5.3625 0.29913,-26.3013 0.66169,-46.53066 0.61,-34.034969 0.53516,-36.733061 -1.00248,-36.143012 C 141.14617,98.157886 141,102.251 141,144.10699 141,174.03566 141.34786,190 142,190 c 0.59812,0 1.001,-3.91832 1.00248,-9.75 z M 147,163.16124 c 0,-13.66132 0.29698,-34.37482 0.65996,-46.03 0.60709,-19.493733 0.52699,-21.140209 -1,-20.554248 C 145.14708,97.157537 145,101.23605 145,142.60699 145,172.20233 145.34802,188 146,188 c 0.63983,0 1,-8.94625 1,-24.83876 z m 3.34005,-0.32317 c 0.93503,-34.23325 0.82627,-68.418847 -0.21408,-67.28807 -1.09621,1.191494 -2.31724,91.45 -1.23715,91.45 0.43521,0 1.08826,-10.87287 1.45123,-24.16193 z M 117.81446,64.614669 C 120.22196,63.126755 117.77705,62 112.14098,62 c -3.15754,0 -6.28419,-0.543214 -6.94812,-1.207143 -1.79649,-1.79649 -5.00612,1.522297 -3.37406,3.48881 1.23404,1.486922 13.70838,1.746617 15.99566,0.333002 z m 39.26449,90.802001 c 0.048,-1.16495 0.28494,-1.4019 0.60416,-0.60417 0.28887,0.72187 0.25335,1.58437 -0.0789,1.91667 -0.3323,0.33229 -0.56864,-0.25834 -0.52522,-1.3125 z M 156.44139,122.5 c 4.7e-4,-15.95 0.13854,-22.33497 0.30682,-14.18883 0.16828,8.14615 0.16789,21.19615 -8.6e-4,29 -0.16876,7.80386 -0.30644,1.13883 -0.30596,-14.81117 z m 1.7165,-15.5 c 0,-1.375 0.22698,-1.9375 0.50439,-1.25 0.27741,0.6875 0.27741,1.8125 0,2.5 -0.27741,0.6875 -0.50439,0.125 -0.50439,-1.25 z m -0.0789,-4.58333 c 0.048,-1.16495 0.28494,-1.4019 0.60416,-0.60417 0.28887,0.72187 0.25335,1.58437 -0.0789,1.91667 -0.3323,0.33229 -0.56864,-0.25834 -0.52522,-1.3125 z M 158.15789,94 c 0,-1.375 0.22698,-1.9375 0.50439,-1.25 0.27741,0.6875 0.27741,1.8125 0,2.5 -0.27741,0.6875 -0.50439,0.125 -0.50439,-1.25 z M 85.116903,36.717881 C 84.966759,31.860324 87.396023,26 89.559757,26 c 1.380049,0 1.304817,0.296715 -0.44371,1.75 -1.373139,1.141282 -2.414527,3.663115 -2.993881,7.25 -0.781578,4.838894 -0.902412,5.045386 -1.005263,1.717881 z M 76.076346,35 c -0.01783,-0.825 0.851569,-3.447958 1.932002,-5.828795 2.324192,-5.121579 0.65908,-5.240035 -2.758348,-0.196229 -2.789012,4.116322 -2.975057,2.726504 -0.236332,-1.765474 1.969588,-3.230462 1.970456,-3.271373 0.04755,-2.242263 -1.077255,0.576529 -2.656724,2.044881 -3.50993,3.263004 -2.132739,3.044912 -1.964714,1.340753 0.198715,-2.015426 L 73.5,23.5 l -3,1.904802 -3,1.904801 1.855967,-2.100635 c 1.807957,-2.046295 1.807957,-2.102314 0,-2.165536 -4.661717,-0.163014 -6.200114,-0.547379 -6.034538,-1.507718 0.09821,-0.569643 -0.483801,-0.889923 -1.293367,-0.711735 -1.06809,0.235091 -0.930907,-0.28488 0.5,-1.89518 2.080582,-2.341424 7.947304,-5.224197 12.971938,-6.374113 2.824795,-0.646471 2.883841,-0.600293 1.011028,0.790698 -1.093934,0.812496 -2.307911,1.280149 -2.697726,1.03923 -0.389815,-0.240919 -0.518439,0.586485 -0.285831,1.838676 0.682119,3.672023 5.427848,7.174437 9.472529,6.990858 0.275,-0.01248 0.95,0.496729 1.5,1.131579 0.684879,0.790537 0.290978,2.560308 -1.25,5.616163 -2.529964,5.017076 -3.051806,3.892865 -0.750088,-1.615922 l 1.499912,-3.589795 -2.249912,1.487264 C 80.51246,27.061433 78.736973,29.703794 77.804384,32.115351 76.871795,34.526908 76.094178,35.825 76.076346,35 Z m 53.081544,-2 c 0,-1.375 0.22698,-1.9375 0.50439,-1.25 0.27741,0.6875 0.27741,1.8125 0,2.5 -0.27741,0.6875 -0.50439,0.125 -0.50439,-1.25 z m 20.92106,0.416667 c 0.048,-1.164943 0.28494,-1.4019 0.60416,-0.604167 0.28887,0.721875 0.25335,1.584375 -0.0789,1.916667 -0.3323,0.332291 -0.56864,-0.258334 -0.52522,-1.3125 z M 124.15789,32 c 0,-1.375 0.22698,-1.9375 0.50439,-1.25 0.27741,0.6875 0.27741,1.8125 0,2.5 -0.27741,0.6875 -0.50439,0.125 -0.50439,-1.25 z M 146,31.555764 c 0,-0.79433 -1.09335,-2.70683 -2.42967,-4.25 L 141.14067,24.5 l 2.60025,-2.732768 c 2.54673,-2.676522 2.56201,-2.775013 0.74276,-4.785267 -1.02162,-1.128875 -2.46542,-1.819215 -3.20844,-1.534091 -0.74302,0.285125 -1.61147,-0.160491 -1.92988,-0.990256 -0.45083,-1.174861 -0.89004,-1.250464 -1.98504,-0.341698 -1.14669,0.951672 -1.27835,0.818013 -0.71365,-0.724476 0.65754,-1.796062 0.57132,-1.790588 -1.70987,0.108556 -1.81229,1.508775 -2.06948,1.570178 -1.04712,0.25 1.49703,-1.933133 0.18141,-2.421094 -1.63373,-0.60595 -0.85873,0.858734 -1.01377,0.645868 -0.62167,-0.853543 0.50682,-1.938077 0.73606,-1.953794 7.69405,-0.527532 8.51785,1.746004 16.13721,5.369857 17.79215,8.462151 1.62232,3.031319 2.88939,8.899008 1.77262,8.208805 -0.49121,-0.303581 -0.92473,0.262093 -0.96339,1.257052 C 157.86698,31.305755 157.76715,31.285248 157,29.5 c -0.79463,-1.8492 -0.87348,-1.811499 -1.04572,0.5 -0.15634,2.098224 -0.26359,2.178579 -0.66735,0.5 -0.26458,-1.1 -0.88738,-2.4275 -1.38399,-2.95 -0.49662,-0.5225 -0.88863,-1.4225 -0.87114,-2 0.0175,-0.5775 0.6925,-0.176492 1.5,0.89113 0.80751,1.067621 1.4682,1.483562 1.4682,0.924314 0,-0.559249 -1.19756,-2.107757 -2.66125,-3.44113 -1.46369,-1.333373 -2.28987,-1.785342 -1.83596,-1.004375 0.62191,1.069994 0.39829,1.256079 -0.90734,0.75506 -1.47473,-0.565905 -1.42472,-0.273411 0.33595,1.96492 1.13773,1.446389 2.04008,3.356612 2.00521,4.24494 -0.0476,1.212069 -0.26767,1.116024 -0.88197,-0.384859 -0.45022,-1.1 -1.76108,-2.847641 -2.91303,-3.883647 -1.15195,-1.036006 -1.85669,-2.268351 -1.56609,-2.738545 0.2906,-0.470195 -0.16963,-0.587056 -1.02273,-0.259693 -1.30231,0.499743 -1.15025,1.071565 0.94807,3.565271 1.37452,1.633535 2.49914,3.452086 2.49914,4.041223 0,0.589136 -1.02833,-0.454775 -2.28517,-2.319804 -1.25684,-1.865028 -3.13771,-3.555146 -4.17971,-3.755817 -1.62547,-0.313036 -1.51396,0.08745 0.78517,2.819803 C 146.70644,29.804572 147.86128,33 146.5,33 146.225,33 146,32.350094 146,31.555764 Z m -46,-1.496747 c 0,-1.067541 0.38499,-2.178923 0.85554,-2.469738 0.47055,-0.290815 0.64309,0.582628 0.38343,1.940983 C 100.67495,32.480722 100,32.768771 100,30.059017 Z m 19.07895,0.35765 c 0.048,-1.164943 0.28494,-1.4019 0.60416,-0.604167 0.28887,0.721875 0.25335,1.584375 -0.0789,1.916667 -0.3323,0.332291 -0.56864,-0.258334 -0.52522,-1.3125 z m -5,-1 c 0.048,-1.164943 0.28494,-1.4019 0.60416,-0.604167 0.28887,0.721875 0.25335,1.584375 -0.0789,1.916667 -0.3323,0.332291 -0.56864,-0.258334 -0.52522,-1.3125 z m -9,-1 c 0.048,-1.164943 0.28494,-1.4019 0.60416,-0.604167 0.28887,0.721875 0.25335,1.584375 -0.0789,1.916667 -0.3323,0.332291 -0.56864,-0.258334 -0.52522,-1.3125 z M 134.87244,26.25 C 133.62857,24.663944 133.66394,24.628574 135.25,25.872445 136.91575,27.178814 137.44548,28 136.62244,28 c -0.20765,0 -0.99515,-0.7875 -1.75,-1.75 z m 4,0 C 137.62857,24.663944 137.66394,24.628574 139.25,25.872445 140.91575,27.178814 141.44548,28 140.62244,28 c -0.20765,0 -0.99515,-0.7875 -1.75,-1.75 z M 65,26.622445 c 0,-0.207656 0.7875,-0.995156 1.75,-1.75 C 68.336056,23.628574 68.371426,23.663944 67.127555,25.25 65.821186,26.915748 65,27.445479 65,26.622445 Z M 134.87244,23.25 C 133.62857,21.663944 133.66394,21.628574 135.25,22.872445 136.91575,24.178814 137.44548,25 136.62244,25 c -0.20765,0 -0.99515,-0.7875 -1.75,-1.75 z M 124,19.622445 c 0,-0.207656 0.7875,-0.995156 1.75,-1.75 1.58606,-1.243871 1.62143,-1.208501 0.37756,0.377555 C 124.82119,19.915748 124,20.445479 124,19.622445 Z m -11.92105,-4.205778 c 0.048,-1.164943 0.28494,-1.4019 0.60416,-0.604167 0.28887,0.721875 0.25335,1.584375 -0.0789,1.916667 -0.3323,0.332291 -0.56864,-0.258334 -0.52522,-1.3125 z m 6,0 c 0.048,-1.164943 0.28494,-1.4019 0.60416,-0.604167 0.28887,0.721875 0.25335,1.584375 -0.0789,1.916667 -0.3323,0.332291 -0.56864,-0.258334 -0.52522,-1.3125 z M 81.073886,13.589028 c -1.731235,-2.086011 0.732929,-3.267457 2.525647,-1.210924 0.774185,0.888114 0.866003,1.16636 0.204038,0.618325 C 81.936942,11.451059 80.607574,11.822229 82,13.5 c 0.684689,0.825 1.019889,1.5 0.744889,1.5 -0.275,0 -1.026951,-0.634938 -1.671003,-1.410972 z M 85.872445,12.25 C 84.628574,10.663944 84.663944,10.628574 86.25,11.872445 87.915748,13.178814 88.445479,14 87.622445,14 c -0.207656,0 -0.995156,-0.7875 -1.75,-1.75 z M 119,12.289111 c 0,-0.574322 0.7875,-1.661822 1.75,-2.4166663 1.61876,-1.2695155 1.63998,-1.2224508 0.28297,0.6275553 -0.80687,1.1 -1.59437,2.1875 -1.75,2.416667 C 119.12734,13.145833 119,12.863433 119,12.289111 Z m 7,-1.45623 C 126,10.374796 127.2,10 128.66667,10 c 1.46666,0 2.3575,0.309167 1.97963,0.687038 C 129.64075,11.69258 126,11.80686 126,10.832881 Z"
         id="path1678" />
    </g>
  </g>
</svg>
