<?xml version="1.0" encoding="UTF-8" standalone="no"?>
<!-- Created with Inkscape (http://www.inkscape.org/) -->

<svg
   width="100mm"
   height="100mm"
   viewBox="0 0 100 100"
   version="1.1"
   id="svg4252"
   inkscape:version="1.1.1 (3bf5ae0d25, 2021-09-20)"
   sodipodi:docname="add_list_type_device_615d.svg"
   xmlns:inkscape="http://www.inkscape.org/namespaces/inkscape"
   xmlns:sodipodi="http://sodipodi.sourceforge.net/DTD/sodipodi-0.dtd"
   xmlns="http://www.w3.org/2000/svg"
   xmlns:svg="http://www.w3.org/2000/svg">
  <sodipodi:namedview
     id="namedview4254"
     pagecolor="#ffffff"
     bordercolor="#666666"
     borderopacity="1.0"
     inkscape:pageshadow="2"
     inkscape:pageopacity="0.0"
     inkscape:pagecheckerboard="0"
     inkscape:document-units="mm"
     showgrid="false"
     width="100mm"
     inkscape:zoom="0.58974467"
     inkscape:cx="378.97757"
     inkscape:cy="194.99964"
     inkscape:window-width="1440"
     inkscape:window-height="890"
     inkscape:window-x="-6"
     inkscape:window-y="-6"
     inkscape:window-maximized="1"
     inkscape:current-layer="layer1" />
  <defs
     id="defs4249" />
  <g
     inkscape:label="Laag 1"
     inkscape:groupmode="layer"
     id="layer1">
    <g
       id="g4268"
       transform="translate(-0.95452904,0.61200653)">
      <path
         style="fill:#d0d0d0;fill-opacity:1;stroke-width:0.59691"
         d="m 19.939418,93.251295 c 0.194039,-0.313962 0.747111,-0.419526 1.229047,-0.234591 1.23388,0.473486 1.088479,0.805434 -0.352798,0.805434 -0.675976,0 -1.070288,-0.25688 -0.876249,-0.570843 z M 13.61184,90.986817 c -0.742478,-0.946734 -0.721366,-0.967847 0.225366,-0.225369 0.574526,0.450577 1.044592,0.920644 1.044592,1.044592 0,0.49128 -0.490174,0.175079 -1.269958,-0.819223 z m 1.790729,-2.387638 c -0.742478,-0.946735 -0.721366,-0.967847 0.225366,-0.225369 0.574526,0.450577 1.044592,0.920643 1.044592,1.044591 0,0.491281 -0.490174,0.17508 -1.269958,-0.819222 z m 19.003063,-1.492274 c 0.236615,-1.235663 0.61169,-1.352544 4.691076,-1.461814 2.438645,-0.06533 4.904607,-0.401231 5.479917,-0.746453 0.753563,-0.452189 -0.497705,-0.520207 -4.475396,-0.243271 l -5.521414,0.384416 v -1.577919 c 0,-1.503657 0.146086,-1.577918 3.10393,-1.577918 2.271003,0 2.926451,-0.177479 2.442548,-0.661382 -0.364647,-0.364646 -1.891157,-0.563572 -3.402384,-0.443379 -1.82575,0.145205 -2.741003,-0.01628 -2.741003,-0.483622 0,-0.38589 -0.178471,-1.166701 -0.396602,-1.735144 -0.334562,-0.871858 -0.147819,-0.971089 1.193819,-0.634354 0.874732,0.219543 1.590421,0.154558 1.590421,-0.144404 0,-0.679576 -2.83886,-1.430399 -3.608909,-0.954483 -0.313202,0.193572 -0.569458,0.03205 -0.569458,-0.358939 0,-0.390982 -0.998667,-1.652748 -2.21926,-2.803912 l -2.219259,-2.093033 1.961269,1.014215 c 1.078699,0.557818 2.278823,0.900533 2.666942,0.761597 0.38812,-0.138943 -0.798109,-0.973249 -2.636063,-1.854019 -4.313376,-2.067021 -8.065907,-5.774593 -10.02416,-9.904068 -2.162388,-4.559943 -2.18453,-11.98431 -0.04896,-16.415014 1.896696,-3.935101 6.115909,-8.091809 9.991262,-9.84325 3.113602,-1.407172 4.452682,-2.868581 1.653194,-1.804218 -5.837153,2.219281 -10.123439,6.163517 -12.657556,11.647468 -1.365687,2.955412 -1.65792,4.418379 -1.671794,8.369286 -0.01484,4.225171 0.213744,5.256158 1.945077,8.772997 1.226932,2.492253 3.004285,4.902717 4.744441,6.434465 2.284325,2.010743 2.487197,2.337002 1.133026,1.82215 -0.907239,-0.34493 -2.193353,-0.627149 -2.858032,-0.627149 -1.60515,0 -3.158729,-1.866596 -5.464928,-6.566006 C 14.713835,59.76575 14.58334,59.07028 14.58334,53.232285 c 0,-5.550706 0.18297,-6.657929 1.599751,-9.680719 3.135013,-6.688745 10.319306,-12.343999 16.94343,-13.337348 1.463984,-0.219538 2.831038,-0.673009 3.037897,-1.007714 0.692245,-1.120076 -5.32593,0.184978 -9.090408,1.971274 -7.94638,3.770665 -13.281043,11.688067 -13.832649,20.529621 -0.36196,5.801785 0.609673,9.745131 3.638763,14.767821 1.521035,2.52211 1.841736,3.472629 1.248461,3.70029 -0.472145,0.181174 -0.680224,-0.0012 -0.509247,-0.447043 0.159009,-0.414375 -0.257585,-1.24815 -0.925764,-1.852844 -0.957362,-0.866402 -1.21487,-0.915355 -1.21487,-0.23095 0,0.477677 0.317854,1.186352 0.706343,1.574839 0.388489,0.388492 0.536546,0.876144 0.329018,1.083671 -0.598093,0.598092 -3.972628,-5.133488 -4.954851,-8.415709 -2.2080015,-7.378315 -1.6443427,-13.907387 1.807451,-20.936388 4.455311,-9.0725 14.508644,-15.176643 24.995458,-15.176643 1.841588,0 2.258665,-0.166883 1.732379,-0.69317 -0.52571,-0.525709 -1.888449,-0.526696 -5.640796,-0.0041 C 21.466262,26.886044 11.450025,36.601359 9.4968565,49.28428 8.4896533,55.824566 10.233813,63.888899 13.686375,68.655019 l 1.719341,2.373486 -1.548385,0.388618 C 12.146088,71.846617 12.027211,71.73007 9.7791255,67.418945 7.6550378,63.345581 6.5240319,58.412304 6.5321485,53.256102 6.545927,44.503079 9.388139,37.747323 15.731427,31.390007 22.467614,24.638924 29.558798,21.899388 39.306178,22.282378 45.40861,22.522152 47.069655,21.90006 42.013701,21.26836 26.39227,19.316591 11.838088,28.569685 6.7597313,43.681731 c -0.789374,2.348999 -1.1070537,5.066101 -1.1166375,9.550554 -0.015394,7.203288 0.942866,11.035432 4.0462511,16.181204 1.9000331,3.150477 1.9546741,3.387791 0.9277051,4.02914 -0.600181,0.374824 -1.2094757,0.681492 -1.3539863,0.681492 -0.70368,0 -3.9810017,-6.774124 -5.198128,-10.744373 C 2.2166323,57.350608 2.194298,49.292909 4.0095094,43.383276 7.4424102,32.207068 16.55041,23.094655 27.715355,19.665945 c 5.104188,-1.567477 14.522512,-1.711189 18.954997,-0.289231 2.56268,0.822118 3.171582,0.817722 6.267551,-0.04525 5.096154,-1.420495 13.766423,-1.271172 18.948763,0.326343 8.205919,2.529569 15.886611,8.536532 20.167235,15.772522 1.204498,2.036084 2.12889,3.761738 2.054205,3.834789 -0.07468,0.07305 -0.81905,0.0015 -1.654156,-0.158973 C 91.479149,38.918819 90.33661,37.867587 89.262442,36.169689 83.823413,27.572441 74.348237,21.939611 64.008808,21.15684 48.980156,20.01906 34.666304,30.306781 30.592451,45.174005 c -1.147884,4.189117 -1.088566,12.682337 0.117765,16.861729 3.11912,10.806356 11.711166,19.403078 22.506703,22.518964 4.057083,1.170988 12.075018,1.307734 16.282108,0.277701 3.988568,-0.976538 9.524929,-3.7329 12.663515,-6.304739 2.532598,-2.075269 2.55768,-2.081591 2.55768,-0.644089 0,2.391942 -2.209043,4.477849 -7.360433,6.950147 -7.588476,3.641924 -15.699094,4.564926 -23.648522,2.691238 -3.450536,-0.813289 -4.267107,-0.812376 -7.877658,0.0088 -2.21545,0.503887 -5.750929,0.91616 -7.856622,0.91616 -3.648591,0 -3.816445,-0.06312 -3.571355,-1.343046 z m 7.038644,0.149227 c 0.223128,-0.361029 -0.602454,-0.596909 -2.089184,-0.596909 -1.48673,0 -2.312312,0.23588 -2.089184,0.596909 0.202901,0.3283 1.143034,0.59691 2.089184,0.59691 0.94615,0 1.886283,-0.26861 2.089184,-0.59691 z m 24.473294,0 c 0.222796,-0.360491 -0.590714,-0.596909 -2.053954,-0.596909 -1.332577,0 -2.422869,0.268609 -2.422869,0.596909 0,0.3283 0.924279,0.59691 2.053955,0.59691 1.129675,0 2.219966,-0.26861 2.422868,-0.59691 z M 51.890194,85.535021 c 0,-0.290009 -0.470067,-0.66245 -1.044592,-0.827645 -0.574525,-0.165189 -1.514658,-0.493865 -2.089184,-0.730391 -0.594615,-0.244786 -1.044591,-0.166824 -1.044591,0.180995 0,0.336066 0.738675,0.880818 1.641501,1.210557 2.131617,0.778531 2.536866,0.805129 2.536866,0.166484 z m 26.946045,-2.202817 c 0.999108,-0.516655 1.665903,-1.090029 1.481775,-1.274164 -0.457693,-0.457686 -3.954526,1.035877 -3.954526,1.689052 0,0.72882 0.386457,0.663978 2.472751,-0.414888 z M 40.847366,83.077765 c -0.202901,-0.3283 -1.008729,-0.59691 -1.790729,-0.59691 -0.782,0 -1.587828,0.26861 -1.790729,0.59691 -0.219975,0.355925 0.502969,0.59691 1.790729,0.59691 1.287761,0 2.010705,-0.240985 1.790729,-0.59691 z m -2.984548,-3.581458 c -0.202901,-0.3283 -0.621667,-0.596909 -0.930592,-0.596909 -0.308925,0 -0.561682,0.268609 -0.561682,0.596909 0,0.328301 0.418767,0.59691 0.930592,0.59691 0.511826,0 0.764583,-0.268609 0.561682,-0.59691 z m -0.300666,-3.285354 c -0.769839,-0.819456 -1.671749,-1.489922 -2.004244,-1.489922 -0.332495,0 0.164812,0.803028 1.105125,1.784503 0.940314,0.981474 1.842225,1.651941 2.004244,1.489922 0.162021,-0.162025 -0.335286,-0.965048 -1.105125,-1.784503 z M 27.4169,68.223675 c 0,-0.546321 -2.617382,-2.456289 -3.366051,-2.456289 -0.232928,0 0.207358,0.671524 0.978413,1.492274 1.431214,1.523457 2.387638,1.909616 2.387638,0.964015 z m 1.069033,-3.799335 c -1.02648,-3.208823 -1.658758,-8.686586 -2.441744,-21.154149 l -0.119563,-1.903814 -1.294806,1.216406 c -0.712143,0.669024 -1.880791,2.578569 -2.596997,4.243433 -1.617291,3.759496 -1.468583,10.167719 0.321808,13.867439 1.10948,2.292664 5.851337,7.46137 6.845187,7.46137 0.263745,0 -0.05751,-1.678808 -0.713885,-3.730685 z m 1.627938,-0.995066 c -0.220649,-1.004611 -0.677848,-1.997554 -1.015996,-2.206541 -0.588545,-0.363741 -0.155832,2.962318 0.538176,4.136684 0.583654,0.987634 0.86715,-0.157537 0.47782,-1.930143 z M 6.5250638,64.961093 c 0,-1.031764 -1.4216146,-3.898654 -1.813224,-3.656626 -0.61975,0.383024 0.5286651,3.86601 1.2747072,3.86601 0.2961842,0 0.5385168,-0.09422 0.5385168,-0.209384 z M 19.060166,64.842379 c 0,-0.795608 -1.91198,-3.927988 -2.213543,-3.626425 -0.457688,0.457689 1.035875,3.954523 1.68905,3.954523 0.288471,0 0.524493,-0.147646 0.524493,-0.328098 z M 9.2519385,60.643627 c -0.2058293,-0.820089 -0.6232387,-1.337179 -0.927576,-1.149088 -0.5277208,0.326149 -0.4777716,0.76244 0.3593802,3.139072 0.5455682,1.548843 1.0302982,-0.148822 0.5681958,-1.989984 z M 11.94073,55.424639 c -0.455913,-0.455913 -0.640389,-0.03283 -0.640389,1.468691 0,2.743907 0.838378,3.587912 1.088072,1.095376 0.105989,-1.058022 -0.09547,-2.211852 -0.447683,-2.564067 z m 8.201846,1.285845 c -0.102875,-1.041693 -0.469406,-1.986409 -0.814512,-2.099369 -0.387989,-0.126996 -0.533926,0.595859 -0.382377,1.893987 0.304951,2.612125 1.454048,2.809305 1.196889,0.205382 z m -3.949439,-5.603618 c 0.261018,-2.235812 -0.335543,-3.304373 -0.950337,-1.702246 -0.541917,1.412214 -0.434259,3.827665 0.170602,3.827665 0.292383,0 0.643263,-0.956439 0.779735,-2.125419 z M 4.8942919,48.30778 c 0.1625001,-1.066975 0.178382,-2.066481 0.035293,-2.221124 -0.4453613,-0.481322 -1.37033,1.407611 -1.3799288,2.818034 -0.013969,2.052514 1.0103847,1.597784 1.3446358,-0.59691 z m 23.9510191,0.995773 c 0.535823,-1.396332 0.439624,-3.234184 -0.169286,-3.234184 -0.292383,0 -0.641359,0.940133 -0.775505,2.089184 -0.250945,2.149532 0.302114,2.819789 0.944791,1.145 z M 8.9127023,47.491188 c 0,-0.84285 -0.2597697,-1.331728 -0.5969097,-1.123364 -0.3283002,0.202901 -0.5969096,1.040434 -0.5969096,1.861185 0,0.84285 0.2597697,1.331727 0.5969096,1.123363 0.3283003,-0.202901 0.5969097,-1.040433 0.5969097,-1.861184 z m 4.6192557,-2.317183 c 0.742871,-2.420495 -0.162062,-2.900271 -1.052572,-0.558051 -0.712829,1.874883 -0.737739,2.647235 -0.08538,2.647235 0.273217,0 0.785294,-0.940133 1.137948,-2.089184 z m 8.81121,-0.895364 c 0.509312,-0.984901 0.657413,-1.790729 0.329112,-1.790729 -0.3283,0 -1.013619,0.805828 -1.522931,1.790729 -0.509312,0.9849 -0.657412,1.790728 -0.329112,1.790728 0.3283,0 1.013619,-0.805828 1.522931,-1.790728 z m -0.530718,-6.39869 c -0.511932,-0.510137 -2.752284,1.947338 -2.752284,3.019021 0,0.366544 0.724431,-0.05799 1.609847,-0.943404 0.885416,-0.885416 1.399512,-1.819444 1.142437,-2.075617 z m 8.932659,-1.411088 c 1.122251,-1.240072 1.120806,-1.241588 -0.485679,-0.509624 -0.886202,0.40378 -1.469542,0.963477 -1.296311,1.243771 0.434818,0.70355 0.508284,0.673283 1.78199,-0.734147 z M 14.050873,36.071134 c 0.930329,-1.225556 1.041787,-1.939957 0.302666,-1.939957 -0.290542,0 -0.968258,0.671524 -1.506034,1.492274 -1.132097,1.727798 -0.06869,2.123411 1.203368,0.447683 z m 6.784946,-1.623338 c 0.430158,-0.518308 0.608464,-1.116019 0.396237,-1.328247 -0.430839,-0.430838 -3.36571,2.121837 -3.36571,2.927409 0,0.669135 1.965357,-0.389276 2.969473,-1.599162 z m -10.46469,0.147475 c 1.020076,-1.456362 1.183321,-2.254822 0.461001,-2.254822 -0.257517,0 -0.9442267,0.805828 -1.5260219,1.790728 -1.2186,2.062926 -0.3269823,2.451457 1.0650209,0.464094 z m 24.41219,-0.464094 c 0.581795,-0.9849 0.789245,-1.790728 0.461,-1.790728 -0.62712,0 -2.455233,2.321121 -2.455233,3.117364 0,1.025802 0.99601,0.36322 1.994233,-1.326636 z m -3.874034,-1.252212 c 1.033891,-0.360416 1.879801,-0.897635 1.879801,-1.193819 0,-0.676233 -0.02776,-0.674823 -2.298565,0.116786 -1.033891,0.360416 -1.879802,0.897635 -1.879802,1.193819 0,0.676233 0.02776,0.674823 2.298566,-0.116786 z m 56.502993,-2.323019 c -0.940311,-0.981476 -1.842224,-1.651941 -2.004243,-1.48992 -0.393978,0.39398 2.341271,3.274423 3.109374,3.274423 0.33249,0 -0.164813,-0.803027 -1.105131,-1.784503 z M 32.460786,28.099195 c 0.345425,-0.325298 0.112121,-0.530838 -0.596909,-0.525872 -1.874566,0.01313 -3.850067,0.681559 -3.850067,1.302714 0,0.66337 3.582136,0.0376 4.446976,-0.776842 z m -8.292687,-0.783674 c 0.636757,-0.465608 0.979711,-1.02459 0.76212,-1.242181 -0.503072,-0.503072 -2.885505,0.746007 -2.885505,1.512833 0,0.813786 0.775511,0.714937 2.123385,-0.270652 z m -2.123385,-3.331807 c 1.123761,-0.879019 1.250645,-1.170551 0.51381,-1.180546 -0.538155,-0.0073 -1.612593,0.515009 -2.387639,1.160687 -1.905343,1.587311 -0.153776,1.605874 1.873829,0.01986 z m 23.549843,0.501097 c 0.836198,-0.380998 1.52036,-0.918216 1.52036,-1.193819 0,-0.700976 -0.4011,-0.633012 -2.417281,0.409596 -2.796474,1.446113 -2.028844,2.117291 0.896921,0.784223 z m -7.433284,-1.098007 c 0,-0.3283 -0.805828,-0.596909 -1.790729,-0.596909 -0.984901,0 -1.790729,0.268609 -1.790729,0.596909 0,0.328301 0.805828,0.59691 1.790729,0.59691 0.984901,0 1.790729,-0.268609 1.790729,-0.59691 z m 38.202215,-0.611683 c 0,-0.734001 -2.893615,-1.918945 -3.821105,-1.564752 -0.360641,0.137725 0.284415,0.673252 1.433466,1.190058 2.540644,1.142702 2.387639,1.11869 2.387639,0.374694 z M 37.564363,19.805347 c 0,-0.3283 -0.940132,-0.59691 -2.089183,-0.59691 -1.149051,0 -2.089184,0.26861 -2.089184,0.59691 0,0.3283 0.940133,0.596909 2.089184,0.596909 1.149051,0 2.089183,-0.268609 2.089183,-0.596909 z m 24.174839,0 c 0.222797,-0.360492 -0.590711,-0.59691 -2.053956,-0.59691 -1.332576,0 -2.422866,0.26861 -2.422866,0.59691 0,0.3283 0.92428,0.596909 2.053956,0.596909 1.129676,0 2.219965,-0.268609 2.422866,-0.596909 z M 10.841916,84.271584 c 0,-1.149051 0.122841,-1.619117 0.27298,-1.044592 0.150139,0.574526 0.150139,1.514658 0,2.089184 -0.150139,0.574525 -0.27298,0.104459 -0.27298,-1.044592 z m 18.504198,0 c 0,-1.149051 0.122841,-1.619117 0.27298,-1.044592 0.150139,0.574526 0.150139,1.514658 0,2.089184 -0.150139,0.574525 -0.27298,0.104459 -0.27298,-1.044592 z M 55.039337,83.966301 C 42.616073,81.266896 32.758451,70.47449 30.867776,57.502584 28.617889,42.066122 38.729272,27.085577 54.100666,23.081837 c 7.298414,-1.900995 17.001356,-0.648639 23.222778,2.997357 3.573518,2.094223 8.172402,6.336157 10.438301,9.628127 l 1.701169,2.471508 -1.326751,0.360529 C 87.096298,38.821927 86.424357,38.416569 85.028723,36.66476 75.207495,24.337072 59.05002,21.31413 46.392773,29.436264 31.239596,39.16003 29.018798,60.612267 41.838236,73.431706 c 10.292173,10.292172 26.319135,11.27804 37.702416,2.319191 2.143968,-1.687345 2.342274,-1.734632 3.283003,-0.782889 0.938318,0.949307 0.869978,1.121671 -1.087981,2.744208 -3.339411,2.767321 -7.328253,4.707104 -12.287647,5.975501 -5.291227,1.353272 -9.121877,1.42733 -14.40869,0.278584 z m 9.982868,-0.888536 c 0,-0.758195 -1.811328,-0.758195 -2.984548,0 -0.679436,0.439087 -0.42752,0.580835 1.044592,0.587771 1.066976,0.005 1.939956,-0.259471 1.939956,-0.587771 z M 51.029969,80.9696 c -0.637273,-0.482011 -1.577405,-0.867841 -2.089183,-0.857401 -0.743905,0.01516 -0.698148,0.194729 0.228175,0.895364 0.637273,0.482011 1.577405,0.867841 2.089183,0.857401 0.743905,-0.01516 0.698148,-0.19473 -0.228175,-0.895364 z m 25.930428,-1.174838 c 0.604353,-0.7282 0.575922,-0.895364 -0.152277,-0.895364 -0.492451,0 -1.229754,0.402914 -1.638452,0.895364 -0.604353,0.7282 -0.575922,0.895365 0.152278,0.895365 0.49245,0 1.229753,-0.402914 1.638451,-0.895365 z M 40.529928,74.273348 c -0.03672,-0.865883 -1.764083,-2.743498 -2.159858,-2.347723 -0.220246,0.220248 0.08722,0.939315 0.683256,1.597927 1.162183,1.284198 1.506681,1.459128 1.476602,0.749796 z M 33.650523,61.439792 c -0.503487,-1.637968 -0.755387,-1.946522 -1.214393,-1.487515 -0.514405,0.514405 0.328668,2.830561 1.030315,2.830561 0.343398,0 0.421577,-0.5704 0.184078,-1.343046 z M 32.937904,48.144307 c 0.158395,-0.828587 0.05541,-1.650267 -0.228868,-1.825957 -0.284273,-0.17569 -0.520527,-0.102126 -0.52501,0.163474 -0.0045,0.2656 -0.170116,1.087281 -0.368073,1.825956 -0.197957,0.738676 -0.0913,1.343047 0.237019,1.343047 0.328318,0 0.726538,-0.677934 0.884932,-1.50652 z m 5.202367,-12.183159 c 0.951209,-1.777349 0.737872,-2.12356 -0.575908,-0.934606 -1.279014,1.157492 -1.554577,2.089183 -0.617911,2.089183 0.31675,0 0.853968,-0.519559 1.193819,-1.154577 z m 47.77377,-1.036832 c 0,-0.609453 -1.905675,-2.583867 -2.493912,-2.583867 -0.284988,0 -0.07816,0.671523 0.45962,1.492274 0.914526,1.395746 2.034292,1.996607 2.034292,1.091593 z M 47.982195,27.469359 c 1.29391,-0.589545 2.109115,-1.694916 1.249992,-1.694916 -0.761556,0 -3.311089,1.452634 -3.311089,1.886542 0,0.65733 0.24856,0.634221 2.061097,-0.191626 z m 27.187473,-1.002194 c 0,-0.275603 -0.671523,-0.807063 -1.492274,-1.181022 -1.686436,-0.768391 -2.060364,0.0981 -0.447682,1.037398 1.290226,0.751487 1.939956,0.79959 1.939956,0.143624 z M 62.037657,23.386804 c 0,-0.3283 -0.671523,-0.596909 -1.492274,-0.596909 -0.820751,0 -1.492274,0.268609 -1.492274,0.596909 0,0.328301 0.671523,0.59691 1.492274,0.59691 0.820751,0 1.492274,-0.268609 1.492274,-0.59691 z m -8.477491,56.183269 c -4.849082,-1.596685 -8.10137,-3.661765 -11.610656,-7.372317 -5.500011,-5.815451 -7.641335,-11.83208 -7.265923,-20.415572 0.208912,-4.776586 0.512031,-6.031697 2.434242,-10.079326 3.995888,-8.414205 11.281796,-13.878691 20.591474,-15.443762 9.687325,-1.628558 20.8103,2.986947 26.519048,11.004142 1.13753,1.597512 1.151599,1.764126 0.207312,2.454606 -0.876263,0.64074 -1.590382,0.164886 -5.28875,-3.524182 -5.73395,-5.719523 -9.103116,-7.097203 -17.407711,-7.118156 -5.464526,-0.01379 -6.297066,0.141752 -9.849008,1.840042 -7.71456,3.688561 -12.453615,9.65904 -14.108635,17.774705 -0.751732,3.686239 -0.807122,5.308326 -0.283184,8.292991 2.374106,13.524339 15.155282,22.966345 28.057927,20.727593 4.804794,-0.833685 7.847582,-2.140267 11.483568,-4.931076 l 2.765566,-2.122718 0.633213,1.389749 c 0.557663,1.223945 0.38755,1.577131 -1.425856,2.960284 -1.132486,0.863793 -3.870684,2.421638 -6.084872,3.461884 -3.550508,1.668058 -4.730533,1.910869 -9.994899,2.056622 -4.576083,0.126706 -6.763435,-0.09629 -9.372856,-0.955509 z m 12.357404,-0.07377 c 0.227368,-0.367893 -0.789682,-0.596909 -2.650864,-0.596909 -1.660878,0 -3.019778,0.268609 -3.019778,0.596909 0,0.328301 1.19289,0.59691 2.650864,0.59691 1.457975,0 2.816876,-0.268609 3.019778,-0.59691 z M 51.625941,76.761411 c -1.131571,-0.827424 -3.317205,-1.169573 -3.317205,-0.519294 0,0.484494 3.830283,2.008995 4.177429,1.662668 0.163634,-0.163249 -0.223467,-0.677767 -0.860224,-1.143374 z m 24.197767,-0.676806 c 1.5649,-0.92441 2.293154,-1.960484 1.378014,-1.960484 -0.698068,0 -3.822782,2.056837 -3.822782,2.516338 0,0.697381 0.525453,0.57791 2.444768,-0.555854 z M 42.319782,70.393436 c -0.02653,-0.996929 -2.30428,-3.694697 -2.746278,-3.252704 -0.331889,0.331888 1.968257,3.998841 2.508327,3.998841 0.141795,0 0.248873,-0.335762 0.237951,-0.746137 z M 36.907954,58.753699 c -0.107708,-1.89093 -0.880064,-4.028519 -1.237963,-3.426213 -0.495311,0.833554 0.129747,4.470804 0.768302,4.470804 0.291039,0 0.502386,-0.470066 0.469661,-1.044591 z m 0.671183,-13.021643 c 0.712829,-1.874883 0.737739,-2.647235 0.08538,-2.647235 -0.273217,0 -0.785294,0.940133 -1.137947,2.089184 -0.742872,2.420495 0.162061,2.900271 1.052571,0.558051 z m 7.561816,-12.579994 c -0.576603,-0.576602 -3.446708,2.208482 -3.007781,2.918682 0.194507,0.314718 1.044964,-0.119102 1.889905,-0.964043 0.844941,-0.844941 1.347986,-1.724529 1.117876,-1.954639 z m 33.335045,-0.540248 c -2.304805,-1.841798 -2.929399,-1.212924 -0.700592,0.705391 0.940705,0.809657 1.880838,1.299948 2.089183,1.089534 0.208346,-0.210414 -0.416517,-1.01813 -1.388591,-1.794925 z M 55.217123,28.742291 c 0.887654,-0.337486 1.461566,-0.765961 1.27536,-0.952167 -0.506367,-0.506367 -4.00538,0.381447 -4.00538,1.016294 0,0.711609 0.735095,0.694341 2.73002,-0.06413 z m 13.643056,-0.512347 c 0.345951,-0.559768 -1.558203,-1.239866 -3.509674,-1.253531 -2.040046,-0.01428 0.0018,1.24858 2.770246,1.713336 0.226849,0.03808 0.559591,-0.168829 0.739428,-0.459805 z M 56.068561,76.323989 C 51.4278,74.985259 48.713276,73.383965 45.297799,69.970346 38.805661,63.481736 36.686013,55.149825 39.340806,46.554606 41.669481,39.015231 47.36861,33.141422 54.545317,30.884071 c 4.918743,-1.547134 12.577777,-1.112145 17.114529,0.972007 3.469632,1.593926 7.471052,4.827496 9.500198,7.677168 1.15656,1.624246 1.156525,1.64805 -0.0048,3.041998 -0.665035,0.798213 -1.179111,1.067289 -1.190393,0.623073 -0.01092,-0.430027 -1.370325,-2.209788 -3.0209,-3.955024 -10.041225,-10.617042 -26.972575,-8.093901 -33.789399,5.035348 -1.524023,2.935278 -1.704821,3.883618 -1.706986,8.953644 -0.002,4.569435 0.250105,6.217445 1.297961,8.486401 1.823044,3.947494 6.304467,8.513662 10.264123,10.458214 2.950783,1.449106 4.044029,1.648766 9.027982,1.648766 5.326738,0 5.899646,-0.124163 9.446697,-2.047304 2.076834,-1.126017 4.695775,-3.121784 5.819869,-4.435039 l 2.043813,-2.387734 v 2.467738 c 0,2.230693 -0.263614,2.669028 -2.744268,4.563147 -5.513929,4.210201 -14.440449,6.095689 -20.535207,4.337515 z m 9.500813,-0.78678 c 0.681552,-0.600867 -0.639761,-0.78065 -3.179254,-0.432575 -1.855706,0.254356 -2.555813,0.559293 -2.037489,0.88745 0.703321,0.445282 4.579035,0.107336 5.216743,-0.454875 z m -13.67918,-2.478208 c 0,-0.257518 -0.805828,-0.944227 -1.790729,-1.526023 -2.062926,-1.218597 -2.451457,-0.326981 -0.464094,1.065024 1.456362,1.020071 2.254823,1.18332 2.254823,0.460999 z m 24.025611,-1.804278 c 1.753613,-1.505991 1.161885,-2.070692 -0.746137,-0.71206 -0.9849,0.701309 -1.790728,1.541281 -1.790728,1.866602 0,0.650106 0.926427,0.228485 2.536865,-1.154542 z M 42.347568,62.801975 c -0.41232,-0.995424 -0.985694,-1.809865 -1.274164,-1.809865 -0.72882,0 -0.663979,0.386457 0.414885,2.472751 1.1839,2.289411 1.864635,1.764262 0.859279,-0.662886 z M 40.539771,50.098509 c 0.005,-0.902825 -0.259469,-1.641501 -0.587769,-1.641501 -0.328301,0 -0.592797,1.14159 -0.587769,2.536866 0.0067,1.857854 0.164014,2.297215 0.587769,1.641501 0.318246,-0.49245 0.582742,-1.63404 0.587769,-2.536866 z m 4.690033,-10.595145 c 0.728169,-0.984901 1.131757,-1.790729 0.896863,-1.790729 -0.608818,0 -3.190117,2.499155 -3.190117,3.088598 0,1.00945 1.009981,0.437851 2.293254,-1.297869 z m 34.118232,-0.49286 c 0,-0.271073 -0.671524,-1.123724 -1.492274,-1.894779 -1.693134,-1.590615 -2.121256,-0.490561 -0.504395,1.296046 1.037214,1.14611 1.996669,1.433817 1.996669,0.598733 z M 54.785669,32.878965 c 1.033891,-0.360416 1.879802,-0.897635 1.879802,-1.193819 0,-0.676233 -0.02776,-0.674823 -2.298566,0.116786 -1.033891,0.360416 -1.879802,0.897635 -1.879802,1.193819 0,0.676233 0.02776,0.674823 2.298566,-0.116786 z m 13.800707,-1.158741 c -1.156918,-0.731658 -3.991743,-0.755512 -3.235871,-0.02723 0.595656,0.573912 3.350609,1.140309 3.832781,0.78799 0.154641,-0.112997 -0.113968,-0.455339 -0.59691,-0.760762 z M 19.209393,74.906472 c 0.574525,-0.150134 1.514658,-0.150134 2.089184,0 0.574525,0.150141 0.104459,0.272985 -1.044592,0.272985 -1.149051,0 -1.619118,-0.122844 -1.044592,-0.272985 z M 58.408714,72.930433 C 50.419911,71.559887 43.701868,64.741341 42.49834,56.782038 40.69225,44.837802 48.644827,34.637526 60.505425,33.685471 c 6.686003,-0.536688 12.769778,2.19251 17.224526,7.726969 l 1.776869,2.207531 -0.114482,9.716976 c -0.131702,11.179448 -0.431983,12.054482 -5.384196,15.689733 -4.70742,3.455569 -10.199961,4.830073 -15.599428,3.903753 z m 7.508856,-1.193951 c 0.230436,-0.372853 -0.98865,-0.596909 -3.247774,-0.596909 -2.013185,0 -3.616687,0.264646 -3.616687,0.596909 0,0.328301 1.461499,0.59691 3.247773,0.59691 1.786276,0 3.413786,-0.268609 3.616688,-0.59691 z m 1.31332,-2.483615 c 1.896006,-0.709385 4.222891,-2.065397 5.170855,-3.013361 1.486317,-1.486323 1.679602,-2.051327 1.404182,-4.104738 -0.342799,-2.555764 -2.660581,-6.070945 -4.734974,-7.181126 -0.701207,-0.375272 -3.756041,-0.869968 -6.788521,-1.099323 -3.508029,-0.265323 -6.060758,-0.77552 -7.017811,-1.402605 -2.722443,-1.783813 -4.672064,-4.971234 -5.080054,-8.305341 l -0.383557,-3.13444 -1.885104,2.846698 c -4.799598,7.247881 -3.775693,16.076873 2.539533,21.898047 5.035342,4.641414 10.609562,5.803143 16.775451,3.496189 z M 50.696375,67.25966 c -0.771055,-0.82075 -1.825163,-1.483786 -2.342461,-1.473411 -0.66612,0.01337 -0.451888,0.448762 0.734245,1.492274 2.185576,1.922783 3.418709,1.90832 1.608216,-0.01886 z M 75.16746,66.665103 c 0.769834,-0.819456 1.267143,-1.622478 1.105124,-1.784503 -0.162019,-0.16202 -1.063931,0.508447 -2.004243,1.489922 -0.940318,0.981474 -1.437621,1.784503 -1.105131,1.784503 0.332497,0 1.23441,-0.670467 2.00425,-1.489922 z m 3.407309,-14.029728 c -0.24755,-5.060939 -1.25967,-7.514032 -4.51546,-10.944179 -3.170103,-3.339865 -6.237222,-4.71778 -11.226753,-5.043657 -3.713266,-0.242522 -4.521431,-0.106713 -6.114249,1.027473 -1.021762,0.727559 -2.167993,1.115468 -2.585629,0.875033 -0.412615,-0.237545 -0.558236,-0.219246 -0.323602,0.04067 0.234635,0.259911 0.03318,1.034267 -0.447682,1.72079 -1.199265,1.712191 -1.095628,4.177752 0.289755,6.893327 1.485936,2.912675 4.224091,4.235718 8.775174,4.240058 1.920186,0.0018 4.565684,0.300154 5.878885,0.66294 2.905523,0.802683 6.457099,4.35493 7.503786,7.50521 l 0.755688,2.274439 1.114532,-2.387639 c 0.86168,-1.845971 1.064851,-3.403263 0.895555,-6.86446 z m -3.994083,5.988236 c -0.412322,-0.995428 -0.985695,-1.809869 -1.274163,-1.809869 -0.728821,0 -0.663979,0.386458 0.414888,2.472752 1.183898,2.289408 1.864632,1.76426 0.859275,-0.662883 z M 44.328161,56.664515 c -0.416824,-2.189769 -0.63937,-2.592712 -1.149959,-2.082124 -0.511328,0.511328 0.348162,4.02208 0.984672,4.02208 0.294007,0 0.368387,-0.87298 0.165287,-1.939956 z m 21.589409,-4.02914 c -0.202902,-0.3283 -1.143035,-0.596909 -2.089184,-0.596909 -0.94615,0 -1.886283,0.268609 -2.089184,0.596909 -0.223128,0.361029 0.602455,0.59691 2.089184,0.59691 1.486729,0 2.312314,-0.235881 2.089184,-0.59691 z M 54.277832,49.928281 c 0,-0.175701 -0.433806,-0.981529 -0.964015,-1.790729 -1.380628,-2.107105 -2.295959,-1.823274 -1.030217,0.319456 0.936022,1.584559 1.994232,2.365269 1.994232,1.471273 z m -7.855638,-5.379272 c 0.825848,-1.812537 0.848957,-2.061097 0.191626,-2.061097 -0.433908,0 -1.886541,2.549533 -1.886541,3.311089 0,0.859123 1.10537,0.04392 1.694915,-1.249992 z m 31.363031,-1.422862 c -0.972491,-1.646293 -2.018647,-2.411492 -2.018647,-1.476517 0,0.667166 2.516941,3.892499 2.809367,3.600069 0.160324,-0.160323 -0.1955,-1.115921 -0.79072,-2.123552 z M 56.93408,35.879667 c 0.989889,-0.968254 -1.752149,-0.618502 -2.989843,0.381361 -1.101596,0.889917 -1.070457,0.917243 0.63205,0.55467 0.984901,-0.209748 2.045908,-0.630962 2.357793,-0.936031 z m 12.863402,0.697541 c 0,-0.296184 -0.84591,-0.833402 -1.8798,-1.193819 -2.274028,-0.79273 -2.298567,-0.793885 -2.298567,-0.108135 0,0.300942 0.738675,0.816955 1.641501,1.146695 2.138387,0.781006 2.536866,0.805394 2.536866,0.155259 z"
         id="path4274" />
      <path
         style="fill:#b9b9b9;fill-opacity:1;stroke-width:0.59691"
         d="m 18.351335,93.414383 c 0.430895,-0.172429 0.945729,-0.151227 1.144077,0.0471 0.198348,0.198347 -0.154202,0.339427 -0.783444,0.313509 -0.695365,-0.02865 -0.836807,-0.170083 -0.360633,-0.360629 z M 34.03003,86.907937 c 0.02864,-0.69537 0.170084,-0.836808 0.360633,-0.360635 0.17243,0.430891 0.151223,0.945726 -0.04713,1.144079 -0.198348,0.198347 -0.339427,-0.154206 -0.313509,-0.783444 z m -3.98375,-12.933044 -1.137106,-1.343046 1.343047,1.137107 c 1.262132,1.068599 1.614784,1.548986 1.137105,1.548986 -0.113268,0 -0.717638,-0.604371 -1.343046,-1.343047 z M 9.5096119,74.495661 c 0,-0.123948 0.4700663,-0.594014 1.0445921,-1.044591 0.946732,-0.742478 0.967844,-0.721366 0.225366,0.225369 -0.7797843,0.994302 -1.2699581,1.310503 -1.2699581,0.819222 z M 22.529703,70.134908 c 0.430894,-0.172429 0.945728,-0.151227 1.144077,0.0471 0.198347,0.198353 -0.154202,0.339426 -0.783444,0.313508 -0.695366,-0.02865 -0.836808,-0.170083 -0.360633,-0.360629 z"
         id="path4272" />
      <path
         style="fill:#a3a3a3;fill-opacity:1;stroke-width:0.59691"
         d="M 16.501501,97.761777 C 5.4781071,94.746148 2.658548,80.078061 11.766857,73.130923 c 7.892599,-6.019881 19.16222,-2.305748 21.933988,7.228802 0.869934,2.992469 0.916099,3.997928 0.308267,6.714004 -1.776687,7.939076 -9.754128,12.809148 -17.507611,10.688048 z m 9.31396,-5.905089 c 5.815229,-4.435492 4.892111,-13.080874 -1.732373,-16.224397 -6.367092,-3.021384 -14.020142,2.543652 -13.223059,9.615354 0.812832,7.211426 9.267303,10.947591 14.955432,6.609043 z m -6.755295,0.381485 c 0,-0.542884 -1.074438,-1.978971 -2.387639,-3.191312 -2.061966,-1.903598 -2.387638,-2.548697 -2.387638,-4.7295 0,-3.538671 2.45736,-6.014873 5.969096,-6.014873 7.086163,0 8.166503,9.604019 1.540957,13.698831 -2.396122,1.480885 -2.734776,1.510217 -2.734776,0.236854 z"
         id="path4270" />
    </g>
  </g>
</svg>
