<?xml version="1.0" encoding="UTF-8" standalone="no"?>
<!-- Created with Inkscape (http://www.inkscape.org/) -->

<svg
   width="100mm"
   height="100mm"
   viewBox="0 0 100 100"
   version="1.1"
   id="svg749"
   inkscape:version="1.1.1 (3bf5ae0d25, 2021-09-20)"
   sodipodi:docname="add_list_type_device_5081.svg"
   xmlns:inkscape="http://www.inkscape.org/namespaces/inkscape"
   xmlns:sodipodi="http://sodipodi.sourceforge.net/DTD/sodipodi-0.dtd"
   xmlns="http://www.w3.org/2000/svg"
   xmlns:svg="http://www.w3.org/2000/svg">
  <sodipodi:namedview
     id="namedview751"
     pagecolor="#505050"
     bordercolor="#ffffff"
     borderopacity="1"
     inkscape:pageshadow="0"
     inkscape:pageopacity="0"
     inkscape:pagecheckerboard="1"
     inkscape:document-units="mm"
     showgrid="false"
     width="100mm"
     inkscape:zoom="0.58974467"
     inkscape:cx="378.97757"
     inkscape:cy="313.69508"
     inkscape:window-width="1440"
     inkscape:window-height="890"
     inkscape:window-x="-6"
     inkscape:window-y="-6"
     inkscape:window-maximized="1"
     inkscape:current-layer="layer1" />
  <defs
     id="defs746" />
  <g
     inkscape:label="Laag 1"
     inkscape:groupmode="layer"
     id="layer1">
    <g
       id="g765"
       transform="translate(-2.6918408)">
      <path
         style="fill:#d0d0d0;fill-opacity:1;stroke-width:0.602448"
         d="m 18.3081,93.201685 c 0.19584,-0.316875 0.754043,-0.423418 1.240451,-0.236768 1.245329,0.47788 1.098579,0.812908 -0.356072,0.812908 -0.682248,0 -1.080219,-0.259264 -0.884379,-0.57614 z m -6.386292,-2.28549 c -0.749369,-0.955519 -0.72806,-0.976828 0.227457,-0.227461 0.579857,0.454759 1.054285,0.929187 1.054285,1.054285 0,0.495839 -0.494723,0.176704 -1.281742,-0.826824 z m 1.807345,-2.409794 c -0.749368,-0.955519 -0.72806,-0.976828 0.227457,-0.22746 0.579857,0.454758 1.054285,0.929186 1.054285,1.054285 0,0.495839 -0.494722,0.176704 -1.281742,-0.826825 z M 9.1261806,84.13865 c 0,-1.159713 0.1239809,-1.634141 0.2755135,-1.054284 0.1515321,0.579856 0.1515321,1.528712 0,2.108569 -0.1515326,0.579857 -0.2755135,0.105429 -0.2755135,-1.054285 z m 18.6759004,0 c 0,-1.159713 0.123981,-1.634141 0.275514,-1.054284 0.151532,0.579856 0.151532,1.528712 0,2.108569 -0.151533,0.579857 -0.275514,0.105429 -0.275514,-1.054285 z m -10.23078,-9.452012 c 0.579856,-0.151527 1.528712,-0.151527 2.108569,0 0.579857,0.151534 0.105428,0.275518 -1.054285,0.275518 -1.159713,0 -1.634141,-0.123984 -1.054284,-0.275518 z M 53.90755,20.455714 c -0.326939,-0.858609 -0.25774,-0.927808 0.337248,-0.337248 0.411724,0.408661 0.596828,0.894781 0.411342,1.080267 -0.185486,0.185487 -0.522352,-0.148872 -0.74859,-0.743019 z m 1.467388,0.485161 c 0,-0.625607 1.145985,-1.53126 1.48544,-1.173919 0.110209,0.116017 -0.178929,0.560505 -0.64253,0.987752 -0.4636,0.427247 -0.84291,0.511022 -0.84291,0.186167 z"
         id="path781" />
      <path
         style="fill:#b9b9b9;fill-opacity:1;stroke-width:0.602448"
         d="m 16.215792,93.546864 c 0,-0.127026 0.542577,-0.372843 1.205728,-0.546264 0.66315,-0.173415 1.053803,-0.06949 0.868118,0.230961 -0.324269,0.524678 -2.073846,0.790677 -2.073846,0.315303 z"
         id="path779" />
      <path
         style="fill:#a3a3a3;fill-opacity:1;stroke-width:0.602448"
         d="m 14.861405,97.749454 c 0.185846,-0.300706 -0.247069,-0.393766 -0.962032,-0.206797 -0.841257,0.219991 -1.158484,0.111068 -0.89905,-0.308706 0.255999,-0.414214 0.02726,-0.505268 -0.632907,-0.251938 -0.568585,0.218183 -0.903414,0.185747 -0.744065,-0.07209 C 11.782701,96.652093 11.16088,95.935589 10.241528,95.3177 9.3221752,94.699806 8.0644292,93.442062 7.446537,92.522708 6.8286448,91.603354 6.1121421,90.981536 5.854309,91.140884 5.596476,91.300232 5.564038,90.965403 5.7822245,90.396818 6.0355541,89.736655 5.9444995,89.507912 5.5302833,89.76391 5.1105109,90.023348 5.0015859,89.706135 5.2215795,88.864864 5.4085467,88.149896 5.3154887,87.716983 5.0147838,87.902832 4.7078815,88.092507 4.4680477,86.441292 4.4680477,84.13865 c 0,-2.302642 0.2398338,-3.953857 0.5467361,-3.764182 0.3007049,0.18585 0.3937629,-0.247064 0.2067957,-0.962031 -0.2199936,-0.841253 -0.1110686,-1.158485 0.3087038,-0.899046 0.4142162,0.255998 0.5052708,0.02723 0.2519412,-0.632908 -0.2181865,-0.568585 -0.1857485,-0.903414 0.072084,-0.744066 0.2578331,0.159347 0.9743358,-0.46247 1.592228,-1.381824 0.6178922,-0.919355 1.8756382,-2.177098 2.7949915,-2.794993 0.919352,-0.61789 1.541173,-1.334393 1.381823,-1.592223 -0.159349,-0.257836 0.17548,-0.290272 0.744065,-0.07209 0.660166,0.253329 0.888906,0.162275 0.632906,-0.251938 -0.259434,-0.419774 0.05779,-0.528697 0.899051,-0.308707 0.714962,0.18697 1.147835,0.09391 0.961937,-0.206796 -0.596554,-0.964972 6.855626,-0.267385 9.426756,0.882424 2.809683,1.256484 5.45412,3.724607 6.846644,6.390152 1.061308,2.031528 2.012354,10.665235 1.113647,10.109807 -0.312517,-0.193145 -0.408915,0.227509 -0.218767,0.954634 0.219994,0.841253 0.111069,1.158484 -0.308704,0.899046 -0.414216,-0.255998 -0.50527,-0.02723 -0.251941,0.632908 0.218186,0.568585 0.18575,0.903414 -0.07208,0.744066 -0.257832,-0.159348 -0.974335,0.46247 -1.592227,1.381824 -0.617893,0.919354 -1.875639,2.177098 -2.794991,2.794993 -0.919353,0.617889 -1.541173,1.334393 -1.381823,1.592223 0.159349,0.257836 -0.17548,0.290272 -0.744065,0.07209 -0.660167,-0.25333 -0.888907,-0.162276 -0.632907,0.251938 0.259434,0.419774 -0.05779,0.528697 -0.899049,0.308706 -0.714964,-0.186969 -1.147879,-0.09391 -0.962034,0.206797 0.189677,0.306899 -1.461536,0.546734 -3.76418,0.546734 -2.302643,0 -3.953855,-0.239835 -3.764179,-0.546734 z m 9.377262,-5.955317 c 5.869189,-4.47665 4.937506,-13.202253 -1.748448,-16.374945 -6.426173,-3.04942 -14.1502366,2.567255 -13.3457571,9.704576 0.8203745,7.278342 9.3532951,11.049175 15.0942051,6.670369 z m -6.817979,0.366114 c 0,-0.537517 -1.084407,-1.978423 -2.409793,-3.202013 -2.0811,-1.921263 -2.409794,-2.572347 -2.409794,-4.773386 0,-5.53426 6.387591,-8.210058 10.287965,-4.309681 3.75297,3.752965 1.35309,10.75265 -4.414093,12.874497 -0.73022,0.268662 -1.054285,0.08749 -1.054285,-0.589417 z"
         id="path777" />
      <path
         style="fill:#8c8c8c;fill-opacity:1;stroke-width:0.602448"
         d="M 41.096724,48.953377 C 40.83175,48.488234 39.937198,47.98295 39.108831,47.830523 37.613042,47.555284 37.61393,47.55282 39.238247,47.47134 c 1.075963,-0.05397 1.856159,0.330194 2.280378,1.122854 0.722435,1.349883 0.331877,1.682383 -0.421901,0.359183 z M 58.97759,48.744806 c 0.461566,-0.952466 1.143185,-1.331114 2.292414,-1.273466 1.595778,0.08005 1.599495,0.0888 0.153028,0.359768 -0.815385,0.152749 -1.846973,0.725809 -2.292419,1.273467 -0.703976,0.865508 -0.72399,0.818455 -0.153023,-0.359769 z M 42.926068,44.377055 c 0,-2.485099 0.106343,-3.501731 0.236318,-2.259181 0.129975,1.24255 0.129975,3.275813 0,4.518363 -0.129975,1.24255 -0.236318,0.225918 -0.236318,-2.259182 z m 14.458762,0 c 0,-2.485099 0.106343,-3.501731 0.236318,-2.259181 0.129975,1.24255 0.129975,3.275813 0,4.518363 -0.129975,1.24255 -0.236318,0.225918 -0.236318,-2.259182 z M 39.108831,40.947808 c 0.828367,-0.168803 1.730087,-0.618461 2.003822,-0.999239 0.332696,-0.462795 0.417159,-0.392725 0.254764,0.211348 -0.137051,0.5098 -1.010431,0.945325 -2.003822,0.999239 -1.516466,0.0823 -1.551829,0.05297 -0.254764,-0.211348 z m 20.28243,0.01537 c -0.220898,-0.220897 -0.397481,-0.695325 -0.392407,-1.054285 0.0061,-0.433848 0.157612,-0.420548 0.451836,0.03967 0.243436,0.380778 1.120366,0.818287 1.948732,0.972242 l 1.506121,0.279917 -1.556323,0.08204 c -0.855981,0.04512 -1.737062,-0.09869 -1.957959,-0.31959 z"
         id="path775" />
      <path
         style="fill:#767676;fill-opacity:1;stroke-width:0.602448"
         d="m 47.035784,63.052956 c 0,-0.828366 0.13674,-1.167244 0.303867,-0.75306 0.167126,0.414183 0.167126,1.091937 0,1.506121 -0.167127,0.414183 -0.303867,0.07531 -0.303867,-0.753061 z"
         id="path773" />
      <path
         style="fill:#606060;fill-opacity:1;stroke-width:0.602448"
         d="m 48.604418,64.434214 c 0.749393,-0.1441 1.8338,-0.13863 2.409793,0.01217 0.575994,0.150787 -0.03715,0.268692 -1.362533,0.262005 -1.325386,-0.0067 -1.796653,-0.130063 -1.04726,-0.274162 z M 32.783123,34.737881 c 0.599729,-0.662693 1.225967,-1.204897 1.391641,-1.204897 0.165673,0 -0.189464,0.542204 -0.789193,1.204897 -0.599729,0.662693 -1.225967,1.204897 -1.39164,1.204897 -0.165674,0 0.189463,-0.542204 0.789192,-1.204897 z"
         id="path771" />
      <path
         style="fill:#494949;fill-opacity:1;stroke-width:0.602448"
         d="m 51.855371,63.052956 c 0,-0.828366 0.13674,-1.167244 0.303867,-0.75306 0.167126,0.414183 0.167126,1.091937 0,1.506121 -0.167127,0.414183 -0.303867,0.07531 -0.303867,-0.753061 z m 33.759435,-9.940399 c 0.01229,-0.99404 0.147298,-1.327757 0.300043,-0.741594 0.152745,0.586162 0.142702,1.399467 -0.02235,1.807345 -0.164998,0.407877 -0.28997,-0.07171 -0.277693,-1.065751 z M 74.793055,50.40154 c 0,-1.159714 0.123984,-1.634142 0.275518,-1.054285 0.151528,0.579856 0.151528,1.528713 0,2.108569 -0.151534,0.579857 -0.275518,0.105429 -0.275518,-1.054284 z M 61.102463,28.720297 c -0.211061,-0.341504 0.03079,-0.442502 0.566892,-0.236769 1.043694,0.400503 1.234652,0.832317 0.368072,0.832317 -0.311791,0 -0.732529,-0.267997 -0.934964,-0.595548 z M 58.692669,27.5154 c -0.211061,-0.341503 0.03076,-0.442502 0.566894,-0.236768 1.043692,0.400502 1.23465,0.832316 0.368069,0.832316 -0.311792,0 -0.732525,-0.267996 -0.934963,-0.595548 z M 54.77249,26.303603 c -0.542982,-0.350902 -0.617289,-0.58768 -0.186167,-0.593223 0.394628,-0.0051 0.885056,0.261877 1.089839,0.593223 0.462262,0.747955 0.253705,0.747955 -0.903672,0 z m -5.120812,-0.602448 -2.409793,-0.431467 2.524851,-0.08549 c 1.388668,-0.04702 2.692401,0.185611 2.897184,0.516958 0.204784,0.331346 0.153008,0.563978 -0.115057,0.516958 -0.268065,-0.04702 -1.571798,-0.279651 -2.897185,-0.516959 z m -7.041115,-4.026232 c 0.434892,-0.174029 0.954504,-0.152626 1.154693,0.04756 0.200188,0.200189 -0.155633,0.342577 -0.790714,0.316418 -0.701818,-0.02891 -0.844572,-0.171663 -0.363979,-0.36398 z m 3.15488,-0.456369 c -0.396166,-0.477352 -1.445992,-0.978935 -2.332948,-1.114631 -1.185475,-0.181367 -0.987618,-0.270631 0.746944,-0.336986 1.297774,-0.04965 2.181207,0.08812 1.963184,0.306139 -0.218023,0.218023 -0.09446,0.760227 0.274583,1.204897 0.369043,0.44467 0.535437,0.808491 0.369763,0.808491 -0.165673,0 -0.62536,-0.39056 -1.021526,-0.86791 z m 2.301121,0.05942 c 0.369043,-0.44467 0.470014,-1.030338 0.224379,-1.301485 -0.245636,-0.271146 -0.09457,-0.289842 0.335704,-0.04154 0.602736,0.347819 0.620376,0.646572 0.07685,1.301485 -0.388008,0.467519 -0.84102,0.850036 -1.006693,0.850036 -0.165673,0 7.23e-4,-0.363821 0.369764,-0.808491 z m 3.738196,-0.04154 c -0.543529,-0.654913 -0.52589,-0.953666 0.07685,-1.301485 0.430273,-0.248295 0.58134,-0.229599 0.335705,0.04154 -0.245635,0.271147 -0.144665,0.856815 0.224379,1.301485 0.369043,0.44467 0.535437,0.808491 0.369763,0.808491 -0.165673,0 -0.618685,-0.382517 -1.006693,-0.850037 z m 4.901934,0.0071 c 0.427248,-0.4636 0.871736,-0.752739 0.987752,-0.64253 0.357342,0.339454 -0.548311,1.485439 -1.173918,1.485439 -0.324856,0 -0.24108,-0.379309 0.186166,-0.84291 z m -14.585621,-2.77176 c 0,-0.331347 0.406653,-0.602448 0.903673,-0.602448 0.49702,0 0.903672,0.271101 0.903672,0.602448 0,0.331347 -0.406652,0.602448 -0.903672,0.602448 -0.49702,0 -0.903673,-0.271101 -0.903673,-0.602448 z"
         id="path769" />
      <path
         style="fill:#333333;fill-opacity:1;stroke-width:0.602448"
         d="M 45.083111,88.708113 C 44.94505,88.57055 43.621281,88.277609 42.141403,88.057137 40.661524,87.836665 39.002784,87.41656 38.455312,87.123559 37.907841,86.830565 37.288713,86.76203 37.079473,86.971272 c -0.20924,0.209243 -0.380435,0.01896 -0.380435,-0.422828 0,-0.441794 -0.173591,-0.629673 -0.385758,-0.417509 -0.661559,0.661561 -3.831381,-1.592608 -3.831381,-2.724627 0,-1.341954 -0.170567,-1.360244 3.692501,0.396032 7.084725,3.220942 17.235606,3.497176 25.311118,0.688791 8.759853,-3.046377 16.188699,-9.629234 20.352695,-18.034968 1.367685,-2.760901 2.614952,-5.60494 2.771697,-6.320084 0.156751,-0.715144 0.442932,-1.910241 0.635956,-2.655771 0.735054,-2.839002 0.696136,-9.002169 -0.08525,-13.501861 C 82.890926,30.908223 72.017593,19.471363 58.927508,16.38576 46.494466,13.455036 33.895044,17.009492 24.926726,25.977811 13.93472,36.969817 11.2049,53.160795 18.055543,66.731843 c 1.684333,3.336643 1.704198,3.470284 0.502417,3.379754 -2.887232,-0.21749 -6.154728,-10.339812 -6.167953,-19.107609 -0.0163,-10.807843 3.177683,-18.613932 10.747137,-26.265962 5.334706,-5.392903 8.541326,-7.495911 14.690053,-9.634228 11.172799,-3.885516 25.305138,-1.653896 35.111112,5.544351 4.487024,3.293777 7.747788,6.359491 7.386265,6.944442 -0.176198,0.285097 -0.09054,0.518357 0.190355,0.518357 0.752278,0 4.120507,5.835578 5.513012,9.551498 0.664856,1.774185 1.527309,5.705161 1.916569,8.735502 2.892554,22.518536 -15.106966,42.49287 -38.343036,42.549831 -2.347039,0.006 -4.380302,-0.102097 -4.518363,-0.239666 z M 43.928418,74.865451 C 33.784419,72.606288 26.520849,64.954548 24.594141,54.497927 22.398857,42.583691 30.336685,30.400488 42.958919,26.311146 c 2.452095,-0.794428 6.859555,-0.925062 8.939364,-0.264956 0.861609,0.273464 1.086328,0.173854 0.76838,-0.340598 -0.346909,-0.561311 -0.155227,-0.569675 0.840679,-0.03668 0.709527,0.379728 1.536815,0.537904 1.838418,0.351502 0.301604,-0.186401 0.730076,-0.04491 0.95216,0.314436 0.222085,0.359341 0.797102,0.502419 1.277815,0.317952 0.480714,-0.184467 0.725951,-0.09581 0.544971,0.197026 -0.378606,0.612598 1.337662,1.414869 2.065058,0.965314 0.266726,-0.164846 0.6512,0.133505 0.854382,0.663001 0.217333,0.566356 0.752277,0.815807 1.299319,0.605889 0.606442,-0.232715 0.779851,-0.114072 0.498538,0.341096 -0.276867,0.447981 -0.113465,0.575946 0.45627,0.357318 0.560373,-0.215035 2.096045,0.911825 4.165358,3.056499 1.802755,1.86841 2.858287,3.127796 2.345621,2.798636 -0.512665,-0.32916 -0.241563,0.04126 0.602449,0.823153 0.844012,0.781894 1.127916,1.216452 0.630896,0.965684 -0.49702,-0.250768 -0.293694,0.136693 0.451836,0.861024 0.74553,0.724331 1.389397,1.577507 1.430815,1.895946 0.09872,0.758982 0.338697,1.708208 0.527142,2.085101 0.08284,0.165673 0.218388,0.572326 0.301225,0.903673 0.08284,0.331346 0.207091,0.670223 0.27612,0.75306 0.653186,0.783823 0.892111,8.924084 0.349233,11.898356 -1.679006,9.198737 -10.696453,17.678138 -20.506151,19.282602 -4.444785,0.726987 -5.735582,0.695726 -9.940399,-0.240726 z m 15.349297,-3.677086 c 4.563431,-2.187032 8.625276,-6.23416 10.893585,-10.854116 1.601127,-3.26108 1.770969,-4.184766 1.770969,-9.631485 0,-5.447977 -0.169703,-6.370389 -1.773403,-9.639175 -2.196027,-4.476113 -6.453451,-8.705403 -11.019369,-10.946554 -3.143048,-1.542743 -4.07486,-1.704862 -9.799043,-1.704862 -5.724183,0 -6.655995,0.162119 -9.799043,1.704862 -12.825971,6.29554 -17.078657,22.045209 -9.049877,33.515886 2.659422,3.799504 6.635005,6.835139 11.136314,8.503361 4.853643,1.79879 12.79958,1.371805 17.639867,-0.947917 z M 47.543109,63.10223 c 0,-2.192794 0.702082,-3.061516 2.474249,-3.061516 1.590242,0 1.74289,0.184675 1.74289,2.108569 0,2.00816 -0.100409,2.10857 -2.10857,2.10857 -1.676969,0 -2.108569,-0.236545 -2.108569,-1.155623 z M 41.518625,48.29297 c 0,-0.606755 -0.60685,-0.903673 -1.846951,-0.903673 -2.810187,0 -4.177533,-0.985935 -4.177533,-3.012242 0,-2.026306 1.367346,-3.012242 4.177533,-3.012242 1.240101,0 1.846951,-0.296918 1.846951,-0.903672 0,-0.49702 0.271102,-0.903673 0.602448,-0.903673 0.351428,0 0.602449,2.008161 0.602449,4.819587 0,2.811427 -0.251021,4.819588 -0.602449,4.819588 -0.331346,0 -0.602448,-0.406653 -0.602448,-0.903673 z m 16.266107,-3.915915 c 0,-2.811426 0.25102,-4.819587 0.602448,-4.819587 0.331347,0 0.602449,0.406653 0.602449,0.903673 0,0.606754 0.606849,0.903672 1.84695,0.903672 2.810187,0 4.177534,0.985936 4.177534,3.012242 0,2.026307 -1.367347,3.012242 -4.177534,3.012242 -1.240101,0 -1.84695,0.296918 -1.84695,0.903673 0,0.49702 -0.271102,0.903673 -0.602449,0.903673 -0.351428,0 -0.602448,-2.008161 -0.602448,-4.819588 z m 7.831829,-12.878874 c 0,-0.125102 -0.474428,-0.59953 -1.054285,-1.054284 -0.955519,-0.749368 -0.976828,-0.72806 -0.22746,0.227457 0.78702,1.003527 1.281745,1.322663 1.281745,0.826827 z M 49.445578,20.881568 c 0,-0.828367 0.136739,-1.167244 0.303866,-0.753061 0.167127,0.414183 0.167127,1.091938 0,1.506121 -0.167127,0.414183 -0.303866,0.07531 -0.303866,-0.75306 z m 1.204896,0 c 0,-0.828367 0.13674,-1.167244 0.303867,-0.753061 0.167126,0.414183 0.167126,1.091938 0,1.506121 -0.167127,0.414183 -0.303867,0.07531 -0.303867,-0.75306 z m 5.335519,-1.454483 c 0.390157,-0.390157 0.797527,-0.390157 1.187684,0 0.390157,0.390157 0.186472,0.593842 -0.593842,0.593842 -0.780314,0 -0.983999,-0.203685 -0.593842,-0.593842 z"
         id="path767" />
    </g>
  </g>
</svg>
