<?xml version="1.0" encoding="UTF-8" standalone="no"?>
<!-- Created with Inkscape (http://www.inkscape.org/) -->

<svg
   width="100mm"
   height="100mm"
   viewBox="0 0 100 100"
   version="1.1"
   id="svg1086"
   inkscape:version="1.1.1 (3bf5ae0d25, 2021-09-20)"
   sodipodi:docname="add_list_type_device_6072.svg"
   xmlns:inkscape="http://www.inkscape.org/namespaces/inkscape"
   xmlns:sodipodi="http://sodipodi.sourceforge.net/DTD/sodipodi-0.dtd"
   xmlns="http://www.w3.org/2000/svg"
   xmlns:svg="http://www.w3.org/2000/svg">
  <sodipodi:namedview
     id="namedview1088"
     pagecolor="#505050"
     bordercolor="#ffffff"
     borderopacity="1"
     inkscape:pageshadow="0"
     inkscape:pageopacity="0"
     inkscape:pagecheckerboard="1"
     inkscape:document-units="mm"
     showgrid="false"
     inkscape:zoom="0.58974467"
     inkscape:cx="397.62971"
     inkscape:cy="140.73887"
     inkscape:window-width="1440"
     inkscape:window-height="890"
     inkscape:window-x="-6"
     inkscape:window-y="-6"
     inkscape:window-maximized="1"
     inkscape:current-layer="layer1" />
  <defs
     id="defs1083" />
  <g
     inkscape:label="Laag 1"
     inkscape:groupmode="layer"
     id="layer1">
    <g
       id="g1102"
       transform="translate(1.3459215,0.897281)">
      <path
         style="fill:#d0d0d0;fill-opacity:1;stroke-width:0.599679"
         d="m 10.070508,91.702221 c -0.7459234,-0.951126 -0.7247128,-0.972337 0.226412,-0.226414 0.577191,0.452667 1.049438,0.924915 1.049438,1.049438 0,0.49356 -0.492448,0.175892 -1.27585,-0.823024 z"
         id="path1110" />
      <path
         style="fill:#b9b9b9;fill-opacity:1;stroke-width:0.599679"
         d="m 47.477017,97.135715 c 0.577191,-0.150831 1.521685,-0.150831 2.098876,0 0.577191,0.150837 0.104944,0.274251 -1.049438,0.274251 -1.154382,0 -1.626629,-0.123414 -1.049438,-0.274251 z m -2.932133,-6.782771 c 0,-3.133323 0.101073,-4.415137 0.224605,-2.848475 0.123534,1.566661 0.123534,4.130289 0,5.69695 -0.123532,1.566661 -0.224605,0.284847 -0.224605,-2.848475 z m 8.376102,0.899518 c 0.0026,-2.308764 0.111051,-3.179774 0.240866,-1.935584 0.129816,1.244196 0.127639,3.133185 -0.0049,4.197753 -0.132456,1.064574 -0.238669,0.0466 -0.236009,-2.262169 z m -30.480567,0.29984 c 0.596972,-0.659647 1.220332,-1.199358 1.385244,-1.199358 0.164911,0 -0.188593,0.539711 -0.785565,1.199358 -0.596972,0.659647 -1.220332,1.199358 -1.385243,1.199358 -0.164912,0 0.188592,-0.539711 0.785564,-1.199358 z m -9.65184,-2.548636 -1.142382,-1.349278 1.349278,1.142383 c 1.267988,1.073557 1.622276,1.556173 1.142381,1.556173 -0.113793,0 -0.720968,-0.607175 -1.349277,-1.349278 z m 33.784265,-5.683811 c 0.576615,-0.408634 0.781457,-8.854129 0.906529,-37.37567 l 0.161584,-36.8477433 -0.007,37.1301823 c -0.0061,32.49172 -0.119382,37.16085 -0.906529,37.375673 -0.661161,0.180438 -0.702121,0.105592 -0.154574,-0.282442 z m 3.409146,-0.360437 c -0.168224,-0.438384 -0.215246,-3.204403 -0.104494,-6.14671 l 0.201366,-5.349652 0.123315,5.796899 c 0.08463,3.97845 0.358458,5.89178 0.872913,6.099365 0.587122,0.236909 0.583043,0.312732 -0.01882,0.34981 -0.422631,0.02603 -0.906057,-0.311329 -1.07428,-0.749712 z M 49.91163,64.866587 c 0.0034,-1.978941 0.115319,-2.71621 0.248784,-1.638377 0.133465,1.077833 0.130711,2.696966 -0.0061,3.598074 -0.136831,0.901108 -0.24603,0.01925 -0.242664,-1.959697 z m 0.4612,-4.847405 c 0.02877,-0.698592 0.170873,-0.84069 0.362306,-0.362306 0.17323,0.432893 0.151925,0.950116 -0.04734,1.149385 -0.199268,0.199269 -0.341002,-0.154918 -0.314963,-0.787079 z m 0.225334,-25.136544 c 1.7e-4,-12.863114 0.07958,-18.039964 0.176465,-11.504109 0.09689,6.535854 0.09675,17.06022 -3.08e-4,23.38748 -0.09706,6.32726 -0.176326,0.979743 -0.176157,-11.883371 z M 49.773156,10.245827 c 0.02877,-0.6985922 0.170873,-0.8406903 0.362306,-0.3623066 0.17323,0.4328936 0.151925,0.9501166 -0.04734,1.1493846 -0.199268,0.199268 -0.341002,-0.154917 -0.314963,-0.787078 z"
         id="path1108" />
      <path
         style="fill:#a3a3a3;fill-opacity:1;stroke-width:0.599679"
         d="M 7.0453505,97.467331 C 4.6500752,96.590277 4.1502101,94.223008 4.1502101,83.756475 c 0,-10.771026 0.4667034,-12.820207 3.1313803,-13.749116 2.3968971,-0.835563 20.1249336,-0.835563 22.5218306,0 2.664677,0.928909 3.13138,2.97809 3.13138,13.749116 0,10.771026 -0.466703,12.820207 -3.13138,13.749116 -2.292898,0.799312 -20.5544769,0.768608 -22.7580705,-0.03826 z M 23.810495,94.096152 c 4.552342,-2.082805 7.134429,-7.741046 5.987204,-13.120023 -0.818795,-3.839073 -4.635773,-7.656053 -8.474848,-8.474849 -8.546234,-1.82273 -15.9573295,5.42084 -14.0826696,13.764336 0.9269472,4.125539 4.1842636,7.679789 7.8907476,8.610059 1.45557,0.365324 1.61254,0.24522 1.61254,-1.233804 0,-1.186129 -0.732592,-2.28338 -2.653365,-3.974108 -4.033593,-3.550514 -4.3717744,-7.789075 -0.89858,-11.262272 3.136595,-3.136591 7.575829,-3.126132 10.727242,0.02531 3.31557,3.315571 2.941189,8.214756 -0.957518,12.53016 -1.118137,1.237642 -2.836199,2.582968 -3.817917,2.98961 -0.981717,0.406642 -1.642979,0.969045 -1.469471,1.249785 0.39789,0.643797 3.559494,0.07492 6.136635,-1.104177 z"
         id="path1106" />
      <path
         style="fill:#333333;fill-opacity:1;stroke-width:0.599679"
         d="m 45.917135,96.189301 c -0.877773,-0.641842 -1.012239,-1.598234 -0.864215,-6.146709 0.160336,-4.926777 0.29048,-5.437128 1.524578,-5.97856 l 1.349278,-0.591961 V 46.469569 c 0,-35.248313 0.22136,-40.1567832 1.653353,-36.6615374 0.245037,0.5980954 0.400587,17.4268804 0.345665,37.3973004 l -0.09986,36.30985 1.299215,0.570409 c 1.164402,0.511214 1.319045,1.108356 1.490307,5.754753 0.178155,4.833431 0.09809,5.249488 -1.182871,6.14671 -1.649734,1.155515 -4.089431,1.244981 -5.515453,0.202247 z"
         id="path1104" />
    </g>
  </g>
</svg>
