<?xml version="1.0" encoding="UTF-8" standalone="no"?>
<!-- Created with Inkscape (http://www.inkscape.org/) -->

<svg
   width="100mm"
   height="100mm"
   viewBox="0 0 100 100"
   version="1.1"
   id="svg2080"
   inkscape:version="1.1.1 (3bf5ae0d25, 2021-09-20)"
   sodipodi:docname="add_list_type_device_6089.svg"
   xmlns:inkscape="http://www.inkscape.org/namespaces/inkscape"
   xmlns:sodipodi="http://sodipodi.sourceforge.net/DTD/sodipodi-0.dtd"
   xmlns="http://www.w3.org/2000/svg"
   xmlns:svg="http://www.w3.org/2000/svg">
  <sodipodi:namedview
     id="namedview2082"
     pagecolor="#505050"
     bordercolor="#ffffff"
     borderopacity="1"
     inkscape:pageshadow="0"
     inkscape:pageopacity="0"
     inkscape:pagecheckerboard="1"
     inkscape:document-units="mm"
     showgrid="false"
     inkscape:zoom="0.58974467"
     inkscape:cx="397.62971"
     inkscape:cy="201.78224"
     inkscape:window-width="1440"
     inkscape:window-height="890"
     inkscape:window-x="-6"
     inkscape:window-y="-6"
     inkscape:window-maximized="1"
     inkscape:current-layer="layer1" />
  <defs
     id="defs2077" />
  <g
     inkscape:label="Laag 1"
     inkscape:groupmode="layer"
     id="layer1">
    <g
       id="g2096"
       transform="translate(-0.44863792)">
      <path
         style="fill:#d0d0d0;fill-opacity:1;stroke-width:0.599679"
         d="m 47.176055,95.198569 c -4.688993,-1.495731 -4.77287,-3.054285 -0.140539,-2.611392 1.901644,0.181817 4.465271,0.166771 5.69695,-0.0334 2.460055,-0.399872 2.790438,-0.01859 1.189977,1.373379 -1.116713,0.971222 -5.247197,1.749665 -6.746388,1.271445 z M 19.295227,93.207161 c -0.210091,-0.339934 0.03062,-0.440464 0.564288,-0.23568 1.038894,0.398661 1.228974,0.828493 0.366377,0.828493 -0.310359,0 -0.729158,-0.266767 -0.930665,-0.592813 z m -7.257369,-2.555502 -1.142382,-1.349278 1.349278,1.142383 c 1.267988,1.073557 1.622276,1.556173 1.142381,1.556173 -0.113793,0 -0.720968,-0.607175 -1.349277,-1.349278 z m 13.249914,0.14992 c 0.596972,-0.659647 1.220332,-1.199358 1.385243,-1.199358 0.164912,0 -0.188592,0.539711 -0.785564,1.199358 -0.596972,0.659647 -1.220332,1.199358 -1.385244,1.199358 -0.164911,0 0.188593,-0.539711 0.785565,-1.199358 z m 17.69053,-0.492091 c -2.10198,-0.293237 -2.629527,-0.990466 -1.559236,-2.060755 0.822322,-0.822327 0.780035,-0.958185 -0.411208,-1.321104 -0.815951,-0.248585 -1.037394,-0.524288 -0.574455,-0.715219 0.414334,-0.170885 0.6008,-0.55751 0.414368,-0.859161 -0.186433,-0.30165 0.149206,-0.552592 0.745862,-0.557641 0.879817,-0.0074 0.922812,-0.111714 0.227513,-0.551723 -2.513711,-1.590768 0.310932,-3.557217 3.414638,-2.377187 0.780269,0.296655 3.087699,0.558343 5.127625,0.581527 2.627374,0.02986 3.359206,0.192437 2.509596,0.557527 -1.528117,0.656655 0.04847,0.656655 2.098877,0 1.438273,-0.460613 1.444365,-0.482556 0.149919,-0.539903 -0.742102,-0.03286 -1.349277,-0.3585 -1.349277,-0.723615 0,-0.365108 0.426853,-0.500036 0.948564,-0.299839 0.521711,0.200203 1.286302,0.363999 1.699091,0.363999 0.927285,0 1.011273,1.936885 0.110116,2.539455 -0.4552,0.304373 -0.42716,0.443414 0.0907,0.449759 0.412279,0.005 0.749598,0.548892 0.749598,1.208539 0,0.659647 -0.302897,1.199358 -0.673106,1.199358 -0.479872,0 -0.48972,0.22097 -0.0343,0.769712 1.424514,1.716431 -0.216813,2.359125 -6.265215,2.453269 -3.256262,0.05069 -6.595113,-0.002 -7.419672,-0.116998 z m 3.27542,-1.343862 c -0.269415,-0.435919 1.229361,-0.571488 4.754639,-0.43006 5.792323,0.232375 5.477218,-0.58016 -0.439244,-1.132644 -3.386872,-0.31627 -3.983276,-0.20888 -5.112789,0.920633 -1.276665,1.276663 -1.276734,1.278666 -0.04392,1.278666 0.718194,0 1.070156,-0.266318 0.841313,-0.636595 z m 7.668721,0.239439 c -0.412279,-0.166356 -1.086918,-0.166356 -1.499197,0 -0.412279,0.166357 -0.07496,0.302473 0.749599,0.302473 0.824558,0 1.161878,-0.136116 0.749598,-0.302473 z M 46.576376,86.33938 c 0,-0.63295 -1.150852,-0.898865 -1.493152,-0.345014 -0.207167,0.335203 0.04404,0.60946 0.558242,0.60946 0.5142,0 0.93491,-0.119 0.93491,-0.264446 z m 7.033735,-0.09786 c -0.199269,-0.199267 -0.716492,-0.220568 -1.149385,-0.04731 -0.478384,0.19143 -0.336286,0.33353 0.362306,0.362302 0.632161,0.02603 0.986347,-0.115696 0.787079,-0.314963 z m -9.167888,-0.779973 c 0.18444,-0.29843 1.347252,-0.442605 2.584027,-0.320384 5.216165,0.51546 9.38239,0.715861 8.545311,0.411032 -0.494736,-0.180156 -1.034447,-0.528815 -1.199358,-0.774791 -0.364866,-0.544227 -3.288074,-0.779031 -8.095667,-0.65028 -2.344742,0.06279 -3.306643,0.280889 -2.761433,0.626119 0.672228,0.425652 0.613306,0.586947 -0.29984,0.820768 -0.928776,0.237827 -0.951152,0.303726 -0.122433,0.360575 0.557726,0.03826 1.164953,-0.174608 1.349393,-0.473039 z m 1.534474,-2.455793 c 0,-0.329823 -0.877031,-0.572777 -1.948957,-0.539903 -1.846572,0.05661 -1.870199,0.085 -0.449759,0.539903 2.116147,0.677709 2.398716,0.677709 2.398716,0 z m -31.859478,5.547031 c -0.745924,-0.951127 -0.724713,-0.972338 0.226412,-0.226415 0.577191,0.452668 1.049438,0.924915 1.049438,1.049438 0,0.49356 -0.492448,0.175892 -1.27585,-0.823023 z m 26.462367,-7.945747 c -0.65363,-0.422408 -0.684937,-0.583823 -0.114529,-0.590498 0.431745,-0.0048 0.637172,-0.248357 0.456504,-0.540682 -0.180667,-0.292326 0.206828,-0.671491 0.861101,-0.842585 1.474005,-0.385462 2.241262,-2.177435 1.206195,-2.817142 -0.420139,-0.259661 -0.578464,-0.772135 -0.351831,-1.138839 0.226632,-0.366697 0.117807,-0.666723 -0.241833,-0.666723 -1.066766,0 -1.461857,1.867209 -0.66506,3.14308 0.600228,0.961117 0.589778,1.135486 -0.05528,0.922336 -0.437486,-0.144565 -0.930357,-1.129303 -1.095269,-2.188312 -0.195074,-1.2527 -0.807122,-2.17894 -1.751681,-2.650887 -2.596061,-1.297124 -2.20956,-2.178766 0.671192,-1.531053 3.064564,0.689043 13.181846,0.803846 17.980542,0.204035 l 3.407276,-0.425892 0.416983,-3.983847 c 0.229341,-2.191113 0.979306,-5.737903 1.66658,-7.881755 0.68728,-2.143853 1.260135,-4.437625 1.27301,-5.097272 0.01289,-0.659646 0.373001,-1.127806 0.800272,-1.040353 0.445184,0.09112 1.496289,-1.445038 2.461958,-3.598074 0.926804,-2.066393 1.995384,-4.431717 2.374621,-5.256276 l 0.689517,-1.499197 -0.336162,1.499197 c -0.184893,0.824559 -1.79346,4.467609 -3.574597,8.095667 -3.413169,6.9524 -4.129485,9.185163 -4.792616,14.938603 -0.461447,4.003552 -1.31373,5.750321 -2.805706,5.750321 -1.249746,0 -1.917656,0.999191 -1.958848,2.930428 -0.01715,0.803725 -0.314839,1.557204 -0.661546,1.674393 -0.392734,0.132751 -0.535005,-0.603858 -0.377391,-1.95394 0.217209,-1.860546 0.09434,-2.136902 -0.86882,-1.95406 -0.710389,0.13485 -1.191812,0.820181 -1.31269,1.868666 -0.157261,1.364078 0.134977,1.792728 1.659103,2.433575 1.017493,0.427823 1.665589,0.962263 1.440215,1.187635 -0.225375,0.225377 -0.07901,0.409772 0.325244,0.409772 0.404259,0 0.554723,0.29172 0.334365,0.648271 -0.368436,0.596141 -1.607041,0.479695 -4.692579,-0.441154 -0.729644,-0.217755 -0.980446,-0.102467 -0.714208,0.328319 0.282944,0.457812 -0.728646,0.663922 -3.258528,0.663922 -2.125199,0 -3.522941,-0.236093 -3.322055,-0.561137 0.21532,-0.348396 -0.394982,-0.348396 -1.609767,0 -2.37774,0.68193 -2.348331,0.682254 -3.463684,-0.03854 z m 13.435875,-1.799037 c -1.056296,-0.639132 -1.436826,-1.3335 -1.314549,-2.398716 0.166825,-1.453304 0.04818,-1.504624 -3.87574,-1.676516 L 44.777339,74.55545 v 2.034638 c 0,1.463985 -0.340185,2.186478 -1.212925,2.576036 -0.813044,0.362907 0.954845,0.541396 5.362383,0.541396 6.105663,0 6.469124,-0.06425 5.088664,-0.899519 z m -41.920627,-1.19936 c 0.596972,-0.659647 1.220332,-1.199358 1.385244,-1.199358 0.164912,0 -0.188593,0.539711 -0.785565,1.199358 -0.596972,0.659647 -1.220331,1.199358 -1.385243,1.199358 -0.164912,0 0.188592,-0.539711 0.785564,-1.199358 z m 13.135961,-0.149919 -1.142381,-1.349278 1.349278,1.142382 c 1.267988,1.073558 1.622276,1.556173 1.142381,1.556173 -0.113793,0 -0.720968,-0.607175 -1.349278,-1.349277 z M 36.49874,68.313617 c 0.01222,-0.98947 0.14662,-1.321656 0.298665,-0.738187 0.152045,0.58347 0.142046,1.393036 -0.02222,1.799037 -0.164268,0.406001 -0.288669,-0.07138 -0.276447,-1.06085 z m 5.481596,0.559369 c -0.198355,-0.516906 -0.08182,-1.218656 0.258973,-1.559448 0.426372,-0.426371 0.591477,-0.133386 0.529386,0.93941 -0.104002,1.796938 -0.282784,1.937544 -0.788359,0.620038 z m 1.403283,0.09894 c -0.318042,-0.828805 0.04019,-1.557828 0.765485,-1.557828 0.204176,0 0.37123,0.539711 0.37123,1.199358 0,1.383063 -0.663276,1.592231 -1.136715,0.35847 z m 2.593078,0.241209 c 0,-0.329824 1.063496,-0.599679 2.363324,-0.599679 1.299829,0 2.530105,0.269855 2.733947,0.599679 0.22638,0.366289 -0.693398,0.599678 -2.363325,0.599678 -1.50367,0 -2.733946,-0.269855 -2.733946,-0.599678 z m 7.622906,-0.602876 c 0.17296,-0.661404 0.0282,-1.547483 -0.321678,-1.969064 -0.85047,-1.024755 0.064,-2.396365 1.423153,-2.134575 1.002871,0.193163 1.010912,0.282689 0.106619,1.186969 -0.537934,0.53793 -0.804054,1.152055 -0.591378,1.364731 0.798419,0.798419 0.733387,2.754493 -0.09158,2.754493 -0.545118,0 -0.729312,-0.421796 -0.525139,-1.202554 z M 44.02774,65.817585 c 0.412279,-0.166357 1.086918,-0.166357 1.499198,0 0.412279,0.166357 0.07496,0.302472 -0.749599,0.302472 -0.824559,0 -1.161878,-0.136115 -0.749599,-0.302472 z m 3.035875,-0.01247 c 0.432893,-0.173229 0.950116,-0.151929 1.149385,0.04732 0.199268,0.199273 -0.154918,0.341001 -0.787079,0.314963 -0.698592,-0.02878 -0.84069,-0.170873 -0.362306,-0.362302 z m 3.272168,-1.205283 c 0.583467,-0.152043 1.393034,-0.142046 1.799036,0.02219 0.406002,0.16427 -0.07138,0.288668 -1.060851,0.276446 -0.98947,-0.01223 -1.321654,-0.146621 -0.738185,-0.298664 z M 35.829497,62.866553 c 0.02877,-0.698596 0.170873,-0.84069 0.362306,-0.362308 0.17323,0.43289 0.151925,0.950113 -0.04734,1.149387 -0.199269,0.199267 -0.341002,-0.154921 -0.314964,-0.787079 z m -2.202632,-6.946646 c 0.154287,-0.549895 -0.102673,-1.146855 -0.571022,-1.326577 -0.496772,-0.19063 -0.696671,-0.730357 -0.479811,-1.295487 0.3342,-0.87091 0.464675,-0.875776 1.292262,-0.04819 0.751562,0.751563 0.788142,1.172872 0.199289,2.295296 -0.396683,0.756122 -0.595006,0.924853 -0.440718,0.374958 z m 40.029748,-22.68751 c 0,-0.824559 0.136115,-1.161878 0.302472,-0.749599 0.166357,0.412279 0.166357,1.086918 0,1.499197 -0.166357,0.41228 -0.302472,0.07496 -0.302472,-0.749598 z m 0,-6.596469 c 0,-0.824559 0.136115,-1.161878 0.302472,-0.749599 0.166357,0.412279 0.166357,1.086918 0,1.499198 -0.166357,0.412279 -0.302472,0.07496 -0.302472,-0.749599 z m -6.723433,-13.642697 -2.066595,-2.248796 2.248796,2.066594 c 1.236838,1.136626 2.248796,2.148585 2.248796,2.248796 0,0.457927 -0.50746,0.02654 -2.430997,-2.066594 z"
         id="path2108" />
      <path
         style="fill:#b9b9b9;fill-opacity:1;stroke-width:0.599679"
         d="m 16.592427,93.570075 c 0,-0.126442 0.540083,-0.37113 1.200185,-0.543753 0.660102,-0.172618 1.048959,-0.06917 0.864127,0.229899 -0.322777,0.522266 -2.064312,0.787043 -2.064312,0.313854 z M 44.17766,89.366541 c 0,-0.568873 1.795066,-0.855574 2.115063,-0.337811 0.194939,0.315419 -0.201202,0.573491 -0.880314,0.573491 -0.679112,0 -1.234749,-0.106059 -1.234749,-0.23568 z m 8.245586,-0.161476 c 0.412279,-0.166356 1.086918,-0.166356 1.499197,0 0.41228,0.166357 0.07496,0.302473 -0.749598,0.302473 -0.824559,0 -1.161878,-0.136116 -0.749599,-0.302473 z m -7.340022,-3.210699 c 0.207167,-0.335202 0.627876,-0.454209 0.934909,-0.264446 0.831782,0.514063 0.676685,0.873906 -0.376667,0.873906 -0.5142,0 -0.765409,-0.274257 -0.558242,-0.60946 z m 7.377502,0.199813 c 0.432893,-0.173229 0.950116,-0.151928 1.149385,0.04731 0.199268,0.199267 -0.154918,0.341001 -0.787079,0.314963 -0.698592,-0.02878 -0.84069,-0.170872 -0.362306,-0.362302 z M 42.865862,85.5945 c 0.432893,-0.173229 0.950116,-0.151928 1.149385,0.04731 0.199268,0.199267 -0.154917,0.341001 -0.787079,0.314963 -0.698591,-0.02878 -0.84069,-0.170872 -0.362306,-0.362302 z m 11.99358,0 c 0.432893,-0.173229 0.950116,-0.151928 1.149385,0.04731 0.199268,0.199267 -0.154918,0.341001 -0.787079,0.314963 -0.698592,-0.02878 -0.84069,-0.170872 -0.362306,-0.362302 z M 43.577981,83.005752 c -1.42044,-0.454904 -1.396813,-0.483269 0.449759,-0.539903 1.071926,-0.03287 1.948957,0.21008 1.948957,0.539903 0,0.677709 -0.282569,0.677709 -2.398716,0 z m 9.295024,0 c 0.659647,-0.283462 1.739069,-0.507448 2.398716,-0.497751 0.964155,0.01415 0.905354,0.11178 -0.299839,0.497751 -2.050405,0.656655 -3.626994,0.656655 -2.098877,0 z m -9.894703,-2.028966 c 0,-0.126466 0.666472,-0.357336 1.48105,-0.513055 0.814577,-0.155713 1.338362,-0.05223 1.163967,0.229935 -0.307084,0.49687 -2.645017,0.747122 -2.645017,0.28312 z m 9.280169,-0.393785 c -0.252835,-0.409095 0.199273,-0.483245 1.313886,-0.215483 2.297618,0.551957 2.515084,0.839197 0.635344,0.839197 -0.860064,0 -1.737218,-0.280674 -1.94923,-0.623714 z M 42.865862,79.59771 c 0.432893,-0.173229 0.950116,-0.151928 1.149385,0.04731 0.199268,0.199267 -0.154917,0.341002 -0.787079,0.314964 -0.698591,-0.02878 -0.84069,-0.170873 -0.362306,-0.362303 z m 11.393901,0 c 0.432893,-0.173229 0.950116,-0.151928 1.149385,0.04731 0.199268,0.199267 -0.154918,0.341002 -0.787079,0.314964 -0.698592,-0.02878 -0.84069,-0.170873 -0.362306,-0.362303 z m -12.46239,-2.266702 c -0.858362,-1.034266 -0.614892,-2.822449 0.431738,-3.170935 0.476077,-0.158519 0.616913,0.09711 0.3856,0.699904 -0.200423,0.522296 -0.06568,0.949627 0.299432,0.949627 0.790346,0 0.892278,1.587069 0.132107,2.056881 -0.292452,0.180749 -0.854447,-0.06022 -1.248877,-0.535477 z m 12.224588,0.06269 c -0.568471,-1.481411 -0.01758,-3.053775 1.148603,-3.278361 0.895879,-0.172527 1.05108,0.131036 0.892631,1.745972 -0.205489,2.094378 -1.463247,3.038597 -2.041234,1.532389 z m -10.885917,-5.24033 c -2.716742,-0.253587 -5.18541,-0.613028 -5.485931,-0.798761 -0.30052,-0.185732 -0.739958,-2.295211 -0.976529,-4.687738 -0.23657,-2.392522 -1.065685,-6.047653 -1.842476,-8.122511 -0.776791,-2.074859 -1.15044,-3.610602 -0.83033,-3.412763 1.012017,0.62546 0.628509,-1.325441 -0.429779,-2.186284 -0.886039,-0.720731 -0.962913,-0.69259 -0.6185,0.226412 0.216314,0.577191 0.293495,1.049438 0.171513,1.049438 -0.509789,0 -2.971708,-4.72621 -3.982811,-7.645907 l -1.090274,-3.148315 h 20.996875 20.996879 l -0.392964,1.349278 c -0.965849,3.316384 -3.895389,8.850278 -4.607957,8.70443 -0.427271,-0.08745 -0.787391,0.380707 -0.800272,1.040353 -0.01289,0.659647 -0.58573,2.953419 -1.27301,5.097272 -0.687274,2.143852 -1.438246,5.700038 -1.668817,7.902635 l -0.419217,4.004717 -4.00472,0.355693 c -7.971906,0.708059 -8.878329,0.726002 -13.74168,0.272051 z m -0.367349,-3.90042 c 0.06209,-1.072796 -0.103014,-1.365781 -0.529386,-0.93941 -0.34079,0.340792 -0.457328,1.042542 -0.258973,1.559448 0.505575,1.317506 0.684357,1.1769 0.788359,-0.620038 z m 1.751639,0.360509 c 0,-1.196756 -0.422419,-1.519401 -1.100927,-0.840888 -0.430354,0.430353 0.117188,2.040245 0.693909,2.040245 0.22386,0 0.407018,-0.539711 0.407018,-1.199357 z m 6.553634,0.599679 c -0.203842,-0.329824 -1.434118,-0.599679 -2.733947,-0.599679 -1.299828,0 -2.363324,0.269855 -2.363324,0.599679 0,0.329823 1.230276,0.599678 2.733946,0.599678 1.669927,0 2.589705,-0.233389 2.363325,-0.599678 z m 3.709711,-0.584226 c -0.09937,-0.651149 -0.354684,-1.357913 -0.56736,-1.570589 -0.212676,-0.212676 0.05344,-0.826801 0.591378,-1.364731 0.904293,-0.90428 0.896252,-0.993806 -0.106619,-1.186969 -1.359148,-0.26179 -2.273623,1.10982 -1.423153,2.134575 0.349883,0.421581 0.494638,1.30766 0.321678,1.969064 -0.204173,0.780758 -0.01998,1.202554 0.525139,1.202554 0.497187,0 0.765927,-0.482843 0.658937,-1.183904 z m -9.256741,-2.811325 c -0.41228,-0.166357 -1.086919,-0.166357 -1.499198,0 -0.412279,0.166357 -0.07496,0.302472 0.749599,0.302472 0.824558,0 1.161878,-0.136115 0.749599,-0.302472 z m 2.686062,0.03484 c -0.199269,-0.199268 -0.716492,-0.220568 -1.149385,-0.04732 -0.478384,0.191429 -0.336286,0.333529 0.362306,0.362302 0.632161,0.02603 0.986347,-0.11569 0.787079,-0.314963 z m 3.921819,-1.230404 c -0.406002,-0.164264 -1.215569,-0.174261 -1.799036,-0.02219 -0.583469,0.152043 -0.251285,0.286443 0.738185,0.298664 0.98947,0.01223 1.466853,-0.112176 1.060851,-0.276446 z M 73.713157,29.934162 c 0.0067,-1.319294 0.129465,-1.788394 0.272902,-1.042446 0.143437,0.745948 0.137992,1.82537 -0.01211,2.398716 -0.150081,0.573345 -0.267444,-0.03698 -0.260788,-1.35627 z M 53.934714,28.10306 c -2.141492,-0.978541 -3.032709,-1.702281 -2.810206,-2.282115 0.264593,-0.689518 0.99494,-0.553394 3.885643,0.724217 1.957892,0.865335 3.559804,1.914397 3.559804,2.331249 0,1.053525 -1.003674,0.88607 -4.635241,-0.773351 z m 0.437489,-10.956663 c 0,-0.826641 2.21905,-1.287207 6.246656,-1.296502 4.589645,-0.01059 4.131604,0.346336 -1.001455,0.780391 -2.227403,0.188351 -4.318783,0.508682 -4.647512,0.711848 -0.328729,0.203165 -0.597689,0.115083 -0.597689,-0.195737 z m 8.638369,-5.652363 -1.142382,-1.349278 1.349278,1.142381 c 0.742102,0.62831 1.349277,1.235485 1.349277,1.349278 0,0.479895 -0.482615,0.125607 -1.556173,-1.142381 z m 2.079357,0.299839 c -0.745923,-0.951124 -0.724712,-0.972335 0.226415,-0.226412 0.998915,0.783402 1.316583,1.27585 0.823023,1.27585 -0.124523,0 -0.59677,-0.472247 -1.049438,-1.049438 z m -32.30617,-0.376332 c 0,-0.124526 0.472247,-0.596774 1.049438,-1.049438 0.951125,-0.745923 0.972336,-0.7247124 0.226412,0.226412 -0.783402,0.998914 -1.27585,1.316583 -1.27585,0.823026 z"
         id="path2106" />
      <path
         style="fill:#a3a3a3;fill-opacity:1;stroke-width:0.599679"
         d="M 15.844728,97.947252 C 8.6479683,96.250718 3.6333411,88.490722 5.2041834,81.481308 7.9465034,69.244529 23.790022,66.098007 30.628731,76.431993 c 5.47589,8.274629 0.994553,19.291457 -8.762735,21.542124 -2.956413,0.681943 -3.015605,0.681679 -6.021268,-0.02687 z m 6.941669,-4.965258 c 6.161472,-2.574422 7.663511,-10.652158 2.871765,-15.443905 -3.889848,-3.889848 -9.44419,-3.889848 -13.334039,0 -7.4159605,7.41596 0.766787,19.49494 10.462274,15.443905 z m -4.994612,-0.734967 c 0,-0.566499 -1.079422,-2.026519 -2.398716,-3.244485 -2.071533,-1.91243 -2.398716,-2.560521 -2.398716,-4.751443 0,-5.508819 6.358228,-8.172317 10.240672,-4.289869 3.390075,3.390075 1.849891,9.216838 -3.184144,12.046123 -2.042255,1.14781 -2.259096,1.170814 -2.259096,0.239674 z m 8.172416,-53.60057 c -0.644037,-1.609608 -0.791653,-2.78752 -0.435462,-3.474802 0.29637,-0.571857 1.284613,-2.928729 2.196095,-5.237493 0.911482,-2.308764 1.878318,-4.489727 2.148524,-4.846586 0.270206,-0.356857 0.434334,-2.110918 0.364729,-3.897913 -0.06961,-1.786994 0.109269,-4.031433 0.397499,-4.987642 0.401377,-1.331578 0.349196,-1.630492 -0.222912,-1.27691 -1.632995,1.009246 0.560125,-1.930355 2.602199,-3.48792 2.986264,-2.2777353 4.533403,-2.0760999 2.374499,0.309463 -0.937264,1.035665 -0.905881,1.096657 0.564287,1.096657 0.856212,0 1.72625,0.274257 1.933417,0.609461 0.207167,0.335203 0.629783,0.453028 0.939145,0.261831 0.309363,-0.191197 0.724371,0.07426 0.922241,0.589897 0.19787,0.51564 0.915579,0.937527 1.594908,0.937527 0.67933,0 1.064081,0.171065 0.855003,0.380144 -0.20908,0.209079 0.150728,1.055038 0.799571,1.879908 1.720229,2.186917 1.473935,3.537903 -1.319494,7.237773 -2.889622,3.827278 -6.337197,10.631745 -6.99246,13.800997 l -0.452287,2.187535 -3.647591,0.176568 -3.647592,0.176568 z m 32.368837,0.457789 c 0.08276,-1.085665 0.29218,-2.906057 0.465365,-4.045316 0.173184,-1.139259 0.03383,-2.41002 -0.309665,-2.823913 -0.3435,-0.413893 -0.453396,-1.531772 -0.244213,-2.484177 0.354483,-1.613954 0.197414,-1.801502 -2.311041,-2.75949 -1.480256,-0.565315 -3.350039,-1.54595 -4.155073,-2.17919 -1.442406,-1.134597 -1.44993,-1.189638 -0.517212,-3.783418 1.102626,-3.066277 2.886782,-3.967703 8.76594,-4.428898 2.002047,-0.157053 4.044487,-0.670994 4.538761,-1.142093 0.797765,-0.760368 0.786886,-1.051315 -0.09689,-2.591202 -0.858333,-1.495561 -0.874584,-1.781079 -0.117927,-2.071437 0.482699,-0.185228 0.736699,-0.108742 0.564448,0.169969 -0.172258,0.278711 0.806376,1.406456 2.174735,2.506098 1.36836,1.099643 2.169915,2.105353 1.781239,2.234912 -0.388676,0.129559 -0.706686,1.022641 -0.706686,1.984625 0,0.961985 -0.497607,2.246673 -1.105796,2.854861 -1.486064,1.486065 -2.080382,7.012654 -1.260453,11.721033 0.358902,2.060962 0.565881,4.807982 0.45996,6.104489 l -0.192587,2.357285 -3.941696,0.174899 -3.941692,0.1749 z m 14.676558,-5.022304 c 0.02878,-0.698592 0.170872,-0.84069 0.362302,-0.362306 0.173229,0.432893 0.151928,0.950116 -0.04731,1.149385 -0.199273,0.199268 -0.341001,-0.154918 -0.314963,-0.787079 z m -48.574,-1.199358 c 0.02877,-0.698592 0.170873,-0.84069 0.362307,-0.362306 0.173229,0.432893 0.151925,0.950116 -0.04734,1.149385 -0.199269,0.199268 -0.341002,-0.154918 -0.314963,-0.787079 z m 0,-5.99679 c 0.02877,-0.698592 0.170873,-0.84069 0.362307,-0.362306 0.173229,0.432893 0.151925,0.950116 -0.04734,1.149385 -0.199269,0.199268 -0.341002,-0.154918 -0.314963,-0.787079 z m 48.574,-1.199358 c 0.02878,-0.698592 0.170872,-0.84069 0.362302,-0.362306 0.173229,0.432893 0.151928,0.950116 -0.04731,1.149385 -0.199273,0.199268 -0.341001,-0.154918 -0.314963,-0.787079 z M 69.70257,17.216847 c -0.325434,-0.854661 -0.256555,-0.923543 0.3357,-0.335697 0.409833,0.406782 0.594084,0.890667 0.409449,1.075301 -0.184635,0.184634 -0.519952,-0.148188 -0.745149,-0.739604 z"
         id="path2104" />
      <path
         style="fill:#8c8c8c;fill-opacity:1;stroke-width:0.599679"
         d="m 66.262499,38.634804 c 0.125537,-1.31638 -0.07432,-4.130864 -0.444116,-6.254408 -0.837847,-4.811302 -0.258761,-10.33542 1.24064,-11.834819 0.608189,-0.608188 1.105796,-1.915364 1.105796,-2.904834 0,-2.633091 0.794803,-2.21101 2.616489,1.389492 2.381338,4.706637 3.169226,9.761583 2.306048,14.79525 -1.08392,6.320927 -1.645237,7.202738 -4.584882,7.202738 H 66.03425 Z M 25.050552,35.331273 c 0.08941,-0.329823 -0.04104,-1.712749 -0.289881,-3.073169 -0.633891,-3.465432 0.581577,-9.471418 2.737657,-13.527572 2.008121,-3.777803 3.994017,-5.335752 3.117685,-2.445845 -0.276173,0.910742 -0.450039,3.005173 -0.38637,4.65429 0.0772,1.999495 -0.305848,3.897405 -1.149785,5.696951 -0.696052,1.484205 -1.722413,3.981203 -2.280803,5.548882 -0.874972,2.456486 -2.215315,4.868457 -1.748503,3.146463 z"
         id="path2102" />
      <path
         style="fill:#606060;fill-opacity:1;stroke-width:0.599679"
         d="m 46.737709,6.4309495 c 0.583467,-0.1520447 1.393034,-0.1420454 1.799037,0.022221 0.406001,0.1642659 -0.07138,0.2886661 -1.060852,0.2764448 -0.98947,-0.012221 -1.321654,-0.1466207 -0.738185,-0.2986658 z m 5.39711,0 c 0.583468,-0.1520447 1.393035,-0.1420454 1.799037,0.022221 0.406002,0.1642659 -0.07138,0.2886661 -1.060851,0.2764448 -0.98947,-0.012221 -1.321654,-0.1466207 -0.738186,-0.2986658 z m 3.324302,-1.1934351 c 0.432893,-0.1732297 0.950116,-0.1519253 1.149385,0.047343 0.199268,0.1992684 -0.154918,0.3410017 -0.787079,0.314963 -0.698592,-0.028775 -0.84069,-0.1708725 -0.362306,-0.362306 z M 46.126617,4.6066968 c 1.566661,-0.1235331 4.130289,-0.1235331 5.69695,0 1.566661,0.123533 0.284847,0.2246055 -2.848475,0.2246055 -3.133323,0 -4.415137,-0.1010725 -2.848475,-0.2246055 z"
         id="path2100" />
      <path
         style="fill:#333333;fill-opacity:1;stroke-width:0.599679"
         d="M 62.274238,10.091682 C 59.507804,8.1539979 53.533845,6.1462173 50.452499,6.1185289 47.290035,6.0901117 41.821429,7.57133 39.696555,9.0318674 37.987453,10.206623 36.248731,10.079415 36.495571,8.7976771 c 0.11875,-0.6166181 1.554702,-1.6086124 3.492125,-2.4124558 2.859945,-1.1866004 4.155136,-1.3438041 9.899537,-1.2015568 6.10088,0.1510747 6.919383,0.3164158 10.644302,2.1501934 2.219364,1.092594 4.03521,2.3744078 4.03521,2.8484751 0,1.113183 -0.608128,1.089136 -2.292507,-0.09065 z"
         id="path2098" />
    </g>
  </g>
</svg>
