<?xml version="1.0" encoding="UTF-8" standalone="no"?>
<!-- Created with Inkscape (http://www.inkscape.org/) -->

<svg
   width="100mm"
   height="100mm"
   viewBox="0 0 100 100"
   version="1.1"
   id="svg6656"
   inkscape:version="1.1.1 (3bf5ae0d25, 2021-09-20)"
   sodipodi:docname="add_list_type_device_7012.svg"
   xmlns:inkscape="http://www.inkscape.org/namespaces/inkscape"
   xmlns:sodipodi="http://sodipodi.sourceforge.net/DTD/sodipodi-0.dtd"
   xmlns="http://www.w3.org/2000/svg"
   xmlns:svg="http://www.w3.org/2000/svg">
  <sodipodi:namedview
     id="namedview6658"
     pagecolor="#505050"
     bordercolor="#ffffff"
     borderopacity="1"
     inkscape:pageshadow="0"
     inkscape:pageopacity="0"
     inkscape:pagecheckerboard="1"
     inkscape:document-units="mm"
     showgrid="false"
     inkscape:zoom="0.58974467"
     inkscape:cx="397.62971"
     inkscape:cy="147.52147"
     inkscape:window-width="1440"
     inkscape:window-height="890"
     inkscape:window-x="-6"
     inkscape:window-y="-6"
     inkscape:window-maximized="1"
     inkscape:current-layer="layer1" />
  <defs
     id="defs6653" />
  <g
     inkscape:label="Laag 1"
     inkscape:groupmode="layer"
     id="layer1">
    <g
       id="g6672"
       transform="translate(0.44863577,-1.3459215)">
      <path
         style="fill:#d0d0d0;fill-opacity:1;stroke-width:0.599679"
         d="m 18.226475,93.675129 c 0.194939,-0.315419 0.750577,-0.421472 1.234749,-0.23568 1.239604,0.475684 1.093529,0.809171 -0.354435,0.809171 -0.679112,0 -1.075253,-0.258072 -0.880314,-0.573491 z M 11.86954,91.400145 c -0.745923,-0.951127 -0.724713,-0.972337 0.226412,-0.226415 0.577191,0.452668 1.049438,0.924915 1.049438,1.049439 0,0.493559 -0.492448,0.175891 -1.27585,-0.823024 z m 1.799037,-2.398716 c -0.745923,-0.951127 -0.724713,-0.972337 0.226412,-0.226415 0.577191,0.452668 1.049438,0.924915 1.049438,1.049439 0,0.493559 -0.492448,0.175891 -1.27585,-0.823024 z M 9.0867646,84.653757 c 0,-1.154382 0.1234109,-1.62663 0.274247,-1.049439 0.1508354,0.577191 0.1508354,1.521686 0,2.098877 -0.1508361,0.577191 -0.274247,0.104944 -0.274247,-1.049438 z m 18.5900484,0 c 0,-1.154382 0.123411,-1.62663 0.274247,-1.049439 0.150835,0.577191 0.150835,1.521686 0,2.098877 -0.150836,0.577191 -0.274247,0.104944 -0.274247,-1.049438 z m -10.18375,-9.408562 c 0.577191,-0.150831 1.521685,-0.150831 2.098876,0 0.577191,0.150837 0.104944,0.274251 -1.049438,0.274251 -1.154382,0 -1.626629,-0.123414 -1.049438,-0.274251 z M 52.124524,39.677833 c 0,-0.763802 2.416174,-0.763802 3.598074,0 0.669093,0.432401 0.323455,0.583666 -1.349278,0.590496 -1.236838,0.0051 -2.248796,-0.260673 -2.248796,-0.590496 z m 0.523187,-2.848475 c -0.745923,-0.951125 -0.724713,-0.972335 0.226412,-0.226412 0.577191,0.452664 1.049438,0.924911 1.049438,1.049438 0,0.493556 -0.492448,0.175888 -1.27585,-0.823026 z m -13.128289,-8.995185 -5.685107,-5.84687 5.84687,5.685107 c 3.215779,3.126808 5.84687,5.7579 5.84687,5.84687 0,0.434553 -0.728367,-0.254596 -6.008633,-5.685107 z m 18.601892,0.14992 c 3.120291,-3.133323 5.808191,-5.696951 5.973102,-5.696951 0.164912,0 -2.253132,2.563628 -5.373423,5.696951 -3.120295,3.133322 -5.80819,5.69695 -5.973102,5.69695 -0.164912,0 2.253128,-2.563628 5.373423,-5.69695 z m -37.028868,1.199358 c 0.0067,-1.319294 0.129461,-1.788395 0.2729,-1.042447 0.143439,0.745949 0.137994,1.825371 -0.0121,2.398716 -0.150096,0.573346 -0.267455,-0.03697 -0.260799,-1.356269 z m 20.827753,-5.547031 -6.886526,-7.046228 7.046228,6.886526 7.046228,6.886527 7.046228,-6.886527 7.046228,-6.886526 -6.886526,7.046228 c -3.787589,3.875426 -7.030258,7.046228 -7.20593,7.046228 -0.175672,0 -3.41834,-3.170802 -7.20593,-7.046228 z m -11.706501,-5.097271 -2.975852,-3.148315 3.148315,2.975852 c 2.92547,2.765214 3.423327,3.320777 2.975852,3.320777 -0.09485,0 -1.511596,-1.416741 -3.148315,-3.148314 z m 37.20264,0.14992 c 1.62432,-1.649118 3.088239,-2.998395 3.25315,-2.998395 0.164912,0 -1.029151,1.349277 -2.653471,2.998395 -1.624321,1.649117 -3.088239,2.998394 -3.253151,2.998394 -0.164911,0 1.029151,-1.349277 2.653472,-2.998394 z M 9.5473163,20.261694 c 0,-0.124527 0.4722467,-0.596774 1.0494377,-1.049438 0.951125,-0.745924 0.972336,-0.724713 0.226412,0.226411 -0.783402,0.998914 -1.2758497,1.316583 -1.2758497,0.823027 z M 20.341538,19.888427 c 0,-0.763803 2.416174,-0.763803 3.598074,0 0.669093,0.432401 0.323455,0.583665 -1.349278,0.590496 -1.236838,0.005 -2.248796,-0.260673 -2.248796,-0.590496 z m 52.172071,0.373267 c 0,-0.124527 0.472248,-0.596774 1.049439,-1.049438 0.951126,-0.745924 0.972337,-0.724713 0.226414,0.226411 -0.783402,0.998914 -1.275853,1.316583 -1.275853,0.823027 z m 10.794222,-0.373267 c 0,-0.763803 2.416173,-0.763803 3.598074,0 0.669092,0.432401 0.323455,0.583665 -1.349278,0.590496 -1.236838,0.005 -2.248796,-0.260673 -2.248796,-0.590496 z M 31.735439,14.191476 c -1.456638,-1.484205 -2.513505,-2.698555 -2.348593,-2.698555 0.164912,0 1.491634,1.21435 2.948272,2.698555 1.456637,1.484206 2.513504,2.698556 2.348592,2.698556 -0.164912,0 -1.491634,-1.21435 -2.948271,-2.698556 z m 34.156641,0.14992 c 2.485046,-2.647697 3.023455,-3.123784 3.023455,-2.673494 0,0.09624 -1.281813,1.378054 -2.848475,2.848475 l -2.848475,2.673494 z"
         id="path6682" />
      <path
         style="fill:#b9b9b9;fill-opacity:1;stroke-width:0.599679"
         d="m 16.631024,93.838974 c 0.432893,-0.17323 0.950117,-0.151929 1.149385,0.04731 0.199268,0.199268 -0.154917,0.341002 -0.787079,0.314964 -0.698591,-0.02878 -0.840689,-0.170873 -0.362306,-0.362302 z M 56.33146,49.122777 c 0.007,-1.478942 0.149373,-1.732027 0.590496,-1.049438 0.761712,1.178665 0.761712,2.998395 0,2.998395 -0.329824,0 -0.595547,-0.877031 -0.590496,-1.948957 z"
         id="path6680" />
      <path
         style="fill:#a3a3a3;fill-opacity:1;stroke-width:0.599679"
         d="M 14.836817,98.222843 C 2.5049101,94.8437 0.76181716,77.997752 12.138291,72.143218 20.242617,67.972582 30.3677,72.742831 32.273566,81.629581 34.48183,91.926363 24.952509,100.99471 14.836817,98.222843 Z M 24.12978,92.274051 C 29.971988,87.817981 29.044588,79.132488 22.389369,75.974381 15.992737,72.93898 8.3041805,78.529835 9.1049619,85.634346 9.9215651,92.879229 18.41526,96.632728 24.12978,92.274051 Z m -6.786637,0.383255 c 0,-0.545402 -1.079422,-1.988152 -2.398716,-3.206118 -2.071533,-1.91243 -2.398716,-2.560521 -2.398716,-4.751442 0,-3.555089 2.468761,-6.042779 5.99679,-6.042779 7.11904,0 8.204392,9.648577 1.548107,13.762386 -2.40724,1.487756 -2.747465,1.517224 -2.747465,0.237953 z"
         id="path6678" />
      <path
         style="fill:#494949;fill-opacity:1;stroke-width:0.599679"
         d="m 39.702782,52.570931 c 0.0045,-1.649117 0.120963,-2.252582 0.258802,-1.341032 0.137839,0.911549 0.134155,2.260827 -0.0082,2.998395 -0.142341,0.737567 -0.255118,-0.0082 -0.250616,-1.657363 z m 18.988915,0.465386 c -0.164591,-1.393154 -0.07075,-2.304499 0.208541,-2.02521 0.279288,0.279289 0.413955,1.419143 0.299257,2.533008 -0.203406,1.975356 -0.215907,1.962856 -0.507798,-0.507798 z M 52.52431,51.271626 c -0.219882,-0.219882 -0.395654,-0.692129 -0.390603,-1.049438 0.0059,-0.418885 0.168447,-0.399251 0.45754,0.05527 0.246597,0.387709 1.524279,0.814592 2.839293,0.94863 l 2.390934,0.243706 -2.448689,0.100808 c -1.346779,0.05545 -2.628593,-0.0791 -2.848475,-0.298979 z M 40.225631,48.073339 c 0,-0.824559 0.136111,-1.161878 0.302469,-0.749599 0.166358,0.412279 0.166358,1.086918 0,1.499197 -0.166358,0.41228 -0.302469,0.07496 -0.302469,-0.749598 z m 0.684694,-4.797432 c 0,-1.814029 0.11242,-2.556132 0.249821,-1.649117 0.137401,0.907014 0.137401,2.39122 0,3.298234 -0.137401,0.907014 -0.249821,0.164912 -0.249821,-1.649117 z m 16.002053,-0.121765 c -0.159644,-1.881 -0.07155,-3.200462 0.195772,-2.932137 0.267318,0.268324 0.397935,1.807324 0.290261,3.419999 l -0.195772,2.932137 z m -4.331103,-2.701081 c 0.745948,-0.143439 1.82537,-0.137993 2.398716,0.0121 0.573346,0.150095 -0.03698,0.267455 -1.35627,0.260799 -1.319293,-0.0067 -1.788394,-0.129462 -1.042446,-0.272901 z m -1.05643,-1.032869 c 0,-0.164912 0.539711,-0.588685 1.199358,-0.941717 0.659647,-0.353032 1.199358,-0.506949 1.199358,-0.342038 0,0.164912 -0.539711,0.588685 -1.199358,0.941717 -0.659647,0.353032 -1.199358,0.506949 -1.199358,0.342038 z M 71.5594,35.253965 c -0.174285,-0.454187 -0.228196,-2.140784 -0.119804,-3.747994 l 0.197079,-2.922199 0.288547,3.749086 c 0.291528,3.787811 0.211621,4.425889 -0.365822,2.921107 z m 8.637596,0.416145 c 0.432891,-0.17323 0.950114,-0.151925 1.149387,0.04734 0.199267,0.199268 -0.154921,0.341002 -0.787079,0.314963 -0.698596,-0.02877 -0.84069,-0.170873 -0.362308,-0.362306 z m 9.815396,-2.553443 c -0.09356,-2.824383 -0.212053,-3.120753 -0.881606,-2.205084 -0.565216,0.772979 -1.41303,1.005703 -3.148315,0.864215 -2.213955,-0.180516 -2.387916,-0.330801 -2.568401,-2.218842 -0.106485,-1.113865 0.0349,-2.25372 0.314196,-2.533008 0.279288,-0.279289 0.405527,0.564592 0.280536,1.87529 l -0.227267,2.383089 h 2.397547 c 1.684822,0 2.511593,-0.297209 2.781197,-0.999795 0.726097,-1.89218 1.622564,0.15161 1.388227,3.16493 l -0.228022,2.932137 z M 8.5337802,32.181846 c 0.00336,-1.978941 0.1153189,-2.716211 0.248784,-1.638378 0.1334658,1.077833 0.1307115,2.696966 -0.00612,3.598074 -0.1368281,0.901108 -0.2460273,0.01924 -0.2426613,-1.959696 z m 18.4958518,0.599679 c -0.08004,-2.182044 -0.268261,-2.75349 -0.691304,-2.098877 -0.349289,0.540486 -0.584979,0.614451 -0.590496,0.185311 -0.01431,-1.113467 1.159739,-1.562075 1.534209,-0.586222 0.18456,0.480955 0.228017,1.914801 0.09657,3.186324 -0.216748,2.096689 -0.249229,2.032791 -0.348982,-0.686536 z M 20.741324,31.48222 c -0.547202,-0.547202 -0.506902,-4.260662 0.04997,-4.60483 0.247368,-0.152882 0.449759,0.910615 0.449759,2.363325 0,1.45271 -0.02249,2.641291 -0.04997,2.641291 -0.02748,0 -0.229877,-0.179904 -0.449759,-0.399786 z M 8.9949801,27.334441 c 0.028773,-0.698592 0.1708732,-0.84069 0.3623063,-0.362306 0.1732298,0.432893 0.1519251,0.950116 -0.047345,1.149384 -0.1992685,0.199268 -0.341002,-0.154917 -0.3149634,-0.787078 z m 62.9662949,0 c 0.02878,-0.698592 0.170873,-0.84069 0.362302,-0.362306 0.173229,0.432893 0.151929,0.950116 -0.04731,1.149384 -0.199273,0.199268 -0.341001,-0.154917 -0.314963,-0.787078 z M 25.843417,24.268956 25.738649,21.153499 22.93705,20.970722 c -3.033533,-0.197909 -4.253854,-1.517411 -1.958487,-2.117663 1.358976,-0.35538 1.357887,-0.360577 -0.363144,-1.73288 -0.949415,-0.757036 -1.601826,-1.48945 -1.449804,-1.627588 0.152023,-0.138136 1.085971,0.529114 2.075441,1.482779 1.786229,1.721592 1.789431,1.736497 0.44976,2.093598 -2.27995,0.607741 -1.497736,1.419138 1.368098,1.419138 3.120746,0 3.461413,0.466898 3.122175,4.279066 -0.232692,2.614865 -0.232999,2.614413 -0.337672,-0.498216 z m 62.966295,0 -0.10477,-3.115457 -2.801598,-0.182777 c -3.033531,-0.197909 -4.253853,-1.517411 -1.958486,-2.117663 1.358974,-0.35538 1.357883,-0.360577 -0.363148,-1.73288 -0.949411,-0.757036 -1.601826,-1.48945 -1.449802,-1.627588 0.152025,-0.138136 1.085971,0.529114 2.075441,1.482779 1.786228,1.721592 1.789431,1.736497 0.44976,2.093598 -2.27995,0.607741 -1.497735,1.419138 1.368095,1.419138 3.120748,0 3.461413,0.466898 3.122181,4.279066 -0.232693,2.614865 -0.232999,2.614413 -0.337673,-0.498216 z M 9.7188328,23.186661 c 0.0045,-1.649117 0.1209631,-2.252582 0.2588017,-1.341032 0.1378395,0.911549 0.1341555,2.260827 -0.00819,2.998395 -0.142341,0.737567 -0.2551179,-0.0082 -0.2506161,-1.657363 z m 62.9662902,0 c 0.0048,-1.649117 0.120968,-2.252582 0.258804,-1.341032 0.137842,0.911549 0.134154,2.260827 -0.0082,2.998395 -0.142369,0.737567 -0.255145,-0.0082 -0.250648,-1.657363 z M 13.745069,17.344243 c 0,-0.103216 0.539711,-0.64978 1.199358,-1.214588 0.659647,-0.564807 1.199358,-0.769202 1.199358,-0.454211 0,0.314991 -0.539711,0.861555 -1.199358,1.214588 -0.659647,0.353032 -1.199358,0.557427 -1.199358,0.454211 z m 62.966293,0 c 0,-0.103216 0.539711,-0.64978 1.199358,-1.214588 0.659647,-0.564807 1.199358,-0.769202 1.199358,-0.454211 0,0.314991 -0.539711,0.861555 -1.199358,1.214588 -0.659647,0.353032 -1.199358,0.557427 -1.199358,0.454211 z M 4.0237858,13.447026 c 2.0743215,-0.117435 5.312588,-0.116465 7.1961482,0.0022 1.883559,0.118618 0.186387,0.214701 -3.7714942,0.213516 -3.9578813,-0.0012 -5.4989756,-0.09824 -3.424654,-0.215675 z m 17.3671902,0.04746 c 0.412279,-0.166358 1.086918,-0.166358 1.499198,0 0.412279,0.166358 0.07496,0.302469 -0.749599,0.302469 -0.824559,0 -1.161878,-0.136111 -0.749599,-0.302469 z m 53.971108,0 c 0.41228,-0.166358 1.086919,-0.166358 1.499198,0 0.412279,0.166358 0.07496,0.302469 -0.749599,0.302469 -0.824558,0 -1.161878,-0.136111 -0.749599,-0.302469 z m 12.017082,-0.04745 c 2.074319,-0.117435 5.312586,-0.116465 7.196147,0.0022 1.883556,0.118621 0.186387,0.214704 -3.771495,0.213519 -3.957881,-0.0012 -5.498978,-0.09824 -3.424652,-0.215675 z M 4.3001252,9.8488709 c 2.2263082,-0.1153824 5.8693578,-0.1153824 8.0956658,0 2.226309,0.1153818 0.404784,0.2097851 -4.0478327,0.2097851 -4.4526164,0 -6.2741414,-0.094403 -4.0478331,-0.2097851 z m 16.1913328,0.015172 c 0.907014,-0.1374015 2.39122,-0.1374015 3.298234,0 0.907015,0.1374011 0.164912,0.2498201 -1.649117,0.2498201 -1.814029,0 -2.556132,-0.112419 -1.649117,-0.2498201 z m 53.971108,0 c 0.907014,-0.1374015 2.39122,-0.1374015 3.298234,0 0.907015,0.1374011 0.164912,0.2498201 -1.649117,0.2498201 -1.814029,0 -2.556131,-0.112419 -1.649117,-0.2498201 z m 11.393901,-0.015172 c 2.226308,-0.1153824 5.869358,-0.1153824 8.095666,0 2.226308,0.1153818 0.404783,0.2097851 -4.047833,0.2097851 -4.452617,0 -6.274142,-0.094403 -4.047833,-0.2097851 z"
         id="path6676" />
      <path
         style="fill:#333333;fill-opacity:1;stroke-width:0.599679"
         d="M 43.829928,84.00007 C 37.414702,80.74217 36.230212,73.792011 39.878841,60.816517 l 0.885286,-3.148315 h 8.65548 8.655479 l 0.665874,2.472871 c 1.144916,4.251887 2.378749,11.328975 2.378749,13.64415 0,2.985909 -2.198047,7.102592 -4.969655,9.307575 -3.104172,2.469556 -8.466237,2.864427 -12.320126,0.907272 z M 12.427977,64.240354 C 6.1231903,60.910578 4.9692891,55.049837 8.0906978,42.211021 l 1.060774,-4.36312 8.7433472,0.165367 8.743348,0.165367 1.333228,5.097272 c 0.981402,3.752151 1.29321,6.46086 1.181581,10.264529 -0.135039,4.601397 -0.334097,5.406463 -1.817727,7.351603 -3.364149,4.410629 -10.051695,5.91271 -14.907272,3.348315 z m 63.372719,0.38798 c -2.508404,-1.09298 -5.486967,-4.658133 -6.3789,-7.635138 -0.622868,-2.078952 -0.580045,-3.45263 0.257365,-8.255529 0.552508,-3.16888 1.294041,-6.773558 1.647852,-8.010396 l 0.643293,-2.248796 h 8.894091 8.894091 l 1.040995,4.047833 c 0.572543,2.226308 1.168312,6.476533 1.323929,9.444944 0.272224,5.192762 0.215441,5.50169 -1.499755,8.159166 -3.015258,4.671763 -9.740496,6.712489 -14.822961,4.497916 z M 40.353706,51.521493 c 0.201803,-2.061397 0.538167,-5.538978 0.747476,-7.727959 0.366366,-3.831494 0.464871,-4.027349 2.64053,-5.250138 2.467734,-1.386944 3.260915,-2.678028 2.490743,-4.054249 -0.273279,-0.488323 -4.523934,-4.952772 -9.4459,-9.920999 C 26.070534,13.75141 22.595097,11.669843 20.013689,14.522265 c -1.092551,1.207256 -1.081173,1.256015 0.607263,2.602326 1.716408,1.368616 1.717295,1.372902 0.357611,1.728468 -2.295367,0.600252 -1.075046,1.919754 1.958487,2.117663 l 2.801599,0.182777 v 3.011394 3.011395 l -2.548636,-0.184017 -2.548636,-0.184017 v 2.386956 c 0,2.348393 0.03837,2.390085 2.374799,2.580588 1.735288,0.141488 2.583098,-0.09124 3.148314,-0.864215 0.671976,-0.918982 0.773517,-0.688558 0.773517,1.755325 V 35.48008 H 17.87515 8.8122939 L 9.1606942,31.432247 C 10.188773,19.487685 9.9707964,20.204589 13.213346,18.103489 c 1.611741,-1.044373 2.930439,-2.107603 2.930439,-2.362734 0,-0.255131 -0.493496,-0.910482 -1.096657,-1.456336 -0.88269,-0.798824 -2.403724,-0.992461 -7.7958273,-0.992461 H 0.55213153 v -1.502301 -1.5023 L 12.99547,10.339079 c 10.526555,0.04375 12.81284,0.215282 14.842055,1.113511 1.446735,0.640395 6.147142,4.726518 11.84366,10.295842 l 9.444944,9.234056 9.444944,-9.234055 c 5.696519,-5.569324 10.396922,-9.655448 11.84366,-10.295842 2.029218,-0.89823 4.3155,-1.069756 14.842055,-1.113511 l 12.443339,-0.05172 v 1.5023 1.502301 h -6.803365 c -6.098825,0 -6.91867,0.127407 -7.916782,1.230307 -1.092549,1.207256 -1.081173,1.256015 0.607265,2.602326 1.716408,1.368616 1.717295,1.372902 0.357613,1.728468 -2.295367,0.600252 -1.075045,1.919754 1.958486,2.117663 l 2.801598,0.182777 v 3.011394 3.011395 l -2.548636,-0.18402 -2.548636,-0.184017 v 2.386956 c 0,2.348393 0.03838,2.390085 2.374801,2.580588 1.735285,0.141488 2.583099,-0.09124 3.148315,-0.864215 0.66827,-0.913919 0.773514,-0.636486 0.773514,2.039084 v 3.096931 L 81.059035,35.913759 72.21377,35.77992 72.28736,31.882006 c 0.04048,-2.143852 0.277988,-5.69675 0.527814,-7.89533 0.450071,-3.960829 0.48096,-4.014736 3.374567,-5.889732 1.606187,-1.040773 2.920341,-2.101058 2.920341,-2.356189 0,-0.255131 -0.540449,-0.952975 -1.201001,-1.550765 -1.878524,-1.700042 -5.328556,-0.350771 -9.803618,3.834095 -5.371468,5.023137 -16.580614,16.6461 -16.580614,17.192732 0,0.257766 0.466631,0.984285 1.036956,1.614489 0.982824,1.086007 0.982824,1.176119 0,1.726134 -0.570325,0.319171 -1.036956,1.00678 -1.036956,1.528021 0,0.768487 0.510327,0.890188 2.698555,0.643543 l 2.698556,-0.304167 v 3.303531 3.303531 l -2.341191,-0.31402 c -2.067169,-0.277265 -2.37115,-0.157295 -2.59716,1.025004 -0.140784,0.736463 -0.02787,1.955625 0.250908,2.709247 0.457083,1.235614 0.800596,1.342002 3.496679,1.082943 l 2.989801,-0.287283 v 2.010849 2.010847 h -9.3671 -9.367101 z m 12.970176,-8.039832 c 0,-0.671018 -0.742044,-0.824908 -3.305131,-0.68544 -4.037481,0.219697 -4.585778,1.262079 -0.892622,1.696989 3.225712,0.379863 4.197753,0.145627 4.197753,-1.011549 z M 21.19201,24.921539 c 0.521711,-0.200199 0.948565,-0.874838 0.948565,-1.499198 0,-0.987679 -0.467571,-1.135199 -3.598074,-1.135199 -3.162787,0 -3.598074,0.140925 -3.598074,1.164878 0,0.934651 0.503715,1.210246 2.548636,1.394429 1.401749,0.126254 2.594029,0.276698 2.649509,0.33432 0.05548,0.05762 0.527727,-0.05903 1.049438,-0.25923 z M 84.5013,24.393115 c 0.988301,-1.190832 -0.193163,-1.644997 -3.626894,-1.394206 -3.485305,0.254557 -3.802223,1.546044 -0.452914,1.84569 1.422577,0.127271 2.755849,0.278548 2.962834,0.33617 0.206979,0.05762 0.709618,-0.296822 1.116974,-0.787654 z"
         id="path6674" />
    </g>
  </g>
</svg>
