<?xml version="1.0" encoding="UTF-8" standalone="no"?>
<!-- Created with Inkscape (http://www.inkscape.org/) -->

<svg
   width="100mm"
   height="100mm"
   viewBox="0 0 100 100"
   version="1.1"
   id="svg14060"
   inkscape:version="1.1.1 (3bf5ae0d25, 2021-09-20)"
   sodipodi:docname="add_list_type_device_6050.svg"
   xmlns:inkscape="http://www.inkscape.org/namespaces/inkscape"
   xmlns:sodipodi="http://sodipodi.sourceforge.net/DTD/sodipodi-0.dtd"
   xmlns="http://www.w3.org/2000/svg"
   xmlns:svg="http://www.w3.org/2000/svg">
  <sodipodi:namedview
     id="namedview14062"
     pagecolor="#ffffff"
     bordercolor="#666666"
     borderopacity="1.0"
     inkscape:pageshadow="2"
     inkscape:pageopacity="0.0"
     inkscape:pagecheckerboard="true"
     inkscape:document-units="mm"
     showgrid="false"
     width="100mm"
     inkscape:zoom="0.58974467"
     inkscape:cx="378.97757"
     inkscape:cy="157.69536"
     inkscape:window-width="1440"
     inkscape:window-height="890"
     inkscape:window-x="-6"
     inkscape:window-y="-6"
     inkscape:window-maximized="1"
     inkscape:current-layer="layer1" />
  <defs
     id="defs14057" />
  <g
     inkscape:label="Laag 1"
     inkscape:groupmode="layer"
     id="layer1">
    <path
       style="fill:#000000;stroke-width:0.605218"
       id="path14076"
       d="" />
    <g
       id="g14214"
       transform="translate(-1.3459234,0.44864043)">
      <path
         style="fill:#d0d0d0;fill-opacity:1;stroke-width:0.605218"
         d="m 12.202573,97.989215 c 3.57835,-0.107002 9.433832,-0.107002 13.012182,0 3.57835,0.106997 0.650609,0.194547 -6.506091,0.194547 -7.156701,0 -10.0844415,-0.08755 -6.506091,-0.194547 z m 21.684315,-2.927511 c 0.02904,-0.705048 0.172452,-0.848455 0.365653,-0.365654 0.17483,0.436888 0.153328,0.958889 -0.04778,1.160002 C 34.00365,96.05716 33.860607,95.6997 33.886886,95.061704 Z M 3.8232051,84.218217 c 7.686e-4,-5.325917 0.093355,-7.42368 0.205753,-4.661702 0.1123982,2.761984 0.1117715,7.119552 -0.00139,9.683484 -0.1131649,2.563939 -0.205127,0.304134 -0.204361,-5.021782 z m 6.3352109,8.321744 c -0.7528126,-0.959911 -0.7314061,-0.981318 0.228503,-0.228506 0.582522,0.456849 1.059131,0.933458 1.059131,1.059131 0,0.498119 -0.496996,0.177517 -1.287634,-0.830625 z M 35.111971,78.74099 c -0.126734,-3.91473 -0.09772,-3.997875 1.265673,-3.627252 l 1.39538,0.379314 -1.432758,-0.841071 c -1.200984,-0.705012 -1.274412,-0.901829 -0.453913,-1.216687 0.538364,-0.206591 0.978844,-0.141343 0.978844,0.144998 0,0.473498 1.470288,1.000806 4.436177,1.591002 0.609113,0.121213 1.60172,0.377251 2.205793,0.568978 0.615546,0.195364 1.525386,-0.07848 2.069915,-0.623005 0.534379,-0.534383 0.975319,-0.747886 0.979864,-0.474461 0.0045,0.273431 0.164344,1.178014 0.355109,2.010189 0.271986,1.186487 0.206892,1.317111 -0.301606,0.605217 -0.378928,-0.530497 -0.652302,-0.615494 -0.657718,-0.204503 -0.0051,0.386831 -1.166746,0.895069 -2.581443,1.129415 -3.092295,0.512251 -4.485739,1.171484 -6.561329,3.104144 l -1.568282,1.460294 z m 8.378816,-2.107653 c -0.42144,-0.260461 -1.131387,-0.333457 -1.57766,-0.162204 -1.20401,0.462023 -0.994598,0.635775 0.766254,0.635775 1.008756,0 1.301348,-0.170768 0.811406,-0.473571 z M 66.81941,81.49024 c -1.422564,-1.571914 -4.08896,-2.887379 -6.865554,-3.387119 -1.214755,-0.218635 -2.549081,-0.667707 -2.965168,-0.997926 -0.9011,-0.715155 -1.014743,-2.873071 -0.151304,-2.873071 0.332869,0 0.605217,0.437657 0.605217,0.972578 0,0.691619 0.305964,0.844552 1.059132,0.529397 0.582522,-0.243752 2.139961,-0.65573 3.460974,-0.915507 1.321015,-0.259772 2.496644,-0.75671 2.612507,-1.104299 0.142541,-0.42761 0.716039,-0.439836 1.773482,-0.03776 1.309213,0.497761 1.448776,0.45677 0.860032,-0.252624 -0.539364,-0.649895 -0.512183,-1.004989 0.116886,-1.527074 0.450821,-0.374145 1.042264,-0.478364 1.314327,-0.231598 0.272058,0.246759 0.32896,-0.0141 0.126442,-0.579648 -0.237475,-0.663191 -0.10696,-0.928059 0.367567,-0.745961 0.404685,0.155287 1.120858,-0.25191 1.591493,-0.904885 0.799559,-1.109328 0.912305,-1.11995 1.71811,-0.161866 0.635195,0.755227 0.619574,0.61259 -0.05931,-0.541403 -0.847565,-1.44077 -0.830213,-1.632696 0.215754,-2.386586 0.751402,-0.541579 0.944727,-1.05202 0.569631,-1.503984 -0.360346,-0.434184 -0.31481,-0.937156 0.124627,-1.376592 0.394009,-0.394009 0.672742,-2.46142 0.646747,-4.797079 -0.03462,-3.108048 0.05816,-3.59034 0.381978,-1.98639 l 0.427659,2.118262 0.491945,-2.056309 c 0.386649,-1.616157 0.283139,-2.173168 -0.483587,-2.602249 -0.536544,-0.300267 -0.979709,-1.14519 -0.984805,-1.877606 -0.0075,-1.081719 -0.119373,-1.161282 -0.595927,-0.42387 -0.322678,0.499304 -0.590856,0.621861 -0.595952,0.272348 -0.01864,-1.276774 1.341816,-2.055318 2.504324,-1.433163 0.92208,0.493484 1.117717,0.375456 1.117717,-0.674329 0,-0.933992 -0.281754,-1.184838 -1.059132,-0.942937 -1.506308,0.468728 -2.827746,-0.524703 -2.350895,-1.767357 0.285729,-0.744598 0.151516,-0.941836 -0.476821,-0.700722 -0.591383,0.226937 -0.845804,-0.04514 -0.785894,-0.840442 0.04872,-0.646806 0.357448,-1.176012 0.686051,-1.176012 0.328609,0 0.270653,-0.326817 -0.12879,-0.726261 -0.977488,-0.977488 -0.953043,-3.086302 0.03026,-2.610126 0.416087,0.201496 0.143739,-0.088 -0.605218,-0.643319 -0.748957,-0.555321 -1.36591,-1.589239 -1.371006,-2.297595 -0.0054,-0.772903 -0.187073,-1.012183 -0.453913,-0.598375 -0.322115,0.499523 -0.659706,0.457827 -1.225034,-0.151304 -0.44406,-0.478472 -0.510907,-0.840851 -0.155099,-0.840851 0.822152,0 0.416045,-2.594017 -0.451371,-2.883157 -0.424639,-0.141546 -0.49171,-0.70848 -0.18277,-1.545002 0.268402,-0.726775 0.41136,-1.668653 0.317685,-2.093062 -0.09368,-0.424409 -0.0319,-0.492496 0.13733,-0.151305 0.510089,1.028539 2.02383,0.696967 2.003192,-0.438783 -0.01059,-0.582522 -0.455747,-1.603827 -0.989253,-2.269566 -0.647746,-0.80831 -0.860771,-0.889966 -0.641222,-0.245794 0.261297,0.766643 -0.0012,0.901368 -1.28032,0.656373 -0.884998,-0.169549 -1.249551,-0.42844 -0.810114,-0.575315 0.572723,-0.191425 0.454506,-0.508323 -0.417473,-1.119078 -0.722885,-0.50633 -1.122552,-1.339586 -0.985029,-2.053677 0.164716,-0.85531 -0.09714,-1.201643 -0.908553,-1.201643 -1.546295,0 -1.867968,-0.704162 -0.916257,-2.00571 0.590329,-0.807317 0.870243,-0.882961 1.095087,-0.295935 0.166126,0.433731 0.273958,0.203793 0.239624,-0.510973 -0.05277,-1.098543 -0.277238,-1.217901 -1.4511,-0.771601 -0.763767,0.290386 -2.179894,0.369729 -3.14694,0.17632 l -1.758268,-0.351654 -0.431361,4.603257 c -0.237247,2.531791 -0.67171,4.603256 -0.965472,4.603256 -0.713876,0 -0.687656,-6.258614 0.02929,-6.990265 0.309869,-0.316226 0.650304,-2.412748 0.756522,-4.658937 0.106219,-2.246189 0.397386,-4.084538 0.647039,-4.08522 0.249652,-6.65e-4 0.453913,0.287182 0.453913,0.639696 0,0.353757 0.334201,0.434388 0.745882,0.179956 1.396094,-0.862834 2.786193,-0.666524 2.434253,0.343765 -0.269661,0.774088 -0.178709,0.811189 0.483139,0.197083 0.448436,-0.416087 1.101303,-0.752351 1.450816,-0.747254 0.349513,0.0051 0.226957,0.273274 -0.272348,0.59595 -0.806955,0.521495 -0.806955,0.594415 0,0.656278 0.499305,0.03828 0.226957,0.287648 -0.605218,0.554157 l -1.513044,0.484562 1.689653,0.06033 c 0.929312,0.03318 2.264211,0.595606 2.966445,1.249835 0.702228,0.654229 1.489065,1.058308 1.748528,0.897955 0.259457,-0.160355 0.668814,0.02732 0.909679,0.417048 0.295843,0.478682 0.162132,0.551264 -0.412093,0.223693 -0.721546,-0.411612 -0.724246,-0.357136 -0.01785,0.360403 0.643885,0.654051 0.894936,0.67414 1.109564,0.08879 0.15257,-0.416087 0.536629,-0.756522 0.853472,-0.756522 0.347238,0 0.327205,0.465019 -0.05041,1.170648 -0.870969,1.627427 -0.798882,1.819136 0.583926,1.552832 0.823217,-0.158537 1.213401,0.09459 1.219701,0.791273 0.0061,0.660021 0.167422,0.779118 0.453914,0.334835 0.324802,-0.503698 0.64377,-0.474918 1.183436,0.106779 0.581578,0.626868 0.581578,0.860028 0,1.095679 -0.427453,0.173202 -0.30046,0.319489 0.30135,0.347134 0.664675,0.03053 0.91509,0.373637 0.693725,0.950505 -0.1975,0.514688 0.06932,1.062255 0.620736,1.273853 0.531932,0.204121 0.819943,0.60931 0.640024,0.900421 -0.179913,0.291111 0.01362,1.147704 0.430092,1.90354 0.416468,0.755836 0.683974,1.852714 0.594463,2.437507 -0.08951,0.584792 0.263209,1.226714 0.783823,1.426491 1.017396,0.390424 1.380901,4.470254 0.398264,4.470254 -0.301556,0 -0.233469,0.677106 0.151304,1.504681 l 0.699578,1.504681 0.374242,-1.958594 0.374242,-1.958594 0.07967,2.269566 c 0.04382,1.248262 0.368372,2.269567 0.721226,2.269567 0.355693,0 0.53258,0.741598 0.396981,1.664349 -0.345174,2.348935 0.642838,5.598264 1.702247,5.598264 0.489791,0 0.886354,0.476609 0.881258,1.059131 -0.0079,0.905132 -0.09457,0.927132 -0.595952,0.151305 -0.322678,-0.499305 -0.590856,-0.651512 -0.595952,-0.338238 -0.0048,0.313273 -0.404243,0.04093 -0.886989,-0.605218 -0.835388,-1.11814 -0.860365,-1.101826 -0.517806,0.338238 0.197955,0.832175 0.564965,1.785393 0.815579,2.118262 0.250615,0.33287 0.481034,2.486368 0.512051,4.785552 0.03099,2.299183 0.223295,4.341793 0.42729,4.539133 0.203994,0.19734 0.274672,-1.071197 0.15706,-2.81897 -0.117612,-1.747773 -0.0096,-3.1776 0.240072,-3.177393 0.909279,7.26e-4 0.7132,6.219331 -0.206743,6.556902 -0.302379,0.110957 -0.54978,0.707666 -0.54978,1.326024 0,0.618351 -0.285378,1.300655 -0.634177,1.516222 -0.348799,0.215572 -0.559857,0.844424 -0.46902,1.39746 0.09084,0.553036 -0.04836,1.34595 -0.309369,1.762037 -0.268269,0.427695 -0.195939,0.756522 0.166411,0.756522 0.352515,0 0.640938,-0.272348 0.640938,-0.605218 0,-0.332869 0.314555,-0.605217 0.69902,-0.605217 0.470908,0 0.421528,0.345627 -0.151304,1.059131 -0.850138,1.058895 -1.929126,2.846399 -3.313816,5.489821 -0.404667,0.77253 -0.836937,1.101073 -0.960602,0.730087 -0.137366,-0.412093 -0.726122,-0.207493 -1.513341,0.525916 -0.708673,0.660232 -1.512778,1.012559 -1.786887,0.782952 -0.274115,-0.229608 -0.133584,0.05913 0.312286,0.641664 0.44587,0.582522 0.542118,1.059131 0.213884,1.059131 -0.328239,0 -1.246718,0.636144 -2.041066,1.413649 -0.794349,0.777512 -2.341818,1.798817 -3.438823,2.269567 -1.412452,0.60612 -1.914722,1.16502 -1.72101,1.915048 0.348291,1.348516 0.214447,1.330069 -1.130244,-0.155801 z m -1.190354,-6.536013 c -0.186341,-0.186341 -0.674691,-3.87e-4 -1.085235,0.413231 -0.59327,0.597725 -0.523755,0.66724 0.338801,0.338801 0.596878,-0.227278 0.932774,-0.565692 0.746434,-0.752032 z m 10.575297,-9.871804 c 0,-0.33287 -0.272348,-0.436901 -0.605218,-0.231175 -0.33287,0.205726 -0.605218,0.646391 -0.605218,0.97926 0,0.33287 0.272348,0.436901 0.605218,0.231176 0.33287,-0.205726 0.605218,-0.646391 0.605218,-0.979261 z m 0.41343,-3.068133 c -0.193198,-0.482801 -0.33661,-0.339394 -0.365648,0.365654 -0.02627,0.637996 0.116758,0.995456 0.317872,0.794348 0.201108,-0.201113 0.222605,-0.723114 0.04775,-1.160002 z m -1.405001,-1.399566 c -0.191606,-0.499305 -0.455402,-0.907827 -0.586226,-0.907827 -0.130818,0 -0.237857,0.408522 -0.237857,0.907827 0,0.499304 0.263803,0.907826 0.586226,0.907826 0.322418,0 0.429457,-0.408522 0.237857,-0.907826 z m 1.405001,-7.678701 c -0.193198,-0.482802 -0.33661,-0.339392 -0.365648,0.365653 -0.02627,0.638 0.116758,0.995456 0.317872,0.794348 0.201108,-0.201109 0.222605,-0.723109 0.04775,-1.160001 z m -1.705056,-8.863919 c -0.288217,-0.110957 -0.545531,-0.655653 -0.57181,-1.210435 -0.02978,-0.629029 -0.162676,-0.723946 -0.353041,-0.252174 -0.167894,0.416087 -0.570987,0.756522 -0.895765,0.756522 -0.324778,0 -0.422182,-0.272348 -0.216456,-0.605218 0.205725,-0.33287 0.08563,-0.605218 -0.266889,-0.605218 -0.848213,0 -0.781367,0.672203 0.194674,1.957551 0.438414,0.577348 0.974449,0.872392 1.19119,0.655653 0.216734,-0.21674 0.413212,0.127929 0.43661,0.765929 0.04055,1.105912 0.06499,1.10356 0.524022,-0.05043 0.264819,-0.66574 0.245676,-1.301218 -0.04255,-1.412175 z m -1.734463,-6.153047 c 0,-0.33287 -0.288423,-0.605218 -0.640938,-0.605218 -0.352515,0 -0.472615,0.272348 -0.266889,0.605218 0.205726,0.33287 0.494148,0.605218 0.640938,0.605218 0.146789,0 0.266889,-0.272348 0.266889,-0.605218 z m 4.588035,-4.691969 c -0.659294,-0.659298 -0.909534,0.202793 -0.491219,1.69231 l 0.417497,1.486614 0.212619,-1.413706 c 0.11694,-0.777538 0.05441,-1.571887 -0.138897,-1.765218 z m -5.193253,1.66588 c 0,-0.33287 -0.383024,-0.605218 -0.851166,-0.605218 -0.532217,0 -0.74072,-0.42234 -0.556425,-1.127088 0.203123,-0.776747 -0.09668,-1.229447 -0.964488,-1.456385 -1.935093,-0.506038 -1.613964,1.747151 0.405121,2.842522 2.027704,1.100045 1.966958,1.089355 1.966958,0.346169 z M 66.839491,24.115932 c -0.18634,-0.186338 -0.674691,-3.83e-4 -1.085234,0.413233 -0.593271,0.597723 -0.523756,0.667241 0.338801,0.338798 0.596878,-0.227278 0.932774,-0.565692 0.746433,-0.752031 z M 59.130812,15.88965 c -0.429211,-0.465732 -0.875743,-0.756199 -0.992292,-0.645484 -0.358984,0.341015 0.550832,1.492269 1.179315,1.492269 0.326348,0 0.242188,-0.381053 -0.187023,-0.846785 z M 33.886888,81.141695 c 0.02904,-0.705048 0.172452,-0.848455 0.365653,-0.365654 0.17483,0.436888 0.153328,0.958889 -0.04778,1.160002 -0.201109,0.201108 -0.344152,-0.156351 -0.317873,-0.794348 z m -0.205824,-4.334818 c -0.498408,-2.780195 0.358537,-4.995625 1.932347,-4.995625 0.703456,0 0.679751,0.150336 -0.119293,0.756523 -0.637826,0.483877 -1.061215,1.847094 -1.174806,3.782611 l -0.177595,3.026089 z M 23.476327,68.0341 c -0.731034,-0.270429 -1.714493,-0.961025 -2.185463,-1.534662 -0.47097,-0.573632 -0.683866,-0.702537 -0.473101,-0.28645 0.210764,0.416087 0.123925,0.756522 -0.192976,0.756522 -0.316902,0 -0.732949,-0.408522 -0.92455,-0.907826 -0.191602,-0.499305 -0.06849,-0.907827 0.273575,-0.907827 0.342067,0 0.453621,-0.272348 0.247896,-0.605218 -0.205725,-0.33287 -0.08562,-0.605218 0.266891,-0.605218 0.352514,0 0.640936,-0.272348 0.640936,-0.605217 0,-0.33287 -0.41707,-0.605218 -0.926822,-0.605218 -1.253863,0 -1.744637,-1.495795 -0.931162,-2.838024 0.58316,-0.962214 0.637014,-0.911329 0.441495,0.417153 -0.122476,0.832174 -0.105605,1.169275 0.03749,0.749112 0.143094,-0.420163 0.443821,-0.652555 0.668281,-0.516427 0.22446,0.136128 0.42516,-1.358452 0.446,-3.321288 0.02084,-1.962836 -0.183418,-3.568793 -0.453911,-3.568793 -0.6726,0 -0.624555,-2.26739 0.05697,-2.688597 0.301827,-0.186539 0.412827,0.273997 0.246668,1.023413 -0.25781,1.162779 -0.167645,1.121598 0.614914,-0.280851 0.640832,-1.148459 0.764488,-2.150999 0.41057,-3.328698 -0.287382,-0.956299 -0.528952,-1.227139 -0.55847,-0.62614 -0.02861,0.582522 -0.324368,1.059131 -0.657238,1.059131 -0.916355,0 -0.724342,-1.78299 0.302609,-2.80994 0.499305,-0.499304 0.907827,-1.5274 0.907827,-2.284657 0,-1.735577 1.747295,-5.307789 2.399165,-4.904911 0.268681,0.166053 0.618061,-0.37578 0.7764,-1.204075 0.158338,-0.828295 0.03786,-1.50599 -0.267722,-1.50599 -0.305584,0 -0.152189,-0.575963 0.340879,-1.279916 0.493069,-0.703954 0.750391,-1.660641 0.571827,-2.12597 -0.178564,-0.465329 0.0086,-1.247639 0.415975,-1.738466 0.40735,-0.490826 0.585304,-1.297199 0.395455,-1.791939 -0.18985,-0.494741 0.03308,-1.111213 0.495397,-1.36994 0.462319,-0.258726 0.816625,-0.878712 0.787348,-1.377746 -0.138145,-2.354697 0.211511,-3.630815 0.994845,-3.630815 0.471566,0 0.971625,0.204261 1.111244,0.453914 0.139618,0.249652 0.170861,0.113478 0.06943,-0.302609 -0.101432,-0.416087 0.24469,-0.756522 0.769162,-0.756522 0.630212,0 0.82605,-0.332346 0.577503,-0.980048 -0.305559,-0.796275 -0.06451,-0.920489 1.28548,-0.662421 1.553106,0.296895 1.585628,0.262105 0.498262,-0.532997 -0.639813,-0.467842 -0.822822,-0.850623 -0.406687,-0.850623 0.416137,0 0.588291,-0.272348 0.382566,-0.605218 -0.205725,-0.33287 0.06662,-0.605218 0.605218,-0.605218 0.561901,0 0.802766,-0.285578 0.565145,-0.670057 -0.278817,-0.451135 0.0071,-0.536369 0.87509,-0.260879 0.904824,0.287181 1.403655,0.110934 1.673059,-0.591123 0.306632,-0.799068 0.486798,-0.837901 0.895579,-0.193035 0.414258,0.65351 0.513491,0.656372 0.520993,0.01503 0.0051,-0.435733 0.281616,-0.623921 0.614485,-0.418196 0.33287,0.205725 0.605218,0.06955 0.605218,-0.302609 0,-0.37216 0.314428,-0.482327 0.698729,-0.244815 0.41084,0.253912 0.535272,0.167359 0.302007,-0.210073 -0.218198,-0.353052 -0.873062,-0.570394 -1.455252,-0.482984 -0.58219,0.08741 -0.714759,0.04123 -0.294596,-0.102622 0.420162,-0.143852 0.644419,-0.454925 0.498347,-0.691274 -0.146071,-0.236348 0.239121,-0.429724 0.855983,-0.429724 0.616861,0 0.953108,0.282075 0.747216,0.626833 -0.205894,0.344758 0.05193,0.281698 0.572941,-0.140132 0.521012,-0.42183 1.435013,-0.579809 2.031113,-0.351063 0.639858,0.245536 0.935552,0.175998 0.721862,-0.169759 -0.199076,-0.322113 -0.145681,-0.935603 0.118657,-1.36331 0.626051,-1.012973 1.912937,7.654899 2.190684,14.755452 l 0.213066,5.44696 -1.028203,-6.657396 -1.028203,-6.657395 -2.385098,0.145792 c -1.311804,0.08019 -2.673544,0.460576 -3.026089,0.84531 -0.456386,0.498059 -0.441378,0.587798 0.05212,0.311598 0.381208,-0.213357 0.817697,-0.04905 0.969978,0.365125 0.487192,1.325082 -0.209525,2.26609 -1.677801,2.26609 -0.784791,0 -1.623816,0.318631 -1.864502,0.708068 -0.291898,0.472302 -0.110999,0.582735 0.543287,0.331663 0.842503,-0.323299 0.885499,-0.167031 0.304746,1.107585 -0.704347,1.545871 -1.692295,2.000005 -1.692295,0.777903 0,-0.388347 -0.158239,-0.547847 -0.351643,-0.354443 -0.193404,0.193404 -0.04765,0.919665 0.323902,1.613914 0.72258,1.350153 0.106672,1.704331 -1.014356,0.583304 -0.373431,-0.373432 -0.527436,-1.122389 -0.34223,-1.664349 0.236264,-0.691378 0.04732,-0.62423 -0.633265,0.225053 -0.5335,0.66574 -0.978662,1.550871 -0.989249,1.966958 -0.01058,0.416087 -0.307669,0.756522 -0.660183,0.756522 -0.352515,0 -0.46987,0.27679 -0.26079,0.61509 0.209081,0.338299 0.608277,0.474098 0.887104,0.301774 0.278825,-0.172324 0.364416,0.231755 0.190201,0.897954 -0.174215,0.666199 -0.693512,1.211271 -1.153993,1.211271 -0.460482,0 -0.83724,0.272348 -0.83724,0.605218 0,0.33287 0.408522,0.605218 0.907827,0.605218 0.499305,0 0.907827,0.272348 0.907827,0.605217 0,0.33287 -0.836498,0.605218 -1.858884,0.605218 -1.65234,0 -1.758013,0.10087 -0.951056,0.907827 1.073428,1.073428 1.854777,1.20528 1.239102,0.209098 -0.273188,-0.442028 -0.165397,-0.53406 0.293402,-0.250507 0.398883,0.246524 1.121833,0.119082 1.606556,-0.283203 0.620691,-0.515127 0.881315,-0.530535 0.881315,-0.0521 0,0.373628 -0.340435,0.687986 -0.756522,0.698571 -0.420513,0.0107 -0.218907,0.434762 0.453913,0.954773 0.83914,0.648555 0.931964,0.899127 0.302609,0.816871 -1.664274,-0.217521 -2.288215,0.01655 -2.665592,0.999974 -0.263617,0.686976 -0.112986,0.874965 0.509644,0.63604 0.586481,-0.225054 0.773107,-0.05053 0.554673,0.518696 -0.181057,0.471828 -0.643796,0.798393 -1.028309,0.7257 -0.384512,-0.07269 -0.735786,0.276354 -0.780606,0.775659 -0.04482,0.499304 -0.12157,1.452522 -0.170553,2.118262 -0.08315,1.130146 -0.141876,1.140884 -0.885314,0.16189 -0.736158,-0.969407 -0.848903,-0.932999 -1.493797,0.48239 -0.861807,1.89146 -0.896064,2.878548 -0.08245,2.375708 0.338299,-0.209081 0.492444,-0.578593 0.342543,-0.821137 -0.149901,-0.242545 -0.02234,-0.836509 0.283469,-1.319921 0.381553,-0.603146 0.558924,-0.641554 0.565283,-0.122408 0.0051,0.416087 0.485877,0.760693 1.068399,0.76579 0.598094,0.0052 0.795682,0.202821 0.453913,0.453913 -0.332869,0.244556 -0.699184,0.989342 -0.814031,1.655082 -0.114847,0.665739 -0.461136,1.517743 -0.769532,1.893341 -0.337764,0.411367 -0.343718,1.253657 -0.01497,2.118319 0.392414,1.032126 0.302455,1.662679 -0.320188,2.244314 -0.667439,0.623482 -0.704464,1.003456 -0.161525,1.657658 0.421392,0.507745 0.550588,1.668675 0.321563,2.889483 -0.210563,1.1224 -0.14213,2.691386 0.152075,3.486637 0.417893,1.129587 0.267776,1.677617 -0.686188,2.505041 -0.671608,0.582522 -0.961555,1.059131 -0.644327,1.059131 0.317228,0 0.943679,-0.340435 1.392115,-0.756522 0.666923,-0.618817 0.744435,-0.555753 0.425823,0.346451 -0.214233,0.60664 -0.101661,1.640836 0.250159,2.298217 0.573459,1.071514 0.463598,1.17661 -1.061301,1.01529 -0.935536,-0.09898 -1.652342,0.102118 -1.592901,0.446874 0.129215,0.749447 -1.663681,0.81846 -3.510851,0.135151 z m 4.147072,-11.188489 c -0.131014,-1.255686 -0.240405,-0.376629 -0.24309,1.953459 -0.0027,2.330089 0.104509,3.35747 0.238209,2.283066 0.133699,-1.074402 0.135896,-2.980838 0.0049,-4.236525 z m -0.261727,-7.571667 c -0.175104,-0.911512 -0.549307,-1.51457 -0.831561,-1.340127 -0.282254,0.174442 -0.206871,0.989463 0.167518,1.811157 0.845585,1.855856 1.079209,1.690138 0.664043,-0.47103 z m -0.970985,-5.139886 c -0.153449,-0.588858 -0.28909,-0.253606 -0.301423,0.745003 -0.01234,0.99861 0.113215,1.480402 0.278998,1.07065 0.165783,-0.409753 0.175874,-1.226797 0.02242,-1.815653 z m -2.235063,0.442394 c 0,-0.332869 -0.288422,-0.605217 -0.640936,-0.605217 -0.352515,0 -0.472616,0.272348 -0.266891,0.605217 0.205725,0.33287 0.494146,0.605218 0.640936,0.605218 0.14679,0 0.266891,-0.272348 0.266891,-0.605218 z m 4.443559,-14.797013 c 0.224933,-0.586166 0.0457,-0.765399 -0.540466,-0.540466 -0.957292,0.367347 -1.206614,1.417471 -0.336538,1.417471 0.297256,0 0.691908,-0.394653 0.877004,-0.877005 z m 7.055578,-6.083 c 0,-0.499305 -0.2638,-0.907827 -0.586223,-0.907827 -0.322423,0 -0.429458,0.408522 -0.237857,0.907827 0.191601,0.499305 0.455402,0.907827 0.586223,0.907827 0.130822,0 0.237857,-0.408522 0.237857,-0.907827 z m 8.550248,-8.019135 c 0.752813,-0.95991 0.731406,-0.981316 -0.228503,-0.228503 -0.582522,0.456845 -1.059131,0.933454 -1.059131,1.059131 0,0.498114 0.496996,0.177512 1.287634,-0.830628 z m 37.724026,48.83107 c -0.21941,-0.355015 -0.235484,-0.808928 -0.03571,-1.008698 0.19977,-0.199765 0.363215,-0.02941 0.363215,0.378594 0,0.407995 0.314429,0.54748 0.69873,0.309968 0.432913,-0.267555 0.534444,-0.166023 0.266889,0.266889 -0.535091,0.865794 -0.78458,0.876071 -1.293114,0.05326 z m 0.980495,-2.12843 c 0.02905,-0.705048 0.172451,-0.848455 0.365648,-0.365654 0.17483,0.436888 0.153332,0.958889 -0.04775,1.160002 -0.201114,0.201108 -0.344151,-0.156352 -0.317873,-0.794348 z m 0,-10.893922 c 0.02905,-0.705044 0.172451,-0.848455 0.365648,-0.365652 0.17483,0.436891 0.153332,0.958892 -0.04775,1.160001 -0.201114,0.201108 -0.344151,-0.156349 -0.317873,-0.794349 z M 19.966879,44.223409 c 0.02904,-0.705044 0.172452,-0.848455 0.365653,-0.365653 0.17483,0.436892 0.153328,0.958892 -0.04778,1.160001 C 20.083643,45.218866 19.9406,44.861409 19.96688,44.223409 Z M 33.23389,31.994513 c 0,-0.714546 0.171575,-0.738668 0.907827,-0.127634 0.499305,0.414386 0.907827,0.810864 0.907827,0.881063 0,0.0702 -0.408522,0.127634 -0.907827,0.127634 -0.499305,0 -0.907827,-0.396479 -0.907827,-0.881063 z m 0.04778,-4.111984 c 0.02904,-0.705044 0.172452,-0.848455 0.365653,-0.365653 0.17483,0.436892 0.153328,0.958892 -0.04778,1.160001 -0.201109,0.201109 -0.344152,-0.156348 -0.317873,-0.794348 z m 7.820049,-5.966025 c 0,-0.47966 0.24695,-1.024732 0.548776,-1.211271 0.301827,-0.186539 0.406237,0.20591 0.232022,0.872109 -0.369554,1.413175 -0.780798,1.591811 -0.780798,0.339162 z m 19.972187,-0.585825 c 0,-0.11523 0.408522,-0.548552 0.907827,-0.962938 0.523265,-0.434273 0.907826,-0.493094 0.907826,-0.138857 0,0.338014 -0.408522,0.771336 -0.907826,0.962938 -0.499305,0.191601 -0.907827,0.254087 -0.907827,0.138857 z M 71.41039,18.804262 c 0.02905,-0.705044 0.172451,-0.848455 0.365649,-0.365652 0.174829,0.436891 0.153332,0.958892 -0.04775,1.160001 -0.201114,0.201108 -0.344151,-0.156349 -0.317873,-0.794349 z m -6.705177,-4.524417 c 0,-0.352514 0.272348,-0.472615 0.605218,-0.26689 0.332869,0.205725 0.605217,0.494145 0.605217,0.640936 0,0.14679 -0.272348,0.26689 -0.605217,0.26689 -0.33287,0 -0.605218,-0.288421 -0.605218,-0.640936 z M 44.828589,7.658168 c 0,-0.8321745 0.137368,-1.1726095 0.305263,-0.7565223 0.167895,0.4160873 0.167895,1.0969573 0,1.5130445 -0.167895,0.4160872 -0.305263,0.075652 -0.305263,-0.7565222 z m 1.114875,-2.0441566 c 0,-0.1256767 0.476609,-0.6022857 1.059131,-1.0591311 0.959909,-0.7528126 0.981316,-0.7314058 0.228503,0.2285032 -0.790638,1.0081403 -1.287634,1.3287429 -1.287634,0.8306279 z M 55.54975,4.7833835 C 54.781416,3.803684 54.8099,3.7908402 55.929557,4.6121264 c 0.66574,0.4883308 1.323914,0.9649398 1.46261,1.0591311 0.138695,0.094191 -0.03222,0.1712571 -0.379808,0.1712571 -0.34759,0 -1.005764,-0.476609 -1.462609,-1.0591311 z"
         id="path14230" />
      <path
         style="fill:#b9b9b9;fill-opacity:1;stroke-width:0.605218"
         d="m 4.5249571,98.263427 c 0.2272783,-0.596878 0.5656922,-0.932774 0.7520309,-0.746433 0.1863387,0.18634 3.838e-4,0.674691 -0.4132331,1.085234 -0.5977227,0.593271 -0.6672402,0.523756 -0.3387978,-0.338801 z M 33.071216,97.787103 c 0.21401,-0.818376 0.488351,-1.092721 0.639443,-0.639443 0.145543,0.436628 -0.02313,1.081621 -0.37482,1.433313 -0.449112,0.449114 -0.527877,0.212819 -0.264623,-0.79387 z M 22.642579,92.388657 c 0.602486,-0.66574 1.231603,-1.210436 1.398038,-1.210436 0.166435,0 -0.190334,0.544696 -0.79282,1.210436 -0.602486,0.665739 -1.231603,1.210435 -1.398038,1.210435 -0.166435,0 0.190334,-0.544696 0.79282,-1.210435 z m -9.740987,-2.572176 -1.152933,-1.36174 1.36174,1.152934 c 1.2797,1.083473 1.63726,1.570546 1.152933,1.570546 -0.114844,0 -0.727627,-0.612783 -1.36174,-1.36174 z m 53.155812,-8.339483 c -1.087074,-0.988853 -1.75081,-1.797914 -1.47497,-1.797914 0.275846,0 1.284315,0.817044 2.241043,1.815653 2.224405,2.321779 1.794913,2.311835 -0.766073,-0.01773 z m -32.761563,-3.038611 0.06195,-2.693219 0.502991,2.118262 c 0.294347,1.239595 0.26865,2.356755 -0.06195,2.693219 -0.351144,0.357369 -0.541496,-0.444266 -0.50299,-2.118262 z m 4.174574,2.154273 c 0,-0.414127 3.705695,-2.251362 3.982559,-1.974499 0.131321,0.13132 -0.711033,0.691691 -1.871897,1.245272 -1.160864,0.553574 -2.110662,0.88173 -2.110662,0.729227 z m 24.51132,-1.518794 c -0.986752,-0.424022 -1.021313,-0.528004 -0.187025,-0.562677 0.562877,-0.02342 1.191735,0.229807 1.39746,0.562677 0.430104,0.695928 0.409073,0.695928 -1.210435,0 z M 44.430419,78.025822 c 0.66574,-0.166332 1.376796,-0.566096 1.580125,-0.888369 0.203329,-0.322272 0.535216,-0.15459 0.737528,0.372621 0.291497,0.759633 -0.03644,0.944006 -1.580125,0.888369 -1.302867,-0.04696 -1.547109,-0.170357 -0.737528,-0.372621 z m 11.801747,-0.539104 c 0,-0.713448 0.206854,-0.812044 0.756522,-0.3606 0.416087,0.34173 1.437392,0.746511 2.269567,0.899511 1.115363,0.205065 0.916523,0.299843 -0.756522,0.3606 -1.723906,0.0626 -2.269567,-0.153664 -2.269567,-0.899511 z m -21.74006,-3.607636 c 0.02904,-0.705049 0.172451,-0.848455 0.365653,-0.365655 0.174829,0.436889 0.153328,0.958889 -0.04778,1.160003 -0.201109,0.201108 -0.344152,-0.156352 -0.317873,-0.794348 z M 45.674072,19.870551 c -0.248057,-1.105629 -0.302176,-2.159071 -0.120264,-2.340982 0.455367,-0.455367 1.176851,2.601955 0.842167,3.568723 -0.14899,0.430371 -0.473846,-0.122112 -0.721903,-1.227741 z m 10.558094,0.266018 c 0,-0.832175 0.272348,-1.681365 0.605218,-1.88709 0.341832,-0.211264 0.605217,0.284418 0.605217,1.138999 0,0.832175 -0.272348,1.681365 -0.605217,1.88709 -0.341833,0.211264 -0.605218,-0.284418 -0.605218,-1.138999 z M 44.91439,11.894692 c 0,-1.830783 0.113458,-2.5797404 0.252128,-1.664348 0.13867,0.915391 0.13867,2.413305 0,3.328697 -0.13867,0.915392 -0.252128,0.166435 -0.252128,-1.664349 z m 12.575992,2.067828 c 0.02904,-0.705044 0.172451,-0.848455 0.365652,-0.365653 0.17483,0.436892 0.153328,0.958892 -0.04778,1.160001 -0.201109,0.201109 -0.344151,-0.156348 -0.317872,-0.794348 z m 0.09263,-3.278263 c 0,-1.1650444 0.124551,-1.6416534 0.27678,-1.0591313 0.152228,0.5825223 0.152228,1.5357403 0,2.1182623 -0.152229,0.582522 -0.27678,0.105913 -0.27678,-1.059131 z M 48.21303,4.231255 c 0.416088,-0.1678948 1.096958,-0.1678948 1.513045,0 0.416087,0.1678949 0.07565,0.3052634 -0.756522,0.3052634 -0.832175,0 -1.17261,-0.1373685 -0.756523,-0.3052634 z m 4.841743,0 c 0.416087,-0.1678948 1.096957,-0.1678948 1.513044,0 0.416087,0.1678949 0.07565,0.3052634 -0.756522,0.3052634 -0.832175,0 -1.17261,-0.1373685 -0.756522,-0.3052634 z"
         id="path14228" />
      <path
         style="fill:#a3a3a3;fill-opacity:1;stroke-width:0.605218"
         d="M 5.0912637,97.486225 C 4.6995285,97.321926 4.6054725,92.695533 4.8246172,84.370514 5.0108314,77.296486 5.2150924,71.467198 5.2785306,71.416548 6.5034403,70.438473 11.065447,69.995599 19.915611,69.995599 c 9.606864,0 10.812958,0.113981 11.711433,1.106786 0.85635,0.946258 1.014781,2.899405 1.09231,13.466096 0.04988,6.797618 0.204138,11.610352 0.342808,10.69496 0.138671,-0.915392 0.480889,-1.664349 0.760486,-1.664349 0.792596,0 -0.02876,2.636093 -1.084304,3.480003 -0.695573,0.556116 -4.402706,0.743867 -13.994051,0.70874 C 11.567997,97.761556 5.4241335,97.62583 5.0912637,97.486225 Z M 24.025309,94.956003 C 28.619699,92.85396 31.225634,87.143458 30.067813,81.7148 29.241456,77.840268 25.389223,73.988033 21.514689,73.161675 12.88952,71.322109 5.4099734,78.632583 7.3019481,87.053142 c 0.9355087,4.163644 4.2229109,7.750721 7.9636289,8.689583 1.469013,0.368699 1.627433,0.247486 1.627433,-1.245199 0,-1.197084 -0.739358,-2.304469 -2.677872,-4.010814 -4.070848,-3.583307 -4.4121529,-7.861017 -0.906879,-11.366293 3.165565,-3.165561 7.645801,-3.155006 10.826322,0.02554 3.346193,3.346195 2.968354,8.29063 -0.966362,12.645893 -1.128465,1.249072 -2.862395,2.606824 -3.85318,3.017222 -0.990785,0.410398 -1.658154,0.977996 -1.483044,1.261328 0.401565,0.649744 3.59237,0.07562 6.193314,-1.114375 z M 2.7093038,96.447774 C 2.936582,95.850896 3.2749959,95.515 3.4613347,95.701341 c 0.1863387,0.18634 3.838e-4,0.67469 -0.4132332,1.085234 -0.5977226,0.59327 -0.6672401,0.523755 -0.3387977,-0.338801 z M 33.23389,83.648719 c 0,-1.854418 0.344939,-2.004221 0.780422,-0.338934 0.174008,0.665413 0.0696,1.362351 -0.232022,1.548764 -0.30162,0.186413 -0.5484,-0.35801 -0.5484,-1.20983 z m 2.420871,-1.172053 c 0,-0.125673 0.476609,-0.602282 1.059132,-1.059131 0.959909,-0.752812 0.981315,-0.731405 0.228503,0.228506 -0.790638,1.008142 -1.287635,1.328744 -1.287635,0.830625 z m 5.44696,-3.4028 c 0.499305,-0.322678 2.133393,-0.559536 3.631307,-0.526352 l 2.72348,0.06034 -2.420871,0.500739 c -1.331479,0.275404 -2.965567,0.512263 -3.631307,0.526352 -0.99983,0.02115 -1.052482,-0.07648 -0.302609,-0.561079 z m 16.34088,0 c -1.299973,-0.416324 -1.172131,-0.487067 0.907827,-0.502349 1.331479,-0.0098 2.965567,0.216268 3.631307,0.502349 0.976373,0.419561 0.80083,0.516704 -0.907827,0.502349 -1.165044,-0.0098 -2.799132,-0.235842 -3.631307,-0.502349 z M 2.8103268,73.67542 C 2.5470725,72.668731 2.6258379,72.432436 3.0749501,72.88155 3.4266438,73.233242 3.5953128,73.878235 3.4497699,74.314863 3.2986781,74.768141 3.0243375,74.493795 2.8103268,73.67542 Z M 45.685745,17.162163 c -0.271078,-0.930894 -0.323986,-1.861416 -0.117574,-2.067828 0.677443,-0.677444 1.075845,0.289258 0.841016,2.040683 l -0.230574,1.719679 z m 10.555689,0.366512 c 0.0051,-0.602167 0.273274,-1.503371 0.59595,-2.002676 0.458876,-0.710061 0.588701,-0.553038 0.59595,0.720804 0.0051,0.895747 -0.263081,1.796951 -0.59595,2.002676 -0.33287,0.205725 -0.601048,-0.118637 -0.59595,-0.720804 z m 0.64373,-10.8287685 c 0.02904,-0.7050442 0.172451,-0.8484544 0.365652,-0.3656524 0.17483,0.4368916 0.153329,0.9588919 -0.04778,1.1600009 C 57.001925,7.6953634 56.858883,7.3379067 56.885162,6.6999065 Z M 50.671728,5.4290819 C 51.108619,5.2542523 51.630619,5.2757534 51.831729,5.476862 52.032837,5.6779709 51.67538,5.8210133 51.03738,5.7947341 50.332336,5.7656935 50.188925,5.6222833 50.671728,5.4290819 Z M 50.633901,4.231255 c 0.416088,-0.1678948 1.096958,-0.1678948 1.513045,0 0.416087,0.1678949 0.07565,0.3052634 -0.756522,0.3052634 -0.832175,0 -1.17261,-0.1373685 -0.756523,-0.3052634 z"
         id="path14226" />
      <path
         style="fill:#8c8c8c;fill-opacity:1;stroke-width:0.605218"
         d="m 3.2219096,85.126044 c 0,-5.825222 0.090773,-8.208267 0.2017177,-5.295656 0.1109447,2.912611 0.1109447,7.678701 0,10.591311 -0.1109447,2.912611 -0.2017177,0.529566 -0.2017177,-5.295655 z m 66.3728294,3.883482 c 0.02905,-0.705048 0.172451,-0.848455 0.365648,-0.365654 0.17483,0.436888 0.153332,0.958889 -0.04775,1.160003 -0.201114,0.201107 -0.344151,-0.156352 -0.317873,-0.794349 z m -1.802678,-5.272748 c -0.765552,-1.274776 -0.752654,-1.287673 0.289494,-0.289494 0.59991,0.5746 0.960469,1.174994 0.801248,1.334215 -0.159221,0.159221 -0.650052,-0.3109 -1.090742,-1.044721 z M 39.286068,80.284301 c 0.499305,-0.322678 1.452523,-0.571713 2.118262,-0.553411 l 1.210436,0.03329 -1.210436,0.520142 c -0.665739,0.286081 -1.618957,0.535116 -2.118262,0.553412 -0.806957,0.0296 -0.806957,-0.0319 0,-0.553412 z m 22.393058,0 c -0.751742,-0.485814 -0.699714,-0.58668 0.302609,-0.58668 0.665739,0 1.618957,0.264002 2.118262,0.58668 0.751741,0.485815 0.699716,0.58668 -0.302609,0.58668 -0.665739,0 -1.618957,-0.264002 -2.118262,-0.58668 z M 34.539887,77.258212 c 0,-0.832174 0.137368,-1.172609 0.305263,-0.756522 0.167895,0.416087 0.167895,1.096957 0,1.513045 -0.167895,0.416087 -0.305263,0.07565 -0.305263,-0.756523 z M 56.301762,15.525999 c 0.02808,-0.499305 0.269113,-1.588697 0.535622,-2.420871 l 0.484561,-1.513044 0.05106,1.513044 c 0.02808,0.832174 -0.212946,1.921566 -0.535622,2.420871 -0.521495,0.806957 -0.581009,0.806957 -0.535621,0 z M 45.380784,13.256432 c 0.03769,-1.474821 0.101769,-1.52651 0.56268,-0.453913 0.710352,1.65308 0.710352,2.118262 0,2.118262 -0.33287,0 -0.586076,-0.748957 -0.56268,-1.664349 z m 0.56268,-7.0372028 c 0,-0.1256767 0.414756,-0.5727206 0.921681,-0.9934308 0.770652,-0.6395845 0.859214,-0.6021413 0.540466,0.2285032 -0.325544,0.8483557 -1.462147,1.4429736 -1.462147,0.7649276 z m 3.328697,-0.9819324 c 0.205725,-0.3328697 0.834581,-0.6010474 1.397459,-0.5959502 0.881968,0.00799 0.897943,0.090352 0.115586,0.5959502 -1.185242,0.7659621 -1.986435,0.7659621 -1.513045,0 z"
         id="path14224" />
      <path
         style="fill:#767676;fill-opacity:1;stroke-width:0.605218"
         d="m 2.6190001,85.126044 c 0,-6.158091 0.08987,-8.67731 0.199712,-5.598265 0.1098416,3.079046 0.1098416,8.117484 0,11.196529 -0.1098415,3.079045 -0.199712,0.559826 -0.199712,-5.598264 z m 33.0357609,-2.04416 c 0,-0.125673 0.476609,-0.602282 1.059132,-1.059131 0.959909,-0.752812 0.981315,-0.731406 0.228503,0.228506 -0.790638,1.008142 -1.287635,1.328744 -1.287635,0.830625 z m 30.462627,-0.652697 c 0,-0.484664 0.231399,-0.73819 0.514223,-0.563397 0.282818,0.174793 0.357532,0.571331 0.166017,0.881203 -0.489391,0.791855 -0.68024,0.702694 -0.68024,-0.317806 z m -2.017391,-0.93445 c -0.775829,-0.501381 -0.753829,-0.58803 0.151304,-0.595952 0.582523,-0.0048 1.059132,0.263082 1.059132,0.595952 0,0.738129 -0.06826,0.738129 -1.210436,0 z m -25.532625,-0.41343 c 0.436892,-0.17483 0.958892,-0.153332 1.160001,0.04775 0.201108,0.201108 -0.156348,0.344151 -0.794348,0.317873 -0.705045,-0.02905 -0.848455,-0.17245 -0.365653,-0.365648 z m -4.027485,-1.402223 c 0,-0.832175 0.137368,-1.17261 0.305263,-0.756523 0.167895,0.416088 0.167895,1.096958 0,1.513045 -0.167895,0.416087 -0.305263,0.07565 -0.305263,-0.756522 z m -3.12165,-9.078267 c -0.545478,-0.352515 -0.620126,-0.590384 -0.187023,-0.595952 0.396443,-0.0048 0.889125,0.263082 1.09485,0.595952 0.464386,0.751396 0.254871,0.751396 -0.907827,0 z M 56.642975,11.592084 c 0.192227,-1.6643494 0.450781,-3.1395677 0.574565,-3.2782637 0.425335,-0.4765732 0.104077,3.2792307 -0.409831,4.7913077 -0.346794,1.020372 -0.400434,0.5277 -0.164734,-1.513044 z m -11.035958,0.03248 c -0.215212,-1.14718 -0.150341,-2.8086406 0.144156,-3.6921345 0.439151,-1.317451 0.553856,-0.9423238 0.637786,2.0857815 0.114246,4.121892 -0.191999,4.751017 -0.781942,1.606353 z M 55.425209,6.296428 C 54.814947,5.6584275 54.430791,5.0212792 54.571528,4.8805427 c 0.140736,-0.1407365 0.75185,0.2921508 1.358029,0.9619719 1.421074,1.570269 0.960213,1.9850447 -0.504348,0.4539134 z M 51.995641,5.2372968 c -0.782357,-0.5055981 -0.766382,-0.5879635 0.115587,-0.5959502 0.562877,-0.0051 1.191733,0.2630805 1.397458,0.5959502 0.47339,0.7659621 -0.327803,0.7659621 -1.513045,0 z M 48.250856,4.8238641 c 0.436892,-0.1748296 0.958892,-0.1533285 1.160001,0.04778 0.201109,0.2011089 -0.156348,0.3441513 -0.794348,0.3178721 -0.705044,-0.02904 -0.848455,-0.1724508 -0.365653,-0.3656521 z"
         id="path14222" />
      <path
         style="fill:#606060;fill-opacity:1;stroke-width:0.605218"
         d="m 66.974781,83.893687 c -1.957183,-2.133931 -2.221464,-3.090732 -0.397858,-1.440394 1.126371,1.01935 2.68419,3.296343 2.234803,3.266512 -0.09493,-0.0063 -0.921553,-0.828053 -1.836945,-1.826118 z M 37.309023,82.024853 c 0.41054,-0.413618 0.898894,-0.599571 1.085233,-0.41323 0.186339,0.18634 -0.149556,0.524754 -0.746435,0.752031 -0.862555,0.32844 -0.932073,0.258924 -0.338798,-0.338801 z M 56.279946,10.936431 c 0.02904,-0.705044 0.172451,-0.848455 0.365653,-0.365652 0.174829,0.436891 0.153328,0.958891 -0.04778,1.16 -0.201109,0.201109 -0.344152,-0.156348 -0.317873,-0.794348 z M 45.991244,9.1207778 c 0.02904,-0.7050442 0.172451,-0.8484548 0.365652,-0.3656526 0.17483,0.4368916 0.153329,0.9588919 -0.04778,1.1600009 -0.201109,0.2011089 -0.344151,-0.1563483 -0.317872,-0.7943483 z m 7.517442,-3.883481 c -0.205725,-0.3328697 -0.08562,-0.6052177 0.266891,-0.6052177 0.352514,0 0.640936,0.272348 0.640936,0.6052177 0,0.3328698 -0.120101,0.6052178 -0.266891,0.6052178 -0.14679,0 -0.435211,-0.272348 -0.640936,-0.6052178 z"
         id="path14220" />
      <path
         style="fill:#494949;fill-opacity:1;stroke-width:0.605218"
         d="m 66.520868,95.18624 c 0,-0.125674 0.476609,-0.602283 1.059131,-1.059131 0.959912,-0.752813 0.981318,-0.731406 0.228506,0.228506 -0.790638,1.008141 -1.287637,1.328743 -1.287637,0.830625 z M 56.279946,9.1207778 c 0.02904,-0.7050442 0.172451,-0.8484548 0.365653,-0.3656526 0.174829,0.4368916 0.153328,0.9588919 -0.04778,1.1600009 C 56.39671,10.116235 56.253667,9.7587778 56.279946,9.1207778 Z"
         id="path14218" />
      <path
         style="fill:#333333;fill-opacity:1;stroke-width:0.605218"
         d="m 41.459241,98.093887 c -1.301279,-0.476778 -3.254023,-1.544225 -4.339432,-2.372108 -1.385325,-1.056638 -2.063841,-1.281597 -2.276697,-0.754834 -0.166774,0.412728 -0.324727,0.01755 -0.351006,-0.878219 -0.02628,-0.895747 -0.320128,-1.796952 -0.652998,-2.002678 -0.33287,-0.205726 -0.605218,-1.431292 -0.605218,-2.72348 0,-1.292188 0.272348,-2.517754 0.605218,-2.72348 0.33287,-0.205726 0.605218,-0.918739 0.605218,-1.584478 0,-0.66574 0.273084,-1.041665 0.606854,-0.835382 0.405661,0.250711 0.405661,0.75099 0,1.508977 -1.099855,2.055096 -0.70116,5.245071 0.892222,7.138695 3.804208,4.521043 15.403197,6.38673 23.817377,3.831004 6.917313,-2.101074 9.778825,-5.315174 8.610149,-9.671071 -0.536628,-2.000136 -0.509654,-2.095022 0.292429,-1.028592 2.594381,3.449408 -0.0397,8.563995 -5.919586,11.494066 -2.886948,1.438627 -3.703301,1.550586 -11.018265,1.511102 -5.254286,-0.02839 -8.692726,-0.332985 -10.266265,-0.909522 z"
         id="path14216" />
    </g>
  </g>
</svg>
