<?xml version="1.0" encoding="UTF-8" standalone="no"?>
<!-- Created with Inkscape (http://www.inkscape.org/) -->

<svg
   width="100mm"
   height="100mm"
   viewBox="0 0 100 100"
   version="1.1"
   id="svg6514"
   inkscape:version="1.1.1 (3bf5ae0d25, 2021-09-20)"
   sodipodi:docname="add_list_type_device_7006.svg"
   xmlns:inkscape="http://www.inkscape.org/namespaces/inkscape"
   xmlns:sodipodi="http://sodipodi.sourceforge.net/DTD/sodipodi-0.dtd"
   xmlns="http://www.w3.org/2000/svg"
   xmlns:svg="http://www.w3.org/2000/svg">
  <sodipodi:namedview
     id="namedview6516"
     pagecolor="#505050"
     bordercolor="#ffffff"
     borderopacity="1"
     inkscape:pageshadow="0"
     inkscape:pageopacity="0"
     inkscape:pagecheckerboard="1"
     inkscape:document-units="mm"
     showgrid="false"
     inkscape:zoom="0.58974467"
     inkscape:cx="397.62971"
     inkscape:cy="276.3908"
     inkscape:window-width="1440"
     inkscape:window-height="890"
     inkscape:window-x="-6"
     inkscape:window-y="-6"
     inkscape:window-maximized="1"
     inkscape:current-layer="layer1" />
  <defs
     id="defs6511" />
  <g
     inkscape:label="Laag 1"
     inkscape:groupmode="layer"
     id="layer1">
    <g
       id="g6530">
      <path
         style="fill:#d0d0d0;fill-opacity:1;stroke-width:0.599679"
         d="m 19.743874,92.758526 c -0.210091,-0.339934 0.03062,-0.440464 0.564288,-0.23568 1.038894,0.398661 1.228974,0.828493 0.366377,0.828493 -0.310358,0 -0.729158,-0.266768 -0.930665,-0.592813 z m -6.977045,-2.255663 c -0.745923,-0.951126 -0.724713,-0.972337 0.226412,-0.226414 0.577191,0.452667 1.049438,0.924915 1.049438,1.049438 0,0.49356 -0.492448,0.175892 -1.27585,-0.823024 z m 1.799037,-2.398715 c -0.745923,-0.951127 -0.724713,-0.972338 0.226412,-0.226415 0.577191,0.452667 1.049438,0.924915 1.049438,1.049438 0,0.49356 -0.492448,0.175892 -1.27585,-0.823023 z"
         id="path6542" />
      <path
         style="fill:#b9b9b9;fill-opacity:1;stroke-width:0.599679"
         d="m 17.528313,92.941692 c 0.432893,-0.173229 0.950116,-0.151929 1.149385,0.04731 0.199268,0.199267 -0.154918,0.341001 -0.787079,0.314963 -0.698592,-0.02879 -0.84069,-0.170873 -0.362306,-0.362302 z M 37.477502,55.821429 c 0.02877,-0.698592 0.170873,-0.84069 0.362306,-0.362306 0.17323,0.432893 0.151925,0.950116 -0.04734,1.149385 -0.199269,0.199268 -0.341002,-0.154918 -0.314964,-0.787079 z"
         id="path6540" />
      <path
         style="fill:#a3a3a3;fill-opacity:1;stroke-width:0.599679"
         d="M 18.221105,97.942241 C 18.066823,97.794942 16.957054,97.544786 15.754951,97.386339 13.114017,97.038249 11.843396,96.335293 9.3521842,93.844083 7.1045142,91.596408 6.268833,90.235629 5.8211081,88.094253 5.4273543,86.211015 5.458084,81.028187 5.8734942,79.258883 6.0283707,78.599236 6.1757348,77.89228 6.2009701,77.687868 c 0.1459011,-1.18183 4.7407699,-5.458962 7.0821169,-6.592391 5.746839,-2.781995 12.818568,-1.230068 17.206794,3.776124 1.178566,1.34454 2.163493,2.61186 2.188728,2.816267 0.02523,0.204412 0.1726,0.911368 0.327476,1.571015 0.737096,3.139427 0.310249,9.492468 -0.754795,11.234086 -1.446315,2.365104 -5.589617,6.334757 -6.78676,6.502325 -0.180284,0.02525 -0.792907,0.13524 -1.361384,0.244453 -3.608295,0.693211 -5.637884,0.935607 -5.882041,0.702494 z m 6.805963,-6.565471 c 5.842209,-4.456071 4.914809,-13.141563 -1.74041,-16.299671 -6.370127,-3.02282 -14.0852043,2.555316 -13.2901499,9.609016 0.8175539,7.253321 9.3268199,11.04111 15.0305599,6.690655 z m -6.786636,0.383255 c 0,-0.545403 -1.079422,-1.988152 -2.398716,-3.206118 C 13.770183,86.641477 13.443,85.993385 13.443,83.802464 c 0,-3.555089 2.468761,-6.042779 5.99679,-6.042779 7.11904,0 8.204391,9.648577 1.548106,13.762387 -2.407239,1.487755 -2.747464,1.517224 -2.747464,0.237953 z m 13.332065,-25.99392 c 0,-1.154382 0.123411,-1.626629 0.274247,-1.049438 0.150835,0.577191 0.150835,1.521686 0,2.098877 -0.150836,0.577191 -0.274247,0.104944 -0.274247,-1.049439 z m 7.580207,0.749599 c -0.745923,-0.951127 -0.724713,-0.972337 0.226412,-0.226415 0.577191,0.452668 1.049438,0.924915 1.049438,1.049439 0,0.493559 -0.492448,0.175891 -1.27585,-0.823024 z m 21.664935,0.823024 c 0,-0.124524 0.472248,-0.596771 1.049439,-1.049439 0.951127,-0.745922 0.972337,-0.724712 0.226414,0.226415 -0.783405,0.998915 -1.275853,1.316583 -1.275853,0.823024 z m -1.556174,-20.91227 -1.142381,-1.349277 1.349278,1.142381 c 1.267988,1.073556 1.622276,1.556174 1.142381,1.556174 -0.113793,0 -0.720968,-0.607175 -1.349278,-1.349278 z"
         id="path6538" />
      <path
         style="fill:#767676;fill-opacity:1;stroke-width:0.599679"
         d="m 41.328073,46.576378 c 0.596972,-0.659647 1.220331,-1.199358 1.385243,-1.199358 0.164912,0 -0.188592,0.539711 -0.785564,1.199358 -0.596972,0.659647 -1.220332,1.199358 -1.385244,1.199358 -0.164912,0 0.188593,-0.539711 0.785565,-1.199358 z"
         id="path6536" />
      <path
         style="fill:#494949;fill-opacity:1;stroke-width:0.599679"
         d="m 73.334403,76.110568 c -0.745923,-0.951127 -0.724712,-0.972338 0.226415,-0.226415 0.577191,0.452668 1.049438,0.924915 1.049438,1.049438 0,0.49356 -0.49245,0.175892 -1.275853,-0.823023 z m 20.46558,0.823023 c 0,-0.124523 0.472248,-0.59677 1.049439,-1.049438 0.951127,-0.745923 0.972337,-0.724712 0.226414,0.226415 -0.783402,0.998915 -1.275853,1.316583 -1.275853,0.823023 z M 12.730881,53.962556 c 0.432893,-0.17323 0.950117,-0.151925 1.149385,0.04734 0.199268,0.199269 -0.154917,0.341002 -0.787079,0.314964 -0.698591,-0.02877 -0.84069,-0.170873 -0.362306,-0.362306 z m 4.766944,-0.01448 c 0.745948,-0.143439 1.82537,-0.137993 2.398716,0.0121 0.573346,0.150097 -0.03698,0.267457 -1.35627,0.260801 -1.319293,-0.0067 -1.788394,-0.129462 -1.042446,-0.272901 z m 63.277233,-0.0174 c 1.576616,-0.123939 4.005316,-0.122444 5.397111,0.0033 1.391801,0.125767 0.101843,0.227172 -2.866568,0.225345 -2.968411,-0.0018 -4.107153,-0.104728 -2.530543,-0.228668 z M 47.174943,44.933865 c 1.896484,-0.119007 4.999823,-0.119007 6.896308,0 1.896485,0.119006 0.344815,0.216375 -3.448154,0.216375 -3.79297,0 -5.344639,-0.09737 -3.448154,-0.216375 z"
         id="path6534" />
      <path
         style="fill:#333333;fill-opacity:1;stroke-width:0.599679"
         d="M 80.906885,80.225817 C 74.119827,78.466089 69.562434,72.667823 69.541667,65.766105 c -0.0097,-3.210561 0.302299,-4.467626 1.769101,-7.128697 0.979462,-1.776932 2.257462,-3.528442 2.840002,-3.892245 0.58254,-0.363803 1.06873,-1.203722 1.080418,-1.866487 0.01168,-0.662764 0.406906,-1.879665 0.878265,-2.704224 0.535298,-0.936401 0.864995,-3.258665 0.878266,-6.186133 0.0279,-6.152097 0.513469,-7.006805 3.980675,-7.006805 2.540576,0 2.691048,-0.08802 2.30669,-1.349277 C 82.519206,33.151862 81.207462,32.351339 71.134451,28.223129 62.635272,24.739925 60.57229,24.115656 57.519405,24.103153 l -3.598074,-0.01474 -0.187914,1.948957 c -0.186584,1.935149 -0.168998,1.948957 2.482201,1.948957 1.735007,0 3.165916,0.401342 4.085827,1.145995 1.265044,1.024029 1.438003,1.72565 1.625151,6.592451 0.182416,4.743815 0.07452,5.498226 -0.836318,5.847749 -1.560305,0.598744 -2.916831,-1.432808 -1.741517,-2.608122 1.527188,-1.527188 0.951844,-8.579357 -0.699939,-8.579357 -0.633062,0 -0.829577,1.072472 -0.829577,4.527372 0,5.11643 0.701949,6.915185 4.297347,11.012008 1.435152,1.635303 2.695713,3.926301 3.299578,5.99679 C 68.549762,62.665477 58.471916,73.11056 47.36915,70.625868 41.295529,69.266654 36.819856,64.691583 35.532446,58.52629 c -0.954726,-4.572096 0.38292,-9.000216 3.906204,-12.931036 3.873932,-4.322027 4.587978,-6.070338 4.587978,-11.233469 0,-6.139438 0.136981,-6.375455 3.700227,-6.375455 h 2.972231 l -0.187915,-1.948957 -0.187914,-1.948957 -5.097271,0.02632 c -4.981545,0.02573 -5.305333,0.119351 -14.261546,4.12375 -8.870608,3.966125 -10.924971,5.409748 -10.924971,7.677098 0,0.889589 0.534638,1.065925 3.231799,1.065925 5.162891,0 6.015538,1.051894 6.272662,7.738446 0.182417,4.743816 0.07453,5.498227 -0.836317,5.847749 -1.560305,0.598745 -2.916831,-1.432807 -1.741517,-2.608121 1.554218,-1.554217 0.944999,-8.579358 -0.744,-8.579358 -0.714305,0 -0.828867,0.902294 -0.628153,4.947352 0.30252,6.096827 1.18368,8.392176 4.740235,12.347921 3.462677,3.851331 4.59543,7.678934 3.527573,11.91978 -0.949698,3.771591 -2.865565,6.447724 -3.963592,5.53644 -0.681227,-0.565371 -0.613637,-0.95632 0.403087,-2.331516 2.694045,-3.643889 2.194855,-9.651761 -1.105492,-13.304851 -3.17106,-3.509984 -5.113081,-4.31786 -10.505563,-4.370285 l -4.647512,-0.04518 v -2.852237 c 0,-2.209204 -0.215308,-2.852236 -0.955019,-2.852236 -0.782734,0 -0.917961,0.595145 -0.749599,3.299052 0.112982,1.814478 0.0038,3.298684 -0.242611,3.298234 -0.994624,-0.0018 -5.4849441,4.622609 -6.2401106,6.42647 -1.5739795,3.75976 -0.8228204,8.682302 1.7428108,11.421102 1.023941,1.093053 1.1232869,1.501578 0.5104113,2.098877 -0.6080774,0.592626 -1.1043302,0.334345 -2.469621,-1.285346 -2.35279,-2.7912 -3.3289917,-7.087534 -2.425599,-10.675234 0.7380009,-2.930865 3.7804018,-7.8507 5.1891251,-8.391278 0.4635291,-0.177873 0.8427805,-0.710067 0.8427805,-1.182655 0,-0.472587 0.539711,-1.91717 1.1993579,-3.210185 0.882001,-1.728866 1.199358,-3.534367 1.199358,-6.823372 0,-5.920003 0.216154,-6.369566 3.062554,-6.369566 1.284006,0 2.334557,-0.287596 2.334557,-0.639102 0,-1.544346 -1.36288,-2.930544 -3.155603,-3.209595 C 11.098707,32.699035 5.6718811,32.21562 3.398377,32.198639 1.8540585,32.187105 1.4494203,31.935074 1.4494203,30.984725 c 0,-1.383836 0.0849,-1.390064 8.5907747,-0.630189 4.18248,0.373644 6.225375,0.827886 7.040365,1.565441 1.095364,0.991291 1.214875,0.97233 2.59966,-0.412455 1.317821,-1.317821 13.772333,-7.180024 19.690254,-9.267989 2.842548,-1.002909 10.728107,-1.134316 11.667985,-0.194438 0.473859,0.473858 1.032485,0.453334 2.018092,-0.07415 0.855801,-0.458011 2.720438,-0.615153 5.011732,-0.422365 4.78177,0.402336 23.167826,7.740268 25.448387,10.156529 l 1.549577,1.641776 1.295282,-1.216857 c 0.890548,-0.836624 2.395604,-1.306622 4.816628,-1.50413 1.936741,-0.158001 4.398375,-0.394791 5.470302,-0.526202 1.610312,-0.197414 1.948956,-0.03708 1.948956,0.922727 0,0.638911 -0.06746,1.168206 -0.149919,1.176212 -0.08246,0.008 -1.634126,0.153468 -3.448155,0.323249 -5.861934,0.548637 -7.170583,0.892628 -7.78854,2.047293 -1.080904,2.019684 -0.691652,2.412333 2.39143,2.412333 4.683534,0 5.39711,1.070366 5.39711,8.095667 0,3.133322 -0.218277,5.69695 -0.485062,5.69695 -0.266785,0 -1.008888,-0.399655 -1.649117,-0.888123 -0.907764,-0.692585 -0.992499,-1.001473 -0.384862,-1.402958 0.545594,-0.360493 0.725372,-1.755334 0.599679,-4.652708 -0.14658,-3.378746 -0.372041,-4.174581 -1.228952,-4.337963 -1.606348,-0.306273 -1.497447,7.452967 0.14992,10.682073 0.659646,1.293015 1.199357,2.617638 1.199357,2.943608 0,0.32597 0.702386,1.348679 1.560863,2.272686 2.824386,3.03999 3.836248,5.778184 3.836248,10.381248 0,4.722358 -0.829074,6.915312 -3.815127,10.091284 -3.46401,3.68432 -9.351652,5.535439 -13.875403,4.362539 z m 9.203148,-3.432179 c 6.40995,-3.194214 8.602413,-10.968884 4.90914,-17.408261 -2.364504,-4.122619 -5.36555,-5.612851 -11.303223,-5.612851 H 79.407688 V 51.37381 c 0,-1.319294 -0.269856,-2.398716 -0.599679,-2.398716 -0.329824,0 -0.599679,1.303678 -0.599679,2.897061 0,2.508974 -0.209654,3.009267 -1.565078,3.734666 -0.860791,0.460682 -2.342466,2.19288 -3.29261,3.849327 -6.353904,11.077208 5.244445,23.075627 16.759391,17.33749 z M 55.889549,67.833169 c 8.419787,-3.517147 10.647871,-15.18128 4.060477,-21.256791 -1.449569,-1.336928 -2.237023,-1.52169 -7.275257,-1.707004 l -5.649746,-0.207806 v -2.34083 c 0,-1.68095 -0.253574,-2.340829 -0.899519,-2.340829 -0.642568,0 -0.899518,0.654285 -0.899518,2.290494 0,2.003666 -0.242284,2.397914 -1.934783,3.148315 -2.926887,1.297688 -5.40509,5.262439 -5.728729,9.165102 -0.661873,7.981319 4.953684,14.134349 12.929964,14.167511 1.742167,0.0073 4.170866,-0.405928 5.397111,-0.918162 z M 21.238827,47.176057 c 0,-1.021675 -0.399786,-1.199358 -2.698556,-1.199358 -2.298769,0 -2.698555,0.177683 -2.698555,1.199358 0,1.021676 0.399786,1.199358 2.698555,1.199358 2.29877,0 2.698556,-0.177682 2.698556,-1.199358 z m 65.365009,0 c 0,-0.999465 -0.399788,-1.199358 -2.398716,-1.199358 -1.998928,0 -2.398716,0.199893 -2.398716,1.199358 0,0.999465 0.399788,1.199358 2.398716,1.199358 1.998928,0 2.398716,-0.199893 2.398716,-1.199358 z m -66.61171,-3.783385 c -0.03389,-0.511191 -0.133676,-0.500069 -0.351059,0.03913 -0.167043,0.414334 -0.592217,0.575031 -0.944831,0.357104 -0.382125,-0.236167 -0.46582,-0.112598 -0.207183,0.305885 0.51024,0.825587 1.57148,0.32986 1.503073,-0.702117 z m 65.412352,0.78499 c 0,-0.329823 -0.119001,-0.599679 -0.264447,-0.599679 -0.145446,0 -0.431229,0.269856 -0.635072,0.599679 -0.203843,0.329824 -0.08484,0.599679 0.264447,0.599679 0.349289,0 0.635072,-0.269855 0.635072,-0.599679 z M 21.238827,39.979909 c 0,-1.021675 -0.399786,-1.199358 -2.698556,-1.199358 -2.298769,0 -2.698555,0.177683 -2.698555,1.199358 0,1.021676 0.399786,1.199358 2.698555,1.199358 2.29877,0 2.698556,-0.177682 2.698556,-1.199358 z m 65.365009,0 c 0,-0.999465 -0.399788,-1.199358 -2.398716,-1.199358 -1.998928,0 -2.398716,0.199893 -2.398716,1.199358 0,0.999465 0.399788,1.199358 2.398716,1.199358 1.998928,0 2.398716,-0.199893 2.398716,-1.199358 z M 53.621492,38.180872 c 0,-1.021675 -0.399786,-1.199358 -2.698556,-1.199358 -2.298769,0 -2.698555,0.177683 -2.698555,1.199358 0,1.021676 0.399786,1.199358 2.698555,1.199358 2.29877,0 2.698556,-0.177682 2.698556,-1.199358 z m -1.246701,-3.783385 c -0.03389,-0.51119 -0.133676,-0.500068 -0.351059,0.03913 -0.167043,0.414333 -0.592217,0.57503 -0.944831,0.357103 -0.382125,-0.236166 -0.46582,-0.112598 -0.207183,0.305885 0.51024,0.825587 1.57148,0.32986 1.503073,-0.702116 z m 1.246701,-3.412762 c 0,-1.021676 -0.399786,-1.199358 -2.698556,-1.199358 -2.298769,0 -2.698555,0.177682 -2.698555,1.199358 0,1.021675 0.399786,1.199358 2.698555,1.199358 2.29877,0 2.698556,-0.177683 2.698556,-1.199358 z"
         id="path6532" />
    </g>
  </g>
</svg>
