<?xml version="1.0" encoding="UTF-8" standalone="no"?>
<!-- Created with Inkscape (http://www.inkscape.org/) -->

<svg
   width="100mm"
   height="100mm"
   viewBox="0 0 100 100"
   version="1.1"
   id="svg449"
   inkscape:version="1.1.1 (3bf5ae0d25, 2021-09-20)"
   sodipodi:docname="add_list_type_device_5001.svg"
   xmlns:inkscape="http://www.inkscape.org/namespaces/inkscape"
   xmlns:sodipodi="http://sodipodi.sourceforge.net/DTD/sodipodi-0.dtd"
   xmlns="http://www.w3.org/2000/svg"
   xmlns:svg="http://www.w3.org/2000/svg">
  <sodipodi:namedview
     id="namedview451"
     pagecolor="#505050"
     bordercolor="#ffffff"
     borderopacity="1"
     inkscape:pageshadow="0"
     inkscape:pageopacity="0"
     inkscape:pagecheckerboard="1"
     inkscape:document-units="mm"
     showgrid="false"
     width="100mm"
     inkscape:zoom="0.58974467"
     inkscape:cx="378.97757"
     inkscape:cy="215.34743"
     inkscape:window-width="1440"
     inkscape:window-height="890"
     inkscape:window-x="-6"
     inkscape:window-y="-6"
     inkscape:window-maximized="1"
     inkscape:current-layer="layer1" />
  <defs
     id="defs446" />
  <g
     inkscape:label="Laag 1"
     inkscape:groupmode="layer"
     id="layer1">
    <g
       id="g465"
       transform="translate(-1.7945613,-1.7945619)">
      <path
         style="fill:#d0d0d0;fill-opacity:1;stroke-width:0.602448"
         d="m 11.460389,92.569738 c -0.749368,-0.955519 -0.728059,-0.976828 0.227457,-0.22746 0.579857,0.454758 1.054285,0.929186 1.054285,1.054285 0,0.495839 -0.494722,0.176704 -1.281742,-0.826825 z"
         id="path477" />
      <path
         style="fill:#b9b9b9;fill-opacity:1;stroke-width:0.602448"
         d="m 23.887427,92.419126 c 0.599729,-0.662693 1.225967,-1.204897 1.39164,-1.204897 0.165674,0 -0.189463,0.542204 -0.789192,1.204897 -0.599729,0.662693 -1.225967,1.204897 -1.391641,1.204897 -0.165673,0 0.189464,-0.542204 0.789193,-1.204897 z m -9.696415,-2.560406 -1.147657,-1.355509 1.355509,1.147659 c 1.273844,1.078515 1.629768,1.563359 1.147657,1.563359 -0.114319,0 -0.724298,-0.609979 -1.355509,-1.355509 z"
         id="path475" />
      <path
         style="fill:#a3a3a3;fill-opacity:1;stroke-width:0.602448"
         d="M 6.9243009,97.47615 C 5.6865676,96.167247 5.6248337,95.55493 5.6248337,84.587297 c 0,-15.156367 -0.8907286,-14.142513 12.6254573,-14.370678 5.953922,-0.100506 11.024102,0.09937 12.48251,0.492074 2.175383,0.585766 2.531545,0.941934 3.117316,3.117315 0.392708,1.458407 0.59258,6.528589 0.492073,12.482508 C 34.11375,99.84108 35.148281,98.942504 19.856942,98.890163 8.5527272,98.851486 8.1870223,98.811483 6.9243009,97.47615 Z M 25.26383,94.974724 C 29.837196,92.882301 32.431207,87.197929 31.278684,81.794111 30.456108,77.937309 26.621502,74.1027 22.764698,73.280123 14.178995,71.448975 6.7336742,78.725998 8.6169916,87.108025 c 0.931228,4.144592 4.2035874,7.715256 7.9271884,8.649822 1.462292,0.367012 1.619987,0.246353 1.619987,-1.239501 0,-1.191607 -0.735975,-2.293925 -2.665619,-3.992462 -4.052221,-3.56691 -4.391964,-7.825046 -0.90273,-11.314283 3.151081,-3.151076 7.610816,-3.140569 10.776783,0.02542 3.330882,3.330883 2.954772,8.252694 -0.96194,12.588027 -1.123301,1.243357 -2.849297,2.594896 -3.835549,3.003416 -0.986251,0.40852 -1.650566,0.97352 -1.476257,1.255557 0.399728,0.64677 3.575932,0.07527 6.164975,-1.109277 z"
         id="path473" />
      <path
         style="fill:#606060;fill-opacity:1;stroke-width:0.602448"
         d="m 34.347149,95.273027 c 0.253032,-0.252764 10.202687,-0.388128 22.110346,-0.300815 l 21.650288,0.158757 -22.110346,0.300815 c -12.16069,0.165444 -21.90332,0.094 -21.650288,-0.158757 z m 45.116143,-1.548594 c 0.579857,-0.607473 1.160695,-1.020674 1.290746,-0.918234 0.355884,0.280325 -1.20874,2.022721 -1.816346,2.022721 -0.290778,0 -0.05428,-0.49702 0.5256,-1.104487 z m 1.640606,-43.476695 c 0,-23.028591 0.07491,-32.449378 0.16648,-20.935083 0.09157,11.514296 0.09157,30.35587 0,41.870165 -0.09157,11.514295 -0.16648,2.093508 -0.16648,-20.935082 z m -43.869523,27.26079 c -0.153588,-0.24851 5.904315,-0.451836 13.462006,-0.451836 7.55769,0 13.615593,0.203326 13.462005,0.451836 -0.153589,0.24851 -6.21149,0.451836 -13.462005,0.451836 -7.250516,0 -13.308418,-0.203326 -13.462006,-0.451836 z m -0.720288,-27.26079 c 0,-14.413579 0.07863,-20.310042 0.174739,-13.103253 0.09611,7.206789 0.09611,18.999716 0,26.206505 -0.09611,7.20679 -0.174739,1.310326 -0.174739,-13.103252 z m 28.315077,0 c 0,-14.413579 0.07863,-20.310042 0.17474,-13.103253 0.0961,7.206789 0.0961,18.999716 0,26.206505 -0.09611,7.20679 -0.17474,1.310326 -0.17474,-13.103252 z M 45.123733,75.101704 c 3.064956,-0.109338 8.080339,-0.109338 11.145296,0 3.064956,0.109339 0.557264,0.198802 -5.572648,0.198802 -6.129913,0 -8.637604,-0.08946 -5.572648,-0.198802 z M 38.319211,50.247738 c 0,-13.088192 0.07958,-18.442452 0.176836,-11.898356 0.09726,6.544095 0.09726,17.252616 0,23.796712 -0.09726,6.544095 -0.176836,1.189835 -0.176836,-11.898356 z m 24.700385,0 c 0,-13.088192 0.07958,-18.442452 0.176836,-11.898356 0.09726,6.544095 0.09726,17.252616 0,23.796712 -0.09726,6.544095 -0.176836,1.189835 -0.176836,-11.898356 z M 20.25148,39.403666 c 0,-17.064351 0.07713,-24.045222 0.171411,-15.513046 0.09428,8.532175 0.09428,22.493917 0,31.026093 -0.09428,8.532175 -0.171411,1.551304 -0.171411,-15.513047 z M 45.123733,25.098488 c 3.064956,-0.109339 8.080339,-0.109339 11.145296,0 3.064956,0.109339 0.557264,0.198798 -5.572648,0.198798 -6.129913,0 -8.637604,-0.08946 -5.572648,-0.198798 z m -7.889358,-2.111541 c 0.153588,-0.24851 6.21149,-0.451836 13.462006,-0.451836 7.250515,0 13.308416,0.203326 13.462005,0.451836 0.153588,0.24851 -5.904315,0.451836 -13.462005,0.451836 -7.557691,0 -13.615594,-0.203326 -13.462006,-0.451836 z M 20.57396,7.5476675 c 0,-0.6076103 1.742395,-2.1722343 2.02272,-1.8163493 C 22.699122,5.861372 22.285918,6.4422078 21.678449,7.0220644 21.07098,7.601921 20.57396,7.8384422 20.57396,7.5476675 Z M 79.463292,6.7710442 c -0.579856,-0.6074688 -0.816378,-1.1044887 -0.5256,-1.1044887 0.607606,0 2.17223,1.7423943 1.816346,2.0227199 C 80.623987,7.7917169 80.043149,7.378513 79.463292,6.7710442 Z M 36.99068,5.2152969 c 7.538135,-0.095596 19.873266,-0.095596 27.411402,0 7.538136,0.095596 1.37057,0.1738112 -13.705701,0.1738112 -15.076272,0 -21.243837,-0.078215 -13.705701,-0.1738112 z"
         id="path471" />
      <path
         style="fill:#494949;fill-opacity:1;stroke-width:0.602448"
         d="m 38.774272,74.586135 c -0.427247,-0.463602 -0.511022,-0.84291 -0.186167,-0.84291 0.625607,0 1.53126,1.145984 1.173919,1.485439 -0.116016,0.110212 -0.560505,-0.178927 -0.987752,-0.642529 z m 22.76618,0.421292 c 0,-0.625606 1.145984,-1.531255 1.485439,-1.173919 0.110212,0.11602 -0.178927,0.560506 -0.642529,0.987757 -0.463601,0.427244 -0.84291,0.511021 -0.84291,0.186162 z M 38.774272,25.909339 c 0.427247,-0.4636 0.871736,-0.752738 0.987752,-0.642529 0.357341,0.339455 -0.548312,1.48544 -1.173919,1.48544 -0.324855,0 -0.24108,-0.37931 0.186167,-0.842911 z m 23.042632,0.200381 c -0.61815,-1.000188 -0.06332,-1.138883 0.801587,-0.200381 0.427245,0.463601 0.511021,0.842911 0.186163,0.842911 -0.324852,0 -0.769342,-0.289139 -0.98775,-0.64253 z"
         id="path469" />
      <path
         style="fill:#333333;fill-opacity:1;stroke-width:0.602448"
         d="m 6.6408016,97.389325 c -0.7493679,-0.955519 -0.7280591,-0.976827 0.2274576,-0.22746 0.5798566,0.454758 1.0542847,0.929186 1.0542847,1.054285 0,0.495839 -0.4947219,0.176704 -1.2817423,-0.826825 z M 32.02048,98.21615 c 0,-0.125099 0.474428,-0.599527 1.054285,-1.054285 0.955517,-0.749367 0.976825,-0.728059 0.227457,0.22746 -0.78702,1.003529 -1.281742,1.322664 -1.281742,0.826825 z m 1.806853,-3.537842 c 2.71e-4,-0.24851 9.963483,-0.392634 22.140471,-0.32028 12.176989,0.07236 18.615656,0.206676 14.30815,0.298483 -19.866295,0.423413 -36.44907,0.433335 -36.448621,0.02181 z m 46.674116,-44.43057 c 0,-23.028591 0.07492,-32.449378 0.166481,-20.935083 0.09157,11.514296 0.09157,30.35587 0,41.870165 -0.09157,11.514295 -0.166481,2.093508 -0.166481,-20.935082 z M 43.918836,78.113079 c 3.72765,-0.105694 9.82744,-0.105694 13.555089,0 3.72765,0.1057 0.677755,0.192181 -6.777544,0.192181 -7.455299,0 -10.505194,-0.08648 -6.777545,-0.192181 z M 36.538843,50.247738 c 0,-17.537943 0.209808,-26.909363 0.602449,-26.909363 0.39264,0 0.602448,9.37142 0.602448,26.909363 0,17.537941 -0.209808,26.909364 -0.602448,26.909364 -0.392641,0 -0.602449,-9.371423 -0.602449,-26.909364 z m 27.110179,0 c 0,-17.537943 0.209808,-26.909363 0.602448,-26.909363 0.39264,0 0.602448,9.37142 0.602448,26.909363 0,17.537941 -0.209808,26.909364 -0.602448,26.909364 -0.39264,0 -0.602448,-9.371423 -0.602448,-26.909364 z M 39.370351,74.225184 c -1.037967,-1.037964 -1.037967,-46.916926 0,-47.954893 1.017015,-1.017015 21.635045,-1.017015 22.65206,0 1.037964,1.037967 1.037964,46.916929 0,47.954893 -1.017015,1.017017 -21.635045,1.017017 -22.65206,0 z M 60.335555,49.042841 V 27.957147 h -9.639174 -9.639175 v 21.085694 21.085694 h 9.639175 9.639174 z M 50.211379,68.019966 c 0.01228,-0.99404 0.147298,-1.327761 0.300045,-0.741596 0.152746,0.586164 0.142701,1.399469 -0.02232,1.807345 -0.165027,0.407876 -0.290002,-0.07171 -0.277725,-1.065749 z M 6.1151987,72.310868 c 0,-0.125098 0.4744281,-0.599526 1.0542847,-1.054284 0.9555169,-0.749368 0.9768255,-0.728059 0.2274576,0.22746 -0.7870205,1.003528 -1.2817423,1.322663 -1.2817423,0.826824 z M 20.853928,39.403666 c 0,-17.064351 0.07714,-24.045222 0.171411,-15.513046 0.09428,8.532175 0.09428,22.493917 0,31.026093 -0.09427,8.532175 -0.171411,1.551304 -0.171411,-15.513047 z M 43.918836,22.085379 c 3.72765,-0.105698 9.82744,-0.105698 13.555089,0 3.72765,0.105698 0.677755,0.192178 -6.777544,0.192178 -7.455299,0 -10.505194,-0.08648 -6.777545,-0.192178 z M 36.99068,5.8177453 c 7.538135,-0.095596 19.873266,-0.095596 27.411402,0 7.538136,0.095596 1.37057,0.1738112 -13.705701,0.1738112 -15.076272,0 -21.243837,-0.078215 -13.705701,-0.1738112 z"
         id="path467" />
    </g>
  </g>
</svg>
