<?xml version="1.0" encoding="UTF-8" standalone="no"?>
<!-- Created with Inkscape (http://www.inkscape.org/) -->

<svg
   width="100mm"
   height="100mm"
   viewBox="0 0 100 100"
   version="1.1"
   id="svg3853"
   inkscape:version="1.1.1 (3bf5ae0d25, 2021-09-20)"
   sodipodi:docname="add_list_type_device_614be.svg"
   xmlns:inkscape="http://www.inkscape.org/namespaces/inkscape"
   xmlns:sodipodi="http://sodipodi.sourceforge.net/DTD/sodipodi-0.dtd"
   xmlns="http://www.w3.org/2000/svg"
   xmlns:svg="http://www.w3.org/2000/svg">
  <sodipodi:namedview
     id="namedview3855"
     pagecolor="#ffffff"
     bordercolor="#666666"
     borderopacity="1.0"
     inkscape:pageshadow="2"
     inkscape:pageopacity="0.0"
     inkscape:pagecheckerboard="0"
     inkscape:document-units="mm"
     showgrid="false"
     width="100mm"
     inkscape:zoom="0.58974467"
     inkscape:cx="378.97757"
     inkscape:cy="272.9995"
     inkscape:window-width="1440"
     inkscape:window-height="890"
     inkscape:window-x="-6"
     inkscape:window-y="-6"
     inkscape:window-maximized="1"
     inkscape:current-layer="layer1" />
  <defs
     id="defs3850" />
  <g
     inkscape:label="Laag 1"
     inkscape:groupmode="layer"
     id="layer1">
    <g
       id="g3869"
       transform="translate(0.44864142)">
      <path
         style="fill:#d0d0d0;fill-opacity:1;stroke-width:0.602448"
         d="m 19.205378,93.650332 c 0.19584,-0.316876 0.754043,-0.423419 1.240452,-0.236768 1.245329,0.47788 1.098578,0.812907 -0.356073,0.812907 -0.682248,0 -1.080218,-0.259263 -0.884379,-0.576139 z m -6.667911,-2.586715 -1.147657,-1.355509 1.355509,1.147658 c 1.273844,1.078516 1.629768,1.56336 1.147657,1.56336 -0.114319,0 -0.724298,-0.609979 -1.355509,-1.355509 z m 2.088964,-2.108569 c -0.749368,-0.95552 -0.728059,-0.976828 0.227458,-0.227461 0.579856,0.454759 1.054284,0.929187 1.054284,1.054285 0,0.495839 -0.494722,0.176704 -1.281742,-0.826824 z M 33.73263,87.981895 c 0.404619,-1.054417 3.261238,-1.389337 3.261238,-0.382356 0,0.87749 3.468799,0.738825 4.036591,-0.16136 0.552668,-0.876213 5.602583,-2.324204 5.602583,-1.606459 0,0.261017 0.474428,0.587333 1.054285,0.725155 2.312077,0.549524 -2.709428,1.797978 -8.446505,2.099979 -5.274477,0.277656 -5.846829,0.207519 -5.508192,-0.674959 z m 31.174678,-0.710082 c 0,-0.482441 0.225919,-0.877171 0.502045,-0.877171 0.27612,0 0.502038,0.255101 0.502038,0.566892 0,0.311791 -0.225918,0.706521 -0.502038,0.877171 -0.276126,0.170655 -0.502045,-0.08445 -0.502045,-0.566892 z M 10.023459,84.587297 c 0,-1.159713 0.123981,-1.634141 0.275514,-1.054285 0.151532,0.579857 0.151532,1.528713 0,2.10857 -0.151533,0.579856 -0.275514,0.105428 -0.275514,-1.054285 z m 18.675901,0 c 0,-1.159713 0.123981,-1.634141 0.275513,-1.054285 0.151532,0.579857 0.151532,1.528713 0,2.10857 -0.151532,0.579856 -0.275513,0.105428 -0.275513,-1.054285 z m 5.282266,-0.602449 c 0,-0.891003 0.401632,-1.204896 1.541675,-1.204896 0.874374,0 1.380514,0.260763 1.169342,0.602448 -0.217228,0.35148 0.395376,0.602448 1.470567,0.602448 1.705136,0 2.173399,-0.528028 1.869901,-2.108569 -0.06362,-0.331347 0.457035,0.0075 1.157023,0.75306 0.699988,0.74553 1.601022,1.382535 2.002298,1.415561 1.926629,0.158577 -2.700244,1.031983 -5.746728,1.084793 -3.082464,0.05344 -3.464078,-0.07269 -3.464078,-1.144845 z m 23.947324,0.805908 c 0.414183,-0.167126 1.091937,-0.167126 1.506121,0 0.414183,0.167125 0.07531,0.303869 -0.753061,0.303869 -0.828366,0 -1.167244,-0.136744 -0.75306,-0.303869 z m 4.367751,-0.203459 c -1.192597,-0.381934 -1.255302,-0.482344 -0.301225,-0.482344 0.662694,0 1.882652,0.217056 2.711018,0.482344 1.192595,0.381934 1.255304,0.482344 0.301224,0.482344 -0.662693,0 -1.882651,-0.217056 -2.711017,-0.482344 z m 17.42491,-0.753061 c -0.352113,-1.150526 -0.361644,-2.308407 -0.02072,-2.519102 0.235563,-0.145587 0.428299,0.395538 0.428299,1.202506 0,1.21606 -0.220418,1.9281 -0.407563,1.316596 z M 60.376396,82.970861 c 0.434893,-0.174029 0.954505,-0.15263 1.154693,0.04753 0.20019,0.200187 -0.155633,0.342576 -0.790713,0.316418 -0.701818,-0.02892 -0.844573,-0.171662 -0.36398,-0.363976 z m 13.800955,-1.644943 c -1.016915,-0.771477 -1.017855,-0.834035 -0.01838,-1.217578 0.579495,-0.22237 0.860917,-0.211604 0.625384,0.02392 -0.23554,0.235533 -0.126304,0.792069 0.242738,1.236736 0.846181,1.019584 0.529842,1.003541 -0.849759,-0.04308 z M 60.978845,81.163516 c 0.434892,-0.174029 0.954501,-0.15263 1.154695,0.04753 0.200187,0.200188 -0.155637,0.342577 -0.790716,0.316418 -0.701818,-0.02892 -0.844572,-0.171661 -0.363979,-0.363975 z M 32.926999,79.340953 c -0.55717,-1.199716 -0.565016,-1.433863 -0.03012,-0.898973 0.397804,0.397802 1.211264,0.723281 1.807688,0.723281 0.596424,0 1.084407,0.271102 1.084407,0.602449 0,0.331346 0.44867,0.602448 0.997045,0.602448 0.888851,0 0.87588,-0.133882 -0.119529,-1.233796 -0.614115,-0.678592 -1.177785,-1.650866 -1.2526,-2.160615 -0.114973,-0.783364 0.04119,-0.766429 1.008994,0.109416 0.629762,0.569929 1.011442,1.25237 0.848177,1.516538 -0.163264,0.264167 -0.02132,0.65059 0.315431,0.858712 1.295012,0.800358 0.517565,1.511995 -1.646906,1.507494 -1.862489,-0.0036 -2.391473,-0.289554 -3.012584,-1.626954 z m 44.384819,1.481041 c -0.352114,-1.150526 -0.361644,-2.308407 -0.02072,-2.519102 0.235564,-0.145587 0.428299,0.395538 0.428299,1.202506 0,1.21606 -0.220418,1.928099 -0.407562,1.316596 z M 37.596316,77.056692 c -1.463365,-1.49106 -2.525112,-2.711018 -2.359439,-2.711018 0.165674,0 1.498523,1.219958 2.961887,2.711018 1.463365,1.49106 2.525112,2.711018 2.359439,2.711018 -0.165673,0 -1.498522,-1.219958 -2.961887,-2.711018 z m 44.581182,0 c 0.778213,-0.828367 1.550479,-1.506121 1.716153,-1.506121 0.165673,0 -0.335492,0.677754 -1.113704,1.506121 -0.778213,0.828366 -1.55048,1.506121 -1.716153,1.506121 -0.165673,0 0.335491,-0.677755 1.113704,-1.506121 z M 31.572257,76.50168 c -2.34e-4,-0.305254 -0.461878,-1.064912 -1.025877,-1.688121 -0.985716,-1.089208 -0.964773,-1.110041 0.540504,-0.537739 0.861274,0.327461 1.664447,0.496881 1.784827,0.376506 0.12038,-0.120381 0.514686,0.407948 0.876234,1.174064 0.591667,1.253731 0.51582,1.384806 -0.75895,1.31162 -0.778972,-0.0447 -1.416503,-0.331075 -1.416738,-0.63633 z M 61.995476,76.755468 59.585683,76.324 61.694252,76.28087 c 1.159713,-0.02374 2.650773,0.189843 3.313466,0.474615 1.41964,0.610039 0.394893,0.610039 -3.012242,0 z M 39.00432,76.002407 c -0.709918,-1.136386 -0.778127,-2.313342 -0.11014,-1.900502 0.324304,0.200435 0.438409,0.51566 0.253565,0.700503 -0.184843,0.184843 -0.03413,0.699901 0.33491,1.144568 0.369043,0.444673 0.518242,0.808492 0.331552,0.808492 -0.18669,0 -0.551139,-0.338878 -0.809887,-0.753061 z m 1.571806,-1.506121 -2.076137,-2.259182 2.259181,2.07614 c 2.102797,1.93242 2.53618,2.442224 2.076138,2.442224 -0.100674,0 -1.117306,-1.016632 -2.259182,-2.259182 z m -22.107547,0.638999 c 0.579857,-0.151528 1.528713,-0.151528 2.108569,0 0.579857,0.151534 0.105429,0.275518 -1.054284,0.275518 -1.159713,0 -1.634142,-0.123984 -1.054285,-0.275518 z m 41.267716,0.01633 c 0.414183,-0.167125 1.091938,-0.167125 1.506121,0 0.414183,0.167126 0.07531,0.303869 -0.753061,0.303869 -0.828366,0 -1.167243,-0.136743 -0.75306,-0.303869 z M 79.53031,74.254096 c 0.627588,-0.87875 1.261557,-1.481198 1.408819,-1.338773 0.147269,0.142425 -0.36621,0.861405 -1.141061,1.597729 l -1.408826,1.338773 z M 6.380468,71.212605 C -1.6179747,57.169311 0.69929467,39.707525 12.070354,28.336466 20.97285,19.433969 35.107726,15.652399 46.633042,19.089748 c 2.664704,0.79473 2.681779,0.816058 0.99951,1.248505 -1.270525,0.326604 -1.619402,0.705109 -1.354031,1.469023 0.301204,0.867066 0.220587,0.852624 -0.512117,-0.09175 -0.633088,-0.815976 -1.944288,-1.20707 -4.821065,-1.437991 -2.173309,-0.174452 -3.951471,-0.551171 -3.951471,-0.837152 0,-0.878965 -3.645557,-0.575166 -4.604427,0.383705 -0.49702,0.49702 -1.423604,0.903673 -2.059076,0.903673 -0.635471,0 -2.536783,0.524883 -4.225136,1.166407 -1.688354,0.641523 -3.455516,1.018368 -3.927028,0.837432 -0.956153,-0.36691 -3.935446,1.350307 -3.705822,2.135978 0.08075,0.276281 -1.040088,1.498686 -2.490744,2.716454 -1.450656,1.217769 -3.155015,2.871968 -3.787465,3.675999 -0.632451,0.80403 -1.484972,1.333297 -1.894491,1.17615 -0.4095201,-0.157147 -1.2281788,0.532943 -1.8192427,1.533534 -0.608391,1.029924 -0.7940915,1.819256 -0.4280035,1.819256 0.3556614,0 0.00133,1.287733 -0.7873672,2.86163 -0.7887134,1.573896 -1.7631611,3.878261 -2.1654394,5.120811 -0.4022782,1.24255 -0.9599518,2.259182 -1.2392745,2.259182 -0.7619464,0 -1.4291022,3.704939 -0.7458193,4.141784 0.7080524,0.452681 1.3309053,10.858338 0.6742416,11.264179 -0.6601578,0.408 0.6557349,3.8665 1.4848746,3.902629 0.6533259,0.02847 4.3088164,6.860092 4.3088164,8.052608 0,0.303731 -0.3113122,0.656012 -0.6918048,0.782846 C 8.5101677,74.301467 7.380581,72.96855 6.380468,71.2126 Z m 42.863184,2.255898 c 0,-0.482447 0.23034,-0.734812 0.511867,-0.560819 0.281527,0.173993 0.355895,0.568717 0.165262,0.877171 -0.487155,0.788231 -0.677129,0.699478 -0.677129,-0.316352 z M 60.338743,73.31806 c 0.74553,-0.1436 1.965488,-0.1436 2.711018,0 0.74553,0.143593 0.135551,0.261083 -1.355509,0.261083 -1.49106,0 -2.101039,-0.11749 -1.355509,-0.261083 z m -17.00631,-1.367974 c -0.592658,-0.654879 -1.354318,-1.019644 -1.692577,-0.810588 -0.365735,0.226038 -0.429433,0.07982 -0.157153,-0.36074 0.336716,-0.544813 0.839559,-0.382254 1.900429,0.614383 0.79341,0.745367 1.442565,1.443514 1.442565,1.551425 0,0.44645 -0.476319,0.129231 -1.493264,-0.99448 z m 3.633634,0.639698 c -0.193973,-0.313858 -0.09589,-0.729354 0.217968,-0.923325 0.313856,-0.193976 0.729353,-0.09589 0.923327,0.217966 0.193974,0.313858 0.09589,0.729354 -0.217968,0.923325 -0.313856,0.193976 -0.729353,0.09589 -0.923327,-0.217966 z M 27.950271,71.191489 c -3.666045,-1.81381 -7.049417,-5.374051 -8.940716,-9.408093 -2.137216,-4.558567 -2.269867,-12.152322 -0.287551,-16.461078 1.814085,-3.94309 5.773443,-8.01993 9.613389,-9.898641 1.792875,-0.877171 3.408805,-1.835999 3.590957,-2.130727 0.182153,-0.294729 0.587978,-0.377164 0.901834,-0.183191 0.313856,0.193974 0.411941,0.609471 0.217968,0.923327 -0.193974,0.313856 -0.606964,0.413491 -0.917755,0.221412 -0.310791,-0.19208 -0.718327,0.05014 -0.905636,0.538252 -0.187309,0.488118 -0.99711,1.05227 -1.79956,1.253673 -0.802449,0.201401 -1.392811,0.580948 -1.311917,0.843437 0.08089,0.262488 -1.28907,1.879266 -3.044368,3.592838 -1.755297,1.713572 -3.027031,2.849551 -2.826075,2.524398 0.200956,-0.325153 0.08523,-0.591188 -0.257158,-0.591188 -0.858097,0 -2.59248,3.469614 -1.858585,3.718082 0.369504,0.125099 0.382028,0.973054 0.03406,2.306402 -0.30265,1.159714 -0.84073,3.22443 -1.195734,4.588259 -0.881186,3.385285 -0.810071,5.025564 0.235278,5.426703 0.484407,0.185884 1.058076,0.922906 1.274821,1.637825 0.216745,0.71492 1.055384,2.182531 1.863642,3.261354 0.808259,1.078828 1.327352,2.191605 1.153541,2.47284 -0.436295,0.705937 2.43188,3.307797 3.154235,2.861359 0.32139,-0.198634 1.358091,0.04241 2.30378,0.535618 0.945689,0.493219 1.482913,0.898432 1.193831,0.900474 -0.289081,0.0018 -0.182673,0.416912 0.236462,0.921945 1.239337,1.493307 0.39828,1.543424 -2.428747,0.14472 z m 37.096179,0.567796 c 0.226237,-0.594147 0.563102,-0.928506 0.74859,-0.743018 0.185488,0.185488 3.86e-4,0.671603 -0.411339,1.080268 -0.594991,0.590556 -0.664188,0.521359 -0.337251,-0.33725 z M 9.3576499,68.471802 C 6.716226,63.238031 5.6665504,59.002653 5.6665504,53.578433 c 0,-9.345044 2.6175545,-15.608025 9.3276506,-22.31812 6.803196,-6.803197 12.954533,-9.327651 22.728689,-9.327651 2.912503,0 5.295462,0.135551 5.295462,0.301225 0,0.165673 -0.542204,0.843427 -1.204897,1.506121 -0.662693,0.662693 -1.204897,0.933795 -1.204897,0.602448 0,-0.331347 -0.677754,-0.602448 -1.506121,-0.602448 -0.828367,0 -1.506121,-0.271102 -1.506121,-0.602449 0,-0.938993 -2.777494,-0.707535 -3.61469,0.301224 -0.41249,0.49702 -1.326766,0.912524 -2.031725,0.923341 -0.704958,0.01082 -2.705026,0.511361 -4.444596,1.11232 -1.73957,0.60096 -3.162854,0.869023 -3.162854,0.595697 0,-0.273326 -0.677754,-0.188151 -1.506121,0.189278 -0.828367,0.377429 -1.506121,0.933788 -1.506121,1.236353 0,0.907501 -6.769392,6.800667 -7.601179,6.617286 -0.790286,-0.17423 -2.375191,2.141988 -1.835189,2.681989 0.165235,0.165236 -0.490341,1.971954 -1.456835,4.014929 -0.9664946,2.042976 -1.7574768,4.20493 -1.7577383,4.804341 -2.614e-4,0.599412 -0.2528446,0.933867 -0.5612957,0.743234 -1.0900668,-0.673699 -1.2249299,0.806207 -0.6363783,6.983225 0.3272572,3.434653 0.3632541,6.322077 0.079994,6.416498 -0.7929587,0.264319 -0.048242,3.14188 0.8131234,3.14188 0.4181931,0 1.1154699,0.881081 1.5495039,1.957957 0.434033,1.076877 1.400379,2.944804 2.147435,4.150954 0.747056,1.20615 1.192949,2.358333 0.990874,2.560406 -0.993232,0.993233 -2.113185,0.05711 -3.7048741,-3.096669 z m 67.1223191,2.903259 c -0.190639,-0.308454 -0.07108,-0.731107 0.265667,-0.939229 0.336751,-0.208122 0.612275,-0.193663 0.612275,0.03211 0,0.225798 0.474428,0.04314 1.054285,-0.405899 0.858272,-0.664657 0.840915,-0.566362 -0.09337,0.528678 -1.302734,1.526888 -1.363817,1.552944 -1.838853,0.78431 z M 13.780176,68.399888 C 8.6321213,60.620654 8.0067034,50.114075 12.161723,41.211011 c 2.022836,-4.334382 8.416884,-10.712008 12.783176,-12.750345 3.68346,-1.719567 8.555861,-2.913313 11.890996,-2.913313 h 2.192515 l -1.375186,1.28118 c -1.167658,1.087839 -1.84393,1.226424 -4.481349,0.918339 -3.752065,-0.438289 -6.009387,0.04533 -5.568938,1.193122 0.174014,0.453474 -0.01398,0.825659 -0.417764,0.827077 -0.403784,0.0014 -1.923811,0.791835 -3.377838,1.75648 -1.454026,0.964646 -2.958099,1.633249 -3.342382,1.485786 -0.798745,-0.306507 -3.498356,2.334952 -3.228774,3.159223 0.222774,0.681147 -3.689362,6.849797 -4.344115,6.849797 -0.655598,0 -1.960443,3.863974 -1.370603,4.058698 0.258939,0.08548 0.380689,2.056013 0.270558,4.378955 -0.111884,2.359888 -0.444174,4.07277 -0.753061,3.881867 -0.734895,-0.454189 -0.694025,2.795865 0.04963,3.946587 0.321199,0.49702 0.594584,0.632571 0.607523,0.301224 0.0325,-0.832238 3.029832,6.342601 3.271796,7.831829 0.107672,0.662693 0.392285,1.679325 0.632473,2.259182 0.757748,1.82934 -0.217256,1.145405 -1.820202,-1.276811 z m 25.354062,1.780102 c -0.193974,-0.313857 -0.09589,-0.729354 0.217968,-0.923324 0.313856,-0.193977 0.729353,-0.09589 0.923327,0.217966 0.193973,0.313857 0.09589,0.729354 -0.217968,0.923324 -0.313856,0.193976 -0.729353,0.09589 -0.923327,-0.217966 z M 17.68147,67.368026 C 12.276678,59.512433 11.928521,49.188203 16.788735,40.894875 19.809871,35.739696 26.889337,30.836473 32.604842,29.940673 l 2.280456,-0.357419 -1.160542,1.309754 c -0.700952,0.791074 -1.313242,1.06268 -1.546135,0.685852 -0.545446,-0.88255 -4.22148,0.474174 -4.22148,1.558033 0,0.464605 -0.250336,0.844738 -0.556303,0.844738 -0.305967,0 -1.736857,0.901137 -3.179756,2.002527 -1.4429,1.10139 -2.929433,1.900534 -3.303408,1.775875 -0.373975,-0.124658 -1.111899,0.390036 -1.639831,1.143764 -1.027061,1.466334 -1.276377,2.573932 -0.466749,2.073554 0.271221,-0.167623 -0.270983,1.21009 -1.204896,3.061585 -0.933914,1.851495 -1.698025,3.750804 -1.698025,4.220685 0,0.469881 -0.242694,0.704336 -0.539321,0.521011 -0.296626,-0.183326 -0.703279,0.09395 -0.903672,0.616166 -0.547701,1.427286 -0.437906,3.97975 0.155416,3.613057 0.466729,-0.288455 1.368235,4.710148 1.403268,7.78073 0.02162,1.895254 1.162474,4.518363 1.96514,4.518363 0.401365,0 1.601207,1.084407 2.666318,2.409793 l 1.936562,2.409794 h -1.505568 c -1.110413,0 -2.004057,-0.724529 -3.404846,-2.760509 z m 31.688317,2.19969 c -0.190633,-0.308454 -0.116265,-0.703178 0.165262,-0.877171 0.281527,-0.173993 0.511868,0.07837 0.511868,0.560819 0,1.015831 -0.189975,1.104583 -0.67713,0.316352 z M 45.3513,68.471802 c -0.749368,-0.955519 -0.72806,-0.976828 0.227457,-0.22746 0.579857,0.454758 1.054285,0.929186 1.054285,1.054284 0,0.495839 -0.494722,0.176704 -1.281742,-0.826824 z m 28.592735,0.177813 c 0,-1.165967 2.573611,-3.610407 3.027676,-2.875716 0.188844,0.305562 -0.415123,1.28224 -1.342158,2.170393 -1.191571,1.141598 -1.685518,1.348292 -1.685518,0.705323 z m 1.907755,-1.533322 c 0.599731,-0.662693 0.954868,-1.204897 0.789195,-1.204897 -0.165673,0 -0.791912,0.542204 -1.391644,1.204897 -0.599731,0.662693 -0.954868,1.204897 -0.789195,1.204897 0.165673,0 0.791912,-0.542204 1.391644,-1.204897 z m -3.614691,0.602448 c 0.204785,-0.331346 0.491887,-0.602448 0.638005,-0.602448 0.146118,0 0.265668,0.271102 0.265668,0.602448 0,0.331347 -0.287103,0.602449 -0.638005,0.602449 -0.350902,0 -0.470452,-0.271102 -0.265668,-0.602449 z M 28.2206,65.447119 c 0.205626,-0.205621 0.797512,-0.43604 1.315303,-0.512039 0.517791,-0.07599 0.773199,0.03006 0.567574,0.235696 -0.205626,0.205622 -0.797513,0.43604 -1.315304,0.512039 -0.517791,0.07599 -0.773199,-0.03006 -0.567573,-0.235696 z m 3.652456,-6.162655 c 0.204784,-0.331347 0.491885,-0.602449 0.638003,-0.602449 0.146119,0 0.26567,0.271102 0.26567,0.602449 0,0.331346 -0.287102,0.602448 -0.638003,0.602448 -0.350902,0 -0.470454,-0.271102 -0.26567,-0.602448 z m 2.12702,-0.301224 c 0,-0.331347 0.262799,-1.009102 0.583998,-1.506122 0.321199,-0.497019 0.583998,-0.63257 0.583998,-0.301224 0,0.331347 -0.262799,1.009101 -0.583998,1.506121 -0.321199,0.49702 -0.583998,0.632571 -0.583998,0.301225 z M 29.85961,56.272222 c 0,-0.828367 0.13674,-1.167244 0.303867,-0.753061 0.167126,0.414183 0.167126,1.091938 0,1.506121 -0.167127,0.414183 -0.303867,0.07531 -0.303867,-0.75306 z m 9.695978,-2.10857 c 0.0067,-1.325386 0.13006,-1.796653 0.274161,-1.047261 0.144102,0.749394 0.138631,1.833801 -0.01216,2.409794 -0.150789,0.575994 -0.26869,-0.03715 -0.262004,-1.362533 z m 1.807346,-0.602448 c 0.0067,-1.325387 0.130059,-1.796654 0.274161,-1.047261 0.144101,0.749393 0.13863,1.833801 -0.01216,2.409794 -0.150788,0.575993 -0.26869,-0.03715 -0.262003,-1.362533 z m -9.673655,0 c 0.01228,-0.99404 0.147297,-1.327758 0.300044,-0.741595 0.152747,0.586163 0.142702,1.399468 -0.02232,1.807345 -0.165026,0.407877 -0.290001,-0.07171 -0.277724,-1.06575 z m 1.73746,-0.0502 c 0.02891,-0.701818 0.171662,-0.844573 0.363979,-0.36398 0.17403,0.434893 0.152627,0.954505 -0.04756,1.154693 -0.200189,0.200189 -0.342577,-0.155633 -0.316418,-0.790713 z m 4.546107,-2.133674 c -0.502232,-2.511157 -0.01552,-2.997868 0.527143,-0.527142 0.228735,1.041427 0.290304,2.019081 0.136819,2.172566 -0.153486,0.153486 -0.452268,-0.586956 -0.663962,-1.645424 z m 27.77789,0.602998 c 0.408665,-0.411724 0.894781,-0.596828 1.080268,-0.411342 0.185488,0.185486 -0.148871,0.522352 -0.743017,0.74859 -0.85861,0.32694 -0.927807,0.25774 -0.337251,-0.337248 z M 29.85961,50.247738 c 0,-0.828367 0.13674,-1.167244 0.303867,-0.753061 0.167126,0.414183 0.167126,1.091938 0,1.506121 -0.167127,0.414183 -0.303867,0.07531 -0.303867,-0.75306 z m -2.830913,-0.04008 c -0.218408,-0.353392 -0.234408,-0.805229 -0.03556,-1.004082 0.198853,-0.198852 0.361551,-0.02927 0.361551,0.376861 0,0.406126 0.312989,0.544973 0.695532,0.308548 0.430931,-0.266329 0.531999,-0.165261 0.26567,0.265671 -0.532643,0.861832 -0.780993,0.872059 -1.287198,0.053 z m 26.917596,-1.184859 c -0.782237,-0.65167 -1.163132,-1.184854 -0.846432,-1.184854 0.3167,0 1.066506,0.542204 1.666235,1.204897 1.377727,1.522371 1.021186,1.513654 -0.819803,-0.02004 z M 34.924031,46.207193 c -0.326939,-0.858608 -0.25774,-0.927808 0.337248,-0.337247 0.411724,0.408661 0.596828,0.894781 0.411342,1.080267 -0.185486,0.185486 -0.522352,-0.148872 -0.74859,-0.74302 z m 16.628698,0.500468 c -0.643129,-0.407679 -0.606809,-0.58489 0.181902,-0.887547 0.542011,-0.207989 0.834154,-0.133321 0.649207,0.16593 -0.184947,0.299251 0.0043,0.681396 0.420546,0.84921 0.416248,0.167815 0.485713,0.32237 0.154366,0.343455 -0.331346,0.02108 -0.964056,-0.190887 -1.406021,-0.471048 z m -26.349533,-2.20013 c -0.330748,-1.763036 -0.151336,-2.429044 0.978249,-3.631432 0.760803,-0.809838 1.589171,-1.472433 1.840817,-1.472433 0.598264,0 0.02863,3.145909 -0.703607,3.885792 -0.311526,0.31478 -0.56641,1.04431 -0.56641,1.621179 0,2.029573 -1.148757,1.730634 -1.549049,-0.403106 z m 18.340759,1.071231 c -0.764818,-0.975216 -0.736464,-0.988001 0.378069,-0.170473 0.662693,0.486096 1.317856,0.960524 1.455917,1.054285 0.138061,0.09376 -0.03207,0.170473 -0.37807,0.170473 -0.345999,0 -1.001162,-0.474428 -1.455916,-1.054285 z M 81.033081,41.99147 c 0.438673,-0.73046 0.927259,-1.198434 1.085751,-1.03994 0.158492,0.158493 -0.200417,0.756143 -0.797582,1.32811 -1.03738,0.993611 -1.050218,0.980773 -0.288169,-0.28817 z m -32.29147,-1.382907 c 0.599729,-0.662693 1.225968,-1.204897 1.391641,-1.204897 0.165674,0 -0.189463,0.542204 -0.789192,1.204897 -0.599729,0.662693 -1.225968,1.204897 -1.391641,1.204897 -0.165673,0 0.189464,-0.542204 0.789192,-1.204897 z m 0.903673,0.977439 c 0,-0.125102 0.474428,-0.59953 1.054285,-1.054284 0.955517,-0.749368 0.976825,-0.72806 0.227457,0.227457 -0.78702,1.003527 -1.281742,1.322663 -1.281742,0.826827 z m -2.409794,-2.48356 c 0.77821,-0.828366 1.550479,-1.506121 1.716152,-1.506121 0.165673,0 -0.335493,0.677755 -1.113703,1.506121 -0.77821,0.828367 -1.550478,1.506121 -1.716152,1.506121 -0.165673,0 0.335494,-0.677754 1.113703,-1.506121 z m -1.204896,-1.204897 c 1.124038,-1.159713 2.179257,-2.108569 2.34493,-2.108569 0.165673,0 -0.618444,0.948856 -1.742482,2.108569 -1.124038,1.159713 -2.179257,2.10857 -2.34493,2.10857 -0.165674,0 0.618444,-0.948857 1.742482,-2.10857 z m 7.831829,0.973233 c 0,-0.540863 1.810285,-1.472334 2.167398,-1.11522 0.103179,0.103179 -0.342276,0.51851 -0.989899,0.922959 -0.647625,0.404447 -1.177499,0.490965 -1.177499,0.192261 z M 43.394632,38.320213 c -0.18339,-0.296732 0.533766,-1.326528 1.593681,-2.288435 1.059914,-0.961908 1.456336,-1.184719 0.880936,-0.495136 -0.5754,0.689582 -0.903487,1.39648 -0.729084,1.570883 0.174404,0.174404 -0.07197,0.639996 -0.547499,1.034649 -0.475697,0.394794 -1.014578,0.474877 -1.198034,0.178039 z M 86.700126,38.20567 c -0.211061,-0.341504 0.03079,-0.442503 0.566892,-0.236769 1.043694,0.400502 1.234652,0.832317 0.368072,0.832317 -0.311791,0 -0.732529,-0.267997 -0.934964,-0.595548 z M 52.496873,37.521564 c 0.408661,-0.411724 0.894781,-0.596828 1.080267,-0.411342 0.185487,0.185486 -0.148872,0.522352 -0.743019,0.74859 -0.858609,0.32694 -0.927808,0.25774 -0.337248,-0.337248 z M 31.911789,35.96557 c -0.326939,-0.858608 -0.25774,-0.927808 0.337248,-0.337247 0.411724,0.408661 0.596828,0.894781 0.411342,1.080267 -0.185486,0.185486 -0.522352,-0.148872 -0.74859,-0.74302 z m 47.810316,-0.62843 -1.460522,-1.656734 1.656734,1.460525 c 0.911203,0.803288 1.656733,1.548818 1.656733,1.656733 0,0.472484 -0.487863,0.08794 -1.852945,-1.460524 z m -39.49365,0.01353 c 0.619309,-0.72667 1.432615,-1.264201 1.807345,-1.194515 0.37473,0.06968 0.622219,-0.186175 0.549976,-0.568578 -0.07224,-0.382403 0.244866,-1.007512 0.704688,-1.38913 0.645724,-0.535903 0.808461,-0.505946 0.714889,0.1316 -0.167809,1.143355 -2.794347,4.401595 -2.794347,3.466407 0,-0.585845 -0.238866,-0.572481 -1.054284,0.05898 -0.890282,0.68944 -0.879123,0.610919 0.07173,-0.50477 z m 20.110288,0.01314 c 0.74553,-0.143595 1.965488,-0.143595 2.711018,0 0.74553,0.143595 0.135551,0.261083 -1.355509,0.261083 -1.49106,0 -2.101039,-0.117488 -1.355509,-0.261083 z m 22.111634,-2.737686 -2.381448,-2.560406 2.70177,2.409794 c 1.485969,1.325386 2.818886,2.477569 2.962034,2.560405 0.143148,0.08284 -0.0012,0.150612 -0.320322,0.150612 -0.319322,0 -1.652239,-1.152182 -2.962034,-2.560405 z m -45.707973,1.436024 c -0.177414,-0.287063 0.281014,-1.032593 1.01873,-1.656733 1.337794,-1.131832 1.338542,-1.131521 0.285704,0.118986 -0.58058,0.689583 -0.874273,1.435113 -0.652653,1.656734 0.221621,0.22162 0.238212,0.402946 0.03687,0.402946 -0.201343,0 -0.511236,-0.23487 -0.688651,-0.521933 z M 85.18974,30.065718 C 83.726375,28.574658 82.664626,27.3547 82.830299,27.3547 c 0.165673,0 1.498524,1.219958 2.96189,2.711018 1.463365,1.49106 2.525114,2.711018 2.359441,2.711018 -0.165674,0 -1.498525,-1.219958 -2.96189,-2.711018 z m -8.10125,1.557576 c -0.193976,-0.313856 -0.09589,-0.729353 0.217966,-0.923327 0.313857,-0.193973 0.729354,-0.09589 0.923324,0.217968 0.193977,0.313856 0.09589,0.729353 -0.217966,0.923327 -0.313857,0.193974 -0.729354,0.09589 -0.923324,-0.217968 z m -8.92796,-0.72866 c 0.408665,-0.411724 0.89478,-0.596828 1.080268,-0.411342 0.185488,0.185486 -0.148871,0.522351 -0.743018,0.74859 -0.858609,0.326939 -0.927806,0.25774 -0.33725,-0.337248 z M 40.00611,30.139483 c 0,-0.125102 0.474428,-0.59953 1.054284,-1.054285 0.955517,-0.749368 0.976826,-0.728059 0.227458,0.227457 -0.78702,1.003528 -1.281742,1.322663 -1.281742,0.826828 z M 86.597746,29.61388 c -0.794671,-1.27205 -0.828408,-2.523012 -0.04699,-1.741571 0.640222,0.640223 1.182709,2.494631 0.729776,2.494631 -0.116796,0 -0.424063,-0.338877 -0.682809,-0.75306 z M 60.651433,29.347 c 0.586163,-0.152746 1.399469,-0.142701 1.807344,0.02232 0.407876,0.165025 -0.07171,0.29 -1.065749,0.277722 -0.99404,-0.01228 -1.327758,-0.147298 -0.741595,-0.300045 z m 7.946203,-0.827487 c -0.218405,-0.353391 -0.267897,-0.771736 -0.109977,-0.929655 0.157914,-0.157919 0.447656,0.13122 0.643867,0.64253 0.407364,1.061579 0.06019,1.248308 -0.53389,0.287125 z m -7.949385,-0.994672 c 0.915759,-0.138476 2.271267,-0.134775 3.012242,0.0082 0.740976,0.142999 -0.0083,0.256296 -1.665017,0.251774 -1.656733,-0.0045 -2.262984,-0.121522 -1.347225,-0.259997 z m 6.468037,-0.772591 c 0.49702,-0.321199 1.174774,-0.583998 1.506121,-0.583998 0.331347,0 0.195796,0.262799 -0.301224,0.583998 -0.49702,0.321199 -1.174775,0.583998 -1.506121,0.583998 -0.331347,0 -0.195796,-0.262799 0.301224,-0.583998 z m -9.149685,-1.01399 c 0.434892,-0.17403 0.954504,-0.152626 1.154693,0.04756 0.200188,0.200188 -0.155633,0.342577 -0.790714,0.316418 -0.701818,-0.02891 -0.844572,-0.171663 -0.363979,-0.36398 z m 6.626932,0 c 0.43489,-0.17403 0.954501,-0.152626 1.154695,0.04756 0.200188,0.200188 -0.155637,0.342577 -0.790714,0.316418 -0.701822,-0.02891 -0.844572,-0.171663 -0.363981,-0.36398 z m 6.739892,-0.190907 c -0.542981,-0.350902 -0.617287,-0.58768 -0.186169,-0.593223 0.394628,-0.0051 0.885057,0.261876 1.089841,0.593223 0.462259,0.747955 0.253703,0.747955 -0.903672,0 z M 57.603973,23.499546 c 0.427247,-0.463601 0.871735,-0.752739 0.987752,-0.64253 0.357341,0.339455 -0.548312,1.48544 -1.173919,1.48544 -0.324855,0 -0.24108,-0.379309 0.186167,-0.84291 z m 18.596604,-0.713415 c 0.02892,-0.701818 0.171662,-0.844572 0.363976,-0.363979 0.174029,0.434892 0.15263,0.954504 -0.04753,1.154693 -0.200193,0.200188 -0.342576,-0.155633 -0.316418,-0.790714 z M 60.978845,19.713776 c 0.434892,-0.17403 0.954501,-0.152626 1.154695,0.04756 0.200187,0.200188 -0.155637,0.342576 -0.790716,0.316418 -0.701818,-0.02891 -0.844572,-0.171663 -0.363979,-0.36398 z m -1.995611,-1.395804 -1.807345,-0.459891 1.957958,-0.07128 c 1.076876,-0.0392 1.957957,0.199823 1.957957,0.53117 0,0.331347 -0.06778,0.570373 -0.150612,0.53117 -0.08284,-0.0392 -0.963918,-0.27823 -1.957958,-0.53117 z m 4.077992,-0.417491 c 0.586164,-0.152747 1.399469,-0.142702 1.807345,0.02232 0.407876,0.165025 -0.07171,0.29 -1.065749,0.277722 -0.99404,-0.01228 -1.32776,-0.147298 -0.741596,-0.300045 z"
         id="path3875" />
      <path
         style="fill:#b9b9b9;fill-opacity:1;stroke-width:0.602448"
         d="m 17.602559,93.814933 c 0.434893,-0.174029 0.954505,-0.15263 1.154693,0.04753 0.200189,0.200188 -0.155633,0.342576 -0.790713,0.316418 -0.701818,-0.02892 -0.844573,-0.171662 -0.36398,-0.363975 z m 34.473316,-6.293694 c -2.805008,-0.645891 -5.244924,-1.404241 -5.422035,-1.685211 -0.177112,-0.280976 -1.314892,-0.924222 -2.5284,-1.429442 -1.213508,-0.505219 -2.731348,-1.416765 -3.372978,-2.025666 -0.64163,-0.608901 -2.557274,-2.327047 -4.256987,-3.818107 -1.699713,-1.49106 -3.096853,-2.98212 -3.104756,-3.313466 -0.0079,-0.331347 -0.781855,-1.500398 -1.719892,-2.597891 -0.938038,-1.097492 -1.738777,-2.31745 -1.77942,-2.711017 -0.04064,-0.393568 -0.823969,-2.74884 -1.740727,-5.23394 -1.501049,-4.068965 -1.668465,-5.303086 -1.683246,-12.408174 -0.0109,-5.239276 0.22458,-8.180203 0.700947,-8.754215 0.394548,-0.475422 0.843775,-1.533737 0.998282,-2.351811 0.154507,-0.818075 1.051652,-2.79504 1.993657,-4.393258 0.942005,-1.598216 2.019738,-3.450017 2.394962,-4.115113 0.87017,-1.542402 6.215261,-7.136575 6.818816,-7.136575 0.250838,0 1.187379,-0.677755 2.081201,-1.506121 0.893822,-0.828367 1.998452,-1.506121 2.454732,-1.506121 0.456281,0 1.256578,-0.426977 1.778439,-0.948837 1.162099,-1.1621 9.834819,-3.301842 12.881091,-3.178036 2.046827,0.08319 2.079424,0.111075 0.415631,0.355585 -0.992962,0.145925 -1.941819,0.456419 -2.108569,0.689985 -0.561919,0.787078 -9.939178,3.560755 -10.267026,3.03686 -0.374653,-0.598692 -4.269427,1.604939 -4.058493,2.296262 0.186905,0.612567 -6.99122,7.387355 -7.827161,7.387355 -0.966054,0 -3.131148,2.968327 -2.798115,3.836194 0.157668,0.410878 -0.399683,2.299018 -1.23856,4.195867 -0.838877,1.896848 -1.52523,3.834266 -1.52523,4.305374 0,0.471107 -0.364811,1.073356 -0.810692,1.338331 -1.010068,0.600255 -1.724026,4.031783 -0.991297,4.764512 0.298397,0.298397 0.651898,3.5548 0.785558,7.236453 0.238361,6.565639 0.610007,8.382672 1.59059,7.776639 0.269997,-0.166866 0.839077,0.574242 1.264623,1.646907 0.425546,1.072666 1.545384,3.121954 2.488527,4.553968 0.943144,1.43202 1.578983,2.823441 1.412975,3.092048 -0.442493,0.715968 2.104233,3.740645 2.910536,3.456765 0.377922,-0.133057 1.635987,0.497773 2.7957,1.401843 1.159713,0.90407 3.118033,2.182177 4.351822,2.840237 1.233789,0.658055 2.108318,1.331399 1.943398,1.496319 -0.705964,0.705967 1.851225,1.924799 4.154862,1.980327 4.175243,0.100651 10.033164,1.023891 10.033164,1.581288 0,0.93832 4.229905,0.589906 4.601724,-0.379042 0.190729,-0.49702 1.002293,-0.903673 1.803489,-0.903673 0.801196,0 2.873227,-0.497442 4.604519,-1.10542 1.731293,-0.607985 3.468302,-0.998167 3.860026,-0.86708 0.955134,0.319629 4.528581,-1.563101 4.144947,-2.183834 -0.166673,-0.269686 0.773315,-1.355322 2.08887,-2.412528 1.84345,-1.481433 2.391913,-1.694826 2.391913,-0.930615 0,2.609614 -8.447508,7.529491 -15.490841,9.021955 -5.446952,1.1542 -10.832869,1.028927 -17.020576,-0.395881 z m 5.032057,-2.912887 C 52.388937,83.885589 48.263684,82.333134 44.4119,79.830449 27.562663,68.882714 25.15369,45.412143 39.415472,31.150361 52.786816,17.779017 74.619277,19.1565 86.445369,34.117636 c 2.543266,3.217472 2.855744,4.081133 1.476583,4.081133 -0.832698,0 -2.301413,-1.996469 -2.437566,-3.313466 -0.153516,-1.484944 -1.117229,-2.711018 -2.130891,-2.711018 -0.607689,0 -1.255942,-0.244411 -1.440562,-0.543136 -0.184626,-0.298724 -1.832226,-1.53649 -3.661344,-2.750588 -1.829118,-1.214099 -3.193627,-2.421105 -3.032237,-2.682235 0.38109,-0.616617 -2.597842,-1.978393 -3.333378,-1.523806 -0.766886,0.473961 -9.589273,-1.048167 -9.589273,-1.654439 0,-0.702925 -4.078939,-0.597283 -4.317547,0.111821 -0.215963,0.641804 -6.458701,2.513777 -8.936318,2.679681 -1.915814,0.128285 -3.614691,0.901991 -3.614691,1.646209 0,0.915625 -6.224642,6.475469 -7.278191,6.500872 -0.969576,0.02338 -2.549994,2.335318 -2.303584,3.369832 0.07455,0.312977 -0.444119,1.789007 -1.152594,3.280067 -0.708476,1.49106 -1.294091,3.008414 -1.301368,3.371898 -0.0073,0.363484 -0.555434,1.286046 -1.218128,2.050138 -1.177337,1.357481 -1.729046,4.61219 -0.670969,3.958262 0.300559,-0.185755 0.468703,2.366059 0.3847,5.838318 -0.15821,6.539567 0.0017,7.656266 1.103785,7.704666 0.648953,0.0285 4.271148,6.804993 4.331148,8.102811 0.06286,1.35978 1.624105,3.386417 2.384098,3.094778 0.447382,-0.171674 1.125183,0.06351 1.506224,0.522636 0.38104,0.459126 2.027472,1.691229 3.658737,2.738007 1.631264,1.046784 2.965936,2.281629 2.965936,2.74411 0,0.462476 0.474428,0.88322 1.054285,0.934982 0.579856,0.05175 1.732039,0.15539 2.560405,0.23028 4.623374,0.417967 9.31201,1.405127 9.511136,2.002509 0.304654,0.913962 2.25382,0.872803 3.24786,-0.06858 0.926373,-0.877304 9.451163,-3.142016 9.949875,-2.643303 0.496689,0.496689 3.890672,-1.38886 3.535216,-1.964006 -0.492954,-0.797611 4.497416,-4.502289 5.165224,-3.834481 1.318898,1.318898 -7.521707,7.067575 -13.049834,8.485756 -3.637379,0.933133 -9.268806,1.257172 -12.704174,0.731011 z M 54.919206,80.319576 C 47.463212,78.561873 40.117394,72.422647 36.594795,65.005055 32.655524,56.71007 33.246766,46.320806 38.086029,38.801218 44.018638,29.582713 55.414236,24.367681 65.805432,26.115831 c 6.979618,1.174208 13.884225,5.273524 17.658787,10.484156 1.246532,1.720784 1.543172,2.544044 1.03079,2.860715 -0.691045,0.427087 -4.727305,-4.130526 -4.727305,-5.337915 0,-0.899578 -2.885956,-3.302557 -3.506063,-2.919309 -0.698496,0.431694 -7.338008,-2.50885 -7.338008,-3.249897 0,-1.048181 -2.481334,-1.248981 -7.292956,-0.590178 -3.110364,0.425868 -5.06935,0.463059 -5.297563,0.100574 -0.50609,-0.803855 -4.61932,0.660673 -4.428648,1.576834 0.08284,0.398025 -0.188266,0.724842 -0.602449,0.72626 -0.414183,0.0014 -1.942719,0.791835 -3.396745,1.75648 -1.454027,0.964646 -2.958099,1.633249 -3.342382,1.485786 -0.781815,-0.300011 -3.489378,2.315848 -3.259362,3.148967 0.238114,0.862448 -3.340193,6.84187 -4.100114,6.851373 -0.875243,0.01095 -2.270191,3.840161 -1.493276,4.099133 0.727794,0.242598 0.09398,7.53219 -0.699773,8.048148 -0.77787,0.505638 -0.06561,4.095103 0.985462,4.966286 0.853602,0.707508 2.978972,5.976719 3.120898,7.73732 0.08987,1.1148 1.982698,3.505057 2.617851,3.305803 0.67266,-0.211026 6.055542,4.056924 6.079867,4.820569 0.02974,0.933584 3.819007,2.937087 4.079118,2.156753 0.21147,-0.634408 7.556197,1.016963 7.892938,1.774633 0.341336,0.768007 5.431655,0.500851 5.944344,-0.311972 0.515064,-0.816595 4.923088,-2.270929 7.409929,-2.444742 1.964042,-0.137274 4.217139,-1.442249 4.217139,-2.442537 0,-1.039127 2.296111,-3.097693 2.844014,-2.549784 1.368173,1.368172 -4.807954,5.835249 -10.497314,7.592513 -4.149062,1.281516 -10.671612,1.527574 -14.785405,0.557776 z m 0.90158,-3.892527 c -4.681593,-1.260648 -7.798482,-3.044533 -11.115901,-6.361952 -9.389833,-9.389831 -9.153758,-24.564002 0.524563,-33.717355 4.489807,-4.246273 8.904621,-6.14497 15.040693,-6.468613 5.86362,-0.309273 10.956948,1.142721 15.37237,4.382315 3.579574,2.62634 6.192314,6.006096 5.678378,7.345383 -0.488267,1.272405 -1.708369,0.230992 -1.841161,-1.571518 -0.10244,-1.390475 -2.658219,-4.358261 -3.372862,-3.916587 -0.260402,0.160936 -1.461449,-0.37786 -2.668997,-1.197324 -1.207547,-0.819463 -2.721181,-1.656767 -3.363638,-1.860673 -0.642451,-0.203907 -1.021668,-0.607664 -0.842699,-0.897238 0.178964,-0.289575 -0.68617,-0.805804 -1.922521,-1.147178 -1.263726,-0.348931 -2.391485,-0.389606 -2.575828,-0.0929 -0.443216,0.713353 -7.814443,1.090151 -8.039307,0.410948 -0.25186,-0.760747 -4.634722,0.782164 -4.65784,1.639713 -0.02259,0.837904 -5.369,4.333967 -6.463215,4.226351 -0.921338,-0.09061 -3.36205,3.191293 -2.913305,3.917377 0.175893,0.2846 -0.213616,1.563731 -0.865576,2.842512 -0.65196,1.278782 -1.185382,2.682896 -1.185382,3.120255 0,0.437358 -0.380005,0.941019 -0.844454,1.119245 -0.994579,0.381655 -1.900388,4.468595 -1.107631,4.997545 0.704459,0.470036 2.049076,7.250132 1.586323,7.998881 -0.592129,0.958084 1.055652,4.20807 1.957985,3.861813 0.449664,-0.172553 0.817571,-0.08383 0.817571,0.197163 0,0.280994 1.094064,1.638256 2.431254,3.01614 1.337191,1.377884 2.288375,2.736429 2.113742,3.01899 -0.458262,0.741481 2.383495,2.449742 4.01193,2.411685 2.289023,-0.0535 7.362216,1.433538 8.069319,2.365249 0.740381,0.975556 5.547591,0.646999 6.20976,-0.424425 0.433558,-0.701509 5.22827,-2.568641 6.985191,-2.720133 1.742003,-0.150215 4.494879,-2.154386 4.159539,-3.028273 -0.157366,-0.410081 0.265649,-1.244942 0.940024,-1.855246 1.195131,-1.081576 1.226145,-1.078582 1.226145,0.118519 0,2.762992 -7.209114,7.45139 -13.206537,8.588776 -4.167991,0.790442 -6.261122,0.724492 -10.137933,-0.319442 z m -25.812315,-1.629539 -1.147657,-1.355509 1.355509,1.147658 c 1.273844,1.078516 1.629768,1.56336 1.147657,1.56336 -0.114319,0 -0.724298,-0.609979 -1.355509,-1.355509 z M 8.6787924,74.720662 c 0,-0.125099 0.4744281,-0.599527 1.0542847,-1.054285 0.9555169,-0.749367 0.9768259,-0.728059 0.2274574,0.227461 -0.7870199,1.003528 -1.2817421,1.322663 -1.2817421,0.826824 z M 55.306071,72.286385 C 49.664762,70.520729 44.622787,65.452017 42.59869,59.511615 41.217421,55.457816 41.766111,48.422723 43.769473,44.500292 c 1.89017,-3.700811 6.136057,-7.726661 9.960593,-9.444401 4.08323,-1.83393 11.381731,-1.822831 15.461627,0.02351 6.320563,2.860355 10.645052,7.854084 10.08804,11.649238 -0.265752,1.810689 -0.332431,1.864965 -0.785719,0.639603 -0.272427,-0.736443 -0.347799,-1.723437 -0.167487,-2.193319 0.429498,-1.11925 -1.540231,-4.104657 -2.472225,-3.747017 -0.39761,0.152579 -2.272291,-1.199505 -4.165949,-3.004629 -3.08803,-2.943652 -6.973918,-4.869555 -6.986618,-3.46267 -0.0024,0.289928 -1.764782,0.559849 -3.915915,0.599824 -2.151135,0.03997 -3.911155,-0.156642 -3.911155,-0.436926 0,-1.157474 -3.180063,0.832238 -6.339479,3.966506 -1.857045,1.842263 -3.626103,3.195273 -3.931239,3.006688 -0.769062,-0.475306 -3.085899,3.469676 -2.425524,4.13005 0.302638,0.302638 0.296356,1.336604 -0.01471,2.421229 -0.2986,1.041165 -0.542911,2.791897 -0.542911,3.890515 0,1.17825 -0.247085,1.844783 -0.602448,1.625156 -0.926586,-0.572661 -0.724101,3.10575 0.223101,4.052953 0.454053,0.454052 1.30005,1.76115 1.879994,2.904662 0.579944,1.143509 1.454962,2.536454 1.944484,3.095436 0.489523,0.558976 0.736288,1.265099 0.548368,1.569161 -0.521632,0.844018 2.440608,3.340679 3.48716,2.939081 0.503267,-0.193121 1.062453,-0.112598 1.242636,0.178939 0.180182,0.291543 1.679923,0.979244 3.332759,1.528231 1.652836,0.548981 3.005156,1.247466 3.005156,1.552184 0,0.304718 1.499568,0.55403 3.332371,0.55403 2.40636,0 3.428739,-0.251119 3.679147,-0.903673 0.190729,-0.49702 0.667097,-0.903673 1.05861,-0.903673 0.391507,0 1.775331,-0.542203 3.075168,-1.204896 1.299836,-0.662694 2.800957,-1.204897 3.335835,-1.204897 1.126548,0 3.786057,-2.617693 3.22725,-3.1765 -0.206857,-0.20685 0.332871,-1.798802 1.199384,-3.537671 1.529376,-3.069052 1.575481,-3.104347 1.575481,-1.206028 0,2.725822 -1.303728,4.964701 -4.560155,7.831127 -5.062657,4.456329 -12.812662,6.084421 -19.29903,4.054267 z m 18.44112,-9.236619 c -0.0024,-1.076876 0.24725,-1.957957 0.554306,-1.957957 0.30705,0 0.656892,-0.474428 0.777424,-1.054285 0.182891,-0.879863 0.278084,-0.839413 0.575386,0.244497 0.214279,0.781228 -0.09394,1.981586 -0.773453,3.012243 l -1.129693,1.71346 -0.0042,-1.957958 z M 72.878279,59.461058 C 72.551342,58.60245 72.62054,58.53325 73.21553,59.123811 c 0.411725,0.408661 0.596827,0.894781 0.41134,1.080267 -0.185488,0.185486 -0.522353,-0.148873 -0.748591,-0.74302 z M 70.98785,56.805761 c -1.752739,-1.966802 -4.636262,-2.943333 -8.691149,-2.943333 -5.226709,0 -9.459611,-1.982854 -10.917275,-5.114071 -0.456652,-0.980938 -0.374683,-0.953545 0.430508,0.143872 1.122486,1.529869 2.364339,1.832239 1.832454,0.446172 -0.238888,-0.622533 0.228517,-0.4824 1.481954,0.444306 1.43412,1.060291 2.970067,1.434197 7.087504,1.725361 5.98477,0.42321 8.918339,1.571089 10.914196,4.270625 0.760573,1.028729 1.044718,1.661435 0.631438,1.406014 -0.413279,-0.255421 -0.944398,-0.152161 -1.180256,0.229467 -0.294206,0.476037 -0.793172,0.285033 -1.589374,-0.608413 z m -5.076459,-4.14823 c 0,-0.331346 -1.084407,-0.602448 -2.409794,-0.602448 -1.325386,0 -2.409793,0.271102 -2.409793,0.602448 0,0.331347 1.084407,0.602449 2.409793,0.602449 1.325387,0 2.409794,-0.271102 2.409794,-0.602449 z M 50.038317,45.930915 c -0.67413,-2.517712 -0.417396,-3.885492 0.962476,-5.127713 2.058478,-1.853131 3.38135,-2.458436 2.048325,-0.93725 -1.128767,1.288096 -1.506616,4.847891 -0.659978,6.217781 0.304762,0.493114 0.203154,0.580108 -0.308335,0.26399 -0.431023,-0.266387 -0.959299,-0.153689 -1.214398,0.259069 -0.302353,0.489218 -0.575913,0.265942 -0.82809,-0.675877 z m 42.339295,-7.259458 c -1.320488,-1.097345 -4.330971,-5.940197 -3.937337,-6.333835 0.527973,-0.527969 -2.101871,-3.859692 -2.849792,-3.610384 -0.374036,0.124679 -2.273653,-0.946443 -4.221368,-2.380271 -1.947716,-1.433828 -3.782581,-2.606959 -4.07748,-2.606959 -0.294892,0 -0.536173,-0.373763 -0.536173,-0.830584 0,-0.974172 -2.665545,-2.14212 -4.819587,-2.111776 -3.738379,0.05267 -9.690407,-0.911829 -10.32178,-1.672587 -0.381694,-0.459914 -0.587582,-0.928014 -0.457529,-1.040223 0.130055,-0.11221 2.134175,0.0064 4.453601,0.263591 10.69714,1.186129 21.054132,7.887809 26.468685,17.127045 1.727786,2.948244 1.873253,4.504417 0.29876,3.195983 z"
         id="path3873" />
      <path
         style="fill:#a3a3a3;fill-opacity:1;stroke-width:0.602448"
         d="M 15.73556,98.202667 C 7.3211566,95.900766 2.9958763,86.267447 6.8251343,78.357257 11.097639,69.531442 23.243586,67.624211 29.846322,74.742338 39.608538,85.266557 29.554072,101.98296 15.73556,98.202667 Z m 9.400385,-5.959884 c 5.86919,-4.476649 4.937506,-13.202253 -1.748448,-16.374945 -6.399545,-3.03678 -14.1502518,2.567117 -13.351526,9.653392 0.82133,7.286819 9.369894,11.0921 15.099974,6.721553 z m -6.817978,0.385025 c 0,-0.547921 -1.084407,-1.997333 -2.409794,-3.220924 -2.081099,-1.921262 -2.409793,-2.572346 -2.409793,-4.773385 0,-3.571507 2.480162,-6.070686 6.024484,-6.070686 7.151917,0 8.242281,9.693136 1.555256,13.825944 -2.418356,1.494626 -2.760153,1.52423 -2.760153,0.239051 z"
         id="path3871" />
    </g>
  </g>
</svg>
