<?xml version="1.0" encoding="UTF-8" standalone="no"?>
<!-- Created with Inkscape (http://www.inkscape.org/) -->

<svg
   width="100mm"
   height="100mm"
   viewBox="0 0 100 100"
   version="1.1"
   id="svg11638"
   inkscape:version="1.1.1 (3bf5ae0d25, 2021-09-20)"
   sodipodi:docname="default.svg"
   xmlns:inkscape="http://www.inkscape.org/namespaces/inkscape"
   xmlns:sodipodi="http://sodipodi.sourceforge.net/DTD/sodipodi-0.dtd"
   xmlns="http://www.w3.org/2000/svg"
   xmlns:svg="http://www.w3.org/2000/svg">
  <sodipodi:namedview
     id="namedview11640"
     pagecolor="#ffffff"
     bordercolor="#666666"
     borderopacity="1.0"
     inkscape:pageshadow="2"
     inkscape:pageopacity="0.0"
     inkscape:pagecheckerboard="true"
     inkscape:document-units="mm"
     showgrid="false"
     width="100mm"
     inkscape:zoom="0.58974467"
     inkscape:cx="378.97757"
     inkscape:cy="42.391227"
     inkscape:window-width="1440"
     inkscape:window-height="890"
     inkscape:window-x="-6"
     inkscape:window-y="-6"
     inkscape:window-maximized="1"
     inkscape:current-layer="layer1" />
  <defs
     id="defs11635" />
  <g
     inkscape:label="Laag 1"
     inkscape:groupmode="layer"
     id="layer1">
    <g
       id="g11654"
       transform="translate(0.44864124)">
      <path
         style="fill:#d0d0d0;fill-opacity:1;stroke-width:0.610757"
         d="m 60.854921,95.437438 c 0,-0.126824 0.480971,-0.607794 1.068824,-1.068824 0.968697,-0.759702 0.990299,-0.738099 0.230598,0.230597 -0.797877,1.017368 -1.299422,1.340904 -1.299422,0.838227 z M 50.319371,94.04203 c 0.419895,-0.16943 1.106996,-0.16943 1.526892,0 0.419895,0.16943 0.07634,0.30806 -0.763446,0.30806 -0.83979,0 -1.183341,-0.13863 -0.763446,-0.30806 z m -6.069393,-0.623478 c 0.44089,-0.176429 0.967668,-0.154735 1.170617,0.04819 0.202949,0.202949 -0.157779,0.347301 -0.801618,0.320782 -0.711496,-0.02932 -0.856219,-0.174029 -0.368999,-0.368995 z m 1.641408,-1.415056 c -1.669352,-0.424775 -1.696505,-0.469531 -0.305378,-0.5033 0.83979,-0.0204 2.626253,0.190336 3.969918,0.468261 l 2.443026,0.505322 -2.137648,-0.0018 c -1.175706,-0.0013 -2.962169,-0.212024 -3.969918,-0.46845 z m 18.555492,-1.355012 c 0.281168,-1.696022 0.367193,-1.782047 0.559508,-0.559502 0.124985,0.794552 -0.02455,1.696419 -0.332251,2.004143 -0.338836,0.338835 -0.428464,-0.230934 -0.227257,-1.444641 z m -13.364061,0.71431 c -1.029711,-0.349969 -0.532529,-0.404101 1.526891,-0.166242 1.679581,0.193983 3.1683,0.454904 3.308265,0.579822 0.480935,0.429228 -3.309241,0.105032 -4.835156,-0.41358 z m 6.998586,-1.232201 c -0.221419,-0.358264 -0.271593,-0.782379 -0.111496,-0.942477 0.160096,-0.160097 0.453832,0.133029 0.652746,0.65139 0.412984,1.076221 0.06098,1.265524 -0.54125,0.291087 z M 45.586008,89.724562 c -1.175706,-0.138153 -2.390853,-0.498536 -2.700325,-0.800855 -0.812484,-0.793702 3.359003,-0.364169 4.837973,0.498158 0.671832,0.391721 0.946673,0.67659 0.610757,0.633043 -0.335917,-0.04355 -1.572699,-0.192199 -2.748405,-0.330346 z M 50.9683,89.754 c 0.44089,-0.176429 0.967667,-0.154735 1.170617,0.04819 0.202949,0.202948 -0.157779,0.347301 -0.801618,0.320782 -0.711497,-0.02932 -0.85622,-0.174029 -0.368999,-0.368995 z m 2.252165,-0.804287 c 0.207608,-0.335916 1.201989,-0.610756 2.209738,-0.610756 1.065987,0 1.674406,0.255424 1.454801,0.610756 -0.207608,0.335917 -1.20199,0.610757 -2.209738,0.610757 -1.065987,0 -1.674407,-0.255425 -1.454801,-0.610757 z m -3.817229,-1.031769 c 0.587854,-0.153617 1.549795,-0.153617 2.137648,0 0.587853,0.153624 0.106883,0.279317 -1.068824,0.279317 -1.175706,0 -1.656677,-0.125693 -1.068824,-0.279317 z m -3.365905,-1.355885 c -3.752552,-0.777652 -3.422793,-1.351666 0.496105,-0.863574 4.300669,0.535646 5.378092,0.522087 8.21392,-0.10337 1.501991,-0.331274 1.956032,-0.278285 1.526891,0.178188 -0.822165,0.874524 -7.383503,1.380078 -10.236916,0.788756 z m 1.839014,-1.681377 c 0.419895,-0.16943 1.106996,-0.16943 1.526891,0 0.419896,0.16943 0.07635,0.30806 -0.763445,0.30806 -0.83979,0 -1.183341,-0.13863 -0.763446,-0.30806 z m 17.302091,-0.562537 c 0.02932,-0.711501 0.174029,-0.856219 0.368995,-0.369001 0.176429,0.440887 0.154735,0.967665 -0.04819,1.170619 -0.202954,0.202948 -0.3473,-0.157783 -0.320781,-0.801618 z M 44.46418,83.231676 c -3.80773,-0.811793 -3.743468,-1.679751 0.06973,-0.941817 1.418444,0.274499 3.593421,0.511063 4.833281,0.525691 1.239861,0.01466 2.424153,0.301439 2.631761,0.637355 0.490618,0.793837 -3.294931,0.682691 -7.534772,-0.221229 z m 9.140771,-0.324775 c -0.574165,-0.365734 -0.04671,-0.60854 1.67958,-0.773169 1.384134,-0.131997 2.516608,-0.0266 2.516608,0.234206 0,0.260818 -0.389783,0.47421 -0.866183,0.47421 -0.4764,0 -1.232211,0.134531 -1.679581,0.298965 -0.447368,0.164428 -1.190059,0.05906 -1.650424,-0.234212 z M 47.876345,81.8269 c 0.419895,-0.16943 1.106996,-0.16943 1.526891,0 0.419896,0.16943 0.07635,0.308059 -0.763445,0.308059 -0.83979,0 -1.183341,-0.138629 -0.763446,-0.308059 z M 40.71938,81.427795 c -0.05812,-1.490814 1.25651,-2.681148 2.663966,-2.412098 1.330999,0.254435 1.527813,0.05082 1.701207,-1.760139 0.161571,-1.687484 0.464779,-2.06771 1.722968,-2.160637 0.83979,-0.06203 1.074979,0.02125 0.52264,0.185035 -1.396252,0.414056 -1.82536,3.786953 -0.573463,4.507561 0.642856,0.370039 0.07584,0.453187 -1.691704,0.248071 -2.086908,-0.242172 -2.837966,-0.07208 -3.492426,0.790954 -0.45857,0.60471 -0.842505,0.875275 -0.853188,0.601253 z m 17.230642,-0.212922 c -0.421987,-0.170126 -0.608264,-0.566568 -0.413949,-0.88098 0.194317,-0.314411 -0.430227,-0.511948 -1.387875,-0.438981 -2.390413,0.182146 -3.233111,-0.481215 -3.233111,-2.545047 0,-1.44039 -0.301607,-1.805805 -1.679581,-2.034931 -1.255107,-0.208689 -1.139342,-0.257531 0.458067,-0.193255 1.943532,0.0782 2.139654,0.252401 2.159735,1.918282 0.01951,1.618749 0.233035,1.83227 1.83227,1.83227 1.559769,0 1.837806,-0.25347 2.009868,-1.83227 0.109826,-1.007748 0.420516,-2.060509 0.690419,-2.33946 0.269905,-0.278957 0.294176,0.56771 0.05394,1.881484 -0.240239,1.313768 -0.216235,2.98492 0.05334,3.713663 0.269579,0.728742 0.430291,1.303287 0.357137,1.276768 -0.07315,-0.02651 -0.478272,-0.187411 -0.90026,-0.357543 z m -8.241407,-0.609486 c 0.419895,-0.16943 1.106996,-0.16943 1.526891,0 0.419895,0.16943 0.07634,0.308059 -0.763446,0.308059 -0.83979,0 -1.18334,-0.138629 -0.763445,-0.308059 z m 15.540669,-1.733156 c 0.01246,-1.007749 0.14933,-1.346071 0.304181,-0.751823 0.154852,0.594248 0.14467,1.418769 -0.0226,1.832269 -0.167304,0.413501 -0.294,-0.0727 -0.281552,-1.080446 z M 40.841653,76.123826 c 0,-1.175706 0.125691,-1.656677 0.279313,-1.068824 0.153622,0.587854 0.153622,1.549795 0,2.137648 -0.153622,0.587853 -0.279313,0.106883 -0.279313,-1.068824 z m -8.033315,-2.799298 c 0.0293,-0.711501 0.17403,-0.85622 0.368999,-0.369001 0.17643,0.440887 0.154732,0.967664 -0.04822,1.170619 -0.202949,0.202948 -0.347301,-0.157783 -0.320781,-0.801618 z M 26.481855,38.424241 C 23.996545,30.533588 24.459066,25.045829 28.18665,18.197029 31.655638,11.823356 39.22588,6.3383794 45.586008,5.5904228 c 3.184314,-0.3744781 2.825484,-0.1533213 -1.867699,1.1511159 -4.08275,1.1347716 -7.928754,3.6099493 -10.025775,6.4523023 -2.427208,3.289895 -2.132319,3.686602 2.740414,3.686602 2.35597,0 4.760824,-0.245256 5.344119,-0.545012 1.748324,-0.898468 8.161009,-1.760708 11.748776,-1.579723 1.847539,0.0932 4.801989,0.223511 6.565445,0.289584 1.763457,0.06607 3.052731,0.368591 2.865051,0.672263 -0.187679,0.303672 0.224661,0.552131 0.916318,0.552131 0.691658,0 1.25756,0.274841 1.25756,0.610757 0,0.335916 0.687101,0.610756 1.526891,0.610756 0.839791,0 1.526892,-0.155489 1.526892,-0.34553 0,-0.806849 -1.501319,-3.162206 -3.279757,-5.145482 -1.639704,-1.828554 -1.672721,-1.922022 -0.232093,-0.656982 1.185069,1.040631 1.686958,1.218746 1.704627,0.60496 0.03017,-1.048848 4.081637,3.352916 5.738223,6.234408 0.990958,1.723685 1.0157,1.921194 0.152689,1.218801 -0.896578,-0.729713 -1.039269,-0.690179 -1.102232,0.305378 -0.03976,0.628985 -0.03976,1.349739 0,1.601676 0.03976,0.251937 -0.218737,0.458067 -0.574478,0.458067 -0.355741,0 -0.47694,0.27484 -0.269331,0.610757 0.207608,0.335916 0.04062,0.610756 -0.371127,0.610756 -0.411729,0 -0.575039,0.173557 -0.362911,0.385682 0.212128,0.212126 0.120716,0.880772 -0.203125,1.48588 -0.455265,0.850672 -0.332893,1.181422 0.53956,1.458327 0.620602,0.196972 1.446998,1.057457 1.836441,1.91219 0.561011,1.231279 0.548545,1.455744 -0.05998,1.080706 -0.422448,-0.260345 -0.287111,0.262157 0.300743,1.161116 0.587853,0.898958 1.068823,2.056401 1.068823,2.572094 -2.4e-5,0.515693 0.412237,0.937623 0.916111,0.937623 0.503874,0 0.916135,0.291061 0.916135,0.646801 0,0.355741 -0.249207,0.492782 -0.553798,0.304536 -0.30459,-0.188247 -0.425801,0.147196 -0.269362,0.745427 0.156446,0.598232 -0.271683,2.385074 -0.951387,3.97076 -1.181564,2.756481 -1.344043,2.883067 -3.700556,2.883067 H 66.962487 V 40.06486 c 0,-1.357047 -0.569922,-3.584502 -1.266502,-4.9499 -0.696574,-1.365399 -0.988045,-2.310451 -0.647719,-2.100117 1.482544,0.91626 0.252645,-2.273906 -1.550387,-4.021472 -1.657962,-1.606961 -2.134806,-1.794481 -2.915531,-1.146536 -0.513362,0.426052 -1.326399,0.623825 -1.806751,0.439497 -0.480352,-0.184328 -1.02658,0.06412 -1.213841,0.552116 -0.253912,0.661686 -0.94208,0.791058 -2.706818,0.508865 -1.610048,-0.257457 -2.970317,-0.06607 -4.256085,0.598829 -1.182894,0.611697 -2.030327,0.749748 -2.265595,0.369076 -0.2252,-0.36438 -1.492455,0.01524 -3.161531,0.947079 -1.532122,0.855374 -2.936614,1.404289 -3.121093,1.21981 -0.184478,-0.184479 -0.83869,0.120041 -1.453803,0.676711 -0.708731,0.641392 -1.118388,0.745024 -1.118388,0.282918 0,-1.260357 -2.343685,1.374469 -3.336787,3.751296 -0.51618,1.235393 -0.938509,2.942098 -0.938509,3.792677 0,1.464501 -0.17543,1.546508 -3.308265,1.546508 -1.819545,0 -3.402072,0.281424 -3.516726,0.625387 -0.114654,0.343962 -0.96799,-1.786052 -1.896301,-4.733363 z M 48.621906,23.115106 c 1.950313,-0.03988 3.523892,0.227148 3.779942,0.641446 0.312533,0.505688 0.797324,0.385195 1.686009,-0.419054 0.964458,-0.872823 1.439333,-0.969492 2.0939,-0.42625 0.997675,0.827996 1.788848,0.09545 2.816686,-2.607971 0.626311,-1.647322 0.586431,-1.710805 -0.848488,-1.350663 -1.064897,0.267272 -1.676646,0.07242 -2.089658,-0.665594 -0.466291,-0.833214 -0.762476,-0.895351 -1.469778,-0.308342 -0.487195,0.404335 -1.544444,0.712448 -2.349444,0.684696 -6.959355,-0.239929 -11.602079,0.911393 -10.54864,2.615892 0.165619,0.267976 -0.0062,0.487229 -0.381723,0.487229 -0.375565,0 -0.512986,0.27484 -0.305378,0.610757 0.207608,0.335916 0.0177,0.643274 -0.422022,0.683018 -0.43972,0.03974 0.02503,0.265874 1.032779,0.502511 1.007748,0.236637 2.24453,0.248091 2.748404,0.02545 0.503874,-0.22264 2.419709,-0.435547 4.257411,-0.473128 z m 31.214687,6.845706 c 0.02932,-0.711497 0.174029,-0.85622 0.368995,-0.368999 0.176429,0.44089 0.154735,0.967667 -0.04819,1.170617 -0.202954,0.202949 -0.347301,-0.157779 -0.320781,-0.801618 z"
         id="path11670" />
      <path
         style="fill:#b9b9b9;fill-opacity:1;stroke-width:0.610757"
         d="m 40.622051,98.263751 c -0.759702,-0.968697 -0.7381,-0.990299 0.230594,-0.230598 0.587853,0.46103 1.068824,0.942001 1.068824,1.068824 0,0.502677 -0.501545,0.179141 -1.299418,-0.838226 z m -2.059743,-2.71113 -1.221513,-1.264327 1.374202,0.71136 c 0.755811,0.391244 1.374202,0.976526 1.374202,1.300624 0,0.779839 -0.09702,0.732334 -1.526891,-0.747657 z m 13.016749,0.919713 c 0.440889,-0.176429 0.967667,-0.154735 1.170616,0.04819 0.202949,0.202948 -0.157779,0.347301 -0.801617,0.320782 -0.711497,-0.02932 -0.85622,-0.174029 -0.368999,-0.368995 z M 35.836108,92.946382 c -0.756111,-0.911053 -0.398386,-2.164399 0.617756,-2.164399 0.312328,0 0.511004,0.687101 0.441501,1.526891 -0.14852,1.794519 -0.115512,1.774657 -1.059257,0.637508 z m 9.501067,-0.09963 c -0.311893,-0.812782 -0.07866,-0.92088 1.308858,-0.606627 4.721703,1.069385 5.842709,1.16663 5.411831,0.469451 -0.24001,-0.388343 -1.313392,-0.727777 -2.385294,-0.754296 -1.071903,-0.02651 -1.588183,-0.192566 -1.14729,-0.369001 1.496885,-0.598999 6.222076,0.441998 6.222076,1.370776 0,1.362909 -8.884822,1.258763 -9.410181,-0.110303 z m 18.03242,-1.436578 c 0.742839,-3.347398 1.149866,-3.86331 1.149866,-1.457473 0,0.999533 -0.39508,2.350832 -0.877957,3.002888 -0.78371,1.058301 -0.812898,0.892419 -0.271909,-1.545415 z m -22.058883,-0.04534 c -0.669058,-0.45276 -0.421981,-0.50942 0.916135,-0.210106 2.245708,0.502329 2.733205,0.851901 1.170617,0.839417 -0.643839,-0.0051 -1.582877,-0.288332 -2.086752,-0.629311 z m 16.914184,-0.365153 c 0.401024,-0.163139 0.581228,-0.75983 0.400453,-1.325983 -0.271689,-0.850875 -0.219776,-0.875562 0.299389,-0.142392 0.714436,1.008946 0.375615,1.884618 -0.701577,1.813214 -0.560785,-0.03719 -0.560387,-0.116159 0.0017,-0.344839 z M 35.508525,89.56047 c 0.207608,-0.335916 0.498668,-0.610757 0.646802,-0.610757 0.148133,0 0.269333,0.274841 0.269333,0.610757 0,0.335916 -0.291061,0.610757 -0.646801,0.610757 -0.355741,0 -0.476941,-0.274841 -0.269334,-0.610757 z m 4.970565,-0.305378 c 0.193355,-0.503874 0.754042,-0.916135 1.24597,-0.916135 0.775732,0 0.77285,0.121565 -0.02172,0.916135 -0.503875,0.503874 -1.064561,0.916135 -1.245971,0.916135 -0.181409,0 -0.171636,-0.412261 0.02172,-0.916135 z m 6.539443,-0.16204 c -0.387818,-0.246795 0.891429,-0.448717 2.842771,-0.448717 1.951342,0 3.4205,0.206131 3.264794,0.458068 -0.363447,0.588067 -5.180353,0.580695 -6.107565,-0.0093 z m -6.591941,-2.854884 c 0.632787,-0.965759 1.32045,-1.35798 1.954383,-1.114716 0.842274,0.323212 0.814674,0.439336 -0.198783,0.836352 -0.647272,0.253567 -0.902017,0.484556 -0.566101,0.51331 0.335916,0.02877 0.198496,0.318699 -0.305379,0.64433 -1.563732,1.010564 -1.901978,0.674165 -0.88412,-0.879276 z m 17.593035,0.409109 c 0.223973,-0.362392 -0.07711,-0.756532 -0.669078,-0.875855 -0.981109,-0.197769 -0.986241,-0.252462 -0.05802,-0.618415 1.17207,-0.462093 2.059014,1.078327 0.998329,1.733864 -0.393843,0.243411 -0.507622,0.142899 -0.271228,-0.239594 z M 34.688826,85.285174 c 0,-0.83979 0.138625,-1.183341 0.308057,-0.763445 0.169431,0.419895 0.169431,1.106996 0,1.526891 -0.169432,0.419895 -0.308057,0.07634 -0.308057,-0.763446 z M 50.9683,86.089473 c 0.44089,-0.176429 0.967667,-0.154735 1.170617,0.04819 0.202949,0.202948 -0.157779,0.347301 -0.801618,0.320782 -0.711497,-0.02932 -0.85622,-0.174029 -0.368999,-0.368995 z m -4.886052,-0.610756 c 0.44089,-0.176429 0.967667,-0.154735 1.170617,0.04819 0.202949,0.202948 -0.157779,0.3473 -0.801618,0.320781 -0.711497,-0.02932 -0.85622,-0.174029 -0.368999,-0.368995 z m 12.940404,-0.97641 c -0.863145,-0.70099 -1.610535,-2.881672 -0.987642,-2.881672 0.158081,0 0.698745,0.824521 1.201476,1.83227 0.502731,1.007748 0.866412,1.823529 0.808178,1.812847 -0.05823,-0.01069 -0.518138,-0.354239 -1.022012,-0.763445 z M 40.404139,83.218649 c 1.278115,-1.950646 1.643586,-2.045723 0.981252,-0.255266 -0.273193,0.738515 -0.841324,1.45762 -1.262513,1.598014 -0.491639,0.163885 -0.390947,-0.31683 0.281261,-1.342748 z M 51.982466,82.86882 c 0.198541,-0.321246 0.764442,-0.429258 1.257558,-0.240034 1.262503,0.484471 1.113729,0.824119 -0.360982,0.824119 -0.691657,0 -1.095116,-0.262839 -0.896576,-0.584085 z M 39.645941,79.968026 c -0.02793,-1.994182 0.03481,-2.104399 0.449902,-0.790417 0.414064,1.310726 0.921657,0.689886 0.661307,-0.808843 -0.0481,-0.276905 0.194934,-0.328935 0.540082,-0.115623 0.412775,0.255107 0.424954,0.740946 0.03558,1.4196 -1.463146,2.550214 -1.654828,2.583763 -1.686875,0.295283 z m 19.352514,1.318073 c -0.864602,-1.041779 -0.899047,-5.704844 -0.04842,-6.555469 0.309262,-0.309263 0.342519,0.527986 0.07835,1.97259 -0.370371,2.025397 -0.229816,2.801235 0.728111,4.019041 1.271201,1.616074 0.556451,2.147707 -0.758043,0.563838 z M 45.644981,79.751916 c 0.360862,-0.223024 0.632639,-0.580903 0.603948,-0.795279 -0.211164,-1.577853 0.03417,-3.443567 0.452813,-3.443567 0.277738,0 0.384338,0.821974 0.236888,1.826614 -0.218203,1.486716 3.69e-4,1.928555 1.174603,2.37445 1.25581,0.476867 1.146889,0.541063 -0.840836,0.495562 -1.255941,-0.02877 -1.988278,-0.234751 -1.627416,-0.45778 z m 5.772137,0.283971 c 0.351824,-0.146741 0.527886,-1.224408 0.391247,-2.394813 -0.151849,-1.300692 0.01499,-2.128004 0.429145,-2.128004 0.372667,0 0.677577,0.810865 0.677577,1.801921 0,1.071786 0.433083,2.05417 1.068823,2.424453 0.868419,0.50581 0.668013,0.616974 -1.068823,0.592886 -1.175707,-0.01631 -1.849793,-0.149703 -1.497969,-0.296443 z m 8.21629,-0.960073 c 0,-0.727814 0.191182,-1.132123 0.424849,-0.898453 0.660113,0.660112 0.7528,2.221761 0.131866,2.221761 -0.306193,0 -0.556715,-0.595488 -0.556715,-1.323308 z M 48.525274,75.095856 c 0.44089,-0.176429 0.967667,-0.154735 1.170617,0.04819 0.202949,0.202954 -0.157779,0.3473 -0.801618,0.320781 -0.711497,-0.02932 -0.85622,-0.174029 -0.368999,-0.368995 z M 74.025452,35.382169 c -0.331445,-0.870449 -0.261293,-0.940603 0.341902,-0.341899 0.417403,0.414297 0.605058,0.907121 0.417012,1.095165 -0.188046,0.188044 -0.529556,-0.150926 -0.758914,-0.753266 z m -0.9554,-2.338166 c 0,-0.515693 -0.480971,-1.673136 -1.068824,-2.572094 -0.587853,-0.898959 -0.723191,-1.421461 -0.300743,-1.161116 0.608546,0.375038 0.621012,0.150573 0.05998,-1.080706 -0.389443,-0.854733 -1.215839,-1.715218 -1.836441,-1.91219 -0.872454,-0.276905 -0.994825,-0.607655 -0.539561,-1.458327 0.323842,-0.605108 0.415253,-1.273754 0.203125,-1.48588 -0.212103,-0.212125 -0.04879,-0.385682 0.362936,-0.385682 0.41173,0 0.578735,-0.27484 0.371127,-0.610756 -0.207609,-0.335917 -0.08641,-0.610757 0.269331,-0.610757 0.355741,0 0.614256,-0.20613 0.574478,-0.458067 -0.220209,-1.394635 0.177821,-2.39213 0.954527,-2.39213 0.485215,0 0.855028,0.160323 0.821809,0.356275 -0.03323,0.195951 0.367498,1.318216 0.890483,2.493922 1.158471,2.604322 1.959924,8.576841 1.43278,10.677167 -0.416261,1.658505 -2.195004,2.144998 -2.195004,0.600341 z M 24.868503,25.685516 c 0.02931,-0.711496 0.17403,-0.856219 0.368999,-0.368999 0.17643,0.44089 0.154732,0.967668 -0.04822,1.170617 -0.202949,0.202949 -0.347301,-0.157779 -0.320781,-0.801618 z M 25.47926,23.24249 c 0.0293,-0.711496 0.17403,-0.856219 0.368999,-0.368999 0.17643,0.44089 0.154731,0.967668 -0.04822,1.170617 -0.20295,0.202949 -0.347301,-0.157779 -0.320782,-0.801618 z m 16.136831,0.320291 c -1.007749,-0.236637 -1.472499,-0.462767 -1.032779,-0.502511 0.439719,-0.03974 0.62963,-0.347102 0.422022,-0.683018 -0.207608,-0.335917 -0.07019,-0.610757 0.305378,-0.610757 0.375566,0 0.547342,-0.219253 0.381723,-0.487229 -1.053439,-1.704499 3.589285,-2.855821 10.54864,-2.615892 0.805,0.02775 1.862249,-0.280361 2.349444,-0.684696 0.707302,-0.587009 1.003487,-0.524872 1.469778,0.308342 0.413012,0.738013 1.024761,0.932866 2.089658,0.665594 1.434919,-0.360142 1.474799,-0.296659 0.848488,1.350663 -1.027838,2.70342 -1.819011,3.435967 -2.816686,2.607971 -0.654567,-0.543242 -1.129442,-0.446573 -2.0939,0.42625 -0.888685,0.804249 -1.373476,0.924742 -1.686009,0.419054 -0.464156,-0.751021 -6.435567,-0.876074 -8.037353,-0.168319 -0.503874,0.222639 -1.740656,0.211185 -2.748404,-0.02545 z M 26.058594,21.461117 c -0.0097,-1.105733 3.476759,-6.693636 4.951107,-7.935466 l 1.445042,-1.217143 -1.353599,1.539954 c -0.744479,0.846975 -2.182412,3.043732 -3.195408,4.881683 -1.012994,1.83795 -1.844208,3.066888 -1.847142,2.730972 z M 63.47037,10.471659 C 60.183913,7.8699334 54.899783,5.889454 51.212595,5.8774729 49.629594,5.8723291 47.922152,5.6016972 47.418278,5.2760687 46.751752,4.8453266 47.25097,4.6814914 49.250547,4.6747476 54.92829,4.6555985 66.35173,9.3468544 66.35173,11.697678 c 0,1.12525 0.191833,1.206875 -2.88136,-1.226019 z m -29.794114,0.301218 c 0.607999,-0.671832 1.242874,-1.2215126 1.410832,-1.2215126 0.167958,0 -0.192076,0.5496806 -0.800076,1.2215126 -0.607999,0.671833 -1.242874,1.221514 -1.410832,1.221514 -0.167958,0 0.192076,-0.549681 0.800076,-1.221514 z M 72.095889,9.3986753 70.932404,8.0244731 72.306606,9.187957 c 0.755812,0.6399158 1.374203,1.258307 1.374203,1.374202 0,0.48876 -0.491531,0.127927 -1.58492,-1.1634837 z"
         id="path11668" />
      <path
         style="fill:#a3a3a3;fill-opacity:1;stroke-width:0.610757"
         d="m 39.20902,95.343235 c -0.652057,-0.493192 -0.89184,-0.896713 -0.532851,-0.896713 0.358988,0 0.994852,0.412261 1.41303,0.916135 0.951073,1.145975 0.651883,1.139372 -0.880179,-0.01942 z m 21.645901,-0.516553 c 0,-0.126824 0.480971,-0.607795 1.068824,-1.068824 0.968697,-0.759702 0.990299,-0.7381 0.230598,0.230597 -0.797877,1.017368 -1.299422,1.340904 -1.299422,0.838227 z m -5.556744,-1.638715 c -1.007225,-0.622502 -0.72966,-0.896469 1.434138,-1.415569 1.986753,-0.476622 2.052832,-0.359962 0.533133,0.941249 -0.707062,0.6054 -1.461035,0.787192 -1.967271,0.47432 z m -13.04888,-0.787149 c -1.017577,-0.744073 -0.939137,-0.796604 0.806876,-0.540343 1.063717,0.156122 2.084306,0.52701 2.267978,0.824198 0.524233,0.848225 -1.822968,0.631547 -3.074854,-0.283855 z m 7.77632,0.400943 c 0.594246,-0.154851 1.418767,-0.14467 1.83227,0.02266 0.413501,0.167305 -0.0727,0.294 -1.080448,0.281553 -1.007749,-0.01246 -1.346069,-0.14933 -0.751822,-0.304181 z m 12.971881,-2.000692 c 0.38033,-2.491856 1.187537,-3.519222 1.856327,-2.362638 0.277937,0.480653 0.243472,0.605571 -0.08375,0.303613 -0.3205,-0.295747 -0.882109,0.480311 -1.325958,1.83227 l -0.769969,2.345317 z m -25.962081,0.555624 c 0,-0.355742 0.27484,-0.47694 0.610756,-0.269332 0.335916,0.207609 0.610757,0.498671 0.610757,0.646804 0,0.148133 -0.274841,0.269331 -0.610757,0.269331 -0.335916,0 -0.610756,-0.291062 -0.610756,-0.646803 z m 2.430777,-1.505607 c -0.828968,-0.998843 -0.4936,-1.67164 0.937994,-1.881753 0.672672,-0.09873 0.748275,0.134861 0.309189,0.955303 -0.31966,0.597289 -0.407643,1.259539 -0.195518,1.471667 0.212125,0.212121 0.236108,0.38568 0.05329,0.38568 -0.182812,0 -0.680045,-0.4189 -1.104959,-0.930897 z m 19.07431,-0.620925 c -0.650555,-0.7362 -0.623999,-0.891204 0.152689,-0.891204 0.517119,0 0.940215,-0.274841 0.940215,-0.610757 0,-0.335916 -0.216353,-0.610756 -0.480785,-0.610756 -0.264431,0 -0.521013,-0.534052 -0.570181,-1.186773 -0.06015,-0.798461 0.19709,-1.076844 0.786162,-0.85079 0.963462,0.369715 0.959567,0.359344 1.089767,2.901692 0.103258,2.01626 -0.749129,2.571187 -1.917867,1.248588 z M 48.193347,88.526465 c 0.594246,-0.154851 1.418768,-0.14467 1.83227,0.02266 0.413502,0.167305 -0.0727,0.294 -1.080448,0.281553 -1.007748,-0.01246 -1.346068,-0.14933 -0.751822,-0.304181 z m -8.976186,-2.219831 c 0.171125,-0.445944 0.02591,-1.561014 -0.322701,-2.477931 -0.35093,-0.923018 -0.380893,-1.510792 -0.06713,-1.316876 0.98036,0.605894 1.404986,-0.897874 0.551003,-1.951319 -0.58188,-0.717791 -0.596967,-0.875018 -0.05258,-0.547958 0.559977,0.336423 0.782704,-0.242739 0.835707,-2.173096 0.06606,-2.40585 0.109195,-2.47448 0.502512,-0.799493 0.236637,1.007748 0.203376,2.296561 -0.07391,2.864027 -0.300079,0.614103 -0.242828,1.193271 0.141431,1.430758 0.429696,0.265569 0.323415,0.890709 -0.317805,1.869336 -0.890458,1.359007 -0.774505,1.74142 0.465114,1.533946 0.266323,-0.04458 0.187942,0.472555 -0.174178,1.149187 -0.726259,1.357028 -1.983265,1.711462 -1.48746,0.419419 z m 8.697356,-0.827917 c 0.44089,-0.176429 0.967668,-0.154735 1.170617,0.04819 0.202949,0.202948 -0.157779,0.3473 -0.801618,0.320781 -0.711496,-0.02932 -0.856219,-0.174029 -0.368999,-0.368995 z m 11.315026,-1.834413 c -0.217382,-0.609145 -0.504556,-1.310519 -0.638165,-1.558608 -0.133609,-0.24809 0.16236,-0.295545 0.657708,-0.105466 1.140882,0.437803 1.738151,1.929563 0.964091,2.407963 -0.323618,0.200004 -0.766253,-0.134745 -0.983634,-0.743889 z M 48.487102,82.411119 c 0.755811,-0.14558 1.992593,-0.14558 2.748404,0 0.755811,0.145574 0.13742,0.264683 -1.374202,0.264683 -1.511623,0 -2.130014,-0.119109 -1.374202,-0.264683 z m 10.555387,-2.585687 c -0.35896,-0.67072 -0.398571,-1.329885 -0.09133,-1.519776 0.298414,-0.18443 0.673304,0.348571 0.833092,1.184447 0.348999,1.825673 0.112952,1.932378 -0.741762,0.335329 z M 49.839815,79.21776 c 0.347735,-0.649747 0.632245,-1.645341 0.632245,-2.212429 0,-0.84726 -0.163322,-0.895528 -0.916134,-0.270748 -0.503875,0.418179 -0.916135,1.299256 -0.916135,1.957951 0,0.686649 -0.325728,1.089046 -0.763446,0.943142 -0.419895,-0.139967 -0.763446,-1.056102 -0.763446,-2.035853 0,-1.619647 0.202179,-1.792619 2.226888,-1.905188 2.110582,-0.11735 2.239639,-0.0146 2.471032,1.967461 0.162692,1.393569 -0.03657,2.198992 -0.597259,2.41415 -1.597469,0.613004 -2.019961,0.34898 -1.373745,-0.858486 z M 38.664101,76.938166 c -0.719598,-0.719593 -0.434025,-2.443026 0.40481,-2.443026 0.521311,0 0.714459,0.510153 0.539556,1.425103 -0.298426,1.561118 -0.347876,1.614419 -0.944366,1.017923 z m 21.580064,-0.850387 c 0,-0.833188 -0.257627,-1.109298 -0.763446,-0.818212 -0.419895,0.24164 -0.54936,0.204097 -0.2877,-0.08343 1.04871,-1.152363 2.076028,-0.75208 1.798312,0.700703 -0.342363,1.790958 -0.747166,1.899825 -0.747166,0.200938 z M 24.363552,30.011708 c 0.0068,-1.343664 0.131853,-1.82143 0.277942,-1.061703 0.146089,0.759728 0.140542,1.85909 -0.01233,2.443026 -0.152868,0.583937 -0.272396,-0.03766 -0.265617,-1.381323 z M 67.540366,12.14708 65.435595,9.8567427 67.725932,11.961512 c 2.131797,1.959073 2.571157,2.475905 2.104771,2.475905 -0.102063,0 -1.132715,-1.030652 -2.290337,-2.290337 z m -35.69638,-0.152689 c 0.608,-0.671833 1.242874,-1.221514 1.410833,-1.221514 0.167958,0 -0.192077,0.549681 -0.800076,1.221514 -0.608,0.671832 -1.242875,1.221513 -1.410833,1.221513 -0.167958,0 0.192077,-0.549681 0.800076,-1.221513 z m 23.39961,-6.5247821 c 0.44089,-0.1764296 0.967667,-0.1547317 1.170617,0.048217 0.202949,0.2029493 -0.157779,0.3473008 -0.801618,0.3207811 -0.711497,-0.029306 -0.85622,-0.1740289 -0.368999,-0.3689981 z"
         id="path11666" />
      <path
         style="fill:#8c8c8c;fill-opacity:1;stroke-width:0.610757"
         d="m 60.244165,95.093326 c 0,-0.316091 0.271692,-0.742631 0.603761,-0.947858 0.346213,-0.213972 0.448605,0.03121 0.240034,0.57471 -0.406026,1.058087 -0.843795,1.251678 -0.843795,0.373148 z m -23.61592,-5.200611 c 0,-0.4891 0.233518,-0.744945 0.518927,-0.568553 0.285409,0.176393 0.360803,0.57656 0.167541,0.889268 -0.493873,0.799101 -0.686468,0.709125 -0.686468,-0.320715 z m 27.844487,-1.706447 c -0.386328,-1.262324 -0.344339,-2.354021 0.101129,-2.629338 0.305995,-0.189114 0.556356,0.359473 0.556356,1.219089 0,1.243189 -0.427792,2.160765 -0.657485,1.410249 z M 35.203147,86.776019 c 0,-0.5237 0.279324,-0.779545 0.620719,-0.568554 0.341396,0.210992 0.462596,0.639475 0.269334,0.952182 -0.523565,0.847144 -0.890053,0.689184 -0.890053,-0.383628 z m 14.505468,-1.28458 c 0.419895,-0.16943 1.106996,-0.16943 1.526891,0 0.419895,0.16943 0.07634,0.308059 -0.763446,0.308059 -0.83979,0 -1.18334,-0.138629 -0.763445,-0.308059 z m -14.286306,-4.98447 c -0.02342,-0.56319 -0.272055,-1.56466 -0.552513,-2.225486 -0.443564,-1.045151 -0.391436,-1.090824 0.400565,-0.350984 0.979694,0.91517 1.355496,2.882942 0.635556,3.32789 -0.24256,0.14991 -0.460183,-0.188229 -0.483608,-0.75142 z m 3.215451,0.173919 c -0.589367,-1.535863 -0.415504,-1.932158 0.304483,-0.694027 0.356493,0.613047 0.519508,1.243293 0.362258,1.400544 -0.157251,0.157252 -0.457284,-0.160683 -0.666741,-0.706517 z m 25.404535,-0.18628 C 63.474768,80.134487 63.422175,79.591635 63.85089,78.519 c 0.32513,-0.813473 0.644006,-1.341619 0.708612,-1.173661 0.1,0.259951 0.374974,3.681964 0.293719,3.655189 -0.01564,-0.0049 -0.380526,-0.232808 -0.810926,-0.50592 z M 48.639791,78.602899 c 0,-0.652007 0.279323,-1.358102 0.620719,-1.569094 0.341395,-0.210992 0.438495,-0.708185 0.215777,-1.104871 -0.310642,-0.553284 -0.223816,-0.553871 0.372851,-0.0024 0.474768,0.438718 0.624116,1.331022 0.383342,2.290337 -0.461232,1.837626 -1.592689,2.111941 -1.592689,0.386071 z M 38.566632,77.352333 c -0.213972,-0.346214 0.03119,-0.448601 0.574711,-0.240034 1.058085,0.406025 1.251677,0.843797 0.373145,0.843797 -0.316092,0 -0.742627,-0.271695 -0.947856,-0.603763 z m 20.95226,0.186549 c 0.440889,-0.176429 0.967667,-0.154735 1.170616,0.04819 0.202949,0.202954 -0.157779,0.3473 -0.801618,0.320781 -0.711496,-0.02932 -0.856219,-0.174029 -0.368998,-0.368994 z M 28.179447,10.162121 c 0.608,-0.6718322 1.242874,-1.2215131 1.410832,-1.2215131 0.167958,0 -0.192076,0.5496809 -0.800075,1.2215131 -0.608,0.671832 -1.242875,1.221513 -1.410833,1.221513 -0.167958,0 0.192076,-0.549681 0.800076,-1.221513 z"
         id="path11664" />
      <path
         style="fill:#767676;fill-opacity:1;stroke-width:0.610757"
         d="m 57.801139,98.491221 c 0,-0.126824 0.480971,-0.607795 1.068824,-1.068824 0.968694,-0.759702 0.990296,-0.738099 0.230594,0.230597 -0.797874,1.017368 -1.299418,1.340904 -1.299418,0.838227 z m 1.593273,-3.326535 c -0.215427,-0.348564 -0.09408,-0.817693 0.269668,-1.0425 0.907645,-0.560955 1.228967,-0.114822 0.623221,0.865295 -0.324521,0.525086 -0.639279,0.587554 -0.892889,0.177205 z m 2.478292,-3.421916 c -0.18393,-0.479309 0.130216,-1.221867 0.698101,-1.650123 0.851474,-0.642113 0.907023,-0.636891 0.3168,0.02974 -0.393645,0.444631 -0.570368,1.187189 -0.392723,1.65013 0.177651,0.462935 0.185578,0.841708 0.01765,0.841708 -0.167958,0 -0.455868,-0.392167 -0.639798,-0.871482 z m -22.146912,-1.113476 -1.163484,-1.374202 1.374202,1.163485 c 1.291411,1.093388 1.652244,1.584919 1.163484,1.584919 -0.115895,0 -0.734286,-0.618391 -1.374202,-1.374202 z m 19.29686,0.532848 c 0,-0.126823 0.480971,-0.607794 1.068824,-1.068824 0.968694,-0.759701 0.990296,-0.738099 0.230594,0.230598 -0.797873,1.017367 -1.299418,1.340903 -1.299418,0.838226 z M 35.901387,88.405951 c -0.605039,-0.383372 -0.638239,-0.642742 -0.123032,-0.96116 0.398677,-0.246397 0.489266,-0.744537 0.208252,-1.145168 -0.79946,-1.139752 -0.550252,-3.027783 0.440643,-3.338371 0.50245,-0.157484 0.709799,-0.06787 0.460777,0.199155 -0.249023,0.267017 -0.14666,0.854326 0.227473,1.305126 0.407742,0.491299 0.437712,0.819641 0.07482,0.819641 -0.332984,0 -0.509425,0.824522 -0.39209,1.83227 0.237706,2.04157 0.254218,2.017848 -0.896838,1.288507 z m 27.396561,-3.673365 c 0,-2.330384 0.311302,-4.121263 0.801617,-4.611578 0.661651,-0.661651 0.784957,-0.280795 0.706188,2.181274 -0.05246,1.64059 -0.159402,3.051602 -0.237591,3.135581 -0.07819,0.08398 -0.237932,0.658842 -0.354984,1.277477 -0.479999,2.536893 -0.91523,1.594014 -0.91523,-1.982754 z m -26.88264,-3.875397 c -0.0077,-1.138028 -0.120701,-1.216755 -0.657254,-0.458067 -0.526986,0.74516 -0.603604,0.752281 -0.410543,0.03817 0.431085,-1.594532 1.687906,-1.433464 1.687906,0.216312 0,0.867781 -0.13742,1.577786 -0.305379,1.577786 -0.167958,0 -0.309587,-0.618391 -0.31473,-1.374203 z M 63.368795,78.45021 c -0.08881,-1.294627 0.917827,-1.975724 1.508209,-1.020464 0.264952,0.428696 0.17806,0.551996 -0.216953,0.307864 -0.362393,-0.223977 -0.785238,0.07711 -0.939655,0.669078 -0.250997,0.962228 -0.288259,0.966839 -0.351601,0.04355 z m -27.86027,-0.494114 c 0.207608,-0.335916 0.498668,-0.610757 0.646802,-0.610757 0.148133,0 0.269333,0.274841 0.269333,0.610757 0,0.335916 -0.291061,0.610756 -0.646801,0.610756 -0.355741,0 -0.476941,-0.27484 -0.269334,-0.610756 z m 24.221319,-1.83227 c 0,-0.83979 0.138625,-1.18334 0.308057,-0.763445 0.169431,0.419895 0.169431,1.106996 0,1.526891 -0.169432,0.419895 -0.308057,0.07635 -0.308057,-0.763446 z m 1.221513,0 c 0,-0.83979 0.138625,-1.18334 0.308057,-0.763445 0.169431,0.419895 0.169431,1.106996 0,1.526891 -0.169432,0.419895 -0.308057,0.07635 -0.308057,-0.763446 z M 20.593208,34.236108 c 0.0293,-0.711497 0.174029,-0.85622 0.368999,-0.368999 0.17643,0.44089 0.154731,0.967667 -0.04822,1.170617 -0.202949,0.202949 -0.347301,-0.157779 -0.320781,-0.801618 z m 0,-6.718322 c 0.0293,-0.711497 0.174029,-0.85622 0.368999,-0.368999 0.17643,0.44089 0.154731,0.967667 -0.04822,1.170617 -0.202949,0.202949 -0.347301,-0.157779 -0.320781,-0.801618 z"
         id="path11662" />
      <path
         style="fill:#606060;fill-opacity:1;stroke-width:0.610757"
         d="m 50.166682,99.332574 c 0.207608,-0.335916 0.757289,-0.610756 1.221513,-0.610756 0.464225,0 1.013906,0.27484 1.221513,0.610756 0.214931,0.347765 -0.311051,0.610757 -1.221513,0.610757 -0.910462,0 -1.436444,-0.262992 -1.221513,-0.610757 z m -8.933875,-1.068823 c -0.759702,-0.968697 -0.738099,-0.990299 0.230595,-0.230598 0.587853,0.46103 1.068823,0.942001 1.068823,1.068824 0,0.502677 -0.501544,0.179141 -1.299418,-0.838226 z m -0.185271,-2.053242 c 0.230819,-0.373477 0.04091,-0.918944 -0.422022,-1.212162 -0.576694,-0.365275 -0.608095,-0.536067 -0.09974,-0.542474 0.408076,-0.0051 1.036137,0.54033 1.395691,1.212162 0.526663,0.984076 0.464474,1.221513 -0.319934,1.221513 -0.558862,0 -0.794879,-0.289291 -0.553999,-0.679039 z m -3.197777,-3.322405 c 0,-0.456981 0.205559,-0.70383 0.456798,-0.548557 0.25124,0.155272 0.567375,-0.04941 0.702523,-0.454855 0.152673,-0.458019 0.388746,-0.505749 0.623415,-0.126048 0.207731,0.336117 -0.108404,0.914693 -0.702522,1.285728 -0.834345,0.521055 -1.080214,0.48549 -1.080214,-0.156268 z m -0.610757,-2.995389 c 0,-0.4891 0.233517,-0.744945 0.518927,-0.568553 0.285409,0.176393 0.360802,0.57656 0.16754,0.889268 -0.493873,0.799101 -0.686467,0.709125 -0.686467,-0.320715 z m 24.889713,-0.02687 c 0.0636,-1.156907 1.081503,-3.104994 1.116952,-2.137648 0.01844,0.503875 -0.232845,1.328396 -0.558476,1.83227 -0.325631,0.503874 -0.576945,0.641294 -0.558476,0.305378 z m -25.144194,-1.67958 c -0.324581,-0.973742 -0.242585,-2.777098 0.116188,-2.555363 0.257255,0.158992 0.426738,0.833347 0.376629,1.498565 -0.07825,1.038835 -0.323502,1.564746 -0.492817,1.056798 z M 36.794185,83.34911 c 0.296937,-0.480452 0.108655,-0.586779 -0.574712,-0.324544 -1.114403,0.427633 -1.465943,-1.053964 -0.405569,-1.709312 0.335916,-0.207609 0.610756,-0.07019 0.610756,0.305378 0,0.375566 0.217787,0.548246 0.483972,0.383738 0.266185,-0.164513 0.523944,0.231526 0.572799,0.880088 0.04885,0.648563 -0.185153,1.1792 -0.520017,1.1792 -0.334864,0 -0.410117,-0.321545 -0.167229,-0.714548 z m 27.459163,-1.549447 c -0.331445,-0.87045 -0.261294,-0.940602 0.341901,-0.341901 0.417404,0.4143 0.605059,0.90712 0.417013,1.095165 -0.188046,0.188046 -0.529557,-0.150924 -0.758914,-0.753264 z m -1.469725,-1.400544 c 0,-0.83979 0.13863,-1.183341 0.30806,-0.763446 0.16943,0.419895 0.16943,1.106997 0,1.526892 -0.16943,0.419895 -0.30806,0.07634 -0.30806,-0.763446 z M 36.472878,78.21058 c 0.0293,-0.711501 0.174029,-0.85622 0.368999,-0.369001 0.176429,0.440887 0.154731,0.96767 -0.04822,1.170619 -0.202949,0.202948 -0.347301,-0.157783 -0.320781,-0.801618 z M 20.593208,32.403838 c 0.0293,-0.711496 0.174029,-0.856219 0.368999,-0.368999 0.17643,0.44089 0.154731,0.967668 -0.04822,1.170617 -0.202949,0.202949 -0.347301,-0.157779 -0.320781,-0.801618 z"
         id="path11660" />
      <path
         style="fill:#494949;fill-opacity:1;stroke-width:0.610757"
         d="m 52.609708,99.332574 c -0.207607,-0.335916 -0.08641,-0.610756 0.269334,-0.610756 0.35574,0 0.646801,0.27484 0.646801,0.610756 0,0.335917 -0.1212,0.610757 -0.269333,0.610757 -0.148134,0 -0.439194,-0.27484 -0.646802,-0.610757 z m 2.137648,-0.264158 c 0,-1.130681 0.773034,-1.612 1.684379,-1.048754 0.48845,0.301878 0.336451,0.671991 -0.487228,1.186388 -0.982278,0.613444 -1.197151,0.588739 -1.197151,-0.137634 z M 41.616091,98.111061 c -0.608,-0.671832 -0.830614,-1.221513 -0.494698,-1.221513 0.335916,0 1.108211,0.549681 1.716211,1.221513 0.607999,0.671833 0.830613,1.221513 0.494697,1.221513 -0.335916,0 -1.108211,-0.54968 -1.71621,-1.221513 z m 0.305378,-2.443026 c -0.359554,-0.671832 -0.567724,-1.221513 -0.462602,-1.221513 0.105123,0 0.661783,0.549681 1.237024,1.221513 0.575241,0.671832 0.783411,1.221513 0.462602,1.221513 -0.32081,0 -0.87747,-0.549681 -1.237024,-1.221513 z m 16.538644,-0.967029 c 0.0293,-0.711501 0.174029,-0.856219 0.368999,-0.369001 0.176429,0.440887 0.154731,0.967665 -0.04822,1.170619 -0.202949,0.202948 -0.347301,-0.157783 -0.320781,-0.801618 z m -19.897805,-0.86524 c -0.207608,-0.335916 -0.08641,-0.610757 0.269333,-0.610757 0.355741,0 0.646802,0.274841 0.646802,0.610757 0,0.335916 -0.1212,0.610756 -0.269333,0.610756 -0.148134,0 -0.439194,-0.27484 -0.646802,-0.610756 z m 17.406561,0.380159 c 0,-0.126824 0.480971,-0.607794 1.068824,-1.068824 0.968694,-0.759702 0.990297,-0.738099 0.230594,0.230597 -0.797873,1.017368 -1.299418,1.340904 -1.299418,0.838227 z m 5.18099,-1.525468 c 0.347919,-1.12993 0.263413,-1.34033 -0.382194,-0.951583 -0.679848,0.409365 -0.689718,0.327225 -0.0549,-0.456858 0.425691,-0.525782 0.61107,-1.471771 0.411953,-2.1022 -0.298092,-0.943796 -0.25308,-0.979666 0.254855,-0.203095 0.669373,1.02339 0.534136,4.019181 -0.213359,4.726358 -0.254674,0.240937 -0.262035,-0.214742 -0.01636,-1.012622 z M 37.281573,88.008971 c 0.06911,-0.470893 0.360905,-1.070259 0.648427,-1.331919 0.287523,-0.261661 0.339572,-0.155664 0.115666,0.235538 -0.223907,0.391202 -0.07574,0.821736 0.329267,0.956738 0.481218,0.160403 0.397599,0.375456 -0.241325,0.620632 -0.631804,0.242446 -0.933238,0.07228 -0.852035,-0.480989 z m 24.998445,-1.170038 c 0,-0.4891 0.233517,-0.744946 0.518929,-0.568553 0.285407,0.176392 0.360805,0.57656 0.167537,0.889267 -0.49387,0.799102 -0.686466,0.709125 -0.686466,-0.320714 z M 37.366877,84.716621 c -0.193262,-0.312707 -0.117868,-0.712875 0.167541,-0.889268 0.285409,-0.176392 0.518926,0.07945 0.518926,0.568554 0,1.029839 -0.192594,1.119816 -0.686467,0.320714 z m 25.041021,0 c -0.193268,-0.312707 -0.11787,-0.712875 0.167537,-0.889268 0.285412,-0.176392 0.518929,0.07945 0.518929,0.568554 0,1.029839 -0.192596,1.119816 -0.686466,0.320714 z M 37.200159,81.578322 c -0.105658,-1.402639 0.182232,-1.526036 0.659374,-0.282628 0.189227,0.493119 0.138264,1.023763 -0.113249,1.179206 -0.251514,0.155444 -0.49727,-0.248016 -0.546125,-0.896578 z m -3.732846,-8.508278 c 0,-0.839791 0.138625,-1.183341 0.308057,-0.763446 0.169431,0.419895 0.169431,1.106996 0,1.526891 -0.169432,0.419895 -0.308057,0.07635 -0.308057,-0.763445 z M 75.667099,30.011708 c 0.0068,-1.343664 0.131856,-1.82143 0.277943,-1.061703 0.146087,0.759728 0.140541,1.85909 -0.01234,2.443026 -0.152867,0.583937 -0.272398,-0.03766 -0.265618,-1.381323 z m 3.558738,-4.326192 c 0.02932,-0.711496 0.174029,-0.856219 0.368994,-0.368999 0.176429,0.44089 0.154735,0.967668 -0.04819,1.170617 -0.202955,0.202949 -0.347301,-0.157779 -0.320782,-0.801618 z M 68.716848,12.757836 c -0.759702,-0.968694 -0.738099,-0.990296 0.230597,-0.230594 1.017368,0.797873 1.340904,1.299418 0.838227,1.299418 -0.126823,0 -0.607794,-0.480971 -1.068824,-1.068824 z m 3.085463,-3.0537824 -1.480663,-1.6795805 1.67958,1.4806656 c 0.923769,0.8143663 1.679581,1.5701773 1.679581,1.6795803 0,0.479001 -0.494591,0.08915 -1.878498,-1.4806654 z"
         id="path11658" />
      <path
         style="fill:#333333;fill-opacity:1;stroke-width:0.610757"
         d="m 43.393467,98.490567 c -1.38938,-1.221348 -1.54536,-1.566633 -0.71453,-1.581719 1.004291,-0.01826 1.005225,-0.0866 0.01696,-1.240813 -0.575241,-0.671832 -1.505088,-1.221513 -2.066326,-1.221513 -0.561239,0 -1.178633,-0.41226 -1.371988,-0.916135 -0.193355,-0.503874 -0.06539,-0.916134 0.284363,-0.916134 0.349754,0 0.06629,-0.724168 -0.629925,-1.609258 -2.548027,-3.239288 -1.160677,-2.466767 2.856764,1.590746 4.485301,4.530042 6.310623,5.311083 10.311382,4.412172 1.789058,-0.401976 3.294704,-1.465663 5.751791,-4.063443 l 3.328347,-3.518928 0.06642,-7.23716 c 0.05138,-5.59751 0.293527,-7.583764 1.068826,-8.767019 0.551318,-0.841421 1.00646,-2.57018 1.011426,-3.841683 0.01588,-4.066331 1.807497,-10.118763 4.386111,-14.81713 2.307475,-4.204339 4.515897,-9.673532 7.034779,-17.421763 1.34033,-4.122923 1.29649,-10.783763 -0.09848,-14.963535 C 68.38889,3.6788122 44.605679,-1.7328237 31.392394,12.539101 c -5.516517,5.958497 -7.637352,12.078789 -6.960457,20.086445 0.25333,2.996886 0.990501,5.882447 2.216239,8.675179 1.010157,2.301552 1.833574,4.550832 1.829814,4.998402 -0.0038,0.44757 1.662103,4.111849 3.701916,8.142842 3.355034,6.630078 3.743279,7.79508 4.070782,12.215131 0.199118,2.687329 0.717962,5.435733 1.152988,6.107565 0.865987,1.337386 1.471264,8.85597 0.712942,8.85597 -0.470001,0 -0.712875,-1.417554 -0.505165,-2.948427 0.0605,-0.445932 -0.456613,-0.958955 -1.149149,-1.140057 -0.692537,-0.181101 -1.259157,-0.709485 -1.259157,-1.174179 0,-0.464694 -0.247855,-0.844902 -0.550788,-0.844902 -0.302933,0 -0.733495,-1.717753 -0.956802,-3.817229 -0.600685,-5.647476 -1.948105,-9.922942 -4.95638,-15.72698 -6.214209,-11.98943 -7.77301,-17.588009 -7.482279,-26.873288 0.200998,-6.419411 0.391416,-7.387271 2.213245,-11.249525 2.651393,-5.62092 8.827952,-11.6712031 15.058227,-14.750372 l 4.493269,-2.22069429 7.847817,0.21977159 c 7.814074,0.2188266 7.867328,0.2302578 12.385329,2.6586109 5.930898,3.1877639 11.555905,8.4328668 13.66671,12.7436858 3.289761,6.718576 3.570232,17.98803 0.625152,25.119032 -0.832394,2.015497 -1.886193,4.991862 -2.341781,6.614146 -0.455582,1.622283 -1.817941,4.61087 -3.027465,6.641304 -2.781654,4.669576 -4.373817,9.424041 -4.928555,14.717486 -0.239392,2.284389 -0.814022,4.532193 -1.276945,4.995122 -0.462929,0.462923 -0.841684,1.152369 -0.841684,1.532107 0,0.379732 -0.275353,0.520248 -0.611899,0.312249 -1.003845,-0.620406 -1.893082,2.71036 -2.055091,7.697591 -0.106229,3.270234 -0.482381,5.183924 -1.248889,6.353761 -0.603282,0.920728 -0.746822,1.457699 -0.318977,1.193278 0.559525,-0.345805 0.663036,-0.181438 0.36873,0.585508 -0.225044,0.586454 -0.40917,1.181221 -0.40917,1.321707 0,0.14048 -0.54968,0.255425 -1.221513,0.255425 -1.331316,0 -1.693543,1.571605 -0.458067,1.987432 1.443882,0.485967 -0.835321,2.416525 -2.481431,2.101851 -1.088238,-0.208029 -1.567617,0.02443 -1.787959,0.867024 -0.323255,1.236127 -1.380108,1.596947 -1.380108,0.471181 0,-0.444051 -0.688892,-0.538028 -1.984959,-0.270792 -5.597549,1.154188 -6.313667,1.110078 -8.147417,-0.501895 z M 37.340795,85.895931 c -0.207608,-0.335916 -0.08641,-0.610757 0.269333,-0.610757 0.355741,0 0.646802,0.274841 0.646802,0.610757 0,0.335916 -0.1212,0.610756 -0.269333,0.610756 -0.148134,0 -0.439194,-0.27484 -0.646802,-0.610756 z"
         id="path11656" />
    </g>
  </g>
</svg>
