<?xml version="1.0" encoding="UTF-8" standalone="no"?>
<!-- Created with Inkscape (http://www.inkscape.org/) -->

<svg
   version="1.1"
   id="svg1261"
   width="216"
   height="216"
   viewBox="0 0 216 216"
   sodipodi:docname="add_list_type_device_7111.svg"
   inkscape:version="1.1.1 (3bf5ae0d25, 2021-09-20)"
   xmlns:inkscape="http://www.inkscape.org/namespaces/inkscape"
   xmlns:sodipodi="http://sodipodi.sourceforge.net/DTD/sodipodi-0.dtd"
   xmlns="http://www.w3.org/2000/svg"
   xmlns:svg="http://www.w3.org/2000/svg">
  <defs
     id="defs1265" />
  <sodipodi:namedview
     id="namedview1263"
     pagecolor="#505050"
     bordercolor="#ffffff"
     borderopacity="1"
     inkscape:pageshadow="0"
     inkscape:pageopacity="0"
     inkscape:pagecheckerboard="1"
     showgrid="false"
     inkscape:zoom="3.0648148"
     inkscape:cx="107.83686"
     inkscape:cy="108"
     inkscape:window-width="1440"
     inkscape:window-height="890"
     inkscape:window-x="-6"
     inkscape:window-y="-6"
     inkscape:window-maximized="1"
     inkscape:current-layer="g1267" />
  <g
     inkscape:groupmode="layer"
     inkscape:label="Image"
     id="g1267">
    <g
       id="g1271">
      <path
         style="fill:#d0d0d0;fill-opacity:1"
         d="m 96.5,202.07898 c 25.55743,-0.62054 29.51259,-1.15396 27.40308,-3.69576 C 123.2717,197.62245 122.37304,197 121.90607,197 c -0.46697,0 -3.44937,-1.17907 -6.62756,-2.62015 -5.53332,-2.50896 -5.66462,-2.65306 -3.09451,-3.39586 4.491,-1.29797 23.63895,-3.21144 24.82172,-2.48045 0.6097,0.37681 2.09534,0.8195 3.30141,0.98374 1.20608,0.16424 5.11787,1.01515 8.69287,1.89089 3.575,0.87575 8.75,1.63445 11.5,1.686 2.75,0.0516 4.4375,0.3207 3.75,0.59811 -1.95709,0.78971 -1.55691,6.11087 0.5,6.64839 0.9625,0.25153 -0.95,0.54703 -4.25,0.65666 -3.3,0.10964 -7.125,0.40905 -8.5,0.66537 -1.375,0.25631 -20.05,0.59816 -41.5,0.75966 -29.214289,0.21995 -32.727108,0.14132 -14,-0.31338 z m 37,-16.60649 c -3.853,-2.37449 -4.44101,-2.44176 -16,-1.83044 -15.54158,0.82196 -32.018266,-0.31265 -30.5328,-2.10253 0.757295,-0.91248 2.239571,-1.03769 5.292357,-0.44705 5.092464,0.98527 23.171113,1.1387 30.496673,0.25881 4.64533,-0.55796 5.11023,-0.81846 4,-2.24131 -0.69093,-0.88548 0.54781,-0.035 2.75275,1.89003 2.20494,1.925 5.12994,4.2639 6.5,5.19755 3.78047,2.57627 2.02456,2.06883 -2.50898,-0.72506 z M 119.10355,164.04723 C 117.72747,157.63079 117.66922,148.32247 119,147.5 c 0.6293,-0.38893 1,1.90848 1,6.19758 0,3.7486 0.44565,8.36951 0.99033,10.26869 0.57592,2.00813 0.61925,3.82415 0.10355,4.33985 -0.51571,0.51571 -1.34856,-1.26643 -1.99033,-4.25889 z m -23.758473,1.40964 c -0.325685,-0.84872 -0.368713,-1.76657 -0.09562,-2.03966 0.273094,-0.2731 0.736558,0.42131 1.029919,1.54313 0.62315,2.38293 -0.06922,2.75089 -0.934299,0.49653 z m 1.73387,-3.0402 c 0.04798,-1.16495 0.284941,-1.4019 0.604167,-0.60417 0.288871,0.72187 0.253344,1.58437 -0.07895,1.91667 -0.332292,0.33229 -0.568641,-0.25834 -0.52522,-1.3125 z m 1.09576,-9.09335 c -0.134898,-3.9971 -0.573466,-5.28088 -1.924707,-5.63399 -1.640089,-0.4286 -1.638118,-0.46461 0.03139,-0.57333 2.308655,-0.15034 2.935136,1.63994 2.45641,7.0196 L 98.349414,158.5 Z M 143.14254,133.25 c 8.70419,-8.95548 12.9511,-14.53319 16.72061,-21.96016 3.3749,-6.64945 2.48371,-6.36658 -1.94705,0.61803 -6.3179,9.95947 -19.17623,21.03843 -27.4161,23.62219 -1.1,0.34493 0.7,-0.87055 4,-2.70106 9.15558,-5.07859 19.52519,-15.95856 23.92147,-25.0988 3.82486,-7.952214 6.5438,-18.435322 6.5438,-25.2302 0,-6.774425 -2.71483,-17.269442 -6.50635,-25.152355 C 154.188,48.468047 144.44514,37.973588 136,33.15617 c -3.025,-1.725571 -5.00727,-3.141625 -4.40504,-3.146786 1.81183,-0.01553 13.17723,7.708284 18.71823,12.720708 l 5.18681,4.692028 -5,-5.313057 c -2.75,-2.922181 -8.33774,-7.854658 -12.4172,-10.96106 -4.07946,-3.106402 -7.52257,-6.404346 -7.65136,-7.328764 -0.15044,-1.079904 0.26682,-1.488521 1.16721,-1.143011 C 132.36939,22.97199 133,23.64239 133,24.166006 c 0,0.523615 0.41545,0.695264 0.92323,0.381441 2.2003,-1.359862 17.68806,9.831467 23.61398,17.063267 2.16152,2.637853 3.30402,4.409196 2.53889,3.936319 -1.05791,-0.653823 -1.2455,-0.403117 -0.78314,1.046595 6.21765,19.495246 8.00085,28.233922 7.93913,38.906372 -0.0857,14.82509 -4.15753,26.52679 -14.09264,40.5 -2.54187,3.575 -4.50195,6.87095 -4.35574,7.32433 0.14622,0.45338 -0.19531,0.53932 -0.75893,0.19098 C 147.46115,133.16697 147,133.47839 147,134.20735 147,135.41974 137.21551,142 135.41276,142 c -0.42608,0 3.05232,-3.9375 7.72978,-8.75 z M 156,40.622445 c 0,-0.207656 -0.7875,-0.995156 -1.75,-1.75 C 152.66394,37.628574 152.62857,37.663944 153.87244,39.25 155.17881,40.915748 156,41.445479 156,40.622445 Z M 102.78352,139.2616 c 2.90594,-0.20265 7.40594,-0.20052 10,0.005 2.59406,0.20525 0.21648,0.37104 -5.28352,0.36844 -5.5,-0.003 -7.622415,-0.17053 -4.71648,-0.37317 z m -7.97102,-0.94471 c 0.721875,-0.28887 1.584375,-0.25335 1.916667,0.0789 0.332291,0.33229 -0.258334,0.56864 -1.3125,0.52522 -1.164943,-0.048 -1.4019,-0.28494 -0.604167,-0.60416 z M 120,138 c 3.41917,-1.09501 6.04822,-1.09501 3.5,0 -1.1,0.47269 -2.9,0.8462 -4,0.83003 -1.60779,-0.0236 -1.50973,-0.1864 0.5,-0.83003 z m -34.5,-2.20443 c -7.573125,-3.2401 -16.629024,-10.00691 -23.333615,-17.43552 l -6.024597,-6.67519 0.957745,4.26261 c 1.135889,5.05548 2.877525,8.60224 6.473335,13.18265 1.45502,1.85343 -0.09172,0.55809 -3.437192,-2.87854 -5.678733,-5.83347 -10.955433,-13.49429 -8.063764,-11.70714 0.806112,0.49821 0.982665,0.35288 0.506771,-0.41713 C 51.50253,112.38606 51.004671,100 52.010835,100 c 0.473444,0 2.282073,2.8125 4.019175,6.25 7.243192,14.33334 16.883044,23.23473 31.812479,29.37549 3.111631,1.27987 4.982511,2.32304 4.157511,2.31816 -0.825,-0.005 -3.75,-0.97152 -6.5,-2.14808 z m 20.75,0.5151 c 0.9625,-0.25152 2.5375,-0.25152 3.5,0 0.9625,0.25153 0.175,0.45733 -1.75,0.45733 -1.925,0 -2.7125,-0.2058 -1.75,-0.45733 z m -8.5,-0.97295 c 0.6875,-0.27741 1.8125,-0.27741 2.5,0 0.6875,0.27741 0.125,0.50439 -1.25,0.50439 -1.375,0 -1.9375,-0.22698 -1.25,-0.50439 z m 18,0 c 0.6875,-0.27741 1.8125,-0.27741 2.5,0 0.6875,0.27741 0.125,0.50439 -1.25,0.50439 -1.375,0 -1.9375,-0.22698 -1.25,-0.50439 z m -26.748013,-1.64674 c -0.0011,-0.44496 -0.45184,-0.53099 -1.001661,-0.19118 -1.821852,1.12597 -13.164824,-5.8243 -18.954911,-11.61439 C 58.836313,111.67631 53,97.283359 53,82.315754 53,67.515765 58.636591,53.733038 68.768638,43.757904 74.178455,38.431869 85.124956,30.968355 87.441172,31.026648 c 0.582355,0.01466 -1.639029,1.477157 -4.93641,3.25 -12.046923,6.477053 -22.474814,19.832276 -25.97357,33.264906 -1.962765,7.535565 -1.962765,21.381327 0,28.916892 3.27723,12.582134 11.368045,23.526114 23.036698,31.160424 3.262661,2.13462 6.083045,4.22143 6.26752,4.63736 0.184476,0.41593 0.695003,0.53399 1.134506,0.26236 0.439502,-0.27162 2.538567,0.13887 4.664589,0.91221 L 95.5,134.83687 92.251987,134.66844 c -1.786407,-0.0926 -3.248907,-0.5325 -3.25,-0.97746 z m 31.810513,0.62591 c 0.72187,-0.28887 1.58437,-0.25335 1.91667,0.0789 0.33229,0.33229 -0.25834,0.56864 -1.3125,0.52522 -1.16495,-0.048 -1.4019,-0.28494 -0.60417,-0.60416 z m 8.27083,-2.68144 c 0.22917,-0.2005 1.54167,-0.90032 2.91667,-1.55516 2.35727,-1.12265 2.38918,-1.10183 0.55887,0.36454 -1.593,1.27626 -4.84786,2.39128 -3.47554,1.19062 z M 153,129.5 c 1.29175,-1.375 2.57363,-2.5 2.84863,-2.5 0.275,0 -0.55688,1.125 -1.84863,2.5 -1.29175,1.375 -2.57363,2.5 -2.84863,2.5 -0.275,0 0.55688,-1.125 1.84863,-2.5 z m -49.63296,-0.27224 c -1.17313,-0.95027 -2.68798,-2.80849 -3.36633,-4.12939 -1.111959,-2.1652 -1.049648,-2.33724 0.63296,-1.74755 1.75455,0.61491 1.76152,0.57247 0.11633,-0.70861 C 99.7875,121.89273 99,120.01318 99,118.46544 v -2.81407 L 101.5,118 c 1.375,1.29175 2.5,3.16161 2.5,4.15526 0,1.07417 0.97528,2.05141 2.40552,2.41038 2.30396,0.57826 4.05921,3.87339 2.98723,5.6079 -0.83815,1.35614 -3.74773,0.89946 -6.02571,-0.94578 z M 91.5,129 c -0.339919,-0.55 -0.141476,-1 0.440983,-1 C 92.523442,128 93,128.45 93,129 c 0,0.55 -0.198442,1 -0.440983,1 -0.242541,0 -0.719098,-0.45 -1.059017,-1 z m -5.861626,-1.5 C 85.291266,126.59545 85.633305,126 86.5,126 c 0.866695,0 1.208734,0.59545 0.861626,1.5 -0.316582,0.825 -0.704314,1.5 -0.861626,1.5 -0.157312,0 -0.545044,-0.675 -0.861626,-1.5 z M 139.5,125 c 0.99549,-1.1 2.03498,-2 2.30998,-2 0.275,0 -0.31449,0.9 -1.30998,2 -0.99549,1.1 -2.03498,2 -2.30998,2 -0.275,0 0.31449,-0.9 1.30998,-2 z M 78,123.44098 c 0,-0.85746 0.41921,-1.29993 0.931578,-0.98327 1.108728,0.68523 4.065104,-3.25316 4.076224,-5.43022 0.01195,-2.3392 4.318192,-3.9935 6.411298,-2.46299 0.987908,0.72238 1.285385,1.5001 0.709839,1.85581 -0.544908,0.33677 -1.286899,0.13312 -1.648868,-0.45256 -0.456691,-0.73894 -1.041631,-0.74659 -1.911108,-0.025 -0.68914,0.57193 -1.586577,0.70628 -1.994306,0.29855 -0.407728,-0.40772 -0.650534,-0.29132 -0.539569,0.25868 0.110965,0.55 0.148465,2.2375 0.08333,3.75 C 84.030408,122.29386 83.486443,123 82,123 c -1.1,0 -2,0.45 -2,1 0,0.55 -0.45,1 -1,1 -0.55,0 -1,-0.70156 -1,-1.55902 z m 18.078947,-1.02431 c 0.04798,-1.16495 0.284941,-1.4019 0.604167,-0.60417 0.288871,0.72187 0.253344,1.58437 -0.07895,1.91667 -0.332292,0.33229 -0.568641,-0.25834 -0.52522,-1.3125 z M 87.5,120 c 0,-1.78545 0.437062,-2.57765 1.25,-2.26569 0.6875,0.26382 1.25,1.10652 1.25,1.87268 0,0.76615 0.435877,1.39301 0.968615,1.39301 0.532739,0 0.732288,-0.61586 0.443443,-1.36858 -0.311592,-0.81199 0.311203,-1.58729 1.531384,-1.90638 C 94.482378,117.3226 95,117.66227 95,119.07457 c 0,1.24616 -0.93424,2.09203 -2.75,2.4899 -1.5125,0.33142 -3.2,0.7327 -3.75,0.89173 -0.55,0.15904 -1,-0.94625 -1,-2.4562 z m 59.5,-2.37756 c 0,-0.20765 0.7875,-0.99515 1.75,-1.75 1.58606,-1.24387 1.62143,-1.2085 0.37756,0.37756 C 147.82119,117.91575 147,118.44548 147,117.62244 Z m -55,-3.05289 c 0,-0.78675 -1.004498,-1.57425 -2.232218,-1.75 -1.621207,-0.23208 -2.288675,-1.06654 -2.438474,-3.04856 -0.11344,-1.50095 0.285587,-3.03298 0.886727,-3.40451 0.701263,-0.4334 0.803034,-0.20635 0.283965,0.63352 -0.535322,0.86617 -0.418441,1.06763 0.345492,0.59549 C 89.480471,107.20305 90,105.83977 90,104.56598 c 0,-1.27379 0.328384,-3.83473 0.729742,-5.69098 0.726268,-3.358928 0.733118,-3.351189 1.438451,1.625 1.976319,13.94312 2.072648,15.5 0.959036,15.5 C 92.507253,116 92,115.3563 92,114.56955 Z M 72.157895,113 c 0,-1.375 0.226973,-1.9375 0.504386,-1.25 0.277412,0.6875 0.277412,1.8125 0,2.5 -0.277413,0.6875 -0.504386,0.125 -0.504386,-1.25 z m 25.037054,-0.5 c 0.02038,-1.65 0.244498,-2.20394 0.498042,-1.23097 0.253543,0.97297 0.236869,2.32297 -0.03705,3 C 97.382014,114.94606 97.174569,114.15 97.194949,112.5 Z m 41.617551,0.81689 c 0.72187,-0.28887 1.58437,-0.25335 1.91667,0.0789 0.33229,0.3323 -0.25834,0.56864 -1.3125,0.52522 -1.16495,-0.048 -1.4019,-0.28494 -0.60417,-0.60416 z m -61.093674,-3.00742 c -0.247834,-1.29646 -0.06096,-2.59802 0.415283,-2.89235 0.47624,-0.29434 0.865891,0.3014 0.865891,1.32386 0,1.02246 0.465,2.32402 1.033333,2.89235 0.711111,0.71111 0.581615,1.03334 -0.415283,1.03334 -0.796739,0 -1.65139,-1.06074 -1.899224,-2.3572 z M 135.5,112 c 0.33992,-0.55 0.81648,-1 1.05902,-1 0.24254,0 0.44098,0.45 0.44098,1 0,0.55 -0.47656,1 -1.05902,1 -0.58246,0 -0.7809,-0.45 -0.44098,-1 z m -52.995105,-2.99208 c -0.337227,-0.54564 -0.152468,-1.78314 0.410574,-2.75 0.878146,-1.50795 1.028038,-1.36688 1.054122,0.99208 0.0318,2.87574 -0.430747,3.43088 -1.464696,1.75792 z m 15.953986,-1.07445 c -0.362533,-0.58659 -0.444683,-1.281 -0.182555,-1.54313 0.262128,-0.26213 0.743066,0.21781 1.068751,1.06653 0.676183,1.76211 0.09985,2.07206 -0.886196,0.4766 z m -31.379934,-1.5168 c 0.04798,-1.16495 0.284941,-1.4019 0.604167,-0.60417 0.288871,0.72187 0.253344,1.58437 -0.07895,1.91667 -0.332292,0.33229 -0.568641,-0.25834 -0.52522,-1.3125 z m 71.781753,0.69059 c 1.24101,-0.7863 5.1393,-0.39992 5.1393,0.50937 0,0.21085 -1.4625,0.37648 -3.25,0.36806 -2.20964,-0.0104 -2.81443,-0.29129 -1.8893,-0.87743 z M 94.272364,103 c 0,-2.475 0.195016,-3.4875 0.433369,-2.25 0.238353,1.2375 0.238353,3.2625 0,4.5 -0.238353,1.2375 -0.433369,0.225 -0.433369,-2.25 z m 52.540136,3.31689 c 0.72187,-0.28887 1.58437,-0.25335 1.91667,0.0789 0.33229,0.3323 -0.25834,0.56864 -1.3125,0.52522 -1.16495,-0.048 -1.4019,-0.28494 -0.60417,-0.60416 z m -85.248207,-2.61002 c 0.375531,-0.98622 0.934692,-1.54122 1.242579,-1.23333 0.307887,0.30789 6.34e-4,1.11479 -0.682784,1.79313 -0.987616,0.98026 -1.10248,0.8654 -0.559795,-0.5598 z m 12.044452,0.46908 c -0.404943,-0.65521 -0.03257,-1.89498 0.827497,-2.75505 1.677293,-1.677292 1.875919,-1.077 0.665975,2.01272 -0.524323,1.33892 -0.983656,1.56723 -1.493472,0.74233 z M 79.157895,103 c 0,-1.375 0.226973,-1.9375 0.504386,-1.25 0.277412,0.6875 0.277412,1.8125 0,2.5 -0.277413,0.6875 -0.504386,0.125 -0.504386,-1.25 z m 8.347,1.00792 c -0.337227,-0.54564 -0.195035,-1.73919 0.315983,-2.65233 0.755933,-1.35078 0.929122,-1.16585 0.929122,0.99208 0,2.85077 -0.27922,3.22308 -1.245105,1.66025 z M 68,103.05902 c 0,-0.51754 0.444846,-1.21592 0.988546,-1.55194 0.56686,-0.35034 0.734507,0.0511 0.393011,0.94098 C 68.716766,104.18048 68,104.49745 68,103.05902 Z m 29.078947,-0.64235 c 0.04798,-1.16495 0.284941,-1.4019 0.604167,-0.60417 0.288871,0.72187 0.253344,1.58437 -0.07895,1.91667 -0.332292,0.33229 -0.568641,-0.25834 -0.52522,-1.3125 z m 45.394063,-1.373 c 0.32507,-0.52598 1.25163,-0.70283 2.05902,-0.39301 2.06711,0.79323 1.82352,1.34934 -0.59105,1.34934 -1.13246,0 -1.79305,-0.43035 -1.46797,-0.95633 z M 63,100.73753 C 63,99.755367 69.057473,90 69.667334,90 69.940016,90 69.14566,91.6875 67.902099,93.75 64.520134,99.359137 63,101.52596 63,100.73753 Z m 7,-2.463875 c 0,-1.132822 0.675,-2.318699 1.5,-2.635281 C 72.325,95.321791 73,94.373646 73,93.531385 73,92.689123 73.486702,92 74.081559,92 c 0.594858,0 0.06671,1.6875 -1.173656,3.75 C 69.930065,100.70159 70,100.64089 70,98.273655 Z m 6.022236,-0.356988 C 76.034466,97.1375 76.961552,95.375 78.082428,94 l 2.037957,-2.5 -1.687369,3.5 c -2.063608,4.280407 -2.43932,4.73496 -2.41078,2.916667 z M 81,97 c 0.588702,-1.1 1.295368,-2 1.570368,-2 0.275,0 0.01833,0.9 -0.570368,2 -0.588702,1.1 -1.295368,2 -1.570368,2 -0.275,0 -0.01833,-0.9 0.570368,-2 z m 52.8125,1.316886 c 0.72187,-0.288871 1.58437,-0.253344 1.91667,0.07895 0.33229,0.332292 -0.25834,0.568641 -1.3125,0.52522 -1.16495,-0.04798 -1.4019,-0.284941 -0.60417,-0.604167 z M 102.5,96.718628 C 96.525696,94.29181 93.477901,91.154818 92.571929,86.5 l -0.583893,-3 1.076294,2.710937 c 0.934891,2.354773 1.494044,2.639011 4.255982,2.163466 C 99.069141,88.073294 101.175,87.576217 102,87.269789 c 1.89703,-0.704612 3.39506,-0.886254 9.06144,-1.098739 8.15173,-0.305683 10.82835,-5.152848 5.81622,-10.532737 C 114.88822,73.502898 114.31683,71.459745 116,72.5 c 0.55,0.339919 1,0.197683 1,-0.31608 0,-0.513763 -1.4625,-1.655074 -3.25,-2.536247 -2.20833,-1.088629 -2.6514,-1.609431 -1.38235,-1.624903 2.85034,-0.03475 9.26107,7.005967 10.67446,11.723445 1.1531,3.848689 1.05473,4.590598 -1.18598,8.944708 -1.34385,2.611357 -3.77603,5.526241 -5.40484,6.477521 -3.99779,2.334831 -10.29667,3.034725 -13.95129,1.550184 z m 43.34731,-3.512107 c 0.36711,-1.795603 0.67529,-2.136188 0.91567,-1.011947 0.23667,1.10689 0.9475,1.485138 2.04967,1.090671 2.13995,-0.765888 1.33468,0.107725 -1.41567,1.535821 -1.93205,1.003201 -2.05803,0.871945 -1.54967,-1.614545 z m 13.23164,-0.789854 c 0.048,-1.164943 0.28494,-1.4019 0.60416,-0.604167 0.28887,0.721875 0.25335,1.584375 -0.0789,1.916667 -0.3323,0.332291 -0.56864,-0.258334 -0.52522,-1.3125 z M 151,92.723242 c 0,-0.190919 1.4625,-1.417767 3.25,-2.72633 2.0111,-1.472254 2.70955,-1.713729 1.83224,-0.633462 C 154.75054,91.003229 151,93.482655 151,92.723242 Z m -26.26667,-1.84733 c 0.67834,-0.683418 1.48524,-0.990671 1.79313,-0.682784 0.30789,0.307887 -0.24711,0.867048 -1.23333,1.242579 -1.4252,0.542685 -1.54006,0.427821 -0.5598,-0.559795 z m 18.7078,-0.320746 C 144.50875,89.699825 145.74625,89 146.19113,89 146.63601,89 147,87.664123 147,86.031385 c 0,-2.364791 -0.34042,-2.837985 -1.67361,-2.326391 -1.83075,0.702523 -0.31098,-0.944448 5.2556,-5.695503 l 2.91801,-2.490508 -3.11889,3.490508 c -2.5633,2.868717 -2.98149,3.973001 -2.34757,6.199043 0.8222,2.887227 0.27034,3.669003 -4.03354,5.713948 -2.35767,1.120223 -2.38949,1.09931 -0.55887,-0.367316 z M 43.078947,89.416667 c 0.04798,-1.164943 0.284941,-1.4019 0.604167,-0.604167 0.288871,0.721875 0.253344,1.584375 -0.07895,1.916667 -0.332292,0.332291 -0.568641,-0.258334 -0.52522,-1.3125 z m 91.654383,0.459245 c 0.67834,-0.683418 1.48524,-0.990671 1.79313,-0.682784 0.30789,0.307887 -0.24711,0.867048 -1.23333,1.242579 -1.4252,0.542685 -1.54006,0.427821 -0.5598,-0.559795 z m 37.34562,-1.459245 c 0.048,-1.164943 0.28494,-1.4019 0.60416,-0.604167 0.28887,0.721875 0.25335,1.584375 -0.0789,1.916667 -0.3323,0.332291 -0.56864,-0.258334 -0.52522,-1.3125 z M 138,88.650194 c 0,-0.231096 1.18041,-1.193606 2.62312,-2.138911 1.44272,-0.945305 2.31766,-1.224479 1.94431,-0.620387 C 141.85397,87.045291 138,89.373573 138,88.650194 Z m 22.19268,-7.690095 C 159.96618,72.096761 157.96928,63.643832 154.29617,56 150.56088,48.226762 138.91365,36.780605 130.84382,32.952505 127.35472,31.297375 125.625,30.231891 127,30.584764 136.69869,33.073782 150.72944,45.453352 155.8051,56 c 3.6812,7.64912 5.45069,16.954306 4.94421,26 l -0.36395,6.5 z M 153.95821,82.75 c 2.45201,-2.6125 4.58951,-4.75 4.75,-4.75 0.75088,0 -0.043,0.897827 -4.45821,5.041792 L 149.5,87.5 Z m -12.856,-2.461303 c 2.25938,-2.041217 4.49954,-4.741217 4.97813,-6 C 146.55893,73.029914 147.46674,72 148.09769,72 c 0.83485,0 0.81815,0.396482 -0.0613,1.456195 -0.66469,0.800907 -0.91823,1.925907 -0.56342,2.5 C 147.82774,76.530288 147.5155,77 146.77906,77 c -0.73643,0 -2.82455,1.575 -4.64026,3.5 -1.81571,1.925 -3.71602,3.5 -4.22292,3.5 -0.5069,0 0.92694,-1.670086 3.18633,-3.711303 z M 91.684149,82.25 c -0.238637,-0.4125 -0.06969,-1.65 0.375447,-2.75 0.683892,-1.690014 0.785685,-1.57377 0.65676,0.75 -0.160799,2.898286 -0.32664,3.21962 -1.032207,2 z M 137.3022,78 c 3.46027,-4.498395 7.72645,-12.321531 10.34553,-18.971155 L 149.03762,55.5 148.50185,59 c -0.79759,5.210283 -5.16678,13.20384 -10.20123,18.663438 L 133.84069,82.5 Z m 34.77675,0.416667 c 0.048,-1.164943 0.28494,-1.4019 0.60416,-0.604167 0.28887,0.721875 0.25335,1.584375 -0.0789,1.916667 -0.3323,0.332291 -0.56864,-0.258334 -0.52522,-1.3125 z m -129.000003,-1 c 0.04798,-1.164943 0.284941,-1.4019 0.604167,-0.604167 0.288871,0.721875 0.253344,1.584375 -0.07895,1.916667 -0.332292,0.332291 -0.568641,-0.258334 -0.52522,-1.3125 z M 93.030626,76.5 c 0,-0.55 0.436218,-1.675 0.969374,-2.5 0.533156,-0.825 0.969374,-1.05 0.969374,-0.5 0,0.55 -0.436218,1.675 -0.969374,2.5 -0.533156,0.825 -0.969374,1.05 -0.969374,0.5 z m 43.613884,-4.75 c 1.47302,-2.8875 3.49434,-7.725 4.49183,-10.75 1.22904,-3.727212 1.63603,-4.371862 1.26267,-2 -0.56767,3.606201 -6.85821,18 -7.86657,18 -0.31137,0 0.63906,-2.3625 2.11207,-5.25 z m 17.86677,0.873124 C 155.45659,71.180406 156.4191,70 156.65019,70 c 0.72338,0 -1.6049,3.853975 -2.75929,4.56743 -0.6041,0.373349 -0.32492,-0.501588 0.62038,-1.944306 z M 69.564293,69.706872 c 0.375531,-0.986221 0.934692,-1.541221 1.242579,-1.233333 0.307887,0.307887 6.34e-4,1.114794 -0.682784,1.793128 -0.987616,0.980267 -1.10248,0.865403 -0.559795,-0.559795 z M 98,70 c 0,-0.55 0.476558,-1 1.059017,-1 0.582459,0 0.780902,0.45 0.440983,1 -0.339919,0.55 -0.816476,1 -1.059017,1 C 98.198442,71 98,70.55 98,70 Z m 51.00914,0.75 c 0.005,-0.1375 1.15009,-2.5 2.54457,-5.25 1.39448,-2.75 2.23336,-3.875 1.86417,-2.5 -0.80035,2.980814 -3.27453,8 -3.94356,8 -0.26088,0 -0.47021,-0.1125 -0.46518,-0.25 z M 101,66.40144 C 99.625,65.630086 96.820995,64.718052 94.768879,64.374699 92.716762,64.031346 90.524162,63.131576 89.896434,62.375211 88.006083,60.097476 91.828088,60.698296 98,63.649092 c 3.025,1.446256 7.075,2.96511 9,3.375232 l 3.5,0.745678 -3.5,0.01695 c -1.925,0.0093 -4.625,-0.614158 -6,-1.385512 z m -7.730968,-0.09443 c 0.972967,-0.253543 2.322967,-0.236869 3,0.03705 C 96.946064,66.617986 96.15,66.825431 94.5,66.805051 92.85,66.784672 92.296064,66.560553 93.269032,66.30701 Z M 102,64.065903 c -1.925,-1.015138 -5.4125,-2.416479 -7.75,-3.114092 -3.76401,-1.123345 -4.463148,-1.903977 -4.176,-4.662768 0.0407,-0.391026 -0.567188,-0.953526 -1.350861,-1.25 -1.191294,-0.450682 -1.152297,-0.82211 0.237901,-2.265884 1.570317,-1.630834 2.008982,-1.522025 7.890155,1.957126 3.425065,2.026182 7.405345,5.278261 8.845075,7.226841 1.43972,1.948581 2.00704,2.980374 1.2607,2.292874 -1.90988,-1.759322 -3.46019,-1.561272 -1.95697,0.25 1.55762,1.876813 1.31582,1.841825 -3,-0.434097 z m 2,-1.470881 c 0,-0.717088 -8.417326,-5.317493 -11,-6.011941 -1.375,-0.369719 -0.311162,0.434177 2.364085,1.786436 2.675247,1.352259 5.352745,2.947315 5.950005,3.544568 C 102.38068,62.980682 104,63.391213 104,62.595022 Z M 72.710251,62 c 0.287656,-1.1 0.920528,-2 1.40638,-2 1.045466,0 1.081925,0.318997 0.27638,2.418213 C 73.511924,64.714289 72.092687,64.361569 72.710251,62 Z M 79.75,62.294267 c 1.2375,-0.238353 3.2625,-0.238353 4.5,0 1.2375,0.238353 0.225,0.433369 -2.25,0.433369 -2.475,0 -3.4875,-0.195016 -2.25,-0.433369 z m 26.17431,-1.882401 C 104.59094,58.988393 100.9125,56.224432 97.75,54.26973 94.5875,52.315029 92,50.652837 92,50.575972 c 0,-0.07687 1.201959,-0.239234 2.671021,-0.360817 1.469062,-0.121583 3.831562,0.533859 5.25,1.456538 2.481079,1.613914 2.522039,1.607749 1.078979,-0.162395 -1.427796,-1.751424 -1.273097,-1.809127 3.21379,-1.198739 3.84984,0.523724 4.89814,0.324927 5.71959,-1.084652 0.83671,-1.435749 1.01091,-1.465322 1.03621,-0.175907 0.0192,0.978558 0.95209,1.55 2.53041,1.55 1.55744,0 2.52976,-0.584386 2.57895,-1.55 0.046,-0.903153 0.27819,-1.062074 0.55639,-0.380813 0.6552,1.604468 -6.57705,11.48487 -7.8368,10.706305 -0.63332,-0.391414 -0.76007,0.170347 -0.33829,1.499279 0.8778,2.765702 0.40798,2.679941 -2.53594,-0.462905 z M 70.55887,57.531803 c 1.067622,-0.807508 3.08863,-1.482508 4.49113,-1.5 1.4025,-0.01749 3.180797,-0.594303 3.951772,-1.281803 1.192527,-1.06341 1.204104,-0.988774 0.07756,0.5 -1.144337,1.512283 -1.069867,1.765621 0.548228,1.864999 2.318348,0.142385 -5.210991,1.748104 -8.568685,1.827371 -2.359354,0.0557 -2.376104,0.0084 -0.5,-1.410567 z M 83,58.616577 c 0,-0.210882 1.125,-0.59848 2.5,-0.861328 1.375,-0.262848 2.5,-0.09031 2.5,0.383423 C 88,58.612402 86.875,59 85.5,59 84.125,59 83,58.82746 83,58.616577 Z M 137.25218,53.5 c 0.0111,-2.2 0.21589,-2.982253 0.45508,-1.738341 0.23919,1.243913 0.23011,3.043913 -0.0202,4 C 137.43679,56.717747 137.24108,55.7 137.25218,53.5 Z M 82.143237,53.109687 c -0.746219,-0.472828 -0.971219,-1.093705 -0.5,-1.379727 0.47122,-0.286021 1.437005,0.107729 2.14619,0.875 1.428891,1.545928 0.463955,1.841781 -1.64619,0.504727 z m 5.399468,-4.040589 C 87.226274,48.557102 87.424717,47.855545 87.983688,47.510081 88.54266,47.164618 89,47.583524 89,48.440983 c 0,1.756526 -0.600055,2.015159 -1.457295,0.628115 z m 2.92928,-3.023769 c 0.297262,-0.48098 0.06648,-1.032507 -0.512845,-1.225616 -0.579327,-0.193109 0.785653,-0.399327 3.033288,-0.458262 4.67639,-0.12262 4.686609,-0.05627 0.223327,1.450011 -1.806335,0.609606 -3.041031,0.714846 -2.74377,0.233867 z M 108.18333,45.783333 C 106.52913,44.129126 106.70734,42 108.5,42 c 0.825,0 1.5,-0.45 1.5,-1 0,-0.55 0.45,-1 1,-1 0.55,0 1,0.675 1,1.5 0,0.833333 -0.88889,1.5 -2,1.5 -2.20579,0 -2.72387,1.574808 -0.75,2.279762 0.6875,0.245536 0.995,0.725536 0.68333,1.066667 -0.31166,0.341131 -1.09916,0.08774 -1.75,-0.563096 z M 99.981001,44.477108 C 98.924217,43.203761 98.986084,43.05743 100.35856,43.584097 101.26135,43.930531 102,44.615833 102,45.106989 c 0,1.285959 -0.57887,1.105364 -2.018999,-0.629881 z M 119,45.073324 c 0,-0.509672 -0.7875,-1.132471 -1.75,-1.383998 -1.31691,-0.344145 -1.19317,-0.486031 0.5,-0.573325 1.38489,-0.0714 2.25,0.460739 2.25,1.383999 0,0.825 -0.225,1.5 -0.5,1.5 -0.275,0 -0.5,-0.417004 -0.5,-0.926676 z M 85,43 C 84.098708,42.41754 83.975367,42.024514 84.690983,42.015313 85.346024,42.006891 86.160081,42.45 86.5,43 c 0.767305,1.241525 0.421123,1.241525 -1.5,0 z m 4.872445,-4.75 C 88.602929,36.631245 88.649994,36.610023 90.5,37.967032 c 1.1,0.806868 2.1875,1.594368 2.416667,1.75 C 93.145833,39.872665 92.863433,40 92.289111,40 91.714789,40 90.627289,39.2125 89.872445,38.25 Z M 129.20367,37.954522 C 128.43111,36.717449 128.36475,36 129.02291,36 c 0.57192,0 1.30633,0.694408 1.63201,1.543128 0.90001,2.345377 -0.0715,2.620767 -1.45125,0.411394 z M 99.872445,37.25 C 98.628574,35.663944 98.663944,35.628574 100.25,36.872445 101.91575,38.178814 102.44548,39 101.62244,39 c -0.20765,0 -0.99515,-0.7875 -1.749995,-1.75 z M 120.5,34 c -0.33992,-0.55 -0.14148,-1 0.44098,-1 0.58246,0 1.05902,0.45 1.05902,1 0,0.55 -0.19844,1 -0.44098,1 -0.24254,0 -0.7191,-0.45 -1.05902,-1 z M 104,33 c -0.90129,-0.58246 -1.02463,-0.975486 -0.30902,-0.984687 0.65504,-0.0084 1.4691,0.434687 1.80902,0.984687 0.7673,1.241525 0.42112,1.241525 -1.5,0 z M 90,30 c 0.825,-0.533156 2.175,-0.944637 3,-0.914402 0.989055,0.03625 0.81874,0.34772 -0.5,0.914402 -2.749085,1.181322 -4.327966,1.181322 -2.5,0 z m 31.8125,-0.683114 c 0.72187,-0.288871 1.58437,-0.253344 1.91667,0.07895 0.33229,0.332292 -0.25834,0.568641 -1.3125,0.52522 -1.16495,-0.04798 -1.4019,-0.284941 -0.60417,-0.604167 z M 95.75,28.337719 c 0.6875,-0.277412 1.8125,-0.277412 2.5,0 0.6875,0.277413 0.125,0.504386 -1.25,0.504386 -1.375,0 -1.9375,-0.226973 -1.25,-0.504386 z m 21,0 c 0.6875,-0.277412 1.8125,-0.277412 2.5,0 0.6875,0.277413 0.125,0.504386 -1.25,0.504386 -1.375,0 -1.9375,-0.226973 -1.25,-0.504386 z m -12.97357,-1.071216 c 2.35204,-0.211245 5.95204,-0.208273 8,0.0066 2.04796,0.214878 0.12357,0.387715 -4.27643,0.384083 -4.4,-0.0036 -6.07561,-0.179441 -3.72357,-0.390687 z"
         id="path1279" />
      <path
         style="fill:#b9b9b9;fill-opacity:1"
         d="m 34.8125,215.31689 c 0.721875,-0.28887 1.584375,-0.25335 1.916667,0.0789 0.332291,0.33229 -0.258334,0.56864 -1.3125,0.52522 -1.164943,-0.048 -1.4019,-0.28494 -0.604167,-0.60416 z m 9,0 c 0.721875,-0.28887 1.584375,-0.25335 1.916667,0.0789 0.332291,0.33229 -0.258334,0.56864 -1.3125,0.52522 -1.164943,-0.048 -1.4019,-0.28494 -0.604167,-0.60416 z M 16.872445,206.25 c -1.243871,-1.58606 -1.208501,-1.62143 0.377555,-0.37756 0.9625,0.75485 1.75,1.54235 1.75,1.75 0,0.82304 -0.821186,0.29331 -2.127555,-1.37244 z M 61,207.62244 c 0,-0.20765 0.7875,-0.99515 1.75,-1.75 1.586056,-1.24387 1.621426,-1.2085 0.377555,0.37756 C 61.821186,207.91575 61,208.44548 61,207.62244 Z m 6.428571,-7.19387 c 1.455499,-1.4555 1.969369,-2.86173 1.699298,-4.65023 -0.05994,-0.39691 0.899275,-0.34821 2.131579,0.10822 3.182465,1.17876 17.431709,1.42217 18.119361,0.30953 1.486347,-2.40496 -8.377516,-7.64635 -12.745692,-6.77271 -2.872226,0.57444 -2.771995,0.41637 1.422874,-2.24393 2.482019,-1.57405 6.297292,-4.37924 8.478385,-6.23376 2.762442,-2.34882 3.25841,-2.57885 1.634685,-0.75816 l -2.33094,2.61368 9.83094,0.73835 c 5.407019,0.40609 15.191209,0.4507 21.742649,0.0991 11.47424,-0.61573 12.08022,-0.54607 16.5,1.89691 2.52356,1.39486 3.47393,1.73247 2.11193,0.75025 -5.45237,-3.93204 -9.51193,-8.00247 -12.19897,-12.23164 -3.71229,-5.84282 -3.63662,-7.47516 0.10696,-2.3073 4.34234,5.99443 13.44313,12.26564 17.76871,12.24413 0.98981,-0.005 6.89786,1.17238 13.129,2.61622 7.98821,1.85097 12.11695,3.33321 14,5.02606 1.52369,1.36978 2.02646,2.28618 1.17066,2.13378 -1.08193,-0.19266 -1.49731,0.63871 -1.49033,2.98289 0.009,2.88388 -0.30122,3.25 -2.75,3.25 C 163.37756,200 163,199.60096 163,197.08333 c 0,-1.60416 0.5625,-3.14364 1.25,-3.42105 0.6875,-0.27741 -1,-0.54656 -3.75,-0.59811 -2.75,-0.0515 -7.925,-0.81025 -11.5,-1.686 -3.575,-0.87574 -7.48679,-1.72665 -8.69287,-1.89089 -1.20607,-0.16424 -2.69171,-0.60693 -3.30141,-0.98374 -1.18277,-0.73099 -20.33072,1.18248 -24.82172,2.48045 -2.57011,0.7428 -2.43881,0.8869 3.09451,3.39586 3.17819,1.44108 6.16059,2.62015 6.62756,2.62015 0.46697,0 1.36854,0.62596 2.00348,1.39102 C 126.27133,201.23679 119.58232,202 92.279348,202 68.259162,202 66,201.85714 67.428571,200.42857 Z M 8.0789474,188.41667 c 0.047984,-1.16495 0.2849403,-1.4019 0.6041666,-0.60417 0.2888706,0.72187 0.2533443,1.58437 -0.078947,1.91667 -0.3322917,0.33229 -0.5686404,-0.25834 -0.5252196,-1.3125 z m 0,-9 c 0.047984,-1.16495 0.2849403,-1.4019 0.6041666,-0.60417 0.2888706,0.72187 0.2533443,1.58437 -0.078947,1.91667 -0.3322917,0.33229 -0.5686404,-0.25834 -0.5252196,-1.3125 z m 62.9999996,0 c 0.04798,-1.16495 0.284941,-1.4019 0.604167,-0.60417 0.288871,0.72187 0.253344,1.58437 -0.07895,1.91667 -0.332292,0.33229 -0.568641,-0.25834 -0.52522,-1.3125 z m 18.5591,-4.51649 C 94.790916,169.31687 96,165.93561 96,157.10868 c 0,-4.94502 0.438489,-8.26165 1.15044,-8.70166 0.848694,-0.52452 1.008318,1.56702 0.608586,7.97425 -0.426526,6.83668 -1.150275,9.902 -3.40044,14.40199 -1.572222,3.14421 -3.308586,5.72363 -3.858586,5.73205 -0.55,0.008 -1.675,0.4135 -2.5,0.90018 -0.825,0.48667 -0.08788,-0.64522 1.638047,-2.51531 z M 16,162.62244 c 0,-0.20765 0.7875,-0.99515 1.75,-1.75 1.586056,-1.24387 1.621426,-1.2085 0.377555,0.37756 C 16.821186,162.91575 16,163.44548 16,162.62244 Z M 61.872445,161.25 c -1.243871,-1.58606 -1.208501,-1.62143 0.377555,-0.37756 0.9625,0.75485 1.75,1.54235 1.75,1.75 0,0.82304 -0.821186,0.29331 -2.127555,-1.37244 z M 34.8125,152.31689 c 0.721875,-0.28887 1.584375,-0.25335 1.916667,0.0789 0.332291,0.33229 -0.258334,0.56864 -1.3125,0.52522 -1.164943,-0.048 -1.4019,-0.28494 -0.604167,-0.60416 z m 9,0 c 0.721875,-0.28887 1.584375,-0.25335 1.916667,0.0789 0.332291,0.33229 -0.258334,0.56864 -1.3125,0.52522 -1.164943,-0.048 -1.4019,-0.28494 -0.604167,-0.60416 z M 92,137.11221 C 75.793232,131.86642 63.583296,121.43627 56.13912,106.4786 54.36576,102.91537 52.517748,100 52.032428,100 c -1.021473,0 -0.54339,12.36423 0.546255,14.12731 0.427808,0.69221 0.302472,0.91727 -0.302577,0.54333 -1.141663,-0.70558 -4.309847,-6.9985 -4.806692,-9.54746 C 47.295399,104.23043 47.070909,103.275 46.970549,103 46.17749,100.82693 49.361203,80.360784 52.07279,70.200818 c 2.500686,-9.369749 6.488649,-17.129259 12.79014,-24.886195 2.763644,-3.401958 4.596531,-6.328136 4.073084,-6.502618 -1.897478,-0.632493 11.85023,-8.940219 19.11551,-11.551484 6.48588,-2.331135 9.013249,-2.682498 19.556536,-2.718815 10.94333,-0.03769 11.80909,-0.168411 9,-1.358865 -2.93903,-1.245525 -3.00618,-1.392383 -1.23483,-2.700353 2.8061,-2.072017 15.12677,0.845071 15.12677,3.581468 0,0.749483 3.375,3.920801 7.5,7.047373 4.125,3.126572 9.75,8.075553 12.5,10.997734 l 5,5.313057 -5.18681,-4.692028 c -5.541,-5.012424 -16.9064,-12.736236 -18.71823,-12.720708 -0.60223,0.0052 1.38004,1.421215 4.40504,3.146786 8.44514,4.817418 18.188,15.311877 22.45892,24.191475 3.79152,7.882913 6.50635,18.37793 6.50635,25.152355 0,6.794878 -2.71894,17.277986 -6.5438,25.2302 -6.68545,13.89963 -21.21109,25.85562 -36.06581,29.68561 -8.33363,2.14865 -23.240075,1.99957 -30.35566,-0.3036 z m 32.5,-3.30739 c 6.76275,-2.22604 10.67838,-4.441 16.60654,-9.39383 2.24589,-1.87639 4.43976,-3.19139 4.87527,-2.92223 1.17925,0.72881 8.51214,-9.20161 11.44077,-15.49344 2.69339,-5.78644 3.5562,-9.89855 1.46777,-6.99532 -0.89739,1.24751 -0.97897,1.19167 -0.48468,-0.331787 0.32688,-1.007484 0.62596,-2.582484 0.66462,-3.5 0.0644,-1.529872 0.12665,-1.527164 0.75,0.03265 0.37384,0.935472 0.80837,-3.403293 0.96563,-9.641701 C 161.30025,65.155558 157.61129,54.534811 146.00363,43 138.23029,35.275455 131.88171,31.655195 121.41456,28.978148 102.48178,24.135958 84.595369,28.870279 70.076378,42.56676 58.789429,53.214295 53,66.690455 53,82.315754 c 0,14.945371 5.836777,29.361696 16.003287,39.526696 6.074608,6.07371 15.258959,11.73154 17.1483,10.56386 0.771152,-0.47659 0.884248,-0.27331 0.338877,0.60912 -0.594346,0.96167 -0.362759,1.14954 0.845491,0.68589 0.915225,-0.3512 1.664939,-0.31517 1.666032,0.0801 0.0011,0.39524 1.238593,0.83524 2.75,0.97778 1.511407,0.14253 5.223013,0.66047 8.248013,1.15098 7.26512,1.17804 17.08999,0.33378 24.5,-2.10532 z M 146,120.64616 c 0,-0.55958 6.41872,-9.38133 7.74616,-10.64616 0.28861,-0.275 0.0563,0.4 -0.51615,1.5 C 151.92997,113.99791 146,121.49948 146,120.64616 Z M 93.230584,86.20834 C 90.330443,77.816891 97.388247,68 106.32138,68 110.41269,68 117,70.574167 117,72.172958 c 0,0.519792 -0.45,0.666961 -1,0.327042 -1.68317,-1.040255 -1.11178,1.002898 0.87766,3.138313 3.6322,3.898704 3.59288,6.315119 -0.15055,9.253131 -1.55426,1.219852 -1.69522,1.189023 -1.14301,-0.25 C 116.1243,83.233684 115.37303,83 110.30699,83 c -3.24885,0 -6.42792,-0.520928 -7.06461,-1.157618 -0.87682,-0.876825 -1.55664,-0.826456 -2.80267,0.207653 -1.509195,1.252522 -1.463024,1.512669 0.55908,3.150069 2.37982,1.927065 2.08489,2.18227 -3.665488,3.171701 -2.766397,0.475997 -3.285019,0.202514 -4.102718,-2.163465 z m 11.581916,0.108546 c 0.72187,-0.288871 1.58437,-0.253344 1.91667,0.07895 0.33229,0.332292 -0.25834,0.568641 -1.3125,0.52522 -1.16495,-0.04798 -1.4019,-0.284941 -0.60417,-0.604167 z M 147,134.64372 c 0,-0.29579 2.26667,-3.53249 5.03704,-7.19266 6.06238,-8.00951 9.97747,-15.55671 12.94331,-24.95106 3.07259,-9.73252 3.08509,-24.872081 0.0297,-36 -1.2081,-4.4 -2.61796,-9.736906 -3.13302,-11.85979 -0.51505,-2.122885 -1.81041,-5.668647 -2.87856,-7.879471 -1.92928,-3.993147 -1.92914,-4.007955 0.0208,-2.243302 2.25156,2.03764 7.03371,9.896039 7.50818,12.338033 0.17574,0.904492 0.40725,1.86953 0.51446,2.14453 0.10721,0.275 0.14164,0.8375 0.0765,1.25 -0.0651,0.4125 0.28945,0.75 0.78796,0.75 0.49851,0 0.65262,0.970367 0.34248,2.156372 -0.34537,1.320701 -0.17155,1.913879 0.44855,1.530641 0.58406,-0.360973 1.03863,0.52488 1.07432,2.093628 0.50775,22.315385 0.36938,26.260244 -1.14189,32.555727 -0.90262,3.760002 -1.34405,7.317032 -0.98097,7.904512 0.41824,0.67673 0.17937,0.771 -0.65189,0.25726 -0.97745,-0.6041 -1.16813,-0.26064 -0.74776,1.34687 0.36516,1.39639 0.18436,1.92296 -0.51242,1.49232 -0.68755,-0.42493 -0.83869,-0.0452 -0.41819,1.05056 0.44376,1.15642 0.28071,1.48251 -0.5,1 -0.78072,-0.4825 -0.94376,-0.15641 -0.5,1 0.36216,0.94379 0.26079,1.4702 -0.22528,1.16979 -0.48607,-0.30041 -1.15076,0.14959 -1.47709,1 -0.39127,1.01964 -0.17154,1.32868 0.64521,0.90748 0.6812,-0.35129 0.11355,0.33939 -1.26145,1.53484 -1.375,1.19545 -1.825,1.87613 -1,1.51262 0.97136,-0.428 0.88325,-0.15541 -0.25,0.77347 -0.9625,0.78892 -1.75,1.86968 -1.75,2.4017 0,0.53202 -2.7,3.56075 -6,6.73052 -3.3,3.16977 -6,5.52121 -6,5.22541 z M 43.286014,83.5 c 0.0075,-2.75 0.201713,-3.756313 0.431567,-2.23625 0.229855,1.520062 0.223712,3.770062 -0.01365,5 C 43.466569,87.493687 43.278507,86.25 43.286014,83.5 Z m 128.966166,0 c 0.0111,-2.2 0.21589,-2.982253 0.45508,-1.738341 0.23919,1.243913 0.23011,3.043913 -0.0202,4 C 172.43679,86.717747 172.24108,85.7 172.25218,83.5 Z M 153.87244,39.25 C 152.62857,37.663944 152.66394,37.628574 154.25,38.872445 155.91575,40.178814 156.44548,41 155.62244,41 c -0.20765,0 -0.99515,-0.7875 -1.75,-1.75 z M 62,37.5 C 63.291745,36.125 64.573628,35 64.848628,35 65.123628,35 64.291745,36.125 63,37.5 61.708255,38.875 60.426372,40 60.151372,40 59.876372,40 60.708255,38.875 62,37.5 Z m 43.75,-19.205733 c 1.2375,-0.238353 3.2625,-0.238353 4.5,0 1.2375,0.238353 0.225,0.433369 -2.25,0.433369 -2.475,0 -3.4875,-0.195016 -2.25,-0.433369 z"
         id="path1277" />
      <path
         style="fill:#a3a3a3;fill-opacity:1"
         d="m 32.081368,214.46286 c -7.007514,-1.95042 -11.089141,-4.52873 -15.998462,-10.10601 -7.2100396,-8.19104 -9.3766251,-20.26932 -5.62298,-31.34697 2.568108,-7.57893 10.971021,-15.98185 18.549951,-18.54995 11.396801,-3.86179 23.315617,-1.56915 31.88184,6.13262 5.490481,4.93642 8.467297,10.25998 10.153245,18.15745 0.886891,4.15446 1.527525,5.25 3.070021,5.25 3.060758,0 7.955909,-2.38002 13.273889,-6.45376 4.850778,-3.71586 4.872058,-3.72142 2.731057,-0.71466 C 87.799397,180.09046 82.625662,184.44879 77,187.88373 l -3.5,2.13705 3.111502,-0.60769 c 4.395786,-0.85852 14.253318,4.37858 12.767307,6.783 -0.677517,1.09625 -14.914733,0.87707 -18.035515,-0.27765 -1.805888,-0.66819 -2.263799,-0.36047 -2.815068,1.89178 -1.038894,4.24447 -11.404916,13.65702 -17.124153,15.54907 -7.401316,2.44851 -13.283584,2.78446 -19.322705,1.10357 z M 37,201.59878 c 0,-2.82543 -0.59099,-3.74992 -3.490937,-5.46093 -9.684014,-5.71371 -9.824021,-18.317 -0.268203,-24.14325 8.679071,-5.2917 20.786998,1.71923 20.73344,12.0054 -0.03715,7.13517 -6.531507,16.16904 -13.835391,19.24551 L 37.5,204.35705 l 2.456052,0.41803 c 3.791395,0.64531 9.701396,-1.53542 13.717508,-5.06161 11.771054,-10.33512 8.62759,-29.09548 -5.891441,-35.16042 -10.152095,-4.24077 -22.108434,0.62734 -26.886256,10.94695 -4.7646,10.29105 2.68e-4,22.69471 10.604137,27.60414 5.335212,2.47012 5.5,2.42502 5.5,-1.50536 z M 72.195851,188.25 c -0.289743,-1.5125 -0.719789,-2.17265 -0.955658,-1.46701 -0.425347,1.2725 0.335566,4.21701 1.08975,4.21701 0.215992,0 0.155651,-1.2375 -0.134092,-2.75 z m 95.977209,8.32789 c 0.17982,-1.45204 0.77694,-2.62608 1.32694,-2.60898 1.49579,0.0465 1.20678,4.2955 -0.32694,4.80674 -0.92699,0.30899 -1.2284,-0.35343 -1,-2.19776 z M 146.01488,121.8875 c -0.008,-0.33687 1.39829,-2.36187 3.1255,-4.5 1.72721,-2.13812 4.86483,-7.4875 6.97248,-11.8875 2.10766,-4.4 3.84449,-7.272961 3.85962,-6.384357 0.0439,2.578707 -6.67065,15.012187 -10.46832,19.384357 -1.91093,2.2 -3.4811,3.72438 -3.48928,3.3875 z m 18.0264,-8.96842 c 5.1425,-10.08013 7.93689,-32.104811 5.57226,-43.91908 -0.57789,-2.887268 -0.49797,-3.173658 0.45651,-1.635897 2.13366,3.437534 2.41352,21.75377 0.45619,29.857307 C 168.80543,104.34575 163.6974,117 162.54239,117 c -0.32067,0 0.35383,-1.83642 1.49889,-4.08092 z M 45.25,97.17371 C 43.547715,89.920219 43.676473,75.697238 45.509939,68.460099 50.910498,47.142766 67.545245,28.925661 88,21.928227 c 8.392121,-2.870888 30.86814,-4.173942 27.5,-1.59432 -1.95323,1.495954 -1.92732,1.562578 1.10806,2.848934 2.80909,1.190454 1.94333,1.321171 -9,1.358865 -10.543287,0.03632 -13.070656,0.38768 -19.556536,2.718815 -7.26528,2.611265 -21.012988,10.918991 -19.11551,11.551484 0.523447,0.174482 -1.30944,3.10066 -4.073084,6.502618 C 55.757096,56.523617 51.742152,66.921677 48.574133,87.5 47.727412,93 46.914346,98.625 46.76732,100 46.581067,101.74186 46.120928,100.88476 45.25,97.17371 Z m 114.82895,-1.757043 c 0.048,-1.164943 0.28494,-1.4019 0.60416,-0.604167 0.28887,0.721875 0.25335,1.584375 -0.0789,1.916667 -0.3323,0.332291 -0.56864,-0.258334 -0.52522,-1.3125 z M 107.26903,85.307009 c 0.97297,-0.253543 2.32297,-0.236869 3,0.03705 0.67703,0.273923 -0.11903,0.481368 -1.76903,0.460988 -1.65,-0.02038 -2.20394,-0.244498 -1.23097,-0.498042 z M 113,85.332422 c 0.825,-0.347771 1.87176,-1.127335 2.32613,-1.732366 0.53136,-0.707539 0.6802,-0.564832 0.41713,0.399944 -0.22494,0.825 -1.2717,1.604565 -2.32613,1.732366 -1.34704,0.163268 -1.47108,0.04434 -0.41713,-0.399944 z m 55.07895,-21.915755 c 0.048,-1.164943 0.28494,-1.4019 0.60416,-0.604167 0.28887,0.721875 0.25335,1.584375 -0.0789,1.916667 -0.3323,0.332291 -0.56864,-0.258334 -0.52522,-1.3125 z"
         id="path1275" />
      <path
         style="fill:#8c8c8c;fill-opacity:1"
         d="M 100.27366,84.27077 C 99.987256,83.524406 99.921015,82.755325 100.12646,82.561701 100.91119,81.822132 115,83.311824 115,84.134367 c 0,0.476098 -0.5625,0.888595 -1.25,0.916659 -0.6875,0.02806 -3.88376,0.169318 -7.1028,0.313898 -4.19723,0.188515 -6.0001,-0.120985 -6.37354,-1.094154 z"
         id="path1273" />
    </g>
  </g>
</svg>
